<?xml version="1.0" encoding="UTF-8" standalone="no"?>
<!DOCTYPE svg PUBLIC "-//W3C//DTD SVG 1.1//EN" "http://www.w3.org/Graphics/SVG/1.1/DTD/svg11.dtd">
<svg xmlns="http://www.w3.org/2000/svg" version="1.1" viewBox="0 0 256 256" width="256.0pt" height="256.0pt">
<path d="M 0.00 0.00 L 256.00 0.00 L 256.00 256.00 L 0.00 256.00 L 0.00 0.00 Z" fill="#fefefd" />
<path d="M 136.94 12.19 C 143.70 13.01 150.51 12.92 157.28 13.62 C 164.00 14.39 170.46 13.36 177.12 14.88 C 184.28 16.52 193.08 16.15 199.58 19.48 C 207.38 24.54 210.90 33.02 215.67 40.36 C 218.28 44.15 220.76 47.99 222.84 52.11 C 226.04 58.43 230.46 63.51 232.58 70.41 C 235.00 78.38 238.07 86.19 238.95 94.29 C 240.39 105.56 243.36 114.98 242.78 126.13 C 242.63 133.86 239.08 140.11 237.89 147.86 C 236.94 154.29 233.95 159.47 233.98 165.96 C 234.01 171.31 233.07 176.83 233.81 182.12 C 234.77 188.36 235.90 194.57 237.16 200.76 C 238.24 205.77 236.12 211.00 235.04 215.92 C 233.78 220.55 233.11 225.81 230.82 230.06 C 227.82 234.69 224.07 238.69 218.58 240.17 C 206.63 244.68 194.21 243.45 182.28 239.62 C 179.29 238.69 179.42 235.24 176.21 234.40 C 178.78 233.20 180.88 231.33 183.29 229.89 C 185.87 229.11 188.65 229.02 191.25 228.20 L 192.03 228.03 C 194.80 227.36 197.58 226.92 200.44 226.84 C 197.61 229.34 193.90 230.46 190.38 231.61 C 190.36 232.33 190.35 233.04 190.33 233.76 C 194.46 234.82 199.23 236.12 203.50 235.48 C 207.52 234.58 208.82 230.98 211.09 228.00 C 212.06 226.78 213.14 225.66 214.24 224.55 C 213.78 228.42 212.43 231.51 214.86 235.06 C 217.76 234.49 220.66 234.10 223.59 233.82 C 223.73 231.75 223.86 229.69 224.19 227.64 C 224.61 225.83 225.07 224.04 225.43 222.22 C 226.25 218.78 226.49 215.68 226.10 212.16 L 226.05 211.52 C 227.06 210.97 228.06 210.41 229.05 209.84 C 228.80 208.55 228.54 207.26 228.27 205.98 C 228.51 204.55 228.81 203.14 229.11 201.73 C 227.87 199.74 226.53 197.82 225.15 195.93 C 226.05 194.57 226.95 193.23 227.87 191.88 C 226.36 190.55 224.86 189.24 223.23 188.06 C 219.84 189.71 216.40 191.27 213.04 192.98 C 213.67 192.13 214.57 191.14 214.73 190.06 C 214.57 188.13 213.88 186.25 213.72 184.33 C 214.13 182.72 215.07 181.22 215.85 179.77 C 217.00 179.25 218.15 178.73 219.31 178.22 C 223.48 177.71 225.12 175.66 226.31 171.83 C 226.53 169.76 226.05 167.56 225.80 165.51 C 224.03 165.79 222.27 166.08 220.50 166.35 C 221.83 165.25 223.18 164.17 224.54 163.10 C 223.73 161.79 222.92 160.49 222.03 159.23 C 223.72 157.79 224.86 156.38 225.92 154.43 C 226.94 152.62 228.16 150.75 228.84 148.79 C 231.50 140.61 234.19 132.56 235.00 123.93 C 235.64 118.87 236.31 113.80 236.77 108.73 C 237.04 105.76 236.64 102.60 234.16 100.64 C 231.58 102.26 232.64 105.40 232.54 107.95 C 232.15 106.20 231.73 104.46 231.35 102.71 L 231.48 101.88 C 232.88 100.88 235.47 99.73 235.72 97.84 C 235.81 93.49 230.42 92.55 229.49 88.67 C 227.91 83.20 227.19 77.66 224.46 72.59 C 221.92 68.06 220.43 63.13 217.52 58.78 C 216.47 56.90 215.35 55.05 214.10 53.30 C 213.48 53.39 212.86 53.48 212.24 53.58 C 208.11 48.80 204.75 43.35 201.10 38.19 L 201.10 37.62 C 203.02 39.57 204.96 41.20 206.52 43.46 C 208.74 46.62 210.37 49.87 213.30 52.49 C 209.96 45.58 205.64 38.55 199.89 33.38 C 194.91 28.28 189.49 23.88 182.83 21.17 C 184.47 23.95 186.24 26.72 188.35 29.17 C 187.60 29.37 186.86 29.57 186.12 29.78 C 183.53 27.98 180.65 26.44 177.74 25.24 C 172.37 23.16 166.65 23.21 160.95 21.93 C 154.87 20.53 149.11 21.47 143.01 21.01 C 137.06 20.28 130.89 20.68 124.88 20.67 C 121.16 20.34 117.14 19.91 113.46 20.66 C 110.26 21.31 107.09 22.16 103.93 23.01 C 101.20 23.96 98.86 25.60 96.80 27.62 C 94.01 30.29 92.25 33.57 90.72 37.08 C 94.75 37.53 98.79 37.87 102.83 38.17 C 104.72 36.06 106.54 33.89 108.37 31.74 C 109.68 30.29 111.01 28.86 112.30 27.39 C 117.62 27.13 122.93 26.08 128.22 25.37 C 130.24 25.21 131.30 24.20 132.64 22.80 C 135.03 23.35 137.05 24.45 139.30 25.46 C 139.51 24.73 139.73 24.01 139.94 23.29 C 145.96 24.45 151.98 25.28 157.96 26.65 C 162.44 27.77 166.86 30.11 171.16 31.90 C 175.32 33.80 179.28 35.33 182.02 39.21 C 182.95 40.52 183.82 41.86 184.73 43.18 C 187.34 47.76 190.34 50.84 194.61 53.88 C 195.48 52.85 196.35 51.82 197.21 50.79 C 198.05 50.77 198.89 50.75 199.73 50.73 C 199.92 51.29 200.12 51.85 200.34 52.41 C 198.59 55.44 197.66 58.67 197.04 62.09 C 194.00 58.71 191.21 55.30 187.43 52.70 C 183.23 49.93 180.08 46.25 176.30 42.99 C 173.55 40.53 170.49 38.56 167.38 36.59 C 164.20 34.62 161.99 31.80 158.99 29.58 C 157.89 28.92 156.73 28.35 155.55 27.83 C 155.09 30.39 154.49 33.07 154.58 35.69 C 155.07 37.47 158.37 37.23 159.80 37.72 C 161.70 39.68 163.63 41.49 164.96 43.91 C 168.08 49.45 171.13 55.05 174.41 60.51 C 174.64 64.09 174.39 67.46 176.09 70.74 L 175.71 71.74 C 174.04 75.39 174.34 80.02 173.89 84.02 C 173.38 88.05 174.68 91.55 176.10 95.23 C 174.94 95.93 173.77 96.83 172.48 97.24 C 169.76 97.10 167.08 95.83 164.35 95.73 C 163.42 96.34 162.60 97.17 161.81 97.97 L 161.28 98.56 C 158.70 96.10 155.60 93.04 154.51 89.56 C 154.05 85.68 154.28 81.72 153.85 77.82 C 154.08 75.64 154.86 73.67 155.61 71.63 C 152.54 71.88 149.55 72.37 146.54 73.05 C 147.74 75.62 149.07 78.10 150.67 80.44 C 150.15 80.87 149.63 81.30 149.11 81.73 C 148.82 81.24 148.54 80.75 148.26 80.26 C 147.45 80.34 146.64 80.42 145.83 80.50 C 145.84 77.30 145.51 74.32 146.79 71.28 C 146.60 71.09 146.41 70.91 146.23 70.73 C 144.22 68.88 142.75 66.73 141.35 64.41 C 139.78 61.59 136.27 59.83 133.63 58.08 C 132.64 54.69 132.39 51.24 132.00 47.75 C 130.44 49.09 128.93 50.47 127.36 51.80 C 123.68 53.94 119.57 53.59 115.70 52.20 C 112.41 50.49 110.13 46.49 107.86 43.64 C 107.12 44.07 106.39 44.51 105.65 44.95 C 106.31 46.23 106.97 47.50 107.62 48.78 C 103.32 48.79 98.42 49.08 94.30 47.73 C 91.58 46.87 88.94 45.76 86.35 44.59 C 83.15 43.11 80.67 40.75 77.57 38.84 C 76.98 43.77 74.71 46.78 71.09 50.00 C 68.38 51.84 65.50 53.26 62.57 54.71 C 62.34 52.46 62.08 50.21 61.74 47.96 C 58.24 50.75 55.76 54.31 53.67 58.21 C 51.66 57.94 49.70 57.54 47.71 57.15 C 47.50 58.68 47.28 60.20 47.01 61.72 C 45.74 58.33 45.67 55.65 42.00 54.03 C 42.65 57.03 43.67 59.97 44.17 63.00 C 44.50 66.20 44.08 69.54 43.50 72.70 C 43.11 73.38 42.73 74.07 42.36 74.76 C 37.37 72.87 36.98 67.36 35.96 62.83 C 35.72 58.95 35.82 55.01 35.32 51.16 C 35.17 49.43 33.78 49.16 32.55 48.28 C 32.60 47.50 32.64 46.73 32.67 45.95 C 27.63 52.92 27.64 60.26 24.75 67.99 C 22.85 77.97 21.48 87.98 21.08 98.15 C 20.99 101.35 21.08 104.57 21.09 107.77 C 20.50 108.21 19.91 108.65 19.33 109.09 C 20.41 110.84 21.46 112.61 22.41 114.44 C 23.10 116.26 23.64 118.15 24.21 120.01 C 23.75 120.64 23.30 121.28 22.86 121.94 C 20.09 126.19 22.56 130.36 20.57 134.68 C 19.29 135.57 19.17 136.55 20.20 137.62 C 20.62 138.33 21.02 139.05 21.38 139.78 C 20.45 149.24 24.45 158.96 28.20 167.45 C 26.65 168.82 25.07 169.62 25.35 172.01 C 26.20 176.04 29.24 179.22 30.00 183.39 C 27.12 183.06 26.17 184.94 24.44 186.75 C 22.72 187.79 20.93 188.65 19.12 189.54 C 17.69 182.03 16.40 174.59 16.45 166.91 C 16.46 161.38 14.71 156.42 14.10 151.00 C 13.02 142.63 13.21 134.22 12.26 125.84 C 11.76 121.06 12.63 116.40 12.35 111.63 C 12.14 108.17 11.96 104.73 12.31 101.27 C 13.50 90.45 13.39 79.74 16.00 69.09 C 17.07 61.20 18.63 53.90 23.18 47.22 C 26.87 42.56 32.37 38.56 38.53 38.53 C 41.76 38.90 44.64 40.30 47.98 40.13 C 51.69 40.06 54.14 42.66 57.84 41.93 C 63.79 41.01 69.62 37.53 75.19 35.24 C 83.38 31.77 90.62 26.91 98.02 22.07 C 103.96 18.93 110.08 14.54 116.68 13.61 C 123.47 12.43 130.03 11.41 136.94 12.19 Z" fill="#f4f4f1" />
<path d="M 113.46 20.66 C 117.14 19.91 121.16 20.34 124.88 20.67 C 127.45 21.46 130.03 22.19 132.64 22.80 C 131.30 24.20 130.24 25.21 128.22 25.37 C 122.93 26.08 117.62 27.13 112.30 27.39 C 109.32 26.50 106.39 25.45 103.44 24.50 C 103.60 24.00 103.77 23.50 103.93 23.01 C 107.09 22.16 110.26 21.31 113.46 20.66 Z" fill="#2a293e" />
<path d="M 124.88 20.67 C 130.89 20.68 137.06 20.28 143.01 21.01 C 149.11 21.47 154.87 20.53 160.95 21.93 C 166.65 23.21 172.37 23.16 177.74 25.24 C 180.65 26.44 183.53 27.98 186.12 29.78 C 187.49 32.18 188.78 34.63 189.99 37.11 C 190.09 38.02 190.18 38.93 190.27 39.84 C 187.74 38.54 185.26 37.16 182.71 35.93 C 182.46 37.02 182.24 38.12 182.02 39.21 C 179.28 35.33 175.32 33.80 171.16 31.90 C 166.86 30.11 162.44 27.77 157.96 26.65 C 151.98 25.28 145.96 24.45 139.94 23.29 C 139.73 24.01 139.51 24.73 139.30 25.46 C 137.05 24.45 135.03 23.35 132.64 22.80 C 130.03 22.19 127.45 21.46 124.88 20.67 Z" fill="#514533" />
<path d="M 182.83 21.17 C 189.49 23.88 194.91 28.28 199.89 33.38 C 200.23 34.81 200.61 36.23 201.10 37.62 L 201.10 38.19 C 200.84 40.72 201.98 42.64 203.11 44.80 C 205.91 49.93 208.28 55.27 211.06 60.41 C 212.62 63.38 214.25 66.32 215.84 69.27 C 212.84 67.64 210.08 65.69 207.32 63.70 C 206.78 65.06 206.28 66.43 205.75 67.78 C 205.16 69.22 204.58 70.65 204.00 72.09 C 203.52 70.96 203.00 69.86 202.43 68.78 C 202.96 67.61 203.61 66.75 203.29 65.41 C 202.38 60.77 202.31 56.64 200.34 52.41 C 200.12 51.85 199.92 51.29 199.73 50.73 C 198.63 47.06 196.58 43.84 195.69 40.08 C 194.34 35.42 192.40 31.96 188.35 29.17 C 186.24 26.72 184.47 23.95 182.83 21.17 Z" fill="#454e5b" />
<path d="M 103.93 23.01 C 103.77 23.50 103.60 24.00 103.44 24.50 C 106.39 25.45 109.32 26.50 112.30 27.39 C 111.01 28.86 109.68 30.29 108.37 31.74 C 105.54 30.38 102.83 30.47 99.78 30.75 C 99.94 29.85 100.10 28.94 100.26 28.04 C 99.11 27.89 97.96 27.75 96.80 27.62 C 98.86 25.60 101.20 23.96 103.93 23.01 Z" fill="#816447" />
<path d="M 139.35 27.70 C 134.77 28.92 130.32 30.54 125.66 31.52 C 120.89 32.73 115.63 32.50 110.75 32.10 C 115.63 28.81 120.99 27.64 126.67 26.49 C 131.13 25.64 135.05 26.76 139.35 27.70 Z" fill="#332d3d" />
<path d="M 96.80 27.62 C 97.96 27.75 99.11 27.89 100.26 28.04 C 100.10 28.94 99.94 29.85 99.78 30.75 C 102.83 30.47 105.54 30.38 108.37 31.74 C 106.54 33.89 104.72 36.06 102.83 38.17 C 98.79 37.87 94.75 37.53 90.72 37.08 C 92.25 33.57 94.01 30.29 96.80 27.62 Z" fill="#988166" />
<path d="M 155.55 27.83 C 156.73 28.35 157.89 28.92 158.99 29.58 C 158.38 30.31 157.78 31.04 157.19 31.79 C 158.13 33.74 158.96 35.73 159.80 37.72 C 158.37 37.23 155.07 37.47 154.58 35.69 C 154.49 33.07 155.09 30.39 155.55 27.83 Z" fill="#dfd9d0" />
<path d="M 188.35 29.17 C 192.40 31.96 194.34 35.42 195.69 40.08 C 196.58 43.84 198.63 47.06 199.73 50.73 C 198.89 50.75 198.05 50.77 197.21 50.79 C 196.35 51.82 195.48 52.85 194.61 53.88 C 190.34 50.84 187.34 47.76 184.73 43.18 C 187.47 44.75 190.36 45.98 193.31 47.08 C 192.75 43.37 191.77 40.40 189.99 37.11 C 188.78 34.63 187.49 32.18 186.12 29.78 C 186.86 29.57 187.60 29.37 188.35 29.17 Z" fill="#a2a097" />
<path d="M 158.99 29.58 C 161.99 31.80 164.20 34.62 167.38 36.59 C 170.49 38.56 173.55 40.53 176.30 42.99 C 175.01 43.73 173.71 44.47 172.42 45.20 C 170.56 43.68 168.67 42.22 166.70 40.86 C 169.04 48.04 174.03 53.56 177.90 59.91 C 181.03 65.10 181.84 70.51 185.80 75.21 C 189.19 79.09 192.70 82.77 195.42 87.19 C 196.24 89.55 197.34 91.78 198.39 94.04 C 198.90 97.18 199.12 100.75 200.40 103.67 C 201.16 105.36 203.52 106.26 205.02 107.19 C 205.61 109.81 206.27 112.41 206.96 115.01 C 208.21 120.64 209.50 125.84 208.50 131.66 C 207.80 135.61 207.22 139.53 207.14 143.56 C 203.73 143.28 201.76 143.15 200.09 139.75 C 197.62 133.66 195.26 127.13 191.52 121.69 C 190.21 119.77 188.22 119.27 186.05 118.89 C 179.49 122.41 176.09 129.32 172.53 135.50 C 169.80 140.20 168.62 145.46 166.28 150.29 C 164.91 153.25 161.61 154.27 158.93 155.68 C 158.33 155.55 157.74 155.43 157.15 155.31 C 156.79 154.65 156.43 153.99 156.07 153.32 L 156.93 152.01 C 160.15 146.54 160.96 139.29 162.03 133.10 C 164.43 132.49 166.72 131.70 168.84 130.37 C 172.80 126.29 176.20 122.39 176.50 116.41 C 176.99 113.09 177.68 109.62 177.66 106.28 C 177.58 103.25 177.69 100.19 177.43 97.17 C 180.30 94.17 183.64 91.73 186.61 88.84 C 184.54 87.98 182.45 87.28 180.26 86.79 C 182.57 86.08 184.44 85.19 186.37 83.73 C 184.13 83.24 181.10 83.33 179.17 82.01 C 178.06 78.63 177.79 74.97 176.95 71.51 C 178.03 66.58 177.47 64.42 174.41 60.51 C 171.13 55.05 168.08 49.45 164.96 43.91 C 163.63 41.49 161.70 39.68 159.80 37.72 C 158.96 35.73 158.13 33.74 157.19 31.79 C 157.78 31.04 158.38 30.31 158.99 29.58 Z" fill="#4a3716" />
<path d="M 139.21 30.98 L 139.38 32.86 C 138.15 34.03 136.77 35.82 135.08 36.30 C 132.26 36.60 129.21 35.64 126.44 35.08 C 126.50 34.37 126.56 33.66 126.61 32.95 C 130.87 32.56 135.02 31.77 139.21 30.98 Z" fill="#2e2634" />
<path d="M 126.61 32.95 C 126.56 33.66 126.50 34.37 126.44 35.08 C 129.21 35.64 132.26 36.60 135.08 36.30 C 136.77 35.82 138.15 34.03 139.38 32.86 C 140.16 36.52 138.33 40.28 134.93 41.85 C 130.26 44.04 125.92 43.25 121.00 42.90 C 114.86 42.56 108.73 41.49 102.73 40.18 C 107.25 36.34 115.13 37.24 120.66 36.48 C 122.75 35.49 124.43 33.83 126.61 32.95 Z" fill="#776147" />
<path d="M 199.89 33.38 C 205.64 38.55 209.96 45.58 213.30 52.49 C 210.37 49.87 208.74 46.62 206.52 43.46 C 204.96 41.20 203.02 39.57 201.10 37.62 C 200.61 36.23 200.23 34.81 199.89 33.38 Z" fill="#383544" />
<path d="M 182.71 35.93 C 185.26 37.16 187.74 38.54 190.27 39.84 C 190.18 38.93 190.09 38.02 189.99 37.11 C 191.77 40.40 192.75 43.37 193.31 47.08 C 190.36 45.98 187.47 44.75 184.73 43.18 C 183.82 41.86 182.95 40.52 182.02 39.21 C 182.24 38.12 182.46 37.02 182.71 35.93 Z" fill="#6e685d" />
<path d="M 201.10 38.19 C 204.75 43.35 208.11 48.80 212.24 53.58 C 211.92 55.87 211.51 58.14 211.06 60.41 C 208.28 55.27 205.91 49.93 203.11 44.80 C 201.98 42.64 200.84 40.72 201.10 38.19 Z" fill="#493c20" />
<path d="M 77.57 38.84 C 80.67 40.75 83.15 43.11 86.35 44.59 C 88.94 45.76 91.58 46.87 94.30 47.73 C 98.42 49.08 103.32 48.79 107.62 48.78 C 106.97 47.50 106.31 46.23 105.65 44.95 C 106.39 44.51 107.12 44.07 107.86 43.64 C 110.13 46.49 112.41 50.49 115.70 52.20 C 119.57 53.59 123.68 53.94 127.36 51.80 C 127.53 53.58 127.60 55.36 127.62 57.15 C 126.28 57.15 124.95 57.18 123.62 57.22 C 119.66 56.87 115.82 55.97 111.93 55.20 C 110.39 57.77 110.06 60.54 109.44 63.41 C 108.95 63.96 108.45 64.49 107.92 65.00 C 107.07 65.50 106.21 65.97 105.35 66.44 C 104.85 65.98 104.36 65.53 103.86 65.09 C 103.95 64.22 104.05 63.35 104.14 62.48 C 105.37 61.76 106.60 61.05 107.83 60.34 C 107.16 58.27 106.47 56.79 104.64 55.47 C 101.45 53.14 97.92 52.52 94.13 51.82 C 91.01 51.29 88.28 49.39 85.23 48.81 C 81.37 49.14 77.32 50.24 73.75 51.72 C 73.17 52.11 72.60 52.52 72.05 52.96 C 71.73 51.97 71.41 50.99 71.09 50.00 C 74.71 46.78 76.98 43.77 77.57 38.84 Z" fill="#4d5971" />
<path d="M 166.70 40.86 C 168.67 42.22 170.56 43.68 172.42 45.20 C 173.71 44.47 175.01 43.73 176.30 42.99 C 180.08 46.25 183.23 49.93 187.43 52.70 C 191.21 55.30 194.00 58.71 197.04 62.09 C 199.05 64.15 200.81 66.40 202.43 68.78 C 203.00 69.86 203.52 70.96 204.00 72.09 C 204.46 73.95 204.64 75.85 204.72 77.76 L 204.04 77.24 C 201.74 74.16 199.72 71.09 196.36 69.04 C 196.34 67.69 196.34 66.33 196.35 64.98 C 194.01 63.48 192.37 61.71 189.36 62.39 C 185.98 64.91 187.27 68.27 188.32 71.67 C 188.99 73.44 190.77 74.82 192.05 76.18 C 192.40 76.78 192.74 77.39 193.09 78.00 C 194.48 81.09 195.21 83.82 195.42 87.19 C 192.70 82.77 189.19 79.09 185.80 75.21 C 181.84 70.51 181.03 65.10 177.90 59.91 C 174.03 53.56 169.04 48.04 166.70 40.86 Z" fill="#4a505a" />
<path d="M 80.07 43.40 C 81.58 42.41 82.66 44.79 80.82 45.13 C 79.82 44.86 79.57 44.28 80.07 43.40 Z" fill="#d3dced" />
<path d="M 32.67 45.95 C 32.64 46.73 32.60 47.50 32.55 48.28 C 31.40 51.50 30.44 54.73 29.59 58.04 C 27.34 65.53 25.47 73.41 25.26 81.25 C 28.50 77.94 28.21 72.09 29.26 67.69 C 30.26 70.78 31.50 73.50 31.28 76.84 C 30.93 81.24 29.78 85.61 28.89 89.93 C 27.88 88.84 26.88 87.75 25.93 86.62 C 25.50 85.70 25.06 84.78 24.61 83.87 C 23.14 88.70 23.05 93.56 22.87 98.56 C 22.27 98.42 21.68 98.28 21.08 98.15 C 21.48 87.98 22.85 77.97 24.75 67.99 C 27.64 60.26 27.63 52.92 32.67 45.95 Z" fill="#587194" />
<path d="M 61.74 47.96 C 62.08 50.21 62.34 52.46 62.57 54.71 C 65.50 53.26 68.38 51.84 71.09 50.00 C 71.41 50.99 71.73 51.97 72.05 52.96 C 69.06 54.79 66.18 56.81 62.77 57.77 C 59.74 58.64 56.77 58.49 53.67 58.21 C 55.76 54.31 58.24 50.75 61.74 47.96 Z" fill="#bbb9b3" />
<path d="M 85.23 48.81 C 88.28 49.39 91.01 51.29 94.13 51.82 C 97.92 52.52 101.45 53.14 104.64 55.47 C 104.13 58.99 103.52 62.46 102.81 65.94 C 97.73 65.69 94.60 63.98 90.70 60.83 C 87.94 58.77 86.47 58.75 83.22 59.66 C 82.36 59.97 81.50 60.30 80.64 60.63 C 80.79 58.92 81.05 57.09 80.80 55.39 C 79.98 54.44 79.01 53.62 78.05 52.82 C 77.25 53.75 76.48 54.70 75.72 55.67 C 75.10 54.34 74.44 53.02 73.75 51.72 C 77.32 50.24 81.37 49.14 85.23 48.81 Z" fill="#afb0ac" />
<path d="M 132.00 47.75 C 132.39 51.24 132.64 54.69 133.63 58.08 C 132.10 62.15 131.07 66.79 127.83 69.89 C 125.45 72.14 123.85 74.52 122.36 77.42 C 119.36 75.49 117.24 72.80 114.73 70.32 C 115.11 71.42 115.49 72.52 115.88 73.62 C 113.60 73.10 111.32 72.58 109.05 72.06 C 108.61 69.71 108.27 67.36 107.92 65.00 C 108.45 64.49 108.95 63.96 109.44 63.41 C 113.54 63.92 117.08 64.48 121.00 65.99 C 124.02 65.07 126.60 62.37 129.17 60.57 C 129.94 59.98 130.71 59.39 131.48 58.81 C 130.20 58.24 128.92 57.67 127.62 57.15 C 127.60 55.36 127.53 53.58 127.36 51.80 C 128.93 50.47 130.44 49.09 132.00 47.75 Z" fill="#737577" />
<path d="M 32.55 48.28 C 33.78 49.16 35.17 49.43 35.32 51.16 C 35.82 55.01 35.72 58.95 35.96 62.83 C 35.25 65.00 34.40 67.11 33.65 69.26 C 33.23 67.56 32.72 65.89 32.15 64.25 C 33.30 60.95 33.99 57.57 34.61 54.15 C 33.08 55.73 31.54 57.01 29.59 58.04 C 30.44 54.73 31.40 51.50 32.55 48.28 Z" fill="#c5c6c5" />
<path d="M 73.75 51.72 C 74.44 53.02 75.10 54.34 75.72 55.67 C 76.50 57.35 77.20 59.07 77.77 60.84 C 76.10 63.73 74.37 66.79 74.26 70.21 C 74.23 72.42 75.64 74.74 76.62 76.68 C 72.60 74.50 69.61 75.95 65.56 77.03 C 61.63 71.41 57.00 67.05 52.60 61.74 C 56.43 60.78 60.45 60.40 64.21 59.19 C 67.62 58.02 69.59 55.40 72.05 52.96 C 72.60 52.52 73.17 52.11 73.75 51.72 Z" fill="#c1bfb3" />
<path d="M 72.05 52.96 C 69.59 55.40 67.62 58.02 64.21 59.19 C 60.45 60.40 56.43 60.78 52.60 61.74 C 57.00 67.05 61.63 71.41 65.56 77.03 C 66.83 81.29 66.34 85.08 69.89 88.37 C 69.71 89.07 69.53 89.76 69.36 90.46 C 68.29 90.70 67.23 90.94 66.16 91.18 C 64.28 87.31 61.11 85.21 57.98 82.47 C 56.50 81.14 54.98 79.81 53.63 78.35 C 51.18 75.68 49.92 72.29 47.44 69.60 C 46.10 70.59 44.77 71.62 43.50 72.70 C 44.08 69.54 44.50 66.20 44.17 63.00 C 43.67 59.97 42.65 57.03 42.00 54.03 C 45.67 55.65 45.74 58.33 47.01 61.72 C 47.28 60.20 47.50 58.68 47.71 57.15 C 49.70 57.54 51.66 57.94 53.67 58.21 C 56.77 58.49 59.74 58.64 62.77 57.77 C 66.18 56.81 69.06 54.79 72.05 52.96 Z" fill="#59606f" />
<path d="M 78.05 52.82 C 79.01 53.62 79.98 54.44 80.80 55.39 C 81.05 57.09 80.79 58.92 80.64 60.63 C 81.50 60.30 82.36 59.97 83.22 59.66 C 85.09 65.05 85.95 70.63 88.04 75.95 C 89.41 79.80 91.79 83.70 92.40 87.69 C 93.27 94.35 92.99 100.79 91.40 107.32 C 90.87 103.53 90.28 99.75 89.72 95.96 C 89.08 97.23 88.45 98.49 87.87 99.79 C 87.80 96.50 86.69 93.58 85.62 90.52 C 83.49 84.59 84.01 78.39 81.61 72.47 C 80.05 68.64 78.86 64.82 77.77 60.84 C 77.20 59.07 76.50 57.35 75.72 55.67 C 76.48 54.70 77.25 53.75 78.05 52.82 Z" fill="#4a6286" />
<path d="M 200.34 52.41 C 202.31 56.64 202.38 60.77 203.29 65.41 C 203.61 66.75 202.96 67.61 202.43 68.78 C 200.81 66.40 199.05 64.15 197.04 62.09 C 197.66 58.67 198.59 55.44 200.34 52.41 Z" fill="#e0ded7" />
<path d="M 214.10 53.30 C 215.35 55.05 216.47 56.90 217.52 58.78 C 217.84 64.04 220.31 68.16 221.93 73.04 C 223.84 78.62 225.95 84.05 226.96 89.89 C 227.67 94.20 229.51 98.03 231.48 101.88 L 231.35 102.71 C 230.10 107.63 230.23 112.54 230.44 117.55 C 230.08 118.43 229.72 119.30 229.35 120.17 L 226.85 120.42 C 226.24 116.07 225.94 111.75 225.77 107.36 C 225.25 107.60 224.73 107.84 224.21 108.08 C 225.83 102.48 225.15 96.53 226.42 90.80 C 225.25 87.94 222.99 86.15 221.34 83.64 C 220.09 81.22 219.67 78.32 218.86 75.72 C 218.09 73.45 216.97 71.38 215.84 69.27 C 214.25 66.32 212.62 63.38 211.06 60.41 C 211.51 58.14 211.92 55.87 212.24 53.58 C 212.86 53.48 213.48 53.39 214.10 53.30 Z" fill="#5f543d" />
<path d="M 34.61 54.15 C 33.99 57.57 33.30 60.95 32.15 64.25 C 31.44 63.92 30.72 63.61 29.99 63.32 C 29.71 64.77 29.47 66.23 29.26 67.69 C 28.21 72.09 28.50 77.94 25.26 81.25 C 25.47 73.41 27.34 65.53 29.59 58.04 C 31.54 57.01 33.08 55.73 34.61 54.15 Z" fill="#b2b8b9" />
<path d="M 111.93 55.20 C 115.82 55.97 119.66 56.87 123.62 57.22 C 125.49 58.30 127.32 59.45 129.17 60.57 C 126.60 62.37 124.02 65.07 121.00 65.99 C 117.08 64.48 113.54 63.92 109.44 63.41 C 110.06 60.54 110.39 57.77 111.93 55.20 Z" fill="#b0b1ac" />
<path d="M 104.64 55.47 C 106.47 56.79 107.16 58.27 107.83 60.34 C 106.60 61.05 105.37 61.76 104.14 62.48 C 104.05 63.35 103.95 64.22 103.86 65.09 C 103.75 66.07 103.65 67.06 103.55 68.05 C 101.66 71.25 99.34 74.11 96.90 76.91 C 94.73 77.49 92.58 78.10 90.44 78.77 C 91.34 77.19 92.56 75.52 92.95 73.73 C 93.18 71.11 92.46 68.34 92.06 65.74 C 91.19 65.90 90.32 66.06 89.46 66.22 C 89.84 64.42 90.25 62.62 90.70 60.83 C 94.60 63.98 97.73 65.69 102.81 65.94 C 103.52 62.46 104.13 58.99 104.64 55.47 Z" fill="#7c7b74" />
<path d="M 123.62 57.22 C 124.95 57.18 126.28 57.15 127.62 57.15 C 128.92 57.67 130.20 58.24 131.48 58.81 C 130.71 59.39 129.94 59.98 129.17 60.57 C 127.32 59.45 125.49 58.30 123.62 57.22 Z" fill="#e4e5e5" />
<path d="M 133.63 58.08 C 136.27 59.83 139.78 61.59 141.35 64.41 C 142.75 66.73 144.22 68.88 146.23 70.73 C 145.34 70.75 144.02 71.22 143.25 70.69 C 140.56 68.92 138.28 66.55 135.72 64.61 C 134.50 66.92 134.12 68.70 134.25 71.28 C 129.63 72.09 128.91 75.72 126.45 79.07 L 125.74 80.03 C 123.73 82.42 121.61 84.64 118.91 86.26 C 118.62 84.77 118.35 83.28 118.10 81.78 C 119.72 80.49 121.27 79.21 122.36 77.42 C 123.85 74.52 125.45 72.14 127.83 69.89 C 131.07 66.79 132.10 62.15 133.63 58.08 Z" fill="#65676e" />
<path d="M 90.70 60.83 C 90.25 62.62 89.84 64.42 89.46 66.22 C 90.32 66.06 91.19 65.90 92.06 65.74 C 92.46 68.34 93.18 71.11 92.95 73.73 C 92.56 75.52 91.34 77.19 90.44 78.77 C 92.58 78.10 94.73 77.49 96.90 76.91 C 96.83 83.75 97.23 90.35 99.71 96.79 L 98.80 97.67 C 95.76 99.83 96.16 102.85 94.69 105.91 C 93.69 107.45 92.27 108.75 91.07 110.13 C 91.19 109.19 91.30 108.26 91.40 107.32 C 92.99 100.79 93.27 94.35 92.40 87.69 C 91.79 83.70 89.41 79.80 88.04 75.95 C 85.95 70.63 85.09 65.05 83.22 59.66 C 86.47 58.75 87.94 58.77 90.70 60.83 Z" fill="#67717c" />
<path d="M 188.36 59.13 C 189.23 58.94 189.79 59.24 190.05 60.02 C 190.24 61.66 187.82 62.69 187.23 60.89 C 187.19 60.07 187.57 59.48 188.36 59.13 Z" fill="#b9b3b7" />
<path d="M 217.52 58.78 C 220.43 63.13 221.92 68.06 224.46 72.59 C 227.19 77.66 227.91 83.20 229.49 88.67 C 230.42 92.55 235.81 93.49 235.72 97.84 C 235.47 99.73 232.88 100.88 231.48 101.88 C 229.51 98.03 227.67 94.20 226.96 89.89 C 225.95 84.05 223.84 78.62 221.93 73.04 C 220.31 68.16 217.84 64.04 217.52 58.78 Z" fill="#242640" />
<path d="M 77.77 60.84 C 78.86 64.82 80.05 68.64 81.61 72.47 C 84.01 78.39 83.49 84.59 85.62 90.52 C 86.69 93.58 87.80 96.50 87.87 99.79 C 87.08 103.47 88.05 106.78 88.36 110.41 C 88.32 112.71 87.40 113.87 85.06 113.98 C 83.71 113.67 82.36 113.36 81.01 113.02 C 83.14 111.92 85.23 110.77 87.25 109.49 C 84.26 109.09 80.95 109.11 78.10 108.06 C 76.37 106.19 75.65 104.14 72.92 103.45 C 74.48 102.36 76.02 101.28 77.62 100.26 L 78.38 99.82 C 79.95 101.40 81.71 102.70 83.50 104.01 C 82.54 98.77 81.90 93.55 82.37 88.22 C 78.90 89.52 76.73 90.66 74.89 93.97 C 73.33 91.97 71.61 90.22 69.89 88.37 C 66.34 85.08 66.83 81.29 65.56 77.03 C 69.61 75.95 72.60 74.50 76.62 76.68 C 75.64 74.74 74.23 72.42 74.26 70.21 C 74.37 66.79 76.10 63.73 77.77 60.84 Z" fill="#7b7b75" />
<path d="M 174.41 60.51 C 177.47 64.42 178.03 66.58 176.95 71.51 L 176.09 70.74 C 174.39 67.46 174.64 64.09 174.41 60.51 Z" fill="#f0e7db" />
<path d="M 196.35 64.98 C 196.34 66.33 196.34 67.69 196.36 69.04 C 199.72 71.09 201.74 74.16 204.04 77.24 C 205.02 79.99 205.93 82.76 206.89 85.51 C 205.66 85.36 204.42 85.20 203.19 85.02 C 199.70 82.82 196.29 80.60 193.09 78.00 C 192.74 77.39 192.40 76.78 192.05 76.18 C 191.80 71.35 190.85 66.98 189.36 62.39 C 192.37 61.71 194.01 63.48 196.35 64.98 Z" fill="#455773" />
<path d="M 29.99 63.32 C 30.72 63.61 31.44 63.92 32.15 64.25 C 32.72 65.89 33.23 67.56 33.65 69.26 C 33.27 73.92 33.27 78.57 33.79 83.22 C 36.49 80.70 39.13 78.13 41.88 75.66 C 41.05 79.23 38.89 81.28 36.28 83.62 C 36.26 84.47 36.27 85.32 36.28 86.17 C 34.90 86.47 33.46 86.74 32.16 87.26 C 30.14 88.60 30.78 91.73 30.84 93.78 L 29.51 93.73 C 28.02 93.68 26.54 93.62 25.05 93.56 C 25.33 91.25 25.66 88.94 25.93 86.62 C 26.88 87.75 27.88 88.84 28.89 89.93 C 29.78 85.61 30.93 81.24 31.28 76.84 C 31.50 73.50 30.26 70.78 29.26 67.69 C 29.47 66.23 29.71 64.77 29.99 63.32 Z" fill="#9f9d96" />
<path d="M 35.96 62.83 C 36.98 67.36 37.37 72.87 42.36 74.76 L 41.88 75.66 C 39.13 78.13 36.49 80.70 33.79 83.22 C 33.27 78.57 33.27 73.92 33.65 69.26 C 34.40 67.11 35.25 65.00 35.96 62.83 Z" fill="#e4e1d8" />
<path d="M 189.36 62.39 C 190.85 66.98 191.80 71.35 192.05 76.18 C 190.77 74.82 188.99 73.44 188.32 71.67 C 187.27 68.27 185.98 64.91 189.36 62.39 Z" fill="#b64546" />
<path d="M 207.32 63.70 C 210.08 65.69 212.84 67.64 215.84 69.27 C 216.97 71.38 218.09 73.45 218.86 75.72 C 217.20 77.58 215.53 79.44 213.84 81.27 C 211.84 76.21 209.99 71.44 205.75 67.78 C 206.28 66.43 206.78 65.06 207.32 63.70 Z" fill="#53617b" />
<path d="M 103.86 65.09 C 104.36 65.53 104.85 65.98 105.35 66.44 C 106.21 65.97 107.07 65.50 107.92 65.00 C 108.27 67.36 108.61 69.71 109.05 72.06 L 109.17 72.71 C 108.42 80.55 106.88 88.00 104.13 95.40 C 103.02 94.57 101.91 93.74 100.80 92.90 C 102.69 84.82 102.79 76.30 103.55 68.05 C 103.65 67.06 103.75 66.07 103.86 65.09 Z" fill="#756249" />
<path d="M 135.72 64.61 C 138.28 66.55 140.56 68.92 143.25 70.69 C 144.02 71.22 145.34 70.75 146.23 70.73 C 146.41 70.91 146.60 71.09 146.79 71.28 C 145.51 74.32 145.84 77.30 145.83 80.50 C 145.80 81.27 145.76 82.04 145.71 82.81 C 145.38 86.43 145.40 90.14 144.73 93.70 C 144.41 95.68 142.21 97.20 140.88 98.57 C 135.01 95.97 128.18 95.06 121.86 94.11 C 117.79 93.48 114.15 94.29 111.04 97.04 C 107.72 99.70 106.18 103.33 105.21 107.35 C 108.40 105.91 111.23 102.94 114.69 102.78 C 115.95 102.62 117.22 102.49 118.49 102.39 C 113.81 105.06 108.92 107.20 103.98 109.31 C 102.43 105.18 101.10 100.98 99.71 96.79 C 97.23 90.35 96.83 83.75 96.90 76.91 C 99.34 74.11 101.66 71.25 103.55 68.05 C 102.79 76.30 102.69 84.82 100.80 92.90 C 101.91 93.74 103.02 94.57 104.13 95.40 C 106.88 88.00 108.42 80.55 109.17 72.71 C 110.48 75.13 111.64 77.58 112.55 80.18 C 114.40 80.71 116.26 81.23 118.10 81.78 C 118.35 83.28 118.62 84.77 118.91 86.26 C 121.61 84.64 123.73 82.42 125.74 80.03 C 127.01 82.00 128.44 84.30 130.41 85.63 C 133.32 87.60 136.52 88.36 139.89 89.15 C 138.15 86.90 136.45 84.75 133.98 83.26 C 133.84 79.24 134.53 75.30 134.25 71.28 C 134.12 68.70 134.50 66.92 135.72 64.61 Z" fill="#857a63" />
<path d="M 205.75 67.78 C 209.99 71.44 211.84 76.21 213.84 81.27 C 214.31 82.50 214.76 83.74 215.24 84.96 L 214.52 84.54 C 211.09 82.56 207.93 80.08 204.72 77.76 C 204.64 75.85 204.46 73.95 204.00 72.09 C 204.58 70.65 205.16 69.22 205.75 67.78 Z" fill="#807969" />
<path d="M 47.44 69.60 C 49.92 72.29 51.18 75.68 53.63 78.35 C 54.98 79.81 56.50 81.14 57.98 82.47 C 54.30 84.01 51.03 83.49 47.22 82.92 C 44.14 82.40 41.55 84.03 38.77 85.13 C 37.95 84.61 37.12 84.10 36.28 83.62 C 38.89 81.28 41.05 79.23 41.88 75.66 L 42.36 74.76 C 42.73 74.07 43.11 73.38 43.50 72.70 C 44.77 71.62 46.10 70.59 47.44 69.60 Z" fill="#c2bfb3" />
<path d="M 114.73 70.32 C 117.24 72.80 119.36 75.49 122.36 77.42 C 121.27 79.21 119.72 80.49 118.10 81.78 C 116.26 81.23 114.40 80.71 112.55 80.18 C 111.64 77.58 110.48 75.13 109.17 72.71 L 109.05 72.06 C 111.32 72.58 113.60 73.10 115.88 73.62 C 115.49 72.52 115.11 71.42 114.73 70.32 Z" fill="#8c8c85" />
<path d="M 134.25 71.28 C 134.53 75.30 133.84 79.24 133.98 83.26 C 131.29 82.07 128.85 80.77 126.45 79.07 C 128.91 75.72 129.63 72.09 134.25 71.28 Z" fill="#787b7c" />
<path d="M 176.09 70.74 L 176.95 71.51 C 177.79 74.97 178.06 78.63 179.17 82.01 C 181.10 83.33 184.13 83.24 186.37 83.73 C 184.44 85.19 182.57 86.08 180.26 86.79 C 182.45 87.28 184.54 87.98 186.61 88.84 C 183.64 91.73 180.30 94.17 177.43 97.17 C 177.20 94.91 176.06 92.28 177.26 90.22 C 177.89 88.77 178.62 87.36 179.31 85.94 C 176.83 81.34 175.34 77.07 175.71 71.74 L 176.09 70.74 Z" fill="#817359" />
<path d="M 155.61 71.63 C 154.86 73.67 154.08 75.64 153.85 77.82 C 152.79 78.69 151.73 79.56 150.67 80.44 C 149.07 78.10 147.74 75.62 146.54 73.05 C 149.55 72.37 152.54 71.88 155.61 71.63 Z" fill="#86878b" />
<path d="M 175.71 71.74 C 175.34 77.07 176.83 81.34 179.31 85.94 C 178.62 87.36 177.89 88.77 177.26 90.22 C 176.06 92.28 177.20 94.91 177.43 97.17 C 177.69 100.19 177.58 103.25 177.66 106.28 L 177.16 105.69 C 176.41 104.80 175.65 103.90 174.85 103.05 C 173.11 102.97 171.34 103.07 169.59 103.14 C 169.48 101.16 169.38 99.18 169.23 97.21 C 168.31 98.11 167.40 99.02 166.49 99.93 C 164.93 99.27 163.37 98.62 161.81 97.97 C 162.60 97.17 163.42 96.34 164.35 95.73 C 167.08 95.83 169.76 97.10 172.48 97.24 C 173.77 96.83 174.94 95.93 176.10 95.23 C 174.68 91.55 173.38 88.05 173.89 84.02 C 174.34 80.02 174.04 75.39 175.71 71.74 Z" fill="#d4cfc3" />
<path d="M 218.86 75.72 C 219.67 78.32 220.09 81.22 221.34 83.64 C 222.99 86.15 225.25 87.94 226.42 90.80 C 224.58 89.13 222.71 87.56 220.44 86.52 C 219.61 87.28 218.80 88.06 217.99 88.84 C 217.09 87.53 216.18 86.24 215.24 84.96 C 214.76 83.74 214.31 82.50 213.84 81.27 C 215.53 79.44 217.20 77.58 218.86 75.72 Z" fill="#93474f" />
<path d="M 204.04 77.24 L 204.72 77.76 C 207.93 80.08 211.09 82.56 214.52 84.54 C 213.99 89.66 213.68 94.57 217.36 98.69 C 216.46 99.52 215.58 100.35 214.71 101.20 C 213.73 100.26 212.71 99.38 211.66 98.53 C 211.50 95.25 211.06 92.12 210.32 88.93 C 207.67 87.93 205.46 86.69 203.19 85.02 C 204.42 85.20 205.66 85.36 206.89 85.51 C 205.93 82.76 205.02 79.99 204.04 77.24 Z" fill="#675640" />
<path d="M 153.85 77.82 C 154.28 81.72 154.05 85.68 154.51 89.56 C 155.60 93.04 158.70 96.10 161.28 98.56 C 160.90 98.98 160.53 99.39 160.16 99.81 C 158.24 97.75 156.13 95.83 154.36 93.63 C 152.20 90.93 151.43 87.30 149.49 84.56 C 148.31 83.85 146.98 83.34 145.71 82.81 C 145.76 82.04 145.80 81.27 145.83 80.50 C 146.64 80.42 147.45 80.34 148.26 80.26 C 148.54 80.75 148.82 81.24 149.11 81.73 C 149.63 81.30 150.15 80.87 150.67 80.44 C 151.73 79.56 152.79 78.69 153.85 77.82 Z" fill="#685d4e" />
<path d="M 193.09 78.00 C 196.29 80.60 199.70 82.82 203.19 85.02 C 205.46 86.69 207.67 87.93 210.32 88.93 C 211.06 92.12 211.50 95.25 211.66 98.53 C 207.59 104.24 211.19 111.71 211.79 118.07 C 211.15 118.67 210.51 119.26 209.88 119.86 C 208.88 118.25 207.89 116.66 206.96 115.01 C 206.27 112.41 205.61 109.81 205.02 107.19 C 204.16 103.57 203.91 99.24 202.06 95.98 C 200.95 95.18 199.63 94.61 198.39 94.04 C 197.34 91.78 196.24 89.55 195.42 87.19 C 195.21 83.82 194.48 81.09 193.09 78.00 Z" fill="#bd3f3f" />
<path d="M 126.45 79.07 C 128.85 80.77 131.29 82.07 133.98 83.26 C 136.45 84.75 138.15 86.90 139.89 89.15 C 136.52 88.36 133.32 87.60 130.41 85.63 C 128.44 84.30 127.01 82.00 125.74 80.03 L 126.45 79.07 Z" fill="#a59d8d" />
<path d="M 47.22 82.92 C 51.03 83.49 54.30 84.01 57.98 82.47 C 61.11 85.21 64.28 87.31 66.16 91.18 C 67.77 94.44 69.18 97.01 72.82 98.34 C 70.45 98.80 69.03 100.09 67.43 101.79 C 64.99 101.05 62.55 100.40 60.03 99.99 C 57.03 99.44 54.29 99.26 51.93 97.07 C 47.49 93.16 43.33 88.91 38.77 85.13 C 41.55 84.03 44.14 82.40 47.22 82.92 Z" fill="#7f7d73" />
<path d="M 145.71 82.81 C 146.98 83.34 148.31 83.85 149.49 84.56 C 151.43 87.30 152.20 90.93 154.36 93.63 C 156.13 95.83 158.24 97.75 160.16 99.81 L 159.38 100.60 C 158.43 100.28 157.47 99.96 156.52 99.65 C 155.44 99.42 154.27 99.46 153.17 99.45 C 153.94 102.05 154.66 104.67 155.44 107.27 C 151.41 102.77 146.39 100.65 140.88 98.57 C 142.21 97.20 144.41 95.68 144.73 93.70 C 145.40 90.14 145.38 86.43 145.71 82.81 Z" fill="#ccc6b7" />
<path d="M 24.61 83.87 C 25.06 84.78 25.50 85.70 25.93 86.62 C 25.66 88.94 25.33 91.25 25.05 93.56 C 26.54 93.62 28.02 93.68 29.51 93.73 C 29.70 98.25 29.53 102.76 29.53 107.28 C 31.37 103.71 32.05 99.89 32.83 95.99 C 33.79 101.38 34.15 106.67 36.36 111.77 L 35.65 111.54 C 32.58 110.09 29.59 108.55 26.32 107.57 C 26.82 108.57 27.34 109.55 27.85 110.54 C 26.98 111.89 25.71 113.41 25.48 115.02 C 26.20 115.88 27.03 116.66 27.83 117.44 C 26.59 118.25 25.38 119.10 24.21 120.01 C 23.64 118.15 23.10 116.26 22.41 114.44 C 23.37 112.77 24.22 111.06 25.00 109.30 C 23.70 108.78 22.41 108.25 21.09 107.77 C 21.08 104.57 20.99 101.35 21.08 98.15 C 21.68 98.28 22.27 98.42 22.87 98.56 C 23.05 93.56 23.14 88.70 24.61 83.87 Z" fill="#bdbebb" />
<path d="M 36.28 83.62 C 37.12 84.10 37.95 84.61 38.77 85.13 C 43.33 88.91 47.49 93.16 51.93 97.07 C 54.29 99.26 57.03 99.44 60.03 99.99 C 56.11 99.56 52.64 100.03 49.00 101.53 C 45.52 100.34 42.16 98.93 39.03 96.97 C 36.47 95.35 33.88 94.15 30.84 93.78 C 30.78 91.73 30.14 88.60 32.16 87.26 C 33.46 86.74 34.90 86.47 36.28 86.17 C 36.27 85.32 36.26 84.47 36.28 83.62 Z" fill="#666462" />
<path d="M 214.52 84.54 L 215.24 84.96 C 216.18 86.24 217.09 87.53 217.99 88.84 C 217.09 95.46 220.77 100.83 219.10 107.38 C 218.09 106.18 217.09 104.99 216.16 103.74 L 215.68 102.49 C 216.99 102.48 218.08 102.57 219.19 101.73 C 218.72 100.63 218.07 99.64 217.36 98.69 C 213.68 94.57 213.99 89.66 214.52 84.54 Z" fill="#696e80" />
<path d="M 220.44 86.52 C 222.71 87.56 224.58 89.13 226.42 90.80 C 225.15 96.53 225.83 102.48 224.21 108.08 C 223.24 111.32 222.30 114.55 221.78 117.90 C 220.60 119.53 219.20 120.94 217.71 122.29 C 217.94 117.30 218.39 112.32 219.10 107.38 C 220.77 100.83 217.09 95.46 217.99 88.84 C 218.80 88.06 219.61 87.28 220.44 86.52 Z" fill="#bc4040" />
<path d="M 69.89 88.37 C 71.61 90.22 73.33 91.97 74.89 93.97 C 76.16 95.87 77.21 97.87 78.38 99.82 L 77.62 100.26 C 76.00 99.66 74.41 99.00 72.82 98.34 C 69.18 97.01 67.77 94.44 66.16 91.18 C 67.23 90.94 68.29 90.70 69.36 90.46 C 69.53 89.76 69.71 89.07 69.89 88.37 Z" fill="#6e624f" />
<path d="M 82.37 88.22 C 81.90 93.55 82.54 98.77 83.50 104.01 C 81.71 102.70 79.95 101.40 78.38 99.82 C 77.21 97.87 76.16 95.87 74.89 93.97 C 76.73 90.66 78.90 89.52 82.37 88.22 Z" fill="#9d9481" />
<path d="M 179.13 89.49 C 180.59 88.40 181.75 90.74 179.95 91.18 C 178.95 90.96 178.68 90.40 179.13 89.49 Z" fill="#c1b8a2" />
<path d="M 29.51 93.73 L 30.84 93.78 C 33.88 94.15 36.47 95.35 39.03 96.97 C 42.16 98.93 45.52 100.34 49.00 101.53 C 46.19 103.38 44.42 105.25 42.74 108.17 C 45.70 107.40 48.39 106.11 51.09 104.71 C 51.65 104.95 52.21 105.18 52.77 105.42 C 49.93 107.05 47.09 108.32 45.04 110.99 C 43.08 113.57 41.17 116.34 39.45 119.08 C 38.34 118.97 37.23 118.87 36.11 118.76 C 37.03 116.64 38.04 114.57 39.00 112.47 C 38.12 112.25 37.24 112.01 36.36 111.77 C 34.15 106.67 33.79 101.38 32.83 95.99 C 32.05 99.89 31.37 103.71 29.53 107.28 C 29.53 102.76 29.70 98.25 29.51 93.73 Z" fill="#817866" />
<path d="M 121.86 94.11 C 128.18 95.06 135.01 95.97 140.88 98.57 C 146.39 100.65 151.41 102.77 155.44 107.27 C 156.63 109.04 157.86 110.80 159.01 112.60 C 159.35 114.02 159.72 115.44 160.16 116.85 C 161.69 123.33 160.31 129.16 158.31 135.33 C 156.12 138.65 153.99 141.81 150.53 143.94 C 148.85 145.02 147.68 146.40 146.55 148.02 C 149.27 148.60 150.74 149.71 152.97 147.46 C 153.62 146.57 154.25 145.67 154.85 144.77 C 155.91 144.67 156.98 144.57 158.04 144.48 C 157.78 147.02 157.51 149.52 156.93 152.01 L 156.07 153.32 C 151.13 158.08 147.56 163.86 145.17 170.26 C 143.76 174.50 144.43 179.54 143.93 184.00 C 143.36 189.39 143.02 194.72 143.71 200.12 C 144.02 206.17 146.16 211.82 149.28 216.95 C 150.73 219.53 151.47 222.48 153.34 224.66 C 154.96 226.08 157.10 226.96 158.98 227.99 C 155.59 227.78 152.63 228.30 149.62 226.36 C 145.63 223.95 140.93 220.29 139.58 215.62 C 138.64 212.62 137.01 210.05 135.71 207.20 C 134.91 203.01 134.14 198.89 132.87 194.81 C 132.05 194.92 131.24 195.04 130.43 195.17 L 130.34 193.83 L 130.29 192.97 C 130.15 191.02 129.97 189.08 129.79 187.13 C 128.71 186.56 127.62 185.99 126.52 185.43 C 126.03 184.94 125.54 184.46 125.05 183.98 C 126.15 181.68 125.72 179.61 125.36 177.20 C 127.03 177.71 128.70 178.21 130.37 178.72 C 131.12 173.18 131.71 167.44 133.10 162.03 C 136.53 153.49 140.38 144.37 141.25 135.03 C 141.48 131.98 141.30 128.93 140.41 125.99 C 139.78 125.27 139.13 124.59 138.46 123.93 C 136.23 121.83 133.80 119.99 131.14 118.47 C 129.12 117.29 127.07 116.24 124.86 115.46 C 118.26 114.26 111.52 113.90 105.01 115.79 C 103.19 114.88 101.66 114.41 99.62 114.26 C 99.34 113.40 99.07 112.54 98.80 111.68 C 99.85 111.06 100.92 110.47 101.88 109.70 C 100.44 105.78 99.70 101.74 98.80 97.67 L 99.71 96.79 C 101.10 100.98 102.43 105.18 103.98 109.31 C 108.92 107.20 113.81 105.06 118.49 102.39 C 117.22 102.49 115.95 102.62 114.69 102.78 C 111.23 102.94 108.40 105.91 105.21 107.35 C 106.18 103.33 107.72 99.70 111.04 97.04 C 114.15 94.29 117.79 93.48 121.86 94.11 Z" fill="#20233f" />
<path d="M 198.39 94.04 C 199.63 94.61 200.95 95.18 202.06 95.98 C 203.91 99.24 204.16 103.57 205.02 107.19 C 203.52 106.26 201.16 105.36 200.40 103.67 C 199.12 100.75 198.90 97.18 198.39 94.04 Z" fill="#474c56" />
<path d="M 89.72 95.96 C 90.28 99.75 90.87 103.53 91.40 107.32 C 91.30 108.26 91.19 109.19 91.07 110.13 L 90.82 111.73 C 90.32 114.57 89.60 117.34 88.75 120.09 C 88.23 118.68 87.74 117.27 87.20 115.87 C 83.43 115.49 79.96 117.12 76.06 116.86 C 73.59 116.71 71.52 115.80 69.26 114.89 C 74.55 114.00 79.77 115.14 85.06 113.98 C 87.40 113.87 88.32 112.71 88.36 110.41 C 88.05 106.78 87.08 103.47 87.87 99.79 C 88.45 98.49 89.08 97.23 89.72 95.96 Z" fill="#3c4864" />
<path d="M 169.23 97.21 C 169.38 99.18 169.48 101.16 169.59 103.14 C 167.81 105.06 165.98 106.94 164.13 108.80 C 163.24 107.20 162.32 105.62 161.36 104.06 C 160.65 105.37 159.94 106.67 159.31 108.02 C 158.61 105.17 157.72 102.33 156.52 99.65 C 157.47 99.96 158.43 100.28 159.38 100.60 L 160.16 99.81 C 160.53 99.39 160.90 98.98 161.28 98.56 L 161.81 97.97 C 163.37 98.62 164.93 99.27 166.49 99.93 C 167.40 99.02 168.31 98.11 169.23 97.21 Z" fill="#bab0a1" />
<path d="M 72.82 98.34 C 74.41 99.00 76.00 99.66 77.62 100.26 C 76.02 101.28 74.48 102.36 72.92 103.45 C 71.09 102.89 69.25 102.36 67.43 101.79 C 69.03 100.09 70.45 98.80 72.82 98.34 Z" fill="#a59886" />
<path d="M 98.80 97.67 C 99.70 101.74 100.44 105.78 101.88 109.70 C 100.92 110.47 99.85 111.06 98.80 111.68 C 99.07 112.54 99.34 113.40 99.62 114.26 C 101.66 114.41 103.19 114.88 105.01 115.79 C 111.52 113.90 118.26 114.26 124.86 115.46 C 124.04 120.83 127.07 126.39 126.74 131.84 C 125.70 134.26 123.01 136.10 121.04 137.77 C 119.78 137.04 118.54 136.27 117.27 135.55 C 114.53 133.87 111.57 133.42 108.41 133.18 C 107.46 130.48 106.67 127.74 106.30 124.89 C 106.01 122.57 105.67 119.21 103.51 117.84 C 101.24 116.76 97.94 117.67 95.53 117.90 C 93.77 115.98 92.12 113.99 90.82 111.73 L 91.07 110.13 C 92.27 108.75 93.69 107.45 94.69 105.91 C 96.16 102.85 95.76 99.83 98.80 97.67 Z" fill="#82765d" />
<path d="M 156.52 99.65 C 157.72 102.33 158.61 105.17 159.31 108.02 C 159.20 109.54 159.08 111.07 159.01 112.60 C 157.86 110.80 156.63 109.04 155.44 107.27 C 154.66 104.67 153.94 102.05 153.17 99.45 C 154.27 99.46 155.44 99.42 156.52 99.65 Z" fill="#9a907c" />
<path d="M 211.66 98.53 C 212.71 99.38 213.73 100.26 214.71 101.20 L 215.68 102.49 L 216.16 103.74 C 216.47 110.12 214.35 117.47 216.55 123.38 C 217.39 126.12 219.47 127.29 221.63 128.87 C 223.06 127.16 224.48 125.49 225.75 123.65 C 226.76 123.77 227.77 123.89 228.78 124.01 C 227.85 130.14 225.89 135.79 222.11 140.76 C 221.30 140.78 220.49 140.82 219.69 140.88 L 219.45 140.92 C 219.04 141.52 218.63 142.13 218.22 142.74 C 215.41 143.21 212.59 143.59 209.73 143.65 C 210.89 135.18 212.37 126.65 211.79 118.07 C 211.19 111.71 207.59 104.24 211.66 98.53 Z" fill="#4c3b1a" />
<path d="M 217.36 98.69 C 218.07 99.64 218.72 100.63 219.19 101.73 C 218.08 102.57 216.99 102.48 215.68 102.49 L 214.71 101.20 C 215.58 100.35 216.46 99.52 217.36 98.69 Z" fill="#aaa5a2" />
<path d="M 60.03 99.99 C 62.55 100.40 64.99 101.05 67.43 101.79 C 69.25 102.36 71.09 102.89 72.92 103.45 C 75.65 104.14 76.37 106.19 78.10 108.06 C 80.95 109.11 84.26 109.09 87.25 109.49 C 85.23 110.77 83.14 111.92 81.01 113.02 C 82.36 113.36 83.71 113.67 85.06 113.98 C 79.77 115.14 74.55 114.00 69.26 114.89 C 71.52 115.80 73.59 116.71 76.06 116.86 C 79.96 117.12 83.43 115.49 87.20 115.87 C 85.17 117.85 83.43 119.83 80.54 120.48 C 76.51 121.45 71.86 121.41 67.73 122.84 C 65.35 123.68 63.52 125.18 61.54 126.69 C 60.69 127.28 60.03 128.10 59.55 129.17 C 58.01 132.21 56.44 135.46 55.76 138.82 C 55.24 145.60 56.03 152.46 58.87 158.70 C 59.94 161.96 61.59 164.48 63.90 166.99 C 67.85 171.97 71.23 177.54 74.64 182.88 C 76.03 185.14 78.09 186.35 80.17 187.89 C 76.10 178.40 69.41 169.85 63.20 161.67 C 64.88 163.04 66.41 164.55 68.04 165.97 C 71.04 168.54 74.43 169.92 77.75 171.96 C 81.66 174.67 84.01 178.39 86.78 182.13 C 88.52 184.47 90.28 186.75 91.86 189.20 C 92.84 190.91 93.85 192.62 94.88 194.31 C 97.43 198.24 98.66 202.38 99.25 207.01 C 99.51 208.57 99.80 210.13 100.10 211.68 C 99.79 215.16 99.55 218.61 99.66 222.10 C 99.58 225.21 98.82 228.16 97.91 231.11 C 96.84 232.53 95.54 233.70 94.13 234.78 C 94.64 232.83 95.27 230.93 95.87 229.01 C 94.40 230.45 92.99 231.96 91.48 233.36 C 91.52 231.77 91.59 230.19 91.70 228.60 C 90.80 228.93 89.91 229.25 89.01 229.57 C 88.74 229.08 88.47 228.59 88.20 228.10 C 89.76 225.63 90.93 223.21 91.93 220.47 C 92.43 219.39 93.01 218.32 93.40 217.20 C 92.73 216.03 91.87 214.94 91.08 213.84 C 89.38 209.68 88.19 205.45 85.67 201.66 C 84.26 199.21 82.67 197.06 80.73 195.00 C 81.65 198.00 82.93 200.83 84.38 203.61 C 82.07 201.50 79.61 199.59 77.13 197.69 C 74.70 195.56 72.42 193.13 70.17 190.82 C 66.87 187.36 62.92 184.61 58.83 182.18 C 55.44 177.61 50.32 176.68 46.19 173.10 C 43.65 170.97 41.19 168.73 38.68 166.55 C 38.18 166.10 37.68 165.65 37.17 165.21 C 32.03 160.46 28.67 153.25 26.80 146.59 C 27.60 145.16 29.03 143.75 28.77 142.02 C 28.44 138.60 27.26 135.31 27.06 131.85 C 26.88 128.60 27.41 125.27 28.02 122.09 C 28.37 121.43 28.73 120.77 29.10 120.12 C 31.73 117.45 33.76 114.79 35.65 111.54 L 36.36 111.77 C 37.24 112.01 38.12 112.25 39.00 112.47 C 38.04 114.57 37.03 116.64 36.11 118.76 C 33.69 124.72 33.90 131.98 34.45 138.27 C 36.03 133.12 36.14 127.79 38.19 122.75 C 39.01 127.86 36.85 132.25 36.90 137.33 C 39.35 136.20 41.59 134.41 44.15 133.56 C 47.79 132.79 50.94 133.87 54.07 131.14 C 56.93 129.22 56.00 124.75 58.09 122.19 C 59.12 120.89 60.34 119.70 61.52 118.53 C 59.89 117.32 57.66 116.36 57.10 114.24 C 56.40 111.92 57.05 109.08 56.82 106.68 C 55.64 104.38 53.39 104.15 51.09 104.71 C 48.39 106.11 45.70 107.40 42.74 108.17 C 44.42 105.25 46.19 103.38 49.00 101.53 C 52.64 100.03 56.11 99.56 60.03 99.99 Z" fill="#20233f" />
<path d="M 234.16 100.64 C 236.64 102.60 237.04 105.76 236.77 108.73 C 236.31 113.80 235.64 118.87 235.00 123.93 C 234.43 123.78 233.86 123.64 233.29 123.50 C 233.14 125.63 233.00 127.75 232.85 129.88 L 231.40 129.81 C 231.31 125.70 230.88 121.64 230.44 117.55 C 230.23 112.54 230.10 107.63 231.35 102.71 C 231.73 104.46 232.15 106.20 232.54 107.95 C 232.64 105.40 231.58 102.26 234.16 100.64 Z" fill="#343650" />
<path d="M 174.85 103.05 C 175.65 103.90 176.41 104.80 177.16 105.69 C 175.88 107.20 173.96 108.95 173.50 110.94 C 174.14 112.88 175.42 114.68 176.50 116.41 C 176.20 122.39 172.80 126.29 168.84 130.37 C 166.85 129.65 163.91 129.16 162.86 127.11 C 161.82 123.54 162.40 120.09 160.16 116.85 C 159.72 115.44 159.35 114.02 159.01 112.60 C 159.08 111.07 159.20 109.54 159.31 108.02 C 159.94 106.67 160.65 105.37 161.36 104.06 C 162.32 105.62 163.24 107.20 164.13 108.80 C 165.98 106.94 167.81 105.06 169.59 103.14 C 171.34 103.07 173.11 102.97 174.85 103.05 Z" fill="#ebe9e4" />
<path d="M 144.75 102.70 C 149.13 103.53 151.80 106.14 154.34 109.59 C 150.89 107.60 147.59 105.53 144.75 102.70 Z" fill="#626478" />
<path d="M 189.39 103.67 C 192.03 104.75 192.32 108.27 192.54 110.72 C 192.87 113.67 191.34 115.59 189.89 117.95 C 186.65 116.37 182.59 114.54 180.54 111.44 C 179.35 109.47 180.56 107.23 181.00 105.22 C 181.44 107.22 181.69 109.32 182.35 111.27 C 183.66 112.50 185.62 113.12 187.22 113.89 C 187.33 112.74 187.50 111.57 187.47 110.41 C 186.43 108.75 184.82 107.40 183.47 105.99 C 185.06 105.03 187.38 102.72 189.39 103.67 Z" fill="#6b4b23" />
<path d="M 56.82 106.68 C 57.05 109.08 56.40 111.92 57.10 114.24 C 57.66 116.36 59.89 117.32 61.52 118.53 C 60.34 119.70 59.12 120.89 58.09 122.19 C 56.00 124.75 56.93 129.22 54.07 131.14 C 50.94 133.87 47.79 132.79 44.15 133.56 C 41.59 134.41 39.35 136.20 36.90 137.33 C 36.85 132.25 39.01 127.86 38.19 122.75 C 38.58 121.52 38.99 120.29 39.45 119.08 C 41.17 116.34 43.08 113.57 45.04 110.99 C 47.09 108.32 49.93 107.05 52.77 105.42 C 52.21 105.18 51.65 104.95 51.09 104.71 C 53.39 104.15 55.64 104.38 56.82 106.68 Z" fill="#2c2e45" />
<path d="M 216.16 103.74 C 217.09 104.99 218.09 106.18 219.10 107.38 C 218.39 112.32 217.94 117.30 217.71 122.29 C 219.20 120.94 220.60 119.53 221.78 117.90 C 221.92 119.31 222.10 120.71 222.27 122.12 C 223.53 122.39 224.78 122.66 226.02 122.94 L 225.75 123.65 C 224.48 125.49 223.06 127.16 221.63 128.87 C 219.47 127.29 217.39 126.12 216.55 123.38 C 214.35 117.47 216.47 110.12 216.16 103.74 Z" fill="#494b4b" />
<path d="M 177.16 105.69 L 177.66 106.28 C 177.68 109.62 176.99 113.09 176.50 116.41 C 175.42 114.68 174.14 112.88 173.50 110.94 C 173.96 108.95 175.88 107.20 177.16 105.69 Z" fill="#b3aa9a" />
<path d="M 121.27 107.39 C 117.17 110.35 112.66 111.00 107.71 110.86 C 111.99 108.72 116.57 107.95 121.27 107.39 Z" fill="#46475b" />
<path d="M 225.77 107.36 C 225.94 111.75 226.24 116.07 226.85 120.42 C 226.59 121.27 226.31 122.11 226.02 122.94 C 224.78 122.66 223.53 122.39 222.27 122.12 C 222.10 120.71 221.92 119.31 221.78 117.90 C 222.30 114.55 223.24 111.32 224.21 108.08 C 224.73 107.84 225.25 107.60 225.77 107.36 Z" fill="#4c607a" />
<path d="M 21.09 107.77 C 22.41 108.25 23.70 108.78 25.00 109.30 C 24.22 111.06 23.37 112.77 22.41 114.44 C 21.46 112.61 20.41 110.84 19.33 109.09 C 19.91 108.65 20.50 108.21 21.09 107.77 Z" fill="#5e7594" />
<path d="M 26.32 107.57 C 29.59 108.55 32.58 110.09 35.65 111.54 C 33.76 114.79 31.73 117.45 29.10 120.12 C 29.43 118.77 29.70 117.41 29.98 116.04 C 29.26 116.50 28.54 116.97 27.83 117.44 C 27.03 116.66 26.20 115.88 25.48 115.02 C 25.71 113.41 26.98 111.89 27.85 110.54 C 27.34 109.55 26.82 108.57 26.32 107.57 Z" fill="#796146" />
<path d="M 90.82 111.73 C 92.12 113.99 93.77 115.98 95.53 117.90 C 93.06 120.66 92.39 123.97 90.80 127.16 C 88.81 128.78 85.07 128.34 82.60 128.62 C 81.03 130.86 79.37 132.88 77.11 134.45 C 75.39 131.74 74.35 125.79 70.93 124.98 C 68.12 125.58 65.48 127.08 62.75 127.99 L 61.54 126.69 C 63.52 125.18 65.35 123.68 67.73 122.84 C 71.86 121.41 76.51 121.45 80.54 120.48 C 83.43 119.83 85.17 117.85 87.20 115.87 C 87.74 117.27 88.23 118.68 88.75 120.09 C 89.60 117.34 90.32 114.57 90.82 111.73 Z" fill="#75664b" />
<path d="M 69.58 114.32 C 68.89 115.10 68.15 115.82 67.38 116.50 C 66.22 116.99 64.66 116.45 63.44 116.36 C 65.44 115.53 67.46 114.84 69.58 114.32 Z" fill="#4b4d61" />
<path d="M 206.96 115.01 C 207.89 116.66 208.88 118.25 209.88 119.86 C 210.51 119.26 211.15 118.67 211.79 118.07 C 212.37 126.65 210.89 135.18 209.73 143.65 C 208.87 143.63 208.00 143.60 207.14 143.56 C 207.22 139.53 207.80 135.61 208.50 131.66 C 209.50 125.84 208.21 120.64 206.96 115.01 Z" fill="#834638" />
<path d="M 29.98 116.04 C 29.70 117.41 29.43 118.77 29.10 120.12 C 28.73 120.77 28.37 121.43 28.02 122.09 C 26.03 125.88 26.06 130.34 24.44 134.34 C 24.53 130.09 24.19 126.01 22.86 121.94 C 23.30 121.28 23.75 120.64 24.21 120.01 C 25.38 119.10 26.59 118.25 27.83 117.44 C 28.54 116.97 29.26 116.50 29.98 116.04 Z" fill="#a09784" />
<path d="M 124.86 115.46 C 127.07 116.24 129.12 117.29 131.14 118.47 C 130.46 121.10 129.90 122.87 132.30 124.77 C 134.53 126.83 136.30 124.86 138.46 123.93 C 139.13 124.59 139.78 125.27 140.41 125.99 C 136.66 129.51 134.41 133.18 132.18 137.75 C 130.45 139.07 127.22 139.29 125.11 140.00 C 123.77 139.23 122.38 138.54 121.04 137.77 C 123.01 136.10 125.70 134.26 126.74 131.84 C 127.07 126.39 124.04 120.83 124.86 115.46 Z" fill="#8d8269" />
<path d="M 103.51 117.84 C 105.67 119.21 106.01 122.57 106.30 124.89 C 105.24 129.36 104.29 133.42 105.27 138.02 C 101.90 137.95 99.17 140.03 96.00 140.40 C 93.30 139.64 90.96 137.21 88.74 135.56 C 85.56 136.64 82.32 137.30 79.02 137.88 C 78.38 136.75 77.71 135.60 77.11 134.45 C 79.37 132.88 81.03 130.86 82.60 128.62 C 85.07 128.34 88.81 128.78 90.80 127.16 C 92.39 123.97 93.06 120.66 95.53 117.90 C 97.94 117.67 101.24 116.76 103.51 117.84 Z" fill="#4c3918" />
<path d="M 160.16 116.85 C 162.40 120.09 161.82 123.54 162.86 127.11 C 163.91 129.16 166.85 129.65 168.84 130.37 C 166.72 131.70 164.43 132.49 162.03 133.10 C 161.22 133.44 160.47 133.89 159.74 134.38 L 158.31 135.33 C 160.31 129.16 161.69 123.33 160.16 116.85 Z" fill="#7c7569" />
<path d="M 19.92 118.70 C 21.16 120.34 20.53 122.83 19.51 124.45 C 19.10 123.38 18.12 118.67 19.92 118.70 Z" fill="#a8adb3" />
<path d="M 39.45 119.08 C 38.99 120.29 38.58 121.52 38.19 122.75 C 36.14 127.79 36.03 133.12 34.45 138.27 C 33.90 131.98 33.69 124.72 36.11 118.76 C 37.23 118.87 38.34 118.97 39.45 119.08 Z" fill="#84807f" />
<path d="M 191.52 121.69 C 195.26 127.13 197.62 133.66 200.09 139.75 C 200.50 142.38 200.58 145.14 201.27 147.71 C 202.64 150.35 205.81 151.92 205.79 155.18 C 206.13 157.66 203.48 159.90 202.02 161.65 C 199.79 161.60 197.69 161.35 195.69 162.59 C 193.24 164.09 190.76 166.65 191.37 169.78 C 192.16 173.42 194.14 176.88 196.12 180.00 C 194.81 180.67 193.50 181.33 192.15 181.91 C 187.99 181.71 184.12 181.67 180.09 182.86 C 175.91 181.73 171.98 179.37 167.71 178.22 C 162.65 176.10 159.29 175.69 153.79 176.42 C 159.12 178.50 164.44 179.28 169.08 182.91 C 169.00 185.66 168.90 188.41 168.78 191.16 C 166.09 190.21 163.50 188.87 160.76 188.12 C 159.46 188.48 158.25 189.25 157.06 189.86 C 154.96 188.60 152.73 187.58 150.44 186.71 C 150.86 187.94 151.29 189.15 151.81 190.35 C 150.25 191.74 148.99 193.23 147.82 194.96 C 146.57 195.27 145.31 195.56 144.06 195.88 C 143.90 196.67 143.77 197.47 143.65 198.26 L 143.71 200.12 C 143.02 194.72 143.36 189.39 143.93 184.00 C 144.43 179.54 143.76 174.50 145.17 170.26 C 147.56 163.86 151.13 158.08 156.07 153.32 C 156.43 153.99 156.79 154.65 157.15 155.31 C 157.74 155.43 158.33 155.55 158.93 155.68 C 159.12 156.47 159.31 157.27 159.50 158.06 C 164.32 158.14 166.41 154.53 169.49 151.48 C 172.20 148.72 172.80 145.38 173.77 141.80 C 175.23 136.16 177.58 130.85 181.45 126.44 C 183.50 124.14 185.04 121.82 186.05 118.89 C 188.22 119.27 190.21 119.77 191.52 121.69 Z" fill="#4d4644" />
<path d="M 230.44 117.55 C 230.88 121.64 231.31 125.70 231.40 129.81 L 232.85 129.88 C 233.00 127.75 233.14 125.63 233.29 123.50 C 233.86 123.64 234.43 123.78 235.00 123.93 C 234.19 132.56 231.50 140.61 228.84 148.79 C 228.16 150.75 226.94 152.62 225.92 154.43 C 223.40 151.54 221.54 148.26 219.73 144.90 C 220.48 143.49 221.25 142.10 222.11 140.76 C 225.89 135.79 227.85 130.14 228.78 124.01 C 228.97 122.73 229.15 121.45 229.35 120.17 C 229.72 119.30 230.08 118.43 230.44 117.55 Z" fill="#22243f" />
<path d="M 131.14 118.47 C 133.80 119.99 136.23 121.83 138.46 123.93 C 136.30 124.86 134.53 126.83 132.30 124.77 C 129.90 122.87 130.46 121.10 131.14 118.47 Z" fill="#766b51" />
<path d="M 186.05 118.89 C 185.04 121.82 183.50 124.14 181.45 126.44 C 177.58 130.85 175.23 136.16 173.77 141.80 C 172.80 145.38 172.20 148.72 169.49 151.48 C 166.41 154.53 164.32 158.14 159.50 158.06 C 159.31 157.27 159.12 156.47 158.93 155.68 C 161.61 154.27 164.91 153.25 166.28 150.29 C 168.62 145.46 169.80 140.20 172.53 135.50 C 176.09 129.32 179.49 122.41 186.05 118.89 Z" fill="#27273d" />
<path d="M 226.85 120.42 L 229.35 120.17 C 229.15 121.45 228.97 122.73 228.78 124.01 C 227.77 123.89 226.76 123.77 225.75 123.65 L 226.02 122.94 C 226.31 122.11 226.59 121.27 226.85 120.42 Z" fill="#a29c95" />
<path d="M 22.86 121.94 C 24.19 126.01 24.53 130.09 24.44 134.34 C 24.40 136.12 24.50 137.90 24.81 139.65 C 23.87 140.10 22.96 140.61 22.06 141.12 C 21.84 140.67 21.61 140.23 21.38 139.78 C 21.02 139.05 20.62 138.33 20.20 137.62 C 21.11 136.76 21.23 135.78 20.57 134.68 C 22.56 130.36 20.09 126.19 22.86 121.94 Z" fill="#afaa98" />
<path d="M 28.02 122.09 C 27.41 125.27 26.88 128.60 27.06 131.85 C 27.26 135.31 28.44 138.60 28.77 142.02 C 29.03 143.75 27.60 145.16 26.80 146.59 C 26.16 144.27 25.46 141.97 24.81 139.65 C 24.50 137.90 24.40 136.12 24.44 134.34 C 26.06 130.34 26.03 125.88 28.02 122.09 Z" fill="#716e76" />
<path d="M 70.93 124.98 C 74.35 125.79 75.39 131.74 77.11 134.45 C 77.71 135.60 78.38 136.75 79.02 137.88 C 77.89 138.12 76.76 138.37 75.63 138.63 C 75.13 140.43 74.64 142.24 74.05 144.01 C 73.03 143.06 72.00 142.13 70.97 141.19 C 70.69 142.09 70.40 143.00 70.10 143.90 L 69.01 143.90 C 67.71 140.50 66.27 137.78 63.90 135.00 C 62.46 133.46 62.57 131.88 62.66 129.90 L 62.75 127.99 C 65.48 127.08 68.12 125.58 70.93 124.98 Z" fill="#68593b" />
<path d="M 106.30 124.89 C 106.67 127.74 107.46 130.48 108.41 133.18 C 111.57 133.42 114.53 133.87 117.27 135.55 C 115.93 137.05 114.59 138.54 113.25 140.05 C 113.51 140.73 113.77 141.41 114.02 142.09 C 112.74 141.55 111.45 141.01 110.15 140.51 C 109.67 139.62 109.18 138.73 108.69 137.85 C 107.55 137.90 106.41 137.95 105.27 138.02 C 104.29 133.42 105.24 129.36 106.30 124.89 Z" fill="#554834" />
<path d="M 140.41 125.99 C 141.30 128.93 141.48 131.98 141.25 135.03 C 138.66 136.45 136.58 137.86 135.28 140.62 C 134.05 143.86 129.37 144.26 126.46 145.51 C 126.42 143.36 126.84 141.62 125.11 140.00 C 127.22 139.29 130.45 139.07 132.18 137.75 C 134.41 133.18 136.66 129.51 140.41 125.99 Z" fill="#76644f" />
<path d="M 61.54 126.69 L 62.75 127.99 L 62.66 129.90 C 61.66 130.08 60.63 129.84 59.55 129.17 C 60.03 128.10 60.69 127.28 61.54 126.69 Z" fill="#c5bdaf" />
<path d="M 59.55 129.17 C 60.63 129.84 61.66 130.08 62.66 129.90 C 62.57 131.88 62.46 133.46 63.90 135.00 C 66.27 137.78 67.71 140.50 69.01 143.90 C 65.26 143.87 61.08 143.88 57.55 142.58 C 56.81 141.38 56.29 140.12 55.76 138.82 C 56.44 135.46 58.01 132.21 59.55 129.17 Z" fill="#a19781" />
<path d="M 162.03 133.10 C 160.96 139.29 160.15 146.54 156.93 152.01 C 157.51 149.52 157.78 147.02 158.04 144.48 C 156.98 144.57 155.91 144.67 154.85 144.77 C 156.86 141.46 158.31 137.96 159.74 134.38 C 160.47 133.89 161.22 133.44 162.03 133.10 Z" fill="#292323" />
<path d="M 20.57 134.68 C 21.23 135.78 21.11 136.76 20.20 137.62 C 19.17 136.55 19.29 135.57 20.57 134.68 Z" fill="#3e454f" />
<path d="M 88.74 135.56 C 90.96 137.21 93.30 139.64 96.00 140.40 C 99.17 140.03 101.90 137.95 105.27 138.02 C 106.41 137.95 107.55 137.90 108.69 137.85 C 109.18 138.73 109.67 139.62 110.15 140.51 C 109.16 141.44 108.11 142.41 107.32 143.51 C 106.50 145.55 107.37 148.61 109.43 149.60 C 111.20 149.78 113.08 149.38 114.85 149.17 C 114.80 150.09 114.74 151.00 114.67 151.92 C 111.83 152.21 108.84 152.75 105.99 152.48 C 103.70 152.00 101.56 150.51 99.45 149.51 C 98.16 151.39 96.98 153.67 95.30 155.20 C 93.57 156.68 91.42 157.77 89.40 158.81 C 87.27 155.77 84.78 154.11 81.53 152.48 C 77.95 150.70 76.20 147.70 73.75 144.74 L 74.05 144.01 C 74.64 142.24 75.13 140.43 75.63 138.63 C 76.76 138.37 77.89 138.12 79.02 137.88 C 82.32 137.30 85.56 136.64 88.74 135.56 Z" fill="#2a2010" />
<path d="M 141.25 135.03 C 140.38 144.37 136.53 153.49 133.10 162.03 C 131.71 167.44 131.12 173.18 130.37 178.72 C 128.70 178.21 127.03 177.71 125.36 177.20 C 125.72 179.61 126.15 181.68 125.05 183.98 C 122.87 181.98 120.62 180.10 118.65 177.88 C 117.94 176.72 117.26 175.53 116.55 174.37 C 116.92 173.32 117.27 172.27 117.60 171.21 C 117.93 170.02 118.25 168.83 118.56 167.63 C 120.14 169.93 121.54 172.40 122.95 174.81 C 121.58 171.15 120.38 167.45 119.60 163.62 C 118.82 164.30 118.04 164.98 117.26 165.65 C 115.53 160.69 116.61 156.15 117.51 151.18 C 116.53 151.68 115.56 152.19 114.58 152.69 L 114.67 151.92 C 114.74 151.00 114.80 150.09 114.85 149.17 C 115.07 146.68 114.99 144.44 114.02 142.09 C 113.77 141.41 113.51 140.73 113.25 140.05 C 114.59 138.54 115.93 137.05 117.27 135.55 C 118.54 136.27 119.78 137.04 121.04 137.77 C 122.38 138.54 123.77 139.23 125.11 140.00 C 126.84 141.62 126.42 143.36 126.46 145.51 C 129.37 144.26 134.05 143.86 135.28 140.62 C 136.58 137.86 138.66 136.45 141.25 135.03 Z" fill="#463e35" />
<path d="M 158.31 135.33 L 159.74 134.38 C 158.31 137.96 156.86 141.46 154.85 144.77 C 154.25 145.67 153.62 146.57 152.97 147.46 C 152.15 146.29 151.33 145.12 150.53 143.94 C 153.99 141.81 156.12 138.65 158.31 135.33 Z" fill="#b3aea7" />
<path d="M 24.81 139.65 C 25.46 141.97 26.16 144.27 26.80 146.59 C 28.67 153.25 32.03 160.46 37.17 165.21 C 36.12 165.79 35.09 166.40 34.06 167.01 C 30.34 161.97 28.23 156.23 25.24 150.79 C 23.73 147.77 23.21 144.41 22.06 141.12 C 22.96 140.61 23.87 140.10 24.81 139.65 Z" fill="#f2efed" />
<path d="M 55.76 138.82 C 56.29 140.12 56.81 141.38 57.55 142.58 C 61.08 143.88 65.26 143.87 69.01 143.90 L 70.10 143.90 C 70.40 143.00 70.69 142.09 70.97 141.19 C 72.00 142.13 73.03 143.06 74.05 144.01 L 73.75 144.74 C 71.84 146.02 69.91 147.28 68.01 148.58 C 65.00 147.35 61.96 146.33 58.75 145.77 C 59.38 146.55 60.04 147.32 60.72 148.07 C 59.53 150.07 58.78 152.25 58.69 154.58 C 58.71 155.96 58.78 157.33 58.87 158.70 C 56.03 152.46 55.24 145.60 55.76 138.82 Z" fill="#c3bcaa" />
<path d="M 21.38 139.78 C 21.61 140.23 21.84 140.67 22.06 141.12 C 23.21 144.41 23.73 147.77 25.24 150.79 C 28.23 156.23 30.34 161.97 34.06 167.01 C 35.00 168.41 35.98 169.78 36.97 171.16 C 37.60 170.59 38.23 170.03 38.86 169.47 C 38.81 168.50 38.75 167.52 38.68 166.55 C 41.19 168.73 43.65 170.97 46.19 173.10 C 44.94 173.34 43.67 173.56 42.43 173.84 C 42.39 174.58 42.36 175.31 42.35 176.05 C 45.05 176.85 47.62 177.81 50.18 179.00 C 49.55 180.97 48.91 182.94 48.25 184.90 C 43.86 186.49 39.90 187.03 35.31 185.88 C 34.27 179.43 30.95 173.33 28.20 167.45 C 24.45 158.96 20.45 149.24 21.38 139.78 Z" fill="#53452a" />
<path d="M 200.09 139.75 C 201.76 143.15 203.73 143.28 207.14 143.56 C 208.00 143.60 208.87 143.63 209.73 143.65 C 212.59 143.59 215.41 143.21 218.22 142.74 C 217.88 143.23 217.54 143.72 217.20 144.20 C 215.16 145.99 213.05 147.31 212.14 150.00 C 210.69 154.20 209.56 158.57 208.63 162.92 L 209.64 162.68 C 207.88 163.52 206.08 164.13 204.24 164.79 C 203.50 163.74 202.76 162.70 202.02 161.65 C 203.48 159.90 206.13 157.66 205.79 155.18 C 205.81 151.92 202.64 150.35 201.27 147.71 C 200.58 145.14 200.50 142.38 200.09 139.75 Z" fill="#635334" />
<path d="M 219.45 140.92 L 219.69 140.88 C 220.49 140.82 221.30 140.78 222.11 140.76 C 221.25 142.10 220.48 143.49 219.73 144.90 C 219.21 145.88 218.73 146.88 218.31 147.91 C 216.60 151.61 216.11 155.72 214.36 159.36 C 213.55 161.08 211.86 161.55 210.28 162.38 C 211.07 157.90 214.14 154.76 215.41 150.51 C 216.08 148.43 216.59 146.30 217.20 144.20 C 217.54 143.72 217.88 143.23 218.22 142.74 C 218.63 142.13 219.04 141.52 219.45 140.92 Z" fill="#dbd7c6" />
<path d="M 110.15 140.51 C 111.45 141.01 112.74 141.55 114.02 142.09 C 114.99 144.44 115.07 146.68 114.85 149.17 C 113.08 149.38 111.20 149.78 109.43 149.60 C 107.37 148.61 106.50 145.55 107.32 143.51 C 108.11 142.41 109.16 141.44 110.15 140.51 Z" fill="#c03f40" />
<path d="M 85.16 144.13 C 87.84 143.67 90.75 146.03 90.09 148.85 C 89.64 151.06 86.81 151.99 85.08 153.07 C 83.92 151.75 82.64 150.38 81.73 148.87 C 81.48 146.71 82.70 144.13 85.16 144.13 Z" fill="#c03f3f" />
<path d="M 150.53 143.94 C 151.33 145.12 152.15 146.29 152.97 147.46 C 150.74 149.71 149.27 148.60 146.55 148.02 C 147.68 146.40 148.85 145.02 150.53 143.94 Z" fill="#545567" />
<path d="M 217.20 144.20 C 216.59 146.30 216.08 148.43 215.41 150.51 C 214.14 154.76 211.07 157.90 210.28 162.38 L 209.64 162.68 L 208.63 162.92 C 209.56 158.57 210.69 154.20 212.14 150.00 C 213.05 147.31 215.16 145.99 217.20 144.20 Z" fill="#afa793" />
<path d="M 73.75 144.74 C 76.20 147.70 77.95 150.70 81.53 152.48 C 84.78 154.11 87.27 155.77 89.40 158.81 L 88.50 159.24 C 86.86 159.05 85.25 158.63 83.61 158.30 C 84.32 159.81 85.05 161.31 85.79 162.81 C 81.68 158.96 77.90 154.59 72.56 152.48 C 68.64 150.95 64.68 149.51 60.72 148.07 C 60.04 147.32 59.38 146.55 58.75 145.77 C 61.96 146.33 65.00 147.35 68.01 148.58 C 69.91 147.28 71.84 146.02 73.75 144.74 Z" fill="#685e4f" />
<path d="M 219.73 144.90 C 221.54 148.26 223.40 151.54 225.92 154.43 C 224.86 156.38 223.72 157.79 222.03 159.23 C 220.81 158.06 219.44 156.88 218.47 155.49 C 217.88 153.07 218.12 150.38 218.31 147.91 C 218.73 146.88 219.21 145.88 219.73 144.90 Z" fill="#383b53" />
<path d="M 36.31 146.55 C 37.64 145.91 39.10 148.83 38.34 149.81 C 36.97 150.54 35.45 147.56 36.31 146.55 Z" fill="#595d72" />
<path d="M 60.72 148.07 C 64.68 149.51 68.64 150.95 72.56 152.48 C 77.90 154.59 81.68 158.96 85.79 162.81 C 85.05 161.31 84.32 159.81 83.61 158.30 C 85.25 158.63 86.86 159.05 88.50 159.24 C 90.04 163.15 92.87 165.82 94.01 169.87 C 95.32 174.48 95.33 179.80 96.97 184.50 C 97.70 186.62 98.77 188.49 99.70 190.53 L 99.82 191.99 L 99.16 191.62 C 96.85 190.45 94.49 189.38 92.09 188.42 C 93.73 183.56 93.84 178.66 93.06 173.63 C 90.55 176.23 88.50 178.93 86.78 182.13 C 84.01 178.39 81.66 174.67 77.75 171.96 C 79.44 171.53 81.13 171.10 82.82 170.68 C 82.78 169.57 82.74 168.46 82.71 167.35 C 79.22 165.39 75.54 163.85 72.03 161.96 C 68.00 159.90 66.81 155.90 61.95 155.47 C 61.40 155.32 60.85 155.17 60.31 155.02 C 59.77 154.87 59.23 154.72 58.69 154.58 C 58.78 152.25 59.53 150.07 60.72 148.07 Z" fill="#f1f1ee" />
<path d="M 118.28 147.97 C 119.19 148.36 120.10 148.77 121.00 149.20 C 120.63 150.30 120.23 151.39 119.83 152.47 C 119.27 150.99 118.72 149.50 118.28 147.97 Z" fill="#756f63" />
<path d="M 218.31 147.91 C 218.12 150.38 217.88 153.07 218.47 155.49 C 219.44 156.88 220.81 158.06 222.03 159.23 C 218.88 160.95 215.95 163.42 214.59 166.83 C 213.92 168.70 212.83 171.64 214.03 173.47 C 215.99 174.66 218.01 175.62 219.73 177.18 L 219.31 178.22 C 218.15 178.73 217.00 179.25 215.85 179.77 C 214.60 180.27 213.33 180.73 212.08 181.25 C 210.79 179.86 209.16 178.42 208.33 176.70 C 207.46 174.62 207.16 172.24 206.73 170.04 C 204.98 170.56 203.24 171.09 201.49 171.59 C 202.01 173.46 202.56 175.31 203.42 177.06 C 202.68 177.33 201.94 177.61 201.19 177.88 C 200.24 175.57 199.27 173.27 198.11 171.05 C 197.45 174.89 197.95 178.58 198.54 182.39 C 197.72 181.60 196.90 180.82 196.12 180.00 C 194.14 176.88 192.16 173.42 191.37 169.78 C 190.76 166.65 193.24 164.09 195.69 162.59 C 197.69 161.35 199.79 161.60 202.02 161.65 C 202.76 162.70 203.50 163.74 204.24 164.79 C 206.08 164.13 207.88 163.52 209.64 162.68 L 210.28 162.38 C 211.86 161.55 213.55 161.08 214.36 159.36 C 216.11 155.72 216.60 151.61 218.31 147.91 Z" fill="#22253f" />
<path d="M 99.45 149.51 C 101.56 150.51 103.70 152.00 105.99 152.48 C 108.84 152.75 111.83 152.21 114.67 151.92 L 114.58 152.69 C 113.42 157.03 112.53 161.22 112.90 165.74 C 113.35 164.82 113.80 163.90 114.25 162.99 C 115.74 164.48 117.22 165.99 118.56 167.63 C 118.25 168.83 117.93 170.02 117.60 171.21 C 117.02 169.98 116.44 168.76 115.86 167.54 C 115.26 169.27 114.67 171.00 114.06 172.73 C 112.01 173.45 109.98 174.21 108.02 175.15 C 107.33 175.49 106.64 175.84 105.96 176.20 C 103.96 175.36 101.63 174.48 100.00 173.02 C 97.19 170.14 97.32 164.38 93.72 162.33 C 92.08 161.17 90.27 160.19 88.50 159.24 L 89.40 158.81 C 91.42 157.77 93.57 156.68 95.30 155.20 C 96.98 153.67 98.16 151.39 99.45 149.51 Z" fill="#4b3918" />
<path d="M 117.51 151.18 C 116.61 156.15 115.53 160.69 117.26 165.65 C 118.04 164.98 118.82 164.30 119.60 163.62 C 120.38 167.45 121.58 171.15 122.95 174.81 C 121.54 172.40 120.14 169.93 118.56 167.63 C 117.22 165.99 115.74 164.48 114.25 162.99 C 113.80 163.90 113.35 164.82 112.90 165.74 C 112.53 161.22 113.42 157.03 114.58 152.69 C 115.56 152.19 116.53 151.68 117.51 151.18 Z" fill="#aca087" />
<path d="M 60.31 155.02 C 60.85 155.17 61.40 155.32 61.95 155.47 C 62.43 157.52 62.87 159.58 63.20 161.67 C 62.90 163.63 63.19 165.13 63.90 166.99 C 61.59 164.48 59.94 161.96 58.87 158.70 C 58.78 157.33 58.71 155.96 58.69 154.58 C 59.23 154.72 59.77 154.87 60.31 155.02 Z" fill="#919194" />
<path d="M 72.03 161.96 C 75.54 163.85 79.22 165.39 82.71 167.35 C 82.74 168.46 82.78 169.57 82.82 170.68 C 81.13 171.10 79.44 171.53 77.75 171.96 C 74.43 169.92 71.04 168.54 68.04 165.97 C 66.41 164.55 64.88 163.04 63.20 161.67 C 62.87 159.58 62.43 157.52 61.95 155.47 C 66.81 155.90 68.00 159.90 72.03 161.96 Z" fill="#d8d5ca" />
<path d="M 192.02 155.78 C 190.11 159.84 187.17 163.00 183.78 165.87 C 185.61 161.54 187.40 157.69 192.02 155.78 Z" fill="#7c4a4e" />
<path d="M 88.50 159.24 C 90.27 160.19 92.08 161.17 93.72 162.33 C 97.32 164.38 97.19 170.14 100.00 173.02 C 101.63 174.48 103.96 175.36 105.96 176.20 C 106.07 177.59 106.36 179.10 106.10 180.49 C 105.44 182.48 102.72 183.36 101.24 184.74 C 100.44 186.55 100.12 188.61 99.70 190.53 C 98.77 188.49 97.70 186.62 96.97 184.50 C 95.33 179.80 95.32 174.48 94.01 169.87 C 92.87 165.82 90.04 163.15 88.50 159.24 Z" fill="#74654c" />
<path d="M 222.03 159.23 C 222.92 160.49 223.73 161.79 224.54 163.10 C 223.18 164.17 221.83 165.25 220.50 166.35 C 222.27 166.08 224.03 165.79 225.80 165.51 C 226.05 167.56 226.53 169.76 226.31 171.83 C 225.12 175.66 223.48 177.71 219.31 178.22 L 219.73 177.18 C 221.36 173.25 220.70 169.63 219.29 165.76 C 217.73 166.60 216.20 167.47 214.66 168.33 L 214.59 166.83 C 215.95 163.42 218.88 160.95 222.03 159.23 Z" fill="#b7b09e" />
<path d="M 63.20 161.67 C 69.41 169.85 76.10 178.40 80.17 187.89 C 78.09 186.35 76.03 185.14 74.64 182.88 C 71.23 177.54 67.85 171.97 63.90 166.99 C 63.19 165.13 62.90 163.63 63.20 161.67 Z" fill="#fdfefe" />
<path d="M 37.17 165.21 C 37.68 165.65 38.18 166.10 38.68 166.55 C 38.75 167.52 38.81 168.50 38.86 169.47 C 38.23 170.03 37.60 170.59 36.97 171.16 C 35.98 169.78 35.00 168.41 34.06 167.01 C 35.09 166.40 36.12 165.79 37.17 165.21 Z" fill="#7d7258" />
<path d="M 219.29 165.76 C 220.70 169.63 221.36 173.25 219.73 177.18 C 218.01 175.62 215.99 174.66 214.03 173.47 C 212.83 171.64 213.92 168.70 214.59 166.83 L 214.66 168.33 C 216.20 167.47 217.73 166.60 219.29 165.76 Z" fill="#a29780" />
<path d="M 28.20 167.45 C 30.95 173.33 34.27 179.43 35.31 185.88 C 33.30 185.50 31.68 184.48 30.00 183.39 C 29.24 179.22 26.20 176.04 25.35 172.01 C 25.07 169.62 26.65 168.82 28.20 167.45 Z" fill="#dddad5" />
<path d="M 115.86 167.54 C 116.44 168.76 117.02 169.98 117.60 171.21 C 117.27 172.27 116.92 173.32 116.55 174.37 C 115.49 176.97 115.39 178.18 116.08 180.91 C 117.00 183.82 115.13 186.33 114.30 189.04 C 111.81 184.57 110.32 179.70 108.02 175.15 C 109.98 174.21 112.01 173.45 114.06 172.73 C 114.67 171.00 115.26 169.27 115.86 167.54 Z" fill="#655435" />
<path d="M 183.93 168.22 C 183.16 169.36 182.38 170.50 181.61 171.64 C 176.97 171.70 172.41 171.39 167.85 170.45 C 173.04 167.46 178.20 168.14 183.93 168.22 Z" fill="#a8494b" />
<path d="M 206.73 170.04 C 207.16 172.24 207.46 174.62 208.33 176.70 C 209.16 178.42 210.79 179.86 212.08 181.25 C 211.01 181.79 209.96 182.43 208.85 182.88 C 206.95 183.05 204.95 182.47 203.06 182.31 C 202.85 181.56 202.65 180.81 202.44 180.06 C 203.02 179.49 203.61 178.91 204.19 178.34 C 203.93 177.91 203.67 177.49 203.42 177.06 C 202.56 175.31 202.01 173.46 201.49 171.59 C 203.24 171.09 204.98 170.56 206.73 170.04 Z" fill="#a29784" />
<path d="M 198.11 171.05 C 199.27 173.27 200.24 175.57 201.19 177.88 C 201.94 177.61 202.68 177.33 203.42 177.06 C 203.67 177.49 203.93 177.91 204.19 178.34 C 203.61 178.91 203.02 179.49 202.44 180.06 C 202.65 180.81 202.85 181.56 203.06 182.31 C 202.32 182.48 201.58 182.66 200.84 182.86 C 199.34 183.31 197.84 183.80 196.36 184.29 C 195.67 187.78 194.65 190.74 192.71 193.73 C 195.60 195.42 197.28 198.00 199.10 200.71 C 199.71 200.58 200.32 200.45 200.92 200.33 C 200.34 202.82 199.97 205.35 199.71 207.90 C 196.17 202.96 191.10 203.13 185.79 201.33 C 185.53 198.52 186.50 196.65 187.93 194.34 C 185.66 195.41 183.33 196.33 180.96 197.15 C 185.29 192.31 189.79 188.15 192.15 181.91 C 193.50 181.33 194.81 180.67 196.12 180.00 C 196.90 180.82 197.72 181.60 198.54 182.39 C 197.95 178.58 197.45 174.89 198.11 171.05 Z" fill="#84755c" />
<path d="M 42.43 173.84 C 43.67 173.56 44.94 173.34 46.19 173.10 C 50.32 176.68 55.44 177.61 58.83 182.18 C 56.83 181.18 54.83 180.17 52.83 179.16 C 53.02 181.14 53.48 183.26 53.25 185.24 C 52.49 186.39 51.35 187.33 50.30 188.20 C 49.63 187.10 48.96 185.99 48.25 184.90 C 48.91 182.94 49.55 180.97 50.18 179.00 C 47.62 177.81 45.05 176.85 42.35 176.05 C 42.36 175.31 42.39 174.58 42.43 173.84 Z" fill="#a49b88" />
<path d="M 93.06 173.63 C 93.84 178.66 93.73 183.56 92.09 188.42 L 91.86 189.20 C 90.28 186.75 88.52 184.47 86.78 182.13 C 88.50 178.93 90.55 176.23 93.06 173.63 Z" fill="#7c7d88" />
<path d="M 35.24 175.56 C 36.55 174.92 38.18 177.69 37.33 178.69 C 35.96 179.37 34.34 176.61 35.24 175.56 Z" fill="#8a8279" />
<path d="M 108.02 175.15 C 110.32 179.70 111.81 184.57 114.30 189.04 L 114.65 189.79 C 111.97 191.60 109.58 193.83 106.93 195.69 L 105.27 195.68 C 103.46 194.43 101.71 193.11 99.82 191.99 L 99.70 190.53 C 100.12 188.61 100.44 186.55 101.24 184.74 C 102.72 183.36 105.44 182.48 106.10 180.49 C 106.36 179.10 106.07 177.59 105.96 176.20 C 106.64 175.84 107.33 175.49 108.02 175.15 Z" fill="#483d2f" />
<path d="M 116.55 174.37 C 117.26 175.53 117.94 176.72 118.65 177.88 C 117.93 181.95 117.55 185.33 120.23 188.82 L 119.80 189.22 C 118.08 189.43 116.36 189.55 114.65 189.79 L 114.30 189.04 C 115.13 186.33 117.00 183.82 116.08 180.91 C 115.39 178.18 115.49 176.97 116.55 174.37 Z" fill="#918774" />
<path d="M 153.79 176.42 C 159.29 175.69 162.65 176.10 167.71 178.22 C 171.98 179.37 175.91 181.73 180.09 182.86 C 182.07 183.02 184.05 183.03 186.03 183.03 C 180.56 184.30 175.79 186.96 170.61 188.98 C 170.09 186.96 169.57 184.94 169.08 182.91 C 164.44 179.28 159.12 178.50 153.79 176.42 Z" fill="#bb4040" />
<path d="M 118.65 177.88 C 120.62 180.10 122.87 181.98 125.05 183.98 C 125.54 184.46 126.03 184.94 126.52 185.43 C 124.57 184.98 122.91 184.32 121.13 183.39 C 121.58 184.50 122.03 185.61 122.49 186.72 C 121.74 187.42 120.98 188.12 120.23 188.82 C 117.55 185.33 117.93 181.95 118.65 177.88 Z" fill="#bbb8b1" />
<path d="M 52.83 179.16 C 54.83 180.17 56.83 181.18 58.83 182.18 C 62.92 184.61 66.87 187.36 70.17 190.82 C 72.42 193.13 74.70 195.56 77.13 197.69 C 77.66 200.76 78.23 204.28 79.83 207.00 C 81.18 209.14 83.47 210.82 85.43 212.37 C 81.18 213.25 78.95 210.73 75.74 208.54 C 75.85 207.47 75.96 206.40 76.09 205.34 L 76.31 203.55 C 73.26 203.69 70.88 204.38 68.12 205.73 C 65.32 206.98 62.21 207.98 59.62 209.59 C 56.91 211.27 54.82 213.64 52.71 215.99 C 56.14 219.40 61.63 219.23 66.26 220.83 C 62.53 222.34 58.70 222.97 55.00 220.99 C 50.44 219.19 46.65 215.07 41.44 216.51 C 39.27 216.92 37.17 217.55 35.19 218.51 C 34.22 219.40 33.29 220.31 32.39 221.24 C 31.55 222.13 30.76 223.06 29.99 224.01 L 30.34 222.70 C 29.37 222.94 28.40 223.17 27.42 223.41 C 28.51 219.57 29.88 215.83 31.05 212.01 C 31.68 209.73 32.31 207.10 31.17 204.86 C 28.77 200.35 22.91 195.55 22.62 190.22 C 23.10 191.01 23.57 191.80 24.05 192.59 C 25.88 190.79 27.45 188.91 28.91 186.80 C 31.74 187.30 34.58 187.76 37.42 188.25 C 36.54 191.32 35.91 194.36 35.55 197.54 C 36.54 197.41 37.52 197.26 38.51 197.12 C 39.13 197.93 39.75 198.74 40.38 199.55 C 42.82 198.99 45.20 198.43 47.72 198.33 C 49.82 198.42 51.88 198.42 53.96 198.14 C 52.54 195.35 51.02 192.63 49.17 190.09 L 48.64 189.43 L 50.30 188.20 C 51.35 187.33 52.49 186.39 53.25 185.24 C 53.48 183.26 53.02 181.14 52.83 179.16 Z" fill="#f3f2f1" />
<path d="M 215.85 179.77 C 215.07 181.22 214.13 182.72 213.72 184.33 C 213.88 186.25 214.57 188.13 214.73 190.06 C 214.57 191.14 213.67 192.13 213.04 192.98 L 212.30 193.35 C 211.24 193.03 210.20 192.68 209.16 192.32 C 206.79 190.78 204.59 189.01 202.20 187.49 C 201.84 185.91 201.33 184.41 200.84 182.86 C 201.58 182.66 202.32 182.48 203.06 182.31 C 204.95 182.47 206.95 183.05 208.85 182.88 C 209.96 182.43 211.01 181.79 212.08 181.25 C 213.33 180.73 214.60 180.27 215.85 179.77 Z" fill="#dcd6cc" />
<path d="M 192.15 181.91 C 189.79 188.15 185.29 192.31 180.96 197.15 C 183.33 196.33 185.66 195.41 187.93 194.34 C 186.50 196.65 185.53 198.52 185.79 201.33 C 182.94 204.61 179.23 205.86 175.31 207.41 C 171.23 209.08 166.37 208.86 162.10 208.07 C 157.54 206.98 154.09 203.64 150.27 201.15 C 151.55 201.14 152.83 201.09 154.10 201.07 C 159.37 202.69 164.10 205.24 169.66 205.93 C 170.50 204.86 171.35 203.79 172.20 202.73 C 166.22 204.37 158.94 201.47 155.78 196.17 C 158.17 196.41 160.55 196.67 162.94 196.91 C 161.16 194.40 159.29 191.98 157.06 189.86 C 158.25 189.25 159.46 188.48 160.76 188.12 C 163.50 188.87 166.09 190.21 168.78 191.16 C 168.90 188.41 169.00 185.66 169.08 182.91 C 169.57 184.94 170.09 186.96 170.61 188.98 C 175.79 186.96 180.56 184.30 186.03 183.03 C 184.05 183.03 182.07 183.02 180.09 182.86 C 184.12 181.67 187.99 181.71 192.15 181.91 Z" fill="#53493d" />
<path d="M 30.00 183.39 C 31.68 184.48 33.30 185.50 35.31 185.88 C 39.90 187.03 43.86 186.49 48.25 184.90 C 47.47 186.11 46.71 187.34 45.95 188.57 C 46.85 188.85 47.74 189.14 48.64 189.43 L 49.17 190.09 C 47.34 190.22 45.51 190.30 43.68 190.43 C 39.63 190.36 39.89 194.26 38.51 197.12 C 37.52 197.26 36.54 197.41 35.55 197.54 C 35.91 194.36 36.54 191.32 37.42 188.25 C 34.58 187.76 31.74 187.30 28.91 186.80 C 27.45 188.91 25.88 190.79 24.05 192.59 C 23.57 191.80 23.10 191.01 22.62 190.22 C 23.22 189.06 23.83 187.90 24.44 186.75 C 26.17 184.94 27.12 183.06 30.00 183.39 Z" fill="#58565f" />
<path d="M 121.13 183.39 C 122.91 184.32 124.57 184.98 126.52 185.43 C 127.62 185.99 128.71 186.56 129.79 187.13 C 129.97 189.08 130.15 191.02 130.29 192.97 C 129.18 192.33 128.08 191.67 126.96 191.04 C 126.67 195.87 123.81 200.07 118.93 201.10 C 116.88 201.63 114.91 199.85 113.18 198.90 C 110.78 200.04 108.28 201.00 105.93 202.23 C 103.60 203.66 101.53 205.49 99.25 207.01 C 98.66 202.38 97.43 198.24 94.88 194.31 C 96.31 193.42 97.74 192.52 99.16 191.62 L 99.82 191.99 C 101.71 193.11 103.46 194.43 105.27 195.68 C 104.31 196.72 104.19 198.49 106.00 198.51 C 107.17 198.19 107.72 197.34 107.66 195.96 C 112.41 194.79 116.44 192.84 119.80 189.22 L 120.23 188.82 C 120.98 188.12 121.74 187.42 122.49 186.72 C 122.03 185.61 121.58 184.50 121.13 183.39 Z" fill="#767885" />
<path d="M 200.84 182.86 C 201.33 184.41 201.84 185.91 202.20 187.49 C 202.60 190.11 203.21 192.03 204.82 194.18 C 206.27 193.56 207.72 192.95 209.16 192.32 C 210.20 192.68 211.24 193.03 212.30 193.35 C 207.72 195.29 203.29 195.29 200.92 200.33 C 200.32 200.45 199.71 200.58 199.10 200.71 C 197.28 198.00 195.60 195.42 192.71 193.73 C 194.65 190.74 195.67 187.78 196.36 184.29 C 197.84 183.80 199.34 183.31 200.84 182.86 Z" fill="#cfcbbf" />
<path d="M 48.25 184.90 C 48.96 185.99 49.63 187.10 50.30 188.20 L 48.64 189.43 C 47.74 189.14 46.85 188.85 45.95 188.57 C 46.71 187.34 47.47 186.11 48.25 184.90 Z" fill="#39353f" />
<path d="M 150.44 186.71 C 152.73 187.58 154.96 188.60 157.06 189.86 C 159.29 191.98 161.16 194.40 162.94 196.91 C 160.55 196.67 158.17 196.41 155.78 196.17 C 154.51 194.19 153.14 192.29 151.81 190.35 C 151.29 189.15 150.86 187.94 150.44 186.71 Z" fill="#934945" />
<path d="M 202.20 187.49 C 204.59 189.01 206.79 190.78 209.16 192.32 C 207.72 192.95 206.27 193.56 204.82 194.18 C 203.21 192.03 202.60 190.11 202.20 187.49 Z" fill="#6c4d2a" />
<path d="M 92.09 188.42 C 94.49 189.38 96.85 190.45 99.16 191.62 C 97.74 192.52 96.31 193.42 94.88 194.31 C 93.85 192.62 92.84 190.91 91.86 189.20 L 92.09 188.42 Z" fill="#f4f4f2" />
<path d="M 223.23 188.06 C 224.86 189.24 226.36 190.55 227.87 191.88 C 226.95 193.23 226.05 194.57 225.15 195.93 C 226.53 197.82 227.87 199.74 229.11 201.73 C 225.94 199.38 223.64 196.34 219.25 198.08 C 215.28 200.52 212.76 204.20 207.75 205.27 C 205.68 205.38 203.51 204.67 201.49 204.30 C 202.02 206.60 201.79 209.79 204.28 210.96 C 206.10 211.55 208.47 212.00 210.33 211.37 C 212.89 209.89 214.08 206.15 216.00 204.03 C 218.25 202.41 221.00 201.46 223.46 200.19 C 225.21 202.00 226.87 203.88 228.27 205.98 C 228.54 207.26 228.80 208.55 229.05 209.84 C 228.06 210.41 227.06 210.97 226.05 211.52 C 225.97 210.35 225.86 209.18 225.71 208.02 C 225.51 205.90 224.58 204.35 223.28 202.72 C 220.21 204.58 217.27 206.13 215.10 209.10 C 213.61 211.09 211.79 212.64 209.80 214.11 C 207.85 213.49 205.70 213.08 203.89 212.15 C 202.26 211.07 201.01 209.33 199.71 207.90 C 199.97 205.35 200.34 202.82 200.92 200.33 C 203.29 195.29 207.72 195.29 212.30 193.35 L 213.04 192.98 C 216.40 191.27 219.84 189.71 223.23 188.06 Z" fill="#5f4927" />
<path d="M 114.65 189.79 C 116.36 189.55 118.08 189.43 119.80 189.22 C 116.44 192.84 112.41 194.79 107.66 195.96 L 106.93 195.69 C 109.58 193.83 111.97 191.60 114.65 189.79 Z" fill="#5e5c63" />
<path d="M 43.68 190.43 C 44.28 193.56 45.80 195.87 47.72 198.33 C 45.20 198.43 42.82 198.99 40.38 199.55 C 39.75 198.74 39.13 197.93 38.51 197.12 C 39.89 194.26 39.63 190.36 43.68 190.43 Z" fill="#ddd9ce" />
<path d="M 49.17 190.09 C 51.02 192.63 52.54 195.35 53.96 198.14 C 51.88 198.42 49.82 198.42 47.72 198.33 C 45.80 195.87 44.28 193.56 43.68 190.43 C 45.51 190.30 47.34 190.22 49.17 190.09 Z" fill="#8b878a" />
<path d="M 77.37 190.52 C 78.65 189.79 80.53 192.37 79.69 193.47 C 78.41 194.21 76.55 191.61 77.37 190.52 Z" fill="#63687c" />
<path d="M 126.96 191.04 C 128.08 191.67 129.18 192.33 130.29 192.97 L 130.34 193.83 C 130.38 195.72 130.59 197.90 129.94 199.71 C 128.61 201.89 126.51 203.59 125.18 205.76 C 124.62 207.38 124.87 209.33 124.78 211.02 C 124.85 215.84 124.38 220.64 124.48 225.45 C 126.12 221.81 126.81 217.90 128.25 214.20 C 129.24 211.67 130.95 209.85 132.72 207.86 C 134.34 210.99 135.83 214.02 138.41 216.50 C 136.18 217.54 133.92 218.53 131.76 219.71 C 129.44 220.87 128.17 223.57 126.27 225.39 C 124.80 226.57 122.99 224.48 121.61 223.86 C 117.67 227.25 113.43 230.45 108.76 232.79 C 106.44 233.92 103.86 234.52 101.30 233.91 C 100.03 233.23 98.97 232.08 97.91 231.11 C 98.82 228.16 99.58 225.21 99.66 222.10 C 99.72 221.12 99.80 220.15 99.88 219.17 C 103.61 222.21 106.26 226.17 110.20 228.92 C 108.14 222.30 104.28 217.09 100.10 211.68 C 99.80 210.13 99.51 208.57 99.25 207.01 C 101.53 205.49 103.60 203.66 105.93 202.23 C 108.28 201.00 110.78 200.04 113.18 198.90 C 114.91 199.85 116.88 201.63 118.93 201.10 C 123.81 200.07 126.67 195.87 126.96 191.04 Z" fill="#f3f2f0" />
<path d="M 151.81 190.35 C 153.14 192.29 154.51 194.19 155.78 196.17 C 158.94 201.47 166.22 204.37 172.20 202.73 C 171.35 203.79 170.50 204.86 169.66 205.93 C 164.10 205.24 159.37 202.69 154.10 201.07 C 154.98 201.04 155.87 201.00 156.75 200.96 C 153.94 198.68 150.98 196.72 147.82 194.96 C 148.99 193.23 150.25 191.74 151.81 190.35 Z" fill="#756c5b" />
<path d="M 130.34 193.83 L 130.43 195.17 C 130.72 199.63 130.60 203.77 132.72 207.86 C 130.95 209.85 129.24 211.67 128.25 214.20 C 126.81 217.90 126.12 221.81 124.48 225.45 C 124.38 220.64 124.85 215.84 124.78 211.02 C 124.87 209.33 124.62 207.38 125.18 205.76 C 126.51 203.59 128.61 201.89 129.94 199.71 C 130.59 197.90 130.38 195.72 130.34 193.83 Z" fill="#777884" />
<path d="M 132.87 194.81 C 134.14 198.89 134.91 203.01 135.71 207.20 C 135.12 206.44 134.51 205.69 133.88 204.95 C 135.01 208.98 137.29 212.49 138.41 216.50 C 135.83 214.02 134.34 210.99 132.72 207.86 C 130.60 203.77 130.72 199.63 130.43 195.17 C 131.24 195.04 132.05 194.92 132.87 194.81 Z" fill="#5d6072" />
<path d="M 80.73 195.00 C 82.67 197.06 84.26 199.21 85.67 201.66 C 84.63 206.19 86.56 209.55 87.91 213.73 C 87.08 213.28 86.25 212.84 85.43 212.37 C 83.47 210.82 81.18 209.14 79.83 207.00 C 78.23 204.28 77.66 200.76 77.13 197.69 C 79.61 199.59 82.07 201.50 84.38 203.61 C 82.93 200.83 81.65 198.00 80.73 195.00 Z" fill="#5b5c6f" />
<path d="M 144.06 195.88 C 145.31 195.56 146.57 195.27 147.82 194.96 C 150.98 196.72 153.94 198.68 156.75 200.96 C 155.87 201.00 154.98 201.04 154.10 201.07 C 152.83 201.09 151.55 201.14 150.27 201.15 C 147.84 200.54 145.78 199.58 143.65 198.26 C 143.77 197.47 143.90 196.67 144.06 195.88 Z" fill="#8e8b80" />
<path d="M 105.27 195.68 L 106.93 195.69 L 107.66 195.96 C 107.72 197.34 107.17 198.19 106.00 198.51 C 104.19 198.49 104.31 196.72 105.27 195.68 Z" fill="#bbbec3" />
<path d="M 143.65 198.26 C 145.78 199.58 147.84 200.54 150.27 201.15 C 154.09 203.64 157.54 206.98 162.10 208.07 C 166.37 208.86 171.23 209.08 175.31 207.41 C 179.23 205.86 182.94 204.61 185.79 201.33 C 191.10 203.13 196.17 202.96 199.71 207.90 C 201.01 209.33 202.26 211.07 203.89 212.15 C 205.70 213.08 207.85 213.49 209.80 214.11 C 210.98 215.05 212.11 216.05 213.24 217.06 C 212.04 218.17 210.82 219.50 209.36 220.24 C 206.40 221.17 203.48 221.20 200.48 221.64 C 197.20 222.38 193.92 223.12 190.59 223.69 C 185.31 223.94 180.67 222.99 175.49 224.55 C 172.88 226.82 173.62 230.00 173.19 233.13 C 172.51 229.94 172.41 226.59 171.52 223.47 C 170.17 221.25 166.48 220.51 164.16 219.75 C 158.91 218.49 154.51 216.42 149.28 216.95 C 146.16 211.82 144.02 206.17 143.71 200.12 L 143.65 198.26 Z" fill="#f3f2f1" />
<path d="M 219.25 198.08 C 223.64 196.34 225.94 199.38 229.11 201.73 C 228.81 203.14 228.51 204.55 228.27 205.98 C 226.87 203.88 225.21 202.00 223.46 200.19 C 221.00 201.46 218.25 202.41 216.00 204.03 C 214.08 206.15 212.89 209.89 210.33 211.37 C 208.47 212.00 206.10 211.55 204.28 210.96 C 201.79 209.79 202.02 206.60 201.49 204.30 C 203.51 204.67 205.68 205.38 207.75 205.27 C 212.76 204.20 215.28 200.52 219.25 198.08 Z" fill="#d8d4c8" />
<path d="M 85.67 201.66 C 88.19 205.45 89.38 209.68 91.08 213.84 C 91.11 214.78 91.13 215.72 91.15 216.66 C 89.35 220.03 86.94 222.81 84.14 225.38 C 84.21 223.05 84.45 220.81 84.94 218.52 L 85.12 217.59 C 83.58 215.53 81.60 213.95 79.48 212.52 C 76.96 213.98 74.98 215.97 72.92 217.98 C 71.39 218.75 69.80 219.42 68.21 220.07 C 67.56 220.32 66.91 220.58 66.26 220.83 C 61.63 219.23 56.14 219.40 52.71 215.99 C 54.82 213.64 56.91 211.27 59.62 209.59 C 62.21 207.98 65.32 206.98 68.12 205.73 C 71.13 206.48 73.13 206.34 76.09 205.34 C 75.96 206.40 75.85 207.47 75.74 208.54 C 78.95 210.73 81.18 213.25 85.43 212.37 C 86.25 212.84 87.08 213.28 87.91 213.73 C 86.56 209.55 84.63 206.19 85.67 201.66 Z" fill="#d9d4ca" />
<path d="M 76.31 203.55 L 76.09 205.34 C 73.13 206.34 71.13 206.48 68.12 205.73 C 70.88 204.38 73.26 203.69 76.31 203.55 Z" fill="#bab7ac" />
<path d="M 223.28 202.72 C 224.58 204.35 225.51 205.90 225.71 208.02 C 224.90 207.07 224.05 206.15 223.16 205.25 C 220.37 209.78 217.00 213.36 213.24 217.06 C 212.11 216.05 210.98 215.05 209.80 214.11 C 211.79 212.64 213.61 211.09 215.10 209.10 C 217.27 206.13 220.21 204.58 223.28 202.72 Z" fill="#d9d4c4" />
<path d="M 223.16 205.25 C 224.05 206.15 224.90 207.07 225.71 208.02 C 225.86 209.18 225.97 210.35 226.05 211.52 L 226.10 212.16 C 224.79 213.31 223.10 214.69 222.48 216.37 C 222.38 218.14 222.71 219.99 222.95 221.75 C 223.73 220.84 224.51 219.94 225.29 219.04 C 225.35 220.10 225.40 221.16 225.43 222.22 C 225.07 224.04 224.61 225.83 224.19 227.64 C 222.11 225.97 220.29 224.06 218.48 222.10 C 217.67 222.00 216.86 221.93 216.04 221.88 C 217.39 219.23 218.48 216.53 219.30 213.67 C 216.47 215.89 214.61 218.75 212.72 221.75 L 212.21 222.38 C 212.95 222.70 213.68 223.02 214.42 223.34 C 214.36 223.74 214.30 224.15 214.24 224.55 C 213.14 225.66 212.06 226.78 211.09 228.00 C 210.22 226.56 209.35 224.98 208.21 223.73 C 203.75 223.43 198.94 223.90 194.53 224.48 C 192.88 224.49 192.64 226.86 192.03 228.03 L 191.25 228.20 L 189.51 228.26 C 189.86 226.73 190.23 225.21 190.59 223.69 C 193.92 223.12 197.20 222.38 200.48 221.64 C 203.48 221.20 206.40 221.17 209.36 220.24 C 210.82 219.50 212.04 218.17 213.24 217.06 C 217.00 213.36 220.37 209.78 223.16 205.25 Z" fill="#483516" />
<path d="M 79.48 212.52 C 81.60 213.95 83.58 215.53 85.12 217.59 C 84.43 217.29 83.73 217.01 83.03 216.74 C 81.47 217.39 79.93 218.39 78.27 218.74 C 76.51 218.85 74.65 218.29 72.92 217.98 C 74.98 215.97 76.96 213.98 79.48 212.52 Z" fill="#c0bbad" />
<path d="M 100.10 211.68 C 104.28 217.09 108.14 222.30 110.20 228.92 C 106.26 226.17 103.61 222.21 99.88 219.17 C 99.80 220.15 99.72 221.12 99.66 222.10 C 99.55 218.61 99.79 215.16 100.10 211.68 Z" fill="#757784" />
<path d="M 143.36 212.18 C 144.86 211.21 145.94 213.62 144.11 213.94 C 143.13 213.64 142.88 213.05 143.36 212.18 Z" fill="#84859c" />
<path d="M 226.10 212.16 C 226.49 215.68 226.25 218.78 225.43 222.22 C 225.40 221.16 225.35 220.10 225.29 219.04 C 224.51 219.94 223.73 220.84 222.95 221.75 C 222.71 219.99 222.38 218.14 222.48 216.37 C 223.10 214.69 224.79 213.31 226.10 212.16 Z" fill="#77644e" />
<path d="M 91.08 213.84 C 91.87 214.94 92.73 216.03 93.40 217.20 C 93.01 218.32 92.43 219.39 91.93 220.47 C 91.65 219.20 91.39 217.93 91.15 216.66 C 91.13 215.72 91.11 214.78 91.08 213.84 Z" fill="#665344" />
<path d="M 219.30 213.67 C 218.48 216.53 217.39 219.23 216.04 221.88 C 214.93 221.82 213.83 221.78 212.72 221.75 C 214.61 218.75 216.47 215.89 219.30 213.67 Z" fill="#c6bca7" />
<path d="M 55.00 220.99 C 58.70 222.97 62.53 222.34 66.26 220.83 C 66.91 220.58 67.56 220.32 68.21 220.07 C 70.12 220.39 71.96 220.84 73.84 221.28 L 73.03 222.68 L 71.97 223.92 C 72.08 225.92 74.32 224.48 73.80 223.02 C 77.98 222.54 81.63 221.12 84.94 218.52 C 84.45 220.81 84.21 223.05 84.14 225.38 C 82.56 226.98 81.08 229.04 79.16 230.21 C 77.29 231.43 74.99 230.37 72.97 230.09 C 71.00 229.59 69.02 229.58 67.01 229.40 C 65.22 228.92 63.60 227.88 61.78 227.43 C 60.44 227.45 59.08 227.83 57.77 228.11 C 58.88 227.14 59.96 226.13 61.04 225.13 C 58.42 225.01 55.72 224.99 53.14 224.53 C 49.65 223.85 46.44 221.64 42.92 220.82 C 42.22 220.67 41.51 220.52 40.80 220.39 C 41.00 219.09 41.21 217.80 41.44 216.51 C 46.65 215.07 50.44 219.19 55.00 220.99 Z" fill="#4c3e25" />
<path d="M 83.03 216.74 C 83.73 217.01 84.43 217.29 85.12 217.59 L 84.94 218.52 C 81.63 221.12 77.98 222.54 73.80 223.02 L 73.03 222.68 L 73.84 221.28 C 71.96 220.84 70.12 220.39 68.21 220.07 C 69.80 219.42 71.39 218.75 72.92 217.98 C 74.65 218.29 76.51 218.85 78.27 218.74 C 79.93 218.39 81.47 217.39 83.03 216.74 Z" fill="#776b56" />
<path d="M 41.44 216.51 C 41.21 217.80 41.00 219.09 40.80 220.39 C 38.44 222.66 35.51 223.98 32.94 225.93 C 32.06 228.10 31.95 230.66 31.63 232.97 C 30.95 232.39 30.26 231.82 29.57 231.25 C 29.07 228.58 29.13 226.59 29.99 224.01 C 30.76 223.06 31.55 222.13 32.39 221.24 C 33.99 221.20 35.60 221.14 37.20 221.07 C 36.53 220.21 35.86 219.36 35.19 218.51 C 37.17 217.55 39.27 216.92 41.44 216.51 Z" fill="#7e6645" />
<path d="M 91.15 216.66 C 91.39 217.93 91.65 219.20 91.93 220.47 C 90.93 223.21 89.76 225.63 88.20 228.10 C 88.47 228.59 88.74 229.08 89.01 229.57 C 89.91 229.25 90.80 228.93 91.70 228.60 C 91.59 230.19 91.52 231.77 91.48 233.36 C 88.72 236.13 85.34 235.93 81.72 236.79 C 74.95 238.22 68.11 239.14 61.31 240.36 C 55.53 241.42 49.66 241.19 43.89 240.19 C 38.25 239.39 33.03 235.67 29.57 231.25 C 30.26 231.82 30.95 232.39 31.63 232.97 C 31.95 230.66 32.06 228.10 32.94 225.93 C 35.51 223.98 38.44 222.66 40.80 220.39 C 41.51 220.52 42.22 220.67 42.92 220.82 C 41.64 223.02 40.13 225.33 39.49 227.81 C 40.27 229.30 41.34 230.67 42.36 232.01 C 43.44 230.59 44.50 229.15 45.54 227.69 C 46.68 228.48 47.88 229.37 49.17 229.90 C 52.05 229.90 54.97 228.73 57.77 228.11 C 59.08 227.83 60.44 227.45 61.78 227.43 C 63.60 227.88 65.22 228.92 67.01 229.40 C 69.02 229.58 71.00 229.59 72.97 230.09 C 74.99 230.37 77.29 231.43 79.16 230.21 C 81.08 229.04 82.56 226.98 84.14 225.38 C 86.94 222.81 89.35 220.03 91.15 216.66 Z" fill="#f5f4f1" />
<path d="M 35.19 218.51 C 35.86 219.36 36.53 220.21 37.20 221.07 C 35.60 221.14 33.99 221.20 32.39 221.24 C 33.29 220.31 34.22 219.40 35.19 218.51 Z" fill="#473014" />
<path d="M 146.32 219.17 C 147.12 218.86 147.79 218.94 148.32 219.43 C 149.21 220.83 147.30 222.03 146.04 221.68 C 144.67 221.10 145.22 219.69 146.32 219.17 Z" fill="#5e5f77" />
<path d="M 42.92 220.82 C 46.44 221.64 49.65 223.85 53.14 224.53 C 55.72 224.99 58.42 225.01 61.04 225.13 C 59.96 226.13 58.88 227.14 57.77 228.11 C 54.97 228.73 52.05 229.90 49.17 229.90 C 47.88 229.37 46.68 228.48 45.54 227.69 C 44.50 229.15 43.44 230.59 42.36 232.01 C 41.34 230.67 40.27 229.30 39.49 227.81 C 40.13 225.33 41.64 223.02 42.92 220.82 Z" fill="#72522d" />
<path d="M 218.48 222.10 C 220.29 224.06 222.11 225.97 224.19 227.64 C 223.86 229.69 223.73 231.75 223.59 233.82 C 220.66 234.10 217.76 234.49 214.86 235.06 C 212.43 231.51 213.78 228.42 214.24 224.55 C 214.30 224.15 214.36 223.74 214.42 223.34 C 213.68 223.02 212.95 222.70 212.21 222.38 L 212.72 221.75 C 213.83 221.78 214.93 221.82 216.04 221.88 C 216.86 221.93 217.67 222.00 218.48 222.10 Z" fill="#74532f" />
<path d="M 73.03 222.68 L 73.80 223.02 C 74.32 224.48 72.08 225.92 71.97 223.92 L 73.03 222.68 Z" fill="#d6ccb9" />
<path d="M 208.21 223.73 C 209.35 224.98 210.22 226.56 211.09 228.00 C 208.82 230.98 207.52 234.58 203.50 235.48 C 199.23 236.12 194.46 234.82 190.33 233.76 C 190.35 233.04 190.36 232.33 190.38 231.61 C 193.90 230.46 197.61 229.34 200.44 226.84 C 197.58 226.92 194.80 227.36 192.03 228.03 C 192.64 226.86 192.88 224.49 194.53 224.48 C 198.94 223.90 203.75 223.43 208.21 223.73 Z" fill="#6e502c" />
<path d="M 190.59 223.69 C 190.23 225.21 189.86 226.73 189.51 228.26 L 191.25 228.20 C 188.65 229.02 185.87 229.11 183.29 229.89 C 180.88 231.33 178.78 233.20 176.21 234.40 C 175.52 231.14 175.54 227.87 175.49 224.55 C 180.67 222.99 185.31 223.94 190.59 223.69 Z" fill="#7e5d38" />
<path d="M 57.06 231.00 C 55.75 232.17 54.78 233.42 54.71 235.23 C 52.85 236.02 50.93 236.64 48.99 237.19 C 49.40 236.54 49.69 235.84 49.86 235.09 C 52.25 233.66 54.55 232.23 57.06 231.00 Z" fill="#c1b6aa" />
<path d="M 57.06 231.00 C 60.00 231.43 55.99 235.02 54.71 235.23 C 54.78 233.42 55.75 232.17 57.06 231.00 Z" fill="#5f4936" />
<path d="M 69.51 231.12 C 70.41 230.36 73.99 231.45 73.59 232.83 C 72.79 233.48 69.03 232.38 69.51 231.12 Z" fill="#645646" />
<path d="M 49.86 235.09 C 49.69 235.84 49.40 236.54 48.99 237.19 C 48.04 237.57 47.20 237.43 46.49 236.76 C 45.46 234.69 48.64 234.62 49.86 235.09 Z" fill="#8c7f6d" />
</svg>