<?xml version="1.0" encoding="UTF-8" standalone="no"?>
<!DOCTYPE svg PUBLIC "-//W3C//DTD SVG 1.1//EN" "http://www.w3.org/Graphics/SVG/1.1/DTD/svg11.dtd">
<svg xmlns="http://www.w3.org/2000/svg" version="1.1" viewBox="0 0 256 256" width="256.0pt" height="256.0pt">
<path d="M 0.00 0.00 L 256.00 0.00 L 256.00 256.00 L 0.00 256.00 L 0.00 0.00 Z" fill="#fffefe" />
<path d="M 102.01 21.95 C 111.36 22.07 120.45 22.63 128.90 27.04 C 133.61 29.33 139.31 33.13 144.75 31.81 C 149.34 30.38 152.99 26.44 157.39 24.40 C 160.08 23.16 163.55 21.28 166.57 21.60 C 171.63 23.60 175.54 29.23 178.24 33.76 C 183.14 42.51 188.76 51.09 195.28 58.72 C 199.44 63.62 202.96 68.99 207.11 73.90 C 214.50 83.52 222.55 91.77 228.49 102.46 C 234.20 112.52 237.84 123.33 240.74 134.47 C 243.82 143.90 244.54 154.18 243.90 164.02 C 242.56 177.06 235.46 187.36 229.49 198.45 C 225.50 205.55 224.89 213.33 220.08 219.80 C 220.35 221.50 220.88 223.01 220.08 224.67 C 218.22 228.81 214.49 231.42 210.86 233.89 C 207.15 236.32 203.25 238.98 198.77 239.67 C 193.96 240.40 188.87 240.04 184.00 240.08 C 178.80 240.00 173.38 240.42 168.23 239.67 C 164.17 239.06 160.92 236.90 157.45 234.89 C 159.50 233.74 161.50 232.53 163.35 231.07 C 168.03 232.53 172.65 231.54 177.05 229.66 C 178.92 230.44 180.75 231.28 182.59 232.12 C 187.98 234.98 192.13 231.46 197.66 230.60 C 200.43 230.00 203.78 229.80 206.26 228.33 C 207.28 226.85 207.92 225.06 208.63 223.41 C 210.93 222.55 213.25 221.72 215.58 220.91 C 215.68 218.11 215.98 215.21 215.65 212.43 C 214.86 211.21 213.74 210.16 212.67 209.19 C 210.52 207.22 208.16 205.49 205.70 203.92 C 217.57 198.68 226.16 189.62 231.28 177.75 C 232.41 175.21 233.45 172.62 234.32 169.98 C 234.91 167.69 235.30 165.35 235.60 163.01 C 237.36 153.64 235.59 144.83 232.86 135.87 C 231.41 131.28 230.18 126.65 228.26 122.22 C 227.68 120.66 226.83 119.26 225.93 117.87 C 224.63 115.60 223.47 113.24 222.43 110.83 C 221.62 107.47 220.80 104.28 218.62 101.50 C 215.09 96.76 210.76 92.01 206.40 88.01 C 205.54 87.86 204.69 87.72 203.82 87.61 C 201.30 83.72 198.43 80.10 195.08 76.90 C 190.89 72.88 189.21 67.93 185.44 63.56 C 180.67 58.02 177.84 51.29 173.42 45.55 C 172.55 44.45 171.65 43.37 170.68 42.36 C 170.27 41.16 169.86 39.96 169.45 38.75 C 169.00 36.88 168.63 34.99 168.13 33.12 C 167.32 31.86 166.43 30.65 165.54 29.45 C 164.27 27.40 163.11 25.30 161.77 23.30 C 158.70 28.30 157.74 33.55 156.12 39.13 C 155.30 42.47 153.99 46.30 154.37 49.75 C 154.82 52.65 156.22 55.47 157.28 58.19 C 158.05 59.99 158.90 61.75 159.80 63.49 C 161.03 65.92 162.60 68.11 164.19 70.31 C 166.16 73.02 167.96 75.86 170.03 78.49 C 174.50 83.31 179.08 88.00 183.41 92.95 C 183.49 92.05 183.57 91.15 183.64 90.25 C 186.20 91.66 189.17 93.55 192.11 93.81 C 193.92 94.00 194.87 92.84 196.09 91.75 L 196.90 89.88 C 200.36 94.13 203.64 98.55 207.35 102.60 C 205.22 102.07 203.10 101.52 200.94 101.09 C 201.44 102.43 201.93 103.82 202.65 105.06 C 204.49 105.93 207.23 105.08 209.18 104.85 C 211.38 107.89 213.05 111.23 215.16 114.33 C 214.61 114.32 214.07 114.31 213.52 114.31 C 212.85 114.33 212.18 114.36 211.51 114.40 C 211.85 117.64 211.53 120.30 210.79 123.45 C 210.01 127.07 211.88 131.24 212.33 134.89 C 213.26 140.23 212.42 145.36 211.49 150.64 C 211.08 152.63 210.60 154.61 210.05 156.57 C 208.87 158.76 207.52 160.85 206.10 162.89 C 205.68 161.65 205.33 160.39 204.99 159.12 C 202.72 159.18 200.44 159.23 198.17 159.36 C 195.23 149.56 190.92 140.61 183.14 133.74 L 182.19 134.08 C 181.04 132.92 179.91 131.76 178.72 130.64 C 174.00 132.23 169.48 134.60 165.35 137.39 C 162.09 139.62 160.13 142.59 157.55 145.47 C 154.75 147.11 151.79 148.48 148.89 149.93 C 149.62 150.69 150.34 151.44 151.07 152.19 C 150.15 152.56 149.23 152.93 148.31 153.29 C 147.79 150.91 147.30 148.52 146.75 146.15 C 152.75 140.78 160.12 136.82 163.42 129.21 C 163.96 127.93 164.39 126.61 164.87 125.30 C 167.26 119.73 168.80 114.17 168.88 108.08 C 168.30 104.69 167.49 101.50 167.58 98.02 C 167.73 95.52 165.14 94.46 163.98 92.58 C 163.20 90.53 163.44 87.99 163.30 85.82 C 163.19 83.92 163.10 81.68 162.23 79.95 C 160.62 77.87 157.97 76.47 155.74 75.11 C 155.34 71.67 154.96 68.32 154.16 64.93 C 152.09 57.28 146.59 50.42 140.84 45.13 C 137.25 42.14 134.13 38.70 129.01 39.27 C 126.92 37.15 125.08 34.83 123.33 32.42 C 117.14 32.26 111.45 30.56 105.21 31.47 C 105.55 32.71 105.89 33.95 106.24 35.19 C 104.73 35.24 103.21 35.29 101.69 35.35 C 99.75 32.57 97.52 31.25 94.33 30.21 C 95.30 31.31 96.33 32.35 97.43 33.33 C 95.77 34.63 94.17 36.00 92.54 37.34 C 91.72 36.94 90.91 36.54 90.09 36.14 C 89.14 34.31 88.17 32.49 87.20 30.67 C 85.80 31.50 84.41 32.33 83.01 33.16 L 81.80 33.86 C 80.91 33.76 80.02 33.66 79.13 33.56 C 80.27 31.89 81.42 30.22 82.54 28.54 C 79.35 29.57 76.19 30.50 73.37 32.37 C 70.51 34.26 68.47 36.71 66.25 39.27 C 65.78 39.80 65.31 40.31 64.82 40.82 C 61.76 42.67 58.83 44.72 55.78 46.57 C 53.45 47.56 51.14 48.55 48.95 49.81 C 43.84 53.12 37.04 58.70 36.64 65.24 C 36.44 67.69 36.32 70.16 36.24 72.62 C 33.12 76.19 29.89 78.87 30.92 84.10 C 27.45 87.62 22.56 91.36 21.26 96.26 C 19.25 102.68 20.69 109.87 21.72 116.35 C 22.91 124.04 26.41 132.46 32.46 137.57 C 29.93 133.87 27.32 130.50 25.80 126.20 C 23.36 118.04 22.54 109.50 24.27 101.11 L 25.58 99.73 C 29.14 104.26 24.15 108.10 25.75 113.35 C 27.40 118.30 28.07 123.50 29.70 128.42 C 32.14 131.48 35.34 133.30 36.84 137.17 C 35.67 140.87 34.86 145.18 34.36 149.03 C 34.81 153.97 37.29 158.76 40.55 162.45 C 44.30 167.21 48.50 171.16 53.64 174.39 C 57.64 177.37 62.12 178.53 66.76 180.09 C 72.07 181.95 78.47 180.75 83.53 181.30 C 88.13 185.67 93.16 189.19 99.21 191.25 C 100.28 191.63 101.35 192.01 102.41 192.39 C 100.61 193.11 99.24 194.11 97.25 193.34 C 91.60 191.38 85.83 188.07 79.70 188.22 C 81.92 190.13 84.43 191.47 86.87 193.07 C 85.93 193.40 84.98 193.72 84.02 194.03 C 81.55 194.68 78.93 195.32 76.37 195.36 C 73.21 195.04 70.12 194.14 66.97 193.81 C 65.27 194.26 63.67 195.20 62.09 195.96 C 66.55 196.87 70.78 197.33 75.23 196.00 C 76.47 196.78 78.36 199.22 79.85 198.85 C 83.13 197.37 86.09 195.25 89.43 193.84 C 91.83 194.70 94.27 195.46 96.66 196.33 L 96.80 198.04 C 95.42 199.62 93.72 201.88 91.60 202.41 C 88.68 203.11 85.65 203.37 82.67 203.72 C 78.89 203.92 75.06 204.01 71.30 204.49 C 69.24 203.72 67.08 202.08 64.85 202.16 C 63.26 202.65 61.72 203.33 60.18 203.94 C 58.41 202.83 57.12 201.44 54.90 201.45 C 50.10 201.16 45.56 200.66 41.11 198.72 C 43.30 194.57 47.24 191.16 48.84 186.81 C 49.00 183.03 46.02 179.13 43.52 176.54 C 39.62 172.62 35.70 168.97 32.79 164.20 C 28.56 157.58 27.76 150.62 24.54 143.43 C 22.79 139.25 20.21 135.42 18.65 131.19 C 17.65 128.70 18.78 125.79 19.35 123.30 C 18.41 124.21 17.46 125.11 16.51 126.01 C 12.55 116.44 12.32 106.14 14.06 96.05 C 15.05 90.53 17.56 85.97 19.88 80.96 C 22.21 76.04 23.54 71.27 26.93 66.93 C 29.43 63.76 31.99 60.66 34.34 57.38 C 37.49 52.96 41.85 49.81 44.79 45.22 C 48.49 39.18 54.03 36.80 59.36 32.37 C 65.49 27.49 72.85 24.17 80.52 22.61 C 87.58 21.16 94.56 21.99 102.01 21.95 Z" fill="#f4f4f1" />
<path d="M 161.77 23.30 C 163.11 25.30 164.27 27.40 165.54 29.45 C 164.06 28.56 162.52 27.76 160.96 27.02 C 158.59 32.46 159.89 39.23 160.47 44.98 C 160.97 42.49 161.44 40.00 161.94 37.52 C 161.51 42.48 161.17 47.55 161.59 52.52 C 161.99 57.09 163.56 61.14 164.72 65.51 C 164.63 67.13 164.41 68.70 164.19 70.31 C 162.60 68.11 161.03 65.92 159.80 63.49 C 161.15 60.07 161.18 57.25 160.62 53.68 C 159.50 55.18 158.40 56.69 157.28 58.19 C 156.22 55.47 154.82 52.65 154.37 49.75 C 153.99 46.30 155.30 42.47 156.12 39.13 C 157.74 33.55 158.70 28.30 161.77 23.30 Z" fill="#8b8e48" />
<path d="M 160.96 27.02 C 162.52 27.76 164.06 28.56 165.54 29.45 C 166.43 30.65 167.32 31.86 168.13 33.12 C 167.77 33.46 167.42 33.79 167.06 34.12 C 166.12 33.53 165.18 32.93 164.22 32.36 C 163.48 33.29 162.60 34.29 162.38 35.48 L 161.94 37.52 C 161.44 40.00 160.97 42.49 160.47 44.98 C 159.89 39.23 158.59 32.46 160.96 27.02 Z" fill="#32302f" />
<path d="M 82.54 28.54 C 81.42 30.22 80.27 31.89 79.13 33.56 C 80.02 33.66 80.91 33.76 81.80 33.86 C 79.54 35.20 77.23 36.74 74.80 37.75 C 72.19 38.81 69.04 38.98 66.25 39.27 C 68.47 36.71 70.51 34.26 73.37 32.37 C 76.19 30.50 79.35 29.57 82.54 28.54 Z" fill="#ded5ba" />
<path d="M 90.52 29.42 C 91.39 28.66 93.14 29.20 93.52 30.26 C 93.44 32.08 89.77 31.01 90.52 29.42 Z" fill="#858589" />
<path d="M 94.33 30.21 C 97.52 31.25 99.75 32.57 101.69 35.35 C 103.71 38.06 104.45 41.03 108.31 41.40 C 111.14 41.34 113.89 38.83 116.90 38.62 C 121.15 37.69 124.78 39.65 129.01 39.27 C 134.13 38.70 137.25 42.14 140.84 45.13 C 146.59 50.42 152.09 57.28 154.16 64.93 C 154.15 66.80 154.00 68.66 153.84 70.52 C 151.71 67.28 150.34 63.73 148.76 60.21 C 147.46 57.39 145.95 54.61 144.33 51.96 C 141.85 47.99 137.88 44.34 133.28 43.14 C 130.98 42.47 128.63 41.99 126.25 41.68 C 123.54 44.07 120.82 46.34 117.73 48.23 C 115.60 49.54 113.16 51.13 110.68 51.58 C 107.67 52.07 104.73 50.54 103.04 48.08 C 102.25 46.35 102.54 44.07 102.39 42.20 C 102.21 39.69 101.63 37.70 100.40 35.51 C 99.43 34.75 98.43 34.04 97.43 33.33 C 96.33 32.35 95.30 31.31 94.33 30.21 Z" fill="#21213d" />
<path d="M 87.20 30.67 C 88.17 32.49 89.14 34.31 90.09 36.14 C 87.78 35.02 85.46 33.96 83.01 33.16 C 84.41 32.33 85.80 31.50 87.20 30.67 Z" fill="#e2d5b5" />
<path d="M 123.33 32.42 C 125.08 34.83 126.92 37.15 129.01 39.27 C 124.78 39.65 121.15 37.69 116.90 38.62 C 113.89 38.83 111.14 41.34 108.31 41.40 C 104.45 41.03 103.71 38.06 101.69 35.35 C 103.21 35.29 104.73 35.24 106.24 35.19 C 105.89 33.95 105.55 32.71 105.21 31.47 C 111.45 30.56 117.14 32.26 123.33 32.42 Z" fill="#dabb7b" />
<path d="M 164.22 32.36 C 165.18 32.93 166.12 33.53 167.06 34.12 C 167.42 33.79 167.77 33.46 168.13 33.12 C 168.63 34.99 169.00 36.88 169.45 38.75 C 168.39 37.69 167.28 36.69 166.15 35.71 C 167.04 38.92 167.21 41.13 170.68 42.36 C 171.65 43.37 172.55 44.45 173.42 45.55 C 175.19 53.95 175.98 61.85 181.12 69.07 C 179.84 69.31 178.55 69.55 177.26 69.78 C 176.23 68.33 175.17 66.91 174.01 65.56 C 173.21 68.66 174.13 70.81 175.36 73.62 C 174.75 74.08 174.13 74.53 173.52 74.98 C 171.75 73.13 169.21 71.09 168.39 68.60 C 168.24 66.39 169.09 64.04 169.59 61.90 C 168.24 62.90 166.87 63.88 165.52 64.89 C 166.10 57.89 163.82 51.77 163.53 44.86 C 163.37 41.70 162.94 38.59 162.38 35.48 C 162.60 34.29 163.48 33.29 164.22 32.36 Z" fill="#8a8e4a" />
<path d="M 83.01 33.16 C 85.46 33.96 87.78 35.02 90.09 36.14 C 90.91 36.54 91.72 36.94 92.54 37.34 C 92.40 38.55 92.25 39.75 92.11 40.95 L 90.73 40.45 C 86.86 38.85 84.88 39.01 80.97 40.30 C 75.52 39.30 70.21 39.71 64.82 40.82 C 65.31 40.31 65.78 39.80 66.25 39.27 C 69.04 38.98 72.19 38.81 74.80 37.75 C 77.23 36.74 79.54 35.20 81.80 33.86 L 83.01 33.16 Z" fill="#dabf82" />
<path d="M 97.43 33.33 C 98.43 34.04 99.43 34.75 100.40 35.51 C 97.77 37.28 95.32 39.29 92.77 41.19 L 92.11 40.95 C 92.25 39.75 92.40 38.55 92.54 37.34 C 94.17 36.00 95.77 34.63 97.43 33.33 Z" fill="#dbcdab" />
<path d="M 100.40 35.51 C 101.63 37.70 102.21 39.69 102.39 42.20 C 100.21 44.22 97.85 45.45 95.08 46.47 C 94.34 44.70 93.60 42.92 92.77 41.19 C 95.32 39.29 97.77 37.28 100.40 35.51 Z" fill="#dab978" />
<path d="M 162.38 35.48 C 162.94 38.59 163.37 41.70 163.53 44.86 C 163.82 51.77 166.10 57.89 165.52 64.89 L 164.72 65.51 C 163.56 61.14 161.99 57.09 161.59 52.52 C 161.17 47.55 161.51 42.48 161.94 37.52 L 162.38 35.48 Z" fill="#bbae43" />
<path d="M 166.15 35.71 C 167.28 36.69 168.39 37.69 169.45 38.75 C 169.86 39.96 170.27 41.16 170.68 42.36 C 167.21 41.13 167.04 38.92 166.15 35.71 Z" fill="#595e2f" />
<path d="M 80.97 40.30 C 81.18 42.56 81.39 44.81 81.62 47.07 C 79.86 51.18 78.64 55.35 78.16 59.81 C 77.58 64.02 77.26 68.24 77.70 72.48 C 77.82 73.55 77.98 74.61 78.13 75.68 C 77.07 76.33 76.00 76.98 74.94 77.62 C 73.75 73.19 73.60 68.92 73.91 64.36 C 70.87 63.15 68.57 61.86 66.72 59.04 C 66.22 56.93 65.67 54.83 65.05 52.74 L 64.15 54.15 C 62.85 56.12 61.49 58.03 60.12 59.95 C 60.40 56.84 60.61 53.67 61.15 50.59 C 62.15 49.10 63.14 47.61 64.12 46.11 C 61.34 46.26 58.55 46.36 55.78 46.57 C 58.83 44.72 61.76 42.67 64.82 40.82 C 70.21 39.71 75.52 39.30 80.97 40.30 Z" fill="#c69430" />
<path d="M 90.73 40.45 C 89.99 42.36 89.22 44.26 88.53 46.18 C 87.04 46.32 85.56 46.51 84.08 46.70 C 83.26 46.82 82.44 46.95 81.62 47.07 C 81.39 44.81 81.18 42.56 80.97 40.30 C 84.88 39.01 86.86 38.85 90.73 40.45 Z" fill="#907b36" />
<path d="M 90.73 40.45 L 92.11 40.95 L 92.77 41.19 C 93.60 42.92 94.34 44.70 95.08 46.47 C 97.85 45.45 100.21 44.22 102.39 42.20 C 102.54 44.07 102.25 46.35 103.04 48.08 C 104.73 50.54 107.67 52.07 110.68 51.58 C 113.16 51.13 115.60 49.54 117.73 48.23 C 120.59 47.59 123.27 48.13 126.04 48.84 C 125.42 50.38 124.76 51.91 124.12 53.44 C 126.74 55.99 128.15 56.91 131.93 56.59 C 131.18 57.29 130.44 57.99 129.68 58.68 C 133.28 61.46 137.28 63.51 141.11 65.93 C 145.30 68.74 149.43 71.77 153.15 75.18 C 153.22 77.18 153.41 79.18 153.64 81.18 L 153.39 82.55 C 151.39 85.18 149.31 87.36 145.98 88.14 C 147.21 85.45 148.52 82.81 149.84 80.17 C 146.09 77.68 143.01 76.66 138.48 76.66 C 137.30 78.76 136.25 80.93 135.35 83.17 C 135.42 79.79 135.89 76.47 136.46 73.15 C 136.80 70.71 137.15 68.10 136.79 65.65 C 134.03 64.20 130.58 63.74 128.01 61.99 C 125.91 60.30 124.23 58.02 122.45 56.00 C 115.78 55.05 110.05 51.88 103.10 51.96 C 99.48 58.25 99.26 67.10 104.60 72.53 C 103.59 74.68 102.79 76.96 102.00 79.21 C 103.83 78.76 105.97 78.53 107.61 77.56 C 109.72 76.01 111.40 73.77 113.18 71.85 L 113.62 71.37 C 116.02 73.21 118.50 74.93 121.03 76.59 C 123.77 74.55 126.90 71.81 130.29 71.08 C 132.12 71.20 133.94 72.20 135.64 72.83 C 134.55 73.30 133.47 73.78 132.39 74.28 C 132.55 77.65 133.01 81.34 132.28 84.65 C 131.38 87.73 128.60 88.85 125.65 88.88 C 119.38 88.57 114.36 91.11 108.76 93.45 C 107.83 93.74 106.89 94.04 105.95 94.33 C 104.29 92.93 102.65 91.51 101.01 90.09 C 102.52 89.31 104.06 88.54 105.53 87.68 C 108.00 88.16 110.99 89.12 113.49 88.52 C 116.42 87.55 119.07 85.33 121.44 83.41 C 124.01 81.44 125.24 79.19 126.31 76.20 C 122.69 77.59 119.31 79.48 115.77 81.05 C 114.45 81.55 113.11 82.01 111.79 82.52 C 112.65 80.63 113.37 78.69 114.04 76.72 C 111.36 78.30 109.30 79.98 107.50 82.55 C 104.98 86.34 101.30 87.08 97.72 89.72 C 95.91 87.79 94.03 85.60 91.76 84.20 L 90.46 84.31 C 88.16 86.79 86.59 90.06 84.90 92.97 C 84.35 90.61 83.78 88.26 83.18 85.91 C 81.00 86.36 78.81 86.80 76.62 87.23 C 74.76 83.79 72.45 79.88 71.95 75.96 C 71.59 72.56 71.87 69.07 71.90 65.66 C 71.04 66.53 70.18 67.39 69.33 68.26 C 68.75 66.39 68.03 64.59 67.40 62.73 C 67.19 61.49 66.97 60.27 66.72 59.04 C 68.57 61.86 70.87 63.15 73.91 64.36 C 73.60 68.92 73.75 73.19 74.94 77.62 C 76.00 76.98 77.07 76.33 78.13 75.68 C 77.98 74.61 77.82 73.55 77.70 72.48 C 79.62 73.01 81.54 73.48 83.51 73.76 C 85.20 72.86 87.10 71.93 88.43 70.54 C 89.79 68.55 90.41 65.98 91.21 63.73 C 91.77 63.69 92.32 63.66 92.88 63.62 C 92.34 67.13 92.18 70.66 92.12 74.21 C 94.16 71.92 96.45 69.51 97.57 66.62 C 98.56 63.98 98.93 60.97 99.51 58.21 C 100.29 55.33 101.11 52.47 101.74 49.55 C 98.15 51.59 96.27 54.11 94.69 57.87 C 94.21 58.95 93.74 60.03 93.32 61.14 C 93.02 56.85 90.83 53.86 88.66 50.38 C 87.78 49.12 88.37 47.57 88.53 46.18 C 89.22 44.26 89.99 42.36 90.73 40.45 Z" fill="#cba148" />
<path d="M 126.25 41.68 C 128.63 41.99 130.98 42.47 133.28 43.14 C 131.90 43.34 130.53 43.57 129.17 43.84 C 131.65 47.37 135.06 49.82 137.93 52.97 C 138.48 53.67 139.02 54.39 139.55 55.11 C 141.12 55.33 142.70 55.53 144.28 55.74 C 145.84 58.18 147.43 60.61 149.11 62.97 C 149.01 62.05 148.89 61.13 148.76 60.21 C 150.34 63.73 151.71 67.28 153.84 70.52 C 154.00 68.66 154.15 66.80 154.16 64.93 C 154.96 68.32 155.34 71.67 155.74 75.11 C 154.88 75.13 154.02 75.15 153.15 75.18 C 149.43 71.77 145.30 68.74 141.11 65.93 C 137.28 63.51 133.28 61.46 129.68 58.68 C 130.44 57.99 131.18 57.29 131.93 56.59 C 134.72 54.21 130.44 50.44 128.56 48.95 C 127.72 48.89 126.88 48.86 126.04 48.84 C 123.27 48.13 120.59 47.59 117.73 48.23 C 120.82 46.34 123.54 44.07 126.25 41.68 Z" fill="#d6b876" />
<path d="M 129.17 43.84 C 130.53 43.57 131.90 43.34 133.28 43.14 C 137.88 44.34 141.85 47.99 144.33 51.96 C 142.19 52.29 140.06 52.62 137.93 52.97 C 135.06 49.82 131.65 47.37 129.17 43.84 Z" fill="#fbf6f1" />
<path d="M 64.12 46.11 C 63.14 47.61 62.15 49.10 61.15 50.59 C 57.56 52.71 53.78 54.55 50.00 56.30 C 49.68 54.13 49.38 51.97 48.95 49.81 C 51.14 48.55 53.45 47.56 55.78 46.57 C 58.55 46.36 61.34 46.26 64.12 46.11 Z" fill="#24243d" />
<path d="M 84.08 46.70 C 82.40 51.13 83.05 55.17 83.49 59.72 C 82.71 61.46 81.84 63.16 81.00 64.87 C 80.07 63.18 79.12 61.49 78.16 59.81 C 78.64 55.35 79.86 51.18 81.62 47.07 C 82.44 46.95 83.26 46.82 84.08 46.70 Z" fill="#5574bc" />
<path d="M 88.53 46.18 C 88.37 47.57 87.78 49.12 88.66 50.38 C 90.83 53.86 93.02 56.85 93.32 61.14 C 93.16 61.96 93.02 62.79 92.88 63.62 C 92.32 63.66 91.77 63.69 91.21 63.73 C 90.41 65.98 89.79 68.55 88.43 70.54 C 87.10 71.93 85.20 72.86 83.51 73.76 C 83.91 69.05 83.94 64.42 83.49 59.72 C 83.05 55.17 82.40 51.13 84.08 46.70 C 85.56 46.51 87.04 46.32 88.53 46.18 Z" fill="#c69632" />
<path d="M 173.42 45.55 C 177.84 51.29 180.67 58.02 185.44 63.56 C 189.21 67.93 190.89 72.88 195.08 76.90 C 198.43 80.10 201.30 83.72 203.82 87.61 C 207.18 93.33 211.39 98.32 215.66 103.37 C 217.81 105.97 220.04 108.46 222.43 110.83 C 223.47 113.24 224.63 115.60 225.93 117.87 C 225.51 118.99 224.96 120.07 225.46 121.27 C 226.13 122.29 227.19 122.18 228.26 122.22 C 230.18 126.65 231.41 131.28 232.86 135.87 C 235.59 144.83 237.36 153.64 235.60 163.01 C 235.56 162.45 235.52 161.88 235.48 161.32 C 235.28 153.73 234.93 146.43 233.31 138.96 C 232.08 134.41 230.34 129.99 228.53 125.65 C 227.81 124.71 227.06 123.79 226.28 122.89 C 226.49 125.42 227.03 127.86 227.64 130.31 C 228.86 135.11 229.42 139.72 231.47 144.27 L 230.51 142.60 C 229.99 148.07 230.56 153.35 229.82 158.79 C 229.34 162.58 228.28 166.12 227.27 169.77 C 226.80 171.48 226.36 173.19 225.85 174.88 C 224.57 179.01 222.82 182.75 220.22 186.21 C 217.64 189.63 216.41 193.69 212.95 195.95 C 210.72 197.57 208.34 199.00 205.84 200.17 C 203.06 200.21 200.69 199.22 198.22 198.13 C 198.58 195.22 197.95 192.60 197.17 189.82 C 199.25 188.36 201.44 187.05 203.54 185.61 C 203.49 184.76 203.41 183.90 203.31 183.05 C 203.98 182.49 204.65 181.94 205.32 181.39 C 206.43 181.35 207.61 181.34 208.70 181.13 C 209.92 179.21 210.27 176.68 210.91 174.52 C 211.68 171.87 212.91 169.49 214.14 167.03 C 216.42 162.44 219.13 157.58 219.83 152.46 C 220.65 146.97 221.19 141.28 221.33 135.73 C 220.95 131.42 219.69 127.55 218.85 123.29 C 218.15 120.07 217.08 117.03 215.16 114.33 C 213.05 111.23 211.38 107.89 209.18 104.85 C 208.59 104.08 207.98 103.33 207.35 102.60 C 203.64 98.55 200.36 94.13 196.90 89.88 C 194.88 87.12 192.57 84.65 190.46 81.98 C 187.40 77.64 184.20 73.40 181.12 69.07 C 175.98 61.85 175.19 53.95 173.42 45.55 Z" fill="#20223e" />
<path d="M 128.56 48.95 C 130.44 50.44 134.72 54.21 131.93 56.59 C 128.15 56.91 126.74 55.99 124.12 53.44 C 124.76 51.91 125.42 50.38 126.04 48.84 C 126.88 48.86 127.72 48.89 128.56 48.95 Z" fill="#a88f4e" />
<path d="M 48.95 49.81 C 49.38 51.97 49.68 54.13 50.00 56.30 C 49.75 56.72 49.50 57.13 49.25 57.54 C 44.94 60.24 42.78 63.20 40.50 67.65 L 39.82 68.07 C 38.77 67.11 37.70 66.17 36.64 65.24 C 37.04 58.70 43.84 53.12 48.95 49.81 Z" fill="#7e7e89" />
<path d="M 101.74 49.55 C 101.11 52.47 100.29 55.33 99.51 58.21 C 98.02 59.60 96.45 60.89 94.86 62.17 C 94.78 60.74 94.72 59.30 94.69 57.87 C 96.27 54.11 98.15 51.59 101.74 49.55 Z" fill="#4772c9" />
<path d="M 61.15 50.59 C 60.61 53.67 60.40 56.84 60.12 59.95 C 61.49 58.03 62.85 56.12 64.15 54.15 C 62.53 58.95 62.07 63.56 62.57 68.60 C 63.48 73.85 66.37 77.62 70.20 81.13 C 69.78 86.40 64.74 89.35 63.77 94.72 C 63.40 96.82 63.24 99.00 62.99 101.12 L 62.89 102.95 C 62.76 103.89 62.59 104.84 62.41 105.78 L 61.80 106.31 C 61.13 106.90 60.47 107.49 59.81 108.07 C 60.72 108.31 61.64 108.54 62.56 108.77 C 62.73 110.57 62.89 112.38 63.07 114.19 C 63.65 114.10 64.24 114.02 64.82 113.93 C 65.06 116.99 65.33 120.03 65.43 123.09 C 65.48 126.31 65.46 129.36 66.89 132.33 C 63.46 134.67 60.20 136.90 55.93 135.00 C 47.19 130.82 42.55 119.58 43.31 110.32 C 43.70 109.11 44.14 107.93 44.56 106.73 C 43.62 106.45 42.67 106.17 41.72 105.89 C 41.63 103.77 42.19 100.83 40.61 99.19 C 39.10 99.00 37.27 98.90 36.03 99.94 C 34.91 101.69 34.85 104.20 34.43 106.20 C 34.00 105.76 33.57 105.33 33.14 104.90 C 34.46 100.75 33.95 96.82 33.97 92.60 C 35.09 90.67 36.87 89.07 38.32 87.38 C 39.11 86.49 39.87 85.58 40.64 84.66 C 37.25 83.40 34.44 82.88 30.92 84.10 C 29.89 78.87 33.12 76.19 36.24 72.62 C 36.86 77.20 37.86 79.92 41.74 82.65 C 40.65 77.70 39.01 73.24 39.82 68.07 L 40.50 67.65 C 41.88 66.88 43.28 66.18 44.63 65.36 C 46.42 66.27 48.23 67.14 50.04 68.01 C 51.54 65.43 52.25 63.45 52.24 60.45 C 50.83 60.55 49.41 60.66 48.00 60.77 C 48.44 59.70 48.84 58.62 49.25 57.54 C 49.50 57.13 49.75 56.72 50.00 56.30 C 53.78 54.55 57.56 52.71 61.15 50.59 Z" fill="#cda24b" />
<path d="M 103.10 51.96 C 110.05 51.88 115.78 55.05 122.45 56.00 C 124.23 58.02 125.91 60.30 128.01 61.99 C 130.58 63.74 134.03 64.20 136.79 65.65 C 137.15 68.10 136.80 70.71 136.46 73.15 L 135.64 72.83 C 133.94 72.20 132.12 71.20 130.29 71.08 C 126.90 71.81 123.77 74.55 121.03 76.59 C 118.50 74.93 116.02 73.21 113.62 71.37 C 116.43 68.48 118.88 65.45 120.88 61.93 C 115.71 64.24 111.09 67.06 106.75 70.70 C 106.02 71.28 105.30 71.89 104.60 72.53 C 99.26 67.10 99.48 58.25 103.10 51.96 Z" fill="#c79633" />
<path d="M 144.33 51.96 C 145.95 54.61 147.46 57.39 148.76 60.21 C 148.89 61.13 149.01 62.05 149.11 62.97 C 147.43 60.61 145.84 58.18 144.28 55.74 C 142.70 55.53 141.12 55.33 139.55 55.11 C 139.02 54.39 138.48 53.67 137.93 52.97 C 140.06 52.62 142.19 52.29 144.33 51.96 Z" fill="#d5c4a3" />
<path d="M 65.05 52.74 C 65.67 54.83 66.22 56.93 66.72 59.04 C 66.97 60.27 67.19 61.49 67.40 62.73 C 66.80 64.58 66.17 66.43 65.55 68.28 C 64.56 68.38 63.56 68.49 62.57 68.60 C 62.07 63.56 62.53 58.95 64.15 54.15 L 65.05 52.74 Z" fill="#6a7a9a" />
<path d="M 160.62 53.68 C 161.18 57.25 161.15 60.07 159.80 63.49 C 158.90 61.75 158.05 59.99 157.28 58.19 C 158.40 56.69 159.50 55.18 160.62 53.68 Z" fill="#b7b786" />
<path d="M 49.25 57.54 C 48.84 58.62 48.44 59.70 48.00 60.77 C 47.01 62.39 45.88 63.93 44.63 65.36 C 43.28 66.18 41.88 66.88 40.50 67.65 C 42.78 63.20 44.94 60.24 49.25 57.54 Z" fill="#d4c29f" />
<path d="M 94.69 57.87 C 94.72 59.30 94.78 60.74 94.86 62.17 C 96.45 60.89 98.02 59.60 99.51 58.21 C 98.93 60.97 98.56 63.98 97.57 66.62 C 96.45 69.51 94.16 71.92 92.12 74.21 C 92.18 70.66 92.34 67.13 92.88 63.62 C 93.02 62.79 93.16 61.96 93.32 61.14 C 93.74 60.03 94.21 58.95 94.69 57.87 Z" fill="#8f8e49" />
<path d="M 52.24 60.45 C 52.25 63.45 51.54 65.43 50.04 68.01 C 48.23 67.14 46.42 66.27 44.63 65.36 C 45.88 63.93 47.01 62.39 48.00 60.77 C 49.41 60.66 50.83 60.55 52.24 60.45 Z" fill="#947931" />
<path d="M 78.16 59.81 C 79.12 61.49 80.07 63.18 81.00 64.87 C 81.84 63.16 82.71 61.46 83.49 59.72 C 83.94 64.42 83.91 69.05 83.51 73.76 C 81.54 73.48 79.62 73.01 77.70 72.48 C 77.26 68.24 77.58 64.02 78.16 59.81 Z" fill="#8e8f46" />
<path d="M 120.88 61.93 C 118.88 65.45 116.43 68.48 113.62 71.37 L 113.18 71.85 C 111.04 71.45 108.90 71.03 106.75 70.70 C 111.09 67.06 115.71 64.24 120.88 61.93 Z" fill="#5575b8" />
<path d="M 169.59 61.90 C 169.09 64.04 168.24 66.39 168.39 68.60 C 169.21 71.09 171.75 73.13 173.52 74.98 C 174.13 74.53 174.75 74.08 175.36 73.62 C 173.82 75.63 172.14 77.10 170.03 78.49 C 167.96 75.86 166.16 73.02 164.19 70.31 C 164.41 68.70 164.63 67.13 164.72 65.51 L 165.52 64.89 C 166.87 63.88 168.24 62.90 169.59 61.90 Z" fill="#bfb961" />
<path d="M 67.40 62.73 C 68.03 64.59 68.75 66.39 69.33 68.26 C 69.65 72.55 69.78 76.85 70.20 81.13 C 66.37 77.62 63.48 73.85 62.57 68.60 C 63.56 68.49 64.56 68.38 65.55 68.28 C 66.17 66.43 66.80 64.58 67.40 62.73 Z" fill="#8c8a4b" />
<path d="M 36.64 65.24 C 37.70 66.17 38.77 67.11 39.82 68.07 C 39.01 73.24 40.65 77.70 41.74 82.65 C 37.86 79.92 36.86 77.20 36.24 72.62 C 36.32 70.16 36.44 67.69 36.64 65.24 Z" fill="#191325" />
<path d="M 71.90 65.66 C 71.87 69.07 71.59 72.56 71.95 75.96 C 72.45 79.88 74.76 83.79 76.62 87.23 C 75.93 94.21 76.01 100.64 74.31 107.40 C 71.35 102.65 67.04 99.22 63.77 94.72 C 64.74 89.35 69.78 86.40 70.20 81.13 C 69.78 76.85 69.65 72.55 69.33 68.26 C 70.18 67.39 71.04 66.53 71.90 65.66 Z" fill="#1d2037" />
<path d="M 174.01 65.56 C 175.17 66.91 176.23 68.33 177.26 69.78 C 178.55 69.55 179.84 69.31 181.12 69.07 C 184.20 73.40 187.40 77.64 190.46 81.98 C 188.44 82.09 186.43 82.16 184.42 82.32 C 184.51 83.05 184.62 83.77 184.74 84.49 C 189.18 86.08 191.87 89.75 196.09 91.75 C 194.87 92.84 193.92 94.00 192.11 93.81 C 189.17 93.55 186.20 91.66 183.64 90.25 C 183.57 91.15 183.49 92.05 183.41 92.95 C 179.08 88.00 174.50 83.31 170.03 78.49 C 172.14 77.10 173.82 75.63 175.36 73.62 C 174.13 70.81 173.21 68.66 174.01 65.56 Z" fill="#c2c49b" />
<path d="M 106.75 70.70 C 108.90 71.03 111.04 71.45 113.18 71.85 C 111.40 73.77 109.72 76.01 107.61 77.56 C 105.97 78.53 103.83 78.76 102.00 79.21 C 102.79 76.96 103.59 74.68 104.60 72.53 C 105.30 71.89 106.02 71.28 106.75 70.70 Z" fill="#8c8946" />
<path d="M 53.57 73.10 C 58.88 76.87 62.39 81.86 66.10 87.09 C 63.33 86.06 59.99 85.38 58.22 82.80 C 56.19 79.93 54.52 76.49 53.57 73.10 Z" fill="#1e1a2d" />
<path d="M 135.64 72.83 L 136.46 73.15 C 135.89 76.47 135.42 79.79 135.35 83.17 C 135.34 84.50 135.45 85.61 136.54 86.50 C 139.09 89.01 142.75 88.44 145.98 88.14 C 149.31 87.36 151.39 85.18 153.39 82.55 L 153.16 84.05 L 152.59 85.53 C 151.24 89.19 148.63 93.89 144.62 95.04 C 141.44 95.04 138.59 93.98 135.35 94.51 C 130.19 95.42 125.15 94.84 119.95 95.02 C 120.66 95.70 121.37 96.38 122.08 97.05 L 120.20 97.24 C 118.15 97.39 115.97 97.64 113.93 97.32 C 112.63 96.87 111.55 95.72 110.49 94.89 C 116.25 93.98 121.36 93.25 125.65 88.88 C 128.60 88.85 131.38 87.73 132.28 84.65 C 133.01 81.34 132.55 77.65 132.39 74.28 C 133.47 73.78 134.55 73.30 135.64 72.83 Z" fill="#d7b36c" />
<path d="M 153.15 75.18 C 154.02 75.15 154.88 75.13 155.74 75.11 C 156.11 77.07 156.55 79.01 156.99 80.95 C 155.88 81.03 154.76 81.10 153.64 81.18 C 153.41 79.18 153.22 77.18 153.15 75.18 Z" fill="#2c211e" />
<path d="M 155.74 75.11 C 157.97 76.47 160.62 77.87 162.23 79.95 C 163.10 81.68 163.19 83.92 163.30 85.82 C 162.35 85.45 161.41 85.08 160.46 84.70 C 160.39 85.36 160.32 86.01 160.25 86.66 C 158.74 86.13 157.23 85.64 155.69 85.22 C 157.30 87.62 159.43 89.47 161.68 91.24 C 159.42 91.46 157.20 91.85 154.97 92.33 C 157.97 96.08 160.49 99.91 162.21 104.43 C 160.56 104.69 158.91 104.95 157.27 105.27 C 156.99 106.83 156.78 108.41 156.62 109.99 C 156.50 110.88 156.36 111.78 156.21 112.67 C 154.61 110.99 152.98 109.36 151.16 107.92 C 148.02 110.35 146.89 112.52 146.03 116.30 C 148.31 116.19 150.57 116.07 152.83 115.76 C 151.95 116.52 151.09 117.31 150.27 118.13 C 148.84 120.06 147.64 122.30 145.97 124.02 C 144.21 125.68 142.01 126.97 139.95 128.22 C 143.09 127.83 146.34 127.05 149.21 128.85 C 151.65 130.43 152.95 133.92 154.33 136.39 C 154.05 136.99 153.76 137.60 153.48 138.21 C 150.64 138.42 147.84 138.98 145.01 139.24 C 142.98 138.93 141.01 138.10 139.01 137.60 C 138.76 139.46 138.42 141.37 138.43 143.24 C 138.60 145.49 139.60 147.64 139.84 149.89 C 138.83 153.68 135.48 157.05 132.48 159.42 C 133.23 157.77 134.56 155.57 134.23 153.70 C 133.52 152.29 131.53 151.41 130.29 150.45 C 130.82 148.07 131.79 145.01 131.04 142.62 C 129.72 140.43 126.93 138.43 124.33 138.21 C 122.26 138.32 120.22 140.33 118.60 141.49 C 117.66 142.25 116.74 143.03 115.81 143.80 C 111.91 140.99 108.41 139.85 103.66 139.17 C 101.10 135.86 99.30 133.90 94.86 133.45 C 95.92 131.68 96.78 129.83 97.66 127.97 C 100.47 128.98 103.87 130.54 106.88 130.01 C 110.45 129.37 113.90 127.79 116.97 125.88 C 120.66 123.74 122.65 119.13 122.62 115.00 C 122.17 112.69 120.48 110.52 119.24 108.54 C 120.22 108.20 121.19 107.85 122.16 107.49 C 119.81 106.81 117.45 106.24 115.05 105.79 C 112.87 105.09 111.61 104.16 110.16 102.42 C 113.08 102.29 116.07 102.48 118.98 102.11 C 122.56 101.56 125.57 99.45 128.50 97.45 C 126.36 97.27 124.23 97.09 122.08 97.05 C 121.37 96.38 120.66 95.70 119.95 95.02 C 125.15 94.84 130.19 95.42 135.35 94.51 C 138.59 93.98 141.44 95.04 144.62 95.04 C 148.63 93.89 151.24 89.19 152.59 85.53 C 152.46 86.34 153.06 89.46 154.29 87.87 C 154.69 86.48 153.76 85.23 153.16 84.05 L 153.39 82.55 L 153.64 81.18 C 154.76 81.10 155.88 81.03 156.99 80.95 C 156.55 79.01 156.11 77.07 155.74 75.11 Z" fill="#dcc28a" />
<path d="M 126.31 76.20 C 125.24 79.19 124.01 81.44 121.44 83.41 C 119.47 83.41 117.49 83.43 115.52 83.47 C 115.61 82.66 115.69 81.86 115.77 81.05 C 119.31 79.48 122.69 77.59 126.31 76.20 Z" fill="#5673b0" />
<path d="M 138.48 76.66 C 143.01 76.66 146.09 77.68 149.84 80.17 C 148.52 82.81 147.21 85.45 145.98 88.14 C 142.75 88.44 139.09 89.01 136.54 86.50 C 135.45 85.61 135.34 84.50 135.35 83.17 C 136.25 80.93 137.30 78.76 138.48 76.66 Z" fill="#937a37" />
<path d="M 114.04 76.72 C 113.37 78.69 112.65 80.63 111.79 82.52 C 109.67 84.20 107.65 86.01 105.53 87.68 C 104.06 88.54 102.52 89.31 101.01 90.09 C 102.65 91.51 104.29 92.93 105.95 94.33 C 105.56 97.87 106.37 101.81 103.32 104.32 C 100.35 107.33 96.04 106.67 92.31 107.93 C 91.40 108.64 90.79 109.80 90.21 110.78 C 90.15 113.73 90.33 116.46 89.10 119.24 C 88.79 118.32 88.49 117.38 88.20 116.45 C 85.68 115.95 83.28 115.23 80.93 114.19 C 83.45 112.97 86.01 112.00 87.88 109.83 C 90.12 107.34 90.82 104.13 92.27 101.19 C 93.90 97.63 97.04 94.79 99.61 91.78 C 98.98 91.09 98.35 90.41 97.72 89.72 C 101.30 87.08 104.98 86.34 107.50 82.55 C 109.30 79.98 111.36 78.30 114.04 76.72 Z" fill="#1e2039" />
<path d="M 50.57 80.95 C 54.97 84.78 59.93 87.00 62.60 91.90 C 60.12 91.61 57.06 91.48 54.87 90.17 C 53.04 87.35 51.99 84.00 50.57 80.95 Z" fill="#171a2d" />
<path d="M 115.77 81.05 C 115.69 81.86 115.61 82.66 115.52 83.47 C 117.49 83.43 119.47 83.41 121.44 83.41 C 119.07 85.33 116.42 87.55 113.49 88.52 C 110.99 89.12 108.00 88.16 105.53 87.68 C 107.65 86.01 109.67 84.20 111.79 82.52 C 113.11 82.01 114.45 81.55 115.77 81.05 Z" fill="#8c8945" />
<path d="M 184.42 82.32 C 186.43 82.16 188.44 82.09 190.46 81.98 C 192.57 84.65 194.88 87.12 196.90 89.88 L 196.09 91.75 C 191.87 89.75 189.18 86.08 184.74 84.49 C 184.62 83.77 184.51 83.05 184.42 82.32 Z" fill="#8a8c58" />
<path d="M 30.92 84.10 C 34.44 82.88 37.25 83.40 40.64 84.66 C 39.87 85.58 39.11 86.49 38.32 87.38 C 35.47 88.45 32.73 89.63 30.32 91.53 C 27.26 94.07 25.38 97.33 24.27 101.11 C 22.54 109.50 23.36 118.04 25.80 126.20 C 27.32 130.50 29.93 133.87 32.46 137.57 C 26.41 132.46 22.91 124.04 21.72 116.35 C 20.69 109.87 19.25 102.68 21.26 96.26 C 22.56 91.36 27.45 87.62 30.92 84.10 Z" fill="#1f1d39" />
<path d="M 90.46 84.31 L 91.76 84.20 C 94.03 85.60 95.91 87.79 97.72 89.72 C 98.35 90.41 98.98 91.09 99.61 91.78 C 97.04 94.79 93.90 97.63 92.27 101.19 C 90.82 104.13 90.12 107.34 87.88 109.83 C 86.01 112.00 83.45 112.97 80.93 114.19 C 80.01 113.75 79.11 113.28 78.23 112.79 C 76.98 111.25 75.88 109.61 74.73 108.00 L 74.31 107.40 C 76.01 100.64 75.93 94.21 76.62 87.23 C 78.81 86.80 81.00 86.36 83.18 85.91 C 83.78 88.26 84.35 90.61 84.90 92.97 C 86.59 90.06 88.16 86.79 90.46 84.31 Z" fill="#8b8e48" />
<path d="M 153.16 84.05 C 153.76 85.23 154.69 86.48 154.29 87.87 C 153.06 89.46 152.46 86.34 152.59 85.53 L 153.16 84.05 Z" fill="#7a6542" />
<path d="M 155.69 85.22 C 157.23 85.64 158.74 86.13 160.25 86.66 C 160.32 86.01 160.39 85.36 160.46 84.70 C 161.41 85.08 162.35 85.45 163.30 85.82 C 163.44 87.99 163.20 90.53 163.98 92.58 C 165.14 94.46 167.73 95.52 167.58 98.02 C 167.49 101.50 168.30 104.69 168.88 108.08 C 168.80 114.17 167.26 119.73 164.87 125.30 L 163.53 123.21 C 163.66 117.27 164.70 109.98 162.21 104.43 C 160.49 99.91 157.97 96.08 154.97 92.33 C 157.20 91.85 159.42 91.46 161.68 91.24 C 159.43 89.47 157.30 87.62 155.69 85.22 Z" fill="#201f3b" />
<path d="M 206.40 88.01 C 210.76 92.01 215.09 96.76 218.62 101.50 C 217.64 102.13 216.65 102.75 215.66 103.37 C 211.39 98.32 207.18 93.33 203.82 87.61 C 204.69 87.72 205.54 87.86 206.40 88.01 Z" fill="#858850" />
<path d="M 38.32 87.38 C 36.87 89.07 35.09 90.67 33.97 92.60 C 33.95 96.82 34.46 100.75 33.14 104.90 C 32.01 103.81 30.86 102.75 29.71 101.68 C 30.17 98.31 30.50 94.94 30.32 91.53 C 32.73 89.63 35.47 88.45 38.32 87.38 Z" fill="#d0af67" />
<path d="M 125.65 88.88 C 121.36 93.25 116.25 93.98 110.49 94.89 C 109.92 94.40 109.34 93.92 108.76 93.45 C 114.36 91.11 119.38 88.57 125.65 88.88 Z" fill="#1c1b27" />
<path d="M 69.21 90.13 C 70.74 90.05 72.30 90.11 73.84 90.14 C 74.18 92.01 74.51 93.88 74.83 95.76 C 73.15 96.21 71.18 97.66 69.56 96.56 C 66.92 95.55 67.91 91.87 69.21 90.13 Z" fill="#6282d3" />
<path d="M 30.32 91.53 C 30.50 94.94 30.17 98.31 29.71 101.68 C 30.86 102.75 32.01 103.81 33.14 104.90 C 33.57 105.33 34.00 105.76 34.43 106.20 C 35.14 106.94 35.84 107.68 36.54 108.42 C 38.26 107.57 39.99 106.73 41.72 105.89 C 42.67 106.17 43.62 106.45 44.56 106.73 C 44.14 107.93 43.70 109.11 43.31 110.32 C 42.13 113.96 40.85 117.55 39.39 121.09 C 36.68 119.96 33.95 118.86 31.20 117.83 C 31.90 121.06 32.32 124.65 33.76 127.65 C 35.36 129.69 37.82 131.06 39.66 132.90 C 38.65 134.28 37.70 135.69 36.84 137.17 C 35.34 133.30 32.14 131.48 29.70 128.42 C 28.07 123.50 27.40 118.30 25.75 113.35 C 24.15 108.10 29.14 104.26 25.58 99.73 L 24.27 101.11 C 25.38 97.33 27.26 94.07 30.32 91.53 Z" fill="#e5d2ad" />
<path d="M 108.76 93.45 C 109.34 93.92 109.92 94.40 110.49 94.89 C 111.55 95.72 112.63 96.87 113.93 97.32 C 115.97 97.64 118.15 97.39 120.20 97.24 C 116.24 98.10 112.56 99.52 108.75 100.86 C 109.21 101.38 109.68 101.91 110.16 102.42 C 111.61 104.16 112.87 105.09 115.05 105.79 C 112.37 105.51 109.68 105.35 107.00 105.26 C 107.61 106.01 108.23 106.76 108.86 107.51 C 108.07 107.96 107.31 108.44 106.56 108.94 C 104.33 110.53 101.74 112.39 100.36 114.80 C 100.69 116.58 101.63 118.32 102.35 119.97 C 100.41 122.41 98.96 125.14 97.66 127.97 C 96.78 129.83 95.92 131.68 94.86 133.45 C 92.27 135.66 89.73 137.93 87.28 140.30 C 84.06 139.75 80.68 139.34 77.55 138.39 C 73.65 137.19 70.11 134.79 66.89 132.33 C 65.46 129.36 65.48 126.31 65.43 123.09 C 66.03 125.22 66.37 127.40 68.31 128.73 C 72.57 131.64 77.32 131.92 82.29 131.41 C 83.01 131.52 83.72 131.64 84.43 131.76 C 85.74 132.06 87.03 132.43 88.33 132.78 C 90.75 130.30 91.99 128.20 93.08 124.89 C 93.83 123.16 94.58 121.43 95.45 119.75 C 96.55 118.12 97.74 116.54 98.95 114.98 C 100.64 113.29 97.78 112.24 98.14 114.61 C 97.04 114.11 95.95 113.61 94.87 113.10 C 97.30 112.25 99.73 111.37 102.15 110.46 C 98.17 110.47 94.19 110.63 90.21 110.78 C 90.79 109.80 91.40 108.64 92.31 107.93 C 96.04 106.67 100.35 107.33 103.32 104.32 C 106.37 101.81 105.56 97.87 105.95 94.33 C 106.89 94.04 107.83 93.74 108.76 93.45 Z" fill="#8c8d48" />
<path d="M 60.53 95.33 C 57.43 96.68 54.45 96.48 51.17 95.96 C 54.39 94.40 57.13 94.65 60.53 95.33 Z" fill="#2d1902" />
<path d="M 63.77 94.72 C 67.04 99.22 71.35 102.65 74.31 107.40 L 74.73 108.00 C 73.37 108.76 72.04 109.56 70.70 110.35 C 70.90 112.18 71.08 114.02 71.16 115.86 C 71.20 117.95 71.18 120.04 71.32 122.13 C 70.71 122.72 70.10 123.31 69.50 123.90 C 68.92 121.94 68.34 119.97 67.68 118.04 C 66.91 119.71 66.16 121.40 65.43 123.09 C 65.33 120.03 65.06 116.99 64.82 113.93 C 64.24 114.02 63.65 114.10 63.07 114.19 C 62.89 112.38 62.73 110.57 62.56 108.77 C 61.64 108.54 60.72 108.31 59.81 108.07 C 60.47 107.49 61.13 106.90 61.80 106.31 C 63.53 106.92 65.26 107.52 66.99 108.10 C 66.35 106.77 65.70 105.45 64.99 104.15 C 64.12 104.67 63.25 105.21 62.41 105.78 C 62.59 104.84 62.76 103.89 62.89 102.95 C 64.01 103.36 64.74 103.04 65.09 102.00 C 64.83 100.96 64.13 100.67 62.99 101.12 C 63.24 99.00 63.40 96.82 63.77 94.72 Z" fill="#c3a24f" />
<path d="M 99.16 95.94 C 100.51 97.80 101.71 99.76 102.84 101.77 C 101.49 102.72 100.14 103.67 98.79 104.62 C 97.39 103.10 96.00 101.58 94.70 99.97 C 96.10 98.53 97.60 97.21 99.16 95.94 Z" fill="#6180cf" />
<path d="M 120.20 97.24 L 122.08 97.05 C 124.23 97.09 126.36 97.27 128.50 97.45 C 125.57 99.45 122.56 101.56 118.98 102.11 C 116.07 102.48 113.08 102.29 110.16 102.42 C 109.68 101.91 109.21 101.38 108.75 100.86 C 112.56 99.52 116.24 98.10 120.20 97.24 Z" fill="#191b36" />
<path d="M 40.61 99.19 C 42.19 100.83 41.63 103.77 41.72 105.89 C 39.99 106.73 38.26 107.57 36.54 108.42 C 35.84 107.68 35.14 106.94 34.43 106.20 C 34.85 104.20 34.91 101.69 36.03 99.94 C 37.27 98.90 39.10 99.00 40.61 99.19 Z" fill="#847136" />
<path d="M 62.99 101.12 C 64.13 100.67 64.83 100.96 65.09 102.00 C 64.74 103.04 64.01 103.36 62.89 102.95 L 62.99 101.12 Z" fill="#5d3c0a" />
<path d="M 200.94 101.09 C 203.10 101.52 205.22 102.07 207.35 102.60 C 207.98 103.33 208.59 104.08 209.18 104.85 C 207.23 105.08 204.49 105.93 202.65 105.06 C 201.93 103.82 201.44 102.43 200.94 101.09 Z" fill="#dad09b" />
<path d="M 218.62 101.50 C 220.80 104.28 221.62 107.47 222.43 110.83 C 220.04 108.46 217.81 105.97 215.66 103.37 C 216.65 102.75 217.64 102.13 218.62 101.50 Z" fill="#b1b39b" />
<path d="M 64.99 104.15 C 65.70 105.45 66.35 106.77 66.99 108.10 C 65.26 107.52 63.53 106.92 61.80 106.31 L 62.41 105.78 C 63.25 105.21 64.12 104.67 64.99 104.15 Z" fill="#563c1e" />
<path d="M 107.00 105.26 C 109.68 105.35 112.37 105.51 115.05 105.79 C 117.45 106.24 119.81 106.81 122.16 107.49 C 121.19 107.85 120.22 108.20 119.24 108.54 C 115.81 107.92 112.35 107.54 108.86 107.51 C 108.23 106.76 107.61 106.01 107.00 105.26 Z" fill="#4e4630" />
<path d="M 157.27 105.27 C 158.91 104.95 160.56 104.69 162.21 104.43 C 164.70 109.98 163.66 117.27 163.53 123.21 L 164.87 125.30 C 164.39 126.61 163.96 127.93 163.42 129.21 C 161.40 128.64 159.38 128.78 157.85 130.32 C 156.42 132.15 155.38 134.32 154.33 136.39 C 152.95 133.92 151.65 130.43 149.21 128.85 C 146.34 127.05 143.09 127.83 139.95 128.22 C 142.01 126.97 144.21 125.68 145.97 124.02 C 147.64 122.30 148.84 120.06 150.27 118.13 C 152.29 118.48 154.30 118.83 156.31 119.19 C 156.57 116.12 156.58 113.06 156.62 109.99 C 156.78 108.41 156.99 106.83 157.27 105.27 Z" fill="#f3f2f1" />
<path d="M 108.86 107.51 C 112.35 107.54 115.81 107.92 119.24 108.54 C 120.48 110.52 122.17 112.69 122.62 115.00 C 122.65 119.13 120.66 123.74 116.97 125.88 C 113.90 127.79 110.45 129.37 106.88 130.01 C 103.87 130.54 100.47 128.98 97.66 127.97 C 98.96 125.14 100.41 122.41 102.35 119.97 C 104.07 118.16 106.27 116.42 107.52 114.25 C 108.42 112.65 107.14 110.49 106.56 108.94 C 107.31 108.44 108.07 107.96 108.86 107.51 Z" fill="#d7b878" />
<path d="M 74.73 108.00 C 75.88 109.61 76.98 111.25 78.23 112.79 C 77.07 113.29 75.90 113.79 74.73 114.29 C 73.53 114.80 72.34 115.33 71.16 115.86 C 71.08 114.02 70.90 112.18 70.70 110.35 C 72.04 109.56 73.37 108.76 74.73 108.00 Z" fill="#483f2c" />
<path d="M 151.16 107.92 C 152.98 109.36 154.61 110.99 156.21 112.67 C 155.15 113.76 154.01 114.79 152.83 115.76 C 150.57 116.07 148.31 116.19 146.03 116.30 C 146.89 112.52 148.02 110.35 151.16 107.92 Z" fill="#98854b" />
<path d="M 67.14 109.05 C 68.96 109.38 67.85 111.79 66.36 110.80 C 65.90 109.93 66.15 109.35 67.14 109.05 Z" fill="#6d541b" />
<path d="M 106.56 108.94 C 107.14 110.49 108.42 112.65 107.52 114.25 C 106.27 116.42 104.07 118.16 102.35 119.97 C 101.63 118.32 100.69 116.58 100.36 114.80 C 101.74 112.39 104.33 110.53 106.56 108.94 Z" fill="#c3a550" />
<path d="M 43.31 110.32 C 42.55 119.58 47.19 130.82 55.93 135.00 C 60.20 136.90 63.46 134.67 66.89 132.33 C 70.11 134.79 73.65 137.19 77.55 138.39 C 80.68 139.34 84.06 139.75 87.28 140.30 C 84.44 143.04 80.82 146.15 76.91 147.12 C 74.57 147.36 72.00 146.23 69.75 145.64 C 68.85 146.45 67.96 147.27 67.06 148.08 C 65.79 149.21 64.58 150.38 63.36 151.56 C 61.84 151.16 60.25 150.81 58.81 150.19 C 56.69 148.12 55.62 144.82 54.24 142.22 C 53.65 141.18 53.03 140.16 52.39 139.15 C 49.98 138.66 47.15 137.98 44.72 138.61 C 44.09 139.72 43.60 140.89 43.12 142.08 C 41.72 139.79 40.97 137.36 40.10 134.84 C 40.67 133.51 41.26 132.18 41.81 130.83 C 41.08 131.51 40.35 132.19 39.66 132.90 C 37.82 131.06 35.36 129.69 33.76 127.65 C 32.32 124.65 31.90 121.06 31.20 117.83 C 33.95 118.86 36.68 119.96 39.39 121.09 C 40.85 117.55 42.13 113.96 43.31 110.32 Z" fill="#dcc086" />
<path d="M 73.29 110.52 C 74.54 109.76 75.78 111.36 74.83 112.43 C 73.60 113.17 72.32 111.58 73.29 110.52 Z" fill="#98928c" />
<path d="M 102.15 110.46 C 99.73 111.37 97.30 112.25 94.87 113.10 C 95.95 113.61 97.04 114.11 98.14 114.61 L 98.95 114.98 C 97.74 116.54 96.55 118.12 95.45 119.75 C 91.67 119.59 88.07 120.53 84.35 120.83 C 80.28 120.80 77.09 117.21 74.73 114.29 C 75.90 113.79 77.07 113.29 78.23 112.79 C 79.11 113.28 80.01 113.75 80.93 114.19 C 83.28 115.23 85.68 115.95 88.20 116.45 C 88.49 117.38 88.79 118.32 89.10 119.24 C 90.33 116.46 90.15 113.73 90.21 110.78 C 94.19 110.63 98.17 110.47 102.15 110.46 Z" fill="#cda454" />
<path d="M 156.62 109.99 C 156.58 113.06 156.57 116.12 156.31 119.19 C 154.30 118.83 152.29 118.48 150.27 118.13 C 151.09 117.31 151.95 116.52 152.83 115.76 C 154.01 114.79 155.15 113.76 156.21 112.67 C 156.36 111.78 156.50 110.88 156.62 109.99 Z" fill="#e0d9cb" />
<path d="M 98.95 114.98 L 98.14 114.61 C 97.78 112.24 100.64 113.29 98.95 114.98 Z" fill="#3c370c" />
<path d="M 162.23 113.68 C 163.78 113.20 163.72 117.65 162.18 117.18 C 161.33 116.41 161.39 114.44 162.23 113.68 Z" fill="#79777e" />
<path d="M 74.73 114.29 C 77.09 117.21 80.28 120.80 84.35 120.83 C 88.07 120.53 91.67 119.59 95.45 119.75 C 94.58 121.43 93.83 123.16 93.08 124.89 C 91.83 126.26 90.54 127.59 89.27 128.94 C 88.53 127.87 87.80 126.81 87.07 125.74 C 86.18 127.75 85.31 129.76 84.43 131.76 C 83.72 131.64 83.01 131.52 82.29 131.41 C 78.88 130.45 75.24 129.78 72.02 128.29 C 71.50 126.30 71.50 124.16 71.32 122.13 C 71.18 120.04 71.20 117.95 71.16 115.86 C 72.34 115.33 73.53 114.80 74.73 114.29 Z" fill="#d3aa9f" />
<path d="M 211.51 114.40 C 212.18 114.36 212.85 114.33 213.52 114.31 C 213.75 116.28 213.93 118.24 213.90 120.22 C 213.77 122.34 213.56 124.51 213.57 126.63 C 213.68 132.61 214.09 138.58 214.22 144.56 C 214.21 146.62 214.15 148.69 214.12 150.75 C 213.25 150.71 212.37 150.68 211.49 150.64 C 212.42 145.36 213.26 140.23 212.33 134.89 C 211.88 131.24 210.01 127.07 210.79 123.45 C 211.53 120.30 211.85 117.64 211.51 114.40 Z" fill="#cdc9b3" />
<path d="M 215.16 114.33 C 217.08 117.03 218.15 120.07 218.85 123.29 C 217.20 122.27 215.57 121.22 213.90 120.22 C 213.93 118.24 213.75 116.28 213.52 114.31 C 214.07 114.31 214.61 114.32 215.16 114.33 Z" fill="#818556" />
<path d="M 67.68 118.04 C 68.34 119.97 68.92 121.94 69.50 123.90 C 70.10 123.31 70.71 122.72 71.32 122.13 C 71.50 124.16 71.50 126.30 72.02 128.29 C 75.24 129.78 78.88 130.45 82.29 131.41 C 77.32 131.92 72.57 131.64 68.31 128.73 C 66.37 127.40 66.03 125.22 65.43 123.09 C 66.16 121.40 66.91 119.71 67.68 118.04 Z" fill="#2c2734" />
<path d="M 225.93 117.87 C 226.83 119.26 227.68 120.66 228.26 122.22 C 227.19 122.18 226.13 122.29 225.46 121.27 C 224.96 120.07 225.51 118.99 225.93 117.87 Z" fill="#272730" />
<path d="M 99.93 119.63 C 98.29 122.86 96.84 124.52 93.76 126.46 C 94.32 124.90 94.80 123.14 95.71 121.74 C 96.98 120.84 98.52 120.26 99.93 119.63 Z" fill="#b5a478" />
<path d="M 213.90 120.22 C 215.57 121.22 217.20 122.27 218.85 123.29 C 219.69 127.55 220.95 131.42 221.33 135.73 C 220.00 137.06 218.68 138.40 217.36 139.73 C 217.07 138.44 216.78 137.14 216.47 135.85 C 215.78 132.68 214.66 129.68 213.57 126.63 C 213.56 124.51 213.77 122.34 213.90 120.22 Z" fill="#b7b872" />
<path d="M 137.79 122.36 C 141.03 123.15 139.03 126.81 139.08 129.13 C 137.10 128.71 135.12 128.27 133.15 127.80 C 133.26 126.29 133.36 124.78 133.51 123.28 C 134.89 122.87 136.35 122.46 137.79 122.36 Z" fill="#9c884b" />
<path d="M 226.28 122.89 C 227.06 123.79 227.81 124.71 228.53 125.65 C 230.34 129.99 232.08 134.41 233.31 138.96 C 234.93 146.43 235.28 153.73 235.48 161.32 C 234.78 161.42 234.08 161.52 233.38 161.61 C 233.37 156.05 233.81 149.43 231.47 144.27 C 229.42 139.72 228.86 135.11 227.64 130.31 C 227.03 127.86 226.49 125.42 226.28 122.89 Z" fill="#e8e8e2" />
<path d="M 93.08 124.89 C 91.99 128.20 90.75 130.30 88.33 132.78 C 87.03 132.43 85.74 132.06 84.43 131.76 C 85.31 129.76 86.18 127.75 87.07 125.74 C 87.80 126.81 88.53 127.87 89.27 128.94 C 90.54 127.59 91.83 126.26 93.08 124.89 Z" fill="#4b483a" />
<path d="M 124.98 126.23 C 126.43 127.09 127.83 128.03 129.24 128.97 C 127.88 129.33 126.52 129.67 125.16 130.02 C 125.08 128.76 125.02 127.49 124.98 126.23 Z" fill="#f5e8ce" />
<path d="M 213.57 126.63 C 214.66 129.68 215.78 132.68 216.47 135.85 C 216.61 139.38 215.99 141.56 214.22 144.56 C 214.09 138.58 213.68 132.61 213.57 126.63 Z" fill="#575647" />
<path d="M 163.42 129.21 C 160.12 136.82 152.75 140.78 146.75 146.15 C 147.30 148.52 147.79 150.91 148.31 153.29 C 149.23 152.93 150.15 152.56 151.07 152.19 C 152.48 151.61 153.89 151.04 155.33 150.51 C 153.15 152.22 150.83 153.71 148.58 155.32 C 148.18 159.89 147.40 164.55 143.80 167.77 C 139.74 171.46 135.35 175.31 130.51 177.94 C 122.66 181.42 114.44 181.95 105.97 182.19 C 99.41 182.31 93.44 180.35 86.99 179.29 C 91.39 183.07 95.69 186.59 99.21 191.25 C 93.16 189.19 88.13 185.67 83.53 181.30 C 78.47 180.75 72.07 181.95 66.76 180.09 C 62.12 178.53 57.64 177.37 53.64 174.39 C 48.50 171.16 44.30 167.21 40.55 162.45 C 37.29 158.76 34.81 153.97 34.36 149.03 C 34.86 145.18 35.67 140.87 36.84 137.17 C 37.70 135.69 38.65 134.28 39.66 132.90 C 40.35 132.19 41.08 131.51 41.81 130.83 C 41.26 132.18 40.67 133.51 40.10 134.84 C 37.47 140.38 38.53 145.69 39.27 151.52 C 40.08 155.97 42.67 160.14 45.11 163.89 C 47.46 167.39 50.82 169.31 54.38 171.37 C 59.43 174.90 65.44 179.56 71.99 178.35 C 77.11 177.81 80.82 174.15 84.68 171.13 C 86.17 172.18 87.63 173.24 89.16 174.22 C 92.96 176.53 96.96 176.62 101.24 176.82 C 101.32 175.87 101.40 174.92 101.48 173.97 C 109.25 172.19 116.93 169.32 123.84 165.34 C 126.78 163.50 129.81 161.64 132.48 159.42 C 135.48 157.05 138.83 153.68 139.84 149.89 C 139.60 147.64 138.60 145.49 138.43 143.24 C 138.42 141.37 138.76 139.46 139.01 137.60 C 141.01 138.10 142.98 138.93 145.01 139.24 C 147.84 138.98 150.64 138.42 153.48 138.21 C 153.76 137.60 154.05 136.99 154.33 136.39 C 155.38 134.32 156.42 132.15 157.85 130.32 C 159.38 128.78 161.40 128.64 163.42 129.21 Z" fill="#21223e" />
<path d="M 178.72 130.64 C 179.91 131.76 181.04 132.92 182.19 134.08 C 178.98 136.13 175.35 136.93 171.97 138.53 C 169.05 140.98 167.74 145.38 167.88 149.11 C 167.96 153.68 167.57 157.97 166.46 162.42 C 164.24 160.53 162.87 158.78 161.90 156.00 C 161.06 153.52 160.08 151.11 158.98 148.74 C 158.35 151.57 157.85 154.42 157.37 157.28 C 156.55 157.18 155.73 157.07 154.91 156.98 C 157.74 153.48 157.48 149.67 157.55 145.47 C 160.13 142.59 162.09 139.62 165.35 137.39 C 169.48 134.60 174.00 132.23 178.72 130.64 Z" fill="#b3b484" />
<path d="M 183.14 133.74 C 190.92 140.61 195.23 149.56 198.17 159.36 C 199.21 162.34 200.74 164.92 202.30 167.65 C 201.15 168.92 199.99 170.50 198.48 171.33 C 195.76 172.41 192.65 172.69 189.75 172.93 C 188.02 172.41 186.28 171.91 184.54 171.40 C 184.78 170.02 185.02 168.65 185.27 167.28 C 182.90 167.28 180.53 167.28 178.16 167.25 C 179.41 165.96 180.65 164.67 181.89 163.37 C 180.55 162.88 179.18 162.28 177.77 162.05 C 176.01 162.75 174.49 164.23 172.99 165.38 C 171.86 164.84 170.73 164.30 169.60 163.77 C 172.64 155.26 178.33 147.73 180.05 138.98 C 177.62 140.98 175.33 142.83 173.73 145.59 C 170.52 151.17 169.84 157.95 166.76 163.37 C 165.04 162.86 163.60 161.90 162.11 160.93 C 162.07 159.28 162.03 157.64 161.90 156.00 C 162.87 158.78 164.24 160.53 166.46 162.42 C 167.57 157.97 167.96 153.68 167.88 149.11 C 167.74 145.38 169.05 140.98 171.97 138.53 C 175.35 136.93 178.98 136.13 182.19 134.08 L 183.14 133.74 Z" fill="#a8aa71" />
<path d="M 94.86 133.45 C 99.30 133.90 101.10 135.86 103.66 139.17 C 108.41 139.85 111.91 140.99 115.81 143.80 C 116.74 143.03 117.66 142.25 118.60 141.49 C 118.32 142.62 118.04 143.74 117.75 144.86 C 117.20 145.88 116.62 146.88 116.00 147.86 C 111.22 146.11 106.18 145.46 101.37 143.89 C 97.99 143.14 98.39 137.77 97.58 135.10 C 94.94 138.67 92.40 142.05 88.37 144.16 C 84.93 145.97 82.28 148.65 79.20 150.93 C 77.87 150.34 76.63 149.55 75.37 148.83 C 72.63 148.24 69.86 148.06 67.06 148.08 C 67.96 147.27 68.85 146.45 69.75 145.64 C 72.00 146.23 74.57 147.36 76.91 147.12 C 80.82 146.15 84.44 143.04 87.28 140.30 C 89.73 137.93 92.27 135.66 94.86 133.45 Z" fill="#d0b573" />
<path d="M 40.10 134.84 C 40.97 137.36 41.72 139.79 43.12 142.08 C 44.33 143.13 45.57 144.14 46.75 145.22 C 47.50 146.02 48.22 146.84 48.93 147.68 C 48.15 151.45 47.77 155.29 47.83 159.14 C 47.11 154.17 43.00 153.69 39.27 151.52 C 38.53 145.69 37.47 140.38 40.10 134.84 Z" fill="#dfc99a" />
<path d="M 97.58 135.10 C 98.39 137.77 97.99 143.14 101.37 143.89 C 106.18 145.46 111.22 146.11 116.00 147.86 C 114.63 148.00 113.25 148.06 111.88 148.05 C 108.44 147.74 105.03 147.23 101.60 146.85 C 97.48 146.41 93.15 145.82 89.11 147.02 C 85.41 148.06 82.24 150.75 79.22 153.04 C 80.06 155.30 81.51 158.02 81.18 160.47 C 80.82 163.68 80.14 166.84 79.81 170.06 C 83.52 170.17 86.86 170.46 89.94 172.74 L 89.16 174.22 C 87.63 173.24 86.17 172.18 84.68 171.13 C 80.82 174.15 77.11 177.81 71.99 178.35 C 65.44 179.56 59.43 174.90 54.38 171.37 C 51.65 167.43 48.84 163.98 47.83 159.14 C 47.77 155.29 48.15 151.45 48.93 147.68 C 50.30 147.24 51.83 146.83 53.04 146.04 C 53.54 144.79 53.89 143.52 54.24 142.22 C 55.62 144.82 56.69 148.12 58.81 150.19 C 60.25 150.81 61.84 151.16 63.36 151.56 C 64.38 154.22 65.02 158.64 67.87 159.96 C 70.18 161.05 73.04 160.91 74.49 158.52 C 76.79 155.40 76.13 152.34 75.37 148.83 C 76.63 149.55 77.87 150.34 79.20 150.93 C 82.28 148.65 84.93 145.97 88.37 144.16 C 92.40 142.05 94.94 138.67 97.58 135.10 Z" fill="#cb9f45" />
<path d="M 216.47 135.85 C 216.78 137.14 217.07 138.44 217.36 139.73 C 218.68 138.40 220.00 137.06 221.33 135.73 C 221.19 141.28 220.65 146.97 219.83 152.46 C 219.13 157.58 216.42 162.44 214.14 167.03 C 214.46 164.32 215.05 161.94 213.38 159.54 C 212.32 158.50 211.20 157.52 210.05 156.57 C 210.60 154.61 211.08 152.63 211.49 150.64 C 212.37 150.68 213.25 150.71 214.12 150.75 C 214.15 148.69 214.21 146.62 214.22 144.56 C 215.99 141.56 216.61 139.38 216.47 135.85 Z" fill="#a0a04e" />
<path d="M 124.33 138.21 C 126.93 138.43 129.72 140.43 131.04 142.62 C 131.79 145.01 130.82 148.07 130.29 150.45 C 128.92 151.99 127.45 153.45 125.81 154.71 C 124.01 153.80 121.95 152.95 120.46 151.57 C 118.99 149.75 118.41 147.07 117.75 144.86 C 118.04 143.74 118.32 142.62 118.60 141.49 C 120.22 140.33 122.26 138.32 124.33 138.21 Z" fill="#857233" />
<path d="M 44.72 138.61 C 47.15 137.98 49.98 138.66 52.39 139.15 C 51.21 139.38 50.05 139.64 48.88 139.90 C 48.17 141.67 47.48 143.45 46.75 145.22 C 45.57 144.14 44.33 143.13 43.12 142.08 C 43.60 140.89 44.09 139.72 44.72 138.61 Z" fill="#c8a75a" />
<path d="M 52.39 139.15 C 53.03 140.16 53.65 141.18 54.24 142.22 C 53.89 143.52 53.54 144.79 53.04 146.04 C 51.83 146.83 50.30 147.24 48.93 147.68 C 48.22 146.84 47.50 146.02 46.75 145.22 C 47.48 143.45 48.17 141.67 48.88 139.90 C 50.05 139.64 51.21 139.38 52.39 139.15 Z" fill="#967c35" />
<path d="M 180.05 138.98 C 178.33 147.73 172.64 155.26 169.60 163.77 C 169.21 164.79 168.84 165.83 168.47 166.86 C 168.17 167.69 167.88 168.52 167.60 169.36 C 165.62 169.31 163.64 169.27 161.66 169.23 C 160.64 172.43 159.82 175.65 159.57 179.01 C 158.26 179.93 157.00 180.91 155.69 181.82 C 152.84 183.10 149.81 184.02 146.76 184.71 C 140.19 184.93 135.15 182.49 130.51 177.94 C 135.35 175.31 139.74 171.46 143.80 167.77 C 147.40 164.55 148.18 159.89 148.58 155.32 C 149.05 155.70 149.53 156.08 150.01 156.46 C 153.71 159.69 158.35 157.85 162.11 160.93 C 163.60 161.90 165.04 162.86 166.76 163.37 C 169.84 157.95 170.52 151.17 173.73 145.59 C 175.33 142.83 177.62 140.98 180.05 138.98 Z" fill="#d1b934" />
<path d="M 230.51 142.60 L 231.47 144.27 C 233.81 149.43 233.37 156.05 233.38 161.61 C 234.08 161.52 234.78 161.42 235.48 161.32 C 235.52 161.88 235.56 162.45 235.60 163.01 C 235.30 165.35 234.91 167.69 234.32 169.98 C 231.97 169.86 229.62 169.78 227.27 169.77 C 228.28 166.12 229.34 162.58 229.82 158.79 C 230.56 153.35 229.99 148.07 230.51 142.60 Z" fill="#929455" />
<path d="M 117.75 144.86 C 118.41 147.07 118.99 149.75 120.46 151.57 C 121.95 152.95 124.01 153.80 125.81 154.71 C 124.44 155.50 123.03 156.25 121.63 157.01 C 119.85 156.38 117.86 155.83 116.28 154.76 C 114.35 153.00 113.14 150.31 111.88 148.05 C 113.25 148.06 114.63 148.00 116.00 147.86 C 116.62 146.88 117.20 145.88 117.75 144.86 Z" fill="#b29945" />
<path d="M 101.60 146.85 C 100.03 149.99 99.04 153.31 98.23 156.71 C 97.49 156.45 96.74 156.19 96.00 155.94 C 94.26 154.69 92.75 152.45 90.35 153.28 C 88.85 154.24 87.72 155.82 86.55 157.14 C 89.00 159.40 90.97 160.47 94.19 161.42 C 94.83 166.20 91.97 168.79 89.94 172.74 C 86.86 170.46 83.52 170.17 79.81 170.06 C 80.14 166.84 80.82 163.68 81.18 160.47 C 81.51 158.02 80.06 155.30 79.22 153.04 C 82.24 150.75 85.41 148.06 89.11 147.02 C 93.15 145.82 97.48 146.41 101.60 146.85 Z" fill="#bc9131" />
<path d="M 157.55 145.47 C 157.48 149.67 157.74 153.48 154.91 156.98 C 153.28 156.81 151.64 156.63 150.01 156.46 C 149.53 156.08 149.05 155.70 148.58 155.32 C 150.83 153.71 153.15 152.22 155.33 150.51 C 153.89 151.04 152.48 151.61 151.07 152.19 C 150.34 151.44 149.62 150.69 148.89 149.93 C 151.79 148.48 154.75 147.11 157.55 145.47 Z" fill="#c8c9a7" />
<path d="M 111.88 148.05 C 113.14 150.31 114.35 153.00 116.28 154.76 C 117.86 155.83 119.85 156.38 121.63 157.01 C 122.39 159.78 123.10 162.56 123.84 165.34 C 116.93 169.32 109.25 172.19 101.48 173.97 C 101.40 174.92 101.32 175.87 101.24 176.82 C 96.96 176.62 92.96 176.53 89.16 174.22 L 89.94 172.74 C 91.97 168.79 94.83 166.20 94.19 161.42 C 94.75 159.58 95.36 157.75 96.00 155.94 C 96.74 156.19 97.49 156.45 98.23 156.71 C 99.04 153.31 100.03 149.99 101.60 146.85 C 105.03 147.23 108.44 147.74 111.88 148.05 Z" fill="#a68c34" />
<path d="M 67.06 148.08 C 69.86 148.06 72.63 148.24 75.37 148.83 C 76.13 152.34 76.79 155.40 74.49 158.52 C 73.04 160.91 70.18 161.05 67.87 159.96 C 65.02 158.64 64.38 154.22 63.36 151.56 C 64.58 150.38 65.79 149.21 67.06 148.08 Z" fill="#857235" />
<path d="M 158.98 148.74 C 160.08 151.11 161.06 153.52 161.90 156.00 C 162.03 157.64 162.07 159.28 162.11 160.93 C 158.35 157.85 153.71 159.69 150.01 156.46 C 151.64 156.63 153.28 156.81 154.91 156.98 C 155.73 157.07 156.55 157.18 157.37 157.28 C 157.85 154.42 158.35 151.57 158.98 148.74 Z" fill="#d5c24c" />
<path d="M 39.27 151.52 C 43.00 153.69 47.11 154.17 47.83 159.14 C 48.84 163.98 51.65 167.43 54.38 171.37 C 50.82 169.31 47.46 167.39 45.11 163.89 C 42.67 160.14 40.08 155.97 39.27 151.52 Z" fill="#f5f6ee" />
<path d="M 130.29 150.45 C 131.53 151.41 133.52 152.29 134.23 153.70 C 134.56 155.57 133.23 157.77 132.48 159.42 C 129.81 161.64 126.78 163.50 123.84 165.34 C 123.10 162.56 122.39 159.78 121.63 157.01 C 123.03 156.25 124.44 155.50 125.81 154.71 C 127.45 153.45 128.92 151.99 130.29 150.45 Z" fill="#dabd55" />
<path d="M 90.35 153.28 C 92.75 152.45 94.26 154.69 96.00 155.94 C 95.36 157.75 94.75 159.58 94.19 161.42 C 90.97 160.47 89.00 159.40 86.55 157.14 C 87.72 155.82 88.85 154.24 90.35 153.28 Z" fill="#8e742e" />
<path d="M 210.05 156.57 C 211.20 157.52 212.32 158.50 213.38 159.54 C 212.35 161.81 211.42 164.12 210.55 166.46 C 209.17 165.44 207.83 164.36 206.48 163.30 L 206.10 162.89 C 207.52 160.85 208.87 158.76 210.05 156.57 Z" fill="#323032" />
<path d="M 198.17 159.36 C 200.44 159.23 202.72 159.18 204.99 159.12 C 205.33 160.39 205.68 161.65 206.10 162.89 L 206.48 163.30 C 205.85 164.66 205.23 166.02 204.60 167.39 C 203.84 167.47 203.07 167.56 202.30 167.65 C 200.74 164.92 199.21 162.34 198.17 159.36 Z" fill="#eee0b4" />
<path d="M 213.38 159.54 C 215.05 161.94 214.46 164.32 214.14 167.03 C 212.91 169.49 211.68 171.87 210.91 174.52 C 210.27 176.68 209.92 179.21 208.70 181.13 C 207.61 181.34 206.43 181.35 205.32 181.39 C 204.65 181.94 203.98 182.49 203.31 183.05 L 202.18 183.97 L 200.81 184.15 C 200.64 181.44 200.49 178.72 200.33 176.01 C 198.86 177.31 197.40 178.62 195.92 179.91 C 195.24 179.42 194.55 178.93 193.87 178.44 C 194.83 177.65 195.79 176.86 196.75 176.08 C 194.45 174.98 192.11 173.86 189.75 172.93 C 192.65 172.69 195.76 172.41 198.48 171.33 C 199.99 170.50 201.15 168.92 202.30 167.65 C 203.07 167.56 203.84 167.47 204.60 167.39 C 205.23 166.02 205.85 164.66 206.48 163.30 C 207.83 164.36 209.17 165.44 210.55 166.46 C 211.42 164.12 212.35 161.81 213.38 159.54 Z" fill="#cabb4f" />
<path d="M 177.77 162.05 C 179.18 162.28 180.55 162.88 181.89 163.37 C 180.65 164.67 179.41 165.96 178.16 167.25 C 180.53 167.28 182.90 167.28 185.27 167.28 C 185.02 168.65 184.78 170.02 184.54 171.40 C 186.28 171.91 188.02 172.41 189.75 172.93 C 192.11 173.86 194.45 174.98 196.75 176.08 C 195.79 176.86 194.83 177.65 193.87 178.44 C 194.55 178.93 195.24 179.42 195.92 179.91 C 197.40 178.62 198.86 177.31 200.33 176.01 C 200.49 178.72 200.64 181.44 200.81 184.15 C 199.43 184.69 198.12 185.36 196.79 186.02 C 193.36 186.39 190.61 187.58 187.72 189.41 C 187.33 188.83 186.93 188.26 186.50 187.70 C 183.70 184.67 180.07 182.33 176.88 179.69 C 173.09 176.68 170.32 176.60 165.96 178.41 C 165.25 177.86 164.53 177.32 163.82 176.77 C 170.26 175.75 176.29 173.85 182.80 173.68 C 180.86 171.92 178.81 169.74 176.41 168.65 C 173.94 167.60 171.12 167.19 168.47 166.86 C 168.84 165.83 169.21 164.79 169.60 163.77 C 170.73 164.30 171.86 164.84 172.99 165.38 C 174.49 164.23 176.01 162.75 177.77 162.05 Z" fill="#a09b41" />
<path d="M 132.20 163.13 C 132.79 164.44 129.67 166.48 128.61 165.64 C 127.96 164.23 131.05 162.30 132.20 163.13 Z" fill="#534d5d" />
<path d="M 168.47 166.86 C 171.12 167.19 173.94 167.60 176.41 168.65 C 178.81 169.74 180.86 171.92 182.80 173.68 C 176.29 173.85 170.26 175.75 163.82 176.77 C 162.35 177.42 160.93 178.18 159.57 179.01 C 159.82 175.65 160.64 172.43 161.66 169.23 C 163.64 169.27 165.62 169.31 167.60 169.36 C 167.88 168.52 168.17 167.69 168.47 166.86 Z" fill="#b5aa40" />
<path d="M 124.45 168.10 C 121.66 171.47 119.57 172.22 115.29 172.84 C 116.25 171.72 117.13 170.10 118.47 169.41 C 120.35 168.67 122.47 168.43 124.45 168.10 Z" fill="#737359" />
<path d="M 234.32 169.98 C 233.45 172.62 232.41 175.21 231.28 177.75 C 229.56 176.60 227.79 175.60 225.85 174.88 C 226.36 173.19 226.80 171.48 227.27 169.77 C 229.62 169.78 231.97 169.86 234.32 169.98 Z" fill="#949a6e" />
<path d="M 220.84 170.55 C 220.05 173.13 219.18 174.71 217.26 176.61 C 218.18 174.30 219.26 172.46 220.84 170.55 Z" fill="#58585e" />
<path d="M 103.74 175.24 C 104.34 174.05 106.41 174.36 106.16 175.84 C 105.56 177.04 103.49 176.72 103.74 175.24 Z" fill="#676064" />
<path d="M 225.85 174.88 C 227.79 175.60 229.56 176.60 231.28 177.75 C 226.16 189.62 217.57 198.68 205.70 203.92 C 204.43 203.16 203.12 202.46 201.76 201.84 C 203.14 201.33 204.50 200.77 205.84 200.17 C 208.34 199.00 210.72 197.57 212.95 195.95 C 216.41 193.69 217.64 189.63 220.22 186.21 C 222.82 182.75 224.57 179.01 225.85 174.88 Z" fill="#bcbf9c" />
<path d="M 163.82 176.77 C 164.53 177.32 165.25 177.86 165.96 178.41 C 166.24 180.21 166.51 182.00 166.76 183.80 C 168.62 182.82 170.48 181.84 172.38 180.95 C 170.84 184.37 169.00 187.25 167.97 190.69 C 164.71 192.26 161.90 194.25 159.85 197.29 C 158.88 198.91 158.02 200.57 157.16 202.24 C 156.28 199.85 155.21 197.67 153.64 195.64 C 152.93 198.44 153.83 200.55 154.92 203.09 C 153.92 204.02 152.94 204.95 151.92 205.84 C 149.34 207.88 146.66 209.46 143.65 210.76 C 142.93 210.80 142.21 210.83 141.49 210.85 C 140.89 208.09 140.05 205.50 138.93 202.91 C 138.59 204.39 138.29 205.88 137.98 207.36 C 134.03 207.73 130.17 207.71 126.21 207.41 C 126.48 207.95 126.75 208.49 127.01 209.03 C 127.69 210.39 128.35 211.77 129.01 213.14 C 125.05 211.76 121.88 209.48 118.71 206.81 C 121.01 206.35 123.72 205.84 125.64 204.43 C 126.66 202.49 126.92 200.01 126.06 197.96 C 124.21 193.83 120.99 190.88 117.20 188.53 C 119.60 192.66 122.31 196.60 124.78 200.68 C 121.29 202.11 117.92 203.67 114.86 205.90 C 113.34 206.85 111.78 207.71 110.19 208.52 C 108.37 209.37 106.53 210.19 104.72 211.04 C 101.31 206.63 98.77 202.65 98.43 196.88 C 99.67 196.74 100.92 196.61 102.16 196.50 C 103.60 199.98 105.23 203.14 108.11 205.65 C 110.73 208.38 112.51 205.73 114.72 204.04 C 115.55 202.79 116.39 201.40 116.81 199.95 C 116.34 196.68 114.43 192.98 111.69 191.05 C 108.57 190.07 105.30 191.13 102.41 192.39 C 101.35 192.01 100.28 191.63 99.21 191.25 C 95.69 186.59 91.39 183.07 86.99 179.29 C 93.44 180.35 99.41 182.31 105.97 182.19 C 114.44 181.95 122.66 181.42 130.51 177.94 C 135.15 182.49 140.19 184.93 146.76 184.71 C 147.87 188.93 147.29 192.90 146.72 197.14 C 149.77 194.21 151.52 191.60 152.45 187.46 C 153.72 187.04 155.00 186.63 156.29 186.22 C 156.09 184.75 155.89 183.28 155.69 181.82 C 157.00 180.91 158.26 179.93 159.57 179.01 C 160.93 178.18 162.35 177.42 163.82 176.77 Z" fill="#8a8e48" />
<path d="M 176.88 179.69 C 175.36 180.07 173.86 180.44 172.38 180.95 C 170.48 181.84 168.62 182.82 166.76 183.80 C 166.51 182.00 166.24 180.21 165.96 178.41 C 170.32 176.60 173.09 176.68 176.88 179.69 Z" fill="#bebc93" />
<path d="M 215.08 179.30 C 216.64 179.50 216.24 181.50 214.87 181.67 C 213.30 181.46 213.70 179.47 215.08 179.30 Z" fill="#605d6a" />
<path d="M 176.88 179.69 C 180.07 182.33 183.70 184.67 186.50 187.70 C 184.68 189.98 182.92 192.31 181.07 194.57 C 179.75 194.02 178.43 193.50 177.12 192.97 C 176.76 190.23 176.49 187.50 176.40 184.73 C 179.17 186.24 180.64 187.35 181.95 190.32 C 182.86 189.29 183.79 188.28 184.73 187.27 C 181.87 185.64 178.04 181.89 174.59 182.47 C 172.10 185.91 170.72 190.26 168.90 194.09 C 169.36 194.71 169.82 195.33 170.29 195.95 C 170.71 196.47 171.14 197.00 171.57 197.51 C 173.51 199.22 175.44 200.65 178.11 200.84 C 182.23 199.55 184.70 199.51 188.89 200.55 C 191.15 203.43 193.90 206.14 195.74 209.31 C 197.27 211.57 195.78 214.57 195.37 217.02 C 194.21 217.69 193.08 218.37 191.88 218.96 C 190.48 219.17 189.07 219.35 187.66 219.50 C 187.67 216.86 187.70 214.23 187.96 211.59 C 188.57 209.94 189.25 208.31 189.93 206.69 C 185.63 208.35 181.18 209.36 176.79 210.73 C 172.30 212.15 167.62 212.42 163.17 214.02 C 157.13 216.10 151.37 214.96 145.25 216.19 C 143.00 216.57 140.46 217.17 138.18 216.81 C 135.02 216.06 132.04 214.32 129.01 213.14 C 128.35 211.77 127.69 210.39 127.01 209.03 C 131.86 209.91 136.53 210.94 141.49 210.85 C 142.21 210.83 142.93 210.80 143.65 210.76 C 151.45 209.94 157.49 212.82 165.11 211.10 C 170.27 209.15 174.91 206.55 180.45 205.72 C 183.56 205.27 185.26 204.18 187.48 202.00 C 183.88 201.16 180.54 201.81 176.95 202.19 C 174.05 202.62 171.21 200.03 168.95 198.50 C 168.38 197.71 167.81 196.93 167.24 196.13 C 167.52 194.32 167.73 192.51 167.97 190.69 C 169.00 187.25 170.84 184.37 172.38 180.95 C 173.86 180.44 175.36 180.07 176.88 179.69 Z" fill="#212038" />
<path d="M 155.69 181.82 C 155.89 183.28 156.09 184.75 156.29 186.22 C 155.00 186.63 153.72 187.04 152.45 187.46 C 151.52 191.60 149.77 194.21 146.72 197.14 C 147.29 192.90 147.87 188.93 146.76 184.71 C 149.81 184.02 152.84 183.10 155.69 181.82 Z" fill="#adaa68" />
<path d="M 184.73 187.27 C 183.79 188.28 182.86 189.29 181.95 190.32 C 180.64 187.35 179.17 186.24 176.40 184.73 C 176.49 187.50 176.76 190.23 177.12 192.97 C 174.84 193.95 172.56 194.94 170.29 195.95 C 169.82 195.33 169.36 194.71 168.90 194.09 C 170.72 190.26 172.10 185.91 174.59 182.47 C 178.04 181.89 181.87 185.64 184.73 187.27 Z" fill="#b1b284" />
<path d="M 203.31 183.05 C 203.41 183.90 203.49 184.76 203.54 185.61 C 201.44 187.05 199.25 188.36 197.17 189.82 C 197.95 192.60 198.58 195.22 198.22 198.13 C 196.14 197.24 193.75 196.47 191.93 195.12 C 190.18 193.64 188.98 191.31 187.72 189.41 C 190.61 187.58 193.36 186.39 196.79 186.02 C 199.92 187.21 200.59 186.91 202.18 183.97 L 203.31 183.05 Z" fill="#b2b581" />
<path d="M 213.30 183.06 C 212.30 185.46 211.22 186.77 209.18 188.36 C 210.39 186.44 211.72 184.70 213.30 183.06 Z" fill="#515265" />
<path d="M 200.81 184.15 L 202.18 183.97 C 200.59 186.91 199.92 187.21 196.79 186.02 C 198.12 185.36 199.43 184.69 200.81 184.15 Z" fill="#35361e" />
<path d="M 79.70 188.22 C 85.83 188.07 91.60 191.38 97.25 193.34 C 99.24 194.11 100.61 193.11 102.41 192.39 C 105.30 191.13 108.57 190.07 111.69 191.05 C 114.43 192.98 116.34 196.68 116.81 199.95 C 116.39 201.40 115.55 202.79 114.72 204.04 C 112.48 204.44 110.29 205.02 108.11 205.65 C 105.23 203.14 103.60 199.98 102.16 196.50 C 100.92 196.61 99.67 196.74 98.43 196.88 C 98.77 202.65 101.31 206.63 104.72 211.04 C 106.53 210.19 108.37 209.37 110.19 208.52 C 107.13 211.53 105.69 215.70 102.73 218.72 C 99.74 221.21 95.61 222.37 92.19 224.22 C 87.24 226.74 82.12 228.18 76.64 226.32 C 73.03 224.82 69.46 223.23 65.84 221.75 C 63.31 223.26 60.89 225.08 58.21 226.31 C 55.81 227.42 53.50 226.51 51.04 226.09 C 52.08 224.53 53.15 223.01 54.36 221.58 C 56.17 219.68 58.18 218.08 60.25 216.48 C 65.88 218.11 71.88 218.12 77.66 219.47 C 80.73 220.08 83.80 221.23 86.92 221.49 C 90.17 220.48 93.03 218.38 96.27 217.29 C 98.46 216.47 100.79 216.70 103.08 216.77 C 102.08 213.64 101.04 210.56 99.34 207.73 C 97.64 204.70 96.98 201.48 96.80 198.04 L 96.66 196.33 C 94.27 195.46 91.83 194.70 89.43 193.84 L 90.82 193.16 C 88.55 193.43 86.28 193.68 84.02 194.03 C 84.98 193.72 85.93 193.40 86.87 193.07 C 84.43 191.47 81.92 190.13 79.70 188.22 Z" fill="#20203c" />
<path d="M 161.66 188.39 C 163.24 187.48 164.77 190.23 163.53 191.34 C 161.91 192.27 160.50 189.53 161.66 188.39 Z" fill="#bfc48e" />
<path d="M 186.50 187.70 C 186.93 188.26 187.33 188.83 187.72 189.41 C 188.98 191.31 190.18 193.64 191.93 195.12 C 193.75 196.47 196.14 197.24 198.22 198.13 C 200.69 199.22 203.06 200.21 205.84 200.17 C 204.50 200.77 203.14 201.33 201.76 201.84 C 197.79 202.04 194.73 200.82 191.24 199.12 C 190.44 199.57 189.67 200.06 188.89 200.55 C 184.70 199.51 182.23 199.55 178.11 200.84 C 178.33 199.79 178.54 198.73 178.74 197.67 C 176.26 196.41 174.16 196.91 171.57 197.51 C 171.14 197.00 170.71 196.47 170.29 195.95 C 172.56 194.94 174.84 193.95 177.12 192.97 C 178.43 193.50 179.75 194.02 181.07 194.57 C 182.92 192.31 184.68 189.98 186.50 187.70 Z" fill="#9b9d5d" />
<path d="M 117.20 188.53 C 120.99 190.88 124.21 193.83 126.06 197.96 C 126.92 200.01 126.66 202.49 125.64 204.43 C 123.72 205.84 121.01 206.35 118.71 206.81 C 117.43 206.47 116.15 206.16 114.86 205.90 C 117.92 203.67 121.29 202.11 124.78 200.68 C 122.31 196.60 119.60 192.66 117.20 188.53 Z" fill="#1f1e34" />
<path d="M 81.43 192.49 C 74.50 192.20 67.59 191.60 60.66 191.29 C 67.72 189.02 74.86 188.48 81.43 192.49 Z" fill="#747384" />
<path d="M 204.32 189.97 C 206.05 189.10 207.52 190.85 205.78 192.09 C 204.07 192.97 202.59 191.19 204.32 189.97 Z" fill="#4b5264" />
<path d="M 167.97 190.69 C 167.73 192.51 167.52 194.32 167.24 196.13 C 164.77 196.47 162.31 196.89 159.85 197.29 C 161.90 194.25 164.71 192.26 167.97 190.69 Z" fill="#fbfbed" />
<path d="M 90.82 193.16 L 89.43 193.84 C 86.09 195.25 83.13 197.37 79.85 198.85 C 78.36 199.22 76.47 196.78 75.23 196.00 C 70.78 197.33 66.55 196.87 62.09 195.96 C 63.67 195.20 65.27 194.26 66.97 193.81 C 70.12 194.14 73.21 195.04 76.37 195.36 C 78.93 195.32 81.55 194.68 84.02 194.03 C 86.28 193.68 88.55 193.43 90.82 193.16 Z" fill="#0d0b27" />
<path d="M 106.99 193.48 C 108.80 194.05 110.33 195.80 111.80 196.98 C 110.50 199.09 109.25 201.22 108.00 203.36 C 107.19 198.99 106.04 197.43 102.81 194.46 C 104.18 194.09 105.58 193.67 106.99 193.48 Z" fill="#8c8f4e" />
<path d="M 153.64 195.64 C 155.21 197.67 156.28 199.85 157.16 202.24 C 158.02 200.57 158.88 198.91 159.85 197.29 C 162.31 196.89 164.77 196.47 167.24 196.13 C 167.81 196.93 168.38 197.71 168.95 198.50 C 169.14 200.45 170.51 202.14 168.27 203.35 C 163.82 206.11 157.01 204.75 151.92 205.84 C 152.94 204.95 153.92 204.02 154.92 203.09 C 153.83 200.55 152.93 198.44 153.64 195.64 Z" fill="#b9bd95" />
<path d="M 178.74 197.67 C 178.54 198.73 178.33 199.79 178.11 200.84 C 175.44 200.65 173.51 199.22 171.57 197.51 C 174.16 196.91 176.26 196.41 178.74 197.67 Z" fill="#cbcab1" />
<path d="M 36.70 198.16 C 37.44 198.22 38.18 198.30 38.92 198.39 C 42.03 200.12 44.86 202.32 47.98 204.01 C 51.07 205.69 54.38 205.21 58.04 206.00 C 56.18 207.57 54.34 209.15 52.51 210.75 C 47.24 209.97 41.94 210.11 37.09 212.55 C 35.50 211.29 33.89 210.05 32.27 208.82 C 33.83 205.30 35.20 201.71 36.70 198.16 Z" fill="#f3f4f2" />
<path d="M 38.92 198.39 C 39.65 198.49 40.38 198.59 41.11 198.72 C 45.56 200.66 50.10 201.16 54.90 201.45 C 57.12 201.44 58.41 202.83 60.18 203.94 C 60.33 204.80 60.48 205.65 60.64 206.50 C 59.77 206.33 58.91 206.16 58.04 206.00 C 54.38 205.21 51.07 205.69 47.98 204.01 C 44.86 202.32 42.03 200.12 38.92 198.39 Z" fill="#1b1c36" />
<path d="M 96.80 198.04 C 96.98 201.48 97.64 204.70 99.34 207.73 C 98.22 206.84 97.08 205.98 95.93 205.13 C 95.30 207.57 94.72 210.69 92.99 212.61 C 91.47 213.29 89.63 213.37 88.00 213.62 C 87.67 214.35 87.34 215.09 87.02 215.83 C 86.52 215.58 86.03 215.32 85.57 215.02 C 84.45 211.72 83.14 208.78 79.57 207.54 C 76.07 206.64 72.26 206.71 68.66 206.44 C 74.20 205.91 79.73 205.52 85.22 204.48 C 84.37 204.21 83.52 203.96 82.67 203.72 C 85.65 203.37 88.68 203.11 91.60 202.41 C 93.72 201.88 95.42 199.62 96.80 198.04 Z" fill="#9ea165" />
<path d="M 191.24 199.12 C 194.73 200.82 197.79 202.04 201.76 201.84 C 203.12 202.46 204.43 203.16 205.70 203.92 C 208.16 205.49 210.52 207.22 212.67 209.19 C 212.07 209.77 211.47 210.36 210.87 210.95 C 211.32 212.17 211.73 213.41 212.17 214.64 C 210.53 217.11 208.99 219.64 207.58 222.26 C 202.97 221.54 199.20 219.58 195.37 217.02 C 195.78 214.57 197.27 211.57 195.74 209.31 C 193.90 206.14 191.15 203.43 188.89 200.55 C 189.67 200.06 190.44 199.57 191.24 199.12 Z" fill="#8e904e" />
<path d="M 168.95 198.50 C 171.21 200.03 174.05 202.62 176.95 202.19 C 180.54 201.81 183.88 201.16 187.48 202.00 C 185.26 204.18 183.56 205.27 180.45 205.72 C 174.91 206.55 170.27 209.15 165.11 211.10 C 157.49 212.82 151.45 209.94 143.65 210.76 C 146.66 209.46 149.34 207.88 151.92 205.84 C 157.01 204.75 163.82 206.11 168.27 203.35 C 170.51 202.14 169.14 200.45 168.95 198.50 Z" fill="#d0d2b6" />
<path d="M 64.85 202.16 C 65.90 203.13 66.93 204.11 67.97 205.09 C 69.08 204.88 70.19 204.68 71.30 204.49 C 75.06 204.01 78.89 203.92 82.67 203.72 C 83.52 203.96 84.37 204.21 85.22 204.48 C 79.73 205.52 74.20 205.91 68.66 206.44 C 72.26 206.71 76.07 206.64 79.57 207.54 C 83.14 208.78 84.45 211.72 85.57 215.02 C 86.03 215.32 86.52 215.58 87.02 215.83 C 87.34 215.09 87.67 214.35 88.00 213.62 C 89.63 213.37 91.47 213.29 92.99 212.61 C 94.72 210.69 95.30 207.57 95.93 205.13 C 97.08 205.98 98.22 206.84 99.34 207.73 C 101.04 210.56 102.08 213.64 103.08 216.77 C 100.79 216.70 98.46 216.47 96.27 217.29 C 93.03 218.38 90.17 220.48 86.92 221.49 C 83.80 221.23 80.73 220.08 77.66 219.47 C 71.88 218.12 65.88 218.11 60.25 216.48 C 58.93 215.76 57.66 214.99 56.37 214.21 C 55.05 213.09 53.78 211.92 52.51 210.75 C 54.34 209.15 56.18 207.57 58.04 206.00 C 58.91 206.16 59.77 206.33 60.64 206.50 C 60.48 205.65 60.33 204.80 60.18 203.94 C 61.72 203.33 63.26 202.65 64.85 202.16 Z" fill="#8a8e49" />
<path d="M 64.85 202.16 C 67.08 202.08 69.24 203.72 71.30 204.49 C 70.19 204.68 69.08 204.88 67.97 205.09 C 66.93 204.11 65.90 203.13 64.85 202.16 Z" fill="#43432c" />
<path d="M 138.93 202.91 C 140.05 205.50 140.89 208.09 141.49 210.85 C 136.53 210.94 131.86 209.91 127.01 209.03 C 126.75 208.49 126.48 207.95 126.21 207.41 C 130.17 207.71 134.03 207.73 137.98 207.36 C 138.29 205.88 138.59 204.39 138.93 202.91 Z" fill="#a2a473" />
<path d="M 114.72 204.04 C 112.51 205.73 110.73 208.38 108.11 205.65 C 110.29 205.02 112.48 204.44 114.72 204.04 Z" fill="#dde0df" />
<path d="M 114.86 205.90 C 116.15 206.16 117.43 206.47 118.71 206.81 C 121.88 209.48 125.05 211.76 129.01 213.14 C 132.04 214.32 135.02 216.06 138.18 216.81 C 140.46 217.17 143.00 216.57 145.25 216.19 C 151.37 214.96 157.13 216.10 163.17 214.02 C 167.62 212.42 172.30 212.15 176.79 210.73 C 181.18 209.36 185.63 208.35 189.93 206.69 C 189.25 208.31 188.57 209.94 187.96 211.59 C 183.40 214.42 179.01 217.03 173.66 218.13 C 172.40 218.34 171.15 218.54 169.89 218.71 C 166.30 218.83 162.46 218.14 158.95 218.68 C 156.68 219.01 154.62 220.44 152.62 221.53 C 157.92 221.60 163.03 222.32 168.10 223.86 C 169.02 224.77 169.91 225.70 170.80 226.63 C 167.31 228.39 163.68 228.95 159.90 229.71 C 160.75 230.09 161.60 230.46 162.45 230.83 C 159.45 230.83 156.56 231.72 153.60 231.87 C 148.78 230.09 144.66 226.82 139.59 225.47 C 132.71 223.53 124.82 219.92 117.69 221.58 C 108.72 223.21 102.98 228.78 94.68 231.81 C 86.67 234.95 76.45 233.80 67.98 233.96 C 60.83 233.85 54.22 236.25 47.09 235.96 C 43.07 235.87 39.34 234.82 35.54 233.64 C 36.97 232.81 38.41 231.99 39.85 231.18 C 39.20 230.83 38.54 230.47 37.89 230.12 C 41.91 229.28 45.73 228.54 49.48 226.80 C 50.00 226.57 50.52 226.33 51.04 226.09 C 53.50 226.51 55.81 227.42 58.21 226.31 C 60.89 225.08 63.31 223.26 65.84 221.75 C 69.46 223.23 73.03 224.82 76.64 226.32 C 82.12 228.18 87.24 226.74 92.19 224.22 C 95.61 222.37 99.74 221.21 102.73 218.72 C 105.69 215.70 107.13 211.53 110.19 208.52 C 111.78 207.71 113.34 206.85 114.86 205.90 Z" fill="#f4f4f2" />
<path d="M 52.51 210.75 C 53.78 211.92 55.05 213.09 56.37 214.21 C 52.20 214.81 48.04 215.24 43.82 215.18 C 38.65 214.88 33.76 214.84 28.68 213.93 C 31.54 213.52 34.31 213.42 37.09 212.55 C 41.94 210.11 47.24 209.97 52.51 210.75 Z" fill="#201e39" />
<path d="M 212.67 209.19 C 213.74 210.16 214.86 211.21 215.65 212.43 C 215.98 215.21 215.68 218.11 215.58 220.91 C 213.25 221.72 210.93 222.55 208.63 223.41 C 207.92 225.06 207.28 226.85 206.26 228.33 C 203.78 229.80 200.43 230.00 197.66 230.60 C 199.90 229.88 202.12 229.10 204.35 228.34 C 201.88 226.82 199.14 225.01 196.14 225.08 C 194.03 226.17 192.32 227.99 190.31 229.26 C 188.05 230.76 185.18 231.34 182.59 232.12 C 180.75 231.28 178.92 230.44 177.05 229.66 C 179.67 228.22 182.20 226.64 184.80 225.17 C 183.56 224.63 182.32 224.06 181.09 223.48 C 184.68 221.97 188.39 220.66 191.88 218.96 C 193.08 218.37 194.21 217.69 195.37 217.02 C 199.20 219.58 202.97 221.54 207.58 222.26 C 208.99 219.64 210.53 217.11 212.17 214.64 C 211.73 213.41 211.32 212.17 210.87 210.95 C 211.47 210.36 212.07 209.77 212.67 209.19 Z" fill="#a7a975" />
<path d="M 187.96 211.59 C 187.70 214.23 187.67 216.86 187.66 219.50 C 189.07 219.35 190.48 219.17 191.88 218.96 C 188.39 220.66 184.68 221.97 181.09 223.48 C 180.47 223.12 179.85 222.75 179.24 222.36 C 177.33 221.02 175.56 219.51 173.66 218.13 C 179.01 217.03 183.40 214.42 187.96 211.59 Z" fill="#898c4f" />
<path d="M 56.37 214.21 C 57.66 214.99 58.93 215.76 60.25 216.48 C 58.18 218.08 56.17 219.68 54.36 221.58 C 52.93 219.46 51.89 216.89 49.13 216.31 C 47.38 215.81 45.62 215.44 43.82 215.18 C 48.04 215.24 52.20 214.81 56.37 214.21 Z" fill="#adb382" />
<path d="M 29.40 216.31 C 32.83 215.72 36.63 216.57 40.10 216.73 C 43.15 216.96 46.10 216.59 49.13 216.31 C 51.89 216.89 52.93 219.46 54.36 221.58 C 53.15 223.01 52.08 224.53 51.04 226.09 C 50.52 226.33 50.00 226.57 49.48 226.80 C 48.77 226.43 48.05 226.07 47.33 225.71 C 47.63 224.89 47.92 224.07 48.21 223.25 C 45.56 223.36 42.77 223.33 40.18 223.95 C 37.55 225.23 35.38 227.59 32.94 229.24 C 30.62 227.32 28.59 225.75 28.32 222.50 C 28.20 220.64 27.26 217.27 29.40 216.31 Z" fill="#f3f3f0" />
<path d="M 173.66 218.13 C 175.56 219.51 177.33 221.02 179.24 222.36 C 176.29 223.58 173.54 225.01 170.80 226.63 C 169.91 225.70 169.02 224.77 168.10 223.86 C 169.58 223.81 171.06 223.68 172.53 223.57 C 171.65 221.95 170.77 220.33 169.89 218.71 C 171.15 218.54 172.40 218.34 173.66 218.13 Z" fill="#b2b080" />
<path d="M 98.10 218.89 C 95.00 221.17 92.05 222.63 88.34 223.70 C 91.37 220.89 94.06 219.69 98.10 218.89 Z" fill="#515164" />
<path d="M 158.95 218.68 C 162.46 218.14 166.30 218.83 169.89 218.71 C 170.77 220.33 171.65 221.95 172.53 223.57 C 171.06 223.68 169.58 223.81 168.10 223.86 C 163.03 222.32 157.92 221.60 152.62 221.53 C 154.62 220.44 156.68 219.01 158.95 218.68 Z" fill="#282c3c" />
<path d="M 179.24 222.36 C 179.85 222.75 180.47 223.12 181.09 223.48 C 182.32 224.06 183.56 224.63 184.80 225.17 C 182.20 226.64 179.67 228.22 177.05 229.66 C 172.65 231.54 168.03 232.53 163.35 231.07 L 162.45 230.83 C 161.60 230.46 160.75 230.09 159.90 229.71 C 163.68 228.95 167.31 228.39 170.80 226.63 C 173.54 225.01 176.29 223.58 179.24 222.36 Z" fill="#282843" />
<path d="M 40.18 223.95 C 42.77 223.33 45.56 223.36 48.21 223.25 C 47.92 224.07 47.63 224.89 47.33 225.71 C 48.05 226.07 48.77 226.43 49.48 226.80 C 45.73 228.54 41.91 229.28 37.89 230.12 C 34.32 230.82 30.73 230.93 27.10 230.99 C 29.06 230.45 31.02 229.91 32.94 229.24 C 35.38 227.59 37.55 225.23 40.18 223.95 Z" fill="#201e3b" />
<path d="M 196.14 225.08 C 199.14 225.01 201.88 226.82 204.35 228.34 C 202.12 229.10 199.90 229.88 197.66 230.60 C 192.13 231.46 187.98 234.98 182.59 232.12 C 185.18 231.34 188.05 230.76 190.31 229.26 C 192.32 227.99 194.03 226.17 196.14 225.08 Z" fill="#1c1b37" />
</svg>