<?xml version="1.0" encoding="UTF-8" standalone="no"?>
<!DOCTYPE svg PUBLIC "-//W3C//DTD SVG 1.1//EN" "http://www.w3.org/Graphics/SVG/1.1/DTD/svg11.dtd">
<svg xmlns="http://www.w3.org/2000/svg" version="1.1" viewBox="0 0 256 256" width="256.0pt" height="256.0pt">
<path d="M 0.00 0.00 L 256.00 0.00 L 256.00 256.00 L 0.00 256.00 L 0.00 0.00 Z" fill="#fdfdfd" />
<path d="M 180.02 21.00 C 185.48 20.82 188.30 23.20 192.31 26.03 C 192.70 21.30 194.39 26.13 194.74 27.80 C 195.94 27.31 197.09 26.67 198.29 26.17 C 199.36 33.18 205.37 38.33 207.27 45.27 C 208.27 50.29 212.15 53.39 213.89 58.21 C 217.26 63.11 218.80 68.78 222.51 73.45 C 224.66 77.77 225.61 82.35 228.88 86.14 C 232.61 90.34 232.33 96.24 235.55 100.97 C 234.38 101.71 233.11 102.31 231.87 102.94 C 227.77 100.46 223.25 95.37 221.34 90.96 C 220.02 88.26 218.96 85.46 217.90 82.65 C 217.59 81.52 216.88 80.81 216.09 80.00 C 214.86 78.00 213.67 75.96 212.63 73.85 C 212.05 72.47 211.36 71.26 210.45 70.06 C 207.30 64.55 204.30 60.52 199.85 56.00 C 198.35 53.44 193.40 48.58 196.00 45.66 C 197.75 45.67 200.74 46.75 201.69 44.73 C 202.87 42.30 199.17 43.51 197.79 43.08 C 195.99 41.05 194.09 41.45 192.00 42.76 C 190.95 42.53 189.91 42.27 188.88 41.99 C 191.97 37.87 184.50 37.81 187.44 33.28 C 181.73 32.75 191.62 30.56 192.00 28.04 C 184.18 30.52 176.10 30.84 168.09 28.87 C 157.03 26.04 145.74 25.85 134.61 23.47 C 121.13 22.47 109.30 27.21 97.63 33.52 C 92.25 34.69 86.98 34.59 82.75 38.79 C 81.40 39.94 81.41 41.42 80.99 43.01 C 79.56 43.03 78.10 43.02 76.67 43.17 C 76.86 46.87 74.77 48.61 72.67 51.30 C 70.29 53.82 72.17 57.35 70.06 60.34 C 67.76 53.42 66.60 45.15 58.95 41.87 C 55.79 41.72 55.42 43.49 53.89 45.69 C 52.93 46.85 52.59 47.98 52.89 49.07 C 53.29 50.51 53.88 51.77 54.71 53.00 C 55.24 54.06 56.79 54.49 57.79 55.05 C 59.57 58.44 61.74 61.56 63.18 65.14 C 63.58 67.26 63.89 69.38 64.00 71.53 C 62.62 74.65 63.08 78.37 61.24 81.18 C 60.25 79.98 59.72 78.69 58.30 77.94 C 58.39 79.68 58.60 81.42 58.79 83.15 C 57.97 81.69 57.11 80.24 56.29 78.78 C 53.32 72.36 49.31 66.40 45.61 60.39 C 42.79 56.60 41.14 51.69 36.16 50.41 C 31.32 47.66 32.25 52.35 28.01 53.44 C 23.49 51.33 27.98 50.83 29.84 49.07 C 26.05 45.88 32.54 45.88 34.07 47.74 C 35.08 46.56 35.27 45.28 37.08 45.16 C 45.05 44.06 52.04 40.87 59.04 37.10 C 66.91 35.85 74.23 31.13 80.79 26.87 C 87.31 25.66 89.95 20.60 97.10 21.55 C 102.33 19.95 107.14 18.98 112.64 18.52 C 135.11 10.85 157.67 21.74 180.02 21.00 Z" fill="#f2f2f0" />
<path d="M 134.61 23.47 C 145.74 25.85 157.03 26.04 168.09 28.87 C 166.91 32.34 163.55 35.02 163.47 38.67 C 156.64 38.44 151.47 35.83 145.95 32.11 C 142.95 31.43 141.68 31.55 139.65 28.87 C 137.84 29.45 130.71 35.50 130.80 30.13 C 128.74 31.82 128.17 34.05 125.17 34.32 C 121.55 35.67 119.40 31.08 115.85 33.90 C 113.19 36.08 111.02 36.47 107.67 36.53 C 104.60 36.26 103.72 41.76 100.44 40.04 C 103.27 35.53 98.89 39.09 97.90 40.84 C 94.05 39.13 91.02 40.64 87.79 37.07 C 85.30 38.79 85.68 42.55 82.75 38.79 C 86.98 34.59 92.25 34.69 97.63 33.52 C 109.30 27.21 121.13 22.47 134.61 23.47 Z" fill="#dfddd7" />
<path d="M 139.65 28.87 C 141.68 31.55 142.95 31.43 145.95 32.11 C 151.47 35.83 156.64 38.44 163.47 38.67 C 163.55 35.02 166.91 32.34 168.09 28.87 C 176.10 30.84 184.18 30.52 192.00 28.04 C 191.62 30.56 181.73 32.75 187.44 33.28 C 184.50 37.81 191.97 37.87 188.88 41.99 C 186.79 44.17 194.77 45.24 196.00 45.66 C 193.40 48.58 198.35 53.44 199.85 56.00 L 198.77 57.13 C 195.79 55.09 193.88 51.71 191.42 56.46 C 187.71 60.97 193.51 61.34 192.53 65.68 C 195.76 69.08 196.33 68.60 195.41 73.60 C 198.74 75.00 200.73 74.41 201.60 78.55 C 204.14 80.79 209.44 78.65 212.65 80.14 C 212.82 82.73 209.54 86.62 213.12 87.93 C 216.86 88.77 215.55 84.70 217.90 82.65 C 218.96 85.46 220.02 88.26 221.34 90.96 C 217.84 92.50 225.91 100.18 226.99 102.36 C 223.63 101.46 216.44 106.79 217.68 110.24 C 214.65 113.44 209.13 116.46 210.74 121.66 C 206.10 117.81 208.23 125.19 207.79 127.75 C 205.68 126.80 204.68 123.94 202.81 126.83 C 198.91 124.70 200.51 121.47 199.17 117.86 C 198.27 114.23 195.88 112.04 193.59 109.30 C 192.85 107.99 192.26 106.68 191.89 105.22 C 195.76 108.55 199.77 107.98 204.49 108.74 C 203.75 103.85 203.53 103.41 207.02 99.88 C 207.18 93.85 197.62 100.38 199.77 93.99 C 200.81 90.25 196.76 92.78 195.09 93.32 C 194.71 92.99 190.66 91.11 192.98 91.21 C 196.66 91.11 196.43 87.17 197.89 84.54 C 194.49 84.69 191.24 84.54 187.95 85.62 C 184.97 84.57 182.21 81.91 179.81 79.87 C 180.99 77.66 187.74 78.95 184.42 76.24 C 190.67 76.96 188.77 66.24 186.78 63.30 C 190.18 58.62 181.38 60.12 181.21 55.91 C 181.76 52.15 180.59 47.79 185.74 47.54 C 186.56 44.48 184.24 41.72 184.71 38.46 C 176.87 38.11 173.92 44.91 166.27 45.63 C 162.89 43.22 160.78 42.16 156.70 41.28 C 153.70 37.05 150.31 40.16 146.59 37.44 C 141.38 34.50 133.41 36.02 127.97 37.83 C 122.47 38.26 118.11 37.52 114.28 42.30 C 113.88 48.28 115.03 54.17 114.82 60.07 C 113.37 58.29 113.79 51.28 110.40 53.35 C 108.35 56.80 106.89 60.76 106.00 64.67 C 100.73 76.42 96.42 87.20 100.80 100.21 C 95.59 98.17 97.48 85.93 97.34 81.41 C 95.22 77.15 93.38 72.83 91.63 68.41 C 86.58 70.04 77.27 74.80 75.83 80.27 C 73.43 80.90 71.23 81.50 68.82 80.42 C 73.22 76.54 76.88 72.10 81.85 68.87 C 84.65 67.51 83.85 63.48 84.77 60.78 C 86.01 61.77 86.94 64.56 86.85 61.06 C 87.37 58.82 87.55 57.03 86.30 54.99 C 86.54 49.60 84.36 47.29 80.88 43.67 L 80.99 43.01 C 81.41 41.42 81.40 39.94 82.75 38.79 C 85.68 42.55 85.30 38.79 87.79 37.07 C 91.02 40.64 94.05 39.13 97.90 40.84 C 98.89 39.09 103.27 35.53 100.44 40.04 C 103.72 41.76 104.60 36.26 107.67 36.53 C 111.02 36.47 113.19 36.08 115.85 33.90 C 119.40 31.08 121.55 35.67 125.17 34.32 C 128.17 34.05 128.74 31.82 130.80 30.13 C 130.71 35.50 137.84 29.45 139.65 28.87 Z" fill="#d5d2cd" />
<path d="M 146.59 37.44 C 150.31 40.16 153.70 37.05 156.70 41.28 C 160.78 42.16 162.89 43.22 166.27 45.63 C 173.92 44.91 176.87 38.11 184.71 38.46 C 184.24 41.72 186.56 44.48 185.74 47.54 C 180.59 47.79 181.76 52.15 181.21 55.91 C 181.38 60.12 190.18 58.62 186.78 63.30 C 188.77 66.24 190.67 76.96 184.42 76.24 C 187.74 78.95 180.99 77.66 179.81 79.87 C 182.21 81.91 184.97 84.57 187.95 85.62 C 191.24 84.54 194.49 84.69 197.89 84.54 C 196.43 87.17 196.66 91.11 192.98 91.21 C 190.66 91.11 194.71 92.99 195.09 93.32 C 196.76 92.78 200.81 90.25 199.77 93.99 C 197.62 100.38 207.18 93.85 207.02 99.88 C 203.53 103.41 203.75 103.85 204.49 108.74 C 199.77 107.98 195.76 108.55 191.89 105.22 C 192.26 106.68 192.85 107.99 193.59 109.30 C 189.72 107.65 186.80 110.17 183.50 107.85 C 179.64 107.28 180.31 103.13 176.99 100.95 C 174.93 101.62 174.33 103.03 173.31 104.78 C 171.65 102.70 174.03 100.51 171.11 98.87 C 170.11 98.07 168.61 98.23 168.81 96.67 C 167.87 92.96 174.19 92.79 173.93 89.12 C 169.53 88.51 170.30 89.61 168.69 92.73 C 163.48 92.79 159.20 94.74 154.85 91.27 C 148.32 91.01 142.76 88.42 136.11 88.82 C 125.86 84.15 121.97 75.55 115.34 67.82 C 118.73 80.72 123.98 91.91 134.38 100.60 C 137.58 103.08 140.93 102.99 144.77 103.17 C 144.43 104.61 139.51 103.67 137.93 104.91 C 136.14 105.76 134.95 105.43 133.11 105.04 C 131.17 104.47 128.98 105.93 127.02 106.16 C 128.42 102.96 120.65 101.32 118.68 100.22 C 113.39 98.38 114.00 92.73 109.69 90.31 C 106.76 89.07 108.49 83.56 107.97 80.98 C 108.32 76.30 103.80 74.26 106.16 70.14 C 106.51 68.22 109.39 65.17 106.00 64.67 C 106.89 60.76 108.35 56.80 110.40 53.35 C 113.79 51.28 113.37 58.29 114.82 60.07 C 115.03 54.17 113.88 48.28 114.28 42.30 C 118.11 37.52 122.47 38.26 127.97 37.83 C 133.41 36.02 141.38 34.50 146.59 37.44 Z" fill="#cdcac6" />
<path d="M 58.95 41.87 C 56.18 45.16 58.08 47.86 58.95 51.48 C 62.50 54.66 62.91 58.81 64.80 62.93 C 64.26 63.67 63.72 64.40 63.18 65.14 C 61.74 61.56 59.57 58.44 57.79 55.05 C 57.80 52.54 56.94 49.22 54.71 53.00 C 53.88 51.77 53.29 50.51 52.89 49.07 C 56.08 51.24 55.63 47.04 53.89 45.69 C 55.42 43.49 55.79 41.72 58.95 41.87 Z" fill="#889ba1" />
<path d="M 58.95 41.87 C 66.60 45.15 67.76 53.42 70.06 60.34 C 70.14 63.82 72.67 70.51 69.48 72.93 C 68.79 69.06 66.93 66.13 64.80 62.93 C 62.91 58.81 62.50 54.66 58.95 51.48 C 58.08 47.86 56.18 45.16 58.95 41.87 Z" fill="#262b44" />
<path d="M 188.88 41.99 C 189.91 42.27 190.95 42.53 192.00 42.76 C 193.93 43.35 195.81 43.29 197.79 43.08 C 199.17 43.51 202.87 42.30 201.69 44.73 C 200.74 46.75 197.75 45.67 196.00 45.66 C 194.77 45.24 186.79 44.17 188.88 41.99 Z" fill="#494752" />
<path d="M 197.79 43.08 C 195.81 43.29 193.93 43.35 192.00 42.76 C 194.09 41.45 195.99 41.05 197.79 43.08 Z" fill="#adadb4" />
<path d="M 76.67 43.17 C 78.10 43.02 79.56 43.03 80.99 43.01 L 80.88 43.67 C 80.45 45.82 80.09 47.98 79.77 50.14 C 79.36 48.82 79.00 47.48 78.59 46.15 C 76.88 47.65 75.26 51.76 72.67 51.30 C 74.77 48.61 76.86 46.87 76.67 43.17 Z" fill="#82898b" />
<path d="M 80.88 43.67 C 84.36 47.29 86.54 49.60 86.30 54.99 C 85.63 57.23 85.31 59.09 86.85 61.06 C 86.94 64.56 86.01 61.77 84.77 60.78 C 83.22 57.10 80.64 54.19 79.77 50.14 C 80.09 47.98 80.45 45.82 80.88 43.67 Z" fill="#252a3e" />
<path d="M 53.89 45.69 C 55.63 47.04 56.08 51.24 52.89 49.07 C 52.59 47.98 52.93 46.85 53.89 45.69 Z" fill="#131b29" />
<path d="M 78.59 46.15 C 79.00 47.48 79.36 48.82 79.77 50.14 C 80.64 54.19 83.22 57.10 84.77 60.78 C 83.85 63.48 84.65 67.51 81.85 68.87 C 76.88 72.10 73.22 76.54 68.82 80.42 C 66.12 78.88 65.28 74.22 64.00 71.53 C 63.89 69.38 63.58 67.26 63.18 65.14 C 63.72 64.40 64.26 63.67 64.80 62.93 C 66.93 66.13 68.79 69.06 69.48 72.93 C 72.67 70.51 70.14 63.82 70.06 60.34 C 72.17 57.35 70.29 53.82 72.67 51.30 C 75.26 51.76 76.88 47.65 78.59 46.15 Z" fill="#c8cac8" />
<path d="M 36.16 50.41 C 34.09 51.27 26.64 55.07 32.82 55.74 C 31.98 57.19 30.99 58.55 30.09 59.96 C 30.05 57.55 29.61 56.07 28.36 54.06 L 28.01 53.44 C 32.25 52.35 31.32 47.66 36.16 50.41 Z" fill="#6e7986" />
<path d="M 36.16 50.41 C 41.14 51.69 42.79 56.60 45.61 60.39 C 49.31 66.40 53.32 72.36 56.29 78.78 L 55.11 80.08 C 51.72 74.35 48.59 68.51 44.83 63.00 C 43.08 60.85 39.33 61.98 36.88 60.51 C 37.05 62.58 37.46 64.59 37.82 66.63 C 34.40 64.23 33.65 66.98 30.06 67.16 C 29.07 64.37 28.61 62.70 30.09 59.96 C 30.99 58.55 31.98 57.19 32.82 55.74 C 26.64 55.07 34.09 51.27 36.16 50.41 Z" fill="#262a40" />
<path d="M 57.79 55.05 C 56.79 54.49 55.24 54.06 54.71 53.00 C 56.94 49.22 57.80 52.54 57.79 55.05 Z" fill="#31404a" />
<path d="M 24.14 54.09 C 27.65 53.65 26.57 55.66 27.72 58.02 C 27.96 56.71 28.17 55.39 28.36 54.06 C 29.61 56.07 30.05 57.55 30.09 59.96 C 28.61 62.70 29.07 64.37 30.06 67.16 C 37.92 68.38 39.16 74.84 45.01 79.76 C 46.04 81.16 47.14 82.54 48.04 84.03 C 46.99 88.03 47.10 90.80 47.87 94.82 C 43.89 92.20 44.78 96.04 41.79 97.90 C 37.80 98.03 40.18 102.18 36.67 99.32 C 35.39 97.50 34.60 92.80 31.92 93.01 C 28.96 92.32 30.11 96.12 30.23 97.84 C 31.57 101.01 32.25 105.49 34.69 107.93 L 35.28 105.96 C 35.81 106.64 36.34 107.31 36.88 107.98 C 35.91 109.94 36.40 110.53 37.82 112.00 C 38.96 113.34 40.12 114.64 41.12 116.07 C 38.77 118.00 37.03 119.12 34.00 117.85 C 32.08 116.36 30.21 116.67 27.98 117.12 C 21.63 115.50 28.99 123.75 29.35 126.18 C 30.21 129.92 31.61 133.54 32.82 137.17 C 34.70 142.68 38.05 147.95 43.12 150.99 C 48.94 152.02 45.93 145.03 47.93 141.95 C 49.34 138.30 51.98 137.66 55.05 139.90 C 58.24 142.48 57.58 137.97 58.13 136.01 C 60.05 132.66 69.22 134.75 67.55 138.83 C 63.61 142.20 64.24 153.05 56.79 147.18 C 55.16 142.04 52.18 144.62 55.75 148.08 C 57.62 150.68 60.21 151.32 63.08 152.29 L 63.14 153.16 C 62.70 153.83 62.25 154.49 61.81 155.16 C 60.03 155.94 58.22 156.65 56.38 157.28 C 54.08 154.64 52.27 151.70 50.14 148.94 C 49.58 153.31 51.67 157.06 56.38 157.28 L 55.88 158.09 C 54.25 157.93 52.61 157.72 50.98 157.51 C 45.13 157.07 51.97 163.08 54.13 163.79 C 53.32 169.71 57.75 173.87 58.71 179.90 C 53.35 184.30 55.01 174.67 50.96 173.07 C 46.55 168.98 47.98 169.35 41.94 170.08 C 39.21 168.04 33.51 174.05 30.29 174.92 C 28.38 173.82 24.17 174.13 27.20 171.22 C 33.30 164.52 35.68 158.55 33.48 149.44 C 30.61 144.83 27.30 140.83 25.45 135.62 C 22.51 127.98 25.51 120.55 21.98 113.06 C 27.04 106.16 28.23 99.17 29.92 90.89 C 32.89 82.70 29.46 74.81 25.24 67.86 C 25.12 63.26 23.87 58.67 24.14 54.09 Z" fill="#efefee" />
<path d="M 198.77 57.13 C 202.02 60.40 205.19 63.52 207.30 67.69 C 208.33 68.90 208.45 71.37 210.45 70.06 C 211.36 71.26 212.05 72.47 212.63 73.85 C 211.50 76.86 213.44 78.91 216.09 80.00 C 216.88 80.81 217.59 81.52 217.90 82.65 C 215.55 84.70 216.86 88.77 213.12 87.93 C 209.54 86.62 212.82 82.73 212.65 80.14 C 209.44 78.65 204.14 80.79 201.60 78.55 C 200.73 74.41 198.74 75.00 195.41 73.60 C 196.33 68.60 195.76 69.08 192.53 65.68 C 193.51 61.34 187.71 60.97 191.42 56.46 C 193.88 51.71 195.79 55.09 198.77 57.13 Z" fill="#e3e3dd" />
<path d="M 86.30 54.99 C 87.55 57.03 87.37 58.82 86.85 61.06 C 85.31 59.09 85.63 57.23 86.30 54.99 Z" fill="#80868c" />
<path d="M 199.85 56.00 C 204.30 60.52 207.30 64.55 210.45 70.06 C 208.45 71.37 208.33 68.90 207.30 67.69 C 205.19 63.52 202.02 60.40 198.77 57.13 L 199.85 56.00 Z" fill="#6f6e73" />
<path d="M 36.88 60.51 C 39.33 61.98 43.08 60.85 44.83 63.00 C 44.00 62.99 43.17 63.00 42.35 63.01 C 45.27 67.30 48.24 71.69 50.92 76.12 C 50.73 80.64 48.23 79.09 45.01 79.76 C 39.16 74.84 37.92 68.38 30.06 67.16 C 33.65 66.98 34.40 64.23 37.82 66.63 C 37.46 64.59 37.05 62.58 36.88 60.51 Z" fill="#a9babd" />
<path d="M 42.35 63.01 C 43.17 63.00 44.00 62.99 44.83 63.00 C 48.59 68.51 51.72 74.35 55.11 80.08 C 56.35 81.47 58.34 88.28 60.46 87.09 C 64.77 92.71 59.81 92.56 62.66 97.95 C 57.50 98.66 55.84 97.52 52.33 94.09 C 55.14 91.56 48.46 87.41 48.04 84.03 C 47.14 82.54 46.04 81.16 45.01 79.76 C 48.23 79.09 50.73 80.64 50.92 76.12 C 48.24 71.69 45.27 67.30 42.35 63.01 Z" fill="#cad2d1" />
<path d="M 106.00 64.67 C 109.39 65.17 106.51 68.22 106.16 70.14 C 103.80 74.26 108.32 76.30 107.97 80.98 C 108.49 83.56 106.76 89.07 109.69 90.31 C 114.00 92.73 113.39 98.38 118.68 100.22 C 120.65 101.32 128.42 102.96 127.02 106.16 L 126.87 106.63 C 125.68 106.84 124.82 107.30 124.28 108.03 C 123.84 108.72 123.40 109.41 122.97 110.11 C 114.19 111.50 111.21 105.56 103.92 102.97 C 102.88 102.05 101.85 101.12 100.80 100.21 C 96.42 87.20 100.73 76.42 106.00 64.67 Z" fill="#bebcb9" />
<path d="M 91.63 68.41 C 93.38 72.83 95.22 77.15 97.34 81.41 C 97.48 85.93 95.59 98.17 100.80 100.21 C 101.85 101.12 102.88 102.05 103.92 102.97 C 104.02 105.13 104.19 107.13 105.11 109.12 C 104.78 111.59 104.28 113.74 105.66 116.01 C 107.26 120.09 110.52 122.38 112.99 125.79 C 109.27 130.75 111.07 136.62 107.70 141.86 C 105.67 141.04 106.27 137.82 105.39 136.00 C 105.00 138.08 104.81 140.05 104.16 142.06 C 104.05 140.13 104.24 137.74 103.27 136.03 C 101.91 132.82 101.01 142.34 99.85 137.17 C 97.59 133.66 95.97 138.42 95.25 140.31 C 91.81 148.56 83.82 152.67 75.15 149.90 C 77.38 145.49 80.74 149.13 83.81 143.98 C 87.04 141.59 90.54 138.74 92.35 135.07 C 93.48 132.87 93.28 133.81 95.13 134.57 C 94.40 129.54 92.36 121.38 86.75 119.79 C 86.83 118.19 86.87 116.59 86.86 114.99 C 85.56 117.12 84.41 119.32 82.89 121.31 C 81.61 120.41 80.35 119.60 79.23 118.50 C 80.94 117.48 82.66 116.64 84.02 115.15 C 81.27 115.78 73.66 119.33 72.67 115.04 C 75.06 112.85 81.06 104.71 73.39 106.80 C 73.29 104.71 73.76 102.74 74.23 100.72 C 74.66 100.15 75.10 99.59 75.53 99.02 C 78.04 100.82 78.31 98.09 77.98 96.20 C 78.72 94.69 82.41 85.07 77.96 87.88 C 78.05 84.09 81.02 82.31 79.86 78.17 C 76.68 77.18 78.95 81.25 78.73 82.93 C 77.73 82.07 76.78 81.17 75.83 80.27 C 77.27 74.80 86.58 70.04 91.63 68.41 Z" fill="#c3c6c4" />
<path d="M 115.34 67.82 C 121.97 75.55 125.86 84.15 136.11 88.82 C 142.76 88.42 148.32 91.01 154.85 91.27 C 159.20 94.74 163.48 92.79 168.69 92.73 C 170.30 89.61 169.53 88.51 173.93 89.12 C 174.19 92.79 167.87 92.96 168.81 96.67 C 168.61 98.23 170.11 98.07 171.11 98.87 L 169.02 99.13 C 166.20 99.87 163.54 101.49 161.03 102.94 C 162.23 105.06 163.59 107.08 164.80 109.20 C 165.43 110.78 166.03 112.36 166.47 114.00 C 163.26 116.66 161.06 110.92 159.15 109.17 C 157.28 111.35 153.55 111.15 154.58 107.64 C 155.80 103.51 152.48 105.57 149.89 105.05 C 148.20 105.05 146.51 105.12 144.82 105.15 C 142.53 105.03 140.22 104.93 137.93 104.91 C 139.51 103.67 144.43 104.61 144.77 103.17 C 140.93 102.99 137.58 103.08 134.38 100.60 C 123.98 91.91 118.73 80.72 115.34 67.82 Z" fill="#bbbbb8" />
<path d="M 138.09 70.02 C 142.45 71.88 147.09 74.63 151.76 75.60 C 153.53 74.22 154.42 71.48 156.99 71.92 C 160.11 71.23 164.04 75.98 165.66 71.57 C 171.03 69.43 173.62 74.62 179.80 71.08 C 177.84 78.92 166.37 86.54 158.33 83.63 C 150.41 80.07 143.13 77.63 138.09 70.02 Z" fill="#bebcb7" />
<path d="M 64.00 71.53 C 65.28 74.22 66.12 78.88 68.82 80.42 C 71.23 81.50 73.43 80.90 75.83 80.27 C 76.78 81.17 77.73 82.07 78.73 82.93 C 78.95 81.25 76.68 77.18 79.86 78.17 C 81.02 82.31 78.05 84.09 77.96 87.88 C 77.80 90.62 77.65 93.47 77.98 96.20 C 76.93 96.99 76.20 97.90 75.53 99.02 C 75.10 99.59 74.66 100.15 74.23 100.72 C 72.47 102.15 70.67 103.54 68.89 104.95 C 67.38 104.78 66.19 104.78 64.97 105.79 C 61.68 107.89 58.58 110.04 54.91 111.46 C 55.25 108.04 60.39 108.29 59.71 102.47 C 55.94 101.37 52.70 100.11 49.95 97.20 C 47.20 99.95 41.66 106.49 41.79 97.90 C 44.78 96.04 43.89 92.20 47.87 94.82 C 47.10 90.80 46.99 88.03 48.04 84.03 C 48.46 87.41 55.14 91.56 52.33 94.09 C 55.84 97.52 57.50 98.66 62.66 97.95 C 59.81 92.56 64.77 92.71 60.46 87.09 C 59.89 85.78 59.34 84.47 58.79 83.15 C 58.60 81.42 58.39 79.68 58.30 77.94 C 59.72 78.69 60.25 79.98 61.24 81.18 C 63.08 78.37 62.62 74.65 64.00 71.53 Z" fill="#e0ded9" />
<path d="M 88.18 72.02 C 95.58 78.89 96.22 86.27 94.59 95.63 C 94.23 96.72 93.95 103.41 91.87 101.10 C 91.87 99.32 91.89 97.58 91.46 95.83 C 90.44 90.23 86.68 87.09 83.86 82.51 C 85.33 79.05 86.42 75.33 88.18 72.02 Z" fill="#a8bfc1" />
<path d="M 212.63 73.85 C 213.67 75.96 214.86 78.00 216.09 80.00 C 213.44 78.91 211.50 76.86 212.63 73.85 Z" fill="#a0a09f" />
<path d="M 83.86 82.51 C 86.68 87.09 90.44 90.23 91.46 95.83 C 91.12 97.27 90.77 98.68 90.14 100.02 C 90.61 89.67 79.26 89.60 81.00 79.95 C 80.55 75.45 82.87 81.68 83.86 82.51 Z" fill="#21263b" />
<path d="M 56.29 78.78 C 57.11 80.24 57.97 81.69 58.79 83.15 C 59.34 84.47 59.89 85.78 60.46 87.09 C 58.34 88.28 56.35 81.47 55.11 80.08 L 56.29 78.78 Z" fill="#666a71" />
<path d="M 77.98 96.20 C 77.65 93.47 77.80 90.62 77.96 87.88 C 82.41 85.07 78.72 94.69 77.98 96.20 Z" fill="#686c74" />
<path d="M 221.34 90.96 C 223.25 95.37 227.77 100.46 231.87 102.94 C 232.58 103.76 238.21 106.17 234.93 106.63 C 233.17 105.76 231.96 105.65 230.03 106.01 C 224.99 106.33 221.35 106.23 217.68 110.24 C 216.44 106.79 223.63 101.46 226.99 102.36 C 225.91 100.18 217.84 92.50 221.34 90.96 Z" fill="#2e2e42" />
<path d="M 31.92 93.01 C 31.56 97.85 33.66 101.60 35.28 105.96 L 34.69 107.93 C 32.25 105.49 31.57 101.01 30.23 97.84 C 30.11 96.12 28.96 92.32 31.92 93.01 Z" fill="#f6f5f7" />
<path d="M 31.92 93.01 C 34.60 92.80 35.39 97.50 36.67 99.32 C 39.28 105.53 47.75 113.88 54.91 111.46 C 58.58 110.04 61.68 107.89 64.97 105.79 C 66.94 106.79 68.08 107.70 68.89 104.95 C 70.67 103.54 72.47 102.15 74.23 100.72 C 73.76 102.74 73.29 104.71 73.39 106.80 C 81.06 104.71 75.06 112.85 72.67 115.04 C 72.08 115.62 71.49 116.20 70.89 116.77 C 69.17 118.15 67.43 119.50 65.79 120.97 C 63.76 120.71 62.00 120.76 59.99 121.20 C 58.60 121.10 57.22 121.02 55.83 120.96 C 57.22 119.41 61.02 117.80 59.75 115.31 C 55.95 112.23 53.53 117.95 50.25 114.74 C 45.48 110.34 50.44 118.37 50.79 120.20 C 47.10 118.99 43.61 115.81 40.21 119.20 C 36.77 120.32 32.51 119.38 29.48 121.26 C 29.41 122.90 29.46 124.54 29.35 126.18 C 28.99 123.75 21.63 115.50 27.98 117.12 C 29.89 118.70 31.76 118.30 34.00 117.85 C 37.03 119.12 38.77 118.00 41.12 116.07 C 40.12 114.64 38.96 113.34 37.82 112.00 C 38.79 109.85 39.49 109.08 36.88 107.98 C 36.34 107.31 35.81 106.64 35.28 105.96 C 33.66 101.60 31.56 97.85 31.92 93.01 Z" fill="#282b3f" />
<path d="M 84.45 93.12 C 87.32 97.75 88.66 100.57 83.23 103.89 C 81.95 100.66 82.52 98.89 83.64 95.79 C 83.90 94.90 84.17 94.01 84.45 93.12 Z" fill="#282d43" />
<path d="M 77.98 96.20 C 78.31 98.09 78.04 100.82 75.53 99.02 C 76.20 97.90 76.93 96.99 77.98 96.20 Z" fill="#6e6d78" />
<path d="M 91.46 95.83 C 91.89 97.58 91.87 99.32 91.87 101.10 C 90.69 102.16 89.53 103.22 88.24 104.14 C 88.82 102.74 89.51 101.40 90.14 100.02 C 90.77 98.68 91.12 97.27 91.46 95.83 Z" fill="#737b86" />
<path d="M 49.95 97.20 C 52.70 100.11 55.94 101.37 59.71 102.47 C 60.39 108.29 55.25 108.04 54.91 111.46 C 47.75 113.88 39.28 105.53 36.67 99.32 C 40.18 102.18 37.80 98.03 41.79 97.90 C 41.66 106.49 47.20 99.95 49.95 97.20 Z" fill="#cfcdc9" />
<path d="M 169.02 99.13 C 171.29 108.11 164.56 101.26 164.80 109.20 C 163.59 107.08 162.23 105.06 161.03 102.94 C 163.54 101.49 166.20 99.87 169.02 99.13 Z" fill="#2c2d46" />
<path d="M 169.02 99.13 L 171.11 98.87 C 171.30 102.56 170.42 105.26 168.78 108.48 C 166.89 107.30 167.23 106.69 165.48 108.59 L 164.80 109.20 C 164.56 101.26 171.29 108.11 169.02 99.13 Z" fill="#686877" />
<path d="M 171.11 98.87 C 174.03 100.51 171.65 102.70 173.31 104.78 C 174.33 103.03 174.93 101.62 176.99 100.95 C 180.31 103.13 179.64 107.28 183.50 107.85 C 186.80 110.17 189.72 107.65 193.59 109.30 C 195.88 112.04 198.27 114.23 199.17 117.86 C 200.51 121.47 198.91 124.70 202.81 126.83 C 208.71 129.96 207.18 134.52 210.88 139.11 C 210.67 140.13 210.40 141.14 210.07 142.14 C 208.08 141.06 206.58 140.36 205.73 138.10 C 205.47 135.90 207.39 132.96 204.16 135.54 C 203.01 133.75 202.11 132.33 200.25 131.19 C 209.16 131.27 198.83 126.12 196.69 124.37 C 191.85 124.95 188.00 122.58 183.14 123.80 C 184.50 118.87 181.94 118.37 181.48 114.21 C 179.28 113.80 180.54 118.39 178.46 119.41 C 175.95 118.12 174.74 115.31 171.76 117.06 C 168.82 114.80 167.27 111.74 165.48 108.59 C 167.23 106.69 166.89 107.30 168.78 108.48 C 170.42 105.26 171.30 102.56 171.11 98.87 Z" fill="#b5b5b2" />
<path d="M 103.92 102.97 C 111.21 105.56 114.19 111.50 122.97 110.11 C 125.59 108.82 135.90 109.77 133.11 105.04 C 134.95 105.43 136.14 105.76 137.93 104.91 C 140.22 104.93 142.53 105.03 144.82 105.15 C 145.81 105.80 149.48 105.60 148.20 107.37 C 146.24 111.52 148.93 114.74 149.24 118.75 C 147.42 122.75 149.79 128.92 143.47 127.51 C 142.07 132.00 141.61 133.59 136.78 134.95 C 133.95 131.52 132.37 132.05 128.19 131.78 C 125.03 129.11 123.24 127.45 118.77 128.12 L 117.85 128.11 C 116.13 127.49 114.55 126.73 112.99 125.79 C 110.52 122.38 107.26 120.09 105.66 116.01 C 106.29 113.49 106.86 111.35 105.11 109.12 C 104.19 107.13 104.02 105.13 103.92 102.97 Z" fill="#242843" />
<path d="M 133.11 105.04 C 135.90 109.77 125.59 108.82 122.97 110.11 C 123.40 109.41 123.84 108.72 124.28 108.03 C 126.47 108.64 133.59 107.85 126.87 106.63 L 127.02 106.16 C 128.98 105.93 131.17 104.47 133.11 105.04 Z" fill="#848491" />
<path d="M 68.89 104.95 C 68.08 107.70 66.94 106.79 64.97 105.79 C 66.19 104.78 67.38 104.78 68.89 104.95 Z" fill="#898a93" />
<path d="M 144.82 105.15 C 146.51 105.12 148.20 105.05 149.89 105.05 C 156.23 107.36 150.81 109.51 149.50 113.12 C 152.88 118.90 148.10 123.88 148.70 130.71 C 145.13 133.62 146.82 131.27 147.65 128.87 C 145.41 129.14 144.83 130.16 143.63 131.88 C 142.38 133.35 142.49 134.97 141.92 136.71 C 140.20 136.37 138.16 136.05 136.78 134.95 C 141.61 133.59 142.07 132.00 143.47 127.51 C 149.79 128.92 147.42 122.75 149.24 118.75 C 148.93 114.74 146.24 111.52 148.20 107.37 C 149.48 105.60 145.81 105.80 144.82 105.15 Z" fill="#62717f" />
<path d="M 149.89 105.05 C 152.48 105.57 155.80 103.51 154.58 107.64 C 153.55 111.15 157.28 111.35 159.15 109.17 C 161.06 110.92 163.26 116.66 166.47 114.00 C 166.61 114.98 166.50 115.93 166.37 116.89 C 162.27 119.80 163.51 120.57 164.14 125.03 C 163.44 126.15 162.56 127.20 161.73 128.24 C 160.55 129.48 157.72 129.84 158.88 131.94 C 159.13 134.41 160.68 133.60 162.49 134.21 C 161.28 135.96 161.06 136.79 161.35 138.98 C 155.45 138.74 156.41 142.87 150.75 141.18 C 151.87 139.18 152.79 137.42 154.75 136.13 C 153.49 135.69 150.05 136.73 150.58 134.60 C 151.11 130.86 145.90 133.84 143.63 131.88 C 144.83 130.16 145.41 129.14 147.65 128.87 C 146.82 131.27 145.13 133.62 148.70 130.71 C 148.10 123.88 152.88 118.90 149.50 113.12 C 150.81 109.51 156.23 107.36 149.89 105.05 Z" fill="#9eb6b8" />
<path d="M 230.03 106.01 L 229.91 106.67 C 225.65 107.49 231.60 108.35 232.67 109.23 C 223.31 117.14 217.57 130.25 224.28 141.70 C 225.87 143.68 223.61 143.56 222.35 144.51 C 225.32 148.85 229.63 151.61 232.87 155.62 C 231.55 155.71 230.23 155.75 228.92 155.81 C 225.46 153.62 228.63 160.51 228.21 161.97 C 227.60 161.61 226.98 161.25 226.37 160.88 C 224.99 156.79 224.06 154.61 219.64 153.36 C 218.73 151.19 218.08 149.96 216.05 148.65 C 213.71 146.75 212.38 144.06 210.07 142.14 C 210.40 141.14 210.67 140.13 210.88 139.11 C 207.18 134.52 208.71 129.96 202.81 126.83 C 204.68 123.94 205.68 126.80 207.79 127.75 C 208.23 125.19 206.10 117.81 210.74 121.66 C 209.13 116.46 214.65 113.44 217.68 110.24 C 221.35 106.23 224.99 106.33 230.03 106.01 Z" fill="#efeeed" />
<path d="M 230.03 106.01 C 231.96 105.65 233.17 105.76 234.93 106.63 C 233.28 107.52 231.60 107.26 229.91 106.67 L 230.03 106.01 Z" fill="#85859a" />
<path d="M 126.87 106.63 C 133.59 107.85 126.47 108.64 124.28 108.03 C 124.82 107.30 125.68 106.84 126.87 106.63 Z" fill="#3a3a49" />
<path d="M 36.88 107.98 C 39.49 109.08 38.79 109.85 37.82 112.00 C 36.40 110.53 35.91 109.94 36.88 107.98 Z" fill="#757584" />
<path d="M 105.11 109.12 C 106.86 111.35 106.29 113.49 105.66 116.01 C 104.28 113.74 104.78 111.59 105.11 109.12 Z" fill="#6a6872" />
<path d="M 164.80 109.20 L 165.48 108.59 C 167.27 111.74 168.82 114.80 171.76 117.06 C 177.14 121.27 175.71 127.12 177.69 133.19 C 183.65 150.59 183.79 170.64 168.74 183.36 C 161.58 187.89 153.89 187.17 146.13 189.67 C 142.73 191.29 139.55 192.00 135.87 192.64 C 133.77 193.13 131.84 193.87 129.82 194.60 C 127.46 195.32 125.14 196.18 122.85 197.10 L 122.17 196.84 L 121.87 196.21 C 126.74 192.67 132.09 190.16 137.15 186.94 C 139.00 185.76 143.31 184.84 142.94 182.09 C 139.83 183.15 137.26 184.85 133.86 184.97 C 137.50 180.41 142.59 179.00 146.96 175.49 C 150.93 172.92 153.95 169.44 157.43 166.31 C 159.00 164.96 161.17 162.80 159.28 160.76 C 156.04 159.13 151.39 158.94 150.11 154.90 C 150.52 151.43 150.91 147.93 151.40 144.46 C 155.55 143.07 158.36 140.46 162.89 142.00 C 163.61 146.18 165.85 147.35 168.98 149.67 C 172.43 145.10 172.74 139.69 172.02 134.22 C 171.58 131.26 163.52 132.06 161.73 128.24 C 162.56 127.20 163.44 126.15 164.14 125.03 C 165.17 122.46 166.07 119.66 166.37 116.89 C 166.50 115.93 166.61 114.98 166.47 114.00 C 166.03 112.36 165.43 110.78 164.80 109.20 Z" fill="#262943" />
<path d="M 50.25 114.74 C 53.53 117.95 55.95 112.23 59.75 115.31 C 61.02 117.80 57.22 119.41 55.83 120.96 C 54.05 120.88 52.42 121.03 50.79 120.20 C 50.44 118.37 45.48 110.34 50.25 114.74 Z" fill="#c6ba36" />
<path d="M 181.48 114.21 C 181.94 118.37 184.50 118.87 183.14 123.80 C 188.00 122.58 191.85 124.95 196.69 124.37 C 198.83 126.12 209.16 131.27 200.25 131.19 C 202.11 132.33 203.01 133.75 204.16 135.54 C 207.39 132.96 205.47 135.90 205.73 138.10 C 200.76 135.94 205.66 139.98 201.69 140.66 C 198.70 141.12 195.23 140.01 192.21 139.66 C 191.17 135.68 192.89 132.99 194.11 129.42 C 191.40 129.52 187.84 131.44 185.70 129.33 C 183.05 127.43 180.75 129.80 178.82 126.33 C 176.67 124.39 178.31 121.91 178.46 119.41 C 180.54 118.39 179.28 113.80 181.48 114.21 Z" fill="#a6a4a2" />
<path d="M 72.67 115.04 C 73.66 119.33 81.27 115.78 84.02 115.15 C 82.66 116.64 80.94 117.48 79.23 118.50 C 80.35 119.60 81.61 120.41 82.89 121.31 L 82.88 122.09 C 80.96 121.32 79.07 120.56 77.05 120.08 C 77.50 121.87 78.22 123.55 78.97 125.23 L 77.09 124.96 C 75.70 120.33 75.73 118.75 70.89 116.77 C 71.49 116.20 72.08 115.62 72.67 115.04 Z" fill="#667479" />
<path d="M 86.86 114.99 C 86.87 116.59 86.83 118.19 86.75 119.79 C 81.99 124.67 92.84 128.53 92.35 135.07 C 90.54 138.74 87.04 141.59 83.81 143.98 C 81.52 143.68 80.88 144.78 81.85 142.03 C 84.50 140.99 85.50 141.06 86.14 138.12 C 87.94 135.42 88.54 134.00 87.40 130.77 C 86.57 127.40 84.66 124.98 82.88 122.09 L 82.89 121.31 C 84.41 119.32 85.56 117.12 86.86 114.99 Z" fill="#24273b" />
<path d="M 178.46 119.41 C 178.31 121.91 176.67 124.39 178.82 126.33 C 178.59 128.65 178.07 130.87 177.69 133.19 C 175.71 127.12 177.14 121.27 171.76 117.06 C 174.74 115.31 175.95 118.12 178.46 119.41 Z" fill="#67626f" />
<path d="M 27.98 117.12 C 30.21 116.67 32.08 116.36 34.00 117.85 C 31.76 118.30 29.89 118.70 27.98 117.12 Z" fill="#aaadb3" />
<path d="M 50.79 120.20 C 52.42 121.03 54.05 120.88 55.83 120.96 C 57.22 121.02 58.60 121.10 59.99 121.20 C 61.98 122.59 64.06 123.00 65.79 120.97 C 67.43 119.50 69.17 118.15 70.89 116.77 C 75.73 118.75 75.70 120.33 77.09 124.96 C 71.12 125.76 60.30 121.11 58.84 129.97 C 56.61 132.15 56.67 134.91 55.71 137.78 C 53.40 136.32 51.44 132.83 48.33 134.28 C 45.57 136.09 44.77 140.59 43.37 143.45 C 41.85 143.45 40.34 143.39 38.82 143.31 C 35.81 140.67 34.69 137.33 33.09 133.81 C 32.53 127.83 35.02 134.84 36.69 136.03 C 36.88 133.18 34.21 130.65 38.77 131.75 C 37.18 130.38 34.57 125.09 38.89 127.32 C 43.90 124.73 42.05 123.37 40.21 119.20 C 43.61 115.81 47.10 118.99 50.79 120.20 Z" fill="#b0c3c6" />
<path d="M 166.37 116.89 C 166.07 119.66 165.17 122.46 164.14 125.03 C 163.51 120.57 162.27 119.80 166.37 116.89 Z" fill="#59646e" />
<path d="M 40.21 119.20 C 42.05 123.37 43.90 124.73 38.89 127.32 C 34.57 125.09 37.18 130.38 38.77 131.75 C 34.21 130.65 36.88 133.18 36.69 136.03 C 35.02 134.84 32.53 127.83 33.09 133.81 C 33.00 134.93 32.91 136.05 32.82 137.17 C 31.61 133.54 30.21 129.92 29.35 126.18 C 29.46 124.54 29.41 122.90 29.48 121.26 C 32.51 119.38 36.77 120.32 40.21 119.20 Z" fill="#92aaad" />
<path d="M 77.05 120.08 C 79.07 120.56 80.96 121.32 82.88 122.09 C 84.66 124.98 86.57 127.40 87.40 130.77 C 86.94 133.22 86.43 135.65 86.14 138.12 C 85.50 141.06 84.50 140.99 81.85 142.03 C 80.58 142.36 79.31 142.68 78.03 142.96 C 77.02 142.95 76.02 142.98 75.03 143.06 C 74.72 140.19 78.35 138.26 79.87 136.06 L 80.41 135.25 C 80.60 134.58 80.72 133.90 80.78 133.22 C 81.23 130.60 80.51 128.40 79.37 126.08 L 78.97 125.23 C 78.22 123.55 77.50 121.87 77.05 120.08 Z" fill="#f0efef" />
<path d="M 86.75 119.79 C 92.36 121.38 94.40 129.54 95.13 134.57 C 93.28 133.81 93.48 132.87 92.35 135.07 C 92.84 128.53 81.99 124.67 86.75 119.79 Z" fill="#a7b8bd" />
<path d="M 59.99 121.20 C 62.00 120.76 63.76 120.71 65.79 120.97 C 64.06 123.00 61.98 122.59 59.99 121.20 Z" fill="#6c7b88" />
<path d="M 77.09 124.96 L 78.97 125.23 L 79.37 126.08 C 76.62 127.27 73.86 127.12 70.94 127.10 C 65.73 124.89 62.95 126.98 58.84 129.97 C 60.30 121.11 71.12 125.76 77.09 124.96 Z" fill="#2b2d41" />
<path d="M 210.04 124.12 C 212.73 123.64 212.80 130.25 213.97 132.11 C 211.03 130.01 210.23 127.64 210.04 124.12 Z" fill="#565764" />
<path d="M 70.94 127.10 C 73.43 128.13 75.90 127.88 78.48 128.39 C 79.12 130.10 79.66 131.75 80.78 133.22 C 80.72 133.90 80.60 134.58 80.41 135.25 C 78.72 132.79 77.79 133.02 75.00 133.10 C 76.50 134.41 78.00 135.34 79.87 136.06 C 78.35 138.26 74.72 140.19 75.03 143.06 C 74.23 145.94 80.55 146.16 78.03 142.96 C 79.31 142.68 80.58 142.36 81.85 142.03 C 80.88 144.78 81.52 143.68 83.81 143.98 C 80.74 149.13 77.38 145.49 75.15 149.90 C 72.53 156.99 67.26 162.60 60.12 165.21 C 57.83 166.28 56.31 164.51 54.13 163.79 C 51.97 163.08 45.13 157.07 50.98 157.51 C 49.84 161.76 60.21 162.14 62.22 158.79 C 63.13 158.18 63.68 157.31 64.24 156.40 C 65.56 154.09 67.37 151.74 67.95 149.13 C 66.13 149.10 64.50 152.05 63.14 153.16 L 63.08 152.29 C 65.17 148.19 67.32 143.48 67.55 138.83 C 69.22 134.75 60.05 132.66 58.13 136.01 C 58.34 133.99 58.61 131.99 58.84 129.97 C 62.95 126.98 65.73 124.89 70.94 127.10 Z" fill="#b5b4bc" />
<path d="M 79.37 126.08 C 80.51 128.40 81.23 130.60 80.78 133.22 C 79.66 131.75 79.12 130.10 78.48 128.39 C 75.90 127.88 73.43 128.13 70.94 127.10 C 73.86 127.12 76.62 127.27 79.37 126.08 Z" fill="#8b8294" />
<path d="M 112.99 125.79 C 113.61 138.62 108.92 149.53 103.33 160.73 C 101.56 163.86 99.97 167.07 98.14 170.17 C 98.19 169.16 98.24 168.15 98.29 167.14 C 99.40 164.41 100.72 162.05 101.00 159.05 C 99.11 160.24 97.48 161.38 97.14 163.76 C 96.68 165.42 96.24 167.09 95.82 168.76 C 93.51 171.38 92.90 172.53 93.15 176.16 C 91.34 176.48 90.71 177.29 89.91 178.85 C 89.31 179.28 88.73 179.72 88.16 180.18 C 85.73 182.92 84.30 185.99 82.52 189.09 C 79.17 189.49 78.25 191.66 76.25 193.98 C 75.67 193.86 75.09 193.75 74.51 193.64 C 73.84 193.03 73.44 192.47 72.47 192.55 C 69.91 191.80 68.82 195.23 67.06 194.90 C 62.31 191.22 64.97 189.78 66.06 184.98 C 66.25 184.38 66.44 183.78 66.61 183.17 C 74.00 164.27 93.79 164.49 102.17 148.24 C 102.92 146.21 103.48 144.11 104.16 142.06 C 104.81 140.05 105.00 138.08 105.39 136.00 C 106.27 137.82 105.67 141.04 107.70 141.86 C 111.07 136.62 109.27 130.75 112.99 125.79 Z" fill="#eeefee" />
<path d="M 112.99 125.79 C 114.55 126.73 116.13 127.49 117.85 128.11 C 117.28 130.31 113.80 136.10 118.65 135.53 C 124.46 135.41 126.20 138.89 127.20 143.76 C 130.06 143.29 133.90 151.04 133.71 145.91 C 135.17 146.69 135.69 148.03 135.88 149.60 C 133.60 150.31 131.43 149.57 130.39 152.21 L 129.62 152.11 C 123.81 149.81 122.79 145.35 119.28 140.89 C 117.79 139.34 115.30 135.99 114.41 139.84 C 117.36 148.26 109.14 156.52 106.03 164.10 C 105.23 162.88 104.38 161.74 103.33 160.73 C 108.92 149.53 113.61 138.62 112.99 125.79 Z" fill="#becfcf" />
<path d="M 178.82 126.33 C 180.75 129.80 183.05 127.43 185.70 129.33 C 187.84 131.44 191.40 129.52 194.11 129.42 C 192.89 132.99 191.17 135.68 192.21 139.66 C 195.23 140.01 198.70 141.12 201.69 140.66 C 205.66 139.98 200.76 135.94 205.73 138.10 C 206.58 140.36 208.08 141.06 210.07 142.14 C 212.38 144.06 213.71 146.75 216.05 148.65 C 208.62 149.60 212.82 155.14 216.96 157.07 C 213.83 161.84 217.41 163.70 218.97 167.89 C 212.16 167.64 206.78 165.47 200.30 169.28 C 198.59 170.32 196.47 170.84 196.69 173.24 C 196.38 174.68 196.90 175.59 195.08 175.98 L 194.87 173.75 C 194.35 168.99 190.16 177.29 188.02 174.00 C 182.30 169.83 182.46 181.49 177.02 180.05 C 173.13 179.45 172.10 184.42 168.74 183.36 C 183.79 170.64 183.65 150.59 177.69 133.19 C 178.07 130.87 178.59 128.65 178.82 126.33 Z" fill="#968884" />
<path d="M 117.85 128.11 L 118.77 128.12 C 121.94 129.21 124.90 131.68 128.19 131.78 C 132.37 132.05 133.95 131.52 136.78 134.95 C 138.16 136.05 140.20 136.37 141.92 136.71 C 142.49 134.97 142.38 133.35 143.63 131.88 C 145.90 133.84 151.11 130.86 150.58 134.60 C 150.05 136.73 153.49 135.69 154.75 136.13 C 152.79 137.42 151.87 139.18 150.75 141.18 C 150.53 138.32 150.69 134.93 147.26 138.08 C 145.46 140.98 146.22 144.43 145.78 147.83 C 142.75 148.82 144.77 144.58 144.47 142.92 C 137.98 142.90 141.62 151.53 135.88 153.95 C 133.50 154.48 132.23 153.48 130.39 152.21 C 131.43 149.57 133.60 150.31 135.88 149.60 C 135.69 148.03 135.17 146.69 133.71 145.91 C 133.90 151.04 130.06 143.29 127.20 143.76 C 126.20 138.89 124.46 135.41 118.65 135.53 C 113.80 136.10 117.28 130.31 117.85 128.11 Z" fill="#acc3c4" />
<path d="M 118.77 128.12 C 123.24 127.45 125.03 129.11 128.19 131.78 C 124.90 131.68 121.94 129.21 118.77 128.12 Z" fill="#7c8997" />
<path d="M 161.73 128.24 C 163.52 132.06 171.58 131.26 172.02 134.22 C 166.68 135.73 164.00 131.64 158.88 131.94 C 157.72 129.84 160.55 129.48 161.73 128.24 Z" fill="#656871" />
<path d="M 58.84 129.97 C 58.61 131.99 58.34 133.99 58.13 136.01 C 57.58 137.97 58.24 142.48 55.05 139.90 C 51.98 137.66 49.34 138.30 47.93 141.95 C 45.93 145.03 48.94 152.02 43.12 150.99 C 38.05 147.95 34.70 142.68 32.82 137.17 C 32.91 136.05 33.00 134.93 33.09 133.81 C 34.69 137.33 35.81 140.67 38.82 143.31 C 41.27 145.12 41.85 148.09 43.37 143.45 C 44.77 140.59 45.57 136.09 48.33 134.28 C 51.44 132.83 53.40 136.32 55.71 137.78 C 56.67 134.91 56.61 132.15 58.84 129.97 Z" fill="#2a2b40" />
<path d="M 87.40 130.77 C 88.54 134.00 87.94 135.42 86.14 138.12 C 86.43 135.65 86.94 133.22 87.40 130.77 Z" fill="#787a86" />
<path d="M 158.88 131.94 C 164.00 131.64 166.68 135.73 172.02 134.22 C 172.74 139.69 172.43 145.10 168.98 149.67 C 165.85 147.35 163.61 146.18 162.89 142.00 C 162.57 140.88 162.01 139.93 161.35 138.98 C 161.06 136.79 161.28 135.96 162.49 134.21 C 160.68 133.60 159.13 134.41 158.88 131.94 Z" fill="#969999" />
<path d="M 213.97 132.11 C 215.15 132.92 215.72 133.72 216.27 135.04 L 215.06 136.03 C 213.95 134.71 213.83 133.79 213.97 132.11 Z" fill="#252e3d" />
<path d="M 75.00 133.10 C 77.79 133.02 78.72 132.79 80.41 135.25 L 79.87 136.06 C 78.00 135.34 76.50 134.41 75.00 133.10 Z" fill="#352e43" />
<path d="M 70.27 134.12 C 65.38 139.89 75.49 134.16 70.27 134.12 Z" fill="#645165" />
<path d="M 103.27 136.03 C 103.10 139.78 102.25 143.37 101.31 146.98 C 98.15 152.07 94.45 155.87 89.41 159.11 C 89.37 154.62 82.16 161.59 80.02 162.07 C 74.15 164.41 71.72 169.74 68.96 174.98 C 67.77 177.77 65.62 180.03 66.61 183.17 C 66.44 183.78 66.25 184.38 66.06 184.98 C 63.81 185.54 63.85 187.67 62.85 189.47 C 60.91 187.49 60.59 181.95 57.12 183.04 C 54.09 184.60 51.46 186.76 48.24 188.04 C 49.13 181.64 45.49 174.30 39.97 171.06 C 40.61 170.72 41.27 170.39 41.94 170.08 C 47.98 169.35 46.55 168.98 50.96 173.07 C 55.01 174.67 53.35 184.30 58.71 179.90 C 57.75 173.87 53.32 169.71 54.13 163.79 C 56.31 164.51 57.83 166.28 60.12 165.21 C 67.26 162.60 72.53 156.99 75.15 149.90 C 83.82 152.67 91.81 148.56 95.25 140.31 C 95.97 138.42 97.59 133.66 99.85 137.17 C 101.01 142.34 101.91 132.82 103.27 136.03 Z" fill="#d1d1ce" />
<path d="M 216.27 135.04 C 219.75 138.48 217.10 140.80 215.06 136.03 L 216.27 135.04 Z" fill="#88898f" />
<path d="M 48.29 136.14 C 50.93 135.19 51.59 137.09 49.12 138.24 C 46.56 139.65 46.38 137.27 48.29 136.14 Z" fill="#646581" />
<path d="M 103.27 136.03 C 104.24 137.74 104.05 140.13 104.16 142.06 C 103.48 144.11 102.92 146.21 102.17 148.24 L 101.31 146.98 C 102.25 143.37 103.10 139.78 103.27 136.03 Z" fill="#747575" />
<path d="M 150.75 141.18 C 150.97 147.59 146.66 151.72 146.27 157.73 C 148.44 160.57 152.74 161.68 155.96 163.02 C 158.83 163.16 157.39 164.32 157.43 166.31 C 153.95 169.44 150.93 172.92 146.96 175.49 C 146.48 174.02 146.13 172.53 145.87 171.01 C 148.29 169.16 145.50 168.40 143.87 167.87 C 147.12 162.89 144.10 156.58 137.74 158.80 C 134.29 156.86 137.57 154.68 131.27 154.74 C 130.66 153.91 130.12 153.03 129.62 152.11 L 130.39 152.21 C 132.23 153.48 133.50 154.48 135.88 153.95 C 141.62 151.53 137.98 142.90 144.47 142.92 C 144.77 144.58 142.75 148.82 145.78 147.83 C 146.22 144.43 145.46 140.98 147.26 138.08 C 150.69 134.93 150.53 138.32 150.75 141.18 Z" fill="#9daeaf" />
<path d="M 119.28 140.89 C 116.64 142.31 116.48 141.36 114.41 139.84 C 115.30 135.99 117.79 139.34 119.28 140.89 Z" fill="#727281" />
<path d="M 67.55 138.83 C 67.32 143.48 65.17 148.19 63.08 152.29 C 60.21 151.32 57.62 150.68 55.75 148.08 L 56.79 147.18 C 64.24 153.05 63.61 142.20 67.55 138.83 Z" fill="#38364a" />
<path d="M 161.35 138.98 C 162.01 139.93 162.57 140.88 162.89 142.00 C 158.36 140.46 155.55 143.07 151.40 144.46 C 150.91 147.93 150.52 151.43 150.11 154.90 C 151.39 158.94 156.04 159.13 159.28 160.76 C 161.17 162.80 159.00 164.96 157.43 166.31 C 157.39 164.32 158.83 163.16 155.96 163.02 C 152.74 161.68 148.44 160.57 146.27 157.73 C 146.66 151.72 150.97 147.59 150.75 141.18 C 156.41 142.87 155.45 138.74 161.35 138.98 Z" fill="#646f7c" />
<path d="M 114.41 139.84 C 116.48 141.36 116.64 142.31 119.28 140.89 C 122.79 145.35 123.81 149.81 129.62 152.11 C 130.12 153.03 130.66 153.91 131.27 154.74 C 133.81 157.40 135.66 160.86 137.30 164.11 C 136.42 166.44 131.14 167.93 133.26 171.34 C 133.67 176.16 128.33 174.54 125.34 175.40 C 121.79 175.90 120.18 178.39 118.13 180.97 C 119.71 182.54 121.40 183.73 122.24 185.89 C 120.54 188.80 119.10 191.52 115.96 193.10 C 110.13 187.43 111.67 182.86 106.68 177.34 C 104.00 172.73 105.72 168.96 106.03 164.10 C 109.14 156.52 117.36 148.26 114.41 139.84 Z" fill="#232742" />
<path d="M 38.82 143.31 C 40.34 143.39 41.85 143.45 43.37 143.45 C 41.85 148.09 41.27 145.12 38.82 143.31 Z" fill="#f0f7fa" />
<path d="M 75.03 143.06 C 76.02 142.98 77.02 142.95 78.03 142.96 C 80.55 146.16 74.23 145.94 75.03 143.06 Z" fill="#475058" />
<path d="M 56.79 147.18 L 55.75 148.08 C 52.18 144.62 55.16 142.04 56.79 147.18 Z" fill="#a7a7ad" />
<path d="M 202.06 144.26 C 203.82 145.19 207.09 146.04 207.91 147.93 C 206.76 149.57 204.95 155.15 202.37 153.79 C 202.06 151.08 199.98 146.53 202.06 144.26 Z" fill="#a7afae" />
<path d="M 101.31 146.98 L 102.17 148.24 C 93.79 164.49 74.00 164.27 66.61 183.17 C 65.62 180.03 67.77 177.77 68.96 174.98 C 71.72 169.74 74.15 164.41 80.02 162.07 C 79.46 163.05 78.87 164.01 78.29 164.98 C 77.28 165.37 74.69 166.32 75.41 167.80 C 77.03 168.72 78.26 166.35 78.97 165.24 C 82.73 163.73 86.22 161.59 89.41 159.11 C 94.45 155.87 98.15 152.07 101.31 146.98 Z" fill="#363543" />
<path d="M 50.14 148.94 C 52.27 151.70 54.08 154.64 56.38 157.28 C 51.67 157.06 49.58 153.31 50.14 148.94 Z" fill="#505052" />
<path d="M 67.95 149.13 C 67.37 151.74 65.56 154.09 64.24 156.40 C 63.43 155.99 62.62 155.57 61.81 155.16 C 62.25 154.49 62.70 153.83 63.14 153.16 C 64.50 152.05 66.13 149.10 67.95 149.13 Z" fill="#262944" />
<path d="M 216.05 148.65 C 218.08 149.96 218.73 151.19 219.64 153.36 C 224.06 154.61 224.99 156.79 226.37 160.88 C 225.83 164.24 222.86 166.14 222.05 168.87 C 224.25 171.38 225.13 173.16 226.03 176.40 C 224.64 177.52 224.15 176.60 222.86 175.93 C 217.91 168.89 205.19 166.67 198.71 172.58 L 196.69 173.24 C 196.47 170.84 198.59 170.32 200.30 169.28 C 206.78 165.47 212.16 167.64 218.97 167.89 C 217.41 163.70 213.83 161.84 216.96 157.07 C 212.82 155.14 208.62 149.60 216.05 148.65 Z" fill="#a89f9b" />
<path d="M 61.81 155.16 C 62.62 155.57 63.43 155.99 64.24 156.40 C 63.68 157.31 63.13 158.18 62.22 158.79 C 60.10 158.58 57.99 158.39 55.88 158.09 L 56.38 157.28 C 58.22 156.65 60.03 155.94 61.81 155.16 Z" fill="#5a5f71" />
<path d="M 131.27 154.74 C 137.57 154.68 134.29 156.86 137.74 158.80 C 140.09 160.63 143.86 161.45 140.95 165.01 C 138.90 167.40 142.02 167.91 143.87 167.87 C 145.50 168.40 148.29 169.16 145.87 171.01 C 143.68 171.63 144.57 174.89 142.81 176.42 C 138.97 175.15 135.43 177.07 131.41 176.60 C 129.73 176.32 130.19 177.70 129.55 178.82 C 127.75 179.25 124.86 178.39 124.37 180.78 C 123.66 182.48 123.06 184.25 122.24 185.89 C 121.40 183.73 119.71 182.54 118.13 180.97 C 120.18 178.39 121.79 175.90 125.34 175.40 C 128.33 174.54 133.67 176.16 133.26 171.34 C 131.14 167.93 136.42 166.44 137.30 164.11 C 135.66 160.86 133.81 157.40 131.27 154.74 Z" fill="#444c5f" />
<path d="M 228.92 155.81 C 230.60 163.10 231.51 169.60 230.92 177.13 C 230.30 176.38 229.68 175.62 229.05 174.87 C 228.98 173.52 228.92 172.18 228.88 170.84 C 229.08 167.82 229.12 164.89 228.21 161.97 C 228.63 160.51 225.46 153.62 228.92 155.81 Z" fill="#51515d" />
<path d="M 89.41 159.11 C 86.22 161.59 82.73 163.73 78.97 165.24 L 78.29 164.98 C 78.87 164.01 79.46 163.05 80.02 162.07 C 82.16 161.59 89.37 154.62 89.41 159.11 Z" fill="#6b6a75" />
<path d="M 50.98 157.51 C 52.61 157.72 54.25 157.93 55.88 158.09 C 57.99 158.39 60.10 158.58 62.22 158.79 C 60.21 162.14 49.84 161.76 50.98 157.51 Z" fill="#28293d" />
<path d="M 143.87 167.87 C 142.02 167.91 138.90 167.40 140.95 165.01 C 143.86 161.45 140.09 160.63 137.74 158.80 C 144.10 156.58 147.12 162.89 143.87 167.87 Z" fill="#717d87" />
<path d="M 101.00 159.05 C 100.72 162.05 99.40 164.41 98.29 167.14 C 97.92 166.01 97.53 164.88 97.14 163.76 C 97.48 161.38 99.11 160.24 101.00 159.05 Z" fill="#75747f" />
<path d="M 103.33 160.73 C 104.38 161.74 105.23 162.88 106.03 164.10 C 105.72 168.96 104.00 172.73 106.68 177.34 C 111.67 182.86 110.13 187.43 115.96 193.10 C 119.10 191.52 120.54 188.80 122.24 185.89 C 123.06 184.25 123.66 182.48 124.37 180.78 C 127.81 186.03 128.88 183.21 133.86 184.97 C 134.95 185.63 136.05 186.28 137.15 186.94 C 132.09 190.16 126.74 192.67 121.87 196.21 C 119.08 197.87 115.89 198.28 112.96 199.70 C 111.19 199.47 110.48 199.61 109.05 200.73 C 104.79 204.56 99.21 206.05 102.26 212.98 C 100.20 212.97 98.18 212.09 96.08 212.17 C 94.47 211.53 95.25 216.04 94.91 216.96 C 93.59 217.53 91.93 220.43 91.28 217.79 C 89.84 213.75 86.40 212.85 83.04 210.78 C 85.19 209.14 88.78 208.61 85.96 205.35 C 83.76 206.32 80.60 206.87 79.17 208.90 C 78.02 210.30 77.04 211.51 75.28 212.15 C 76.51 209.58 77.93 207.20 79.67 204.94 C 77.64 203.28 77.02 204.92 75.25 205.93 C 72.48 205.56 72.70 203.57 71.59 201.44 C 69.98 202.20 68.45 203.15 66.92 204.06 C 65.86 201.09 73.35 195.77 73.40 200.54 C 75.22 199.80 77.09 198.87 78.77 197.85 C 78.01 196.52 77.10 195.26 76.25 193.98 C 78.25 191.66 79.17 189.49 82.52 189.09 C 84.30 185.99 85.73 182.92 88.16 180.18 C 89.78 185.86 88.68 186.30 84.77 190.07 L 83.94 190.95 C 87.89 193.21 88.66 197.35 92.93 199.14 C 93.62 203.68 98.41 200.37 102.05 202.64 C 104.84 201.03 108.33 196.89 105.62 193.36 C 100.76 186.17 96.78 179.27 98.14 170.17 C 99.97 167.07 101.56 163.86 103.33 160.73 Z" fill="#abbfc3" />
<path d="M 226.37 160.88 C 226.98 161.25 227.60 161.61 228.21 161.97 C 229.12 164.89 229.08 167.82 228.88 170.84 C 228.08 172.89 227.81 174.96 226.03 176.40 C 225.13 173.16 224.25 171.38 222.05 168.87 C 222.86 166.14 225.83 164.24 226.37 160.88 Z" fill="#bfb7b4" />
<path d="M 97.14 163.76 C 97.53 164.88 97.92 166.01 98.29 167.14 C 98.24 168.15 98.19 169.16 98.14 170.17 C 96.78 179.27 100.76 186.17 105.62 193.36 C 108.33 196.89 104.84 201.03 102.05 202.64 C 98.41 200.37 93.62 203.68 92.93 199.14 C 92.26 196.14 89.17 195.39 88.74 192.16 C 88.46 189.85 86.47 190.52 84.77 190.07 C 88.68 186.30 89.78 185.86 88.16 180.18 C 88.73 179.72 89.31 179.28 89.91 178.85 C 92.28 179.05 92.90 178.49 93.15 176.16 C 94.69 173.75 95.40 171.58 95.82 168.76 C 96.24 167.09 96.68 165.42 97.14 163.76 Z" fill="#232841" />
<path d="M 78.29 164.98 L 78.97 165.24 C 78.26 166.35 77.03 168.72 75.41 167.80 C 74.69 166.32 77.28 165.37 78.29 164.98 Z" fill="#b1b0c1" />
<path d="M 41.94 170.08 C 41.27 170.39 40.61 170.72 39.97 171.06 C 37.52 172.93 31.15 181.86 28.39 179.00 C 29.03 177.64 29.66 176.28 30.29 174.92 C 33.51 174.05 39.21 168.04 41.94 170.08 Z" fill="#404359" />
<path d="M 95.82 168.76 C 95.40 171.58 94.69 173.75 93.15 176.16 C 92.90 172.53 93.51 171.38 95.82 168.76 Z" fill="#7a7f8b" />
<path d="M 222.86 175.93 C 221.69 177.19 220.59 178.51 219.43 179.78 C 217.67 179.18 217.81 180.88 216.97 181.97 C 215.21 185.82 212.57 188.94 209.83 192.10 L 209.06 191.19 C 210.09 188.15 205.93 188.12 207.29 185.23 C 209.28 182.60 208.04 175.27 203.66 176.49 C 201.61 177.02 200.17 173.66 198.71 172.58 C 205.19 166.67 217.91 168.89 222.86 175.93 Z" fill="#958886" />
<path d="M 39.97 171.06 C 45.49 174.30 49.13 181.64 48.24 188.04 C 44.83 190.06 42.68 193.27 39.59 195.61 C 38.00 192.83 35.35 192.12 34.94 188.67 C 36.53 186.99 44.05 184.08 40.84 181.22 C 36.71 182.79 33.55 185.65 30.85 189.08 C 28.93 185.60 31.40 180.26 26.10 180.61 C 25.71 179.95 25.30 179.30 24.87 178.67 C 27.14 176.97 26.57 176.19 28.39 179.00 C 31.15 181.86 37.52 172.93 39.97 171.06 Z" fill="#a7b9be" />
<path d="M 145.87 171.01 C 146.13 172.53 146.48 174.02 146.96 175.49 C 142.59 179.00 137.50 180.41 133.86 184.97 C 128.88 183.21 127.81 186.03 124.37 180.78 C 124.86 178.39 127.75 179.25 129.55 178.82 C 131.43 180.17 131.65 182.35 133.71 179.72 C 135.04 176.63 131.04 178.90 129.55 178.82 C 130.19 177.70 129.73 176.32 131.41 176.60 C 135.43 177.07 138.97 175.15 142.81 176.42 C 144.57 174.89 143.68 171.63 145.87 171.01 Z" fill="#5b606f" />
<path d="M 228.88 170.84 C 228.92 172.18 228.98 173.52 229.05 174.87 C 229.67 176.64 227.39 183.57 231.00 181.09 C 231.02 184.68 231.46 188.02 229.96 191.41 C 233.08 198.82 236.58 207.61 235.95 215.78 C 233.79 214.35 236.33 209.36 232.20 207.71 C 225.16 202.62 223.99 194.48 216.16 192.20 C 217.04 187.86 222.21 183.96 219.43 179.78 C 220.59 178.51 221.69 177.19 222.86 175.93 C 224.15 176.60 224.64 177.52 226.03 176.40 C 227.81 174.96 228.08 172.89 228.88 170.84 Z" fill="#ececeb" />
<path d="M 194.87 173.75 C 191.29 175.13 190.59 178.14 188.54 181.02 C 187.11 179.67 179.62 182.72 178.92 184.28 C 185.22 184.77 174.52 187.01 173.61 188.48 C 166.34 188.27 167.74 194.24 161.37 195.20 C 158.10 195.64 155.78 197.36 153.32 199.42 C 155.03 203.46 160.58 202.12 164.19 203.58 C 166.35 204.46 168.77 203.10 166.78 206.22 C 165.67 206.11 164.57 206.00 163.47 205.89 C 161.34 203.73 158.11 205.12 155.23 204.83 C 152.31 203.86 148.24 204.49 147.04 201.02 C 146.04 199.28 146.28 196.29 144.07 195.85 L 142.49 195.13 C 142.96 193.08 147.06 191.56 146.13 189.67 C 153.89 187.17 161.58 187.89 168.74 183.36 C 172.10 184.42 173.13 179.45 177.02 180.05 C 182.46 181.49 182.30 169.83 188.02 174.00 C 190.16 177.29 194.35 168.99 194.87 173.75 Z" fill="#847571" />
<path d="M 196.69 173.24 L 198.71 172.58 C 200.17 173.66 201.61 177.02 203.66 176.49 C 208.04 175.27 209.28 182.60 207.29 185.23 C 205.93 188.12 210.09 188.15 209.06 191.19 C 205.44 187.33 195.95 178.16 190.58 182.69 C 191.29 179.00 191.95 177.99 195.08 175.98 C 196.90 175.59 196.38 174.68 196.69 173.24 Z" fill="#877874" />
<path d="M 194.87 173.75 L 195.08 175.98 C 191.95 177.99 191.29 179.00 190.58 182.69 C 189.44 185.67 189.19 187.37 189.86 190.50 C 187.95 190.75 186.36 190.27 184.87 191.74 C 183.65 192.55 182.44 193.35 181.16 194.05 C 183.20 189.50 186.29 185.48 188.54 181.02 C 190.59 178.14 191.29 175.13 194.87 173.75 Z" fill="#a5adaf" />
<path d="M 229.05 174.87 C 229.68 175.62 230.30 176.38 230.92 177.13 C 230.96 178.45 230.99 179.77 231.00 181.09 C 227.39 183.57 229.67 176.64 229.05 174.87 Z" fill="#8d8e93" />
<path d="M 93.15 176.16 C 92.90 178.49 92.28 179.05 89.91 178.85 C 90.71 177.29 91.34 176.48 93.15 176.16 Z" fill="#9da4ab" />
<path d="M 133.71 179.72 C 131.65 182.35 131.43 180.17 129.55 178.82 C 131.04 178.90 135.04 176.63 133.71 179.72 Z" fill="#abb2b7" />
<path d="M 24.87 178.67 C 25.30 179.30 25.71 179.95 26.10 180.61 C 25.37 181.08 24.63 181.54 23.88 181.98 C 20.26 181.99 23.83 179.49 24.87 178.67 Z" fill="#373847" />
<path d="M 219.43 179.78 C 222.21 183.96 217.04 187.86 216.16 192.20 C 223.99 194.48 225.16 202.62 232.20 207.71 C 232.48 208.83 232.77 209.94 233.07 211.05 C 232.74 212.86 232.76 214.26 233.23 216.03 C 231.51 218.31 229.38 219.86 226.91 221.23 C 226.56 220.50 226.19 219.77 225.82 219.06 C 223.39 215.46 225.34 215.77 227.31 212.86 C 226.79 206.80 222.23 207.83 218.08 204.88 C 216.84 204.17 215.58 203.52 214.28 202.94 C 209.02 199.43 208.09 198.57 209.83 192.10 C 212.57 188.94 215.21 185.82 216.97 181.97 C 217.81 180.88 217.67 179.18 219.43 179.78 Z" fill="#24253d" />
<path d="M 188.54 181.02 C 186.29 185.48 183.20 189.50 181.16 194.05 C 182.44 193.35 183.65 192.55 184.87 191.74 C 181.11 197.07 178.01 198.15 178.91 205.87 C 175.01 206.29 171.09 206.53 167.17 206.93 L 166.78 206.22 C 168.77 203.10 166.35 204.46 164.19 203.58 C 160.58 202.12 155.03 203.46 153.32 199.42 C 155.78 197.36 158.10 195.64 161.37 195.20 C 167.74 194.24 166.34 188.27 173.61 188.48 C 174.52 187.01 185.22 184.77 178.92 184.28 C 179.62 182.72 187.11 179.67 188.54 181.02 Z" fill="#73615f" />
<path d="M 26.10 180.61 C 31.40 180.26 28.93 185.60 30.85 189.08 C 30.17 191.02 29.54 192.97 29.10 194.98 C 31.14 192.93 32.74 190.59 34.94 188.67 C 35.35 192.12 38.00 192.83 39.59 195.61 C 42.68 193.27 44.83 190.06 48.24 188.04 C 51.46 186.76 54.09 184.60 57.12 183.04 C 60.59 181.95 60.91 187.49 62.85 189.47 C 62.76 191.21 62.71 192.96 62.80 194.71 C 55.76 199.22 52.72 206.23 51.25 214.19 C 50.87 213.39 51.39 209.58 49.90 210.29 C 45.43 211.68 45.56 205.59 41.77 204.36 C 38.81 202.90 34.72 204.59 37.62 200.16 C 33.01 199.57 28.79 200.04 24.62 197.58 C 24.21 194.20 24.75 192.44 22.07 189.83 C 19.37 186.04 31.27 181.25 23.88 181.98 C 24.63 181.54 25.37 181.08 26.10 180.61 Z" fill="#f0f0f0" />
<path d="M 40.84 181.22 C 44.05 184.08 36.53 186.99 34.94 188.67 C 32.74 190.59 31.14 192.93 29.10 194.98 C 29.54 192.97 30.17 191.02 30.85 189.08 C 33.55 185.65 36.71 182.79 40.84 181.22 Z" fill="#293143" />
<path d="M 209.06 191.19 L 209.83 192.10 C 208.09 198.57 209.02 199.43 214.28 202.94 C 210.71 204.06 207.32 203.02 203.79 204.81 C 200.70 205.14 197.98 205.03 194.97 204.27 C 200.47 200.00 196.84 188.52 189.86 190.50 C 189.19 187.37 189.44 185.67 190.58 182.69 C 195.95 178.16 205.44 187.33 209.06 191.19 Z" fill="#6f5d5c" />
<path d="M 142.94 182.09 C 143.31 184.84 139.00 185.76 137.15 186.94 C 136.05 186.28 134.95 185.63 133.86 184.97 C 137.26 184.85 139.83 183.15 142.94 182.09 Z" fill="#888896" />
<path d="M 66.06 184.98 C 64.97 189.78 62.31 191.22 67.06 194.90 C 65.51 194.41 64.40 194.36 62.80 194.71 C 62.71 192.96 62.76 191.21 62.85 189.47 C 63.85 187.67 63.81 185.54 66.06 184.98 Z" fill="#97969c" />
<path d="M 84.77 190.07 C 86.47 190.52 88.46 189.85 88.74 192.16 C 89.17 195.39 92.26 196.14 92.93 199.14 C 88.66 197.35 87.89 193.21 83.94 190.95 L 84.77 190.07 Z" fill="#485264" />
<path d="M 146.13 189.67 C 147.06 191.56 142.96 193.08 142.49 195.13 C 140.13 194.65 138.08 193.53 135.87 192.64 C 139.55 192.00 142.73 191.29 146.13 189.67 Z" fill="#a09a9d" />
<path d="M 189.86 190.50 C 196.84 188.52 200.47 200.00 194.97 204.27 C 188.24 207.88 184.52 199.49 190.16 196.89 L 190.10 197.83 C 189.77 199.39 189.82 201.80 191.84 202.04 C 199.34 202.58 196.15 191.13 190.07 191.97 C 185.75 193.03 177.17 202.03 182.80 206.16 C 183.13 206.88 183.45 207.60 183.77 208.32 C 182.52 207.94 181.29 207.51 180.06 207.06 L 178.91 205.87 C 178.01 198.15 181.11 197.07 184.87 191.74 C 186.36 190.27 187.95 190.75 189.86 190.50 Z" fill="#2c2a3d" />
<path d="M 72.47 192.55 C 72.29 194.12 71.91 195.65 71.52 197.18 C 73.33 196.45 73.71 195.30 74.51 193.64 C 75.09 193.75 75.67 193.86 76.25 193.98 C 77.10 195.26 78.01 196.52 78.77 197.85 C 77.09 198.87 75.22 199.80 73.40 200.54 C 73.35 195.77 65.86 201.09 66.92 204.06 C 60.21 206.31 58.46 212.59 53.08 216.82 C 51.75 216.01 51.24 215.90 51.25 214.19 C 52.72 206.23 55.76 199.22 62.80 194.71 C 64.40 194.36 65.51 194.41 67.06 194.90 C 68.82 195.23 69.91 191.80 72.47 192.55 Z" fill="#272942" />
<path d="M 74.51 193.64 C 73.71 195.30 73.33 196.45 71.52 197.18 C 71.91 195.65 72.29 194.12 72.47 192.55 C 73.44 192.47 73.84 193.03 74.51 193.64 Z" fill="#a4b0c0" />
<path d="M 190.07 191.97 C 190.18 193.62 190.35 195.24 190.16 196.89 C 184.52 199.49 188.24 207.88 194.97 204.27 C 197.98 205.03 200.70 205.14 203.79 204.81 C 208.56 205.07 213.31 205.03 218.08 204.88 C 222.23 207.83 226.79 206.80 227.31 212.86 C 225.34 215.77 223.39 215.46 225.82 219.06 C 225.31 219.27 224.80 219.49 224.29 219.69 C 221.47 218.51 220.64 221.37 218.83 222.95 C 215.22 223.02 215.43 226.18 213.51 228.51 C 206.26 231.92 199.20 231.84 191.72 233.82 C 188.88 233.90 183.96 235.02 185.23 230.32 C 187.58 227.74 193.77 229.79 197.18 228.28 C 198.01 227.75 203.04 227.52 201.00 225.96 C 202.07 224.70 203.15 223.43 204.16 222.11 C 208.39 219.26 208.68 213.51 204.24 210.79 C 202.36 209.52 200.39 208.02 198.22 207.30 C 194.43 206.95 190.73 206.93 187.05 205.78 C 185.53 205.19 184.32 205.88 182.80 206.16 C 177.17 202.03 185.75 193.03 190.07 191.97 Z" fill="#abbabd" />
<path d="M 190.07 191.97 C 196.15 191.13 199.34 202.58 191.84 202.04 C 192.25 200.11 192.66 198.15 190.10 197.83 L 190.16 196.89 C 190.35 195.24 190.18 193.62 190.07 191.97 Z" fill="#625358" />
<path d="M 135.87 192.64 C 138.08 193.53 140.13 194.65 142.49 195.13 L 144.07 195.85 C 140.27 198.94 145.51 198.09 144.85 202.26 C 139.73 201.18 135.23 196.45 129.82 194.60 C 131.84 193.87 133.77 193.13 135.87 192.64 Z" fill="#c9c6c4" />
<path d="M 129.82 194.60 C 135.23 196.45 139.73 201.18 144.85 202.26 C 145.94 203.67 147.15 204.97 148.36 206.28 C 147.29 206.94 146.23 207.58 145.15 208.21 C 141.64 208.05 138.41 208.30 135.06 207.07 C 130.05 204.09 127.00 200.71 122.85 197.10 C 125.14 196.18 127.46 195.32 129.82 194.60 Z" fill="#efeeed" />
<path d="M 121.87 196.21 L 122.17 196.84 C 122.82 198.68 124.45 200.73 123.83 202.70 C 121.82 204.06 118.93 205.88 116.39 205.47 C 115.13 203.63 114.08 201.63 112.96 199.70 C 115.89 198.28 119.08 197.87 121.87 196.21 Z" fill="#a69e9b" />
<path d="M 144.07 195.85 C 146.28 196.29 146.04 199.28 147.04 201.02 C 148.24 204.49 152.31 203.86 155.23 204.83 C 152.96 205.43 150.69 205.93 148.36 206.28 C 147.15 204.97 145.94 203.67 144.85 202.26 C 145.51 198.09 140.27 198.94 144.07 195.85 Z" fill="#a49c9c" />
<path d="M 122.17 196.84 L 122.85 197.10 C 127.00 200.71 130.05 204.09 135.06 207.07 C 128.82 209.59 132.26 202.23 127.63 206.78 C 124.62 205.61 121.08 209.18 118.36 208.63 C 115.11 206.20 112.34 203.16 109.05 200.73 C 110.48 199.61 111.19 199.47 112.96 199.70 C 114.08 201.63 115.13 203.63 116.39 205.47 C 118.93 205.88 121.82 204.06 123.83 202.70 C 124.45 200.73 122.82 198.68 122.17 196.84 Z" fill="#d0cdca" />
<path d="M 190.10 197.83 C 192.66 198.15 192.25 200.11 191.84 202.04 C 189.82 201.80 189.77 199.39 190.10 197.83 Z" fill="#aab3bc" />
<path d="M 71.59 201.44 C 72.70 203.57 72.48 205.56 75.25 205.93 C 76.69 209.47 73.16 207.01 71.24 207.34 C 69.06 210.25 72.05 213.03 69.08 215.24 C 66.91 216.89 67.49 219.01 68.76 221.02 C 68.85 221.99 68.93 222.96 69.02 223.92 C 67.69 225.12 67.23 226.51 65.14 225.92 C 60.24 223.75 57.48 219.30 53.08 216.82 C 58.46 212.59 60.21 206.31 66.92 204.06 C 68.45 203.15 69.98 202.20 71.59 201.44 Z" fill="#ededee" />
<path d="M 109.05 200.73 C 112.34 203.16 115.11 206.20 118.36 208.63 C 121.08 209.18 124.62 205.61 127.63 206.78 C 128.42 208.44 129.29 209.70 130.62 210.97 C 131.53 213.11 132.00 215.32 132.37 217.60 C 127.98 221.87 126.22 222.77 120.09 223.00 C 117.45 221.44 114.84 221.98 111.95 222.21 C 114.73 225.06 119.12 226.44 122.66 228.17 C 126.10 230.53 130.21 230.55 134.08 229.33 L 135.85 228.79 C 136.92 229.23 140.86 228.16 139.11 230.25 C 136.22 233.81 142.66 233.39 144.80 234.55 C 146.82 231.71 148.28 229.58 151.38 227.77 C 151.46 224.74 151.99 217.49 146.99 218.79 C 146.84 217.81 146.72 216.81 146.62 215.82 C 146.75 214.54 146.88 213.26 147.00 211.99 C 148.65 210.87 150.25 209.73 151.99 208.75 C 154.86 208.75 160.05 213.63 158.89 207.85 C 160.42 207.21 161.95 206.57 163.47 205.89 C 164.57 206.00 165.67 206.11 166.78 206.22 L 167.17 206.93 C 170.36 214.02 174.90 206.54 180.06 207.06 C 181.29 207.51 182.52 207.94 183.77 208.32 C 185.86 209.07 187.90 208.88 190.12 208.98 C 191.36 209.09 192.60 209.22 193.84 209.36 C 197.39 209.91 200.81 210.90 204.28 211.82 C 205.27 215.37 204.06 218.51 204.16 222.11 C 202.42 222.63 195.88 224.98 201.00 225.96 C 203.04 227.52 198.01 227.75 197.18 228.28 C 193.77 229.79 187.58 227.74 185.23 230.32 C 183.96 235.02 188.88 233.90 191.72 233.82 L 192.03 234.84 C 189.80 235.16 187.54 235.76 185.28 235.82 C 181.86 231.03 181.57 225.78 179.30 220.71 C 174.14 218.67 168.80 218.82 164.23 222.21 C 156.32 226.11 154.47 234.54 146.62 238.58 C 141.23 240.42 136.69 236.83 131.60 239.49 C 125.96 240.78 120.98 237.12 115.00 239.11 C 106.94 241.38 101.71 236.53 94.01 235.89 C 89.99 235.23 86.30 235.49 82.70 233.33 C 81.21 232.03 79.34 235.73 78.25 234.30 C 78.65 232.44 78.19 230.80 77.77 229.00 C 78.35 226.45 78.41 224.50 77.62 221.98 C 78.49 218.22 79.55 215.84 82.08 212.93 C 84.52 218.70 88.98 220.38 94.86 221.03 L 95.81 222.20 C 96.11 232.28 104.00 234.90 112.67 233.63 C 115.48 233.04 112.24 230.37 110.85 230.30 C 105.64 230.17 104.72 224.89 102.68 221.08 C 103.27 219.22 103.32 217.94 102.89 216.03 C 104.03 213.53 107.23 211.63 102.26 212.98 C 99.21 206.05 104.79 204.56 109.05 200.73 Z" fill="#f2f2f0" />
<path d="M 214.28 202.94 C 215.58 203.52 216.84 204.17 218.08 204.88 C 213.31 205.03 208.56 205.07 203.79 204.81 C 207.32 203.02 210.71 204.06 214.28 202.94 Z" fill="#878c8d" />
<path d="M 79.67 204.94 C 77.93 207.20 76.51 209.58 75.28 212.15 C 77.04 211.51 78.02 210.30 79.17 208.90 C 80.48 209.50 81.76 210.14 83.04 210.78 C 82.72 211.50 82.40 212.21 82.08 212.93 C 79.55 215.84 78.49 218.22 77.62 221.98 C 76.43 224.57 76.25 226.48 77.77 229.00 C 78.19 230.80 78.65 232.44 78.25 234.30 C 74.66 230.89 70.00 228.80 69.02 223.92 C 68.93 222.96 68.85 221.99 68.76 221.02 C 69.23 219.05 69.29 217.25 69.08 215.24 C 72.05 213.03 69.06 210.25 71.24 207.34 C 73.16 207.01 76.69 209.47 75.25 205.93 C 77.02 204.92 77.64 203.28 79.67 204.94 Z" fill="#242541" />
<path d="M 163.47 205.89 C 161.95 206.57 160.42 207.21 158.89 207.85 C 156.08 207.17 154.52 207.25 151.99 208.75 C 150.25 209.73 148.65 210.87 147.00 211.99 C 144.21 212.74 140.51 216.16 143.84 211.11 C 144.35 210.17 144.72 209.19 145.15 208.21 C 146.23 207.58 147.29 206.94 148.36 206.28 C 150.69 205.93 152.96 205.43 155.23 204.83 C 158.11 205.12 161.34 203.73 163.47 205.89 Z" fill="#312f45" />
<path d="M 85.96 205.35 C 88.78 208.61 85.19 209.14 83.04 210.78 C 81.76 210.14 80.48 209.50 79.17 208.90 C 80.60 206.87 83.76 206.32 85.96 205.35 Z" fill="#60707f" />
<path d="M 135.06 207.07 C 138.41 208.30 141.64 208.05 145.15 208.21 C 144.72 209.19 144.35 210.17 143.84 211.11 C 139.44 208.63 135.21 209.47 130.62 210.97 C 129.29 209.70 128.42 208.44 127.63 206.78 C 132.26 202.23 128.82 209.59 135.06 207.07 Z" fill="#b2a8a5" />
<path d="M 187.05 205.78 C 187.39 207.75 188.60 208.05 190.12 208.98 C 187.90 208.88 185.86 209.07 183.77 208.32 C 183.45 207.60 183.13 206.88 182.80 206.16 C 184.32 205.88 185.53 205.19 187.05 205.78 Z" fill="#817f89" />
<path d="M 178.91 205.87 L 180.06 207.06 C 174.90 206.54 170.36 214.02 167.17 206.93 C 171.09 206.53 175.01 206.29 178.91 205.87 Z" fill="#b2a5a3" />
<path d="M 187.05 205.78 C 190.73 206.93 194.43 206.95 198.22 207.30 C 197.37 209.32 195.66 208.92 193.84 209.36 C 192.60 209.22 191.36 209.09 190.12 208.98 C 188.60 208.05 187.39 207.75 187.05 205.78 Z" fill="#2c313e" />
<path d="M 158.89 207.85 C 160.05 213.63 154.86 208.75 151.99 208.75 C 154.52 207.25 156.08 207.17 158.89 207.85 Z" fill="#c2bebe" />
<path d="M 198.22 207.30 C 200.39 208.02 202.36 209.52 204.24 210.79 L 204.28 211.82 C 200.81 210.90 197.39 209.91 193.84 209.36 C 195.66 208.92 197.37 209.32 198.22 207.30 Z" fill="#7d848d" />
<path d="M 143.84 211.11 C 140.51 216.16 144.21 212.74 147.00 211.99 C 146.88 213.26 146.75 214.54 146.62 215.82 C 146.31 217.82 146.09 219.85 145.72 221.84 C 140.04 224.21 135.66 225.33 129.42 225.14 C 129.48 225.84 129.55 226.54 129.63 227.24 C 127.27 227.37 124.94 227.50 122.66 228.17 C 119.12 226.44 114.73 225.06 111.95 222.21 C 114.84 221.98 117.45 221.44 120.09 223.00 C 123.45 225.03 135.24 224.22 132.37 217.60 C 132.00 215.32 131.53 213.11 130.62 210.97 C 135.21 209.47 139.44 208.63 143.84 211.11 Z" fill="#7a686a" />
<path d="M 83.04 210.78 C 86.40 212.85 89.84 213.75 91.28 217.79 C 91.93 220.43 93.59 217.53 94.91 216.96 C 94.89 218.32 94.88 219.67 94.86 221.03 C 88.98 220.38 84.52 218.70 82.08 212.93 C 82.40 212.21 82.72 211.50 83.04 210.78 Z" fill="#cddad9" />
<path d="M 204.24 210.79 C 208.68 213.51 208.39 219.26 204.16 222.11 C 204.06 218.51 205.27 215.37 204.28 211.82 L 204.24 210.79 Z" fill="#474d5a" />
<path d="M 233.07 211.05 C 234.64 212.64 234.86 214.39 233.23 216.03 C 232.76 214.26 232.74 212.86 233.07 211.05 Z" fill="#a19fad" />
<path d="M 96.08 212.17 C 96.02 215.52 95.96 218.86 95.81 222.20 L 94.86 221.03 C 94.88 219.67 94.89 218.32 94.91 216.96 C 95.25 216.04 94.47 211.53 96.08 212.17 Z" fill="#5a6a75" />
<path d="M 96.08 212.17 C 98.18 212.09 100.20 212.97 102.26 212.98 C 107.23 211.63 104.03 213.53 102.89 216.03 C 101.20 217.73 101.39 219.20 102.68 221.08 C 104.72 224.89 105.64 230.17 110.85 230.30 C 112.24 230.37 115.48 233.04 112.67 233.63 C 104.00 234.90 96.11 232.28 95.81 222.20 C 95.96 218.86 96.02 215.52 96.08 212.17 Z" fill="#262940" />
<path d="M 69.08 215.24 C 69.29 217.25 69.23 219.05 68.76 221.02 C 67.49 219.01 66.91 216.89 69.08 215.24 Z" fill="#828091" />
<path d="M 99.25 215.26 C 97.21 221.44 104.49 214.54 99.25 215.26 Z" fill="#868ca3" />
<path d="M 228.27 215.12 C 223.38 220.89 233.49 215.16 228.27 215.12 Z" fill="#6c6c84" />
<path d="M 102.89 216.03 C 103.32 217.94 103.27 219.22 102.68 221.08 C 101.39 219.20 101.20 217.73 102.89 216.03 Z" fill="#767886" />
<path d="M 146.62 215.82 C 146.72 216.81 146.84 217.81 146.99 218.79 C 146.98 220.90 149.08 220.07 149.02 222.05 C 150.35 226.59 143.97 227.58 140.82 227.95 L 141.33 227.25 C 143.92 225.93 145.13 224.80 145.72 221.84 C 146.09 219.85 146.31 217.82 146.62 215.82 Z" fill="#b3aaaa" />
<path d="M 132.37 217.60 C 135.24 224.22 123.45 225.03 120.09 223.00 C 126.22 222.77 127.98 221.87 132.37 217.60 Z" fill="#ab9d9b" />
<path d="M 151.38 227.77 C 148.28 229.58 146.82 231.71 144.80 234.55 C 142.66 233.39 136.22 233.81 139.11 230.25 C 140.86 228.16 136.92 229.23 135.85 228.79 C 137.47 228.24 139.13 228.11 140.82 227.95 C 143.97 227.58 150.35 226.59 149.02 222.05 C 149.08 220.07 146.98 220.90 146.99 218.79 C 151.99 217.49 151.46 224.74 151.38 227.77 Z" fill="#d5cecb" />
<path d="M 224.29 219.69 L 223.29 221.21 C 221.81 222.28 220.65 222.70 218.83 222.95 C 220.64 221.37 221.47 218.51 224.29 219.69 Z" fill="#282f42" />
<path d="M 225.82 219.06 C 226.19 219.77 226.56 220.50 226.91 221.23 C 227.09 223.87 233.47 220.27 235.81 222.16 C 230.82 229.51 223.95 237.08 215.65 240.63 C 213.83 241.62 210.76 239.02 210.15 241.66 C 202.89 243.02 194.30 241.29 187.83 237.98 C 189.75 234.12 196.83 237.33 200.42 235.04 C 203.27 235.01 206.12 234.97 208.96 234.85 C 210.88 235.38 212.42 235.61 213.97 234.11 C 215.73 233.39 217.53 232.77 219.30 232.05 C 222.42 230.94 222.44 223.97 223.29 221.21 L 224.29 219.69 C 224.80 219.49 225.31 219.27 225.82 219.06 Z" fill="#f1f1f0" />
<path d="M 223.29 221.21 C 222.44 223.97 222.42 230.94 219.30 232.05 C 219.92 228.81 217.85 226.35 218.83 222.95 C 220.65 222.70 221.81 222.28 223.29 221.21 Z" fill="#adb7c0" />
<path d="M 77.62 221.98 C 78.41 224.50 78.35 226.45 77.77 229.00 C 76.25 226.48 76.43 224.57 77.62 221.98 Z" fill="#a2a6b5" />
<path d="M 145.72 221.84 C 145.13 224.80 143.92 225.93 141.33 227.25 C 137.42 226.90 133.54 226.93 129.63 227.24 C 129.55 226.54 129.48 225.84 129.42 225.14 C 135.66 225.33 140.04 224.21 145.72 221.84 Z" fill="#2c2536" />
<path d="M 204.16 222.11 C 203.15 223.43 202.07 224.70 201.00 225.96 C 195.88 224.98 202.42 222.63 204.16 222.11 Z" fill="#52525f" />
<path d="M 218.83 222.95 C 217.85 226.35 219.92 228.81 219.30 232.05 C 217.53 232.77 215.73 233.39 213.97 234.11 C 212.06 233.62 210.52 233.43 208.96 234.85 C 206.12 234.97 203.27 235.01 200.42 235.04 C 197.60 233.75 194.74 233.90 191.72 233.82 C 199.20 231.84 206.26 231.92 213.51 228.51 C 215.43 226.18 215.22 223.02 218.83 222.95 Z" fill="#24273c" />
<path d="M 129.63 227.24 C 131.05 228.25 132.35 228.96 134.08 229.33 C 130.21 230.55 126.10 230.53 122.66 228.17 C 124.94 227.50 127.27 227.37 129.63 227.24 Z" fill="#bcb1ae" />
<path d="M 129.63 227.24 C 133.54 226.93 137.42 226.90 141.33 227.25 L 140.82 227.95 C 139.13 228.11 137.47 228.24 135.85 228.79 L 134.08 229.33 C 132.35 228.96 131.05 228.25 129.63 227.24 Z" fill="#776e77" />
<path d="M 191.72 233.82 C 194.74 233.90 197.60 233.75 200.42 235.04 C 197.62 235.01 194.83 234.96 192.03 234.84 L 191.72 233.82 Z" fill="#a6a6aa" />
<path d="M 213.97 234.11 C 212.42 235.61 210.88 235.38 208.96 234.85 C 210.52 233.43 212.06 233.62 213.97 234.11 Z" fill="#a9aab0" />
</svg>