<?xml version="1.0" encoding="UTF-8" standalone="no"?>
<!DOCTYPE svg PUBLIC "-//W3C//DTD SVG 1.1//EN" "http://www.w3.org/Graphics/SVG/1.1/DTD/svg11.dtd">
<svg xmlns="http://www.w3.org/2000/svg" version="1.1" viewBox="0 0 256 256" width="256.0pt" height="256.0pt">
<path d="M 0.00 0.00 L 256.00 0.00 L 256.00 256.00 L 0.00 256.00 L 0.00 0.00 Z" fill="#fefefe" />
<path d="M 201.17 10.44 C 206.13 10.76 211.04 11.56 215.99 12.00 C 218.61 12.35 221.63 12.42 223.66 14.35 C 226.48 16.91 227.85 21.34 229.24 24.81 C 231.41 30.74 234.27 36.32 236.98 42.02 C 239.49 47.33 240.22 52.61 241.80 58.24 C 242.77 61.74 243.45 65.22 243.88 68.83 C 244.62 75.31 246.33 80.96 245.66 87.56 C 244.92 94.64 243.88 101.44 240.89 107.95 C 238.63 112.93 236.27 117.24 237.02 122.95 C 237.68 131.50 243.42 137.01 244.85 145.22 C 247.62 161.04 247.37 178.01 246.95 194.04 C 246.58 205.59 243.90 217.84 237.68 227.71 C 233.66 233.15 228.51 238.67 222.08 241.16 C 216.45 243.46 210.17 245.76 204.04 245.98 C 194.66 246.28 185.37 246.05 176.03 245.10 C 163.03 244.76 150.01 245.18 137.00 244.95 C 129.17 244.64 121.65 246.35 113.83 245.38 C 104.21 244.95 94.61 243.69 85.00 243.97 C 75.31 244.16 65.60 243.83 55.92 243.30 C 49.49 242.98 43.41 241.43 37.27 239.63 C 32.76 238.33 29.11 235.42 25.74 232.26 C 18.90 225.63 14.19 216.66 11.49 207.60 C 9.88 201.40 11.75 196.26 13.30 190.36 C 15.22 183.69 12.31 176.50 11.00 169.91 C 8.88 161.16 11.01 152.65 9.18 143.84 C 7.77 135.19 4.19 125.30 7.88 116.87 C 10.62 109.35 16.53 106.35 21.46 100.47 C 25.34 95.88 30.10 92.41 35.03 89.04 C 38.70 86.55 42.93 85.49 47.10 84.02 C 50.94 82.68 54.84 81.55 58.78 80.53 C 57.89 80.07 57.00 79.61 56.10 79.16 C 58.56 79.24 61.52 79.77 63.88 78.91 C 66.08 77.80 67.86 75.60 69.56 73.86 C 63.27 67.72 54.91 68.96 48.24 63.76 C 43.99 60.58 41.03 56.07 38.43 51.51 C 35.67 46.64 33.41 40.24 34.53 34.61 C 36.00 27.50 42.39 22.65 49.23 21.25 C 54.38 20.30 58.85 21.72 63.65 23.35 C 73.44 26.73 83.90 27.60 93.85 29.23 C 101.26 30.45 107.39 33.56 114.95 33.02 C 120.84 32.76 126.28 29.11 131.78 26.86 C 139.10 23.22 146.82 20.64 154.29 17.33 C 163.48 14.14 172.01 10.56 181.79 9.62 C 188.47 8.52 194.55 10.06 201.17 10.44 Z" fill="#f6f6f4" />
<path d="M 189.54 22.52 C 194.07 22.71 197.46 23.74 201.37 26.07 C 200.61 26.22 199.86 26.39 199.12 26.58 C 195.44 27.50 192.90 29.72 188.85 29.17 C 183.75 27.54 178.95 27.60 173.81 29.03 C 167.07 31.56 161.76 35.82 156.15 40.16 C 151.14 43.93 145.61 44.64 140.06 46.97 C 141.97 47.46 143.88 47.94 145.77 48.49 C 141.35 51.93 136.40 54.51 132.07 58.06 C 128.98 60.63 125.57 61.70 122.02 63.56 C 120.03 62.69 118.04 61.85 116.00 61.14 C 119.71 63.66 123.67 65.35 127.76 67.25 C 127.92 68.77 128.08 70.28 128.23 71.79 C 134.16 75.24 140.30 77.79 146.61 80.41 C 152.16 83.22 158.06 84.33 163.25 87.69 C 165.55 89.24 168.69 90.36 170.42 92.56 C 172.81 96.14 174.66 100.28 175.55 104.50 C 176.02 113.28 174.80 122.01 172.49 130.47 C 171.62 133.68 169.55 136.65 167.76 139.43 C 164.54 143.21 163.07 147.67 160.86 152.02 C 155.94 158.66 152.58 165.95 148.76 173.22 C 149.89 173.70 151.02 174.17 152.15 174.65 C 152.30 177.61 152.63 180.47 153.17 183.39 C 152.27 185.50 150.98 187.35 149.67 189.23 C 150.97 191.81 153.63 195.24 152.28 198.23 C 150.30 202.52 146.82 206.23 143.12 209.11 C 139.72 211.84 134.34 211.86 130.16 212.34 C 127.90 208.54 124.66 205.19 122.86 201.16 C 125.90 198.09 130.27 196.34 134.43 195.45 C 136.31 194.94 137.78 195.72 139.58 196.16 C 139.10 198.54 138.87 201.42 137.54 203.49 C 136.30 204.83 134.37 205.58 132.80 206.49 C 130.96 205.00 132.45 201.74 132.38 199.71 C 129.98 200.64 127.70 201.37 125.64 202.98 C 126.79 205.18 128.70 206.37 130.79 207.56 C 134.60 208.60 138.77 208.67 141.89 205.91 C 143.95 204.01 146.57 201.72 147.41 198.99 C 146.86 195.45 142.67 193.33 143.38 189.29 C 143.74 186.55 143.75 183.97 143.52 181.22 C 144.09 180.48 144.65 179.73 145.20 178.98 C 145.78 175.42 145.92 171.78 146.11 168.19 C 147.77 165.99 149.41 163.75 150.88 161.42 C 152.94 158.43 154.05 155.03 155.88 151.91 C 158.39 147.57 160.63 142.89 162.00 138.05 C 163.42 132.44 162.26 126.17 162.60 120.33 C 163.31 112.20 159.98 102.70 153.02 98.01 C 148.26 94.62 143.20 91.61 137.91 89.11 C 132.76 86.44 127.55 82.64 121.44 83.31 C 121.94 82.64 122.47 81.99 123.01 81.34 C 118.53 78.88 114.41 76.22 109.25 75.37 C 109.22 76.21 109.20 77.06 109.18 77.90 C 105.77 72.80 100.03 70.11 94.96 66.98 C 88.81 63.57 84.36 58.73 77.12 57.77 C 68.82 56.51 61.24 55.54 54.70 49.72 C 52.11 46.76 48.66 44.73 46.05 41.86 C 44.64 38.59 44.21 34.85 43.36 31.39 C 44.13 31.93 44.89 32.46 45.66 33.00 C 45.97 31.92 46.28 30.85 46.60 29.78 C 47.39 29.50 48.19 29.22 48.98 28.93 C 51.21 31.63 53.08 35.23 55.98 37.21 C 57.67 37.41 59.37 37.53 61.08 37.63 C 60.57 38.71 60.06 39.79 59.55 40.87 C 60.19 41.69 60.84 42.52 61.48 43.34 C 62.37 41.52 63.16 39.66 63.93 37.78 L 65.09 37.17 C 66.82 38.60 68.55 40.31 70.49 41.43 C 73.94 41.97 76.65 40.41 79.06 43.69 C 82.39 40.56 85.53 41.90 89.64 42.01 C 88.48 42.88 87.29 43.73 86.10 44.56 C 89.16 44.44 92.20 44.42 95.25 44.21 C 93.22 43.78 91.15 43.50 89.11 43.11 C 91.96 41.21 94.13 39.55 97.66 41.05 C 102.38 44.68 104.43 49.65 110.38 51.75 C 112.79 48.92 115.14 47.98 118.77 47.26 C 117.36 48.74 115.85 50.10 114.41 51.54 C 117.86 49.34 119.94 46.28 123.85 44.86 C 128.45 42.96 132.73 40.59 136.92 37.91 C 141.01 35.33 145.68 34.37 149.58 31.58 C 152.51 29.52 155.76 27.12 159.19 26.01 C 162.66 25.17 166.16 25.68 169.56 24.43 C 171.19 24.47 172.90 24.69 174.51 24.45 C 175.92 23.51 177.14 22.24 178.63 21.38 C 182.20 20.99 185.91 22.44 189.54 22.52 Z" fill="#20223e" />
<path d="M 199.12 26.58 C 198.28 27.02 197.45 27.46 196.63 27.92 C 199.42 28.55 202.23 28.98 205.10 28.95 C 206.38 28.94 207.66 28.88 208.93 28.81 C 209.65 29.79 210.36 30.77 211.10 31.73 C 210.52 31.59 209.95 31.46 209.38 31.35 C 208.80 31.79 208.22 32.23 207.65 32.69 C 202.66 32.14 197.75 29.11 193.05 30.60 C 191.65 30.10 190.26 29.61 188.85 29.17 C 192.90 29.72 195.44 27.50 199.12 26.58 Z" fill="#8a8c8f" />
<path d="M 201.37 26.07 C 202.69 26.88 203.91 27.96 205.10 28.95 C 202.23 28.98 199.42 28.55 196.63 27.92 C 197.45 27.46 198.28 27.02 199.12 26.58 C 199.86 26.39 200.61 26.22 201.37 26.07 Z" fill="#b7b9bf" />
<path d="M 159.19 27.43 C 160.85 26.50 162.10 28.57 160.80 29.79 C 159.12 30.72 157.86 28.67 159.19 27.43 Z" fill="#76778d" />
<path d="M 188.85 29.17 C 190.26 29.61 191.65 30.10 193.05 30.60 L 191.71 31.55 C 193.58 32.48 195.52 33.49 197.51 34.14 C 200.01 34.96 202.87 34.80 205.34 35.71 C 207.41 37.62 208.49 40.47 210.44 42.54 C 214.95 46.98 218.49 51.94 224.02 55.24 C 225.43 56.90 226.64 58.70 227.74 60.58 C 228.07 64.48 228.53 68.08 231.00 71.30 C 232.09 72.90 232.29 74.03 232.16 76.00 C 231.41 86.44 232.78 96.70 232.57 107.15 C 229.89 101.73 229.53 94.87 224.44 91.50 C 222.27 94.53 220.09 97.55 217.82 100.50 C 217.96 98.49 218.08 96.48 218.19 94.47 C 217.55 94.11 216.91 93.74 216.26 93.38 C 218.17 92.27 220.08 91.16 222.00 90.06 C 221.63 89.37 221.27 88.69 220.90 88.00 C 217.31 89.62 213.71 90.98 209.85 91.80 C 209.98 88.25 210.29 85.12 207.40 82.45 C 204.32 81.98 200.84 83.07 197.75 83.43 C 192.43 83.39 187.56 83.14 182.50 85.15 C 181.14 85.78 179.58 86.11 179.26 87.81 C 178.34 92.01 177.28 97.50 179.65 101.35 C 180.80 103.42 183.14 106.07 185.78 105.63 C 188.86 105.41 191.92 104.88 194.99 104.53 C 195.89 105.51 196.78 106.50 197.62 107.53 C 196.94 109.44 196.73 111.21 196.62 113.23 C 195.62 113.39 194.63 113.55 193.64 113.72 C 192.94 113.83 192.26 113.98 191.58 114.15 L 190.61 114.46 C 185.32 111.44 181.18 106.65 175.55 104.50 C 174.66 100.28 172.81 96.14 170.42 92.56 C 168.69 90.36 165.55 89.24 163.25 87.69 C 158.06 84.33 152.16 83.22 146.61 80.41 C 140.30 77.79 134.16 75.24 128.23 71.79 C 128.08 70.28 127.92 68.77 127.76 67.25 C 123.67 65.35 119.71 63.66 116.00 61.14 C 118.04 61.85 120.03 62.69 122.02 63.56 C 125.57 61.70 128.98 60.63 132.07 58.06 C 136.40 54.51 141.35 51.93 145.77 48.49 C 143.88 47.94 141.97 47.46 140.06 46.97 C 145.61 44.64 151.14 43.93 156.15 40.16 C 161.76 35.82 167.07 31.56 173.81 29.03 C 178.95 27.60 183.75 27.54 188.85 29.17 Z" fill="#c4cfb7" />
<path d="M 207.65 32.69 C 209.99 34.79 212.35 37.20 214.98 38.91 C 216.66 39.95 218.75 40.39 220.58 41.10 L 220.93 42.39 L 220.14 44.19 C 220.92 45.05 221.73 45.88 222.56 46.68 C 222.15 47.87 221.79 49.07 221.42 50.27 C 222.22 50.32 223.03 50.38 223.83 50.45 C 223.46 51.09 223.10 51.73 222.75 52.37 C 224.25 52.58 225.76 52.77 227.27 52.93 C 226.20 53.72 225.11 54.48 224.02 55.24 C 218.49 51.94 214.95 46.98 210.44 42.54 C 208.49 40.47 207.41 37.62 205.34 35.71 C 202.87 34.80 200.01 34.96 197.51 34.14 C 195.52 33.49 193.58 32.48 191.71 31.55 L 193.05 30.60 C 197.75 29.11 202.66 32.14 207.65 32.69 Z" fill="#d2d9c7" />
<path d="M 209.38 31.35 C 209.95 31.46 210.52 31.59 211.10 31.73 C 213.86 35.05 218.87 37.15 220.58 41.10 C 218.75 40.39 216.66 39.95 214.98 38.91 C 212.35 37.20 209.99 34.79 207.65 32.69 C 208.22 32.23 208.80 31.79 209.38 31.35 Z" fill="#3a3f4c" />
<path d="M 59.54 35.48 C 61.01 36.23 62.42 37.09 63.93 37.78 C 63.16 39.66 62.37 41.52 61.48 43.34 C 60.84 42.52 60.19 41.69 59.55 40.87 C 60.06 39.79 60.57 38.71 61.08 37.63 C 59.37 37.53 57.67 37.41 55.98 37.21 C 57.01 36.52 58.13 34.45 59.54 35.48 Z" fill="#747486" />
<path d="M 66.06 40.21 L 66.88 40.18 L 67.32 40.89 L 66.94 41.62 L 66.12 41.65 L 65.68 40.94 L 66.06 40.21 Z" fill="#84849c" />
<path d="M 148.20 41.05 L 148.93 40.65 L 149.65 41.08 L 149.63 41.90 L 148.91 42.29 L 148.19 41.87 L 148.20 41.05 Z" fill="#797d96" />
<path d="M 220.93 42.39 C 221.87 42.90 222.81 43.42 223.75 43.93 C 223.34 44.84 222.94 45.76 222.56 46.68 C 221.73 45.88 220.92 45.05 220.14 44.19 L 220.93 42.39 Z" fill="#6d6f77" />
<path d="M 44.22 44.64 C 46.85 46.43 49.14 48.59 51.38 50.85 C 52.49 50.48 53.59 50.10 54.70 49.72 C 61.24 55.54 68.82 56.51 77.12 57.77 C 84.36 58.73 88.81 63.57 94.96 66.98 C 100.03 70.11 105.77 72.80 109.18 77.90 C 109.20 77.06 109.22 76.21 109.25 75.37 C 114.41 76.22 118.53 78.88 123.01 81.34 C 122.47 81.99 121.94 82.64 121.44 83.31 C 127.55 82.64 132.76 86.44 137.91 89.11 C 143.20 91.61 148.26 94.62 153.02 98.01 C 159.98 102.70 163.31 112.20 162.60 120.33 C 162.26 126.17 163.42 132.44 162.00 138.05 C 160.63 142.89 158.39 147.57 155.88 151.91 C 154.05 155.03 152.94 158.43 150.88 161.42 C 151.47 156.92 152.25 152.56 152.44 148.05 C 152.68 141.56 154.06 135.27 154.03 128.77 C 153.01 131.85 152.48 134.75 150.69 137.48 C 145.51 144.89 146.38 155.23 142.44 163.63 C 141.99 160.08 141.80 156.54 141.10 153.02 C 140.14 148.01 139.83 142.95 139.47 137.88 C 138.68 142.24 138.37 146.59 138.89 151.01 C 139.58 157.75 139.23 164.44 139.43 171.18 C 139.49 176.57 141.26 181.29 140.26 186.72 C 138.96 182.25 138.71 177.69 137.74 173.15 C 136.34 166.43 136.02 159.60 134.81 152.87 C 133.86 163.24 135.34 173.30 136.95 183.50 C 134.88 182.06 132.86 180.54 130.82 179.07 C 131.46 183.20 133.19 184.80 136.36 187.25 C 130.48 188.83 125.01 189.58 119.69 192.64 C 114.59 195.20 109.71 198.24 104.53 200.62 C 102.03 201.77 99.62 200.95 97.07 200.46 L 96.32 200.29 C 95.16 198.02 92.98 196.06 94.30 193.38 C 97.09 187.38 101.64 183.62 106.35 179.28 C 106.90 177.04 106.37 174.45 106.17 172.18 C 106.86 172.32 107.54 172.46 108.22 172.60 C 109.82 175.29 111.83 177.67 113.50 180.32 C 115.06 183.52 116.39 184.79 119.56 186.40 C 119.56 180.83 119.60 175.35 120.43 169.82 L 121.14 170.12 C 121.49 174.18 121.53 178.27 121.68 182.34 C 123.14 183.27 124.61 184.18 126.09 185.09 C 126.03 183.44 125.98 181.80 125.82 180.16 C 125.40 174.51 125.15 169.06 123.69 163.53 C 122.85 156.52 121.57 149.93 119.75 143.11 L 119.84 141.76 C 121.29 141.94 122.72 142.18 124.17 142.40 C 123.26 138.57 121.34 134.97 123.09 131.11 C 125.05 126.21 127.38 121.75 127.68 116.34 C 129.32 114.95 130.89 113.73 131.46 111.53 C 133.03 106.25 134.91 101.15 136.98 96.05 C 136.41 96.36 135.83 96.68 135.26 97.00 C 130.51 99.58 126.43 103.09 121.55 105.45 C 124.07 102.25 127.03 99.19 129.09 95.71 C 124.83 98.52 121.12 102.34 117.81 106.20 C 116.93 105.86 116.04 105.54 115.15 105.23 L 114.02 104.89 C 118.13 100.40 123.48 97.46 127.45 92.78 C 121.38 94.17 115.99 91.21 109.90 92.73 C 108.68 93.15 107.49 93.63 106.32 94.17 C 108.50 95.56 109.70 95.67 112.18 95.36 C 110.78 95.58 109.37 95.73 107.97 95.94 C 106.84 94.88 105.92 93.72 104.45 93.16 C 103.33 92.67 102.19 92.24 101.03 91.87 C 99.54 92.26 98.08 92.73 96.62 93.20 C 96.34 91.84 96.10 90.48 95.86 89.12 C 99.17 87.43 102.51 87.24 106.10 86.55 C 98.91 86.41 91.98 87.71 84.94 88.94 C 80.60 89.74 76.14 89.89 71.84 90.87 C 68.84 91.53 66.41 94.08 64.00 95.89 C 57.89 99.78 51.78 105.12 44.79 107.17 C 45.93 106.10 47.06 105.01 48.15 103.89 C 40.18 105.77 31.41 108.09 24.38 112.40 C 21.02 115.03 20.34 120.85 19.81 124.79 C 19.35 128.27 19.22 131.77 19.61 135.27 C 19.70 136.12 19.85 136.97 20.05 137.81 C 20.47 139.92 20.89 142.03 21.24 144.15 C 21.42 145.52 21.54 146.91 21.69 148.28 C 22.92 145.79 23.97 143.27 25.39 140.87 C 26.10 139.73 26.84 138.61 27.63 137.54 C 28.66 136.64 29.71 135.77 30.77 134.90 C 31.76 136.92 32.76 138.94 33.77 140.95 C 33.32 138.28 32.65 135.61 32.82 132.92 C 36.32 133.45 39.81 134.11 43.33 134.57 C 40.19 136.62 37.32 138.96 34.75 141.70 C 35.20 142.54 35.65 143.38 36.10 144.22 C 38.60 142.72 41.10 141.23 43.62 139.77 C 45.09 142.13 45.51 146.21 48.87 146.43 C 51.04 146.72 53.45 144.28 55.37 143.42 C 59.04 140.77 64.46 143.32 68.83 142.16 C 71.14 140.85 73.18 139.07 75.39 137.58 L 76.15 139.03 C 72.40 142.74 66.50 145.62 64.25 150.40 C 62.86 152.24 65.06 154.38 65.89 156.06 C 64.47 155.17 62.84 153.73 61.07 154.11 C 55.89 154.97 50.96 157.15 45.80 158.12 C 44.86 158.32 43.76 157.55 42.96 157.14 C 38.89 154.57 35.32 151.29 31.30 148.64 C 33.90 152.40 36.70 155.70 37.48 160.37 C 38.03 163.58 36.60 166.30 35.30 169.11 C 32.69 169.15 29.40 170.61 27.24 168.75 C 24.88 167.14 22.69 165.33 20.24 163.86 C 23.67 167.75 27.31 172.59 31.98 174.98 C 38.01 177.01 45.87 174.82 52.03 173.88 C 55.22 173.41 57.02 171.29 59.93 170.15 C 62.42 169.22 65.29 169.03 67.94 168.91 C 65.58 169.72 63.20 170.44 60.86 171.31 C 63.99 172.75 66.56 172.42 69.82 171.85 C 70.73 172.05 71.64 172.27 72.54 172.51 L 71.81 174.47 C 68.00 177.41 64.47 180.65 60.83 183.80 C 58.52 185.42 55.95 186.95 53.98 188.98 C 52.81 190.08 53.29 191.11 53.53 192.48 C 54.67 197.40 57.54 202.10 59.46 206.82 C 56.98 207.22 54.54 207.78 52.20 208.74 C 53.89 209.08 55.60 209.35 57.34 209.56 C 57.41 210.26 57.48 210.95 57.56 211.65 C 57.00 212.07 56.44 212.48 55.88 212.90 C 53.72 211.91 51.57 210.90 49.43 209.86 L 48.26 209.28 C 48.53 208.44 48.80 207.59 49.08 206.74 C 47.10 205.76 45.14 204.74 43.15 203.80 C 39.00 201.73 34.22 202.13 30.31 199.88 C 30.85 197.36 30.35 195.05 29.72 192.59 C 27.95 192.38 26.18 192.14 24.41 191.92 C 25.70 190.05 27.16 188.07 28.03 185.97 C 26.63 182.88 23.87 180.65 22.63 177.38 C 21.31 173.98 20.08 170.44 18.96 166.97 C 17.67 163.46 20.03 159.46 19.45 155.70 C 18.77 151.77 17.60 147.93 16.95 143.99 C 16.01 138.33 13.60 132.57 13.83 126.97 C 13.94 123.21 15.56 120.36 16.79 116.94 C 17.76 114.28 18.02 111.62 18.39 108.83 C 25.77 108.40 32.16 101.03 38.01 97.17 C 41.46 95.46 45.23 94.49 48.66 92.69 C 54.67 89.61 60.83 88.55 67.35 86.41 C 73.88 84.54 80.74 83.62 85.53 78.17 C 85.98 73.62 83.92 67.43 79.08 65.95 C 74.29 64.10 69.26 62.34 64.35 60.82 C 60.01 59.42 55.36 59.48 52.24 55.82 C 49.32 52.54 46.39 49.56 42.56 47.32 C 43.10 46.42 43.65 45.52 44.22 44.64 Z" fill="#f3f2f1" />
<path d="M 167.28 44.16 C 174.08 42.48 179.88 45.95 184.51 50.59 C 185.95 54.46 185.21 59.24 186.84 63.09 C 188.24 64.79 190.23 66.07 191.93 67.46 C 189.43 67.39 185.58 68.45 184.01 65.96 C 180.68 62.08 180.60 57.62 178.76 53.17 C 176.27 49.98 172.54 50.65 168.96 50.73 C 166.75 50.83 164.05 51.60 163.62 54.09 C 163.48 56.77 163.57 60.52 165.23 62.74 C 168.34 64.53 171.40 65.63 173.82 68.45 C 178.97 69.02 179.50 74.04 180.25 78.21 C 177.83 75.94 175.81 72.88 173.02 71.09 C 170.66 70.26 168.07 70.57 165.83 69.26 C 163.18 67.64 160.77 65.60 158.46 63.54 C 156.89 62.08 155.72 60.38 156.10 58.13 C 157.47 51.97 160.94 46.16 167.28 44.16 Z" fill="#5c523e" />
<path d="M 167.02 47.22 C 168.44 47.83 169.76 48.73 171.06 49.55 C 168.04 49.83 165.04 49.97 162.04 49.42 C 163.56 48.61 165.27 47.42 167.02 47.22 Z" fill="#bebfa9" />
<path d="M 137.00 47.99 C 138.79 48.49 140.54 49.05 142.31 49.61 C 141.43 50.12 140.55 50.64 139.67 51.15 C 138.77 50.11 137.87 49.06 137.00 47.99 Z" fill="#787f8b" />
<path d="M 211.14 50.87 C 216.07 52.87 219.65 58.39 222.14 62.87 C 223.40 65.38 225.46 69.03 223.98 71.82 C 223.06 72.75 222.04 73.49 221.00 74.28 C 220.41 69.54 219.67 65.04 217.09 60.92 C 215.96 59.13 214.24 56.93 211.93 56.85 C 208.72 56.75 206.22 58.61 204.19 60.90 C 202.94 60.16 201.70 59.41 200.42 58.72 C 201.75 57.04 203.21 55.48 204.70 53.94 C 203.23 54.12 201.76 54.30 200.29 54.45 C 203.39 52.03 207.00 49.37 211.14 50.87 Z" fill="#5a503e" />
<path d="M 223.83 50.45 C 225.88 50.58 226.35 51.15 227.27 52.93 C 225.76 52.77 224.25 52.58 222.75 52.37 C 223.10 51.73 223.46 51.09 223.83 50.45 Z" fill="#686876" />
<path d="M 173.03 55.80 C 175.36 56.60 177.38 58.68 179.22 60.26 C 178.00 61.62 177.25 64.27 175.04 63.85 C 173.15 63.76 169.76 62.93 169.48 60.65 C 169.08 58.13 170.85 56.60 173.03 55.80 Z" fill="#605343" />
<path d="M 200.42 58.72 C 201.70 59.41 202.94 60.16 204.19 60.90 C 203.24 62.17 202.33 63.47 201.39 64.75 C 200.58 62.66 199.59 61.01 200.42 58.72 Z" fill="#7d7a65" />
<path d="M 208.90 60.00 C 211.66 62.11 213.54 63.92 214.31 67.46 C 210.75 66.77 207.70 65.52 206.05 62.09 C 206.94 61.32 207.94 60.66 208.90 60.00 Z" fill="#655b49" />
<path d="M 227.74 60.58 C 230.24 64.06 230.87 67.07 231.00 71.30 C 228.53 68.08 228.07 64.48 227.74 60.58 Z" fill="#868a88" />
<path d="M 200.17 65.21 C 200.90 65.25 201.63 65.31 202.37 65.39 C 204.09 68.34 205.74 71.33 207.49 74.26 C 203.90 71.88 200.96 69.75 200.17 65.21 Z" fill="#706c57" />
<path d="M 207.40 82.45 C 210.29 85.12 209.98 88.25 209.85 91.80 C 213.71 90.98 217.31 89.62 220.90 88.00 C 221.27 88.69 221.63 89.37 222.00 90.06 C 220.08 91.16 218.17 92.27 216.26 93.38 C 216.91 93.74 217.55 94.11 218.19 94.47 C 218.08 96.48 217.96 98.49 217.82 100.50 C 217.45 105.31 216.94 110.26 216.91 115.08 C 216.39 113.63 215.80 112.22 215.21 110.80 C 215.37 116.01 215.50 121.40 216.64 126.49 C 217.15 129.19 219.37 130.37 221.33 131.97 C 221.29 133.09 221.25 134.20 221.20 135.32 C 212.45 127.59 203.28 120.29 193.64 113.72 C 194.63 113.55 195.62 113.39 196.62 113.23 C 196.73 111.21 196.94 109.44 197.62 107.53 C 198.74 110.14 198.87 112.73 199.26 115.50 C 200.77 111.90 200.62 108.28 200.54 104.46 C 198.14 103.05 195.72 101.34 192.91 100.92 C 190.95 100.67 188.93 100.71 186.96 100.66 C 186.52 98.40 185.87 95.76 186.38 93.48 C 189.38 88.99 194.71 88.14 199.35 90.49 C 201.33 93.54 201.21 97.81 203.27 100.75 C 205.32 102.69 209.12 102.77 211.77 103.35 C 209.54 101.73 207.43 100.02 205.38 98.18 C 205.87 95.70 206.87 93.00 206.67 90.45 C 203.90 87.88 200.59 85.94 197.75 83.43 C 200.84 83.07 204.32 81.98 207.40 82.45 Z" fill="#d6dcca" />
<path d="M 197.75 83.43 C 200.59 85.94 203.90 87.88 206.67 90.45 C 206.87 93.00 205.87 95.70 205.38 98.18 C 207.43 100.02 209.54 101.73 211.77 103.35 C 209.12 102.77 205.32 102.69 203.27 100.75 C 201.21 97.81 201.33 93.54 199.35 90.49 C 194.71 88.14 189.38 88.99 186.38 93.48 C 185.87 95.76 186.52 98.40 186.96 100.66 C 188.93 100.71 190.95 100.67 192.91 100.92 C 195.72 101.34 198.14 103.05 200.54 104.46 C 200.62 108.28 200.77 111.90 199.26 115.50 C 198.87 112.73 198.74 110.14 197.62 107.53 C 196.78 106.50 195.89 105.51 194.99 104.53 C 191.92 104.88 188.86 105.41 185.78 105.63 C 183.14 106.07 180.80 103.42 179.65 101.35 C 177.28 97.50 178.34 92.01 179.26 87.81 C 179.58 86.11 181.14 85.78 182.50 85.15 C 187.56 83.14 192.43 83.39 197.75 83.43 Z" fill="#5e5340" />
<path d="M 106.10 86.55 C 102.51 87.24 99.17 87.43 95.86 89.12 C 95.08 89.76 94.32 90.43 93.56 91.10 C 93.49 90.39 93.42 89.69 93.35 88.99 C 88.90 91.81 84.11 93.91 79.48 96.40 C 80.25 96.52 81.03 96.63 81.81 96.75 L 83.90 97.08 C 82.36 97.38 80.81 97.57 79.25 97.66 C 76.23 96.68 73.49 95.43 70.40 94.67 C 68.23 94.93 66.12 95.37 64.00 95.89 C 66.41 94.08 68.84 91.53 71.84 90.87 C 76.14 89.89 80.60 89.74 84.94 88.94 C 91.98 87.71 98.91 86.41 106.10 86.55 Z" fill="#96967c" />
<path d="M 93.35 88.99 C 93.42 89.69 93.49 90.39 93.56 91.10 C 94.32 90.43 95.08 89.76 95.86 89.12 C 96.10 90.48 96.34 91.84 96.62 93.20 L 96.83 94.16 C 94.32 94.59 92.07 95.62 89.87 96.86 C 95.93 97.62 102.02 97.23 107.97 95.94 C 109.37 95.73 110.78 95.58 112.18 95.36 C 113.65 94.87 115.04 93.91 116.35 93.10 C 114.20 92.90 112.06 92.73 109.90 92.73 C 115.99 91.21 121.38 94.17 127.45 92.78 C 123.48 97.46 118.13 100.40 114.02 104.89 C 108.29 104.50 102.73 105.30 97.00 105.13 C 91.73 104.80 87.10 108.10 81.86 109.55 C 77.73 109.60 73.67 109.97 69.59 110.59 C 62.88 111.67 56.13 111.45 49.37 112.21 L 48.91 110.40 C 51.62 109.64 54.29 108.60 57.05 108.03 C 62.32 106.98 67.83 108.53 72.90 106.88 C 76.77 105.63 80.51 103.90 84.10 101.98 C 78.69 102.12 73.90 103.95 68.87 105.70 C 72.70 103.38 76.28 101.08 79.25 97.66 C 80.81 97.57 82.36 97.38 83.90 97.08 C 86.47 96.45 88.84 94.63 91.03 93.18 C 87.79 94.03 84.80 95.24 81.81 96.75 C 81.03 96.63 80.25 96.52 79.48 96.40 C 84.11 93.91 88.90 91.81 93.35 88.99 Z" fill="#c1c6ad" />
<path d="M 101.03 91.87 C 102.19 92.24 103.33 92.67 104.45 93.16 C 101.51 94.55 100.01 94.79 96.83 94.16 L 96.62 93.20 C 98.08 92.73 99.54 92.26 101.03 91.87 Z" fill="#535269" />
<path d="M 193.81 91.71 C 196.29 93.40 196.01 95.75 196.59 98.40 C 194.12 98.05 191.66 97.62 189.21 97.16 C 189.41 95.81 189.66 94.48 189.98 93.17 C 191.04 92.12 192.37 91.81 193.81 91.71 Z" fill="#615541" />
<path d="M 91.03 93.18 C 88.84 94.63 86.47 96.45 83.90 97.08 L 81.81 96.75 C 84.80 95.24 87.79 94.03 91.03 93.18 Z" fill="#77796b" />
<path d="M 107.97 95.94 C 102.02 97.23 95.93 97.62 89.87 96.86 C 92.07 95.62 94.32 94.59 96.83 94.16 C 100.01 94.79 101.51 94.55 104.45 93.16 C 105.92 93.72 106.84 94.88 107.97 95.94 Z" fill="#343542" />
<path d="M 109.90 92.73 C 112.06 92.73 114.20 92.90 116.35 93.10 C 115.04 93.91 113.65 94.87 112.18 95.36 C 109.70 95.67 108.50 95.56 106.32 94.17 C 107.49 93.63 108.68 93.15 109.90 92.73 Z" fill="#1a1b33" />
<path d="M 117.43 93.03 L 118.06 92.64 C 119.21 93.18 119.24 93.69 118.14 94.19 L 117.31 93.79 L 117.43 93.03 Z" fill="#72746e" />
<path d="M 70.40 94.67 C 73.49 95.43 76.23 96.68 79.25 97.66 C 76.28 101.08 72.70 103.38 68.87 105.70 C 73.90 103.95 78.69 102.12 84.10 101.98 C 80.51 103.90 76.77 105.63 72.90 106.88 C 67.83 108.53 62.32 106.98 57.05 108.03 C 54.29 108.60 51.62 109.64 48.91 110.40 C 46.39 109.21 43.86 108.45 41.04 108.66 C 42.28 108.14 43.53 107.65 44.79 107.17 C 51.78 105.12 57.89 99.78 64.00 95.89 C 66.12 95.37 68.23 94.93 70.40 94.67 Z" fill="#676247" />
<path d="M 129.09 95.71 C 127.03 99.19 124.07 102.25 121.55 105.45 C 121.05 106.00 120.54 106.56 120.04 107.11 C 119.30 106.80 118.56 106.50 117.81 106.20 C 121.12 102.34 124.83 98.52 129.09 95.71 Z" fill="#484a48" />
<path d="M 136.98 96.05 C 134.91 101.15 133.03 106.25 131.46 111.53 C 130.89 113.73 129.32 114.95 127.68 116.34 C 122.00 119.84 120.48 128.53 116.51 133.80 C 117.70 126.45 120.39 119.60 124.54 113.44 C 126.61 110.77 129.72 108.58 131.54 105.56 C 133.13 102.92 134.28 99.91 135.26 97.00 C 135.83 96.68 136.41 96.36 136.98 96.05 Z" fill="#1f1e33" />
<path d="M 135.26 97.00 C 134.28 99.91 133.13 102.92 131.54 105.56 C 129.72 108.58 126.61 110.77 124.54 113.44 C 120.39 119.60 117.70 126.45 116.51 133.80 C 120.48 128.53 122.00 119.84 127.68 116.34 C 127.38 121.75 125.05 126.21 123.09 131.11 C 121.34 134.97 123.26 138.57 124.17 142.40 C 122.72 142.18 121.29 141.94 119.84 141.76 L 119.75 143.11 C 117.22 139.74 114.06 136.98 111.68 133.48 C 112.76 133.47 113.46 133.02 113.77 132.14 C 113.69 129.98 111.15 130.95 109.90 131.37 C 107.64 131.24 105.40 131.38 103.15 131.64 C 105.26 127.36 107.12 122.97 109.32 118.73 C 107.69 117.47 106.38 115.38 104.08 115.70 C 100.05 115.98 96.04 116.58 92.03 117.02 C 88.92 117.42 84.93 118.33 82.91 120.97 C 80.71 124.40 81.42 129.46 82.93 133.04 C 83.86 135.42 87.11 136.81 89.37 135.45 C 91.30 134.36 92.93 132.58 94.41 130.96 C 94.73 131.72 95.05 132.48 95.38 133.24 C 94.45 134.87 93.97 137.85 91.82 138.13 C 86.73 138.99 83.47 136.12 79.74 133.27 C 78.48 134.03 77.22 134.79 75.96 135.55 C 77.46 135.39 78.96 135.23 80.46 135.10 C 79.05 136.44 77.61 137.74 76.15 139.03 L 75.39 137.58 L 74.84 136.66 C 68.94 138.58 63.23 136.45 57.29 138.02 C 54.97 136.80 52.69 134.41 49.97 134.56 C 48.28 134.50 46.60 134.58 44.90 134.59 L 43.33 134.57 C 39.81 134.11 36.32 133.45 32.82 132.92 C 33.04 132.03 33.27 131.15 33.50 130.27 C 31.99 130.65 29.94 130.63 28.99 132.00 C 27.66 133.44 27.80 135.70 27.63 137.54 C 26.84 138.61 26.10 139.73 25.39 140.87 L 23.95 139.79 C 23.04 141.24 22.14 142.69 21.24 144.15 C 20.89 142.03 20.47 139.92 20.05 137.81 C 20.98 136.84 22.19 134.75 20.91 133.63 C 20.27 133.71 19.84 134.26 19.61 135.27 C 19.22 131.77 19.35 128.27 19.81 124.79 C 19.74 127.23 19.85 129.65 19.98 132.09 C 20.32 131.16 20.65 130.22 20.97 129.29 C 24.18 126.68 26.68 123.51 29.52 120.56 C 33.96 119.19 38.24 118.73 42.22 115.99 C 44.49 117.62 47.11 118.88 49.22 120.70 C 50.44 122.21 51.10 124.26 51.87 126.03 C 54.78 124.76 57.79 123.76 60.76 122.65 C 64.41 121.40 66.30 117.86 69.34 115.70 C 74.06 112.85 78.76 110.87 84.24 109.92 C 85.90 109.54 87.49 108.98 89.11 108.46 C 89.98 109.92 90.84 111.40 91.69 112.87 C 93.60 111.56 95.47 110.22 97.32 108.82 C 101.98 109.61 106.94 109.66 111.54 108.51 C 113.27 108.15 114.11 106.48 115.15 105.23 C 116.04 105.54 116.93 105.86 117.81 106.20 C 118.56 106.50 119.30 106.80 120.04 107.11 C 120.54 106.56 121.05 106.00 121.55 105.45 C 126.43 103.09 130.51 99.58 135.26 97.00 Z" fill="#bec4a9" />
<path d="M 159.21 101.28 C 159.76 101.79 159.76 101.79 159.21 101.28 Z" fill="#9da7b3" />
<path d="M 48.15 103.89 C 47.06 105.01 45.93 106.10 44.79 107.17 C 43.53 107.65 42.28 108.14 41.04 108.66 C 39.86 109.16 38.69 109.67 37.52 110.20 C 38.45 110.86 39.38 111.51 40.30 112.16 L 39.06 111.88 C 38.13 111.66 37.20 111.44 36.27 111.26 C 32.46 113.45 28.63 115.30 25.68 118.67 C 23.22 121.56 22.05 125.71 20.97 129.29 C 20.65 130.22 20.32 131.16 19.98 132.09 C 19.85 129.65 19.74 127.23 19.81 124.79 C 20.34 120.85 21.02 115.03 24.38 112.40 C 31.41 108.09 40.18 105.77 48.15 103.89 Z" fill="#1f1f3a" />
<path d="M 97.00 105.13 C 102.73 105.30 108.29 104.50 114.02 104.89 L 115.15 105.23 C 114.11 106.48 113.27 108.15 111.54 108.51 C 106.94 109.66 101.98 109.61 97.32 108.82 C 94.42 108.32 92.00 107.31 89.11 108.46 C 87.49 108.98 85.90 109.54 84.24 109.92 C 83.45 109.80 82.65 109.68 81.86 109.55 C 87.10 108.10 91.73 104.80 97.00 105.13 Z" fill="#191b34" />
<path d="M 97.32 108.82 C 95.47 110.22 93.60 111.56 91.69 112.87 C 90.84 111.40 89.98 109.92 89.11 108.46 C 92.00 107.31 94.42 108.32 97.32 108.82 Z" fill="#9c9a88" />
<path d="M 41.04 108.66 C 43.86 108.45 46.39 109.21 48.91 110.40 L 49.37 112.21 C 46.32 112.56 43.34 112.77 40.30 112.16 C 39.38 111.51 38.45 110.86 37.52 110.20 C 38.69 109.67 39.86 109.16 41.04 108.66 Z" fill="#fdfffd" />
<path d="M 81.86 109.55 C 82.65 109.68 83.45 109.80 84.24 109.92 C 78.76 110.87 74.06 112.85 69.34 115.70 C 66.30 117.86 64.41 121.40 60.76 122.65 C 57.79 123.76 54.78 124.76 51.87 126.03 C 51.10 124.26 50.44 122.21 49.22 120.70 C 47.11 118.88 44.49 117.62 42.22 115.99 C 41.10 114.66 40.10 113.28 39.06 111.88 L 40.30 112.16 C 43.34 112.77 46.32 112.56 49.37 112.21 C 56.13 111.45 62.88 111.67 69.59 110.59 C 73.67 109.97 77.73 109.60 81.86 109.55 Z" fill="#5f5642" />
<path d="M 36.27 111.26 C 37.20 111.44 38.13 111.66 39.06 111.88 C 40.10 113.28 41.10 114.66 42.22 115.99 C 38.24 118.73 33.96 119.19 29.52 120.56 C 26.68 123.51 24.18 126.68 20.97 129.29 C 22.05 125.71 23.22 121.56 25.68 118.67 C 28.63 115.30 32.46 113.45 36.27 111.26 Z" fill="#f1f2ed" />
<path d="M 215.21 110.80 C 215.80 112.22 216.39 113.63 216.91 115.08 C 218.07 119.68 219.49 124.17 221.55 128.45 C 223.07 131.59 224.16 134.72 224.24 138.24 C 223.24 137.24 222.23 136.27 221.20 135.32 C 221.25 134.20 221.29 133.09 221.33 131.97 C 219.37 130.37 217.15 129.19 216.64 126.49 C 215.50 121.40 215.37 116.01 215.21 110.80 Z" fill="#c3ccb6" />
<path d="M 191.58 114.15 C 192.26 113.98 192.94 113.83 193.64 113.72 C 203.28 120.29 212.45 127.59 221.20 135.32 C 222.23 136.27 223.24 137.24 224.24 138.24 C 230.43 145.17 232.44 153.26 236.21 161.53 C 233.15 163.09 232.44 165.00 231.22 168.03 C 228.83 164.22 227.20 160.17 224.38 156.62 C 222.20 154.00 220.60 151.06 218.80 148.19 C 215.28 142.43 209.45 139.14 205.65 133.48 C 207.59 134.53 209.44 135.74 211.40 136.77 C 208.60 134.09 205.19 132.28 202.47 129.50 C 197.52 125.03 194.98 119.21 190.61 114.46 L 191.58 114.15 Z" fill="#21223e" />
<path d="M 60.67 115.08 C 61.73 116.56 62.49 118.25 63.30 119.89 C 61.89 120.69 60.45 121.58 58.96 122.19 C 56.44 121.46 54.22 119.49 51.99 118.12 C 54.63 117.11 57.80 114.54 60.67 115.08 Z" fill="#faf9bf" />
<path d="M 104.08 115.70 C 106.38 115.38 107.69 117.47 109.32 118.73 C 107.12 122.97 105.26 127.36 103.15 131.64 L 102.65 132.32 C 99.98 135.81 98.18 139.50 94.91 142.55 L 93.03 142.13 C 90.70 141.61 88.39 140.99 86.09 140.36 C 92.45 146.76 98.18 153.35 101.22 162.01 C 97.64 165.99 92.55 170.79 86.74 170.03 C 80.91 169.32 75.46 170.59 69.82 171.85 C 66.56 172.42 63.99 172.75 60.86 171.31 C 63.20 170.44 65.58 169.72 67.94 168.91 C 65.29 169.03 62.42 169.22 59.93 170.15 C 57.02 171.29 55.22 173.41 52.03 173.88 C 45.87 174.82 38.01 177.01 31.98 174.98 C 27.31 172.59 23.67 167.75 20.24 163.86 C 22.69 165.33 24.88 167.14 27.24 168.75 C 29.40 170.61 32.69 169.15 35.30 169.11 C 37.82 168.93 40.31 169.02 42.82 169.12 C 48.56 169.46 54.45 167.85 60.26 167.31 C 68.39 166.16 77.24 165.57 84.38 161.38 C 86.29 160.25 88.50 159.20 88.95 156.80 C 90.02 150.14 87.64 143.63 82.87 138.94 C 77.61 140.35 73.75 143.58 70.33 147.68 C 68.98 149.19 67.66 150.73 66.33 152.27 C 66.91 152.92 67.49 153.57 68.08 154.22 C 70.57 155.93 73.21 157.06 75.96 158.28 C 76.87 156.55 77.80 154.82 78.72 153.08 C 77.93 152.56 77.15 152.04 76.36 151.52 C 73.64 153.11 72.69 153.78 69.58 152.62 C 71.32 150.92 73.06 149.15 75.15 147.87 C 78.08 149.05 80.02 152.91 82.05 155.25 C 80.57 157.70 79.28 161.49 75.94 161.68 C 72.08 161.73 68.64 158.42 65.89 156.06 C 65.06 154.38 62.86 152.24 64.25 150.40 C 66.50 145.62 72.40 142.74 76.15 139.03 C 77.61 137.74 79.05 136.44 80.46 135.10 C 78.96 135.23 77.46 135.39 75.96 135.55 C 77.22 134.79 78.48 134.03 79.74 133.27 C 83.47 136.12 86.73 138.99 91.82 138.13 C 93.97 137.85 94.45 134.87 95.38 133.24 C 97.00 129.13 99.73 125.88 102.07 122.21 C 102.55 121.10 103.01 119.99 103.44 118.87 C 101.87 119.29 100.30 119.74 98.73 120.19 C 93.70 121.78 88.97 122.27 85.64 126.87 C 89.05 125.51 92.40 124.15 96.07 123.61 C 95.63 126.10 95.20 128.55 94.41 130.96 C 92.93 132.58 91.30 134.36 89.37 135.45 C 87.11 136.81 83.86 135.42 82.93 133.04 C 81.42 129.46 80.71 124.40 82.91 120.97 C 84.93 118.33 88.92 117.42 92.03 117.02 C 96.04 116.58 100.05 115.98 104.08 115.70 Z" fill="#635a45" />
<path d="M 103.44 118.87 C 103.01 119.99 102.55 121.10 102.07 122.21 C 100.96 121.52 99.86 120.84 98.73 120.19 C 100.30 119.74 101.87 119.29 103.44 118.87 Z" fill="#bec1a8" />
<path d="M 98.73 120.19 C 99.86 120.84 100.96 121.52 102.07 122.21 C 99.73 125.88 97.00 129.13 95.38 133.24 C 95.05 132.48 94.73 131.72 94.41 130.96 C 95.20 128.55 95.63 126.10 96.07 123.61 C 92.40 124.15 89.05 125.51 85.64 126.87 C 88.97 122.27 93.70 121.78 98.73 120.19 Z" fill="#9fa085" />
<path d="M 85.37 121.11 C 86.50 119.87 88.38 120.91 87.49 122.49 C 86.37 123.73 84.49 122.69 85.37 121.11 Z" fill="#97987d" />
<path d="M 187.24 124.76 C 190.70 126.10 192.76 129.23 194.99 132.02 C 199.50 137.92 204.57 143.50 210.10 148.47 C 208.02 151.18 206.69 154.25 205.50 157.42 C 202.63 152.57 201.49 147.06 197.34 143.62 C 194.76 141.37 191.45 139.02 188.00 138.48 C 184.39 138.76 180.82 141.77 177.93 143.79 C 172.10 147.01 167.35 150.55 160.86 152.02 C 163.07 147.67 164.54 143.21 167.76 139.43 C 168.64 138.74 169.54 138.09 170.39 137.36 C 173.49 134.97 173.03 129.57 176.27 127.30 C 179.26 124.97 183.51 123.20 187.24 124.76 Z" fill="#a5a78c" />
<path d="M 86.99 129.54 C 88.40 129.41 89.82 129.36 91.23 129.30 C 90.46 130.37 89.69 131.44 88.91 132.50 C 88.26 131.52 87.60 130.55 86.99 129.54 Z" fill="#949479" />
<path d="M 154.03 128.77 C 154.06 135.27 152.68 141.56 152.44 148.05 C 152.25 152.56 151.47 156.92 150.88 161.42 C 149.41 163.75 147.77 165.99 146.11 168.19 C 146.16 166.83 146.20 165.48 146.23 164.12 C 145.17 165.38 144.10 166.63 143.04 167.88 C 141.58 163.00 141.30 158.08 141.10 153.02 C 141.80 156.54 141.99 160.08 142.44 163.63 C 146.38 155.23 145.51 144.89 150.69 137.48 C 152.48 134.75 153.01 131.85 154.03 128.77 Z" fill="#7e7c63" />
<path d="M 33.50 130.27 C 33.27 131.15 33.04 132.03 32.82 132.92 C 32.65 135.61 33.32 138.28 33.77 140.95 C 32.76 138.94 31.76 136.92 30.77 134.90 C 29.71 135.77 28.66 136.64 27.63 137.54 C 27.80 135.70 27.66 133.44 28.99 132.00 C 29.94 130.63 31.99 130.65 33.50 130.27 Z" fill="#7a7966" />
<path d="M 109.90 131.37 C 110.46 132.10 111.06 132.80 111.68 133.48 C 114.06 136.98 117.22 139.74 119.75 143.11 C 121.57 149.93 122.85 156.52 123.69 163.53 C 125.15 169.06 125.40 174.51 125.82 180.16 C 124.98 179.87 124.15 179.60 123.31 179.34 C 122.76 180.33 122.21 181.33 121.68 182.34 C 121.53 178.27 121.49 174.18 121.14 170.12 C 120.90 166.67 120.60 163.26 119.74 159.91 C 118.23 154.51 116.62 148.90 114.08 143.88 C 111.82 139.08 106.49 136.16 102.65 132.32 L 103.15 131.64 C 105.40 131.38 107.64 131.24 109.90 131.37 Z" fill="#1c1d36" />
<path d="M 113.77 132.14 C 113.46 133.02 112.76 133.47 111.68 133.48 C 111.06 132.80 110.46 132.10 109.90 131.37 C 111.15 130.95 113.69 129.98 113.77 132.14 Z" fill="#e4e8dc" />
<path d="M 102.65 132.32 C 106.49 136.16 111.82 139.08 114.08 143.88 C 116.62 148.90 118.23 154.51 119.74 159.91 C 117.93 162.34 115.87 164.56 114.00 166.95 C 116.05 168.18 118.22 168.95 120.43 169.82 C 119.60 175.35 119.56 180.83 119.56 186.40 C 116.39 184.79 115.06 183.52 113.50 180.32 L 113.51 178.74 C 114.49 179.65 116.71 179.90 116.39 177.98 C 115.67 177.01 114.70 177.01 113.48 178.00 C 112.94 173.74 111.82 169.49 110.44 165.43 C 109.53 162.67 107.32 161.55 105.78 159.29 C 104.35 156.73 104.36 153.73 102.54 151.52 C 100.12 148.45 97.61 145.38 94.91 142.55 C 98.18 139.50 99.98 135.81 102.65 132.32 Z" fill="#9a9a80" />
<path d="M 20.91 133.63 C 22.19 134.75 20.98 136.84 20.05 137.81 C 19.85 136.97 19.70 136.12 19.61 135.27 C 19.84 134.26 20.27 133.71 20.91 133.63 Z" fill="#4b4946" />
<path d="M 49.97 134.56 C 52.69 134.41 54.97 136.80 57.29 138.02 C 54.39 140.82 50.87 141.82 47.18 143.17 C 46.52 140.25 46.01 137.39 44.90 134.59 C 46.60 134.58 48.28 134.50 49.97 134.56 Z" fill="#e7e9df" />
<path d="M 43.33 134.57 L 44.90 134.59 C 46.01 137.39 46.52 140.25 47.18 143.17 C 50.87 141.82 54.39 140.82 57.29 138.02 C 63.23 136.45 68.94 138.58 74.84 136.66 L 75.39 137.58 C 73.18 139.07 71.14 140.85 68.83 142.16 C 64.46 143.32 59.04 140.77 55.37 143.42 C 53.45 144.28 51.04 146.72 48.87 146.43 C 45.51 146.21 45.09 142.13 43.62 139.77 C 41.10 141.23 38.60 142.72 36.10 144.22 C 35.65 143.38 35.20 142.54 34.75 141.70 C 37.32 138.96 40.19 136.62 43.33 134.57 Z" fill="#5a503d" />
<path d="M 139.47 137.88 C 139.83 142.95 140.14 148.01 141.10 153.02 C 141.30 158.08 141.58 163.00 143.04 167.88 C 144.10 166.63 145.17 165.38 146.23 164.12 C 146.20 165.48 146.16 166.83 146.11 168.19 C 145.92 171.78 145.78 175.42 145.20 178.98 C 144.99 177.58 144.76 176.19 144.52 174.80 C 143.65 177.01 143.23 178.83 143.52 181.22 C 143.75 183.97 143.74 186.55 143.38 189.29 C 142.05 188.97 140.71 188.66 139.38 188.30 C 138.38 187.95 137.37 187.60 136.36 187.25 C 133.19 184.80 131.46 183.20 130.82 179.07 C 132.86 180.54 134.88 182.06 136.95 183.50 C 135.34 173.30 133.86 163.24 134.81 152.87 C 136.02 159.60 136.34 166.43 137.74 173.15 C 138.71 177.69 138.96 182.25 140.26 186.72 C 141.26 181.29 139.49 176.57 139.43 171.18 C 139.23 164.44 139.58 157.75 138.89 151.01 C 138.37 146.59 138.68 142.24 139.47 137.88 Z" fill="#73745d" />
<path d="M 188.00 138.48 C 191.45 139.02 194.76 141.37 197.34 143.62 C 201.49 147.06 202.63 152.57 205.50 157.42 C 209.11 164.10 208.51 172.80 210.85 180.21 C 208.97 178.38 207.09 176.55 205.32 174.61 C 206.13 174.00 206.94 173.38 207.75 172.78 C 206.78 170.12 205.82 167.47 204.83 164.83 C 204.32 164.91 203.81 165.00 203.29 165.08 C 201.83 163.65 200.28 162.29 198.93 160.75 C 197.27 158.85 196.61 156.00 195.02 154.02 C 193.64 152.42 191.82 151.12 190.16 149.82 C 188.58 150.57 186.99 151.29 185.39 152.00 C 185.48 150.78 185.58 149.55 185.68 148.33 C 180.45 149.62 175.95 151.35 171.67 154.71 C 173.53 150.94 175.54 147.26 177.93 143.79 C 180.82 141.77 184.39 138.76 188.00 138.48 Z" fill="#c1c6ac" />
<path d="M 82.87 138.94 C 87.64 143.63 90.02 150.14 88.95 156.80 C 88.50 159.20 86.29 160.25 84.38 161.38 C 77.24 165.57 68.39 166.16 60.26 167.31 C 54.45 167.85 48.56 169.46 42.82 169.12 C 40.31 169.02 37.82 168.93 35.30 169.11 C 36.60 166.30 38.03 163.58 37.48 160.37 C 36.70 155.70 33.90 152.40 31.30 148.64 C 35.32 151.29 38.89 154.57 42.96 157.14 C 43.76 157.55 44.86 158.32 45.80 158.12 C 50.96 157.15 55.89 154.97 61.07 154.11 C 62.84 153.73 64.47 155.17 65.89 156.06 C 68.64 158.42 72.08 161.73 75.94 161.68 C 79.28 161.49 80.57 157.70 82.05 155.25 C 80.02 152.91 78.08 149.05 75.15 147.87 C 73.06 149.15 71.32 150.92 69.58 152.62 C 72.69 153.78 73.64 153.11 76.36 151.52 C 77.15 152.04 77.93 152.56 78.72 153.08 C 77.80 154.82 76.87 156.55 75.96 158.28 C 73.21 157.06 70.57 155.93 68.08 154.22 C 68.83 152.04 69.54 149.84 70.33 147.68 C 73.75 143.58 77.61 140.35 82.87 138.94 Z" fill="#969281" />
<path d="M 23.95 139.79 L 25.39 140.87 C 23.97 143.27 22.92 145.79 21.69 148.28 C 21.54 146.91 21.42 145.52 21.24 144.15 C 22.14 142.69 23.04 141.24 23.95 139.79 Z" fill="#7a756a" />
<path d="M 86.09 140.36 C 88.39 140.99 90.70 141.61 93.03 142.13 C 95.72 147.44 98.00 152.65 101.54 157.49 C 102.82 159.31 104.43 161.05 105.41 163.05 C 106.73 166.03 107.32 169.47 108.22 172.60 C 107.54 172.46 106.86 172.32 106.17 172.18 C 106.37 174.45 106.90 177.04 106.35 179.28 C 101.64 183.62 97.09 187.38 94.30 193.38 C 92.98 196.06 95.16 198.02 96.32 200.29 C 94.86 200.01 93.14 199.48 91.67 199.81 C 90.02 200.90 88.64 202.47 87.26 203.87 C 87.53 201.87 87.78 199.86 88.05 197.85 C 85.00 196.20 81.80 196.18 78.53 195.41 C 75.38 189.58 78.24 183.78 80.28 178.15 C 79.24 177.18 78.19 176.21 77.14 175.24 C 75.04 176.18 72.93 177.11 70.81 178.02 C 71.13 176.83 71.46 175.65 71.81 174.47 L 72.54 172.51 C 71.64 172.27 70.73 172.05 69.82 171.85 C 75.46 170.59 80.91 169.32 86.74 170.03 C 92.55 170.79 97.64 165.99 101.22 162.01 C 98.18 153.35 92.45 146.76 86.09 140.36 Z" fill="#979483" />
<path d="M 93.03 142.13 L 94.91 142.55 C 97.61 145.38 100.12 148.45 102.54 151.52 C 104.36 153.73 104.35 156.73 105.78 159.29 C 107.32 161.55 109.53 162.67 110.44 165.43 C 111.82 169.49 112.94 173.74 113.48 178.00 L 113.51 178.74 L 113.50 180.32 C 111.83 177.67 109.82 175.29 108.22 172.60 C 107.32 169.47 106.73 166.03 105.41 163.05 C 104.43 161.05 102.82 159.31 101.54 157.49 C 98.00 152.65 95.72 147.44 93.03 142.13 Z" fill="#1e1f3e" />
<path d="M 177.93 143.79 C 175.54 147.26 173.53 150.94 171.67 154.71 C 175.95 151.35 180.45 149.62 185.68 148.33 C 185.58 149.55 185.48 150.78 185.39 152.00 C 186.99 151.29 188.58 150.57 190.16 149.82 C 191.82 151.12 193.64 152.42 195.02 154.02 C 196.61 156.00 197.27 158.85 198.93 160.75 C 200.28 162.29 201.83 163.65 203.29 165.08 C 203.81 165.00 204.32 164.91 204.83 164.83 C 205.82 167.47 206.78 170.12 207.75 172.78 C 206.94 173.38 206.13 174.00 205.32 174.61 C 207.09 176.55 208.97 178.38 210.85 180.21 C 214.43 184.21 211.99 187.93 213.30 192.67 C 214.52 198.85 218.43 206.34 217.18 212.63 C 216.14 215.50 211.94 217.10 209.47 218.64 C 209.01 217.77 208.55 216.90 208.07 216.03 C 206.49 212.91 203.63 211.16 200.95 209.04 C 197.24 206.25 193.76 203.69 189.07 202.84 C 184.58 201.87 180.06 203.12 175.66 202.34 C 172.98 201.43 171.53 197.52 171.28 194.93 C 170.48 189.78 172.51 185.33 175.02 180.98 C 177.55 177.30 181.07 174.38 183.83 170.84 C 185.78 168.26 188.30 166.47 191.01 164.76 C 192.78 165.55 194.54 166.33 196.35 166.99 C 194.80 165.56 193.00 163.83 190.97 163.16 C 187.47 163.56 184.24 166.43 181.87 168.86 C 178.12 173.11 174.42 177.47 170.88 181.89 C 168.63 185.14 166.35 189.18 167.63 193.25 C 168.65 196.41 170.03 200.18 172.74 202.27 C 176.73 205.63 181.42 208.20 186.38 209.83 C 185.60 210.24 184.83 210.65 184.05 211.06 C 180.83 211.16 179.16 209.00 176.65 207.35 C 174.19 205.48 171.40 204.51 168.53 203.45 C 167.36 199.66 165.67 196.04 164.56 192.24 C 163.78 189.62 165.39 187.01 166.63 184.80 C 170.23 179.01 174.93 173.82 179.34 168.63 C 177.24 167.61 175.22 166.54 173.07 165.64 C 171.08 166.55 169.14 167.55 167.13 168.40 C 165.90 171.95 164.94 176.55 162.33 179.34 C 160.35 181.60 157.10 180.95 154.43 180.88 C 154.01 181.71 153.59 182.55 153.17 183.39 C 152.63 180.47 152.30 177.61 152.15 174.65 C 151.02 174.17 149.89 173.70 148.76 173.22 C 152.58 165.95 155.94 158.66 160.86 152.02 C 167.35 150.55 172.10 147.01 177.93 143.79 Z" fill="#caceb6" />
<path d="M 70.33 147.68 C 69.54 149.84 68.83 152.04 68.08 154.22 C 67.49 153.57 66.91 152.92 66.33 152.27 C 67.66 150.73 68.98 149.19 70.33 147.68 Z" fill="#b9b8a4" />
<path d="M 210.10 148.47 C 213.48 151.28 217.09 153.79 220.55 156.50 C 223.66 158.84 224.49 162.41 226.67 165.66 C 225.10 170.66 226.59 175.33 228.72 179.90 C 232.93 187.02 230.26 196.02 229.66 203.82 C 229.18 207.99 228.89 211.15 231.98 214.43 C 229.95 217.89 227.89 221.37 225.66 224.70 C 223.70 227.87 219.77 229.09 216.52 230.57 C 207.79 234.28 198.16 234.93 188.89 233.11 C 181.15 231.49 173.91 232.59 166.00 232.01 C 151.45 231.16 136.81 232.31 122.28 231.27 C 126.32 227.79 131.17 225.53 135.26 222.09 C 133.76 221.79 132.26 221.50 130.75 221.24 C 133.72 221.25 136.84 221.24 139.75 220.65 C 143.14 219.93 146.05 218.26 149.16 216.82 C 156.89 215.01 164.20 216.34 172.07 216.89 C 180.44 217.46 188.27 219.58 196.73 219.00 C 200.64 219.10 204.53 219.08 208.44 218.89 C 208.32 217.94 208.19 216.99 208.07 216.03 C 208.55 216.90 209.01 217.77 209.47 218.64 C 211.94 217.10 216.14 215.50 217.18 212.63 C 218.43 206.34 214.52 198.85 213.30 192.67 C 211.99 187.93 214.43 184.21 210.85 180.21 C 208.51 172.80 209.11 164.10 205.50 157.42 C 206.69 154.25 208.02 151.18 210.10 148.47 Z" fill="#99997e" />
<path d="M 119.74 159.91 C 120.60 163.26 120.90 166.67 121.14 170.12 L 120.43 169.82 C 118.22 168.95 116.05 168.18 114.00 166.95 C 115.87 164.56 117.93 162.34 119.74 159.91 Z" fill="#edede3" />
<path d="M 190.97 163.16 C 193.00 163.83 194.80 165.56 196.35 166.99 C 194.54 166.33 192.78 165.55 191.01 164.76 C 188.30 166.47 185.78 168.26 183.83 170.84 C 181.07 174.38 177.55 177.30 175.02 180.98 C 172.51 185.33 170.48 189.78 171.28 194.93 C 171.53 197.52 172.98 201.43 175.66 202.34 C 180.06 203.12 184.58 201.87 189.07 202.84 C 193.76 203.69 197.24 206.25 200.95 209.04 C 203.63 211.16 206.49 212.91 208.07 216.03 C 208.19 216.99 208.32 217.94 208.44 218.89 C 204.53 219.08 200.64 219.10 196.73 219.00 C 198.56 218.38 200.38 217.72 202.22 217.12 L 203.16 216.84 C 199.29 212.09 192.04 211.24 186.38 209.83 C 181.42 208.20 176.73 205.63 172.74 202.27 C 170.03 200.18 168.65 196.41 167.63 193.25 C 166.35 189.18 168.63 185.14 170.88 181.89 C 174.42 177.47 178.12 173.11 181.87 168.86 C 184.24 166.43 187.47 163.56 190.97 163.16 Z" fill="#1f2038" />
<path d="M 108.08 164.49 C 109.76 163.99 110.02 166.75 108.26 166.47 C 107.46 165.86 107.40 165.20 108.08 164.49 Z" fill="#98959f" />
<path d="M 173.07 165.64 C 175.22 166.54 177.24 167.61 179.34 168.63 C 174.93 173.82 170.23 179.01 166.63 184.80 C 165.39 187.01 163.78 189.62 164.56 192.24 C 165.67 196.04 167.36 199.66 168.53 203.45 C 171.40 204.51 174.19 205.48 176.65 207.35 C 179.16 209.00 180.83 211.16 184.05 211.06 C 186.48 212.73 188.56 214.44 191.53 215.06 C 195.08 215.79 198.66 216.43 202.22 217.12 C 200.38 217.72 198.56 218.38 196.73 219.00 C 188.27 219.58 180.44 217.46 172.07 216.89 C 164.20 216.34 156.89 215.01 149.16 216.82 C 145.88 215.96 142.87 214.52 139.71 213.36 C 136.78 212.26 133.27 212.41 130.16 212.34 C 134.34 211.86 139.72 211.84 143.12 209.11 C 146.82 206.23 150.30 202.52 152.28 198.23 C 153.63 195.24 150.97 191.81 149.67 189.23 C 150.98 187.35 152.27 185.50 153.17 183.39 C 153.59 182.55 154.01 181.71 154.43 180.88 C 157.10 180.95 160.35 181.60 162.33 179.34 C 164.94 176.55 165.90 171.95 167.13 168.40 C 169.14 167.55 171.08 166.55 173.07 165.64 Z" fill="#c0c6ac" />
<path d="M 226.67 165.66 C 228.46 167.31 230.67 169.07 231.87 171.21 C 232.97 173.39 233.18 176.11 233.79 178.47 C 234.45 181.48 235.64 184.18 235.33 187.27 C 234.90 191.83 234.09 196.35 233.84 200.94 C 233.44 205.51 233.78 210.17 231.98 214.43 C 228.89 211.15 229.18 207.99 229.66 203.82 C 230.13 204.58 230.59 205.35 231.05 206.11 C 231.90 200.44 232.48 194.69 232.67 188.95 C 232.75 184.93 231.37 181.52 229.93 177.86 C 229.52 178.53 229.12 179.22 228.72 179.90 C 226.59 175.33 225.10 170.66 226.67 165.66 Z" fill="#b2b49c" />
<path d="M 196.77 167.72 C 199.37 170.31 201.45 173.35 204.00 176.00 C 206.69 178.94 209.84 182.96 210.21 187.04 C 210.43 189.83 208.87 191.34 206.58 192.55 C 201.35 195.06 194.98 198.28 189.08 198.15 C 185.30 197.19 182.08 194.31 182.57 190.07 C 184.48 183.80 189.39 180.79 195.08 178.34 C 196.34 180.46 199.08 183.10 198.13 185.74 C 197.12 187.29 194.34 187.73 192.67 188.44 C 192.21 186.34 191.77 184.24 191.25 182.15 C 189.45 184.11 186.93 186.15 186.73 188.99 C 186.85 190.99 187.80 192.77 189.19 194.19 C 194.16 195.06 199.73 192.92 204.44 191.37 C 206.12 190.62 209.33 189.29 208.89 187.02 C 208.63 183.60 205.24 180.36 202.98 178.02 C 200.08 175.12 198.07 171.60 196.77 167.72 Z" fill="#191931" />
<path d="M 71.81 174.47 C 71.46 175.65 71.13 176.83 70.81 178.02 C 72.93 177.11 75.04 176.18 77.14 175.24 C 78.19 176.21 79.24 177.18 80.28 178.15 C 78.24 183.78 75.38 189.58 78.53 195.41 C 81.80 196.18 85.00 196.20 88.05 197.85 C 87.78 199.86 87.53 201.87 87.26 203.87 C 88.64 202.47 90.02 200.90 91.67 199.81 C 93.14 199.48 94.86 200.01 96.32 200.29 L 97.07 200.46 C 97.77 202.49 98.41 204.55 99.06 206.61 C 97.73 205.70 96.40 204.64 94.91 204.00 C 92.05 204.23 89.06 206.13 86.24 205.89 C 82.53 204.40 79.35 200.59 75.46 199.56 C 72.10 198.81 69.22 200.76 66.70 202.73 C 64.62 200.03 62.77 197.21 61.08 194.26 C 61.05 195.49 61.02 196.72 60.99 197.94 C 59.54 195.10 58.02 192.30 56.34 189.58 C 58.72 188.44 61.13 187.42 63.60 186.47 C 62.68 185.57 61.77 184.67 60.83 183.80 C 64.47 180.65 68.00 177.41 71.81 174.47 Z" fill="#b7b4a5" />
<path d="M 144.52 174.80 C 144.76 176.19 144.99 177.58 145.20 178.98 C 144.65 179.73 144.09 180.48 143.52 181.22 C 143.23 178.83 143.65 177.01 144.52 174.80 Z" fill="#928f7e" />
<path d="M 116.39 177.98 C 116.71 179.90 114.49 179.65 113.51 178.74 L 113.48 178.00 C 114.70 177.01 115.67 177.01 116.39 177.98 Z" fill="#cdcbb3" />
<path d="M 229.93 177.86 C 231.37 181.52 232.75 184.93 232.67 188.95 C 232.48 194.69 231.90 200.44 231.05 206.11 C 230.59 205.35 230.13 204.58 229.66 203.82 C 230.26 196.02 232.93 187.02 228.72 179.90 C 229.12 179.22 229.52 178.53 229.93 177.86 Z" fill="#d9dacb" />
<path d="M 123.31 179.34 C 124.15 179.60 124.98 179.87 125.82 180.16 C 125.98 181.80 126.03 183.44 126.09 185.09 C 124.61 184.18 123.14 183.27 121.68 182.34 C 122.21 181.33 122.76 180.33 123.31 179.34 Z" fill="#4e4f62" />
<path d="M 60.83 183.80 C 61.77 184.67 62.68 185.57 63.60 186.47 C 61.13 187.42 58.72 188.44 56.34 189.58 C 58.02 192.30 59.54 195.10 60.99 197.94 C 61.02 196.72 61.05 195.49 61.08 194.26 C 62.77 197.21 64.62 200.03 66.70 202.73 C 66.04 203.28 65.38 203.84 64.74 204.41 C 68.74 204.38 71.45 204.81 74.83 206.97 C 71.54 206.48 68.20 206.28 64.89 206.16 C 70.61 209.15 77.12 210.16 82.73 213.27 C 86.07 214.70 86.18 220.09 89.17 221.78 C 93.27 224.06 98.28 224.56 102.52 225.71 C 104.50 226.21 105.96 228.52 107.26 229.97 C 103.83 231.38 100.93 233.03 97.05 232.41 C 90.60 231.45 84.76 229.69 78.14 230.84 C 76.33 230.03 74.49 229.26 72.62 228.60 C 72.70 229.45 72.80 230.30 72.90 231.14 C 72.08 231.05 71.26 230.94 70.44 230.83 C 64.52 228.13 58.79 230.20 52.61 230.96 C 49.08 230.83 46.17 229.39 42.88 228.25 C 38.88 226.76 34.37 225.47 30.80 223.11 C 29.10 222.17 30.70 219.88 30.92 218.46 C 32.40 218.49 33.88 218.51 35.36 218.57 C 37.22 219.02 39.05 219.62 40.91 220.08 C 40.58 220.99 40.24 221.91 39.91 222.82 C 42.38 222.27 44.81 221.60 47.26 220.98 C 51.25 221.09 55.23 221.23 59.22 221.30 C 53.29 218.70 47.24 216.43 41.42 213.60 C 38.41 212.14 35.19 211.40 32.15 210.00 C 33.70 210.13 35.24 210.19 36.79 210.26 C 32.03 207.73 29.13 204.21 26.20 199.79 C 28.89 201.26 31.71 202.48 34.44 203.88 C 36.87 205.09 38.28 207.05 40.28 208.78 C 41.89 210.18 43.98 211.13 45.88 212.10 C 47.06 211.35 48.25 210.60 49.43 209.86 C 51.57 210.90 53.72 211.91 55.88 212.90 C 56.44 212.48 57.00 212.07 57.56 211.65 C 57.48 210.95 57.41 210.26 57.34 209.56 C 59.57 208.88 61.64 207.91 63.63 206.70 C 62.24 206.70 60.85 206.72 59.46 206.82 C 57.54 202.10 54.67 197.40 53.53 192.48 C 53.29 191.11 52.81 190.08 53.98 188.98 C 55.95 186.95 58.52 185.42 60.83 183.80 Z" fill="#99997f" />
<path d="M 136.36 187.25 C 137.37 187.60 138.38 187.95 139.38 188.30 C 139.86 190.92 140.01 193.53 139.58 196.16 C 137.78 195.72 136.31 194.94 134.43 195.45 C 130.27 196.34 125.90 198.09 122.86 201.16 C 124.66 205.19 127.90 208.54 130.16 212.34 C 133.27 212.41 136.78 212.26 139.71 213.36 C 142.87 214.52 145.88 215.96 149.16 216.82 C 146.05 218.26 143.14 219.93 139.75 220.65 C 136.84 221.24 133.72 221.25 130.75 221.24 C 126.36 220.75 121.02 224.12 117.13 221.85 C 112.17 219.89 106.42 216.51 101.02 216.76 C 100.59 217.64 100.26 218.54 100.03 219.48 C 98.77 218.89 97.48 218.39 96.20 217.87 C 97.58 217.49 98.93 217.09 100.19 216.39 C 95.32 213.35 89.26 212.40 83.95 210.19 C 82.96 209.03 82.03 207.84 81.09 206.64 C 83.68 206.62 86.02 206.17 88.33 207.67 C 90.78 208.93 93.30 211.38 96.04 211.80 C 99.86 211.31 103.57 209.91 107.36 209.16 C 108.28 207.49 109.14 205.69 110.34 204.21 C 112.23 202.95 114.60 202.45 116.55 201.27 C 118.98 199.77 120.87 197.66 123.60 196.73 C 126.83 195.65 130.14 194.85 133.33 193.65 C 128.82 192.63 124.30 192.21 119.69 192.64 C 125.01 189.58 130.48 188.83 136.36 187.25 Z" fill="#dcdccc" />
<path d="M 143.38 189.29 C 142.67 193.33 146.86 195.45 147.41 198.99 C 146.57 201.72 143.95 204.01 141.89 205.91 C 138.77 208.67 134.60 208.60 130.79 207.56 C 131.46 207.20 132.13 206.84 132.80 206.49 C 134.37 205.58 136.30 204.83 137.54 203.49 C 138.87 201.42 139.10 198.54 139.58 196.16 C 140.01 193.53 139.86 190.92 139.38 188.30 C 140.71 188.66 142.05 188.97 143.38 189.29 Z" fill="#c0c3aa" />
<path d="M 133.33 193.65 C 130.14 194.85 126.83 195.65 123.60 196.73 C 120.87 197.66 118.98 199.77 116.55 201.27 C 114.60 202.45 112.23 202.95 110.34 204.21 C 109.14 205.69 108.28 207.49 107.36 209.16 C 103.57 209.91 99.86 211.31 96.04 211.80 C 93.30 211.38 90.78 208.93 88.33 207.67 C 86.02 206.17 83.68 206.62 81.09 206.64 C 82.03 207.84 82.96 209.03 83.95 210.19 C 80.81 209.31 77.71 208.54 74.83 206.97 C 71.45 204.81 68.74 204.38 64.74 204.41 C 65.38 203.84 66.04 203.28 66.70 202.73 C 69.22 200.76 72.10 198.81 75.46 199.56 C 79.35 200.59 82.53 204.40 86.24 205.89 C 89.06 206.13 92.05 204.23 94.91 204.00 C 96.40 204.64 97.73 205.70 99.06 206.61 C 98.41 204.55 97.77 202.49 97.07 200.46 C 99.62 200.95 102.03 201.77 104.53 200.62 C 109.71 198.24 114.59 195.20 119.69 192.64 C 124.30 192.21 128.82 192.63 133.33 193.65 Z" fill="#cacbb8" />
<path d="M 22.92 194.75 C 25.46 196.37 27.72 198.34 30.31 199.88 C 34.22 202.13 39.00 201.73 43.15 203.80 C 42.71 204.60 42.27 205.41 41.84 206.22 C 43.98 207.25 46.12 208.26 48.26 209.28 L 49.43 209.86 C 48.25 210.60 47.06 211.35 45.88 212.10 C 43.98 211.13 41.89 210.18 40.28 208.78 C 38.28 207.05 36.87 205.09 34.44 203.88 C 31.71 202.48 28.89 201.26 26.20 199.79 C 25.01 198.18 23.93 196.49 22.92 194.75 Z" fill="#191e3c" />
<path d="M 132.38 199.71 C 132.45 201.74 130.96 205.00 132.80 206.49 C 132.13 206.84 131.46 207.20 130.79 207.56 C 128.70 206.37 126.79 205.18 125.64 202.98 C 127.70 201.37 129.98 200.64 132.38 199.71 Z" fill="#d5d6cb" />
<path d="M 43.15 203.80 C 45.14 204.74 47.10 205.76 49.08 206.74 C 48.80 207.59 48.53 208.44 48.26 209.28 C 46.12 208.26 43.98 207.25 41.84 206.22 C 42.27 205.41 42.71 204.60 43.15 203.80 Z" fill="#444757" />
<path d="M 25.94 206.25 C 27.99 207.51 30.00 208.95 32.15 210.00 C 35.19 211.40 38.41 212.14 41.42 213.60 C 47.24 216.43 53.29 218.70 59.22 221.30 C 55.23 221.23 51.25 221.09 47.26 220.98 C 45.13 220.79 43.01 220.51 40.91 220.08 C 39.05 219.62 37.22 219.02 35.36 218.57 C 32.31 214.38 28.81 210.56 25.94 206.25 Z" fill="#212038" />
<path d="M 63.63 206.70 C 61.64 207.91 59.57 208.88 57.34 209.56 C 55.60 209.35 53.89 209.08 52.20 208.74 C 54.54 207.78 56.98 207.22 59.46 206.82 C 60.85 206.72 62.24 206.70 63.63 206.70 Z" fill="#252431" />
<path d="M 64.89 206.16 C 68.20 206.28 71.54 206.48 74.83 206.97 C 77.71 208.54 80.81 209.31 83.95 210.19 C 89.26 212.40 95.32 213.35 100.19 216.39 C 98.93 217.09 97.58 217.49 96.20 217.87 C 97.48 218.39 98.77 218.89 100.03 219.48 C 100.26 218.54 100.59 217.64 101.02 216.76 C 106.42 216.51 112.17 219.89 117.13 221.85 C 121.02 224.12 126.36 220.75 130.75 221.24 C 132.26 221.50 133.76 221.79 135.26 222.09 C 131.17 225.53 126.32 227.79 122.28 231.27 C 116.92 232.74 112.82 230.13 107.26 229.97 C 105.96 228.52 104.50 226.21 102.52 225.71 C 98.28 224.56 93.27 224.06 89.17 221.78 C 86.18 220.09 86.07 214.70 82.73 213.27 C 77.12 210.16 70.61 209.15 64.89 206.16 Z" fill="#1f213d" />
<path d="M 51.22 207.19 C 53.09 207.47 51.98 209.89 50.47 208.95 C 49.99 208.10 50.24 207.52 51.22 207.19 Z" fill="#515453" />
<path d="M 186.38 209.83 C 192.04 211.24 199.29 212.09 203.16 216.84 L 202.22 217.12 C 198.66 216.43 195.08 215.79 191.53 215.06 C 188.56 214.44 186.48 212.73 184.05 211.06 C 184.83 210.65 185.60 210.24 186.38 209.83 Z" fill="#f3f4e6" />
<path d="M 40.91 220.08 C 43.01 220.51 45.13 220.79 47.26 220.98 C 44.81 221.60 42.38 222.27 39.91 222.82 C 40.24 221.91 40.58 220.99 40.91 220.08 Z" fill="#a0a09f" />
<path d="M 130.37 222.81 C 128.98 224.99 127.82 225.94 125.47 227.01 C 126.80 224.52 127.75 223.82 130.37 222.81 Z" fill="#79787b" />
<path d="M 90.95 225.96 C 90.94 227.21 90.93 228.45 90.91 229.70 C 89.55 229.71 88.20 229.71 86.85 229.71 C 88.20 228.45 89.56 227.19 90.95 225.96 Z" fill="#bcbba4" />
<path d="M 70.44 230.83 C 64.50 231.25 58.56 231.36 52.61 230.96 C 58.79 230.20 64.52 228.13 70.44 230.83 Z" fill="#55564f" />
<path d="M 72.62 228.60 C 74.49 229.26 76.33 230.03 78.14 230.84 C 76.40 231.05 74.65 231.18 72.90 231.14 C 72.80 230.30 72.70 229.45 72.62 228.60 Z" fill="#3c4142" />
</svg>