<?xml version="1.0" encoding="UTF-8" standalone="no"?>
<!DOCTYPE svg PUBLIC "-//W3C//DTD SVG 1.1//EN" "http://www.w3.org/Graphics/SVG/1.1/DTD/svg11.dtd">
<svg xmlns="http://www.w3.org/2000/svg" version="1.1" viewBox="0 0 256 256" width="256.0pt" height="256.0pt">
<path d="M 0.00 0.00 L 256.00 0.00 L 256.00 256.00 L 0.00 256.00 L 0.00 0.00 Z" fill="#fefefe" />
<path d="M 77.22 17.95 C 77.58 19.13 77.95 20.31 78.31 21.49 C 77.12 21.58 75.93 21.74 74.76 21.95 C 73.04 23.60 71.68 25.35 69.60 26.54 C 67.26 27.98 64.57 28.78 62.29 30.29 C 59.65 32.72 58.35 36.81 57.92 40.28 C 55.82 38.93 53.70 37.62 51.60 36.29 C 50.15 34.44 48.97 32.49 47.91 30.39 C 48.02 28.73 48.21 27.06 48.39 25.40 C 52.38 23.54 56.15 21.67 60.41 20.44 C 65.82 18.86 71.62 18.43 77.22 17.95 Z" fill="#f5f5f3" />
<path d="M 78.31 21.49 C 79.54 21.75 80.76 22.06 81.99 22.38 C 82.44 28.34 84.34 33.66 85.60 39.47 C 87.02 45.55 88.89 52.43 92.63 57.54 C 97.14 63.87 105.52 67.62 112.56 70.40 C 118.78 72.45 127.25 73.99 133.04 70.03 C 141.18 64.96 145.90 57.13 151.84 49.82 C 156.66 44.05 158.87 36.93 164.00 31.36 C 168.73 25.43 174.87 21.21 182.65 20.71 C 183.19 23.02 183.22 26.38 184.87 28.23 C 187.44 30.54 191.21 32.18 194.72 31.66 C 201.93 30.63 208.77 27.55 215.92 26.30 C 218.19 25.89 219.69 27.16 221.40 28.43 L 221.41 29.18 C 219.25 30.63 217.22 32.03 215.98 34.39 C 214.04 38.07 211.19 40.91 208.34 43.88 C 207.63 42.61 206.93 41.34 206.23 40.07 C 205.47 40.47 204.70 40.88 203.94 41.29 C 198.35 44.22 193.84 47.63 189.64 52.36 C 188.30 53.66 186.91 54.92 185.46 56.10 C 184.04 56.86 182.63 57.61 181.30 58.53 C 178.58 60.54 176.19 63.17 174.02 65.76 C 171.71 68.69 169.49 70.76 166.36 72.79 C 165.25 71.79 164.13 70.80 162.99 69.83 C 161.38 63.37 162.28 57.19 163.99 50.88 C 166.32 47.05 168.42 43.10 170.61 39.19 C 173.20 40.05 175.51 40.25 178.23 40.07 C 178.73 35.64 179.33 31.22 179.67 26.76 C 176.79 27.49 174.10 28.39 171.77 30.31 C 169.45 32.32 167.03 34.07 166.22 37.19 C 165.01 42.07 163.42 46.85 162.31 51.75 C 161.43 55.38 160.33 57.93 157.61 60.55 C 157.64 58.31 157.72 56.08 157.80 53.84 C 155.63 57.42 153.55 61.04 151.45 64.66 C 150.67 66.00 149.91 67.35 149.16 68.71 C 148.13 70.56 147.14 72.43 146.22 74.34 C 143.74 75.49 140.65 76.73 138.91 78.89 C 137.54 81.00 136.53 83.84 136.76 86.39 C 137.67 87.53 138.87 88.48 139.96 89.45 L 139.77 90.50 C 139.21 94.25 139.28 98.26 138.32 101.91 C 137.63 104.66 134.42 106.66 132.47 108.54 C 131.51 109.58 130.15 110.14 130.42 111.75 C 131.50 113.28 133.01 114.61 134.21 116.05 C 132.86 117.36 131.51 118.67 130.18 119.99 C 130.57 120.94 130.95 121.88 131.33 122.83 C 129.69 123.95 128.08 125.11 126.40 126.16 C 127.16 124.69 127.97 123.25 128.77 121.81 C 127.62 122.59 126.48 123.39 125.32 124.17 C 123.54 122.43 121.73 120.75 119.63 119.40 C 119.75 118.31 119.84 117.21 119.91 116.11 C 117.18 118.26 114.81 120.76 112.42 123.26 C 108.27 126.97 104.89 130.79 102.88 136.07 C 102.58 132.60 102.69 129.15 102.80 125.68 C 102.79 123.65 102.69 121.63 102.51 119.61 L 102.43 118.89 C 101.63 119.03 100.82 119.17 100.01 119.32 C 100.58 118.09 101.14 116.87 101.70 115.64 C 97.80 115.56 96.65 115.79 94.60 119.27 C 93.14 122.28 92.65 125.42 92.30 128.71 C 90.38 131.08 89.44 131.48 86.45 131.79 C 85.88 132.41 85.31 133.03 84.75 133.65 C 83.52 133.62 82.29 133.58 81.07 133.53 C 82.97 129.58 85.33 125.87 87.09 121.86 C 83.25 124.10 82.18 127.45 80.73 131.40 C 80.22 130.36 79.72 129.33 79.21 128.29 C 79.49 129.87 79.76 131.46 80.02 133.04 C 77.95 135.06 75.94 137.08 74.17 139.37 C 73.30 139.07 72.43 138.76 71.56 138.45 C 69.48 137.41 67.41 136.32 65.47 135.05 C 64.46 134.36 63.48 133.65 62.52 132.90 C 62.77 127.61 65.87 123.93 70.15 121.17 C 76.96 117.17 83.04 111.77 89.21 106.83 L 90.83 106.32 C 92.89 105.81 94.98 105.51 97.09 105.33 C 98.45 105.25 99.81 105.13 101.16 104.94 C 99.96 106.15 98.83 107.41 97.48 108.45 C 91.01 112.65 84.45 116.43 76.99 118.65 C 80.68 119.29 83.83 120.33 87.39 118.48 C 95.24 115.30 99.52 109.41 105.63 103.99 C 109.42 103.58 112.43 101.74 115.66 99.90 C 114.77 99.41 113.89 98.92 113.01 98.44 C 114.66 97.40 116.34 96.15 118.19 95.51 C 119.46 95.58 120.76 95.93 122.01 96.20 C 121.79 94.20 121.61 92.19 121.45 90.18 C 118.61 89.63 115.75 89.17 112.88 88.88 C 112.33 88.00 111.79 87.11 111.26 86.21 C 115.17 86.92 119.06 87.56 123.00 88.07 C 124.97 88.22 126.38 89.29 127.99 90.29 C 125.97 93.40 126.03 96.21 126.14 99.80 C 129.71 95.24 128.65 89.20 131.76 84.17 C 127.88 83.53 124.01 82.99 120.07 82.78 C 116.48 82.52 113.45 81.02 110.10 79.82 C 110.23 79.01 110.35 78.20 110.48 77.39 C 109.78 77.92 109.08 78.46 108.37 78.98 C 106.35 77.94 104.27 76.76 102.11 76.04 C 101.06 75.70 100.00 75.39 98.93 75.09 C 94.97 74.27 92.61 73.16 89.41 70.67 C 86.93 66.83 85.74 62.62 82.83 59.16 C 81.13 57.07 79.64 54.85 78.22 52.56 C 76.93 46.89 75.56 41.38 75.60 35.52 C 75.62 30.96 74.71 26.50 74.76 21.95 C 75.93 21.74 77.12 21.58 78.31 21.49 Z" fill="#f1f2f0" />
<path d="M 74.76 21.95 C 74.71 26.50 75.62 30.96 75.60 35.52 C 75.56 41.38 76.93 46.89 78.22 52.56 C 77.63 51.98 77.02 51.42 76.44 50.84 C 75.44 49.11 74.59 47.34 73.80 45.51 C 72.16 39.31 72.25 33.25 71.91 26.91 C 69.04 30.24 66.19 33.63 63.64 37.21 C 61.53 40.45 61.43 44.09 61.04 47.81 C 59.95 47.15 58.86 46.49 57.77 45.84 C 59.67 51.13 62.75 55.57 65.76 60.26 C 67.42 62.97 68.82 63.30 71.79 63.74 C 74.86 66.04 78.22 68.30 80.74 71.21 C 82.97 73.86 82.27 77.58 82.08 80.75 C 79.78 80.61 77.45 80.47 75.15 80.27 C 74.17 80.17 73.19 80.05 72.22 79.91 C 68.98 78.06 65.90 75.76 62.81 73.64 C 60.37 71.93 58.02 70.08 55.72 68.18 C 56.50 65.24 57.26 62.45 56.96 59.37 C 56.44 53.96 55.82 48.83 53.38 43.89 C 53.07 43.19 52.70 42.51 52.27 41.86 C 51.68 40.82 51.09 39.78 50.51 38.74 C 50.13 43.40 50.33 49.00 48.35 53.31 C 46.30 57.88 42.12 60.89 39.00 64.68 C 35.45 70.87 35.34 77.82 36.97 84.62 C 37.55 86.64 38.73 88.08 40.26 89.46 C 41.16 89.84 42.08 90.19 43.01 90.51 C 49.43 91.90 53.54 87.81 59.19 85.52 C 60.02 85.92 60.85 86.31 61.68 86.69 C 63.38 87.47 65.08 88.23 66.78 89.00 C 66.71 89.43 66.63 89.86 66.56 90.29 C 64.11 89.77 61.62 89.24 59.15 88.88 C 58.24 89.16 57.34 89.47 56.46 89.82 C 54.17 90.93 51.98 92.51 49.59 93.37 C 47.20 94.11 44.44 94.00 41.96 93.91 C 39.33 93.65 36.70 93.22 34.08 92.82 C 34.41 90.50 34.61 88.22 34.23 85.89 C 32.96 79.16 33.57 72.18 35.67 65.68 C 36.41 63.43 37.94 61.88 39.63 60.31 C 47.50 54.60 48.50 45.65 48.16 36.59 C 47.79 34.60 47.20 32.74 46.40 30.89 C 45.72 29.41 45.01 27.94 44.36 26.44 C 45.61 27.70 46.82 28.99 47.91 30.39 C 48.97 32.49 50.15 34.44 51.60 36.29 C 53.48 39.25 55.33 42.23 57.32 45.12 C 57.51 43.50 57.69 41.89 57.92 40.28 C 58.35 36.81 59.65 32.72 62.29 30.29 C 64.57 28.78 67.26 27.98 69.60 26.54 C 71.68 25.35 73.04 23.60 74.76 21.95 Z" fill="#20223e" />
<path d="M 71.91 26.91 C 72.25 33.25 72.16 39.31 73.80 45.51 C 73.11 47.66 72.47 49.80 72.03 52.02 C 71.38 55.95 71.61 59.78 71.79 63.74 C 68.82 63.30 67.42 62.97 65.76 60.26 C 67.49 60.61 69.21 60.98 70.94 61.34 C 69.64 57.26 67.53 53.01 68.64 48.64 C 69.65 44.36 70.89 40.38 70.26 35.91 C 69.05 37.20 67.88 38.50 66.79 39.89 C 65.75 38.99 64.72 38.08 63.64 37.21 C 66.19 33.63 69.04 30.24 71.91 26.91 Z" fill="#7e6870" />
<path d="M 179.67 26.76 C 179.33 31.22 178.73 35.64 178.23 40.07 C 175.51 40.25 173.20 40.05 170.61 39.19 C 171.95 36.82 173.28 34.44 174.58 32.05 C 173.65 31.47 172.71 30.89 171.77 30.31 C 174.10 28.39 176.79 27.49 179.67 26.76 Z" fill="#d5cace" />
<path d="M 221.40 28.43 C 222.90 29.63 224.35 30.89 225.74 32.21 C 223.63 35.70 221.35 39.18 219.54 42.84 C 218.83 42.13 218.12 41.41 217.42 40.70 C 219.29 36.88 221.72 33.63 221.41 29.18 L 221.40 28.43 Z" fill="#bdb5ba" />
<path d="M 40.53 30.31 C 42.83 29.09 44.22 31.27 46.06 32.34 C 46.18 31.86 46.29 31.37 46.40 30.89 C 47.20 32.74 47.79 34.60 48.16 36.59 C 45.58 38.90 43.65 41.20 43.01 44.69 C 42.02 49.95 39.85 55.01 39.63 60.31 C 37.94 61.88 36.41 63.43 35.67 65.68 C 33.57 72.18 32.96 79.16 34.23 85.89 C 34.02 87.11 33.79 88.34 33.54 89.56 C 29.97 90.37 26.53 90.83 22.90 89.93 C 24.22 91.41 25.44 92.97 26.75 94.44 C 29.77 98.27 33.22 101.22 37.19 103.99 C 36.51 106.30 35.77 108.57 34.94 110.82 C 33.93 113.48 34.26 116.68 33.30 119.33 C 32.37 120.74 30.97 121.91 29.77 123.10 C 30.10 129.48 31.74 135.62 32.22 141.99 C 32.86 149.41 35.67 156.57 38.65 163.33 C 40.38 167.25 42.23 171.68 45.15 174.87 C 48.39 178.04 52.60 180.40 57.06 181.25 C 59.57 181.73 61.83 182.79 64.12 183.85 C 66.77 185.22 69.37 186.23 72.25 187.02 C 74.26 190.45 76.44 194.00 79.26 196.82 C 81.97 199.35 84.91 201.62 87.65 204.13 C 84.29 201.83 81.28 199.20 77.80 197.10 C 80.09 204.51 84.68 210.50 90.35 215.67 C 94.73 220.17 99.90 221.07 105.31 223.55 C 98.03 223.64 92.17 220.61 85.85 217.48 C 88.51 220.73 90.86 224.25 93.54 227.48 C 97.55 232.00 103.62 232.36 109.09 233.92 C 116.36 235.98 123.85 236.49 131.02 233.74 C 137.44 231.30 143.32 232.62 149.95 232.59 C 156.42 232.50 162.59 233.14 169.01 231.88 C 173.37 231.03 177.82 230.92 182.18 230.10 C 187.95 228.90 191.52 225.34 196.93 222.99 C 203.83 219.89 210.19 215.94 215.45 210.44 C 220.66 204.64 225.49 198.69 228.36 191.34 C 230.36 186.70 231.82 181.78 232.87 176.84 C 234.48 168.63 233.17 161.25 232.87 153.01 C 232.64 146.02 231.59 139.10 229.71 132.37 C 229.02 129.90 228.05 127.55 226.55 125.44 C 225.90 124.48 225.14 123.63 224.39 122.73 C 222.14 120.04 220.92 116.80 218.72 114.07 C 223.03 113.73 224.72 113.00 227.90 110.05 C 229.76 108.49 231.69 107.02 233.61 105.53 C 231.31 105.03 229.05 104.53 226.70 104.22 C 224.85 103.99 223.00 103.80 221.15 103.61 C 221.04 102.22 220.93 100.83 220.82 99.44 C 221.75 98.30 222.68 97.16 223.61 96.01 C 223.19 93.43 222.79 90.85 222.41 88.27 C 223.83 87.47 225.35 86.68 226.60 85.64 C 226.54 81.95 225.58 78.31 225.45 74.61 C 225.97 73.42 226.49 72.24 226.99 71.04 C 225.25 69.49 223.51 67.91 221.72 66.42 C 217.71 68.34 217.20 71.48 216.05 75.36 C 210.69 81.11 205.64 86.37 197.48 87.68 C 197.11 82.77 200.13 78.99 199.08 74.09 C 197.47 76.78 196.64 79.71 195.77 82.70 L 195.26 83.25 C 193.71 82.78 192.15 82.31 190.60 81.85 C 192.54 76.47 194.72 71.20 196.97 65.95 C 197.03 66.76 197.08 67.56 197.13 68.36 C 197.17 69.27 197.21 70.17 197.26 71.08 C 199.12 67.68 200.85 64.22 202.87 60.91 C 207.78 56.50 213.54 52.72 217.94 47.79 C 218.51 46.15 218.97 44.48 219.54 42.84 C 221.35 39.18 223.63 35.70 225.74 32.21 L 226.42 32.94 C 226.23 34.11 225.99 35.23 225.75 36.39 C 226.84 35.33 227.95 34.28 229.06 33.24 C 231.11 40.92 226.78 46.45 226.95 53.99 C 226.95 60.37 229.40 66.94 233.76 71.63 C 235.60 77.96 236.09 84.43 235.96 90.99 C 235.74 97.74 237.52 104.23 237.14 110.97 C 236.63 121.45 239.32 130.65 241.11 140.83 C 243.11 151.34 243.66 162.22 242.66 172.86 C 241.39 180.70 239.80 189.03 236.12 196.13 C 233.31 201.55 230.62 206.95 226.48 211.46 C 221.47 216.94 216.46 222.22 210.09 226.17 C 202.51 231.50 194.22 235.50 185.41 238.36 C 179.61 240.05 173.43 240.62 167.45 241.47 C 158.17 242.76 149.11 241.12 139.85 242.83 C 130.89 244.47 121.17 245.35 112.12 243.93 C 101.88 241.99 92.22 237.67 84.83 230.17 C 81.32 226.88 78.14 222.39 72.96 221.91 C 68.67 221.22 65.71 223.23 62.06 224.97 C 59.14 226.44 56.05 226.98 52.86 227.50 C 54.72 227.83 56.59 228.19 58.44 228.57 C 57.27 229.26 56.08 230.03 54.82 230.55 C 53.12 230.50 51.54 229.11 50.32 228.04 L 50.93 228.22 C 50.36 226.11 49.14 224.44 50.05 222.25 C 50.54 220.34 52.19 218.92 53.53 217.54 C 55.74 215.43 57.99 213.19 60.55 211.52 C 64.11 209.26 68.15 209.29 72.00 207.98 C 72.77 206.21 71.99 203.86 71.86 201.99 C 71.61 197.09 69.27 193.46 67.45 188.86 C 67.20 192.19 68.47 196.64 66.44 199.44 C 65.50 201.12 63.43 201.89 61.80 202.75 C 57.92 204.72 53.62 206.30 50.72 209.69 C 48.95 211.97 47.63 214.55 45.75 216.76 C 42.71 220.29 41.58 224.30 39.63 228.47 C 37.14 227.65 34.80 227.08 32.75 225.34 C 29.85 222.83 27.55 219.45 25.23 216.40 C 27.07 215.97 28.92 215.53 30.76 215.09 C 30.12 214.15 29.48 213.21 28.86 212.26 C 28.45 210.88 28.05 209.50 27.64 208.12 C 29.88 206.57 31.89 204.63 34.23 203.24 C 38.58 201.65 44.25 202.56 48.75 202.15 C 51.75 200.46 54.63 198.36 57.32 196.22 C 59.02 195.15 59.22 192.68 57.77 191.33 C 56.11 189.53 54.18 188.00 52.49 186.24 C 52.87 187.74 54.82 189.80 53.14 190.99 C 47.22 191.91 41.13 192.66 35.37 194.34 C 29.86 196.13 26.42 200.12 23.11 204.63 C 22.00 202.66 19.09 199.92 20.45 197.53 C 22.79 192.29 28.84 188.85 31.83 183.84 C 33.51 180.98 34.57 177.82 33.43 174.53 C 31.74 169.67 29.32 165.09 27.78 160.15 C 25.36 152.72 22.21 144.89 22.21 137.06 C 22.16 129.70 21.97 122.35 22.06 114.99 C 22.24 106.58 19.36 98.88 18.78 90.46 C 19.86 90.80 20.95 91.14 22.03 91.48 C 21.27 88.36 20.56 85.36 20.98 82.12 C 21.68 75.98 24.30 69.94 25.80 63.91 C 28.01 55.12 31.58 46.70 35.45 38.51 C 36.86 35.73 38.29 32.52 40.53 30.31 Z" fill="#f3f3f2" />
<path d="M 221.41 29.18 C 221.72 33.63 219.29 36.88 217.42 40.70 C 218.12 41.41 218.83 42.13 219.54 42.84 C 218.97 44.48 218.51 46.15 217.94 47.79 C 215.12 48.47 212.06 49.17 209.43 50.43 C 207.80 49.09 206.12 47.85 204.20 46.93 C 204.88 44.98 204.36 43.23 203.94 41.29 C 204.70 40.88 205.47 40.47 206.23 40.07 C 206.93 41.34 207.63 42.61 208.34 43.88 C 211.19 40.91 214.04 38.07 215.98 34.39 C 217.22 32.03 219.25 30.63 221.41 29.18 Z" fill="#8b707e" />
<path d="M 171.77 30.31 C 172.71 30.89 173.65 31.47 174.58 32.05 C 173.28 34.44 171.95 36.82 170.61 39.19 C 168.42 43.10 166.32 47.05 163.99 50.88 L 162.31 51.75 C 163.42 46.85 165.01 42.07 166.22 37.19 C 167.03 34.07 169.45 32.32 171.77 30.31 Z" fill="#88657d" />
<path d="M 51.60 36.29 C 53.70 37.62 55.82 38.93 57.92 40.28 C 57.69 41.89 57.51 43.50 57.32 45.12 C 55.33 42.23 53.48 39.25 51.60 36.29 Z" fill="#a098a7" />
<path d="M 70.26 35.91 C 70.89 40.38 69.65 44.36 68.64 48.64 C 67.53 53.01 69.64 57.26 70.94 61.34 C 69.21 60.98 67.49 60.61 65.76 60.26 C 65.29 53.41 64.10 46.43 66.79 39.89 C 67.88 38.50 69.05 37.20 70.26 35.91 Z" fill="#b04342" />
<path d="M 48.16 36.59 C 48.50 45.65 47.50 54.60 39.63 60.31 C 39.85 55.01 42.02 49.95 43.01 44.69 C 43.65 41.20 45.58 38.90 48.16 36.59 Z" fill="#aca0a9" />
<path d="M 63.64 37.21 C 64.72 38.08 65.75 38.99 66.79 39.89 C 64.10 46.43 65.29 53.41 65.76 60.26 C 62.75 55.57 59.67 51.13 57.77 45.84 C 58.86 46.49 59.95 47.15 61.04 47.81 C 61.43 44.09 61.53 40.45 63.64 37.21 Z" fill="#6f4f65" />
<path d="M 50.51 38.74 C 51.09 39.78 51.68 40.82 52.27 41.86 C 51.20 42.70 50.75 43.66 50.93 44.74 C 51.75 46.39 53.06 45.10 53.38 43.89 C 55.82 48.83 56.44 53.96 56.96 59.37 C 57.26 62.45 56.50 65.24 55.72 68.18 C 58.02 70.08 60.37 71.93 62.81 73.64 C 63.05 75.25 63.33 76.85 63.61 78.46 C 60.23 77.61 54.70 77.39 53.38 73.48 C 52.70 69.65 53.45 65.55 53.28 61.65 C 50.73 65.20 49.12 69.10 47.90 73.27 C 46.48 70.96 44.94 68.72 43.36 66.51 C 42.30 67.99 41.30 69.51 40.37 71.07 C 40.03 68.93 39.53 66.79 39.00 64.68 C 42.12 60.89 46.30 57.88 48.35 53.31 C 50.33 49.00 50.13 43.40 50.51 38.74 Z" fill="#683c61" />
<path d="M 52.27 41.86 C 52.70 42.51 53.07 43.19 53.38 43.89 C 53.06 45.10 51.75 46.39 50.93 44.74 C 50.75 43.66 51.20 42.70 52.27 41.86 Z" fill="#8a7b96" />
<path d="M 203.94 41.29 C 204.36 43.23 204.88 44.98 204.20 46.93 C 203.11 47.58 202.01 48.25 200.92 48.92 C 197.42 50.93 193.63 51.92 189.64 52.36 C 193.84 47.63 198.35 44.22 203.94 41.29 Z" fill="#694258" />
<path d="M 73.80 45.51 C 74.59 47.34 75.44 49.11 76.44 50.84 C 75.78 51.02 75.13 51.20 74.47 51.38 C 73.66 51.59 72.85 51.81 72.03 52.02 C 72.47 49.80 73.11 47.66 73.80 45.51 Z" fill="#9697a0" />
<path d="M 204.20 46.93 C 206.12 47.85 207.80 49.09 209.43 50.43 C 206.97 53.76 204.90 57.31 202.87 60.91 C 200.85 64.22 199.12 67.68 197.26 71.08 C 197.21 70.17 197.17 69.27 197.13 68.36 C 198.39 64.98 199.91 61.77 200.92 58.29 C 200.27 57.87 199.61 57.46 198.95 57.06 C 197.38 57.93 195.85 58.89 194.40 59.94 C 193.95 59.29 193.49 58.65 193.04 58.00 C 196.49 55.50 198.21 52.08 200.92 48.92 C 202.01 48.25 203.11 47.58 204.20 46.93 Z" fill="#8a6171" />
<path d="M 217.94 47.79 C 213.54 52.72 207.78 56.50 202.87 60.91 C 204.90 57.31 206.97 53.76 209.43 50.43 C 212.06 49.17 215.12 48.47 217.94 47.79 Z" fill="#c5b8bf" />
<path d="M 200.92 48.92 C 198.21 52.08 196.49 55.50 193.04 58.00 C 192.41 58.37 191.79 58.74 191.17 59.11 C 191.13 57.51 191.08 55.92 191.04 54.32 C 189.18 54.91 187.31 55.46 185.46 56.10 C 186.91 54.92 188.30 53.66 189.64 52.36 C 193.63 51.92 197.42 50.93 200.92 48.92 Z" fill="#907c86" />
<path d="M 74.47 51.38 C 75.13 51.20 75.78 51.02 76.44 50.84 C 77.02 51.42 77.63 51.98 78.22 52.56 C 79.64 54.85 81.13 57.07 82.83 59.16 C 85.74 62.62 86.93 66.83 89.41 70.67 C 90.86 73.77 93.01 75.93 95.70 77.99 C 96.77 77.01 97.84 76.05 98.93 75.09 C 100.00 75.39 101.06 75.70 102.11 76.04 C 100.82 77.48 99.55 78.98 98.46 80.58 C 98.52 82.01 98.67 83.42 98.83 84.85 C 93.81 83.50 88.87 81.95 83.93 80.33 C 85.71 82.87 87.46 85.42 89.21 87.98 C 85.05 87.33 81.33 85.57 77.32 84.44 C 76.65 83.02 75.90 81.64 75.15 80.27 C 77.45 80.47 79.78 80.61 82.08 80.75 C 82.27 77.58 82.97 73.86 80.74 71.21 C 78.22 68.30 74.86 66.04 71.79 63.74 C 71.61 59.78 71.38 55.95 72.03 52.02 C 72.85 51.81 73.66 51.59 74.47 51.38 Z" fill="#525168" />
<path d="M 162.31 51.75 L 163.99 50.88 C 162.28 57.19 161.38 63.37 162.99 69.83 C 163.32 71.67 163.72 73.50 164.11 75.33 C 161.67 77.39 159.36 78.57 156.32 79.45 C 155.01 72.51 157.72 67.03 159.04 60.47 C 156.11 63.16 154.69 66.36 153.71 70.15 C 152.96 68.32 152.21 66.49 151.45 64.66 C 153.55 61.04 155.63 57.42 157.80 53.84 C 157.72 56.08 157.64 58.31 157.61 60.55 C 160.33 57.93 161.43 55.38 162.31 51.75 Z" fill="#cbc2c2" />
<path d="M 191.04 54.32 C 191.08 55.92 191.13 57.51 191.17 59.11 C 188.68 60.58 186.52 62.34 185.07 64.89 C 183.64 64.86 182.20 64.84 180.76 64.83 C 181.50 62.64 181.99 60.82 181.30 58.53 C 182.63 57.61 184.04 56.86 185.46 56.10 C 187.31 55.46 189.18 54.91 191.04 54.32 Z" fill="#b7a8af" />
<path d="M 198.95 57.06 C 199.61 57.46 200.27 57.87 200.92 58.29 C 199.91 61.77 198.39 64.98 197.13 68.36 C 197.08 67.56 197.03 66.76 196.97 65.95 C 194.72 71.20 192.54 76.47 190.60 81.85 C 192.15 82.31 193.71 82.78 195.26 83.25 C 194.21 84.34 193.12 85.39 192.00 86.41 C 190.95 84.10 189.90 81.78 188.86 79.47 C 187.43 80.22 186.00 80.95 184.57 81.68 C 184.72 80.80 184.87 79.92 185.03 79.04 C 185.82 75.50 186.32 71.82 187.45 68.37 C 188.62 64.79 191.56 62.24 194.40 59.94 C 195.85 58.89 197.38 57.93 198.95 57.06 Z" fill="#baaeb1" />
<path d="M 193.04 58.00 C 193.49 58.65 193.95 59.29 194.40 59.94 C 191.56 62.24 188.62 64.79 187.45 68.37 C 186.32 71.82 185.82 75.50 185.03 79.04 C 182.86 82.12 180.47 85.14 177.73 87.74 C 176.25 88.58 174.70 89.36 173.18 90.14 C 171.98 89.32 170.77 88.51 169.56 87.69 C 170.50 85.40 171.40 82.92 172.91 80.93 C 175.43 77.60 179.29 75.06 181.94 71.93 C 183.60 70.01 184.20 67.24 185.07 64.89 C 186.52 62.34 188.68 60.58 191.17 59.11 C 191.79 58.74 192.41 58.37 193.04 58.00 Z" fill="#bd3b3d" />
<path d="M 181.30 58.53 C 181.99 60.82 181.50 62.64 180.76 64.83 C 182.20 64.84 183.64 64.86 185.07 64.89 C 184.20 67.24 183.60 70.01 181.94 71.93 C 179.29 75.06 175.43 77.60 172.91 80.93 C 171.40 82.92 170.50 85.40 169.56 87.69 C 166.30 87.81 163.05 87.95 159.80 88.17 C 158.72 85.23 157.39 82.39 156.32 79.45 C 159.36 78.57 161.67 77.39 164.11 75.33 C 164.58 77.84 164.87 80.42 165.17 82.96 C 168.62 76.47 174.25 72.01 178.22 65.92 C 176.82 65.85 175.42 65.79 174.02 65.76 C 176.19 63.17 178.58 60.54 181.30 58.53 Z" fill="#7c6173" />
<path d="M 159.04 60.47 C 157.72 67.03 155.01 72.51 156.32 79.45 C 157.39 82.39 158.72 85.23 159.80 88.17 L 160.45 89.95 C 159.19 92.51 157.80 94.92 156.18 97.27 C 154.50 98.23 152.83 99.13 151.19 100.14 C 150.59 99.55 149.96 98.98 149.33 98.43 C 150.96 93.55 153.43 88.67 153.09 83.43 C 152.59 78.92 152.45 74.57 153.71 70.15 C 154.69 66.36 156.11 63.16 159.04 60.47 Z" fill="#be3c3f" />
<path d="M 53.28 61.65 C 53.45 65.55 52.70 69.65 53.38 73.48 C 54.70 77.39 60.23 77.61 63.61 78.46 C 66.47 79.02 69.33 79.53 72.22 79.91 C 73.19 80.05 74.17 80.17 75.15 80.27 C 75.90 81.64 76.65 83.02 77.32 84.44 L 77.42 85.42 C 75.09 84.86 72.54 83.88 70.13 84.03 C 67.24 84.49 64.43 85.74 61.68 86.69 C 60.85 86.31 60.02 85.92 59.19 85.52 C 56.06 83.99 53.33 81.93 50.62 79.77 C 49.83 77.54 49.04 75.34 47.90 73.27 C 49.12 69.10 50.73 65.20 53.28 61.65 Z" fill="#bc3c40" />
<path d="M 39.00 64.68 C 39.53 66.79 40.03 68.93 40.37 71.07 C 40.18 74.17 40.03 77.23 40.26 80.33 C 41.09 83.03 42.53 85.62 43.79 88.14 C 43.53 88.93 43.27 89.72 43.01 90.51 C 42.08 90.19 41.16 89.84 40.26 89.46 C 40.21 88.55 40.15 87.64 40.08 86.73 C 39.07 85.98 38.03 85.29 36.97 84.62 C 35.34 77.82 35.45 70.87 39.00 64.68 Z" fill="#785a72" />
<path d="M 151.45 64.66 C 152.21 66.49 152.96 68.32 153.71 70.15 C 152.45 74.57 152.59 78.92 153.09 83.43 C 151.75 85.01 150.41 86.59 149.14 88.22 C 148.10 82.72 151.32 78.42 151.43 73.07 C 151.24 71.51 149.97 70.02 149.16 68.71 C 149.91 67.35 150.67 66.00 151.45 64.66 Z" fill="#9e7987" />
<path d="M 43.36 66.51 C 44.94 68.72 46.48 70.96 47.90 73.27 C 49.04 75.34 49.83 77.54 50.62 79.77 C 49.02 80.44 47.40 81.36 45.69 81.71 C 43.87 81.67 42.01 80.80 40.26 80.33 C 40.03 77.23 40.18 74.17 40.37 71.07 C 41.30 69.51 42.30 67.99 43.36 66.51 Z" fill="#806c4f" />
<path d="M 174.02 65.76 C 175.42 65.79 176.82 65.85 178.22 65.92 C 174.25 72.01 168.62 76.47 165.17 82.96 C 164.87 80.42 164.58 77.84 164.11 75.33 C 163.72 73.50 163.32 71.67 162.99 69.83 C 164.13 70.80 165.25 71.79 166.36 72.79 C 169.49 70.76 171.71 68.69 174.02 65.76 Z" fill="#6f4e61" />
<path d="M 221.72 66.42 C 223.51 67.91 225.25 69.49 226.99 71.04 C 225.75 70.97 224.51 70.89 223.28 70.88 C 221.80 71.81 220.38 72.84 218.93 73.83 C 217.97 74.34 217.01 74.85 216.05 75.36 C 217.20 71.48 217.71 68.34 221.72 66.42 Z" fill="#c4bbbb" />
<path d="M 149.16 68.71 C 149.97 70.02 151.24 71.51 151.43 73.07 C 151.32 78.42 148.10 82.72 149.14 88.22 C 148.11 90.92 147.27 93.70 146.37 96.46 C 147.37 97.10 148.36 97.74 149.33 98.43 C 149.96 98.98 150.59 99.55 151.19 100.14 L 151.14 101.20 C 147.97 99.98 146.97 99.86 143.95 101.71 C 142.73 100.80 141.54 99.93 140.48 98.83 C 140.48 96.23 142.19 93.60 143.37 91.34 C 143.07 91.26 142.76 91.19 142.45 91.11 L 142.05 91.02 C 141.29 90.84 140.53 90.67 139.77 90.50 L 139.96 89.45 C 141.72 84.27 143.90 79.29 146.22 74.34 C 147.14 72.43 148.13 70.56 149.16 68.71 Z" fill="#755469" />
<path d="M 223.28 70.88 C 224.51 70.89 225.75 70.97 226.99 71.04 C 226.49 72.24 225.97 73.42 225.45 74.61 C 224.30 76.71 223.06 78.77 221.94 80.89 C 219.97 83.62 217.99 86.33 216.03 89.07 C 215.88 83.64 216.33 78.69 218.93 73.83 C 220.38 72.84 221.80 71.81 223.28 70.88 Z" fill="#5f3250" />
<path d="M 89.41 70.67 C 92.61 73.16 94.97 74.27 98.93 75.09 C 97.84 76.05 96.77 77.01 95.70 77.99 C 93.01 75.93 90.86 73.77 89.41 70.67 Z" fill="#353548" />
<path d="M 62.81 73.64 C 65.90 75.76 68.98 78.06 72.22 79.91 C 69.33 79.53 66.47 79.02 63.61 78.46 C 63.33 76.85 63.05 75.25 62.81 73.64 Z" fill="#7c6a79" />
<path d="M 146.22 74.34 C 143.90 79.29 141.72 84.27 139.96 89.45 C 138.87 88.48 137.67 87.53 136.76 86.39 C 136.53 83.84 137.54 81.00 138.91 78.89 C 140.65 76.73 143.74 75.49 146.22 74.34 Z" fill="#cac2c2" />
<path d="M 218.93 73.83 C 216.33 78.69 215.88 83.64 216.03 89.07 C 217.99 86.33 219.97 83.62 221.94 80.89 C 221.22 83.40 220.34 85.49 218.80 87.62 C 219.19 91.61 220.00 95.52 220.82 99.44 C 219.37 98.92 217.87 98.46 216.50 97.76 C 216.13 94.11 216.30 90.53 215.22 86.96 C 214.11 87.90 213.03 88.86 211.99 89.88 C 211.56 90.28 211.13 90.67 210.69 91.07 C 209.98 90.16 209.29 89.22 208.65 88.24 C 206.22 88.54 203.23 88.89 201.26 90.48 C 199.42 91.90 197.77 93.61 196.07 95.21 C 193.80 93.84 191.48 92.58 189.14 91.33 C 192.13 88.83 194.94 86.77 195.77 82.70 C 196.64 79.71 197.47 76.78 199.08 74.09 C 200.13 78.99 197.11 82.77 197.48 87.68 C 205.64 86.37 210.69 81.11 216.05 75.36 C 217.01 74.85 217.97 74.34 218.93 73.83 Z" fill="#816a77" />
<path d="M 225.45 74.61 C 225.58 78.31 226.54 81.95 226.60 85.64 C 225.35 86.68 223.83 87.47 222.41 88.27 C 222.79 90.85 223.19 93.43 223.61 96.01 C 222.68 97.16 221.75 98.30 220.82 99.44 C 220.00 95.52 219.19 91.61 218.80 87.62 C 220.34 85.49 221.22 83.40 221.94 80.89 C 223.06 78.77 224.30 76.71 225.45 74.61 Z" fill="#c8c1c3" />
<path d="M 102.11 76.04 C 104.27 76.76 106.35 77.94 108.37 78.98 C 109.08 78.46 109.78 77.92 110.48 77.39 C 110.35 78.20 110.23 79.01 110.10 79.82 C 113.45 81.02 116.48 82.52 120.07 82.78 C 124.01 82.99 127.88 83.53 131.76 84.17 C 128.65 89.20 129.71 95.24 126.14 99.80 C 126.03 96.21 125.97 93.40 127.99 90.29 C 126.38 89.29 124.97 88.22 123.00 88.07 C 119.06 87.56 115.17 86.92 111.26 86.21 C 111.79 87.11 112.33 88.00 112.88 88.88 C 111.27 88.73 109.67 88.66 108.06 88.56 C 107.24 88.46 106.41 88.37 105.59 88.28 C 106.45 88.03 107.31 87.77 108.17 87.49 C 109.15 87.15 110.13 86.79 111.10 86.43 C 106.78 84.66 102.55 82.86 98.46 80.58 C 99.55 78.98 100.82 77.48 102.11 76.04 Z" fill="#22233c" />
<path d="M 185.03 79.04 C 184.87 79.92 184.72 80.80 184.57 81.68 C 186.00 80.95 187.43 80.22 188.86 79.47 C 189.90 81.78 190.95 84.10 192.00 86.41 C 190.30 87.77 188.11 89.62 185.87 89.78 C 183.13 89.69 180.32 88.57 177.73 87.74 C 180.47 85.14 182.86 82.12 185.03 79.04 Z" fill="#776576" />
<path d="M 40.26 80.33 C 42.01 80.80 43.87 81.67 45.69 81.71 C 47.40 81.36 49.02 80.44 50.62 79.77 C 53.33 81.93 56.06 83.99 59.19 85.52 C 53.54 87.81 49.43 91.90 43.01 90.51 C 43.27 89.72 43.53 88.93 43.79 88.14 C 42.53 85.62 41.09 83.03 40.26 80.33 Z" fill="#5b345f" />
<path d="M 83.93 80.33 C 88.87 81.95 93.81 83.50 98.83 84.85 C 101.95 85.69 105.05 86.61 108.17 87.49 C 107.31 87.77 106.45 88.03 105.59 88.28 C 100.41 87.97 95.61 86.69 90.67 85.21 C 95.13 90.14 102.75 93.15 108.85 89.28 C 109.42 89.81 109.99 90.33 110.56 90.86 C 110.35 91.62 110.15 92.39 109.95 93.15 C 106.32 93.24 102.57 93.59 98.96 93.18 C 95.73 92.76 92.72 90.67 90.04 88.92 L 89.21 87.98 C 87.46 85.42 85.71 82.87 83.93 80.33 Z" fill="#411d3e" />
<path d="M 98.46 80.58 C 102.55 82.86 106.78 84.66 111.10 86.43 C 110.13 86.79 109.15 87.15 108.17 87.49 C 105.05 86.61 101.95 85.69 98.83 84.85 C 98.67 83.42 98.52 82.01 98.46 80.58 Z" fill="#d1cad8" />
<path d="M 195.26 83.25 L 195.77 82.70 C 194.94 86.77 192.13 88.83 189.14 91.33 C 191.48 92.58 193.80 93.84 196.07 95.21 C 196.74 95.63 197.41 96.05 198.07 96.47 C 197.15 96.43 196.22 96.36 195.29 96.25 C 192.58 95.33 190.03 94.17 187.42 93.04 C 180.97 89.90 174.76 90.65 167.85 90.38 C 165.87 90.35 163.89 90.32 161.91 90.21 L 160.45 89.95 L 159.80 88.17 C 163.05 87.95 166.30 87.81 169.56 87.69 C 170.77 88.51 171.98 89.32 173.18 90.14 C 174.70 89.36 176.25 88.58 177.73 87.74 C 180.32 88.57 183.13 89.69 185.87 89.78 C 188.11 89.62 190.30 87.77 192.00 86.41 C 193.12 85.39 194.21 84.34 195.26 83.25 Z" fill="#493648" />
<path d="M 70.13 84.03 C 72.54 83.88 75.09 84.86 77.42 85.42 C 77.51 86.80 77.56 88.18 77.62 89.56 C 72.55 90.91 67.51 92.36 62.49 93.87 C 61.38 92.21 60.27 90.54 59.15 88.88 C 61.62 89.24 64.11 89.77 66.56 90.29 C 66.63 89.86 66.71 89.43 66.78 89.00 C 65.08 88.23 63.38 87.47 61.68 86.69 C 64.43 85.74 67.24 84.49 70.13 84.03 Z" fill="#525368" />
<path d="M 89.21 87.98 L 90.04 88.92 C 89.32 93.47 88.06 96.37 85.31 100.06 C 89.39 101.50 93.15 103.57 97.09 105.33 C 94.98 105.51 92.89 105.81 90.83 106.32 C 87.64 104.32 84.47 102.47 81.87 99.69 C 80.16 98.30 79.30 96.05 76.77 96.86 C 68.98 98.45 62.06 100.85 54.00 99.31 C 56.32 97.96 58.77 96.87 61.26 95.86 C 61.67 95.20 62.08 94.54 62.49 93.87 C 67.51 92.36 72.55 90.91 77.62 89.56 C 77.56 88.18 77.51 86.80 77.42 85.42 L 77.32 84.44 C 81.33 85.57 85.05 87.33 89.21 87.98 Z" fill="#6f6d7e" />
<path d="M 153.09 83.43 C 153.43 88.67 150.96 93.55 149.33 98.43 C 148.36 97.74 147.37 97.10 146.37 96.46 C 147.27 93.70 148.11 90.92 149.14 88.22 C 150.41 86.59 151.75 85.01 153.09 83.43 Z" fill="#5c2f4c" />
<path d="M 36.97 84.62 C 38.03 85.29 39.07 85.98 40.08 86.73 C 40.15 87.64 40.21 88.55 40.26 89.46 C 38.73 88.08 37.55 86.64 36.97 84.62 Z" fill="#9d8ba0" />
<path d="M 90.67 85.21 C 95.61 86.69 100.41 87.97 105.59 88.28 C 106.41 88.37 107.24 88.46 108.06 88.56 L 108.85 89.28 C 102.75 93.15 95.13 90.14 90.67 85.21 Z" fill="#6feef5" />
<path d="M 34.23 85.89 C 34.61 88.22 34.41 90.50 34.08 92.82 C 36.70 93.22 39.33 93.65 41.96 93.91 C 42.33 95.03 42.71 96.15 43.08 97.26 C 39.26 96.32 35.52 95.10 31.71 94.12 C 32.43 95.44 33.14 96.75 33.92 98.04 C 31.61 96.67 29.18 95.58 26.75 94.44 C 25.44 92.97 24.22 91.41 22.90 89.93 C 26.53 90.83 29.97 90.37 33.54 89.56 C 33.79 88.34 34.02 87.11 34.23 85.89 Z" fill="#634763" />
<path d="M 215.22 86.96 C 216.30 90.53 216.13 94.11 216.50 97.76 C 217.87 98.46 219.37 98.92 220.82 99.44 C 220.93 100.83 221.04 102.22 221.15 103.61 C 223.00 103.80 224.85 103.99 226.70 104.22 C 227.01 106.19 227.45 108.12 227.90 110.05 C 224.72 113.00 223.03 113.73 218.72 114.07 C 215.43 110.19 211.73 105.71 207.22 103.27 C 209.43 98.92 210.22 94.45 211.99 89.88 C 213.03 88.86 214.11 87.90 215.22 86.96 Z" fill="#beb2b4" />
<path d="M 208.65 88.24 C 209.29 89.22 209.98 90.16 210.69 91.07 C 209.03 92.54 207.30 94.26 205.30 95.25 C 203.05 96.15 200.48 96.39 198.07 96.47 C 197.41 96.05 196.74 95.63 196.07 95.21 C 197.77 93.61 199.42 91.90 201.26 90.48 C 203.23 88.89 206.22 88.54 208.65 88.24 Z" fill="#b69fa2" />
<path d="M 56.46 89.82 C 55.25 91.64 54.05 93.94 52.26 95.25 C 49.68 97.01 46.11 97.24 43.08 97.26 C 42.71 96.15 42.33 95.03 41.96 93.91 C 44.44 94.00 47.20 94.11 49.59 93.37 C 51.98 92.51 54.17 90.93 56.46 89.82 Z" fill="#5b3c60" />
<path d="M 59.15 88.88 C 60.27 90.54 61.38 92.21 62.49 93.87 C 62.08 94.54 61.67 95.20 61.26 95.86 C 58.77 96.87 56.32 97.96 54.00 99.31 C 51.94 100.45 49.84 101.90 47.58 102.58 C 45.14 103.03 42.43 102.47 40.01 102.04 C 37.99 100.69 35.95 99.37 33.92 98.04 C 33.14 96.75 32.43 95.44 31.71 94.12 C 35.52 95.10 39.26 96.32 43.08 97.26 C 46.11 97.24 49.68 97.01 52.26 95.25 C 54.05 93.94 55.25 91.64 56.46 89.82 C 57.34 89.47 58.24 89.16 59.15 88.88 Z" fill="#b44245" />
<path d="M 90.04 88.92 C 92.72 90.67 95.73 92.76 98.96 93.18 C 102.57 93.59 106.32 93.24 109.95 93.15 C 110.15 92.39 110.35 91.62 110.56 90.86 C 109.99 90.33 109.42 89.81 108.85 89.28 L 108.06 88.56 C 109.67 88.66 111.27 88.73 112.88 88.88 C 115.75 89.17 118.61 89.63 121.45 90.18 C 121.61 92.19 121.79 94.20 122.01 96.20 C 120.76 95.93 119.46 95.58 118.19 95.51 C 116.34 96.15 114.66 97.40 113.01 98.44 C 113.89 98.92 114.77 99.41 115.66 99.90 C 112.43 101.74 109.42 103.58 105.63 103.99 C 104.12 104.24 102.64 104.55 101.16 104.94 C 99.81 105.13 98.45 105.25 97.09 105.33 C 93.15 103.57 89.39 101.50 85.31 100.06 C 88.06 96.37 89.32 93.47 90.04 88.92 Z" fill="#a09ca2" />
<path d="M 142.05 91.02 L 142.45 91.11 C 142.76 91.19 143.07 91.26 143.37 91.34 C 142.19 93.60 140.48 96.23 140.48 98.83 C 141.54 99.93 142.73 100.80 143.95 101.71 C 142.47 102.99 141.06 104.39 139.67 105.78 C 138.83 105.60 138.00 105.41 137.17 105.23 C 136.52 108.25 136.45 111.26 136.55 114.34 C 136.24 115.52 135.91 116.69 135.59 117.87 C 135.14 117.26 134.67 116.65 134.21 116.05 C 133.01 114.61 131.50 113.28 130.42 111.75 C 130.15 110.14 131.51 109.58 132.47 108.54 C 134.42 106.66 137.63 104.66 138.32 101.91 C 139.28 98.26 139.21 94.25 139.77 90.50 C 140.53 90.67 141.29 90.84 142.05 91.02 Z" fill="#d6cece" />
<path d="M 160.45 89.95 L 161.91 90.21 C 165.85 93.19 168.55 96.88 171.03 101.10 L 172.37 101.70 C 173.96 102.31 175.56 102.84 177.18 103.38 C 176.14 105.07 175.11 106.75 174.05 108.43 C 177.13 108.27 180.19 108.24 183.27 108.35 C 182.94 110.07 182.51 111.85 182.45 113.60 C 183.20 114.78 184.61 115.57 185.69 116.44 C 181.30 120.78 178.44 124.95 175.82 130.51 C 174.46 132.85 173.07 135.11 172.03 137.62 C 171.75 138.43 171.47 139.23 171.20 140.04 C 170.48 139.77 169.77 139.50 169.06 139.22 C 167.98 140.44 166.90 141.65 165.82 142.87 C 166.31 139.73 166.83 136.59 167.40 133.46 C 164.15 133.28 161.40 132.70 158.37 131.52 C 159.39 129.76 160.41 128.00 161.41 126.23 C 160.37 123.07 159.10 120.46 160.56 117.15 L 161.39 115.69 C 162.63 113.46 164.22 110.62 163.71 108.00 C 162.73 106.08 160.88 104.52 159.28 103.12 C 160.31 101.57 161.26 99.97 162.22 98.38 C 160.08 99.91 157.95 101.44 155.78 102.93 C 155.88 101.04 155.99 99.15 156.18 97.27 C 157.80 94.92 159.19 92.51 160.45 89.95 Z" fill="#59586d" />
<path d="M 161.91 90.21 C 163.89 90.32 165.87 90.35 167.85 90.38 C 170.56 94.17 171.67 97.07 172.37 101.70 L 171.03 101.10 C 168.55 96.88 165.85 93.19 161.91 90.21 Z" fill="#944e58" />
<path d="M 167.85 90.38 C 174.76 90.65 180.97 89.90 187.42 93.04 C 186.84 93.62 186.27 94.21 185.69 94.79 C 184.01 94.43 182.33 94.07 180.63 93.76 C 182.56 96.50 185.01 98.50 187.71 100.43 C 190.56 102.24 190.82 106.41 192.92 109.08 C 194.98 111.61 197.79 113.62 200.26 115.74 C 198.79 117.04 197.33 118.34 195.86 119.64 C 197.13 120.71 198.38 121.78 199.72 122.76 C 200.41 124.48 201.20 126.14 201.83 127.87 C 201.23 127.22 200.62 126.57 200.01 125.93 C 197.47 127.69 195.14 129.68 192.87 131.77 C 192.58 131.11 192.29 130.45 192.00 129.79 C 194.08 127.63 196.19 125.50 198.32 123.37 C 195.00 124.25 191.66 124.84 188.27 125.30 C 183.54 125.73 180.55 129.59 175.82 130.51 C 178.44 124.95 181.30 120.78 185.69 116.44 C 184.61 115.57 183.20 114.78 182.45 113.60 C 182.51 111.85 182.94 110.07 183.27 108.35 C 180.19 108.24 177.13 108.27 174.05 108.43 C 175.11 106.75 176.14 105.07 177.18 103.38 C 175.56 102.84 173.96 102.31 172.37 101.70 C 171.67 97.07 170.56 94.17 167.85 90.38 Z" fill="#716e7f" />
<path d="M 211.99 89.88 C 210.22 94.45 209.43 98.92 207.22 103.27 L 206.31 103.47 L 204.89 103.77 C 200.19 104.86 196.21 104.96 191.45 104.01 C 192.13 100.67 193.03 98.80 195.29 96.25 C 196.22 96.36 197.15 96.43 198.07 96.47 C 200.48 96.39 203.05 96.15 205.30 95.25 C 207.30 94.26 209.03 92.54 210.69 91.07 C 211.13 90.67 211.56 90.28 211.99 89.88 Z" fill="#b93d3d" />
<path d="M 180.63 93.76 C 182.33 94.07 184.01 94.43 185.69 94.79 C 186.27 94.21 186.84 93.62 187.42 93.04 C 190.03 94.17 192.58 95.33 195.29 96.25 C 193.03 98.80 192.13 100.67 191.45 104.01 C 196.21 104.96 200.19 104.86 204.89 103.77 L 204.85 105.25 C 204.81 107.59 204.71 110.03 205.71 112.22 C 206.75 114.44 208.49 116.40 210.07 118.26 C 209.61 115.74 209.10 113.24 208.40 110.78 C 212.84 116.34 215.89 122.46 221.52 127.04 L 222.20 125.96 C 222.93 124.88 223.66 123.81 224.39 122.73 C 225.14 123.63 225.90 124.48 226.55 125.44 C 226.49 127.94 226.52 130.42 226.61 132.92 C 225.64 130.27 224.61 127.66 223.28 125.16 C 223.26 130.86 226.24 136.20 226.98 141.90 C 229.04 156.00 226.25 171.44 219.94 184.19 C 219.64 182.57 219.35 180.96 219.06 179.34 C 213.98 181.25 209.15 185.64 209.30 191.45 C 206.73 193.71 204.06 195.83 201.10 197.56 C 197.74 196.93 194.57 195.65 191.25 194.87 C 188.68 196.27 186.75 198.82 184.24 200.38 C 181.26 202.25 177.84 203.14 174.90 205.13 C 171.48 204.35 167.88 203.92 164.92 201.90 C 161.15 199.29 157.41 196.78 154.14 193.54 C 152.09 191.54 149.70 190.11 147.07 189.00 C 150.00 189.83 152.97 189.85 155.98 189.65 C 155.71 188.80 155.43 187.94 155.15 187.09 C 161.00 188.50 165.94 186.84 171.66 185.72 C 177.83 184.48 183.82 181.24 189.43 178.40 C 194.65 175.60 197.24 171.05 200.10 166.13 C 202.24 162.40 201.20 157.85 203.50 154.43 C 204.92 152.14 206.22 149.82 207.29 147.34 C 205.83 147.42 204.37 147.51 202.91 147.62 C 203.29 143.68 203.92 140.13 201.51 136.67 C 200.18 141.81 199.71 147.09 199.70 152.39 C 198.81 153.48 197.88 154.54 196.96 155.60 C 198.20 149.30 199.15 143.05 199.22 136.62 C 202.14 133.03 203.80 129.98 204.91 125.45 C 203.18 124.55 201.44 123.68 199.72 122.76 C 198.38 121.78 197.13 120.71 195.86 119.64 C 197.33 118.34 198.79 117.04 200.26 115.74 C 197.79 113.62 194.98 111.61 192.92 109.08 C 190.82 106.41 190.56 102.24 187.71 100.43 C 185.01 98.50 182.56 96.50 180.63 93.76 Z" fill="#9f9ca1" />
<path d="M 33.92 98.04 C 35.95 99.37 37.99 100.69 40.01 102.04 C 41.53 103.88 42.93 105.83 44.39 107.73 C 47.48 106.33 50.62 106.14 53.94 105.87 C 58.56 105.74 61.85 100.97 66.18 100.08 C 68.50 99.75 70.96 99.92 73.30 100.00 C 73.40 100.99 73.51 101.97 73.61 102.96 C 76.32 101.75 79.06 100.66 81.87 99.69 C 84.47 102.47 87.64 104.32 90.83 106.32 L 89.21 106.83 C 84.53 107.57 80.16 107.46 75.98 110.02 C 71.43 112.81 67.28 116.21 62.60 118.82 C 58.77 121.15 54.47 122.48 50.59 124.66 C 46.91 126.69 45.95 131.99 45.38 135.79 C 45.19 139.76 46.28 143.86 46.53 147.90 C 46.52 152.48 46.90 156.66 48.63 160.95 C 48.46 157.70 48.21 154.45 47.98 151.19 C 49.19 151.80 50.38 152.39 51.55 153.06 C 52.54 153.89 53.49 154.76 54.44 155.63 C 54.46 158.66 54.67 161.66 54.88 164.68 C 53.75 164.94 52.62 165.20 51.49 165.46 C 51.98 166.95 52.46 168.45 52.99 169.93 C 54.24 173.66 57.01 175.45 60.16 177.46 C 62.70 179.23 64.32 181.68 65.92 184.27 L 64.12 183.85 C 61.83 182.79 59.57 181.73 57.06 181.25 C 52.60 180.40 48.39 178.04 45.15 174.87 C 42.23 171.68 40.38 167.25 38.65 163.33 C 35.67 156.57 32.86 149.41 32.22 141.99 C 31.74 135.62 30.10 129.48 29.77 123.10 C 30.97 121.91 32.37 120.74 33.30 119.33 C 34.26 116.68 33.93 113.48 34.94 110.82 C 35.77 108.57 36.51 106.30 37.19 103.99 C 33.22 101.22 29.77 98.27 26.75 94.44 C 29.18 95.58 31.61 96.67 33.92 98.04 Z" fill="#21233f" />
<path d="M 81.87 99.69 C 79.06 100.66 76.32 101.75 73.61 102.96 C 73.51 101.97 73.40 100.99 73.30 100.00 C 70.96 99.92 68.50 99.75 66.18 100.08 C 61.85 100.97 58.56 105.74 53.94 105.87 C 50.62 106.14 47.48 106.33 44.39 107.73 C 42.93 105.83 41.53 103.88 40.01 102.04 C 42.43 102.47 45.14 103.03 47.58 102.58 C 49.84 101.90 51.94 100.45 54.00 99.31 C 62.06 100.85 68.98 98.45 76.77 96.86 C 79.30 96.05 80.16 98.30 81.87 99.69 Z" fill="#604d66" />
<path d="M 156.18 97.27 C 155.99 99.15 155.88 101.04 155.78 102.93 C 157.95 101.44 160.08 99.91 162.22 98.38 C 161.26 99.97 160.31 101.57 159.28 103.12 C 157.31 106.26 154.64 107.82 151.58 109.63 C 148.25 111.53 149.02 115.99 148.76 119.23 C 147.50 121.75 146.50 124.34 145.67 127.02 C 147.50 125.48 149.26 123.87 150.90 122.14 C 152.42 124.79 151.75 127.21 151.46 130.06 C 151.11 132.60 152.09 134.72 152.73 137.16 C 151.45 135.88 149.95 134.62 148.98 133.08 C 148.37 131.59 148.17 129.90 147.88 128.33 C 145.59 127.78 143.42 127.52 141.06 127.55 L 141.54 126.34 C 143.60 123.58 145.68 121.12 146.88 117.81 C 148.06 114.68 148.06 111.64 148.21 108.35 C 146.73 108.79 145.26 109.23 143.78 109.67 C 144.06 107.78 144.35 105.89 144.61 104.00 C 141.58 107.18 138.98 110.69 136.55 114.34 C 136.45 111.26 136.52 108.25 137.17 105.23 C 138.00 105.41 138.83 105.60 139.67 105.78 C 141.06 104.39 142.47 102.99 143.95 101.71 C 146.97 99.86 147.97 99.98 151.14 101.20 L 151.19 100.14 C 152.83 99.13 154.50 98.23 156.18 97.27 Z" fill="#9d969d" />
<path d="M 215.61 100.41 C 217.53 101.35 219.15 103.07 220.75 104.47 C 218.98 104.97 217.04 105.73 215.18 105.68 C 212.96 105.29 210.88 103.62 209.00 102.44 C 211.00 101.58 213.39 100.26 215.61 100.41 Z" fill="#84727c" />
<path d="M 105.63 103.99 C 99.52 109.41 95.24 115.30 87.39 118.48 C 83.83 120.33 80.68 119.29 76.99 118.65 C 84.45 116.43 91.01 112.65 97.48 108.45 C 98.83 107.41 99.96 106.15 101.16 104.94 C 102.64 104.55 104.12 104.24 105.63 103.99 Z" fill="#78556d" />
<path d="M 159.28 103.12 C 160.88 104.52 162.73 106.08 163.71 108.00 C 164.22 110.62 162.63 113.46 161.39 115.69 C 160.07 114.22 158.63 112.88 157.12 111.60 C 156.64 113.22 156.20 114.85 155.76 116.48 C 157.36 116.72 158.96 116.96 160.56 117.15 C 159.10 120.46 160.37 123.07 161.41 126.23 C 160.41 128.00 159.39 129.76 158.37 131.52 C 161.40 132.70 164.15 133.28 167.40 133.46 C 166.83 136.59 166.31 139.73 165.82 142.87 C 166.90 141.65 167.98 140.44 169.06 139.22 C 169.77 139.50 170.48 139.77 171.20 140.04 C 170.44 142.27 169.03 144.01 167.59 145.82 C 164.42 145.13 161.25 144.46 158.01 144.15 C 156.71 147.39 156.52 150.72 156.26 154.14 C 156.00 157.82 154.56 160.82 153.26 164.20 L 152.64 164.73 C 147.02 164.31 141.41 164.09 135.77 164.51 C 134.71 162.83 133.52 161.26 132.39 159.63 C 131.74 155.80 131.97 152.69 132.94 148.93 C 131.40 147.13 129.79 145.18 127.82 143.84 C 124.19 144.94 121.02 147.48 117.53 149.01 C 117.28 147.87 117.03 146.72 116.78 145.58 C 115.16 146.43 113.53 147.27 111.90 148.10 C 111.42 145.68 111.23 142.98 110.32 140.69 C 109.21 138.16 107.18 135.90 105.39 133.82 C 105.40 135.48 105.45 137.14 105.50 138.80 C 104.90 139.35 104.31 139.90 103.71 140.45 C 103.43 138.99 103.13 137.54 102.88 136.07 C 104.89 130.79 108.27 126.97 112.42 123.26 C 113.47 123.29 114.52 123.32 115.58 123.34 C 115.19 125.58 114.81 127.83 114.50 130.09 C 116.92 128.96 119.33 127.81 121.65 126.48 C 122.90 125.74 124.12 124.97 125.32 124.17 C 126.48 123.39 127.62 122.59 128.77 121.81 C 127.97 123.25 127.16 124.69 126.40 126.16 C 125.24 126.90 124.05 127.61 122.86 128.32 C 121.58 129.06 120.30 129.82 119.03 130.59 C 120.09 131.91 121.16 133.23 122.22 134.55 C 122.85 134.04 123.48 133.53 124.11 133.03 L 124.62 134.19 L 124.90 134.71 C 122.58 138.01 120.75 141.57 119.16 145.27 C 121.36 143.27 123.49 141.20 125.63 139.14 C 126.20 140.36 126.77 141.58 127.34 142.81 C 132.88 137.06 135.04 129.73 139.63 123.41 C 138.74 130.57 134.86 135.44 132.16 141.93 C 136.27 137.62 139.12 133.21 141.06 127.55 C 143.42 127.52 145.59 127.78 147.88 128.33 C 148.17 129.90 148.37 131.59 148.98 133.08 C 149.95 134.62 151.45 135.88 152.73 137.16 C 152.09 134.72 151.11 132.60 151.46 130.06 C 151.75 127.21 152.42 124.79 150.90 122.14 C 150.26 121.11 149.52 120.18 148.76 119.23 C 149.02 115.99 148.25 111.53 151.58 109.63 C 154.64 107.82 157.31 106.26 159.28 103.12 Z" fill="#716f7e" />
<path d="M 207.22 103.27 C 211.73 105.71 215.43 110.19 218.72 114.07 C 220.92 116.80 222.14 120.04 224.39 122.73 C 223.66 123.81 222.93 124.88 222.20 125.96 C 218.04 117.78 212.58 110.16 206.31 103.47 L 207.22 103.27 Z" fill="#1b1a34" />
<path d="M 144.61 104.00 C 144.35 105.89 144.06 107.78 143.78 109.67 C 145.26 109.23 146.73 108.79 148.21 108.35 C 148.06 111.64 148.06 114.68 146.88 117.81 C 145.68 121.12 143.60 123.58 141.54 126.34 C 141.34 124.59 141.11 122.83 140.88 121.08 C 140.15 121.63 139.41 122.17 138.68 122.72 C 138.40 121.03 138.09 119.35 137.67 117.70 C 135.75 120.08 133.91 122.52 132.09 124.98 C 131.86 124.25 131.60 123.54 131.33 122.83 C 130.95 121.88 130.57 120.94 130.18 119.99 C 131.51 118.67 132.86 117.36 134.21 116.05 C 134.67 116.65 135.14 117.26 135.59 117.87 C 135.91 116.69 136.24 115.52 136.55 114.34 C 138.98 110.69 141.58 107.18 144.61 104.00 Z" fill="#ececed" />
<path d="M 204.89 103.77 L 206.31 103.47 C 212.58 110.16 218.04 117.78 222.20 125.96 L 221.52 127.04 C 215.89 122.46 212.84 116.34 208.40 110.78 C 207.24 108.92 206.04 107.08 204.85 105.25 L 204.89 103.77 Z" fill="#fdfdfd" />
<path d="M 226.70 104.22 C 229.05 104.53 231.31 105.03 233.61 105.53 C 231.69 107.02 229.76 108.49 227.90 110.05 C 227.45 108.12 227.01 106.19 226.70 104.22 Z" fill="#d7d7d7" />
<path d="M 204.85 105.25 C 206.04 107.08 207.24 108.92 208.40 110.78 C 209.10 113.24 209.61 115.74 210.07 118.26 C 208.49 116.40 206.75 114.44 205.71 112.22 C 204.71 110.03 204.81 107.59 204.85 105.25 Z" fill="#9b5b5c" />
<path d="M 89.21 106.83 C 83.04 111.77 76.96 117.17 70.15 121.17 C 65.87 123.93 62.77 127.61 62.52 132.90 C 61.42 131.58 60.40 130.18 59.34 128.82 C 60.23 125.42 61.38 122.12 62.60 118.82 C 67.28 116.21 71.43 112.81 75.98 110.02 C 80.16 107.46 84.53 107.57 89.21 106.83 Z" fill="#767582" />
<path d="M 155.53 109.24 C 155.87 113.33 153.25 115.32 150.78 118.07 C 151.68 114.50 152.88 111.88 155.53 109.24 Z" fill="#918d98" />
<path d="M 157.12 111.60 C 158.63 112.88 160.07 114.22 161.39 115.69 L 160.56 117.15 C 158.96 116.96 157.36 116.72 155.76 116.48 C 156.20 114.85 156.64 113.22 157.12 111.60 Z" fill="#92939b" />
<path d="M 98.07 113.02 C 99.60 112.65 100.28 114.36 98.85 115.09 C 97.31 115.49 96.62 113.72 98.07 113.02 Z" fill="#6b676f" />
<path d="M 168.88 112.51 C 168.11 116.13 166.95 119.12 165.06 122.30 C 165.11 120.15 164.89 117.71 165.59 115.65 C 166.51 114.47 167.76 113.48 168.88 112.51 Z" fill="#2b2a43" />
<path d="M 101.70 115.64 C 101.14 116.87 100.58 118.09 100.01 119.32 C 98.47 119.59 96.93 119.89 95.38 120.07 L 94.60 119.27 C 96.65 115.79 97.80 115.56 101.70 115.64 Z" fill="#6e707d" />
<path d="M 119.91 116.11 C 119.84 117.21 119.75 118.31 119.63 119.40 C 119.03 120.46 118.42 121.51 117.81 122.56 C 118.83 122.45 119.84 122.34 120.86 122.23 C 121.12 123.65 121.38 125.06 121.65 126.48 C 119.33 127.81 116.92 128.96 114.50 130.09 C 114.81 127.83 115.19 125.58 115.58 123.34 C 114.52 123.32 113.47 123.29 112.42 123.26 C 114.81 120.76 117.18 118.26 119.91 116.11 Z" fill="#a1a0a4" />
<path d="M 137.67 117.70 C 138.09 119.35 138.40 121.03 138.68 122.72 C 139.41 122.17 140.15 121.63 140.88 121.08 C 141.11 122.83 141.34 124.59 141.54 126.34 L 141.06 127.55 C 139.12 133.21 136.27 137.62 132.16 141.93 C 134.86 135.44 138.74 130.57 139.63 123.41 C 135.04 129.73 132.88 137.06 127.34 142.81 C 126.77 141.58 126.20 140.36 125.63 139.14 C 123.49 141.20 121.36 143.27 119.16 145.27 C 120.75 141.57 122.58 138.01 124.90 134.71 C 125.41 135.55 125.91 136.37 126.43 137.19 C 127.89 134.79 128.68 133.21 128.16 130.30 C 129.52 128.57 130.81 126.77 132.09 124.98 C 133.91 122.52 135.75 120.08 137.67 117.70 Z" fill="#a6a1a3" />
<path d="M 62.60 118.82 C 61.38 122.12 60.23 125.42 59.34 128.82 C 59.08 132.67 61.58 134.42 63.86 137.04 C 64.39 136.37 64.93 135.71 65.47 135.05 C 67.41 136.32 69.48 137.41 71.56 138.45 C 70.06 138.79 68.57 139.20 67.09 139.59 C 68.52 141.12 69.97 142.62 71.43 144.11 C 71.60 147.60 71.27 149.94 69.28 152.87 C 68.40 152.21 67.51 151.55 66.63 150.89 C 61.46 143.48 54.03 138.33 45.38 135.79 C 45.95 131.99 46.91 126.69 50.59 124.66 C 54.47 122.48 58.77 121.15 62.60 118.82 Z" fill="#504f68" />
<path d="M 94.60 119.27 L 95.38 120.07 C 96.93 119.89 98.47 119.59 100.01 119.32 C 100.82 119.17 101.63 119.03 102.43 118.89 L 102.51 119.61 C 101.26 119.93 99.93 120.21 98.75 120.72 C 97.45 122.02 96.90 124.15 96.24 125.83 C 97.87 125.80 99.51 125.76 101.14 125.71 C 100.78 126.88 100.42 128.06 100.06 129.24 C 99.51 131.16 99.08 133.09 98.63 135.03 C 96.53 134.72 94.44 134.38 92.34 134.04 C 92.33 132.26 92.30 130.49 92.30 128.71 C 92.65 125.42 93.14 122.28 94.60 119.27 Z" fill="#d4d4d8" />
<path d="M 102.51 119.61 C 102.69 121.63 102.79 123.65 102.80 125.68 C 102.24 125.68 101.69 125.69 101.14 125.71 C 99.51 125.76 97.87 125.80 96.24 125.83 C 96.90 124.15 97.45 122.02 98.75 120.72 C 99.93 120.21 101.26 119.93 102.51 119.61 Z" fill="#3c3a53" />
<path d="M 119.63 119.40 C 121.73 120.75 123.54 122.43 125.32 124.17 C 124.12 124.97 122.90 125.74 121.65 126.48 C 121.38 125.06 121.12 123.65 120.86 122.23 C 119.84 122.34 118.83 122.45 117.81 122.56 C 118.42 121.51 119.03 120.46 119.63 119.40 Z" fill="#c8c8c8" />
<path d="M 148.76 119.23 C 149.52 120.18 150.26 121.11 150.90 122.14 C 149.26 123.87 147.50 125.48 145.67 127.02 C 146.50 124.34 147.50 121.75 148.76 119.23 Z" fill="#a15659" />
<path d="M 87.09 121.86 C 85.33 125.87 82.97 129.58 81.07 133.53 C 82.29 133.58 83.52 133.62 84.75 133.65 C 86.46 133.70 88.18 133.73 89.88 133.88 C 87.60 137.08 85.69 140.30 84.16 143.93 C 82.63 143.11 81.10 142.29 79.57 141.46 C 79.15 141.65 78.74 141.84 78.32 142.03 C 78.79 146.82 79.51 151.54 80.67 156.22 C 77.66 157.15 74.64 157.98 71.58 158.73 C 70.81 156.78 70.04 154.83 69.28 152.87 C 71.27 149.94 71.60 147.60 71.43 144.11 C 72.30 142.51 73.17 140.91 74.17 139.37 C 75.94 137.08 77.95 135.06 80.02 133.04 C 79.76 131.46 79.49 129.87 79.21 128.29 C 79.72 129.33 80.22 130.36 80.73 131.40 C 82.18 127.45 83.25 124.10 87.09 121.86 Z" fill="#353754" />
<path d="M 131.33 122.83 C 131.60 123.54 131.86 124.25 132.09 124.98 C 130.81 126.77 129.52 128.57 128.16 130.30 C 127.00 131.61 125.81 132.90 124.62 134.19 L 124.11 133.03 C 123.64 131.47 123.27 129.89 122.86 128.32 C 124.05 127.61 125.24 126.90 126.40 126.16 C 128.08 125.11 129.69 123.95 131.33 122.83 Z" fill="#bd4c4e" />
<path d="M 198.32 123.37 C 196.19 125.50 194.08 127.63 192.00 129.79 C 190.61 131.23 189.24 132.69 187.86 134.14 C 188.64 134.66 189.43 135.18 190.21 135.71 C 186.41 136.73 183.18 137.06 179.27 136.62 C 176.59 136.29 174.53 136.68 172.03 137.62 C 173.07 135.11 174.46 132.85 175.82 130.51 C 180.55 129.59 183.54 125.73 188.27 125.30 C 191.66 124.84 195.00 124.25 198.32 123.37 Z" fill="#a19fa5" />
<path d="M 199.72 122.76 C 201.44 123.68 203.18 124.55 204.91 125.45 C 203.80 129.98 202.14 133.03 199.22 136.62 C 195.85 141.16 193.18 145.84 193.53 151.70 C 194.00 153.31 195.77 154.50 196.96 155.60 C 197.88 154.54 198.81 153.48 199.70 152.39 C 200.89 150.88 201.96 149.29 202.91 147.62 C 204.37 147.51 205.83 147.42 207.29 147.34 C 206.22 149.82 204.92 152.14 203.50 154.43 C 201.20 157.85 202.24 162.40 200.10 166.13 C 197.24 171.05 194.65 175.60 189.43 178.40 C 183.82 181.24 177.83 184.48 171.66 185.72 C 165.94 186.84 161.00 188.50 155.15 187.09 C 149.93 185.06 144.73 182.26 140.69 178.33 C 137.10 173.27 134.23 168.01 131.96 162.23 C 132.11 161.37 132.25 160.50 132.39 159.63 C 133.52 161.26 134.71 162.83 135.77 164.51 C 137.51 167.99 139.11 171.36 141.97 174.10 C 144.32 175.76 146.83 177.20 149.40 178.49 C 157.06 182.36 166.45 183.20 174.88 182.26 C 182.79 181.25 190.22 176.18 195.31 170.22 C 197.61 167.63 198.84 164.82 199.50 161.44 C 199.77 160.10 200.02 158.75 200.26 157.40 C 199.21 157.33 198.15 157.27 197.09 157.21 C 193.84 155.98 191.71 153.62 189.27 151.28 C 190.06 146.32 191.33 142.53 193.68 138.12 C 192.53 137.31 191.38 136.49 190.21 135.71 C 189.43 135.18 188.64 134.66 187.86 134.14 C 189.24 132.69 190.61 131.23 192.00 129.79 C 192.29 130.45 192.58 131.11 192.87 131.77 C 192.15 132.44 191.43 133.12 190.71 133.81 C 192.03 134.93 193.34 136.06 194.66 137.18 C 196.89 133.95 199.40 130.95 201.83 127.87 C 201.20 126.14 200.41 124.48 199.72 122.76 Z" fill="#20213d" />
<path d="M 102.80 125.68 C 102.69 129.15 102.58 132.60 102.88 136.07 C 103.13 137.54 103.43 138.99 103.71 140.45 C 104.46 143.46 104.17 148.05 107.26 149.63 C 109.26 150.96 111.49 152.00 113.65 153.07 C 114.50 155.02 115.43 156.93 116.35 158.85 C 115.17 159.92 114.00 160.99 112.83 162.06 C 107.69 156.86 105.13 150.47 102.28 143.89 C 100.47 139.27 99.32 134.21 100.06 129.24 C 100.42 128.06 100.78 126.88 101.14 125.71 C 101.69 125.69 102.24 125.68 102.80 125.68 Z" fill="#20203c" />
<path d="M 37.29 126.86 C 38.80 126.36 38.55 131.58 37.10 131.11 C 36.23 130.22 36.37 127.68 37.29 126.86 Z" fill="#575973" />
<path d="M 89.19 126.16 C 90.97 124.90 92.08 127.71 90.03 128.17 C 88.90 127.88 88.63 127.21 89.19 126.16 Z" fill="#a2a2a2" />
<path d="M 200.01 125.93 C 200.62 126.57 201.23 127.22 201.83 127.87 C 199.40 130.95 196.89 133.95 194.66 137.18 C 193.34 136.06 192.03 134.93 190.71 133.81 C 191.43 133.12 192.15 132.44 192.87 131.77 C 195.14 129.68 197.47 127.69 200.01 125.93 Z" fill="#847a8f" />
<path d="M 223.28 125.16 C 224.61 127.66 225.64 130.27 226.61 132.92 C 226.52 130.42 226.49 127.94 226.55 125.44 C 228.05 127.55 229.02 129.90 229.71 132.37 C 231.59 139.10 232.64 146.02 232.87 153.01 C 233.17 161.25 234.48 168.63 232.87 176.84 C 231.82 181.78 230.36 186.70 228.36 191.34 C 225.49 198.69 220.66 204.64 215.45 210.44 C 210.19 215.94 203.83 219.89 196.93 222.99 C 191.52 225.34 187.95 228.90 182.18 230.10 C 177.82 230.92 173.37 231.03 169.01 231.88 C 162.59 233.14 156.42 232.50 149.95 232.59 C 143.32 232.62 137.44 231.30 131.02 233.74 C 123.85 236.49 116.36 235.98 109.09 233.92 C 103.62 232.36 97.55 232.00 93.54 227.48 C 90.86 224.25 88.51 220.73 85.85 217.48 C 92.17 220.61 98.03 223.64 105.31 223.55 C 99.90 221.07 94.73 220.17 90.35 215.67 C 84.68 210.50 80.09 204.51 77.80 197.10 C 81.28 199.20 84.29 201.83 87.65 204.13 C 84.91 201.62 81.97 199.35 79.26 196.82 C 76.44 194.00 74.26 190.45 72.25 187.02 C 71.58 185.74 70.94 184.44 70.30 183.15 C 72.55 184.81 74.77 186.52 77.14 188.02 C 76.33 185.48 75.44 182.98 74.27 180.58 C 72.00 175.85 70.73 170.83 69.63 165.73 C 69.18 165.98 68.74 166.22 68.29 166.47 C 68.78 161.95 69.02 157.41 69.28 152.87 C 70.04 154.83 70.81 156.78 71.58 158.73 C 74.64 157.98 77.66 157.15 80.67 156.22 C 79.51 151.54 78.79 146.82 78.32 142.03 C 78.74 141.84 79.15 141.65 79.57 141.46 C 81.10 142.29 82.63 143.11 84.16 143.93 C 85.69 140.30 87.60 137.08 89.88 133.88 C 93.96 135.31 97.58 136.25 99.15 140.80 C 99.40 144.32 99.16 148.02 99.80 151.49 C 100.36 154.55 103.04 156.94 105.07 159.14 C 103.69 154.98 102.14 150.90 101.05 146.65 C 104.83 151.49 106.19 157.19 108.97 162.52 C 103.02 171.27 106.10 179.99 104.65 189.83 C 104.42 191.40 104.16 192.96 103.90 194.51 C 102.68 193.95 101.47 193.37 100.26 192.80 L 99.36 193.94 C 99.13 194.22 98.90 194.51 98.66 194.79 C 97.98 193.55 97.30 192.31 96.62 191.07 C 97.67 195.16 98.74 199.24 99.74 203.34 C 97.81 202.54 95.87 201.76 93.90 201.05 C 97.69 205.60 102.38 207.75 107.97 209.30 C 108.68 209.64 109.38 209.98 110.09 210.32 C 115.82 213.01 121.22 216.32 127.12 218.49 C 128.26 220.03 129.24 221.67 130.18 223.33 C 125.99 223.06 121.82 222.80 117.62 223.03 C 119.80 224.49 121.78 225.93 124.36 226.64 C 128.63 227.82 133.34 227.43 137.72 227.65 C 141.41 227.83 144.77 229.03 148.35 229.86 C 152.53 230.10 156.27 229.84 159.19 226.49 C 159.78 225.76 160.37 225.02 160.95 224.28 C 158.67 222.19 156.47 219.86 153.91 218.11 C 152.01 216.74 149.61 217.00 147.39 217.08 C 147.68 215.55 147.97 214.02 148.28 212.50 C 145.11 210.71 141.87 209.18 138.39 208.08 C 138.44 207.52 138.48 206.97 138.53 206.41 C 139.28 206.29 140.03 206.16 140.79 206.04 C 141.81 205.87 142.82 205.71 143.84 205.54 C 144.04 204.89 144.24 204.23 144.44 203.58 C 141.70 201.83 139.77 200.18 138.33 197.18 C 141.81 198.92 144.83 201.27 147.77 203.78 C 146.96 204.59 146.15 205.40 145.33 206.21 C 152.63 205.03 159.43 206.41 166.56 207.79 C 168.01 208.20 169.45 208.66 170.90 209.09 C 175.10 210.16 180.54 212.26 184.88 210.97 C 190.67 208.62 195.94 205.21 198.31 199.14 C 199.24 198.62 200.18 198.10 201.10 197.56 C 204.06 195.83 206.73 193.71 209.30 191.45 C 207.68 196.06 203.71 199.87 201.00 203.91 C 201.67 204.34 202.34 204.77 203.01 205.20 C 209.89 199.09 215.94 192.59 219.94 184.19 C 226.25 171.44 229.04 156.00 226.98 141.90 C 226.24 136.20 223.26 130.86 223.28 125.16 Z" fill="#212240" />
<path d="M 122.86 128.32 C 123.27 129.89 123.64 131.47 124.11 133.03 C 123.48 133.53 122.85 134.04 122.22 134.55 C 121.16 133.23 120.09 131.91 119.03 130.59 C 120.30 129.82 121.58 129.06 122.86 128.32 Z" fill="#aca0a3" />
<path d="M 59.34 128.82 C 60.40 130.18 61.42 131.58 62.52 132.90 C 63.48 133.65 64.46 134.36 65.47 135.05 C 64.93 135.71 64.39 136.37 63.86 137.04 C 61.58 134.42 59.08 132.67 59.34 128.82 Z" fill="#2e2d44" />
<path d="M 92.30 128.71 C 92.30 130.49 92.33 132.26 92.34 134.04 C 94.44 134.38 96.53 134.72 98.63 135.03 C 99.08 133.09 99.51 131.16 100.06 129.24 C 99.32 134.21 100.47 139.27 102.28 143.89 C 102.01 144.54 101.74 145.20 101.47 145.85 C 100.71 144.16 99.95 142.48 99.15 140.80 C 97.58 136.25 93.96 135.31 89.88 133.88 C 88.18 133.73 86.46 133.70 84.75 133.65 C 85.31 133.03 85.88 132.41 86.45 131.79 C 89.44 131.48 90.38 131.08 92.30 128.71 Z" fill="#878592" />
<path d="M 128.16 130.30 C 128.68 133.21 127.89 134.79 126.43 137.19 C 125.91 136.37 125.41 135.55 124.90 134.71 L 124.62 134.19 C 125.81 132.90 127.00 131.61 128.16 130.30 Z" fill="#e8d9da" />
<path d="M 177.19 132.25 C 180.80 132.27 184.50 133.16 187.99 134.00 C 183.48 136.32 181.45 136.48 176.61 135.00 C 176.77 134.07 176.97 133.16 177.19 132.25 Z" fill="#fcfcfb" />
<path d="M 105.39 133.82 C 107.18 135.90 109.21 138.16 110.32 140.69 C 111.23 142.98 111.42 145.68 111.90 148.10 C 112.35 149.80 112.97 151.45 113.65 153.07 C 111.49 152.00 109.26 150.96 107.26 149.63 C 104.17 148.05 104.46 143.46 103.71 140.45 C 104.31 139.90 104.90 139.35 105.50 138.80 C 105.45 137.14 105.40 135.48 105.39 133.82 Z" fill="#49485f" />
<path d="M 45.38 135.79 C 54.03 138.33 61.46 143.48 66.63 150.89 C 65.52 150.77 64.41 150.70 63.29 150.61 C 63.32 151.78 63.34 152.94 63.37 154.11 C 61.84 154.25 60.30 154.40 58.77 154.54 C 59.07 153.19 59.36 151.84 59.66 150.49 C 57.16 150.19 54.64 149.84 52.13 149.66 C 51.92 150.79 51.73 151.92 51.55 153.06 C 50.38 152.39 49.19 151.80 47.98 151.19 C 49.24 150.39 50.49 149.58 51.74 148.77 C 51.17 147.43 50.60 146.09 50.00 144.77 C 48.82 145.79 47.68 146.85 46.53 147.90 C 46.28 143.86 45.19 139.76 45.38 135.79 Z" fill="#3f2654" />
<path d="M 179.27 136.62 C 183.18 137.06 186.41 136.73 190.21 135.71 C 191.38 136.49 192.53 137.31 193.68 138.12 C 191.33 142.53 190.06 146.32 189.27 151.28 C 191.71 153.62 193.84 155.98 197.09 157.21 C 195.26 161.25 193.55 165.16 190.39 168.39 C 185.50 173.94 178.77 175.62 174.88 182.26 C 166.45 183.20 157.06 182.36 149.40 178.49 C 152.28 174.90 155.20 171.60 157.13 167.36 C 159.01 163.29 161.11 159.38 163.45 155.56 C 165.97 152.52 167.43 149.85 167.59 145.82 C 169.03 144.01 170.44 142.27 171.20 140.04 C 171.47 139.23 171.75 138.43 172.03 137.62 C 174.53 136.68 176.59 136.29 179.27 136.62 Z" fill="#f1f2ef" />
<path d="M 42.70 136.92 C 43.42 139.29 43.87 141.71 44.32 144.15 C 43.16 143.74 42.01 143.33 40.86 142.91 C 41.45 140.90 42.04 138.90 42.70 136.92 Z" fill="#584e6d" />
<path d="M 199.22 136.62 C 199.15 143.05 198.20 149.30 196.96 155.60 C 195.77 154.50 194.00 153.31 193.53 151.70 C 193.18 145.84 195.85 141.16 199.22 136.62 Z" fill="#fafafa" />
<path d="M 201.51 136.67 C 203.92 140.13 203.29 143.68 202.91 147.62 C 201.96 149.29 200.89 150.88 199.70 152.39 C 199.71 147.09 200.18 141.81 201.51 136.67 Z" fill="#f9f9f9" />
<path d="M 71.56 138.45 C 72.43 138.76 73.30 139.07 74.17 139.37 C 73.17 140.91 72.30 142.51 71.43 144.11 C 69.97 142.62 68.52 141.12 67.09 139.59 C 68.57 139.20 70.06 138.79 71.56 138.45 Z" fill="#8a8799" />
<path d="M 99.15 140.80 C 99.95 142.48 100.71 144.16 101.47 145.85 C 101.74 145.20 102.01 144.54 102.28 143.89 C 105.13 150.47 107.69 156.86 112.83 162.06 C 114.00 160.99 115.17 159.92 116.35 158.85 C 115.43 156.93 114.50 155.02 113.65 153.07 C 112.97 151.45 112.35 149.80 111.90 148.10 C 113.53 147.27 115.16 146.43 116.78 145.58 C 117.03 146.72 117.28 147.87 117.53 149.01 C 121.02 147.48 124.19 144.94 127.82 143.84 C 129.79 145.18 131.40 147.13 132.94 148.93 C 131.97 152.69 131.74 155.80 132.39 159.63 C 132.25 160.50 132.11 161.37 131.96 162.23 C 131.23 160.62 130.44 159.04 129.62 157.48 C 127.91 164.52 129.38 171.81 128.12 179.00 C 125.99 177.97 123.11 177.23 121.71 175.23 C 119.68 172.54 117.85 169.75 115.44 167.35 C 114.91 168.19 114.38 169.03 113.86 169.88 C 112.69 167.10 110.84 164.85 108.97 162.52 C 106.19 157.19 104.83 151.49 101.05 146.65 C 102.14 150.90 103.69 154.98 105.07 159.14 C 103.04 156.94 100.36 154.55 99.80 151.49 C 99.16 148.02 99.40 144.32 99.15 140.80 Z" fill="#56546b" />
<path d="M 193.06 142.38 C 194.86 142.38 193.69 146.18 192.19 145.38 C 191.41 144.48 191.95 142.75 193.06 142.38 Z" fill="#9493a2" />
<path d="M 158.01 144.15 C 161.25 144.46 164.42 145.13 167.59 145.82 C 167.43 149.85 165.97 152.52 163.45 155.56 C 158.98 158.25 156.49 162.40 152.80 165.92 L 153.26 164.20 C 154.56 160.82 156.00 157.82 156.26 154.14 C 156.52 150.72 156.71 147.39 158.01 144.15 Z" fill="#a09fa4" />
<path d="M 38.99 144.23 C 39.59 145.71 39.99 147.25 40.47 148.78 L 37.60 148.72 C 37.99 147.20 38.39 145.69 38.99 144.23 Z" fill="#64657d" />
<path d="M 50.00 144.77 C 50.60 146.09 51.17 147.43 51.74 148.77 C 50.49 149.58 49.24 150.39 47.98 151.19 C 48.21 154.45 48.46 157.70 48.63 160.95 C 46.90 156.66 46.52 152.48 46.53 147.90 C 47.68 146.85 48.82 145.79 50.00 144.77 Z" fill="#763e50" />
<path d="M 52.13 149.66 C 54.64 149.84 57.16 150.19 59.66 150.49 C 59.36 151.84 59.07 153.19 58.77 154.54 C 60.30 154.40 61.84 154.25 63.37 154.11 C 63.34 152.94 63.32 151.78 63.29 150.61 C 64.41 150.70 65.52 150.77 66.63 150.89 C 67.51 151.55 68.40 152.21 69.28 152.87 C 69.02 157.41 68.78 161.95 68.29 166.47 C 68.74 166.22 69.18 165.98 69.63 165.73 C 70.73 170.83 72.00 175.85 74.27 180.58 C 73.26 180.48 72.25 180.41 71.25 180.37 C 70.92 181.29 70.61 182.22 70.30 183.15 C 68.43 179.58 66.98 176.01 65.79 172.16 C 65.30 168.08 65.14 164.45 62.28 161.21 L 61.65 160.35 L 61.12 159.85 L 60.33 159.23 C 58.45 157.91 56.44 156.74 54.44 155.63 C 53.49 154.76 52.54 153.89 51.55 153.06 C 51.73 151.92 51.92 150.79 52.13 149.66 Z" fill="#4c4160" />
<path d="M 191.09 154.25 C 190.46 156.26 189.82 158.25 189.16 160.25 C 190.67 160.80 192.18 161.35 193.67 161.96 C 192.45 162.50 191.21 162.95 189.94 163.33 C 188.30 162.98 186.69 162.33 185.11 161.75 C 185.55 159.14 185.62 156.77 187.45 154.67 C 188.64 154.44 189.88 154.37 191.09 154.25 Z" fill="#1a1933" />
<path d="M 163.45 155.56 C 161.11 159.38 159.01 163.29 157.13 167.36 C 155.20 171.60 152.28 174.90 149.40 178.49 C 146.83 177.20 144.32 175.76 141.97 174.10 C 145.11 170.44 148.83 167.62 152.64 164.73 L 153.26 164.20 L 152.80 165.92 C 156.49 162.40 158.98 158.25 163.45 155.56 Z" fill="#625770" />
<path d="M 54.44 155.63 C 56.44 156.74 58.45 157.91 60.33 159.23 C 57.62 162.16 55.89 164.63 55.27 168.67 C 54.50 169.08 53.74 169.50 52.99 169.93 C 52.46 168.45 51.98 166.95 51.49 165.46 C 52.62 165.20 53.75 164.94 54.88 164.68 C 54.67 161.66 54.46 158.66 54.44 155.63 Z" fill="#665272" />
<path d="M 197.09 157.21 C 198.15 157.27 199.21 157.33 200.26 157.40 C 199.36 157.85 198.46 158.31 197.57 158.76 C 197.29 160.08 197.02 161.40 196.74 162.71 C 197.66 162.29 198.58 161.86 199.50 161.44 C 198.84 164.82 197.61 167.63 195.31 170.22 C 190.22 176.18 182.79 181.25 174.88 182.26 C 178.77 175.62 185.50 173.94 190.39 168.39 C 193.55 165.16 195.26 161.25 197.09 157.21 Z" fill="#a1a1a8" />
<path d="M 129.62 157.48 C 130.44 159.04 131.23 160.62 131.96 162.23 C 134.23 168.01 137.10 173.27 140.69 178.33 C 139.97 179.25 139.29 180.18 138.60 181.12 C 140.17 182.54 141.71 183.98 143.20 185.48 C 143.94 185.38 144.69 185.28 145.44 185.18 C 145.13 186.10 144.81 187.02 144.50 187.93 C 145.36 188.29 146.21 188.65 147.07 189.00 C 149.70 190.11 152.09 191.54 154.14 193.54 C 157.41 196.78 161.15 199.29 164.92 201.90 C 167.88 203.92 171.48 204.35 174.90 205.13 L 174.30 205.66 C 173.13 206.77 172.01 207.94 170.90 209.09 C 169.45 208.66 168.01 208.20 166.56 207.79 L 167.41 207.59 C 169.20 207.17 170.95 206.61 172.71 206.06 C 167.77 204.43 163.02 203.34 158.33 201.11 C 154.91 199.32 151.46 197.61 148.08 195.76 C 145.49 194.43 144.59 192.19 142.86 190.03 C 141.46 188.16 139.46 186.87 137.62 185.46 C 134.66 182.94 131.72 180.55 128.12 179.00 C 129.38 171.81 127.91 164.52 129.62 157.48 Z" fill="#706e7f" />
<path d="M 200.26 157.40 C 200.02 158.75 199.77 160.10 199.50 161.44 C 198.58 161.86 197.66 162.29 196.74 162.71 C 197.02 161.40 197.29 160.08 197.57 158.76 C 198.46 158.31 199.36 157.85 200.26 157.40 Z" fill="#dbdce5" />
<path d="M 61.12 159.85 L 61.65 160.35 L 62.28 161.21 C 61.73 162.56 61.15 163.91 60.61 165.27 L 60.08 166.74 C 58.45 167.31 56.84 167.93 55.27 168.67 C 55.89 164.63 57.62 162.16 60.33 159.23 L 61.12 159.85 Z" fill="#bb3c46" />
<path d="M 84.22 159.79 C 89.41 163.94 91.99 171.54 93.80 177.71 C 91.73 176.47 89.63 175.83 88.59 173.47 C 86.55 169.15 85.12 164.48 84.22 159.79 Z" fill="#3e3956" />
<path d="M 62.28 161.21 C 65.14 164.45 65.30 168.08 65.79 172.16 C 64.25 169.71 62.49 167.46 60.61 165.27 C 61.15 163.91 61.73 162.56 62.28 161.21 Z" fill="#6e667b" />
<path d="M 108.97 162.52 C 110.84 164.85 112.69 167.10 113.86 169.88 C 115.20 174.18 118.23 176.71 120.79 180.16 C 122.33 183.57 122.78 188.47 120.60 191.71 C 119.66 193.40 118.47 195.14 117.83 196.98 C 118.30 198.58 119.53 200.00 120.44 201.39 C 117.19 201.21 114.09 201.18 111.03 199.91 C 108.81 196.63 106.79 193.17 104.65 189.83 C 106.10 179.99 103.02 171.27 108.97 162.52 Z" fill="#1c183f" />
<path d="M 135.77 164.51 C 141.41 164.09 147.02 164.31 152.64 164.73 C 148.83 167.62 145.11 170.44 141.97 174.10 C 139.11 171.36 137.51 167.99 135.77 164.51 Z" fill="#412354" />
<path d="M 60.61 165.27 C 62.49 167.46 64.25 169.71 65.79 172.16 C 66.98 176.01 68.43 179.58 70.30 183.15 C 70.94 184.44 71.58 185.74 72.25 187.02 C 69.37 186.23 66.77 185.22 64.12 183.85 L 65.92 184.27 C 64.32 181.68 62.70 179.23 60.16 177.46 C 61.95 173.69 61.07 170.58 60.08 166.74 L 60.61 165.27 Z" fill="#99989d" />
<path d="M 60.08 166.74 C 61.07 170.58 61.95 173.69 60.16 177.46 C 57.01 175.45 54.24 173.66 52.99 169.93 C 53.74 169.50 54.50 169.08 55.27 168.67 C 56.84 167.93 58.45 167.31 60.08 166.74 Z" fill="#7f717f" />
<path d="M 115.44 167.35 C 117.85 169.75 119.68 172.54 121.71 175.23 C 123.11 177.23 125.99 177.97 128.12 179.00 C 131.72 180.55 134.66 182.94 137.62 185.46 C 138.33 188.23 138.92 191.05 139.53 193.85 C 137.53 193.71 135.53 193.56 133.52 193.43 C 135.45 197.93 137.75 202.18 140.79 206.04 C 140.03 206.16 139.28 206.29 138.53 206.41 C 138.48 206.97 138.44 207.52 138.39 208.08 C 141.87 209.18 145.11 210.71 148.28 212.50 C 147.97 214.02 147.68 215.55 147.39 217.08 C 142.88 214.52 139.04 213.21 133.90 212.49 C 130.49 212.13 128.35 210.09 125.55 208.40 C 123.86 207.30 121.54 207.36 119.59 207.15 C 121.39 208.88 123.24 210.55 125.12 212.19 C 124.66 212.72 124.21 213.26 123.75 213.79 C 120.37 212.77 117.00 211.71 113.65 210.60 C 114.08 208.46 114.65 206.42 115.51 204.41 C 113.05 203.80 109.91 201.96 107.56 203.48 C 105.31 201.20 102.60 199.37 100.16 197.29 C 100.93 199.05 101.67 200.83 102.34 202.64 L 102.54 204.49 C 101.61 204.11 100.67 203.73 99.74 203.34 C 98.74 199.24 97.67 195.16 96.62 191.07 C 97.30 192.31 97.98 193.55 98.66 194.79 C 98.90 194.51 99.13 194.22 99.36 193.94 C 102.72 197.09 106.78 198.44 111.03 199.91 C 114.09 201.18 117.19 201.21 120.44 201.39 C 119.53 200.00 118.30 198.58 117.83 196.98 C 118.47 195.14 119.66 193.40 120.60 191.71 C 122.78 188.47 122.33 183.57 120.79 180.16 C 118.23 176.71 115.20 174.18 113.86 169.88 C 114.38 169.03 114.91 168.19 115.44 167.35 Z" fill="#32214a" />
<path d="M 140.69 178.33 C 144.73 182.26 149.93 185.06 155.15 187.09 C 155.43 187.94 155.71 188.80 155.98 189.65 C 152.97 189.85 150.00 189.83 147.07 189.00 C 146.21 188.65 145.36 188.29 144.50 187.93 C 144.81 187.02 145.13 186.10 145.44 185.18 C 144.69 185.28 143.94 185.38 143.20 185.48 C 141.71 183.98 140.17 182.54 138.60 181.12 C 139.29 180.18 139.97 179.25 140.69 178.33 Z" fill="#cacacd" />
<path d="M 71.25 180.37 C 72.25 180.41 73.26 180.48 74.27 180.58 C 75.44 182.98 76.33 185.48 77.14 188.02 C 74.77 186.52 72.55 184.81 70.30 183.15 C 70.61 182.22 70.92 181.29 71.25 180.37 Z" fill="#9c9ca7" />
<path d="M 219.06 179.34 C 219.35 180.96 219.64 182.57 219.94 184.19 C 215.94 192.59 209.89 199.09 203.01 205.20 C 202.34 204.77 201.67 204.34 201.00 203.91 C 203.71 199.87 207.68 196.06 209.30 191.45 C 209.15 185.64 213.98 181.25 219.06 179.34 Z" fill="#8a8a92" />
<path d="M 52.49 186.24 C 54.18 188.00 56.11 189.53 57.77 191.33 C 59.22 192.68 59.02 195.15 57.32 196.22 C 54.63 198.36 51.75 200.46 48.75 202.15 C 44.25 202.56 38.58 201.65 34.23 203.24 C 31.89 204.63 29.88 206.57 27.64 208.12 C 28.05 209.50 28.45 210.88 28.86 212.26 C 27.50 210.32 26.34 208.27 25.20 206.20 C 24.67 207.20 24.14 208.20 23.62 209.20 C 24.71 210.92 25.88 212.58 26.99 214.29 C 25.93 213.91 24.87 213.53 23.82 213.13 C 23.44 210.30 23.18 207.49 23.11 204.63 C 26.42 200.12 29.86 196.13 35.37 194.34 C 41.13 192.66 47.22 191.91 53.14 190.99 C 54.82 189.80 52.87 187.74 52.49 186.24 Z" fill="#20213f" />
<path d="M 137.62 185.46 C 139.46 186.87 141.46 188.16 142.86 190.03 C 144.59 192.19 145.49 194.43 148.08 195.76 C 151.46 197.61 154.91 199.32 158.33 201.11 C 157.59 202.05 156.86 202.98 156.13 203.91 C 159.93 205.02 163.65 206.35 167.41 207.59 L 166.56 207.79 C 159.43 206.41 152.63 205.03 145.33 206.21 C 146.15 205.40 146.96 204.59 147.77 203.78 C 144.83 201.27 141.81 198.92 138.33 197.18 C 139.77 200.18 141.70 201.83 144.44 203.58 C 144.24 204.23 144.04 204.89 143.84 205.54 C 142.82 205.71 141.81 205.87 140.79 206.04 C 137.75 202.18 135.45 197.93 133.52 193.43 C 135.53 193.56 137.53 193.71 139.53 193.85 C 138.92 191.05 138.33 188.23 137.62 185.46 Z" fill="#4d4963" />
<path d="M 178.18 185.78 C 177.01 187.30 175.81 189.15 174.19 190.22 C 172.76 190.97 171.02 191.27 169.45 191.63 C 172.15 188.78 174.51 187.16 178.18 185.78 Z" fill="#c8c9c8" />
<path d="M 67.45 188.86 C 69.27 193.46 71.61 197.09 71.86 201.99 C 71.99 203.86 72.77 206.21 72.00 207.98 C 68.15 209.29 64.11 209.26 60.55 211.52 C 57.99 213.19 55.74 215.43 53.53 217.54 C 52.19 218.92 50.54 220.34 50.05 222.25 C 49.14 224.44 50.36 226.11 50.93 228.22 L 50.32 228.04 C 49.02 226.84 48.44 224.77 47.69 223.20 C 45.64 223.74 43.60 224.25 41.54 224.74 C 41.41 226.87 41.34 229.01 41.33 231.15 C 43.19 231.79 45.06 232.43 46.93 233.08 C 45.25 232.87 43.51 232.76 41.87 232.31 C 41.02 231.12 40.33 229.76 39.63 228.47 C 41.58 224.30 42.71 220.29 45.75 216.76 C 47.63 214.55 48.95 211.97 50.72 209.69 C 53.62 206.30 57.92 204.72 61.80 202.75 C 63.43 201.89 65.50 201.12 66.44 199.44 C 68.47 196.64 67.20 192.19 67.45 188.86 Z" fill="#21203d" />
<path d="M 104.65 189.83 C 106.79 193.17 108.81 196.63 111.03 199.91 C 106.78 198.44 102.72 197.09 99.36 193.94 L 100.26 192.80 C 101.47 193.37 102.68 193.95 103.90 194.51 C 104.16 192.96 104.42 191.40 104.65 189.83 Z" fill="#3e3e5b" />
<path d="M 191.25 194.87 C 194.57 195.65 197.74 196.93 201.10 197.56 C 200.18 198.10 199.24 198.62 198.31 199.14 C 193.78 201.48 189.35 205.14 184.47 206.52 C 181.04 207.49 177.64 206.50 174.30 205.66 L 174.90 205.13 C 177.84 203.14 181.26 202.25 184.24 200.38 C 186.75 198.82 188.68 196.27 191.25 194.87 Z" fill="#7f7a88" />
<path d="M 100.16 197.29 C 102.60 199.37 105.31 201.20 107.56 203.48 C 109.33 205.68 111.03 207.92 112.55 210.30 L 110.09 210.32 C 109.38 209.98 108.68 209.64 107.97 209.30 C 106.11 207.07 104.20 204.87 102.34 202.64 C 101.67 200.83 100.93 199.05 100.16 197.29 Z" fill="#c6c6cf" />
<path d="M 198.31 199.14 C 195.94 205.21 190.67 208.62 184.88 210.97 C 180.54 212.26 175.10 210.16 170.90 209.09 C 172.01 207.94 173.13 206.77 174.30 205.66 C 177.64 206.50 181.04 207.49 184.47 206.52 C 189.35 205.14 193.78 201.48 198.31 199.14 Z" fill="#35324d" />
<path d="M 90.54 201.28 C 91.72 200.40 93.60 202.08 92.74 203.32 C 91.60 204.18 89.67 202.49 90.54 201.28 Z" fill="#636781" />
<path d="M 93.90 201.05 C 95.87 201.76 97.81 202.54 99.74 203.34 C 100.67 203.73 101.61 204.11 102.54 204.49 L 102.34 202.64 C 104.20 204.87 106.11 207.07 107.97 209.30 C 102.38 207.75 97.69 205.60 93.90 201.05 Z" fill="#727385" />
<path d="M 172.71 206.06 C 170.95 206.61 169.20 207.17 167.41 207.59 C 163.65 206.35 159.93 205.02 156.13 203.91 C 156.86 202.98 157.59 202.05 158.33 201.11 C 163.02 203.34 167.77 204.43 172.71 206.06 Z" fill="#362e4a" />
<path d="M 115.51 204.41 C 114.65 206.42 114.08 208.46 113.65 210.60 C 117.00 211.71 120.37 212.77 123.75 213.79 C 124.21 213.26 124.66 212.72 125.12 212.19 C 123.24 210.55 121.39 208.88 119.59 207.15 C 121.54 207.36 123.86 207.30 125.55 208.40 C 128.35 210.09 130.49 212.13 133.90 212.49 C 139.04 213.21 142.88 214.52 147.39 217.08 C 144.83 218.21 142.75 219.65 139.84 219.56 C 135.59 219.41 131.36 218.81 127.12 218.49 C 121.22 216.32 115.82 213.01 110.09 210.32 L 112.55 210.30 C 111.03 207.92 109.33 205.68 107.56 203.48 C 109.91 201.96 113.05 203.80 115.51 204.41 Z" fill="#515067" />
<path d="M 84.44 213.45 C 85.64 212.38 88.25 214.28 87.40 215.72 C 86.22 216.76 83.51 214.91 84.44 213.45 Z" fill="#c1c2c7" />
<path d="M 147.39 217.08 C 149.61 217.00 152.01 216.74 153.91 218.11 C 156.47 219.86 158.67 222.19 160.95 224.28 C 160.37 225.02 159.78 225.76 159.19 226.49 C 153.71 225.22 148.73 223.31 143.00 223.56 C 144.80 225.09 146.63 226.58 148.48 228.06 C 148.44 228.66 148.39 229.26 148.35 229.86 C 144.77 229.03 141.41 227.83 137.72 227.65 C 133.34 227.43 128.63 227.82 124.36 226.64 C 121.78 225.93 119.80 224.49 117.62 223.03 C 121.82 222.80 125.99 223.06 130.18 223.33 C 129.24 221.67 128.26 220.03 127.12 218.49 C 131.36 218.81 135.59 219.41 139.84 219.56 C 142.75 219.65 144.83 218.21 147.39 217.08 Z" fill="#343651" />
<path d="M 159.19 226.49 C 156.27 229.84 152.53 230.10 148.35 229.86 C 148.39 229.26 148.44 228.66 148.48 228.06 C 146.63 226.58 144.80 225.09 143.00 223.56 C 148.73 223.31 153.71 225.22 159.19 226.49 Z" fill="#4b4e68" />
</svg>