<?xml version="1.0" encoding="UTF-8" standalone="no"?>
<!DOCTYPE svg PUBLIC "-//W3C//DTD SVG 1.1//EN" "http://www.w3.org/Graphics/SVG/1.1/DTD/svg11.dtd">
<svg xmlns="http://www.w3.org/2000/svg" version="1.1" viewBox="0 0 256 256" width="256.0pt" height="256.0pt">
<path d="M 0.00 0.00 L 256.00 0.00 L 256.00 256.00 L 0.00 256.00 L 0.00 0.00 Z" fill="#fefefe" />
<path d="M 138.33 29.08 C 138.53 29.82 138.73 30.57 138.93 31.31 C 137.19 31.96 135.48 32.67 133.73 33.29 L 132.54 33.35 C 129.89 33.38 127.66 34.20 125.38 35.47 C 118.99 38.41 113.61 41.92 106.35 41.74 C 103.54 41.57 101.60 41.90 99.00 42.96 C 93.95 44.41 89.53 46.03 84.30 44.32 C 83.45 44.96 82.60 45.60 81.75 46.24 C 80.06 47.11 78.14 47.58 76.55 48.59 C 74.86 50.26 73.77 52.55 72.32 54.44 C 70.66 52.81 69.05 51.14 67.37 49.55 C 66.89 49.67 66.40 49.79 65.93 49.93 C 64.84 50.24 63.75 50.56 62.67 50.88 C 63.26 49.30 63.22 47.71 64.81 46.80 C 69.77 43.51 76.09 41.71 81.74 39.92 C 91.47 36.80 101.02 33.54 111.18 32.11 C 120.34 30.25 128.99 29.28 138.33 29.08 Z" fill="#f5f5f2" />
<path d="M 138.93 31.31 C 140.74 31.65 142.44 32.28 144.21 32.77 C 142.11 33.45 139.85 34.47 137.63 34.57 C 136.31 34.32 135.00 33.74 133.73 33.29 C 135.48 32.67 137.19 31.96 138.93 31.31 Z" fill="#6d5f45" />
<path d="M 150.16 33.54 C 151.54 35.94 152.62 40.72 155.69 41.30 L 155.93 42.22 C 155.15 44.15 154.18 45.99 153.14 47.79 C 152.28 46.36 151.47 44.83 150.39 43.55 C 145.19 41.30 138.99 40.64 134.17 44.19 C 129.36 47.85 124.68 51.92 120.95 56.70 C 120.27 55.75 119.60 54.78 118.95 53.81 C 117.93 55.29 116.94 56.79 115.92 58.26 C 114.80 58.19 113.64 58.02 112.52 58.12 C 110.41 59.00 108.62 60.81 106.78 62.15 C 104.16 56.60 103.48 51.23 97.81 47.84 C 98.42 53.60 100.04 59.93 105.03 63.45 C 102.35 65.27 99.60 66.99 96.86 68.71 C 92.83 66.19 91.65 62.26 90.24 58.01 C 89.36 55.20 89.24 52.33 89.36 49.42 C 95.31 47.70 100.58 44.03 106.35 41.74 C 113.61 41.92 118.99 38.41 125.38 35.47 C 127.25 35.54 129.30 35.91 131.15 35.53 C 131.64 34.83 132.11 34.10 132.54 33.35 L 133.73 33.29 C 135.00 33.74 136.31 34.32 137.63 34.57 C 139.85 34.47 142.11 33.45 144.21 32.77 C 146.21 32.91 148.20 33.16 150.16 33.54 Z" fill="#c19c3c" />
<path d="M 132.54 33.35 C 132.11 34.10 131.64 34.83 131.15 35.53 C 129.30 35.91 127.25 35.54 125.38 35.47 C 127.66 34.20 129.89 33.38 132.54 33.35 Z" fill="#514c48" />
<path d="M 191.57 33.31 C 192.43 35.37 193.28 37.39 193.93 39.53 C 192.56 39.16 191.20 38.75 189.82 38.42 C 190.44 36.73 191.01 35.02 191.57 33.31 Z" fill="#515164" />
<path d="M 150.16 33.54 C 153.79 35.06 154.55 37.85 155.69 41.30 C 152.62 40.72 151.54 35.94 150.16 33.54 Z" fill="#826a3a" />
<path d="M 198.42 35.09 C 200.74 35.91 201.92 35.96 204.32 35.44 C 208.80 34.70 212.13 35.50 215.38 38.71 C 213.83 38.40 212.28 38.03 210.75 37.64 C 209.96 39.76 209.10 41.82 208.12 43.86 C 210.46 46.12 212.25 48.36 213.94 51.13 C 213.37 52.46 212.73 53.77 212.27 55.14 C 213.08 57.58 214.54 59.99 216.48 61.68 C 218.18 62.38 220.00 62.80 221.74 63.37 C 220.81 64.81 220.26 66.36 219.74 67.98 C 217.28 65.18 214.32 62.82 211.18 60.82 C 207.53 58.41 203.08 57.52 198.87 56.14 C 196.85 55.45 194.78 55.37 192.69 55.13 L 191.66 54.09 C 192.10 52.69 192.55 51.27 192.95 49.86 C 194.35 50.30 195.76 50.68 197.18 51.00 C 197.27 52.25 197.38 53.49 197.49 54.73 C 198.58 54.97 199.67 55.20 200.76 55.40 C 203.10 55.85 205.46 56.15 207.83 56.39 C 207.39 54.23 207.02 51.62 205.75 49.78 C 204.30 47.99 202.30 46.60 200.48 45.22 C 201.41 42.63 202.19 40.00 202.81 37.32 C 201.60 38.29 200.29 39.30 199.28 40.48 C 198.57 41.69 199.35 43.49 199.76 44.70 C 199.17 45.10 198.58 45.51 198.01 45.93 C 197.40 46.44 196.79 46.96 196.19 47.48 C 195.62 45.69 195.07 43.89 194.60 42.08 C 195.80 39.66 196.82 37.28 198.42 35.09 Z" fill="#21223d" />
<path d="M 189.82 38.42 C 191.20 38.75 192.56 39.16 193.93 39.53 C 194.16 40.38 194.38 41.23 194.60 42.08 C 195.07 43.89 195.62 45.69 196.19 47.48 C 196.79 46.96 197.40 46.44 198.01 45.93 C 197.71 47.01 198.11 47.96 199.19 48.77 C 198.07 49.42 197.97 50.26 198.86 51.31 L 197.18 51.00 C 195.76 50.68 194.35 50.30 192.95 49.86 L 192.59 48.74 C 190.54 48.63 187.84 49.42 186.56 47.33 C 185.58 45.29 185.72 42.64 185.24 40.42 C 186.54 39.20 188.11 38.76 189.82 38.42 Z" fill="#717183" />
<path d="M 202.81 37.32 C 202.19 40.00 201.41 42.63 200.48 45.22 L 199.76 44.70 C 199.35 43.49 198.57 41.69 199.28 40.48 C 200.29 39.30 201.60 38.29 202.81 37.32 Z" fill="#d4d4d9" />
<path d="M 197.07 39.59 C 198.77 39.18 198.51 42.08 196.91 41.65 C 196.23 40.98 196.28 40.29 197.07 39.59 Z" fill="#b1b1bc" />
<path d="M 106.35 41.74 C 100.58 44.03 95.31 47.70 89.36 49.42 C 86.65 50.07 84.07 50.89 81.70 52.41 C 80.25 53.83 79.02 55.41 77.84 57.05 C 77.47 56.48 77.08 55.91 76.68 55.35 C 73.54 57.80 70.70 60.67 68.12 63.70 C 65.34 67.09 62.82 70.29 63.57 74.99 C 63.55 77.48 66.08 78.06 67.77 79.34 C 71.13 81.27 74.05 83.82 77.34 85.85 C 79.21 86.50 81.13 87.01 83.02 87.57 C 78.24 89.61 75.54 89.33 70.73 87.67 C 71.38 86.57 71.97 85.45 72.56 84.32 C 70.84 83.31 69.04 82.10 67.13 81.49 C 64.18 83.23 63.07 87.59 60.65 89.99 C 58.70 90.21 56.39 89.66 54.66 90.60 C 52.46 91.63 50.36 92.86 48.17 93.92 C 47.51 92.62 46.87 91.30 46.30 89.96 C 45.78 88.02 45.30 86.06 44.79 84.12 C 43.82 80.51 42.41 77.07 41.37 73.48 C 42.41 74.27 43.43 75.08 44.44 75.89 C 43.11 72.21 41.55 68.95 39.53 65.60 C 42.60 65.97 45.62 66.55 48.71 66.73 C 49.71 70.79 50.49 74.85 50.87 79.02 C 51.21 81.86 52.01 84.57 52.99 87.25 C 57.88 84.83 59.31 80.56 61.87 76.18 C 61.11 72.97 60.48 69.73 59.79 66.50 C 58.77 67.04 57.76 67.62 56.75 68.19 C 56.18 66.86 55.63 65.53 55.09 64.19 C 54.37 65.47 53.64 66.75 52.88 68.01 C 52.17 66.29 50.67 64.13 51.52 62.24 C 53.72 57.06 57.49 53.18 62.67 50.88 C 63.75 50.56 64.84 50.24 65.93 49.93 C 66.81 53.53 66.93 57.16 67.04 60.85 C 68.86 58.75 70.66 56.67 72.32 54.44 C 73.77 52.55 74.86 50.26 76.55 48.59 C 78.14 47.58 80.06 47.11 81.75 46.24 C 87.59 48.78 93.51 44.75 99.00 42.96 C 101.60 41.90 103.54 41.57 106.35 41.74 Z" fill="#1f223d" />
<path d="M 185.24 40.42 C 185.72 42.64 185.58 45.29 186.56 47.33 C 187.84 49.42 190.54 48.63 192.59 48.74 L 192.95 49.86 C 192.55 51.27 192.10 52.69 191.66 54.09 C 190.77 53.20 189.89 52.16 188.81 51.48 C 187.34 51.06 185.47 51.38 184.13 50.69 C 182.84 49.32 181.88 47.60 180.85 46.03 C 182.30 44.15 183.73 42.25 185.24 40.42 Z" fill="#afafb8" />
<path d="M 150.39 43.55 C 151.47 44.83 152.28 46.36 153.14 47.79 C 154.18 45.99 155.15 44.15 155.93 42.22 C 156.83 47.03 154.45 51.88 155.17 56.84 C 155.83 63.53 160.24 67.81 164.76 72.25 C 168.10 75.36 171.56 77.97 176.37 77.67 C 183.45 77.23 189.93 74.78 197.17 75.37 C 205.18 75.38 212.71 78.11 220.69 77.92 C 220.93 76.89 221.16 75.86 221.40 74.84 C 221.56 78.33 222.26 80.54 224.33 83.34 C 224.66 80.47 224.92 77.58 225.22 74.71 C 226.35 76.57 227.45 78.46 228.36 80.45 C 227.63 86.00 228.99 91.31 228.78 96.85 C 228.58 105.78 227.71 114.67 227.54 123.60 C 227.40 130.44 226.14 137.36 225.05 144.10 C 223.91 150.48 222.17 158.44 224.35 164.73 C 227.59 172.72 235.48 178.17 239.67 184.35 C 244.12 191.60 244.34 201.79 243.90 210.01 C 243.23 216.47 242.55 224.90 237.76 229.76 C 232.38 235.06 224.66 237.85 217.13 236.52 C 213.41 235.77 209.19 234.73 208.64 230.30 C 215.06 229.60 221.40 229.69 227.71 228.16 L 229.21 229.00 C 229.99 226.81 230.73 224.62 231.19 222.35 C 232.92 213.49 235.14 204.09 236.13 194.86 C 236.46 192.50 235.46 190.65 234.44 188.61 C 232.03 183.67 227.61 183.41 223.41 180.55 C 220.04 178.25 216.22 175.35 214.46 171.58 C 213.22 169.04 211.29 165.92 211.41 163.03 C 211.98 159.18 214.29 156.07 214.62 152.06 C 214.91 149.71 215.31 147.41 216.28 145.23 C 217.07 143.31 218.28 141.28 218.54 139.20 C 218.10 138.28 217.60 137.39 217.04 136.52 L 217.24 135.92 C 217.58 133.69 217.76 131.38 218.02 129.14 L 218.26 128.48 C 220.67 120.69 220.26 111.44 217.91 103.67 C 217.69 103.05 217.47 102.43 217.24 101.81 C 219.17 99.33 221.22 96.95 223.12 94.45 C 217.98 94.90 213.22 94.27 209.15 90.84 C 206.09 87.36 202.96 83.93 199.85 80.49 C 197.87 81.22 195.95 82.09 193.96 82.83 C 192.15 83.41 190.32 83.95 188.45 84.36 C 188.00 84.46 187.54 84.57 187.09 84.67 C 186.48 85.90 185.91 87.24 185.06 88.31 C 183.05 88.46 180.83 87.66 178.84 87.44 C 175.73 87.50 173.28 88.23 171.24 90.67 C 168.02 91.88 164.83 92.76 162.06 94.92 C 160.65 90.15 159.23 85.52 156.48 81.30 L 156.01 80.49 C 156.28 76.53 157.49 71.20 155.54 67.57 C 154.64 65.63 152.96 65.15 151.15 64.31 C 149.34 64.77 147.63 65.44 145.86 66.03 C 145.35 63.88 144.76 61.78 144.07 59.68 C 142.59 60.44 141.17 61.30 139.70 62.08 C 138.55 60.43 137.39 58.72 136.07 57.21 C 135.06 57.69 134.05 58.20 133.05 58.71 C 130.69 59.98 128.59 60.62 125.93 60.93 C 127.17 58.44 129.01 56.60 130.99 54.70 C 127.88 55.63 124.91 56.95 121.80 57.86 L 120.95 56.70 C 124.68 51.92 129.36 47.85 134.17 44.19 C 138.99 40.64 145.19 41.30 150.39 43.55 Z" fill="#f4f4f2" />
<path d="M 99.00 42.96 C 93.51 44.75 87.59 48.78 81.75 46.24 C 82.60 45.60 83.45 44.96 84.30 44.32 C 89.53 46.03 93.95 44.41 99.00 42.96 Z" fill="#a7a5ac" />
<path d="M 199.76 44.70 L 200.48 45.22 C 202.30 46.60 204.30 47.99 205.75 49.78 C 207.02 51.62 207.39 54.23 207.83 56.39 C 205.46 56.15 203.10 55.85 200.76 55.40 C 202.27 55.27 203.78 55.11 205.29 54.90 C 203.55 53.52 201.75 52.28 199.68 51.46 C 200.38 50.85 200.75 50.05 200.80 49.06 C 201.27 47.10 200.11 45.46 198.01 45.93 C 198.58 45.51 199.17 45.10 199.76 44.70 Z" fill="#9495a3" />
<path d="M 198.01 45.93 C 200.11 45.46 201.27 47.10 200.80 49.06 L 199.19 48.77 C 198.11 47.96 197.71 47.01 198.01 45.93 Z" fill="#d7d7dc" />
<path d="M 97.81 47.84 C 103.48 51.23 104.16 56.60 106.78 62.15 C 106.20 62.59 105.62 63.03 105.03 63.45 C 100.04 59.93 98.42 53.60 97.81 47.84 Z" fill="#ab8b37" />
<path d="M 67.37 49.55 C 69.05 51.14 70.66 52.81 72.32 54.44 C 70.66 56.67 68.86 58.75 67.04 60.85 C 66.93 57.16 66.81 53.53 65.93 49.93 C 66.40 49.79 66.89 49.67 67.37 49.55 Z" fill="#9c8156" />
<path d="M 89.36 49.42 C 89.24 52.33 89.36 55.20 90.24 58.01 C 91.65 62.26 92.83 66.19 96.86 68.71 C 95.28 69.63 93.63 70.40 92.04 71.31 C 87.68 65.50 84.54 59.06 81.70 52.41 C 84.07 50.89 86.65 50.07 89.36 49.42 Z" fill="#91742b" />
<path d="M 199.19 48.77 L 200.80 49.06 C 200.75 50.05 200.38 50.85 199.68 51.46 L 198.86 51.31 C 197.97 50.26 198.07 49.42 199.19 48.77 Z" fill="#2e2d44" />
<path d="M 197.18 51.00 L 198.86 51.31 L 199.68 51.46 C 201.75 52.28 203.55 53.52 205.29 54.90 C 203.78 55.11 202.27 55.27 200.76 55.40 C 199.67 55.20 198.58 54.97 197.49 54.73 C 197.38 53.49 197.27 52.25 197.18 51.00 Z" fill="#e6e6e8" />
<path d="M 81.70 52.41 C 84.54 59.06 87.68 65.50 92.04 71.31 C 88.01 75.45 84.77 80.11 81.86 85.08 C 81.24 86.58 78.60 85.91 77.34 85.85 C 74.05 83.82 71.13 81.27 67.77 79.34 C 66.08 78.06 63.55 77.48 63.57 74.99 C 62.82 70.29 65.34 67.09 68.12 63.70 C 71.60 68.27 72.27 73.43 76.67 77.36 C 78.44 79.31 80.66 79.85 83.12 80.46 C 82.04 74.44 78.85 69.69 75.60 64.67 C 76.58 65.06 77.55 65.45 78.53 65.84 C 78.55 62.89 78.45 59.95 77.84 57.05 C 79.02 55.41 80.25 53.83 81.70 52.41 Z" fill="#c19c3c" />
<path d="M 118.95 53.81 C 119.60 54.78 120.27 55.75 120.95 56.70 L 121.80 57.86 C 124.91 56.95 127.88 55.63 130.99 54.70 C 129.01 56.60 127.17 58.44 125.93 60.93 C 128.59 60.62 130.69 59.98 133.05 58.71 C 133.75 59.84 134.44 60.98 135.14 62.12 C 134.58 63.43 133.98 64.72 133.36 66.00 C 132.93 66.63 132.49 67.26 132.05 67.88 C 131.41 67.62 130.77 67.37 130.12 67.14 C 129.38 65.80 128.65 64.47 127.85 63.17 C 126.41 63.79 125.02 64.49 123.69 65.30 C 123.14 65.64 122.63 66.02 122.11 66.40 C 121.10 67.07 120.07 67.72 119.04 68.37 C 120.39 70.22 121.70 72.01 123.37 73.58 C 123.94 76.51 124.68 79.36 125.59 82.20 C 127.33 82.81 129.23 83.31 130.83 84.26 C 133.08 86.34 134.04 89.61 136.69 91.36 C 138.58 92.81 141.56 94.24 142.43 96.55 C 142.94 98.72 142.59 101.14 142.68 103.37 C 142.59 105.55 143.89 107.40 144.76 109.32 C 146.07 111.78 146.45 114.37 147.07 117.04 C 142.48 111.40 137.17 107.08 131.77 102.24 C 127.72 98.73 122.76 94.68 117.44 93.49 C 115.97 93.08 114.40 94.36 113.06 94.91 C 111.27 95.88 109.40 95.67 107.41 95.79 C 100.46 104.24 91.06 109.92 84.00 118.33 C 81.63 117.02 80.59 115.87 79.31 113.52 C 77.17 114.58 73.64 118.02 71.39 115.78 C 67.50 112.32 67.05 105.54 63.44 101.71 C 62.70 101.15 61.94 100.63 61.17 100.13 C 64.39 95.99 67.24 91.61 70.73 87.67 C 75.54 89.33 78.24 89.61 83.02 87.57 C 81.13 87.01 79.21 86.50 77.34 85.85 C 78.60 85.91 81.24 86.58 81.86 85.08 C 84.77 80.11 88.01 75.45 92.04 71.31 C 93.63 70.40 95.28 69.63 96.86 68.71 C 99.60 66.99 102.35 65.27 105.03 63.45 C 105.62 63.03 106.20 62.59 106.78 62.15 C 108.62 60.81 110.41 59.00 112.52 58.12 C 113.64 58.02 114.80 58.19 115.92 58.26 C 116.94 56.79 117.93 55.29 118.95 53.81 Z" fill="#49443a" />
<path d="M 76.68 55.35 C 77.08 55.91 77.47 56.48 77.84 57.05 C 78.45 59.95 78.55 62.89 78.53 65.84 C 77.55 65.45 76.58 65.06 75.60 64.67 C 78.85 69.69 82.04 74.44 83.12 80.46 C 80.66 79.85 78.44 79.31 76.67 77.36 C 72.27 73.43 71.60 68.27 68.12 63.70 C 70.70 60.67 73.54 57.80 76.68 55.35 Z" fill="#91752b" />
<path d="M 136.07 57.21 C 137.39 58.72 138.55 60.43 139.70 62.08 C 140.34 63.02 140.98 63.96 141.61 64.91 C 140.68 65.56 139.76 66.23 138.85 66.92 L 137.75 67.77 C 136.31 67.13 134.84 66.54 133.36 66.00 C 133.98 64.72 134.58 63.43 135.14 62.12 C 134.44 60.98 133.75 59.84 133.05 58.71 C 134.05 58.20 135.06 57.69 136.07 57.21 Z" fill="#6f6b6f" />
<path d="M 144.07 59.68 C 144.76 61.78 145.35 63.88 145.86 66.03 C 147.63 65.44 149.34 64.77 151.15 64.31 C 151.34 69.37 152.28 74.01 154.86 78.42 C 153.44 78.11 152.02 77.80 150.60 77.49 C 148.31 72.05 143.46 70.85 138.85 66.92 C 139.76 66.23 140.68 65.56 141.61 64.91 C 140.98 63.96 140.34 63.02 139.70 62.08 C 141.17 61.30 142.59 60.44 144.07 59.68 Z" fill="#33334b" />
<path d="M 127.85 63.17 C 128.65 64.47 129.38 65.80 130.12 67.14 C 127.99 66.47 125.85 65.83 123.69 65.30 C 125.02 64.49 126.41 63.79 127.85 63.17 Z" fill="#7a756d" />
<path d="M 221.74 63.37 C 222.54 63.64 223.32 63.94 224.10 64.26 C 223.04 64.81 221.98 65.36 220.92 65.92 C 222.08 69.14 223.38 72.08 225.68 74.66 C 226.25 73.74 226.82 72.83 227.40 71.91 C 228.51 74.78 228.68 77.41 228.36 80.45 C 227.45 78.46 226.35 76.57 225.22 74.71 C 224.92 77.58 224.66 80.47 224.33 83.34 C 222.26 80.54 221.56 78.33 221.40 74.84 C 221.60 72.07 221.78 70.14 219.74 67.98 C 220.26 66.36 220.81 64.81 221.74 63.37 Z" fill="#e0e0e2" />
<path d="M 123.69 65.30 C 125.85 65.83 127.99 66.47 130.12 67.14 C 130.77 67.37 131.41 67.62 132.05 67.88 C 133.34 69.63 134.46 71.46 135.70 73.24 C 136.70 74.77 137.71 76.30 138.60 77.89 C 138.95 80.13 139.22 82.35 139.71 84.57 C 140.80 87.58 143.03 90.36 144.80 93.02 C 144.77 93.62 144.73 94.21 144.70 94.80 C 146.79 96.73 147.34 98.63 147.85 101.36 C 146.87 101.54 145.89 101.73 144.91 101.92 C 146.48 105.65 147.98 109.39 149.06 113.28 C 149.38 114.43 149.68 115.58 149.98 116.74 C 151.11 117.53 152.24 118.31 153.37 119.10 C 154.25 123.65 155.26 126.55 158.91 129.60 C 160.43 127.71 161.91 125.80 163.34 123.84 L 163.84 124.27 C 164.29 127.14 164.70 130.02 165.16 132.88 C 163.41 134.57 161.90 136.45 160.39 138.34 C 158.80 140.14 156.93 141.70 155.09 143.24 C 154.20 142.43 153.31 141.62 152.41 140.81 C 152.90 139.95 153.39 139.10 153.89 138.26 C 154.73 136.36 157.16 134.12 155.99 132.01 C 153.81 126.70 150.03 121.95 147.07 117.04 C 146.45 114.37 146.07 111.78 144.76 109.32 C 143.89 107.40 142.59 105.55 142.68 103.37 C 142.59 101.14 142.94 98.72 142.43 96.55 C 141.56 94.24 138.58 92.81 136.69 91.36 C 134.04 89.61 133.08 86.34 130.83 84.26 C 129.23 83.31 127.33 82.81 125.59 82.20 C 124.68 79.36 123.94 76.51 123.37 73.58 C 126.19 75.27 129.02 76.94 131.84 78.63 C 130.27 73.08 126.42 69.87 122.11 66.40 C 122.63 66.02 123.14 65.64 123.69 65.30 Z" fill="#5b564c" />
<path d="M 151.15 64.31 C 152.96 65.15 154.64 65.63 155.54 67.57 C 157.49 71.20 156.28 76.53 156.01 80.49 C 155.62 79.80 155.24 79.11 154.86 78.42 C 152.28 74.01 151.34 69.37 151.15 64.31 Z" fill="#c3c0c2" />
<path d="M 224.10 64.26 C 225.59 66.65 226.46 69.27 227.40 71.91 C 226.82 72.83 226.25 73.74 225.68 74.66 C 223.38 72.08 222.08 69.14 220.92 65.92 C 221.98 65.36 223.04 64.81 224.10 64.26 Z" fill="#5d5e70" />
<path d="M 59.79 66.50 C 60.48 69.73 61.11 72.97 61.87 76.18 C 59.06 75.06 56.64 74.53 53.63 75.37 C 52.97 75.52 52.30 75.66 51.65 75.81 C 51.23 74.56 50.82 73.32 50.42 72.07 C 52.50 70.73 54.61 69.44 56.75 68.19 C 57.76 67.62 58.77 67.04 59.79 66.50 Z" fill="#5d5e70" />
<path d="M 133.36 66.00 C 134.84 66.54 136.31 67.13 137.75 67.77 C 140.13 70.64 142.06 73.63 143.24 77.19 C 140.53 76.22 138.00 75.00 135.70 73.24 C 134.46 71.46 133.34 69.63 132.05 67.88 C 132.49 67.26 132.93 66.63 133.36 66.00 Z" fill="#1c1e37" />
<path d="M 34.64 66.83 C 35.97 66.87 37.29 67.01 38.58 67.25 C 39.76 68.47 40.60 70.09 41.41 71.57 C 39.16 69.96 36.99 68.29 34.64 66.83 Z" fill="#343348" />
<path d="M 122.11 66.40 C 126.42 69.87 130.27 73.08 131.84 78.63 C 129.02 76.94 126.19 75.27 123.37 73.58 C 121.70 72.01 120.39 70.22 119.04 68.37 C 120.07 67.72 121.10 67.07 122.11 66.40 Z" fill="#1e2039" />
<path d="M 138.85 66.92 C 143.46 70.85 148.31 72.05 150.60 77.49 C 152.02 77.80 153.44 78.11 154.86 78.42 C 155.24 79.11 155.62 79.80 156.01 80.49 L 156.48 81.30 C 155.87 82.44 155.10 83.16 155.48 84.55 C 155.97 87.43 157.06 90.33 157.84 93.17 C 157.95 94.02 158.06 94.86 158.16 95.71 C 156.63 94.48 155.12 93.22 153.61 91.96 C 153.60 94.22 153.60 96.47 153.61 98.73 C 152.53 98.36 151.44 97.99 150.36 97.62 C 151.28 92.52 151.54 87.72 148.75 83.12 C 146.44 79.97 142.20 78.80 138.60 77.89 C 137.71 76.30 136.70 74.77 135.70 73.24 C 138.00 75.00 140.53 76.22 143.24 77.19 C 142.06 73.63 140.13 70.64 137.75 67.77 L 138.85 66.92 Z" fill="#9c9991" />
<path d="M 61.87 76.18 C 59.31 80.56 57.88 84.83 52.99 87.25 C 52.01 84.57 51.21 81.86 50.87 79.02 C 52.33 79.60 53.77 80.19 55.21 80.81 C 55.14 80.01 55.07 79.22 55.00 78.42 C 55.63 78.33 56.26 78.25 56.89 78.17 C 55.79 77.25 54.70 76.32 53.63 75.37 C 56.64 74.53 59.06 75.06 61.87 76.18 Z" fill="#34354f" />
<path d="M 138.60 77.89 C 142.20 78.80 146.44 79.97 148.75 83.12 C 151.54 87.72 151.28 92.52 150.36 97.62 C 151.44 97.99 152.53 98.36 153.61 98.73 C 153.60 96.47 153.60 94.22 153.61 91.96 C 155.12 93.22 156.63 94.48 158.16 95.71 C 158.06 94.86 157.95 94.02 157.84 93.17 C 158.77 96.10 159.25 99.11 159.79 102.13 C 158.01 102.57 156.08 103.30 154.23 103.25 C 152.41 103.06 150.63 102.44 148.85 102.03 C 147.35 105.13 149.38 107.36 150.52 110.17 C 150.04 111.21 149.55 112.25 149.06 113.28 C 147.98 109.39 146.48 105.65 144.91 101.92 C 145.89 101.73 146.87 101.54 147.85 101.36 C 147.34 98.63 146.79 96.73 144.70 94.80 C 144.73 94.21 144.77 93.62 144.80 93.02 C 145.83 92.49 146.85 91.96 147.88 91.43 C 145.50 88.60 142.87 86.48 139.71 84.57 C 139.22 82.35 138.95 80.13 138.60 77.89 Z" fill="#78736b" />
<path d="M 199.85 80.49 C 202.96 83.93 206.09 87.36 209.15 90.84 C 208.18 90.21 207.19 89.62 206.19 89.05 L 206.06 90.73 L 205.97 91.80 C 204.61 90.89 202.89 90.18 201.77 88.98 C 200.84 86.86 200.96 84.26 198.77 82.92 C 197.27 82.47 195.51 82.70 193.96 82.83 C 195.95 82.09 197.87 81.22 199.85 80.49 Z" fill="#535160" />
<path d="M 67.13 81.49 C 69.04 82.10 70.84 83.31 72.56 84.32 C 71.97 85.45 71.38 86.57 70.73 87.67 C 67.24 91.61 64.39 95.99 61.17 100.13 C 56.61 99.14 52.23 99.45 47.61 99.59 C 47.79 97.70 47.98 95.81 48.17 93.92 C 50.36 92.86 52.46 91.63 54.66 90.60 C 56.39 89.66 58.70 90.21 60.65 89.99 C 63.07 87.59 64.18 83.23 67.13 81.49 Z" fill="#88696c" />
<path d="M 156.48 81.30 C 159.23 85.52 160.65 90.15 162.06 94.92 C 163.37 96.38 164.76 97.77 166.15 99.16 C 168.17 98.13 170.17 97.13 172.04 95.82 C 171.04 94.63 169.71 94.48 168.32 93.98 C 169.30 92.88 170.25 91.75 171.24 90.67 C 173.28 88.23 175.73 87.50 178.84 87.44 C 180.83 87.66 183.05 88.46 185.06 88.31 C 185.91 87.24 186.48 85.90 187.09 84.67 C 187.54 84.57 188.00 84.46 188.45 84.36 C 188.94 85.45 189.44 86.53 189.94 87.62 C 192.77 87.29 195.58 86.88 198.43 86.76 C 195.43 88.86 192.23 88.79 188.76 89.23 C 186.27 89.39 184.83 91.07 182.89 92.43 L 182.81 91.01 L 183.27 90.05 C 180.22 89.80 176.06 88.50 173.29 90.10 C 172.96 94.76 175.52 97.66 178.88 100.41 C 175.35 104.35 171.71 106.66 166.73 108.44 C 163.22 107.06 161.18 105.80 159.79 102.13 C 159.25 99.11 158.77 96.10 157.84 93.17 C 157.06 90.33 155.97 87.43 155.48 84.55 C 155.10 83.16 155.87 82.44 156.48 81.30 Z" fill="#373644" />
<path d="M 41.08 83.72 C 42.00 84.25 42.89 84.81 43.79 85.37 C 44.13 84.95 44.46 84.54 44.79 84.12 C 45.30 86.06 45.78 88.02 46.30 89.96 C 46.16 93.26 44.90 95.54 42.96 98.09 C 41.51 100.07 40.40 102.20 39.10 104.27 C 40.09 103.73 41.08 103.20 42.07 102.68 C 43.60 104.47 47.65 107.96 45.66 110.47 C 42.48 112.42 38.49 113.26 34.92 114.30 C 35.50 115.72 36.04 117.16 36.62 118.59 C 31.07 120.90 25.83 123.47 20.56 126.34 C 20.68 127.91 20.75 129.48 20.85 131.05 L 22.03 132.17 C 25.58 135.13 28.81 138.22 31.07 142.33 C 31.38 143.57 31.69 144.81 32.08 146.03 C 32.34 146.89 32.59 147.75 32.81 148.61 C 32.38 151.45 31.70 154.21 30.92 156.97 C 27.39 152.50 22.89 147.93 20.74 142.63 C 19.49 139.37 18.30 135.99 17.28 132.65 C 15.72 127.95 18.52 123.09 20.65 119.02 C 22.73 114.98 25.95 112.14 28.66 108.58 C 31.44 104.99 32.71 100.79 34.70 96.60 C 36.76 92.28 38.82 87.94 41.08 83.72 Z" fill="#f4f4f2" />
<path d="M 193.96 82.83 C 195.51 82.70 197.27 82.47 198.77 82.92 C 200.96 84.26 200.84 86.86 201.77 88.98 C 202.89 90.18 204.61 90.89 205.97 91.80 C 207.77 94.45 209.46 97.19 211.34 99.79 C 210.31 100.61 209.32 101.47 208.32 102.32 C 210.66 103.20 212.95 104.16 215.18 105.26 C 210.70 108.49 206.51 105.80 201.63 107.66 C 199.40 108.60 196.23 109.85 195.37 112.36 C 194.69 113.91 194.14 115.52 193.65 117.14 C 192.75 117.28 191.85 117.42 190.95 117.56 C 191.17 115.11 191.30 112.67 191.24 110.21 C 189.99 110.49 188.74 110.78 187.49 111.08 C 186.50 110.12 185.52 109.16 184.51 108.24 C 183.13 109.01 181.26 109.92 180.53 111.38 C 180.58 112.67 180.80 113.96 180.99 115.23 C 181.60 117.71 180.74 119.29 179.43 121.32 C 178.88 120.54 178.35 119.75 177.78 118.99 C 176.99 119.43 176.21 119.90 175.45 120.39 C 175.30 121.59 175.16 122.79 175.03 123.99 C 174.47 124.31 173.90 124.63 173.34 124.95 C 172.96 123.68 172.59 122.42 172.21 121.15 C 168.35 123.42 164.24 120.30 161.65 117.52 C 160.90 118.09 160.15 118.67 159.41 119.26 C 159.01 118.48 158.62 117.70 158.25 116.91 C 158.52 114.63 158.57 112.69 157.65 110.55 C 157.77 110.19 157.90 109.83 158.02 109.47 C 160.78 110.56 163.56 111.52 166.48 112.11 C 166.57 110.89 166.65 109.66 166.73 108.44 C 171.71 106.66 175.35 104.35 178.88 100.41 C 180.05 97.19 181.05 93.98 182.81 91.01 L 182.89 92.43 C 184.83 91.07 186.27 89.39 188.76 89.23 C 192.23 88.79 195.43 88.86 198.43 86.76 C 195.58 86.88 192.77 87.29 189.94 87.62 C 189.44 86.53 188.94 85.45 188.45 84.36 C 190.32 83.95 192.15 83.41 193.96 82.83 Z" fill="#b0ada5" />
<path d="M 139.71 84.57 C 142.87 86.48 145.50 88.60 147.88 91.43 C 146.85 91.96 145.83 92.49 144.80 93.02 C 143.03 90.36 140.80 87.58 139.71 84.57 Z" fill="#2b2936" />
<path d="M 91.33 88.18 C 90.59 89.88 89.97 91.94 88.72 93.36 C 86.69 93.14 84.55 92.43 82.50 92.49 C 79.51 93.58 77.20 96.87 75.02 99.10 C 75.73 100.69 76.40 102.30 77.09 103.90 C 75.16 103.60 73.18 103.71 71.71 102.24 C 70.19 100.99 69.82 98.79 71.40 97.43 C 76.44 92.38 84.59 89.95 91.33 88.18 Z" fill="#957e80" />
<path d="M 183.27 90.05 L 182.81 91.01 C 181.05 93.98 180.05 97.19 178.88 100.41 C 175.52 97.66 172.96 94.76 173.29 90.10 C 176.06 88.50 180.22 89.80 183.27 90.05 Z" fill="#23253f" />
<path d="M 206.19 89.05 C 207.19 89.62 208.18 90.21 209.15 90.84 C 213.22 94.27 217.98 94.90 223.12 94.45 C 221.22 96.95 219.17 99.33 217.24 101.81 C 215.74 101.36 214.26 100.88 212.79 100.33 C 211.22 96.53 209.32 93.33 206.06 90.73 L 206.19 89.05 Z" fill="#1d1e36" />
<path d="M 46.30 89.96 C 46.87 91.30 47.51 92.62 48.17 93.92 C 47.98 95.81 47.79 97.70 47.61 99.59 C 46.83 99.61 46.04 99.62 45.25 99.60 C 44.49 99.10 43.72 98.60 42.96 98.09 C 44.90 95.54 46.16 93.26 46.30 89.96 Z" fill="#cbc8cb" />
<path d="M 171.24 90.67 C 170.25 91.75 169.30 92.88 168.32 93.98 C 169.71 94.48 171.04 94.63 172.04 95.82 C 170.17 97.13 168.17 98.13 166.15 99.16 C 164.76 97.77 163.37 96.38 162.06 94.92 C 164.83 92.76 168.02 91.88 171.24 90.67 Z" fill="#5c5b6d" />
<path d="M 206.06 90.73 C 209.32 93.33 211.22 96.53 212.79 100.33 L 211.34 99.79 C 209.46 97.19 207.77 94.45 205.97 91.80 L 206.06 90.73 Z" fill="#d0cdcd" />
<path d="M 117.44 93.49 C 122.76 94.68 127.72 98.73 131.77 102.24 C 137.17 107.08 142.48 111.40 147.07 117.04 C 150.03 121.95 153.81 126.70 155.99 132.01 C 157.16 134.12 154.73 136.36 153.89 138.26 C 152.81 136.45 151.75 134.62 150.68 132.80 C 149.60 136.67 148.75 140.52 148.06 144.47 C 149.56 144.17 151.06 143.87 152.56 143.60 C 151.12 145.17 149.63 146.41 147.84 147.57 C 148.53 148.34 149.22 149.12 149.91 149.90 C 148.93 150.69 147.94 151.48 146.96 152.27 C 145.37 150.72 143.81 149.15 142.29 147.54 C 144.80 144.24 147.23 141.42 147.20 137.01 C 147.42 128.93 141.58 121.38 135.90 116.18 C 133.40 113.60 130.34 113.86 127.07 111.98 C 123.35 110.08 118.23 107.04 113.99 108.91 C 112.11 110.61 111.28 113.80 109.88 115.97 C 106.78 120.88 105.61 126.56 102.45 131.43 C 99.16 136.63 98.88 142.55 95.90 147.90 C 93.18 152.80 90.50 157.50 85.88 160.86 C 81.49 164.00 78.88 168.36 75.17 172.16 C 73.10 174.31 71.24 176.60 69.83 179.25 C 68.25 179.06 66.67 178.82 65.09 178.57 C 64.32 178.15 63.54 177.73 62.77 177.30 C 64.50 174.79 66.30 172.34 68.15 169.91 C 68.88 170.54 69.61 171.17 70.35 171.79 C 70.82 170.61 71.26 169.43 71.65 168.23 C 72.11 167.10 71.80 166.28 70.73 165.79 C 71.37 165.07 71.93 164.31 72.40 163.50 C 73.11 158.03 74.50 152.83 74.85 147.31 C 78.82 144.36 80.27 140.23 82.27 135.93 C 80.46 133.27 78.56 131.62 75.84 129.93 C 75.76 128.95 75.68 128.14 76.32 127.31 C 78.56 124.08 81.44 121.29 84.00 118.33 C 91.06 109.92 100.46 104.24 107.41 95.79 C 109.40 95.67 111.27 95.88 113.06 94.91 C 114.40 94.36 115.97 93.08 117.44 93.49 Z" fill="#20233e" />
<path d="M 42.96 98.09 C 43.72 98.60 44.49 99.10 45.25 99.60 C 46.04 99.62 46.83 99.61 47.61 99.59 C 52.23 99.45 56.61 99.14 61.17 100.13 C 61.94 100.63 62.70 101.15 63.44 101.71 C 61.58 104.35 60.04 107.42 57.78 109.73 C 55.22 111.61 52.04 112.60 49.35 114.32 C 44.08 117.64 39.19 121.11 33.25 123.22 C 32.48 123.50 31.70 123.79 30.93 124.09 C 26.46 125.61 24.31 128.20 22.03 132.17 L 20.85 131.05 C 20.75 129.48 20.68 127.91 20.56 126.34 C 25.83 123.47 31.07 120.90 36.62 118.59 C 36.04 117.16 35.50 115.72 34.92 114.30 C 38.49 113.26 42.48 112.42 45.66 110.47 C 47.65 107.96 43.60 104.47 42.07 102.68 C 41.08 103.20 40.09 103.73 39.10 104.27 C 40.40 102.20 41.51 100.07 42.96 98.09 Z" fill="#1f223b" />
<path d="M 195.72 100.19 C 196.36 100.76 196.98 101.35 197.58 101.96 C 196.03 103.00 194.48 104.04 192.92 105.07 C 192.62 104.00 192.33 102.93 192.06 101.86 C 193.25 101.24 194.48 100.69 195.72 100.19 Z" fill="#918c85" />
<path d="M 211.34 99.79 L 212.79 100.33 C 214.26 100.88 215.74 101.36 217.24 101.81 C 217.47 102.43 217.69 103.05 217.91 103.67 C 217.40 104.55 216.92 105.43 216.46 106.33 C 214.71 109.43 215.41 112.52 215.36 115.95 C 215.53 119.46 215.06 123.55 216.80 126.66 C 217.28 127.27 217.76 127.88 218.26 128.48 L 218.02 129.14 C 216.49 130.63 215.06 131.94 214.49 134.08 C 213.79 136.96 212.41 138.33 210.25 140.24 C 212.26 134.37 214.73 127.35 214.01 121.06 C 213.63 119.17 213.30 116.42 211.02 115.96 C 206.43 114.78 202.46 112.41 198.10 110.68 C 195.85 116.03 195.13 120.40 195.35 126.19 C 195.31 126.92 195.27 127.64 195.25 128.37 C 194.18 124.70 193.49 120.97 193.65 117.14 C 194.14 115.52 194.69 113.91 195.37 112.36 C 196.23 109.85 199.40 108.60 201.63 107.66 C 206.51 105.80 210.70 108.49 215.18 105.26 C 212.95 104.16 210.66 103.20 208.32 102.32 C 209.32 101.47 210.31 100.61 211.34 99.79 Z" fill="#807b73" />
<path d="M 57.45 102.10 C 58.12 103.07 58.78 104.04 59.43 105.03 C 57.73 106.38 56.01 107.70 54.26 108.98 C 53.46 107.94 52.66 106.90 51.87 105.85 C 53.54 104.14 55.00 102.60 57.45 102.10 Z" fill="#d5584d" />
<path d="M 63.44 101.71 C 67.05 105.54 67.50 112.32 71.39 115.78 C 73.64 118.02 77.17 114.58 79.31 113.52 C 80.59 115.87 81.63 117.02 84.00 118.33 C 81.44 121.29 78.56 124.08 76.32 127.31 C 75.68 128.14 75.76 128.95 75.84 129.93 C 73.58 130.52 71.23 130.95 69.23 132.21 C 66.47 133.94 64.27 136.03 61.18 137.26 C 57.79 138.63 54.26 139.67 50.81 140.86 C 48.92 141.46 47.07 142.16 45.17 142.74 C 41.19 142.54 37.21 142.52 33.22 142.43 C 32.50 142.37 31.78 142.33 31.07 142.33 C 28.81 138.22 25.58 135.13 22.03 132.17 C 24.31 128.20 26.46 125.61 30.93 124.09 C 31.77 128.75 32.37 133.45 33.01 138.15 C 37.09 138.07 39.01 137.43 42.26 135.03 C 39.37 131.00 36.29 127.15 33.25 123.22 C 39.19 121.11 44.08 117.64 49.35 114.32 C 52.04 112.60 55.22 111.61 57.78 109.73 C 60.04 107.42 61.58 104.35 63.44 101.71 Z" fill="#87696c" />
<path d="M 148.85 102.03 C 150.63 102.44 152.41 103.06 154.23 103.25 C 156.08 103.30 158.01 102.57 159.79 102.13 C 161.18 105.80 163.22 107.06 166.73 108.44 C 166.65 109.66 166.57 110.89 166.48 112.11 C 163.56 111.52 160.78 110.56 158.02 109.47 C 157.90 109.83 157.77 110.19 157.65 110.55 C 158.57 112.69 158.52 114.63 158.25 116.91 C 156.47 116.14 154.68 115.35 152.85 114.71 C 151.87 115.35 150.93 116.05 149.98 116.74 C 149.68 115.58 149.38 114.43 149.06 113.28 C 149.55 112.25 150.04 111.21 150.52 110.17 C 149.38 107.36 147.35 105.13 148.85 102.03 Z" fill="#958f88" />
<path d="M 187.33 103.26 C 188.67 103.08 190.01 102.96 191.36 102.90 C 189.78 106.03 189.20 106.55 185.71 107.26 C 186.19 106.02 186.32 104.18 187.33 103.26 Z" fill="#928e87" />
<path d="M 62.92 103.99 C 65.54 106.86 66.87 110.33 67.97 113.99 C 64.91 110.98 61.74 108.83 62.92 103.99 Z" fill="#634e4e" />
<path d="M 217.91 103.67 C 220.26 111.44 220.67 120.69 218.26 128.48 C 217.76 127.88 217.28 127.27 216.80 126.66 C 218.44 119.83 218.43 113.09 216.46 106.33 C 216.92 105.43 217.40 104.55 217.91 103.67 Z" fill="#2e2d40" />
<path d="M 216.46 106.33 C 218.43 113.09 218.44 119.83 216.80 126.66 C 215.06 123.55 215.53 119.46 215.36 115.95 C 215.41 112.52 214.71 109.43 216.46 106.33 Z" fill="#b9b8b9" />
<path d="M 127.07 111.98 C 130.34 113.86 133.40 113.60 135.90 116.18 C 141.58 121.38 147.42 128.93 147.20 137.01 C 147.23 141.42 144.80 144.24 142.29 147.54 C 143.81 149.15 145.37 150.72 146.96 152.27 C 147.94 151.48 148.93 150.69 149.91 149.90 C 149.22 149.12 148.53 148.34 147.84 147.57 C 149.63 146.41 151.12 145.17 152.56 143.60 C 151.06 143.87 149.56 144.17 148.06 144.47 C 148.75 140.52 149.60 136.67 150.68 132.80 C 151.75 134.62 152.81 136.45 153.89 138.26 C 153.39 139.10 152.90 139.95 152.41 140.81 C 153.31 141.62 154.20 142.43 155.09 143.24 C 156.93 141.70 158.80 140.14 160.39 138.34 C 161.22 138.75 162.06 139.12 162.93 139.45 C 166.79 137.63 169.80 133.57 171.72 129.84 C 172.30 128.23 172.81 126.58 173.34 124.95 C 173.90 124.63 174.47 124.31 175.03 123.99 C 176.52 123.14 177.99 122.26 179.43 121.32 C 180.74 119.29 181.60 117.71 180.99 115.23 C 184.10 114.37 185.38 113.54 187.49 111.08 C 188.74 110.78 189.99 110.49 191.24 110.21 C 191.30 112.67 191.17 115.11 190.95 117.56 C 191.85 117.42 192.75 117.28 193.65 117.14 C 193.49 120.97 194.18 124.70 195.25 128.37 C 195.56 129.55 195.93 130.72 196.36 131.87 C 195.92 132.26 195.48 132.66 195.04 133.06 L 194.23 133.85 C 195.45 136.21 197.15 138.64 197.83 141.21 C 198.42 143.73 198.47 146.46 198.59 149.05 C 199.83 147.71 201.05 146.34 202.28 144.99 C 204.92 145.10 207.67 145.08 210.27 145.62 C 213.09 145.82 213.80 149.93 214.62 152.06 C 214.29 156.07 211.98 159.18 211.41 163.03 C 211.29 165.92 213.22 169.04 214.46 171.58 C 216.22 175.35 220.04 178.25 223.41 180.55 C 227.61 183.41 232.03 183.67 234.44 188.61 C 234.13 189.33 233.82 190.05 233.51 190.76 L 233.07 191.74 C 231.55 193.17 229.90 194.49 228.26 195.79 C 226.83 194.93 225.42 194.05 224.04 193.12 C 221.06 190.89 218.06 186.04 214.07 186.19 C 210.50 185.64 206.62 185.30 203.29 183.88 C 199.52 181.16 196.22 177.98 192.02 175.86 C 184.23 170.47 181.07 160.66 179.28 151.80 C 178.87 149.54 178.31 147.31 177.67 145.09 C 175.87 145.33 174.01 145.53 172.26 146.03 C 170.64 146.78 168.90 147.48 167.47 148.55 C 165.41 151.23 164.01 154.18 161.33 156.37 C 157.40 159.62 155.18 164.71 150.68 166.68 C 147.81 168.12 144.64 168.20 141.49 168.29 C 141.19 166.06 140.80 163.86 140.29 161.68 C 139.59 162.05 138.90 162.43 138.22 162.81 C 135.70 164.04 133.87 165.89 132.04 167.95 L 130.54 168.49 C 129.94 166.06 129.43 163.61 128.84 161.18 C 127.98 162.12 127.15 163.10 126.29 164.04 C 125.09 163.89 123.88 163.74 122.68 163.59 C 123.84 159.64 125.08 155.99 127.96 152.93 C 131.05 149.61 135.89 148.22 138.94 144.99 C 141.23 140.75 140.35 134.56 138.85 130.15 C 137.23 124.95 132.83 120.93 127.63 119.46 C 119.15 117.52 110.81 127.44 113.54 135.53 C 114.21 137.68 115.74 139.67 118.16 139.77 C 121.85 139.83 125.72 138.45 129.25 137.47 C 128.23 134.77 126.91 133.57 124.56 132.04 C 122.55 134.70 121.65 135.42 118.28 135.91 C 118.17 132.00 117.88 127.27 119.48 123.61 C 120.44 121.30 123.70 120.51 125.96 120.62 C 129.16 120.98 132.20 123.38 134.27 125.74 C 137.19 128.97 137.77 133.83 137.21 137.98 C 137.08 140.47 134.46 141.45 132.80 142.87 C 129.99 144.82 128.52 147.58 125.96 149.86 C 124.62 151.16 122.97 152.35 122.35 154.17 C 120.25 160.02 120.73 165.92 117.72 171.63 C 115.69 175.91 112.24 178.84 108.19 181.15 C 105.26 182.75 101.94 184.18 99.30 186.23 C 97.67 187.44 96.92 189.68 96.02 191.45 C 94.24 191.96 92.45 192.40 90.66 192.88 C 90.43 193.21 90.20 193.55 89.97 193.88 C 90.74 194.21 91.52 194.54 92.30 194.87 C 91.57 195.33 90.85 195.79 90.13 196.26 L 89.54 195.75 C 89.13 194.23 88.80 192.68 88.45 191.15 C 87.47 191.29 86.50 191.44 85.53 191.63 C 82.38 193.64 78.78 196.01 77.21 199.51 C 76.16 201.53 75.22 203.59 74.09 205.58 C 69.86 204.23 68.18 201.60 65.94 198.06 C 65.34 199.16 64.76 200.28 64.19 201.39 C 65.44 202.45 66.70 203.49 67.95 204.56 C 66.97 205.93 66.03 207.31 65.12 208.71 L 65.39 209.65 C 66.40 211.32 67.46 212.96 68.58 214.55 C 66.93 216.55 66.07 218.60 65.40 221.09 C 62.14 217.74 59.53 213.91 56.54 210.34 C 55.58 209.12 54.12 209.07 52.72 208.64 C 52.58 205.15 52.38 201.54 52.87 198.07 C 53.60 193.39 58.03 191.67 57.29 186.65 L 57.81 185.87 C 58.64 185.99 59.47 186.11 60.30 186.21 C 62.05 183.84 63.92 181.64 66.21 179.78 C 64.61 184.35 61.85 187.98 59.32 192.04 C 57.86 194.18 57.48 196.19 57.49 198.74 C 62.12 198.29 66.04 198.02 69.10 194.07 C 69.28 192.86 69.60 191.55 69.44 190.32 C 68.86 188.89 67.33 187.52 67.19 186.00 C 67.56 183.65 68.78 181.37 69.83 179.25 C 71.24 176.60 73.10 174.31 75.17 172.16 C 78.88 168.36 81.49 164.00 85.88 160.86 C 90.50 157.50 93.18 152.80 95.90 147.90 C 98.88 142.55 99.16 136.63 102.45 131.43 C 105.61 126.56 106.78 120.88 109.88 115.97 C 111.28 113.80 112.11 110.61 113.99 108.91 C 118.23 107.04 123.35 110.08 127.07 111.98 Z" fill="#4a453b" />
<path d="M 184.51 108.24 C 185.52 109.16 186.50 110.12 187.49 111.08 C 185.38 113.54 184.10 114.37 180.99 115.23 C 180.80 113.96 180.58 112.67 180.53 111.38 C 181.26 109.92 183.13 109.01 184.51 108.24 Z" fill="#837f77" />
<path d="M 198.10 110.68 C 202.46 112.41 206.43 114.78 211.02 115.96 C 213.30 116.42 213.63 119.17 214.01 121.06 C 214.73 127.35 212.26 134.37 210.25 140.24 C 209.60 141.21 208.95 142.19 208.30 143.16 C 210.04 143.22 211.77 143.26 213.50 143.28 C 214.43 143.93 215.35 144.58 216.28 145.23 C 215.31 147.41 214.91 149.71 214.62 152.06 C 213.80 149.93 213.09 145.82 210.27 145.62 C 207.67 145.08 204.92 145.10 202.28 144.99 C 201.05 146.34 199.83 147.71 198.59 149.05 C 198.47 146.46 198.42 143.73 197.83 141.21 C 197.15 138.64 195.45 136.21 194.23 133.85 L 195.04 133.06 C 197.25 134.99 199.60 137.67 202.41 138.64 C 205.06 139.51 206.82 136.98 207.93 134.98 C 209.50 131.64 209.83 126.94 208.62 123.45 C 208.06 121.41 205.86 121.08 204.11 120.54 C 202.48 120.22 200.79 119.94 199.13 119.89 C 197.41 121.56 196.41 124.07 195.35 126.19 C 195.13 120.40 195.85 116.03 198.10 110.68 Z" fill="#68635a" />
<path d="M 152.85 114.71 C 154.68 115.35 156.47 116.14 158.25 116.91 C 158.62 117.70 159.01 118.48 159.41 119.26 C 160.43 121.08 161.74 122.52 163.34 123.84 C 161.91 125.80 160.43 127.71 158.91 129.60 C 155.26 126.55 154.25 123.65 153.37 119.10 C 152.24 118.31 151.11 117.53 149.98 116.74 C 150.93 116.05 151.87 115.35 152.85 114.71 Z" fill="#767169" />
<path d="M 161.65 117.52 C 164.24 120.30 168.35 123.42 172.21 121.15 C 172.59 122.42 172.96 123.68 173.34 124.95 C 172.81 126.58 172.30 128.23 171.72 129.84 C 169.23 127.69 166.71 125.89 163.84 124.27 L 163.34 123.84 C 161.74 122.52 160.43 121.08 159.41 119.26 C 160.15 118.67 160.90 118.09 161.65 117.52 Z" fill="#908b83" />
<path d="M 127.63 119.46 C 132.83 120.93 137.23 124.95 138.85 130.15 C 140.35 134.56 141.23 140.75 138.94 144.99 C 135.89 148.22 131.05 149.61 127.96 152.93 C 125.08 155.99 123.84 159.64 122.68 163.59 C 123.88 163.74 125.09 163.89 126.29 164.04 C 124.92 165.03 123.47 165.78 122.00 166.60 C 122.61 168.70 123.52 170.43 124.76 172.23 C 125.78 175.45 126.07 178.75 126.21 182.11 C 123.09 182.49 119.96 182.52 116.83 182.68 C 114.02 182.67 111.46 185.03 109.20 186.50 C 106.04 188.61 103.05 190.80 100.21 193.32 C 102.74 189.04 104.54 184.69 108.19 181.15 C 112.24 178.84 115.69 175.91 117.72 171.63 C 120.73 165.92 120.25 160.02 122.35 154.17 C 122.97 152.35 124.62 151.16 125.96 149.86 C 128.52 147.58 129.99 144.82 132.80 142.87 C 134.46 141.45 137.08 140.47 137.21 137.98 C 137.77 133.83 137.19 128.97 134.27 125.74 C 132.20 123.38 129.16 120.98 125.96 120.62 C 123.70 120.51 120.44 121.30 119.48 123.61 C 117.88 127.27 118.17 132.00 118.28 135.91 C 121.65 135.42 122.55 134.70 124.56 132.04 C 126.91 133.57 128.23 134.77 129.25 137.47 C 125.72 138.45 121.85 139.83 118.16 139.77 C 115.74 139.67 114.21 137.68 113.54 135.53 C 110.81 127.44 119.15 117.52 127.63 119.46 Z" fill="#20223c" />
<path d="M 177.78 118.99 C 178.35 119.75 178.88 120.54 179.43 121.32 C 177.99 122.26 176.52 123.14 175.03 123.99 C 175.16 122.79 175.30 121.59 175.45 120.39 C 176.21 119.90 176.99 119.43 177.78 118.99 Z" fill="#7b776f" />
<path d="M 199.13 119.89 C 200.79 119.94 202.48 120.22 204.11 120.54 C 202.70 122.45 201.59 124.53 200.59 126.68 C 202.48 125.68 204.34 124.63 206.20 123.59 C 207.81 127.90 207.80 132.33 204.67 135.96 C 201.53 136.98 198.51 133.72 196.36 131.87 C 195.93 130.72 195.56 129.55 195.25 128.37 C 195.27 127.64 195.31 126.92 195.35 126.19 C 196.41 124.07 197.41 121.56 199.13 119.89 Z" fill="#554f45" />
<path d="M 204.11 120.54 C 205.86 121.08 208.06 121.41 208.62 123.45 C 209.83 126.94 209.50 131.64 207.93 134.98 C 206.82 136.98 205.06 139.51 202.41 138.64 C 199.60 137.67 197.25 134.99 195.04 133.06 C 195.48 132.66 195.92 132.26 196.36 131.87 C 198.51 133.72 201.53 136.98 204.67 135.96 C 207.80 132.33 207.81 127.90 206.20 123.59 C 204.34 124.63 202.48 125.68 200.59 126.68 C 201.59 124.53 202.70 122.45 204.11 120.54 Z" fill="#181830" />
<path d="M 33.25 123.22 C 36.29 127.15 39.37 131.00 42.26 135.03 C 39.01 137.43 37.09 138.07 33.01 138.15 C 32.37 133.45 31.77 128.75 30.93 124.09 C 31.70 123.79 32.48 123.50 33.25 123.22 Z" fill="#c19c3c" />
<path d="M 43.94 123.84 C 45.58 124.65 47.77 125.73 48.58 127.45 C 48.95 129.55 48.32 132.33 46.42 133.54 C 45.29 133.94 43.89 133.53 42.70 133.45 C 43.30 130.27 43.52 127.05 43.94 123.84 Z" fill="#c29f45" />
<path d="M 51.81 123.81 C 54.32 124.58 56.21 126.10 58.12 127.84 C 56.74 128.26 55.36 128.68 53.98 129.10 C 53.19 127.36 52.43 125.61 51.81 123.81 Z" fill="#bfa059" />
<path d="M 163.84 124.27 C 166.71 125.89 169.23 127.69 171.72 129.84 C 169.80 133.57 166.79 137.63 162.93 139.45 C 162.06 139.12 161.22 138.75 160.39 138.34 C 161.90 136.45 163.41 134.57 165.16 132.88 C 164.70 130.02 164.29 127.14 163.84 124.27 Z" fill="#6c675f" />
<path d="M 218.02 129.14 C 217.76 131.38 217.58 133.69 217.24 135.92 C 216.32 135.30 215.41 134.68 214.49 134.08 C 215.06 131.94 216.49 130.63 218.02 129.14 Z" fill="#bebbb6" />
<path d="M 75.84 129.93 C 78.56 131.62 80.46 133.27 82.27 135.93 C 80.27 140.23 78.82 144.36 74.85 147.31 C 72.77 149.15 70.97 151.39 68.75 153.06 C 67.62 153.28 66.85 152.90 66.43 151.90 C 66.94 147.74 67.98 143.68 69.71 139.85 C 66.68 141.27 63.26 142.55 60.67 144.69 C 59.04 146.75 57.89 149.16 56.35 151.30 C 56.42 149.14 56.80 146.91 56.57 144.76 C 55.17 143.65 53.69 142.63 52.19 141.66 L 50.81 140.86 C 54.26 139.67 57.79 138.63 61.18 137.26 C 64.27 136.03 66.47 133.94 69.23 132.21 C 71.23 130.95 73.58 130.52 75.84 129.93 Z" fill="#4a453b" />
<path d="M 183.56 133.33 C 184.93 132.34 186.77 134.29 185.70 135.61 C 184.33 136.60 182.52 134.63 183.56 133.33 Z" fill="#858178" />
<path d="M 214.49 134.08 C 215.41 134.68 216.32 135.30 217.24 135.92 L 217.04 136.52 C 215.81 138.75 214.62 141.00 213.50 143.28 C 211.77 143.26 210.04 143.22 208.30 143.16 C 208.95 142.19 209.60 141.21 210.25 140.24 C 212.41 138.33 213.79 136.96 214.49 134.08 Z" fill="#a09d95" />
<path d="M 179.17 135.43 C 181.13 135.85 178.60 139.36 177.27 138.45 C 176.52 137.32 178.00 135.53 179.17 135.43 Z" fill="#7b766e" />
<path d="M 217.04 136.52 C 217.60 137.39 218.10 138.28 218.54 139.20 C 218.28 141.28 217.07 143.31 216.28 145.23 C 215.35 144.58 214.43 143.93 213.50 143.28 C 214.62 141.00 215.81 138.75 217.04 136.52 Z" fill="#d3cfce" />
<path d="M 69.71 139.85 C 67.98 143.68 66.94 147.74 66.43 151.90 C 66.85 152.90 67.62 153.28 68.75 153.06 C 70.97 151.39 72.77 149.15 74.85 147.31 C 74.50 152.83 73.11 158.03 72.40 163.50 C 71.93 164.31 71.37 165.07 70.73 165.79 C 69.69 167.02 69.99 167.83 71.65 168.23 C 71.26 169.43 70.82 170.61 70.35 171.79 C 69.61 171.17 68.88 170.54 68.15 169.91 C 66.30 172.34 64.50 174.79 62.77 177.30 C 63.54 177.73 64.32 178.15 65.09 178.57 C 61.40 180.00 59.82 182.64 57.81 185.87 L 57.29 186.65 C 53.61 191.55 50.78 196.87 46.55 201.38 C 44.17 204.19 41.26 205.71 40.42 209.59 C 41.89 208.82 43.33 208.01 44.75 207.16 C 43.74 208.12 42.73 209.08 41.72 210.04 C 42.07 211.32 42.42 212.60 42.75 213.88 C 41.63 212.55 40.55 211.18 39.48 209.80 C 38.88 210.70 38.26 211.60 37.64 212.50 C 37.04 209.87 35.45 207.37 36.67 204.73 C 40.31 195.29 46.04 187.94 51.81 179.78 C 54.33 176.26 57.33 172.80 57.53 168.25 C 57.63 165.34 57.21 162.23 54.39 160.70 C 49.38 157.74 44.46 158.31 38.95 158.75 C 36.72 159.21 36.13 157.27 34.76 155.94 C 35.25 155.46 35.75 154.99 36.25 154.53 C 41.13 149.61 46.53 145.62 52.19 141.66 C 53.69 142.63 55.17 143.65 56.57 144.76 C 56.80 146.91 56.42 149.14 56.35 151.30 C 57.89 149.16 59.04 146.75 60.67 144.69 C 63.26 142.55 66.68 141.27 69.71 139.85 Z" fill="#f5f4f2" />
<path d="M 50.81 140.86 L 52.19 141.66 C 46.53 145.62 41.13 149.61 36.25 154.53 C 35.40 153.84 34.56 153.15 33.72 152.46 C 35.19 151.66 36.51 150.79 37.72 149.62 C 40.31 147.30 43.25 145.79 45.17 142.74 C 47.07 142.16 48.92 141.46 50.81 140.86 Z" fill="#2e2d40" />
<path d="M 31.07 142.33 C 31.78 142.33 32.50 142.37 33.22 142.43 C 33.90 143.98 33.36 145.08 32.08 146.03 C 31.69 144.81 31.38 143.57 31.07 142.33 Z" fill="#171524" />
<path d="M 45.17 142.74 C 43.25 145.79 40.31 147.30 37.72 149.62 C 36.09 149.25 34.45 148.92 32.81 148.61 C 32.59 147.75 32.34 146.89 32.08 146.03 C 33.36 145.08 33.90 143.98 33.22 142.43 C 37.21 142.52 41.19 142.54 45.17 142.74 Z" fill="#524858" />
<path d="M 172.26 146.03 C 174.01 145.53 175.87 145.33 177.67 145.09 C 178.31 147.31 178.87 149.54 179.28 151.80 C 179.25 152.51 179.21 153.21 179.16 153.91 C 176.87 154.55 174.22 154.44 172.89 156.73 C 171.39 159.03 169.59 161.87 169.43 164.67 C 170.28 166.94 172.87 169.12 172.65 171.58 C 172.66 172.78 172.63 173.99 172.65 175.19 C 174.20 179.46 177.14 182.68 179.36 186.53 C 180.78 189.94 181.20 193.85 181.90 197.47 C 179.02 203.08 174.36 206.73 169.44 210.44 C 165.74 213.20 162.44 216.43 159.44 219.92 C 157.09 219.73 154.73 219.62 152.37 219.56 C 151.77 218.75 151.19 217.93 150.60 217.11 C 153.62 215.03 156.29 212.95 157.27 209.24 C 157.98 207.17 157.14 205.55 156.42 203.64 C 153.97 199.89 151.43 196.77 147.19 194.99 C 146.31 197.81 145.64 200.75 144.50 203.48 L 143.30 204.22 C 140.40 201.71 137.19 199.49 134.37 196.93 C 132.92 193.47 131.14 190.27 129.46 186.93 C 130.19 184.78 131.59 182.84 132.32 180.69 C 132.69 178.46 132.04 175.97 131.72 173.77 C 131.38 171.99 130.97 170.25 130.54 168.49 L 132.04 167.95 C 134.35 168.63 137.11 171.64 139.06 168.80 C 139.36 166.81 138.73 164.73 138.22 162.81 C 138.90 162.43 139.59 162.05 140.29 161.68 C 140.80 163.86 141.19 166.06 141.49 168.29 C 144.64 168.20 147.81 168.12 150.68 166.68 C 155.18 164.71 157.40 159.62 161.33 156.37 C 164.01 154.18 165.41 151.23 167.47 148.55 C 168.90 147.48 170.64 146.78 172.26 146.03 Z" fill="#f4f3f1" />
<path d="M 79.97 146.16 C 78.88 150.53 77.63 154.70 74.77 158.27 C 75.14 153.59 77.41 149.92 79.97 146.16 Z" fill="#807e84" />
<path d="M 37.72 149.62 C 36.51 150.79 35.19 151.66 33.72 152.46 C 34.56 153.15 35.40 153.84 36.25 154.53 C 35.75 154.99 35.25 155.46 34.76 155.94 L 34.41 156.34 C 34.27 154.97 32.89 153.55 31.97 155.28 C 31.76 156.28 32.11 157.22 33.00 158.11 C 31.78 159.60 30.51 161.02 29.18 162.40 C 29.74 160.58 30.38 158.80 30.92 156.97 C 31.70 154.21 32.38 151.45 32.81 148.61 C 34.45 148.92 36.09 149.25 37.72 149.62 Z" fill="#7d7d8a" />
<path d="M 137.30 150.83 C 135.55 153.64 133.79 154.92 130.77 156.20 C 132.65 153.67 134.41 152.15 137.30 150.83 Z" fill="#aba7a1" />
<path d="M 179.28 151.80 C 181.07 160.66 184.23 170.47 192.02 175.86 C 191.05 175.59 190.08 175.35 189.11 175.13 C 189.41 176.98 189.77 178.81 190.15 180.64 C 189.46 180.21 188.77 179.77 188.08 179.34 C 187.51 178.99 186.93 178.64 186.36 178.30 C 183.15 176.51 179.67 175.29 176.45 173.51 L 176.19 173.40 C 174.98 173.93 173.81 174.57 172.65 175.19 C 172.63 173.99 172.66 172.78 172.65 171.58 C 172.87 169.12 170.28 166.94 169.43 164.67 C 169.59 161.87 171.39 159.03 172.89 156.73 C 174.22 154.44 176.87 154.55 179.16 153.91 C 179.21 153.21 179.25 152.51 179.28 151.80 Z" fill="#c3c1b8" />
<path d="M 34.41 156.34 C 33.95 156.95 33.48 157.54 33.00 158.11 C 32.11 157.22 31.76 156.28 31.97 155.28 C 32.89 153.55 34.27 154.97 34.41 156.34 Z" fill="#333347" />
<path d="M 136.35 156.18 C 139.60 155.59 135.82 159.95 134.39 158.79 C 133.87 157.72 135.51 156.53 136.35 156.18 Z" fill="#aca8a1" />
<path d="M 131.29 159.18 C 132.87 158.17 133.80 160.57 131.97 160.91 C 131.00 160.63 130.77 160.05 131.29 159.18 Z" fill="#85817a" />
<path d="M 128.84 161.18 C 129.43 163.61 129.94 166.06 130.54 168.49 C 130.97 170.25 131.38 171.99 131.72 173.77 C 129.29 172.31 127.59 172.05 124.76 172.23 C 123.52 170.43 122.61 168.70 122.00 166.60 C 123.47 165.78 124.92 165.03 126.29 164.04 C 127.15 163.10 127.98 162.12 128.84 161.18 Z" fill="#b4b0ab" />
<path d="M 138.22 162.81 C 138.73 164.73 139.36 166.81 139.06 168.80 C 137.11 171.64 134.35 168.63 132.04 167.95 C 133.87 165.89 135.70 164.04 138.22 162.81 Z" fill="#e1e0dd" />
<path d="M 70.73 165.79 C 71.80 166.28 72.11 167.10 71.65 168.23 C 69.99 167.83 69.69 167.02 70.73 165.79 Z" fill="#040218" />
<path d="M 124.76 172.23 C 127.59 172.05 129.29 172.31 131.72 173.77 C 132.04 175.97 132.69 178.46 132.32 180.69 C 131.59 182.84 130.19 184.78 129.46 186.93 C 131.14 190.27 132.92 193.47 134.37 196.93 C 137.19 199.49 140.40 201.71 143.30 204.22 L 144.50 203.48 C 145.64 200.75 146.31 197.81 147.19 194.99 C 151.43 196.77 153.97 199.89 156.42 203.64 C 155.12 205.91 153.73 208.09 152.04 210.09 C 151.97 207.98 152.01 205.88 152.13 203.78 C 149.82 205.20 147.45 206.77 144.91 207.74 C 143.96 208.04 143.22 208.28 142.43 207.48 C 140.72 205.91 139.35 203.96 137.76 202.27 C 137.24 202.41 136.72 202.55 136.21 202.71 C 134.47 206.45 131.69 210.01 129.27 213.33 C 127.62 213.53 125.82 213.17 124.19 212.90 C 123.65 213.42 123.12 213.95 122.58 214.47 C 121.11 214.08 119.64 213.69 118.16 213.33 C 118.17 212.03 118.21 210.73 118.20 209.44 C 117.46 209.61 116.72 209.79 115.99 209.98 C 114.59 202.32 114.73 195.08 110.91 188.04 C 110.88 189.09 110.87 190.13 110.86 191.18 C 110.37 189.60 109.78 188.05 109.20 186.50 C 111.46 185.03 114.02 182.67 116.83 182.68 C 119.96 182.52 123.09 182.49 126.21 182.11 C 126.07 178.75 125.78 175.45 124.76 172.23 Z" fill="#8b8780" />
<path d="M 176.19 173.40 L 176.45 173.51 C 179.67 175.29 183.15 176.51 186.36 178.30 C 188.17 182.08 188.68 186.30 187.16 190.29 C 186.20 193.40 184.16 195.95 184.84 199.26 C 185.35 202.94 185.65 206.61 185.73 210.32 L 185.09 211.90 C 184.04 209.67 183.66 207.42 183.48 204.97 C 181.52 205.73 179.58 206.51 177.61 207.25 C 179.29 204.22 183.25 201.18 181.90 197.47 C 181.20 193.85 180.78 189.94 179.36 186.53 C 177.14 182.68 174.20 179.46 172.65 175.19 C 173.81 174.57 174.98 173.93 176.19 173.40 Z" fill="#837f77" />
<path d="M 66.25 174.29 L 66.83 174.27 L 66.85 174.84 L 66.27 174.86 L 66.25 174.29 Z" fill="#fbf9f8" />
<path d="M 189.11 175.13 C 190.08 175.35 191.05 175.59 192.02 175.86 C 196.22 177.98 199.52 181.16 203.29 183.88 C 206.62 185.30 210.50 185.64 214.07 186.19 C 218.06 186.04 221.06 190.89 224.04 193.12 C 226.83 197.35 225.66 201.94 224.59 206.55 C 223.32 211.98 220.44 216.65 216.92 220.90 C 214.21 224.50 209.62 223.69 206.76 227.25 C 205.86 227.41 204.95 227.57 204.04 227.72 C 204.09 225.02 203.90 222.17 204.90 219.61 C 205.88 217.12 207.02 214.71 207.86 212.17 C 205.31 211.80 201.22 210.23 198.94 211.82 C 197.30 214.50 197.31 217.62 195.10 220.11 C 191.53 224.19 187.07 227.59 182.66 230.71 C 178.49 233.68 173.83 235.82 168.78 236.72 C 163.57 237.56 158.01 236.56 152.78 236.24 C 144.21 235.70 135.52 236.89 126.97 236.16 C 122.43 235.77 119.27 233.36 115.19 231.80 C 111.88 230.74 107.84 230.92 104.86 232.84 C 101.92 234.60 99.25 236.51 95.91 237.50 C 83.97 241.07 71.52 237.76 60.65 232.44 C 53.78 229.82 49.11 224.22 42.34 221.43 C 42.21 219.52 42.18 217.61 42.06 215.71 C 45.59 218.35 49.06 220.71 53.54 221.36 C 55.34 221.79 57.79 221.55 59.26 222.74 C 62.74 225.38 65.69 228.84 70.12 230.14 C 72.39 230.47 74.76 230.24 77.05 230.31 C 82.75 231.34 88.38 233.08 94.09 231.41 C 96.46 230.66 100.04 230.57 101.68 228.56 C 103.01 223.26 99.34 220.63 96.58 216.75 C 96.61 219.70 96.85 222.71 96.58 225.64 C 96.03 227.38 93.99 228.72 92.80 230.09 C 92.21 229.44 91.63 228.79 91.03 228.16 C 92.52 227.81 94.01 227.44 95.50 227.08 C 95.54 225.41 95.63 223.69 95.50 222.03 C 94.15 220.39 92.16 219.18 90.49 217.87 C 89.67 216.96 88.89 216.03 88.14 215.06 C 90.01 213.50 91.96 212.06 93.93 210.63 C 92.12 209.50 90.33 208.36 88.59 207.13 C 87.13 206.39 85.63 205.78 84.10 205.20 C 84.78 203.11 85.37 201.00 85.86 198.86 C 87.10 197.84 88.32 196.80 89.54 195.75 L 90.13 196.26 C 90.92 196.83 91.71 197.41 92.51 197.99 C 91.71 199.26 90.92 200.53 90.12 201.80 C 92.83 197.98 96.53 196.00 100.21 193.32 C 103.05 190.80 106.04 188.61 109.20 186.50 C 109.78 188.05 110.37 189.60 110.86 191.18 C 111.50 196.11 111.68 201.26 112.96 206.08 C 113.49 208.11 114.81 209.44 116.14 210.96 L 116.33 212.14 C 114.99 214.26 111.25 216.99 112.22 219.77 C 112.68 222.39 116.97 221.54 118.89 221.88 C 120.88 223.62 122.73 225.68 124.95 227.11 C 127.42 228.43 130.42 228.74 133.08 229.66 C 134.65 227.84 135.74 226.55 138.32 226.47 C 140.15 226.08 142.46 226.02 144.07 225.02 C 145.41 224.14 144.99 222.01 145.15 220.62 L 146.20 220.06 C 147.22 219.42 148.22 218.74 149.22 218.07 C 149.76 220.56 149.23 223.80 152.01 225.00 C 155.51 226.82 159.43 228.08 163.24 229.10 C 166.13 229.65 169.92 230.46 172.39 228.40 C 176.63 225.03 180.89 221.96 183.06 216.85 C 183.87 215.24 184.45 213.58 185.09 211.90 L 185.73 210.32 C 189.51 205.05 193.70 197.54 192.17 190.83 C 191.59 187.42 190.86 184.03 190.15 180.64 C 189.77 178.81 189.41 176.98 189.11 175.13 Z" fill="#f4f4f2" />
<path d="M 65.09 178.57 C 66.67 178.82 68.25 179.06 69.83 179.25 C 68.78 181.37 67.56 183.65 67.19 186.00 C 67.33 187.52 68.86 188.89 69.44 190.32 C 69.60 191.55 69.28 192.86 69.10 194.07 C 66.21 193.96 63.30 194.05 60.42 193.78 C 60.05 193.20 59.68 192.62 59.32 192.04 C 61.85 187.98 64.61 184.35 66.21 179.78 C 63.92 181.64 62.05 183.84 60.30 186.21 C 59.47 186.11 58.64 185.99 57.81 185.87 C 59.82 182.64 61.40 180.00 65.09 178.57 Z" fill="#837f77" />
<path d="M 188.08 179.34 C 188.77 179.77 189.46 180.21 190.15 180.64 C 190.86 184.03 191.59 187.42 192.17 190.83 C 193.70 197.54 189.51 205.05 185.73 210.32 C 185.65 206.61 185.35 202.94 184.84 199.26 C 184.16 195.95 186.20 193.40 187.16 190.29 C 188.68 186.30 188.17 182.08 186.36 178.30 C 186.93 178.64 187.51 178.99 188.08 179.34 Z" fill="#b0ada7" />
<path d="M 108.19 181.15 C 104.54 184.69 102.74 189.04 100.21 193.32 C 96.53 196.00 92.83 197.98 90.12 201.80 C 90.92 200.53 91.71 199.26 92.51 197.99 C 91.71 197.41 90.92 196.83 90.13 196.26 C 90.85 195.79 91.57 195.33 92.30 194.87 C 91.52 194.54 90.74 194.21 89.97 193.88 C 90.20 193.55 90.43 193.21 90.66 192.88 C 92.45 192.40 94.24 191.96 96.02 191.45 C 96.92 189.68 97.67 187.44 99.30 186.23 C 101.94 184.18 105.26 182.75 108.19 181.15 Z" fill="#67635c" />
<path d="M 57.29 186.65 C 58.03 191.67 53.60 193.39 52.87 198.07 C 52.38 201.54 52.58 205.15 52.72 208.64 C 54.12 209.07 55.58 209.12 56.54 210.34 C 59.53 213.91 62.14 217.74 65.40 221.09 C 68.87 224.80 73.03 227.29 77.05 230.31 C 74.76 230.24 72.39 230.47 70.12 230.14 C 65.69 228.84 62.74 225.38 59.26 222.74 C 57.79 221.55 55.34 221.79 53.54 221.36 C 49.06 220.71 45.59 218.35 42.06 215.71 C 40.83 214.99 39.49 214.60 38.11 214.28 C 37.96 213.69 37.80 213.09 37.64 212.50 C 38.26 211.60 38.88 210.70 39.48 209.80 C 40.55 211.18 41.63 212.55 42.75 213.88 C 42.42 212.60 42.07 211.32 41.72 210.04 C 42.73 209.08 43.74 208.12 44.75 207.16 C 43.33 208.01 41.89 208.82 40.42 209.59 C 41.26 205.71 44.17 204.19 46.55 201.38 C 50.78 196.87 53.61 191.55 57.29 186.65 Z" fill="#1f223c" />
<path d="M 110.91 188.04 C 114.73 195.08 114.59 202.32 115.99 209.98 L 116.14 210.96 C 114.81 209.44 113.49 208.11 112.96 206.08 C 111.68 201.26 111.50 196.11 110.86 191.18 C 110.87 190.13 110.88 189.09 110.91 188.04 Z" fill="#68646b" />
<path d="M 234.44 188.61 C 235.46 190.65 236.46 192.50 236.13 194.86 C 235.14 204.09 232.92 213.49 231.19 222.35 C 230.73 224.62 229.99 226.81 229.21 229.00 L 227.71 228.16 C 229.52 218.51 231.69 208.92 233.59 199.29 C 234.27 196.27 234.50 193.74 233.51 190.76 C 233.82 190.05 234.13 189.33 234.44 188.61 Z" fill="#413f4e" />
<path d="M 85.53 191.63 C 86.50 191.44 87.47 191.29 88.45 191.15 C 88.80 192.68 89.13 194.23 89.54 195.75 C 88.32 196.80 87.10 197.84 85.86 198.86 C 84.01 200.31 82.06 201.66 80.13 202.99 C 79.26 201.73 78.32 200.56 77.21 199.51 C 78.78 196.01 82.38 193.64 85.53 191.63 Z" fill="#645e56" />
<path d="M 233.51 190.76 C 234.50 193.74 234.27 196.27 233.59 199.29 C 233.24 196.78 232.95 194.28 233.07 191.74 L 233.51 190.76 Z" fill="#cbc8c2" />
<path d="M 59.32 192.04 C 59.68 192.62 60.05 193.20 60.42 193.78 C 63.30 194.05 66.21 193.96 69.10 194.07 C 66.04 198.02 62.12 198.29 57.49 198.74 C 57.48 196.19 57.86 194.18 59.32 192.04 Z" fill="#6c675f" />
<path d="M 233.07 191.74 C 232.95 194.28 233.24 196.78 233.59 199.29 C 231.69 208.92 229.52 218.51 227.71 228.16 C 221.40 229.69 215.06 229.60 208.64 230.30 C 208.03 229.28 207.40 228.26 206.76 227.25 C 209.62 223.69 214.21 224.50 216.92 220.90 C 220.44 216.65 223.32 211.98 224.59 206.55 C 225.66 201.94 226.83 197.35 224.04 193.12 C 225.42 194.05 226.83 194.93 228.26 195.79 C 229.90 194.49 231.55 193.17 233.07 191.74 Z" fill="#87696c" />
<path d="M 65.94 198.06 C 68.18 201.60 69.86 204.23 74.09 205.58 L 72.98 206.27 C 70.43 207.35 67.84 208.34 65.39 209.65 L 65.12 208.71 C 66.03 207.31 66.97 205.93 67.95 204.56 C 66.70 203.49 65.44 202.45 64.19 201.39 C 64.76 200.28 65.34 199.16 65.94 198.06 Z" fill="#645e56" />
<path d="M 181.90 197.47 C 183.25 201.18 179.29 204.22 177.61 207.25 C 175.40 210.37 173.00 213.39 170.11 215.92 C 167.91 217.76 165.44 219.79 162.73 220.80 C 161.63 221.36 160.44 220.34 159.44 219.92 C 162.44 216.43 165.74 213.20 169.44 210.44 C 174.36 206.73 179.02 203.08 181.90 197.47 Z" fill="#29293f" />
<path d="M 85.86 198.86 C 85.37 201.00 84.78 203.11 84.10 205.20 C 85.63 205.78 87.13 206.39 88.59 207.13 C 87.06 207.47 85.52 207.75 83.98 208.07 C 83.85 210.07 83.95 212.03 84.19 214.02 C 84.80 213.32 85.42 212.63 86.03 211.93 C 86.34 213.21 86.61 214.49 86.96 215.75 C 84.64 216.94 85.78 218.96 87.98 219.22 L 89.07 220.05 C 88.38 221.08 87.69 222.12 86.99 223.15 C 85.81 221.76 84.64 220.36 83.45 218.96 C 80.07 220.13 76.80 220.87 73.23 221.18 C 71.70 218.96 70.13 216.77 68.58 214.55 C 67.46 212.96 66.40 211.32 65.39 209.65 C 67.84 208.34 70.43 207.35 72.98 206.27 C 73.62 208.33 74.29 209.95 76.05 211.33 C 80.31 211.76 80.76 208.80 82.53 205.88 C 81.87 205.12 81.21 204.36 80.57 203.59 L 80.13 202.99 C 82.06 201.66 84.01 200.31 85.86 198.86 Z" fill="#93797c" />
<path d="M 146.73 198.89 C 149.75 199.38 150.62 200.54 152.19 202.96 C 149.75 201.96 147.39 201.94 146.73 198.89 Z" fill="#d0cdcb" />
<path d="M 77.21 199.51 C 78.32 200.56 79.26 201.73 80.13 202.99 L 80.57 203.59 C 79.97 203.61 79.37 203.65 78.77 203.70 C 77.89 206.25 77.05 208.82 76.05 211.33 C 74.29 209.95 73.62 208.33 72.98 206.27 L 74.09 205.58 C 75.22 203.59 76.16 201.53 77.21 199.51 Z" fill="#b1ada5" />
<path d="M 137.76 202.27 C 139.35 203.96 140.72 205.91 142.43 207.48 C 143.22 208.28 143.96 208.04 144.91 207.74 C 147.45 206.77 149.82 205.20 152.13 203.78 C 152.01 205.88 151.97 207.98 152.04 210.09 C 153.73 208.09 155.12 205.91 156.42 203.64 C 157.14 205.55 157.98 207.17 157.27 209.24 C 156.29 212.95 153.62 215.03 150.60 217.11 C 150.14 217.43 149.68 217.75 149.22 218.07 C 148.22 218.74 147.22 219.42 146.20 220.06 C 143.86 219.06 141.63 217.93 139.48 216.58 C 133.71 219.97 125.55 221.82 120.03 216.97 C 120.89 216.14 121.74 215.30 122.58 214.47 C 123.12 213.95 123.65 213.42 124.19 212.90 C 125.82 213.17 127.62 213.53 129.27 213.33 C 131.69 210.01 134.47 206.45 136.21 202.71 C 136.72 202.55 137.24 202.41 137.76 202.27 Z" fill="#a39090" />
<path d="M 78.77 203.70 C 79.37 203.65 79.97 203.61 80.57 203.59 C 81.21 204.36 81.87 205.12 82.53 205.88 C 80.76 208.80 80.31 211.76 76.05 211.33 C 77.05 208.82 77.89 206.25 78.77 203.70 Z" fill="#e8e6e3" />
<path d="M 183.48 204.97 C 183.66 207.42 184.04 209.67 185.09 211.90 C 184.45 213.58 183.87 215.24 183.06 216.85 C 180.48 219.21 178.25 221.92 175.68 224.28 C 173.85 224.30 172.13 222.11 171.00 220.87 C 169.68 219.45 170.18 217.69 170.11 215.92 C 173.00 213.39 175.40 210.37 177.61 207.25 C 179.58 206.51 181.52 205.73 183.48 204.97 Z" fill="#705a5b" />
<path d="M 88.59 207.13 C 90.33 208.36 92.12 209.50 93.93 210.63 C 91.96 212.06 90.01 213.50 88.14 215.06 C 88.89 216.03 89.67 216.96 90.49 217.87 C 90.02 218.60 89.54 219.32 89.07 220.05 L 87.98 219.22 C 87.89 217.96 87.55 216.81 86.96 215.75 C 86.61 214.49 86.34 213.21 86.03 211.93 C 85.62 210.49 84.84 209.29 83.98 208.07 C 85.52 207.75 87.06 207.47 88.59 207.13 Z" fill="#242336" />
<path d="M 83.98 208.07 C 84.84 209.29 85.62 210.49 86.03 211.93 C 85.42 212.63 84.80 213.32 84.19 214.02 C 83.95 212.03 83.85 210.07 83.98 208.07 Z" fill="#c6c3c0" />
<path d="M 118.20 209.44 C 118.21 210.73 118.17 212.03 118.16 213.33 C 118.11 216.17 118.53 219.05 118.89 221.88 C 116.97 221.54 112.68 222.39 112.22 219.77 C 111.25 216.99 114.99 214.26 116.33 212.14 L 116.14 210.96 L 115.99 209.98 C 116.72 209.79 117.46 209.61 118.20 209.44 Z" fill="#c5c3c2" />
<path d="M 118.16 213.33 C 119.64 213.69 121.11 214.08 122.58 214.47 C 121.74 215.30 120.89 216.14 120.03 216.97 C 125.55 221.82 133.71 219.97 139.48 216.58 C 141.63 217.93 143.86 219.06 146.20 220.06 L 145.15 220.62 C 143.00 221.49 140.59 222.23 138.67 223.55 C 138.48 224.52 138.40 225.49 138.32 226.47 C 135.74 226.55 134.65 227.84 133.08 229.66 C 130.42 228.74 127.42 228.43 124.95 227.11 C 122.73 225.68 120.88 223.62 118.89 221.88 C 118.53 219.05 118.11 216.17 118.16 213.33 Z" fill="#504a42" />
<path d="M 170.14 212.69 C 168.57 214.88 167.23 216.05 164.80 217.23 C 166.38 215.11 167.79 213.90 170.14 212.69 Z" fill="#93919a" />
<path d="M 54.00 218.99 C 50.19 218.87 47.84 218.54 45.00 215.78 C 48.43 214.32 51.27 217.36 54.00 218.99 Z" fill="#9c9ba5" />
<path d="M 68.58 214.55 C 70.13 216.77 71.70 218.96 73.23 221.18 C 76.80 220.87 80.07 220.13 83.45 218.96 C 84.64 220.36 85.81 221.76 86.99 223.15 C 87.69 222.12 88.38 221.08 89.07 220.05 C 89.54 219.32 90.02 218.60 90.49 217.87 C 92.16 219.18 94.15 220.39 95.50 222.03 C 95.63 223.69 95.54 225.41 95.50 227.08 C 94.01 227.44 92.52 227.81 91.03 228.16 C 91.63 228.79 92.21 229.44 92.80 230.09 L 94.09 231.41 C 88.38 233.08 82.75 231.34 77.05 230.31 C 73.03 227.29 68.87 224.80 65.40 221.09 C 66.07 218.60 66.93 216.55 68.58 214.55 Z" fill="#88696c" />
<path d="M 86.96 215.75 C 87.55 216.81 87.89 217.96 87.98 219.22 C 85.78 218.96 84.64 216.94 86.96 215.75 Z" fill="#e8e5e4" />
<path d="M 170.11 215.92 C 170.18 217.69 169.68 219.45 171.00 220.87 C 172.13 222.11 173.85 224.30 175.68 224.28 C 178.25 221.92 180.48 219.21 183.06 216.85 C 180.89 221.96 176.63 225.03 172.39 228.40 C 169.92 230.46 166.13 229.65 163.24 229.10 C 159.43 228.08 155.51 226.82 152.01 225.00 C 149.23 223.80 149.76 220.56 149.22 218.07 C 149.68 217.75 150.14 217.43 150.60 217.11 C 151.19 217.93 151.77 218.75 152.37 219.56 C 154.73 219.62 157.09 219.73 159.44 219.92 C 160.44 220.34 161.63 221.36 162.73 220.80 C 165.44 219.79 167.91 217.76 170.11 215.92 Z" fill="#87696c" />
<path d="M 96.58 216.75 C 99.34 220.63 103.01 223.26 101.68 228.56 C 100.04 230.57 96.46 230.66 94.09 231.41 L 92.80 230.09 C 93.99 228.72 96.03 227.38 96.58 225.64 C 96.85 222.71 96.61 219.70 96.58 216.75 Z" fill="#20233f" />
<path d="M 145.15 220.62 C 144.99 222.01 145.41 224.14 144.07 225.02 C 142.46 226.02 140.15 226.08 138.32 226.47 C 138.40 225.49 138.48 224.52 138.67 223.55 C 140.59 222.23 143.00 221.49 145.15 220.62 Z" fill="#8e8782" />
</svg>