<?xml version="1.0" encoding="UTF-8" standalone="no"?>
<!DOCTYPE svg PUBLIC "-//W3C//DTD SVG 1.1//EN" "http://www.w3.org/Graphics/SVG/1.1/DTD/svg11.dtd">
<svg xmlns="http://www.w3.org/2000/svg" version="1.1" viewBox="0 0 256 256" width="256.0pt" height="256.0pt">
<path d="M 0.00 0.00 L 256.00 0.00 L 256.00 256.00 L 0.00 256.00 L 0.00 0.00 Z" fill="#fefefe" />
<path d="M 103.00 13.88 C 107.18 13.83 111.24 14.29 115.20 15.69 C 121.12 17.76 127.41 19.22 133.07 21.90 C 137.62 23.97 140.62 28.81 143.22 32.90 C 147.36 39.48 148.26 46.65 151.37 53.59 C 152.17 55.23 153.09 57.22 154.57 58.36 C 156.66 59.52 159.22 59.95 161.52 60.58 C 162.08 62.05 162.63 63.53 163.23 64.99 C 162.27 64.32 161.30 63.68 160.32 63.05 C 161.85 67.61 159.99 71.23 159.96 75.72 C 159.88 77.22 160.55 77.99 162.00 78.05 C 162.19 79.72 162.43 81.38 162.79 83.02 L 163.67 84.41 C 164.53 85.83 165.27 87.32 165.96 88.83 C 167.71 92.93 169.67 97.11 172.20 100.79 L 172.96 101.89 C 174.59 105.14 176.50 108.22 178.52 111.24 C 178.89 111.87 179.26 112.50 179.65 113.12 L 180.08 113.81 L 180.84 114.96 C 181.87 116.67 182.90 118.39 184.07 120.01 C 183.81 123.63 183.52 127.01 184.44 130.57 C 185.83 136.22 189.05 140.54 189.44 146.13 C 189.69 149.81 189.71 153.46 190.48 157.09 C 189.49 157.39 188.50 157.69 187.51 157.98 C 184.89 158.66 182.21 158.82 179.51 158.73 C 176.88 158.34 174.04 158.43 171.51 157.61 C 170.23 156.65 169.41 155.00 168.46 153.72 C 166.65 153.35 164.44 153.24 162.88 152.21 C 161.41 149.55 160.70 146.40 159.85 143.50 C 160.77 141.31 163.18 142.54 164.76 143.17 C 169.98 145.87 174.31 150.55 178.94 154.16 C 178.10 150.22 177.41 146.28 175.04 142.92 C 172.80 139.81 169.42 137.29 166.54 134.78 C 169.17 134.61 171.99 134.95 174.58 134.54 C 175.98 133.71 177.05 132.24 178.17 131.07 C 175.47 128.05 172.59 126.74 168.53 127.46 C 166.40 129.50 164.47 131.75 162.34 133.79 C 159.18 132.57 155.88 132.15 152.61 131.39 C 154.84 127.80 156.96 124.18 158.98 120.46 C 163.15 121.31 166.34 120.34 170.08 118.56 C 169.05 116.31 168.07 113.42 166.17 111.78 C 164.18 110.73 161.62 109.49 159.34 109.49 C 156.90 110.30 157.12 112.29 156.49 114.39 C 155.39 120.26 153.17 125.89 150.47 131.20 C 148.56 130.45 146.67 129.72 144.72 129.08 C 144.76 123.71 145.36 118.16 147.00 113.03 C 148.14 109.35 152.72 106.87 153.56 103.18 C 153.06 101.61 152.35 100.71 150.90 99.91 C 149.41 100.09 147.97 100.93 146.81 101.83 C 145.38 105.25 145.08 109.25 144.66 112.90 C 144.25 118.97 143.13 124.96 142.83 131.03 C 142.96 133.31 143.23 135.56 143.31 137.83 C 142.55 139.65 141.69 141.42 140.67 143.11 C 135.64 140.50 130.35 137.66 126.10 133.88 C 123.04 131.14 121.37 127.62 119.06 124.27 C 121.37 124.73 123.64 125.31 125.86 126.10 C 130.24 131.43 133.92 136.97 140.08 140.32 C 136.60 136.08 132.62 132.38 129.58 127.76 C 129.73 127.01 129.88 126.25 130.03 125.50 C 128.23 123.43 126.41 121.69 125.80 118.90 C 125.11 115.96 124.18 114.11 122.35 111.73 C 119.78 108.42 118.78 104.59 118.04 100.54 C 120.70 101.51 123.38 102.40 126.03 103.37 C 126.81 103.64 127.60 103.90 128.39 104.15 C 131.80 105.24 135.28 105.92 138.88 105.66 C 137.77 104.43 136.65 103.21 135.42 102.10 C 134.91 100.52 134.28 99.05 133.31 97.70 C 130.84 94.04 128.79 90.18 126.68 86.31 C 128.40 83.54 129.98 80.66 132.66 78.71 C 135.03 76.98 137.61 75.51 140.09 73.95 C 139.57 71.94 138.86 69.98 138.36 67.96 C 139.58 67.86 140.79 67.76 142.01 67.67 C 141.39 66.36 140.77 65.06 140.15 63.77 C 136.67 64.94 133.55 66.76 130.29 68.40 C 130.98 66.95 131.68 65.50 132.39 64.06 C 133.23 62.93 134.12 61.86 135.02 60.77 C 134.66 59.89 134.27 59.02 133.86 58.16 C 134.55 58.90 135.24 59.63 135.95 60.35 C 137.55 58.66 139.05 56.91 140.36 54.98 C 137.53 54.57 134.69 54.46 131.85 54.17 C 131.45 53.03 131.10 51.87 130.75 50.71 C 133.14 51.25 135.38 51.82 137.80 51.06 C 140.55 49.58 142.18 46.39 141.64 43.32 C 140.96 41.41 138.83 39.96 137.38 38.61 C 135.16 36.86 133.77 34.80 130.81 34.43 C 130.29 32.79 129.77 31.17 129.21 29.54 C 128.28 32.02 129.51 37.02 126.97 38.31 C 122.64 35.36 120.02 31.17 115.90 28.10 C 110.13 23.41 101.16 22.45 94.01 22.01 C 86.32 22.93 78.73 26.72 73.67 32.65 C 71.62 35.00 69.66 37.33 67.26 39.35 C 63.74 42.10 62.45 45.99 59.73 49.72 C 54.13 56.64 51.14 65.61 46.83 73.42 C 47.42 65.91 51.74 60.76 53.90 53.81 C 50.92 56.62 49.22 60.05 47.85 63.85 C 46.40 67.88 44.30 71.58 42.53 75.47 C 41.06 78.78 40.95 82.82 40.60 86.40 C 40.52 90.75 38.74 93.76 36.74 97.42 C 35.73 101.13 34.96 104.67 33.22 108.15 C 30.55 115.71 28.67 124.30 27.81 132.28 C 27.64 133.25 27.48 134.23 27.31 135.20 C 25.44 136.88 23.15 138.79 22.10 141.11 C 20.45 145.15 20.56 149.34 21.43 153.55 C 22.51 158.42 22.50 163.30 22.84 168.25 C 23.16 174.31 25.08 179.84 24.73 185.69 C 24.59 188.44 24.34 191.17 24.29 193.92 C 23.79 199.57 25.67 204.38 27.33 209.64 C 28.22 212.51 30.58 215.05 32.63 217.19 C 31.91 217.22 31.18 217.26 30.46 217.30 C 33.11 220.63 35.27 223.94 39.57 225.25 C 43.28 226.22 47.11 227.25 50.94 227.50 L 52.76 227.48 C 58.66 227.61 64.49 227.13 70.19 225.54 C 66.60 222.23 62.35 221.20 57.84 219.30 C 58.03 212.85 56.17 207.02 57.96 200.61 C 57.17 201.95 56.43 203.33 55.70 204.70 C 54.15 204.45 52.61 204.20 51.07 203.94 C 50.53 198.39 52.97 194.27 55.35 189.55 C 56.33 187.92 57.41 186.37 58.44 184.77 C 57.84 182.55 57.25 180.33 56.67 178.11 C 56.99 177.27 57.29 176.42 57.56 175.56 C 60.42 175.02 63.20 174.15 66.09 173.78 C 65.35 180.37 63.66 186.71 62.03 193.12 C 61.13 196.34 61.52 199.41 62.19 202.62 C 62.72 206.66 64.33 210.58 65.78 214.35 C 67.74 218.24 72.17 221.07 75.85 223.17 C 79.24 225.17 82.89 225.22 86.44 226.67 C 90.05 228.12 94.04 229.81 97.99 229.83 C 100.84 229.66 103.53 228.81 106.25 227.99 C 111.41 229.28 115.71 227.04 120.82 227.11 C 123.87 227.13 126.92 227.37 129.96 227.61 L 131.45 227.80 C 140.48 234.82 150.79 235.71 161.80 235.88 C 168.39 236.38 174.36 235.99 180.27 232.79 C 179.60 231.79 178.94 230.79 178.23 229.82 C 176.82 228.33 175.29 226.99 173.73 225.67 L 175.12 224.93 C 176.23 223.56 174.12 222.89 173.14 222.53 L 171.80 222.00 C 177.48 220.52 183.25 219.46 188.93 218.02 C 194.55 216.67 198.67 212.70 204.21 210.97 C 203.13 212.10 202.11 213.28 201.01 214.39 C 199.63 215.20 198.23 215.97 196.84 216.77 C 195.94 217.28 195.03 217.79 194.12 218.29 C 191.00 220.08 187.62 220.80 184.23 221.87 L 183.89 223.53 L 185.96 223.53 C 190.70 221.63 194.70 223.16 199.86 222.85 C 203.14 222.62 205.71 224.03 208.69 225.10 C 212.89 226.69 217.74 226.09 222.12 225.80 C 220.43 223.71 218.18 221.50 217.33 218.91 C 216.52 216.55 215.75 214.20 214.54 211.99 C 211.77 213.52 208.98 215.02 206.09 216.33 C 208.06 214.15 210.09 212.04 212.32 210.13 C 212.77 209.76 213.22 209.39 213.68 209.02 C 215.00 207.99 216.34 206.97 217.68 205.97 C 220.44 208.66 223.36 210.02 227.06 210.98 C 228.60 211.21 229.81 212.23 230.97 210.70 C 230.79 205.93 229.63 201.13 228.51 196.50 C 227.51 195.98 226.51 195.51 225.47 195.06 C 223.49 198.91 221.47 202.43 218.08 205.23 C 218.64 203.77 219.21 202.31 219.84 200.87 C 221.11 197.85 223.07 195.28 224.51 192.36 C 224.76 191.56 224.99 190.75 225.18 189.93 C 225.89 186.10 227.00 180.38 223.75 177.41 L 223.34 176.98 C 222.70 176.67 222.05 176.38 221.40 176.10 C 222.37 174.09 223.59 172.54 222.93 170.17 C 221.76 165.48 219.15 161.06 216.76 156.90 C 215.64 155.27 214.27 153.89 212.87 152.50 C 213.98 151.01 215.14 149.55 216.25 148.05 C 213.03 148.45 209.90 149.15 206.79 150.06 C 205.72 148.38 204.75 146.63 203.78 144.88 C 203.77 143.60 203.83 142.33 203.97 141.06 C 204.69 137.95 205.59 134.90 206.18 131.76 C 212.93 125.37 220.69 118.35 224.88 109.95 C 226.37 107.05 227.09 104.11 228.15 101.03 C 231.79 96.18 234.72 91.27 235.27 85.08 C 235.13 82.96 233.06 80.90 231.95 79.13 C 231.21 79.86 230.47 80.59 229.74 81.32 C 228.05 77.29 226.02 74.10 226.80 69.54 C 226.24 69.98 225.67 70.41 225.11 70.85 C 223.04 68.12 220.84 65.50 218.64 62.88 C 216.89 66.48 215.41 70.18 213.87 73.87 C 212.90 75.81 211.96 78.04 210.45 79.62 C 209.15 80.67 207.37 81.07 206.07 82.11 C 204.66 84.39 204.03 87.21 202.50 89.43 C 199.64 91.24 196.48 92.47 193.72 94.49 C 188.75 94.86 183.99 91.84 180.96 88.09 C 175.31 81.11 168.00 74.30 163.93 66.33 C 164.28 65.00 164.62 63.66 164.96 62.33 C 167.59 63.50 170.40 64.66 172.81 66.25 C 177.29 69.18 180.60 74.19 185.26 76.70 C 188.65 78.51 192.44 78.60 195.87 76.86 C 203.29 73.13 207.36 67.06 211.99 60.50 C 213.15 60.98 214.32 61.47 215.48 61.94 C 217.42 61.16 219.46 60.11 221.61 60.36 C 225.43 60.86 229.15 62.55 232.36 64.64 C 236.13 67.11 238.17 70.90 240.35 74.70 C 241.92 77.63 243.69 80.68 243.64 84.10 C 243.62 87.55 243.00 91.02 242.29 94.38 C 240.87 101.61 236.57 108.51 232.76 114.77 C 228.31 120.70 222.35 127.65 222.42 135.58 C 223.82 146.60 230.25 157.03 231.97 168.04 C 232.76 172.89 233.53 177.74 234.47 182.57 C 235.87 189.53 236.03 196.36 236.60 203.47 C 236.86 206.44 236.16 209.22 235.33 212.05 C 234.33 210.67 233.37 209.26 232.37 207.87 C 232.16 212.00 233.19 216.97 230.55 220.46 C 228.47 223.46 226.09 226.95 222.89 228.81 C 217.99 231.43 212.76 233.25 207.14 233.18 C 200.71 233.17 194.35 234.24 188.30 236.43 C 184.01 238.03 180.05 240.32 175.66 241.73 C 166.17 245.05 155.39 244.71 145.74 242.22 C 137.78 240.09 129.57 238.91 121.46 237.47 C 112.45 235.94 104.54 239.51 95.56 237.37 C 87.90 235.50 79.97 234.45 72.10 234.28 C 62.99 234.76 54.57 236.18 45.38 234.64 C 39.85 233.75 35.32 231.16 30.36 228.75 C 31.05 228.36 31.74 227.97 32.43 227.57 C 29.80 226.24 27.33 224.90 25.51 222.48 C 18.16 212.72 16.21 201.62 15.36 189.72 C 14.78 179.78 14.27 169.88 12.96 160.00 C 12.05 153.54 12.86 147.53 13.18 141.05 C 13.52 130.55 18.93 120.16 21.88 109.87 C 26.55 97.57 29.56 84.81 34.58 72.64 C 37.70 63.34 41.73 54.55 47.74 46.74 C 51.17 42.54 55.16 38.83 58.65 34.67 C 65.52 26.62 73.78 19.32 83.93 15.82 C 90.27 13.38 96.35 13.98 103.00 13.88 Z" fill="#f4f3f1" />
<path d="M 94.01 22.01 C 101.16 22.45 110.13 23.41 115.90 28.10 C 120.02 31.17 122.64 35.36 126.97 38.31 C 129.51 37.02 128.28 32.02 129.21 29.54 C 129.77 31.17 130.29 32.79 130.81 34.43 C 133.77 34.80 135.16 36.86 137.38 38.61 C 138.83 39.96 140.96 41.41 141.64 43.32 C 142.18 46.39 140.55 49.58 137.80 51.06 C 135.38 51.82 133.14 51.25 130.75 50.71 C 127.29 49.02 124.14 46.79 121.44 44.04 C 120.15 41.46 119.22 38.78 118.15 36.11 C 116.93 32.73 115.27 29.80 112.11 27.90 C 106.58 24.60 99.42 22.43 93.00 23.84 C 86.26 24.94 80.16 28.17 75.19 32.82 C 68.14 40.69 62.43 49.53 58.46 59.34 C 55.65 64.33 53.70 69.56 51.97 75.00 C 48.79 83.67 46.23 92.54 44.54 101.63 C 43.09 106.93 41.79 112.18 41.70 117.71 C 41.65 122.56 40.78 127.31 40.53 132.14 C 39.75 143.36 39.35 154.68 39.68 165.93 C 40.36 172.82 41.77 179.94 43.61 186.62 C 44.90 184.63 46.17 182.63 47.50 180.66 L 48.11 181.78 C 47.62 183.16 47.11 184.53 46.60 185.90 C 47.12 186.89 47.64 187.87 48.16 188.85 C 48.95 187.60 49.71 186.34 50.46 185.07 C 51.83 182.76 53.16 180.42 54.50 178.09 C 55.49 177.22 56.53 176.39 57.56 175.56 C 57.29 176.42 56.99 177.27 56.67 178.11 C 55.64 180.44 54.23 182.69 53.48 185.13 C 53.56 186.66 54.73 188.17 55.35 189.55 C 52.97 194.27 50.53 198.39 51.07 203.94 C 52.61 204.20 54.15 204.45 55.70 204.70 C 56.43 203.33 57.17 201.95 57.96 200.61 C 56.17 207.02 58.03 212.85 57.84 219.30 C 57.19 219.82 56.55 220.35 55.92 220.91 C 53.77 222.75 52.34 225.07 50.94 227.50 C 47.11 227.25 43.28 226.22 39.57 225.25 C 35.27 223.94 33.11 220.63 30.46 217.30 C 31.18 217.26 31.91 217.22 32.63 217.19 C 30.58 215.05 28.22 212.51 27.33 209.64 C 25.67 204.38 23.79 199.57 24.29 193.92 C 24.43 191.99 24.50 190.06 24.61 188.13 C 25.41 188.59 26.20 189.05 26.99 189.51 C 26.25 185.27 25.84 180.99 25.14 176.74 C 24.34 172.98 26.37 168.97 26.77 165.20 C 27.09 162.92 26.14 160.41 25.74 158.14 C 24.53 154.30 27.96 151.77 27.69 147.63 C 27.24 146.17 26.68 144.75 26.27 143.27 C 26.86 143.40 27.44 143.52 28.03 143.65 C 28.87 139.44 30.24 135.40 31.69 131.36 C 32.50 129.28 32.19 127.33 31.82 125.20 C 30.43 127.53 29.13 129.91 27.81 132.28 C 28.67 124.30 30.55 115.71 33.22 108.15 C 34.96 104.67 35.73 101.13 36.74 97.42 C 38.74 93.76 40.52 90.75 40.60 86.40 C 43.21 82.29 45.43 78.10 46.83 73.42 C 51.14 65.61 54.13 56.64 59.73 49.72 C 62.45 45.99 63.74 42.10 67.26 39.35 C 69.66 37.33 71.62 35.00 73.67 32.65 C 78.73 26.72 86.32 22.93 94.01 22.01 Z" fill="#232541" />
<path d="M 93.00 23.84 C 99.42 22.43 106.58 24.60 112.11 27.90 C 115.27 29.80 116.93 32.73 118.15 36.11 C 117.16 35.56 116.15 35.03 115.13 34.53 C 112.67 33.28 110.27 32.13 107.48 31.88 C 100.80 31.28 94.13 30.89 87.63 32.85 C 84.69 35.44 81.93 38.23 78.93 40.75 C 77.95 40.63 76.98 40.53 76.00 40.45 C 75.73 37.91 75.51 35.36 75.19 32.82 C 80.16 28.17 86.26 24.94 93.00 23.84 Z" fill="#bfb0cd" />
<path d="M 131.08 26.18 C 132.78 26.36 132.39 28.69 130.91 28.93 C 129.19 28.73 129.59 26.42 131.08 26.18 Z" fill="#6d6d7d" />
<path d="M 107.48 31.88 C 110.27 32.13 112.67 33.28 115.13 34.53 C 114.24 37.31 113.67 40.11 113.33 43.00 L 113.14 44.46 C 112.74 47.01 112.21 49.54 111.69 52.07 C 107.53 50.40 105.43 47.07 102.23 44.28 C 99.17 43.69 96.47 44.47 93.78 42.43 C 90.86 40.46 90.54 37.55 89.93 34.38 C 89.08 34.44 88.23 34.50 87.37 34.56 C 87.46 33.99 87.54 33.42 87.63 32.85 C 94.13 30.89 100.80 31.28 107.48 31.88 Z" fill="#e7e2e8" />
<path d="M 75.19 32.82 C 75.51 35.36 75.73 37.91 76.00 40.45 C 73.22 44.27 71.77 50.20 67.45 52.34 C 64.05 54.23 61.61 57.15 58.46 59.34 C 62.43 49.53 68.14 40.69 75.19 32.82 Z" fill="#e9e8ec" />
<path d="M 87.63 32.85 C 87.54 33.42 87.46 33.99 87.37 34.56 C 88.23 34.50 89.08 34.44 89.93 34.38 C 90.54 37.55 90.86 40.46 93.78 42.43 C 96.47 44.47 99.17 43.69 102.23 44.28 C 105.43 47.07 107.53 50.40 111.69 52.07 C 112.21 49.54 112.74 47.01 113.14 44.46 C 113.21 46.64 113.40 48.82 113.43 51.00 C 113.11 52.40 112.78 53.81 112.46 55.22 C 112.13 55.43 111.81 55.65 111.48 55.86 C 107.87 54.64 104.45 55.28 100.80 55.90 C 100.39 57.28 99.97 58.66 99.54 60.04 C 98.09 57.67 96.78 55.28 95.59 52.77 C 95.95 51.48 96.31 50.20 96.69 48.92 C 93.98 46.16 91.93 43.90 87.85 43.69 C 85.13 41.82 82.17 41.14 78.93 40.75 C 81.93 38.23 84.69 35.44 87.63 32.85 Z" fill="#d7cedd" />
<path d="M 115.13 34.53 C 116.15 35.03 117.16 35.56 118.15 36.11 C 119.22 38.78 120.15 41.46 121.44 44.04 C 120.73 44.19 120.02 44.35 119.31 44.51 C 117.87 43.47 116.50 42.34 115.01 41.40 C 114.43 41.92 113.88 42.46 113.33 43.00 C 113.67 40.11 114.24 37.31 115.13 34.53 Z" fill="#d5c6a7" />
<path d="M 76.00 40.45 C 76.98 40.53 77.95 40.63 78.93 40.75 C 82.17 41.14 85.13 41.82 87.85 43.69 C 91.93 43.90 93.98 46.16 96.69 48.92 C 96.31 50.20 95.95 51.48 95.59 52.77 C 96.78 55.28 98.09 57.67 99.54 60.04 C 99.97 58.66 100.39 57.28 100.80 55.90 C 104.45 55.28 107.87 54.64 111.48 55.86 C 111.81 55.65 112.13 55.43 112.46 55.22 C 112.87 56.04 113.30 56.87 113.70 57.71 C 116.03 69.05 121.60 79.90 127.07 90.03 C 125.35 90.14 123.61 90.21 121.90 90.44 C 121.54 91.47 121.23 92.51 120.91 93.55 C 120.07 92.74 119.22 91.92 118.37 91.11 C 117.88 93.12 117.39 95.14 116.89 97.15 C 110.30 94.05 103.72 90.52 98.98 84.85 C 97.28 81.23 98.93 78.47 99.81 74.93 C 98.96 73.91 98.11 72.89 97.27 71.87 C 95.25 72.69 93.22 73.44 91.12 74.02 C 92.43 77.57 93.85 81.07 95.25 84.58 C 95.94 86.04 95.30 87.25 94.85 88.67 C 93.53 92.07 92.24 95.48 90.88 98.86 C 88.65 98.38 87.20 97.98 86.30 95.69 C 84.09 89.45 83.06 82.56 82.82 75.96 C 82.70 73.25 84.05 70.80 85.36 68.53 C 88.59 63.26 91.61 57.74 93.97 52.02 C 89.15 58.44 85.64 65.49 82.29 72.75 C 80.07 78.50 80.93 84.10 82.28 89.94 C 83.38 94.28 85.36 98.25 88.95 101.07 C 94.55 96.87 94.91 91.17 96.96 85.01 C 103.09 91.21 110.46 96.31 118.04 100.54 C 118.78 104.59 119.78 108.42 122.35 111.73 C 124.18 114.11 125.11 115.96 125.80 118.90 C 126.41 121.69 128.23 123.43 130.03 125.50 C 129.88 126.25 129.73 127.01 129.58 127.76 C 125.32 122.80 122.04 117.23 118.18 112.00 C 119.43 115.03 120.86 117.99 122.42 120.87 C 121.73 121.45 121.03 122.03 120.34 122.61 C 113.22 116.98 110.28 108.44 102.92 103.00 C 104.01 106.51 105.35 109.91 106.62 113.34 C 103.55 110.62 101.88 107.28 100.10 103.67 C 99.40 102.31 97.46 99.69 95.72 100.88 C 94.35 102.97 94.44 106.08 94.58 108.48 C 94.73 112.54 97.45 114.80 98.81 118.60 C 97.78 121.73 96.47 124.74 94.99 127.69 C 93.88 123.77 92.92 120.48 89.61 117.82 C 89.74 122.90 89.40 127.67 87.82 132.54 C 85.87 129.56 84.44 126.38 82.82 123.22 C 80.44 118.48 76.80 114.21 73.62 109.88 C 70.39 120.74 72.97 130.24 73.77 141.09 C 70.83 134.31 69.78 127.17 69.86 119.80 C 69.63 113.86 71.52 108.59 73.14 102.97 C 74.96 96.83 74.66 90.53 76.23 84.36 C 76.87 81.75 77.68 79.19 78.43 76.61 C 76.65 74.84 74.52 73.27 73.86 70.74 C 73.12 68.64 72.93 66.01 71.67 64.17 C 69.28 62.75 66.02 62.51 63.28 62.25 C 63.33 61.18 63.40 60.11 63.46 59.03 C 59.65 66.15 55.71 72.41 54.71 80.60 C 53.78 88.41 51.00 95.72 50.33 103.57 C 49.53 111.68 51.09 120.28 52.11 128.33 C 53.34 138.00 53.70 149.17 58.24 157.80 C 60.48 162.36 62.28 167.09 64.36 171.72 C 61.89 172.71 59.53 173.71 57.56 175.56 C 56.53 176.39 55.49 177.22 54.50 178.09 C 55.05 175.42 55.49 172.70 55.58 169.97 C 55.72 166.10 54.30 162.42 53.26 158.75 C 50.87 150.89 49.44 142.92 48.10 134.83 C 47.06 127.07 45.58 119.69 46.23 111.80 C 46.57 108.22 45.68 104.98 44.54 101.63 C 46.23 92.54 48.79 83.67 51.97 75.00 C 53.70 69.56 55.65 64.33 58.46 59.34 C 61.61 57.15 64.05 54.23 67.45 52.34 C 71.77 50.20 73.22 44.27 76.00 40.45 Z" fill="#cbbdd4" />
<path d="M 115.01 41.40 C 116.50 42.34 117.87 43.47 119.31 44.51 C 120.02 44.35 120.73 44.19 121.44 44.04 C 124.14 46.79 127.29 49.02 130.75 50.71 C 131.10 51.87 131.45 53.03 131.85 54.17 C 132.43 55.55 133.13 56.86 133.86 58.16 C 134.27 59.02 134.66 59.89 135.02 60.77 C 134.12 61.86 133.23 62.93 132.39 64.06 C 132.65 60.19 131.99 57.87 129.79 54.72 C 126.83 52.01 124.70 52.11 120.92 52.44 C 119.61 49.58 117.89 47.90 115.24 46.24 C 114.58 47.80 113.97 49.39 113.43 51.00 C 113.40 48.82 113.21 46.64 113.14 44.46 L 113.33 43.00 C 113.88 42.46 114.43 41.92 115.01 41.40 Z" fill="#c5b37e" />
<path d="M 115.24 46.24 C 117.89 47.90 119.61 49.58 120.92 52.44 C 120.14 54.66 118.61 56.67 119.91 59.00 C 120.51 61.22 124.20 60.85 125.97 60.55 C 128.57 60.32 128.79 56.63 129.79 54.72 C 131.99 57.87 132.65 60.19 132.39 64.06 C 131.68 65.50 130.98 66.95 130.29 68.40 C 127.68 69.19 124.83 69.30 122.30 70.28 C 121.60 70.97 121.19 71.80 121.06 72.77 C 124.10 72.82 127.25 71.03 130.00 69.87 C 130.86 70.26 131.71 70.64 132.56 71.02 C 131.09 73.26 129.72 75.87 127.71 77.66 C 126.33 78.45 124.68 78.82 123.16 79.30 C 119.70 72.47 118.61 64.80 114.98 58.15 C 114.56 57.99 114.13 57.84 113.70 57.71 C 113.30 56.87 112.87 56.04 112.46 55.22 C 112.78 53.81 113.11 52.40 113.43 51.00 C 113.97 49.39 114.58 47.80 115.24 46.24 Z" fill="#c1a770" />
<path d="M 93.97 52.02 C 91.61 57.74 88.59 63.26 85.36 68.53 C 84.05 70.80 82.70 73.25 82.82 75.96 C 83.06 82.56 84.09 89.45 86.30 95.69 C 87.20 97.98 88.65 98.38 90.88 98.86 C 92.24 95.48 93.53 92.07 94.85 88.67 C 95.30 87.25 95.94 86.04 95.25 84.58 C 93.85 81.07 92.43 77.57 91.12 74.02 C 93.22 73.44 95.25 72.69 97.27 71.87 C 98.11 72.89 98.96 73.91 99.81 74.93 C 98.93 78.47 97.28 81.23 98.98 84.85 C 103.72 90.52 110.30 94.05 116.89 97.15 C 121.13 98.92 125.53 99.83 130.00 100.81 C 128.96 102.55 127.64 103.40 126.03 103.37 C 123.38 102.40 120.70 101.51 118.04 100.54 C 110.46 96.31 103.09 91.21 96.96 85.01 C 94.91 91.17 94.55 96.87 88.95 101.07 C 85.36 98.25 83.38 94.28 82.28 89.94 C 80.93 84.10 80.07 78.50 82.29 72.75 C 85.64 65.49 89.15 58.44 93.97 52.02 Z" fill="#211e39" />
<path d="M 129.79 54.72 C 128.79 56.63 128.57 60.32 125.97 60.55 C 124.20 60.85 120.51 61.22 119.91 59.00 C 118.61 56.67 120.14 54.66 120.92 52.44 C 124.70 52.11 126.83 52.01 129.79 54.72 Z" fill="#669a85" />
<path d="M 53.90 53.81 C 51.74 60.76 47.42 65.91 46.83 73.42 C 45.43 78.10 43.21 82.29 40.60 86.40 C 40.95 82.82 41.06 78.78 42.53 75.47 C 44.30 71.58 46.40 67.88 47.85 63.85 C 49.22 60.05 50.92 56.62 53.90 53.81 Z" fill="#b5a9c6" />
<path d="M 131.85 54.17 C 134.69 54.46 137.53 54.57 140.36 54.98 C 139.05 56.91 137.55 58.66 135.95 60.35 C 135.24 59.63 134.55 58.90 133.86 58.16 C 133.13 56.86 132.43 55.55 131.85 54.17 Z" fill="#191224" />
<path d="M 114.98 58.15 C 118.61 64.80 119.70 72.47 123.16 79.30 C 124.26 81.66 125.45 84.00 126.68 86.31 C 128.79 90.18 130.84 94.04 133.31 97.70 C 129.83 96.62 128.83 92.85 127.07 90.03 C 121.60 79.90 116.03 69.05 113.70 57.71 C 114.13 57.84 114.56 57.99 114.98 58.15 Z" fill="#544b57" />
<path d="M 63.46 59.03 C 63.40 60.11 63.33 61.18 63.28 62.25 C 66.02 62.51 69.28 62.75 71.67 64.17 C 72.93 66.01 73.12 68.64 73.86 70.74 C 74.52 73.27 76.65 74.84 78.43 76.61 C 77.68 79.19 76.87 81.75 76.23 84.36 C 74.66 90.53 74.96 96.83 73.14 102.97 C 71.52 108.59 69.63 113.86 69.86 119.80 C 67.56 119.55 65.26 119.33 62.95 119.14 C 62.27 114.97 62.32 110.92 62.80 106.73 C 61.12 106.88 59.44 107.05 57.77 107.23 C 57.03 106.16 56.30 105.09 55.55 104.03 C 52.74 112.06 54.06 120.18 52.11 128.33 C 51.09 120.28 49.53 111.68 50.33 103.57 C 51.00 95.72 53.78 88.41 54.71 80.60 C 55.71 72.41 59.65 66.15 63.46 59.03 Z" fill="#b3a0c7" />
<path d="M 135.99 61.36 L 136.83 61.35 L 137.28 62.06 L 136.88 62.79 L 136.03 62.80 L 135.58 62.09 L 135.99 61.36 Z" fill="#262416" />
<path d="M 160.32 63.05 C 161.30 63.68 162.27 64.32 163.23 64.99 L 163.93 66.33 C 168.00 74.30 175.31 81.11 180.96 88.09 C 183.99 91.84 188.75 94.86 193.72 94.49 C 194.97 94.44 196.22 94.34 197.47 94.24 C 197.07 95.27 196.67 96.30 196.28 97.32 C 197.14 96.96 197.98 96.58 198.82 96.18 L 199.93 97.22 C 201.28 97.92 203.34 99.39 204.92 99.03 C 211.02 95.85 215.82 91.11 219.08 85.03 C 217.35 83.76 215.62 82.48 213.91 81.19 C 214.84 79.27 215.60 77.27 216.25 75.23 L 214.71 76.12 C 214.44 75.36 214.16 74.62 213.87 73.87 C 215.41 70.18 216.89 66.48 218.64 62.88 C 220.84 65.50 223.04 68.12 225.11 70.85 C 225.67 70.41 226.24 69.98 226.80 69.54 C 226.02 74.10 228.05 77.29 229.74 81.32 C 230.47 80.59 231.21 79.86 231.95 79.13 C 233.06 80.90 235.13 82.96 235.27 85.08 C 234.72 91.27 231.79 96.18 228.15 101.03 C 228.11 99.99 228.07 98.96 228.01 97.92 C 222.57 104.15 216.16 109.12 211.60 116.14 C 212.94 117.72 214.30 119.29 215.64 120.87 C 214.70 121.32 213.77 121.79 212.85 122.28 C 211.60 121.77 210.34 121.26 209.09 120.76 C 208.13 121.24 207.18 121.71 206.24 122.20 C 206.37 121.46 206.50 120.73 206.63 119.99 C 206.92 117.95 207.52 115.53 206.48 113.63 C 203.89 108.25 198.87 106.63 195.45 101.77 C 193.23 101.81 191.00 101.83 188.77 101.81 L 190.46 101.22 C 192.95 100.55 195.19 99.67 197.42 98.36 C 192.76 98.07 188.18 97.94 183.65 96.73 C 185.04 97.87 186.45 98.98 187.92 100.02 C 184.77 105.11 184.28 110.60 183.63 116.40 C 182.70 115.91 181.77 115.43 180.84 114.96 L 180.08 113.81 C 182.51 113.65 180.77 110.92 179.65 113.12 C 179.26 112.50 178.89 111.87 178.52 111.24 C 178.27 109.71 178.18 107.96 177.53 106.55 C 176.52 104.66 174.58 103.24 172.96 101.89 L 172.20 100.79 L 173.87 101.12 C 171.61 96.22 169.26 91.21 166.07 86.84 L 165.96 88.83 C 165.27 87.32 164.53 85.83 163.67 84.41 C 164.57 83.96 164.98 83.24 164.90 82.23 C 164.14 80.22 162.61 81.27 162.79 83.02 C 162.43 81.38 162.19 79.72 162.00 78.05 C 162.01 76.79 161.33 76.02 159.96 75.72 C 159.99 71.23 161.85 67.61 160.32 63.05 Z" fill="#af9bc4" />
<path d="M 140.15 63.77 C 140.77 65.06 141.39 66.36 142.01 67.67 C 140.79 67.76 139.58 67.86 138.36 67.96 C 135.49 68.23 132.67 68.76 130.00 69.87 C 127.25 71.03 124.10 72.82 121.06 72.77 C 121.19 71.80 121.60 70.97 122.30 70.28 C 124.83 69.30 127.68 69.19 130.29 68.40 C 133.55 66.76 136.67 64.94 140.15 63.77 Z" fill="#131120" />
<path d="M 138.36 67.96 C 138.86 69.98 139.57 71.94 140.09 73.95 C 137.61 75.51 135.03 76.98 132.66 78.71 C 129.98 80.66 128.40 83.54 126.68 86.31 C 125.45 84.00 124.26 81.66 123.16 79.30 C 124.68 78.82 126.33 78.45 127.71 77.66 C 129.72 75.87 131.09 73.26 132.56 71.02 C 131.71 70.64 130.86 70.26 130.00 69.87 C 132.67 68.76 135.49 68.23 138.36 67.96 Z" fill="#769e8a" />
<path d="M 213.87 73.87 C 214.16 74.62 214.44 75.36 214.71 76.12 C 213.02 79.04 211.43 82.01 209.99 85.06 C 211.34 83.80 212.66 82.55 213.91 81.19 C 215.62 82.48 217.35 83.76 219.08 85.03 C 215.82 91.11 211.02 95.85 204.92 99.03 C 203.34 99.39 201.28 97.92 199.93 97.22 C 200.87 96.94 201.46 96.43 201.70 95.68 C 201.46 94.05 199.46 95.69 198.82 96.18 C 197.98 96.58 197.14 96.96 196.28 97.32 C 196.67 96.30 197.07 95.27 197.47 94.24 C 196.22 94.34 194.97 94.44 193.72 94.49 C 196.48 92.47 199.64 91.24 202.50 89.43 C 204.03 87.21 204.66 84.39 206.07 82.11 C 207.37 81.07 209.15 80.67 210.45 79.62 C 211.96 78.04 212.90 75.81 213.87 73.87 Z" fill="#c9bcd3" />
<path d="M 216.25 75.23 C 215.60 77.27 214.84 79.27 213.91 81.19 C 212.66 82.55 211.34 83.80 209.99 85.06 C 211.43 82.01 213.02 79.04 214.71 76.12 L 216.25 75.23 Z" fill="#e7dff2" />
<path d="M 159.96 75.72 C 161.33 76.02 162.01 76.79 162.00 78.05 C 160.55 77.99 159.88 77.22 159.96 75.72 Z" fill="#554b69" />
<path d="M 164.90 82.23 C 164.98 83.24 164.57 83.96 163.67 84.41 L 162.79 83.02 C 162.61 81.27 164.14 80.22 164.90 82.23 Z" fill="#352f47" />
<path d="M 223.07 83.97 C 220.95 93.01 214.45 100.74 205.78 104.13 C 209.34 99.98 213.74 97.26 216.83 92.85 C 218.92 89.89 220.79 86.80 223.07 83.97 Z" fill="#e4d8ed" />
<path d="M 210.86 85.59 C 209.68 88.29 208.59 90.01 205.95 91.51 C 207.29 89.15 208.82 87.35 210.86 85.59 Z" fill="#6b5f78" />
<path d="M 166.07 86.84 C 169.26 91.21 171.61 96.22 173.87 101.12 L 172.20 100.79 C 169.67 97.11 167.71 92.93 165.96 88.83 L 166.07 86.84 Z" fill="#3f3b5b" />
<path d="M 121.90 90.44 C 123.61 90.21 125.35 90.14 127.07 90.03 C 128.83 92.85 129.83 96.62 133.31 97.70 C 134.28 99.05 134.91 100.52 135.42 102.10 C 133.78 101.53 132.14 100.96 130.48 100.45 C 129.75 101.66 129.06 102.90 128.39 104.15 C 127.60 103.90 126.81 103.64 126.03 103.37 C 127.64 103.40 128.96 102.55 130.00 100.81 C 125.53 99.83 121.13 98.92 116.89 97.15 C 117.39 95.14 117.88 93.12 118.37 91.11 C 119.22 91.92 120.07 92.74 120.91 93.55 C 121.23 92.51 121.54 91.47 121.90 90.44 Z" fill="#dedce2" />
<path d="M 201.70 95.68 C 201.46 96.43 200.87 96.94 199.93 97.22 L 198.82 96.18 C 199.46 95.69 201.46 94.05 201.70 95.68 Z" fill="#524668" />
<path d="M 183.65 96.73 C 188.18 97.94 192.76 98.07 197.42 98.36 C 195.19 99.67 192.95 100.55 190.46 101.22 C 189.61 100.83 188.76 100.43 187.92 100.02 C 186.45 98.98 185.04 97.87 183.65 96.73 Z" fill="#56496b" />
<path d="M 228.01 97.92 C 228.07 98.96 228.11 99.99 228.15 101.03 C 227.09 104.11 226.37 107.05 224.88 109.95 C 220.69 118.35 212.93 125.37 206.18 131.76 C 204.07 132.89 201.90 133.88 199.70 134.81 C 199.74 133.89 199.79 132.98 199.86 132.06 C 201.52 128.55 204.03 125.38 206.24 122.20 C 207.18 121.71 208.13 121.24 209.09 120.76 C 210.34 121.26 211.60 121.77 212.85 122.28 C 213.77 121.79 214.70 121.32 215.64 120.87 C 214.30 119.29 212.94 117.72 211.60 116.14 C 216.16 109.12 222.57 104.15 228.01 97.92 Z" fill="#2e2c46" />
<path d="M 100.10 103.67 C 101.88 107.28 103.55 110.62 106.62 113.34 C 105.35 109.91 104.01 106.51 102.92 103.00 C 110.28 108.44 113.22 116.98 120.34 122.61 C 121.03 122.03 121.73 121.45 122.42 120.87 C 123.47 122.68 124.62 124.42 125.86 126.10 C 123.64 125.31 121.37 124.73 119.06 124.27 C 117.28 122.38 115.32 120.66 113.39 118.94 C 114.50 121.61 115.64 124.31 117.00 126.86 C 115.03 126.42 112.69 125.69 110.66 126.09 C 109.43 126.88 108.37 127.98 107.30 128.97 C 108.50 132.16 109.36 135.43 110.22 138.72 C 109.10 138.80 107.98 138.89 106.86 139.01 C 106.24 139.06 105.62 139.12 105.00 139.17 C 104.88 138.49 104.77 137.82 104.65 137.15 C 106.10 136.56 107.54 135.98 108.99 135.39 C 107.91 134.19 106.86 132.99 105.71 131.88 C 104.99 131.87 104.27 131.87 103.55 131.88 C 101.79 127.49 100.05 123.17 98.81 118.60 C 97.45 114.80 94.73 112.54 94.58 108.48 C 94.44 106.08 94.35 102.97 95.72 100.88 C 97.46 99.69 99.40 102.31 100.10 103.67 Z" fill="#ded7e1" />
<path d="M 150.90 99.91 C 152.35 100.71 153.06 101.61 153.56 103.18 C 152.72 106.87 148.14 109.35 147.00 113.03 C 145.36 118.16 144.76 123.71 144.72 129.08 C 144.08 129.72 143.45 130.37 142.83 131.03 C 143.13 124.96 144.25 118.97 144.66 112.90 C 145.08 109.25 145.38 105.25 146.81 101.83 C 147.97 100.93 149.41 100.09 150.90 99.91 Z" fill="#635129" />
<path d="M 187.92 100.02 C 188.76 100.43 189.61 100.83 190.46 101.22 L 188.77 101.81 C 191.00 101.83 193.23 101.81 195.45 101.77 C 198.87 106.63 203.89 108.25 206.48 113.63 C 207.52 115.53 206.92 117.95 206.63 119.99 C 199.48 120.40 193.18 118.47 186.43 116.55 C 186.19 117.33 185.95 118.11 185.72 118.89 C 185.05 118.04 184.36 117.21 183.63 116.40 C 184.28 110.60 184.77 105.11 187.92 100.02 Z" fill="#a286a4" />
<path d="M 130.48 100.45 C 132.14 100.96 133.78 101.53 135.42 102.10 C 136.65 103.21 137.77 104.43 138.88 105.66 C 135.28 105.92 131.80 105.24 128.39 104.15 C 129.06 102.90 129.75 101.66 130.48 100.45 Z" fill="#121031" />
<path d="M 44.54 101.63 C 45.68 104.98 46.57 108.22 46.23 111.80 C 45.58 119.69 47.06 127.07 48.10 134.83 C 46.93 134.44 45.75 134.05 44.58 133.66 C 44.50 132.06 44.41 130.47 44.30 128.87 C 43.85 129.23 43.39 129.60 42.94 129.96 C 42.37 130.44 41.81 130.92 41.25 131.42 L 40.53 132.14 C 40.78 127.31 41.65 122.56 41.70 117.71 C 41.79 112.18 43.09 106.93 44.54 101.63 Z" fill="#b8a5c9" />
<path d="M 172.96 101.89 C 174.58 103.24 176.52 104.66 177.53 106.55 C 178.18 107.96 178.27 109.71 178.52 111.24 C 176.50 108.22 174.59 105.14 172.96 101.89 Z" fill="#4d445b" />
<path d="M 55.55 104.03 C 56.30 105.09 57.03 106.16 57.77 107.23 C 59.44 107.05 61.12 106.88 62.80 106.73 C 62.32 110.92 62.27 114.97 62.95 119.14 C 65.26 119.33 67.56 119.55 69.86 119.80 C 69.78 127.17 70.83 134.31 73.77 141.09 C 72.97 130.24 70.39 120.74 73.62 109.88 C 76.80 114.21 80.44 118.48 82.82 123.22 C 84.44 126.38 85.87 129.56 87.82 132.54 C 92.28 136.54 98.31 137.35 103.77 140.52 L 103.03 140.88 C 100.99 141.80 98.85 142.32 96.65 142.72 C 95.85 144.42 95.16 146.17 94.39 147.88 C 93.48 147.42 92.56 146.95 91.65 146.49 C 93.04 149.64 94.24 152.84 95.07 156.18 C 91.03 153.05 90.06 148.59 87.32 144.60 C 84.45 143.01 81.26 146.34 79.05 147.80 C 79.43 146.15 79.80 144.51 80.17 142.86 C 78.76 142.87 77.35 142.88 75.94 142.87 C 77.27 147.25 78.51 151.59 78.84 156.17 C 77.09 153.75 75.44 151.25 73.85 148.71 C 71.46 151.66 67.78 154.80 67.41 158.75 C 66.86 162.50 66.36 166.22 65.10 169.82 C 64.86 170.45 64.61 171.09 64.36 171.72 C 62.28 167.09 60.48 162.36 58.24 157.80 C 53.70 149.17 53.34 138.00 52.11 128.33 C 54.06 120.18 52.74 112.06 55.55 104.03 Z" fill="#a188bc" />
<path d="M 116.16 108.02 C 117.94 106.87 119.07 109.67 116.97 110.05 C 115.85 109.71 115.58 109.03 116.16 108.02 Z" fill="#7d7089" />
<path d="M 159.34 109.49 C 161.62 109.49 164.18 110.73 166.17 111.78 C 168.07 113.42 169.05 116.31 170.08 118.56 C 166.34 120.34 163.15 121.31 158.98 120.46 C 156.96 124.18 154.84 127.80 152.61 131.39 C 151.29 133.37 149.77 135.23 148.25 137.05 C 148.92 135.07 149.60 133.10 150.47 131.20 C 153.17 125.89 155.39 120.26 156.49 114.39 C 157.12 112.29 156.90 110.30 159.34 109.49 Z" fill="#615227" />
<path d="M 118.18 112.00 C 122.04 117.23 125.32 122.80 129.58 127.76 C 132.62 132.38 136.60 136.08 140.08 140.32 C 133.92 136.97 130.24 131.43 125.86 126.10 C 124.62 124.42 123.47 122.68 122.42 120.87 C 120.86 117.99 119.43 115.03 118.18 112.00 Z" fill="#7b7381" />
<path d="M 180.08 113.81 L 179.65 113.12 C 180.77 110.92 182.51 113.65 180.08 113.81 Z" fill="#514458" />
<path d="M 180.84 114.96 C 181.77 115.43 182.70 115.91 183.63 116.40 C 184.36 117.21 185.05 118.04 185.72 118.89 C 187.03 120.62 188.15 122.47 189.13 124.40 C 187.27 123.13 185.55 121.72 184.07 120.01 C 182.90 118.39 181.87 116.67 180.84 114.96 Z" fill="#4b4035" />
<path d="M 186.43 116.55 C 193.18 118.47 199.48 120.40 206.63 119.99 C 206.50 120.73 206.37 121.46 206.24 122.20 C 204.03 125.38 201.52 128.55 199.86 132.06 C 198.60 135.81 199.39 139.27 200.18 143.01 C 201.44 142.36 202.71 141.71 203.97 141.06 C 203.83 142.33 203.77 143.60 203.78 144.88 C 201.23 147.93 201.48 151.74 199.37 155.05 C 196.35 155.55 193.40 156.22 190.48 157.09 C 189.71 153.46 189.69 149.81 189.44 146.13 C 189.05 140.54 185.83 136.22 184.44 130.57 C 183.52 127.01 183.81 123.63 184.07 120.01 C 185.55 121.72 187.27 123.13 189.13 124.40 C 188.15 122.47 187.03 120.62 185.72 118.89 C 185.95 118.11 186.19 117.33 186.43 116.55 Z" fill="#c5ac6a" />
<path d="M 89.61 117.82 C 92.92 120.48 93.88 123.77 94.99 127.69 C 96.47 124.74 97.78 121.73 98.81 118.60 C 100.05 123.17 101.79 127.49 103.55 131.88 C 103.99 133.62 104.34 135.38 104.65 137.15 C 104.77 137.82 104.88 138.49 105.00 139.17 C 105.62 139.12 106.24 139.06 106.86 139.01 C 105.81 139.48 104.79 140.00 103.77 140.52 C 98.31 137.35 92.28 136.54 87.82 132.54 C 89.40 127.67 89.74 122.90 89.61 117.82 Z" fill="#cec1c1" />
<path d="M 113.39 118.94 C 115.32 120.66 117.28 122.38 119.06 124.27 C 121.37 127.62 123.04 131.14 126.10 133.88 C 130.35 137.66 135.64 140.50 140.67 143.11 C 140.07 143.89 139.46 144.67 138.85 145.44 C 137.57 144.63 136.25 143.91 134.93 143.19 C 135.47 143.91 136.02 144.62 136.58 145.34 C 135.31 145.35 133.99 145.40 132.74 145.25 C 131.52 144.11 130.78 142.38 129.97 140.94 C 127.28 135.35 121.17 131.50 117.00 126.86 C 115.64 124.31 114.50 121.61 113.39 118.94 Z" fill="#c4b4ce" />
<path d="M 117.00 126.86 C 121.17 131.50 127.28 135.35 129.97 140.94 C 126.17 140.17 122.32 139.82 118.49 139.31 C 116.23 139.09 114.92 137.63 113.16 136.37 C 113.34 138.40 113.55 140.43 113.66 142.46 C 112.40 141.31 111.20 140.13 110.22 138.72 C 109.36 135.43 108.50 132.16 107.30 128.97 C 108.37 127.98 109.43 126.88 110.66 126.09 C 112.69 125.69 115.03 126.42 117.00 126.86 Z" fill="#efebee" />
<path d="M 31.82 125.20 C 32.19 127.33 32.50 129.28 31.69 131.36 C 30.24 135.40 28.87 139.44 28.03 143.65 C 27.44 143.52 26.86 143.40 26.27 143.27 C 26.55 140.58 26.93 137.89 27.31 135.20 C 27.48 134.23 27.64 133.25 27.81 132.28 C 29.13 129.91 30.43 127.53 31.82 125.20 Z" fill="#8f89a0" />
<path d="M 168.53 127.46 C 172.59 126.74 175.47 128.05 178.17 131.07 C 177.05 132.24 175.98 133.71 174.58 134.54 C 171.99 134.95 169.17 134.61 166.54 134.78 C 162.75 137.41 159.16 140.31 155.37 142.94 L 153.84 142.82 C 156.58 139.72 159.44 136.73 162.34 133.79 C 164.47 131.75 166.40 129.50 168.53 127.46 Z" fill="#675324" />
<path d="M 42.94 129.96 C 43.39 129.60 43.85 129.23 44.30 128.87 C 44.41 130.47 44.50 132.06 44.58 133.66 C 45.75 134.05 46.93 134.44 48.10 134.83 C 49.44 142.92 50.87 150.89 53.26 158.75 C 54.30 162.42 55.72 166.10 55.58 169.97 C 55.49 172.70 55.05 175.42 54.50 178.09 C 53.16 180.42 51.83 182.76 50.46 185.07 C 49.67 183.98 48.88 182.89 48.11 181.78 L 47.50 180.66 C 47.42 177.35 46.96 174.25 46.01 171.07 C 44.12 164.72 43.04 158.20 42.41 151.61 C 41.76 144.87 42.27 138.15 41.25 131.42 C 41.81 130.92 42.37 130.44 42.94 129.96 Z" fill="#a58dbe" />
<path d="M 144.72 129.08 C 146.67 129.72 148.56 130.45 150.47 131.20 C 149.60 133.10 148.92 135.07 148.25 137.05 C 149.77 135.23 151.29 133.37 152.61 131.39 C 155.88 132.15 159.18 132.57 162.34 133.79 C 159.44 136.73 156.58 139.72 153.84 142.82 L 155.37 142.94 C 156.87 143.10 158.36 143.31 159.85 143.50 C 160.70 146.40 161.41 149.55 162.88 152.21 C 164.44 153.24 166.65 153.35 168.46 153.72 C 165.96 154.24 163.59 155.32 161.07 155.75 C 159.05 154.88 157.26 153.53 155.27 152.59 C 155.54 151.93 155.82 151.27 156.09 150.61 C 151.64 148.87 147.13 147.36 142.77 145.38 C 143.16 142.88 143.43 140.37 143.31 137.83 C 143.23 135.56 142.96 133.31 142.83 131.03 C 143.45 130.37 144.08 129.72 144.72 129.08 Z" fill="#c9b589" />
<path d="M 105.71 131.88 C 106.86 132.99 107.91 134.19 108.99 135.39 C 107.54 135.98 106.10 136.56 104.65 137.15 C 104.34 135.38 103.99 133.62 103.55 131.88 C 104.27 131.87 104.99 131.87 105.71 131.88 Z" fill="#edebee" />
<path d="M 40.53 132.14 L 41.25 131.42 C 42.27 138.15 41.76 144.87 42.41 151.61 C 43.04 158.20 44.12 164.72 46.01 171.07 C 46.96 174.25 47.42 177.35 47.50 180.66 C 46.17 182.63 44.90 184.63 43.61 186.62 C 41.77 179.94 40.36 172.82 39.68 165.93 C 39.35 154.68 39.75 143.36 40.53 132.14 Z" fill="#d1c4db" />
<path d="M 199.86 132.06 C 199.79 132.98 199.74 133.89 199.70 134.81 C 201.90 133.88 204.07 132.89 206.18 131.76 C 205.59 134.90 204.69 137.95 203.97 141.06 C 202.71 141.71 201.44 142.36 200.18 143.01 C 199.39 139.27 198.60 135.81 199.86 132.06 Z" fill="#8f7f59" />
<path d="M 27.31 135.20 C 26.93 137.89 26.55 140.58 26.27 143.27 C 26.68 144.75 27.24 146.17 27.69 147.63 C 26.21 148.69 24.77 149.30 24.44 151.29 C 23.27 156.82 23.04 162.61 22.84 168.25 C 22.50 163.30 22.51 158.42 21.43 153.55 C 20.56 149.34 20.45 145.15 22.10 141.11 C 23.15 138.79 25.44 136.88 27.31 135.20 Z" fill="#dbd8de" />
<path d="M 166.54 134.78 C 169.42 137.29 172.80 139.81 175.04 142.92 C 177.41 146.28 178.10 150.22 178.94 154.16 C 174.31 150.55 169.98 145.87 164.76 143.17 C 163.18 142.54 160.77 141.31 159.85 143.50 C 158.36 143.31 156.87 143.10 155.37 142.94 C 159.16 140.31 162.75 137.41 166.54 134.78 Z" fill="#d5c6a3" />
<path d="M 113.16 136.37 C 114.92 137.63 116.23 139.09 118.49 139.31 C 122.32 139.82 126.17 140.17 129.97 140.94 C 130.78 142.38 131.52 144.11 132.74 145.25 C 133.99 145.40 135.31 145.35 136.58 145.34 C 137.02 145.88 137.46 146.41 137.90 146.95 C 132.48 150.85 125.84 151.56 119.39 150.51 C 112.75 149.10 108.11 145.02 103.03 140.88 L 103.77 140.52 C 104.79 140.00 105.81 139.48 106.86 139.01 C 107.98 138.89 109.10 138.80 110.22 138.72 C 111.20 140.13 112.40 141.31 113.66 142.46 C 113.55 140.43 113.34 138.40 113.16 136.37 Z" fill="#b39fc6" />
<path d="M 143.31 137.83 C 143.43 140.37 143.16 142.88 142.77 145.38 C 147.13 147.36 151.64 148.87 156.09 150.61 C 155.82 151.27 155.54 151.93 155.27 152.59 C 152.53 152.67 149.80 152.89 147.08 153.16 C 144.10 150.81 141.52 148.10 138.85 145.44 C 139.46 144.67 140.07 143.89 140.67 143.11 C 141.69 141.42 142.55 139.65 143.31 137.83 Z" fill="#b49b9b" />
<path d="M 103.03 140.88 C 108.11 145.02 112.75 149.10 119.39 150.51 C 125.84 151.56 132.48 150.85 137.90 146.95 C 137.46 146.41 137.02 145.88 136.58 145.34 C 136.02 144.62 135.47 143.91 134.93 143.19 C 136.25 143.91 137.57 144.63 138.85 145.44 C 141.52 148.10 144.10 150.81 147.08 153.16 C 146.37 153.23 145.66 153.31 144.96 153.39 C 146.19 154.06 147.43 154.73 148.67 155.40 C 149.03 158.25 150.11 160.65 151.61 163.08 C 151.26 164.03 150.90 164.98 150.55 165.93 C 145.78 164.01 142.42 160.19 137.73 158.15 C 140.75 162.86 144.93 166.20 149.60 169.17 C 147.42 171.09 145.41 173.65 142.57 174.49 C 139.53 175.47 136.51 176.29 133.72 177.89 C 135.23 178.28 136.75 178.64 138.27 179.00 C 137.98 180.20 137.68 181.40 137.39 182.60 C 139.22 183.14 141.05 183.68 142.87 184.24 C 142.22 184.60 141.57 184.96 140.92 185.31 C 137.40 187.09 133.63 189.96 129.73 190.61 C 124.64 191.25 119.75 190.51 114.79 189.37 C 115.86 189.22 116.92 189.05 117.98 188.88 C 111.44 184.42 104.43 181.68 98.86 175.83 C 98.33 176.33 97.79 176.84 97.26 177.35 C 92.67 174.13 87.33 170.52 84.52 165.56 C 82.79 162.56 81.20 159.53 79.06 156.79 C 80.19 164.97 86.39 168.81 85.29 176.89 L 85.26 177.76 C 83.80 177.28 82.32 176.88 80.86 176.42 C 80.21 176.19 79.57 175.97 78.92 175.76 C 79.94 175.37 80.96 174.99 81.99 174.61 C 78.47 172.47 74.94 170.54 70.99 169.30 C 70.51 169.96 70.03 170.62 69.56 171.29 C 68.10 170.72 66.60 170.26 65.10 169.82 C 66.36 166.22 66.86 162.50 67.41 158.75 C 67.78 154.80 71.46 151.66 73.85 148.71 C 75.44 151.25 77.09 153.75 78.84 156.17 C 78.51 151.59 77.27 147.25 75.94 142.87 C 77.35 142.88 78.76 142.87 80.17 142.86 C 79.80 144.51 79.43 146.15 79.05 147.80 C 81.26 146.34 84.45 143.01 87.32 144.60 C 90.06 148.59 91.03 153.05 95.07 156.18 C 94.24 152.84 93.04 149.64 91.65 146.49 C 92.56 146.95 93.48 147.42 94.39 147.88 C 95.16 146.17 95.85 144.42 96.65 142.72 C 98.85 142.32 100.99 141.80 103.03 140.88 Z" fill="#9e83b0" />
<path d="M 128.36 144.13 C 129.83 143.17 130.98 145.57 129.16 145.89 C 128.17 145.58 127.90 144.99 128.36 144.13 Z" fill="#5c496a" />
<path d="M 203.78 144.88 C 204.75 146.63 205.72 148.38 206.79 150.06 L 207.22 150.65 C 205.11 152.52 207.97 154.00 209.21 151.88 C 211.57 153.30 213.90 154.70 216.08 156.38 C 215.86 158.72 215.99 161.00 216.33 163.32 C 213.85 164.43 211.32 165.38 208.65 165.95 L 207.26 166.20 C 206.50 162.10 205.56 158.12 203.53 154.43 C 202.14 154.59 200.75 154.81 199.37 155.05 C 201.48 151.74 201.23 147.93 203.78 144.88 Z" fill="#bfaea7" />
<path d="M 27.69 147.63 C 27.96 151.77 24.53 154.30 25.74 158.14 C 26.14 160.41 27.09 162.92 26.77 165.20 C 26.37 168.97 24.34 172.98 25.14 176.74 C 25.84 180.99 26.25 185.27 26.99 189.51 C 26.20 189.05 25.41 188.59 24.61 188.13 C 24.50 190.06 24.43 191.99 24.29 193.92 C 24.34 191.17 24.59 188.44 24.73 185.69 C 25.08 179.84 23.16 174.31 22.84 168.25 C 23.04 162.61 23.27 156.82 24.44 151.29 C 24.77 149.30 26.21 148.69 27.69 147.63 Z" fill="#a99cbc" />
<path d="M 216.25 148.05 C 215.14 149.55 213.98 151.01 212.87 152.50 C 214.27 153.89 215.64 155.27 216.76 156.90 L 216.08 156.38 C 213.90 154.70 211.57 153.30 209.21 151.88 C 208.56 151.46 207.89 151.05 207.22 150.65 L 206.79 150.06 C 209.90 149.15 213.03 148.45 216.25 148.05 Z" fill="#d7cdd3" />
<path d="M 207.22 150.65 C 207.89 151.05 208.56 151.46 209.21 151.88 C 207.97 154.00 205.11 152.52 207.22 150.65 Z" fill="#5a4c4a" />
<path d="M 147.08 153.16 C 149.80 152.89 152.53 152.67 155.27 152.59 C 157.26 153.53 159.05 154.88 161.07 155.75 C 163.59 155.32 165.96 154.24 168.46 153.72 C 169.41 155.00 170.23 156.65 171.51 157.61 C 174.04 158.43 176.88 158.34 179.51 158.73 C 182.65 161.76 185.37 165.39 190.23 164.27 C 192.32 166.93 193.06 169.80 193.90 173.01 C 194.22 174.03 194.56 175.05 194.91 176.06 C 196.76 180.60 194.40 185.00 192.15 188.90 C 190.10 191.71 188.75 194.43 188.38 197.92 C 183.76 200.85 179.16 203.76 174.28 206.24 C 168.17 209.25 162.84 213.47 156.71 216.46 C 152.18 218.12 147.63 219.21 142.81 219.54 C 141.52 219.63 140.24 219.72 138.95 219.79 C 135.66 219.10 132.35 218.52 129.04 218.00 C 116.86 215.99 105.27 209.99 96.26 201.59 C 94.41 199.76 92.88 197.91 90.33 197.03 C 86.39 195.67 82.86 193.57 79.15 191.70 C 78.30 191.25 77.46 190.77 76.64 190.27 C 80.30 190.53 83.78 191.06 87.39 191.82 C 83.78 188.42 79.45 186.03 76.27 182.28 C 78.21 183.04 80.10 183.91 81.99 184.78 C 79.48 182.45 76.91 180.27 74.59 177.74 C 77.20 178.69 79.70 179.89 82.25 180.97 C 79.88 178.72 77.37 176.63 74.66 174.80 C 76.09 175.09 77.51 175.37 78.92 175.76 C 79.57 175.97 80.21 176.19 80.86 176.42 C 86.25 180.23 91.91 184.70 98.17 186.95 C 98.70 187.72 99.23 188.50 99.77 189.27 C 99.08 190.97 98.32 192.63 97.62 194.33 C 101.26 196.19 103.11 196.44 107.20 195.74 C 106.30 193.11 104.78 190.90 103.12 188.69 C 104.98 189.40 106.83 190.12 108.68 190.84 C 108.25 189.86 107.80 188.88 107.36 187.90 C 109.83 188.41 112.31 188.92 114.79 189.37 C 119.75 190.51 124.64 191.25 129.73 190.61 C 133.63 189.96 137.40 187.09 140.92 185.31 C 141.81 185.35 142.69 185.39 143.58 185.44 C 145.23 180.71 149.23 178.70 153.44 176.59 C 157.11 175.08 160.67 173.80 163.59 170.99 C 158.92 169.03 154.51 169.82 149.60 169.17 C 144.93 166.20 140.75 162.86 137.73 158.15 C 142.42 160.19 145.78 164.01 150.55 165.93 C 150.90 164.98 151.26 164.03 151.61 163.08 C 150.11 160.65 149.03 158.25 148.67 155.40 C 147.43 154.73 146.19 154.06 144.96 153.39 C 145.66 153.31 146.37 153.23 147.08 153.16 Z" fill="#232542" />
<path d="M 159.97 153.09 C 161.73 151.93 163.04 154.66 160.87 155.06 C 159.69 154.76 159.39 154.10 159.97 153.09 Z" fill="#181124" />
<path d="M 152.36 154.80 C 153.19 153.99 155.66 154.27 156.29 155.25 C 156.54 156.90 151.68 156.39 152.36 154.80 Z" fill="#625c73" />
<path d="M 203.53 154.43 C 205.56 158.12 206.50 162.10 207.26 166.20 C 202.82 166.95 198.35 167.38 193.85 167.55 C 193.83 169.37 193.82 171.19 193.90 173.01 C 193.06 169.80 192.32 166.93 190.23 164.27 C 189.15 162.25 188.31 160.12 187.51 157.98 C 188.50 157.69 189.49 157.39 190.48 157.09 C 193.40 156.22 196.35 155.55 199.37 155.05 C 200.75 154.81 202.14 154.59 203.53 154.43 Z" fill="#b49b97" />
<path d="M 166.09 155.21 C 167.86 154.05 169.01 156.82 166.92 157.23 C 165.78 156.91 165.51 156.23 166.09 155.21 Z" fill="#6f6c83" />
<path d="M 79.06 156.79 C 81.20 159.53 82.79 162.56 84.52 165.56 C 87.33 170.52 92.67 174.13 97.26 177.35 C 97.79 176.84 98.33 176.33 98.86 175.83 C 104.43 181.68 111.44 184.42 117.98 188.88 C 116.92 189.05 115.86 189.22 114.79 189.37 C 112.31 188.92 109.83 188.41 107.36 187.90 C 107.80 188.88 108.25 189.86 108.68 190.84 C 106.83 190.12 104.98 189.40 103.12 188.69 C 101.48 188.08 99.82 187.54 98.17 186.95 C 91.91 184.70 86.25 180.23 80.86 176.42 C 82.32 176.88 83.80 177.28 85.26 177.76 C 89.62 180.84 94.14 183.51 99.30 185.02 C 94.95 181.83 90.16 179.21 85.29 176.89 C 86.39 168.81 80.19 164.97 79.06 156.79 Z" fill="#baa39e" />
<path d="M 216.08 156.38 L 216.76 156.90 C 219.15 161.06 221.76 165.48 222.93 170.17 C 223.59 172.54 222.37 174.09 221.40 176.10 C 219.86 175.63 218.30 175.25 216.73 174.93 C 218.15 176.46 219.69 177.87 221.22 179.29 C 220.96 182.08 220.77 184.88 220.40 187.66 C 217.88 194.34 214.71 200.64 209.81 205.91 C 208.07 207.74 206.19 209.41 204.21 210.97 C 198.67 212.70 194.55 216.67 188.93 218.02 C 183.25 219.46 177.48 220.52 171.80 222.00 C 171.06 221.69 170.32 221.38 169.59 221.06 C 172.25 219.47 174.23 219.20 177.26 219.24 C 180.34 218.96 181.21 218.29 182.91 215.80 C 184.85 212.56 187.70 210.06 189.72 206.92 C 190.79 203.90 190.78 200.49 191.46 197.35 C 192.20 194.50 192.59 191.84 192.15 188.90 C 194.40 185.00 196.76 180.60 194.91 176.06 C 194.88 175.04 194.86 174.02 194.84 172.99 C 196.91 176.87 199.02 180.39 202.58 183.10 C 203.44 182.19 204.30 181.27 205.15 180.35 C 204.36 183.06 203.65 185.79 203.01 188.54 C 204.29 189.24 205.56 189.94 206.84 190.64 C 206.80 191.95 206.77 193.27 206.75 194.58 C 208.75 193.95 210.73 193.23 212.60 192.26 C 215.88 189.27 215.66 183.60 215.19 179.60 C 213.60 174.85 210.57 170.60 208.65 165.95 C 211.32 165.38 213.85 164.43 216.33 163.32 C 215.99 161.00 215.86 158.72 216.08 156.38 Z" fill="#d9caa0" />
<path d="M 187.51 157.98 C 188.31 160.12 189.15 162.25 190.23 164.27 C 185.37 165.39 182.65 161.76 179.51 158.73 C 182.21 158.82 184.89 158.66 187.51 157.98 Z" fill="#c2b8c0" />
<path d="M 162.18 163.62 C 166.01 163.11 168.67 165.02 171.26 167.55 C 166.98 166.81 162.75 166.26 158.42 165.88 C 159.62 165.08 160.85 164.18 162.18 163.62 Z" fill="#40405b" />
<path d="M 207.26 166.20 L 208.65 165.95 C 210.57 170.60 213.60 174.85 215.19 179.60 C 215.66 183.60 215.88 189.27 212.60 192.26 C 211.72 190.44 210.87 188.64 209.93 186.86 C 208.87 188.10 207.85 189.37 206.84 190.64 C 205.56 189.94 204.29 189.24 203.01 188.54 C 203.65 185.79 204.36 183.06 205.15 180.35 C 204.30 181.27 203.44 182.19 202.58 183.10 C 199.02 180.39 196.91 176.87 194.84 172.99 C 194.86 174.02 194.88 175.04 194.91 176.06 C 194.56 175.05 194.22 174.03 193.90 173.01 C 193.82 171.19 193.83 169.37 193.85 167.55 C 198.35 167.38 202.82 166.95 207.26 166.20 Z" fill="#ccb880" />
<path d="M 70.99 169.30 C 74.94 170.54 78.47 172.47 81.99 174.61 C 80.96 174.99 79.94 175.37 78.92 175.76 C 77.51 175.37 76.09 175.09 74.66 174.80 L 73.90 174.62 C 72.46 173.50 71.03 172.36 69.56 171.29 C 70.03 170.62 70.51 169.96 70.99 169.30 Z" fill="#6d5b7d" />
<path d="M 149.60 169.17 C 154.51 169.82 158.92 169.03 163.59 170.99 C 160.67 173.80 157.11 175.08 153.44 176.59 C 149.23 178.70 145.23 180.71 143.58 185.44 C 142.69 185.39 141.81 185.35 140.92 185.31 C 141.57 184.96 142.22 184.60 142.87 184.24 C 141.05 183.68 139.22 183.14 137.39 182.60 C 137.68 181.40 137.98 180.20 138.27 179.00 C 136.75 178.64 135.23 178.28 133.72 177.89 C 136.51 176.29 139.53 175.47 142.57 174.49 C 145.41 173.65 147.42 171.09 149.60 169.17 Z" fill="#ac95c3" />
<path d="M 65.10 169.82 C 66.60 170.26 68.10 170.72 69.56 171.29 C 71.03 172.36 72.46 173.50 73.90 174.62 C 74.06 175.73 74.21 176.83 74.37 177.94 C 72.65 176.98 70.97 175.94 69.21 175.07 C 68.20 174.58 67.16 174.15 66.09 173.78 C 63.20 174.15 60.42 175.02 57.56 175.56 C 59.53 173.71 61.89 172.71 64.36 171.72 C 64.61 171.09 64.86 170.45 65.10 169.82 Z" fill="#1e1f3a" />
<path d="M 66.09 173.78 C 67.16 174.15 68.20 174.58 69.21 175.07 C 69.90 178.08 69.87 180.10 68.75 182.97 C 68.41 184.03 68.07 185.09 67.75 186.15 C 67.30 187.64 66.84 189.12 66.31 190.59 C 64.63 194.50 63.62 198.61 62.19 202.62 C 61.52 199.41 61.13 196.34 62.03 193.12 C 63.66 186.71 65.35 180.37 66.09 173.78 Z" fill="#e9dcb6" />
<path d="M 69.21 175.07 C 70.97 175.94 72.65 176.98 74.37 177.94 C 74.21 176.83 74.06 175.73 73.90 174.62 L 74.66 174.80 C 77.37 176.63 79.88 178.72 82.25 180.97 C 79.70 179.89 77.20 178.69 74.59 177.74 C 76.91 180.27 79.48 182.45 81.99 184.78 C 80.10 183.91 78.21 183.04 76.27 182.28 C 79.45 186.03 83.78 188.42 87.39 191.82 C 83.78 191.06 80.30 190.53 76.64 190.27 C 75.35 189.50 74.14 188.52 72.93 187.63 C 72.57 188.35 72.23 189.08 71.89 189.81 C 69.64 187.85 69.05 190.58 70.71 192.08 L 70.30 193.40 C 68.97 192.46 67.65 191.51 66.31 190.59 C 66.84 189.12 67.30 187.64 67.75 186.15 C 68.95 186.10 70.14 186.04 71.34 185.97 C 70.49 184.96 69.63 183.96 68.75 182.97 C 69.87 180.10 69.90 178.08 69.21 175.07 Z" fill="#bea78a" />
<path d="M 216.73 174.93 C 218.30 175.25 219.86 175.63 221.40 176.10 C 222.05 176.38 222.70 176.67 223.34 176.98 C 222.63 177.75 221.92 178.52 221.22 179.29 C 219.69 177.87 218.15 176.46 216.73 174.93 Z" fill="#464138" />
<path d="M 85.29 176.89 C 90.16 179.21 94.95 181.83 99.30 185.02 C 94.14 183.51 89.62 180.84 85.26 177.76 L 85.29 176.89 Z" fill="#816c6e" />
<path d="M 223.34 176.98 L 223.75 177.41 C 223.25 181.77 224.43 185.71 225.18 189.93 C 224.99 190.75 224.76 191.56 224.51 192.36 C 223.17 190.76 221.86 189.15 220.40 187.66 C 220.77 184.88 220.96 182.08 221.22 179.29 C 221.92 178.52 222.63 177.75 223.34 176.98 Z" fill="#a29d9a" />
<path d="M 223.75 177.41 C 227.00 180.38 225.89 186.10 225.18 189.93 C 224.43 185.71 223.25 181.77 223.75 177.41 Z" fill="#c7c6c0" />
<path d="M 56.67 178.11 C 57.25 180.33 57.84 182.55 58.44 184.77 C 57.41 186.37 56.33 187.92 55.35 189.55 C 54.73 188.17 53.56 186.66 53.48 185.13 C 54.23 182.69 55.64 180.44 56.67 178.11 Z" fill="#888999" />
<path d="M 72.40 179.18 C 73.41 178.32 75.16 179.57 74.50 180.79 C 73.49 181.68 71.77 180.38 72.40 179.18 Z" fill="#442f3c" />
<path d="M 157.52 179.14 C 155.54 181.54 153.53 182.81 150.65 183.94 C 152.75 181.80 154.77 180.36 157.52 179.14 Z" fill="#555472" />
<path d="M 48.11 181.78 C 48.88 182.89 49.67 183.98 50.46 185.07 C 49.71 186.34 48.95 187.60 48.16 188.85 C 47.64 187.87 47.12 186.89 46.60 185.90 C 47.11 184.53 47.62 183.16 48.11 181.78 Z" fill="#cbbfd7" />
<path d="M 68.75 182.97 C 69.63 183.96 70.49 184.96 71.34 185.97 C 70.14 186.04 68.95 186.10 67.75 186.15 C 68.07 185.09 68.41 184.03 68.75 182.97 Z" fill="#3f3730" />
<path d="M 72.93 187.63 C 74.14 188.52 75.35 189.50 76.64 190.27 C 77.46 190.77 78.30 191.25 79.15 191.70 C 80.87 195.46 83.95 198.45 87.66 200.22 C 90.43 201.02 93.44 200.89 96.26 201.59 C 105.27 209.99 116.86 215.99 129.04 218.00 C 127.24 218.09 125.29 218.11 123.58 218.71 C 122.23 219.58 121.07 220.82 119.91 221.92 C 121.82 223.47 123.73 225.03 125.73 226.46 C 121.78 225.60 118.32 224.42 114.96 222.14 C 110.99 219.44 105.58 217.95 103.25 213.71 C 101.38 210.64 99.56 208.02 96.15 206.50 C 93.94 207.90 91.87 209.42 89.48 210.54 C 84.67 209.92 80.62 208.80 76.03 211.21 C 74.75 208.05 73.76 204.80 72.60 201.60 C 71.90 201.69 71.20 201.80 70.51 201.90 C 70.53 199.05 70.68 196.24 70.30 193.40 L 70.71 192.08 C 71.16 191.35 71.56 190.59 71.89 189.81 C 72.23 189.08 72.57 188.35 72.93 187.63 Z" fill="#cfbb86" />
<path d="M 98.17 186.95 C 99.82 187.54 101.48 188.08 103.12 188.69 C 104.78 190.90 106.30 193.11 107.20 195.74 C 103.11 196.44 101.26 196.19 97.62 194.33 C 98.32 192.63 99.08 190.97 99.77 189.27 C 99.23 188.50 98.70 187.72 98.17 186.95 Z" fill="#58515f" />
<path d="M 209.93 186.86 C 210.87 188.64 211.72 190.44 212.60 192.26 C 210.73 193.23 208.75 193.95 206.75 194.58 C 206.77 193.27 206.80 191.95 206.84 190.64 C 207.85 189.37 208.87 188.10 209.93 186.86 Z" fill="#83a187" />
<path d="M 220.40 187.66 C 221.86 189.15 223.17 190.76 224.51 192.36 C 223.07 195.28 221.11 197.85 219.84 200.87 C 219.15 200.22 218.46 199.57 217.75 198.93 C 216.81 201.53 215.27 203.53 213.61 205.67 C 212.74 206.50 213.58 207.99 213.68 209.02 C 213.22 209.39 212.77 209.76 212.32 210.13 C 211.50 208.71 210.68 207.30 209.81 205.91 C 214.71 200.64 217.88 194.34 220.40 187.66 Z" fill="#292649" />
<path d="M 71.89 189.81 C 71.56 190.59 71.16 191.35 70.71 192.08 C 69.05 190.58 69.64 187.85 71.89 189.81 Z" fill="#816d52" />
<path d="M 142.37 189.17 C 140.18 191.76 138.04 192.51 134.79 193.18 C 137.18 191.36 139.49 190.10 142.37 189.17 Z" fill="#4f4f68" />
<path d="M 192.15 188.90 C 192.59 191.84 192.20 194.50 191.46 197.35 C 190.43 197.52 189.40 197.71 188.38 197.92 C 188.75 194.43 190.10 191.71 192.15 188.90 Z" fill="#9c927e" />
<path d="M 66.31 190.59 C 67.65 191.51 68.97 192.46 70.30 193.40 C 70.68 196.24 70.53 199.05 70.51 201.90 C 71.73 208.89 75.89 214.69 80.78 219.62 C 85.09 223.40 89.26 226.89 95.13 227.79 C 98.91 228.73 102.48 227.94 106.25 227.99 C 103.53 228.81 100.84 229.66 97.99 229.83 C 94.04 229.81 90.05 228.12 86.44 226.67 C 82.89 225.22 79.24 225.17 75.85 223.17 C 72.17 221.07 67.74 218.24 65.78 214.35 C 64.33 210.58 62.72 206.66 62.19 202.62 C 63.62 198.61 64.63 194.50 66.31 190.59 Z" fill="#2e2d43" />
<path d="M 79.15 191.70 C 82.86 193.57 86.39 195.67 90.33 197.03 C 92.88 197.91 94.41 199.76 96.26 201.59 C 93.44 200.89 90.43 201.02 87.66 200.22 C 83.95 198.45 80.87 195.46 79.15 191.70 Z" fill="#b8a5a2" />
<path d="M 127.41 193.77 C 128.68 193.47 130.03 193.40 131.33 193.31 C 129.68 194.77 127.99 196.14 126.20 197.42 C 126.45 196.18 126.15 194.50 127.41 193.77 Z" fill="#4d4a60" />
<path d="M 120.16 193.89 C 122.32 193.91 123.75 194.68 125.50 195.86 C 123.55 195.47 119.75 197.07 120.16 193.89 Z" fill="#5f5968" />
<path d="M 225.47 195.06 C 226.51 195.51 227.51 195.98 228.51 196.50 C 229.63 201.13 230.79 205.93 230.97 210.70 C 229.81 212.23 228.60 211.21 227.06 210.98 C 223.36 210.02 220.44 208.66 217.68 205.97 C 216.34 206.97 215.00 207.99 213.68 209.02 C 213.58 207.99 212.74 206.50 213.61 205.67 C 215.27 203.53 216.81 201.53 217.75 198.93 C 218.46 199.57 219.15 200.22 219.84 200.87 C 219.21 202.31 218.64 203.77 218.08 205.23 C 221.47 202.43 223.49 198.91 225.47 195.06 Z" fill="#baaccb" />
<path d="M 191.46 197.35 C 190.78 200.49 190.79 203.90 189.72 206.92 C 187.70 210.06 184.85 212.56 182.91 215.80 C 182.58 213.99 182.26 212.19 181.88 210.40 C 179.02 212.06 176.47 214.13 174.03 216.34 C 175.10 217.31 176.18 218.28 177.26 219.24 C 174.23 219.20 172.25 219.47 169.59 221.06 L 168.35 220.55 C 164.56 218.92 160.71 217.48 156.71 216.46 C 162.84 213.47 168.17 209.25 174.28 206.24 C 179.16 203.76 183.76 200.85 188.38 197.92 C 189.40 197.71 190.43 197.52 191.46 197.35 Z" fill="#c7af71" />
<path d="M 72.60 201.60 C 73.76 204.80 74.75 208.05 76.03 211.21 C 80.62 208.80 84.67 209.92 89.48 210.54 C 88.23 211.15 86.96 211.73 85.70 212.32 C 86.50 214.02 87.35 215.71 88.14 217.42 C 85.72 218.30 83.29 219.04 80.78 219.62 C 75.89 214.69 71.73 208.89 70.51 201.90 C 71.20 201.80 71.90 201.69 72.60 201.60 Z" fill="#d9cca3" />
<path d="M 199.90 200.77 C 200.42 202.78 202.42 205.94 200.81 207.82 C 199.53 209.93 197.28 209.53 195.14 210.02 C 195.04 208.24 194.78 206.34 195.06 204.57 C 196.03 202.86 198.32 201.83 199.90 200.77 Z" fill="#739f89" />
<path d="M 96.15 206.50 C 99.56 208.02 101.38 210.64 103.25 213.71 C 105.58 217.95 110.99 219.44 114.96 222.14 C 118.32 224.42 121.78 225.60 125.73 226.46 C 127.13 226.87 128.54 227.27 129.96 227.61 C 126.92 227.37 123.87 227.13 120.82 227.11 C 115.71 227.04 111.41 229.28 106.25 227.99 C 102.48 227.94 98.91 228.73 95.13 227.79 C 89.26 226.89 85.09 223.40 80.78 219.62 C 83.29 219.04 85.72 218.30 88.14 217.42 C 87.35 215.71 86.50 214.02 85.70 212.32 C 86.96 211.73 88.23 211.15 89.48 210.54 C 91.87 209.42 93.94 207.90 96.15 206.50 Z" fill="#e8e3cf" />
<path d="M 209.81 205.91 C 210.68 207.30 211.50 208.71 212.32 210.13 C 210.09 212.04 208.06 214.15 206.09 216.33 C 208.98 215.02 211.77 213.52 214.54 211.99 C 215.75 214.20 216.52 216.55 217.33 218.91 C 218.18 221.50 220.43 223.71 222.12 225.80 C 217.74 226.09 212.89 226.69 208.69 225.10 C 205.71 224.03 203.14 222.62 199.86 222.85 C 194.70 223.16 190.70 221.63 185.96 223.53 C 186.45 222.16 185.87 221.61 184.23 221.87 C 187.62 220.80 191.00 220.08 194.12 218.29 C 194.22 219.26 194.32 220.23 194.43 221.20 C 195.99 220.94 197.55 220.68 199.10 220.36 C 199.95 219.56 200.85 218.71 201.50 217.74 C 201.40 216.62 201.23 215.50 201.01 214.39 C 202.11 213.28 203.13 212.10 204.21 210.97 C 206.19 209.41 208.07 207.74 209.81 205.91 Z" fill="#b4a6c1" />
<path d="M 181.88 210.40 C 182.26 212.19 182.58 213.99 182.91 215.80 C 181.21 218.29 180.34 218.96 177.26 219.24 C 176.18 218.28 175.10 217.31 174.03 216.34 C 176.47 214.13 179.02 212.06 181.88 210.40 Z" fill="#75a07f" />
<path d="M 201.01 214.39 C 201.23 215.50 201.40 216.62 201.50 217.74 C 200.85 218.71 199.95 219.56 199.10 220.36 C 198.36 219.16 197.62 217.95 196.84 216.77 C 198.23 215.97 199.63 215.20 201.01 214.39 Z" fill="#3d3d4c" />
<path d="M 156.71 216.46 C 160.71 217.48 164.56 218.92 168.35 220.55 C 168.76 222.04 169.20 223.52 169.65 225.01 C 166.91 225.23 164.18 225.42 161.45 225.59 C 160.73 224.35 158.89 222.83 157.61 224.22 C 157.43 225.76 160.02 225.56 160.99 225.63 C 158.03 225.81 155.08 225.99 152.14 226.36 C 149.03 223.82 146.63 220.88 142.81 219.54 C 147.63 219.21 152.18 218.12 156.71 216.46 Z" fill="#a99198" />
<path d="M 196.84 216.77 C 197.62 217.95 198.36 219.16 199.10 220.36 C 197.55 220.68 195.99 220.94 194.43 221.20 C 194.32 220.23 194.22 219.26 194.12 218.29 C 195.03 217.79 195.94 217.28 196.84 216.77 Z" fill="#898093" />
<path d="M 211.28 216.69 C 213.16 218.63 214.69 220.82 216.09 223.12 C 214.28 223.41 212.23 224.10 210.40 223.77 C 208.57 223.09 206.95 221.48 205.52 220.18 C 207.83 220.49 210.13 220.85 212.42 221.30 C 212.01 219.77 211.62 218.24 211.28 216.69 Z" fill="#efe9f4" />
<path d="M 123.58 218.71 C 125.29 218.11 127.24 218.09 129.04 218.00 C 132.35 218.52 135.66 219.10 138.95 219.79 C 141.74 222.40 144.63 224.88 147.76 227.08 C 148.48 227.60 149.20 228.10 149.93 228.60 C 143.43 228.14 137.40 225.83 131.45 227.80 L 129.96 227.61 C 128.54 227.27 127.13 226.87 125.73 226.46 C 123.73 225.03 121.82 223.47 119.91 221.92 C 121.07 220.82 122.23 219.58 123.58 218.71 Z" fill="#a990a4" />
<path d="M 57.84 219.30 C 62.35 221.20 66.60 222.23 70.19 225.54 C 64.49 227.13 58.66 227.61 52.76 227.48 C 54.12 226.94 55.45 226.36 56.79 225.77 C 56.51 224.15 56.23 222.53 55.92 220.91 C 56.55 220.35 57.19 219.82 57.84 219.30 Z" fill="#c6bad2" />
<path d="M 138.95 219.79 C 140.24 219.72 141.52 219.63 142.81 219.54 C 146.63 220.88 149.03 223.82 152.14 226.36 C 150.67 226.56 149.22 226.82 147.76 227.08 C 144.63 224.88 141.74 222.40 138.95 219.79 Z" fill="#cbb582" />
<path d="M 55.92 220.91 C 56.23 222.53 56.51 224.15 56.79 225.77 C 55.45 226.36 54.12 226.94 52.76 227.48 L 50.94 227.50 C 52.34 225.07 53.77 222.75 55.92 220.91 Z" fill="#a099a9" />
<path d="M 168.35 220.55 L 169.59 221.06 C 170.32 221.38 171.06 221.69 171.80 222.00 L 173.14 222.53 C 172.25 223.80 172.50 224.79 173.73 225.67 C 175.29 226.99 176.82 228.33 178.23 229.82 C 176.31 230.19 174.39 230.59 172.48 231.00 C 170.20 228.30 168.41 226.06 164.57 225.89 C 165.33 226.98 166.13 228.03 166.91 229.10 C 164.27 230.04 161.63 231.02 158.94 231.79 C 155.76 231.17 152.88 229.89 149.93 228.60 C 149.20 228.10 148.48 227.60 147.76 227.08 C 149.22 226.82 150.67 226.56 152.14 226.36 C 155.08 225.99 158.03 225.81 160.99 225.63 L 161.45 225.59 C 164.18 225.42 166.91 225.23 169.65 225.01 C 169.20 223.52 168.76 222.04 168.35 220.55 Z" fill="#beadc8" />
<path d="M 184.23 221.87 C 185.87 221.61 186.45 222.16 185.96 223.53 L 183.89 223.53 L 184.23 221.87 Z" fill="#60646c" />
<path d="M 173.14 222.53 C 174.12 222.89 176.23 223.56 175.12 224.93 L 173.73 225.67 C 172.50 224.79 172.25 223.80 173.14 222.53 Z" fill="#544c60" />
<path d="M 157.61 224.22 C 158.89 222.83 160.73 224.35 161.45 225.59 L 160.99 225.63 C 160.02 225.56 157.43 225.76 157.61 224.22 Z" fill="#4d3d48" />
<path d="M 149.93 228.60 C 152.88 229.89 155.76 231.17 158.94 231.79 C 159.87 231.97 160.80 232.14 161.73 232.30 C 163.43 232.59 165.13 232.90 166.83 233.21 C 165.16 234.14 163.51 235.05 161.80 235.88 C 150.79 235.71 140.48 234.82 131.45 227.80 C 137.40 225.83 143.43 228.14 149.93 228.60 Z" fill="#b09ac4" />
<path d="M 164.57 225.89 C 168.41 226.06 170.20 228.30 172.48 231.00 C 168.94 231.86 165.39 232.50 161.73 232.30 C 160.80 232.14 159.87 231.97 158.94 231.79 C 161.63 231.02 164.27 230.04 166.91 229.10 C 166.13 228.03 165.33 226.98 164.57 225.89 Z" fill="#f6f2f2" />
<path d="M 178.23 229.82 C 178.94 230.79 179.60 231.79 180.27 232.79 C 174.36 235.99 168.39 236.38 161.80 235.88 C 163.51 235.05 165.16 234.14 166.83 233.21 C 165.13 232.90 163.43 232.59 161.73 232.30 C 165.39 232.50 168.94 231.86 172.48 231.00 C 174.39 230.59 176.31 230.19 178.23 229.82 Z" fill="#ccc2d5" />
</svg>