<?xml version="1.0" encoding="UTF-8" standalone="no"?>
<!DOCTYPE svg PUBLIC "-//W3C//DTD SVG 1.1//EN" "http://www.w3.org/Graphics/SVG/1.1/DTD/svg11.dtd">
<svg xmlns="http://www.w3.org/2000/svg" version="1.1" viewBox="0 0 256 256" width="256.0pt" height="256.0pt">
<path d="M 0.00 0.00 L 256.00 0.00 L 256.00 256.00 L 0.00 256.00 L 0.00 0.00 Z" fill="#fefefe" />
<path d="M 104.42 15.45 C 110.53 14.05 116.86 16.38 122.54 18.54 C 128.78 20.96 133.36 25.38 137.54 30.45 C 142.01 35.96 143.67 42.83 147.03 49.35 C 152.55 59.98 157.12 71.06 162.35 81.82 C 163.98 84.69 166.39 89.32 169.87 90.06 C 173.55 87.43 175.58 83.15 179.39 80.43 C 184.01 77.13 190.04 75.05 194.46 71.42 C 196.58 69.67 197.65 67.29 198.87 64.90 C 199.57 64.92 200.27 64.94 200.97 64.96 C 202.40 59.73 204.71 53.96 204.33 48.54 C 204.08 44.25 203.25 39.99 202.74 35.73 C 203.96 36.72 205.18 37.71 206.40 38.69 C 206.43 37.70 206.44 36.72 206.44 35.74 C 207.35 38.82 209.69 41.19 210.65 44.18 C 209.86 51.32 211.04 58.36 210.57 65.51 C 210.26 69.22 209.62 72.91 208.82 76.54 C 206.72 81.31 206.50 86.21 206.14 91.32 C 205.82 93.03 205.58 94.74 205.21 96.43 C 204.65 94.04 204.47 91.07 203.09 88.97 C 200.18 88.44 197.02 88.76 194.07 88.87 C 196.22 91.29 198.39 93.70 200.55 96.11 C 200.40 97.02 200.25 97.93 200.10 98.83 C 193.02 95.00 187.20 89.41 179.98 85.92 C 180.63 88.96 181.24 92.29 183.22 94.79 C 185.52 97.78 189.08 99.62 191.39 102.54 C 191.90 104.29 191.94 106.22 192.09 108.03 C 186.55 112.96 185.22 119.18 183.17 125.94 C 185.21 121.65 186.87 117.32 189.81 113.52 C 189.47 118.41 188.39 121.82 186.04 126.09 C 189.28 121.74 193.95 119.57 197.86 115.96 C 197.03 117.60 195.98 119.23 195.42 121.00 C 195.04 123.65 196.15 125.66 197.14 128.02 L 197.45 128.84 C 194.19 130.66 190.64 131.01 187.16 132.14 C 185.49 132.59 184.23 134.43 184.06 136.10 C 184.18 137.79 185.08 139.53 185.73 141.09 C 184.01 141.14 182.29 141.21 180.58 141.32 C 182.52 142.12 184.48 142.86 186.46 143.56 C 184.96 143.65 183.46 143.79 181.95 143.88 C 179.21 142.95 174.90 140.76 172.70 143.69 C 169.83 146.40 167.24 151.05 168.36 155.07 C 165.67 157.27 163.49 158.66 159.91 158.79 C 160.99 154.38 164.60 152.43 166.74 148.79 C 166.85 146.18 166.01 143.44 165.43 140.92 C 162.13 142.84 158.70 145.53 154.96 146.45 C 151.58 146.77 147.87 144.50 145.26 142.52 C 142.50 139.08 140.87 135.24 136.45 133.67 C 131.51 124.23 125.82 115.74 115.86 111.06 C 116.24 104.64 117.00 98.40 116.20 91.97 C 115.27 84.59 114.62 77.17 113.62 69.80 C 118.32 67.25 122.76 65.06 126.09 60.70 C 127.41 62.75 128.73 64.80 130.04 66.85 C 132.20 73.36 135.58 79.32 137.76 85.82 C 139.20 89.68 140.01 93.73 141.37 97.61 C 142.19 99.77 143.20 101.84 144.21 103.91 C 144.47 104.50 144.73 105.08 144.98 105.66 C 146.07 112.18 147.90 119.09 150.23 125.27 C 150.63 121.45 150.38 117.64 149.35 113.93 C 150.14 113.85 150.92 113.76 151.71 113.68 C 152.33 114.30 152.95 114.92 153.57 115.54 C 154.02 120.95 154.15 126.31 155.44 131.62 C 156.95 130.73 158.45 129.84 159.95 128.94 C 159.52 124.04 162.78 119.99 161.50 115.35 C 161.28 114.35 161.04 113.35 160.77 112.35 C 159.46 104.52 157.43 97.05 154.31 89.74 C 151.19 81.33 148.22 72.93 144.12 64.93 C 141.43 58.81 137.99 52.91 136.41 46.55 C 135.53 43.09 133.87 40.02 132.09 36.95 C 131.05 40.41 129.89 43.81 128.68 47.21 L 128.90 46.31 C 130.70 39.97 131.06 35.24 129.99 28.72 C 123.88 28.03 118.18 29.26 112.27 27.10 C 112.77 26.06 113.26 25.03 113.76 23.99 C 109.40 23.41 104.85 22.78 100.55 24.10 C 99.19 24.53 98.32 25.74 97.46 26.81 C 96.96 27.44 96.45 28.09 95.95 28.73 C 93.19 30.12 90.37 31.29 87.68 32.84 C 83.25 35.63 78.76 38.16 73.92 40.16 C 70.89 40.90 67.89 41.73 64.90 42.60 C 66.94 44.90 69.15 46.88 71.91 48.27 C 74.21 48.33 76.48 48.26 78.79 48.20 C 76.39 48.45 73.76 48.89 71.36 48.49 C 69.30 47.96 67.37 46.87 65.38 46.10 C 67.44 48.85 69.59 51.26 73.12 51.98 C 75.01 52.29 76.38 51.42 78.02 50.66 C 78.40 50.94 78.79 51.22 79.17 51.50 C 78.19 54.79 78.18 56.46 79.37 59.74 C 78.03 61.53 76.44 63.43 74.50 64.58 C 72.47 65.36 70.17 65.57 68.03 65.94 C 69.12 66.84 70.19 67.74 71.32 68.60 C 72.62 69.56 73.95 70.46 75.28 71.38 C 73.43 74.07 72.28 77.04 70.97 80.00 C 69.43 83.60 66.55 86.15 63.46 88.41 C 65.42 88.34 67.37 88.34 69.32 88.31 C 68.03 91.70 66.85 95.12 66.10 98.68 C 62.99 101.44 59.91 104.17 56.42 106.45 C 58.83 106.95 61.21 107.52 63.59 108.14 C 61.34 113.69 58.48 119.89 52.70 122.51 C 52.96 125.76 51.23 127.84 49.80 130.56 C 49.47 127.33 48.36 123.84 49.92 120.76 C 51.72 117.05 54.10 113.65 55.89 109.93 C 49.99 115.46 45.75 122.82 43.93 130.70 C 43.72 135.44 43.78 140.16 43.17 144.89 C 43.91 144.48 44.66 144.07 45.40 143.66 C 45.54 144.33 45.70 145.00 45.85 145.66 C 46.51 148.97 46.93 152.35 47.38 155.70 C 47.89 155.12 48.41 154.54 48.92 153.96 C 52.55 156.64 57.24 159.50 59.59 163.44 C 60.15 165.72 60.14 168.16 60.69 170.44 C 61.64 173.61 63.48 176.68 64.93 179.60 C 65.36 182.30 64.65 184.69 63.98 187.26 C 63.60 188.69 63.30 190.14 63.01 191.59 C 62.67 193.27 62.31 194.95 61.90 196.61 L 60.66 194.84 C 61.25 192.80 62.06 190.43 61.73 188.29 C 61.28 186.48 60.15 184.76 59.22 183.16 C 58.60 180.41 58.22 177.57 57.05 174.98 C 54.84 170.23 51.54 166.63 48.02 162.85 C 46.11 158.46 44.33 154.04 42.01 149.84 C 40.91 147.70 39.48 145.57 39.58 143.06 C 39.59 137.36 39.38 131.67 39.51 125.97 C 39.30 116.95 41.21 107.79 43.07 99.02 C 44.91 89.20 48.35 80.25 48.50 70.12 C 50.20 68.67 53.08 66.90 53.55 64.57 C 53.50 60.88 52.17 57.41 52.54 53.60 C 52.81 51.10 53.22 48.34 54.45 46.11 C 55.72 44.26 57.69 42.81 59.35 41.31 C 63.49 37.83 66.36 33.92 71.23 31.33 C 75.14 29.26 79.02 27.22 82.62 24.64 C 89.01 20.04 96.79 17.19 104.42 15.45 Z" fill="#f3f3f1" />
<path d="M 199.33 21.54 C 200.93 23.01 202.43 24.54 203.52 26.44 C 206.53 31.71 209.40 36.78 211.27 42.59 C 213.39 50.44 215.08 58.33 216.12 66.40 C 216.10 68.95 216.00 71.49 215.90 74.03 C 218.45 74.32 221.01 74.59 223.55 74.96 C 220.39 78.18 216.79 79.83 216.29 84.82 C 219.01 86.16 221.65 87.40 223.80 89.60 C 221.50 89.05 219.27 88.35 217.02 87.63 C 216.50 90.90 215.47 94.03 214.85 97.28 C 214.62 99.42 214.36 101.72 214.74 103.85 C 215.54 104.92 216.50 105.76 217.46 106.68 C 217.96 107.16 218.47 107.64 218.99 108.10 C 219.65 108.70 220.30 109.29 220.96 109.88 C 219.46 110.15 217.96 110.44 216.45 110.69 C 215.50 110.82 214.56 110.96 213.62 111.11 C 212.98 111.22 212.35 111.32 211.71 111.42 C 211.09 114.41 211.09 116.84 208.34 118.71 C 204.32 116.62 201.01 116.97 197.23 119.39 C 196.92 122.24 197.27 125.15 197.14 128.02 C 196.15 125.66 195.04 123.65 195.42 121.00 C 195.98 119.23 197.03 117.60 197.86 115.96 C 193.95 119.57 189.28 121.74 186.04 126.09 C 188.39 121.82 189.47 118.41 189.81 113.52 C 186.87 117.32 185.21 121.65 183.17 125.94 C 185.22 119.18 186.55 112.96 192.09 108.03 C 192.79 107.22 193.44 106.38 194.08 105.53 C 196.05 106.10 198.02 106.62 200.02 107.02 C 198.60 105.52 197.12 104.08 195.66 102.61 C 197.08 102.73 198.50 102.88 199.92 103.03 C 201.70 100.81 203.51 98.71 205.21 96.43 C 205.58 94.74 205.82 93.03 206.14 91.32 C 207.53 89.07 209.05 87.16 209.58 84.49 C 210.40 81.62 209.38 79.32 208.82 76.54 C 209.62 72.91 210.26 69.22 210.57 65.51 C 211.04 58.36 209.86 51.32 210.65 44.18 C 209.69 41.19 207.35 38.82 206.44 35.74 C 204.90 30.37 201.63 26.56 199.33 21.54 Z" fill="#21223e" />
<path d="M 113.76 23.99 C 113.26 25.03 112.77 26.06 112.27 27.10 C 112.02 27.63 111.78 28.17 111.56 28.71 C 111.10 29.83 110.67 30.96 110.20 32.07 C 110.05 30.89 109.89 29.72 109.74 28.54 C 106.73 31.24 103.66 33.61 99.82 35.01 C 98.57 35.38 97.05 34.50 95.84 34.17 C 96.37 31.71 96.91 29.26 97.46 26.81 C 98.32 25.74 99.19 24.53 100.55 24.10 C 104.85 22.78 109.40 23.41 113.76 23.99 Z" fill="#d4d2bc" />
<path d="M 97.46 26.81 C 96.91 29.26 96.37 31.71 95.84 34.17 C 97.05 34.50 98.57 35.38 99.82 35.01 C 103.66 33.61 106.73 31.24 109.74 28.54 C 109.89 29.72 110.05 30.89 110.20 32.07 C 107.78 37.23 103.61 39.32 97.99 39.04 C 96.75 37.85 95.32 36.71 94.34 35.30 C 93.67 32.96 94.98 30.77 95.95 28.73 C 96.45 28.09 96.96 27.44 97.46 26.81 Z" fill="#1e1d3d" />
<path d="M 112.27 27.10 C 118.18 29.26 123.88 28.03 129.99 28.72 C 131.06 35.24 130.70 39.97 128.90 46.31 C 127.08 46.20 125.01 45.68 123.22 46.14 C 120.04 47.28 117.15 49.78 114.66 52.01 C 114.11 49.85 113.59 47.69 113.02 45.53 C 112.49 43.83 112.19 41.47 110.13 40.98 C 108.29 41.01 106.26 40.89 104.48 41.44 C 102.14 42.92 100.47 45.53 98.44 47.42 C 99.96 42.11 103.70 39.85 108.37 37.58 C 109.82 38.36 111.53 39.11 112.69 40.30 C 114.24 42.33 115.16 44.90 116.24 47.19 C 120.07 44.98 123.99 43.01 128.18 41.57 C 127.32 39.77 126.20 37.94 125.72 36.00 C 125.74 33.93 126.47 31.84 126.87 29.82 C 126.05 29.69 125.23 29.56 124.41 29.45 C 121.97 29.54 119.63 30.36 117.21 30.44 C 115.28 30.08 113.42 29.29 111.56 28.71 C 111.78 28.17 112.02 27.63 112.27 27.10 Z" fill="#201e3a" />
<path d="M 95.95 28.73 C 94.98 30.77 93.67 32.96 94.34 35.30 C 95.32 36.71 96.75 37.85 97.99 39.04 C 90.72 39.30 85.07 46.24 79.13 49.96 C 79.01 49.37 78.90 48.78 78.79 48.20 C 78.41 46.19 78.02 44.18 77.61 42.18 C 77.48 41.54 77.34 40.91 77.21 40.27 C 80.22 40.15 85.35 39.93 86.35 36.40 C 86.88 35.24 87.29 34.05 87.68 32.84 C 90.37 31.29 93.19 30.12 95.95 28.73 Z" fill="#cfcab0" />
<path d="M 111.56 28.71 C 113.42 29.29 115.28 30.08 117.21 30.44 C 119.63 30.36 121.97 29.54 124.41 29.45 C 123.14 30.94 121.87 32.43 120.60 33.92 L 119.95 33.47 C 117.63 32.39 115.22 31.49 112.76 30.83 C 111.35 33.18 110.18 35.49 108.37 37.58 C 103.70 39.85 99.96 42.11 98.44 47.42 C 100.47 45.53 102.14 42.92 104.48 41.44 C 106.26 40.89 108.29 41.01 110.13 40.98 C 106.18 42.28 103.67 43.35 101.64 47.17 C 99.89 49.55 97.91 51.74 95.76 53.76 C 94.26 55.10 92.64 56.27 91.00 57.44 C 92.47 58.40 93.93 59.37 95.39 60.34 C 93.71 62.07 91.69 63.25 89.56 64.33 C 88.99 63.36 88.43 62.38 87.84 61.42 C 86.36 59.06 84.59 56.87 82.85 54.69 C 81.80 56.09 80.83 57.55 79.89 59.03 L 79.37 59.74 C 78.18 56.46 78.19 54.79 79.17 51.50 C 78.79 51.22 78.40 50.94 78.02 50.66 L 79.13 49.96 C 85.07 46.24 90.72 39.30 97.99 39.04 C 103.61 39.32 107.78 37.23 110.20 32.07 C 110.67 30.96 111.10 29.83 111.56 28.71 Z" fill="#f0efe2" />
<path d="M 112.76 30.83 C 115.22 31.49 117.63 32.39 119.95 33.47 C 118.99 33.97 118.04 34.46 117.09 34.97 C 119.46 36.46 121.81 37.97 124.20 39.42 C 123.15 37.49 122.03 35.61 120.60 33.92 C 121.87 32.43 123.14 30.94 124.41 29.45 C 125.23 29.56 126.05 29.69 126.87 29.82 C 126.47 31.84 125.74 33.93 125.72 36.00 C 126.20 37.94 127.32 39.77 128.18 41.57 C 123.99 43.01 120.07 44.98 116.24 47.19 C 115.16 44.90 114.24 42.33 112.69 40.30 C 111.53 39.11 109.82 38.36 108.37 37.58 C 110.18 35.49 111.35 33.18 112.76 30.83 Z" fill="#dddec7" />
<path d="M 87.68 32.84 C 87.29 34.05 86.88 35.24 86.35 36.40 C 85.35 39.93 80.22 40.15 77.21 40.27 C 76.11 40.24 75.01 40.20 73.92 40.16 C 78.76 38.16 83.25 35.63 87.68 32.84 Z" fill="#4d4246" />
<path d="M 119.95 33.47 L 120.60 33.92 C 122.03 35.61 123.15 37.49 124.20 39.42 C 121.81 37.97 119.46 36.46 117.09 34.97 C 118.04 34.46 118.99 33.97 119.95 33.47 Z" fill="#464346" />
<path d="M 132.09 36.95 C 133.87 40.02 135.53 43.09 136.41 46.55 C 137.99 52.91 141.43 58.81 144.12 64.93 C 148.22 72.93 151.19 81.33 154.31 89.74 C 157.43 97.05 159.46 104.52 160.77 112.35 C 158.52 106.67 156.60 100.99 153.15 95.87 C 150.25 91.11 147.16 86.48 144.46 81.59 C 143.40 79.50 141.69 78.34 139.80 77.08 C 137.50 75.63 136.65 73.44 135.08 71.31 C 133.84 69.52 131.74 68.20 130.04 66.85 C 128.73 64.80 127.41 62.75 126.09 60.70 C 126.26 59.84 126.41 58.97 126.55 58.09 C 127.11 54.43 127.69 50.79 128.68 47.21 C 129.89 43.81 131.05 40.41 132.09 36.95 Z" fill="#da5a46" />
<path d="M 73.92 40.16 C 75.01 40.20 76.11 40.24 77.21 40.27 C 77.34 40.91 77.48 41.54 77.61 42.18 C 75.92 42.25 74.24 42.32 72.55 42.45 C 72.28 44.39 72.10 46.32 71.91 48.27 C 69.15 46.88 66.94 44.90 64.90 42.60 C 67.89 41.73 70.89 40.90 73.92 40.16 Z" fill="#ba9209" />
<path d="M 110.13 40.98 C 112.19 41.47 112.49 43.83 113.02 45.53 C 112.17 51.84 113.81 57.76 113.83 64.03 C 113.83 65.96 113.78 67.88 113.62 69.80 C 112.37 74.47 111.40 79.07 111.62 83.95 C 111.59 78.39 110.78 73.00 109.51 67.60 C 107.74 60.09 107.25 53.00 101.64 47.17 C 103.67 43.35 106.18 42.28 110.13 40.98 Z" fill="#cd8a70" />
<path d="M 72.55 42.45 C 74.24 42.32 75.92 42.25 77.61 42.18 C 78.02 44.18 78.41 46.19 78.79 48.20 C 76.48 48.26 74.21 48.33 71.91 48.27 C 72.10 46.32 72.28 44.39 72.55 42.45 Z" fill="#d29408" />
<path d="M 216.16 44.04 C 220.68 55.47 226.69 64.07 228.52 76.27 C 229.70 85.43 230.08 94.28 232.69 103.36 C 234.55 109.70 238.17 115.86 241.21 121.74 C 243.62 126.44 246.91 131.14 247.68 136.40 C 248.43 141.53 248.48 146.86 247.99 152.03 C 247.33 159.17 242.58 165.74 237.99 171.00 C 235.44 174.02 232.27 177.80 232.37 181.99 C 232.66 188.23 236.48 194.30 238.95 199.87 C 241.62 206.46 243.17 213.28 240.66 220.19 C 238.94 217.14 237.30 215.18 234.27 213.34 C 233.57 210.22 233.60 206.58 231.35 204.23 C 231.22 205.35 231.13 206.47 231.06 207.59 C 231.01 208.39 230.96 209.20 230.91 210.00 C 229.84 204.96 228.85 199.95 228.55 194.79 C 227.05 193.38 225.54 192.30 224.67 190.39 C 223.79 188.76 223.22 186.59 221.23 185.99 C 218.84 185.23 216.21 185.09 213.73 184.77 C 213.58 183.67 213.43 182.56 213.28 181.46 C 212.27 181.56 211.26 181.67 210.26 181.81 C 209.15 180.15 208.03 178.50 206.92 176.84 C 211.42 178.48 216.04 179.67 220.63 181.04 C 212.42 176.37 205.33 170.45 199.62 162.90 C 201.92 162.94 204.23 162.98 206.53 162.99 C 212.11 163.06 216.81 165.25 221.98 166.97 C 226.71 168.63 232.24 167.15 236.06 164.09 C 238.59 162.11 238.73 159.07 239.31 156.14 C 239.95 151.78 240.82 147.39 241.01 142.99 C 241.17 139.66 239.93 136.95 238.76 133.93 C 238.26 135.24 237.75 136.55 237.25 137.86 C 236.33 134.06 235.74 130.14 234.59 126.39 C 233.75 123.56 231.42 121.66 229.45 119.59 C 227.28 117.32 225.04 115.09 222.82 112.87 C 223.45 111.75 224.08 110.63 224.70 109.51 C 222.79 109.07 220.88 108.63 218.99 108.10 C 218.47 107.64 217.96 107.16 217.46 106.68 C 216.94 105.85 216.43 105.02 215.93 104.18 C 219.22 100.16 222.12 95.90 224.27 91.15 C 221.06 93.09 218.01 95.26 214.85 97.28 C 215.47 94.03 216.50 90.90 217.02 87.63 C 219.27 88.35 221.50 89.05 223.80 89.60 C 221.65 87.40 219.01 86.16 216.29 84.82 C 216.79 79.83 220.39 78.18 223.55 74.96 C 221.01 74.59 218.45 74.32 215.90 74.03 C 216.00 71.49 216.10 68.95 216.12 66.40 C 216.75 62.80 217.10 59.35 216.26 55.74 C 215.39 51.76 215.03 47.99 216.16 44.04 Z" fill="#f5f5f2" />
<path d="M 49.95 44.65 C 50.95 48.56 50.21 52.26 50.33 56.22 C 50.40 61.01 49.18 65.44 48.50 70.12 C 48.35 80.25 44.91 89.20 43.07 99.02 C 41.21 107.79 39.30 116.95 39.51 125.97 C 39.38 131.67 39.59 137.36 39.58 143.06 C 39.48 145.57 40.91 147.70 42.01 149.84 C 44.33 154.04 46.11 158.46 48.02 162.85 C 50.03 168.13 52.13 173.42 54.52 178.54 C 55.45 180.54 57.55 181.79 59.22 183.16 C 60.15 184.76 61.28 186.48 61.73 188.29 C 62.06 190.43 61.25 192.80 60.66 194.84 C 59.57 197.21 58.70 199.54 58.37 202.15 C 55.26 201.31 52.39 201.27 49.76 199.24 C 45.37 195.73 40.60 192.79 36.33 189.11 C 37.19 188.06 38.05 187.02 38.96 186.02 C 40.09 184.97 41.27 184.00 42.45 183.01 C 43.74 184.33 44.92 186.22 46.69 186.85 C 48.65 187.65 50.81 188.02 52.87 188.48 C 46.67 184.65 41.88 180.12 34.96 177.89 C 31.36 176.75 28.72 174.46 25.86 172.11 C 23.81 169.49 21.65 166.26 21.28 162.89 C 20.31 155.20 20.59 147.29 21.74 139.64 C 22.85 142.40 23.47 145.25 23.98 148.18 C 24.91 144.56 25.21 140.89 25.58 137.20 C 27.45 138.17 29.30 139.19 31.18 140.16 C 29.64 136.32 25.95 132.73 26.00 128.59 C 25.83 124.51 27.91 121.32 29.27 117.63 C 29.31 120.47 29.34 123.30 29.34 126.14 C 30.15 125.96 30.96 125.78 31.77 125.60 C 32.50 121.35 33.19 117.11 33.71 112.83 C 35.05 109.35 36.55 106.05 36.94 102.29 C 33.26 103.21 33.06 108.18 31.00 111.05 C 30.85 109.60 30.44 108.35 31.10 106.97 C 32.47 103.47 34.44 100.20 36.20 96.88 C 36.78 98.07 37.37 99.25 37.97 100.42 C 39.03 97.54 39.40 95.04 39.40 91.99 C 39.89 88.08 41.95 84.30 43.13 80.53 C 45.73 73.54 47.96 66.49 48.69 59.02 C 49.54 54.24 49.37 49.44 49.95 44.65 Z" fill="#20223f" />
<path d="M 65.38 46.10 C 67.37 46.87 69.30 47.96 71.36 48.49 C 73.76 48.89 76.39 48.45 78.79 48.20 C 78.90 48.78 79.01 49.37 79.13 49.96 L 78.02 50.66 C 76.38 51.42 75.01 52.29 73.12 51.98 C 69.59 51.26 67.44 48.85 65.38 46.10 Z" fill="#413934" />
<path d="M 113.02 45.53 C 113.59 47.69 114.11 49.85 114.66 52.01 C 117.15 49.78 120.04 47.28 123.22 46.14 C 125.01 45.68 127.08 46.20 128.90 46.31 L 128.68 47.21 C 127.69 50.79 127.11 54.43 126.55 58.09 C 122.12 59.67 117.96 61.80 113.83 64.03 C 113.81 57.76 112.17 51.84 113.02 45.53 Z" fill="#dbbf64" />
<path d="M 101.64 47.17 C 107.25 53.00 107.74 60.09 109.51 67.60 C 110.78 73.00 111.59 78.39 111.62 83.95 C 111.31 92.23 113.29 101.31 110.98 109.24 C 110.15 112.08 109.06 115.11 108.93 118.07 C 108.83 120.58 109.66 123.24 109.25 125.70 C 108.31 127.98 106.43 129.94 104.98 131.91 C 105.08 127.81 104.91 123.73 104.68 119.63 C 104.69 116.76 104.50 113.89 104.55 111.03 C 105.09 106.98 105.71 103.07 105.09 98.98 C 103.96 90.94 102.73 82.56 100.03 74.87 C 99.21 71.99 97.73 69.04 97.50 66.06 C 97.88 63.12 99.28 60.25 100.27 57.46 C 98.99 58.04 97.72 58.63 96.48 59.28 C 96.27 57.44 96.01 55.60 95.76 53.76 C 97.91 51.74 99.89 49.55 101.64 47.17 Z" fill="#db5946" />
<path d="M 95.76 53.76 C 96.01 55.60 96.27 57.44 96.48 59.28 L 95.39 60.34 C 93.93 59.37 92.47 58.40 91.00 57.44 C 92.64 56.27 94.26 55.10 95.76 53.76 Z" fill="#473e4b" />
<path d="M 82.85 54.69 C 84.59 56.87 86.36 59.06 87.84 61.42 C 88.57 65.40 86.49 67.28 84.06 69.98 C 81.63 70.35 79.19 70.65 76.75 71.01 L 75.28 71.38 C 73.95 70.46 72.62 69.56 71.32 68.60 C 73.45 67.30 75.71 66.09 77.66 64.52 C 78.82 62.99 79.20 60.81 79.89 59.03 C 80.83 57.55 81.80 56.09 82.85 54.69 Z" fill="#cd8f06" />
<path d="M 100.27 57.46 C 99.28 60.25 97.88 63.12 97.50 66.06 C 97.73 69.04 99.21 71.99 100.03 74.87 C 100.11 76.15 100.16 77.44 100.20 78.72 C 99.37 80.50 98.45 82.26 97.56 84.01 C 95.58 83.38 93.59 82.77 91.60 82.19 C 88.65 84.00 85.61 85.62 82.50 87.13 C 82.74 85.30 82.98 83.46 83.24 81.63 C 81.87 81.71 80.50 81.78 79.12 81.85 C 81.67 77.69 84.50 73.69 87.09 69.54 C 86.08 69.68 85.07 69.83 84.06 69.98 C 86.49 67.28 88.57 65.40 87.84 61.42 C 88.43 62.38 88.99 63.36 89.56 64.33 C 91.69 63.25 93.71 62.07 95.39 60.34 L 96.48 59.28 C 97.72 58.63 98.99 58.04 100.27 57.46 Z" fill="#d5d3ba" />
<path d="M 126.55 58.09 C 126.41 58.97 126.26 59.84 126.09 60.70 C 122.76 65.06 118.32 67.25 113.62 69.80 C 113.78 67.88 113.83 65.96 113.83 64.03 C 117.96 61.80 122.12 59.67 126.55 58.09 Z" fill="#d4ceb9" />
<path d="M 79.37 59.74 L 79.89 59.03 C 79.20 60.81 78.82 62.99 77.66 64.52 C 75.71 66.09 73.45 67.30 71.32 68.60 C 70.19 67.74 69.12 66.84 68.03 65.94 C 70.17 65.57 72.47 65.36 74.50 64.58 C 76.44 63.43 78.03 61.53 79.37 59.74 Z" fill="#98855d" />
<path d="M 130.04 66.85 C 131.74 68.20 133.84 69.52 135.08 71.31 C 136.65 73.44 137.50 75.63 139.80 77.08 C 141.69 78.34 143.40 79.50 144.46 81.59 C 147.16 86.48 150.25 91.11 153.15 95.87 C 152.94 97.61 152.54 99.57 153.17 101.25 C 154.09 103.88 155.84 105.75 155.72 108.67 C 155.58 112.15 155.71 115.33 156.65 118.70 C 155.63 117.64 154.60 116.58 153.57 115.54 C 152.95 114.92 152.33 114.30 151.71 113.68 C 150.92 113.76 150.14 113.85 149.35 113.93 C 148.20 111.01 146.65 108.31 144.98 105.66 C 144.73 105.08 144.47 104.50 144.21 103.91 C 144.98 101.46 144.62 100.46 143.32 98.32 C 142.67 98.07 142.02 97.84 141.37 97.61 C 140.01 93.73 139.20 89.68 137.76 85.82 C 135.58 79.32 132.20 73.36 130.04 66.85 Z" fill="#db7362" />
<path d="M 87.09 69.54 C 84.50 73.69 81.67 77.69 79.12 81.85 C 77.57 84.60 75.76 87.17 73.98 89.78 C 71.95 92.83 71.20 96.40 69.77 99.62 C 69.42 100.50 68.18 100.92 67.44 101.44 C 68.69 96.37 70.38 91.49 71.00 86.27 C 71.72 80.76 73.90 75.74 76.75 71.01 C 79.19 70.65 81.63 70.35 84.06 69.98 C 85.07 69.83 86.08 69.68 87.09 69.54 Z" fill="#f1f0e4" />
<path d="M 113.62 69.80 C 114.62 77.17 115.27 84.59 116.20 91.97 C 117.00 98.40 116.24 104.64 115.86 111.06 C 115.67 115.28 115.25 119.44 113.97 123.49 C 113.48 121.82 111.91 119.56 112.99 117.90 C 113.57 116.26 114.92 114.49 115.03 112.76 C 113.90 111.40 112.40 110.28 110.98 109.24 C 113.29 101.31 111.31 92.23 111.62 83.95 C 111.40 79.07 112.37 74.47 113.62 69.80 Z" fill="#de9c8f" />
<path d="M 40.99 70.85 C 41.79 74.05 42.56 77.28 43.13 80.53 C 41.95 84.30 39.89 88.08 39.40 91.99 C 39.40 95.04 39.03 97.54 37.97 100.42 C 37.37 99.25 36.78 98.07 36.20 96.88 C 34.44 100.20 32.47 103.47 31.10 106.97 C 30.44 108.35 30.85 109.60 31.00 111.05 C 33.06 108.18 33.26 103.21 36.94 102.29 C 36.55 106.05 35.05 109.35 33.71 112.83 C 33.10 114.06 32.44 115.28 31.80 116.50 C 31.24 115.67 30.68 114.84 30.11 114.01 C 29.82 115.22 29.54 116.42 29.27 117.63 C 27.91 121.32 25.83 124.51 26.00 128.59 C 25.95 132.73 29.64 136.32 31.18 140.16 C 29.30 139.19 27.45 138.17 25.58 137.20 C 25.21 140.89 24.91 144.56 23.98 148.18 C 23.47 145.25 22.85 142.40 21.74 139.64 C 20.59 147.29 20.31 155.20 21.28 162.89 C 21.65 166.26 23.81 169.49 25.86 172.11 C 22.21 176.72 26.84 182.35 28.85 186.68 C 29.73 187.32 30.62 187.93 31.51 188.54 C 29.47 188.82 27.45 189.22 25.44 189.71 C 28.64 192.87 32.77 190.10 36.33 189.11 C 40.60 192.79 45.37 195.73 49.76 199.24 C 52.39 201.27 55.26 201.31 58.37 202.15 C 61.84 202.83 63.67 204.84 65.10 207.92 L 64.43 209.13 C 62.73 206.48 61.35 204.63 58.18 203.72 C 57.48 206.19 56.84 208.68 56.01 211.12 C 57.10 211.86 58.19 212.60 59.28 213.33 C 58.70 213.80 58.12 214.27 57.54 214.74 C 59.20 216.57 60.87 218.64 62.91 220.05 C 65.23 221.41 68.36 221.58 70.96 222.16 C 72.48 223.54 71.22 224.95 70.32 226.26 C 68.44 228.62 65.52 228.79 62.80 229.63 C 63.90 230.71 65.00 231.79 66.16 232.81 C 63.71 231.93 62.18 230.26 60.62 228.27 C 60.49 229.56 60.35 230.84 60.21 232.12 C 57.90 229.99 55.67 227.75 53.33 225.65 C 49.66 222.35 45.37 219.98 41.12 217.50 C 41.11 216.60 41.09 215.70 41.07 214.79 C 37.98 214.21 34.39 213.88 31.63 212.33 C 28.35 210.28 27.20 206.76 25.91 203.34 C 24.00 197.91 20.94 193.21 19.44 187.61 C 17.56 180.74 15.73 173.84 14.08 166.91 C 12.19 158.84 12.79 149.89 13.55 141.68 C 14.36 132.93 17.90 125.66 20.29 117.35 C 22.15 111.17 23.60 105.20 26.29 99.28 C 30.69 89.53 36.52 80.57 40.99 70.85 Z" fill="#f4f4f2" />
<path d="M 75.28 71.38 L 76.75 71.01 C 73.90 75.74 71.72 80.76 71.00 86.27 C 70.38 91.49 68.69 96.37 67.44 101.44 C 65.72 106.21 65.46 111.61 62.61 115.63 C 61.50 117.43 60.08 118.98 58.86 120.69 C 58.00 122.75 58.22 124.81 56.69 126.63 C 54.30 130.18 50.27 131.58 48.34 135.31 C 46.21 138.79 46.79 143.34 46.43 147.30 L 45.85 145.66 C 45.70 145.00 45.54 144.33 45.40 143.66 C 44.66 144.07 43.91 144.48 43.17 144.89 C 43.78 140.16 43.72 135.44 43.93 130.70 C 45.77 130.91 47.61 131.14 49.45 131.38 L 49.80 130.56 C 51.23 127.84 52.96 125.76 52.70 122.51 C 58.48 119.89 61.34 113.69 63.59 108.14 C 64.79 105.07 65.40 101.89 66.10 98.68 C 66.85 95.12 68.03 91.70 69.32 88.31 C 67.37 88.34 65.42 88.34 63.46 88.41 C 66.55 86.15 69.43 83.60 70.97 80.00 C 72.28 77.04 73.43 74.07 75.28 71.38 Z" fill="#24233a" />
<path d="M 213.54 71.73 C 214.75 75.83 214.35 79.39 213.31 83.49 C 210.75 79.37 212.59 76.02 213.54 71.73 Z" fill="#8f90a0" />
<path d="M 100.03 74.87 C 102.73 82.56 103.96 90.94 105.09 98.98 C 105.07 101.22 104.95 103.44 104.78 105.67 C 101.87 99.12 102.70 92.81 101.12 86.00 C 100.68 83.59 100.34 81.16 100.20 78.72 C 100.16 77.44 100.11 76.15 100.03 74.87 Z" fill="#725551" />
<path d="M 208.82 76.54 C 209.38 79.32 210.40 81.62 209.58 84.49 C 209.05 87.16 207.53 89.07 206.14 91.32 C 206.50 86.21 206.72 81.31 208.82 76.54 Z" fill="#9897aa" />
<path d="M 100.20 78.72 C 100.34 81.16 100.68 83.59 101.12 86.00 C 100.56 85.32 100.00 84.65 99.43 83.98 C 98.45 90.03 97.79 96.18 97.72 102.31 C 97.77 104.19 97.73 106.40 98.52 108.14 C 100.16 109.56 102.57 110.21 104.55 111.03 C 104.50 113.89 104.69 116.76 104.68 119.63 C 104.07 124.92 104.12 130.25 103.48 135.53 C 103.09 138.53 103.07 141.53 103.17 144.54 C 105.61 140.81 106.19 136.39 108.78 132.79 C 110.86 129.84 112.89 126.99 113.97 123.49 C 115.25 119.44 115.67 115.28 115.86 111.06 C 125.82 115.74 131.51 124.23 136.45 133.67 C 134.82 133.35 133.18 133.11 131.53 132.98 C 130.67 137.22 129.41 140.03 126.95 143.63 C 127.94 144.48 128.93 145.34 129.93 146.19 C 128.57 147.21 127.22 148.23 125.87 149.26 C 120.96 149.29 117.16 147.12 112.66 145.70 C 107.79 145.24 102.07 144.22 98.82 148.81 C 96.12 152.85 93.97 157.27 91.36 161.40 C 89.60 158.61 87.95 155.65 85.85 153.10 C 84.14 151.02 81.72 150.15 79.35 149.02 C 80.14 148.22 80.93 147.43 81.72 146.64 C 80.27 144.62 78.70 142.75 76.84 141.10 L 77.00 140.44 L 77.27 139.95 C 80.51 136.58 83.53 133.03 86.10 129.11 C 81.69 131.81 79.55 134.71 77.54 139.42 C 75.53 138.24 73.50 136.93 71.33 136.09 C 69.00 134.53 67.42 139.13 66.20 140.35 C 65.62 139.19 64.99 138.07 64.36 136.94 C 65.35 137.01 66.34 137.08 67.32 137.15 C 66.51 131.28 68.78 126.58 69.90 121.00 C 67.73 121.21 65.59 121.39 63.43 121.73 C 62.02 127.22 63.14 133.78 59.88 138.33 C 59.31 136.18 58.78 134.02 58.24 131.86 C 58.29 135.96 58.17 140.16 58.88 144.19 C 56.67 145.48 54.52 146.89 52.36 148.27 C 53.54 150.00 54.70 151.74 55.85 153.48 C 55.00 153.14 54.15 152.79 53.30 152.45 C 53.10 152.94 52.89 153.44 52.69 153.93 C 51.28 152.51 49.81 151.16 48.26 149.90 C 48.46 151.26 48.69 152.61 48.92 153.96 C 48.41 154.54 47.89 155.12 47.38 155.70 C 46.93 152.35 46.51 148.97 45.85 145.66 L 46.43 147.30 C 46.79 143.34 46.21 138.79 48.34 135.31 C 50.27 131.58 54.30 130.18 56.69 126.63 C 58.22 124.81 58.00 122.75 58.86 120.69 C 60.08 118.98 61.50 117.43 62.61 115.63 C 65.46 111.61 65.72 106.21 67.44 101.44 C 68.18 100.92 69.42 100.50 69.77 99.62 C 71.20 96.40 71.95 92.83 73.98 89.78 C 75.76 87.17 77.57 84.60 79.12 81.85 C 80.50 81.78 81.87 81.71 83.24 81.63 C 82.98 83.46 82.74 85.30 82.50 87.13 C 85.61 85.62 88.65 84.00 91.60 82.19 C 93.59 82.77 95.58 83.38 97.56 84.01 C 98.45 82.26 99.37 80.50 100.20 78.72 Z" fill="#dfe1c7" />
<path d="M 99.43 83.98 C 100.00 84.65 100.56 85.32 101.12 86.00 C 102.70 92.81 101.87 99.12 104.78 105.67 C 104.95 103.44 105.07 101.22 105.09 98.98 C 105.71 103.07 105.09 106.98 104.55 111.03 C 102.57 110.21 100.16 109.56 98.52 108.14 C 97.73 106.40 97.77 104.19 97.72 102.31 C 97.79 96.18 98.45 90.03 99.43 83.98 Z" fill="#f3f2f0" />
<path d="M 140.85 85.22 C 144.00 86.87 146.23 89.41 148.33 92.21 C 146.83 92.63 145.33 93.05 143.83 93.47 C 142.72 90.76 141.64 88.05 140.85 85.22 Z" fill="#eaa093" />
<path d="M 179.98 85.92 C 187.20 89.41 193.02 95.00 200.10 98.83 C 200.25 97.93 200.40 97.02 200.55 96.11 C 198.39 93.70 196.22 91.29 194.07 88.87 C 197.02 88.76 200.18 88.44 203.09 88.97 C 204.47 91.07 204.65 94.04 205.21 96.43 C 203.51 98.71 201.70 100.81 199.92 103.03 C 198.50 102.88 197.08 102.73 195.66 102.61 C 197.12 104.08 198.60 105.52 200.02 107.02 C 198.02 106.62 196.05 106.10 194.08 105.53 C 193.44 106.38 192.79 107.22 192.09 108.03 C 191.94 106.22 191.90 104.29 191.39 102.54 C 189.08 99.62 185.52 97.78 183.22 94.79 C 181.24 92.29 180.63 88.96 179.98 85.92 Z" fill="#e1e3cd" />
<path d="M 224.27 91.15 C 222.12 95.90 219.22 100.16 215.93 104.18 C 216.43 105.02 216.94 105.85 217.46 106.68 C 216.50 105.76 215.54 104.92 214.74 103.85 C 214.36 101.72 214.62 99.42 214.85 97.28 C 218.01 95.26 221.06 93.09 224.27 91.15 Z" fill="#ae93cb" />
<path d="M 37.23 94.27 L 37.79 94.26 L 37.80 94.83 L 37.23 94.83 L 37.23 94.27 Z" fill="#302e37" />
<path d="M 153.15 95.87 C 156.60 100.99 158.52 106.67 160.77 112.35 C 161.04 113.35 161.28 114.35 161.50 115.35 C 162.78 119.99 159.52 124.04 159.95 128.94 C 158.45 129.84 156.95 130.73 155.44 131.62 C 154.15 126.31 154.02 120.95 153.57 115.54 C 154.60 116.58 155.63 117.64 156.65 118.70 C 155.71 115.33 155.58 112.15 155.72 108.67 C 155.84 105.75 154.09 103.88 153.17 101.25 C 152.54 99.57 152.94 97.61 153.15 95.87 Z" fill="#ecc4bb" />
<path d="M 143.32 98.32 C 144.62 100.46 144.98 101.46 144.21 103.91 C 143.20 101.84 142.19 99.77 141.37 97.61 C 142.02 97.84 142.67 98.07 143.32 98.32 Z" fill="#704642" />
<path d="M 66.10 98.68 C 65.40 101.89 64.79 105.07 63.59 108.14 C 61.21 107.52 58.83 106.95 56.42 106.45 C 59.91 104.17 62.99 101.44 66.10 98.68 Z" fill="#a69994" />
<path d="M 144.98 105.66 C 146.65 108.31 148.20 111.01 149.35 113.93 C 150.38 117.64 150.63 121.45 150.23 125.27 C 147.90 119.09 146.07 112.18 144.98 105.66 Z" fill="#7d5a5b" />
<path d="M 196.07 108.39 C 197.67 106.87 198.82 110.16 197.28 110.89 C 195.94 111.11 195.50 109.33 196.07 108.39 Z" fill="#8a8ea6" />
<path d="M 218.99 108.10 C 220.88 108.63 222.79 109.07 224.70 109.51 C 224.08 110.63 223.45 111.75 222.82 112.87 C 225.04 115.09 227.28 117.32 229.45 119.59 C 231.86 124.42 235.43 131.24 232.78 136.56 C 232.55 137.17 232.32 137.79 232.08 138.41 C 231.54 133.46 231.52 128.27 229.32 123.69 C 226.80 118.09 221.38 114.08 216.45 110.69 C 217.96 110.44 219.46 110.15 220.96 109.88 C 220.30 109.29 219.65 108.70 218.99 108.10 Z" fill="#b3a9a2" />
<path d="M 110.98 109.24 C 112.40 110.28 113.90 111.40 115.03 112.76 C 114.92 114.49 113.57 116.26 112.99 117.90 C 111.91 119.56 113.48 121.82 113.97 123.49 C 112.89 126.99 110.86 129.84 108.78 132.79 C 106.19 136.39 105.61 140.81 103.17 144.54 C 103.07 141.53 103.09 138.53 103.48 135.53 C 104.12 130.25 104.07 124.92 104.68 119.63 C 104.91 123.73 105.08 127.81 104.98 131.91 C 106.43 129.94 108.31 127.98 109.25 125.70 C 109.66 123.24 108.83 120.58 108.93 118.07 C 109.06 115.11 110.15 112.08 110.98 109.24 Z" fill="#d18571" />
<path d="M 55.89 109.93 C 54.10 113.65 51.72 117.05 49.92 120.76 C 48.36 123.84 49.47 127.33 49.80 130.56 L 49.45 131.38 C 47.61 131.14 45.77 130.91 43.93 130.70 C 45.75 122.82 49.99 115.46 55.89 109.93 Z" fill="#bbbbc6" />
<path d="M 193.31 110.28 L 193.87 110.25 L 193.90 110.82 L 193.33 110.84 L 193.31 110.28 Z" fill="#e0e4ff" />
<path d="M 213.62 111.11 C 213.84 115.15 216.76 116.96 219.12 119.88 C 223.61 124.86 226.89 130.59 226.97 137.47 C 227.12 140.71 225.65 143.26 223.88 145.83 C 219.84 145.60 216.01 145.81 212.21 147.30 C 208.99 148.57 206.03 149.38 202.53 149.21 C 200.79 147.80 199.10 146.33 197.44 144.83 C 199.25 144.36 201.05 143.89 202.86 143.42 C 203.22 142.51 203.56 141.55 204.04 140.69 C 210.80 139.62 217.60 140.08 224.31 138.24 C 220.99 136.54 217.74 135.89 214.02 135.67 C 208.56 135.35 203.85 133.52 198.60 132.12 C 201.61 127.16 203.50 122.26 208.34 118.71 C 211.09 116.84 211.09 114.41 211.71 111.42 C 212.35 111.32 212.98 111.22 213.62 111.11 Z" fill="#f3f2f1" />
<path d="M 213.62 111.11 C 214.56 110.96 215.50 110.82 216.45 110.69 C 221.38 114.08 226.80 118.09 229.32 123.69 C 231.52 128.27 231.54 133.46 232.08 138.41 C 232.32 137.79 232.55 137.17 232.78 136.56 C 235.43 131.24 231.86 124.42 229.45 119.59 C 231.42 121.66 233.75 123.56 234.59 126.39 C 235.74 130.14 236.33 134.06 237.25 137.86 C 237.75 136.55 238.26 135.24 238.76 133.93 C 239.93 136.95 241.17 139.66 241.01 142.99 C 240.82 147.39 239.95 151.78 239.31 156.14 C 238.73 159.07 238.59 162.11 236.06 164.09 C 232.24 167.15 226.71 168.63 221.98 166.97 C 216.81 165.25 212.11 163.06 206.53 162.99 C 211.75 161.54 216.43 159.05 221.09 156.33 C 221.83 158.45 222.57 160.56 223.30 162.68 C 227.99 161.74 232.46 161.52 234.87 156.72 C 235.72 152.72 231.36 151.19 228.77 149.31 C 228.65 147.94 228.53 146.57 228.41 145.20 C 225.41 147.92 223.00 150.77 221.35 154.49 C 215.47 154.34 209.70 153.76 203.96 152.42 C 204.63 152.29 205.30 152.17 205.98 152.05 C 210.02 151.25 214.32 151.49 218.24 150.30 C 220.70 149.52 222.34 147.80 223.88 145.83 C 225.65 143.26 227.12 140.71 226.97 137.47 C 226.89 130.59 223.61 124.86 219.12 119.88 C 216.76 116.96 213.84 115.15 213.62 111.11 Z" fill="#d6d3c0" />
<path d="M 194.00 112.25 C 195.43 112.95 196.78 113.85 198.12 114.70 C 195.75 114.98 193.37 115.23 190.98 115.39 C 191.95 114.29 192.89 113.20 194.00 112.25 Z" fill="#9fa1b5" />
<path d="M 33.71 112.83 C 33.19 117.11 32.50 121.35 31.77 125.60 C 30.96 125.78 30.15 125.96 29.34 126.14 C 29.34 123.30 29.31 120.47 29.27 117.63 C 29.54 116.42 29.82 115.22 30.11 114.01 C 30.68 114.84 31.24 115.67 31.80 116.50 C 32.44 115.28 33.10 114.06 33.71 112.83 Z" fill="#868694" />
<path d="M 208.34 118.71 C 203.50 122.26 201.61 127.16 198.60 132.12 C 198.23 131.02 197.87 129.92 197.45 128.84 L 197.14 128.02 C 197.27 125.15 196.92 122.24 197.23 119.39 C 201.01 116.97 204.32 116.62 208.34 118.71 Z" fill="#ae99c6" />
<path d="M 199.33 120.08 L 200.03 119.63 L 200.77 120.01 L 200.80 120.84 L 200.09 121.28 L 199.36 120.90 L 199.33 120.08 Z" fill="#362353" />
<path d="M 63.43 121.73 C 65.59 121.39 67.73 121.21 69.90 121.00 C 68.78 126.58 66.51 131.28 67.32 137.15 C 66.34 137.08 65.35 137.01 64.36 136.94 C 64.99 138.07 65.62 139.19 66.20 140.35 C 66.57 141.51 66.89 142.67 67.14 143.85 C 67.19 145.50 67.17 147.14 67.16 148.79 C 66.38 149.23 65.59 149.66 64.80 150.10 C 63.07 148.86 61.34 147.62 59.59 146.40 C 59.35 145.67 59.11 144.93 58.88 144.19 C 58.17 140.16 58.29 135.96 58.24 131.86 C 58.78 134.02 59.31 136.18 59.88 138.33 C 63.14 133.78 62.02 127.22 63.43 121.73 Z" fill="#d1ceba" />
<path d="M 97.80 120.32 L 98.00 123.22 C 96.51 122.98 95.03 122.73 93.54 122.49 C 94.98 121.80 96.40 121.08 97.80 120.32 Z" fill="#7d7d6f" />
<path d="M 90.54 125.33 C 91.01 126.47 88.37 128.77 87.32 127.86 C 86.57 126.51 89.43 124.84 90.54 125.33 Z" fill="#595b51" />
<path d="M 197.45 128.84 C 197.87 129.92 198.23 131.02 198.60 132.12 C 203.85 133.52 208.56 135.35 214.02 135.67 C 217.74 135.89 220.99 136.54 224.31 138.24 C 217.60 140.08 210.80 139.62 204.04 140.69 C 203.56 141.55 203.22 142.51 202.86 143.42 C 201.05 143.89 199.25 144.36 197.44 144.83 C 195.19 145.33 193.05 144.99 190.82 144.57 C 189.36 144.25 187.91 143.90 186.46 143.56 C 184.48 142.86 182.52 142.12 180.58 141.32 C 182.29 141.21 184.01 141.14 185.73 141.09 C 185.08 139.53 184.18 137.79 184.06 136.10 C 184.23 134.43 185.49 132.59 187.16 132.14 C 190.64 131.01 194.19 130.66 197.45 128.84 Z" fill="#1d213e" />
<path d="M 86.10 129.11 C 83.53 133.03 80.51 136.58 77.27 139.95 L 77.54 139.42 C 79.55 134.71 81.69 131.81 86.10 129.11 Z" fill="#979789" />
<path d="M 124.34 132.32 C 124.60 134.70 125.06 137.21 124.75 139.59 C 123.53 141.08 122.28 142.28 120.21 142.14 C 119.08 141.44 118.06 140.58 117.03 139.75 C 117.75 139.53 118.47 139.31 119.19 139.10 C 117.44 136.75 116.09 134.19 114.69 131.63 C 118.03 132.55 120.91 133.23 124.34 132.32 Z" fill="#212236" />
<path d="M 131.53 132.98 C 133.18 133.11 134.82 133.35 136.45 133.67 C 140.87 135.24 142.50 139.08 145.26 142.52 C 143.67 145.00 142.35 146.87 143.81 149.87 C 146.36 154.50 152.30 155.63 157.10 156.14 C 156.84 156.83 156.58 157.53 156.32 158.22 C 157.04 158.45 157.76 158.69 158.48 158.92 C 159.85 159.55 161.19 160.23 162.54 160.90 C 161.70 161.37 160.86 161.85 160.02 162.32 C 158.77 161.65 157.37 160.79 155.93 160.73 C 153.51 160.35 151.65 162.57 149.60 163.64 C 146.79 164.12 143.95 164.34 141.13 164.74 C 141.32 165.78 141.50 166.82 141.69 167.86 L 141.81 168.76 C 137.98 168.20 134.14 167.02 130.28 166.79 C 128.34 166.69 126.29 168.09 124.59 168.89 C 125.55 166.24 126.81 163.69 128.35 161.33 C 129.93 158.76 133.33 157.63 135.31 155.27 C 136.66 151.30 136.03 147.35 134.40 143.58 C 131.90 146.85 130.81 150.14 125.87 149.26 C 127.22 148.23 128.57 147.21 129.93 146.19 C 128.93 145.34 127.94 144.48 126.95 143.63 C 129.41 140.03 130.67 137.22 131.53 132.98 Z" fill="#ededdf" />
<path d="M 71.33 136.09 C 73.50 136.93 75.53 138.24 77.54 139.42 L 77.27 139.95 L 77.00 140.44 C 74.64 143.62 73.49 146.64 72.89 150.56 C 74.95 147.73 76.10 144.49 76.84 141.10 C 78.70 142.75 80.27 144.62 81.72 146.64 C 80.93 147.43 80.14 148.22 79.35 149.02 C 81.72 150.15 84.14 151.02 85.85 153.10 C 87.95 155.65 89.60 158.61 91.36 161.40 C 90.12 164.25 88.95 167.07 87.23 169.69 C 81.56 165.79 80.13 159.66 73.11 157.37 C 72.86 156.10 72.58 154.82 72.27 153.56 C 70.78 155.53 71.12 157.52 71.29 159.82 C 68.77 154.72 68.28 149.33 67.14 143.85 C 66.89 142.67 66.57 141.51 66.20 140.35 C 67.42 139.13 69.00 134.53 71.33 136.09 Z" fill="#efefe1" />
<path d="M 187.14 135.76 C 188.56 138.18 189.21 140.80 189.85 143.51 C 188.74 142.73 187.54 141.95 186.59 141.00 C 185.80 139.18 186.63 137.52 187.14 135.76 Z" fill="#a69fb8" />
<path d="M 77.00 140.44 L 76.84 141.10 C 76.10 144.49 74.95 147.73 72.89 150.56 C 73.49 146.64 74.64 143.62 77.00 140.44 Z" fill="#82817c" />
<path d="M 165.43 140.92 C 166.01 143.44 166.85 146.18 166.74 148.79 C 164.60 152.43 160.99 154.38 159.91 158.79 L 158.48 158.92 C 157.76 158.69 157.04 158.45 156.32 158.22 C 156.58 157.53 156.84 156.83 157.10 156.14 C 152.30 155.63 146.36 154.50 143.81 149.87 C 142.35 146.87 143.67 145.00 145.26 142.52 C 147.87 144.50 151.58 146.77 154.96 146.45 C 158.70 145.53 162.13 142.84 165.43 140.92 Z" fill="#d8d5c3" />
<path d="M 192.87 140.42 C 195.04 141.16 197.17 141.99 199.29 142.88 C 197.66 143.03 196.02 143.16 194.38 143.20 C 193.87 142.28 193.36 141.36 192.87 140.42 Z" fill="#bbbfcf" />
<path d="M 181.95 143.88 C 183.52 145.36 184.92 146.55 187.02 147.15 C 187.81 148.85 188.53 150.55 189.44 152.19 C 189.87 152.83 190.31 153.45 190.77 154.07 C 192.90 155.93 195.12 157.66 197.12 159.68 C 197.98 160.73 198.78 161.82 199.62 162.90 C 205.33 170.45 212.42 176.37 220.63 181.04 C 216.04 179.67 211.42 178.48 206.92 176.84 C 195.46 173.46 188.04 165.07 176.20 162.68 C 171.92 162.07 167.78 161.98 163.78 160.18 C 165.71 159.36 167.65 158.55 169.59 157.76 C 169.18 156.86 168.77 155.97 168.36 155.07 C 167.24 151.05 169.83 146.40 172.70 143.69 C 174.90 140.76 179.21 142.95 181.95 143.88 Z" fill="#20223e" />
<path d="M 186.46 143.56 C 187.91 143.90 189.36 144.25 190.82 144.57 C 189.37 146.99 189.41 149.47 189.44 152.19 C 188.53 150.55 187.81 148.85 187.02 147.15 C 184.92 146.55 183.52 145.36 181.95 143.88 C 183.46 143.79 184.96 143.65 186.46 143.56 Z" fill="#857e98" />
<path d="M 58.88 144.19 C 59.11 144.93 59.35 145.67 59.59 146.40 C 61.06 150.34 61.48 154.53 62.78 158.48 C 63.97 161.59 66.83 161.82 69.63 162.51 C 70.43 164.28 71.21 166.05 71.96 167.84 C 73.04 167.97 74.13 168.10 75.22 168.23 C 78.77 173.61 82.61 178.47 88.18 181.89 C 87.18 182.38 86.17 182.86 85.17 183.35 C 83.36 182.33 81.56 181.25 79.68 180.36 C 77.81 182.72 76.94 183.58 73.93 184.22 C 69.83 180.84 67.40 177.28 65.52 172.32 C 66.66 170.03 67.56 167.90 66.95 165.30 C 63.06 160.81 56.89 158.10 52.69 153.93 C 52.89 153.44 53.10 152.94 53.30 152.45 C 54.15 152.79 55.00 153.14 55.85 153.48 C 54.70 151.74 53.54 150.00 52.36 148.27 C 54.52 146.89 56.67 145.48 58.88 144.19 Z" fill="#eeefe4" />
<path d="M 67.14 143.85 C 68.28 149.33 68.77 154.72 71.29 159.82 C 72.44 162.72 73.60 165.55 75.22 168.23 C 74.13 168.10 73.04 167.97 71.96 167.84 C 71.21 166.05 70.43 164.28 69.63 162.51 C 66.83 161.82 63.97 161.59 62.78 158.48 C 61.48 154.53 61.06 150.34 59.59 146.40 C 61.34 147.62 63.07 148.86 64.80 150.10 C 65.59 149.66 66.38 149.23 67.16 148.79 C 67.17 147.14 67.19 145.50 67.14 143.85 Z" fill="#e1dfcc" />
<path d="M 134.40 143.58 C 136.03 147.35 136.66 151.30 135.31 155.27 C 133.33 157.63 129.93 158.76 128.35 161.33 C 126.81 163.69 125.55 166.24 124.59 168.89 C 125.19 173.51 126.67 177.70 131.70 178.84 C 136.50 175.55 140.91 171.72 145.94 168.74 C 144.56 168.77 143.19 168.81 141.81 168.76 L 141.69 167.86 C 144.30 166.41 147.00 165.12 149.60 163.64 C 151.65 162.57 153.51 160.35 155.93 160.73 C 157.37 160.79 158.77 161.65 160.02 162.32 C 162.26 164.39 164.29 166.51 165.67 169.26 C 167.64 173.11 168.80 176.89 171.95 180.04 C 176.44 184.64 181.14 189.04 185.83 193.42 C 187.51 195.09 189.48 196.87 190.55 199.00 C 191.25 200.78 191.39 202.82 191.71 204.70 C 190.81 204.65 189.91 204.60 189.01 204.56 C 189.74 205.15 190.48 205.73 191.22 206.31 C 193.63 208.09 195.88 209.99 198.07 212.03 C 199.21 213.18 200.31 214.36 201.36 215.59 C 196.34 213.38 193.43 208.89 188.71 206.29 C 183.48 203.20 178.16 200.34 173.18 196.82 C 169.03 194.01 164.58 190.73 159.78 189.18 C 157.80 188.36 156.13 190.81 154.59 191.78 C 152.22 193.47 149.86 194.56 146.99 195.10 L 146.07 195.01 C 148.13 192.99 152.31 190.30 151.89 187.03 C 151.92 185.18 150.12 184.60 148.85 183.66 C 147.73 182.05 146.70 180.39 145.63 178.74 L 145.58 180.77 C 144.44 181.33 143.31 181.89 142.13 182.35 C 138.31 181.87 134.26 181.63 130.61 180.39 C 127.38 178.95 125.03 175.28 123.34 172.30 C 122.72 170.29 121.90 168.15 121.80 166.03 C 122.47 162.07 124.24 158.43 122.95 154.26 C 120.33 150.67 115.33 148.57 111.19 147.32 C 107.85 146.26 104.26 146.16 101.33 148.33 C 95.51 152.96 96.69 160.97 91.59 166.86 L 90.88 167.78 C 94.56 169.83 97.14 173.46 100.86 175.27 C 104.05 176.62 106.92 174.43 107.87 171.42 C 109.03 167.69 110.52 164.29 112.31 160.83 C 111.17 159.79 110.01 158.68 108.74 157.79 C 106.65 157.20 104.06 158.05 101.97 158.41 C 102.24 160.46 102.57 162.49 102.99 164.51 C 103.69 163.14 104.35 161.74 105.04 160.36 C 105.87 160.88 106.71 161.39 107.54 161.91 C 107.45 163.67 107.33 165.42 107.34 167.19 L 105.33 167.33 C 103.15 166.63 99.74 166.36 99.17 163.64 C 98.14 160.78 100.11 157.59 102.20 155.76 C 105.56 154.90 109.74 157.80 112.77 159.16 C 112.82 161.32 112.85 163.49 112.78 165.65 C 112.53 169.90 112.49 174.16 112.34 178.42 C 109.93 179.36 107.87 180.50 105.18 179.94 C 100.72 179.06 97.67 176.35 94.33 173.51 C 92.25 171.58 89.89 170.58 87.23 169.69 C 88.95 167.07 90.12 164.25 91.36 161.40 C 93.97 157.27 96.12 152.85 98.82 148.81 C 102.07 144.22 107.79 145.24 112.66 145.70 C 117.16 147.12 120.96 149.29 125.87 149.26 C 130.81 150.14 131.90 146.85 134.40 143.58 Z" fill="#20223e" />
<path d="M 190.82 144.57 C 193.05 144.99 195.19 145.33 197.44 144.83 C 199.10 146.33 200.79 147.80 202.53 149.21 C 203.69 150.14 204.84 151.09 205.98 152.05 C 205.30 152.17 204.63 152.29 203.96 152.42 C 209.70 153.76 215.47 154.34 221.35 154.49 C 223.00 150.77 225.41 147.92 228.41 145.20 C 228.53 146.57 228.65 147.94 228.77 149.31 C 231.36 151.19 235.72 152.72 234.87 156.72 C 232.46 161.52 227.99 161.74 223.30 162.68 C 222.57 160.56 221.83 158.45 221.09 156.33 C 216.43 159.05 211.75 161.54 206.53 162.99 C 204.23 162.98 201.92 162.94 199.62 162.90 C 198.78 161.82 197.98 160.73 197.12 159.68 C 197.26 158.52 198.31 156.60 197.43 155.58 C 195.69 153.46 193.11 151.92 190.83 150.42 C 190.80 151.63 190.78 152.85 190.77 154.07 C 190.31 153.45 189.87 152.83 189.44 152.19 C 189.41 149.47 189.37 146.99 190.82 144.57 Z" fill="#cfcbb6" />
<path d="M 223.88 145.83 C 222.34 147.80 220.70 149.52 218.24 150.30 C 214.32 151.49 210.02 151.25 205.98 152.05 C 204.84 151.09 203.69 150.14 202.53 149.21 C 206.03 149.38 208.99 148.57 212.21 147.30 C 216.01 145.81 219.84 145.60 223.88 145.83 Z" fill="#ab9a88" />
<path d="M 111.19 147.32 C 115.33 148.57 120.33 150.67 122.95 154.26 C 124.24 158.43 122.47 162.07 121.80 166.03 C 121.90 168.15 122.72 170.29 123.34 172.30 C 121.31 175.91 119.14 178.65 115.99 181.34 C 115.44 180.88 114.89 180.42 114.33 179.97 C 115.27 177.72 116.64 175.07 116.56 172.59 C 116.34 169.88 114.46 167.64 112.78 165.65 C 112.85 163.49 112.82 161.32 112.77 159.16 C 109.74 157.80 105.56 154.90 102.20 155.76 C 100.11 157.59 98.14 160.78 99.17 163.64 C 99.74 166.36 103.15 166.63 105.33 167.33 C 100.67 167.94 96.22 167.05 91.59 166.86 C 96.69 160.97 95.51 152.96 101.33 148.33 C 104.26 146.16 107.85 146.26 111.19 147.32 Z" fill="#e1e3c9" />
<path d="M 48.26 149.90 C 49.81 151.16 51.28 152.51 52.69 153.93 C 56.89 158.10 63.06 160.81 66.95 165.30 C 67.56 167.90 66.66 170.03 65.52 172.32 C 64.15 174.72 64.70 177.00 64.93 179.60 C 63.48 176.68 61.64 173.61 60.69 170.44 C 60.14 168.16 60.15 165.72 59.59 163.44 C 57.24 159.50 52.55 156.64 48.92 153.96 C 48.69 152.61 48.46 151.26 48.26 149.90 Z" fill="#1e2038" />
<path d="M 190.83 150.42 C 193.11 151.92 195.69 153.46 197.43 155.58 C 198.31 156.60 197.26 158.52 197.12 159.68 C 195.12 157.66 192.90 155.93 190.77 154.07 C 190.78 152.85 190.80 151.63 190.83 150.42 Z" fill="#e7e7d6" />
<path d="M 72.27 153.56 C 72.58 154.82 72.86 156.10 73.11 157.37 C 74.06 163.88 77.51 169.62 82.32 174.01 C 85.96 177.41 89.91 180.02 92.48 184.43 C 91.04 183.60 89.60 182.77 88.18 181.89 C 82.61 178.47 78.77 173.61 75.22 168.23 C 73.60 165.55 72.44 162.72 71.29 159.82 C 71.12 157.52 70.78 155.53 72.27 153.56 Z" fill="#534f4f" />
<path d="M 168.36 155.07 C 168.77 155.97 169.18 156.86 169.59 157.76 C 167.65 158.55 165.71 159.36 163.78 160.18 C 167.78 161.98 171.92 162.07 176.20 162.68 C 188.04 165.07 195.46 173.46 206.92 176.84 C 208.03 178.50 209.15 180.15 210.26 181.81 C 209.62 182.03 208.98 182.28 208.34 182.54 C 200.76 178.76 193.02 175.38 185.67 171.13 C 183.56 169.93 181.43 168.77 179.24 167.72 C 178.50 167.36 177.76 167.01 177.00 166.68 C 175.23 168.71 173.57 170.86 171.88 172.97 C 176.76 179.79 182.86 185.31 188.99 190.96 C 187.93 191.78 186.88 192.60 185.83 193.42 C 181.14 189.04 176.44 184.64 171.95 180.04 C 168.80 176.89 167.64 173.11 165.67 169.26 C 164.29 166.51 162.26 164.39 160.02 162.32 C 160.86 161.85 161.70 161.37 162.54 160.90 C 161.19 160.23 159.85 159.55 158.48 158.92 L 159.91 158.79 C 163.49 158.66 165.67 157.27 168.36 155.07 Z" fill="#ac91c6" />
<path d="M 171.37 153.89 C 172.33 155.75 173.25 157.62 174.18 159.50 C 173.14 159.18 172.10 158.85 171.07 158.52 C 171.12 156.97 171.25 155.43 171.37 153.89 Z" fill="#a89ebf" />
<path d="M 87.23 169.69 C 89.89 170.58 92.25 171.58 94.33 173.51 C 90.32 173.47 86.31 173.53 82.32 174.01 C 77.51 169.62 74.06 163.88 73.11 157.37 C 80.13 159.66 81.56 165.79 87.23 169.69 Z" fill="#cfceba" />
<path d="M 108.74 157.79 C 110.01 158.68 111.17 159.79 112.31 160.83 C 110.52 164.29 109.03 167.69 107.87 171.42 C 107.71 170.01 107.50 168.60 107.34 167.19 C 107.33 165.42 107.45 163.67 107.54 161.91 C 106.71 161.39 105.87 160.88 105.04 160.36 C 104.35 161.74 103.69 163.14 102.99 164.51 C 102.57 162.49 102.24 160.46 101.97 158.41 C 104.06 158.05 106.65 157.20 108.74 157.79 Z" fill="#eff1da" />
<path d="M 48.02 162.85 C 51.54 166.63 54.84 170.23 57.05 174.98 C 58.22 177.57 58.60 180.41 59.22 183.16 C 57.55 181.79 55.45 180.54 54.52 178.54 C 52.13 173.42 50.03 168.13 48.02 162.85 Z" fill="#ab9acc" />
<path d="M 156.54 162.86 C 157.11 163.58 157.69 164.29 158.26 165.01 C 156.10 164.95 153.95 164.88 151.79 164.82 C 153.38 164.16 154.96 163.51 156.54 162.86 Z" fill="#7b7a8a" />
<path d="M 149.60 163.64 C 147.00 165.12 144.30 166.41 141.69 167.86 C 141.50 166.82 141.32 165.78 141.13 164.74 C 143.95 164.34 146.79 164.12 149.60 163.64 Z" fill="#7a7c82" />
<path d="M 105.33 167.33 L 107.34 167.19 C 107.50 168.60 107.71 170.01 107.87 171.42 C 106.92 174.43 104.05 176.62 100.86 175.27 C 97.14 173.46 94.56 169.83 90.88 167.78 L 91.59 166.86 C 96.22 167.05 100.67 167.94 105.33 167.33 Z" fill="#b7a796" />
<path d="M 112.78 165.65 C 114.46 167.64 116.34 169.88 116.56 172.59 C 116.64 175.07 115.27 177.72 114.33 179.97 C 113.67 179.45 113.01 178.93 112.34 178.42 C 112.49 174.16 112.53 169.90 112.78 165.65 Z" fill="#cac2af" />
<path d="M 130.28 166.79 C 134.14 167.02 137.98 168.20 141.81 168.76 C 143.19 168.81 144.56 168.77 145.94 168.74 C 140.91 171.72 136.50 175.55 131.70 178.84 C 126.67 177.70 125.19 173.51 124.59 168.89 C 126.29 168.09 128.34 166.69 130.28 166.79 Z" fill="#a98dc9" />
<path d="M 27.37 167.02 C 28.53 165.83 30.35 167.04 29.49 168.54 C 28.34 169.74 26.51 168.51 27.37 167.02 Z" fill="#55546d" />
<path d="M 177.00 166.68 C 177.76 167.01 178.50 167.36 179.24 167.72 C 180.66 170.90 181.31 174.30 182.56 177.53 C 183.60 180.17 185.94 182.15 187.81 184.24 C 189.46 186.76 191.16 191.78 194.95 191.03 C 200.04 190.43 204.44 185.52 208.34 182.54 C 208.98 182.28 209.62 182.03 210.26 181.81 C 211.26 181.67 212.27 181.56 213.28 181.46 C 213.43 182.56 213.58 183.67 213.73 184.77 C 216.21 185.09 218.84 185.23 221.23 185.99 C 223.22 186.59 223.79 188.76 224.67 190.39 C 225.54 192.30 227.05 193.38 228.55 194.79 C 228.85 199.95 229.84 204.96 230.91 210.00 C 230.96 209.20 231.01 208.39 231.06 207.59 C 231.61 211.27 231.77 214.64 234.61 217.39 L 234.69 218.02 C 232.77 219.69 231.08 221.53 229.79 223.74 C 224.96 220.91 220.03 218.60 215.87 214.75 C 218.06 211.80 220.72 209.56 223.57 207.28 C 224.57 201.92 220.51 196.81 215.38 195.68 C 211.85 196.52 208.80 199.85 205.75 201.76 C 201.32 204.84 196.35 205.11 191.22 206.31 C 190.48 205.73 189.74 205.15 189.01 204.56 C 189.91 204.60 190.81 204.65 191.71 204.70 C 191.39 202.82 191.25 200.78 190.55 199.00 C 189.48 196.87 187.51 195.09 185.83 193.42 C 186.88 192.60 187.93 191.78 188.99 190.96 C 182.86 185.31 176.76 179.79 171.88 172.97 C 173.57 170.86 175.23 168.71 177.00 166.68 Z" fill="#aa998c" />
<path d="M 179.24 167.72 C 181.43 168.77 183.56 169.93 185.67 171.13 C 186.32 175.51 187.17 179.85 187.81 184.24 C 185.94 182.15 183.60 180.17 182.56 177.53 C 181.31 174.30 180.66 170.90 179.24 167.72 Z" fill="#b4a49b" />
<path d="M 185.67 171.13 C 193.02 175.38 200.76 178.76 208.34 182.54 C 204.44 185.52 200.04 190.43 194.95 191.03 C 191.16 191.78 189.46 186.76 187.81 184.24 C 187.17 179.85 186.32 175.51 185.67 171.13 Z" fill="#f3f2f1" />
<path d="M 65.52 172.32 C 67.40 177.28 69.83 180.84 73.93 184.22 C 78.36 187.24 82.60 189.51 85.11 194.52 C 83.67 196.01 82.22 197.50 80.78 199.00 C 79.88 196.73 79.07 194.46 78.04 192.25 C 76.89 193.49 74.40 194.87 74.84 196.84 C 74.87 197.60 74.92 198.37 75.00 199.13 C 74.31 199.38 73.62 199.63 72.93 199.88 C 70.10 195.56 67.03 191.42 63.98 187.26 C 64.65 184.69 65.36 182.30 64.93 179.60 C 64.70 177.00 64.15 174.72 65.52 172.32 Z" fill="#afa091" />
<path d="M 123.34 172.30 C 125.03 175.28 127.38 178.95 130.61 180.39 C 134.26 181.63 138.31 181.87 142.13 182.35 C 141.93 183.12 141.72 183.89 141.49 184.65 L 141.04 184.96 C 135.81 184.34 130.77 183.93 126.00 181.47 C 124.83 183.38 123.87 185.37 123.10 187.48 C 120.69 185.49 118.37 183.38 115.99 181.34 C 119.14 178.65 121.31 175.91 123.34 172.30 Z" fill="#ab96c2" />
<path d="M 147.09 172.45 C 148.67 172.25 150.37 172.60 151.94 172.79 C 149.27 174.33 146.74 175.40 143.62 175.44 C 144.72 174.42 145.81 173.25 147.09 172.45 Z" fill="#85789f" />
<path d="M 25.86 172.11 C 28.72 174.46 31.36 176.75 34.96 177.89 C 41.88 180.12 46.67 184.65 52.87 188.48 C 50.81 188.02 48.65 187.65 46.69 186.85 C 44.92 186.22 43.74 184.33 42.45 183.01 C 41.27 184.00 40.09 184.97 38.96 186.02 C 35.51 184.85 32.62 184.40 28.97 184.49 C 28.93 185.22 28.88 185.95 28.85 186.68 C 26.84 182.35 22.21 176.72 25.86 172.11 Z" fill="#d8d4bf" />
<path d="M 94.33 173.51 C 97.67 176.35 100.72 179.06 105.18 179.94 C 107.87 180.50 109.93 179.36 112.34 178.42 C 113.01 178.93 113.67 179.45 114.33 179.97 C 114.89 180.42 115.44 180.88 115.99 181.34 C 118.37 183.38 120.69 185.49 123.10 187.48 C 122.61 190.83 122.11 194.12 120.87 197.29 C 114.83 200.83 111.04 205.63 108.70 212.21 C 106.47 212.45 104.11 212.65 101.94 213.23 C 101.87 209.93 101.67 206.65 101.51 203.36 C 101.50 202.58 101.50 201.81 101.54 201.03 C 101.68 200.38 101.82 199.73 101.96 199.08 C 102.37 197.54 102.87 196.05 103.40 194.55 C 102.64 194.45 101.88 194.33 101.13 194.20 C 100.56 192.42 99.94 190.67 99.33 188.90 C 98.88 187.22 98.01 185.77 96.06 185.81 C 95.27 185.78 94.47 185.76 93.68 185.74 C 93.28 185.30 92.88 184.87 92.48 184.43 C 89.91 180.02 85.96 177.41 82.32 174.01 C 86.31 173.53 90.32 173.47 94.33 173.51 Z" fill="#ac998b" />
<path d="M 153.12 174.26 C 153.25 175.21 153.37 176.17 153.48 177.13 C 152.03 178.12 150.54 179.02 149.05 179.93 C 148.35 178.66 147.66 177.39 146.97 176.12 C 149.01 175.45 151.04 174.79 153.12 174.26 Z" fill="#b29fd1" />
<path d="M 145.63 178.74 C 146.70 180.39 147.73 182.05 148.85 183.66 C 148.40 184.91 147.98 186.25 147.29 187.39 C 145.80 188.15 144.14 188.63 142.54 189.11 C 144.76 186.32 145.83 184.43 145.58 180.77 L 145.63 178.74 Z" fill="#9285ad" />
<path d="M 79.68 180.36 C 81.56 181.25 83.36 182.33 85.17 183.35 C 86.17 182.86 87.18 182.38 88.18 181.89 C 89.60 182.77 91.04 183.60 92.48 184.43 C 92.88 184.87 93.28 185.30 93.68 185.74 C 96.27 188.47 98.62 191.40 101.13 194.20 C 101.88 194.33 102.64 194.45 103.40 194.55 C 102.87 196.05 102.37 197.54 101.96 199.08 C 100.63 198.75 98.94 198.29 98.69 200.18 C 98.81 201.98 100.37 201.54 101.54 201.03 C 101.50 201.81 101.50 202.58 101.51 203.36 C 98.68 204.17 95.88 204.56 93.65 206.63 C 90.99 208.87 88.73 212.24 85.32 213.25 C 81.51 214.46 77.56 215.22 73.73 216.40 C 77.90 216.45 82.33 215.86 86.44 216.63 C 88.35 217.21 88.18 220.02 88.47 221.65 C 87.02 222.07 85.57 222.48 84.14 222.97 C 81.89 224.00 79.46 226.25 78.39 228.48 C 77.53 231.82 78.90 233.83 81.19 236.07 C 81.25 234.59 81.30 233.11 81.34 231.63 C 84.39 231.63 87.41 231.52 90.43 231.06 C 90.58 228.06 90.04 225.60 89.03 222.80 C 91.08 222.72 93.33 222.78 95.29 222.15 C 97.23 220.80 98.67 218.60 100.12 216.75 C 102.62 216.47 105.13 216.21 107.64 215.97 C 107.32 219.12 106.94 222.26 106.66 225.40 C 107.80 223.12 109.27 220.62 109.20 218.00 C 109.40 215.28 108.75 213.00 110.81 210.83 C 114.22 206.15 118.86 204.50 123.69 201.69 C 129.45 198.96 135.61 197.09 141.36 194.28 C 142.93 194.53 144.50 194.79 146.07 195.01 L 146.99 195.10 C 151.19 201.48 154.61 208.62 159.56 214.44 C 164.29 219.27 169.64 224.04 175.81 226.93 C 175.01 228.21 174.21 229.48 173.40 230.75 C 168.43 228.46 163.67 225.86 159.18 222.73 C 155.64 220.26 155.17 215.47 151.62 212.64 C 148.55 210.34 144.79 208.83 141.09 207.88 C 136.73 206.79 132.16 208.19 128.36 210.35 C 122.18 214.02 118.43 219.64 114.76 225.61 C 112.58 229.28 109.71 232.31 106.97 235.54 C 105.23 232.32 103.96 228.93 102.44 225.62 C 101.14 222.56 95.93 222.94 94.33 225.56 C 92.04 228.18 94.55 232.01 95.82 234.54 C 99.35 233.93 101.80 232.01 104.86 234.86 C 104.48 236.52 104.09 238.17 103.69 239.83 C 103.27 238.58 102.86 237.32 102.44 236.07 C 102.10 237.29 101.76 238.50 101.43 239.71 C 96.28 239.56 91.16 239.79 86.02 240.10 C 77.85 240.52 69.70 239.08 62.76 234.57 C 65.89 234.60 69.01 234.70 72.13 234.86 C 70.39 234.31 68.65 233.76 66.94 233.13 C 70.44 232.89 73.61 232.87 75.49 229.41 C 77.02 224.73 73.91 219.07 68.66 218.88 C 66.84 216.28 66.58 213.44 66.25 210.39 L 67.24 210.35 C 70.94 209.60 73.42 207.32 76.17 204.90 C 76.68 204.82 77.20 204.75 77.72 204.67 C 79.66 206.59 81.66 208.44 83.87 210.06 C 83.16 206.28 82.18 202.58 80.78 199.00 C 82.22 197.50 83.67 196.01 85.11 194.52 C 82.60 189.51 78.36 187.24 73.93 184.22 C 76.94 183.58 77.81 182.72 79.68 180.36 Z" fill="#f3f2f1" />
<path d="M 126.00 181.47 C 130.77 183.93 135.81 184.34 141.04 184.96 C 138.00 186.59 134.93 188.12 132.05 190.04 C 128.43 192.70 124.73 195.00 120.87 197.29 C 122.11 194.12 122.61 190.83 123.10 187.48 C 123.87 185.37 124.83 183.38 126.00 181.47 Z" fill="#e0dfc8" />
<path d="M 145.58 180.77 C 145.83 184.43 144.76 186.32 142.54 189.11 C 144.14 188.63 145.80 188.15 147.29 187.39 C 147.98 186.25 148.40 184.91 148.85 183.66 C 150.12 184.60 151.92 185.18 151.89 187.03 C 152.31 190.30 148.13 192.99 146.07 195.01 C 144.50 194.79 142.93 194.53 141.36 194.28 C 142.07 192.75 142.79 191.22 143.49 189.68 C 139.38 188.53 135.97 191.40 132.05 190.04 C 134.93 188.12 138.00 186.59 141.04 184.96 L 141.49 184.65 C 141.72 183.89 141.93 183.12 142.13 182.35 C 143.31 181.89 144.44 181.33 145.58 180.77 Z" fill="#484063" />
<path d="M 28.97 184.49 C 32.62 184.40 35.51 184.85 38.96 186.02 C 38.05 187.02 37.19 188.06 36.33 189.11 C 32.77 190.10 28.64 192.87 25.44 189.71 C 27.45 189.22 29.47 188.82 31.51 188.54 C 30.62 187.93 29.73 187.32 28.85 186.68 C 28.88 185.95 28.93 185.22 28.97 184.49 Z" fill="#201e39" />
<path d="M 96.06 185.81 C 96.40 187.55 97.55 188.72 99.33 188.90 C 99.94 190.67 100.56 192.42 101.13 194.20 C 98.62 191.40 96.27 188.47 93.68 185.74 C 94.47 185.76 95.27 185.78 96.06 185.81 Z" fill="#59565a" />
<path d="M 164.76 184.46 C 167.83 185.74 169.48 187.57 171.04 190.43 C 168.33 188.82 166.52 187.09 164.76 184.46 Z" fill="#9c99ab" />
<path d="M 173.83 185.48 C 174.83 186.10 175.73 186.92 176.62 187.68 C 173.81 187.81 171.84 187.64 169.41 186.14 C 170.86 185.87 172.36 185.47 173.83 185.48 Z" fill="#837d8c" />
<path d="M 96.06 185.81 C 98.01 185.77 98.88 187.22 99.33 188.90 C 97.55 188.72 96.40 187.55 96.06 185.81 Z" fill="#d7d0cb" />
<path d="M 215.66 186.10 C 216.77 184.70 219.41 185.71 218.50 187.56 C 217.40 188.96 214.75 187.94 215.66 186.10 Z" fill="#7f746a" />
<path d="M 63.98 187.26 C 67.03 191.42 70.10 195.56 72.93 199.88 C 73.62 199.63 74.31 199.38 75.00 199.13 C 75.21 201.08 75.36 203.02 75.47 204.97 C 72.54 205.08 69.77 204.74 66.95 203.93 C 67.26 203.27 67.57 202.61 67.88 201.95 C 68.98 202.33 70.09 202.68 71.21 203.00 C 70.29 197.76 68.54 193.27 63.01 191.59 C 63.30 190.14 63.60 188.69 63.98 187.26 Z" fill="#cbcebb" />
<path d="M 143.49 189.68 C 142.79 191.22 142.07 192.75 141.36 194.28 C 135.61 197.09 129.45 198.96 123.69 201.69 C 118.86 204.50 114.22 206.15 110.81 210.83 C 108.75 213.00 109.40 215.28 109.20 218.00 C 109.27 220.62 107.80 223.12 106.66 225.40 C 106.94 222.26 107.32 219.12 107.64 215.97 C 107.94 214.70 108.30 213.45 108.70 212.21 C 111.04 205.63 114.83 200.83 120.87 197.29 C 124.73 195.00 128.43 192.70 132.05 190.04 C 135.97 191.40 139.38 188.53 143.49 189.68 Z" fill="#201f3d" />
<path d="M 159.78 189.18 C 164.58 190.73 169.03 194.01 173.18 196.82 C 178.16 200.34 183.48 203.20 188.71 206.29 C 193.43 208.89 196.34 213.38 201.36 215.59 C 197.30 221.30 191.35 223.53 184.81 225.12 C 174.44 214.32 164.26 203.21 154.59 191.78 C 156.13 190.81 157.80 188.36 159.78 189.18 Z" fill="#f3f3f1" />
<path d="M 174.15 189.94 C 177.41 190.49 180.59 191.84 183.70 192.94 C 181.22 193.53 178.74 194.11 176.25 194.61 C 175.67 192.88 174.70 191.81 173.15 190.89 C 173.47 190.55 173.80 190.24 174.15 189.94 Z" fill="#888389" />
<path d="M 173.15 190.89 C 174.70 191.81 175.67 192.88 176.25 194.61 C 174.58 195.22 172.24 192.35 173.15 190.89 Z" fill="#e6e4e6" />
<path d="M 63.01 191.59 C 68.54 193.27 70.29 197.76 71.21 203.00 C 70.09 202.68 68.98 202.33 67.88 201.95 C 65.50 200.56 63.50 198.87 61.90 196.61 C 62.31 194.95 62.67 193.27 63.01 191.59 Z" fill="#20233c" />
<path d="M 154.59 191.78 C 164.26 203.21 174.44 214.32 184.81 225.12 C 186.38 226.71 187.88 228.34 189.35 230.02 C 184.56 228.76 180.77 226.72 175.81 226.93 C 169.64 224.04 164.29 219.27 159.56 214.44 C 154.61 208.62 151.19 201.48 146.99 195.10 C 149.86 194.56 152.22 193.47 154.59 191.78 Z" fill="#aa8ec7" />
<path d="M 78.04 192.25 C 79.07 194.46 79.88 196.73 80.78 199.00 C 82.18 202.58 83.16 206.28 83.87 210.06 C 81.66 208.44 79.66 206.59 77.72 204.67 C 77.20 204.75 76.68 204.82 76.17 204.90 L 75.47 204.97 C 75.36 203.02 75.21 201.08 75.00 199.13 C 74.92 198.37 74.87 197.60 74.84 196.84 C 74.40 194.87 76.89 193.49 78.04 192.25 Z" fill="#201f35" />
<path d="M 60.66 194.84 L 61.90 196.61 C 63.50 198.87 65.50 200.56 67.88 201.95 C 67.57 202.61 67.26 203.27 66.95 203.93 C 66.06 203.67 65.18 203.40 64.30 203.14 C 65.37 205.51 66.43 207.88 67.24 210.35 L 66.25 210.39 C 65.87 209.56 65.49 208.73 65.10 207.92 C 63.67 204.84 61.84 202.83 58.37 202.15 C 58.70 199.54 59.57 197.21 60.66 194.84 Z" fill="#9392a7" />
<path d="M 131.21 195.22 C 133.03 193.99 134.10 196.75 132.02 197.21 C 130.88 196.93 130.62 196.26 131.21 195.22 Z" fill="#7f7e96" />
<path d="M 223.57 207.28 C 220.72 209.56 218.06 211.80 215.87 214.75 C 220.03 218.60 224.96 220.91 229.79 223.74 C 229.33 225.13 228.94 226.55 228.57 227.97 L 227.99 227.99 C 227.25 226.65 225.83 224.00 223.99 225.33 C 222.87 226.11 221.79 226.96 220.71 227.80 C 217.85 225.49 215.26 222.92 212.62 220.37 C 210.14 217.75 206.33 217.79 203.00 217.32 C 203.25 215.03 203.48 212.73 203.72 210.44 C 202.76 210.14 201.80 209.84 200.84 209.53 C 200.01 208.48 199.17 207.45 198.30 206.43 C 197.76 208.12 197.55 209.58 197.73 211.35 L 198.07 212.03 C 195.88 209.99 193.63 208.09 191.22 206.31 C 196.35 205.11 201.32 204.84 205.75 201.76 C 208.80 199.85 211.85 196.52 215.38 195.68 C 220.51 196.81 224.57 201.92 223.57 207.28 Z" fill="#f4f3f0" />
<path d="M 185.56 195.72 C 187.75 196.91 189.10 198.32 190.47 200.38 C 187.78 199.19 186.09 199.00 185.56 195.72 Z" fill="#a09399" />
<path d="M 101.96 199.08 C 101.82 199.73 101.68 200.38 101.54 201.03 C 100.37 201.54 98.81 201.98 98.69 200.18 C 98.94 198.29 100.63 198.75 101.96 199.08 Z" fill="#605c5d" />
<path d="M 44.83 199.73 C 45.84 200.41 46.83 201.11 47.80 201.83 C 43.38 204.56 39.78 204.49 34.87 203.34 C 38.18 202.13 41.46 200.75 44.83 199.73 Z" fill="#737581" />
<path d="M 28.69 201.00 C 30.77 201.73 32.79 202.61 34.87 203.34 C 39.78 204.49 43.38 204.56 47.80 201.83 C 48.89 202.63 49.96 203.44 51.04 204.25 C 49.33 206.43 47.77 209.02 45.60 210.76 C 38.00 211.99 31.76 207.82 28.69 201.00 Z" fill="#1c1d3a" />
<path d="M 230.11 201.42 C 231.56 200.45 232.69 202.92 230.88 203.22 C 229.92 202.91 229.66 202.31 230.11 201.42 Z" fill="#5f4e56" />
<path d="M 64.30 203.14 C 65.18 203.40 66.06 203.67 66.95 203.93 C 69.77 204.74 72.54 205.08 75.47 204.97 L 76.17 204.90 C 73.42 207.32 70.94 209.60 67.24 210.35 C 66.43 207.88 65.37 205.51 64.30 203.14 Z" fill="#e3dbd2" />
<path d="M 58.18 203.72 C 61.35 204.63 62.73 206.48 64.43 209.13 C 63.86 210.13 63.29 211.13 62.71 212.12 C 60.47 211.82 58.23 211.50 56.01 211.12 C 56.84 208.68 57.48 206.19 58.18 203.72 Z" fill="#0f0d26" />
<path d="M 101.51 203.36 C 101.67 206.65 101.87 209.93 101.94 213.23 C 100.70 213.78 99.48 214.40 98.27 215.01 C 98.89 215.59 99.50 216.17 100.12 216.75 C 98.67 218.60 97.23 220.80 95.29 222.15 C 93.33 222.78 91.08 222.72 89.03 222.80 C 87.40 222.82 85.77 222.83 84.14 222.97 C 85.57 222.48 87.02 222.07 88.47 221.65 C 88.18 220.02 88.35 217.21 86.44 216.63 C 82.33 215.86 77.90 216.45 73.73 216.40 C 77.56 215.22 81.51 214.46 85.32 213.25 C 88.73 212.24 90.99 208.87 93.65 206.63 C 95.88 204.56 98.68 204.17 101.51 203.36 Z" fill="#dfe1c8" />
<path d="M 231.35 204.23 C 233.60 206.58 233.57 210.22 234.27 213.34 C 234.40 214.69 234.52 216.03 234.61 217.39 C 231.77 214.64 231.61 211.27 231.06 207.59 C 231.13 206.47 231.22 205.35 231.35 204.23 Z" fill="#4b444b" />
<path d="M 59.28 207.16 L 59.82 207.17 L 59.82 207.71 L 59.27 207.71 L 59.28 207.16 Z" fill="#bab7d6" />
<path d="M 198.30 206.43 C 199.17 207.45 200.01 208.48 200.84 209.53 C 199.81 210.15 198.77 210.75 197.73 211.35 C 197.55 209.58 197.76 208.12 198.30 206.43 Z" fill="#595668" />
<path d="M 65.10 207.92 C 65.49 208.73 65.87 209.56 66.25 210.39 C 66.58 213.44 66.84 216.28 68.66 218.88 C 69.36 220.02 70.16 221.09 70.96 222.16 C 68.36 221.58 65.23 221.41 62.91 220.05 C 60.87 218.64 59.20 216.57 57.54 214.74 C 58.12 214.27 58.70 213.80 59.28 213.33 C 58.19 212.60 57.10 211.86 56.01 211.12 C 58.23 211.50 60.47 211.82 62.71 212.12 C 63.29 211.13 63.86 210.13 64.43 209.13 L 65.10 207.92 Z" fill="#dfe2ce" />
<path d="M 108.70 212.21 C 108.30 213.45 107.94 214.70 107.64 215.97 C 105.13 216.21 102.62 216.47 100.12 216.75 C 99.50 216.17 98.89 215.59 98.27 215.01 C 99.48 214.40 100.70 213.78 101.94 213.23 C 104.11 212.65 106.47 212.45 108.70 212.21 Z" fill="#c9c4b0" />
<path d="M 234.69 218.02 C 234.84 219.15 234.98 220.29 235.11 221.43 C 234.26 222.01 233.41 222.59 232.56 223.18 C 233.18 224.44 233.79 225.72 234.37 227.01 C 232.44 227.39 230.53 227.77 228.57 227.97 C 228.94 226.55 229.33 225.13 229.79 223.74 C 231.08 221.53 232.77 219.69 234.69 218.02 Z" fill="#5e5c6f" />
<path d="M 68.66 218.88 C 73.91 219.07 77.02 224.73 75.49 229.41 C 73.61 232.87 70.44 232.89 66.94 233.13 L 66.16 232.81 C 65.00 231.79 63.90 230.71 62.80 229.63 C 65.52 228.79 68.44 228.62 70.32 226.26 C 71.22 224.95 72.48 223.54 70.96 222.16 C 70.16 221.09 69.36 220.02 68.66 218.88 Z" fill="#1c1c38" />
<path d="M 84.14 222.97 C 85.77 222.83 87.40 222.82 89.03 222.80 C 90.04 225.60 90.58 228.06 90.43 231.06 C 87.41 231.52 84.39 231.63 81.34 231.63 C 81.30 233.11 81.25 234.59 81.19 236.07 C 78.90 233.83 77.53 231.82 78.39 228.48 C 79.46 226.25 81.89 224.00 84.14 222.97 Z" fill="#1d1f39" />
<path d="M 102.44 225.62 C 103.96 228.93 105.23 232.32 106.97 235.54 L 106.46 236.23 C 105.93 235.77 105.40 235.31 104.86 234.86 C 101.80 232.01 99.35 233.93 95.82 234.54 C 94.55 232.01 92.04 228.18 94.33 225.56 C 95.93 222.94 101.14 222.56 102.44 225.62 Z" fill="#23213e" />
<path d="M 223.99 225.33 C 225.83 224.00 227.25 226.65 227.99 227.99 C 225.97 228.18 224.37 227.47 223.99 225.33 Z" fill="#7f7f7f" />
</svg>