<?xml version="1.0" encoding="UTF-8" standalone="no"?>
<!DOCTYPE svg PUBLIC "-//W3C//DTD SVG 1.1//EN" "http://www.w3.org/Graphics/SVG/1.1/DTD/svg11.dtd">
<svg xmlns="http://www.w3.org/2000/svg" version="1.1" viewBox="0 0 256 256" width="256.0pt" height="256.0pt">
<path d="M 0.00 0.00 L 256.00 0.00 L 256.00 256.00 L 0.00 256.00 L 0.00 0.00 Z" fill="#ffffff" />
<path d="M 116.01 12.02 C 123.75 11.45 130.07 14.04 138.08 14.95 C 145.92 16.16 153.44 16.47 161.31 15.32 C 168.23 14.27 173.79 17.13 179.61 20.41 C 185.16 23.78 189.75 29.22 193.73 34.28 C 198.42 40.28 203.81 45.50 209.61 50.41 C 213.62 53.95 218.03 57.63 220.52 62.43 C 222.97 67.06 224.89 71.86 227.72 76.31 C 231.47 82.24 236.16 87.03 241.12 91.91 C 244.17 94.85 245.54 99.18 246.88 103.12 C 248.77 108.75 247.86 115.03 248.04 121.00 C 247.97 126.07 248.77 131.44 246.03 135.99 C 242.46 142.17 237.84 148.28 234.80 154.82 C 230.65 164.06 230.23 174.46 232.84 184.18 C 234.09 187.95 236.60 191.30 238.11 194.99 C 240.06 199.41 240.24 204.29 240.07 209.04 C 239.87 216.36 235.61 223.46 230.21 228.20 C 225.14 232.85 219.06 235.54 212.60 237.67 C 204.14 240.44 194.94 243.65 186.01 243.95 C 179.63 244.28 173.40 245.12 167.00 245.05 C 157.27 244.89 147.63 245.44 137.93 244.23 C 124.31 243.60 110.60 244.24 96.96 244.00 C 89.71 243.78 83.20 242.04 76.00 240.97 C 69.42 239.92 62.75 239.67 56.19 238.60 C 49.74 237.55 43.72 234.91 37.82 232.22 C 29.09 228.41 22.04 220.62 17.75 212.25 C 13.98 204.69 11.10 196.56 10.93 188.04 C 10.55 175.85 13.14 163.22 16.54 151.56 C 17.96 147.02 19.34 141.92 21.96 137.93 C 24.75 133.79 28.14 130.08 32.30 127.29 C 34.44 125.72 37.37 123.97 38.54 121.51 C 40.61 116.03 37.15 111.14 34.06 106.92 C 28.76 99.99 23.29 90.38 25.23 81.32 C 26.42 73.57 27.31 65.59 28.97 57.96 C 30.74 50.06 35.29 42.49 42.46 38.41 C 54.08 31.55 66.94 26.23 79.58 21.59 C 91.31 16.70 103.27 13.03 116.01 12.02 Z" fill="#f7f7f5" />
<path d="M 127.04 20.88 C 131.46 21.47 135.52 23.10 139.89 23.67 C 148.10 24.64 155.68 23.63 163.80 23.06 C 162.62 23.98 161.43 24.89 160.24 25.79 C 161.22 25.88 162.20 25.98 163.18 26.08 C 161.41 27.21 159.73 28.46 157.96 29.60 C 155.85 30.84 153.74 32.08 151.61 33.28 C 150.96 33.64 150.32 34.00 149.67 34.35 C 146.17 32.54 142.51 30.80 138.92 29.18 C 128.97 26.27 118.90 24.77 108.53 25.93 C 104.73 26.38 101.03 27.39 97.48 28.80 C 95.90 29.42 94.46 30.23 92.99 31.07 C 89.76 32.98 86.63 34.99 83.19 36.52 L 82.46 36.29 C 78.84 34.75 74.95 35.67 71.80 37.84 C 70.29 39.07 69.04 40.73 67.73 42.19 C 65.96 43.23 64.17 44.21 62.33 45.13 C 59.84 45.83 56.88 46.19 54.83 47.82 C 52.22 49.82 50.11 52.76 48.06 55.32 C 50.67 55.47 52.91 55.77 55.18 57.16 L 53.81 58.74 C 52.96 59.57 52.12 60.41 51.28 61.26 C 49.08 63.07 46.82 64.69 44.54 66.41 C 44.37 68.57 44.69 71.41 43.27 73.18 C 41.52 75.65 39.57 77.98 37.88 80.51 C 39.30 80.26 40.72 79.99 42.14 79.74 C 41.83 80.55 41.53 81.36 41.23 82.17 C 39.52 82.76 35.89 82.79 35.40 84.95 C 37.48 88.40 38.71 92.01 40.25 95.70 C 42.58 99.64 47.99 101.75 52.20 102.95 C 56.64 103.69 61.23 103.29 65.72 103.85 C 65.49 106.82 65.67 108.54 67.33 111.09 C 66.01 112.15 64.68 113.19 63.34 114.23 C 62.58 113.17 61.82 112.12 61.03 111.08 C 60.33 112.23 59.66 113.40 59.06 114.60 C 57.23 114.43 55.41 114.29 53.58 114.17 C 54.28 116.24 54.63 118.15 56.53 119.49 C 62.11 124.14 71.07 124.13 77.91 123.23 C 84.34 122.29 90.84 122.31 97.24 121.23 C 101.15 120.59 105.02 119.76 108.92 119.08 C 123.13 116.97 136.50 115.25 150.20 120.81 C 155.71 123.26 159.66 127.49 162.27 132.88 L 162.48 133.57 C 162.06 138.23 161.22 142.72 159.40 147.04 C 157.27 145.74 154.98 144.38 152.57 143.68 C 149.03 142.88 145.63 143.80 142.12 143.72 C 139.37 143.51 136.97 142.45 134.14 142.73 C 130.56 143.03 126.99 143.60 123.41 143.96 C 119.91 141.81 116.44 139.13 112.57 137.72 C 108.38 137.06 103.79 137.73 99.61 138.29 C 97.15 138.61 94.58 137.77 92.17 137.25 C 93.50 138.18 94.85 139.09 96.17 140.03 C 92.31 142.09 88.54 142.72 84.21 142.81 C 81.27 146.92 76.92 147.12 72.45 148.69 C 72.78 149.75 73.12 150.81 73.49 151.85 C 74.71 155.27 76.85 158.11 78.51 161.44 C 83.20 163.55 86.90 166.34 90.37 170.11 L 89.31 171.04 C 90.14 171.15 90.96 171.26 91.79 171.36 C 92.53 171.47 93.26 171.58 93.99 171.70 C 95.30 173.03 96.67 175.03 98.63 175.28 C 101.66 175.84 104.85 175.69 107.92 175.96 C 111.36 176.51 115.15 177.15 118.62 176.63 C 121.47 176.10 124.23 175.18 127.08 174.62 C 129.06 174.34 131.02 173.98 133.01 173.74 C 135.64 173.52 138.28 173.38 140.91 173.20 C 138.24 175.77 134.34 178.48 133.83 182.40 C 133.19 186.31 133.21 190.19 131.97 194.02 C 130.37 199.01 128.65 203.95 127.13 208.97 C 125.84 209.06 124.55 209.17 123.27 209.29 C 113.31 209.72 104.55 208.28 95.06 210.22 C 91.42 210.59 87.86 210.24 84.21 210.18 C 81.96 210.11 79.65 210.07 77.43 209.66 C 75.05 205.15 75.28 199.99 71.99 195.74 C 72.62 200.43 73.92 204.93 75.26 209.45 C 70.21 206.31 65.01 205.46 61.27 200.45 C 60.46 198.48 59.68 196.50 58.87 194.53 C 60.02 195.36 61.17 196.18 62.33 196.99 C 61.06 193.56 59.45 190.29 57.85 187.00 C 58.69 187.23 59.53 187.46 60.37 187.69 C 59.49 185.32 58.54 182.98 57.62 180.63 C 56.70 177.20 55.44 173.91 54.25 170.57 C 53.06 166.86 51.96 162.90 51.89 158.99 C 51.86 155.54 54.03 152.10 54.48 148.98 C 54.17 146.04 53.15 141.61 52.11 138.83 C 50.81 137.04 48.94 135.61 47.19 134.27 C 47.20 133.68 47.22 133.09 47.24 132.50 C 46.23 132.12 45.22 131.75 44.21 131.37 C 46.70 129.84 49.68 128.60 51.75 126.53 C 52.52 124.22 52.20 121.84 51.31 119.62 C 47.22 110.04 40.80 103.23 35.31 94.64 C 33.61 92.19 34.32 89.70 33.77 86.90 C 33.29 83.93 31.78 81.47 32.49 78.50 C 33.53 73.55 34.90 68.68 35.72 63.67 C 36.46 60.21 36.85 55.87 38.97 52.95 C 41.73 49.43 45.28 46.47 48.79 43.73 C 54.02 39.61 59.93 38.70 65.62 35.46 C 68.94 33.55 72.40 32.17 76.04 30.99 C 83.65 28.40 89.83 24.50 97.60 22.61 C 102.68 21.29 107.80 21.06 113.02 20.91 C 117.60 20.79 122.52 20.24 127.04 20.88 Z" fill="#f3f2f1" />
<path d="M 108.53 25.93 C 110.23 27.97 112.49 31.24 115.30 31.65 C 119.83 32.05 124.00 30.93 128.60 32.26 C 131.99 33.17 134.13 36.52 137.45 37.81 C 140.04 38.87 142.71 39.76 145.31 40.84 C 143.84 41.79 142.38 42.74 140.92 43.69 C 136.68 39.39 132.95 37.30 127.13 35.67 C 121.28 33.34 117.11 32.59 110.74 32.93 C 107.70 32.78 105.06 33.06 102.13 33.85 L 101.39 34.02 C 99.84 34.33 98.27 34.59 96.70 34.84 C 99.05 33.00 101.57 31.46 104.19 30.06 C 101.96 29.64 99.72 29.18 97.48 28.80 C 101.03 27.39 104.73 26.38 108.53 25.93 Z" fill="#47475c" />
<path d="M 108.53 25.93 C 118.90 24.77 128.97 26.27 138.92 29.18 C 142.51 30.80 146.17 32.54 149.67 34.35 C 150.18 34.92 150.69 35.51 151.18 36.10 C 155.19 36.58 158.80 36.45 162.05 39.25 C 163.38 40.17 164.74 41.06 166.09 41.96 C 165.64 42.93 165.19 43.90 164.72 44.87 C 167.00 44.41 169.32 44.08 171.56 43.46 C 174.69 42.26 177.55 40.06 180.25 38.10 C 180.64 38.45 181.03 38.78 181.36 39.18 C 178.14 40.43 175.20 42.18 172.34 44.11 C 176.09 45.94 179.34 47.54 181.70 51.14 L 182.12 53.03 C 180.35 52.41 178.56 51.83 176.77 51.26 C 179.63 49.49 176.22 47.36 174.67 49.75 C 172.92 48.99 170.49 47.95 168.59 48.54 C 166.44 49.39 164.48 50.78 162.46 51.91 C 158.09 48.88 154.46 44.24 149.49 42.53 C 148.10 41.96 146.70 41.40 145.31 40.84 C 142.71 39.76 140.04 38.87 137.45 37.81 C 134.13 36.52 131.99 33.17 128.60 32.26 C 124.00 30.93 119.83 32.05 115.30 31.65 C 112.49 31.24 110.23 27.97 108.53 25.93 Z" fill="#21243f" />
<path d="M 163.18 26.08 C 168.84 27.32 174.59 30.59 177.70 35.63 C 176.03 36.20 174.28 37.03 172.51 37.17 C 171.02 37.01 169.55 36.52 168.08 36.22 C 166.10 37.32 164.19 38.48 162.05 39.25 C 158.80 36.45 155.19 36.58 151.18 36.10 C 150.69 35.51 150.18 34.92 149.67 34.35 C 150.32 34.00 150.96 33.64 151.61 33.28 C 153.36 33.71 155.47 34.58 157.26 34.08 C 159.93 33.42 162.52 32.16 165.04 31.06 C 162.70 30.47 160.35 29.94 157.96 29.60 C 159.73 28.46 161.41 27.21 163.18 26.08 Z" fill="#d3aea7" />
<path d="M 97.48 28.80 C 99.72 29.18 101.96 29.64 104.19 30.06 C 101.57 31.46 99.05 33.00 96.70 34.84 C 98.27 34.59 99.84 34.33 101.39 34.02 C 100.85 34.94 100.33 35.87 99.81 36.81 C 95.89 36.81 91.97 36.90 88.05 37.04 C 90.49 35.84 92.90 34.60 95.29 33.30 C 94.53 32.55 93.76 31.80 92.99 31.07 C 94.46 30.23 95.90 29.42 97.48 28.80 Z" fill="#7c797d" />
<path d="M 157.96 29.60 C 160.35 29.94 162.70 30.47 165.04 31.06 C 162.52 32.16 159.93 33.42 157.26 34.08 C 155.47 34.58 153.36 33.71 151.61 33.28 C 153.74 32.08 155.85 30.84 157.96 29.60 Z" fill="#c28a83" />
<path d="M 92.99 31.07 C 93.76 31.80 94.53 32.55 95.29 33.30 C 92.90 34.60 90.49 35.84 88.05 37.04 C 91.97 36.90 95.89 36.81 99.81 36.81 C 102.65 36.82 105.50 36.89 108.34 36.95 C 108.02 38.51 107.72 40.08 107.42 41.65 C 104.12 41.92 100.96 42.18 97.77 41.03 C 95.18 40.14 92.83 39.59 90.07 39.79 C 90.16 40.68 90.25 41.57 90.34 42.47 C 92.33 43.79 94.31 45.13 96.26 46.51 C 94.23 46.39 92.21 46.26 90.18 46.11 C 92.31 48.05 94.18 50.08 95.94 52.37 C 88.40 51.91 81.17 52.90 73.67 51.30 C 70.11 50.87 66.10 49.08 62.86 51.32 C 62.16 52.29 61.50 53.28 60.90 54.31 L 59.99 56.02 C 57.92 56.89 55.86 57.81 53.81 58.74 L 55.18 57.16 C 55.99 56.23 56.80 55.30 57.61 54.38 C 56.97 53.17 54.89 51.31 55.52 49.86 C 57.45 47.93 60.01 46.55 62.33 45.13 C 64.17 44.21 65.96 43.23 67.73 42.19 L 68.50 41.97 C 69.77 42.09 71.05 42.25 72.32 42.40 C 73.25 41.56 74.18 40.72 75.13 39.89 C 77.31 38.74 79.52 37.63 81.76 36.61 C 81.30 37.65 81.84 39.66 83.23 38.65 C 83.58 38.04 83.57 37.33 83.19 36.52 C 86.63 34.99 89.76 32.98 92.99 31.07 Z" fill="#bfafa0" />
<path d="M 110.74 32.93 C 112.85 33.70 114.93 34.58 117.01 35.46 C 117.73 37.21 118.49 38.95 119.33 40.65 L 118.81 40.82 C 113.45 37.91 108.15 35.14 102.13 33.85 C 105.06 33.06 107.70 32.78 110.74 32.93 Z" fill="#7a7377" />
<path d="M 110.74 32.93 C 117.11 32.59 121.28 33.34 127.13 35.67 C 126.35 36.00 125.56 36.33 124.79 36.67 C 130.22 40.80 136.58 43.29 141.91 47.53 C 142.97 48.35 144.02 49.16 145.11 49.93 C 142.68 51.34 140.43 53.00 138.24 54.75 C 138.49 53.79 138.73 52.82 138.98 51.86 C 137.84 51.93 136.66 52.04 135.52 51.99 C 133.89 49.86 133.60 46.38 131.60 44.52 C 129.66 42.66 127.40 41.06 125.05 39.76 C 122.93 39.18 121.30 39.96 119.33 40.65 C 118.49 38.95 117.73 37.21 117.01 35.46 C 114.93 34.58 112.85 33.70 110.74 32.93 Z" fill="#58545f" />
<path d="M 101.39 34.02 L 102.13 33.85 C 108.15 35.14 113.45 37.91 118.81 40.82 C 121.35 42.27 124.15 43.71 125.83 46.20 C 127.89 49.22 129.58 52.49 131.53 55.59 C 122.77 59.08 113.53 60.26 104.16 60.52 C 98.65 60.46 93.25 59.32 87.72 59.49 C 92.41 61.35 97.20 61.79 102.11 62.64 C 100.72 64.01 99.32 65.37 97.92 66.73 C 96.45 65.69 94.98 64.65 93.50 63.62 C 94.29 65.36 95.07 67.11 95.85 68.86 C 87.09 68.63 76.55 68.41 69.94 61.73 C 67.47 57.70 65.47 55.73 60.90 54.31 C 61.50 53.28 62.16 52.29 62.86 51.32 C 66.07 52.02 69.33 52.27 72.60 52.59 C 79.31 53.20 85.27 56.21 92.06 56.70 C 98.86 57.36 105.40 55.80 111.25 52.30 C 106.09 52.82 101.09 53.16 95.94 52.37 C 94.18 50.08 92.31 48.05 90.18 46.11 C 92.21 46.26 94.23 46.39 96.26 46.51 C 94.31 45.13 92.33 43.79 90.34 42.47 C 90.25 41.57 90.16 40.68 90.07 39.79 C 92.83 39.59 95.18 40.14 97.77 41.03 C 100.96 42.18 104.12 41.92 107.42 41.65 C 107.72 40.08 108.02 38.51 108.34 36.95 C 105.50 36.89 102.65 36.82 99.81 36.81 C 100.33 35.87 100.85 34.94 101.39 34.02 Z" fill="#b5a597" />
<path d="M 82.46 36.29 L 81.76 36.61 C 79.52 37.63 77.31 38.74 75.13 39.89 C 72.94 40.65 70.72 41.32 68.50 41.97 L 67.73 42.19 C 69.04 40.73 70.29 39.07 71.80 37.84 C 74.95 35.67 78.84 34.75 82.46 36.29 Z" fill="#cbc7c5" />
<path d="M 168.08 36.22 C 169.55 36.52 171.02 37.01 172.51 37.17 C 174.28 37.03 176.03 36.20 177.70 35.63 C 178.51 36.50 179.42 37.25 180.25 38.10 C 177.55 40.06 174.69 42.26 171.56 43.46 C 169.32 44.08 167.00 44.41 164.72 44.87 C 165.19 43.90 165.64 42.93 166.09 41.96 C 164.74 41.06 163.38 40.17 162.05 39.25 C 164.19 38.48 166.10 37.32 168.08 36.22 Z" fill="#e2c7c0" />
<path d="M 127.13 35.67 C 132.95 37.30 136.68 39.39 140.92 43.69 C 142.38 42.74 143.84 41.79 145.31 40.84 C 146.70 41.40 148.10 41.96 149.49 42.53 C 146.89 44.08 144.38 45.77 141.91 47.53 C 136.58 43.29 130.22 40.80 124.79 36.67 C 125.56 36.33 126.35 36.00 127.13 35.67 Z" fill="#7d7880" />
<path d="M 81.76 36.61 L 82.46 36.29 L 83.19 36.52 C 83.57 37.33 83.58 38.04 83.23 38.65 C 81.84 39.66 81.30 37.65 81.76 36.61 Z" fill="#746766" />
<path d="M 125.05 39.76 C 124.46 40.46 123.88 41.16 123.30 41.87 C 126.74 44.60 130.04 46.98 131.83 51.17 C 133.12 53.84 133.51 57.39 135.38 59.68 C 137.99 61.80 139.29 59.66 141.66 58.55 C 143.31 57.51 144.98 57.52 146.82 57.09 C 146.66 58.36 146.49 59.62 146.32 60.89 C 147.38 61.87 148.43 62.85 149.49 63.83 C 145.87 64.94 140.53 64.40 137.73 67.09 C 137.44 68.93 138.28 69.05 139.51 70.05 C 140.63 70.69 141.76 71.28 142.89 71.89 C 139.70 71.67 136.50 71.56 133.30 71.45 C 127.82 71.05 122.36 71.34 116.87 71.24 L 116.09 71.07 C 115.38 68.86 114.67 66.65 113.93 64.45 C 111.48 64.45 109.04 64.46 106.60 64.48 C 106.47 65.63 106.22 66.76 106.09 67.91 C 97.27 71.32 88.36 71.02 79.08 70.81 C 76.09 70.09 73.29 67.91 70.75 66.19 C 68.94 65.11 69.96 63.46 69.94 61.73 C 76.55 68.41 87.09 68.63 95.85 68.86 C 95.07 67.11 94.29 65.36 93.50 63.62 C 94.98 64.65 96.45 65.69 97.92 66.73 C 99.32 65.37 100.72 64.01 102.11 62.64 C 97.20 61.79 92.41 61.35 87.72 59.49 C 93.25 59.32 98.65 60.46 104.16 60.52 C 113.53 60.26 122.77 59.08 131.53 55.59 C 129.58 52.49 127.89 49.22 125.83 46.20 C 124.15 43.71 121.35 42.27 118.81 40.82 L 119.33 40.65 C 121.30 39.96 122.93 39.18 125.05 39.76 Z" fill="#938682" />
<path d="M 75.13 39.89 C 74.18 40.72 73.25 41.56 72.32 42.40 C 71.05 42.25 69.77 42.09 68.50 41.97 C 70.72 41.32 72.94 40.65 75.13 39.89 Z" fill="#908984" />
<path d="M 125.05 39.76 C 127.40 41.06 129.66 42.66 131.60 44.52 C 133.60 46.38 133.89 49.86 135.52 51.99 C 136.66 52.04 137.84 51.93 138.98 51.86 C 138.73 52.82 138.49 53.79 138.24 54.75 C 140.43 53.00 142.68 51.34 145.11 49.93 C 146.92 50.72 148.80 51.24 150.72 51.67 C 149.56 50.34 148.34 49.06 147.11 47.79 C 148.10 46.61 149.13 45.44 150.06 44.20 C 149.88 43.64 149.69 43.08 149.49 42.53 C 154.46 44.24 158.09 48.88 162.46 51.91 C 157.52 55.00 151.78 53.81 146.82 57.09 C 144.98 57.52 143.31 57.51 141.66 58.55 C 139.29 59.66 137.99 61.80 135.38 59.68 C 133.51 57.39 133.12 53.84 131.83 51.17 C 130.04 46.98 126.74 44.60 123.30 41.87 C 123.88 41.16 124.46 40.46 125.05 39.76 Z" fill="#766c72" />
<path d="M 181.36 39.18 C 182.63 40.74 183.76 42.42 184.93 44.06 C 183.81 45.70 182.69 47.34 181.57 48.97 C 181.96 49.67 182.34 50.36 182.73 51.05 L 181.70 51.14 C 179.34 47.54 176.09 45.94 172.34 44.11 C 175.20 42.18 178.14 40.43 181.36 39.18 Z" fill="#ddc3bc" />
<path d="M 149.49 42.53 C 149.69 43.08 149.88 43.64 150.06 44.20 C 149.13 45.44 148.10 46.61 147.11 47.79 C 148.34 49.06 149.56 50.34 150.72 51.67 C 148.80 51.24 146.92 50.72 145.11 49.93 C 144.02 49.16 142.97 48.35 141.91 47.53 C 144.38 45.77 146.89 44.08 149.49 42.53 Z" fill="#9e9499" />
<path d="M 62.33 45.13 C 60.01 46.55 57.45 47.93 55.52 49.86 C 54.89 51.31 56.97 53.17 57.61 54.38 C 56.80 55.30 55.99 56.23 55.18 57.16 C 52.91 55.77 50.67 55.47 48.06 55.32 C 50.11 52.76 52.22 49.82 54.83 47.82 C 56.88 46.19 59.84 45.83 62.33 45.13 Z" fill="#d0c9bd" />
<path d="M 174.67 49.75 L 174.88 50.57 L 173.05 51.61 C 174.44 53.65 176.42 54.32 178.64 55.12 C 178.52 56.53 178.40 57.93 178.27 59.34 C 176.31 60.08 174.38 60.87 172.49 61.78 C 169.60 61.67 166.71 61.55 163.82 61.46 C 166.23 62.81 168.68 64.08 171.12 65.37 C 169.33 66.42 167.23 68.26 165.09 68.34 C 159.29 68.12 155.41 63.91 149.49 63.83 C 148.43 62.85 147.38 61.87 146.32 60.89 C 146.49 59.62 146.66 58.36 146.82 57.09 C 151.78 53.81 157.52 55.00 162.46 51.91 C 164.48 50.78 166.44 49.39 168.59 48.54 C 170.49 47.95 172.92 48.99 174.67 49.75 Z" fill="#bdab9c" />
<path d="M 176.77 51.26 L 174.88 50.57 L 174.67 49.75 C 176.22 47.36 179.63 49.49 176.77 51.26 Z" fill="#1e232d" />
<path d="M 73.67 51.30 C 81.17 52.90 88.40 51.91 95.94 52.37 C 101.09 53.16 106.09 52.82 111.25 52.30 C 105.40 55.80 98.86 57.36 92.06 56.70 C 85.27 56.21 79.31 53.20 72.60 52.59 C 69.33 52.27 66.07 52.02 62.86 51.32 C 66.10 49.08 70.11 50.87 73.67 51.30 Z" fill="#967a64" />
<path d="M 173.05 51.61 L 174.88 50.57 L 176.77 51.26 C 178.56 51.83 180.35 52.41 182.12 53.03 C 184.04 54.08 185.98 55.07 187.98 55.98 L 188.01 54.13 C 189.52 55.37 191.10 56.53 192.78 57.53 C 191.76 59.39 193.76 60.39 194.95 61.41 C 196.92 63.06 198.82 64.81 200.62 66.65 C 201.63 68.13 202.54 69.68 203.43 71.23 C 199.17 72.82 194.83 73.19 190.32 73.08 C 187.78 70.35 185.00 68.05 181.79 66.16 C 185.39 64.40 189.22 63.53 193.10 62.31 C 186.23 61.98 179.36 62.23 172.49 61.78 C 174.38 60.87 176.31 60.08 178.27 59.34 C 178.40 57.93 178.52 56.53 178.64 55.12 C 176.42 54.32 174.44 53.65 173.05 51.61 Z" fill="#c8baab" />
<path d="M 181.70 51.14 L 182.73 51.05 C 184.93 51.40 186.41 52.70 188.01 54.13 L 187.98 55.98 C 185.98 55.07 184.04 54.08 182.12 53.03 L 181.70 51.14 Z" fill="#2f2f3e" />
<path d="M 69.94 61.73 C 69.96 63.46 68.94 65.11 70.75 66.19 C 73.29 67.91 76.09 70.09 79.08 70.81 C 88.36 71.02 97.27 71.32 106.09 67.91 C 106.22 66.76 106.47 65.63 106.60 64.48 C 109.04 64.46 111.48 64.45 113.93 64.45 C 114.67 66.65 115.38 68.86 116.09 71.07 C 112.62 70.36 108.86 69.30 105.31 69.51 C 102.38 69.38 100.58 73.44 98.95 75.41 C 97.81 74.93 96.68 74.46 95.54 73.98 C 94.65 74.65 93.74 75.30 92.84 75.97 C 90.56 75.47 88.67 74.91 86.71 76.62 C 83.86 78.30 85.12 81.06 84.99 83.81 C 84.40 81.55 83.89 78.46 82.11 76.82 C 79.05 75.24 75.18 76.34 72.53 73.53 C 69.20 70.37 69.38 66.54 67.66 62.72 C 65.37 60.24 62.43 58.37 59.99 56.02 L 60.90 54.31 C 65.47 55.73 67.47 57.70 69.94 61.73 Z" fill="#64606b" />
<path d="M 59.99 56.02 C 62.43 58.37 65.37 60.24 67.66 62.72 C 69.38 66.54 69.20 70.37 72.53 73.53 C 75.18 76.34 79.05 75.24 82.11 76.82 C 83.89 78.46 84.40 81.55 84.99 83.81 C 86.66 84.51 88.68 86.54 90.51 85.65 C 93.05 85.16 94.04 83.13 94.80 80.89 C 94.45 79.18 93.55 77.56 92.84 75.97 C 93.74 75.30 94.65 74.65 95.54 73.98 C 96.68 74.46 97.81 74.93 98.95 75.41 C 100.58 73.44 102.38 69.38 105.31 69.51 C 108.86 69.30 112.62 70.36 116.09 71.07 L 116.87 71.24 C 122.21 72.02 125.12 75.57 129.53 78.12 C 130.84 75.92 132.10 73.70 133.30 71.45 C 136.50 71.56 139.70 71.67 142.89 71.89 C 141.76 71.28 140.63 70.69 139.51 70.05 C 141.21 69.18 142.91 68.30 144.61 67.43 C 148.30 70.73 151.84 74.21 155.59 77.44 C 157.89 79.40 161.20 79.99 163.43 81.90 C 165.23 84.45 161.65 86.28 160.35 88.06 C 159.09 87.88 157.83 87.70 156.56 87.55 L 154.56 87.26 C 149.37 86.18 144.18 85.39 139.16 83.90 C 133.95 82.43 129.46 80.41 123.92 80.42 C 118.76 84.03 114.58 89.28 111.68 94.83 L 110.95 94.77 C 107.19 94.30 104.31 92.38 101.09 90.62 C 95.84 88.42 90.11 87.76 84.82 90.22 C 85.81 91.18 86.80 92.13 87.78 93.08 C 86.11 93.15 84.44 93.22 82.76 93.24 C 78.17 92.89 74.31 94.76 69.77 95.20 C 75.48 97.01 81.41 97.34 87.19 98.86 C 92.07 100.26 96.40 98.66 100.81 101.79 C 100.22 102.56 99.63 103.32 99.05 104.09 C 98.59 104.71 98.16 105.34 97.74 105.98 C 97.16 106.97 96.60 107.97 96.05 108.98 C 94.80 106.91 93.60 104.69 92.02 102.85 C 89.65 102.64 89.50 106.58 88.49 108.18 C 88.28 108.71 88.07 109.23 87.87 109.76 C 87.40 109.61 86.93 109.45 86.46 109.30 C 85.44 107.70 84.42 106.10 83.31 104.57 C 82.57 104.49 81.84 104.43 81.11 104.40 C 80.63 105.91 80.19 107.43 79.71 108.93 C 79.24 110.04 78.75 111.13 78.19 112.20 C 76.24 108.77 75.90 104.87 71.42 104.10 C 70.65 107.08 69.76 110.01 68.88 112.96 C 68.34 112.35 67.83 111.73 67.33 111.09 C 65.67 108.54 65.49 106.82 65.72 103.85 C 61.23 103.29 56.64 103.69 52.20 102.95 C 47.99 101.75 42.58 99.64 40.25 95.70 C 38.71 92.01 37.48 88.40 35.40 84.95 C 35.89 82.79 39.52 82.76 41.23 82.17 C 41.53 81.36 41.83 80.55 42.14 79.74 C 44.42 73.14 48.30 67.51 51.28 61.26 C 52.12 60.41 52.96 59.57 53.81 58.74 C 55.86 57.81 57.92 56.89 59.99 56.02 Z" fill="#32344e" />
<path d="M 192.78 57.53 C 193.86 58.10 194.92 58.71 195.96 59.34 C 195.68 60.06 195.34 60.76 194.95 61.41 C 193.76 60.39 191.76 59.39 192.78 57.53 Z" fill="#323037" />
<path d="M 195.96 59.34 C 197.07 59.70 198.18 60.04 199.27 60.43 C 200.54 62.19 201.70 64.01 202.76 65.90 C 202.04 66.13 201.33 66.40 200.62 66.65 C 198.82 64.81 196.92 63.06 194.95 61.41 C 195.34 60.76 195.68 60.06 195.96 59.34 Z" fill="#a89e9f" />
<path d="M 210.46 71.63 C 212.29 74.51 211.23 77.06 210.98 80.19 C 207.77 75.68 205.37 70.75 202.76 65.90 C 201.70 64.01 200.54 62.19 199.27 60.43 C 204.84 61.63 207.65 67.22 210.46 71.63 Z" fill="#e3d4c6" />
<path d="M 51.28 61.26 C 48.30 67.51 44.42 73.14 42.14 79.74 C 40.72 79.99 39.30 80.26 37.88 80.51 C 39.57 77.98 41.52 75.65 43.27 73.18 C 44.69 71.41 44.37 68.57 44.54 66.41 C 46.82 64.69 49.08 63.07 51.28 61.26 Z" fill="#a4a4b2" />
<path d="M 163.82 61.46 C 166.71 61.55 169.60 61.67 172.49 61.78 C 179.36 62.23 186.23 61.98 193.10 62.31 C 189.22 63.53 185.39 64.40 181.79 66.16 C 179.80 67.90 178.11 70.02 176.37 72.00 C 181.04 72.80 185.58 73.14 190.32 73.08 C 194.83 73.19 199.17 72.82 203.43 71.23 C 203.86 72.00 204.29 72.78 204.72 73.55 C 200.47 74.57 196.13 75.54 191.79 76.10 C 186.34 75.85 181.48 74.33 176.02 75.21 C 178.19 77.90 179.88 80.56 181.36 83.70 C 180.61 84.49 179.86 85.28 179.11 86.07 C 177.54 85.21 175.93 84.46 174.30 83.73 C 176.02 82.93 177.86 83.17 178.41 81.03 C 177.09 79.30 175.26 77.23 173.09 76.59 C 169.60 75.83 165.69 77.71 162.25 77.07 C 159.47 75.15 157.28 72.41 154.58 70.34 C 152.24 68.52 150.78 66.49 149.49 63.83 C 155.41 63.91 159.29 68.12 165.09 68.34 C 167.23 68.26 169.33 66.42 171.12 65.37 C 168.68 64.08 166.23 62.81 163.82 61.46 Z" fill="#95867e" />
<path d="M 149.49 63.83 C 150.78 66.49 152.24 68.52 154.58 70.34 C 157.28 72.41 159.47 75.15 162.25 77.07 C 165.69 77.71 169.60 75.83 173.09 76.59 C 175.26 77.23 177.09 79.30 178.41 81.03 C 177.86 83.17 176.02 82.93 174.30 83.73 C 175.93 84.46 177.54 85.21 179.11 86.07 L 180.16 87.11 C 180.66 91.41 180.30 95.65 179.63 99.90 C 174.04 97.21 171.06 92.59 164.80 91.46 C 162.76 90.86 160.73 90.27 158.68 89.74 C 159.24 89.19 159.80 88.63 160.35 88.06 C 161.65 86.28 165.23 84.45 163.43 81.90 C 161.20 79.99 157.89 79.40 155.59 77.44 C 151.84 74.21 148.30 70.73 144.61 67.43 C 142.91 68.30 141.21 69.18 139.51 70.05 C 138.28 69.05 137.44 68.93 137.73 67.09 C 140.53 64.40 145.87 64.94 149.49 63.83 Z" fill="#4d4e60" />
<path d="M 202.76 65.90 C 205.37 70.75 207.77 75.68 210.98 80.19 C 212.85 85.82 215.48 91.44 216.76 97.22 C 217.12 98.52 216.32 100.05 215.92 101.28 C 215.46 102.42 214.99 103.55 214.53 104.69 C 215.56 106.40 216.62 108.09 217.58 109.84 C 219.58 114.25 221.59 116.61 225.46 119.44 L 224.16 120.21 C 223.32 119.17 222.49 118.12 221.65 117.07 C 221.38 123.07 220.90 129.17 221.37 135.16 C 222.19 141.85 220.23 148.88 217.90 155.12 C 217.39 156.07 216.84 157.00 216.30 157.94 C 215.78 154.62 214.52 152.32 212.55 149.66 C 212.67 148.74 212.79 147.82 212.91 146.90 C 213.65 139.99 214.52 132.92 214.15 125.97 C 213.97 121.64 210.97 119.63 208.42 116.59 L 207.54 115.27 L 208.10 113.16 C 209.84 114.33 211.55 115.53 213.28 116.72 C 212.58 113.73 211.76 110.82 210.26 108.12 C 209.17 106.08 208.10 104.04 207.28 101.87 C 206.55 97.48 204.70 93.28 204.32 88.87 C 204.07 85.38 206.04 83.10 206.80 79.90 C 207.17 77.79 205.65 75.38 204.72 73.55 C 204.29 72.78 203.86 72.00 203.43 71.23 C 202.54 69.68 201.63 68.13 200.62 66.65 C 201.33 66.40 202.04 66.13 202.76 65.90 Z" fill="#1f223e" />
<path d="M 181.79 66.16 C 185.00 68.05 187.78 70.35 190.32 73.08 C 185.58 73.14 181.04 72.80 176.37 72.00 C 178.11 70.02 179.80 67.90 181.79 66.16 Z" fill="#b0a397" />
<path d="M 116.87 71.24 C 122.36 71.34 127.82 71.05 133.30 71.45 C 132.10 73.70 130.84 75.92 129.53 78.12 C 125.12 75.57 122.21 72.02 116.87 71.24 Z" fill="#5b5764" />
<path d="M 191.79 76.10 C 195.49 77.88 199.77 80.28 202.09 83.76 C 204.41 90.25 201.88 98.44 206.75 104.02 L 207.28 101.87 C 208.10 104.04 209.17 106.08 210.26 108.12 C 209.20 108.11 208.15 108.09 207.09 108.08 C 204.79 107.78 201.68 107.96 200.20 105.86 C 197.71 102.91 195.81 99.36 193.86 96.04 C 194.95 96.50 196.05 96.97 197.14 97.44 C 196.83 94.23 196.45 91.03 195.86 87.86 C 195.48 89.99 195.12 92.11 194.77 94.24 C 192.61 94.39 190.40 94.85 188.34 93.93 C 185.10 92.61 182.61 89.55 180.16 87.11 L 179.11 86.07 C 179.86 85.28 180.61 84.49 181.36 83.70 C 179.88 80.56 178.19 77.90 176.02 75.21 C 181.48 74.33 186.34 75.85 191.79 76.10 Z" fill="#b9a99a" />
<path d="M 204.72 73.55 C 205.65 75.38 207.17 77.79 206.80 79.90 C 206.04 83.10 204.07 85.38 204.32 88.87 C 204.70 93.28 206.55 97.48 207.28 101.87 L 206.75 104.02 C 201.88 98.44 204.41 90.25 202.09 83.76 C 199.77 80.28 195.49 77.88 191.79 76.10 C 196.13 75.54 200.47 74.57 204.72 73.55 Z" fill="#c5b3a5" />
<path d="M 92.84 75.97 C 93.55 77.56 94.45 79.18 94.80 80.89 C 94.04 83.13 93.05 85.16 90.51 85.65 C 88.68 86.54 86.66 84.51 84.99 83.81 C 85.12 81.06 83.86 78.30 86.71 76.62 C 88.67 74.91 90.56 75.47 92.84 75.97 Z" fill="#cde6d3" />
<path d="M 139.16 83.90 C 144.18 85.39 149.37 86.18 154.56 87.26 C 147.86 88.52 141.09 88.84 134.38 89.91 L 132.81 90.15 C 130.11 86.73 126.96 83.54 123.92 80.42 C 129.46 80.41 133.95 82.43 139.16 83.90 Z" fill="#ac7571" />
<path d="M 123.92 80.42 C 126.96 83.54 130.11 86.73 132.81 90.15 C 134.68 93.55 136.60 97.63 136.61 101.57 C 133.79 104.64 129.68 106.75 125.69 107.88 C 122.23 107.40 118.88 106.54 115.48 105.76 C 114.51 105.30 113.55 104.79 112.60 104.28 C 114.39 104.14 116.18 104.00 117.97 103.91 C 121.30 103.82 124.60 104.48 127.92 104.44 C 129.94 104.42 131.88 103.02 133.61 102.10 C 133.03 101.44 132.45 100.79 131.85 100.15 C 127.45 100.87 123.03 101.38 118.61 101.99 C 116.07 99.81 113.90 97.31 111.68 94.83 C 114.58 89.28 118.76 84.03 123.92 80.42 Z" fill="#cdcead" />
<path d="M 123.95 82.26 C 128.45 86.98 131.80 92.22 132.20 98.92 C 127.93 97.95 126.60 92.06 124.05 88.84 C 122.95 90.12 121.86 91.41 120.76 92.69 C 124.43 93.95 125.66 94.57 127.36 98.18 C 125.06 98.30 122.45 98.73 120.20 98.12 C 118.57 97.06 117.18 95.47 115.83 94.07 C 117.67 89.41 119.83 85.31 123.95 82.26 Z" fill="#2e2d49" />
<path d="M 154.56 87.26 L 156.56 87.55 C 150.49 90.62 142.80 90.70 136.11 90.91 L 134.38 89.91 C 141.09 88.84 147.86 88.52 154.56 87.26 Z" fill="#e1b8b3" />
<path d="M 156.56 87.55 C 157.83 87.70 159.09 87.88 160.35 88.06 C 159.80 88.63 159.24 89.19 158.68 89.74 C 155.73 91.61 152.72 93.39 149.71 95.17 C 146.06 94.74 142.40 94.84 138.74 95.13 C 141.49 95.95 144.28 96.61 147.09 97.19 C 145.95 99.27 144.67 101.16 143.17 102.99 C 141.75 102.68 140.31 102.44 138.87 102.17 C 138.26 98.32 137.60 94.54 136.11 90.91 C 142.80 90.70 150.49 90.62 156.56 87.55 Z" fill="#a7706e" />
<path d="M 180.16 87.11 C 182.61 89.55 185.10 92.61 188.34 93.93 C 190.40 94.85 192.61 94.39 194.77 94.24 C 195.12 92.11 195.48 89.99 195.86 87.86 C 196.45 91.03 196.83 94.23 197.14 97.44 C 196.05 96.97 194.95 96.50 193.86 96.04 C 195.81 99.36 197.71 102.91 200.20 105.86 C 201.68 107.96 204.79 107.78 207.09 108.08 C 205.99 108.19 204.89 108.35 203.79 108.54 C 204.85 110.90 206.11 113.13 207.54 115.27 L 208.42 116.59 C 207.97 118.52 207.53 120.43 207.19 122.38 C 205.68 118.09 204.11 113.86 202.18 109.74 C 198.12 110.27 194.43 110.93 190.47 109.44 C 186.40 108.21 183.62 105.52 180.56 102.74 C 179.22 101.60 177.80 100.58 176.36 99.56 C 172.51 96.86 168.72 94.06 164.80 91.46 C 171.06 92.59 174.04 97.21 179.63 99.90 C 180.30 95.65 180.66 91.41 180.16 87.11 Z" fill="#938885" />
<path d="M 43.02 87.87 C 46.08 88.85 48.09 90.04 50.35 92.35 C 46.79 92.70 45.22 90.14 43.02 87.87 Z" fill="#54566f" />
<path d="M 52.93 88.18 C 56.30 89.47 58.45 90.90 60.38 94.02 C 58.82 93.55 57.10 93.17 55.67 92.37 C 54.35 91.46 53.61 89.59 52.93 88.18 Z" fill="#65687b" />
<path d="M 101.09 90.62 C 104.31 92.38 107.19 94.30 110.95 94.77 C 105.27 94.67 99.74 93.67 94.06 93.98 C 90.25 94.17 86.52 93.84 82.76 93.24 C 84.44 93.22 86.11 93.15 87.78 93.08 C 86.80 92.13 85.81 91.18 84.82 90.22 C 90.11 87.76 95.84 88.42 101.09 90.62 Z" fill="#45485d" />
<path d="M 132.81 90.15 L 134.38 89.91 L 136.11 90.91 C 137.60 94.54 138.26 98.32 138.87 102.17 C 140.31 102.44 141.75 102.68 143.17 102.99 C 145.40 103.49 147.56 104.22 149.54 105.36 C 151.21 107.38 152.69 109.49 154.16 111.65 C 146.63 111.45 139.26 110.94 131.74 111.98 C 132.91 111.60 134.08 111.21 135.24 110.80 C 132.06 108.87 129.48 107.94 125.69 107.88 C 129.68 106.75 133.79 104.64 136.61 101.57 C 136.60 97.63 134.68 93.55 132.81 90.15 Z" fill="#52525f" />
<path d="M 158.68 89.74 C 160.73 90.27 162.76 90.86 164.80 91.46 C 168.72 94.06 172.51 96.86 176.36 99.56 C 175.75 103.53 176.21 106.81 177.33 110.61 C 174.48 108.84 171.99 107.27 170.61 104.05 C 171.56 103.81 172.52 103.58 173.47 103.35 C 172.88 101.88 172.30 100.42 171.72 98.95 C 170.29 98.72 168.87 98.49 167.44 98.26 C 167.77 100.14 168.08 102.03 168.35 103.92 C 162.67 101.29 159.70 96.94 153.79 96.02 C 152.44 95.69 151.08 95.41 149.71 95.17 C 152.72 93.39 155.73 91.61 158.68 89.74 Z" fill="#30314b" />
<path d="M 159.66 90.98 C 161.26 93.04 163.05 94.89 164.93 96.68 C 162.07 96.08 159.59 95.79 157.66 93.31 C 158.31 92.52 158.98 91.75 159.66 90.98 Z" fill="#57576c" />
<path d="M 49.89 93.15 C 53.96 94.43 57.53 96.35 61.62 97.24 C 64.80 97.96 67.90 98.12 70.86 99.62 C 63.84 100.53 55.27 97.73 49.89 93.15 Z" fill="#5b5d73" />
<path d="M 82.76 93.24 C 86.52 93.84 90.25 94.17 94.06 93.98 C 99.74 93.67 105.27 94.67 110.95 94.77 L 111.68 94.83 C 113.90 97.31 116.07 99.81 118.61 101.99 C 118.40 102.63 118.18 103.27 117.97 103.91 C 116.18 104.00 114.39 104.14 112.60 104.28 C 113.55 104.79 114.51 105.30 115.48 105.76 C 114.26 106.42 113.06 107.13 111.86 107.83 C 110.77 107.31 109.68 106.78 108.56 106.31 C 108.00 104.69 108.35 103.04 106.15 102.88 C 104.91 103.36 103.71 104.07 102.54 104.71 C 101.38 104.47 100.22 104.26 99.05 104.09 C 99.63 103.32 100.22 102.56 100.81 101.79 C 96.40 98.66 92.07 100.26 87.19 98.86 C 81.41 97.34 75.48 97.01 69.77 95.20 C 74.31 94.76 78.17 92.89 82.76 93.24 Z" fill="#6c6d7d" />
<path d="M 138.74 95.13 C 142.40 94.84 146.06 94.74 149.71 95.17 C 151.08 95.41 152.44 95.69 153.79 96.02 C 154.34 96.53 154.89 97.04 155.44 97.57 C 152.85 97.37 150.30 97.29 147.71 97.32 L 147.09 97.19 C 144.28 96.61 141.49 95.95 138.74 95.13 Z" fill="#c29fa0" />
<path d="M 153.79 96.02 C 159.70 96.94 162.67 101.29 168.35 103.92 C 168.08 102.03 167.77 100.14 167.44 98.26 C 168.87 98.49 170.29 98.72 171.72 98.95 C 172.30 100.42 172.88 101.88 173.47 103.35 C 172.52 103.58 171.56 103.81 170.61 104.05 C 171.99 107.27 174.48 108.84 177.33 110.61 C 176.21 106.81 175.75 103.53 176.36 99.56 C 177.80 100.58 179.22 101.60 180.56 102.74 C 179.54 103.83 178.52 104.92 177.50 106.02 C 180.92 111.06 185.93 112.55 190.95 115.42 C 189.21 117.32 187.47 119.22 185.74 121.13 C 187.74 124.71 190.64 128.55 191.42 132.61 C 192.26 136.89 189.48 141.69 187.91 145.61 C 186.50 144.84 185.09 144.08 183.68 143.32 L 183.87 145.23 C 183.46 144.30 183.04 143.38 182.62 142.45 C 183.25 140.61 184.01 138.82 184.93 137.10 C 185.52 136.02 186.14 134.95 186.75 133.88 C 185.19 129.93 184.37 125.51 182.26 121.83 C 180.59 118.95 177.96 117.68 175.11 116.23 L 174.00 115.65 C 169.28 109.96 162.93 104.89 155.52 103.47 C 153.17 102.94 151.55 104.38 149.54 105.36 C 147.56 104.22 145.40 103.49 143.17 102.99 C 144.67 101.16 145.95 99.27 147.09 97.19 L 147.71 97.32 C 150.64 100.28 153.92 99.50 157.72 99.84 C 156.96 99.08 156.20 98.32 155.44 97.57 C 154.89 97.04 154.34 96.53 153.79 96.02 Z" fill="#666877" />
<path d="M 231.07 95.76 C 235.72 102.33 234.80 109.06 233.62 116.51 C 232.73 121.20 236.23 124.35 236.38 128.55 C 235.67 131.86 234.07 136.38 231.27 138.42 C 227.40 140.30 224.32 135.22 221.84 133.01 C 221.68 133.73 221.52 134.44 221.37 135.16 C 220.90 129.17 221.38 123.07 221.65 117.07 C 222.49 118.12 223.32 119.17 224.16 120.21 C 225.16 121.35 226.26 122.40 227.36 123.44 C 227.59 119.19 227.94 114.93 227.94 110.67 L 227.53 109.07 C 226.94 106.54 225.89 104.34 224.52 102.15 C 223.90 103.45 223.29 104.76 222.69 106.06 C 221.73 105.45 220.78 104.82 219.85 104.16 C 223.67 100.86 225.92 96.89 231.07 95.76 Z" fill="#debfb7" />
<path d="M 108.39 97.17 C 109.37 96.17 111.39 96.54 111.62 98.02 C 111.31 100.16 107.27 99.26 108.39 97.17 Z" fill="#9c9ca5" />
<path d="M 147.71 97.32 C 150.30 97.29 152.85 97.37 155.44 97.57 C 156.20 98.32 156.96 99.08 157.72 99.84 C 153.92 99.50 150.64 100.28 147.71 97.32 Z" fill="#454252" />
<path d="M 83.55 102.05 C 79.27 102.22 75.67 101.56 71.72 99.84 C 75.98 98.89 79.85 99.90 83.55 102.05 Z" fill="#5d6076" />
<path d="M 131.85 100.15 C 132.45 100.79 133.03 101.44 133.61 102.10 C 131.88 103.02 129.94 104.42 127.92 104.44 C 124.60 104.48 121.30 103.82 117.97 103.91 C 118.18 103.27 118.40 102.63 118.61 101.99 C 123.03 101.38 127.45 100.87 131.85 100.15 Z" fill="#32333f" />
<path d="M 215.92 101.28 C 217.24 102.22 218.53 103.21 219.85 104.16 C 220.78 104.82 221.73 105.45 222.69 106.06 C 224.30 107.07 225.94 108.02 227.53 109.07 L 227.94 110.67 C 226.31 110.02 224.71 109.30 223.13 108.55 C 221.03 107.04 219.04 105.39 216.93 103.88 C 217.13 105.87 217.38 107.85 217.58 109.84 C 216.62 108.09 215.56 106.40 214.53 104.69 C 214.99 103.55 215.46 102.42 215.92 101.28 Z" fill="#8a7578" />
<path d="M 92.02 102.85 C 93.60 104.69 94.80 106.91 96.05 108.98 C 95.61 109.80 95.17 110.62 94.75 111.46 C 93.88 110.72 92.98 109.99 92.06 109.29 L 91.50 111.20 C 90.48 110.21 89.48 109.20 88.49 108.18 C 89.50 106.58 89.65 102.64 92.02 102.85 Z" fill="#fefef4" />
<path d="M 106.15 102.88 C 108.35 103.04 108.00 104.69 108.56 106.31 C 106.57 105.70 104.56 105.19 102.54 104.71 C 103.71 104.07 104.91 103.36 106.15 102.88 Z" fill="#42425c" />
<path d="M 155.52 103.47 C 162.93 104.89 169.28 109.96 174.00 115.65 C 172.77 115.53 171.53 115.45 170.29 115.42 C 169.72 116.70 169.24 118.00 168.74 119.31 C 167.31 117.04 165.74 114.02 163.35 112.64 C 161.01 111.91 158.38 111.88 155.94 111.70 C 155.35 111.68 154.76 111.66 154.16 111.65 C 152.69 109.49 151.21 107.38 149.54 105.36 C 151.55 104.38 153.17 102.94 155.52 103.47 Z" fill="#30324c" />
<path d="M 180.56 102.74 C 183.62 105.52 186.40 108.21 190.47 109.44 C 194.43 110.93 198.12 110.27 202.18 109.74 C 204.11 113.86 205.68 118.09 207.19 122.38 C 207.57 125.99 208.63 129.45 206.72 132.79 C 204.26 137.44 203.05 142.54 200.44 147.12 C 200.90 148.42 201.39 149.71 201.82 151.01 L 201.12 151.89 C 199.83 152.02 198.51 152.07 197.24 152.33 C 196.30 153.00 196.16 154.44 195.88 155.48 C 195.19 159.17 194.27 162.73 193.13 166.31 C 187.09 173.22 182.59 180.49 178.95 188.92 C 178.62 189.63 178.30 190.34 177.98 191.06 C 175.22 192.02 172.32 193.03 169.85 194.61 C 168.86 195.23 168.53 196.82 168.17 197.86 C 167.56 197.56 166.96 197.27 166.35 196.98 C 165.41 197.48 164.47 197.98 163.53 198.48 C 163.11 197.98 162.67 197.49 162.23 197.01 C 163.09 195.04 163.95 193.09 164.84 191.14 C 163.81 190.31 162.76 189.49 161.73 188.66 C 164.10 182.66 167.02 176.85 171.36 172.01 C 171.87 172.71 172.37 173.41 172.87 174.10 C 176.76 168.92 179.48 163.17 182.18 157.32 C 183.00 155.73 183.80 154.14 184.59 152.55 C 183.81 152.46 183.03 152.38 182.26 152.30 C 184.03 149.70 184.53 148.46 183.87 145.23 L 183.68 143.32 C 185.09 144.08 186.50 144.84 187.91 145.61 C 189.48 141.69 192.26 136.89 191.42 132.61 C 190.64 128.55 187.74 124.71 185.74 121.13 C 187.47 119.22 189.21 117.32 190.95 115.42 C 185.93 112.55 180.92 111.06 177.50 106.02 C 178.52 104.92 179.54 103.83 180.56 102.74 Z" fill="#31334d" />
<path d="M 224.52 102.15 C 225.89 104.34 226.94 106.54 227.53 109.07 C 225.94 108.02 224.30 107.07 222.69 106.06 C 223.29 104.76 223.90 103.45 224.52 102.15 Z" fill="#c49a8f" />
<path d="M 71.42 104.10 C 75.90 104.87 76.24 108.77 78.19 112.20 C 77.79 112.90 77.37 113.60 76.94 114.28 C 75.83 112.90 74.76 111.48 73.67 110.09 C 72.62 111.64 71.63 113.23 70.60 114.79 C 70.02 114.19 69.44 113.58 68.88 112.96 C 69.76 110.01 70.65 107.08 71.42 104.10 Z" fill="#fafaf8" />
<path d="M 81.11 104.40 C 81.84 104.43 82.57 104.49 83.31 104.57 C 84.42 106.10 85.44 107.70 86.46 109.30 C 86.09 110.28 85.71 111.25 85.34 112.23 C 84.58 111.43 83.82 110.64 83.05 109.86 C 82.22 110.72 81.39 111.60 80.57 112.47 C 80.25 111.30 79.96 110.12 79.71 108.93 C 80.19 107.43 80.63 105.91 81.11 104.40 Z" fill="#f9faee" />
<path d="M 99.05 104.09 C 100.22 104.26 101.38 104.47 102.54 104.71 C 104.56 105.19 106.57 105.70 108.56 106.31 C 109.68 106.78 110.77 107.31 111.86 107.83 C 112.72 108.26 113.57 108.68 114.43 109.11 C 108.96 109.34 103.50 109.60 98.03 109.79 C 97.94 108.52 97.84 107.25 97.74 105.98 C 98.16 105.34 98.59 104.71 99.05 104.09 Z" fill="#f2f2f2" />
<path d="M 216.93 103.88 C 219.04 105.39 221.03 107.04 223.13 108.55 C 221.24 108.83 219.41 109.30 217.58 109.84 C 217.38 107.85 217.13 105.87 216.93 103.88 Z" fill="#f6e1df" />
<path d="M 97.74 105.98 C 97.84 107.25 97.94 108.52 98.03 109.79 C 103.50 109.60 108.96 109.34 114.43 109.11 C 117.42 110.34 120.46 111.45 123.46 112.68 C 121.19 113.91 118.74 115.98 116.07 115.87 C 113.45 115.88 110.98 116.11 108.44 116.75 C 108.60 117.52 108.76 118.30 108.92 119.08 C 105.02 119.76 101.15 120.59 97.24 121.23 C 90.84 122.31 84.34 122.29 77.91 123.23 C 78.16 122.47 78.40 121.70 78.65 120.94 C 80.12 120.24 81.66 119.58 83.03 118.70 C 84.16 117.41 82.13 115.90 81.60 114.69 C 82.41 114.94 83.22 115.19 84.03 115.44 C 84.48 114.37 84.91 113.30 85.34 112.23 C 85.71 111.25 86.09 110.28 86.46 109.30 C 86.93 109.45 87.40 109.61 87.87 109.76 C 88.07 109.23 88.28 108.71 88.49 108.18 C 89.48 109.20 90.48 110.21 91.50 111.20 C 91.30 112.35 91.14 113.51 90.99 114.67 C 92.12 114.41 93.25 114.17 94.38 113.91 C 94.50 113.09 94.63 112.27 94.75 111.46 C 95.17 110.62 95.61 109.80 96.05 108.98 C 96.60 107.97 97.16 106.97 97.74 105.98 Z" fill="#c8c7a1" />
<path d="M 115.48 105.76 C 118.88 106.54 122.23 107.40 125.69 107.88 C 127.14 108.47 128.55 109.11 129.98 109.75 C 129.72 110.68 129.46 111.62 129.20 112.55 C 127.18 113.04 125.50 113.55 123.46 112.68 C 120.46 111.45 117.42 110.34 114.43 109.11 C 113.57 108.68 112.72 108.26 111.86 107.83 C 113.06 107.13 114.26 106.42 115.48 105.76 Z" fill="#444759" />
<path d="M 125.69 107.88 C 129.48 107.94 132.06 108.87 135.24 110.80 C 134.08 111.21 132.91 111.60 131.74 111.98 C 130.89 112.17 130.05 112.36 129.20 112.55 C 129.46 111.62 129.72 110.68 129.98 109.75 C 128.55 109.11 127.14 108.47 125.69 107.88 Z" fill="#2c2b3a" />
<path d="M 203.79 108.54 C 204.89 108.35 205.99 108.19 207.09 108.08 C 208.15 108.09 209.20 108.11 210.26 108.12 C 211.76 110.82 212.58 113.73 213.28 116.72 C 211.55 115.53 209.84 114.33 208.10 113.16 L 207.54 115.27 C 206.11 113.13 204.85 110.90 203.79 108.54 Z" fill="#6b6b79" />
<path d="M 223.13 108.55 C 224.71 109.30 226.31 110.02 227.94 110.67 C 227.94 114.93 227.59 119.19 227.36 123.44 C 226.26 122.40 225.16 121.35 224.16 120.21 L 225.46 119.44 C 221.59 116.61 219.58 114.25 217.58 109.84 C 219.41 109.30 221.24 108.83 223.13 108.55 Z" fill="#c59892" />
<path d="M 79.71 108.93 C 79.96 110.12 80.25 111.30 80.57 112.47 C 80.89 113.23 81.24 113.97 81.60 114.69 C 82.13 115.90 84.16 117.41 83.03 118.70 C 81.66 119.58 80.12 120.24 78.65 120.94 C 78.40 121.70 78.16 122.47 77.91 123.23 C 71.07 124.13 62.11 124.14 56.53 119.49 C 54.63 118.15 54.28 116.24 53.58 114.17 C 55.41 114.29 57.23 114.43 59.06 114.60 C 58.75 115.40 58.46 116.21 58.18 117.03 C 60.01 116.95 61.84 116.86 63.67 116.78 C 63.56 115.93 63.45 115.08 63.34 114.23 C 64.68 113.19 66.01 112.15 67.33 111.09 C 67.83 111.73 68.34 112.35 68.88 112.96 C 69.44 113.58 70.02 114.19 70.60 114.79 C 72.21 115.60 73.93 115.92 75.68 116.30 C 76.11 115.63 76.53 114.96 76.94 114.28 C 77.37 113.60 77.79 112.90 78.19 112.20 C 78.75 111.13 79.24 110.04 79.71 108.93 Z" fill="#d5d5b7" />
<path d="M 92.06 109.29 C 92.98 109.99 93.88 110.72 94.75 111.46 C 94.63 112.27 94.50 113.09 94.38 113.91 C 93.25 114.17 92.12 114.41 90.99 114.67 C 91.14 113.51 91.30 112.35 91.50 111.20 L 92.06 109.29 Z" fill="#464348" />
<path d="M 73.67 110.09 C 74.76 111.48 75.83 112.90 76.94 114.28 C 76.53 114.96 76.11 115.63 75.68 116.30 C 73.93 115.92 72.21 115.60 70.60 114.79 C 71.63 113.23 72.62 111.64 73.67 110.09 Z" fill="#464b60" />
<path d="M 83.05 109.86 C 83.82 110.64 84.58 111.43 85.34 112.23 C 84.91 113.30 84.48 114.37 84.03 115.44 C 83.22 115.19 82.41 114.94 81.60 114.69 C 81.24 113.97 80.89 113.23 80.57 112.47 C 81.39 111.60 82.22 110.72 83.05 109.86 Z" fill="#535151" />
<path d="M 61.03 111.08 C 61.82 112.12 62.58 113.17 63.34 114.23 C 63.45 115.08 63.56 115.93 63.67 116.78 C 61.84 116.86 60.01 116.95 58.18 117.03 C 58.46 116.21 58.75 115.40 59.06 114.60 C 59.66 113.40 60.33 112.23 61.03 111.08 Z" fill="#55585d" />
<path d="M 154.16 111.65 C 154.76 111.66 155.35 111.68 155.94 111.70 C 157.47 114.88 158.83 116.40 161.83 118.24 C 163.23 120.39 164.85 122.74 165.49 125.25 C 165.78 127.17 165.48 129.22 165.33 131.15 C 164.51 131.10 163.70 131.06 162.89 131.01 C 162.67 131.63 162.47 132.25 162.27 132.88 C 159.66 127.49 155.71 123.26 150.20 120.81 C 136.50 115.25 123.13 116.97 108.92 119.08 C 108.76 118.30 108.60 117.52 108.44 116.75 C 110.98 116.11 113.45 115.88 116.07 115.87 C 118.74 115.98 121.19 113.91 123.46 112.68 C 125.50 113.55 127.18 113.04 129.20 112.55 C 130.05 112.36 130.89 112.17 131.74 111.98 C 139.26 110.94 146.63 111.45 154.16 111.65 Z" fill="#d1d0b4" />
<path d="M 155.94 111.70 C 158.38 111.88 161.01 111.91 163.35 112.64 C 165.74 114.02 167.31 117.04 168.74 119.31 C 170.45 122.20 172.00 125.26 173.97 127.98 C 175.21 130.10 178.05 129.95 180.17 130.54 C 180.47 131.51 180.74 132.49 180.98 133.48 C 179.69 134.03 178.41 134.60 177.16 135.24 C 174.18 132.07 171.58 127.74 167.76 125.59 C 166.60 123.66 165.61 121.64 164.54 119.66 C 163.65 119.16 162.73 118.71 161.83 118.24 C 158.83 116.40 157.47 114.88 155.94 111.70 Z" fill="#717173" />
<path d="M 170.29 115.42 C 171.53 115.45 172.77 115.53 174.00 115.65 L 175.11 116.23 C 176.12 121.29 178.49 125.73 180.17 130.54 C 178.05 129.95 175.21 130.10 173.97 127.98 C 172.00 125.26 170.45 122.20 168.74 119.31 C 169.24 118.00 169.72 116.70 170.29 115.42 Z" fill="#5d5d6c" />
<path d="M 175.11 116.23 C 177.96 117.68 180.59 118.95 182.26 121.83 C 184.37 125.51 185.19 129.93 186.75 133.88 C 186.14 134.95 185.52 136.02 184.93 137.10 C 183.96 137.35 182.99 137.59 182.02 137.83 C 181.67 136.38 181.34 134.93 180.98 133.48 C 180.74 132.49 180.47 131.51 180.17 130.54 C 178.49 125.73 176.12 121.29 175.11 116.23 Z" fill="#32344a" />
<path d="M 208.42 116.59 C 210.97 119.63 213.97 121.64 214.15 125.97 C 214.52 132.92 213.65 139.99 212.91 146.90 C 212.34 146.17 211.77 145.45 211.17 144.75 C 209.24 145.19 207.33 145.78 205.43 146.36 C 204.30 147.97 203.10 149.51 201.82 151.01 C 201.39 149.71 200.90 148.42 200.44 147.12 C 203.05 142.54 204.26 137.44 206.72 132.79 C 208.63 129.45 207.57 125.99 207.19 122.38 C 207.53 120.43 207.97 118.52 208.42 116.59 Z" fill="#696a75" />
<path d="M 161.83 118.24 C 162.73 118.71 163.65 119.16 164.54 119.66 C 165.61 121.64 166.60 123.66 167.76 125.59 C 170.16 130.27 172.80 133.61 176.78 137.03 L 177.16 135.24 C 178.41 134.60 179.69 134.03 180.98 133.48 C 181.34 134.93 181.67 136.38 182.02 137.83 C 182.99 137.59 183.96 137.35 184.93 137.10 C 184.01 138.82 183.25 140.61 182.62 142.45 C 181.55 145.89 180.28 149.09 178.55 152.25 C 177.48 148.87 175.84 145.76 173.98 142.75 C 171.52 139.95 168.92 141.46 165.74 141.69 C 165.42 139.61 165.11 137.58 164.54 135.55 C 163.85 134.89 163.17 134.23 162.48 133.57 L 162.27 132.88 C 162.47 132.25 162.67 131.63 162.89 131.01 C 163.70 131.06 164.51 131.10 165.33 131.15 C 165.48 129.22 165.78 127.17 165.49 125.25 C 164.85 122.74 163.23 120.39 161.83 118.24 Z" fill="#c7c7a1" />
<path d="M 177.16 135.24 L 176.78 137.03 C 172.80 133.61 170.16 130.27 167.76 125.59 C 171.58 127.74 174.18 132.07 177.16 135.24 Z" fill="#50514e" />
<path d="M 45.32 133.19 C 45.95 133.54 46.57 133.89 47.19 134.27 C 48.94 135.61 50.81 137.04 52.11 138.83 C 53.15 141.61 54.17 146.04 54.48 148.98 C 54.03 152.10 51.86 155.54 51.89 158.99 C 51.96 162.90 53.06 166.86 54.25 170.57 C 53.57 171.03 52.91 171.50 52.24 171.98 C 52.50 172.85 52.80 173.70 53.10 174.56 C 53.24 176.09 53.36 177.63 53.50 179.17 C 53.79 184.11 55.60 189.02 56.99 193.75 C 54.64 192.44 52.27 191.21 49.85 190.03 C 50.52 191.66 51.23 193.29 51.87 194.94 C 52.45 197.27 52.80 199.64 53.08 202.02 C 51.28 198.84 50.00 195.44 48.51 192.11 C 47.71 190.63 46.90 188.37 45.19 187.76 C 42.97 186.93 40.46 186.69 38.12 186.34 C 38.76 189.23 39.40 192.13 39.99 195.03 C 37.01 190.69 36.31 185.93 30.80 184.35 C 29.75 186.11 28.96 187.93 28.35 189.89 C 28.12 190.64 27.90 191.39 27.68 192.14 C 26.48 190.94 25.19 189.87 23.88 188.80 C 23.74 181.29 24.30 172.85 28.28 166.26 C 30.29 162.80 31.22 159.05 32.30 155.24 C 33.90 149.38 36.29 144.26 36.51 138.09 C 37.80 139.26 39.09 140.42 40.37 141.60 C 41.20 138.30 43.15 135.74 45.32 133.19 Z" fill="#bb7a71" />
<path d="M 162.48 133.57 C 163.17 134.23 163.85 134.89 164.54 135.55 C 165.11 137.58 165.42 139.61 165.74 141.69 C 168.92 141.46 171.52 139.95 173.98 142.75 C 171.66 143.19 168.55 143.22 166.63 144.72 C 165.17 147.72 164.93 151.42 164.27 154.68 C 166.69 153.94 169.05 153.11 171.41 152.18 C 169.56 150.66 166.66 150.72 167.94 147.67 C 169.65 147.53 171.96 147.38 173.40 148.46 C 176.72 150.13 176.00 156.44 172.25 157.23 C 168.20 158.48 163.59 158.42 159.38 158.34 C 160.00 156.19 160.80 154.11 161.42 151.97 C 161.26 149.97 160.59 148.60 159.40 147.04 C 161.22 142.72 162.06 138.23 162.48 133.57 Z" fill="#dbdabd" />
<path d="M 179.09 136.13 C 180.74 135.05 181.54 137.38 179.73 137.82 C 178.75 137.60 178.53 137.03 179.09 136.13 Z" fill="#484648" />
<path d="M 92.17 137.25 C 94.58 137.77 97.15 138.61 99.61 138.29 C 103.79 137.73 108.38 137.06 112.57 137.72 C 116.44 139.13 119.91 141.81 123.41 143.96 C 121.40 144.18 119.39 144.30 117.37 144.35 C 109.20 144.73 100.48 145.65 92.94 149.00 C 90.14 149.85 87.32 150.61 84.46 151.28 C 84.93 152.49 85.40 153.71 85.86 154.92 C 81.67 154.11 77.58 153.06 73.49 151.85 C 73.12 150.81 72.78 149.75 72.45 148.69 C 76.92 147.12 81.27 146.92 84.21 142.81 C 88.54 142.72 92.31 142.09 96.17 140.03 C 94.85 139.09 93.50 138.18 92.17 137.25 Z" fill="#ad6c65" />
<path d="M 134.14 142.73 C 136.97 142.45 139.37 143.51 142.12 143.72 C 145.63 143.80 149.03 142.88 152.57 143.68 C 154.98 144.38 157.27 145.74 159.40 147.04 C 160.59 148.60 161.26 149.97 161.42 151.97 C 157.44 152.81 154.96 154.46 151.89 156.97 C 148.99 157.82 145.79 157.68 142.82 158.34 C 146.16 159.92 149.64 160.70 153.29 161.19 C 153.03 160.11 152.77 159.02 152.52 157.93 C 154.80 158.08 157.09 158.24 159.38 158.34 C 163.59 158.42 168.20 158.48 172.25 157.23 C 176.00 156.44 176.72 150.13 173.40 148.46 C 171.96 147.38 169.65 147.53 167.94 147.67 C 166.66 150.72 169.56 150.66 171.41 152.18 C 169.05 153.11 166.69 153.94 164.27 154.68 C 164.93 151.42 165.17 147.72 166.63 144.72 C 168.55 143.22 171.66 143.19 173.98 142.75 C 175.84 145.76 177.48 148.87 178.55 152.25 C 179.17 154.37 179.99 156.00 181.33 157.77 C 178.63 159.12 175.96 160.53 173.27 161.89 C 166.02 164.73 159.04 164.39 151.46 165.08 C 146.05 160.86 139.94 161.41 133.49 160.62 C 129.36 160.39 125.32 158.96 121.21 158.96 C 118.81 160.14 116.72 162.26 114.20 163.13 C 110.43 163.92 106.32 163.50 102.54 162.90 C 100.18 161.41 97.96 159.79 95.47 158.50 C 92.42 156.87 89.25 155.62 85.86 154.92 C 85.40 153.71 84.93 152.49 84.46 151.28 C 87.32 150.61 90.14 149.85 92.94 149.00 C 97.19 149.11 101.15 149.67 105.29 148.28 C 109.84 146.76 113.81 147.12 117.37 144.35 C 119.39 144.30 121.40 144.18 123.41 143.96 C 126.99 143.60 130.56 143.03 134.14 142.73 Z" fill="#32314a" />
<path d="M 182.62 142.45 C 183.04 143.38 183.46 144.30 183.87 145.23 C 184.53 148.46 184.03 149.70 182.26 152.30 C 183.03 152.38 183.81 152.46 184.59 152.55 C 183.80 154.14 183.00 155.73 182.18 157.32 L 181.33 157.77 C 179.99 156.00 179.17 154.37 178.55 152.25 C 180.28 149.09 181.55 145.89 182.62 142.45 Z" fill="#fbfbf9" />
<path d="M 117.37 144.35 C 113.81 147.12 109.84 146.76 105.29 148.28 C 101.15 149.67 97.19 149.11 92.94 149.00 C 100.48 145.65 109.20 144.73 117.37 144.35 Z" fill="#57444e" />
<path d="M 211.17 144.75 C 211.77 145.45 212.34 146.17 212.91 146.90 C 212.79 147.82 212.67 148.74 212.55 149.66 L 212.42 150.48 L 211.93 148.19 C 209.05 150.46 207.07 152.77 205.70 156.23 C 205.36 156.99 205.03 157.76 204.71 158.53 C 203.61 156.33 202.40 154.30 200.71 152.51 L 201.12 151.89 L 201.82 151.01 C 203.10 149.51 204.30 147.97 205.43 146.36 C 207.33 145.78 209.24 145.19 211.17 144.75 Z" fill="#7c7b82" />
<path d="M 211.93 148.19 L 212.42 150.48 C 212.11 152.74 211.72 155.00 211.22 157.23 C 209.37 156.96 207.53 156.63 205.70 156.23 C 207.07 152.77 209.05 150.46 211.93 148.19 Z" fill="#98918a" />
<path d="M 212.42 150.48 L 212.55 149.66 C 214.52 152.32 215.78 154.62 216.30 157.94 C 216.84 157.00 217.39 156.07 217.90 155.12 C 217.58 158.58 218.52 161.72 219.54 164.97 C 218.92 165.77 218.30 166.57 217.68 167.37 C 217.13 166.40 216.58 165.42 216.04 164.44 C 215.67 168.91 214.26 173.52 214.71 177.94 C 213.57 175.85 211.96 174.30 210.04 172.93 C 209.00 173.55 207.97 174.20 206.98 174.90 C 208.48 169.03 209.63 163.08 211.22 157.23 C 211.72 155.00 212.11 152.74 212.42 150.48 Z" fill="#5f5c68" />
<path d="M 201.12 151.89 L 200.71 152.51 C 197.79 157.17 197.24 162.32 193.13 166.31 C 194.27 162.73 195.19 159.17 195.88 155.48 C 196.16 154.44 196.30 153.00 197.24 152.33 C 198.51 152.07 199.83 152.02 201.12 151.89 Z" fill="#616170" />
<path d="M 73.49 151.85 C 77.58 153.06 81.67 154.11 85.86 154.92 C 89.25 155.62 92.42 156.87 95.47 158.50 C 94.34 159.12 93.75 160.02 92.36 159.51 C 89.15 158.58 86.11 157.14 82.91 156.16 C 88.30 160.68 94.96 161.58 100.71 165.44 C 96.93 165.28 93.44 164.14 89.87 163.00 C 92.00 164.61 94.14 166.21 96.25 167.85 C 94.33 168.71 92.35 169.40 90.37 170.11 C 86.90 166.34 83.20 163.55 78.51 161.44 C 76.85 158.11 74.71 155.27 73.49 151.85 Z" fill="#be918a" />
<path d="M 161.42 151.97 C 160.80 154.11 160.00 156.19 159.38 158.34 C 157.09 158.24 154.80 158.08 152.52 157.93 C 152.77 159.02 153.03 160.11 153.29 161.19 C 149.64 160.70 146.16 159.92 142.82 158.34 C 145.79 157.68 148.99 157.82 151.89 156.97 C 154.96 154.46 157.44 152.81 161.42 151.97 Z" fill="#515360" />
<path d="M 200.71 152.51 C 202.40 154.30 203.61 156.33 204.71 158.53 C 205.03 157.76 205.36 156.99 205.70 156.23 C 207.53 156.63 209.37 156.96 211.22 157.23 C 209.63 163.08 208.48 169.03 206.98 174.90 C 204.41 179.29 202.85 183.61 201.78 188.56 C 200.98 192.57 199.11 196.11 197.89 199.97 C 197.36 201.70 196.85 203.44 196.33 205.17 C 194.77 196.70 195.61 188.49 196.59 180.02 C 195.51 185.25 194.17 190.34 192.69 195.47 C 191.09 201.84 193.02 207.52 195.91 213.14 L 194.23 213.42 C 197.64 215.77 203.32 218.17 202.60 223.18 C 202.08 224.98 201.69 226.80 199.86 227.73 C 195.90 229.77 190.46 229.31 186.10 230.04 C 179.07 231.15 172.10 231.78 165.00 230.85 C 159.06 230.10 153.50 232.17 147.61 231.49 C 141.88 231.03 136.23 229.10 130.65 229.52 C 122.45 230.03 114.67 231.14 106.41 230.58 C 102.09 230.29 97.65 230.33 93.39 229.67 C 93.02 228.73 92.65 227.79 92.28 226.86 C 85.77 225.79 78.91 225.19 72.79 223.01 C 70.25 222.16 67.65 221.76 65.01 221.37 C 64.59 220.03 64.23 218.67 63.57 217.43 C 60.27 217.16 56.57 217.79 53.36 216.97 C 52.60 216.04 51.88 215.06 51.21 214.06 C 52.05 213.94 52.89 213.83 53.72 213.73 C 60.63 213.76 67.46 213.54 74.34 214.30 C 77.41 214.58 80.13 213.71 82.99 212.78 C 80.55 212.40 78.10 212.02 75.67 211.58 C 78.48 210.77 81.27 210.15 84.21 210.18 C 87.86 210.24 91.42 210.59 95.06 210.22 C 98.36 210.05 101.66 210.01 104.96 209.91 C 103.20 210.60 101.44 211.30 99.69 212.03 C 108.37 214.94 114.89 210.91 123.27 209.29 C 124.55 209.17 125.84 209.06 127.13 208.97 C 130.42 208.75 133.71 208.74 137.01 208.75 C 144.12 208.85 151.09 208.06 158.21 208.83 C 159.43 208.94 160.66 209.05 161.89 209.15 C 163.49 209.28 165.10 209.39 166.71 209.45 C 170.78 209.65 174.86 209.71 178.94 209.73 C 178.35 202.71 180.07 195.94 178.95 188.92 C 182.59 180.49 187.09 173.22 193.13 166.31 C 197.24 162.32 197.79 157.17 200.71 152.51 Z" fill="#bcab9a" />
<path d="M 82.91 156.16 C 86.11 157.14 89.15 158.58 92.36 159.51 C 93.75 160.02 94.34 159.12 95.47 158.50 C 97.96 159.79 100.18 161.41 102.54 162.90 C 102.71 163.78 102.85 164.66 103.06 165.53 C 104.25 166.73 105.51 167.86 106.77 168.99 C 106.12 170.03 105.48 171.08 104.83 172.13 C 100.42 171.35 96.26 171.58 91.79 171.36 C 90.96 171.26 90.14 171.15 89.31 171.04 L 90.37 170.11 C 92.35 169.40 94.33 168.71 96.25 167.85 C 94.14 166.21 92.00 164.61 89.87 163.00 C 93.44 164.14 96.93 165.28 100.71 165.44 C 94.96 161.58 88.30 160.68 82.91 156.16 Z" fill="#926764" />
<path d="M 181.33 157.77 L 182.18 157.32 C 179.48 163.17 176.76 168.92 172.87 174.10 C 172.37 173.41 171.87 172.71 171.36 172.01 C 171.85 171.49 172.34 170.97 172.84 170.46 C 172.29 170.45 171.75 170.43 171.20 170.42 C 172.00 167.60 172.70 164.77 173.27 161.89 C 175.96 160.53 178.63 159.12 181.33 157.77 Z" fill="#e0e0dc" />
<path d="M 121.21 158.96 C 125.32 158.96 129.36 160.39 133.49 160.62 C 139.94 161.41 146.05 160.86 151.46 165.08 C 148.45 165.58 146.17 167.14 143.59 168.61 C 139.11 169.97 134.51 169.84 130.24 172.16 C 131.42 172.32 132.60 172.46 133.78 172.59 C 133.52 172.98 133.27 173.36 133.01 173.74 C 131.02 173.98 129.06 174.34 127.08 174.62 L 125.29 174.49 C 125.65 171.82 126.21 169.31 127.04 166.75 C 119.54 164.44 110.94 165.42 103.06 165.53 C 102.85 164.66 102.71 163.78 102.54 162.90 C 106.32 163.50 110.43 163.92 114.20 163.13 C 116.72 162.26 118.81 160.14 121.21 158.96 Z" fill="#42455c" />
<path d="M 34.35 160.85 C 35.65 160.65 37.04 160.72 38.35 160.74 C 36.59 164.58 34.78 166.94 31.09 169.11 C 31.86 166.37 32.63 163.15 34.35 160.85 Z" fill="#d6a79e" />
<path d="M 64.34 160.08 C 66.28 159.87 67.96 159.70 69.56 161.03 C 73.23 163.91 77.36 165.96 80.60 169.25 C 84.29 173.00 89.39 175.64 94.10 177.90 C 101.83 181.59 109.47 180.31 116.71 185.35 C 119.80 187.40 122.21 190.74 120.69 194.57 C 119.19 197.41 116.53 200.21 113.55 201.49 C 110.21 202.38 106.44 202.01 102.99 202.07 C 96.27 201.92 89.55 202.85 83.33 199.77 C 80.35 198.39 78.90 195.69 76.51 193.55 C 74.15 191.45 70.87 190.48 69.39 187.70 C 66.96 183.28 63.83 178.22 63.90 173.06 C 63.79 168.75 63.76 164.36 64.34 160.08 Z" fill="#faf9f8" />
<path d="M 173.27 161.89 C 172.70 164.77 172.00 167.60 171.20 170.42 C 171.75 170.43 172.29 170.45 172.84 170.46 C 172.34 170.97 171.85 171.49 171.36 172.01 C 167.02 176.85 164.10 182.66 161.73 188.66 C 162.76 189.49 163.81 190.31 164.84 191.14 C 163.95 193.09 163.09 195.04 162.23 197.01 C 160.52 200.87 159.41 204.79 158.21 208.83 C 151.09 208.06 144.12 208.85 137.01 208.75 C 133.71 208.74 130.42 208.75 127.13 208.97 C 128.65 203.95 130.37 199.01 131.97 194.02 C 133.21 190.19 133.19 186.31 133.83 182.40 C 134.34 178.48 138.24 175.77 140.91 173.20 C 138.28 173.38 135.64 173.52 133.01 173.74 C 133.27 173.36 133.52 172.98 133.78 172.59 C 132.60 172.46 131.42 172.32 130.24 172.16 C 134.51 169.84 139.11 169.97 143.59 168.61 C 146.17 167.14 148.45 165.58 151.46 165.08 C 159.04 164.39 166.02 164.73 173.27 161.89 Z" fill="#d5d3b4" />
<path d="M 127.04 166.75 C 126.21 169.31 125.65 171.82 125.29 174.49 C 118.35 174.13 111.60 173.99 104.83 172.13 C 105.48 171.08 106.12 170.03 106.77 168.99 C 105.51 167.86 104.25 166.73 103.06 165.53 C 110.94 165.42 119.54 164.44 127.04 166.75 Z" fill="#3e384e" />
<path d="M 52.24 171.98 C 52.91 171.50 53.57 171.03 54.25 170.57 C 55.44 173.91 56.70 177.20 57.62 180.63 C 57.55 182.76 57.51 184.88 57.85 187.00 C 59.45 190.29 61.06 193.56 62.33 196.99 C 61.17 196.18 60.02 195.36 58.87 194.53 C 59.68 196.50 60.46 198.48 61.27 200.45 C 58.41 198.12 55.33 196.25 51.87 194.94 C 51.23 193.29 50.52 191.66 49.85 190.03 C 52.27 191.21 54.64 192.44 56.99 193.75 C 55.60 189.02 53.79 184.11 53.50 179.17 C 53.64 179.96 53.81 180.76 53.99 181.55 C 54.83 181.27 55.67 180.99 56.50 180.69 C 55.53 178.55 54.34 176.54 53.10 174.56 C 52.80 173.70 52.50 172.85 52.24 171.98 Z" fill="#d0aea7" />
<path d="M 91.79 171.36 C 96.26 171.58 100.42 171.35 104.83 172.13 C 111.60 173.99 118.35 174.13 125.29 174.49 L 127.08 174.62 C 124.23 175.18 121.47 176.10 118.62 176.63 C 115.15 177.15 111.36 176.51 107.92 175.96 C 103.42 173.95 98.93 172.28 93.99 171.70 C 93.26 171.58 92.53 171.47 91.79 171.36 Z" fill="#b3918d" />
<path d="M 127.05 171.12 C 128.84 169.89 129.99 172.63 127.90 173.10 C 126.77 172.82 126.48 172.16 127.05 171.12 Z" fill="#8b8d9f" />
<path d="M 93.99 171.70 C 98.93 172.28 103.42 173.95 107.92 175.96 C 104.85 175.69 101.66 175.84 98.63 175.28 C 96.67 175.03 95.30 173.03 93.99 171.70 Z" fill="#dec2ba" />
<path d="M 210.04 172.93 C 211.96 174.30 213.57 175.85 214.71 177.94 C 215.51 179.70 216.34 181.31 216.57 183.27 C 217.17 190.18 216.81 197.02 216.06 203.90 C 216.91 202.09 217.74 200.28 218.65 198.50 C 219.13 200.36 219.54 202.24 219.99 204.11 C 223.17 201.63 223.35 198.95 223.77 195.22 C 224.76 195.24 225.75 195.26 226.73 195.28 C 226.91 198.53 226.56 201.78 226.64 205.02 C 227.47 207.17 229.18 209.40 229.30 211.71 C 226.16 213.82 222.44 214.58 219.31 216.63 C 217.64 218.34 216.27 220.21 214.79 222.09 C 210.49 221.28 206.72 221.97 202.60 223.18 C 203.32 218.17 197.64 215.77 194.23 213.42 L 195.91 213.14 C 196.86 212.99 197.81 212.83 198.76 212.66 C 197.85 208.44 197.27 204.29 197.89 199.97 C 199.11 196.11 200.98 192.57 201.78 188.56 C 202.85 183.61 204.41 179.29 206.98 174.90 C 207.97 174.20 209.00 173.55 210.04 172.93 Z" fill="#20233f" />
<path d="M 53.10 174.56 C 54.34 176.54 55.53 178.55 56.50 180.69 C 55.67 180.99 54.83 181.27 53.99 181.55 C 53.81 180.76 53.64 179.96 53.50 179.17 C 53.36 177.63 53.24 176.09 53.10 174.56 Z" fill="#eedad6" />
<path d="M 196.59 180.02 C 195.61 188.49 194.77 196.70 196.33 205.17 C 196.85 203.44 197.36 201.70 197.89 199.97 C 197.27 204.29 197.85 208.44 198.76 212.66 C 197.81 212.83 196.86 212.99 195.91 213.14 C 193.02 207.52 191.09 201.84 192.69 195.47 C 194.17 190.34 195.51 185.25 196.59 180.02 Z" fill="#937b63" />
<path d="M 57.62 180.63 C 58.54 182.98 59.49 185.32 60.37 187.69 C 59.53 187.46 58.69 187.23 57.85 187.00 C 57.51 184.88 57.55 182.76 57.62 180.63 Z" fill="#997b79" />
<path d="M 30.80 184.35 C 36.31 185.93 37.01 190.69 39.99 195.03 C 39.40 192.13 38.76 189.23 38.12 186.34 C 40.46 186.69 42.97 186.93 45.19 187.76 C 46.90 188.37 47.71 190.63 48.51 192.11 C 46.21 192.07 44.05 191.63 41.84 191.03 C 41.51 193.55 41.85 196.55 40.91 198.91 C 39.07 200.61 36.07 201.25 33.76 202.12 C 31.72 198.14 30.18 193.97 28.35 189.89 C 28.96 187.93 29.75 186.11 30.80 184.35 Z" fill="#d4aca4" />
<path d="M 23.88 188.80 C 25.19 189.87 26.48 190.94 27.68 192.14 C 29.75 197.14 31.86 202.12 34.01 207.09 C 32.95 207.62 31.89 208.13 30.84 208.67 C 28.00 201.60 23.68 196.73 23.88 188.80 Z" fill="#d8baaf" />
<path d="M 178.95 188.92 C 180.07 195.94 178.35 202.71 178.94 209.73 C 174.86 209.71 170.78 209.65 166.71 209.45 L 167.70 209.45 C 171.55 208.57 173.38 205.46 175.10 202.22 C 176.62 198.75 176.93 194.71 177.98 191.06 C 178.30 190.34 178.62 189.63 178.95 188.92 Z" fill="#6f7171" />
<path d="M 28.35 189.89 C 30.18 193.97 31.72 198.14 33.76 202.12 C 34.04 202.67 34.33 203.23 34.61 203.79 C 35.08 205.43 35.43 207.10 35.72 208.77 L 35.29 210.33 C 34.88 209.24 34.45 208.16 34.01 207.09 C 31.86 202.12 29.75 197.14 27.68 192.14 C 27.90 191.39 28.12 190.64 28.35 189.89 Z" fill="#967771" />
<path d="M 41.84 191.03 C 44.05 191.63 46.21 192.07 48.51 192.11 C 50.00 195.44 51.28 198.84 53.08 202.02 C 52.80 199.64 52.45 197.27 51.87 194.94 C 55.33 196.25 58.41 198.12 61.27 200.45 C 65.01 205.46 70.21 206.31 75.26 209.45 C 73.92 204.93 72.62 200.43 71.99 195.74 C 75.28 199.99 75.05 205.15 77.43 209.66 C 79.65 210.07 81.96 210.11 84.21 210.18 C 81.27 210.15 78.48 210.77 75.67 211.58 C 78.10 212.02 80.55 212.40 82.99 212.78 C 80.13 213.71 77.41 214.58 74.34 214.30 C 68.15 212.93 63.54 209.33 58.25 206.17 C 56.56 208.58 55.12 211.14 53.72 213.73 C 52.89 213.83 52.05 213.94 51.21 214.06 C 50.27 214.19 49.33 214.32 48.39 214.44 C 49.12 213.67 49.84 212.89 50.57 212.12 C 47.33 210.10 44.36 208.01 40.58 207.10 C 38.20 206.53 36.40 205.45 34.61 203.79 C 34.33 203.23 34.04 202.67 33.76 202.12 C 36.07 201.25 39.07 200.61 40.91 198.91 C 41.85 196.55 41.51 193.55 41.84 191.03 Z" fill="#dec4ba" />
<path d="M 177.98 191.06 C 176.93 194.71 176.62 198.75 175.10 202.22 C 173.38 205.46 171.55 208.57 167.70 209.45 C 168.67 206.70 169.72 203.98 170.81 201.27 C 169.51 201.73 168.20 202.18 166.90 202.63 L 167.28 201.20 C 167.58 200.09 167.88 198.97 168.17 197.86 C 168.53 196.82 168.86 195.23 169.85 194.61 C 172.32 193.03 175.22 192.02 177.98 191.06 Z" fill="#3b3d4f" />
<path d="M 162.23 197.01 C 162.67 197.49 163.11 197.98 163.53 198.48 C 164.47 197.98 165.41 197.48 166.35 196.98 C 166.96 197.27 167.56 197.56 168.17 197.86 C 167.88 198.97 167.58 200.09 167.28 201.20 C 165.74 204.04 163.82 206.58 161.89 209.15 C 160.66 209.05 159.43 208.94 158.21 208.83 C 159.41 204.79 160.52 200.87 162.23 197.01 Z" fill="#8a8c85" />
<path d="M 167.28 201.20 L 166.90 202.63 C 168.20 202.18 169.51 201.73 170.81 201.27 C 169.72 203.98 168.67 206.70 167.70 209.45 L 166.71 209.45 C 165.10 209.39 163.49 209.28 161.89 209.15 C 163.82 206.58 165.74 204.04 167.28 201.20 Z" fill="#595c65" />
<path d="M 40.58 207.10 C 44.36 208.01 47.33 210.10 50.57 212.12 C 49.84 212.89 49.12 213.67 48.39 214.44 C 45.46 214.76 42.15 214.83 39.40 213.63 C 37.75 212.62 36.77 210.36 35.72 208.77 C 35.43 207.10 35.08 205.43 34.61 203.79 C 36.40 205.45 38.20 206.53 40.58 207.10 Z" fill="#ecded6" />
<path d="M 58.25 206.17 C 63.54 209.33 68.15 212.93 74.34 214.30 C 67.46 213.54 60.63 213.76 53.72 213.73 C 55.12 211.14 56.56 208.58 58.25 206.17 Z" fill="#3f3b4d" />
<path d="M 35.72 208.77 C 36.77 210.36 37.75 212.62 39.40 213.63 C 42.15 214.83 45.46 214.76 48.39 214.44 C 49.33 214.32 50.27 214.19 51.21 214.06 C 51.88 215.06 52.60 216.04 53.36 216.97 C 56.57 217.79 60.27 217.16 63.57 217.43 C 64.23 218.67 64.59 220.03 65.01 221.37 C 67.65 221.76 70.25 222.16 72.79 223.01 C 78.91 225.19 85.77 225.79 92.28 226.86 C 92.65 227.79 93.02 228.73 93.39 229.67 C 86.48 228.02 79.68 226.43 72.52 226.51 C 65.81 226.59 59.63 224.89 53.02 224.00 C 48.07 223.42 43.62 219.96 38.99 217.95 C 35.83 216.88 36.00 213.02 35.29 210.33 L 35.72 208.77 Z" fill="#c8b8aa" />
<path d="M 123.27 209.29 C 114.89 210.91 108.37 214.94 99.69 212.03 C 101.44 211.30 103.20 210.60 104.96 209.91 C 101.66 210.01 98.36 210.05 95.06 210.22 C 104.55 208.28 113.31 209.72 123.27 209.29 Z" fill="#cabfb4" />
<path d="M 93.95 215.39 C 92.61 216.31 91.27 217.22 89.93 218.13 C 90.08 218.82 90.22 219.50 90.36 220.19 C 87.22 219.91 84.08 219.52 80.97 218.98 C 82.64 217.48 84.48 215.48 86.63 214.74 C 88.91 214.12 91.67 214.96 93.95 215.39 Z" fill="#9a7d66" />
<path d="M 105.51 217.50 C 112.32 217.81 119.12 218.17 125.92 218.77 C 132.18 219.37 138.32 218.92 144.53 220.07 C 133.83 221.67 122.83 221.74 112.02 221.75 C 105.52 221.41 99.01 220.55 92.52 219.88 C 93.21 218.88 93.88 217.81 94.68 216.89 C 98.25 216.58 101.93 217.40 105.51 217.50 Z" fill="#987c65" />
<path d="M 219.31 216.63 C 220.02 218.31 220.75 219.99 221.49 221.66 C 218.74 222.53 215.98 223.37 213.21 224.14 C 213.73 223.45 214.26 222.77 214.79 222.09 C 216.27 220.21 217.64 218.34 219.31 216.63 Z" fill="#bdbbba" />
<path d="M 164.24 218.45 C 165.65 218.48 166.62 219.24 167.83 219.85 C 162.84 221.63 157.77 221.42 152.63 220.48 C 156.29 218.80 160.25 218.33 164.24 218.45 Z" fill="#99836e" />
<path d="M 195.71 218.18 C 197.18 218.33 198.64 218.54 200.10 218.74 C 200.41 220.33 200.72 221.91 201.04 223.49 C 196.01 223.72 190.99 223.69 185.96 224.08 C 186.93 222.83 187.91 221.57 188.88 220.31 C 191.92 220.20 194.71 220.71 197.56 221.76 C 196.91 220.58 196.28 219.40 195.71 218.18 Z" fill="#2a2638" />
<path d="M 188.88 220.31 C 187.91 221.57 186.93 222.83 185.96 224.08 C 181.89 224.32 177.81 224.18 173.74 223.95 C 178.66 222.61 183.79 220.66 188.88 220.31 Z" fill="#5d575a" />
</svg>