<?xml version="1.0" encoding="UTF-8" standalone="no"?>
<!DOCTYPE svg PUBLIC "-//W3C//DTD SVG 1.1//EN" "http://www.w3.org/Graphics/SVG/1.1/DTD/svg11.dtd">
<svg xmlns="http://www.w3.org/2000/svg" version="1.1" viewBox="0 0 256 256" width="256.0pt" height="256.0pt">
<path d="M 0.00 0.00 L 256.00 0.00 L 256.00 256.00 L 0.00 256.00 L 0.00 0.00 Z" fill="#fefefd" />
<path d="M 100.55 14.47 C 107.88 16.71 115.40 17.97 122.72 20.23 C 132.65 22.90 140.09 18.45 150.01 18.86 C 158.66 18.67 165.16 22.24 173.64 20.65 C 180.31 19.57 185.96 15.37 192.45 15.52 C 196.08 15.65 199.73 15.85 202.46 18.54 C 209.67 25.43 211.19 35.09 217.47 42.52 C 221.47 47.52 226.43 50.38 231.45 54.17 C 231.53 55.83 231.63 57.49 231.76 59.14 C 233.83 60.90 235.70 62.09 235.87 65.07 C 237.79 74.62 235.05 83.07 231.93 91.97 C 229.36 99.12 224.92 105.03 223.42 112.63 C 221.47 118.36 223.04 124.13 225.76 129.30 C 229.52 134.75 234.15 139.59 237.12 145.86 C 238.43 148.78 239.15 151.91 240.37 154.88 C 244.10 163.08 244.77 172.73 242.34 181.40 C 239.53 192.07 238.29 203.37 239.63 214.36 C 240.20 220.33 240.77 226.02 237.24 231.26 C 234.67 234.86 232.15 239.22 227.86 240.91 C 219.37 244.64 209.45 246.17 200.29 244.52 C 195.44 243.02 190.36 242.35 185.68 240.41 C 187.83 239.13 189.95 237.80 192.09 236.50 C 197.45 235.42 202.88 235.35 208.32 235.80 C 216.38 235.54 223.38 238.12 230.75 233.71 C 231.64 232.05 231.64 229.84 231.83 228.00 C 232.17 222.01 233.47 216.17 234.07 210.20 C 228.68 210.32 223.29 210.06 217.90 210.28 C 217.75 209.13 217.62 207.98 217.49 206.84 C 220.21 205.08 222.16 202.70 224.51 200.53 C 225.93 199.16 227.35 198.04 228.13 196.16 C 231.08 189.13 235.03 183.57 235.72 175.70 C 236.06 169.38 236.18 162.33 233.48 156.47 C 232.02 152.84 229.46 150.12 228.79 146.17 C 228.07 146.16 227.35 146.15 226.64 146.15 C 226.09 141.18 220.29 138.27 216.58 135.67 C 216.20 134.92 215.87 134.16 215.58 133.38 C 214.89 129.69 212.42 127.60 210.54 124.58 C 209.97 119.09 212.10 113.05 213.90 107.91 C 216.05 104.29 217.40 100.49 219.16 96.67 C 219.90 95.05 220.52 93.39 221.11 91.72 C 222.52 91.38 223.91 90.96 225.30 90.54 C 226.08 84.44 227.91 79.03 227.82 72.85 C 227.67 67.14 229.09 61.80 230.23 56.26 C 226.06 57.39 222.00 58.85 217.86 60.05 C 215.73 60.81 214.49 59.07 213.37 57.58 C 211.35 54.50 209.90 51.03 208.16 47.79 C 205.51 42.94 203.98 37.74 200.81 33.16 C 200.55 34.81 200.32 36.47 200.03 38.12 C 199.51 35.36 199.07 32.59 198.89 29.78 C 198.99 28.87 199.08 27.95 199.17 27.04 C 199.23 25.28 199.14 23.52 199.04 21.76 C 197.16 21.48 195.28 21.14 193.39 20.94 C 192.78 22.10 192.22 23.29 191.59 24.44 C 187.09 25.45 183.94 28.75 179.28 29.43 C 178.88 31.02 178.50 32.61 178.11 34.21 C 176.77 34.50 175.44 34.79 174.10 35.07 C 169.68 34.17 165.37 32.57 161.23 30.79 L 159.95 30.01 C 157.79 27.98 155.81 25.76 153.69 23.68 C 153.37 25.17 153.07 26.66 152.78 28.16 C 151.87 28.33 150.97 28.51 150.06 28.70 C 147.19 27.45 144.46 26.52 141.30 26.48 C 142.69 29.18 144.03 31.90 145.15 34.73 C 144.24 35.85 143.30 37.38 141.97 38.01 C 140.70 38.26 139.42 38.28 138.13 38.32 C 136.91 36.62 135.67 34.26 133.68 33.39 C 129.36 31.41 124.16 30.59 119.52 29.67 L 118.50 28.71 C 118.16 27.30 117.88 25.88 117.56 24.46 C 115.96 25.47 114.42 26.55 112.87 27.63 C 114.30 29.00 115.79 30.17 117.46 31.23 C 121.20 34.03 123.47 38.91 126.20 42.66 C 128.50 46.64 131.32 50.07 133.04 54.38 C 134.60 62.08 136.27 69.76 138.23 77.38 C 136.14 75.86 135.68 73.60 134.66 71.36 C 133.76 69.16 132.67 67.07 131.41 65.05 C 130.90 65.71 130.39 66.38 129.89 67.05 C 128.93 63.14 127.39 59.41 126.46 55.49 C 125.58 51.60 123.53 48.48 122.05 44.81 C 120.88 41.34 117.69 41.58 115.26 38.82 C 110.28 33.64 105.65 28.51 99.34 24.87 C 95.39 24.01 91.72 24.56 88.22 26.63 C 86.33 24.90 84.79 23.58 82.04 23.78 C 78.48 24.08 74.57 22.45 71.29 23.48 C 72.93 24.56 74.64 25.54 76.34 26.52 L 75.38 27.33 C 71.82 26.30 69.22 23.98 65.70 26.58 C 64.73 27.14 63.77 27.70 62.80 28.27 C 61.08 29.28 59.44 30.39 57.77 31.49 C 59.60 32.70 61.41 33.93 63.18 35.22 C 59.79 36.50 56.43 37.73 52.80 38.12 C 50.44 38.30 48.63 39.31 46.67 40.53 C 41.23 43.31 37.37 46.29 33.44 50.99 C 34.22 51.64 35.02 52.28 35.82 52.90 C 39.36 54.66 43.23 55.86 46.90 57.36 C 48.82 58.13 50.75 58.81 52.72 59.41 C 55.43 60.36 57.97 60.78 59.99 62.99 C 63.42 66.60 67.00 69.11 71.42 71.37 C 71.85 71.65 72.27 71.95 72.69 72.25 C 73.82 73.84 74.86 75.51 75.92 77.15 C 75.58 78.23 75.26 79.31 74.94 80.40 C 71.78 78.35 68.60 75.53 64.99 74.37 C 61.05 73.27 58.02 71.02 53.73 71.14 L 52.31 71.08 C 50.08 71.33 47.89 71.77 45.70 72.27 C 45.14 72.39 44.58 72.52 44.03 72.65 C 43.20 72.79 42.45 73.22 41.78 73.95 C 39.95 75.43 37.96 76.63 35.97 77.87 L 34.69 78.70 C 33.05 79.79 31.78 80.90 31.12 82.81 C 28.69 89.42 25.73 95.67 24.50 102.37 C 23.38 108.22 24.03 114.65 24.54 120.58 C 25.03 124.16 26.55 127.17 27.97 130.43 C 29.02 133.09 30.14 135.69 31.37 138.27 C 32.27 140.46 33.39 142.48 34.73 144.41 C 35.71 146.89 36.07 149.20 37.77 151.27 C 41.26 155.66 44.07 160.46 47.15 165.13 C 48.21 166.39 49.36 167.57 50.54 168.73 C 52.53 171.04 54.52 173.24 57.15 174.85 C 61.63 177.56 65.73 180.22 70.87 181.48 C 76.94 183.00 82.58 185.71 88.58 187.39 C 92.03 188.43 95.49 187.80 99.25 187.94 C 102.22 188.25 105.18 188.31 108.16 188.22 C 107.34 187.23 106.52 186.25 105.70 185.27 C 107.90 184.68 110.09 184.04 112.28 183.38 C 110.61 185.62 108.43 188.24 107.88 191.04 C 108.31 194.10 109.92 197.06 111.03 199.94 C 104.08 195.57 97.17 198.19 89.48 195.53 C 86.22 194.45 83.33 192.31 80.04 191.39 C 74.72 192.24 71.94 199.52 69.78 203.79 C 72.56 203.37 75.12 203.18 77.48 201.48 C 79.37 200.33 81.56 198.07 83.89 198.34 C 86.31 199.07 88.19 200.79 90.79 201.22 C 95.86 202.20 101.07 202.61 106.23 202.83 C 109.46 202.87 112.50 202.22 114.13 199.14 C 115.45 195.64 114.47 191.27 115.93 187.85 C 118.30 184.25 121.41 181.10 124.12 177.75 C 125.03 181.54 125.85 185.34 126.73 189.14 C 125.20 189.38 123.68 189.65 122.15 189.88 C 123.38 186.63 125.22 184.45 123.25 180.96 C 119.99 184.42 118.82 188.97 118.59 193.60 C 120.47 197.30 125.06 198.14 128.71 196.89 C 131.47 195.60 133.90 193.21 136.19 191.23 C 138.60 190.10 141.79 192.16 144.25 192.62 L 144.59 192.75 C 145.80 193.52 147.05 194.20 148.42 194.65 C 151.28 195.51 154.19 196.46 157.13 196.99 C 158.88 199.51 160.17 201.99 161.26 204.86 C 151.00 204.90 142.15 202.70 131.99 204.97 C 126.49 206.48 121.01 204.90 115.56 206.43 C 109.00 208.15 102.54 207.97 95.85 208.68 C 89.78 209.24 83.80 209.55 77.80 208.25 C 73.43 207.44 69.21 206.83 65.16 204.85 C 60.37 202.48 55.44 200.43 50.56 198.23 C 46.24 196.26 43.42 193.06 39.68 190.34 C 37.36 188.64 34.81 187.83 32.16 186.82 C 31.00 185.81 29.87 184.77 28.72 183.74 C 28.36 183.42 28.01 183.10 27.65 182.77 C 26.95 183.06 26.25 183.34 25.55 183.62 C 25.73 182.55 25.90 181.48 26.08 180.40 C 31.22 180.37 34.23 179.52 38.62 176.85 C 37.85 168.83 34.41 162.23 30.86 155.14 C 24.54 144.53 19.48 132.68 17.44 120.45 C 16.03 114.89 16.77 109.59 17.03 103.96 C 17.33 95.56 20.47 87.19 25.33 80.37 C 28.27 76.06 30.63 71.34 32.62 66.53 C 34.27 62.77 33.25 59.02 33.02 55.04 C 32.81 51.95 32.23 48.97 31.37 45.99 C 32.76 43.23 34.06 40.30 35.89 37.80 C 37.64 35.65 40.23 34.09 42.40 32.38 C 47.66 28.24 53.23 24.56 58.68 20.69 C 70.52 12.33 86.79 11.07 100.55 14.47 Z" fill="#f4f3f1" />
<path d="M 193.39 20.94 C 195.28 21.14 197.16 21.48 199.04 21.76 C 199.14 23.52 199.23 25.28 199.17 27.04 C 198.15 25.95 197.12 24.86 196.05 23.81 C 192.99 27.69 190.75 31.88 189.81 36.77 C 185.86 36.42 182.02 36.98 178.08 37.15 C 183.06 33.26 187.86 29.65 191.59 24.44 C 192.22 23.29 192.78 22.10 193.39 20.94 Z" fill="#e5c88a" />
<path d="M 75.33 21.47 C 76.81 21.01 78.51 20.47 80.05 20.85 C 80.92 21.28 80.92 21.72 80.04 22.15 C 78.41 22.52 76.80 22.25 75.33 21.47 Z" fill="#3a3a49" />
<path d="M 82.42 21.38 C 83.45 20.13 85.75 21.50 83.92 22.57 C 82.77 22.69 82.27 22.29 82.42 21.38 Z" fill="#292939" />
<path d="M 93.15 22.01 L 93.86 21.56 L 94.60 21.93 L 94.62 22.76 L 93.91 23.22 L 93.17 22.85 L 93.15 22.01 Z" fill="#404041" />
<path d="M 96.20 22.16 L 96.93 21.76 L 97.66 22.18 L 97.67 23.00 L 96.95 23.40 L 96.21 22.99 L 96.20 22.16 Z" fill="#454453" />
<path d="M 82.04 23.78 C 84.79 23.58 86.33 24.90 88.22 26.63 C 91.72 24.56 95.39 24.01 99.34 24.87 C 105.65 28.51 110.28 33.64 115.26 38.82 C 117.69 41.58 120.88 41.34 122.05 44.81 C 123.53 48.48 125.58 51.60 126.46 55.49 C 127.39 59.41 128.93 63.14 129.89 67.05 C 130.31 68.67 130.74 70.27 131.21 71.87 C 131.63 74.78 131.93 77.79 131.69 80.72 C 131.28 84.75 128.69 88.18 126.38 91.35 C 125.00 93.08 123.66 95.06 121.88 96.38 C 118.96 96.48 115.92 95.03 113.10 94.29 C 116.89 98.39 118.76 103.30 121.36 108.15 C 120.61 108.79 119.84 109.42 119.06 110.02 C 116.04 111.92 113.67 113.95 109.88 113.70 C 110.51 112.05 111.13 110.39 111.76 108.74 C 113.40 107.63 114.87 106.34 116.35 105.05 C 114.86 102.47 113.21 100.07 111.06 97.99 C 108.12 94.91 104.72 92.33 101.86 89.15 C 100.53 87.87 99.13 85.83 97.29 85.33 C 93.82 84.31 90.47 84.53 86.93 84.80 C 83.58 85.10 81.30 83.21 78.63 81.55 C 82.24 81.65 86.19 82.31 89.74 81.57 C 92.91 80.51 95.77 78.91 99.13 78.41 C 104.72 79.15 106.91 84.54 112.44 85.07 C 112.45 81.01 111.96 77.63 114.96 74.39 C 116.57 72.52 119.12 70.36 119.70 67.91 C 119.52 64.63 117.73 61.30 116.31 58.39 C 114.67 54.89 111.23 52.33 108.61 49.41 C 105.22 46.05 101.90 41.57 97.76 39.22 C 94.47 39.46 91.21 41.22 87.77 41.41 C 80.27 40.92 73.28 38.77 68.43 32.71 C 66.92 30.66 65.05 29.41 62.80 28.27 C 63.77 27.70 64.73 27.14 65.70 26.58 C 68.90 28.02 72.10 29.49 75.27 30.99 C 75.29 29.77 75.31 28.55 75.38 27.33 L 76.34 26.52 C 74.64 25.54 72.93 24.56 71.29 23.48 C 74.57 22.45 78.48 24.08 82.04 23.78 Z" fill="#22223e" />
<path d="M 117.56 24.46 C 117.88 25.88 118.16 27.30 118.50 28.71 C 118.15 29.55 117.81 30.39 117.46 31.23 C 115.79 30.17 114.30 29.00 112.87 27.63 C 114.42 26.55 115.96 25.47 117.56 24.46 Z" fill="#afafad" />
<path d="M 153.69 23.68 C 155.81 25.76 157.79 27.98 159.95 30.01 C 157.86 29.23 155.70 28.53 153.51 28.14 L 152.78 28.16 C 153.07 26.66 153.37 25.17 153.69 23.68 Z" fill="#c5c2b6" />
<path d="M 196.05 23.81 C 197.12 24.86 198.15 25.95 199.17 27.04 C 199.08 27.95 198.99 28.87 198.89 29.78 C 198.27 34.19 198.06 38.61 197.83 43.05 C 197.50 50.08 196.24 57.00 195.91 64.03 C 195.70 68.96 194.86 73.79 193.99 78.63 C 192.38 77.44 190.78 76.24 189.29 74.90 C 188.81 74.46 188.33 74.01 187.85 73.57 C 190.48 64.70 188.55 56.78 188.74 47.82 C 188.81 46.02 188.94 44.23 189.11 42.44 C 189.29 40.54 189.49 38.65 189.81 36.77 C 190.75 31.88 192.99 27.69 196.05 23.81 Z" fill="#a68e5f" />
<path d="M 75.38 27.33 C 75.31 28.55 75.29 29.77 75.27 30.99 C 72.10 29.49 68.90 28.02 65.70 26.58 C 69.22 23.98 71.82 26.30 75.38 27.33 Z" fill="#707172" />
<path d="M 191.59 24.44 C 187.86 29.65 183.06 33.26 178.08 37.15 C 182.02 36.98 185.86 36.42 189.81 36.77 C 189.49 38.65 189.29 40.54 189.11 42.44 C 187.21 44.06 185.25 45.57 183.22 47.02 C 182.91 45.64 182.62 44.26 182.30 42.88 C 180.36 41.87 178.49 40.75 176.59 39.68 C 174.35 39.85 172.11 40.37 169.90 40.80 C 170.93 38.54 172.06 36.58 174.10 35.07 C 175.44 34.79 176.77 34.50 178.11 34.21 C 178.50 32.61 178.88 31.02 179.28 29.43 C 183.94 28.75 187.09 25.45 191.59 24.44 Z" fill="#f2e9d5" />
<path d="M 150.06 28.70 C 150.97 28.51 151.87 28.33 152.78 28.16 L 153.51 28.14 C 152.90 29.77 152.34 31.29 152.83 33.05 C 154.15 38.41 156.82 43.36 158.33 48.68 C 159.67 53.40 161.30 57.70 163.39 62.13 C 163.45 68.66 157.31 74.41 152.40 77.97 C 150.36 76.27 148.31 74.58 146.26 72.90 C 145.76 69.88 144.95 67.95 143.04 65.57 L 142.62 64.95 C 143.28 63.34 143.94 61.72 144.61 60.11 C 145.00 61.81 145.38 63.51 145.77 65.21 C 147.19 65.70 148.62 66.19 150.04 66.68 C 149.53 68.13 149.19 69.65 148.73 71.12 C 150.57 71.26 152.42 71.42 154.26 71.55 C 152.75 68.25 151.04 65.19 149.03 62.17 C 151.29 61.29 153.56 60.41 155.82 59.53 C 151.74 54.59 150.84 48.78 150.03 42.63 C 149.75 40.82 150.55 39.48 151.21 37.87 C 150.68 37.15 150.15 36.44 149.61 35.72 C 150.05 33.84 150.48 31.95 150.85 30.06 C 148.01 31.07 146.79 32.27 145.15 34.73 C 144.03 31.90 142.69 29.18 141.30 26.48 C 144.46 26.52 147.19 27.45 150.06 28.70 Z" fill="#e5c27f" />
<path d="M 62.80 28.27 C 65.05 29.41 66.92 30.66 68.43 32.71 C 73.28 38.77 80.27 40.92 87.77 41.41 C 90.09 41.90 92.67 42.28 94.78 43.41 C 96.92 44.91 98.55 47.26 100.15 49.31 C 98.69 49.69 96.82 49.46 96.01 50.95 C 94.65 52.90 93.75 55.24 92.77 57.40 C 89.60 53.84 86.39 50.43 82.43 47.74 C 79.77 45.46 77.32 43.25 73.94 42.08 C 73.11 40.81 72.27 39.55 71.45 38.27 C 70.36 38.83 69.27 39.39 68.18 39.94 C 66.26 38.77 64.20 37.25 61.99 36.73 C 58.59 36.53 56.22 40.26 54.31 42.59 C 55.05 43.31 55.78 44.02 56.52 44.74 C 54.66 45.70 52.55 46.61 50.98 48.01 C 49.10 49.87 47.98 52.66 47.22 55.15 C 46.46 54.84 45.70 54.52 44.94 54.19 C 44.78 51.67 44.23 48.66 45.06 46.23 C 46.13 44.18 48.02 42.46 49.58 40.78 C 48.61 40.69 47.64 40.60 46.67 40.53 C 48.63 39.31 50.44 38.30 52.80 38.12 C 56.43 37.73 59.79 36.50 63.18 35.22 C 61.41 33.93 59.60 32.70 57.77 31.49 C 59.44 30.39 61.08 29.28 62.80 28.27 Z" fill="#e8cc93" />
<path d="M 153.51 28.14 C 155.70 28.53 157.86 29.23 159.95 30.01 L 161.23 30.79 C 162.88 33.67 164.11 36.57 164.12 39.95 C 164.22 45.83 164.78 51.49 166.21 57.20 L 166.38 57.98 C 165.64 59.89 164.82 61.76 163.99 63.62 L 163.39 62.13 C 161.30 57.70 159.67 53.40 158.33 48.68 C 156.82 43.36 154.15 38.41 152.83 33.05 C 152.34 31.29 152.90 29.77 153.51 28.14 Z" fill="#a68b5a" />
<path d="M 101.74 30.06 C 101.62 32.28 101.36 34.51 101.10 36.72 C 99.37 36.70 97.34 36.97 95.70 36.35 C 94.08 35.75 93.87 33.88 93.29 32.47 C 94.10 32.49 94.90 32.50 95.71 32.50 C 96.16 31.60 96.61 30.70 97.07 29.81 C 98.63 29.81 100.19 29.89 101.74 30.06 Z" fill="#47454f" />
<path d="M 118.50 28.71 L 119.52 29.67 C 122.20 32.05 124.72 34.59 127.31 37.07 C 127.29 39.23 127.92 40.95 126.20 42.66 C 123.47 38.91 121.20 34.03 117.46 31.23 C 117.81 30.39 118.15 29.55 118.50 28.71 Z" fill="#171725" />
<path d="M 133.68 33.39 C 135.67 34.26 136.91 36.62 138.13 38.32 C 137.43 39.21 136.72 40.10 136.02 40.99 C 133.08 39.74 130.15 38.52 127.31 37.07 C 124.72 34.59 122.20 32.05 119.52 29.67 C 124.16 30.59 129.36 31.41 133.68 33.39 Z" fill="#b8b5b1" />
<path d="M 89.66 30.47 C 92.11 30.12 94.59 29.89 97.07 29.81 C 96.61 30.70 96.16 31.60 95.71 32.50 C 94.90 32.50 94.10 32.49 93.29 32.47 C 92.08 31.80 90.87 31.13 89.66 30.47 Z" fill="#8f9090" />
<path d="M 150.85 30.06 C 150.48 31.95 150.05 33.84 149.61 35.72 C 150.15 36.44 150.68 37.15 151.21 37.87 C 150.55 39.48 149.75 40.82 150.03 42.63 C 150.84 48.78 151.74 54.59 155.82 59.53 C 153.56 60.41 151.29 61.29 149.03 62.17 C 151.04 65.19 152.75 68.25 154.26 71.55 C 152.42 71.42 150.57 71.26 148.73 71.12 C 149.19 69.65 149.53 68.13 150.04 66.68 C 148.62 66.19 147.19 65.70 145.77 65.21 C 145.38 63.51 145.00 61.81 144.61 60.11 C 143.94 61.72 143.28 63.34 142.62 64.95 C 140.27 60.52 141.58 56.46 140.92 51.84 C 139.60 48.05 136.86 45.05 136.02 40.99 C 136.72 40.10 137.43 39.21 138.13 38.32 C 139.42 38.28 140.70 38.26 141.97 38.01 C 143.30 37.38 144.24 35.85 145.15 34.73 C 146.79 32.27 148.01 31.07 150.85 30.06 Z" fill="#e0b35f" />
<path d="M 198.89 29.78 C 199.07 32.59 199.51 35.36 200.03 38.12 C 200.32 36.47 200.55 34.81 200.81 33.16 C 203.98 37.74 205.51 42.94 208.16 47.79 C 209.90 51.03 211.35 54.50 213.37 57.58 C 214.49 59.07 215.73 60.81 217.86 60.05 C 222.00 58.85 226.06 57.39 230.23 56.26 C 229.09 61.80 227.67 67.14 227.82 72.85 L 225.99 73.15 C 226.52 70.83 226.80 68.47 227.06 66.11 C 224.90 70.04 222.69 73.95 220.48 77.85 C 215.17 76.16 210.89 80.29 206.06 82.08 C 205.75 74.90 206.93 68.23 205.61 61.06 C 205.42 59.58 205.02 59.03 203.77 58.26 C 201.82 58.77 199.89 59.95 200.39 62.26 C 201.18 63.81 202.48 65.15 203.57 66.50 C 202.85 69.98 202.35 73.78 200.83 77.00 C 199.32 78.75 196.11 78.42 193.99 78.63 C 194.86 73.79 195.70 68.96 195.91 64.03 C 196.24 57.00 197.50 50.08 197.83 43.05 C 198.06 38.61 198.27 34.19 198.89 29.78 Z" fill="#e4c27f" />
<path d="M 161.23 30.79 C 165.37 32.57 169.68 34.17 174.10 35.07 C 172.06 36.58 170.93 38.54 169.90 40.80 C 171.94 43.39 173.98 45.98 176.04 48.55 C 177.61 48.12 179.19 47.69 180.76 47.26 C 181.77 49.70 182.56 52.66 184.31 54.67 C 185.46 55.24 186.67 55.72 187.86 56.20 C 187.05 54.18 186.19 52.19 185.29 50.21 C 186.44 49.41 187.59 48.61 188.74 47.82 C 188.55 56.78 190.48 64.70 187.85 73.57 C 185.44 71.28 182.83 69.82 181.10 67.03 C 178.56 62.81 176.01 58.89 175.01 54.02 C 174.34 50.79 173.43 47.78 171.57 45.03 C 169.89 49.14 168.28 53.26 166.21 57.20 C 164.78 51.49 164.22 45.83 164.12 39.95 C 164.11 36.57 162.88 33.67 161.23 30.79 Z" fill="#e8c98f" />
<path d="M 108.32 35.50 C 109.67 34.50 111.50 36.46 110.48 37.76 C 109.12 38.78 107.25 36.82 108.32 35.50 Z" fill="#535566" />
<path d="M 61.99 36.73 C 64.20 37.25 66.26 38.77 68.18 39.94 C 69.27 39.39 70.36 38.83 71.45 38.27 C 72.27 39.55 73.11 40.81 73.94 42.08 C 77.32 43.25 79.77 45.46 82.43 47.74 C 81.27 48.27 80.12 48.81 78.97 49.36 C 81.22 53.53 85.01 55.49 88.20 58.79 C 91.55 62.44 95.85 63.96 98.17 68.58 C 98.71 68.25 99.25 67.93 99.79 67.60 C 99.80 68.95 99.81 70.30 99.82 71.65 C 100.82 71.28 101.82 70.90 102.82 70.53 C 102.72 71.53 102.62 72.53 102.51 73.52 C 104.40 73.86 106.28 74.21 108.16 74.59 C 108.57 75.23 108.98 75.87 109.38 76.52 C 110.92 75.29 112.48 74.08 114.06 72.90 L 114.96 74.39 C 111.96 77.63 112.45 81.01 112.44 85.07 C 106.91 84.54 104.72 79.15 99.13 78.41 L 97.79 78.04 C 94.32 75.80 91.03 72.00 87.06 70.86 C 82.48 69.46 77.21 71.17 72.69 72.25 C 72.27 71.95 71.85 71.65 71.42 71.37 C 71.52 70.07 71.62 68.78 71.57 67.47 C 69.52 64.34 66.03 62.02 62.94 59.99 C 59.84 57.98 55.99 57.49 52.72 59.41 C 50.75 58.81 48.82 58.13 46.90 57.36 C 47.00 56.62 47.10 55.89 47.22 55.15 C 47.98 52.66 49.10 49.87 50.98 48.01 C 52.55 46.61 54.66 45.70 56.52 44.74 C 55.78 44.02 55.05 43.31 54.31 42.59 C 56.22 40.26 58.59 36.53 61.99 36.73 Z" fill="#ddac52" />
<path d="M 127.31 37.07 C 130.15 38.52 133.08 39.74 136.02 40.99 C 136.86 45.05 139.60 48.05 140.92 51.84 C 141.58 56.46 140.27 60.52 142.62 64.95 L 143.04 65.57 L 141.26 66.10 C 139.75 60.15 137.31 54.53 133.40 49.75 C 133.40 50.78 133.40 51.81 133.41 52.83 L 133.04 54.38 C 131.32 50.07 128.50 46.64 126.20 42.66 C 127.92 40.95 127.29 39.23 127.31 37.07 Z" fill="#9f7e3b" />
<path d="M 97.76 39.22 C 101.90 41.57 105.22 46.05 108.61 49.41 C 111.23 52.33 114.67 54.89 116.31 58.39 C 117.73 61.30 119.52 64.63 119.70 67.91 C 119.12 70.36 116.57 72.52 114.96 74.39 L 114.06 72.90 C 116.02 72.23 116.99 71.14 117.28 69.07 C 117.34 68.75 117.41 68.42 117.47 68.10 C 114.03 66.02 111.80 62.95 109.10 60.07 C 107.26 61.79 105.01 63.70 103.98 66.03 C 104.22 67.05 104.50 68.06 104.82 69.06 C 108.76 68.56 112.67 68.35 116.61 68.98 C 114.99 69.93 114.30 71.06 114.06 72.90 C 112.48 74.08 110.92 75.29 109.38 76.52 C 108.98 75.87 108.57 75.23 108.16 74.59 C 104.41 69.38 100.68 64.59 98.78 58.32 C 100.18 56.63 101.54 54.93 102.91 53.22 C 102.00 51.91 101.07 50.61 100.15 49.31 C 98.55 47.26 96.92 44.91 94.78 43.41 C 92.67 42.28 90.09 41.90 87.77 41.41 C 91.21 41.22 94.47 39.46 97.76 39.22 Z" fill="#ebdebd" />
<path d="M 176.59 39.68 C 178.49 40.75 180.36 41.87 182.30 42.88 C 182.62 44.26 182.91 45.64 183.22 47.02 C 185.25 45.57 187.21 44.06 189.11 42.44 C 188.94 44.23 188.81 46.02 188.74 47.82 C 187.59 48.61 186.44 49.41 185.29 50.21 C 186.19 52.19 187.05 54.18 187.86 56.20 C 186.67 55.72 185.46 55.24 184.31 54.67 C 182.56 52.66 181.77 49.70 180.76 47.26 C 179.19 47.69 177.61 48.12 176.04 48.55 C 173.98 45.98 171.94 43.39 169.90 40.80 C 172.11 40.37 174.35 39.85 176.59 39.68 Z" fill="#ecd6aa" />
<path d="M 46.67 40.53 C 47.64 40.60 48.61 40.69 49.58 40.78 C 48.02 42.46 46.13 44.18 45.06 46.23 C 44.23 48.66 44.78 51.67 44.94 54.19 C 41.94 52.84 39.01 51.32 36.04 49.91 C 35.96 50.91 35.89 51.91 35.82 52.90 C 35.02 52.28 34.22 51.64 33.44 50.99 C 37.37 46.29 41.23 43.31 46.67 40.53 Z" fill="#dfba6b" />
<path d="M 90.20 42.68 C 89.12 44.34 88.01 45.98 86.87 47.61 C 85.63 46.39 84.41 45.15 83.22 43.88 C 85.52 43.14 87.80 42.79 90.20 42.68 Z" fill="#dbaa4f" />
<path d="M 171.57 45.03 C 173.43 47.78 174.34 50.79 175.01 54.02 C 176.01 58.89 178.56 62.81 181.10 67.03 C 182.83 69.82 185.44 71.28 187.85 73.57 C 188.33 74.01 188.81 74.46 189.29 74.90 C 188.41 78.09 187.80 81.32 187.26 84.58 C 184.74 84.40 182.63 84.16 180.87 82.13 C 178.60 79.37 177.61 75.53 175.90 72.40 C 174.22 74.97 172.85 77.64 171.72 80.50 C 168.99 73.16 168.38 65.49 166.38 57.98 L 166.21 57.20 C 168.28 53.26 169.89 49.14 171.57 45.03 Z" fill="#e36963" />
<path d="M 82.43 47.74 C 86.39 50.43 89.60 53.84 92.77 57.40 C 93.75 55.24 94.65 52.90 96.01 50.95 C 96.82 49.46 98.69 49.69 100.15 49.31 C 101.07 50.61 102.00 51.91 102.91 53.22 C 101.54 54.93 100.18 56.63 98.78 58.32 C 100.68 64.59 104.41 69.38 108.16 74.59 C 106.28 74.21 104.40 73.86 102.51 73.52 C 102.62 72.53 102.72 71.53 102.82 70.53 C 101.82 70.90 100.82 71.28 99.82 71.65 C 99.81 70.30 99.80 68.95 99.79 67.60 C 99.25 67.93 98.71 68.25 98.17 68.58 C 95.85 63.96 91.55 62.44 88.20 58.79 C 85.01 55.49 81.22 53.53 78.97 49.36 C 80.12 48.81 81.27 48.27 82.43 47.74 Z" fill="#e1b564" />
<path d="M 36.04 49.91 C 39.01 51.32 41.94 52.84 44.94 54.19 C 45.70 54.52 46.46 54.84 47.22 55.15 C 47.10 55.89 47.00 56.62 46.90 57.36 C 43.23 55.86 39.36 54.66 35.82 52.90 C 35.89 51.91 35.96 50.91 36.04 49.91 Z" fill="#877660" />
<path d="M 133.40 49.75 C 137.31 54.53 139.75 60.15 141.26 66.10 L 139.72 67.35 C 139.02 65.81 138.23 64.33 137.47 62.83 C 136.35 59.39 135.03 56.08 133.41 52.83 C 133.40 51.81 133.40 50.78 133.40 49.75 Z" fill="#d8b275" />
<path d="M 133.41 52.83 C 135.03 56.08 136.35 59.39 137.47 62.83 C 137.67 67.31 138.93 71.50 140.16 75.77 C 140.76 78.30 141.68 80.53 140.57 83.08 L 140.13 83.88 C 139.42 81.73 138.87 79.54 138.23 77.38 C 136.27 69.76 134.60 62.08 133.04 54.38 L 133.41 52.83 Z" fill="#7b605d" />
<path d="M 62.94 59.99 C 66.03 62.02 69.52 64.34 71.57 67.47 C 71.62 68.78 71.52 70.07 71.42 71.37 C 67.00 69.11 63.42 66.60 59.99 62.99 C 57.97 60.78 55.43 60.36 52.72 59.41 C 55.99 57.49 59.84 57.98 62.94 59.99 Z" fill="#7d6e67" />
<path d="M 166.38 57.98 C 168.38 65.49 168.99 73.16 171.72 80.50 C 171.80 83.41 171.89 86.33 171.82 89.23 L 171.77 90.13 C 171.28 88.69 170.79 87.25 170.32 85.79 C 168.08 78.44 166.00 71.04 163.99 63.62 C 164.82 61.76 165.64 59.89 166.38 57.98 Z" fill="#a44743" />
<path d="M 203.77 58.26 C 205.02 59.03 205.42 59.58 205.61 61.06 C 206.93 68.23 205.75 74.90 206.06 82.08 C 210.89 80.29 215.17 76.16 220.48 77.85 C 218.31 82.51 216.45 87.28 213.95 91.79 L 213.16 93.16 C 208.95 95.51 204.72 97.39 199.79 97.16 C 200.14 94.19 200.88 92.12 198.26 90.02 C 197.13 90.76 196.01 91.51 194.90 92.26 C 193.59 91.99 192.31 91.64 191.00 91.39 C 191.30 89.93 191.63 88.48 192.03 87.04 C 192.88 84.28 193.59 81.50 193.99 78.63 C 196.11 78.42 199.32 78.75 200.83 77.00 C 202.35 73.78 202.85 69.98 203.57 66.50 C 202.48 65.15 201.18 63.81 200.39 62.26 C 199.89 59.95 201.82 58.77 203.77 58.26 Z" fill="#e27666" />
<path d="M 109.10 60.07 C 111.80 62.95 114.03 66.02 117.47 68.10 C 117.41 68.42 117.34 68.75 117.28 69.07 L 116.61 68.98 C 112.67 68.35 108.76 68.56 104.82 69.06 C 104.50 68.06 104.22 67.05 103.98 66.03 C 105.01 63.70 107.26 61.79 109.10 60.07 Z" fill="#deb057" />
<path d="M 163.39 62.13 L 163.99 63.62 C 166.00 71.04 168.08 78.44 170.32 85.79 C 168.42 88.11 166.52 90.32 163.97 91.95 C 160.53 92.11 156.69 92.60 153.33 91.74 C 151.62 90.37 151.77 86.54 151.39 84.44 C 150.48 84.03 149.57 83.62 148.66 83.21 C 147.82 79.77 146.83 76.40 146.26 72.90 C 148.31 74.58 150.36 76.27 152.40 77.97 C 157.31 74.41 163.45 68.66 163.39 62.13 Z" fill="#e36a63" />
<path d="M 137.47 62.83 C 138.23 64.33 139.02 65.81 139.72 67.35 C 141.66 72.52 143.42 77.76 145.35 82.94 C 146.60 86.60 147.78 90.27 149.27 93.85 C 148.17 92.90 147.03 91.99 145.89 91.10 C 146.84 94.21 147.85 97.29 148.55 100.47 C 146.60 98.24 145.01 95.85 144.02 93.04 C 143.18 89.60 142.21 86.23 140.57 83.08 C 141.68 80.53 140.76 78.30 140.16 75.77 C 138.93 71.50 137.67 67.31 137.47 62.83 Z" fill="#201e33" />
<path d="M 131.41 65.05 C 132.67 67.07 133.76 69.16 134.66 71.36 C 135.68 73.60 136.14 75.86 138.23 77.38 C 138.87 79.54 139.42 81.73 140.13 83.88 C 136.79 80.20 134.02 75.96 131.21 71.87 C 130.74 70.27 130.31 68.67 129.89 67.05 C 130.39 66.38 130.90 65.71 131.41 65.05 Z" fill="#c7b692" />
<path d="M 141.26 66.10 L 143.04 65.57 C 144.95 67.95 145.76 69.88 146.26 72.90 C 146.83 76.40 147.82 79.77 148.66 83.21 C 148.83 84.41 148.98 85.62 149.11 86.83 C 148.31 85.48 147.53 84.10 146.66 82.78 L 145.35 82.94 C 143.42 77.76 141.66 72.52 139.72 67.35 L 141.26 66.10 Z" fill="#b65851" />
<path d="M 227.06 66.11 C 226.80 68.47 226.52 70.83 225.99 73.15 C 222.54 78.81 220.85 85.16 220.21 91.72 C 219.10 91.71 217.99 91.68 216.88 91.68 C 215.90 91.70 214.93 91.74 213.95 91.79 C 216.45 87.28 218.31 82.51 220.48 77.85 C 222.69 73.95 224.90 70.04 227.06 66.11 Z" fill="#aa4c45" />
<path d="M 116.61 68.98 L 117.28 69.07 C 116.99 71.14 116.02 72.23 114.06 72.90 C 114.30 71.06 114.99 69.93 116.61 68.98 Z" fill="#6e624e" />
<path d="M 87.06 70.86 C 91.03 72.00 94.32 75.80 97.79 78.04 C 95.39 77.58 93.32 76.81 90.99 78.03 C 88.70 78.85 85.76 80.91 83.29 80.41 C 81.10 78.66 79.21 76.57 76.99 74.84 C 76.62 75.60 76.26 76.37 75.92 77.15 C 74.86 75.51 73.82 73.84 72.69 72.25 C 77.21 71.17 82.48 69.46 87.06 70.86 Z" fill="#a48a62" />
<path d="M 52.31 71.08 C 52.38 71.77 52.45 72.46 52.53 73.14 C 50.07 73.34 47.95 73.42 45.70 72.27 C 47.89 71.77 50.08 71.33 52.31 71.08 Z" fill="#9a5150" />
<path d="M 52.31 71.08 L 53.73 71.14 C 56.83 72.74 59.88 74.44 62.83 76.33 C 62.88 79.53 65.17 81.27 67.56 82.98 C 68.83 83.85 70.87 83.42 72.33 83.41 C 75.58 85.82 78.81 88.28 82.16 90.56 C 84.07 91.55 86.27 92.14 88.32 92.77 C 87.47 93.55 86.64 94.34 85.81 95.14 C 83.81 95.17 81.80 95.16 79.79 95.21 C 77.97 95.15 76.77 95.70 75.38 96.78 C 70.45 96.04 65.83 94.71 60.98 94.64 L 59.34 94.57 C 57.23 94.19 55.13 93.39 53.05 92.79 C 52.31 93.05 51.59 93.33 50.87 93.62 C 50.34 93.86 49.80 94.12 49.27 94.38 C 48.61 94.29 47.94 94.21 47.27 94.16 C 40.89 94.87 34.60 97.00 28.38 98.55 C 29.04 101.89 29.68 105.23 30.05 108.63 C 29.09 110.52 27.61 111.77 27.84 114.00 C 27.80 121.01 32.60 126.25 32.78 133.35 C 29.79 129.26 28.81 123.21 24.54 120.58 C 24.03 114.65 23.38 108.22 24.50 102.37 C 25.73 95.67 28.69 89.42 31.12 82.81 C 31.78 80.90 33.05 79.79 34.69 78.70 C 34.44 80.08 34.24 81.47 34.03 82.85 C 35.48 81.54 36.92 80.21 38.34 78.87 C 37.56 78.53 36.76 78.19 35.97 77.87 C 37.96 76.63 39.95 75.43 41.78 73.95 C 42.59 75.42 43.59 75.74 44.77 74.90 C 45.18 74.05 44.94 73.30 44.03 72.65 C 44.58 72.52 45.14 72.39 45.70 72.27 C 47.95 73.42 50.07 73.34 52.53 73.14 C 52.45 72.46 52.38 71.77 52.31 71.08 Z" fill="#e36a66" />
<path d="M 53.73 71.14 C 58.02 71.02 61.05 73.27 64.99 74.37 C 68.60 75.53 71.78 78.35 74.94 80.40 C 77.33 82.11 80.03 83.54 82.17 85.54 C 82.47 87.16 82.25 88.92 82.16 90.56 C 78.81 88.28 75.58 85.82 72.33 83.41 C 69.22 81.01 66.17 78.39 62.83 76.33 C 59.88 74.44 56.83 72.74 53.73 71.14 Z" fill="#23233d" />
<path d="M 131.21 71.87 C 134.02 75.96 136.79 80.20 140.13 83.88 C 140.11 86.83 140.25 89.71 139.65 92.63 C 138.98 95.45 140.18 97.62 140.85 100.29 C 142.32 107.13 142.15 114.46 142.34 121.43 C 138.16 121.87 134.12 123.00 129.94 123.42 C 128.53 123.53 127.33 124.09 126.12 124.78 C 124.80 126.64 123.72 128.68 122.33 130.50 C 121.11 131.89 119.09 132.52 117.87 133.91 C 116.74 136.24 117.36 139.27 117.63 141.75 C 119.54 139.64 121.36 137.46 123.11 135.22 C 123.51 135.80 123.91 136.39 124.31 136.98 C 123.32 140.87 122.36 144.28 119.45 147.21 L 118.81 146.53 C 116.32 142.87 112.60 145.56 109.35 146.47 C 108.26 146.86 107.20 147.30 106.15 147.76 L 104.73 148.43 C 103.38 148.86 102.02 149.28 100.67 149.72 C 99.83 149.49 99.17 149.77 98.70 150.55 C 98.16 150.93 97.61 151.30 97.05 151.66 C 94.09 152.21 92.14 151.90 90.72 155.01 C 90.20 154.27 89.68 153.54 89.13 152.81 C 88.29 151.69 87.43 150.58 86.54 149.49 C 88.87 148.07 91.37 147.00 93.74 145.66 C 96.28 144.21 98.09 141.83 100.73 140.80 C 104.66 139.16 108.44 139.55 111.55 136.18 C 107.53 136.17 103.36 135.98 99.62 137.69 C 96.54 138.88 93.37 141.23 90.04 141.14 C 85.78 141.02 80.99 140.75 77.06 138.95 C 74.51 136.63 73.55 132.59 70.81 130.26 C 68.59 128.41 66.12 126.89 63.91 125.01 L 63.69 124.12 C 70.00 124.32 74.07 127.79 79.38 130.54 C 83.10 132.75 88.48 131.70 92.72 131.76 C 93.78 133.14 94.85 134.52 95.93 135.90 C 97.23 135.16 98.53 134.40 99.83 133.66 C 99.63 130.78 99.34 127.91 99.02 125.04 C 99.89 124.90 100.77 124.79 101.64 124.70 C 102.24 128.73 102.84 130.52 105.84 133.28 C 107.14 132.71 108.44 132.15 109.74 131.59 C 109.66 128.90 109.43 126.24 108.96 123.58 C 109.91 123.09 110.84 122.56 111.78 122.06 C 112.28 124.11 112.76 126.16 113.28 128.21 C 115.04 127.35 117.30 126.57 118.56 125.03 C 118.47 123.04 117.77 121.35 117.13 119.50 C 120.66 117.74 123.13 119.88 126.79 120.14 C 128.91 118.59 130.95 116.97 133.23 115.65 C 132.39 114.46 131.55 113.26 130.74 112.05 C 130.49 113.14 130.22 114.22 129.95 115.30 C 127.04 112.33 125.12 109.15 121.28 107.23 C 121.40 108.36 121.55 109.47 121.75 110.57 C 120.85 110.37 119.96 110.19 119.06 110.02 C 119.84 109.42 120.61 108.79 121.36 108.15 C 118.76 103.30 116.89 98.39 113.10 94.29 C 115.92 95.03 118.96 96.48 121.88 96.38 C 123.66 95.06 125.00 93.08 126.38 91.35 C 128.69 88.18 131.28 84.75 131.69 80.72 C 131.93 77.79 131.63 74.78 131.21 71.87 Z" fill="#f3f2f1" />
<path d="M 44.03 72.65 C 44.94 73.30 45.18 74.05 44.77 74.90 C 43.59 75.74 42.59 75.42 41.78 73.95 C 42.45 73.22 43.20 72.79 44.03 72.65 Z" fill="#98443d" />
<path d="M 175.90 72.40 C 177.61 75.53 178.60 79.37 180.87 82.13 C 182.63 84.16 184.74 84.40 187.26 84.58 C 187.58 85.47 187.89 86.37 188.19 87.27 C 187.91 91.06 187.12 94.73 186.38 98.44 C 185.60 96.81 184.75 95.21 183.86 93.64 C 180.70 95.98 178.59 98.92 176.82 102.40 C 175.27 97.89 174.29 93.38 171.82 89.23 C 171.89 86.33 171.80 83.41 171.72 80.50 C 172.85 77.64 174.22 74.97 175.90 72.40 Z" fill="#e6c381" />
<path d="M 225.99 73.15 L 227.82 72.85 C 227.91 79.03 226.08 84.44 225.30 90.54 C 223.91 90.96 222.52 91.38 221.11 91.72 L 220.21 91.72 C 220.85 85.16 222.54 78.81 225.99 73.15 Z" fill="#e16764" />
<path d="M 76.99 74.84 C 79.21 76.57 81.10 78.66 83.29 80.41 C 85.76 80.91 88.70 78.85 90.99 78.03 C 93.32 76.81 95.39 77.58 97.79 78.04 L 99.13 78.41 C 95.77 78.91 92.91 80.51 89.74 81.57 C 86.19 82.31 82.24 81.65 78.63 81.55 C 81.30 83.21 83.58 85.10 86.93 84.80 C 90.47 84.53 93.82 84.31 97.29 85.33 C 94.38 87.91 91.29 90.27 88.32 92.77 C 86.27 92.14 84.07 91.55 82.16 90.56 C 82.25 88.92 82.47 87.16 82.17 85.54 C 80.03 83.54 77.33 82.11 74.94 80.40 C 75.26 79.31 75.58 78.23 75.92 77.15 C 76.26 76.37 76.62 75.60 76.99 74.84 Z" fill="#82716e" />
<path d="M 189.29 74.90 C 190.78 76.24 192.38 77.44 193.99 78.63 C 193.59 81.50 192.88 84.28 192.03 87.04 C 190.75 87.10 189.47 87.16 188.19 87.27 C 187.89 86.37 187.58 85.47 187.26 84.58 C 187.80 81.32 188.41 78.09 189.29 74.90 Z" fill="#a4574b" />
<path d="M 62.83 76.33 C 66.17 78.39 69.22 81.01 72.33 83.41 C 70.87 83.42 68.83 83.85 67.56 82.98 C 65.17 81.27 62.88 79.53 62.83 76.33 Z" fill="#d38c95" />
<path d="M 35.97 77.87 C 36.76 78.19 37.56 78.53 38.34 78.87 C 36.92 80.21 35.48 81.54 34.03 82.85 C 34.24 81.47 34.44 80.08 34.69 78.70 L 35.97 77.87 Z" fill="#8d4748" />
<path d="M 202.66 77.62 C 201.91 80.29 201.08 82.93 200.08 85.53 C 199.55 84.01 198.40 83.89 198.65 82.05 C 198.54 79.33 200.85 78.94 202.66 77.62 Z" fill="#f3aa89" />
<path d="M 146.66 82.78 C 147.53 84.10 148.31 85.48 149.11 86.83 C 148.98 85.62 148.83 84.41 148.66 83.21 C 149.57 83.62 150.48 84.03 151.39 84.44 C 151.77 86.54 151.62 90.37 153.33 91.74 C 156.69 92.60 160.53 92.11 163.97 91.95 C 167.47 93.22 170.11 95.53 172.88 97.91 C 172.37 95.33 171.89 92.76 171.77 90.13 L 171.82 89.23 C 174.29 93.38 175.27 97.89 176.82 102.40 C 175.33 105.40 173.72 107.52 171.18 109.71 C 169.61 107.14 168.38 103.88 166.15 101.82 C 162.92 99.68 160.60 102.07 157.62 103.29 C 156.33 103.90 155.01 104.45 153.68 104.98 C 152.87 102.45 151.80 100.07 150.78 97.61 C 150.30 96.35 149.80 95.09 149.27 93.85 C 147.78 90.27 146.60 86.60 145.35 82.94 L 146.66 82.78 Z" fill="#cba86d" />
<path d="M 140.13 83.88 L 140.57 83.08 C 142.21 86.23 143.18 89.60 144.02 93.04 C 144.16 94.98 144.18 96.93 144.28 98.88 C 143.14 99.34 141.99 99.81 140.85 100.29 C 140.18 97.62 138.98 95.45 139.65 92.63 C 140.25 89.71 140.11 86.83 140.13 83.88 Z" fill="#dbd6d2" />
<path d="M 97.29 85.33 C 99.13 85.83 100.53 87.87 101.86 89.15 C 104.72 92.33 108.12 94.91 111.06 97.99 L 111.39 98.88 C 108.66 98.32 105.15 97.90 102.94 96.08 C 101.19 94.70 100.53 92.85 99.45 90.97 C 98.89 93.01 97.57 95.16 98.76 97.21 C 100.27 101.18 105.89 101.09 109.35 102.33 C 108.21 105.98 106.98 109.11 102.65 109.60 C 103.95 107.35 105.48 105.28 106.96 103.16 C 104.38 102.71 101.78 102.04 99.16 101.86 C 96.25 104.43 95.30 109.38 94.12 112.96 C 100.34 112.79 105.21 111.46 110.91 109.06 L 111.76 108.74 C 111.13 110.39 110.51 112.05 109.88 113.70 C 105.62 113.64 102.57 117.49 98.66 118.51 C 96.24 118.80 93.58 117.88 91.22 117.38 C 90.05 118.67 88.89 119.96 87.74 121.27 C 86.76 121.26 85.79 121.22 84.82 121.17 C 77.28 120.28 73.69 113.92 67.57 110.81 C 64.32 109.56 59.81 107.74 56.42 109.33 C 54.34 110.09 52.49 111.11 50.52 112.10 C 48.23 112.79 45.59 113.32 43.59 114.67 C 41.66 116.28 40.02 119.07 40.47 121.67 C 41.55 121.90 42.60 121.95 43.64 121.83 C 46.75 119.09 48.99 115.48 52.10 112.71 C 54.86 111.64 57.28 110.16 60.28 110.24 C 62.91 110.34 66.03 109.88 68.06 111.90 C 71.73 115.29 74.45 119.47 78.52 122.50 C 81.59 125.00 85.13 125.52 88.88 126.34 C 90.13 126.59 91.37 126.86 92.61 127.13 C 92.65 128.67 92.68 130.22 92.72 131.76 C 88.48 131.70 83.10 132.75 79.38 130.54 C 74.07 127.79 70.00 124.32 63.69 124.12 C 61.99 124.11 60.15 124.01 58.51 124.48 C 57.41 125.29 56.44 126.35 55.48 127.33 C 57.04 127.25 58.59 127.14 60.15 127.04 C 60.28 127.95 60.41 128.86 60.55 129.78 C 61.48 130.29 62.89 130.58 63.50 131.48 C 65.43 134.32 66.87 137.16 69.72 139.27 C 72.97 141.98 76.78 143.47 80.37 145.58 C 84.03 147.90 85.11 151.62 89.13 152.81 C 89.68 153.54 90.20 154.27 90.72 155.01 C 92.67 154.82 94.56 154.50 96.37 153.71 C 95.32 156.70 94.36 159.71 93.61 162.80 C 89.87 163.97 85.03 165.82 81.28 163.82 C 75.39 161.40 72.96 156.62 68.23 152.78 C 65.00 150.17 61.52 147.84 58.00 145.63 C 58.61 145.05 59.21 144.45 59.80 143.83 C 54.74 144.73 52.15 148.16 48.18 150.97 C 47.08 150.00 45.99 149.02 44.89 148.05 C 44.49 148.83 44.09 149.60 43.69 150.38 C 42.27 147.52 40.48 144.67 39.56 141.60 C 39.15 139.27 39.60 136.79 39.32 134.44 C 38.13 131.95 35.91 129.86 34.84 127.29 C 34.27 124.21 35.39 120.86 34.89 117.73 C 34.33 114.65 32.94 111.49 32.59 108.36 C 32.40 106.25 33.12 103.93 33.59 101.88 C 32.82 102.37 32.04 102.86 31.26 103.35 C 30.90 105.13 30.57 106.88 30.05 108.63 C 29.68 105.23 29.04 101.89 28.38 98.55 C 34.60 97.00 40.89 94.87 47.27 94.16 C 44.19 96.27 40.45 98.92 40.23 103.01 C 40.58 106.59 43.72 110.73 47.76 109.78 C 51.13 109.40 52.05 106.44 53.66 103.96 C 52.87 102.39 52.10 100.82 51.36 99.23 C 49.97 99.44 48.38 99.47 47.09 100.08 C 45.63 100.96 46.30 102.85 46.20 104.26 C 47.58 103.53 48.96 102.79 50.36 102.08 C 49.58 104.19 48.50 106.00 47.18 107.82 C 45.81 105.95 44.50 104.06 43.23 102.12 C 45.18 99.47 47.09 96.84 49.27 94.38 C 49.80 94.12 50.34 93.86 50.87 93.62 C 53.27 94.61 55.84 95.41 57.81 97.16 C 60.74 99.67 63.01 102.53 66.33 104.64 C 68.46 106.12 71.37 106.56 73.88 107.11 C 75.57 109.44 77.65 112.18 80.26 113.52 C 81.90 113.66 83.54 113.36 84.61 112.00 C 86.39 109.90 88.14 108.12 90.54 106.70 C 90.05 102.97 89.90 101.45 86.54 99.39 C 85.75 95.45 83.09 95.75 79.79 95.21 C 81.80 95.16 83.81 95.17 85.81 95.14 C 86.64 94.34 87.47 93.55 88.32 92.77 C 91.29 90.27 94.38 87.91 97.29 85.33 Z" fill="#d9a19d" />
<path d="M 170.32 85.79 C 170.79 87.25 171.28 88.69 171.77 90.13 C 171.89 92.76 172.37 95.33 172.88 97.91 C 170.11 95.53 167.47 93.22 163.97 91.95 C 166.52 90.32 168.42 88.11 170.32 85.79 Z" fill="#e8bf76" />
<path d="M 188.19 87.27 C 189.47 87.16 190.75 87.10 192.03 87.04 C 191.63 88.48 191.30 89.93 191.00 91.39 C 190.24 95.90 189.80 100.45 189.05 104.96 C 188.05 103.98 187.04 102.99 186.02 102.02 C 186.14 100.83 186.26 99.64 186.38 98.44 C 187.12 94.73 187.91 91.06 188.19 87.27 Z" fill="#ab8c52" />
<path d="M 198.26 90.02 C 200.88 92.12 200.14 94.19 199.79 97.16 C 198.43 101.81 197.31 106.53 195.89 111.16 C 194.96 110.09 194.05 109.02 193.07 108.00 C 194.59 104.58 196.41 101.06 197.21 97.40 C 197.75 95.65 195.68 93.72 194.90 92.26 C 196.01 91.51 197.13 90.76 198.26 90.02 Z" fill="#f7e3c7" />
<path d="M 99.45 90.97 C 100.53 92.85 101.19 94.70 102.94 96.08 C 105.15 97.90 108.66 98.32 111.39 98.88 C 111.89 100.26 112.47 101.65 112.81 103.07 C 112.47 105.12 111.56 107.09 110.91 109.06 C 105.21 111.46 100.34 112.79 94.12 112.96 C 95.30 109.38 96.25 104.43 99.16 101.86 C 101.78 102.04 104.38 102.71 106.96 103.16 C 105.48 105.28 103.95 107.35 102.65 109.60 C 106.98 109.11 108.21 105.98 109.35 102.33 C 105.89 101.09 100.27 101.18 98.76 97.21 C 97.57 95.16 98.89 93.01 99.45 90.97 Z" fill="#040001" />
<path d="M 145.89 91.10 C 147.03 91.99 148.17 92.90 149.27 93.85 C 149.80 95.09 150.30 96.35 150.78 97.61 C 150.25 103.48 150.45 109.20 151.20 115.04 C 149.50 116.03 147.79 117.01 146.08 117.97 C 146.43 111.40 144.80 105.34 144.28 98.88 C 144.18 96.93 144.16 94.98 144.02 93.04 C 145.01 95.85 146.60 98.24 148.55 100.47 C 147.85 97.29 146.84 94.21 145.89 91.10 Z" fill="#665c5c" />
<path d="M 191.00 91.39 C 192.31 91.64 193.59 91.99 194.90 92.26 C 195.68 93.72 197.75 95.65 197.21 97.40 C 196.41 101.06 194.59 104.58 193.07 108.00 C 191.77 106.92 190.42 105.94 189.05 104.96 C 189.80 100.45 190.24 95.90 191.00 91.39 Z" fill="#e1b86c" />
<path d="M 220.21 91.72 L 221.11 91.72 C 220.52 93.39 219.90 95.05 219.16 96.67 C 218.55 96.73 217.93 96.81 217.32 96.88 C 215.79 98.55 214.46 100.45 213.22 102.33 C 214.30 98.72 215.53 95.20 216.88 91.68 C 217.99 91.68 219.10 91.71 220.21 91.72 Z" fill="#c09970" />
<path d="M 213.95 91.79 C 214.93 91.74 215.90 91.70 216.88 91.68 C 215.53 95.20 214.30 98.72 213.22 102.33 C 211.31 107.52 208.35 111.97 205.88 116.89 C 204.18 120.26 202.38 123.57 200.22 126.69 C 199.27 127.21 198.29 127.69 197.32 128.18 C 196.90 127.67 196.48 127.16 196.06 126.65 L 195.73 126.24 C 197.65 122.93 199.59 119.58 201.10 116.07 C 202.62 112.52 202.44 109.15 205.04 106.10 C 208.47 102.05 210.92 97.95 213.16 93.16 L 213.95 91.79 Z" fill="#a68146" />
<path d="M 53.05 92.79 C 55.13 93.39 57.23 94.19 59.34 94.57 C 60.55 96.13 61.77 97.66 63.13 99.10 C 65.47 100.17 67.81 101.22 70.10 102.40 C 71.91 100.57 73.64 98.68 75.38 96.78 C 76.77 95.70 77.97 95.15 79.79 95.21 C 83.09 95.75 85.75 95.45 86.54 99.39 C 85.83 101.54 85.16 103.69 84.45 105.83 C 84.27 104.91 84.06 104.00 83.81 103.10 C 83.44 101.16 82.31 99.26 80.09 99.41 C 78.89 99.96 77.19 100.78 76.76 102.12 C 76.80 103.28 76.89 104.44 77.02 105.60 C 78.14 106.24 79.25 106.89 80.36 107.54 C 78.19 107.55 76.03 107.38 73.88 107.11 C 71.37 106.56 68.46 106.12 66.33 104.64 C 63.01 102.53 60.74 99.67 57.81 97.16 C 55.84 95.41 53.27 94.61 50.87 93.62 C 51.59 93.33 52.31 93.05 53.05 92.79 Z" fill="#060101" />
<path d="M 213.16 93.16 C 210.92 97.95 208.47 102.05 205.04 106.10 C 202.44 109.15 202.62 112.52 201.10 116.07 C 199.59 119.58 197.65 122.93 195.73 126.24 C 194.58 124.62 192.86 122.82 192.45 120.85 C 192.65 118.42 193.51 116.01 194.39 113.75 C 194.90 112.90 195.41 112.04 195.89 111.16 C 197.31 106.53 198.43 101.81 199.79 97.16 C 204.72 97.39 208.95 95.51 213.16 93.16 Z" fill="#e0b364" />
<path d="M 47.27 94.16 C 47.94 94.21 48.61 94.29 49.27 94.38 C 47.09 96.84 45.18 99.47 43.23 102.12 C 44.50 104.06 45.81 105.95 47.18 107.82 C 48.50 106.00 49.58 104.19 50.36 102.08 C 48.96 102.79 47.58 103.53 46.20 104.26 C 46.30 102.85 45.63 100.96 47.09 100.08 C 48.38 99.47 49.97 99.44 51.36 99.23 C 52.10 100.82 52.87 102.39 53.66 103.96 C 52.05 106.44 51.13 109.40 47.76 109.78 C 43.72 110.73 40.58 106.59 40.23 103.01 C 40.45 98.92 44.19 96.27 47.27 94.16 Z" fill="#070000" />
<path d="M 60.98 94.64 C 63.05 95.98 64.88 97.54 66.75 99.12 C 65.54 99.12 64.33 99.11 63.13 99.10 C 61.77 97.66 60.55 96.13 59.34 94.57 L 60.98 94.64 Z" fill="#edb0ac" />
<path d="M 60.98 94.64 C 65.83 94.71 70.45 96.04 75.38 96.78 C 73.64 98.68 71.91 100.57 70.10 102.40 C 67.81 101.22 65.47 100.17 63.13 99.10 C 64.33 99.11 65.54 99.12 66.75 99.12 C 64.88 97.54 63.05 95.98 60.98 94.64 Z" fill="#db7c7b" />
<path d="M 183.86 93.64 C 184.75 95.21 185.60 96.81 186.38 98.44 C 186.26 99.64 186.14 100.83 186.02 102.02 C 185.69 105.29 185.43 108.56 185.15 111.84 C 186.28 111.10 187.42 110.37 188.56 109.64 C 188.73 108.08 188.88 106.52 189.05 104.96 C 190.42 105.94 191.77 106.92 193.07 108.00 C 194.05 109.02 194.96 110.09 195.89 111.16 C 195.41 112.04 194.90 112.90 194.39 113.75 C 191.70 115.58 189.00 117.38 186.36 119.26 C 183.92 115.82 181.60 112.22 178.89 109.00 C 176.18 110.04 174.72 111.39 173.05 113.73 C 171.85 115.26 170.61 116.75 169.32 118.21 C 165.36 113.97 161.78 111.32 156.15 109.60 C 156.67 107.50 157.16 105.40 157.62 103.29 C 160.60 102.07 162.92 99.68 166.15 101.82 C 168.38 103.88 169.61 107.14 171.18 109.71 C 173.72 107.52 175.33 105.40 176.82 102.40 C 178.59 98.92 180.70 95.98 183.86 93.64 Z" fill="#e16a63" />
<path d="M 217.32 96.88 C 217.93 96.81 218.55 96.73 219.16 96.67 C 217.40 100.49 216.05 104.29 213.90 107.91 C 209.64 113.05 206.59 119.30 203.49 125.19 C 205.63 126.73 209.55 127.55 209.46 130.75 C 206.45 130.80 203.52 131.06 200.61 131.83 C 200.04 131.44 199.48 131.04 198.91 130.65 C 199.33 129.32 199.75 128.00 200.22 126.69 C 202.38 123.57 204.18 120.26 205.88 116.89 C 208.35 111.97 211.31 107.52 213.22 102.33 C 214.46 100.45 215.79 98.55 217.32 96.88 Z" fill="#2f2a33" />
<path d="M 111.06 97.99 C 113.21 100.07 114.86 102.47 116.35 105.05 C 114.87 106.34 113.40 107.63 111.76 108.74 L 110.91 109.06 C 111.56 107.09 112.47 105.12 112.81 103.07 C 112.47 101.65 111.89 100.26 111.39 98.88 L 111.06 97.99 Z" fill="#bea6ae" />
<path d="M 150.78 97.61 C 151.80 100.07 152.87 102.45 153.68 104.98 C 154.48 107.68 155.30 110.36 156.05 113.07 C 157.17 119.01 153.71 123.20 153.55 128.91 C 151.51 130.37 149.39 131.69 147.24 132.98 C 146.66 131.38 146.66 129.90 144.95 129.06 C 143.29 127.82 141.56 128.78 139.72 129.06 C 141.72 126.68 143.13 124.00 144.43 121.19 C 144.99 120.13 145.55 119.06 146.08 117.97 C 147.79 117.01 149.50 116.03 151.20 115.04 C 150.45 109.20 150.25 103.48 150.78 97.61 Z" fill="#21213d" />
<path d="M 144.28 98.88 C 144.80 105.34 146.43 111.40 146.08 117.97 C 145.55 119.06 144.99 120.13 144.43 121.19 L 142.34 121.43 C 142.15 114.46 142.32 107.13 140.85 100.29 C 141.99 99.81 143.14 99.34 144.28 98.88 Z" fill="#99928d" />
<path d="M 80.09 99.41 C 82.31 99.26 83.44 101.16 83.81 103.10 C 83.14 105.47 82.44 106.23 80.36 107.54 C 79.25 106.89 78.14 106.24 77.02 105.60 C 76.89 104.44 76.80 103.28 76.76 102.12 C 77.19 100.78 78.89 99.96 80.09 99.41 Z" fill="#fcca91" />
<path d="M 86.54 99.39 C 89.90 101.45 90.05 102.97 90.54 106.70 C 88.14 108.12 86.39 109.90 84.61 112.00 C 83.54 113.36 81.90 113.66 80.26 113.52 C 77.65 112.18 75.57 109.44 73.88 107.11 C 76.03 107.38 78.19 107.55 80.36 107.54 C 82.44 106.23 83.14 105.47 83.81 103.10 C 84.06 104.00 84.27 104.91 84.45 105.83 C 85.16 103.69 85.83 101.54 86.54 99.39 Z" fill="#352828" />
<path d="M 33.59 101.88 C 33.12 103.93 32.40 106.25 32.59 108.36 C 32.94 111.49 34.33 114.65 34.89 117.73 C 35.39 120.86 34.27 124.21 34.84 127.29 C 35.91 129.86 38.13 131.95 39.32 134.44 C 39.60 136.79 39.15 139.27 39.56 141.60 C 40.48 144.67 42.27 147.52 43.69 150.38 C 44.09 149.60 44.49 148.83 44.89 148.05 C 45.99 149.02 47.08 150.00 48.18 150.97 C 52.15 148.16 54.74 144.73 59.80 143.83 C 59.21 144.45 58.61 145.05 58.00 145.63 C 54.33 148.83 49.63 151.35 46.89 155.27 C 49.55 154.77 51.84 153.48 54.36 152.58 C 57.28 151.90 60.55 152.32 63.43 153.03 C 59.41 153.59 55.36 154.31 51.47 155.48 C 49.60 157.18 48.95 159.24 48.40 161.62 C 49.10 161.89 49.79 162.15 50.49 162.42 C 49.70 163.03 48.92 163.65 48.15 164.28 C 45.37 158.42 41.33 153.48 38.08 147.91 C 37.27 146.42 36.09 145.37 34.73 144.41 C 33.39 142.48 32.27 140.46 31.37 138.27 C 31.10 134.90 31.80 131.87 27.97 130.43 C 26.55 127.17 25.03 124.16 24.54 120.58 C 28.81 123.21 29.79 129.26 32.78 133.35 C 32.60 126.25 27.80 121.01 27.84 114.00 C 27.61 111.77 29.09 110.52 30.05 108.63 C 30.57 106.88 30.90 105.13 31.26 103.35 C 32.04 102.86 32.82 102.37 33.59 101.88 Z" fill="#e3c1bb" />
<path d="M 186.02 102.02 C 187.04 102.99 188.05 103.98 189.05 104.96 C 188.88 106.52 188.73 108.08 188.56 109.64 C 187.42 110.37 186.28 111.10 185.15 111.84 C 185.43 108.56 185.69 105.29 186.02 102.02 Z" fill="#ac4749" />
<path d="M 157.62 103.29 C 157.16 105.40 156.67 107.50 156.15 109.60 C 161.78 111.32 165.36 113.97 169.32 118.21 C 170.61 116.75 171.85 115.26 173.05 113.73 C 175.53 115.81 177.28 117.96 178.94 120.72 C 177.95 121.57 176.96 122.42 175.98 123.27 C 179.38 128.63 184.15 132.38 189.21 136.07 C 188.73 137.66 188.19 139.24 187.66 140.82 C 186.87 142.09 186.07 144.21 184.50 144.60 C 183.64 142.32 183.41 139.14 181.71 137.34 C 178.83 134.40 173.96 134.40 170.15 133.73 C 167.28 133.25 164.44 132.64 161.57 132.14 L 160.14 131.54 C 163.89 129.85 165.63 128.29 167.82 124.86 C 166.39 124.10 164.83 123.42 163.53 122.42 C 162.59 120.68 162.10 118.58 161.08 116.89 C 159.73 115.33 157.77 114.20 156.05 113.07 C 155.30 110.36 154.48 107.68 153.68 104.98 C 155.01 104.45 156.33 103.90 157.62 103.29 Z" fill="#a68c64" />
<path d="M 103.55 104.74 C 102.62 106.44 101.65 108.11 100.63 109.75 C 99.89 108.30 99.34 106.88 99.02 105.28 C 100.53 105.06 102.03 104.88 103.55 104.74 Z" fill="#c8b0ad" />
<path d="M 67.57 110.81 C 73.69 113.92 77.28 120.28 84.82 121.17 C 87.46 121.55 90.12 121.76 92.78 121.95 C 91.86 122.68 90.94 123.41 90.02 124.14 C 93.98 123.74 97.81 123.06 101.63 121.95 C 102.39 121.75 103.16 121.54 103.92 121.34 C 103.57 120.48 103.23 119.62 102.89 118.76 C 109.22 116.36 115.69 114.31 122.27 112.71 C 122.09 112.00 121.92 111.28 121.75 110.57 C 121.55 109.47 121.40 108.36 121.28 107.23 C 125.12 109.15 127.04 112.33 129.95 115.30 C 130.22 114.22 130.49 113.14 130.74 112.05 C 131.55 113.26 132.39 114.46 133.23 115.65 C 130.95 116.97 128.91 118.59 126.79 120.14 C 123.13 119.88 120.66 117.74 117.13 119.50 C 115.30 120.24 113.53 121.13 111.78 122.06 C 110.84 122.56 109.91 123.09 108.96 123.58 C 106.56 124.22 104.11 124.48 101.64 124.70 C 100.77 124.79 99.89 124.90 99.02 125.04 C 95.66 125.72 92.33 126.35 88.88 126.34 C 85.13 125.52 81.59 125.00 78.52 122.50 C 74.45 119.47 71.73 115.29 68.06 111.90 C 66.03 109.88 62.91 110.34 60.28 110.24 C 57.28 110.16 54.86 111.64 52.10 112.71 L 50.52 112.10 C 52.49 111.11 54.34 110.09 56.42 109.33 C 59.81 107.74 64.32 109.56 67.57 110.81 Z" fill="#25233b" />
<path d="M 213.90 107.91 C 212.10 113.05 209.97 119.09 210.54 124.58 C 212.42 127.60 214.89 129.69 215.58 133.38 L 214.29 134.15 C 212.54 133.30 210.83 132.37 209.07 131.53 L 209.46 130.75 C 209.55 127.55 205.63 126.73 203.49 125.19 C 206.59 119.30 209.64 113.05 213.90 107.91 Z" fill="#ddae55" />
<path d="M 178.89 109.00 C 181.60 112.22 183.92 115.82 186.36 119.26 C 185.92 123.07 186.17 125.56 187.98 129.00 C 189.12 131.41 190.00 133.37 189.21 136.07 C 184.15 132.38 179.38 128.63 175.98 123.27 C 176.96 122.42 177.95 121.57 178.94 120.72 C 177.28 117.96 175.53 115.81 173.05 113.73 C 174.72 111.39 176.18 110.04 178.89 109.00 Z" fill="#c3a064" />
<path d="M 119.06 110.02 C 119.96 110.19 120.85 110.37 121.75 110.57 C 121.92 111.28 122.09 112.00 122.27 112.71 C 115.69 114.31 109.22 116.36 102.89 118.76 C 103.23 119.62 103.57 120.48 103.92 121.34 C 103.16 121.54 102.39 121.75 101.63 121.95 C 100.98 121.27 100.32 120.62 99.63 119.99 C 95.65 119.97 91.75 121.25 87.74 121.27 C 88.89 119.96 90.05 118.67 91.22 117.38 C 93.58 117.88 96.24 118.80 98.66 118.51 C 102.57 117.49 105.62 113.64 109.88 113.70 C 113.67 113.95 116.04 111.92 119.06 110.02 Z" fill="#93706f" />
<path d="M 50.52 112.10 L 52.10 112.71 C 48.99 115.48 46.75 119.09 43.64 121.83 C 42.60 121.95 41.55 121.90 40.47 121.67 C 40.02 119.07 41.66 116.28 43.59 114.67 C 45.59 113.32 48.23 112.79 50.52 112.10 Z" fill="#a77875" />
<path d="M 156.05 113.07 C 157.77 114.20 159.73 115.33 161.08 116.89 C 162.10 118.58 162.59 120.68 163.53 122.42 C 164.83 123.42 166.39 124.10 167.82 124.86 C 165.63 128.29 163.89 129.85 160.14 131.54 C 157.98 130.56 155.80 129.66 153.55 128.91 C 153.71 123.20 157.17 119.01 156.05 113.07 Z" fill="#8d7960" />
<path d="M 119.24 114.15 C 120.86 114.75 119.78 116.48 118.38 116.26 C 116.77 115.65 117.90 113.99 119.24 114.15 Z" fill="#8c8a8f" />
<path d="M 194.39 113.75 C 193.51 116.01 192.65 118.42 192.45 120.85 C 192.86 122.82 194.58 124.62 195.73 126.24 L 196.06 126.65 C 193.25 127.05 190.61 127.98 187.98 129.00 C 186.17 125.56 185.92 123.07 186.36 119.26 C 189.00 117.38 191.70 115.58 194.39 113.75 Z" fill="#d0a883" />
<path d="M 99.63 119.99 C 100.32 120.62 100.98 121.27 101.63 121.95 C 97.81 123.06 93.98 123.74 90.02 124.14 C 90.94 123.41 91.86 122.68 92.78 121.95 C 90.12 121.76 87.46 121.55 84.82 121.17 C 85.79 121.22 86.76 121.26 87.74 121.27 C 91.75 121.25 95.65 119.97 99.63 119.99 Z" fill="#3f424a" />
<path d="M 117.13 119.50 C 117.77 121.35 118.47 123.04 118.56 125.03 C 117.30 126.57 115.04 127.35 113.28 128.21 C 112.76 126.16 112.28 124.11 111.78 122.06 C 113.53 121.13 115.30 120.24 117.13 119.50 Z" fill="#c99a26" />
<path d="M 142.34 121.43 L 144.43 121.19 C 143.13 124.00 141.72 126.68 139.72 129.06 C 139.04 129.91 138.36 130.75 137.67 131.59 C 134.44 131.74 131.66 130.81 129.09 133.24 C 126.58 138.76 124.17 144.53 122.19 150.26 C 121.28 149.24 120.38 148.22 119.45 147.21 C 122.36 144.28 123.32 140.87 124.31 136.98 C 125.53 132.94 126.20 129.01 126.12 124.78 C 127.33 124.09 128.53 123.53 129.94 123.42 C 134.12 123.00 138.16 121.87 142.34 121.43 Z" fill="#675c5b" />
<path d="M 58.51 124.48 C 60.15 124.01 61.99 124.11 63.69 124.12 L 63.91 125.01 C 64.98 129.90 65.96 134.67 70.04 138.01 C 75.58 142.39 81.94 143.63 86.54 149.49 C 87.43 150.58 88.29 151.69 89.13 152.81 C 85.11 151.62 84.03 147.90 80.37 145.58 C 76.78 143.47 72.97 141.98 69.72 139.27 C 66.87 137.16 65.43 134.32 63.50 131.48 C 62.89 130.58 61.48 130.29 60.55 129.78 C 60.41 128.86 60.28 127.95 60.15 127.04 C 58.59 127.14 57.04 127.25 55.48 127.33 C 56.44 126.35 57.41 125.29 58.51 124.48 Z" fill="#1e1e2f" />
<path d="M 108.96 123.58 C 109.43 126.24 109.66 128.90 109.74 131.59 C 108.44 132.15 107.14 132.71 105.84 133.28 C 102.84 130.52 102.24 128.73 101.64 124.70 C 104.11 124.48 106.56 124.22 108.96 123.58 Z" fill="#c99629" />
<path d="M 63.91 125.01 C 66.12 126.89 68.59 128.41 70.81 130.26 C 73.55 132.59 74.51 136.63 77.06 138.95 C 80.99 140.75 85.78 141.02 90.04 141.14 C 93.37 141.23 96.54 138.88 99.62 137.69 C 103.36 135.98 107.53 136.17 111.55 136.18 C 108.44 139.55 104.66 139.16 100.73 140.80 C 98.09 141.83 96.28 144.21 93.74 145.66 C 91.37 147.00 88.87 148.07 86.54 149.49 C 81.94 143.63 75.58 142.39 70.04 138.01 C 65.96 134.67 64.98 129.90 63.91 125.01 Z" fill="#6d6160" />
<path d="M 99.02 125.04 C 99.34 127.91 99.63 130.78 99.83 133.66 C 98.53 134.40 97.23 135.16 95.93 135.90 C 94.85 134.52 93.78 133.14 92.72 131.76 C 92.68 130.22 92.65 128.67 92.61 127.13 C 91.37 126.86 90.13 126.59 88.88 126.34 C 92.33 126.35 95.66 125.72 99.02 125.04 Z" fill="#ca9a32" />
<path d="M 126.12 124.78 C 126.20 129.01 125.53 132.94 124.31 136.98 C 123.91 136.39 123.51 135.80 123.11 135.22 C 121.36 137.46 119.54 139.64 117.63 141.75 C 117.36 139.27 116.74 136.24 117.87 133.91 C 119.09 132.52 121.11 131.89 122.33 130.50 C 123.72 128.68 124.80 126.64 126.12 124.78 Z" fill="#a1a09a" />
<path d="M 196.06 126.65 C 196.48 127.16 196.90 127.67 197.32 128.18 C 198.29 127.69 199.27 127.21 200.22 126.69 C 199.75 128.00 199.33 129.32 198.91 130.65 C 199.48 131.04 200.04 131.44 200.61 131.83 L 201.99 132.81 C 200.09 134.52 197.71 136.24 196.42 138.47 C 196.03 140.09 196.68 141.99 196.88 143.64 C 200.17 142.49 202.42 142.02 205.84 142.98 C 204.35 143.77 202.77 144.48 201.40 145.45 C 200.80 146.73 200.47 148.16 200.14 149.52 C 199.09 153.51 198.77 156.76 200.09 160.77 C 202.04 160.46 204.22 159.78 206.20 160.06 C 210.00 161.28 211.85 164.92 213.34 168.33 C 213.46 169.40 213.58 170.47 213.69 171.53 C 210.59 173.97 207.92 176.70 206.29 180.35 C 203.39 186.00 203.86 193.26 200.19 198.20 C 196.98 201.99 193.08 205.09 187.94 205.47 C 188.34 204.73 188.73 203.98 189.13 203.24 C 191.51 199.11 191.58 194.95 192.37 190.36 C 193.04 186.06 193.63 181.77 194.71 177.55 C 195.24 175.25 195.97 172.77 195.63 170.40 C 194.74 164.99 192.87 159.83 189.09 155.74 C 185.96 151.09 186.19 146.01 187.66 140.82 C 188.19 139.24 188.73 137.66 189.21 136.07 C 190.00 133.37 189.12 131.41 187.98 129.00 C 190.61 127.98 193.25 127.05 196.06 126.65 Z" fill="#d8a39e" />
<path d="M 144.95 129.06 C 146.66 129.90 146.66 131.38 147.24 132.98 C 149.39 131.69 151.51 130.37 153.55 128.91 C 155.80 129.66 157.98 130.56 160.14 131.54 L 161.57 132.14 C 154.22 135.52 146.97 134.15 139.32 135.29 C 137.09 136.94 135.08 138.77 132.58 140.02 C 131.57 137.67 130.43 135.42 129.09 133.24 C 131.66 130.81 134.44 131.74 137.67 131.59 C 138.36 130.75 139.04 129.91 139.72 129.06 C 141.56 128.78 143.29 127.82 144.95 129.06 Z" fill="#a9a19c" />
<path d="M 31.37 138.27 C 30.14 135.69 29.02 133.09 27.97 130.43 C 31.80 131.87 31.10 134.90 31.37 138.27 Z" fill="#ba9594" />
<path d="M 209.46 130.75 L 209.07 131.53 L 208.21 133.12 C 209.75 133.77 211.26 134.42 212.83 134.98 L 214.29 134.15 L 215.58 133.38 C 215.87 134.16 216.20 134.92 216.58 135.67 C 217.02 136.60 217.50 137.51 218.01 138.40 C 218.33 140.98 218.92 143.82 218.16 146.35 C 217.34 149.50 216.08 152.52 215.18 155.66 C 209.98 154.05 205.10 151.74 200.14 149.52 C 200.47 148.16 200.80 146.73 201.40 145.45 C 202.77 144.48 204.35 143.77 205.84 142.98 C 202.42 142.02 200.17 142.49 196.88 143.64 C 196.68 141.99 196.03 140.09 196.42 138.47 C 197.71 136.24 200.09 134.52 201.99 132.81 L 200.61 131.83 C 203.52 131.06 206.45 130.80 209.46 130.75 Z" fill="#a8a79f" />
<path d="M 161.57 132.14 C 164.44 132.64 167.28 133.25 170.15 133.73 C 170.69 134.54 171.24 135.33 171.82 136.12 L 170.70 135.97 C 171.48 137.55 172.22 139.14 172.84 140.79 C 172.01 142.95 168.85 142.82 166.93 143.41 C 165.51 142.21 164.11 140.96 162.63 139.84 C 159.54 139.79 156.36 139.75 153.33 140.32 C 151.06 141.03 149.31 143.51 148.61 145.70 C 146.99 150.36 146.14 155.51 145.06 160.33 C 140.96 158.62 137.08 156.85 133.90 153.65 C 133.79 155.50 133.66 157.35 133.53 159.20 C 134.81 159.47 136.09 159.74 137.37 160.03 C 137.57 160.67 137.77 161.33 137.97 161.98 C 140.02 161.28 142.06 161.03 144.22 161.02 C 143.80 163.43 143.36 165.81 143.09 168.24 C 141.17 167.28 139.24 166.28 137.24 165.48 C 135.74 166.32 134.27 167.28 132.81 168.20 C 134.68 170.36 136.62 172.01 139.03 173.54 C 136.98 173.73 134.93 173.88 132.88 173.97 C 131.83 170.44 131.63 165.22 128.88 162.63 C 127.27 161.91 125.57 161.11 123.83 160.83 C 122.33 161.03 120.86 161.66 119.42 162.11 L 118.08 161.17 C 119.85 160.26 121.64 159.38 123.40 158.43 C 122.61 157.51 121.82 156.57 121.04 155.64 C 121.42 153.85 121.77 152.04 122.19 150.26 C 124.17 144.53 126.58 138.76 129.09 133.24 C 130.43 135.42 131.57 137.67 132.58 140.02 C 135.08 138.77 137.09 136.94 139.32 135.29 C 146.97 134.15 154.22 135.52 161.57 132.14 Z" fill="#c3beb9" />
<path d="M 209.07 131.53 C 210.83 132.37 212.54 133.30 214.29 134.15 L 212.83 134.98 C 211.26 134.42 209.75 133.77 208.21 133.12 L 209.07 131.53 Z" fill="#4b473e" />
<path d="M 170.15 133.73 C 173.96 134.40 178.83 134.40 181.71 137.34 C 183.41 139.14 183.64 142.32 184.50 144.60 C 186.07 144.21 186.87 142.09 187.66 140.82 C 186.19 146.01 185.96 151.09 189.09 155.74 C 188.37 156.28 187.68 156.84 186.99 157.42 C 186.39 153.90 183.59 153.71 180.85 152.26 C 180.72 151.90 180.58 151.53 180.45 151.16 C 179.30 147.15 178.15 143.35 175.31 140.16 C 174.17 138.80 172.99 137.45 171.82 136.12 C 171.24 135.33 170.69 134.54 170.15 133.73 Z" fill="#b0aaa5" />
<path d="M 170.70 135.97 L 171.82 136.12 C 172.99 137.45 174.17 138.80 175.31 140.16 C 174.46 142.70 173.61 145.23 172.65 147.73 C 170.71 146.32 168.76 144.95 166.93 143.41 C 168.85 142.82 172.01 142.95 172.84 140.79 C 172.22 139.14 171.48 137.55 170.70 135.97 Z" fill="#e5e3df" />
<path d="M 216.58 135.67 C 220.29 138.27 226.09 141.18 226.64 146.15 C 227.35 146.15 228.07 146.16 228.79 146.17 C 229.46 150.12 232.02 152.84 233.48 156.47 C 236.18 162.33 236.06 169.38 235.72 175.70 C 235.03 183.57 231.08 189.13 228.13 196.16 C 227.35 198.04 225.93 199.16 224.51 200.53 C 222.16 202.70 220.21 205.08 217.49 206.84 C 214.87 206.48 213.47 207.29 211.34 208.71 L 210.70 209.10 C 208.55 210.30 207.48 212.22 205.82 213.92 C 199.04 219.54 190.91 222.55 182.11 222.76 C 179.42 222.55 176.77 222.18 174.07 222.16 C 168.28 222.14 162.91 220.34 157.10 220.95 C 157.67 220.39 158.24 219.84 158.80 219.28 C 157.05 218.62 155.30 217.95 153.55 217.28 C 153.73 218.34 153.90 219.39 154.08 220.44 C 151.13 219.29 148.76 217.77 145.51 217.63 C 142.03 217.43 138.57 217.19 135.13 216.60 C 133.80 215.89 132.50 215.14 131.20 214.39 C 132.85 214.44 134.49 214.49 136.14 214.55 C 136.54 214.40 136.93 214.25 137.33 214.10 C 138.21 214.95 139.08 215.81 139.95 216.67 C 140.92 216.37 141.89 216.09 142.87 215.81 C 142.98 215.17 143.09 214.53 143.21 213.89 C 147.19 216.70 150.78 215.58 155.24 215.33 C 156.79 215.10 157.53 216.04 158.70 216.82 C 159.42 216.51 160.15 216.20 160.87 215.89 C 163.15 216.78 165.67 218.16 168.16 218.03 C 172.43 217.92 176.70 217.17 180.96 216.82 C 180.46 217.92 179.96 219.01 179.45 220.09 C 181.27 219.32 183.10 218.56 184.93 217.80 C 184.00 217.48 183.07 217.17 182.14 216.85 C 183.10 215.35 183.86 214.14 184.78 212.63 C 185.56 213.35 186.37 214.02 187.22 214.65 C 189.36 214.50 191.44 212.84 193.22 211.72 C 194.37 212.02 195.51 212.32 196.68 212.51 C 201.53 212.26 204.64 209.61 208.94 207.76 C 211.01 206.91 213.27 206.29 215.23 205.20 C 217.22 203.96 217.36 202.01 218.05 199.98 C 218.97 196.66 220.97 193.90 222.02 190.62 C 223.17 187.65 223.77 184.59 224.23 181.46 C 225.55 176.53 226.28 172.11 225.69 166.97 C 225.87 161.48 224.53 156.41 223.21 151.15 C 221.64 146.99 221.59 141.22 218.01 138.40 C 217.50 137.51 217.02 136.60 216.58 135.67 Z" fill="#21213d" />
<path d="M 162.63 139.84 C 164.11 140.96 165.51 142.21 166.93 143.41 C 168.76 144.95 170.71 146.32 172.65 147.73 C 174.14 148.82 175.65 149.89 177.20 150.89 C 177.47 154.36 177.15 157.78 176.95 161.24 C 176.22 162.32 175.48 163.39 174.74 164.47 C 176.74 166.29 178.64 167.21 181.20 168.00 C 180.06 171.23 179.39 174.28 175.77 175.50 C 173.02 175.59 169.95 174.75 167.49 173.53 C 164.50 171.84 163.76 167.28 163.02 164.22 L 164.12 162.86 C 165.67 160.74 167.51 160.30 169.96 159.77 C 170.03 161.56 170.68 163.80 170.06 165.53 C 169.08 166.11 168.03 166.61 166.99 167.09 C 167.76 168.46 168.54 169.82 169.33 171.17 C 171.83 168.30 173.04 164.69 173.56 160.97 C 173.91 158.98 172.07 157.54 170.45 156.84 C 167.68 155.76 164.13 156.16 161.20 156.28 C 160.46 157.80 159.71 159.34 159.06 160.90 C 157.29 166.74 160.97 173.25 166.44 175.53 C 169.68 176.68 173.73 177.46 177.16 177.63 C 179.04 177.79 180.69 175.98 181.96 174.82 C 186.11 179.66 187.78 185.06 187.43 191.39 C 187.20 193.48 186.35 195.57 186.36 197.66 C 186.93 199.62 188.12 201.47 189.13 203.24 C 188.73 203.98 188.34 204.73 187.94 205.47 C 184.72 205.98 182.64 207.76 180.57 210.13 C 178.79 208.72 177.36 207.25 174.95 207.00 C 170.35 206.40 165.80 205.84 161.26 204.86 C 160.17 201.99 158.88 199.51 157.13 196.99 L 159.13 196.79 C 157.37 195.75 155.60 194.71 153.80 193.75 C 154.48 193.76 155.15 193.78 155.83 193.80 C 154.02 193.11 152.04 192.58 150.37 191.59 C 148.20 189.47 146.73 186.51 145.35 183.84 C 143.50 178.80 143.06 173.57 143.09 168.24 C 143.36 165.81 143.80 163.43 144.22 161.02 C 142.06 161.03 140.02 161.28 137.97 161.98 C 137.77 161.33 137.57 160.67 137.37 160.03 C 136.09 159.74 134.81 159.47 133.53 159.20 C 133.66 157.35 133.79 155.50 133.90 153.65 C 137.08 156.85 140.96 158.62 145.06 160.33 C 146.14 155.51 146.99 150.36 148.61 145.70 C 149.31 143.51 151.06 141.03 153.33 140.32 C 156.36 139.75 159.54 139.79 162.63 139.84 Z" fill="#6a5f5e" />
<path d="M 218.01 138.40 C 221.59 141.22 221.64 146.99 223.21 151.15 C 221.43 151.34 219.64 151.51 217.86 151.74 C 218.50 154.10 219.33 156.40 220.41 158.60 L 218.37 158.80 C 216.56 158.86 214.82 158.59 213.03 158.36 C 215.00 160.69 216.78 163.13 218.43 165.70 C 216.67 165.31 214.91 164.92 213.16 164.51 C 213.20 165.79 213.25 167.06 213.34 168.33 C 211.85 164.92 210.00 161.28 206.20 160.06 C 204.22 159.78 202.04 160.46 200.09 160.77 C 198.77 156.76 199.09 153.51 200.14 149.52 C 205.10 151.74 209.98 154.05 215.18 155.66 C 216.08 152.52 217.34 149.50 218.16 146.35 C 218.92 143.82 218.33 140.98 218.01 138.40 Z" fill="#dac1bb" />
<path d="M 175.31 140.16 C 178.15 143.35 179.30 147.15 180.45 151.16 C 179.37 151.05 178.28 150.97 177.20 150.89 C 175.65 149.89 174.14 148.82 172.65 147.73 C 173.61 145.23 174.46 142.70 175.31 140.16 Z" fill="#c7c1bc" />
<path d="M 38.08 147.91 C 41.33 153.48 45.37 158.42 48.15 164.28 L 47.15 165.13 C 44.07 160.46 41.26 155.66 37.77 151.27 C 36.07 149.20 35.71 146.89 34.73 144.41 C 36.09 145.37 37.27 146.42 38.08 147.91 Z" fill="#5b5157" />
<path d="M 118.81 146.53 C 117.28 146.80 115.74 147.05 114.20 147.29 C 112.43 147.55 110.98 147.08 109.35 146.47 C 112.60 145.56 116.32 142.87 118.81 146.53 Z" fill="#513a35" />
<path d="M 58.00 145.63 C 61.52 147.84 65.00 150.17 68.23 152.78 C 72.96 156.62 75.39 161.40 81.28 163.82 C 85.03 165.82 89.87 163.97 93.61 162.80 C 96.64 161.65 99.29 159.89 101.84 157.93 C 103.09 158.06 104.33 158.20 105.57 158.32 C 108.06 158.42 109.99 157.37 112.23 156.44 C 113.03 156.08 113.84 155.74 114.65 155.41 C 116.79 155.32 118.91 155.46 121.04 155.64 C 121.82 156.57 122.61 157.51 123.40 158.43 C 121.64 159.38 119.85 160.26 118.08 161.17 L 119.42 162.11 C 118.66 164.54 117.55 166.63 115.95 168.60 C 113.51 170.54 111.16 172.81 108.45 174.35 C 106.04 175.02 103.54 175.39 101.10 175.96 C 101.21 175.20 101.31 174.44 101.43 173.68 C 99.64 174.19 97.84 174.58 96.01 174.92 C 97.25 175.18 98.48 175.43 99.71 175.70 C 99.60 177.08 99.51 178.47 99.40 179.85 C 96.25 179.42 93.39 179.38 90.25 179.93 C 91.31 179.21 92.36 178.49 93.40 177.75 C 90.40 177.04 87.29 176.70 84.32 175.88 C 82.10 174.14 80.63 171.33 78.92 169.10 C 77.10 166.35 74.83 164.03 72.63 161.60 C 71.29 160.06 70.04 158.38 68.59 156.95 C 67.09 155.49 65.37 153.87 63.43 153.03 C 60.55 152.32 57.28 151.90 54.36 152.58 C 51.84 153.48 49.55 154.77 46.89 155.27 C 49.63 151.35 54.33 148.83 58.00 145.63 Z" fill="#20223d" />
<path d="M 109.35 146.47 C 110.98 147.08 112.43 147.55 114.20 147.29 C 115.26 150.38 115.43 152.23 114.65 155.41 C 113.84 155.74 113.03 156.08 112.23 156.44 C 112.03 154.53 111.90 152.52 111.38 150.67 C 109.94 149.35 107.93 148.52 106.15 147.76 C 107.20 147.30 108.26 146.86 109.35 146.47 Z" fill="#ddb9a6" />
<path d="M 114.20 147.29 C 115.74 147.05 117.28 146.80 118.81 146.53 L 119.45 147.21 C 120.38 148.22 121.28 149.24 122.19 150.26 C 121.77 152.04 121.42 153.85 121.04 155.64 C 118.91 155.46 116.79 155.32 114.65 155.41 C 115.43 152.23 115.26 150.38 114.20 147.29 Z" fill="#c79928" />
<path d="M 104.73 148.43 C 105.31 151.72 105.76 154.98 105.57 158.32 C 104.33 158.20 103.09 158.06 101.84 157.93 C 100.87 155.73 99.99 153.50 99.27 151.20 L 100.67 149.72 C 102.02 149.28 103.38 148.86 104.73 148.43 Z" fill="#e0afa1" />
<path d="M 106.15 147.76 C 107.93 148.52 109.94 149.35 111.38 150.67 C 111.90 152.52 112.03 154.53 112.23 156.44 C 109.99 157.37 108.06 158.42 105.57 158.32 C 105.76 154.98 105.31 151.72 104.73 148.43 L 106.15 147.76 Z" fill="#c89727" />
<path d="M 100.67 149.72 L 99.27 151.20 L 98.70 150.55 C 99.17 149.77 99.83 149.49 100.67 149.72 Z" fill="#4b3238" />
<path d="M 180.45 151.16 C 180.58 151.53 180.72 151.90 180.85 152.26 C 180.24 153.37 179.62 154.47 179.02 155.57 C 181.53 156.32 184.03 157.14 186.50 158.01 C 183.84 160.91 182.32 164.26 181.20 168.00 C 178.64 167.21 176.74 166.29 174.74 164.47 C 175.48 163.39 176.22 162.32 176.95 161.24 C 177.15 157.78 177.47 154.36 177.20 150.89 C 178.28 150.97 179.37 151.05 180.45 151.16 Z" fill="#847b7a" />
<path d="M 98.70 150.55 L 99.27 151.20 C 99.99 153.50 100.87 155.73 101.84 157.93 C 99.29 159.89 96.64 161.65 93.61 162.80 C 94.36 159.71 95.32 156.70 96.37 153.71 L 97.05 151.66 C 97.61 151.30 98.16 150.93 98.70 150.55 Z" fill="#c89836" />
<path d="M 217.86 151.74 C 219.64 151.51 221.43 151.34 223.21 151.15 C 224.53 156.41 225.87 161.48 225.69 166.97 C 226.28 172.11 225.55 176.53 224.23 181.46 C 223.45 178.81 222.50 176.23 221.45 173.68 C 220.92 174.46 220.39 175.24 219.86 176.02 C 217.79 174.54 215.74 173.04 213.69 171.53 C 213.58 170.47 213.46 169.40 213.34 168.33 C 213.25 167.06 213.20 165.79 213.16 164.51 C 214.91 164.92 216.67 165.31 218.43 165.70 C 216.78 163.13 215.00 160.69 213.03 158.36 C 214.82 158.59 216.56 158.86 218.37 158.80 C 218.42 160.61 218.21 162.23 219.26 163.81 C 220.25 163.62 221.09 163.22 221.80 162.63 C 221.79 161.09 221.06 159.93 220.41 158.60 C 219.33 156.40 218.50 154.10 217.86 151.74 Z" fill="#dfdbd3" />
<path d="M 97.05 151.66 L 96.37 153.71 C 94.56 154.50 92.67 154.82 90.72 155.01 C 92.14 151.90 94.09 152.21 97.05 151.66 Z" fill="#353130" />
<path d="M 63.43 153.03 C 65.37 153.87 67.09 155.49 68.59 156.95 C 64.76 158.77 61.21 159.94 57.02 160.66 C 58.09 162.62 58.77 165.30 61.09 166.05 C 63.15 165.45 65.10 164.50 67.16 163.96 C 68.71 163.89 70.30 164.43 71.81 164.73 C 72.08 163.69 72.35 162.65 72.63 161.60 C 74.83 164.03 77.10 166.35 78.92 169.10 C 80.63 171.33 82.10 174.14 84.32 175.88 C 87.29 176.70 90.40 177.04 93.40 177.75 C 92.36 178.49 91.31 179.21 90.25 179.93 C 93.39 179.38 96.25 179.42 99.40 179.85 L 99.33 180.37 C 94.50 181.14 89.85 182.54 85.08 183.56 C 79.08 181.59 72.87 180.39 66.87 178.37 C 67.51 178.11 68.16 177.85 68.80 177.59 C 65.90 176.12 63.11 175.40 61.51 172.35 C 58.45 166.50 55.27 160.89 51.47 155.48 C 55.36 154.31 59.41 153.59 63.43 153.03 Z" fill="#a59d99" />
<path d="M 180.85 152.26 C 183.59 153.71 186.39 153.90 186.99 157.42 L 186.50 158.01 C 184.03 157.14 181.53 156.32 179.02 155.57 C 179.62 154.47 180.24 153.37 180.85 152.26 Z" fill="#605756" />
<path d="M 51.47 155.48 C 55.27 160.89 58.45 166.50 61.51 172.35 C 63.11 175.40 65.90 176.12 68.80 177.59 C 68.16 177.85 67.51 178.11 66.87 178.37 C 61.21 176.37 57.08 172.49 52.02 169.54 C 51.52 169.27 51.03 169.00 50.54 168.73 C 49.36 167.57 48.21 166.39 47.15 165.13 L 48.15 164.28 C 48.92 163.65 49.70 163.03 50.49 162.42 C 49.79 162.15 49.10 161.89 48.40 161.62 C 48.95 159.24 49.60 157.18 51.47 155.48 Z" fill="#b8a4a5" />
<path d="M 170.45 156.84 C 172.07 157.54 173.91 158.98 173.56 160.97 C 173.04 164.69 171.83 168.30 169.33 171.17 C 168.54 169.82 167.76 168.46 166.99 167.09 C 168.03 166.61 169.08 166.11 170.06 165.53 C 170.68 163.80 170.03 161.56 169.96 159.77 C 167.51 160.30 165.67 160.74 164.12 162.86 C 163.61 160.43 162.57 158.33 161.20 156.28 C 164.13 156.16 167.68 155.76 170.45 156.84 Z" fill="#ccc5c1" />
<path d="M 189.09 155.74 C 192.87 159.83 194.74 164.99 195.63 170.40 C 195.97 172.77 195.24 175.25 194.71 177.55 C 193.63 181.77 193.04 186.06 192.37 190.36 C 189.76 184.16 187.36 177.94 184.01 172.07 C 183.32 172.99 182.66 173.92 181.96 174.82 C 180.69 175.98 179.04 177.79 177.16 177.63 C 173.73 177.46 169.68 176.68 166.44 175.53 C 160.97 173.25 157.29 166.74 159.06 160.90 C 160.40 161.99 161.71 163.10 163.02 164.22 C 163.76 167.28 164.50 171.84 167.49 173.53 C 169.95 174.75 173.02 175.59 175.77 175.50 C 179.39 174.28 180.06 171.23 181.20 168.00 C 182.32 164.26 183.84 160.91 186.50 158.01 L 186.99 157.42 C 187.68 156.84 188.37 156.28 189.09 155.74 Z" fill="#c5bfba" />
<path d="M 68.59 156.95 C 70.04 158.38 71.29 160.06 72.63 161.60 C 72.35 162.65 72.08 163.69 71.81 164.73 C 70.30 164.43 68.71 163.89 67.16 163.96 C 65.10 164.50 63.15 165.45 61.09 166.05 C 58.77 165.30 58.09 162.62 57.02 160.66 C 61.21 159.94 64.76 158.77 68.59 156.95 Z" fill="#877e7a" />
<path d="M 161.20 156.28 C 162.57 158.33 163.61 160.43 164.12 162.86 L 163.02 164.22 C 161.71 163.10 160.40 161.99 159.06 160.90 C 159.71 159.34 160.46 157.80 161.20 156.28 Z" fill="#e7e2df" />
<path d="M 218.37 158.80 L 220.41 158.60 C 221.06 159.93 221.79 161.09 221.80 162.63 C 221.09 163.22 220.25 163.62 219.26 163.81 C 218.21 162.23 218.42 160.61 218.37 158.80 Z" fill="#9c9891" />
<path d="M 123.83 160.83 C 125.57 161.11 127.27 161.91 128.88 162.63 C 127.75 162.80 126.66 163.07 125.59 163.42 C 119.68 169.28 116.96 177.24 112.28 183.38 C 110.09 184.04 107.90 184.68 105.70 185.27 C 106.52 186.25 107.34 187.23 108.16 188.22 C 105.18 188.31 102.22 188.25 99.25 187.94 C 97.75 187.43 96.27 186.86 94.77 186.37 C 98.22 185.24 101.69 184.18 105.14 183.07 C 109.98 181.78 113.34 176.26 116.82 172.85 C 116.55 171.43 116.26 170.01 115.95 168.60 C 117.55 166.63 118.66 164.54 119.42 162.11 C 120.86 161.66 122.33 161.03 123.83 160.83 Z" fill="#a8a5a1" />
<path d="M 117.32 161.97 C 116.17 165.46 114.88 166.38 111.68 167.94 C 113.23 165.45 114.88 163.63 117.32 161.97 Z" fill="#484d65" />
<path d="M 125.59 163.42 C 126.66 163.07 127.75 162.80 128.88 162.63 C 131.63 165.22 131.83 170.44 132.88 173.97 C 133.61 177.41 134.42 180.90 134.85 184.39 C 134.71 186.20 134.51 188.00 134.31 189.80 C 134.94 190.28 135.57 190.76 136.19 191.23 C 133.90 193.21 131.47 195.60 128.71 196.89 C 125.06 198.14 120.47 197.30 118.59 193.60 C 118.82 188.97 119.99 184.42 123.25 180.96 C 125.22 184.45 123.38 186.63 122.15 189.88 C 123.68 189.65 125.20 189.38 126.73 189.14 C 125.85 185.34 125.03 181.54 124.12 177.75 C 121.41 181.10 118.30 184.25 115.93 187.85 C 114.47 191.27 115.45 195.64 114.13 199.14 C 112.50 202.22 109.46 202.87 106.23 202.83 C 101.07 202.61 95.86 202.20 90.79 201.22 C 88.19 200.79 86.31 199.07 83.89 198.34 C 81.56 198.07 79.37 200.33 77.48 201.48 C 75.12 203.18 72.56 203.37 69.78 203.79 C 71.94 199.52 74.72 192.24 80.04 191.39 C 83.33 192.31 86.22 194.45 89.48 195.53 C 97.17 198.19 104.08 195.57 111.03 199.94 C 109.92 197.06 108.31 194.10 107.88 191.04 C 108.43 188.24 110.61 185.62 112.28 183.38 C 116.96 177.24 119.68 169.28 125.59 163.42 Z" fill="#6a5e5c" />
<path d="M 137.24 165.48 C 139.24 166.28 141.17 167.28 143.09 168.24 C 143.06 173.57 143.50 178.80 145.35 183.84 C 141.63 184.96 138.69 185.70 134.85 184.39 C 134.42 180.90 133.61 177.41 132.88 173.97 C 134.93 173.88 136.98 173.73 139.03 173.54 C 136.62 172.01 134.68 170.36 132.81 168.20 C 134.27 167.28 135.74 166.32 137.24 165.48 Z" fill="#aca5a0" />
<path d="M 52.02 169.54 C 57.08 172.49 61.21 176.37 66.87 178.37 C 72.87 180.39 79.08 181.59 85.08 183.56 C 88.27 184.77 91.40 185.75 94.77 186.37 C 96.27 186.86 97.75 187.43 99.25 187.94 C 95.49 187.80 92.03 188.43 88.58 187.39 C 82.58 185.71 76.94 183.00 70.87 181.48 C 65.73 180.22 61.63 177.56 57.15 174.85 C 54.52 173.24 52.53 171.04 50.54 168.73 C 51.03 169.00 51.52 169.27 52.02 169.54 Z" fill="#4e4c56" />
<path d="M 115.95 168.60 C 116.26 170.01 116.55 171.43 116.82 172.85 C 113.34 176.26 109.98 181.78 105.14 183.07 C 101.69 184.18 98.22 185.24 94.77 186.37 C 91.40 185.75 88.27 184.77 85.08 183.56 C 89.85 182.54 94.50 181.14 99.33 180.37 L 99.40 179.85 C 99.51 178.47 99.60 177.08 99.71 175.70 C 98.48 175.43 97.25 175.18 96.01 174.92 C 97.84 174.58 99.64 174.19 101.43 173.68 C 101.31 174.44 101.21 175.20 101.10 175.96 C 103.54 175.39 106.04 175.02 108.45 174.35 C 111.16 172.81 113.51 170.54 115.95 168.60 Z" fill="#cdc7c3" />
<path d="M 83.31 170.20 C 84.42 169.21 86.44 170.47 85.64 171.88 C 84.53 172.86 82.51 171.61 83.31 170.20 Z" fill="#9d93a0" />
<path d="M 184.01 172.07 C 187.36 177.94 189.76 184.16 192.37 190.36 C 191.58 194.95 191.51 199.11 189.13 203.24 C 188.12 201.47 186.93 199.62 186.36 197.66 C 186.35 195.57 187.20 193.48 187.43 191.39 C 187.78 185.06 186.11 179.66 181.96 174.82 C 182.66 173.92 183.32 172.99 184.01 172.07 Z" fill="#817674" />
<path d="M 213.69 171.53 C 215.74 173.04 217.79 174.54 219.86 176.02 C 218.19 178.68 215.40 180.89 215.19 184.07 C 214.77 187.86 214.02 190.52 212.23 193.86 C 206.47 194.87 206.59 200.12 202.48 203.37 C 200.01 205.32 197.62 207.20 195.74 209.78 C 196.80 209.64 197.85 209.50 198.90 209.34 C 198.14 210.39 197.48 211.50 196.68 212.51 C 195.51 212.32 194.37 212.02 193.22 211.72 C 191.44 212.84 189.36 214.50 187.22 214.65 C 186.37 214.02 185.56 213.35 184.78 212.63 C 183.86 214.14 183.10 215.35 182.14 216.85 C 183.07 217.17 184.00 217.48 184.93 217.80 C 183.10 218.56 181.27 219.32 179.45 220.09 C 179.96 219.01 180.46 217.92 180.96 216.82 C 176.70 217.17 172.43 217.92 168.16 218.03 C 165.67 218.16 163.15 216.78 160.87 215.89 C 160.15 216.20 159.42 216.51 158.70 216.82 C 157.53 216.04 156.79 215.10 155.24 215.33 C 150.78 215.58 147.19 216.70 143.21 213.89 C 143.09 214.53 142.98 215.17 142.87 215.81 C 141.89 216.09 140.92 216.37 139.95 216.67 C 139.08 215.81 138.21 214.95 137.33 214.10 C 136.93 214.25 136.54 214.40 136.14 214.55 C 134.49 214.49 132.85 214.44 131.20 214.39 C 132.50 215.14 133.80 215.89 135.13 216.60 C 131.79 216.39 128.45 216.71 125.12 216.48 C 121.56 216.22 118.86 213.82 115.44 214.43 C 110.58 215.15 105.69 217.00 101.66 219.82 C 99.04 216.40 95.66 216.98 91.94 217.72 C 91.38 218.52 90.88 219.34 90.36 220.16 C 90.16 219.23 89.96 218.30 89.75 217.38 C 86.95 217.67 84.42 218.25 81.80 219.26 C 80.01 218.59 78.21 217.87 76.38 217.35 C 72.10 215.95 67.67 215.44 63.31 214.41 C 61.54 214.09 60.83 212.66 59.60 211.47 C 60.60 210.63 61.60 209.79 62.61 208.95 C 61.78 207.27 60.95 205.59 60.13 203.91 C 58.68 204.63 57.23 205.33 55.78 206.03 C 55.63 205.15 55.49 204.26 55.35 203.38 C 53.25 203.40 51.15 203.39 49.05 203.42 C 49.89 204.31 50.74 205.18 51.59 206.05 C 51.03 206.34 50.47 206.62 49.90 206.89 L 48.43 206.74 C 47.93 205.87 47.44 204.99 46.96 204.10 C 44.66 199.08 40.44 196.99 36.00 194.22 C 35.37 191.03 34.51 189.12 32.16 186.82 C 34.81 187.83 37.36 188.64 39.68 190.34 C 43.42 193.06 46.24 196.26 50.56 198.23 C 55.44 200.43 60.37 202.48 65.16 204.85 C 69.21 206.83 73.43 207.44 77.80 208.25 C 83.80 209.55 89.78 209.24 95.85 208.68 C 102.54 207.97 109.00 208.15 115.56 206.43 C 121.01 204.90 126.49 206.48 131.99 204.97 C 142.15 202.70 151.00 204.90 161.26 204.86 C 165.80 205.84 170.35 206.40 174.95 207.00 C 177.36 207.25 178.79 208.72 180.57 210.13 C 182.64 207.76 184.72 205.98 187.94 205.47 C 193.08 205.09 196.98 201.99 200.19 198.20 C 203.86 193.26 203.39 186.00 206.29 180.35 C 207.92 176.70 210.59 173.97 213.69 171.53 Z" fill="#a4a49e" />
<path d="M 86.23 173.21 C 86.80 173.73 86.80 173.73 86.23 173.21 Z" fill="#b5aac0" />
<path d="M 89.15 173.15 C 90.70 172.14 91.66 174.53 89.85 174.88 C 88.87 174.61 88.64 174.03 89.15 173.15 Z" fill="#5d5e7d" />
<path d="M 221.45 173.68 C 222.50 176.23 223.45 178.81 224.23 181.46 C 223.77 184.59 223.17 187.65 222.02 190.62 C 220.97 193.90 218.97 196.66 218.05 199.98 C 217.36 202.01 217.22 203.96 215.23 205.20 C 213.27 206.29 211.01 206.91 208.94 207.76 C 208.60 205.30 209.35 204.11 210.55 202.08 C 209.66 200.63 208.77 199.18 207.88 197.73 C 208.93 197.54 209.99 197.34 211.04 197.15 C 211.42 196.04 211.82 194.95 212.23 193.86 C 214.02 190.52 214.77 187.86 215.19 184.07 C 215.40 180.89 218.19 178.68 219.86 176.02 C 220.39 175.24 220.92 174.46 221.45 173.68 Z" fill="#cacac4" />
<path d="M 28.72 183.74 C 29.87 184.77 31.00 185.81 32.16 186.82 C 34.51 189.12 35.37 191.03 36.00 194.22 C 40.44 196.99 44.66 199.08 46.96 204.10 C 44.09 203.57 41.58 202.57 39.00 201.25 C 39.14 202.35 39.28 203.45 39.41 204.55 C 35.40 200.50 33.19 195.68 30.41 190.82 C 29.44 189.18 28.49 187.53 27.53 185.89 C 27.92 185.17 28.32 184.45 28.72 183.74 Z" fill="#191935" />
<path d="M 134.85 184.39 C 138.69 185.70 141.63 184.96 145.35 183.84 C 146.73 186.51 148.20 189.47 150.37 191.59 C 152.04 192.58 154.02 193.11 155.83 193.80 C 155.15 193.78 154.48 193.76 153.80 193.75 C 151.83 193.73 150.13 193.47 148.42 194.65 C 147.05 194.20 145.80 193.52 144.59 192.75 C 144.50 192.68 144.39 192.64 144.25 192.62 C 141.79 192.16 138.60 190.10 136.19 191.23 C 135.57 190.76 134.94 190.28 134.31 189.80 C 134.51 188.00 134.71 186.20 134.85 184.39 Z" fill="#908684" />
<path d="M 79.13 189.00 C 74.69 191.97 70.02 194.50 65.85 197.87 C 64.06 199.44 62.31 199.71 60.01 199.94 C 60.26 198.39 60.19 196.44 61.03 195.08 C 62.03 194.05 63.54 193.42 64.83 192.83 C 69.77 190.90 73.51 188.08 79.13 189.00 Z" fill="#685c5b" />
<path d="M 30.41 190.82 C 33.19 195.68 35.40 200.50 39.41 204.55 C 39.28 203.45 39.14 202.35 39.00 201.25 C 41.58 202.57 44.09 203.57 46.96 204.10 C 47.44 204.99 47.93 205.87 48.43 206.74 L 49.90 206.89 C 50.88 206.99 51.87 207.10 52.85 207.22 C 52.52 208.68 52.17 210.15 51.82 211.62 C 52.79 212.16 53.76 212.70 54.73 213.25 C 54.38 213.83 54.02 214.41 53.67 214.99 C 50.35 215.46 48.46 216.55 46.70 219.37 C 45.14 219.51 43.58 219.64 42.03 219.82 C 42.67 219.28 43.31 218.74 43.94 218.20 C 41.36 216.73 39.19 216.26 36.24 216.15 C 35.12 211.98 33.63 208.44 31.21 204.86 C 28.60 201.00 27.24 196.82 26.37 192.29 C 27.72 191.79 29.06 191.28 30.41 190.82 Z" fill="#f3f2f1" />
<path d="M 144.59 192.75 L 144.25 192.62 C 144.39 192.64 144.50 192.68 144.59 192.75 Z" fill="#141122" />
<path d="M 147.21 193.37 C 147.70 193.87 147.70 193.87 147.21 193.37 Z" fill="#3a3c4d" />
<path d="M 153.80 193.75 C 155.60 194.71 157.37 195.75 159.13 196.79 L 157.13 196.99 C 154.19 196.46 151.28 195.51 148.42 194.65 C 150.13 193.47 151.83 193.73 153.80 193.75 Z" fill="#3f3b42" />
<path d="M 212.23 193.86 C 211.82 194.95 211.42 196.04 211.04 197.15 C 209.99 197.34 208.93 197.54 207.88 197.73 C 208.77 199.18 209.66 200.63 210.55 202.08 C 209.35 204.11 208.60 205.30 208.94 207.76 C 204.64 209.61 201.53 212.26 196.68 212.51 C 197.48 211.50 198.14 210.39 198.90 209.34 C 197.85 209.50 196.80 209.64 195.74 209.78 C 197.62 207.20 200.01 205.32 202.48 203.37 C 206.59 200.12 206.47 194.87 212.23 193.86 Z" fill="#b3b1ab" />
<path d="M 49.05 203.42 C 51.15 203.39 53.25 203.40 55.35 203.38 C 55.49 204.26 55.63 205.15 55.78 206.03 C 57.23 205.33 58.68 204.63 60.13 203.91 C 60.95 205.59 61.78 207.27 62.61 208.95 C 61.60 209.79 60.60 210.63 59.60 211.47 C 60.83 212.66 61.54 214.09 63.31 214.41 C 67.67 215.44 72.10 215.95 76.38 217.35 C 75.74 218.12 75.12 218.91 74.49 219.69 C 69.88 219.80 65.91 221.34 61.29 222.21 C 61.32 221.32 61.36 220.43 61.39 219.54 C 59.78 219.87 58.17 220.23 56.57 220.61 C 56.69 219.85 56.81 219.09 56.93 218.32 C 55.85 217.21 54.76 216.10 53.67 214.99 C 54.02 214.41 54.38 213.83 54.73 213.25 C 53.76 212.70 52.79 212.16 51.82 211.62 C 52.17 210.15 52.52 208.68 52.85 207.22 C 51.87 207.10 50.88 206.99 49.90 206.89 C 50.47 206.62 51.03 206.34 51.59 206.05 C 50.74 205.18 49.89 204.31 49.05 203.42 Z" fill="#b7b8b0" />
<path d="M 217.49 206.84 C 217.62 207.98 217.75 209.13 217.90 210.28 C 215.48 210.46 213.51 209.64 211.34 208.71 C 213.47 207.29 214.87 206.48 217.49 206.84 Z" fill="#97959f" />
<path d="M 210.70 209.10 C 212.50 211.24 214.14 213.93 216.41 215.57 C 218.80 215.75 221.30 215.41 223.68 215.16 C 222.90 219.39 222.85 223.64 222.90 227.92 C 218.35 228.72 213.77 229.13 209.18 229.65 C 205.18 230.63 200.63 229.78 196.83 230.99 C 192.05 234.32 186.86 235.66 181.15 236.32 C 180.46 236.26 179.78 236.19 179.09 236.11 C 178.68 237.00 178.27 237.90 177.85 238.79 C 177.01 238.09 176.17 237.40 175.33 236.71 C 171.47 238.88 167.38 239.23 163.20 240.42 C 158.79 241.63 154.29 242.39 149.74 242.78 C 143.91 243.35 138.23 242.00 132.39 242.44 C 128.06 242.72 123.85 242.10 119.58 241.46 C 111.60 240.24 104.02 241.12 96.21 238.68 C 92.73 237.45 89.50 238.11 85.96 238.11 C 83.07 237.48 80.57 235.36 77.71 234.52 C 73.74 233.37 69.34 233.51 65.25 233.45 C 61.32 233.39 57.42 232.64 53.48 232.29 C 51.54 232.01 49.07 231.94 47.84 230.16 C 46.92 227.93 46.55 225.73 44.84 223.88 C 50.74 224.78 55.67 223.90 61.29 222.21 C 65.91 221.34 69.88 219.80 74.49 219.69 C 72.19 223.04 68.93 224.10 65.39 225.65 C 67.56 226.29 69.67 226.88 71.95 226.73 C 75.23 226.73 78.36 224.61 81.67 224.15 C 84.31 224.26 86.45 224.12 88.77 222.69 C 89.36 224.29 89.88 225.91 90.38 227.54 C 94.01 224.76 98.07 222.66 101.66 219.82 C 105.69 217.00 110.58 215.15 115.44 214.43 C 118.86 213.82 121.56 216.22 125.12 216.48 C 128.45 216.71 131.79 216.39 135.13 216.60 C 138.57 217.19 142.03 217.43 145.51 217.63 C 148.76 217.77 151.13 219.29 154.08 220.44 C 154.72 220.70 155.36 220.96 156.01 221.22 C 155.55 222.07 155.10 222.93 154.67 223.79 C 150.24 223.58 145.79 223.33 141.40 222.77 C 134.33 221.94 127.25 221.78 120.24 220.74 C 116.69 220.02 113.08 218.56 109.42 219.35 C 107.23 219.87 104.90 220.67 103.12 222.06 C 101.75 223.83 100.98 225.73 99.24 227.23 C 96.95 229.15 94.41 230.79 92.02 232.60 C 94.43 232.04 97.21 231.01 99.67 231.47 C 104.41 232.43 109.16 231.87 113.86 233.17 C 119.09 234.25 124.11 233.71 129.35 233.50 C 132.65 233.34 134.84 235.24 138.01 235.70 C 144.59 236.60 151.35 236.43 157.94 235.80 C 160.82 235.47 163.55 234.86 165.40 232.44 C 168.22 228.91 170.67 225.20 174.07 222.16 C 176.77 222.18 179.42 222.55 182.11 222.76 C 190.91 222.55 199.04 219.54 205.82 213.92 C 207.48 212.22 208.55 210.30 210.70 209.10 Z" fill="#f3f3f1" />
<path d="M 210.70 209.10 L 211.34 208.71 C 213.51 209.64 215.48 210.46 217.90 210.28 C 223.29 210.06 228.68 210.32 234.07 210.20 C 233.47 216.17 232.17 222.01 231.83 228.00 C 231.64 229.84 231.64 232.05 230.75 233.71 C 223.38 238.12 216.38 235.54 208.32 235.80 C 210.02 233.56 209.76 232.30 209.18 229.65 C 213.77 229.13 218.35 228.72 222.90 227.92 C 222.85 223.64 222.90 219.39 223.68 215.16 C 221.30 215.41 218.80 215.75 216.41 215.57 C 214.14 213.93 212.50 211.24 210.70 209.10 Z" fill="#7d7371" />
<path d="M 53.67 214.99 C 54.76 216.10 55.85 217.21 56.93 218.32 C 56.81 219.09 56.69 219.85 56.57 220.61 C 58.17 220.23 59.78 219.87 61.39 219.54 C 61.36 220.43 61.32 221.32 61.29 222.21 C 55.67 223.90 50.74 224.78 44.84 223.88 C 42.96 223.28 41.95 222.42 40.68 220.96 L 42.03 219.82 C 43.58 219.64 45.14 219.51 46.70 219.37 C 48.46 216.55 50.35 215.46 53.67 214.99 Z" fill="#1e1e38" />
<path d="M 76.38 217.35 C 78.21 217.87 80.01 218.59 81.80 219.26 C 81.77 220.89 81.72 222.52 81.67 224.15 C 78.36 224.61 75.23 226.73 71.95 226.73 C 69.67 226.88 67.56 226.29 65.39 225.65 C 68.93 224.10 72.19 223.04 74.49 219.69 C 75.12 218.91 75.74 218.12 76.38 217.35 Z" fill="#25263e" />
<path d="M 89.75 217.38 C 89.96 218.30 90.16 219.23 90.36 220.16 C 89.84 221.01 89.31 221.86 88.77 222.69 C 86.45 224.12 84.31 224.26 81.67 224.15 C 81.72 222.52 81.77 220.89 81.80 219.26 C 84.42 218.25 86.95 217.67 89.75 217.38 Z" fill="#bfc1ba" />
<path d="M 91.94 217.72 C 95.66 216.98 99.04 216.40 101.66 219.82 C 98.07 222.66 94.01 224.76 90.38 227.54 C 89.88 225.91 89.36 224.29 88.77 222.69 C 89.31 221.86 89.84 221.01 90.36 220.16 C 90.88 219.34 91.38 218.52 91.94 217.72 Z" fill="#24253c" />
<path d="M 158.80 219.28 C 158.24 219.84 157.67 220.39 157.10 220.95 C 162.91 220.34 168.28 222.14 174.07 222.16 C 170.67 225.20 168.22 228.91 165.40 232.44 C 163.55 234.86 160.82 235.47 157.94 235.80 C 151.35 236.43 144.59 236.60 138.01 235.70 C 134.84 235.24 132.65 233.34 129.35 233.50 C 124.11 233.71 119.09 234.25 113.86 233.17 C 116.80 233.33 119.82 233.24 122.77 233.17 C 121.99 231.89 121.21 230.62 120.44 229.34 C 120.99 229.15 121.53 228.97 122.07 228.78 C 121.07 226.14 120.53 223.55 120.24 220.74 C 127.25 221.78 134.33 221.94 141.40 222.77 C 145.79 223.33 150.24 223.58 154.67 223.79 C 155.10 222.93 155.55 222.07 156.01 221.22 C 155.36 220.96 154.72 220.70 154.08 220.44 C 153.90 219.39 153.73 218.34 153.55 217.28 C 155.30 217.95 157.05 218.62 158.80 219.28 Z" fill="#6a5f5e" />
<path d="M 109.42 219.35 C 113.08 218.56 116.69 220.02 120.24 220.74 C 120.53 223.55 121.07 226.14 122.07 228.78 C 121.53 228.97 120.99 229.15 120.44 229.34 C 121.21 230.62 121.99 231.89 122.77 233.17 C 119.82 233.24 116.80 233.33 113.86 233.17 C 109.16 231.87 104.41 232.43 99.67 231.47 C 97.21 231.01 94.43 232.04 92.02 232.60 C 94.41 230.79 96.95 229.15 99.24 227.23 C 100.98 225.73 101.75 223.83 103.12 222.06 C 104.90 220.67 107.23 219.87 109.42 219.35 Z" fill="#474140" />
<path d="M 196.83 230.99 C 200.63 229.78 205.18 230.63 209.18 229.65 C 209.76 232.30 210.02 233.56 208.32 235.80 C 202.88 235.35 197.45 235.42 192.09 236.50 C 188.42 236.60 184.80 236.76 181.15 236.32 C 186.86 235.66 192.05 234.32 196.83 230.99 Z" fill="#423f3e" />
</svg>