<?xml version="1.0" encoding="UTF-8" standalone="no"?>
<!DOCTYPE svg PUBLIC "-//W3C//DTD SVG 1.1//EN" "http://www.w3.org/Graphics/SVG/1.1/DTD/svg11.dtd">
<svg xmlns="http://www.w3.org/2000/svg" version="1.1" viewBox="0 0 256 256" width="256.0pt" height="256.0pt">
<path d="M 0.00 0.00 L 256.00 0.00 L 256.00 256.00 L 0.00 256.00 L 0.00 0.00 Z" fill="#fefefe" />
<path d="M 137.13 14.92 C 144.30 17.70 150.26 22.28 157.96 24.05 C 167.44 26.48 175.53 23.97 185.00 23.95 C 192.05 23.93 199.03 23.65 205.88 25.13 C 213.23 26.72 220.80 28.55 227.05 32.94 C 235.09 38.55 240.88 48.02 241.03 57.96 C 241.65 67.41 239.77 76.58 239.93 86.00 C 239.95 90.59 239.79 95.31 240.27 99.86 C 240.96 106.35 243.06 113.34 242.78 119.84 C 242.46 126.08 239.82 132.32 236.52 137.55 C 234.53 140.79 232.01 144.20 230.86 147.83 C 229.48 152.59 229.64 157.89 230.36 162.75 C 232.17 173.57 238.65 183.82 241.89 194.08 C 244.48 202.32 243.28 211.40 240.41 219.40 C 237.56 227.14 233.17 234.49 227.34 240.34 C 220.69 247.23 209.73 249.56 200.61 247.33 C 191.31 244.80 182.98 239.04 173.04 238.89 C 162.40 238.35 153.52 241.64 143.14 243.13 C 132.49 244.72 122.92 247.92 112.03 248.01 C 101.63 248.12 90.88 248.18 80.63 246.26 C 71.14 243.84 61.87 241.16 52.95 237.09 C 43.60 233.03 33.54 227.98 26.18 220.82 C 19.46 214.17 15.86 205.38 14.83 196.07 C 11.96 177.42 16.90 160.73 16.00 141.97 C 15.35 132.66 14.74 123.35 14.05 114.03 C 13.69 107.66 13.86 101.29 15.00 95.00 C 16.68 85.69 15.68 75.11 17.92 65.84 C 19.91 59.20 24.61 53.03 30.88 49.91 C 37.13 46.73 43.39 44.53 49.06 40.07 C 53.42 36.64 55.95 31.99 59.74 27.74 C 63.52 23.48 67.58 19.82 73.19 18.23 C 81.71 15.89 90.63 15.24 99.25 13.22 C 111.75 10.79 124.96 10.87 137.13 14.92 Z" fill="#f4f3f2" />
<path d="M 105.20 21.00 C 105.39 23.19 105.67 25.69 105.07 27.83 C 104.07 30.24 102.28 32.40 100.65 34.41 C 97.48 33.38 96.47 32.25 94.77 29.48 C 98.08 26.46 101.59 23.65 105.20 21.00 Z" fill="#23213a" />
<path d="M 133.26 23.28 C 134.97 23.16 136.65 22.72 137.75 24.39 C 138.07 26.74 137.10 28.56 136.16 30.61 C 134.84 31.45 133.54 32.33 132.21 33.15 C 126.39 35.39 120.30 35.75 113.87 36.71 C 115.15 34.74 116.49 32.82 117.83 30.90 C 116.92 30.72 116.01 30.55 115.11 30.39 C 117.38 28.60 119.94 27.55 122.70 26.77 C 126.27 25.76 129.66 24.12 133.26 23.28 Z" fill="#21223b" />
<path d="M 131.13 24.94 C 132.78 24.50 133.17 26.30 131.76 26.99 C 130.11 27.42 129.73 25.63 131.13 24.94 Z" fill="#635f69" />
<path d="M 72.80 27.87 C 73.25 30.71 74.11 33.82 73.74 36.70 C 73.04 38.70 71.90 40.59 70.91 42.47 C 69.81 41.95 68.70 41.45 67.58 40.98 C 69.03 36.38 69.99 31.90 72.80 27.87 Z" fill="#1b1935" />
<path d="M 94.77 29.48 C 96.47 32.25 97.48 33.38 100.65 34.41 C 100.25 34.89 99.85 35.39 99.46 35.88 C 97.94 35.70 96.41 35.51 94.88 35.34 C 94.03 34.13 93.19 32.91 92.34 31.70 C 93.17 30.98 93.96 30.22 94.77 29.48 Z" fill="#885e59" />
<path d="M 139.67 28.82 C 140.58 31.98 141.82 35.51 140.86 38.78 C 140.25 43.12 134.60 45.07 131.73 48.03 C 134.81 46.72 137.61 44.99 140.46 43.27 C 140.65 44.47 140.84 45.67 141.03 46.87 C 138.94 47.83 136.87 49.05 134.68 49.77 C 132.35 50.20 129.51 49.38 127.32 50.31 C 124.51 51.49 122.27 54.40 120.38 56.69 C 118.56 56.78 116.74 56.85 114.91 56.87 C 119.27 53.18 124.16 50.06 128.92 46.91 C 132.63 44.40 136.27 42.75 138.32 38.50 C 139.23 35.33 139.45 32.10 139.67 28.82 Z" fill="#55464e" />
<path d="M 115.11 30.39 C 116.01 30.55 116.92 30.72 117.83 30.90 C 116.49 32.82 115.15 34.74 113.87 36.71 C 120.30 35.75 126.39 35.39 132.21 33.15 C 131.53 34.42 130.98 36.01 129.92 37.00 C 127.36 38.57 124.14 39.08 121.61 40.68 C 119.91 42.46 118.85 44.92 117.60 47.03 C 116.16 47.43 114.56 47.72 113.25 48.46 C 112.22 49.90 111.67 51.74 111.03 53.37 C 112.31 53.85 113.60 54.33 114.88 54.81 C 109.92 58.85 103.80 59.26 98.50 62.57 C 97.58 62.62 96.65 62.66 95.72 62.71 C 100.76 57.25 103.93 51.22 105.96 44.09 C 106.73 41.90 104.62 39.38 103.76 37.47 C 108.11 35.92 111.50 33.15 115.11 30.39 Z" fill="#bc7f70" />
<path d="M 136.16 30.61 C 136.86 33.24 137.57 35.88 138.32 38.50 C 136.27 42.75 132.63 44.40 128.92 46.91 C 124.16 50.06 119.27 53.18 114.91 56.87 C 116.74 56.85 118.56 56.78 120.38 56.69 C 121.01 57.48 121.64 58.27 122.26 59.06 C 119.33 62.11 116.81 65.47 114.55 69.04 C 116.03 70.08 117.49 71.12 119.03 72.08 C 115.45 71.56 113.17 70.76 110.94 67.86 C 110.02 68.08 109.10 68.29 108.18 68.50 C 108.54 70.89 109.03 73.22 109.89 75.49 C 107.60 79.32 105.47 81.99 101.15 83.61 C 98.32 82.05 95.06 80.55 92.73 78.28 C 91.14 76.48 90.38 73.83 89.45 71.64 C 89.88 70.74 90.30 69.83 90.72 68.92 C 90.93 69.67 91.14 70.43 91.35 71.18 C 92.23 73.85 92.95 76.90 95.34 78.66 C 97.48 80.20 100.70 81.80 103.28 80.42 C 105.05 79.51 106.86 77.33 106.03 75.24 C 105.38 72.71 103.66 71.27 101.93 69.47 C 100.93 71.05 99.92 72.63 98.89 74.19 C 100.40 74.40 101.91 74.62 103.42 74.87 C 102.34 75.51 101.23 76.49 99.98 76.72 C 98.34 76.83 96.83 75.11 95.55 74.23 C 96.89 72.48 98.16 70.40 99.91 69.02 C 102.51 68.20 105.63 68.60 107.75 66.84 C 110.50 64.81 112.96 62.44 115.16 59.83 C 109.62 59.91 106.14 62.94 102.07 66.19 C 100.88 64.99 99.69 63.78 98.50 62.57 C 103.80 59.26 109.92 58.85 114.88 54.81 C 113.60 54.33 112.31 53.85 111.03 53.37 C 111.67 51.74 112.22 49.90 113.25 48.46 C 114.56 47.72 116.16 47.43 117.60 47.03 C 118.85 44.92 119.91 42.46 121.61 40.68 C 124.14 39.08 127.36 38.57 129.92 37.00 C 130.98 36.01 131.53 34.42 132.21 33.15 C 133.54 32.33 134.84 31.45 136.16 30.61 Z" fill="#cda194" />
<path d="M 92.34 31.70 C 93.19 32.91 94.03 34.13 94.88 35.34 C 96.41 35.51 97.94 35.70 99.46 35.88 C 99.04 36.69 98.65 37.50 98.26 38.32 C 100.10 38.07 101.94 37.81 103.76 37.47 C 104.62 39.38 106.73 41.90 105.96 44.09 C 103.93 51.22 100.76 57.25 95.72 62.71 C 93.75 65.28 92.54 68.19 91.35 71.18 C 91.14 70.43 90.93 69.67 90.72 68.92 C 90.30 69.83 89.88 70.74 89.45 71.64 C 89.08 72.39 88.70 73.12 88.28 73.84 C 85.92 76.01 83.26 77.89 80.74 79.87 C 79.34 79.03 77.72 77.85 76.07 77.70 C 74.44 77.82 72.82 78.40 71.25 78.85 C 68.40 78.87 65.53 78.83 62.69 78.62 C 61.76 78.14 60.84 77.67 59.90 77.23 C 55.69 79.30 52.20 82.32 47.86 84.19 C 43.86 85.99 39.84 87.73 35.95 89.77 C 40.55 82.91 42.63 74.90 47.09 67.92 C 48.05 70.45 48.10 74.22 51.51 74.53 C 55.33 74.42 59.19 72.80 62.85 71.77 C 66.51 70.79 69.18 68.51 72.08 66.21 C 78.08 62.29 82.86 57.15 88.26 52.51 C 88.74 52.11 89.23 51.71 89.72 51.32 C 87.47 51.21 85.22 51.11 82.98 51.02 C 85.54 50.09 88.39 49.22 90.58 47.56 C 93.78 45.13 95.95 42.03 98.07 38.67 C 93.33 39.79 88.53 40.77 83.85 42.11 C 80.81 42.98 78.04 45.45 74.93 45.84 C 73.41 45.18 72.22 43.51 70.91 42.47 C 78.93 41.78 85.47 35.90 92.34 31.70 Z" fill="#b46c5c" />
<path d="M 155.56 36.92 C 156.53 37.45 157.48 38.02 158.45 38.55 C 157.24 39.76 156.03 40.96 154.77 42.12 C 150.29 44.03 145.51 44.99 141.03 46.87 C 140.84 45.67 140.65 44.47 140.46 43.27 C 145.07 40.34 150.29 38.30 155.56 36.92 Z" fill="#6b666d" />
<path d="M 172.81 36.21 C 172.46 37.56 172.11 38.90 171.77 40.24 C 168.79 41.98 165.77 43.64 162.89 45.54 C 163.12 43.63 163.37 41.72 163.56 39.80 C 161.65 40.64 159.78 41.57 158.03 42.72 C 156.95 42.50 155.86 42.30 154.77 42.12 C 156.03 40.96 157.24 39.76 158.45 38.55 C 162.76 40.25 168.48 37.05 172.81 36.21 Z" fill="#99969b" />
<path d="M 212.32 36.76 C 217.88 38.81 222.95 41.53 226.41 46.51 C 228.59 49.40 228.38 52.55 228.73 55.97 C 228.94 59.36 230.15 62.64 230.20 66.01 C 230.06 69.29 228.39 72.66 227.35 75.76 C 225.82 76.58 224.33 77.46 222.84 78.34 C 218.70 77.24 214.73 75.66 210.62 74.48 C 207.12 73.49 203.64 73.53 200.05 73.64 C 198.94 71.49 197.89 69.31 196.72 67.18 C 201.26 69.62 205.69 72.44 211.02 72.40 C 214.79 72.54 218.07 69.91 220.35 67.16 C 222.82 63.66 224.59 60.32 223.20 55.95 C 222.21 52.00 220.57 48.29 217.59 45.43 C 213.73 41.78 209.24 38.42 203.88 37.49 C 206.53 37.05 209.67 36.14 212.32 36.76 Z" fill="#a8533c" />
<path d="M 98.07 38.67 C 95.95 42.03 93.78 45.13 90.58 47.56 C 88.39 49.22 85.54 50.09 82.98 51.02 C 85.22 51.11 87.47 51.21 89.72 51.32 C 89.23 51.71 88.74 52.11 88.26 52.51 C 82.89 51.94 77.44 51.98 72.06 52.31 C 68.26 52.52 65.87 54.85 63.24 57.28 C 60.17 60.22 56.68 62.55 53.05 64.72 C 59.42 64.89 65.75 65.44 72.08 66.21 C 69.18 68.51 66.51 70.79 62.85 71.77 C 59.19 72.80 55.33 74.42 51.51 74.53 C 48.10 74.22 48.05 70.45 47.09 67.92 C 48.35 66.17 49.78 64.58 51.18 62.94 C 53.65 60.51 53.38 57.72 53.31 54.52 L 54.08 53.91 C 58.52 53.41 62.50 53.12 65.62 49.48 C 66.88 47.42 65.14 46.30 64.06 44.72 C 65.32 43.56 66.51 42.32 67.58 40.98 C 68.70 41.45 69.81 41.95 70.91 42.47 C 72.22 43.51 73.41 45.18 74.93 45.84 C 78.04 45.45 80.81 42.98 83.85 42.11 C 88.53 40.77 93.33 39.79 98.07 38.67 Z" fill="#ac5c47" />
<path d="M 203.88 37.49 C 209.24 38.42 213.73 41.78 217.59 45.43 C 220.57 48.29 222.21 52.00 223.20 55.95 C 223.23 57.33 223.25 58.71 223.25 60.09 C 221.63 57.63 219.98 55.19 218.33 52.75 C 216.24 49.90 214.88 46.12 212.26 43.77 C 208.92 41.64 204.47 40.99 200.60 40.52 C 197.61 40.11 195.77 41.86 193.72 43.71 C 187.05 50.49 180.02 54.78 177.93 64.81 C 176.72 70.91 178.45 77.62 176.07 83.15 C 173.78 88.72 169.13 93.63 165.44 98.39 C 163.65 100.79 161.40 102.61 159.04 104.41 C 155.40 107.15 155.53 111.96 152.11 115.12 C 147.77 119.16 141.88 120.84 136.29 122.34 C 129.16 124.19 121.79 123.46 114.57 125.17 C 108.48 126.09 103.39 129.25 100.51 134.79 C 98.81 137.84 97.14 140.88 95.24 143.81 C 91.97 148.57 87.62 152.63 83.79 156.94 L 82.96 157.21 C 84.56 153.52 86.26 149.92 87.14 145.97 C 84.45 148.31 81.22 151.14 80.61 154.84 C 80.13 157.37 79.51 159.67 77.82 161.71 C 77.31 160.38 76.67 158.68 77.09 157.25 C 78.34 152.69 82.33 148.91 83.36 144.37 C 83.89 142.18 83.32 140.15 82.41 138.17 C 81.13 135.34 79.45 132.11 79.24 128.98 C 80.25 125.28 82.44 121.95 83.58 118.26 C 84.90 116.93 86.24 115.64 87.58 114.33 C 94.03 109.32 102.96 107.20 110.99 106.84 C 115.51 106.44 119.90 108.25 124.31 107.47 C 130.11 106.74 135.55 105.77 140.59 102.65 C 146.89 98.33 150.89 92.56 156.29 87.60 C 158.88 84.95 161.42 82.34 164.34 80.05 C 165.52 78.87 166.58 77.59 167.55 76.24 C 170.43 72.20 171.81 67.68 173.91 63.25 C 175.43 59.97 176.88 56.42 177.38 52.83 C 177.39 49.81 175.46 48.38 173.11 46.94 C 170.87 48.25 168.73 49.71 166.47 50.99 C 163.61 52.03 159.78 53.28 156.81 52.23 C 155.43 51.42 154.47 49.83 153.42 48.65 C 157.27 48.47 159.73 47.73 162.89 45.54 C 165.77 43.64 168.79 41.98 171.77 40.24 C 172.57 39.76 173.36 39.27 174.15 38.77 C 177.03 40.39 179.44 42.12 181.68 44.56 C 180.60 46.84 180.14 49.00 179.89 51.50 C 184.64 48.30 188.05 43.89 193.12 41.09 C 196.43 39.02 200.08 38.17 203.88 37.49 Z" fill="#1f223f" />
<path d="M 163.56 39.80 C 163.37 41.72 163.12 43.63 162.89 45.54 C 159.73 47.73 157.27 48.47 153.42 48.65 C 155.02 46.72 156.49 44.69 158.03 42.72 C 159.78 41.57 161.65 40.64 163.56 39.80 Z" fill="#777279" />
<path d="M 200.60 40.52 C 204.47 40.99 208.92 41.64 212.26 43.77 C 214.88 46.12 216.24 49.90 218.33 52.75 C 218.03 55.82 217.69 58.89 217.21 61.93 C 213.54 65.07 208.54 67.66 203.63 67.72 C 201.02 67.98 200.41 64.84 199.26 63.13 C 200.34 61.93 201.42 60.71 202.54 59.54 C 203.54 60.35 204.54 61.14 205.55 61.92 C 206.90 62.47 207.92 63.26 209.37 62.47 C 211.49 61.37 213.15 59.15 214.68 57.36 C 215.61 55.42 216.37 53.61 215.63 51.43 C 214.47 47.94 212.47 44.35 208.77 43.11 C 206.14 42.21 203.41 41.20 200.78 42.67 C 195.74 45.12 194.02 51.11 190.22 55.22 C 185.80 60.17 182.19 65.47 180.50 71.98 C 179.73 74.07 178.83 76.11 178.06 78.21 C 178.22 73.73 177.94 69.28 177.93 64.81 C 180.02 54.78 187.05 50.49 193.72 43.71 C 195.77 41.86 197.61 40.11 200.60 40.52 Z" fill="#a95843" />
<path d="M 154.77 42.12 C 155.86 42.30 156.95 42.50 158.03 42.72 C 156.49 44.69 155.02 46.72 153.42 48.65 C 148.33 52.09 142.93 54.84 137.64 57.97 C 133.08 60.48 128.97 63.02 126.18 67.58 C 129.25 69.83 131.99 71.90 133.26 75.65 C 132.51 75.24 131.76 74.83 131.01 74.42 C 129.01 72.88 127.13 70.84 124.86 69.72 C 123.28 69.26 121.49 69.39 119.86 69.28 C 121.40 66.35 122.87 63.50 124.83 60.80 C 127.55 57.03 130.83 54.21 134.00 50.63 C 129.29 52.39 125.62 55.40 122.26 59.06 C 121.64 58.27 121.01 57.48 120.38 56.69 C 122.27 54.40 124.51 51.49 127.32 50.31 C 129.51 49.38 132.35 50.20 134.68 49.77 C 136.87 49.05 138.94 47.83 141.03 46.87 C 145.51 44.99 150.29 44.03 154.77 42.12 Z" fill="#e3c9c3" />
<path d="M 208.77 43.11 C 212.47 44.35 214.47 47.94 215.63 51.43 C 216.37 53.61 215.61 55.42 214.68 57.36 C 211.24 53.37 208.45 49.40 203.41 47.29 C 200.38 50.17 197.81 53.44 194.77 56.29 C 189.12 60.93 186.58 68.12 180.50 71.98 C 182.19 65.47 185.80 60.17 190.22 55.22 C 194.02 51.11 195.74 45.12 200.78 42.67 C 203.41 41.20 206.14 42.21 208.77 43.11 Z" fill="#d9b3aa" />
<path d="M 64.06 44.72 C 65.14 46.30 66.88 47.42 65.62 49.48 C 62.50 53.12 58.52 53.41 54.08 53.91 C 57.43 50.87 60.62 47.66 64.06 44.72 Z" fill="#b27466" />
<path d="M 173.11 46.94 C 175.46 48.38 177.39 49.81 177.38 52.83 C 176.88 56.42 175.43 59.97 173.91 63.25 C 171.68 61.15 170.12 58.99 168.70 56.28 C 170.55 56.21 172.40 56.16 174.25 56.13 C 171.00 54.92 168.85 53.55 166.47 50.99 C 168.73 49.71 170.87 48.25 173.11 46.94 Z" fill="#d8b6ae" />
<path d="M 203.41 47.29 C 208.45 49.40 211.24 53.37 214.68 57.36 C 213.15 59.15 211.49 61.37 209.37 62.47 C 207.92 63.26 206.90 62.47 205.55 61.92 C 207.91 60.43 210.13 60.08 210.57 56.93 C 207.59 57.43 204.88 57.35 202.54 59.54 C 201.42 60.71 200.34 61.93 199.26 63.13 C 200.41 64.84 201.02 67.98 203.63 67.72 C 208.54 67.66 213.54 65.07 217.21 61.93 C 218.21 61.05 219.18 60.13 220.16 59.23 C 220.88 61.97 221.21 64.38 220.35 67.16 C 218.07 69.91 214.79 72.54 211.02 72.40 C 205.69 72.44 201.26 69.62 196.72 67.18 C 195.76 65.57 194.36 63.82 194.06 61.94 C 194.05 60.07 194.46 58.13 194.77 56.29 C 197.81 53.44 200.38 50.17 203.41 47.29 Z" fill="#21213b" />
<path d="M 153.42 48.65 C 154.47 49.83 155.43 51.42 156.81 52.23 C 159.78 53.28 163.61 52.03 166.47 50.99 C 168.85 53.55 171.00 54.92 174.25 56.13 C 172.40 56.16 170.55 56.21 168.70 56.28 C 170.12 58.99 171.68 61.15 173.91 63.25 C 171.81 67.68 170.43 72.20 167.55 76.24 C 164.25 75.82 160.94 75.53 157.63 75.26 C 158.59 72.48 159.67 69.78 160.91 67.11 C 159.62 68.39 158.31 69.65 157.00 70.91 C 155.89 68.29 155.00 65.07 153.08 62.94 C 150.53 61.59 147.68 60.79 145.02 59.64 C 143.83 60.44 142.63 61.24 141.44 62.04 C 140.16 60.69 138.90 59.34 137.64 57.97 C 142.93 54.84 148.33 52.09 153.42 48.65 Z" fill="#c68d7e" />
<path d="M 134.00 50.63 C 130.83 54.21 127.55 57.03 124.83 60.80 C 122.87 63.50 121.40 66.35 119.86 69.28 C 121.49 69.39 123.28 69.26 124.86 69.72 C 127.13 70.84 129.01 72.88 131.01 74.42 C 127.04 72.71 123.25 72.41 119.03 72.08 C 117.49 71.12 116.03 70.08 114.55 69.04 C 116.81 65.47 119.33 62.11 122.26 59.06 C 125.62 55.40 129.29 52.39 134.00 50.63 Z" fill="#f7f1ee" />
<path d="M 72.06 52.31 C 77.44 51.98 82.89 51.94 88.26 52.51 C 82.86 57.15 78.08 62.29 72.08 66.21 C 65.75 65.44 59.42 64.89 53.05 64.72 C 56.68 62.55 60.17 60.22 63.24 57.28 C 65.87 54.85 68.26 52.52 72.06 52.31 Z" fill="#060102" />
<path d="M 218.33 52.75 C 219.98 55.19 221.63 57.63 223.25 60.09 C 223.25 58.71 223.23 57.33 223.20 55.95 C 224.59 60.32 222.82 63.66 220.35 67.16 C 221.21 64.38 220.88 61.97 220.16 59.23 C 219.18 60.13 218.21 61.05 217.21 61.93 C 217.69 58.89 218.03 55.82 218.33 52.75 Z" fill="#52363b" />
<path d="M 53.31 54.52 C 50.90 56.35 48.48 58.16 46.00 59.90 C 47.73 60.92 49.45 61.93 51.18 62.94 C 49.78 64.58 48.35 66.17 47.09 67.92 C 42.63 74.90 40.55 82.91 35.95 89.77 C 35.64 91.15 35.43 92.53 35.24 93.92 C 34.59 93.29 33.94 92.65 33.30 92.01 C 29.08 85.49 27.64 78.36 26.00 70.91 C 25.05 66.95 26.74 63.27 30.13 61.16 C 37.34 57.02 44.81 53.95 53.31 54.52 Z" fill="#1f223f" />
<path d="M 53.31 54.52 C 53.38 57.72 53.65 60.51 51.18 62.94 C 49.45 61.93 47.73 60.92 46.00 59.90 C 48.48 58.16 50.90 56.35 53.31 54.52 Z" fill="#3f2c37" />
<path d="M 194.77 56.29 C 194.46 58.13 194.05 60.07 194.06 61.94 C 194.36 63.82 195.76 65.57 196.72 67.18 C 197.89 69.31 198.94 71.49 200.05 73.64 C 198.73 74.69 197.41 75.75 196.10 76.80 C 193.93 75.93 191.53 74.58 189.17 74.51 C 185.72 75.17 182.02 77.08 180.08 80.11 C 179.34 80.37 178.60 80.62 177.86 80.88 C 177.93 79.99 177.99 79.10 178.06 78.21 C 178.83 76.11 179.73 74.07 180.50 71.98 C 186.58 68.12 189.12 60.93 194.77 56.29 Z" fill="#d7c7ad" />
<path d="M 73.06 56.20 C 73.91 57.86 74.75 59.52 75.59 61.18 C 74.01 62.31 72.36 64.60 70.19 63.92 C 67.90 63.83 67.55 61.07 67.42 59.27 C 68.53 56.56 70.59 56.79 73.06 56.20 Z" fill="#80b4ba" />
<path d="M 210.57 56.93 C 210.13 60.08 207.91 60.43 205.55 61.92 C 204.54 61.14 203.54 60.35 202.54 59.54 C 204.88 57.35 207.59 57.43 210.57 56.93 Z" fill="#e2dcc7" />
<path d="M 137.64 57.97 C 138.90 59.34 140.16 60.69 141.44 62.04 C 142.63 61.24 143.83 60.44 145.02 59.64 C 147.68 60.79 150.53 61.59 153.08 62.94 C 155.00 65.07 155.89 68.29 157.00 70.91 C 158.31 69.65 159.62 68.39 160.91 67.11 C 159.67 69.78 158.59 72.48 157.63 75.26 C 160.94 75.53 164.25 75.82 167.55 76.24 C 166.58 77.59 165.52 78.87 164.34 80.05 C 161.54 78.80 158.58 77.09 155.41 77.55 C 150.69 78.17 145.99 79.01 141.24 79.46 C 140.44 79.33 139.64 79.19 138.84 79.04 C 136.99 77.89 135.15 76.74 133.26 75.65 C 131.99 71.90 129.25 69.83 126.18 67.58 C 128.97 63.02 133.08 60.48 137.64 57.97 Z" fill="#cc9a8c" />
<path d="M 115.16 59.83 C 112.96 62.44 110.50 64.81 107.75 66.84 C 105.63 68.60 102.51 68.20 99.91 69.02 C 98.16 70.40 96.89 72.48 95.55 74.23 C 96.83 75.11 98.34 76.83 99.98 76.72 C 101.23 76.49 102.34 75.51 103.42 74.87 C 101.91 74.62 100.40 74.40 98.89 74.19 C 99.92 72.63 100.93 71.05 101.93 69.47 C 103.66 71.27 105.38 72.71 106.03 75.24 C 106.86 77.33 105.05 79.51 103.28 80.42 C 100.70 81.80 97.48 80.20 95.34 78.66 C 92.95 76.90 92.23 73.85 91.35 71.18 C 92.54 68.19 93.75 65.28 95.72 62.71 C 96.65 62.66 97.58 62.62 98.50 62.57 C 99.69 63.78 100.88 64.99 102.07 66.19 C 106.14 62.94 109.62 59.91 115.16 59.83 Z" fill="#655039" />
<path d="M 177.93 64.81 C 177.94 69.28 178.22 73.73 178.06 78.21 C 177.99 79.10 177.93 79.99 177.86 80.88 C 178.60 80.62 179.34 80.37 180.08 80.11 C 179.61 81.70 179.18 83.31 178.74 84.92 C 177.39 89.75 176.26 94.33 173.58 98.65 L 172.68 99.79 C 167.78 104.87 166.03 111.08 163.09 117.27 C 160.78 118.15 158.53 118.69 157.04 120.82 C 155.31 123.15 153.63 125.59 152.22 128.13 C 150.90 130.29 151.45 133.36 151.88 135.73 C 143.52 140.61 138.01 147.07 128.10 149.02 C 125.89 149.05 123.66 148.93 121.45 149.01 C 120.79 149.66 120.14 150.33 119.50 151.00 C 118.10 150.01 116.66 149.09 115.21 148.17 C 116.44 148.22 117.67 148.26 118.90 148.31 C 120.96 143.99 121.27 139.89 121.59 135.21 C 122.89 132.17 124.97 129.77 125.53 126.35 C 121.48 126.81 118.46 126.61 114.57 125.17 C 121.79 123.46 129.16 124.19 136.29 122.34 C 141.88 120.84 147.77 119.16 152.11 115.12 C 155.53 111.96 155.40 107.15 159.04 104.41 C 161.40 102.61 163.65 100.79 165.44 98.39 C 169.13 93.63 173.78 88.72 176.07 83.15 C 178.45 77.62 176.72 70.91 177.93 64.81 Z" fill="#ae604a" />
<path d="M 110.94 67.86 C 113.17 70.76 115.45 71.56 119.03 72.08 C 123.25 72.41 127.04 72.71 131.01 74.42 C 131.76 74.83 132.51 75.24 133.26 75.65 C 135.15 76.74 136.99 77.89 138.84 79.04 C 140.41 80.45 141.93 81.91 143.39 83.43 C 139.69 83.49 136.83 81.80 133.50 80.50 C 129.06 78.78 124.96 79.56 120.39 79.28 C 116.59 79.05 113.32 76.93 109.89 75.49 C 109.03 73.22 108.54 70.89 108.18 68.50 C 109.10 68.29 110.02 68.08 110.94 67.86 Z" fill="#1f213c" />
<path d="M 89.45 71.64 C 90.38 73.83 91.14 76.48 92.73 78.28 C 95.06 80.55 98.32 82.05 101.15 83.61 L 99.68 84.10 C 96.01 83.01 93.38 80.71 90.55 78.26 C 89.76 76.81 89.03 75.32 88.28 73.84 C 88.70 73.12 89.08 72.39 89.45 71.64 Z" fill="#604841" />
<path d="M 210.62 74.48 C 214.73 75.66 218.70 77.24 222.84 78.34 C 223.57 79.60 224.30 80.87 225.02 82.13 C 224.00 82.50 222.98 82.87 221.95 83.24 C 215.98 79.69 209.05 80.81 202.67 77.88 C 202.72 80.14 202.68 82.44 202.97 84.68 C 204.14 85.79 205.72 85.24 207.20 85.32 C 211.73 85.01 215.74 86.86 220.27 86.00 C 218.08 87.77 215.91 89.53 213.50 91.00 C 211.17 91.56 208.53 92.42 206.14 92.10 C 203.64 91.15 201.41 89.38 199.18 87.94 C 196.31 90.67 193.23 93.67 189.00 93.74 C 184.03 92.98 180.35 89.64 178.74 84.92 C 179.18 83.31 179.61 81.70 180.08 80.11 C 182.02 77.08 185.72 75.17 189.17 74.51 C 191.53 74.58 193.93 75.93 196.10 76.80 C 197.41 75.75 198.73 74.69 200.05 73.64 C 203.64 73.53 207.12 73.49 210.62 74.48 Z" fill="#694f38" />
<path d="M 88.28 73.84 C 89.03 75.32 89.76 76.81 90.55 78.26 C 87.85 79.12 85.17 80.10 82.48 81.02 C 81.90 80.64 81.32 80.26 80.74 79.87 C 83.26 77.89 85.92 76.01 88.28 73.84 Z" fill="#dec5c1" />
<path d="M 109.89 75.49 C 113.32 76.93 116.59 79.05 120.39 79.28 C 124.96 79.56 129.06 78.78 133.50 80.50 C 136.83 81.80 139.69 83.49 143.39 83.43 L 144.06 84.11 C 143.17 85.79 142.20 87.43 141.11 88.99 C 139.49 88.86 137.79 88.63 136.17 88.79 C 132.57 89.52 128.93 92.71 125.22 92.58 C 121.99 92.50 118.76 92.19 115.55 91.85 C 110.53 89.43 106.90 85.89 101.34 84.66 C 100.79 84.48 100.23 84.29 99.68 84.10 L 101.15 83.61 C 105.47 81.99 107.60 79.32 109.89 75.49 Z" fill="#ad5d47" />
<path d="M 227.35 75.76 C 226.65 78.30 225.95 80.85 225.36 83.43 C 224.17 87.76 224.85 91.76 224.97 96.18 C 220.46 95.50 216.50 94.73 213.50 91.00 C 215.91 89.53 218.08 87.77 220.27 86.00 C 215.74 86.86 211.73 85.01 207.20 85.32 C 205.72 85.24 204.14 85.79 202.97 84.68 C 202.68 82.44 202.72 80.14 202.67 77.88 C 209.05 80.81 215.98 79.69 221.95 83.24 C 222.98 82.87 224.00 82.50 225.02 82.13 C 224.30 80.87 223.57 79.60 222.84 78.34 C 224.33 77.46 225.82 76.58 227.35 75.76 Z" fill="#ddd2bb" />
<path d="M 59.90 77.23 C 60.84 77.67 61.76 78.14 62.69 78.62 C 63.60 80.07 64.46 81.56 65.34 83.03 C 67.31 81.63 69.26 80.21 71.25 78.85 C 72.82 78.40 74.44 77.82 76.07 77.70 C 77.72 77.85 79.34 79.03 80.74 79.87 C 81.32 80.26 81.90 80.64 82.48 81.02 C 86.25 83.91 90.00 82.48 94.28 83.81 C 90.83 84.42 87.19 85.46 83.76 84.23 C 80.26 83.23 77.04 80.44 73.32 81.33 C 70.56 82.15 67.97 83.63 65.33 84.77 C 63.79 82.95 62.26 81.12 60.73 79.29 C 57.60 81.65 54.31 83.79 51.01 85.93 C 49.96 85.35 48.91 84.77 47.86 84.19 C 52.20 82.32 55.69 79.30 59.90 77.23 Z" fill="#5c422e" />
<path d="M 155.41 77.55 C 158.58 77.09 161.54 78.80 164.34 80.05 C 161.42 82.34 158.88 84.95 156.29 87.60 C 155.15 85.53 153.86 82.48 151.66 81.38 C 148.19 80.65 144.66 80.52 141.24 79.46 C 145.99 79.01 150.69 78.17 155.41 77.55 Z" fill="#e5cbc7" />
<path d="M 187.37 77.43 C 189.27 77.02 191.49 77.74 192.91 79.02 C 194.68 82.11 194.73 86.37 190.99 88.06 C 188.78 89.70 186.60 87.40 185.09 85.89 C 182.39 83.36 184.17 78.46 187.37 77.43 Z" fill="#d8cab1" />
<path d="M 71.25 78.85 C 69.26 80.21 67.31 81.63 65.34 83.03 C 64.46 81.56 63.60 80.07 62.69 78.62 C 65.53 78.83 68.40 78.87 71.25 78.85 Z" fill="#b48f85" />
<path d="M 90.55 78.26 C 93.38 80.71 96.01 83.01 99.68 84.10 C 100.23 84.29 100.79 84.48 101.34 84.66 L 101.97 85.17 C 102.10 86.42 102.23 87.67 102.35 88.92 C 99.98 90.85 97.66 92.47 96.55 95.45 C 92.62 98.39 88.09 100.24 84.17 103.18 C 82.12 104.69 80.08 106.23 78.14 107.87 C 76.67 109.18 75.44 110.65 74.06 112.03 C 72.07 114.56 68.31 113.78 65.58 115.65 C 63.34 117.03 62.83 120.24 61.96 122.57 C 61.39 121.68 60.81 120.79 60.22 119.91 C 56.11 114.15 53.95 107.68 52.41 100.82 C 53.86 100.54 55.31 100.26 56.75 99.99 C 57.71 101.59 58.52 103.86 60.34 104.61 C 63.92 106.32 69.36 106.43 73.04 104.98 C 78.80 102.34 83.12 96.74 86.80 91.77 C 89.27 88.37 92.65 86.56 96.13 84.38 C 95.52 84.19 94.90 84.00 94.28 83.81 C 90.00 82.48 86.25 83.91 82.48 81.02 C 85.17 80.10 87.85 79.12 90.55 78.26 Z" fill="#daceb7" />
<path d="M 138.84 79.04 C 139.64 79.19 140.44 79.33 141.24 79.46 C 144.66 80.52 148.19 80.65 151.66 81.38 C 153.86 82.48 155.15 85.53 156.29 87.60 C 150.89 92.56 146.89 98.33 140.59 102.65 C 135.55 105.77 130.11 106.74 124.31 107.47 C 119.90 108.25 115.51 106.44 110.99 106.84 C 102.96 107.20 94.03 109.32 87.58 114.33 C 89.27 111.10 90.84 108.08 93.90 105.90 C 97.34 103.53 101.03 101.61 104.29 98.95 C 103.60 97.34 102.92 95.74 102.18 94.15 C 102.90 93.09 103.32 92.13 103.59 90.87 C 101.19 92.31 98.88 93.90 96.55 95.45 C 97.66 92.47 99.98 90.85 102.35 88.92 C 102.23 87.67 102.10 86.42 101.97 85.17 C 105.41 88.02 108.95 90.70 112.08 93.90 C 110.91 97.03 110.00 100.23 109.29 103.48 C 112.02 102.07 114.02 100.29 115.99 97.95 C 117.86 99.94 119.30 101.81 122.15 102.34 C 123.41 99.83 124.72 96.87 126.76 94.89 C 129.40 93.79 132.95 94.88 135.69 93.81 C 137.80 92.70 139.58 90.78 141.11 88.99 C 142.20 87.43 143.17 85.79 144.06 84.11 L 143.39 83.43 C 141.93 81.91 140.41 80.45 138.84 79.04 Z" fill="#f4f2f1" />
<path d="M 115.55 91.85 C 118.49 95.01 120.47 98.39 122.15 102.34 C 119.30 101.81 117.86 99.94 115.99 97.95 C 114.71 96.57 113.43 95.21 112.08 93.90 C 108.95 90.70 105.41 88.02 101.97 85.17 L 101.34 84.66 C 106.90 85.89 110.53 89.43 115.55 91.85 Z" fill="#1d1527" />
<path d="M 225.36 83.43 C 225.52 87.94 225.66 92.48 226.04 96.98 C 226.89 105.05 230.47 111.94 234.02 119.07 C 230.75 121.44 227.18 123.48 224.13 126.12 C 219.03 130.85 216.86 137.44 216.49 144.25 C 216.06 153.91 217.49 163.71 220.01 173.02 C 217.66 170.74 214.77 168.96 212.57 166.54 C 212.13 162.87 212.49 159.06 212.46 155.36 C 211.62 156.61 210.78 157.87 209.95 159.13 C 209.24 155.41 209.15 150.15 206.43 147.31 C 202.51 142.89 197.51 138.61 192.49 135.51 C 188.14 132.98 184.08 134.35 179.56 134.11 C 177.87 132.65 177.00 130.07 175.94 128.13 C 174.33 125.81 172.49 123.44 170.21 121.74 C 167.81 120.39 164.86 119.93 162.26 119.03 L 163.09 117.27 C 166.03 111.08 167.78 104.87 172.68 99.79 C 169.95 104.78 170.69 110.76 173.49 115.52 C 174.88 117.75 177.03 118.66 179.39 119.53 C 182.59 119.62 185.68 119.07 188.80 118.45 C 193.08 125.22 200.71 129.68 208.82 128.27 C 204.48 125.73 200.39 123.44 197.89 118.86 C 197.26 116.57 196.49 114.11 198.43 112.22 C 199.14 110.94 201.69 111.95 202.86 112.09 C 205.42 112.73 207.58 113.99 209.81 115.35 C 212.48 119.10 215.46 121.18 219.67 122.96 C 219.96 121.46 220.51 119.85 220.41 118.31 C 219.91 116.75 218.55 116.81 217.23 116.36 C 215.14 110.50 210.28 106.46 204.40 104.70 C 200.90 104.18 198.04 103.86 195.00 106.02 C 193.56 103.15 191.93 101.27 189.30 99.42 C 187.37 98.01 185.21 96.66 182.81 96.32 C 179.57 96.00 176.45 97.29 173.58 98.65 C 176.26 94.33 177.39 89.75 178.74 84.92 C 180.35 89.64 184.03 92.98 189.00 93.74 C 193.23 93.67 196.31 90.67 199.18 87.94 C 201.41 89.38 203.64 91.15 206.14 92.10 C 208.53 92.42 211.17 91.56 213.50 91.00 C 216.50 94.73 220.46 95.50 224.97 96.18 C 224.85 91.76 224.17 87.76 225.36 83.43 Z" fill="#e3dcc9" />
<path d="M 136.17 88.79 C 137.79 88.63 139.49 88.86 141.11 88.99 C 139.58 90.78 137.80 92.70 135.69 93.81 C 132.95 94.88 129.40 93.79 126.76 94.89 C 124.72 96.87 123.41 99.83 122.15 102.34 C 120.47 98.39 118.49 95.01 115.55 91.85 C 118.76 92.19 121.99 92.50 125.22 92.58 C 128.93 92.71 132.57 89.52 136.17 88.79 Z" fill="#be8e81" />
<path d="M 184.33 88.29 C 186.34 89.43 188.22 90.76 190.04 92.18 C 188.82 92.05 187.61 91.86 186.41 91.62 C 185.46 90.76 184.93 89.40 184.33 88.29 Z" fill="#aa9780" />
<path d="M 42.35 89.60 C 44.11 91.28 45.55 93.34 47.97 94.05 C 52.33 95.37 56.95 95.98 61.46 96.51 C 64.70 96.96 67.43 95.84 70.39 94.73 C 71.40 96.19 72.34 97.71 73.28 99.22 C 72.68 100.26 72.08 101.31 71.50 102.36 C 65.55 101.83 60.81 97.23 55.05 97.16 C 50.35 97.68 49.15 101.67 47.59 105.43 C 46.28 106.21 43.65 106.68 43.42 108.43 C 43.43 110.00 44.65 111.62 45.32 113.01 C 44.19 114.52 43.02 116.03 41.98 117.60 C 39.76 123.64 41.13 129.86 37.20 134.55 L 36.38 133.36 C 36.82 131.25 37.30 129.29 36.81 127.14 C 35.87 122.05 35.70 116.90 34.57 111.85 C 34.93 109.18 35.67 106.71 38.05 105.18 C 40.08 104.12 42.44 103.61 44.61 102.92 C 43.19 101.90 41.79 100.71 40.21 99.93 C 38.55 99.56 36.74 99.72 35.06 99.74 L 33.28 99.81 C 34.04 98.00 34.81 96.14 35.69 94.39 C 37.60 92.01 39.50 90.63 42.35 89.60 Z" fill="#cca7a3" />
<path d="M 71.38 90.64 C 73.30 91.63 76.15 93.52 76.37 95.91 C 76.35 99.26 74.06 100.74 71.50 102.36 C 72.08 101.31 72.68 100.26 73.28 99.22 C 72.34 97.71 71.40 96.19 70.39 94.73 C 69.39 93.51 68.24 91.82 66.71 91.26 C 64.69 90.47 62.99 92.85 61.52 93.92 C 60.65 92.57 59.77 91.22 58.90 89.86 C 63.25 89.27 67.26 88.59 71.38 90.64 Z" fill="#e4d5cf" />
<path d="M 103.59 90.87 C 103.32 92.13 102.90 93.09 102.18 94.15 C 98.16 97.23 93.66 99.48 89.77 102.73 C 86.46 105.49 82.79 107.67 79.27 110.13 C 78.91 109.37 78.53 108.62 78.14 107.87 C 80.08 106.23 82.12 104.69 84.17 103.18 C 88.09 100.24 92.62 98.39 96.55 95.45 C 98.88 93.90 101.19 92.31 103.59 90.87 Z" fill="#4e4854" />
<path d="M 33.30 92.01 C 33.94 92.65 34.59 93.29 35.24 93.92 L 35.69 94.39 C 34.81 96.14 34.04 98.00 33.28 99.81 L 35.06 99.74 C 33.42 101.99 31.12 104.05 31.00 107.01 C 30.66 111.02 30.93 115.07 30.82 119.09 C 28.74 114.24 26.57 108.40 26.97 103.06 C 27.87 99.04 31.02 95.38 33.30 92.01 Z" fill="#d6bbb7" />
<path d="M 102.18 94.15 C 102.92 95.74 103.60 97.34 104.29 98.95 C 101.03 101.61 97.34 103.53 93.90 105.90 C 90.84 108.08 89.27 111.10 87.58 114.33 C 86.24 115.64 84.90 116.93 83.58 118.26 C 79.01 119.14 74.54 120.32 70.22 122.07 C 72.90 117.81 75.68 113.70 79.27 110.13 C 82.79 107.67 86.46 105.49 89.77 102.73 C 93.66 99.48 98.16 97.23 102.18 94.15 Z" fill="#dacfb8" />
<path d="M 112.08 93.90 C 113.43 95.21 114.71 96.57 115.99 97.95 C 114.02 100.29 112.02 102.07 109.29 103.48 C 110.00 100.23 110.91 97.03 112.08 93.90 Z" fill="#a8a6a6" />
<path d="M 182.81 96.32 C 185.21 96.66 187.37 98.01 189.30 99.42 C 188.52 100.48 187.78 101.56 187.03 102.65 C 184.02 102.14 180.12 99.66 177.79 102.77 C 173.99 106.92 177.04 112.85 181.59 114.91 C 180.85 116.45 180.12 117.99 179.39 119.53 C 177.03 118.66 174.88 117.75 173.49 115.52 C 170.69 110.76 169.95 104.78 172.68 99.79 L 173.58 98.65 C 176.45 97.29 179.57 96.00 182.81 96.32 Z" fill="#7e6850" />
<path d="M 189.30 99.42 C 191.93 101.27 193.56 103.15 195.00 106.02 C 198.04 103.86 200.90 104.18 204.40 104.70 C 205.92 108.61 209.13 110.92 209.81 115.35 C 207.58 113.99 205.42 112.73 202.86 112.09 C 201.69 111.95 199.14 110.94 198.43 112.22 C 196.49 114.11 197.26 116.57 197.89 118.86 C 200.39 123.44 204.48 125.73 208.82 128.27 C 200.71 129.68 193.08 125.22 188.80 118.45 C 185.68 119.07 182.59 119.62 179.39 119.53 C 180.12 117.99 180.85 116.45 181.59 114.91 C 183.46 114.47 185.51 114.15 187.24 113.29 C 189.99 110.16 188.38 106.01 187.03 102.65 C 187.78 101.56 188.52 100.48 189.30 99.42 Z" fill="#5a4128" />
<path d="M 187.03 102.65 C 188.38 106.01 189.99 110.16 187.24 113.29 C 185.51 114.15 183.46 114.47 181.59 114.91 C 177.04 112.85 173.99 106.92 177.79 102.77 C 180.12 99.66 184.02 102.14 187.03 102.65 Z" fill="#e6dfcc" />
<path d="M 204.40 104.70 C 210.28 106.46 215.14 110.50 217.23 116.36 C 218.55 116.81 219.91 116.75 220.41 118.31 C 220.51 119.85 219.96 121.46 219.67 122.96 C 215.46 121.18 212.48 119.10 209.81 115.35 C 209.13 110.92 205.92 108.61 204.40 104.70 Z" fill="#7e6850" />
<path d="M 47.59 105.43 C 46.83 110.29 46.74 115.14 46.69 120.05 C 45.12 119.22 43.56 118.40 41.98 117.60 C 43.02 116.03 44.19 114.52 45.32 113.01 C 44.65 111.62 43.43 110.00 43.42 108.43 C 43.65 106.68 46.28 106.21 47.59 105.43 Z" fill="#e0ccc8" />
<path d="M 78.14 107.87 C 78.53 108.62 78.91 109.37 79.27 110.13 C 75.68 113.70 72.90 117.81 70.22 122.07 C 66.93 124.26 63.55 126.41 59.96 128.07 C 58.16 128.98 56.46 128.67 54.55 128.44 C 57.46 125.77 59.66 124.10 60.22 119.91 C 60.81 120.79 61.39 121.68 61.96 122.57 C 62.83 120.24 63.34 117.03 65.58 115.65 C 68.31 113.78 72.07 114.56 74.06 112.03 C 75.44 110.65 76.67 109.18 78.14 107.87 Z" fill="#27253c" />
<path d="M 105.54 109.12 C 108.84 108.76 111.78 109.11 114.97 109.95 C 111.69 110.34 108.63 110.55 105.54 109.12 Z" fill="#807c83" />
<path d="M 34.57 111.85 C 35.70 116.90 35.87 122.05 36.81 127.14 C 37.30 129.29 36.82 131.25 36.38 133.36 C 34.06 130.28 31.66 127.11 31.94 123.02 C 32.64 119.25 34.11 115.70 34.57 111.85 Z" fill="#dfcbc7" />
<path d="M 163.09 117.27 L 162.26 119.03 C 161.37 120.88 160.72 122.80 160.05 124.74 C 161.50 124.80 162.95 124.85 164.39 124.91 C 165.10 125.78 165.81 126.64 166.55 127.48 C 163.02 129.74 159.68 131.44 158.91 135.97 C 158.13 138.43 158.99 140.10 160.06 142.24 C 160.83 140.08 161.56 137.92 162.27 135.74 C 164.46 137.06 166.70 138.22 169.09 139.14 C 171.03 136.30 172.24 133.89 172.61 130.42 C 173.72 129.66 174.83 128.89 175.94 128.13 C 177.00 130.07 177.87 132.65 179.56 134.11 C 184.08 134.35 188.14 132.98 192.49 135.51 C 197.51 138.61 202.51 142.89 206.43 147.31 C 203.25 145.86 200.69 144.15 198.04 141.89 C 197.78 143.48 197.55 145.07 197.28 146.66 C 194.49 144.51 191.60 142.83 188.18 141.91 C 185.01 145.68 179.51 150.61 180.06 155.93 C 180.06 158.28 180.24 160.63 180.50 162.96 C 179.29 162.74 178.08 162.51 176.87 162.29 C 177.68 164.16 178.50 166.03 179.34 167.89 C 178.51 168.31 177.67 168.74 176.84 169.17 C 171.99 164.31 170.63 158.28 167.24 152.53 C 165.35 147.74 159.31 150.27 156.55 146.45 C 154.28 143.36 153.37 139.24 151.88 135.73 C 151.45 133.36 150.90 130.29 152.22 128.13 C 153.63 125.59 155.31 123.15 157.04 120.82 C 158.53 118.69 160.78 118.15 163.09 117.27 Z" fill="#5a4129" />
<path d="M 162.26 119.03 C 164.86 119.93 167.81 120.39 170.21 121.74 C 172.49 123.44 174.33 125.81 175.94 128.13 C 174.83 128.89 173.72 129.66 172.61 130.42 C 170.60 129.43 168.58 128.44 166.55 127.48 C 165.81 126.64 165.10 125.78 164.39 124.91 C 162.95 124.85 161.50 124.80 160.05 124.74 C 160.72 122.80 161.37 120.88 162.26 119.03 Z" fill="#7e6850" />
<path d="M 27.47 124.92 C 29.08 129.18 30.94 133.33 32.55 137.58 C 32.39 142.79 32.36 148.00 32.09 153.20 C 30.36 149.92 28.84 146.58 27.91 142.97 C 27.14 137.00 27.02 130.91 27.47 124.92 Z" fill="#615f6a" />
<path d="M 114.57 125.17 C 118.46 126.61 121.48 126.81 125.53 126.35 C 124.97 129.77 122.89 132.17 121.59 135.21 C 121.27 139.89 120.96 143.99 118.90 148.31 C 117.67 148.26 116.44 148.22 115.21 148.17 C 116.66 149.09 118.10 150.01 119.50 151.00 C 120.43 151.69 121.36 152.38 122.28 153.06 L 120.68 153.73 C 117.50 152.20 114.38 150.41 111.07 149.18 C 109.22 148.46 106.96 149.12 104.99 148.89 C 103.28 148.09 102.41 145.53 101.51 143.98 C 100.98 140.92 100.73 137.89 100.51 134.79 C 103.39 129.25 108.48 126.09 114.57 125.17 Z" fill="#a7523a" />
<path d="M 166.55 127.48 C 168.58 128.44 170.60 129.43 172.61 130.42 C 172.24 133.89 171.03 136.30 169.09 139.14 C 166.70 138.22 164.46 137.06 162.27 135.74 C 161.56 137.92 160.83 140.08 160.06 142.24 C 158.99 140.10 158.13 138.43 158.91 135.97 C 159.68 131.44 163.02 129.74 166.55 127.48 Z" fill="#e6dfcc" />
<path d="M 100.51 134.79 C 100.73 137.89 100.98 140.92 101.51 143.98 L 100.03 143.86 C 98.43 143.79 96.84 143.79 95.24 143.81 C 97.14 140.88 98.81 137.84 100.51 134.79 Z" fill="#ab9596" />
<path d="M 151.88 135.73 C 153.37 139.24 154.28 143.36 156.55 146.45 C 159.31 150.27 165.35 147.74 167.24 152.53 C 166.37 161.02 169.96 169.63 177.84 173.54 C 177.42 172.32 176.99 171.11 176.55 169.91 C 179.69 171.79 182.65 173.99 185.84 175.78 C 189.63 177.33 194.22 177.57 198.25 178.23 C 201.95 178.74 205.05 182.04 207.85 184.29 C 210.26 186.30 212.85 187.99 215.51 189.64 C 208.38 190.37 202.75 187.11 195.93 186.02 C 194.32 185.35 192.71 184.65 191.12 183.94 C 183.90 178.21 175.67 176.18 167.39 172.54 C 157.59 168.12 147.99 165.02 138.70 159.26 C 136.52 157.87 134.46 156.15 132.19 154.95 C 128.83 153.33 125.31 152.14 122.04 150.32 C 124.06 149.88 126.08 149.46 128.10 149.02 C 138.01 147.07 143.52 140.61 151.88 135.73 Z" fill="#ded0bd" />
<path d="M 32.55 137.58 C 35.15 143.43 36.23 149.78 38.75 155.62 C 40.23 158.87 41.42 162.20 43.06 165.38 C 44.01 167.32 45.30 169.42 45.64 171.58 C 44.29 173.80 42.44 175.77 40.76 177.75 C 39.46 176.37 38.14 175.19 37.60 173.30 C 35.80 167.88 34.40 162.31 32.96 156.78 C 32.69 155.59 32.39 154.39 32.09 153.20 C 32.36 148.00 32.39 142.79 32.55 137.58 Z" fill="#20223d" />
<path d="M 53.36 137.77 C 54.75 139.84 55.91 142.00 56.87 144.30 C 55.50 145.47 54.16 146.64 52.73 147.72 C 52.25 147.94 51.77 148.17 51.29 148.41 C 47.69 149.86 46.65 155.65 45.12 158.89 C 44.77 158.14 44.41 157.38 44.07 156.62 L 43.90 154.65 C 46.68 148.29 47.55 142.28 53.36 137.77 Z" fill="#bab7b7" />
<path d="M 82.41 138.17 C 83.32 140.15 83.89 142.18 83.36 144.37 C 82.33 148.91 78.34 152.69 77.09 157.25 C 76.67 158.68 77.31 160.38 77.82 161.71 C 79.51 159.67 80.13 157.37 80.61 154.84 C 81.22 151.14 84.45 148.31 87.14 145.97 C 86.26 149.92 84.56 153.52 82.96 157.21 L 83.79 156.94 L 85.49 156.42 C 83.47 159.29 81.65 162.29 80.27 165.53 C 79.27 167.61 78.28 169.71 77.34 171.83 C 77.38 166.53 76.34 161.56 75.51 156.34 C 75.12 153.68 74.01 151.13 75.50 148.63 C 77.48 144.95 80.26 141.76 82.41 138.17 Z" fill="#777279" />
<path d="M 188.18 141.91 C 191.60 142.83 194.49 144.51 197.28 146.66 C 203.78 151.78 203.49 158.70 206.33 165.81 C 206.86 167.62 208.22 168.38 209.68 169.36 C 210.34 165.92 210.57 162.60 209.95 159.13 C 210.78 157.87 211.62 156.61 212.46 155.36 C 212.49 159.06 212.13 162.87 212.57 166.54 C 214.77 168.96 217.66 170.74 220.01 173.02 C 222.46 179.56 225.78 185.50 226.15 192.46 C 223.12 191.79 220.10 191.20 217.16 190.18 C 214.93 186.27 212.24 183.08 208.61 180.41 C 206.08 178.56 203.42 176.87 200.73 175.27 C 196.47 172.68 191.60 172.31 187.30 169.72 C 184.40 168.14 182.21 165.75 180.50 162.96 C 180.24 160.63 180.06 158.28 180.06 155.93 C 179.51 150.61 185.01 145.68 188.18 141.91 Z" fill="#dfd7c1" />
<path d="M 198.04 141.89 C 200.69 144.15 203.25 145.86 206.43 147.31 C 209.15 150.15 209.24 155.41 209.95 159.13 C 210.57 162.60 210.34 165.92 209.68 169.36 C 208.22 168.38 206.86 167.62 206.33 165.81 C 203.49 158.70 203.78 151.78 197.28 146.66 C 197.55 145.07 197.78 143.48 198.04 141.89 Z" fill="#786249" />
<path d="M 27.91 142.97 C 28.84 146.58 30.36 149.92 32.09 153.20 C 32.39 154.39 32.69 155.59 32.96 156.78 C 32.69 159.90 32.19 162.98 31.55 166.04 C 31.07 165.34 30.59 164.64 30.13 163.94 C 29.72 162.95 29.32 161.96 28.93 160.96 C 27.09 154.81 28.25 149.23 27.91 142.97 Z" fill="#b8b5b7" />
<path d="M 100.03 143.86 C 97.81 145.40 96.89 146.26 96.55 148.97 C 95.26 149.34 93.97 149.69 92.68 150.05 C 91.62 151.59 90.54 153.11 89.39 154.57 C 88.10 155.21 86.79 155.81 85.49 156.42 L 83.79 156.94 C 87.62 152.63 91.97 148.57 95.24 143.81 C 96.84 143.79 98.43 143.79 100.03 143.86 Z" fill="#aca8ab" />
<path d="M 56.87 144.30 C 57.65 146.20 58.45 148.08 59.29 149.96 C 57.09 149.23 54.92 148.46 52.73 147.72 C 54.16 146.64 55.50 145.47 56.87 144.30 Z" fill="#bab8b7" />
<path d="M 51.29 148.41 C 51.77 148.17 52.25 147.94 52.73 147.72 C 54.92 148.46 57.09 149.23 59.29 149.96 C 58.91 150.64 58.53 151.32 58.15 151.99 C 53.65 157.28 49.75 163.84 48.60 170.77 C 48.07 171.59 47.53 172.41 46.97 173.21 C 46.57 168.30 47.18 163.87 44.34 159.54 C 44.24 158.57 44.15 157.59 44.07 156.62 C 44.41 157.38 44.77 158.14 45.12 158.89 C 46.65 155.65 47.69 149.86 51.29 148.41 Z" fill="#2f2e45" />
<path d="M 121.45 149.01 C 123.66 148.93 125.89 149.05 128.10 149.02 C 126.08 149.46 124.06 149.88 122.04 150.32 C 125.31 152.14 128.83 153.33 132.19 154.95 C 130.71 155.38 129.25 155.87 127.79 156.36 C 125.98 155.22 124.13 154.14 122.28 153.06 C 121.36 152.38 120.43 151.69 119.50 151.00 C 120.14 150.33 120.79 149.66 121.45 149.01 Z" fill="#b9877b" />
<path d="M 58.15 151.99 C 56.36 156.18 54.01 160.05 52.00 164.12 C 50.23 167.20 51.89 170.89 53.05 173.89 C 54.27 177.14 57.04 179.40 56.45 182.92 C 56.03 182.40 55.60 181.88 55.18 181.36 C 54.06 182.61 52.95 183.85 51.84 185.11 C 51.14 182.20 50.19 179.40 49.14 176.60 C 48.94 174.66 48.74 172.72 48.60 170.77 C 49.75 163.84 53.65 157.28 58.15 151.99 Z" fill="#dcc5be" />
<path d="M 122.28 153.06 C 124.13 154.14 125.98 155.22 127.79 156.36 C 131.02 158.49 134.14 160.72 137.65 162.39 C 143.78 165.34 149.33 169.00 155.66 171.55 C 159.02 173.24 162.24 174.49 165.90 175.35 C 173.86 179.47 182.48 181.77 191.12 183.94 C 192.71 184.65 194.32 185.35 195.93 186.02 C 205.03 190.45 213.85 195.37 222.64 200.37 C 226.22 202.49 229.52 205.21 230.93 209.26 C 231.83 211.18 229.85 212.99 228.89 214.53 L 228.32 214.91 C 226.51 215.30 224.68 215.62 222.85 215.97 C 221.40 212.00 220.41 208.64 216.48 206.45 C 218.56 209.72 220.37 212.59 220.57 216.62 C 218.82 217.46 217.07 218.32 215.33 219.19 C 217.23 220.61 219.17 221.99 221.14 223.32 C 218.61 227.11 215.61 231.46 211.26 233.25 C 208.06 234.54 204.47 235.31 201.03 235.05 C 197.99 234.75 196.24 232.83 194.22 230.80 C 191.12 227.43 186.87 224.90 183.01 222.41 C 188.12 223.53 193.00 225.00 197.96 226.62 C 198.92 225.21 199.89 223.80 200.87 222.39 C 201.73 221.96 202.59 221.54 203.46 221.11 C 205.79 218.61 205.98 215.64 206.32 212.40 C 206.64 209.76 206.98 207.15 207.06 204.49 C 206.05 203.86 205.04 203.24 204.02 202.61 C 200.89 199.44 198.53 195.89 194.90 193.15 C 188.63 188.58 182.44 184.24 174.92 181.96 C 171.59 180.08 168.02 178.83 164.44 177.52 C 158.55 175.18 152.81 172.40 147.07 169.71 C 143.92 168.21 140.81 166.61 137.73 164.98 C 134.02 163.03 130.42 161.61 127.21 158.82 C 125.13 156.99 123.01 155.25 120.68 153.73 L 122.28 153.06 Z" fill="#20223e" />
<path d="M 167.24 152.53 C 170.63 158.28 171.99 164.31 176.84 169.17 C 177.67 168.74 178.51 168.31 179.34 167.89 C 178.50 166.03 177.68 164.16 176.87 162.29 C 178.08 162.51 179.29 162.74 180.50 162.96 C 182.21 165.75 184.40 168.14 187.30 169.72 C 191.60 172.31 196.47 172.68 200.73 175.27 C 203.42 176.87 206.08 178.56 208.61 180.41 C 208.36 181.70 208.10 183.00 207.85 184.29 C 205.05 182.04 201.95 178.74 198.25 178.23 C 194.22 177.57 189.63 177.33 185.84 175.78 C 182.65 173.99 179.69 171.79 176.55 169.91 C 176.99 171.11 177.42 172.32 177.84 173.54 C 169.96 169.63 166.37 161.02 167.24 152.53 Z" fill="#786249" />
<path d="M 43.90 154.65 L 44.07 156.62 C 44.15 157.59 44.24 158.57 44.34 159.54 C 43.94 161.49 43.50 163.43 43.06 165.38 C 41.42 162.20 40.23 158.87 38.75 155.62 C 40.46 155.19 42.15 154.87 43.90 154.65 Z" fill="#debcb5" />
<path d="M 89.39 154.57 C 84.50 160.92 83.55 167.98 80.17 175.34 C 80.05 172.06 80.43 168.80 80.27 165.53 C 81.65 162.29 83.47 159.29 85.49 156.42 C 86.79 155.81 88.10 155.21 89.39 154.57 Z" fill="#312e42" />
<path d="M 132.19 154.95 C 134.46 156.15 136.52 157.87 138.70 159.26 C 147.99 165.02 157.59 168.12 167.39 172.54 C 175.67 176.18 183.90 178.21 191.12 183.94 C 182.48 181.77 173.86 179.47 165.90 175.35 C 164.24 174.05 162.42 172.25 160.36 171.64 C 158.84 171.37 157.20 171.54 155.66 171.55 C 149.33 169.00 143.78 165.34 137.65 162.39 C 134.14 160.72 131.02 158.49 127.79 156.36 C 129.25 155.87 130.71 155.38 132.19 154.95 Z" fill="#a55a4b" />
<path d="M 32.96 156.78 C 34.40 162.31 35.80 167.88 37.60 173.30 C 38.14 175.19 39.46 176.37 40.76 177.75 C 42.44 175.77 44.29 173.80 45.64 171.58 C 45.30 169.42 44.01 167.32 43.06 165.38 C 43.50 163.43 43.94 161.49 44.34 159.54 C 47.18 163.87 46.57 168.30 46.97 173.21 C 47.53 172.41 48.07 171.59 48.60 170.77 C 48.74 172.72 48.94 174.66 49.14 176.60 C 48.78 180.30 48.25 183.81 48.61 187.53 C 49.01 191.77 49.98 195.88 50.05 200.17 C 49.83 203.19 49.78 206.13 50.70 209.05 C 52.73 215.27 60.38 218.86 65.26 222.90 C 59.62 223.25 56.45 222.55 51.43 220.17 C 51.23 219.43 51.02 218.70 50.81 217.97 C 50.50 217.00 50.16 216.05 49.79 215.09 C 48.98 213.09 48.08 211.12 47.21 209.15 C 44.78 208.53 42.36 207.88 39.96 207.14 C 39.58 206.71 39.20 206.28 38.82 205.85 C 40.77 205.08 42.64 204.17 44.49 203.18 C 42.12 199.87 39.71 196.73 38.09 192.95 C 36.30 188.75 35.09 184.29 34.10 179.85 C 33.51 177.20 32.84 174.57 32.13 171.95 C 31.44 169.28 30.79 166.61 30.13 163.94 C 30.59 164.64 31.07 165.34 31.55 166.04 C 32.19 162.98 32.69 159.90 32.96 156.78 Z" fill="#ba7c6b" />
<path d="M 28.93 160.96 C 29.32 161.96 29.72 162.95 30.13 163.94 C 30.79 166.61 31.44 169.28 32.13 171.95 C 32.15 173.64 32.09 175.33 32.02 177.02 C 29.28 174.32 27.02 172.54 28.00 168.24 C 28.79 165.86 28.93 163.45 28.93 160.96 Z" fill="#1a1a32" />
<path d="M 77.19 162.16 C 78.77 161.06 79.63 163.41 77.88 163.86 C 76.88 163.62 76.65 163.05 77.19 162.16 Z" fill="#e0dee3" />
<path d="M 115.95 166.84 C 119.71 166.61 124.14 165.90 127.75 167.13 C 130.30 168.32 132.62 169.95 135.17 171.13 C 134.01 171.57 132.86 172.03 131.72 172.50 C 127.76 170.88 123.36 168.73 119.04 168.60 C 116.66 168.50 115.92 171.21 115.01 172.91 C 115.12 178.35 115.75 183.52 118.80 188.17 C 121.53 192.78 125.80 195.70 130.69 197.66 C 132.05 198.93 133.32 200.29 134.55 201.68 C 133.45 201.34 132.35 200.99 131.25 200.63 C 131.52 202.04 131.78 203.47 132.03 204.89 C 128.37 206.23 124.63 207.17 120.82 207.96 C 119.09 207.24 117.36 206.50 115.65 205.75 C 117.68 205.85 119.78 206.11 121.81 205.89 C 124.24 205.40 126.56 204.10 128.79 203.06 C 126.73 200.41 124.60 197.89 121.87 195.91 C 117.45 193.23 113.71 190.15 109.86 186.75 L 109.39 186.43 C 109.85 185.63 110.30 184.84 110.75 184.05 C 108.08 179.48 108.01 175.42 108.43 170.28 C 110.90 168.78 112.93 166.93 115.95 166.84 Z" fill="#22223a" />
<path d="M 28.00 168.24 C 27.02 172.54 29.28 174.32 32.02 177.02 C 32.09 175.33 32.15 173.64 32.13 171.95 C 32.84 174.57 33.51 177.20 34.10 179.85 C 33.17 179.73 32.24 179.61 31.32 179.49 C 31.53 184.99 33.71 190.69 32.79 196.09 C 30.52 193.58 28.04 191.66 27.72 188.04 C 27.08 181.62 26.48 174.56 28.00 168.24 Z" fill="#815954" />
<path d="M 119.04 168.60 C 123.36 168.73 127.76 170.88 131.72 172.50 C 135.47 174.40 139.20 176.60 142.68 178.96 C 144.46 180.27 146.18 181.67 147.78 183.20 C 150.25 186.34 150.91 188.30 150.71 192.30 C 149.19 193.41 147.88 194.73 146.64 196.15 C 145.78 196.05 144.92 195.96 144.06 195.86 C 144.63 193.35 145.80 190.37 145.34 187.79 C 144.60 185.37 142.26 183.33 140.39 181.72 C 137.97 179.68 135.45 180.04 132.51 180.15 C 132.33 179.29 132.15 178.44 131.97 177.59 C 126.40 175.27 120.97 173.81 115.01 172.91 C 115.92 171.21 116.66 168.50 119.04 168.60 Z" fill="#ddbfba" />
<path d="M 147.07 169.71 C 152.81 172.40 158.55 175.18 164.44 177.52 C 168.02 178.83 171.59 180.08 174.92 181.96 C 179.36 186.06 184.69 188.81 189.32 192.66 C 192.90 195.64 196.74 198.67 199.67 202.32 C 201.48 204.46 201.60 207.34 202.23 209.97 C 200.99 206.97 199.32 204.18 197.41 201.55 C 194.00 201.95 192.03 204.42 189.43 206.44 C 184.85 210.47 179.64 213.45 174.74 217.04 C 172.76 217.60 170.77 218.11 168.77 218.56 C 171.04 215.32 174.23 213.62 177.42 211.47 C 181.04 209.48 180.00 203.32 180.22 199.92 C 179.09 200.93 177.97 201.94 176.85 202.96 C 173.63 199.11 167.46 199.29 165.94 194.67 C 165.61 193.91 165.29 193.15 164.98 192.38 L 164.78 192.52 C 162.42 194.24 159.97 195.94 157.75 197.80 C 158.87 195.79 159.67 193.30 161.95 192.31 C 165.51 190.59 169.11 189.01 172.47 186.89 C 171.31 184.89 170.32 183.79 168.11 182.89 C 160.70 179.66 153.58 175.88 146.64 171.75 C 146.78 171.07 146.92 170.39 147.07 169.71 Z" fill="#e2c8c2" />
<path d="M 135.17 171.13 C 138.62 172.72 142.03 174.49 145.21 176.57 C 144.36 177.36 143.51 178.15 142.68 178.96 C 139.20 176.60 135.47 174.40 131.72 172.50 C 132.86 172.03 134.01 171.57 135.17 171.13 Z" fill="#4a4757" />
<path d="M 160.36 171.64 C 162.42 172.25 164.24 174.05 165.90 175.35 C 162.24 174.49 159.02 173.24 155.66 171.55 C 157.20 171.54 158.84 171.37 160.36 171.64 Z" fill="#cdaca4" />
<path d="M 115.01 172.91 C 120.97 173.81 126.40 175.27 131.97 177.59 C 132.15 178.44 132.33 179.29 132.51 180.15 C 130.28 181.28 128.20 182.64 126.14 184.06 C 127.83 188.24 129.62 192.14 133.16 195.11 C 133.53 192.57 133.05 190.49 132.24 188.09 C 133.60 187.65 134.96 187.21 136.33 186.77 C 136.46 187.89 136.58 189.00 136.71 190.12 C 138.09 189.38 139.48 188.64 140.85 187.89 C 140.69 185.83 140.52 183.78 140.39 181.72 C 142.26 183.33 144.60 185.37 145.34 187.79 C 145.80 190.37 144.63 193.35 144.06 195.86 C 144.92 195.96 145.78 196.05 146.64 196.15 L 147.81 196.27 C 146.67 196.87 145.50 197.38 144.25 197.69 C 141.05 196.82 137.85 195.98 134.57 195.43 C 135.39 196.31 136.22 197.20 137.05 198.09 C 136.82 198.61 136.59 199.13 136.36 199.66 C 134.47 198.98 132.57 198.35 130.69 197.66 C 125.80 195.70 121.53 192.78 118.80 188.17 C 115.75 183.52 115.12 178.35 115.01 172.91 Z" fill="#b77564" />
<path d="M 49.14 176.60 C 50.19 179.40 51.14 182.20 51.84 185.11 C 52.95 183.85 54.06 182.61 55.18 181.36 C 55.60 181.88 56.03 182.40 56.45 182.92 C 54.21 187.82 51.62 192.27 50.54 197.64 C 50.36 198.47 50.19 199.32 50.05 200.17 C 49.98 195.88 49.01 191.77 48.61 187.53 C 48.25 183.81 48.78 180.30 49.14 176.60 Z" fill="#c7978a" />
<path d="M 145.21 176.57 C 146.65 177.53 148.02 178.59 149.35 179.69 C 148.82 180.85 148.29 182.02 147.78 183.20 C 146.18 181.67 144.46 180.27 142.68 178.96 C 143.51 178.15 144.36 177.36 145.21 176.57 Z" fill="#211e34" />
<path d="M 34.10 179.85 C 35.09 184.29 36.30 188.75 38.09 192.95 C 39.71 196.73 42.12 199.87 44.49 203.18 C 42.64 204.17 40.77 205.08 38.82 205.85 C 36.64 203.55 34.67 201.01 32.90 198.38 C 32.43 197.78 32.76 196.79 32.79 196.09 C 33.71 190.69 31.53 184.99 31.32 179.49 C 32.24 179.61 33.17 179.73 34.10 179.85 Z" fill="#1e1f3b" />
<path d="M 132.51 180.15 C 135.45 180.04 137.97 179.68 140.39 181.72 C 140.52 183.78 140.69 185.83 140.85 187.89 C 139.48 188.64 138.09 189.38 136.71 190.12 C 136.58 189.00 136.46 187.89 136.33 186.77 C 134.96 187.21 133.60 187.65 132.24 188.09 C 133.05 190.49 133.53 192.57 133.16 195.11 C 129.62 192.14 127.83 188.24 126.14 184.06 C 128.20 182.64 130.28 181.28 132.51 180.15 Z" fill="#20223d" />
<path d="M 149.35 179.69 C 151.42 181.47 153.74 183.74 154.63 186.37 C 155.18 188.36 153.81 190.71 152.55 192.18 L 150.71 192.30 C 150.91 188.30 150.25 186.34 147.78 183.20 C 148.29 182.02 148.82 180.85 149.35 179.69 Z" fill="#7c7b83" />
<path d="M 85.64 181.19 C 88.37 183.64 91.23 185.92 94.07 188.25 C 96.43 191.08 97.90 194.00 101.49 195.46 C 106.48 197.44 112.32 200.22 117.77 199.85 C 120.10 199.92 120.68 197.46 121.87 195.91 C 124.60 197.89 126.73 200.41 128.79 203.06 C 126.56 204.10 124.24 205.40 121.81 205.89 C 119.78 206.11 117.68 205.85 115.65 205.75 C 117.36 206.50 119.09 207.24 120.82 207.96 C 124.57 209.41 128.56 210.95 132.60 211.35 C 137.28 211.75 140.89 209.40 144.79 207.24 C 144.17 209.17 144.00 212.06 142.40 213.44 C 138.30 216.78 133.05 217.83 127.87 217.14 C 126.65 216.93 125.46 216.65 124.26 216.36 C 117.46 213.21 110.45 210.85 104.04 206.86 C 101.25 205.20 98.51 203.45 95.75 201.75 C 91.23 198.89 87.46 195.21 83.95 191.20 C 85.59 191.19 87.28 191.36 88.92 191.49 C 86.82 189.57 84.72 187.67 82.47 185.92 C 83.33 184.19 84.29 182.58 85.64 181.19 Z" fill="#b97867" />
<path d="M 208.61 180.41 C 212.24 183.08 214.93 186.27 217.16 190.18 L 215.51 189.64 C 212.85 187.99 210.26 186.30 207.85 184.29 C 208.10 183.00 208.36 181.70 208.61 180.41 Z" fill="#a6907b" />
<path d="M 174.92 181.96 C 182.44 184.24 188.63 188.58 194.90 193.15 C 198.53 195.89 200.89 199.44 204.02 202.61 C 204.37 205.99 205.26 209.19 206.32 212.40 C 205.98 215.64 205.79 218.61 203.46 221.11 C 203.60 218.71 203.76 216.40 203.29 214.02 C 202.95 212.67 202.58 211.32 202.23 209.97 C 201.60 207.34 201.48 204.46 199.67 202.32 C 196.74 198.67 192.90 195.64 189.32 192.66 C 184.69 188.81 179.36 186.06 174.92 181.96 Z" fill="#a65848" />
<path d="M 75.49 183.39 C 77.86 182.00 80.55 184.68 82.47 185.92 C 84.72 187.67 86.82 189.57 88.92 191.49 C 87.28 191.36 85.59 191.19 83.95 191.20 C 81.09 192.19 78.28 193.00 75.27 193.41 C 74.41 195.03 73.58 196.66 72.74 198.29 C 70.60 195.39 68.04 192.01 68.86 188.18 C 69.46 185.56 73.33 184.44 75.49 183.39 Z" fill="#20223e" />
<path d="M 109.39 186.43 L 109.86 186.75 C 113.71 190.15 117.45 193.23 121.87 195.91 C 120.68 197.46 120.10 199.92 117.77 199.85 C 112.32 200.22 106.48 197.44 101.49 195.46 C 97.90 194.00 96.43 191.08 94.07 188.25 C 99.05 186.51 104.17 186.34 109.39 186.43 Z" fill="#dec6c2" />
<path d="M 195.93 186.02 C 202.75 187.11 208.38 190.37 215.51 189.64 L 217.16 190.18 C 220.10 191.20 223.12 191.79 226.15 192.46 C 228.92 194.18 231.86 196.58 233.28 199.57 C 234.18 203.04 234.52 207.14 233.63 210.64 C 232.79 212.39 230.41 213.42 228.89 214.53 C 229.85 212.99 231.83 211.18 230.93 209.26 C 229.52 205.21 226.22 202.49 222.64 200.37 C 213.85 195.37 205.03 190.45 195.93 186.02 Z" fill="#a95943" />
<path d="M 150.71 192.30 L 152.55 192.18 C 151.21 193.83 149.72 195.29 147.81 196.27 L 146.64 196.15 C 147.88 194.73 149.19 193.41 150.71 192.30 Z" fill="#291f29" />
<path d="M 164.78 192.52 L 164.98 192.38 C 165.29 193.15 165.61 193.91 165.94 194.67 C 167.46 199.29 173.63 199.11 176.85 202.96 C 177.97 201.94 179.09 200.93 180.22 199.92 C 180.00 203.32 181.04 209.48 177.42 211.47 C 174.23 213.62 171.04 215.32 168.77 218.56 C 170.77 218.11 172.76 217.60 174.74 217.04 C 176.38 216.67 178.03 216.35 179.67 215.96 C 179.18 217.57 178.98 218.73 177.32 219.47 C 172.33 220.16 167.21 220.49 162.32 221.69 C 158.59 219.04 154.41 218.20 150.07 217.07 C 152.95 211.96 155.40 207.04 156.24 201.14 C 156.69 200.00 157.19 198.90 157.75 197.80 C 159.97 195.94 162.42 194.24 164.78 192.52 Z" fill="#cb9d91" />
<path d="M 144.25 197.69 L 142.34 198.17 C 140.57 198.18 138.81 198.12 137.05 198.09 C 136.22 197.20 135.39 196.31 134.57 195.43 C 137.85 195.98 141.05 196.82 144.25 197.69 Z" fill="#4b3138" />
<path d="M 136.36 199.66 C 136.59 199.13 136.82 198.61 137.05 198.09 C 138.81 198.12 140.57 198.18 142.34 198.17 C 140.85 198.54 139.37 198.90 137.88 199.28 C 140.21 201.91 142.57 204.51 144.79 207.24 C 140.89 209.40 137.28 211.75 132.60 211.35 C 128.56 210.95 124.57 209.41 120.82 207.96 C 124.63 207.17 128.37 206.23 132.03 204.89 C 131.78 203.47 131.52 202.04 131.25 200.63 C 132.35 200.99 133.45 201.34 134.55 201.68 C 133.32 200.29 132.05 198.93 130.69 197.66 C 132.57 198.35 134.47 198.98 136.36 199.66 Z" fill="#c2897a" />
<path d="M 50.54 197.64 C 53.05 201.22 54.99 204.72 58.50 207.48 C 62.95 210.97 68.47 213.21 73.85 214.80 C 73.74 216.24 73.63 217.69 73.52 219.13 C 68.68 217.85 64.13 216.85 59.82 214.15 C 56.86 212.29 53.96 210.39 50.70 209.05 C 49.78 206.13 49.83 203.19 50.05 200.17 C 50.19 199.32 50.36 198.47 50.54 197.64 Z" fill="#ddbdb8" />
<path d="M 89.66 199.28 C 91.44 201.75 91.91 204.42 94.66 206.07 L 95.97 206.95 C 95.63 207.18 95.28 207.40 94.94 207.63 C 92.76 207.43 90.61 207.44 88.72 206.22 C 86.72 205.13 84.45 203.18 82.13 203.06 C 80.52 203.42 79.00 204.32 77.49 204.99 C 78.47 202.78 79.47 200.58 80.47 198.37 C 83.83 197.95 86.63 197.29 89.66 199.28 Z" fill="#1e1f38" />
<path d="M 24.66 200.17 C 28.56 202.91 33.14 206.09 37.95 206.79 C 38.14 207.61 38.34 208.43 38.53 209.25 C 39.38 209.17 40.24 209.09 41.09 209.01 C 41.63 210.66 42.17 212.32 42.71 213.98 C 41.02 214.19 39.36 214.50 37.68 214.76 C 34.86 213.79 31.99 212.22 29.85 210.13 C 27.58 207.20 25.99 203.60 24.66 200.17 Z" fill="#6b676f" />
<path d="M 156.24 201.14 C 155.40 207.04 152.95 211.96 150.07 217.07 C 154.41 218.20 158.59 219.04 162.32 221.69 C 158.57 223.19 154.81 224.68 151.07 226.20 C 143.11 226.56 135.47 226.00 127.45 227.31 C 128.81 226.41 130.14 225.46 131.48 224.52 C 130.74 224.16 130.01 223.80 129.27 223.44 C 131.24 221.18 133.19 219.58 135.80 218.08 C 133.14 217.87 130.49 217.60 127.87 217.14 C 133.05 217.83 138.30 216.78 142.40 213.44 C 144.00 212.06 144.17 209.17 144.79 207.24 C 148.56 205.13 152.33 202.97 156.24 201.14 Z" fill="#e1c4be" />
<path d="M 197.41 201.55 C 192.37 207.54 186.39 212.03 179.67 215.96 C 178.03 216.35 176.38 216.67 174.74 217.04 C 179.64 213.45 184.85 210.47 189.43 206.44 C 192.03 204.42 194.00 201.95 197.41 201.55 Z" fill="#9e6456" />
<path d="M 95.75 201.75 C 98.51 203.45 101.25 205.20 104.04 206.86 C 101.01 207.28 98.01 207.67 94.94 207.63 C 95.28 207.40 95.63 207.18 95.97 206.95 L 94.66 206.07 C 94.96 204.61 95.32 203.18 95.75 201.75 Z" fill="#dec2bf" />
<path d="M 204.02 202.61 C 205.04 203.24 206.05 203.86 207.06 204.49 C 206.98 207.15 206.64 209.76 206.32 212.40 C 205.26 209.19 204.37 205.99 204.02 202.61 Z" fill="#734842" />
<path d="M 37.95 206.79 L 39.96 207.14 C 42.36 207.88 44.78 208.53 47.21 209.15 C 48.08 211.12 48.98 213.09 49.79 215.09 C 47.43 214.64 45.10 214.19 42.71 213.98 C 42.17 212.32 41.63 210.66 41.09 209.01 C 40.24 209.09 39.38 209.17 38.53 209.25 C 38.34 208.43 38.14 207.61 37.95 206.79 Z" fill="#815a55" />
<path d="M 216.48 206.45 C 220.41 208.64 221.40 212.00 222.85 215.97 C 224.68 215.62 226.51 215.30 228.32 214.91 C 225.22 217.15 223.22 220.19 221.14 223.32 C 219.17 221.99 217.23 220.61 215.33 219.19 C 217.07 218.32 218.82 217.46 220.57 216.62 C 220.37 212.59 218.56 209.72 216.48 206.45 Z" fill="#5e3f44" />
<path d="M 50.70 209.05 C 53.96 210.39 56.86 212.29 59.82 214.15 C 64.13 216.85 68.68 217.85 73.52 219.13 C 75.48 221.62 77.54 223.95 79.78 226.20 C 76.50 225.51 73.29 224.55 70.03 223.82 C 69.76 224.35 69.50 224.89 69.25 225.43 C 70.59 225.91 71.92 226.40 73.28 226.84 C 71.75 227.30 70.24 227.80 68.72 228.31 C 67.41 227.89 66.08 227.52 64.73 227.21 C 65.80 225.85 66.87 224.50 67.95 223.14 C 67.05 223.06 66.16 222.98 65.26 222.90 C 60.38 218.86 52.73 215.27 50.70 209.05 Z" fill="#cc9c90" />
<path d="M 42.71 213.98 C 45.10 214.19 47.43 214.64 49.79 215.09 C 50.16 216.05 50.50 217.00 50.81 217.97 C 46.41 216.88 41.98 216.25 37.68 214.76 C 39.36 214.50 41.02 214.19 42.71 213.98 Z" fill="#3d323d" />
<path d="M 203.29 214.02 C 203.76 216.40 203.60 218.71 203.46 221.11 C 202.59 221.54 201.73 221.96 200.87 222.39 C 201.62 219.58 202.38 216.78 203.29 214.02 Z" fill="#cfb0a8" />
<path d="M 73.85 214.80 C 78.60 215.93 83.39 216.95 88.23 217.64 C 100.40 219.02 112.32 219.75 124.26 216.36 C 125.46 216.65 126.65 216.93 127.87 217.14 C 130.49 217.60 133.14 217.87 135.80 218.08 C 133.19 219.58 131.24 221.18 129.27 223.44 C 130.01 223.80 130.74 224.16 131.48 224.52 C 130.14 225.46 128.81 226.41 127.45 227.31 L 126.70 227.44 L 125.08 227.66 C 121.16 227.67 117.32 227.68 113.49 228.66 C 108.88 229.90 104.55 229.30 99.85 229.28 C 98.97 229.23 98.08 229.20 97.19 229.17 C 94.89 228.81 92.60 228.38 90.30 228.00 C 89.58 226.43 89.38 224.15 87.59 223.47 C 83.27 221.27 78.26 220.04 73.52 219.13 C 73.63 217.69 73.74 216.24 73.85 214.80 Z" fill="#e6d3ce" />
<path d="M 42.90 219.05 C 45.85 219.21 48.60 219.17 51.43 220.17 C 56.45 222.55 59.62 223.25 65.26 222.90 C 66.16 222.98 67.05 223.06 67.95 223.14 C 66.87 224.50 65.80 225.85 64.73 227.21 C 56.33 227.89 48.98 224.66 42.90 219.05 Z" fill="#3a3749" />
<path d="M 73.52 219.13 C 78.26 220.04 83.27 221.27 87.59 223.47 C 89.38 224.15 89.58 226.43 90.30 228.00 C 86.79 227.44 83.27 226.88 79.78 226.20 C 77.54 223.95 75.48 221.62 73.52 219.13 Z" fill="#d6b0a6" />
<path d="M 177.32 219.47 C 174.03 221.49 170.61 223.25 167.30 225.21 C 162.76 227.91 156.72 228.48 151.59 229.65 C 148.38 230.40 145.14 230.44 141.88 230.86 C 145.43 230.08 148.06 228.06 151.07 226.20 C 154.81 224.68 158.57 223.19 162.32 221.69 C 167.21 220.49 172.33 220.16 177.32 219.47 Z" fill="#241e33" />
<path d="M 70.03 223.82 C 73.29 224.55 76.50 225.51 79.78 226.20 C 83.27 226.88 86.79 227.44 90.30 228.00 C 92.60 228.38 94.89 228.81 97.19 229.17 C 95.66 229.56 94.15 230.00 92.63 230.43 C 92.69 231.32 92.75 232.21 92.82 233.10 L 91.28 232.70 C 85.76 228.88 79.85 227.57 73.28 226.84 C 71.92 226.40 70.59 225.91 69.25 225.43 C 69.50 224.89 69.76 224.35 70.03 223.82 Z" fill="#98533f" />
<path d="M 59.65 225.23 C 60.26 224.34 62.69 224.43 62.34 225.85 C 61.71 226.82 59.33 226.71 59.65 225.23 Z" fill="#aba4a7" />
<path d="M 151.07 226.20 C 148.06 228.06 145.43 230.08 141.88 230.86 C 135.85 231.67 129.94 231.66 123.89 232.15 C 126.12 231.01 128.17 229.60 130.16 228.08 C 129.01 227.86 127.86 227.64 126.70 227.44 L 127.45 227.31 C 135.47 226.00 143.11 226.56 151.07 226.20 Z" fill="#a85c47" />
<path d="M 73.28 226.84 C 79.85 227.57 85.76 228.88 91.28 232.70 C 83.51 231.64 76.02 231.62 68.72 228.31 C 70.24 227.80 71.75 227.30 73.28 226.84 Z" fill="#d1b1a8" />
<path d="M 113.49 228.66 C 117.32 227.68 121.16 227.67 125.08 227.66 C 120.58 228.77 116.55 228.61 113.42 232.57 C 108.97 231.91 104.71 231.23 100.24 232.22 C 101.45 231.53 102.63 230.80 103.81 230.07 C 102.49 229.79 101.18 229.51 99.85 229.28 C 104.55 229.30 108.88 229.90 113.49 228.66 Z" fill="#894f42" />
<path d="M 125.08 227.66 L 126.70 227.44 C 127.86 227.64 129.01 227.86 130.16 228.08 C 128.17 229.60 126.12 231.01 123.89 232.15 C 120.45 232.32 116.83 233.06 113.42 232.57 C 116.55 228.61 120.58 228.77 125.08 227.66 Z" fill="#1c1931" />
<path d="M 97.19 229.17 C 98.08 229.20 98.97 229.23 99.85 229.28 C 101.18 229.51 102.49 229.79 103.81 230.07 C 102.63 230.80 101.45 231.53 100.24 232.22 C 97.76 232.86 95.42 233.55 92.82 233.10 C 92.75 232.21 92.69 231.32 92.63 230.43 C 94.15 230.00 95.66 229.56 97.19 229.17 Z" fill="#120f28" />
</svg>