<?xml version="1.0" encoding="UTF-8" standalone="no"?>
<!DOCTYPE svg PUBLIC "-//W3C//DTD SVG 1.1//EN" "http://www.w3.org/Graphics/SVG/1.1/DTD/svg11.dtd">
<svg xmlns="http://www.w3.org/2000/svg" version="1.1" viewBox="0 0 256 256" width="256.0pt" height="256.0pt">
<path d="M 0.00 0.00 L 256.00 0.00 L 256.00 256.00 L 0.00 256.00 L 0.00 0.00 Z" fill="#fefefd" />
<path d="M 136.38 22.62 C 140.67 22.43 144.97 22.49 149.26 22.27 C 147.72 23.11 146.18 23.95 144.63 24.78 C 144.41 25.94 144.19 27.10 143.97 28.26 C 138.63 30.92 133.09 33.14 127.74 35.78 C 127.19 35.91 126.64 36.03 126.09 36.17 C 121.28 37.07 116.67 38.81 111.85 39.58 C 103.67 40.68 95.18 39.93 87.04 38.83 C 79.75 37.85 72.45 37.16 65.21 35.79 C 60.65 34.64 55.99 33.88 51.46 32.62 C 49.93 32.08 48.41 31.45 46.86 30.99 C 45.16 30.60 43.42 30.37 41.68 30.25 C 39.35 36.78 36.81 43.95 36.84 50.94 C 36.71 55.49 37.70 59.78 38.67 64.18 C 39.11 66.59 39.58 69.01 40.10 71.40 C 40.80 69.81 41.47 68.20 42.11 66.57 C 47.55 65.45 52.82 66.12 58.28 66.74 C 65.61 71.00 73.27 74.33 80.04 79.48 C 74.22 80.25 68.66 80.70 63.29 83.33 C 59.77 84.82 55.69 87.22 51.92 85.10 C 49.35 83.85 48.74 81.81 48.23 79.23 C 51.17 80.49 54.05 81.88 56.93 83.27 C 58.38 81.14 59.81 79.00 61.25 76.86 C 58.58 73.91 55.82 71.06 52.68 68.59 C 49.88 71.17 47.21 73.98 44.97 77.06 C 44.35 78.03 43.31 79.41 43.66 80.62 C 44.58 84.02 47.04 87.11 49.60 89.47 C 50.70 90.29 51.93 91.69 53.44 91.09 C 56.71 90.16 59.69 88.67 63.10 88.16 C 68.31 87.34 73.60 86.97 78.84 86.40 C 78.72 87.36 78.59 88.31 78.47 89.26 C 77.56 89.97 76.66 90.67 75.75 91.37 C 72.69 92.60 69.62 93.79 66.58 95.08 C 64.74 94.12 62.85 93.24 60.94 92.42 C 61.47 94.38 62.06 96.31 62.64 98.25 C 61.24 98.61 59.81 99.06 58.37 99.18 C 56.16 98.17 54.23 96.41 52.30 94.95 C 52.61 97.31 52.91 99.66 53.18 102.03 C 52.14 102.02 51.10 102.02 50.06 102.02 C 48.52 99.89 46.97 97.77 45.34 95.70 C 45.39 98.53 45.16 101.55 45.78 104.32 C 46.81 107.95 49.53 110.76 50.46 114.52 C 51.43 117.19 51.30 121.06 54.30 122.34 C 55.65 122.71 57.52 121.45 58.83 121.05 C 66.10 118.13 73.39 115.60 81.11 114.14 C 88.61 112.23 96.10 114.06 103.57 111.74 C 103.51 112.54 103.44 113.35 103.38 114.16 C 102.65 121.11 102.39 127.90 100.66 134.72 C 98.85 141.59 97.99 147.86 95.33 154.20 L 94.46 155.26 C 90.49 157.97 87.22 161.38 83.83 164.75 C 82.57 165.71 81.33 166.69 80.10 167.68 C 81.72 167.36 83.34 167.03 84.95 166.68 C 88.26 170.76 89.95 174.36 91.17 179.43 C 88.53 176.53 86.13 173.32 83.23 170.68 C 81.92 169.36 79.46 169.90 77.74 169.73 C 77.93 172.27 77.92 175.43 79.17 177.71 C 79.75 178.65 81.25 178.99 82.19 179.49 C 82.69 181.28 83.16 183.08 83.63 184.87 C 84.37 182.88 85.10 180.88 85.84 178.89 C 86.54 178.66 87.24 178.43 87.93 178.20 C 89.90 180.78 91.69 183.45 93.28 186.28 L 93.64 186.91 C 91.76 185.97 89.87 185.07 87.99 184.16 C 87.79 185.98 87.60 187.80 87.42 189.63 C 85.93 188.72 84.44 187.83 82.92 186.98 C 79.47 185.06 76.11 183.56 73.04 181.01 C 70.65 179.02 68.32 176.96 65.95 174.95 C 61.22 169.24 58.46 162.63 55.40 155.97 C 55.01 154.99 54.62 154.01 54.22 153.04 C 53.32 149.38 52.17 146.12 50.56 142.71 C 49.96 140.94 49.33 139.18 48.65 137.44 C 46.49 130.92 44.17 124.53 40.64 118.60 C 40.16 117.36 39.69 116.12 39.21 114.88 C 38.58 115.72 37.94 116.56 37.31 117.40 C 36.10 113.07 34.87 108.99 35.55 104.43 C 36.30 98.99 37.03 93.76 35.83 88.32 C 35.31 84.16 32.64 81.82 30.91 78.25 C 29.86 75.59 29.70 72.54 29.12 69.76 C 28.31 72.45 28.15 74.27 28.92 77.03 C 30.50 82.56 29.72 88.42 27.27 93.58 C 26.01 85.72 28.64 78.44 26.51 70.69 L 26.38 69.28 C 28.85 68.23 28.89 65.87 27.24 64.02 C 27.59 63.00 27.91 61.98 28.21 60.95 L 28.21 62.98 C 30.78 57.86 31.13 53.30 30.72 47.66 C 30.88 45.15 30.04 41.83 31.52 39.69 C 33.78 36.03 36.25 32.33 39.21 29.19 C 42.28 25.90 46.74 25.40 50.98 24.99 C 56.79 24.49 61.72 26.52 67.42 27.57 C 75.82 29.19 84.45 29.78 92.99 30.04 C 104.37 30.31 115.14 27.96 126.10 25.20 C 129.63 24.23 132.63 22.78 136.38 22.62 Z" fill="#f5f5f3" />
<path d="M 177.85 22.03 C 182.14 22.76 186.30 24.52 190.27 26.25 C 194.92 28.18 197.62 32.85 200.79 36.57 C 202.81 39.39 205.41 41.14 204.59 44.98 C 202.13 43.88 199.59 42.85 197.01 42.06 C 196.83 40.30 196.63 38.54 196.43 36.79 C 195.89 38.15 195.38 39.54 194.86 40.91 C 186.20 34.93 176.88 29.88 168.38 23.67 C 171.43 22.80 174.65 21.49 177.85 22.03 Z" fill="#f5f4f1" />
<path d="M 154.72 24.15 C 151.90 25.24 149.13 26.94 147.75 29.73 C 145.59 34.56 146.13 40.96 143.62 45.63 C 141.82 49.11 136.79 50.44 134.34 53.46 C 133.20 59.04 135.29 65.49 136.60 70.96 C 135.20 69.54 133.70 68.22 132.15 66.96 L 132.43 66.31 C 132.95 65.38 133.02 64.53 132.62 63.75 C 131.99 61.92 131.32 60.12 130.78 58.26 C 131.75 55.80 132.85 53.40 134.18 51.11 C 136.97 48.80 140.98 47.02 143.01 44.00 C 145.23 39.55 145.47 33.93 146.08 29.05 C 142.12 30.66 138.42 32.75 134.73 34.90 C 132.40 35.59 130.16 35.81 127.74 35.78 C 133.09 33.14 138.63 30.92 143.97 28.26 C 147.25 26.82 151.04 23.97 154.72 24.15 Z" fill="#0a0b2f" />
<path d="M 154.72 24.15 C 156.98 24.52 159.22 25.02 161.50 25.31 C 162.55 27.99 163.72 30.18 165.90 32.11 C 166.32 31.14 166.73 30.18 167.13 29.21 C 169.47 30.40 171.68 31.54 173.66 33.31 C 175.96 35.38 177.43 37.86 179.39 40.18 C 181.23 42.42 184.46 43.45 186.50 45.54 C 187.76 47.18 188.36 49.41 189.05 51.34 C 189.71 51.30 190.37 51.26 191.03 51.21 C 190.89 54.73 190.26 58.26 190.28 61.78 C 190.40 66.15 191.58 70.71 192.45 74.98 C 192.62 79.48 193.91 83.64 194.87 88.00 C 195.82 94.32 196.14 101.14 194.57 107.39 C 193.64 111.28 192.86 115.19 192.09 119.11 C 190.14 127.87 186.68 136.09 184.38 144.77 C 184.01 145.91 183.65 147.05 183.29 148.20 C 179.92 158.85 177.39 169.86 171.90 179.70 C 166.29 183.66 162.57 188.78 155.90 191.19 C 158.53 186.89 161.82 183.08 163.55 178.48 C 165.14 174.35 165.96 169.73 166.73 165.37 C 167.13 164.56 167.54 163.76 167.96 162.95 C 170.42 159.40 172.93 155.88 175.25 152.23 C 178.64 146.88 182.90 142.57 185.37 136.64 C 181.27 136.29 178.75 138.41 175.81 140.90 C 176.19 139.23 176.47 137.55 176.72 135.87 C 174.26 139.92 172.21 144.22 170.08 148.45 C 168.83 148.45 167.58 148.44 166.33 148.44 C 165.47 146.30 164.62 144.16 163.70 142.05 C 164.89 139.79 165.88 137.42 166.71 135.01 C 167.04 135.48 167.37 135.94 167.69 136.41 C 168.67 134.28 169.53 131.81 171.06 130.02 C 174.40 127.03 179.78 126.22 181.85 121.91 C 184.47 116.73 186.67 110.90 186.95 105.05 C 187.23 99.69 188.07 93.95 187.28 88.64 C 185.95 80.32 183.64 72.41 181.57 64.28 C 179.17 54.51 174.01 45.22 166.93 38.06 C 165.05 36.30 162.01 33.69 159.26 34.14 C 153.85 37.23 149.67 42.88 147.57 48.70 C 145.68 53.69 143.06 59.24 143.58 64.66 C 144.11 71.05 146.19 77.66 147.82 83.80 C 150.81 94.54 145.87 104.84 148.80 115.95 C 150.07 121.19 153.83 128.02 159.42 129.55 L 159.10 129.81 C 157.08 131.20 155.05 132.58 153.06 134.00 C 146.30 135.78 140.74 138.16 134.73 141.71 C 137.21 135.77 138.47 129.06 139.84 122.73 C 141.20 116.21 141.38 109.54 140.48 102.95 C 139.93 107.72 139.41 112.49 138.75 117.25 C 137.44 114.55 136.27 111.88 135.94 108.86 C 137.30 103.57 138.48 98.40 138.13 92.89 C 139.00 95.86 139.65 98.89 140.51 101.86 C 141.01 98.04 140.91 94.77 140.03 91.02 C 139.91 89.28 139.86 87.56 139.81 85.82 C 140.59 87.16 141.37 88.51 142.15 89.85 C 142.19 86.84 142.38 83.53 141.67 80.60 C 141.35 78.84 139.46 77.56 138.26 76.35 C 137.71 74.55 137.17 72.75 136.60 70.96 C 135.29 65.49 133.20 59.04 134.34 53.46 C 136.79 50.44 141.82 49.11 143.62 45.63 C 146.13 40.96 145.59 34.56 147.75 29.73 C 149.13 26.94 151.90 25.24 154.72 24.15 Z" fill="#f3f3f0" />
<path d="M 164.36 24.88 C 165.69 24.46 167.04 24.08 168.38 23.67 C 176.88 29.88 186.20 34.93 194.86 40.91 C 195.38 39.54 195.89 38.15 196.43 36.79 C 196.63 38.54 196.83 40.30 197.01 42.06 C 194.90 42.16 192.79 42.37 190.71 42.72 C 190.79 45.55 191.04 48.37 191.03 51.21 C 190.37 51.26 189.71 51.30 189.05 51.34 C 188.36 49.41 187.76 47.18 186.50 45.54 C 184.46 43.45 181.23 42.42 179.39 40.18 C 177.43 37.86 175.96 35.38 173.66 33.31 C 171.68 31.54 169.47 30.40 167.13 29.21 C 166.19 27.79 165.23 26.36 164.36 24.88 Z" fill="#d4b176" />
<path d="M 146.08 29.05 C 145.47 33.93 145.23 39.55 143.01 44.00 C 140.98 47.02 136.97 48.80 134.18 51.11 C 135.10 49.28 135.50 47.80 135.56 45.78 C 137.73 44.31 139.95 42.66 141.57 40.59 C 142.73 39.34 142.09 37.03 142.11 35.46 C 139.66 35.25 137.19 34.94 134.73 34.90 C 138.42 32.75 142.12 30.66 146.08 29.05 Z" fill="#acc4ce" />
<path d="M 41.68 30.25 C 43.42 30.37 45.16 30.60 46.86 30.99 C 45.23 30.90 43.61 30.91 41.98 30.96 C 40.74 35.54 41.52 40.17 39.76 44.67 C 39.03 46.21 40.51 47.09 41.23 48.33 C 41.92 46.36 42.58 44.39 43.22 42.40 C 45.30 42.89 47.52 43.60 49.66 43.57 C 51.31 43.05 52.83 41.97 54.31 41.10 C 54.10 40.25 53.88 39.40 53.66 38.56 C 50.50 37.08 47.48 35.43 44.56 33.51 C 46.96 33.72 49.33 34.04 51.70 34.42 C 51.62 33.82 51.54 33.22 51.46 32.62 C 55.99 33.88 60.65 34.64 65.21 35.79 C 64.15 35.94 63.10 36.11 62.05 36.29 C 66.36 37.64 70.77 38.64 75.24 39.29 C 71.34 39.68 67.25 40.60 63.35 39.92 C 60.83 39.48 58.35 38.75 55.85 38.17 C 60.47 42.24 65.21 44.06 71.26 44.94 C 69.24 43.49 67.19 42.08 65.13 40.68 C 73.76 40.67 81.56 43.81 90.07 44.70 C 88.98 45.12 87.89 45.55 86.79 45.93 C 82.43 46.01 78.07 45.98 73.71 46.14 C 80.07 50.87 86.58 55.39 93.01 60.02 C 89.47 59.59 86.05 59.70 82.76 58.21 C 79.49 56.75 76.51 54.97 72.97 54.16 C 67.54 52.88 62.07 51.84 56.71 50.26 C 53.69 49.53 50.00 48.18 46.89 48.84 C 43.54 49.81 42.72 54.05 41.57 56.88 C 42.65 57.71 43.71 58.55 44.81 59.35 C 43.69 59.09 42.58 58.84 41.45 58.59 C 41.19 55.71 40.92 52.82 40.60 49.94 C 38.58 54.98 38.04 58.73 38.67 64.18 C 37.70 59.78 36.71 55.49 36.84 50.94 C 36.81 43.95 39.35 36.78 41.68 30.25 Z" fill="#999597" />
<path d="M 41.98 30.96 C 43.61 30.91 45.23 30.90 46.86 30.99 C 48.41 31.45 49.93 32.08 51.46 32.62 C 51.54 33.22 51.62 33.82 51.70 34.42 C 49.33 34.04 46.96 33.72 44.56 33.51 C 47.48 35.43 50.50 37.08 53.66 38.56 C 53.88 39.40 54.10 40.25 54.31 41.10 C 52.83 41.97 51.31 43.05 49.66 43.57 C 47.52 43.60 45.30 42.89 43.22 42.40 C 42.58 44.39 41.92 46.36 41.23 48.33 C 40.51 47.09 39.03 46.21 39.76 44.67 C 41.52 40.17 40.74 35.54 41.98 30.96 Z" fill="#212139" />
<path d="M 134.73 34.90 C 137.19 34.94 139.66 35.25 142.11 35.46 C 142.09 37.03 142.73 39.34 141.57 40.59 C 139.95 42.66 137.73 44.31 135.56 45.78 C 133.77 46.48 131.95 47.13 130.14 47.79 C 130.93 51.26 130.79 54.73 130.78 58.26 C 131.32 60.12 131.99 61.92 132.62 63.75 C 131.64 63.29 130.76 63.34 129.97 63.88 C 128.68 59.90 125.72 59.69 122.18 58.63 C 119.22 57.82 116.39 56.68 113.51 55.64 C 115.48 54.74 118.15 53.66 119.36 51.76 C 120.09 50.03 119.70 46.97 117.61 46.39 C 112.75 44.42 106.55 44.96 101.39 45.11 C 99.58 44.64 97.80 44.09 96.01 43.53 C 97.13 43.00 98.25 42.47 99.39 41.98 C 105.44 42.08 111.61 42.30 117.45 40.50 C 120.65 39.54 123.23 37.80 126.09 36.17 C 126.64 36.03 127.19 35.91 127.74 35.78 C 130.16 35.81 132.40 35.59 134.73 34.90 Z" fill="#3c699f" />
<path d="M 159.26 34.14 C 162.01 33.69 165.05 36.30 166.93 38.06 C 174.01 45.22 179.17 54.51 181.57 64.28 C 183.64 72.41 185.95 80.32 187.28 88.64 C 188.07 93.95 187.23 99.69 186.95 105.05 C 186.67 110.90 184.47 116.73 181.85 121.91 C 179.78 126.22 174.40 127.03 171.06 130.02 C 169.53 131.81 168.67 134.28 167.69 136.41 C 167.37 135.94 167.04 135.48 166.71 135.01 C 168.13 130.85 168.33 127.59 166.97 123.36 C 166.48 121.73 165.92 120.13 165.36 118.52 C 163.56 122.21 162.02 126.36 159.42 129.55 C 153.83 128.02 150.07 121.19 148.80 115.95 C 145.87 104.84 150.81 94.54 147.82 83.80 C 146.19 77.66 144.11 71.05 143.58 64.66 C 143.06 59.24 145.68 53.69 147.57 48.70 C 149.67 42.88 153.85 37.23 159.26 34.14 Z" fill="#fdfcfb" />
<path d="M 62.05 36.29 C 63.10 36.11 64.15 35.94 65.21 35.79 C 72.45 37.16 79.75 37.85 87.04 38.83 C 95.18 39.93 103.67 40.68 111.85 39.58 C 116.67 38.81 121.28 37.07 126.09 36.17 C 123.23 37.80 120.65 39.54 117.45 40.50 C 111.61 42.30 105.44 42.08 99.39 41.98 C 91.34 41.05 83.33 39.88 75.24 39.29 C 70.77 38.64 66.36 37.64 62.05 36.29 Z" fill="#3c4760" />
<path d="M 45.30 37.36 C 46.85 36.07 48.69 38.02 47.41 39.54 C 45.83 40.84 44.04 38.90 45.30 37.36 Z" fill="#9f9daf" />
<path d="M 55.85 38.17 C 58.35 38.75 60.83 39.48 63.35 39.92 C 67.25 40.60 71.34 39.68 75.24 39.29 C 83.33 39.88 91.34 41.05 99.39 41.98 C 98.25 42.47 97.13 43.00 96.01 43.53 C 97.80 44.09 99.58 44.64 101.39 45.11 C 96.51 45.73 91.72 46.08 86.79 45.93 C 87.89 45.55 88.98 45.12 90.07 44.70 C 81.56 43.81 73.76 40.67 65.13 40.68 C 67.19 42.08 69.24 43.49 71.26 44.94 C 65.21 44.06 60.47 42.24 55.85 38.17 Z" fill="#6a759e" />
<path d="M 190.71 42.72 C 192.79 42.37 194.90 42.16 197.01 42.06 C 199.59 42.85 202.13 43.88 204.59 44.98 C 206.86 47.72 207.97 50.76 208.78 54.19 C 209.46 57.28 211.22 59.65 212.76 62.33 C 214.54 65.38 214.42 68.69 214.75 72.11 C 215.49 69.73 216.14 67.19 217.30 64.98 C 219.11 64.25 222.32 66.66 224.18 67.28 C 225.02 69.06 225.92 70.81 226.72 72.60 C 226.62 76.36 226.92 80.08 227.25 83.81 C 225.99 95.37 224.73 106.93 223.38 118.47 C 222.33 124.65 221.43 130.72 221.32 137.00 L 221.20 137.79 C 218.91 141.00 216.75 144.18 215.49 147.96 C 214.58 150.73 213.01 153.03 211.34 155.37 C 209.76 157.52 209.56 159.87 209.13 162.40 C 210.44 162.46 211.74 162.52 213.04 162.58 C 214.60 158.04 217.36 153.84 218.21 149.17 C 218.92 146.30 218.73 143.70 220.91 141.47 C 220.86 142.55 220.81 143.64 220.75 144.72 C 220.57 146.66 220.32 148.59 220.06 150.52 C 219.13 159.52 215.91 166.93 216.70 176.03 C 211.66 183.19 204.97 188.24 200.99 196.09 C 202.22 196.62 203.46 197.15 204.69 197.68 C 207.18 195.00 209.44 192.49 213.06 191.37 L 212.56 192.26 C 210.12 196.63 209.03 200.45 209.14 205.51 C 201.93 212.64 193.55 218.03 184.84 223.11 C 186.55 224.11 188.26 225.10 189.97 226.10 C 194.21 222.93 198.42 219.75 202.76 216.72 C 207.90 213.11 211.91 208.65 216.07 203.99 C 214.21 207.56 213.01 210.99 209.87 213.71 C 207.11 216.03 204.35 218.15 202.33 221.21 C 199.89 224.72 197.29 227.68 194.10 230.52 C 190.60 232.61 186.83 235.14 182.71 235.64 C 177.16 236.28 171.26 233.72 165.62 234.73 C 162.01 235.36 158.47 235.79 154.82 236.06 C 152.48 236.18 150.17 236.14 147.84 236.10 C 150.21 235.12 152.87 234.37 155.02 232.95 C 157.16 231.08 158.09 227.88 160.53 226.05 C 162.66 224.50 164.10 222.42 165.53 220.24 C 168.37 220.78 171.18 221.42 174.01 222.02 C 173.66 218.75 172.92 215.44 172.95 212.15 C 173.98 209.78 176.12 207.79 177.68 205.74 C 179.42 203.59 180.30 201.17 181.22 198.59 C 181.50 197.79 181.78 196.98 182.06 196.18 C 182.86 195.35 183.70 194.56 184.53 193.77 C 185.07 198.97 185.29 204.21 186.03 209.39 C 189.34 202.43 189.38 193.74 190.39 186.20 C 190.87 184.54 191.43 182.92 191.91 181.27 C 192.78 177.70 192.17 174.35 191.83 170.77 C 192.39 167.91 193.67 165.41 194.84 162.78 C 195.94 160.42 195.71 158.15 195.87 155.61 C 196.12 148.73 197.59 142.37 198.51 135.56 C 199.69 126.36 200.94 117.17 202.21 107.98 C 202.75 104.78 202.70 101.56 202.54 98.32 C 201.12 101.73 199.75 105.13 198.00 108.39 C 198.00 103.43 198.81 98.71 200.03 93.93 C 200.45 91.37 201.59 88.51 200.25 86.05 C 198.25 81.82 196.29 77.86 192.45 74.98 C 191.58 70.71 190.40 66.15 190.28 61.78 C 190.26 58.26 190.89 54.73 191.03 51.21 C 191.04 48.37 190.79 45.55 190.71 42.72 Z" fill="#222440" />
<path d="M 101.39 45.11 C 106.55 44.96 112.75 44.42 117.61 46.39 C 119.70 46.97 120.09 50.03 119.36 51.76 C 118.15 53.66 115.48 54.74 113.51 55.64 C 112.08 56.07 110.39 56.34 109.15 57.20 C 107.73 58.67 106.75 60.65 105.70 62.39 C 102.58 62.35 99.47 62.20 96.37 61.77 C 95.24 61.21 94.13 60.62 93.01 60.02 C 86.58 55.39 80.07 50.87 73.71 46.14 C 78.07 45.98 82.43 46.01 86.79 45.93 C 91.72 46.08 96.51 45.73 101.39 45.11 Z" fill="#21233f" />
<path d="M 193.18 45.71 C 194.58 45.05 195.63 47.49 194.63 48.38 C 193.21 49.03 192.18 46.62 193.18 45.71 Z" fill="#b9a8b0" />
<path d="M 135.56 45.78 C 135.50 47.80 135.10 49.28 134.18 51.11 C 132.85 53.40 131.75 55.80 130.78 58.26 C 130.79 54.73 130.93 51.26 130.14 47.79 C 131.95 47.13 133.77 46.48 135.56 45.78 Z" fill="#6987ac" />
<path d="M 30.72 47.66 C 31.13 53.30 30.78 57.86 28.21 62.98 L 28.21 60.95 C 28.45 57.14 27.83 53.34 28.00 49.56 C 28.81 48.83 29.81 48.26 30.72 47.66 Z" fill="#0c1228" />
<path d="M 56.71 50.26 C 62.07 51.84 67.54 52.88 72.97 54.16 C 76.51 54.97 79.49 56.75 82.76 58.21 C 86.05 59.70 89.47 59.59 93.01 60.02 C 94.13 60.62 95.24 61.21 96.37 61.77 C 93.21 61.45 90.04 61.30 86.87 61.20 C 88.94 64.13 91.00 66.89 94.05 68.89 C 96.91 70.78 99.79 72.45 102.17 74.97 C 105.12 78.37 109.00 78.08 113.11 80.15 C 116.72 82.00 119.92 84.08 124.05 84.62 C 122.00 86.27 120.11 88.09 118.34 90.05 C 117.70 89.05 117.09 87.98 116.28 87.11 C 114.05 87.33 111.95 88.04 109.66 88.02 C 105.25 88.06 101.38 87.17 97.15 88.91 C 92.94 90.61 88.65 91.18 84.14 91.27 L 82.52 91.29 C 86.64 89.42 90.54 87.22 94.00 84.28 C 91.14 84.70 88.30 85.18 85.49 85.84 C 85.94 84.45 86.39 83.06 86.85 81.67 C 91.92 80.61 96.90 80.93 102.03 81.21 C 98.88 78.26 95.70 74.67 91.37 73.58 C 86.68 72.38 81.77 72.29 77.07 71.01 C 78.04 71.08 79.02 71.14 80.00 71.20 C 78.73 69.43 77.45 67.68 76.03 66.04 C 74.47 66.97 72.97 67.98 71.47 69.00 C 65.78 66.66 60.57 63.91 54.83 62.08 C 51.52 60.99 48.17 60.25 44.81 59.35 C 43.71 58.55 42.65 57.71 41.57 56.88 C 42.72 54.05 43.54 49.81 46.89 48.84 C 50.00 48.18 53.69 49.53 56.71 50.26 Z" fill="#d6b077" />
<path d="M 100.98 49.14 C 100.54 51.06 100.80 53.75 98.71 54.74 C 96.95 54.72 93.89 54.32 93.93 52.01 C 93.85 48.81 98.89 49.44 100.98 49.14 Z" fill="#f5e429" />
<path d="M 226.19 49.02 C 226.90 52.25 227.54 55.49 228.16 58.73 C 228.51 63.46 227.85 68.02 226.72 72.60 C 225.92 70.81 225.02 69.06 224.18 67.28 C 225.60 61.25 225.81 55.17 226.19 49.02 Z" fill="#ddd2c2" />
<path d="M 40.60 49.94 C 40.92 52.82 41.19 55.71 41.45 58.59 C 42.58 58.84 43.69 59.09 44.81 59.35 C 48.17 60.25 51.52 60.99 54.83 62.08 C 60.57 63.91 65.78 66.66 71.47 69.00 C 73.29 69.76 75.16 70.52 77.07 71.01 C 81.77 72.29 86.68 72.38 91.37 73.58 C 95.70 74.67 98.88 78.26 102.03 81.21 C 96.90 80.93 91.92 80.61 86.85 81.67 C 84.29 81.52 82.21 80.83 80.04 79.48 C 73.27 74.33 65.61 71.00 58.28 66.74 C 52.91 63.69 47.13 62.25 41.13 61.04 C 41.41 62.89 41.76 64.73 42.11 66.57 C 41.47 68.20 40.80 69.81 40.10 71.40 C 39.58 69.01 39.11 66.59 38.67 64.18 C 38.04 58.73 38.58 54.98 40.60 49.94 Z" fill="#22223e" />
<path d="M 203.73 51.24 C 205.13 50.40 207.17 53.36 206.34 54.55 C 205.09 55.31 202.93 52.32 203.73 51.24 Z" fill="#8685a1" />
<path d="M 214.57 54.63 C 216.75 57.82 216.20 61.03 215.84 64.66 C 214.50 61.30 214.20 58.21 214.57 54.63 Z" fill="#60626d" />
<path d="M 113.51 55.64 C 116.39 56.68 119.22 57.82 122.18 58.63 C 120.21 58.35 118.10 58.01 116.11 58.28 C 114.01 59.09 112.28 61.05 110.60 62.50 C 108.97 62.47 107.33 62.43 105.70 62.39 C 106.75 60.65 107.73 58.67 109.15 57.20 C 110.39 56.34 112.08 56.07 113.51 55.64 Z" fill="#998e80" />
<path d="M 116.11 58.28 C 118.10 58.01 120.21 58.35 122.18 58.63 C 125.72 59.69 128.68 59.90 129.97 63.88 C 130.41 65.42 131.23 66.23 132.43 66.31 L 132.15 66.96 C 131.10 70.19 132.61 73.06 133.64 76.07 C 130.66 79.17 127.41 81.95 124.05 84.62 C 119.92 84.08 116.72 82.00 113.11 80.15 C 109.00 78.08 105.12 78.37 102.17 74.97 C 99.79 72.45 96.91 70.78 94.05 68.89 C 91.00 66.89 88.94 64.13 86.87 61.20 C 90.04 61.30 93.21 61.45 96.37 61.77 C 99.47 62.20 102.58 62.35 105.70 62.39 C 107.33 62.43 108.97 62.47 110.60 62.50 C 112.28 61.05 114.01 59.09 116.11 58.28 Z" fill="#ca964b" />
<path d="M 228.16 58.73 C 230.98 63.45 234.48 67.19 236.65 72.35 C 238.79 77.54 239.93 83.17 241.46 88.57 C 242.88 93.71 243.47 98.63 243.21 103.96 C 242.81 112.32 243.34 120.68 242.89 129.03 C 242.20 138.48 242.03 147.76 239.72 157.02 C 237.67 165.48 234.88 173.70 233.34 182.29 C 232.02 190.16 229.58 196.79 229.90 204.71 C 227.27 202.54 224.67 201.89 221.32 201.64 C 222.79 198.55 224.07 195.34 224.96 192.03 C 226.11 187.86 225.12 183.28 225.06 178.95 C 224.91 174.85 225.80 170.95 227.04 167.06 C 230.28 161.18 235.12 153.91 234.30 146.96 C 234.11 142.99 234.22 139.07 234.57 135.11 C 235.85 127.71 234.46 120.38 236.18 113.07 C 234.05 110.37 233.11 107.23 232.03 104.01 C 230.87 100.47 229.22 97.54 228.52 93.91 C 227.89 90.58 227.61 87.18 227.25 83.81 C 226.92 80.08 226.62 76.36 226.72 72.60 C 227.85 68.02 228.51 63.46 228.16 58.73 Z" fill="#f4f3f0" />
<path d="M 41.13 61.04 C 47.13 62.25 52.91 63.69 58.28 66.74 C 52.82 66.12 47.55 65.45 42.11 66.57 C 41.76 64.73 41.41 62.89 41.13 61.04 Z" fill="#d8be89" />
<path d="M 27.24 64.02 C 28.89 65.87 28.85 68.23 26.38 69.28 C 26.10 67.42 26.58 65.73 27.24 64.02 Z" fill="#393a46" />
<path d="M 129.97 63.88 C 130.76 63.34 131.64 63.29 132.62 63.75 C 133.02 64.53 132.95 65.38 132.43 66.31 C 131.23 66.23 130.41 65.42 129.97 63.88 Z" fill="#ada0aa" />
<path d="M 76.03 66.04 C 77.45 67.68 78.73 69.43 80.00 71.20 C 79.02 71.14 78.04 71.08 77.07 71.01 C 75.16 70.52 73.29 69.76 71.47 69.00 C 72.97 67.98 74.47 66.97 76.03 66.04 Z" fill="#e5e1c4" />
<path d="M 132.15 66.96 C 133.70 68.22 135.20 69.54 136.60 70.96 C 137.17 72.75 137.71 74.55 138.26 76.35 C 136.72 76.26 135.18 76.16 133.64 76.07 C 132.61 73.06 131.10 70.19 132.15 66.96 Z" fill="#d7c5b1" />
<path d="M 52.68 68.59 C 55.82 71.06 58.58 73.91 61.25 76.86 C 59.81 79.00 58.38 81.14 56.93 83.27 C 54.05 81.88 51.17 80.49 48.23 79.23 C 48.74 81.81 49.35 83.85 51.92 85.10 C 55.69 87.22 59.77 84.82 63.29 83.33 C 68.66 80.70 74.22 80.25 80.04 79.48 C 82.21 80.83 84.29 81.52 86.85 81.67 C 86.39 83.06 85.94 84.45 85.49 85.84 C 82.99 86.65 80.63 87.77 78.47 89.26 C 78.59 88.31 78.72 87.36 78.84 86.40 C 73.60 86.97 68.31 87.34 63.10 88.16 C 59.69 88.67 56.71 90.16 53.44 91.09 C 51.93 91.69 50.70 90.29 49.60 89.47 C 47.04 87.11 44.58 84.02 43.66 80.62 C 43.31 79.41 44.35 78.03 44.97 77.06 C 47.21 73.98 49.88 71.17 52.68 68.59 Z" fill="#a8696c" />
<path d="M 29.12 69.76 C 29.70 72.54 29.86 75.59 30.91 78.25 C 32.64 81.82 35.31 84.16 35.83 88.32 C 37.03 93.76 36.30 98.99 35.55 104.43 C 34.87 108.99 36.10 113.07 37.31 117.40 C 37.96 123.10 36.11 128.20 38.19 133.93 C 42.35 145.04 46.50 156.54 51.78 167.18 C 55.65 175.26 60.64 182.85 63.83 191.19 C 66.28 197.91 69.06 204.43 71.84 211.01 C 71.93 213.34 71.57 215.86 72.10 218.13 C 73.79 221.78 78.03 223.66 81.42 225.37 C 81.27 224.08 81.11 222.79 80.96 221.50 C 82.73 222.65 84.48 223.81 86.23 224.99 C 85.53 225.74 84.82 226.49 84.10 227.23 C 80.59 226.62 77.09 225.95 73.62 225.14 C 74.88 227.05 76.09 228.99 77.25 230.96 C 73.78 229.90 70.32 228.79 66.89 227.60 C 66.43 228.67 65.97 229.74 65.50 230.81 C 64.32 228.35 62.61 225.70 62.32 222.98 C 62.09 220.50 64.50 218.14 65.82 216.22 C 64.97 215.78 64.12 215.35 63.27 214.92 C 61.36 217.94 59.43 220.95 57.76 224.11 C 54.12 222.38 50.26 221.81 46.32 222.72 C 43.80 224.25 42.00 227.09 39.94 229.19 C 38.76 224.60 38.76 222.08 40.42 217.65 C 38.49 217.33 36.56 217.00 34.64 216.64 C 35.91 215.85 37.19 215.08 38.48 214.33 C 36.72 213.96 34.83 213.67 33.16 212.97 C 31.55 210.37 31.09 207.16 29.57 204.46 C 27.60 200.86 25.48 197.38 23.95 193.56 C 23.82 190.99 23.70 188.42 23.63 185.85 C 25.40 191.62 27.63 197.19 30.55 202.48 C 31.75 204.61 33.50 206.03 35.32 207.60 C 36.19 206.38 38.38 204.73 37.91 203.07 C 37.04 199.43 34.80 196.09 33.42 192.61 C 31.61 188.51 30.78 184.20 29.99 179.82 C 32.71 182.60 35.64 184.91 37.61 188.33 C 39.95 192.30 40.87 196.97 43.17 200.91 C 43.97 202.49 46.40 202.73 47.91 203.37 C 48.08 201.33 48.23 199.28 48.33 197.23 C 49.54 200.44 51.00 202.82 53.28 205.38 C 54.81 203.28 56.14 201.47 55.85 198.72 C 55.55 192.80 52.77 185.58 47.20 182.71 C 44.45 181.13 41.70 179.62 39.14 177.72 C 36.01 174.76 33.23 171.24 30.57 167.86 C 31.01 170.60 31.38 172.58 29.88 175.10 C 29.04 173.65 28.19 172.18 27.43 170.68 C 27.20 169.84 26.99 168.99 26.80 168.14 C 26.16 158.00 25.19 147.93 23.51 137.89 C 24.47 135.50 25.95 133.10 25.57 130.42 C 24.12 118.97 23.78 107.52 23.97 95.99 C 25.45 87.61 24.81 79.08 26.51 70.69 C 28.64 78.44 26.01 85.72 27.27 93.58 C 29.72 88.42 30.50 82.56 28.92 77.03 C 28.15 74.27 28.31 72.45 29.12 69.76 Z" fill="#222440" />
<path d="M 54.69 74.65 C 54.82 75.79 54.96 76.93 55.10 78.07 C 52.89 77.91 50.69 77.75 48.49 77.55 C 50.36 75.28 51.89 75.05 54.69 74.65 Z" fill="#fffafa" />
<path d="M 138.26 76.35 C 137.93 81.55 138.56 86.05 140.03 91.02 C 140.91 94.77 141.01 98.04 140.51 101.86 C 139.65 98.89 139.00 95.86 138.13 92.89 L 136.79 92.14 C 133.11 92.81 129.58 94.34 125.97 95.33 C 124.00 94.48 121.70 92.98 119.51 92.99 C 116.17 93.89 113.68 97.74 111.79 100.43 C 110.17 100.12 108.53 99.91 106.89 99.77 C 111.53 97.45 114.95 93.88 118.34 90.05 C 120.11 88.09 122.00 86.27 124.05 84.62 C 127.41 81.95 130.66 79.17 133.64 76.07 C 135.18 76.16 136.72 76.26 138.26 76.35 Z" fill="#999491" />
<path d="M 192.45 74.98 C 196.29 77.86 198.25 81.82 200.25 86.05 C 201.59 88.51 200.45 91.37 200.03 93.93 C 198.81 98.71 198.00 103.43 198.00 108.39 C 199.75 105.13 201.12 101.73 202.54 98.32 C 202.70 101.56 202.75 104.78 202.21 107.98 C 200.69 109.98 199.01 111.85 197.48 113.83 C 197.46 112.66 197.43 111.49 197.39 110.32 C 194.36 112.60 193.07 115.56 192.09 119.11 C 192.86 115.19 193.64 111.28 194.57 107.39 C 196.14 101.14 195.82 94.32 194.87 88.00 C 193.91 83.64 192.62 79.48 192.45 74.98 Z" fill="#c5984e" />
<path d="M 138.26 76.35 C 139.46 77.56 141.35 78.84 141.67 80.60 C 142.38 83.53 142.19 86.84 142.15 89.85 C 141.37 88.51 140.59 87.16 139.81 85.82 C 139.86 87.56 139.91 89.28 140.03 91.02 C 138.56 86.05 137.93 81.55 138.26 76.35 Z" fill="#d5b282" />
<path d="M 94.00 84.28 C 90.54 87.22 86.64 89.42 82.52 91.29 C 80.26 91.34 78.01 91.30 75.75 91.37 C 76.66 90.67 77.56 89.97 78.47 89.26 C 80.63 87.77 82.99 86.65 85.49 85.84 C 88.30 85.18 91.14 84.70 94.00 84.28 Z" fill="#181829" />
<path d="M 227.25 83.81 C 227.61 87.18 227.89 90.58 228.52 93.91 C 229.22 97.54 230.87 100.47 232.03 104.01 C 231.84 110.90 230.43 117.78 228.86 124.47 C 226.43 128.68 223.54 132.69 221.32 137.00 C 221.43 130.72 222.33 124.65 223.38 118.47 C 224.73 106.93 225.99 95.37 227.25 83.81 Z" fill="#5972a4" />
<path d="M 116.28 87.11 C 117.09 87.98 117.70 89.05 118.34 90.05 C 114.95 93.88 111.53 97.45 106.89 99.77 C 98.37 100.12 90.38 102.42 82.05 103.94 C 75.93 105.09 69.91 107.05 63.87 108.71 C 60.61 109.58 57.36 110.45 54.14 111.48 C 54.94 108.54 55.62 105.58 55.96 102.55 L 56.93 102.29 C 60.07 102.40 64.10 103.13 66.70 100.95 C 67.30 99.93 67.38 98.60 67.65 97.47 L 68.95 97.09 C 75.00 96.11 79.00 94.68 84.14 91.27 C 88.65 91.18 92.94 90.61 97.15 88.91 C 101.38 87.17 105.25 88.06 109.66 88.02 C 111.95 88.04 114.05 87.33 116.28 87.11 Z" fill="#cea15d" />
<path d="M 75.75 91.37 C 78.01 91.30 80.26 91.34 82.52 91.29 L 84.14 91.27 C 79.00 94.68 75.00 96.11 68.95 97.09 C 68.17 96.41 67.40 95.73 66.58 95.08 C 69.62 93.79 72.69 92.60 75.75 91.37 Z" fill="#cec3bb" />
<path d="M 60.94 92.42 C 62.85 93.24 64.74 94.12 66.58 95.08 C 67.40 95.73 68.17 96.41 68.95 97.09 L 67.65 97.47 C 63.85 98.61 60.39 100.40 56.93 102.29 L 55.96 102.55 C 53.85 103.09 51.75 103.64 49.65 104.21 C 50.24 106.86 50.65 109.35 51.96 111.77 C 53.47 114.60 55.81 116.76 58.02 119.02 C 59.73 117.82 61.42 116.60 63.21 115.52 C 68.76 112.83 74.88 111.76 80.95 109.75 C 85.21 108.29 89.60 107.53 93.66 105.69 C 95.44 104.96 97.31 103.95 99.23 103.70 C 102.17 103.96 105.09 105.29 107.89 106.20 C 106.31 105.40 104.73 104.60 103.16 103.80 C 105.18 103.12 107.20 102.46 109.22 101.79 C 111.52 105.56 113.19 108.57 112.37 113.16 C 109.61 111.81 106.95 110.14 104.09 109.01 C 96.56 109.24 89.04 110.13 81.60 111.29 C 73.02 112.85 65.08 114.43 58.83 121.05 C 57.52 121.45 55.65 122.71 54.30 122.34 C 51.30 121.06 51.43 117.19 50.46 114.52 C 49.53 110.76 46.81 107.95 45.78 104.32 C 45.16 101.55 45.39 98.53 45.34 95.70 C 46.97 97.77 48.52 99.89 50.06 102.02 C 51.10 102.02 52.14 102.02 53.18 102.03 C 52.91 99.66 52.61 97.31 52.30 94.95 C 54.23 96.41 56.16 98.17 58.37 99.18 C 59.81 99.06 61.24 98.61 62.64 98.25 C 62.06 96.31 61.47 94.38 60.94 92.42 Z" fill="#221f34" />
<path d="M 125.97 95.33 C 126.95 95.83 127.94 96.32 128.92 96.81 C 127.04 101.16 124.90 103.52 121.05 106.24 C 119.66 105.58 118.26 104.92 116.90 104.20 C 115.21 102.91 113.55 101.63 111.79 100.43 C 113.68 97.74 116.17 93.89 119.51 92.99 C 121.70 92.98 124.00 94.48 125.97 95.33 Z" fill="#cd9c58" />
<path d="M 136.79 92.14 L 138.13 92.89 C 138.48 98.40 137.30 103.57 135.94 108.86 C 130.89 110.17 125.75 111.03 120.65 112.11 C 119.42 109.47 118.24 106.79 116.90 104.20 C 118.26 104.92 119.66 105.58 121.05 106.24 C 124.90 103.52 127.04 101.16 128.92 96.81 C 127.94 96.32 126.95 95.83 125.97 95.33 C 129.58 94.34 133.11 92.81 136.79 92.14 Z" fill="#d6b179" />
<path d="M 18.64 96.11 C 20.22 100.79 20.50 105.54 20.99 110.42 C 21.32 113.88 21.60 117.36 22.09 120.80 C 22.59 124.30 24.13 127.26 25.57 130.42 C 25.95 133.10 24.47 135.50 23.51 137.89 C 19.26 146.94 24.75 159.00 26.80 168.14 C 26.99 168.99 27.20 169.84 27.43 170.68 C 26.28 171.28 25.15 171.87 23.97 172.40 C 23.39 172.58 22.81 172.76 22.23 172.95 C 22.95 178.03 24.35 183.02 25.99 187.87 C 28.34 194.89 32.48 200.75 35.32 207.60 C 33.50 206.03 31.75 204.61 30.55 202.48 C 27.63 197.19 25.40 191.62 23.63 185.85 C 23.70 188.42 23.82 190.99 23.95 193.56 C 23.85 195.43 23.64 197.28 23.43 199.15 C 21.26 195.82 19.22 192.69 18.41 188.72 C 16.98 181.68 17.00 174.16 16.89 167.00 C 16.85 158.32 15.95 149.69 15.97 141.00 C 16.06 130.36 14.60 119.89 14.72 109.23 C 14.76 104.45 16.66 100.36 18.64 96.11 Z" fill="#f4f5f2" />
<path d="M 23.97 95.99 C 23.78 107.52 24.12 118.97 25.57 130.42 C 24.13 127.26 22.59 124.30 22.09 120.80 C 21.60 117.36 21.32 113.88 20.99 110.42 C 21.25 105.39 22.72 100.82 23.97 95.99 Z" fill="#4f699f" />
<path d="M 67.65 97.47 C 67.38 98.60 67.30 99.93 66.70 100.95 C 64.10 103.13 60.07 102.40 56.93 102.29 C 60.39 100.40 63.85 98.61 67.65 97.47 Z" fill="#c8b89a" />
<path d="M 106.89 99.77 C 108.53 99.91 110.17 100.12 111.79 100.43 C 113.55 101.63 115.21 102.91 116.90 104.20 C 118.24 106.79 119.42 109.47 120.65 112.11 C 118.23 113.89 115.96 114.72 113.03 115.27 C 114.57 116.35 116.10 117.45 117.61 118.56 C 116.59 120.94 115.31 123.50 114.92 126.08 C 114.72 128.68 115.40 131.42 116.03 133.94 C 116.40 135.31 116.77 136.69 117.14 138.07 C 115.77 138.75 114.44 139.50 113.10 140.25 C 112.75 144.22 112.79 148.21 112.43 152.17 C 112.47 154.66 108.34 155.82 108.53 158.26 C 108.59 163.82 111.37 169.66 113.01 174.97 C 113.98 178.21 115.26 181.32 116.51 184.47 C 117.50 187.15 118.26 190.58 120.22 192.71 C 121.18 193.86 122.95 194.07 124.32 194.50 C 124.97 198.05 127.32 201.20 125.04 204.53 C 124.57 203.24 123.06 200.23 121.32 201.18 C 120.58 202.83 123.98 203.92 125.04 204.53 C 130.77 207.75 134.25 212.32 141.17 213.28 C 142.45 213.48 143.73 213.65 145.01 213.76 L 146.58 213.78 C 147.82 215.57 149.07 217.34 150.35 219.10 C 152.83 216.22 153.35 214.97 153.28 211.15 C 154.25 210.72 155.21 210.28 156.19 209.86 C 158.25 209.07 160.14 209.34 162.24 209.78 C 160.45 214.56 156.82 217.07 153.63 220.75 C 152.41 222.02 152.36 223.51 152.13 225.14 C 149.95 224.43 147.05 222.91 144.78 223.76 C 141.73 224.77 139.41 227.79 137.30 230.10 C 131.66 229.08 126.27 227.45 121.10 224.93 C 117.83 222.50 114.48 220.18 111.19 217.77 C 107.82 215.31 106.03 212.02 103.79 208.63 C 105.07 201.51 101.98 195.82 98.56 189.86 C 97.57 189.88 96.59 189.90 95.60 189.93 C 94.98 188.90 94.31 187.90 93.64 186.91 L 93.28 186.28 C 92.52 184.01 91.90 181.71 91.17 179.43 C 89.95 174.36 88.26 170.76 84.95 166.68 C 83.34 167.03 81.72 167.36 80.10 167.68 C 81.33 166.69 82.57 165.71 83.83 164.75 C 85.77 163.89 88.10 163.12 89.67 161.69 C 91.58 159.92 92.99 157.39 94.46 155.26 L 95.33 154.20 C 97.40 151.91 98.79 149.60 99.62 146.59 C 102.48 136.64 104.32 126.44 105.15 116.12 C 105.29 114.22 104.89 112.42 104.44 110.58 L 104.09 109.01 C 106.95 110.14 109.61 111.81 112.37 113.16 C 113.19 108.57 111.52 105.56 109.22 101.79 C 107.20 102.46 105.18 103.12 103.16 103.80 C 104.73 104.60 106.31 105.40 107.89 106.20 C 105.09 105.29 102.17 103.96 99.23 103.70 C 97.31 103.95 95.44 104.96 93.66 105.69 C 89.60 107.53 85.21 108.29 80.95 109.75 C 74.88 111.76 68.76 112.83 63.21 115.52 C 61.73 114.06 60.26 112.60 58.79 111.13 C 60.48 110.29 62.14 109.46 63.87 108.71 C 69.91 107.05 75.93 105.09 82.05 103.94 C 90.38 102.42 98.37 100.12 106.89 99.77 Z" fill="#e2c8b4" />
<path d="M 55.96 102.55 C 55.62 105.58 54.94 108.54 54.14 111.48 C 57.36 110.45 60.61 109.58 63.87 108.71 C 62.14 109.46 60.48 110.29 58.79 111.13 C 60.26 112.60 61.73 114.06 63.21 115.52 C 61.42 116.60 59.73 117.82 58.02 119.02 C 55.81 116.76 53.47 114.60 51.96 111.77 C 50.65 109.35 50.24 106.86 49.65 104.21 C 51.75 103.64 53.85 103.09 55.96 102.55 Z" fill="#cbb080" />
<path d="M 140.48 102.95 C 141.38 109.54 141.20 116.21 139.84 122.73 C 138.47 129.06 137.21 135.77 134.73 141.71 C 132.40 146.95 130.45 152.19 128.74 157.66 C 128.36 157.08 127.98 156.50 127.60 155.92 C 129.00 151.93 130.55 148.00 131.95 144.01 C 132.60 142.24 133.24 140.48 133.88 138.71 C 134.65 136.58 135.42 134.45 136.06 132.28 C 137.57 127.64 138.61 122.96 138.71 118.07 L 138.75 117.25 C 139.41 112.49 139.93 107.72 140.48 102.95 Z" fill="#6b635e" />
<path d="M 232.03 104.01 C 233.11 107.23 234.05 110.37 236.18 113.07 C 234.46 120.38 235.85 127.71 234.57 135.11 C 233.31 131.19 231.38 127.71 228.86 124.47 C 230.43 117.78 231.84 110.90 232.03 104.01 Z" fill="#eddfc2" />
<path d="M 202.21 107.98 C 200.94 117.17 199.69 126.36 198.51 135.56 C 197.59 142.37 196.12 148.73 195.87 155.61 C 195.71 158.15 195.94 160.42 194.84 162.78 C 193.67 165.41 192.39 167.91 191.83 170.77 C 191.18 173.40 190.52 176.02 189.76 178.62 C 187.13 180.45 183.85 182.44 182.74 185.62 C 181.77 188.92 182.22 192.75 182.06 196.18 C 181.78 196.98 181.50 197.79 181.22 198.59 C 179.00 196.34 176.16 193.73 175.05 190.69 C 174.29 188.08 174.46 185.16 174.21 182.47 C 174.85 178.69 176.27 175.22 177.63 171.67 C 179.21 167.61 180.12 163.43 181.16 159.23 C 182.25 154.77 183.86 150.48 184.94 146.02 C 184.37 146.73 183.82 147.46 183.29 148.20 C 183.65 147.05 184.01 145.91 184.38 144.77 C 185.60 142.92 186.90 141.13 187.95 139.17 C 189.14 138.59 190.32 138.00 191.50 137.41 C 192.84 132.46 195.12 127.92 196.80 123.10 C 196.22 122.04 195.60 120.99 194.97 119.96 C 195.69 117.87 196.57 115.85 197.48 113.83 C 199.01 111.85 200.69 109.98 202.21 107.98 Z" fill="#e3cec0" />
<path d="M 104.09 109.01 L 104.44 110.58 C 104.09 111.77 103.71 112.96 103.38 114.16 C 103.44 113.35 103.51 112.54 103.57 111.74 C 96.10 114.06 88.61 112.23 81.11 114.14 C 73.39 115.60 66.10 118.13 58.83 121.05 C 65.08 114.43 73.02 112.85 81.60 111.29 C 89.04 110.13 96.56 109.24 104.09 109.01 Z" fill="#cfb572" />
<path d="M 135.94 108.86 C 136.27 111.88 137.44 114.55 138.75 117.25 L 138.71 118.07 C 137.43 118.00 136.14 117.95 134.86 117.91 C 129.08 117.72 123.36 117.81 117.61 118.56 C 116.10 117.45 114.57 116.35 113.03 115.27 C 115.96 114.72 118.23 113.89 120.65 112.11 C 125.75 111.03 130.89 110.17 135.94 108.86 Z" fill="#aea08d" />
<path d="M 30.99 111.19 C 33.01 115.99 33.78 120.87 33.82 126.05 C 31.80 123.92 29.54 121.68 28.08 119.12 C 26.91 117.17 27.19 114.59 27.24 112.40 C 28.48 111.96 29.73 111.55 30.99 111.19 Z" fill="#c5994e" />
<path d="M 104.44 110.58 C 104.89 112.42 105.29 114.22 105.15 116.12 C 104.32 126.44 102.48 136.64 99.62 146.59 C 98.79 149.60 97.40 151.91 95.33 154.20 C 97.99 147.86 98.85 141.59 100.66 134.72 C 102.39 127.90 102.65 121.11 103.38 114.16 C 103.71 112.96 104.09 111.77 104.44 110.58 Z" fill="#3d373d" />
<path d="M 197.39 110.32 C 197.43 111.49 197.46 112.66 197.48 113.83 C 196.57 115.85 195.69 117.87 194.97 119.96 C 192.93 126.48 190.24 132.74 187.95 139.17 C 186.90 141.13 185.60 142.92 184.38 144.77 C 186.68 136.09 190.14 127.87 192.09 119.11 C 193.07 115.56 194.36 112.60 197.39 110.32 Z" fill="#63513d" />
<path d="M 39.21 114.88 C 39.69 116.12 40.16 117.36 40.64 118.60 C 41.67 125.61 44.96 131.53 48.65 137.44 C 49.33 139.18 49.96 140.94 50.56 142.71 C 50.67 147.21 51.59 149.42 54.22 153.04 C 54.62 154.01 55.01 154.99 55.40 155.97 C 57.73 164.65 62.06 172.89 66.15 180.86 C 70.37 187.98 73.17 195.53 78.94 201.06 C 83.00 204.98 87.15 208.96 91.74 212.25 C 96.76 215.79 102.60 215.33 107.85 218.56 C 106.49 219.49 105.14 220.42 103.79 221.37 C 102.61 220.36 101.40 219.37 100.16 218.44 C 99.28 219.49 98.45 220.58 97.61 221.67 C 95.62 219.44 95.22 216.83 92.23 215.56 C 87.98 213.15 84.09 215.25 79.64 214.35 C 76.85 213.30 74.39 211.20 71.88 209.61 L 71.84 211.01 C 69.06 204.43 66.28 197.91 63.83 191.19 C 60.64 182.85 55.65 175.26 51.78 167.18 C 46.50 156.54 42.35 145.04 38.19 133.93 C 36.11 128.20 37.96 123.10 37.31 117.40 C 37.94 116.56 38.58 115.72 39.21 114.88 Z" fill="#dfcec0" />
<path d="M 134.86 117.91 C 134.97 122.25 134.71 126.45 133.94 130.72 L 133.10 130.73 C 127.17 130.76 121.44 131.22 116.03 133.94 C 115.40 131.42 114.72 128.68 114.92 126.08 C 115.31 123.50 116.59 120.94 117.61 118.56 C 123.36 117.81 129.08 117.72 134.86 117.91 Z" fill="#d6b17a" />
<path d="M 138.71 118.07 C 138.61 122.96 137.57 127.64 136.06 132.28 C 135.36 131.74 134.65 131.23 133.94 130.72 C 134.71 126.45 134.97 122.25 134.86 117.91 C 136.14 117.95 137.43 118.00 138.71 118.07 Z" fill="#faf6f0" />
<path d="M 40.64 118.60 C 44.17 124.53 46.49 130.92 48.65 137.44 C 44.96 131.53 41.67 125.61 40.64 118.60 Z" fill="#7c7575" />
<path d="M 165.36 118.52 C 165.92 120.13 166.48 121.73 166.97 123.36 C 162.98 128.75 160.30 135.22 157.68 141.36 C 157.53 139.29 157.29 137.23 157.00 135.18 C 157.83 133.43 158.52 131.65 159.10 129.81 L 159.42 129.55 C 162.02 126.36 163.56 122.21 165.36 118.52 Z" fill="#d7bc93" />
<path d="M 194.97 119.96 C 195.60 120.99 196.22 122.04 196.80 123.10 C 195.12 127.92 192.84 132.46 191.50 137.41 C 190.32 138.00 189.14 138.59 187.95 139.17 C 190.24 132.74 192.93 126.48 194.97 119.96 Z" fill="#dcc7a8" />
<path d="M 166.97 123.36 C 168.33 127.59 168.13 130.85 166.71 135.01 C 165.88 137.42 164.89 139.79 163.70 142.05 C 160.74 145.60 157.73 148.93 155.85 153.23 L 155.01 154.92 L 155.16 154.01 C 155.54 151.21 155.86 148.41 156.40 145.63 C 156.83 144.20 157.26 142.78 157.68 141.36 C 160.30 135.22 162.98 128.75 166.97 123.36 Z" fill="#26243d" />
<path d="M 228.86 124.47 C 231.38 127.71 233.31 131.19 234.57 135.11 C 234.22 139.07 234.11 142.99 234.30 146.96 C 232.25 145.33 230.26 143.64 228.25 141.96 C 228.05 141.20 227.84 140.45 227.62 139.69 C 226.05 143.42 225.08 146.95 221.81 149.68 C 221.42 148.04 221.05 146.39 220.75 144.72 C 220.81 143.64 220.86 142.55 220.91 141.47 C 221.00 140.24 221.09 139.01 221.20 137.79 L 221.32 137.00 C 223.54 132.69 226.43 128.68 228.86 124.47 Z" fill="#e2cca7" />
<path d="M 133.10 130.73 C 132.24 133.16 131.78 135.67 131.37 138.20 C 126.67 137.75 121.87 137.91 117.14 138.07 C 116.77 136.69 116.40 135.31 116.03 133.94 C 121.44 131.22 127.17 130.76 133.10 130.73 Z" fill="#978f8a" />
<path d="M 159.10 129.81 C 158.52 131.65 157.83 133.43 157.00 135.18 C 151.70 139.63 145.67 142.68 140.87 147.79 C 138.19 150.35 135.93 153.29 134.01 156.46 C 132.36 158.94 130.60 161.36 128.83 163.76 C 132.11 155.12 137.30 147.35 144.53 141.53 C 147.50 139.16 150.29 136.61 153.06 134.00 C 155.05 132.58 157.08 131.20 159.10 129.81 Z" fill="#4c3c2a" />
<path d="M 133.10 130.73 L 133.94 130.72 C 134.65 131.23 135.36 131.74 136.06 132.28 C 135.42 134.45 134.65 136.58 133.88 138.71 L 133.09 138.55 L 131.37 138.20 C 131.78 135.67 132.24 133.16 133.10 130.73 Z" fill="#b0bede" />
<path d="M 153.06 134.00 C 150.29 136.61 147.50 139.16 144.53 141.53 C 137.30 147.35 132.11 155.12 128.83 163.76 C 130.60 161.36 132.36 158.94 134.01 156.46 L 133.88 157.21 C 133.43 160.03 132.95 162.83 132.35 165.62 C 130.69 168.88 128.12 171.36 126.10 174.34 C 125.60 177.62 127.10 181.37 127.99 184.51 C 127.43 186.00 126.86 187.48 126.28 188.97 C 125.98 185.93 125.68 182.90 125.33 179.86 C 124.34 184.69 123.92 189.57 124.32 194.50 C 122.95 194.07 121.18 193.86 120.22 192.71 C 118.26 190.58 117.50 187.15 116.51 184.47 C 117.37 182.28 118.71 179.77 118.42 177.36 C 118.08 174.25 116.91 171.16 115.98 168.19 C 116.99 169.98 118.01 171.78 119.04 173.57 C 121.14 172.25 123.19 171.28 124.11 168.77 C 125.64 164.60 126.08 160.11 127.60 155.92 C 127.98 156.50 128.36 157.08 128.74 157.66 C 130.45 152.19 132.40 146.95 134.73 141.71 C 140.74 138.16 146.30 135.78 153.06 134.00 Z" fill="#c9994f" />
<path d="M 157.00 135.18 C 157.29 137.23 157.53 139.29 157.68 141.36 C 157.26 142.78 156.83 144.20 156.40 145.63 C 154.30 147.64 152.07 149.51 149.94 151.50 C 146.94 150.22 143.92 148.95 140.87 147.79 C 145.67 142.68 151.70 139.63 157.00 135.18 Z" fill="#c79649" />
<path d="M 176.72 135.87 C 176.47 137.55 176.19 139.23 175.81 140.90 C 172.24 148.19 169.71 155.00 167.96 162.95 C 167.54 163.76 167.13 164.56 166.73 165.37 C 166.52 162.83 166.04 160.07 166.55 157.55 C 167.21 154.41 168.71 151.34 170.08 148.45 C 172.21 144.22 174.26 139.92 176.72 135.87 Z" fill="#47362f" />
<path d="M 185.37 136.64 C 182.90 142.57 178.64 146.88 175.25 152.23 C 172.93 155.88 170.42 159.40 167.96 162.95 C 169.71 155.00 172.24 148.19 175.81 140.90 C 178.75 138.41 181.27 136.29 185.37 136.64 Z" fill="#c6a45f" />
<path d="M 23.51 137.89 C 25.19 147.93 26.16 158.00 26.80 168.14 C 24.75 159.00 19.26 146.94 23.51 137.89 Z" fill="#5a6da6" />
<path d="M 28.16 137.94 C 30.36 139.68 31.47 142.05 32.50 144.59 C 30.88 144.44 29.26 144.28 27.64 144.13 C 27.67 142.06 27.81 139.99 28.16 137.94 Z" fill="#72644f" />
<path d="M 117.14 138.07 C 121.87 137.91 126.67 137.75 131.37 138.20 L 133.09 138.55 C 131.08 138.93 128.85 139.28 127.03 140.27 C 125.72 141.61 124.91 143.53 124.04 145.17 C 126.94 144.59 128.83 143.62 131.13 141.80 C 131.40 142.54 131.68 143.28 131.95 144.01 C 130.55 148.00 129.00 151.93 127.60 155.92 C 126.08 160.11 125.64 164.60 124.11 168.77 C 123.19 171.28 121.14 172.25 119.04 173.57 C 118.01 171.78 116.99 169.98 115.98 168.19 C 116.91 171.16 118.08 174.25 118.42 177.36 C 118.71 179.77 117.37 182.28 116.51 184.47 C 115.26 181.32 113.98 178.21 113.01 174.97 C 111.37 169.66 108.59 163.82 108.53 158.26 C 108.34 155.82 112.47 154.66 112.43 152.17 C 112.79 148.21 112.75 144.22 113.10 140.25 C 114.44 139.50 115.77 138.75 117.14 138.07 Z" fill="#d1a664" />
<path d="M 221.20 137.79 C 221.09 139.01 221.00 140.24 220.91 141.47 C 218.73 143.70 218.92 146.30 218.21 149.17 C 217.36 153.84 214.60 158.04 213.04 162.58 C 211.74 162.52 210.44 162.46 209.13 162.40 C 209.56 159.87 209.76 157.52 211.34 155.37 C 213.01 153.03 214.58 150.73 215.49 147.96 C 216.75 144.18 218.91 141.00 221.20 137.79 Z" fill="#ca9f5c" />
<path d="M 133.09 138.55 L 133.88 138.71 C 133.24 140.48 132.60 142.24 131.95 144.01 C 131.68 143.28 131.40 142.54 131.13 141.80 C 128.83 143.62 126.94 144.59 124.04 145.17 C 124.91 143.53 125.72 141.61 127.03 140.27 C 128.85 139.28 131.08 138.93 133.09 138.55 Z" fill="#e4ca9c" />
<path d="M 227.62 139.69 C 227.84 140.45 228.05 141.20 228.25 141.96 C 228.84 144.48 229.52 147.15 229.49 149.75 C 229.33 151.67 228.07 153.56 227.26 155.28 C 224.85 153.70 222.46 152.10 220.06 150.52 C 220.32 148.59 220.57 146.66 220.75 144.72 C 221.05 146.39 221.42 148.04 221.81 149.68 C 225.08 146.95 226.05 143.42 227.62 139.69 Z" fill="#9b99a1" />
<path d="M 163.70 142.05 C 164.62 144.16 165.47 146.30 166.33 148.44 C 167.58 148.44 168.83 148.45 170.08 148.45 C 168.71 151.34 167.21 154.41 166.55 157.55 C 166.04 160.07 166.52 162.83 166.73 165.37 C 165.96 169.73 165.14 174.35 163.55 178.48 C 161.82 183.08 158.53 186.89 155.90 191.19 C 162.57 188.78 166.29 183.66 171.90 179.70 C 170.17 183.41 168.91 186.92 165.87 189.84 C 162.16 193.36 157.51 196.03 153.03 198.45 C 150.16 197.67 147.64 196.70 145.54 194.51 C 147.46 192.77 149.40 191.88 149.53 189.05 C 150.48 188.60 151.43 188.17 152.38 187.74 C 155.80 186.23 159.56 183.94 160.36 179.99 C 161.98 170.93 163.23 162.55 158.08 154.30 C 157.34 153.93 156.60 153.57 155.85 153.23 C 157.73 148.93 160.74 145.60 163.70 142.05 Z" fill="#c59951" />
<path d="M 228.25 141.96 C 230.26 143.64 232.25 145.33 234.30 146.96 C 235.12 153.91 230.28 161.18 227.04 167.06 C 226.17 168.41 225.25 169.72 224.33 171.04 C 221.72 172.63 219.09 174.10 216.70 176.03 C 215.91 166.93 219.13 159.52 220.06 150.52 C 222.46 152.10 224.85 153.70 227.26 155.28 C 228.07 153.56 229.33 151.67 229.49 149.75 C 229.52 147.15 228.84 144.48 228.25 141.96 Z" fill="#5c6e9d" />
<path d="M 50.56 142.71 C 52.17 146.12 53.32 149.38 54.22 153.04 C 51.59 149.42 50.67 147.21 50.56 142.71 Z" fill="#777271" />
<path d="M 27.64 144.13 C 29.26 144.28 30.88 144.44 32.50 144.59 C 32.83 145.57 33.13 146.56 33.37 147.57 C 35.05 151.34 29.73 153.68 27.48 155.73 C 27.57 151.86 27.64 148.00 27.64 144.13 Z" fill="#cc9f53" />
<path d="M 156.40 145.63 C 155.86 148.41 155.54 151.21 155.16 154.01 C 153.43 153.14 151.71 152.28 149.94 151.50 C 152.07 149.51 154.30 147.64 156.40 145.63 Z" fill="#beb198" />
<path d="M 184.94 146.02 C 183.86 150.48 182.25 154.77 181.16 159.23 C 180.12 163.43 179.21 167.61 177.63 171.67 C 176.27 175.22 174.85 178.69 174.21 182.47 C 172.58 185.55 170.70 188.45 168.12 190.82 C 163.29 194.86 159.88 200.14 155.07 204.20 C 154.91 202.75 154.67 201.31 154.44 199.87 C 151.66 201.85 149.20 204.11 146.87 206.60 C 148.47 206.37 150.20 205.86 151.83 206.01 C 152.85 206.62 153.73 207.49 154.61 208.27 C 155.14 208.80 155.66 209.33 156.19 209.86 C 155.21 210.28 154.25 210.72 153.28 211.15 C 151.07 212.11 148.87 213.03 146.58 213.78 L 145.01 213.76 C 144.61 213.07 144.21 212.38 143.81 211.68 C 146.15 210.94 148.51 210.22 150.88 209.57 C 147.71 209.50 144.91 208.92 141.90 207.93 L 141.18 207.76 C 139.97 208.24 138.79 208.80 137.61 209.34 C 138.81 210.65 140.00 211.96 141.17 213.28 C 134.25 212.32 130.77 207.75 125.04 204.53 C 127.32 201.20 124.97 198.05 124.32 194.50 C 123.92 189.57 124.34 184.69 125.33 179.86 C 125.68 182.90 125.98 185.93 126.28 188.97 C 126.86 187.48 127.43 186.00 127.99 184.51 C 130.06 179.19 131.49 174.03 134.48 169.11 C 136.11 167.31 137.84 165.62 139.77 164.16 C 141.41 163.49 143.07 162.90 144.73 162.31 C 145.73 165.13 146.97 167.72 148.71 170.17 C 149.16 170.85 149.62 171.54 150.08 172.22 C 146.22 173.79 143.03 175.72 140.83 179.39 C 139.08 182.08 136.87 184.96 136.02 188.09 C 136.00 192.00 138.69 196.00 142.03 197.91 C 145.60 199.88 149.24 199.25 153.03 198.45 C 157.51 196.03 162.16 193.36 165.87 189.84 C 168.91 186.92 170.17 183.41 171.90 179.70 C 177.39 169.86 179.92 158.85 183.29 148.20 C 183.82 147.46 184.37 146.73 184.94 146.02 Z" fill="#22233e" />
<path d="M 140.87 147.79 C 143.92 148.95 146.94 150.22 149.94 151.50 C 151.71 152.28 153.43 153.14 155.16 154.01 L 155.01 154.92 C 153.98 157.43 151.81 158.14 150.14 160.08 C 148.04 163.17 148.03 166.63 148.71 170.17 C 146.97 167.72 145.73 165.13 144.73 162.31 C 143.07 162.90 141.41 163.49 139.77 164.16 C 138.23 162.37 136.91 160.42 135.52 158.52 L 135.27 158.26 C 134.81 157.90 134.35 157.56 133.88 157.21 L 134.01 156.46 C 135.93 153.29 138.19 150.35 140.87 147.79 Z" fill="#aebedd" />
<path d="M 158.08 154.30 C 163.23 162.55 161.98 170.93 160.36 179.99 C 159.56 183.94 155.80 186.23 152.38 187.74 C 152.34 186.49 152.28 185.23 152.21 183.97 C 150.69 184.94 149.19 185.93 147.67 186.91 C 147.46 184.76 147.25 182.62 147.05 180.48 C 148.42 180.39 149.79 180.31 151.17 180.22 C 149.02 178.46 147.22 177.27 144.36 177.02 C 144.38 180.07 144.31 183.61 145.49 186.47 C 146.02 188.20 148.10 188.32 149.53 189.05 C 149.40 191.88 147.46 192.77 145.54 194.51 C 142.17 190.67 142.75 184.11 140.83 179.39 C 143.03 175.72 146.22 173.79 150.08 172.22 C 149.62 171.54 149.16 170.85 148.71 170.17 C 148.03 166.63 148.04 163.17 150.14 160.08 C 151.81 158.14 153.98 157.43 155.01 154.92 L 155.85 153.23 C 156.60 153.57 157.34 153.93 158.08 154.30 Z" fill="#f4f4f0" />
<path d="M 94.46 155.26 C 92.99 157.39 91.58 159.92 89.67 161.69 C 88.10 163.12 85.77 163.89 83.83 164.75 C 87.22 161.38 90.49 157.97 94.46 155.26 Z" fill="#53494e" />
<path d="M 55.40 155.97 C 58.46 162.63 61.22 169.24 65.95 174.95 C 67.62 178.54 69.39 181.95 72.20 184.80 C 75.87 188.56 78.51 192.50 82.99 195.34 C 82.92 192.55 82.87 189.77 82.92 186.98 C 84.44 187.83 85.93 188.72 87.42 189.63 C 87.60 187.80 87.79 185.98 87.99 184.16 C 89.87 185.07 91.76 185.97 93.64 186.91 C 94.31 187.90 94.98 188.90 95.60 189.93 C 97.20 193.73 97.98 197.77 99.49 201.59 C 100.56 204.24 102.20 206.30 103.79 208.63 C 106.03 212.02 107.82 215.31 111.19 217.77 C 114.48 220.18 117.83 222.50 121.10 224.93 C 116.52 223.11 112.05 221.18 107.85 218.56 C 102.60 215.33 96.76 215.79 91.74 212.25 C 87.15 208.96 83.00 204.98 78.94 201.06 C 73.17 195.53 70.37 187.98 66.15 180.86 C 62.06 172.89 57.73 164.65 55.40 155.97 Z" fill="#22243f" />
<path d="M 135.27 158.26 L 135.52 158.52 C 136.91 160.42 138.23 162.37 139.77 164.16 C 137.84 165.62 136.11 167.31 134.48 169.11 C 133.74 167.96 133.01 166.81 132.35 165.62 C 132.95 162.83 133.43 160.03 133.88 157.21 C 134.35 157.56 134.81 157.90 135.27 158.26 Z" fill="#fffde7" />
<path d="M 153.65 164.95 C 155.55 166.98 157.36 168.91 156.91 171.93 C 156.24 175.92 155.47 179.83 155.19 183.89 C 154.31 180.75 153.35 177.60 152.75 174.39 C 152.33 171.31 153.08 167.99 153.65 164.95 Z" fill="#201e3d" />
<path d="M 132.35 165.62 C 133.01 166.81 133.74 167.96 134.48 169.11 C 131.49 174.03 130.06 179.19 127.99 184.51 C 127.10 181.37 125.60 177.62 126.10 174.34 C 128.12 171.36 130.69 168.88 132.35 165.62 Z" fill="#dab57f" />
<path d="M 227.04 167.06 C 225.80 170.95 224.91 174.85 225.06 178.95 C 225.12 183.28 226.11 187.86 224.96 192.03 C 224.07 195.34 222.79 198.55 221.32 201.64 C 217.66 206.26 213.09 209.97 214.45 216.52 C 212.47 218.10 210.49 220.11 208.18 221.17 C 206.39 221.77 204.19 221.31 202.33 221.21 C 204.35 218.15 207.11 216.03 209.87 213.71 C 213.01 210.99 214.21 207.56 216.07 203.99 C 218.23 200.80 220.31 197.57 222.25 194.24 C 220.87 193.80 219.49 193.34 218.09 192.95 L 217.78 192.88 C 217.52 193.76 217.29 194.65 217.05 195.54 C 216.13 195.47 215.20 195.40 214.28 195.33 C 213.72 194.30 213.14 193.28 212.56 192.26 L 213.06 191.37 C 219.50 186.39 223.21 179.05 224.33 171.04 C 225.25 169.72 226.17 168.41 227.04 167.06 Z" fill="#e1cdc0" />
<path d="M 30.57 167.86 C 33.23 171.24 36.01 174.76 39.14 177.72 C 36.87 178.05 34.50 178.50 32.20 178.43 C 31.27 177.48 30.56 176.24 29.88 175.10 C 31.38 172.58 31.01 170.60 30.57 167.86 Z" fill="#896846" />
<path d="M 144.55 168.21 C 142.40 170.19 140.18 171.54 137.49 172.66 C 139.68 170.46 141.60 169.25 144.55 168.21 Z" fill="#6a6b7f" />
<path d="M 77.74 169.73 C 79.46 169.90 81.92 169.36 83.23 170.68 C 86.13 173.32 88.53 176.53 91.17 179.43 C 91.90 181.71 92.52 184.01 93.28 186.28 C 91.69 183.45 89.90 180.78 87.93 178.20 C 87.24 178.43 86.54 178.66 85.84 178.89 C 85.10 180.88 84.37 182.88 83.63 184.87 C 83.16 183.08 82.69 181.28 82.19 179.49 C 81.25 178.99 79.75 178.65 79.17 177.71 C 77.92 175.43 77.93 172.27 77.74 169.73 Z" fill="#252443" />
<path d="M 27.43 170.68 C 28.19 172.18 29.04 173.65 29.88 175.10 C 30.56 176.24 31.27 177.48 32.20 178.43 C 34.50 178.50 36.87 178.05 39.14 177.72 C 41.70 179.62 44.45 181.13 47.20 182.71 C 52.77 185.58 55.55 192.80 55.85 198.72 C 56.14 201.47 54.81 203.28 53.28 205.38 C 51.00 202.82 49.54 200.44 48.33 197.23 C 48.23 199.28 48.08 201.33 47.91 203.37 C 46.40 202.73 43.97 202.49 43.17 200.91 C 40.87 196.97 39.95 192.30 37.61 188.33 C 35.64 184.91 32.71 182.60 29.99 179.82 C 28.09 177.26 26.14 174.75 23.97 172.40 C 25.15 171.87 26.28 171.28 27.43 170.68 Z" fill="#c9974b" />
<path d="M 191.83 170.77 C 192.17 174.35 192.78 177.70 191.91 181.27 C 191.19 180.39 190.47 179.50 189.76 178.62 C 190.52 176.02 191.18 173.40 191.83 170.77 Z" fill="#5d514d" />
<path d="M 224.33 171.04 C 223.21 179.05 219.50 186.39 213.06 191.37 C 209.44 192.49 207.18 195.00 204.69 197.68 C 203.46 197.15 202.22 196.62 200.99 196.09 C 204.97 188.24 211.66 183.19 216.70 176.03 C 219.09 174.10 221.72 172.63 224.33 171.04 Z" fill="#cb9c51" />
<path d="M 22.23 172.95 C 22.81 172.76 23.39 172.58 23.97 172.40 C 26.14 174.75 28.09 177.26 29.99 179.82 C 30.78 184.20 31.61 188.51 33.42 192.61 C 34.80 196.09 37.04 199.43 37.91 203.07 C 38.38 204.73 36.19 206.38 35.32 207.60 C 32.48 200.75 28.34 194.89 25.99 187.87 C 24.35 183.02 22.95 178.03 22.23 172.95 Z" fill="#6177aa" />
<path d="M 65.95 174.95 C 68.32 176.96 70.65 179.02 73.04 181.01 C 76.11 183.56 79.47 185.06 82.92 186.98 C 82.87 189.77 82.92 192.55 82.99 195.34 C 78.51 192.50 75.87 188.56 72.20 184.80 C 69.39 181.95 67.62 178.54 65.95 174.95 Z" fill="#dccec4" />
<path d="M 92.77 176.14 C 103.53 178.43 112.34 186.28 115.24 196.96 C 111.99 194.01 109.27 190.63 106.55 187.20 C 106.14 188.43 105.73 189.67 105.31 190.90 C 103.75 188.08 102.39 185.06 100.51 182.43 C 98.44 179.91 95.27 178.24 92.77 176.14 Z" fill="#241e43" />
<path d="M 144.36 177.02 C 147.22 177.27 149.02 178.46 151.17 180.22 C 149.79 180.31 148.42 180.39 147.05 180.48 C 147.25 182.62 147.46 184.76 147.67 186.91 C 149.19 185.93 150.69 184.94 152.21 183.97 C 152.28 185.23 152.34 186.49 152.38 187.74 C 151.43 188.17 150.48 188.60 149.53 189.05 C 148.10 188.32 146.02 188.20 145.49 186.47 C 144.31 183.61 144.38 180.07 144.36 177.02 Z" fill="#03021f" />
<path d="M 189.76 178.62 C 190.47 179.50 191.19 180.39 191.91 181.27 C 191.43 182.92 190.87 184.54 190.39 186.20 L 190.05 184.34 C 188.61 185.33 186.76 186.45 185.87 188.01 C 184.98 189.73 184.71 191.86 184.53 193.77 C 183.70 194.56 182.86 195.35 182.06 196.18 C 182.22 192.75 181.77 188.92 182.74 185.62 C 183.85 182.44 187.13 180.45 189.76 178.62 Z" fill="#c29d4b" />
<path d="M 140.83 179.39 C 142.75 184.11 142.17 190.67 145.54 194.51 C 147.64 196.70 150.16 197.67 153.03 198.45 C 149.24 199.25 145.60 199.88 142.03 197.91 C 138.69 196.00 136.00 192.00 136.02 188.09 C 136.87 184.96 139.08 182.08 140.83 179.39 Z" fill="#9d9a98" />
<path d="M 130.31 182.66 C 131.29 185.42 132.09 188.24 132.83 191.08 C 131.92 190.88 131.01 190.67 130.10 190.47 C 129.56 187.69 129.33 185.37 130.31 182.66 Z" fill="#928e9e" />
<path d="M 174.21 182.47 C 174.46 185.16 174.29 188.08 175.05 190.69 C 176.16 193.73 179.00 196.34 181.22 198.59 C 180.30 201.17 179.42 203.59 177.68 205.74 C 176.12 207.79 173.98 209.78 172.95 212.15 C 172.92 215.44 173.66 218.75 174.01 222.02 C 171.18 221.42 168.37 220.78 165.53 220.24 C 164.10 222.42 162.66 224.50 160.53 226.05 C 158.09 227.88 157.16 231.08 155.02 232.95 C 152.87 234.37 150.21 235.12 147.84 236.10 C 150.17 236.14 152.48 236.18 154.82 236.06 C 151.80 236.64 149.06 237.87 146.20 238.92 C 144.09 239.80 141.28 238.33 139.19 237.78 C 140.08 237.13 140.96 236.47 141.85 235.82 C 139.84 235.69 137.82 235.54 135.80 235.46 C 140.22 234.77 144.91 233.96 148.96 232.01 C 151.37 230.76 151.80 227.55 152.13 225.14 C 152.36 223.51 152.41 222.02 153.63 220.75 C 156.82 217.07 160.45 214.56 162.24 209.78 C 163.11 206.23 163.62 202.77 165.54 199.59 C 167.26 196.76 167.88 194.10 168.12 190.82 C 170.70 188.45 172.58 185.55 174.21 182.47 Z" fill="#f3f2f1" />
<path d="M 190.05 184.34 L 190.39 186.20 C 189.38 193.74 189.34 202.43 186.03 209.39 C 185.29 204.21 185.07 198.97 184.53 193.77 C 184.71 191.86 184.98 189.73 185.87 188.01 C 186.76 186.45 188.61 185.33 190.05 184.34 Z" fill="#dacfc6" />
<path d="M 98.56 189.86 C 101.98 195.82 105.07 201.51 103.79 208.63 C 102.20 206.30 100.56 204.24 99.49 201.59 C 97.98 197.77 97.20 193.73 95.60 189.93 C 96.59 189.90 97.57 189.88 98.56 189.86 Z" fill="#d6b98d" />
<path d="M 168.12 190.82 C 167.88 194.10 167.26 196.76 165.54 199.59 C 163.62 202.77 163.11 206.23 162.24 209.78 C 160.14 209.34 158.25 209.07 156.19 209.86 C 155.66 209.33 155.14 208.80 154.61 208.27 C 154.81 206.92 155.00 205.57 155.07 204.20 C 159.88 200.14 163.29 194.86 168.12 190.82 Z" fill="#b5a693" />
<path d="M 132.15 192.35 C 133.66 191.30 134.71 193.68 132.90 194.07 C 131.92 193.81 131.67 193.24 132.15 192.35 Z" fill="#848694" />
<path d="M 217.78 192.88 L 218.09 192.95 C 219.49 193.34 220.87 193.80 222.25 194.24 C 220.31 197.57 218.23 200.80 216.07 203.99 C 211.91 208.65 207.90 213.11 202.76 216.72 C 198.42 219.75 194.21 222.93 189.97 226.10 C 188.26 225.10 186.55 224.11 184.84 223.11 C 193.55 218.03 201.93 212.64 209.14 205.51 C 212.68 202.49 216.22 200.55 217.05 195.54 C 217.29 194.65 217.52 193.76 217.78 192.88 Z" fill="#cb9c55" />
<path d="M 212.56 192.26 C 213.14 193.28 213.72 194.30 214.28 195.33 C 215.20 195.40 216.13 195.47 217.05 195.54 C 216.22 200.55 212.68 202.49 209.14 205.51 C 209.03 200.45 210.12 196.63 212.56 192.26 Z" fill="#5b71a0" />
<path d="M 154.44 199.87 C 154.67 201.31 154.91 202.75 155.07 204.20 C 155.00 205.57 154.81 206.92 154.61 208.27 C 153.73 207.49 152.85 206.62 151.83 206.01 C 150.20 205.86 148.47 206.37 146.87 206.60 C 149.20 204.11 151.66 201.85 154.44 199.87 Z" fill="#696a79" />
<path d="M 121.32 201.18 C 123.06 200.23 124.57 203.24 125.04 204.53 C 123.98 203.92 120.58 202.83 121.32 201.18 Z" fill="#38251f" />
<path d="M 221.32 201.64 C 224.67 201.89 227.27 202.54 229.90 204.71 C 229.75 210.96 230.14 217.43 229.12 223.60 C 228.60 227.59 225.42 230.56 221.75 231.79 C 216.69 232.72 211.18 230.95 206.09 231.85 C 204.24 232.43 202.58 233.74 200.93 234.74 C 200.31 233.84 199.68 232.94 199.05 232.03 C 204.12 228.15 209.95 226.79 216.08 225.59 C 216.48 221.87 216.18 219.83 214.45 216.52 C 213.09 209.97 217.66 206.26 221.32 201.64 Z" fill="#ca9851" />
<path d="M 46.19 204.78 C 46.52 206.68 46.77 208.59 47.03 210.50 C 45.57 209.81 44.12 209.09 42.68 208.36 C 43.84 207.16 45.00 205.95 46.19 204.78 Z" fill="#bab9c7" />
<path d="M 141.18 207.76 L 141.90 207.93 C 144.91 208.92 147.71 209.50 150.88 209.57 C 148.51 210.22 146.15 210.94 143.81 211.68 C 144.21 212.38 144.61 213.07 145.01 213.76 C 143.73 213.65 142.45 213.48 141.17 213.28 C 140.00 211.96 138.81 210.65 137.61 209.34 C 138.79 208.80 139.97 208.24 141.18 207.76 Z" fill="#ac9c9b" />
<path d="M 27.00 208.60 C 29.93 211.18 32.09 213.98 33.88 217.45 C 30.36 214.93 28.59 212.64 27.00 208.60 Z" fill="#585862" />
<path d="M 71.88 209.61 C 74.39 211.20 76.85 213.30 79.64 214.35 C 84.09 215.25 87.98 213.15 92.23 215.56 C 95.22 216.83 95.62 219.44 97.61 221.67 C 99.13 222.65 100.68 223.57 102.23 224.51 C 99.64 226.20 97.00 227.60 94.15 228.82 C 96.23 229.42 98.30 230.07 100.35 230.73 C 97.88 231.13 95.41 231.52 92.94 231.93 C 99.86 232.77 106.20 231.19 112.90 229.79 C 109.95 226.90 106.92 224.08 103.79 221.37 C 105.14 220.42 106.49 219.49 107.85 218.56 C 112.05 221.18 116.52 223.11 121.10 224.93 C 126.27 227.45 131.66 229.08 137.30 230.10 C 135.39 232.20 133.35 234.18 131.23 236.08 C 129.72 236.73 128.36 237.60 126.64 237.38 C 122.36 236.93 118.58 235.58 114.15 235.90 C 109.38 236.27 105.09 237.40 100.21 236.84 C 93.62 236.10 87.68 232.70 82.08 229.36 C 82.76 228.65 83.43 227.94 84.10 227.23 C 84.82 226.49 85.53 225.74 86.23 224.99 C 84.48 223.81 82.73 222.65 80.96 221.50 C 81.11 222.79 81.27 224.08 81.42 225.37 C 78.03 223.66 73.79 221.78 72.10 218.13 C 71.57 215.86 71.93 213.34 71.84 211.01 L 71.88 209.61 Z" fill="#f4f3f0" />
<path d="M 35.34 211.15 C 36.85 210.14 37.90 212.52 36.08 212.88 C 35.09 212.60 34.85 212.03 35.34 211.15 Z" fill="#a8a9bf" />
<path d="M 153.28 211.15 C 153.35 214.97 152.83 216.22 150.35 219.10 C 149.07 217.34 147.82 215.57 146.58 213.78 C 148.87 213.03 151.07 212.11 153.28 211.15 Z" fill="#b2a8b0" />
<path d="M 214.45 216.52 C 216.18 219.83 216.48 221.87 216.08 225.59 C 209.95 226.79 204.12 228.15 199.05 232.03 C 199.68 232.94 200.31 233.84 200.93 234.74 C 198.48 236.67 196.70 235.11 194.11 234.42 C 195.04 233.02 195.97 231.62 196.89 230.21 C 195.96 230.31 195.03 230.41 194.10 230.52 C 197.29 227.68 199.89 224.72 202.33 221.21 C 204.19 221.31 206.39 221.77 208.18 221.17 C 210.49 220.11 212.47 218.10 214.45 216.52 Z" fill="#f3f1f1" />
<path d="M 100.16 218.44 C 101.40 219.37 102.61 220.36 103.79 221.37 C 106.92 224.08 109.95 226.90 112.90 229.79 C 106.20 231.19 99.86 232.77 92.94 231.93 C 95.41 231.52 97.88 231.13 100.35 230.73 C 98.30 230.07 96.23 229.42 94.15 228.82 C 97.00 227.60 99.64 226.20 102.23 224.51 C 100.68 223.57 99.13 222.65 97.61 221.67 C 98.45 220.58 99.28 219.49 100.16 218.44 Z" fill="#c69b50" />
<path d="M 152.13 225.14 C 151.80 227.55 151.37 230.76 148.96 232.01 C 144.91 233.96 140.22 234.77 135.80 235.46 C 134.27 235.62 132.75 235.80 131.23 236.08 C 133.35 234.18 135.39 232.20 137.30 230.10 C 139.41 227.79 141.73 224.77 144.78 223.76 C 147.05 222.91 149.95 224.43 152.13 225.14 Z" fill="#23233f" />
<path d="M 32.59 223.82 C 33.67 224.90 34.71 226.00 35.76 227.11 C 32.09 229.58 28.45 231.38 24.11 232.34 C 26.76 229.09 28.79 225.82 32.59 223.82 Z" fill="#1c1939" />
<path d="M 56.51 224.97 C 55.46 226.60 54.49 228.65 52.96 229.88 C 50.35 231.28 47.19 231.77 44.34 232.51 C 45.39 229.87 45.99 225.99 48.87 224.78 C 51.51 223.23 53.78 224.42 56.51 224.97 Z" fill="#1c1937" />
<path d="M 34.48 230.25 C 35.47 228.79 37.54 230.34 35.91 231.45 C 34.85 231.62 34.38 231.22 34.48 230.25 Z" fill="#110e22" />
</svg>