<?xml version="1.0" encoding="UTF-8" standalone="no"?>
<!DOCTYPE svg PUBLIC "-//W3C//DTD SVG 1.1//EN" "http://www.w3.org/Graphics/SVG/1.1/DTD/svg11.dtd">
<svg xmlns="http://www.w3.org/2000/svg" version="1.1" viewBox="0 0 256 256" width="256.0pt" height="256.0pt">
<path d="M 0.00 0.00 L 256.00 0.00 L 256.00 256.00 L 0.00 256.00 L 0.00 0.00 Z" fill="#fffefe" />
<path d="M 125.68 23.37 C 125.89 24.22 126.12 25.07 126.37 25.92 C 127.05 29.82 130.35 29.05 131.90 32.14 C 134.60 36.90 138.39 39.72 138.03 45.74 C 136.60 44.50 136.14 42.95 134.00 43.19 C 132.10 43.07 131.77 44.51 130.67 45.70 L 129.15 45.70 C 126.07 45.54 124.49 44.95 122.07 43.08 C 122.25 42.19 122.43 41.30 122.60 40.41 L 120.87 40.07 C 121.53 39.09 122.21 38.12 122.91 37.17 C 126.24 35.95 125.96 32.00 124.19 29.58 C 123.30 27.91 122.83 26.48 122.67 24.57 C 122.17 24.45 121.68 24.33 121.19 24.21 C 120.74 23.50 120.33 22.77 119.94 22.01 C 122.44 20.66 123.43 22.51 125.68 23.37 Z" fill="#975b37" />
<path d="M 131.18 22.27 C 135.29 22.49 138.05 24.50 141.38 26.60 C 143.60 28.09 147.02 27.28 148.66 29.35 C 150.97 31.25 147.82 35.13 150.02 37.50 C 147.85 44.58 143.75 50.07 140.42 56.46 C 140.43 54.63 140.56 52.87 140.92 51.08 C 141.72 46.71 140.59 41.97 138.90 37.93 C 137.70 35.11 137.09 32.34 134.94 30.09 C 133.10 27.93 130.84 26.35 128.50 24.78 C 129.38 23.93 130.27 23.10 131.18 22.27 Z" fill="#f3f2f1" />
<path d="M 125.68 23.37 C 126.63 23.83 127.57 24.30 128.50 24.78 C 130.84 26.35 133.10 27.93 134.94 30.09 C 137.09 32.34 137.70 35.11 138.90 37.93 C 140.59 41.97 141.72 46.71 140.92 51.08 C 140.56 52.87 140.43 54.63 140.42 56.46 C 143.75 50.07 147.85 44.58 150.02 37.50 C 151.14 34.41 151.67 31.29 152.09 28.05 C 152.72 30.16 152.97 32.31 153.13 34.51 C 153.30 35.06 153.69 35.53 154.30 35.90 C 154.06 39.67 154.75 44.02 153.67 47.62 C 150.37 49.76 149.46 53.95 146.85 56.94 C 145.41 60.63 142.25 61.56 138.88 62.94 C 138.31 68.16 135.07 71.15 131.35 74.38 C 127.30 77.70 124.39 81.41 119.46 83.18 C 116.59 84.18 114.40 86.19 112.55 88.53 C 112.28 89.08 112.22 89.73 112.36 90.49 C 111.43 90.90 110.51 91.25 109.49 91.36 C 110.83 88.46 112.70 85.86 114.10 82.99 C 116.65 76.28 122.18 70.68 127.55 66.09 C 130.54 63.98 133.89 62.14 136.56 59.63 C 138.52 56.56 138.63 52.15 139.41 48.61 C 138.77 41.97 136.81 35.68 132.66 30.34 C 130.81 28.41 129.05 26.60 126.37 25.92 C 126.12 25.07 125.89 24.22 125.68 23.37 Z" fill="#232641" />
<path d="M 121.19 24.21 C 121.68 24.33 122.17 24.45 122.67 24.57 C 122.83 26.48 123.30 27.91 124.19 29.58 C 123.97 32.14 123.59 34.68 122.91 37.17 C 122.21 38.12 121.53 39.09 120.87 40.07 C 120.34 40.86 119.82 41.67 119.31 42.48 C 119.41 43.43 119.50 44.37 119.58 45.32 C 119.08 44.74 118.56 44.16 118.05 43.58 C 116.72 44.65 115.37 45.70 113.98 46.69 C 111.87 46.01 111.36 45.97 109.68 47.46 L 107.76 47.65 C 108.61 46.81 109.45 45.95 110.31 45.11 C 111.09 45.38 111.87 45.65 112.66 45.92 C 115.37 42.76 118.42 40.16 120.35 36.38 C 122.40 33.46 123.20 30.42 122.00 26.94 C 121.74 26.03 121.47 25.12 121.19 24.21 Z" fill="#262324" />
<path d="M 122.00 26.94 C 123.20 30.42 122.40 33.46 120.35 36.38 C 118.42 40.16 115.37 42.76 112.66 45.92 C 111.87 45.65 111.09 45.38 110.31 45.11 C 110.74 41.96 110.40 41.16 107.43 40.21 C 106.81 41.77 106.27 43.27 106.30 44.97 C 105.99 47.04 102.99 47.96 101.53 49.19 C 97.88 46.35 96.47 41.78 92.09 41.03 C 90.58 40.64 88.94 40.64 87.39 40.58 C 86.30 43.55 88.83 45.68 87.51 48.48 C 87.21 49.26 86.88 50.02 86.52 50.77 C 86.03 51.38 85.53 51.99 85.02 52.59 L 84.45 51.37 C 79.35 51.47 74.52 51.06 70.69 47.31 C 67.12 43.56 64.11 39.10 61.80 34.48 C 62.94 32.81 64.09 31.23 65.65 29.94 C 65.93 30.83 66.21 31.72 66.49 32.62 C 70.26 34.51 74.39 36.15 78.39 37.50 C 81.19 38.45 84.22 36.49 86.99 36.97 C 89.41 37.13 91.03 38.27 92.95 36.19 C 98.33 37.00 104.50 34.52 109.30 32.26 C 112.86 30.68 114.79 25.98 118.61 25.47 C 119.74 25.10 121.04 26.51 122.00 26.94 Z" fill="#f3f3f1" />
<path d="M 126.37 25.92 C 129.05 26.60 130.81 28.41 132.66 30.34 C 136.81 35.68 138.77 41.97 139.41 48.61 C 138.63 52.15 138.52 56.56 136.56 59.63 C 133.89 62.14 130.54 63.98 127.55 66.09 C 124.49 65.65 123.50 68.05 121.46 69.79 C 120.05 66.19 119.57 63.15 119.57 59.28 L 119.12 58.69 C 118.20 58.60 117.39 58.69 116.50 58.92 C 115.93 58.04 115.33 57.19 114.70 56.36 C 113.10 55.75 111.24 56.00 109.60 55.52 C 108.70 54.29 108.40 52.91 108.01 51.47 C 109.39 51.51 110.69 51.33 111.90 50.94 C 112.32 49.95 112.70 48.94 113.04 47.92 C 111.92 47.76 110.80 47.61 109.68 47.46 C 111.36 45.97 111.87 46.01 113.98 46.69 C 115.37 45.70 116.72 44.65 118.05 43.58 C 118.56 44.16 119.08 44.74 119.58 45.32 C 119.50 44.37 119.41 43.43 119.31 42.48 C 119.82 41.67 120.34 40.86 120.87 40.07 L 122.60 40.41 C 122.43 41.30 122.25 42.19 122.07 43.08 C 124.49 44.95 126.07 45.54 129.15 45.70 C 127.25 46.14 125.15 46.50 123.43 47.45 C 122.63 49.18 123.61 49.32 124.62 50.48 C 125.59 53.18 125.43 55.85 125.55 58.65 C 126.24 59.67 127.93 60.02 128.96 60.63 C 129.77 60.31 130.58 60.00 131.39 59.68 C 131.97 59.91 132.55 60.14 133.12 60.36 C 136.04 59.14 136.81 57.11 137.62 54.26 C 138.29 51.41 138.65 48.65 138.03 45.74 C 138.39 39.72 134.60 36.90 131.90 32.14 C 130.35 29.05 127.05 29.82 126.37 25.92 Z" fill="#c9ad90" />
<path d="M 57.65 29.41 L 58.91 28.96 C 60.40 30.31 61.03 32.67 61.80 34.48 C 64.11 39.10 67.12 43.56 70.69 47.31 C 74.52 51.06 79.35 51.47 84.45 51.37 L 85.02 52.59 C 85.28 53.23 85.53 53.87 85.79 54.51 C 83.62 54.37 81.47 54.22 79.30 54.21 C 71.72 52.23 67.57 46.72 63.28 40.65 C 61.98 38.64 61.19 36.28 60.13 34.13 L 58.63 34.58 C 58.55 37.20 57.14 39.39 57.23 42.00 C 57.28 45.12 55.84 47.47 54.40 50.10 C 54.26 57.20 58.76 60.85 63.34 65.42 C 67.07 67.98 71.32 68.97 74.94 65.61 C 76.18 65.68 77.41 65.69 78.64 65.64 C 80.32 64.28 81.18 62.61 83.27 61.87 C 82.71 63.75 81.33 64.69 80.20 66.19 C 79.82 67.67 79.95 69.24 79.71 70.75 C 79.20 72.25 77.00 72.11 75.74 72.41 C 75.02 72.62 74.31 72.84 73.60 73.09 L 72.57 73.81 C 72.73 78.26 70.40 80.79 67.39 83.67 C 65.69 81.86 63.25 82.49 60.98 82.25 C 58.85 82.40 56.69 81.43 55.63 83.93 C 55.70 85.07 55.80 86.21 55.92 87.35 C 56.17 91.53 56.27 95.77 56.01 99.95 L 55.04 101.77 C 53.68 98.99 51.79 96.98 51.18 93.86 C 50.19 90.10 51.52 86.87 51.56 83.01 C 51.36 81.28 50.79 79.54 50.33 77.86 C 52.08 78.32 53.61 78.12 54.91 77.27 C 56.22 78.21 57.23 79.41 58.94 79.53 C 62.06 79.73 65.10 80.19 68.19 80.71 C 69.47 77.78 72.52 75.46 69.69 72.37 C 66.45 72.11 63.75 71.96 61.08 69.88 C 56.38 66.02 53.43 59.92 52.33 54.01 C 51.87 51.31 50.88 48.60 52.04 45.96 C 52.81 43.40 54.48 41.60 56.16 39.60 C 58.53 36.71 57.27 32.92 57.65 29.41 Z" fill="#1e203a" />
<path d="M 124.19 29.58 C 125.96 32.00 126.24 35.95 122.91 37.17 C 123.59 34.68 123.97 32.14 124.19 29.58 Z" fill="#9c7056" />
<path d="M 174.00 30.63 C 177.42 31.34 179.81 29.49 182.64 31.35 C 183.85 32.05 184.88 33.23 185.88 34.20 C 184.06 35.45 181.91 34.28 179.99 33.93 C 177.52 33.16 175.26 33.26 174.00 30.63 Z" fill="#656873" />
<path d="M 155.36 31.46 C 156.08 31.84 156.90 32.58 157.75 32.53 C 161.15 32.40 164.38 31.10 167.80 30.93 C 168.17 32.80 168.63 34.62 169.24 36.43 C 166.05 38.63 165.54 41.27 165.65 44.95 C 168.37 41.69 171.41 39.01 175.97 40.12 C 174.10 41.92 172.36 43.75 170.10 45.09 C 167.91 46.25 166.94 48.63 167.12 51.03 C 167.54 54.76 168.22 58.25 170.79 61.15 C 170.41 58.89 169.53 56.65 170.35 54.39 C 171.55 52.71 173.27 51.12 175.15 50.26 C 176.93 49.88 178.65 50.36 180.41 50.63 C 180.11 51.34 179.81 52.05 179.51 52.77 C 181.28 56.87 183.45 60.17 187.26 62.64 C 189.99 63.64 192.27 62.34 195.00 62.65 C 195.27 63.86 195.14 64.85 194.61 65.62 C 191.36 68.11 187.89 70.89 185.44 74.18 C 183.84 77.55 181.06 79.48 178.32 81.85 C 178.80 84.68 178.66 88.04 180.00 90.62 C 180.49 90.64 180.98 90.66 181.47 90.67 C 182.79 88.17 185.16 85.07 188.22 84.88 C 187.67 86.27 187.08 87.64 186.53 89.02 C 188.85 86.99 190.51 84.33 192.89 82.30 C 196.34 80.38 199.89 77.55 203.86 77.07 C 206.53 76.41 209.24 75.76 211.83 74.83 C 214.42 72.79 216.04 69.61 218.41 67.27 C 219.68 65.98 220.91 64.67 221.98 63.20 C 224.89 59.50 228.77 56.47 232.05 53.06 C 232.49 53.50 232.92 53.93 233.36 54.36 C 233.91 54.36 234.46 54.36 235.02 54.36 C 234.65 56.17 234.25 57.96 233.83 59.76 C 233.03 60.01 232.23 60.27 231.43 60.53 C 228.79 65.00 227.09 69.90 226.22 75.01 C 226.08 76.99 227.98 79.04 228.88 80.74 C 227.34 81.52 225.82 82.33 224.32 83.18 C 224.53 83.75 224.74 84.32 224.95 84.89 C 223.32 85.32 221.69 85.77 220.05 86.20 C 213.03 88.36 205.56 90.03 198.97 93.32 L 198.20 94.52 C 201.81 95.12 205.70 93.69 208.92 92.15 C 205.75 93.98 202.59 95.03 199.00 95.70 C 193.99 98.09 188.90 100.38 183.70 102.34 L 182.76 101.07 C 187.62 99.57 192.38 98.60 196.65 95.65 C 197.51 95.25 198.01 94.68 198.14 93.93 C 191.63 94.63 186.05 99.49 180.09 100.79 C 179.37 100.28 178.64 99.78 177.89 99.29 C 177.49 100.22 177.14 101.17 176.84 102.14 C 174.79 103.10 172.76 104.10 170.73 105.09 C 167.84 106.27 164.76 106.76 161.83 107.83 C 160.10 108.58 157.77 107.78 156.25 108.85 C 153.93 111.03 151.04 110.34 148.01 110.75 C 145.43 111.01 144.00 110.74 141.69 109.63 C 141.38 110.28 141.09 110.94 140.81 111.61 C 139.81 111.88 138.82 112.17 137.83 112.48 C 135.06 113.40 132.21 114.03 129.39 114.78 C 129.30 113.48 129.20 112.19 129.10 110.89 C 127.68 112.03 126.82 113.16 125.99 114.77 L 124.43 114.76 C 125.77 111.74 127.11 108.88 129.60 106.61 C 131.20 104.86 133.53 103.68 133.89 101.19 L 133.93 99.77 C 132.35 97.79 131.45 97.51 128.85 97.58 L 128.81 96.96 C 131.80 97.80 134.80 97.03 137.75 98.05 L 136.00 100.08 L 137.22 101.74 C 141.54 101.75 145.66 100.19 150.02 100.16 C 152.20 100.08 154.36 100.49 156.54 100.46 C 162.29 98.18 167.38 94.80 171.34 90.00 C 170.91 88.93 170.12 88.40 168.95 88.40 C 166.08 89.27 163.40 91.41 161.04 93.23 L 160.75 92.13 C 161.66 90.97 162.71 89.88 163.49 88.63 C 164.16 84.89 164.11 81.57 162.86 77.97 C 161.88 75.45 164.76 73.21 164.85 70.49 C 163.48 69.86 162.20 69.08 160.87 68.38 C 158.63 68.59 156.60 71.29 154.82 72.54 L 153.95 72.07 C 154.42 70.15 154.49 68.38 154.36 66.42 C 156.22 64.91 155.22 61.45 155.65 59.28 L 155.30 59.37 C 153.38 59.86 151.47 60.22 149.48 60.21 C 150.16 58.37 150.62 56.68 150.72 54.71 C 152.75 52.68 152.85 50.22 153.67 47.62 C 154.75 44.02 154.06 39.67 154.30 35.90 C 153.69 35.53 153.30 35.06 153.13 34.51 C 154.66 33.83 154.78 32.88 155.36 31.46 Z" fill="#f2f2f1" />
<path d="M 227.89 30.84 C 227.40 32.17 226.87 33.49 226.33 34.81 L 228.23 35.44 C 226.36 36.49 224.51 37.35 223.17 39.11 C 220.48 42.46 216.84 44.17 214.83 48.11 C 212.83 48.95 211.65 49.24 209.49 48.61 C 206.07 47.59 203.75 49.99 200.91 51.43 C 195.84 51.64 193.08 56.03 188.01 56.85 L 189.69 58.39 C 188.51 58.76 187.31 59.01 186.10 59.12 L 185.21 58.09 C 186.78 55.87 187.70 53.67 188.46 51.08 C 188.56 47.28 185.57 45.58 188.29 41.91 C 188.17 41.36 188.04 40.82 187.91 40.27 C 185.52 39.16 182.88 38.98 180.50 37.89 C 182.31 35.86 184.66 35.70 187.13 35.01 C 188.90 37.45 190.13 39.91 190.83 42.86 L 191.07 42.17 C 191.97 39.96 191.87 37.31 192.12 34.92 C 194.47 36.60 196.31 39.11 199.10 39.72 C 202.50 40.65 205.67 41.53 209.08 40.00 C 213.49 37.99 217.93 35.76 221.76 32.76 C 222.45 32.07 223.69 32.34 224.62 32.23 C 225.70 31.72 226.78 31.25 227.89 30.84 Z" fill="#f3f3f1" />
<path d="M 236.50 32.12 C 235.60 36.93 235.71 41.44 233.32 45.88 C 233.42 43.53 233.09 41.26 232.67 38.95 C 233.61 36.85 233.68 36.02 233.18 33.76 L 231.05 33.83 C 232.84 33.08 234.59 30.47 236.50 32.12 Z" fill="#b1beb5" />
<path d="M 185.49 31.80 L 187.52 32.55 C 190.02 35.37 191.66 38.25 191.07 42.17 L 190.83 42.86 C 190.13 39.91 188.90 37.45 187.13 35.01 C 186.32 34.02 185.78 32.95 185.49 31.80 Z" fill="#7f818a" />
<path d="M 53.77 34.06 C 54.61 35.89 55.37 37.75 56.16 39.60 C 54.48 41.60 52.81 43.40 52.04 45.96 C 50.88 48.60 51.87 51.31 52.33 54.01 C 53.43 59.92 56.38 66.02 61.08 69.88 C 63.75 71.96 66.45 72.11 69.69 72.37 C 72.52 75.46 69.47 77.78 68.19 80.71 C 65.10 80.19 62.06 79.73 58.94 79.53 C 57.23 79.41 56.22 78.21 54.91 77.27 C 53.61 78.12 52.08 78.32 50.33 77.86 C 50.79 79.54 51.36 81.28 51.56 83.01 C 51.52 86.87 50.19 90.10 51.18 93.86 C 51.79 96.98 53.68 98.99 55.04 101.77 L 55.34 102.47 C 55.90 103.53 56.64 104.45 57.48 105.31 C 59.95 108.01 62.71 110.40 65.94 112.16 C 63.81 107.64 63.71 102.70 66.12 98.27 C 69.86 97.14 73.12 94.66 77.06 95.60 C 78.77 95.94 81.13 96.56 81.92 98.27 C 78.98 98.37 77.04 100.18 75.17 102.22 C 74.05 104.24 73.20 106.41 72.25 108.51 C 72.88 109.20 73.51 109.90 74.14 110.59 C 74.48 109.80 74.84 109.03 75.22 108.26 C 76.26 107.03 78.68 107.69 80.15 107.56 C 81.19 111.17 79.84 115.03 80.54 118.83 C 82.98 114.46 85.85 109.76 89.75 106.55 C 93.74 103.64 97.93 104.60 102.54 104.48 C 104.32 104.69 106.13 104.77 107.91 105.04 C 109.69 105.56 111.27 107.08 112.73 108.17 C 111.24 109.51 109.77 110.87 108.45 112.39 C 104.61 109.80 100.25 112.11 96.16 113.02 C 95.20 113.65 94.23 114.01 93.27 114.13 L 93.30 111.37 C 89.71 112.33 86.64 115.80 85.13 119.11 C 84.40 120.81 82.99 122.71 83.92 124.57 C 79.98 125.19 75.10 124.76 71.35 126.21 C 68.77 128.17 66.48 130.47 62.90 129.68 C 59.87 128.78 57.04 128.71 54.97 126.00 C 55.20 124.38 55.38 122.76 55.54 121.14 C 54.96 123.56 53.82 126.69 55.48 128.91 C 57.00 130.94 59.56 132.45 62.03 132.97 L 64.17 133.26 C 62.50 136.18 61.33 139.25 60.29 142.44 C 58.47 143.02 56.05 145.54 54.80 142.95 C 54.42 140.62 54.44 138.30 53.69 136.04 C 54.16 139.56 52.65 142.49 53.58 146.02 C 53.72 148.92 54.61 150.05 57.09 151.52 C 57.83 149.47 57.73 147.57 57.48 145.44 C 59.43 145.80 59.34 145.63 60.60 144.32 C 60.40 145.50 60.21 146.68 60.03 147.86 C 61.86 147.44 63.95 147.67 65.35 146.33 C 67.83 144.12 69.97 141.54 72.42 139.28 C 75.22 139.09 77.66 140.20 80.41 140.49 C 81.65 145.25 83.11 150.83 86.28 154.69 C 92.45 161.69 101.71 165.31 111.00 164.47 C 115.89 164.80 120.25 163.59 125.00 162.92 C 123.18 166.65 122.50 170.36 122.45 174.49 C 119.60 176.91 122.26 181.10 119.88 184.20 C 116.86 181.31 115.22 177.76 111.29 175.76 C 106.41 172.39 101.07 170.56 95.62 168.41 C 93.91 167.85 92.20 165.41 94.56 164.39 C 93.71 163.97 92.87 163.54 92.02 163.11 C 91.52 163.69 91.02 164.27 90.52 164.85 C 89.15 163.97 87.75 163.15 86.41 162.24 C 84.92 160.72 82.89 159.99 81.48 158.42 C 78.83 155.12 74.01 153.80 69.99 153.23 C 62.42 153.71 54.66 158.16 48.14 160.36 C 47.11 160.53 44.91 161.79 44.77 160.00 C 45.10 158.87 46.92 158.76 47.90 158.26 C 44.22 158.17 43.38 158.56 40.93 161.20 C 39.27 161.20 37.62 161.14 35.96 161.04 C 35.83 158.55 34.98 157.12 37.31 155.41 C 37.44 154.42 36.50 152.84 38.03 152.83 C 40.32 154.26 40.02 156.31 43.38 155.47 C 44.25 155.74 45.12 156.01 45.99 156.28 C 46.86 156.05 47.73 155.82 48.60 155.60 C 48.44 153.97 48.42 152.41 48.57 150.78 C 49.98 149.41 50.88 147.79 51.77 146.05 C 50.31 143.41 48.80 141.17 48.80 138.02 C 49.58 135.67 52.15 134.80 50.94 132.04 C 50.34 132.62 49.73 133.20 49.13 133.77 C 49.49 132.85 49.84 131.92 50.20 131.00 C 47.07 128.05 44.66 125.19 40.01 124.87 C 37.33 125.24 34.67 125.82 31.99 126.27 C 29.41 127.40 27.34 129.80 25.73 132.05 C 25.02 134.62 25.66 137.39 24.94 139.88 C 23.88 141.26 22.66 142.52 21.53 143.84 C 20.34 143.90 19.14 143.97 17.94 144.03 C 17.83 142.36 17.74 140.69 17.69 139.02 C 18.28 138.47 18.86 137.92 19.44 137.37 C 19.19 132.62 21.20 128.60 23.67 124.70 C 24.19 123.95 24.93 123.64 25.88 123.76 C 29.51 124.86 32.99 124.12 36.26 122.34 C 40.14 120.85 42.69 123.02 45.73 125.02 C 45.63 122.98 45.66 120.98 45.84 118.95 C 42.70 117.01 39.28 116.63 35.76 117.73 C 33.29 118.72 32.20 120.69 30.69 122.70 C 29.15 122.41 27.61 122.13 26.07 121.87 C 28.34 119.68 29.38 117.10 30.29 114.14 C 34.15 113.55 38.33 113.31 42.00 111.95 C 43.77 110.45 45.14 108.46 46.84 106.85 C 48.10 105.67 47.27 104.35 47.13 102.90 C 46.46 99.87 47.04 97.02 46.67 94.00 C 46.44 92.02 45.76 90.28 46.27 88.28 C 47.08 84.44 46.47 80.81 48.15 77.21 C 48.31 74.46 48.41 71.75 48.80 69.01 C 49.23 65.59 47.32 62.31 47.95 59.01 C 48.17 56.42 49.32 54.82 46.89 52.90 C 46.64 49.30 46.98 45.68 48.34 42.32 C 49.57 40.29 51.71 38.56 52.28 36.28 C 52.63 35.25 52.58 34.45 53.77 34.06 Z" fill="#f3f3f1" />
<path d="M 231.05 33.83 L 233.18 33.76 C 233.68 36.02 233.61 36.85 232.67 38.95 C 231.55 39.81 230.09 40.48 229.68 41.94 C 228.98 44.41 230.53 45.99 231.52 48.08 C 230.38 49.99 228.37 52.29 228.55 54.61 C 229.72 54.11 230.89 53.59 232.05 53.06 C 228.77 56.47 224.89 59.50 221.98 63.20 C 219.35 63.90 216.85 63.36 214.09 63.49 C 212.14 63.54 210.68 61.88 209.38 60.63 C 211.52 58.69 213.26 56.76 214.31 54.02 C 216.48 53.59 218.64 53.10 220.79 52.59 C 219.31 51.88 217.82 51.20 216.26 50.65 C 215.79 49.80 215.31 48.95 214.83 48.11 C 216.84 44.17 220.48 42.46 223.17 39.11 C 224.51 37.35 226.36 36.49 228.23 35.44 C 229.18 34.92 230.12 34.38 231.05 33.83 Z" fill="#486b59" />
<path d="M 58.63 34.58 L 60.13 34.13 C 61.19 36.28 61.98 38.64 63.28 40.65 C 67.57 46.72 71.72 52.23 79.30 54.21 C 73.78 55.27 71.11 51.88 67.00 49.11 C 66.38 50.21 65.75 51.31 65.13 52.41 C 63.27 50.51 61.48 48.72 59.03 47.60 C 57.24 47.13 56.69 48.84 55.76 49.95 C 56.30 50.55 56.84 51.15 57.38 51.76 C 57.26 52.48 57.15 53.20 57.03 53.92 C 58.11 55.53 58.83 57.32 59.78 59.00 C 61.67 61.04 63.95 62.20 63.34 65.42 C 58.76 60.85 54.26 57.20 54.40 50.10 C 55.84 47.47 57.28 45.12 57.23 42.00 C 57.14 39.39 58.55 37.20 58.63 34.58 Z" fill="#b6b39f" />
<path d="M 175.08 35.93 C 177.01 37.40 178.02 37.75 180.50 37.89 C 182.88 38.98 185.52 39.16 187.91 40.27 C 188.04 40.82 188.17 41.36 188.29 41.91 C 185.57 45.58 188.56 47.28 188.46 51.08 C 187.70 53.67 186.78 55.87 185.21 58.09 L 186.10 59.12 C 186.98 60.44 188.27 60.92 187.26 62.64 C 183.45 60.17 181.28 56.87 179.51 52.77 C 179.81 52.05 180.11 51.34 180.41 50.63 C 178.65 50.36 176.93 49.88 175.15 50.26 C 173.27 51.12 171.55 52.71 170.35 54.39 C 169.53 56.65 170.41 58.89 170.79 61.15 C 168.22 58.25 167.54 54.76 167.12 51.03 C 166.94 48.63 167.91 46.25 170.10 45.09 C 172.36 43.75 174.10 41.92 175.97 40.12 C 171.41 39.01 168.37 41.69 165.65 44.95 C 165.54 41.27 166.05 38.63 169.24 36.43 C 171.09 35.80 173.26 34.54 175.08 35.93 Z" fill="#20223e" />
<path d="M 232.67 38.95 C 233.09 41.26 233.42 43.53 233.32 45.88 C 232.72 46.61 232.12 47.35 231.52 48.08 C 230.53 45.99 228.98 44.41 229.68 41.94 C 230.09 40.48 231.55 39.81 232.67 38.95 Z" fill="#68b8be" />
<path d="M 87.39 40.58 C 88.94 40.64 90.58 40.64 92.09 41.03 C 96.47 41.78 97.88 46.35 101.53 49.19 L 102.38 50.03 C 98.46 50.35 96.37 44.78 92.93 43.11 C 91.87 43.10 90.81 43.12 89.74 43.20 L 89.18 43.24 C 89.87 46.28 90.32 49.02 87.92 51.49 L 86.52 50.77 C 86.88 50.02 87.21 49.26 87.51 48.48 C 88.83 45.68 86.30 43.55 87.39 40.58 Z" fill="#666764" />
<path d="M 107.43 40.21 C 110.40 41.16 110.74 41.96 110.31 45.11 C 109.45 45.95 108.61 46.81 107.76 47.65 L 107.27 47.77 C 106.93 46.84 106.61 45.91 106.30 44.97 C 106.27 43.27 106.81 41.77 107.43 40.21 Z" fill="#a3988b" />
<path d="M 89.18 43.24 L 89.74 43.20 C 90.44 46.08 91.00 46.37 93.59 47.59 C 92.66 47.64 91.74 47.69 90.82 47.74 C 91.32 49.64 91.55 51.47 93.25 52.71 C 95.00 53.53 97.11 53.62 98.92 52.93 C 100.23 51.76 100.96 50.64 102.86 50.43 L 102.38 50.03 L 101.53 49.19 C 102.99 47.96 105.99 47.04 106.30 44.97 C 106.61 45.91 106.93 46.84 107.27 47.77 L 107.76 47.65 L 109.68 47.46 C 110.80 47.61 111.92 47.76 113.04 47.92 C 112.70 48.94 112.32 49.95 111.90 50.94 C 110.69 51.33 109.39 51.51 108.01 51.47 C 108.40 52.91 108.70 54.29 109.60 55.52 C 111.24 56.00 113.10 55.75 114.70 56.36 C 115.33 57.19 115.93 58.04 116.50 58.92 C 113.07 60.76 110.07 63.57 107.13 66.11 C 105.30 67.73 104.14 69.66 104.01 72.16 C 104.15 75.55 103.73 78.36 106.34 80.96 L 107.20 79.98 C 107.22 80.37 107.23 80.76 107.25 81.16 C 105.90 82.40 104.60 83.59 103.73 85.23 C 105.67 84.81 108.96 85.00 110.22 83.21 C 112.45 80.40 114.86 77.10 115.57 73.54 C 114.04 74.38 113.21 75.74 112.20 77.08 C 112.30 73.94 112.89 70.93 113.97 67.98 C 114.63 69.00 115.29 70.01 115.98 71.01 C 115.47 68.64 114.56 66.47 114.43 64.03 C 113.36 69.20 109.83 73.80 107.42 78.46 C 107.73 75.88 108.95 73.78 108.39 71.10 C 107.40 71.17 106.40 71.26 105.40 71.35 C 108.14 67.31 111.58 64.47 115.44 61.58 C 115.39 62.66 115.36 63.74 115.32 64.82 C 117.39 63.63 117.89 60.67 119.12 58.69 L 119.57 59.28 C 119.57 63.15 120.05 66.19 121.46 69.79 C 123.50 68.05 124.49 65.65 127.55 66.09 C 122.18 70.68 116.65 76.28 114.10 82.99 C 112.70 85.86 110.83 88.46 109.49 91.36 C 107.04 95.62 106.65 99.26 107.50 104.10 C 109.32 101.25 110.33 98.14 112.83 95.67 C 115.05 96.56 117.12 97.27 119.50 96.39 C 124.41 94.49 129.84 92.35 133.78 88.76 C 138.15 84.94 141.80 80.24 144.58 75.16 C 145.36 75.32 146.15 75.48 146.93 75.65 C 146.76 76.62 146.58 77.60 146.41 78.57 C 147.19 79.25 149.02 79.77 149.02 80.94 C 147.94 81.87 146.63 82.62 145.41 83.35 C 145.91 85.21 146.46 86.69 145.62 88.58 C 146.69 88.71 147.75 88.84 148.82 88.97 C 148.69 89.88 148.57 90.80 148.44 91.71 C 150.47 90.91 152.47 90.06 154.48 89.22 L 156.21 89.84 C 154.69 87.25 152.24 86.12 149.63 84.88 C 150.22 81.11 151.03 78.77 153.64 75.94 C 154.16 75.29 154.67 74.63 155.18 73.97 C 157.76 74.86 159.60 76.74 162.31 77.09 C 160.85 74.58 157.10 74.35 154.82 72.54 C 156.60 71.29 158.63 68.59 160.87 68.38 C 162.20 69.08 163.48 69.86 164.85 70.49 C 164.76 73.21 161.88 75.45 162.86 77.97 C 164.11 81.57 164.16 84.89 163.49 88.63 C 162.71 89.88 161.66 90.97 160.75 92.13 L 161.04 93.23 C 161.37 94.17 161.71 95.11 162.07 96.04 C 158.50 98.50 155.04 97.67 150.99 97.49 C 147.50 97.13 144.55 95.24 140.85 95.36 C 139.60 95.82 138.67 97.11 137.75 98.05 C 137.82 97.05 137.63 96.25 137.20 95.65 C 130.93 94.31 125.28 95.48 119.93 98.91 C 117.32 101.89 115.88 105.55 112.73 108.17 C 111.27 107.08 109.69 105.56 107.91 105.04 C 106.13 104.77 104.32 104.69 102.54 104.48 C 100.34 102.74 96.62 103.27 93.95 102.79 L 92.09 103.47 L 91.05 102.51 C 92.10 102.26 93.14 102.01 94.19 101.76 C 93.27 100.13 93.00 99.65 91.12 99.37 C 90.46 98.27 89.83 97.16 89.21 96.05 C 89.75 95.13 90.57 94.20 90.76 93.14 C 90.22 92.30 89.62 91.49 88.96 90.72 C 90.14 89.05 90.59 88.21 90.38 86.14 C 92.36 85.13 94.30 84.24 95.90 82.64 C 98.50 80.24 100.28 77.69 100.07 73.98 C 99.63 70.97 98.16 67.72 96.01 65.54 C 93.65 63.19 90.88 61.39 87.50 60.99 L 87.01 60.16 C 87.53 59.64 88.04 59.12 88.55 58.60 C 88.55 56.13 88.82 53.84 87.92 51.49 C 90.32 49.02 89.87 46.28 89.18 43.24 Z" fill="#dcdbca" />
<path d="M 89.74 43.20 C 90.81 43.12 91.87 43.10 92.93 43.11 C 96.37 44.78 98.46 50.35 102.38 50.03 L 102.86 50.43 C 100.96 50.64 100.23 51.76 98.92 52.93 C 97.11 53.62 95.00 53.53 93.25 52.71 C 91.55 51.47 91.32 49.64 90.82 47.74 C 91.74 47.69 92.66 47.64 93.59 47.59 C 91.00 46.37 90.44 46.08 89.74 43.20 Z" fill="#988e7f" />
<path d="M 134.00 43.19 C 136.14 42.95 136.60 44.50 138.03 45.74 C 138.65 48.65 138.29 51.41 137.62 54.26 C 135.57 54.18 133.53 54.02 131.49 53.76 C 130.76 51.52 130.17 50.21 128.14 48.91 C 127.59 49.42 127.05 49.93 126.52 50.45 C 125.88 50.46 125.25 50.47 124.62 50.48 C 123.61 49.32 122.63 49.18 123.43 47.45 C 125.15 46.50 127.25 46.14 129.15 45.70 L 130.67 45.70 C 131.77 44.51 132.10 43.07 134.00 43.19 Z" fill="#91532c" />
<path d="M 59.03 47.60 C 61.48 48.72 63.27 50.51 65.13 52.41 C 65.75 51.31 66.38 50.21 67.00 49.11 C 71.11 51.88 73.78 55.27 79.30 54.21 C 81.47 54.22 83.62 54.37 85.79 54.51 C 85.53 53.87 85.28 53.23 85.02 52.59 C 85.53 51.99 86.03 51.38 86.52 50.77 L 87.92 51.49 C 88.82 53.84 88.55 56.13 88.55 58.60 C 88.04 59.12 87.53 59.64 87.01 60.16 C 84.26 59.46 84.26 63.02 86.87 61.85 C 85.27 63.82 83.55 64.64 84.04 67.52 C 87.93 67.91 89.26 68.44 91.93 71.23 C 90.74 72.62 89.58 74.00 88.80 75.68 C 87.35 75.04 85.94 74.46 84.37 74.23 L 84.30 75.39 C 80.35 75.80 76.87 79.25 78.68 83.32 L 77.99 83.27 C 75.64 79.92 75.70 76.33 75.74 72.41 C 77.00 72.11 79.20 72.25 79.71 70.75 C 79.95 69.24 79.82 67.67 80.20 66.19 C 81.33 64.69 82.71 63.75 83.27 61.87 C 81.18 62.61 80.32 64.28 78.64 65.64 C 77.41 65.69 76.18 65.68 74.94 65.61 C 71.32 68.97 67.07 67.98 63.34 65.42 C 63.95 62.20 61.67 61.04 59.78 59.00 C 58.83 57.32 58.11 55.53 57.03 53.92 C 57.15 53.20 57.26 52.48 57.38 51.76 C 56.84 51.15 56.30 50.55 55.76 49.95 C 56.69 48.84 57.24 47.13 59.03 47.60 Z" fill="#a58675" />
<path d="M 153.67 47.62 C 152.85 50.22 152.75 52.68 150.72 54.71 C 150.62 56.68 150.16 58.37 149.48 60.21 C 151.47 60.22 153.38 59.86 155.30 59.37 C 153.45 61.04 151.62 62.43 150.43 64.69 C 149.64 64.21 148.84 63.73 148.05 63.25 C 147.56 66.50 146.84 69.70 145.80 72.81 C 145.39 73.60 144.99 74.38 144.58 75.16 C 141.80 80.24 138.15 84.94 133.78 88.76 C 129.84 92.35 124.41 94.49 119.50 96.39 C 117.12 97.27 115.05 96.56 112.83 95.67 C 110.33 98.14 109.32 101.25 107.50 104.10 C 106.65 99.26 107.04 95.62 109.49 91.36 C 110.51 91.25 111.43 90.90 112.36 90.49 C 112.22 89.73 112.28 89.08 112.55 88.53 C 114.40 86.19 116.59 84.18 119.46 83.18 C 124.39 81.41 127.30 77.70 131.35 74.38 C 135.07 71.15 138.31 68.16 138.88 62.94 C 142.25 61.56 145.41 60.63 146.85 56.94 C 149.46 53.95 150.37 49.76 153.67 47.62 Z" fill="#617384" />
<path d="M 209.49 48.61 C 211.65 49.24 212.83 48.95 214.83 48.11 C 215.31 48.95 215.79 49.80 216.26 50.65 C 212.77 50.96 210.11 51.62 206.96 53.10 C 204.74 54.31 202.85 52.31 200.91 51.43 C 203.75 49.99 206.07 47.59 209.49 48.61 Z" fill="#68778e" />
<path d="M 128.14 48.91 C 130.17 50.21 130.76 51.52 131.49 53.76 C 133.53 54.02 135.57 54.18 137.62 54.26 C 136.81 57.11 136.04 59.14 133.12 60.36 C 132.55 60.14 131.97 59.91 131.39 59.68 C 130.58 60.00 129.77 60.31 128.96 60.63 C 127.93 60.02 126.24 59.67 125.55 58.65 C 125.43 55.85 125.59 53.18 124.62 50.48 C 125.25 50.47 125.88 50.46 126.52 50.45 C 127.05 49.93 127.59 49.42 128.14 48.91 Z" fill="#9e6643" />
<path d="M 216.26 50.65 C 217.82 51.20 219.31 51.88 220.79 52.59 C 218.64 53.10 216.48 53.59 214.31 54.02 C 212.53 54.24 211.06 54.21 209.30 53.91 L 208.03 53.75 C 204.03 55.74 201.96 59.19 199.79 62.90 C 198.19 62.89 196.59 62.79 195.00 62.65 C 191.66 61.65 191.16 61.61 189.69 58.39 L 188.01 56.85 C 193.08 56.03 195.84 51.64 200.91 51.43 C 202.85 52.31 204.74 54.31 206.96 53.10 C 210.11 51.62 212.77 50.96 216.26 50.65 Z" fill="#32384e" />
<path d="M 208.03 53.75 L 209.30 53.91 C 209.25 55.50 209.12 57.07 208.90 58.64 C 205.51 59.29 204.41 59.83 202.30 62.52 C 203.06 62.77 203.82 63.01 204.59 63.26 C 204.25 65.15 204.05 67.01 204.04 68.93 C 205.92 68.54 207.49 67.71 209.40 68.46 C 207.66 69.59 205.90 70.39 204.75 72.21 C 208.54 71.30 212.02 68.51 215.36 66.53 C 216.24 66.03 217.13 65.56 218.02 65.08 L 218.41 67.27 C 216.04 69.61 214.42 72.79 211.83 74.83 C 209.24 75.76 206.53 76.41 203.86 77.07 C 201.85 75.88 203.00 74.81 203.46 73.10 C 199.77 73.93 197.58 76.05 195.18 78.80 L 194.53 77.32 C 191.93 79.43 189.94 81.97 186.87 83.53 L 186.27 81.98 C 188.36 79.86 190.90 78.34 192.94 76.19 L 192.04 75.72 C 193.54 74.99 194.99 74.29 196.10 73.00 C 194.12 73.23 192.27 73.87 190.38 74.47 C 188.59 73.42 187.05 75.23 185.44 74.18 C 187.89 70.89 191.36 68.11 194.61 65.62 C 195.14 64.85 195.27 63.86 195.00 62.65 C 196.59 62.79 198.19 62.89 199.79 62.90 C 201.96 59.19 204.03 55.74 208.03 53.75 Z" fill="#6c7d8f" />
<path d="M 209.30 53.91 C 211.06 54.21 212.53 54.24 214.31 54.02 C 213.26 56.76 211.52 58.69 209.38 60.63 C 210.68 61.88 212.14 63.54 214.09 63.49 C 216.85 63.36 219.35 63.90 221.98 63.20 C 220.91 64.67 219.68 65.98 218.41 67.27 L 218.02 65.08 C 217.13 65.56 216.24 66.03 215.36 66.53 C 213.05 65.92 211.46 67.57 209.40 68.46 C 207.49 67.71 205.92 68.54 204.04 68.93 C 204.05 67.01 204.25 65.15 204.59 63.26 C 203.82 63.01 203.06 62.77 202.30 62.52 C 204.41 59.83 205.51 59.29 208.90 58.64 C 209.12 57.07 209.25 55.50 209.30 53.91 Z" fill="#507067" />
<path d="M 217.42 55.30 C 218.38 57.47 218.53 59.55 218.55 61.89 C 217.01 61.27 215.54 60.56 214.09 59.77 C 214.85 57.60 214.35 55.07 217.42 55.30 Z" fill="#68b6b6" />
<path d="M 160.89 56.04 C 161.28 58.79 162.12 62.30 161.10 64.98 C 160.83 66.03 160.20 66.32 159.19 65.87 C 158.72 62.82 159.36 60.19 157.74 57.44 C 156.80 57.50 155.87 57.56 154.94 57.62 C 155.28 55.03 159.09 55.89 160.89 56.04 Z" fill="#dcd9cb" />
<path d="M 119.12 58.69 C 117.89 60.67 117.39 63.63 115.32 64.82 C 115.36 63.74 115.39 62.66 115.44 61.58 C 111.58 64.47 108.14 67.31 105.40 71.35 C 104.94 71.62 104.48 71.89 104.01 72.16 C 104.14 69.66 105.30 67.73 107.13 66.11 C 110.07 63.57 113.07 60.76 116.50 58.92 C 117.39 58.69 118.20 58.60 119.12 58.69 Z" fill="#312c35" />
<path d="M 189.69 58.39 C 191.16 61.61 191.66 61.65 195.00 62.65 C 192.27 62.34 189.99 63.64 187.26 62.64 C 188.27 60.92 186.98 60.44 186.10 59.12 C 187.31 59.01 188.51 58.76 189.69 58.39 Z" fill="#90919d" />
<path d="M 155.30 59.37 L 155.65 59.28 C 155.22 61.45 156.22 64.91 154.36 66.42 C 154.49 68.38 154.42 70.15 153.95 72.07 C 152.28 71.74 151.08 71.99 150.34 72.81 C 149.11 72.58 148.18 72.58 147.31 71.52 L 147.26 71.55 C 146.76 71.96 146.27 72.38 145.80 72.81 C 146.84 69.70 147.56 66.50 148.05 63.25 C 148.84 63.73 149.64 64.21 150.43 64.69 C 151.62 62.43 153.45 61.04 155.30 59.37 Z" fill="#dcdbcc" />
<path d="M 87.01 60.16 L 87.50 60.99 L 86.87 61.85 C 84.26 63.02 84.26 59.46 87.01 60.16 Z" fill="#7e6658" />
<path d="M 87.50 60.99 C 90.88 61.39 93.65 63.19 96.01 65.54 C 96.10 68.93 98.72 72.14 98.55 75.65 C 98.39 78.02 94.81 80.40 95.90 82.64 C 94.30 84.24 92.36 85.13 90.38 86.14 C 90.59 88.21 90.14 89.05 88.96 90.72 C 87.39 90.96 86.03 90.56 85.14 92.17 C 84.84 93.41 84.59 94.65 84.37 95.91 C 83.40 95.32 82.71 94.53 82.02 93.64 L 80.61 94.86 C 76.01 92.07 71.44 91.19 66.69 94.31 C 65.91 92.11 65.65 90.53 66.69 88.34 C 68.44 88.74 70.19 89.16 71.93 89.60 C 72.18 88.45 72.43 87.31 72.68 86.16 C 75.08 88.63 78.44 88.91 80.51 91.62 C 81.40 90.44 82.25 89.23 83.02 87.96 C 85.28 86.67 87.97 86.60 90.19 85.38 C 91.72 83.85 92.53 81.62 93.90 79.92 C 93.86 77.99 93.76 76.06 93.63 74.14 C 91.89 74.36 90.54 75.59 88.80 75.68 C 89.58 74.00 90.74 72.62 91.93 71.23 C 89.26 68.44 87.93 67.91 84.04 67.52 C 83.55 64.64 85.27 63.82 86.87 61.85 L 87.50 60.99 Z" fill="#ba8474" />
<path d="M 114.43 64.03 C 114.56 66.47 115.47 68.64 115.98 71.01 C 115.29 70.01 114.63 69.00 113.97 67.98 C 112.89 70.93 112.30 73.94 112.20 77.08 C 113.21 75.74 114.04 74.38 115.57 73.54 C 114.86 77.10 112.45 80.40 110.22 83.21 C 108.96 85.00 105.67 84.81 103.73 85.23 C 104.60 83.59 105.90 82.40 107.25 81.16 C 107.23 80.76 107.22 80.37 107.20 79.98 L 107.42 78.46 C 109.83 73.80 113.36 69.20 114.43 64.03 Z" fill="#212334" />
<path d="M 96.01 65.54 C 98.16 67.72 99.63 70.97 100.07 73.98 C 100.28 77.69 98.50 80.24 95.90 82.64 C 94.81 80.40 98.39 78.02 98.55 75.65 C 98.72 72.14 96.10 68.93 96.01 65.54 Z" fill="#96776b" />
<path d="M 165.27 66.29 C 167.17 65.03 167.94 69.78 166.18 69.91 C 164.79 69.44 164.32 67.37 165.27 66.29 Z" fill="#e1ded9" />
<path d="M 215.36 66.53 C 212.02 68.51 208.54 71.30 204.75 72.21 C 205.90 70.39 207.66 69.59 209.40 68.46 C 211.46 67.57 213.05 65.92 215.36 66.53 Z" fill="#3b4e5f" />
<path d="M 201.24 69.24 L 201.98 68.83 L 202.74 69.20 L 202.76 69.99 L 202.02 70.40 L 201.26 70.03 L 201.24 69.24 Z" fill="#3f4e63" />
<path d="M 105.40 71.35 C 106.40 71.26 107.40 71.17 108.39 71.10 C 108.95 73.78 107.73 75.88 107.42 78.46 L 107.20 79.98 L 106.34 80.96 C 103.73 78.36 104.15 75.55 104.01 72.16 C 104.48 71.89 104.94 71.62 105.40 71.35 Z" fill="#bc8d7c" />
<path d="M 147.26 71.55 L 147.31 71.52 C 148.18 72.58 149.11 72.58 150.34 72.81 C 151.45 74.13 151.72 75.71 153.64 75.94 C 151.03 78.77 150.22 81.11 149.63 84.88 L 148.64 85.62 C 148.62 86.16 148.60 86.70 148.59 87.24 C 150.44 88.73 152.40 88.40 154.48 89.22 C 152.47 90.06 150.47 90.91 148.44 91.71 C 148.57 90.80 148.69 89.88 148.82 88.97 C 147.75 88.84 146.69 88.71 145.62 88.58 C 146.46 86.69 145.91 85.21 145.41 83.35 C 146.63 82.62 147.94 81.87 149.02 80.94 C 149.02 79.77 147.19 79.25 146.41 78.57 C 146.58 77.60 146.76 76.62 146.93 75.65 C 146.15 75.48 145.36 75.32 144.58 75.16 C 144.99 74.38 145.39 73.60 145.80 72.81 C 146.27 72.38 146.76 71.96 147.26 71.55 Z" fill="#fdfdee" />
<path d="M 153.95 72.07 L 154.82 72.54 C 157.10 74.35 160.85 74.58 162.31 77.09 C 159.60 76.74 157.76 74.86 155.18 73.97 C 154.67 74.63 154.16 75.29 153.64 75.94 C 151.72 75.71 151.45 74.13 150.34 72.81 C 151.08 71.99 152.28 71.74 153.95 72.07 Z" fill="#74746f" />
<path d="M 75.74 72.41 C 75.70 76.33 75.64 79.92 77.99 83.27 C 77.50 84.90 76.68 86.09 75.61 87.39 C 77.65 88.61 80.73 88.01 83.02 87.96 C 82.25 89.23 81.40 90.44 80.51 91.62 C 78.44 88.91 75.08 88.63 72.68 86.16 C 72.43 87.31 72.18 88.45 71.93 89.60 C 70.19 89.16 68.44 88.74 66.69 88.34 C 68.19 86.54 70.20 85.42 71.86 83.82 C 73.77 80.55 74.37 76.80 73.60 73.09 C 74.31 72.84 75.02 72.62 75.74 72.41 Z" fill="#a85e4f" />
<path d="M 196.10 73.00 C 194.99 74.29 193.54 74.99 192.04 75.72 C 190.63 76.21 189.21 76.66 187.77 77.04 C 188.44 76.05 189.31 75.19 190.38 74.47 C 192.27 73.87 194.12 73.23 196.10 73.00 Z" fill="#424e60" />
<path d="M 203.46 73.10 C 203.00 74.81 201.85 75.88 203.86 77.07 C 199.89 77.55 196.34 80.38 192.89 82.30 L 192.41 81.11 C 193.25 80.23 194.21 79.52 195.18 78.80 C 197.58 76.05 199.77 73.93 203.46 73.10 Z" fill="#191d3a" />
<path d="M 72.57 73.81 L 73.60 73.09 C 74.37 76.80 73.77 80.55 71.86 83.82 C 70.20 85.42 68.19 86.54 66.69 88.34 C 65.65 90.53 65.91 92.11 66.69 94.31 C 66.24 95.81 65.95 97.63 64.99 98.89 C 64.11 99.26 63.23 99.62 62.35 99.97 C 61.49 100.60 60.67 101.26 59.86 101.96 C 59.34 101.55 58.81 101.14 58.29 100.73 C 58.15 99.09 58.01 97.44 57.84 95.80 C 55.45 96.62 57.89 101.32 55.34 102.47 L 55.04 101.77 L 56.01 99.95 C 56.27 95.77 56.17 91.53 55.92 87.35 C 56.53 86.42 56.98 84.52 58.09 84.17 C 61.15 83.83 64.50 84.59 67.39 83.67 C 70.40 80.79 72.73 78.26 72.57 73.81 Z" fill="#9b8775" />
<path d="M 84.37 74.23 C 85.94 74.46 87.35 75.04 88.80 75.68 C 90.54 75.59 91.89 74.36 93.63 74.14 C 93.76 76.06 93.86 77.99 93.90 79.92 C 92.53 81.62 91.72 83.85 90.19 85.38 C 87.97 86.60 85.28 86.67 83.02 87.96 C 80.73 88.01 77.65 88.61 75.61 87.39 C 76.68 86.09 77.50 84.90 77.99 83.27 L 78.68 83.32 C 82.85 83.85 84.75 82.61 86.55 78.98 L 86.03 77.76 C 85.52 76.93 84.94 76.14 84.30 75.39 L 84.37 74.23 Z" fill="#9d2f15" />
<path d="M 185.44 74.18 C 187.05 75.23 188.59 73.42 190.38 74.47 C 189.31 75.19 188.44 76.05 187.77 77.04 C 189.21 76.66 190.63 76.21 192.04 75.72 L 192.94 76.19 C 190.90 78.34 188.36 79.86 186.27 81.98 C 186.07 80.36 185.91 78.71 185.75 77.08 C 183.98 79.23 181.72 80.92 179.96 83.04 C 179.50 85.26 180.67 85.87 182.05 87.24 C 181.42 88.40 180.74 89.53 180.00 90.62 C 178.66 88.04 178.80 84.68 178.32 81.85 C 181.06 79.48 183.84 77.55 185.44 74.18 Z" fill="#8895a0" />
<path d="M 84.30 75.39 C 82.42 77.12 80.83 78.68 79.96 81.15 C 82.95 81.72 84.16 79.57 86.03 77.76 L 86.55 78.98 C 84.75 82.61 82.85 83.85 78.68 83.32 C 76.87 79.25 80.35 75.80 84.30 75.39 Z" fill="#d2bc3d" />
<path d="M 84.30 75.39 C 84.94 76.14 85.52 76.93 86.03 77.76 C 84.16 79.57 82.95 81.72 79.96 81.15 C 80.83 78.68 82.42 77.12 84.30 75.39 Z" fill="#c3bc23" />
<path d="M 185.75 77.08 C 185.91 78.71 186.07 80.36 186.27 81.98 L 186.87 83.53 C 189.94 81.97 191.93 79.43 194.53 77.32 L 195.18 78.80 C 194.21 79.52 193.25 80.23 192.41 81.11 L 192.89 82.30 C 190.51 84.33 188.85 86.99 186.53 89.02 C 187.08 87.64 187.67 86.27 188.22 84.88 C 185.16 85.07 182.79 88.17 181.47 90.67 C 180.98 90.66 180.49 90.64 180.00 90.62 C 180.74 89.53 181.42 88.40 182.05 87.24 C 180.67 85.87 179.50 85.26 179.96 83.04 C 181.72 80.92 183.98 79.23 185.75 77.08 Z" fill="#a1acb4" />
<path d="M 60.98 82.25 C 63.25 82.49 65.69 81.86 67.39 83.67 C 64.50 84.59 61.15 83.83 58.09 84.17 C 56.98 84.52 56.53 86.42 55.92 87.35 C 55.80 86.21 55.70 85.07 55.63 83.93 C 56.69 81.43 58.85 82.40 60.98 82.25 Z" fill="#9c9491" />
<path d="M 232.06 84.06 C 231.40 85.99 229.16 87.17 227.72 88.56 C 225.31 90.69 222.98 92.71 219.86 93.75 C 217.20 94.60 215.33 96.40 213.45 98.37 C 210.40 97.45 208.22 99.60 205.08 100.13 C 202.61 100.48 199.68 103.80 197.41 102.22 C 203.55 97.79 210.74 96.05 217.11 92.17 C 220.89 90.23 224.79 89.98 227.99 86.74 C 229.25 85.45 230.20 84.37 232.06 84.06 Z" fill="#141d31" />
<path d="M 148.64 85.62 L 149.63 84.88 C 152.24 86.12 154.69 87.25 156.21 89.84 L 154.48 89.22 C 152.40 88.40 150.44 88.73 148.59 87.24 C 148.60 86.70 148.62 86.16 148.64 85.62 Z" fill="#0c1020" />
<path d="M 224.95 84.89 L 226.11 84.62 C 226.74 85.32 227.37 86.03 227.99 86.74 C 224.79 89.98 220.89 90.23 217.11 92.17 C 210.74 96.05 203.55 97.79 197.41 102.22 C 192.58 105.69 187.79 109.24 183.01 112.78 C 178.22 115.50 173.25 117.87 168.36 120.39 C 167.24 117.33 169.05 116.20 170.96 114.28 L 172.32 112.99 C 174.08 111.09 175.26 108.81 176.84 106.79 C 177.89 105.96 179.60 106.05 180.87 105.74 C 181.62 106.31 182.69 108.63 183.76 107.71 C 184.71 106.38 183.83 103.90 183.70 102.34 C 188.90 100.38 193.99 98.09 199.00 95.70 C 202.59 95.03 205.75 93.98 208.92 92.15 C 212.65 90.01 216.70 89.31 220.77 87.72 C 220.53 87.22 220.29 86.71 220.05 86.20 C 221.69 85.77 223.32 85.32 224.95 84.89 Z" fill="#486c56" />
<path d="M 220.05 86.20 C 220.29 86.71 220.53 87.22 220.77 87.72 C 216.70 89.31 212.65 90.01 208.92 92.15 C 205.70 93.69 201.81 95.12 198.20 94.52 L 198.97 93.32 C 205.56 90.03 213.03 88.36 220.05 86.20 Z" fill="#4d5a5a" />
<path d="M 168.95 88.40 C 170.12 88.40 170.91 88.93 171.34 90.00 C 167.38 94.80 162.29 98.18 156.54 100.46 C 154.36 100.49 152.20 100.08 150.02 100.16 C 145.66 100.19 141.54 101.75 137.22 101.74 L 136.00 100.08 L 137.75 98.05 C 138.67 97.11 139.60 95.82 140.85 95.36 C 144.55 95.24 147.50 97.13 150.99 97.49 C 155.04 97.67 158.50 98.50 162.07 96.04 C 161.71 95.11 161.37 94.17 161.04 93.23 C 163.40 91.41 166.08 89.27 168.95 88.40 Z" fill="#647283" />
<path d="M 227.72 88.56 C 229.32 90.74 228.07 93.31 227.85 95.76 C 220.51 95.62 219.58 106.07 213.22 106.73 C 207.97 110.17 204.97 115.21 200.54 119.47 C 198.35 121.68 199.84 125.70 198.43 128.38 C 197.49 130.76 195.43 133.61 195.80 136.23 C 196.11 138.57 195.33 140.77 195.91 143.09 C 196.53 145.53 196.01 147.68 195.42 150.05 C 197.11 153.86 199.06 157.83 199.89 161.94 C 198.35 162.05 196.82 162.15 195.29 162.25 C 195.52 162.82 195.75 163.39 195.98 163.95 C 191.75 165.17 188.31 166.89 184.56 169.16 C 184.93 170.09 185.12 170.80 185.01 171.79 L 184.64 169.86 C 182.36 170.87 179.99 171.17 178.88 173.69 L 181.90 173.35 L 182.01 174.68 C 181.26 174.48 180.50 174.31 179.74 174.15 C 180.33 176.02 181.57 176.18 183.04 175.07 C 187.77 171.48 193.19 169.31 198.94 167.99 C 198.19 171.86 196.63 175.38 195.11 178.99 C 190.14 178.76 187.05 181.54 183.22 184.17 C 176.09 189.41 168.35 195.20 166.21 204.30 C 165.19 208.16 165.24 212.41 165.53 216.36 C 166.21 216.45 166.89 216.55 167.57 216.65 C 166.74 213.58 169.86 212.41 171.88 210.90 C 175.79 208.63 178.10 205.20 180.88 201.75 C 181.46 201.42 182.04 201.08 182.61 200.75 C 184.37 198.44 186.72 194.77 189.86 194.54 C 191.67 194.22 192.96 192.94 194.71 192.30 C 190.94 197.75 187.11 202.67 185.11 209.14 C 184.17 212.34 181.64 216.68 182.79 219.96 C 183.43 221.92 183.57 222.84 182.92 224.81 C 181.06 222.80 179.17 221.59 179.54 218.47 L 179.51 217.94 L 179.49 217.60 L 179.49 217.59 C 179.33 219.34 179.20 221.10 179.06 222.86 C 179.76 224.22 180.46 225.58 181.14 226.96 C 178.71 228.49 176.97 228.38 174.22 227.97 C 173.85 226.36 173.68 224.52 172.90 223.05 C 171.49 221.30 169.37 220.57 167.38 219.70 C 167.42 219.15 167.46 218.59 167.50 218.04 C 165.66 218.34 163.82 218.62 161.97 218.83 C 162.15 218.01 162.33 217.20 162.51 216.38 C 161.78 216.17 161.06 215.96 160.33 215.75 C 159.62 214.24 159.54 212.88 157.61 212.55 C 153.46 212.30 149.19 210.65 145.71 208.42 C 147.15 207.37 148.01 206.33 148.85 204.75 C 147.86 204.40 146.87 204.04 145.88 203.67 C 147.38 201.22 149.32 199.18 151.29 197.12 C 152.71 195.58 154.19 194.13 155.90 192.90 C 156.23 194.83 156.48 196.75 156.67 198.70 C 159.19 198.17 161.36 195.82 163.23 194.13 C 166.98 189.88 168.82 184.48 172.35 180.18 C 174.32 177.97 179.40 177.78 179.70 174.43 C 177.89 174.28 176.08 174.57 174.26 175.28 C 176.05 170.78 179.21 166.90 181.01 162.37 C 181.77 160.40 183.10 158.85 184.08 157.01 C 184.29 156.18 184.50 155.35 184.71 154.52 C 187.24 152.13 190.03 150.70 190.32 146.86 C 191.56 141.90 189.95 137.63 189.52 132.77 C 190.32 129.42 190.44 125.85 189.88 122.45 C 189.17 122.93 188.46 123.42 187.76 123.90 C 187.37 122.93 186.83 122.09 186.14 121.41 C 184.92 121.56 183.77 122.11 182.71 123.07 L 182.57 122.42 C 183.19 121.95 183.81 121.49 184.43 121.02 C 189.42 117.05 194.37 112.96 199.25 108.84 C 202.16 107.58 203.92 105.33 206.59 103.61 C 209.04 102.02 211.52 100.63 213.45 98.37 C 215.33 96.40 217.20 94.60 219.86 93.75 C 222.98 92.71 225.31 90.69 227.72 88.56 Z" fill="#f2f2f1" />
<path d="M 88.96 90.72 C 89.62 91.49 90.22 92.30 90.76 93.14 C 90.57 94.20 89.75 95.13 89.21 96.05 C 89.83 97.16 90.46 98.27 91.12 99.37 C 93.00 99.65 93.27 100.13 94.19 101.76 C 93.14 102.01 92.10 102.26 91.05 102.51 L 92.09 103.47 C 91.60 103.67 91.11 103.87 90.63 104.08 C 89.03 102.45 87.17 102.20 85.02 101.86 C 84.78 98.66 82.74 96.96 80.61 94.86 L 82.02 93.64 C 82.71 94.53 83.40 95.32 84.37 95.91 C 84.59 94.65 84.84 93.41 85.14 92.17 C 86.03 90.56 87.39 90.96 88.96 90.72 Z" fill="#c49082" />
<path d="M 80.61 94.86 C 82.74 96.96 84.78 98.66 85.02 101.86 C 83.03 105.02 79.77 106.96 82.01 111.11 C 84.65 108.28 86.82 105.43 90.63 104.08 C 91.11 103.87 91.60 103.67 92.09 103.47 L 93.95 102.79 C 96.62 103.27 100.34 102.74 102.54 104.48 C 97.93 104.60 93.74 103.64 89.75 106.55 C 85.85 109.76 82.98 114.46 80.54 118.83 C 79.84 115.03 81.19 111.17 80.15 107.56 C 78.68 107.69 76.26 107.03 75.22 108.26 C 74.84 109.03 74.48 109.80 74.14 110.59 C 73.51 109.90 72.88 109.20 72.25 108.51 C 73.20 106.41 74.05 104.24 75.17 102.22 C 77.04 100.18 78.98 98.37 81.92 98.27 C 81.13 96.56 78.77 95.94 77.06 95.60 C 73.12 94.66 69.86 97.14 66.12 98.27 C 63.71 102.70 63.81 107.64 65.94 112.16 C 62.71 110.40 59.95 108.01 57.48 105.31 C 58.74 106.02 59.98 106.75 61.21 107.52 C 62.41 105.35 62.13 102.41 62.35 99.97 C 63.23 99.62 64.11 99.26 64.99 98.89 C 65.95 97.63 66.24 95.81 66.69 94.31 C 71.44 91.19 76.01 92.07 80.61 94.86 Z" fill="#201e35" />
<path d="M 198.14 93.93 C 198.01 94.68 197.51 95.25 196.65 95.65 C 192.38 98.60 187.62 99.57 182.76 101.07 C 182.00 101.34 181.23 101.62 180.47 101.90 L 180.09 100.79 C 186.05 99.49 191.63 94.63 198.14 93.93 Z" fill="#5e6a6c" />
<path d="M 137.20 95.65 C 137.63 96.25 137.82 97.05 137.75 98.05 C 134.80 97.03 131.80 97.80 128.81 96.96 C 126.76 96.20 125.88 96.76 124.82 98.54 C 121.73 100.80 118.85 103.55 116.77 106.78 C 113.99 110.60 110.70 114.05 107.63 117.64 C 104.79 120.81 99.96 120.51 96.49 122.56 C 94.39 123.78 92.30 124.89 89.98 125.67 C 89.17 125.98 88.38 126.36 87.62 126.81 C 88.61 127.82 89.61 128.83 90.60 129.85 C 90.60 131.75 89.98 134.30 91.01 135.98 C 92.93 139.47 95.12 142.61 98.95 144.16 L 99.82 144.47 C 105.62 146.01 112.34 144.87 118.08 143.44 C 121.44 142.70 124.78 141.91 128.08 140.97 C 132.10 139.70 136.14 138.28 139.92 136.41 C 145.14 133.50 150.56 131.22 155.36 127.56 C 155.87 127.16 156.37 126.75 156.87 126.33 C 160.95 124.80 164.79 122.90 168.36 120.39 C 173.25 117.87 178.22 115.50 183.01 112.78 L 183.93 113.23 C 183.39 114.22 182.83 115.19 182.22 116.14 L 180.98 116.95 C 179.90 117.56 178.80 118.13 177.71 118.74 C 174.99 120.69 171.67 122.13 172.76 126.15 C 174.56 126.22 176.36 126.26 178.17 126.20 C 175.49 127.87 173.60 130.15 171.48 132.42 C 171.95 132.87 172.44 133.31 172.93 133.73 C 168.50 136.70 164.81 140.34 161.02 144.05 C 154.28 148.80 147.10 152.98 139.86 156.92 C 136.59 158.74 132.90 159.70 129.78 161.74 L 129.32 162.02 L 128.75 161.37 C 127.50 161.89 126.27 162.46 125.00 162.92 C 120.25 163.59 115.89 164.80 111.00 164.47 C 101.71 165.31 92.45 161.69 86.28 154.69 C 83.11 150.83 81.65 145.25 80.41 140.49 C 77.66 140.20 75.22 139.09 72.42 139.28 C 69.97 141.54 67.83 144.12 65.35 146.33 C 63.95 147.67 61.86 147.44 60.03 147.86 C 60.21 146.68 60.40 145.50 60.60 144.32 C 59.34 145.63 59.43 145.80 57.48 145.44 C 57.73 147.57 57.83 149.47 57.09 151.52 C 54.61 150.05 53.72 148.92 53.58 146.02 C 52.65 142.49 54.16 139.56 53.69 136.04 C 54.44 138.30 54.42 140.62 54.80 142.95 C 56.05 145.54 58.47 143.02 60.29 142.44 C 61.33 139.25 62.50 136.18 64.17 133.26 L 62.03 132.97 C 62.34 132.01 62.65 131.06 62.96 130.10 C 60.55 128.74 58.17 128.76 55.48 128.91 C 53.82 126.69 54.96 123.56 55.54 121.14 C 55.38 122.76 55.20 124.38 54.97 126.00 C 57.04 128.71 59.87 128.78 62.90 129.68 C 66.48 130.47 68.77 128.17 71.35 126.21 C 75.10 124.76 79.98 125.19 83.92 124.57 C 91.71 121.73 100.00 118.87 106.90 114.20 C 107.42 113.60 107.93 113.00 108.45 112.39 C 109.77 110.87 111.24 109.51 112.73 108.17 C 115.88 105.55 117.32 101.89 119.93 98.91 C 125.28 95.48 130.93 94.31 137.20 95.65 Z" fill="#212541" />
<path d="M 57.84 95.80 C 58.01 97.44 58.15 99.09 58.29 100.73 C 58.81 101.14 59.34 101.55 59.86 101.96 C 60.67 101.26 61.49 100.60 62.35 99.97 C 62.13 102.41 62.41 105.35 61.21 107.52 C 59.98 106.75 58.74 106.02 57.48 105.31 C 56.64 104.45 55.90 103.53 55.34 102.47 C 57.89 101.32 55.45 96.62 57.84 95.80 Z" fill="#a59a91" />
<path d="M 128.81 96.96 L 128.85 97.58 C 127.42 98.34 126.45 98.61 124.82 98.54 C 125.88 96.76 126.76 96.20 128.81 96.96 Z" fill="#909fae" />
<path d="M 128.85 97.58 C 131.45 97.51 132.35 97.79 133.93 99.77 L 133.89 101.19 C 132.47 101.27 131.06 101.35 129.64 101.43 C 129.39 100.65 129.13 99.86 128.86 99.08 C 126.30 99.54 125.80 101.54 124.43 103.40 C 122.90 105.81 120.68 108.00 119.55 110.61 C 118.73 113.16 118.83 116.18 119.01 118.82 C 121.17 118.11 123.30 117.38 125.33 116.36 L 125.99 114.77 C 126.82 113.16 127.68 112.03 129.10 110.89 C 129.20 112.19 129.30 113.48 129.39 114.78 C 132.21 114.03 135.06 113.40 137.83 112.48 L 138.66 113.53 C 136.83 114.01 134.91 114.42 133.15 115.11 C 131.72 116.09 130.71 117.73 129.60 119.06 L 128.02 117.45 C 126.29 117.32 125.18 117.89 124.69 119.17 C 122.82 123.22 119.75 125.76 116.24 128.33 C 112.66 130.98 109.95 135.44 105.77 136.82 C 104.25 137.39 102.62 138.13 100.99 138.19 C 98.37 137.85 97.30 136.00 95.53 134.35 C 94.50 133.20 93.02 132.13 92.40 130.70 C 92.03 129.15 91.97 127.51 91.77 125.92 L 89.98 125.67 C 92.30 124.89 94.39 123.78 96.49 122.56 C 99.96 120.51 104.79 120.81 107.63 117.64 C 110.70 114.05 113.99 110.60 116.77 106.78 C 118.85 103.55 121.73 100.80 124.82 98.54 C 126.45 98.61 127.42 98.34 128.85 97.58 Z" fill="#405872" />
<path d="M 213.45 98.37 C 211.52 100.63 209.04 102.02 206.59 103.61 C 203.92 105.33 202.16 107.58 199.25 108.84 C 197.46 109.05 195.76 109.13 194.17 110.06 C 190.23 112.20 186.31 114.26 182.22 116.14 C 182.83 115.19 183.39 114.22 183.93 113.23 L 183.01 112.78 C 187.79 109.24 192.58 105.69 197.41 102.22 C 199.68 103.80 202.61 100.48 205.08 100.13 C 208.22 99.60 210.40 97.45 213.45 98.37 Z" fill="#35474e" />
<path d="M 128.86 99.08 C 129.13 99.86 129.39 100.65 129.64 101.43 C 131.06 101.35 132.47 101.27 133.89 101.19 C 133.53 103.68 131.20 104.86 129.60 106.61 C 127.11 108.88 125.77 111.74 124.43 114.76 L 125.99 114.77 L 125.33 116.36 C 123.30 117.38 121.17 118.11 119.01 118.82 C 118.83 116.18 118.73 113.16 119.55 110.61 C 120.68 108.00 122.90 105.81 124.43 103.40 C 125.80 101.54 126.30 99.54 128.86 99.08 Z" fill="#667689" />
<path d="M 177.89 99.29 C 178.64 99.78 179.37 100.28 180.09 100.79 L 180.47 101.90 C 181.23 101.62 182.00 101.34 182.76 101.07 L 183.70 102.34 C 183.83 103.90 184.71 106.38 183.76 107.71 C 182.69 108.63 181.62 106.31 180.87 105.74 C 180.35 105.12 179.81 104.52 179.26 103.92 C 178.48 103.28 177.67 102.69 176.84 102.14 C 177.14 101.17 177.49 100.22 177.89 99.29 Z" fill="#61b3b6" />
<path d="M 85.02 101.86 C 87.17 102.20 89.03 102.45 90.63 104.08 C 86.82 105.43 84.65 108.28 82.01 111.11 C 79.77 106.96 83.03 105.02 85.02 101.86 Z" fill="#c9bab3" />
<path d="M 160.19 102.03 C 158.23 104.56 155.67 104.08 152.85 103.76 C 155.18 101.76 157.24 101.81 160.19 102.03 Z" fill="#c1c5c9" />
<path d="M 176.84 102.14 C 177.67 102.69 178.48 103.28 179.26 103.92 C 176.47 105.02 173.66 104.88 170.73 105.09 C 172.76 104.10 174.79 103.10 176.84 102.14 Z" fill="#b6c8c2" />
<path d="M 179.26 103.92 C 179.81 104.52 180.35 105.12 180.87 105.74 C 179.60 106.05 177.89 105.96 176.84 106.79 C 175.26 108.81 174.08 111.09 172.32 112.99 C 171.01 110.54 168.14 113.16 170.96 114.28 C 169.05 116.20 167.24 117.33 168.36 120.39 C 164.79 122.90 160.95 124.80 156.87 126.33 C 158.69 123.98 161.16 122.41 163.16 120.23 C 164.02 120.02 164.88 119.82 165.74 119.63 C 166.02 118.76 166.26 117.88 166.48 117.00 C 166.67 114.88 164.16 114.52 162.76 113.67 C 162.88 112.79 162.99 111.90 163.09 111.01 C 164.45 111.60 165.83 112.14 167.23 112.63 C 168.34 112.56 168.69 112.42 169.46 111.56 C 171.23 109.60 173.44 108.30 175.64 106.89 C 173.97 106.37 172.36 105.72 170.73 105.09 C 173.66 104.88 176.47 105.02 179.26 103.92 Z" fill="#5f8089" />
<path d="M 170.73 105.09 C 172.36 105.72 173.97 106.37 175.64 106.89 C 173.44 108.30 171.23 109.60 169.46 111.56 C 168.69 112.42 168.34 112.56 167.23 112.63 C 169.01 111.42 168.21 109.37 168.38 107.55 C 165.61 106.99 164.05 108.60 161.80 109.80 C 161.29 109.59 160.76 109.40 160.23 109.23 C 158.86 108.65 157.53 108.52 156.25 108.85 C 157.77 107.78 160.10 108.58 161.83 107.83 C 164.76 106.76 167.84 106.27 170.73 105.09 Z" fill="#9ca9a2" />
<path d="M 168.38 107.55 C 168.21 109.37 169.01 111.42 167.23 112.63 C 165.83 112.14 164.45 111.60 163.09 111.01 L 161.80 109.80 C 164.05 108.60 165.61 106.99 168.38 107.55 Z" fill="#edfaf8" />
<path d="M 141.69 109.63 C 144.00 110.74 145.43 111.01 148.01 110.75 C 151.04 110.34 153.93 111.03 156.25 108.85 C 157.53 108.52 158.86 108.65 160.23 109.23 C 157.85 109.98 155.48 111.12 153.02 111.52 C 151.66 111.36 150.34 111.05 148.99 110.85 C 148.42 111.54 148.39 112.65 148.18 113.51 L 146.94 113.95 C 145.65 114.37 144.34 114.71 143.02 115.04 C 142.30 113.88 141.58 112.73 140.81 111.61 C 141.09 110.94 141.38 110.28 141.69 109.63 Z" fill="#181835" />
<path d="M 160.23 109.23 C 160.76 109.40 161.29 109.59 161.80 109.80 L 163.09 111.01 C 162.99 111.90 162.88 112.79 162.76 113.67 C 162.45 115.99 162.17 118.01 163.16 120.23 C 161.16 122.41 158.69 123.98 156.87 126.33 C 156.37 126.75 155.87 127.16 155.36 127.56 C 152.74 126.16 150.11 129.13 147.21 127.68 C 145.65 127.11 145.69 126.45 147.34 125.72 C 149.99 124.55 150.78 121.84 150.85 119.14 C 149.25 117.50 148.79 115.65 148.18 113.51 C 148.39 112.65 148.42 111.54 148.99 110.85 C 150.34 111.05 151.66 111.36 153.02 111.52 C 155.48 111.12 157.85 109.98 160.23 109.23 Z" fill="#496a57" />
<path d="M 199.25 108.84 C 194.37 112.96 189.42 117.05 184.43 121.02 C 183.92 118.66 182.10 119.32 180.24 118.68 C 180.48 118.10 180.73 117.53 180.98 116.95 L 182.22 116.14 C 186.31 114.26 190.23 112.20 194.17 110.06 C 195.76 109.13 197.46 109.05 199.25 108.84 Z" fill="#7a7b88" />
<path d="M 108.45 112.39 C 107.93 113.00 107.42 113.60 106.90 114.20 C 105.26 114.38 103.63 114.59 101.98 114.56 C 100.01 114.08 98.23 113.21 96.16 113.02 C 100.25 112.11 104.61 109.80 108.45 112.39 Z" fill="#ced0c4" />
<path d="M 93.30 111.37 L 93.27 114.13 C 94.23 114.01 95.20 113.65 96.16 113.02 C 98.23 113.21 100.01 114.08 101.98 114.56 C 103.63 114.59 105.26 114.38 106.90 114.20 C 100.00 118.87 91.71 121.73 83.92 124.57 C 82.99 122.71 84.40 120.81 85.13 119.11 C 86.64 115.80 89.71 112.33 93.30 111.37 Z" fill="#687787" />
<path d="M 140.81 111.61 C 141.58 112.73 142.30 113.88 143.02 115.04 C 144.34 114.71 145.65 114.37 146.94 113.95 C 147.36 115.59 147.78 117.23 148.18 118.87 C 146.40 121.98 142.83 124.18 143.38 127.86 C 144.79 127.27 144.99 126.01 145.75 124.80 L 147.34 125.72 C 145.69 126.45 145.65 127.11 147.21 127.68 C 150.11 129.13 152.74 126.16 155.36 127.56 C 150.56 131.22 145.14 133.50 139.92 136.41 C 139.47 134.52 139.01 132.66 138.41 130.82 C 139.57 131.82 141.00 134.54 142.65 132.87 C 143.59 130.68 142.39 128.45 140.21 127.71 C 138.50 127.12 136.20 125.78 134.40 126.47 C 132.04 128.31 131.25 130.96 130.50 133.73 L 131.01 134.14 C 129.91 135.35 129.67 136.61 130.96 137.79 L 129.26 138.29 C 128.85 138.96 128.44 139.63 128.05 140.31 C 127.24 138.72 127.33 137.64 127.56 135.94 C 123.81 138.02 120.44 141.59 116.27 142.59 C 116.88 142.87 117.48 143.16 118.08 143.44 C 112.34 144.87 105.62 146.01 99.82 144.47 C 101.24 144.19 103.11 142.99 100.94 141.98 C 100.11 141.79 99.23 141.86 98.32 142.17 C 98.37 142.85 98.58 143.52 98.95 144.16 C 95.12 142.61 92.93 139.47 91.01 135.98 C 89.98 134.30 90.60 131.75 90.60 129.85 C 89.61 128.83 88.61 127.82 87.62 126.81 C 88.38 126.36 89.17 125.98 89.98 125.67 L 91.77 125.92 C 91.97 127.51 92.03 129.15 92.40 130.70 C 93.02 132.13 94.50 133.20 95.53 134.35 C 97.30 136.00 98.37 137.85 100.99 138.19 C 102.62 138.13 104.25 137.39 105.77 136.82 C 109.95 135.44 112.66 130.98 116.24 128.33 C 119.75 125.76 122.82 123.22 124.69 119.17 C 125.07 121.05 126.32 120.96 127.80 121.71 C 125.35 124.56 122.27 126.64 120.09 129.78 C 122.62 130.92 125.23 132.67 127.96 130.95 C 129.42 129.95 132.61 128.27 131.77 126.11 C 131.25 123.83 131.22 120.82 129.60 119.06 C 130.71 117.73 131.72 116.09 133.15 115.11 C 134.91 114.42 136.83 114.01 138.66 113.53 L 137.83 112.48 C 138.82 112.17 139.81 111.88 140.81 111.61 Z" fill="#677b8e" />
<path d="M 172.32 112.99 L 170.96 114.28 C 168.14 113.16 171.01 110.54 172.32 112.99 Z" fill="#8ba29b" />
<path d="M 146.94 113.95 L 148.18 113.51 C 148.79 115.65 149.25 117.50 150.85 119.14 C 150.78 121.84 149.99 124.55 147.34 125.72 L 145.75 124.80 C 144.99 126.01 144.79 127.27 143.38 127.86 C 142.83 124.18 146.40 121.98 148.18 118.87 C 147.78 117.23 147.36 115.59 146.94 113.95 Z" fill="#69aab2" />
<path d="M 162.76 113.67 C 164.16 114.52 166.67 114.88 166.48 117.00 C 166.26 117.88 166.02 118.76 165.74 119.63 C 164.88 119.82 164.02 120.02 163.16 120.23 C 162.17 118.01 162.45 115.99 162.76 113.67 Z" fill="#61c1c8" />
<path d="M 45.84 118.95 C 45.66 120.98 45.63 122.98 45.73 125.02 C 42.69 123.02 40.14 120.85 36.26 122.34 C 32.99 124.12 29.51 124.86 25.88 123.76 C 27.60 123.65 29.19 123.69 30.69 122.70 C 32.20 120.69 33.29 118.72 35.76 117.73 C 39.28 116.63 42.70 117.01 45.84 118.95 Z" fill="#535465" />
<path d="M 157.29 117.43 C 158.11 116.83 158.90 116.79 159.68 117.28 C 160.79 119.49 155.75 120.03 157.29 117.43 Z" fill="#68a396" />
<path d="M 180.98 116.95 C 180.73 117.53 180.48 118.10 180.24 118.68 C 182.10 119.32 183.92 118.66 184.43 121.02 C 183.81 121.49 183.19 121.95 182.57 122.42 L 182.71 123.07 C 182.03 123.74 181.35 124.40 180.67 125.07 L 180.83 123.96 L 181.07 122.16 C 179.48 122.66 177.90 123.17 176.31 123.70 C 176.78 122.05 177.25 120.39 177.71 118.74 C 178.80 118.13 179.90 117.56 180.98 116.95 Z" fill="#71737f" />
<path d="M 128.02 117.45 L 129.60 119.06 C 131.22 120.82 131.25 123.83 131.77 126.11 C 132.61 128.27 129.42 129.95 127.96 130.95 C 125.23 132.67 122.62 130.92 120.09 129.78 C 122.27 126.64 125.35 124.56 127.80 121.71 C 126.32 120.96 125.07 121.05 124.69 119.17 C 125.18 117.89 126.29 117.32 128.02 117.45 Z" fill="#60b5be" />
<path d="M 35.22 119.12 C 36.19 118.64 37.02 118.62 37.72 119.05 C 38.27 120.37 35.16 121.55 34.25 120.91 C 33.98 120.26 34.30 119.67 35.22 119.12 Z" fill="#9c9daa" />
<path d="M 177.71 118.74 C 177.25 120.39 176.78 122.05 176.31 123.70 C 177.90 123.17 179.48 122.66 181.07 122.16 L 180.83 123.96 C 180.23 124.71 179.63 125.44 179.01 126.17 L 178.17 126.20 C 176.36 126.26 174.56 126.22 172.76 126.15 C 171.67 122.13 174.99 120.69 177.71 118.74 Z" fill="#4a4e60" />
<path d="M 156.22 120.04 C 157.94 118.53 159.95 120.61 158.26 122.25 C 156.88 123.60 155.45 121.30 156.22 120.04 Z" fill="#699a9b" />
<path d="M 186.14 121.41 C 186.83 122.09 187.37 122.93 187.76 123.90 C 188.46 123.42 189.17 122.93 189.88 122.45 C 190.44 125.85 190.32 129.42 189.52 132.77 C 189.95 137.63 191.56 141.90 190.32 146.86 C 190.03 150.70 187.24 152.13 184.71 154.52 C 184.50 155.35 184.29 156.18 184.08 157.01 C 182.66 156.44 181.25 155.89 179.79 155.45 L 179.67 155.54 C 178.83 156.23 177.92 156.84 176.94 157.35 C 178.89 153.81 180.80 149.96 181.72 146.02 C 181.89 138.69 178.67 132.51 180.67 125.07 C 181.35 124.40 182.03 123.74 182.71 123.07 C 183.77 122.11 184.92 121.56 186.14 121.41 Z" fill="#1f213e" />
<path d="M 180.83 123.96 L 180.67 125.07 C 178.67 132.51 181.89 138.69 181.72 146.02 C 180.80 149.96 178.89 153.81 176.94 157.35 C 175.12 160.06 173.32 162.83 171.83 165.74 C 170.22 168.12 168.65 170.49 167.38 173.07 C 164.14 178.41 160.85 183.70 157.87 189.19 C 154.07 190.13 151.19 194.59 148.18 196.97 C 147.70 197.37 147.23 197.78 146.75 198.18 C 144.40 196.97 143.89 198.03 141.93 199.17 C 141.07 198.95 140.20 198.73 139.34 198.50 C 139.18 199.71 139.01 200.91 138.84 202.12 C 136.33 200.58 135.03 198.01 132.74 196.25 C 131.06 194.96 129.30 193.86 127.86 192.27 C 129.98 191.84 132.00 191.55 133.86 190.38 C 132.14 190.16 130.49 190.10 128.88 189.38 C 130.48 189.55 132.03 189.45 133.51 189.09 C 134.71 188.82 135.91 188.55 137.11 188.25 L 137.78 187.83 C 138.51 188.37 139.23 188.91 139.95 189.46 C 142.77 189.21 145.26 189.53 147.61 187.65 C 153.06 183.38 158.26 178.85 163.18 173.98 C 162.83 172.61 162.68 171.67 163.05 170.29 C 163.28 171.07 163.50 171.86 163.73 172.65 C 168.32 170.12 171.19 164.03 173.09 159.39 C 175.00 157.31 174.56 156.23 174.08 153.68 C 176.47 150.74 178.51 146.81 179.49 143.14 C 175.86 143.87 172.90 145.99 170.41 148.66 C 169.39 149.67 168.36 150.67 167.31 151.65 C 165.46 153.37 163.48 154.92 161.45 156.41 C 157.43 159.29 154.35 163.26 150.57 166.62 C 145.78 170.33 141.91 174.68 136.34 177.34 C 133.16 178.59 130.20 179.73 126.72 178.97 C 126.33 178.40 125.93 177.82 125.53 177.24 C 125.68 175.43 125.53 173.44 126.24 171.78 C 127.61 168.61 127.92 165.18 129.32 162.02 L 129.78 161.74 C 132.46 161.76 134.50 160.41 136.99 159.79 C 144.29 158.62 151.17 155.20 157.48 151.50 C 164.81 147.56 170.67 140.70 174.11 133.17 C 175.29 130.74 179.43 129.06 179.01 126.17 C 179.63 125.44 180.23 124.71 180.83 123.96 Z" fill="#f2f2f2" />
<path d="M 40.01 124.87 C 44.66 125.19 47.07 128.05 50.20 131.00 C 49.84 131.92 49.49 132.85 49.13 133.77 C 49.73 133.20 50.34 132.62 50.94 132.04 C 52.15 134.80 49.58 135.67 48.80 138.02 C 48.80 141.17 50.31 143.41 51.77 146.05 C 50.88 147.79 49.98 149.41 48.57 150.78 C 48.42 152.41 48.44 153.97 48.60 155.60 C 47.73 155.82 46.86 156.05 45.99 156.28 C 45.12 156.01 44.25 155.74 43.38 155.47 C 41.64 154.02 40.14 151.88 38.12 150.88 C 36.23 149.87 35.07 151.86 33.94 153.05 C 32.42 154.53 34.07 157.20 34.53 158.93 C 33.15 158.11 32.12 157.40 31.31 155.97 C 30.12 153.35 30.88 150.92 30.66 147.97 C 32.01 144.83 35.82 145.09 38.38 143.43 C 41.08 141.80 44.18 142.45 47.11 142.86 C 46.75 140.34 43.06 138.96 41.02 138.03 C 37.00 138.43 33.39 138.37 30.22 141.25 C 26.69 143.94 23.67 146.31 24.33 151.27 L 23.26 151.83 C 22.57 149.19 21.92 146.55 21.53 143.84 C 22.66 142.52 23.88 141.26 24.94 139.88 C 25.66 137.39 25.02 134.62 25.73 132.05 C 25.56 134.76 25.73 137.45 26.10 140.14 C 28.53 139.39 26.88 136.82 27.05 135.00 C 26.45 132.13 28.77 131.28 30.48 129.59 C 31.49 128.37 33.83 128.00 31.99 126.27 C 34.67 125.82 37.33 125.24 40.01 124.87 Z" fill="#20233e" />
<path d="M 134.40 126.47 C 136.20 125.78 138.50 127.12 140.21 127.71 C 139.52 128.56 138.84 129.41 138.16 130.27 L 138.41 130.82 C 139.01 132.66 139.47 134.52 139.92 136.41 C 136.14 138.28 132.10 139.70 128.08 140.97 L 128.05 140.31 C 128.44 139.63 128.85 138.96 129.26 138.29 L 130.96 137.79 C 133.11 137.27 132.72 135.04 131.01 134.14 L 130.50 133.73 C 131.25 130.96 132.04 128.31 134.40 126.47 Z" fill="#48715e" />
<path d="M 178.17 126.20 L 179.01 126.17 C 179.43 129.06 175.29 130.74 174.11 133.17 C 170.67 140.70 164.81 147.56 157.48 151.50 C 151.17 155.20 144.29 158.62 136.99 159.79 C 134.50 160.41 132.46 161.76 129.78 161.74 C 132.90 159.70 136.59 158.74 139.86 156.92 C 147.10 152.98 154.28 148.80 161.02 144.05 C 164.81 140.34 168.50 136.70 172.93 133.73 C 172.44 133.31 171.95 132.87 171.48 132.42 C 173.60 130.15 175.49 127.87 178.17 126.20 Z" fill="#6b7b8c" />
<path d="M 31.99 126.27 C 33.83 128.00 31.49 128.37 30.48 129.59 C 28.77 131.28 26.45 132.13 27.05 135.00 C 26.88 136.82 28.53 139.39 26.10 140.14 C 25.73 137.45 25.56 134.76 25.73 132.05 C 27.34 129.80 29.41 127.40 31.99 126.27 Z" fill="#11112a" />
<path d="M 140.21 127.71 C 142.39 128.45 143.59 130.68 142.65 132.87 C 141.00 134.54 139.57 131.82 138.41 130.82 L 138.16 130.27 C 138.84 129.41 139.52 128.56 140.21 127.71 Z" fill="#71b5bd" />
<path d="M 55.48 128.91 C 58.17 128.76 60.55 128.74 62.96 130.10 C 62.65 131.06 62.34 132.01 62.03 132.97 C 59.56 132.45 57.00 130.94 55.48 128.91 Z" fill="#1c1d33" />
<path d="M 131.01 134.14 C 132.72 135.04 133.11 137.27 130.96 137.79 C 129.67 136.61 129.91 135.35 131.01 134.14 Z" fill="#6dadb1" />
<path d="M 127.56 135.94 C 127.33 137.64 127.24 138.72 128.05 140.31 L 128.08 140.97 C 124.78 141.91 121.44 142.70 118.08 143.44 C 117.48 143.16 116.88 142.87 116.27 142.59 C 120.44 141.59 123.81 138.02 127.56 135.94 Z" fill="#6d919f" />
<path d="M 41.02 138.03 C 43.06 138.96 46.75 140.34 47.11 142.86 C 44.18 142.45 41.08 141.80 38.38 143.43 C 35.82 145.09 32.01 144.83 30.66 147.97 C 30.88 150.92 30.12 153.35 31.31 155.97 C 29.26 157.06 27.32 156.47 25.25 155.76 C 24.16 154.74 23.26 153.49 22.34 152.32 L 23.26 151.83 L 24.33 151.27 C 23.67 146.31 26.69 143.94 30.22 141.25 C 33.39 138.37 37.00 138.43 41.02 138.03 Z" fill="#f4f4f6" />
<path d="M 98.32 142.17 C 99.23 141.86 100.11 141.79 100.94 141.98 C 103.11 142.99 101.24 144.19 99.82 144.47 L 98.95 144.16 C 98.58 143.52 98.37 142.85 98.32 142.17 Z" fill="#75b8c1" />
<path d="M 179.49 143.14 C 178.51 146.81 176.47 150.74 174.08 153.68 L 173.09 154.10 L 173.50 151.68 C 172.06 151.69 170.62 151.70 169.18 151.74 C 170.06 150.79 170.48 149.76 170.41 148.66 C 172.90 145.99 175.86 143.87 179.49 143.14 Z" fill="#9fa0aa" />
<path d="M 170.41 148.66 C 170.48 149.76 170.06 150.79 169.18 151.74 C 170.62 151.70 172.06 151.69 173.50 151.68 L 173.09 154.10 C 172.56 154.63 172.04 155.16 171.53 155.70 C 168.72 158.96 166.98 162.90 164.20 166.14 C 158.57 172.25 152.67 178.02 145.96 182.94 C 143.51 185.14 140.45 186.00 137.78 187.83 L 137.11 188.25 C 135.91 188.55 134.71 188.82 133.51 189.09 C 130.81 188.08 128.00 187.99 126.14 185.64 C 124.84 183.46 125.24 180.97 126.72 178.97 C 130.20 179.73 133.16 178.59 136.34 177.34 C 137.76 178.18 139.07 178.17 140.26 177.30 C 143.24 175.66 146.16 172.58 149.86 173.53 C 150.17 171.90 149.74 169.35 151.34 168.39 C 152.78 168.09 154.26 167.97 155.72 167.81 C 155.96 166.37 156.14 164.91 156.51 163.50 C 157.72 162.23 160.00 162.07 161.63 161.60 C 161.78 160.43 161.97 159.27 162.19 158.12 C 163.21 156.24 165.84 155.93 167.70 155.43 C 167.79 154.07 167.99 152.92 167.31 151.65 C 168.36 150.67 169.39 149.67 170.41 148.66 Z" fill="#2d334e" />
<path d="M 167.31 151.65 C 167.99 152.92 167.79 154.07 167.70 155.43 C 165.84 155.93 163.21 156.24 162.19 158.12 C 161.97 159.27 161.78 160.43 161.63 161.60 C 160.00 162.07 157.72 162.23 156.51 163.50 C 156.14 164.91 155.96 166.37 155.72 167.81 C 154.26 167.97 152.78 168.09 151.34 168.39 C 149.74 169.35 150.17 171.90 149.86 173.53 C 146.16 172.58 143.24 175.66 140.26 177.30 C 139.07 178.17 137.76 178.18 136.34 177.34 C 141.91 174.68 145.78 170.33 150.57 166.62 C 154.35 163.26 157.43 159.29 161.45 156.41 C 163.48 154.92 165.46 153.37 167.31 151.65 Z" fill="#222541" />
<path d="M 173.09 154.10 L 174.08 153.68 C 174.56 156.23 175.00 157.31 173.09 159.39 L 171.20 158.87 C 171.30 157.81 171.41 156.76 171.53 155.70 C 172.04 155.16 172.56 154.63 173.09 154.10 Z" fill="#b6bbc2" />
<path d="M 179.67 155.54 L 179.79 155.45 C 181.25 155.89 182.66 156.44 184.08 157.01 C 183.10 158.85 181.77 160.40 181.01 162.37 C 179.21 166.90 176.05 170.78 174.26 175.28 C 176.08 174.57 177.89 174.28 179.70 174.43 C 179.40 177.78 174.32 177.97 172.35 180.18 C 168.82 184.48 166.98 189.88 163.23 194.13 C 162.68 193.09 162.14 192.05 161.60 191.01 C 162.64 189.42 163.66 187.82 164.63 186.19 C 162.41 187.09 161.03 187.79 159.79 189.93 C 159.15 189.68 158.51 189.43 157.87 189.19 C 160.85 183.70 164.14 178.41 167.38 173.07 L 168.73 173.73 C 170.43 171.27 171.98 168.87 171.83 165.74 C 173.32 162.83 175.12 160.06 176.94 157.35 C 177.92 156.84 178.83 156.23 179.67 155.54 Z" fill="#373853" />
<path d="M 171.53 155.70 C 171.41 156.76 171.30 157.81 171.20 158.87 L 173.09 159.39 C 171.19 164.03 168.32 170.12 163.73 172.65 C 163.50 171.86 163.28 171.07 163.05 170.29 C 162.68 171.67 162.83 172.61 163.18 173.98 C 158.26 178.85 153.06 183.38 147.61 187.65 C 145.26 189.53 142.77 189.21 139.95 189.46 C 139.23 188.91 138.51 188.37 137.78 187.83 C 140.45 186.00 143.51 185.14 145.96 182.94 C 152.67 178.02 158.57 172.25 164.20 166.14 C 166.98 162.90 168.72 158.96 171.53 155.70 Z" fill="#7a899a" />
<path d="M 128.75 161.37 L 129.32 162.02 C 127.92 165.18 127.61 168.61 126.24 171.78 C 125.53 173.44 125.68 175.43 125.53 177.24 C 125.93 177.82 126.33 178.40 126.72 178.97 C 125.24 180.97 124.84 183.46 126.14 185.64 C 128.00 187.99 130.81 188.08 133.51 189.09 C 132.03 189.45 130.48 189.55 128.88 189.38 C 127.90 188.97 126.92 188.55 125.94 188.12 C 121.96 184.12 122.85 179.62 122.45 174.49 C 122.50 170.36 123.18 166.65 125.00 162.92 C 126.27 162.46 127.50 161.89 128.75 161.37 Z" fill="#12132f" />
<path d="M 195.98 163.95 C 197.11 163.58 198.15 163.57 199.10 163.93 C 200.64 166.85 201.64 169.75 201.11 173.10 C 200.38 174.72 199.60 176.31 198.80 177.89 C 197.19 180.91 195.21 183.64 193.35 186.51 C 192.67 186.53 191.99 186.40 191.31 186.13 C 193.11 183.98 194.03 181.52 195.11 178.99 C 196.63 175.38 198.19 171.86 198.94 167.99 C 193.19 169.31 187.77 171.48 183.04 175.07 C 181.57 176.18 180.33 176.02 179.74 174.15 C 180.50 174.31 181.26 174.48 182.01 174.68 L 181.90 173.35 L 178.88 173.69 C 179.99 171.17 182.36 170.87 184.64 169.86 L 185.01 171.79 C 185.12 170.80 184.93 170.09 184.56 169.16 C 188.31 166.89 191.75 165.17 195.98 163.95 Z" fill="#21203d" />
<path d="M 171.83 165.74 C 171.98 168.87 170.43 171.27 168.73 173.73 L 167.38 173.07 C 168.65 170.49 170.22 168.12 171.83 165.74 Z" fill="#2b2c43" />
<path d="M 203.19 167.79 C 204.78 169.91 206.03 172.24 207.66 174.34 C 208.96 177.59 208.23 181.47 210.83 184.16 C 212.02 185.35 211.79 186.24 211.67 187.77 C 212.78 189.87 214.49 191.32 216.06 193.05 C 216.34 195.18 216.10 197.45 216.58 199.54 C 217.37 200.77 218.37 201.87 219.31 202.99 C 218.70 203.49 218.10 203.99 217.50 204.49 C 218.88 206.68 220.61 208.22 220.06 211.05 C 219.06 210.84 218.05 210.63 217.04 210.41 C 216.81 210.70 216.57 210.99 216.33 211.28 C 219.38 212.82 218.43 216.82 217.43 219.39 C 215.99 222.18 216.19 225.04 216.00 228.08 C 213.83 228.37 212.36 227.90 210.42 227.00 C 212.99 220.91 211.95 214.52 216.27 209.00 L 214.09 208.51 C 214.47 207.72 214.86 206.92 215.24 206.13 C 213.48 204.37 212.83 202.30 212.13 199.98 C 212.78 199.19 213.40 198.39 213.98 197.54 C 212.64 197.43 211.30 197.25 209.98 197.01 C 207.60 198.34 205.61 200.20 203.11 201.22 L 203.92 198.67 L 202.06 197.65 C 203.34 193.67 203.94 190.11 204.12 185.92 L 203.83 184.09 C 203.18 183.38 202.51 182.68 201.84 181.99 C 201.64 180.94 201.43 179.89 201.21 178.85 C 200.41 178.51 199.61 178.19 198.80 177.89 C 199.60 176.31 200.38 174.72 201.11 173.10 C 201.68 173.35 202.26 173.60 202.83 173.85 C 202.90 171.83 203.01 169.81 203.19 167.79 Z" fill="#f2f2f1" />
<path d="M 198.80 177.89 C 199.61 178.19 200.41 178.51 201.21 178.85 C 201.43 179.89 201.64 180.94 201.84 181.99 C 202.51 182.68 203.18 183.38 203.83 184.09 L 204.12 185.92 C 203.49 185.42 202.86 184.93 202.21 184.46 L 201.17 185.18 C 198.68 185.51 195.80 187.05 193.35 186.51 C 195.21 183.64 197.19 180.91 198.80 177.89 Z" fill="#a0a4af" />
<path d="M 195.11 178.99 C 194.03 181.52 193.11 183.98 191.31 186.13 C 190.18 187.42 189.18 188.74 188.23 190.17 C 184.09 193.06 179.82 195.69 175.86 198.85 C 173.04 201.08 171.44 204.04 168.05 205.59 C 167.44 205.16 166.83 204.73 166.21 204.30 C 168.35 195.20 176.09 189.41 183.22 184.17 C 187.05 181.54 190.14 178.76 195.11 178.99 Z" fill="#6d7e90" />
<path d="M 201.17 185.18 C 200.25 186.78 199.44 188.94 197.92 190.03 C 196.54 189.73 195.31 188.71 194.12 187.99 C 192.16 188.72 190.19 189.43 188.23 190.17 C 189.18 188.74 190.18 187.42 191.31 186.13 C 191.99 186.40 192.67 186.53 193.35 186.51 C 195.80 187.05 198.68 185.51 201.17 185.18 Z" fill="#4e566e" />
<path d="M 201.17 185.18 L 202.21 184.46 C 202.86 184.93 203.49 185.42 204.12 185.92 C 203.94 190.11 203.34 193.67 202.06 197.65 L 203.92 198.67 L 203.11 201.22 C 205.61 200.20 207.60 198.34 209.98 197.01 C 211.30 197.25 212.64 197.43 213.98 197.54 C 213.40 198.39 212.78 199.19 212.13 199.98 C 212.83 202.30 213.48 204.37 215.24 206.13 C 214.86 206.92 214.47 207.72 214.09 208.51 L 216.27 209.00 C 211.95 214.52 212.99 220.91 210.42 227.00 C 210.15 229.79 210.65 232.21 209.14 234.71 C 206.41 231.49 205.17 225.86 206.07 221.73 C 206.41 220.07 205.93 218.60 205.59 217.00 C 201.67 219.66 197.98 222.87 194.22 225.79 C 191.30 224.83 190.52 224.06 188.92 221.51 C 188.20 223.25 187.79 225.19 186.84 226.81 C 184.21 227.32 183.73 221.67 182.79 219.96 C 181.64 216.68 184.17 212.34 185.11 209.14 C 187.11 202.67 190.94 197.75 194.71 192.30 C 192.96 192.94 191.67 194.22 189.86 194.54 C 186.72 194.77 184.37 198.44 182.61 200.75 C 182.04 201.08 181.46 201.42 180.88 201.75 C 178.10 205.20 175.79 208.63 171.88 210.90 C 169.86 212.41 166.74 213.58 167.57 216.65 C 166.89 216.55 166.21 216.45 165.53 216.36 C 165.24 212.41 165.19 208.16 166.21 204.30 C 166.83 204.73 167.44 205.16 168.05 205.59 C 171.44 204.04 173.04 201.08 175.86 198.85 C 179.82 195.69 184.09 193.06 188.23 190.17 C 190.19 189.43 192.16 188.72 194.12 187.99 C 195.31 188.71 196.54 189.73 197.92 190.03 C 199.44 188.94 200.25 186.78 201.17 185.18 Z" fill="#21233f" />
<path d="M 164.63 186.19 C 163.66 187.82 162.64 189.42 161.60 191.01 C 162.14 192.05 162.68 193.09 163.23 194.13 C 161.36 195.82 159.19 198.17 156.67 198.70 C 156.48 196.75 156.23 194.83 155.90 192.90 C 154.19 194.13 152.71 195.58 151.29 197.12 C 150.25 197.06 149.22 197.01 148.18 196.97 C 151.19 194.59 154.07 190.13 157.87 189.19 C 158.51 189.43 159.15 189.68 159.79 189.93 C 161.03 187.79 162.41 187.09 164.63 186.19 Z" fill="#6f6f82" />
<path d="M 148.18 196.97 C 149.22 197.01 150.25 197.06 151.29 197.12 C 149.32 199.18 147.38 201.22 145.88 203.67 C 146.87 204.04 147.86 204.40 148.85 204.75 C 148.01 206.33 147.15 207.37 145.71 208.42 L 143.86 208.41 C 143.38 207.42 142.30 206.19 142.39 205.05 C 143.35 202.56 145.21 200.34 146.75 198.18 C 147.23 197.78 147.70 197.37 148.18 196.97 Z" fill="#45465e" />
<path d="M 167.94 208.73 C 169.17 208.33 170.37 208.23 171.54 208.41 C 171.22 209.37 170.89 210.34 170.57 211.31 C 169.26 212.24 167.99 213.22 166.73 214.21 C 165.87 211.92 166.85 210.58 167.94 208.73 Z" fill="#d5dce3" />
<path d="M 179.49 217.59 L 179.49 217.60 L 179.51 217.94 L 179.54 218.47 C 179.17 221.59 181.06 222.80 182.92 224.81 C 183.57 222.84 183.43 221.92 182.79 219.96 C 183.73 221.67 184.21 227.32 186.84 226.81 C 187.79 225.19 188.20 223.25 188.92 221.51 C 190.52 224.06 191.30 224.83 194.22 225.79 C 192.58 227.30 190.67 227.97 188.57 228.59 C 185.63 228.63 183.72 228.45 181.14 226.96 C 180.46 225.58 179.76 224.22 179.06 222.86 C 179.20 221.10 179.33 219.34 179.49 217.59 Z" fill="#6d7c92" />
<path d="M 205.59 217.00 C 205.93 218.60 206.41 220.07 206.07 221.73 L 204.26 222.56 C 203.44 225.44 204.43 228.94 204.92 231.86 C 200.86 234.46 196.41 233.59 192.16 231.93 C 191.97 231.17 191.77 230.42 191.56 229.67 C 190.51 229.43 189.55 229.04 188.57 228.59 C 190.67 227.97 192.58 227.30 194.22 225.79 C 197.98 222.87 201.67 219.66 205.59 217.00 Z" fill="#f3f3f1" />
</svg>