<?xml version="1.0" encoding="UTF-8" standalone="no"?>
<!DOCTYPE svg PUBLIC "-//W3C//DTD SVG 1.1//EN" "http://www.w3.org/Graphics/SVG/1.1/DTD/svg11.dtd">
<svg xmlns="http://www.w3.org/2000/svg" version="1.1" viewBox="0 0 256 256" width="256.0pt" height="256.0pt">
<path d="M 0.00 0.00 L 256.00 0.00 L 256.00 256.00 L 0.00 256.00 L 0.00 0.00 Z" fill="#fefefd" />
<path d="M 52.03 15.07 C 58.17 14.61 64.59 14.82 70.56 16.46 C 78.35 18.63 86.87 22.45 94.99 22.99 C 102.93 23.40 110.94 21.16 118.96 21.03 C 129.94 20.93 140.60 20.50 151.44 22.63 C 161.23 24.20 171.80 28.44 181.62 26.60 C 191.93 25.01 199.29 18.79 209.45 16.44 C 217.02 14.30 225.78 17.39 233.50 18.50 C 234.58 22.70 236.35 27.21 236.29 31.57 C 235.57 37.64 231.23 42.04 227.29 46.29 C 223.25 50.57 220.91 56.61 222.48 62.46 C 222.95 64.76 225.49 65.68 227.23 66.92 C 227.77 68.40 228.21 69.91 228.74 71.39 C 230.21 71.82 231.71 72.14 233.18 72.56 C 233.97 79.45 238.38 84.17 237.97 90.98 C 237.58 100.82 235.14 109.51 236.49 119.43 C 237.40 133.15 238.33 146.64 240.69 160.29 C 241.99 167.97 242.67 176.03 241.68 183.78 C 240.64 189.32 237.49 195.61 232.30 198.32 C 229.88 199.64 227.01 200.62 224.25 199.84 C 218.50 198.14 214.28 192.03 208.78 190.13 C 206.65 189.44 205.03 191.36 203.81 192.82 C 200.04 197.82 197.75 203.97 193.97 209.00 C 191.44 212.35 187.82 215.05 184.32 217.31 C 177.25 221.90 168.62 223.63 160.70 226.70 C 154.01 229.11 148.02 232.87 141.39 235.41 C 130.51 239.80 118.73 242.59 107.00 243.06 C 94.38 242.67 80.99 239.71 70.33 232.68 C 54.10 222.07 41.87 204.29 39.05 184.96 C 38.11 178.47 37.37 172.27 34.86 166.13 C 32.40 159.99 28.50 155.38 25.37 149.65 C 21.74 142.91 18.81 135.92 17.72 128.28 C 16.12 117.23 14.89 106.15 14.88 94.97 C 13.57 81.68 13.60 68.32 14.85 55.03 C 15.07 46.75 16.02 38.64 20.45 31.43 C 23.99 26.06 29.37 23.63 34.99 21.00 C 40.45 18.57 46.00 15.54 52.03 15.07 Z" fill="#f4f3f1" />
<path d="M 58.83 22.04 L 57.01 22.45 C 56.04 24.57 59.12 24.43 59.44 22.62 C 60.34 23.46 61.24 24.28 62.18 25.08 C 59.63 25.32 56.83 25.27 54.39 26.09 C 52.09 28.34 50.27 33.40 52.89 36.06 C 54.94 38.84 60.12 38.32 62.66 36.50 C 63.91 33.35 62.50 29.69 64.98 27.34 C 67.12 25.61 69.01 23.72 71.99 23.94 C 77.91 23.61 81.64 29.75 84.04 34.30 L 83.84 35.06 C 83.10 35.57 82.37 36.07 81.66 36.62 C 79.52 31.98 77.80 30.26 72.87 28.86 C 73.50 29.56 74.14 30.24 74.81 30.90 C 72.82 32.76 72.12 35.04 71.38 37.58 C 66.29 37.10 62.82 39.99 57.88 40.64 C 56.21 40.83 54.54 41.02 52.88 41.22 C 54.25 42.52 55.62 43.80 57.10 44.98 C 53.87 45.87 50.51 47.16 47.16 47.37 C 45.31 46.62 43.74 45.03 42.14 43.85 C 45.38 42.98 48.88 42.84 52.21 42.36 C 45.27 39.72 37.66 42.68 32.80 47.90 C 35.81 46.76 38.67 45.31 41.63 44.06 C 41.04 48.16 38.62 50.00 35.58 52.43 C 36.47 53.67 37.38 54.89 38.24 56.15 C 36.53 57.09 34.79 57.96 33.01 58.76 L 31.62 58.20 C 30.16 61.52 30.01 64.73 26.23 66.16 C 25.96 62.86 26.14 59.50 26.36 56.20 C 25.55 56.80 24.74 57.41 23.93 58.02 C 24.28 50.62 23.23 43.32 24.13 35.92 C 25.94 35.90 26.88 33.95 25.21 32.88 C 25.77 32.27 26.34 31.66 26.91 31.06 L 26.89 32.12 L 26.84 33.57 C 30.42 32.00 33.40 30.25 37.12 32.78 C 39.05 35.38 40.38 38.45 42.04 41.23 C 43.46 39.98 45.08 38.72 46.17 37.17 C 46.68 35.73 46.63 34.04 46.73 32.52 C 47.62 31.21 48.50 29.91 49.35 28.57 C 48.58 28.64 47.81 28.72 47.03 28.80 C 47.05 26.23 46.32 23.50 48.53 21.61 C 51.98 18.79 55.61 19.05 58.83 22.04 Z" fill="#eee4b1" />
<path d="M 205.75 21.30 C 209.70 21.36 213.07 21.92 216.77 23.31 C 222.33 25.44 227.88 24.20 233.65 25.64 C 233.65 28.18 233.25 30.08 232.28 32.44 C 229.46 32.47 226.64 32.51 223.83 32.73 L 222.21 32.82 C 222.30 31.55 222.38 30.29 222.45 29.03 L 222.53 27.66 C 221.04 27.02 219.47 26.45 217.89 26.09 C 215.35 25.59 212.80 25.15 210.25 24.72 C 210.33 26.46 210.49 28.15 210.35 29.89 L 209.90 31.45 C 208.22 28.19 206.75 24.84 205.75 21.30 Z" fill="#191c37" />
<path d="M 55.51 22.04 C 53.68 24.26 51.53 25.76 48.96 27.00 C 50.88 24.19 52.22 23.11 55.51 22.04 Z" fill="#938c6c" />
<path d="M 57.01 22.45 L 58.83 22.04 L 59.44 22.62 C 59.12 24.43 56.04 24.57 57.01 22.45 Z" fill="#a3a991" />
<path d="M 62.18 25.08 C 63.10 25.85 64.04 26.59 64.98 27.34 C 62.50 29.69 63.91 33.35 62.66 36.50 C 60.12 38.32 54.94 38.84 52.89 36.06 C 50.27 33.40 52.09 28.34 54.39 26.09 C 56.83 25.27 59.63 25.32 62.18 25.08 Z" fill="#dcb778" />
<path d="M 210.25 24.72 C 212.80 25.15 215.35 25.59 217.89 26.09 C 217.44 27.66 217.05 29.25 216.80 30.87 C 216.64 31.92 216.50 32.97 216.36 34.03 C 213.73 33.32 212.18 31.80 210.35 29.89 C 210.49 28.15 210.33 26.46 210.25 24.72 Z" fill="#f8f7f4" />
<path d="M 146.77 25.49 C 148.10 26.40 149.40 27.35 150.59 28.44 C 150.57 30.06 150.50 31.67 150.49 33.29 C 149.19 33.49 147.89 33.66 146.59 33.88 C 151.82 36.27 157.22 38.33 162.56 40.46 C 169.80 43.65 176.29 44.65 184.20 44.15 C 179.85 44.78 175.99 45.08 173.08 48.72 C 172.40 48.33 171.74 47.93 171.09 47.51 C 171.50 46.75 171.92 45.98 172.34 45.22 C 169.56 44.64 166.50 43.61 163.64 43.85 C 161.10 44.26 158.66 45.86 156.40 47.06 C 158.71 48.53 160.78 50.15 162.66 52.15 C 165.14 52.02 167.63 51.85 170.09 51.51 C 167.10 52.99 163.63 54.35 160.23 53.92 C 157.97 53.48 156.43 51.72 155.30 49.82 C 154.79 48.39 155.15 46.61 155.09 45.10 C 154.42 44.65 153.74 44.22 153.05 43.81 C 151.70 46.55 151.84 47.49 153.10 50.21 C 150.98 50.91 148.93 51.82 146.85 52.62 C 144.12 52.07 142.16 51.96 140.51 49.45 C 141.44 50.01 142.37 50.55 143.32 51.08 C 144.19 49.10 145.03 47.11 145.91 45.13 C 142.49 41.07 140.30 35.12 135.87 32.17 C 137.27 31.86 138.66 31.49 140.05 31.12 C 141.95 31.31 143.84 31.61 145.72 31.95 C 145.51 31.32 145.29 30.69 145.08 30.06 C 146.55 30.23 147.17 29.50 146.93 27.89 C 146.87 27.09 146.81 26.29 146.77 25.49 Z" fill="#d6ddb2" />
<path d="M 217.89 26.09 C 219.47 26.45 221.04 27.02 222.53 27.66 L 222.45 29.03 C 220.56 29.64 218.68 30.25 216.80 30.87 C 217.05 29.25 217.44 27.66 217.89 26.09 Z" fill="#babcc0" />
<path d="M 201.28 27.08 L 202.00 26.68 L 202.72 27.08 L 202.72 27.91 L 202.00 28.31 L 201.28 27.90 L 201.28 27.08 Z" fill="#9d9da5" />
<path d="M 32.09 27.70 C 30.48 29.33 28.71 30.74 26.89 32.12 L 26.91 31.06 C 28.33 29.22 29.93 28.43 32.09 27.70 Z" fill="#92938b" />
<path d="M 49.35 28.57 C 48.50 29.91 47.62 31.21 46.73 32.52 C 45.42 31.44 44.12 30.35 42.84 29.23 C 44.24 29.08 45.63 28.95 47.03 28.80 C 47.81 28.72 48.58 28.64 49.35 28.57 Z" fill="#79796f" />
<path d="M 146.93 27.89 C 147.17 29.50 146.55 30.23 145.08 30.06 C 144.52 28.39 145.13 27.66 146.93 27.89 Z" fill="#555663" />
<path d="M 198.93 28.46 C 202.85 29.15 205.66 31.99 209.83 32.00 C 209.71 35.76 208.21 36.42 204.96 37.60 C 204.20 37.71 203.43 37.83 202.67 37.95 C 200.60 38.10 199.11 38.72 197.33 39.73 L 196.36 39.99 C 196.22 36.84 196.72 35.62 198.70 33.25 C 196.10 34.49 193.40 35.42 190.61 36.15 C 192.24 37.61 193.38 39.19 194.32 41.17 C 191.01 42.23 187.65 43.67 184.20 44.15 C 176.29 44.65 169.80 43.65 162.56 40.46 C 157.22 38.33 151.82 36.27 146.59 33.88 C 147.89 33.66 149.19 33.49 150.49 33.29 C 150.50 31.67 150.57 30.06 150.59 28.44 C 151.53 29.33 152.48 30.21 153.42 31.09 C 155.39 31.13 156.99 31.15 158.58 32.49 C 161.73 34.90 165.17 34.95 168.85 36.03 C 169.99 38.09 171.30 40.04 172.63 41.97 C 172.88 40.38 173.06 38.78 173.30 37.18 C 174.76 37.01 176.22 36.84 177.68 36.66 C 177.87 35.80 178.05 34.93 178.22 34.06 C 179.25 34.64 180.22 35.46 181.33 35.85 C 183.78 35.77 186.25 35.13 188.63 34.56 C 191.01 34.07 191.90 31.95 193.53 30.37 C 195.14 29.48 197.12 28.81 198.93 28.46 Z" fill="#20223d" />
<path d="M 72.87 28.86 C 77.80 30.26 79.52 31.98 81.66 36.62 L 81.24 37.16 C 79.23 34.89 77.13 32.85 74.81 30.90 C 74.14 30.24 73.50 29.56 72.87 28.86 Z" fill="#9b8859" />
<path d="M 131.46 29.08 C 131.12 30.94 132.72 31.05 133.89 32.02 C 135.30 33.07 136.66 34.20 138.04 35.30 C 135.85 36.41 133.84 37.72 131.82 39.12 C 133.39 39.54 136.03 39.43 137.21 40.64 C 137.40 42.08 137.34 43.58 137.34 45.03 C 136.29 43.66 135.20 41.91 133.67 41.06 C 131.44 40.44 129.61 41.60 128.30 43.33 C 126.05 46.26 126.13 50.51 125.95 54.03 C 126.03 59.10 125.19 64.02 124.63 69.03 C 124.48 71.06 124.72 74.26 127.09 74.91 C 128.72 75.01 130.20 74.73 131.82 74.58 C 133.04 75.74 134.32 77.40 135.94 77.98 C 138.29 78.61 140.84 78.67 143.26 78.91 C 146.02 81.18 148.20 82.14 151.69 82.76 C 151.94 83.93 152.19 85.09 152.43 86.26 C 151.77 86.95 151.11 87.63 150.44 88.32 C 147.26 86.54 145.13 85.32 144.01 81.66 C 137.81 80.35 131.68 78.80 125.50 77.44 C 121.61 76.58 118.35 77.72 114.60 78.50 C 115.01 76.95 116.38 75.14 114.39 74.09 C 109.72 72.17 106.92 74.10 103.45 77.09 C 102.27 73.03 101.52 69.19 101.97 64.94 C 102.45 60.38 99.40 57.33 99.21 52.73 C 99.46 51.64 99.75 50.55 100.03 49.46 C 100.78 50.27 101.51 51.07 102.25 51.87 C 102.65 50.55 103.06 49.23 103.47 47.91 C 100.57 47.94 97.80 47.74 94.94 47.33 C 95.69 46.19 96.45 45.05 97.22 43.92 C 98.47 43.80 99.71 43.65 100.95 43.49 C 102.58 43.25 104.21 43.00 105.83 42.68 C 107.96 42.28 110.11 41.81 112.26 41.50 C 114.94 41.46 117.62 41.71 120.32 41.65 L 120.52 40.16 C 120.90 38.14 120.71 35.58 121.70 33.77 C 124.58 32.54 127.64 31.78 130.50 30.47 C 129.40 30.35 128.31 30.17 127.23 29.92 C 128.63 29.60 130.05 29.33 131.46 29.08 Z" fill="#d0d9a8" />
<path d="M 131.46 29.08 C 134.36 29.58 137.13 30.65 140.05 31.12 C 138.66 31.49 137.27 31.86 135.87 32.17 L 133.89 32.02 C 132.72 31.05 131.12 30.94 131.46 29.08 Z" fill="#49504b" />
<path d="M 222.45 29.03 C 222.38 30.29 222.30 31.55 222.21 32.82 L 223.83 32.73 C 226.70 32.74 229.57 32.83 232.44 33.03 C 228.37 37.60 224.99 38.53 219.10 36.73 C 218.37 34.76 217.60 32.81 216.80 30.87 C 218.68 30.25 220.56 29.64 222.45 29.03 Z" fill="#a894a6" />
<path d="M 70.20 30.03 C 73.54 29.69 69.53 33.59 68.18 32.52 C 67.54 31.40 69.32 30.31 70.20 30.03 Z" fill="#595a43" />
<path d="M 117.26 30.40 C 119.90 30.18 122.40 30.42 125.02 30.44 C 123.05 31.29 120.68 32.30 119.25 33.96 C 118.20 35.52 117.51 37.34 116.72 39.04 C 117.98 39.42 119.25 39.80 120.52 40.16 L 120.32 41.65 C 117.62 41.71 114.94 41.46 112.26 41.50 C 112.56 40.07 112.87 38.65 113.16 37.22 C 110.83 39.22 108.52 41.18 105.83 42.68 C 104.21 43.00 102.58 43.25 100.95 43.49 C 97.56 41.91 95.06 40.86 94.00 36.93 C 95.65 35.70 97.50 34.09 99.52 33.58 C 102.47 32.91 105.73 33.17 108.71 32.73 C 111.51 32.22 114.34 30.68 117.26 30.40 Z" fill="#ebe1aa" />
<path d="M 127.23 29.92 C 128.31 30.17 129.40 30.35 130.50 30.47 C 127.64 31.78 124.58 32.54 121.70 33.77 C 120.71 35.58 120.90 38.14 120.52 40.16 C 119.25 39.80 117.98 39.42 116.72 39.04 C 117.51 37.34 118.20 35.52 119.25 33.96 C 120.68 32.30 123.05 31.29 125.02 30.44 C 125.76 30.25 126.49 30.08 127.23 29.92 Z" fill="#5d604f" />
<path d="M 196.32 30.17 C 197.27 30.04 197.70 30.25 197.63 30.81 C 197.12 32.00 194.60 32.70 193.55 31.97 C 193.05 30.87 195.63 30.35 196.32 30.17 Z" fill="#b8bbbf" />
<path d="M 210.35 29.89 C 212.18 31.80 213.73 33.32 216.36 34.03 C 216.50 32.97 216.64 31.92 216.80 30.87 C 217.60 32.81 218.37 34.76 219.10 36.73 C 218.00 38.34 216.93 39.98 215.85 41.60 C 214.59 41.32 213.35 40.95 212.08 40.66 C 210.02 42.24 207.94 44.13 205.56 45.20 C 202.78 45.47 199.85 43.84 197.04 43.82 C 195.45 43.96 193.88 44.58 192.36 45.03 C 193.84 43.60 195.28 42.13 196.73 40.67 C 199.50 42.16 202.36 43.45 205.23 44.73 C 205.65 43.77 206.07 42.82 206.51 41.88 C 206.25 40.40 205.56 38.97 204.96 37.60 C 208.21 36.42 209.71 35.76 209.83 32.00 L 209.90 31.45 L 210.35 29.89 Z" fill="#e3d7b2" />
<path d="M 65.19 31.58 C 66.56 30.81 68.03 32.63 66.97 33.81 C 65.61 34.60 64.18 32.73 65.19 31.58 Z" fill="#6a6b55" />
<path d="M 74.81 30.90 C 77.13 32.85 79.23 34.89 81.24 37.16 C 80.31 38.36 79.43 39.52 78.30 40.54 C 75.58 42.25 73.43 38.92 71.38 37.58 C 72.12 35.04 72.82 32.76 74.81 30.90 Z" fill="#dcbf81" />
<path d="M 88.62 32.08 C 90.39 31.93 92.15 31.76 93.93 31.69 C 93.98 33.43 93.95 35.18 94.00 36.93 C 95.06 40.86 97.56 41.91 100.95 43.49 C 99.71 43.65 98.47 43.80 97.22 43.92 C 96.32 42.82 95.41 41.71 94.49 40.61 C 93.21 37.21 91.20 34.58 88.62 32.08 Z" fill="#606156" />
<path d="M 133.89 32.02 L 135.87 32.17 C 140.30 35.12 142.49 41.07 145.91 45.13 C 145.03 47.11 144.19 49.10 143.32 51.08 C 142.37 50.55 141.44 50.01 140.51 49.45 C 139.32 48.04 138.37 46.54 137.34 45.03 C 137.34 43.58 137.40 42.08 137.21 40.64 C 136.03 39.43 133.39 39.54 131.82 39.12 C 133.84 37.72 135.85 36.41 138.04 35.30 C 136.66 34.20 135.30 33.07 133.89 32.02 Z" fill="#ebeeda" />
<path d="M 25.21 32.88 C 26.88 33.95 25.94 35.90 24.13 35.92 C 24.09 34.61 24.45 33.60 25.21 32.88 Z" fill="#9a997b" />
<path d="M 144.16 33.04 L 144.87 32.60 L 145.62 32.97 L 145.65 33.79 L 144.95 34.23 L 144.20 33.86 L 144.16 33.04 Z" fill="#444a40" />
<path d="M 153.34 33.51 C 154.35 32.68 156.71 33.76 156.95 34.98 C 156.70 36.82 152.14 35.19 153.34 33.51 Z" fill="#989ca2" />
<path d="M 84.04 34.30 C 86.11 32.88 87.68 34.42 85.89 36.31 C 85.17 36.00 84.49 35.59 83.84 35.06 L 84.04 34.30 Z" fill="#3b3c4c" />
<path d="M 178.22 34.06 C 178.05 34.93 177.87 35.80 177.68 36.66 C 176.22 36.84 174.76 37.01 173.30 37.18 C 173.06 38.78 172.88 40.38 172.63 41.97 C 171.30 40.04 169.99 38.09 168.85 36.03 C 172.19 36.20 175.15 35.23 178.22 34.06 Z" fill="#a3a4ad" />
<path d="M 29.04 35.18 C 31.26 35.62 34.31 36.47 35.62 38.47 C 36.92 42.19 32.94 44.39 30.07 45.49 C 25.25 44.14 26.84 38.16 29.04 35.18 Z" fill="#dcb779" />
<path d="M 83.84 35.06 C 84.49 35.59 85.17 36.00 85.89 36.31 C 88.79 37.69 91.67 39.09 94.49 40.61 C 95.41 41.71 96.32 42.82 97.22 43.92 C 96.45 45.05 95.69 46.19 94.94 47.33 C 97.80 47.74 100.57 47.94 103.47 47.91 C 103.06 49.23 102.65 50.55 102.25 51.87 C 101.51 51.07 100.78 50.27 100.03 49.46 C 99.75 50.55 99.46 51.64 99.21 52.73 C 96.98 52.57 94.78 52.53 92.58 53.05 C 92.65 50.21 92.81 45.36 90.16 43.54 C 86.17 41.96 81.34 42.01 77.12 42.13 C 75.01 42.05 74.23 43.96 72.98 45.33 C 70.17 43.53 68.59 41.55 65.12 43.43 C 62.84 42.01 60.62 40.87 57.88 40.64 C 62.82 39.99 66.29 37.10 71.38 37.58 C 73.43 38.92 75.58 42.25 78.30 40.54 C 79.43 39.52 80.31 38.36 81.24 37.16 L 81.66 36.62 C 82.37 36.07 83.10 35.57 83.84 35.06 Z" fill="#b9d2a6" />
<path d="M 113.16 37.22 C 112.87 38.65 112.56 40.07 112.26 41.50 C 110.11 41.81 107.96 42.28 105.83 42.68 C 108.52 41.18 110.83 39.22 113.16 37.22 Z" fill="#a4a37e" />
<path d="M 202.67 37.95 C 200.93 38.70 199.19 39.34 197.33 39.73 C 199.11 38.72 200.60 38.10 202.67 37.95 Z" fill="#17232e" />
<path d="M 202.67 37.95 C 203.43 37.83 204.20 37.71 204.96 37.60 C 205.56 38.97 206.25 40.40 206.51 41.88 C 206.07 42.82 205.65 43.77 205.23 44.73 C 202.36 43.45 199.50 42.16 196.73 40.67 L 196.36 39.99 L 197.33 39.73 C 199.19 39.34 200.93 38.70 202.67 37.95 Z" fill="#8bb9a6" />
<path d="M 52.21 42.36 C 48.88 42.84 45.38 42.98 42.14 43.85 L 41.63 44.06 C 38.67 45.31 35.81 46.76 32.80 47.90 C 37.66 42.68 45.27 39.72 52.21 42.36 Z" fill="#a89d72" />
<path d="M 52.88 41.22 C 54.54 41.02 56.21 40.83 57.88 40.64 C 60.62 40.87 62.84 42.01 65.12 43.43 C 65.46 44.87 65.79 46.30 66.15 47.73 C 62.77 47.84 60.01 46.49 57.10 44.98 C 55.62 43.80 54.25 42.52 52.88 41.22 Z" fill="#84886d" />
<path d="M 133.67 41.06 C 135.20 41.91 136.29 43.66 137.34 45.03 C 138.37 46.54 139.32 48.04 140.51 49.45 C 142.16 51.96 144.12 52.07 146.85 52.62 C 147.56 52.81 148.27 53.02 148.98 53.24 C 148.22 54.43 147.47 55.62 146.70 56.81 C 144.48 55.95 142.21 55.29 139.96 54.51 C 140.54 55.36 141.13 56.20 141.72 57.04 C 140.87 57.01 140.03 57.01 139.18 57.02 C 138.39 53.87 138.97 50.65 135.05 49.69 C 130.97 48.02 128.69 51.74 125.95 54.03 C 126.13 50.51 126.05 46.26 128.30 43.33 C 129.61 41.60 131.44 40.44 133.67 41.06 Z" fill="#b5c187" />
<path d="M 72.98 45.33 C 74.23 43.96 75.01 42.05 77.12 42.13 C 81.34 42.01 86.17 41.96 90.16 43.54 C 92.81 45.36 92.65 50.21 92.58 53.05 C 91.53 53.89 90.53 54.73 89.61 55.70 C 88.64 53.85 87.91 51.17 86.22 49.86 C 83.74 49.04 81.05 48.78 78.50 48.22 C 74.39 47.15 70.33 47.36 66.15 47.73 C 65.79 46.30 65.46 44.87 65.12 43.43 C 68.59 41.55 70.17 43.53 72.98 45.33 Z" fill="#90c6a4" />
<path d="M 172.34 45.22 C 171.92 45.98 171.50 46.75 171.09 47.51 C 171.74 47.93 172.40 48.33 173.08 48.72 L 173.96 49.27 C 172.68 50.02 171.41 50.85 170.09 51.51 C 167.63 51.85 165.14 52.02 162.66 52.15 C 160.78 50.15 158.71 48.53 156.40 47.06 C 158.66 45.86 161.10 44.26 163.64 43.85 C 166.50 43.61 169.56 44.64 172.34 45.22 Z" fill="#b7c28a" />
<path d="M 41.63 44.06 L 42.14 43.85 C 43.74 45.03 45.31 46.62 47.16 47.37 C 50.51 47.16 53.87 45.87 57.10 44.98 C 60.01 46.49 62.77 47.84 66.15 47.73 C 70.33 47.36 74.39 47.15 78.50 48.22 C 77.62 48.70 76.75 49.18 75.87 49.66 C 78.28 50.21 81.93 50.37 83.70 52.29 C 84.46 53.83 85.99 55.83 83.82 56.89 C 79.43 56.99 75.43 57.10 71.52 59.33 C 69.29 60.79 66.86 61.51 64.24 61.91 C 64.07 62.59 63.97 63.29 63.80 63.98 C 60.60 66.00 59.26 70.42 58.03 73.82 C 56.21 79.13 56.74 84.49 55.73 89.91 C 55.22 90.17 54.70 90.43 54.19 90.70 C 54.10 89.15 54.05 87.61 53.97 86.06 C 53.39 86.93 52.82 87.79 52.24 88.65 C 51.85 86.08 51.49 83.51 51.02 80.95 C 49.97 82.01 48.93 83.10 47.90 84.18 C 48.08 79.70 47.75 75.23 47.86 70.75 C 48.79 65.14 49.16 59.52 48.08 53.90 C 45.79 59.58 44.18 65.41 41.33 70.89 C 40.87 69.33 40.40 67.77 39.99 66.20 C 39.68 62.84 39.64 59.25 38.24 56.15 C 37.38 54.89 36.47 53.67 35.58 52.43 C 38.62 50.00 41.04 48.16 41.63 44.06 Z" fill="#f2f2f0" />
<path d="M 153.05 43.81 C 153.74 44.22 154.42 44.65 155.09 45.10 C 155.15 46.61 154.79 48.39 155.30 49.82 C 156.43 51.72 157.97 53.48 160.23 53.92 C 163.63 54.35 167.10 52.99 170.09 51.51 C 171.41 50.85 172.68 50.02 173.96 49.27 C 176.14 48.92 178.30 48.66 180.52 48.78 C 178.98 49.26 177.44 49.72 175.93 50.25 C 173.08 51.81 170.76 54.09 167.75 55.43 C 165.01 55.51 161.74 56.02 159.11 55.11 C 156.82 54.08 154.88 51.95 153.10 50.21 C 151.84 47.49 151.70 46.55 153.05 43.81 Z" fill="#55584e" />
<path d="M 67.20 48.59 C 68.23 47.99 72.11 49.06 71.55 50.62 C 70.71 51.35 66.58 49.88 67.20 48.59 Z" fill="#8f9095" />
<path d="M 78.50 48.22 C 81.05 48.78 83.74 49.04 86.22 49.86 C 87.91 51.17 88.64 53.85 89.61 55.70 C 88.17 57.58 86.74 59.46 85.13 61.20 L 83.55 61.12 C 80.18 60.71 77.37 61.58 75.07 64.09 C 72.51 67.24 70.24 70.70 69.36 74.71 C 67.84 80.43 63.77 83.88 63.33 89.95 C 62.93 95.08 60.60 98.73 61.87 103.82 C 65.08 111.08 70.31 117.02 73.45 124.33 C 74.73 126.99 76.22 129.53 77.72 132.08 C 77.20 132.40 76.62 132.64 76.12 133.00 C 76.93 136.03 77.46 139.13 77.96 142.22 C 78.98 139.28 78.42 136.45 78.31 133.41 C 81.11 136.06 82.15 138.85 82.94 142.54 C 81.58 142.99 80.22 143.43 78.86 143.88 C 80.72 144.38 82.58 144.86 84.43 145.38 C 83.03 148.41 80.82 148.92 77.91 149.87 C 75.05 144.51 73.90 138.75 72.05 133.04 C 71.14 130.40 69.84 127.92 68.56 125.44 C 65.89 119.57 61.51 115.73 57.77 110.50 C 51.78 102.21 45.83 94.01 40.99 84.97 C 40.11 83.28 40.07 81.23 39.82 79.35 C 39.23 79.79 38.63 80.23 38.04 80.67 C 37.81 84.21 37.29 87.72 36.96 91.24 C 36.11 90.48 35.25 89.73 34.39 88.99 C 35.77 94.88 32.85 100.00 33.46 106.01 C 32.71 104.47 31.87 103.00 31.08 101.47 C 29.74 98.58 28.64 95.57 27.56 92.57 L 27.81 90.68 C 29.20 91.78 30.58 92.89 31.99 93.96 C 32.11 88.58 34.47 83.52 35.25 78.17 C 36.25 74.43 34.75 71.54 33.97 67.93 C 33.14 64.91 33.08 61.86 33.01 58.76 C 34.79 57.96 36.53 57.09 38.24 56.15 C 39.64 59.25 39.68 62.84 39.99 66.20 C 40.16 68.62 40.07 71.18 40.58 73.56 C 41.12 75.65 42.54 77.62 43.64 79.45 C 45.33 82.16 46.21 84.49 46.53 87.67 C 46.91 87.60 47.29 87.52 47.67 87.44 C 50.54 91.74 53.97 95.64 56.93 99.88 C 55.55 96.42 54.72 93.63 55.73 89.91 C 56.74 84.49 56.21 79.13 58.03 73.82 C 59.26 70.42 60.60 66.00 63.80 63.98 C 63.97 63.29 64.07 62.59 64.24 61.91 C 66.86 61.51 69.29 60.79 71.52 59.33 C 75.43 57.10 79.43 56.99 83.82 56.89 C 85.99 55.83 84.46 53.83 83.70 52.29 C 81.93 50.37 78.28 50.21 75.87 49.66 C 76.75 49.18 77.62 48.70 78.50 48.22 Z" fill="#1f213c" />
<path d="M 135.05 49.69 C 138.97 50.65 138.39 53.87 139.18 57.02 C 138.44 57.53 137.70 58.05 136.97 58.58 C 138.50 58.88 140.05 59.09 141.58 59.38 C 142.15 60.75 142.73 62.12 143.29 63.50 C 142.28 63.85 141.27 64.19 140.27 64.56 C 138.96 63.92 137.76 63.06 136.54 62.28 C 137.14 64.20 137.75 66.12 138.36 68.04 C 141.77 68.04 145.10 67.81 148.37 66.75 L 148.86 65.45 C 149.73 63.36 150.43 60.68 152.03 59.03 C 154.42 58.22 157.68 59.54 160.12 59.93 C 161.12 63.48 162.02 67.05 162.97 70.60 C 159.03 69.77 155.26 67.50 151.22 69.17 C 146.69 71.00 143.45 73.82 138.17 73.14 C 136.25 72.29 135.07 69.49 134.28 67.65 C 133.01 64.79 133.88 62.34 134.24 59.41 C 132.85 60.54 130.77 61.53 130.43 63.42 C 129.76 66.14 130.33 69.33 130.73 72.08 C 131.53 71.20 132.32 70.32 133.11 69.43 C 134.19 71.21 135.33 72.94 136.57 74.61 C 134.98 74.53 133.40 74.47 131.82 74.58 C 130.20 74.73 128.72 75.01 127.09 74.91 C 124.72 74.26 124.48 71.06 124.63 69.03 C 125.19 64.02 126.03 59.10 125.95 54.03 C 128.69 51.74 130.97 48.02 135.05 49.69 Z" fill="#8fc5a4" />
<path d="M 180.52 48.78 C 181.34 48.80 182.17 48.83 182.99 48.88 C 184.92 50.08 186.31 51.48 187.64 53.29 C 188.20 53.11 188.77 52.92 189.34 52.74 C 191.62 52.04 193.97 51.76 196.35 51.61 C 193.73 54.66 190.74 57.30 187.78 60.00 C 187.78 57.80 187.97 56.14 186.09 54.59 C 186.05 56.55 186.12 58.49 186.32 60.43 C 185.51 60.30 184.69 60.18 183.86 60.06 C 184.13 59.32 184.40 58.58 184.66 57.84 C 182.43 56.64 180.01 55.55 178.03 53.97 C 177.19 52.83 176.59 51.49 175.93 50.25 C 177.44 49.72 178.98 49.26 180.52 48.78 Z" fill="#f4f1db" />
<path d="M 182.99 48.88 C 184.58 48.97 186.16 49.03 187.74 49.11 C 188.28 50.32 188.81 51.53 189.34 52.74 C 188.77 52.92 188.20 53.11 187.64 53.29 C 186.31 51.48 184.92 50.08 182.99 48.88 Z" fill="#6b6d73" />
<path d="M 29.43 50.30 C 32.49 49.45 30.19 54.54 28.26 53.37 C 27.50 52.36 28.49 50.82 29.43 50.30 Z" fill="#b6a87e" />
<path d="M 153.10 50.21 C 154.88 51.95 156.82 54.08 159.11 55.11 C 161.74 56.02 165.01 55.51 167.75 55.43 L 168.52 55.48 C 165.30 56.27 162.67 57.87 160.12 59.93 C 157.68 59.54 154.42 58.22 152.03 59.03 C 150.43 60.68 149.73 63.36 148.86 65.45 C 146.20 62.81 143.92 60.06 141.72 57.04 C 141.13 56.20 140.54 55.36 139.96 54.51 C 142.21 55.29 144.48 55.95 146.70 56.81 C 147.47 55.62 148.22 54.43 148.98 53.24 C 148.27 53.02 147.56 52.81 146.85 52.62 C 148.93 51.82 150.98 50.91 153.10 50.21 Z" fill="#b9d2a6" />
<path d="M 175.93 50.25 C 176.59 51.49 177.19 52.83 178.03 53.97 C 180.01 55.55 182.43 56.64 184.66 57.84 C 184.40 58.58 184.13 59.32 183.86 60.06 C 180.54 59.62 177.49 58.84 174.38 57.59 C 172.50 56.82 170.51 55.90 168.52 55.48 L 167.75 55.43 C 170.76 54.09 173.08 51.81 175.93 50.25 Z" fill="#e0e1b9" />
<path d="M 203.45 53.64 C 197.68 54.45 193.65 57.00 189.90 61.35 C 195.24 58.94 199.48 55.22 205.39 53.96 L 207.23 53.99 L 206.34 55.26 C 205.65 58.09 206.22 60.84 205.90 63.68 C 205.34 65.19 204.15 66.11 202.79 66.89 C 201.86 67.03 200.93 67.15 200.00 67.27 C 200.05 66.10 200.10 64.93 200.15 63.76 C 198.19 64.00 196.18 64.19 194.22 64.07 C 191.70 63.71 189.39 61.71 187.13 60.59 L 187.78 60.00 C 190.74 57.30 193.73 54.66 196.35 51.61 C 199.44 51.15 200.94 51.99 203.45 53.64 Z" fill="#dbc189" />
<path d="M 99.21 52.73 C 99.40 57.33 102.45 60.38 101.97 64.94 C 101.52 69.19 102.27 73.03 103.45 77.09 C 106.92 74.10 109.72 72.17 114.39 74.09 C 116.38 75.14 115.01 76.95 114.60 78.50 C 112.40 78.93 110.47 79.28 108.85 80.97 C 107.88 81.96 106.99 82.99 106.12 84.06 C 105.92 82.34 105.70 80.43 104.97 78.84 C 103.89 77.42 101.37 77.27 99.71 76.94 C 99.54 76.16 99.37 75.38 99.20 74.59 C 97.81 74.33 96.40 74.07 95.01 73.77 L 94.94 72.02 C 98.53 71.25 98.65 68.86 99.85 65.94 C 97.77 66.63 95.71 67.36 93.65 68.11 C 93.31 67.72 92.96 67.32 92.62 66.93 C 93.31 65.89 93.98 64.84 94.66 63.79 C 94.48 63.45 94.29 63.11 94.10 62.77 C 93.16 62.89 92.22 63.01 91.29 63.13 C 90.67 61.87 90.16 60.55 89.53 59.29 C 87.95 61.12 86.48 63.10 84.99 64.99 C 85.03 63.73 85.08 62.46 85.13 61.20 C 86.74 59.46 88.17 57.58 89.61 55.70 C 90.53 54.73 91.53 53.89 92.58 53.05 C 94.78 52.53 96.98 52.57 99.21 52.73 Z" fill="#93b184" />
<path d="M 34.31 54.19 C 36.09 52.95 37.25 55.72 35.17 56.18 C 34.03 55.88 33.75 55.22 34.31 54.19 Z" fill="#9b9b9a" />
<path d="M 48.08 53.90 C 49.16 59.52 48.79 65.14 47.86 70.75 C 46.58 73.70 45.10 76.58 43.64 79.45 C 42.54 77.62 41.12 75.65 40.58 73.56 C 40.07 71.18 40.16 68.62 39.99 66.20 C 40.40 67.77 40.87 69.33 41.33 70.89 C 44.18 65.41 45.79 59.58 48.08 53.90 Z" fill="#6fbca4" />
<path d="M 203.45 53.64 L 205.39 53.96 C 199.48 55.22 195.24 58.94 189.90 61.35 C 193.65 57.00 197.68 54.45 203.45 53.64 Z" fill="#706346" />
<path d="M 207.23 53.99 C 210.99 53.88 213.48 55.81 212.88 59.79 C 211.47 64.17 207.30 67.90 203.55 70.38 C 204.59 66.39 208.12 65.48 210.24 62.25 C 211.12 60.63 211.66 58.81 212.29 57.08 C 210.32 56.44 208.33 55.85 206.34 55.26 L 207.23 53.99 Z" fill="#717365" />
<path d="M 186.09 54.59 C 187.97 56.14 187.78 57.80 187.78 60.00 L 187.13 60.59 L 186.32 60.43 C 186.12 58.49 186.05 56.55 186.09 54.59 Z" fill="#86846a" />
<path d="M 26.36 56.20 C 26.14 59.50 25.96 62.86 26.23 66.16 C 26.48 68.02 26.77 69.86 26.98 71.72 C 25.92 71.83 24.85 71.93 23.79 72.02 C 23.35 67.31 23.14 62.71 23.93 58.02 C 24.74 57.41 25.55 56.80 26.36 56.20 Z" fill="#03061c" />
<path d="M 168.52 55.48 C 170.51 55.90 172.50 56.82 174.38 57.59 C 173.81 62.95 173.66 67.76 170.07 72.16 C 167.82 70.63 165.57 70.70 162.97 70.60 C 162.02 67.05 161.12 63.48 160.12 59.93 C 162.67 57.87 165.30 56.27 168.52 55.48 Z" fill="#bac58f" />
<path d="M 139.18 57.02 C 140.03 57.01 140.87 57.01 141.72 57.04 C 143.92 60.06 146.20 62.81 148.86 65.45 L 148.37 66.75 C 145.10 67.81 141.77 68.04 138.36 68.04 C 137.75 66.12 137.14 64.20 136.54 62.28 C 137.76 63.06 138.96 63.92 140.27 64.56 C 141.27 64.19 142.28 63.85 143.29 63.50 C 142.73 62.12 142.15 60.75 141.58 59.38 C 140.05 59.09 138.50 58.88 136.97 58.58 C 137.70 58.05 138.44 57.53 139.18 57.02 Z" fill="#4d6330" />
<path d="M 174.38 57.59 C 177.49 58.84 180.54 59.62 183.86 60.06 C 184.69 60.18 185.51 60.30 186.32 60.43 L 187.13 60.59 C 189.39 61.71 191.70 63.71 194.22 64.07 C 196.18 64.19 198.19 64.00 200.15 63.76 C 200.10 64.93 200.05 66.10 200.00 67.27 C 200.93 67.15 201.86 67.03 202.79 66.89 C 202.06 67.30 201.33 67.72 200.60 68.12 C 198.59 68.22 196.59 68.42 194.58 68.57 C 196.24 70.70 197.98 72.75 199.77 74.77 C 198.60 74.56 197.42 74.33 196.25 74.12 C 196.96 75.04 197.67 75.95 198.38 76.87 C 197.82 77.54 197.25 78.20 196.69 78.87 C 197.32 79.69 197.96 80.50 198.59 81.32 C 198.43 81.66 198.27 82.00 198.11 82.35 C 197.10 82.10 196.09 81.84 195.08 81.59 C 195.20 82.64 195.30 83.70 195.41 84.75 C 194.18 84.25 192.94 83.74 191.70 83.24 C 189.17 86.83 192.27 90.16 191.34 94.06 C 190.85 95.15 189.16 95.77 188.23 96.42 C 187.69 96.71 187.14 96.99 186.59 97.28 C 185.93 96.89 185.27 96.50 184.61 96.12 C 183.71 92.95 182.64 89.77 181.13 86.83 C 180.23 84.71 178.30 83.88 176.45 82.72 C 178.15 81.78 180.17 81.98 179.11 79.43 C 176.04 77.06 173.22 74.41 170.07 72.16 C 173.66 67.76 173.81 62.95 174.38 57.59 Z" fill="#d6d7a6" />
<path d="M 89.53 59.29 C 90.16 60.55 90.67 61.87 91.29 63.13 C 92.22 63.01 93.16 62.89 94.10 62.77 C 94.29 63.11 94.48 63.45 94.66 63.79 C 93.98 64.84 93.31 65.89 92.62 66.93 C 92.96 67.32 93.31 67.72 93.65 68.11 C 93.35 69.40 93.03 70.68 92.74 71.97 C 88.43 72.62 85.42 76.24 82.28 78.96 C 81.18 75.37 79.77 71.88 78.80 68.26 C 78.37 66.89 79.02 65.51 79.30 64.12 C 80.42 64.60 81.53 65.09 82.65 65.58 C 82.86 64.07 83.13 62.58 83.55 61.12 L 85.13 61.20 C 85.08 62.46 85.03 63.73 84.99 64.99 C 86.48 63.10 87.95 61.12 89.53 59.29 Z" fill="#7a9d7f" />
<path d="M 76.48 59.18 C 75.49 61.25 74.49 63.17 72.59 64.54 C 68.27 67.79 64.22 71.25 61.01 75.64 C 62.13 73.07 63.02 70.01 64.81 67.86 C 68.15 63.99 71.29 60.42 76.48 59.18 Z" fill="#b4b9bb" />
<path d="M 134.24 59.41 C 133.88 62.34 133.01 64.79 134.28 67.65 C 135.07 69.49 136.25 72.29 138.17 73.14 C 143.45 73.82 146.69 71.00 151.22 69.17 C 155.26 67.50 159.03 69.77 162.97 70.60 C 165.57 70.70 167.82 70.63 170.07 72.16 C 173.22 74.41 176.04 77.06 179.11 79.43 C 178.39 79.97 177.67 80.52 176.95 81.07 C 173.41 77.51 170.13 73.95 165.55 71.68 C 165.86 72.81 166.21 73.92 166.54 75.05 C 157.91 72.97 150.70 74.08 143.26 78.91 C 140.84 78.67 138.29 78.61 135.94 77.98 C 134.32 77.40 133.04 75.74 131.82 74.58 C 133.40 74.47 134.98 74.53 136.57 74.61 C 135.33 72.94 134.19 71.21 133.11 69.43 C 132.32 70.32 131.53 71.20 130.73 72.08 C 130.33 69.33 129.76 66.14 130.43 63.42 C 130.77 61.53 132.85 60.54 134.24 59.41 Z" fill="#44592a" />
<path d="M 83.55 61.12 C 83.13 62.58 82.86 64.07 82.65 65.58 C 81.53 65.09 80.42 64.60 79.30 64.12 C 79.02 65.51 78.37 66.89 78.80 68.26 C 79.77 71.88 81.18 75.37 82.28 78.96 C 85.42 76.24 88.43 72.62 92.74 71.97 L 94.94 72.02 L 95.01 73.77 C 94.31 77.06 93.47 80.32 92.83 83.62 C 94.03 83.27 95.23 82.91 96.44 82.58 C 94.99 84.83 93.35 86.64 91.29 88.36 C 91.39 83.48 91.87 78.73 91.06 73.88 C 87.75 76.48 84.74 79.39 81.70 82.29 C 79.79 78.33 78.45 74.30 76.14 70.55 C 73.48 73.12 71.77 75.79 70.46 79.24 C 68.66 84.03 66.59 88.63 63.96 93.03 C 63.74 92.00 63.52 90.98 63.33 89.95 C 63.77 83.88 67.84 80.43 69.36 74.71 C 70.24 70.70 72.51 67.24 75.07 64.09 C 77.37 61.58 80.18 60.71 83.55 61.12 Z" fill="#8eb09c" />
<path d="M 99.85 65.94 C 98.65 68.86 98.53 71.25 94.94 72.02 L 92.74 71.97 C 93.03 70.68 93.35 69.40 93.65 68.11 C 95.71 67.36 97.77 66.63 99.85 65.94 Z" fill="#cbd5a4" />
<path d="M 200.60 68.12 C 200.70 69.65 200.50 71.30 201.32 72.64 C 204.09 77.77 208.63 80.82 213.72 83.38 C 211.80 85.45 209.70 87.70 208.53 90.30 C 208.62 92.09 209.22 93.90 209.67 95.63 C 207.13 96.15 204.61 96.50 202.03 96.70 C 202.59 98.05 203.16 99.40 203.72 100.75 L 203.21 102.48 C 199.16 102.16 195.51 100.50 191.51 99.91 C 190.16 98.90 189.18 97.80 188.23 96.42 C 189.16 95.77 190.85 95.15 191.34 94.06 C 192.27 90.16 189.17 86.83 191.70 83.24 C 192.94 83.74 194.18 84.25 195.41 84.75 C 195.30 83.70 195.20 82.64 195.08 81.59 C 196.09 81.84 197.10 82.10 198.11 82.35 C 198.27 82.00 198.43 81.66 198.59 81.32 C 197.96 80.50 197.32 79.69 196.69 78.87 C 197.25 78.20 197.82 77.54 198.38 76.87 C 197.67 75.95 196.96 75.04 196.25 74.12 C 197.42 74.33 198.60 74.56 199.77 74.77 C 197.98 72.75 196.24 70.70 194.58 68.57 C 196.59 68.42 198.59 68.22 200.60 68.12 Z" fill="#e6e3b9" />
<path d="M 222.95 68.79 C 217.44 69.19 212.95 70.10 207.72 71.85 C 209.50 70.47 211.21 68.94 213.44 68.36 C 216.71 67.47 219.73 68.05 222.95 68.79 Z" fill="#919391" />
<path d="M 47.86 70.75 C 47.75 75.23 48.08 79.70 47.90 84.18 C 47.83 85.27 47.76 86.36 47.67 87.44 C 47.29 87.52 46.91 87.60 46.53 87.67 C 46.21 84.49 45.33 82.16 43.64 79.45 C 45.10 76.58 46.58 73.70 47.86 70.75 Z" fill="#b2dfd1" />
<path d="M 76.14 70.55 C 78.45 74.30 79.79 78.33 81.70 82.29 C 84.74 79.39 87.75 76.48 91.06 73.88 C 91.87 78.73 91.39 83.48 91.29 88.36 C 93.35 86.64 94.99 84.83 96.44 82.58 C 95.23 82.91 94.03 83.27 92.83 83.62 C 93.47 80.32 94.31 77.06 95.01 73.77 C 96.40 74.07 97.81 74.33 99.20 74.59 C 99.37 75.38 99.54 76.16 99.71 76.94 C 101.37 77.27 103.89 77.42 104.97 78.84 C 105.70 80.43 105.92 82.34 106.12 84.06 C 104.25 90.17 107.96 95.28 110.83 100.37 L 110.22 102.05 C 109.08 104.71 109.47 106.93 110.06 109.68 C 111.13 109.60 112.21 109.52 113.28 109.44 C 112.04 110.90 110.75 112.30 109.35 113.61 C 108.90 113.23 108.45 112.86 107.99 112.49 C 103.83 113.79 102.37 116.37 100.39 119.99 C 99.92 119.28 99.45 118.58 98.96 117.89 C 96.97 121.12 95.03 124.31 92.37 127.04 C 89.57 129.85 89.53 133.36 88.48 136.99 C 87.75 135.41 87.24 132.75 85.66 131.83 C 83.19 130.99 80.19 131.35 77.72 132.08 C 76.22 129.53 74.73 126.99 73.45 124.33 C 73.86 121.71 74.16 119.45 72.86 117.00 C 70.60 112.50 70.64 107.72 69.16 102.97 C 73.25 100.76 78.68 99.84 80.37 94.97 C 76.82 96.17 73.96 98.29 71.14 100.69 C 70.57 99.56 70.00 98.43 69.43 97.30 C 68.50 100.23 67.65 103.18 67.09 106.20 C 66.79 106.39 66.49 106.58 66.20 106.77 C 64.75 105.78 63.31 104.80 61.87 103.82 C 60.60 98.73 62.93 95.08 63.33 89.95 C 63.52 90.98 63.74 92.00 63.96 93.03 C 66.59 88.63 68.66 84.03 70.46 79.24 C 71.77 75.79 73.48 73.12 76.14 70.55 Z" fill="#789a81" />
<path d="M 165.55 71.68 C 170.13 73.95 173.41 77.51 176.95 81.07 C 177.67 80.52 178.39 79.97 179.11 79.43 C 180.17 81.98 178.15 81.78 176.45 82.72 C 178.30 83.88 180.23 84.71 181.13 86.83 L 181.33 87.70 C 180.32 88.48 179.31 89.28 178.31 90.08 C 177.38 87.06 175.66 84.74 173.34 82.66 C 171.21 80.74 168.59 78.23 165.69 77.64 C 163.95 77.21 162.49 77.99 160.84 78.48 C 163.58 81.11 166.35 83.34 168.72 86.24 C 166.74 86.02 164.77 85.82 162.80 85.53 C 159.39 85.05 156.12 84.08 152.81 83.19 C 153.20 84.26 153.62 85.32 154.05 86.38 C 153.51 86.34 152.97 86.30 152.43 86.26 C 152.19 85.09 151.94 83.93 151.69 82.76 C 148.20 82.14 146.02 81.18 143.26 78.91 C 150.70 74.08 157.91 72.97 166.54 75.05 C 166.21 73.92 165.86 72.81 165.55 71.68 Z" fill="#98c298" />
<path d="M 228.91 72.25 C 229.67 75.32 231.08 78.11 228.97 81.00 C 226.77 85.49 220.42 85.23 216.50 83.43 C 219.94 82.76 224.21 83.08 227.32 81.41 C 228.09 78.42 228.32 75.29 228.91 72.25 Z" fill="#929292" />
<path d="M 168.37 75.13 C 169.87 74.15 171.03 76.46 169.17 76.84 C 168.17 76.56 167.90 75.99 168.37 75.13 Z" fill="#536744" />
<path d="M 125.50 77.44 C 131.68 78.80 137.81 80.35 144.01 81.66 C 145.13 85.32 147.26 86.54 150.44 88.32 C 151.11 87.63 151.77 86.95 152.43 86.26 C 152.97 86.30 153.51 86.34 154.05 86.38 C 156.54 86.60 158.75 86.39 160.76 88.17 C 164.77 92.07 168.52 96.95 166.24 102.83 C 163.82 105.49 160.42 107.03 158.17 109.97 C 158.92 105.53 161.28 101.41 162.59 97.01 C 162.04 96.70 161.49 96.41 160.93 96.13 C 156.25 100.47 150.53 105.78 148.77 112.08 C 147.89 114.77 147.55 117.78 147.10 120.58 C 146.95 121.57 146.80 122.56 146.64 123.54 C 143.24 124.23 139.98 124.28 137.29 126.72 C 139.27 126.84 141.25 127.01 143.23 127.04 C 141.71 128.34 140.22 129.67 138.75 131.03 C 137.62 131.82 136.48 132.62 135.34 133.39 C 134.00 134.25 132.67 135.11 131.38 136.04 C 130.45 136.75 129.54 137.49 128.62 138.22 C 127.83 136.98 126.17 136.42 126.35 134.82 C 126.57 130.74 129.02 126.54 130.99 123.04 C 131.68 124.00 132.37 124.98 133.08 125.94 C 133.12 125.35 133.16 124.75 133.20 124.16 C 134.42 121.74 135.78 119.46 137.30 117.22 C 138.04 116.66 138.78 116.11 139.51 115.53 C 146.37 110.08 151.59 102.77 154.60 94.55 C 155.38 92.59 155.15 90.72 155.15 88.66 C 151.49 90.20 148.01 92.05 144.21 93.27 C 144.58 94.38 144.95 95.50 145.32 96.61 C 147.69 95.78 150.03 94.88 152.39 94.04 C 151.47 97.01 150.16 99.73 148.71 102.47 C 148.47 100.50 148.80 98.57 148.36 96.62 C 142.96 99.45 137.33 101.66 131.55 103.62 C 129.41 104.38 127.21 104.51 124.96 104.65 C 129.10 102.35 133.32 100.01 137.72 98.23 C 139.95 97.14 142.26 97.94 144.50 96.96 L 144.31 94.63 C 139.37 93.80 133.64 97.00 129.37 99.24 C 124.80 101.31 120.26 103.18 116.26 106.26 C 114.04 105.09 112.12 103.68 110.22 102.05 L 110.83 100.37 C 112.49 93.41 110.27 87.69 108.85 80.97 C 110.47 79.28 112.40 78.93 114.60 78.50 C 118.35 77.72 121.61 76.58 125.50 77.44 Z" fill="#f3f2f1" />
<path d="M 165.69 77.64 C 168.59 78.23 171.21 80.74 173.34 82.66 C 175.66 84.74 177.38 87.06 178.31 90.08 C 178.50 96.36 180.32 102.19 181.34 108.32 C 177.43 100.76 173.67 93.21 168.72 86.24 C 166.35 83.34 163.58 81.11 160.84 78.48 C 162.49 77.99 163.95 77.21 165.69 77.64 Z" fill="#85c2a5" />
<path d="M 39.82 79.35 C 40.07 81.23 40.11 83.28 40.99 84.97 C 45.83 94.01 51.78 102.21 57.77 110.50 C 58.81 113.78 60.33 116.65 62.25 119.49 C 61.34 120.38 60.45 121.28 59.55 122.18 C 59.97 123.08 60.38 123.97 60.83 124.86 C 59.01 124.16 57.01 123.34 55.04 123.29 C 49.64 124.34 45.29 127.39 42.47 132.15 C 41.96 129.20 40.89 127.31 38.95 125.09 C 40.07 122.43 42.12 119.98 39.50 117.46 C 36.70 115.30 33.05 114.26 30.03 112.37 C 30.18 108.57 29.57 105.10 31.08 101.47 C 31.87 103.00 32.71 104.47 33.46 106.01 C 33.68 107.44 33.92 108.88 34.18 110.31 C 36.47 104.14 37.01 97.77 36.96 91.24 C 37.29 87.72 37.81 84.21 38.04 80.67 C 38.63 80.23 39.23 79.79 39.82 79.35 Z" fill="#73bda5" />
<path d="M 27.69 80.48 C 28.00 82.94 28.94 86.07 28.19 88.49 C 25.32 93.54 26.33 100.60 26.75 106.22 C 27.00 108.39 27.14 110.55 27.05 112.74 L 26.29 111.13 C 23.70 105.78 24.42 98.74 24.14 92.90 C 24.99 88.44 25.08 84.33 27.69 80.48 Z" fill="#28303f" />
<path d="M 51.02 80.95 C 51.49 83.51 51.85 86.08 52.24 88.65 C 52.82 87.79 53.39 86.93 53.97 86.06 C 54.05 87.61 54.10 89.15 54.19 90.70 C 54.70 90.43 55.22 90.17 55.73 89.91 C 54.72 93.63 55.55 96.42 56.93 99.88 C 53.97 95.64 50.54 91.74 47.67 87.44 C 47.76 86.36 47.83 85.27 47.90 84.18 C 48.93 83.10 49.97 82.01 51.02 80.95 Z" fill="#dbece3" />
<path d="M 108.85 80.97 C 110.27 87.69 112.49 93.41 110.83 100.37 C 107.96 95.28 104.25 90.17 106.12 84.06 C 106.99 82.99 107.88 81.96 108.85 80.97 Z" fill="#a7bda9" />
<path d="M 152.81 83.19 C 156.12 84.08 159.39 85.05 162.80 85.53 C 163.37 86.27 163.94 87.02 164.51 87.76 C 166.47 92.94 170.21 95.94 169.03 101.88 C 168.35 107.37 161.30 106.26 160.66 111.05 C 160.58 114.36 162.42 117.58 162.75 120.91 C 161.20 119.47 160.26 118.04 159.42 116.10 C 158.93 114.07 158.50 112.03 158.17 109.97 C 160.42 107.03 163.82 105.49 166.24 102.83 C 168.52 96.95 164.77 92.07 160.76 88.17 C 158.75 86.39 156.54 86.60 154.05 86.38 C 153.62 85.32 153.20 84.26 152.81 83.19 Z" fill="#313339" />
<path d="M 213.72 83.38 C 216.60 84.62 219.57 85.66 222.44 86.94 L 223.14 87.39 C 220.53 87.67 218.68 87.79 216.46 89.24 C 219.71 89.47 222.97 89.32 226.22 89.48 C 226.96 89.69 227.70 89.89 228.43 90.10 L 227.61 90.30 C 226.15 91.67 224.87 93.21 223.73 94.85 C 222.79 96.07 221.78 97.61 220.42 98.38 C 218.72 98.93 216.88 99.12 215.12 99.38 C 213.35 98.06 211.52 96.83 209.67 95.63 C 209.22 93.90 208.62 92.09 208.53 90.30 C 209.70 87.70 211.80 85.45 213.72 83.38 Z" fill="#e3c993" />
<path d="M 168.72 86.24 C 173.67 93.21 177.43 100.76 181.34 108.32 C 181.59 108.80 181.85 109.27 182.13 109.73 C 180.47 111.62 177.70 113.68 177.54 116.35 C 177.13 119.06 176.92 121.79 176.43 124.49 C 173.88 121.93 170.68 119.35 170.28 115.50 C 169.73 110.44 173.94 105.36 173.59 100.12 C 173.46 97.49 173.00 94.58 171.64 92.28 C 170.09 89.93 166.96 88.90 164.51 87.76 C 163.94 87.02 163.37 86.27 162.80 85.53 C 164.77 85.82 166.74 86.02 168.72 86.24 Z" fill="#d0d4b0" />
<path d="M 182.60 85.18 C 183.95 84.24 185.74 86.50 184.74 87.70 C 183.36 88.65 181.70 86.38 182.60 85.18 Z" fill="#717959" />
<path d="M 232.30 85.82 C 231.28 87.32 230.25 88.82 229.20 90.32 L 228.43 90.10 C 227.70 89.89 226.96 89.69 226.22 89.48 C 225.20 88.78 224.17 88.09 223.14 87.39 L 222.44 86.94 C 225.70 85.95 228.91 85.71 232.30 85.82 Z" fill="#f3f1d3" />
<path d="M 181.13 86.83 C 182.64 89.77 183.71 92.95 184.61 96.12 C 185.68 101.50 185.97 107.05 186.66 112.50 C 187.70 112.82 188.73 113.14 189.76 113.46 C 189.23 114.36 188.69 115.25 188.15 116.15 C 187.68 115.42 187.21 114.70 186.71 113.99 C 186.78 120.35 183.66 125.81 183.41 132.09 C 183.08 136.94 184.26 142.04 186.92 146.14 C 187.87 147.70 190.02 148.46 191.57 149.33 C 189.80 146.54 187.11 143.66 186.77 140.30 C 186.36 136.94 186.16 133.40 186.09 130.02 C 185.99 127.19 187.96 124.81 189.32 122.48 C 190.54 127.84 190.21 133.22 190.78 138.62 C 191.38 142.01 192.26 144.84 194.70 147.36 C 194.48 147.90 194.27 148.44 194.06 148.98 C 193.73 149.92 193.09 151.31 194.30 151.90 C 195.24 152.06 196.18 151.72 197.12 150.89 C 197.66 151.31 198.21 151.73 198.77 152.14 C 199.39 152.74 200.00 153.35 200.60 153.97 C 199.33 154.99 198.08 156.05 196.84 157.11 C 190.51 155.11 183.92 152.45 180.96 146.03 C 177.85 139.36 175.01 131.97 176.43 124.49 C 176.92 121.79 177.13 119.06 177.54 116.35 C 177.70 113.68 180.47 111.62 182.13 109.73 C 182.66 110.44 183.19 111.15 183.74 111.85 C 184.51 103.50 183.36 95.78 181.33 87.70 L 181.13 86.83 Z" fill="#566a38" />
<path d="M 181.33 87.70 C 183.36 95.78 184.51 103.50 183.74 111.85 C 183.19 111.15 182.66 110.44 182.13 109.73 C 181.85 109.27 181.59 108.80 181.34 108.32 C 180.32 102.19 178.50 96.36 178.31 90.08 C 179.31 89.28 180.32 88.48 181.33 87.70 Z" fill="#b3d6b9" />
<path d="M 223.14 87.39 C 224.17 88.09 225.20 88.78 226.22 89.48 C 222.97 89.32 219.71 89.47 216.46 89.24 C 218.68 87.79 220.53 87.67 223.14 87.39 Z" fill="#7f7659" />
<path d="M 34.39 88.99 C 35.25 89.73 36.11 90.48 36.96 91.24 C 37.01 97.77 36.47 104.14 34.18 110.31 C 33.92 108.88 33.68 107.44 33.46 106.01 C 32.85 100.00 35.77 94.88 34.39 88.99 Z" fill="#dce6e3" />
<path d="M 155.15 88.66 C 155.15 90.72 155.38 92.59 154.60 94.55 C 151.59 102.77 146.37 110.08 139.51 115.53 C 139.91 114.27 140.05 113.08 141.11 112.18 C 143.39 110.03 145.56 107.83 147.52 105.37 L 148.27 103.98 C 148.42 103.48 148.56 102.97 148.71 102.47 C 150.16 99.73 151.47 97.01 152.39 94.04 C 150.03 94.88 147.69 95.78 145.32 96.61 C 144.95 95.50 144.58 94.38 144.21 93.27 C 148.01 92.05 151.49 90.20 155.15 88.66 Z" fill="#1e203b" />
<path d="M 185.13 89.67 C 186.50 89.04 187.82 92.70 186.92 93.54 C 185.30 94.23 184.21 90.67 185.13 89.67 Z" fill="#363d2f" />
<path d="M 228.43 90.10 L 229.20 90.32 C 230.57 91.70 232.27 93.34 232.82 95.24 C 232.98 96.82 232.93 98.44 232.91 100.03 C 231.38 96.62 229.89 93.30 227.61 90.30 L 228.43 90.10 Z" fill="#797981" />
<path d="M 24.14 92.90 C 24.42 98.74 23.70 105.78 26.29 111.13 C 25.43 111.70 24.57 112.27 23.71 112.83 C 22.22 106.43 23.01 99.31 24.14 92.90 Z" fill="#b9d1c7" />
<path d="M 27.56 92.57 C 28.64 95.57 29.74 98.58 31.08 101.47 C 29.57 105.10 30.18 108.57 30.03 112.37 C 29.97 112.88 29.89 113.40 29.81 113.91 C 31.73 115.19 33.43 116.56 35.09 118.16 C 33.66 118.59 32.23 119.03 30.81 119.47 C 28.61 117.28 27.45 115.91 27.05 112.74 C 27.14 110.55 27.00 108.39 26.75 106.22 C 26.31 101.56 26.69 97.15 27.56 92.57 Z" fill="#90c8b4" />
<path d="M 80.37 94.97 C 78.68 99.84 73.25 100.76 69.16 102.97 C 70.64 107.72 70.60 112.50 72.86 117.00 C 74.16 119.45 73.86 121.71 73.45 124.33 C 70.31 117.02 65.08 111.08 61.87 103.82 C 63.31 104.80 64.75 105.78 66.20 106.77 C 66.49 106.58 66.79 106.39 67.09 106.20 C 67.65 103.18 68.50 100.23 69.43 97.30 C 70.00 98.43 70.57 99.56 71.14 100.69 C 73.96 98.29 76.82 96.17 80.37 94.97 Z" fill="#8abfa9" />
<path d="M 144.31 94.63 L 144.50 96.96 C 142.26 97.94 139.95 97.14 137.72 98.23 C 133.32 100.01 129.10 102.35 124.96 104.65 C 119.60 107.97 114.45 111.88 110.03 116.39 C 106.72 119.69 103.54 123.10 100.63 126.77 C 97.60 130.43 95.55 134.56 91.92 137.74 C 92.25 135.64 93.17 133.92 94.31 132.16 C 100.02 126.41 103.32 118.93 109.35 113.61 C 110.75 112.30 112.04 110.90 113.28 109.44 C 114.23 108.34 115.20 107.26 116.26 106.26 C 120.26 103.18 124.80 101.31 129.37 99.24 C 133.64 97.00 139.37 93.80 144.31 94.63 Z" fill="#35354a" />
<path d="M 209.67 95.63 C 211.52 96.83 213.35 98.06 215.12 99.38 C 216.68 101.68 216.59 104.13 217.41 106.67 C 218.09 108.18 219.39 109.44 220.40 110.73 C 215.42 111.29 212.13 108.77 207.70 107.17 C 210.12 110.05 213.34 111.29 216.86 112.28 C 217.92 112.60 218.98 112.91 220.03 113.23 C 220.57 116.39 221.33 118.61 219.50 121.51 C 217.34 118.08 215.08 114.80 212.25 111.88 C 213.21 114.65 213.95 117.36 214.49 120.23 C 211.93 115.89 208.86 111.67 206.94 107.09 C 206.00 104.91 204.87 102.83 203.72 100.75 C 203.16 99.40 202.59 98.05 202.03 96.70 C 204.61 96.50 207.13 96.15 209.67 95.63 Z" fill="#f1efd0" />
<path d="M 223.73 94.85 C 223.17 96.76 222.38 98.93 222.55 100.94 C 223.03 103.23 224.37 105.45 225.44 107.51 C 223.85 108.73 222.16 109.79 220.40 110.73 C 219.39 109.44 218.09 108.18 217.41 106.67 C 216.59 104.13 216.68 101.68 215.12 99.38 C 216.88 99.12 218.72 98.93 220.42 98.38 C 221.78 97.61 222.79 96.07 223.73 94.85 Z" fill="#d1d9a9" />
<path d="M 160.93 96.13 C 161.49 96.41 162.04 96.70 162.59 97.01 C 161.28 101.41 158.92 105.53 158.17 109.97 C 158.50 112.03 158.93 114.07 159.42 116.10 C 160.30 120.06 161.43 123.70 160.37 127.79 C 157.18 123.83 155.96 119.25 153.69 114.80 C 151.61 117.50 150.39 120.50 149.26 123.69 C 148.56 122.64 147.84 121.61 147.10 120.58 C 147.55 117.78 147.89 114.77 148.77 112.08 C 150.53 105.78 156.25 100.47 160.93 96.13 Z" fill="#d2aa65" />
<path d="M 184.61 96.12 C 185.27 96.50 185.93 96.89 186.59 97.28 C 188.88 99.26 191.50 101.61 192.45 104.57 C 195.12 113.44 198.73 122.34 203.97 130.02 C 202.26 130.15 200.54 130.24 198.83 130.38 C 197.64 127.19 196.31 123.52 194.06 120.93 C 192.86 119.28 190.61 120.00 188.86 119.88 C 188.64 118.64 188.41 117.39 188.15 116.15 C 188.69 115.25 189.23 114.36 189.76 113.46 C 188.73 113.14 187.70 112.82 186.66 112.50 C 185.97 107.05 185.68 101.50 184.61 96.12 Z" fill="#b2d5b9" />
<path d="M 188.23 96.42 C 189.18 97.80 190.16 98.90 191.51 99.91 C 194.58 103.12 197.36 106.56 199.52 110.45 C 201.89 114.73 204.84 118.31 206.26 123.08 C 204.38 121.18 202.35 119.39 200.29 117.69 C 201.91 120.62 203.13 125.77 207.19 125.77 C 208.08 125.74 208.96 125.70 209.84 125.65 C 207.77 126.95 205.87 128.47 203.97 130.02 C 198.73 122.34 195.12 113.44 192.45 104.57 C 191.50 101.61 188.88 99.26 186.59 97.28 C 187.14 96.99 187.69 96.71 188.23 96.42 Z" fill="#d6e4c8" />
<path d="M 148.36 96.62 C 148.80 98.57 148.47 100.50 148.71 102.47 C 148.56 102.97 148.42 103.48 148.27 103.98 C 146.62 101.96 145.19 104.71 147.52 105.37 C 145.56 107.83 143.39 110.03 141.11 112.18 C 140.05 113.08 139.91 114.27 139.51 115.53 C 138.78 116.11 138.04 116.66 137.30 117.22 C 136.27 117.82 134.81 118.14 134.04 119.08 C 132.79 120.37 133.31 122.48 133.20 124.16 C 133.16 124.75 133.12 125.35 133.08 125.94 C 132.37 124.98 131.68 124.00 130.99 123.04 C 129.02 126.54 126.57 130.74 126.35 134.82 C 126.17 136.42 127.83 136.98 128.62 138.22 C 129.54 137.49 130.45 136.75 131.38 136.04 C 131.65 137.25 132.25 138.32 132.53 139.53 C 132.28 139.90 132.04 140.27 131.80 140.64 C 131.25 141.48 130.71 142.32 130.17 143.16 L 129.36 141.92 C 128.40 140.65 127.46 139.38 126.52 138.10 C 126.47 139.16 126.42 140.21 126.37 141.27 C 124.93 140.79 123.50 140.30 122.05 139.83 C 121.50 135.19 122.13 131.62 123.75 127.33 C 122.24 128.25 120.72 129.17 119.21 130.10 C 120.03 128.21 120.82 126.31 121.58 124.40 C 119.22 125.02 116.95 125.83 114.70 126.75 C 112.54 127.70 110.34 127.00 108.10 126.73 C 108.50 123.23 109.04 119.77 110.03 116.39 C 114.45 111.88 119.60 107.97 124.96 104.65 C 127.21 104.51 129.41 104.38 131.55 103.62 C 137.33 101.66 142.96 99.45 148.36 96.62 Z" fill="#76bea6" />
<path d="M 191.51 99.91 C 195.51 100.50 199.16 102.16 203.21 102.48 C 204.13 105.75 205.33 108.92 207.17 111.80 C 211.32 118.40 215.07 125.23 219.34 131.74 C 217.21 129.79 215.28 127.67 213.30 125.57 C 212.15 125.54 210.99 125.57 209.84 125.65 C 208.96 125.70 208.08 125.74 207.19 125.77 C 206.89 124.87 206.58 123.97 206.26 123.08 C 204.84 118.31 201.89 114.73 199.52 110.45 C 197.36 106.56 194.58 103.12 191.51 99.91 Z" fill="#f7f2d8" />
<path d="M 203.72 100.75 C 204.87 102.83 206.00 104.91 206.94 107.09 C 208.86 111.67 211.93 115.89 214.49 120.23 C 218.25 126.69 223.53 131.31 225.62 138.82 C 226.04 137.86 226.45 136.89 226.88 135.93 C 226.43 134.71 225.89 133.53 225.42 132.32 C 226.00 132.60 226.58 132.89 227.15 133.19 C 227.99 134.71 229.02 136.31 229.49 137.98 C 229.03 139.96 227.94 141.66 226.78 143.31 C 224.47 145.90 223.72 148.84 222.94 152.14 C 222.52 151.48 222.11 150.81 221.71 150.13 C 220.70 148.40 219.73 146.64 218.69 144.92 C 219.98 143.29 221.34 141.71 222.59 140.05 C 222.62 138.20 223.23 135.67 221.68 134.32 C 220.93 133.42 220.14 132.59 219.34 131.74 C 215.07 125.23 211.32 118.40 207.17 111.80 C 205.33 108.92 204.13 105.75 203.21 102.48 L 203.72 100.75 Z" fill="#333541" />
<path d="M 232.17 101.05 C 230.18 105.59 226.91 109.08 222.75 111.73 C 220.79 111.96 218.84 112.17 216.86 112.28 C 213.34 111.29 210.12 110.05 207.70 107.17 C 212.13 108.77 215.42 111.29 220.40 110.73 C 222.16 109.79 223.85 108.73 225.44 107.51 C 227.87 105.52 229.87 103.18 232.17 101.05 Z" fill="#848679" />
<path d="M 110.22 102.05 C 112.12 103.68 114.04 105.09 116.26 106.26 C 115.20 107.26 114.23 108.34 113.28 109.44 C 112.21 109.52 111.13 109.60 110.06 109.68 C 109.47 106.93 109.08 104.71 110.22 102.05 Z" fill="#9bc9a7" />
<path d="M 148.27 103.98 L 147.52 105.37 C 145.19 104.71 146.62 101.96 148.27 103.98 Z" fill="#e0f4eb" />
<path d="M 188.63 104.94 C 189.55 106.25 190.39 107.57 190.94 109.10 C 191.41 110.98 189.98 111.66 188.91 112.91 C 188.37 110.18 188.26 107.70 188.63 104.94 Z" fill="#5e796a" />
<path d="M 57.77 110.50 C 61.51 115.73 65.89 119.57 68.56 125.44 C 66.26 125.59 63.97 125.74 61.68 125.93 L 60.83 124.86 C 60.38 123.97 59.97 123.08 59.55 122.18 C 60.45 121.28 61.34 120.38 62.25 119.49 C 60.33 116.65 58.81 113.78 57.77 110.50 Z" fill="#9fd2c2" />
<path d="M 227.88 113.13 C 229.47 119.57 228.79 126.80 227.15 133.19 C 226.58 132.89 226.00 132.60 225.42 132.32 C 225.89 133.53 226.43 134.71 226.88 135.93 C 226.45 136.89 226.04 137.86 225.62 138.82 C 223.53 131.31 218.25 126.69 214.49 120.23 C 213.95 117.36 213.21 114.65 212.25 111.88 C 215.08 114.80 217.34 118.08 219.50 121.51 C 221.33 118.61 220.57 116.39 220.03 113.23 C 218.98 112.91 217.92 112.60 216.86 112.28 C 218.84 112.17 220.79 111.96 222.75 111.73 C 224.33 111.76 227.39 110.97 227.88 113.13 Z" fill="#d0d9a8" />
<path d="M 30.03 112.37 C 33.05 114.26 36.70 115.30 39.50 117.46 C 42.12 119.98 40.07 122.43 38.95 125.09 C 37.06 127.09 34.99 129.08 33.30 131.25 C 32.10 132.76 30.89 134.36 29.96 136.05 C 30.96 137.27 32.24 138.03 33.52 138.91 C 32.27 139.42 31.03 139.93 29.79 140.45 C 29.08 138.89 28.44 137.31 27.97 135.67 C 27.43 132.09 27.13 128.49 26.92 124.89 C 28.52 123.91 30.10 122.91 31.57 121.73 C 31.44 121.12 31.29 120.52 31.11 119.92 L 30.81 119.47 C 32.23 119.03 33.66 118.59 35.09 118.16 C 33.43 116.56 31.73 115.19 29.81 113.91 C 29.89 113.40 29.97 112.88 30.03 112.37 Z" fill="#20213a" />
<path d="M 107.99 112.49 C 108.45 112.86 108.90 113.23 109.35 113.61 C 103.32 118.93 100.02 126.41 94.31 132.16 C 94.87 127.15 97.60 123.92 100.39 119.99 C 102.37 116.37 103.83 113.79 107.99 112.49 Z" fill="#87be9e" />
<path d="M 186.71 113.99 C 187.21 114.70 187.68 115.42 188.15 116.15 C 188.41 117.39 188.64 118.64 188.86 119.88 C 189.01 120.75 189.17 121.62 189.32 122.48 C 187.96 124.81 185.99 127.19 186.09 130.02 C 186.16 133.40 186.36 136.94 186.77 140.30 C 187.11 143.66 189.80 146.54 191.57 149.33 C 190.02 148.46 187.87 147.70 186.92 146.14 C 184.26 142.04 183.08 136.94 183.41 132.09 C 183.66 125.81 186.78 120.35 186.71 113.99 Z" fill="#21233c" />
<path d="M 110.03 116.39 C 109.04 119.77 108.50 123.23 108.10 126.73 C 110.34 127.00 112.54 127.70 114.70 126.75 C 116.95 125.83 119.22 125.02 121.58 124.40 C 120.82 126.31 120.03 128.21 119.21 130.10 C 120.72 129.17 122.24 128.25 123.75 127.33 C 122.13 131.62 121.50 135.19 122.05 139.83 C 123.50 140.30 124.93 140.79 126.37 141.27 C 126.42 140.21 126.47 139.16 126.52 138.10 C 127.46 139.38 128.40 140.65 129.36 141.92 C 128.58 142.54 128.04 143.42 127.76 144.56 C 127.47 145.36 127.17 146.16 126.88 146.96 C 126.52 146.21 126.16 145.47 125.80 144.73 C 125.41 143.86 125.03 142.99 124.65 142.11 C 123.23 141.71 121.80 141.34 120.36 141.02 C 117.96 138.24 115.41 135.64 112.76 133.10 C 111.32 133.30 109.85 133.48 108.39 133.45 C 105.37 132.15 103.03 128.95 100.63 126.77 C 103.54 123.10 106.72 119.69 110.03 116.39 Z" fill="#a5cfb5" />
<path d="M 137.30 117.22 C 135.78 119.46 134.42 121.74 133.20 124.16 C 133.31 122.48 132.79 120.37 134.04 119.08 C 134.81 118.14 136.27 117.82 137.30 117.22 Z" fill="#283641" />
<path d="M 98.96 117.89 C 99.45 118.58 99.92 119.28 100.39 119.99 C 97.60 123.92 94.87 127.15 94.31 132.16 C 93.17 133.92 92.25 135.64 91.92 137.74 C 91.82 138.21 91.72 138.68 91.63 139.15 C 93.16 138.89 94.70 138.60 96.23 138.34 C 93.86 142.18 91.47 145.98 89.53 150.07 C 89.34 149.17 89.16 148.26 88.97 147.35 C 88.18 148.13 87.40 148.91 86.59 149.65 C 84.25 151.20 81.68 152.90 78.94 153.58 C 74.69 153.97 72.15 150.23 69.72 147.38 C 68.26 148.04 66.81 148.71 65.34 149.36 C 68.14 143.98 69.31 138.36 67.83 132.40 C 69.31 133.95 70.73 135.56 72.17 137.14 C 72.16 135.77 72.11 134.40 72.05 133.04 C 73.90 138.75 75.05 144.51 77.91 149.87 C 80.82 148.92 83.03 148.41 84.43 145.38 C 85.95 142.68 87.33 139.88 88.48 136.99 C 89.53 133.36 89.57 129.85 92.37 127.04 C 95.03 124.31 96.97 121.12 98.96 117.89 Z" fill="#948051" />
<path d="M 200.29 117.69 C 202.35 119.39 204.38 121.18 206.26 123.08 C 206.58 123.97 206.89 124.87 207.19 125.77 C 203.13 125.77 201.91 120.62 200.29 117.69 Z" fill="#a9c9ab" />
<path d="M 194.06 120.93 C 196.31 123.52 197.64 127.19 198.83 130.38 C 197.71 131.40 196.15 132.74 195.88 134.29 C 195.71 137.20 196.37 140.23 196.80 143.12 C 195.10 142.01 193.48 140.80 191.90 139.53 C 191.53 139.23 191.16 138.92 190.78 138.62 C 190.21 133.22 190.54 127.84 189.32 122.48 C 189.17 121.62 189.01 120.75 188.86 119.88 C 190.61 120.00 192.86 119.28 194.06 120.93 Z" fill="#8cc4a6" />
<path d="M 31.11 119.92 C 31.29 120.52 31.44 121.12 31.57 121.73 C 30.10 122.91 28.52 123.91 26.92 124.89 C 27.13 128.49 27.43 132.09 27.97 135.67 C 27.47 135.70 26.96 135.74 26.46 135.77 C 25.97 136.36 25.48 136.94 24.99 137.52 C 24.85 133.08 25.27 128.70 26.69 124.47 C 27.30 122.51 29.56 121.14 31.11 119.92 Z" fill="#cdc7b7" />
<path d="M 147.10 120.58 C 147.84 121.61 148.56 122.64 149.26 123.69 C 146.42 126.63 143.19 128.94 139.48 130.67 L 138.75 131.03 C 140.22 129.67 141.71 128.34 143.23 127.04 C 141.25 127.01 139.27 126.84 137.29 126.72 C 139.98 124.28 143.24 124.23 146.64 123.54 C 146.80 122.56 146.95 121.57 147.10 120.58 Z" fill="#494a59" />
<path d="M 55.04 123.29 C 57.01 123.34 59.01 124.16 60.83 124.86 L 61.68 125.93 C 63.54 128.28 65.71 130.30 67.83 132.40 C 69.31 138.36 68.14 143.98 65.34 149.36 C 62.67 150.47 59.85 151.92 56.97 152.29 C 53.89 152.26 50.76 151.03 47.79 150.27 C 45.94 145.99 43.32 142.23 41.80 137.84 C 41.90 135.93 42.20 134.05 42.47 132.15 C 45.29 127.39 49.64 124.34 55.04 123.29 Z" fill="#59472e" />
<path d="M 68.56 125.44 C 69.84 127.92 71.14 130.40 72.05 133.04 C 72.11 134.40 72.16 135.77 72.17 137.14 C 70.73 135.56 69.31 133.95 67.83 132.40 C 65.71 130.30 63.54 128.28 61.68 125.93 C 63.97 125.74 66.26 125.59 68.56 125.44 Z" fill="#aaa78c" />
<path d="M 213.30 125.57 C 215.28 127.67 217.21 129.79 219.34 131.74 C 220.14 132.59 220.93 133.42 221.68 134.32 C 223.23 135.67 222.62 138.20 222.59 140.05 C 222.46 139.12 222.31 138.20 222.17 137.27 C 220.75 138.82 219.33 140.91 217.43 141.89 C 215.03 142.73 212.11 142.34 209.60 142.41 C 206.94 138.51 205.73 134.34 203.97 130.02 C 205.87 128.47 207.77 126.95 209.84 125.65 C 210.99 125.57 212.15 125.54 213.30 125.57 Z" fill="#dcb778" />
<path d="M 38.95 125.09 C 40.89 127.31 41.96 129.20 42.47 132.15 C 42.20 134.05 41.90 135.93 41.80 137.84 C 41.59 143.04 42.93 147.66 40.83 152.75 C 39.32 151.14 38.00 149.43 36.66 147.68 L 37.08 146.37 C 38.41 147.62 39.74 148.86 41.11 150.07 C 41.05 148.37 41.05 146.58 40.73 144.90 C 40.09 141.91 38.15 139.24 37.37 136.32 C 37.21 134.84 38.20 133.18 38.62 131.79 C 38.10 131.49 37.57 131.21 37.05 130.94 C 35.56 131.33 34.11 131.87 32.63 132.30 L 33.30 131.25 C 34.99 129.08 37.06 127.09 38.95 125.09 Z" fill="#c5aa5b" />
<path d="M 100.63 126.77 C 103.03 128.95 105.37 132.15 108.39 133.45 C 109.85 133.48 111.32 133.30 112.76 133.10 C 115.41 135.64 117.96 138.24 120.36 141.02 C 119.55 141.40 118.74 141.78 117.93 142.17 C 116.57 141.99 115.20 141.80 113.84 141.59 C 113.09 139.98 112.47 138.06 111.19 136.82 C 106.45 135.97 100.94 137.47 96.23 138.34 C 94.70 138.60 93.16 138.89 91.63 139.15 C 91.72 138.68 91.82 138.21 91.92 137.74 C 95.55 134.56 97.60 130.43 100.63 126.77 Z" fill="#c1dcc7" />
<path d="M 54.48 130.46 C 57.92 129.35 64.38 130.95 64.65 135.29 C 65.04 138.12 64.90 141.72 63.19 144.10 C 59.49 147.62 54.24 146.55 51.19 142.77 C 47.21 139.25 50.54 132.31 54.48 130.46 Z" fill="#fceb78" />
<path d="M 144.18 130.10 C 143.07 134.46 142.25 138.62 139.42 142.27 C 137.91 142.05 136.41 141.83 134.92 141.49 C 133.87 141.23 132.84 140.94 131.80 140.64 C 132.04 140.27 132.28 139.90 132.53 139.53 C 134.00 137.36 135.46 135.19 136.71 132.89 L 135.34 133.39 C 136.48 132.62 137.62 131.82 138.75 131.03 L 139.48 130.67 C 139.51 131.94 139.55 133.22 139.58 134.49 C 141.14 133.05 142.68 131.59 144.18 130.10 Z" fill="#dce6e0" />
<path d="M 198.83 130.38 C 200.54 130.24 202.26 130.15 203.97 130.02 C 205.73 134.34 206.94 138.51 209.60 142.41 C 211.46 144.71 213.66 146.62 215.95 148.48 C 211.45 149.52 207.03 149.93 202.73 151.80 C 201.41 151.93 200.09 152.04 198.77 152.14 C 198.21 151.73 197.66 151.31 197.12 150.89 L 196.23 149.76 C 198.05 150.33 199.89 150.80 201.73 151.25 C 202.36 150.64 202.98 150.04 203.61 149.44 C 204.46 148.71 205.31 147.84 204.19 146.86 C 203.40 146.45 202.61 146.56 201.79 147.18 C 200.32 145.58 198.62 144.28 196.80 143.12 C 196.37 140.23 195.71 137.20 195.88 134.29 C 196.15 132.74 197.71 131.40 198.83 130.38 Z" fill="#898d72" />
<path d="M 33.30 131.25 L 32.63 132.30 C 34.11 131.87 35.56 131.33 37.05 130.94 C 37.57 131.21 38.10 131.49 38.62 131.79 C 38.20 133.18 37.21 134.84 37.37 136.32 C 38.15 139.24 40.09 141.91 40.73 144.90 C 41.05 146.58 41.05 148.37 41.11 150.07 C 39.74 148.86 38.41 147.62 37.08 146.37 L 36.66 147.68 C 36.39 148.44 36.12 149.20 35.84 149.96 C 32.95 147.32 31.45 143.93 29.79 140.45 C 31.03 139.93 32.27 139.42 33.52 138.91 C 32.24 138.03 30.96 137.27 29.96 136.05 C 30.89 134.36 32.10 132.76 33.30 131.25 Z" fill="#e3a120" />
<path d="M 85.66 131.83 C 87.24 132.75 87.75 135.41 88.48 136.99 C 87.33 139.88 85.95 142.68 84.43 145.38 C 82.58 144.86 80.72 144.38 78.86 143.88 C 80.22 143.43 81.58 142.99 82.94 142.54 C 82.15 138.85 81.11 136.06 78.31 133.41 C 78.42 136.45 78.98 139.28 77.96 142.22 C 77.46 139.13 76.93 136.03 76.12 133.00 C 76.62 132.64 77.20 132.40 77.72 132.08 C 80.19 131.35 83.19 130.99 85.66 131.83 Z" fill="#9fb4a1" />
<path d="M 58.15 131.68 C 58.44 134.60 59.54 137.70 59.38 140.61 C 58.46 142.12 57.31 143.50 56.23 144.90 C 55.72 142.95 55.14 141.01 54.80 139.03 C 55.52 136.46 56.96 134.06 58.15 131.68 Z" fill="#141528" />
<path d="M 135.34 133.39 L 136.71 132.89 C 135.46 135.19 134.00 137.36 132.53 139.53 C 132.25 138.32 131.65 137.25 131.38 136.04 C 132.67 135.11 134.00 134.25 135.34 133.39 Z" fill="#7f858c" />
<path d="M 111.19 136.82 C 112.47 138.06 113.09 139.98 113.84 141.59 C 115.20 141.80 116.57 141.99 117.93 142.17 C 116.35 146.38 116.29 150.19 116.67 154.61 C 114.55 156.60 112.40 158.57 110.15 160.43 C 107.43 161.08 104.78 161.60 101.97 161.10 C 98.22 160.46 94.46 160.22 91.76 157.19 C 90.43 155.16 90.16 152.38 89.53 150.07 C 91.47 145.98 93.86 142.18 96.23 138.34 C 100.94 137.47 106.45 135.97 111.19 136.82 Z" fill="#564226" />
<path d="M 222.17 137.27 C 222.31 138.20 222.46 139.12 222.59 140.05 C 221.34 141.71 219.98 143.29 218.69 144.92 C 217.75 146.09 216.89 147.32 215.95 148.48 C 213.66 146.62 211.46 144.71 209.60 142.41 C 212.11 142.34 215.03 142.73 217.43 141.89 C 219.33 140.91 220.75 138.82 222.17 137.27 Z" fill="#e2d2a1" />
<path d="M 41.80 137.84 C 43.32 142.23 45.94 145.99 47.79 150.27 C 50.76 151.03 53.89 152.26 56.97 152.29 C 59.85 151.92 62.67 150.47 65.34 149.36 C 66.81 148.71 68.26 148.04 69.72 147.38 C 72.15 150.23 74.69 153.97 78.94 153.58 C 81.68 152.90 84.25 151.20 86.59 149.65 C 88.54 153.57 87.03 156.80 87.29 160.83 C 86.23 160.41 85.17 160.01 84.11 159.61 C 83.23 161.26 82.34 162.91 81.43 164.54 C 82.53 165.54 83.69 166.45 84.79 167.45 C 82.17 168.23 79.56 168.95 76.85 169.30 C 73.72 168.70 69.89 168.85 68.23 165.61 C 70.99 165.73 73.72 166.07 76.47 166.29 C 73.09 163.98 69.65 164.47 65.79 164.14 C 61.70 163.40 57.80 161.81 54.14 159.85 C 49.80 157.61 44.50 155.95 40.83 152.75 C 42.93 147.66 41.59 143.04 41.80 137.84 Z" fill="#cde4d6" />
<path d="M 191.90 139.53 C 193.48 140.80 195.10 142.01 196.80 143.12 C 198.62 144.28 200.32 145.58 201.79 147.18 C 202.37 147.96 202.97 148.71 203.61 149.44 C 202.98 150.04 202.36 150.64 201.73 151.25 C 199.89 150.80 198.05 150.33 196.23 149.76 C 195.52 149.49 194.79 149.22 194.06 148.98 C 194.27 148.44 194.48 147.90 194.70 147.36 C 192.26 144.84 191.38 142.01 190.78 138.62 C 191.16 138.92 191.53 139.23 191.90 139.53 Z" fill="#f2f2ef" />
<path d="M 134.92 141.49 C 136.41 141.83 137.91 142.05 139.42 142.27 C 136.08 144.65 132.46 146.39 128.76 148.12 C 128.55 147.10 128.35 146.08 128.10 145.06 C 129.00 144.69 129.69 144.06 130.17 143.16 C 130.71 142.32 131.25 141.48 131.80 140.64 C 132.84 140.94 133.87 141.23 134.92 141.49 Z" fill="#accbbd" />
<path d="M 120.36 141.02 C 121.80 141.34 123.23 141.71 124.65 142.11 C 125.03 142.99 125.41 143.86 125.80 144.73 C 124.28 147.41 123.70 149.21 124.01 152.31 C 122.91 153.97 121.85 155.63 120.57 157.18 C 117.08 157.29 115.87 158.09 113.56 160.52 C 112.43 160.50 111.29 160.44 110.15 160.43 C 112.40 158.57 114.55 156.60 116.67 154.61 C 116.29 150.19 116.35 146.38 117.93 142.17 C 118.74 141.78 119.55 141.40 120.36 141.02 Z" fill="#deac44" />
<path d="M 101.41 142.36 C 105.43 140.61 109.54 141.75 110.91 146.13 C 110.98 148.82 110.74 151.95 109.42 154.35 C 106.79 157.83 100.30 157.55 98.18 153.71 C 96.95 149.61 96.65 144.24 101.41 142.36 Z" fill="#fceb78" />
<path d="M 129.36 141.92 L 130.17 143.16 C 129.69 144.06 129.00 144.69 128.10 145.06 L 127.76 144.56 C 128.04 143.42 128.58 142.54 129.36 141.92 Z" fill="#2a3e45" />
<path d="M 226.78 143.31 C 228.18 143.46 229.57 143.68 230.96 143.88 C 230.55 151.16 230.56 158.75 232.06 165.92 C 232.55 165.93 233.04 165.94 233.54 165.95 C 232.58 169.74 233.98 172.45 235.27 175.90 C 236.45 178.88 235.05 181.52 234.01 184.29 C 232.11 188.84 230.93 193.61 229.11 198.20 C 224.85 193.56 224.01 188.22 224.60 182.04 C 225.45 181.56 226.29 181.07 227.13 180.59 C 228.18 180.62 229.23 180.62 230.28 180.60 C 228.62 178.53 226.44 177.48 224.15 176.27 C 224.34 174.93 224.58 173.55 224.58 172.20 C 224.08 170.15 221.98 168.41 220.60 166.90 C 220.56 163.28 222.54 160.87 224.34 157.96 C 223.19 156.67 222.04 155.35 220.84 154.09 C 217.68 154.79 215.03 155.76 211.77 154.76 C 212.19 154.33 212.62 153.91 213.05 153.49 C 216.40 152.89 218.60 151.20 221.01 148.92 L 221.71 150.13 C 222.11 150.81 222.52 151.48 222.94 152.14 C 223.72 148.84 224.47 145.90 226.78 143.31 Z" fill="#f7f1d8" />
<path d="M 106.11 144.10 C 105.90 147.90 105.51 151.65 104.75 155.38 C 103.45 153.60 101.47 151.60 101.14 149.36 C 102.78 147.59 104.50 145.89 106.11 144.10 Z" fill="#191f2f" />
<path d="M 125.80 144.73 C 126.16 145.47 126.52 146.21 126.88 146.96 C 127.17 146.16 127.47 145.36 127.76 144.56 L 128.10 145.06 C 128.35 146.08 128.55 147.10 128.76 148.12 L 129.01 149.26 L 128.44 149.46 C 126.46 150.05 125.38 150.75 124.01 152.31 C 123.70 149.21 124.28 147.41 125.80 144.73 Z" fill="#c2b490" />
<path d="M 218.69 144.92 C 219.73 146.64 220.70 148.40 221.71 150.13 L 221.01 148.92 C 218.60 151.20 216.40 152.89 213.05 153.49 C 212.62 153.91 212.19 154.33 211.77 154.76 C 211.16 155.39 210.55 156.01 209.94 156.64 C 209.12 156.64 208.30 156.63 207.48 156.58 C 207.08 153.69 204.96 153.17 202.73 151.80 C 207.03 149.93 211.45 149.52 215.95 148.48 C 216.89 147.32 217.75 146.09 218.69 144.92 Z" fill="#52563f" />
<path d="M 204.19 146.86 C 205.31 147.84 204.46 148.71 203.61 149.44 C 202.97 148.71 202.37 147.96 201.79 147.18 C 202.61 146.56 203.40 146.45 204.19 146.86 Z" fill="#52563f" />
<path d="M 36.66 147.68 C 38.00 149.43 39.32 151.14 40.83 152.75 C 44.50 155.95 49.80 157.61 54.14 159.85 C 57.80 161.81 61.70 163.40 65.79 164.14 C 69.65 164.47 73.09 163.98 76.47 166.29 C 73.72 166.07 70.99 165.73 68.23 165.61 C 69.89 168.85 73.72 168.70 76.85 169.30 C 80.97 169.81 84.90 169.29 88.81 167.90 C 90.42 167.09 92.00 168.39 93.55 168.87 C 93.84 170.84 92.27 172.81 95.19 172.88 C 97.07 170.57 98.37 167.61 99.48 164.86 C 100.62 165.36 101.76 165.85 102.90 166.34 C 103.51 168.15 103.78 170.26 104.79 171.89 C 104.47 170.56 104.10 169.29 104.03 167.90 C 106.09 168.84 108.09 169.88 110.05 171.01 C 109.02 172.06 108.03 173.20 106.88 174.11 C 101.32 174.96 95.42 174.08 89.79 174.23 C 85.59 174.59 82.45 172.72 78.43 174.59 C 73.56 173.01 68.64 171.58 63.78 169.94 C 61.87 169.25 61.06 169.43 59.26 170.34 C 61.22 171.33 63.23 172.19 65.26 173.01 C 65.22 175.39 65.18 177.77 65.14 180.15 C 64.88 184.02 66.35 187.83 67.47 191.54 C 68.83 195.48 70.50 200.45 73.71 203.27 C 77.09 205.50 81.24 206.69 85.00 208.14 C 88.41 209.60 91.59 209.99 95.29 209.96 C 99.75 210.08 104.57 210.70 108.89 209.69 C 111.17 209.20 113.37 208.35 115.62 207.75 C 116.55 208.80 117.24 209.06 116.85 210.61 C 113.73 211.86 110.73 211.33 108.41 214.12 C 110.20 214.21 111.99 214.22 113.78 214.24 C 114.52 215.35 115.18 216.50 115.91 217.62 C 115.94 216.51 115.98 215.41 116.03 214.30 C 117.06 214.75 118.09 215.21 119.13 215.66 C 118.96 214.84 118.80 214.03 118.63 213.22 L 119.51 212.98 C 120.75 214.12 121.96 215.29 123.11 216.52 C 121.46 219.51 121.67 222.50 121.32 225.75 C 120.45 228.60 118.91 231.26 117.88 234.07 C 113.28 235.27 108.70 235.13 103.99 235.35 C 96.21 235.64 88.09 232.77 80.79 230.24 C 76.03 228.74 72.37 224.77 68.11 221.89 C 64.63 219.54 62.63 216.21 59.99 213.07 C 60.06 211.02 60.98 208.31 59.29 206.71 C 57.96 205.16 56.50 205.68 54.70 205.65 C 53.11 203.09 51.63 200.47 50.32 197.76 C 51.66 198.22 53.00 198.73 54.33 199.23 C 52.43 197.48 49.66 195.69 48.90 193.12 C 46.85 188.05 47.50 183.24 46.75 177.94 C 46.29 175.45 48.09 173.05 48.85 170.67 C 50.23 167.56 48.68 163.96 46.35 161.76 C 42.70 157.92 39.77 153.49 35.84 149.96 C 36.12 149.20 36.39 148.44 36.66 147.68 Z" fill="#20233f" />
<path d="M 157.54 149.54 C 160.91 148.81 164.84 150.07 168.14 150.82 C 165.45 150.70 162.09 150.39 159.61 151.60 C 156.82 152.91 155.17 155.95 153.66 158.50 C 151.76 161.59 152.11 164.69 151.90 168.18 C 150.95 167.27 149.89 166.41 149.04 165.40 C 148.71 162.88 149.01 160.25 149.00 157.71 C 151.96 155.18 154.28 151.61 157.54 149.54 Z" fill="#a38ea3" />
<path d="M 194.06 148.98 C 194.79 149.22 195.52 149.49 196.23 149.76 L 197.12 150.89 C 196.18 151.72 195.24 152.06 194.30 151.90 C 193.09 151.31 193.73 149.92 194.06 148.98 Z" fill="#242822" />
<path d="M 128.44 149.46 L 129.01 149.26 C 129.61 150.11 131.39 151.51 130.93 152.63 C 129.37 153.12 128.20 150.78 128.44 149.46 Z" fill="#43444f" />
<path d="M 168.14 150.82 C 172.00 151.70 174.67 153.98 177.94 156.00 C 179.98 157.99 181.86 160.02 184.19 161.69 C 185.21 166.61 188.06 170.83 185.30 175.64 C 184.39 172.43 184.04 169.09 183.03 165.92 C 181.53 161.74 178.25 158.13 174.54 155.76 C 172.41 154.23 170.19 153.03 167.61 152.45 C 166.93 152.39 166.25 152.38 165.57 152.40 C 163.48 152.49 161.44 152.47 159.56 153.51 C 157.45 154.55 156.31 157.03 155.08 158.93 C 156.63 162.01 158.73 164.00 161.40 166.09 C 159.21 167.46 157.01 168.79 154.75 170.04 C 155.64 168.57 156.56 167.13 157.49 165.69 C 156.21 163.30 154.92 160.91 153.66 158.50 C 155.17 155.95 156.82 152.91 159.61 151.60 C 162.09 150.39 165.45 150.70 168.14 150.82 Z" fill="#292941" />
<path d="M 165.57 152.40 C 162.22 154.83 158.68 156.92 155.08 158.93 C 156.31 157.03 157.45 154.55 159.56 153.51 C 161.44 152.47 163.48 152.49 165.57 152.40 Z" fill="#a0899f" />
<path d="M 165.57 152.40 C 166.25 152.38 166.93 152.39 167.61 152.45 C 168.80 155.74 171.65 155.14 174.54 155.76 C 178.25 158.13 181.53 161.74 183.03 165.92 C 184.04 169.09 184.39 172.43 185.30 175.64 C 188.06 170.83 185.21 166.61 184.19 161.69 C 188.16 163.77 190.27 167.54 190.40 171.95 C 190.26 174.10 187.95 175.77 186.40 177.02 C 185.57 177.48 184.73 177.95 183.90 178.41 C 183.87 180.04 183.85 181.68 183.79 183.31 L 183.27 184.39 C 181.93 184.31 180.58 184.23 179.23 184.20 L 178.85 184.21 C 178.92 186.26 179.11 188.32 179.29 190.37 L 178.95 190.82 C 177.08 192.02 175.15 193.12 173.15 194.07 C 173.35 193.37 173.56 192.68 173.76 191.98 C 172.18 192.48 170.59 192.99 169.00 193.46 C 167.66 193.85 166.31 194.23 165.00 194.71 C 163.57 195.58 162.26 196.65 160.93 197.67 L 160.33 197.89 C 159.80 197.48 159.27 197.07 158.74 196.66 C 157.76 196.65 156.78 196.68 155.81 196.74 C 157.98 192.21 160.64 187.07 161.11 182.03 C 160.52 179.45 159.45 177.52 160.39 174.86 C 156.96 173.26 154.49 170.86 151.90 168.18 C 152.11 164.69 151.76 161.59 153.66 158.50 C 154.92 160.91 156.21 163.30 157.49 165.69 C 156.56 167.13 155.64 168.57 154.75 170.04 C 157.01 168.79 159.21 167.46 161.40 166.09 C 158.73 164.00 156.63 162.01 155.08 158.93 C 158.68 156.92 162.22 154.83 165.57 152.40 Z" fill="#7b6082" />
<path d="M 198.77 152.14 C 200.09 152.04 201.41 151.93 202.73 151.80 C 204.96 153.17 207.08 153.69 207.48 156.58 C 205.97 156.07 204.50 155.48 203.02 154.88 C 202.23 154.56 201.43 154.25 200.60 153.97 C 200.00 153.35 199.39 152.74 198.77 152.14 Z" fill="#181f2b" />
<path d="M 133.22 152.49 C 135.25 154.76 131.60 155.91 130.29 157.37 C 131.19 155.70 132.16 154.06 133.22 152.49 Z" fill="#b7b6bb" />
<path d="M 167.61 152.45 C 170.19 153.03 172.41 154.23 174.54 155.76 C 171.65 155.14 168.80 155.74 167.61 152.45 Z" fill="#dbd2d7" />
<path d="M 222.43 153.21 C 223.47 152.50 225.65 154.67 224.91 155.71 C 223.77 156.46 221.87 154.29 222.43 153.21 Z" fill="#252824" />
<path d="M 200.60 153.97 C 201.43 154.25 202.23 154.56 203.02 154.88 C 203.28 155.99 203.53 157.10 203.76 158.21 C 201.44 157.93 199.13 157.59 196.84 157.11 C 198.08 156.05 199.33 154.99 200.60 153.97 Z" fill="#919181" />
<path d="M 220.84 154.09 C 222.04 155.35 223.19 156.67 224.34 157.96 C 222.54 160.87 220.56 163.28 220.60 166.90 L 220.46 167.99 C 219.31 166.33 218.18 164.67 216.96 163.07 C 217.48 168.68 218.45 173.79 224.15 176.27 C 226.44 177.48 228.62 178.53 230.28 180.60 C 229.23 180.62 228.18 180.62 227.13 180.59 C 224.61 180.01 221.95 179.55 219.58 178.52 C 216.56 176.43 213.87 173.81 211.38 171.11 C 212.79 171.75 214.17 172.46 215.57 173.12 C 214.72 171.14 213.81 169.18 212.91 167.22 C 212.29 168.25 211.67 169.27 211.04 170.29 C 209.74 165.64 209.56 161.43 209.94 156.64 C 210.55 156.01 211.16 155.39 211.77 154.76 C 215.03 155.76 217.68 154.79 220.84 154.09 Z" fill="#1e203a" />
<path d="M 177.94 156.00 C 182.69 156.45 185.25 159.48 189.03 161.84 C 189.95 165.49 191.94 169.44 191.30 173.20 C 190.86 177.21 188.93 180.33 187.27 183.88 C 186.53 185.34 187.03 186.95 187.15 188.49 C 183.57 191.56 179.79 194.53 176.65 198.05 C 176.16 197.40 175.68 196.75 175.21 196.10 C 176.45 194.33 177.67 192.55 178.95 190.82 L 179.29 190.37 C 180.72 188.47 182.14 186.49 183.27 184.39 L 183.79 183.31 C 184.77 181.25 185.62 179.16 186.40 177.02 C 187.95 175.77 190.26 174.10 190.40 171.95 C 190.27 167.54 188.16 163.77 184.19 161.69 C 181.86 160.02 179.98 157.99 177.94 156.00 Z" fill="#b49faf" />
<path d="M 120.57 157.18 C 118.51 158.88 116.41 160.68 113.56 160.52 C 115.87 158.09 117.08 157.29 120.57 157.18 Z" fill="#644d22" />
<path d="M 142.77 159.16 C 143.65 161.48 143.93 164.06 144.79 166.38 C 146.20 169.61 148.44 172.12 149.33 175.67 C 150.38 180.08 150.92 185.05 147.76 188.76 C 142.44 195.72 133.62 198.12 125.21 196.74 C 121.00 195.87 117.29 192.53 115.00 189.01 C 111.75 184.07 112.53 177.31 115.38 172.38 C 119.28 165.46 126.70 160.74 133.94 157.94 C 137.07 156.86 140.51 156.04 142.77 159.16 Z" fill="#fbfaf8" />
<path d="M 189.03 161.84 C 191.01 163.08 193.28 163.45 193.99 165.91 C 195.02 168.93 195.83 172.23 195.85 175.43 C 194.89 178.03 194.00 180.61 193.32 183.30 C 191.92 185.22 189.64 186.60 187.77 188.04 L 187.15 188.49 C 187.03 186.95 186.53 185.34 187.27 183.88 C 188.93 180.33 190.86 177.21 191.30 173.20 C 191.94 169.44 189.95 165.49 189.03 161.84 Z" fill="#cec2c8" />
<path d="M 216.96 163.07 C 218.18 164.67 219.31 166.33 220.46 167.99 L 220.60 166.90 C 221.98 168.41 224.08 170.15 224.58 172.20 C 224.58 173.55 224.34 174.93 224.15 176.27 C 218.45 173.79 217.48 168.68 216.96 163.07 Z" fill="#d1d4a7" />
<path d="M 50.17 164.34 C 51.39 163.39 53.52 165.23 52.39 166.52 C 50.95 167.68 49.25 165.76 50.17 164.34 Z" fill="#b4bcbe" />
<path d="M 56.14 166.32 C 58.11 166.93 55.83 169.75 54.48 168.69 C 53.80 167.62 55.03 166.30 56.14 166.32 Z" fill="#59576a" />
<path d="M 63.78 169.94 C 68.64 171.58 73.56 173.01 78.43 174.59 C 74.43 176.66 70.87 177.47 66.40 177.72 C 65.97 178.52 65.55 179.33 65.14 180.15 C 65.18 177.77 65.22 175.39 65.26 173.01 C 63.23 172.19 61.22 171.33 59.26 170.34 C 61.06 169.43 61.87 169.25 63.78 169.94 Z" fill="#c6bac1" />
<path d="M 86.22 169.82 C 87.47 169.30 89.39 170.19 88.56 171.71 C 87.11 173.31 83.81 171.41 86.22 169.82 Z" fill="#625f6d" />
<path d="M 89.79 174.23 C 90.21 174.78 90.62 175.32 91.04 175.87 C 89.02 179.40 89.35 182.88 89.75 186.75 C 94.31 188.53 98.96 189.59 103.77 190.49 C 104.92 190.88 107.01 190.98 107.19 192.48 C 107.64 195.11 107.13 197.87 107.43 200.53 C 109.75 203.13 114.76 203.08 117.99 203.99 C 119.78 204.70 121.55 205.55 123.29 206.40 C 120.75 206.94 118.18 207.30 115.62 207.75 C 113.37 208.35 111.17 209.20 108.89 209.69 C 104.57 210.70 99.75 210.08 95.29 209.96 C 94.37 209.08 93.46 208.20 92.50 207.37 C 89.98 207.52 87.51 207.92 85.00 208.14 C 81.24 206.69 77.09 205.50 73.71 203.27 C 70.50 200.45 68.83 195.48 67.47 191.54 C 66.35 187.83 64.88 184.02 65.14 180.15 C 65.55 179.33 65.97 178.52 66.40 177.72 C 70.87 177.47 74.43 176.66 78.43 174.59 C 82.45 172.72 85.59 174.59 89.79 174.23 Z" fill="#e8bbc7" />
<path d="M 166.90 172.96 C 168.03 173.50 169.15 174.09 170.26 174.67 C 167.04 176.10 163.85 177.44 160.31 177.87 C 162.24 175.82 164.33 174.15 166.90 172.96 Z" fill="#26263e" />
<path d="M 91.04 175.87 C 95.04 175.66 99.00 176.06 102.93 176.76 C 102.88 179.92 103.43 182.19 104.83 185.04 C 106.91 189.25 108.53 193.88 111.17 197.77 C 113.13 200.79 116.38 201.41 119.55 202.50 C 119.03 203.00 118.51 203.49 117.99 203.99 C 114.76 203.08 109.75 203.13 107.43 200.53 C 107.13 197.87 107.64 195.11 107.19 192.48 C 107.01 190.98 104.92 190.88 103.77 190.49 C 98.96 189.59 94.31 188.53 89.75 186.75 C 89.35 182.88 89.02 179.40 91.04 175.87 Z" fill="#eed3d9" />
<path d="M 186.40 177.02 C 185.62 179.16 184.77 181.25 183.79 183.31 C 183.85 181.68 183.87 180.04 183.90 178.41 C 184.73 177.95 185.57 177.48 186.40 177.02 Z" fill="#282741" />
<path d="M 178.85 184.21 L 179.23 184.20 C 180.58 184.23 181.93 184.31 183.27 184.39 C 182.14 186.49 180.72 188.47 179.29 190.37 C 179.11 188.32 178.92 186.26 178.85 184.21 Z" fill="#2f2e46" />
<path d="M 187.15 188.49 L 187.77 188.04 C 187.64 189.25 187.50 190.47 187.36 191.68 C 189.42 193.31 191.37 195.04 193.27 196.85 C 191.77 197.11 190.17 197.31 188.72 197.78 C 187.21 198.93 186.11 200.71 184.97 202.21 C 186.06 202.48 187.15 202.74 188.24 203.00 C 186.69 205.11 185.03 207.06 183.22 208.95 C 182.17 208.49 181.12 208.01 180.06 207.56 C 179.04 211.52 176.07 214.64 172.15 215.79 C 167.47 216.47 162.28 215.60 157.59 215.12 C 160.84 214.08 162.54 211.85 164.48 209.23 C 166.14 209.07 168.27 209.32 169.77 208.54 C 171.95 206.57 173.44 203.67 174.90 201.14 C 175.47 200.10 176.04 199.07 176.65 198.05 C 179.79 194.53 183.57 191.56 187.15 188.49 Z" fill="#e0dcde" />
<path d="M 178.95 190.82 C 177.67 192.55 176.45 194.33 175.21 196.10 C 175.68 196.75 176.16 197.40 176.65 198.05 C 176.04 199.07 175.47 200.10 174.90 201.14 C 168.79 202.01 163.11 204.34 156.98 204.91 C 154.82 205.41 153.05 207.68 151.24 208.92 C 151.35 207.67 151.46 206.41 151.57 205.15 C 150.35 204.83 149.13 204.50 147.89 204.22 C 148.67 203.57 149.44 202.91 150.13 202.17 L 150.30 200.81 C 150.53 200.14 150.74 199.47 150.94 198.80 C 152.30 198.66 153.67 198.50 155.04 198.36 L 155.23 199.77 C 156.94 199.16 158.63 198.51 160.33 197.89 L 160.93 197.67 C 162.95 197.46 164.96 197.26 166.97 197.01 C 166.33 196.23 165.67 195.46 165.00 194.71 C 166.31 194.23 167.66 193.85 169.00 193.46 L 169.45 195.65 C 170.68 195.12 171.93 194.62 173.15 194.07 C 175.15 193.12 177.08 192.02 178.95 190.82 Z" fill="#987e97" />
<path d="M 173.76 191.98 C 173.56 192.68 173.35 193.37 173.15 194.07 C 171.93 194.62 170.68 195.12 169.45 195.65 L 169.00 193.46 C 170.59 192.99 172.18 192.48 173.76 191.98 Z" fill="#2b2a42" />
<path d="M 165.00 194.71 C 165.67 195.46 166.33 196.23 166.97 197.01 C 164.96 197.26 162.95 197.46 160.93 197.67 C 162.26 196.65 163.57 195.58 165.00 194.71 Z" fill="#27263f" />
<path d="M 151.17 196.26 C 152.96 195.08 154.15 197.83 152.01 198.23 C 150.85 197.93 150.57 197.28 151.17 196.26 Z" fill="#9996a0" />
<path d="M 158.74 196.66 C 159.27 197.07 159.80 197.48 160.33 197.89 C 158.63 198.51 156.94 199.16 155.23 199.77 L 155.04 198.36 L 155.81 196.74 C 156.78 196.68 157.76 196.65 158.74 196.66 Z" fill="#2f2d46" />
<path d="M 149.96 198.21 C 148.92 198.93 148.01 199.82 147.26 200.84 C 146.43 199.90 145.62 198.95 144.79 198.02 C 146.61 197.77 148.21 197.42 149.96 198.21 Z" fill="#a2a2aa" />
<path d="M 149.96 198.21 L 150.94 198.80 C 150.74 199.47 150.53 200.14 150.30 200.81 C 149.20 201.13 148.19 201.14 147.26 200.84 C 148.01 199.82 148.92 198.93 149.96 198.21 Z" fill="#2b2d37" />
<path d="M 142.79 200.96 C 142.25 202.62 141.69 204.27 141.12 205.92 C 143.37 205.33 145.62 204.74 147.89 204.22 C 149.13 204.50 150.35 204.83 151.57 205.15 C 151.46 206.41 151.35 207.67 151.24 208.92 C 147.51 209.81 144.16 210.58 141.00 212.87 C 138.50 214.18 135.86 214.54 133.11 214.98 C 135.12 214.10 137.31 213.37 139.15 212.17 C 140.01 210.76 139.35 208.43 139.32 206.83 C 139.09 204.82 138.78 202.83 138.36 200.85 C 139.83 200.77 141.32 200.84 142.79 200.96 Z" fill="#af96a9" />
<path d="M 138.36 200.85 C 138.78 202.83 139.09 204.82 139.32 206.83 C 136.42 207.17 133.58 207.66 130.73 208.29 C 129.71 211.07 128.91 213.82 128.79 216.80 C 127.96 216.30 127.13 215.80 126.30 215.28 C 126.99 213.64 127.56 211.96 128.08 210.27 L 128.45 209.02 C 128.27 208.29 128.07 207.57 127.85 206.86 L 128.79 206.56 C 131.06 206.01 133.72 205.55 135.56 204.03 L 135.22 202.43 C 136.27 201.90 137.30 201.34 138.36 200.85 Z" fill="#6a6577" />
<path d="M 174.90 201.14 C 173.44 203.67 171.95 206.57 169.77 208.54 C 168.27 209.32 166.14 209.07 164.48 209.23 C 162.54 211.85 160.84 214.08 157.59 215.12 C 153.01 216.56 149.99 221.55 146.28 224.64 C 146.47 221.76 145.95 219.43 144.23 217.07 C 143.21 215.64 142.10 214.25 141.00 212.87 C 144.16 210.58 147.51 209.81 151.24 208.92 C 153.05 207.68 154.82 205.41 156.98 204.91 C 163.11 204.34 168.79 202.01 174.90 201.14 Z" fill="#cbb5c1" />
<path d="M 141.30 202.26 C 141.86 202.77 141.86 202.77 141.30 202.26 Z" fill="#1a212e" />
<path d="M 135.22 202.43 L 135.56 204.03 C 133.72 205.55 131.06 206.01 128.79 206.56 L 129.99 205.09 C 131.70 204.13 133.46 203.29 135.22 202.43 Z" fill="#17182d" />
<path d="M 59.29 206.71 C 60.98 208.31 60.06 211.02 59.99 213.07 C 58.04 210.72 56.27 208.27 54.70 205.65 C 56.50 205.68 57.96 205.16 59.29 206.71 Z" fill="#85838f" />
<path d="M 129.99 205.09 L 128.79 206.56 L 127.85 206.86 C 124.46 207.84 121.26 209.21 118.12 210.81 C 118.28 211.61 118.45 212.42 118.63 213.22 C 118.80 214.03 118.96 214.84 119.13 215.66 C 118.09 215.21 117.06 214.75 116.03 214.30 C 115.98 215.41 115.94 216.51 115.91 217.62 C 115.18 216.50 114.52 215.35 113.78 214.24 C 111.99 214.22 110.20 214.21 108.41 214.12 C 110.73 211.33 113.73 211.86 116.85 210.61 C 117.24 209.06 116.55 208.80 115.62 207.75 C 118.18 207.30 120.75 206.94 123.29 206.40 C 125.52 205.95 127.76 205.55 129.99 205.09 Z" fill="#907c93" />
<path d="M 92.50 207.37 C 93.46 208.20 94.37 209.08 95.29 209.96 C 91.59 209.99 88.41 209.60 85.00 208.14 C 87.51 207.92 89.98 207.52 92.50 207.37 Z" fill="#a18ca0" />
<path d="M 127.85 206.86 C 128.07 207.57 128.27 208.29 128.45 209.02 L 128.08 210.27 C 125.20 211.11 122.37 212.07 119.51 212.98 L 118.63 213.22 C 118.45 212.42 118.28 211.61 118.12 210.81 C 121.26 209.21 124.46 207.84 127.85 206.86 Z" fill="#c6afbc" />
<path d="M 139.32 206.83 C 139.35 208.43 140.01 210.76 139.15 212.17 C 137.31 213.37 135.12 214.10 133.11 214.98 C 135.86 214.54 138.50 214.18 141.00 212.87 C 142.10 214.25 143.21 215.64 144.23 217.07 C 143.02 218.21 141.83 219.38 140.63 220.54 C 142.34 222.07 144.03 223.61 145.72 225.15 C 142.47 227.27 138.90 227.78 135.21 228.61 C 130.93 225.82 126.81 223.52 124.86 218.51 C 126.16 217.90 127.49 217.40 128.79 216.80 C 128.91 213.82 129.71 211.07 130.73 208.29 C 133.58 207.66 136.42 207.17 139.32 206.83 Z" fill="#20223d" />
<path d="M 128.08 210.27 C 127.56 211.96 126.99 213.64 126.30 215.28 C 127.13 215.80 127.96 216.30 128.79 216.80 C 127.49 217.40 126.16 217.90 124.86 218.51 C 124.30 217.83 123.71 217.16 123.11 216.52 C 121.96 215.29 120.75 214.12 119.51 212.98 C 122.37 212.07 125.20 211.11 128.08 210.27 Z" fill="#997e97" />
<path d="M 87.07 211.48 C 89.86 211.90 92.58 213.58 95.03 214.93 C 91.49 214.57 88.03 213.92 84.73 212.56 C 85.53 212.24 86.31 211.88 87.07 211.48 Z" fill="#595369" />
<path d="M 97.21 213.13 C 98.06 212.93 98.61 213.23 98.87 214.04 C 99.05 215.62 96.59 216.75 96.04 214.94 C 96.04 214.12 96.43 213.51 97.21 213.13 Z" fill="#7e7a89" />
<path d="M 105.21 213.19 C 107.00 212.01 108.15 214.78 106.03 215.19 C 104.89 214.87 104.62 214.20 105.21 213.19 Z" fill="#605a6e" />
<path d="M 123.11 216.52 C 123.71 217.16 124.30 217.83 124.86 218.51 C 126.81 223.52 130.93 225.82 135.21 228.61 C 129.66 231.37 123.93 232.88 117.88 234.07 C 118.91 231.26 120.45 228.60 121.32 225.75 C 121.67 222.50 121.46 219.51 123.11 216.52 Z" fill="#766e80" />
<path d="M 144.23 217.07 C 145.95 219.43 146.47 221.76 146.28 224.64 L 145.72 225.15 C 144.03 223.61 142.34 222.07 140.63 220.54 C 141.83 219.38 143.02 218.21 144.23 217.07 Z" fill="#846f8b" />
</svg>