<?xml version="1.0" encoding="UTF-8" standalone="no"?>
<!DOCTYPE svg PUBLIC "-//W3C//DTD SVG 1.1//EN" "http://www.w3.org/Graphics/SVG/1.1/DTD/svg11.dtd">
<svg xmlns="http://www.w3.org/2000/svg" version="1.1" viewBox="0 0 256 256" width="256.0pt" height="256.0pt">
<path d="M 0.00 0.00 L 256.00 0.00 L 256.00 256.00 L 0.00 256.00 L 0.00 0.00 Z" fill="#ffffff" />
<path d="M 148.00 12.97 C 164.64 13.49 180.78 16.02 196.02 22.99 C 204.64 27.29 212.81 32.62 218.28 40.74 C 222.98 47.39 224.53 54.58 228.31 61.68 C 232.24 69.42 237.26 75.57 240.48 83.54 C 242.35 88.19 244.07 92.97 245.13 97.88 C 246.82 105.86 245.65 113.98 245.99 122.04 C 246.22 129.19 248.66 135.84 248.90 143.00 C 249.18 152.11 249.26 161.18 248.31 170.17 C 247.47 178.82 248.37 187.38 247.97 196.02 C 247.77 202.55 244.52 208.73 241.22 214.23 C 238.13 219.33 233.18 222.62 227.67 224.64 C 222.14 226.61 216.01 226.74 210.18 228.22 C 202.92 230.00 196.93 233.58 189.80 235.80 C 181.61 238.40 172.72 239.64 164.27 241.24 C 155.38 242.98 146.14 243.60 137.12 242.78 C 131.24 242.17 126.63 239.62 121.12 237.89 C 114.63 235.83 107.92 235.74 101.41 233.56 C 95.36 231.67 89.90 228.15 83.77 227.32 C 78.27 226.61 72.55 227.05 67.00 227.00 C 57.99 226.96 48.99 227.05 39.98 227.02 C 33.61 226.80 26.67 226.57 20.65 224.35 C 13.42 221.57 9.41 213.57 10.03 206.08 C 10.60 199.23 14.22 192.58 15.64 185.72 C 17.72 176.79 16.52 168.67 17.47 159.57 C 18.37 150.72 19.37 141.41 21.93 132.89 C 23.19 128.48 24.87 123.58 24.82 118.97 C 24.77 114.37 22.44 110.22 21.15 105.90 C 19.28 99.86 20.65 93.56 18.62 87.39 C 16.68 81.29 12.89 76.70 12.88 70.01 C 12.72 62.07 16.24 56.26 19.23 49.28 C 21.99 42.88 21.19 35.97 23.67 29.66 C 26.61 22.23 34.43 17.35 42.10 16.19 C 49.81 15.32 57.47 15.74 64.37 19.61 C 69.52 22.13 74.50 26.71 80.10 27.88 C 85.39 28.95 90.19 27.38 94.75 24.80 C 106.17 18.52 118.47 16.02 131.27 14.39 C 136.81 13.77 142.42 12.98 148.00 12.97 Z" fill="#f8f8f8" />
<path d="M 140.28 21.32 C 148.38 20.36 155.87 21.48 163.93 22.15 C 170.99 22.75 177.17 25.33 184.22 26.89 C 190.82 28.35 196.07 31.82 201.69 35.36 C 209.23 39.73 214.14 48.79 217.44 56.56 C 221.23 67.42 228.21 75.50 233.18 85.77 C 235.72 91.20 237.00 97.33 237.69 103.26 C 238.56 110.85 237.44 118.32 238.28 125.86 C 239.48 135.73 242.51 146.52 241.53 156.42 C 241.01 163.60 240.44 170.78 240.03 177.96 C 239.64 184.90 240.17 192.14 239.06 198.99 C 238.28 203.52 236.34 208.60 232.52 211.43 C 230.18 213.19 227.72 214.86 225.15 216.28 C 221.44 218.34 216.57 218.51 212.42 219.45 C 205.94 220.72 199.94 223.19 193.96 225.91 C 184.52 230.17 174.09 231.02 164.01 233.02 C 152.61 235.18 141.44 237.01 130.61 231.59 C 125.18 229.01 119.51 227.90 114.47 224.49 C 115.64 219.06 115.90 213.50 115.30 207.98 C 115.23 206.64 115.25 205.32 115.26 203.98 L 115.29 203.07 C 117.59 202.15 119.66 201.01 120.75 198.65 C 122.13 196.07 120.61 192.95 119.97 190.34 L 121.72 190.12 C 122.91 192.51 124.21 194.89 123.54 197.65 C 122.54 201.68 120.45 204.87 118.28 208.33 C 122.13 206.13 127.74 203.35 129.34 198.93 C 128.74 195.23 127.21 191.97 125.26 188.81 C 128.25 187.29 131.06 185.88 133.15 183.15 C 135.55 180.19 136.94 176.78 138.20 173.23 C 136.69 174.19 135.20 175.18 133.68 176.13 C 134.08 175.26 134.48 174.40 134.89 173.53 C 135.93 171.48 136.46 169.32 136.93 167.08 C 137.58 166.23 138.26 165.41 138.99 164.63 C 139.28 168.06 139.64 171.42 140.76 174.70 C 142.42 178.71 143.78 182.61 144.02 187.00 C 144.32 190.06 144.96 193.05 145.61 196.06 C 142.95 199.80 140.10 202.47 136.08 204.72 C 135.03 205.05 133.97 205.35 132.93 205.69 C 128.67 206.86 128.37 212.74 127.62 216.29 C 128.59 215.48 129.57 214.67 130.55 213.86 C 130.45 215.63 130.33 217.39 130.22 219.15 C 134.23 220.02 136.28 219.79 140.03 218.17 C 140.28 218.60 140.53 219.02 140.78 219.44 C 141.75 217.76 141.95 215.43 144.26 215.26 C 148.20 214.52 151.83 213.28 154.81 210.50 C 156.28 210.27 158.36 210.67 159.29 209.31 C 162.85 205.06 163.66 198.36 164.02 193.00 C 164.53 188.50 161.60 184.73 159.85 180.80 L 159.84 180.03 C 160.08 177.23 160.44 174.44 160.53 171.63 C 160.60 168.40 160.49 165.16 160.45 161.92 C 161.07 156.53 162.83 151.79 164.42 146.66 C 165.42 148.93 167.14 151.44 167.30 153.94 C 167.26 160.59 167.04 167.58 168.41 174.12 C 168.72 177.18 168.40 180.36 167.35 183.27 C 166.17 184.63 164.91 185.94 163.70 187.28 C 166.03 187.60 167.77 188.62 169.80 186.85 C 174.49 183.09 178.37 178.76 183.89 176.07 C 183.75 183.08 182.13 189.75 180.94 196.61 C 181.75 196.55 182.56 196.48 183.37 196.42 C 182.95 197.20 182.53 197.97 182.10 198.75 C 181.58 199.45 181.22 200.22 181.01 201.04 C 180.68 201.86 180.33 202.65 179.95 203.43 C 178.81 204.91 177.79 206.41 176.85 208.03 C 175.06 210.28 173.44 212.65 171.79 215.02 C 168.11 217.14 164.29 218.66 160.98 221.44 C 164.87 221.46 168.41 220.28 171.76 218.39 C 173.86 218.31 175.95 218.18 178.04 218.01 C 177.87 218.78 177.70 219.55 177.53 220.32 C 175.27 221.38 173.15 222.51 171.35 224.28 C 174.73 223.75 176.13 222.45 178.25 219.97 C 179.88 219.14 181.64 218.11 183.47 217.79 C 185.89 217.53 188.47 218.13 190.87 217.78 C 192.27 216.88 193.25 215.25 194.35 214.01 C 197.83 211.63 200.67 208.62 203.86 205.92 C 208.24 205.06 210.10 202.49 212.58 199.10 C 216.02 201.55 218.44 201.35 222.44 200.79 C 220.22 202.75 217.94 204.56 215.17 205.69 C 213.06 206.26 210.65 206.61 208.72 207.66 C 207.73 209.11 207.18 210.93 206.55 212.56 C 210.67 211.53 213.00 210.23 215.35 206.64 L 215.64 208.12 C 215.57 209.52 215.40 210.90 215.24 212.29 C 216.54 211.70 217.83 211.00 219.19 210.56 C 220.84 210.86 222.44 211.56 224.03 212.08 C 226.26 210.66 228.79 209.56 230.80 207.85 C 232.66 204.49 232.09 200.21 233.08 196.35 C 233.96 192.16 235.31 188.78 232.45 184.99 C 227.97 184.39 223.93 185.42 219.56 186.27 C 221.02 181.05 222.65 176.06 222.60 170.56 C 224.43 170.63 226.25 170.70 228.08 170.78 C 227.48 173.92 226.89 177.07 226.45 180.24 C 230.85 175.32 233.30 168.91 230.95 162.45 C 232.67 157.84 232.65 153.34 232.27 148.51 C 232.39 145.95 232.38 143.38 232.14 140.82 C 231.48 135.87 230.49 130.99 230.16 126.00 C 229.85 118.79 226.84 112.45 227.39 105.15 C 228.74 105.67 230.09 106.19 231.44 106.70 C 231.59 103.62 231.48 100.60 230.55 97.63 C 228.89 92.10 227.31 86.81 224.00 82.02 C 218.39 73.79 211.63 65.79 203.57 59.88 C 203.61 58.07 203.66 56.10 203.12 54.37 C 202.17 52.83 200.37 51.73 198.91 50.72 C 202.59 51.42 206.15 52.49 209.79 53.35 C 211.02 52.56 210.46 51.97 210.11 50.83 C 208.57 49.07 206.20 47.93 204.25 46.69 C 198.00 42.82 191.47 39.27 184.93 35.90 C 182.06 34.32 179.29 31.78 176.09 31.05 C 168.48 29.09 160.92 27.42 153.00 27.64 C 139.13 27.26 125.33 28.85 112.09 33.08 C 105.83 34.69 100.05 37.39 94.03 39.68 C 98.85 37.96 103.20 36.96 108.32 36.59 C 116.24 35.96 124.01 33.31 131.90 33.61 C 138.72 33.55 145.70 33.43 152.48 34.17 C 151.46 37.19 150.50 37.53 147.53 38.14 C 145.23 37.13 142.92 36.16 140.57 35.28 C 140.83 36.20 141.09 37.12 141.36 38.04 C 135.77 39.20 130.19 41.17 124.52 40.51 C 119.42 40.04 114.68 39.12 109.63 40.76 C 107.33 41.51 105.78 44.38 104.35 46.18 C 107.05 47.04 109.76 47.84 112.56 48.32 C 110.43 49.01 108.30 49.57 106.08 49.88 C 101.69 50.42 97.31 50.72 93.00 51.78 C 89.03 52.74 85.30 52.22 81.76 54.40 C 77.95 56.74 73.83 57.72 69.62 59.01 C 73.66 59.85 77.58 59.81 81.64 59.24 C 82.74 59.46 83.84 59.68 84.93 59.92 C 82.86 60.97 80.48 61.85 78.70 63.35 C 77.04 65.21 76.16 67.88 75.10 70.11 C 75.48 70.70 75.86 71.29 76.24 71.87 C 79.85 71.27 83.46 70.52 87.11 70.09 C 91.97 69.50 97.20 70.41 102.13 70.83 C 106.39 71.31 110.66 71.50 114.90 72.11 L 113.50 73.52 C 106.46 72.48 100.12 72.19 93.02 72.69 C 84.86 72.27 77.16 73.69 69.91 77.54 C 67.19 76.30 64.05 74.31 60.99 74.36 C 58.06 74.24 55.45 74.57 52.66 75.48 C 52.57 74.86 52.47 74.24 52.37 73.63 C 46.15 74.65 41.55 77.95 37.11 82.21 C 37.36 82.69 37.62 83.18 37.88 83.66 C 36.66 84.42 35.16 85.07 34.23 86.17 C 33.07 87.94 32.62 90.29 32.02 92.31 C 29.32 87.68 25.83 82.76 24.93 77.40 C 27.49 75.06 29.68 72.45 32.04 69.92 C 31.32 68.62 30.59 67.32 29.83 66.04 C 31.18 63.70 32.61 61.58 34.61 59.75 C 34.16 61.46 33.66 63.18 33.07 64.84 C 32.71 65.66 32.34 66.48 31.97 67.29 C 34.14 66.72 36.32 66.17 38.51 65.62 C 39.65 66.68 40.80 67.71 42.12 68.54 C 43.61 67.96 45.04 67.13 46.44 66.34 C 47.21 66.75 47.99 67.14 48.77 67.53 C 51.61 67.83 54.18 66.59 57.06 66.83 C 60.75 67.25 63.59 69.44 66.87 70.46 C 68.37 70.01 69.80 69.30 71.23 68.68 C 69.58 67.81 67.93 66.93 66.29 66.02 C 67.68 64.76 69.08 63.53 70.49 62.29 C 66.72 57.63 62.79 53.66 56.76 52.18 C 52.61 50.96 49.48 52.69 45.51 53.52 C 42.87 54.22 40.17 54.35 37.50 54.82 C 34.38 56.35 31.66 58.81 29.01 61.04 C 26.77 62.72 26.02 66.06 24.88 68.57 L 24.66 69.09 C 23.57 69.54 22.47 70.01 21.36 70.41 C 22.23 66.30 22.67 62.43 24.59 58.63 C 26.52 54.38 29.67 50.30 30.85 45.80 C 31.58 43.78 29.09 41.87 28.02 40.40 C 28.59 39.75 29.15 39.11 29.73 38.47 C 35.40 35.95 40.93 36.60 46.91 37.07 C 44.81 35.61 42.57 34.48 40.22 33.47 C 46.34 34.99 51.64 37.22 56.44 41.40 C 54.39 40.65 52.37 39.81 50.30 39.11 C 50.54 43.72 54.38 47.96 58.77 49.21 C 64.00 51.39 69.22 49.43 74.40 51.83 C 75.06 50.29 75.79 48.72 76.25 47.11 C 75.23 45.11 73.47 44.43 71.73 43.22 C 67.95 40.94 66.44 36.75 62.73 34.27 C 57.89 30.80 50.84 27.68 44.85 29.21 L 44.22 29.31 C 42.31 28.54 40.45 27.65 38.58 26.79 C 47.48 22.72 57.63 24.21 65.84 29.16 C 71.91 32.56 76.61 37.15 84.00 37.12 C 89.80 37.49 92.97 34.18 97.89 31.89 C 110.69 25.30 126.10 22.86 140.28 21.32 Z" fill="#f1f1f0" />
<path d="M 153.00 27.64 C 160.92 27.42 168.48 29.09 176.09 31.05 C 179.29 31.78 182.06 34.32 184.93 35.90 C 191.47 39.27 198.00 42.82 204.25 46.69 C 204.93 47.96 205.56 49.26 206.19 50.55 C 202.10 49.56 198.40 47.75 194.54 46.16 C 193.81 46.49 193.08 46.83 192.36 47.18 C 187.43 43.86 181.81 39.89 175.80 39.12 C 171.91 38.43 168.49 36.50 164.72 35.51 C 160.57 35.41 156.58 34.76 152.48 34.17 C 145.70 33.43 138.72 33.55 131.90 33.61 C 124.01 33.31 116.24 35.96 108.32 36.59 C 103.20 36.96 98.85 37.96 94.03 39.68 C 100.05 37.39 105.83 34.69 112.09 33.08 C 125.33 28.85 139.13 27.26 153.00 27.64 Z" fill="#232440" />
<path d="M 44.22 29.31 L 44.85 29.21 C 47.48 31.28 49.80 32.16 52.95 33.19 C 56.29 34.20 57.79 37.05 59.82 39.64 C 58.69 40.22 57.57 40.81 56.44 41.40 C 51.64 37.22 46.34 34.99 40.22 33.47 C 42.57 34.48 44.81 35.61 46.91 37.07 C 40.93 36.60 35.40 35.95 29.73 38.47 C 31.79 36.18 33.50 33.76 36.25 32.28 C 38.75 30.94 41.48 30.01 44.22 29.31 Z" fill="#6e3b5a" />
<path d="M 44.85 29.21 C 50.84 27.68 57.89 30.80 62.73 34.27 C 66.44 36.75 67.95 40.94 71.73 43.22 C 73.47 44.43 75.23 45.11 76.25 47.11 C 75.79 48.72 75.06 50.29 74.40 51.83 C 69.22 49.43 64.00 51.39 58.77 49.21 C 58.40 46.37 57.71 43.96 56.44 41.40 C 57.57 40.81 58.69 40.22 59.82 39.64 C 57.79 37.05 56.29 34.20 52.95 33.19 C 49.80 32.16 47.48 31.28 44.85 29.21 Z" fill="#21233f" />
<path d="M 132.45 30.29 C 133.25 29.40 135.28 29.35 135.44 30.81 C 135.08 32.58 131.19 32.49 132.45 30.29 Z" fill="#8b8e9e" />
<path d="M 152.48 34.17 C 156.58 34.76 160.57 35.41 164.72 35.51 C 168.49 36.50 171.91 38.43 175.80 39.12 C 181.81 39.89 187.43 43.86 192.36 47.18 L 191.69 47.48 L 190.20 47.66 C 185.32 46.16 180.65 44.17 176.05 41.99 C 174.02 41.00 171.89 40.84 169.68 40.68 C 171.89 43.17 174.30 45.45 176.77 47.68 C 173.14 51.11 169.00 53.57 164.60 55.86 C 162.22 53.95 159.65 52.86 156.60 52.53 C 155.44 52.41 154.28 52.30 153.11 52.18 C 152.14 49.83 151.20 47.47 150.21 45.13 C 146.26 43.71 143.35 42.03 140.22 39.25 C 142.66 38.89 145.10 38.56 147.53 38.14 C 150.50 37.53 151.46 37.19 152.48 34.17 Z" fill="#f2efcc" />
<path d="M 140.57 35.28 C 142.92 36.16 145.23 37.13 147.53 38.14 C 145.10 38.56 142.66 38.89 140.22 39.25 C 143.35 42.03 146.26 43.71 150.21 45.13 C 151.20 47.47 152.14 49.83 153.11 52.18 C 152.18 52.08 151.26 51.96 150.34 51.82 C 146.22 50.62 142.46 49.06 138.15 48.53 C 131.11 47.61 123.96 47.14 116.86 47.49 C 115.37 47.57 113.99 47.96 112.56 48.32 C 109.76 47.84 107.05 47.04 104.35 46.18 C 105.78 44.38 107.33 41.51 109.63 40.76 C 114.68 39.12 119.42 40.04 124.52 40.51 C 130.19 41.17 135.77 39.20 141.36 38.04 C 141.09 37.12 140.83 36.20 140.57 35.28 Z" fill="#f4f3db" />
<path d="M 50.30 39.11 C 52.37 39.81 54.39 40.65 56.44 41.40 C 57.71 43.96 58.40 46.37 58.77 49.21 C 54.38 47.96 50.54 43.72 50.30 39.11 Z" fill="#814b64" />
<path d="M 176.05 41.99 C 180.65 44.17 185.32 46.16 190.20 47.66 C 187.45 49.04 184.08 50.61 182.22 53.12 C 180.43 55.51 178.95 58.12 177.26 60.59 C 172.93 58.32 168.48 59.17 164.60 55.86 C 169.00 53.57 173.14 51.11 176.77 47.68 C 174.30 45.45 171.89 43.17 169.68 40.68 C 171.89 40.84 174.02 41.00 176.05 41.99 Z" fill="#eee7b6" />
<path d="M 194.54 46.16 C 198.40 47.75 202.10 49.56 206.19 50.55 C 205.56 49.26 204.93 47.96 204.25 46.69 C 206.20 47.93 208.57 49.07 210.11 50.83 C 210.46 51.97 211.02 52.56 209.79 53.35 C 206.15 52.49 202.59 51.42 198.91 50.72 C 196.46 49.74 194.08 48.60 191.69 47.48 L 192.36 47.18 C 193.08 46.83 193.81 46.49 194.54 46.16 Z" fill="#909094" />
<path d="M 116.86 47.49 C 123.96 47.14 131.11 47.61 138.15 48.53 C 142.46 49.06 146.22 50.62 150.34 51.82 C 149.64 53.16 148.99 54.52 148.33 55.88 C 153.78 56.82 158.73 59.21 164.25 59.81 C 161.61 57.61 158.70 56.16 155.47 55.06 C 155.85 54.22 156.23 53.38 156.60 52.53 C 159.65 52.86 162.22 53.95 164.60 55.86 C 168.48 59.17 172.93 58.32 177.26 60.59 C 180.31 62.22 184.15 63.64 186.49 66.22 C 186.70 67.33 186.79 68.46 186.91 69.58 C 187.82 69.05 188.73 68.51 189.64 67.98 C 193.25 71.51 196.61 75.29 200.29 78.74 C 202.94 81.44 205.99 84.65 207.14 88.33 C 209.49 96.76 214.43 104.12 216.99 112.52 C 217.49 114.60 217.87 116.69 218.26 118.79 C 216.13 121.08 214.35 123.62 212.62 126.22 C 212.20 126.23 211.79 126.24 211.38 126.26 C 210.30 125.54 209.23 124.82 208.15 124.10 C 208.23 125.75 208.30 127.40 208.44 129.05 C 208.80 130.10 209.21 131.13 209.61 132.16 C 210.95 130.79 212.30 129.42 213.61 128.02 C 214.13 129.12 214.64 130.22 215.15 131.32 C 213.15 132.26 211.12 133.12 209.07 133.93 C 209.03 134.89 208.99 135.86 208.96 136.82 C 210.12 137.22 211.28 137.62 212.44 138.01 C 214.94 135.72 217.52 134.02 220.57 132.52 C 220.96 135.49 221.09 138.62 220.67 141.59 C 219.76 143.01 218.33 144.15 216.98 145.12 C 216.22 144.55 215.49 143.95 214.79 143.30 C 214.52 142.66 214.22 142.03 213.91 141.41 C 211.75 142.84 211.58 144.19 214.22 145.18 C 213.76 146.52 213.33 147.87 212.92 149.22 C 214.67 148.14 216.38 147.01 218.11 145.89 C 218.95 147.07 219.80 148.26 220.65 149.44 C 219.55 153.03 218.02 156.41 216.65 159.89 C 213.06 161.02 210.69 163.45 208.33 166.26 C 207.68 166.15 207.03 166.04 206.38 165.92 C 207.36 165.22 208.35 164.52 209.33 163.83 C 207.84 161.43 206.28 159.08 204.52 156.87 C 205.18 153.53 206.62 151.34 208.87 148.86 C 207.59 148.59 206.31 148.32 205.02 148.08 C 204.22 150.70 203.56 153.36 202.94 156.02 C 202.38 158.31 201.88 160.81 200.78 162.90 C 199.49 165.09 196.66 166.52 194.58 167.85 C 194.94 164.48 195.68 161.17 196.15 157.81 C 196.19 155.51 195.40 153.19 195.18 150.89 C 194.58 145.18 194.57 139.42 194.09 133.70 C 193.81 128.88 192.71 124.24 192.99 119.37 C 193.16 116.98 192.41 115.00 191.32 112.91 C 190.85 111.96 190.40 111.00 189.97 110.03 C 189.80 109.26 189.64 108.48 189.48 107.70 C 191.27 108.04 193.06 108.39 194.85 108.74 C 195.51 107.63 196.16 106.52 196.81 105.41 C 195.50 104.08 194.18 102.75 192.87 101.41 C 193.06 99.97 193.25 98.52 193.44 97.07 C 189.58 95.70 185.59 94.71 181.77 93.24 C 181.24 92.32 180.73 91.39 180.22 90.45 C 179.51 91.42 178.84 92.42 178.16 93.41 C 174.65 88.10 170.73 83.22 165.47 79.54 C 158.78 74.98 153.59 69.49 146.34 65.65 C 142.47 63.48 137.99 62.38 133.65 61.11 C 129.86 60.10 126.02 59.45 122.17 58.68 C 120.15 58.25 118.13 57.83 116.09 57.49 C 112.91 56.39 109.74 55.52 106.43 54.95 C 106.93 56.06 107.46 57.17 107.98 58.27 C 107.65 58.91 107.31 59.55 106.97 60.19 C 105.79 60.04 104.61 59.85 103.43 59.64 C 102.41 58.40 101.43 56.88 100.10 55.94 C 98.18 55.42 96.08 55.42 94.10 55.26 C 97.75 54.35 101.26 53.85 105.02 54.40 C 105.37 52.89 105.72 51.39 106.08 49.88 C 108.30 49.57 110.43 49.01 112.56 48.32 C 113.99 47.96 115.37 47.57 116.86 47.49 Z" fill="#21233f" />
<path d="M 190.20 47.66 L 191.69 47.48 C 193.07 48.67 194.42 49.90 195.75 51.14 C 195.46 52.01 195.15 52.85 194.98 53.75 C 195.68 55.03 196.72 56.15 197.63 57.29 C 195.42 58.36 193.23 59.45 191.03 60.55 C 192.02 62.27 193.02 63.99 194.03 65.70 C 192.92 65.71 191.83 65.72 190.72 65.77 C 190.34 66.50 189.99 67.24 189.64 67.98 C 188.73 68.51 187.82 69.05 186.91 69.58 C 186.79 68.46 186.70 67.33 186.49 66.22 C 184.15 63.64 180.31 62.22 177.26 60.59 C 178.95 58.12 180.43 55.51 182.22 53.12 C 184.08 50.61 187.45 49.04 190.20 47.66 Z" fill="#e7db9c" />
<path d="M 191.69 47.48 C 194.08 48.60 196.46 49.74 198.91 50.72 C 200.37 51.73 202.17 52.83 203.12 54.37 C 203.66 56.10 203.61 58.07 203.57 59.88 C 203.27 60.87 202.95 61.87 202.63 62.86 C 203.76 63.98 204.88 65.10 206.02 66.22 C 203.87 66.87 201.71 67.49 199.55 68.10 C 199.84 67.20 200.13 66.30 200.42 65.41 C 198.30 65.58 196.17 65.68 194.03 65.70 C 193.02 63.99 192.02 62.27 191.03 60.55 C 193.23 59.45 195.42 58.36 197.63 57.29 C 196.72 56.15 195.68 55.03 194.98 53.75 C 195.15 52.85 195.46 52.01 195.75 51.14 C 194.42 49.90 193.07 48.67 191.69 47.48 Z" fill="#ede7b4" />
<path d="M 126.19 49.01 L 126.92 48.60 L 127.64 49.02 L 127.65 49.85 L 126.93 50.25 L 126.20 49.84 L 126.19 49.01 Z" fill="#bbc0ca" />
<path d="M 106.08 49.88 C 105.72 51.39 105.37 52.89 105.02 54.40 C 101.26 53.85 97.75 54.35 94.10 55.26 C 96.08 55.42 98.18 55.42 100.10 55.94 C 101.43 56.88 102.41 58.40 103.43 59.64 C 101.79 60.08 100.14 60.49 98.44 60.69 C 97.92 59.61 97.40 58.54 96.88 57.46 C 92.54 57.59 88.32 57.65 84.07 58.66 C 83.26 58.85 82.45 59.04 81.64 59.24 C 77.58 59.81 73.66 59.85 69.62 59.01 C 73.83 57.72 77.95 56.74 81.76 54.40 C 85.30 52.22 89.03 52.74 93.00 51.78 C 97.31 50.72 101.69 50.42 106.08 49.88 Z" fill="#505161" />
<path d="M 56.76 52.18 C 62.79 53.66 66.72 57.63 70.49 62.29 C 69.08 63.53 67.68 64.76 66.29 66.02 C 67.93 66.93 69.58 67.81 71.23 68.68 C 69.80 69.30 68.37 70.01 66.87 70.46 C 63.59 69.44 60.75 67.25 57.06 66.83 C 54.18 66.59 51.61 67.83 48.77 67.53 C 49.56 66.63 50.35 65.74 51.14 64.84 C 50.66 63.90 50.19 62.97 49.71 62.04 C 46.15 61.88 42.69 62.01 39.27 63.07 C 37.20 63.63 35.15 64.28 33.07 64.84 C 33.66 63.18 34.16 61.46 34.61 59.75 C 32.61 61.58 31.18 63.70 29.83 66.04 C 28.30 68.53 26.59 70.90 24.79 73.20 C 24.79 71.65 24.81 70.11 24.88 68.57 C 26.02 66.06 26.77 62.72 29.01 61.04 C 31.66 58.81 34.38 56.35 37.50 54.82 C 40.17 54.35 42.87 54.22 45.51 53.52 C 49.48 52.69 52.61 50.96 56.76 52.18 Z" fill="#21233f" />
<path d="M 150.34 51.82 C 151.26 51.96 152.18 52.08 153.11 52.18 C 154.28 52.30 155.44 52.41 156.60 52.53 C 156.23 53.38 155.85 54.22 155.47 55.06 C 158.70 56.16 161.61 57.61 164.25 59.81 C 158.73 59.21 153.78 56.82 148.33 55.88 C 148.99 54.52 149.64 53.16 150.34 51.82 Z" fill="#8d8e89" />
<path d="M 106.43 54.95 C 109.74 55.52 112.91 56.39 116.09 57.49 C 113.02 58.27 110.05 59.44 106.97 60.19 C 107.31 59.55 107.65 58.91 107.98 58.27 C 107.46 57.17 106.93 56.06 106.43 54.95 Z" fill="#8c8d90" />
<path d="M 45.56 55.97 C 42.92 58.50 39.79 58.92 36.34 59.39 C 39.40 57.14 41.69 56.20 45.56 55.97 Z" fill="#717389" />
<path d="M 79.26 56.32 C 80.90 55.27 82.15 57.37 80.95 58.65 C 79.32 59.67 78.07 57.59 79.26 56.32 Z" fill="#282639" />
<path d="M 122.17 58.68 C 121.85 59.65 121.53 60.63 121.22 61.61 C 125.76 62.06 129.57 64.03 133.65 61.11 C 137.99 62.38 142.47 63.48 146.34 65.65 C 153.59 69.49 158.78 74.98 165.47 79.54 C 170.73 83.22 174.65 88.10 178.16 93.41 L 178.66 94.12 C 174.21 92.13 172.37 88.43 168.54 85.41 C 164.65 82.31 160.69 79.31 156.88 76.11 C 155.02 74.46 152.87 73.73 150.50 73.15 C 154.62 77.29 159.52 80.43 163.81 84.39 C 160.51 85.70 157.59 87.03 153.95 86.03 C 149.07 85.05 146.70 81.59 142.66 79.27 C 139.54 77.91 135.67 77.98 132.32 77.63 C 132.99 78.89 133.65 80.15 134.27 81.44 L 133.15 81.01 C 130.15 79.56 127.16 77.91 124.03 76.76 C 122.11 76.06 120.16 75.45 118.19 74.91 C 116.62 74.47 115.07 73.97 113.50 73.52 L 114.90 72.11 C 110.66 71.50 106.39 71.31 102.13 70.83 C 100.75 70.39 99.40 69.89 98.04 69.39 C 97.70 67.93 97.35 66.48 97.00 65.02 C 95.89 64.60 94.79 64.18 93.68 63.76 C 93.93 63.23 94.18 62.69 94.43 62.16 C 92.93 61.87 91.43 61.58 89.93 61.26 C 89.33 60.73 88.73 60.21 88.12 59.69 C 91.57 60.75 94.85 61.20 98.44 60.69 C 100.14 60.49 101.79 60.08 103.43 59.64 C 104.61 59.85 105.79 60.04 106.97 60.19 C 110.05 59.44 113.02 58.27 116.09 57.49 C 118.13 57.83 120.15 58.25 122.17 58.68 Z" fill="#f5f1ca" />
<path d="M 96.88 57.46 C 97.40 58.54 97.92 59.61 98.44 60.69 C 94.85 61.20 91.57 60.75 88.12 59.69 C 86.78 59.29 85.44 58.94 84.07 58.66 C 88.32 57.65 92.54 57.59 96.88 57.46 Z" fill="#bab9b0" />
<path d="M 84.07 58.66 C 85.44 58.94 86.78 59.29 88.12 59.69 C 88.73 60.21 89.33 60.73 89.93 61.26 C 91.43 61.58 92.93 61.87 94.43 62.16 C 94.18 62.69 93.93 63.23 93.68 63.76 C 94.79 64.18 95.89 64.60 97.00 65.02 C 97.35 66.48 97.70 67.93 98.04 69.39 C 99.40 69.89 100.75 70.39 102.13 70.83 C 97.20 70.41 91.97 69.50 87.11 70.09 C 83.46 70.52 79.85 71.27 76.24 71.87 C 75.86 71.29 75.48 70.70 75.10 70.11 C 76.16 67.88 77.04 65.21 78.70 63.35 C 80.48 61.85 82.86 60.97 84.93 59.92 C 83.84 59.68 82.74 59.46 81.64 59.24 C 82.45 59.04 83.26 58.85 84.07 58.66 Z" fill="#f2f1d8" />
<path d="M 122.17 58.68 C 126.02 59.45 129.86 60.10 133.65 61.11 C 129.57 64.03 125.76 62.06 121.22 61.61 C 121.53 60.63 121.85 59.65 122.17 58.68 Z" fill="#b1b1a6" />
<path d="M 203.57 59.88 C 211.63 65.79 218.39 73.79 224.00 82.02 C 227.31 86.81 228.89 92.10 230.55 97.63 C 231.48 100.60 231.59 103.62 231.44 106.70 C 230.09 106.19 228.74 105.67 227.39 105.15 C 226.84 112.45 229.85 118.79 230.16 126.00 C 230.49 130.99 231.48 135.87 232.14 140.82 C 230.88 140.75 229.62 140.68 228.35 140.62 C 228.28 138.24 228.45 135.87 228.46 133.50 C 228.59 128.54 225.68 124.41 225.88 119.38 C 225.94 115.46 225.46 111.67 224.80 107.81 C 224.65 104.04 223.99 101.25 222.24 97.89 C 218.67 91.13 218.67 83.63 214.96 77.02 C 212.62 72.79 209.43 69.56 206.02 66.22 C 204.88 65.10 203.76 63.98 202.63 62.86 C 202.95 61.87 203.27 60.87 203.57 59.88 Z" fill="#f9f7dc" />
<path d="M 49.71 62.04 C 50.19 62.97 50.66 63.90 51.14 64.84 C 50.35 65.74 49.56 66.63 48.77 67.53 C 47.99 67.14 47.21 66.75 46.44 66.34 C 45.46 65.23 44.48 63.95 43.28 63.06 C 41.98 62.84 40.58 62.97 39.27 63.07 C 42.69 62.01 46.15 61.88 49.71 62.04 Z" fill="#482947" />
<path d="M 39.27 63.07 C 40.58 62.97 41.98 62.84 43.28 63.06 C 44.48 63.95 45.46 65.23 46.44 66.34 C 45.04 67.13 43.61 67.96 42.12 68.54 C 40.80 67.71 39.65 66.68 38.51 65.62 C 36.32 66.17 34.14 66.72 31.97 67.29 C 32.34 66.48 32.71 65.66 33.07 64.84 C 35.15 64.28 37.20 63.63 39.27 63.07 Z" fill="#884567" />
<path d="M 190.72 65.77 C 191.83 65.72 192.92 65.71 194.03 65.70 C 196.17 65.68 198.30 65.58 200.42 65.41 C 200.13 66.30 199.84 67.20 199.55 68.10 C 201.71 67.49 203.87 66.87 206.02 66.22 C 209.43 69.56 212.62 72.79 214.96 77.02 C 218.67 83.63 218.67 91.13 222.24 97.89 C 223.99 101.25 224.65 104.04 224.80 107.81 C 224.58 110.46 224.29 113.11 224.05 115.75 C 221.72 114.63 219.37 113.54 216.99 112.52 C 214.43 104.12 209.49 96.76 207.14 88.33 C 205.99 84.65 202.94 81.44 200.29 78.74 C 196.61 75.29 193.25 71.51 189.64 67.98 C 189.99 67.24 190.34 66.50 190.72 65.77 Z" fill="#decc87" />
<path d="M 29.83 66.04 C 30.59 67.32 31.32 68.62 32.04 69.92 C 29.68 72.45 27.49 75.06 24.93 77.40 C 24.39 74.53 24.28 71.99 24.66 69.09 L 24.88 68.57 C 24.81 70.11 24.79 71.65 24.79 73.20 C 26.59 70.90 28.30 68.53 29.83 66.04 Z" fill="#874961" />
<path d="M 141.65 67.17 C 145.22 68.13 147.54 69.54 150.18 72.10 C 146.77 71.12 144.10 69.77 141.65 67.17 Z" fill="#d3d0b1" />
<path d="M 180.10 67.83 C 185.15 70.33 188.19 74.48 191.59 78.78 C 190.39 79.60 189.19 80.42 187.99 81.24 C 187.09 80.59 186.19 79.93 185.29 79.27 C 187.00 79.46 187.17 78.90 185.82 77.61 C 186.15 77.06 186.48 76.51 186.80 75.95 C 184.18 73.54 181.85 70.96 180.10 67.83 Z" fill="#606272" />
<path d="M 93.02 72.69 C 100.12 72.19 106.46 72.48 113.50 73.52 C 115.07 73.97 116.62 74.47 118.19 74.91 C 118.49 77.52 118.89 80.09 119.28 82.69 C 118.10 83.60 116.92 84.51 115.74 85.42 C 113.77 84.33 112.02 82.99 110.15 81.76 C 108.16 80.17 106.47 80.66 104.14 80.88 C 99.40 81.37 95.26 78.65 90.37 79.45 C 87.26 80.04 84.21 80.58 81.03 80.56 C 78.11 80.82 75.53 80.15 73.36 82.53 C 71.78 81.39 70.20 80.23 68.58 79.15 C 66.41 82.33 66.17 83.83 66.86 87.67 C 61.16 87.82 55.93 87.19 50.35 89.18 C 48.76 89.82 47.40 91.28 46.17 92.43 C 47.66 92.20 49.13 91.89 50.60 91.54 C 50.20 92.42 49.82 93.31 49.45 94.20 C 47.86 93.61 46.38 92.80 44.89 91.99 L 44.24 93.08 C 42.10 94.41 39.91 95.57 37.68 96.75 C 40.16 93.32 42.91 90.12 45.50 86.78 C 43.09 87.07 40.39 86.83 38.38 88.37 C 34.88 90.78 33.78 94.27 32.28 98.01 C 31.89 97.36 31.50 96.71 31.10 96.06 C 31.36 94.80 31.68 93.55 32.02 92.31 C 32.62 90.29 33.07 87.94 34.23 86.17 C 35.16 85.07 36.66 84.42 37.88 83.66 C 37.62 83.18 37.36 82.69 37.11 82.21 C 41.55 77.95 46.15 74.65 52.37 73.63 C 52.47 74.24 52.57 74.86 52.66 75.48 C 55.45 74.57 58.06 74.24 60.99 74.36 C 64.05 74.31 67.19 76.30 69.91 77.54 C 77.16 73.69 84.86 72.27 93.02 72.69 Z" fill="#20223f" />
<path d="M 156.88 76.11 C 160.69 79.31 164.65 82.31 168.54 85.41 C 172.37 88.43 174.21 92.13 178.66 94.12 C 179.86 95.78 181.14 97.38 182.31 99.06 L 182.06 100.14 C 181.02 99.91 180.00 99.66 178.97 99.40 C 178.10 100.33 177.25 101.25 176.39 102.18 C 174.36 101.25 171.88 100.34 170.33 98.68 C 168.79 97.05 167.59 95.00 166.38 93.12 C 165.90 94.13 165.42 95.14 164.95 96.16 C 158.79 94.05 153.72 89.27 147.44 89.81 C 142.79 86.65 138.24 83.44 133.15 81.01 L 134.27 81.44 C 133.65 80.15 132.99 78.89 132.32 77.63 C 135.67 77.98 139.54 77.91 142.66 79.27 C 146.70 81.59 149.07 85.05 153.95 86.03 C 157.59 87.03 160.51 85.70 163.81 84.39 C 159.52 80.43 154.62 77.29 150.50 73.15 C 152.87 73.73 155.02 74.46 156.88 76.11 Z" fill="#efe7b2" />
<path d="M 118.19 74.91 C 120.16 75.45 122.11 76.06 124.03 76.76 C 123.34 76.77 122.65 76.79 121.95 76.83 C 121.83 80.21 121.59 83.56 120.99 86.90 C 119.23 86.44 117.47 85.99 115.74 85.42 C 116.92 84.51 118.10 83.60 119.28 82.69 C 118.89 80.09 118.49 77.52 118.19 74.91 Z" fill="#4b4a5b" />
<path d="M 121.95 76.83 C 122.65 76.79 123.34 76.77 124.03 76.76 C 127.16 77.91 130.15 79.56 133.15 81.01 C 138.24 83.44 142.79 86.65 147.44 89.81 C 147.99 90.67 148.57 91.53 149.16 92.38 C 147.53 93.72 145.73 94.83 145.12 96.96 C 144.39 99.02 145.18 100.74 145.68 102.73 C 145.21 103.08 144.74 103.44 144.28 103.80 C 145.51 105.07 146.76 106.33 147.99 107.60 C 149.91 103.98 151.72 100.47 154.87 97.75 C 156.50 99.98 157.80 102.26 159.72 104.27 C 162.15 106.91 164.83 108.67 165.78 112.36 C 167.37 118.60 171.30 123.53 172.37 129.92 C 172.70 131.34 173.06 132.76 173.43 134.18 C 172.86 134.59 172.30 134.99 171.73 135.39 C 171.28 133.19 170.79 131.00 170.29 128.80 C 169.53 129.77 168.76 130.73 167.99 131.70 C 165.66 128.75 163.59 125.69 161.67 122.45 C 161.59 124.26 161.51 126.06 161.43 127.87 C 159.95 125.77 158.45 123.17 156.33 121.68 C 155.16 121.14 153.75 121.06 152.49 120.84 C 151.01 118.30 149.71 115.56 148.31 112.99 C 145.48 108.81 142.08 104.75 138.83 100.87 C 134.50 97.55 130.46 94.08 126.88 89.95 C 125.35 87.98 123.28 87.51 120.99 86.90 C 121.59 83.56 121.83 80.21 121.95 76.83 Z" fill="#242641" />
<path d="M 185.82 77.61 C 187.17 78.90 187.00 79.46 185.29 79.27 L 185.82 77.61 Z" fill="#c2c5d2" />
<path d="M 68.58 79.15 C 70.20 80.23 71.78 81.39 73.36 82.53 C 71.35 84.46 69.21 86.17 66.86 87.67 C 66.17 83.83 66.41 82.33 68.58 79.15 Z" fill="#4e4e64" />
<path d="M 90.37 79.45 C 95.26 78.65 99.40 81.37 104.14 80.88 C 97.56 81.72 91.23 81.92 84.84 83.97 C 79.55 85.49 74.88 88.45 69.65 90.02 C 67.69 90.71 65.99 90.14 64.11 89.60 C 59.34 91.57 54.57 93.35 49.45 94.20 C 49.82 93.31 50.20 92.42 50.60 91.54 C 49.13 91.89 47.66 92.20 46.17 92.43 C 47.40 91.28 48.76 89.82 50.35 89.18 C 55.93 87.19 61.16 87.82 66.86 87.67 C 69.21 86.17 71.35 84.46 73.36 82.53 C 75.53 80.15 78.11 80.82 81.03 80.56 C 84.21 80.58 87.26 80.04 90.37 79.45 Z" fill="#e5e5da" />
<path d="M 104.14 80.88 C 106.47 80.66 108.16 80.17 110.15 81.76 C 109.93 83.47 109.82 85.19 109.56 86.89 C 106.17 87.72 102.88 88.73 99.63 90.01 C 95.81 89.28 91.23 85.69 87.87 88.78 C 83.53 91.47 79.34 94.11 75.48 97.49 C 72.72 100.00 71.04 103.12 69.32 106.36 C 67.63 107.94 65.85 109.42 64.01 110.81 C 57.63 115.46 52.00 120.30 50.67 128.51 C 50.37 127.80 50.06 127.10 49.74 126.39 C 48.94 125.17 48.03 124.04 47.14 122.88 C 50.18 119.14 53.32 115.41 56.16 111.53 C 52.17 110.45 48.48 108.94 44.30 108.64 C 45.43 113.33 47.11 118.52 46.63 123.36 C 44.53 123.81 42.34 123.98 40.20 124.22 C 39.82 124.76 39.44 125.29 39.06 125.82 C 40.12 127.44 41.15 129.05 41.92 130.82 C 37.53 136.64 37.04 142.95 34.74 149.60 C 32.94 154.64 32.91 160.33 32.55 165.71 C 32.37 168.64 33.16 171.24 33.91 174.02 C 32.74 175.11 31.60 176.24 30.45 177.34 C 31.14 180.48 31.76 183.92 33.15 186.83 C 34.53 189.68 37.41 191.84 39.90 193.69 C 39.82 195.68 39.81 197.66 39.68 199.65 C 37.37 199.91 34.92 199.82 32.99 201.31 C 31.66 205.67 29.99 210.60 30.57 215.20 C 32.98 213.05 35.69 211.22 37.90 208.88 C 38.86 208.03 39.83 206.90 41.15 206.70 C 44.62 206.15 48.21 206.34 51.71 206.12 C 52.15 208.37 51.75 212.41 54.52 213.20 C 57.92 213.87 61.82 212.71 65.24 212.34 C 72.23 211.92 79.18 211.29 86.16 210.91 L 86.80 211.12 C 91.93 213.34 97.85 214.55 102.57 217.45 C 104.90 218.88 106.19 220.91 107.88 222.97 C 107.24 224.01 106.62 225.06 105.99 226.10 C 96.42 224.02 89.85 218.96 80.04 218.93 C 69.11 219.03 58.07 219.47 47.08 218.72 C 43.06 218.37 39.06 218.10 35.02 218.19 C 32.26 218.18 28.74 218.39 26.34 216.80 C 24.73 215.53 23.70 213.40 22.60 211.70 C 24.35 210.42 26.29 209.39 27.98 208.04 C 29.77 205.86 30.95 203.16 32.51 200.81 C 31.87 200.30 31.23 199.80 30.58 199.31 C 28.88 199.64 27.22 200.12 25.55 200.59 L 26.22 199.54 C 24.90 199.87 23.59 200.19 22.27 200.51 C 22.70 197.39 23.28 194.32 24.20 191.30 C 26.43 184.01 26.52 176.51 26.16 168.96 C 25.74 161.75 27.50 154.79 27.51 147.57 C 27.66 140.57 31.04 135.63 33.05 129.16 C 34.59 124.30 36.54 119.91 36.96 114.91 C 35.76 114.92 34.57 114.87 33.38 114.73 C 34.83 110.46 35.01 106.47 37.69 102.69 C 39.98 99.53 42.47 96.60 44.24 93.08 L 44.89 91.99 C 46.38 92.80 47.86 93.61 49.45 94.20 C 54.57 93.35 59.34 91.57 64.11 89.60 C 65.99 90.14 67.69 90.71 69.65 90.02 C 74.88 88.45 79.55 85.49 84.84 83.97 C 91.23 81.92 97.56 81.72 104.14 80.88 Z" fill="#f1f1f0" />
<path d="M 110.15 81.76 C 112.02 82.99 113.77 84.33 115.74 85.42 C 117.47 85.99 119.23 86.44 120.99 86.90 C 123.28 87.51 125.35 87.98 126.88 89.95 C 130.46 94.08 134.50 97.55 138.83 100.87 C 136.73 102.27 134.30 103.63 132.64 105.55 C 131.49 107.40 131.35 109.96 130.89 112.06 C 125.14 113.30 119.95 115.22 114.70 117.85 C 119.70 112.29 124.50 106.05 128.87 99.99 C 129.24 99.45 129.60 98.92 129.97 98.40 C 131.70 99.29 133.44 100.17 135.19 101.03 C 133.19 98.65 131.63 96.05 128.52 95.05 C 125.28 93.96 122.02 92.94 118.81 91.75 C 118.31 94.35 118.37 97.69 116.90 99.92 C 115.49 102.03 111.96 100.26 109.98 100.08 C 106.71 104.36 104.86 109.31 101.25 113.32 L 101.52 111.47 C 102.97 108.83 104.81 106.07 104.71 102.94 C 104.96 99.34 102.33 96.25 100.88 93.05 C 103.07 92.40 105.40 91.85 107.47 90.86 C 108.97 90.36 109.16 88.19 109.56 86.89 C 109.82 85.19 109.93 83.47 110.15 81.76 Z" fill="#d9d2a0" />
<path d="M 45.50 86.78 C 42.91 90.12 40.16 93.32 37.68 96.75 C 39.91 95.57 42.10 94.41 44.24 93.08 C 42.47 96.60 39.98 99.53 37.69 102.69 C 35.01 106.47 34.83 110.46 33.38 114.73 C 30.99 108.65 31.21 102.51 31.10 96.06 C 31.50 96.71 31.89 97.36 32.28 98.01 C 33.78 94.27 34.88 90.78 38.38 88.37 C 40.39 86.83 43.09 87.07 45.50 86.78 Z" fill="#7c3e5b" />
<path d="M 109.56 86.89 C 109.16 88.19 108.97 90.36 107.47 90.86 C 105.40 91.85 103.07 92.40 100.88 93.05 C 100.43 92.05 100.03 91.03 99.63 90.01 C 102.88 88.73 106.17 87.72 109.56 86.89 Z" fill="#eee7b8" />
<path d="M 99.63 90.01 C 100.03 91.03 100.43 92.05 100.88 93.05 C 102.33 96.25 104.96 99.34 104.71 102.94 C 104.81 106.07 102.97 108.83 101.52 111.47 C 97.94 114.14 94.20 113.81 89.97 113.95 C 88.74 112.15 87.08 110.13 86.63 107.97 C 86.85 105.76 88.16 103.54 89.12 101.56 C 90.95 101.96 92.79 102.19 94.65 102.45 C 94.92 103.62 95.19 104.80 95.46 105.97 C 93.49 107.06 91.54 108.18 89.64 109.40 C 92.03 110.82 93.74 112.48 96.66 110.97 C 102.29 108.74 101.71 100.44 97.85 96.86 C 96.36 95.39 93.98 92.97 91.85 94.74 C 85.86 98.94 79.70 101.04 74.88 106.70 C 75.53 107.49 76.18 108.28 76.83 109.07 C 79.55 112.31 82.40 115.36 84.72 118.91 C 86.79 122.70 90.45 123.65 94.36 124.61 C 95.67 124.94 96.64 124.34 97.78 123.81 C 103.50 120.66 109.22 118.48 113.76 113.56 C 116.94 110.83 119.89 107.98 122.51 104.70 C 124.65 102.49 126.76 100.28 129.01 98.19 L 128.87 99.99 C 124.50 106.05 119.70 112.29 114.70 117.85 C 113.22 118.67 111.74 119.49 110.25 120.30 C 108.85 123.92 106.04 125.97 102.96 128.10 C 101.44 129.02 99.92 129.95 98.35 130.77 C 97.13 130.39 95.87 129.96 94.61 129.76 C 93.11 130.23 91.75 131.28 90.42 132.11 C 88.25 130.94 85.76 129.81 83.99 128.05 C 82.71 125.14 82.58 121.75 81.53 118.72 C 80.09 116.44 78.23 114.55 76.09 112.92 C 73.45 110.97 71.35 108.95 69.32 106.36 C 71.04 103.12 72.72 100.00 75.48 97.49 C 79.34 94.11 83.53 91.47 87.87 88.78 C 91.23 85.69 95.81 89.28 99.63 90.01 Z" fill="#22233d" />
<path d="M 164.95 96.16 C 165.42 95.14 165.90 94.13 166.38 93.12 C 167.59 95.00 168.79 97.05 170.33 98.68 C 171.88 100.34 174.36 101.25 176.39 102.18 C 177.25 101.25 178.10 100.33 178.97 99.40 C 180.00 99.66 181.02 99.91 182.06 100.14 L 182.31 99.06 L 183.41 100.61 C 184.12 101.95 184.87 103.26 185.61 104.59 C 185.39 106.28 185.21 107.95 185.45 109.66 C 186.29 112.84 187.29 115.97 188.11 119.16 C 188.59 122.15 189.08 125.14 189.62 128.13 C 186.28 129.66 183.96 129.84 180.37 129.21 C 177.44 128.89 174.97 128.04 172.37 129.92 C 171.30 123.53 167.37 118.60 165.78 112.36 C 164.83 108.67 162.15 106.91 159.72 104.27 C 157.80 102.26 156.50 99.98 154.87 97.75 C 153.10 95.76 151.14 94.16 149.16 92.38 C 148.57 91.53 147.99 90.67 147.44 89.81 C 153.72 89.27 158.79 94.05 164.95 96.16 Z" fill="#decc87" />
<path d="M 180.22 90.45 C 180.73 91.39 181.24 92.32 181.77 93.24 C 185.59 94.71 189.58 95.70 193.44 97.07 C 193.25 98.52 193.06 99.97 192.87 101.41 C 194.18 102.75 195.50 104.08 196.81 105.41 C 196.16 106.52 195.51 107.63 194.85 108.74 C 193.06 108.39 191.27 108.04 189.48 107.70 C 189.64 108.48 189.80 109.26 189.97 110.03 C 188.51 107.04 188.00 103.87 187.25 100.67 C 186.92 98.32 184.29 97.03 182.62 95.59 C 182.97 96.82 183.40 98.07 183.61 99.33 L 183.41 100.61 L 182.31 99.06 C 181.14 97.38 179.86 95.78 178.66 94.12 L 178.16 93.41 C 178.84 92.42 179.51 91.42 180.22 90.45 Z" fill="#6a6868" />
<path d="M 118.81 91.75 C 122.02 92.94 125.28 93.96 128.52 95.05 C 131.63 96.05 133.19 98.65 135.19 101.03 C 133.44 100.17 131.70 99.29 129.97 98.40 C 129.60 98.92 129.24 99.45 128.87 99.99 L 129.01 98.19 C 126.76 100.28 124.65 102.49 122.51 104.70 C 120.72 105.75 118.71 106.75 117.20 108.19 C 115.72 109.65 114.77 111.75 113.76 113.56 C 109.22 118.48 103.50 120.66 97.78 123.81 C 96.64 124.34 95.67 124.94 94.36 124.61 C 90.45 123.65 86.79 122.70 84.72 118.91 C 86.55 117.33 88.29 115.67 89.97 113.95 C 94.20 113.81 97.94 114.14 101.52 111.47 L 101.25 113.32 C 104.86 109.31 106.71 104.36 109.98 100.08 C 111.96 100.26 115.49 102.03 116.90 99.92 C 118.37 97.69 118.31 94.35 118.81 91.75 Z" fill="#cfc788" />
<path d="M 68.12 93.08 C 70.44 93.79 72.48 94.87 74.64 95.97 C 71.95 97.96 69.10 99.67 66.12 101.21 C 66.52 98.36 66.71 95.67 68.12 93.08 Z" fill="#726238" />
<path d="M 149.16 92.38 C 151.14 94.16 153.10 95.76 154.87 97.75 C 151.72 100.47 149.91 103.98 147.99 107.60 C 146.76 106.33 145.51 105.07 144.28 103.80 C 144.74 103.44 145.21 103.08 145.68 102.73 C 145.18 100.74 144.39 99.02 145.12 96.96 C 145.73 94.83 147.53 93.72 149.16 92.38 Z" fill="#3b3d4b" />
<path d="M 205.22 93.46 C 206.70 92.62 207.88 94.52 206.75 95.65 C 205.26 96.50 204.07 94.60 205.22 93.46 Z" fill="#5f5f6f" />
<path d="M 97.85 96.86 C 101.71 100.44 102.29 108.74 96.66 110.97 C 93.74 112.48 92.03 110.82 89.64 109.40 C 91.54 108.18 93.49 107.06 95.46 105.97 C 95.19 104.80 94.92 103.62 94.65 102.45 C 92.79 102.19 90.95 101.96 89.12 101.56 C 88.23 101.10 87.36 100.62 86.49 100.13 C 82.76 102.72 79.68 105.53 76.83 109.07 C 76.18 108.28 75.53 107.49 74.88 106.70 C 79.70 101.04 85.86 98.94 91.85 94.74 C 93.98 92.97 96.36 95.39 97.85 96.86 Z" fill="#cdbe7c" />
<path d="M 182.62 95.59 C 184.29 97.03 186.92 98.32 187.25 100.67 C 188.00 103.87 188.51 107.04 189.97 110.03 C 190.40 111.00 190.85 111.96 191.32 112.91 C 191.22 113.89 191.12 114.86 191.02 115.84 C 189.88 113.95 188.71 111.97 187.35 110.24 C 186.72 110.04 186.09 109.84 185.45 109.66 C 185.21 107.95 185.39 106.28 185.61 104.59 C 184.87 103.26 184.12 101.95 183.41 100.61 L 183.61 99.33 C 183.40 98.07 182.97 96.82 182.62 95.59 Z" fill="#9b8f6a" />
<path d="M 58.86 96.18 C 61.21 97.80 64.73 99.58 64.76 102.87 C 63.78 106.56 59.58 108.86 56.06 109.48 C 55.44 108.83 55.15 107.99 55.17 106.96 C 55.44 103.20 57.00 99.43 58.86 96.18 Z" fill="#6f5f35" />
<path d="M 86.49 100.13 C 87.36 100.62 88.23 101.10 89.12 101.56 C 88.16 103.54 86.85 105.76 86.63 107.97 C 87.08 110.13 88.74 112.15 89.97 113.95 C 88.29 115.67 86.55 117.33 84.72 118.91 C 82.40 115.36 79.55 112.31 76.83 109.07 C 79.68 105.53 82.76 102.72 86.49 100.13 Z" fill="#b49e5a" />
<path d="M 138.83 100.87 C 142.08 104.75 145.48 108.81 148.31 112.99 C 142.88 112.88 137.44 112.96 132.01 112.80 L 130.89 112.06 C 131.35 109.96 131.49 107.40 132.64 105.55 C 134.30 103.63 136.73 102.27 138.83 100.87 Z" fill="#e2e0b7" />
<path d="M 122.51 104.70 C 119.89 107.98 116.94 110.83 113.76 113.56 C 114.77 111.75 115.72 109.65 117.20 108.19 C 118.71 106.75 120.72 105.75 122.51 104.70 Z" fill="#e3dab0" />
<path d="M 69.32 106.36 C 71.35 108.95 73.45 110.97 76.09 112.92 C 73.86 117.24 72.35 121.65 69.77 125.79 C 68.05 127.03 66.37 128.33 64.72 129.66 C 59.94 133.50 54.95 136.40 51.59 141.74 C 53.18 143.56 54.73 145.38 56.02 147.43 L 56.32 148.30 C 54.51 149.14 52.60 150.43 50.57 150.40 C 48.37 150.45 46.14 150.15 43.95 149.93 C 47.35 145.42 48.00 139.85 51.30 135.32 C 53.82 131.77 56.20 128.13 58.70 124.58 C 60.60 121.85 63.14 119.49 64.79 116.62 C 65.13 114.76 64.40 112.64 64.01 110.81 C 65.85 109.42 67.63 107.94 69.32 106.36 Z" fill="#d7cb92" />
<path d="M 224.80 107.81 C 225.46 111.67 225.94 115.46 225.88 119.38 C 224.12 121.62 222.63 124.01 221.29 126.52 C 220.84 125.30 220.37 124.08 219.90 122.85 C 219.80 123.99 219.72 125.12 219.65 126.25 C 219.17 123.77 218.72 121.28 218.26 118.79 C 217.87 116.69 217.49 114.60 216.99 112.52 C 219.37 113.54 221.72 114.63 224.05 115.75 C 224.29 113.11 224.58 110.46 224.80 107.81 Z" fill="#e9df9a" />
<path d="M 44.30 108.64 C 48.48 108.94 52.17 110.45 56.16 111.53 C 53.32 115.41 50.18 119.14 47.14 122.88 C 48.03 124.04 48.94 125.17 49.74 126.39 C 48.01 130.43 46.87 131.53 42.81 133.31 C 42.53 132.47 42.24 131.64 41.92 130.82 C 41.15 129.05 40.12 127.44 39.06 125.82 C 39.44 125.29 39.82 124.76 40.20 124.22 C 42.34 123.98 44.53 123.81 46.63 123.36 C 47.11 118.52 45.43 113.33 44.30 108.64 Z" fill="#706036" />
<path d="M 187.35 110.24 C 188.71 111.97 189.88 113.95 191.02 115.84 C 191.12 114.86 191.22 113.89 191.32 112.91 C 192.41 115.00 193.16 116.98 192.99 119.37 C 192.71 124.24 193.81 128.88 194.09 133.70 L 193.31 134.48 C 191.31 127.91 192.21 121.84 188.06 115.98 C 188.07 117.04 188.09 118.10 188.11 119.16 C 187.29 115.97 186.29 112.84 185.45 109.66 C 186.09 109.84 186.72 110.04 187.35 110.24 Z" fill="#797468" />
<path d="M 199.40 109.72 C 202.36 114.87 202.89 120.50 202.81 126.34 C 200.76 121.00 199.70 115.41 199.40 109.72 Z" fill="#696879" />
<path d="M 64.01 110.81 C 64.40 112.64 65.13 114.76 64.79 116.62 C 63.14 119.49 60.60 121.85 58.70 124.58 C 56.20 128.13 53.82 131.77 51.30 135.32 C 48.00 139.85 47.35 145.42 43.95 149.93 C 38.54 156.24 44.18 163.26 39.05 169.74 C 36.94 156.77 41.38 145.89 42.81 133.31 C 46.87 131.53 48.01 130.43 49.74 126.39 C 50.06 127.10 50.37 127.80 50.67 128.51 C 52.00 120.30 57.63 115.46 64.01 110.81 Z" fill="#e6e1c8" />
<path d="M 130.89 112.06 L 132.01 112.80 C 133.57 114.00 135.07 115.30 136.56 116.57 C 132.71 121.33 126.68 121.62 122.93 126.44 C 125.82 127.06 128.72 127.63 131.58 128.37 L 130.57 129.61 C 129.77 130.65 129.04 131.72 128.30 132.80 C 129.49 134.00 130.67 135.20 131.81 136.45 C 127.42 135.84 123.08 134.87 118.68 134.35 C 116.94 134.13 115.49 134.98 113.92 135.61 C 112.73 134.45 111.43 133.38 110.16 132.31 C 107.98 130.46 105.77 128.82 102.96 128.10 C 106.04 125.97 108.85 123.92 110.25 120.30 C 111.74 119.49 113.22 118.67 114.70 117.85 C 119.95 115.22 125.14 113.30 130.89 112.06 Z" fill="#b7cfa9" />
<path d="M 148.31 112.99 C 149.71 115.56 151.01 118.30 152.49 120.84 C 153.85 123.22 155.48 125.39 157.15 127.56 C 158.79 129.64 159.34 132.25 160.27 134.73 C 160.87 136.47 161.50 138.20 162.03 139.96 C 159.51 141.68 157.09 143.54 154.57 145.27 L 154.01 144.88 C 153.27 144.35 152.53 143.81 151.80 143.27 C 150.95 142.63 150.12 141.96 149.29 141.30 C 148.66 138.76 147.95 136.23 147.05 133.76 C 148.68 131.73 150.45 129.84 152.13 127.85 C 146.72 130.10 140.77 132.33 136.12 135.98 C 136.41 134.79 136.66 133.59 136.91 132.39 C 135.43 132.41 133.96 132.42 132.48 132.44 C 131.85 131.49 131.21 130.55 130.57 129.61 L 131.58 128.37 C 132.19 127.86 132.83 127.37 133.46 126.89 C 134.14 125.56 134.80 124.22 135.46 122.88 C 136.58 123.10 137.70 123.33 138.81 123.55 C 140.34 121.27 141.85 118.98 143.32 116.66 C 141.05 116.55 138.83 116.44 136.56 116.57 C 135.07 115.30 133.57 114.00 132.01 112.80 C 137.44 112.96 142.88 112.88 148.31 112.99 Z" fill="#c6dfce" />
<path d="M 76.09 112.92 C 78.23 114.55 80.09 116.44 81.53 118.72 C 77.72 121.30 73.79 123.57 69.77 125.79 C 72.35 121.65 73.86 117.24 76.09 112.92 Z" fill="#bca968" />
<path d="M 136.56 116.57 C 138.83 116.44 141.05 116.55 143.32 116.66 C 141.85 118.98 140.34 121.27 138.81 123.55 C 137.70 123.33 136.58 123.10 135.46 122.88 C 134.80 124.22 134.14 125.56 133.46 126.89 C 132.83 127.37 132.19 127.86 131.58 128.37 C 128.72 127.63 125.82 127.06 122.93 126.44 C 126.68 121.62 132.71 121.33 136.56 116.57 Z" fill="#a6d4c1" />
<path d="M 188.06 115.98 C 192.21 121.84 191.31 127.91 193.31 134.48 C 192.72 135.07 192.12 135.66 191.52 136.24 C 190.90 133.53 190.22 130.84 189.62 128.13 C 189.08 125.14 188.59 122.15 188.11 119.16 C 188.09 118.10 188.07 117.04 188.06 115.98 Z" fill="#0c0e1d" />
<path d="M 81.53 118.72 C 82.58 121.75 82.71 125.14 83.99 128.05 C 85.76 129.81 88.25 130.94 90.42 132.11 L 92.27 133.05 C 87.43 136.73 84.97 141.45 83.58 147.28 C 84.84 147.46 86.11 147.64 87.37 147.83 C 85.68 148.43 84.00 149.05 82.30 149.64 C 84.98 152.36 85.69 154.09 86.29 157.93 C 84.81 157.63 83.34 157.31 81.86 157.02 L 82.15 157.50 C 81.05 156.07 79.99 154.61 78.90 153.17 C 78.27 154.90 77.68 156.64 77.07 158.38 C 76.37 158.84 75.67 159.31 74.97 159.79 C 73.87 157.48 72.68 155.24 71.22 153.14 C 70.39 153.41 69.55 153.68 68.72 153.96 C 68.08 151.68 67.62 148.39 65.77 146.78 C 62.57 146.86 59.44 147.02 56.25 146.64 C 56.97 143.22 59.03 140.84 61.08 138.16 C 63.06 135.59 63.81 132.72 64.72 129.66 C 66.37 128.33 68.05 127.03 69.77 125.79 C 73.79 123.57 77.72 121.30 81.53 118.72 Z" fill="#9e8136" />
<path d="M 218.26 118.79 C 218.72 121.28 219.17 123.77 219.65 126.25 C 219.98 128.34 220.31 130.42 220.57 132.52 C 217.52 134.02 214.94 135.72 212.44 138.01 C 211.28 137.62 210.12 137.22 208.96 136.82 C 208.99 135.86 209.03 134.89 209.07 133.93 C 211.12 133.12 213.15 132.26 215.15 131.32 C 214.64 130.22 214.13 129.12 213.61 128.02 C 212.30 129.42 210.95 130.79 209.61 132.16 C 209.21 131.13 208.80 130.10 208.44 129.05 C 209.25 129.00 210.06 128.96 210.87 128.91 C 211.04 128.03 211.21 127.14 211.38 126.26 C 211.79 126.24 212.20 126.23 212.62 126.22 C 214.35 123.62 216.13 121.08 218.26 118.79 Z" fill="#404053" />
<path d="M 156.33 121.68 C 158.45 123.17 159.95 125.77 161.43 127.87 C 161.51 126.06 161.59 124.26 161.67 122.45 C 163.59 125.69 165.66 128.75 167.99 131.70 C 168.76 130.73 169.53 129.77 170.29 128.80 C 170.79 131.00 171.28 133.19 171.73 135.39 C 170.01 136.16 168.23 136.74 166.43 137.31 C 166.05 135.58 165.94 133.85 165.82 132.08 C 163.95 130.95 162.04 129.89 160.00 129.10 C 160.02 130.99 160.09 132.86 160.27 134.73 C 159.34 132.25 158.79 129.64 157.15 127.56 C 155.48 125.39 153.85 123.22 152.49 120.84 C 153.75 121.06 155.16 121.14 156.33 121.68 Z" fill="#3c4055" />
<path d="M 207.46 120.18 C 208.98 119.18 210.01 121.59 208.19 121.92 C 207.21 121.63 206.97 121.05 207.46 120.18 Z" fill="#7e7e84" />
<path d="M 225.88 119.38 C 225.68 124.41 228.59 128.54 228.46 133.50 C 228.45 135.87 228.28 138.24 228.35 140.62 C 228.60 144.02 229.01 147.40 229.24 150.80 C 228.44 149.82 227.65 148.85 226.85 147.87 C 225.46 150.05 223.68 152.27 222.86 154.73 C 222.55 158.25 223.18 161.60 222.06 165.07 C 220.63 169.93 220.72 174.81 220.86 179.82 C 218.16 179.07 214.73 179.66 214.52 175.90 C 215.16 167.07 223.29 157.34 221.59 147.38 L 220.65 149.44 C 219.80 148.26 218.95 147.07 218.11 145.89 C 216.38 147.01 214.67 148.14 212.92 149.22 C 213.33 147.87 213.76 146.52 214.22 145.18 C 214.44 144.56 214.63 143.93 214.79 143.30 C 215.49 143.95 216.22 144.55 216.98 145.12 C 218.33 144.15 219.76 143.01 220.67 141.59 C 221.09 138.62 220.96 135.49 220.57 132.52 C 220.31 130.42 219.98 128.34 219.65 126.25 C 219.72 125.12 219.80 123.99 219.90 122.85 C 220.37 124.08 220.84 125.30 221.29 126.52 C 222.63 124.01 224.12 121.62 225.88 119.38 Z" fill="#f2f0b8" />
<path d="M 105.19 121.99 C 108.15 121.83 105.89 125.30 104.06 124.88 C 102.32 124.16 103.96 122.19 105.19 121.99 Z" fill="#5b5d6a" />
<path d="M 208.15 124.10 C 209.23 124.82 210.30 125.54 211.38 126.26 C 211.21 127.14 211.04 128.03 210.87 128.91 C 210.06 128.96 209.25 129.00 208.44 129.05 C 208.30 127.40 208.23 125.75 208.15 124.10 Z" fill="#8b8e97" />
<path d="M 102.96 128.10 C 105.77 128.82 107.98 130.46 110.16 132.31 C 106.93 135.23 102.98 138.00 100.52 141.61 C 99.78 143.94 101.71 147.32 102.61 149.52 L 100.94 149.59 C 98.20 149.94 95.68 150.95 93.23 152.20 C 94.31 150.79 95.39 149.35 96.36 147.85 C 96.24 146.96 96.09 146.08 95.93 145.20 C 93.78 146.12 90.77 147.13 89.57 149.29 C 87.93 152.25 87.55 155.84 88.00 159.16 C 88.70 159.72 89.42 160.27 90.13 160.81 L 89.57 161.16 C 88.96 161.57 88.35 161.99 87.75 162.42 C 87.04 161.61 86.29 160.85 85.49 160.14 C 84.88 159.96 84.26 159.78 83.63 159.61 C 83.14 158.90 82.65 158.20 82.15 157.50 L 81.86 157.02 C 83.34 157.31 84.81 157.63 86.29 157.93 C 85.69 154.09 84.98 152.36 82.30 149.64 C 84.00 149.05 85.68 148.43 87.37 147.83 C 86.11 147.64 84.84 147.46 83.58 147.28 C 84.97 141.45 87.43 136.73 92.27 133.05 C 94.35 132.43 96.39 131.72 98.35 130.77 C 99.92 129.95 101.44 129.02 102.96 128.10 Z" fill="#9da167" />
<path d="M 152.13 127.85 C 150.45 129.84 148.68 131.73 147.05 133.76 C 145.08 136.21 143.72 139.01 142.64 141.95 C 141.85 144.15 141.30 146.45 140.84 148.74 C 140.17 148.23 139.49 147.73 138.79 147.25 C 136.67 151.30 136.71 155.44 136.54 159.88 C 136.41 164.90 133.62 168.45 134.89 173.53 C 134.48 174.40 134.08 175.26 133.68 176.13 C 135.20 175.18 136.69 174.19 138.20 173.23 C 136.94 176.78 135.55 180.19 133.15 183.15 C 131.06 185.88 128.25 187.29 125.26 188.81 C 127.21 191.97 128.74 195.23 129.34 198.93 C 127.74 203.35 122.13 206.13 118.28 208.33 C 120.45 204.87 122.54 201.68 123.54 197.65 C 124.21 194.89 122.91 192.51 121.72 190.12 L 119.97 190.34 C 116.83 190.50 113.21 191.92 110.88 189.09 C 108.54 186.40 105.94 183.42 104.78 180.02 C 103.71 176.96 101.91 174.38 100.25 171.62 C 97.97 168.95 94.19 169.19 91.02 168.72 C 89.82 166.68 88.87 164.51 87.75 162.42 C 88.35 161.99 88.96 161.57 89.57 161.16 C 93.01 163.15 96.37 165.18 100.44 163.55 C 104.87 161.63 108.94 159.53 113.87 159.13 C 111.51 163.69 111.11 166.33 111.78 171.51 C 116.15 169.63 120.14 167.37 121.41 162.42 C 126.33 157.93 128.80 152.54 130.22 146.11 C 130.98 141.82 133.79 139.43 136.12 135.98 C 140.77 132.33 146.72 130.10 152.13 127.85 Z" fill="#20233f" />
<path d="M 180.37 129.21 C 183.96 129.84 186.28 129.66 189.62 128.13 C 190.22 130.84 190.90 133.53 191.52 136.24 C 192.12 135.66 192.72 135.07 193.31 134.48 L 194.09 133.70 C 194.57 139.42 194.58 145.18 195.18 150.89 C 195.40 153.19 196.19 155.51 196.15 157.81 C 195.68 161.17 194.94 164.48 194.58 167.85 C 194.18 170.64 193.80 173.42 193.46 176.22 L 193.23 176.83 C 190.86 181.00 190.41 185.48 189.57 190.10 C 189.05 191.15 188.53 192.20 188.01 193.25 C 188.81 193.40 189.61 193.55 190.41 193.71 C 190.06 194.31 189.70 194.92 189.35 195.52 C 185.63 196.14 184.96 196.73 183.07 200.01 L 182.10 198.75 C 182.53 197.97 182.95 197.20 183.37 196.42 C 186.99 189.96 187.98 183.20 189.35 176.05 C 189.76 173.74 190.06 171.43 190.13 169.09 C 185.43 170.37 182.29 173.65 177.25 173.81 C 176.46 175.05 175.68 176.31 174.90 177.57 C 173.83 177.61 172.76 177.66 171.68 177.71 C 171.17 176.22 170.36 174.58 170.37 172.99 C 170.76 171.63 171.44 170.32 172.05 169.04 C 173.50 166.59 175.04 164.52 175.44 161.61 C 175.98 157.77 175.50 153.59 175.20 149.72 C 175.12 148.54 175.03 147.37 174.93 146.19 C 174.75 142.13 174.48 138.12 173.43 134.18 C 173.06 132.76 172.70 131.34 172.37 129.92 C 174.97 128.04 177.44 128.89 180.37 129.21 Z" fill="#e7df99" />
<path d="M 98.35 130.77 C 96.39 131.72 94.35 132.43 92.27 133.05 L 90.42 132.11 C 91.75 131.28 93.11 130.23 94.61 129.76 C 95.87 129.96 97.13 130.39 98.35 130.77 Z" fill="#645f43" />
<path d="M 160.00 129.10 C 162.04 129.89 163.95 130.95 165.82 132.08 C 165.94 133.85 166.05 135.58 166.43 137.31 C 167.19 138.26 167.98 139.17 168.73 140.11 C 169.40 142.44 170.08 144.77 170.85 147.07 C 171.84 145.97 172.81 144.85 173.77 143.72 C 174.18 144.53 174.57 145.35 174.93 146.19 C 175.03 147.37 175.12 148.54 175.20 149.72 C 175.39 153.99 175.08 158.19 174.14 162.36 C 173.41 160.51 172.72 158.64 171.97 156.80 C 171.48 160.90 171.84 164.94 172.05 169.04 C 171.44 170.32 170.76 171.63 170.37 172.99 C 170.36 174.58 171.17 176.22 171.68 177.71 C 170.33 179.63 168.91 181.50 167.35 183.27 C 168.40 180.36 168.72 177.18 168.41 174.12 C 167.04 167.58 167.26 160.59 167.30 153.94 C 167.14 151.44 165.42 148.93 164.42 146.66 C 163.47 144.46 162.76 142.24 162.03 139.96 C 161.50 138.20 160.87 136.47 160.27 134.73 C 160.09 132.86 160.02 130.99 160.00 129.10 Z" fill="#22243f" />
<path d="M 64.72 129.66 C 63.81 132.72 63.06 135.59 61.08 138.16 C 59.03 140.84 56.97 143.22 56.25 146.64 L 56.02 147.43 C 54.73 145.38 53.18 143.56 51.59 141.74 C 54.95 136.40 59.94 133.50 64.72 129.66 Z" fill="#c1ad67" />
<path d="M 130.57 129.61 C 131.21 130.55 131.85 131.49 132.48 132.44 C 133.96 132.42 135.43 132.41 136.91 132.39 C 136.66 133.59 136.41 134.79 136.12 135.98 C 133.79 139.43 130.98 141.82 130.22 146.11 C 128.80 152.54 126.33 157.93 121.41 162.42 C 120.20 159.75 118.88 157.16 117.28 154.69 L 118.00 154.00 C 119.84 154.17 121.68 154.40 123.51 154.61 C 122.79 152.70 122.10 150.79 121.34 148.89 C 122.00 148.01 122.67 147.13 123.33 146.25 C 125.43 145.86 127.31 144.98 129.21 144.05 C 126.27 144.10 123.35 144.30 120.42 144.55 C 121.17 142.95 121.94 141.37 122.70 139.78 C 123.82 140.36 124.95 140.94 126.08 141.52 C 128.53 140.05 131.00 139.54 131.81 136.45 C 130.67 135.20 129.49 134.00 128.30 132.80 C 129.04 131.72 129.77 130.65 130.57 129.61 Z" fill="#e1daba" />
<path d="M 41.92 130.82 C 42.24 131.64 42.53 132.47 42.81 133.31 C 41.38 145.89 36.94 156.77 39.05 169.74 C 39.20 171.21 39.33 172.68 39.44 174.16 C 39.68 177.73 40.06 181.14 41.61 184.42 C 43.70 188.86 46.69 192.83 48.92 197.22 C 46.73 195.05 44.37 193.10 42.26 190.83 C 38.11 185.92 35.51 180.22 33.91 174.02 C 33.16 171.24 32.37 168.64 32.55 165.71 C 32.91 160.33 32.94 154.64 34.74 149.60 C 37.04 142.95 37.53 136.64 41.92 130.82 Z" fill="#9d8857" />
<path d="M 110.16 132.31 C 111.43 133.38 112.73 134.45 113.92 135.61 C 114.48 136.42 115.02 137.26 115.54 138.11 C 116.16 139.18 116.77 140.25 117.36 141.34 C 116.52 142.40 115.69 143.46 114.91 144.56 C 113.71 144.19 112.50 143.83 111.28 143.48 C 110.93 142.79 110.58 142.09 110.24 141.39 C 111.89 140.98 113.53 140.60 115.17 140.19 C 114.17 139.00 113.16 137.70 111.93 136.74 C 109.18 137.11 106.33 138.41 104.30 140.32 C 102.91 141.60 102.92 143.61 103.77 145.18 C 105.89 148.92 109.39 150.62 113.13 152.34 C 114.44 150.56 115.72 148.77 116.99 146.98 C 119.10 146.70 121.22 146.50 123.33 146.25 C 122.67 147.13 122.00 148.01 121.34 148.89 C 120.12 150.53 119.09 152.28 118.00 154.00 L 117.28 154.69 C 115.97 155.83 114.78 157.15 112.96 157.36 C 109.36 156.54 105.99 155.14 103.94 151.90 C 103.49 151.11 103.04 150.32 102.61 149.52 C 101.71 147.32 99.78 143.94 100.52 141.61 C 102.98 138.00 106.93 135.23 110.16 132.31 Z" fill="#4f4425" />
<path d="M 118.68 134.35 C 123.08 134.87 127.42 135.84 131.81 136.45 C 131.00 139.54 128.53 140.05 126.08 141.52 C 124.95 140.94 123.82 140.36 122.70 139.78 C 121.94 141.37 121.17 142.95 120.42 144.55 C 123.35 144.30 126.27 144.10 129.21 144.05 C 127.31 144.98 125.43 145.86 123.33 146.25 C 121.22 146.50 119.10 146.70 116.99 146.98 C 116.22 146.73 115.45 146.47 114.68 146.22 L 114.91 144.56 C 115.69 143.46 116.52 142.40 117.36 141.34 C 119.87 140.93 121.34 140.00 123.22 138.34 C 121.85 137.26 120.50 136.19 119.07 135.20 C 117.86 136.13 116.71 137.12 115.54 138.11 C 115.02 137.26 114.48 136.42 113.92 135.61 C 115.49 134.98 116.94 134.13 118.68 134.35 Z" fill="#beb184" />
<path d="M 147.05 133.76 C 147.95 136.23 148.66 138.76 149.29 141.30 C 150.12 141.96 150.95 142.63 151.80 143.27 C 149.21 143.02 146.61 142.95 144.02 142.75 L 142.64 141.95 C 143.72 139.01 145.08 136.21 147.05 133.76 Z" fill="#e4e6cf" />
<path d="M 173.43 134.18 C 174.48 138.12 174.75 142.13 174.93 146.19 C 174.57 145.35 174.18 144.53 173.77 143.72 C 172.36 141.66 170.76 139.75 169.03 137.95 L 168.73 140.11 C 167.98 139.17 167.19 138.26 166.43 137.31 C 168.23 136.74 170.01 136.16 171.73 135.39 C 172.30 134.99 172.86 134.59 173.43 134.18 Z" fill="#828272" />
<path d="M 119.07 135.20 C 120.50 136.19 121.85 137.26 123.22 138.34 C 121.34 140.00 119.87 140.93 117.36 141.34 C 116.77 140.25 116.16 139.18 115.54 138.11 C 116.71 137.12 117.86 136.13 119.07 135.20 Z" fill="#978c4f" />
<path d="M 111.93 136.74 C 113.16 137.70 114.17 139.00 115.17 140.19 C 113.53 140.60 111.89 140.98 110.24 141.39 C 110.58 142.09 110.93 142.79 111.28 143.48 C 112.50 143.83 113.71 144.19 114.91 144.56 L 114.68 146.22 C 111.77 145.18 109.07 144.15 105.92 144.61 C 108.11 147.40 110.64 149.84 113.13 152.34 C 109.39 150.62 105.89 148.92 103.77 145.18 C 102.92 143.61 102.91 141.60 104.30 140.32 C 106.33 138.41 109.18 137.11 111.93 136.74 Z" fill="#9ea373" />
<path d="M 169.03 137.95 C 170.76 139.75 172.36 141.66 173.77 143.72 C 172.81 144.85 171.84 145.97 170.85 147.07 C 170.08 144.77 169.40 142.44 168.73 140.11 L 169.03 137.95 Z" fill="#bebeb4" />
<path d="M 162.03 139.96 C 162.76 142.24 163.47 144.46 164.42 146.66 C 162.83 151.79 161.07 156.53 160.45 161.92 C 160.10 159.38 159.40 156.91 158.23 154.61 C 156.92 154.62 155.62 154.69 154.31 154.76 C 154.88 151.55 154.63 148.49 154.57 145.27 C 157.09 143.54 159.51 141.68 162.03 139.96 Z" fill="#d2d2a7" />
<path d="M 232.14 140.82 C 232.38 143.38 232.39 145.95 232.27 148.51 C 230.18 152.87 229.78 157.78 230.95 162.45 C 233.30 168.91 230.85 175.32 226.45 180.24 C 226.89 177.07 227.48 173.92 228.08 170.78 C 226.25 170.70 224.43 170.63 222.60 170.56 C 222.65 176.06 221.02 181.05 219.56 186.27 C 218.83 189.01 218.03 191.73 217.17 194.44 L 215.39 194.26 C 215.74 193.30 216.07 192.33 216.38 191.35 C 214.21 194.12 212.47 197.16 210.15 199.82 C 209.29 199.08 208.44 198.33 207.60 197.57 C 206.53 199.51 205.57 201.41 204.04 203.05 C 200.07 207.40 195.95 211.52 191.12 214.92 C 192.20 214.63 193.27 214.32 194.35 214.01 C 193.25 215.25 192.27 216.88 190.87 217.78 C 188.47 218.13 185.89 217.53 183.47 217.79 C 181.64 218.11 179.88 219.14 178.25 219.97 L 177.53 220.32 C 177.70 219.55 177.87 218.78 178.04 218.01 C 175.95 218.18 173.86 218.31 171.76 218.39 C 175.96 215.18 180.23 211.75 183.71 207.77 C 187.48 203.59 191.98 200.36 193.55 194.69 C 194.48 191.22 195.69 188.06 197.46 184.94 C 200.21 187.53 200.44 188.37 200.43 192.11 C 198.32 194.56 196.89 197.21 195.73 200.23 C 197.97 198.81 200.17 197.87 201.30 195.30 C 202.95 191.58 204.73 188.19 206.97 184.77 C 209.09 181.22 210.89 177.49 212.23 173.57 C 213.90 169.05 215.48 164.57 216.65 159.89 C 218.02 156.41 219.55 153.03 220.65 149.44 L 221.59 147.38 C 223.29 157.34 215.16 167.07 214.52 175.90 C 214.73 179.66 218.16 179.07 220.86 179.82 C 220.72 174.81 220.63 169.93 222.06 165.07 C 223.18 161.60 222.55 158.25 222.86 154.73 C 223.68 152.27 225.46 150.05 226.85 147.87 C 227.65 148.85 228.44 149.82 229.24 150.80 C 229.01 147.40 228.60 144.02 228.35 140.62 C 229.62 140.68 230.88 140.75 232.14 140.82 Z" fill="#f3f2c7" />
<path d="M 209.74 140.60 C 209.93 143.49 209.77 144.96 208.13 147.38 C 207.95 146.07 207.66 144.72 207.72 143.40 C 208.26 142.40 209.04 141.49 209.74 140.60 Z" fill="#67697b" />
<path d="M 213.91 141.41 C 214.22 142.03 214.52 142.66 214.79 143.30 C 214.63 143.93 214.44 144.56 214.22 145.18 C 211.58 144.19 211.75 142.84 213.91 141.41 Z" fill="#9b9fa9" />
<path d="M 142.64 141.95 L 144.02 142.75 C 144.44 143.26 144.86 143.78 145.27 144.29 C 144.73 145.41 144.20 146.54 143.67 147.66 C 144.79 149.45 145.90 151.25 147.00 153.04 C 144.63 154.79 142.20 156.44 139.65 157.93 C 140.18 154.89 140.42 151.80 140.84 148.74 C 141.30 146.45 141.85 144.15 142.64 141.95 Z" fill="#d9cda7" />
<path d="M 114.68 146.22 C 115.45 146.47 116.22 146.73 116.99 146.98 C 115.72 148.77 114.44 150.56 113.13 152.34 C 110.64 149.84 108.11 147.40 105.92 144.61 C 109.07 144.15 111.77 145.18 114.68 146.22 Z" fill="#997d35" />
<path d="M 144.02 142.75 C 146.61 142.95 149.21 143.02 151.80 143.27 C 152.53 143.81 153.27 144.35 154.01 144.88 C 152.14 144.13 150.18 143.76 148.19 143.52 C 150.13 150.18 149.25 156.65 149.44 163.43 C 145.48 162.84 142.72 163.13 138.99 164.63 C 138.26 165.41 137.58 166.23 136.93 167.08 C 137.51 163.92 138.65 160.96 139.65 157.93 C 142.20 156.44 144.63 154.79 147.00 153.04 C 145.90 151.25 144.79 149.45 143.67 147.66 C 144.20 146.54 144.73 145.41 145.27 144.29 C 144.86 143.78 144.44 143.26 144.02 142.75 Z" fill="#c4b682" />
<path d="M 148.19 143.52 C 150.18 143.76 152.14 144.13 154.01 144.88 L 154.57 145.27 C 154.63 148.49 154.88 151.55 154.31 154.76 C 154.12 155.58 153.92 156.40 153.72 157.22 C 152.22 162.25 152.87 167.09 153.68 172.17 C 154.02 174.61 154.54 177.01 154.92 179.44 C 154.82 181.47 154.54 183.48 154.23 185.48 C 153.03 180.49 151.99 175.48 150.53 170.55 C 150.02 168.20 149.66 165.82 149.44 163.43 C 149.25 156.65 150.13 150.18 148.19 143.52 Z" fill="#4c4121" />
<path d="M 95.93 145.20 C 96.09 146.08 96.24 146.96 96.36 147.85 C 95.39 149.35 94.31 150.79 93.23 152.20 C 91.43 154.48 89.74 156.85 88.00 159.16 C 87.55 155.84 87.93 152.25 89.57 149.29 C 90.77 147.13 93.78 146.12 95.93 145.20 Z" fill="#a5c5a5" />
<path d="M 56.25 146.64 C 59.44 147.02 62.57 146.86 65.77 146.78 C 67.62 148.39 68.08 151.68 68.72 153.96 C 69.15 155.51 69.52 157.29 70.40 158.65 C 71.55 159.45 72.87 159.87 74.19 160.30 C 73.51 160.76 72.84 161.22 72.16 161.68 C 73.17 161.77 74.19 161.86 75.21 161.94 C 76.38 164.36 77.58 166.74 79.04 169.01 C 78.36 169.27 77.67 169.53 76.99 169.79 C 75.47 168.65 73.96 167.48 72.47 166.31 C 71.27 165.39 70.04 164.36 68.68 163.68 C 66.58 163.30 64.22 163.91 62.12 164.21 C 61.55 162.75 61.19 160.91 60.15 159.71 C 58.47 158.26 56.23 157.35 54.20 156.49 C 52.59 158.72 51.16 161.08 49.66 163.38 C 50.25 164.64 50.84 165.90 51.43 167.16 C 48.50 167.69 45.57 168.17 42.62 168.53 C 42.64 166.30 42.85 164.12 43.09 161.90 C 44.08 162.85 45.06 163.80 46.04 164.75 C 45.63 161.27 45.31 157.78 45.05 154.29 C 49.29 152.18 52.67 151.13 57.44 151.92 C 57.08 150.70 56.73 149.49 56.32 148.30 L 56.02 147.43 L 56.25 146.64 Z" fill="#ad954d" />
<path d="M 138.79 147.25 C 139.49 147.73 140.17 148.23 140.84 148.74 C 140.42 151.80 140.18 154.89 139.65 157.93 C 138.65 160.96 137.51 163.92 136.93 167.08 C 136.46 169.32 135.93 171.48 134.89 173.53 C 133.62 168.45 136.41 164.90 136.54 159.88 C 136.71 155.44 136.67 151.30 138.79 147.25 Z" fill="#55575d" />
<path d="M 56.32 148.30 C 56.73 149.49 57.08 150.70 57.44 151.92 C 52.67 151.13 49.29 152.18 45.05 154.29 C 45.31 157.78 45.63 161.27 46.04 164.75 C 45.06 163.80 44.08 162.85 43.09 161.90 C 42.85 164.12 42.64 166.30 42.62 168.53 L 42.93 169.90 L 43.32 171.58 C 42.45 171.27 41.57 170.97 40.68 170.68 C 40.23 171.83 39.82 172.99 39.44 174.16 C 39.33 172.68 39.20 171.21 39.05 169.74 C 44.18 163.26 38.54 156.24 43.95 149.93 C 46.14 150.15 48.37 150.45 50.57 150.40 C 52.60 150.43 54.51 149.14 56.32 148.30 Z" fill="#c0b076" />
<path d="M 205.02 148.08 C 206.31 148.32 207.59 148.59 208.87 148.86 C 206.62 151.34 205.18 153.53 204.52 156.87 C 204.04 158.71 203.57 160.56 203.06 162.39 C 202.93 160.26 202.81 158.15 202.94 156.02 C 203.56 153.36 204.22 150.70 205.02 148.08 Z" fill="#98999a" />
<path d="M 100.94 149.59 C 99.13 151.59 98.45 153.92 97.93 156.50 C 95.34 157.94 92.69 159.29 90.13 160.81 C 89.42 160.27 88.70 159.72 88.00 159.16 C 89.74 156.85 91.43 154.48 93.23 152.20 C 95.68 150.95 98.20 149.94 100.94 149.59 Z" fill="#d6e0a6" />
<path d="M 121.34 148.89 C 122.10 150.79 122.79 152.70 123.51 154.61 C 121.68 154.40 119.84 154.17 118.00 154.00 C 119.09 152.28 120.12 150.53 121.34 148.89 Z" fill="#c1b283" />
<path d="M 232.27 148.51 C 232.65 153.34 232.67 157.84 230.95 162.45 C 229.78 157.78 230.18 152.87 232.27 148.51 Z" fill="#000216" />
<path d="M 100.94 149.59 L 102.61 149.52 C 103.04 150.32 103.49 151.11 103.94 151.90 C 103.38 154.09 102.88 156.29 102.36 158.49 C 100.88 157.82 99.41 157.15 97.93 156.50 C 98.45 153.92 99.13 151.59 100.94 149.59 Z" fill="#cae6de" />
<path d="M 131.02 150.12 C 132.03 151.46 132.98 152.86 133.93 154.25 C 132.32 155.10 130.73 155.97 129.13 156.83 C 129.72 154.59 130.29 152.31 131.02 150.12 Z" fill="#626473" />
<path d="M 175.20 149.72 C 175.50 153.59 175.98 157.77 175.44 161.61 C 175.04 164.52 173.50 166.59 172.05 169.04 C 171.84 164.94 171.48 160.90 171.97 156.80 C 172.72 158.64 173.41 160.51 174.14 162.36 C 175.08 158.19 175.39 153.99 175.20 149.72 Z" fill="#afad8f" />
<path d="M 197.23 151.46 C 199.34 150.37 200.30 154.28 198.09 154.59 C 196.59 154.39 196.15 152.43 197.23 151.46 Z" fill="#656671" />
<path d="M 103.94 151.90 C 105.99 155.14 109.36 156.54 112.96 157.36 C 114.78 157.15 115.97 155.83 117.28 154.69 C 118.88 157.16 120.20 159.75 121.41 162.42 C 120.14 167.37 116.15 169.63 111.78 171.51 C 111.11 166.33 111.51 163.69 113.87 159.13 C 108.94 159.53 104.87 161.63 100.44 163.55 C 96.37 165.18 93.01 163.15 89.57 161.16 L 90.13 160.81 C 92.69 159.29 95.34 157.94 97.93 156.50 C 99.41 157.15 100.88 157.82 102.36 158.49 C 102.88 156.29 103.38 154.09 103.94 151.90 Z" fill="#f1f1ed" />
<path d="M 71.22 153.14 C 72.68 155.24 73.87 157.48 74.97 159.79 L 74.19 160.30 C 72.87 159.87 71.55 159.45 70.40 158.65 C 69.52 157.29 69.15 155.51 68.72 153.96 C 69.55 153.68 70.39 153.41 71.22 153.14 Z" fill="#252139" />
<path d="M 78.90 153.17 C 79.99 154.61 81.05 156.07 82.15 157.50 C 82.65 158.20 83.14 158.90 83.63 159.61 C 84.47 161.56 85.06 163.59 85.63 165.63 C 82.98 164.59 80.42 163.37 77.90 162.05 C 77.60 160.83 77.35 159.60 77.07 158.38 C 77.68 156.64 78.27 154.90 78.90 153.17 Z" fill="#232541" />
<path d="M 158.23 154.61 C 159.40 156.91 160.10 159.38 160.45 161.92 C 160.49 165.16 160.60 168.40 160.53 171.63 C 159.36 171.57 158.20 171.52 157.03 171.48 C 157.64 173.70 158.38 175.88 159.16 178.05 C 158.39 178.62 157.63 179.20 156.87 179.79 C 156.22 179.68 155.57 179.56 154.92 179.44 C 154.54 177.01 154.02 174.61 153.68 172.17 C 153.57 171.09 153.48 170.01 153.40 168.94 C 155.63 169.03 157.87 169.17 160.10 169.34 C 159.76 167.38 159.66 165.15 158.80 163.33 C 157.45 161.09 155.42 159.20 153.72 157.22 C 153.92 156.40 154.12 155.58 154.31 154.76 C 155.62 154.69 156.92 154.62 158.23 154.61 Z" fill="#cfc17c" />
<path d="M 54.20 156.49 C 56.23 157.35 58.47 158.26 60.15 159.71 C 61.19 160.91 61.55 162.75 62.12 164.21 C 64.22 163.91 66.58 163.30 68.68 163.68 C 70.04 164.36 71.27 165.39 72.47 166.31 C 71.40 170.91 71.62 174.14 73.03 178.64 C 70.57 179.00 68.14 179.54 65.70 180.03 C 62.71 177.46 60.20 174.45 57.42 171.67 C 56.60 171.48 55.78 171.31 54.96 171.15 C 55.44 174.99 56.80 178.68 57.21 182.51 C 56.04 183.62 54.63 184.52 53.30 185.43 C 51.72 182.24 50.78 178.81 49.31 175.57 C 48.16 172.83 45.25 171.50 42.93 169.90 L 42.62 168.53 C 45.57 168.17 48.50 167.69 51.43 167.16 C 50.84 165.90 50.25 164.64 49.66 163.38 C 51.16 161.08 52.59 158.72 54.20 156.49 Z" fill="#9e8139" />
<path d="M 202.94 156.02 C 202.81 158.15 202.93 160.26 203.06 162.39 C 203.57 160.56 204.04 158.71 204.52 156.87 C 206.28 159.08 207.84 161.43 209.33 163.83 C 208.35 164.52 207.36 165.22 206.38 165.92 C 207.03 166.04 207.68 166.15 208.33 166.26 C 210.69 163.45 213.06 161.02 216.65 159.89 C 215.48 164.57 213.90 169.05 212.23 173.57 C 208.05 174.65 205.06 173.07 201.41 171.27 C 201.85 170.41 202.29 169.55 202.73 168.70 C 200.86 168.63 198.80 168.39 196.97 168.83 C 195.62 171.19 194.69 173.79 193.46 176.22 C 193.80 173.42 194.18 170.64 194.58 167.85 C 196.66 166.52 199.49 165.09 200.78 162.90 C 201.88 160.81 202.38 158.31 202.94 156.02 Z" fill="#383b4f" />
<path d="M 153.72 157.22 C 155.42 159.20 157.45 161.09 158.80 163.33 C 159.66 165.15 159.76 167.38 160.10 169.34 C 157.87 169.17 155.63 169.03 153.40 168.94 C 153.48 170.01 153.57 171.09 153.68 172.17 C 152.87 167.09 152.22 162.25 153.72 157.22 Z" fill="#b0974f" />
<path d="M 77.07 158.38 C 77.35 159.60 77.60 160.83 77.90 162.05 C 80.04 166.08 84.27 166.63 87.30 169.63 C 89.03 172.45 89.42 175.57 88.25 178.66 C 90.51 181.33 93.78 184.30 93.83 188.04 C 93.44 190.89 91.73 193.64 90.64 196.30 C 90.25 195.62 89.85 194.96 89.44 194.29 C 87.58 191.53 85.98 190.27 82.92 188.97 C 82.52 188.32 82.14 187.65 81.80 186.98 L 81.29 185.87 C 82.66 186.54 84.03 187.22 85.39 187.90 C 85.27 186.62 85.15 185.33 85.05 184.05 C 85.19 183.17 85.34 182.30 85.51 181.43 C 85.20 180.89 84.89 180.35 84.58 179.81 C 84.29 177.69 84.73 174.59 82.97 173.10 C 81.70 171.69 80.31 170.42 79.04 169.01 C 77.58 166.74 76.38 164.36 75.21 161.94 C 74.19 161.86 73.17 161.77 72.16 161.68 C 72.84 161.22 73.51 160.76 74.19 160.30 L 74.97 159.79 C 75.67 159.31 76.37 158.84 77.07 158.38 Z" fill="#c1b06a" />
<path d="M 85.49 160.14 C 86.29 160.85 87.04 161.61 87.75 162.42 C 88.87 164.51 89.82 166.68 91.02 168.72 C 91.56 169.65 92.10 170.57 92.65 171.49 C 91.78 172.82 90.40 174.40 91.23 176.07 C 92.96 180.11 95.17 183.95 97.03 187.93 C 97.14 186.92 97.25 185.91 97.34 184.90 C 98.03 186.94 98.79 188.96 99.63 190.94 C 100.53 192.48 101.57 193.86 102.61 195.30 C 100.58 196.17 99.12 197.56 97.36 198.84 L 97.98 199.63 C 95.93 200.60 94.29 202.00 92.52 203.39 C 94.01 204.29 94.97 205.73 96.86 205.18 C 100.04 204.27 103.00 201.88 105.65 199.96 C 105.78 202.12 105.94 204.28 106.20 206.43 C 106.82 204.24 107.31 202.02 107.81 199.81 C 107.79 201.62 107.84 203.43 107.85 205.24 L 107.81 206.93 C 104.47 207.72 102.31 211.63 100.13 214.09 C 96.35 212.29 92.41 210.88 88.37 209.80 C 87.68 209.59 86.99 209.38 86.31 209.17 C 86.92 207.54 87.52 205.90 88.13 204.27 C 87.53 203.71 86.93 203.16 86.33 202.60 C 87.24 201.70 88.15 200.81 89.01 199.87 C 89.58 198.69 90.10 197.49 90.64 196.30 C 91.73 193.64 93.44 190.89 93.83 188.04 C 93.78 184.30 90.51 181.33 88.25 178.66 C 89.42 175.57 89.03 172.45 87.30 169.63 C 84.27 166.63 80.04 166.08 77.90 162.05 C 80.42 163.37 82.98 164.59 85.63 165.63 C 85.06 163.59 84.47 161.56 83.63 159.61 C 84.26 159.78 84.88 159.96 85.49 160.14 Z" fill="#d8cc88" />
<path d="M 149.44 163.43 C 149.66 165.82 150.02 168.20 150.53 170.55 C 147.20 171.77 143.92 173.10 140.76 174.70 C 139.64 171.42 139.28 168.06 138.99 164.63 C 142.72 163.13 145.48 162.84 149.44 163.43 Z" fill="#d3c79a" />
<path d="M 72.47 166.31 C 73.96 167.48 75.47 168.65 76.99 169.79 C 81.02 172.22 82.41 175.90 84.58 179.81 C 84.89 180.35 85.20 180.89 85.51 181.43 C 85.34 182.30 85.19 183.17 85.05 184.05 C 84.47 182.86 83.85 181.70 83.21 180.54 C 82.35 181.86 81.53 183.21 80.68 184.54 C 78.23 182.44 75.54 180.65 73.03 178.64 C 71.62 174.14 71.40 170.91 72.47 166.31 Z" fill="#a0d2c1" />
<path d="M 196.97 168.83 C 198.80 168.39 200.86 168.63 202.73 168.70 C 202.29 169.55 201.85 170.41 201.41 171.27 C 205.06 173.07 208.05 174.65 212.23 173.57 C 210.89 177.49 209.09 181.22 206.97 184.77 C 206.19 184.82 205.40 184.86 204.62 184.90 C 203.58 187.62 202.29 189.84 200.43 192.11 C 200.44 188.37 200.21 187.53 197.46 184.94 C 195.69 188.06 194.48 191.22 193.55 194.69 C 191.98 200.36 187.48 203.59 183.71 207.77 C 180.23 211.75 175.96 215.18 171.76 218.39 C 168.41 220.28 164.87 221.46 160.98 221.44 C 164.29 218.66 168.11 217.14 171.79 215.02 C 179.41 210.97 184.88 202.69 189.35 195.52 C 189.70 194.92 190.06 194.31 190.41 193.71 C 189.61 193.55 188.81 193.40 188.01 193.25 C 188.53 192.20 189.05 191.15 189.57 190.10 C 192.49 185.40 193.43 182.38 193.23 176.83 L 193.46 176.22 C 194.69 173.79 195.62 171.19 196.97 168.83 Z" fill="#646566" />
<path d="M 79.04 169.01 C 80.31 170.42 81.70 171.69 82.97 173.10 C 84.73 174.59 84.29 177.69 84.58 179.81 C 82.41 175.90 81.02 172.22 76.99 169.79 C 77.67 169.53 78.36 169.27 79.04 169.01 Z" fill="#424632" />
<path d="M 91.02 168.72 C 94.19 169.19 97.97 168.95 100.25 171.62 C 97.70 171.90 95.19 171.68 92.65 171.49 C 92.10 170.57 91.56 169.65 91.02 168.72 Z" fill="#e9e5cf" />
<path d="M 190.13 169.09 C 190.06 171.43 189.76 173.74 189.35 176.05 C 187.98 183.20 186.99 189.96 183.37 196.42 C 182.56 196.48 181.75 196.55 180.94 196.61 C 182.13 189.75 183.75 183.08 183.89 176.07 C 178.37 178.76 174.49 183.09 169.80 186.85 C 167.77 188.62 166.03 187.60 163.70 187.28 C 164.91 185.94 166.17 184.63 167.35 183.27 C 168.91 181.50 170.33 179.63 171.68 177.71 C 172.76 177.66 173.83 177.61 174.90 177.57 C 175.68 176.31 176.46 175.05 177.25 173.81 C 182.29 173.65 185.43 170.37 190.13 169.09 Z" fill="#f0edb4" />
<path d="M 42.93 169.90 C 45.25 171.50 48.16 172.83 49.31 175.57 C 50.78 178.81 51.72 182.24 53.30 185.43 C 54.99 188.46 57.00 191.21 58.45 194.38 C 57.41 195.48 56.40 196.59 55.46 197.78 C 53.84 200.10 52.77 202.56 51.60 205.12 C 50.08 205.02 48.55 204.91 47.03 204.74 C 48.29 203.46 49.56 202.17 50.83 200.90 C 50.21 199.66 49.60 198.43 48.92 197.22 C 50.64 197.34 52.35 197.47 54.06 197.60 C 49.03 189.26 45.65 181.05 43.32 171.58 L 42.93 169.90 Z" fill="#94a178" />
<path d="M 40.68 170.68 C 41.57 170.97 42.45 171.27 43.32 171.58 C 45.65 181.05 49.03 189.26 54.06 197.60 C 52.35 197.47 50.64 197.34 48.92 197.22 C 46.69 192.83 43.70 188.86 41.61 184.42 C 40.06 181.14 39.68 177.73 39.44 174.16 C 39.82 172.99 40.23 171.83 40.68 170.68 Z" fill="#a4cfbd" />
<path d="M 54.96 171.15 C 55.78 171.31 56.60 171.48 57.42 171.67 C 60.20 174.45 62.71 177.46 65.70 180.03 C 70.65 184.83 76.35 187.24 82.92 188.97 C 85.98 190.27 87.58 191.53 89.44 194.29 C 88.84 196.33 87.85 197.67 86.39 199.16 C 85.43 196.83 84.92 193.64 83.22 191.77 C 78.37 188.83 72.61 187.34 67.48 184.87 C 64.88 183.69 62.33 182.41 59.68 181.34 C 60.21 183.29 60.66 185.49 61.73 187.22 C 63.63 188.60 65.99 189.44 68.11 190.44 C 68.75 190.73 69.39 191.02 70.03 191.31 C 69.23 191.55 68.42 191.80 67.61 192.04 C 65.15 191.38 62.68 190.76 60.17 190.27 C 60.80 193.42 61.54 196.55 62.23 199.69 C 64.89 199.54 67.55 199.37 70.21 199.29 C 67.10 200.67 64.08 201.35 61.60 203.79 C 61.07 204.77 60.58 205.77 60.08 206.77 C 60.12 205.87 60.13 204.97 60.11 204.06 C 59.60 203.23 59.07 202.42 58.50 201.62 C 59.48 198.87 59.54 197.18 58.45 194.38 C 57.00 191.21 54.99 188.46 53.30 185.43 C 54.63 184.52 56.04 183.62 57.21 182.51 C 56.80 178.68 55.44 174.99 54.96 171.15 Z" fill="#5d5030" />
<path d="M 92.65 171.49 C 95.19 171.68 97.70 171.90 100.25 171.62 C 101.91 174.38 103.71 176.96 104.78 180.02 C 105.94 183.42 108.54 186.40 110.88 189.09 C 113.21 191.92 116.83 190.50 119.97 190.34 C 120.61 192.95 122.13 196.07 120.75 198.65 C 119.66 201.01 117.59 202.15 115.29 203.07 C 112.81 203.78 110.32 204.48 107.85 205.24 C 107.84 203.43 107.79 201.62 107.81 199.81 C 108.23 197.81 108.86 195.87 109.51 193.93 C 105.97 196.63 102.10 198.08 97.98 199.63 L 97.36 198.84 C 99.12 197.56 100.58 196.17 102.61 195.30 C 101.57 193.86 100.53 192.48 99.63 190.94 C 103.67 192.67 107.72 192.51 112.00 192.75 C 109.89 189.60 107.55 185.77 104.31 183.70 C 101.49 182.04 98.40 180.84 95.49 179.34 C 96.12 181.19 96.76 183.03 97.34 184.90 C 97.25 185.91 97.14 186.92 97.03 187.93 C 95.17 183.95 92.96 180.11 91.23 176.07 C 90.40 174.40 91.78 172.82 92.65 171.49 Z" fill="#e4dba6" />
<path d="M 150.53 170.55 C 151.99 175.48 153.03 180.49 154.23 185.48 C 153.13 185.72 152.02 185.96 150.92 186.20 C 151.04 185.26 151.16 184.33 151.27 183.39 C 149.34 183.60 147.41 183.74 145.47 183.84 C 145.57 185.13 145.66 186.43 145.76 187.72 C 145.18 187.48 144.60 187.24 144.02 187.00 C 143.78 182.61 142.42 178.71 140.76 174.70 C 143.92 173.10 147.20 171.77 150.53 170.55 Z" fill="#c1af6a" />
<path d="M 157.03 171.48 C 158.20 171.52 159.36 171.57 160.53 171.63 C 160.44 174.44 160.08 177.23 159.84 180.03 C 159.63 179.37 159.40 178.71 159.16 178.05 C 158.38 175.88 157.64 173.70 157.03 171.48 Z" fill="#e2d99c" />
<path d="M 33.91 174.02 C 35.51 180.22 38.11 185.92 42.26 190.83 C 42.10 192.24 41.94 193.64 41.78 195.04 C 41.16 194.59 40.53 194.14 39.90 193.69 C 37.41 191.84 34.53 189.68 33.15 186.83 C 31.76 183.92 31.14 180.48 30.45 177.34 C 31.60 176.24 32.74 175.11 33.91 174.02 Z" fill="#c4c9b4" />
<path d="M 193.23 176.83 C 193.43 182.38 192.49 185.40 189.57 190.10 C 190.41 185.48 190.86 181.00 193.23 176.83 Z" fill="#464540" />
<path d="M 73.03 178.64 C 75.54 180.65 78.23 182.44 80.68 184.54 C 80.89 184.98 81.10 185.42 81.29 185.87 L 81.80 186.98 C 82.14 187.65 82.52 188.32 82.92 188.97 C 76.35 187.24 70.65 184.83 65.70 180.03 C 68.14 179.54 70.57 179.00 73.03 178.64 Z" fill="#ab934b" />
<path d="M 159.16 178.05 C 159.40 178.71 159.63 179.37 159.84 180.03 L 159.85 180.80 C 159.10 184.35 158.02 187.81 157.01 191.30 C 156.51 190.09 155.95 188.89 155.37 187.71 C 155.67 190.76 156.33 193.92 156.17 196.98 C 155.87 200.27 154.70 203.57 153.53 206.65 C 152.55 207.43 151.37 208.49 150.10 208.69 C 148.67 208.38 147.46 206.97 146.30 206.13 C 145.65 205.60 144.99 205.08 144.31 204.58 C 145.59 201.73 146.39 199.20 145.61 196.06 C 144.96 193.05 144.32 190.06 144.02 187.00 C 144.60 187.24 145.18 187.48 145.76 187.72 C 145.66 186.43 145.57 185.13 145.47 183.84 C 147.41 183.74 149.34 183.60 151.27 183.39 C 151.16 184.33 151.04 185.26 150.92 186.20 C 152.02 185.96 153.13 185.72 154.23 185.48 C 154.54 183.48 154.82 181.47 154.92 179.44 C 155.57 179.56 156.22 179.68 156.87 179.79 C 157.63 179.20 158.39 178.62 159.16 178.05 Z" fill="#a0843a" />
<path d="M 95.49 179.34 C 98.40 180.84 101.49 182.04 104.31 183.70 C 107.55 185.77 109.89 189.60 112.00 192.75 C 107.72 192.51 103.67 192.67 99.63 190.94 C 98.79 188.96 98.03 186.94 97.34 184.90 C 96.76 183.03 96.12 181.19 95.49 179.34 Z" fill="#18182e" />
<path d="M 59.68 181.34 C 62.33 182.41 64.88 183.69 67.48 184.87 C 67.39 186.80 67.60 188.57 68.11 190.44 C 65.99 189.44 63.63 188.60 61.73 187.22 C 60.66 185.49 60.21 183.29 59.68 181.34 Z" fill="#9aba98" />
<path d="M 83.21 180.54 C 83.85 181.70 84.47 182.86 85.05 184.05 C 85.15 185.33 85.27 186.62 85.39 187.90 C 84.03 187.22 82.66 186.54 81.29 185.87 C 81.10 185.42 80.89 184.98 80.68 184.54 C 81.53 183.21 82.35 181.86 83.21 180.54 Z" fill="#303435" />
<path d="M 159.85 180.80 C 161.60 184.73 164.53 188.50 164.02 193.00 C 163.66 198.36 162.85 205.06 159.29 209.31 C 158.36 210.67 156.28 210.27 154.81 210.50 C 155.41 209.89 156.00 209.28 156.58 208.66 C 158.60 206.63 160.06 204.22 161.36 201.68 C 161.06 201.10 160.75 200.53 160.43 199.97 C 158.79 197.18 157.69 194.47 157.01 191.30 C 158.02 187.81 159.10 184.35 159.85 180.80 Z" fill="#e7d999" />
<path d="M 215.33 181.22 C 216.56 179.91 218.65 181.10 217.70 182.79 C 216.48 184.09 214.38 182.92 215.33 181.22 Z" fill="#b4b48d" />
<path d="M 206.97 184.77 C 204.73 188.19 202.95 191.58 201.30 195.30 C 200.17 197.87 197.97 198.81 195.73 200.23 C 196.89 197.21 198.32 194.56 200.43 192.11 C 202.29 189.84 203.58 187.62 204.62 184.90 C 205.40 184.86 206.19 184.82 206.97 184.77 Z" fill="#adac8a" />
<path d="M 232.45 184.99 C 232.60 192.28 232.92 200.23 228.28 206.40 C 225.80 207.17 222.69 205.94 220.10 205.97 C 218.53 206.41 217.07 207.36 215.64 208.12 L 215.35 206.64 L 215.17 205.69 C 217.94 204.56 220.22 202.75 222.44 200.79 C 218.44 201.35 216.02 201.55 212.58 199.10 C 213.57 197.51 214.48 195.90 215.39 194.26 L 217.17 194.44 C 218.03 191.73 218.83 189.01 219.56 186.27 C 223.93 185.42 227.97 184.39 232.45 184.99 Z" fill="#d3c997" />
<path d="M 67.48 184.87 C 72.61 187.34 78.37 188.83 83.22 191.77 C 84.92 193.64 85.43 196.83 86.39 199.16 C 87.85 197.67 88.84 196.33 89.44 194.29 C 89.85 194.96 90.25 195.62 90.64 196.30 C 90.10 197.49 89.58 198.69 89.01 199.87 C 86.93 200.28 84.55 200.96 82.45 200.58 C 80.67 199.87 79.08 198.50 77.55 197.35 C 79.59 197.34 81.63 197.36 83.68 197.36 C 82.60 196.21 82.06 193.86 80.13 194.35 C 77.72 194.62 75.30 195.87 73.10 196.85 C 74.09 198.24 75.06 199.65 76.07 201.02 C 76.92 202.24 77.74 203.47 78.59 204.69 C 77.84 205.44 77.09 206.19 76.34 206.95 C 77.25 207.14 78.16 207.34 79.06 207.55 C 77.23 207.84 75.40 208.20 73.57 208.52 C 71.77 207.63 70.02 206.83 67.97 206.72 C 69.45 206.35 70.87 205.97 72.21 205.20 C 73.90 200.46 70.03 195.78 67.61 192.04 C 68.42 191.80 69.23 191.55 70.03 191.31 C 69.39 191.02 68.75 190.73 68.11 190.44 C 67.60 188.57 67.39 186.80 67.48 184.87 Z" fill="#ac9550" />
<path d="M 104.36 185.55 C 105.44 186.57 105.98 188.33 106.50 189.68 C 105.00 189.74 103.51 189.80 102.02 189.86 C 101.70 188.81 101.38 187.77 101.07 186.72 C 102.06 185.86 102.94 184.80 104.36 185.55 Z" fill="#ce6038" />
<path d="M 232.45 184.99 C 235.31 188.78 233.96 192.16 233.08 196.35 C 232.09 200.21 232.66 204.49 230.80 207.85 C 228.79 209.56 226.26 210.66 224.03 212.08 C 222.44 211.56 220.84 210.86 219.19 210.56 C 217.83 211.00 216.54 211.70 215.24 212.29 C 215.40 210.90 215.57 209.52 215.64 208.12 C 217.07 207.36 218.53 206.41 220.10 205.97 C 222.69 205.94 225.80 207.17 228.28 206.40 C 232.92 200.23 232.60 192.28 232.45 184.99 Z" fill="#2d2e49" />
<path d="M 155.37 187.71 C 155.95 188.89 156.51 190.09 157.01 191.30 C 157.69 194.47 158.79 197.18 160.43 199.97 C 158.58 201.94 156.75 203.90 154.70 205.66 L 153.53 206.65 C 154.70 203.57 155.87 200.27 156.17 196.98 C 156.33 193.92 155.67 190.76 155.37 187.71 Z" fill="#302825" />
<path d="M 60.17 190.27 C 62.68 190.76 65.15 191.38 67.61 192.04 C 70.03 195.78 73.90 200.46 72.21 205.20 C 70.87 205.97 69.45 206.35 67.97 206.72 C 66.37 207.06 64.78 207.42 63.18 207.78 C 62.67 206.45 62.15 205.11 61.60 203.79 C 64.08 201.35 67.10 200.67 70.21 199.29 C 67.55 199.37 64.89 199.54 62.23 199.69 C 61.54 196.55 60.80 193.42 60.17 190.27 Z" fill="#98c9b6" />
<path d="M 42.26 190.83 C 44.37 193.10 46.73 195.05 48.92 197.22 C 49.60 198.43 50.21 199.66 50.83 200.90 C 49.56 202.17 48.29 203.46 47.03 204.74 C 45.57 204.24 44.15 203.66 42.73 203.08 C 44.12 202.80 45.51 202.52 46.89 202.25 C 46.12 201.33 45.34 200.41 44.57 199.49 C 45.22 199.18 45.88 198.87 46.53 198.55 C 44.95 197.38 43.37 196.20 41.78 195.04 C 41.94 193.64 42.10 192.24 42.26 190.83 Z" fill="#c8c288" />
<path d="M 216.38 191.35 C 216.07 192.33 215.74 193.30 215.39 194.26 C 214.48 195.90 213.57 197.51 212.58 199.10 C 210.10 202.49 208.24 205.06 203.86 205.92 C 200.67 208.62 197.83 211.63 194.35 214.01 C 193.27 214.32 192.20 214.63 191.12 214.92 C 195.95 211.52 200.07 207.40 204.04 203.05 C 205.57 201.41 206.53 199.51 207.60 197.57 C 208.44 198.33 209.29 199.08 210.15 199.82 C 212.47 197.16 214.21 194.12 216.38 191.35 Z" fill="#262340" />
<path d="M 39.90 193.69 C 40.53 194.14 41.16 194.59 41.78 195.04 C 43.37 196.20 44.95 197.38 46.53 198.55 C 45.88 198.87 45.22 199.18 44.57 199.49 C 45.34 200.41 46.12 201.33 46.89 202.25 C 45.51 202.52 44.12 202.80 42.73 203.08 C 44.15 203.66 45.57 204.24 47.03 204.74 C 48.55 204.91 50.08 205.02 51.60 205.12 L 51.71 206.12 C 48.21 206.34 44.62 206.15 41.15 206.70 C 39.83 206.90 38.86 208.03 37.90 208.88 C 38.42 205.79 39.29 202.76 39.68 199.65 C 39.81 197.66 39.82 195.68 39.90 193.69 Z" fill="#e5dea3" />
<path d="M 80.13 194.35 C 82.06 193.86 82.60 196.21 83.68 197.36 C 81.63 197.36 79.59 197.34 77.55 197.35 C 79.08 198.50 80.67 199.87 82.45 200.58 C 84.55 200.96 86.93 200.28 89.01 199.87 C 88.15 200.81 87.24 201.70 86.33 202.60 C 82.78 202.64 79.39 202.37 76.07 201.02 C 75.06 199.65 74.09 198.24 73.10 196.85 C 75.30 195.87 77.72 194.62 80.13 194.35 Z" fill="#5a4d2c" />
<path d="M 109.51 193.93 C 108.86 195.87 108.23 197.81 107.81 199.81 C 107.31 202.02 106.82 204.24 106.20 206.43 C 105.94 204.28 105.78 202.12 105.65 199.96 C 103.00 201.88 100.04 204.27 96.86 205.18 C 94.97 205.73 94.01 204.29 92.52 203.39 C 94.29 202.00 95.93 200.60 97.98 199.63 C 102.10 198.08 105.97 196.63 109.51 193.93 Z" fill="#20203c" />
<path d="M 58.45 194.38 C 59.54 197.18 59.48 198.87 58.50 201.62 C 57.50 200.33 56.50 199.04 55.46 197.78 C 56.40 196.59 57.41 195.48 58.45 194.38 Z" fill="#1e2026" />
<path d="M 189.35 195.52 C 184.88 202.69 179.41 210.97 171.79 215.02 C 173.44 212.65 175.06 210.28 176.85 208.03 C 179.49 207.41 181.53 206.44 179.95 203.43 C 180.33 202.65 180.68 201.86 181.01 201.04 C 181.94 201.33 182.63 200.99 183.07 200.01 C 184.96 196.73 185.63 196.14 189.35 195.52 Z" fill="#dcdcb6" />
<path d="M 145.61 196.06 C 146.39 199.20 145.59 201.73 144.31 204.58 C 142.56 205.06 140.83 205.78 139.03 206.08 C 138.02 205.69 137.04 205.24 136.08 204.72 C 140.10 202.47 142.95 199.80 145.61 196.06 Z" fill="#e3df9f" />
<path d="M 55.46 197.78 C 56.50 199.04 57.50 200.33 58.50 201.62 C 59.07 202.42 59.60 203.23 60.11 204.06 C 57.27 204.39 54.44 204.73 51.60 205.12 C 52.77 202.56 53.84 200.10 55.46 197.78 Z" fill="#9bb99d" />
<path d="M 30.58 199.31 C 31.23 199.80 31.87 200.30 32.51 200.81 C 30.95 203.16 29.77 205.86 27.98 208.04 C 26.29 209.39 24.35 210.42 22.60 211.70 C 21.89 212.19 21.17 212.68 20.45 213.17 C 20.22 208.74 23.32 204.25 25.55 200.59 C 27.22 200.12 28.88 199.64 30.58 199.31 Z" fill="#232541" />
<path d="M 182.10 198.75 L 183.07 200.01 C 182.63 200.99 181.94 201.33 181.01 201.04 C 181.22 200.22 181.58 199.45 182.10 198.75 Z" fill="#8e8d67" />
<path d="M 39.68 199.65 C 39.29 202.76 38.42 205.79 37.90 208.88 C 35.69 211.22 32.98 213.05 30.57 215.20 C 29.99 210.60 31.66 205.67 32.99 201.31 C 34.92 199.82 37.37 199.91 39.68 199.65 Z" fill="#1f223f" />
<path d="M 160.43 199.97 C 160.75 200.53 161.06 201.10 161.36 201.68 C 160.06 204.22 158.60 206.63 156.58 208.66 C 155.96 207.66 155.33 206.66 154.70 205.66 C 156.75 203.90 158.58 201.94 160.43 199.97 Z" fill="#7a6c3e" />
<path d="M 76.07 201.02 C 79.39 202.37 82.78 202.64 86.33 202.60 C 86.93 203.16 87.53 203.71 88.13 204.27 C 87.52 205.90 86.92 207.54 86.31 209.17 C 86.99 209.38 87.68 209.59 88.37 209.80 L 86.80 211.12 L 86.16 210.91 C 83.97 209.38 81.73 208.07 79.06 207.55 C 78.16 207.34 77.25 207.14 76.34 206.95 C 77.09 206.19 77.84 205.44 78.59 204.69 C 77.74 203.47 76.92 202.24 76.07 201.02 Z" fill="#c2b068" />
<path d="M 115.29 203.07 L 115.26 203.98 C 113.01 205.61 110.46 206.23 107.81 206.93 L 107.85 205.24 C 110.32 204.48 112.81 203.78 115.29 203.07 Z" fill="#373523" />
<path d="M 60.11 204.06 C 60.13 204.97 60.12 205.87 60.08 206.77 C 59.11 208.72 57.83 210.58 56.67 212.44 C 59.54 212.56 62.38 212.53 65.24 212.34 C 61.82 212.71 57.92 213.87 54.52 213.20 C 51.75 212.41 52.15 208.37 51.71 206.12 L 51.60 205.12 C 54.44 204.73 57.27 204.39 60.11 204.06 Z" fill="#bee4db" />
<path d="M 61.60 203.79 C 62.15 205.11 62.67 206.45 63.18 207.78 C 64.78 207.42 66.37 207.06 67.97 206.72 C 70.02 206.83 71.77 207.63 73.57 208.52 C 75.40 208.20 77.23 207.84 79.06 207.55 C 81.73 208.07 83.97 209.38 86.16 210.91 C 79.18 211.29 72.23 211.92 65.24 212.34 C 62.38 212.53 59.54 212.56 56.67 212.44 C 57.83 210.58 59.11 208.72 60.08 206.77 C 60.58 205.77 61.07 204.77 61.60 203.79 Z" fill="#1f213c" />
<path d="M 115.26 203.98 C 115.25 205.32 115.23 206.64 115.30 207.98 C 112.60 211.80 111.58 215.93 109.94 220.23 C 106.66 218.13 103.67 215.79 100.13 214.09 C 102.31 211.63 104.47 207.72 107.81 206.93 C 110.46 206.23 113.01 205.61 115.26 203.98 Z" fill="#e1da97" />
<path d="M 144.31 204.58 C 144.99 205.08 145.65 205.60 146.30 206.13 C 142.05 207.29 139.24 208.81 136.65 212.48 C 136.07 212.59 135.50 212.70 134.92 212.82 C 134.76 211.52 134.33 210.05 134.56 208.75 C 135.18 207.61 136.08 206.60 136.84 205.55 C 135.54 205.57 134.23 205.62 132.93 205.69 C 133.97 205.35 135.03 205.05 136.08 204.72 C 137.04 205.24 138.02 205.69 139.03 206.08 C 140.83 205.78 142.56 205.06 144.31 204.58 Z" fill="#ad9e6a" />
<path d="M 179.95 203.43 C 181.53 206.44 179.49 207.41 176.85 208.03 C 177.79 206.41 178.81 204.91 179.95 203.43 Z" fill="#93916f" />
<path d="M 132.93 205.69 C 134.23 205.62 135.54 205.57 136.84 205.55 C 136.08 206.60 135.18 207.61 134.56 208.75 C 134.33 210.05 134.76 211.52 134.92 212.82 C 133.47 213.14 131.98 213.43 130.55 213.86 C 129.57 214.67 128.59 215.48 127.62 216.29 C 128.37 212.74 128.67 206.86 132.93 205.69 Z" fill="#2a2b48" />
<path d="M 146.30 206.13 C 147.46 206.97 148.67 208.38 150.10 208.69 C 151.37 208.49 152.55 207.43 153.53 206.65 L 154.70 205.66 C 155.33 206.66 155.96 207.66 156.58 208.66 C 156.00 209.28 155.41 209.89 154.81 210.50 C 151.83 213.28 148.20 214.52 144.26 215.26 C 141.95 215.43 141.75 217.76 140.78 219.44 C 140.53 219.02 140.28 218.60 140.03 218.17 C 138.87 216.29 137.80 214.37 136.65 212.48 C 139.24 208.81 142.05 207.29 146.30 206.13 Z" fill="#22243d" />
<path d="M 215.17 205.69 L 215.35 206.64 C 213.00 210.23 210.67 211.53 206.55 212.56 C 207.18 210.93 207.73 209.11 208.72 207.66 C 210.65 206.61 213.06 206.26 215.17 205.69 Z" fill="#23253b" />
<path d="M 115.30 207.98 C 115.90 213.50 115.64 219.06 114.47 224.49 C 111.96 224.41 109.91 224.79 107.88 222.97 C 106.19 220.91 104.90 218.88 102.57 217.45 C 97.85 214.55 91.93 213.34 86.80 211.12 L 88.37 209.80 C 92.41 210.88 96.35 212.29 100.13 214.09 C 103.67 215.79 106.66 218.13 109.94 220.23 C 111.58 215.93 112.60 211.80 115.30 207.98 Z" fill="#20223f" />
<path d="M 136.65 212.48 C 137.80 214.37 138.87 216.29 140.03 218.17 C 136.28 219.79 134.23 220.02 130.22 219.15 C 130.33 217.39 130.45 215.63 130.55 213.86 C 131.98 213.43 133.47 213.14 134.92 212.82 C 135.50 212.70 136.07 212.59 136.65 212.48 Z" fill="#d5ccaf" />
<path d="M 179.44 214.21 C 180.82 213.03 183.05 215.10 181.96 216.56 C 180.62 217.58 178.37 215.65 179.44 214.21 Z" fill="#7b7967" />
<path d="M 177.53 220.32 L 178.25 219.97 C 176.13 222.45 174.73 223.75 171.35 224.28 C 173.15 222.51 175.27 221.38 177.53 220.32 Z" fill="#949594" />
<path d="M 139.76 225.28 C 144.49 223.96 150.07 224.76 155.04 224.46 C 152.29 225.14 149.58 226.04 146.80 226.60 C 144.33 226.84 141.79 226.57 139.32 226.37 C 139.46 226.00 139.60 225.64 139.76 225.28 Z" fill="#181e27" />
</svg>