<?xml version="1.0" encoding="UTF-8" standalone="no"?>
<!DOCTYPE svg PUBLIC "-//W3C//DTD SVG 1.1//EN" "http://www.w3.org/Graphics/SVG/1.1/DTD/svg11.dtd">
<svg xmlns="http://www.w3.org/2000/svg" version="1.1" viewBox="0 0 256 256" width="256.0pt" height="256.0pt">
<path d="M 0.00 0.00 L 256.00 0.00 L 256.00 256.00 L 0.00 256.00 L 0.00 0.00 Z" fill="#fefefe" />
<path d="M 71.93 8.97 C 78.51 9.87 84.96 11.63 91.55 12.50 C 97.99 13.39 104.23 11.43 110.72 12.33 C 118.48 13.32 126.21 13.01 134.00 13.04 C 141.04 13.07 147.96 11.83 155.00 11.94 C 163.67 12.04 172.34 12.01 181.01 11.94 C 197.41 11.52 213.87 19.06 224.79 31.21 C 237.16 43.54 243.51 61.71 243.07 79.00 C 243.05 85.75 243.28 92.32 242.05 99.01 C 240.21 109.05 239.12 120.15 235.70 129.76 C 231.97 139.84 224.27 146.48 218.32 155.30 C 212.94 163.23 207.96 171.84 204.92 180.97 C 202.96 186.20 204.94 192.34 208.93 196.05 C 212.55 199.30 216.58 201.40 219.64 205.37 C 222.06 208.26 223.01 211.67 223.78 215.28 C 222.73 216.12 221.67 216.97 220.66 217.87 C 219.13 217.10 217.58 216.29 216.01 215.62 C 213.59 216.73 211.42 218.11 209.11 219.41 C 207.91 216.79 206.85 214.01 204.77 211.94 C 202.82 211.86 200.76 212.31 198.85 212.67 C 197.34 208.39 195.94 204.12 193.86 200.07 C 192.74 197.70 191.10 195.08 190.82 192.45 C 190.50 189.33 190.52 186.15 191.03 183.05 C 191.66 181.74 192.36 180.47 193.07 179.20 C 197.15 174.69 198.23 169.25 200.83 163.94 C 203.22 159.03 204.45 154.31 208.19 150.22 C 212.68 145.32 217.11 140.41 221.27 135.21 C 223.82 131.97 227.55 128.96 229.19 125.17 C 230.19 123.01 227.91 121.31 226.83 119.69 C 229.01 114.69 230.38 109.39 231.10 103.98 C 231.93 97.27 233.41 90.81 233.38 84.00 C 233.34 76.64 233.49 68.59 231.55 61.47 C 227.41 47.06 218.09 34.47 205.10 26.86 C 199.67 23.56 192.63 22.44 186.40 21.66 C 176.13 20.56 165.44 22.61 155.13 23.27 C 145.38 23.70 135.56 23.35 125.81 23.26 C 115.19 23.42 104.50 22.74 93.99 23.97 C 90.51 24.31 87.03 24.39 83.55 24.47 C 82.73 23.15 81.91 21.83 81.07 20.52 C 80.72 21.70 80.39 22.88 80.05 24.07 C 76.21 22.77 72.86 21.68 68.82 22.99 C 70.27 23.73 71.73 24.46 73.21 25.12 C 68.68 25.72 64.51 26.10 60.05 24.79 C 59.93 25.53 59.82 26.27 59.71 27.01 C 55.48 28.17 50.08 28.84 46.60 31.59 C 42.78 34.85 39.73 38.88 38.87 43.94 C 39.10 46.00 39.49 48.03 39.69 50.09 C 39.85 55.28 39.73 60.41 40.67 65.54 C 41.81 71.95 42.65 78.81 45.17 84.84 C 46.78 88.64 50.17 90.54 53.56 92.52 C 59.67 96.10 66.62 97.10 73.41 99.65 C 73.92 99.80 76.74 100.47 75.83 99.14 C 72.98 90.36 69.36 81.72 65.35 73.40 C 62.87 67.08 60.78 60.84 56.64 55.34 C 56.65 54.52 56.65 53.69 56.66 52.87 C 58.32 54.11 59.93 55.34 61.88 56.12 C 65.08 57.53 68.25 58.94 71.27 60.72 L 71.60 62.07 C 71.92 64.09 72.01 65.95 73.27 67.65 C 76.18 71.78 79.51 75.55 82.12 79.91 C 84.35 84.12 86.49 88.39 88.82 92.54 C 90.38 95.29 92.65 95.66 95.48 96.43 C 95.14 92.22 94.04 88.15 96.17 84.24 C 98.54 79.72 101.52 75.54 103.83 70.97 C 105.14 71.29 106.47 71.79 107.82 71.92 C 109.22 71.70 110.59 71.06 111.92 70.57 C 116.10 68.92 120.63 68.22 125.06 66.97 C 124.07 69.04 123.05 71.11 121.97 73.15 C 120.10 76.56 118.32 80.01 116.76 83.59 C 117.77 83.53 118.77 83.47 119.78 83.40 C 117.45 85.22 115.12 86.96 113.39 89.40 C 111.25 92.40 110.00 96.23 108.78 99.69 C 111.74 98.51 114.69 96.96 117.80 96.23 C 120.05 95.98 122.47 96.87 124.70 97.16 C 127.84 97.80 130.78 96.70 133.84 96.01 C 135.52 96.06 137.21 96.19 138.89 96.32 C 139.99 94.63 141.11 92.96 142.29 91.32 C 144.37 89.37 146.16 87.65 146.79 84.73 C 148.70 77.47 150.99 70.20 152.09 62.76 C 154.11 61.85 157.42 59.64 159.39 61.67 C 160.21 64.03 160.52 66.61 161.09 69.05 C 161.58 70.93 162.68 72.75 163.59 74.45 C 165.73 69.98 167.17 65.53 170.71 61.95 C 173.28 61.30 175.76 60.49 178.19 59.44 C 180.23 60.29 182.23 61.18 184.14 62.30 C 189.10 67.19 193.42 72.67 198.63 77.34 C 203.42 81.59 206.65 86.86 209.77 92.37 C 210.92 102.94 206.13 114.37 201.25 123.54 C 197.84 126.13 194.48 128.37 191.51 131.51 C 187.56 135.69 184.42 140.71 181.90 145.86 C 178.57 152.68 175.50 159.62 172.77 166.70 C 168.98 175.89 167.51 186.80 170.23 196.47 C 170.90 198.96 171.67 201.42 172.41 203.89 C 171.17 204.37 169.93 204.84 168.69 205.31 C 168.63 206.39 168.58 207.48 168.52 208.56 C 164.90 208.99 160.99 210.23 157.39 209.26 C 155.25 208.77 153.47 206.72 151.80 205.35 C 151.15 206.52 150.54 207.72 149.93 208.90 C 149.50 208.23 149.07 207.55 148.64 206.87 C 144.73 209.59 141.08 208.63 136.61 208.38 C 135.70 207.50 134.76 206.68 133.82 205.86 C 133.17 198.59 135.11 192.10 137.25 185.24 C 140.74 181.87 144.74 179.35 148.87 176.85 C 148.32 175.49 147.77 174.12 147.21 172.76 C 147.80 172.50 148.39 172.24 148.98 171.98 C 148.61 171.40 148.23 170.82 147.85 170.24 C 148.35 169.14 148.86 168.04 149.36 166.94 C 148.70 165.87 148.05 164.80 147.40 163.73 C 148.25 163.48 149.10 163.23 149.95 162.99 C 152.28 163.36 155.30 164.62 157.57 163.66 C 159.71 162.87 161.95 161.93 163.75 160.51 C 164.79 159.30 165.37 157.66 166.07 156.24 C 161.90 154.39 157.64 153.10 153.06 152.87 C 156.15 146.71 159.45 140.41 161.47 133.81 C 162.15 129.09 162.09 123.76 159.04 119.83 C 159.59 118.00 160.63 115.78 160.26 113.87 C 159.56 110.85 157.21 108.27 154.81 106.44 C 152.40 104.73 149.74 103.28 147.13 101.90 C 148.54 103.55 149.98 105.19 151.35 106.87 C 149.87 106.39 148.40 105.89 146.97 105.24 C 145.64 103.52 144.55 101.36 142.39 100.59 C 137.73 98.64 133.11 99.20 128.32 100.30 C 123.07 101.47 118.16 104.69 113.93 107.93 C 110.42 110.63 107.98 114.16 104.82 117.18 C 97.55 118.81 89.44 119.65 82.03 118.92 C 80.55 113.79 77.06 110.25 73.21 106.78 C 70.85 104.69 67.89 103.88 65.04 102.44 C 61.27 100.19 56.24 101.34 52.15 102.09 C 46.98 103.78 44.27 109.51 44.24 114.68 C 44.05 117.51 43.96 120.38 44.10 123.21 C 44.38 126.68 45.38 129.96 46.90 133.08 C 50.45 140.17 53.23 147.53 57.53 154.23 C 57.71 154.74 57.88 155.26 58.05 155.77 C 57.43 156.19 56.80 156.61 56.18 157.03 C 49.51 150.14 38.84 146.94 29.53 146.05 C 28.89 145.09 28.25 144.12 27.60 143.16 C 30.04 138.62 33.94 133.88 34.64 128.77 C 35.47 123.30 35.42 117.74 36.41 112.27 C 37.31 106.54 39.41 100.87 38.96 95.06 C 38.61 90.03 36.30 85.12 34.74 80.34 C 32.69 74.33 31.78 68.29 30.71 62.07 C 28.85 52.73 30.03 42.10 34.79 33.78 C 40.87 24.19 51.35 17.36 61.25 12.24 C 64.61 10.59 68.01 8.33 71.93 8.97 Z" fill="#f1f1f1" />
<path d="M 81.07 20.52 C 81.91 21.83 82.73 23.15 83.55 24.47 L 81.86 24.52 C 78.98 24.63 76.09 24.92 73.21 25.12 C 71.73 24.46 70.27 23.73 68.82 22.99 C 72.86 21.68 76.21 22.77 80.05 24.07 C 80.39 22.88 80.72 21.70 81.07 20.52 Z" fill="#d2b8ae" />
<path d="M 186.40 21.66 C 192.63 22.44 199.67 23.56 205.10 26.86 C 218.09 34.47 227.41 47.06 231.55 61.47 C 233.49 68.59 233.34 76.64 233.38 84.00 C 233.41 90.81 231.93 97.27 231.10 103.98 C 230.38 109.39 229.01 114.69 226.83 119.69 C 223.06 125.84 219.43 132.35 214.96 137.97 C 212.45 141.14 209.96 144.31 207.65 147.64 C 203.70 153.47 198.78 158.52 194.94 164.45 C 193.53 166.36 192.03 168.20 190.52 170.04 L 189.90 168.46 C 193.93 159.16 200.51 151.27 204.77 142.03 C 208.20 134.78 213.82 127.60 215.09 119.77 C 216.38 111.15 216.71 102.49 215.37 93.85 C 214.99 87.62 212.16 81.20 213.01 75.04 C 214.13 75.52 215.22 76.06 216.30 76.61 C 215.81 78.26 215.32 79.90 214.84 81.55 C 216.55 81.37 218.07 81.85 219.25 80.29 C 223.26 75.37 225.78 69.04 227.93 63.12 C 224.58 66.05 221.50 69.16 218.31 72.27 C 217.10 71.55 215.89 70.83 214.68 70.10 C 214.59 71.00 214.50 71.90 214.41 72.80 C 213.34 72.85 212.27 72.90 211.20 72.95 C 210.79 71.60 210.38 70.26 209.98 68.91 C 211.39 68.46 212.79 68.00 214.20 67.54 C 211.16 66.09 209.44 64.74 208.05 61.61 C 210.31 61.44 212.54 62.26 213.98 60.04 C 217.13 55.58 219.05 50.09 220.75 44.94 C 215.38 49.43 210.63 54.35 207.77 60.84 L 207.26 59.46 C 204.64 52.06 201.15 42.10 194.23 37.70 C 191.03 36.42 187.66 35.42 184.23 34.95 C 180.09 35.71 176.04 37.57 172.21 39.28 C 168.50 41.01 165.62 43.51 162.17 45.63 C 158.47 47.64 154.80 49.71 151.13 51.78 C 150.03 51.91 148.93 52.03 147.84 52.15 C 145.50 52.42 143.19 52.80 140.96 53.55 C 137.29 55.06 133.71 56.79 130.15 58.53 C 133.03 59.81 135.93 60.99 138.93 61.95 C 134.39 63.86 129.82 65.67 125.06 66.97 C 120.63 68.22 116.10 68.92 111.92 70.57 C 110.59 71.06 109.22 71.70 107.82 71.92 C 106.47 71.79 105.14 71.29 103.83 70.97 C 100.85 70.40 97.70 70.44 94.70 70.77 C 94.39 71.30 94.08 71.82 93.78 72.36 C 93.27 72.36 92.77 72.36 92.27 72.36 C 90.49 70.31 88.70 68.57 86.04 67.74 C 83.38 66.77 80.65 66.00 77.97 65.07 C 75.82 64.14 73.71 63.09 71.60 62.07 L 71.27 60.72 C 70.46 57.09 69.73 53.57 68.01 50.25 C 65.48 50.83 63.03 51.61 60.56 52.40 C 61.59 53.78 62.61 55.17 63.61 56.57 L 61.88 56.12 C 59.93 55.34 58.32 54.11 56.66 52.87 C 53.48 49.98 49.66 52.05 45.97 49.88 C 43.36 48.30 41.15 45.95 38.87 43.94 C 39.73 38.88 42.78 34.85 46.60 31.59 C 50.08 28.84 55.48 28.17 59.71 27.01 C 61.04 28.37 62.37 29.74 63.70 31.11 C 66.83 35.71 70.42 39.82 75.07 42.94 C 79.15 45.88 83.76 46.57 88.05 49.08 C 90.11 50.10 91.67 51.60 94.11 51.20 C 101.92 50.12 109.90 48.85 117.38 46.33 C 121.50 44.99 125.67 43.85 129.86 42.77 C 143.15 41.97 156.06 38.90 168.04 33.02 C 171.69 31.20 173.35 28.04 175.55 24.80 C 162.83 24.31 149.88 27.52 137.66 30.68 C 134.39 31.43 132.46 33.63 129.71 35.25 C 127.04 34.70 124.50 32.90 121.80 33.05 C 119.02 33.11 116.25 33.21 113.46 33.18 C 126.13 27.34 141.59 26.33 155.13 23.27 C 165.44 22.61 176.13 20.56 186.40 21.66 Z" fill="#232542" />
<path d="M 125.81 23.26 C 130.28 23.39 134.73 23.71 139.18 24.16 C 129.08 26.20 119.04 28.39 109.10 31.08 C 105.09 31.32 100.60 31.94 96.68 30.89 C 92.20 29.07 88.48 26.08 83.63 25.00 L 81.86 24.52 L 83.55 24.47 C 87.03 24.39 90.51 24.31 93.99 23.97 C 104.50 22.74 115.19 23.42 125.81 23.26 Z" fill="#24253f" />
<path d="M 125.81 23.26 C 135.56 23.35 145.38 23.70 155.13 23.27 C 141.59 26.33 126.13 27.34 113.46 33.18 C 108.37 34.58 103.67 36.92 98.54 38.05 C 97.97 37.51 97.40 36.98 96.82 36.45 C 101.76 35.51 105.16 34.23 109.10 31.08 C 119.04 28.39 129.08 26.20 139.18 24.16 C 134.73 23.71 130.28 23.39 125.81 23.26 Z" fill="#af815e" />
<path d="M 60.05 24.79 C 64.51 26.10 68.68 25.72 73.21 25.12 C 76.09 24.92 78.98 24.63 81.86 24.52 L 83.63 25.00 C 87.65 29.33 92.27 32.74 96.82 36.45 C 97.40 36.98 97.97 37.51 98.54 38.05 C 94.78 38.79 90.88 39.24 87.06 39.00 C 83.61 39.24 81.81 34.79 79.96 32.47 C 79.76 33.69 79.55 34.91 79.34 36.13 C 75.74 32.45 72.75 28.77 67.57 27.26 C 68.81 28.76 70.11 30.22 71.44 31.65 C 70.23 32.51 69.03 33.38 67.82 34.24 C 66.50 33.13 65.09 32.15 63.70 31.11 C 62.37 29.74 61.04 28.37 59.71 27.01 C 59.82 26.27 59.93 25.53 60.05 24.79 Z" fill="#402e3d" />
<path d="M 175.55 24.80 C 173.35 28.04 171.69 31.20 168.04 33.02 C 156.06 38.90 143.15 41.97 129.86 42.77 C 138.19 38.63 147.22 37.10 155.83 33.72 C 161.28 31.60 166.75 29.75 172.01 27.17 C 167.95 27.79 164.17 28.86 160.40 30.51 C 152.98 33.78 145.20 36.30 137.44 38.62 C 125.45 41.65 112.90 43.46 100.80 45.85 C 97.27 46.45 93.93 46.89 90.52 45.43 C 86.17 43.60 82.25 41.06 77.62 39.61 C 75.73 38.99 73.70 38.62 71.88 37.82 C 70.36 36.90 69.14 35.43 67.82 34.24 C 69.03 33.38 70.23 32.51 71.44 31.65 C 70.11 30.22 68.81 28.76 67.57 27.26 C 72.75 28.77 75.74 32.45 79.34 36.13 C 79.55 34.91 79.76 33.69 79.96 32.47 C 81.81 34.79 83.61 39.24 87.06 39.00 C 90.88 39.24 94.78 38.79 98.54 38.05 C 103.67 36.92 108.37 34.58 113.46 33.18 C 116.25 33.21 119.02 33.11 121.80 33.05 C 124.50 32.90 127.04 34.70 129.71 35.25 C 132.46 33.63 134.39 31.43 137.66 30.68 C 149.88 27.52 162.83 24.31 175.55 24.80 Z" fill="#60363d" />
<path d="M 83.63 25.00 C 88.48 26.08 92.20 29.07 96.68 30.89 C 100.60 31.94 105.09 31.32 109.10 31.08 C 105.16 34.23 101.76 35.51 96.82 36.45 C 92.27 32.74 87.65 29.33 83.63 25.00 Z" fill="#c6592f" />
<path d="M 172.01 27.17 C 166.75 29.75 161.28 31.60 155.83 33.72 C 147.22 37.10 138.19 38.63 129.86 42.77 C 125.67 43.85 121.50 44.99 117.38 46.33 C 109.90 48.85 101.92 50.12 94.11 51.20 C 91.67 51.60 90.11 50.10 88.05 49.08 C 83.76 46.57 79.15 45.88 75.07 42.94 C 70.42 39.82 66.83 35.71 63.70 31.11 C 65.09 32.15 66.50 33.13 67.82 34.24 C 69.14 35.43 70.36 36.90 71.88 37.82 C 73.70 38.62 75.73 38.99 77.62 39.61 C 82.25 41.06 86.17 43.60 90.52 45.43 C 93.93 46.89 97.27 46.45 100.80 45.85 C 112.90 43.46 125.45 41.65 137.44 38.62 C 145.20 36.30 152.98 33.78 160.40 30.51 C 164.17 28.86 167.95 27.79 172.01 27.17 Z" fill="#d0823e" />
<path d="M 61.80 30.88 C 58.90 31.71 56.92 31.70 53.99 30.98 C 56.96 30.09 58.82 30.01 61.80 30.88 Z" fill="#87869a" />
<path d="M 59.89 32.64 C 57.90 34.50 55.84 36.27 53.79 38.06 C 57.51 37.88 60.94 37.45 64.42 39.17 C 62.14 40.20 59.61 40.96 57.51 42.33 C 56.44 43.66 55.80 45.38 55.08 46.92 C 54.47 43.70 53.00 39.85 53.71 36.60 C 54.76 33.65 57.29 33.51 59.89 32.64 Z" fill="#8c90a0" />
<path d="M 184.23 34.95 C 185.75 37.16 187.05 39.34 187.24 42.09 C 187.58 45.91 185.68 49.87 184.77 53.55 C 184.02 56.48 184.12 59.30 184.14 62.30 C 182.23 61.18 180.23 60.29 178.19 59.44 C 175.76 60.49 173.28 61.30 170.71 61.95 C 172.74 60.11 175.00 58.62 177.33 57.19 C 176.84 50.72 175.13 45.05 172.21 39.28 C 176.04 37.57 180.09 35.71 184.23 34.95 Z" fill="#e1d1ae" />
<path d="M 184.23 34.95 C 187.66 35.42 191.03 36.42 194.23 37.70 C 195.53 40.86 196.88 44.01 198.43 47.06 C 195.27 49.91 191.68 52.79 189.22 56.24 C 187.68 58.40 186.06 60.45 184.14 62.30 C 184.12 59.30 184.02 56.48 184.77 53.55 C 185.68 49.87 187.58 45.91 187.24 42.09 C 187.05 39.34 185.75 37.16 184.23 34.95 Z" fill="#d87a36" />
<path d="M 194.23 37.70 C 201.15 42.10 204.64 52.06 207.26 59.46 C 204.29 55.33 201.12 51.38 198.43 47.06 C 196.88 44.01 195.53 40.86 194.23 37.70 Z" fill="#fcfdf2" />
<path d="M 172.21 39.28 C 175.13 45.05 176.84 50.72 177.33 57.19 C 175.00 58.62 172.74 60.11 170.71 61.95 C 167.17 65.53 165.73 69.98 163.59 74.45 C 162.68 72.75 161.58 70.93 161.09 69.05 C 159.48 60.86 161.63 53.70 162.17 45.63 C 165.62 43.51 168.50 41.01 172.21 39.28 Z" fill="#da7a34" />
<path d="M 38.87 43.94 C 41.15 45.95 43.36 48.30 45.97 49.88 C 49.66 52.05 53.48 49.98 56.66 52.87 C 56.65 53.69 56.65 54.52 56.64 55.34 C 53.16 55.13 50.34 54.43 47.15 53.01 C 44.70 51.95 42.22 50.95 39.69 50.09 C 39.49 48.03 39.10 46.00 38.87 43.94 Z" fill="#765849" />
<path d="M 220.75 44.94 C 219.05 50.09 217.13 55.58 213.98 60.04 C 212.54 62.26 210.31 61.44 208.05 61.61 L 207.77 60.84 C 210.63 54.35 215.38 49.43 220.75 44.94 Z" fill="#cb8c43" />
<path d="M 162.17 45.63 C 161.63 53.70 159.48 60.86 161.09 69.05 C 160.52 66.61 160.21 64.03 159.39 61.67 C 157.42 59.64 154.11 61.85 152.09 62.76 C 152.52 58.95 152.20 55.46 151.13 51.78 C 154.80 49.71 158.47 47.64 162.17 45.63 Z" fill="#d7c3a1" />
<path d="M 198.43 47.06 C 201.12 51.38 204.29 55.33 207.26 59.46 L 207.77 60.84 L 208.05 61.61 C 209.44 64.74 211.16 66.09 214.20 67.54 C 212.79 68.00 211.39 68.46 209.98 68.91 C 210.38 70.26 210.79 71.60 211.20 72.95 C 212.27 72.90 213.34 72.85 214.41 72.80 C 214.50 71.90 214.59 71.00 214.68 70.10 C 215.89 70.83 217.10 71.55 218.31 72.27 C 218.23 74.00 218.14 75.73 218.05 77.46 C 217.47 77.18 216.89 76.89 216.30 76.61 C 215.22 76.06 214.13 75.52 213.01 75.04 C 212.16 81.20 214.99 87.62 215.37 93.85 C 214.23 94.59 213.10 95.32 211.96 96.06 C 211.23 94.83 210.49 93.61 209.77 92.37 C 206.65 86.86 203.42 81.59 198.63 77.34 C 193.42 72.67 189.10 67.19 184.14 62.30 C 186.06 60.45 187.68 58.40 189.22 56.24 C 191.68 52.79 195.27 49.91 198.43 47.06 Z" fill="#cfb896" />
<path d="M 39.69 50.09 C 42.22 50.95 44.70 51.95 47.15 53.01 C 47.29 56.12 47.56 59.23 47.82 62.33 C 46.26 61.88 44.70 61.43 43.13 60.98 C 42.91 64.94 42.84 68.90 42.77 72.87 C 44.44 71.57 46.22 68.37 48.68 69.73 C 50.87 72.06 51.89 75.67 54.30 77.76 C 56.21 78.86 58.60 79.29 60.73 79.84 C 62.23 77.67 63.78 75.52 65.35 73.40 C 69.36 81.72 72.98 90.36 75.83 99.14 C 76.74 100.47 73.92 99.80 73.41 99.65 C 66.62 97.10 59.67 96.10 53.56 92.52 C 50.17 90.54 46.78 88.64 45.17 84.84 C 42.65 78.81 41.81 71.95 40.67 65.54 C 39.73 60.41 39.85 55.28 39.69 50.09 Z" fill="#da7931" />
<path d="M 68.01 50.25 C 69.73 53.57 70.46 57.09 71.27 60.72 C 68.25 58.94 65.08 57.53 61.88 56.12 L 63.61 56.57 C 62.61 55.17 61.59 53.78 60.56 52.40 C 63.03 51.61 65.48 50.83 68.01 50.25 Z" fill="#8f949d" />
<path d="M 147.84 52.15 C 147.09 52.61 146.35 53.08 145.62 53.56 C 145.08 55.61 144.71 57.65 144.31 59.73 C 143.37 59.94 142.43 60.15 141.49 60.36 C 141.88 59.20 142.27 58.03 142.66 56.87 C 142.09 55.76 141.52 54.65 140.96 53.55 C 143.19 52.80 145.50 52.42 147.84 52.15 Z" fill="#ac6937" />
<path d="M 151.13 51.78 C 152.20 55.46 152.52 58.95 152.09 62.76 C 150.99 70.20 148.70 77.47 146.79 84.73 C 146.16 87.65 144.37 89.37 142.29 91.32 C 143.16 88.39 143.81 85.39 144.08 82.34 C 143.33 81.89 142.57 81.46 141.81 81.05 C 141.21 83.86 140.91 86.86 139.41 89.36 C 137.92 91.81 135.86 93.99 133.84 96.01 C 130.78 96.70 127.84 97.80 124.70 97.16 C 122.47 96.87 120.05 95.98 117.80 96.23 C 114.69 96.96 111.74 98.51 108.78 99.69 C 110.00 96.23 111.25 92.40 113.39 89.40 C 115.12 86.96 117.45 85.22 119.78 83.40 C 118.77 83.47 117.77 83.53 116.76 83.59 C 118.32 80.01 120.10 76.56 121.97 73.15 C 123.02 73.80 124.06 74.44 125.11 75.09 C 127.24 74.50 129.37 73.90 131.51 73.31 C 131.50 75.31 131.50 77.32 131.49 79.32 C 137.51 79.56 141.87 76.64 146.93 73.92 C 145.73 70.78 144.12 67.62 143.45 64.31 C 144.73 62.20 146.83 60.49 148.61 58.80 C 148.36 56.58 148.10 54.37 147.84 52.15 C 148.93 52.03 150.03 51.91 151.13 51.78 Z" fill="#d97830" />
<path d="M 47.15 53.01 C 50.34 54.43 53.16 55.13 56.64 55.34 C 60.78 60.84 62.87 67.08 65.35 73.40 C 63.78 75.52 62.23 77.67 60.73 79.84 C 58.60 79.29 56.21 78.86 54.30 77.76 C 51.89 75.67 50.87 72.06 48.68 69.73 C 46.22 68.37 44.44 71.57 42.77 72.87 C 42.84 68.90 42.91 64.94 43.13 60.98 C 44.70 61.43 46.26 61.88 47.82 62.33 C 47.56 59.23 47.29 56.12 47.15 53.01 Z" fill="#e19c66" />
<path d="M 145.62 53.56 C 146.35 53.08 147.09 52.61 147.84 52.15 C 148.10 54.37 148.36 56.58 148.61 58.80 C 146.83 60.49 144.73 62.20 143.45 64.31 C 144.12 67.62 145.73 70.78 146.93 73.92 C 141.87 76.64 137.51 79.56 131.49 79.32 C 131.50 77.32 131.50 75.31 131.51 73.31 C 129.37 73.90 127.24 74.50 125.11 75.09 C 124.06 74.44 123.02 73.80 121.97 73.15 C 123.05 71.11 124.07 69.04 125.06 66.97 C 129.82 65.67 134.39 63.86 138.93 61.95 C 135.93 60.99 133.03 59.81 130.15 58.53 C 133.71 56.79 137.29 55.06 140.96 53.55 C 141.52 54.65 142.09 55.76 142.66 56.87 C 142.27 58.03 141.88 59.20 141.49 60.36 C 142.43 60.15 143.37 59.94 144.31 59.73 C 144.71 57.65 145.08 55.61 145.62 53.56 Z" fill="#e29d66" />
<path d="M 218.00 54.74 C 220.56 56.38 220.52 58.62 220.98 61.34 C 219.55 59.26 218.54 57.23 218.00 54.74 Z" fill="#9395a6" />
<path d="M 71.60 62.07 C 73.71 63.09 75.82 64.14 77.97 65.07 C 78.17 70.35 79.97 75.15 82.12 79.91 C 79.51 75.55 76.18 71.78 73.27 67.65 C 72.01 65.95 71.92 64.09 71.60 62.07 Z" fill="#edc49d" />
<path d="M 227.93 63.12 C 225.78 69.04 223.26 75.37 219.25 80.29 C 218.07 81.85 216.55 81.37 214.84 81.55 C 215.32 79.90 215.81 78.26 216.30 76.61 C 216.89 76.89 217.47 77.18 218.05 77.46 C 218.14 75.73 218.23 74.00 218.31 72.27 C 221.50 69.16 224.58 66.05 227.93 63.12 Z" fill="#c98f42" />
<path d="M 77.97 65.07 C 80.65 66.00 83.38 66.77 86.04 67.74 C 86.31 69.17 86.60 70.68 87.14 72.04 C 88.80 72.37 90.58 72.35 92.27 72.36 C 92.77 72.36 93.27 72.36 93.78 72.36 C 94.85 75.11 95.93 77.71 95.72 80.75 C 95.46 84.05 94.46 87.37 93.70 90.59 C 92.07 91.24 90.45 91.89 88.82 92.54 C 86.49 88.39 84.35 84.12 82.12 79.91 C 79.97 75.15 78.17 70.35 77.97 65.07 Z" fill="#da803d" />
<path d="M 86.04 67.74 C 88.70 68.57 90.49 70.31 92.27 72.36 C 90.58 72.35 88.80 72.37 87.14 72.04 C 86.60 70.68 86.31 69.17 86.04 67.74 Z" fill="#744d3c" />
<path d="M 94.70 70.77 C 97.70 70.44 100.85 70.40 103.83 70.97 C 101.52 75.54 98.54 79.72 96.17 84.24 C 94.04 88.15 95.14 92.22 95.48 96.43 C 92.65 95.66 90.38 95.29 88.82 92.54 C 90.45 91.89 92.07 91.24 93.70 90.59 C 94.46 87.37 95.46 84.05 95.72 80.75 C 95.93 77.71 94.85 75.11 93.78 72.36 C 94.08 71.82 94.39 71.30 94.70 70.77 Z" fill="#e7b891" />
<path d="M 174.01 74.92 C 180.71 74.75 187.10 78.74 191.87 83.13 C 198.03 89.01 201.70 97.01 199.50 105.60 C 196.83 115.83 188.66 125.01 181.30 132.29 C 179.35 134.06 176.67 136.92 173.82 136.85 C 171.16 136.90 169.93 133.98 169.12 131.91 C 166.41 123.84 166.74 115.57 162.08 107.87 C 158.74 102.28 153.68 98.10 153.89 91.02 C 153.73 85.21 158.13 81.17 161.35 76.86 C 161.35 77.90 161.35 78.94 161.35 79.97 C 165.25 77.83 169.43 74.91 174.01 74.92 Z" fill="#fafafa" />
<path d="M 141.81 81.05 C 142.57 81.46 143.33 81.89 144.08 82.34 C 143.81 85.39 143.16 88.39 142.29 91.32 C 141.11 92.96 139.99 94.63 138.89 96.32 C 137.21 96.19 135.52 96.06 133.84 96.01 C 135.86 93.99 137.92 91.81 139.41 89.36 C 140.91 86.86 141.21 83.86 141.81 81.05 Z" fill="#e7b992" />
<path d="M 228.40 90.32 C 227.03 93.97 225.26 97.85 222.68 100.82 C 221.34 102.43 219.26 102.75 217.37 103.44 C 217.69 100.14 218.17 96.86 218.67 93.58 C 221.90 92.43 225.10 91.25 228.40 90.32 Z" fill="#be8640" />
<path d="M 209.77 92.37 C 210.49 93.61 211.23 94.83 211.96 96.06 C 213.10 95.32 214.23 94.59 215.37 93.85 C 216.71 102.49 216.38 111.15 215.09 119.77 C 213.82 127.60 208.20 134.78 204.77 142.03 C 204.25 139.84 203.73 137.65 203.19 135.47 C 204.29 135.77 205.39 136.07 206.50 136.36 C 205.77 135.33 205.08 134.21 204.19 133.32 C 203.00 132.88 201.70 132.71 200.46 132.47 C 201.81 130.45 203.21 128.38 204.06 126.08 C 203.20 125.14 202.24 124.33 201.25 123.54 C 206.13 114.37 210.92 102.94 209.77 92.37 Z" fill="#e3c38d" />
<path d="M 142.39 100.59 C 144.55 101.36 145.64 103.52 146.97 105.24 L 147.33 105.81 C 145.57 105.41 143.82 105.00 142.05 104.67 C 141.11 106.31 140.26 107.98 139.41 109.66 C 138.97 108.43 138.52 107.20 138.08 105.97 C 135.60 107.94 133.18 109.87 130.91 112.07 C 126.43 112.03 123.61 112.51 120.20 115.61 C 117.84 117.39 116.14 119.24 115.10 122.05 C 113.68 125.80 111.61 128.82 109.02 131.84 C 108.85 138.75 104.51 144.06 103.94 150.95 L 103.29 151.31 C 100.26 152.98 97.15 154.48 94.04 155.98 C 89.85 157.70 85.49 158.87 81.05 159.72 C 78.22 157.37 75.51 154.91 73.12 152.09 C 71.97 149.82 70.97 147.48 70.09 145.09 C 68.47 140.49 68.39 135.88 68.64 131.07 C 68.78 130.16 68.94 129.26 69.12 128.36 C 70.16 123.95 73.05 120.28 73.58 115.84 C 73.64 115.44 73.69 115.04 73.74 114.63 C 68.65 114.12 64.50 113.23 61.12 109.09 C 60.42 107.31 59.77 105.51 58.96 103.77 C 57.99 108.40 60.16 112.66 59.00 117.34 C 57.92 118.16 56.85 118.99 55.77 119.82 C 54.56 119.57 53.35 119.32 52.14 119.07 C 50.92 117.82 49.60 116.68 48.25 115.59 C 48.48 120.92 49.68 124.05 52.85 128.28 C 52.87 129.44 52.90 130.60 52.93 131.76 C 52.95 135.89 54.41 140.19 55.22 144.28 C 55.76 147.09 56.54 149.75 57.54 152.44 C 57.53 153.04 57.52 153.63 57.53 154.23 C 53.23 147.53 50.45 140.17 46.90 133.08 C 45.38 129.96 44.38 126.68 44.10 123.21 C 45.53 123.16 46.97 123.12 48.41 123.07 C 47.68 119.65 46.68 117.25 44.24 114.68 C 44.27 109.51 46.98 103.78 52.15 102.09 C 56.24 101.34 61.27 100.19 65.04 102.44 C 67.89 103.88 70.85 104.69 73.21 106.78 C 77.06 110.25 80.55 113.79 82.03 118.92 C 82.99 121.64 84.35 124.10 85.96 126.48 C 92.04 123.12 99.34 121.42 104.82 117.18 C 107.98 114.16 110.42 110.63 113.93 107.93 C 118.16 104.69 123.07 101.47 128.32 100.30 C 133.11 99.20 137.73 98.64 142.39 100.59 Z" fill="#232541" />
<path d="M 147.13 101.90 C 149.74 103.28 152.40 104.73 154.81 106.44 C 154.33 107.71 153.70 109.11 153.64 110.48 C 155.03 112.71 156.87 114.64 158.26 116.89 C 156.26 115.80 154.30 114.63 152.37 113.43 C 152.04 114.33 151.71 115.24 151.39 116.14 C 151.19 115.08 150.95 114.05 150.67 113.02 C 149.83 110.49 148.65 108.12 147.33 105.81 L 146.97 105.24 C 148.40 105.89 149.87 106.39 151.35 106.87 C 149.98 105.19 148.54 103.55 147.13 101.90 Z" fill="#5a403b" />
<path d="M 58.96 103.77 C 59.77 105.51 60.42 107.31 61.12 109.09 C 62.31 112.43 64.15 115.39 65.93 118.44 L 65.52 119.67 C 64.42 118.86 63.32 118.06 62.21 117.25 C 62.55 118.73 62.89 120.20 63.20 121.68 C 61.72 120.31 60.31 118.88 59.00 117.34 C 60.16 112.66 57.99 108.40 58.96 103.77 Z" fill="#daa23b" />
<path d="M 220.25 104.19 L 220.96 103.75 L 221.68 104.14 L 221.71 104.96 L 221.01 105.40 L 220.28 105.01 L 220.25 104.19 Z" fill="#9d979c" />
<path d="M 142.05 104.67 C 143.82 105.00 145.57 105.41 147.33 105.81 C 148.65 108.12 149.83 110.49 150.67 113.02 C 149.69 114.07 148.74 115.14 147.81 116.23 C 144.23 115.02 140.94 113.31 137.67 111.44 C 137.81 109.62 137.94 107.79 138.08 105.97 C 138.52 107.20 138.97 108.43 139.41 109.66 C 140.26 107.98 141.11 106.31 142.05 104.67 Z" fill="#4a3742" />
<path d="M 138.08 105.97 C 137.94 107.79 137.81 109.62 137.67 111.44 C 133.03 115.84 128.65 120.13 125.90 126.01 C 125.24 126.30 124.58 126.60 123.93 126.92 C 126.33 122.03 128.00 116.64 130.91 112.07 C 133.18 109.87 135.60 107.94 138.08 105.97 Z" fill="#dfa820" />
<path d="M 154.81 106.44 C 157.21 108.27 159.56 110.85 160.26 113.87 C 160.63 115.78 159.59 118.00 159.04 119.83 C 162.09 123.76 162.15 129.09 161.47 133.81 C 159.45 140.41 156.15 146.71 153.06 152.87 C 151.26 152.90 149.47 153.10 147.70 153.41 C 149.26 146.48 153.22 138.99 151.95 132.00 C 151.52 128.38 150.39 124.95 148.94 121.63 C 149.91 119.87 150.71 118.03 151.39 116.14 C 151.71 115.24 152.04 114.33 152.37 113.43 C 154.30 114.63 156.26 115.80 158.26 116.89 C 156.87 114.64 155.03 112.71 153.64 110.48 C 153.70 109.11 154.33 107.71 154.81 106.44 Z" fill="#353043" />
<path d="M 61.12 109.09 C 64.50 113.23 68.65 114.12 73.74 114.63 C 73.69 115.04 73.64 115.44 73.58 115.84 C 72.44 115.53 71.30 115.24 70.15 114.96 C 68.67 116.03 67.27 117.19 65.93 118.44 C 64.15 115.39 62.31 112.43 61.12 109.09 Z" fill="#765234" />
<path d="M 137.67 111.44 C 140.94 113.31 144.23 115.02 147.81 116.23 C 145.14 119.39 143.05 122.85 140.88 126.36 C 138.88 125.43 136.74 124.14 134.53 123.83 C 131.62 123.84 128.63 125.10 125.90 126.01 C 128.65 120.13 133.03 115.84 137.67 111.44 Z" fill="#b96f44" />
<path d="M 130.91 112.07 C 128.00 116.64 126.33 122.03 123.93 126.92 C 123.49 127.89 123.10 128.88 122.78 129.90 L 121.52 129.76 L 120.01 129.62 C 117.39 132.82 116.09 136.45 114.54 140.21 C 113.93 141.01 113.32 141.80 112.74 142.63 C 111.42 144.97 110.62 147.46 109.67 149.97 C 108.32 151.66 106.90 153.30 105.47 154.93 C 104.91 153.62 104.41 152.29 103.94 150.95 C 104.51 144.06 108.85 138.75 109.02 131.84 C 112.31 130.08 115.42 128.79 117.56 125.54 C 119.77 122.43 120.50 119.39 120.20 115.61 C 123.61 112.51 126.43 112.03 130.91 112.07 Z" fill="#b96f45" />
<path d="M 150.67 113.02 C 150.95 114.05 151.19 115.08 151.39 116.14 C 150.71 118.03 149.91 119.87 148.94 121.63 C 146.56 123.87 144.27 126.17 142.20 128.71 C 141.76 127.93 141.32 127.15 140.88 126.36 C 143.05 122.85 145.14 119.39 147.81 116.23 C 148.74 115.14 149.69 114.07 150.67 113.02 Z" fill="#e7ab23" />
<path d="M 221.14 113.10 C 222.93 111.91 224.07 114.68 221.97 115.10 C 220.83 114.79 220.56 114.12 221.14 113.10 Z" fill="#70748b" />
<path d="M 44.24 114.68 C 46.68 117.25 47.68 119.65 48.41 123.07 C 46.97 123.12 45.53 123.16 44.10 123.21 C 43.96 120.38 44.05 117.51 44.24 114.68 Z" fill="#918d86" />
<path d="M 70.15 114.96 C 71.30 115.24 72.44 115.53 73.58 115.84 C 73.05 120.28 70.16 123.95 69.12 128.36 C 67.29 127.06 65.45 125.73 63.55 124.54 C 60.33 126.37 57.38 128.70 54.30 130.77 L 52.93 131.76 C 52.90 130.60 52.87 129.44 52.85 128.28 C 53.75 127.78 54.65 127.28 55.55 126.78 C 54.46 124.20 53.41 121.56 52.14 119.07 C 53.35 119.32 54.56 119.57 55.77 119.82 C 56.85 118.99 57.92 118.16 59.00 117.34 C 60.31 118.88 61.72 120.31 63.20 121.68 C 62.89 120.20 62.55 118.73 62.21 117.25 C 63.32 118.06 64.42 118.86 65.52 119.67 L 65.93 118.44 C 67.27 117.19 68.67 116.03 70.15 114.96 Z" fill="#ba6f44" />
<path d="M 48.25 115.59 C 49.60 116.68 50.92 117.82 52.14 119.07 C 53.41 121.56 54.46 124.20 55.55 126.78 C 54.65 127.28 53.75 127.78 52.85 128.28 C 49.68 124.05 48.48 120.92 48.25 115.59 Z" fill="#d3a61b" />
<path d="M 120.20 115.61 C 120.50 119.39 119.77 122.43 117.56 125.54 C 115.42 128.79 112.31 130.08 109.02 131.84 C 111.61 128.82 113.68 125.80 115.10 122.05 C 116.14 119.24 117.84 117.39 120.20 115.61 Z" fill="#8f5947" />
<path d="M 104.82 117.18 C 99.34 121.42 92.04 123.12 85.96 126.48 C 84.35 124.10 82.99 121.64 82.03 118.92 C 89.44 119.65 97.55 118.81 104.82 117.18 Z" fill="#7f828e" />
<path d="M 218.01 116.69 C 219.49 117.21 220.97 117.72 222.43 118.26 C 221.08 119.10 219.70 119.89 218.31 120.68 C 218.21 119.35 218.11 118.02 218.01 116.69 Z" fill="#f0e4c4" />
<path d="M 226.83 119.69 C 227.91 121.31 230.19 123.01 229.19 125.17 C 227.55 128.96 223.82 131.97 221.27 135.21 C 217.11 140.41 212.68 145.32 208.19 150.22 C 204.45 154.31 203.22 159.03 200.83 163.94 C 198.23 169.25 197.15 174.69 193.07 179.20 C 194.78 174.21 196.61 169.78 194.94 164.45 C 198.78 158.52 203.70 153.47 207.65 147.64 C 209.96 144.31 212.45 141.14 214.96 137.97 C 219.43 132.35 223.06 125.84 226.83 119.69 Z" fill="#f1d8a5" />
<path d="M 148.94 121.63 C 150.39 124.95 151.52 128.38 151.95 132.00 C 153.22 138.99 149.26 146.48 147.70 153.41 C 145.33 154.20 143.02 155.20 140.78 156.31 C 141.31 149.56 144.43 143.58 145.12 136.92 C 145.56 133.98 143.52 131.20 142.20 128.71 C 144.27 126.17 146.56 123.87 148.94 121.63 Z" fill="#be7c54" />
<path d="M 134.53 123.83 C 136.74 124.14 138.88 125.43 140.88 126.36 C 141.32 127.15 141.76 127.93 142.20 128.71 C 143.52 131.20 145.56 133.98 145.12 136.92 C 144.43 143.58 141.31 149.56 140.78 156.31 C 140.01 156.81 139.26 157.35 138.52 157.89 C 137.21 156.82 135.31 153.84 133.42 154.45 C 129.89 156.36 127.82 161.02 126.25 164.52 C 124.05 165.39 121.92 166.36 119.76 167.33 C 117.65 160.96 120.39 155.40 119.46 149.04 C 116.21 149.49 112.95 149.85 109.67 149.97 C 110.62 147.46 111.42 144.97 112.74 142.63 C 113.17 144.89 113.56 147.17 113.99 149.44 C 118.35 147.25 123.98 144.57 125.88 139.74 C 126.05 136.44 124.04 132.88 122.78 129.90 C 123.10 128.88 123.49 127.89 123.93 126.92 C 124.58 126.60 125.24 126.30 125.90 126.01 C 128.63 125.10 131.62 123.84 134.53 123.83 Z" fill="#f1d5a5" />
<path d="M 63.55 124.54 C 65.45 125.73 67.29 127.06 69.12 128.36 C 68.94 129.26 68.78 130.16 68.64 131.07 C 68.32 130.33 67.99 129.58 67.65 128.85 C 66.93 130.58 66.26 132.34 65.68 134.13 C 64.17 132.87 62.67 131.60 61.12 130.39 C 60.33 134.88 60.21 139.44 60.95 143.95 C 57.42 139.95 55.64 135.94 54.30 130.77 C 57.38 128.70 60.33 126.37 63.55 124.54 Z" fill="#d89e55" />
<path d="M 201.25 123.54 C 202.24 124.33 203.20 125.14 204.06 126.08 C 203.21 128.38 201.81 130.45 200.46 132.47 C 201.70 132.71 203.00 132.88 204.19 133.32 C 205.08 134.21 205.77 135.33 206.50 136.36 C 205.39 136.07 204.29 135.77 203.19 135.47 C 203.73 137.65 204.25 139.84 204.77 142.03 C 200.51 151.27 193.93 159.16 189.90 168.46 C 189.17 166.83 188.37 165.24 187.52 163.67 C 185.21 164.60 183.46 166.16 181.74 167.91 C 181.52 167.28 181.30 166.64 181.07 166.00 C 179.61 166.71 178.05 167.82 176.42 168.03 C 175.17 167.71 173.97 167.17 172.77 166.70 C 175.50 159.62 178.57 152.68 181.90 145.86 C 184.42 140.71 187.56 135.69 191.51 131.51 C 194.48 128.37 197.84 126.13 201.25 123.54 Z" fill="#ceaf85" />
<path d="M 220.89 123.50 C 220.59 124.36 220.29 125.22 219.97 126.07 C 218.94 126.47 217.91 126.85 216.87 127.20 C 218.18 125.93 219.51 124.69 220.89 123.50 Z" fill="#b4aeaf" />
<path d="M 215.21 127.67 C 216.61 126.83 218.56 129.53 217.57 130.71 C 216.14 131.64 214.22 128.84 215.21 127.67 Z" fill="#beb1b1" />
<path d="M 67.65 128.85 C 67.99 129.58 68.32 130.33 68.64 131.07 C 68.39 135.88 68.47 140.49 70.09 145.09 C 69.75 145.73 69.39 146.35 68.99 146.97 C 67.57 142.74 66.11 138.61 65.68 134.13 C 66.26 132.34 66.93 130.58 67.65 128.85 Z" fill="#fff8d3" />
<path d="M 120.01 129.62 L 121.52 129.76 C 119.79 134.32 118.12 136.91 114.54 140.21 C 116.09 136.45 117.39 132.82 120.01 129.62 Z" fill="#e4c6a6" />
<path d="M 61.12 130.39 C 62.67 131.60 64.17 132.87 65.68 134.13 C 66.11 138.61 67.57 142.74 68.99 146.97 C 66.58 146.64 64.24 146.03 61.94 145.28 L 60.95 143.95 C 60.21 139.44 60.33 134.88 61.12 130.39 Z" fill="#232340" />
<path d="M 89.68 130.52 C 91.66 131.61 92.95 134.13 93.95 136.07 C 94.10 137.37 94.20 138.67 94.29 139.98 C 91.29 142.34 88.65 145.00 85.78 147.56 C 83.03 146.35 78.86 145.09 78.21 141.70 C 77.53 138.68 78.12 134.66 80.16 132.25 C 82.63 130.91 86.89 130.17 89.68 130.52 Z" fill="#a69e8e" />
<path d="M 121.52 129.76 L 122.78 129.90 C 124.04 132.88 126.05 136.44 125.88 139.74 C 123.98 144.57 118.35 147.25 113.99 149.44 C 113.56 147.17 113.17 144.89 112.74 142.63 C 113.32 141.80 113.93 141.01 114.54 140.21 C 118.12 136.91 119.79 134.32 121.52 129.76 Z" fill="#222740" />
<path d="M 52.93 131.76 L 54.30 130.77 C 55.64 135.94 57.42 139.95 60.95 143.95 L 61.94 145.28 C 62.72 149.51 63.08 153.87 63.43 158.16 C 61.65 154.34 60.13 150.43 58.46 146.56 C 58.09 148.51 57.74 150.46 57.54 152.44 C 56.54 149.75 55.76 147.09 55.22 144.28 C 54.41 140.19 52.95 135.89 52.93 131.76 Z" fill="#f5daaa" />
<path d="M 96.93 132.87 C 96.91 136.19 97.58 140.81 95.67 143.70 C 93.44 146.76 89.30 147.32 85.78 147.56 C 88.65 145.00 91.29 142.34 94.29 139.98 C 94.20 138.67 94.10 137.37 93.95 136.07 C 94.94 135.00 95.93 133.94 96.93 132.87 Z" fill="#5c575b" />
<path d="M 209.19 139.07 C 210.97 137.87 212.13 140.65 210.03 141.08 C 208.90 140.77 208.62 140.10 209.19 139.07 Z" fill="#bab3c0" />
<path d="M 61.94 145.28 C 64.24 146.03 66.58 146.64 68.99 146.97 C 69.39 146.35 69.75 145.73 70.09 145.09 C 70.97 147.48 71.97 149.82 73.12 152.09 C 72.37 153.05 71.63 154.03 70.90 155.00 C 70.40 154.49 69.88 154.00 69.35 153.53 L 68.98 153.21 C 67.87 155.11 66.66 157.12 66.07 159.25 C 65.66 161.17 66.45 163.43 66.90 165.29 L 67.15 166.06 C 66.13 164.67 65.04 163.35 63.92 162.04 C 64.36 165.73 65.01 169.24 64.56 172.97 C 64.50 173.63 64.44 174.28 64.38 174.94 C 64.07 177.85 65.12 180.34 65.99 183.07 C 65.02 181.52 63.96 180.06 62.91 178.57 C 61.62 178.84 60.33 179.10 59.04 179.37 C 56.80 174.59 57.37 169.92 57.94 164.87 C 59.33 165.22 60.73 165.50 62.13 165.78 C 60.46 162.64 58.59 159.65 56.18 157.03 C 56.80 156.61 57.43 156.19 58.05 155.77 C 57.88 155.26 57.71 154.74 57.53 154.23 C 57.52 153.63 57.53 153.04 57.54 152.44 C 57.74 150.46 58.09 148.51 58.46 146.56 C 60.13 150.43 61.65 154.34 63.43 158.16 C 63.08 153.87 62.72 149.51 61.94 145.28 Z" fill="#ba784d" />
<path d="M 29.53 146.05 C 38.84 146.94 49.51 150.14 56.18 157.03 C 58.59 159.65 60.46 162.64 62.13 165.78 C 60.73 165.50 59.33 165.22 57.94 164.87 C 53.69 162.03 50.12 157.65 45.51 155.49 C 41.69 154.46 37.02 155.98 33.18 156.62 C 32.19 155.44 31.19 154.22 30.13 153.10 C 28.47 151.41 26.66 149.92 24.85 148.41 C 26.39 147.60 27.94 146.79 29.53 146.05 Z" fill="#df3707" />
<path d="M 119.46 149.04 C 120.39 155.40 117.65 160.96 119.76 167.33 L 120.21 169.14 C 118.89 168.74 117.56 168.39 116.21 168.08 L 115.28 167.87 C 111.97 169.69 108.88 171.98 105.78 174.13 C 104.93 173.47 104.05 172.85 103.17 172.23 C 106.09 171.21 107.34 169.81 109.02 167.27 C 110.49 166.42 113.52 165.80 113.95 164.00 C 113.61 162.26 112.99 160.57 112.46 158.88 C 112.71 157.44 113.08 155.94 113.07 154.48 C 112.34 152.78 110.88 151.33 109.67 149.97 C 112.95 149.85 116.21 149.49 119.46 149.04 Z" fill="#b17050" />
<path d="M 109.67 149.97 C 110.88 151.33 112.34 152.78 113.07 154.48 C 113.08 155.94 112.71 157.44 112.46 158.88 C 112.99 160.57 113.61 162.26 113.95 164.00 C 113.52 165.80 110.49 166.42 109.02 167.27 C 107.34 169.81 106.09 171.21 103.17 172.23 C 104.05 172.85 104.93 173.47 105.78 174.13 C 106.47 175.00 107.12 175.89 107.76 176.78 C 105.42 177.75 103.09 178.71 100.67 179.50 C 101.08 178.82 101.49 178.14 101.90 177.45 C 99.40 176.92 95.20 177.65 94.07 174.83 C 91.27 169.73 91.09 163.75 90.82 158.07 C 91.88 157.36 92.95 156.65 94.04 155.98 C 97.15 154.48 100.26 152.98 103.29 151.31 C 102.54 154.45 102.10 157.89 100.87 160.87 C 99.69 163.63 97.05 165.96 95.03 168.14 C 98.34 168.34 102.15 169.29 105.04 167.11 C 107.06 165.67 109.21 162.82 108.76 160.22 C 107.91 158.35 106.55 156.67 105.47 154.93 C 106.90 153.30 108.32 151.66 109.67 149.97 Z" fill="#994b34" />
<path d="M 103.29 151.31 L 103.94 150.95 C 104.41 152.29 104.91 153.62 105.47 154.93 C 106.55 156.67 107.91 158.35 108.76 160.22 C 109.21 162.82 107.06 165.67 105.04 167.11 C 102.15 169.29 98.34 168.34 95.03 168.14 C 97.05 165.96 99.69 163.63 100.87 160.87 C 102.10 157.89 102.54 154.45 103.29 151.31 Z" fill="#eccb55" />
<path d="M 73.12 152.09 C 75.51 154.91 78.22 157.37 81.05 159.72 C 80.02 165.87 77.53 171.10 74.24 176.31 C 71.68 176.40 69.13 176.54 66.59 176.73 C 65.87 176.11 65.13 175.52 64.38 174.94 C 64.44 174.28 64.50 173.63 64.56 172.97 C 65.60 173.34 66.63 173.70 67.66 174.06 C 68.30 171.09 68.35 168.93 67.15 166.06 L 66.90 165.29 C 70.18 167.00 73.64 168.03 77.22 168.88 C 75.69 167.11 73.89 165.34 72.77 163.28 C 71.69 160.71 71.53 157.71 70.90 155.00 C 71.63 154.03 72.37 153.05 73.12 152.09 Z" fill="#934430" />
<path d="M 153.06 152.87 C 157.64 153.10 161.90 154.39 166.07 156.24 C 165.37 157.66 164.79 159.30 163.75 160.51 C 161.95 161.93 159.71 162.87 157.57 163.66 C 155.30 164.62 152.28 163.36 149.95 162.99 C 148.79 162.74 147.63 162.50 146.47 162.26 C 145.46 162.05 144.46 161.83 143.45 161.63 C 138.10 160.03 132.04 163.70 127.81 166.71 C 126.45 167.71 125.09 168.74 123.68 169.68 L 122.36 169.85 C 121.64 169.62 120.93 169.38 120.21 169.14 L 119.76 167.33 C 121.92 166.36 124.05 165.39 126.25 164.52 C 131.00 162.96 134.63 161.07 138.52 157.89 C 139.26 157.35 140.01 156.81 140.78 156.31 C 143.02 155.20 145.33 154.20 147.70 153.41 C 149.47 153.10 151.26 152.90 153.06 152.87 Z" fill="#e03604" />
<path d="M 30.13 153.10 C 31.19 154.22 32.19 155.44 33.18 156.62 C 37.02 155.98 41.69 154.46 45.51 155.49 C 50.12 157.65 53.69 162.03 57.94 164.87 C 57.37 169.92 56.80 174.59 59.04 179.37 C 60.33 179.10 61.62 178.84 62.91 178.57 C 63.96 180.06 65.02 181.52 65.99 183.07 C 68.84 189.51 67.12 195.21 64.65 201.36 C 66.71 198.37 68.83 195.42 71.06 192.55 C 71.62 197.43 72.36 202.24 73.46 207.03 L 72.88 207.68 C 65.92 208.13 59.82 206.40 53.67 210.30 C 54.04 209.45 54.40 208.60 54.76 207.75 C 49.79 208.99 44.76 209.83 39.74 210.85 C 37.68 211.24 36.33 212.91 34.74 214.16 C 31.91 215.37 28.99 216.28 26.02 217.09 C 26.93 213.50 27.71 210.21 30.72 207.73 C 36.58 202.12 45.75 201.61 50.50 195.48 C 54.32 190.71 53.49 184.17 51.03 178.98 C 47.09 170.86 40.56 165.98 33.31 161.03 C 34.82 159.64 36.34 158.26 37.87 156.89 C 36.25 157.57 34.61 158.31 32.93 158.80 C 31.38 159.49 29.66 157.99 28.28 157.37 C 28.89 155.94 29.49 154.51 30.13 153.10 Z" fill="#f1f1f0" />
<path d="M 68.98 153.21 L 69.35 153.53 C 69.88 154.00 70.40 154.49 70.90 155.00 C 71.53 157.71 71.69 160.71 72.77 163.28 C 73.89 165.34 75.69 167.11 77.22 168.88 C 73.64 168.03 70.18 167.00 66.90 165.29 C 66.45 163.43 65.66 161.17 66.07 159.25 C 66.66 157.12 67.87 155.11 68.98 153.21 Z" fill="#f6d95d" />
<path d="M 133.42 154.45 C 135.31 153.84 137.21 156.82 138.52 157.89 C 134.63 161.07 131.00 162.96 126.25 164.52 C 127.82 161.02 129.89 156.36 133.42 154.45 Z" fill="#d5aa84" />
<path d="M 94.04 155.98 C 92.95 156.65 91.88 157.36 90.82 158.07 C 91.09 163.75 91.27 169.73 94.07 174.83 C 95.20 177.65 99.40 176.92 101.90 177.45 C 101.49 178.14 101.08 178.82 100.67 179.50 C 99.87 179.74 99.06 179.97 98.25 180.19 C 98.75 179.49 99.25 178.78 99.76 178.07 C 96.78 177.97 93.47 178.21 90.61 177.32 C 89.13 176.34 88.50 173.99 87.71 172.45 C 84.83 172.14 81.93 171.83 79.04 171.72 C 77.71 174.61 77.04 177.64 76.74 180.79 C 75.46 180.05 74.23 179.23 73.00 178.41 C 73.41 177.71 73.82 177.01 74.24 176.31 C 77.53 171.10 80.02 165.87 81.05 159.72 C 85.49 158.87 89.85 157.70 94.04 155.98 Z" fill="#4a2b33" />
<path d="M 143.45 161.63 C 142.28 164.78 141.08 167.92 139.89 171.07 C 138.76 169.84 137.64 168.61 136.51 167.37 C 132.58 169.63 131.74 173.14 129.87 176.92 C 129.17 178.68 127.53 178.67 125.99 179.43 C 127.01 176.75 128.17 174.13 129.35 171.53 C 127.94 171.62 126.53 171.72 125.12 171.81 C 125.99 170.11 126.86 168.37 127.81 166.71 C 132.04 163.70 138.10 160.03 143.45 161.63 Z" fill="#ddb187" />
<path d="M 63.92 162.04 C 65.04 163.35 66.13 164.67 67.15 166.06 C 68.35 168.93 68.30 171.09 67.66 174.06 C 66.63 173.70 65.60 173.34 64.56 172.97 C 65.01 169.24 64.36 165.73 63.92 162.04 Z" fill="#e1b38a" />
<path d="M 143.45 161.63 C 144.46 161.83 145.46 162.05 146.47 162.26 C 145.91 163.52 145.33 164.77 144.74 166.01 C 141.50 172.15 139.24 178.60 137.25 185.24 C 135.11 192.10 133.17 198.59 133.82 205.86 C 133.99 208.47 134.45 211.02 135.49 213.44 C 137.43 215.35 139.52 217.13 141.49 219.01 C 138.18 220.79 134.90 222.26 131.17 222.96 C 128.48 221.52 125.80 220.13 122.95 219.04 C 124.04 215.26 125.71 211.74 127.25 208.14 C 128.43 205.48 127.96 203.02 127.79 200.24 C 132.17 190.64 136.36 181.03 139.89 171.07 C 141.08 167.92 142.28 164.78 143.45 161.63 Z" fill="#342e43" />
<path d="M 149.95 162.99 C 149.10 163.23 148.25 163.48 147.40 163.73 C 148.05 164.80 148.70 165.87 149.36 166.94 C 148.86 168.04 148.35 169.14 147.85 170.24 C 146.87 168.79 145.83 167.38 144.74 166.01 C 145.33 164.77 145.91 163.52 146.47 162.26 C 147.63 162.50 148.79 162.74 149.95 162.99 Z" fill="#d9b29e" />
<path d="M 187.52 163.67 C 188.37 165.24 189.17 166.83 189.90 168.46 L 190.52 170.04 C 192.03 168.20 193.53 166.36 194.94 164.45 C 196.61 169.78 194.78 174.21 193.07 179.20 C 192.36 180.47 191.66 181.74 191.03 183.05 C 190.13 182.11 189.23 181.17 188.31 180.26 C 187.15 183.28 186.08 186.33 184.91 189.35 C 183.70 189.17 182.49 188.98 181.27 188.84 C 179.59 188.66 177.84 188.74 176.15 188.80 C 175.86 190.20 175.71 191.82 175.03 193.09 C 173.73 194.51 171.85 195.46 170.23 196.47 C 167.51 186.80 168.98 175.89 172.77 166.70 C 173.97 167.17 175.17 167.71 176.42 168.03 C 178.05 167.82 179.61 166.71 181.07 166.00 C 181.30 166.64 181.52 167.28 181.74 167.91 C 183.46 166.16 185.21 164.60 187.52 163.67 Z" fill="#b99e80" />
<path d="M 144.74 166.01 C 145.83 167.38 146.87 168.79 147.85 170.24 C 148.23 170.82 148.61 171.40 148.98 171.98 C 148.39 172.24 147.80 172.50 147.21 172.76 C 147.77 174.12 148.32 175.49 148.87 176.85 C 144.74 179.35 140.74 181.87 137.25 185.24 C 139.24 178.60 141.50 172.15 144.74 166.01 Z" fill="#c68461" />
<path d="M 115.28 167.87 L 116.21 168.08 C 115.89 174.93 113.69 181.25 112.83 188.06 C 111.24 191.07 109.35 193.88 107.32 196.61 C 105.57 193.25 104.88 189.87 104.40 186.17 C 104.40 184.27 102.69 183.42 101.00 183.43 C 99.26 183.96 97.63 184.97 96.03 185.83 C 99.50 190.19 103.29 194.24 107.17 198.23 C 106.84 201.48 106.28 204.70 105.38 207.84 C 105.05 208.80 104.70 209.74 104.34 210.69 C 103.59 210.28 102.83 209.88 102.07 209.47 C 101.35 212.36 100.52 215.22 99.61 218.05 C 99.18 213.55 98.72 209.11 97.35 204.78 C 97.03 207.52 96.77 210.27 96.55 213.02 C 95.42 206.08 93.84 198.85 93.70 191.86 C 93.63 188.40 93.55 184.95 93.12 181.51 C 94.82 181.06 96.54 180.64 98.25 180.19 C 99.06 179.97 99.87 179.74 100.67 179.50 C 103.09 178.71 105.42 177.75 107.76 176.78 C 107.12 175.89 106.47 175.00 105.78 174.13 C 108.88 171.98 111.97 169.69 115.28 167.87 Z" fill="#c64c1d" />
<path d="M 127.81 166.71 C 126.86 168.37 125.99 170.11 125.12 171.81 C 126.53 171.72 127.94 171.62 129.35 171.53 C 128.17 174.13 127.01 176.75 125.99 179.43 C 127.53 178.67 129.17 178.68 129.87 176.92 C 131.74 173.14 132.58 169.63 136.51 167.37 C 137.64 168.61 138.76 169.84 139.89 171.07 C 136.36 181.03 132.17 190.64 127.79 200.24 C 127.41 196.78 127.38 193.44 127.63 189.97 C 128.38 190.95 129.12 191.93 129.87 192.91 C 129.73 190.55 129.74 188.02 129.16 185.72 C 128.54 183.34 126.62 181.35 125.77 179.15 C 125.57 177.34 125.91 175.48 125.73 173.68 C 125.41 172.25 124.41 170.93 123.68 169.68 C 125.09 168.74 126.45 167.71 127.81 166.71 Z" fill="#be7548" />
<path d="M 120.21 169.14 C 120.93 169.38 121.64 169.62 122.36 169.85 C 119.32 176.01 116.44 182.20 112.83 188.06 C 113.69 181.25 115.89 174.93 116.21 168.08 C 117.56 168.39 118.89 168.74 120.21 169.14 Z" fill="#eeb768" />
<path d="M 122.36 169.85 L 123.68 169.68 C 124.41 170.93 125.41 172.25 125.73 173.68 C 125.91 175.48 125.57 177.34 125.77 179.15 C 126.62 181.35 128.54 183.34 129.16 185.72 C 129.74 188.02 129.73 190.55 129.87 192.91 C 129.12 191.93 128.38 190.95 127.63 189.97 C 127.38 193.44 127.41 196.78 127.79 200.24 C 127.96 203.02 128.43 205.48 127.25 208.14 C 125.71 211.74 124.04 215.26 122.95 219.04 C 121.45 219.24 119.96 219.51 118.50 219.88 C 118.34 220.51 118.18 221.14 118.03 221.77 C 117.18 220.76 116.32 219.75 115.47 218.74 C 114.11 220.10 112.76 221.46 111.41 222.81 C 111.29 222.28 111.17 221.75 111.05 221.23 C 111.20 219.92 111.37 218.58 111.38 217.27 C 110.40 216.58 109.33 216.09 108.24 215.60 C 108.63 215.35 109.03 215.11 109.42 214.86 C 108.08 212.52 106.74 210.18 105.38 207.84 C 106.28 204.70 106.84 201.48 107.17 198.23 C 107.22 197.69 107.27 197.15 107.32 196.61 C 109.35 193.88 111.24 191.07 112.83 188.06 C 116.44 182.20 119.32 176.01 122.36 169.85 Z" fill="#9f5b4e" />
<path d="M 79.04 171.72 C 81.93 171.83 84.83 172.14 87.71 172.45 C 88.50 173.99 89.13 176.34 90.61 177.32 C 93.47 178.21 96.78 177.97 99.76 178.07 C 99.25 178.78 98.75 179.49 98.25 180.19 C 96.54 180.64 94.82 181.06 93.12 181.51 C 90.84 182.13 88.58 182.82 86.32 183.53 C 87.94 185.95 89.82 187.74 89.58 190.88 C 89.35 196.37 89.49 201.88 89.05 207.36 C 87.08 204.70 85.41 201.86 83.87 198.93 C 82.65 195.81 81.25 192.47 80.94 189.11 C 81.61 187.20 82.97 185.46 84.08 183.77 C 81.60 182.83 79.15 181.92 76.74 180.79 C 77.04 177.64 77.71 174.61 79.04 171.72 Z" fill="#25263f" />
<path d="M 189.14 171.39 C 191.08 171.78 188.70 175.35 187.33 174.41 C 186.53 173.31 187.95 171.50 189.14 171.39 Z" fill="#745f4b" />
<path d="M 64.38 174.94 C 65.13 175.52 65.87 176.11 66.59 176.73 C 67.28 178.56 67.82 180.43 68.40 182.31 C 70.35 183.26 74.77 183.27 74.63 186.13 C 74.21 188.46 72.42 190.65 71.06 192.55 C 68.83 195.42 66.71 198.37 64.65 201.36 C 67.12 195.21 68.84 189.51 65.99 183.07 C 65.12 180.34 64.07 177.85 64.38 174.94 Z" fill="#20213c" />
<path d="M 74.24 176.31 C 73.82 177.01 73.41 177.71 73.00 178.41 C 74.23 179.23 75.46 180.05 76.74 180.79 C 79.15 181.92 81.60 182.83 84.08 183.77 C 82.97 185.46 81.61 187.20 80.94 189.11 C 81.25 192.47 82.65 195.81 83.87 198.93 L 83.12 198.60 C 82.04 198.16 80.94 197.77 79.84 197.40 C 79.59 199.77 79.51 202.11 79.41 204.48 C 79.18 205.41 78.92 206.33 78.65 207.24 C 78.12 208.89 77.58 210.53 77.00 212.15 C 76.29 209.49 76.70 207.66 73.46 207.03 C 72.36 202.24 71.62 197.43 71.06 192.55 C 72.42 190.65 74.21 188.46 74.63 186.13 C 74.77 183.27 70.35 183.26 68.40 182.31 C 67.82 180.43 67.28 178.56 66.59 176.73 C 69.13 176.54 71.68 176.40 74.24 176.31 Z" fill="#c74e22" />
<path d="M 188.31 180.26 C 189.23 181.17 190.13 182.11 191.03 183.05 C 190.52 186.15 190.50 189.33 190.82 192.45 C 191.10 195.08 192.74 197.70 193.86 200.07 C 195.94 204.12 197.34 208.39 198.85 212.67 C 199.91 215.57 201.07 218.44 202.04 221.38 C 202.29 222.13 202.54 222.88 202.81 223.63 C 203.58 226.29 205.42 227.74 207.50 229.39 C 207.24 230.35 206.99 231.32 206.73 232.29 C 205.18 231.95 203.42 231.78 202.02 231.03 C 199.96 229.10 198.56 226.38 197.22 223.92 C 196.91 223.23 196.61 222.54 196.33 221.84 C 194.75 216.56 191.90 213.70 187.09 211.19 C 186.10 212.36 185.31 213.74 184.52 215.05 C 184.41 214.44 184.31 213.83 184.20 213.23 C 183.55 209.73 182.95 206.22 182.59 202.68 C 182.89 197.95 182.35 193.45 181.27 188.84 C 182.49 188.98 183.70 189.17 184.91 189.35 C 186.08 186.33 187.15 183.28 188.31 180.26 Z" fill="#232542" />
<path d="M 93.12 181.51 C 93.55 184.95 93.63 188.40 93.70 191.86 C 93.84 198.85 95.42 206.08 96.55 213.02 C 96.77 210.27 97.03 207.52 97.35 204.78 C 98.72 209.11 99.18 213.55 99.61 218.05 C 100.52 215.22 101.35 212.36 102.07 209.47 C 102.83 209.88 103.59 210.28 104.34 210.69 C 104.70 209.74 105.05 208.80 105.38 207.84 C 106.74 210.18 108.08 212.52 109.42 214.86 C 109.03 215.11 108.63 215.35 108.24 215.60 C 103.18 218.59 98.99 222.54 94.87 226.67 C 91.23 226.82 87.59 227.09 83.95 227.41 C 84.96 226.71 85.96 226.00 86.99 225.34 C 89.46 224.70 91.96 224.40 94.49 224.11 C 92.86 222.79 91.24 221.46 89.65 220.10 C 87.26 215.95 84.07 212.04 82.35 207.57 C 81.18 204.40 82.35 201.70 83.12 198.60 L 83.87 198.93 C 85.41 201.86 87.08 204.70 89.05 207.36 C 89.49 201.88 89.35 196.37 89.58 190.88 C 89.82 187.74 87.94 185.95 86.32 183.53 C 88.58 182.82 90.84 182.13 93.12 181.51 Z" fill="#de9733" />
<path d="M 101.00 183.43 C 102.69 183.42 104.40 184.27 104.40 186.17 C 104.88 189.87 105.57 193.25 107.32 196.61 C 107.27 197.15 107.22 197.69 107.17 198.23 C 103.29 194.24 99.50 190.19 96.03 185.83 C 97.63 184.97 99.26 183.96 101.00 183.43 Z" fill="#212541" />
<path d="M 181.27 188.84 C 182.35 193.45 182.89 197.95 182.59 202.68 C 181.84 202.37 181.08 202.07 180.32 201.78 L 180.02 201.67 C 179.69 202.91 179.35 204.16 179.02 205.40 C 176.82 204.89 174.62 204.38 172.41 203.89 C 171.67 201.42 170.90 198.96 170.23 196.47 C 171.85 195.46 173.73 194.51 175.03 193.09 C 175.71 191.82 175.86 190.20 176.15 188.80 C 177.84 188.74 179.59 188.66 181.27 188.84 Z" fill="#d2bfa6" />
<path d="M 160.82 193.36 C 163.85 194.24 166.39 196.77 168.55 198.96 C 166.23 200.18 163.87 201.31 161.47 202.37 C 161.85 200.89 162.24 199.40 162.63 197.92 C 161.24 197.70 159.85 197.48 158.47 197.26 C 159.21 195.94 159.95 194.59 160.82 193.36 Z" fill="#997574" />
<path d="M 79.84 197.40 C 80.94 197.77 82.04 198.16 83.12 198.60 C 82.35 201.70 81.18 204.40 82.35 207.57 C 84.07 212.04 87.26 215.95 89.65 220.10 C 87.13 218.07 84.29 216.27 82.74 213.33 C 81.30 210.55 80.36 207.47 79.41 204.48 C 79.51 202.11 79.59 199.77 79.84 197.40 Z" fill="#5a3825" />
<path d="M 145.15 198.56 C 146.49 197.81 147.58 199.43 146.50 200.45 C 145.16 201.22 144.07 199.59 145.15 198.56 Z" fill="#5d4b4f" />
<path d="M 156.19 201.04 L 156.90 200.63 L 157.62 201.04 L 157.62 201.86 L 156.90 202.28 L 156.19 201.87 L 156.19 201.04 Z" fill="#877879" />
<path d="M 180.32 201.78 C 181.08 202.07 181.84 202.37 182.59 202.68 C 182.95 206.22 183.55 209.73 184.20 213.23 C 182.69 214.13 181.15 214.98 179.57 215.75 C 179.07 214.66 178.87 213.04 177.64 212.55 C 174.92 211.13 172.02 210.06 169.21 208.85 L 168.52 208.56 C 168.58 207.48 168.63 206.39 168.69 205.31 C 169.93 204.84 171.17 204.37 172.41 203.89 C 174.62 204.38 176.82 204.89 179.02 205.40 C 179.35 204.16 179.69 202.91 180.02 201.67 L 180.32 201.78 Z" fill="#cb9d7c" />
<path d="M 74.30 202.37 C 76.38 201.32 77.38 205.29 75.18 205.56 C 73.72 205.32 73.25 203.34 74.30 202.37 Z" fill="#f0bba1" />
<path d="M 79.41 204.48 C 80.36 207.47 81.30 210.55 82.74 213.33 C 84.29 216.27 87.13 218.07 89.65 220.10 C 91.24 221.46 92.86 222.79 94.49 224.11 C 91.96 224.40 89.46 224.70 86.99 225.34 C 84.78 223.85 80.58 222.01 79.88 219.26 C 79.82 215.09 80.14 211.27 78.65 207.24 C 78.92 206.33 79.18 205.41 79.41 204.48 Z" fill="#f2b264" />
<path d="M 151.80 205.35 C 153.47 206.72 155.25 208.77 157.39 209.26 C 160.99 210.23 164.90 208.99 168.52 208.56 L 169.21 208.85 L 169.61 209.61 C 167.59 210.47 165.44 211.70 163.24 211.95 C 160.91 211.95 158.56 211.22 156.26 210.91 C 155.45 210.78 154.65 210.66 153.84 210.53 L 152.50 210.39 L 151.59 210.36 C 147.19 210.30 142.76 211.08 138.37 211.37 C 137.80 210.36 137.21 209.36 136.61 208.38 C 141.08 208.63 144.73 209.59 148.64 206.87 C 149.07 207.55 149.50 208.23 149.93 208.90 C 150.54 207.72 151.15 206.52 151.80 205.35 Z" fill="#f0dbbe" />
<path d="M 159.23 205.10 L 159.93 204.67 L 160.66 205.05 L 160.69 205.88 L 159.98 206.31 L 159.25 205.93 L 159.23 205.10 Z" fill="#503c3a" />
<path d="M 133.82 205.86 C 134.76 206.68 135.70 207.50 136.61 208.38 C 137.21 209.36 137.80 210.36 138.37 211.37 C 137.41 212.06 136.45 212.75 135.49 213.44 C 134.45 211.02 133.99 208.47 133.82 205.86 Z" fill="#a17c70" />
<path d="M 73.46 207.03 C 76.70 207.66 76.29 209.49 77.00 212.15 C 76.57 213.23 76.12 214.29 75.66 215.34 C 76.16 215.48 76.66 215.61 77.15 215.74 C 77.85 218.20 78.62 220.62 79.47 223.03 C 77.88 223.72 76.28 224.40 74.69 225.08 C 74.06 224.68 73.43 224.29 72.79 223.91 C 73.11 220.74 73.53 217.81 72.23 214.80 C 70.53 213.75 68.79 212.78 67.05 211.81 C 69.22 210.70 71.29 209.59 72.88 207.68 L 73.46 207.03 Z" fill="#f2b563" />
<path d="M 78.65 207.24 C 80.14 211.27 79.82 215.09 79.88 219.26 C 80.58 222.01 84.78 223.85 86.99 225.34 C 85.96 226.00 84.96 226.71 83.95 227.41 C 87.59 227.09 91.23 226.82 94.87 226.67 C 94.54 228.21 94.20 229.76 93.86 231.31 C 90.53 231.29 86.87 231.29 83.68 230.29 C 80.47 229.27 77.50 226.91 74.69 225.08 C 76.28 224.40 77.88 223.72 79.47 223.03 C 78.62 220.62 77.85 218.20 77.15 215.74 C 76.66 215.61 76.16 215.48 75.66 215.34 C 76.12 214.29 76.57 213.23 77.00 212.15 C 77.58 210.53 78.12 208.89 78.65 207.24 Z" fill="#ca663b" />
<path d="M 54.76 207.75 C 54.40 208.60 54.04 209.45 53.67 210.30 C 49.64 210.70 45.90 211.90 42.86 214.69 C 40.16 214.50 37.45 214.25 34.74 214.16 C 36.33 212.91 37.68 211.24 39.74 210.85 C 44.76 209.83 49.79 208.99 54.76 207.75 Z" fill="#e1ae8b" />
<path d="M 72.88 207.68 C 71.29 209.59 69.22 210.70 67.05 211.81 C 68.79 212.78 70.53 213.75 72.23 214.80 C 69.52 215.27 67.22 216.06 64.77 217.30 C 63.82 216.42 62.86 215.54 61.91 214.66 L 63.26 213.83 C 63.82 213.47 64.38 213.11 64.93 212.74 C 64.54 212.33 64.16 211.91 63.77 211.50 C 60.38 211.26 57.03 210.78 53.67 210.30 C 59.82 206.40 65.92 208.13 72.88 207.68 Z" fill="#f9df94" />
<path d="M 151.59 210.36 L 152.50 210.39 C 151.69 211.21 150.45 213.32 151.98 214.03 C 153.59 213.97 154.04 211.82 153.84 210.53 C 154.65 210.66 155.45 210.78 156.26 210.91 C 155.73 212.78 155.40 214.85 154.52 216.59 C 150.33 217.96 145.72 217.62 141.49 219.01 C 139.52 217.13 137.43 215.35 135.49 213.44 C 136.45 212.75 137.41 212.06 138.37 211.37 C 142.76 211.08 147.19 210.30 151.59 210.36 Z" fill="#f4cc7b" />
<path d="M 169.21 208.85 C 172.02 210.06 174.92 211.13 177.64 212.55 C 178.87 213.04 179.07 214.66 179.57 215.75 C 180.49 218.46 181.75 221.00 183.15 223.49 C 179.56 225.14 175.70 226.24 171.82 226.97 C 164.61 227.57 157.39 227.31 150.20 228.17 C 148.25 228.14 146.30 228.00 144.37 227.79 L 144.27 225.97 C 151.45 227.02 156.89 226.76 163.89 224.64 C 167.72 224.83 171.48 224.92 175.27 224.24 C 174.41 222.98 173.56 221.72 172.62 220.51 C 171.18 220.43 169.74 220.42 168.30 220.42 L 166.72 220.42 C 165.43 217.27 165.75 215.35 166.89 212.29 C 168.28 212.37 169.68 212.46 171.08 212.54 C 170.59 211.56 170.11 210.59 169.61 209.61 L 169.21 208.85 Z" fill="#cf5e2c" />
<path d="M 53.67 210.30 C 57.03 210.78 60.38 211.26 63.77 211.50 C 64.16 211.91 64.54 212.33 64.93 212.74 C 64.38 213.11 63.82 213.47 63.26 213.83 C 59.28 213.55 55.30 213.34 51.32 213.11 L 51.12 214.92 C 54.76 214.98 58.28 215.10 61.91 214.66 C 62.86 215.54 63.82 216.42 64.77 217.30 C 67.22 216.06 69.52 215.27 72.23 214.80 C 73.53 217.81 73.11 220.74 72.79 223.91 C 71.96 224.16 71.14 224.43 70.33 224.71 C 65.34 227.02 63.83 231.39 59.49 235.13 C 58.62 234.32 57.76 233.50 56.89 232.69 C 57.61 230.51 58.33 228.33 59.10 226.18 C 59.85 224.17 60.70 222.21 61.56 220.25 C 57.51 219.93 52.43 218.95 48.56 220.46 C 46.21 221.44 45.26 225.07 44.19 227.18 C 43.17 229.32 42.41 231.30 39.83 231.88 C 38.53 231.80 37.21 231.49 35.93 231.24 C 36.43 228.90 36.91 226.54 37.56 224.24 C 37.93 223.21 38.34 222.20 38.80 221.21 C 39.73 219.30 40.73 217.43 41.79 215.60 L 42.86 214.69 C 45.90 211.90 49.64 210.70 53.67 210.30 Z" fill="#23253f" />
<path d="M 156.26 210.91 C 158.56 211.22 160.91 211.95 163.24 211.95 C 165.44 211.70 167.59 210.47 169.61 209.61 C 170.11 210.59 170.59 211.56 171.08 212.54 C 169.68 212.46 168.28 212.37 166.89 212.29 C 165.75 215.35 165.43 217.27 166.72 220.42 C 163.81 221.48 161.21 223.00 158.07 223.17 C 153.45 223.40 148.82 223.20 144.19 223.46 C 144.22 224.30 144.24 225.14 144.27 225.97 L 144.37 227.79 C 146.30 228.00 148.25 228.14 150.20 228.17 C 144.81 228.67 139.37 229.89 133.97 229.91 C 131.76 230.07 129.79 227.88 128.12 226.65 C 128.41 225.59 128.68 224.54 128.93 223.48 C 129.68 223.30 130.43 223.13 131.17 222.96 C 134.90 222.26 138.18 220.79 141.49 219.01 C 145.72 217.62 150.33 217.96 154.52 216.59 C 155.40 214.85 155.73 212.78 156.26 210.91 Z" fill="#eba55e" />
<path d="M 152.50 210.39 L 153.84 210.53 C 154.04 211.82 153.59 213.97 151.98 214.03 C 150.45 213.32 151.69 211.21 152.50 210.39 Z" fill="#744b20" />
<path d="M 187.09 211.19 C 191.90 213.70 194.75 216.56 196.33 221.84 C 195.26 221.98 194.19 222.12 193.12 222.25 C 192.08 221.41 191.03 220.56 189.94 219.78 C 187.63 220.92 185.44 222.30 183.15 223.49 C 181.75 221.00 180.49 218.46 179.57 215.75 C 181.15 214.98 182.69 214.13 184.20 213.23 C 184.31 213.83 184.41 214.44 184.52 215.05 C 185.31 213.74 186.10 212.36 187.09 211.19 Z" fill="#f1c587" />
<path d="M 204.77 211.94 C 206.85 214.01 207.91 216.79 209.11 219.41 C 206.87 220.53 204.48 220.95 202.04 221.38 C 201.07 218.44 199.91 215.57 198.85 212.67 C 200.76 212.31 202.82 211.86 204.77 211.94 Z" fill="#f8d790" />
<path d="M 51.32 213.11 C 55.30 213.34 59.28 213.55 63.26 213.83 L 61.91 214.66 C 58.28 215.10 54.76 214.98 51.12 214.92 L 51.32 213.11 Z" fill="#6d6d7e" />
<path d="M 34.74 214.16 C 37.45 214.25 40.16 214.50 42.86 214.69 L 41.79 215.60 C 39.55 216.50 37.19 217.24 34.89 217.99 C 36.19 219.06 37.49 220.14 38.80 221.21 C 38.34 222.20 37.93 223.21 37.56 224.24 C 35.73 223.87 33.76 223.62 32.02 222.90 C 29.73 221.41 27.96 219.01 26.02 217.09 C 28.99 216.28 31.91 215.37 34.74 214.16 Z" fill="#8b3323" />
<path d="M 216.01 215.62 C 217.58 216.29 219.13 217.10 220.66 217.87 C 219.99 218.52 219.33 219.18 218.67 219.84 C 213.76 222.72 208.41 223.45 202.81 223.63 C 202.54 222.88 202.29 222.13 202.04 221.38 C 204.48 220.95 206.87 220.53 209.11 219.41 C 211.42 218.11 213.59 216.73 216.01 215.62 Z" fill="#863423" />
<path d="M 41.79 215.60 C 40.73 217.43 39.73 219.30 38.80 221.21 C 37.49 220.14 36.19 219.06 34.89 217.99 C 37.19 217.24 39.55 216.50 41.79 215.60 Z" fill="#df9d83" />
<path d="M 108.24 215.60 C 109.33 216.09 110.40 216.58 111.38 217.27 C 111.37 218.58 111.20 219.92 111.05 221.23 C 111.17 221.75 111.29 222.28 111.41 222.81 C 112.76 221.46 114.11 220.10 115.47 218.74 C 116.32 219.75 117.18 220.76 118.03 221.77 C 117.70 223.25 117.38 224.74 117.01 226.22 C 116.60 227.78 116.21 229.34 115.81 230.90 C 115.13 232.90 115.02 235.37 113.01 236.51 C 111.85 234.90 111.07 233.13 110.27 231.32 C 107.67 231.26 104.92 231.04 102.35 231.52 C 98.77 233.15 97.31 236.31 92.87 235.78 C 93.20 234.29 93.53 232.80 93.86 231.31 C 94.20 229.76 94.54 228.21 94.87 226.67 C 98.99 222.54 103.18 218.59 108.24 215.60 Z" fill="#25263e" />
<path d="M 26.02 217.09 C 27.96 219.01 29.73 221.41 32.02 222.90 C 33.76 223.62 35.73 223.87 37.56 224.24 C 36.91 226.54 36.43 228.90 35.93 231.24 C 37.21 231.49 38.53 231.80 39.83 231.88 C 42.41 231.30 43.17 229.32 44.19 227.18 C 49.23 227.48 54.14 227.01 59.10 226.18 C 58.33 228.33 57.61 230.51 56.89 232.69 C 57.76 233.50 58.62 234.32 59.49 235.13 C 63.83 231.39 65.34 227.02 70.33 224.71 C 71.99 227.39 73.53 231.08 76.67 232.27 C 81.79 234.32 87.38 235.42 92.87 235.78 C 97.31 236.31 98.77 233.15 102.35 231.52 C 104.92 231.04 107.67 231.26 110.27 231.32 C 111.07 233.13 111.85 234.90 113.01 236.51 C 115.02 235.37 115.13 232.90 115.81 230.90 L 117.76 230.77 C 120.36 230.54 123.28 230.60 125.75 229.68 C 126.80 228.99 127.45 227.68 128.12 226.65 C 129.79 227.88 131.76 230.07 133.97 229.91 C 139.37 229.89 144.81 228.67 150.20 228.17 C 157.39 227.31 164.61 227.57 171.82 226.97 C 180.32 226.29 188.77 225.01 197.22 223.92 C 198.56 226.38 199.96 229.10 202.02 231.03 C 203.42 231.78 205.18 231.95 206.73 232.29 C 206.99 231.32 207.24 230.35 207.50 229.39 C 205.42 227.74 203.58 226.29 202.81 223.63 C 208.41 223.45 213.76 222.72 218.67 219.84 C 220.19 219.25 221.73 218.72 223.27 218.19 C 222.38 222.15 221.81 225.91 219.12 229.13 C 213.78 235.51 205.16 238.39 197.01 237.95 C 190.99 237.51 185.05 236.76 179.00 236.92 C 166.88 236.65 155.06 238.60 142.97 239.11 C 130.10 239.68 117.79 242.83 105.01 244.08 C 92.19 245.93 78.51 243.17 65.95 241.06 C 56.21 240.37 46.54 240.54 36.99 236.99 C 31.65 234.92 27.15 231.19 25.21 225.67 C 24.14 222.94 25.33 219.81 26.02 217.09 Z" fill="#f3f3f3" />
<path d="M 61.56 220.25 C 60.70 222.21 59.85 224.17 59.10 226.18 C 54.14 227.01 49.23 227.48 44.19 227.18 C 45.26 225.07 46.21 221.44 48.56 220.46 C 52.43 218.95 57.51 219.93 61.56 220.25 Z" fill="#c85631" />
<path d="M 118.50 219.88 C 119.96 219.51 121.45 219.24 122.95 219.04 C 125.80 220.13 128.48 221.52 131.17 222.96 C 130.43 223.13 129.68 223.30 128.93 223.48 C 128.68 224.54 128.41 225.59 128.12 226.65 C 127.45 227.68 126.80 228.99 125.75 229.68 C 123.28 230.60 120.36 230.54 117.76 230.77 C 120.35 230.33 122.84 229.57 125.32 228.73 C 122.63 227.62 119.87 226.74 117.01 226.22 C 117.38 224.74 117.70 223.25 118.03 221.77 C 118.18 221.14 118.34 220.51 118.50 219.88 Z" fill="#d9893a" />
<path d="M 189.94 219.78 C 191.03 220.56 192.08 221.41 193.12 222.25 C 194.19 222.12 195.26 221.98 196.33 221.84 C 196.61 222.54 196.91 223.23 197.22 223.92 C 188.77 225.01 180.32 226.29 171.82 226.97 C 175.70 226.24 179.56 225.14 183.15 223.49 C 185.44 222.30 187.63 220.92 189.94 219.78 Z" fill="#e69952" />
<path d="M 142.21 220.06 C 143.97 218.84 145.17 221.60 143.08 222.05 C 141.94 221.75 141.65 221.09 142.21 220.06 Z" fill="#905423" />
<path d="M 166.72 220.42 L 168.30 220.42 C 166.87 221.86 165.42 223.29 163.89 224.64 C 156.89 226.76 151.45 227.02 144.27 225.97 C 144.24 225.14 144.22 224.30 144.19 223.46 C 148.82 223.20 153.45 223.40 158.07 223.17 C 161.21 223.00 163.81 221.48 166.72 220.42 Z" fill="#7e2811" />
<path d="M 172.62 220.51 C 173.56 221.72 174.41 222.98 175.27 224.24 C 171.48 224.92 167.72 224.83 163.89 224.64 C 165.42 223.29 166.87 221.86 168.30 220.42 C 169.74 220.42 171.18 220.43 172.62 220.51 Z" fill="#f1a95c" />
<path d="M 72.79 223.91 C 73.43 224.29 74.06 224.68 74.69 225.08 C 77.50 226.91 80.47 229.27 83.68 230.29 C 86.87 231.29 90.53 231.29 93.86 231.31 C 93.53 232.80 93.20 234.29 92.87 235.78 C 87.38 235.42 81.79 234.32 76.67 232.27 C 73.53 231.08 71.99 227.39 70.33 224.71 C 71.14 224.43 71.96 224.16 72.79 223.91 Z" fill="#f0c9b0" />
<path d="M 111.93 224.82 C 111.58 226.31 111.23 227.80 110.87 229.28 C 108.77 229.21 106.66 229.12 104.56 228.98 C 106.79 226.95 109.09 225.78 111.93 224.82 Z" fill="#b27653" />
<path d="M 143.12 226.47 C 141.18 227.50 139.22 228.50 137.25 229.49 C 136.88 228.20 136.50 226.91 136.12 225.62 C 138.46 225.87 140.79 226.15 143.12 226.47 Z" fill="#c86d40" />
<path d="M 117.01 226.22 C 119.87 226.74 122.63 227.62 125.32 228.73 C 122.84 229.57 120.35 230.33 117.76 230.77 L 115.81 230.90 C 116.21 229.34 116.60 227.78 117.01 226.22 Z" fill="#82260c" />
</svg>