<?xml version="1.0" encoding="UTF-8" standalone="no"?>
<!DOCTYPE svg PUBLIC "-//W3C//DTD SVG 1.1//EN" "http://www.w3.org/Graphics/SVG/1.1/DTD/svg11.dtd">
<svg xmlns="http://www.w3.org/2000/svg" version="1.1" viewBox="0 0 256 256" width="256.0pt" height="256.0pt">
<path d="M 0.00 0.00 L 256.00 0.00 L 256.00 256.00 L 0.00 256.00 L 0.00 0.00 Z" fill="#fefefe" />
<path d="M 70.25 21.27 C 73.88 20.75 77.49 21.13 81.04 21.93 C 88.08 23.50 95.07 25.28 102.11 26.86 C 105.92 27.78 109.65 28.71 112.76 31.25 C 115.94 33.83 117.74 37.73 118.40 41.71 C 119.09 45.99 117.80 50.62 118.24 54.76 C 118.68 57.87 120.86 61.41 124.19 61.93 C 126.68 62.44 128.59 60.55 129.33 58.36 C 130.53 53.94 129.34 48.42 131.26 44.26 C 134.05 38.77 139.27 36.01 144.71 33.72 C 152.20 30.70 159.69 27.69 167.16 24.64 C 171.22 23.07 175.28 21.49 179.72 22.29 C 186.64 23.59 192.85 26.45 200.09 26.84 C 208.30 27.53 215.19 24.26 223.35 26.85 C 220.89 27.63 218.42 28.36 215.96 29.13 L 217.27 30.24 C 212.91 31.86 207.07 33.11 204.24 37.02 C 208.60 35.87 212.35 33.39 216.73 32.29 C 219.69 32.33 222.65 32.44 225.61 32.43 C 227.35 36.06 228.89 39.61 231.01 43.04 C 232.85 46.09 234.84 48.70 235.82 52.19 C 237.42 57.85 236.87 64.21 237.03 70.04 C 237.13 76.77 239.03 83.21 239.03 89.97 C 239.09 97.31 238.91 104.65 239.05 112.00 C 239.02 118.02 239.12 125.12 236.67 130.73 C 233.52 137.85 224.06 139.50 220.73 146.72 C 219.68 149.23 218.60 152.90 220.87 155.08 C 224.83 159.52 229.89 162.46 231.32 168.73 C 232.59 174.54 227.75 180.42 227.00 186.05 C 226.69 189.49 228.25 193.28 229.46 196.46 C 232.59 204.13 235.63 212.00 236.76 220.27 C 237.29 224.31 236.86 228.91 234.19 232.16 C 231.97 234.74 228.94 235.00 225.81 235.49 C 227.14 232.22 229.20 229.25 230.48 225.99 C 230.22 223.96 229.62 221.96 229.06 220.00 C 228.87 219.37 228.68 218.73 228.49 218.09 C 226.44 211.74 225.58 204.45 222.35 198.67 C 219.78 193.97 218.32 189.39 214.33 185.56 C 213.30 184.51 211.37 184.63 210.01 184.61 C 209.38 187.56 212.17 188.05 213.96 189.73 C 213.72 190.76 213.51 191.79 213.31 192.83 C 212.80 191.26 212.28 189.71 211.46 188.28 C 209.13 188.17 207.16 189.10 204.93 189.49 C 202.26 189.45 200.11 187.71 197.27 188.21 C 193.74 188.93 191.10 187.31 187.88 186.15 C 188.43 185.40 188.98 184.64 189.53 183.89 C 187.97 183.24 186.40 182.63 184.80 182.10 C 185.22 181.40 185.63 180.70 186.04 180.01 C 194.60 182.80 202.53 185.19 211.19 181.10 C 216.11 178.37 222.64 176.67 226.42 172.44 C 227.19 171.32 227.80 170.09 228.43 168.88 C 227.20 169.16 225.97 169.45 224.74 169.76 C 223.46 168.15 222.20 166.56 220.81 165.05 C 219.58 165.28 218.36 165.56 217.15 165.84 C 215.55 164.89 213.97 163.93 212.37 163.00 C 212.55 161.96 212.74 160.92 212.93 159.88 C 211.51 159.62 210.09 159.37 208.67 159.11 C 207.35 160.49 206.07 163.46 203.90 163.30 C 198.55 163.28 194.17 159.84 190.00 156.91 C 188.31 155.63 186.40 155.24 184.41 154.68 C 182.29 154.13 180.64 152.47 178.95 151.14 C 179.72 150.93 180.48 150.74 181.25 150.54 C 186.24 149.76 190.21 146.66 195.03 145.55 C 198.36 145.60 201.63 147.61 204.91 147.97 C 208.09 147.47 211.63 146.04 212.62 142.66 C 213.71 139.42 214.72 136.37 217.26 133.92 C 219.22 132.06 221.20 130.21 223.07 128.24 C 226.54 129.38 229.24 130.45 231.48 133.51 C 232.54 128.88 230.81 124.68 231.28 120.05 C 231.46 117.29 231.33 114.73 230.88 112.00 C 229.38 101.73 233.36 89.09 229.73 79.27 C 228.67 75.77 226.36 73.28 223.79 70.81 C 222.67 69.28 221.60 67.73 220.56 66.14 C 224.54 67.17 226.84 67.03 230.64 65.59 C 229.07 64.12 227.49 62.69 226.06 61.07 C 228.24 61.88 230.34 62.86 232.53 63.64 C 230.00 59.78 226.37 59.16 222.28 57.89 C 222.46 56.71 222.63 55.52 222.82 54.34 C 224.55 53.31 226.46 52.34 227.95 50.96 C 228.77 49.60 229.12 47.90 229.55 46.38 C 225.23 46.56 221.24 47.35 217.29 49.16 C 215.22 47.51 213.05 46.20 211.18 44.28 C 205.58 38.25 198.20 35.23 190.26 33.64 L 188.75 33.18 C 185.19 32.24 181.88 32.91 178.27 33.25 C 179.29 31.61 180.30 29.96 181.25 28.28 C 179.28 28.47 177.33 28.70 175.38 29.00 C 171.48 29.81 168.23 29.90 166.79 34.22 C 163.25 35.32 159.75 36.50 156.39 38.10 C 157.28 38.54 158.16 38.98 159.05 39.41 C 158.23 40.24 157.42 41.09 156.63 41.95 C 158.24 41.74 159.84 41.49 161.45 41.28 L 162.26 41.26 C 161.16 41.83 160.06 42.41 158.93 42.92 C 157.45 43.37 155.96 43.77 154.49 44.22 C 154.47 43.14 154.54 42.08 154.60 41.00 C 153.85 41.32 153.11 41.64 152.37 41.96 C 152.97 40.88 153.58 39.81 154.17 38.73 C 148.55 40.35 143.31 43.05 137.81 45.09 C 138.25 45.91 138.69 46.73 139.13 47.54 C 137.39 47.66 135.65 47.81 133.91 48.00 C 134.73 49.61 135.24 51.18 136.84 52.21 C 139.91 54.32 141.56 57.63 144.78 59.52 C 142.25 63.02 140.41 66.89 138.92 70.93 C 136.38 71.84 134.11 73.23 131.86 74.70 C 129.64 75.96 127.50 77.34 125.40 78.79 C 125.98 79.85 126.57 80.91 127.16 81.97 C 125.66 81.84 124.07 81.73 122.63 81.27 C 120.86 80.38 119.51 78.46 118.26 76.96 L 117.90 76.50 C 119.21 75.10 120.27 73.56 121.24 71.90 C 118.79 70.81 115.50 70.21 113.51 68.44 C 110.63 63.86 109.29 58.46 106.20 53.93 C 107.70 52.44 109.28 51.01 110.84 49.59 C 110.42 45.21 110.74 41.61 111.69 37.33 C 110.41 36.21 109.15 35.07 107.89 33.93 C 105.20 34.82 102.48 35.49 99.73 36.16 C 101.51 36.79 103.30 37.40 105.03 38.17 C 99.77 37.55 94.73 34.76 89.89 32.70 C 89.18 33.31 88.48 33.92 87.78 34.53 C 87.48 33.43 87.19 32.34 86.89 31.25 C 78.40 28.37 68.78 28.95 60.25 31.31 C 58.07 31.60 58.84 34.29 58.47 35.84 C 53.33 37.73 48.33 39.74 43.44 42.22 C 43.82 40.98 44.22 39.75 44.59 38.51 C 42.24 40.07 39.95 41.73 37.63 43.34 C 36.28 42.54 34.73 41.41 33.15 41.23 C 30.68 41.03 28.32 41.96 26.03 42.75 C 29.06 45.55 32.50 47.74 35.98 49.90 C 34.12 51.87 32.10 53.35 31.05 55.97 C 29.33 59.86 27.29 63.34 24.88 66.84 C 26.49 67.86 28.09 68.89 29.66 69.97 C 24.84 81.55 23.76 94.15 25.43 106.51 C 25.33 110.51 25.65 113.63 26.79 117.49 C 26.37 117.12 25.94 116.76 25.52 116.40 C 25.54 122.82 26.26 128.86 25.31 135.21 C 22.57 136.12 21.37 134.30 20.22 132.14 C 16.41 123.83 16.92 114.89 17.02 106.00 C 17.20 98.92 16.34 92.03 16.92 85.01 C 18.04 71.47 19.91 57.70 23.53 44.59 C 25.49 42.30 25.99 39.18 27.87 36.94 C 31.10 33.67 36.92 35.14 41.23 34.14 C 41.94 34.03 42.65 33.93 43.36 33.82 C 43.17 33.16 42.98 32.49 42.79 31.83 C 44.34 30.30 45.94 28.87 47.90 27.87 C 54.76 24.33 62.65 22.38 70.25 21.27 Z" fill="#f3f3f3" />
<path d="M 181.25 28.28 C 180.30 29.96 179.29 31.61 178.27 33.25 C 181.88 32.91 185.19 32.24 188.75 33.18 C 185.59 33.24 182.42 33.69 179.26 33.98 C 179.36 34.95 179.45 35.93 179.54 36.91 C 179.23 36.62 178.93 36.34 178.63 36.05 C 177.75 35.21 176.87 34.38 175.99 33.54 C 174.61 33.63 173.23 33.72 171.85 33.80 C 173.03 32.21 174.22 30.61 175.38 29.00 C 177.33 28.70 179.28 28.47 181.25 28.28 Z" fill="#eee5c7" />
<path d="M 228.14 29.02 C 224.37 30.20 220.52 31.15 216.73 32.29 C 212.35 33.39 208.60 35.87 204.24 37.02 C 207.07 33.11 212.91 31.86 217.27 30.24 C 220.89 29.57 224.45 29.00 228.14 29.02 Z" fill="#7a7984" />
<path d="M 27.64 29.03 C 30.20 29.20 32.01 29.70 34.25 30.95 C 31.62 30.84 29.87 30.43 27.64 29.03 Z" fill="#c1c0c5" />
<path d="M 86.89 31.25 C 87.19 32.34 87.48 33.43 87.78 34.53 C 88.48 33.92 89.18 33.31 89.89 32.70 C 94.73 34.76 99.77 37.55 105.03 38.17 C 103.30 37.40 101.51 36.79 99.73 36.16 C 102.48 35.49 105.20 34.82 107.89 33.93 C 109.15 35.07 110.41 36.21 111.69 37.33 C 110.74 41.61 110.42 45.21 110.84 49.59 C 109.28 51.01 107.70 52.44 106.20 53.93 C 103.32 56.96 101.01 60.54 98.32 63.75 C 96.55 65.29 94.67 66.67 92.79 68.07 C 93.84 69.92 94.91 71.75 95.98 73.59 C 97.31 73.14 98.63 72.68 99.98 72.26 C 103.25 71.30 106.55 70.59 109.93 70.13 C 105.65 71.31 101.36 72.36 97.20 73.93 C 97.19 75.13 97.19 76.34 97.19 77.54 C 96.01 77.12 94.63 76.17 93.36 76.34 C 87.76 78.90 85.28 84.01 82.07 88.86 C 84.15 83.95 86.88 79.77 91.24 76.60 C 92.22 75.81 93.21 75.03 94.19 74.25 C 93.30 72.58 92.45 70.90 91.63 69.20 C 90.63 69.59 89.63 69.99 88.63 70.39 C 87.82 69.50 86.97 68.59 86.29 67.60 C 87.30 65.65 88.86 63.92 90.16 62.17 C 92.97 58.57 94.76 54.39 96.79 50.26 C 91.74 48.97 86.71 47.50 81.60 46.49 C 73.98 44.92 65.60 46.32 58.25 48.62 C 55.16 49.64 52.12 50.54 49.50 52.53 C 45.93 55.23 43.41 59.02 40.00 61.98 C 38.07 63.68 36.57 65.34 35.65 67.80 C 34.35 71.01 31.65 73.07 30.25 76.20 C 27.85 81.37 27.10 87.60 26.27 93.24 C 25.44 99.71 29.36 105.41 32.05 110.96 C 33.78 114.41 33.58 117.89 34.60 121.46 C 35.47 123.22 36.52 124.89 37.46 126.61 C 38.70 126.79 39.93 126.97 41.16 127.15 C 42.03 128.66 42.99 130.10 43.97 131.54 C 42.67 130.97 41.37 130.40 40.04 129.88 C 38.80 129.50 37.50 129.17 36.20 129.15 C 33.25 130.35 30.59 132.36 27.81 133.92 C 26.98 134.35 26.15 134.79 25.31 135.21 C 26.26 128.86 25.54 122.82 25.52 116.40 C 25.94 116.76 26.37 117.12 26.79 117.49 C 25.65 113.63 25.33 110.51 25.43 106.51 C 23.76 94.15 24.84 81.55 29.66 69.97 C 28.09 68.89 26.49 67.86 24.88 66.84 C 27.29 63.34 29.33 59.86 31.05 55.97 C 32.10 53.35 34.12 51.87 35.98 49.90 C 36.46 49.44 36.94 48.97 37.42 48.51 C 37.45 46.78 37.49 45.06 37.63 43.34 C 39.95 41.73 42.24 40.07 44.59 38.51 C 44.22 39.75 43.82 40.98 43.44 42.22 C 48.33 39.74 53.33 37.73 58.47 35.84 C 58.84 34.29 58.07 31.60 60.25 31.31 C 68.78 28.95 78.40 28.37 86.89 31.25 Z" fill="#20233f" />
<path d="M 175.38 29.00 C 174.22 30.61 173.03 32.21 171.85 33.80 C 170.16 33.90 168.47 34.03 166.79 34.22 C 168.23 29.90 171.48 29.81 175.38 29.00 Z" fill="#ae9d75" />
<path d="M 34.68 30.52 C 37.39 30.95 40.08 31.42 42.79 31.83 C 42.98 32.49 43.17 33.16 43.36 33.82 C 42.65 33.93 41.94 34.03 41.23 34.14 C 39.06 32.92 36.86 31.74 34.68 30.52 Z" fill="#bfbfc3" />
<path d="M 81.63 32.14 C 82.65 30.65 84.58 32.40 82.98 33.43 C 81.95 33.56 81.50 33.13 81.63 32.14 Z" fill="#767891" />
<path d="M 56.13 33.21 C 58.22 33.81 55.50 36.49 54.26 35.51 C 53.58 34.40 55.08 33.21 56.13 33.21 Z" fill="#74757c" />
<path d="M 188.75 33.18 L 190.26 33.64 C 191.79 34.80 193.26 36.03 194.76 37.23 C 191.77 36.81 188.72 36.02 185.70 35.99 C 182.46 36.36 179.89 40.64 176.39 40.75 C 171.71 41.17 166.97 41.05 162.26 41.26 L 161.45 41.28 C 167.89 38.71 173.70 40.45 178.63 36.05 C 178.93 36.34 179.23 36.62 179.54 36.91 C 179.45 35.93 179.36 34.95 179.26 33.98 C 182.42 33.69 185.59 33.24 188.75 33.18 Z" fill="#686979" />
<path d="M 166.79 34.22 C 168.47 34.03 170.16 33.90 171.85 33.80 C 173.23 33.72 174.61 33.63 175.99 33.54 C 176.87 34.38 177.75 35.21 178.63 36.05 C 173.70 40.45 167.89 38.71 161.45 41.28 C 159.84 41.49 158.24 41.74 156.63 41.95 C 157.42 41.09 158.23 40.24 159.05 39.41 C 158.16 38.98 157.28 38.54 156.39 38.10 C 159.75 36.50 163.25 35.32 166.79 34.22 Z" fill="#2a2b47" />
<path d="M 190.26 33.64 C 198.20 35.23 205.58 38.25 211.18 44.28 C 213.05 46.20 215.22 47.51 217.29 49.16 C 218.66 50.51 219.97 51.90 221.37 53.21 C 219.84 53.77 218.32 54.40 216.82 55.02 C 216.58 55.63 216.35 56.24 216.11 56.86 C 217.90 58.56 219.70 60.24 221.54 61.89 C 221.80 60.56 222.06 59.23 222.28 57.89 C 226.37 59.16 230.00 59.78 232.53 63.64 C 230.34 62.86 228.24 61.88 226.06 61.07 C 227.49 62.69 229.07 64.12 230.64 65.59 C 226.84 67.03 224.54 67.17 220.56 66.14 C 217.37 65.12 214.40 63.67 211.58 61.87 C 207.08 58.21 202.84 54.66 197.31 52.62 C 192.76 49.62 189.47 48.43 184.01 47.65 C 178.70 45.47 171.90 47.65 166.38 48.48 C 164.69 48.77 163.00 49.04 161.30 49.27 C 160.62 47.11 159.85 45.00 158.93 42.92 C 160.06 42.41 161.16 41.83 162.26 41.26 C 166.97 41.05 171.71 41.17 176.39 40.75 C 179.89 40.64 182.46 36.36 185.70 35.99 C 188.72 36.02 191.77 36.81 194.76 37.23 C 193.26 36.03 191.79 34.80 190.26 33.64 Z" fill="#20233f" />
<path d="M 168.38 35.93 C 166.93 38.21 165.13 37.73 162.77 37.95 C 164.61 37.14 166.45 36.48 168.38 35.93 Z" fill="#5a5661" />
<path d="M 154.17 38.73 C 153.58 39.81 152.97 40.88 152.37 41.96 C 153.11 41.64 153.85 41.32 154.60 41.00 C 154.54 42.08 154.47 43.14 154.49 44.22 C 154.87 46.11 155.62 47.96 156.26 49.78 C 154.68 51.34 153.09 52.86 151.41 54.31 C 152.65 55.89 153.87 57.48 155.03 59.12 C 158.28 63.84 161.74 68.26 166.50 71.56 C 167.37 72.27 168.22 72.99 169.06 73.72 C 167.11 73.10 165.19 72.41 163.26 71.73 C 162.74 72.42 162.21 73.11 161.69 73.79 C 159.89 76.10 158.19 78.50 156.64 80.99 C 154.92 84.21 153.68 87.51 151.20 90.28 C 152.07 86.97 153.31 83.79 155.14 80.88 C 156.14 79.27 157.14 77.67 158.23 76.11 L 159.07 75.03 C 159.58 74.39 160.08 73.76 160.59 73.12 C 160.98 72.64 161.37 72.16 161.76 71.68 C 157.33 68.09 153.08 64.59 148.06 61.81 C 146.96 61.06 145.89 60.27 144.78 59.52 C 141.56 57.63 139.91 54.32 136.84 52.21 C 135.24 51.18 134.73 49.61 133.91 48.00 C 135.65 47.81 137.39 47.66 139.13 47.54 C 138.69 46.73 138.25 45.91 137.81 45.09 C 143.31 43.05 148.55 40.35 154.17 38.73 Z" fill="#20233e" />
<path d="M 62.36 39.84 C 57.92 43.07 52.79 44.69 47.43 45.62 C 51.41 41.11 56.71 40.56 62.36 39.84 Z" fill="#75788b" />
<path d="M 33.15 41.23 C 34.73 41.41 36.28 42.54 37.63 43.34 C 37.49 45.06 37.45 46.78 37.42 48.51 C 36.94 48.97 36.46 49.44 35.98 49.90 C 32.50 47.74 29.06 45.55 26.03 42.75 C 28.32 41.96 30.68 41.03 33.15 41.23 Z" fill="#ccb789" />
<path d="M 147.40 42.18 C 148.43 41.21 150.20 42.08 149.26 43.47 C 148.22 44.46 146.46 43.58 147.40 42.18 Z" fill="#575a73" />
<path d="M 154.49 44.22 C 155.96 43.77 157.45 43.37 158.93 42.92 C 159.85 45.00 160.62 47.11 161.30 49.27 C 159.63 49.48 157.95 49.64 156.26 49.78 C 155.62 47.96 154.87 46.11 154.49 44.22 Z" fill="#755e6c" />
<path d="M 81.60 46.49 C 86.71 47.50 91.74 48.97 96.79 50.26 C 94.76 54.39 92.97 58.57 90.16 62.17 C 88.86 63.92 87.30 65.65 86.29 67.60 C 86.97 68.59 87.82 69.50 88.63 70.39 C 85.64 71.41 84.79 72.45 83.33 75.26 C 82.59 75.10 81.85 74.93 81.11 74.77 C 81.63 73.14 82.15 71.52 82.66 69.90 C 77.82 76.16 74.14 83.00 70.44 89.97 C 71.71 90.25 72.98 90.53 74.26 90.78 C 71.08 90.63 66.34 90.24 64.42 93.42 C 62.49 97.33 61.44 101.74 60.15 105.90 C 59.51 108.19 58.96 110.50 58.44 112.82 C 57.38 110.16 56.26 107.52 55.12 104.90 C 54.53 107.91 53.70 110.70 52.22 113.40 C 51.46 111.92 50.72 110.43 50.05 108.90 C 49.54 105.32 49.37 101.67 48.97 98.07 C 53.11 93.98 59.15 93.92 63.09 89.11 C 66.74 84.41 70.48 79.80 74.12 75.09 C 77.71 70.58 81.80 66.60 85.17 61.91 C 79.93 63.77 74.96 66.21 70.06 68.82 C 67.49 69.13 64.58 69.13 62.23 70.25 C 58.02 72.24 54.75 75.26 51.73 78.74 C 49.26 81.41 47.28 84.40 45.19 87.36 C 43.29 90.04 40.29 91.22 38.13 93.76 C 37.10 95.51 36.15 97.30 35.17 99.08 C 34.87 95.74 34.51 92.51 33.07 89.42 C 32.36 89.74 31.65 90.07 30.95 90.41 C 30.05 92.56 29.24 94.74 28.27 96.85 C 26.80 92.06 29.15 88.48 31.61 84.62 C 34.61 80.23 38.74 78.11 42.41 74.41 C 46.90 69.92 51.42 65.39 56.35 61.38 C 63.68 56.00 72.64 53.33 80.34 49.11 C 75.63 49.39 70.85 50.47 66.22 51.45 C 62.54 52.21 59.44 54.39 55.89 55.38 C 54.69 54.87 53.56 54.13 52.44 53.46 C 54.42 51.89 56.41 50.35 58.25 48.62 C 65.60 46.32 73.98 44.92 81.60 46.49 Z" fill="#c35b53" />
<path d="M 184.01 47.65 C 186.31 49.34 188.40 51.10 191.17 51.99 C 193.08 52.58 195.31 52.52 197.31 52.62 C 202.84 54.66 207.08 58.21 211.58 61.87 C 212.95 64.18 214.02 66.62 215.17 69.05 C 210.10 62.65 203.20 58.17 195.58 55.38 C 190.92 53.78 186.31 54.38 181.71 55.81 C 176.28 57.64 170.98 55.09 164.95 54.92 C 168.66 57.48 172.67 59.24 176.58 61.44 C 179.08 62.80 181.33 64.13 184.25 64.28 C 188.61 64.50 193.36 63.70 197.62 65.33 C 199.80 66.63 201.01 69.31 203.21 70.70 C 208.28 74.01 214.44 76.39 219.04 80.28 C 221.31 82.91 223.32 85.54 223.74 89.11 C 224.34 93.87 224.17 98.77 223.93 103.54 C 221.66 102.37 219.48 101.19 217.70 99.30 C 213.89 95.74 215.27 90.58 210.39 87.73 C 205.28 85.63 201.12 82.03 195.97 80.01 C 190.63 77.83 185.37 75.74 180.64 72.36 C 175.26 68.90 172.29 64.14 166.22 61.83 C 168.19 66.21 171.14 68.38 175.25 70.57 C 171.88 69.40 169.63 70.16 166.50 71.56 C 161.74 68.26 158.28 63.84 155.03 59.12 C 156.00 57.52 156.88 55.62 158.27 54.34 C 160.65 52.98 163.50 52.44 165.90 51.10 C 166.10 50.24 166.26 49.36 166.38 48.48 C 171.90 47.65 178.70 45.47 184.01 47.65 Z" fill="#c35b53" />
<path d="M 229.55 46.38 C 229.12 47.90 228.77 49.60 227.95 50.96 C 226.46 52.34 224.55 53.31 222.82 54.34 C 222.34 53.96 221.85 53.59 221.37 53.21 C 219.97 51.90 218.66 50.51 217.29 49.16 C 221.24 47.35 225.23 46.56 229.55 46.38 Z" fill="#baa06c" />
<path d="M 184.01 47.65 C 189.47 48.43 192.76 49.62 197.31 52.62 C 195.31 52.52 193.08 52.58 191.17 51.99 C 188.40 51.10 186.31 49.34 184.01 47.65 Z" fill="#b0797c" />
<path d="M 58.25 48.62 C 56.41 50.35 54.42 51.89 52.44 53.46 C 53.56 54.13 54.69 54.87 55.89 55.38 C 59.44 54.39 62.54 52.21 66.22 51.45 C 70.85 50.47 75.63 49.39 80.34 49.11 C 72.64 53.33 63.68 56.00 56.35 61.38 C 51.42 65.39 46.90 69.92 42.41 74.41 C 38.74 78.11 34.61 80.23 31.61 84.62 C 29.15 88.48 26.80 92.06 28.27 96.85 C 29.58 100.54 31.00 104.35 33.11 107.67 C 34.58 107.08 34.77 105.65 35.47 104.35 C 36.69 101.46 38.07 98.74 39.67 96.05 C 39.16 95.28 38.64 94.52 38.13 93.76 C 40.29 91.22 43.29 90.04 45.19 87.36 C 47.28 84.40 49.26 81.41 51.73 78.74 C 59.24 77.72 64.29 73.27 70.06 68.82 C 74.96 66.21 79.93 63.77 85.17 61.91 C 81.80 66.60 77.71 70.58 74.12 75.09 C 70.48 79.80 66.74 84.41 63.09 89.11 C 59.15 93.92 53.11 93.98 48.97 98.07 C 48.26 98.86 47.59 99.68 46.96 100.53 C 44.31 105.24 44.48 110.89 42.26 115.99 C 41.34 117.64 39.95 119.30 39.50 121.15 C 39.59 123.19 40.47 125.25 41.16 127.15 C 39.93 126.97 38.70 126.79 37.46 126.61 C 36.52 124.89 35.47 123.22 34.60 121.46 C 33.58 117.89 33.78 114.41 32.05 110.96 C 29.36 105.41 25.44 99.71 26.27 93.24 C 27.10 87.60 27.85 81.37 30.25 76.20 C 31.65 73.07 34.35 71.01 35.65 67.80 C 36.57 65.34 38.07 63.68 40.00 61.98 C 43.41 59.02 45.93 55.23 49.50 52.53 C 52.12 50.54 55.16 49.64 58.25 48.62 Z" fill="#f2d9d5" />
<path d="M 161.30 49.27 C 163.00 49.04 164.69 48.77 166.38 48.48 C 166.26 49.36 166.10 50.24 165.90 51.10 C 163.50 52.44 160.65 52.98 158.27 54.34 C 156.88 55.62 156.00 57.52 155.03 59.12 C 153.87 57.48 152.65 55.89 151.41 54.31 C 153.09 52.86 154.68 51.34 156.26 49.78 C 157.95 49.64 159.63 49.48 161.30 49.27 Z" fill="#daa29d" />
<path d="M 40.14 51.29 C 42.09 51.70 39.59 55.23 38.26 54.33 C 37.51 53.22 38.96 51.39 40.14 51.29 Z" fill="#6c6c80" />
<path d="M 221.37 53.21 C 221.85 53.59 222.34 53.96 222.82 54.34 C 222.63 55.52 222.46 56.71 222.28 57.89 C 222.06 59.23 221.80 60.56 221.54 61.89 C 219.70 60.24 217.90 58.56 216.11 56.86 C 216.35 56.24 216.58 55.63 216.82 55.02 C 218.32 54.40 219.84 53.77 221.37 53.21 Z" fill="#33354b" />
<path d="M 106.20 53.93 C 109.29 58.46 110.63 63.86 113.51 68.44 C 115.50 70.21 118.79 70.81 121.24 71.90 C 120.27 73.56 119.21 75.10 117.90 76.50 C 115.96 72.97 112.69 73.87 109.26 73.14 C 107.80 75.21 106.42 77.28 104.47 78.93 C 103.15 78.58 101.75 78.02 100.37 78.01 C 97.90 78.63 95.75 81.10 93.88 82.74 C 90.99 85.05 87.53 86.39 84.63 88.70 C 82.51 90.37 80.56 91.36 77.93 92.05 C 77.30 92.22 76.66 92.39 76.02 92.56 C 77.79 94.56 79.03 96.53 80.15 98.94 C 78.36 99.64 76.13 101.59 74.31 99.97 C 73.61 98.68 73.34 97.13 72.94 95.74 C 72.02 96.75 71.12 97.77 70.19 98.75 L 69.65 99.15 C 70.59 95.52 71.45 93.60 74.64 91.51 L 75.37 90.99 L 74.26 90.78 C 72.98 90.53 71.71 90.25 70.44 89.97 C 74.14 83.00 77.82 76.16 82.66 69.90 C 82.15 71.52 81.63 73.14 81.11 74.77 C 81.85 74.93 82.59 75.10 83.33 75.26 C 85.96 75.86 88.56 76.31 91.24 76.60 C 86.88 79.77 84.15 83.95 82.07 88.86 C 85.28 84.01 87.76 78.90 93.36 76.34 C 94.63 76.17 96.01 77.12 97.19 77.54 C 97.19 76.34 97.19 75.13 97.20 73.93 C 101.36 72.36 105.65 71.31 109.93 70.13 C 106.55 70.59 103.25 71.30 99.98 72.26 C 99.34 69.44 98.82 66.60 98.32 63.75 C 101.01 60.54 103.32 56.96 106.20 53.93 Z" fill="#e0cfa9" />
<path d="M 164.95 54.92 C 170.98 55.09 176.28 57.64 181.71 55.81 C 186.31 54.38 190.92 53.78 195.58 55.38 C 203.20 58.17 210.10 62.65 215.17 69.05 C 217.40 72.18 219.65 75.30 221.98 78.35 C 221.11 77.94 220.23 77.54 219.36 77.14 C 219.25 78.18 219.15 79.23 219.04 80.28 C 214.44 76.39 208.28 74.01 203.21 70.70 C 201.01 69.31 199.80 66.63 197.62 65.33 C 193.36 63.70 188.61 64.50 184.25 64.28 C 181.33 64.13 179.08 62.80 176.58 61.44 C 172.67 59.24 168.66 57.48 164.95 54.92 Z" fill="#f1d9d4" />
<path d="M 192.16 56.45 C 193.81 57.16 194.58 57.75 195.46 59.36 C 193.33 59.10 191.22 58.74 189.12 58.31 C 190.13 57.68 191.14 57.06 192.16 56.45 Z" fill="#d1a7a1" />
<path d="M 144.78 59.52 C 145.89 60.27 146.96 61.06 148.06 61.81 C 147.83 64.45 147.73 67.10 147.60 69.74 C 144.71 70.15 141.81 70.47 138.92 70.93 C 140.41 66.89 142.25 63.02 144.78 59.52 Z" fill="#decfa9" />
<path d="M 148.06 61.81 C 153.08 64.59 157.33 68.09 161.76 71.68 C 161.37 72.16 160.98 72.64 160.59 73.12 C 158.27 71.54 155.94 70.03 153.39 68.85 C 152.85 69.64 152.31 70.43 151.78 71.23 C 154.17 72.59 156.60 73.85 159.07 75.03 L 158.23 76.11 C 153.63 74.32 149.06 71.95 144.00 72.03 C 140.27 72.15 136.42 73.53 132.80 74.44 L 131.86 74.70 C 134.11 73.23 136.38 71.84 138.92 70.93 C 141.81 70.47 144.71 70.15 147.60 69.74 C 147.73 67.10 147.83 64.45 148.06 61.81 Z" fill="#caab81" />
<path d="M 166.22 61.83 C 172.29 64.14 175.26 68.90 180.64 72.36 C 185.37 75.74 190.63 77.83 195.97 80.01 C 201.12 82.03 205.28 85.63 210.39 87.73 C 215.27 90.58 213.89 95.74 217.70 99.30 C 219.48 101.19 221.66 102.37 223.93 103.54 C 223.68 107.80 224.14 111.98 224.51 116.21 C 224.31 118.24 224.53 120.65 223.69 122.52 C 222.26 124.16 220.03 125.15 218.25 126.38 C 217.80 126.66 217.36 126.93 216.91 127.21 C 216.25 126.09 215.60 124.97 214.95 123.85 C 215.24 121.16 215.96 118.87 214.67 116.31 C 212.72 112.24 211.91 107.37 209.31 103.70 C 206.21 100.42 202.20 98.17 199.22 94.70 C 197.14 92.43 194.95 90.33 192.32 88.72 C 189.73 87.09 187.33 85.53 185.82 82.77 C 182.99 77.92 180.24 73.50 175.25 70.57 C 171.14 68.38 168.19 66.21 166.22 61.83 Z" fill="#f1d9d5" />
<path d="M 211.58 61.87 C 214.40 63.67 217.37 65.12 220.56 66.14 C 221.60 67.73 222.67 69.28 223.79 70.81 C 224.57 72.94 225.28 75.08 226.21 77.15 C 225.14 81.59 227.45 84.71 227.87 89.00 C 228.50 96.82 225.32 103.71 225.87 111.52 C 225.39 113.08 224.92 114.63 224.51 116.21 C 224.14 111.98 223.68 107.80 223.93 103.54 C 224.17 98.77 224.34 93.87 223.74 89.11 C 223.32 85.54 221.31 82.91 219.04 80.28 C 219.15 79.23 219.25 78.18 219.36 77.14 C 220.23 77.54 221.11 77.94 221.98 78.35 C 219.65 75.30 217.40 72.18 215.17 69.05 C 214.02 66.62 212.95 64.18 211.58 61.87 Z" fill="#d69b95" />
<path d="M 98.32 63.75 C 98.82 66.60 99.34 69.44 99.98 72.26 C 98.63 72.68 97.31 73.14 95.98 73.59 C 94.91 71.75 93.84 69.92 92.79 68.07 C 94.67 66.67 96.55 65.29 98.32 63.75 Z" fill="#f3f1f2" />
<path d="M 187.03 66.94 C 191.83 69.27 195.69 72.16 198.28 76.93 C 194.08 74.12 190.26 70.83 187.03 66.94 Z" fill="#df8880" />
<path d="M 70.06 68.82 C 64.29 73.27 59.24 77.72 51.73 78.74 C 54.75 75.26 58.02 72.24 62.23 70.25 C 64.58 69.13 67.49 69.13 70.06 68.82 Z" fill="#dda49f" />
<path d="M 91.63 69.20 C 92.45 70.90 93.30 72.58 94.19 74.25 C 93.21 75.03 92.22 75.81 91.24 76.60 C 88.56 76.31 85.96 75.86 83.33 75.26 C 84.79 72.45 85.64 71.41 88.63 70.39 C 89.63 69.99 90.63 69.59 91.63 69.20 Z" fill="#f3f2f0" />
<path d="M 153.39 68.85 C 155.94 70.03 158.27 71.54 160.59 73.12 C 160.08 73.76 159.58 74.39 159.07 75.03 C 156.60 73.85 154.17 72.59 151.78 71.23 C 152.31 70.43 152.85 69.64 153.39 68.85 Z" fill="#f7ede0" />
<path d="M 175.25 70.57 C 180.24 73.50 182.99 77.92 185.82 82.77 C 187.33 85.53 189.73 87.09 192.32 88.72 C 194.95 90.33 197.14 92.43 199.22 94.70 C 198.44 95.78 197.67 96.86 196.90 97.94 C 195.71 97.28 194.53 96.59 193.31 95.98 C 192.14 97.01 191.04 98.11 189.92 99.19 C 189.08 96.65 188.40 93.94 187.15 91.56 C 185.87 90.78 184.07 90.75 182.60 90.60 C 181.02 86.60 178.93 82.96 175.80 79.96 C 174.72 78.79 173.58 77.97 172.11 77.33 C 167.92 77.27 165.18 75.97 161.69 73.79 C 162.21 73.11 162.74 72.42 163.26 71.73 C 165.19 72.41 167.11 73.10 169.06 73.72 C 168.22 72.99 167.37 72.27 166.50 71.56 C 169.63 70.16 171.88 69.40 175.25 70.57 Z" fill="#d29088" />
<path d="M 223.79 70.81 C 226.36 73.28 228.67 75.77 229.73 79.27 C 233.36 89.09 229.38 101.73 230.88 112.00 C 231.33 114.73 231.46 117.29 231.28 120.05 C 230.81 124.68 232.54 128.88 231.48 133.51 C 229.24 130.45 226.54 129.38 223.07 128.24 C 221.43 127.69 219.83 127.07 218.25 126.38 C 220.03 125.15 222.26 124.16 223.69 122.52 C 224.53 120.65 224.31 118.24 224.51 116.21 C 224.92 114.63 225.39 113.08 225.87 111.52 C 228.55 105.86 229.12 99.92 229.79 93.79 C 230.15 87.90 229.21 82.29 226.21 77.15 C 225.28 75.08 224.57 72.94 223.79 70.81 Z" fill="#1f213c" />
<path d="M 144.00 72.03 C 149.06 71.95 153.63 74.32 158.23 76.11 C 157.14 77.67 156.14 79.27 155.14 80.88 C 154.06 80.25 152.99 79.61 151.86 79.09 C 145.18 76.82 139.57 79.11 133.57 81.92 C 133.61 81.06 133.66 80.21 133.71 79.35 C 131.23 81.89 128.80 83.72 125.57 85.21 C 122.99 84.11 120.40 83.21 117.66 82.62 C 117.80 80.73 118.01 78.84 118.26 76.96 C 119.51 78.46 120.86 80.38 122.63 81.27 C 124.07 81.73 125.66 81.84 127.16 81.97 C 130.55 80.46 131.42 77.57 132.80 74.44 C 136.42 73.53 140.27 72.15 144.00 72.03 Z" fill="#e0cea7" />
<path d="M 109.26 73.14 C 112.69 73.87 115.96 72.97 117.90 76.50 L 118.26 76.96 C 118.01 78.84 117.80 80.73 117.66 82.62 C 117.46 86.24 117.16 89.78 115.95 93.22 C 113.44 96.91 110.03 99.28 105.94 100.96 C 103.59 101.28 101.07 101.25 98.79 101.95 C 96.75 103.09 95.27 105.44 93.85 107.24 C 90.59 111.18 89.00 115.64 83.19 116.03 C 78.39 116.13 73.87 116.43 69.25 117.85 L 68.51 117.77 C 66.33 117.35 63.33 116.93 61.74 115.27 C 60.02 112.78 60.32 108.81 60.15 105.90 C 61.44 101.74 62.49 97.33 64.42 93.42 C 66.34 90.24 71.08 90.63 74.26 90.78 L 75.37 90.99 L 74.64 91.51 C 72.58 92.16 70.36 92.56 68.38 93.44 C 66.51 94.31 65.38 96.64 64.44 98.36 C 63.74 101.85 62.39 106.04 63.28 109.54 C 68.79 112.33 75.91 112.42 81.97 112.67 C 83.91 112.57 86.96 113.04 88.33 111.36 C 92.02 107.33 94.45 101.74 98.98 97.99 C 101.30 96.13 104.50 95.60 106.83 93.83 C 109.00 91.29 109.90 87.45 110.69 84.27 C 110.09 81.82 109.63 79.67 106.51 80.62 C 104.32 81.37 102.16 82.22 100.03 83.15 C 101.44 81.66 102.95 80.31 104.47 78.93 C 106.42 77.28 107.80 75.21 109.26 73.14 Z" fill="#22223d" />
<path d="M 161.69 73.79 C 165.18 75.97 167.92 77.27 172.11 77.33 C 174.19 80.24 175.56 82.92 176.68 86.32 C 177.29 88.38 178.61 89.78 180.12 91.24 C 179.00 87.39 177.26 83.70 175.80 79.96 C 178.93 82.96 181.02 86.60 182.60 90.60 C 180.62 91.67 178.69 92.83 176.92 94.23 C 173.98 90.47 171.03 86.72 168.00 83.03 C 169.79 83.91 171.58 84.79 173.39 85.63 C 171.74 83.87 169.96 81.58 167.72 80.58 C 166.40 80.80 165.09 81.26 163.81 81.65 C 164.96 82.94 166.12 84.22 167.30 85.49 C 167.24 86.25 167.19 87.01 167.13 87.77 C 162.82 86.42 159.78 84.21 156.64 80.99 C 158.19 78.50 159.89 76.10 161.69 73.79 Z" fill="#ddcda4" />
<path d="M 131.86 74.70 L 132.80 74.44 C 131.42 77.57 130.55 80.46 127.16 81.97 C 126.57 80.91 125.98 79.85 125.40 78.79 C 127.50 77.34 129.64 75.96 131.86 74.70 Z" fill="#998347" />
<path d="M 80.09 76.64 C 78.94 81.39 77.32 86.09 75.26 90.52 C 74.36 85.29 76.59 80.42 80.09 76.64 Z" fill="#8c6a63" />
<path d="M 100.37 78.01 C 101.75 78.02 103.15 78.58 104.47 78.93 C 102.95 80.31 101.44 81.66 100.03 83.15 C 97.02 86.21 95.22 90.23 91.42 92.30 C 88.22 94.16 85.06 95.53 82.60 98.41 L 81.90 96.43 C 82.09 95.47 82.28 94.51 82.48 93.56 C 85.61 92.18 89.08 90.88 91.79 88.76 C 93.41 87.52 93.49 84.61 93.88 82.74 C 95.75 81.10 97.90 78.63 100.37 78.01 Z" fill="#be9069" />
<path d="M 172.11 77.33 C 173.58 77.97 174.72 78.79 175.80 79.96 C 177.26 83.70 179.00 87.39 180.12 91.24 C 178.61 89.78 177.29 88.38 176.68 86.32 C 175.56 82.92 174.19 80.24 172.11 77.33 Z" fill="#6c5952" />
<path d="M 151.86 79.09 C 149.62 78.91 147.37 78.87 145.13 78.79 C 146.50 79.84 149.74 80.69 149.70 82.70 C 144.39 84.60 138.56 85.15 133.03 86.22 C 130.28 86.80 128.09 86.33 125.57 85.21 C 128.80 83.72 131.23 81.89 133.71 79.35 C 133.66 80.21 133.61 81.06 133.57 81.92 C 139.57 79.11 145.18 76.82 151.86 79.09 Z" fill="#ceb586" />
<path d="M 163.51 78.24 C 164.54 77.31 166.23 78.49 165.51 79.75 C 164.48 80.69 162.79 79.50 163.51 78.24 Z" fill="#a28d5b" />
<path d="M 226.21 77.15 C 229.21 82.29 230.15 87.90 229.79 93.79 C 229.12 99.92 228.55 105.86 225.87 111.52 C 225.32 103.71 228.50 96.82 227.87 89.00 C 227.45 84.71 225.14 81.59 226.21 77.15 Z" fill="#d8c6c7" />
<path d="M 145.13 78.79 C 147.37 78.87 149.62 78.91 151.86 79.09 C 152.99 79.61 154.06 80.25 155.14 80.88 C 153.31 83.79 152.07 86.97 151.20 90.28 C 153.68 87.51 154.92 84.21 156.64 80.99 C 159.78 84.21 162.82 86.42 167.13 87.77 C 167.19 87.01 167.24 86.25 167.30 85.49 C 166.12 84.22 164.96 82.94 163.81 81.65 C 165.09 81.26 166.40 80.80 167.72 80.58 C 169.96 81.58 171.74 83.87 173.39 85.63 C 171.58 84.79 169.79 83.91 168.00 83.03 C 171.03 86.72 173.98 90.47 176.92 94.23 C 175.74 95.48 174.63 96.81 173.48 98.09 C 168.15 97.35 162.65 96.86 157.44 95.49 C 153.78 94.52 150.71 92.72 147.28 91.24 C 145.68 93.39 144.08 95.53 142.20 97.46 C 141.68 94.73 141.44 91.96 141.00 89.22 C 138.34 89.34 135.68 89.39 133.01 89.49 C 132.84 90.39 132.68 91.29 132.54 92.20 C 132.26 91.36 131.96 90.52 131.66 89.69 C 130.33 91.41 129.08 93.19 127.83 94.97 C 129.31 94.49 130.78 94.00 132.26 93.50 C 132.03 94.54 131.80 95.58 131.57 96.61 C 126.38 96.07 120.24 96.39 115.95 93.22 C 117.16 89.78 117.46 86.24 117.66 82.62 C 120.40 83.21 122.99 84.11 125.57 85.21 C 128.09 86.33 130.28 86.80 133.03 86.22 C 138.56 85.15 144.39 84.60 149.70 82.70 C 149.74 80.69 146.50 79.84 145.13 78.79 Z" fill="#bb9c66" />
<path d="M 110.69 84.27 C 109.27 84.00 107.86 83.73 106.44 83.46 C 106.46 82.51 106.49 81.57 106.51 80.62 C 109.63 79.67 110.09 81.82 110.69 84.27 Z" fill="#b18081" />
<path d="M 106.51 80.62 C 106.49 81.57 106.46 82.51 106.44 83.46 C 107.86 83.73 109.27 84.00 110.69 84.27 C 109.90 87.45 109.00 91.29 106.83 93.83 C 104.50 95.60 101.30 96.13 98.98 97.99 C 94.45 101.74 92.02 107.33 88.33 111.36 C 86.96 113.04 83.91 112.57 81.97 112.67 C 75.91 112.42 68.79 112.33 63.28 109.54 C 62.39 106.04 63.74 101.85 64.44 98.36 C 66.14 99.02 67.81 99.45 69.65 99.15 L 70.19 98.75 C 70.66 100.30 71.09 101.91 71.73 103.39 C 73.68 105.15 77.20 104.79 79.22 103.34 C 80.67 102.04 81.56 100.03 82.60 98.41 C 85.06 95.53 88.22 94.16 91.42 92.30 C 95.22 90.23 97.02 86.21 100.03 83.15 C 102.16 82.22 104.32 81.37 106.51 80.62 Z" fill="#b35b54" />
<path d="M 93.88 82.74 C 93.49 84.61 93.41 87.52 91.79 88.76 C 89.08 90.88 85.61 92.18 82.48 93.56 C 82.28 94.51 82.09 95.47 81.90 96.43 C 80.66 94.89 79.31 93.47 77.93 92.05 C 80.56 91.36 82.51 90.37 84.63 88.70 C 87.53 86.39 90.99 85.05 93.88 82.74 Z" fill="#d1b08d" />
<path d="M 133.01 89.49 C 135.68 89.39 138.34 89.34 141.00 89.22 C 141.44 91.96 141.68 94.73 142.20 97.46 C 142.85 100.43 143.91 102.78 146.89 103.99 C 156.15 109.12 166.11 106.33 174.96 112.45 C 177.14 113.65 179.47 115.07 181.92 115.61 C 185.81 113.10 189.32 110.19 193.57 108.22 L 195.04 107.40 C 194.23 104.87 193.14 102.53 192.05 100.12 C 194.07 100.96 196.04 101.91 197.97 102.94 L 197.90 103.74 C 197.80 107.20 196.68 109.26 194.44 111.76 C 191.90 114.23 189.49 116.69 186.16 118.08 C 184.30 118.79 182.21 119.03 180.25 119.39 C 178.26 118.17 176.21 117.02 174.23 115.77 C 170.63 113.51 166.82 111.97 162.60 111.31 C 156.92 110.12 152.03 111.44 146.29 111.60 C 145.38 114.13 144.52 116.67 143.68 119.22 C 144.07 116.61 144.43 113.99 144.72 111.37 C 142.95 110.25 140.82 109.20 139.45 107.59 C 138.45 106.13 137.86 104.34 137.17 102.72 C 135.75 99.11 133.54 96.00 132.54 92.20 C 132.68 91.29 132.84 90.39 133.01 89.49 Z" fill="#24223d" />
<path d="M 30.95 90.41 C 31.65 90.07 32.36 89.74 33.07 89.42 C 34.51 92.51 34.87 95.74 35.17 99.08 C 36.15 97.30 37.10 95.51 38.13 93.76 C 38.64 94.52 39.16 95.28 39.67 96.05 C 38.07 98.74 36.69 101.46 35.47 104.35 C 34.77 105.65 34.58 107.08 33.11 107.67 C 31.00 104.35 29.58 100.54 28.27 96.85 C 29.24 94.74 30.05 92.56 30.95 90.41 Z" fill="#d4978f" />
<path d="M 131.66 89.69 C 131.96 90.52 132.26 91.36 132.54 92.20 C 133.54 96.00 135.75 99.11 137.17 102.72 C 137.86 104.34 138.45 106.13 139.45 107.59 C 140.82 109.20 142.95 110.25 144.72 111.37 C 144.43 113.99 144.07 116.61 143.68 119.22 C 144.52 116.67 145.38 114.13 146.29 111.60 C 152.03 111.44 156.92 110.12 162.60 111.31 C 166.82 111.97 170.63 113.51 174.23 115.77 C 171.87 116.54 169.35 116.73 167.85 118.93 C 165.98 121.13 165.92 123.59 165.87 126.33 C 160.92 127.62 156.36 129.29 151.79 131.59 C 150.03 132.17 148.29 132.78 146.55 133.37 L 146.95 131.94 C 148.59 126.74 151.07 122.31 150.72 116.64 C 148.97 118.25 147.41 120.04 145.72 121.71 C 143.50 123.94 140.18 124.56 137.87 126.88 C 135.90 128.75 135.25 131.18 134.63 133.74 C 133.55 133.37 132.47 133.02 131.38 132.69 C 127.88 131.39 124.36 131.37 120.70 131.89 L 120.70 133.13 L 120.79 134.17 L 120.99 136.07 C 119.91 132.80 118.62 129.24 116.48 126.51 C 114.27 124.37 110.81 123.59 108.56 121.45 C 106.86 119.84 105.24 118.15 103.39 116.70 C 104.16 121.46 105.89 125.86 107.03 130.54 L 106.43 131.31 C 105.86 130.70 105.09 130.39 104.12 130.38 L 103.38 130.31 C 101.64 129.43 99.93 128.54 98.12 127.82 C 98.51 124.16 98.62 120.45 99.24 116.82 C 99.48 114.81 101.48 113.15 102.74 111.65 C 101.75 109.73 100.74 107.83 99.71 105.94 C 101.54 103.93 103.44 102.12 105.94 100.96 C 110.03 99.28 113.44 96.91 115.95 93.22 C 120.24 96.39 126.38 96.07 131.57 96.61 C 131.80 95.58 132.03 94.54 132.26 93.50 C 130.78 94.00 129.31 94.49 127.83 94.97 C 129.08 93.19 130.33 91.41 131.66 89.69 Z" fill="#c7ad7b" />
<path d="M 147.28 91.24 C 150.71 92.72 153.78 94.52 157.44 95.49 C 162.65 96.86 168.15 97.35 173.48 98.09 C 173.17 101.52 173.55 103.43 175.12 106.50 C 173.86 106.93 172.59 107.33 171.33 107.74 C 172.70 108.58 174.08 109.43 175.45 110.27 C 175.29 111.00 175.12 111.73 174.96 112.45 C 166.11 106.33 156.15 109.12 146.89 103.99 C 143.91 102.78 142.85 100.43 142.20 97.46 C 144.08 95.53 145.68 93.39 147.28 91.24 Z" fill="#b35b52" />
<path d="M 182.60 90.60 C 184.07 90.75 185.87 90.78 187.15 91.56 C 188.40 93.94 189.08 96.65 189.92 99.19 C 188.35 97.87 187.38 96.17 186.38 94.41 C 183.08 94.69 179.41 94.32 177.13 97.22 C 176.69 99.30 179.34 100.24 180.61 101.49 C 181.95 100.33 183.30 99.18 184.67 98.05 C 185.44 99.37 186.18 100.71 186.90 102.07 C 185.57 103.91 184.30 106.19 182.46 107.56 C 180.23 108.16 177.37 106.94 175.12 106.50 C 173.55 103.43 173.17 101.52 173.48 98.09 C 174.63 96.81 175.74 95.48 176.92 94.23 C 178.69 92.83 180.62 91.67 182.60 90.60 Z" fill="#21223e" />
<path d="M 74.64 91.51 C 71.45 93.60 70.59 95.52 69.65 99.15 C 67.81 99.45 66.14 99.02 64.44 98.36 C 65.38 96.64 66.51 94.31 68.38 93.44 C 70.36 92.56 72.58 92.16 74.64 91.51 Z" fill="#ca706a" />
<path d="M 77.93 92.05 C 79.31 93.47 80.66 94.89 81.90 96.43 L 82.60 98.41 C 81.56 100.03 80.67 102.04 79.22 103.34 C 77.20 104.79 73.68 105.15 71.73 103.39 C 71.09 101.91 70.66 100.30 70.19 98.75 C 71.12 97.77 72.02 96.75 72.94 95.74 C 73.34 97.13 73.61 98.68 74.31 99.97 C 76.13 101.59 78.36 99.64 80.15 98.94 C 79.03 96.53 77.79 94.56 76.02 92.56 C 76.66 92.39 77.30 92.22 77.93 92.05 Z" fill="#25243f" />
<path d="M 186.38 94.41 C 187.38 96.17 188.35 97.87 189.92 99.19 C 190.63 99.51 191.34 99.82 192.05 100.12 C 193.14 102.53 194.23 104.87 195.04 107.40 L 193.57 108.22 C 193.12 107.47 192.66 106.73 192.20 105.98 C 190.76 105.32 189.33 104.68 187.93 103.92 C 187.58 103.31 187.24 102.69 186.90 102.07 C 186.18 100.71 185.44 99.37 184.67 98.05 C 183.30 99.18 181.95 100.33 180.61 101.49 C 179.34 100.24 176.69 99.30 177.13 97.22 C 179.41 94.32 183.08 94.69 186.38 94.41 Z" fill="#daa29c" />
<path d="M 193.31 95.98 C 194.53 96.59 195.71 97.28 196.90 97.94 C 197.67 96.86 198.44 95.78 199.22 94.70 C 202.20 98.17 206.21 100.42 209.31 103.70 C 211.91 107.37 212.72 112.24 214.67 116.31 C 215.96 118.87 215.24 121.16 214.95 123.85 C 211.81 125.08 208.67 126.16 205.35 126.82 C 204.55 130.57 205.25 134.07 205.89 137.78 C 204.51 138.50 203.10 139.42 201.58 139.80 C 200.27 139.71 198.95 139.24 197.68 138.90 C 196.76 139.42 195.85 139.95 194.94 140.48 C 195.44 138.79 195.94 137.09 196.44 135.39 C 194.73 136.35 193.02 137.30 191.30 138.23 C 192.18 135.73 193.13 133.26 194.10 130.80 C 196.59 124.99 195.96 117.75 194.44 111.76 C 196.68 109.26 197.80 107.20 197.90 103.74 C 198.70 104.81 200.57 105.08 200.30 103.26 C 199.77 102.33 198.99 102.22 197.97 102.94 C 196.04 101.91 194.07 100.96 192.05 100.12 C 191.34 99.82 190.63 99.51 189.92 99.19 C 191.04 98.11 192.14 97.01 193.31 95.98 Z" fill="#c45a53" />
<path d="M 48.97 98.07 C 49.37 101.67 49.54 105.32 50.05 108.90 C 50.54 111.74 50.74 115.91 52.87 118.10 C 54.74 119.20 57.19 119.70 59.03 121.04 C 60.66 122.21 62.21 123.49 63.85 124.66 C 63.64 125.26 63.45 125.87 63.27 126.49 C 62.01 126.43 60.75 126.41 59.49 126.44 C 57.58 128.89 55.24 131.72 54.54 134.78 C 54.68 136.50 56.88 138.25 57.91 139.64 C 57.87 140.81 57.82 141.98 57.77 143.15 C 62.81 141.92 67.36 140.53 72.57 141.67 C 72.63 139.71 72.80 137.63 72.47 135.69 C 70.54 133.83 67.18 133.31 64.73 132.38 C 64.36 130.92 64.00 129.46 63.65 128.01 C 64.68 128.44 65.70 128.89 66.71 129.35 C 67.88 129.97 69.01 130.64 70.09 131.39 C 71.25 132.29 72.41 133.18 73.61 134.01 C 74.77 134.16 75.92 134.22 77.08 134.29 L 77.79 134.33 C 75.86 137.49 75.98 140.82 76.15 144.39 C 77.22 147.52 79.76 148.66 82.45 150.23 C 80.34 149.58 78.24 148.91 76.16 148.17 C 70.04 145.16 63.65 144.85 57.03 144.14 C 52.50 143.59 49.19 141.72 46.15 138.38 C 46.74 140.03 47.31 141.69 47.83 143.36 C 46.62 143.65 45.40 144.00 44.17 144.13 C 39.82 140.94 38.91 134.87 40.04 129.88 C 41.37 130.40 42.67 130.97 43.97 131.54 C 42.99 130.10 42.03 128.66 41.16 127.15 C 40.47 125.25 39.59 123.19 39.50 121.15 C 39.95 119.30 41.34 117.64 42.26 115.99 C 44.88 117.58 47.62 118.40 50.60 118.98 C 47.92 112.94 47.20 107.06 46.96 100.53 C 47.59 99.68 48.26 98.86 48.97 98.07 Z" fill="#d59991" />
<path d="M 46.96 100.53 C 47.20 107.06 47.92 112.94 50.60 118.98 C 47.62 118.40 44.88 117.58 42.26 115.99 C 44.48 110.89 44.31 105.24 46.96 100.53 Z" fill="#c56a61" />
<path d="M 105.94 100.96 C 103.44 102.12 101.54 103.93 99.71 105.94 C 97.76 106.43 95.81 106.86 93.85 107.24 C 95.27 105.44 96.75 103.09 98.79 101.95 C 101.07 101.25 103.59 101.28 105.94 100.96 Z" fill="#ab634a" />
<path d="M 186.90 102.07 C 187.24 102.69 187.58 103.31 187.93 103.92 C 189.33 104.68 190.76 105.32 192.20 105.98 C 192.66 106.73 193.12 107.47 193.57 108.22 C 189.32 110.19 185.81 113.10 181.92 115.61 C 179.47 115.07 177.14 113.65 174.96 112.45 C 175.12 111.73 175.29 111.00 175.45 110.27 C 174.08 109.43 172.70 108.58 171.33 107.74 C 172.59 107.33 173.86 106.93 175.12 106.50 C 177.37 106.94 180.23 108.16 182.46 107.56 C 184.30 106.19 185.57 103.91 186.90 102.07 Z" fill="#c0756b" />
<path d="M 200.30 103.26 C 200.57 105.08 198.70 104.81 197.90 103.74 L 197.97 102.94 C 198.99 102.22 199.77 102.33 200.30 103.26 Z" fill="#e49e97" />
<path d="M 105.05 103.65 C 106.03 104.31 106.65 105.14 106.93 106.13 C 108.36 110.66 109.06 115.45 109.64 120.16 C 107.48 114.95 105.45 109.30 105.05 103.65 Z" fill="#63533b" />
<path d="M 55.12 104.90 C 56.26 107.52 57.38 110.16 58.44 112.82 C 58.96 110.50 59.51 108.19 60.15 105.90 C 60.32 108.81 60.02 112.78 61.74 115.27 C 63.33 116.93 66.33 117.35 68.51 117.77 C 67.57 118.61 66.67 119.51 65.83 120.46 C 65.12 121.83 64.46 123.23 63.85 124.66 C 62.21 123.49 60.66 122.21 59.03 121.04 C 57.19 119.70 54.74 119.20 52.87 118.10 C 50.74 115.91 50.54 111.74 50.05 108.90 C 50.72 110.43 51.46 111.92 52.22 113.40 C 53.70 110.70 54.53 107.91 55.12 104.90 Z" fill="#c87069" />
<path d="M 99.71 105.94 C 100.74 107.83 101.75 109.73 102.74 111.65 C 101.48 113.15 99.48 114.81 99.24 116.82 C 98.62 120.45 98.51 124.16 98.12 127.82 C 97.35 128.13 96.59 128.45 95.83 128.78 C 93.63 128.11 91.43 127.44 89.23 126.76 C 86.31 125.17 83.52 123.55 80.19 122.97 C 79.94 124.08 79.10 125.56 79.52 126.67 C 80.55 129.26 82.22 131.63 83.56 134.07 L 83.64 134.78 C 81.69 134.61 79.74 134.45 77.79 134.33 L 77.08 134.29 C 75.89 129.68 74.70 125.07 73.58 120.44 C 76.79 117.65 78.98 116.62 83.19 116.03 C 89.00 115.64 90.59 111.18 93.85 107.24 C 95.81 106.86 97.76 106.43 99.71 105.94 Z" fill="#bb9d67" />
<path d="M 194.44 111.76 C 195.96 117.75 196.59 124.99 194.10 130.80 C 190.67 132.10 189.07 133.89 187.15 136.88 C 189.55 138.71 191.96 140.53 194.35 142.37 C 188.00 144.67 182.94 148.09 175.88 148.34 C 178.76 146.37 181.67 144.46 184.56 142.50 C 184.58 140.43 184.60 138.36 184.62 136.29 C 182.53 136.15 180.43 136.01 178.34 135.92 C 177.27 135.87 176.20 135.82 175.13 135.77 L 175.81 135.20 C 179.48 133.62 183.27 132.30 186.98 130.80 C 185.47 127.30 183.84 123.88 181.63 120.76 C 181.18 120.28 180.72 119.83 180.25 119.39 C 182.21 119.03 184.30 118.79 186.16 118.08 C 189.49 116.69 191.90 114.23 194.44 111.76 Z" fill="#d49a92" />
<path d="M 83.19 116.03 C 78.98 116.62 76.79 117.65 73.58 120.44 C 72.13 119.59 70.70 118.71 69.25 117.85 C 73.87 116.43 78.39 116.13 83.19 116.03 Z" fill="#9d6958" />
<path d="M 174.23 115.77 C 176.21 117.02 178.26 118.17 180.25 119.39 C 180.72 119.83 181.18 120.28 181.63 120.76 C 181.01 121.07 180.40 121.39 179.80 121.72 C 179.51 124.28 179.53 126.76 179.33 129.34 C 177.99 128.15 176.63 126.97 175.31 125.75 C 175.01 125.08 174.70 124.42 174.38 123.76 C 171.53 124.58 168.74 125.58 165.87 126.33 C 165.92 123.59 165.98 121.13 167.85 118.93 C 169.35 116.73 171.87 116.54 174.23 115.77 Z" fill="#decea7" />
<path d="M 103.39 116.70 C 105.24 118.15 106.86 119.84 108.56 121.45 C 110.81 123.59 114.27 124.37 116.48 126.51 C 118.62 129.24 119.91 132.80 120.99 136.07 C 121.31 137.22 121.63 138.38 121.96 139.54 C 120.49 139.67 119.02 139.83 117.54 139.89 C 115.39 138.96 113.34 137.93 111.13 137.14 C 109.82 134.91 108.35 132.77 107.03 130.54 C 105.89 125.86 104.16 121.46 103.39 116.70 Z" fill="#21233f" />
<path d="M 150.72 116.64 C 151.07 122.31 148.59 126.74 146.95 131.94 C 144.94 135.19 142.31 137.81 139.49 140.34 C 137.74 139.94 135.98 139.58 134.22 139.21 C 134.34 137.38 134.44 135.56 134.63 133.74 C 135.25 131.18 135.90 128.75 137.87 126.88 C 140.18 124.56 143.50 123.94 145.72 121.71 C 147.41 120.04 148.97 118.25 150.72 116.64 Z" fill="#21233f" />
<path d="M 68.51 117.77 L 69.25 117.85 C 70.70 118.71 72.13 119.59 73.58 120.44 C 74.70 125.07 75.89 129.68 77.08 134.29 C 75.92 134.22 74.77 134.16 73.61 134.01 C 73.54 129.51 72.44 125.25 70.71 121.12 C 69.08 120.83 67.47 120.65 65.83 120.46 C 66.67 119.51 67.57 118.61 68.51 117.77 Z" fill="#dec0a4" />
<path d="M 70.71 121.12 C 72.44 125.25 73.54 129.51 73.61 134.01 C 72.41 133.18 71.25 132.29 70.09 131.39 C 68.71 128.33 67.91 125.08 66.55 122.01 C 66.21 124.48 66.41 126.89 66.71 129.35 C 65.70 128.89 64.68 128.44 63.65 128.01 L 63.27 126.49 C 63.45 125.87 63.64 125.26 63.85 124.66 C 64.46 123.23 65.12 121.83 65.83 120.46 C 67.47 120.65 69.08 120.83 70.71 121.12 Z" fill="#f6f3ef" />
<path d="M 179.80 121.72 C 180.40 121.39 181.01 121.07 181.63 120.76 C 183.84 123.88 185.47 127.30 186.98 130.80 C 183.27 132.30 179.48 133.62 175.81 135.20 C 177.20 133.37 178.46 131.47 179.33 129.34 C 179.53 126.76 179.51 124.28 179.80 121.72 Z" fill="#f3f1ee" />
<path d="M 66.55 122.01 C 67.91 125.08 68.71 128.33 70.09 131.39 C 69.01 130.64 67.88 129.97 66.71 129.35 C 66.41 126.89 66.21 124.48 66.55 122.01 Z" fill="#645961" />
<path d="M 80.19 122.97 C 83.52 123.55 86.31 125.17 89.23 126.76 C 87.61 127.02 85.99 127.27 84.37 127.51 C 84.08 129.70 83.78 131.88 83.56 134.07 C 82.22 131.63 80.55 129.26 79.52 126.67 C 79.10 125.56 79.94 124.08 80.19 122.97 Z" fill="#201d35" />
<path d="M 174.38 123.76 C 174.70 124.42 175.01 125.08 175.31 125.75 C 174.56 130.90 173.62 135.85 171.08 140.46 C 171.91 135.46 170.71 132.22 167.47 128.39 C 166.20 127.87 164.53 128.35 163.22 128.56 C 159.93 129.65 156.70 130.88 153.36 131.81 L 151.79 131.59 C 156.36 129.29 160.92 127.62 165.87 126.33 C 168.74 125.58 171.53 124.58 174.38 123.76 Z" fill="#472f44" />
<path d="M 214.95 123.85 C 215.60 124.97 216.25 126.09 216.91 127.21 C 217.36 126.93 217.80 126.66 218.25 126.38 C 219.83 127.07 221.43 127.69 223.07 128.24 C 221.20 130.21 219.22 132.06 217.26 133.92 C 216.77 132.96 216.28 132.00 215.78 131.05 C 214.37 132.36 213.03 133.75 211.79 135.22 C 210.12 131.91 208.18 129.22 205.35 126.82 C 208.67 126.16 211.81 125.08 214.95 123.85 Z" fill="#d49c93" />
<path d="M 59.49 126.44 C 60.75 126.41 62.01 126.43 63.27 126.49 L 63.65 128.01 C 64.00 129.46 64.36 130.92 64.73 132.38 C 67.18 133.31 70.54 133.83 72.47 135.69 C 72.80 137.63 72.63 139.71 72.57 141.67 C 67.36 140.53 62.81 141.92 57.77 143.15 C 57.82 141.98 57.87 140.81 57.91 139.64 C 56.88 138.25 54.68 136.50 54.54 134.78 C 55.24 131.72 57.58 128.89 59.49 126.44 Z" fill="#c9746d" />
<path d="M 175.31 125.75 C 176.63 126.97 177.99 128.15 179.33 129.34 C 178.46 131.47 177.20 133.37 175.81 135.20 L 175.13 135.77 C 176.20 135.82 177.27 135.87 178.34 135.92 C 178.35 137.46 178.42 138.99 178.49 140.53 C 175.54 141.34 173.09 142.33 170.86 144.49 C 172.17 145.21 173.49 145.93 174.81 146.64 C 173.11 147.10 171.42 147.57 169.72 147.97 C 165.13 148.21 158.69 146.17 155.22 149.83 C 157.65 150.60 159.60 152.00 162.15 150.90 C 165.50 149.63 168.43 148.68 172.06 149.44 C 171.11 150.18 170.18 150.96 169.28 151.77 C 167.98 155.17 170.13 157.37 170.74 160.70 C 169.73 161.48 168.55 162.12 167.44 162.75 C 164.49 164.10 161.87 165.93 159.20 167.76 C 157.51 166.58 155.77 165.18 153.83 164.44 C 152.69 164.34 151.50 165.29 150.48 165.74 C 147.67 167.42 145.16 168.33 141.82 168.26 L 141.10 167.78 C 141.41 165.76 141.72 163.76 142.07 161.75 C 145.09 161.86 146.27 161.85 148.35 159.55 C 146.28 158.59 144.20 157.66 142.06 156.87 C 142.12 154.81 142.17 152.74 142.18 150.68 C 143.43 149.16 144.60 147.54 145.75 145.94 C 142.91 146.52 140.09 147.17 137.28 147.90 C 136.46 147.18 135.65 146.46 134.83 145.74 C 136.35 143.91 137.85 142.07 139.49 140.34 C 142.31 137.81 144.94 135.19 146.95 131.94 L 146.55 133.37 C 148.29 132.78 150.03 132.17 151.79 131.59 L 153.36 131.81 C 152.42 132.33 151.48 132.86 150.55 133.40 C 150.53 134.56 150.50 135.72 150.47 136.89 C 152.90 136.77 155.32 136.63 157.74 136.40 C 159.08 133.41 161.01 130.95 163.22 128.56 C 164.53 128.35 166.20 127.87 167.47 128.39 C 170.71 132.22 171.91 135.46 171.08 140.46 C 173.62 135.85 174.56 130.90 175.31 125.75 Z" fill="#c35d54" />
<path d="M 205.35 126.82 C 208.18 129.22 210.12 131.91 211.79 135.22 C 210.08 137.17 208.33 139.87 205.97 141.03 C 202.23 142.70 198.33 142.22 194.35 142.37 C 191.96 140.53 189.55 138.71 187.15 136.88 C 189.07 133.89 190.67 132.10 194.10 130.80 C 193.13 133.26 192.18 135.73 191.30 138.23 C 193.02 137.30 194.73 136.35 196.44 135.39 C 195.94 137.09 195.44 138.79 194.94 140.48 C 195.85 139.95 196.76 139.42 197.68 138.90 C 198.95 139.24 200.27 139.71 201.58 139.80 C 203.10 139.42 204.51 138.50 205.89 137.78 C 205.25 134.07 204.55 130.57 205.35 126.82 Z" fill="#c7736b" />
<path d="M 89.23 126.76 C 88.31 127.19 87.39 127.63 86.47 128.07 C 89.53 129.95 91.83 132.43 94.18 135.09 C 92.94 137.03 91.73 138.92 90.12 140.59 C 87.41 139.73 84.64 139.28 81.82 139.01 C 83.89 139.91 85.98 140.76 88.06 141.65 L 89.48 142.52 C 84.95 142.79 80.54 143.09 76.15 144.39 C 75.98 140.82 75.86 137.49 77.79 134.33 C 79.74 134.45 81.69 134.61 83.64 134.78 L 83.56 134.07 C 83.78 131.88 84.08 129.70 84.37 127.51 C 85.99 127.27 87.61 127.02 89.23 126.76 Z" fill="#c77165" />
<path d="M 89.23 126.76 C 91.43 127.44 93.63 128.11 95.83 128.78 C 98.31 129.59 100.77 130.18 103.38 130.31 L 104.12 130.38 C 103.54 132.06 105.64 132.81 106.43 131.31 L 107.03 130.54 C 108.35 132.77 109.82 134.91 111.13 137.14 C 107.98 136.48 105.53 134.94 102.77 133.41 C 100.93 133.35 99.04 133.93 97.25 134.32 C 98.47 135.58 99.70 136.84 100.91 138.11 C 98.61 137.18 96.37 136.29 94.18 135.09 C 91.83 132.43 89.53 129.95 86.47 128.07 C 87.39 127.63 88.31 127.19 89.23 126.76 Z" fill="#cf8f83" />
<path d="M 98.12 127.82 C 99.93 128.54 101.64 129.43 103.38 130.31 C 100.77 130.18 98.31 129.59 95.83 128.78 C 96.59 128.45 97.35 128.13 98.12 127.82 Z" fill="#4e302f" />
<path d="M 36.20 129.15 C 37.50 129.17 38.80 129.50 40.04 129.88 C 38.91 134.87 39.82 140.94 44.17 144.13 C 45.40 144.00 46.62 143.65 47.83 143.36 C 48.52 146.51 49.77 149.21 53.22 149.85 C 57.43 149.79 61.67 148.11 65.95 148.32 C 68.71 148.43 71.23 149.23 73.78 150.21 C 77.71 151.69 81.04 153.41 85.30 151.98 L 85.98 153.20 C 86.75 154.57 87.45 155.97 88.13 157.39 C 87.37 157.17 86.61 156.94 85.84 156.72 C 85.17 155.82 84.50 154.92 83.83 154.02 C 79.62 154.17 75.86 153.79 71.96 155.74 C 67.85 157.42 65.05 160.39 61.72 163.16 C 60.26 163.68 58.81 164.20 57.36 164.73 C 57.68 165.53 58.00 166.33 58.32 167.13 C 57.05 167.66 55.78 168.19 54.51 168.72 C 53.87 168.17 53.20 167.65 52.51 167.16 C 48.82 168.16 45.21 169.30 41.38 169.72 C 37.66 169.04 35.31 168.92 31.82 170.59 C 33.47 172.72 35.05 174.85 36.08 177.35 C 32.92 174.93 29.69 172.21 26.10 170.50 C 27.94 168.62 29.85 166.47 32.18 165.21 C 36.36 162.96 41.68 162.18 45.62 159.57 C 48.02 158.60 46.77 154.92 45.64 153.37 C 40.73 147.24 31.67 144.41 27.10 138.03 C 27.74 136.44 28.60 134.93 29.39 133.41 L 27.81 133.92 C 30.59 132.36 33.25 130.35 36.20 129.15 Z" fill="#f2f2f1" />
<path d="M 163.22 128.56 C 161.01 130.95 159.08 133.41 157.74 136.40 C 155.32 136.63 152.90 136.77 150.47 136.89 C 150.50 135.72 150.53 134.56 150.55 133.40 C 151.48 132.86 152.42 132.33 153.36 131.81 C 156.70 130.88 159.93 129.65 163.22 128.56 Z" fill="#d28f81" />
<path d="M 104.12 130.38 C 105.09 130.39 105.86 130.70 106.43 131.31 C 105.64 132.81 103.54 132.06 104.12 130.38 Z" fill="#6c4746" />
<path d="M 215.78 131.05 C 216.28 132.00 216.77 132.96 217.26 133.92 C 214.72 136.37 213.71 139.42 212.62 142.66 C 211.63 146.04 208.09 147.47 204.91 147.97 C 201.63 147.61 198.36 145.60 195.03 145.55 C 190.21 146.66 186.24 149.76 181.25 150.54 C 178.15 150.43 175.13 149.86 172.06 149.44 C 168.43 148.68 165.50 149.63 162.15 150.90 C 159.60 152.00 157.65 150.60 155.22 149.83 C 158.69 146.17 165.13 148.21 169.72 147.97 C 171.77 148.11 173.82 148.28 175.88 148.34 C 182.94 148.09 188.00 144.67 194.35 142.37 C 198.33 142.22 202.23 142.70 205.97 141.03 C 208.33 139.87 210.08 137.17 211.79 135.22 C 213.03 133.75 214.37 132.36 215.78 131.05 Z" fill="#20213c" />
<path d="M 120.70 131.89 C 124.36 131.37 127.88 131.39 131.38 132.69 C 127.82 132.87 124.26 133.07 120.70 133.13 L 120.70 131.89 Z" fill="#4e2c28" />
<path d="M 102.77 133.41 C 105.53 134.94 107.98 136.48 111.13 137.14 C 113.34 137.93 115.39 138.96 117.54 139.89 C 118.69 143.34 121.07 145.80 123.65 148.25 C 123.25 145.30 122.79 142.40 121.96 139.54 C 121.63 138.38 121.31 137.22 120.99 136.07 L 120.79 134.17 C 125.10 134.88 129.47 135.25 133.81 135.76 C 133.67 139.62 132.70 143.26 131.77 146.98 C 129.54 147.52 127.23 148.49 124.95 148.64 C 121.61 148.51 118.32 147.47 114.99 147.14 C 113.57 147.09 112.15 147.09 110.73 147.14 C 111.96 149.15 113.27 151.10 114.63 153.02 C 113.57 154.96 113.06 156.44 113.15 158.66 C 111.74 160.32 109.97 160.79 110.81 163.31 C 111.67 165.26 112.59 167.18 113.53 169.09 L 114.23 170.36 C 116.48 170.50 118.72 170.49 120.97 170.51 C 117.88 170.50 114.83 170.91 111.80 171.51 C 115.49 173.43 119.70 172.72 123.99 173.18 C 129.44 173.66 133.79 172.56 138.32 169.43 C 138.99 169.52 139.65 169.60 140.32 169.67 C 139.33 172.54 138.38 175.42 137.44 178.31 C 134.63 178.90 131.79 179.58 128.94 179.90 C 125.83 180.25 122.64 179.52 119.48 179.28 C 117.05 179.12 114.48 179.44 112.10 179.03 C 110.43 177.53 109.64 174.92 108.64 172.92 C 107.29 169.89 104.86 167.88 102.27 165.91 C 101.10 167.34 100.00 168.81 98.90 170.29 C 94.78 168.85 92.62 165.78 89.12 163.39 C 88.67 163.07 88.22 162.74 87.77 162.42 C 87.34 161.90 86.92 161.38 86.50 160.86 C 88.17 159.42 89.82 157.98 91.48 156.54 C 91.45 155.52 91.42 154.49 91.39 153.46 C 92.42 152.51 93.45 151.56 94.47 150.60 C 91.27 150.33 88.19 150.39 85.03 151.04 C 84.17 150.78 83.31 150.51 82.45 150.23 C 79.76 148.66 77.22 147.52 76.15 144.39 C 80.54 143.09 84.95 142.79 89.48 142.52 L 88.06 141.65 L 90.12 140.59 C 91.73 138.92 92.94 137.03 94.18 135.09 C 96.37 136.29 98.61 137.18 100.91 138.11 C 99.70 136.84 98.47 135.58 97.25 134.32 C 99.04 133.93 100.93 133.35 102.77 133.41 Z" fill="#c25d54" />
<path d="M 120.70 133.13 C 124.26 133.07 127.82 132.87 131.38 132.69 C 132.47 133.02 133.55 133.37 134.63 133.74 C 134.44 135.56 134.34 137.38 134.22 139.21 C 135.98 139.58 137.74 139.94 139.49 140.34 C 137.85 142.07 136.35 143.91 134.83 145.74 C 134.23 146.46 133.63 147.18 133.02 147.89 L 131.77 146.98 C 132.70 143.26 133.67 139.62 133.81 135.76 C 129.47 135.25 125.10 134.88 120.79 134.17 L 120.70 133.13 Z" fill="#d59f9c" />
<path d="M 178.34 135.92 C 180.43 136.01 182.53 136.15 184.62 136.29 C 184.60 138.36 184.58 140.43 184.56 142.50 C 181.67 144.46 178.76 146.37 175.88 148.34 C 173.82 148.28 171.77 148.11 169.72 147.97 C 171.42 147.57 173.11 147.10 174.81 146.64 C 173.49 145.93 172.17 145.21 170.86 144.49 C 173.09 142.33 175.54 141.34 178.49 140.53 C 178.42 138.99 178.35 137.46 178.34 135.92 Z" fill="#cc7a72" />
<path d="M 46.15 138.38 C 49.19 141.72 52.50 143.59 57.03 144.14 C 63.65 144.85 70.04 145.16 76.16 148.17 C 75.36 148.84 74.57 149.52 73.78 150.21 C 71.23 149.23 68.71 148.43 65.95 148.32 C 61.67 148.11 57.43 149.79 53.22 149.85 C 49.77 149.21 48.52 146.51 47.83 143.36 C 47.31 141.69 46.74 140.03 46.15 138.38 Z" fill="#1d1e3a" />
<path d="M 81.82 139.01 C 84.64 139.28 87.41 139.73 90.12 140.59 L 88.06 141.65 C 85.98 140.76 83.89 139.91 81.82 139.01 Z" fill="#88403e" />
<path d="M 121.96 139.54 C 122.79 142.40 123.25 145.30 123.65 148.25 C 121.07 145.80 118.69 143.34 117.54 139.89 C 119.02 139.83 120.49 139.67 121.96 139.54 Z" fill="#f9c8c5" />
<path d="M 131.77 146.98 L 133.02 147.89 C 133.63 147.18 134.23 146.46 134.83 145.74 C 135.65 146.46 136.46 147.18 137.28 147.90 C 136.26 150.31 135.15 152.68 134.08 155.07 C 136.91 153.83 139.67 152.50 142.18 150.68 C 142.17 152.74 142.12 154.81 142.06 156.87 C 139.24 157.78 136.56 158.99 133.90 160.27 C 136.61 160.80 139.33 161.34 142.07 161.75 C 141.72 163.76 141.41 165.76 141.10 167.78 C 138.65 165.95 135.91 164.94 132.97 164.21 C 133.61 165.82 134.32 167.41 135.04 168.99 C 130.56 170.12 126.42 171.06 121.76 170.52 C 123.05 168.25 124.37 166.00 125.65 163.72 C 121.28 164.85 117.37 166.75 113.53 169.09 C 112.59 167.18 111.67 165.26 110.81 163.31 C 112.68 163.08 114.66 162.96 116.46 162.40 C 118.27 161.57 119.76 159.89 121.19 158.53 C 118.51 158.52 115.83 158.57 113.15 158.66 C 113.06 156.44 113.57 154.96 114.63 153.02 C 117.16 153.30 119.69 153.56 122.22 153.77 C 120.21 151.05 118.16 148.57 114.99 147.14 C 118.32 147.47 121.61 148.51 124.95 148.64 C 127.23 148.49 129.54 147.52 131.77 146.98 Z" fill="#a14e48" />
<path d="M 145.75 145.94 C 144.60 147.54 143.43 149.16 142.18 150.68 C 139.67 152.50 136.91 153.83 134.08 155.07 C 135.15 152.68 136.26 150.31 137.28 147.90 C 140.09 147.17 142.91 146.52 145.75 145.94 Z" fill="#231c3a" />
<path d="M 110.73 147.14 C 112.15 147.09 113.57 147.09 114.99 147.14 C 118.16 148.57 120.21 151.05 122.22 153.77 C 119.69 153.56 117.16 153.30 114.63 153.02 C 113.27 151.10 111.96 149.15 110.73 147.14 Z" fill="#1f1f3b" />
<path d="M 76.16 148.17 C 78.24 148.91 80.34 149.58 82.45 150.23 C 83.31 150.51 84.17 150.78 85.03 151.04 L 85.30 151.98 C 81.04 153.41 77.71 151.69 73.78 150.21 C 74.57 149.52 75.36 148.84 76.16 148.17 Z" fill="#927f75" />
<path d="M 96.44 148.67 C 97.41 148.73 98.38 148.82 99.34 148.97 C 97.77 149.64 96.18 150.26 94.56 150.81 C 95.15 150.06 95.78 149.35 96.44 148.67 Z" fill="#8c3e39" />
<path d="M 94.47 150.60 C 93.45 151.56 92.42 152.51 91.39 153.46 C 89.59 153.38 87.78 153.31 85.98 153.20 L 85.30 151.98 L 85.03 151.04 C 88.19 150.39 91.27 150.33 94.47 150.60 Z" fill="#935354" />
<path d="M 172.06 149.44 C 175.13 149.86 178.15 150.43 181.25 150.54 C 180.48 150.74 179.72 150.93 178.95 151.14 C 180.64 152.47 182.29 154.13 184.41 154.68 C 186.40 155.24 188.31 155.63 190.00 156.91 C 194.17 159.84 198.55 163.28 203.90 163.30 C 206.07 163.46 207.35 160.49 208.67 159.11 C 210.09 159.37 211.51 159.62 212.93 159.88 C 212.74 160.92 212.55 161.96 212.37 163.00 C 211.22 163.65 210.09 164.46 208.84 164.90 C 206.52 164.79 204.19 163.95 201.94 163.43 C 201.88 165.03 201.83 166.64 201.76 168.24 C 200.38 168.16 198.99 168.07 197.61 167.98 C 197.52 168.48 197.43 168.98 197.35 169.48 C 200.46 169.79 203.47 170.08 206.31 171.49 C 198.99 172.30 191.94 170.09 184.56 170.93 C 183.06 168.80 181.60 166.64 180.14 164.48 C 181.81 164.54 183.47 164.58 185.14 164.62 C 183.07 159.83 179.20 157.29 175.21 154.27 C 174.23 155.01 173.26 155.75 172.28 156.50 C 171.30 154.91 170.31 153.33 169.28 151.77 C 170.18 150.96 171.11 150.18 172.06 149.44 Z" fill="#d6be95" />
<path d="M 169.28 151.77 C 170.31 153.33 171.30 154.91 172.28 156.50 C 173.26 155.75 174.23 155.01 175.21 154.27 C 179.20 157.29 183.07 159.83 185.14 164.62 C 183.47 164.58 181.81 164.54 180.14 164.48 C 181.60 166.64 183.06 168.80 184.56 170.93 C 182.98 170.55 181.46 170.07 179.91 169.59 C 181.18 171.86 182.39 174.17 183.70 176.43 C 181.86 174.74 180.02 172.85 177.85 171.61 C 176.73 171.77 175.66 172.09 174.63 172.59 C 173.02 175.14 174.54 179.20 172.92 181.72 C 170.63 183.05 168.07 183.67 165.96 185.42 C 167.00 186.36 168.05 187.29 169.10 188.22 C 167.25 188.43 165.40 188.65 163.55 188.87 C 163.67 186.66 163.72 184.45 163.86 182.24 C 164.27 177.61 165.23 173.10 165.25 168.43 C 163.09 172.52 162.68 176.79 161.81 181.25 C 160.23 180.46 158.70 179.62 157.10 178.87 C 159.39 175.05 161.73 171.31 163.32 167.11 C 164.67 165.64 166.02 164.17 167.44 162.75 C 168.55 162.12 169.73 161.48 170.74 160.70 C 170.13 157.37 167.98 155.17 169.28 151.77 Z" fill="#c89879" />
<path d="M 85.98 153.20 C 87.78 153.31 89.59 153.38 91.39 153.46 C 91.42 154.49 91.45 155.52 91.48 156.54 C 89.82 157.98 88.17 159.42 86.50 160.86 C 86.92 161.38 87.34 161.90 87.77 162.42 C 90.32 166.14 93.57 169.15 96.97 172.08 C 97.07 173.34 97.18 174.60 97.32 175.86 C 95.70 176.34 94.08 176.82 92.45 177.25 L 92.05 177.36 L 91.27 177.56 C 92.16 180.05 93.03 182.54 93.99 185.00 L 94.48 186.36 C 92.78 185.39 91.09 184.43 89.45 183.35 C 88.74 182.75 88.07 182.12 87.43 181.45 C 88.17 177.02 88.22 172.46 87.71 168.01 C 87.41 165.10 85.52 162.45 84.08 159.97 C 84.66 158.89 85.25 157.80 85.84 156.72 C 86.61 156.94 87.37 157.17 88.13 157.39 C 87.45 155.97 86.75 154.57 85.98 153.20 Z" fill="#cf8b7e" />
<path d="M 83.83 154.02 C 84.50 154.92 85.17 155.82 85.84 156.72 C 85.25 157.80 84.66 158.89 84.08 159.97 C 85.52 162.45 87.41 165.10 87.71 168.01 C 88.22 172.46 88.17 177.02 87.43 181.45 C 85.59 179.19 84.07 176.73 82.32 174.41 C 79.32 176.75 76.56 179.39 73.49 181.62 C 70.42 181.23 67.38 181.41 64.30 181.51 C 60.26 178.37 55.70 177.56 50.86 176.49 C 59.08 173.87 66.73 172.82 73.14 166.46 C 69.90 165.68 67.70 165.71 64.49 166.52 C 64.77 165.74 65.04 164.96 65.32 164.18 C 64.12 163.83 62.93 163.48 61.72 163.16 C 65.05 160.39 67.85 157.42 71.96 155.74 C 75.86 153.79 79.62 154.17 83.83 154.02 Z" fill="#bb9d66" />
<path d="M 142.06 156.87 C 144.20 157.66 146.28 158.59 148.35 159.55 C 146.27 161.85 145.09 161.86 142.07 161.75 C 139.33 161.34 136.61 160.80 133.90 160.27 C 136.56 158.99 139.24 157.78 142.06 156.87 Z" fill="#241f36" />
<path d="M 121.19 158.53 C 119.76 159.89 118.27 161.57 116.46 162.40 C 114.66 162.96 112.68 163.08 110.81 163.31 C 109.97 160.79 111.74 160.32 113.15 158.66 C 115.83 158.57 118.51 158.52 121.19 158.53 Z" fill="#251f34" />
<path d="M 187.73 158.14 C 191.50 159.55 194.81 161.74 197.92 164.26 C 193.86 163.06 190.27 161.74 187.73 158.14 Z" fill="#eee2c4" />
<path d="M 89.12 163.39 C 92.62 165.78 94.78 168.85 98.90 170.29 C 100.49 171.02 101.97 171.21 102.63 173.08 C 99.98 174.91 99.19 173.54 96.97 172.08 C 93.57 169.15 90.32 166.14 87.77 162.42 C 88.22 162.74 88.67 163.07 89.12 163.39 Z" fill="#54252d" />
<path d="M 167.44 162.75 C 166.02 164.17 164.67 165.64 163.32 167.11 C 158.37 169.51 155.50 173.48 152.16 177.63 C 151.16 178.08 150.16 178.52 149.15 178.95 L 149.61 178.11 C 151.08 175.25 152.84 172.59 155.24 170.43 C 156.54 169.51 157.88 168.64 159.20 167.76 C 161.87 165.93 164.49 164.10 167.44 162.75 Z" fill="#52212c" />
<path d="M 61.72 163.16 C 62.93 163.48 64.12 163.83 65.32 164.18 C 65.04 164.96 64.77 165.74 64.49 166.52 C 67.70 165.71 69.90 165.68 73.14 166.46 C 66.73 172.82 59.08 173.87 50.86 176.49 C 55.70 177.56 60.26 178.37 64.30 181.51 C 59.76 181.67 55.60 179.90 51.04 180.06 C 46.01 180.09 41.32 180.48 36.57 178.44 L 36.08 177.35 C 35.05 174.85 33.47 172.72 31.82 170.59 C 35.31 168.92 37.66 169.04 41.38 169.72 C 39.93 170.30 38.49 170.93 37.06 171.56 C 40.93 172.67 44.82 174.05 48.90 173.97 C 51.86 173.92 54.69 172.95 57.49 172.06 C 56.51 170.92 55.55 169.80 54.51 168.72 C 55.78 168.19 57.05 167.66 58.32 167.13 C 58.00 166.33 57.68 165.53 57.36 164.73 C 58.81 164.20 60.26 163.68 61.72 163.16 Z" fill="#ddcba3" />
<path d="M 212.37 163.00 C 213.97 163.93 215.55 164.89 217.15 165.84 C 216.83 166.75 216.51 167.67 216.19 168.58 C 213.82 169.51 211.46 170.45 209.11 171.41 C 211.58 171.67 214.06 171.90 216.53 172.11 C 214.67 175.06 213.14 178.21 211.19 181.10 C 202.53 185.19 194.60 182.80 186.04 180.01 C 185.27 178.81 184.49 177.61 183.70 176.43 C 182.39 174.17 181.18 171.86 179.91 169.59 C 181.46 170.07 182.98 170.55 184.56 170.93 C 191.94 170.09 198.99 172.30 206.31 171.49 C 203.47 170.08 200.46 169.79 197.35 169.48 C 197.43 168.98 197.52 168.48 197.61 167.98 C 198.99 168.07 200.38 168.16 201.76 168.24 C 201.83 166.64 201.88 165.03 201.94 163.43 C 204.19 163.95 206.52 164.79 208.84 164.90 C 210.09 164.46 211.22 163.65 212.37 163.00 Z" fill="#bb9d65" />
<path d="M 125.65 163.72 C 124.37 166.00 123.05 168.25 121.76 170.52 L 120.97 170.51 C 118.72 170.49 116.48 170.50 114.23 170.36 L 113.53 169.09 C 117.37 166.75 121.28 164.85 125.65 163.72 Z" fill="#221e3a" />
<path d="M 132.97 164.21 C 135.91 164.94 138.65 165.95 141.10 167.78 L 141.82 168.26 C 142.53 168.78 143.23 169.32 143.93 169.86 C 142.72 169.81 141.52 169.75 140.32 169.67 C 139.65 169.60 138.99 169.52 138.32 169.43 C 137.23 169.27 136.14 169.13 135.04 168.99 C 134.32 167.41 133.61 165.82 132.97 164.21 Z" fill="#19192f" />
<path d="M 153.83 164.44 C 155.77 165.18 157.51 166.58 159.20 167.76 C 157.88 168.64 156.54 169.51 155.24 170.43 C 153.65 168.87 152.06 167.31 150.48 165.74 C 151.50 165.29 152.69 164.34 153.83 164.44 Z" fill="#d88c85" />
<path d="M 220.81 165.05 C 222.20 166.56 223.46 168.15 224.74 169.76 C 223.75 171.10 222.74 172.43 221.74 173.77 C 223.30 173.34 224.87 172.92 226.42 172.44 C 222.64 176.67 216.11 178.37 211.19 181.10 C 213.14 178.21 214.67 175.06 216.53 172.11 C 214.06 171.90 211.58 171.67 209.11 171.41 C 211.46 170.45 213.82 169.51 216.19 168.58 C 216.51 167.67 216.83 166.75 217.15 165.84 C 218.36 165.56 219.58 165.28 220.81 165.05 Z" fill="#ddcca4" />
<path d="M 102.27 165.91 C 104.86 167.88 107.29 169.89 108.64 172.92 C 109.64 174.92 110.43 177.53 112.10 179.03 C 114.48 179.44 117.05 179.12 119.48 179.28 C 120.21 181.91 120.34 184.61 123.51 185.36 C 128.13 186.13 133.27 186.25 137.94 185.86 C 142.74 185.31 146.06 182.41 149.15 178.95 C 150.16 178.52 151.16 178.08 152.16 177.63 C 151.27 180.42 151.02 183.27 150.77 186.16 C 148.85 189.57 147.43 192.42 143.43 193.66 C 140.70 194.56 138.17 195.66 135.63 197.02 C 134.44 196.59 133.25 196.15 132.06 195.71 C 128.30 194.22 125.56 193.36 121.75 195.35 L 120.16 196.11 C 120.35 195.37 120.53 194.62 120.70 193.87 C 119.49 194.55 118.28 195.23 117.11 195.98 C 116.72 195.01 115.98 194.78 114.91 195.29 C 114.07 194.57 113.24 193.86 112.40 193.15 C 111.01 191.92 109.63 190.56 108.13 189.47 C 107.59 189.17 107.05 188.87 106.51 188.58 C 102.73 184.95 99.74 180.49 97.32 175.86 C 97.18 174.60 97.07 173.34 96.97 172.08 C 99.19 173.54 99.98 174.91 102.63 173.08 C 101.97 171.21 100.49 171.02 98.90 170.29 C 100.00 168.81 101.10 167.34 102.27 165.91 Z" fill="#ae443c" />
<path d="M 150.48 165.74 C 152.06 167.31 153.65 168.87 155.24 170.43 C 152.84 172.59 151.08 175.25 149.61 178.11 C 146.64 178.77 143.79 179.78 140.95 180.83 C 141.94 179.56 142.93 178.27 143.91 176.99 C 141.75 177.42 139.59 177.86 137.44 178.31 C 138.38 175.42 139.33 172.54 140.32 169.67 C 141.52 169.75 142.72 169.81 143.93 169.86 C 143.23 169.32 142.53 168.78 141.82 168.26 C 145.16 168.33 147.67 167.42 150.48 165.74 Z" fill="#b34b42" />
<path d="M 52.51 167.16 C 53.20 167.65 53.87 168.17 54.51 168.72 C 55.55 169.80 56.51 170.92 57.49 172.06 C 54.69 172.95 51.86 173.92 48.90 173.97 C 44.82 174.05 40.93 172.67 37.06 171.56 C 38.49 170.93 39.93 170.30 41.38 169.72 C 45.21 169.30 48.82 168.16 52.51 167.16 Z" fill="#c8b180" />
<path d="M 163.32 167.11 C 161.73 171.31 159.39 175.05 157.10 178.87 C 155.42 181.77 153.30 183.99 150.77 186.16 C 151.02 183.27 151.27 180.42 152.16 177.63 C 155.50 173.48 158.37 169.51 163.32 167.11 Z" fill="#bf6c64" />
<path d="M 135.04 168.99 C 136.14 169.13 137.23 169.27 138.32 169.43 C 133.79 172.56 129.44 173.66 123.99 173.18 C 119.70 172.72 115.49 173.43 111.80 171.51 C 114.83 170.91 117.88 170.50 120.97 170.51 L 121.76 170.52 C 126.42 171.06 130.56 170.12 135.04 168.99 Z" fill="#cf857d" />
<path d="M 165.25 168.43 C 165.23 173.10 164.27 177.61 163.86 182.24 C 163.17 181.91 162.49 181.58 161.81 181.25 C 162.68 176.79 163.09 172.52 165.25 168.43 Z" fill="#b26c5b" />
<path d="M 228.43 168.88 C 227.80 170.09 227.19 171.32 226.42 172.44 C 224.87 172.92 223.30 173.34 221.74 173.77 C 222.74 172.43 223.75 171.10 224.74 169.76 C 225.97 169.45 227.20 169.16 228.43 168.88 Z" fill="#9b8a5b" />
<path d="M 26.10 170.50 C 29.69 172.21 32.92 174.93 36.08 177.35 L 36.57 178.44 C 33.58 177.33 30.72 176.03 27.71 175.07 C 27.12 173.56 26.58 172.04 26.10 170.50 Z" fill="#9d8e63" />
<path d="M 177.85 171.61 C 180.02 172.85 181.86 174.74 183.70 176.43 C 184.49 177.61 185.27 178.81 186.04 180.01 C 185.63 180.70 185.22 181.40 184.80 182.10 C 186.40 182.63 187.97 183.24 189.53 183.89 C 188.98 184.64 188.43 185.40 187.88 186.15 C 191.10 187.31 193.74 188.93 197.27 188.21 C 200.11 187.71 202.26 189.45 204.93 189.49 C 207.16 189.10 209.13 188.17 211.46 188.28 C 212.28 189.71 212.80 191.26 213.31 192.83 C 213.51 191.79 213.72 190.76 213.96 189.73 C 212.17 188.05 209.38 187.56 210.01 184.61 C 211.37 184.63 213.30 184.51 214.33 185.56 C 218.32 189.39 219.78 193.97 222.35 198.67 C 225.58 204.45 226.44 211.74 228.49 218.09 C 226.31 217.52 224.13 216.91 221.96 216.30 C 222.08 217.97 222.21 219.63 222.42 221.30 C 221.38 218.34 219.78 215.60 218.79 212.63 C 218.43 210.14 219.23 207.36 219.72 204.89 C 218.92 205.22 218.12 205.54 217.32 205.86 C 215.91 203.53 214.57 201.31 212.29 199.71 C 209.94 197.99 208.13 195.51 205.69 193.97 C 202.62 193.43 199.55 193.38 196.54 192.44 C 191.64 190.95 186.95 188.68 182.13 186.96 C 175.77 190.14 170.85 195.62 164.20 197.90 C 159.18 199.79 155.63 203.86 150.38 204.86 C 147.70 204.56 145.02 204.31 142.33 204.05 C 143.33 202.50 144.25 199.54 146.44 199.48 C 148.88 199.44 151.25 200.66 153.71 200.71 C 156.10 199.98 158.99 198.47 161.02 197.01 C 163.87 194.25 166.52 191.24 169.10 188.22 C 168.05 187.29 167.00 186.36 165.96 185.42 C 168.07 183.67 170.63 183.05 172.92 181.72 C 174.54 179.20 173.02 175.14 174.63 172.59 C 175.66 172.09 176.73 171.77 177.85 171.61 Z" fill="#22233f" />
<path d="M 82.32 174.41 C 84.07 176.73 85.59 179.19 87.43 181.45 C 88.07 182.12 88.74 182.75 89.45 183.35 C 89.77 184.96 89.89 186.80 90.65 188.26 C 91.78 189.88 93.27 191.28 94.68 192.66 C 97.06 194.92 99.80 196.56 102.50 198.40 C 101.35 198.71 100.20 199.02 99.05 199.31 C 94.09 196.00 89.98 191.47 85.21 187.94 C 78.53 191.89 71.03 193.43 64.08 196.78 C 59.31 193.95 53.81 193.92 48.49 194.68 C 45.15 197.54 42.50 201.34 39.81 204.80 C 37.83 207.68 35.21 209.75 33.81 212.78 C 31.08 218.75 29.77 225.18 27.08 231.18 L 26.84 231.94 C 26.17 232.13 25.51 232.32 24.84 232.51 C 24.61 227.27 25.97 222.42 27.69 217.53 C 28.54 215.49 28.15 213.51 28.45 211.40 C 29.25 208.84 30.65 206.39 31.93 204.03 C 32.77 204.18 33.61 204.34 34.45 204.49 C 33.82 203.75 33.18 203.01 32.56 202.26 C 34.77 199.23 36.46 195.38 39.24 192.86 C 40.28 192.54 41.34 192.36 42.41 192.16 C 41.66 191.35 40.93 190.54 40.20 189.71 C 42.85 189.59 45.50 189.60 48.15 189.39 C 50.81 189.18 53.27 191.71 55.77 191.64 C 62.85 189.52 66.92 184.53 73.49 181.62 C 76.56 179.39 79.32 176.75 82.32 174.41 Z" fill="#222340" />
<path d="M 27.71 175.07 C 30.72 176.03 33.58 177.33 36.57 178.44 C 41.32 180.48 46.01 180.09 51.04 180.06 C 55.60 179.90 59.76 181.67 64.30 181.51 C 67.38 181.41 70.42 181.23 73.49 181.62 C 66.92 184.53 62.85 189.52 55.77 191.64 C 53.27 191.71 50.81 189.18 48.15 189.39 C 45.50 189.60 42.85 189.59 40.20 189.71 C 40.93 190.54 41.66 191.35 42.41 192.16 C 41.34 192.36 40.28 192.54 39.24 192.86 C 36.46 195.38 34.77 199.23 32.56 202.26 C 33.18 203.01 33.82 203.75 34.45 204.49 C 33.61 204.34 32.77 204.18 31.93 204.03 C 30.65 206.39 29.25 208.84 28.45 211.40 C 28.15 213.51 28.54 215.49 27.69 217.53 C 25.97 222.42 24.61 227.27 24.84 232.51 C 25.51 232.32 26.17 232.13 26.84 231.94 C 26.55 232.96 26.28 233.98 26.01 235.00 C 25.39 235.35 24.77 235.69 24.16 236.03 C 24.12 232.59 24.02 229.16 23.88 225.73 C 23.35 227.47 22.83 229.21 22.29 230.95 C 20.94 227.69 19.68 224.64 19.89 221.01 C 20.35 210.14 26.18 200.91 30.23 191.26 C 32.70 186.31 28.27 181.33 26.13 177.06 C 26.65 176.39 27.17 175.73 27.71 175.07 Z" fill="#f3f3f3" />
<path d="M 92.05 177.36 L 92.45 177.25 C 94.08 176.82 95.70 176.34 97.32 175.86 C 99.74 180.49 102.73 184.95 106.51 188.58 C 107.82 190.53 109.09 192.50 110.37 194.47 C 108.36 195.86 106.39 197.31 104.55 198.92 C 103.79 199.62 103.04 200.33 102.31 201.05 C 101.23 200.45 100.13 199.91 99.05 199.31 C 100.20 199.02 101.35 198.71 102.50 198.40 C 99.80 196.56 97.06 194.92 94.68 192.66 C 95.48 192.04 96.27 191.42 97.06 190.80 C 96.01 188.88 94.94 186.97 93.99 185.00 C 93.03 182.54 92.16 180.05 91.27 177.56 L 92.05 177.36 Z" fill="#dec7c2" />
<path d="M 143.91 176.99 C 142.93 178.27 141.94 179.56 140.95 180.83 C 143.79 179.78 146.64 178.77 149.61 178.11 L 149.15 178.95 C 146.06 182.41 142.74 185.31 137.94 185.86 C 133.27 186.25 128.13 186.13 123.51 185.36 C 120.34 184.61 120.21 181.91 119.48 179.28 C 122.64 179.52 125.83 180.25 128.94 179.90 C 131.79 179.58 134.63 178.90 137.44 178.31 C 139.59 177.86 141.75 177.42 143.91 176.99 Z" fill="#c57a71" />
<path d="M 157.10 178.87 C 158.70 179.62 160.23 180.46 161.81 181.25 C 162.49 181.58 163.17 181.91 163.86 182.24 C 163.72 184.45 163.67 186.66 163.55 188.87 C 165.40 188.65 167.25 188.43 169.10 188.22 C 166.52 191.24 163.87 194.25 161.02 197.01 C 158.99 198.47 156.10 199.98 153.71 200.71 C 151.25 200.66 148.88 199.44 146.44 199.48 C 144.25 199.54 143.33 202.50 142.33 204.05 C 139.99 203.83 137.76 203.41 135.71 202.18 C 133.82 200.47 132.05 198.62 130.23 196.83 C 130.84 196.46 131.45 196.09 132.06 195.71 C 133.25 196.15 134.44 196.59 135.63 197.02 C 136.76 197.42 137.88 197.82 139.01 198.22 C 140.46 196.69 141.91 195.12 143.43 193.66 C 147.43 192.42 148.85 189.57 150.77 186.16 C 153.30 183.99 155.42 181.77 157.10 178.87 Z" fill="#decac5" />
<path d="M 84.04 181.82 C 83.87 183.63 83.69 185.44 83.50 187.25 C 82.94 186.03 82.39 184.82 81.90 183.58 C 82.61 182.99 83.32 182.40 84.04 181.82 Z" fill="#4c505f" />
<path d="M 94.48 186.36 L 93.99 185.00 C 94.94 186.97 96.01 188.88 97.06 190.80 C 96.27 191.42 95.48 192.04 94.68 192.66 C 93.27 191.28 91.78 189.88 90.65 188.26 C 89.89 186.80 89.77 184.96 89.45 183.35 C 91.09 184.43 92.78 185.39 94.48 186.36 Z" fill="#d5a89a" />
<path d="M 182.13 186.96 C 186.95 188.68 191.64 190.95 196.54 192.44 C 199.55 193.38 202.62 193.43 205.69 193.97 C 208.13 195.51 209.94 197.99 212.29 199.71 C 214.57 201.31 215.91 203.53 217.32 205.86 C 218.12 205.54 218.92 205.22 219.72 204.89 C 219.23 207.36 218.43 210.14 218.79 212.63 C 219.78 215.60 221.38 218.34 222.42 221.30 C 222.61 222.38 222.81 223.46 223.01 224.55 C 222.79 227.04 222.57 229.53 222.43 232.03 C 217.86 230.04 213.64 228.32 208.55 229.04 C 207.71 227.59 206.87 226.16 206.09 224.68 C 204.81 220.86 202.79 217.39 201.40 213.60 C 199.96 209.79 197.22 207.15 193.96 204.84 C 191.74 205.50 189.52 206.11 187.28 206.69 C 184.84 204.18 182.16 200.81 178.82 199.57 C 175.73 199.83 172.71 202.76 171.08 205.25 C 169.63 207.57 166.90 207.77 164.46 208.39 C 159.05 209.28 153.34 209.87 147.89 209.21 L 148.22 208.40 C 148.91 207.20 149.64 206.03 150.38 204.86 C 155.63 203.86 159.18 199.79 164.20 197.90 C 170.85 195.62 175.77 190.14 182.13 186.96 Z" fill="#f1f2f2" />
<path d="M 85.21 187.94 C 89.98 191.47 94.09 196.00 99.05 199.31 C 100.13 199.91 101.23 200.45 102.31 201.05 C 104.18 203.48 105.97 205.97 107.90 208.35 C 106.91 209.00 105.92 209.66 104.92 210.30 C 102.80 210.54 100.65 210.52 98.51 210.70 C 99.58 212.00 100.81 212.70 102.22 212.81 C 106.70 213.31 111.19 213.71 115.65 214.47 C 116.56 214.94 117.46 215.42 118.35 215.92 C 121.57 217.69 124.77 219.50 128.06 221.13 C 134.09 219.99 139.41 214.85 144.80 211.93 C 150.17 214.64 157.24 212.73 163.00 212.43 C 170.52 212.15 177.31 209.82 184.36 207.43 C 184.80 208.78 185.21 210.14 185.64 211.49 C 187.78 212.05 190.97 211.82 192.50 213.56 C 195.46 216.54 198.47 218.85 200.36 222.48 C 202.53 226.01 203.15 229.76 204.41 233.65 C 202.27 233.36 199.78 233.20 197.85 232.20 C 192.08 229.11 187.89 221.50 181.57 219.50 C 176.78 218.29 171.28 219.12 166.40 219.66 C 159.12 220.73 151.87 220.83 145.11 223.09 C 140.41 224.54 135.54 226.83 130.67 227.44 C 125.18 227.98 120.05 226.04 115.08 223.99 C 107.02 220.45 98.38 221.21 89.30 219.67 C 83.48 219.04 76.31 216.87 70.64 218.67 C 64.19 221.17 61.01 228.28 54.98 232.21 C 54.31 231.05 53.64 229.88 52.97 228.72 C 54.38 225.48 55.01 221.81 56.68 218.71 C 59.33 214.51 62.99 211.72 67.10 209.08 C 67.93 206.57 68.28 203.90 68.88 201.33 C 68.16 200.66 67.43 200.00 66.70 199.34 C 63.84 200.09 62.13 202.15 60.25 204.27 C 56.59 208.69 55.32 213.55 52.76 218.82 C 49.11 219.37 48.82 225.48 47.76 228.30 C 45.51 227.18 42.87 224.40 40.33 226.31 C 36.50 228.70 33.15 231.78 29.23 234.07 C 28.51 233.11 27.80 232.15 27.08 231.18 C 29.77 225.18 31.08 218.75 33.81 212.78 C 35.21 209.75 37.83 207.68 39.81 204.80 C 42.50 201.34 45.15 197.54 48.49 194.68 C 53.81 193.92 59.31 193.95 64.08 196.78 C 71.03 193.43 78.53 191.89 85.21 187.94 Z" fill="#f3f4f3" />
<path d="M 108.13 189.47 C 109.63 190.56 111.01 191.92 112.40 193.15 C 111.71 193.58 111.04 194.02 110.37 194.47 C 109.09 192.50 107.82 190.53 106.51 188.58 C 107.05 188.87 107.59 189.17 108.13 189.47 Z" fill="#63363b" />
<path d="M 69.40 189.17 C 70.42 188.60 72.30 188.91 71.23 190.38 C 69.86 191.83 66.95 190.89 69.40 189.17 Z" fill="#7b7c90" />
<path d="M 100.25 193.51 C 101.38 192.80 104.23 195.59 103.53 196.73 C 102.35 197.43 99.53 194.71 100.25 193.51 Z" fill="#ae8581" />
<path d="M 112.40 193.15 C 113.24 193.86 114.07 194.57 114.91 195.29 C 115.54 196.28 116.28 196.51 117.11 195.98 C 116.41 196.63 115.72 197.30 115.05 197.98 C 114.09 197.30 113.16 196.59 112.22 195.90 C 113.11 197.60 114.04 199.28 114.94 200.97 C 111.42 200.53 107.98 199.78 104.55 198.92 C 106.39 197.31 108.36 195.86 110.37 194.47 C 111.04 194.02 111.71 193.58 112.40 193.15 Z" fill="#7e7980" />
<path d="M 143.43 193.66 C 141.91 195.12 140.46 196.69 139.01 198.22 C 137.88 197.82 136.76 197.42 135.63 197.02 C 138.17 195.66 140.70 194.56 143.43 193.66 Z" fill="#362733" />
<path d="M 120.70 193.87 C 120.53 194.62 120.35 195.37 120.16 196.11 C 118.51 196.96 116.93 197.80 115.05 197.98 C 115.72 197.30 116.41 196.63 117.11 195.98 C 118.28 195.23 119.49 194.55 120.70 193.87 Z" fill="#3f1d28" />
<path d="M 132.06 195.71 C 131.45 196.09 130.84 196.46 130.23 196.83 C 132.05 198.62 133.82 200.47 135.71 202.18 C 130.15 202.68 126.83 206.05 122.05 208.45 C 122.54 209.50 123.07 210.56 123.43 211.66 C 122.48 213.12 121.08 214.35 119.85 215.59 C 119.35 215.70 118.85 215.81 118.35 215.92 C 117.46 215.42 116.56 214.94 115.65 214.47 C 117.08 211.69 116.89 209.90 116.37 206.95 C 115.68 207.24 114.99 207.53 114.30 207.82 C 113.63 207.33 112.96 206.85 112.28 206.38 C 117.76 205.43 122.90 204.18 127.76 201.36 C 126.11 198.66 124.43 197.07 121.75 195.35 C 125.56 193.36 128.30 194.22 132.06 195.71 Z" fill="#cf9686" />
<path d="M 114.91 195.29 C 115.98 194.78 116.72 195.01 117.11 195.98 C 116.28 196.51 115.54 196.28 114.91 195.29 Z" fill="#f7bbbc" />
<path d="M 153.12 195.33 C 155.12 195.74 152.94 199.77 151.38 198.71 C 150.54 197.57 151.82 195.48 153.12 195.33 Z" fill="#ad7775" />
<path d="M 112.22 195.90 C 113.16 196.59 114.09 197.30 115.05 197.98 C 116.93 197.80 118.51 196.96 120.16 196.11 L 121.75 195.35 C 124.43 197.07 126.11 198.66 127.76 201.36 C 122.90 204.18 117.76 205.43 112.28 206.38 C 113.42 205.09 114.59 203.82 115.78 202.56 C 115.50 202.03 115.22 201.50 114.94 200.97 C 114.04 199.28 113.11 197.60 112.22 195.90 Z" fill="#e0cac6" />
<path d="M 69.08 197.29 C 74.98 199.72 80.45 202.90 85.99 206.03 C 89.03 207.81 92.32 208.48 95.71 209.29 C 97.62 209.59 98.55 211.26 99.92 212.51 C 96.01 212.64 92.19 212.78 88.37 211.77 C 84.69 210.74 80.47 211.53 77.00 210.07 C 73.88 208.37 72.13 204.07 70.34 201.14 C 71.59 201.28 72.83 201.42 74.08 201.57 C 72.39 200.17 70.71 198.76 69.08 197.29 Z" fill="#23243f" />
<path d="M 104.55 198.92 C 107.98 199.78 111.42 200.53 114.94 200.97 C 115.22 201.50 115.50 202.03 115.78 202.56 C 114.59 203.82 113.42 205.09 112.28 206.38 C 108.85 204.78 105.59 202.91 102.31 201.05 C 103.04 200.33 103.79 199.62 104.55 198.92 Z" fill="#1f233c" />
<path d="M 178.82 199.57 C 182.16 200.81 184.84 204.18 187.28 206.69 C 189.52 206.11 191.74 205.50 193.96 204.84 C 197.22 207.15 199.96 209.79 201.40 213.60 C 202.79 217.39 204.81 220.86 206.09 224.68 C 206.33 228.11 206.34 230.69 204.41 233.65 C 203.15 229.76 202.53 226.01 200.36 222.48 C 198.47 218.85 195.46 216.54 192.50 213.56 C 190.97 211.82 187.78 212.05 185.64 211.49 C 185.21 210.14 184.80 208.78 184.36 207.43 C 177.31 209.82 170.52 212.15 163.00 212.43 C 157.24 212.73 150.17 214.64 144.80 211.93 C 143.41 211.00 142.09 210.01 140.76 209.00 C 143.14 209.01 145.51 209.05 147.89 209.21 C 153.34 209.87 159.05 209.28 164.46 208.39 C 166.90 207.77 169.63 207.57 171.08 205.25 C 172.71 202.76 175.73 199.83 178.82 199.57 Z" fill="#20223f" />
<path d="M 66.70 199.34 C 67.43 200.00 68.16 200.66 68.88 201.33 C 68.28 203.90 67.93 206.57 67.10 209.08 C 62.99 211.72 59.33 214.51 56.68 218.71 C 55.01 221.81 54.38 225.48 52.97 228.72 C 52.24 229.97 51.44 231.18 50.60 232.36 C 50.18 227.57 51.08 223.28 52.76 218.82 C 55.32 213.55 56.59 208.69 60.25 204.27 C 62.13 202.15 63.84 200.09 66.70 199.34 Z" fill="#22223d" />
<path d="M 102.31 201.05 C 105.59 202.91 108.85 204.78 112.28 206.38 C 112.96 206.85 113.63 207.33 114.30 207.82 C 111.23 209.19 108.29 210.05 104.92 210.30 C 105.92 209.66 106.91 209.00 107.90 208.35 C 105.97 205.97 104.18 203.48 102.31 201.05 Z" fill="#cfb1a3" />
<path d="M 135.71 202.18 C 137.76 203.41 139.99 203.83 142.33 204.05 C 145.02 204.31 147.70 204.56 150.38 204.86 C 149.64 206.03 148.91 207.20 148.22 208.40 C 147.42 207.60 146.61 206.81 145.79 206.03 C 141.00 208.41 136.27 210.74 132.25 214.37 C 130.21 216.23 129.22 218.69 128.06 221.13 C 124.77 219.50 121.57 217.69 118.35 215.92 C 118.85 215.81 119.35 215.70 119.85 215.59 C 121.08 214.35 122.48 213.12 123.43 211.66 C 123.07 210.56 122.54 209.50 122.05 208.45 C 126.83 206.05 130.15 202.68 135.71 202.18 Z" fill="#dfcda6" />
<path d="M 145.79 206.03 C 146.61 206.81 147.42 207.60 148.22 208.40 L 147.89 209.21 C 145.51 209.05 143.14 209.01 140.76 209.00 C 142.09 210.01 143.41 211.00 144.80 211.93 C 139.41 214.85 134.09 219.99 128.06 221.13 C 129.22 218.69 130.21 216.23 132.25 214.37 C 136.27 210.74 141.00 208.41 145.79 206.03 Z" fill="#bb9e66" />
<path d="M 116.37 206.95 C 116.89 209.90 117.08 211.69 115.65 214.47 C 111.19 213.71 106.70 213.31 102.22 212.81 C 100.81 212.70 99.58 212.00 98.51 210.70 C 100.65 210.52 102.80 210.54 104.92 210.30 C 108.29 210.05 111.23 209.19 114.30 207.82 C 114.99 207.53 115.68 207.24 116.37 206.95 Z" fill="#1b1d38" />
<path d="M 228.49 218.09 C 228.68 218.73 228.87 219.37 229.06 220.00 C 227.32 222.20 225.65 224.45 223.80 226.57 L 223.01 224.55 C 222.81 223.46 222.61 222.38 222.42 221.30 C 222.21 219.63 222.08 217.97 221.96 216.30 C 224.13 216.91 226.31 217.52 228.49 218.09 Z" fill="#5b5c6f" />
<path d="M 229.06 220.00 C 229.62 221.96 230.22 223.96 230.48 225.99 C 229.20 229.25 227.14 232.22 225.81 235.49 C 225.42 232.43 225.01 229.43 223.80 226.57 C 225.65 224.45 227.32 222.20 229.06 220.00 Z" fill="#272541" />
</svg>