<?xml version="1.0" encoding="UTF-8" standalone="no"?>
<!DOCTYPE svg PUBLIC "-//W3C//DTD SVG 1.1//EN" "http://www.w3.org/Graphics/SVG/1.1/DTD/svg11.dtd">
<svg xmlns="http://www.w3.org/2000/svg" version="1.1" viewBox="0 0 256 256" width="256.0pt" height="256.0pt">
<path d="M 0.00 0.00 L 256.00 0.00 L 256.00 256.00 L 0.00 256.00 L 0.00 0.00 Z" fill="#fbfafa" />
<path d="M 119.78 21.74 C 128.89 21.71 137.75 23.12 146.84 23.23 C 156.74 28.04 165.85 22.94 175.27 29.81 C 178.01 32.19 187.01 33.17 183.85 38.08 C 180.87 37.54 178.19 37.47 175.18 37.78 C 167.21 35.33 159.16 34.80 151.10 31.94 C 145.35 26.21 132.94 26.15 125.18 24.64 C 122.03 24.32 119.06 22.42 116.13 24.03 C 99.36 23.16 85.45 29.69 70.82 36.87 C 63.48 41.54 56.17 48.14 52.20 56.09 C 54.88 49.19 42.99 52.57 38.81 50.14 C 34.00 47.18 27.97 41.20 28.99 35.02 C 30.21 30.36 35.08 24.33 40.16 28.71 C 26.27 27.57 30.03 45.09 39.43 48.58 C 45.28 50.36 40.20 45.57 45.14 44.20 C 51.14 42.14 48.68 36.68 45.90 32.99 C 51.13 33.10 52.30 39.99 51.23 44.06 C 50.34 48.05 57.02 48.13 57.53 44.43 C 60.07 38.31 66.22 39.78 69.23 33.67 C 79.99 36.50 68.54 31.01 76.85 28.83 C 81.46 27.80 93.69 19.49 96.04 24.63 C 105.66 16.07 108.25 24.70 119.78 21.74 Z" fill="#dad3d1" />
<path d="M 225.68 28.32 C 229.28 43.37 201.61 41.82 209.74 55.30 C 204.13 49.63 198.83 46.86 192.52 42.49 C 201.57 46.60 204.04 41.07 207.26 33.75 C 208.69 36.44 208.77 37.98 208.39 40.97 C 214.51 40.84 223.11 37.10 223.56 30.35 C 218.61 21.60 210.50 26.56 207.26 33.75 C 204.73 30.21 201.39 33.90 205.12 28.15 C 208.86 20.90 222.47 20.48 225.68 28.32 Z" fill="#dccbc8" />
<path d="M 125.18 24.64 C 132.94 26.15 145.35 26.21 151.10 31.94 C 145.37 30.45 135.16 25.79 131.06 29.02 C 123.22 30.06 112.52 25.34 105.97 30.94 C 106.60 39.42 97.77 40.55 96.12 49.13 C 92.75 57.17 81.89 62.16 83.20 73.74 C 85.66 75.46 87.33 80.51 82.82 79.22 C 77.71 75.70 80.52 83.06 81.68 85.26 C 76.42 80.26 70.48 70.79 77.19 64.38 C 76.88 59.82 79.23 52.06 73.52 50.36 C 72.94 49.02 72.96 47.40 72.77 45.97 C 80.65 36.90 92.41 30.11 104.30 28.18 C 108.05 26.76 113.30 26.96 116.13 24.03 C 119.06 22.42 122.03 24.32 125.18 24.64 Z" fill="#d2a683" />
<path d="M 116.13 24.03 C 113.30 26.96 108.05 26.76 104.30 28.18 C 92.41 30.11 80.65 36.90 72.77 45.97 C 65.90 54.74 59.54 63.81 61.43 75.32 C 61.30 80.41 61.96 96.07 70.33 88.36 C 76.10 85.66 69.95 82.41 67.55 85.57 C 63.36 91.00 64.40 77.68 68.04 78.97 C 74.80 77.34 76.05 87.50 73.65 91.63 C 68.19 94.88 55.61 96.57 50.85 99.88 C 46.45 102.15 47.17 103.51 46.55 108.07 C 44.10 102.45 48.63 101.66 39.83 102.01 L 38.78 102.00 C 33.92 100.43 23.64 96.48 29.09 90.09 C 32.02 81.81 41.71 84.08 43.53 75.40 C 43.73 72.51 48.34 71.94 46.83 69.42 C 45.93 65.22 50.94 60.08 52.20 56.09 C 56.17 48.14 63.48 41.54 70.82 36.87 C 85.45 29.69 99.36 23.16 116.13 24.03 Z" fill="#2f3046" />
<path d="M 223.56 30.35 C 223.11 37.10 214.51 40.84 208.39 40.97 C 208.77 37.98 208.69 36.44 207.26 33.75 C 210.50 26.56 218.61 21.60 223.56 30.35 Z" fill="#da6f65" />
<path d="M 151.10 31.94 C 159.16 34.80 167.21 35.33 175.18 37.78 C 175.57 38.48 175.96 39.17 176.36 39.87 C 173.10 40.64 168.62 45.56 165.86 42.14 C 163.69 40.70 155.89 34.41 158.56 41.44 C 158.78 45.46 163.70 41.42 164.65 45.23 C 165.59 48.86 167.85 50.09 170.55 52.26 C 170.72 56.00 167.29 57.32 167.24 60.98 C 163.55 58.47 160.00 55.48 156.10 53.34 C 147.33 58.30 142.45 49.49 135.97 59.69 C 130.09 55.08 123.33 69.16 132.79 69.30 C 145.20 68.67 155.63 79.47 151.67 91.93 C 145.98 88.14 145.59 79.01 137.42 75.56 C 131.63 73.57 127.32 71.41 123.27 66.63 C 120.56 67.57 105.46 66.81 108.75 60.92 C 114.89 57.36 123.15 58.34 128.02 53.84 C 124.20 42.21 100.79 41.21 98.15 54.84 C 96.31 60.99 105.49 64.92 99.36 68.38 C 93.37 68.70 91.27 78.58 92.36 83.61 C 96.51 86.44 93.76 88.04 96.12 91.86 C 86.47 94.70 90.50 87.23 81.68 85.26 C 80.52 83.06 77.71 75.70 82.82 79.22 C 87.33 80.51 85.66 75.46 83.20 73.74 C 81.89 62.16 92.75 57.17 96.12 49.13 C 97.77 40.55 106.60 39.42 105.97 30.94 C 112.52 25.34 123.22 30.06 131.06 29.02 C 135.16 25.79 145.37 30.45 151.10 31.94 Z" fill="#dc895e" />
<path d="M 40.16 28.71 C 42.15 30.01 43.96 31.60 45.90 32.99 C 48.68 36.68 51.14 42.14 45.14 44.20 C 40.20 45.57 45.28 50.36 39.43 48.58 C 30.03 45.09 26.27 27.57 40.16 28.71 Z" fill="#d97771" />
<path d="M 144.91 38.02 C 152.90 39.71 153.09 46.05 152.97 52.91 C 150.04 50.16 148.31 46.91 143.85 46.62 C 139.81 47.38 133.39 52.35 133.01 44.99 C 131.21 36.11 138.63 35.99 144.91 38.02 Z" fill="#ba2d16" />
<path d="M 183.85 38.08 C 186.66 39.71 189.56 41.14 192.52 42.49 C 198.83 46.86 204.13 49.63 209.74 55.30 C 210.72 58.99 212.68 61.90 215.05 64.83 C 211.63 68.63 215.95 69.69 216.23 73.92 C 220.04 82.29 223.26 95.50 221.34 104.25 C 217.10 91.68 209.62 81.07 203.68 69.40 C 200.35 66.43 199.57 60.38 195.10 59.55 C 193.50 56.71 191.58 54.62 189.13 52.50 C 186.87 47.46 181.51 41.94 176.36 39.87 C 175.96 39.17 175.57 38.48 175.18 37.78 C 178.19 37.47 180.87 37.54 183.85 38.08 Z" fill="#313045" />
<path d="M 165.86 42.14 C 168.62 45.56 173.10 40.64 176.36 39.87 C 181.51 41.94 186.87 47.46 189.13 52.50 C 185.82 53.13 188.12 57.58 188.00 59.85 C 185.89 57.88 184.43 54.47 181.05 55.07 C 181.76 59.10 187.93 63.08 186.21 67.31 C 181.53 71.06 173.70 59.08 170.03 65.99 C 172.97 71.96 180.65 76.05 187.19 72.72 C 189.28 72.88 191.03 77.85 191.57 79.74 C 192.12 82.71 197.40 82.22 196.95 85.54 C 186.93 84.47 183.29 88.74 175.84 93.93 C 182.81 99.06 176.76 98.55 179.46 104.82 C 174.76 106.52 168.93 112.47 164.34 108.67 C 161.92 105.93 154.66 113.23 160.16 113.72 C 167.46 114.14 181.17 123.76 180.01 131.72 C 174.66 128.48 168.09 127.13 162.00 125.91 C 165.70 122.27 155.60 112.08 152.69 113.70 C 144.75 121.54 141.30 111.35 133.31 115.06 C 134.94 122.18 139.58 130.88 138.47 138.38 C 137.69 138.93 136.91 139.48 136.14 140.04 C 128.83 141.14 122.73 134.17 115.96 131.66 C 117.15 121.49 108.61 118.04 109.11 108.21 C 118.23 106.26 123.52 111.18 130.93 114.96 C 130.35 107.63 121.60 104.66 120.61 96.69 C 113.27 98.34 116.21 93.00 110.04 92.86 C 106.97 92.91 105.68 88.74 103.31 87.06 C 101.35 90.58 101.54 92.24 96.87 92.38 L 96.12 91.86 C 93.76 88.04 96.51 86.44 92.36 83.61 C 91.27 78.58 93.37 68.70 99.36 68.38 C 105.49 64.92 96.31 60.99 98.15 54.84 C 100.92 63.11 100.45 61.46 108.75 60.92 C 105.46 66.81 120.56 67.57 123.27 66.63 C 127.32 71.41 131.63 73.57 137.42 75.56 C 145.59 79.01 145.98 88.14 151.67 91.93 C 155.63 79.47 145.20 68.67 132.79 69.30 C 123.33 69.16 130.09 55.08 135.97 59.69 C 142.45 49.49 147.33 58.30 156.10 53.34 C 160.00 55.48 163.55 58.47 167.24 60.98 C 167.29 57.32 170.72 56.00 170.55 52.26 C 167.85 50.09 165.59 48.86 164.65 45.23 C 163.70 41.42 158.78 45.46 158.56 41.44 C 155.89 34.41 163.69 40.70 165.86 42.14 Z" fill="#c24e3e" />
<path d="M 233.78 46.22 C 239.87 49.45 235.11 57.00 230.02 56.95 C 224.26 56.55 220.18 60.47 214.59 60.40 C 215.02 61.97 215.53 63.51 215.96 65.07 L 215.05 64.83 C 212.68 61.90 210.72 58.99 209.74 55.30 C 213.58 59.96 214.46 45.47 219.14 45.26 C 224.03 44.93 229.80 42.24 233.78 46.22 Z" fill="#ded5d2" />
<path d="M 128.02 53.84 C 123.15 58.34 114.89 57.36 108.75 60.92 C 100.45 61.46 100.92 63.11 98.15 54.84 C 100.79 41.21 124.20 42.21 128.02 53.84 Z" fill="#bb2a13" />
<path d="M 72.77 45.97 C 72.96 47.40 72.94 49.02 73.52 50.36 C 79.23 52.06 76.88 59.82 77.19 64.38 C 70.48 70.79 76.42 80.26 81.68 85.26 C 90.50 87.23 86.47 94.70 96.12 91.86 L 96.87 92.38 C 100.66 96.47 107.84 94.62 106.93 100.85 C 103.98 106.69 92.82 117.29 101.50 122.32 C 102.31 121.87 103.12 121.41 103.93 120.95 C 101.54 124.64 107.05 128.11 108.47 131.46 C 110.85 136.64 114.60 139.33 119.30 142.24 C 109.98 145.63 108.77 139.75 101.77 137.18 C 98.84 135.91 100.43 141.42 100.02 142.98 C 96.65 129.90 89.34 123.19 79.03 114.48 C 81.12 106.46 64.04 109.80 64.82 100.54 C 66.05 94.80 59.30 103.85 58.21 104.91 C 56.90 100.27 56.17 97.98 50.85 99.88 C 55.61 96.57 68.19 94.88 73.65 91.63 C 76.05 87.50 74.80 77.34 68.04 78.97 C 64.40 77.68 63.36 91.00 67.55 85.57 C 69.95 82.41 76.10 85.66 70.33 88.36 C 61.96 96.07 61.30 80.41 61.43 75.32 C 59.54 63.81 65.90 54.74 72.77 45.97 Z" fill="#80709e" />
<path d="M 225.25 46.54 C 236.40 48.90 221.60 61.11 217.31 55.63 C 214.61 50.73 220.49 45.97 225.25 46.54 Z" fill="#da8475" />
<path d="M 189.13 52.50 C 191.58 54.62 193.50 56.71 195.10 59.55 C 186.84 66.48 199.41 64.17 199.72 72.28 C 203.54 75.59 194.91 79.96 199.41 82.57 C 202.71 84.89 207.96 87.33 205.30 92.28 C 203.34 93.80 200.79 94.55 198.71 95.94 C 193.13 95.08 188.05 97.59 182.27 96.50 C 179.87 96.87 181.82 102.37 181.81 104.07 C 182.71 109.02 172.31 107.53 174.18 112.81 C 175.02 121.20 182.65 120.43 182.08 129.99 C 183.69 137.98 174.77 135.77 169.94 135.31 C 161.99 135.37 157.69 129.30 149.98 127.79 C 151.66 123.43 158.47 126.40 162.00 125.91 C 168.09 127.13 174.66 128.48 180.01 131.72 C 181.17 123.76 167.46 114.14 160.16 113.72 C 154.66 113.23 161.92 105.93 164.34 108.67 C 168.93 112.47 174.76 106.52 179.46 104.82 C 176.76 98.55 182.81 99.06 175.84 93.93 C 183.29 88.74 186.93 84.47 196.95 85.54 C 197.40 82.22 192.12 82.71 191.57 79.74 C 191.03 77.85 189.28 72.88 187.19 72.72 C 180.65 76.05 172.97 71.96 170.03 65.99 C 173.70 59.08 181.53 71.06 186.21 67.31 C 187.93 63.08 181.76 59.10 181.05 55.07 C 184.43 54.47 185.89 57.88 188.00 59.85 C 188.12 57.58 185.82 53.13 189.13 52.50 Z" fill="#ca8681" />
<path d="M 27.32 54.30 C 31.92 52.28 36.59 57.57 38.88 60.96 C 38.40 65.90 31.20 69.53 27.33 65.65 C 24.19 63.67 22.32 55.47 27.32 54.30 Z" fill="#db7f7a" />
<path d="M 195.10 59.55 C 199.57 60.38 200.35 66.43 203.68 69.40 C 209.62 81.07 217.10 91.68 221.34 104.25 C 221.74 108.73 224.18 112.00 223.37 116.63 C 225.78 120.96 224.80 112.03 225.37 110.77 C 226.28 118.85 227.51 126.93 228.37 134.99 C 229.73 147.44 224.79 160.64 220.21 172.11 C 218.35 173.92 215.32 177.48 216.02 172.03 C 222.74 159.03 226.48 144.80 224.79 129.97 C 220.26 133.99 220.69 145.44 213.69 143.66 C 212.70 146.99 213.34 149.09 209.62 150.59 C 210.54 156.11 206.54 159.04 209.41 164.32 C 209.26 168.05 197.92 169.48 200.68 163.66 C 203.28 160.02 203.55 153.91 202.27 149.80 C 200.99 145.86 198.80 142.49 196.28 139.25 C 198.45 133.94 202.51 140.56 204.29 142.67 C 207.52 140.30 212.51 137.06 216.27 136.44 C 223.98 136.01 217.92 127.37 212.00 129.01 C 204.61 129.78 212.44 126.71 209.41 122.61 C 207.99 119.71 202.67 116.45 203.28 122.28 C 200.41 124.85 198.91 112.75 200.43 111.46 C 203.20 107.80 200.58 99.80 198.71 95.94 C 200.79 94.55 203.34 93.80 205.30 92.28 C 207.96 87.33 202.71 84.89 199.41 82.57 C 194.91 79.96 203.54 75.59 199.72 72.28 C 199.41 64.17 186.84 66.48 195.10 59.55 Z" fill="#b6a6b4" />
<path d="M 159.05 60.98 C 166.87 62.48 174.37 73.41 170.24 81.29 C 167.18 85.12 160.35 84.54 156.39 82.59 C 151.66 75.00 166.21 81.57 168.47 74.99 C 165.80 69.23 163.36 65.60 159.05 60.98 Z" fill="#f2a184" />
<path d="M 215.05 64.83 L 215.96 65.07 C 223.08 78.81 222.02 95.31 225.37 110.77 C 224.80 112.03 225.78 120.96 223.37 116.63 C 224.18 112.00 221.74 108.73 221.34 104.25 C 223.26 95.50 220.04 82.29 216.23 73.92 C 215.95 69.69 211.63 68.63 215.05 64.83 Z" fill="#7a7b81" />
<path d="M 56.82 72.96 C 55.95 76.64 54.76 78.60 56.92 82.12 C 57.55 89.39 49.84 88.82 44.81 89.53 C 47.52 86.42 48.71 80.21 53.22 80.45 C 53.39 77.16 54.66 75.33 56.82 72.96 Z" fill="#827868" />
<path d="M 120.81 84.54 C 114.51 79.68 108.64 86.00 103.79 82.02 C 104.91 79.50 109.40 80.14 111.67 78.89 C 117.49 69.09 123.79 75.72 120.81 84.54 Z" fill="#f6a27d" />
<path d="M 103.31 87.06 C 105.68 88.74 106.97 92.91 110.04 92.86 C 116.21 93.00 113.27 98.34 120.61 96.69 C 121.60 104.66 130.35 107.63 130.93 114.96 C 123.52 111.18 118.23 106.26 109.11 108.21 C 108.61 118.04 117.15 121.49 115.96 131.66 C 111.63 129.20 109.29 119.73 103.93 120.95 C 103.12 121.41 102.31 121.87 101.50 122.32 C 92.82 117.29 103.98 106.69 106.93 100.85 C 107.84 94.62 100.66 96.47 96.87 92.38 C 101.54 92.24 101.35 90.58 103.31 87.06 Z" fill="#794647" />
<path d="M 128.05 89.07 C 133.11 90.26 137.92 92.93 142.52 95.30 C 146.83 96.58 148.20 95.95 145.71 100.74 C 139.26 102.70 127.59 96.41 128.05 89.07 Z" fill="#f19e7f" />
<path d="M 198.71 95.94 C 200.58 99.80 203.20 107.80 200.43 111.46 C 198.91 112.75 200.41 124.85 203.28 122.28 C 202.67 116.45 207.99 119.71 209.41 122.61 C 212.44 126.71 204.61 129.78 212.00 129.01 C 217.92 127.37 223.98 136.01 216.27 136.44 C 212.51 137.06 207.52 140.30 204.29 142.67 C 202.51 140.56 198.45 133.94 196.28 139.25 C 194.88 137.84 193.52 136.39 192.06 135.05 C 191.56 140.04 193.19 144.44 193.90 149.27 C 187.35 149.34 189.85 153.74 193.76 155.95 C 190.15 156.19 197.04 162.99 191.62 164.50 C 183.79 164.34 188.63 171.64 185.91 176.75 C 184.30 182.53 181.74 191.73 190.87 191.89 C 196.21 188.78 194.63 192.99 196.61 196.33 C 197.23 197.85 197.94 199.32 198.65 200.80 C 197.92 201.56 197.19 202.33 196.48 203.10 C 193.59 200.36 193.26 191.26 192.88 200.81 C 186.31 203.09 173.86 196.30 171.16 188.89 C 174.80 189.76 183.06 199.90 186.15 194.05 C 181.20 188.63 172.70 186.49 165.85 184.22 C 163.15 183.26 164.71 185.97 164.41 187.52 C 162.71 186.46 161.60 185.07 160.46 183.45 C 162.81 174.67 175.30 185.38 179.98 186.73 C 181.89 180.28 185.46 177.28 183.78 169.89 C 182.40 171.42 181.78 173.24 180.96 175.07 C 183.03 167.78 181.02 161.24 180.27 153.93 C 180.76 149.18 175.18 144.95 170.98 144.08 C 157.19 137.57 148.36 145.20 136.01 150.03 C 125.22 155.15 119.95 150.98 110.25 146.76 C 107.05 143.77 103.78 141.19 101.77 137.18 C 108.77 139.75 109.98 145.63 119.30 142.24 C 127.95 141.26 129.15 150.79 135.32 144.30 C 136.98 142.69 136.86 142.12 136.14 140.04 C 136.91 139.48 137.69 138.93 138.47 138.38 C 143.61 134.76 142.46 130.50 149.98 127.79 C 157.69 129.30 161.99 135.37 169.94 135.31 C 174.77 135.77 183.69 137.98 182.08 129.99 C 182.65 120.43 175.02 121.20 174.18 112.81 C 172.31 107.53 182.71 109.02 181.81 104.07 C 181.82 102.37 179.87 96.87 182.27 96.50 C 188.05 97.59 193.13 95.08 198.71 95.94 Z" fill="#a691a5" />
<path d="M 64.82 100.54 C 64.04 109.80 81.12 106.46 79.03 114.48 C 75.72 114.16 73.73 113.07 71.05 111.30 C 66.43 112.71 66.40 117.76 61.35 115.12 C 61.04 116.62 60.84 124.14 58.46 122.69 C 55.75 115.46 55.17 127.47 49.93 125.90 C 44.75 126.58 54.14 123.63 51.40 121.65 C 51.38 118.39 42.59 121.01 46.06 118.06 C 50.84 114.27 54.05 109.30 58.21 104.91 C 59.30 103.85 66.05 94.80 64.82 100.54 Z" fill="#3a3b51" />
<path d="M 38.78 102.00 L 39.83 102.01 C 42.72 103.73 43.04 107.53 39.99 109.24 C 38.15 107.02 37.91 104.68 38.78 102.00 Z" fill="#7f7f81" />
<path d="M 162.00 125.91 C 158.47 126.40 151.66 123.43 149.98 127.79 C 142.46 130.50 143.61 134.76 138.47 138.38 C 139.58 130.88 134.94 122.18 133.31 115.06 C 141.30 111.35 144.75 121.54 152.69 113.70 C 155.60 112.08 165.70 122.27 162.00 125.91 Z" fill="#8e6767" />
<path d="M 103.93 120.95 C 109.29 119.73 111.63 129.20 115.96 131.66 C 122.73 134.17 128.83 141.14 136.14 140.04 C 136.86 142.12 136.98 142.69 135.32 144.30 C 129.15 150.79 127.95 141.26 119.30 142.24 C 114.60 139.33 110.85 136.64 108.47 131.46 C 107.05 128.11 101.54 124.64 103.93 120.95 Z" fill="#e2a992" />
<path d="M 224.79 129.97 C 226.48 144.80 222.74 159.03 216.02 172.03 C 215.32 177.48 218.35 173.92 220.21 172.11 C 217.61 179.72 211.86 186.66 206.47 192.52 C 205.45 188.99 201.88 191.05 200.81 188.26 C 200.67 182.49 186.67 184.44 188.11 189.91 C 194.62 188.56 198.07 187.39 196.61 196.33 C 194.63 192.99 196.21 188.78 190.87 191.89 C 181.74 191.73 184.30 182.53 185.91 176.75 C 188.63 171.64 183.79 164.34 191.62 164.50 C 197.04 162.99 190.15 156.19 193.76 155.95 C 199.09 160.62 201.50 154.50 202.27 149.80 C 203.55 153.91 203.28 160.02 200.68 163.66 C 197.92 169.48 209.26 168.05 209.41 164.32 C 206.54 159.04 210.54 156.11 209.62 150.59 C 213.34 149.09 212.70 146.99 213.69 143.66 C 220.69 145.44 220.26 133.99 224.79 129.97 Z" fill="#cfc3ca" />
<path d="M 192.06 135.05 C 193.52 136.39 194.88 137.84 196.28 139.25 C 198.80 142.49 200.99 145.86 202.27 149.80 C 201.50 154.50 199.09 160.62 193.76 155.95 C 189.85 153.74 187.35 149.34 193.90 149.27 C 193.19 144.44 191.56 140.04 192.06 135.05 Z" fill="#be434a" />
<path d="M 101.77 137.18 C 103.78 141.19 107.05 143.77 110.25 146.76 C 111.65 149.59 111.68 152.43 114.93 153.78 C 112.82 156.50 113.03 164.32 108.15 162.91 C 101.01 161.22 99.91 153.16 98.08 147.21 C 99.59 145.42 101.95 145.62 100.02 142.98 C 100.43 141.42 98.84 135.91 101.77 137.18 Z" fill="#bf444a" />
<path d="M 170.98 144.08 C 170.79 144.75 170.60 145.41 170.42 146.07 C 155.22 139.15 145.70 148.74 133.90 156.31 C 130.16 155.81 127.99 155.64 124.88 158.01 C 121.40 156.94 118.21 155.32 114.93 153.78 C 111.68 152.43 111.65 149.59 110.25 146.76 C 119.95 150.98 125.22 155.15 136.01 150.03 C 148.36 145.20 157.19 137.57 170.98 144.08 Z" fill="#554a5c" />
<path d="M 170.42 146.07 C 170.32 147.88 171.53 148.85 168.97 149.09 C 163.01 146.64 155.99 153.30 152.01 148.45 C 148.14 149.75 141.24 160.18 150.41 153.55 C 155.48 158.13 164.51 153.63 165.90 162.05 C 166.14 167.28 170.34 166.21 172.97 169.66 C 168.06 171.15 163.11 171.09 158.04 171.03 C 140.31 171.29 123.97 173.19 106.26 170.45 C 104.38 169.44 102.54 168.37 100.72 167.26 C 105.31 166.59 108.85 168.51 113.11 169.56 C 118.74 169.44 124.20 168.60 129.84 169.49 C 129.32 167.91 128.72 166.37 128.26 164.77 C 132.23 169.73 139.62 170.22 141.03 162.97 C 141.99 157.43 137.60 158.00 133.90 156.31 C 145.70 148.74 155.22 139.15 170.42 146.07 Z" fill="#e8e5e6" />
<path d="M 170.98 144.08 C 175.18 144.95 180.76 149.18 180.27 153.93 C 181.02 161.24 183.03 167.78 180.96 175.07 C 180.03 179.90 174.19 177.65 170.80 177.34 C 157.55 174.36 145.87 176.56 133.02 180.07 C 127.78 180.88 126.79 178.39 123.34 175.46 C 114.72 185.95 102.22 173.13 92.88 182.82 C 95.69 185.21 98.82 186.99 100.99 190.01 C 94.85 189.36 93.22 182.71 86.14 184.37 C 85.18 189.02 99.66 202.45 92.94 206.54 C 89.85 209.55 95.15 218.40 95.11 221.36 C 89.52 223.71 86.54 209.95 83.20 206.78 C 79.65 197.02 76.24 188.49 70.89 179.25 C 63.62 168.42 66.96 158.97 66.12 147.10 C 73.16 146.02 73.08 157.51 79.98 160.03 C 69.74 156.32 79.67 165.44 82.65 167.31 C 90.05 169.77 98.59 169.71 106.26 170.45 C 123.97 173.19 140.31 171.29 158.04 171.03 C 155.02 173.60 156.58 172.73 159.36 173.60 C 165.50 173.68 176.40 176.52 179.61 169.63 C 181.98 159.85 177.35 153.43 168.97 149.09 C 171.53 148.85 170.32 147.88 170.42 146.07 C 170.60 145.41 170.79 144.75 170.98 144.08 Z" fill="#848099" />
<path d="M 152.01 148.45 C 155.99 153.30 163.01 146.64 168.97 149.09 C 177.35 153.43 181.98 159.85 179.61 169.63 C 176.40 176.52 165.50 173.68 159.36 173.60 C 156.58 172.73 155.02 173.60 158.04 171.03 C 163.11 171.09 168.06 171.15 172.97 169.66 C 170.34 166.21 166.14 167.28 165.90 162.05 C 164.51 153.63 155.48 158.13 150.41 153.55 C 141.24 160.18 148.14 149.75 152.01 148.45 Z" fill="#5e566a" />
<path d="M 133.90 156.31 C 137.60 158.00 141.99 157.43 141.03 162.97 C 139.62 170.22 132.23 169.73 128.26 164.77 C 127.47 162.15 127.17 159.81 124.88 158.01 C 127.99 155.64 130.16 155.81 133.90 156.31 Z" fill="#c04f56" />
<path d="M 79.98 160.03 C 86.93 162.38 93.51 166.54 100.72 167.26 C 102.54 168.37 104.38 169.44 106.26 170.45 C 98.59 169.71 90.05 169.77 82.65 167.31 C 79.67 165.44 69.74 156.32 79.98 160.03 Z" fill="#464965" />
<path d="M 32.04 162.27 C 33.09 163.11 34.11 163.98 35.16 164.82 C 36.51 169.28 36.90 172.41 36.12 177.02 C 35.39 181.48 40.81 184.55 37.85 188.57 C 31.40 180.63 31.63 171.96 32.04 162.27 Z" fill="#54556b" />
<path d="M 43.99 164.01 C 47.29 164.82 46.92 167.42 47.90 170.07 C 47.57 176.82 52.26 176.49 51.50 184.63 C 52.10 188.53 51.63 189.26 47.62 188.55 C 39.46 189.52 42.31 178.57 41.33 172.99 C 42.46 170.69 41.02 164.60 43.99 164.01 Z" fill="#bb454b" />
<path d="M 35.16 164.82 C 39.03 166.25 39.25 169.76 41.33 172.99 C 42.31 178.57 39.46 189.52 47.62 188.55 C 51.63 189.26 52.10 188.53 51.50 184.63 C 52.26 176.49 47.57 176.82 47.90 170.07 C 48.75 173.34 50.50 176.42 54.12 176.00 C 59.53 168.86 58.04 182.91 56.71 184.71 C 52.52 186.57 52.67 192.28 56.87 192.15 C 55.68 197.01 54.81 200.65 60.12 203.13 C 59.49 212.20 71.45 217.20 78.34 220.42 C 86.01 219.47 89.57 225.68 96.39 223.71 C 97.89 223.92 97.21 225.84 97.56 226.94 C 105.13 223.02 112.08 226.27 120.40 224.47 C 129.46 222.18 140.20 221.08 148.15 216.06 C 150.64 214.86 146.84 213.11 146.01 211.92 C 151.25 215.23 155.58 216.24 161.27 218.81 C 165.70 222.45 168.81 217.12 173.07 221.83 C 169.29 221.92 165.72 222.00 162.08 223.15 C 137.61 229.87 116.47 237.14 90.76 229.47 C 66.43 224.37 52.38 206.18 37.85 188.57 C 40.81 184.55 35.39 181.48 36.12 177.02 C 36.90 172.41 36.51 169.28 35.16 164.82 Z" fill="#b09baa" />
<path d="M 183.78 169.89 C 185.46 177.28 181.89 180.28 179.98 186.73 C 175.30 185.38 162.81 174.67 160.46 183.45 C 155.54 190.62 171.70 201.86 175.59 206.22 C 175.27 209.55 166.77 211.13 163.84 211.78 C 155.40 213.33 146.78 205.78 138.15 205.88 C 140.70 208.16 142.85 210.48 146.01 211.92 C 146.84 213.11 150.64 214.86 148.15 216.06 C 140.20 221.08 129.46 222.18 120.40 224.47 C 112.08 226.27 105.13 223.02 97.56 226.94 C 97.21 225.84 97.89 223.92 96.39 223.71 C 89.57 225.68 86.01 219.47 78.34 220.42 C 71.45 217.20 59.49 212.20 60.12 203.13 C 71.18 203.25 67.13 199.55 65.61 192.28 C 73.06 184.12 71.44 201.57 68.67 203.67 C 64.59 210.56 76.98 215.95 82.24 215.54 C 88.04 215.21 81.57 210.34 83.20 206.78 C 86.54 209.95 89.52 223.71 95.11 221.36 C 95.15 218.40 89.85 209.55 92.94 206.54 C 98.83 208.40 93.42 200.43 98.41 202.59 C 109.48 209.10 122.46 212.72 134.89 216.03 C 130.65 209.52 116.84 202.09 117.06 191.13 C 119.76 185.63 127.10 181.37 133.02 180.07 C 145.87 176.56 157.55 174.36 170.80 177.34 C 174.19 177.65 180.03 179.90 180.96 175.07 C 181.78 173.24 182.40 171.42 183.78 169.89 Z" fill="#efecec" />
<path d="M 123.34 175.46 C 126.79 178.39 127.78 180.88 133.02 180.07 C 127.10 181.37 119.76 185.63 117.06 191.13 C 116.84 202.09 130.65 209.52 134.89 216.03 C 122.46 212.72 109.48 209.10 98.41 202.59 C 93.42 200.43 98.83 208.40 92.94 206.54 C 99.66 202.45 85.18 189.02 86.14 184.37 C 93.22 182.71 94.85 189.36 100.99 190.01 C 98.82 186.99 95.69 185.21 92.88 182.82 C 102.22 173.13 114.72 185.95 123.34 175.46 Z" fill="#a79b9a" />
<path d="M 65.61 192.28 C 67.13 199.55 71.18 203.25 60.12 203.13 C 54.81 200.65 55.68 197.01 56.87 192.15 C 57.53 190.19 58.17 188.11 59.17 186.29 C 63.97 180.82 65.98 188.10 65.61 192.28 Z" fill="#eb4946" />
<path d="M 160.46 183.45 C 161.60 185.07 162.71 186.46 164.41 187.52 C 170.50 200.63 182.80 208.40 196.65 210.67 C 204.43 208.94 198.43 207.17 196.48 203.10 C 197.19 202.33 197.92 201.56 198.65 200.80 C 201.09 206.35 208.03 210.22 213.09 213.10 C 207.48 217.94 193.93 216.05 187.10 214.02 C 186.92 220.71 194.23 218.23 192.91 224.84 C 187.30 227.69 183.37 218.27 180.39 221.87 C 183.07 228.80 175.06 224.61 173.07 221.83 C 168.81 217.12 165.70 222.45 161.27 218.81 C 155.58 216.24 151.25 215.23 146.01 211.92 C 142.85 210.48 140.70 208.16 138.15 205.88 C 146.78 205.78 155.40 213.33 163.84 211.78 C 166.77 211.13 175.27 209.55 175.59 206.22 C 171.70 201.86 155.54 190.62 160.46 183.45 Z" fill="#3e3f4e" />
<path d="M 165.85 184.22 C 172.70 186.49 181.20 188.63 186.15 194.05 C 183.06 199.90 174.80 189.76 171.16 188.89 C 173.86 196.30 186.31 203.09 192.88 200.81 C 193.26 191.26 193.59 200.36 196.48 203.10 C 198.43 207.17 204.43 208.94 196.65 210.67 C 182.80 208.40 170.50 200.63 164.41 187.52 C 164.71 185.97 163.15 183.26 165.85 184.22 Z" fill="#dedddd" />
<path d="M 219.58 197.50 C 224.90 199.29 230.23 199.81 229.93 206.87 C 228.66 212.14 215.90 215.27 215.27 207.68 C 210.97 204.03 210.24 202.90 216.70 203.68 C 221.85 202.15 214.26 195.21 219.58 197.50 Z" fill="#dc8781" />
<path d="M 30.44 203.48 C 36.11 204.16 45.64 203.57 38.60 211.50 C 36.02 216.13 36.32 220.79 29.35 218.65 C 23.01 213.89 24.17 207.63 30.44 203.48 Z" fill="#e59089" />
<path d="M 51.90 211.10 C 51.63 213.89 50.61 217.06 51.16 219.83 C 59.44 227.44 42.62 236.45 39.30 226.67 C 37.13 221.50 48.02 213.60 51.90 211.10 Z" fill="#e18a80" />
<path d="M 206.34 218.27 C 209.26 217.46 220.92 222.14 220.08 225.98 C 222.37 240.07 198.94 225.94 206.34 218.27 Z" fill="#df8c73" />
</svg>