<?xml version="1.0" encoding="UTF-8" standalone="no"?>
<!DOCTYPE svg PUBLIC "-//W3C//DTD SVG 1.1//EN" "http://www.w3.org/Graphics/SVG/1.1/DTD/svg11.dtd">
<svg xmlns="http://www.w3.org/2000/svg" version="1.1" viewBox="0 0 256 256" width="256.0pt" height="256.0pt">
<path d="M 0.00 0.00 L 256.00 0.00 L 256.00 256.00 L 0.00 256.00 L 0.00 0.00 Z" fill="#fefefe" />
<path d="M 182.97 16.96 C 190.64 16.96 198.32 17.09 206.00 16.95 C 210.04 16.96 213.70 16.62 217.42 18.55 C 223.07 21.25 226.76 26.10 229.30 31.69 C 234.02 41.58 234.30 53.26 233.95 64.00 C 233.72 70.85 235.26 77.24 235.99 84.00 C 237.18 93.74 239.48 103.26 242.38 112.63 C 244.54 118.98 246.63 125.49 247.78 132.10 C 248.95 147.31 247.29 162.44 241.62 176.67 C 239.66 180.95 237.45 185.13 235.30 189.32 C 233.33 193.11 230.09 197.50 230.26 201.91 C 230.97 207.73 236.44 211.02 239.33 215.66 C 242.27 220.51 244.30 226.79 242.35 232.37 C 239.83 238.56 233.54 243.13 226.92 243.85 C 216.27 244.60 205.68 243.90 195.49 240.56 C 189.58 238.59 184.62 235.73 178.38 234.64 C 171.59 233.34 164.20 234.80 157.63 236.62 C 150.48 238.60 144.44 242.71 137.28 244.33 C 132.02 245.54 126.95 246.47 121.56 245.46 C 113.15 243.91 104.70 243.16 96.18 242.64 C 86.88 241.84 77.37 236.82 68.90 233.13 C 65.38 231.74 61.70 231.20 58.39 233.43 C 52.50 237.20 47.36 241.23 39.90 240.70 C 31.75 240.30 25.30 235.88 19.76 230.24 C 13.54 223.28 10.73 213.21 10.95 204.01 C 11.00 198.49 10.71 193.06 11.59 187.58 C 12.45 182.51 10.92 178.09 10.95 173.02 C 11.22 158.66 10.04 145.59 13.34 131.38 C 15.16 124.63 18.51 117.91 17.43 110.75 C 16.31 98.82 11.42 88.51 15.27 76.31 C 17.85 69.02 23.50 65.62 29.61 61.61 C 38.41 56.40 44.42 48.51 53.62 43.61 C 61.26 39.96 69.99 38.71 77.99 42.06 C 85.77 44.93 91.34 50.19 97.29 55.71 C 102.65 60.85 106.96 66.73 111.84 72.18 C 114.44 75.04 117.82 76.87 121.77 75.87 C 128.86 72.44 130.25 65.25 132.42 58.42 C 135.22 49.72 139.11 40.23 145.70 33.70 C 148.19 31.14 150.73 28.68 153.78 26.79 C 162.91 21.50 172.21 17.23 182.97 16.96 Z" fill="#f4f4f3" />
<path d="M 214.73 24.68 C 214.19 27.54 213.58 29.44 211.31 31.36 C 211.89 28.58 212.62 26.66 214.73 24.68 Z" fill="#aca8b2" />
<path d="M 179.47 27.27 C 182.29 28.57 184.21 29.16 187.33 28.60 C 185.98 30.17 184.63 31.73 183.40 33.40 C 186.48 34.28 188.38 32.62 191.01 31.38 L 192.11 31.82 C 191.03 32.96 189.95 34.09 188.84 35.20 C 185.95 37.38 183.82 38.50 180.15 37.40 C 180.73 36.20 181.31 35.01 181.87 33.81 C 182.55 32.47 182.28 31.45 181.05 30.74 L 179.53 29.82 C 179.50 28.97 179.48 28.12 179.47 27.27 Z" fill="#321b2a" />
<path d="M 194.34 27.11 C 198.14 27.18 194.12 30.81 192.31 29.63 C 191.84 28.58 193.48 27.36 194.34 27.11 Z" fill="#948f9a" />
<path d="M 209.47 26.88 C 210.17 28.63 210.59 30.45 211.06 32.27 C 211.70 35.28 211.64 38.30 211.93 41.34 C 205.06 47.06 202.34 54.60 198.15 62.18 C 194.48 69.19 193.36 78.83 187.76 84.52 C 185.31 84.55 183.66 84.58 181.59 83.16 L 181.33 83.03 C 178.68 84.86 176.02 86.65 173.32 88.40 C 171.92 89.45 170.26 90.33 169.93 92.20 C 168.80 97.07 167.86 101.91 168.01 106.94 C 166.90 107.52 165.80 108.11 164.69 108.70 C 164.71 109.39 164.73 110.09 164.74 110.79 C 163.42 111.41 161.84 111.82 160.71 112.76 C 159.27 114.32 158.26 116.32 157.05 118.06 C 156.15 118.57 155.15 118.89 154.06 119.02 C 151.34 119.30 148.63 119.64 145.91 119.85 C 148.19 115.05 151.62 110.98 153.85 106.18 C 155.93 101.39 158.17 96.73 161.31 92.53 C 162.14 91.40 162.99 90.28 163.82 89.15 C 162.74 89.29 161.66 89.43 160.58 89.56 C 163.79 85.23 168.23 82.79 171.99 79.04 C 175.24 76.20 178.55 73.63 180.97 69.97 C 184.33 64.99 188.96 61.37 192.66 56.65 C 196.09 52.17 200.14 48.52 202.55 43.33 C 204.54 40.42 206.04 37.47 207.02 34.07 C 206.05 33.62 205.07 33.19 204.08 32.79 C 203.45 31.82 202.81 30.84 202.18 29.86 C 203.76 30.43 205.34 31.00 206.92 31.58 C 207.74 29.99 208.59 28.42 209.47 26.88 Z" fill="#f5f4ea" />
<path d="M 217.52 29.00 C 218.35 32.72 219.34 36.06 217.66 39.71 C 218.83 40.39 220.01 41.07 221.18 41.77 C 220.31 42.28 219.45 42.80 218.59 43.33 C 218.32 46.14 217.14 49.40 217.68 52.17 C 218.79 54.71 220.22 53.51 222.30 53.27 C 223.41 57.87 220.43 62.83 221.37 67.57 C 222.01 70.82 222.43 74.20 223.53 77.33 C 224.12 79.04 225.33 80.52 225.79 82.25 C 226.02 85.17 225.54 88.03 226.11 90.81 C 226.86 94.98 227.93 99.10 228.81 103.24 C 229.66 106.84 229.95 110.29 231.20 113.79 C 232.41 117.14 234.00 120.72 234.62 124.24 C 234.90 126.43 235.00 128.62 235.46 130.78 C 233.40 131.13 231.35 131.47 229.30 131.82 C 232.60 135.62 233.02 140.90 236.73 144.16 C 236.74 147.92 236.48 151.43 235.21 155.00 C 233.29 160.97 234.17 166.84 231.39 172.32 C 228.68 178.03 226.70 184.13 223.65 189.65 C 222.26 192.39 219.81 193.49 217.82 195.73 C 216.90 197.52 216.58 199.78 215.38 201.38 C 213.11 203.31 210.52 204.61 208.67 207.02 C 206.47 204.65 204.03 202.52 201.82 200.17 C 199.42 197.76 198.53 193.86 196.95 190.81 C 196.60 192.11 196.09 193.20 196.47 194.56 C 197.54 199.21 199.98 202.82 202.54 206.73 C 203.18 209.37 204.09 211.26 205.91 213.33 C 206.55 214.02 207.20 214.70 207.86 215.38 C 207.51 216.83 207.21 218.30 206.91 219.76 C 206.09 219.56 205.26 219.36 204.44 219.16 C 204.65 218.08 204.86 217.00 205.08 215.93 C 203.16 213.94 201.29 211.91 199.51 209.79 C 198.78 206.54 197.72 203.50 196.31 200.49 C 195.20 197.77 194.36 194.98 193.80 192.10 C 193.68 189.88 194.34 188.27 195.37 186.38 C 194.14 186.02 192.93 185.64 191.70 185.30 C 190.81 185.70 189.95 186.16 189.10 186.65 C 184.72 189.57 180.70 192.62 178.40 197.51 C 175.48 195.75 174.07 194.09 172.48 191.14 C 172.49 192.08 172.49 193.02 172.48 193.96 C 171.86 194.03 171.26 194.19 170.71 194.44 C 168.80 191.94 167.15 192.70 164.38 192.80 C 164.43 191.62 164.48 190.44 164.53 189.25 C 159.49 188.36 155.47 186.16 150.53 188.64 C 149.77 188.92 149.02 189.21 148.27 189.49 C 147.74 188.97 147.21 188.45 146.68 187.93 C 146.91 187.29 147.14 186.66 147.38 186.02 C 146.97 185.58 146.56 185.14 146.15 184.70 C 145.28 183.78 144.41 182.87 143.55 181.95 C 150.88 178.07 158.64 183.04 166.06 183.85 C 177.48 184.80 190.16 183.41 199.92 176.92 C 202.66 175.23 204.37 172.80 206.46 170.44 C 208.17 168.49 210.37 167.08 212.11 165.18 C 212.64 163.87 212.83 162.41 213.11 161.03 C 215.92 160.46 218.69 159.81 221.38 158.81 C 226.84 157.08 228.34 152.59 230.00 147.65 C 229.27 147.20 228.54 146.76 227.81 146.31 L 228.59 144.22 C 228.81 143.61 229.04 143.00 229.27 142.39 C 230.26 142.87 231.25 143.34 232.25 143.81 C 231.86 140.99 231.94 138.28 229.97 136.02 C 227.06 132.69 224.57 129.29 221.09 126.55 L 220.43 125.07 L 220.95 123.90 C 222.57 124.16 224.16 124.51 225.76 124.86 C 227.79 121.29 227.81 119.15 226.97 115.22 C 226.01 108.90 223.55 103.04 222.66 96.71 C 222.86 94.37 222.69 92.45 222.05 90.19 C 222.17 87.08 222.42 83.97 222.55 80.86 C 221.50 81.05 220.45 81.25 219.41 81.46 L 218.68 82.91 C 217.41 85.68 216.25 88.36 214.14 90.62 C 212.11 88.51 209.89 86.53 209.42 83.47 C 209.43 81.71 210.07 79.89 210.53 78.20 C 209.58 78.03 208.62 77.86 207.67 77.71 C 206.94 74.71 207.30 74.09 209.07 71.69 C 208.27 67.87 207.99 63.55 206.23 60.12 C 207.35 57.15 208.67 54.59 210.50 52.00 C 210.32 51.54 210.14 51.09 209.97 50.63 C 213.24 47.96 212.45 45.01 211.93 41.34 C 211.64 38.30 211.70 35.28 211.06 32.27 C 211.56 33.33 212.11 34.38 212.65 35.43 C 214.11 33.15 215.63 30.94 217.52 29.00 Z" fill="#20223f" />
<path d="M 179.53 29.82 L 181.05 30.74 C 179.23 31.73 179.89 33.76 181.87 33.81 C 181.31 35.01 180.73 36.20 180.15 37.40 C 183.82 38.50 185.95 37.38 188.84 35.20 C 192.09 34.93 194.80 35.03 197.91 36.16 C 198.52 38.20 199.83 39.69 201.10 41.35 C 201.58 42.01 202.07 42.67 202.55 43.33 C 200.14 48.52 196.09 52.17 192.66 56.65 C 188.96 61.37 184.33 64.99 180.97 69.97 C 178.55 73.63 175.24 76.20 171.99 79.04 L 170.23 78.92 C 170.58 77.99 170.94 77.08 171.32 76.17 C 172.83 74.05 174.44 72.03 175.78 69.79 C 179.98 62.82 184.81 56.28 189.04 49.32 C 186.83 50.65 184.40 51.78 182.39 53.41 C 180.69 54.99 179.28 56.85 177.58 58.43 C 178.09 55.47 179.06 52.68 180.19 49.91 C 178.53 48.77 176.96 47.67 174.98 47.18 C 172.14 48.14 169.76 50.44 167.08 51.84 C 169.66 48.47 172.95 46.65 173.38 42.06 C 173.85 42.48 174.32 42.89 174.79 43.31 C 176.15 44.21 176.73 45.51 178.49 44.51 C 179.01 41.54 178.32 38.30 178.20 35.29 C 177.95 33.86 177.61 32.44 177.32 31.02 C 178.06 30.62 178.80 30.22 179.53 29.82 Z" fill="#23223f" />
<path d="M 194.35 30.07 C 197.31 31.91 198.17 32.33 197.91 36.16 C 194.80 35.03 192.09 34.93 188.84 35.20 C 189.95 34.09 191.03 32.96 192.11 31.82 C 192.61 32.05 193.12 32.28 193.62 32.51 C 193.85 31.69 194.10 30.88 194.35 30.07 Z" fill="#686576" />
<path d="M 181.05 30.74 C 182.28 31.45 182.55 32.47 181.87 33.81 C 179.89 33.76 179.23 31.73 181.05 30.74 Z" fill="#e0d8d6" />
<path d="M 165.29 32.68 C 164.73 34.58 164.79 37.76 162.88 38.83 C 161.08 40.20 159.22 41.50 157.37 42.81 C 157.91 43.50 158.44 44.18 158.97 44.87 C 157.98 45.94 156.98 47.01 156.00 48.11 C 156.05 46.31 156.08 44.52 156.11 42.72 C 155.04 42.15 153.98 41.57 152.90 41.03 C 153.83 39.42 154.88 37.90 155.96 36.40 C 156.82 37.32 157.68 38.26 158.52 39.20 C 160.22 36.03 161.74 33.89 165.29 32.68 Z" fill="#7a7788" />
<path d="M 172.84 32.87 C 175.14 32.76 176.48 34.01 178.20 35.29 C 178.32 38.30 179.01 41.54 178.49 44.51 C 176.73 45.51 176.15 44.21 174.79 43.31 C 175.26 42.16 175.75 41.02 176.26 39.89 C 177.34 38.63 178.42 35.82 175.53 37.12 C 173.27 35.88 173.05 35.51 172.84 32.87 Z" fill="#855959" />
<path d="M 204.08 32.79 C 205.07 33.19 206.05 33.62 207.02 34.07 C 206.04 37.47 204.54 40.42 202.55 43.33 C 202.07 42.67 201.58 42.01 201.10 41.35 C 202.14 38.52 203.00 35.62 204.08 32.79 Z" fill="#b69087" />
<path d="M 176.26 39.89 C 175.72 39.06 175.48 38.14 175.53 37.12 C 178.42 35.82 177.34 38.63 176.26 39.89 Z" fill="#271626" />
<path d="M 152.90 41.03 C 153.98 41.57 155.04 42.15 156.11 42.72 C 156.08 44.52 156.05 46.31 156.00 48.11 C 152.02 52.08 151.44 57.18 152.46 62.51 C 155.83 65.13 161.36 63.48 165.15 62.72 C 168.28 64.34 170.87 67.20 173.83 69.18 C 173.20 70.08 172.57 70.98 171.93 71.88 C 170.91 70.63 169.91 69.36 168.90 68.11 C 167.77 70.91 170.31 73.60 171.32 76.17 C 170.94 77.08 170.58 77.99 170.23 78.92 L 171.99 79.04 C 168.23 82.79 163.79 85.23 160.58 89.56 C 161.66 89.43 162.74 89.29 163.82 89.15 C 162.99 90.28 162.14 91.40 161.31 92.53 C 158.81 92.49 157.11 93.80 155.09 95.08 C 153.91 94.18 152.73 93.29 151.54 92.40 C 152.07 91.48 152.60 90.56 153.13 89.64 C 155.89 89.76 157.89 90.55 159.55 87.71 C 159.39 84.40 159.20 81.22 159.72 77.92 C 158.31 80.54 157.50 83.08 155.14 85.02 C 155.18 82.44 155.78 80.20 156.71 77.82 C 154.71 77.69 152.58 77.79 150.63 77.29 C 148.86 76.01 147.09 74.63 146.63 72.37 C 145.85 69.16 144.47 66.13 143.71 62.92 C 144.09 59.55 145.80 56.23 147.13 53.13 C 149.04 49.10 150.77 44.95 152.90 41.03 Z" fill="#4b3f62" />
<path d="M 211.93 41.34 C 212.45 45.01 213.24 47.96 209.97 50.63 C 210.14 51.09 210.32 51.54 210.50 52.00 C 208.67 54.59 207.35 57.15 206.23 60.12 L 205.89 59.37 C 206.12 57.63 206.43 55.90 206.64 54.16 C 206.15 53.78 205.64 53.41 205.13 53.05 C 202.30 57.55 199.44 62.36 197.65 67.37 C 196.23 73.91 193.35 79.51 190.71 85.63 C 189.75 85.17 188.77 84.81 187.76 84.52 C 193.36 78.83 194.48 69.19 198.15 62.18 C 202.34 54.60 205.06 47.06 211.93 41.34 Z" fill="#94493f" />
<path d="M 221.18 41.77 C 221.44 45.69 221.07 49.45 222.30 53.27 C 220.22 53.51 218.79 54.71 217.68 52.17 C 217.14 49.40 218.32 46.14 218.59 43.33 C 219.45 42.80 220.31 42.28 221.18 41.77 Z" fill="#6b3c3e" />
<path d="M 61.58 48.03 C 64.75 49.09 68.02 49.08 71.24 49.78 C 76.69 52.10 80.50 55.75 84.91 59.31 C 84.43 59.84 83.96 60.37 83.48 60.90 C 85.75 61.53 87.79 61.66 89.28 63.75 C 92.05 67.63 96.34 69.94 97.91 74.30 C 96.59 73.31 95.35 72.23 94.11 71.13 C 94.26 72.05 94.41 72.96 94.56 73.88 C 94.71 77.42 98.39 80.17 100.44 82.87 C 100.61 81.09 100.19 79.63 101.86 78.44 C 103.01 80.29 103.98 82.14 104.41 84.29 C 105.78 89.22 108.95 92.16 112.09 95.89 C 114.66 99.84 117.54 104.27 118.25 109.00 C 116.42 109.43 114.69 109.66 112.82 109.60 C 112.38 114.78 107.43 116.95 107.37 122.04 C 107.11 126.22 106.18 129.61 104.32 133.34 C 103.36 128.40 104.70 122.27 102.12 117.91 C 103.11 115.93 104.13 113.97 105.13 112.01 L 105.71 111.09 C 107.82 107.78 110.15 103.97 111.02 100.10 C 110.29 96.87 107.13 93.75 105.15 91.09 C 104.16 89.91 103.15 88.74 102.16 87.56 C 98.11 82.45 93.64 77.79 88.29 74.03 C 83.46 70.21 79.22 67.99 73.17 66.59 C 71.29 66.07 69.43 65.56 67.48 65.36 C 64.93 65.11 61.65 64.57 59.48 66.25 C 58.66 67.04 57.90 67.87 57.12 68.71 C 56.40 68.59 55.68 68.48 54.96 68.37 C 52.02 70.33 50.15 72.67 48.83 75.94 C 48.53 75.26 48.24 74.58 47.96 73.90 C 46.93 71.09 47.95 70.38 49.65 68.28 C 49.50 69.64 49.33 71.01 49.15 72.37 C 51.57 69.98 54.25 67.52 56.06 64.61 C 56.91 63.71 56.61 62.98 55.16 62.41 C 52.41 63.39 54.77 66.43 51.22 67.23 C 51.38 65.90 51.58 64.58 51.79 63.26 C 50.75 63.83 49.70 64.39 48.65 64.93 C 49.45 63.01 50.36 61.14 51.29 59.28 C 50.74 58.51 50.20 57.73 49.66 56.95 C 52.99 53.18 57.01 50.13 61.58 48.03 Z" fill="#21223e" />
<path d="M 195.22 47.24 C 196.95 47.46 196.47 49.76 194.96 49.94 C 193.20 49.68 193.72 47.46 195.22 47.24 Z" fill="#837e8e" />
<path d="M 205.13 53.05 C 205.64 53.41 206.15 53.78 206.64 54.16 C 206.43 55.90 206.12 57.63 205.89 59.37 C 205.27 64.54 205.07 69.71 203.97 74.83 C 201.64 79.52 199.62 84.35 197.87 89.28 C 195.32 88.34 193.00 87.05 190.71 85.63 C 193.35 79.51 196.23 73.91 197.65 67.37 C 199.44 62.36 202.30 57.55 205.13 53.05 Z" fill="#f6f4ec" />
<path d="M 59.22 59.22 L 59.80 59.21 L 59.81 59.79 L 59.23 59.80 L 59.22 59.22 Z" fill="#fefdfb" />
<path d="M 66.15 59.21 C 67.74 58.17 68.62 60.55 66.81 60.93 C 65.83 60.67 65.61 60.10 66.15 59.21 Z" fill="#655f76" />
<path d="M 205.89 59.37 L 206.23 60.12 C 207.99 63.55 208.27 67.87 209.07 71.69 C 207.30 74.09 206.94 74.71 207.67 77.71 C 206.29 78.75 205.53 79.08 205.54 81.00 C 205.14 85.04 206.13 88.76 207.93 92.34 C 209.97 92.28 211.75 92.47 213.72 92.99 C 212.78 97.75 213.51 102.46 213.02 107.24 C 210.92 104.21 209.79 100.97 208.85 97.43 C 204.71 94.88 205.24 90.33 205.06 86.04 C 205.23 82.09 204.94 78.66 203.97 74.83 C 205.07 69.71 205.27 64.54 205.89 59.37 Z" fill="#6e454a" />
<path d="M 61.52 60.69 C 61.08 63.76 59.08 64.80 56.66 66.24 C 57.59 63.71 58.89 61.67 61.52 60.69 Z" fill="#d6d3d7" />
<path d="M 175.55 62.21 C 176.34 63.30 174.57 66.39 173.18 65.60 C 172.26 64.45 174.11 61.44 175.55 62.21 Z" fill="#b4958d" />
<path d="M 67.48 65.36 C 64.88 67.21 62.43 66.83 59.48 66.25 C 61.65 64.57 64.93 65.11 67.48 65.36 Z" fill="#bca5a1" />
<path d="M 67.48 65.36 C 69.43 65.56 71.29 66.07 73.17 66.59 C 72.49 66.86 71.80 67.13 71.12 67.41 C 74.78 68.68 78.86 69.78 82.17 71.83 C 84.15 73.29 85.71 75.31 87.53 76.97 C 87.78 75.99 88.04 75.01 88.29 74.03 C 93.64 77.79 98.11 82.45 102.16 87.56 C 100.50 88.32 98.85 89.08 97.19 89.85 C 99.41 93.94 103.64 97.94 102.72 102.82 C 103.44 103.26 104.15 103.70 104.86 104.14 C 105.69 106.58 106.56 108.50 105.71 111.09 L 105.13 112.01 C 101.76 114.36 101.16 118.29 97.29 120.03 C 97.07 119.09 96.86 118.16 96.65 117.22 C 96.03 117.75 95.42 118.28 94.80 118.81 C 94.16 119.35 93.52 119.88 92.87 120.41 C 90.83 120.41 88.78 120.44 86.74 120.43 C 82.71 118.66 81.73 115.13 78.86 112.15 C 74.81 107.80 71.12 103.27 66.36 99.65 C 62.85 96.97 59.41 93.24 55.26 91.82 C 53.30 94.89 52.11 97.89 48.85 99.86 C 46.10 101.48 43.56 102.93 41.71 105.65 C 43.05 105.40 44.39 105.14 45.72 104.86 C 44.05 106.44 42.43 108.07 40.95 109.83 C 40.07 111.06 39.42 112.41 38.86 113.81 C 38.46 117.32 40.53 121.55 43.33 123.65 C 44.90 124.98 46.29 126.17 46.94 128.21 C 44.58 127.28 42.42 126.20 40.28 124.82 C 39.41 124.20 38.49 123.95 37.47 123.71 C 36.98 122.88 36.45 122.07 35.94 121.25 C 34.75 115.09 33.49 109.43 34.26 103.07 C 34.66 100.91 35.83 98.81 36.78 96.83 C 38.99 96.72 40.63 97.24 41.64 94.72 C 40.87 91.34 38.38 89.33 39.60 85.63 C 41.22 81.48 44.48 78.01 46.58 74.06 L 47.96 73.90 C 48.24 74.58 48.53 75.26 48.83 75.94 C 48.58 76.68 48.34 77.42 48.11 78.16 C 51.13 76.48 53.99 74.58 56.88 72.69 C 56.96 71.36 57.04 70.03 57.12 68.71 C 57.90 67.87 58.66 67.04 59.48 66.25 C 62.43 66.83 64.88 67.21 67.48 65.36 Z" fill="#9c493e" />
<path d="M 86.04 65.94 C 88.90 66.65 90.82 67.38 92.53 69.91 C 89.53 69.20 87.86 68.50 86.04 65.94 Z" fill="#8d8794" />
<path d="M 73.17 66.59 C 79.22 67.99 83.46 70.21 88.29 74.03 C 88.04 75.01 87.78 75.99 87.53 76.97 C 85.71 75.31 84.15 73.29 82.17 71.83 C 78.86 69.78 74.78 68.68 71.12 67.41 C 71.80 67.13 72.49 66.86 73.17 66.59 Z" fill="#c99b90" />
<path d="M 54.96 68.37 C 55.68 68.48 56.40 68.59 57.12 68.71 C 57.04 70.03 56.96 71.36 56.88 72.69 C 53.99 74.58 51.13 76.48 48.11 78.16 C 48.34 77.42 48.58 76.68 48.83 75.94 C 50.15 72.67 52.02 70.33 54.96 68.37 Z" fill="#cdc4be" />
<path d="M 62.08 69.24 L 62.91 69.22 L 63.34 69.93 L 62.94 70.66 L 62.12 70.68 L 61.69 69.97 L 62.08 69.24 Z" fill="#e5aca0" />
<path d="M 27.09 71.05 C 27.63 73.35 28.08 75.85 29.03 78.01 C 30.29 81.30 33.73 83.77 36.18 86.24 C 38.61 80.54 41.80 75.36 45.07 70.12 C 45.57 71.43 46.07 72.74 46.58 74.06 C 44.48 78.01 41.22 81.48 39.60 85.63 C 38.38 89.33 40.87 91.34 41.64 94.72 C 40.63 97.24 38.99 96.72 36.78 96.83 C 35.83 98.81 34.66 100.91 34.26 103.07 C 33.49 109.43 34.75 115.09 35.94 121.25 C 31.83 117.14 29.30 111.85 28.98 106.02 C 28.95 102.45 27.68 99.21 31.29 97.02 C 29.66 93.03 27.62 89.65 26.74 85.52 C 25.77 80.73 26.36 75.83 27.09 71.05 Z" fill="#21223e" />
<path d="M 63.30 72.12 C 65.07 70.94 66.26 73.70 64.14 74.12 C 63.00 73.80 62.72 73.14 63.30 72.12 Z" fill="#c78578" />
<path d="M 94.56 73.88 C 97.60 74.82 100.17 75.48 101.86 78.44 C 100.19 79.63 100.61 81.09 100.44 82.87 C 98.39 80.17 94.71 77.42 94.56 73.88 Z" fill="#583f4c" />
<path d="M 203.97 74.83 C 204.94 78.66 205.23 82.09 205.06 86.04 C 205.24 90.33 204.71 94.88 208.85 97.43 C 209.79 100.97 210.92 104.21 213.02 107.24 C 215.86 112.00 217.34 117.05 219.25 122.20 C 215.04 121.69 211.57 121.43 207.59 123.20 C 207.12 126.49 208.75 127.69 210.81 129.85 C 212.00 130.62 213.18 131.42 214.34 132.24 L 213.76 133.23 C 209.33 132.68 205.69 132.50 201.43 134.06 C 202.15 134.69 202.87 135.32 203.59 135.95 C 201.81 137.60 200.49 139.09 199.92 141.52 C 198.75 145.32 197.65 148.42 200.07 152.00 C 197.73 154.60 195.47 157.15 193.68 160.17 C 197.25 159.06 198.93 156.36 201.22 153.66 C 202.87 155.94 204.72 158.30 207.16 159.78 C 208.87 160.76 211.19 160.83 213.11 161.03 C 212.83 162.41 212.64 163.87 212.11 165.18 C 210.37 167.08 208.17 168.49 206.46 170.44 C 204.37 172.80 202.66 175.23 199.92 176.92 C 190.16 183.41 177.48 184.80 166.06 183.85 C 158.64 183.04 150.88 178.07 143.55 181.95 C 138.14 180.74 132.76 180.28 127.23 180.28 C 124.03 180.28 120.87 179.90 117.68 179.79 C 116.14 179.56 115.27 181.05 114.17 181.89 C 112.31 181.57 110.25 181.57 108.77 180.25 C 106.20 178.15 104.18 175.87 100.82 174.98 C 98.24 173.78 96.16 175.96 93.93 177.00 C 96.27 178.56 99.00 180.05 100.89 182.14 C 102.82 184.19 102.52 187.49 102.88 190.12 C 100.05 186.16 95.31 184.49 90.59 185.39 C 89.17 185.74 88.02 187.02 86.99 187.99 L 85.76 189.27 C 82.90 188.38 82.35 187.97 81.42 185.11 C 83.54 184.41 85.35 183.56 87.19 182.30 C 84.33 179.83 81.65 177.65 77.78 177.04 C 78.12 178.32 78.50 179.58 78.93 180.83 C 79.26 181.77 79.65 182.70 80.09 183.61 C 77.89 182.21 75.96 180.77 73.38 180.14 C 73.04 181.40 72.65 182.71 72.52 184.01 C 73.07 185.90 74.54 187.58 75.60 189.22 C 75.42 189.75 75.25 190.28 75.07 190.81 C 73.98 193.33 74.49 194.91 75.58 197.28 L 77.13 196.01 C 76.96 197.48 76.76 198.95 76.54 200.42 L 75.56 200.50 C 74.64 199.20 73.71 197.92 72.76 196.64 C 71.58 197.22 70.39 197.78 69.21 198.35 C 66.15 195.78 63.81 193.03 61.66 189.66 C 61.19 186.85 60.23 184.28 58.93 181.76 C 58.11 182.92 57.33 184.10 56.54 185.29 C 53.59 182.68 53.92 179.45 52.92 175.94 L 53.64 176.38 C 54.38 176.82 55.11 177.26 55.85 177.69 C 55.22 171.12 56.09 164.58 55.66 158.01 C 55.67 156.63 55.02 155.68 54.35 154.56 C 54.35 150.47 55.64 146.78 56.80 142.92 C 59.88 144.37 63.08 145.07 66.26 146.21 C 70.93 148.47 75.57 150.46 80.79 151.02 C 80.42 152.42 80.12 153.83 79.84 155.24 C 81.70 154.26 83.46 153.15 85.17 151.93 L 83.66 150.75 C 84.75 150.48 85.83 150.18 86.90 149.85 C 89.64 149.08 92.34 148.53 95.20 148.79 C 91.73 152.85 87.34 155.40 82.81 158.07 C 81.30 159.05 79.83 159.72 79.96 161.81 C 80.57 163.71 82.57 165.14 83.97 166.48 C 86.23 164.95 88.36 163.35 90.01 161.13 C 91.31 159.36 92.58 157.55 93.71 155.66 L 95.18 157.19 L 95.27 158.52 C 94.71 160.14 94.14 161.75 93.66 163.39 C 92.12 164.61 90.64 165.84 89.49 167.45 C 88.93 168.31 88.38 169.17 87.85 170.04 C 89.95 171.92 92.22 173.57 94.54 175.18 C 95.25 172.74 95.51 170.59 95.33 168.04 C 95.29 167.03 95.24 166.02 95.18 165.02 L 96.35 164.64 C 97.32 167.24 98.51 169.69 99.76 172.17 C 100.30 171.90 100.85 171.63 101.39 171.36 C 102.56 172.16 103.73 173.14 105.05 173.67 C 108.23 173.59 110.60 172.39 113.13 170.61 C 114.99 170.29 116.38 172.94 117.51 174.06 C 121.55 172.80 124.07 169.88 127.03 167.03 C 130.72 163.44 133.48 159.15 135.80 154.58 C 136.62 157.98 135.14 161.03 136.61 164.17 C 137.96 167.25 138.74 171.37 142.14 172.81 C 145.94 174.56 150.84 177.24 155.09 176.03 C 160.80 174.70 165.86 174.74 169.99 169.96 C 174.15 166.26 172.33 160.83 172.12 155.97 C 172.04 152.39 170.25 149.99 168.07 147.38 C 164.26 147.99 160.69 147.22 156.94 146.73 C 155.60 145.43 154.25 144.15 152.79 142.98 C 153.87 142.57 155.40 141.40 154.56 140.12 C 152.90 139.15 151.79 141.17 152.17 142.64 L 151.37 142.65 C 148.95 142.63 146.59 143.04 144.19 143.21 C 143.75 142.22 143.34 141.22 142.96 140.21 C 141.84 135.85 143.53 132.35 145.90 128.80 C 146.91 127.40 148.01 126.08 149.11 124.75 C 149.33 125.62 149.55 126.49 149.77 127.36 C 151.62 126.37 153.43 125.31 155.24 124.25 C 156.32 128.02 153.90 129.46 152.08 132.33 C 156.16 130.27 158.05 128.21 160.08 124.15 C 158.50 123.24 157.19 122.24 155.93 120.92 C 155.30 120.29 154.68 119.66 154.06 119.02 C 155.15 118.89 156.15 118.57 157.05 118.06 C 159.52 116.51 161.79 115.47 164.58 114.64 L 165.08 115.55 C 164.12 117.06 163.11 118.55 162.13 120.05 C 163.57 119.26 165.00 118.49 166.41 117.63 C 168.82 115.68 170.27 113.21 172.07 110.74 C 172.45 111.65 172.85 112.56 173.27 113.45 C 171.85 115.70 170.30 117.94 169.41 120.45 C 168.49 122.75 168.40 124.93 166.16 126.44 C 166.55 125.34 166.67 124.28 166.53 123.28 C 164.39 122.91 163.53 125.97 166.16 126.44 C 165.51 127.01 164.86 127.58 164.21 128.14 C 164.85 128.52 165.48 128.91 166.11 129.29 C 165.17 129.93 164.24 130.57 163.28 131.18 C 163.30 129.88 162.18 128.83 161.09 129.95 C 160.66 130.61 160.65 131.40 161.04 132.32 C 158.77 133.68 157.73 135.43 156.87 137.86 C 158.06 138.06 159.25 138.26 160.44 138.46 C 162.54 135.11 165.07 132.16 167.70 129.23 L 166.11 129.29 C 167.31 126.52 170.08 126.07 170.02 123.20 C 174.26 120.47 177.03 116.94 179.95 112.92 C 180.94 112.41 181.94 111.92 182.93 111.40 C 185.39 111.65 188.08 112.03 190.53 111.56 C 192.64 110.69 193.07 107.20 193.74 105.25 C 192.75 104.32 191.76 103.39 190.75 102.49 C 191.63 101.58 192.47 100.65 193.32 99.72 C 194.53 101.20 195.82 102.73 196.73 104.41 C 197.55 107.34 196.12 111.04 195.83 114.02 C 196.29 115.16 197.40 116.06 198.18 117.00 C 197.93 111.91 201.12 108.01 201.19 103.02 C 201.24 101.13 201.22 99.11 200.68 97.29 C 199.90 95.74 198.52 94.44 197.38 93.15 C 197.81 92.38 198.24 91.61 198.68 90.85 C 198.41 90.33 198.14 89.80 197.87 89.28 C 199.62 84.35 201.64 79.52 203.97 74.83 Z" fill="#9c493e" />
<path d="M 55.95 75.59 C 56.31 76.75 57.50 78.49 56.71 79.63 C 55.03 80.92 53.75 80.60 51.87 80.09 C 53.03 78.34 54.28 76.88 55.95 75.59 Z" fill="#d7afa3" />
<path d="M 139.71 76.10 C 137.89 80.71 135.32 84.92 133.20 89.39 C 132.12 91.27 132.77 92.97 132.96 94.98 C 134.85 94.13 136.63 93.15 138.39 92.07 C 140.55 94.08 142.27 96.27 143.75 98.83 C 141.96 101.25 141.22 104.04 140.79 106.98 C 137.40 107.20 134.78 108.48 131.83 106.09 C 132.52 101.49 129.55 99.01 128.36 95.05 C 128.58 91.83 129.25 87.97 131.45 85.47 C 134.07 82.23 136.81 79.09 139.71 76.10 Z" fill="#4b3f62" />
<path d="M 166.07 76.14 C 166.81 76.37 167.56 76.59 168.30 76.82 C 166.77 78.92 165.54 80.66 162.92 81.43 C 163.77 79.46 164.39 77.59 166.07 76.14 Z" fill="#a09ba9" />
<path d="M 207.67 77.71 C 208.62 77.86 209.58 78.03 210.53 78.20 C 210.07 79.89 209.43 81.71 209.42 83.47 C 209.89 86.53 212.11 88.51 214.14 90.62 C 216.25 88.36 217.41 85.68 218.68 82.91 C 219.43 85.51 220.67 87.87 222.05 90.19 C 222.69 92.45 222.86 94.37 222.66 96.71 C 222.00 99.74 221.53 102.74 221.70 105.84 C 221.95 110.50 221.21 115.01 220.60 119.60 C 221.60 120.28 222.61 120.96 223.61 121.64 C 224.36 119.22 225.15 117.08 226.97 115.22 C 227.81 119.15 227.79 121.29 225.76 124.86 C 224.16 124.51 222.57 124.16 220.95 123.90 L 220.43 125.07 L 219.72 123.41 C 219.56 123.01 219.40 122.60 219.25 122.20 C 217.34 117.05 215.86 112.00 213.02 107.24 C 213.51 102.46 212.78 97.75 213.72 92.99 C 211.75 92.47 209.97 92.28 207.93 92.34 C 206.13 88.76 205.14 85.04 205.54 81.00 C 205.53 79.08 206.29 78.75 207.67 77.71 Z" fill="#462e3f" />
<path d="M 90.61 79.57 C 90.16 81.88 89.60 84.17 89.03 86.46 C 89.61 86.55 90.20 86.64 90.79 86.72 C 88.15 92.47 85.90 98.61 80.95 102.81 C 80.91 101.66 80.87 100.51 80.83 99.36 C 78.44 100.02 76.48 101.04 73.98 100.05 C 72.08 99.47 70.64 98.54 71.36 96.32 C 72.41 90.79 78.50 88.58 82.73 85.78 C 85.90 84.26 87.52 81.17 90.61 79.57 Z" fill="#23223e" />
<path d="M 219.41 81.46 C 220.45 81.25 221.50 81.05 222.55 80.86 C 222.42 83.97 222.17 87.08 222.05 90.19 C 220.67 87.87 219.43 85.51 218.68 82.91 L 219.41 81.46 Z" fill="#625e73" />
<path d="M 181.33 83.03 L 181.59 83.16 C 183.66 84.58 185.31 84.55 187.76 84.52 C 188.77 84.81 189.75 85.17 190.71 85.63 C 193.00 87.05 195.32 88.34 197.87 89.28 C 198.14 89.80 198.41 90.33 198.68 90.85 C 198.24 91.61 197.81 92.38 197.38 93.15 C 198.52 94.44 199.90 95.74 200.68 97.29 C 201.22 99.11 201.24 101.13 201.19 103.02 C 201.12 108.01 197.93 111.91 198.18 117.00 C 197.40 116.06 196.29 115.16 195.83 114.02 C 196.12 111.04 197.55 107.34 196.73 104.41 C 195.82 102.73 194.53 101.20 193.32 99.72 C 192.22 98.47 191.10 97.03 189.69 96.12 C 188.04 95.60 186.01 96.18 184.32 96.46 C 182.10 96.92 181.41 98.61 180.09 100.23 C 179.07 99.82 178.05 99.41 177.03 99.00 C 177.84 98.18 178.66 97.37 179.46 96.53 C 179.10 95.90 178.71 95.27 178.30 94.65 C 175.78 93.03 174.30 94.88 172.44 96.43 C 170.20 98.60 169.75 101.30 168.90 104.16 C 169.91 104.48 170.91 104.78 171.92 105.08 C 173.92 103.78 174.42 101.82 175.51 99.82 C 178.09 101.32 175.17 103.84 174.94 106.00 C 175.25 106.85 175.59 107.69 175.98 108.51 C 175.16 110.21 174.32 111.88 173.27 113.45 C 172.85 112.56 172.45 111.65 172.07 110.74 C 171.59 109.05 171.20 107.36 170.35 105.80 C 169.56 106.17 168.78 106.55 168.01 106.94 C 167.86 101.91 168.80 97.07 169.93 92.20 C 170.26 90.33 171.92 89.45 173.32 88.40 C 176.02 86.65 178.68 84.86 181.33 83.03 Z" fill="#fec862" />
<path d="M 102.16 87.56 C 103.15 88.74 104.16 89.91 105.15 91.09 C 103.97 92.61 102.79 93.69 101.15 94.72 C 102.61 95.12 104.06 95.54 105.52 95.95 C 103.72 99.28 103.63 100.52 104.86 104.14 C 104.15 103.70 103.44 103.26 102.72 102.82 C 103.64 97.94 99.41 93.94 97.19 89.85 C 98.85 89.08 100.50 88.32 102.16 87.56 Z" fill="#bd8075" />
<path d="M 105.15 91.09 C 107.13 93.75 110.29 96.87 111.02 100.10 C 110.15 103.97 107.82 107.78 105.71 111.09 C 106.56 108.50 105.69 106.58 104.86 104.14 C 103.63 100.52 103.72 99.28 105.52 95.95 C 104.06 95.54 102.61 95.12 101.15 94.72 C 102.79 93.69 103.97 92.61 105.15 91.09 Z" fill="#f7f5ef" />
<path d="M 55.26 91.82 C 59.41 93.24 62.85 96.97 66.36 99.65 C 71.12 103.27 74.81 107.80 78.86 112.15 C 81.73 115.13 82.71 118.66 86.74 120.43 C 88.18 121.95 89.50 123.62 90.82 125.26 C 89.93 130.18 89.80 135.13 89.60 140.12 C 89.03 134.41 88.45 128.93 85.80 123.73 C 83.84 120.82 81.55 118.63 78.53 116.83 C 76.18 115.97 74.27 114.73 71.74 115.72 C 66.75 116.88 64.98 122.68 60.51 125.51 C 58.84 125.61 57.18 125.84 55.52 126.12 C 53.94 122.88 52.52 119.58 50.97 116.33 C 51.63 115.00 52.70 113.56 52.84 112.06 C 52.60 110.06 50.78 108.68 48.94 108.19 C 47.48 108.46 46.25 109.99 45.11 110.89 C 43.72 110.57 42.33 110.23 40.95 109.83 C 42.43 108.07 44.05 106.44 45.72 104.86 C 44.39 105.14 43.05 105.40 41.71 105.65 C 43.56 102.93 46.10 101.48 48.85 99.86 C 52.11 97.89 53.30 94.89 55.26 91.82 Z" fill="#21223e" />
<path d="M 161.31 92.53 C 158.17 96.73 155.93 101.39 153.85 106.18 C 153.59 104.80 153.34 103.42 153.12 102.04 C 153.87 99.74 154.49 97.41 155.09 95.08 C 157.11 93.80 158.81 92.49 161.31 92.53 Z" fill="#583e47" />
<path d="M 178.30 94.65 C 175.21 97.68 172.55 100.64 171.92 105.08 C 170.91 104.78 169.91 104.48 168.90 104.16 C 169.75 101.30 170.20 98.60 172.44 96.43 C 174.30 94.88 175.78 93.03 178.30 94.65 Z" fill="#f5d798" />
<path d="M 178.30 94.65 C 178.71 95.27 179.10 95.90 179.46 96.53 C 178.66 97.37 177.84 98.18 177.03 99.00 C 178.05 99.41 179.07 99.82 180.09 100.23 C 180.17 101.22 180.24 102.22 180.32 103.21 C 178.85 104.97 177.31 106.64 175.98 108.51 C 175.59 107.69 175.25 106.85 174.94 106.00 C 175.17 103.84 178.09 101.32 175.51 99.82 C 174.42 101.82 173.92 103.78 171.92 105.08 C 172.55 100.64 175.21 97.68 178.30 94.65 Z" fill="#b48250" />
<path d="M 184.32 96.46 C 183.23 98.86 181.99 101.16 180.32 103.21 C 180.24 102.22 180.17 101.22 180.09 100.23 C 181.41 98.61 182.10 96.92 184.32 96.46 Z" fill="#775751" />
<path d="M 189.69 96.12 C 191.10 97.03 192.22 98.47 193.32 99.72 C 192.47 100.65 191.63 101.58 190.75 102.49 C 189.02 104.07 187.28 105.63 185.57 107.22 C 183.48 106.68 181.37 106.40 179.23 106.24 C 178.63 106.55 178.13 107.05 177.71 107.74 C 178.88 108.87 180.04 110.00 181.19 111.14 C 180.78 111.73 180.36 112.33 179.95 112.92 C 177.03 116.94 174.26 120.47 170.02 123.20 C 170.08 126.07 167.31 126.52 166.11 129.29 C 165.48 128.91 164.85 128.52 164.21 128.14 C 164.86 127.58 165.51 127.01 166.16 126.44 C 168.40 124.93 168.49 122.75 169.41 120.45 C 170.30 117.94 171.85 115.70 173.27 113.45 C 174.32 111.88 175.16 110.21 175.98 108.51 C 177.31 106.64 178.85 104.97 180.32 103.21 C 181.99 101.16 183.23 98.86 184.32 96.46 C 186.01 96.18 188.04 95.60 189.69 96.12 Z" fill="#fcf2e1" />
<path d="M 222.66 96.71 C 223.55 103.04 226.01 108.90 226.97 115.22 C 225.15 117.08 224.36 119.22 223.61 121.64 C 222.61 120.96 221.60 120.28 220.60 119.60 C 221.21 115.01 221.95 110.50 221.70 105.84 C 221.53 102.74 222.00 99.74 222.66 96.71 Z" fill="#656376" />
<path d="M 143.75 98.83 C 145.11 101.19 144.41 104.59 144.28 107.21 C 143.28 107.70 142.27 108.16 141.25 108.62 L 140.79 106.98 C 141.22 104.04 141.96 101.25 143.75 98.83 Z" fill="#6f6a7f" />
<path d="M 63.22 101.71 C 66.17 104.12 64.09 108.75 63.86 112.00 C 62.78 109.12 61.87 108.55 59.01 107.55 C 60.64 105.75 61.81 103.73 63.22 101.71 Z" fill="#a95440" />
<path d="M 97.93 101.34 C 100.12 105.40 99.54 112.27 97.20 116.20 C 96.37 111.49 95.88 105.78 97.93 101.34 Z" fill="#442227" />
<path d="M 153.12 102.04 C 153.34 103.42 153.59 104.80 153.85 106.18 C 151.62 110.98 148.19 115.05 145.91 119.85 C 145.35 119.42 144.80 119.00 144.25 118.58 C 144.90 117.33 145.23 116.17 145.11 114.76 C 146.25 113.79 147.31 112.75 148.38 111.71 C 148.24 109.77 148.17 107.83 148.05 105.90 C 148.67 106.31 149.29 106.73 149.91 107.14 C 150.98 105.44 152.06 103.75 153.12 102.04 Z" fill="#904d47" />
<path d="M 190.75 102.49 C 191.76 103.39 192.75 104.32 193.74 105.25 C 193.07 107.20 192.64 110.69 190.53 111.56 C 188.08 112.03 185.39 111.65 182.93 111.40 C 184.61 110.45 186.22 109.41 187.82 108.34 C 187.08 107.96 186.33 107.59 185.57 107.22 C 187.28 105.63 189.02 104.07 190.75 102.49 Z" fill="#d08f4c" />
<path d="M 147.07 105.23 L 148.05 105.90 C 148.17 107.83 148.24 109.77 148.38 111.71 C 147.31 112.75 146.25 113.79 145.11 114.76 C 144.13 115.48 143.18 116.24 142.27 117.04 C 141.90 116.11 141.49 115.20 141.08 114.29 C 142.35 111.81 143.56 109.29 144.93 106.86 C 145.64 106.31 146.35 105.77 147.07 105.23 Z" fill="#252541" />
<path d="M 131.83 106.09 C 134.78 108.48 137.40 107.20 140.79 106.98 L 141.25 108.62 C 142.27 108.16 143.28 107.70 144.28 107.21 L 144.93 106.86 C 143.56 109.29 142.35 111.81 141.08 114.29 C 137.30 114.60 134.51 117.34 130.78 117.38 L 131.68 115.97 C 131.00 113.63 130.11 111.33 129.26 109.04 C 130.10 108.04 130.93 107.04 131.83 106.09 Z" fill="#948f9e" />
<path d="M 170.35 105.80 C 171.20 107.36 171.59 109.05 172.07 110.74 C 170.27 113.21 168.82 115.68 166.41 117.63 L 165.08 115.55 L 164.58 114.64 C 166.87 113.59 168.54 111.98 170.03 109.98 C 169.76 109.46 169.48 108.93 169.20 108.41 C 167.72 109.23 166.28 110.09 164.74 110.79 C 164.73 110.09 164.71 109.39 164.69 108.70 C 165.80 108.11 166.90 107.52 168.01 106.94 C 168.78 106.55 169.56 106.17 170.35 105.80 Z" fill="#80504a" />
<path d="M 179.23 106.24 C 181.37 106.40 183.48 106.68 185.57 107.22 C 186.33 107.59 187.08 107.96 187.82 108.34 C 186.22 109.41 184.61 110.45 182.93 111.40 C 181.94 111.92 180.94 112.41 179.95 112.92 C 180.36 112.33 180.78 111.73 181.19 111.14 C 180.04 110.00 178.88 108.87 177.71 107.74 C 178.13 107.05 178.63 106.55 179.23 106.24 Z" fill="#f7d186" />
<path d="M 48.94 108.19 C 50.78 108.68 52.60 110.06 52.84 112.06 C 52.70 113.56 51.63 115.00 50.97 116.33 L 49.09 115.96 C 48.25 115.80 47.42 115.65 46.58 115.51 C 45.93 114.34 45.29 113.18 44.62 112.02 C 43.85 112.67 43.08 113.33 42.33 114.00 C 41.17 113.91 40.02 113.84 38.86 113.81 C 39.42 112.41 40.07 111.06 40.95 109.83 C 42.33 110.23 43.72 110.57 45.11 110.89 C 46.25 109.99 47.48 108.46 48.94 108.19 Z" fill="#f8f584" />
<path d="M 59.01 107.55 C 61.87 108.55 62.78 109.12 63.86 112.00 C 63.50 113.94 61.64 115.55 60.64 117.23 C 59.78 116.73 58.93 116.23 58.07 115.73 C 57.02 114.82 56.04 113.85 55.04 112.88 C 55.94 110.33 56.64 109.02 59.01 107.55 Z" fill="#f8f584" />
<path d="M 169.20 108.41 C 169.48 108.93 169.76 109.46 170.03 109.98 C 168.54 111.98 166.87 113.59 164.58 114.64 C 161.79 115.47 159.52 116.51 157.05 118.06 C 158.26 116.32 159.27 114.32 160.71 112.76 C 161.84 111.82 163.42 111.41 164.74 110.79 C 166.28 110.09 167.72 109.23 169.20 108.41 Z" fill="#cda398" />
<path d="M 67.88 109.92 C 70.17 109.90 72.05 112.82 73.50 114.30 C 72.15 114.45 70.87 114.64 69.51 114.54 C 68.00 113.22 67.90 111.83 67.88 109.92 Z" fill="#d8c79d" />
<path d="M 44.62 112.02 C 45.29 113.18 45.93 114.34 46.58 115.51 C 47.42 115.65 48.25 115.80 49.09 115.96 C 49.37 117.62 49.70 119.28 50.11 120.92 C 48.79 120.19 47.43 119.52 46.09 118.83 C 44.85 117.22 43.62 115.57 42.33 114.00 C 43.08 113.33 43.85 112.67 44.62 112.02 Z" fill="#30212f" />
<path d="M 38.86 113.81 C 40.02 113.84 41.17 113.91 42.33 114.00 C 43.62 115.57 44.85 117.22 46.09 118.83 C 48.22 122.08 50.65 125.11 52.81 128.33 C 53.23 129.00 53.64 129.68 54.04 130.36 L 53.81 131.43 C 52.49 131.10 51.15 130.78 49.83 130.45 C 48.99 130.19 48.15 129.94 47.31 129.69 L 46.94 128.21 C 46.29 126.17 44.90 124.98 43.33 123.65 C 40.53 121.55 38.46 117.32 38.86 113.81 Z" fill="#fcc047" />
<path d="M 141.08 114.29 C 141.49 115.20 141.90 116.11 142.27 117.04 C 142.35 117.66 142.44 118.28 142.52 118.90 C 143.11 118.83 143.69 118.72 144.25 118.58 C 144.80 119.00 145.35 119.42 145.91 119.85 C 148.63 119.64 151.34 119.30 154.06 119.02 C 154.68 119.66 155.30 120.29 155.93 120.92 C 151.49 122.28 147.24 124.08 142.94 125.81 C 138.08 128.09 133.63 128.69 128.31 128.73 C 127.63 127.78 126.96 126.83 126.28 125.87 C 128.08 124.28 129.42 123.51 131.78 123.03 C 130.57 122.43 129.37 121.80 128.19 121.16 C 129.05 119.89 129.92 118.64 130.78 117.38 C 134.51 117.34 137.30 114.60 141.08 114.29 Z" fill="#23233f" />
<path d="M 78.53 116.83 C 77.87 119.32 78.14 122.21 75.55 123.54 C 71.75 125.76 68.07 127.32 65.51 131.14 C 62.71 129.76 59.83 129.43 60.51 125.51 C 64.98 122.68 66.75 116.88 71.74 115.72 C 74.27 114.73 76.18 115.97 78.53 116.83 Z" fill="#fcc046" />
<path d="M 145.11 114.76 C 145.23 116.17 144.90 117.33 144.25 118.58 C 143.69 118.72 143.11 118.83 142.52 118.90 C 142.44 118.28 142.35 117.66 142.27 117.04 C 143.18 116.24 144.13 115.48 145.11 114.76 Z" fill="#d3c2b9" />
<path d="M 194.97 116.29 C 193.62 117.68 192.23 119.53 190.44 120.34 C 187.06 120.86 183.51 119.99 181.68 116.88 C 186.13 115.54 190.40 115.68 194.97 116.29 Z" fill="#ecb35e" />
<path d="M 49.09 115.96 L 50.97 116.33 C 52.52 119.58 53.94 122.88 55.52 126.12 C 55.91 126.95 56.28 127.79 56.65 128.63 C 55.77 129.20 54.90 129.77 54.04 130.36 C 53.64 129.68 53.23 129.00 52.81 128.33 C 53.29 127.52 53.77 126.70 54.24 125.88 C 52.91 124.19 51.54 122.54 50.11 120.92 C 49.70 119.28 49.37 117.62 49.09 115.96 Z" fill="#7b5153" />
<path d="M 58.07 115.73 C 58.93 116.23 59.78 116.73 60.64 117.23 C 59.81 119.18 59.64 121.16 57.98 122.52 C 54.82 121.75 57.52 117.61 58.07 115.73 Z" fill="#a65145" />
<path d="M 165.08 115.55 L 166.41 117.63 C 165.00 118.49 163.57 119.26 162.13 120.05 C 163.11 118.55 164.12 117.06 165.08 115.55 Z" fill="#cd998d" />
<path d="M 78.53 116.83 C 81.55 118.63 83.84 120.82 85.80 123.73 C 84.21 125.04 82.72 126.44 81.45 128.07 L 79.22 128.20 C 74.50 128.40 71.12 129.43 67.00 131.66 L 65.51 131.14 C 68.07 127.32 71.75 125.76 75.55 123.54 C 78.14 122.21 77.87 119.32 78.53 116.83 Z" fill="#9a483d" />
<path d="M 46.09 118.83 C 47.43 119.52 48.79 120.19 50.11 120.92 C 51.54 122.54 52.91 124.19 54.24 125.88 C 53.77 126.70 53.29 127.52 52.81 128.33 C 50.65 125.11 48.22 122.08 46.09 118.83 Z" fill="#e1c7a6" />
<path d="M 94.80 118.81 C 94.62 123.61 94.36 128.30 94.70 133.11 C 92.41 129.05 92.69 124.90 92.87 120.41 C 93.52 119.88 94.16 119.35 94.80 118.81 Z" fill="#66606c" />
<path d="M 101.81 119.65 C 102.23 123.17 102.28 126.72 101.82 130.24 C 100.24 127.17 100.66 122.82 101.81 119.65 Z" fill="#6f6c7c" />
<path d="M 155.93 120.92 C 157.19 122.24 158.50 123.24 160.08 124.15 C 158.05 128.21 156.16 130.27 152.08 132.33 C 153.90 129.46 156.32 128.02 155.24 124.25 C 153.43 125.31 151.62 126.37 149.77 127.36 C 149.55 126.49 149.33 125.62 149.11 124.75 C 148.01 126.08 146.91 127.40 145.90 128.80 C 145.89 127.83 145.88 126.86 145.86 125.88 C 144.89 125.85 143.92 125.82 142.94 125.81 C 147.24 124.08 151.49 122.28 155.93 120.92 Z" fill="#c79488" />
<path d="M 219.25 122.20 C 219.40 122.60 219.56 123.01 219.72 123.41 C 217.20 125.98 215.98 129.13 214.34 132.24 C 213.18 131.42 212.00 130.62 210.81 129.85 C 208.75 127.69 207.12 126.49 207.59 123.20 C 211.57 121.43 215.04 121.69 219.25 122.20 Z" fill="#e1a357" />
<path d="M 40.28 124.82 C 40.40 127.55 40.25 130.19 39.78 132.87 C 39.17 129.77 38.48 126.71 37.47 123.71 C 38.49 123.95 39.41 124.20 40.28 124.82 Z" fill="#595564" />
<path d="M 166.53 123.28 C 166.67 124.28 166.55 125.34 166.16 126.44 C 163.53 125.97 164.39 122.91 166.53 123.28 Z" fill="#d9bdb0" />
<path d="M 30.09 126.56 C 26.38 127.77 22.81 128.04 20.93 131.92 C 21.63 128.87 21.32 125.89 25.04 125.01 C 27.37 124.13 28.40 125.15 30.09 126.56 Z" fill="#a5a0a9" />
<path d="M 219.72 123.41 L 220.43 125.07 L 221.09 126.55 C 220.16 129.65 219.72 132.72 219.91 135.96 L 220.39 137.87 C 217.29 136.94 215.74 135.72 213.76 133.23 L 214.34 132.24 C 215.98 129.13 217.20 125.98 219.72 123.41 Z" fill="#f7daa1" />
<path d="M 60.51 125.51 C 59.83 129.43 62.71 129.76 65.51 131.14 L 67.00 131.66 C 71.12 129.43 74.50 128.40 79.22 128.20 C 76.91 130.90 76.01 134.15 74.10 137.10 C 72.64 139.42 71.48 141.90 70.12 144.28 C 65.49 141.79 61.21 138.83 56.31 136.85 C 53.04 135.66 51.66 133.17 49.83 130.45 C 51.15 130.78 52.49 131.10 53.81 131.43 L 54.04 130.36 C 54.90 129.77 55.77 129.20 56.65 128.63 C 56.28 127.79 55.91 126.95 55.52 126.12 C 57.18 125.84 58.84 125.61 60.51 125.51 Z" fill="#f1f1f0" />
<path d="M 183.69 125.11 C 183.72 126.77 183.74 128.43 183.73 130.09 C 181.50 129.66 180.73 128.52 179.39 126.82 C 180.81 126.23 182.24 125.66 183.69 125.11 Z" fill="#4f2c33" />
<path d="M 30.09 126.56 C 31.04 127.36 31.98 128.18 32.90 129.02 C 31.35 131.12 29.64 133.09 27.90 135.03 C 29.22 136.16 30.53 137.30 31.84 138.45 C 34.19 136.62 35.59 135.13 38.78 135.67 C 38.30 136.62 37.83 137.58 37.33 138.52 C 33.54 138.73 29.03 140.14 25.42 138.67 C 23.05 136.83 21.64 134.86 20.93 131.92 C 22.81 128.04 26.38 127.77 30.09 126.56 Z" fill="#392650" />
<path d="M 221.09 126.55 C 224.57 129.29 227.06 132.69 229.97 136.02 C 231.94 138.28 231.86 140.99 232.25 143.81 C 231.25 143.34 230.26 142.87 229.27 142.39 C 229.04 143.00 228.81 143.61 228.59 144.22 C 227.66 140.59 226.13 139.16 222.90 137.61 C 221.90 137.06 220.91 136.51 219.91 135.96 C 219.72 132.72 220.16 129.65 221.09 126.55 Z" fill="#cea55c" />
<path d="M 79.22 128.20 L 81.45 128.07 C 80.30 132.26 78.01 135.54 75.27 138.83 C 76.19 138.61 77.11 138.39 78.03 138.17 C 78.72 139.00 79.40 139.85 80.08 140.69 C 81.33 139.83 82.59 138.98 83.85 138.15 C 82.49 137.45 81.14 136.74 79.79 136.01 C 80.83 134.58 81.85 133.14 82.84 131.67 C 84.80 135.04 87.32 137.71 87.17 141.87 C 86.43 143.87 85.12 145.72 84.00 147.53 C 85.30 147.16 86.61 146.80 87.91 146.42 C 88.24 147.27 88.58 148.11 88.91 148.96 C 88.24 149.27 87.58 149.56 86.90 149.85 C 85.83 150.18 84.75 150.48 83.66 150.75 C 82.71 150.84 81.75 150.94 80.79 151.02 C 75.57 150.46 70.93 148.47 66.26 146.21 C 67.56 145.60 68.86 144.98 70.12 144.28 C 71.48 141.90 72.64 139.42 74.10 137.10 C 76.01 134.15 76.91 130.90 79.22 128.20 Z" fill="#22233f" />
<path d="M 178.19 127.93 C 179.25 130.01 181.65 132.02 179.20 134.14 C 175.02 137.51 169.16 139.66 163.85 140.25 C 166.24 137.55 168.71 136.28 168.58 132.26 C 172.05 131.26 175.23 130.04 178.19 127.93 Z" fill="#262138" />
<path d="M 45.62 128.99 C 45.66 133.38 45.73 137.86 45.10 142.21 C 44.68 144.98 43.29 147.27 43.40 149.98 C 43.40 153.29 43.33 156.58 42.81 159.86 C 41.20 164.80 39.76 169.54 39.57 174.79 C 39.37 178.49 39.71 181.94 38.76 185.55 C 37.25 191.32 37.67 197.26 36.05 203.00 C 34.79 206.79 36.05 210.32 35.61 214.11 C 34.71 217.52 33.34 220.82 32.41 224.24 C 31.53 222.30 31.66 220.39 31.51 218.32 C 30.64 218.27 29.78 218.23 28.91 218.18 C 28.82 220.38 28.67 222.47 27.86 224.55 C 27.37 223.11 27.24 221.72 27.17 220.20 C 27.28 216.42 27.47 212.66 27.92 208.90 C 28.47 200.76 31.05 193.24 33.59 185.56 C 35.22 180.97 36.91 176.51 37.63 171.66 C 38.65 165.52 37.02 159.73 38.67 153.58 C 39.73 148.46 42.44 143.88 43.59 138.84 C 43.95 137.21 42.35 136.66 41.33 135.77 L 42.82 135.80 C 43.48 133.37 44.28 131.14 45.62 128.99 Z" fill="#21223d" />
<path d="M 163.28 131.18 C 162.57 131.63 161.83 132.01 161.04 132.32 C 160.65 131.40 160.66 130.61 161.09 129.95 C 162.18 128.83 163.30 129.88 163.28 131.18 Z" fill="#542524" />
<path d="M 166.11 129.29 L 167.70 129.23 C 165.07 132.16 162.54 135.11 160.44 138.46 C 159.25 138.26 158.06 138.06 156.87 137.86 C 157.73 135.43 158.77 133.68 161.04 132.32 C 161.83 132.01 162.57 131.63 163.28 131.18 C 164.24 130.57 165.17 129.93 166.11 129.29 Z" fill="#fef9f3" />
<path d="M 47.31 129.69 C 48.15 129.94 48.99 130.19 49.83 130.45 C 51.66 133.17 53.04 135.66 56.31 136.85 C 56.59 138.21 56.89 139.56 57.12 140.93 L 56.80 142.92 C 55.64 146.78 54.35 150.47 54.35 154.56 C 54.23 155.81 54.10 157.05 53.95 158.30 C 52.86 157.52 51.75 156.77 50.80 155.83 C 50.53 153.87 50.66 151.80 50.81 149.84 C 51.15 146.41 52.64 142.29 50.81 139.11 C 49.09 136.02 48.01 133.17 47.31 129.69 Z" fill="#22223d" />
<path d="M 235.46 130.78 C 236.93 135.20 236.74 139.58 236.73 144.16 C 233.02 140.90 232.60 135.62 229.30 131.82 C 231.35 131.47 233.40 131.13 235.46 130.78 Z" fill="#36354f" />
<path d="M 213.76 133.23 C 215.74 135.72 217.29 136.94 220.39 137.87 C 221.10 140.24 221.87 142.33 221.11 144.84 C 220.23 146.38 219.05 147.77 218.06 149.25 C 216.78 149.35 215.48 149.51 214.20 149.48 C 212.63 148.98 211.99 146.83 211.25 145.50 C 213.38 144.02 215.46 142.46 217.52 140.88 C 216.22 139.07 215.61 136.54 212.96 136.59 C 206.84 135.95 202.26 142.61 202.75 148.19 C 202.69 148.31 202.65 148.44 202.62 148.57 L 202.43 149.51 C 199.98 148.51 201.05 147.31 201.10 145.29 C 201.40 143.79 200.52 142.83 199.92 141.52 C 200.49 139.09 201.81 137.60 203.59 135.95 C 202.87 135.32 202.15 134.69 201.43 134.06 C 205.69 132.50 209.33 132.68 213.76 133.23 Z" fill="#f4bd62" />
<path d="M 99.15 134.21 C 100.80 133.04 101.56 135.40 99.80 135.89 C 98.81 135.70 98.59 135.14 99.15 134.21 Z" fill="#82483f" />
<path d="M 41.33 135.77 C 42.35 136.66 43.95 137.21 43.59 138.84 C 42.44 143.88 39.73 148.46 38.67 153.58 C 37.02 159.73 38.65 165.52 37.63 171.66 C 36.91 176.51 35.22 180.97 33.59 185.56 C 31.05 193.24 28.47 200.76 27.92 208.90 C 26.68 209.34 25.45 209.80 24.21 210.25 C 23.82 211.22 23.43 212.19 23.06 213.17 C 23.05 205.60 25.70 198.52 25.37 190.96 C 25.29 187.45 25.78 183.99 25.92 180.49 L 24.94 179.40 C 26.12 179.46 27.37 179.61 28.55 179.45 C 30.81 177.28 31.61 174.26 29.42 171.70 L 29.08 170.37 C 30.60 167.70 32.07 165.01 33.18 162.13 C 34.52 158.37 37.68 153.40 36.69 149.37 C 35.56 147.60 32.82 146.75 31.01 145.83 C 34.06 144.13 35.77 141.56 37.33 138.52 C 37.83 137.58 38.30 136.62 38.78 135.67 C 39.63 135.69 40.48 135.73 41.33 135.77 Z" fill="#9c4a3f" />
<path d="M 103.47 135.73 C 102.56 137.47 101.70 139.21 101.11 141.09 C 101.24 141.93 101.31 142.77 101.32 143.60 C 102.18 143.80 103.05 143.99 103.91 144.19 C 100.22 145.02 97.83 145.99 95.20 148.79 C 92.34 148.53 89.64 149.08 86.90 149.85 C 87.58 149.56 88.24 149.27 88.91 148.96 C 88.58 148.11 88.24 147.27 87.91 146.42 C 94.47 144.27 97.01 137.25 103.47 135.73 Z" fill="#793d39" />
<path d="M 108.17 136.07 C 108.11 139.59 106.30 141.84 103.91 144.19 C 103.05 143.99 102.18 143.80 101.32 143.60 C 101.31 142.77 101.24 141.93 101.11 141.09 C 103.70 139.73 105.96 137.96 108.17 136.07 Z" fill="#2e293d" />
<path d="M 219.91 135.96 C 220.91 136.51 221.90 137.06 222.90 137.61 C 223.37 140.07 223.65 142.53 223.67 145.03 C 223.13 147.13 222.54 149.22 222.06 151.33 C 223.11 151.53 224.15 151.73 225.20 151.93 C 223.50 153.62 221.72 155.02 219.69 156.29 C 220.09 155.18 220.49 154.06 220.88 152.94 C 219.51 153.16 218.14 153.38 216.78 153.64 C 217.18 152.16 217.57 150.70 218.06 149.25 C 219.05 147.77 220.23 146.38 221.11 144.84 C 221.87 142.33 221.10 140.24 220.39 137.87 L 219.91 135.96 Z" fill="#131128" />
<path d="M 56.31 136.85 C 61.21 138.83 65.49 141.79 70.12 144.28 C 68.86 144.98 67.56 145.60 66.26 146.21 C 63.88 143.08 60.60 142.29 57.12 140.93 C 56.89 139.56 56.59 138.21 56.31 136.85 Z" fill="#95473c" />
<path d="M 176.46 137.37 C 178.84 136.14 179.58 139.25 179.95 140.96 C 177.94 144.89 174.14 148.07 170.99 151.08 C 173.34 146.68 174.57 141.93 176.46 137.37 Z" fill="#211b34" />
<path d="M 212.96 136.59 C 215.61 136.54 216.22 139.07 217.52 140.88 C 215.46 142.46 213.38 144.02 211.25 145.50 C 211.99 146.83 212.63 148.98 214.20 149.48 C 215.48 149.51 216.78 149.35 218.06 149.25 C 217.57 150.70 217.18 152.16 216.78 153.64 C 214.30 154.28 211.91 155.19 209.57 156.22 C 208.04 155.25 206.43 154.48 204.80 153.69 C 205.31 151.48 205.69 149.45 204.99 147.21 C 204.24 147.53 203.50 147.86 202.75 148.19 C 202.26 142.61 206.84 135.95 212.96 136.59 Z" fill="#9b493d" />
<path d="M 228.59 144.22 L 227.81 146.31 C 226.99 146.28 226.18 146.22 225.37 146.15 C 224.80 145.78 224.24 145.41 223.67 145.03 C 223.65 142.53 223.37 140.07 222.90 137.61 C 226.13 139.16 227.66 140.59 228.59 144.22 Z" fill="#f5bf60" />
<path d="M 142.96 140.21 C 143.34 141.22 143.75 142.22 144.19 143.21 C 146.59 143.04 148.95 142.63 151.37 142.65 C 150.14 144.08 149.00 145.58 147.86 147.09 C 148.58 147.85 149.30 148.61 150.02 149.36 C 152.24 148.23 154.51 147.28 156.94 146.73 C 160.69 147.22 164.26 147.99 168.07 147.38 C 170.25 149.99 172.04 152.39 172.12 155.97 C 172.33 160.83 174.15 166.26 169.99 169.96 C 165.86 174.74 160.80 174.70 155.09 176.03 C 150.84 177.24 145.94 174.56 142.14 172.81 C 138.74 171.37 137.96 167.25 136.61 164.17 C 135.14 161.03 136.62 157.98 135.80 154.58 C 136.04 153.19 136.26 151.83 136.67 150.48 C 137.90 146.67 143.39 144.58 142.96 140.21 Z" fill="#fbc561" />
<path d="M 154.56 140.12 C 155.40 141.40 153.87 142.57 152.79 142.98 L 152.17 142.64 C 151.79 141.17 152.90 139.15 154.56 140.12 Z" fill="#52292b" />
<path d="M 57.12 140.93 C 60.60 142.29 63.88 143.08 66.26 146.21 C 63.08 145.07 59.88 144.37 56.80 142.92 L 57.12 140.93 Z" fill="#e1beb6" />
<path d="M 73.24 141.63 C 74.62 141.33 74.75 143.87 73.81 144.44 C 72.38 144.77 72.38 142.24 73.24 141.63 Z" fill="#b8b3bc" />
<path d="M 199.92 141.52 C 200.52 142.83 201.40 143.79 201.10 145.29 C 201.05 147.31 199.98 148.51 202.43 149.51 L 202.62 148.57 L 202.75 148.19 C 203.50 147.86 204.24 147.53 204.99 147.21 C 205.69 149.45 205.31 151.48 204.80 153.69 C 206.43 154.48 208.04 155.25 209.57 156.22 C 210.70 156.99 211.91 158.51 213.34 158.58 C 216.01 158.81 218.70 158.74 221.38 158.81 C 218.69 159.81 215.92 160.46 213.11 161.03 C 211.19 160.83 208.87 160.76 207.16 159.78 C 204.72 158.30 202.87 155.94 201.22 153.66 C 200.83 153.11 200.45 152.56 200.07 152.00 C 197.65 148.42 198.75 145.32 199.92 141.52 Z" fill="#f5bf64" />
<path d="M 151.37 142.65 L 152.17 142.64 L 152.79 142.98 C 154.25 144.15 155.60 145.43 156.94 146.73 C 154.51 147.28 152.24 148.23 150.02 149.36 C 149.30 148.61 148.58 147.85 147.86 147.09 C 149.00 145.58 150.14 144.08 151.37 142.65 Z" fill="#9f7443" />
<path d="M 223.67 145.03 C 224.24 145.41 224.80 145.78 225.37 146.15 C 226.18 146.22 226.99 146.28 227.81 146.31 C 228.54 146.76 229.27 147.20 230.00 147.65 C 228.34 152.59 226.84 157.08 221.38 158.81 C 218.70 158.74 216.01 158.81 213.34 158.58 C 211.91 158.51 210.70 156.99 209.57 156.22 C 211.91 155.19 214.30 154.28 216.78 153.64 C 218.14 153.38 219.51 153.16 220.88 152.94 C 220.49 154.06 220.09 155.18 219.69 156.29 C 221.72 155.02 223.50 153.62 225.20 151.93 C 224.15 151.73 223.11 151.53 222.06 151.33 C 222.54 149.22 223.13 147.13 223.67 145.03 Z" fill="#cb9c5c" />
<path d="M 31.01 145.83 C 31.83 147.46 33.14 149.26 33.27 151.10 C 33.23 153.00 31.78 153.24 30.50 154.20 C 30.47 155.25 30.44 156.31 30.42 157.36 C 27.49 156.63 27.30 156.04 26.39 153.30 C 29.26 151.41 29.14 148.49 31.01 145.83 Z" fill="#4c4063" />
<path d="M 31.01 145.83 C 32.82 146.75 35.56 147.60 36.69 149.37 C 37.68 153.40 34.52 158.37 33.18 162.13 C 31.39 162.57 29.61 163.05 27.82 163.51 C 25.79 160.71 23.78 157.73 22.46 154.52 C 21.27 152.01 22.24 149.56 22.54 146.91 C 25.25 148.26 25.31 150.75 26.39 153.30 C 27.30 156.04 27.49 156.63 30.42 157.36 C 30.44 156.31 30.47 155.25 30.50 154.20 C 31.78 153.24 33.23 153.00 33.27 151.10 C 33.14 149.26 31.83 147.46 31.01 145.83 Z" fill="#301d48" />
<path d="M 98.99 147.54 C 97.92 150.84 96.41 153.94 95.18 157.19 L 93.71 155.66 C 95.03 152.44 95.75 149.40 98.99 147.54 Z" fill="#54414a" />
<path d="M 202.75 148.19 L 202.62 148.57 C 202.65 148.44 202.69 148.31 202.75 148.19 Z" fill="#582320" />
<path d="M 50.81 149.84 C 50.66 151.80 50.53 153.87 50.80 155.83 C 51.75 156.77 52.86 157.52 53.95 158.30 C 53.71 160.16 53.40 162.01 53.07 163.86 C 52.38 164.96 51.65 166.04 50.93 167.12 C 50.82 165.68 50.68 164.24 50.55 162.80 C 50.48 158.45 50.15 154.17 50.81 149.84 Z" fill="#434050" />
<path d="M 80.79 151.02 C 81.75 150.94 82.71 150.84 83.66 150.75 L 85.17 151.93 C 83.46 153.15 81.70 154.26 79.84 155.24 C 80.12 153.83 80.42 152.42 80.79 151.02 Z" fill="#f2d7cd" />
<path d="M 167.51 156.53 C 169.10 158.79 168.83 161.48 168.32 164.04 L 168.08 162.04 C 164.40 163.19 161.48 165.71 157.81 166.86 C 158.06 165.58 158.32 164.29 158.57 163.01 C 159.82 162.05 161.01 161.03 162.20 160.00 C 161.70 159.39 161.20 158.78 160.69 158.18 C 158.61 159.66 157.68 160.32 157.56 163.01 C 156.40 162.98 155.24 162.94 154.08 162.89 C 153.44 160.81 152.64 159.04 153.18 156.83 C 153.38 154.69 156.45 153.79 158.09 153.03 C 161.78 151.33 165.31 153.61 167.51 156.53 Z" fill="#d08f4b" />
<path d="M 200.07 152.00 C 200.45 152.56 200.83 153.11 201.22 153.66 C 198.93 156.36 197.25 159.06 193.68 160.17 C 195.47 157.15 197.73 154.60 200.07 152.00 Z" fill="#eed3c2" />
<path d="M 54.35 154.56 C 55.02 155.68 55.67 156.63 55.66 158.01 C 56.09 164.58 55.22 171.12 55.85 177.69 C 55.11 177.26 54.38 176.82 53.64 176.38 C 53.61 172.20 53.17 168.05 53.07 163.86 C 53.40 162.01 53.71 160.16 53.95 158.30 C 54.10 157.05 54.23 155.81 54.35 154.56 Z" fill="#cabbaf" />
<path d="M 69.17 155.06 C 70.86 156.09 71.65 157.25 72.48 159.02 C 71.26 158.99 70.04 158.96 68.82 158.93 C 68.91 157.64 69.03 156.35 69.17 155.06 Z" fill="#ecd4cb" />
<path d="M 82.81 158.07 C 85.24 159.01 87.62 160.09 90.01 161.13 C 88.36 163.35 86.23 164.95 83.97 166.48 C 82.57 165.14 80.57 163.71 79.96 161.81 C 79.83 159.72 81.30 159.05 82.81 158.07 Z" fill="#a39886" />
<path d="M 147.82 157.17 C 149.38 159.90 150.48 163.06 152.42 165.53 C 153.66 167.20 155.99 166.72 157.81 166.86 C 161.48 165.71 164.40 163.19 168.08 162.04 L 168.32 164.04 C 167.12 167.34 164.74 170.94 161.48 172.47 C 157.45 174.15 152.24 173.09 148.29 171.59 C 145.75 170.68 145.18 168.23 144.13 166.03 C 146.48 167.69 148.60 169.77 151.11 171.18 C 153.72 171.65 156.58 171.15 159.20 170.86 C 158.36 168.77 156.83 169.52 155.00 169.24 C 152.54 169.05 150.39 169.45 148.58 167.41 C 146.20 164.76 146.61 160.27 147.82 157.17 Z" fill="#b26542" />
<path d="M 160.69 158.18 C 161.20 158.78 161.70 159.39 162.20 160.00 C 161.01 161.03 159.82 162.05 158.57 163.01 L 157.56 163.01 C 157.68 160.32 158.61 159.66 160.69 158.18 Z" fill="#9d5032" />
<path d="M 95.27 158.52 C 95.56 160.05 95.84 161.58 96.08 163.13 L 96.35 164.64 L 95.18 165.02 L 93.66 163.39 C 94.14 161.75 94.71 160.14 95.27 158.52 Z" fill="#4a2c36" />
<path d="M 42.81 159.86 C 42.09 169.51 43.54 179.33 43.82 188.99 C 43.53 192.60 42.06 196.03 41.60 199.63 C 40.92 204.73 39.86 209.64 37.73 214.35 C 36.45 210.59 35.85 206.96 36.05 203.00 C 37.67 197.26 37.25 191.32 38.76 185.55 C 39.71 181.94 39.37 178.49 39.57 174.79 C 39.76 169.54 41.20 164.80 42.81 159.86 Z" fill="#c1b5a9" />
<path d="M 33.18 162.13 C 32.07 165.01 30.60 167.70 29.08 170.37 C 28.45 168.12 28.10 165.83 27.82 163.51 C 29.61 163.05 31.39 162.57 33.18 162.13 Z" fill="#af6b5f" />
<path d="M 75.85 162.02 C 78.16 163.71 79.85 165.81 81.70 167.96 C 80.26 168.37 78.67 169.16 77.16 169.02 C 75.45 166.76 75.42 164.71 75.85 162.02 Z" fill="#d7c3bf" />
<path d="M 50.55 162.80 C 50.68 164.24 50.82 165.68 50.93 167.12 C 51.03 170.35 51.55 173.00 52.92 175.94 C 53.92 179.45 53.59 182.68 56.54 185.29 C 59.23 188.97 59.82 193.94 61.98 198.00 C 65.28 204.67 67.45 212.99 72.22 218.69 C 70.66 218.62 69.05 218.59 67.51 218.32 C 65.90 217.75 65.89 215.09 65.57 213.70 C 66.37 214.75 68.50 215.31 68.05 213.30 C 67.54 212.65 66.68 212.52 65.47 212.92 C 64.23 212.72 63.00 212.47 61.77 212.26 C 62.13 211.29 62.00 210.42 61.38 209.64 C 59.65 208.60 59.35 210.72 60.18 211.82 C 56.80 209.29 55.03 204.57 53.21 200.84 C 50.78 195.61 51.56 190.55 51.08 184.99 C 52.32 189.17 53.42 193.37 55.06 197.42 C 56.71 201.47 56.34 205.83 60.82 207.96 C 59.78 203.58 57.54 199.69 56.52 195.30 C 55.35 190.24 53.31 185.55 51.68 180.64 C 51.09 180.65 50.50 180.68 49.92 180.71 C 49.83 179.47 49.78 178.23 49.76 176.99 C 50.52 177.55 51.29 178.12 52.05 178.68 C 51.60 177.36 51.18 176.02 50.76 174.69 C 50.29 175.01 49.82 175.34 49.34 175.66 C 49.04 173.13 48.41 170.65 48.12 168.12 C 48.47 166.25 49.74 164.52 50.55 162.80 Z" fill="#b2a398" />
<path d="M 96.08 163.13 C 99.66 164.68 103.42 165.67 106.99 167.22 C 105.57 167.45 104.09 167.58 102.69 167.97 C 101.62 168.44 101.70 170.39 101.39 171.36 C 100.85 171.63 100.30 171.90 99.76 172.17 C 98.51 169.69 97.32 167.24 96.35 164.64 L 96.08 163.13 Z" fill="#a39886" />
<path d="M 53.07 163.86 C 53.17 168.05 53.61 172.20 53.64 176.38 L 52.92 175.94 C 51.55 173.00 51.03 170.35 50.93 167.12 C 51.65 166.04 52.38 164.96 53.07 163.86 Z" fill="#272134" />
<path d="M 74.05 164.04 C 74.70 165.80 76.98 169.42 74.77 170.77 C 72.43 170.23 70.49 168.47 68.63 167.03 C 70.41 166.00 72.22 164.97 74.05 164.04 Z" fill="#fbf7f4" />
<path d="M 93.66 163.39 L 95.18 165.02 C 95.24 166.02 95.29 167.03 95.33 168.04 C 93.39 167.85 91.44 167.65 89.49 167.45 C 90.64 165.84 92.12 164.61 93.66 163.39 Z" fill="#ac877c" />
<path d="M 202.07 165.81 C 199.68 169.82 195.95 171.88 191.92 173.94 C 187.81 175.91 184.40 178.31 179.79 179.04 C 183.14 176.00 186.96 175.11 190.89 172.90 C 194.85 170.84 198.06 167.78 202.07 165.81 Z" fill="#e4b1a5" />
<path d="M 95.33 168.04 C 95.51 170.59 95.25 172.74 94.54 175.18 C 92.22 173.57 89.95 171.92 87.85 170.04 C 88.38 169.17 88.93 168.31 89.49 167.45 C 91.44 167.65 93.39 167.85 95.33 168.04 Z" fill="#f2f2f1" />
<path d="M 24.62 168.10 C 24.02 171.15 23.19 173.85 24.15 176.96 C 25.20 176.78 26.24 176.56 27.27 176.29 C 28.47 175.19 28.86 173.18 29.42 171.70 C 31.61 174.26 30.81 177.28 28.55 179.45 C 27.37 179.61 26.12 179.46 24.94 179.40 C 22.66 177.14 21.29 174.64 21.33 171.36 C 22.25 170.13 23.50 169.13 24.62 168.10 Z" fill="#1e1e3c" />
<path d="M 179.66 170.60 C 179.39 171.96 179.12 173.31 178.85 174.67 C 177.10 174.56 175.35 174.45 173.61 174.32 C 175.48 171.53 176.32 171.13 179.66 170.60 Z" fill="#c27f72" />
<path d="M 85.68 172.22 C 88.16 173.55 90.21 175.95 92.13 177.99 C 91.16 178.47 90.17 179.30 89.09 179.44 C 86.27 178.47 83.69 176.69 81.04 175.33 C 82.85 173.71 81.17 172.22 79.24 172.80 C 81.36 172.09 83.46 171.66 85.68 172.22 Z" fill="#a39886" />
<path d="M 79.24 172.80 C 81.17 172.22 82.85 173.71 81.04 175.33 C 79.53 174.65 78.93 173.81 79.24 172.80 Z" fill="#e8cec6" />
<path d="M 100.82 174.98 C 104.18 175.87 106.20 178.15 108.77 180.25 C 110.25 181.57 112.31 181.57 114.17 181.89 C 115.55 183.08 116.90 184.31 118.30 185.47 C 117.51 185.99 116.71 186.52 115.93 187.05 C 118.55 191.18 122.54 191.55 126.68 193.40 C 129.62 194.69 132.68 195.13 135.82 195.62 C 140.25 196.69 144.26 197.14 148.80 197.31 C 153.64 198.29 155.93 197.84 160.37 195.81 C 164.66 194.62 167.13 197.47 171.36 197.84 C 172.22 198.87 173.07 199.90 173.92 200.94 C 172.25 201.49 170.56 202.04 168.92 202.68 C 168.10 203.34 167.28 204.01 166.47 204.68 C 167.29 205.37 168.11 206.06 168.93 206.75 C 168.28 206.94 167.64 207.15 167.02 207.38 C 166.25 208.16 165.51 208.97 164.79 209.81 C 166.27 209.80 167.75 209.81 169.23 209.82 L 170.23 210.96 C 168.92 211.65 167.58 212.28 166.23 212.89 C 167.31 213.52 168.39 214.15 169.46 214.80 C 167.16 216.31 164.89 217.83 162.78 219.59 C 165.92 219.86 170.19 221.47 172.50 218.52 C 174.82 214.70 176.12 210.29 178.52 206.49 C 181.43 201.91 183.92 197.13 187.18 192.77 C 187.36 197.45 187.34 202.04 188.45 206.63 C 189.44 210.71 190.08 214.64 190.46 218.82 C 184.73 220.61 179.89 223.24 173.72 222.77 C 170.06 223.25 166.64 224.69 162.85 224.68 C 156.60 224.71 150.23 224.84 144.02 224.10 C 135.69 222.26 129.35 216.79 121.15 214.28 C 117.03 210.43 112.69 207.82 109.53 203.43 C 107.57 200.94 106.14 198.16 104.76 195.32 C 106.74 195.44 108.72 195.56 110.70 195.67 C 109.42 193.86 108.04 192.18 106.48 190.59 C 106.40 191.93 106.32 193.27 106.23 194.60 C 104.60 193.30 103.74 192.01 102.88 190.12 C 102.52 187.49 102.82 184.19 100.89 182.14 C 99.00 180.05 96.27 178.56 93.93 177.00 C 96.16 175.96 98.24 173.78 100.82 174.98 Z" fill="#21223e" />
<path d="M 77.78 177.04 C 81.65 177.65 84.33 179.83 87.19 182.30 C 85.35 183.56 83.54 184.41 81.42 185.11 L 81.20 184.49 C 81.63 184.04 82.08 183.61 82.56 183.20 C 81.61 181.78 80.81 180.69 78.93 180.83 C 78.50 179.58 78.12 178.32 77.78 177.04 Z" fill="#c2a29b" />
<path d="M 117.68 179.79 C 120.87 179.90 124.03 180.28 127.23 180.28 C 124.43 180.43 121.61 180.80 118.83 181.14 C 123.68 183.83 128.59 186.08 134.06 187.17 C 137.94 188.32 142.22 185.43 146.15 184.70 C 146.56 185.14 146.97 185.58 147.38 186.02 C 147.14 186.66 146.91 187.29 146.68 187.93 C 147.21 188.45 147.74 188.97 148.27 189.49 C 145.08 190.71 141.91 192.14 138.66 193.11 C 137.81 192.98 136.96 192.86 136.11 192.73 C 129.88 191.61 124.08 187.99 118.30 185.47 C 116.90 184.31 115.55 183.08 114.17 181.89 C 115.27 181.05 116.14 179.56 117.68 179.79 Z" fill="#703f41" />
<path d="M 51.68 180.64 C 53.31 185.55 55.35 190.24 56.52 195.30 C 57.54 199.69 59.78 203.58 60.82 207.96 C 56.34 205.83 56.71 201.47 55.06 197.42 C 53.42 193.37 52.32 189.17 51.08 184.99 C 50.67 183.56 50.26 182.15 49.92 180.71 C 50.50 180.68 51.09 180.65 51.68 180.64 Z" fill="#b23b31" />
<path d="M 73.38 180.14 C 75.96 180.77 77.89 182.21 80.09 183.61 L 81.20 184.49 L 81.42 185.11 C 82.35 187.97 82.90 188.38 85.76 189.27 C 85.26 189.81 84.76 190.34 84.25 190.88 C 85.41 195.11 85.07 199.68 88.18 202.78 C 90.51 205.46 92.70 208.23 94.93 211.00 C 93.28 210.31 91.61 209.71 89.94 209.07 C 86.97 205.76 84.22 202.01 80.71 199.41 C 79.33 199.81 77.95 200.17 76.54 200.42 C 76.76 198.95 76.96 197.48 77.13 196.01 C 76.97 194.13 75.95 192.44 75.07 190.81 C 75.25 190.28 75.42 189.75 75.60 189.22 C 74.54 187.58 73.07 185.90 72.52 184.01 C 72.65 182.71 73.04 181.40 73.38 180.14 Z" fill="#b4998a" />
<path d="M 82.56 183.20 C 82.08 183.61 81.63 184.04 81.20 184.49 L 80.09 183.61 C 79.65 182.70 79.26 181.77 78.93 180.83 C 80.81 180.69 81.61 181.78 82.56 183.20 Z" fill="#f3e7e3" />
<path d="M 127.23 180.28 C 132.76 180.28 138.14 180.74 143.55 181.95 C 144.41 182.87 145.28 183.78 146.15 184.70 C 142.22 185.43 137.94 188.32 134.06 187.17 C 128.59 186.08 123.68 183.83 118.83 181.14 C 121.61 180.80 124.43 180.43 127.23 180.28 Z" fill="#2d263e" />
<path d="M 95.29 181.32 C 96.60 180.37 98.51 182.47 97.62 183.73 C 96.33 184.62 94.31 182.60 95.29 181.32 Z" fill="#be8479" />
<path d="M 58.93 181.76 C 60.23 184.28 61.19 186.85 61.66 189.66 C 60.98 192.62 61.21 195.08 61.98 198.00 C 59.82 193.94 59.23 188.97 56.54 185.29 C 57.33 184.10 58.11 182.92 58.93 181.76 Z" fill="#65383a" />
<path d="M 90.59 185.39 C 95.31 184.49 100.05 186.16 102.88 190.12 C 103.74 192.01 104.60 193.30 106.23 194.60 C 106.32 193.27 106.40 191.93 106.48 190.59 C 108.04 192.18 109.42 193.86 110.70 195.67 C 108.72 195.56 106.74 195.44 104.76 195.32 C 106.14 198.16 107.57 200.94 109.53 203.43 C 112.69 207.82 117.03 210.43 121.15 214.28 C 118.68 213.84 117.43 213.12 115.57 211.42 C 112.66 208.64 108.88 208.69 105.73 206.31 C 102.86 204.22 100.33 201.59 97.79 199.12 C 96.59 197.74 95.38 196.38 94.10 195.09 C 93.42 194.41 92.74 193.72 92.05 193.04 C 90.36 191.37 88.72 189.63 86.99 187.99 C 88.02 187.02 89.17 185.74 90.59 185.39 Z" fill="#a39886" />
<path d="M 191.70 185.30 C 192.93 185.64 194.14 186.02 195.37 186.38 C 194.34 188.27 193.68 189.88 193.80 192.10 C 193.54 190.86 193.30 189.62 193.05 188.37 C 192.50 188.67 191.96 188.97 191.41 189.27 C 190.65 188.38 189.90 187.50 189.10 186.65 C 189.95 186.16 190.81 185.70 191.70 185.30 Z" fill="#908991" />
<path d="M 118.30 185.47 C 124.08 187.99 129.88 191.61 136.11 192.73 L 134.38 193.04 C 134.78 193.93 135.26 194.79 135.82 195.62 C 132.68 195.13 129.62 194.69 126.68 193.40 C 122.54 191.55 118.55 191.18 115.93 187.05 C 116.71 186.52 117.51 185.99 118.30 185.47 Z" fill="#964c43" />
<path d="M 164.53 189.25 C 164.48 190.44 164.43 191.62 164.38 192.80 C 167.15 192.70 168.80 191.94 170.71 194.44 C 171.26 194.19 171.86 194.03 172.48 193.96 C 172.49 193.02 172.49 192.08 172.48 191.14 C 174.07 194.09 175.48 195.75 178.40 197.51 C 176.12 202.43 174.22 207.11 170.23 210.96 L 169.23 209.82 C 168.51 208.99 167.77 208.17 167.02 207.38 C 167.64 207.15 168.28 206.94 168.93 206.75 C 169.76 206.63 170.60 206.52 171.44 206.42 C 170.63 205.15 169.79 203.90 168.92 202.68 C 170.56 202.04 172.25 201.49 173.92 200.94 C 173.07 199.90 172.22 198.87 171.36 197.84 C 167.13 197.47 164.66 194.62 160.37 195.81 C 157.81 195.65 155.38 194.99 152.92 194.33 C 152.03 192.47 151.25 190.57 150.53 188.64 C 155.47 186.16 159.49 188.36 164.53 189.25 Z" fill="#35354f" />
<path d="M 189.10 186.65 C 189.90 187.50 190.65 188.38 191.41 189.27 C 191.96 188.97 192.50 188.67 193.05 188.37 C 193.30 189.62 193.54 190.86 193.80 192.10 C 194.36 194.98 195.20 197.77 196.31 200.49 C 195.21 200.15 194.74 199.96 194.19 198.89 C 192.45 195.91 191.05 192.78 189.09 189.92 C 188.44 190.86 187.81 191.82 187.18 192.77 C 183.92 197.13 181.43 201.91 178.52 206.49 C 176.12 210.29 174.82 214.70 172.50 218.52 C 170.19 221.47 165.92 219.86 162.78 219.59 C 164.89 217.83 167.16 216.31 169.46 214.80 C 168.39 214.15 167.31 213.52 166.23 212.89 C 167.58 212.28 168.92 211.65 170.23 210.96 C 174.22 207.11 176.12 202.43 178.40 197.51 C 180.70 192.62 184.72 189.57 189.10 186.65 Z" fill="#c9beb5" />
<path d="M 86.99 187.99 C 88.72 189.63 90.36 191.37 92.05 193.04 C 91.61 194.30 91.17 195.56 90.73 196.81 C 88.68 194.72 86.56 192.70 84.25 190.88 C 84.76 190.34 85.26 189.81 85.76 189.27 L 86.99 187.99 Z" fill="#f2ebe8" />
<path d="M 148.27 189.49 C 149.02 189.21 149.77 188.92 150.53 188.64 C 151.25 190.57 152.03 192.47 152.92 194.33 C 148.10 194.31 143.38 194.15 138.66 193.11 C 141.91 192.14 145.08 190.71 148.27 189.49 Z" fill="#524858" />
<path d="M 61.66 189.66 C 63.81 193.03 66.15 195.78 69.21 198.35 C 70.39 197.78 71.58 197.22 72.76 196.64 C 73.71 197.92 74.64 199.20 75.56 200.50 C 77.36 203.78 79.02 205.42 82.11 207.50 L 82.37 208.48 C 83.25 208.00 84.14 207.52 85.03 207.05 C 88.49 214.49 92.28 221.89 96.19 229.10 C 94.90 230.30 93.03 232.80 91.17 232.81 C 88.34 231.73 85.74 229.54 83.14 228.03 C 81.72 227.35 79.77 227.49 78.71 226.31 C 76.36 223.97 74.39 221.21 72.22 218.69 C 67.45 212.99 65.28 204.67 61.98 198.00 C 61.21 195.08 60.98 192.62 61.66 189.66 Z" fill="#20223f" />
<path d="M 189.09 189.92 C 191.05 192.78 192.45 195.91 194.19 198.89 C 194.74 199.96 195.21 200.15 196.31 200.49 C 197.72 203.50 198.78 206.54 199.51 209.79 C 199.04 213.60 199.99 216.98 201.20 220.55 C 197.94 220.86 195.44 219.55 192.35 218.81 C 191.79 219.23 191.24 219.65 190.69 220.07 L 190.46 218.82 C 190.08 214.64 189.44 210.71 188.45 206.63 C 187.34 202.04 187.36 197.45 187.18 192.77 C 187.81 191.82 188.44 190.86 189.09 189.92 Z" fill="#85524d" />
<path d="M 75.07 190.81 C 75.95 192.44 76.97 194.13 77.13 196.01 L 75.58 197.28 C 74.49 194.91 73.98 193.33 75.07 190.81 Z" fill="#d3ada1" />
<path d="M 84.25 190.88 C 86.56 192.70 88.68 194.72 90.73 196.81 C 91.17 195.56 91.61 194.30 92.05 193.04 C 92.74 193.72 93.42 194.41 94.10 195.09 C 94.19 195.92 94.29 196.75 94.40 197.58 C 93.50 198.47 92.60 199.36 91.70 200.26 C 93.88 204.58 96.56 208.44 98.07 213.09 C 97.03 212.38 95.98 211.69 94.93 211.00 C 92.70 208.23 90.51 205.46 88.18 202.78 C 85.07 199.68 85.41 195.11 84.25 190.88 Z" fill="#ccc2ba" />
<path d="M 196.95 190.81 C 198.53 193.86 199.42 197.76 201.82 200.17 C 204.03 202.52 206.47 204.65 208.67 207.02 C 210.61 209.10 212.56 211.18 214.60 213.16 C 212.13 213.24 210.34 212.21 208.32 210.95 C 206.39 209.55 204.47 208.13 202.54 206.73 C 199.98 202.82 197.54 199.21 196.47 194.56 C 196.09 193.20 196.60 192.11 196.95 190.81 Z" fill="#6b3c3f" />
<path d="M 134.38 193.04 L 136.11 192.73 C 136.96 192.86 137.81 192.98 138.66 193.11 C 143.38 194.15 148.10 194.31 152.92 194.33 C 151.50 195.26 150.15 196.28 148.80 197.31 C 144.26 197.14 140.25 196.69 135.82 195.62 C 135.26 194.79 134.78 193.93 134.38 193.04 Z" fill="#807883" />
<path d="M 152.92 194.33 C 155.38 194.99 157.81 195.65 160.37 195.81 C 155.93 197.84 153.64 198.29 148.80 197.31 C 150.15 196.28 151.50 195.26 152.92 194.33 Z" fill="#686377" />
<path d="M 184.08 194.02 C 182.99 196.34 182.00 197.59 179.84 198.99 C 180.76 196.39 181.77 195.42 184.08 194.02 Z" fill="#7a7078" />
<path d="M 94.10 195.09 C 95.38 196.38 96.59 197.74 97.79 199.12 C 98.69 201.79 99.68 204.42 100.68 207.05 C 101.32 208.79 101.86 210.65 102.76 212.29 C 104.27 213.44 106.38 213.92 107.72 215.25 C 107.92 216.13 108.08 217.03 108.23 217.93 C 105.95 217.33 103.70 216.66 101.49 215.87 C 100.35 214.94 99.24 213.98 98.07 213.09 C 96.56 208.44 93.88 204.58 91.70 200.26 C 92.60 199.36 93.50 198.47 94.40 197.58 C 94.29 196.75 94.19 195.92 94.10 195.09 Z" fill="#ca4a41" />
<path d="M 116.41 198.05 C 117.86 197.11 119.16 199.49 117.25 199.79 C 116.25 199.47 115.97 198.89 116.41 198.05 Z" fill="#c5b7b9" />
<path d="M 141.85 197.77 C 141.78 198.81 141.71 199.84 141.64 200.87 C 140.05 201.10 138.48 201.24 136.87 201.18 C 138.39 199.80 140.03 198.73 141.85 197.77 Z" fill="#6a647a" />
<path d="M 80.71 199.41 C 80.44 201.96 81.31 203.23 82.77 205.22 C 82.54 205.98 82.33 206.74 82.11 207.50 C 79.02 205.42 77.36 203.78 75.56 200.50 L 76.54 200.42 C 77.95 200.17 79.33 199.81 80.71 199.41 Z" fill="#d9c1b9" />
<path d="M 80.71 199.41 C 84.22 202.01 86.97 205.76 89.94 209.07 C 90.78 213.01 93.21 215.66 95.75 218.62 C 95.18 221.69 97.48 223.58 99.64 225.32 C 103.30 227.72 107.71 228.07 111.18 230.94 C 106.08 230.91 101.24 229.29 96.19 229.10 C 92.28 221.89 88.49 214.49 85.03 207.05 C 84.14 207.52 83.25 208.00 82.37 208.48 L 82.11 207.50 C 82.33 206.74 82.54 205.98 82.77 205.22 C 81.31 203.23 80.44 201.96 80.71 199.41 Z" fill="#994c42" />
<path d="M 114.05 202.15 C 118.02 203.00 120.06 203.99 122.86 206.99 C 123.58 206.42 124.31 205.85 125.03 205.29 C 125.45 205.96 125.86 206.63 126.27 207.30 C 124.58 208.08 123.15 209.08 121.21 208.85 C 118.30 207.56 115.97 204.61 114.05 202.15 Z" fill="#7d7783" />
<path d="M 36.05 203.00 C 35.85 206.96 36.45 210.59 37.73 214.35 C 38.95 218.25 39.87 222.24 42.54 225.46 C 44.43 227.81 47.29 229.29 49.79 230.93 C 45.74 232.54 42.54 228.97 39.36 226.99 C 39.86 228.45 40.35 229.92 40.81 231.39 C 39.32 230.93 37.62 230.63 36.30 229.78 C 34.78 228.13 33.64 226.11 32.41 224.24 C 33.34 220.82 34.71 217.52 35.61 214.11 C 36.05 210.32 34.79 206.79 36.05 203.00 Z" fill="#9c493e" />
<path d="M 168.92 202.68 C 169.79 203.90 170.63 205.15 171.44 206.42 C 170.60 206.52 169.76 206.63 168.93 206.75 C 168.11 206.06 167.29 205.37 166.47 204.68 C 167.28 204.01 168.10 203.34 168.92 202.68 Z" fill="#8e8b99" />
<path d="M 157.13 206.10 C 158.90 204.94 160.04 207.76 157.96 208.14 C 156.83 207.80 156.56 207.12 157.13 206.10 Z" fill="#6c667b" />
<path d="M 100.68 207.05 C 104.90 208.40 107.42 211.37 110.85 213.92 L 109.12 214.21 C 110.41 218.02 114.12 218.13 116.93 221.07 C 120.28 224.27 123.73 230.16 128.86 230.21 C 126.37 231.28 123.77 232.79 121.02 232.95 C 118.68 233.01 116.21 232.53 113.87 232.24 C 115.69 232.20 117.51 232.09 119.33 231.97 C 118.61 229.59 117.52 227.77 115.97 225.85 C 115.30 226.86 114.63 227.87 113.97 228.88 C 110.60 225.63 107.18 222.42 103.82 219.16 C 102.81 218.21 102.10 217.10 101.49 215.87 C 103.70 216.66 105.95 217.33 108.23 217.93 C 108.08 217.03 107.92 216.13 107.72 215.25 C 106.38 213.92 104.27 213.44 102.76 212.29 C 101.86 210.65 101.32 208.79 100.68 207.05 Z" fill="#dad1ca" />
<path d="M 202.54 206.73 C 204.47 208.13 206.39 209.55 208.32 210.95 C 207.51 211.73 206.71 212.53 205.91 213.33 C 204.09 211.26 203.18 209.37 202.54 206.73 Z" fill="#a08680" />
<path d="M 167.02 207.38 C 167.77 208.17 168.51 208.99 169.23 209.82 C 167.75 209.81 166.27 209.80 164.79 209.81 C 165.51 208.97 166.25 208.16 167.02 207.38 Z" fill="#a29ea9" />
<path d="M 27.92 208.90 C 27.47 212.66 27.28 216.42 27.17 220.20 C 26.71 218.81 26.19 217.45 25.67 216.08 C 25.07 217.42 24.48 218.77 23.88 220.12 C 23.33 217.82 22.86 215.56 23.06 213.17 C 23.43 212.19 23.82 211.22 24.21 210.25 C 25.45 209.80 26.68 209.34 27.92 208.90 Z" fill="#d0bbb9" />
<path d="M 61.38 209.64 C 62.00 210.42 62.13 211.29 61.77 212.26 L 60.18 211.82 C 59.35 210.72 59.65 208.60 61.38 209.64 Z" fill="#ad6254" />
<path d="M 89.94 209.07 C 91.61 209.71 93.28 210.31 94.93 211.00 C 95.98 211.69 97.03 212.38 98.07 213.09 C 99.24 213.98 100.35 214.94 101.49 215.87 C 102.10 217.10 102.81 218.21 103.82 219.16 C 107.18 222.42 110.60 225.63 113.97 228.88 C 114.63 227.87 115.30 226.86 115.97 225.85 C 117.52 227.77 118.61 229.59 119.33 231.97 C 117.51 232.09 115.69 232.20 113.87 232.24 L 113.06 232.24 C 113.18 231.56 113.30 230.87 113.41 230.18 C 107.44 226.59 101.06 223.15 95.75 218.62 C 93.21 215.66 90.78 213.01 89.94 209.07 Z" fill="#ac7267" />
<path d="M 199.51 209.79 C 201.29 211.91 203.16 213.94 205.08 215.93 C 204.86 217.00 204.65 218.08 204.44 219.16 C 203.36 219.63 202.29 220.10 201.20 220.55 C 199.99 216.98 199.04 213.60 199.51 209.79 Z" fill="#9f7b74" />
<path d="M 208.32 210.95 C 210.34 212.21 212.13 213.24 214.60 213.16 C 216.11 214.25 217.65 215.29 219.21 216.29 C 217.71 216.47 216.22 216.70 214.72 216.92 C 212.60 215.32 210.40 215.27 207.86 215.38 C 207.20 214.70 206.55 214.02 205.91 213.33 C 206.71 212.53 207.51 211.73 208.32 210.95 Z" fill="#8f4d47" />
<path d="M 68.05 213.30 C 68.50 215.31 66.37 214.75 65.57 213.70 L 65.47 212.92 C 66.68 212.52 67.54 212.65 68.05 213.30 Z" fill="#7b6568" />
<path d="M 109.12 214.21 L 110.85 213.92 C 115.97 217.20 121.07 220.51 126.19 223.79 C 130.60 226.63 136.51 228.19 140.08 231.95 C 136.25 232.08 132.37 228.75 128.86 230.21 C 123.73 230.16 120.28 224.27 116.93 221.07 C 114.12 218.13 110.41 218.02 109.12 214.21 Z" fill="#c36434" />
<path d="M 207.86 215.38 C 210.40 215.27 212.60 215.32 214.72 216.92 C 213.50 217.12 212.27 217.32 211.05 217.51 C 211.92 219.41 212.68 221.34 213.38 223.30 C 211.25 222.07 209.11 220.87 206.91 219.76 C 207.21 218.30 207.51 216.83 207.86 215.38 Z" fill="#af918d" />
<path d="M 219.21 216.29 C 220.93 217.00 222.65 217.71 224.38 218.39 C 224.14 219.26 223.90 220.14 223.66 221.01 C 227.21 222.05 232.14 222.35 234.42 225.53 C 235.88 227.12 235.77 229.40 236.11 231.42 C 234.89 231.72 233.68 232.03 232.46 232.34 C 231.78 233.55 231.09 234.75 230.34 235.92 L 229.29 235.07 C 230.03 234.36 230.77 233.65 231.51 232.94 C 227.27 231.34 223.78 229.14 219.25 228.55 C 216.01 228.39 215.05 225.60 213.38 223.30 C 212.68 221.34 211.92 219.41 211.05 217.51 C 212.27 217.32 213.50 217.12 214.72 216.92 C 216.22 216.70 217.71 216.47 219.21 216.29 Z" fill="#b4653d" />
<path d="M 109.71 217.88 C 111.76 220.37 113.13 223.06 114.13 226.12 C 111.92 224.66 109.33 222.83 108.56 220.15 C 108.89 219.38 109.28 218.62 109.71 217.88 Z" fill="#af6859" />
<path d="M 192.35 218.81 C 195.44 219.55 197.94 220.86 201.20 220.55 C 202.29 220.10 203.36 219.63 204.44 219.16 C 205.26 219.36 206.09 219.56 206.91 219.76 C 209.05 223.24 211.25 226.53 214.30 229.28 C 209.93 231.03 204.90 230.61 200.27 231.43 C 197.71 230.41 195.27 228.63 193.26 226.75 C 191.86 224.92 191.36 222.25 190.69 220.07 C 191.24 219.65 191.79 219.23 192.35 218.81 Z" fill="#b66840" />
<path d="M 95.75 218.62 C 101.06 223.15 107.44 226.59 113.41 230.18 C 113.30 230.87 113.18 231.56 113.06 232.24 C 111.88 232.33 110.71 232.49 109.54 232.67 C 110.09 232.10 110.64 231.53 111.18 230.94 C 107.71 228.07 103.30 227.72 99.64 225.32 C 97.48 223.58 95.18 221.69 95.75 218.62 Z" fill="#211629" />
<path d="M 206.91 219.76 C 209.11 220.87 211.25 222.07 213.38 223.30 C 215.05 225.60 216.01 228.39 219.25 228.55 C 223.78 229.14 227.27 231.34 231.51 232.94 C 230.77 233.65 230.03 234.36 229.29 235.07 C 227.60 233.73 226.36 232.31 224.01 232.44 C 220.34 232.46 217.52 230.77 214.30 229.28 C 211.25 226.53 209.05 223.24 206.91 219.76 Z" fill="#1c1b31" />
<path d="M 129.29 232.07 L 130.00 231.66 L 130.72 232.08 L 130.71 232.90 L 130.00 233.31 L 129.28 232.90 L 129.29 232.07 Z" fill="#dad1ca" />
</svg>