<?xml version="1.0" encoding="UTF-8" standalone="no"?>
<!DOCTYPE svg PUBLIC "-//W3C//DTD SVG 1.1//EN" "http://www.w3.org/Graphics/SVG/1.1/DTD/svg11.dtd">
<svg xmlns="http://www.w3.org/2000/svg" version="1.1" viewBox="0 0 256 256" width="256.0pt" height="256.0pt">
<path d="M 0.00 0.00 L 256.00 0.00 L 256.00 256.00 L 0.00 256.00 L 0.00 0.00 Z" fill="#fdfdfd" />
<path d="M 92.04 13.13 C 105.64 12.62 115.47 20.02 129.05 18.20 C 144.01 18.91 159.99 20.67 174.82 17.72 C 177.64 17.39 184.60 15.05 184.30 19.81 L 184.42 20.66 C 183.90 21.73 183.39 22.79 182.89 23.87 C 182.27 24.52 181.65 25.17 181.03 25.82 C 176.92 23.74 175.04 27.93 171.84 29.86 C 168.43 32.27 167.04 35.02 165.62 38.84 C 161.90 36.73 163.68 33.83 162.48 30.45 C 160.35 26.61 155.51 29.07 154.69 32.70 C 152.41 36.81 150.06 40.90 147.79 45.01 C 146.58 48.71 146.96 51.36 142.94 53.21 C 139.63 55.38 137.18 58.61 133.95 60.94 L 133.21 60.96 C 130.06 60.96 126.92 61.03 123.78 61.23 C 123.72 59.00 122.33 58.17 120.76 59.99 C 117.86 59.71 115.04 59.08 112.17 58.58 C 110.12 58.15 108.04 58.03 105.94 58.04 C 102.86 58.03 99.83 58.07 96.80 57.35 C 98.84 56.07 100.86 54.78 102.98 53.64 C 107.17 51.65 110.72 51.84 115.21 52.46 C 111.72 47.97 105.89 51.12 101.74 52.77 C 95.81 55.13 90.36 59.82 83.63 57.34 C 81.55 56.31 75.32 55.48 80.08 58.86 C 76.18 61.04 72.39 58.70 69.17 61.51 C 66.99 62.69 64.79 63.85 62.62 65.08 C 57.91 67.72 53.58 71.19 49.87 75.11 C 47.44 73.61 45.05 72.07 42.47 70.84 C 41.37 70.01 40.25 69.46 38.95 69.02 C 34.33 66.50 29.03 66.22 24.32 63.80 C 22.95 63.02 22.81 64.05 21.81 64.78 C 19.97 62.49 19.50 62.14 22.31 60.46 C 30.05 60.62 37.32 59.65 45.01 61.03 C 54.24 60.31 57.13 55.34 56.22 46.56 C 55.39 44.32 52.45 43.22 56.22 42.18 C 61.60 41.51 48.37 38.84 54.76 38.27 C 56.44 39.15 57.88 39.73 59.81 39.75 C 67.87 43.71 73.39 40.40 80.99 37.44 C 82.31 37.16 83.64 36.88 84.97 36.60 C 86.38 38.80 86.84 38.82 85.47 41.16 C 90.94 41.55 93.73 35.78 98.41 35.80 C 93.29 42.12 82.48 44.18 74.81 45.17 C 72.52 44.72 65.06 46.54 66.66 49.24 C 70.58 51.27 76.67 49.04 80.96 48.88 C 91.08 51.49 107.26 50.98 113.52 41.14 C 113.88 39.49 113.91 37.83 113.94 36.14 C 116.58 34.87 119.30 34.04 122.18 33.50 C 124.41 33.62 126.61 33.97 128.82 34.33 C 130.13 34.56 131.44 34.74 132.76 34.88 C 134.43 34.61 144.38 40.47 141.08 35.93 C 143.18 34.20 145.13 32.38 146.70 30.15 C 145.32 28.74 144.18 27.02 142.00 27.11 C 131.62 26.54 121.10 25.89 110.71 26.29 C 109.57 25.62 108.43 24.91 107.25 24.31 C 99.04 20.12 91.06 18.00 82.32 22.33 C 75.61 25.70 70.79 30.93 64.78 35.24 C 62.88 35.76 61.04 36.44 59.17 37.02 C 57.97 35.95 54.96 35.67 56.59 33.65 C 58.33 29.05 61.63 27.03 65.53 24.49 C 72.93 17.75 82.13 14.12 92.04 13.13 Z" fill="#f1f0ed" />
<path d="M 228.47 17.41 C 230.95 17.02 232.61 14.99 234.79 17.20 C 243.85 24.79 243.97 35.24 240.77 45.83 C 237.10 58.33 244.82 67.62 242.75 79.85 C 241.74 87.05 238.41 93.53 237.64 100.82 C 235.84 108.66 238.26 115.12 239.34 122.82 C 241.77 137.81 238.94 151.52 234.68 165.81 C 231.35 182.04 241.42 197.68 238.36 213.06 C 234.43 212.28 237.26 207.23 235.13 206.23 C 234.92 208.55 234.85 210.88 234.74 213.21 C 233.47 207.13 235.25 202.55 227.10 202.12 C 225.54 201.58 224.07 200.85 222.63 200.04 C 226.66 194.43 230.38 190.07 226.77 182.88 C 225.65 180.70 224.59 178.50 223.78 176.19 C 223.55 172.60 223.02 169.06 223.00 165.46 C 227.72 159.82 228.58 151.78 232.31 145.28 C 233.34 140.01 233.67 131.94 232.07 126.81 C 232.30 124.38 232.60 122.27 231.19 120.11 C 230.65 118.74 230.16 117.35 229.66 115.96 C 228.59 112.84 226.88 109.86 225.55 106.80 C 228.07 100.94 230.02 94.99 232.09 88.97 C 233.71 87.39 233.40 85.85 232.64 83.91 C 233.73 78.21 237.00 74.12 235.86 67.99 C 234.20 71.57 232.68 75.02 229.95 77.96 C 227.78 78.86 227.67 79.83 228.09 82.01 C 227.14 83.76 226.20 85.51 225.19 87.22 C 223.53 87.12 221.85 87.02 220.20 86.84 C 222.39 83.10 225.13 81.12 223.37 76.38 C 220.95 74.87 220.56 73.76 219.79 71.00 C 220.16 70.39 220.53 69.79 220.91 69.19 C 222.35 66.90 224.39 65.40 223.10 62.49 C 222.94 61.24 222.40 59.72 222.79 58.49 C 227.51 61.01 227.69 56.21 229.92 53.14 C 232.05 49.32 233.59 45.32 234.72 41.10 L 235.23 39.29 C 236.40 35.60 236.41 31.50 235.25 27.80 C 234.89 26.48 234.47 25.18 234.00 23.89 C 232.74 21.24 229.26 17.69 226.21 20.12 C 224.11 21.98 224.62 24.65 221.24 25.36 C 213.92 30.78 213.41 48.06 202.96 50.16 C 199.09 52.95 195.58 58.72 193.62 63.20 C 193.34 63.82 193.08 64.46 192.82 65.09 C 191.52 63.91 189.94 62.64 189.09 61.09 C 190.96 56.82 195.61 53.13 192.78 48.28 C 191.51 45.42 192.78 46.75 194.82 46.32 C 196.51 41.76 194.45 35.84 193.79 31.15 C 193.87 28.14 188.68 30.06 189.52 27.31 C 189.74 24.91 189.54 18.59 186.10 22.64 C 185.93 21.76 185.78 20.88 185.63 20.00 C 186.00 18.82 186.52 18.23 187.21 18.23 C 194.93 17.13 198.60 28.76 206.89 26.92 C 212.36 24.79 215.83 18.56 221.85 16.82 C 224.11 16.50 227.82 13.90 228.47 17.41 Z" fill="#f1f1ef" />
<path d="M 234.00 23.89 C 230.14 21.09 227.54 27.71 224.97 29.92 C 218.05 40.06 213.31 50.72 209.51 62.38 C 207.67 71.13 202.66 79.00 200.17 87.47 C 202.08 87.63 203.65 87.84 205.33 88.87 C 203.42 92.31 201.36 95.64 199.00 98.80 C 196.78 98.13 195.34 97.76 193.39 99.37 C 189.30 104.20 185.62 109.64 181.91 114.76 C 180.29 116.27 182.97 115.70 183.86 116.25 C 185.75 116.26 185.27 119.66 185.48 120.89 C 186.71 119.76 187.83 118.52 188.88 117.22 C 190.11 115.92 190.78 114.85 190.97 113.04 C 192.56 112.43 193.30 111.62 194.14 110.18 C 195.44 108.93 196.68 107.92 196.99 106.02 C 197.36 104.70 197.65 103.36 197.96 102.03 C 200.76 101.32 201.84 99.22 203.63 97.25 C 205.39 97.74 206.36 95.24 207.56 94.26 C 208.48 96.71 209.50 99.06 210.89 101.28 C 202.73 109.24 198.72 119.76 190.86 127.88 C 190.30 128.47 189.75 129.05 189.21 129.64 C 188.04 130.78 186.89 131.94 185.72 133.08 C 179.70 139.63 171.15 146.96 169.11 155.87 C 167.31 157.66 165.62 159.51 164.30 161.70 C 160.56 165.02 157.08 168.76 152.94 171.47 C 150.64 171.45 148.37 171.17 146.07 171.18 C 145.12 175.34 150.97 172.94 147.01 175.91 C 145.77 176.94 144.64 178.08 143.54 179.25 C 142.39 178.51 136.29 179.44 138.97 177.08 C 140.66 175.24 138.00 176.23 136.94 175.80 C 140.89 171.67 148.69 166.56 148.07 159.99 C 148.64 155.05 142.07 157.19 142.27 152.43 C 138.63 152.90 133.44 151.36 136.96 147.04 C 135.25 145.14 133.97 141.60 130.86 142.70 C 128.06 143.35 127.58 141.66 125.88 139.98 C 127.25 139.65 128.62 139.61 130.01 139.47 C 128.08 134.91 121.62 136.47 117.76 133.14 C 121.66 132.98 125.07 133.94 128.69 132.12 C 125.55 137.05 129.36 134.02 132.42 134.53 C 133.84 138.30 136.77 138.56 140.17 139.68 C 139.00 137.59 134.54 135.62 135.60 133.05 C 140.52 136.85 144.90 140.77 150.88 135.88 C 153.46 133.73 155.71 131.24 158.45 129.27 C 159.79 128.37 161.01 127.42 161.94 126.08 C 166.85 119.60 172.08 113.20 177.61 107.23 C 181.53 107.65 182.87 101.99 186.14 100.11 C 188.95 98.53 187.39 95.40 187.29 92.83 C 189.70 88.52 193.62 86.36 196.72 82.73 C 201.56 75.53 203.38 67.95 206.29 59.98 C 207.21 58.27 208.38 55.00 205.68 54.30 L 204.82 54.01 C 205.34 51.19 206.02 51.37 202.96 50.16 C 213.41 48.06 213.92 30.78 221.24 25.36 C 224.62 24.65 224.11 21.98 226.21 20.12 C 229.26 17.69 232.74 21.24 234.00 23.89 Z" fill="#e4d0a2" />
<path d="M 107.25 24.31 C 104.13 28.34 102.92 28.30 98.18 26.83 C 95.02 23.01 85.01 22.75 82.37 27.28 C 81.28 29.39 84.17 28.55 85.39 29.02 C 82.19 30.38 79.01 31.38 76.07 33.29 C 74.20 34.01 70.80 30.86 70.99 33.97 C 71.35 36.98 66.56 35.04 64.78 35.24 C 70.79 30.93 75.61 25.70 82.32 22.33 C 91.06 18.00 99.04 20.12 107.25 24.31 Z" fill="#9c7145" />
<path d="M 184.30 19.81 L 185.63 20.00 C 185.78 20.88 185.93 21.76 186.10 22.64 C 189.54 18.59 189.74 24.91 189.52 27.31 C 188.68 30.06 193.87 28.14 193.79 31.15 C 194.45 35.84 196.51 41.76 194.82 46.32 C 192.78 46.75 191.51 45.42 192.78 48.28 C 195.61 53.13 190.96 56.82 189.09 61.09 C 189.94 62.64 191.52 63.91 192.82 65.09 L 193.14 65.88 C 191.76 66.31 191.08 67.60 189.90 66.09 C 187.26 62.16 182.21 59.47 185.34 54.32 C 188.30 50.32 188.03 47.70 187.16 43.04 C 187.46 40.89 187.75 38.37 187.00 36.30 C 185.65 36.71 184.33 37.22 182.98 37.67 C 183.93 35.13 185.14 32.72 186.00 30.15 C 184.28 31.37 182.87 32.77 180.81 33.42 C 183.40 29.62 185.55 25.38 184.42 20.66 L 184.30 19.81 Z" fill="#dac390" />
<path d="M 184.42 20.66 C 185.55 25.38 183.40 29.62 180.81 33.42 C 178.28 37.21 175.28 40.34 172.11 43.59 C 164.63 49.49 159.82 57.65 152.98 63.95 C 154.84 56.61 162.01 50.56 166.04 44.09 C 169.44 38.38 174.84 34.37 178.89 29.08 C 182.39 31.16 182.01 25.93 182.89 23.87 C 183.39 22.79 183.90 21.73 184.42 20.66 Z" fill="#312a2f" />
<path d="M 157.83 22.89 C 152.16 33.89 146.81 44.62 137.60 53.20 C 136.66 50.29 142.58 46.31 137.72 45.94 C 141.11 40.04 146.69 36.95 150.41 31.40 C 152.59 28.75 154.46 24.04 157.83 22.89 Z" fill="#1e2036" />
<path d="M 234.00 23.89 C 234.47 25.18 234.89 26.48 235.25 27.80 C 234.96 31.66 234.97 35.43 235.23 39.29 L 234.72 41.10 C 234.36 39.76 233.99 38.41 233.60 37.07 C 231.72 42.09 230.25 47.16 227.64 51.89 C 225.92 53.91 223.79 56.02 222.79 58.49 C 222.40 59.72 222.94 61.24 223.10 62.49 C 220.97 64.77 220.25 66.08 220.91 69.19 C 220.53 69.79 220.16 70.39 219.79 71.00 C 216.25 77.07 213.21 83.33 208.89 88.94 C 205.98 89.15 205.63 90.27 206.13 92.97 C 205.30 94.39 204.48 95.83 203.63 97.25 C 201.84 99.22 200.76 101.32 197.96 102.03 C 198.30 100.95 198.65 99.87 199.00 98.80 C 201.36 95.64 203.42 92.31 205.33 88.87 C 216.10 71.17 222.00 50.29 224.97 29.92 C 227.54 27.71 230.14 21.09 234.00 23.89 Z" fill="#29273a" />
<path d="M 98.18 26.83 C 93.47 26.73 89.75 27.26 85.39 29.02 C 84.17 28.55 81.28 29.39 82.37 27.28 C 85.01 22.75 95.02 23.01 98.18 26.83 Z" fill="#8f4b35" />
<path d="M 107.25 24.31 C 108.43 24.91 109.57 25.62 110.71 26.29 C 113.27 28.94 119.30 25.35 119.89 30.63 C 113.82 31.73 108.12 32.91 101.90 32.30 C 100.20 31.91 99.51 34.81 98.41 35.80 C 93.73 35.78 90.94 41.55 85.47 41.16 C 86.84 38.82 86.38 38.80 84.97 36.60 C 87.92 34.58 99.39 34.76 97.91 30.19 C 89.00 28.00 87.85 34.07 80.56 36.35 L 80.99 37.44 C 73.39 40.40 67.87 43.71 59.81 39.75 C 65.84 38.52 71.44 37.77 76.07 33.29 C 79.01 31.38 82.19 30.38 85.39 29.02 C 89.75 27.26 93.47 26.73 98.18 26.83 C 102.92 28.30 104.13 28.34 107.25 24.31 Z" fill="#e2cb9f" />
<path d="M 182.89 23.87 C 182.01 25.93 182.39 31.16 178.89 29.08 C 179.61 28.00 180.32 26.91 181.03 25.82 C 181.65 25.17 182.27 24.52 182.89 23.87 Z" fill="#6f6662" />
<path d="M 181.03 25.82 C 180.32 26.91 179.61 28.00 178.89 29.08 C 174.84 34.37 169.44 38.38 166.04 44.09 C 162.01 50.56 154.84 56.61 152.98 63.95 C 150.78 65.06 149.88 67.00 148.45 68.86 C 147.44 67.77 146.60 67.35 145.20 66.90 L 145.23 66.19 C 148.35 59.82 148.58 57.99 142.94 53.21 C 146.96 51.36 146.58 48.71 147.79 45.01 C 148.12 47.58 148.69 48.81 150.98 50.10 C 154.73 46.94 158.47 43.41 161.96 39.96 C 159.38 36.90 161.91 33.47 158.87 31.37 C 157.45 31.70 156.07 32.22 154.69 32.70 C 155.51 29.07 160.35 26.61 162.48 30.45 C 163.68 33.83 161.90 36.73 165.62 38.84 C 167.04 35.02 168.43 32.27 171.84 29.86 C 175.04 27.93 176.92 23.74 181.03 25.82 Z" fill="#d3b882" />
<path d="M 110.71 26.29 C 121.10 25.89 131.62 26.54 142.00 27.11 C 144.18 27.02 145.32 28.74 146.70 30.15 C 145.13 32.38 143.18 34.20 141.08 35.93 C 139.25 36.01 132.67 31.50 132.76 34.88 C 131.44 34.74 130.13 34.56 128.82 34.33 C 129.90 34.13 130.98 33.91 132.05 33.67 C 127.68 31.38 122.49 31.64 117.79 32.56 C 116.09 32.90 114.44 33.28 112.91 34.14 C 111.44 34.96 110.05 35.99 108.67 36.96 L 107.09 37.28 C 105.25 35.73 103.57 34.02 101.90 32.30 C 108.12 32.91 113.82 31.73 119.89 30.63 C 119.30 25.35 113.27 28.94 110.71 26.29 Z" fill="#ebdcbc" />
<path d="M 235.25 27.80 C 236.41 31.50 236.40 35.60 235.23 39.29 C 234.97 35.43 234.96 31.66 235.25 27.80 Z" fill="#888898" />
<path d="M 97.91 30.19 C 99.39 34.76 87.92 34.58 84.97 36.60 C 83.64 36.88 82.31 37.16 80.99 37.44 L 80.56 36.35 C 87.85 34.07 89.00 28.00 97.91 30.19 Z" fill="#956e3e" />
<path d="M 186.00 30.15 C 185.14 32.72 183.93 35.13 182.98 37.67 C 184.33 37.22 185.65 36.71 187.00 36.30 C 187.75 38.37 187.46 40.89 187.16 43.04 C 181.79 45.75 178.68 53.28 174.14 57.48 C 173.67 54.05 171.24 51.79 173.40 48.55 C 174.43 47.39 171.32 47.59 170.82 47.54 C 171.73 46.08 173.20 45.45 172.11 43.59 C 175.28 40.34 178.28 37.21 180.81 33.42 C 182.87 32.77 184.28 31.37 186.00 30.15 Z" fill="#c09652" />
<path d="M 224.97 29.92 C 222.00 50.29 216.10 71.17 205.33 88.87 C 203.65 87.84 202.08 87.63 200.17 87.47 C 202.66 79.00 207.67 71.13 209.51 62.38 C 213.31 50.72 218.05 40.06 224.97 29.92 Z" fill="#bd9963" />
<path d="M 158.87 31.37 C 161.91 33.47 159.38 36.90 161.96 39.96 C 158.47 43.41 154.73 46.94 150.98 50.10 C 148.69 48.81 148.12 47.58 147.79 45.01 C 150.06 40.90 152.41 36.81 154.69 32.70 C 156.07 32.22 157.45 31.70 158.87 31.37 Z" fill="#c29b5c" />
<path d="M 76.07 33.29 C 71.44 37.77 65.84 38.52 59.81 39.75 C 57.88 39.73 56.44 39.15 54.76 38.27 C 56.25 37.91 57.71 37.49 59.17 37.02 C 61.04 36.44 62.88 35.76 64.78 35.24 C 66.56 35.04 71.35 36.98 70.99 33.97 C 70.80 30.86 74.20 34.01 76.07 33.29 Z" fill="#b79768" />
<path d="M 101.90 32.30 C 103.57 34.02 105.25 35.73 107.09 37.28 C 97.87 41.52 92.56 47.90 81.09 47.05 C 79.02 46.35 76.91 45.77 74.81 45.17 C 82.48 44.18 93.29 42.12 98.41 35.80 C 99.51 34.81 100.20 31.91 101.90 32.30 Z" fill="#9e7348" />
<path d="M 132.05 33.67 C 130.98 33.91 129.90 34.13 128.82 34.33 C 126.61 33.97 124.41 33.62 122.18 33.50 C 120.71 33.20 119.25 32.86 117.79 32.56 C 122.49 31.64 127.68 31.38 132.05 33.67 Z" fill="#ad846f" />
<path d="M 117.79 32.56 C 119.25 32.86 120.71 33.20 122.18 33.50 C 119.30 34.04 116.58 34.87 113.94 36.14 C 113.59 35.48 113.25 34.81 112.91 34.14 C 114.44 33.28 116.09 32.90 117.79 32.56 Z" fill="#794437" />
<path d="M 141.08 35.93 C 144.38 40.47 134.43 34.61 132.76 34.88 C 132.67 31.50 139.25 36.01 141.08 35.93 Z" fill="#a68873" />
<path d="M 112.91 34.14 C 113.25 34.81 113.59 35.48 113.94 36.14 C 113.91 37.83 113.88 39.49 113.52 41.14 C 112.96 37.79 110.92 38.58 108.67 36.96 C 110.05 35.99 111.44 34.96 112.91 34.14 Z" fill="#b07a72" />
<path d="M 107.09 37.28 L 108.67 36.96 C 110.92 38.58 112.96 37.79 113.52 41.14 C 107.26 50.98 91.08 51.49 80.96 48.88 L 81.09 47.05 C 92.56 47.90 97.87 41.52 107.09 37.28 Z" fill="#94503f" />
<path d="M 233.60 37.07 C 233.99 38.41 234.36 39.76 234.72 41.10 C 233.59 45.32 232.05 49.32 229.92 53.14 C 229.16 52.73 228.40 52.31 227.64 51.89 C 230.25 47.16 231.72 42.09 233.60 37.07 Z" fill="#676879" />
<path d="M 187.16 43.04 C 188.03 47.70 188.30 50.32 185.34 54.32 C 182.21 59.47 187.26 62.16 189.90 66.09 C 191.08 67.60 191.76 66.31 193.14 65.88 C 194.07 69.69 190.64 75.64 188.32 78.75 L 189.92 79.17 C 188.85 81.10 187.70 82.98 186.48 84.81 C 184.58 84.77 183.50 85.92 181.90 86.74 C 182.46 84.80 183.26 82.95 183.86 81.03 C 180.98 81.39 177.50 85.16 175.10 82.70 C 173.00 79.01 166.92 81.25 164.37 76.46 C 161.66 78.79 159.39 81.66 156.76 84.10 L 155.49 82.88 C 155.30 79.73 158.95 79.63 158.42 76.16 C 158.16 71.53 159.59 70.16 162.19 66.64 C 161.59 64.67 160.41 60.09 164.10 61.92 C 168.57 64.11 171.34 60.39 174.14 57.48 C 178.68 53.28 181.79 45.75 187.16 43.04 Z" fill="#d1b16e" />
<path d="M 172.11 43.59 C 173.20 45.45 171.73 46.08 170.82 47.54 C 166.39 53.45 161.26 59.10 157.07 65.08 C 155.09 68.75 155.79 70.10 157.04 73.79 C 154.73 72.44 152.46 71.06 150.03 69.93 C 151.11 67.98 152.16 66.03 152.98 63.95 C 159.82 57.65 164.63 49.49 172.11 43.59 Z" fill="#cfb078" />
<path d="M 74.81 45.17 C 76.91 45.77 79.02 46.35 81.09 47.05 L 80.96 48.88 C 76.67 49.04 70.58 51.27 66.66 49.24 C 65.06 46.54 72.52 44.72 74.81 45.17 Z" fill="#c0a98d" />
<path d="M 137.72 45.94 C 142.58 46.31 136.66 50.29 137.60 53.20 C 136.28 55.23 134.75 57.72 132.09 57.98 C 133.50 53.87 135.51 49.67 137.72 45.94 Z" fill="#3e3f52" />
<path d="M 173.40 48.55 C 171.24 51.79 173.67 54.05 174.14 57.48 C 171.34 60.39 168.57 64.11 164.10 61.92 C 160.41 60.09 161.59 64.67 162.19 66.64 C 159.59 70.16 158.16 71.53 158.42 76.16 C 158.95 79.63 155.30 79.73 155.49 82.88 L 154.69 83.90 C 150.25 87.58 157.63 89.74 152.84 93.23 C 145.31 84.39 142.46 74.42 131.98 68.96 C 136.28 68.62 139.31 70.07 143.08 71.75 C 142.23 70.08 141.19 68.52 140.26 66.88 C 142.81 67.59 145.48 72.36 145.20 66.90 C 146.60 67.35 147.44 67.77 148.45 68.86 C 148.90 69.30 149.43 69.65 150.03 69.93 C 152.46 71.06 154.73 72.44 157.04 73.79 C 155.79 70.10 155.09 68.75 157.07 65.08 C 161.26 59.10 166.39 53.45 170.82 47.54 C 171.32 47.59 174.43 47.39 173.40 48.55 Z" fill="#b38444" />
<path d="M 115.21 52.46 C 110.72 51.84 107.17 51.65 102.98 53.64 L 101.74 52.77 C 105.89 51.12 111.72 47.97 115.21 52.46 Z" fill="#a1a0a7" />
<path d="M 202.96 50.16 C 206.02 51.37 205.34 51.19 204.82 54.01 C 202.08 57.34 201.26 62.19 199.35 66.11 C 198.67 64.44 197.95 62.82 197.01 61.27 C 195.80 62.11 195.25 63.54 193.62 63.20 C 195.58 58.72 199.09 52.95 202.96 50.16 Z" fill="#cfb99a" />
<path d="M 227.64 51.89 C 228.40 52.31 229.16 52.73 229.92 53.14 C 227.69 56.21 227.51 61.01 222.79 58.49 C 223.79 56.02 225.92 53.91 227.64 51.89 Z" fill="#acabab" />
<path d="M 101.74 52.77 L 102.98 53.64 C 100.86 54.78 98.84 56.07 96.80 57.35 C 94.20 58.78 91.59 60.50 88.79 61.49 C 85.86 60.71 83.10 59.41 80.08 58.86 C 75.32 55.48 81.55 56.31 83.63 57.34 C 90.36 59.82 95.81 55.13 101.74 52.77 Z" fill="#322b32" />
<path d="M 142.94 53.21 C 148.58 57.99 148.35 59.82 145.23 66.19 C 140.61 65.23 137.66 63.79 133.95 60.94 C 137.18 58.61 139.63 55.38 142.94 53.21 Z" fill="#e4d6b8" />
<path d="M 204.82 54.01 L 205.68 54.30 C 205.74 56.23 205.93 58.09 206.29 59.98 C 203.38 67.95 201.56 75.53 196.72 82.73 C 193.62 86.36 189.70 88.52 187.29 92.83 C 184.11 97.75 181.65 102.89 177.61 107.23 C 172.08 113.20 166.85 119.60 161.94 126.08 C 161.27 125.80 160.61 125.52 159.94 125.24 C 163.19 121.41 166.20 117.30 169.31 113.35 C 169.88 112.56 170.45 111.76 171.01 110.96 C 172.55 108.57 177.12 104.04 176.66 101.35 C 172.49 99.70 168.74 98.94 165.90 95.09 L 166.94 95.04 C 170.34 96.40 175.04 99.77 178.61 99.60 C 181.18 94.63 183.86 89.75 186.48 84.81 C 187.70 82.98 188.85 81.10 189.92 79.17 C 192.27 74.03 196.46 70.70 199.35 66.11 C 201.26 62.19 202.08 57.34 204.82 54.01 Z" fill="#252334" />
<path d="M 205.68 54.30 C 208.38 55.00 207.21 58.27 206.29 59.98 C 205.93 58.09 205.74 56.23 205.68 54.30 Z" fill="#877a6d" />
<path d="M 96.80 57.35 C 99.83 58.07 102.86 58.03 105.94 58.04 C 111.07 60.83 101.51 59.55 100.05 62.46 C 94.60 62.12 83.51 65.46 80.93 70.71 C 73.59 69.36 84.42 64.77 79.01 62.96 C 73.56 67.87 68.30 71.07 65.11 77.07 C 64.61 79.66 66.57 78.69 68.29 79.37 C 67.08 80.90 65.65 82.19 64.34 83.62 C 67.20 85.12 67.98 86.69 71.05 84.46 C 73.47 86.36 69.06 88.12 67.99 89.70 C 65.30 85.83 64.75 90.13 61.81 86.26 L 63.83 85.72 C 60.64 81.07 54.59 77.97 49.87 75.11 C 53.58 71.19 57.91 67.72 62.62 65.08 C 63.19 69.43 69.27 63.40 69.17 61.51 C 72.39 58.70 76.18 61.04 80.08 58.86 C 83.10 59.41 85.86 60.71 88.79 61.49 C 91.59 60.50 94.20 58.78 96.80 57.35 Z" fill="#b0834b" />
<path d="M 105.94 58.04 C 108.04 58.03 110.12 58.15 112.17 58.58 C 107.71 59.11 109.66 59.14 111.25 61.75 C 108.42 63.74 105.11 65.12 103.00 67.74 C 107.87 66.77 111.55 68.69 115.90 70.50 C 112.77 72.93 107.66 70.25 103.96 70.22 C 100.60 69.71 97.37 70.66 94.82 68.06 C 96.30 66.03 98.24 64.21 100.05 62.46 C 101.51 59.55 111.07 60.83 105.94 58.04 Z" fill="#d7a06b" />
<path d="M 112.17 58.58 C 115.04 59.08 117.86 59.71 120.76 59.99 C 121.72 60.55 122.73 60.96 123.78 61.23 C 125.21 62.40 126.10 62.84 127.98 62.95 C 126.86 63.65 126.32 64.37 126.35 65.12 C 127.45 66.22 128.74 67.16 129.97 68.10 C 123.50 66.77 117.69 63.38 111.25 61.75 C 109.66 59.14 107.71 59.11 112.17 58.58 Z" fill="#b48756" />
<path d="M 123.78 61.23 C 122.73 60.96 121.72 60.55 120.76 59.99 C 122.33 58.17 123.72 59.00 123.78 61.23 Z" fill="#2f2a29" />
<path d="M 123.78 61.23 C 126.92 61.03 130.06 60.96 133.21 60.96 C 133.31 62.61 133.84 62.67 132.03 63.38 C 130.68 63.14 129.33 63.00 127.98 62.95 C 126.10 62.84 125.21 62.40 123.78 61.23 Z" fill="#32313a" />
<path d="M 133.21 60.96 L 133.95 60.94 C 137.66 63.79 140.61 65.23 145.23 66.19 L 145.20 66.90 C 145.48 72.36 142.81 67.59 140.26 66.88 C 141.19 68.52 142.23 70.08 143.08 71.75 C 139.31 70.07 136.28 68.62 131.98 68.96 C 131.31 68.67 130.64 68.38 129.97 68.10 C 128.74 67.16 127.45 66.22 126.35 65.12 C 128.43 65.10 130.22 64.33 132.03 63.38 C 133.84 62.67 133.31 62.61 133.21 60.96 Z" fill="#bfa07a" />
<path d="M 197.01 61.27 C 197.95 62.82 198.67 64.44 199.35 66.11 C 196.46 70.70 192.27 74.03 189.92 79.17 L 188.32 78.75 C 190.64 75.64 194.07 69.69 193.14 65.88 L 192.82 65.09 C 193.08 64.46 193.34 63.82 193.62 63.20 C 195.25 63.54 195.80 62.11 197.01 61.27 Z" fill="#e1d3bd" />
<path d="M 69.17 61.51 C 69.27 63.40 63.19 69.43 62.62 65.08 C 64.79 63.85 66.99 62.69 69.17 61.51 Z" fill="#7b5a39" />
<path d="M 100.05 62.46 C 98.24 64.21 96.30 66.03 94.82 68.06 C 97.37 70.66 100.60 69.71 103.96 70.22 C 107.66 70.25 112.77 72.93 115.90 70.50 C 111.55 68.69 107.87 66.77 103.00 67.74 C 105.11 65.12 108.42 63.74 111.25 61.75 C 117.69 63.38 123.50 66.77 129.97 68.10 C 130.64 68.38 131.31 68.67 131.98 68.96 C 142.46 74.42 145.31 84.39 152.84 93.23 C 153.26 93.74 153.68 94.26 154.10 94.77 C 155.38 97.97 157.18 100.85 158.96 103.79 C 156.75 109.16 165.53 110.26 168.38 112.97 C 160.29 114.79 156.87 106.03 151.24 101.77 C 147.79 98.42 144.11 95.27 140.88 91.70 C 138.69 89.01 135.63 88.74 132.63 87.41 C 131.57 83.94 129.41 81.87 127.11 79.24 C 129.42 78.29 135.14 80.13 133.98 76.06 C 134.47 71.64 128.60 74.82 127.15 76.69 C 125.12 73.29 118.97 76.14 117.24 79.59 C 118.82 80.54 120.46 81.41 122.07 82.30 L 120.64 83.19 C 117.03 81.86 112.98 81.60 109.17 81.17 C 105.79 80.86 102.45 80.72 99.14 79.90 C 100.57 73.77 95.42 76.76 92.70 78.68 C 90.82 80.07 89.01 81.51 87.11 82.84 C 83.95 81.41 81.15 86.86 79.28 83.69 C 78.41 77.17 83.94 78.61 86.23 73.25 C 88.40 70.96 83.13 71.19 81.97 71.03 L 80.93 70.71 C 83.51 65.46 94.60 62.12 100.05 62.46 Z" fill="#a45038" />
<path d="M 24.32 63.80 C 29.03 66.22 34.33 66.50 38.95 69.02 C 39.16 71.30 40.48 72.64 42.47 70.84 C 45.05 72.07 47.44 73.61 49.87 75.11 C 54.59 77.97 60.64 81.07 63.83 85.72 L 61.81 86.26 C 61.43 84.81 60.30 82.26 58.41 83.20 C 57.68 84.87 60.69 85.82 61.81 86.26 C 64.75 90.13 65.30 85.83 67.99 89.70 C 68.25 91.44 68.48 91.91 67.08 93.28 C 60.67 89.07 67.54 98.10 70.20 96.30 C 72.96 97.19 72.74 101.51 76.07 102.50 L 76.88 102.90 C 79.95 107.96 81.26 113.55 83.57 118.90 C 83.97 121.61 84.12 124.27 84.03 127.01 C 82.96 129.30 81.71 131.30 81.16 133.81 C 80.72 135.54 80.29 137.27 79.84 139.00 C 73.52 131.20 76.52 125.36 78.77 116.87 C 78.02 110.96 71.91 104.80 68.27 100.19 C 66.27 97.71 64.02 95.49 61.89 93.14 C 65.06 88.52 57.97 85.88 55.80 89.12 C 52.39 86.98 49.41 84.61 45.66 83.05 C 45.62 81.98 46.55 79.18 44.96 78.99 C 42.91 79.61 43.77 82.11 44.92 83.21 C 45.24 84.78 45.59 86.34 45.96 87.89 C 46.30 89.59 46.71 91.26 47.20 92.92 C 47.05 95.26 46.66 97.10 45.32 99.05 C 45.19 97.70 45.07 96.35 44.98 95.00 C 44.40 86.65 36.08 78.52 30.09 73.22 C 28.63 71.92 27.10 70.78 25.88 69.22 C 27.27 69.09 28.65 68.92 30.03 68.73 C 28.49 66.39 26.37 67.29 23.95 67.01 C 23.22 66.29 22.51 65.54 21.81 64.78 C 22.81 64.05 22.95 63.02 24.32 63.80 Z" fill="#2a273a" />
<path d="M 79.01 62.96 C 84.42 64.77 73.59 69.36 80.93 70.71 L 81.97 71.03 C 81.08 73.28 80.24 75.82 78.71 77.71 C 75.14 78.11 71.69 77.99 68.29 79.37 C 66.57 78.69 64.61 79.66 65.11 77.07 C 68.30 71.07 73.56 67.87 79.01 62.96 Z" fill="#dbb16b" />
<path d="M 127.98 62.95 C 129.33 63.00 130.68 63.14 132.03 63.38 C 130.22 64.33 128.43 65.10 126.35 65.12 C 126.32 64.37 126.86 63.65 127.98 62.95 Z" fill="#faf4ea" />
<path d="M 223.10 62.49 C 224.39 65.40 222.35 66.90 220.91 69.19 C 220.25 66.08 220.97 64.77 223.10 62.49 Z" fill="#7b7c88" />
<path d="M 152.98 63.95 C 152.16 66.03 151.11 67.98 150.03 69.93 C 149.43 69.65 148.90 69.30 148.45 68.86 C 149.88 67.00 150.78 65.06 152.98 63.95 Z" fill="#382717" />
<path d="M 23.95 67.01 C 26.37 67.29 28.49 66.39 30.03 68.73 C 28.65 68.92 27.27 69.09 25.88 69.22 C 25.25 68.48 24.60 67.75 23.95 67.01 Z" fill="#63647a" />
<path d="M 21.04 68.03 C 23.85 70.51 26.21 73.15 29.74 74.69 L 30.09 73.22 C 36.08 78.52 44.40 86.65 44.98 95.00 L 43.17 94.84 C 42.07 93.91 41.32 90.48 39.97 92.95 C 37.34 97.22 32.05 101.13 31.06 105.99 C 33.74 105.38 34.31 101.45 36.79 99.98 C 35.93 102.88 35.66 105.89 34.85 108.77 C 33.29 110.12 31.82 111.56 30.25 112.89 C 30.86 108.51 31.09 107.97 28.29 111.74 C 26.54 114.28 26.51 116.97 25.84 119.85 C 23.04 125.09 23.03 126.07 24.81 131.70 C 19.15 136.45 21.47 146.54 22.25 152.87 C 22.90 156.97 25.25 157.26 28.58 158.31 C 28.72 160.99 26.80 163.71 29.98 165.11 C 31.35 164.16 32.51 163.03 33.70 161.87 L 34.62 162.81 C 35.67 163.97 36.74 165.11 37.84 166.23 C 37.88 168.23 38.13 169.21 40.03 170.13 C 43.58 172.52 47.49 174.03 51.38 175.76 C 47.76 179.34 47.36 178.24 50.84 182.21 C 47.40 181.63 44.10 181.16 41.11 179.21 L 41.22 177.30 C 40.62 174.41 36.37 169.89 34.00 167.86 C 29.30 170.51 34.02 173.36 34.53 176.66 C 34.78 179.57 37.40 179.79 39.75 179.41 L 40.73 179.88 C 42.42 181.51 44.26 182.98 46.14 184.39 C 43.48 184.29 40.76 183.93 38.12 184.08 C 31.70 184.22 23.84 193.82 23.89 199.99 C 22.53 201.88 21.24 203.69 20.58 205.97 C 19.60 208.33 18.96 210.81 20.98 212.85 L 22.09 214.23 C 23.56 216.10 25.04 218.00 27.30 218.93 C 28.43 219.44 29.60 219.88 30.79 220.25 C 33.95 221.39 37.05 221.33 40.22 220.22 C 41.10 219.97 41.97 219.71 42.85 219.45 C 44.61 219.59 46.37 219.61 48.14 219.64 C 41.78 229.79 22.22 227.89 17.16 216.83 C 11.81 206.16 16.05 195.02 21.40 185.35 C 27.94 175.17 18.28 164.84 15.87 155.06 C 12.62 145.18 14.33 135.91 15.81 125.94 C 16.94 113.28 26.23 103.61 28.97 90.96 C 28.77 83.09 21.05 75.76 21.04 68.03 Z" fill="#f3f1ef" />
<path d="M 235.86 67.99 C 237.00 74.12 233.73 78.21 232.64 83.91 C 231.55 85.61 231.61 87.07 232.09 88.97 C 230.02 94.99 228.07 100.94 225.55 106.80 C 225.29 107.50 225.03 108.21 224.78 108.93 C 223.28 114.49 219.66 118.78 217.58 124.10 C 215.66 127.04 213.73 129.97 211.73 132.86 C 210.73 134.15 209.82 135.50 208.95 136.88 C 205.81 139.50 203.70 142.87 200.89 145.80 C 199.49 147.11 198.12 148.45 196.73 149.77 C 191.26 153.41 187.87 160.14 182.85 164.47 C 182.53 162.24 185.32 160.30 186.16 158.29 C 184.74 158.90 183.20 160.53 181.60 160.13 C 185.67 156.31 188.88 151.99 191.07 146.85 C 189.82 142.16 194.41 137.39 196.45 133.42 C 202.58 121.46 211.58 111.67 218.65 100.23 C 221.35 96.57 222.90 92.00 224.83 87.89 L 225.19 87.22 C 226.20 85.51 227.14 83.76 228.09 82.01 C 229.66 80.75 229.98 79.97 229.95 77.96 C 232.68 75.02 234.20 71.57 235.86 67.99 Z" fill="#27243b" />
<path d="M 38.95 69.02 C 40.25 69.46 41.37 70.01 42.47 70.84 C 40.48 72.64 39.16 71.30 38.95 69.02 Z" fill="#7b7a8f" />
<path d="M 59.27 69.12 C 54.39 74.88 64.49 69.17 59.27 69.12 Z" fill="#5e3a1c" />
<path d="M 81.97 71.03 C 83.13 71.19 88.40 70.96 86.23 73.25 C 83.94 78.61 78.41 77.17 79.28 83.69 C 81.15 86.86 83.95 81.41 87.11 82.84 C 85.60 85.11 83.94 86.91 84.02 89.81 C 85.52 89.52 86.98 88.94 88.50 88.75 C 93.30 93.18 101.95 92.28 101.95 84.24 C 99.32 83.96 96.67 84.00 94.03 83.78 C 95.43 81.80 96.72 80.56 99.14 79.90 C 102.45 80.72 105.79 80.86 109.17 81.17 C 107.18 84.17 104.31 86.40 102.28 89.31 C 100.96 93.14 104.65 91.51 106.98 92.35 C 105.13 94.03 103.01 95.45 100.90 96.79 C 97.64 97.06 94.41 97.71 91.14 97.85 C 86.35 96.25 84.00 92.71 80.47 89.51 C 77.41 86.89 75.24 90.23 73.62 92.63 C 71.37 96.22 75.76 99.23 77.38 102.11 L 76.07 102.50 C 72.74 101.51 72.96 97.19 70.20 96.30 C 69.11 95.34 68.08 94.33 67.08 93.28 C 68.48 91.91 68.25 91.44 67.99 89.70 C 69.06 88.12 73.47 86.36 71.05 84.46 C 67.98 86.69 67.20 85.12 64.34 83.62 C 65.65 82.19 67.08 80.90 68.29 79.37 C 71.69 77.99 75.14 78.11 78.71 77.71 C 80.24 75.82 81.08 73.28 81.97 71.03 Z" fill="#ae763b" />
<path d="M 219.79 71.00 C 220.56 73.76 220.95 74.87 223.37 76.38 C 225.13 81.12 222.39 83.10 220.20 86.84 C 221.85 87.02 223.53 87.12 225.19 87.22 L 224.83 87.89 C 223.18 88.23 220.73 87.61 219.90 89.44 C 216.92 93.38 214.05 97.47 210.89 101.28 C 209.50 99.06 208.48 96.71 207.56 94.26 C 206.36 95.24 205.39 97.74 203.63 97.25 C 204.48 95.83 205.30 94.39 206.13 92.97 C 207.47 91.74 208.25 90.65 208.89 88.94 C 213.21 83.33 216.25 77.07 219.79 71.00 Z" fill="#e6d7b6" />
<path d="M 133.98 76.06 C 135.14 80.13 129.42 78.29 127.11 79.24 C 129.41 81.87 131.57 83.94 132.63 87.41 C 135.63 88.74 138.69 89.01 140.88 91.70 C 138.85 93.47 139.87 93.71 140.55 95.82 C 139.07 95.99 137.59 96.08 136.11 96.25 C 137.10 98.40 138.62 100.12 140.16 101.88 C 140.11 102.94 140.06 104.00 140.01 105.06 C 134.52 101.44 134.09 94.07 126.23 95.67 C 122.84 94.66 117.90 95.62 115.49 92.85 C 118.45 91.36 123.19 89.32 126.30 91.28 C 127.75 92.32 129.29 93.22 130.95 93.88 C 133.29 89.29 127.35 81.00 122.07 82.30 C 120.46 81.41 118.82 80.54 117.24 79.59 C 118.97 76.14 125.12 73.29 127.15 76.69 C 128.60 74.82 134.47 71.64 133.98 76.06 Z" fill="#c29563" />
<path d="M 147.95 75.10 C 150.50 76.77 153.18 78.83 154.05 81.90 C 151.50 80.23 148.83 78.17 147.95 75.10 Z" fill="#634118" />
<path d="M 99.14 79.90 C 96.72 80.56 95.43 81.80 94.03 83.78 C 96.67 84.00 99.32 83.96 101.95 84.24 C 101.95 92.28 93.30 93.18 88.50 88.75 C 86.98 88.94 85.52 89.52 84.02 89.81 C 83.94 86.91 85.60 85.11 87.11 82.84 C 89.01 81.51 90.82 80.07 92.70 78.68 C 95.42 76.76 100.57 73.77 99.14 79.90 Z" fill="#ddb26b" />
<path d="M 164.37 76.46 C 166.92 81.25 173.00 79.01 175.10 82.70 C 170.69 83.18 177.40 90.97 170.99 91.03 C 165.92 92.89 164.19 86.21 160.72 87.87 C 160.25 87.63 159.77 87.40 159.30 87.17 C 158.46 86.14 157.62 85.11 156.76 84.10 C 159.39 81.66 161.66 78.79 164.37 76.46 Z" fill="#ddc58e" />
<path d="M 40.31 78.31 C 39.55 84.45 46.45 77.55 40.31 78.31 Z" fill="#9a9da6" />
<path d="M 229.95 77.96 C 229.98 79.97 229.66 80.75 228.09 82.01 C 227.67 79.83 227.78 78.86 229.95 77.96 Z" fill="#a99b8f" />
<path d="M 44.96 78.99 C 46.55 79.18 45.62 81.98 45.66 83.05 L 44.92 83.21 C 43.77 82.11 42.91 79.61 44.96 78.99 Z" fill="#9698a0" />
<path d="M 109.17 81.17 C 112.98 81.60 117.03 81.86 120.64 83.19 C 121.97 85.53 127.67 86.90 121.87 87.55 C 114.85 88.17 110.09 92.04 105.38 96.87 C 103.89 96.80 102.39 96.78 100.90 96.79 C 103.01 95.45 105.13 94.03 106.98 92.35 C 104.65 91.51 100.96 93.14 102.28 89.31 C 104.31 86.40 107.18 84.17 109.17 81.17 Z" fill="#c39a61" />
<path d="M 183.86 81.03 C 183.26 82.95 182.46 84.80 181.90 86.74 C 183.50 85.92 184.58 84.77 186.48 84.81 C 183.86 89.75 181.18 94.63 178.61 99.60 C 175.04 99.77 170.34 96.40 166.94 95.04 C 165.23 93.54 163.47 92.13 161.66 90.77 C 161.34 89.80 161.02 88.84 160.72 87.87 C 164.19 86.21 165.92 92.89 170.99 91.03 C 177.40 90.97 170.69 83.18 175.10 82.70 C 177.50 85.16 180.98 81.39 183.86 81.03 Z" fill="#e6d5ae" />
<path d="M 122.07 82.30 C 127.35 81.00 133.29 89.29 130.95 93.88 C 129.29 93.22 127.75 92.32 126.30 91.28 C 126.62 88.40 123.97 88.26 121.87 87.55 C 127.67 86.90 121.97 85.53 120.64 83.19 L 122.07 82.30 Z" fill="#a37242" />
<path d="M 44.92 83.21 L 45.66 83.05 C 49.41 84.61 52.39 86.98 55.80 89.12 C 57.79 90.51 59.83 91.84 61.89 93.14 C 64.02 95.49 66.27 97.71 68.27 100.19 C 62.61 102.19 61.59 96.25 55.96 95.92 C 55.32 95.53 54.68 95.13 54.05 94.73 C 51.69 91.97 49.25 89.54 45.96 87.89 C 45.59 86.34 45.24 84.78 44.92 83.21 Z" fill="#efe5d1" />
<path d="M 58.41 83.20 C 60.30 82.26 61.43 84.81 61.81 86.26 C 60.69 85.82 57.68 84.87 58.41 83.20 Z" fill="#9b8f89" />
<path d="M 155.49 82.88 L 156.76 84.10 C 157.62 85.11 158.46 86.14 159.30 87.17 C 157.31 88.96 155.97 85.00 154.69 83.90 L 155.49 82.88 Z" fill="#694821" />
<path d="M 154.69 83.90 C 155.97 85.00 157.31 88.96 159.30 87.17 C 159.77 87.40 160.25 87.63 160.72 87.87 C 161.02 88.84 161.34 89.80 161.66 90.77 C 161.98 91.91 162.38 93.03 162.78 94.15 C 163.38 96.07 164.10 97.94 164.85 99.81 C 160.70 99.01 158.04 95.90 154.10 94.77 C 153.68 94.26 153.26 93.74 152.84 93.23 C 157.63 89.74 150.25 87.58 154.69 83.90 Z" fill="#c9a672" />
<path d="M 232.64 83.91 C 233.40 85.85 233.71 87.39 232.09 88.97 C 231.61 87.07 231.55 85.61 232.64 83.91 Z" fill="#82818f" />
<path d="M 61.89 93.14 C 59.83 91.84 57.79 90.51 55.80 89.12 C 57.97 85.88 65.06 88.52 61.89 93.14 Z" fill="#5c5b63" />
<path d="M 45.96 87.89 C 49.25 89.54 51.69 91.97 54.05 94.73 C 52.61 95.39 51.19 96.09 49.76 96.76 C 48.93 95.47 48.05 94.20 47.20 92.92 C 46.71 91.26 46.30 89.59 45.96 87.89 Z" fill="#b37e6a" />
<path d="M 80.47 89.51 C 84.00 92.71 86.35 96.25 91.14 97.85 C 85.40 97.21 82.63 101.63 77.38 102.11 C 75.76 99.23 71.37 96.22 73.62 92.63 C 75.24 90.23 77.41 86.89 80.47 89.51 Z" fill="#bc8e49" />
<path d="M 121.87 87.55 C 123.97 88.26 126.62 88.40 126.30 91.28 C 123.19 89.32 118.45 91.36 115.49 92.85 C 107.65 96.17 101.71 100.72 102.71 110.14 C 102.37 115.83 107.82 115.51 111.28 118.72 C 114.70 120.89 119.71 125.16 120.21 117.91 C 120.71 118.62 121.21 119.32 121.71 120.03 C 120.25 123.98 114.84 126.51 110.98 124.01 C 106.44 121.46 101.78 119.78 96.92 117.98 C 96.26 109.40 100.62 103.41 105.38 96.87 C 110.09 92.04 114.85 88.17 121.87 87.55 Z" fill="#29232e" />
<path d="M 224.83 87.89 C 222.90 92.00 221.35 96.57 218.65 100.23 C 217.86 96.49 221.72 92.68 219.90 89.44 C 220.73 87.61 223.18 88.23 224.83 87.89 Z" fill="#af806c" />
<path d="M 208.89 88.94 C 208.25 90.65 207.47 91.74 206.13 92.97 C 205.63 90.27 205.98 89.15 208.89 88.94 Z" fill="#918677" />
<path d="M 219.90 89.44 C 221.72 92.68 217.86 96.49 218.65 100.23 C 211.58 111.67 202.58 121.46 196.45 133.42 C 194.41 137.39 189.82 142.16 191.07 146.85 C 188.88 151.99 185.67 156.31 181.60 160.13 L 179.98 160.02 C 183.64 153.37 184.86 147.23 184.77 139.65 C 186.56 138.07 190.09 138.12 190.69 135.69 C 191.28 133.20 190.89 130.42 190.86 127.88 C 198.72 119.76 202.73 109.24 210.89 101.28 C 214.05 97.47 216.92 93.38 219.90 89.44 Z" fill="#a15342" />
<path d="M 161.66 90.77 C 163.47 92.13 165.23 93.54 166.94 95.04 L 165.90 95.09 C 164.86 94.79 163.82 94.47 162.78 94.15 C 162.38 93.03 161.98 91.91 161.66 90.77 Z" fill="#827058" />
<path d="M 43.17 94.84 L 42.03 96.09 C 39.50 98.76 38.33 102.80 37.54 106.32 C 37.51 109.70 38.85 111.85 36.12 114.64 C 35.07 114.69 34.03 114.76 32.98 114.87 C 33.46 112.80 34.22 110.79 34.85 108.77 C 35.66 105.89 35.93 102.88 36.79 99.98 C 34.31 101.45 33.74 105.38 31.06 105.99 C 32.05 101.13 37.34 97.22 39.97 92.95 C 41.32 90.48 42.07 93.91 43.17 94.84 Z" fill="#bf9b78" />
<path d="M 67.08 93.28 C 68.08 94.33 69.11 95.34 70.20 96.30 C 67.54 98.10 60.67 89.07 67.08 93.28 Z" fill="#9c8f88" />
<path d="M 140.88 91.70 C 144.11 95.27 147.79 98.42 151.24 101.77 C 156.87 106.03 160.29 114.79 168.38 112.97 L 169.31 113.35 C 166.20 117.30 163.19 121.41 159.94 125.24 C 158.94 125.70 157.94 126.16 156.98 126.73 C 155.45 127.63 154.08 128.75 152.77 129.94 C 150.77 129.72 148.98 129.77 147.01 130.25 C 144.75 128.88 142.64 127.90 141.79 125.17 C 141.84 123.17 141.91 121.17 141.99 119.18 C 144.16 112.64 145.73 107.27 140.16 101.88 C 138.62 100.12 137.10 98.40 136.11 96.25 C 137.59 96.08 139.07 95.99 140.55 95.82 C 139.87 93.71 138.85 93.47 140.88 91.70 Z" fill="#e4cfa2" />
<path d="M 47.20 92.92 C 48.05 94.20 48.93 95.47 49.76 96.76 C 48.06 99.41 52.03 100.02 53.39 101.58 C 54.79 104.86 55.77 108.32 57.14 111.62 C 58.50 115.12 59.67 118.67 60.86 122.22 C 61.07 124.61 61.87 134.83 56.92 130.86 C 56.89 127.39 56.63 124.11 55.39 120.83 C 55.17 119.55 54.97 118.28 54.78 117.01 C 55.17 112.55 51.78 111.74 53.13 116.98 L 53.25 117.89 C 50.15 114.04 49.76 108.68 46.05 104.93 C 43.15 102.50 43.05 99.47 42.03 96.09 L 43.17 94.84 L 44.98 95.00 C 45.07 96.35 45.19 97.70 45.32 99.05 C 46.66 97.10 47.05 95.26 47.20 92.92 Z" fill="#e2c89d" />
<path d="M 115.49 92.85 C 117.90 95.62 122.84 94.66 126.23 95.67 C 123.05 96.57 118.76 95.82 115.97 97.53 C 118.66 98.50 121.28 96.82 120.57 100.70 C 114.79 100.64 112.49 102.73 111.09 108.18 C 110.83 109.87 111.22 114.87 113.48 111.49 C 115.31 108.58 121.46 107.21 121.88 111.74 C 121.17 113.76 120.57 115.80 120.21 117.91 C 119.71 125.16 114.70 120.89 111.28 118.72 C 107.82 115.51 102.37 115.83 102.71 110.14 C 101.71 100.72 107.65 96.17 115.49 92.85 Z" fill="#d2b77f" />
<path d="M 187.29 92.83 C 187.39 95.40 188.95 98.53 186.14 100.11 C 182.87 101.99 181.53 107.65 177.61 107.23 C 181.65 102.89 184.11 97.75 187.29 92.83 Z" fill="#ebe5d4" />
<path d="M 162.78 94.15 C 163.82 94.47 164.86 94.79 165.90 95.09 C 168.74 98.94 172.49 99.70 176.66 101.35 C 177.12 104.04 172.55 108.57 171.01 110.96 C 166.83 107.63 162.23 108.63 158.96 103.79 C 157.18 100.85 155.38 97.97 154.10 94.77 C 158.04 95.90 160.70 99.01 164.85 99.81 C 164.10 97.94 163.38 96.07 162.78 94.15 Z" fill="#e8d7b4" />
<path d="M 54.05 94.73 C 54.68 95.13 55.32 95.53 55.96 95.92 C 61.34 103.81 65.27 111.77 68.36 120.80 C 68.44 124.42 64.69 129.80 71.27 128.07 C 72.80 132.24 69.76 136.00 71.71 140.33 C 72.98 145.62 74.58 149.23 77.35 153.87 C 77.60 155.07 77.52 157.70 79.04 157.98 C 80.95 157.58 79.17 154.99 78.78 154.00 C 79.92 149.17 79.32 145.67 78.24 140.94 C 81.66 145.86 83.46 152.08 86.37 157.39 C 86.29 161.02 85.93 164.25 86.73 167.90 C 84.66 171.11 83.75 172.78 83.73 176.78 L 83.11 178.31 C 77.14 174.31 76.38 175.44 70.11 177.91 C 65.79 174.54 61.07 172.87 55.93 171.20 C 61.00 170.93 52.01 166.33 50.16 167.55 C 46.75 164.40 42.65 167.61 43.14 161.98 C 44.89 161.71 46.24 161.95 47.05 160.06 C 43.09 154.38 38.07 150.96 36.55 143.80 C 36.39 141.05 35.89 138.44 34.29 136.13 C 33.36 135.32 32.36 134.58 31.33 133.89 C 31.79 133.33 32.25 132.76 32.70 132.19 C 33.30 131.42 33.87 130.64 34.41 129.83 C 36.47 133.07 35.84 136.46 39.23 138.97 C 41.94 140.92 47.08 144.07 40.17 144.40 C 40.20 150.28 49.21 145.23 47.61 149.61 C 52.51 148.94 55.80 151.44 59.95 153.49 C 62.13 152.92 62.30 151.05 62.66 149.13 C 59.66 145.13 58.73 140.57 57.29 135.90 C 57.31 134.18 57.19 132.56 56.92 130.86 C 61.87 134.83 61.07 124.61 60.86 122.22 C 61.87 123.15 62.90 124.07 63.99 124.91 C 62.73 121.86 61.89 110.69 57.14 111.62 C 55.77 108.32 54.79 104.86 53.39 101.58 C 52.03 100.02 48.06 99.41 49.76 96.76 C 51.19 96.09 52.61 95.39 54.05 94.73 Z" fill="#944335" />
<path d="M 140.01 105.06 C 142.07 109.38 140.77 112.93 138.73 116.87 C 138.22 117.65 137.70 118.43 137.18 119.21 C 133.04 116.56 126.10 115.11 124.74 109.89 C 125.83 104.79 121.53 102.67 117.16 102.42 C 114.82 103.85 113.15 106.36 111.09 108.18 C 112.49 102.73 114.79 100.64 120.57 100.70 C 121.28 96.82 118.66 98.50 115.97 97.53 C 118.76 95.82 123.05 96.57 126.23 95.67 C 134.09 94.07 134.52 101.44 140.01 105.06 Z" fill="#e1cc9b" />
<path d="M 42.03 96.09 C 43.05 99.47 43.15 102.50 46.05 104.93 C 49.76 108.68 50.15 114.04 53.25 117.89 C 53.56 121.00 49.68 123.99 53.65 126.92 C 54.31 124.92 54.88 122.87 55.39 120.83 C 56.63 124.11 56.89 127.39 56.92 130.86 C 55.86 132.67 53.11 136.11 57.29 135.90 C 58.73 140.57 59.66 145.13 62.66 149.13 C 62.30 151.05 62.13 152.92 59.95 153.49 C 55.80 151.44 52.51 148.94 47.61 149.61 C 49.21 145.23 40.20 150.28 40.17 144.40 C 47.08 144.07 41.94 140.92 39.23 138.97 C 43.43 139.86 35.47 131.28 38.06 131.15 C 40.28 130.80 42.48 130.47 44.63 129.81 C 44.06 125.61 39.15 117.57 36.12 114.64 C 38.85 111.85 37.51 109.70 37.54 106.32 C 38.33 102.80 39.50 98.76 42.03 96.09 Z" fill="#b27f42" />
<path d="M 55.96 95.92 C 61.59 96.25 62.61 102.19 68.27 100.19 C 71.91 104.80 78.02 110.96 78.77 116.87 C 76.52 125.36 73.52 131.20 79.84 139.00 C 80.83 140.59 81.81 142.60 83.32 143.74 C 85.78 145.12 86.60 141.49 87.68 139.99 C 88.33 141.82 89.01 141.37 90.58 141.71 C 90.15 145.39 91.77 148.65 91.67 152.36 C 92.10 153.40 91.27 156.43 93.16 155.24 L 93.92 155.03 C 94.07 160.35 97.24 162.18 99.90 166.07 C 99.24 170.93 97.76 175.44 94.21 178.99 C 90.15 178.33 87.20 172.79 83.73 176.78 C 83.75 172.78 84.66 171.11 86.73 167.90 C 85.93 164.25 86.29 161.02 86.37 157.39 C 83.46 152.08 81.66 145.86 78.24 140.94 C 79.32 145.67 79.92 149.17 78.78 154.00 L 77.35 153.87 C 74.58 149.23 72.98 145.62 71.71 140.33 C 69.76 136.00 72.80 132.24 71.27 128.07 C 70.60 125.49 69.36 123.26 68.36 120.80 C 65.27 111.77 61.34 103.81 55.96 95.92 Z" fill="#e7d1a3" />
<path d="M 105.38 96.87 C 100.62 103.41 96.26 109.40 96.92 117.98 C 95.63 116.89 96.19 113.76 95.78 112.15 C 94.59 112.51 95.15 115.59 94.77 116.68 C 90.10 115.94 86.97 113.21 83.10 110.84 C 80.47 109.02 80.29 103.79 76.88 102.90 L 76.07 102.50 L 77.38 102.11 C 82.63 101.63 85.40 97.21 91.14 97.85 C 94.41 97.71 97.64 97.06 100.90 96.79 C 102.39 96.78 103.89 96.80 105.38 96.87 Z" fill="#d2b372" />
<path d="M 199.00 98.80 C 198.65 99.87 198.30 100.95 197.96 102.03 C 195.46 103.32 191.13 110.67 196.99 106.02 C 196.68 107.92 195.44 108.93 194.14 110.18 C 191.68 109.90 190.96 110.58 190.97 113.04 C 188.97 113.99 187.10 114.82 188.88 117.22 C 187.83 118.52 186.71 119.76 185.48 120.89 C 185.27 119.66 185.75 116.26 183.86 116.25 C 182.97 115.70 180.29 116.27 181.91 114.76 C 185.62 109.64 189.30 104.20 193.39 99.37 C 195.34 97.76 196.78 98.13 199.00 98.80 Z" fill="#bb9a66" />
<path d="M 117.16 102.42 C 121.53 102.67 125.83 104.79 124.74 109.89 C 124.00 111.26 123.25 112.62 122.56 114.02 C 122.33 113.26 122.11 112.50 121.88 111.74 C 121.46 107.21 115.31 108.58 113.48 111.49 C 111.22 114.87 110.83 109.87 111.09 108.18 C 113.15 106.36 114.82 103.85 117.16 102.42 Z" fill="#332e35" />
<path d="M 140.16 101.88 C 145.73 107.27 144.16 112.64 141.99 119.18 C 139.56 120.02 139.93 118.50 138.73 116.87 C 140.77 112.93 142.07 109.38 140.01 105.06 C 140.06 104.00 140.11 102.94 140.16 101.88 Z" fill="#2f2a34" />
<path d="M 197.96 102.03 C 197.65 103.36 197.36 104.70 196.99 106.02 C 191.13 110.67 195.46 103.32 197.96 102.03 Z" fill="#493c2e" />
<path d="M 76.88 102.90 C 80.29 103.79 80.47 109.02 83.10 110.84 C 86.97 113.21 90.10 115.94 94.77 116.68 C 95.15 115.59 94.59 112.51 95.78 112.15 C 96.19 113.76 95.63 116.89 96.92 117.98 C 101.78 119.78 106.44 121.46 110.98 124.01 C 114.84 126.51 120.25 123.98 121.71 120.03 C 122.04 118.04 122.27 116.02 122.56 114.02 C 123.25 112.62 124.00 111.26 124.74 109.89 C 126.10 115.11 133.04 116.56 137.18 119.21 C 134.77 123.87 134.30 127.29 135.68 132.44 L 135.60 133.05 C 134.54 135.62 139.00 137.59 140.17 139.68 C 136.77 138.56 133.84 138.30 132.42 134.53 C 129.36 134.02 125.55 137.05 128.69 132.12 C 125.07 133.94 121.66 132.98 117.76 133.14 C 112.72 132.10 105.37 132.05 101.81 128.11 C 106.45 126.23 99.24 123.35 97.52 122.36 C 95.08 120.94 93.32 121.05 90.62 121.47 C 88.00 122.30 86.11 117.69 83.57 118.90 C 81.26 113.55 79.95 107.96 76.88 102.90 Z" fill="#d9c18b" />
<path d="M 48.00 104.05 C 50.94 105.81 51.78 107.58 51.96 110.98 C 50.27 108.88 48.87 106.61 48.00 104.05 Z" fill="#594e37" />
<path d="M 158.96 103.79 C 162.23 108.63 166.83 107.63 171.01 110.96 C 170.45 111.76 169.88 112.56 169.31 113.35 L 168.38 112.97 C 165.53 110.26 156.75 109.16 158.96 103.79 Z" fill="#bb8368" />
<path d="M 225.55 106.80 C 226.88 109.86 228.59 112.84 229.66 115.96 C 229.05 116.72 228.45 117.47 227.84 118.22 C 226.04 115.27 225.03 112.40 224.78 108.93 C 225.03 108.21 225.29 107.50 225.55 106.80 Z" fill="#e1cba4" />
<path d="M 30.25 112.89 C 31.82 111.56 33.29 110.12 34.85 108.77 C 34.22 110.79 33.46 112.80 32.98 114.87 C 32.94 118.03 34.23 120.59 34.59 123.81 C 34.17 125.88 34.02 127.73 34.41 129.83 C 33.87 130.64 33.30 131.42 32.70 132.19 C 28.68 127.36 29.27 117.93 28.29 111.74 C 31.09 107.97 30.86 108.51 30.25 112.89 Z" fill="#e6c9a1" />
<path d="M 224.78 108.93 C 225.03 112.40 226.04 115.27 227.84 118.22 C 226.01 120.90 221.08 125.89 217.58 124.10 C 219.66 118.78 223.28 114.49 224.78 108.93 Z" fill="#b28554" />
<path d="M 194.14 110.18 C 193.30 111.62 192.56 112.43 190.97 113.04 C 190.96 110.58 191.68 109.90 194.14 110.18 Z" fill="#3e2a1f" />
<path d="M 63.99 124.91 C 62.90 124.07 61.87 123.15 60.86 122.22 C 59.67 118.67 58.50 115.12 57.14 111.62 C 61.89 110.69 62.73 121.86 63.99 124.91 Z" fill="#bf886a" />
<path d="M 28.29 111.74 C 29.27 117.93 28.68 127.36 32.70 132.19 C 32.25 132.76 31.79 133.33 31.33 133.89 C 28.66 136.20 32.85 140.48 34.29 136.13 C 35.89 138.44 36.39 141.05 36.55 143.80 C 33.79 146.62 35.99 154.57 37.89 157.71 C 36.94 157.86 35.98 158.00 35.01 158.13 C 30.01 157.01 22.19 148.34 27.90 143.89 C 29.96 142.59 27.84 139.26 27.38 137.49 C 24.18 131.63 27.90 126.27 25.84 119.85 C 26.51 116.97 26.54 114.28 28.29 111.74 Z" fill="#a14f3d" />
<path d="M 121.88 111.74 C 122.11 112.50 122.33 113.26 122.56 114.02 C 122.27 116.02 122.04 118.04 121.71 120.03 C 121.21 119.32 120.71 118.62 120.21 117.91 C 120.57 115.80 121.17 113.76 121.88 111.74 Z" fill="#846f4b" />
<path d="M 54.78 117.01 L 53.13 116.98 C 51.78 111.74 55.17 112.55 54.78 117.01 Z" fill="#97835f" />
<path d="M 190.97 113.04 C 190.78 114.85 190.11 115.92 188.88 117.22 C 187.10 114.82 188.97 113.99 190.97 113.04 Z" fill="#43301e" />
<path d="M 36.12 114.64 C 35.58 119.01 37.96 121.58 39.96 125.09 C 36.30 126.74 34.86 130.24 34.59 123.81 C 34.23 120.59 32.94 118.03 32.98 114.87 C 34.03 114.76 35.07 114.69 36.12 114.64 Z" fill="#b08344" />
<path d="M 36.12 114.64 C 39.15 117.57 44.06 125.61 44.63 129.81 C 42.48 130.47 40.28 130.80 38.06 131.15 C 35.47 131.28 43.43 139.86 39.23 138.97 C 35.84 136.46 36.47 133.07 34.41 129.83 C 34.02 127.73 34.17 125.88 34.59 123.81 C 34.86 130.24 36.30 126.74 39.96 125.09 C 37.96 121.58 35.58 119.01 36.12 114.64 Z" fill="#d8ad6d" />
<path d="M 229.66 115.96 C 230.16 117.35 230.65 118.74 231.19 120.11 C 230.80 122.61 229.97 124.81 232.07 126.81 L 231.92 128.66 C 230.23 129.69 228.64 130.84 227.08 132.06 C 222.59 133.87 216.13 135.72 211.73 132.86 C 213.73 129.97 215.66 127.04 217.58 124.10 C 221.08 125.89 226.01 120.90 227.84 118.22 C 228.45 117.47 229.05 116.72 229.66 115.96 Z" fill="#a2523b" />
<path d="M 53.13 116.98 L 54.78 117.01 C 54.97 118.28 55.17 119.55 55.39 120.83 C 54.88 122.87 54.31 124.92 53.65 126.92 C 49.68 123.99 53.56 121.00 53.25 117.89 L 53.13 116.98 Z" fill="#342524" />
<path d="M 138.73 116.87 C 139.93 118.50 139.56 120.02 141.99 119.18 C 141.91 121.17 141.84 123.17 141.79 125.17 C 139.98 119.08 139.70 125.57 137.73 127.63 C 136.57 129.55 138.47 131.69 135.68 132.44 C 134.30 127.29 134.77 123.87 137.18 119.21 C 137.70 118.43 138.22 117.65 138.73 116.87 Z" fill="#69625b" />
<path d="M 90.62 121.47 C 93.32 121.05 95.08 120.94 97.52 122.36 C 99.24 123.35 106.45 126.23 101.81 128.11 C 100.35 127.65 95.74 123.88 98.20 127.79 C 100.71 132.25 95.71 131.29 93.00 131.23 C 90.27 130.02 88.70 128.58 86.86 126.29 L 86.33 125.65 C 85.60 120.65 85.23 125.23 84.03 127.01 C 84.12 124.27 83.97 121.61 83.57 118.90 C 86.11 117.69 88.00 122.30 90.62 121.47 Z" fill="#dfcea6" />
<path d="M 25.84 119.85 C 27.90 126.27 24.18 131.63 27.38 137.49 C 27.84 139.26 29.96 142.59 27.90 143.89 C 22.19 148.34 30.01 157.01 35.01 158.13 C 34.55 159.37 34.11 160.61 33.70 161.87 C 32.51 163.03 31.35 164.16 29.98 165.11 C 26.80 163.71 28.72 160.99 28.58 158.31 C 25.25 157.26 22.90 156.97 22.25 152.87 C 21.47 146.54 19.15 136.45 24.81 131.70 C 23.03 126.07 23.04 125.09 25.84 119.85 Z" fill="#e8d2af" />
<path d="M 231.19 120.11 C 232.60 122.27 232.30 124.38 232.07 126.81 C 229.97 124.81 230.80 122.61 231.19 120.11 Z" fill="#d1a58d" />
<path d="M 68.36 120.80 C 69.36 123.26 70.60 125.49 71.27 128.07 C 64.69 129.80 68.44 124.42 68.36 120.80 Z" fill="#c38e68" />
<path d="M 141.79 125.17 C 142.64 127.90 144.75 128.88 147.01 130.25 C 148.95 131.65 151.13 131.95 152.77 129.94 C 154.08 128.75 155.45 127.63 156.98 126.73 C 157.48 127.57 157.97 128.42 158.45 129.27 C 155.71 131.24 153.46 133.73 150.88 135.88 C 144.90 140.77 140.52 136.85 135.60 133.05 L 135.68 132.44 C 138.47 131.69 136.57 129.55 137.73 127.63 C 139.70 125.57 139.98 119.08 141.79 125.17 Z" fill="#242339" />
<path d="M 174.20 122.19 C 177.88 124.12 177.06 125.17 173.99 127.14 C 170.69 124.99 172.17 124.47 174.20 122.19 Z" fill="#c3a56c" />
<path d="M 86.33 125.65 C 85.88 129.90 85.93 134.10 86.24 138.36 L 86.03 139.27 C 84.71 136.17 85.15 134.20 81.16 133.81 C 81.71 131.30 82.96 129.30 84.03 127.01 C 85.23 125.23 85.60 120.65 86.33 125.65 Z" fill="#f1ede6" />
<path d="M 159.94 125.24 C 160.61 125.52 161.27 125.80 161.94 126.08 C 161.01 127.42 159.79 128.37 158.45 129.27 C 157.97 128.42 157.48 127.57 156.98 126.73 C 157.94 126.16 158.94 125.70 159.94 125.24 Z" fill="#6b6359" />
<path d="M 86.33 125.65 L 86.86 126.29 C 87.11 130.34 87.37 134.42 86.24 138.36 C 85.93 134.10 85.88 129.90 86.33 125.65 Z" fill="#8c8a94" />
<path d="M 86.86 126.29 C 88.70 128.58 90.27 130.02 93.00 131.23 C 93.72 132.45 94.39 133.70 95.07 134.95 C 94.97 136.98 95.27 137.94 97.19 138.81 C 98.42 141.45 99.55 144.10 100.22 146.95 C 99.83 148.20 99.78 149.54 100.06 150.97 L 99.83 151.75 C 98.74 154.54 98.90 157.35 99.23 160.26 C 99.90 163.97 101.53 166.96 101.18 170.94 C 100.73 172.35 100.78 173.74 101.33 175.11 C 99.34 179.56 96.19 184.51 91.91 187.01 C 88.67 186.63 86.60 183.59 87.42 180.34 C 90.25 180.64 92.00 181.36 94.21 178.99 C 97.76 175.44 99.24 170.93 99.90 166.07 C 97.24 162.18 94.07 160.35 93.92 155.03 C 94.01 151.93 94.01 148.83 93.78 145.74 C 93.55 141.50 91.20 137.02 88.29 133.97 C 88.04 135.97 87.89 137.98 87.68 139.99 C 86.60 141.49 85.78 145.12 83.32 143.74 C 81.81 142.60 80.83 140.59 79.84 139.00 C 81.20 138.65 86.52 142.01 86.03 139.27 L 86.24 138.36 C 87.37 134.42 87.11 130.34 86.86 126.29 Z" fill="#242337" />
<path d="M 101.81 128.11 C 105.37 132.05 112.72 132.10 117.76 133.14 C 121.62 136.47 128.08 134.91 130.01 139.47 C 128.62 139.61 127.25 139.65 125.88 139.98 C 122.80 141.24 121.91 135.98 117.87 137.81 C 115.18 138.81 112.96 141.29 110.82 143.16 C 113.43 144.33 116.40 144.68 118.99 145.83 C 113.30 146.94 109.51 150.95 103.02 151.35 C 105.86 153.44 108.82 153.03 112.17 153.23 C 109.12 154.47 105.36 154.13 102.15 153.80 C 101.67 151.26 102.06 149.70 103.24 147.47 C 102.21 146.35 101.09 143.57 100.90 146.93 L 100.22 146.95 C 99.55 144.10 98.42 141.45 97.19 138.81 C 97.26 136.72 97.05 135.86 95.07 134.95 C 94.39 133.70 93.72 132.45 93.00 131.23 C 95.71 131.29 100.71 132.25 98.20 127.79 C 95.74 123.88 100.35 127.65 101.81 128.11 Z" fill="#efe3c8" />
<path d="M 232.07 126.81 C 233.67 131.94 233.34 140.01 232.31 145.28 C 231.84 139.74 232.03 134.22 231.92 128.66 L 232.07 126.81 Z" fill="#dccdb1" />
<path d="M 190.86 127.88 C 190.89 130.42 191.28 133.20 190.69 135.69 C 190.09 138.12 186.56 138.07 184.77 139.65 C 182.74 140.48 182.95 143.33 182.32 145.18 C 181.25 136.76 178.71 150.08 180.75 152.23 C 180.15 156.21 178.21 155.93 174.87 155.39 C 172.44 154.30 172.54 158.24 172.19 159.79 C 174.08 161.70 174.65 160.00 176.49 159.19 C 176.79 160.57 176.38 161.61 177.83 162.36 C 174.82 165.56 171.62 168.57 168.03 171.13 C 166.68 170.74 165.35 170.32 164.00 169.91 C 164.14 164.20 170.96 161.00 169.11 155.87 C 171.15 146.96 179.70 139.63 185.72 133.08 C 189.00 137.48 189.87 132.55 189.21 129.64 C 189.75 129.05 190.30 128.47 190.86 127.88 Z" fill="#c99c67" />
<path d="M 231.92 128.66 C 232.03 134.22 231.84 139.74 232.31 145.28 C 226.13 145.85 220.58 150.17 214.71 149.77 C 215.83 146.32 218.69 148.71 220.22 146.01 C 218.12 144.33 216.31 143.79 214.08 145.52 C 214.17 143.82 212.56 140.23 214.45 139.30 C 216.28 143.31 223.36 146.97 226.80 142.77 C 229.70 140.31 229.61 134.78 227.08 132.06 C 228.64 130.84 230.23 129.69 231.92 128.66 Z" fill="#cba573" />
<path d="M 147.01 130.25 C 148.98 129.77 150.77 129.72 152.77 129.94 C 151.13 131.95 148.95 131.65 147.01 130.25 Z" fill="#736c74" />
<path d="M 189.21 129.64 C 189.87 132.55 189.00 137.48 185.72 133.08 C 186.89 131.94 188.04 130.78 189.21 129.64 Z" fill="#954e2f" />
<path d="M 56.92 130.86 C 57.19 132.56 57.31 134.18 57.29 135.90 C 53.11 136.11 55.86 132.67 56.92 130.86 Z" fill="#ebbe8f" />
<path d="M 227.08 132.06 C 229.61 134.78 229.70 140.31 226.80 142.77 C 223.36 146.97 216.28 143.31 214.45 139.30 C 212.56 140.23 214.17 143.82 214.08 145.52 C 216.31 143.79 218.12 144.33 220.22 146.01 C 218.69 148.71 215.83 146.32 214.71 149.77 C 209.81 149.94 206.75 150.33 202.75 146.86 C 204.70 143.19 207.60 140.74 208.95 136.88 C 209.82 135.50 210.73 134.15 211.73 132.86 C 216.13 135.72 222.59 133.87 227.08 132.06 Z" fill="#b5844d" />
<path d="M 31.33 133.89 C 32.36 134.58 33.36 135.32 34.29 136.13 C 32.85 140.48 28.66 136.20 31.33 133.89 Z" fill="#d19174" />
<path d="M 81.16 133.81 C 85.15 134.20 84.71 136.17 86.03 139.27 C 86.52 142.01 81.20 138.65 79.84 139.00 C 80.29 137.27 80.72 135.54 81.16 133.81 Z" fill="#dacdaa" />
<path d="M 88.29 133.97 C 91.20 137.02 93.55 141.50 93.78 145.74 C 92.76 148.88 92.94 152.00 93.16 155.24 C 91.27 156.43 92.10 153.40 91.67 152.36 C 91.77 148.65 90.15 145.39 90.58 141.71 C 89.01 141.37 88.33 141.82 87.68 139.99 C 87.89 137.98 88.04 135.97 88.29 133.97 Z" fill="#ede7ce" />
<path d="M 95.07 134.95 C 97.05 135.86 97.26 136.72 97.19 138.81 C 95.27 137.94 94.97 136.98 95.07 134.95 Z" fill="#868189" />
<path d="M 125.88 139.98 C 127.58 141.66 128.06 143.35 130.86 142.70 C 133.97 141.60 135.25 145.14 136.96 147.04 C 133.44 151.36 138.63 152.90 142.27 152.43 C 142.07 157.19 148.64 155.05 148.07 159.99 C 148.69 166.56 140.89 171.67 136.94 175.80 C 131.90 179.07 126.45 182.24 120.73 184.12 C 112.87 180.57 103.62 188.24 100.20 194.88 C 101.31 196.18 102.85 194.67 104.20 194.45 C 101.83 198.20 96.24 198.16 93.88 202.87 C 91.03 206.42 91.84 207.54 94.19 210.96 L 93.96 211.66 C 93.46 213.08 93.02 214.53 92.59 215.98 C 91.57 218.36 91.18 220.74 92.66 223.03 C 94.90 226.79 98.61 230.80 102.86 232.22 L 102.79 232.76 C 101.64 235.03 109.58 235.33 111.06 236.73 C 103.86 237.98 94.98 235.52 89.94 230.07 C 86.62 225.87 83.01 222.36 78.31 219.72 C 71.93 216.35 63.57 210.15 56.11 211.10 C 52.01 212.15 52.82 215.41 48.10 216.05 C 40.56 218.00 40.90 216.59 36.80 210.98 C 37.81 208.41 38.85 205.71 40.41 203.41 C 42.06 201.18 46.41 201.20 43.96 197.85 C 45.84 196.62 47.70 195.67 49.80 194.86 C 52.96 200.46 51.68 190.32 53.96 188.58 L 54.75 188.98 C 58.82 202.54 69.18 206.75 80.04 214.01 C 83.89 211.49 79.44 208.21 76.85 207.17 L 78.05 206.14 C 79.73 205.84 81.42 205.56 83.10 205.30 C 85.96 206.48 91.07 199.56 84.99 201.59 C 84.71 200.77 84.44 199.96 84.15 199.14 C 87.23 198.73 84.92 198.25 83.99 196.96 C 85.99 195.19 87.97 193.37 89.79 191.41 C 83.65 190.92 83.77 185.92 79.88 182.15 C 78.43 180.73 79.47 180.13 79.98 178.56 C 81.50 178.84 82.71 180.76 83.11 178.31 L 83.73 176.78 C 87.20 172.79 90.15 178.33 94.21 178.99 C 92.00 181.36 90.25 180.64 87.42 180.34 C 86.60 183.59 88.67 186.63 91.91 187.01 C 96.19 184.51 99.34 179.56 101.33 175.11 C 102.63 173.53 102.71 172.40 101.18 170.94 C 101.53 166.96 99.90 163.97 99.23 160.26 C 100.14 157.44 100.01 154.67 99.83 151.75 L 100.06 150.97 C 101.38 149.67 101.43 148.65 100.90 146.93 C 101.09 143.57 102.21 146.35 103.24 147.47 C 102.06 149.70 101.67 151.26 102.15 153.80 C 105.36 154.13 109.12 154.47 112.17 153.23 C 119.10 149.43 122.89 150.56 129.96 153.16 C 132.28 154.24 134.65 155.18 137.16 155.72 C 136.51 153.72 133.89 153.09 132.19 152.13 C 128.38 148.42 123.26 148.94 118.99 145.83 C 116.40 144.68 113.43 144.33 110.82 143.16 C 112.96 141.29 115.18 138.81 117.87 137.81 C 121.91 135.98 122.80 141.24 125.88 139.98 Z" fill="#f2f0ec" />
<path d="M 208.95 136.88 C 207.60 140.74 204.70 143.19 202.75 146.86 C 202.13 146.51 201.51 146.16 200.89 145.80 C 203.70 142.87 205.81 139.50 208.95 136.88 Z" fill="#c8ab87" />
<path d="M 184.77 139.65 C 184.86 147.23 183.64 153.37 179.98 160.02 C 179.27 160.80 178.55 161.58 177.83 162.36 C 176.38 161.61 176.79 160.57 176.49 159.19 C 174.65 160.00 174.08 161.70 172.19 159.79 C 172.54 158.24 172.44 154.30 174.87 155.39 C 178.21 155.93 180.15 156.21 180.75 152.23 C 181.29 149.89 181.87 147.55 182.32 145.18 C 182.95 143.33 182.74 140.48 184.77 139.65 Z" fill="#e8bc7c" />
<path d="M 182.32 145.18 C 181.87 147.55 181.29 149.89 180.75 152.23 C 178.71 150.08 181.25 136.76 182.32 145.18 Z" fill="#995131" />
<path d="M 36.55 143.80 C 38.07 150.96 43.09 154.38 47.05 160.06 C 46.24 161.95 44.89 161.71 43.14 161.98 C 40.21 162.12 37.47 162.06 34.62 162.81 L 33.70 161.87 C 34.11 160.61 34.55 159.37 35.01 158.13 C 35.98 158.00 36.94 157.86 37.89 157.71 C 35.99 154.57 33.79 146.62 36.55 143.80 Z" fill="#d8a36e" />
<path d="M 232.31 145.28 C 228.58 151.78 227.72 159.82 223.00 165.46 L 222.26 164.87 C 220.16 160.43 219.53 154.61 213.16 155.16 C 205.31 156.25 198.51 163.22 195.31 170.16 C 193.87 168.47 192.23 166.85 191.00 165.00 C 193.82 158.00 202.70 160.64 201.72 151.63 C 202.70 146.98 199.31 151.57 196.73 149.77 C 198.12 148.45 199.49 147.11 200.89 145.80 C 201.51 146.16 202.13 146.51 202.75 146.86 C 206.75 150.33 209.81 149.94 214.71 149.77 C 220.58 150.17 226.13 145.85 232.31 145.28 Z" fill="#e7d6b5" />
<path d="M 93.78 145.74 C 94.01 148.83 94.01 151.93 93.92 155.03 L 93.16 155.24 C 92.94 152.00 92.76 148.88 93.78 145.74 Z" fill="#8e8c80" />
<path d="M 118.99 145.83 C 123.26 148.94 128.38 148.42 132.19 152.13 C 131.45 152.48 130.70 152.82 129.96 153.16 C 122.89 150.56 119.10 149.43 112.17 153.23 C 108.82 153.03 105.86 153.44 103.02 151.35 C 109.51 150.95 113.30 146.94 118.99 145.83 Z" fill="#ac814f" />
<path d="M 100.22 146.95 L 100.90 146.93 C 101.43 148.65 101.38 149.67 100.06 150.97 C 99.78 149.54 99.83 148.20 100.22 146.95 Z" fill="#7e7d7c" />
<path d="M 201.72 151.63 C 202.70 160.64 193.82 158.00 191.00 165.00 C 192.23 166.85 193.87 168.47 195.31 170.16 C 194.39 172.47 193.38 174.73 192.25 176.94 C 188.76 181.30 187.76 180.43 183.99 177.05 C 185.93 173.24 189.31 168.53 189.75 164.25 C 186.05 160.20 184.63 167.86 182.74 169.70 C 178.40 171.86 176.61 173.27 175.08 178.03 C 177.00 181.44 180.04 183.36 183.35 185.22 C 178.77 190.13 173.80 189.51 168.11 187.08 C 169.13 188.52 170.24 189.87 171.35 191.24 C 168.77 191.90 168.75 192.31 167.66 189.67 C 165.73 190.70 166.45 190.45 165.65 188.57 C 162.01 190.01 161.46 191.17 159.49 186.84 C 165.53 180.87 172.37 175.31 178.13 169.05 C 179.82 167.64 181.40 166.12 182.85 164.47 C 187.87 160.14 191.26 153.41 196.73 149.77 C 199.31 151.57 202.70 146.98 201.72 151.63 Z" fill="#bf9665" />
<path d="M 99.83 151.75 C 100.01 154.67 100.14 157.44 99.23 160.26 C 98.90 157.35 98.74 154.54 99.83 151.75 Z" fill="#908e9f" />
<path d="M 132.19 152.13 C 133.89 153.09 136.51 153.72 137.16 155.72 C 134.65 155.18 132.28 154.24 129.96 153.16 C 130.70 152.82 131.45 152.48 132.19 152.13 Z" fill="#c4b39b" />
<path d="M 77.35 153.87 L 78.78 154.00 C 79.17 154.99 80.95 157.58 79.04 157.98 C 77.52 157.70 77.60 155.07 77.35 153.87 Z" fill="#c7816e" />
<path d="M 56.29 155.00 C 63.96 154.55 72.02 158.21 75.98 164.89 C 73.53 166.12 70.63 166.52 67.95 166.91 C 62.10 168.31 57.99 159.32 56.29 155.00 Z" fill="#262435" />
<path d="M 213.16 155.16 C 219.53 154.61 220.16 160.43 222.26 164.87 C 222.08 166.65 221.88 168.43 221.73 170.21 C 221.22 168.64 220.75 167.05 220.04 165.56 C 217.47 164.53 213.06 158.61 210.72 160.72 C 208.69 163.72 212.41 162.10 214.02 162.98 C 216.98 164.56 218.96 170.38 214.29 171.34 C 213.09 175.02 213.35 185.69 217.87 186.97 C 217.18 183.16 215.11 181.14 217.93 177.58 C 219.42 181.05 220.61 185.95 224.90 186.83 C 226.16 187.05 226.27 183.79 226.77 182.88 C 230.38 190.07 226.66 194.43 222.63 200.04 C 219.19 202.49 217.45 206.31 214.04 208.80 C 211.66 210.60 210.40 213.41 208.02 215.13 C 198.36 216.16 194.47 207.28 185.58 213.95 C 183.29 215.33 181.21 216.77 179.98 219.22 C 178.26 222.25 176.91 225.45 174.96 228.36 C 174.06 227.59 173.18 226.79 172.29 225.99 L 171.84 225.19 C 172.37 223.49 172.53 222.14 170.98 220.94 C 170.49 217.06 172.73 214.28 173.17 210.76 C 173.13 209.83 173.07 208.90 172.99 207.98 L 173.34 207.08 C 173.87 206.73 174.40 206.37 174.94 206.01 C 178.47 206.18 181.73 209.30 183.95 205.32 C 181.26 205.45 179.20 205.39 176.73 204.19 C 181.29 199.17 182.16 201.75 187.30 200.91 C 188.21 201.56 189.08 202.26 189.93 202.98 C 191.44 204.87 196.47 211.90 197.50 206.45 C 200.28 207.35 202.09 210.22 205.01 208.04 C 207.44 205.63 209.88 202.44 211.71 199.53 C 207.71 198.64 209.53 195.11 208.82 192.03 C 208.66 187.54 205.33 183.11 206.62 178.85 C 207.09 179.89 207.75 180.67 208.62 181.21 C 207.38 177.44 207.62 172.04 206.06 168.84 C 204.50 169.87 203.85 171.41 203.01 172.99 C 202.10 174.65 201.16 176.30 200.23 177.95 C 196.91 184.13 191.65 187.17 186.30 191.30 C 185.57 191.59 184.83 191.88 184.09 192.15 C 179.80 192.21 175.59 191.81 171.35 191.24 C 170.24 189.87 169.13 188.52 168.11 187.08 C 173.80 189.51 178.77 190.13 183.35 185.22 C 187.11 186.59 194.19 180.95 192.25 176.94 C 193.38 174.73 194.39 172.47 195.31 170.16 C 198.51 163.22 205.31 156.25 213.16 155.16 Z" fill="#29273b" />
<path d="M 169.11 155.87 C 170.96 161.00 164.14 164.20 164.00 169.91 C 162.39 172.75 160.59 175.08 158.02 177.11 C 155.00 176.44 152.00 176.40 148.94 176.25 L 147.01 175.91 C 150.97 172.94 145.12 175.34 146.07 171.18 C 148.37 171.17 150.64 171.45 152.94 171.47 C 156.08 172.27 156.56 171.35 156.52 175.04 C 159.38 171.29 163.78 166.51 164.30 161.70 C 165.62 159.51 167.31 157.66 169.11 155.87 Z" fill="#e2bf7b" />
<path d="M 186.16 158.29 C 185.32 160.30 182.53 162.24 182.85 164.47 C 181.40 166.12 179.82 167.64 178.13 169.05 C 172.15 171.42 167.63 176.90 161.95 179.97 C 156.95 182.74 162.66 177.64 155.68 179.60 C 156.46 178.77 157.22 177.93 158.02 177.11 C 162.92 177.24 164.37 173.59 168.03 171.13 C 171.62 168.57 174.82 165.56 177.83 162.36 C 178.55 161.58 179.27 160.80 179.98 160.02 L 181.60 160.13 C 183.20 160.53 184.74 158.90 186.16 158.29 Z" fill="#675148" />
<path d="M 63.17 158.99 C 66.81 158.55 68.66 160.92 71.13 163.07 C 67.22 168.25 64.37 162.85 63.17 158.99 Z" fill="#66c5b7" />
<path d="M 220.04 165.56 C 216.67 168.08 218.39 173.81 217.93 177.58 C 215.11 181.14 217.18 183.16 217.87 186.97 C 213.35 185.69 213.09 175.02 214.29 171.34 C 218.96 170.38 216.98 164.56 214.02 162.98 C 212.41 162.10 208.69 163.72 210.72 160.72 C 213.06 158.61 217.47 164.53 220.04 165.56 Z" fill="#5d4b52" />
<path d="M 43.14 161.98 C 42.65 167.61 46.75 164.40 50.16 167.55 C 52.01 166.33 61.00 170.93 55.93 171.20 C 54.62 170.82 53.31 170.43 51.98 170.15 C 52.60 172.79 55.37 174.83 57.10 176.82 L 56.05 176.82 C 54.50 176.45 52.94 176.10 51.38 175.76 C 47.49 174.03 43.58 172.52 40.03 170.13 C 41.59 167.61 40.15 166.91 37.84 166.23 C 36.74 165.11 35.67 163.97 34.62 162.81 C 37.47 162.06 40.21 162.12 43.14 161.98 Z" fill="#a05146" />
<path d="M 164.30 161.70 C 163.78 166.51 159.38 171.29 156.52 175.04 C 156.56 171.35 156.08 172.27 152.94 171.47 C 157.08 168.76 160.56 165.02 164.30 161.70 Z" fill="#c3a165" />
<path d="M 189.75 164.25 C 189.31 168.53 185.93 173.24 183.99 177.05 C 187.76 180.43 188.76 181.30 192.25 176.94 C 194.19 180.95 187.11 186.59 183.35 185.22 C 180.04 183.36 177.00 181.44 175.08 178.03 C 176.61 173.27 178.40 171.86 182.74 169.70 C 184.63 167.86 186.05 160.20 189.75 164.25 Z" fill="#a0513d" />
<path d="M 222.26 164.87 L 223.00 165.46 C 223.02 169.06 223.55 172.60 223.78 176.19 C 222.99 174.23 222.28 172.25 221.73 170.21 C 221.88 168.43 222.08 166.65 222.26 164.87 Z" fill="#a29fa2" />
<path d="M 37.84 166.23 C 40.15 166.91 41.59 167.61 40.03 170.13 C 38.13 169.21 37.88 168.23 37.84 166.23 Z" fill="#ca988c" />
<path d="M 220.04 165.56 C 220.75 167.05 221.22 168.64 221.73 170.21 C 222.28 172.25 222.99 174.23 223.78 176.19 C 224.59 178.50 225.65 180.70 226.77 182.88 C 226.27 183.79 226.16 187.05 224.90 186.83 C 220.61 185.95 219.42 181.05 217.93 177.58 C 218.39 173.81 216.67 168.08 220.04 165.56 Z" fill="#874a47" />
<path d="M 34.00 167.86 C 36.37 169.89 40.62 174.41 41.22 177.30 C 38.27 175.11 39.29 177.49 39.75 179.41 C 37.40 179.79 34.78 179.57 34.53 176.66 C 34.02 173.36 29.30 170.51 34.00 167.86 Z" fill="#e6d9b7" />
<path d="M 178.13 169.05 C 172.37 175.31 165.53 180.87 159.49 186.84 C 153.31 192.10 146.49 196.16 139.96 200.93 L 139.16 201.08 C 137.16 200.91 125.51 202.92 130.98 205.99 C 124.46 209.31 114.99 211.62 110.36 217.35 C 107.37 220.91 110.21 225.54 112.86 228.31 C 114.55 228.87 116.32 229.25 118.05 229.66 C 114.62 231.30 112.09 233.45 108.03 232.92 C 106.38 231.51 104.84 231.65 102.86 232.22 C 98.61 230.80 94.90 226.79 92.66 223.03 C 93.39 220.36 93.40 218.64 92.59 215.98 C 93.02 214.53 93.46 213.08 93.96 211.66 C 94.95 214.38 96.12 216.19 98.42 217.95 C 99.34 214.43 99.17 209.54 103.02 207.94 C 105.20 206.62 106.59 204.72 108.28 202.88 C 110.54 203.26 109.14 205.21 109.29 206.81 C 114.81 203.32 118.40 198.07 124.25 195.00 C 129.71 194.85 133.27 191.32 138.68 190.71 C 144.48 186.75 148.69 181.95 155.68 179.60 C 162.66 177.64 156.95 182.74 161.95 179.97 C 167.63 176.90 172.15 171.42 178.13 169.05 Z" fill="#26243b" />
<path d="M 206.06 168.84 C 206.01 170.23 205.93 171.61 205.81 172.98 C 204.88 172.98 203.94 172.98 203.01 172.99 C 203.85 171.41 204.50 169.87 206.06 168.84 Z" fill="#cebaac" />
<path d="M 206.06 168.84 C 207.62 172.04 207.38 177.44 208.62 181.21 C 207.75 180.67 207.09 179.89 206.62 178.85 C 205.12 176.79 205.57 175.45 205.81 172.98 C 205.93 171.61 206.01 170.23 206.06 168.84 Z" fill="#6e5e57" />
<path d="M 51.98 170.15 C 53.31 170.43 54.62 170.82 55.93 171.20 C 61.07 172.87 65.79 174.54 70.11 177.91 C 76.38 175.44 77.14 174.31 83.11 178.31 C 82.71 180.76 81.50 178.84 79.98 178.56 C 76.94 176.88 76.81 177.06 74.89 179.98 C 73.04 186.54 70.65 176.65 66.34 179.32 C 62.33 179.83 65.66 183.74 65.82 186.19 C 64.14 184.56 62.47 182.92 60.91 181.17 C 59.80 179.55 58.58 178.12 57.10 176.82 C 55.37 174.83 52.60 172.79 51.98 170.15 Z" fill="#33253e" />
<path d="M 164.00 169.91 C 165.35 170.32 166.68 170.74 168.03 171.13 C 164.37 173.59 162.92 177.24 158.02 177.11 C 160.59 175.08 162.39 172.75 164.00 169.91 Z" fill="#a86b4a" />
<path d="M 101.18 170.94 C 102.71 172.40 102.63 173.53 101.33 175.11 C 100.78 173.74 100.73 172.35 101.18 170.94 Z" fill="#9495a3" />
<path d="M 203.01 172.99 C 203.94 172.98 204.88 172.98 205.81 172.98 C 205.57 175.45 205.12 176.79 206.62 178.85 C 205.33 183.11 208.66 187.54 208.82 192.03 C 209.53 195.11 207.71 198.64 211.71 199.53 C 209.88 202.44 207.44 205.63 205.01 208.04 C 202.09 210.22 200.28 207.35 197.50 206.45 C 196.47 211.90 191.44 204.87 189.93 202.98 C 193.97 203.33 197.53 204.01 201.48 202.54 C 204.69 196.09 207.57 191.52 203.51 184.44 C 202.01 182.36 200.97 180.43 200.23 177.95 C 201.16 176.30 202.10 174.65 203.01 172.99 Z" fill="#ad875c" />
<path d="M 41.22 177.30 L 41.11 179.21 L 40.73 179.88 L 39.75 179.41 C 39.29 177.49 38.27 175.11 41.22 177.30 Z" fill="#7e7565" />
<path d="M 51.38 175.76 C 52.94 176.10 54.50 176.45 56.05 176.82 C 56.39 180.10 58.41 180.00 60.91 181.17 C 62.47 182.92 64.14 184.56 65.82 186.19 C 67.28 187.96 68.34 188.38 70.50 188.89 C 71.60 192.44 72.32 192.01 75.47 193.01 C 78.19 195.39 81.06 197.28 84.15 199.14 C 84.44 199.96 84.71 200.77 84.99 201.59 C 83.63 201.75 82.27 201.90 80.92 202.06 C 79.93 202.17 78.98 202.42 78.07 202.81 C 75.03 204.49 74.85 203.28 72.87 201.16 C 70.40 198.03 67.09 195.71 64.19 192.91 C 62.76 189.92 61.24 187.95 57.93 186.99 C 55.33 185.66 53.04 184.12 50.84 182.21 C 47.36 178.24 47.76 179.34 51.38 175.76 Z" fill="#e4d1ad" />
<path d="M 136.94 175.80 C 138.00 176.23 140.66 175.24 138.97 177.08 C 136.29 179.44 142.39 178.51 143.54 179.25 C 146.01 180.57 147.26 177.52 148.94 176.25 C 152.00 176.40 155.00 176.44 158.02 177.11 C 157.22 177.93 156.46 178.77 155.68 179.60 C 148.69 181.95 144.48 186.75 138.68 190.71 C 133.27 191.32 129.71 194.85 124.25 195.00 C 123.11 194.77 121.98 194.54 120.84 194.33 C 121.08 190.41 122.36 188.05 120.73 184.12 C 126.45 182.24 131.90 179.07 136.94 175.80 Z" fill="#aa7251" />
<path d="M 147.01 175.91 L 148.94 176.25 C 147.26 177.52 146.01 180.57 143.54 179.25 C 144.64 178.08 145.77 176.94 147.01 175.91 Z" fill="#564133" />
<path d="M 56.05 176.82 L 57.10 176.82 C 58.58 178.12 59.80 179.55 60.91 181.17 C 58.41 180.00 56.39 180.10 56.05 176.82 Z" fill="#a684b2" />
<path d="M 79.98 178.56 C 79.47 180.13 78.43 180.73 79.88 182.15 C 83.77 185.92 83.65 190.92 89.79 191.41 C 87.97 193.37 85.99 195.19 83.99 196.96 C 79.38 192.59 76.48 186.05 74.89 179.98 C 76.81 177.06 76.94 176.88 79.98 178.56 Z" fill="#e2ceae" />
<path d="M 200.23 177.95 C 200.97 180.43 202.01 182.36 203.51 184.44 C 207.57 191.52 204.69 196.09 201.48 202.54 C 197.53 204.01 193.97 203.33 189.93 202.98 C 189.08 202.26 188.21 201.56 187.30 200.91 C 185.09 199.12 182.39 198.36 180.17 196.61 C 183.39 195.26 184.60 194.35 186.30 191.30 C 191.65 187.17 196.91 184.13 200.23 177.95 Z" fill="#f1ede7" />
<path d="M 41.11 179.21 C 44.10 181.16 47.40 181.63 50.84 182.21 C 53.04 184.12 55.33 185.66 57.93 186.99 C 59.73 189.35 61.66 191.34 64.19 192.91 C 67.09 195.71 70.40 198.03 72.87 201.16 C 74.85 203.28 75.03 204.49 78.07 202.81 C 81.37 204.21 79.52 204.12 78.05 206.14 L 76.85 207.17 C 76.28 207.30 75.71 207.40 75.14 207.48 C 69.42 200.66 62.73 193.18 54.75 188.98 L 53.96 188.58 C 52.76 187.95 51.55 187.38 50.33 186.79 C 48.94 185.98 47.55 185.16 46.14 184.39 C 44.26 182.98 42.42 181.51 40.73 179.88 L 41.11 179.21 Z" fill="#26232e" />
<path d="M 66.34 179.32 C 70.65 176.65 73.04 186.54 74.89 179.98 C 76.48 186.05 79.38 192.59 83.99 196.96 C 84.92 198.25 87.23 198.73 84.15 199.14 C 81.06 197.28 78.19 195.39 75.47 193.01 C 72.32 192.01 71.60 192.44 70.50 188.89 C 68.34 188.38 67.28 187.96 65.82 186.19 C 65.66 183.74 62.33 179.83 66.34 179.32 Z" fill="#ab7dba" />
<path d="M 120.73 184.12 C 122.36 188.05 121.08 190.41 120.84 194.33 C 116.73 197.70 112.82 200.23 108.28 202.88 C 106.59 204.72 105.20 206.62 103.02 207.94 C 96.71 206.34 100.52 216.25 95.12 209.86 C 94.95 207.45 94.52 205.19 93.88 202.87 C 96.24 198.16 101.83 198.20 104.20 194.45 C 102.85 194.67 101.31 196.18 100.20 194.88 C 103.62 188.24 112.87 180.57 120.73 184.12 Z" fill="#a34d40" />
<path d="M 38.12 184.08 C 37.07 189.10 30.81 187.87 31.58 193.66 C 29.39 195.61 26.64 196.50 24.83 198.97 L 23.89 199.99 C 23.84 193.82 31.70 184.22 38.12 184.08 Z" fill="#b16e63" />
<path d="M 38.12 184.08 C 40.76 183.93 43.48 184.29 46.14 184.39 C 47.55 185.16 48.94 185.98 50.33 186.79 C 49.97 188.82 49.57 190.84 49.18 192.87 C 44.27 194.10 40.01 195.73 36.25 199.25 C 33.78 202.72 27.63 201.00 24.83 198.97 C 26.64 196.50 29.39 195.61 31.58 193.66 C 30.81 187.87 37.07 189.10 38.12 184.08 Z" fill="#95463d" />
<path d="M 50.33 186.79 C 51.55 187.38 52.76 187.95 53.96 188.58 C 51.68 190.32 52.96 200.46 49.80 194.86 C 49.59 194.20 49.39 193.53 49.18 192.87 C 49.57 190.84 49.97 188.82 50.33 186.79 Z" fill="#c2a48c" />
<path d="M 57.93 186.99 C 61.24 187.95 62.76 189.92 64.19 192.91 C 61.66 191.34 59.73 189.35 57.93 186.99 Z" fill="#8b8372" />
<path d="M 159.49 186.84 C 161.46 191.17 162.01 190.01 165.65 188.57 C 166.45 190.45 165.73 190.70 167.66 189.67 C 168.75 192.31 168.77 191.90 171.35 191.24 C 175.59 191.81 179.80 192.21 184.09 192.15 C 176.10 195.90 169.50 191.96 161.74 191.63 C 160.81 191.90 159.92 192.29 159.06 192.82 C 152.87 196.56 147.48 200.51 139.96 200.93 C 146.49 196.16 153.31 192.10 159.49 186.84 Z" fill="#c6ac84" />
<path d="M 54.75 188.98 C 62.73 193.18 69.42 200.66 75.14 207.48 C 75.71 207.40 76.28 207.30 76.85 207.17 C 79.44 208.21 83.89 211.49 80.04 214.01 C 69.18 206.75 58.82 202.54 54.75 188.98 Z" fill="#e5d6a9" />
<path d="M 184.09 192.15 C 184.83 191.88 185.57 191.59 186.30 191.30 C 184.60 194.35 183.39 195.26 180.17 196.61 C 182.39 198.36 185.09 199.12 187.30 200.91 C 182.16 201.75 181.29 199.17 176.73 204.19 C 176.11 204.78 175.52 205.39 174.94 206.01 C 174.40 206.37 173.87 206.73 173.34 207.08 C 172.29 204.43 170.93 202.30 169.10 200.14 C 171.63 199.73 173.90 198.88 175.93 197.29 C 170.49 194.40 166.20 197.08 161.74 191.63 C 169.50 191.96 176.10 195.90 184.09 192.15 Z" fill="#decba3" />
<path d="M 161.74 191.63 C 166.20 197.08 170.49 194.40 175.93 197.29 C 173.90 198.88 171.63 199.73 169.10 200.14 C 166.34 198.46 164.17 197.89 160.93 197.71 C 162.24 197.27 163.56 196.95 164.87 196.55 C 163.40 194.50 161.40 193.58 159.06 192.82 C 159.92 192.29 160.81 191.90 161.74 191.63 Z" fill="#e9e1cb" />
<path d="M 49.18 192.87 C 49.39 193.53 49.59 194.20 49.80 194.86 C 47.70 195.67 45.84 196.62 43.96 197.85 C 41.31 199.44 36.98 199.58 36.20 203.14 C 35.85 206.11 33.89 208.79 36.80 210.98 C 40.90 216.59 40.56 218.00 48.10 216.05 C 46.36 217.20 44.61 218.33 42.85 219.45 C 41.97 219.71 41.10 219.97 40.22 220.22 C 37.05 220.03 33.96 220.04 30.79 220.25 C 29.60 219.88 28.43 219.44 27.30 218.93 C 28.68 215.80 24.91 213.29 23.19 211.07 C 26.48 206.08 18.75 207.79 23.19 211.07 C 22.84 212.13 22.47 213.18 22.09 214.23 L 20.98 212.85 C 21.33 210.41 21.29 208.35 20.58 205.97 C 21.24 203.69 22.53 201.88 23.89 199.99 L 24.83 198.97 C 27.63 201.00 33.78 202.72 36.25 199.25 C 40.01 195.73 44.27 194.10 49.18 192.87 Z" fill="#2d283e" />
<path d="M 159.06 192.82 C 161.40 193.58 163.40 194.50 164.87 196.55 C 163.56 196.95 162.24 197.27 160.93 197.71 C 159.18 198.30 158.05 199.54 156.77 200.80 C 154.78 202.50 153.84 204.71 152.76 207.03 C 151.43 209.06 151.16 211.01 152.76 213.00 C 153.75 213.86 155.05 218.14 155.63 214.77 C 156.60 210.31 160.05 209.28 163.81 207.72 C 165.16 207.84 166.51 207.96 167.86 208.08 C 169.57 212.12 168.55 214.90 173.17 210.76 C 172.73 214.28 170.49 217.06 170.98 220.94 C 170.64 222.67 170.64 223.81 171.84 225.19 L 172.29 225.99 C 169.53 226.56 167.47 228.24 165.01 226.04 C 160.36 222.36 154.81 220.48 150.18 216.83 C 145.79 213.57 139.49 213.47 134.33 214.35 C 126.61 216.37 126.01 221.84 121.47 226.90 C 118.60 227.40 115.78 228.09 112.86 228.31 C 110.21 225.54 107.37 220.91 110.36 217.35 C 114.99 211.62 124.46 209.31 130.98 205.99 C 134.21 204.89 137.03 203.91 139.16 201.08 L 139.96 200.93 C 147.48 200.51 152.87 196.56 159.06 192.82 Z" fill="#f0f0ef" />
<path d="M 120.84 194.33 C 121.98 194.54 123.11 194.77 124.25 195.00 C 118.40 198.07 114.81 203.32 109.29 206.81 C 109.14 205.21 110.54 203.26 108.28 202.88 C 112.82 200.23 116.73 197.70 120.84 194.33 Z" fill="#6e3d40" />
<path d="M 43.96 197.85 C 46.41 201.20 42.06 201.18 40.41 203.41 C 38.85 205.71 37.81 208.41 36.80 210.98 C 33.89 208.79 35.85 206.11 36.20 203.14 C 36.98 199.58 41.31 199.44 43.96 197.85 Z" fill="#a48053" />
<path d="M 160.93 197.71 C 163.06 201.21 158.88 199.88 156.77 200.80 C 158.05 199.54 159.18 198.30 160.93 197.71 Z" fill="#8b8b98" />
<path d="M 160.93 197.71 C 164.17 197.89 166.34 198.46 169.10 200.14 C 170.93 202.30 172.29 204.43 173.34 207.08 C 170.29 207.03 166.68 206.59 163.81 207.72 C 160.05 209.28 156.60 210.31 155.63 214.77 C 155.05 218.14 153.75 213.86 152.76 213.00 C 153.32 210.81 153.33 209.22 152.76 207.03 C 153.84 204.71 154.78 202.50 156.77 200.80 C 158.88 199.88 163.06 201.21 160.93 197.71 Z" fill="#2a2a42" />
<path d="M 222.63 200.04 C 224.07 200.85 225.54 201.58 227.10 202.12 C 221.59 204.08 222.86 207.89 219.08 211.11 C 217.38 209.54 216.44 208.91 214.04 208.80 C 217.45 206.31 219.19 202.49 222.63 200.04 Z" fill="#b49269" />
<path d="M 83.10 205.30 C 82.38 204.22 81.66 203.13 80.92 202.06 C 82.27 201.90 83.63 201.75 84.99 201.59 C 91.07 199.56 85.96 206.48 83.10 205.30 Z" fill="#323038" />
<path d="M 139.16 201.08 C 137.03 203.91 134.21 204.89 130.98 205.99 C 125.51 202.92 137.16 200.91 139.16 201.08 Z" fill="#a18b74" />
<path d="M 80.92 202.06 C 81.66 203.13 82.38 204.22 83.10 205.30 C 81.42 205.56 79.73 205.84 78.05 206.14 C 79.52 204.12 81.37 204.21 78.07 202.81 C 78.98 202.42 79.93 202.17 80.92 202.06 Z" fill="#7a787e" />
<path d="M 227.10 202.12 C 235.25 202.55 233.47 207.13 234.74 213.21 C 234.82 214.58 234.84 215.94 234.80 217.30 C 232.51 215.46 229.87 209.38 227.17 209.16 C 224.45 209.63 221.78 210.48 219.08 211.11 C 222.86 207.89 221.59 204.08 227.10 202.12 Z" fill="#2e2c3e" />
<path d="M 93.88 202.87 C 94.52 205.19 94.95 207.45 95.12 209.86 L 94.19 210.96 C 91.84 207.54 91.03 206.42 93.88 202.87 Z" fill="#c89895" />
<path d="M 127.29 204.31 C 129.83 205.06 124.43 208.40 124.31 206.25 C 124.76 205.15 126.17 204.48 127.29 204.31 Z" fill="#6b6e85" />
<path d="M 176.73 204.19 C 179.20 205.39 181.26 205.45 183.95 205.32 C 181.73 209.30 178.47 206.18 174.94 206.01 C 175.52 205.39 176.11 204.78 176.73 204.19 Z" fill="#978f89" />
<path d="M 20.58 205.97 C 21.29 208.35 21.33 210.41 20.98 212.85 C 18.96 210.81 19.60 208.33 20.58 205.97 Z" fill="#9d9eac" />
<path d="M 152.76 207.03 C 153.33 209.22 153.32 210.81 152.76 213.00 C 151.16 211.01 151.43 209.06 152.76 207.03 Z" fill="#ababb8" />
<path d="M 173.34 207.08 L 172.99 207.98 C 171.28 208.02 169.57 208.06 167.86 208.08 C 166.51 207.96 165.16 207.84 163.81 207.72 C 166.68 206.59 170.29 207.03 173.34 207.08 Z" fill="#828089" />
<path d="M 23.19 211.07 C 26.48 206.08 18.75 207.79 23.19 211.07 Z" fill="#828796" />
<path d="M 103.02 207.94 C 99.17 209.54 99.34 214.43 98.42 217.95 C 96.12 216.19 94.95 214.38 93.96 211.66 L 94.19 210.96 L 95.12 209.86 C 100.52 216.25 96.71 206.34 103.02 207.94 Z" fill="#54333e" />
<path d="M 167.86 208.08 C 169.57 208.06 171.28 208.02 172.99 207.98 C 173.07 208.90 173.13 209.83 173.17 210.76 C 168.55 214.90 169.57 212.12 167.86 208.08 Z" fill="#e0d1af" />
<path d="M 214.04 208.80 C 216.44 208.91 217.38 209.54 219.08 211.11 C 223.06 214.90 224.29 212.08 227.17 209.16 C 229.87 209.38 232.51 215.46 234.80 217.30 C 231.05 220.32 226.77 220.82 222.16 221.32 C 214.80 222.23 208.51 225.15 201.64 227.64 C 194.34 229.75 181.35 233.91 174.96 228.36 C 176.91 225.45 178.26 222.25 179.98 219.22 C 188.68 218.21 192.60 227.33 200.17 220.30 C 202.76 218.54 205.42 216.88 208.02 215.13 C 210.40 213.41 211.66 210.60 214.04 208.80 Z" fill="#f2f0ee" />
<path d="M 227.17 209.16 C 224.29 212.08 223.06 214.90 219.08 211.11 C 221.78 210.48 224.45 209.63 227.17 209.16 Z" fill="#ac9378" />
<path d="M 23.19 211.07 C 24.91 213.29 28.68 215.80 27.30 218.93 C 25.04 218.00 23.56 216.10 22.09 214.23 C 22.47 213.18 22.84 212.13 23.19 211.07 Z" fill="#a3a4b2" />
<path d="M 208.02 215.13 C 205.42 216.88 202.76 218.54 200.17 220.30 C 196.70 219.59 194.48 218.76 191.14 220.45 C 188.72 218.78 186.97 216.52 185.58 213.95 C 194.47 207.28 198.36 216.16 208.02 215.13 Z" fill="#b18753" />
<path d="M 185.58 213.95 C 186.97 216.52 188.72 218.78 191.14 220.45 C 194.48 218.76 196.70 219.59 200.17 220.30 C 192.60 227.33 188.68 218.21 179.98 219.22 C 181.21 216.77 183.29 215.33 185.58 213.95 Z" fill="#e3d3aa" />
<path d="M 92.59 215.98 C 93.40 218.64 93.39 220.36 92.66 223.03 C 91.18 220.74 91.57 218.36 92.59 215.98 Z" fill="#7a7b8d" />
<path d="M 30.79 220.25 C 33.96 220.04 37.05 220.03 40.22 220.22 C 37.05 221.33 33.95 221.39 30.79 220.25 Z" fill="#83828c" />
<path d="M 170.98 220.94 C 172.53 222.14 172.37 223.49 171.84 225.19 C 170.64 223.81 170.64 222.67 170.98 220.94 Z" fill="#9394a2" />
<path d="M 121.47 226.90 C 120.38 227.95 119.45 229.00 118.05 229.66 C 116.32 229.25 114.55 228.87 112.86 228.31 C 115.78 228.09 118.60 227.40 121.47 226.90 Z" fill="#707080" />
<path d="M 108.44 229.24 C 109.65 228.44 111.72 229.31 112.60 230.31 C 112.62 232.04 107.44 231.03 108.44 229.24 Z" fill="#6d6f8b" />
<path d="M 102.86 232.22 C 104.84 231.65 106.38 231.51 108.03 232.92 C 106.24 233.19 104.54 233.26 102.79 232.76 L 102.86 232.22 Z" fill="#7d7d8d" />
</svg>