<?xml version="1.0" encoding="UTF-8" standalone="no"?>
<!DOCTYPE svg PUBLIC "-//W3C//DTD SVG 1.1//EN" "http://www.w3.org/Graphics/SVG/1.1/DTD/svg11.dtd">
<svg xmlns="http://www.w3.org/2000/svg" version="1.1" viewBox="0 0 256 256" width="256.0pt" height="256.0pt">
<path d="M 0.00 0.00 L 256.00 0.00 L 256.00 256.00 L 0.00 256.00 L 0.00 0.00 Z" fill="#fefefe" />
<path d="M 136.03 19.94 C 141.12 21.30 143.90 25.92 149.30 27.03 C 148.76 29.85 149.07 32.87 150.11 35.54 C 148.14 42.59 144.81 49.22 140.19 54.92 C 140.19 54.03 140.20 53.15 140.22 52.26 C 141.33 48.82 141.34 46.21 140.31 42.75 C 138.95 38.08 137.17 31.93 133.03 28.97 C 131.25 26.82 129.10 25.15 126.77 23.64 C 124.78 22.20 122.46 21.45 120.06 21.11 C 119.90 23.45 121.19 24.96 122.13 26.95 C 122.81 34.93 117.37 39.61 112.81 45.25 C 109.90 44.20 110.12 40.95 107.18 40.16 C 106.14 42.35 105.99 44.63 105.89 47.02 C 103.09 47.84 100.80 48.42 97.99 47.17 C 97.11 42.91 93.04 40.49 88.83 41.13 C 85.74 40.54 87.27 43.64 88.03 45.14 C 87.76 46.79 87.39 48.42 87.04 50.06 C 85.61 50.34 84.19 50.57 82.77 50.85 C 73.83 52.06 67.75 45.77 63.95 38.51 C 65.73 35.90 62.67 32.79 62.07 30.07 C 68.92 30.56 75.28 35.40 82.15 36.80 C 94.63 36.89 105.75 33.99 114.19 24.20 C 118.03 16.64 129.25 18.07 136.03 19.94 Z" fill="#f1f1f0" />
<path d="M 120.06 21.11 C 122.46 21.45 124.78 22.20 126.77 23.64 C 125.75 26.34 131.21 28.20 133.03 28.97 C 134.52 33.80 137.30 37.99 138.50 42.96 C 136.18 44.70 134.85 46.66 133.25 49.04 C 133.19 46.98 133.36 44.93 133.21 42.87 C 132.86 39.89 131.95 37.00 131.63 34.00 C 130.62 35.73 130.72 41.01 128.36 40.95 C 128.53 38.45 129.04 36.81 127.11 34.80 C 124.98 36.52 123.96 41.67 120.70 39.12 C 123.31 35.82 123.96 30.72 122.13 26.95 C 121.19 24.96 119.90 23.45 120.06 21.11 Z" fill="#e7c26a" />
<path d="M 126.77 23.64 C 129.10 25.15 131.25 26.82 133.03 28.97 C 131.21 28.20 125.75 26.34 126.77 23.64 Z" fill="#584826" />
<path d="M 122.13 26.95 C 123.96 30.72 123.31 35.82 120.70 39.12 C 118.92 41.17 117.02 43.19 115.48 45.43 C 117.40 46.57 119.43 50.44 121.91 48.98 C 124.02 48.11 125.69 47.90 127.98 48.08 C 125.66 52.47 122.29 51.74 118.18 53.13 C 120.01 59.91 128.97 47.48 126.24 55.20 C 125.36 57.16 123.68 58.87 123.80 61.00 C 122.70 62.66 121.44 64.19 120.17 65.72 C 118.72 66.59 117.26 67.42 115.85 68.35 C 116.14 66.19 117.37 65.08 115.34 63.32 C 114.45 60.80 111.06 64.64 110.05 65.53 C 105.20 69.07 103.90 73.94 100.97 78.82 C 100.01 79.98 101.20 80.02 101.86 80.88 C 100.67 81.78 99.42 82.56 98.11 83.26 C 97.02 83.30 95.92 83.33 94.83 83.36 C 98.54 77.96 100.83 74.47 96.72 68.30 C 94.54 64.30 90.02 59.02 84.99 61.90 C 88.94 57.63 88.44 55.45 87.04 50.06 C 87.39 48.42 87.76 46.79 88.03 45.14 C 91.03 48.56 91.22 54.04 96.99 53.04 C 101.75 52.69 99.07 49.68 97.99 47.17 C 100.80 48.42 103.09 47.84 105.89 47.02 C 109.09 47.94 110.67 48.10 112.81 45.25 C 117.37 39.61 122.81 34.93 122.13 26.95 Z" fill="#543b34" />
<path d="M 151.21 27.98 C 153.59 29.44 152.77 31.57 153.16 33.98 L 153.21 34.93 C 152.49 33.94 151.80 32.93 151.11 31.92 C 151.12 30.60 151.15 29.29 151.21 27.98 Z" fill="#878792" />
<path d="M 232.35 30.24 C 234.14 29.85 235.02 28.58 236.46 30.48 C 234.27 31.56 232.12 32.72 229.97 33.87 C 225.70 35.76 222.82 38.30 219.87 41.85 C 219.11 42.57 218.36 43.31 217.63 44.06 C 217.02 44.67 216.43 45.29 215.85 45.92 C 211.21 51.87 207.05 45.53 201.52 50.73 C 196.61 51.37 193.48 54.29 189.12 56.32 C 187.94 57.31 188.69 58.75 186.76 59.45 C 184.42 57.28 186.80 55.73 187.23 53.18 C 189.09 48.87 185.82 45.25 188.21 40.92 L 189.38 39.98 C 189.81 39.66 190.23 39.34 190.66 39.02 C 191.08 40.08 190.77 42.52 191.98 42.93 C 192.33 40.16 191.13 36.88 192.00 34.28 C 195.13 35.53 198.57 37.99 201.99 38.01 C 212.25 37.56 217.68 29.09 227.63 28.47 C 230.12 28.23 231.36 27.29 232.35 30.24 Z" fill="#f1f1f0" />
<path d="M 58.20 28.96 C 60.85 31.44 61.99 35.45 63.95 38.51 C 67.75 45.77 73.83 52.06 82.77 50.85 C 87.93 55.95 80.46 53.78 77.35 53.60 C 75.20 52.73 73.21 51.48 71.10 50.52 C 67.47 47.35 64.74 43.50 62.00 39.59 C 61.00 37.07 60.49 34.46 58.31 32.72 C 58.23 31.46 58.19 30.21 58.20 28.96 Z" fill="#3d2c3a" />
<path d="M 133.03 28.97 C 137.17 31.93 138.95 38.08 140.31 42.75 C 140.02 45.97 139.98 49.04 140.22 52.26 C 140.20 53.15 140.19 54.03 140.19 54.92 C 144.81 49.22 148.14 42.59 150.11 35.54 C 150.48 34.34 150.81 33.13 151.11 31.92 C 151.80 32.93 152.49 33.94 153.21 34.93 C 151.99 45.64 150.88 54.65 141.70 61.65 C 136.25 63.18 137.87 69.01 133.24 72.23 C 127.75 76.00 124.78 81.23 118.15 83.24 C 112.01 84.69 117.77 81.72 115.81 78.61 C 117.40 75.51 119.51 72.83 121.93 70.35 C 125.56 67.31 129.19 64.17 133.19 61.64 C 136.83 59.85 137.72 56.97 138.37 53.21 C 139.27 49.89 139.34 46.30 138.50 42.96 C 137.30 37.99 134.52 33.80 133.03 28.97 Z" fill="#2d2a3e" />
<path d="M 185.23 32.87 C 185.73 36.43 177.16 32.64 175.23 32.66 C 175.98 28.26 182.76 30.76 185.23 32.87 Z" fill="#5c5e6d" />
<path d="M 190.66 39.02 C 190.23 39.34 189.81 39.66 189.38 39.98 C 188.73 37.12 187.13 35.02 185.23 32.87 C 184.59 27.92 191.12 37.29 190.66 39.02 Z" fill="#6a6b77" />
<path d="M 236.46 30.48 C 236.72 35.45 235.86 40.85 233.03 45.05 C 232.79 40.67 232.96 38.17 234.88 34.24 C 233.97 34.15 233.07 34.07 232.16 34.02 L 229.97 33.87 C 232.12 32.72 234.27 31.56 236.46 30.48 Z" fill="#e4c698" />
<path d="M 236.46 30.48 C 238.76 32.77 238.98 32.85 237.43 35.70 C 238.73 35.76 239.80 35.08 240.74 36.29 C 242.19 44.53 239.76 51.65 235.66 58.67 C 232.32 64.19 227.50 76.16 233.72 80.97 C 232.00 82.11 226.51 81.40 226.20 82.99 C 229.52 83.24 232.64 82.51 235.90 82.13 C 236.13 84.52 233.77 83.95 232.14 84.63 C 231.49 84.51 230.83 84.40 230.17 84.30 C 228.05 83.92 226.02 83.89 223.96 84.52 C 218.50 86.08 213.06 87.68 207.73 89.66 C 204.60 90.53 201.62 91.69 198.67 93.05 C 197.11 93.52 195.57 93.98 194.06 94.60 C 191.95 95.46 189.94 96.48 187.88 97.44 C 184.88 99.71 177.91 99.03 176.73 102.11 C 173.71 103.42 170.26 104.30 167.51 106.11 C 167.61 107.99 167.85 109.85 167.95 111.73 C 167.10 111.83 166.24 111.91 165.38 111.96 C 164.66 111.60 163.95 111.25 163.23 110.91 L 162.07 110.32 C 163.03 109.25 164.00 108.21 164.90 107.09 C 162.81 107.32 160.75 107.70 158.67 108.01 C 162.72 105.04 166.79 101.75 169.92 97.80 C 170.49 95.74 169.06 95.28 167.90 93.95 C 171.50 91.65 174.72 88.89 177.81 85.95 C 178.67 87.36 179.54 93.07 181.52 89.55 C 184.53 84.83 189.31 85.72 193.00 82.38 L 194.05 81.49 C 196.59 79.86 199.22 78.38 201.87 76.95 C 205.36 76.24 210.98 76.42 213.12 73.16 C 215.29 70.24 217.85 67.70 220.15 64.91 C 221.82 62.91 223.50 60.91 225.31 59.03 C 228.24 56.25 230.37 55.58 229.05 51.06 C 229.90 49.70 230.69 48.31 231.47 46.91 C 232.02 46.31 232.54 45.69 233.03 45.05 C 235.86 40.85 236.72 35.45 236.46 30.48 Z" fill="#f0efee" />
<path d="M 55.92 32.12 C 55.89 34.55 55.53 36.77 55.77 39.14 L 55.81 39.79 C 47.70 46.49 52.21 57.08 56.39 64.62 C 59.43 71.06 64.07 71.31 70.18 72.97 C 69.84 74.25 69.86 75.60 70.22 77.03 C 67.98 79.32 67.62 81.55 64.01 79.84 C 62.07 78.29 60.21 78.67 57.99 79.26 C 54.85 77.43 53.90 77.25 50.34 78.23 C 50.71 81.17 51.10 84.04 50.84 87.01 C 49.27 89.41 49.34 91.52 50.65 94.01 C 51.76 96.71 53.35 99.09 54.96 101.50 C 56.25 104.03 57.58 106.41 59.90 108.15 C 61.51 109.46 63.18 110.71 64.92 111.85 C 64.07 107.39 63.48 103.36 64.93 98.92 C 65.98 98.43 67.03 97.92 68.08 97.42 C 69.37 96.84 70.66 96.25 71.97 95.69 C 74.27 96.36 75.77 96.36 78.06 95.65 C 85.15 97.69 74.55 99.56 74.12 103.10 C 72.83 105.05 70.50 112.89 75.07 107.87 C 78.15 108.16 79.34 107.65 80.24 111.09 C 80.13 113.12 80.10 115.16 80.05 117.19 C 79.18 119.76 79.23 122.33 79.18 125.00 C 73.65 124.46 70.41 126.23 66.12 129.32 C 64.74 128.80 63.33 128.74 61.90 129.15 L 61.12 128.85 C 59.80 127.54 58.69 127.61 56.99 128.09 C 50.86 123.31 55.88 130.45 58.41 131.54 C 60.09 132.27 61.91 132.73 63.65 133.33 C 61.71 136.52 61.19 141.17 57.98 143.14 C 57.31 143.36 56.64 143.57 55.97 143.79 L 55.07 142.92 C 54.94 140.29 55.03 138.08 53.25 135.95 C 53.08 137.61 52.99 139.27 52.98 140.93 C 52.30 143.14 53.83 155.02 57.46 149.26 C 59.01 148.72 60.56 148.17 62.10 147.57 C 69.15 146.08 68.44 137.10 76.40 139.49 C 80.82 139.89 80.34 142.12 81.45 145.62 C 82.54 149.84 85.01 153.80 87.84 157.07 C 91.97 162.58 96.16 164.14 102.98 164.08 C 106.70 165.53 115.38 165.57 119.06 164.08 C 120.64 163.42 122.09 162.92 123.84 163.06 C 123.17 167.07 121.62 170.58 122.18 174.76 C 122.11 177.72 121.59 180.42 122.74 183.23 C 123.84 186.80 125.35 188.15 128.83 189.40 C 132.84 190.41 138.15 190.33 142.19 189.43 C 146.56 188.45 149.70 185.83 153.01 183.01 C 159.59 177.33 165.88 171.08 171.06 164.08 L 171.23 165.14 C 167.30 173.04 162.14 180.19 157.98 187.93 C 154.22 189.82 151.60 192.81 148.76 195.81 C 146.05 198.27 144.10 201.26 141.99 204.22 C 140.57 204.77 139.15 206.81 137.82 205.15 C 131.25 198.02 122.70 195.97 118.42 186.60 C 111.30 173.82 100.09 172.10 88.44 165.50 C 80.86 160.69 73.14 150.91 63.09 155.05 C 54.22 158.91 45.15 161.55 35.38 161.89 C 36.64 156.67 31.80 160.44 28.83 159.51 C 25.80 157.12 24.38 153.74 20.45 152.52 C 14.88 144.62 17.89 125.72 27.82 123.36 C 32.99 125.39 35.85 121.44 40.94 121.98 C 46.53 125.69 44.45 122.92 45.29 118.22 C 45.65 116.79 44.32 116.50 43.53 115.52 C 45.84 112.84 48.70 112.24 48.07 108.00 C 46.73 103.15 44.44 99.15 44.27 93.85 C 42.58 85.28 46.52 78.34 46.77 70.06 C 45.93 64.71 46.04 59.34 45.06 54.01 C 44.61 45.87 48.21 35.94 55.92 32.12 Z" fill="#eff0f0" />
<path d="M 168.60 32.70 C 169.54 34.83 169.88 34.73 172.12 35.08 C 169.46 36.25 167.36 37.66 165.68 40.09 C 164.14 41.45 164.60 47.31 166.90 43.16 C 169.64 40.50 170.97 39.53 174.98 40.10 C 172.99 43.31 169.82 44.72 167.29 47.31 C 166.56 50.85 166.84 54.67 168.14 58.06 C 168.62 59.41 169.15 60.53 170.50 61.18 C 170.31 59.09 170.01 57.02 169.82 54.93 C 171.61 51.66 174.75 49.01 178.70 50.21 C 180.86 55.06 181.39 60.10 187.04 62.47 C 188.81 63.43 190.30 62.74 192.11 62.34 C 193.26 62.49 194.42 62.72 195.56 63.03 C 192.82 67.53 187.57 69.61 184.69 74.19 C 182.79 76.89 180.47 78.86 177.79 80.74 C 172.85 82.10 172.87 86.64 167.20 85.42 C 162.87 85.85 164.17 86.08 165.60 82.87 C 163.51 81.41 163.24 79.20 161.91 77.13 C 160.75 74.51 157.54 73.91 155.10 72.98 C 154.42 72.64 153.74 72.30 153.06 71.96 C 154.11 67.54 153.72 63.58 155.78 59.27 C 153.77 58.69 151.72 58.35 149.67 57.99 C 153.23 50.50 155.62 43.25 153.21 34.93 L 153.16 33.98 C 155.16 33.68 156.56 33.53 158.43 34.41 C 162.16 36.07 165.16 33.84 168.60 32.70 Z" fill="#eeedeb" />
<path d="M 58.31 32.72 C 60.49 34.46 61.00 37.07 62.00 39.59 C 57.83 42.10 62.21 49.22 64.65 51.66 C 67.47 47.92 67.44 50.15 71.10 50.52 C 73.21 51.48 75.20 52.73 77.35 53.60 C 80.46 53.78 87.93 55.95 82.77 50.85 C 84.19 50.57 85.61 50.34 87.04 50.06 C 88.44 55.45 88.94 57.63 84.99 61.90 C 84.13 62.82 83.21 63.47 82.13 64.10 C 84.14 59.15 79.38 64.69 77.74 65.20 C 73.75 64.86 71.78 68.37 67.96 67.19 C 64.30 66.94 62.17 64.79 59.77 62.31 C 58.12 58.99 56.04 55.96 54.04 52.85 C 53.36 48.05 58.76 44.17 55.81 39.79 L 55.77 39.14 C 56.97 37.08 57.87 35.09 58.31 32.72 Z" fill="#c4695c" />
<path d="M 131.63 34.00 C 131.95 37.00 132.86 39.89 133.21 42.87 C 129.91 44.87 123.85 45.62 121.91 48.98 C 119.43 50.44 117.40 46.57 115.48 45.43 C 117.02 43.19 118.92 41.17 120.70 39.12 C 123.96 41.67 124.98 36.52 127.11 34.80 C 129.04 36.81 128.53 38.45 128.36 40.95 C 130.72 41.01 130.62 35.73 131.63 34.00 Z" fill="#c37d53" />
<path d="M 229.97 33.87 L 232.16 34.02 C 229.28 40.56 226.01 40.08 219.87 41.85 C 222.82 38.30 225.70 35.76 229.97 33.87 Z" fill="#9b794d" />
<path d="M 232.16 34.02 C 233.07 34.07 233.97 34.15 234.88 34.24 C 232.96 38.17 232.79 40.67 233.03 45.05 C 232.54 45.69 232.02 46.31 231.47 46.91 C 227.87 44.63 219.77 46.91 217.63 44.06 C 218.36 43.31 219.11 42.57 219.87 41.85 C 226.01 40.08 229.28 40.56 232.16 34.02 Z" fill="#d7ab49" />
<path d="M 153.21 34.93 C 155.62 43.25 153.23 50.50 149.67 57.99 C 148.06 60.75 151.20 59.57 152.90 60.36 C 151.12 62.77 150.41 63.44 147.37 63.55 C 146.50 75.31 139.49 82.21 131.71 90.07 C 125.88 92.79 120.48 96.90 113.94 96.08 C 111.07 93.67 108.97 101.43 107.17 102.98 C 106.61 97.97 106.72 94.26 109.54 89.96 C 111.65 92.64 115.93 84.34 118.15 83.24 C 124.78 81.23 127.75 76.00 133.24 72.23 C 137.87 69.01 136.25 63.18 141.70 61.65 C 150.88 54.65 151.99 45.64 153.21 34.93 Z" fill="#8d6e69" />
<path d="M 172.12 35.08 C 174.18 35.17 175.40 35.87 177.01 37.05 C 178.18 38.52 179.34 38.42 181.01 37.93 C 183.41 38.91 185.84 39.83 188.21 40.92 C 185.82 45.25 189.09 48.87 187.23 53.18 C 186.80 55.73 184.42 57.28 186.76 59.45 C 186.85 60.45 186.97 61.46 187.04 62.47 C 181.39 60.10 180.86 55.06 178.70 50.21 C 174.75 49.01 171.61 51.66 169.82 54.93 C 169.21 55.95 168.69 57.01 168.14 58.06 C 166.84 54.67 166.56 50.85 167.29 47.31 C 169.82 44.72 172.99 43.31 174.98 40.10 C 170.97 39.53 169.64 40.50 166.90 43.16 C 166.49 42.14 166.08 41.12 165.68 40.09 C 167.36 37.66 169.46 36.25 172.12 35.08 Z" fill="#282a43" />
<path d="M 177.01 37.05 C 178.69 36.60 179.81 36.50 181.01 37.93 C 179.34 38.42 178.18 38.52 177.01 37.05 Z" fill="#afadb8" />
<path d="M 55.81 39.79 C 58.76 44.17 53.36 48.05 54.04 52.85 C 54.00 56.63 56.57 60.44 59.77 62.31 C 62.17 64.79 64.30 66.94 67.96 67.19 C 71.78 68.37 73.75 64.86 77.74 65.20 C 79.38 64.69 84.14 59.15 82.13 64.10 C 80.46 65.22 79.09 66.11 79.94 68.33 C 78.89 72.59 76.05 71.50 72.68 72.67 C 71.73 76.54 71.29 79.88 67.84 82.44 C 64.42 82.52 57.65 80.61 55.21 83.29 C 54.83 88.58 57.69 95.46 54.96 101.50 C 53.35 99.09 51.76 96.71 50.65 94.01 C 51.34 91.52 51.33 89.54 50.84 87.01 C 51.10 84.04 50.71 81.17 50.34 78.23 C 53.90 77.25 54.85 77.43 57.99 79.26 C 59.94 80.66 61.81 80.30 64.01 79.84 C 67.62 81.55 67.98 79.32 70.22 77.03 C 71.43 76.00 71.97 73.64 70.18 72.97 C 64.07 71.31 59.43 71.06 56.39 64.62 C 52.21 57.08 47.70 46.49 55.81 39.79 Z" fill="#2d2339" />
<path d="M 62.00 39.59 C 64.74 43.50 67.47 47.35 71.10 50.52 C 67.44 50.15 67.47 47.92 64.65 51.66 C 62.21 49.22 57.83 42.10 62.00 39.59 Z" fill="#e2aca4" />
<path d="M 107.18 40.16 C 110.12 40.95 109.90 44.20 112.81 45.25 C 110.67 48.10 109.09 47.94 105.89 47.02 C 105.99 44.63 106.14 42.35 107.18 40.16 Z" fill="#b16a67" />
<path d="M 165.68 40.09 C 166.08 41.12 166.49 42.14 166.90 43.16 C 164.60 47.31 164.14 41.45 165.68 40.09 Z" fill="#85878f" />
<path d="M 88.83 41.13 C 92.24 42.75 95.35 44.40 97.99 47.17 C 99.07 49.68 101.75 52.69 96.99 53.04 C 91.22 54.04 91.03 48.56 88.03 45.14 C 87.27 43.64 85.74 40.54 88.83 41.13 Z" fill="#b25f59" />
<path d="M 88.83 41.13 C 93.04 40.49 97.11 42.91 97.99 47.17 C 95.35 44.40 92.24 42.75 88.83 41.13 Z" fill="#402a34" />
<path d="M 133.21 42.87 C 133.36 44.93 133.19 46.98 133.25 49.04 C 134.85 46.66 136.18 44.70 138.50 42.96 C 139.34 46.30 139.27 49.89 138.37 53.21 C 134.00 55.59 130.78 60.37 126.24 55.20 C 128.97 47.48 120.01 59.91 118.18 53.13 C 122.29 51.74 125.66 52.47 127.98 48.08 C 125.69 47.90 124.02 48.11 121.91 48.98 C 123.85 45.62 129.91 44.87 133.21 42.87 Z" fill="#a55528" />
<path d="M 140.31 42.75 C 141.34 46.21 141.33 48.82 140.22 52.26 C 139.98 49.04 140.02 45.97 140.31 42.75 Z" fill="#716a70" />
<path d="M 217.63 44.06 C 219.77 46.91 227.87 44.63 231.47 46.91 C 227.71 46.87 226.99 50.39 223.51 51.63 C 220.30 54.01 218.48 50.88 215.31 49.90 C 215.46 48.57 215.65 47.24 215.85 45.92 C 216.43 45.29 217.02 44.67 217.63 44.06 Z" fill="#d18325" />
<path d="M 215.85 45.92 C 215.65 47.24 215.46 48.57 215.31 49.90 L 214.81 50.62 C 209.66 50.19 204.56 56.83 201.52 50.73 C 207.05 45.53 211.21 51.87 215.85 45.92 Z" fill="#7a655f" />
<path d="M 231.47 46.91 C 230.69 48.31 229.90 49.70 229.05 51.06 C 226.81 53.12 224.92 55.47 223.15 57.94 C 219.60 63.02 213.42 64.95 208.20 68.32 C 202.91 67.91 203.94 65.66 203.31 61.26 C 205.85 58.79 208.98 57.02 211.43 54.40 C 212.72 53.28 213.90 52.07 214.81 50.62 L 215.31 49.90 C 218.48 50.88 220.30 54.01 223.51 51.63 C 226.99 50.39 227.71 46.87 231.47 46.91 Z" fill="#a3522c" />
<path d="M 201.52 50.73 C 204.56 56.83 209.66 50.19 214.81 50.62 C 213.90 52.07 212.72 53.28 211.43 54.40 C 201.37 51.67 203.21 63.45 195.56 63.03 C 194.42 62.72 193.26 62.49 192.11 62.34 C 188.15 58.93 194.19 57.57 189.12 56.32 C 193.48 54.29 196.61 51.37 201.52 50.73 Z" fill="#3d3949" />
<path d="M 229.05 51.06 C 230.37 55.58 228.24 56.25 225.31 59.03 C 224.59 58.66 223.87 58.30 223.15 57.94 C 224.92 55.47 226.81 53.12 229.05 51.06 Z" fill="#8e7c77" />
<path d="M 54.04 52.85 C 56.04 55.96 58.12 58.99 59.77 62.31 C 56.57 60.44 54.00 56.63 54.04 52.85 Z" fill="#7c4d54" />
<path d="M 138.37 53.21 C 137.72 56.97 136.83 59.85 133.19 61.64 C 131.12 61.26 129.44 61.71 127.47 62.27 C 125.91 60.09 126.53 59.74 123.80 61.00 C 123.68 58.87 125.36 57.16 126.24 55.20 C 130.78 60.37 134.00 55.59 138.37 53.21 Z" fill="#be754b" />
<path d="M 211.43 54.40 C 208.98 57.02 205.85 58.79 203.31 61.26 C 203.94 65.66 202.91 67.91 208.20 68.32 C 204.49 71.39 200.18 73.51 196.32 76.32 C 195.18 77.78 192.11 79.58 194.05 81.49 L 193.00 82.38 C 188.29 80.52 188.76 84.32 185.19 82.88 C 186.11 79.65 188.75 78.72 190.96 76.41 C 188.17 76.66 186.44 76.53 184.69 74.19 C 187.57 69.61 192.82 67.53 195.56 63.03 C 203.21 63.45 201.37 51.67 211.43 54.40 Z" fill="#806960" />
<path d="M 169.82 54.93 C 170.01 57.02 170.31 59.09 170.50 61.18 C 169.15 60.53 168.62 59.41 168.14 58.06 C 168.69 57.01 169.21 55.95 169.82 54.93 Z" fill="#7f7d89" />
<path d="M 189.12 56.32 C 194.19 57.57 188.15 58.93 192.11 62.34 C 190.30 62.74 188.81 63.43 187.04 62.47 C 186.97 61.46 186.85 60.45 186.76 59.45 C 188.69 58.75 187.94 57.31 189.12 56.32 Z" fill="#7c7c8b" />
<path d="M 214.12 56.07 C 217.18 55.85 217.01 58.91 217.77 61.05 C 213.89 61.02 213.79 59.49 214.12 56.07 Z" fill="#d19a59" />
<path d="M 149.67 57.99 C 151.72 58.35 153.77 58.69 155.78 59.27 C 153.72 63.58 154.11 67.54 153.06 71.96 C 147.06 71.08 152.57 76.45 155.11 74.00 C 157.31 75.19 159.58 76.21 161.91 77.13 C 163.24 79.20 163.51 81.41 165.60 82.87 C 164.17 86.08 162.87 85.85 167.20 85.42 C 166.73 86.53 166.31 87.65 165.86 88.76 C 165.35 89.11 164.84 89.45 164.33 89.78 C 161.15 89.26 157.98 90.24 155.10 88.98 C 153.12 87.52 150.51 83.43 148.06 86.17 C 149.43 89.11 151.63 88.22 154.28 88.86 C 155.82 92.73 151.96 89.86 149.94 90.14 C 146.90 90.09 143.97 92.11 140.84 92.33 C 139.24 92.19 137.64 92.10 136.04 92.01 C 134.59 91.38 133.15 90.73 131.71 90.07 C 139.49 82.21 146.50 75.31 147.37 63.55 C 150.41 63.44 151.12 62.77 152.90 60.36 C 151.20 59.57 148.06 60.75 149.67 57.99 Z" fill="#dedbcc" />
<path d="M 223.15 57.94 C 223.87 58.30 224.59 58.66 225.31 59.03 C 223.50 60.91 221.82 62.91 220.15 64.91 C 217.48 63.93 216.12 65.74 213.98 66.98 C 210.68 70.07 201.76 71.79 201.87 76.95 C 199.22 78.38 196.59 79.86 194.05 81.49 C 192.11 79.58 195.18 77.78 196.32 76.32 C 200.18 73.51 204.49 71.39 208.20 68.32 C 213.42 64.95 219.60 63.02 223.15 57.94 Z" fill="#4f4247" />
<path d="M 127.47 62.27 C 129.44 61.71 131.12 61.26 133.19 61.64 C 129.19 64.17 125.56 67.31 121.93 70.35 C 119.75 69.66 120.59 67.51 120.17 65.72 C 121.44 64.19 122.70 62.66 123.80 61.00 C 126.53 59.74 125.91 60.09 127.47 62.27 Z" fill="#dcb49a" />
<path d="M 96.72 68.30 C 100.83 74.47 98.54 77.96 94.83 83.36 C 93.53 83.58 92.23 83.79 90.92 83.99 C 93.14 80.03 94.81 78.78 92.81 74.04 C 91.06 67.60 85.58 67.45 79.94 68.33 C 79.09 66.11 80.46 65.22 82.13 64.10 C 83.21 63.47 84.13 62.82 84.99 61.90 C 90.02 59.02 94.54 64.30 96.72 68.30 Z" fill="#d27e65" />
<path d="M 115.34 63.32 C 113.87 65.37 112.70 67.50 111.68 69.80 L 110.76 71.23 C 110.68 69.30 110.61 67.40 110.05 65.53 C 111.06 64.64 114.45 60.80 115.34 63.32 Z" fill="#ddbaaf" />
<path d="M 115.34 63.32 C 117.37 65.08 116.14 66.19 115.85 68.35 C 114.32 70.44 112.83 69.32 111.85 72.96 C 111.81 71.91 111.75 70.86 111.68 69.80 C 112.70 67.50 113.87 65.37 115.34 63.32 Z" fill="#796c65" />
<path d="M 220.15 64.91 C 217.85 67.70 215.29 70.24 213.12 73.16 C 210.98 76.42 205.36 76.24 201.87 76.95 C 201.76 71.79 210.68 70.07 213.98 66.98 C 216.12 65.74 217.48 63.93 220.15 64.91 Z" fill="#7d6b64" />
<path d="M 110.05 65.53 C 110.61 67.40 110.68 69.30 110.76 71.23 C 109.15 74.98 107.11 78.46 105.08 81.99 C 104.97 77.58 104.45 79.33 101.86 80.88 C 101.20 80.02 100.01 79.98 100.97 78.82 C 103.90 73.94 105.20 69.07 110.05 65.53 Z" fill="#cd8972" />
<path d="M 120.17 65.72 C 120.59 67.51 119.75 69.66 121.93 70.35 C 119.51 72.83 117.40 75.51 115.81 78.61 C 113.46 82.23 111.44 86.09 109.54 89.96 C 106.72 94.26 106.61 97.97 107.17 102.98 C 108.97 101.43 111.07 93.67 113.94 96.08 C 115.92 96.82 117.96 97.22 120.02 97.63 C 116.54 100.69 115.31 105.16 111.44 107.98 C 109.85 104.56 104.38 104.12 101.09 103.45 C 99.11 103.16 97.13 102.95 95.15 102.75 C 93.05 100.54 90.19 98.60 88.67 95.95 C 89.47 93.93 89.69 91.97 89.91 89.83 C 95.11 90.91 94.62 85.99 98.11 83.26 C 99.42 82.56 100.67 81.78 101.86 80.88 C 104.45 79.33 104.97 77.58 105.08 81.99 C 102.42 86.91 106.92 84.79 109.24 83.23 C 110.93 81.82 112.12 79.94 113.29 78.10 C 114.33 76.46 115.16 74.71 115.81 72.89 C 113.20 73.30 111.62 78.55 111.85 72.96 C 112.83 69.32 114.32 70.44 115.85 68.35 C 117.26 67.42 118.72 66.59 120.17 65.72 Z" fill="#ddd8c8" />
<path d="M 79.94 68.33 C 85.58 67.45 91.06 67.60 92.81 74.04 C 88.86 76.95 86.53 73.40 82.98 74.67 C 78.83 77.06 77.81 77.83 77.82 82.88 C 76.71 84.48 75.50 85.85 75.03 87.76 C 77.42 87.80 79.78 87.66 82.16 88.03 C 82.96 92.90 76.32 90.25 73.56 89.88 C 73.32 89.05 74.42 85.93 72.88 87.97 C 70.66 91.09 69.07 88.78 66.09 88.32 C 65.94 90.21 65.91 92.10 65.97 93.99 C 66.17 96.05 65.81 96.74 68.08 97.42 C 67.03 97.92 65.98 98.43 64.93 98.92 C 59.85 98.33 63.62 105.22 59.90 108.15 C 57.58 106.41 56.25 104.03 54.96 101.50 C 57.69 95.46 54.83 88.58 55.21 83.29 C 57.65 80.61 64.42 82.52 67.84 82.44 C 71.29 79.88 71.73 76.54 72.68 72.67 C 76.05 71.50 78.89 72.59 79.94 68.33 Z" fill="#c15d4e" />
<path d="M 111.68 69.80 C 111.75 70.86 111.81 71.91 111.85 72.96 C 111.01 75.45 109.88 77.48 113.29 78.10 C 112.12 79.94 110.93 81.82 109.24 83.23 C 106.92 84.79 102.42 86.91 105.08 81.99 C 107.11 78.46 109.15 74.98 110.76 71.23 L 111.68 69.80 Z" fill="#352d3c" />
<path d="M 153.06 71.96 C 153.74 72.30 154.42 72.64 155.10 72.98 L 155.11 74.00 C 152.57 76.45 147.06 71.08 153.06 71.96 Z" fill="#32303b" />
<path d="M 70.18 72.97 C 71.97 73.64 71.43 76.00 70.22 77.03 C 69.86 75.60 69.84 74.25 70.18 72.97 Z" fill="#7b7888" />
<path d="M 111.85 72.96 C 111.62 78.55 113.20 73.30 115.81 72.89 C 115.16 74.71 114.33 76.46 113.29 78.10 C 109.88 77.48 111.01 75.45 111.85 72.96 Z" fill="#625f69" />
<path d="M 155.10 72.98 C 157.54 73.91 160.75 74.51 161.91 77.13 C 159.58 76.21 157.31 75.19 155.11 74.00 L 155.10 72.98 Z" fill="#91908b" />
<path d="M 92.81 74.04 C 94.81 78.78 93.14 80.03 90.92 83.99 C 90.39 84.61 89.85 85.22 89.31 85.83 C 86.98 86.73 84.58 87.42 82.16 88.03 C 79.78 87.66 77.42 87.80 75.03 87.76 C 75.50 85.85 76.71 84.48 77.82 82.88 C 83.32 84.13 89.67 78.88 82.98 74.67 C 86.53 73.40 88.86 76.95 92.81 74.04 Z" fill="#a03916" />
<path d="M 184.69 74.19 C 186.44 76.53 188.17 76.66 190.96 76.41 C 188.75 78.72 186.11 79.65 185.19 82.88 C 188.76 84.32 188.29 80.52 193.00 82.38 C 189.31 85.72 184.53 84.83 181.52 89.55 C 179.54 93.07 178.67 87.36 177.81 85.95 C 177.83 84.21 177.82 82.48 177.79 80.74 C 180.47 78.86 182.79 76.89 184.69 74.19 Z" fill="#a7998e" />
<path d="M 82.98 74.67 C 89.67 78.88 83.32 84.13 77.82 82.88 C 77.81 77.83 78.83 77.06 82.98 74.67 Z" fill="#efcb2f" />
<path d="M 57.99 79.26 C 60.21 78.67 62.07 78.29 64.01 79.84 C 61.81 80.30 59.94 80.66 57.99 79.26 Z" fill="#a9aab2" />
<path d="M 115.81 78.61 C 117.77 81.72 112.01 84.69 118.15 83.24 C 115.93 84.34 111.65 92.64 109.54 89.96 C 111.44 86.09 113.46 82.23 115.81 78.61 Z" fill="#69585a" />
<path d="M 177.79 80.74 C 177.82 82.48 177.83 84.21 177.81 85.95 C 174.72 88.89 171.50 91.65 167.90 93.95 L 166.99 93.93 C 168.32 92.36 169.76 90.81 170.92 89.10 C 169.02 87.62 167.96 88.19 165.86 88.76 C 166.31 87.65 166.73 86.53 167.20 85.42 C 172.87 86.64 172.85 82.10 177.79 80.74 Z" fill="#e1be68" />
<path d="M 94.83 83.36 C 95.92 83.33 97.02 83.30 98.11 83.26 C 94.62 85.99 95.11 90.91 89.91 89.83 C 89.76 88.49 89.57 87.16 89.31 85.83 C 89.85 85.22 90.39 84.61 90.92 83.99 C 92.23 83.79 93.53 83.58 94.83 83.36 Z" fill="#8b7567" />
<path d="M 230.17 84.30 C 228.93 85.42 227.78 86.55 226.29 87.35 C 225.63 86.22 225.09 85.26 223.96 84.52 C 226.02 83.89 228.05 83.92 230.17 84.30 Z" fill="#b19ea3" />
<path d="M 230.17 84.30 C 230.83 84.40 231.49 84.51 232.14 84.63 C 230.89 85.66 229.65 86.72 228.41 87.77 C 223.85 92.28 217.77 93.81 213.14 98.06 C 203.55 98.57 197.78 104.46 189.80 107.87 C 198.52 98.73 209.41 96.02 220.08 89.63 C 222.24 89.06 224.33 88.47 226.29 87.35 C 227.78 86.55 228.93 85.42 230.17 84.30 Z" fill="#403330" />
<path d="M 155.10 88.98 L 154.28 88.86 C 151.63 88.22 149.43 89.11 148.06 86.17 C 150.51 83.43 153.12 87.52 155.10 88.98 Z" fill="#2f2c36" />
<path d="M 223.96 84.52 C 225.09 85.26 225.63 86.22 226.29 87.35 C 224.33 88.47 222.24 89.06 220.08 89.63 C 216.20 86.84 213.34 90.15 209.06 90.83 L 207.73 89.66 C 213.06 87.68 218.50 86.08 223.96 84.52 Z" fill="#8c5c40" />
<path d="M 89.31 85.83 C 89.57 87.16 89.76 88.49 89.91 89.83 C 89.69 91.97 89.47 93.93 88.67 95.95 C 90.19 98.60 93.05 100.54 95.15 102.75 C 93.18 103.04 91.23 103.39 89.27 103.69 C 87.42 102.44 86.09 98.95 84.11 101.87 C 84.51 93.94 71.77 89.24 65.97 93.99 C 65.91 92.10 65.94 90.21 66.09 88.32 C 69.07 88.78 70.66 91.09 72.88 87.97 C 74.42 85.93 73.32 89.05 73.56 89.88 C 76.32 90.25 82.96 92.90 82.16 88.03 C 84.58 87.42 86.98 86.73 89.31 85.83 Z" fill="#d38971" />
<path d="M 50.84 87.01 C 51.33 89.54 51.34 91.52 50.65 94.01 C 49.34 91.52 49.27 89.41 50.84 87.01 Z" fill="#999aab" />
<path d="M 170.92 89.10 C 169.76 90.81 168.32 92.36 166.99 93.93 C 165.99 94.62 165.00 95.32 164.00 96.01 C 162.69 96.61 155.25 101.73 157.98 97.08 C 159.38 96.50 161.44 96.29 162.06 94.72 C 159.14 94.37 160.39 94.18 160.84 91.93 C 162.04 91.26 163.20 90.56 164.33 89.78 C 164.84 89.45 165.35 89.11 165.86 88.76 C 167.96 88.19 169.02 87.62 170.92 89.10 Z" fill="#634c1d" />
<path d="M 220.08 89.63 C 209.41 96.02 198.52 98.73 189.80 107.87 C 186.87 109.40 184.04 111.14 181.16 112.78 C 180.39 113.26 179.63 113.75 178.87 114.25 C 177.73 109.90 178.50 107.86 179.94 103.78 C 182.71 102.59 185.56 101.66 188.19 100.15 C 192.63 98.39 197.62 97.49 201.75 95.13 C 204.11 93.55 206.52 92.10 209.06 90.83 C 213.34 90.15 216.20 86.84 220.08 89.63 Z" fill="#deaf47" />
<path d="M 228.41 87.77 C 228.74 90.09 230.59 91.64 231.04 93.85 C 222.98 101.31 215.83 109.33 206.83 115.86 C 199.27 122.20 199.47 131.57 197.99 141.01 C 199.96 147.07 198.97 154.32 202.41 159.61 C 210.63 172.37 214.81 187.81 219.73 202.09 C 217.14 206.62 222.14 204.32 222.00 210.04 C 221.58 215.79 218.04 223.49 213.13 226.91 C 212.97 225.16 215.44 216.85 212.38 222.10 C 212.25 221.05 212.04 220.01 211.74 218.99 C 212.88 212.95 217.07 210.39 213.66 204.33 C 211.43 201.79 212.38 200.08 212.71 197.10 C 208.43 196.22 206.60 198.94 203.20 200.74 C 200.26 194.88 205.24 189.44 202.78 184.03 C 201.69 181.53 200.26 179.09 198.82 176.78 C 199.28 175.83 199.74 174.87 200.21 173.92 C 201.69 171.55 201.70 169.42 200.36 166.97 C 199.59 165.57 198.46 162.50 196.35 163.39 C 190.26 164.58 185.98 168.21 180.76 171.17 C 179.41 171.89 178.11 172.69 176.89 173.61 L 176.13 174.13 L 174.92 172.93 C 177.36 167.88 180.66 163.35 182.81 158.18 C 184.17 151.96 190.29 151.55 190.39 145.01 C 191.48 142.52 191.89 140.31 190.07 138.03 C 190.38 136.15 190.41 134.59 189.27 132.98 C 189.69 130.31 189.73 127.64 189.82 124.96 C 190.49 123.03 190.01 120.89 187.78 122.75 C 187.09 122.44 186.40 122.13 185.71 121.82 C 185.59 121.27 185.49 120.72 185.41 120.16 C 189.36 117.49 193.10 114.80 196.11 111.05 C 197.52 110.15 198.86 109.19 200.18 108.17 C 204.47 104.86 209.34 101.91 213.14 98.06 C 217.77 93.81 223.85 92.28 228.41 87.77 Z" fill="#f0f0f0" />
<path d="M 154.28 88.86 L 155.10 88.98 C 157.98 90.24 161.15 89.26 164.33 89.78 C 163.20 90.56 162.04 91.26 160.84 91.93 C 158.04 92.47 155.48 94.97 152.83 93.15 C 148.04 89.93 145.78 96.32 140.84 92.33 C 143.97 92.11 146.90 90.09 149.94 90.14 C 151.96 89.86 155.82 92.73 154.28 88.86 Z" fill="#d2be87" />
<path d="M 131.71 90.07 C 133.15 90.73 134.59 91.38 136.04 92.01 C 136.06 92.98 136.08 93.95 136.09 94.93 C 131.45 94.97 127.14 94.56 122.83 96.65 C 121.89 96.98 120.96 97.31 120.02 97.63 C 117.96 97.22 115.92 96.82 113.94 96.08 C 120.48 96.90 125.88 92.79 131.71 90.07 Z" fill="#d7bb81" />
<path d="M 207.73 89.66 L 209.06 90.83 C 206.52 92.10 204.11 93.55 201.75 95.13 C 200.69 94.49 199.68 93.78 198.67 93.05 C 201.62 91.69 204.60 90.53 207.73 89.66 Z" fill="#43393b" />
<path d="M 84.11 101.87 C 82.95 103.67 81.91 105.57 80.66 107.31 C 78.86 107.47 76.39 106.46 75.07 107.87 C 70.50 112.89 72.83 105.05 74.12 103.10 C 74.55 99.56 85.15 97.69 78.06 95.65 C 75.84 94.29 74.19 94.41 71.97 95.69 C 70.66 96.25 69.37 96.84 68.08 97.42 C 65.81 96.74 66.17 96.05 65.97 93.99 C 71.77 89.24 84.51 93.94 84.11 101.87 Z" fill="#28253a" />
<path d="M 136.04 92.01 C 137.64 92.10 139.24 92.19 140.84 92.33 C 145.78 96.32 148.04 89.93 152.83 93.15 C 155.48 94.97 158.04 92.47 160.84 91.93 C 160.39 94.18 159.14 94.37 162.06 94.72 C 161.44 96.29 159.38 96.50 157.98 97.08 L 156.37 97.47 C 152.45 97.82 148.84 97.08 145.16 95.76 C 142.24 94.70 139.20 95.01 136.09 94.93 C 136.08 93.95 136.06 92.98 136.04 92.01 Z" fill="#dcb452" />
<path d="M 198.67 93.05 C 199.68 93.78 200.69 94.49 201.75 95.13 C 197.62 97.49 192.63 98.39 188.19 100.15 C 183.87 99.54 180.79 103.16 176.73 102.11 C 177.91 99.03 184.88 99.71 187.88 97.44 C 189.23 98.19 195.84 96.69 194.06 94.60 C 195.57 93.98 197.11 93.52 198.67 93.05 Z" fill="#948979" />
<path d="M 166.99 93.93 L 167.90 93.95 C 169.06 95.28 170.49 95.74 169.92 97.80 C 166.79 101.75 162.72 105.04 158.67 108.01 C 156.77 108.25 155.57 108.96 154.08 110.10 C 150.27 110.05 146.47 109.96 142.67 109.98 C 149.88 104.80 158.37 104.41 165.13 99.11 C 167.17 97.82 164.81 97.23 164.00 96.01 C 165.00 95.32 165.99 94.62 166.99 93.93 Z" fill="#b8aea3" />
<path d="M 78.06 95.65 C 75.77 96.36 74.27 96.36 71.97 95.69 C 74.19 94.41 75.84 94.29 78.06 95.65 Z" fill="#a3a8ba" />
<path d="M 136.09 94.93 C 137.88 98.15 134.09 96.50 132.20 97.29 C 131.00 100.00 136.10 99.16 137.15 98.09 C 139.70 95.87 141.88 95.81 145.16 95.76 C 148.84 97.08 152.45 97.82 156.37 97.47 C 154.01 100.46 148.81 99.32 145.38 100.42 C 139.02 102.83 134.91 99.10 130.07 104.91 C 132.38 99.83 126.84 102.43 124.27 103.17 C 126.77 99.32 125.48 99.65 122.83 96.65 C 127.14 94.56 131.45 94.97 136.09 94.93 Z" fill="#5b4d34" />
<path d="M 136.09 94.93 C 139.20 95.01 142.24 94.70 145.16 95.76 C 141.88 95.81 139.70 95.87 137.15 98.09 C 136.10 99.16 131.00 100.00 132.20 97.29 C 134.09 96.50 137.88 98.15 136.09 94.93 Z" fill="#89744b" />
<path d="M 194.06 94.60 C 195.84 96.69 189.23 98.19 187.88 97.44 C 189.94 96.48 191.95 95.46 194.06 94.60 Z" fill="#2a2b39" />
<path d="M 164.00 96.01 C 164.81 97.23 167.17 97.82 165.13 99.11 C 158.37 104.41 149.88 104.80 142.67 109.98 C 142.07 110.31 141.47 110.64 140.87 110.98 C 137.06 112.67 133.04 113.96 128.93 114.68 C 129.05 111.89 130.42 109.84 131.10 107.16 C 129.43 108.80 127.85 110.54 126.20 112.20 L 125.63 111.29 C 126.66 108.82 128.37 106.92 130.07 104.91 C 134.91 99.10 139.02 102.83 145.38 100.42 C 148.81 99.32 154.01 100.46 156.37 97.47 L 157.98 97.08 C 155.25 101.73 162.69 96.61 164.00 96.01 Z" fill="#968c81" />
<path d="M 122.83 96.65 C 125.48 99.65 126.77 99.32 124.27 103.17 C 122.11 105.75 116.30 106.18 116.85 109.99 C 118.00 112.88 118.75 114.62 118.27 117.81 C 120.47 118.03 124.10 115.78 124.35 119.20 C 122.12 122.89 118.97 126.10 115.22 128.25 C 115.74 126.85 116.27 125.44 116.73 124.02 C 111.38 125.95 104.39 127.23 110.12 134.22 C 106.05 135.77 100.77 140.45 96.93 136.06 C 95.47 134.43 94.53 134.46 95.99 132.30 C 102.08 129.56 102.33 126.53 102.14 120.27 C 107.97 119.11 111.69 113.14 114.06 108.16 C 112.07 109.55 110.23 111.08 107.99 112.08 C 108.36 111.44 108.73 110.80 109.11 110.16 C 109.89 109.44 110.67 108.72 111.44 107.98 C 115.31 105.16 116.54 100.69 120.02 97.63 C 120.96 97.31 121.89 96.98 122.83 96.65 Z" fill="#3c3027" />
<path d="M 213.14 98.06 C 209.34 101.91 204.47 104.86 200.18 108.17 C 194.05 109.41 189.15 112.86 183.38 114.93 C 182.71 114.13 181.97 113.41 181.16 112.78 C 184.04 111.14 186.87 109.40 189.80 107.87 C 197.78 104.46 203.55 98.57 213.14 98.06 Z" fill="#785f46" />
<path d="M 64.93 98.92 C 63.48 103.36 64.07 107.39 64.92 111.85 C 63.18 110.71 61.51 109.46 59.90 108.15 C 63.62 105.22 59.85 98.33 64.93 98.92 Z" fill="#382a3a" />
<path d="M 89.27 103.69 C 86.11 106.01 83.52 108.93 80.24 111.09 C 79.34 107.65 78.15 108.16 75.07 107.87 C 76.39 106.46 78.86 107.47 80.66 107.31 C 81.91 105.57 82.95 103.67 84.11 101.87 C 86.09 98.95 87.42 102.44 89.27 103.69 Z" fill="#cba69c" />
<path d="M 188.19 100.15 C 185.56 101.66 182.71 102.59 179.94 103.78 C 176.09 105.19 172.67 107.83 169.99 110.90 C 169.32 111.19 168.64 111.47 167.95 111.73 C 167.85 109.85 167.61 107.99 167.51 106.11 C 170.26 104.30 173.71 103.42 176.73 102.11 C 180.79 103.16 183.87 99.54 188.19 100.15 Z" fill="#d2b08a" />
<path d="M 130.07 104.91 C 127.84 105.90 122.35 108.51 125.63 111.29 L 126.20 112.20 C 124.98 114.90 125.30 116.39 121.71 115.93 C 121.82 112.43 118.98 112.13 116.85 109.99 C 116.30 106.18 122.11 105.75 124.27 103.17 C 126.84 102.43 132.38 99.83 130.07 104.91 Z" fill="#af7a34" />
<path d="M 95.15 102.75 C 97.13 102.95 99.11 103.16 101.09 103.45 C 97.15 104.16 91.64 103.65 88.71 106.71 C 85.18 109.77 83.60 114.14 80.05 117.19 C 80.10 115.16 80.13 113.12 80.24 111.09 C 83.52 108.93 86.11 106.01 89.27 103.69 C 91.23 103.39 93.18 103.04 95.15 102.75 Z" fill="#3d3235" />
<path d="M 101.09 103.45 C 104.38 104.12 109.85 104.56 111.44 107.98 C 110.67 108.72 109.89 109.44 109.11 110.16 C 105.14 110.85 101.24 111.15 97.49 112.75 C 95.16 113.48 93.04 114.64 90.85 115.68 C 91.97 113.60 93.52 111.89 94.87 109.96 C 87.48 112.14 84.40 118.19 81.99 124.95 C 81.05 125.00 80.12 125.01 79.18 125.00 C 79.23 122.33 79.18 119.76 80.05 117.19 C 83.60 114.14 85.18 109.77 88.71 106.71 C 91.64 103.65 97.15 104.16 101.09 103.45 Z" fill="#ddb75f" />
<path d="M 179.94 103.78 C 178.50 107.86 177.73 109.90 178.87 114.25 C 175.45 116.55 171.53 118.08 167.96 120.19 C 165.98 116.03 172.57 114.78 169.99 110.90 C 172.67 107.83 176.09 105.19 179.94 103.78 Z" fill="#c27a30" />
<path d="M 130.07 104.91 C 128.37 106.92 126.66 108.82 125.63 111.29 C 122.35 108.51 127.84 105.90 130.07 104.91 Z" fill="#5d4523" />
<path d="M 131.10 107.16 C 130.42 109.84 129.05 111.89 128.93 114.68 C 133.04 113.96 137.06 112.67 140.87 110.98 L 140.62 112.92 C 136.93 114.09 130.70 114.32 129.85 118.95 C 127.32 117.62 127.22 116.22 124.82 118.79 L 124.35 119.20 C 124.10 115.78 120.47 118.03 118.27 117.81 C 118.75 114.62 118.00 112.88 116.85 109.99 C 118.98 112.13 121.82 112.43 121.71 115.93 C 125.30 116.39 124.98 114.90 126.20 112.20 C 127.85 110.54 129.43 108.80 131.10 107.16 Z" fill="#5e5142" />
<path d="M 164.90 107.09 C 164.00 108.21 163.03 109.25 162.07 110.32 C 160.90 109.61 159.77 108.83 158.67 108.01 C 160.75 107.70 162.81 107.32 164.90 107.09 Z" fill="#b1a19a" />
<path d="M 114.06 108.16 C 111.69 113.14 107.97 119.11 102.14 120.27 C 98.63 122.21 95.01 125.70 91.73 128.25 C 91.58 123.49 90.97 125.55 87.30 126.20 C 91.93 132.36 88.94 138.76 97.45 143.17 C 98.26 143.65 99.09 144.08 99.93 144.47 C 108.95 146.24 119.39 143.13 128.01 140.39 C 131.99 139.57 135.75 138.18 139.30 136.21 C 145.28 133.39 150.91 130.28 155.97 125.98 C 160.24 124.64 164.20 122.61 167.96 120.19 C 171.53 118.08 175.45 116.55 178.87 114.25 C 179.63 113.75 180.39 113.26 181.16 112.78 C 181.97 113.41 182.71 114.13 183.38 114.93 C 181.54 115.97 179.70 117.02 177.91 118.16 C 173.72 121.15 168.93 123.61 175.17 128.03 C 173.92 129.68 173.21 130.01 173.95 132.16 L 173.12 133.11 C 162.64 141.47 153.24 150.06 140.82 155.74 C 138.20 156.86 136.07 158.22 133.89 160.04 C 131.89 159.89 130.01 159.89 129.14 162.03 C 127.67 165.00 127.02 168.01 125.85 171.12 C 124.66 172.78 123.85 176.64 125.95 177.85 C 127.90 179.26 129.74 178.92 131.99 178.77 C 136.20 185.12 121.66 177.80 125.83 183.18 C 129.49 188.41 134.92 184.13 139.34 182.34 C 140.41 182.08 144.26 179.62 142.46 182.44 C 139.44 184.12 136.49 185.60 134.13 188.21 C 132.40 188.77 130.62 189.12 128.83 189.40 C 125.35 188.15 123.84 186.80 122.74 183.23 C 122.98 180.30 123.29 177.57 122.18 174.76 C 121.62 170.58 123.17 167.07 123.84 163.06 C 122.09 162.92 120.64 163.42 119.06 164.08 C 113.70 164.01 108.35 163.94 102.98 164.08 C 97.15 162.81 93.15 159.21 87.84 157.07 C 85.01 153.80 82.54 149.84 81.45 145.62 C 80.34 142.12 80.82 139.89 76.40 139.49 C 68.44 137.10 69.15 146.08 62.10 147.57 C 59.58 146.15 61.25 144.14 57.98 143.14 C 61.19 141.17 61.71 136.52 63.65 133.33 C 61.91 132.73 60.09 132.27 58.41 131.54 C 55.88 130.45 50.86 123.31 56.99 128.09 C 58.25 129.52 59.42 129.40 61.12 128.85 L 61.90 129.15 C 63.38 130.66 64.51 130.68 66.12 129.32 C 70.41 126.23 73.65 124.46 79.18 125.00 C 80.12 125.01 81.05 125.00 81.99 124.95 C 89.67 121.80 98.57 119.34 105.14 114.16 C 106.08 113.45 107.03 112.77 107.99 112.08 C 110.23 111.08 112.07 109.55 114.06 108.16 Z" fill="#26273f" />
<path d="M 158.67 108.01 C 159.77 108.83 160.90 109.61 162.07 110.32 C 158.47 114.40 152.01 118.50 158.27 123.86 C 157.50 124.56 156.73 125.27 155.97 125.98 C 151.82 127.17 148.98 129.14 144.59 127.05 C 150.37 123.54 151.77 122.38 147.96 115.20 C 150.03 113.53 152.11 111.89 154.08 110.10 C 155.57 108.96 156.77 108.25 158.67 108.01 Z" fill="#a54322" />
<path d="M 200.18 108.17 C 198.86 109.19 197.52 110.15 196.11 111.05 C 192.21 112.63 186.95 116.14 185.41 120.16 C 185.49 120.72 185.59 121.27 185.71 121.82 C 179.59 122.87 179.87 127.05 179.70 132.20 C 179.38 130.86 179.06 129.53 178.69 128.21 C 177.03 129.42 175.51 130.83 173.95 132.16 C 173.21 130.01 173.92 129.68 175.17 128.03 C 177.94 125.67 180.63 123.11 182.92 120.28 C 180.06 120.17 177.77 122.58 177.91 118.16 C 179.70 117.02 181.54 115.97 183.38 114.93 C 189.15 112.86 194.05 109.41 200.18 108.17 Z" fill="#82808a" />
<path d="M 94.87 109.96 C 93.52 111.89 91.97 113.60 90.85 115.68 C 93.04 114.64 95.16 113.48 97.49 112.75 C 99.70 116.01 101.93 114.36 105.14 114.16 C 98.57 119.34 89.67 121.80 81.99 124.95 C 84.40 118.19 87.48 112.14 94.87 109.96 Z" fill="#7f6346" />
<path d="M 109.11 110.16 C 108.73 110.80 108.36 111.44 107.99 112.08 C 107.03 112.77 106.08 113.45 105.14 114.16 C 101.93 114.36 99.70 116.01 97.49 112.75 C 101.24 111.15 105.14 110.85 109.11 110.16 Z" fill="#dbcdae" />
<path d="M 142.67 109.98 C 144.69 111.31 151.61 110.89 147.03 113.97 C 143.94 114.77 142.95 115.81 140.62 112.92 L 140.87 110.98 C 141.47 110.64 142.07 110.31 142.67 109.98 Z" fill="#272334" />
<path d="M 142.67 109.98 C 146.47 109.96 150.27 110.05 154.08 110.10 C 152.11 111.89 150.03 113.53 147.96 115.20 L 147.03 113.97 C 151.61 110.89 144.69 111.31 142.67 109.98 Z" fill="#674e4c" />
<path d="M 162.07 110.32 L 163.23 110.91 C 162.49 113.69 161.99 116.36 162.06 119.25 C 161.41 121.38 159.95 122.54 158.27 123.86 C 152.01 118.50 158.47 114.40 162.07 110.32 Z" fill="#c57732" />
<path d="M 163.23 110.91 C 163.95 111.25 164.66 111.60 165.38 111.96 C 165.90 115.04 167.65 121.48 162.06 119.25 C 161.99 116.36 162.49 113.69 163.23 110.91 Z" fill="#bf9d5f" />
<path d="M 169.99 110.90 C 172.57 114.78 165.98 116.03 167.96 120.19 C 164.20 122.61 160.24 124.64 155.97 125.98 C 156.73 125.27 157.50 124.56 158.27 123.86 C 159.95 122.54 161.41 121.38 162.06 119.25 C 167.65 121.48 165.90 115.04 165.38 111.96 C 166.24 111.91 167.10 111.83 167.95 111.73 C 168.64 111.47 169.32 111.19 169.99 110.90 Z" fill="#876953" />
<path d="M 196.11 111.05 C 193.10 114.80 189.36 117.49 185.41 120.16 C 186.95 116.14 192.21 112.63 196.11 111.05 Z" fill="#ababb2" />
<path d="M 140.62 112.92 C 142.95 115.81 143.94 114.77 147.03 113.97 C 147.69 118.31 147.56 119.41 144.82 122.85 C 143.90 124.17 141.59 126.62 144.59 127.05 C 148.98 129.14 151.82 127.17 155.97 125.98 C 150.91 130.28 145.28 133.39 139.30 136.21 C 139.46 135.21 139.50 134.20 139.63 133.20 C 144.46 131.51 142.90 129.34 139.14 127.61 C 136.38 125.80 135.09 126.04 132.05 127.00 C 130.27 124.42 130.68 121.78 129.85 118.95 C 130.70 114.32 136.93 114.09 140.62 112.92 Z" fill="#7d6459" />
<path d="M 147.03 113.97 L 147.96 115.20 C 151.77 122.38 150.37 123.54 144.59 127.05 C 141.59 126.62 143.90 124.17 144.82 122.85 C 147.56 119.41 147.69 118.31 147.03 113.97 Z" fill="#af855b" />
<path d="M 39.85 117.04 C 41.22 118.26 42.62 119.46 43.94 120.73 C 41.63 120.37 39.34 120.05 36.99 120.06 C 38.30 120.72 39.65 121.28 40.94 121.98 C 35.85 121.44 32.99 125.39 27.82 123.36 C 33.29 121.91 33.22 116.19 39.85 117.04 Z" fill="#707181" />
<path d="M 39.85 117.04 C 41.72 117.18 43.50 117.69 45.29 118.22 C 44.45 122.92 46.53 125.69 40.94 121.98 C 39.65 121.28 38.30 120.72 36.99 120.06 C 39.34 120.05 41.63 120.37 43.94 120.73 C 42.62 119.46 41.22 118.26 39.85 117.04 Z" fill="#2e3146" />
<path d="M 129.85 118.95 C 130.68 121.78 130.27 124.42 132.05 127.00 C 127.22 131.56 125.63 131.92 119.19 129.76 C 121.15 125.75 129.76 123.22 124.82 118.79 C 127.22 116.22 127.32 117.62 129.85 118.95 Z" fill="#bba065" />
<path d="M 177.91 118.16 C 177.77 122.58 180.06 120.17 182.92 120.28 C 180.63 123.11 177.94 125.67 175.17 128.03 C 168.93 123.61 173.72 121.15 177.91 118.16 Z" fill="#515164" />
<path d="M 124.35 119.20 L 124.82 118.79 C 129.76 123.22 121.15 125.75 119.19 129.76 C 125.63 131.92 127.22 131.56 132.05 127.00 C 131.45 129.25 130.66 131.43 129.97 133.65 C 125.97 135.77 122.04 136.77 128.01 140.39 C 119.39 143.13 108.95 146.24 99.93 144.47 C 105.08 142.79 98.55 138.52 97.45 143.17 C 88.94 138.76 91.93 132.36 87.30 126.20 C 90.97 125.55 91.58 123.49 91.73 128.25 C 92.08 132.37 92.09 131.75 95.99 132.30 C 94.53 134.46 95.47 134.43 96.93 136.06 C 100.77 140.45 106.05 135.77 110.12 134.22 C 113.30 133.23 113.81 130.89 115.22 128.25 C 118.97 126.10 122.12 122.89 124.35 119.20 Z" fill="#7f6859" />
<path d="M 102.14 120.27 C 102.33 126.53 102.08 129.56 95.99 132.30 C 92.09 131.75 92.08 132.37 91.73 128.25 C 95.01 125.70 98.63 122.21 102.14 120.27 Z" fill="#a9742f" />
<path d="M 185.71 121.82 C 186.40 122.13 187.09 122.44 187.78 122.75 C 188.39 123.57 189.07 124.30 189.82 124.96 C 189.73 127.64 189.69 130.31 189.27 132.98 C 188.61 134.96 188.29 136.54 190.07 138.03 C 189.65 140.53 189.67 142.56 190.39 145.01 C 190.29 151.55 184.17 151.96 182.81 158.18 C 180.79 157.43 179.12 156.57 177.63 154.98 C 182.30 147.36 181.14 140.52 179.70 132.20 C 179.87 127.05 179.59 122.87 185.71 121.82 Z" fill="#24253f" />
<path d="M 189.82 124.96 C 189.07 124.30 188.39 123.57 187.78 122.75 C 190.01 120.89 190.49 123.03 189.82 124.96 Z" fill="#9495a0" />
<path d="M 116.73 124.02 C 116.27 125.44 115.74 126.85 115.22 128.25 C 113.81 130.89 113.30 133.23 110.12 134.22 C 104.39 127.23 111.38 125.95 116.73 124.02 Z" fill="#a17133" />
<path d="M 50.97 133.06 C 49.78 136.47 47.88 138.54 49.75 142.31 C 53.02 148.12 47.55 149.71 47.63 155.80 C 42.01 157.54 39.95 149.33 35.33 151.28 C 32.23 153.11 33.30 155.24 33.43 158.21 C 29.93 156.31 29.31 148.60 31.73 145.82 C 35.46 144.65 39.10 142.50 43.00 142.16 C 44.24 143.70 48.63 143.36 46.22 141.11 C 38.67 133.63 24.29 141.14 23.54 150.93 C 20.94 148.91 21.49 142.94 23.69 140.71 C 26.30 137.53 23.71 133.16 26.76 129.76 C 33.89 122.37 46.31 123.42 50.97 133.06 Z" fill="#252741" />
<path d="M 139.14 127.61 C 138.04 129.87 138.91 131.07 139.63 133.20 C 139.50 134.20 139.46 135.21 139.30 136.21 C 135.75 138.18 131.99 139.57 128.01 140.39 C 128.13 137.62 129.76 138.39 131.74 137.53 C 132.16 135.47 132.30 134.30 129.97 133.65 C 130.66 131.43 131.45 129.25 132.05 127.00 C 135.09 126.04 136.38 125.80 139.14 127.61 Z" fill="#a34726" />
<path d="M 56.99 128.09 C 58.69 127.61 59.80 127.54 61.12 128.85 C 59.42 129.40 58.25 129.52 56.99 128.09 Z" fill="#9898a4" />
<path d="M 139.14 127.61 C 142.90 129.34 144.46 131.51 139.63 133.20 C 138.91 131.07 138.04 129.87 139.14 127.61 Z" fill="#c9a56d" />
<path d="M 178.69 128.21 C 179.06 129.53 179.38 130.86 179.70 132.20 C 181.14 140.52 182.30 147.36 177.63 154.98 C 175.69 158.44 173.70 162.03 171.23 165.14 L 171.06 164.08 C 172.54 160.51 174.63 157.85 172.89 153.89 C 173.39 153.26 173.89 152.63 174.39 152.00 C 176.14 149.41 179.92 146.57 177.87 143.20 C 175.79 143.97 173.97 145.21 172.29 146.64 C 170.64 147.93 169.15 149.36 167.75 150.90 C 154.82 159.48 145.94 173.61 131.99 178.77 C 129.74 178.92 127.90 179.26 125.95 177.85 C 126.25 175.54 126.20 173.41 125.85 171.12 C 127.02 168.01 127.67 165.00 129.14 162.03 C 131.53 162.19 132.38 161.92 133.89 160.04 C 148.68 157.38 168.21 148.67 173.12 133.11 L 173.95 132.16 C 175.51 130.83 177.03 129.42 178.69 128.21 Z" fill="#ececed" />
<path d="M 61.90 129.15 C 63.33 128.74 64.74 128.80 66.12 129.32 C 64.51 130.68 63.38 130.66 61.90 129.15 Z" fill="#9c9ca7" />
<path d="M 173.12 133.11 C 168.21 148.67 148.68 157.38 133.89 160.04 C 136.07 158.22 138.20 156.86 140.82 155.74 C 153.24 150.06 162.64 141.47 173.12 133.11 Z" fill="#7a6964" />
<path d="M 189.27 132.98 C 190.41 134.59 190.38 136.15 190.07 138.03 C 188.29 136.54 188.61 134.96 189.27 132.98 Z" fill="#999aad" />
<path d="M 129.97 133.65 C 132.30 134.30 132.16 135.47 131.74 137.53 C 129.76 138.39 128.13 137.62 128.01 140.39 C 122.04 136.77 125.97 135.77 129.97 133.65 Z" fill="#b57648" />
<path d="M 53.25 135.95 C 55.03 138.08 54.94 140.29 55.07 142.92 C 54.37 142.27 53.67 141.60 52.98 140.93 C 52.99 139.27 53.08 137.61 53.25 135.95 Z" fill="#a7abb0" />
<path d="M 190.07 138.03 C 191.89 140.31 191.48 142.52 190.39 145.01 C 189.67 142.56 189.65 140.53 190.07 138.03 Z" fill="#ababb5" />
<path d="M 105.34 139.35 C 110.03 137.80 107.42 141.87 105.23 142.88 C 104.91 141.40 103.22 140.09 105.34 139.35 Z" fill="#b9a075" />
<path d="M 46.22 141.11 C 48.63 143.36 44.24 143.70 43.00 142.16 C 44.07 141.81 45.15 141.46 46.22 141.11 Z" fill="#7a7c91" />
<path d="M 52.98 140.93 C 53.67 141.60 54.37 142.27 55.07 142.92 L 55.97 143.79 C 56.55 145.58 57.00 147.43 57.46 149.26 C 53.83 155.02 52.30 143.14 52.98 140.93 Z" fill="#333548" />
<path d="M 99.93 144.47 C 99.09 144.08 98.26 143.65 97.45 143.17 C 98.55 138.52 105.08 142.79 99.93 144.47 Z" fill="#b59b76" />
<path d="M 57.98 143.14 C 61.25 144.14 59.58 146.15 62.10 147.57 C 60.56 148.17 59.01 148.72 57.46 149.26 C 57.00 147.43 56.55 145.58 55.97 143.79 C 56.64 143.57 57.31 143.36 57.98 143.14 Z" fill="#676979" />
<path d="M 177.87 143.20 C 179.92 146.57 176.14 149.41 174.39 152.00 C 167.75 150.04 171.60 151.18 172.29 146.64 C 173.97 145.21 175.79 143.97 177.87 143.20 Z" fill="#a1a1a7" />
<path d="M 172.29 146.64 C 171.60 151.18 167.75 150.04 174.39 152.00 C 173.89 152.63 173.39 153.26 172.89 153.89 C 172.03 154.60 171.17 155.29 170.31 156.00 C 169.69 154.17 168.73 152.55 167.75 150.90 C 169.15 149.36 170.64 147.93 172.29 146.64 Z" fill="#5f5f69" />
<path d="M 167.75 150.90 C 168.73 152.55 169.69 154.17 170.31 156.00 L 169.76 156.74 C 161.78 169.28 150.19 181.05 136.73 187.65 C 135.86 187.83 135.00 188.02 134.13 188.21 C 136.49 185.60 139.44 184.12 142.46 182.44 C 144.26 179.62 140.41 182.08 139.34 182.34 C 134.92 184.13 129.49 188.41 125.83 183.18 C 121.66 177.80 136.20 185.12 131.99 178.77 C 145.94 173.61 154.82 159.48 167.75 150.90 Z" fill="#333246" />
<path d="M 172.89 153.89 C 174.63 157.85 172.54 160.51 171.06 164.08 C 165.88 171.08 159.59 177.33 153.01 183.01 C 152.45 182.54 151.89 182.06 151.35 181.57 C 156.83 174.69 171.34 166.96 169.76 156.74 L 170.31 156.00 C 171.17 155.29 172.03 154.60 172.89 153.89 Z" fill="#998c85" />
<path d="M 177.63 154.98 C 179.12 156.57 180.79 157.43 182.81 158.18 C 180.66 163.35 177.36 167.88 174.92 172.93 C 171.53 174.40 174.07 176.34 176.13 174.13 L 176.89 173.61 C 177.28 174.58 177.64 175.55 177.99 176.54 C 174.82 177.88 172.31 179.33 170.17 182.10 C 168.09 184.31 165.97 185.77 166.07 189.15 C 165.45 190.13 164.85 191.11 164.23 192.09 C 160.96 192.97 158.81 197.48 158.76 191.37 C 153.79 194.39 157.42 190.54 157.98 187.93 C 162.14 180.19 167.30 173.04 171.23 165.14 C 173.70 162.03 175.69 158.44 177.63 154.98 Z" fill="#3e3f54" />
<path d="M 87.84 157.07 C 93.15 159.21 97.15 162.81 102.98 164.08 C 96.16 164.14 91.97 162.58 87.84 157.07 Z" fill="#9293a0" />
<path d="M 169.76 156.74 C 171.34 166.96 156.83 174.69 151.35 181.57 C 151.89 182.06 152.45 182.54 153.01 183.01 C 149.70 185.83 146.56 188.45 142.19 189.43 C 140.34 188.90 138.54 188.27 136.73 187.65 C 150.19 181.05 161.78 169.28 169.76 156.74 Z" fill="#806f69" />
<path d="M 133.89 160.04 C 132.38 161.92 131.53 162.19 129.14 162.03 C 130.01 159.89 131.89 159.89 133.89 160.04 Z" fill="#8b8688" />
<path d="M 196.35 163.39 C 198.46 162.50 199.59 165.57 200.36 166.97 C 199.65 169.50 199.65 171.37 200.21 173.92 C 199.74 174.87 199.28 175.83 198.82 176.78 C 196.96 180.10 194.61 183.07 192.73 186.37 C 192.04 186.30 191.35 186.21 190.66 186.09 C 192.34 183.69 193.46 181.04 194.40 178.28 C 196.13 175.31 198.29 171.69 197.93 168.15 C 192.69 168.77 187.97 171.04 183.79 174.18 C 181.99 173.47 181.53 172.92 180.76 171.17 C 185.98 168.21 190.26 164.58 196.35 163.39 Z" fill="#27273f" />
<path d="M 102.98 164.08 C 108.35 163.94 113.70 164.01 119.06 164.08 C 115.38 165.57 106.70 165.53 102.98 164.08 Z" fill="#a3a4af" />
<path d="M 200.36 166.97 C 201.70 169.42 201.69 171.55 200.21 173.92 C 199.65 171.37 199.65 169.50 200.36 166.97 Z" fill="#797985" />
<path d="M 197.93 168.15 C 198.29 171.69 196.13 175.31 194.40 178.28 C 184.33 180.39 168.73 193.55 165.73 203.52 C 164.57 206.36 163.91 208.98 163.78 212.07 C 160.77 207.69 162.88 212.96 162.71 214.98 C 154.97 211.41 151.26 209.55 143.19 208.12 C 144.50 207.78 145.79 207.40 147.03 206.87 C 149.39 206.29 150.05 201.26 146.75 203.94 C 142.17 206.87 148.62 198.37 149.96 197.90 C 151.55 196.72 153.05 195.41 154.68 194.29 C 155.42 195.87 156.03 197.58 156.91 199.07 C 159.77 196.97 162.81 195.46 164.23 192.09 C 164.85 191.11 165.45 190.13 166.07 189.15 C 168.14 187.05 169.63 185.07 170.17 182.10 C 172.31 179.33 174.82 177.88 177.99 176.54 C 180.08 175.72 182.05 175.50 183.79 174.18 C 187.97 171.04 192.69 168.77 197.93 168.15 Z" fill="#ececec" />
<path d="M 125.85 171.12 C 126.20 173.41 126.25 175.54 125.95 177.85 C 123.85 176.64 124.66 172.78 125.85 171.12 Z" fill="#717485" />
<path d="M 180.76 171.17 C 181.53 172.92 181.99 173.47 183.79 174.18 C 182.05 175.50 180.08 175.72 177.99 176.54 C 177.64 175.55 177.28 174.58 176.89 173.61 C 178.11 172.69 179.41 171.89 180.76 171.17 Z" fill="#787a89" />
<path d="M 174.92 172.93 L 176.13 174.13 C 174.07 176.34 171.53 174.40 174.92 172.93 Z" fill="#9495a5" />
<path d="M 122.18 174.76 C 123.29 177.57 122.98 180.30 122.74 183.23 C 121.59 180.42 122.11 177.72 122.18 174.76 Z" fill="#6c6c7d" />
<path d="M 198.82 176.78 C 200.26 179.09 201.69 181.53 202.78 184.03 C 201.88 184.31 200.97 184.60 200.07 184.90 C 197.72 185.32 195.12 186.77 192.73 186.37 C 194.61 183.07 196.96 180.10 198.82 176.78 Z" fill="#9d928c" />
<path d="M 194.40 178.28 C 193.46 181.04 192.34 183.69 190.66 186.09 C 189.51 187.20 188.57 188.42 187.71 189.75 C 181.61 194.16 174.21 198.27 169.40 204.23 C 169.71 210.78 174.97 199.68 179.30 203.05 C 178.62 203.98 177.96 204.95 177.23 205.84 C 176.58 201.05 169.60 208.75 171.53 211.03 C 171.10 211.41 170.68 211.78 170.24 212.14 C 169.96 209.92 170.19 205.65 167.59 209.62 C 165.20 211.30 168.35 217.65 164.79 215.22 C 164.56 210.55 165.50 208.17 167.68 204.25 L 165.73 203.52 C 168.73 193.55 184.33 180.39 194.40 178.28 Z" fill="#7c6c66" />
<path d="M 170.17 182.10 C 169.63 185.07 168.14 187.05 166.07 189.15 C 165.97 185.77 168.09 184.31 170.17 182.10 Z" fill="#787a88" />
<path d="M 202.78 184.03 C 205.24 189.44 200.26 194.88 203.20 200.74 C 206.60 198.94 208.43 196.22 212.71 197.10 C 212.38 200.08 211.43 201.79 213.66 204.33 C 217.07 210.39 212.88 212.95 211.74 218.99 C 210.50 220.62 210.65 222.19 211.08 224.09 L 210.76 224.92 C 209.32 227.30 209.69 229.45 210.34 232.01 C 208.57 236.75 207.24 231.79 206.15 229.78 L 205.69 227.99 C 206.30 225.51 206.34 223.50 205.91 220.98 C 205.77 219.59 205.73 218.30 204.92 217.10 C 200.40 219.51 197.42 223.48 193.05 226.17 C 191.51 224.89 190.05 223.46 188.41 222.31 C 187.48 223.49 186.66 226.59 185.15 226.85 C 184.35 225.37 183.85 223.73 183.25 222.14 C 179.74 213.95 187.72 201.91 192.16 195.10 C 196.10 193.12 192.70 189.89 190.96 193.93 C 185.34 195.33 183.16 199.31 179.30 203.05 C 174.97 199.68 169.71 210.78 169.40 204.23 C 174.21 198.27 181.61 194.16 187.71 189.75 C 190.59 189.13 193.12 187.19 195.82 189.19 C 198.74 191.31 199.32 186.68 200.07 184.90 C 200.97 184.60 201.88 184.31 202.78 184.03 Z" fill="#23253f" />
<path d="M 200.07 184.90 C 199.32 186.68 198.74 191.31 195.82 189.19 C 193.12 187.19 190.59 189.13 187.71 189.75 C 188.57 188.42 189.51 187.20 190.66 186.09 C 191.35 186.21 192.04 186.30 192.73 186.37 C 195.12 186.77 197.72 185.32 200.07 184.90 Z" fill="#554e5a" />
<path d="M 134.13 188.21 C 135.00 188.02 135.86 187.83 136.73 187.65 C 138.54 188.27 140.34 188.90 142.19 189.43 C 138.15 190.33 132.84 190.41 128.83 189.40 C 130.62 189.12 132.40 188.77 134.13 188.21 Z" fill="#b6adad" />
<path d="M 157.98 187.93 C 157.42 190.54 153.79 194.39 158.76 191.37 C 158.81 197.48 160.96 192.97 164.23 192.09 C 162.81 195.46 159.77 196.97 156.91 199.07 C 156.03 197.58 155.42 195.87 154.68 194.29 C 153.05 195.41 151.55 196.72 149.96 197.90 C 149.56 197.20 149.16 196.50 148.76 195.81 C 151.60 192.81 154.22 189.82 157.98 187.93 Z" fill="#8f909b" />
<path d="M 192.16 195.10 L 190.96 193.93 C 192.70 189.89 196.10 193.12 192.16 195.10 Z" fill="#9293a3" />
<path d="M 190.96 193.93 L 192.16 195.10 C 187.72 201.91 179.74 213.95 183.25 222.14 C 181.39 223.79 176.30 218.56 178.79 223.23 C 181.33 229.72 187.92 228.93 193.05 226.17 C 197.42 223.48 200.40 219.51 204.92 217.10 C 205.73 218.30 205.77 219.59 205.91 220.98 C 204.16 223.32 204.44 225.51 205.69 227.99 L 206.15 229.78 C 193.82 237.47 173.26 230.70 167.53 217.15 C 168.36 215.43 169.24 213.76 170.24 212.14 C 170.68 211.78 171.10 211.41 171.53 211.03 C 173.47 209.41 175.54 207.72 177.23 205.84 C 177.96 204.95 178.62 203.98 179.30 203.05 C 183.16 199.31 185.34 195.33 190.96 193.93 Z" fill="#eeeeef" />
<path d="M 148.76 195.81 C 149.16 196.50 149.56 197.20 149.96 197.90 C 148.62 198.37 142.17 206.87 146.75 203.94 C 146.80 204.92 146.90 205.89 147.03 206.87 C 145.79 207.40 144.50 207.78 143.19 208.12 C 142.73 206.84 142.34 205.53 141.99 204.22 C 144.10 201.26 146.05 198.27 148.76 195.81 Z" fill="#2c2c3f" />
<path d="M 147.03 206.87 C 146.90 205.89 146.80 204.92 146.75 203.94 C 150.05 201.26 149.39 206.29 147.03 206.87 Z" fill="#8e8e99" />
<path d="M 165.73 203.52 L 167.68 204.25 C 165.50 208.17 164.56 210.55 164.79 215.22 L 164.04 214.95 C 163.94 213.99 163.85 213.03 163.78 212.07 C 163.91 208.98 164.57 206.36 165.73 203.52 Z" fill="#a8a09b" />
<path d="M 177.23 205.84 C 175.54 207.72 173.47 209.41 171.53 211.03 C 169.60 208.75 176.58 201.05 177.23 205.84 Z" fill="#2a2a3b" />
<path d="M 170.24 212.14 C 169.24 213.76 168.36 215.43 167.53 217.15 C 165.66 216.61 163.89 217.68 164.04 214.95 L 164.79 215.22 C 168.35 217.65 165.20 211.30 167.59 209.62 C 170.19 205.65 169.96 209.92 170.24 212.14 Z" fill="#c5c1c1" />
<path d="M 211.74 218.99 C 212.04 220.01 212.25 221.05 212.38 222.10 C 211.97 222.78 211.54 223.44 211.08 224.09 C 210.65 222.19 210.50 220.62 211.74 218.99 Z" fill="#7d7e90" />
<path d="M 183.25 222.14 C 183.85 223.73 184.35 225.37 185.15 226.85 C 186.66 226.59 187.48 223.49 188.41 222.31 C 190.05 223.46 191.51 224.89 193.05 226.17 C 187.92 228.93 181.33 229.72 178.79 223.23 C 176.30 218.56 181.39 223.79 183.25 222.14 Z" fill="#7a6d6a" />
<path d="M 205.91 220.98 C 206.34 223.50 206.30 225.51 205.69 227.99 C 204.44 225.51 204.16 223.32 205.91 220.98 Z" fill="#898b94" />
<path d="M 210.76 224.92 C 211.16 227.40 211.82 229.74 210.34 232.01 C 209.69 229.45 209.32 227.30 210.76 224.92 Z" fill="#b9bcc3" />
</svg>