<?xml version="1.0" encoding="UTF-8" standalone="no"?>
<!DOCTYPE svg PUBLIC "-//W3C//DTD SVG 1.1//EN" "http://www.w3.org/Graphics/SVG/1.1/DTD/svg11.dtd">
<svg xmlns="http://www.w3.org/2000/svg" version="1.1" viewBox="0 0 256 256" width="256.0pt" height="256.0pt">
<path d="M 0.00 0.00 L 256.00 0.00 L 256.00 256.00 L 0.00 256.00 L 0.00 0.00 Z" fill="#fdfdfc" />
<path d="M 201.90 32.87 C 196.62 32.73 197.29 38.48 191.17 36.66 C 180.90 31.71 167.69 37.96 159.71 44.69 C 154.97 49.40 149.76 51.43 143.23 52.43 C 143.12 53.66 144.91 54.87 145.53 55.92 C 138.43 61.44 130.00 66.06 122.75 70.99 C 125.66 73.75 128.48 74.04 128.93 78.59 C 140.84 86.84 154.93 89.19 166.91 97.04 C 173.03 99.44 174.79 105.27 176.10 111.13 C 175.98 114.50 176.10 117.85 176.18 121.22 C 174.99 126.46 174.42 131.79 174.05 137.14 C 166.66 149.06 161.86 160.62 154.11 172.07 C 152.24 176.68 147.93 180.33 153.00 184.41 C 153.06 185.60 153.11 186.80 153.16 187.99 C 154.87 193.07 150.04 195.70 152.00 199.98 C 155.76 208.19 148.12 214.02 142.37 218.38 C 137.34 220.17 131.10 223.23 128.09 216.97 L 127.57 216.23 C 127.69 213.01 131.11 216.23 132.98 215.98 C 139.42 217.26 143.68 214.24 147.39 209.38 C 150.35 202.59 141.38 201.60 145.45 194.27 C 141.03 192.12 142.12 189.19 142.13 184.91 C 143.36 192.05 147.06 187.18 146.24 182.86 C 145.54 177.87 146.91 172.94 149.34 168.60 C 154.61 169.57 154.35 163.44 156.79 160.16 C 164.90 146.87 166.24 130.99 161.87 116.21 C 160.38 108.14 153.91 104.11 147.08 100.77 C 128.66 89.12 107.89 82.46 90.19 69.77 C 80.08 61.75 66.51 66.40 56.07 57.00 C 49.70 52.93 39.58 45.19 47.41 37.39 C 51.88 39.65 57.24 46.27 61.86 47.93 C 66.11 44.95 63.85 42.68 68.64 47.35 C 71.45 51.10 74.91 49.80 79.00 49.98 C 84.96 49.20 88.58 53.54 94.76 51.80 C 95.53 49.50 93.08 50.67 91.72 50.23 C 93.40 49.12 95.26 48.46 97.16 47.81 C 100.64 50.42 103.30 54.95 107.16 56.83 C 114.29 58.96 122.55 51.42 129.62 49.64 C 150.91 37.64 177.06 19.08 201.90 32.87 Z" fill="#2e2f40" />
<path d="M 201.90 32.87 C 206.23 36.78 211.79 38.25 216.31 41.70 C 222.43 50.98 229.29 57.10 231.16 68.88 C 227.07 66.17 226.06 62.04 224.01 69.30 C 220.12 65.01 215.97 57.10 209.17 57.11 C 202.32 59.56 207.17 61.67 201.89 66.06 C 199.74 71.00 198.82 72.16 194.42 75.22 C 196.79 78.67 190.60 86.61 197.57 82.79 C 202.28 84.63 209.30 89.05 214.82 88.99 C 212.81 85.08 213.07 77.67 219.09 78.22 C 220.88 78.58 222.98 82.04 224.72 83.28 C 224.95 85.59 223.27 92.08 227.49 90.78 C 228.74 84.73 232.43 80.19 232.38 73.77 C 233.11 86.80 234.60 100.01 233.82 113.05 C 231.18 109.21 231.74 101.47 227.37 99.58 C 223.02 97.46 219.93 107.53 219.33 110.55 C 215.04 122.77 223.70 134.71 226.07 145.03 C 216.13 138.15 207.43 129.10 196.97 123.03 C 195.41 122.58 193.01 119.91 192.71 122.90 C 187.54 119.70 183.11 115.58 178.11 112.19 C 177.21 115.11 176.85 118.20 176.18 121.22 C 176.10 117.85 175.98 114.50 176.10 111.13 C 181.06 111.42 178.97 109.25 179.61 105.72 C 183.35 115.76 188.38 111.98 196.59 111.71 C 199.64 115.93 199.19 115.20 198.68 110.39 C 193.47 106.63 188.15 112.23 187.13 103.83 C 186.52 95.80 199.24 92.88 202.23 100.28 C 203.52 105.39 203.16 110.02 210.00 109.94 C 204.35 103.34 211.10 99.09 203.73 94.29 C 197.46 88.44 191.46 90.91 184.01 92.28 C 172.69 91.02 194.06 86.44 191.06 83.24 C 188.68 82.29 178.15 82.46 182.49 77.53 C 184.09 72.92 191.90 78.82 192.99 73.91 C 192.83 70.07 187.80 69.06 186.88 65.00 C 186.37 61.52 186.78 58.25 183.92 55.65 C 185.03 53.66 186.40 51.85 187.63 49.95 C 186.12 47.70 181.64 49.47 182.37 46.37 C 182.52 40.78 187.53 39.99 191.17 36.66 C 197.29 38.48 196.62 32.73 201.90 32.87 Z" fill="#d2c158" />
<path d="M 191.17 36.66 C 187.53 39.99 182.52 40.78 182.37 46.37 C 181.64 49.47 186.12 47.70 187.63 49.95 C 186.40 51.85 185.03 53.66 183.92 55.65 C 177.55 50.16 169.14 49.00 162.27 54.26 C 159.14 59.55 153.78 65.56 160.23 70.76 C 166.93 78.77 175.53 76.10 180.96 85.02 C 181.41 82.04 178.63 73.40 174.48 76.38 C 174.79 72.91 169.79 72.25 167.49 70.61 C 161.66 68.73 167.89 59.61 164.23 55.68 C 166.07 52.52 174.94 55.48 167.66 56.49 C 167.88 57.92 174.69 56.72 177.14 57.88 C 183.12 61.55 181.52 72.68 187.91 74.94 C 190.17 72.28 186.38 68.39 186.88 65.00 C 187.80 69.06 192.83 70.07 192.99 73.91 C 191.90 78.82 184.09 72.92 182.49 77.53 C 178.15 82.46 188.68 82.29 191.06 83.24 C 194.06 86.44 172.69 91.02 184.01 92.28 C 180.71 94.70 179.19 94.77 181.88 98.80 C 178.50 100.97 179.43 102.23 179.61 105.72 C 178.97 109.25 181.06 111.42 176.10 111.13 C 174.79 105.27 173.03 99.44 166.91 97.04 C 154.93 89.19 140.84 86.84 128.93 78.59 C 128.48 74.04 125.66 73.75 122.75 70.99 C 130.00 66.06 138.43 61.44 145.53 55.92 C 144.91 54.87 143.12 53.66 143.23 52.43 C 149.76 51.43 154.97 49.40 159.71 44.69 C 167.69 37.96 180.90 31.71 191.17 36.66 Z" fill="#bca63e" />
<path d="M 68.64 47.35 C 78.50 50.89 87.24 46.93 97.16 47.81 C 95.26 48.46 93.40 49.12 91.72 50.23 C 93.08 50.67 95.53 49.50 94.76 51.80 C 88.58 53.54 84.96 49.20 79.00 49.98 C 74.91 49.80 71.45 51.10 68.64 47.35 Z" fill="#84848c" />
<path d="M 183.92 55.65 C 186.78 58.25 186.37 61.52 186.88 65.00 C 186.38 68.39 190.17 72.28 187.91 74.94 C 181.52 72.68 183.12 61.55 177.14 57.88 C 174.69 56.72 167.88 57.92 167.66 56.49 C 174.94 55.48 166.07 52.52 164.23 55.68 C 167.89 59.61 161.66 68.73 167.49 70.61 C 169.79 72.25 174.79 72.91 174.48 76.38 C 178.63 73.40 181.41 82.04 180.96 85.02 C 175.53 76.10 166.93 78.77 160.23 70.76 C 153.78 65.56 159.14 59.55 162.27 54.26 C 169.14 49.00 177.55 50.16 183.92 55.65 Z" fill="#5c3b0a" />
<path d="M 209.17 57.11 C 215.97 57.10 220.12 65.01 224.01 69.30 C 225.55 71.90 228.46 81.32 222.45 79.75 C 220.57 75.09 220.33 64.67 213.97 63.96 C 207.82 62.64 206.64 69.84 201.89 66.06 C 207.17 61.67 202.32 59.56 209.17 57.11 Z" fill="#6f4709" />
<path d="M 173.33 63.36 C 175.99 63.16 183.19 67.20 177.87 69.96 C 173.31 71.98 167.56 66.97 173.33 63.36 Z" fill="#533509" />
<path d="M 213.97 63.96 C 220.33 64.67 220.57 75.09 222.45 79.75 C 228.46 81.32 225.55 71.90 224.01 69.30 C 226.06 62.04 227.07 66.17 231.16 68.88 C 231.65 70.49 232.07 72.12 232.38 73.77 C 232.43 80.19 228.74 84.73 227.49 90.78 C 223.27 92.08 224.95 85.59 224.72 83.28 C 222.98 82.04 220.88 78.58 219.09 78.22 C 213.07 77.67 212.81 85.08 214.82 88.99 C 209.30 89.05 202.28 84.63 197.57 82.79 C 190.60 86.61 196.79 78.67 194.42 75.22 C 198.82 72.16 199.74 71.00 201.89 66.06 C 206.64 69.84 207.82 62.64 213.97 63.96 Z" fill="#c1a837" />
<path d="M 203.73 94.29 C 211.10 99.09 204.35 103.34 210.00 109.94 C 203.16 110.02 203.52 105.39 202.23 100.28 C 199.24 92.88 186.52 95.80 187.13 103.83 C 188.15 112.23 193.47 106.63 198.68 110.39 C 199.19 115.20 199.64 115.93 196.59 111.71 C 188.38 111.98 183.35 115.76 179.61 105.72 C 179.43 102.23 178.50 100.97 181.88 98.80 C 179.19 94.77 180.71 94.70 184.01 92.28 C 191.46 90.91 197.46 88.44 203.73 94.29 Z" fill="#704309" />
<path d="M 93.07 94.13 C 100.83 92.48 93.22 99.03 98.12 100.49 C 95.30 102.12 92.32 101.48 91.04 104.83 C 97.81 105.17 111.50 104.82 116.35 100.14 C 119.94 100.37 123.40 100.53 126.99 100.32 C 124.87 104.71 116.90 106.92 116.03 111.94 C 121.03 112.18 125.02 105.53 129.04 103.05 C 128.54 105.05 127.80 106.97 127.14 108.91 C 131.09 107.07 134.12 103.92 138.04 102.08 C 137.66 105.62 136.25 108.77 134.48 111.82 C 126.04 116.13 117.25 129.97 117.23 140.12 C 122.31 136.07 122.80 126.48 129.00 123.90 C 128.10 128.96 125.80 133.34 124.04 138.09 C 120.20 143.15 130.38 152.46 119.85 149.22 C 113.11 146.34 112.85 135.10 104.51 139.15 L 103.93 137.86 C 105.29 133.82 112.72 125.38 105.52 123.67 C 98.53 123.94 85.26 123.33 81.77 130.93 C 77.43 139.49 76.05 136.07 69.27 138.23 C 65.27 143.90 54.01 132.76 52.68 141.92 C 50.11 141.88 47.47 141.62 44.92 141.91 C 43.99 142.03 43.07 142.16 42.15 142.30 C 36.88 141.01 30.30 138.23 33.01 146.93 C 28.54 136.22 25.66 148.42 21.90 152.27 C 18.59 147.87 20.02 140.13 19.85 134.83 C 20.49 134.19 21.12 133.56 21.76 132.92 C 20.00 138.72 29.71 131.28 28.50 128.37 C 34.55 128.08 37.19 127.33 42.20 124.00 C 47.71 126.30 50.40 127.38 51.50 133.77 C 63.51 129.32 67.66 124.62 78.96 117.15 C 68.90 116.88 59.44 120.14 49.05 119.27 C 48.74 118.51 48.44 117.74 48.14 116.97 C 58.88 113.68 69.15 117.26 78.81 111.49 C 77.55 108.98 72.01 112.75 69.72 112.64 C 72.96 108.76 78.36 111.05 76.92 104.15 C 74.02 98.81 70.71 99.64 65.84 101.85 C 71.87 94.65 84.45 98.23 93.07 94.13 Z" fill="#c7b35d" />
<path d="M 116.35 100.14 C 111.50 104.82 97.81 105.17 91.04 104.83 C 92.32 101.48 95.30 102.12 98.12 100.49 C 103.15 98.37 110.39 101.42 116.35 100.14 Z" fill="#665e4c" />
<path d="M 194.22 99.41 C 197.00 99.29 199.08 106.54 194.01 105.01 C 189.43 104.90 190.45 100.16 194.22 99.41 Z" fill="#6c4507" />
<path d="M 76.92 104.15 C 78.36 111.05 72.96 108.76 69.72 112.64 C 72.01 112.75 77.55 108.98 78.81 111.49 C 69.15 117.26 58.88 113.68 48.14 116.97 C 39.38 113.10 34.35 120.46 26.57 124.55 C 23.80 126.76 22.89 129.71 21.76 132.92 C 21.12 133.56 20.49 134.19 19.85 134.83 C 18.59 117.21 35.13 112.07 49.35 112.28 C 55.31 109.85 60.20 105.02 65.84 101.85 C 70.71 99.64 74.02 98.81 76.92 104.15 Z" fill="#5a4a46" />
<path d="M 147.08 100.77 C 153.91 104.11 160.38 108.14 161.87 116.21 C 157.88 109.54 152.07 106.21 147.08 100.77 Z" fill="#a5ae8e" />
<path d="M 134.48 111.82 C 132.89 115.96 131.16 120.02 129.00 123.90 C 122.80 126.48 122.31 136.07 117.23 140.12 C 117.25 129.97 126.04 116.13 134.48 111.82 Z" fill="#584c3d" />
<path d="M 101.11 112.48 C 105.55 112.39 110.09 111.35 114.68 112.32 C 117.73 116.25 112.49 115.23 110.01 115.94 C 102.31 116.61 94.67 115.23 87.01 115.71 C 92.22 112.44 95.07 111.87 101.11 112.48 Z" fill="#494233" />
<path d="M 48.14 116.97 C 48.44 117.74 48.74 118.51 49.05 119.27 C 44.82 121.70 42.33 120.04 38.09 118.97 C 39.32 120.76 40.73 122.40 42.20 124.00 C 37.19 127.33 34.55 128.08 28.50 128.37 C 29.71 131.28 20.00 138.72 21.76 132.92 C 22.89 129.71 23.80 126.76 26.57 124.55 C 34.35 120.46 39.38 113.10 48.14 116.97 Z" fill="#e0dccc" />
<path d="M 78.96 117.15 C 67.66 124.62 63.51 129.32 51.50 133.77 C 50.40 127.38 47.71 126.30 42.20 124.00 C 40.73 122.40 39.32 120.76 38.09 118.97 C 42.33 120.04 44.82 121.70 49.05 119.27 C 59.44 120.14 68.90 116.88 78.96 117.15 Z" fill="#4f3739" />
<path d="M 196.97 123.03 C 207.43 129.10 216.13 138.15 226.07 145.03 C 230.70 152.73 233.98 160.82 238.02 168.79 C 235.54 170.20 231.98 175.69 230.26 170.79 C 220.59 152.22 205.12 139.42 192.71 122.90 C 193.01 119.91 195.41 122.58 196.97 123.03 Z" fill="#363747" />
<path d="M 105.52 123.67 C 112.72 125.38 105.29 133.82 103.93 137.86 C 101.22 142.06 98.05 146.39 96.11 151.01 C 99.07 154.40 102.55 157.61 105.14 161.31 C 104.38 169.58 112.32 171.06 113.28 179.68 C 113.59 181.44 115.71 187.44 111.97 185.12 C 110.54 182.99 109.18 180.81 107.83 178.62 C 106.70 173.53 105.55 169.12 101.53 165.49 C 97.91 161.43 103.57 169.58 100.75 170.74 C 92.08 181.99 84.09 176.54 72.20 179.12 C 68.73 179.15 61.96 181.69 59.91 178.51 C 50.75 182.80 29.68 189.52 24.94 176.18 C 29.86 178.62 31.28 177.24 36.11 175.78 C 47.29 177.56 59.33 174.72 70.62 173.64 C 77.71 171.90 92.01 169.30 89.00 158.98 C 88.98 153.59 86.40 150.82 82.65 147.44 C 76.98 150.18 67.68 154.01 66.28 160.82 C 69.94 163.55 77.18 168.47 78.91 161.08 C 76.28 159.00 74.64 160.78 71.99 161.56 C 69.55 160.02 73.90 155.14 75.81 155.37 C 81.42 160.36 83.94 163.67 77.64 169.73 C 72.65 171.46 63.97 163.35 64.83 158.06 C 69.11 152.06 75.55 149.13 80.35 143.79 C 82.26 141.06 83.41 144.66 85.45 145.50 C 89.41 146.37 94.37 147.48 95.17 142.14 C 96.29 135.43 103.26 132.32 103.95 126.04 C 100.16 126.51 96.55 128.50 92.98 129.81 C 100.13 133.32 93.37 140.93 88.86 142.94 C 82.19 144.40 81.14 135.58 81.77 130.93 C 85.26 123.33 98.53 123.94 105.52 123.67 Z" fill="#4e403d" />
<path d="M 103.95 126.04 C 103.26 132.32 96.29 135.43 95.17 142.14 C 94.37 147.48 89.41 146.37 85.45 145.50 C 83.41 144.66 82.26 141.06 80.35 143.79 C 78.85 139.88 75.47 144.80 73.40 145.88 C 68.29 145.88 63.31 145.03 58.23 144.73 C 55.07 144.32 53.46 145.88 52.68 141.92 C 54.01 132.76 65.27 143.90 69.27 138.23 C 76.05 136.07 77.43 139.49 81.77 130.93 C 81.14 135.58 82.19 144.40 88.86 142.94 C 93.37 140.93 100.13 133.32 92.98 129.81 C 96.55 128.50 100.16 126.51 103.95 126.04 Z" fill="#a28c4b" />
<path d="M 193.13 135.85 C 200.62 147.18 211.03 154.93 221.03 163.84 C 222.98 168.48 226.43 172.09 228.22 176.79 C 228.33 187.14 234.44 193.71 231.64 204.81 C 230.10 211.22 231.83 216.81 233.15 223.02 C 226.43 235.28 225.84 236.40 211.90 239.97 C 197.96 247.16 189.48 238.49 175.25 239.74 C 158.35 237.87 140.78 239.81 123.74 238.73 C 128.13 235.97 132.86 233.59 136.96 230.43 C 135.24 229.98 133.50 229.57 131.76 229.20 C 143.71 231.00 150.34 221.60 162.18 224.69 C 174.50 224.33 186.60 227.47 198.80 226.67 C 201.47 229.27 207.48 227.55 210.58 226.28 C 219.44 224.82 221.03 217.82 217.66 210.36 C 215.58 206.49 215.36 201.48 215.02 197.16 C 218.22 188.76 210.13 186.23 210.03 177.99 C 208.27 168.37 205.07 156.66 197.52 149.94 C 197.01 139.28 189.84 144.75 187.62 137.45 C 178.10 136.36 179.15 144.36 172.67 149.70 C 168.11 153.23 173.41 160.21 165.28 156.28 C 164.43 164.66 160.92 172.01 154.46 177.51 C 151.94 179.59 153.03 181.62 153.00 184.41 C 147.93 180.33 152.24 176.68 154.11 172.07 C 161.86 160.62 166.66 149.06 174.05 137.14 C 180.98 133.29 186.16 128.65 193.13 135.85 Z" fill="#b38e36" />
<path d="M 187.62 137.45 C 189.84 144.75 197.01 139.28 197.52 149.94 C 193.87 154.26 191.62 149.40 192.22 157.40 C 185.89 161.00 188.42 154.86 185.95 151.15 C 173.68 155.10 171.67 165.20 163.62 173.24 C 164.58 178.45 161.34 181.06 159.97 185.58 C 161.27 188.91 154.37 191.48 153.16 187.99 C 153.11 186.80 153.06 185.60 153.00 184.41 C 153.03 181.62 151.94 179.59 154.46 177.51 C 160.92 172.01 164.43 164.66 165.28 156.28 C 173.41 160.21 168.11 153.23 172.67 149.70 C 179.15 144.36 178.10 136.36 187.62 137.45 Z" fill="#ddc040" />
<path d="M 103.93 137.86 L 104.51 139.15 C 106.31 145.64 112.81 146.89 115.20 152.69 C 116.73 157.48 118.82 161.89 119.64 166.82 C 118.21 169.16 114.82 172.06 115.03 174.88 C 115.04 177.61 120.42 176.54 119.96 179.08 C 119.69 183.53 118.82 187.40 120.20 191.81 C 118.77 198.33 113.62 186.71 111.97 185.12 C 115.71 187.44 113.59 181.44 113.28 179.68 C 112.32 171.06 104.38 169.58 105.14 161.31 C 102.55 157.61 99.07 154.40 96.11 151.01 C 98.05 146.39 101.22 142.06 103.93 137.86 Z" fill="#9c8754" />
<path d="M 119.85 149.22 C 123.10 157.94 123.72 165.93 124.95 174.96 C 125.58 180.35 126.47 185.48 125.86 190.94 C 119.07 187.61 124.04 173.56 119.64 166.82 C 118.82 161.89 116.73 157.48 115.20 152.69 C 112.81 146.89 106.31 145.64 104.51 139.15 C 112.85 135.10 113.11 146.34 119.85 149.22 Z" fill="#3f3e49" />
<path d="M 153.89 138.97 C 155.68 143.78 148.75 160.48 156.79 160.16 C 154.35 163.44 154.61 169.57 149.34 168.60 C 146.91 172.94 145.54 177.87 146.24 182.86 C 147.06 187.18 143.36 192.05 142.13 184.91 C 142.12 189.19 141.03 192.12 145.45 194.27 C 141.38 201.60 150.35 202.59 147.39 209.38 C 143.68 214.24 139.42 217.26 132.98 215.98 C 131.11 216.23 127.69 213.01 127.57 216.23 C 126.55 214.90 125.52 213.70 124.82 212.17 C 128.30 209.27 135.63 203.74 133.37 212.92 C 139.72 215.45 140.82 204.90 137.20 202.67 C 137.54 199.82 136.56 199.37 140.03 199.27 C 139.08 197.35 137.89 195.59 136.21 194.25 C 133.61 191.96 131.34 191.05 132.07 187.03 C 134.17 188.15 135.85 189.87 137.99 190.96 C 136.13 182.98 134.60 174.38 135.16 166.17 C 139.53 167.59 136.00 183.07 139.73 187.09 C 140.73 174.27 139.51 161.62 139.18 148.91 C 142.45 155.92 140.82 164.12 143.12 171.01 C 147.16 169.36 145.82 162.69 147.05 159.05 C 147.67 151.64 151.03 145.65 153.89 138.97 Z" fill="#977c50" />
<path d="M 52.68 141.92 C 53.46 145.88 55.07 144.32 58.23 144.73 C 55.05 147.68 51.53 149.90 47.22 150.76 C 46.15 147.92 45.79 144.83 44.92 141.91 C 47.47 141.62 50.11 141.88 52.68 141.92 Z" fill="#dbd6bc" />
<path d="M 44.92 141.91 C 45.79 144.83 46.15 147.92 47.22 150.76 C 51.53 149.90 55.05 147.68 58.23 144.73 C 63.31 145.03 68.29 145.88 73.40 145.88 C 69.63 149.16 66.93 151.46 61.69 149.22 C 57.69 146.72 55.08 152.24 50.64 152.70 C 46.69 154.16 45.37 150.06 42.81 148.00 C 40.33 148.34 38.12 150.60 35.99 151.84 C 32.64 148.29 40.13 144.62 42.15 142.30 C 43.07 142.16 43.99 142.03 44.92 141.91 Z" fill="#4f4d50" />
<path d="M 82.65 147.44 C 86.40 150.82 88.98 153.59 89.00 158.98 C 92.01 169.30 77.71 171.90 70.62 173.64 C 59.33 174.72 47.29 177.56 36.11 175.78 C 38.08 169.95 37.24 165.05 34.21 159.83 C 38.66 160.62 41.31 165.43 45.97 165.57 C 52.07 164.96 60.88 163.16 64.83 158.06 C 63.97 163.35 72.65 171.46 77.64 169.73 C 83.94 163.67 81.42 160.36 75.81 155.37 C 73.90 155.14 69.55 160.02 71.99 161.56 C 74.64 160.78 76.28 159.00 78.91 161.08 C 77.18 168.47 69.94 163.55 66.28 160.82 C 67.68 154.01 76.98 150.18 82.65 147.44 Z" fill="#926e40" />
<path d="M 197.52 149.94 C 205.07 156.66 208.27 168.37 210.03 177.99 C 210.13 186.23 218.22 188.76 215.02 197.16 C 214.14 197.13 213.25 197.11 212.37 197.10 C 210.14 191.54 210.78 190.68 209.21 197.14 C 208.44 192.99 208.09 189.31 204.39 186.61 C 198.79 182.51 199.66 175.90 192.94 172.82 C 193.29 172.31 193.64 171.79 193.97 171.25 C 198.84 172.51 193.12 168.08 192.13 166.92 C 182.83 161.24 174.73 169.80 170.07 177.12 C 164.79 182.05 164.58 183.66 165.12 190.97 C 171.09 188.89 170.19 178.54 175.75 179.07 C 175.84 181.11 175.75 183.16 175.73 185.20 C 165.30 195.56 167.20 209.06 180.85 215.02 C 175.11 213.86 183.35 218.68 177.93 219.97 C 173.01 219.34 167.94 213.31 165.36 209.32 C 161.59 216.49 155.58 218.65 148.26 220.27 C 143.56 225.86 144.51 224.70 137.89 222.46 C 132.89 230.22 122.70 226.37 128.09 216.97 C 131.10 223.23 137.34 220.17 142.37 218.38 C 148.12 214.02 155.76 208.19 152.00 199.98 C 150.04 195.70 154.87 193.07 153.16 187.99 C 154.37 191.48 161.27 188.91 159.97 185.58 C 161.34 181.06 164.58 178.45 163.62 173.24 C 171.67 165.20 173.68 155.10 185.95 151.15 C 188.42 154.86 185.89 161.00 192.22 157.40 C 191.62 149.40 193.87 154.26 197.52 149.94 Z" fill="#b79a52" />
<path d="M 101.53 165.49 C 105.55 169.12 106.70 173.53 107.83 178.62 C 103.31 180.97 110.41 186.98 104.33 189.33 C 99.84 193.03 89.65 202.08 96.07 207.99 C 97.25 209.85 98.14 211.84 98.89 213.90 C 91.98 209.93 87.22 217.59 79.56 210.24 C 79.35 206.60 79.53 207.50 82.74 206.48 C 79.69 198.71 68.95 202.36 71.27 192.74 C 71.90 187.22 65.09 193.31 63.75 189.29 C 66.12 187.10 74.50 183.15 72.20 179.12 C 84.09 176.54 92.08 181.99 100.75 170.74 C 103.57 169.58 97.91 161.43 101.53 165.49 Z" fill="#a17a45" />
<path d="M 221.03 163.84 C 227.12 165.25 225.36 171.13 230.24 174.76 C 236.57 179.90 232.38 184.74 236.92 191.03 C 236.71 200.90 236.16 213.90 233.15 223.02 C 231.83 216.81 230.10 211.22 231.64 204.81 C 234.44 193.71 228.33 187.14 228.22 176.79 C 226.43 172.09 222.98 168.48 221.03 163.84 Z" fill="#c7af7a" />
<path d="M 192.13 166.92 C 193.12 168.08 198.84 172.51 193.97 171.25 C 186.73 169.92 180.38 180.79 175.73 185.20 C 175.75 183.16 175.84 181.11 175.75 179.07 C 170.19 178.54 171.09 188.89 165.12 190.97 C 164.58 183.66 164.79 182.05 170.07 177.12 C 174.73 169.80 182.83 161.24 192.13 166.92 Z" fill="#d5c584" />
<path d="M 119.64 166.82 C 124.04 173.56 119.07 187.61 125.86 190.94 C 126.47 185.48 125.58 180.35 124.95 174.96 C 127.05 181.10 131.20 194.70 120.20 191.81 C 118.82 187.40 119.69 183.53 119.96 179.08 C 120.42 176.54 115.04 177.61 115.03 174.88 C 114.82 172.06 118.21 169.16 119.64 166.82 Z" fill="#c0b6a4" />
<path d="M 193.97 171.25 C 193.64 171.79 193.29 172.31 192.94 172.82 C 185.34 176.06 174.83 188.67 172.70 196.67 C 171.10 202.98 173.15 213.11 182.00 211.04 C 194.24 208.74 204.00 217.01 210.58 226.28 C 207.48 227.55 201.47 229.27 198.80 226.67 C 201.22 225.33 206.06 226.19 202.52 222.52 C 195.63 218.97 187.61 219.37 180.85 215.02 C 167.20 209.06 165.30 195.56 175.73 185.20 C 180.38 180.79 186.73 169.92 193.97 171.25 Z" fill="#3e3c3b" />
<path d="M 192.94 172.82 C 199.66 175.90 198.79 182.51 204.39 186.61 C 208.09 189.31 208.44 192.99 209.21 197.14 C 204.75 201.24 195.20 202.77 189.33 201.69 C 187.24 197.40 187.54 192.98 192.56 191.24 C 192.64 198.06 199.98 197.12 199.04 191.02 C 198.20 183.20 188.18 189.30 186.18 193.21 C 181.07 198.60 185.52 206.52 191.92 206.92 C 198.66 204.28 207.22 202.38 212.37 197.10 C 213.25 197.11 214.14 197.13 215.02 197.16 C 215.36 201.48 215.58 206.49 217.66 210.36 C 221.03 217.82 219.44 224.82 210.58 226.28 C 204.00 217.01 194.24 208.74 182.00 211.04 C 173.15 213.11 171.10 202.98 172.70 196.67 C 174.83 188.67 185.34 176.06 192.94 172.82 Z" fill="#d1c37f" />
<path d="M 199.04 191.02 C 199.98 197.12 192.64 198.06 192.56 191.24 C 187.54 192.98 187.24 197.40 189.33 201.69 C 195.20 202.77 204.75 201.24 209.21 197.14 C 210.78 190.68 210.14 191.54 212.37 197.10 C 207.22 202.38 198.66 204.28 191.92 206.92 C 185.52 206.52 181.07 198.60 186.18 193.21 C 188.18 189.30 198.20 183.20 199.04 191.02 Z" fill="#464239" />
<path d="M 63.75 189.29 C 65.09 193.31 71.90 187.22 71.27 192.74 C 68.95 202.36 79.69 198.71 82.74 206.48 C 79.53 207.50 79.35 206.60 79.56 210.24 C 78.47 209.66 77.35 209.15 76.23 208.63 C 68.69 205.62 63.59 210.55 56.05 202.81 C 54.78 198.20 63.02 195.30 61.12 191.56 C 61.97 190.77 62.83 189.99 63.75 189.29 Z" fill="#d3b250" />
<path d="M 61.12 191.56 C 63.02 195.30 54.78 198.20 56.05 202.81 C 63.59 210.55 68.69 205.62 76.23 208.63 C 71.91 208.94 68.42 208.59 65.73 212.56 C 71.17 211.77 71.82 209.81 75.00 215.06 C 72.30 214.84 69.61 214.59 66.91 214.41 C 72.89 219.71 85.96 218.83 86.33 227.77 C 91.66 235.72 102.94 231.31 107.19 237.78 C 104.20 239.32 101.46 240.45 97.99 240.06 C 84.15 237.31 70.97 239.50 57.00 239.04 C 47.31 240.09 40.44 234.57 30.76 232.01 C 26.03 229.11 32.53 226.96 34.47 225.14 C 39.74 229.91 49.50 229.15 56.11 228.73 C 47.67 224.54 38.29 219.34 28.70 218.64 C 26.67 215.92 30.03 216.65 31.65 215.77 C 29.80 212.84 27.73 210.10 26.20 206.97 C 28.63 207.60 30.91 208.60 33.14 209.75 C 31.32 210.27 28.32 209.79 31.75 211.26 C 38.69 213.23 39.53 219.89 46.92 220.77 C 48.78 218.76 47.70 216.19 47.36 213.81 C 51.71 215.65 55.28 216.34 59.85 214.69 C 57.17 209.24 54.89 203.90 53.08 198.07 C 55.43 195.59 58.49 193.74 61.12 191.56 Z" fill="#ae8d44" />
<path d="M 136.21 194.25 C 137.89 195.59 139.08 197.35 140.03 199.27 C 136.56 199.37 137.54 199.82 137.20 202.67 C 133.93 203.62 121.67 206.93 124.82 212.17 C 125.52 213.70 126.55 214.90 127.57 216.23 L 128.09 216.97 C 122.70 226.37 132.89 230.22 137.89 222.46 C 144.51 224.70 143.56 225.86 148.26 220.27 C 155.58 218.65 161.59 216.49 165.36 209.32 C 167.94 213.31 173.01 219.34 177.93 219.97 C 183.35 218.68 175.11 213.86 180.85 215.02 C 187.61 219.37 195.63 218.97 202.52 222.52 C 206.06 226.19 201.22 225.33 198.80 226.67 C 186.60 227.47 174.50 224.33 162.18 224.69 C 150.34 221.60 143.71 231.00 131.76 229.20 C 125.88 228.99 120.88 232.22 115.91 229.16 C 102.73 223.79 87.86 221.49 75.00 215.06 C 71.82 209.81 71.17 211.77 65.73 212.56 C 68.42 208.59 71.91 208.94 76.23 208.63 C 77.35 209.15 78.47 209.66 79.56 210.24 C 87.22 217.59 91.98 209.93 98.89 213.90 C 98.14 211.84 97.25 209.85 96.07 207.99 C 104.44 212.65 113.05 201.84 121.66 199.65 C 125.53 196.56 134.60 198.89 136.21 194.25 Z" fill="#c3b58b" />
<path d="M 137.20 202.67 C 140.82 204.90 139.72 215.45 133.37 212.92 C 135.63 203.74 128.30 209.27 124.82 212.17 C 121.67 206.93 133.93 203.62 137.20 202.67 Z" fill="#322e38" />
<path d="M 33.14 209.75 C 37.99 211.21 42.83 211.24 47.36 213.81 C 47.70 216.19 48.78 218.76 46.92 220.77 C 39.53 219.89 38.69 213.23 31.75 211.26 C 28.32 209.79 31.32 210.27 33.14 209.75 Z" fill="#3c3840" />
<path d="M 66.91 214.41 C 69.61 214.59 72.30 214.84 75.00 215.06 C 87.86 221.49 102.73 223.79 115.91 229.16 C 120.88 232.22 125.88 228.99 131.76 229.20 C 133.50 229.57 135.24 229.98 136.96 230.43 C 132.86 233.59 128.13 235.97 123.74 238.73 C 122.76 239.13 121.77 239.51 120.78 239.89 C 116.12 239.49 112.05 237.40 107.19 237.78 C 102.94 231.31 91.66 235.72 86.33 227.77 C 85.96 218.83 72.89 219.71 66.91 214.41 Z" fill="#3e373e" />
<path d="M 56.11 228.73 C 49.50 229.15 39.74 229.91 34.47 225.14 C 32.59 222.94 30.52 220.89 28.70 218.64 C 38.29 219.34 47.67 224.54 56.11 228.73 Z" fill="#413c41" />
<path d="M 123.74 238.73 C 140.78 239.81 158.35 237.87 175.25 239.74 C 157.13 240.26 138.92 239.98 120.78 239.89 C 121.77 239.51 122.76 239.13 123.74 238.73 Z" fill="#ddc799" />
</svg>