<?xml version="1.0" encoding="UTF-8" standalone="no"?>
<!DOCTYPE svg PUBLIC "-//W3C//DTD SVG 1.1//EN" "http://www.w3.org/Graphics/SVG/1.1/DTD/svg11.dtd">
<svg xmlns="http://www.w3.org/2000/svg" version="1.1" viewBox="0 0 256 256" width="256.0pt" height="256.0pt">
<path d="M 0.00 0.00 L 256.00 0.00 L 256.00 256.00 L 0.00 256.00 L 0.00 0.00 Z" fill="#fefefe" />
<path d="M 189.74 14.23 C 195.39 15.09 201.35 16.67 206.17 19.84 C 215.84 26.68 223.59 36.01 227.86 47.13 C 231.57 56.33 231.33 65.15 233.31 74.73 C 234.28 79.93 236.03 85.03 236.69 90.24 C 237.90 100.81 235.64 112.51 238.23 122.76 C 240.01 130.53 242.14 138.60 240.51 146.58 C 239.03 153.59 236.06 160.94 235.23 168.11 C 234.45 175.63 234.95 183.16 236.39 190.57 C 237.79 197.64 237.90 204.84 239.09 211.94 C 239.68 215.78 240.47 219.77 239.63 223.63 C 239.06 226.25 237.78 228.51 236.52 230.85 C 235.68 229.99 234.85 229.13 234.01 228.26 C 234.32 230.53 234.60 232.79 234.84 235.06 C 228.71 235.10 222.25 231.22 218.18 226.82 C 211.30 219.98 208.22 211.31 201.42 204.57 C 197.55 200.68 192.71 198.34 187.65 196.37 C 183.79 195.02 179.31 193.21 175.37 195.34 C 168.72 198.73 164.60 205.47 160.20 211.20 C 153.13 220.68 143.22 227.24 132.13 231.11 C 122.48 234.91 113.23 234.41 103.27 236.24 C 94.86 237.70 87.72 240.94 79.03 241.11 C 71.63 241.44 64.27 239.32 58.81 234.19 C 53.23 228.85 47.56 223.64 40.30 220.63 C 36.28 218.85 31.34 219.50 26.92 219.20 C 27.27 215.85 27.45 212.53 27.47 209.16 C 28.13 206.90 29.02 204.72 30.00 202.58 C 33.22 197.48 30.64 192.20 31.79 185.98 C 32.53 182.52 31.67 179.39 31.07 176.00 C 30.52 170.13 30.97 164.16 30.71 158.26 C 29.58 158.44 28.46 158.63 27.33 158.82 C 27.63 154.46 27.71 150.13 27.33 145.77 C 27.24 140.69 28.03 135.74 28.92 130.77 C 28.97 132.26 29.02 133.75 29.08 135.23 C 28.78 139.92 29.99 143.17 32.33 147.11 C 32.77 153.35 35.26 158.78 37.12 164.65 C 37.70 163.76 38.28 162.87 38.86 161.98 C 39.26 162.60 39.65 163.23 40.04 163.86 C 42.82 170.88 45.84 177.36 51.11 182.90 C 49.47 182.15 47.80 181.47 46.12 180.81 C 45.53 184.34 45.23 188.41 43.64 191.65 C 42.10 194.29 39.65 196.51 37.45 198.60 L 38.24 199.37 C 40.62 201.46 41.20 204.01 42.42 206.75 C 44.84 209.28 48.11 210.86 50.56 213.43 C 52.58 215.48 54.30 216.63 56.97 217.67 C 59.10 219.04 60.25 219.41 62.83 219.19 C 62.19 214.23 62.44 209.34 62.64 204.36 C 61.97 204.37 61.30 204.39 60.63 204.40 C 60.25 206.81 59.89 209.23 59.56 211.65 C 58.77 212.20 57.99 212.75 57.20 213.30 C 55.87 211.45 54.49 209.64 53.06 207.86 C 55.06 202.69 55.50 196.82 55.58 191.30 C 55.61 189.44 54.25 188.62 53.17 187.32 C 52.78 186.89 52.40 186.45 52.03 186.01 L 52.64 184.77 C 55.43 188.07 57.79 191.29 61.80 193.19 C 65.04 194.78 67.88 196.92 70.86 198.92 C 76.57 196.32 83.09 197.42 89.13 195.52 C 86.68 195.29 84.23 195.06 81.78 194.75 C 83.09 193.65 84.60 191.87 86.37 191.63 C 91.25 190.87 96.12 190.14 100.94 189.01 C 104.94 188.07 108.75 185.78 112.08 183.42 C 108.30 184.45 105.00 185.86 100.97 185.27 C 97.63 184.78 94.31 184.84 92.10 181.92 C 89.16 178.23 84.67 177.90 81.48 174.54 C 78.45 171.26 77.15 167.37 75.33 163.39 C 75.76 161.69 76.16 159.98 76.56 158.28 C 77.28 158.29 78.00 158.31 78.73 158.32 C 80.10 161.56 80.97 165.22 82.84 168.19 C 83.82 169.65 85.90 169.12 87.41 169.26 C 92.78 171.97 97.71 175.04 103.69 176.31 C 110.18 178.32 116.76 178.04 123.36 179.15 C 121.01 179.46 118.66 179.83 116.32 180.21 C 111.83 188.47 109.84 197.08 103.96 204.65 C 99.90 206.64 96.27 209.22 92.63 211.87 C 90.98 213.05 89.43 214.37 87.81 215.59 C 86.36 216.59 84.93 217.61 83.54 218.68 C 83.55 217.51 83.56 216.34 83.52 215.16 C 83.01 214.68 82.50 214.20 81.99 213.73 C 81.08 214.35 80.18 214.98 79.25 215.58 C 76.63 216.86 73.23 217.02 71.82 219.83 C 69.90 222.91 67.29 225.26 64.85 227.88 C 63.66 229.01 63.56 230.41 63.14 231.91 C 66.78 230.09 70.44 228.67 74.24 227.26 C 75.92 226.59 77.65 226.09 79.39 225.59 C 77.19 228.20 75.01 230.84 72.86 233.50 C 75.42 232.88 78.04 232.37 80.51 231.47 C 82.94 230.27 84.95 227.91 87.00 226.14 C 88.33 225.56 89.68 225.05 91.13 224.89 C 89.67 226.70 88.20 228.52 86.76 230.36 C 90.06 228.97 93.52 228.13 96.91 227.01 C 99.91 226.22 101.75 222.94 103.74 220.73 C 106.50 222.52 110.30 225.85 113.80 225.03 C 120.10 223.85 126.03 223.75 131.85 220.75 C 125.78 219.57 119.85 219.79 113.98 217.46 C 112.13 216.52 110.38 215.44 108.69 214.22 C 112.98 214.63 116.91 216.35 121.28 216.34 C 129.07 217.71 136.69 217.92 144.26 215.28 C 146.26 214.62 147.88 213.60 149.48 212.26 C 148.41 210.87 147.33 209.46 146.18 208.13 C 148.13 206.43 149.85 204.52 151.39 202.44 C 147.85 203.11 144.37 204.03 140.82 204.63 C 134.12 205.96 127.67 206.19 120.89 205.52 C 121.88 204.17 122.90 202.83 123.91 201.49 C 135.03 201.47 145.13 202.67 155.65 198.20 C 157.32 197.58 158.90 196.77 160.44 195.88 C 160.75 194.01 160.87 191.61 162.08 190.10 C 164.51 186.92 167.80 184.42 170.25 181.28 C 171.62 179.60 171.71 177.28 172.10 175.22 C 165.97 179.45 160.48 183.88 153.27 186.25 C 146.65 188.31 139.74 191.20 132.74 189.77 L 133.23 188.91 C 134.11 187.92 135.05 186.98 136.02 186.08 C 144.88 179.72 154.21 172.27 159.05 162.24 C 158.33 161.81 157.60 161.39 156.87 160.97 C 155.06 161.71 153.23 162.51 151.58 163.56 C 149.93 164.85 148.96 167.16 148.13 169.02 C 145.91 168.20 143.67 167.44 141.34 166.97 C 140.02 166.05 139.25 164.92 137.48 165.58 C 131.45 167.51 126.64 170.33 120.08 168.19 C 121.02 166.30 121.97 164.42 122.94 162.55 C 124.30 163.71 125.68 164.83 127.07 165.95 L 127.36 165.34 C 131.10 160.56 133.56 155.06 137.09 150.09 C 140.01 145.61 143.57 141.68 147.19 137.76 C 147.22 139.93 147.24 142.11 147.33 144.28 C 150.18 143.18 151.98 141.13 153.96 138.93 C 154.21 141.67 154.38 144.44 154.74 147.17 C 155.51 150.77 156.63 154.47 158.18 157.81 C 160.00 161.66 163.04 164.43 166.55 166.72 C 168.14 167.87 169.57 169.11 171.08 170.36 C 172.24 169.78 173.39 169.20 174.54 168.61 C 174.46 166.78 174.37 164.96 174.37 163.12 C 174.71 161.38 175.02 159.46 175.85 157.87 C 177.26 155.48 179.77 154.09 182.03 152.63 C 184.60 155.61 184.28 158.32 184.14 162.01 C 181.78 164.82 181.22 166.00 182.19 169.69 C 182.57 172.97 182.52 175.88 181.97 179.12 C 181.23 181.66 183.98 183.83 185.63 185.38 C 187.64 187.31 189.77 187.92 192.49 188.25 C 190.24 184.63 186.88 182.53 185.12 178.81 C 185.87 179.69 186.66 180.54 187.43 181.42 C 191.30 185.64 194.80 189.64 200.89 190.19 C 199.44 188.51 197.42 187.20 197.05 184.90 C 196.24 180.59 193.17 178.12 191.08 174.10 C 188.85 170.29 188.50 166.33 187.81 162.08 C 187.39 156.73 187.88 151.43 188.78 146.16 C 189.21 145.31 189.63 144.46 190.06 143.60 C 192.47 150.54 193.55 157.82 195.75 164.83 C 195.53 170.22 197.50 174.21 200.47 178.49 C 204.40 186.80 208.14 195.14 213.02 202.97 C 217.27 210.06 221.70 217.61 227.14 223.86 C 229.80 226.94 230.60 230.79 233.91 233.41 C 232.88 229.28 231.95 225.15 230.97 221.01 C 228.65 215.26 226.61 209.25 225.14 203.22 C 226.13 201.49 228.46 202.70 230.10 202.64 C 225.63 193.91 223.82 184.57 221.71 175.09 C 221.20 173.18 220.48 171.30 219.81 169.44 C 221.07 169.58 222.32 169.73 223.57 169.84 C 224.20 169.89 224.83 169.94 225.45 169.98 C 225.59 165.63 225.12 161.33 224.95 156.99 C 225.03 150.22 224.56 143.48 224.64 136.72 C 227.79 141.44 230.42 146.44 233.79 151.02 C 230.98 138.62 228.55 126.17 225.36 113.86 C 225.00 105.32 221.44 98.21 217.32 90.94 C 220.95 93.26 224.56 95.51 228.59 97.08 L 227.67 95.50 C 229.12 95.52 230.56 95.63 232.01 95.75 C 228.15 92.54 225.99 88.00 222.05 84.94 C 217.77 81.53 213.34 78.27 208.83 75.16 C 199.72 67.78 191.38 59.45 182.31 52.00 C 187.75 57.83 194.00 62.79 199.40 68.67 C 197.53 69.20 195.13 70.36 193.15 69.97 C 191.75 69.12 190.71 67.57 189.54 66.44 C 182.49 59.27 174.63 54.28 166.37 48.61 C 165.83 49.15 165.30 49.69 164.77 50.24 C 161.90 46.45 161.59 41.57 158.43 38.11 C 158.29 40.90 159.38 43.03 156.65 44.88 C 156.83 45.86 157.01 46.84 157.23 47.81 C 157.83 50.59 158.62 53.30 159.54 55.99 C 158.20 53.42 156.69 50.96 155.24 48.45 C 154.67 43.78 154.77 39.12 153.75 34.49 C 152.59 34.90 151.43 35.32 150.27 35.74 C 149.66 35.13 149.03 34.56 148.38 34.01 C 149.76 31.92 151.02 29.41 152.93 27.76 C 157.67 25.63 160.85 28.10 165.42 29.03 C 161.63 25.69 156.54 23.68 151.85 21.95 C 146.75 20.85 143.11 23.94 140.06 27.57 C 142.29 30.43 142.15 33.51 142.99 36.83 C 144.84 39.70 148.49 42.13 149.56 45.38 C 150.07 49.54 149.80 53.84 149.86 58.04 C 149.62 64.31 148.97 71.73 144.69 76.67 C 140.68 81.66 136.28 86.36 131.84 90.97 C 128.18 94.50 124.26 97.73 120.44 101.10 C 116.36 102.32 112.37 105.10 108.10 105.12 C 107.80 103.56 107.54 101.99 107.29 100.42 C 102.75 103.97 99.19 108.05 98.47 114.00 C 98.73 117.51 101.15 119.15 103.69 121.09 C 105.15 120.10 106.62 118.89 108.27 118.25 C 110.66 117.74 113.19 117.76 115.63 117.57 C 115.73 116.74 115.82 115.91 115.90 115.07 C 113.34 112.87 111.05 112.27 107.77 111.89 C 108.09 112.90 108.40 113.90 108.72 114.91 C 107.20 115.60 105.69 116.31 104.17 117.00 C 103.64 116.01 103.10 115.01 102.57 114.02 C 103.55 112.89 104.46 111.54 105.69 110.67 C 108.79 109.41 112.31 109.00 115.61 108.57 C 119.01 108.16 121.88 109.15 125.20 108.25 C 130.96 106.63 135.79 103.83 140.94 100.93 C 145.88 98.07 151.92 97.59 157.43 98.74 C 161.30 100.27 164.47 103.63 167.29 106.58 C 169.19 106.19 171.50 105.22 173.43 105.64 C 175.34 106.92 176.87 108.76 178.69 110.20 C 179.00 108.49 179.28 106.78 179.55 105.07 C 180.58 107.62 181.67 110.14 182.79 112.65 C 183.52 114.45 184.11 116.28 184.72 118.11 C 185.26 119.69 185.82 121.26 186.30 122.86 L 186.12 124.46 C 181.72 122.76 177.70 120.44 173.70 117.97 C 177.00 116.99 180.12 115.65 183.01 113.78 C 179.23 112.15 175.57 112.80 171.62 112.14 C 169.25 111.79 167.00 111.01 164.82 110.05 C 161.93 107.98 159.21 105.05 155.65 104.32 C 144.78 102.10 133.55 105.31 124.60 111.61 C 119.26 115.47 115.07 120.88 109.90 124.86 C 106.88 127.18 103.35 127.42 99.74 128.10 C 100.06 128.89 100.38 129.69 100.70 130.48 C 98.57 130.07 96.45 129.67 94.32 129.28 C 94.53 126.99 94.73 124.70 94.92 122.40 C 93.07 121.00 91.25 119.58 89.44 118.14 C 89.87 115.32 90.22 112.50 90.58 109.68 C 90.74 108.83 90.91 107.98 91.09 107.13 C 93.19 102.53 95.95 98.35 98.50 94.01 C 97.81 93.12 97.10 92.24 96.39 91.37 C 96.70 89.86 96.98 88.35 97.25 86.83 C 97.56 84.93 97.83 83.03 98.01 81.11 C 100.39 79.57 102.75 78.78 104.46 76.43 C 107.91 71.89 111.53 67.60 115.92 63.92 C 118.28 61.97 121.99 62.46 124.27 61.22 C 127.09 57.98 128.26 53.45 130.65 49.83 C 129.43 50.84 128.23 51.86 127.08 52.94 C 126.38 51.45 126.22 50.05 126.20 48.42 C 123.70 47.64 121.19 46.88 118.69 46.08 C 119.84 45.45 120.99 44.81 122.16 44.23 C 128.16 44.11 131.62 48.03 136.22 51.11 C 133.99 46.05 130.74 42.27 126.20 39.14 C 124.62 40.53 123.35 42.70 121.01 42.64 C 115.52 43.14 109.07 43.44 103.93 41.11 C 98.78 38.97 93.30 37.55 87.79 36.73 C 85.18 37.20 82.74 38.35 80.06 38.60 C 74.59 39.03 70.07 37.38 64.78 36.65 C 71.57 39.42 80.09 39.30 86.26 43.23 L 84.49 43.82 C 80.11 41.99 77.01 41.65 72.27 42.08 C 69.09 42.00 65.76 41.97 62.65 41.23 C 56.51 39.27 51.90 34.68 49.17 28.92 L 49.06 28.22 C 49.22 26.55 49.45 24.89 49.66 23.22 C 56.33 26.25 63.39 28.20 70.59 29.45 C 75.85 30.29 80.91 28.56 86.16 28.20 C 98.59 27.50 111.70 33.39 123.93 31.88 C 129.92 31.11 132.83 26.60 136.35 22.33 C 139.11 18.68 143.08 16.60 147.43 15.46 C 153.23 13.55 158.86 17.77 165.15 17.91 C 174.28 18.87 180.70 12.90 189.74 14.23 Z" fill="#f2f2f2" />
<path d="M 151.85 21.95 C 156.54 23.68 161.63 25.69 165.42 29.03 C 160.85 28.10 157.67 25.63 152.93 27.76 C 151.02 29.41 149.76 31.92 148.38 34.01 C 149.03 34.56 149.66 35.13 150.27 35.74 C 151.43 35.32 152.59 34.90 153.75 34.49 C 154.77 39.12 154.67 43.78 155.24 48.45 C 153.79 55.28 153.69 62.01 151.51 68.49 C 149.12 76.87 140.96 83.65 135.12 89.89 C 134.00 90.54 132.87 91.19 131.74 91.83 L 131.84 90.97 C 136.28 86.36 140.68 81.66 144.69 76.67 C 148.97 71.73 149.62 64.31 149.86 58.04 C 149.80 53.84 150.07 49.54 149.56 45.38 C 148.49 42.13 144.84 39.70 142.99 36.83 C 142.15 33.51 142.29 30.43 140.06 27.57 C 143.11 23.94 146.75 20.85 151.85 21.95 Z" fill="#3b1a27" />
<path d="M 177.76 22.10 C 183.32 22.31 189.27 22.62 194.55 24.48 C 197.19 25.40 199.92 25.88 202.67 26.33 C 203.67 28.02 204.58 29.76 205.61 31.44 C 207.83 35.07 212.13 36.16 213.51 40.41 C 215.87 46.91 219.37 53.20 221.17 59.86 C 221.14 60.89 221.10 61.93 221.05 62.97 C 219.01 59.01 218.50 55.05 214.77 52.34 C 211.23 49.75 210.71 46.04 208.33 42.64 C 206.79 40.70 203.79 39.86 201.40 39.79 C 199.30 39.75 197.23 39.84 195.14 39.92 C 195.93 39.02 196.71 38.12 197.51 37.23 L 196.83 37.18 C 197.39 36.73 197.95 36.28 198.52 35.83 C 197.71 34.27 196.92 32.70 196.04 31.18 C 190.25 27.48 183.60 25.65 177.76 22.10 Z" fill="#575252" />
<path d="M 43.75 23.53 C 44.77 28.53 45.21 33.61 46.22 38.61 L 47.62 37.71 C 49.14 44.23 52.35 50.21 57.85 54.19 C 58.50 53.47 59.16 52.75 59.82 52.04 C 63.62 52.52 67.34 52.92 71.19 52.86 C 70.16 54.15 69.08 55.39 68.02 56.65 L 69.00 57.81 C 69.70 58.51 70.44 59.18 71.20 59.82 C 69.44 58.81 67.78 57.49 65.90 56.71 C 63.86 56.30 61.72 56.28 59.65 56.27 C 63.37 60.54 70.17 62.34 75.35 64.21 C 72.95 65.88 70.55 67.42 68.00 68.85 C 66.09 66.58 64.42 63.78 62.06 62.00 C 53.92 57.55 45.73 52.37 39.25 45.67 C 36.47 41.11 34.17 36.20 31.05 31.87 C 29.56 34.09 28.18 36.05 28.56 38.90 C 29.27 40.45 30.22 41.78 31.03 43.27 C 31.17 44.37 31.30 45.48 31.41 46.58 C 29.69 46.00 27.98 45.40 26.27 44.82 C 26.85 46.14 27.43 47.47 28.01 48.79 C 26.61 48.24 25.23 47.63 23.83 47.06 C 26.43 50.74 31.65 52.99 32.40 57.41 C 30.68 56.18 28.91 55.01 27.12 53.89 C 27.37 55.17 27.63 56.45 27.90 57.73 C 26.54 57.16 25.19 56.59 23.81 56.07 C 25.41 57.74 27.13 59.29 28.87 60.82 C 27.52 60.53 26.18 60.24 24.83 59.97 C 25.60 60.73 26.39 61.47 27.19 62.19 C 26.66 62.95 26.14 63.70 25.61 64.46 C 24.22 64.19 22.83 63.93 21.45 63.68 C 22.60 64.55 23.77 65.40 24.97 66.20 C 26.38 68.67 26.37 71.29 27.07 73.95 C 28.95 76.76 32.39 78.66 34.88 80.97 C 32.67 79.98 30.52 78.85 28.37 77.75 C 28.41 79.39 28.37 81.06 28.59 82.69 C 29.88 84.12 31.81 85.04 33.49 85.93 C 34.25 86.84 35.04 87.71 35.87 88.56 C 37.12 90.90 37.88 93.51 39.22 95.78 C 40.96 97.23 43.63 97.68 45.75 98.40 C 46.58 98.80 47.41 99.22 48.22 99.65 C 45.41 100.59 42.75 101.61 40.36 103.41 C 38.04 105.03 36.56 107.03 33.59 107.41 C 34.54 102.59 35.77 97.82 36.61 92.98 C 32.24 99.47 31.81 108.71 30.02 116.22 C 29.75 117.26 29.49 118.30 29.24 119.35 C 28.60 121.41 28.96 123.24 29.44 125.28 C 29.39 125.88 29.34 126.48 29.29 127.08 L 28.14 125.90 C 24.53 143.17 25.59 160.97 22.32 178.10 C 21.81 183.66 21.07 189.89 22.56 195.33 C 23.97 200.71 24.47 206.19 24.86 211.72 C 24.45 213.81 23.93 215.87 23.41 217.93 C 18.29 213.42 15.64 207.32 14.16 200.78 C 12.38 193.27 13.09 185.72 13.01 178.00 C 13.12 169.38 12.50 161.37 13.70 152.83 C 15.23 142.22 16.68 131.63 19.15 121.19 C 20.63 113.80 23.41 106.18 23.63 98.77 C 23.81 93.60 21.70 88.85 19.94 84.10 C 17.66 78.17 15.75 72.25 15.19 65.87 C 14.47 57.68 15.14 49.27 17.28 41.33 C 18.48 36.95 20.51 32.96 24.27 30.25 C 29.95 26.31 36.87 24.02 43.75 23.53 Z" fill="#f4f4f3" />
<path d="M 46.43 22.67 C 47.46 24.46 48.32 26.29 49.06 28.22 L 49.17 28.92 C 49.45 33.02 51.64 35.93 53.72 39.31 C 54.86 40.97 56.11 43.01 57.85 44.08 C 59.05 44.45 60.35 44.62 61.59 44.84 C 63.74 45.22 65.67 45.82 67.57 46.89 C 69.57 48.10 71.64 48.51 73.91 48.87 C 72.39 49.26 70.86 49.78 69.30 49.96 C 67.36 49.82 65.29 49.04 63.36 49.25 C 61.95 49.81 60.87 50.97 59.82 52.04 C 59.16 52.75 58.50 53.47 57.85 54.19 C 52.35 50.21 49.14 44.23 47.62 37.71 C 46.66 32.74 46.37 27.73 46.43 22.67 Z" fill="#351620" />
<path d="M 172.18 23.77 C 177.58 25.76 181.55 29.14 186.47 31.97 C 188.33 33.54 190.19 35.64 192.42 36.65 C 193.84 37.00 195.37 37.07 196.83 37.18 L 197.51 37.23 C 196.71 38.12 195.93 39.02 195.14 39.92 C 197.23 39.84 199.30 39.75 201.40 39.79 C 200.18 40.84 199.00 41.94 197.77 42.99 C 195.43 44.41 192.90 45.42 190.28 46.22 C 186.91 42.92 184.75 39.53 182.65 35.34 C 180.17 30.25 175.74 27.90 172.18 23.77 Z" fill="#524c4f" />
<path d="M 49.17 28.92 C 51.90 34.68 56.51 39.27 62.65 41.23 C 65.76 41.97 69.09 42.00 72.27 42.08 C 68.51 42.49 64.91 42.86 61.59 44.84 C 60.35 44.62 59.05 44.45 57.85 44.08 C 56.11 43.01 54.86 40.97 53.72 39.31 C 51.64 35.93 49.45 33.02 49.17 28.92 Z" fill="#87574d" />
<path d="M 195.88 34.25 C 195.93 33.22 195.99 32.20 196.04 31.18 C 196.92 32.70 197.71 34.27 198.52 35.83 C 197.95 36.28 197.39 36.73 196.83 37.18 C 195.37 37.07 193.84 37.00 192.42 36.65 C 190.19 35.64 188.33 33.54 186.47 31.97 C 189.62 32.67 192.73 33.53 195.88 34.25 Z" fill="#968f8f" />
<path d="M 31.05 31.87 C 34.17 36.20 36.47 41.11 39.25 45.67 C 40.80 49.47 43.63 51.89 46.73 54.40 C 45.44 54.86 43.55 55.05 42.55 56.02 C 41.41 58.71 40.37 62.75 43.17 64.80 C 46.40 67.80 49.94 70.46 53.26 73.37 C 48.37 73.79 44.45 71.79 40.12 69.89 C 35.56 67.81 31.31 65.03 27.19 62.19 C 26.39 61.47 25.60 60.73 24.83 59.97 C 26.18 60.24 27.52 60.53 28.87 60.82 C 27.13 59.29 25.41 57.74 23.81 56.07 C 25.19 56.59 26.54 57.16 27.90 57.73 C 27.63 56.45 27.37 55.17 27.12 53.89 C 28.91 55.01 30.68 56.18 32.40 57.41 C 33.95 58.60 35.52 59.76 37.15 60.84 C 34.88 56.81 30.92 53.65 31.42 48.69 C 31.51 46.78 31.88 45.08 31.03 43.27 C 30.22 41.78 29.27 40.45 28.56 38.90 C 28.18 36.05 29.56 34.09 31.05 31.87 Z" fill="#ad2858" />
<path d="M 64.78 36.65 C 70.07 37.38 74.59 39.03 80.06 38.60 C 82.74 38.35 85.18 37.20 87.79 36.73 C 93.30 37.55 98.78 38.97 103.93 41.11 C 109.07 43.44 115.52 43.14 121.01 42.64 C 123.35 42.70 124.62 40.53 126.20 39.14 C 130.74 42.27 133.99 46.05 136.22 51.11 C 131.62 48.03 128.16 44.11 122.16 44.23 C 116.74 44.11 111.34 44.43 105.93 44.64 C 102.31 44.89 100.12 42.37 96.82 41.58 C 93.59 41.42 90.28 42.10 87.05 42.34 C 92.50 43.56 97.70 45.70 103.17 46.70 C 106.94 47.37 110.17 46.16 113.84 46.10 C 117.02 46.99 118.92 49.35 120.34 52.18 C 118.56 51.12 116.95 49.32 115.01 48.61 C 112.75 48.23 109.79 47.53 107.69 48.68 C 102.18 51.39 96.59 53.51 90.40 53.98 C 88.57 49.90 86.72 46.87 82.90 44.35 L 84.49 43.82 L 86.26 43.23 C 80.09 39.30 71.57 39.42 64.78 36.65 Z" fill="#40202a" />
<path d="M 158.43 38.11 C 161.59 41.57 161.90 46.45 164.77 50.24 L 165.22 51.00 C 164.48 51.12 163.75 51.24 163.02 51.36 C 161.42 50.04 159.57 46.71 157.23 47.81 C 157.01 46.84 156.83 45.86 156.65 44.88 C 159.38 43.03 158.29 40.90 158.43 38.11 Z" fill="#926976" />
<path d="M 201.40 39.79 C 203.79 39.86 206.79 40.70 208.33 42.64 C 210.71 46.04 211.23 49.75 214.77 52.34 C 218.50 55.05 219.01 59.01 221.05 62.97 C 221.10 61.93 221.14 60.89 221.17 59.86 C 222.55 65.04 222.11 70.04 222.88 75.30 C 223.30 78.24 223.51 81.18 223.58 84.15 C 220.85 76.81 219.95 69.57 216.57 62.41 C 214.44 57.85 211.46 54.10 208.25 50.26 C 206.88 48.04 207.88 45.24 206.63 43.18 C 204.03 43.24 201.38 43.84 198.90 44.60 C 198.52 44.06 198.15 43.53 197.77 42.99 C 199.00 41.94 200.18 40.84 201.40 39.79 Z" fill="#847a77" />
<path d="M 96.82 41.58 C 100.12 42.37 102.31 44.89 105.93 44.64 C 111.34 44.43 116.74 44.11 122.16 44.23 C 120.99 44.81 119.84 45.45 118.69 46.08 C 121.19 46.88 123.70 47.64 126.20 48.42 C 126.22 50.05 126.38 51.45 127.08 52.94 C 123.92 57.35 119.90 59.50 115.12 61.78 C 116.91 60.18 118.69 58.59 120.37 56.88 C 117.42 56.18 114.44 55.90 111.44 56.54 C 100.19 59.01 90.47 64.64 81.41 71.57 C 80.96 70.06 80.63 68.52 80.32 66.98 C 79.72 67.15 79.13 67.32 78.53 67.50 C 78.08 68.39 77.65 69.29 77.24 70.20 C 75.67 74.02 73.16 77.15 70.41 80.18 C 66.72 83.99 63.78 88.41 60.12 92.25 C 55.75 90.68 51.40 90.91 46.85 90.99 C 45.75 90.69 44.64 90.39 43.54 90.09 C 45.46 89.29 47.40 88.48 49.36 87.77 C 51.85 87.77 54.21 87.65 56.46 86.44 C 57.59 85.08 58.40 83.39 59.26 81.84 C 56.27 79.23 52.72 77.99 49.05 76.65 C 46.00 75.04 42.96 73.43 39.81 72.02 C 39.62 72.67 39.43 73.33 39.24 73.98 C 34.27 71.70 30.10 68.00 24.97 66.20 C 23.77 65.40 22.60 64.55 21.45 63.68 C 22.83 63.93 24.22 64.19 25.61 64.46 C 26.14 63.70 26.66 62.95 27.19 62.19 C 31.31 65.03 35.56 67.81 40.12 69.89 C 44.45 71.79 48.37 73.79 53.26 73.37 C 56.94 73.94 60.50 74.82 64.26 74.72 C 65.25 72.52 66.08 70.42 68.00 68.85 C 70.55 67.42 72.95 65.88 75.35 64.21 C 76.61 64.03 77.87 63.85 79.12 63.67 C 79.48 62.58 79.65 61.18 80.41 60.28 C 82.77 59.03 85.50 58.39 88.04 57.53 C 85.27 57.59 82.36 57.32 79.63 57.82 C 76.55 59.17 74.88 61.72 71.20 59.82 C 70.44 59.18 69.70 58.51 69.00 57.81 C 70.98 56.28 72.41 54.83 73.47 52.54 C 72.71 52.64 71.95 52.75 71.19 52.86 C 67.34 52.92 63.62 52.52 59.82 52.04 C 60.87 50.97 61.95 49.81 63.36 49.25 C 65.29 49.04 67.36 49.82 69.30 49.96 C 70.86 49.78 72.39 49.26 73.91 48.87 C 71.64 48.51 69.57 48.10 67.57 46.89 C 69.87 46.53 72.19 46.24 74.51 45.96 C 74.26 45.35 74.01 44.74 73.76 44.13 C 76.77 44.34 79.89 44.64 82.90 44.35 C 86.72 46.87 88.57 49.90 90.40 53.98 C 96.59 53.51 102.18 51.39 107.69 48.68 C 109.79 47.53 112.75 48.23 115.01 48.61 C 116.95 49.32 118.56 51.12 120.34 52.18 C 118.92 49.35 117.02 46.99 113.84 46.10 C 110.17 46.16 106.94 47.37 103.17 46.70 C 97.70 45.70 92.50 43.56 87.05 42.34 C 90.28 42.10 93.59 41.42 96.82 41.58 Z" fill="#e5dfdc" />
<path d="M 72.27 42.08 C 77.01 41.65 80.11 41.99 84.49 43.82 L 82.90 44.35 C 79.89 44.64 76.77 44.34 73.76 44.13 C 74.01 44.74 74.26 45.35 74.51 45.96 C 72.19 46.24 69.87 46.53 67.57 46.89 C 65.67 45.82 63.74 45.22 61.59 44.84 C 64.91 42.86 68.51 42.49 72.27 42.08 Z" fill="#b59186" />
<path d="M 31.03 43.27 C 31.88 45.08 31.51 46.78 31.42 48.69 C 30.28 48.75 29.16 48.82 28.01 48.79 C 27.43 47.47 26.85 46.14 26.27 44.82 C 27.98 45.40 29.69 46.00 31.41 46.58 C 31.30 45.48 31.17 44.37 31.03 43.27 Z" fill="#dfb8c7" />
<path d="M 206.63 43.18 C 207.88 45.24 206.88 48.04 208.25 50.26 C 206.84 49.26 205.90 48.02 204.01 48.22 C 200.58 48.40 197.25 48.32 193.84 47.91 C 195.45 46.69 197.11 45.55 198.90 44.60 C 201.38 43.84 204.03 43.24 206.63 43.18 Z" fill="#504949" />
<path d="M 39.25 45.67 C 45.73 52.37 53.92 57.55 62.06 62.00 C 64.42 63.78 66.09 66.58 68.00 68.85 C 66.08 70.42 65.25 72.52 64.26 74.72 C 60.50 74.82 56.94 73.94 53.26 73.37 C 49.94 70.46 46.40 67.80 43.17 64.80 C 40.37 62.75 41.41 58.71 42.55 56.02 C 43.55 55.05 45.44 54.86 46.73 54.40 C 43.63 51.89 40.80 49.47 39.25 45.67 Z" fill="#821e43" />
<path d="M 91.22 46.06 C 94.49 46.51 97.50 47.68 100.48 49.04 C 97.73 49.86 95.00 50.33 92.15 50.55 C 91.81 49.05 91.48 47.57 91.22 46.06 Z" fill="#ba343f" />
<path d="M 23.83 47.06 C 25.23 47.63 26.61 48.24 28.01 48.79 C 29.16 48.82 30.28 48.75 31.42 48.69 C 30.92 53.65 34.88 56.81 37.15 60.84 C 35.52 59.76 33.95 58.60 32.40 57.41 C 31.65 52.99 26.43 50.74 23.83 47.06 Z" fill="#ce85a0" />
<path d="M 163.02 51.36 C 163.75 51.24 164.48 51.12 165.22 51.00 C 169.37 57.74 172.96 64.59 176.15 71.84 C 174.79 71.65 173.43 71.46 172.07 71.29 C 173.59 74.77 175.15 78.16 175.90 81.91 C 176.45 84.74 177.39 87.25 178.62 89.85 C 178.14 91.23 177.69 92.62 177.48 94.07 C 175.69 94.54 173.90 94.97 172.09 95.38 C 171.26 92.94 170.55 90.45 169.64 88.04 C 168.83 85.27 165.59 83.70 163.30 82.29 C 163.02 83.35 162.74 84.42 162.48 85.49 C 161.68 85.00 160.88 84.51 160.08 84.02 C 158.22 84.59 156.05 84.65 154.32 85.49 C 151.61 87.80 149.37 90.39 146.07 91.95 C 141.87 94.03 137.87 96.75 133.48 98.38 C 129.13 99.39 124.69 99.51 120.44 101.10 C 124.26 97.73 128.18 94.50 131.84 90.97 L 131.74 91.83 C 131.65 92.62 131.58 93.41 131.50 94.21 C 133.49 93.06 135.31 91.80 137.04 90.29 L 135.12 89.89 C 140.96 83.65 149.12 76.87 151.51 68.49 C 153.69 62.01 153.79 55.28 155.24 48.45 C 156.69 50.96 158.20 53.42 159.54 55.99 C 158.62 53.30 157.83 50.59 157.23 47.81 C 159.57 46.71 161.42 50.04 163.02 51.36 Z" fill="#871f46" />
<path d="M 166.37 48.61 C 174.63 54.28 182.49 59.27 189.54 66.44 C 190.71 67.57 191.75 69.12 193.15 69.97 C 195.13 70.36 197.53 69.20 199.40 68.67 C 201.38 70.55 203.35 72.44 205.36 74.29 C 202.23 75.43 200.77 75.56 197.63 74.48 C 197.64 73.33 197.65 72.17 197.63 71.02 C 196.36 71.66 195.12 72.34 193.88 73.02 C 195.13 76.01 196.04 77.52 199.07 78.91 C 203.44 88.21 207.94 97.39 211.81 106.92 C 206.92 100.88 204.32 93.34 199.04 87.73 C 199.93 93.00 202.12 97.74 204.56 102.45 C 207.51 108.07 209.43 114.09 210.79 120.26 C 207.03 116.28 206.00 111.47 203.35 106.82 C 203.95 110.44 204.31 114.20 205.38 117.71 C 206.63 121.07 208.40 124.20 209.49 127.64 C 210.86 131.59 210.96 135.51 212.62 139.33 C 213.70 141.83 214.83 144.36 216.29 146.66 C 217.18 148.68 219.81 147.58 221.49 147.60 C 221.00 151.91 219.87 155.52 223.35 158.92 C 223.89 158.28 224.42 157.63 224.95 156.99 C 225.12 161.33 225.59 165.63 225.45 169.98 C 224.83 169.94 224.20 169.89 223.57 169.84 C 216.69 155.56 210.89 140.85 204.64 126.28 C 202.61 121.63 201.25 116.76 199.32 112.07 C 201.33 122.30 205.47 132.31 208.58 142.29 C 211.40 149.38 213.20 156.75 215.77 163.93 C 214.26 161.15 213.14 158.19 211.64 155.41 C 210.17 152.66 207.99 150.43 206.56 147.64 C 202.95 140.58 198.83 133.90 195.90 126.50 C 195.15 123.29 194.12 120.22 192.75 117.22 C 189.88 110.94 187.32 104.63 185.51 97.95 C 183.73 88.93 180.00 80.16 176.15 71.84 C 172.96 64.59 169.37 57.74 165.22 51.00 L 164.77 50.24 C 165.30 49.69 165.83 49.15 166.37 48.61 Z" fill="#e8e4e0" />
<path d="M 130.65 49.83 C 128.26 53.45 127.09 57.98 124.27 61.22 C 121.99 62.46 118.28 61.97 115.92 63.92 C 111.53 67.60 107.91 71.89 104.46 76.43 C 102.75 78.78 100.39 79.57 98.01 81.11 C 98.06 80.26 98.09 79.41 98.12 78.56 C 99.82 76.74 101.13 74.89 102.09 72.57 C 100.17 73.97 98.95 75.31 98.15 77.58 C 96.20 76.94 94.25 76.29 92.30 75.62 C 90.80 76.53 89.33 77.50 87.85 78.43 C 87.01 78.18 86.17 77.93 85.32 77.70 C 85.00 77.12 84.68 76.54 84.35 75.96 C 86.76 73.74 89.08 71.45 91.14 68.89 C 85.07 71.52 81.21 76.29 76.04 80.09 C 74.17 81.65 72.49 80.54 70.41 80.18 C 73.16 77.15 75.67 74.02 77.24 70.20 C 78.63 70.64 80.02 71.11 81.41 71.57 C 90.47 64.64 100.19 59.01 111.44 56.54 C 114.44 55.90 117.42 56.18 120.37 56.88 C 118.69 58.59 116.91 60.18 115.12 61.78 C 119.90 59.50 123.92 57.35 127.08 52.94 C 128.23 51.86 129.43 50.84 130.65 49.83 Z" fill="#3e1d2c" />
<path d="M 73.47 52.54 C 72.41 54.83 70.98 56.28 69.00 57.81 L 68.02 56.65 C 69.08 55.39 70.16 54.15 71.19 52.86 C 71.95 52.75 72.71 52.64 73.47 52.54 Z" fill="#5d5455" />
<path d="M 182.31 52.00 C 191.38 59.45 199.72 67.78 208.83 75.16 C 213.34 78.27 217.77 81.53 222.05 84.94 C 225.99 88.00 228.15 92.54 232.01 95.75 C 230.56 95.63 229.12 95.52 227.67 95.50 C 219.04 89.48 213.15 81.17 205.36 74.29 C 203.35 72.44 201.38 70.55 199.40 68.67 C 194.00 62.79 187.75 57.83 182.31 52.00 Z" fill="#341b24" />
<path d="M 59.65 56.27 C 61.72 56.28 63.86 56.30 65.90 56.71 C 67.78 57.49 69.44 58.81 71.20 59.82 C 74.88 61.72 76.55 59.17 79.63 57.82 C 82.36 57.32 85.27 57.59 88.04 57.53 C 85.50 58.39 82.77 59.03 80.41 60.28 C 79.65 61.18 79.48 62.58 79.12 63.67 C 77.87 63.85 76.61 64.03 75.35 64.21 C 70.17 62.34 63.37 60.54 59.65 56.27 Z" fill="#493539" />
<path d="M 39.24 73.98 C 39.43 73.33 39.62 72.67 39.81 72.02 C 42.96 73.43 46.00 75.04 49.05 76.65 C 47.99 79.45 47.42 82.35 47.01 85.31 C 46.33 85.94 45.65 86.56 44.96 87.18 C 41.08 87.09 37.30 86.72 33.49 85.93 C 31.81 85.04 29.88 84.12 28.59 82.69 C 28.37 81.06 28.41 79.39 28.37 77.75 C 30.52 78.85 32.67 79.98 34.88 80.97 C 32.39 78.66 28.95 76.76 27.07 73.95 C 26.37 71.29 26.38 68.67 24.97 66.20 C 30.10 68.00 34.27 71.70 39.24 73.98 Z" fill="#ab2858" />
<path d="M 78.53 67.50 C 79.13 67.32 79.72 67.15 80.32 66.98 C 80.63 68.52 80.96 70.06 81.41 71.57 C 80.02 71.11 78.63 70.64 77.24 70.20 C 77.65 69.29 78.08 68.39 78.53 67.50 Z" fill="#7c6d72" />
<path d="M 91.14 68.89 C 89.08 71.45 86.76 73.74 84.35 75.96 C 84.68 76.54 85.00 77.12 85.32 77.70 C 86.17 77.93 87.01 78.18 87.85 78.43 C 85.98 79.22 84.25 78.81 82.30 78.96 C 80.63 79.46 79.14 80.61 77.54 81.33 C 75.11 82.51 72.61 82.74 70.60 84.56 C 67.60 87.24 64.81 90.15 61.73 92.75 C 61.19 92.58 60.66 92.41 60.12 92.25 C 63.78 88.41 66.72 83.99 70.41 80.18 C 72.49 80.54 74.17 81.65 76.04 80.09 C 81.21 76.29 85.07 71.52 91.14 68.89 Z" fill="#5f4750" />
<path d="M 152.90 70.30 L 155.08 70.26 C 154.67 72.22 155.30 74.09 153.15 75.08 C 153.04 73.49 152.97 71.89 152.90 70.30 Z" fill="#aa4a6f" />
<path d="M 172.07 71.29 C 173.43 71.46 174.79 71.65 176.15 71.84 C 180.00 80.16 183.73 88.93 185.51 97.95 C 184.48 96.19 183.32 94.56 181.70 93.29 L 180.28 94.17 C 180.82 97.60 181.71 100.98 182.66 104.31 C 180.91 100.91 179.05 97.58 177.48 94.07 C 177.69 92.62 178.14 91.23 178.62 89.85 C 177.39 87.25 176.45 84.74 175.90 81.91 C 175.15 78.16 173.59 74.77 172.07 71.29 Z" fill="#7c4658" />
<path d="M 197.63 71.02 C 197.65 72.17 197.64 73.33 197.63 74.48 C 200.77 75.56 202.23 75.43 205.36 74.29 C 213.15 81.17 219.04 89.48 227.67 95.50 L 228.59 97.08 C 224.56 95.51 220.95 93.26 217.32 90.94 C 221.44 98.21 225.00 105.32 225.36 113.86 C 225.03 115.62 224.59 117.38 224.17 119.12 C 221.51 115.53 219.96 112.26 218.81 107.94 C 217.76 103.79 215.20 100.38 214.44 96.21 C 214.09 94.41 213.76 92.60 213.36 90.81 C 212.61 90.87 211.85 90.93 211.10 90.99 C 210.79 88.92 210.80 86.43 209.83 84.55 C 205.89 83.24 202.69 80.85 199.07 78.91 C 196.04 77.52 195.13 76.01 193.88 73.02 C 195.12 72.34 196.36 71.66 197.63 71.02 Z" fill="#b9aaaa" />
<path d="M 102.09 72.57 C 101.13 74.89 99.82 76.74 98.12 78.56 L 98.15 77.58 C 98.95 75.31 100.17 73.97 102.09 72.57 Z" fill="#a2848e" />
<path d="M 98.15 77.58 L 98.12 78.56 C 98.09 79.41 98.06 80.26 98.01 81.11 C 97.83 83.03 97.56 84.93 97.25 86.83 C 95.04 86.57 91.92 85.51 89.96 86.88 C 85.33 89.87 81.76 93.84 80.92 99.47 C 82.03 99.54 83.13 99.62 84.23 99.70 C 82.55 102.87 81.14 104.76 77.58 105.92 C 73.76 106.82 70.35 108.54 66.84 110.22 L 66.16 109.86 C 69.23 105.42 72.30 100.90 75.74 96.74 C 80.74 91.52 86.81 87.09 91.50 81.54 C 92.93 80.03 92.36 77.52 92.30 75.62 C 94.25 76.29 96.20 76.94 98.15 77.58 Z" fill="#c43b6f" />
<path d="M 92.30 75.62 C 92.36 77.52 92.93 80.03 91.50 81.54 C 86.81 87.09 80.74 91.52 75.74 96.74 C 72.30 100.90 69.23 105.42 66.16 109.86 L 66.84 110.22 C 67.84 110.79 68.82 111.38 69.82 111.93 C 68.36 111.97 65.75 111.42 64.81 112.80 C 59.99 118.62 57.79 126.27 52.26 131.82 C 51.14 131.17 49.99 130.57 48.82 130.02 C 46.67 132.17 45.12 134.59 45.33 137.75 C 45.28 139.34 46.76 140.40 47.67 141.55 C 46.79 144.07 46.14 146.67 45.27 149.19 C 44.44 148.40 43.60 147.61 42.76 146.82 C 41.66 148.97 40.54 151.11 39.42 153.24 C 39.45 149.69 39.28 146.18 39.01 142.64 C 38.61 137.89 41.89 134.12 41.31 129.19 C 45.44 124.73 49.63 120.33 53.93 116.04 C 50.99 116.93 47.21 119.02 44.14 118.12 C 48.82 113.23 52.32 107.95 55.82 102.20 C 61.16 102.76 63.36 98.56 66.67 95.22 C 64.99 95.05 63.32 94.88 61.64 94.72 C 61.67 94.06 61.70 93.41 61.73 92.75 C 64.81 90.15 67.60 87.24 70.60 84.56 C 72.61 82.74 75.11 82.51 77.54 81.33 C 79.14 80.61 80.63 79.46 82.30 78.96 C 84.25 78.81 85.98 79.22 87.85 78.43 C 89.33 77.50 90.80 76.53 92.30 75.62 Z" fill="#e4768b" />
<path d="M 49.05 76.65 C 52.72 77.99 56.27 79.23 59.26 81.84 C 58.40 83.39 57.59 85.08 56.46 86.44 C 54.21 87.65 51.85 87.77 49.36 87.77 C 47.89 87.57 46.44 87.33 44.96 87.18 C 45.65 86.56 46.33 85.94 47.01 85.31 C 47.42 82.35 47.99 79.45 49.05 76.65 Z" fill="#791f3f" />
<path d="M 199.07 78.91 C 202.69 80.85 205.89 83.24 209.83 84.55 C 210.80 86.43 210.79 88.92 211.10 90.99 C 211.85 90.93 212.61 90.87 213.36 90.81 C 213.76 92.60 214.09 94.41 214.44 96.21 C 215.20 100.38 217.76 103.79 218.81 107.94 C 219.96 112.26 221.51 115.53 224.17 119.12 C 224.59 117.38 225.03 115.62 225.36 113.86 C 228.55 126.17 230.98 138.62 233.79 151.02 C 230.42 146.44 227.79 141.44 224.64 136.72 C 224.56 143.48 225.03 150.22 224.95 156.99 C 224.42 157.63 223.89 158.28 223.35 158.92 C 219.87 155.52 221.00 151.91 221.49 147.60 C 219.81 147.58 217.18 148.68 216.29 146.66 C 214.83 144.36 213.70 141.83 212.62 139.33 C 210.96 135.51 210.86 131.59 209.49 127.64 C 208.40 124.20 206.63 121.07 205.38 117.71 C 204.31 114.20 203.95 110.44 203.35 106.82 C 206.00 111.47 207.03 116.28 210.79 120.26 C 209.43 114.09 207.51 108.07 204.56 102.45 C 202.12 97.74 199.93 93.00 199.04 87.73 C 204.32 93.34 206.92 100.88 211.81 106.92 C 207.94 97.39 203.44 88.21 199.07 78.91 Z" fill="#c5b8b5" />
<path d="M 100.15 81.31 C 101.83 81.55 101.43 83.84 99.95 84.07 C 98.25 83.84 98.65 81.52 100.15 81.31 Z" fill="#9b9495" />
<path d="M 163.30 82.29 C 165.59 83.70 168.83 85.27 169.64 88.04 C 170.55 90.45 171.26 92.94 172.09 95.38 C 173.90 94.97 175.69 94.54 177.48 94.07 C 179.05 97.58 180.91 100.91 182.66 104.31 C 183.47 106.59 184.25 108.88 185.09 111.15 C 184.33 111.65 183.56 112.16 182.79 112.65 C 181.67 110.14 180.58 107.62 179.55 105.07 C 179.28 106.78 179.00 108.49 178.69 110.20 C 176.87 108.76 175.34 106.92 173.43 105.64 C 171.50 105.22 169.19 106.19 167.29 106.58 C 164.47 103.63 161.30 100.27 157.43 98.74 C 151.92 97.59 145.88 98.07 140.94 100.93 C 135.79 103.83 130.96 106.63 125.20 108.25 C 121.88 109.15 119.01 108.16 115.61 108.57 C 112.31 109.00 108.79 109.41 105.69 110.67 C 104.46 111.54 103.55 112.89 102.57 114.02 C 103.10 115.01 103.64 116.01 104.17 117.00 C 105.69 116.31 107.20 115.60 108.72 114.91 C 108.40 113.90 108.09 112.90 107.77 111.89 C 111.05 112.27 113.34 112.87 115.90 115.07 C 115.82 115.91 115.73 116.74 115.63 117.57 C 113.19 117.76 110.66 117.74 108.27 118.25 C 106.62 118.89 105.15 120.10 103.69 121.09 C 101.15 119.15 98.73 117.51 98.47 114.00 C 99.19 108.05 102.75 103.97 107.29 100.42 C 107.54 101.99 107.80 103.56 108.10 105.12 C 112.37 105.10 116.36 102.32 120.44 101.10 C 124.69 99.51 129.13 99.39 133.48 98.38 C 137.87 96.75 141.87 94.03 146.07 91.95 C 149.37 90.39 151.61 87.80 154.32 85.49 C 156.05 84.65 158.22 84.59 160.08 84.02 C 160.88 84.51 161.68 85.00 162.48 85.49 C 162.74 84.42 163.02 83.35 163.30 82.29 Z" fill="#a52755" />
<path d="M 33.49 85.93 C 37.30 86.72 41.08 87.09 44.96 87.18 C 46.44 87.33 47.89 87.57 49.36 87.77 C 47.40 88.48 45.46 89.29 43.54 90.09 C 41.01 89.41 38.45 89.00 35.87 88.56 C 35.04 87.71 34.25 86.84 33.49 85.93 Z" fill="#ce9caa" />
<path d="M 97.25 86.83 C 96.98 88.35 96.70 89.86 96.39 91.37 C 94.00 91.71 92.50 91.83 91.37 94.22 C 88.88 99.34 83.53 101.37 81.29 106.76 C 80.06 106.47 78.82 106.19 77.58 105.92 C 81.14 104.76 82.55 102.87 84.23 99.70 C 83.13 99.62 82.03 99.54 80.92 99.47 C 81.76 93.84 85.33 89.87 89.96 86.88 C 91.92 85.51 95.04 86.57 97.25 86.83 Z" fill="#a54066" />
<path d="M 43.54 90.09 C 44.64 90.39 45.75 90.69 46.85 90.99 C 49.23 91.95 51.58 93.08 53.89 94.20 C 53.83 95.05 53.81 95.91 53.81 96.76 C 51.15 97.42 48.47 98.02 45.75 98.40 C 43.63 97.68 40.96 97.23 39.22 95.78 C 37.88 93.51 37.12 90.90 35.87 88.56 C 38.45 89.00 41.01 89.41 43.54 90.09 Z" fill="#a72556" />
<path d="M 135.12 89.89 L 137.04 90.29 C 135.31 91.80 133.49 93.06 131.50 94.21 C 131.58 93.41 131.65 92.62 131.74 91.83 C 132.87 91.19 134.00 90.54 135.12 89.89 Z" fill="#ab5a78" />
<path d="M 46.85 90.99 C 51.40 90.91 55.75 90.68 60.12 92.25 C 60.66 92.41 61.19 92.58 61.73 92.75 C 61.70 93.41 61.67 94.06 61.64 94.72 C 63.32 94.88 64.99 95.05 66.67 95.22 C 63.36 98.56 61.16 102.76 55.82 102.20 C 54.96 100.97 54.09 99.75 53.20 98.54 C 51.54 98.89 49.87 99.24 48.22 99.65 C 47.41 99.22 46.58 98.80 45.75 98.40 C 48.47 98.02 51.15 97.42 53.81 96.76 C 53.81 95.91 53.83 95.05 53.89 94.20 C 51.58 93.08 49.23 91.95 46.85 90.99 Z" fill="#f6b2c2" />
<path d="M 96.39 91.37 C 97.10 92.24 97.81 93.12 98.50 94.01 C 95.95 98.35 93.19 102.53 91.09 107.13 C 87.88 110.81 84.67 113.89 83.63 118.90 C 83.02 121.00 82.47 123.12 81.93 125.25 C 81.60 126.58 81.25 127.90 80.89 129.21 C 80.20 127.64 79.59 126.04 78.98 124.43 C 76.06 131.59 75.68 139.09 73.57 146.46 C 72.50 150.24 72.61 154.06 73.19 157.91 L 72.37 158.06 C 71.13 153.28 69.57 149.03 70.00 143.98 C 70.53 138.33 71.37 132.53 73.28 127.17 C 74.63 123.22 76.96 120.16 76.53 115.85 C 76.50 115.02 76.45 114.20 76.40 113.38 C 78.80 111.30 81.96 110.54 81.29 106.76 C 83.53 101.37 88.88 99.34 91.37 94.22 C 92.50 91.83 94.00 91.71 96.39 91.37 Z" fill="#6f394e" />
<path d="M 36.61 92.98 C 35.77 97.82 34.54 102.59 33.59 107.41 C 32.86 110.64 31.80 113.41 30.02 116.22 C 31.81 108.71 32.24 99.47 36.61 92.98 Z" fill="#846b73" />
<path d="M 185.51 97.95 C 187.32 104.63 189.88 110.94 192.75 117.22 C 194.12 120.22 195.15 123.29 195.90 126.50 C 195.81 128.84 195.79 131.07 196.63 133.30 C 198.36 138.19 200.12 142.98 200.82 148.15 C 197.54 142.44 196.01 136.59 193.59 130.36 C 191.19 124.12 189.36 117.69 186.87 111.49 C 186.09 113.67 185.39 115.89 184.72 118.11 C 184.11 116.28 183.52 114.45 182.79 112.65 C 183.56 112.16 184.33 111.65 185.09 111.15 C 186.12 109.37 185.56 107.75 185.19 105.88 C 184.17 101.65 182.80 97.50 181.70 93.29 C 183.32 94.56 184.48 96.19 185.51 97.95 Z" fill="#634b52" />
<path d="M 180.28 94.17 L 181.70 93.29 C 182.80 97.50 184.17 101.65 185.19 105.88 C 185.56 107.75 186.12 109.37 185.09 111.15 C 184.25 108.88 183.47 106.59 182.66 104.31 C 181.71 100.98 180.82 97.60 180.28 94.17 Z" fill="#c9879d" />
<path d="M 186.82 93.62 C 189.10 96.74 190.16 100.74 191.62 104.38 C 192.42 106.90 193.73 108.78 192.35 111.40 C 190.51 105.82 188.31 100.34 186.73 94.63 L 186.82 93.62 Z" fill="#796b6b" />
<path d="M 186.73 94.63 C 188.31 100.34 190.51 105.82 192.35 111.40 L 192.03 112.33 C 189.49 107.11 186.00 100.57 186.73 94.63 Z" fill="#e8dcdc" />
<path d="M 53.20 98.54 C 54.09 99.75 54.96 100.97 55.82 102.20 C 52.32 107.95 48.82 113.23 44.14 118.12 C 42.47 117.06 40.75 115.80 38.93 115.04 C 36.16 115.85 33.86 117.88 31.10 118.84 L 29.24 119.35 C 29.49 118.30 29.75 117.26 30.02 116.22 C 31.80 113.41 32.86 110.64 33.59 107.41 C 36.56 107.03 38.04 105.03 40.36 103.41 C 42.75 101.61 45.41 100.59 48.22 99.65 C 49.87 99.24 51.54 98.89 53.20 98.54 Z" fill="#e68194" />
<path d="M 155.65 104.32 C 159.21 105.05 161.93 107.98 164.82 110.05 C 160.83 109.60 157.22 110.71 153.58 112.17 C 150.18 113.43 146.53 115.16 143.99 117.80 C 142.23 119.64 143.84 123.11 144.31 125.22 C 140.81 128.77 136.99 131.32 135.15 136.15 C 133.34 140.98 131.86 145.95 130.33 150.87 C 130.99 151.73 131.64 152.60 132.30 153.46 C 130.28 157.35 128.05 161.02 127.36 165.34 L 127.07 165.95 C 125.68 164.83 124.30 163.71 122.94 162.55 C 121.97 164.42 121.02 166.30 120.08 168.19 C 126.64 170.33 131.45 167.51 137.48 165.58 C 139.25 164.92 140.02 166.05 141.34 166.97 C 136.20 169.80 131.00 172.26 125.36 173.96 C 118.42 175.49 111.79 176.24 104.85 174.11 C 101.87 172.62 98.56 171.20 96.04 168.99 C 94.59 166.48 94.27 163.20 93.68 160.39 C 94.31 155.31 94.82 150.57 97.84 146.26 C 103.35 147.62 108.33 149.20 114.05 147.69 C 115.04 147.52 116.03 147.33 117.01 147.14 C 116.18 149.72 115.57 152.38 114.85 155.00 C 112.83 153.76 110.83 152.20 108.62 151.35 C 106.56 151.07 104.40 151.44 102.33 151.49 C 103.29 154.91 103.60 158.14 106.14 160.81 C 107.89 162.65 109.93 164.85 112.35 165.74 C 114.56 166.25 117.44 165.57 118.35 163.26 C 120.26 158.87 120.72 153.71 120.79 148.96 C 120.52 146.93 121.38 144.43 118.78 143.83 C 119.84 142.04 120.99 140.32 122.13 138.57 C 121.41 138.36 120.68 138.17 119.95 137.99 C 116.48 137.02 115.41 139.24 112.71 140.76 C 108.32 142.27 104.02 141.73 99.69 140.39 C 99.41 141.04 99.13 141.69 98.84 142.34 C 97.20 140.90 95.63 139.39 93.95 137.98 C 90.43 142.12 87.30 146.59 86.59 152.13 C 86.00 157.87 86.06 163.63 87.41 169.26 C 85.90 169.12 83.82 169.65 82.84 168.19 C 80.97 165.22 80.10 161.56 78.73 158.32 C 78.00 158.31 77.28 158.29 76.56 158.28 C 76.16 159.98 75.76 161.69 75.33 163.39 C 74.52 161.60 73.76 159.80 73.19 157.91 C 72.61 154.06 72.50 150.24 73.57 146.46 C 75.68 139.09 76.06 131.59 78.98 124.43 C 79.59 126.04 80.20 127.64 80.89 129.21 C 81.25 127.90 81.60 126.58 81.93 125.25 C 83.15 125.91 84.37 126.55 85.62 127.14 C 86.74 123.81 87.43 120.40 88.11 116.97 C 88.75 114.47 89.73 112.11 90.58 109.68 C 90.22 112.50 89.87 115.32 89.44 118.14 C 91.25 119.58 93.07 121.00 94.92 122.40 C 94.73 124.70 94.53 126.99 94.32 129.28 C 96.45 129.67 98.57 130.07 100.70 130.48 C 100.38 129.69 100.06 128.89 99.74 128.10 C 103.35 127.42 106.88 127.18 109.90 124.86 C 115.07 120.88 119.26 115.47 124.60 111.61 C 133.55 105.31 144.78 102.10 155.65 104.32 Z" fill="#d9d3d0" />
<path d="M 77.58 105.92 C 78.82 106.19 80.06 106.47 81.29 106.76 C 81.96 110.54 78.80 111.30 76.40 113.38 L 74.98 114.40 C 73.25 113.61 71.53 112.78 69.82 111.93 C 68.82 111.38 67.84 110.79 66.84 110.22 C 70.35 108.54 73.76 106.82 77.58 105.92 Z" fill="#ed9ab7" />
<path d="M 91.09 107.13 C 90.91 107.98 90.74 108.83 90.58 109.68 C 89.73 112.11 88.75 114.47 88.11 116.97 C 86.62 117.61 85.13 118.26 83.63 118.90 C 84.67 113.89 87.88 110.81 91.09 107.13 Z" fill="#a79396" />
<path d="M 164.82 110.05 C 167.00 111.01 169.25 111.79 171.62 112.14 C 175.57 112.80 179.23 112.15 183.01 113.78 C 180.12 115.65 177.00 116.99 173.70 117.97 C 171.87 118.40 170.05 118.87 168.23 119.38 C 168.61 120.56 168.98 121.74 169.36 122.92 C 168.66 124.34 167.94 125.75 167.25 127.16 C 170.59 130.24 173.71 130.17 177.92 129.70 C 178.03 129.98 178.15 130.26 178.26 130.54 C 175.35 132.62 175.19 135.51 174.20 138.65 C 175.51 137.88 176.82 137.12 178.15 136.39 C 177.84 139.46 177.27 141.44 175.35 143.87 C 173.35 146.16 174.54 148.30 174.77 150.96 C 176.98 149.19 179.16 147.37 181.40 145.64 C 183.62 143.95 185.72 142.13 187.79 140.26 C 188.13 142.23 188.49 144.19 188.78 146.16 C 187.88 151.43 187.39 156.73 187.81 162.08 C 187.50 161.52 187.19 160.96 186.86 160.41 L 185.86 160.99 C 185.28 161.32 184.70 161.66 184.14 162.01 C 184.28 158.32 184.60 155.61 182.03 152.63 C 179.77 154.09 177.26 155.48 175.85 157.87 C 175.02 159.46 174.71 161.38 174.37 163.12 C 174.13 161.95 173.70 160.91 173.08 160.00 C 172.10 159.74 171.11 159.58 170.13 159.38 C 166.85 158.19 165.93 155.17 164.94 152.15 C 163.66 147.27 163.67 141.96 163.62 136.93 L 163.66 135.37 C 164.69 133.42 166.28 131.29 166.58 129.08 C 166.96 125.17 167.77 121.71 165.02 118.42 C 166.84 118.14 168.54 117.58 170.29 117.02 C 167.92 115.62 165.91 114.11 163.01 114.23 C 159.34 114.26 156.83 113.91 153.58 112.17 C 157.22 110.71 160.83 109.60 164.82 110.05 Z" fill="#7b736f" />
<path d="M 93.77 110.33 C 95.74 113.44 96.46 116.89 96.97 120.49 C 93.44 118.14 93.66 114.11 93.77 110.33 Z" fill="#46323a" />
<path d="M 69.82 111.93 C 71.53 112.78 73.25 113.61 74.98 114.40 C 70.95 118.34 68.10 123.72 65.68 128.77 C 63.77 132.70 62.48 136.73 61.99 141.08 C 61.13 146.89 61.73 153.11 61.51 159.04 C 58.92 150.46 59.20 141.83 60.60 133.08 C 56.89 137.83 54.78 143.25 52.38 148.70 C 51.23 151.26 50.01 153.78 48.77 156.29 C 47.19 156.98 45.66 157.75 44.12 158.51 C 47.11 163.89 49.30 169.80 52.64 174.95 C 55.19 178.26 57.74 181.90 61.66 183.71 C 61.97 184.50 62.28 185.29 62.59 186.07 C 56.27 182.44 52.08 177.04 46.96 172.03 C 44.21 169.32 42.17 166.14 40.04 162.95 C 40.20 160.32 39.94 157.22 40.92 154.75 C 42.30 152.84 44.00 151.20 45.27 149.19 C 46.14 146.67 46.79 144.07 47.67 141.55 C 48.74 139.50 49.94 137.52 51.17 135.57 C 51.51 136.76 51.84 137.96 52.17 139.16 C 53.16 137.45 54.15 135.73 55.14 134.01 C 54.19 133.26 53.24 132.52 52.26 131.82 C 57.79 126.27 59.99 118.62 64.81 112.80 C 65.75 111.42 68.36 111.97 69.82 111.93 Z" fill="#c83a70" />
<path d="M 153.58 112.17 C 156.83 113.91 159.34 114.26 163.01 114.23 C 165.91 114.11 167.92 115.62 170.29 117.02 C 168.54 117.58 166.84 118.14 165.02 118.42 L 163.17 118.47 C 161.02 118.52 158.01 117.96 156.20 119.31 C 153.61 121.11 151.43 123.55 149.15 125.71 C 150.85 125.17 152.56 124.65 154.28 124.13 C 149.20 128.63 144.43 133.05 140.94 138.94 C 138.08 143.79 135.14 148.59 132.30 153.46 C 131.64 152.60 130.99 151.73 130.33 150.87 C 131.86 145.95 133.34 140.98 135.15 136.15 C 136.99 131.32 140.81 128.77 144.31 125.22 C 143.84 123.11 142.23 119.64 143.99 117.80 C 146.53 115.16 150.18 113.43 153.58 112.17 Z" fill="#bdb4b1" />
<path d="M 186.87 111.49 C 189.36 117.69 191.19 124.12 193.59 130.36 C 196.01 136.59 197.54 142.44 200.82 148.15 C 200.12 142.98 198.36 138.19 196.63 133.30 C 195.79 131.07 195.81 128.84 195.90 126.50 C 198.83 133.90 202.95 140.58 206.56 147.64 C 207.99 150.43 210.17 152.66 211.64 155.41 C 213.14 158.19 214.26 161.15 215.77 163.93 C 213.20 156.75 211.40 149.38 208.58 142.29 C 205.47 132.31 201.33 122.30 199.32 112.07 C 201.25 116.76 202.61 121.63 204.64 126.28 C 210.89 140.85 216.69 155.56 223.57 169.84 C 222.32 169.73 221.07 169.58 219.81 169.44 C 220.48 171.30 221.20 173.18 221.71 175.09 C 223.82 184.57 225.63 193.91 230.10 202.64 C 228.46 202.70 226.13 201.49 225.14 203.22 C 226.61 209.25 228.65 215.26 230.97 221.01 C 231.95 225.15 232.88 229.28 233.91 233.41 C 230.60 230.79 229.80 226.94 227.14 223.86 C 221.70 217.61 217.27 210.06 213.02 202.97 C 208.14 195.14 204.40 186.80 200.47 178.49 C 197.50 174.21 195.53 170.22 195.75 164.83 C 197.79 168.73 199.06 172.77 201.86 176.25 C 199.48 165.41 196.31 154.80 193.75 144.02 C 193.17 141.58 191.81 139.65 190.43 137.62 C 188.81 132.76 187.85 127.73 186.30 122.86 C 185.82 121.26 185.26 119.69 184.72 118.11 C 185.39 115.89 186.09 113.67 186.87 111.49 Z" fill="#402530" />
<path d="M 74.98 114.40 L 76.40 113.38 C 76.45 114.20 76.50 115.02 76.53 115.85 C 73.99 119.64 71.49 123.42 69.62 127.61 C 67.37 132.22 66.27 137.10 64.45 141.88 C 64.11 140.64 63.77 139.41 63.44 138.17 C 62.95 139.14 62.45 140.10 61.99 141.08 C 62.48 136.73 63.77 132.70 65.68 128.77 C 68.10 123.72 70.95 118.34 74.98 114.40 Z" fill="#8d2a50" />
<path d="M 38.93 115.04 C 40.75 115.80 42.47 117.06 44.14 118.12 C 47.21 119.02 50.99 116.93 53.93 116.04 C 49.63 120.33 45.44 124.73 41.31 129.19 L 40.30 127.82 C 38.74 125.74 37.27 123.60 35.68 121.54 C 34.22 122.59 32.83 123.35 32.38 125.22 C 31.45 128.64 30.50 131.97 29.08 135.23 C 29.02 133.75 28.97 132.26 28.92 130.77 C 29.05 129.54 29.18 128.31 29.29 127.08 C 29.34 126.48 29.39 125.88 29.44 125.28 C 30.04 123.14 30.62 121.01 31.10 118.84 C 33.86 117.88 36.16 115.85 38.93 115.04 Z" fill="#f9b5c5" />
<path d="M 76.53 115.85 C 76.96 120.16 74.63 123.22 73.28 127.17 C 71.37 132.53 70.53 138.33 70.00 143.98 C 69.57 149.03 71.13 153.28 72.37 158.06 C 71.60 158.21 70.82 158.35 70.05 158.49 C 69.52 154.71 69.58 150.46 68.18 146.89 C 67.62 146.42 66.98 146.04 66.27 145.74 C 65.55 154.93 66.59 163.00 70.23 171.48 C 68.75 172.66 67.28 173.85 65.81 175.04 C 66.58 175.72 67.35 176.41 68.11 177.10 C 68.44 176.30 68.77 175.50 69.10 174.70 C 70.19 175.43 71.28 176.17 72.35 176.92 C 70.84 178.77 71.11 180.00 71.32 182.25 C 67.99 180.80 64.96 178.90 61.94 176.88 C 64.92 180.40 68.56 183.05 72.14 185.90 C 68.63 184.77 65.33 184.06 61.66 183.71 C 57.74 181.90 55.19 178.26 52.64 174.95 C 53.40 174.28 54.15 173.61 54.91 172.94 C 56.99 174.59 59.07 176.24 61.16 177.86 C 58.61 174.10 55.86 170.50 53.59 166.55 C 56.60 167.05 58.14 170.06 60.36 172.04 C 60.60 168.67 58.68 166.58 57.15 163.80 C 54.29 159.33 54.07 154.00 52.38 148.70 C 54.78 143.25 56.89 137.83 60.60 133.08 C 59.20 141.83 58.92 150.46 61.51 159.04 C 61.73 153.11 61.13 146.89 61.99 141.08 C 62.45 140.10 62.95 139.14 63.44 138.17 C 63.77 139.41 64.11 140.64 64.45 141.88 C 66.27 137.10 67.37 132.22 69.62 127.61 C 71.49 123.42 73.99 119.64 76.53 115.85 Z" fill="#572138" />
<path d="M 88.11 116.97 C 87.43 120.40 86.74 123.81 85.62 127.14 C 84.37 126.55 83.15 125.91 81.93 125.25 C 82.47 123.12 83.02 121.00 83.63 118.90 C 85.13 118.26 86.62 117.61 88.11 116.97 Z" fill="#c9b6b5" />
<path d="M 163.17 118.47 C 161.84 118.64 160.52 118.84 159.21 119.15 C 158.27 122.31 157.15 122.78 154.28 124.13 C 152.56 124.65 150.85 125.17 149.15 125.71 C 151.43 123.55 153.61 121.11 156.20 119.31 C 158.01 117.96 161.02 118.52 163.17 118.47 Z" fill="#463136" />
<path d="M 173.70 117.97 C 177.70 120.44 181.72 122.76 186.12 124.46 L 186.30 122.86 C 187.85 127.73 188.81 132.76 190.43 137.62 C 190.36 139.62 190.22 141.61 190.06 143.60 C 189.63 144.46 189.21 145.31 188.78 146.16 C 188.49 144.19 188.13 142.23 187.79 140.26 C 185.72 142.13 183.62 143.95 181.40 145.64 C 179.45 144.74 177.51 144.04 175.35 143.87 C 177.27 141.44 177.84 139.46 178.15 136.39 C 179.04 136.80 179.94 137.21 180.84 137.62 C 180.09 135.21 179.26 132.85 178.26 130.54 C 178.15 130.26 178.03 129.98 177.92 129.70 C 173.71 130.17 170.59 130.24 167.25 127.16 C 167.94 125.75 168.66 124.34 169.36 122.92 C 168.98 121.74 168.61 120.56 168.23 119.38 C 170.05 118.87 171.87 118.40 173.70 117.97 Z" fill="#bab2ad" />
<path d="M 29.24 119.35 L 31.10 118.84 C 30.62 121.01 30.04 123.14 29.44 125.28 C 28.96 123.24 28.60 121.41 29.24 119.35 Z" fill="#824c5b" />
<path d="M 159.21 119.15 C 160.52 118.84 161.84 118.64 163.17 118.47 L 165.02 118.42 C 167.77 121.71 166.96 125.17 166.58 129.08 C 166.28 131.29 164.69 133.42 163.66 135.37 C 163.61 132.95 163.49 130.53 163.40 128.10 C 162.64 128.07 161.88 128.04 161.11 128.03 C 159.88 130.69 159.03 133.44 158.15 136.23 C 157.99 133.84 157.82 131.45 157.65 129.07 C 156.92 129.60 156.20 130.13 155.47 130.66 C 152.43 132.71 149.64 135.02 147.19 137.76 C 143.57 141.68 140.01 145.61 137.09 150.09 C 133.56 155.06 131.10 160.56 127.36 165.34 C 128.05 161.02 130.28 157.35 132.30 153.46 C 135.14 148.59 138.08 143.79 140.94 138.94 C 144.43 133.05 149.20 128.63 154.28 124.13 C 157.15 122.78 158.27 122.31 159.21 119.15 Z" fill="#381a29" />
<path d="M 35.68 121.54 C 37.27 123.60 38.74 125.74 40.30 127.82 C 38.64 131.06 36.96 134.33 35.59 137.71 C 34.34 140.52 35.50 144.31 35.75 147.30 C 34.61 147.23 33.47 147.17 32.33 147.11 C 29.99 143.17 28.78 139.92 29.08 135.23 C 30.50 131.97 31.45 128.64 32.38 125.22 C 32.83 123.35 34.22 122.59 35.68 121.54 Z" fill="#e6758d" />
<path d="M 96.66 121.19 C 100.10 122.58 103.70 123.57 107.08 125.08 C 102.48 125.49 99.58 124.93 96.66 121.19 Z" fill="#908a8a" />
<path d="M 28.14 125.90 L 29.29 127.08 C 29.18 128.31 29.05 129.54 28.92 130.77 C 28.03 135.74 27.24 140.69 27.33 145.77 C 27.33 152.89 26.05 159.87 26.39 167.01 C 26.90 181.61 25.04 194.79 27.47 209.16 C 27.45 212.53 27.27 215.85 26.92 219.20 C 25.73 216.77 25.15 214.41 24.86 211.72 C 24.47 206.19 23.97 200.71 22.56 195.33 C 21.07 189.89 21.81 183.66 22.32 178.10 C 25.59 160.97 24.53 143.17 28.14 125.90 Z" fill="#583442" />
<path d="M 40.30 127.82 L 41.31 129.19 C 41.89 134.12 38.61 137.89 39.01 142.64 C 39.28 146.18 39.45 149.69 39.42 153.24 C 40.54 151.11 41.66 148.97 42.76 146.82 C 43.60 147.61 44.44 148.40 45.27 149.19 C 44.00 151.20 42.30 152.84 40.92 154.75 C 39.94 157.22 40.20 160.32 40.04 162.95 L 40.04 163.86 C 39.65 163.23 39.26 162.60 38.86 161.98 C 38.28 162.87 37.70 163.76 37.12 164.65 C 35.26 158.78 32.77 153.35 32.33 147.11 C 33.47 147.17 34.61 147.23 35.75 147.30 C 35.50 144.31 34.34 140.52 35.59 137.71 C 36.96 134.33 38.64 131.06 40.30 127.82 Z" fill="#e05e83" />
<path d="M 161.11 128.03 C 161.88 128.04 162.64 128.07 163.40 128.10 C 163.49 130.53 163.61 132.95 163.66 135.37 L 163.62 136.93 C 163.53 139.74 163.28 142.52 162.76 145.29 C 161.58 142.15 161.75 139.13 161.31 135.83 C 158.98 138.68 156.97 142.38 156.80 146.13 C 156.51 143.00 156.08 139.95 155.51 136.87 C 155.46 136.35 155.40 135.82 155.35 135.30 C 154.38 135.50 153.40 135.70 152.43 135.91 C 153.73 134.29 154.88 132.67 155.47 130.66 C 156.20 130.13 156.92 129.60 157.65 129.07 C 157.82 131.45 157.99 133.84 158.15 136.23 C 159.03 133.44 159.88 130.69 161.11 128.03 Z" fill="#5a4348" />
<path d="M 48.82 130.02 C 49.99 130.57 51.14 131.17 52.26 131.82 C 53.24 132.52 54.19 133.26 55.14 134.01 C 54.15 135.73 53.16 137.45 52.17 139.16 C 51.84 137.96 51.51 136.76 51.17 135.57 C 49.94 137.52 48.74 139.50 47.67 141.55 C 46.76 140.40 45.28 139.34 45.33 137.75 C 45.12 134.59 46.67 132.17 48.82 130.02 Z" fill="#fdb8cc" />
<path d="M 155.47 130.66 C 154.88 132.67 153.73 134.29 152.43 135.91 C 153.40 135.70 154.38 135.50 155.35 135.30 C 155.40 135.82 155.46 136.35 155.51 136.87 C 154.89 140.31 154.29 143.66 154.74 147.17 C 154.38 144.44 154.21 141.67 153.96 138.93 C 151.98 141.13 150.18 143.18 147.33 144.28 C 147.24 142.11 147.22 139.93 147.19 137.76 C 149.64 135.02 152.43 132.71 155.47 130.66 Z" fill="#796769" />
<path d="M 178.26 130.54 C 179.26 132.85 180.09 135.21 180.84 137.62 C 179.94 137.21 179.04 136.80 178.15 136.39 C 176.82 137.12 175.51 137.88 174.20 138.65 C 175.19 135.51 175.35 132.62 178.26 130.54 Z" fill="#e1dbd6" />
<path d="M 161.31 135.83 C 161.75 139.13 161.58 142.15 162.76 145.29 C 163.28 142.52 163.53 139.74 163.62 136.93 C 163.67 141.96 163.66 147.27 164.94 152.15 C 165.93 155.17 166.85 158.19 170.13 159.38 C 169.88 161.96 168.71 163.73 167.20 165.77 C 164.82 162.85 161.86 160.26 160.03 157.04 C 158.15 153.72 157.20 149.90 156.80 146.13 C 156.97 142.38 158.98 138.68 161.31 135.83 Z" fill="#776667" />
<path d="M 119.95 137.99 C 116.90 139.89 114.16 142.71 110.87 144.12 C 107.34 144.70 103.47 143.86 99.99 143.20 L 98.84 142.34 C 99.13 141.69 99.41 141.04 99.69 140.39 C 104.02 141.73 108.32 142.27 112.71 140.76 C 115.41 139.24 116.48 137.02 119.95 137.99 Z" fill="#8e7d7e" />
<path d="M 155.51 136.87 C 156.08 139.95 156.51 143.00 156.80 146.13 C 157.20 149.90 158.15 153.72 160.03 157.04 C 161.86 160.26 164.82 162.85 167.20 165.77 L 166.55 166.72 C 163.04 164.43 160.00 161.66 158.18 157.81 C 156.63 154.47 155.51 150.77 154.74 147.17 C 154.29 143.66 154.89 140.31 155.51 136.87 Z" fill="#301921" />
<path d="M 93.95 137.98 C 95.63 139.39 97.20 140.90 98.84 142.34 L 99.99 143.20 C 103.00 145.86 106.03 145.34 109.74 145.07 C 108.80 145.71 107.86 146.36 106.93 147.02 C 109.30 147.29 111.68 147.56 114.05 147.69 C 108.33 149.20 103.35 147.62 97.84 146.26 C 94.82 150.57 94.31 155.31 93.68 160.39 C 92.95 156.94 92.65 153.47 92.49 149.96 C 90.77 155.68 89.55 162.23 92.29 167.84 C 94.83 172.56 100.19 172.95 104.85 174.11 C 111.79 176.24 118.42 175.49 125.36 173.96 C 126.62 174.54 127.81 175.72 129.27 175.28 C 133.86 174.08 138.18 172.00 142.83 170.94 C 142.21 171.65 141.57 172.35 140.92 173.04 C 135.53 175.79 129.43 178.52 123.36 179.15 C 116.76 178.04 110.18 178.32 103.69 176.31 C 97.71 175.04 92.78 171.97 87.41 169.26 C 86.06 163.63 86.00 157.87 86.59 152.13 C 87.30 146.59 90.43 142.12 93.95 137.98 Z" fill="#3d202d" />
<path d="M 119.95 137.99 C 120.68 138.17 121.41 138.36 122.13 138.57 C 120.99 140.32 119.84 142.04 118.78 143.83 C 118.14 144.91 117.55 146.01 117.01 147.14 C 116.03 147.33 115.04 147.52 114.05 147.69 C 111.68 147.56 109.30 147.29 106.93 147.02 C 107.86 146.36 108.80 145.71 109.74 145.07 C 106.03 145.34 103.00 145.86 99.99 143.20 C 103.47 143.86 107.34 144.70 110.87 144.12 C 114.16 142.71 116.90 139.89 119.95 137.99 Z" fill="#7b656c" />
<path d="M 190.43 137.62 C 191.81 139.65 193.17 141.58 193.75 144.02 C 196.31 154.80 199.48 165.41 201.86 176.25 C 199.06 172.77 197.79 168.73 195.75 164.83 C 193.55 157.82 192.47 150.54 190.06 143.60 C 190.22 141.61 190.36 139.62 190.43 137.62 Z" fill="#634d56" />
<path d="M 118.78 143.83 C 121.38 144.43 120.52 146.93 120.79 148.96 C 120.72 153.71 120.26 158.87 118.35 163.26 C 117.44 165.57 114.56 166.25 112.35 165.74 C 109.93 164.85 107.89 162.65 106.14 160.81 C 103.60 158.14 103.29 154.91 102.33 151.49 C 104.40 151.44 106.56 151.07 108.62 151.35 C 110.83 152.20 112.83 153.76 114.85 155.00 C 115.57 152.38 116.18 149.72 117.01 147.14 C 117.55 146.01 118.14 144.91 118.78 143.83 Z" fill="#432332" />
<path d="M 175.35 143.87 C 177.51 144.04 179.45 144.74 181.40 145.64 C 179.16 147.37 176.98 149.19 174.77 150.96 C 174.54 148.30 173.35 146.16 175.35 143.87 Z" fill="#c8c2c0" />
<path d="M 27.33 145.77 C 27.71 150.13 27.63 154.46 27.33 158.82 C 28.46 158.63 29.58 158.44 30.71 158.26 C 30.97 164.16 30.52 170.13 31.07 176.00 C 30.68 173.18 30.37 170.39 29.42 167.68 C 28.38 175.69 30.05 182.87 29.98 190.98 C 29.94 194.85 29.86 198.71 30.00 202.58 C 29.02 204.72 28.13 206.90 27.47 209.16 C 25.04 194.79 26.90 181.61 26.39 167.01 C 26.05 159.87 27.33 152.89 27.33 145.77 Z" fill="#aa2b5a" />
<path d="M 66.27 145.74 C 66.98 146.04 67.62 146.42 68.18 146.89 C 69.58 150.46 69.52 154.71 70.05 158.49 C 70.82 158.35 71.60 158.21 72.37 158.06 L 73.19 157.91 C 73.76 159.80 74.52 161.60 75.33 163.39 C 77.15 167.37 78.45 171.26 81.48 174.54 C 84.67 177.90 89.16 178.23 92.10 181.92 C 94.31 184.84 97.63 184.78 100.97 185.27 C 105.00 185.86 108.30 184.45 112.08 183.42 C 108.75 185.78 104.94 188.07 100.94 189.01 C 96.12 190.14 91.25 190.87 86.37 191.63 C 84.60 191.87 83.09 193.65 81.78 194.75 C 84.23 195.06 86.68 195.29 89.13 195.52 C 83.09 197.42 76.57 196.32 70.86 198.92 C 67.88 196.92 65.04 194.78 61.80 193.19 C 57.79 191.29 55.43 188.07 52.64 184.77 C 52.14 184.13 51.64 183.51 51.11 182.90 C 45.84 177.36 42.82 170.88 40.04 163.86 L 40.04 162.95 C 42.17 166.14 44.21 169.32 46.96 172.03 C 52.08 177.04 56.27 182.44 62.59 186.07 C 62.28 185.29 61.97 184.50 61.66 183.71 C 65.33 184.06 68.63 184.77 72.14 185.90 C 68.56 183.05 64.92 180.40 61.94 176.88 C 64.96 178.90 67.99 180.80 71.32 182.25 C 71.11 180.00 70.84 178.77 72.35 176.92 C 71.28 176.17 70.19 175.43 69.10 174.70 C 68.77 175.50 68.44 176.30 68.11 177.10 C 67.35 176.41 66.58 175.72 65.81 175.04 C 67.28 173.85 68.75 172.66 70.23 171.48 C 66.59 163.00 65.55 154.93 66.27 145.74 Z" fill="#421d2e" />
<path d="M 52.38 148.70 C 54.07 154.00 54.29 159.33 57.15 163.80 C 58.68 166.58 60.60 168.67 60.36 172.04 C 58.14 170.06 56.60 167.05 53.59 166.55 C 51.34 163.27 49.91 160.10 48.77 156.29 C 50.01 153.78 51.23 151.26 52.38 148.70 Z" fill="#782848" />
<path d="M 92.49 149.96 C 92.65 153.47 92.95 156.94 93.68 160.39 C 94.27 163.20 94.59 166.48 96.04 168.99 C 98.56 171.20 101.87 172.62 104.85 174.11 C 100.19 172.95 94.83 172.56 92.29 167.84 C 89.55 162.23 90.77 155.68 92.49 149.96 Z" fill="#b4a1a8" />
<path d="M 127.69 149.98 C 127.70 154.22 128.09 160.38 125.11 163.78 C 124.36 159.18 126.14 154.27 127.69 149.98 Z" fill="#918382" />
<path d="M 48.77 156.29 C 49.91 160.10 51.34 163.27 53.59 166.55 C 55.86 170.50 58.61 174.10 61.16 177.86 C 59.07 176.24 56.99 174.59 54.91 172.94 C 54.15 173.61 53.40 174.28 52.64 174.95 C 49.30 169.80 47.11 163.89 44.12 158.51 C 45.66 157.75 47.19 156.98 48.77 156.29 Z" fill="#983058" />
<path d="M 173.08 160.00 C 173.70 160.91 174.13 161.95 174.37 163.12 C 174.37 164.96 174.46 166.78 174.54 168.61 C 173.39 169.20 172.24 169.78 171.08 170.36 C 169.57 169.11 168.14 167.87 166.55 166.72 L 167.20 165.77 C 168.71 163.73 169.88 161.96 170.13 159.38 C 171.11 159.58 172.10 159.74 173.08 160.00 Z" fill="#492f37" />
<path d="M 186.86 160.41 C 187.19 160.96 187.50 161.52 187.81 162.08 C 188.50 166.33 188.85 170.29 191.08 174.10 C 193.17 178.12 196.24 180.59 197.05 184.90 C 197.42 187.20 199.44 188.51 200.89 190.19 C 194.80 189.64 191.30 185.64 187.43 181.42 C 188.44 180.08 189.75 179.51 189.16 177.66 C 187.63 172.11 186.56 166.70 185.86 160.99 L 186.86 160.41 Z" fill="#3b1d27" />
<path d="M 156.87 160.97 C 157.60 161.39 158.33 161.81 159.05 162.24 C 154.21 172.27 144.88 179.72 136.02 186.08 C 134.33 186.42 132.65 186.68 130.95 186.94 C 135.60 183.22 140.33 179.70 144.36 175.26 C 146.16 173.45 147.24 171.40 148.13 169.02 C 148.96 167.16 149.93 164.85 151.58 163.56 C 153.23 162.51 155.06 161.71 156.87 160.97 Z" fill="#41212b" />
<path d="M 185.86 160.99 C 186.56 166.70 187.63 172.11 189.16 177.66 C 189.75 179.51 188.44 180.08 187.43 181.42 C 186.66 180.54 185.87 179.69 185.12 178.81 C 183.91 175.87 183.47 172.64 182.19 169.69 C 181.22 166.00 181.78 164.82 184.14 162.01 C 184.70 161.66 185.28 161.32 185.86 160.99 Z" fill="#51343f" />
<path d="M 141.34 166.97 C 143.67 167.44 145.91 168.20 148.13 169.02 C 147.24 171.40 146.16 173.45 144.36 175.26 C 143.61 174.75 142.85 174.25 142.09 173.76 L 140.92 173.04 C 141.57 172.35 142.21 171.65 142.83 170.94 C 138.18 172.00 133.86 174.08 129.27 175.28 C 127.81 175.72 126.62 174.54 125.36 173.96 C 131.00 172.26 136.20 169.80 141.34 166.97 Z" fill="#826c71" />
<path d="M 29.42 167.68 C 30.37 170.39 30.68 173.18 31.07 176.00 C 31.67 179.39 32.53 182.52 31.79 185.98 C 30.64 192.20 33.22 197.48 30.00 202.58 C 29.86 198.71 29.94 194.85 29.98 190.98 C 30.05 182.87 28.38 175.69 29.42 167.68 Z" fill="#69032c" />
<path d="M 182.19 169.69 C 183.47 172.64 183.91 175.87 185.12 178.81 C 186.88 182.53 190.24 184.63 192.49 188.25 C 189.77 187.92 187.64 187.31 185.63 185.38 C 183.98 183.83 181.23 181.66 181.97 179.12 C 182.52 175.88 182.57 172.97 182.19 169.69 Z" fill="#442c33" />
<path d="M 140.92 173.04 L 142.09 173.76 C 139.61 176.30 138.07 179.03 134.80 180.69 C 131.33 182.42 128.31 184.31 125.56 187.06 C 126.02 185.63 126.47 184.19 126.89 182.74 C 122.64 185.97 119.82 190.20 116.69 194.42 L 115.88 195.35 C 112.09 199.19 109.47 203.25 103.96 204.65 C 109.84 197.08 111.83 188.47 116.32 180.21 C 118.66 179.83 121.01 179.46 123.36 179.15 C 129.43 178.52 135.53 175.79 140.92 173.04 Z" fill="#dad3d1" />
<path d="M 142.09 173.76 C 142.85 174.25 143.61 174.75 144.36 175.26 C 140.33 179.70 135.60 183.22 130.95 186.94 C 132.65 186.68 134.33 186.42 136.02 186.08 C 135.05 186.98 134.11 187.92 133.23 188.91 C 126.86 187.84 122.25 192.08 116.69 194.42 C 119.82 190.20 122.64 185.97 126.89 182.74 C 126.47 184.19 126.02 185.63 125.56 187.06 C 128.31 184.31 131.33 182.42 134.80 180.69 C 138.07 179.03 139.61 176.30 142.09 173.76 Z" fill="#7d554e" />
<path d="M 172.10 175.22 C 171.71 177.28 171.62 179.60 170.25 181.28 C 167.80 184.42 164.51 186.92 162.08 190.10 C 160.87 191.61 160.75 194.01 160.44 195.88 C 157.01 193.59 153.85 194.96 150.03 195.20 C 151.33 194.26 152.63 193.31 153.93 192.37 C 149.34 192.93 144.75 193.32 140.12 193.26 C 139.22 192.49 138.34 191.59 137.32 191.01 C 135.51 190.91 133.66 191.19 131.86 191.36 C 132.15 190.83 132.44 190.30 132.74 189.77 C 139.74 191.20 146.65 188.31 153.27 186.25 C 160.48 183.88 165.97 179.45 172.10 175.22 Z" fill="#ee7d90" />
<path d="M 46.12 180.81 C 47.80 181.47 49.47 182.15 51.11 182.90 C 51.64 183.51 52.14 184.13 52.64 184.77 L 52.03 186.01 C 51.52 185.41 51.00 184.81 50.48 184.21 C 48.88 188.31 47.78 193.52 44.93 196.90 C 43.48 198.84 40.44 198.93 38.24 199.37 L 37.45 198.60 C 39.65 196.51 42.10 194.29 43.64 191.65 C 45.23 188.41 45.53 184.34 46.12 180.81 Z" fill="#826860" />
<path d="M 50.48 184.21 C 51.00 184.81 51.52 185.41 52.03 186.01 C 52.40 186.45 52.78 186.89 53.17 187.32 C 51.68 191.40 50.14 195.44 48.50 199.47 C 47.25 201.90 49.01 204.06 49.82 206.36 C 51.50 210.69 54.63 213.75 56.97 217.67 C 54.30 216.63 52.58 215.48 50.56 213.43 C 48.11 210.86 44.84 209.28 42.42 206.75 C 41.20 204.01 40.62 201.46 38.24 199.37 C 40.44 198.93 43.48 198.84 44.93 196.90 C 47.78 193.52 48.88 188.31 50.48 184.21 Z" fill="#583c3f" />
<path d="M 53.17 187.32 C 54.25 188.62 55.61 189.44 55.58 191.30 C 55.50 196.82 55.06 202.69 53.06 207.86 C 54.49 209.64 55.87 211.45 57.20 213.30 C 57.99 212.75 58.77 212.20 59.56 211.65 C 59.89 209.23 60.25 206.81 60.63 204.40 C 61.30 204.39 61.97 204.37 62.64 204.36 C 62.44 209.34 62.19 214.23 62.83 219.19 C 60.25 219.41 59.10 219.04 56.97 217.67 C 54.63 213.75 51.50 210.69 49.82 206.36 C 49.01 204.06 47.25 201.90 48.50 199.47 C 50.14 195.44 51.68 191.40 53.17 187.32 Z" fill="#3a1d2a" />
<path d="M 133.23 188.91 L 132.74 189.77 C 132.44 190.30 132.15 190.83 131.86 191.36 C 133.66 191.19 135.51 190.91 137.32 191.01 C 138.34 191.59 139.22 192.49 140.12 193.26 C 144.20 197.41 150.26 195.16 155.65 198.20 C 145.13 202.67 135.03 201.47 123.91 201.49 C 121.01 200.95 118.16 200.12 115.31 199.39 C 115.49 198.04 115.66 196.69 115.88 195.35 L 116.69 194.42 C 122.25 192.08 126.86 187.84 133.23 188.91 Z" fill="#c13e6e" />
<path d="M 153.93 192.37 C 152.63 193.31 151.33 194.26 150.03 195.20 C 153.85 194.96 157.01 193.59 160.44 195.88 C 158.90 196.77 157.32 197.58 155.65 198.20 C 150.26 195.16 144.20 197.41 140.12 193.26 C 144.75 193.32 149.34 192.93 153.93 192.37 Z" fill="#d9627f" />
<path d="M 115.88 195.35 C 115.66 196.69 115.49 198.04 115.31 199.39 C 118.16 200.12 121.01 200.95 123.91 201.49 C 122.90 202.83 121.88 204.17 120.89 205.52 C 116.62 205.26 112.33 205.11 108.06 205.30 C 108.44 206.99 108.30 208.97 109.94 209.99 C 112.79 212.11 116.49 213.15 119.54 215.06 L 121.28 216.34 C 116.91 216.35 112.98 214.63 108.69 214.22 C 107.27 214.32 105.85 214.53 104.46 214.85 C 102.99 215.85 101.58 216.96 100.18 218.04 C 96.35 219.51 92.72 221.13 89.09 223.05 C 90.24 221.30 91.35 219.37 92.84 217.90 C 94.24 216.70 96.21 216.06 97.89 215.34 C 96.61 214.48 95.34 213.61 94.04 212.77 L 92.63 211.87 C 96.27 209.22 99.90 206.64 103.96 204.65 C 109.47 203.25 112.09 199.19 115.88 195.35 Z" fill="#926c5a" />
<path d="M 151.39 202.44 C 149.85 204.52 148.13 206.43 146.18 208.13 C 143.20 210.36 140.00 211.19 137.99 214.55 C 140.27 214.07 142.53 213.54 144.79 213.00 C 144.61 213.76 144.43 214.52 144.26 215.28 C 136.69 217.92 129.07 217.71 121.28 216.34 L 119.54 215.06 C 119.96 213.97 120.50 212.97 121.15 212.04 C 127.87 208.72 137.80 210.88 143.67 206.12 C 142.72 205.62 141.77 205.13 140.82 204.63 C 144.37 204.03 147.85 203.11 151.39 202.44 Z" fill="#ed798e" />
<path d="M 108.06 205.30 C 112.33 205.11 116.62 205.26 120.89 205.52 C 127.67 206.19 134.12 205.96 140.82 204.63 C 141.77 205.13 142.72 205.62 143.67 206.12 C 137.80 210.88 127.87 208.72 121.15 212.04 C 120.50 212.97 119.96 213.97 119.54 215.06 C 116.49 213.15 112.79 212.11 109.94 209.99 C 108.30 208.97 108.44 206.99 108.06 205.30 Z" fill="#c1426e" />
<path d="M 146.18 208.13 C 147.33 209.46 148.41 210.87 149.48 212.26 C 147.88 213.60 146.26 214.62 144.26 215.28 C 144.43 214.52 144.61 213.76 144.79 213.00 C 142.53 213.54 140.27 214.07 137.99 214.55 C 140.00 211.19 143.20 210.36 146.18 208.13 Z" fill="#eea6b3" />
<path d="M 92.63 211.87 L 94.04 212.77 C 91.72 215.83 89.14 218.76 87.07 221.99 C 86.18 223.26 86.87 224.71 87.00 226.14 C 84.95 227.91 82.94 230.27 80.51 231.47 C 78.04 232.37 75.42 232.88 72.86 233.50 C 75.01 230.84 77.19 228.20 79.39 225.59 C 83.24 223.04 85.67 219.61 87.81 215.59 C 89.43 214.37 90.98 213.05 92.63 211.87 Z" fill="#3c1c25" />
<path d="M 94.04 212.77 C 95.34 213.61 96.61 214.48 97.89 215.34 C 96.21 216.06 94.24 216.70 92.84 217.90 C 91.35 219.37 90.24 221.30 89.09 223.05 C 92.72 221.13 96.35 219.51 100.18 218.04 C 99.00 220.11 98.02 222.70 95.95 224.02 C 94.64 224.91 92.66 224.76 91.13 224.89 C 89.68 225.05 88.33 225.56 87.00 226.14 C 86.87 224.71 86.18 223.26 87.07 221.99 C 89.14 218.76 91.72 215.83 94.04 212.77 Z" fill="#62403d" />
<path d="M 81.99 213.73 C 82.50 214.20 83.01 214.68 83.52 215.16 C 83.56 216.34 83.55 217.51 83.54 218.68 C 84.93 217.61 86.36 216.59 87.81 215.59 C 85.67 219.61 83.24 223.04 79.39 225.59 C 77.65 226.09 75.92 226.59 74.24 227.26 C 73.56 226.54 72.88 225.83 72.20 225.12 C 74.32 223.30 76.61 221.58 78.49 219.51 C 79.58 218.43 79.17 216.98 79.25 215.58 C 80.18 214.98 81.08 214.35 81.99 213.73 Z" fill="#715249" />
<path d="M 108.69 214.22 C 110.38 215.44 112.13 216.52 113.98 217.46 C 111.26 220.52 108.42 219.43 104.76 219.61 C 104.65 218.02 104.55 216.44 104.46 214.85 C 105.85 214.53 107.27 214.32 108.69 214.22 Z" fill="#ab4565" />
<path d="M 104.46 214.85 C 104.55 216.44 104.65 218.02 104.76 219.61 L 103.74 220.73 C 101.75 222.94 99.91 226.22 96.91 227.01 C 93.52 228.13 90.06 228.97 86.76 230.36 C 88.20 228.52 89.67 226.70 91.13 224.89 C 92.66 224.76 94.64 224.91 95.95 224.02 C 98.02 222.70 99.00 220.11 100.18 218.04 C 101.58 216.96 102.99 215.85 104.46 214.85 Z" fill="#3b1f25" />
<path d="M 79.25 215.58 C 79.17 216.98 79.58 218.43 78.49 219.51 C 76.61 221.58 74.32 223.30 72.20 225.12 C 72.88 225.83 73.56 226.54 74.24 227.26 C 70.44 228.67 66.78 230.09 63.14 231.91 C 63.56 230.41 63.66 229.01 64.85 227.88 C 67.29 225.26 69.90 222.91 71.82 219.83 C 73.23 217.02 76.63 216.86 79.25 215.58 Z" fill="#40212d" />
<path d="M 113.98 217.46 C 119.85 219.79 125.78 219.57 131.85 220.75 C 126.03 223.75 120.10 223.85 113.80 225.03 C 110.30 225.85 106.50 222.52 103.74 220.73 L 104.76 219.61 C 108.42 219.43 111.26 220.52 113.98 217.46 Z" fill="#eb778f" />
</svg>