<?xml version="1.0" encoding="UTF-8" standalone="no"?>
<!DOCTYPE svg PUBLIC "-//W3C//DTD SVG 1.1//EN" "http://www.w3.org/Graphics/SVG/1.1/DTD/svg11.dtd">
<svg xmlns="http://www.w3.org/2000/svg" version="1.1" viewBox="0 0 256 256" width="256.0pt" height="256.0pt">
<path d="M 0.00 0.00 L 256.00 0.00 L 256.00 256.00 L 0.00 256.00 L 0.00 0.00 Z" fill="#ffffff" />
<path d="M 78.02 11.00 C 84.46 13.89 88.20 21.93 94.65 24.31 C 97.55 25.23 100.97 25.04 104.00 25.04 C 115.69 24.66 127.18 27.15 139.00 27.06 C 148.56 26.96 158.09 26.56 167.60 28.50 C 170.59 29.11 173.17 30.59 175.63 32.35 C 181.67 36.69 187.81 41.52 194.88 44.05 C 199.71 45.88 204.49 46.93 208.20 50.80 C 213.04 55.86 214.75 61.86 216.71 68.37 C 218.90 75.77 225.00 79.66 230.28 84.71 C 235.42 89.43 239.10 94.87 241.63 101.36 C 245.00 109.39 247.96 117.38 248.75 126.13 C 250.36 144.75 246.41 163.72 236.85 179.83 C 233.01 186.46 229.40 193.15 225.97 200.00 C 221.98 207.85 215.31 213.51 207.66 217.64 C 200.09 221.56 190.21 220.83 183.08 225.12 C 178.13 228.42 174.89 233.58 169.62 236.61 C 163.24 241.02 155.94 241.78 148.39 241.50 C 141.73 241.02 136.77 236.99 130.01 236.87 C 124.74 236.71 120.37 238.60 115.65 240.63 C 108.71 243.70 101.09 245.49 93.61 246.61 C 84.15 248.00 74.45 245.81 65.18 243.89 C 56.55 242.17 48.32 238.73 40.82 234.15 C 36.40 231.25 31.44 227.83 28.92 223.06 C 26.54 218.71 24.81 214.13 24.48 209.15 C 24.16 204.43 24.04 199.79 22.90 195.16 C 21.62 189.42 18.99 184.37 17.25 178.80 C 15.35 172.64 13.85 166.51 13.93 160.02 C 14.00 151.68 14.00 143.34 14.05 135.00 C 14.07 128.64 13.06 122.36 12.99 115.99 C 12.94 109.63 12.14 103.44 10.72 97.25 C 8.88 88.80 6.12 80.27 7.48 71.54 C 8.94 62.15 11.63 52.88 16.91 44.89 C 20.83 39.04 24.40 33.44 29.76 28.76 C 38.56 20.92 48.70 13.03 60.39 10.33 C 66.30 8.62 72.35 8.32 78.02 11.00 Z" fill="#f5f6f5" />
<path d="M 68.72 21.56 C 67.89 23.09 67.07 24.62 66.23 26.14 C 70.27 25.50 74.28 25.11 78.37 25.42 C 76.89 26.45 75.36 27.38 73.78 28.26 C 73.20 30.32 73.25 32.90 71.29 34.17 C 67.77 36.96 63.26 38.88 59.92 41.88 C 58.15 43.47 57.15 46.08 56.12 48.20 C 55.45 48.47 54.79 48.73 54.12 49.00 C 54.42 49.81 54.72 50.62 55.02 51.43 C 53.17 53.24 51.51 55.36 49.78 57.29 C 47.80 56.66 45.82 56.01 43.84 55.39 C 46.12 54.34 49.46 54.22 49.55 51.03 C 48.40 49.17 46.69 47.60 45.18 46.04 C 44.38 46.99 43.59 47.94 42.79 48.89 C 42.20 47.87 41.60 46.86 41.01 45.85 C 43.42 44.24 46.23 42.76 48.19 40.61 C 48.69 38.32 47.37 35.70 47.84 33.39 C 49.13 32.08 50.82 31.12 52.35 30.11 C 53.31 31.57 54.29 33.01 55.26 34.46 C 55.94 31.54 56.51 28.61 56.93 25.65 C 60.78 23.53 64.38 22.25 68.72 21.56 Z" fill="#d8dadd" />
<path d="M 56.93 25.65 C 56.51 28.61 55.94 31.54 55.26 34.46 C 54.29 33.01 53.31 31.57 52.35 30.11 C 50.82 31.12 49.13 32.08 47.84 33.39 C 47.37 35.70 48.69 38.32 48.19 40.61 C 46.23 42.76 43.42 44.24 41.01 45.85 C 41.60 46.86 42.20 47.87 42.79 48.89 C 43.59 47.94 44.38 46.99 45.18 46.04 C 46.69 47.60 48.40 49.17 49.55 51.03 C 49.46 54.22 46.12 54.34 43.84 55.39 C 45.82 56.01 47.80 56.66 49.78 57.29 C 47.85 58.13 45.38 58.37 43.72 59.66 C 42.67 61.08 42.57 63.17 41.83 64.79 C 40.63 65.10 39.30 65.14 38.06 65.25 C 36.42 65.48 34.99 65.24 33.79 66.54 C 31.64 68.75 29.10 70.59 27.05 72.87 C 25.04 76.64 23.98 80.84 21.88 84.60 C 20.93 80.48 20.71 76.50 21.49 72.34 C 23.02 63.52 26.01 54.55 31.07 47.11 C 37.77 37.78 46.38 30.32 56.93 25.65 Z" fill="#c5c8ce" />
<path d="M 100.21 38.64 C 100.00 40.12 102.71 41.24 102.46 39.30 L 100.92 38.51 C 104.30 37.88 107.53 38.10 110.86 38.87 L 108.69 38.95 C 112.02 42.35 116.39 41.24 120.87 42.32 C 123.51 42.66 125.46 45.10 127.81 45.73 C 128.83 45.22 129.81 44.61 130.80 44.03 C 133.35 45.98 135.95 45.50 138.96 45.54 C 134.47 46.67 130.08 46.75 126.48 49.87 C 128.03 49.98 129.57 50.06 131.12 50.12 C 126.83 50.60 125.30 51.91 122.92 55.26 C 118.71 54.39 114.42 53.89 110.17 53.28 C 112.59 54.74 115.00 56.22 117.32 57.84 C 109.73 57.26 101.59 55.49 94.11 58.11 C 88.56 61.43 87.67 66.68 86.44 72.50 C 82.26 79.82 82.81 87.42 87.54 94.31 C 85.97 96.74 84.03 99.22 82.96 101.91 C 84.94 104.58 87.68 106.79 90.11 109.04 C 89.65 109.55 89.18 110.05 88.72 110.57 C 88.27 109.85 87.82 109.13 87.37 108.41 C 86.63 109.98 85.89 111.54 85.12 113.09 L 85.37 111.48 C 83.85 112.69 82.36 114.05 80.71 115.07 C 78.86 115.45 76.05 114.69 74.61 113.46 C 73.75 112.26 73.14 110.83 72.47 109.51 C 74.28 107.20 76.27 104.90 77.73 102.35 C 79.25 99.57 79.79 96.05 80.48 92.98 C 79.08 89.75 77.82 86.73 77.96 83.13 C 78.02 80.25 79.32 78.08 80.53 75.58 C 78.10 76.02 75.46 76.25 73.15 77.17 C 70.79 80.18 70.16 84.74 68.76 88.29 C 65.26 85.89 66.36 82.19 66.11 78.52 C 67.54 77.58 69.08 76.71 70.42 75.64 C 70.28 74.21 69.83 72.76 69.35 71.41 C 70.83 70.68 72.31 69.94 73.78 69.19 C 73.95 70.85 74.12 72.51 74.29 74.17 C 78.38 72.52 81.73 70.63 84.26 66.88 C 81.51 67.84 78.87 68.97 76.26 70.28 C 75.48 69.21 74.68 68.15 73.89 67.08 C 72.39 67.27 70.88 67.47 69.37 67.66 L 69.19 65.94 C 69.09 64.58 69.01 63.22 68.94 61.86 C 66.81 61.91 64.28 61.40 62.26 62.11 C 58.08 64.82 55.74 70.18 54.07 74.68 C 53.84 75.24 53.62 75.80 53.40 76.36 C 54.35 77.00 55.31 77.64 56.27 78.28 C 55.28 79.19 54.29 80.09 53.30 80.99 C 54.16 82.24 55.01 83.49 55.89 84.72 C 54.55 84.38 53.06 84.11 51.82 83.45 C 50.53 80.97 49.83 78.19 48.57 75.68 C 48.00 78.82 47.05 82.38 47.55 85.57 C 49.06 88.78 53.50 90.80 56.92 90.82 C 59.85 91.09 61.04 86.81 62.39 84.85 C 63.46 86.22 64.84 87.58 65.50 89.19 C 65.62 90.38 65.54 91.61 65.51 92.80 C 64.06 92.68 62.63 92.50 61.19 92.33 C 60.13 94.30 59.23 96.68 57.65 98.28 C 52.71 99.86 49.04 97.17 45.16 94.54 C 44.23 98.79 43.66 102.91 44.48 107.24 C 39.78 103.06 37.71 95.78 35.26 90.08 C 35.28 96.32 35.73 102.59 35.48 108.82 C 35.21 114.82 33.46 120.27 32.32 126.09 C 33.40 124.74 34.86 123.34 35.45 121.69 C 36.02 118.69 35.64 115.38 36.48 112.46 C 37.45 110.19 39.26 108.20 40.76 106.25 C 41.45 106.98 42.14 107.71 42.83 108.44 C 42.73 112.37 43.37 114.22 45.72 117.35 C 45.91 115.59 46.07 113.82 46.23 112.05 C 47.86 114.30 49.13 116.74 50.36 119.22 L 50.93 120.35 L 50.09 122.01 C 49.27 121.63 48.44 121.26 47.61 120.90 C 47.55 122.70 47.57 124.49 47.60 126.29 C 45.92 125.57 43.95 124.11 42.10 124.91 C 40.23 125.63 37.89 126.69 37.91 129.03 C 37.53 132.72 38.09 136.59 38.37 140.29 C 34.87 137.19 31.77 133.79 28.95 130.07 C 28.24 127.45 27.67 124.81 27.25 122.12 C 27.84 118.67 28.39 115.96 26.49 112.78 C 26.57 111.70 26.68 110.62 26.78 109.55 C 27.54 106.81 28.33 104.10 28.76 101.28 C 27.97 100.75 27.16 100.22 26.35 99.71 C 26.44 98.59 26.55 97.48 26.67 96.36 C 28.57 92.17 29.37 87.78 31.76 83.81 C 34.88 78.38 37.79 72.59 42.24 68.21 C 46.55 63.75 49.67 59.00 54.40 55.40 C 57.72 52.84 61.25 50.64 64.38 47.82 L 64.96 47.33 C 67.64 49.04 68.78 47.07 70.11 44.98 L 70.61 44.58 C 71.34 46.78 74.19 45.30 72.03 43.80 C 73.73 43.26 75.44 42.74 77.13 42.17 L 77.28 42.95 C 78.14 43.51 78.67 43.17 78.90 41.91 C 82.12 41.14 85.35 40.24 88.62 39.69 C 92.48 39.04 96.33 39.19 100.21 38.64 Z" fill="#93aec5" />
<path d="M 100.21 38.64 L 100.92 38.51 L 102.46 39.30 C 102.71 41.24 100.00 40.12 100.21 38.64 Z" fill="#3e475a" />
<path d="M 108.69 38.95 L 110.86 38.87 C 114.29 39.70 117.66 39.44 121.13 39.68 C 130.78 40.31 140.40 40.12 150.04 40.98 C 154.84 41.48 160.10 40.05 164.93 39.67 C 168.66 39.27 172.42 39.31 176.16 38.92 C 175.33 40.19 174.68 41.73 173.58 42.78 C 169.76 45.14 165.59 46.37 161.32 47.59 C 161.46 46.30 161.60 45.02 161.75 43.74 C 160.94 44.79 160.14 45.84 159.34 46.89 C 159.67 47.79 159.99 48.70 160.32 49.61 C 162.36 50.36 164.40 51.13 166.39 52.00 C 165.36 52.76 164.32 53.51 163.26 54.23 C 165.28 59.09 167.27 61.52 171.67 64.41 C 171.09 63.17 170.49 61.93 169.90 60.69 C 170.84 60.14 171.78 59.60 172.72 59.06 C 171.33 58.68 169.72 58.55 168.50 57.78 C 167.55 56.22 166.83 54.49 166.09 52.82 C 169.36 53.16 172.68 53.40 175.92 54.00 C 176.92 54.15 177.72 55.21 178.49 55.82 C 183.10 54.69 187.58 55.65 190.74 59.35 C 192.15 58.63 193.58 57.92 195.04 57.28 C 194.88 58.27 194.71 59.25 194.54 60.23 C 196.62 59.60 198.75 59.00 200.90 58.70 C 202.26 58.81 203.37 60.30 204.47 61.04 C 200.22 62.67 198.47 66.78 193.96 67.63 C 194.70 69.95 195.34 72.05 197.28 73.68 C 200.62 76.67 204.02 79.67 207.47 82.54 L 206.41 83.48 C 205.23 83.16 204.06 82.77 202.88 82.44 C 198.82 81.80 193.99 81.98 190.28 80.17 C 188.72 77.76 188.34 73.90 186.16 71.98 C 182.77 71.08 179.22 70.88 175.79 70.10 C 174.63 69.77 173.49 69.41 172.34 69.04 C 167.71 65.04 162.43 62.16 157.41 58.73 C 155.59 57.44 153.66 57.46 151.52 57.26 C 150.46 56.29 149.35 55.38 148.24 54.45 C 149.16 53.25 149.91 51.60 151.16 50.73 C 153.31 50.16 155.70 50.28 157.91 50.16 C 155.66 49.59 153.43 48.98 151.22 48.27 C 150.96 48.99 150.71 49.71 150.45 50.43 C 149.28 49.73 148.12 48.97 146.89 48.40 C 144.17 49.47 142.35 51.14 139.20 50.78 C 136.52 50.40 133.83 50.17 131.12 50.12 C 129.57 50.06 128.03 49.98 126.48 49.87 C 130.08 46.75 134.47 46.67 138.96 45.54 C 135.95 45.50 133.35 45.98 130.80 44.03 C 129.81 44.61 128.83 45.22 127.81 45.73 C 125.46 45.10 123.51 42.66 120.87 42.32 C 116.39 41.24 112.02 42.35 108.69 38.95 Z" fill="#21233f" />
<path d="M 77.13 42.17 L 78.90 41.91 C 78.67 43.17 78.14 43.51 77.28 42.95 L 77.13 42.17 Z" fill="#393e4e" />
<path d="M 84.46 43.81 C 86.42 44.78 88.16 46.04 89.92 47.32 C 88.06 48.47 86.12 49.81 84.04 50.50 C 82.90 49.97 81.82 49.24 80.76 48.56 C 81.54 47.64 82.31 46.73 83.09 45.81 C 82.98 44.98 82.88 44.14 82.78 43.31 L 83.19 43.42 C 83.61 43.54 84.03 43.67 84.46 43.81 Z" fill="#7c97bc" />
<path d="M 72.03 43.80 C 74.19 45.30 71.34 46.78 70.61 44.58 L 72.03 43.80 Z" fill="#5e6976" />
<path d="M 70.11 44.98 C 68.78 47.07 67.64 49.04 64.96 47.33 C 66.44 46.02 68.21 45.42 70.11 44.98 Z" fill="#616977" />
<path d="M 64.38 47.82 C 61.25 50.64 57.72 52.84 54.40 55.40 C 49.67 59.00 46.55 63.75 42.24 68.21 C 37.79 72.59 34.88 78.38 31.76 83.81 C 29.37 87.78 28.57 92.17 26.67 96.36 C 27.07 89.56 28.71 82.82 31.58 76.64 C 33.75 72.85 36.06 69.14 38.06 65.25 C 39.30 65.14 40.63 65.10 41.83 64.79 C 42.57 63.17 42.67 61.08 43.72 59.66 C 45.38 58.37 47.85 58.13 49.78 57.29 C 51.51 55.36 53.17 53.24 55.02 51.43 C 58.07 49.56 60.60 47.48 64.38 47.82 Z" fill="#20243f" />
<path d="M 146.89 48.40 C 148.12 48.97 149.28 49.73 150.45 50.43 C 150.71 49.71 150.96 48.99 151.22 48.27 C 153.43 48.98 155.66 49.59 157.91 50.16 C 155.70 50.28 153.31 50.16 151.16 50.73 C 149.91 51.60 149.16 53.25 148.24 54.45 C 149.35 55.38 150.46 56.29 151.52 57.26 C 153.69 59.75 155.87 62.23 158.07 64.69 C 157.39 65.46 156.71 66.24 156.03 67.01 L 155.37 66.74 C 154.75 66.55 154.13 66.37 153.50 66.20 C 152.38 61.15 145.73 61.86 141.79 62.12 C 141.36 60.21 140.35 58.64 139.33 56.99 C 138.43 55.06 137.87 53.01 137.48 50.92 L 139.20 50.78 C 142.35 51.14 144.17 49.47 146.89 48.40 Z" fill="#c9ccda" />
<path d="M 94.55 48.90 C 94.24 50.15 93.92 51.39 93.60 52.63 C 94.85 52.72 96.11 52.83 97.36 52.93 C 92.83 57.83 86.07 59.60 79.60 58.60 C 82.30 55.97 84.87 53.17 87.72 50.70 C 89.44 49.03 92.30 49.23 94.55 48.90 Z" fill="#7c96bb" />
<path d="M 131.12 50.12 C 133.83 50.17 136.52 50.40 139.20 50.78 L 137.48 50.92 C 137.87 53.01 138.43 55.06 139.33 56.99 C 136.82 58.55 135.21 60.10 132.07 59.15 C 129.16 57.51 126.18 56.06 122.92 55.26 C 125.30 51.91 126.83 50.60 131.12 50.12 Z" fill="#a6b3cc" />
<path d="M 159.17 50.98 C 160.96 49.77 162.10 52.55 160.00 52.98 C 158.87 52.67 158.60 52.01 159.17 50.98 Z" fill="#8c8ea4" />
<path d="M 110.17 53.28 C 114.42 53.89 118.71 54.39 122.92 55.26 C 126.18 56.06 129.16 57.51 132.07 59.15 C 136.11 64.34 137.22 70.00 139.32 76.07 C 139.56 71.26 140.08 66.65 141.79 62.12 C 145.73 61.86 152.38 61.15 153.50 66.20 C 151.99 66.06 150.48 65.95 148.97 65.85 C 149.05 66.78 149.13 67.71 149.22 68.64 C 152.14 70.09 155.06 71.54 158.04 72.86 C 157.19 70.80 156.28 68.77 155.37 66.74 L 156.03 67.01 C 158.74 68.47 161.32 70.22 163.80 72.04 C 167.10 74.38 169.70 77.97 172.37 81.03 C 179.14 89.00 186.06 96.61 191.16 105.83 C 185.69 104.78 182.46 101.21 178.36 97.85 C 181.98 105.58 187.85 112.72 191.12 120.63 C 191.97 125.24 190.56 129.88 192.13 134.53 C 194.62 127.44 192.59 121.05 196.63 114.41 C 199.55 120.64 201.24 127.29 203.95 133.58 C 203.18 134.87 201.87 136.45 201.98 138.02 C 202.14 142.66 202.71 147.33 203.22 151.95 C 203.28 154.42 205.73 155.68 207.40 157.10 C 205.93 157.54 204.47 158.00 203.02 158.48 C 204.07 159.32 205.14 160.15 206.22 160.98 C 204.64 166.40 202.44 171.75 201.32 177.28 C 203.70 173.35 204.37 168.98 206.34 164.86 C 208.06 168.82 205.15 173.35 203.75 177.05 C 203.19 178.36 202.64 179.68 202.08 181.00 C 199.98 186.41 197.48 191.48 194.33 196.36 C 192.15 199.68 191.08 203.34 189.63 206.99 C 188.70 208.82 188.51 210.39 188.57 212.42 C 187.24 213.73 185.81 214.91 184.37 216.09 C 184.75 214.12 185.15 212.15 185.56 210.18 C 181.14 213.70 177.04 217.47 173.08 221.50 C 171.83 221.11 170.58 220.72 169.33 220.38 C 166.12 221.54 163.87 224.96 161.22 227.08 C 160.72 225.51 160.23 223.93 159.73 222.36 C 160.25 221.69 160.76 221.00 161.26 220.32 C 163.48 218.75 165.56 217.41 166.82 214.91 C 168.24 212.02 170.60 210.45 173.04 208.54 C 173.73 207.22 174.34 205.86 174.92 204.50 C 178.21 197.41 180.02 189.91 181.11 182.20 C 181.92 176.60 181.74 171.30 183.19 165.75 C 184.66 160.06 184.09 154.93 184.71 148.95 C 185.14 144.47 184.55 140.29 184.20 135.81 C 183.85 130.86 183.27 125.92 182.60 121.00 C 182.16 130.10 182.83 138.82 180.46 147.73 C 175.29 140.36 172.20 131.93 167.04 124.55 C 166.19 125.08 165.33 125.60 164.47 126.12 C 165.81 128.91 167.32 131.31 169.28 133.71 C 171.96 137.02 173.60 140.81 175.12 144.75 C 172.43 140.22 169.39 135.94 166.43 131.59 C 164.65 128.55 162.87 125.51 161.24 122.38 C 161.01 119.79 160.82 117.19 160.53 114.60 C 162.05 113.96 163.58 113.32 165.10 112.68 C 164.99 109.65 165.24 105.96 163.74 103.25 C 161.97 99.91 158.81 97.17 155.74 95.06 C 146.72 95.39 140.69 100.06 133.11 104.17 C 129.07 106.58 125.03 108.96 120.78 111.01 C 120.49 110.26 120.20 109.52 119.91 108.78 L 120.31 108.15 L 121.04 106.99 C 122.24 106.54 122.50 105.96 121.79 105.25 L 120.99 105.26 C 121.16 104.54 121.33 103.83 121.51 103.11 C 122.57 99.04 123.48 94.94 124.10 90.78 C 128.07 94.32 133.52 93.57 138.43 93.47 C 138.65 92.95 138.87 92.44 139.09 91.92 C 135.32 91.58 131.19 91.59 127.60 90.35 C 125.72 89.37 124.19 87.64 122.65 86.21 C 126.18 86.17 129.81 86.57 133.32 86.15 C 136.27 85.78 138.26 84.06 140.39 82.17 C 134.65 84.02 129.61 85.87 123.58 83.78 C 122.51 82.25 121.42 80.74 120.32 79.24 L 121.73 79.05 C 127.42 78.87 132.68 78.70 137.33 74.97 C 134.69 74.77 131.81 74.50 129.20 75.08 C 126.85 76.10 124.75 77.63 122.43 78.71 C 118.08 76.04 115.58 71.93 111.82 68.62 C 111.56 71.90 111.90 75.25 111.44 78.51 C 110.76 80.84 108.05 82.31 105.75 82.52 C 101.44 82.99 96.62 82.50 92.89 80.12 C 90.19 78.39 88.30 75.06 86.44 72.50 C 87.67 66.68 88.56 61.43 94.11 58.11 C 101.59 55.49 109.73 57.26 117.32 57.84 C 115.00 56.22 112.59 54.74 110.17 53.28 Z" fill="#f0f0f0" />
<path d="M 139.33 56.99 C 140.35 58.64 141.36 60.21 141.79 62.12 C 140.08 66.65 139.56 71.26 139.32 76.07 C 137.22 70.00 136.11 64.34 132.07 59.15 C 135.21 60.10 136.82 58.55 139.33 56.99 Z" fill="#8cb3b9" />
<path d="M 151.52 57.26 C 153.66 57.46 155.59 57.44 157.41 58.73 C 162.43 62.16 167.71 65.04 172.34 69.04 C 171.40 69.81 170.47 70.59 169.55 71.39 C 166.72 68.88 164.20 66.23 161.06 64.09 C 160.13 64.37 159.21 64.67 158.29 64.98 C 159.84 66.69 161.46 68.65 163.39 69.94 C 165.32 71.22 168.00 71.50 170.22 71.96 C 171.98 73.02 173.97 74.15 175.37 75.67 C 176.67 77.18 177.34 79.37 178.08 81.20 C 175.65 79.69 173.34 78.02 171.07 76.28 C 171.49 77.87 171.89 79.47 172.37 81.03 C 169.70 77.97 167.10 74.38 163.80 72.04 C 161.32 70.22 158.74 68.47 156.03 67.01 C 156.71 66.24 157.39 65.46 158.07 64.69 C 155.87 62.23 153.69 59.75 151.52 57.26 Z" fill="#6871ae" />
<path d="M 68.94 61.86 C 69.01 63.22 69.09 64.58 69.19 65.94 C 68.50 65.70 67.80 65.48 67.09 65.26 C 67.02 66.48 66.95 67.71 66.89 68.93 C 65.75 68.52 64.60 68.14 63.43 67.84 C 62.38 69.73 61.43 71.68 60.46 73.61 C 62.30 73.83 64.14 74.07 65.98 74.31 C 66.75 72.92 67.53 71.54 68.30 70.15 L 69.35 71.41 C 69.83 72.76 70.28 74.21 70.42 75.64 C 69.08 76.71 67.54 77.58 66.11 78.52 C 64.73 79.56 63.50 80.76 62.29 82.00 C 60.23 77.80 58.44 76.42 54.07 74.68 C 55.74 70.18 58.08 64.82 62.26 62.11 C 64.28 61.40 66.81 61.91 68.94 61.86 Z" fill="#b1c7d7" />
<path d="M 161.06 64.09 C 164.20 66.23 166.72 68.88 169.55 71.39 L 170.22 71.96 C 168.00 71.50 165.32 71.22 163.39 69.94 C 161.46 68.65 159.84 66.69 158.29 64.98 C 159.21 64.67 160.13 64.37 161.06 64.09 Z" fill="#c4c9e2" />
<path d="M 67.09 65.26 C 67.80 65.48 68.50 65.70 69.19 65.94 L 69.37 67.66 C 70.88 67.47 72.39 67.27 73.89 67.08 C 74.68 68.15 75.48 69.21 76.26 70.28 C 78.87 68.97 81.51 67.84 84.26 66.88 C 81.73 70.63 78.38 72.52 74.29 74.17 C 74.12 72.51 73.95 70.85 73.78 69.19 C 72.31 69.94 70.83 70.68 69.35 71.41 L 68.30 70.15 L 66.89 68.93 C 66.95 67.71 67.02 66.48 67.09 65.26 Z" fill="#4b689a" />
<path d="M 178.42 65.17 C 179.94 64.19 180.97 66.63 179.15 66.94 C 178.18 66.62 177.94 66.03 178.42 65.17 Z" fill="#9296aa" />
<path d="M 148.97 65.85 C 150.48 65.95 151.99 66.06 153.50 66.20 C 154.13 66.37 154.75 66.55 155.37 66.74 C 156.28 68.77 157.19 70.80 158.04 72.86 C 155.06 71.54 152.14 70.09 149.22 68.64 C 149.13 67.71 149.05 66.78 148.97 65.85 Z" fill="#91b0b6" />
<path d="M 184.82 66.64 C 186.59 66.94 188.35 67.31 190.12 67.66 C 189.41 68.61 188.69 69.56 187.98 70.51 C 186.91 69.23 185.83 67.96 184.82 66.64 Z" fill="#585b75" />
<path d="M 63.43 67.84 C 64.60 68.14 65.75 68.52 66.89 68.93 L 68.30 70.15 C 67.53 71.54 66.75 72.92 65.98 74.31 C 64.14 74.07 62.30 73.83 60.46 73.61 C 61.43 71.68 62.38 69.73 63.43 67.84 Z" fill="#90acc2" />
<path d="M 145.32 67.50 C 146.48 66.76 149.11 69.58 148.45 70.71 C 147.21 71.45 144.54 68.73 145.32 67.50 Z" fill="#9eb1b5" />
<path d="M 111.82 68.62 C 115.58 71.93 118.08 76.04 122.43 78.71 L 121.73 79.05 L 120.32 79.24 C 121.42 80.74 122.51 82.25 123.58 83.78 C 122.30 85.02 121.05 86.28 119.79 87.54 C 121.23 88.62 122.65 89.71 124.10 90.78 C 123.48 94.94 122.57 99.04 121.51 103.11 C 118.22 101.74 114.01 100.09 111.84 97.15 C 111.90 93.57 113.62 90.20 113.20 86.45 C 112.48 86.83 111.77 87.21 111.06 87.61 C 110.62 88.30 110.19 88.99 109.77 89.69 C 109.24 89.45 108.70 89.20 108.17 88.95 C 102.19 85.56 95.49 84.72 89.49 88.51 C 88.79 90.12 88.46 91.95 87.97 93.64 L 87.54 94.31 C 82.81 87.42 82.26 79.82 86.44 72.50 C 88.30 75.06 90.19 78.39 92.89 80.12 C 96.62 82.50 101.44 82.99 105.75 82.52 C 108.05 82.31 110.76 80.84 111.44 78.51 C 111.90 75.25 111.56 71.90 111.82 68.62 Z" fill="#a4bccc" />
<path d="M 172.34 69.04 C 173.49 69.41 174.63 69.77 175.79 70.10 L 173.80 70.21 C 176.99 74.73 181.29 77.86 185.34 81.75 C 188.34 84.70 190.84 87.89 192.68 91.70 C 193.86 94.10 195.56 96.09 197.44 97.97 C 200.50 108.00 209.54 118.13 211.00 129.06 C 212.49 136.43 211.06 143.31 211.22 150.68 C 210.33 151.12 209.45 151.57 208.57 152.02 C 208.82 145.46 206.86 139.37 203.95 133.58 C 201.24 127.29 199.55 120.64 196.63 114.41 C 196.39 112.14 196.41 109.78 196.39 107.49 C 194.65 106.93 192.91 106.37 191.16 105.83 C 186.06 96.61 179.14 89.00 172.37 81.03 C 171.89 79.47 171.49 77.87 171.07 76.28 C 173.34 78.02 175.65 79.69 178.08 81.20 C 177.34 79.37 176.67 77.18 175.37 75.67 C 173.97 74.15 171.98 73.02 170.22 71.96 L 169.55 71.39 C 170.47 70.59 171.40 69.81 172.34 69.04 Z" fill="#3c4aa0" />
<path d="M 173.80 70.21 L 175.79 70.10 C 179.22 70.88 182.77 71.08 186.16 71.98 C 188.34 73.90 188.72 77.76 190.28 80.17 C 193.99 81.98 198.82 81.80 202.88 82.44 C 202.65 82.79 202.43 83.15 202.20 83.51 L 201.21 83.53 C 195.57 84.16 190.87 80.93 185.34 81.75 C 181.29 77.86 176.99 74.73 173.80 70.21 Z" fill="#90b8bd" />
<path d="M 195.39 69.84 C 198.81 71.46 201.99 74.09 203.81 77.46 C 200.56 75.74 197.14 73.14 195.39 69.84 Z" fill="#363646" />
<path d="M 159.45 73.47 C 159.25 79.90 156.53 85.06 154.29 90.91 C 153.58 86.50 152.14 81.58 152.80 77.12 C 154.16 74.14 156.66 74.23 159.45 73.47 Z" fill="#8db4b9" />
<path d="M 54.07 74.68 C 58.44 76.42 60.23 77.80 62.29 82.00 C 60.09 84.02 59.16 85.99 55.89 84.72 C 55.01 83.49 54.16 82.24 53.30 80.99 C 54.29 80.09 55.28 79.19 56.27 78.28 C 55.31 77.64 54.35 77.00 53.40 76.36 C 53.62 75.80 53.84 75.24 54.07 74.68 Z" fill="#d0dde9" />
<path d="M 129.20 75.08 C 131.81 74.50 134.69 74.77 137.33 74.97 C 132.68 78.70 127.42 78.87 121.73 79.05 L 122.43 78.71 C 124.75 77.63 126.85 76.10 129.20 75.08 Z" fill="#15152f" />
<path d="M 48.57 75.68 C 49.83 78.19 50.53 80.97 51.82 83.45 C 53.06 84.11 54.55 84.38 55.89 84.72 C 59.16 85.99 60.09 84.02 62.29 82.00 C 63.50 80.76 64.73 79.56 66.11 78.52 C 66.36 82.19 65.26 85.89 68.76 88.29 C 69.51 88.83 70.26 89.36 71.01 89.89 C 71.78 87.58 72.47 85.25 73.08 82.88 C 73.91 82.66 74.74 82.43 75.57 82.21 C 74.70 84.41 73.87 86.62 73.07 88.84 C 74.15 88.85 75.22 88.86 76.30 88.87 C 72.83 90.76 69.64 93.10 65.51 92.80 C 65.54 91.61 65.62 90.38 65.50 89.19 C 64.84 87.58 63.46 86.22 62.39 84.85 C 61.04 86.81 59.85 91.09 56.92 90.82 C 53.50 90.80 49.06 88.78 47.55 85.57 C 47.05 82.38 48.00 78.82 48.57 75.68 Z" fill="#4261a4" />
<path d="M 80.53 75.58 C 79.32 78.08 78.02 80.25 77.96 83.13 C 77.82 86.73 79.08 89.75 80.48 92.98 C 79.79 96.05 79.25 99.57 77.73 102.35 C 76.27 104.90 74.28 107.20 72.47 109.51 C 70.93 106.26 68.69 103.51 66.10 101.04 C 65.59 102.99 65.14 104.96 64.70 106.94 C 64.47 107.95 64.24 108.97 63.97 109.98 C 62.57 112.70 60.87 115.23 59.09 117.72 C 56.55 117.04 53.06 116.94 51.36 114.72 C 49.18 112.09 47.07 109.49 44.48 107.24 C 43.66 102.91 44.23 98.79 45.16 94.54 C 49.04 97.17 52.71 99.86 57.65 98.28 C 59.23 96.68 60.13 94.30 61.19 92.33 C 62.63 92.50 64.06 92.68 65.51 92.80 C 69.64 93.10 72.83 90.76 76.30 88.87 C 75.22 88.86 74.15 88.85 73.07 88.84 C 73.87 86.62 74.70 84.41 75.57 82.21 C 74.74 82.43 73.91 82.66 73.08 82.88 C 72.47 85.25 71.78 87.58 71.01 89.89 C 70.26 89.36 69.51 88.83 68.76 88.29 C 70.16 84.74 70.79 80.18 73.15 77.17 C 75.46 76.25 78.10 76.02 80.53 75.58 Z" fill="#cddbe6" />
<path d="M 204.90 78.24 C 206.39 78.03 207.88 80.35 208.70 81.39 C 208.30 81.79 207.89 82.17 207.47 82.54 C 206.73 81.32 204.82 79.68 204.90 78.24 Z" fill="#454857" />
<path d="M 201.21 83.53 C 204.64 88.47 207.05 93.60 209.23 99.18 C 203.55 96.76 198.86 93.05 192.68 91.70 C 190.84 87.89 188.34 84.70 185.34 81.75 C 190.87 80.93 195.57 84.16 201.21 83.53 Z" fill="#20223f" />
<path d="M 140.39 82.17 C 138.26 84.06 136.27 85.78 133.32 86.15 C 129.81 86.57 126.18 86.17 122.65 86.21 C 124.19 87.64 125.72 89.37 127.60 90.35 C 131.19 91.59 135.32 91.58 139.09 91.92 C 138.87 92.44 138.65 92.95 138.43 93.47 C 133.52 93.57 128.07 94.32 124.10 90.78 C 122.65 89.71 121.23 88.62 119.79 87.54 C 121.05 86.28 122.30 85.02 123.58 83.78 C 129.61 85.87 134.65 84.02 140.39 82.17 Z" fill="#454453" />
<path d="M 201.21 83.53 L 202.20 83.51 C 207.03 87.85 209.76 94.97 212.16 100.89 C 215.70 109.38 217.87 118.35 218.96 127.47 C 218.86 129.49 218.52 131.47 218.08 133.44 C 217.34 131.92 215.98 130.20 216.19 128.44 C 216.45 125.01 216.95 121.87 215.65 118.54 C 213.63 113.07 211.84 107.74 210.40 102.08 C 210.05 101.10 209.64 100.14 209.23 99.18 C 207.05 93.60 204.64 88.47 201.21 83.53 Z" fill="#3b4992" />
<path d="M 108.17 88.95 C 107.24 89.43 106.30 89.91 105.37 90.39 C 106.12 94.42 108.94 97.17 110.14 101.02 C 108.35 101.61 106.56 102.24 104.74 102.74 C 103.72 102.74 102.70 102.73 101.68 102.74 C 100.93 102.14 100.19 101.53 99.45 100.92 C 100.40 97.77 98.99 96.52 97.14 94.19 C 93.43 99.23 91.57 104.56 93.48 110.78 C 93.28 112.26 93.06 113.73 92.83 115.20 C 91.53 109.75 90.35 104.80 86.24 100.70 C 87.29 99.38 88.49 98.04 89.24 96.53 C 88.95 95.53 88.44 94.57 87.97 93.64 C 88.46 91.95 88.79 90.12 89.49 88.51 C 95.49 84.72 102.19 85.56 108.17 88.95 Z" fill="#d4e0e6" />
<path d="M 168.39 85.77 C 171.63 88.00 175.14 90.27 177.74 93.25 C 176.56 98.87 173.98 104.05 173.25 109.84 C 172.80 109.52 172.35 109.20 171.90 108.87 C 172.27 105.57 172.62 102.19 172.52 98.86 C 172.55 94.44 169.75 89.99 168.39 85.77 Z" fill="#8db4ba" />
<path d="M 111.06 87.61 C 111.77 87.21 112.48 86.83 113.20 86.45 C 113.62 90.20 111.90 93.57 111.84 97.15 C 114.01 100.09 118.22 101.74 121.51 103.11 C 121.33 103.83 121.16 104.54 120.99 105.26 L 121.04 106.99 L 120.31 108.15 C 119.47 106.69 117.67 107.36 118.12 109.01 L 116.01 108.97 C 115.04 107.40 114.42 107.42 114.16 109.03 C 112.78 108.72 111.45 108.41 110.13 107.93 C 108.36 106.17 106.64 104.38 104.74 102.74 C 106.56 102.24 108.35 101.61 110.14 101.02 C 108.94 97.17 106.12 94.42 105.37 90.39 C 106.30 89.91 107.24 89.43 108.17 88.95 C 108.70 89.20 109.24 89.45 109.77 89.69 C 110.19 88.99 110.62 88.30 111.06 87.61 Z" fill="#b8cbd7" />
<path d="M 35.26 90.08 C 37.71 95.78 39.78 103.06 44.48 107.24 C 47.07 109.49 49.18 112.09 51.36 114.72 C 53.06 116.94 56.55 117.04 59.09 117.72 C 60.87 115.23 62.57 112.70 63.97 109.98 C 65.06 114.02 63.10 119.16 59.83 121.67 C 56.78 121.31 54.06 118.96 51.64 117.21 C 51.22 117.88 50.79 118.55 50.36 119.22 C 49.13 116.74 47.86 114.30 46.23 112.05 C 45.14 110.80 43.99 109.62 42.83 108.44 C 42.14 107.71 41.45 106.98 40.76 106.25 C 39.26 108.20 37.45 110.19 36.48 112.46 C 35.64 115.38 36.02 118.69 35.45 121.69 C 34.86 123.34 33.40 124.74 32.32 126.09 C 33.46 120.27 35.21 114.82 35.48 108.82 C 35.73 102.59 35.28 96.32 35.26 90.08 Z" fill="#405ea3" />
<path d="M 192.68 91.70 C 198.86 93.05 203.55 96.76 209.23 99.18 C 209.64 100.14 210.05 101.10 210.40 102.08 C 205.91 101.04 201.54 100.20 197.44 97.97 C 195.56 96.09 193.86 94.10 192.68 91.70 Z" fill="#93bcc3" />
<path d="M 87.54 94.31 L 87.97 93.64 C 88.44 94.57 88.95 95.53 89.24 96.53 C 88.49 98.04 87.29 99.38 86.24 100.70 C 90.35 104.80 91.53 109.75 92.83 115.20 C 93.06 113.73 93.28 112.26 93.48 110.78 L 93.80 111.71 L 94.23 113.07 C 94.35 114.93 94.40 116.80 94.54 118.66 C 92.06 122.07 92.13 125.45 92.43 129.47 C 91.15 129.48 89.86 129.50 88.57 129.52 C 88.25 128.11 87.92 126.70 87.60 125.28 C 86.79 125.06 85.98 124.83 85.17 124.60 C 84.42 125.59 83.67 126.56 82.91 127.54 C 82.40 127.87 81.89 128.21 81.39 128.56 C 81.01 129.41 80.67 130.29 80.37 131.18 C 80.26 130.18 80.15 129.19 80.03 128.19 C 77.94 128.25 75.67 128.58 73.60 128.15 C 71.90 126.92 70.71 124.88 69.45 123.22 C 67.23 124.90 64.16 128.31 61.15 127.87 C 58.06 126.55 55.78 123.82 52.51 122.66 C 51.99 121.89 51.46 121.12 50.93 120.35 L 50.36 119.22 C 50.79 118.55 51.22 117.88 51.64 117.21 C 54.06 118.96 56.78 121.31 59.83 121.67 C 63.10 119.16 65.06 114.02 63.97 109.98 C 64.24 108.97 64.47 107.95 64.70 106.94 C 67.35 110.73 70.40 115.28 74.69 117.33 C 78.68 119.33 83.64 117.30 85.12 113.09 C 85.89 111.54 86.63 109.98 87.37 108.41 C 87.82 109.13 88.27 109.85 88.72 110.57 C 89.18 110.05 89.65 109.55 90.11 109.04 C 87.68 106.79 84.94 104.58 82.96 101.91 C 84.03 99.22 85.97 96.74 87.54 94.31 Z" fill="#a8c2d6" />
<path d="M 155.74 95.06 C 158.81 97.17 161.97 99.91 163.74 103.25 C 165.24 105.96 164.99 109.65 165.10 112.68 C 163.58 113.32 162.05 113.96 160.53 114.60 C 160.82 117.19 161.01 119.79 161.24 122.38 C 159.77 119.93 158.56 117.52 156.59 115.45 C 153.41 112.08 150.96 108.38 147.21 105.53 C 148.89 108.56 151.11 111.17 152.94 114.08 C 154.83 117.05 155.85 120.45 157.35 123.63 C 160.39 129.31 162.42 135.64 164.30 141.79 C 164.20 143.26 164.08 144.73 163.94 146.19 C 162.05 141.76 160.37 137.25 158.37 132.87 C 157.92 136.87 158.33 142.44 155.82 145.79 C 153.42 149.09 149.01 148.12 145.62 147.34 C 134.43 143.89 124.11 140.81 115.44 132.51 C 113.25 130.38 112.51 127.79 111.54 125.01 C 110.84 124.79 110.14 124.57 109.44 124.36 C 109.75 121.87 109.84 119.09 110.84 116.78 C 112.39 114.60 115.53 113.44 117.84 112.22 C 116.14 111.96 114.44 111.67 112.74 111.37 C 114.80 110.47 116.85 109.71 119.01 109.07 L 119.91 108.78 C 120.20 109.52 120.49 110.26 120.78 111.01 C 125.03 108.96 129.07 106.58 133.11 104.17 C 140.69 100.06 146.72 95.39 155.74 95.06 Z" fill="#f8f8f8" />
<path d="M 220.84 94.17 C 223.75 98.24 227.55 102.11 229.38 106.68 C 232.10 113.64 234.83 119.97 234.45 127.63 C 233.98 133.87 235.78 139.78 234.93 145.98 C 234.29 150.65 233.25 155.33 231.96 159.86 C 230.16 166.13 225.98 171.24 222.62 176.72 C 221.24 176.03 219.70 175.41 218.49 174.44 C 216.29 171.70 216.64 168.24 216.89 164.97 C 218.41 164.78 220.00 164.61 221.48 164.23 C 222.63 162.25 221.88 160.51 221.52 158.44 C 220.97 156.02 220.56 153.62 220.31 151.14 C 220.92 151.05 221.53 150.95 222.14 150.85 C 222.22 152.42 222.31 154.00 222.40 155.57 C 222.88 156.19 223.37 156.82 223.85 157.44 C 223.95 153.87 225.26 150.98 227.00 147.92 C 224.00 145.87 221.54 143.60 219.57 140.52 C 218.56 138.73 218.00 137.09 217.74 135.06 L 218.08 133.44 C 218.52 131.47 218.86 129.49 218.96 127.47 C 219.50 127.41 220.05 127.34 220.59 127.27 C 221.74 120.73 223.46 114.64 223.22 107.99 C 223.10 103.23 222.01 98.75 220.84 94.17 Z" fill="#c2c5cc" />
<path d="M 97.14 94.19 C 98.99 96.52 100.40 97.77 99.45 100.92 C 98.24 101.71 97.05 102.54 95.85 103.36 C 95.52 102.24 95.17 101.11 94.82 99.98 C 94.28 104.11 95.71 107.72 93.80 111.71 L 93.48 110.78 C 91.57 104.56 93.43 99.23 97.14 94.19 Z" fill="#1e203d" />
<path d="M 127.04 97.62 C 126.59 100.35 126.31 101.74 123.91 103.36 C 124.56 101.00 125.34 99.39 127.04 97.62 Z" fill="#86888e" />
<path d="M 178.36 97.85 C 182.46 101.21 185.69 104.78 191.16 105.83 C 192.91 106.37 194.65 106.93 196.39 107.49 C 196.41 109.78 196.39 112.14 196.63 114.41 C 192.59 121.05 194.62 127.44 192.13 134.53 C 190.56 129.88 191.97 125.24 191.12 120.63 C 187.85 112.72 181.98 105.58 178.36 97.85 Z" fill="#8db5bb" />
<path d="M 197.44 97.97 C 201.54 100.20 205.91 101.04 210.40 102.08 C 211.84 107.74 213.63 113.07 215.65 118.54 C 216.95 121.87 216.45 125.01 216.19 128.44 C 215.98 130.20 217.34 131.92 218.08 133.44 L 217.74 135.06 C 216.51 140.03 215.34 145.38 212.85 149.89 L 211.22 150.68 C 211.06 143.31 212.49 136.43 211.00 129.06 C 209.54 118.13 200.50 108.00 197.44 97.97 Z" fill="#202240" />
<path d="M 26.35 99.71 C 27.16 100.22 27.97 100.75 28.76 101.28 C 28.33 104.10 27.54 106.81 26.78 109.55 C 26.22 106.24 25.99 103.06 26.35 99.71 Z" fill="#6b7a8c" />
<path d="M 94.82 99.98 C 95.17 101.11 95.52 102.24 95.85 103.36 C 97.05 102.54 98.24 101.71 99.45 100.92 C 100.19 101.53 100.93 102.14 101.68 102.74 C 104.36 104.81 106.87 106.81 110.13 107.93 C 111.45 108.41 112.78 108.72 114.16 109.03 L 116.01 108.97 L 118.12 109.01 L 119.01 109.07 C 116.85 109.71 114.80 110.47 112.74 111.37 C 114.44 111.67 116.14 111.96 117.84 112.22 C 115.53 113.44 112.39 114.60 110.84 116.78 C 109.84 119.09 109.75 121.87 109.44 124.36 C 110.14 124.57 110.84 124.79 111.54 125.01 C 112.51 127.79 113.25 130.38 115.44 132.51 C 124.11 140.81 134.43 143.89 145.62 147.34 C 149.01 148.12 153.42 149.09 155.82 145.79 C 158.33 142.44 157.92 136.87 158.37 132.87 C 160.37 137.25 162.05 141.76 163.94 146.19 C 164.08 144.73 164.20 143.26 164.30 141.79 C 166.73 149.97 168.97 158.15 169.84 166.68 C 171.12 172.91 171.01 179.08 170.01 185.34 C 169.86 183.11 169.94 180.77 169.44 178.58 C 168.72 176.78 167.14 175.23 165.88 173.78 C 167.21 170.03 163.55 167.31 161.63 164.57 C 160.71 163.46 159.77 162.35 158.84 161.24 C 157.79 162.52 156.76 163.81 155.71 165.09 C 150.51 160.86 147.02 156.34 141.39 153.20 C 140.58 154.11 139.80 155.04 139.02 155.97 C 137.32 152.56 135.09 148.51 131.03 147.68 C 125.00 146.49 119.40 144.96 114.19 141.60 C 107.86 136.28 101.98 131.39 98.24 123.79 C 96.78 120.26 95.75 116.58 94.23 113.07 L 93.80 111.71 C 95.71 107.72 94.28 104.11 94.82 99.98 Z" fill="#f0f0f0" />
<path d="M 66.10 101.04 C 68.69 103.51 70.93 106.26 72.47 109.51 C 73.14 110.83 73.75 112.26 74.61 113.46 C 76.05 114.69 78.86 115.45 80.71 115.07 C 82.36 114.05 83.85 112.69 85.37 111.48 L 85.12 113.09 C 83.64 117.30 78.68 119.33 74.69 117.33 C 70.40 115.28 67.35 110.73 64.70 106.94 C 65.14 104.96 65.59 102.99 66.10 101.04 Z" fill="#4863a3" />
<path d="M 104.74 102.74 C 106.64 104.38 108.36 106.17 110.13 107.93 C 106.87 106.81 104.36 104.81 101.68 102.74 C 102.70 102.73 103.72 102.74 104.74 102.74 Z" fill="#6b6f7b" />
<path d="M 120.99 105.26 L 121.79 105.25 C 122.50 105.96 122.24 106.54 121.04 106.99 L 120.99 105.26 Z" fill="#6a6871" />
<path d="M 147.21 105.53 C 150.96 108.38 153.41 112.08 156.59 115.45 C 158.56 117.52 159.77 119.93 161.24 122.38 C 162.87 125.51 164.65 128.55 166.43 131.59 C 168.28 138.06 170.26 144.49 172.16 150.94 C 172.66 156.60 173.43 162.05 175.65 167.33 C 175.84 164.32 176.10 161.31 176.21 158.30 C 177.58 161.75 178.27 165.34 178.97 168.97 C 179.52 163.95 179.72 159.07 181.15 154.19 C 182.83 148.31 183.42 141.93 184.20 135.81 C 184.55 140.29 185.14 144.47 184.71 148.95 C 184.09 154.93 184.66 160.06 183.19 165.75 C 181.74 171.30 181.92 176.60 181.11 182.20 C 180.02 189.91 178.21 197.41 174.92 204.50 C 174.42 201.04 174.68 197.86 175.43 194.46 C 173.88 196.65 172.18 198.57 170.21 200.38 C 170.21 199.19 170.23 198.00 170.27 196.82 L 170.31 195.96 C 170.46 192.43 170.04 188.89 170.01 185.34 C 171.01 179.08 171.12 172.91 169.84 166.68 C 168.97 158.15 166.73 149.97 164.30 141.79 C 162.42 135.64 160.39 129.31 157.35 123.63 C 155.85 120.45 154.83 117.05 152.94 114.08 C 151.11 111.17 148.89 108.56 147.21 105.53 Z" fill="#212240" />
<path d="M 111.05 107.25 L 111.76 106.82 L 112.49 107.19 L 112.53 108.01 L 111.83 108.46 L 111.09 108.08 L 111.05 107.25 Z" fill="#606b75" />
<path d="M 120.31 108.15 L 119.91 108.78 L 119.01 109.07 L 118.12 109.01 C 117.67 107.36 119.47 106.69 120.31 108.15 Z" fill="#515460" />
<path d="M 116.01 108.97 L 114.16 109.03 C 114.42 107.42 115.04 107.40 116.01 108.97 Z" fill="#4d535c" />
<path d="M 42.83 108.44 C 43.99 109.62 45.14 110.80 46.23 112.05 C 46.07 113.82 45.91 115.59 45.72 117.35 C 43.37 114.22 42.73 112.37 42.83 108.44 Z" fill="#b7cde4" />
<path d="M 26.49 112.78 C 28.39 115.96 27.84 118.67 27.25 122.12 C 26.69 119.00 26.15 115.97 26.49 112.78 Z" fill="#747e90" />
<path d="M 94.23 113.07 C 95.75 116.58 96.78 120.26 98.24 123.79 C 101.98 131.39 107.86 136.28 114.19 141.60 C 104.14 137.31 98.48 128.42 94.54 118.66 C 94.40 116.80 94.35 114.93 94.23 113.07 Z" fill="#727781" />
<path d="M 94.54 118.66 C 98.48 128.42 104.14 137.31 114.19 141.60 C 119.40 144.96 125.00 146.49 131.03 147.68 C 126.37 147.53 125.56 151.26 122.99 154.27 C 123.11 153.14 123.23 152.00 123.35 150.87 C 119.95 150.44 116.61 150.30 113.23 150.99 C 109.92 151.47 105.75 152.57 102.54 151.38 C 101.67 149.07 101.57 146.60 101.39 144.17 C 99.17 142.59 96.92 141.05 94.70 139.47 C 93.43 138.34 92.23 137.16 90.95 136.05 C 94.58 135.16 98.03 134.11 101.10 131.91 C 96.23 132.04 91.82 132.55 87.03 131.14 C 85.22 130.72 84.18 128.83 82.91 127.54 C 83.67 126.56 84.42 125.59 85.17 124.60 C 85.98 124.83 86.79 125.06 87.60 125.28 C 87.92 126.70 88.25 128.11 88.57 129.52 C 89.86 129.50 91.15 129.48 92.43 129.47 C 92.13 125.45 92.06 122.07 94.54 118.66 Z" fill="#d6e2e5" />
<path d="M 47.61 120.90 C 48.44 121.26 49.27 121.63 50.09 122.01 C 50.83 123.57 51.61 125.11 52.44 126.63 C 51.63 127.34 50.81 128.05 50.00 128.76 C 50.81 131.61 51.54 134.47 52.00 137.40 C 52.11 140.18 52.42 142.85 52.94 145.58 C 52.23 145.07 51.51 144.56 50.80 144.05 C 50.10 145.49 49.41 146.93 48.71 148.36 C 48.42 145.90 48.13 143.43 47.84 140.97 C 47.29 142.27 46.73 143.58 46.18 144.88 C 45.68 141.89 45.26 138.88 44.69 135.91 C 41.52 138.07 42.02 141.04 41.58 144.44 C 41.27 147.92 41.20 151.41 41.19 154.90 C 39.28 156.73 37.37 158.54 35.43 160.33 C 37.15 164.97 39.27 169.42 40.86 174.10 C 41.10 174.86 41.34 175.61 41.58 176.38 C 40.68 176.04 39.78 175.71 38.89 175.38 C 39.16 177.10 39.41 178.82 39.66 180.54 C 39.58 181.68 39.51 182.82 39.44 183.95 C 38.44 183.74 37.44 183.52 36.43 183.30 C 35.12 177.04 34.12 170.82 31.92 164.78 C 31.70 166.60 31.51 168.44 31.22 170.25 C 30.43 167.88 29.62 165.59 28.09 163.58 C 28.06 162.91 28.03 162.25 28.00 161.59 C 29.17 156.84 29.07 151.94 29.73 147.08 C 29.99 145.65 29.30 144.73 28.63 143.55 C 29.96 138.92 30.05 134.77 28.95 130.07 C 31.77 133.79 34.87 137.19 38.37 140.29 C 38.09 136.59 37.53 132.72 37.91 129.03 C 37.89 126.69 40.23 125.63 42.10 124.91 C 43.95 124.11 45.92 125.57 47.60 126.29 C 47.57 124.49 47.55 122.70 47.61 120.90 Z" fill="#a9c1d3" />
<path d="M 50.93 120.35 C 51.46 121.12 51.99 121.89 52.51 122.66 C 56.90 130.03 61.40 137.38 67.45 143.57 C 70.44 146.27 73.85 148.53 77.02 151.01 C 78.42 152.15 79.98 152.16 81.69 152.30 C 85.76 152.60 89.81 152.79 93.85 153.39 C 96.26 153.77 98.62 154.78 101.05 155.11 C 106.06 154.44 111.13 153.97 116.16 153.38 L 116.97 154.22 C 114.98 155.39 112.94 156.48 110.94 157.65 C 114.92 160.70 117.29 157.14 121.23 156.65 C 126.15 156.49 131.23 160.07 134.48 163.52 C 138.23 168.58 140.87 174.56 143.83 180.12 C 145.43 183.72 147.20 187.15 148.22 190.99 C 146.83 188.96 145.60 186.83 144.36 184.71 C 141.26 179.12 138.93 172.52 134.86 167.61 C 134.06 166.75 133.22 165.93 132.33 165.15 C 129.90 163.40 127.07 161.24 124.01 160.92 C 118.97 160.31 113.39 162.18 108.33 162.91 L 106.80 163.21 C 99.25 165.44 92.21 168.59 83.92 169.29 C 80.58 168.95 77.32 166.33 74.43 164.72 C 72.58 162.86 70.87 160.91 68.89 159.18 C 67.15 159.45 65.45 159.80 63.73 160.15 C 60.25 155.71 56.98 151.35 55.09 145.95 C 56.11 146.20 57.14 146.46 58.17 146.71 C 58.91 145.19 59.66 143.72 60.27 142.14 C 59.73 140.05 58.65 138.26 57.44 136.50 C 57.60 137.97 57.82 139.43 58.02 140.89 L 58.23 142.44 C 56.93 142.25 55.63 142.06 54.33 141.87 C 53.64 140.35 52.77 138.89 52.00 137.40 C 51.54 134.47 50.81 131.61 50.00 128.76 C 50.81 128.05 51.63 127.34 52.44 126.63 C 51.61 125.11 50.83 123.57 50.09 122.01 L 50.93 120.35 Z" fill="#22233f" />
<path d="M 182.60 121.00 C 183.27 125.92 183.85 130.86 184.20 135.81 C 183.42 141.93 182.83 148.31 181.15 154.19 C 179.72 159.07 179.52 163.95 178.97 168.97 C 178.27 165.34 177.58 161.75 176.21 158.30 C 175.25 155.57 173.69 153.36 172.16 150.94 C 170.26 144.49 168.28 138.06 166.43 131.59 C 169.39 135.94 172.43 140.22 175.12 144.75 C 173.60 140.81 171.96 137.02 169.28 133.71 C 167.32 131.31 165.81 128.91 164.47 126.12 C 165.33 125.60 166.19 125.08 167.04 124.55 C 172.20 131.93 175.29 140.36 180.46 147.73 C 182.83 138.82 182.16 130.10 182.60 121.00 Z" fill="#6f37a4" />
<path d="M 61.15 127.87 C 64.16 128.31 67.23 124.90 69.45 123.22 C 70.71 124.88 71.90 126.92 73.60 128.15 C 75.67 128.58 77.94 128.25 80.03 128.19 C 80.15 129.19 80.26 130.18 80.37 131.18 C 79.89 135.04 78.54 138.56 77.19 142.17 C 79.61 140.05 81.47 137.86 83.05 135.06 C 83.73 138.93 85.92 140.31 89.00 142.37 C 86.51 146.32 86.60 150.28 81.69 152.30 C 79.98 152.16 78.42 152.15 77.02 151.01 C 73.85 148.53 70.44 146.27 67.45 143.57 C 61.40 137.38 56.90 130.03 52.51 122.66 C 55.78 123.82 58.06 126.55 61.15 127.87 Z" fill="#dfe9f1" />
<path d="M 81.39 128.56 C 81.89 128.21 82.40 127.87 82.91 127.54 C 84.18 128.83 85.22 130.72 87.03 131.14 C 91.82 132.55 96.23 132.04 101.10 131.91 C 98.03 134.11 94.58 135.16 90.95 136.05 C 88.79 134.93 86.53 133.99 84.24 133.20 C 83.83 133.81 83.44 134.43 83.05 135.06 C 81.47 137.86 79.61 140.05 77.19 142.17 C 78.54 138.56 79.89 135.04 80.37 131.18 C 80.67 130.29 81.01 129.41 81.39 128.56 Z" fill="#425e9f" />
<path d="M 84.24 133.20 C 86.53 133.99 88.79 134.93 90.95 136.05 C 92.23 137.16 93.43 138.34 94.70 139.47 C 92.77 140.36 90.85 141.31 89.00 142.37 C 85.92 140.31 83.73 138.93 83.05 135.06 C 83.44 134.43 83.83 133.81 84.24 133.20 Z" fill="#b8cfdd" />
<path d="M 203.95 133.58 C 206.86 139.37 208.82 145.46 208.57 152.02 C 208.27 153.73 207.84 155.42 207.40 157.10 C 205.73 155.68 203.28 154.42 203.22 151.95 C 202.71 147.33 202.14 142.66 201.98 138.02 C 201.87 136.45 203.18 134.87 203.95 133.58 Z" fill="#7880b7" />
<path d="M 217.74 135.06 C 218.00 137.09 218.56 138.73 219.57 140.52 C 218.82 149.78 218.08 158.77 214.42 167.44 C 213.18 166.33 211.94 165.22 210.66 164.15 C 211.75 159.26 213.18 154.87 215.53 150.43 C 214.63 150.25 213.74 150.07 212.85 149.89 C 215.34 145.38 216.51 140.03 217.74 135.06 Z" fill="#9ca2ba" />
<path d="M 44.69 135.91 C 45.26 138.88 45.68 141.89 46.18 144.88 C 46.73 143.58 47.29 142.27 47.84 140.97 C 48.13 143.43 48.42 145.90 48.71 148.36 C 49.41 146.93 50.10 145.49 50.80 144.05 C 51.51 144.56 52.23 145.07 52.94 145.58 C 52.42 142.85 52.11 140.18 52.00 137.40 C 52.77 138.89 53.64 140.35 54.33 141.87 C 54.59 143.23 54.80 144.59 55.09 145.95 C 56.98 151.35 60.25 155.71 63.73 160.15 C 64.12 160.69 64.50 161.23 64.88 161.77 C 65.80 163.12 66.72 164.45 67.69 165.76 L 67.80 167.72 C 67.86 169.50 68.04 171.42 67.67 173.17 C 66.02 175.18 62.94 176.19 60.48 176.74 C 56.99 177.42 53.98 175.95 50.79 174.77 C 51.36 167.42 48.82 161.42 46.66 154.57 C 45.48 150.83 43.90 147.61 41.58 144.44 C 42.02 141.04 41.52 138.07 44.69 135.91 Z" fill="#bbd2df" />
<path d="M 57.44 136.50 C 58.65 138.26 59.73 140.05 60.27 142.14 C 59.53 141.71 58.78 141.30 58.02 140.89 C 57.82 139.43 57.60 137.97 57.44 136.50 Z" fill="#959cb4" />
<path d="M 74.65 140.25 C 74.97 141.36 75.27 142.47 75.56 143.58 C 74.40 144.43 73.23 145.29 72.07 146.15 C 71.53 145.33 70.98 144.51 70.44 143.68 C 71.82 142.52 73.22 141.35 74.65 140.25 Z" fill="#5e749e" />
<path d="M 94.70 139.47 C 96.92 141.05 99.17 142.59 101.39 144.17 C 101.57 146.60 101.67 149.07 102.54 151.38 C 105.75 152.57 109.92 151.47 113.23 150.99 C 116.61 150.30 119.95 150.44 123.35 150.87 C 123.23 152.00 123.11 153.14 122.99 154.27 C 122.70 154.68 122.40 155.08 122.11 155.49 C 120.16 154.67 118.22 153.88 116.16 153.38 C 111.13 153.97 106.06 154.44 101.05 155.11 C 98.62 154.78 96.26 153.77 93.85 153.39 C 89.81 152.79 85.76 152.60 81.69 152.30 C 86.60 150.28 86.51 146.32 89.00 142.37 C 90.85 141.31 92.77 140.36 94.70 139.47 Z" fill="#ecf1f4" />
<path d="M 219.57 140.52 C 221.54 143.60 224.00 145.87 227.00 147.92 C 225.26 150.98 223.95 153.87 223.85 157.44 C 223.37 156.82 222.88 156.19 222.40 155.57 C 222.31 154.00 222.22 152.42 222.14 150.85 C 221.53 150.95 220.92 151.05 220.31 151.14 C 220.56 153.62 220.97 156.02 221.52 158.44 C 221.88 160.51 222.63 162.25 221.48 164.23 C 220.00 164.61 218.41 164.78 216.89 164.97 C 216.64 168.24 216.29 171.70 218.49 174.44 C 219.70 175.41 221.24 176.03 222.62 176.72 C 219.29 183.62 216.44 190.37 211.17 196.10 C 211.20 200.92 207.44 203.58 203.51 205.51 C 201.85 206.37 200.88 204.91 199.43 204.22 C 200.35 202.70 201.22 201.14 202.05 199.56 C 201.40 199.53 200.75 199.49 200.10 199.46 L 199.03 199.06 C 204.94 188.89 210.46 178.55 214.42 167.44 C 218.08 158.77 218.82 149.78 219.57 140.52 Z" fill="#d6d8dc" />
<path d="M 58.02 140.89 C 58.78 141.30 59.53 141.71 60.27 142.14 C 59.66 143.72 58.91 145.19 58.17 146.71 C 57.14 146.46 56.11 146.20 55.09 145.95 C 54.80 144.59 54.59 143.23 54.33 141.87 C 55.63 142.06 56.93 142.25 58.23 142.44 L 58.02 140.89 Z" fill="#4e566f" />
<path d="M 28.63 143.55 C 29.30 144.73 29.99 145.65 29.73 147.08 C 29.07 151.94 29.17 156.84 28.00 161.59 C 26.85 155.55 26.72 149.45 28.63 143.55 Z" fill="#5e6371" />
<path d="M 41.58 144.44 C 43.90 147.61 45.48 150.83 46.66 154.57 C 48.82 161.42 51.36 167.42 50.79 174.77 C 50.33 175.97 49.83 177.15 49.32 178.32 C 50.32 180.02 51.26 181.93 52.64 183.34 C 53.91 184.30 55.62 184.81 57.09 185.37 L 56.79 185.94 C 55.42 186.65 54.01 187.30 52.61 187.95 C 52.45 188.65 52.28 189.35 52.12 190.06 C 45.91 186.48 43.17 180.59 40.86 174.10 C 39.27 169.42 37.15 164.97 35.43 160.33 C 37.37 158.54 39.28 156.73 41.19 154.90 C 41.20 151.41 41.27 147.92 41.58 144.44 Z" fill="#e4ecf1" />
<path d="M 61.40 145.27 C 62.87 144.14 64.87 146.27 63.80 147.71 C 62.38 148.77 60.30 146.68 61.40 145.27 Z" fill="#777e99" />
<path d="M 131.03 147.68 C 135.09 148.51 137.32 152.56 139.02 155.97 C 140.55 159.93 141.88 164.00 143.09 168.06 C 143.83 172.07 143.76 176.07 143.83 180.12 C 140.87 174.56 138.23 168.58 134.48 163.52 C 131.23 160.07 126.15 156.49 121.23 156.65 C 117.29 157.14 114.92 160.70 110.94 157.65 C 112.94 156.48 114.98 155.39 116.97 154.22 L 116.16 153.38 C 118.22 153.88 120.16 154.67 122.11 155.49 C 122.40 155.08 122.70 154.68 122.99 154.27 C 125.56 151.26 126.37 147.53 131.03 147.68 Z" fill="#a8b4b8" />
<path d="M 211.22 150.68 L 212.85 149.89 C 213.74 150.07 214.63 150.25 215.53 150.43 C 213.18 154.87 211.75 159.26 210.66 164.15 C 208.94 169.23 206.81 174.13 204.68 179.04 C 204.37 178.38 204.06 177.71 203.75 177.05 C 205.15 173.35 208.06 168.82 206.34 164.86 C 204.37 168.98 203.70 173.35 201.32 177.28 C 202.44 171.75 204.64 166.40 206.22 160.98 C 205.14 160.15 204.07 159.32 203.02 158.48 C 204.47 158.00 205.93 157.54 207.40 157.10 C 207.84 155.42 208.27 153.73 208.57 152.02 C 209.45 151.57 210.33 151.12 211.22 150.68 Z" fill="#343a6c" />
<path d="M 172.16 150.94 C 173.69 153.36 175.25 155.57 176.21 158.30 C 176.10 161.31 175.84 164.32 175.65 167.33 C 173.43 162.05 172.66 156.60 172.16 150.94 Z" fill="#433567" />
<path d="M 141.39 153.20 C 147.02 156.34 150.51 160.86 155.71 165.09 C 156.76 163.81 157.79 162.52 158.84 161.24 C 159.77 162.35 160.71 163.46 161.63 164.57 L 160.92 165.56 C 161.15 169.21 162.73 172.16 164.31 175.37 C 162.48 175.66 160.15 177.37 158.76 175.43 C 156.76 173.34 155.21 170.74 153.58 168.35 C 152.52 168.52 151.45 168.70 150.38 168.88 C 150.55 169.58 150.72 170.28 150.89 170.98 C 148.36 169.86 145.73 168.91 143.09 168.06 C 141.88 164.00 140.55 159.93 139.02 155.97 C 139.80 155.04 140.58 154.11 141.39 153.20 Z" fill="#cdd6dd" />
<path d="M 75.20 153.80 C 77.73 154.61 80.25 155.44 82.77 156.27 C 82.67 157.53 82.57 158.79 82.46 160.04 C 81.99 159.93 81.52 159.82 81.05 159.71 C 79.49 157.29 77.47 155.52 75.20 153.80 Z" fill="#5a455b" />
<path d="M 86.74 154.12 C 87.60 153.38 89.44 153.70 89.90 154.78 C 89.91 156.49 85.99 155.66 86.74 154.12 Z" fill="#636478" />
<path d="M 87.00 157.53 C 91.73 157.47 96.44 157.44 101.17 157.29 C 104.04 157.10 106.01 158.58 108.44 159.82 C 103.17 161.10 97.66 161.39 92.26 161.34 C 89.85 161.32 88.44 159.15 87.00 157.53 Z" fill="#d4d3d6" />
<path d="M 209.14 158.27 L 209.96 158.28 L 210.36 159.00 L 209.95 159.72 L 209.12 159.72 L 208.72 158.99 L 209.14 158.27 Z" fill="#999bcc" />
<path d="M 68.89 159.18 C 70.87 160.91 72.58 162.86 74.43 164.72 C 71.30 163.58 68.09 162.63 64.88 161.77 C 64.50 161.23 64.12 160.69 63.73 160.15 C 65.45 159.80 67.15 159.45 68.89 159.18 Z" fill="#5d3448" />
<path d="M 74.43 164.72 C 77.32 166.33 80.58 168.95 83.92 169.29 C 92.21 168.59 99.25 165.44 106.80 163.21 C 105.09 165.86 108.40 165.53 108.89 163.42 C 111.95 165.66 116.76 163.18 120.32 163.19 C 117.35 164.81 114.24 165.73 111.51 167.79 C 113.43 168.14 115.68 168.80 117.64 168.43 C 120.60 167.77 123.39 166.14 126.37 165.49 C 128.29 165.12 130.37 165.18 132.33 165.15 C 133.22 165.93 134.06 166.75 134.86 167.61 C 134.73 169.30 134.65 170.98 134.58 172.67 C 130.45 174.44 126.18 175.69 121.89 176.98 C 117.22 178.40 114.12 181.95 109.54 183.41 C 105.27 184.71 100.38 185.96 95.89 185.32 C 92.22 184.84 88.58 183.96 84.97 183.12 C 81.40 181.24 77.95 179.34 75.04 176.49 C 75.82 175.69 76.60 174.88 77.38 174.07 C 74.35 171.06 71.57 167.66 67.69 165.76 C 66.72 164.45 65.80 163.12 64.88 161.77 C 68.09 162.63 71.30 163.58 74.43 164.72 Z" fill="#96434d" />
<path d="M 124.01 160.92 C 127.07 161.24 129.90 163.40 132.33 165.15 C 130.37 165.18 128.29 165.12 126.37 165.49 C 123.39 166.14 120.60 167.77 117.64 168.43 C 115.68 168.80 113.43 168.14 111.51 167.79 C 114.24 165.73 117.35 164.81 120.32 163.19 C 116.76 163.18 111.95 165.66 108.89 163.42 L 108.33 162.91 C 113.39 162.18 118.97 160.31 124.01 160.92 Z" fill="#b1969b" />
<path d="M 106.80 163.21 L 108.33 162.91 L 108.89 163.42 C 108.40 165.53 105.09 165.86 106.80 163.21 Z" fill="#f1cedb" />
<path d="M 28.09 163.58 C 29.62 165.59 30.43 167.88 31.22 170.25 C 30.71 171.00 30.18 171.73 29.64 172.46 C 28.55 169.59 28.14 166.63 28.09 163.58 Z" fill="#4f5168" />
<path d="M 210.66 164.15 C 211.94 165.22 213.18 166.33 214.42 167.44 C 210.46 178.55 204.94 188.89 199.03 199.06 C 195.81 203.67 192.61 208.49 188.57 212.42 C 188.51 210.39 188.70 208.82 189.63 206.99 C 193.10 203.60 195.21 199.61 197.72 195.50 C 201.79 192.72 203.79 186.77 205.44 182.29 C 204.76 181.99 204.08 181.70 203.39 181.43 L 202.08 181.00 C 202.64 179.68 203.19 178.36 203.75 177.05 C 204.06 177.71 204.37 178.38 204.68 179.04 C 206.81 174.13 208.94 169.23 210.66 164.15 Z" fill="#8d95bd" />
<path d="M 31.92 164.78 C 34.12 170.82 35.12 177.04 36.43 183.30 C 37.44 183.52 38.44 183.74 39.44 183.95 C 39.41 184.83 39.38 185.70 39.36 186.58 C 38.73 187.24 38.09 187.91 37.45 188.56 C 34.86 183.52 33.38 177.44 29.84 173.05 L 29.64 172.46 C 30.18 171.73 30.71 171.00 31.22 170.25 C 31.51 168.44 31.70 166.60 31.92 164.78 Z" fill="#aa9cc7" />
<path d="M 160.92 165.56 L 161.63 164.57 C 163.55 167.31 167.21 170.03 165.88 173.78 C 163.21 181.33 166.19 187.44 165.74 195.46 C 166.51 195.19 167.28 194.92 168.06 194.66 C 168.81 195.09 169.56 195.53 170.31 195.96 L 170.27 196.82 C 169.64 198.24 168.98 199.64 168.30 201.04 C 167.77 202.08 167.23 203.12 166.69 204.15 C 164.77 207.22 162.98 208.83 159.51 210.07 C 160.34 201.49 162.67 191.52 158.75 183.35 C 157.81 180.98 157.67 178.44 156.87 176.05 C 155.70 173.82 153.00 172.25 150.89 170.98 C 150.72 170.28 150.55 169.58 150.38 168.88 C 151.45 168.70 152.52 168.52 153.58 168.35 C 155.21 170.74 156.76 173.34 158.76 175.43 C 160.15 177.37 162.48 175.66 164.31 175.37 C 162.73 172.16 161.15 169.21 160.92 165.56 Z" fill="#9f8dc1" />
<path d="M 67.69 165.76 C 71.57 167.66 74.35 171.06 77.38 174.07 C 76.60 174.88 75.82 175.69 75.04 176.49 C 72.41 173.78 69.90 170.86 67.80 167.72 L 67.69 165.76 Z" fill="#d5c2c5" />
<path d="M 67.80 167.72 C 69.90 170.86 72.41 173.78 75.04 176.49 C 77.95 179.34 81.40 181.24 84.97 183.12 C 85.67 183.55 86.35 183.98 87.04 184.43 C 84.09 185.89 81.46 186.84 80.21 190.19 C 75.04 189.21 69.77 188.64 64.53 188.21 C 63.51 184.91 61.25 184.30 58.34 182.98 C 57.93 183.78 57.51 184.57 57.09 185.37 C 55.62 184.81 53.91 184.30 52.64 183.34 C 51.26 181.93 50.32 180.02 49.32 178.32 C 49.83 177.15 50.33 175.97 50.79 174.77 C 53.98 175.95 56.99 177.42 60.48 176.74 C 62.94 176.19 66.02 175.18 67.67 173.17 C 68.04 171.42 67.86 169.50 67.80 167.72 Z" fill="#d6e1e4" />
<path d="M 134.86 167.61 C 138.93 172.52 141.26 179.12 144.36 184.71 C 144.71 188.22 144.57 191.64 144.07 195.12 C 140.90 190.00 139.25 184.96 132.69 183.42 C 125.15 182.72 118.55 187.17 111.83 189.81 C 105.31 192.56 98.62 192.92 91.85 194.77 C 97.34 197.32 103.17 198.58 108.48 201.57 C 113.41 204.32 118.55 206.63 123.55 209.24 C 120.13 210.70 116.54 211.54 112.89 212.24 C 111.35 209.93 110.10 207.74 107.41 206.59 C 103.74 204.67 100.22 205.81 96.40 204.47 C 93.90 203.29 91.85 200.77 89.21 200.03 C 86.38 199.29 83.17 199.61 80.26 199.65 C 80.36 200.73 80.47 201.81 80.58 202.89 C 79.14 201.15 77.68 199.42 76.14 197.77 C 80.22 196.55 84.27 195.40 88.10 193.49 C 85.54 192.22 82.94 191.05 80.21 190.19 C 81.46 186.84 84.09 185.89 87.04 184.43 C 86.35 183.98 85.67 183.55 84.97 183.12 C 88.58 183.96 92.22 184.84 95.89 185.32 C 100.38 185.96 105.27 184.71 109.54 183.41 C 114.12 181.95 117.22 178.40 121.89 176.98 C 126.18 175.69 130.45 174.44 134.58 172.67 C 134.65 170.98 134.73 169.30 134.86 167.61 Z" fill="#9ca9ab" />
<path d="M 143.09 168.06 C 145.73 168.91 148.36 169.86 150.89 170.98 C 153.00 172.25 155.70 173.82 156.87 176.05 C 157.67 178.44 157.81 180.98 158.75 183.35 C 162.67 191.52 160.34 201.49 159.51 210.07 C 157.45 210.76 155.36 211.35 153.28 211.96 C 149.94 209.99 146.84 208.31 142.90 209.83 C 139.91 211.26 139.48 213.90 138.74 216.81 C 137.11 218.15 135.52 219.54 133.97 220.98 C 136.68 220.17 139.37 218.96 142.16 218.46 C 143.74 218.47 145.34 219.01 146.89 219.32 C 149.07 219.99 151.18 220.86 153.26 221.78 C 152.13 222.97 151.40 224.28 149.76 224.83 C 146.25 226.11 143.77 228.50 140.71 230.56 C 141.43 230.75 142.14 230.94 142.86 231.13 C 142.24 231.40 141.62 231.68 141.00 231.95 C 137.78 229.77 134.19 226.48 130.05 226.88 C 122.99 227.18 115.82 231.80 109.14 234.13 C 97.10 238.95 83.01 239.03 70.45 236.46 C 62.55 234.64 53.74 232.64 46.76 228.42 C 43.51 226.52 41.37 223.83 38.92 221.05 C 40.00 220.30 41.08 219.55 42.16 218.80 C 44.82 221.19 47.69 223.40 50.74 225.27 C 53.59 227.04 56.68 227.54 59.87 228.51 C 62.87 229.54 65.70 230.64 68.93 230.60 C 71.74 230.52 74.06 231.27 76.60 232.43 C 77.08 232.64 77.56 232.85 78.04 233.06 C 78.47 232.20 78.91 231.35 79.37 230.51 C 82.78 231.67 87.31 235.90 90.88 233.96 C 92.96 233.26 95.01 232.45 97.06 231.67 C 98.04 232.11 99.02 232.56 100.00 233.02 L 100.19 231.29 C 100.50 230.35 100.83 229.42 101.17 228.49 C 98.54 226.57 96.02 224.73 92.82 223.87 C 89.44 222.79 86.08 221.71 82.63 220.86 C 84.26 220.08 85.81 219.29 87.55 218.81 C 89.81 220.43 92.09 221.61 94.82 222.24 C 101.21 223.65 105.67 228.08 112.54 228.17 C 110.29 225.44 107.49 223.42 104.87 221.09 C 109.38 222.18 113.34 224.35 117.58 226.12 C 115.16 221.84 111.04 220.04 106.64 218.37 C 102.30 216.85 97.96 217.31 93.59 218.44 C 92.71 218.50 91.82 218.55 90.93 218.59 C 91.86 217.75 92.79 216.91 93.72 216.07 C 89.50 215.62 85.24 215.40 81.02 214.91 C 76.15 214.33 71.90 212.43 66.96 211.10 C 62.52 209.81 57.94 208.80 54.48 205.51 C 52.39 203.46 50.49 200.55 51.53 197.52 C 52.86 193.52 55.02 189.77 56.79 185.94 L 57.09 185.37 C 57.51 184.57 57.93 183.78 58.34 182.98 C 61.25 184.30 63.51 184.91 64.53 188.21 C 67.64 191.51 72.24 193.56 76.05 195.98 C 73.55 195.47 71.06 194.97 68.55 194.55 C 70.47 195.82 72.43 197.04 74.39 198.26 C 71.02 199.01 68.22 197.96 64.94 197.37 C 67.82 198.40 70.83 199.13 73.53 200.61 C 74.56 202.17 74.52 203.83 74.48 205.62 C 74.39 206.57 74.29 207.53 74.20 208.48 C 79.19 209.06 84.16 209.71 89.17 210.04 C 97.82 212.09 106.07 215.51 114.79 217.21 C 118.02 217.88 121.20 218.91 124.46 219.41 C 126.45 219.81 128.71 218.55 130.56 217.86 C 130.41 215.05 130.28 212.24 130.22 209.42 C 129.42 209.32 128.62 209.22 127.82 209.13 L 128.07 207.20 C 126.57 207.90 125.08 208.61 123.55 209.24 C 118.55 206.63 113.41 204.32 108.48 201.57 C 103.17 198.58 97.34 197.32 91.85 194.77 C 98.62 192.92 105.31 192.56 111.83 189.81 C 118.55 187.17 125.15 182.72 132.69 183.42 C 139.25 184.96 140.90 190.00 144.07 195.12 C 144.57 191.64 144.71 188.22 144.36 184.71 C 145.60 186.83 146.83 188.96 148.22 190.99 C 147.20 187.15 145.43 183.72 143.83 180.12 C 143.76 176.07 143.83 172.07 143.09 168.06 Z" fill="#f1f1f1" />
<path d="M 93.19 171.91 C 94.89 172.11 96.56 172.42 98.24 172.70 C 100.22 173.07 102.31 173.25 104.21 173.93 C 105.70 175.38 104.21 176.93 103.26 178.20 C 101.73 179.87 99.65 180.54 97.50 179.68 C 95.31 177.83 94.29 174.49 93.19 171.91 Z" fill="#fcf19f" />
<path d="M 29.84 173.05 C 33.38 177.44 34.86 183.52 37.45 188.56 C 36.97 189.06 36.49 189.55 36.02 190.04 C 33.62 184.57 31.12 178.89 29.84 173.05 Z" fill="#352f4b" />
<path d="M 40.86 174.10 C 43.17 180.59 45.91 186.48 52.12 190.06 C 52.28 189.35 52.45 188.65 52.61 187.95 C 54.01 187.30 55.42 186.65 56.79 185.94 C 55.02 189.77 52.86 193.52 51.53 197.52 C 50.49 200.55 52.39 203.46 54.48 205.51 C 57.94 208.80 62.52 209.81 66.96 211.10 C 71.90 212.43 76.15 214.33 81.02 214.91 C 85.24 215.40 89.50 215.62 93.72 216.07 C 92.79 216.91 91.86 217.75 90.93 218.59 C 89.80 218.63 88.67 218.71 87.55 218.81 C 85.81 219.29 84.26 220.08 82.63 220.86 C 81.12 220.50 79.60 220.16 78.07 219.88 C 69.38 218.90 61.60 215.72 54.91 210.07 C 51.67 207.03 49.21 202.89 47.08 199.02 C 44.30 193.00 41.86 186.80 39.66 180.54 C 39.41 178.82 39.16 177.10 38.89 175.38 C 39.78 175.71 40.68 176.04 41.58 176.38 C 41.34 175.61 41.10 174.86 40.86 174.10 Z" fill="#ccd7dd" />
<path d="M 165.88 173.78 C 167.14 175.23 168.72 176.78 169.44 178.58 C 169.94 180.77 169.86 183.11 170.01 185.34 C 170.04 188.89 170.46 192.43 170.31 195.96 C 169.56 195.53 168.81 195.09 168.06 194.66 C 167.28 194.92 166.51 195.19 165.74 195.46 C 166.19 187.44 163.21 181.33 165.88 173.78 Z" fill="#7a4da8" />
<path d="M 39.66 180.54 C 41.86 186.80 44.30 193.00 47.08 199.02 C 46.44 199.54 45.80 200.05 45.16 200.57 C 43.76 199.44 42.36 198.33 40.92 197.27 C 39.88 194.51 38.95 192.94 36.58 191.12 L 36.02 190.04 C 36.49 189.55 36.97 189.06 37.45 188.56 C 38.09 187.91 38.73 187.24 39.36 186.58 C 39.38 185.70 39.41 184.83 39.44 183.95 C 39.51 182.82 39.58 181.68 39.66 180.54 Z" fill="#8155ad" />
<path d="M 202.08 181.00 L 203.39 181.43 C 201.59 186.16 199.56 190.79 197.72 195.50 C 195.21 199.61 193.10 203.60 189.63 206.99 C 191.08 203.34 192.15 199.68 194.33 196.36 C 197.48 191.48 199.98 186.41 202.08 181.00 Z" fill="#46528e" />
<path d="M 205.44 182.29 C 203.79 186.77 201.79 192.72 197.72 195.50 C 199.56 190.79 201.59 186.16 203.39 181.43 C 204.08 181.70 204.76 181.99 205.44 182.29 Z" fill="#a5aed7" />
<path d="M 167.12 185.51 C 169.23 188.03 171.05 191.75 167.15 193.65 C 167.00 190.93 167.00 188.24 167.12 185.51 Z" fill="#a183c9" />
<path d="M 64.53 188.21 C 69.77 188.64 75.04 189.21 80.21 190.19 C 82.94 191.05 85.54 192.22 88.10 193.49 C 84.27 195.40 80.22 196.55 76.14 197.77 L 74.39 198.26 C 72.43 197.04 70.47 195.82 68.55 194.55 C 71.06 194.97 73.55 195.47 76.05 195.98 C 72.24 193.56 67.64 191.51 64.53 188.21 Z" fill="#acb8b8" />
<path d="M 207.04 189.79 C 206.05 193.41 204.79 195.72 202.13 198.36 C 203.18 194.94 204.57 192.39 207.04 189.79 Z" fill="#9ca1b4" />
<path d="M 36.58 191.12 C 38.95 192.94 39.88 194.51 40.92 197.27 L 39.97 196.89 C 38.48 195.17 37.47 193.20 36.58 191.12 Z" fill="#32244e" />
<path d="M 175.43 194.46 C 174.68 197.86 174.42 201.04 174.92 204.50 C 174.34 205.86 173.73 207.22 173.04 208.54 C 172.10 208.34 171.16 208.14 170.22 207.92 C 170.45 205.62 170.72 203.32 170.98 201.02 C 170.08 201.02 169.19 201.02 168.30 201.04 C 168.98 199.64 169.64 198.24 170.27 196.82 C 170.23 198.00 170.21 199.19 170.21 200.38 C 172.18 198.57 173.88 196.65 175.43 194.46 Z" fill="#626375" />
<path d="M 39.97 196.89 L 40.92 197.27 C 42.36 198.33 43.76 199.44 45.16 200.57 C 45.80 200.05 46.44 199.54 47.08 199.02 C 49.21 202.89 51.67 207.03 54.91 210.07 C 61.60 215.72 69.38 218.90 78.07 219.88 L 76.19 219.58 C 78.62 222.26 81.19 224.82 83.93 227.18 C 82.26 228.08 80.71 229.17 79.37 230.51 C 78.91 231.35 78.47 232.20 78.04 233.06 C 77.56 232.85 77.08 232.64 76.60 232.43 C 74.64 227.87 71.32 224.37 66.91 222.11 C 63.88 220.47 60.21 219.57 57.48 217.49 C 55.10 215.32 53.27 212.54 51.13 210.14 L 50.58 212.40 C 48.44 210.39 46.78 208.21 45.31 205.68 C 45.92 204.79 46.89 204.04 45.89 203.02 C 44.88 202.22 43.70 201.61 42.59 200.95 C 41.72 199.59 40.86 198.23 39.97 196.89 Z" fill="#6d36a1" />
<path d="M 64.94 197.37 C 68.22 197.96 71.02 199.01 74.39 198.26 L 76.14 197.77 C 77.68 199.42 79.14 201.15 80.58 202.89 C 80.47 201.81 80.36 200.73 80.26 199.65 C 83.17 199.61 86.38 199.29 89.21 200.03 C 91.85 200.77 93.90 203.29 96.40 204.47 C 100.22 205.81 103.74 204.67 107.41 206.59 C 110.10 207.74 111.35 209.93 112.89 212.24 C 116.54 211.54 120.13 210.70 123.55 209.24 C 125.08 208.61 126.57 207.90 128.07 207.20 L 127.82 209.13 C 125.46 210.21 123.09 211.24 120.74 212.33 C 122.26 212.33 123.78 212.31 125.30 212.31 C 124.39 213.38 123.49 214.53 122.45 215.47 C 120.10 216.55 117.32 216.81 114.79 217.21 C 106.07 215.51 97.82 212.09 89.17 210.04 C 84.60 207.09 79.94 205.64 74.48 205.62 C 74.52 203.83 74.56 202.17 73.53 200.61 C 70.83 199.13 67.82 198.40 64.94 197.37 Z" fill="#22243f" />
<path d="M 202.05 199.56 C 201.22 201.14 200.35 202.70 199.43 204.22 C 198.31 205.30 197.12 206.26 195.92 207.23 C 197.28 204.62 198.80 202.10 200.10 199.46 C 200.75 199.49 201.40 199.53 202.05 199.56 Z" fill="#898da8" />
<path d="M 42.59 200.95 C 43.70 201.61 44.88 202.22 45.89 203.02 C 46.89 204.04 45.92 204.79 45.31 205.68 C 44.35 204.13 43.44 202.56 42.59 200.95 Z" fill="#291546" />
<path d="M 168.30 201.04 C 169.19 201.02 170.08 201.02 170.98 201.02 C 170.72 203.32 170.45 205.62 170.22 207.92 C 169.00 206.71 167.86 205.42 166.69 204.15 C 167.23 203.12 167.77 202.08 168.30 201.04 Z" fill="#472c6e" />
<path d="M 166.69 204.15 C 167.86 205.42 169.00 206.71 170.22 207.92 C 171.16 208.14 172.10 208.34 173.04 208.54 C 170.60 210.45 168.24 212.02 166.82 214.91 C 165.56 217.41 163.48 218.75 161.26 220.32 C 161.58 218.98 161.87 217.64 162.15 216.30 C 159.39 218.89 156.88 220.58 153.26 221.78 C 151.18 220.86 149.07 219.99 146.89 219.32 C 150.03 218.76 153.04 217.77 156.04 216.71 C 155.12 215.13 154.19 213.55 153.28 211.96 C 155.36 211.35 157.45 210.76 159.51 210.07 C 162.98 208.83 164.77 207.22 166.69 204.15 Z" fill="#7543a5" />
<path d="M 74.48 205.62 C 79.94 205.64 84.60 207.09 89.17 210.04 C 84.16 209.71 79.19 209.06 74.20 208.48 C 74.29 207.53 74.39 206.57 74.48 205.62 Z" fill="#97a0a1" />
<path d="M 127.82 209.13 C 128.62 209.22 129.42 209.32 130.22 209.42 C 130.28 212.24 130.41 215.05 130.56 217.86 C 128.71 218.55 126.45 219.81 124.46 219.41 C 121.20 218.91 118.02 217.88 114.79 217.21 C 117.32 216.81 120.10 216.55 122.45 215.47 C 123.49 214.53 124.39 213.38 125.30 212.31 C 123.78 212.31 122.26 212.33 120.74 212.33 C 123.09 211.24 125.46 210.21 127.82 209.13 Z" fill="#96a2a2" />
<path d="M 153.28 211.96 C 148.55 213.99 143.40 214.69 138.74 216.81 C 139.48 213.90 139.91 211.26 142.90 209.83 C 146.84 208.31 149.94 209.99 153.28 211.96 Z" fill="#906bb6" />
<path d="M 194.31 209.36 C 196.39 209.93 192.93 213.50 191.65 212.68 C 191.19 211.37 193.06 209.48 194.31 209.36 Z" fill="#bec0cd" />
<path d="M 51.13 210.14 C 53.27 212.54 55.10 215.32 57.48 217.49 C 60.21 219.57 63.88 220.47 66.91 222.11 C 71.32 224.37 74.64 227.87 76.60 232.43 C 74.06 231.27 71.74 230.52 68.93 230.60 C 65.70 230.64 62.87 229.54 59.87 228.51 C 57.03 223.91 54.80 219.10 52.34 214.31 C 51.76 213.67 51.17 213.03 50.58 212.40 L 51.13 210.14 Z" fill="#20223e" />
<path d="M 153.28 211.96 C 154.19 213.55 155.12 215.13 156.04 216.71 C 153.04 217.77 150.03 218.76 146.89 219.32 C 145.34 219.01 143.74 218.47 142.16 218.46 C 139.37 218.96 136.68 220.17 133.97 220.98 C 135.52 219.54 137.11 218.15 138.74 216.81 C 143.40 214.69 148.55 213.99 153.28 211.96 Z" fill="#1f1c3f" />
<path d="M 40.18 212.88 C 42.88 214.01 45.90 215.68 48.83 215.92 C 50.09 215.83 51.24 214.87 52.34 214.31 C 54.80 219.10 57.03 223.91 59.87 228.51 C 56.68 227.54 53.59 227.04 50.74 225.27 C 47.69 223.40 44.82 221.19 42.16 218.80 C 41.20 217.75 40.11 216.66 39.44 215.39 C 39.61 214.53 39.89 213.71 40.18 212.88 Z" fill="#7139a4" />
<path d="M 162.15 216.30 C 161.87 217.64 161.58 218.98 161.26 220.32 C 160.76 221.00 160.25 221.69 159.73 222.36 C 157.53 225.20 155.93 227.91 152.44 229.36 C 152.87 228.01 153.33 226.67 153.82 225.33 C 150.54 228.10 146.71 229.41 142.86 231.13 C 142.14 230.94 141.43 230.75 140.71 230.56 C 143.77 228.50 146.25 226.11 149.76 224.83 C 151.40 224.28 152.13 222.97 153.26 221.78 C 156.88 220.58 159.39 218.89 162.15 216.30 Z" fill="#1b1c38" />
<path d="M 106.64 218.37 C 111.04 220.04 115.16 221.84 117.58 226.12 C 113.34 224.35 109.38 222.18 104.87 221.09 C 107.49 223.42 110.29 225.44 112.54 228.17 C 105.67 228.08 101.21 223.65 94.82 222.24 C 96.35 222.19 97.87 222.10 99.40 221.98 C 97.53 220.68 95.64 219.44 93.59 218.44 C 97.96 217.31 102.30 216.85 106.64 218.37 Z" fill="#763fa6" />
<path d="M 90.93 218.59 C 91.82 218.55 92.71 218.50 93.59 218.44 C 95.64 219.44 97.53 220.68 99.40 221.98 C 97.87 222.10 96.35 222.19 94.82 222.24 C 92.09 221.61 89.81 220.43 87.55 218.81 C 88.67 218.71 89.80 218.63 90.93 218.59 Z" fill="#181738" />
<path d="M 76.19 219.58 L 78.07 219.88 C 79.60 220.16 81.12 220.50 82.63 220.86 C 86.08 221.71 89.44 222.79 92.82 223.87 C 93.40 225.30 93.90 226.93 94.85 228.16 C 96.40 229.48 98.44 230.26 100.19 231.29 L 100.00 233.02 C 99.02 232.56 98.04 232.11 97.06 231.67 C 92.68 229.90 88.07 229.67 83.93 227.18 C 81.19 224.82 78.62 222.26 76.19 219.58 Z" fill="#202040" />
<path d="M 169.33 220.38 C 165.84 227.23 161.57 231.87 155.23 236.15 C 157.03 233.02 158.89 229.84 161.22 227.08 C 163.87 224.96 166.12 221.54 169.33 220.38 Z" fill="#323346" />
<path d="M 92.82 223.87 C 96.02 224.73 98.54 226.57 101.17 228.49 C 100.83 229.42 100.50 230.35 100.19 231.29 C 98.44 230.26 96.40 229.48 94.85 228.16 C 93.90 226.93 93.40 225.30 92.82 223.87 Z" fill="#643b8f" />
<path d="M 83.93 227.18 C 88.07 229.67 92.68 229.90 97.06 231.67 C 95.01 232.45 92.96 233.26 90.88 233.96 C 87.31 235.90 82.78 231.67 79.37 230.51 C 80.71 229.17 82.26 228.08 83.93 227.18 Z" fill="#966bbb" />
</svg>