<?xml version="1.0" encoding="UTF-8" standalone="no"?>
<!DOCTYPE svg PUBLIC "-//W3C//DTD SVG 1.1//EN" "http://www.w3.org/Graphics/SVG/1.1/DTD/svg11.dtd">
<svg xmlns="http://www.w3.org/2000/svg" version="1.1" viewBox="0 0 256 256" width="256.0pt" height="256.0pt">
<path d="M 0.00 0.00 L 256.00 0.00 L 256.00 256.00 L 0.00 256.00 L 0.00 0.00 Z" fill="#fefefe" />
<path d="M 151.03 20.01 C 158.32 20.33 165.43 22.09 172.17 24.84 C 177.67 27.13 183.20 29.08 188.26 32.31 C 186.49 33.09 184.71 33.84 182.92 34.59 C 177.61 30.64 171.74 29.99 165.42 28.64 C 156.12 27.05 146.37 27.60 136.98 28.05 C 122.24 29.61 107.56 33.61 94.03 39.65 C 98.46 38.42 102.90 37.28 107.47 36.70 C 115.80 35.67 123.89 33.77 132.31 33.51 C 131.71 34.73 131.09 35.94 130.47 37.15 C 131.21 37.76 131.95 38.38 132.70 38.99 C 128.88 40.19 125.00 40.95 120.98 40.88 C 117.62 41.00 114.04 40.34 110.74 40.97 C 107.54 42.34 105.09 46.16 101.41 47.21 C 96.91 48.50 92.34 49.42 87.89 50.91 C 81.62 53.04 75.33 52.17 68.90 53.64 C 68.28 55.12 67.67 56.61 67.03 58.09 C 63.98 55.25 60.03 52.74 55.88 52.01 C 52.76 51.52 49.24 52.57 46.16 53.15 C 41.47 54.25 37.27 54.16 33.36 57.33 C 29.01 60.41 26.31 63.74 24.68 68.87 L 24.38 69.70 L 23.76 68.26 C 22.83 70.20 21.83 71.81 20.49 73.47 C 20.13 70.02 20.22 66.57 21.20 63.21 C 22.70 57.57 26.12 53.42 28.36 48.23 C 29.66 45.49 28.51 43.05 27.74 40.37 C 28.39 39.65 29.03 38.91 29.66 38.18 C 35.24 36.55 40.82 36.71 46.57 36.68 C 44.16 35.53 41.68 34.58 39.17 33.71 C 45.69 33.82 50.94 36.95 55.81 41.01 L 56.35 41.51 C 54.22 40.71 52.08 39.94 49.90 39.26 C 51.45 44.41 53.79 47.42 58.88 49.40 C 63.96 50.84 69.21 50.35 74.36 51.58 C 75.03 50.11 75.68 48.67 76.19 47.13 C 74.87 45.29 72.97 44.10 71.23 42.69 C 67.38 39.74 65.17 35.64 60.94 33.03 C 55.97 30.08 50.58 27.73 44.74 29.60 C 41.89 30.19 39.06 31.04 36.24 31.77 C 35.18 31.69 34.13 31.56 33.08 31.43 C 33.66 29.56 33.90 27.90 35.80 26.87 C 44.05 21.06 54.21 22.09 62.98 26.06 C 69.31 29.00 74.81 34.55 82.04 34.95 C 88.88 35.57 93.92 31.46 99.96 28.90 C 105.89 26.04 112.06 25.05 118.36 23.42 C 128.97 20.59 140.07 19.53 151.03 20.01 Z" fill="#f1f1f1" />
<path d="M 136.98 28.05 C 146.37 27.60 156.12 27.05 165.42 28.64 C 171.74 29.99 177.61 30.64 182.92 34.59 C 184.95 35.93 187.01 37.53 189.29 38.41 C 191.10 38.72 193.03 38.13 194.83 38.44 C 199.34 41.47 201.28 46.23 207.03 47.79 C 207.74 49.36 208.41 50.95 209.12 52.52 C 208.07 52.11 207.01 51.71 205.94 51.31 L 204.62 50.81 C 200.99 49.40 197.71 47.46 194.38 45.47 C 194.33 46.36 194.28 47.24 194.22 48.13 C 187.71 44.74 183.39 39.97 175.86 38.96 C 171.50 37.74 167.73 35.90 163.44 35.34 C 160.49 34.95 157.52 34.74 154.56 34.49 C 147.23 33.62 139.68 32.81 132.31 33.51 C 123.89 33.77 115.80 35.67 107.47 36.70 C 102.90 37.28 98.46 38.42 94.03 39.65 C 107.56 33.61 122.24 29.61 136.98 28.05 Z" fill="#252742" />
<path d="M 44.74 29.60 C 47.79 31.37 51.08 32.43 54.32 33.76 C 56.98 34.76 58.08 37.82 59.39 40.13 C 58.19 40.42 57.00 40.72 55.81 41.01 C 50.94 36.95 45.69 33.82 39.17 33.71 C 41.68 34.58 44.16 35.53 46.57 36.68 C 40.82 36.71 35.24 36.55 29.66 38.18 C 31.75 35.93 33.90 33.76 36.24 31.77 C 39.06 31.04 41.89 30.19 44.74 29.60 Z" fill="#6d3c56" />
<path d="M 44.74 29.60 C 50.58 27.73 55.97 30.08 60.94 33.03 C 65.17 35.64 67.38 39.74 71.23 42.69 C 72.97 44.10 74.87 45.29 76.19 47.13 C 75.68 48.67 75.03 50.11 74.36 51.58 C 69.21 50.35 63.96 50.84 58.88 49.40 C 58.25 46.70 57.53 44.03 56.35 41.51 L 55.81 41.01 C 57.00 40.72 58.19 40.42 59.39 40.13 C 58.08 37.82 56.98 34.76 54.32 33.76 C 51.08 32.43 47.79 31.37 44.74 29.60 Z" fill="#21233f" />
<path d="M 132.59 30.26 C 133.52 29.31 135.94 29.61 135.80 31.24 C 135.19 33.00 131.22 32.32 132.59 30.26 Z" fill="#868798" />
<path d="M 154.56 34.49 C 152.09 35.08 149.64 35.74 147.17 36.33 C 148.38 36.77 149.58 37.23 150.78 37.68 C 148.68 38.91 146.38 40.49 144.00 41.07 C 140.20 41.94 135.88 41.12 132.06 41.79 C 130.38 42.21 128.86 43.47 127.41 44.39 C 126.14 45.23 124.84 46.04 123.49 46.76 C 120.51 47.20 117.60 47.31 114.65 47.94 C 111.19 48.68 107.86 49.90 104.37 50.55 C 97.09 50.75 90.06 52.31 82.87 53.19 C 82.63 53.89 82.39 54.60 82.15 55.30 C 78.02 55.67 73.82 57.20 69.90 58.52 C 71.45 59.33 73.03 60.05 74.60 60.82 C 72.89 64.16 71.66 65.78 67.99 66.84 L 67.06 66.09 C 68.03 64.71 69.01 63.34 69.98 61.96 C 68.99 60.67 68.07 59.33 67.03 58.09 C 67.67 56.61 68.28 55.12 68.90 53.64 C 75.33 52.17 81.62 53.04 87.89 50.91 C 92.34 49.42 96.91 48.50 101.41 47.21 C 105.09 46.16 107.54 42.34 110.74 40.97 C 114.04 40.34 117.62 41.00 120.98 40.88 C 125.00 40.95 128.88 40.19 132.70 38.99 C 131.95 38.38 131.21 37.76 130.47 37.15 C 131.09 35.94 131.71 34.73 132.31 33.51 C 139.68 32.81 147.23 33.62 154.56 34.49 Z" fill="#cac8c9" />
<path d="M 154.56 34.49 C 157.52 34.74 160.49 34.95 163.44 35.34 C 167.73 35.90 171.50 37.74 175.86 38.96 C 177.79 40.57 179.55 42.35 181.20 44.24 C 179.38 44.65 177.60 44.99 175.73 44.70 C 170.36 44.01 164.92 42.85 159.50 42.53 C 156.98 42.35 154.59 43.21 152.13 43.29 C 150.11 43.05 148.10 42.17 146.07 42.13 C 142.91 42.48 139.84 43.74 136.70 44.31 C 133.55 44.95 130.59 44.62 127.41 44.39 C 128.86 43.47 130.38 42.21 132.06 41.79 C 135.88 41.12 140.20 41.94 144.00 41.07 C 146.38 40.49 148.68 38.91 150.78 37.68 C 149.58 37.23 148.38 36.77 147.17 36.33 C 149.64 35.74 152.09 35.08 154.56 34.49 Z" fill="#b9b6b9" />
<path d="M 56.35 41.51 C 57.53 44.03 58.25 46.70 58.88 49.40 C 53.79 47.42 51.45 44.41 49.90 39.26 C 52.08 39.94 54.22 40.71 56.35 41.51 Z" fill="#814b67" />
<path d="M 175.86 38.96 C 183.39 39.97 187.71 44.74 194.22 48.13 C 194.28 47.24 194.33 46.36 194.38 45.47 C 197.71 47.46 200.99 49.40 204.62 50.81 C 201.90 51.29 199.36 52.26 196.86 53.39 C 193.43 49.79 190.16 47.22 185.29 45.74 C 186.02 46.89 186.77 48.03 187.53 49.16 C 186.61 49.67 185.69 50.19 184.75 50.67 C 182.09 49.05 179.39 47.56 176.61 46.15 C 177.01 47.17 177.40 48.20 177.79 49.22 C 174.30 48.72 170.98 47.73 167.63 46.69 C 164.32 45.64 161.31 46.29 158.01 46.85 C 160.75 48.36 163.51 49.85 166.22 51.41 C 163.92 51.84 161.61 52.22 159.29 52.54 C 156.28 52.53 153.30 52.23 150.31 51.85 C 145.33 50.38 140.49 48.51 135.18 48.25 C 132.30 48.11 129.68 48.74 126.91 49.39 C 125.77 48.52 124.63 47.64 123.49 46.76 C 124.84 46.04 126.14 45.23 127.41 44.39 C 130.59 44.62 133.55 44.95 136.70 44.31 C 139.84 43.74 142.91 42.48 146.07 42.13 C 148.10 42.17 150.11 43.05 152.13 43.29 C 154.59 43.21 156.98 42.35 159.50 42.53 C 164.92 42.85 170.36 44.01 175.73 44.70 C 177.60 44.99 179.38 44.65 181.20 44.24 C 179.55 42.35 177.79 40.57 175.86 38.96 Z" fill="#868187" />
<path d="M 126.27 46.30 C 126.76 46.75 126.76 46.75 126.27 46.30 Z" fill="#aeaab5" />
<path d="M 167.63 46.69 C 170.98 47.73 174.30 48.72 177.79 49.22 C 177.40 48.20 177.01 47.17 176.61 46.15 C 179.39 47.56 182.09 49.05 184.75 50.67 C 180.55 52.38 175.68 50.86 171.17 51.81 C 172.34 54.53 173.21 56.30 172.10 59.22 C 167.19 57.76 163.17 54.97 158.65 52.70 L 159.29 52.54 C 161.61 52.22 163.92 51.84 166.22 51.41 C 163.51 49.85 160.75 48.36 158.01 46.85 C 161.31 46.29 164.32 45.64 167.63 46.69 Z" fill="#6a6570" />
<path d="M 185.29 45.74 C 190.16 47.22 193.43 49.79 196.86 53.39 C 205.47 60.60 214.80 68.33 221.13 77.70 C 220.60 80.88 220.11 84.05 219.31 87.16 C 217.17 83.40 214.43 80.30 211.78 76.71 C 213.87 76.91 215.95 77.14 218.03 77.39 C 211.99 71.86 207.23 66.02 199.76 62.20 C 199.01 66.18 204.11 68.28 206.29 71.13 C 201.18 69.72 197.33 66.32 192.15 65.42 C 190.70 65.12 189.25 64.87 187.80 64.62 C 190.53 66.69 193.54 68.64 195.92 71.11 C 197.29 72.42 197.29 74.43 197.64 76.17 C 194.29 72.96 192.27 69.20 187.28 68.74 C 186.32 67.20 185.36 65.25 183.86 64.21 C 180.43 61.87 176.01 60.55 172.10 59.22 C 173.21 56.30 172.34 54.53 171.17 51.81 C 175.68 50.86 180.55 52.38 184.75 50.67 C 185.69 50.19 186.61 49.67 187.53 49.16 C 186.77 48.03 186.02 46.89 185.29 45.74 Z" fill="#544f60" />
<path d="M 123.49 46.76 C 124.63 47.64 125.77 48.52 126.91 49.39 C 129.68 48.74 132.30 48.11 135.18 48.25 C 140.49 48.51 145.33 50.38 150.31 51.85 C 149.78 53.16 149.28 54.48 148.78 55.80 C 153.95 57.45 158.79 59.45 164.25 60.01 C 161.68 57.25 158.44 55.93 155.05 54.50 C 156.24 53.88 157.43 53.26 158.65 52.70 C 163.17 54.97 167.19 57.76 172.10 59.22 C 176.01 60.55 180.43 61.87 183.86 64.21 C 185.36 65.25 186.32 67.20 187.28 68.74 C 192.27 69.20 194.29 72.96 197.64 76.17 C 201.10 80.25 204.04 84.55 208.40 87.78 C 207.46 87.87 206.53 87.99 205.60 88.14 C 208.19 94.24 212.27 99.34 214.40 105.60 C 216.00 109.96 216.95 114.47 217.59 119.06 C 218.27 124.21 220.01 129.09 220.80 134.21 C 220.85 137.16 220.34 140.00 219.84 142.89 C 218.98 147.61 220.11 151.84 218.56 156.47 C 216.18 163.59 213.33 170.55 210.86 177.65 C 210.47 177.78 210.08 177.92 209.69 178.07 C 207.89 185.13 202.53 189.75 200.32 196.61 C 195.64 198.51 192.11 200.89 188.48 204.46 C 184.26 208.52 179.53 211.83 175.05 215.60 C 170.98 219.13 167.13 220.60 161.80 221.19 C 165.34 218.36 169.43 216.54 173.17 214.04 C 176.32 211.98 176.76 208.76 178.81 205.82 C 179.65 205.92 180.50 205.94 181.37 205.89 C 183.04 203.64 184.57 201.30 185.85 198.80 C 187.96 194.42 191.10 190.19 188.78 185.22 C 189.60 183.17 190.42 181.11 191.20 179.04 C 195.07 170.44 196.46 160.46 195.09 151.13 C 194.51 145.62 194.54 140.04 194.16 134.50 C 193.21 134.89 192.25 135.28 191.30 135.67 C 188.54 126.82 187.94 118.18 186.39 109.04 C 187.93 111.07 189.51 113.07 191.12 115.05 C 190.11 110.86 189.36 106.79 186.79 103.22 C 183.99 99.39 180.50 96.03 177.45 92.39 C 172.33 85.07 167.04 79.94 159.37 75.31 C 156.18 72.54 153.15 69.69 149.52 67.47 C 143.81 63.83 137.36 61.70 130.68 60.77 C 123.25 59.79 116.45 56.69 108.98 55.93 C 106.98 54.51 105.66 52.59 104.37 50.55 C 107.86 49.90 111.19 48.68 114.65 47.94 C 117.60 47.31 120.51 47.20 123.49 46.76 Z" fill="#212340" />
<path d="M 212.22 48.84 C 214.85 51.18 217.08 53.94 219.66 56.35 C 225.01 61.37 229.52 67.33 233.60 73.41 C 238.61 80.84 239.94 90.31 240.83 99.06 C 241.56 112.95 240.20 127.28 241.64 141.16 C 242.32 148.50 243.21 155.70 242.29 163.08 C 241.39 173.63 242.57 184.34 241.82 194.88 C 241.44 200.61 238.40 205.77 235.40 210.52 C 232.67 214.99 227.41 217.39 222.45 218.38 C 213.59 219.78 204.45 219.05 195.59 220.23 C 198.49 217.64 200.97 214.68 203.29 211.58 C 201.45 211.81 199.60 212.04 197.77 212.35 C 200.18 209.81 201.69 207.11 205.05 205.70 C 208.08 204.51 210.07 202.83 212.10 200.30 L 212.43 199.85 C 216.59 201.57 218.54 201.36 222.67 200.00 C 220.31 203.23 218.52 204.46 214.68 205.63 C 212.74 206.30 210.61 206.81 208.80 207.81 C 207.77 209.06 207.35 210.87 206.75 212.36 C 209.27 211.51 211.71 210.47 214.10 209.31 C 214.42 209.77 214.75 210.23 215.07 210.68 L 215.49 211.23 C 219.48 211.39 224.51 212.32 227.96 209.97 C 230.39 208.65 231.56 206.77 232.10 204.09 C 233.10 199.13 234.74 193.71 234.24 188.64 C 234.01 186.06 231.58 185.27 229.39 185.04 C 226.00 184.91 222.52 186.12 219.16 186.54 L 218.69 185.07 C 219.54 183.06 220.81 181.08 221.38 178.99 C 222.00 176.05 221.60 172.71 221.83 169.72 C 222.13 166.07 223.51 162.99 223.36 159.34 C 223.36 157.72 223.10 155.95 223.45 154.36 C 224.41 152.08 226.09 150.06 227.45 148.01 C 227.33 150.55 227.32 153.08 227.55 155.62 C 229.42 152.21 231.10 149.04 230.85 145.02 C 230.55 140.35 229.40 135.80 229.30 131.09 C 229.15 126.06 230.28 121.85 228.95 116.96 C 228.09 113.71 227.54 110.44 227.03 107.13 C 227.57 106.60 228.10 106.07 228.62 105.55 C 229.65 107.14 230.80 108.65 231.86 110.23 C 232.80 100.96 229.79 92.66 225.78 84.50 C 227.89 85.15 229.97 85.88 232.05 86.63 C 229.81 82.36 227.41 79.28 223.90 76.00 C 221.55 73.94 222.11 71.00 220.99 68.16 C 218.66 65.86 214.69 65.38 212.29 63.06 C 211.86 61.91 211.76 60.59 211.62 59.39 C 209.33 57.05 206.89 54.88 204.36 52.81 C 204.89 52.31 205.42 51.81 205.94 51.31 C 207.01 51.71 208.07 52.11 209.12 52.52 C 208.41 50.95 207.74 49.36 207.03 47.79 C 208.62 48.05 210.99 47.66 212.22 48.84 Z" fill="#f0f0f0" />
<path d="M 104.37 50.55 C 105.66 52.59 106.98 54.51 108.98 55.93 L 107.41 55.69 C 108.46 56.81 109.52 57.93 110.59 59.05 C 107.56 59.50 104.36 60.37 101.30 60.17 C 98.31 59.31 96.50 56.98 93.08 57.24 C 88.91 57.32 86.01 56.87 82.15 55.30 C 82.39 54.60 82.63 53.89 82.87 53.19 C 90.06 52.31 97.09 50.75 104.37 50.55 Z" fill="#37384f" />
<path d="M 204.62 50.81 L 205.94 51.31 C 205.42 51.81 204.89 52.31 204.36 52.81 C 206.89 54.88 209.33 57.05 211.62 59.39 C 211.76 60.59 211.86 61.91 212.29 63.06 C 214.69 65.38 218.66 65.86 220.99 68.16 C 222.11 71.00 221.55 73.94 223.90 76.00 C 227.41 79.28 229.81 82.36 232.05 86.63 C 229.97 85.88 227.89 85.15 225.78 84.50 C 224.29 82.19 222.67 79.98 221.13 77.70 C 214.80 68.33 205.47 60.60 196.86 53.39 C 199.36 52.26 201.90 51.29 204.62 50.81 Z" fill="#aca7b2" />
<path d="M 55.88 52.01 C 60.03 52.74 63.98 55.25 67.03 58.09 C 68.07 59.33 68.99 60.67 69.98 61.96 C 69.01 63.34 68.03 64.71 67.06 66.09 L 67.99 66.84 C 68.94 67.65 69.86 68.49 70.79 69.34 C 69.01 69.63 66.82 70.39 65.08 69.73 C 62.15 68.81 59.39 67.26 56.29 66.91 C 54.01 66.67 51.49 67.52 49.26 67.99 C 48.61 67.19 47.94 66.40 47.28 65.61 C 46.25 64.48 45.12 63.14 43.76 62.40 C 41.82 62.17 39.62 63.70 37.82 64.37 C 36.25 65.03 34.68 65.66 33.09 66.28 C 33.55 64.26 34.03 62.25 34.51 60.23 C 32.88 60.96 31.31 61.79 29.70 62.55 C 29.91 63.78 30.13 65.01 30.30 66.25 C 28.43 68.49 26.63 70.78 24.76 73.01 C 24.72 71.63 24.69 70.25 24.68 68.87 C 26.31 63.74 29.01 60.41 33.36 57.33 C 37.27 54.16 41.47 54.25 46.16 53.15 C 49.24 52.57 52.76 51.52 55.88 52.01 Z" fill="#22243f" />
<path d="M 150.31 51.85 C 153.30 52.23 156.28 52.53 159.29 52.54 L 158.65 52.70 C 157.43 53.26 156.24 53.88 155.05 54.50 C 158.44 55.93 161.68 57.25 164.25 60.01 C 158.79 59.45 153.95 57.45 148.78 55.80 C 149.28 54.48 149.78 53.16 150.31 51.85 Z" fill="#3f3e51" />
<path d="M 82.15 55.30 C 86.01 56.87 88.91 57.32 93.08 57.24 C 96.50 56.98 98.31 59.31 101.30 60.17 C 104.36 60.37 107.56 59.50 110.59 59.05 C 109.52 57.93 108.46 56.81 107.41 55.69 L 108.98 55.93 C 116.45 56.69 123.25 59.79 130.68 60.77 C 137.36 61.70 143.81 63.83 149.52 67.47 C 153.15 69.69 156.18 72.54 159.37 75.31 C 155.00 74.14 151.09 72.82 146.61 74.47 C 148.78 76.40 150.96 78.32 153.09 80.29 C 150.08 79.26 147.15 78.00 144.13 76.99 C 140.80 75.87 137.64 76.13 134.20 76.23 C 135.87 78.96 137.49 81.74 139.29 84.38 C 135.49 82.23 131.57 80.28 127.65 78.34 C 121.67 75.39 115.41 74.16 108.85 73.25 C 109.93 72.96 111.01 72.67 112.09 72.35 C 105.67 70.39 99.60 70.93 93.00 70.81 C 89.18 70.79 85.41 71.25 81.66 71.97 C 80.72 71.52 79.80 71.06 78.87 70.59 C 80.35 69.49 81.82 68.38 83.28 67.24 C 79.75 66.16 76.28 66.08 72.64 66.31 C 74.45 64.68 75.89 62.94 78.38 62.39 C 83.58 61.22 88.96 61.46 94.18 60.28 C 92.81 59.35 91.92 58.07 90.10 58.25 C 84.94 58.55 79.60 59.46 74.60 60.82 C 73.03 60.05 71.45 59.33 69.90 58.52 C 73.82 57.20 78.02 55.67 82.15 55.30 Z" fill="#6e6871" />
<path d="M 45.41 55.98 C 43.18 58.58 40.66 58.47 37.50 58.71 C 40.13 57.02 42.27 56.26 45.41 55.98 Z" fill="#7b7e92" />
<path d="M 80.15 56.23 C 81.82 56.43 81.76 58.66 80.14 58.89 C 78.47 58.69 78.52 56.46 80.15 56.23 Z" fill="#232437" />
<path d="M 90.10 58.25 C 91.92 58.07 92.81 59.35 94.18 60.28 C 88.96 61.46 83.58 61.22 78.38 62.39 C 75.89 62.94 74.45 64.68 72.64 66.31 C 76.28 66.08 79.75 66.16 83.28 67.24 C 81.82 68.38 80.35 69.49 78.87 70.59 C 79.80 71.06 80.72 71.52 81.66 71.97 C 82.50 72.37 83.34 72.75 84.20 73.11 C 79.70 73.38 75.82 75.16 71.62 76.57 C 69.20 77.52 66.10 75.77 63.68 75.26 C 59.95 74.09 56.19 75.00 52.42 75.57 C 52.38 74.97 52.35 74.37 52.31 73.76 C 58.13 73.21 64.00 73.78 69.84 73.37 C 70.15 72.03 70.46 70.68 70.79 69.34 C 69.86 68.49 68.94 67.65 67.99 66.84 C 71.66 65.78 72.89 64.16 74.60 60.82 C 79.60 59.46 84.94 58.55 90.10 58.25 Z" fill="#9c979c" />
<path d="M 34.51 60.23 C 34.03 62.25 33.55 64.26 33.09 66.28 C 34.68 65.66 36.25 65.03 37.82 64.37 C 38.30 65.59 38.68 66.85 39.06 68.11 C 39.64 68.22 40.22 68.34 40.80 68.44 C 43.67 68.97 46.45 68.68 49.26 67.99 C 51.49 67.52 54.01 66.67 56.29 66.91 C 59.39 67.26 62.15 68.81 65.08 69.73 C 66.82 70.39 69.01 69.63 70.79 69.34 C 70.46 70.68 70.15 72.03 69.84 73.37 C 64.00 73.78 58.13 73.21 52.31 73.76 C 48.33 74.39 44.57 75.91 41.38 78.39 C 38.89 80.20 37.84 83.19 35.56 85.36 C 31.88 88.68 31.56 93.75 31.25 98.38 C 31.18 100.22 31.15 102.06 31.20 103.90 C 30.24 105.03 29.28 106.16 28.31 107.29 C 28.90 104.89 29.49 102.49 30.08 100.09 C 29.14 101.39 28.17 102.68 27.23 103.97 C 25.90 99.98 25.22 96.20 24.98 91.99 C 24.68 86.41 23.22 81.15 21.82 75.78 C 22.78 75.99 23.74 76.20 24.70 76.39 L 26.02 76.62 C 27.60 75.14 29.33 73.41 30.19 71.39 C 30.72 69.81 30.45 67.89 30.30 66.25 C 30.13 65.01 29.91 63.78 29.70 62.55 C 31.31 61.79 32.88 60.96 34.51 60.23 Z" fill="#f0f0f0" />
<path d="M 43.76 62.40 C 45.12 63.14 46.25 64.48 47.28 65.61 C 45.13 66.58 42.97 67.53 40.80 68.44 C 40.22 68.34 39.64 68.22 39.06 68.11 C 38.68 66.85 38.30 65.59 37.82 64.37 C 39.62 63.70 41.82 62.17 43.76 62.40 Z" fill="#834262" />
<path d="M 199.76 62.20 C 207.23 66.02 211.99 71.86 218.03 77.39 C 215.95 77.14 213.87 76.91 211.78 76.71 C 214.43 80.30 217.17 83.40 219.31 87.16 C 220.99 91.33 222.88 94.35 225.80 97.77 C 225.80 100.96 226.36 104.03 227.03 107.13 C 227.54 110.44 228.09 113.71 228.95 116.96 C 230.28 121.85 229.15 126.06 229.30 131.09 C 227.55 129.56 225.88 127.97 224.02 126.57 C 222.99 126.63 221.97 126.73 220.95 126.86 C 220.86 129.31 220.82 131.76 220.80 134.21 C 220.01 129.09 218.27 124.21 217.59 119.06 C 216.95 114.47 216.00 109.96 214.40 105.60 C 212.27 99.34 208.19 94.24 205.60 88.14 C 206.53 87.99 207.46 87.87 208.40 87.78 C 204.04 84.55 201.10 80.25 197.64 76.17 C 197.29 74.43 197.29 72.42 195.92 71.11 C 193.54 68.64 190.53 66.69 187.80 64.62 C 189.25 64.87 190.70 65.12 192.15 65.42 C 197.33 66.32 201.18 69.72 206.29 71.13 C 204.11 68.28 199.01 66.18 199.76 62.20 Z" fill="#433e55" />
<path d="M 30.30 66.25 C 30.45 67.89 30.72 69.81 30.19 71.39 C 29.33 73.41 27.60 75.14 26.02 76.62 L 24.70 76.39 C 24.57 74.16 24.47 71.93 24.38 69.70 L 24.68 68.87 C 24.69 70.25 24.72 71.63 24.76 73.01 C 26.63 70.78 28.43 68.49 30.30 66.25 Z" fill="#8f5268" />
<path d="M 47.28 65.61 C 47.94 66.40 48.61 67.19 49.26 67.99 C 46.45 68.68 43.67 68.97 40.80 68.44 C 42.97 67.53 45.13 66.58 47.28 65.61 Z" fill="#b3919f" />
<path d="M 93.00 70.81 C 99.60 70.93 105.67 70.39 112.09 72.35 C 111.01 72.67 109.93 72.96 108.85 73.25 C 100.60 72.36 92.46 72.78 84.20 73.11 C 83.34 72.75 82.50 72.37 81.66 71.97 C 85.41 71.25 89.18 70.79 93.00 70.81 Z" fill="#c1bfca" />
<path d="M 108.85 73.25 C 115.41 74.16 121.67 75.39 127.65 78.34 C 131.57 80.28 135.49 82.23 139.29 84.38 C 141.66 86.04 144.10 87.58 146.60 89.04 C 152.35 95.11 157.91 101.33 163.31 107.72 C 165.91 110.89 166.88 114.87 168.51 118.61 C 173.28 129.19 175.31 141.05 175.21 152.62 C 174.51 159.79 173.08 166.79 172.90 174.03 C 172.19 179.13 170.99 183.94 168.21 188.34 C 167.92 186.76 167.67 185.17 167.44 183.58 C 168.28 179.69 169.18 176.05 168.90 172.01 C 168.60 168.03 167.75 164.13 167.64 160.13 C 167.68 156.78 167.95 153.69 166.31 150.61 C 164.03 146.18 162.69 141.44 160.77 136.87 C 160.27 135.65 159.70 134.46 159.14 133.27 C 159.78 131.34 160.35 129.39 160.99 127.46 C 159.30 127.08 157.62 126.74 155.92 126.42 C 155.02 124.93 154.01 123.49 153.02 122.06 C 149.07 114.30 144.26 107.11 138.12 100.91 C 135.23 98.11 132.05 95.70 129.38 92.66 C 127.82 91.04 126.31 88.93 124.33 87.82 C 122.25 86.83 119.73 86.57 117.47 86.22 C 114.94 84.97 112.65 83.35 110.23 81.91 C 106.63 80.45 103.07 80.92 99.24 80.73 C 96.23 79.99 93.50 79.05 90.34 79.53 C 86.22 80.13 82.10 80.49 77.95 80.88 C 72.77 81.09 69.64 87.48 64.09 87.64 C 57.08 87.87 50.74 87.73 44.89 92.34 L 44.03 93.01 C 41.93 94.59 39.76 96.06 37.55 97.48 C 39.61 93.47 42.74 90.43 45.38 86.84 C 42.59 87.13 40.09 86.90 37.84 88.84 C 35.02 91.34 33.43 95.31 31.25 98.38 C 31.56 93.75 31.88 88.68 35.56 85.36 C 37.84 83.19 38.89 80.20 41.38 78.39 C 44.57 75.91 48.33 74.39 52.31 73.76 C 52.35 74.37 52.38 74.97 52.42 75.57 C 56.19 75.00 59.95 74.09 63.68 75.26 C 66.10 75.77 69.20 77.52 71.62 76.57 C 75.82 75.16 79.70 73.38 84.20 73.11 C 92.46 72.78 100.60 72.36 108.85 73.25 Z" fill="#222440" />
<path d="M 159.37 75.31 C 167.04 79.94 172.33 85.07 177.45 92.39 C 171.08 90.85 166.68 84.47 159.85 84.25 C 157.99 84.71 157.04 87.93 156.10 89.39 C 152.94 89.29 149.76 89.24 146.60 89.04 C 144.10 87.58 141.66 86.04 139.29 84.38 C 137.49 81.74 135.87 78.96 134.20 76.23 C 137.64 76.13 140.80 75.87 144.13 76.99 C 147.15 78.00 150.08 79.26 153.09 80.29 C 150.96 78.32 148.78 76.40 146.61 74.47 C 151.09 72.82 155.00 74.14 159.37 75.31 Z" fill="#555160" />
<path d="M 221.13 77.70 C 222.67 79.98 224.29 82.19 225.78 84.50 C 229.79 92.66 232.80 100.96 231.86 110.23 C 230.80 108.65 229.65 107.14 228.62 105.55 C 228.10 106.07 227.57 106.60 227.03 107.13 C 226.36 104.03 225.80 100.96 225.80 97.77 C 222.88 94.35 220.99 91.33 219.31 87.16 C 220.11 84.05 220.60 80.88 221.13 77.70 Z" fill="#767278" />
<path d="M 90.34 79.53 C 93.50 79.05 96.23 79.99 99.24 80.73 C 94.15 81.75 89.00 82.69 84.00 84.10 C 78.34 85.70 73.84 89.02 68.25 90.11 C 64.70 90.79 61.17 90.85 57.66 91.87 C 54.63 92.70 51.53 94.19 48.42 94.53 C 46.95 94.77 45.91 93.17 44.89 92.34 C 50.74 87.73 57.08 87.87 64.09 87.64 C 69.64 87.48 72.77 81.09 77.95 80.88 C 82.10 80.49 86.22 80.13 90.34 79.53 Z" fill="#bebac0" />
<path d="M 99.24 80.73 C 103.07 80.92 106.63 80.45 110.23 81.91 C 109.82 83.26 109.61 84.81 108.88 86.02 C 106.60 87.84 103.71 88.99 101.06 90.14 C 100.04 89.95 99.03 89.74 98.02 89.51 C 95.34 88.96 91.60 86.42 89.07 88.11 C 84.65 90.46 80.26 93.20 76.41 96.39 C 73.18 99.05 71.53 102.45 69.44 105.95 C 65.65 109.69 61.03 112.64 57.48 116.57 C 55.54 118.52 55.95 121.53 54.83 123.99 C 53.46 126.75 51.43 129.18 49.89 131.84 C 49.62 131.16 49.35 130.48 49.08 129.80 C 47.07 131.66 45.04 133.51 42.96 135.29 C 43.78 131.82 44.49 128.34 46.15 125.16 C 49.04 119.65 53.44 115.71 56.36 110.22 C 50.46 115.35 46.45 121.92 42.67 128.67 C 40.38 132.91 37.97 136.68 36.79 141.43 C 35.77 145.67 34.76 149.87 33.08 153.91 C 32.50 155.14 31.90 156.35 31.36 157.59 C 30.05 156.17 27.62 155.23 28.03 152.98 C 28.50 146.78 29.15 139.83 32.28 134.36 C 34.78 129.63 36.30 124.49 36.41 119.12 C 36.51 117.19 34.63 115.40 33.65 113.86 C 34.72 109.64 35.43 105.68 38.11 102.12 C 40.35 99.21 42.46 96.35 44.03 93.01 L 44.89 92.34 C 45.91 93.17 46.95 94.77 48.42 94.53 C 51.53 94.19 54.63 92.70 57.66 91.87 C 61.17 90.85 64.70 90.79 68.25 90.11 C 73.84 89.02 78.34 85.70 84.00 84.10 C 89.00 82.69 94.15 81.75 99.24 80.73 Z" fill="#f1f1f0" />
<path d="M 110.23 81.91 C 112.65 83.35 114.94 84.97 117.47 86.22 C 116.05 87.58 114.68 89.18 113.04 90.27 C 112.03 89.87 111.05 89.35 110.09 88.85 C 108.31 89.90 106.56 91.01 104.81 92.11 C 104.09 92.11 103.37 92.11 102.66 92.11 C 102.14 91.45 101.60 90.79 101.06 90.14 C 103.71 88.99 106.60 87.84 108.88 86.02 C 109.61 84.81 109.82 83.26 110.23 81.91 Z" fill="#aca8ad" />
<path d="M 177.45 92.39 C 180.50 96.03 183.99 99.39 186.79 103.22 C 189.36 106.79 190.11 110.86 191.12 115.05 C 189.51 113.07 187.93 111.07 186.39 109.04 C 187.94 118.18 188.54 126.82 191.30 135.67 C 192.25 135.28 193.21 134.89 194.16 134.50 C 194.54 140.04 194.51 145.62 195.09 151.13 C 196.46 160.46 195.07 170.44 191.20 179.04 C 192.02 174.56 192.26 170.06 191.63 165.54 C 189.45 169.11 189.45 172.91 188.77 176.91 C 188.37 179.84 187.54 182.38 188.78 185.22 C 191.10 190.19 187.96 194.42 185.85 198.80 C 186.03 198.01 186.21 197.23 186.38 196.44 C 185.16 197.18 183.94 197.94 182.72 198.69 C 183.10 197.44 183.48 196.20 183.91 194.96 C 185.16 192.31 186.57 189.76 187.93 187.17 C 185.72 189.59 183.50 192.00 181.25 194.38 C 179.63 194.18 177.99 194.05 176.37 193.84 C 178.41 189.83 179.11 185.82 179.75 181.42 C 182.01 176.71 181.68 171.90 181.41 166.82 C 179.67 170.32 178.41 174.00 177.28 177.73 C 176.30 178.56 175.32 179.40 174.34 180.23 C 175.14 176.15 176.02 172.08 176.78 167.99 C 175.99 168.32 175.18 168.61 174.38 168.91 C 173.80 170.59 173.29 172.30 172.90 174.03 C 173.08 166.79 174.51 159.79 175.21 152.62 C 175.31 141.05 173.28 129.19 168.51 118.61 C 166.88 114.87 165.91 110.89 163.31 107.72 C 157.91 101.33 152.35 95.11 146.60 89.04 C 149.76 89.24 152.94 89.29 156.10 89.39 C 157.04 87.93 157.99 84.71 159.85 84.25 C 166.68 84.47 171.08 90.85 177.45 92.39 Z" fill="#403953" />
<path d="M 117.47 86.22 C 119.73 86.57 122.25 86.83 124.33 87.82 C 126.31 88.93 127.82 91.04 129.38 92.66 C 132.05 95.70 135.23 98.11 138.12 100.91 C 144.26 107.11 149.07 114.30 153.02 122.06 C 152.02 121.64 151.02 121.25 150.00 120.88 C 147.99 118.29 146.20 114.89 143.50 112.99 C 141.22 112.48 138.74 112.71 136.41 112.57 C 134.79 111.99 133.22 111.30 131.67 110.57 C 129.44 109.22 127.24 107.81 124.98 106.51 C 125.30 105.69 125.61 104.88 125.93 104.06 C 126.64 102.65 127.35 101.23 128.04 99.81 C 123.31 103.61 119.49 108.29 114.93 112.29 C 114.82 109.60 116.16 107.55 116.80 105.04 C 117.17 102.22 117.18 99.36 117.11 96.52 C 117.00 95.33 117.13 94.33 115.93 93.69 C 112.87 91.80 108.27 92.21 104.81 92.11 C 106.56 91.01 108.31 89.90 110.09 88.85 C 111.05 89.35 112.03 89.87 113.04 90.27 C 114.68 89.18 116.05 87.58 117.47 86.22 Z" fill="#88808b" />
<path d="M 45.38 86.84 C 42.74 90.43 39.61 93.47 37.55 97.48 C 39.76 96.06 41.93 94.59 44.03 93.01 C 42.46 96.35 40.35 99.21 38.11 102.12 C 35.43 105.68 34.72 109.64 33.65 113.86 C 31.73 110.79 31.37 107.43 31.20 103.90 C 31.15 102.06 31.18 100.22 31.25 98.38 C 33.43 95.31 35.02 91.34 37.84 88.84 C 40.09 86.90 42.59 87.13 45.38 86.84 Z" fill="#7f3f5d" />
<path d="M 98.02 89.51 C 100.00 92.59 102.49 95.62 103.94 98.99 C 106.15 104.22 103.29 110.81 98.27 113.23 C 95.43 114.34 91.84 113.91 88.84 113.66 C 87.68 110.60 85.46 107.72 87.39 104.47 C 88.61 101.50 92.06 102.40 94.61 102.18 C 94.78 103.35 94.97 104.51 95.19 105.67 C 93.38 106.95 91.61 108.28 89.83 109.61 C 92.16 110.77 93.93 112.09 96.62 110.87 C 102.09 108.64 101.56 100.74 97.92 97.07 C 96.71 95.89 94.38 93.34 92.56 94.55 C 88.86 96.24 85.51 98.72 81.98 100.74 C 79.37 102.25 77.25 104.23 75.07 106.27 C 75.42 106.82 75.78 107.37 76.14 107.92 C 78.39 111.24 81.25 114.05 83.58 117.32 C 84.87 118.95 86.07 121.03 87.81 122.19 C 90.28 123.30 93.08 123.77 95.67 124.61 C 102.83 121.39 109.59 118.26 114.93 112.29 C 119.49 108.29 123.31 103.61 128.04 99.81 C 127.35 101.23 126.64 102.65 125.93 104.06 C 122.28 108.68 118.92 113.57 114.98 117.94 C 110.64 121.46 106.55 125.23 102.46 129.03 C 99.43 130.52 96.30 131.76 93.22 133.14 C 90.24 131.72 86.22 130.59 84.01 128.07 C 82.54 124.51 82.49 120.53 80.42 117.00 C 78.74 115.21 76.98 113.60 75.04 112.10 C 73.79 111.10 72.53 110.13 71.33 109.07 C 70.68 108.04 70.05 107.00 69.44 105.95 C 71.53 102.45 73.18 99.05 76.41 96.39 C 80.26 93.20 84.65 90.46 89.07 88.11 C 91.60 86.42 95.34 88.96 98.02 89.51 Z" fill="#22233f" />
<path d="M 101.06 90.14 C 101.60 90.79 102.14 91.45 102.66 92.11 C 103.37 92.11 104.09 92.11 104.81 92.11 C 108.27 92.21 112.87 91.80 115.93 93.69 C 117.13 94.33 117.00 95.33 117.11 96.52 C 117.18 99.36 117.17 102.22 116.80 105.04 C 116.16 107.55 114.82 109.60 114.93 112.29 C 109.59 118.26 102.83 121.39 95.67 124.61 C 93.08 123.77 90.28 123.30 87.81 122.19 C 86.07 121.03 84.87 118.95 83.58 117.32 C 81.25 114.05 78.39 111.24 76.14 107.92 C 78.18 106.49 80.23 105.09 82.35 103.77 C 82.33 105.77 82.43 108.18 83.50 109.93 C 84.65 111.71 86.97 112.81 88.84 113.66 C 91.84 113.91 95.43 114.34 98.27 113.23 C 103.29 110.81 106.15 104.22 103.94 98.99 C 102.49 95.62 100.00 92.59 98.02 89.51 C 99.03 89.74 100.04 89.95 101.06 90.14 Z" fill="#625869" />
<path d="M 92.56 94.55 C 94.38 93.34 96.71 95.89 97.92 97.07 C 101.56 100.74 102.09 108.64 96.62 110.87 C 93.93 112.09 92.16 110.77 89.83 109.61 C 91.61 108.28 93.38 106.95 95.19 105.67 C 94.97 104.51 94.78 103.35 94.61 102.18 C 92.06 102.40 88.61 101.50 87.39 104.47 C 85.46 107.72 87.68 110.60 88.84 113.66 C 86.97 112.81 84.65 111.71 83.50 109.93 C 82.43 108.18 82.33 105.77 82.35 103.77 C 82.56 102.83 82.82 101.91 83.06 100.98 L 81.98 100.74 C 85.51 98.72 88.86 96.24 92.56 94.55 Z" fill="#736a79" />
<path d="M 81.98 100.74 L 83.06 100.98 C 82.82 101.91 82.56 102.83 82.35 103.77 C 80.23 105.09 78.18 106.49 76.14 107.92 C 75.78 107.37 75.42 106.82 75.07 106.27 C 77.25 104.23 79.37 102.25 81.98 100.74 Z" fill="#a099a8" />
<path d="M 125.93 104.06 C 125.61 104.88 125.30 105.69 124.98 106.51 C 127.24 107.81 129.44 109.22 131.67 110.57 C 125.84 112.34 120.16 114.71 114.98 117.94 C 118.92 113.57 122.28 108.68 125.93 104.06 Z" fill="#736b79" />
<path d="M 69.44 105.95 C 70.05 107.00 70.68 108.04 71.33 109.07 C 68.35 113.79 64.25 117.47 60.97 121.92 C 57.35 127.25 53.00 131.99 49.24 137.22 C 49.45 135.43 49.63 133.63 49.89 131.84 C 51.43 129.18 53.46 126.75 54.83 123.99 C 55.95 121.53 55.54 118.52 57.48 116.57 C 61.03 112.64 65.65 109.69 69.44 105.95 Z" fill="#c8c4c4" />
<path d="M 71.33 109.07 C 72.53 110.13 73.79 111.10 75.04 112.10 C 72.78 115.28 70.92 118.67 68.86 121.98 C 66.11 126.47 61.69 130.18 57.85 133.82 C 55.51 136.10 52.57 137.48 50.08 139.51 C 48.59 141.95 48.41 145.22 46.69 147.63 C 44.65 150.50 42.24 153.03 39.14 154.74 C 39.50 151.72 40.07 148.75 40.69 145.77 C 40.82 146.43 40.96 147.09 41.11 147.75 C 41.57 147.12 42.04 146.49 42.50 145.85 C 43.35 146.36 44.20 146.86 45.06 147.35 C 45.78 145.74 46.73 144.07 47.06 142.33 C 47.12 140.67 46.66 139.07 46.75 137.42 C 47.34 135.42 48.85 133.64 49.89 131.84 C 49.63 133.63 49.45 135.43 49.24 137.22 C 53.00 131.99 57.35 127.25 60.97 121.92 C 64.25 117.47 68.35 113.79 71.33 109.07 Z" fill="#958e96" />
<path d="M 56.36 110.22 C 53.44 115.71 49.04 119.65 46.15 125.16 C 44.49 128.34 43.78 131.82 42.96 135.29 C 42.17 138.78 41.34 142.25 40.69 145.77 C 40.07 148.75 39.50 151.72 39.14 154.74 C 38.02 161.60 38.66 168.32 39.58 175.15 C 39.84 183.30 43.88 189.66 48.97 195.68 L 49.38 196.60 C 46.94 195.20 44.69 193.57 42.74 191.52 C 37.15 184.66 33.90 176.49 32.60 167.79 C 32.63 163.16 33.21 158.56 33.08 153.91 C 34.76 149.87 35.77 145.67 36.79 141.43 C 37.97 136.68 40.38 132.91 42.67 128.67 C 46.45 121.92 50.46 115.35 56.36 110.22 Z" fill="#20223e" />
<path d="M 131.67 110.57 C 133.22 111.30 134.79 111.99 136.41 112.57 C 135.80 116.79 134.80 119.62 131.06 122.08 C 130.56 120.84 130.07 119.60 129.59 118.35 C 127.63 121.90 124.91 124.75 121.96 127.49 C 125.22 127.26 128.49 127.19 131.76 127.25 C 132.22 128.32 132.67 129.40 133.19 130.44 C 134.97 132.90 137.06 135.08 139.32 137.10 C 135.23 138.30 133.11 136.26 129.50 135.00 C 125.25 134.82 121.37 134.79 117.21 133.55 C 115.51 135.14 114.12 136.88 112.61 138.65 C 107.79 140.18 105.77 145.97 102.74 149.79 C 102.18 149.43 101.62 149.08 101.06 148.73 C 100.01 148.20 98.94 147.72 97.86 147.26 C 97.16 146.24 96.46 145.23 95.74 144.23 C 96.64 142.46 97.42 140.24 98.88 138.84 C 101.35 136.82 105.18 135.59 107.18 133.07 C 107.99 131.74 107.60 129.63 107.68 128.10 C 105.94 128.40 104.17 128.62 102.46 129.03 C 106.55 125.23 110.64 121.46 114.98 117.94 C 120.16 114.71 125.84 112.34 131.67 110.57 Z" fill="#908c98" />
<path d="M 75.04 112.10 C 76.98 113.60 78.74 115.21 80.42 117.00 C 77.33 121.88 72.61 123.97 68.06 127.16 C 64.49 129.59 63.95 133.62 61.30 136.86 C 59.61 138.87 57.89 140.82 56.56 143.11 C 56.00 146.15 56.51 149.04 56.94 152.06 C 52.21 151.42 47.76 152.19 43.18 153.35 C 44.22 157.36 45.39 161.34 46.61 165.30 C 45.41 163.66 44.20 162.03 42.99 160.41 C 42.11 163.71 41.32 167.03 40.59 170.37 C 40.24 171.96 39.87 173.54 39.58 175.15 C 38.66 168.32 38.02 161.60 39.14 154.74 C 42.24 153.03 44.65 150.50 46.69 147.63 C 48.41 145.22 48.59 141.95 50.08 139.51 C 52.57 137.48 55.51 136.10 57.85 133.82 C 61.69 130.18 66.11 126.47 68.86 121.98 C 70.92 118.67 72.78 115.28 75.04 112.10 Z" fill="#7a727e" />
<path d="M 143.50 112.99 C 146.20 114.89 147.99 118.29 150.00 120.88 C 149.67 123.45 149.69 126.36 148.71 128.78 C 148.01 130.38 145.55 130.57 144.03 130.60 C 140.40 130.54 136.83 130.06 133.19 130.44 C 132.67 129.40 132.22 128.32 131.76 127.25 C 128.49 127.19 125.22 127.26 121.96 127.49 C 124.91 124.75 127.63 121.90 129.59 118.35 C 130.07 119.60 130.56 120.84 131.06 122.08 C 134.80 119.62 135.80 116.79 136.41 112.57 C 138.74 112.71 141.22 112.48 143.50 112.99 Z" fill="#b2b2ba" />
<path d="M 80.42 117.00 C 82.49 120.53 82.54 124.51 84.01 128.07 C 86.22 130.59 90.24 131.72 93.22 133.14 C 86.70 137.54 83.40 144.20 82.00 151.77 C 82.77 152.06 83.55 152.35 84.33 152.64 C 83.73 154.94 83.15 157.23 82.56 159.53 C 77.84 158.88 73.20 158.13 68.70 156.51 C 68.23 156.10 67.77 155.69 67.31 155.28 C 68.01 154.63 68.71 153.98 69.41 153.33 C 67.25 149.82 66.93 147.04 67.21 142.99 C 65.99 143.18 64.77 143.37 63.55 143.56 C 63.75 144.57 63.96 145.59 64.17 146.61 C 61.61 145.48 59.10 144.27 56.56 143.11 C 57.89 140.82 59.61 138.87 61.30 136.86 C 63.95 133.62 64.49 129.59 68.06 127.16 C 72.61 123.97 77.33 121.88 80.42 117.00 Z" fill="#55465c" />
<path d="M 150.00 120.88 C 151.02 121.25 152.02 121.64 153.02 122.06 C 154.01 123.49 155.02 124.93 155.92 126.42 C 157.05 128.67 158.07 130.99 159.14 133.27 C 159.70 134.46 160.27 135.65 160.77 136.87 C 160.69 140.25 160.16 143.32 161.29 146.59 C 162.98 151.33 166.21 155.23 167.64 160.13 C 167.75 164.13 168.60 168.03 168.90 172.01 C 169.18 176.05 168.28 179.69 167.44 183.58 L 167.23 184.43 C 166.98 179.03 167.32 173.17 165.83 167.94 C 165.18 166.21 164.51 164.48 163.84 162.75 C 165.09 158.43 164.28 155.38 161.50 151.80 C 160.82 154.97 160.43 158.19 160.21 161.42 C 159.57 160.91 158.93 160.40 158.30 159.88 C 158.73 159.19 159.17 158.50 159.65 157.84 C 158.00 156.15 156.36 154.47 154.65 152.85 C 154.72 148.86 155.94 144.35 151.05 142.87 C 147.11 141.05 143.12 139.21 139.32 137.10 C 137.06 135.08 134.97 132.90 133.19 130.44 C 136.83 130.06 140.40 130.54 144.03 130.60 C 145.55 130.57 148.01 130.38 148.71 128.78 C 149.69 126.36 149.67 123.45 150.00 120.88 Z" fill="#9f9da7" />
<path d="M 160.99 127.46 C 160.35 129.39 159.78 131.34 159.14 133.27 C 158.07 130.99 157.05 128.67 155.92 126.42 C 157.62 126.74 159.30 127.08 160.99 127.46 Z" fill="#4e4a61" />
<path d="M 224.02 126.57 C 225.88 127.97 227.55 129.56 229.30 131.09 C 229.40 135.80 230.55 140.35 230.85 145.02 C 231.10 149.04 229.42 152.21 227.55 155.62 C 227.32 153.08 227.33 150.55 227.45 148.01 C 226.09 150.06 224.41 152.08 223.45 154.36 C 223.10 155.95 223.36 157.72 223.36 159.34 C 223.51 162.99 222.13 166.07 221.83 169.72 C 221.60 172.71 222.00 176.05 221.38 178.99 C 220.81 181.08 219.54 183.06 218.69 185.07 C 216.96 188.89 217.37 192.58 215.12 195.91 C 214.31 197.28 213.38 198.57 212.43 199.85 L 212.10 200.30 C 210.43 199.65 208.80 199.00 207.09 198.50 C 207.23 197.65 207.36 196.80 207.45 195.95 C 210.00 193.68 211.78 191.31 213.41 188.31 C 211.76 189.35 210.15 190.45 208.55 191.55 C 209.40 189.41 210.60 187.18 210.91 184.89 C 210.92 182.47 210.57 180.08 210.86 177.65 C 213.33 170.55 216.18 163.59 218.56 156.47 C 220.11 151.84 218.98 147.61 219.84 142.89 C 220.34 140.00 220.85 137.16 220.80 134.21 C 220.82 131.76 220.86 129.31 220.95 126.86 C 221.97 126.73 222.99 126.63 224.02 126.57 Z" fill="#633f6a" />
<path d="M 107.68 128.10 C 107.60 129.63 107.99 131.74 107.18 133.07 C 105.18 135.59 101.35 136.82 98.88 138.84 C 97.42 140.24 96.64 142.46 95.74 144.23 C 93.06 145.96 89.76 147.52 88.90 150.85 C 87.89 154.00 86.80 157.05 85.22 159.97 C 84.34 159.81 83.45 159.67 82.56 159.53 C 83.15 157.23 83.73 154.94 84.33 152.64 C 83.55 152.35 82.77 152.06 82.00 151.77 C 83.40 144.20 86.70 137.54 93.22 133.14 C 96.30 131.76 99.43 130.52 102.46 129.03 C 104.17 128.62 105.94 128.40 107.68 128.10 Z" fill="#807188" />
<path d="M 49.08 129.80 C 49.35 130.48 49.62 131.16 49.89 131.84 C 48.85 133.64 47.34 135.42 46.75 137.42 C 46.66 139.07 47.12 140.67 47.06 142.33 C 46.73 144.07 45.78 145.74 45.06 147.35 C 44.20 146.86 43.35 146.36 42.50 145.85 C 42.04 146.49 41.57 147.12 41.11 147.75 C 40.96 147.09 40.82 146.43 40.69 145.77 C 41.34 142.25 42.17 138.78 42.96 135.29 C 45.04 133.51 47.07 131.66 49.08 129.80 Z" fill="#b3aeb2" />
<path d="M 117.21 133.55 C 121.37 134.79 125.25 134.82 129.50 135.00 C 133.11 136.26 135.23 138.30 139.32 137.10 C 143.12 139.21 147.11 141.05 151.05 142.87 C 149.59 142.79 148.12 142.75 146.65 142.74 C 147.71 145.10 149.69 147.81 149.29 150.47 C 148.90 154.38 147.97 158.22 147.71 162.16 C 146.14 159.50 144.03 155.29 140.59 154.87 C 135.78 154.05 130.79 153.98 125.92 153.79 C 127.67 150.56 129.80 147.60 131.88 144.58 C 129.44 145.68 126.58 146.78 124.58 148.59 C 121.81 151.13 120.13 155.12 117.55 157.80 C 114.31 158.60 110.62 156.21 108.05 154.43 C 108.13 153.37 108.20 152.31 108.26 151.25 C 107.57 150.39 106.83 149.58 106.09 148.77 C 107.91 146.37 110.68 143.23 113.89 143.05 C 115.08 143.55 116.10 144.51 117.13 145.29 C 115.71 146.41 113.87 147.28 113.13 148.97 C 114.62 150.34 116.99 149.73 118.88 149.87 C 119.00 148.11 120.13 145.88 118.56 144.48 C 116.77 142.36 114.68 140.49 112.61 138.65 C 114.12 136.88 115.51 135.14 117.21 133.55 Z" fill="#625869" />
<path d="M 160.77 136.87 C 162.69 141.44 164.03 146.18 166.31 150.61 C 167.95 153.69 167.68 156.78 167.64 160.13 C 166.21 155.23 162.98 151.33 161.29 146.59 C 160.16 143.32 160.69 140.25 160.77 136.87 Z" fill="#5f526f" />
<path d="M 112.61 138.65 C 114.68 140.49 116.77 142.36 118.56 144.48 C 120.13 145.88 119.00 148.11 118.88 149.87 C 116.99 149.73 114.62 150.34 113.13 148.97 C 113.87 147.28 115.71 146.41 117.13 145.29 C 116.10 144.51 115.08 143.55 113.89 143.05 C 110.68 143.23 107.91 146.37 106.09 148.77 C 106.00 151.34 106.01 152.65 108.05 154.43 C 110.62 156.21 114.31 158.60 117.55 157.80 C 120.13 155.12 121.81 151.13 124.58 148.59 C 126.58 146.78 129.44 145.68 131.88 144.58 C 129.80 147.60 127.67 150.56 125.92 153.79 C 124.44 156.43 123.23 159.27 121.99 162.03 C 117.88 163.20 112.09 164.42 108.03 162.87 C 106.15 159.85 104.85 156.44 103.41 153.20 C 103.16 152.07 102.93 150.93 102.74 149.79 C 105.77 145.97 107.79 140.18 112.61 138.65 Z" fill="#23253f" />
<path d="M 56.56 143.11 C 59.10 144.27 61.61 145.48 64.17 146.61 C 63.96 145.59 63.75 144.57 63.55 143.56 C 64.77 143.37 65.99 143.18 67.21 142.99 C 66.93 147.04 67.25 149.82 69.41 153.33 C 68.71 153.98 68.01 154.63 67.31 155.28 C 67.77 155.69 68.23 156.10 68.70 156.51 C 69.49 157.26 70.30 157.99 71.12 158.72 C 69.96 159.46 68.83 160.23 67.68 161.00 C 70.53 161.49 73.26 161.34 75.45 163.50 C 79.52 167.05 80.44 171.48 82.93 176.01 C 74.39 174.61 67.87 169.81 59.89 166.98 C 65.23 171.84 72.28 175.25 78.72 178.49 C 76.75 180.81 79.52 185.51 79.96 188.13 C 75.65 186.67 71.63 184.96 68.39 181.65 C 64.49 178.32 61.87 173.38 56.34 172.96 C 55.32 180.35 59.39 185.07 61.15 191.82 C 58.70 191.11 56.25 190.37 53.80 189.65 C 52.13 184.61 51.17 178.96 48.58 174.32 C 47.03 171.32 43.48 171.25 40.59 170.37 C 41.32 167.03 42.11 163.71 42.99 160.41 C 44.20 162.03 45.41 163.66 46.61 165.30 C 45.39 161.34 44.22 157.36 43.18 153.35 C 47.76 152.19 52.21 151.42 56.94 152.06 C 56.51 149.04 56.00 146.15 56.56 143.11 Z" fill="#5b5162" />
<path d="M 146.65 142.74 C 148.12 142.75 149.59 142.79 151.05 142.87 C 155.94 144.35 154.72 148.86 154.65 152.85 C 152.11 158.60 151.14 163.92 152.50 170.16 C 153.46 174.60 154.65 178.85 154.34 183.46 C 151.08 176.84 149.59 169.27 147.71 162.16 C 147.97 158.22 148.90 154.38 149.29 150.47 C 149.69 147.81 147.71 145.10 146.65 142.74 Z" fill="#1e203c" />
<path d="M 95.74 144.23 C 96.46 145.23 97.16 146.24 97.86 147.26 C 96.18 148.84 94.50 150.44 92.88 152.08 C 95.63 151.02 98.33 149.84 101.06 148.73 C 101.62 149.08 102.18 149.43 102.74 149.79 C 102.93 150.93 103.16 152.07 103.41 153.20 C 99.49 155.92 95.57 158.64 91.50 161.13 C 89.41 160.75 87.32 160.34 85.22 159.97 C 86.80 157.05 87.89 154.00 88.90 150.85 C 89.76 147.52 93.06 145.96 95.74 144.23 Z" fill="#c7c8cd" />
<path d="M 101.06 148.73 C 98.33 149.84 95.63 151.02 92.88 152.08 C 94.50 150.44 96.18 148.84 97.86 147.26 C 98.94 147.72 100.01 148.20 101.06 148.73 Z" fill="#322f44" />
<path d="M 106.09 148.77 C 106.83 149.58 107.57 150.39 108.26 151.25 C 108.20 152.31 108.13 153.37 108.05 154.43 C 106.01 152.65 106.00 151.34 106.09 148.77 Z" fill="#9990a0" />
<path d="M 231.96 149.35 C 233.33 154.61 232.98 157.76 230.81 162.71 C 229.09 157.38 229.46 154.29 231.96 149.35 Z" fill="#453b54" />
<path d="M 161.50 151.80 C 164.28 155.38 165.09 158.43 163.84 162.75 C 164.51 164.48 165.18 166.21 165.83 167.94 C 164.19 167.83 162.54 167.72 160.89 167.65 C 160.86 169.23 160.91 170.81 160.99 172.39 L 160.31 172.09 C 160.10 168.55 160.07 164.96 160.21 161.42 C 160.43 158.19 160.82 154.97 161.50 151.80 Z" fill="#cdc3cc" />
<path d="M 182.14 152.18 C 183.84 151.99 184.68 154.43 182.92 155.02 C 181.23 155.20 180.38 152.78 182.14 152.18 Z" fill="#90829b" />
<path d="M 154.65 152.85 C 156.36 154.47 158.00 156.15 159.65 157.84 C 159.17 158.50 158.73 159.19 158.30 159.88 C 158.93 160.40 159.57 160.91 160.21 161.42 C 160.07 164.96 160.10 168.55 160.31 172.09 C 157.96 171.10 155.80 169.79 153.70 168.35 C 153.30 168.96 152.90 169.56 152.50 170.16 C 151.14 163.92 152.11 158.60 154.65 152.85 Z" fill="#695d6d" />
<path d="M 33.08 153.91 C 33.21 158.56 32.63 163.16 32.60 167.79 C 33.90 176.49 37.15 184.66 42.74 191.52 C 41.90 194.30 41.14 197.11 40.34 199.90 C 39.37 199.98 38.40 200.05 37.43 200.14 C 37.79 198.48 38.24 196.76 38.34 195.07 C 36.93 191.89 34.37 189.38 33.04 186.11 C 31.62 182.71 30.36 179.24 29.01 175.81 C 28.92 172.24 30.04 169.19 30.66 165.73 C 31.16 163.00 31.12 160.33 31.36 157.59 C 31.90 156.35 32.50 155.14 33.08 153.91 Z" fill="#b5b1b9" />
<path d="M 90.17 154.46 C 92.05 154.73 90.06 158.60 88.62 157.69 C 87.84 156.63 88.98 154.69 90.17 154.46 Z" fill="#737680" />
<path d="M 103.41 153.20 C 104.85 156.44 106.15 159.85 108.03 162.87 C 112.09 164.42 117.88 163.20 121.99 162.03 C 126.48 160.35 130.50 158.11 135.39 157.71 C 135.84 160.96 136.22 164.11 137.01 167.31 C 139.35 173.69 141.86 180.08 145.01 186.11 C 145.98 188.31 148.05 191.26 147.72 193.69 C 144.68 200.75 138.55 202.90 132.13 205.90 C 128.96 207.46 128.41 212.58 127.58 215.65 C 130.16 214.52 132.76 213.41 135.34 212.27 C 136.26 213.10 137.16 213.94 138.02 214.83 C 138.63 215.85 139.24 216.86 139.86 217.88 C 144.61 214.46 150.08 213.40 155.21 210.80 C 160.10 209.03 161.01 203.66 165.78 201.38 C 165.69 203.08 165.53 204.77 165.40 206.47 C 168.74 202.67 170.88 198.39 172.74 193.74 C 173.95 195.86 176.14 197.98 175.64 200.59 C 175.37 202.69 175.04 205.16 173.84 206.95 C 168.10 213.48 161.27 218.58 153.29 222.07 C 148.13 222.19 143.42 223.75 138.55 225.25 C 134.77 225.07 131.09 224.06 127.32 223.84 C 124.69 223.68 123.01 225.13 121.13 226.69 C 119.51 226.76 117.88 226.88 116.25 227.00 C 116.95 222.60 117.00 218.87 116.03 214.50 C 115.80 212.63 115.62 210.75 115.43 208.88 C 117.55 208.03 119.73 207.27 121.79 206.28 C 124.55 204.52 127.99 202.10 129.14 198.91 C 128.85 194.93 126.40 190.86 124.80 187.25 C 123.03 183.57 121.98 179.69 119.43 176.61 C 114.64 170.83 108.77 166.12 101.74 163.39 C 98.53 162.19 94.88 161.75 91.50 161.13 C 95.57 158.64 99.49 155.92 103.41 153.20 Z" fill="#f0f0f0" />
<path d="M 125.92 153.79 C 130.79 153.98 135.78 154.05 140.59 154.87 C 144.03 155.29 146.14 159.50 147.71 162.16 C 149.59 169.27 151.08 176.84 154.34 183.46 C 154.65 178.85 153.46 174.60 152.50 170.16 C 152.90 169.56 153.30 168.96 153.70 168.35 C 155.80 169.79 157.96 171.10 160.31 172.09 L 160.99 172.39 C 161.72 177.18 162.22 182.01 163.08 186.77 C 163.33 188.49 164.45 189.47 165.55 190.69 C 165.46 194.26 165.95 197.83 165.78 201.38 C 161.01 203.66 160.10 209.03 155.21 210.80 C 157.23 207.73 158.89 204.48 160.51 201.19 C 161.90 198.24 163.68 195.04 162.47 191.70 C 158.88 185.67 153.60 184.29 147.71 181.42 C 147.73 184.67 148.19 187.47 149.56 190.43 C 150.05 192.02 151.33 193.72 150.38 195.34 C 148.45 199.24 143.46 201.40 140.44 204.54 C 141.31 205.22 142.19 205.90 143.07 206.57 C 141.32 207.78 139.57 209.01 137.84 210.23 C 137.88 211.77 137.93 213.30 138.02 214.83 C 137.16 213.94 136.26 213.10 135.34 212.27 C 135.85 210.07 136.39 207.87 136.92 205.67 C 135.32 205.72 133.73 205.77 132.13 205.90 C 138.55 202.90 144.68 200.75 147.72 193.69 C 148.05 191.26 145.98 188.31 145.01 186.11 C 145.41 184.57 145.81 183.03 146.20 181.49 C 144.54 179.76 142.15 177.87 141.39 175.55 C 140.98 172.62 142.95 169.28 144.14 166.66 C 143.62 166.46 143.11 166.27 142.59 166.08 C 142.44 165.00 142.26 163.92 142.07 162.85 C 141.03 164.54 139.93 166.19 138.89 167.88 C 138.26 167.69 137.64 167.50 137.01 167.31 C 136.22 164.11 135.84 160.96 135.39 157.71 C 130.50 158.11 126.48 160.35 121.99 162.03 C 123.23 159.27 124.44 156.43 125.92 153.79 Z" fill="#8e8691" />
<path d="M 82.56 159.53 C 83.45 159.67 84.34 159.81 85.22 159.97 C 87.32 160.34 89.41 160.75 91.50 161.13 C 94.88 161.75 98.53 162.19 101.74 163.39 C 108.77 166.12 114.64 170.83 119.43 176.61 C 121.98 179.69 123.03 183.57 124.80 187.25 C 126.40 190.86 128.85 194.93 129.14 198.91 C 127.99 202.10 124.55 204.52 121.79 206.28 C 121.57 205.12 121.35 203.98 121.18 202.81 C 122.10 199.67 123.34 196.66 122.66 193.34 C 121.54 187.97 119.08 182.77 114.84 179.17 C 110.66 175.54 105.75 173.43 100.54 171.71 C 98.15 170.57 95.68 169.56 93.16 168.75 C 90.43 167.78 87.71 166.76 84.97 165.82 C 80.22 163.73 75.57 161.39 71.12 158.72 C 70.30 157.99 69.49 157.26 68.70 156.51 C 73.20 158.13 77.84 158.88 82.56 159.53 Z" fill="#1f223e" />
<path d="M 227.45 156.04 C 228.62 161.31 228.17 168.12 224.53 172.39 C 224.78 167.00 224.79 160.83 227.45 156.04 Z" fill="#745876" />
<path d="M 71.12 158.72 C 75.57 161.39 80.22 163.73 84.97 165.82 L 83.24 165.98 C 84.76 167.97 88.03 170.01 88.44 172.53 C 87.40 173.95 86.05 175.19 84.81 176.43 L 82.93 176.01 C 80.44 171.48 79.52 167.05 75.45 163.50 C 73.26 161.34 70.53 161.49 67.68 161.00 C 68.83 160.23 69.96 159.46 71.12 158.72 Z" fill="#7d7482" />
<path d="M 142.07 162.85 C 142.26 163.92 142.44 165.00 142.59 166.08 C 143.11 166.27 143.62 166.46 144.14 166.66 C 142.95 169.28 140.98 172.62 141.39 175.55 C 142.15 177.87 144.54 179.76 146.20 181.49 C 145.81 183.03 145.41 184.57 145.01 186.11 C 141.86 180.08 139.35 173.69 137.01 167.31 C 137.64 167.50 138.26 167.69 138.89 167.88 C 139.93 166.19 141.03 164.54 142.07 162.85 Z" fill="#b4afb4" />
<path d="M 83.24 165.98 L 84.97 165.82 C 87.71 166.76 90.43 167.78 93.16 168.75 C 92.45 169.00 91.74 169.26 91.04 169.52 C 93.55 170.56 96.08 171.54 98.61 172.54 C 98.00 172.86 97.38 173.18 96.77 173.50 C 97.43 174.39 98.07 175.29 98.73 176.18 C 97.39 177.22 96.05 178.25 94.70 179.28 C 91.51 177.98 88.19 177.09 84.81 176.43 C 86.05 175.19 87.40 173.95 88.44 172.53 C 88.03 170.01 84.76 167.97 83.24 165.98 Z" fill="#979198" />
<path d="M 191.63 165.54 C 192.26 170.06 192.02 174.56 191.20 179.04 C 190.42 181.11 189.60 183.17 188.78 185.22 C 187.54 182.38 188.37 179.84 188.77 176.91 C 189.45 172.91 189.45 169.11 191.63 165.54 Z" fill="#9789a1" />
<path d="M 229.32 165.56 C 230.46 167.65 231.63 169.45 231.31 171.96 C 230.97 175.88 228.69 178.47 226.06 181.14 C 226.86 175.92 227.71 170.60 229.32 165.56 Z" fill="#8f6b91" />
<path d="M 59.89 166.98 C 67.87 169.81 74.39 174.61 82.93 176.01 L 84.81 176.43 C 88.19 177.09 91.51 177.98 94.70 179.28 C 97.54 180.46 100.33 181.76 103.00 183.27 C 105.49 184.94 107.82 186.93 110.03 188.96 L 111.19 190.07 C 113.78 192.40 115.95 195.06 118.07 197.82 L 117.52 197.38 C 110.64 192.06 102.94 188.63 94.85 185.60 C 93.20 184.94 91.58 184.24 89.95 183.56 C 86.16 181.95 82.46 180.19 78.72 178.49 C 72.28 175.25 65.23 171.84 59.89 166.98 Z" fill="#1f213d" />
<path d="M 160.89 167.65 C 162.54 167.72 164.19 167.83 165.83 167.94 C 167.32 173.17 166.98 179.03 167.23 184.43 C 166.74 186.53 166.10 188.60 165.55 190.69 C 164.45 189.47 163.33 188.49 163.08 186.77 C 162.22 182.01 161.72 177.18 160.99 172.39 C 160.91 170.81 160.86 169.23 160.89 167.65 Z" fill="#eeebed" />
<path d="M 181.41 166.82 C 181.68 171.90 182.01 176.71 179.75 181.42 C 178.92 180.19 178.10 178.96 177.28 177.73 C 178.41 174.00 179.67 170.32 181.41 166.82 Z" fill="#f9f5fa" />
<path d="M 174.38 168.91 C 175.18 168.61 175.99 168.32 176.78 167.99 C 176.02 172.08 175.14 176.15 174.34 180.23 C 175.32 179.40 176.30 178.56 177.28 177.73 C 178.10 178.96 178.92 180.19 179.75 181.42 C 179.11 185.82 178.41 189.83 176.37 193.84 C 177.99 194.05 179.63 194.18 181.25 194.38 C 179.09 196.63 177.86 199.20 176.94 202.15 C 181.02 201.10 182.14 198.39 183.91 194.96 C 183.48 196.20 183.10 197.44 182.72 198.69 C 183.94 197.94 185.16 197.18 186.38 196.44 C 186.21 197.23 186.03 198.01 185.85 198.80 C 184.57 201.30 183.04 203.64 181.37 205.89 C 180.50 205.94 179.65 205.92 178.81 205.82 C 176.76 208.76 176.32 211.98 173.17 214.04 C 169.43 216.54 165.34 218.36 161.80 221.19 C 167.13 220.60 170.98 219.13 175.05 215.60 C 177.51 215.83 179.94 216.21 182.36 216.69 C 183.67 214.65 184.97 212.61 186.31 210.59 C 188.17 211.56 190.01 211.88 192.09 212.04 C 192.23 213.40 192.36 214.77 192.50 216.13 C 190.76 217.22 188.92 218.09 187.09 219.00 C 187.56 217.20 188.06 215.41 188.52 213.62 C 187.46 214.60 186.41 215.58 185.36 216.58 C 181.63 218.65 178.18 221.24 174.40 223.21 C 173.46 223.77 172.23 222.96 171.26 222.71 C 171.06 222.76 170.86 222.81 170.65 222.85 C 162.99 224.14 154.88 229.58 147.26 228.39 C 148.48 227.67 149.68 226.94 150.96 226.32 C 155.55 225.50 159.73 225.53 163.46 222.31 C 160.36 222.22 157.27 222.14 154.17 222.08 L 153.29 222.07 C 161.27 218.58 168.10 213.48 173.84 206.95 C 175.04 205.16 175.37 202.69 175.64 200.59 C 176.14 197.98 173.95 195.86 172.74 193.74 C 170.88 198.39 168.74 202.67 165.40 206.47 C 165.53 204.77 165.69 203.08 165.78 201.38 C 165.95 197.83 165.46 194.26 165.55 190.69 C 166.10 188.60 166.74 186.53 167.23 184.43 L 167.44 183.58 C 167.67 185.17 167.92 186.76 168.21 188.34 C 170.99 183.94 172.19 179.13 172.90 174.03 C 173.29 172.30 173.80 170.59 174.38 168.91 Z" fill="#6a4a70" />
<path d="M 93.16 168.75 C 95.68 169.56 98.15 170.57 100.54 171.71 C 103.40 173.96 106.54 175.63 109.72 177.37 C 113.18 178.96 113.56 183.24 115.41 186.33 C 113.99 187.56 112.60 188.82 111.19 190.07 L 110.03 188.96 C 109.24 187.04 108.63 185.08 108.02 183.10 C 109.12 182.72 110.23 182.35 111.33 181.98 C 109.99 180.50 108.63 178.66 106.86 177.72 C 105.35 177.88 103.89 178.59 102.50 179.15 C 102.67 180.52 102.84 181.89 103.00 183.27 C 100.33 181.76 97.54 180.46 94.70 179.28 C 96.05 178.25 97.39 177.22 98.73 176.18 C 98.07 175.29 97.43 174.39 96.77 173.50 C 97.38 173.18 98.00 172.86 98.61 172.54 C 96.08 171.54 93.55 170.56 91.04 169.52 C 91.74 169.26 92.45 169.00 93.16 168.75 Z" fill="#aea9ad" />
<path d="M 40.59 170.37 C 42.47 173.53 44.53 176.75 45.92 180.16 C 47.26 183.05 45.73 186.61 46.65 189.44 C 47.32 191.55 48.17 193.61 48.97 195.68 C 43.88 189.66 39.84 183.30 39.58 175.15 C 39.87 173.54 40.24 171.96 40.59 170.37 Z" fill="#c8cacd" />
<path d="M 40.59 170.37 C 43.48 171.25 47.03 171.32 48.58 174.32 C 51.17 178.96 52.13 184.61 53.80 189.65 C 56.25 190.37 58.70 191.11 61.15 191.82 C 61.95 194.58 62.70 197.33 63.72 200.02 C 66.49 202.01 69.41 203.77 72.16 205.79 C 69.80 206.24 67.41 206.67 65.03 207.00 C 64.33 207.08 63.63 207.17 62.93 207.26 C 63.55 205.65 64.09 204.01 64.72 202.41 L 63.69 202.09 C 60.22 200.74 56.66 199.75 53.05 198.83 C 51.83 198.09 50.61 197.34 49.38 196.60 L 48.97 195.68 C 48.17 193.61 47.32 191.55 46.65 189.44 C 45.73 186.61 47.26 183.05 45.92 180.16 C 44.53 176.75 42.47 173.53 40.59 170.37 Z" fill="#96919c" />
<path d="M 100.54 171.71 C 105.75 173.43 110.66 175.54 114.84 179.17 C 119.08 182.77 121.54 187.97 122.66 193.34 C 123.34 196.66 122.10 199.67 121.18 202.81 C 120.13 203.83 119.03 204.82 117.94 205.82 C 117.15 205.21 116.36 204.60 115.58 203.98 L 114.91 203.43 C 114.42 202.68 113.95 201.92 113.49 201.16 C 114.86 199.93 116.16 198.63 117.52 197.38 L 118.07 197.82 C 118.52 198.25 118.97 198.67 119.42 199.09 C 119.77 197.01 120.46 194.69 120.15 192.58 C 119.26 190.21 117.05 188.23 115.41 186.33 C 113.56 183.24 113.18 178.96 109.72 177.37 C 106.54 175.63 103.40 173.96 100.54 171.71 Z" fill="#f7f6ee" />
<path d="M 68.39 181.65 C 71.63 184.96 75.65 186.67 79.96 188.13 C 83.43 189.34 86.34 191.40 89.24 193.61 C 89.19 194.78 89.15 195.97 89.04 197.13 C 88.13 197.58 87.21 198.02 86.28 198.41 C 85.68 196.28 85.21 193.88 84.11 191.96 C 82.15 190.41 79.57 189.54 77.30 188.52 C 73.28 186.88 69.58 184.68 65.71 182.74 C 64.46 188.03 64.96 193.33 64.18 198.64 C 64.03 199.10 63.88 199.56 63.72 200.02 C 62.70 197.33 61.95 194.58 61.15 191.82 C 59.39 185.07 55.32 180.35 56.34 172.96 C 61.87 173.38 64.49 178.32 68.39 181.65 Z" fill="#21223e" />
<path d="M 29.01 175.81 C 30.36 179.24 31.62 182.71 33.04 186.11 C 34.37 189.38 36.93 191.89 38.34 195.07 C 38.24 196.76 37.79 198.48 37.43 200.14 C 36.11 200.29 34.79 200.45 33.48 200.62 C 31.73 205.35 30.13 209.89 30.54 215.03 C 34.12 212.50 37.47 210.66 38.51 206.02 C 41.51 206.15 44.53 206.48 47.53 206.38 C 50.37 206.30 52.80 205.01 55.35 203.91 C 56.39 204.24 57.43 204.58 58.47 204.92 C 58.05 206.35 57.62 207.79 57.29 209.25 C 57.07 210.35 56.89 211.45 56.77 212.57 C 64.55 212.59 72.25 211.74 79.99 211.26 C 87.23 210.70 94.12 213.52 100.63 216.37 C 103.42 217.65 104.95 219.24 106.34 221.93 C 106.87 223.21 107.30 224.67 108.12 225.80 C 110.50 226.54 113.10 226.67 115.56 227.01 C 111.15 228.28 107.37 228.20 102.94 227.16 C 95.27 225.71 89.40 221.29 81.76 220.30 C 75.91 219.57 70.05 220.61 64.14 219.93 C 57.51 219.19 51.18 217.90 44.45 218.50 C 36.72 218.76 29.83 220.91 22.68 217.21 C 23.26 215.07 23.81 212.94 24.33 210.79 C 28.38 208.46 30.32 205.00 32.25 200.91 C 31.67 200.32 31.09 199.74 30.50 199.16 C 24.07 200.09 22.99 205.18 20.25 210.08 L 19.93 208.86 C 18.88 209.41 17.82 209.96 16.77 210.50 C 16.71 207.15 16.39 204.13 17.91 201.00 C 20.50 195.23 26.09 191.67 27.92 185.89 C 29.08 182.57 29.03 179.27 29.01 175.81 Z" fill="#f2f3f2" />
<path d="M 209.69 178.07 C 210.08 177.92 210.47 177.78 210.86 177.65 C 210.57 180.08 210.92 182.47 210.91 184.89 C 210.60 187.18 209.40 189.41 208.55 191.55 C 210.15 190.45 211.76 189.35 213.41 188.31 C 211.78 191.31 210.00 193.68 207.45 195.95 C 204.61 198.26 203.35 201.06 202.22 204.45 C 199.49 207.50 197.10 210.60 194.82 214.01 C 194.06 214.73 193.29 215.44 192.50 216.13 C 192.36 214.77 192.23 213.40 192.09 212.04 C 190.01 211.88 188.17 211.56 186.31 210.59 C 184.97 212.61 183.67 214.65 182.36 216.69 C 179.94 216.21 177.51 215.83 175.05 215.60 C 179.53 211.83 184.26 208.52 188.48 204.46 C 192.11 200.89 195.64 198.51 200.32 196.61 C 202.53 189.75 207.89 185.13 209.69 178.07 Z" fill="#51385e" />
<path d="M 106.86 177.72 C 108.63 178.66 109.99 180.50 111.33 181.98 C 110.23 182.35 109.12 182.72 108.02 183.10 C 108.63 185.08 109.24 187.04 110.03 188.96 C 107.82 186.93 105.49 184.94 103.00 183.27 C 102.84 181.89 102.67 180.52 102.50 179.15 C 103.89 178.59 105.35 177.88 106.86 177.72 Z" fill="#958f98" />
<path d="M 78.72 178.49 C 82.46 180.19 86.16 181.95 89.95 183.56 C 90.86 186.19 91.89 188.79 92.86 191.41 C 91.66 192.14 90.44 192.87 89.24 193.61 C 86.34 191.40 83.43 189.34 79.96 188.13 C 79.52 185.51 76.75 180.81 78.72 178.49 Z" fill="#726977" />
<path d="M 147.71 181.42 C 153.60 184.29 158.88 185.67 162.47 191.70 C 163.68 195.04 161.90 198.24 160.51 201.19 C 158.88 196.65 157.48 192.08 155.31 187.75 C 155.61 191.11 156.27 194.58 156.06 197.95 C 155.59 201.78 153.23 205.59 151.53 209.00 C 148.72 208.17 145.90 207.34 143.07 206.57 C 142.19 205.90 141.31 205.22 140.44 204.54 C 143.46 201.40 148.45 199.24 150.38 195.34 C 151.33 193.72 150.05 192.02 149.56 190.43 C 148.19 187.47 147.73 184.67 147.71 181.42 Z" fill="#5e4e63" />
<path d="M 65.71 182.74 C 69.58 184.68 73.28 186.88 77.30 188.52 C 79.57 189.54 82.15 190.41 84.11 191.96 C 85.21 193.88 85.68 196.28 86.28 198.41 C 87.21 198.02 88.13 197.58 89.04 197.13 C 88.66 198.92 88.17 200.68 87.77 202.46 C 84.36 202.65 80.54 203.51 77.45 201.58 C 74.72 200.06 73.90 197.50 72.60 194.87 C 71.73 196.91 70.84 198.95 69.97 200.99 C 68.55 198.92 67.07 196.90 65.51 194.94 C 65.05 196.17 64.60 197.40 64.18 198.64 C 64.96 193.33 64.46 188.03 65.71 182.74 Z" fill="#5e5565" />
<path d="M 89.95 183.56 C 91.58 184.24 93.20 184.94 94.85 185.60 C 94.75 188.30 95.16 190.93 95.37 193.61 C 95.64 196.47 94.55 199.32 93.73 202.04 C 93.50 202.75 93.28 203.47 93.06 204.19 C 94.92 204.48 96.77 204.78 98.62 205.11 C 100.40 206.11 102.62 207.30 103.57 209.19 C 104.11 211.82 101.78 212.65 100.16 214.15 C 94.02 211.00 87.01 209.91 80.47 207.48 C 82.91 207.19 85.34 206.84 87.78 206.53 C 87.75 205.17 87.72 203.82 87.77 202.46 C 88.17 200.68 88.66 198.92 89.04 197.13 C 89.15 195.97 89.19 194.78 89.24 193.61 C 90.44 192.87 91.66 192.14 92.86 191.41 C 91.89 188.79 90.86 186.19 89.95 183.56 Z" fill="#908892" />
<path d="M 229.39 185.04 C 231.58 185.27 234.01 186.06 234.24 188.64 C 234.74 193.71 233.10 199.13 232.10 204.09 C 232.14 202.72 232.16 201.36 232.17 200.00 C 230.79 202.16 229.56 204.86 227.57 206.52 C 224.58 206.66 221.39 205.90 218.43 206.31 C 217.13 207.55 216.08 209.19 215.07 210.68 C 214.75 210.23 214.42 209.77 214.10 209.31 C 214.30 208.09 214.49 206.86 214.68 205.63 C 218.52 204.46 220.31 203.23 222.67 200.00 C 218.54 201.36 216.59 201.57 212.43 199.85 C 213.38 198.57 214.31 197.28 215.12 195.91 C 217.37 192.58 216.96 188.89 218.69 185.07 L 219.16 186.54 C 222.52 186.12 226.00 184.91 229.39 185.04 Z" fill="#79707d" />
<path d="M 94.85 185.60 C 102.94 188.63 110.64 192.06 117.52 197.38 C 116.16 198.63 114.86 199.93 113.49 201.16 C 113.95 201.92 114.42 202.68 114.91 203.43 C 112.03 203.73 109.79 204.85 107.50 206.56 C 110.54 206.29 113.01 205.62 115.58 203.98 C 116.36 204.60 117.15 205.21 117.94 205.82 C 119.03 204.82 120.13 203.83 121.18 202.81 C 121.35 203.98 121.57 205.12 121.79 206.28 C 119.73 207.27 117.55 208.03 115.43 208.88 C 112.44 211.57 111.51 216.53 109.94 220.17 C 106.68 218.18 103.53 215.95 100.16 214.15 C 101.78 212.65 104.11 211.82 103.57 209.19 C 102.62 207.30 100.40 206.11 98.62 205.11 C 100.91 203.41 103.24 201.76 105.57 200.12 C 105.79 202.14 106.02 204.15 106.26 206.16 C 107.31 202.48 108.09 198.73 108.77 194.96 C 103.71 197.30 98.59 199.29 93.73 202.04 C 94.55 199.32 95.64 196.47 95.37 193.61 C 95.16 190.93 94.75 188.30 94.85 185.60 Z" fill="#b6b1b3" />
<path d="M 115.41 186.33 C 117.05 188.23 119.26 190.21 120.15 192.58 C 120.46 194.69 119.77 197.01 119.42 199.09 C 118.97 198.67 118.52 198.25 118.07 197.82 C 115.95 195.06 113.78 192.40 111.19 190.07 C 112.60 188.82 113.99 187.56 115.41 186.33 Z" fill="#d1cfcb" />
<path d="M 187.93 187.17 C 186.57 189.76 185.16 192.31 183.91 194.96 C 182.14 198.39 181.02 201.10 176.94 202.15 C 177.86 199.20 179.09 196.63 181.25 194.38 C 183.50 192.00 185.72 189.59 187.93 187.17 Z" fill="#ece7ec" />
<path d="M 155.31 187.75 C 157.48 192.08 158.88 196.65 160.51 201.19 C 158.89 204.48 157.23 207.73 155.21 210.80 C 150.08 213.40 144.61 214.46 139.86 217.88 C 139.24 216.86 138.63 215.85 138.02 214.83 C 137.93 213.30 137.88 211.77 137.84 210.23 C 139.57 209.01 141.32 207.78 143.07 206.57 C 145.90 207.34 148.72 208.17 151.53 209.00 C 153.23 205.59 155.59 201.78 156.06 197.95 C 156.27 194.58 155.61 191.11 155.31 187.75 Z" fill="#23233f" />
<path d="M 42.74 191.52 C 44.69 193.57 46.94 195.20 49.38 196.60 C 50.61 197.34 51.83 198.09 53.05 198.83 C 53.84 200.52 54.59 202.22 55.35 203.91 C 52.80 205.01 50.37 206.30 47.53 206.38 C 44.53 206.48 41.51 206.15 38.51 206.02 C 39.18 204.00 39.75 201.95 40.34 199.90 C 41.14 197.11 41.90 194.30 42.74 191.52 Z" fill="#8a838f" />
<path d="M 65.51 194.94 C 67.07 196.90 68.55 198.92 69.97 200.99 C 70.84 198.95 71.73 196.91 72.60 194.87 C 73.90 197.50 74.72 200.06 77.45 201.58 C 80.54 203.51 84.36 202.65 87.77 202.46 C 87.72 203.82 87.75 205.17 87.78 206.53 C 85.34 206.84 82.91 207.19 80.47 207.48 C 77.76 207.61 74.54 208.88 72.01 207.82 C 69.61 207.00 67.58 206.64 65.03 207.00 C 67.41 206.67 69.80 206.24 72.16 205.79 C 69.41 203.77 66.49 202.01 63.72 200.02 C 63.88 199.56 64.03 199.10 64.18 198.64 C 64.60 197.40 65.05 196.17 65.51 194.94 Z" fill="#7a717d" />
<path d="M 108.77 194.96 C 108.09 198.73 107.31 202.48 106.26 206.16 C 106.02 204.15 105.79 202.14 105.57 200.12 C 103.24 201.76 100.91 203.41 98.62 205.11 C 96.77 204.78 94.92 204.48 93.06 204.19 C 93.28 203.47 93.50 202.75 93.73 202.04 C 98.59 199.29 103.71 197.30 108.77 194.96 Z" fill="#1f1f3d" />
<path d="M 207.45 195.95 C 207.36 196.80 207.23 197.65 207.09 198.50 C 205.65 200.63 203.99 202.58 202.22 204.45 C 203.35 201.06 204.61 198.26 207.45 195.95 Z" fill="#b8adc0" />
<path d="M 207.09 198.50 C 208.80 199.00 210.43 199.65 212.10 200.30 C 210.07 202.83 208.08 204.51 205.05 205.70 C 201.69 207.11 200.18 209.81 197.77 212.35 C 196.78 212.90 195.79 213.43 194.82 214.01 C 197.10 210.60 199.49 207.50 202.22 204.45 C 203.99 202.58 205.65 200.63 207.09 198.50 Z" fill="#1d1937" />
<path d="M 30.50 199.16 C 31.09 199.74 31.67 200.32 32.25 200.91 C 30.32 205.00 28.38 208.46 24.33 210.79 C 23.23 211.52 22.12 212.22 21.01 212.94 C 20.76 211.99 20.50 211.03 20.25 210.08 C 22.99 205.18 24.07 200.09 30.50 199.16 Z" fill="#222541" />
<path d="M 53.05 198.83 C 56.66 199.75 60.22 200.74 63.69 202.09 C 62.01 205.02 59.83 207.09 57.29 209.25 C 57.62 207.79 58.05 206.35 58.47 204.92 C 57.43 204.58 56.39 204.24 55.35 203.91 C 54.59 202.22 53.84 200.52 53.05 198.83 Z" fill="#bcbabe" />
<path d="M 37.43 200.14 C 38.40 200.05 39.37 199.98 40.34 199.90 C 39.75 201.95 39.18 204.00 38.51 206.02 C 37.47 210.66 34.12 212.50 30.54 215.03 C 30.13 209.89 31.73 205.35 33.48 200.62 C 34.79 200.45 36.11 200.29 37.43 200.14 Z" fill="#22233f" />
<path d="M 232.17 200.00 C 232.16 201.36 232.14 202.72 232.10 204.09 C 231.56 206.77 230.39 208.65 227.96 209.97 C 224.51 212.32 219.48 211.39 215.49 211.23 L 215.07 210.68 C 216.08 209.19 217.13 207.55 218.43 206.31 C 221.39 205.90 224.58 206.66 227.57 206.52 C 229.56 204.86 230.79 202.16 232.17 200.00 Z" fill="#23243f" />
<path d="M 63.69 202.09 L 64.72 202.41 C 64.09 204.01 63.55 205.65 62.93 207.26 C 63.63 207.17 64.33 207.08 65.03 207.00 C 67.58 206.64 69.61 207.00 72.01 207.82 C 74.54 208.88 77.76 207.61 80.47 207.48 C 87.01 209.91 94.02 211.00 100.16 214.15 C 103.53 215.95 106.68 218.18 109.94 220.17 C 111.51 216.53 112.44 211.57 115.43 208.88 C 115.62 210.75 115.80 212.63 116.03 214.50 C 115.62 217.70 115.15 220.90 114.67 224.09 C 110.88 224.59 109.38 224.34 106.34 221.93 C 104.95 219.24 103.42 217.65 100.63 216.37 C 94.12 213.52 87.23 210.70 79.99 211.26 C 72.25 211.74 64.55 212.59 56.77 212.57 C 56.89 211.45 57.07 210.35 57.29 209.25 C 59.83 207.09 62.01 205.02 63.69 202.09 Z" fill="#1f213e" />
<path d="M 114.91 203.43 L 115.58 203.98 C 113.01 205.62 110.54 206.29 107.50 206.56 C 109.79 204.85 112.03 203.73 114.91 203.43 Z" fill="#312f3e" />
<path d="M 132.13 205.90 C 133.73 205.77 135.32 205.72 136.92 205.67 C 136.39 207.87 135.85 210.07 135.34 212.27 C 132.76 213.41 130.16 214.52 127.58 215.65 C 128.41 212.58 128.96 207.46 132.13 205.90 Z" fill="#2b2c47" />
<path d="M 214.68 205.63 C 214.49 206.86 214.30 208.09 214.10 209.31 C 211.71 210.47 209.27 211.51 206.75 212.36 C 207.35 210.87 207.77 209.06 208.80 207.81 C 210.61 206.81 212.74 206.30 214.68 205.63 Z" fill="#25233b" />
<path d="M 203.29 211.58 C 200.97 214.68 198.49 217.64 195.59 220.23 C 190.91 222.66 186.33 225.13 181.24 226.64 C 180.60 226.25 179.97 225.86 179.33 225.47 C 182.20 222.85 184.31 220.39 185.36 216.58 C 186.41 215.58 187.46 214.60 188.52 213.62 C 188.06 215.41 187.56 217.20 187.09 219.00 C 188.92 218.09 190.76 217.22 192.50 216.13 C 193.29 215.44 194.06 214.73 194.82 214.01 C 195.79 213.43 196.78 212.90 197.77 212.35 C 199.60 212.04 201.45 211.81 203.29 211.58 Z" fill="#989099" />
<path d="M 185.36 216.58 C 184.31 220.39 182.20 222.85 179.33 225.47 C 179.97 225.86 180.60 226.25 181.24 226.64 C 174.86 228.52 168.37 230.21 161.79 231.16 C 164.83 228.16 168.17 226.30 170.65 222.85 C 170.86 222.81 171.06 222.76 171.26 222.71 C 172.23 222.96 173.46 223.77 174.40 223.21 C 178.18 221.24 181.63 218.65 185.36 216.58 Z" fill="#f0f0f0" />
<path d="M 153.29 222.07 L 154.17 222.08 C 153.21 222.47 152.26 222.87 151.31 223.28 C 151.19 224.30 151.07 225.31 150.96 226.32 C 149.68 226.94 148.48 227.67 147.26 228.39 C 144.96 227.88 142.68 227.24 140.39 226.66 C 139.77 226.19 139.16 225.73 138.55 225.25 C 143.42 223.75 148.13 222.19 153.29 222.07 Z" fill="#564965" />
<path d="M 163.46 222.31 C 159.73 225.53 155.55 225.50 150.96 226.32 C 151.07 225.31 151.19 224.30 151.31 223.28 C 152.26 222.87 153.21 222.47 154.17 222.08 C 157.27 222.14 160.36 222.22 163.46 222.31 Z" fill="#c1bcc5" />
<path d="M 127.32 223.84 C 131.09 224.06 134.77 225.07 138.55 225.25 C 139.16 225.73 139.77 226.19 140.39 226.66 C 133.74 227.70 127.79 227.54 121.13 226.69 C 123.01 225.13 124.69 223.68 127.32 223.84 Z" fill="#76737c" />
</svg>