<?xml version="1.0" encoding="UTF-8" standalone="no"?>
<!DOCTYPE svg PUBLIC "-//W3C//DTD SVG 1.1//EN" "http://www.w3.org/Graphics/SVG/1.1/DTD/svg11.dtd">
<svg xmlns="http://www.w3.org/2000/svg" version="1.1" viewBox="0 0 256 256" width="256.0pt" height="256.0pt">
<path d="M 0.00 0.00 L 256.00 0.00 L 256.00 256.00 L 0.00 256.00 L 0.00 0.00 Z" fill="#fefefe" />
<path d="M 84.99 18.06 C 89.04 18.18 94.65 16.97 97.99 19.61 C 96.15 19.83 94.28 19.96 92.45 20.32 C 91.68 21.57 90.96 22.39 91.95 23.81 C 88.02 25.21 84.21 26.63 80.56 28.68 C 76.69 30.83 71.22 31.52 68.13 34.72 C 70.10 34.28 72.03 33.66 74.00 33.26 C 75.57 33.30 77.13 34.29 78.48 35.04 C 75.39 38.45 76.76 42.25 75.58 46.88 C 73.81 50.81 71.43 54.53 67.46 56.54 C 62.25 59.24 56.74 61.30 51.62 64.21 C 49.80 64.30 47.81 64.51 46.02 64.14 C 40.96 62.98 35.87 61.98 30.86 60.62 C 31.73 60.17 32.60 59.71 33.47 59.24 L 33.65 59.12 C 33.51 55.95 33.41 53.26 34.62 50.26 C 32.28 52.09 31.53 54.26 30.82 57.04 C 30.33 58.71 29.68 60.16 28.74 61.63 C 27.57 60.23 27.02 58.68 25.28 57.94 C 23.28 62.25 25.07 65.54 26.50 69.62 C 29.14 69.66 31.47 69.12 33.94 70.26 C 38.06 72.20 42.47 73.45 46.53 75.50 C 48.37 76.36 48.38 77.11 48.39 79.01 C 47.85 81.15 47.08 82.93 47.86 85.14 C 47.81 89.18 46.26 92.96 46.68 97.09 C 44.19 96.70 46.33 92.53 46.19 90.87 C 43.48 92.40 43.57 97.31 42.92 100.00 C 41.45 105.62 41.85 111.37 40.43 117.00 C 39.29 121.37 39.31 125.77 39.23 130.24 C 40.81 128.89 41.76 127.16 43.58 126.10 C 42.93 127.42 42.23 128.71 41.51 130.00 C 41.66 130.96 41.80 131.91 41.95 132.87 C 41.40 132.71 40.86 132.54 40.31 132.38 C 40.37 133.26 40.43 134.13 40.49 135.01 C 42.82 133.18 45.19 131.46 47.30 129.37 C 50.52 126.15 54.33 124.02 58.34 121.96 L 59.77 122.85 C 57.76 124.28 55.73 125.66 53.83 127.24 C 51.34 129.30 48.76 131.18 46.53 133.54 C 44.67 135.70 41.61 136.13 39.15 137.72 C 39.79 139.22 40.44 140.72 41.05 142.24 L 41.25 143.03 L 41.17 144.86 C 40.47 145.83 39.02 146.70 39.10 147.98 C 38.93 152.61 37.91 157.18 40.86 161.10 C 41.56 165.45 40.49 170.56 43.71 174.13 C 43.99 171.07 43.40 168.13 43.26 165.10 L 44.02 164.62 C 45.81 166.21 45.51 169.95 47.10 172.07 C 47.51 172.84 47.93 173.61 48.36 174.37 C 48.35 175.06 48.35 175.75 48.34 176.44 C 48.77 176.49 49.21 176.54 49.64 176.59 C 52.84 184.02 56.64 190.99 62.18 196.97 C 62.76 196.63 63.35 196.30 63.93 195.97 C 66.46 198.97 69.02 202.28 72.79 203.76 L 73.12 202.02 C 77.47 203.38 81.53 205.74 85.72 207.61 C 86.25 207.04 86.78 206.48 87.32 205.92 C 91.42 207.84 97.16 212.56 101.82 211.21 C 104.53 209.97 106.44 207.90 109.58 209.34 L 110.06 208.49 C 110.95 208.47 111.85 208.46 112.75 208.46 L 113.19 207.27 L 114.89 207.02 C 114.66 206.17 114.43 205.31 114.20 204.45 C 115.22 203.83 116.22 203.19 117.21 202.52 L 118.07 202.55 C 121.50 204.20 126.06 203.55 129.78 203.52 C 128.05 202.13 126.10 201.55 125.31 199.37 C 123.56 199.47 121.82 199.60 120.07 199.69 L 119.35 198.30 C 122.28 198.03 128.91 197.72 129.44 193.90 C 130.24 193.88 131.04 193.85 131.84 193.82 C 131.25 192.99 130.66 192.17 130.08 191.34 C 131.10 191.47 132.12 191.59 133.14 191.72 C 134.69 196.18 133.94 199.84 133.00 204.28 C 133.80 205.05 134.60 205.83 135.40 206.59 C 135.35 207.82 135.29 209.04 135.24 210.26 L 133.76 210.53 L 133.60 209.95 L 134.35 209.73 L 134.14 209.13 L 133.69 207.87 C 131.21 208.71 128.92 209.04 127.60 211.58 C 125.83 214.96 124.11 218.41 122.46 221.86 C 121.43 221.76 120.43 221.54 119.47 221.22 C 120.83 219.49 121.97 217.73 123.87 216.53 C 122.96 215.41 122.59 214.24 120.99 214.01 C 118.07 213.47 115.13 211.79 112.15 212.02 C 109.71 219.26 101.48 224.69 96.60 230.34 L 96.78 231.22 C 96.44 231.76 96.09 232.31 95.76 232.85 C 95.08 232.38 94.40 231.91 93.72 231.43 C 92.61 231.48 91.51 231.52 90.41 231.57 C 89.92 230.91 89.44 230.25 88.96 229.59 C 89.55 229.25 90.14 228.90 90.72 228.55 L 89.83 227.44 C 91.19 226.59 92.47 225.40 94.01 225.01 C 97.62 224.15 100.30 221.62 103.83 220.52 C 102.97 218.12 102.11 214.65 98.88 214.91 C 97.40 214.62 96.78 215.29 97.02 216.93 C 92.54 219.68 89.93 224.20 85.42 226.78 C 83.67 224.99 81.80 228.19 80.19 229.00 C 76.78 227.46 72.61 227.48 69.30 229.28 C 66.30 230.78 63.17 230.98 59.97 231.75 C 59.46 231.64 58.96 231.53 58.46 231.42 C 58.05 232.10 57.54 232.59 56.95 232.89 C 51.99 233.20 46.97 232.90 42.00 233.03 C 37.72 232.75 33.17 232.00 30.07 228.78 C 30.73 227.13 31.17 226.49 32.69 225.48 L 31.88 224.38 C 35.70 222.96 41.17 222.91 45.01 224.34 C 46.80 224.77 48.81 224.29 50.62 224.17 C 53.87 223.71 58.62 224.73 59.96 220.81 L 60.81 220.93 C 60.40 222.64 60.14 224.35 59.98 226.11 C 61.93 224.78 63.66 224.33 65.96 223.90 C 67.91 223.06 67.02 221.33 67.21 219.63 C 67.20 218.41 67.23 217.20 67.28 215.98 C 68.82 213.33 69.14 210.33 70.48 207.59 C 70.54 206.78 70.58 205.97 70.61 205.15 C 69.27 205.31 68.05 205.56 66.78 206.03 C 66.36 204.66 66.08 203.27 65.87 201.85 C 64.90 201.79 63.93 201.74 62.96 201.69 C 63.11 202.36 63.26 203.02 63.40 203.69 C 61.86 205.06 60.17 206.25 58.58 207.57 C 56.84 209.49 55.63 212.03 54.40 214.30 C 55.63 208.38 59.26 204.76 62.88 200.31 C 62.05 200.32 61.22 200.35 60.39 200.38 C 58.61 202.97 56.77 205.35 54.71 207.72 C 52.06 210.74 51.02 214.57 48.73 217.75 C 46.71 219.05 45.71 214.27 44.72 213.16 C 42.99 213.75 41.38 214.27 40.06 215.60 C 38.53 217.13 36.95 217.76 34.92 218.40 C 33.94 217.72 32.95 217.06 31.96 216.39 C 30.37 217.51 28.76 218.62 27.20 219.79 C 26.57 219.39 25.93 219.00 25.30 218.61 C 26.13 213.94 30.11 211.26 33.79 208.80 C 37.83 206.23 41.54 203.06 43.68 198.69 C 44.26 196.29 44.49 193.22 42.83 191.19 C 39.31 185.19 36.27 179.00 33.44 172.65 C 31.55 166.49 31.08 160.31 30.01 154.01 C 29.97 143.69 30.00 133.32 30.00 122.99 C 31.31 115.54 31.66 107.88 33.43 100.35 C 34.10 95.85 35.98 92.13 34.46 87.64 C 33.19 83.84 30.92 79.64 27.39 77.53 C 25.49 76.18 23.81 74.47 22.26 72.73 C 19.72 69.91 18.70 65.64 18.04 61.99 C 18.41 59.20 19.68 56.46 20.99 53.99 C 22.60 50.88 26.44 49.21 29.20 47.19 C 32.69 44.49 36.88 43.27 40.26 40.41 C 40.72 40.50 41.18 40.60 41.63 40.70 C 42.75 38.88 43.17 38.52 45.09 39.72 L 42.82 40.15 C 45.83 43.99 48.08 48.22 50.82 52.21 C 53.19 54.33 55.21 55.37 56.31 58.61 C 57.19 58.14 58.84 58.02 59.09 56.95 C 58.32 54.10 56.57 51.44 54.90 49.04 C 52.41 45.35 48.76 43.42 45.75 40.14 C 49.22 38.14 52.56 39.59 56.37 38.49 C 61.12 37.59 65.09 34.43 67.05 30.02 C 70.96 24.23 78.06 19.25 84.99 18.06 Z" fill="#f2f2f2" />
<path d="M 122.57 19.17 C 123.07 21.62 123.21 24.19 123.98 26.56 C 124.96 28.76 126.34 30.73 127.36 32.90 C 127.82 34.36 127.29 36.08 127.45 37.61 C 128.81 40.40 130.93 42.58 133.43 44.38 C 136.25 42.55 138.93 45.29 142.06 43.02 C 142.95 43.45 143.81 43.93 144.65 44.43 C 145.67 45.93 145.71 48.16 146.04 49.90 C 145.88 53.27 146.72 56.41 149.15 58.83 C 152.34 62.32 156.84 63.75 160.03 67.22 C 160.90 67.37 161.78 67.49 162.65 67.59 C 162.48 68.16 162.30 68.73 162.13 69.30 L 161.08 68.69 C 154.76 65.12 149.01 61.26 143.97 55.97 C 143.15 53.72 142.28 51.49 141.36 49.28 C 141.55 51.22 141.93 53.15 142.02 55.10 C 140.08 55.98 140.07 52.71 139.38 51.61 C 137.12 50.01 134.61 48.78 132.32 47.21 C 130.23 45.21 128.97 41.47 126.45 40.17 C 126.09 48.03 126.56 55.79 129.31 63.24 L 129.26 64.27 C 127.80 64.13 126.85 63.54 126.39 62.48 C 122.58 54.61 122.42 46.77 121.60 38.26 C 121.37 39.50 121.10 40.73 120.79 41.94 C 118.74 42.98 118.75 39.09 118.21 37.90 C 117.35 34.74 117.20 32.46 118.91 29.56 C 120.40 26.16 120.66 22.45 122.57 19.17 Z" fill="#8193b2" />
<path d="M 98.15 21.74 C 96.39 28.45 94.21 35.10 92.30 41.77 C 91.80 43.54 91.46 45.34 91.12 47.15 C 92.17 48.25 94.89 49.24 94.44 51.04 C 93.82 62.29 96.13 73.48 102.57 82.86 C 100.78 81.15 98.96 79.55 97.03 78.01 C 96.18 76.25 94.64 75.12 93.58 73.54 C 92.45 70.85 92.06 68.05 90.38 65.59 C 89.30 64.00 89.22 61.87 88.76 59.99 C 88.13 57.34 87.85 54.67 87.47 51.98 L 85.81 50.46 C 86.47 50.21 87.12 49.96 87.77 49.71 C 88.85 45.15 89.99 40.63 90.81 36.01 C 91.22 33.28 93.01 31.66 92.52 28.94 C 90.42 29.03 88.33 29.23 86.23 29.42 C 86.70 28.62 87.18 27.83 87.64 27.02 C 86.25 27.53 82.14 28.90 82.90 30.89 L 84.93 31.27 C 83.70 35.09 82.56 38.92 82.00 42.92 L 80.67 42.59 C 80.10 41.20 80.06 40.17 78.57 39.44 C 78.88 38.94 79.20 38.45 79.51 37.96 C 79.18 36.98 78.84 36.01 78.48 35.04 C 77.13 34.29 75.57 33.30 74.00 33.26 C 72.03 33.66 70.10 34.28 68.13 34.72 C 71.22 31.52 76.69 30.83 80.56 28.68 C 84.21 26.63 88.02 25.21 91.95 23.81 C 93.98 22.98 96.02 22.26 98.15 21.74 Z" fill="#262938" />
<path d="M 100.92 21.81 C 102.29 23.13 103.47 24.83 105.05 25.90 C 110.67 27.04 113.27 23.36 118.60 21.97 C 119.15 24.55 117.25 27.49 118.91 29.56 C 117.20 32.46 117.35 34.74 118.21 37.90 C 117.92 38.59 117.64 39.28 117.36 39.97 C 117.61 40.63 117.85 41.28 118.10 41.94 C 116.40 44.97 117.20 48.23 117.53 51.54 C 118.03 53.67 117.84 56.08 120.01 57.21 C 120.59 53.37 118.57 50.10 119.35 46.23 C 121.34 51.03 121.99 54.65 122.01 59.86 C 122.59 60.07 123.17 60.28 123.75 60.49 C 122.54 60.79 121.48 61.28 120.56 61.96 L 121.34 63.03 L 122.13 63.99 C 120.41 68.01 123.93 71.61 125.56 75.07 C 127.18 78.38 129.15 81.43 131.18 84.51 C 131.55 86.10 132.34 86.79 133.55 87.79 C 139.24 93.24 145.21 99.52 152.00 103.62 C 152.63 103.33 153.25 103.01 153.85 102.66 C 163.26 108.71 173.93 112.38 184.42 116.62 C 191.14 120.21 197.42 123.74 202.16 129.88 L 200.13 130.26 C 202.87 134.71 206.35 138.57 207.21 143.99 C 207.73 147.05 206.77 149.60 208.72 152.20 L 209.02 153.00 C 207.31 155.24 207.72 158.34 206.54 160.57 C 203.65 164.24 201.39 167.93 197.00 170.02 C 194.59 171.29 189.61 174.26 187.19 171.85 C 185.32 166.56 186.26 159.42 191.54 156.44 C 192.53 155.57 194.93 154.80 194.84 153.30 C 192.19 152.16 188.84 152.41 186.00 152.35 C 176.24 152.47 167.65 155.63 158.84 159.50 C 157.82 158.38 156.79 157.26 155.82 156.09 C 153.72 152.06 153.46 146.20 148.60 144.42 L 148.92 142.98 C 146.11 141.36 143.99 138.99 140.97 137.75 C 141.28 142.35 139.64 147.24 134.93 148.84 C 131.46 150.73 127.83 149.80 124.23 148.77 C 123.13 148.49 122.54 147.71 122.44 146.41 C 122.90 143.23 121.80 140.57 122.93 137.54 C 123.99 140.04 123.22 143.16 124.55 145.46 C 125.44 146.58 126.26 146.77 127.02 146.01 C 127.45 144.75 126.56 143.32 126.43 142.01 C 126.04 139.39 127.90 137.88 128.18 135.40 C 129.45 134.51 130.77 133.69 132.09 132.87 C 131.61 132.19 131.13 131.51 130.65 130.82 C 132.57 130.04 132.78 131.23 134.10 132.35 C 136.44 130.99 137.81 131.30 140.27 132.06 C 142.85 131.78 141.43 129.72 140.59 128.40 C 139.15 126.03 137.46 124.08 135.44 122.20 C 138.08 124.04 139.73 126.58 141.52 129.19 C 142.26 130.08 142.08 130.91 142.09 131.97 C 143.61 133.85 146.78 134.05 148.99 134.79 C 145.58 125.86 137.11 118.65 128.97 114.07 C 122.17 110.04 114.55 107.22 107.12 104.60 C 102.87 103.01 98.73 101.64 95.05 98.88 C 92.52 96.61 90.61 93.35 88.84 90.49 C 88.25 89.69 87.62 88.92 86.96 88.17 C 85.93 89.03 84.96 89.95 83.99 90.87 C 83.20 87.85 81.90 85.15 81.43 82.08 L 81.30 80.55 C 81.97 80.82 82.64 81.09 83.31 81.36 C 83.46 80.54 83.60 79.72 83.73 78.91 C 83.91 79.67 84.12 80.42 84.34 81.17 C 86.51 86.22 88.96 89.77 93.59 92.86 C 93.46 94.30 95.43 95.70 96.39 96.57 C 103.36 98.02 108.68 101.66 115.90 101.82 C 117.13 102.89 118.11 103.79 119.83 103.88 C 112.92 95.52 104.16 88.57 97.48 80.01 L 97.03 78.01 C 98.96 79.55 100.78 81.15 102.57 82.86 C 96.13 73.48 93.82 62.29 94.44 51.04 C 94.89 49.24 92.17 48.25 91.12 47.15 C 91.46 45.34 91.80 43.54 92.30 41.77 L 93.59 42.85 C 94.85 38.59 96.46 34.50 97.22 30.10 C 98.51 27.39 99.27 24.32 100.92 21.81 Z" fill="#f2f2f2" />
<path d="M 125.65 23.13 C 128.17 23.49 130.04 24.33 131.77 26.22 C 136.12 30.89 140.93 34.97 145.72 39.15 C 145.59 39.72 145.47 40.29 145.34 40.85 C 146.09 40.70 146.83 40.56 147.58 40.41 C 148.87 42.60 151.01 43.52 152.76 45.23 C 157.29 49.97 162.59 54.44 168.41 57.50 C 170.71 58.20 173.33 58.32 175.73 58.74 L 176.74 57.74 C 177.72 53.51 176.35 50.11 175.85 45.99 C 175.47 43.30 175.02 40.72 173.37 38.48 C 174.32 37.81 175.06 36.90 175.59 35.74 C 181.97 39.54 188.42 44.02 194.00 48.92 C 191.78 47.96 189.93 45.43 187.50 45.43 C 188.23 47.64 189.01 49.80 189.52 52.08 L 189.42 52.45 C 189.05 53.29 187.69 54.26 188.88 55.06 C 191.05 57.17 193.46 59.04 195.90 60.83 C 196.74 61.93 197.58 63.03 198.44 64.11 C 196.78 66.34 194.09 59.60 192.05 61.03 C 190.97 62.43 193.13 63.32 193.89 64.26 C 196.25 66.19 195.80 69.29 196.10 71.99 C 196.09 73.31 197.77 74.21 198.65 75.01 C 199.10 74.47 199.57 73.94 200.04 73.42 L 200.60 74.80 C 200.60 76.47 199.83 77.42 198.28 77.65 C 198.22 80.94 200.82 84.54 201.19 87.96 C 199.23 90.97 197.94 92.57 194.00 92.04 C 189.42 92.29 188.13 88.85 184.35 86.98 C 179.30 81.57 174.81 76.50 173.21 69.01 C 172.95 67.08 172.28 66.15 171.02 64.76 C 169.69 65.33 168.43 65.92 167.03 66.30 C 162.89 65.07 159.17 65.04 155.69 62.30 C 152.73 60.50 151.22 57.58 148.63 55.38 C 146.88 53.98 146.69 51.95 146.04 49.90 C 145.71 48.16 145.67 45.93 144.65 44.43 C 143.81 43.93 142.95 43.45 142.06 43.02 C 138.93 45.29 136.25 42.55 133.43 44.38 C 130.93 42.58 128.81 40.40 127.45 37.61 C 127.29 36.08 127.82 34.36 127.36 32.90 C 126.34 30.73 124.96 28.76 123.98 26.56 C 124.59 25.44 125.15 24.30 125.65 23.13 Z" fill="#f1f2f2" />
<path d="M 87.64 27.02 C 87.18 27.83 86.70 28.62 86.23 29.42 C 88.33 29.23 90.42 29.03 92.52 28.94 C 92.49 32.11 88.58 30.84 86.40 31.48 C 85.22 35.19 84.15 38.90 83.51 42.75 L 82.00 42.92 C 82.56 38.92 83.70 35.09 84.93 31.27 L 82.90 30.89 C 82.14 28.90 86.25 27.53 87.64 27.02 Z" fill="#969aaa" />
<path d="M 92.52 28.94 C 93.01 31.66 91.22 33.28 90.81 36.01 C 89.99 40.63 88.85 45.15 87.77 49.71 C 87.12 49.96 86.47 50.21 85.81 50.46 L 84.50 50.95 L 83.35 51.44 C 83.42 54.07 84.87 57.90 87.28 59.19 C 87.77 59.46 88.26 59.73 88.76 59.99 C 89.22 61.87 89.30 64.00 90.38 65.59 C 92.06 68.05 92.45 70.85 93.58 73.54 C 94.64 75.12 96.18 76.25 97.03 78.01 L 97.48 80.01 C 94.49 78.34 91.63 74.68 88.21 74.25 C 87.51 76.81 91.47 78.91 92.64 80.93 C 92.50 81.46 92.37 81.98 92.24 82.50 C 91.16 82.75 90.08 82.97 88.99 83.15 C 87.67 82.67 85.34 78.49 84.34 81.17 C 84.12 80.42 83.91 79.67 83.73 78.91 C 83.38 74.81 81.37 71.79 80.12 67.85 C 78.24 62.71 79.11 56.98 77.41 52.00 L 76.35 50.74 C 75.89 49.53 75.64 48.24 75.58 46.88 C 76.76 42.25 75.39 38.45 78.48 35.04 C 78.84 36.01 79.18 36.98 79.51 37.96 C 79.20 38.45 78.88 38.94 78.57 39.44 C 80.06 40.17 80.10 41.20 80.67 42.59 L 82.00 42.92 L 83.51 42.75 C 84.15 38.90 85.22 35.19 86.40 31.48 C 88.58 30.84 92.49 32.11 92.52 28.94 Z" fill="#3d455f" />
<path d="M 183.90 29.22 C 186.02 29.72 188.27 29.93 190.31 30.70 C 195.06 33.04 200.03 34.40 204.38 37.56 C 210.16 41.09 214.94 45.65 220.26 49.74 C 225.02 55.85 229.89 61.48 233.67 68.32 C 236.44 73.42 238.36 78.99 240.53 84.37 C 242.28 91.00 244.45 98.14 244.01 105.01 C 245.34 111.80 245.59 119.20 244.13 125.99 C 243.50 137.15 240.27 147.23 236.60 157.66 C 235.77 159.64 234.25 161.36 233.36 163.32 C 232.70 164.88 232.64 166.65 232.24 168.28 C 231.26 171.37 229.42 173.84 227.48 176.38 C 226.38 179.58 224.88 182.75 224.00 185.98 C 223.23 190.12 225.59 192.32 227.45 195.63 C 229.84 199.05 233.75 201.46 236.01 204.99 C 237.54 207.67 238.44 210.74 239.42 213.65 C 240.83 217.86 239.68 222.27 238.35 226.34 C 236.14 230.81 232.02 232.73 227.66 234.59 C 223.01 236.93 217.26 235.70 212.00 236.04 C 198.35 235.13 186.16 231.04 173.35 226.58 C 167.32 224.54 161.88 227.49 158.00 232.00 C 156.90 233.62 155.08 234.36 154.02 236.01 C 152.90 238.11 149.83 238.68 147.71 239.34 C 140.71 240.60 134.18 242.47 127.00 242.02 C 121.06 242.41 115.83 240.32 110.00 240.00 C 106.91 240.00 104.12 238.73 101.00 239.00 C 97.90 239.15 95.09 238.31 92.08 237.76 C 88.75 237.25 86.37 235.09 83.17 233.58 C 84.24 230.73 86.57 230.84 88.96 229.59 C 89.44 230.25 89.92 230.91 90.41 231.57 C 91.51 231.52 92.61 231.48 93.72 231.43 C 94.40 231.91 95.08 232.38 95.76 232.85 C 96.09 232.31 96.44 231.76 96.78 231.22 C 101.16 229.75 105.36 228.11 109.17 225.43 C 110.66 225.46 111.95 225.14 113.35 225.81 L 114.18 226.70 C 116.64 226.56 119.05 226.55 121.52 226.67 C 120.83 229.48 120.05 232.16 120.13 235.09 C 120.99 234.76 121.63 234.21 122.06 233.46 C 125.49 232.78 125.22 231.03 126.96 228.57 L 127.97 228.59 C 130.67 229.87 133.69 229.41 136.54 230.33 C 139.59 231.49 142.95 228.12 145.38 226.64 C 147.10 228.87 147.53 231.71 149.13 233.97 L 150.65 233.81 C 150.19 228.53 151.82 223.65 151.46 218.39 C 151.62 216.36 151.46 213.97 152.28 212.08 C 153.23 209.94 152.23 207.81 151.40 205.82 C 151.52 205.05 151.63 204.27 151.75 203.49 C 152.24 204.47 152.75 205.43 153.28 206.39 C 153.93 205.52 154.55 204.65 155.14 203.76 C 159.00 203.87 161.98 207.17 165.68 206.81 C 164.09 204.81 163.56 202.16 161.89 200.32 L 162.80 198.81 C 166.51 206.03 172.08 211.89 178.91 216.21 C 181.95 217.78 185.47 218.53 188.76 219.43 C 189.74 219.71 190.72 220.01 191.70 220.31 C 191.53 220.80 191.37 221.30 191.20 221.80 C 194.01 221.76 196.54 222.07 199.13 220.77 C 201.60 219.50 204.37 218.32 205.70 215.72 C 206.90 213.05 207.36 210.17 207.68 207.28 C 210.43 205.43 213.30 207.91 215.49 209.51 C 216.48 211.31 216.96 213.20 217.38 215.20 C 213.70 215.37 212.07 218.37 209.56 220.57 C 206.68 223.45 203.17 225.26 199.99 227.71 C 204.61 226.86 209.28 226.32 213.89 225.44 C 216.91 223.69 219.96 221.88 222.91 220.01 C 222.62 218.76 222.33 217.51 222.05 216.26 C 222.79 213.59 224.62 213.26 226.21 211.36 C 226.18 214.02 228.23 213.81 229.90 215.22 C 230.08 217.79 227.90 216.48 226.32 216.47 C 225.70 216.74 225.08 217.02 224.47 217.29 C 223.81 220.96 221.56 224.12 220.57 227.73 C 221.86 229.99 223.58 227.02 224.76 226.22 C 226.49 226.22 229.29 227.27 230.44 225.52 C 231.47 223.74 232.35 221.85 233.14 219.96 C 233.74 218.01 232.42 215.64 232.10 213.66 C 229.81 211.41 227.79 208.32 225.05 206.67 C 222.17 205.90 220.14 204.03 218.14 201.93 C 216.55 200.02 214.45 199.51 212.28 198.50 C 209.31 197.20 204.33 196.10 201.94 198.97 C 200.53 200.27 200.52 202.22 200.00 203.99 C 197.12 202.67 193.70 203.94 190.54 203.76 C 189.39 202.59 188.19 201.47 186.97 200.38 C 188.49 200.02 190.01 199.65 191.52 199.25 C 190.88 200.18 190.29 201.13 189.72 202.11 C 192.09 201.68 194.29 200.58 196.09 199.00 C 196.00 198.27 195.43 197.70 194.39 197.30 C 197.70 194.45 201.76 196.64 204.13 193.06 C 206.28 190.21 209.05 188.56 210.11 185.01 C 211.37 182.64 213.16 180.96 214.86 178.94 C 219.20 173.62 222.26 167.47 224.32 160.95 C 226.58 154.96 229.23 149.46 230.45 143.07 C 231.76 136.29 233.58 129.27 233.51 122.34 C 233.49 118.42 233.45 114.49 233.41 110.57 C 233.33 104.43 231.16 98.36 230.56 92.27 C 232.07 90.87 231.11 89.55 230.97 87.79 C 230.72 86.39 230.41 85.11 229.70 83.87 C 229.27 84.84 228.86 85.82 228.45 86.80 C 223.62 72.07 212.65 58.97 201.00 49.01 C 196.72 44.58 191.95 40.89 186.11 38.78 C 181.97 37.28 177.28 34.29 172.81 34.65 C 172.05 34.41 171.39 33.96 170.81 33.30 C 174.09 33.07 174.70 33.22 176.46 30.38 C 178.78 29.88 181.55 28.61 183.90 29.22 Z" fill="#f3f3f3" />
<path d="M 186.11 38.78 C 191.95 40.89 196.72 44.58 201.00 49.01 C 212.65 58.97 223.62 72.07 228.45 86.80 C 228.86 85.82 229.27 84.84 229.70 83.87 C 230.41 85.11 230.72 86.39 230.97 87.79 C 230.19 88.42 229.45 89.09 228.74 89.79 C 227.71 91.56 228.08 93.88 226.39 95.23 C 225.58 91.78 224.53 87.77 222.20 85.01 C 222.21 88.85 224.43 92.53 225.36 96.28 C 225.92 96.58 226.49 96.87 227.07 97.15 C 225.91 100.79 224.72 104.74 222.54 107.90 C 221.26 103.92 219.42 100.22 217.47 96.54 C 216.07 94.10 216.43 91.76 215.82 89.00 C 214.66 83.07 214.03 77.39 212.43 71.55 L 211.56 71.23 C 211.44 72.84 211.31 74.45 211.18 76.05 C 210.50 75.73 209.83 75.40 209.15 75.08 C 208.92 77.71 208.75 80.35 208.53 82.98 C 205.88 80.21 203.68 77.19 200.60 74.80 L 200.04 73.42 L 201.40 72.15 C 201.41 70.58 201.38 69.02 201.70 67.46 L 201.98 65.99 C 200.46 64.09 198.56 60.93 195.90 60.83 C 193.46 59.04 191.05 57.17 188.88 55.06 C 187.69 54.26 189.05 53.29 189.42 52.45 L 189.52 52.08 L 190.06 49.93 C 196.40 54.21 201.86 60.35 207.44 65.56 C 208.10 66.14 208.90 66.56 209.83 66.80 C 208.35 63.31 206.17 60.19 203.51 57.51 C 200.30 54.32 198.19 50.89 194.00 48.92 C 188.42 44.02 181.97 39.54 175.59 35.74 C 174.67 35.37 173.74 35.00 172.81 34.65 C 177.28 34.29 181.97 37.28 186.11 38.78 Z" fill="#282c3b" />
<path d="M 118.21 37.90 C 118.75 39.09 118.74 42.98 120.79 41.94 C 121.10 40.73 121.37 39.50 121.60 38.26 C 122.42 46.77 122.58 54.61 126.39 62.48 C 126.85 63.54 127.80 64.13 129.26 64.27 L 129.60 64.37 C 129.06 64.86 128.52 65.35 127.98 65.84 C 126.32 64.39 124.84 62.84 123.06 61.62 L 121.34 63.03 L 120.56 61.96 C 121.48 61.28 122.54 60.79 123.75 60.49 C 123.17 60.28 122.59 60.07 122.01 59.86 C 121.99 54.65 121.34 51.03 119.35 46.23 C 118.57 50.10 120.59 53.37 120.01 57.21 C 117.84 56.08 118.03 53.67 117.53 51.54 C 117.20 48.23 116.40 44.97 118.10 41.94 C 117.85 41.28 117.61 40.63 117.36 39.97 C 117.64 39.28 117.92 38.59 118.21 37.90 Z" fill="#aebbcf" />
<path d="M 42.82 40.15 L 45.09 39.72 L 45.75 40.14 C 48.76 43.42 52.41 45.35 54.90 49.04 C 56.57 51.44 58.32 54.10 59.09 56.95 C 58.84 58.02 57.19 58.14 56.31 58.61 C 55.21 55.37 53.19 54.33 50.82 52.21 C 48.08 48.22 45.83 43.99 42.82 40.15 Z" fill="#e07c7e" />
<path d="M 126.45 40.17 C 128.97 41.47 130.23 45.21 132.32 47.21 C 131.15 47.45 129.99 47.70 128.82 47.97 C 127.73 53.24 130.22 58.08 129.31 63.24 C 126.56 55.79 126.09 48.03 126.45 40.17 Z" fill="#f4fafa" />
<path d="M 187.50 45.43 C 189.93 45.43 191.78 47.96 194.00 48.92 C 198.19 50.89 200.30 54.32 203.51 57.51 C 206.17 60.19 208.35 63.31 209.83 66.80 C 208.90 66.56 208.10 66.14 207.44 65.56 C 201.86 60.35 196.40 54.21 190.06 49.93 L 189.52 52.08 C 189.01 49.80 188.23 47.64 187.50 45.43 Z" fill="#3f4553" />
<path d="M 75.58 46.88 C 75.64 48.24 75.89 49.53 76.35 50.74 C 75.29 53.08 74.11 55.22 72.55 57.26 C 69.10 56.43 65.85 59.12 63.10 60.88 C 65.36 60.59 67.08 59.82 69.19 61.15 C 68.40 61.74 67.62 62.32 66.82 62.89 C 69.54 66.87 71.02 71.28 71.88 75.99 C 71.95 77.47 71.62 78.69 70.97 80.00 C 70.44 77.70 70.41 75.38 70.40 73.03 C 68.24 70.82 66.12 68.20 63.49 66.57 C 59.45 66.10 55.59 65.02 51.62 64.21 C 56.74 61.30 62.25 59.24 67.46 56.54 C 71.43 54.53 73.81 50.81 75.58 46.88 Z" fill="#d3838b" />
<path d="M 132.32 47.21 C 134.61 48.78 137.12 50.01 139.38 51.61 C 140.07 52.71 140.08 55.98 142.02 55.10 C 141.93 53.15 141.55 51.22 141.36 49.28 C 142.28 51.49 143.15 53.72 143.97 55.97 C 144.25 59.86 146.44 63.14 147.15 66.98 C 147.90 70.66 151.50 72.74 151.98 76.34 C 150.34 75.17 149.32 73.53 147.97 72.08 C 146.64 72.42 145.64 73.95 144.63 74.84 C 138.30 72.95 132.84 70.42 127.98 65.84 C 128.52 65.35 129.06 64.86 129.60 64.37 L 129.26 64.27 L 129.31 63.24 C 130.22 58.08 127.73 53.24 128.82 47.97 C 129.99 47.70 131.15 47.45 132.32 47.21 Z" fill="#cddce5" />
<path d="M 202.01 47.81 C 204.03 48.32 206.71 49.98 207.22 52.15 C 205.49 51.38 202.23 49.93 202.01 47.81 Z" fill="#9999a0" />
<path d="M 34.62 50.26 C 33.41 53.26 33.51 55.95 33.65 59.12 C 32.76 59.14 31.87 59.15 30.98 59.16 L 30.82 57.04 C 31.53 54.26 32.28 52.09 34.62 50.26 Z" fill="#56576b" />
<path d="M 146.04 49.90 C 146.69 51.95 146.88 53.98 148.63 55.38 C 151.22 57.58 152.73 60.50 155.69 62.30 C 159.17 65.04 162.89 65.07 167.03 66.30 C 168.43 65.92 169.69 65.33 171.02 64.76 C 172.28 66.15 172.95 67.08 173.21 69.01 C 174.81 76.50 179.30 81.57 184.35 86.98 C 181.51 87.14 180.02 84.52 178.20 82.77 C 175.06 79.64 174.16 75.15 171.03 72.14 C 171.09 74.29 172.00 76.07 172.83 77.99 C 172.52 78.70 172.21 79.41 171.90 80.12 C 173.16 82.45 175.09 84.40 175.99 86.87 C 174.62 85.92 173.29 84.92 171.92 83.96 C 172.58 87.29 174.92 89.19 177.23 91.43 C 178.28 91.46 179.17 91.15 180.03 91.95 C 182.44 94.11 185.15 95.73 187.73 97.63 L 187.27 98.81 C 190.49 102.64 194.73 105.08 198.25 108.74 C 199.39 109.57 199.91 111.06 201.48 110.28 C 202.11 111.12 202.67 112.01 203.21 112.92 C 201.83 112.70 200.58 112.45 199.43 111.62 C 196.03 109.33 192.61 107.09 189.14 104.89 C 189.34 104.26 189.54 103.62 189.74 102.98 C 189.00 102.71 188.27 102.43 187.54 102.15 C 184.19 100.64 180.91 99.18 177.26 98.55 C 173.91 98.11 172.64 95.21 169.04 95.89 C 169.59 95.43 170.13 94.97 170.67 94.50 C 166.41 92.33 161.34 89.36 158.94 85.10 C 161.69 84.09 164.16 85.16 166.99 84.82 C 165.21 83.32 163.15 82.83 161.10 81.85 C 157.86 80.34 154.77 78.59 151.98 76.34 C 151.50 72.74 147.90 70.66 147.15 66.98 C 146.44 63.14 144.25 59.86 143.97 55.97 C 149.01 61.26 154.76 65.12 161.08 68.69 C 160.02 71.19 161.56 73.54 160.07 76.08 C 161.46 78.30 162.72 79.75 165.13 80.89 C 164.78 76.86 162.23 73.49 162.13 69.30 C 162.30 68.73 162.48 68.16 162.65 67.59 C 161.78 67.49 160.90 67.37 160.03 67.22 C 156.84 63.75 152.34 62.32 149.15 58.83 C 146.72 56.41 145.88 53.27 146.04 49.90 Z" fill="#adbfd6" />
<path d="M 76.35 50.74 L 77.41 52.00 C 76.01 56.12 72.42 58.98 71.12 63.03 C 71.65 67.36 72.87 71.64 73.24 76.00 C 73.19 79.29 72.74 82.56 72.77 85.87 C 72.13 85.66 71.48 85.45 70.84 85.24 C 70.80 83.60 70.10 81.48 70.97 80.00 C 71.62 78.69 71.95 77.47 71.88 75.99 C 71.02 71.28 69.54 66.87 66.82 62.89 C 67.62 62.32 68.40 61.74 69.19 61.15 C 70.62 60.10 71.55 58.69 72.55 57.26 C 74.11 55.22 75.29 53.08 76.35 50.74 Z" fill="#272838" />
<path d="M 83.35 51.44 L 84.50 50.95 C 84.69 54.05 86.28 56.33 87.28 59.19 C 84.87 57.90 83.42 54.07 83.35 51.44 Z" fill="#4e4f35" />
<path d="M 84.50 50.95 L 85.81 50.46 L 87.47 51.98 C 87.85 54.67 88.13 57.34 88.76 59.99 C 88.26 59.73 87.77 59.46 87.28 59.19 C 86.28 56.33 84.69 54.05 84.50 50.95 Z" fill="#c4bd67" />
<path d="M 77.41 52.00 C 79.11 56.98 78.24 62.71 80.12 67.85 C 81.37 71.79 83.38 74.81 83.73 78.91 C 83.60 79.72 83.46 80.54 83.31 81.36 C 82.64 81.09 81.97 80.82 81.30 80.55 L 81.43 82.08 C 80.08 80.40 79.38 78.52 78.51 76.58 L 78.41 76.35 C 78.41 79.25 78.40 82.13 78.87 85.01 C 79.21 86.40 79.09 87.71 78.51 88.92 L 78.02 90.05 C 79.12 91.57 80.20 92.91 82.01 93.62 C 81.61 100.64 84.36 106.23 86.80 112.63 C 86.14 112.14 85.48 111.67 84.81 111.20 L 84.01 111.07 L 81.80 110.94 C 82.47 110.16 83.13 109.37 83.78 108.58 C 83.07 107.80 82.36 107.02 81.64 106.26 C 79.77 107.28 78.02 108.47 76.43 109.87 C 74.81 105.26 72.90 100.99 72.73 96.00 C 72.26 93.20 73.24 89.46 71.58 87.08 C 71.32 89.71 71.19 92.36 71.07 95.00 C 70.78 101.18 73.46 106.81 73.12 113.07 C 72.46 113.31 71.81 113.53 71.15 113.76 C 70.55 110.97 70.92 107.10 69.10 104.81 C 66.96 102.48 67.91 98.21 67.58 95.22 C 67.19 95.59 66.81 95.96 66.43 96.32 C 66.26 99.72 66.29 103.00 64.92 106.19 C 62.84 104.88 62.98 102.55 62.47 100.39 C 61.76 100.21 61.04 100.03 60.33 99.85 C 60.45 98.59 60.57 97.34 60.67 96.09 C 58.52 96.79 58.38 100.22 56.48 101.59 C 56.04 99.55 56.73 98.06 57.43 96.18 L 56.47 96.15 C 57.77 91.54 59.43 87.81 58.25 82.89 C 59.53 83.97 60.54 85.11 62.32 85.31 C 62.16 82.58 61.60 79.94 61.18 77.26 C 64.72 78.95 68.02 80.40 69.96 84.05 C 69.82 84.62 69.69 85.18 69.55 85.75 C 69.98 85.58 70.41 85.41 70.84 85.24 C 71.48 85.45 72.13 85.66 72.77 85.87 C 72.74 82.56 73.19 79.29 73.24 76.00 C 72.87 71.64 71.65 67.36 71.12 63.03 C 72.42 58.98 76.01 56.12 77.41 52.00 Z" fill="#555f80" />
<path d="M 207.89 52.80 C 208.70 52.80 209.44 53.16 210.08 53.88 C 217.64 61.33 223.90 70.18 228.30 79.85 C 228.72 80.92 229.01 82.05 229.16 83.22 L 228.22 82.73 C 225.66 77.98 223.65 72.96 220.47 68.52 C 217.29 64.13 213.98 59.71 210.13 55.88 C 209.30 54.94 208.08 54.09 207.89 52.80 Z" fill="#929398" />
<path d="M 30.82 57.04 L 30.98 59.16 C 31.87 59.15 32.76 59.14 33.65 59.12 L 33.47 59.24 C 32.60 59.71 31.73 60.17 30.86 60.62 C 35.87 61.98 40.96 62.98 46.02 64.14 C 47.81 64.51 49.80 64.30 51.62 64.21 C 55.59 65.02 59.45 66.10 63.49 66.57 C 66.12 68.20 68.24 70.82 70.40 73.03 C 70.41 75.38 70.44 77.70 70.97 80.00 C 70.10 81.48 70.80 83.60 70.84 85.24 C 70.41 85.41 69.98 85.58 69.55 85.75 C 69.69 85.18 69.82 84.62 69.96 84.05 C 68.02 80.40 64.72 78.95 61.18 77.26 C 61.60 79.94 62.16 82.58 62.32 85.31 C 60.54 85.11 59.53 83.97 58.25 82.89 C 55.58 80.71 52.47 77.54 49.05 76.80 C 48.82 77.54 48.61 78.27 48.39 79.01 C 48.38 77.11 48.37 76.36 46.53 75.50 C 42.47 73.45 38.06 72.20 33.94 70.26 L 36.10 69.96 C 35.49 69.40 34.88 68.85 34.27 68.30 C 36.40 68.44 38.54 68.24 40.66 68.43 C 43.28 68.94 45.81 69.92 48.39 70.60 C 45.19 69.23 42.28 67.06 38.95 66.16 C 34.94 64.84 31.36 65.54 28.74 61.63 C 29.68 60.16 30.33 58.71 30.82 57.04 Z" fill="#bfc7dd" />
<path d="M 72.55 57.26 C 71.55 58.69 70.62 60.10 69.19 61.15 C 67.08 59.82 65.36 60.59 63.10 60.88 C 65.85 59.12 69.10 56.43 72.55 57.26 Z" fill="#e49da2" />
<path d="M 25.28 57.94 C 27.02 58.68 27.57 60.23 28.74 61.63 C 31.36 65.54 34.94 64.84 38.95 66.16 C 42.28 67.06 45.19 69.23 48.39 70.60 C 45.81 69.92 43.28 68.94 40.66 68.43 C 38.54 68.24 36.40 68.44 34.27 68.30 C 34.88 68.85 35.49 69.40 36.10 69.96 L 33.94 70.26 C 31.47 69.12 29.14 69.66 26.50 69.62 C 25.07 65.54 23.28 62.25 25.28 57.94 Z" fill="#242736" />
<path d="M 192.05 61.03 C 194.09 59.60 196.78 66.34 198.44 64.11 C 199.48 65.27 200.59 66.37 201.70 67.46 C 201.38 69.02 201.41 70.58 201.40 72.15 L 200.04 73.42 C 199.57 73.94 199.10 74.47 198.65 75.01 C 197.77 74.21 196.09 73.31 196.10 71.99 C 195.80 69.29 196.25 66.19 193.89 64.26 C 193.13 63.32 190.97 62.43 192.05 61.03 Z" fill="#d2dde6" />
<path d="M 195.90 60.83 C 198.56 60.93 200.46 64.09 201.98 65.99 L 201.70 67.46 C 200.59 66.37 199.48 65.27 198.44 64.11 C 197.58 63.03 196.74 61.93 195.90 60.83 Z" fill="#151a27" />
<path d="M 123.06 61.62 C 124.84 62.84 126.32 64.39 127.98 65.84 C 132.84 70.42 138.30 72.95 144.63 74.84 C 145.64 73.95 146.64 72.42 147.97 72.08 C 149.32 73.53 150.34 75.17 151.98 76.34 C 154.77 78.59 157.86 80.34 161.10 81.85 C 163.15 82.83 165.21 83.32 166.99 84.82 C 164.16 85.16 161.69 84.09 158.94 85.10 C 155.21 83.18 151.94 80.92 148.73 78.24 C 146.59 76.19 143.66 77.62 140.95 76.11 C 134.30 72.83 128.00 68.50 122.13 63.99 L 121.34 63.03 L 123.06 61.62 Z" fill="#8b98af" />
<path d="M 122.13 63.99 C 128.00 68.50 134.30 72.83 140.95 76.11 C 143.66 77.62 146.59 76.19 148.73 78.24 C 151.94 80.92 155.21 83.18 158.94 85.10 C 161.34 89.36 166.41 92.33 170.67 94.50 C 170.13 94.97 169.59 95.43 169.04 95.89 C 165.89 96.68 162.27 95.89 159.08 95.49 C 153.09 94.57 148.32 91.72 143.04 88.93 C 141.33 87.86 139.51 87.03 138.66 85.10 C 137.00 81.56 134.50 78.58 133.05 74.94 C 132.30 73.31 131.42 70.73 129.19 70.99 C 130.32 75.81 134.19 79.76 134.64 84.60 C 137.46 88.21 141.43 90.18 144.58 93.42 C 146.69 95.40 149.04 96.33 150.40 99.00 C 149.67 99.36 148.93 99.71 148.19 100.07 C 144.44 96.38 140.30 93.16 136.72 89.29 C 135.59 88.47 135.08 86.71 133.55 87.79 C 132.34 86.79 131.55 86.10 131.18 84.51 C 132.76 82.64 130.36 81.12 129.66 79.37 C 128.40 77.62 127.77 74.34 126.05 73.17 L 125.56 75.07 C 123.93 71.61 120.41 68.01 122.13 63.99 Z" fill="#cddce5" />
<path d="M 161.08 68.69 L 162.13 69.30 C 162.23 73.49 164.78 76.86 165.13 80.89 C 162.72 79.75 161.46 78.30 160.07 76.08 C 161.56 73.54 160.02 71.19 161.08 68.69 Z" fill="#d8e4ee" />
<path d="M 129.19 70.99 C 131.42 70.73 132.30 73.31 133.05 74.94 C 134.50 78.58 137.00 81.56 138.66 85.10 C 139.51 87.03 141.33 87.86 143.04 88.93 C 148.32 91.72 153.09 94.57 159.08 95.49 C 162.27 95.89 165.89 96.68 169.04 95.89 C 172.64 95.21 173.91 98.11 177.26 98.55 C 180.91 99.18 184.19 100.64 187.54 102.15 C 186.45 102.61 185.37 103.08 184.29 103.55 C 184.80 103.95 185.32 104.35 185.84 104.75 C 183.89 105.00 181.94 105.22 179.97 105.23 C 175.88 104.09 173.50 100.83 170.02 98.93 C 165.90 99.24 162.01 99.10 158.08 97.69 C 154.54 96.75 151.37 94.69 147.79 94.01 C 148.94 96.45 152.35 97.70 154.39 99.39 C 154.54 100.29 154.69 101.19 154.84 102.09 L 153.85 102.66 C 153.25 103.01 152.63 103.33 152.00 103.62 C 145.21 99.52 139.24 93.24 133.55 87.79 C 135.08 86.71 135.59 88.47 136.72 89.29 C 140.30 93.16 144.44 96.38 148.19 100.07 C 148.93 99.71 149.67 99.36 150.40 99.00 C 149.04 96.33 146.69 95.40 144.58 93.42 C 141.43 90.18 137.46 88.21 134.64 84.60 C 134.19 79.76 130.32 75.81 129.19 70.99 Z" fill="#7d8ba5" />
<path d="M 211.56 71.23 L 212.43 71.55 C 214.03 77.39 214.66 83.07 215.82 89.00 C 216.43 91.76 216.07 94.10 217.47 96.54 C 219.42 100.22 221.26 103.92 222.54 107.90 C 224.72 104.74 225.91 100.79 227.07 97.15 C 227.63 97.49 228.03 98.06 228.27 98.87 C 226.54 104.25 226.50 109.48 225.35 115.14 C 225.17 114.12 224.99 113.09 224.79 112.07 C 224.27 112.69 223.76 113.32 223.25 113.94 C 221.56 115.14 219.96 116.41 218.68 118.06 L 219.80 119.47 L 219.04 120.40 C 215.65 112.53 212.30 102.10 205.72 96.27 C 204.15 94.35 202.25 97.36 199.81 96.59 L 201.17 94.78 C 200.24 94.67 199.32 94.56 198.40 94.46 C 198.75 94.12 199.10 93.78 199.46 93.45 C 200.45 93.84 201.45 94.24 202.45 94.64 C 202.83 93.86 203.21 93.09 203.58 92.32 C 202.68 92.55 201.77 92.77 200.87 93.00 C 201.00 91.32 201.13 89.65 201.19 87.96 C 200.82 84.54 198.22 80.94 198.28 77.65 C 199.83 77.42 200.60 76.47 200.60 74.80 C 203.68 77.19 205.88 80.21 208.53 82.98 C 208.75 80.35 208.92 77.71 209.15 75.08 C 209.83 75.40 210.50 75.73 211.18 76.05 C 211.31 74.45 211.44 72.84 211.56 71.23 Z" fill="#616b8a" />
<path d="M 171.03 72.14 C 174.16 75.15 175.06 79.64 178.20 82.77 C 180.02 84.52 181.51 87.14 184.35 86.98 C 188.13 88.85 189.42 92.29 194.00 92.04 C 197.94 92.57 199.23 90.97 201.19 87.96 C 201.13 89.65 201.00 91.32 200.87 93.00 C 201.77 92.77 202.68 92.55 203.58 92.32 C 203.21 93.09 202.83 93.86 202.45 94.64 C 201.45 94.24 200.45 93.84 199.46 93.45 C 199.10 93.78 198.75 94.12 198.40 94.46 C 199.32 94.56 200.24 94.67 201.17 94.78 L 199.81 96.59 C 198.61 96.83 197.42 97.09 196.23 97.37 C 197.11 98.55 197.99 99.73 198.91 100.88 C 200.32 102.61 201.77 104.30 203.16 106.04 C 202.84 106.70 202.52 107.36 202.20 108.02 C 203.97 111.05 207.26 114.57 207.14 118.22 C 205.08 117.13 204.43 114.83 203.21 112.92 C 202.67 112.01 202.11 111.12 201.48 110.28 C 197.47 105.32 192.29 101.97 187.73 97.63 C 185.15 95.73 182.44 94.11 180.03 91.95 C 179.17 91.15 178.28 91.46 177.23 91.43 C 174.92 89.19 172.58 87.29 171.92 83.96 C 173.29 84.92 174.62 85.92 175.99 86.87 C 175.09 84.40 173.16 82.45 171.90 80.12 C 172.21 79.41 172.52 78.70 172.83 77.99 C 172.00 76.07 171.09 74.29 171.03 72.14 Z" fill="#c5d4e0" />
<path d="M 126.05 73.17 C 127.77 74.34 128.40 77.62 129.66 79.37 C 130.36 81.12 132.76 82.64 131.18 84.51 C 129.15 81.43 127.18 78.38 125.56 75.07 L 126.05 73.17 Z" fill="#b2bbc6" />
<path d="M 88.21 74.25 C 91.63 74.68 94.49 78.34 97.48 80.01 C 104.16 88.57 112.92 95.52 119.83 103.88 C 118.11 103.79 117.13 102.89 115.90 101.82 C 109.28 95.54 102.32 89.49 95.13 83.87 C 94.07 83.07 93.40 82.00 92.64 80.93 C 91.47 78.91 87.51 76.81 88.21 74.25 Z" fill="#262b3c" />
<path d="M 78.41 76.35 L 78.51 76.58 C 79.38 78.52 80.08 80.40 81.43 82.08 C 81.90 85.15 83.20 87.85 83.99 90.87 L 82.11 91.28 C 80.88 90.54 79.70 89.74 78.51 88.92 C 79.09 87.71 79.21 86.40 78.87 85.01 C 78.40 82.13 78.41 79.25 78.41 76.35 Z" fill="#242b3f" />
<path d="M 49.05 76.80 C 52.47 77.54 55.58 80.71 58.25 82.89 C 59.43 87.81 57.77 91.54 56.47 96.15 C 55.98 98.18 55.43 100.19 54.70 102.15 C 54.99 102.74 55.27 103.33 55.55 103.92 C 55.28 105.49 55.08 107.10 54.63 108.63 C 52.33 110.01 49.82 109.03 47.59 110.61 C 45.82 111.43 44.93 112.86 42.86 112.00 C 44.03 109.94 41.37 109.21 42.00 111.83 C 41.58 114.35 40.99 116.82 40.50 119.32 C 40.59 120.62 40.70 121.91 40.86 123.20 C 43.22 121.58 44.60 119.30 46.07 116.93 C 48.91 114.21 52.02 111.76 55.08 109.30 C 55.44 110.83 55.65 112.35 55.76 113.91 C 55.20 114.63 54.65 115.35 54.10 116.08 C 54.27 118.03 54.53 119.97 54.83 121.91 C 56.07 121.74 57.13 121.44 58.34 121.96 C 54.33 124.02 50.52 126.15 47.30 129.37 C 45.19 131.46 42.82 133.18 40.49 135.01 C 40.43 134.13 40.37 133.26 40.31 132.38 C 40.86 132.54 41.40 132.71 41.95 132.87 C 41.80 131.91 41.66 130.96 41.51 130.00 C 42.23 128.71 42.93 127.42 43.58 126.10 C 41.76 127.16 40.81 128.89 39.23 130.24 C 39.31 125.77 39.29 121.37 40.43 117.00 C 41.85 111.37 41.45 105.62 42.92 100.00 C 43.57 97.31 43.48 92.40 46.19 90.87 C 46.33 92.53 44.19 96.70 46.68 97.09 C 46.26 92.96 47.81 89.18 47.86 85.14 C 47.08 82.93 47.85 81.15 48.39 79.01 C 48.61 78.27 48.82 77.54 49.05 76.80 Z" fill="#252a38" />
<path d="M 88.99 83.15 C 90.08 82.97 91.16 82.75 92.24 82.50 C 97.00 86.22 100.48 91.01 105.06 94.84 C 101.11 94.31 97.68 92.58 93.59 92.86 C 88.96 89.77 86.51 86.22 84.34 81.17 C 85.34 78.49 87.67 82.67 88.99 83.15 Z" fill="#292d3c" />
<path d="M 92.64 80.93 C 93.40 82.00 94.07 83.07 95.13 83.87 C 102.32 89.49 109.28 95.54 115.90 101.82 C 108.68 101.66 103.36 98.02 96.39 96.57 C 95.43 95.70 93.46 94.30 93.59 92.86 C 97.68 92.58 101.11 94.31 105.06 94.84 C 100.48 91.01 97.00 86.22 92.24 82.50 C 92.37 81.98 92.50 81.46 92.64 80.93 Z" fill="#97a5c5" />
<path d="M 222.20 85.01 C 224.53 87.77 225.58 91.78 226.39 95.23 L 225.36 96.28 C 224.43 92.53 222.21 88.85 222.20 85.01 Z" fill="#656a75" />
<path d="M 71.58 87.08 C 73.24 89.46 72.26 93.20 72.73 96.00 C 72.90 100.99 74.81 105.26 76.43 109.87 C 75.53 110.82 74.68 111.81 73.83 112.79 L 73.12 113.07 C 73.46 106.81 70.78 101.18 71.07 95.00 C 71.19 92.36 71.32 89.71 71.58 87.08 Z" fill="#8a95b6" />
<path d="M 212.77 87.89 C 213.88 91.22 213.69 94.45 212.75 97.79 L 211.34 97.65 C 210.42 94.58 210.54 90.42 212.77 87.89 Z" fill="#505975" />
<path d="M 230.97 87.79 C 231.11 89.55 232.07 90.87 230.56 92.27 L 229.18 92.18 C 228.95 94.46 228.88 96.65 228.27 98.87 C 228.03 98.06 227.63 97.49 227.07 97.15 C 226.49 96.87 225.92 96.58 225.36 96.28 L 226.39 95.23 C 228.08 93.88 227.71 91.56 228.74 89.79 C 229.45 89.09 230.19 88.42 230.97 87.79 Z" fill="#434956" />
<path d="M 78.51 88.92 C 79.70 89.74 80.88 90.54 82.11 91.28 C 82.55 91.74 82.88 92.25 83.11 92.81 L 82.01 93.62 C 80.20 92.91 79.12 91.57 78.02 90.05 L 78.51 88.92 Z" fill="#bec3cc" />
<path d="M 86.96 88.17 C 87.62 88.92 88.25 89.69 88.84 90.49 L 88.09 91.96 C 89.63 96.05 91.46 99.64 94.88 102.48 C 93.43 103.88 95.09 104.91 95.95 106.02 C 98.08 107.69 100.68 108.85 103.08 110.10 L 104.49 109.12 L 105.89 109.23 C 110.15 112.09 115.01 114.20 119.57 116.57 C 121.67 117.92 123.74 119.05 125.32 121.05 C 124.24 120.90 123.16 120.68 122.09 120.39 L 122.51 121.89 C 118.26 119.81 114.22 117.06 110.03 114.81 C 107.47 114.79 105.76 114.97 103.64 113.30 C 100.25 110.72 96.21 110.76 93.51 107.49 C 91.47 105.47 90.11 103.06 88.55 100.68 C 87.74 100.62 86.93 100.59 86.12 100.57 C 87.11 106.70 90.88 112.42 95.44 116.52 C 97.11 118.38 100.46 117.90 102.78 118.32 C 102.11 119.07 101.45 119.81 100.79 120.56 C 99.85 120.46 98.91 120.38 97.96 120.32 C 96.97 120.00 95.98 119.66 95.00 119.29 C 93.99 119.55 92.99 119.82 91.98 120.08 C 88.27 117.84 85.80 115.70 83.70 111.84 L 84.01 111.07 L 84.81 111.20 C 85.48 111.67 86.14 112.14 86.80 112.63 C 84.36 106.23 81.61 100.64 82.01 93.62 L 83.11 92.81 C 82.88 92.25 82.55 91.74 82.11 91.28 L 83.99 90.87 C 84.96 89.95 85.93 89.03 86.96 88.17 Z" fill="#848eaa" />
<path d="M 55.91 90.37 C 52.84 95.22 47.58 100.08 46.31 105.74 C 45.53 105.48 44.74 105.22 43.95 104.96 C 43.65 101.92 44.46 100.34 46.87 98.56 C 50.73 95.92 50.95 91.54 55.91 90.37 Z" fill="#a9afb9" />
<path d="M 88.84 90.49 C 90.61 93.35 92.52 96.61 95.05 98.88 C 98.73 101.64 102.87 103.01 107.12 104.60 C 114.55 107.22 122.17 110.04 128.97 114.07 C 137.11 118.65 145.58 125.86 148.99 134.79 C 146.78 134.05 143.61 133.85 142.09 131.97 C 142.08 130.91 142.26 130.08 141.52 129.19 C 139.73 126.58 138.08 124.04 135.44 122.20 C 137.46 124.08 139.15 126.03 140.59 128.40 C 141.43 129.72 142.85 131.78 140.27 132.06 C 137.81 131.30 136.44 130.99 134.10 132.35 C 132.78 131.23 132.57 130.04 130.65 130.82 C 129.09 128.66 128.41 126.31 126.12 124.75 C 125.44 123.14 124.85 122.32 123.02 122.07 L 122.51 121.89 L 122.09 120.39 C 123.16 120.68 124.24 120.90 125.32 121.05 C 123.74 119.05 121.67 117.92 119.57 116.57 L 120.97 116.38 C 126.12 118.72 129.73 122.51 132.95 127.06 C 134.45 129.29 136.18 129.57 138.69 129.76 C 135.77 123.58 128.88 119.18 123.16 115.80 C 117.64 113.32 111.82 110.44 105.89 109.23 L 104.49 109.12 C 101.45 106.63 97.85 105.07 94.88 102.48 C 91.46 99.64 89.63 96.05 88.09 91.96 L 88.84 90.49 Z" fill="#2b303d" />
<path d="M 78.27 92.29 L 78.83 92.25 L 78.88 92.81 L 78.32 92.85 L 78.27 92.29 Z" fill="#a7afc3" />
<path d="M 229.18 92.18 L 230.56 92.27 C 231.16 98.36 233.33 104.43 233.41 110.57 C 231.28 111.59 232.17 115.03 231.88 117.00 C 232.12 118.81 231.00 121.83 233.51 122.34 C 233.58 129.27 231.76 136.29 230.45 143.07 C 229.23 149.46 226.58 154.96 224.32 160.95 C 221.72 162.70 220.52 166.06 218.59 168.60 C 216.25 171.71 213.66 175.12 210.06 176.81 C 211.02 174.32 213.51 172.96 214.96 170.64 C 217.53 165.88 219.76 160.89 221.66 155.82 C 224.71 148.15 224.78 138.90 224.68 130.76 C 225.22 125.47 223.99 120.41 225.35 115.14 C 226.50 109.48 226.54 104.25 228.27 98.87 C 228.88 96.65 228.95 94.46 229.18 92.18 Z" fill="#272c3b" />
<path d="M 147.79 94.01 C 151.37 94.69 154.54 96.75 158.08 97.69 C 162.01 99.10 165.90 99.24 170.02 98.93 C 173.50 100.83 175.88 104.09 179.97 105.23 C 181.64 105.50 183.30 105.62 184.96 105.94 C 188.88 108.55 190.96 112.50 194.38 115.61 C 195.07 116.53 196.53 117.27 195.19 118.40 C 189.75 115.14 183.85 113.46 177.89 111.50 C 169.74 109.22 162.43 105.29 154.84 102.09 C 154.69 101.19 154.54 100.29 154.39 99.39 C 152.35 97.70 148.94 96.45 147.79 94.01 Z" fill="#cedce7" />
<path d="M 67.58 95.22 C 67.91 98.21 66.96 102.48 69.10 104.81 C 70.92 107.10 70.55 110.97 71.15 113.76 C 71.81 113.53 72.46 113.31 73.12 113.07 L 73.83 112.79 C 71.95 115.68 70.22 118.64 68.85 121.81 C 66.91 127.08 66.33 132.17 66.50 137.76 C 66.25 132.84 66.02 127.91 66.03 122.98 C 66.02 120.93 64.82 118.93 64.49 116.91 C 64.02 114.66 64.70 112.83 62.56 111.33 C 61.71 107.92 61.23 104.51 60.96 101.01 C 59.55 102.17 58.19 103.31 57.22 104.89 C 56.88 103.93 56.52 102.97 56.14 102.03 L 56.48 101.59 C 58.38 100.22 58.52 96.79 60.67 96.09 C 60.57 97.34 60.45 98.59 60.33 99.85 C 61.04 100.03 61.76 100.21 62.47 100.39 C 62.98 102.55 62.84 104.88 64.92 106.19 C 66.29 103.00 66.26 99.72 66.43 96.32 C 66.81 95.96 67.19 95.59 67.58 95.22 Z" fill="#657191" />
<path d="M 83.18 95.27 L 83.40 95.52 C 84.08 96.30 85.97 99.62 84.10 99.97 C 82.08 99.58 82.55 96.65 83.18 95.27 Z" fill="#9ea8c4" />
<path d="M 205.72 96.27 C 212.30 102.10 215.65 112.53 219.04 120.40 C 219.60 121.81 219.28 123.56 219.29 125.06 C 219.71 124.49 220.14 123.92 220.56 123.36 C 221.30 126.52 222.29 129.77 222.61 132.98 C 222.90 134.28 222.62 136.43 223.89 137.19 C 224.05 135.03 224.25 132.89 224.68 130.76 C 224.78 138.90 224.71 148.15 221.66 155.82 C 219.76 160.89 217.53 165.88 214.96 170.64 L 214.11 169.00 C 216.26 163.52 218.65 158.16 220.32 152.48 C 220.69 150.97 220.55 149.27 220.52 147.72 C 219.84 147.24 219.33 146.66 219.01 145.99 C 218.60 138.33 219.45 131.37 217.10 123.84 C 215.94 120.42 213.26 118.50 211.72 115.19 C 208.98 109.39 205.20 103.96 200.52 99.57 C 199.53 99.09 198.99 99.53 198.91 100.88 C 197.99 99.73 197.11 98.55 196.23 97.37 C 197.42 97.09 198.61 96.83 199.81 96.59 C 202.25 97.36 204.15 94.35 205.72 96.27 Z" fill="#808ead" />
<path d="M 56.47 96.15 L 57.43 96.18 C 56.73 98.06 56.04 99.55 56.48 101.59 L 56.14 102.03 C 56.52 102.97 56.88 103.93 57.22 104.89 C 57.12 105.88 57.01 106.87 56.91 107.87 C 56.30 108.34 55.69 108.82 55.08 109.30 C 52.02 111.76 48.91 114.21 46.07 116.93 C 44.03 117.36 42.29 118.27 40.50 119.32 C 40.99 116.82 41.58 114.35 42.00 111.83 L 42.86 112.00 C 44.93 112.86 45.82 111.43 47.59 110.61 C 49.82 109.03 52.33 110.01 54.63 108.63 C 55.08 107.10 55.28 105.49 55.55 103.92 C 55.27 103.33 54.99 102.74 54.70 102.15 C 55.43 100.19 55.98 98.18 56.47 96.15 Z" fill="#d0dde6" />
<path d="M 187.73 97.63 C 192.29 101.97 197.47 105.32 201.48 110.28 C 199.91 111.06 199.39 109.57 198.25 108.74 C 194.73 105.08 190.49 102.64 187.27 98.81 L 187.73 97.63 Z" fill="#9dadc3" />
<path d="M 200.52 99.57 C 205.20 103.96 208.98 109.39 211.72 115.19 C 213.26 118.50 215.94 120.42 217.10 123.84 C 219.45 131.37 218.60 138.33 219.01 145.99 C 219.33 146.66 219.84 147.24 220.52 147.72 C 220.55 149.27 220.69 150.97 220.32 152.48 C 218.65 158.16 216.26 163.52 214.11 169.00 L 214.96 170.64 C 213.51 172.96 211.02 174.32 210.06 176.81 C 213.66 175.12 216.25 171.71 218.59 168.60 C 220.52 166.06 221.72 162.70 224.32 160.95 C 222.26 167.47 219.20 173.62 214.86 178.94 C 213.16 180.96 211.37 182.64 210.11 185.01 C 208.93 184.74 207.89 183.87 206.77 184.74 C 202.60 187.68 198.52 190.59 193.82 192.68 C 190.51 194.00 187.16 194.32 184.21 196.52 C 184.94 198.00 185.66 199.31 186.97 200.38 C 188.19 201.47 189.39 202.59 190.54 203.76 C 188.51 205.53 186.96 203.77 185.03 202.84 C 181.94 201.02 180.58 197.25 178.44 194.52 C 177.17 193.47 175.57 194.28 174.36 195.01 C 174.62 196.32 174.85 197.63 175.07 198.94 C 171.69 199.74 170.39 197.36 169.26 194.67 C 171.26 193.63 174.04 193.47 174.68 190.93 C 176.52 187.02 174.31 183.32 176.60 179.50 C 177.87 179.61 178.68 178.90 179.77 178.38 C 179.73 179.96 179.61 181.53 179.31 183.09 C 183.10 182.81 186.81 181.97 190.58 181.46 C 194.93 178.21 199.68 175.22 204.10 172.09 C 208.66 166.13 213.04 159.40 214.41 151.91 C 215.11 142.47 215.37 133.24 212.51 124.09 C 210.21 117.54 207.96 111.25 203.16 106.04 C 201.77 104.30 200.32 102.61 198.91 100.88 C 198.99 99.53 199.53 99.09 200.52 99.57 Z" fill="#5a6484" />
<path d="M 86.12 100.57 C 86.93 100.59 87.74 100.62 88.55 100.68 C 90.11 103.06 91.47 105.47 93.51 107.49 C 96.21 110.76 100.25 110.72 103.64 113.30 C 105.76 114.97 107.47 114.79 110.03 114.81 C 114.22 117.06 118.26 119.81 122.51 121.89 L 123.02 122.07 C 122.97 124.06 124.15 125.08 126.12 124.75 C 128.41 126.31 129.09 128.66 130.65 130.82 C 131.13 131.51 131.61 132.19 132.09 132.87 C 130.77 133.69 129.45 134.51 128.18 135.40 C 127.48 134.82 126.80 134.23 126.12 133.63 C 124.89 131.90 123.48 130.39 122.50 128.50 C 122.19 128.45 121.88 128.40 121.56 128.35 C 118.80 126.11 115.50 123.57 111.92 122.97 C 108.24 121.61 104.56 121.43 100.79 120.56 C 101.45 119.81 102.11 119.07 102.78 118.32 C 100.46 117.90 97.11 118.38 95.44 116.52 C 90.88 112.42 87.11 106.70 86.12 100.57 Z" fill="#5f698a" />
<path d="M 60.96 101.01 C 61.23 104.51 61.71 107.92 62.56 111.33 C 64.70 112.83 64.02 114.66 64.49 116.91 C 64.82 118.93 66.02 120.93 66.03 122.98 C 66.02 127.91 66.25 132.84 66.50 137.76 C 66.33 132.17 66.91 127.08 68.85 121.81 C 70.65 125.98 68.48 129.30 68.75 134.00 C 68.32 139.15 71.21 142.94 71.74 147.81 C 69.70 144.62 66.50 142.76 64.99 139.26 C 63.34 139.31 62.28 139.01 60.86 138.22 C 60.08 136.89 59.26 135.58 58.38 134.31 L 58.31 134.55 C 57.39 136.47 58.42 139.63 60.13 140.83 L 61.71 140.01 C 65.05 146.05 68.78 151.76 73.76 156.58 C 72.92 157.49 74.43 158.91 74.76 159.85 C 73.77 159.63 72.77 159.42 71.77 159.21 C 73.33 162.84 75.11 166.27 78.45 168.55 C 82.71 174.23 88.38 178.77 94.22 182.76 C 98.58 184.85 103.09 186.97 107.67 188.52 C 106.76 188.71 105.85 188.91 104.94 189.10 C 99.49 187.13 94.31 184.88 89.73 181.27 C 86.77 179.00 84.21 176.36 81.43 173.90 C 81.18 175.90 83.70 177.83 84.64 179.47 C 86.26 182.08 88.82 183.48 90.81 185.66 C 87.30 184.62 84.80 182.23 82.17 179.81 C 79.62 177.44 78.75 174.53 77.41 171.44 C 76.86 170.18 76.37 169.57 75.09 169.01 L 74.66 171.05 C 73.79 168.87 72.51 166.93 71.43 164.86 C 69.65 161.12 68.79 156.75 66.78 153.07 C 66.15 151.44 64.06 151.37 62.65 150.70 C 62.80 149.68 62.69 148.75 62.34 147.90 C 61.85 147.17 61.34 146.45 60.84 145.73 C 58.55 146.66 58.93 148.26 58.47 150.32 C 58.32 148.03 58.29 145.78 58.62 143.51 C 59.20 141.10 57.62 138.45 56.61 136.32 L 55.91 136.12 L 55.19 135.94 C 56.04 133.20 54.68 129.88 53.83 127.24 C 55.73 125.66 57.76 124.28 59.77 122.85 L 58.34 121.96 C 57.13 121.44 56.07 121.74 54.83 121.91 C 54.53 119.97 54.27 118.03 54.10 116.08 C 54.65 115.35 55.20 114.63 55.76 113.91 C 55.65 112.35 55.44 110.83 55.08 109.30 C 55.69 108.82 56.30 108.34 56.91 107.87 C 57.01 106.87 57.12 105.88 57.22 104.89 C 58.19 103.31 59.55 102.17 60.96 101.01 Z" fill="#555f80" />
<path d="M 154.84 102.09 C 162.43 105.29 169.74 109.22 177.89 111.50 C 183.85 113.46 189.75 115.14 195.19 118.40 C 203.58 123.07 208.68 130.54 210.27 139.99 C 210.86 143.90 211.75 149.73 209.02 153.00 L 208.72 152.20 C 209.74 145.07 209.37 138.00 205.61 131.68 C 204.33 131.32 203.25 130.64 202.16 129.88 C 197.42 123.74 191.14 120.21 184.42 116.62 C 173.93 112.38 163.26 108.71 153.85 102.66 L 154.84 102.09 Z" fill="#666f8f" />
<path d="M 187.54 102.15 C 188.27 102.43 189.00 102.71 189.74 102.98 C 189.54 103.62 189.34 104.26 189.14 104.89 C 192.61 107.09 196.03 109.33 199.43 111.62 C 200.58 112.45 201.83 112.70 203.21 112.92 C 204.43 114.83 205.08 117.13 207.14 118.22 C 207.26 114.57 203.97 111.05 202.20 108.02 C 202.52 107.36 202.84 106.70 203.16 106.04 C 207.96 111.25 210.21 117.54 212.51 124.09 C 215.37 133.24 215.11 142.47 214.41 151.91 C 213.04 159.40 208.66 166.13 204.10 172.09 C 199.68 175.22 194.93 178.21 190.58 181.46 C 186.81 181.97 183.10 182.81 179.31 183.09 C 179.61 181.53 179.73 179.96 179.77 178.38 C 178.68 178.90 177.87 179.61 176.60 179.50 C 177.17 178.60 177.75 177.70 178.34 176.82 C 174.19 173.39 168.26 172.98 163.57 175.58 C 161.81 176.68 160.02 177.66 159.73 179.92 C 162.44 178.60 164.68 178.35 167.68 178.37 C 164.49 179.11 161.07 180.31 159.51 183.46 C 158.46 186.40 159.70 190.15 160.35 193.11 C 159.83 194.85 158.39 195.28 157.02 196.22 C 158.32 198.90 159.07 199.41 161.89 200.32 C 163.56 202.16 164.09 204.81 165.68 206.81 C 161.98 207.17 159.00 203.87 155.14 203.76 C 154.55 204.65 153.93 205.52 153.28 206.39 C 152.75 205.43 152.24 204.47 151.75 203.49 C 152.44 197.02 153.35 190.56 153.69 184.10 C 154.00 184.74 154.32 185.38 154.65 186.02 C 155.28 183.66 155.97 181.35 156.94 179.10 C 157.62 179.28 158.29 179.46 158.97 179.64 C 157.18 176.39 157.41 169.84 161.56 168.45 C 165.69 166.08 170.32 164.58 175.00 163.78 C 176.36 163.47 177.59 163.88 178.70 165.00 C 176.44 166.95 173.39 166.57 171.15 168.65 C 174.54 168.11 177.59 167.55 180.02 164.92 C 180.97 164.91 181.92 164.89 182.86 164.88 C 183.25 164.28 183.63 163.68 184.01 163.08 C 185.15 161.39 186.13 159.66 187.04 157.84 C 188.19 156.79 189.41 155.80 190.60 154.80 C 185.57 153.52 179.83 154.36 174.78 155.20 C 171.78 155.72 168.96 157.13 166.01 157.92 C 163.31 158.65 161.22 160.46 158.44 160.97 C 158.58 160.48 158.71 159.99 158.84 159.50 C 167.65 155.63 176.24 152.47 186.00 152.35 C 188.84 152.41 192.19 152.16 194.84 153.30 C 194.93 154.80 192.53 155.57 191.54 156.44 C 186.26 159.42 185.32 166.56 187.19 171.85 C 189.61 174.26 194.59 171.29 197.00 170.02 C 201.39 167.93 203.65 164.24 206.54 160.57 C 207.72 158.34 207.31 155.24 209.02 153.00 C 211.75 149.73 210.86 143.90 210.27 139.99 C 208.68 130.54 203.58 123.07 195.19 118.40 C 196.53 117.27 195.07 116.53 194.38 115.61 C 190.96 112.50 188.88 108.55 184.96 105.94 C 183.30 105.62 181.64 105.50 179.97 105.23 C 181.94 105.22 183.89 105.00 185.84 104.75 C 185.32 104.35 184.80 103.95 184.29 103.55 C 185.37 103.08 186.45 102.61 187.54 102.15 Z" fill="#96a6c3" />
<path d="M 94.88 102.48 C 97.85 105.07 101.45 106.63 104.49 109.12 L 103.08 110.10 C 100.68 108.85 98.08 107.69 95.95 106.02 C 95.09 104.91 93.43 103.88 94.88 102.48 Z" fill="#adb3c8" />
<path d="M 81.64 106.26 C 82.36 107.02 83.07 107.80 83.78 108.58 C 83.13 109.37 82.47 110.16 81.80 110.94 L 81.36 111.43 C 77.43 116.57 71.22 123.43 71.91 130.22 C 73.33 129.11 73.78 127.19 74.59 125.59 C 76.16 122.01 78.78 119.21 81.84 116.85 L 82.30 118.24 C 82.63 120.12 83.90 120.81 85.23 121.96 C 83.86 124.14 82.60 126.34 81.84 128.81 C 80.04 134.47 79.41 141.48 82.33 146.88 C 83.35 148.42 83.89 149.73 85.88 150.10 C 89.04 155.39 92.93 159.63 99.09 161.26 C 101.02 162.08 102.69 163.33 104.55 164.27 C 106.63 164.72 108.76 164.46 110.82 165.21 C 112.86 165.91 114.91 165.79 117.03 165.80 C 119.22 167.24 121.29 168.83 123.37 170.41 C 121.38 171.08 119.87 169.67 118.07 168.94 C 115.06 167.03 111.93 167.45 108.65 166.50 C 107.57 166.17 106.49 166.06 105.43 166.18 C 102.98 166.36 100.56 166.80 98.12 167.03 C 97.10 166.89 96.08 166.75 95.07 166.60 C 89.41 165.58 84.15 163.62 79.05 160.98 C 77.21 159.61 75.46 158.13 73.76 156.58 C 68.78 151.76 65.05 146.05 61.71 140.01 L 60.86 138.22 C 62.28 139.01 63.34 139.31 64.99 139.26 C 66.50 142.76 69.70 144.62 71.74 147.81 C 71.21 142.94 68.32 139.15 68.75 134.00 C 68.48 129.30 70.65 125.98 68.85 121.81 C 70.22 118.64 71.95 115.68 73.83 112.79 C 74.68 111.81 75.53 110.82 76.43 109.87 C 78.02 108.47 79.77 107.28 81.64 106.26 Z" fill="#272c3a" />
<path d="M 228.16 105.86 C 229.24 106.79 229.78 107.50 229.87 108.98 C 230.11 111.98 229.99 114.99 230.15 118.00 C 230.08 119.87 230.66 121.68 229.40 123.21 C 229.51 117.35 227.76 111.65 228.16 105.86 Z" fill="#484e5c" />
<path d="M 105.89 109.23 C 111.82 110.44 117.64 113.32 123.16 115.80 C 128.88 119.18 135.77 123.58 138.69 129.76 C 136.18 129.57 134.45 129.29 132.95 127.06 C 129.73 122.51 126.12 118.72 120.97 116.38 L 119.57 116.57 C 115.01 114.20 110.15 112.09 105.89 109.23 Z" fill="#424859" />
<path d="M 42.86 112.00 L 42.00 111.83 C 41.37 109.21 44.03 109.94 42.86 112.00 Z" fill="#fdffff" />
<path d="M 81.36 111.43 L 81.80 110.94 L 84.01 111.07 L 83.70 111.84 C 81.20 113.85 82.99 115.64 82.30 118.24 L 81.84 116.85 C 78.78 119.21 76.16 122.01 74.59 125.59 C 73.78 127.19 73.33 129.11 71.91 130.22 C 71.22 123.43 77.43 116.57 81.36 111.43 Z" fill="#42485d" />
<path d="M 233.41 110.57 C 233.45 114.49 233.49 118.42 233.51 122.34 C 231.00 121.83 232.12 118.81 231.88 117.00 C 232.17 115.03 231.28 111.59 233.41 110.57 Z" fill="#0c101d" />
<path d="M 83.70 111.84 C 85.80 115.70 88.27 117.84 91.98 120.08 C 92.99 119.82 93.99 119.55 95.00 119.29 C 95.98 119.66 96.97 120.00 97.96 120.32 C 94.41 121.99 91.71 124.04 89.17 127.03 L 88.85 125.00 C 86.58 127.02 85.63 130.33 84.05 132.99 C 83.85 131.42 83.68 129.84 83.54 128.26 C 82.98 128.44 82.41 128.62 81.84 128.81 C 82.60 126.34 83.86 124.14 85.23 121.96 C 83.90 120.81 82.63 120.12 82.30 118.24 C 82.99 115.64 81.20 113.85 83.70 111.84 Z" fill="#6d7996" />
<path d="M 224.79 112.07 C 224.99 113.09 225.17 114.12 225.35 115.14 C 223.99 120.41 225.22 125.47 224.68 130.76 C 224.25 132.89 224.05 135.03 223.89 137.19 C 222.62 136.43 222.90 134.28 222.61 132.98 C 222.29 129.77 221.30 126.52 220.56 123.36 C 220.14 123.92 219.71 124.49 219.29 125.06 C 219.28 123.56 219.60 121.81 219.04 120.40 L 219.80 119.47 C 221.30 117.74 222.37 116.07 223.25 113.94 C 223.76 113.32 224.27 112.69 224.79 112.07 Z" fill="#707c99" />
<path d="M 223.25 113.94 C 222.37 116.07 221.30 117.74 219.80 119.47 L 218.68 118.06 C 219.96 116.41 221.56 115.14 223.25 113.94 Z" fill="#444e68" />
<path d="M 46.07 116.93 C 44.60 119.30 43.22 121.58 40.86 123.20 C 40.70 121.91 40.59 120.62 40.50 119.32 C 42.29 118.27 44.03 117.36 46.07 116.93 Z" fill="#9ca6b3" />
<path d="M 97.96 120.32 C 98.91 120.38 99.85 120.46 100.79 120.56 C 104.56 121.43 108.24 121.61 111.92 122.97 C 113.14 124.95 114.44 126.88 115.65 128.88 C 112.60 128.64 109.74 127.98 106.66 128.44 C 108.73 128.93 110.77 129.49 112.77 130.21 C 112.83 131.51 112.89 132.80 112.95 134.10 C 110.05 134.11 107.28 133.67 104.40 133.93 C 99.25 133.31 95.00 137.61 93.35 142.07 C 91.64 147.31 95.26 153.34 101.07 152.98 C 100.89 153.62 100.72 154.26 100.55 154.90 C 103.42 153.06 104.91 149.31 103.21 146.11 L 103.30 144.97 C 104.09 145.54 104.90 146.08 105.69 146.63 C 107.69 147.90 107.67 149.63 108.07 151.74 L 107.59 153.93 C 105.90 157.39 103.49 157.16 100.06 157.04 C 93.37 156.37 88.26 149.11 86.89 143.02 C 86.36 139.21 87.50 135.93 88.80 132.43 C 88.15 132.60 87.49 132.76 86.84 132.92 C 87.11 130.73 88.14 128.93 89.17 127.03 C 91.71 124.04 94.41 121.99 97.96 120.32 Z" fill="#262b39" />
<path d="M 123.02 122.07 C 124.85 122.32 125.44 123.14 126.12 124.75 C 124.15 125.08 122.97 124.06 123.02 122.07 Z" fill="#7c87a5" />
<path d="M 111.92 122.97 C 115.50 123.57 118.80 126.11 121.56 128.35 C 121.88 128.40 122.19 128.45 122.50 128.50 C 123.48 130.39 124.89 131.90 126.12 133.63 C 124.21 134.61 123.62 135.56 122.93 137.54 C 121.80 140.57 122.90 143.23 122.44 146.41 C 118.92 143.19 120.71 140.04 120.76 136.03 L 120.56 135.78 L 120.42 135.63 C 117.87 139.75 119.06 144.91 121.51 148.80 L 121.52 149.76 C 122.30 150.94 123.20 152.04 124.13 153.12 L 122.90 153.19 C 120.22 151.15 117.18 150.02 114.12 148.71 C 111.60 147.74 108.43 146.10 105.69 146.63 C 104.90 146.08 104.09 145.54 103.30 144.97 L 103.15 144.19 C 104.35 143.52 104.58 142.85 103.85 142.19 C 102.21 141.97 100.50 142.08 98.85 142.08 C 98.92 139.44 103.94 140.77 105.67 140.53 C 105.31 140.19 104.94 139.85 104.57 139.51 C 101.14 139.26 99.03 139.73 95.93 141.06 C 96.66 137.48 101.94 136.35 104.40 133.93 C 107.28 133.67 110.05 134.11 112.95 134.10 C 112.89 132.80 112.83 131.51 112.77 130.21 C 110.77 129.49 108.73 128.93 106.66 128.44 C 109.74 127.98 112.60 128.64 115.65 128.88 C 114.44 126.88 113.14 124.95 111.92 122.97 Z" fill="#545e7f" />
<path d="M 160.26 123.25 C 161.92 122.51 163.74 123.06 165.41 123.44 C 169.66 124.57 173.78 126.32 177.74 128.23 C 181.46 130.02 184.34 133.35 185.62 137.27 C 185.79 139.35 183.67 140.41 182.04 141.11 C 176.86 143.15 170.47 144.28 165.31 141.60 C 160.63 138.40 157.99 133.47 156.89 128.00 C 157.01 125.88 158.14 123.90 160.26 123.25 Z" fill="#fcfcfc" />
<path d="M 88.85 125.00 L 89.17 127.03 C 88.14 128.93 87.11 130.73 86.84 132.92 C 87.49 132.76 88.15 132.60 88.80 132.43 C 87.50 135.93 86.36 139.21 86.89 143.02 C 86.25 141.24 86.93 137.73 85.07 136.88 C 84.83 139.75 84.95 142.62 85.00 145.50 C 84.08 145.92 83.19 146.39 82.33 146.88 C 79.41 141.48 80.04 134.47 81.84 128.81 C 82.41 128.62 82.98 128.44 83.54 128.26 C 83.68 129.84 83.85 131.42 84.05 132.99 C 85.63 130.33 86.58 127.02 88.85 125.00 Z" fill="#91a0bc" />
<path d="M 53.83 127.24 C 54.68 129.88 56.04 133.20 55.19 135.94 C 53.74 138.30 52.35 140.64 51.34 143.24 L 50.77 140.75 C 49.45 142.35 48.57 143.95 48.02 145.97 C 47.52 145.84 47.02 145.72 46.52 145.59 C 45.77 146.13 45.02 146.66 44.27 147.19 C 44.03 145.56 43.80 143.94 43.58 142.32 C 42.73 142.29 41.89 142.26 41.05 142.24 C 40.44 140.72 39.79 139.22 39.15 137.72 C 41.61 136.13 44.67 135.70 46.53 133.54 C 48.76 131.18 51.34 129.30 53.83 127.24 Z" fill="#262a38" />
<path d="M 200.13 130.26 L 202.16 129.88 C 203.25 130.64 204.33 131.32 205.61 131.68 C 209.37 138.00 209.74 145.07 208.72 152.20 C 206.77 149.60 207.73 147.05 207.21 143.99 C 206.35 138.57 202.87 134.71 200.13 130.26 Z" fill="#9fabc4" />
<path d="M 135.94 133.18 C 135.66 135.01 134.26 135.79 133.23 137.25 C 132.28 139.95 132.72 143.27 132.83 146.10 C 130.73 145.84 130.65 143.66 130.19 141.99 C 129.98 137.89 132.43 134.95 135.94 133.18 Z" fill="#5d646c" />
<path d="M 58.31 134.55 L 58.38 134.31 C 59.26 135.58 60.08 136.89 60.86 138.22 L 61.71 140.01 L 60.13 140.83 C 58.42 139.63 57.39 136.47 58.31 134.55 Z" fill="#6e7a9a" />
<path d="M 104.40 133.93 C 101.94 136.35 96.66 137.48 95.93 141.06 C 99.03 139.73 101.14 139.26 104.57 139.51 C 104.94 139.85 105.31 140.19 105.67 140.53 C 103.94 140.77 98.92 139.44 98.85 142.08 C 100.50 142.08 102.21 141.97 103.85 142.19 C 104.58 142.85 104.35 143.52 103.15 144.19 C 101.57 143.55 99.57 142.91 98.04 144.00 C 95.88 145.63 96.62 150.37 100.08 149.13 C 99.66 148.36 99.24 147.59 98.82 146.82 C 100.26 146.47 101.73 146.28 103.21 146.11 C 104.91 149.31 103.42 153.06 100.55 154.90 C 100.72 154.26 100.89 153.62 101.07 152.98 C 95.26 153.34 91.64 147.31 93.35 142.07 C 95.00 137.61 99.25 133.31 104.40 133.93 Z" fill="#a7b7d1" />
<path d="M 126.12 133.63 C 126.80 134.23 127.48 134.82 128.18 135.40 C 127.90 137.88 126.04 139.39 126.43 142.01 C 126.56 143.32 127.45 144.75 127.02 146.01 C 126.26 146.77 125.44 146.58 124.55 145.46 C 123.22 143.16 123.99 140.04 122.93 137.54 C 123.62 135.56 124.21 134.61 126.12 133.63 Z" fill="#9cacc6" />
<path d="M 120.42 135.63 L 120.56 135.78 L 120.76 136.03 C 120.71 140.04 118.92 143.19 122.44 146.41 C 122.54 147.71 123.13 148.49 124.23 148.77 C 127.83 149.80 131.46 150.73 134.93 148.84 C 139.64 147.24 141.28 142.35 140.97 137.75 C 143.99 138.99 146.11 141.36 148.92 142.98 L 148.60 144.42 C 153.46 146.20 153.72 152.06 155.82 156.09 C 155.31 158.16 155.29 159.77 155.65 161.87 L 155.88 163.65 C 155.32 162.67 154.60 161.95 153.70 161.49 C 154.54 169.16 155.66 176.47 153.69 184.10 C 153.35 190.56 152.44 197.02 151.75 203.49 C 151.63 204.27 151.52 205.05 151.40 205.82 C 151.09 206.65 150.77 207.48 150.46 208.31 C 148.40 197.20 152.32 187.87 152.78 177.19 C 153.75 167.95 150.04 158.54 142.85 152.62 C 143.77 151.13 144.70 149.64 145.59 148.12 C 142.72 149.73 141.09 152.71 138.17 154.33 C 135.91 154.25 133.66 154.19 131.40 154.25 C 129.77 153.61 128.14 152.98 126.50 152.37 C 124.84 151.18 123.18 149.97 121.51 148.80 C 119.06 144.91 117.87 139.75 120.42 135.63 Z" fill="#292d3c" />
<path d="M 55.19 135.94 L 55.91 136.12 C 54.57 140.44 53.86 144.80 51.78 148.87 C 49.34 153.27 49.87 158.83 49.19 163.87 L 47.82 164.03 C 47.14 156.58 49.37 150.23 51.34 143.24 C 52.35 140.64 53.74 138.30 55.19 135.94 Z" fill="#d3dde7" />
<path d="M 55.91 136.12 L 56.61 136.32 C 57.62 138.45 59.20 141.10 58.62 143.51 C 58.29 145.78 58.32 148.03 58.47 150.32 C 58.93 148.26 58.55 146.66 60.84 145.73 C 61.34 146.45 61.85 147.17 62.34 147.90 C 61.33 150.22 59.99 152.58 59.44 155.07 C 58.85 160.48 56.67 165.23 57.00 170.80 C 57.53 172.86 58.73 174.77 59.63 176.70 C 58.35 174.11 56.36 172.01 56.66 169.04 C 56.80 165.10 56.08 162.24 54.32 158.77 C 53.79 155.39 53.00 152.07 51.78 148.87 C 53.86 144.80 54.57 140.44 55.91 136.12 Z" fill="#232a36" />
<path d="M 85.07 136.88 C 86.93 137.73 86.25 141.24 86.89 143.02 C 88.26 149.11 93.37 156.37 100.06 157.04 C 100.77 157.57 101.48 158.12 102.17 158.68 C 101.17 158.83 100.16 158.98 99.16 159.13 C 99.31 159.68 99.46 160.23 99.61 160.78 L 99.09 161.26 C 92.93 159.63 89.04 155.39 85.88 150.10 C 83.89 149.73 83.35 148.42 82.33 146.88 C 83.19 146.39 84.08 145.92 85.00 145.50 C 84.95 142.62 84.83 139.75 85.07 136.88 Z" fill="#b5c7dd" />
<path d="M 50.77 140.75 L 51.34 143.24 C 49.37 150.23 47.14 156.58 47.82 164.03 C 47.77 167.56 49.03 170.94 48.36 174.37 C 47.93 173.61 47.51 172.84 47.10 172.07 C 46.54 168.44 46.24 164.89 44.43 161.60 C 42.04 158.25 43.27 153.65 43.59 149.79 C 43.68 151.73 43.35 154.06 44.14 155.87 L 44.93 155.83 C 46.33 152.71 47.26 149.30 48.02 145.97 C 48.57 143.95 49.45 142.35 50.77 140.75 Z" fill="#becad3" />
<path d="M 41.05 142.24 C 41.89 142.26 42.73 142.29 43.58 142.32 C 43.80 143.94 44.03 145.56 44.27 147.19 C 45.02 146.66 45.77 146.13 46.52 145.59 C 47.02 145.72 47.52 145.84 48.02 145.97 C 47.26 149.30 46.33 152.71 44.93 155.83 L 44.14 155.87 C 43.35 154.06 43.68 151.73 43.59 149.79 C 43.69 147.53 43.71 145.14 43.07 142.95 L 41.25 143.03 L 41.05 142.24 Z" fill="#8d96a2" />
<path d="M 41.25 143.03 L 43.07 142.95 C 43.71 145.14 43.69 147.53 43.59 149.79 C 43.27 153.65 42.04 158.25 44.43 161.60 C 46.24 164.89 46.54 168.44 47.10 172.07 C 45.51 169.95 45.81 166.21 44.02 164.62 L 43.26 165.10 C 43.40 168.13 43.99 171.07 43.71 174.13 C 40.49 170.56 41.56 165.45 40.86 161.10 C 37.91 157.18 38.93 152.61 39.10 147.98 C 39.02 146.70 40.47 145.83 41.17 144.86 L 41.25 143.03 Z" fill="#d3dfe5" />
<path d="M 98.04 144.00 C 99.57 142.91 101.57 143.55 103.15 144.19 L 103.30 144.97 L 103.21 146.11 C 101.73 146.28 100.26 146.47 98.82 146.82 C 99.24 147.59 99.66 148.36 100.08 149.13 C 96.62 150.37 95.88 145.63 98.04 144.00 Z" fill="#0a1021" />
<path d="M 114.12 148.71 L 112.20 149.25 C 113.93 150.34 115.66 151.34 117.12 152.79 C 115.76 153.02 114.39 153.21 113.02 153.34 C 111.37 152.83 109.72 152.27 108.07 151.74 C 107.67 149.63 107.69 147.90 105.69 146.63 C 108.43 146.10 111.60 147.74 114.12 148.71 Z" fill="#73809e" />
<path d="M 62.34 147.90 C 62.69 148.75 62.80 149.68 62.65 150.70 C 62.28 151.45 62.13 152.21 62.19 152.97 C 63.40 159.08 65.48 165.97 68.58 171.39 C 68.08 167.86 66.97 164.45 66.41 160.93 C 66.13 158.73 65.17 156.62 66.10 154.51 C 67.71 161.35 69.34 167.97 72.96 174.07 C 73.54 174.48 74.16 174.82 74.83 175.09 C 74.79 173.75 74.74 172.40 74.66 171.05 L 75.09 169.01 C 76.37 169.57 76.86 170.18 77.41 171.44 C 78.75 174.53 79.62 177.44 82.17 179.81 C 84.80 182.23 87.30 184.62 90.81 185.66 C 88.82 183.48 86.26 182.08 84.64 179.47 C 83.70 177.83 81.18 175.90 81.43 173.90 C 84.21 176.36 86.77 179.00 89.73 181.27 C 94.31 184.88 99.49 187.13 104.94 189.10 C 107.54 189.82 110.20 190.30 112.83 190.88 C 112.70 190.34 112.57 189.79 112.44 189.24 L 112.98 188.67 C 113.92 188.94 114.87 189.20 115.82 189.44 C 119.79 190.58 123.86 191.28 127.85 192.30 C 128.41 192.80 128.94 193.34 129.44 193.90 C 128.91 197.72 122.28 198.03 119.35 198.30 L 120.07 199.69 C 118.03 202.07 115.09 201.70 112.30 201.42 C 113.94 201.80 115.56 202.20 117.21 202.52 C 116.22 203.19 115.22 203.83 114.20 204.45 C 114.43 205.31 114.66 206.17 114.89 207.02 L 113.19 207.27 C 110.20 204.60 106.62 204.61 103.16 202.83 C 100.62 201.74 98.75 199.75 96.08 198.93 C 91.70 197.41 88.45 193.68 84.15 192.16 C 86.07 194.48 88.20 196.58 90.01 199.00 C 93.15 203.02 98.33 203.30 101.13 207.82 C 96.83 207.37 92.62 205.51 88.75 203.66 C 86.17 202.20 83.67 200.61 81.30 198.83 C 81.46 198.31 81.61 197.79 81.76 197.28 C 80.74 196.32 79.79 195.33 78.87 194.28 C 80.16 193.74 81.46 193.20 82.75 192.67 C 80.89 190.40 77.30 188.00 77.11 184.91 C 79.40 185.42 80.79 187.42 83.06 188.07 C 81.40 185.49 78.93 183.46 76.87 181.11 C 76.34 181.31 75.80 181.51 75.27 181.71 C 73.71 179.97 72.19 177.10 70.02 176.17 C 68.18 176.75 67.50 178.14 66.73 179.76 C 65.99 179.61 65.26 179.45 64.53 179.29 C 64.26 180.20 64.00 181.11 63.73 182.02 C 62.57 180.68 61.45 179.32 60.35 177.93 C 60.17 178.87 59.98 179.82 59.79 180.76 C 59.38 181.33 58.98 181.91 58.58 182.48 C 57.84 181.38 57.28 180.39 56.00 179.83 C 56.31 182.42 57.65 184.33 58.54 186.76 C 58.37 190.11 62.18 193.31 63.93 195.97 C 63.35 196.30 62.76 196.63 62.18 196.97 C 56.64 190.99 52.84 184.02 49.64 176.59 C 49.21 176.54 48.77 176.49 48.34 176.44 C 48.35 175.75 48.35 175.06 48.36 174.37 C 49.03 170.94 47.77 167.56 47.82 164.03 L 49.19 163.87 C 49.69 165.01 50.13 166.16 50.54 167.33 C 50.53 164.75 50.61 162.21 51.18 159.69 C 52.45 159.72 53.22 159.42 54.32 158.77 C 56.08 162.24 56.80 165.10 56.66 169.04 C 56.36 172.01 58.35 174.11 59.63 176.70 C 58.73 174.77 57.53 172.86 57.00 170.80 C 56.67 165.23 58.85 160.48 59.44 155.07 C 59.99 152.58 61.33 150.22 62.34 147.90 Z" fill="#cddbe5" />
<path d="M 145.59 148.12 C 144.70 149.64 143.77 151.13 142.85 152.62 C 150.04 158.54 153.75 167.95 152.78 177.19 C 151.72 172.03 150.80 165.43 146.81 161.64 C 145.21 159.96 144.95 158.33 144.69 156.10 C 141.12 153.79 137.12 158.19 134.27 155.56 C 135.57 155.17 136.89 154.79 138.17 154.33 C 141.09 152.71 142.72 149.73 145.59 148.12 Z" fill="#838a9e" />
<path d="M 51.78 148.87 C 53.00 152.07 53.79 155.39 54.32 158.77 C 53.22 159.42 52.45 159.72 51.18 159.69 C 50.61 162.21 50.53 164.75 50.54 167.33 C 50.13 166.16 49.69 165.01 49.19 163.87 C 49.87 158.83 49.34 153.27 51.78 148.87 Z" fill="#8a92a0" />
<path d="M 112.20 149.25 L 114.12 148.71 C 117.18 150.02 120.22 151.15 122.90 153.19 C 124.29 155.06 125.88 156.42 125.96 158.89 L 123.66 159.43 C 122.73 158.80 121.80 158.19 120.85 157.60 C 119.65 156.90 118.37 156.36 117.07 155.86 C 117.24 156.55 117.41 157.25 117.58 157.94 C 114.94 159.55 111.70 155.92 108.59 156.29 L 108.34 156.27 C 110.40 157.47 112.62 158.17 114.05 160.06 C 110.10 159.81 107.53 156.80 103.65 158.93 C 102.67 159.36 102.36 160.82 101.89 161.71 C 105.06 162.93 108.33 163.78 111.63 164.59 L 110.82 165.21 C 108.76 164.46 106.63 164.72 104.55 164.27 C 102.69 163.33 101.02 162.08 99.09 161.26 L 99.61 160.78 C 99.46 160.23 99.31 159.68 99.16 159.13 C 100.16 158.98 101.17 158.83 102.17 158.68 C 101.48 158.12 100.77 157.57 100.06 157.04 C 103.49 157.16 105.90 157.39 107.59 153.93 L 108.03 154.71 C 109.91 154.83 111.80 154.83 113.69 154.88 C 113.47 154.37 113.24 153.85 113.02 153.34 C 114.39 153.21 115.76 153.02 117.12 152.79 C 115.66 151.34 113.93 150.34 112.20 149.25 Z" fill="#abbfd9" />
<path d="M 121.51 148.80 C 123.18 149.97 124.84 151.18 126.50 152.37 C 125.72 152.64 124.93 152.89 124.13 153.12 C 123.20 152.04 122.30 150.94 121.52 149.76 L 121.51 148.80 Z" fill="#b6bac9" />
<path d="M 62.65 150.70 C 64.06 151.37 66.15 151.44 66.78 153.07 C 68.79 156.75 69.65 161.12 71.43 164.86 C 72.51 166.93 73.79 168.87 74.66 171.05 C 74.74 172.40 74.79 173.75 74.83 175.09 C 74.16 174.82 73.54 174.48 72.96 174.07 C 69.34 167.97 67.71 161.35 66.10 154.51 C 64.50 154.35 63.48 153.93 62.19 152.97 C 62.13 152.21 62.28 151.45 62.65 150.70 Z" fill="#151c2b" />
<path d="M 108.07 151.74 C 109.72 152.27 111.37 152.83 113.02 153.34 C 113.24 153.85 113.47 154.37 113.69 154.88 C 111.80 154.83 109.91 154.83 108.03 154.71 L 107.59 153.93 L 108.07 151.74 Z" fill="#c0cfe8" />
<path d="M 126.50 152.37 C 128.14 152.98 129.77 153.61 131.40 154.25 C 129.89 154.46 128.42 154.36 126.92 154.21 C 127.70 155.84 129.69 157.19 129.97 158.94 C 129.00 159.73 127.95 160.44 126.90 161.14 L 126.02 161.05 C 125.38 160.63 124.75 160.20 124.13 159.76 L 123.66 159.43 L 125.96 158.89 C 125.88 156.42 124.29 155.06 122.90 153.19 L 124.13 153.12 C 124.93 152.89 125.72 152.64 126.50 152.37 Z" fill="#99abc7" />
<path d="M 62.19 152.97 C 63.48 153.93 64.50 154.35 66.10 154.51 C 65.17 156.62 66.13 158.73 66.41 160.93 C 66.97 164.45 68.08 167.86 68.58 171.39 C 65.48 165.97 63.40 159.08 62.19 152.97 Z" fill="#7f8a95" />
<path d="M 126.92 154.21 C 128.42 154.36 129.89 154.46 131.40 154.25 C 133.66 154.19 135.91 154.25 138.17 154.33 C 136.89 154.79 135.57 155.17 134.27 155.56 C 137.12 158.19 141.12 153.79 144.69 156.10 C 144.95 158.33 145.21 159.96 146.81 161.64 C 146.05 163.70 146.35 165.56 146.64 167.67 C 144.11 169.32 146.28 169.53 147.44 171.14 C 146.74 171.81 146.04 172.48 145.32 173.14 C 144.41 171.48 143.52 169.81 142.65 168.14 C 142.07 168.79 141.49 169.45 140.91 170.10 C 138.23 167.79 136.23 164.71 133.39 162.63 C 131.48 161.67 129.02 161.51 126.90 161.14 C 127.95 160.44 129.00 159.73 129.97 158.94 C 129.69 157.19 127.70 155.84 126.92 154.21 Z" fill="#565e7e" />
<path d="M 190.60 154.80 C 189.41 155.80 188.19 156.79 187.04 157.84 C 185.13 157.90 183.76 157.99 182.15 159.10 C 180.69 160.11 179.07 159.64 177.34 159.71 C 177.17 158.54 177.01 157.37 176.85 156.20 C 176.17 155.86 175.48 155.53 174.78 155.20 C 179.83 154.36 185.57 153.52 190.60 154.80 Z" fill="#dfe7ee" />
<path d="M 174.78 155.20 C 175.48 155.53 176.17 155.86 176.85 156.20 C 177.01 157.37 177.17 158.54 177.34 159.71 C 179.07 159.64 180.69 160.11 182.15 159.10 C 183.76 157.99 185.13 157.90 187.04 157.84 C 186.13 159.66 185.15 161.39 184.01 163.08 C 180.39 162.61 176.82 162.89 173.18 162.82 C 174.62 162.04 176.00 162.21 176.11 160.23 C 169.15 160.89 164.17 164.39 158.09 167.33 C 157.88 168.15 157.67 168.97 157.45 169.79 C 156.97 167.33 157.41 163.78 155.65 161.87 C 155.29 159.77 155.31 158.16 155.82 156.09 C 156.79 157.26 157.82 158.38 158.84 159.50 C 158.71 159.99 158.58 160.48 158.44 160.97 C 161.22 160.46 163.31 158.65 166.01 157.92 C 168.96 157.13 171.78 155.72 174.78 155.20 Z" fill="#bfd2e8" />
<path d="M 108.59 156.29 C 111.70 155.92 114.94 159.55 117.58 157.94 C 117.41 157.25 117.24 156.55 117.07 155.86 C 118.37 156.36 119.65 156.90 120.85 157.60 C 120.36 159.77 120.41 160.31 118.27 161.42 C 118.85 162.28 119.42 163.14 120.00 164.00 C 118.68 163.67 117.36 163.34 116.04 163.00 C 116.26 163.78 116.49 164.56 116.72 165.34 C 112.66 162.44 108.11 161.03 103.65 158.93 C 107.53 156.80 110.10 159.81 114.05 160.06 C 112.62 158.17 110.40 157.47 108.34 156.27 L 108.59 156.29 Z" fill="#8c8c9e" />
<path d="M 73.76 156.58 C 75.46 158.13 77.21 159.61 79.05 160.98 C 79.37 162.60 79.85 164.14 80.43 165.68 C 80.73 165.11 81.03 164.53 81.33 163.96 C 86.30 171.48 92.86 178.78 100.76 183.27 C 104.54 185.50 108.90 187.02 112.98 188.67 L 112.44 189.24 C 112.57 189.79 112.70 190.34 112.83 190.88 C 110.20 190.30 107.54 189.82 104.94 189.10 C 105.85 188.91 106.76 188.71 107.67 188.52 C 103.09 186.97 98.58 184.85 94.22 182.76 C 88.38 178.77 82.71 174.23 78.45 168.55 C 75.11 166.27 73.33 162.84 71.77 159.21 C 72.77 159.42 73.77 159.63 74.76 159.85 C 74.43 158.91 72.92 157.49 73.76 156.58 Z" fill="#8a99b9" />
<path d="M 120.85 157.60 C 121.80 158.19 122.73 158.80 123.66 159.43 L 124.13 159.76 C 123.57 160.26 123.01 160.77 122.45 161.28 C 122.70 161.85 122.96 162.42 123.21 163.00 C 123.01 163.51 122.82 164.03 122.62 164.54 C 123.09 165.27 123.54 166.02 123.97 166.77 L 122.37 167.46 C 122.93 168.41 123.49 169.37 124.06 170.32 L 123.37 170.41 C 121.29 168.83 119.22 167.24 117.03 165.80 L 116.72 165.34 C 116.49 164.56 116.26 163.78 116.04 163.00 C 117.36 163.34 118.68 163.67 120.00 164.00 C 119.42 163.14 118.85 162.28 118.27 161.42 C 120.41 160.31 120.36 159.77 120.85 157.60 Z" fill="#797481" />
<path d="M 103.65 158.93 C 108.11 161.03 112.66 162.44 116.72 165.34 L 117.03 165.80 C 114.91 165.79 112.86 165.91 110.82 165.21 L 111.63 164.59 C 108.33 163.78 105.06 162.93 101.89 161.71 C 102.36 160.82 102.67 159.36 103.65 158.93 Z" fill="#6c6677" />
<path d="M 124.13 159.76 C 124.75 160.20 125.38 160.63 126.02 161.05 L 126.90 161.14 C 129.02 161.51 131.48 161.67 133.39 162.63 C 136.23 164.71 138.23 167.79 140.91 170.10 C 141.49 169.45 142.07 168.79 142.65 168.14 C 143.52 169.81 144.41 171.48 145.32 173.14 C 146.04 172.48 146.74 171.81 147.44 171.14 C 146.28 169.53 144.11 169.32 146.64 167.67 C 146.35 165.56 146.05 163.70 146.81 161.64 C 150.80 165.43 151.72 172.03 152.78 177.19 C 152.32 187.87 148.40 197.20 150.46 208.31 C 150.09 209.98 150.53 211.31 148.60 211.98 C 148.52 202.99 148.36 194.55 144.59 186.16 C 144.22 186.65 143.84 187.15 143.47 187.64 C 142.12 185.44 141.22 182.37 139.10 180.83 C 139.69 184.59 142.01 187.37 142.57 191.07 C 142.80 193.29 142.66 195.59 142.56 197.81 C 141.78 195.51 141.19 193.16 140.58 190.81 C 139.21 192.19 139.80 195.03 139.51 196.86 C 138.00 193.53 138.15 189.87 136.43 186.58 C 134.20 182.12 131.47 177.64 127.81 174.20 C 126.50 172.97 125.23 171.69 124.06 170.32 C 123.49 169.37 122.93 168.41 122.37 167.46 L 123.97 166.77 C 123.54 166.02 123.09 165.27 122.62 164.54 C 122.82 164.03 123.01 163.51 123.21 163.00 C 122.96 162.42 122.70 161.85 122.45 161.28 C 123.01 160.77 123.57 160.26 124.13 159.76 Z" fill="#65535d" />
<path d="M 176.11 160.23 C 176.00 162.21 174.62 162.04 173.18 162.82 C 176.82 162.89 180.39 162.61 184.01 163.08 C 183.63 163.68 183.25 164.28 182.86 164.88 C 181.92 164.89 180.97 164.91 180.02 164.92 C 177.59 167.55 174.54 168.11 171.15 168.65 C 173.39 166.57 176.44 166.95 178.70 165.00 C 177.59 163.88 176.36 163.47 175.00 163.78 C 170.32 164.58 165.69 166.08 161.56 168.45 C 157.41 169.84 157.18 176.39 158.97 179.64 C 158.29 179.46 157.62 179.28 156.94 179.10 C 155.97 181.35 155.28 183.66 154.65 186.02 C 154.32 185.38 154.00 184.74 153.69 184.10 C 155.66 176.47 154.54 169.16 153.70 161.49 C 154.60 161.95 155.32 162.67 155.88 163.65 L 155.65 161.87 C 157.41 163.78 156.97 167.33 157.45 169.79 C 157.67 168.97 157.88 168.15 158.09 167.33 C 164.17 164.39 169.15 160.89 176.11 160.23 Z" fill="#aebfdb" />
<path d="M 79.05 160.98 C 84.15 163.62 89.41 165.58 95.07 166.60 L 94.01 167.20 C 97.84 170.99 102.83 173.79 107.49 176.46 C 110.89 178.22 114.29 179.68 118.16 179.97 C 117.05 181.65 113.85 183.52 115.19 185.71 C 119.27 187.50 123.91 188.15 128.18 189.42 C 124.50 191.26 119.97 188.86 115.82 189.44 C 114.87 189.20 113.92 188.94 112.98 188.67 C 108.90 187.02 104.54 185.50 100.76 183.27 C 92.86 178.78 86.30 171.48 81.33 163.96 C 81.03 164.53 80.73 165.11 80.43 165.68 C 79.85 164.14 79.37 162.60 79.05 160.98 Z" fill="#596485" />
<path d="M 105.43 166.18 C 106.99 168.10 108.82 167.40 111.00 167.66 C 114.43 167.50 117.60 170.09 119.27 172.90 C 118.24 173.10 117.21 173.30 116.19 173.49 C 116.25 175.58 118.12 174.91 119.62 175.42 C 119.33 175.93 119.05 176.43 118.76 176.94 L 117.80 177.43 C 117.22 178.02 116.66 178.63 116.10 179.25 C 109.38 176.12 102.87 173.19 97.15 168.35 L 98.12 167.03 C 100.56 166.80 102.98 166.36 105.43 166.18 Z" fill="#545d7b" />
<path d="M 105.43 166.18 C 106.49 166.06 107.57 166.17 108.65 166.50 C 111.93 167.45 115.06 167.03 118.07 168.94 C 120.95 172.14 123.96 175.14 126.33 178.76 C 125.56 179.30 124.79 179.83 124.01 180.37 C 122.08 179.41 120.41 178.32 118.76 176.94 C 119.05 176.43 119.33 175.93 119.62 175.42 C 118.12 174.91 116.25 175.58 116.19 173.49 C 117.21 173.30 118.24 173.10 119.27 172.90 C 117.60 170.09 114.43 167.50 111.00 167.66 C 108.82 167.40 106.99 168.10 105.43 166.18 Z" fill="#99a6c8" />
<path d="M 182.59 166.33 C 183.23 168.37 183.88 170.35 185.01 172.18 C 184.62 173.12 184.23 174.05 183.82 174.98 C 184.08 175.61 184.34 176.25 184.59 176.89 C 183.83 176.82 183.06 176.73 182.30 176.63 C 180.73 175.07 181.56 171.71 182.29 169.88 C 181.57 169.23 180.89 168.55 180.22 167.85 C 179.84 165.81 181.27 166.61 182.59 166.33 Z" fill="#f7f9ff" />
<path d="M 94.01 167.20 L 95.07 166.60 C 96.08 166.75 97.10 166.89 98.12 167.03 L 97.15 168.35 C 102.87 173.19 109.38 176.12 116.10 179.25 C 116.66 178.63 117.22 178.02 117.80 177.43 C 118.08 178.05 118.43 178.60 118.85 179.08 C 122.14 181.24 127.42 182.75 129.79 186.00 C 129.26 186.67 128.74 187.33 128.22 187.99 C 129.00 189.22 130.88 189.01 132.14 189.18 L 132.31 187.02 C 132.67 188.56 132.86 190.16 133.14 191.72 C 132.12 191.59 131.10 191.47 130.08 191.34 C 130.66 192.17 131.25 192.99 131.84 193.82 C 131.04 193.85 130.24 193.88 129.44 193.90 C 128.94 193.34 128.41 192.80 127.85 192.30 C 123.86 191.28 119.79 190.58 115.82 189.44 C 119.97 188.86 124.50 191.26 128.18 189.42 C 123.91 188.15 119.27 187.50 115.19 185.71 C 113.85 183.52 117.05 181.65 118.16 179.97 C 114.29 179.68 110.89 178.22 107.49 176.46 C 102.83 173.79 97.84 170.99 94.01 167.20 Z" fill="#96a7c5" />
<path d="M 104.98 168.01 C 107.64 169.37 109.61 171.28 112.02 173.01 C 113.63 174.22 115.25 175.09 116.10 177.02 C 112.43 175.32 109.20 172.51 105.92 170.16 C 105.11 169.61 104.79 168.90 104.98 168.01 Z" fill="#8d94af" />
<path d="M 118.07 168.94 C 119.87 169.67 121.38 171.08 123.37 170.41 L 124.06 170.32 C 125.23 171.69 126.50 172.97 127.81 174.20 C 131.47 177.64 134.20 182.12 136.43 186.58 C 138.15 189.87 138.00 193.53 139.51 196.86 C 139.80 195.03 139.21 192.19 140.58 190.81 C 141.19 193.16 141.78 195.51 142.56 197.81 C 142.66 195.59 142.80 193.29 142.57 191.07 C 142.01 187.37 139.69 184.59 139.10 180.83 C 141.22 182.37 142.12 185.44 143.47 187.64 C 143.84 187.15 144.22 186.65 144.59 186.16 C 148.36 194.55 148.52 202.99 148.60 211.98 C 150.53 211.31 150.09 209.98 150.46 208.31 C 150.77 207.48 151.09 206.65 151.40 205.82 C 152.23 207.81 153.23 209.94 152.28 212.08 C 151.46 213.97 151.62 216.36 151.46 218.39 C 149.92 216.90 149.14 213.55 147.03 212.95 C 146.87 213.83 146.72 214.71 146.58 215.59 C 146.19 215.02 145.80 214.45 145.41 213.88 C 145.04 216.16 145.06 217.71 143.05 219.15 C 143.40 221.84 143.73 224.39 145.38 226.64 C 142.95 228.12 139.59 231.49 136.54 230.33 C 133.69 229.41 130.67 229.87 127.97 228.59 C 127.58 228.03 127.20 227.46 126.83 226.89 C 128.42 226.70 130.02 226.58 131.62 226.54 C 132.85 225.30 133.90 224.01 134.89 222.57 C 134.15 222.73 133.42 222.89 132.69 223.04 C 133.34 219.01 135.42 215.62 137.88 212.46 C 137.19 212.83 136.50 213.21 135.81 213.59 C 134.74 212.84 134.06 211.82 133.76 210.53 L 135.24 210.26 C 135.29 209.04 135.35 207.82 135.40 206.59 C 134.60 205.83 133.80 205.05 133.00 204.28 C 133.94 199.84 134.69 196.18 133.14 191.72 C 132.86 190.16 132.67 188.56 132.31 187.02 C 131.21 183.35 128.52 181.61 126.33 178.76 C 123.96 175.14 120.95 172.14 118.07 168.94 Z" fill="#45363d" />
<path d="M 61.41 171.14 C 63.26 172.05 64.99 174.09 65.22 176.17 C 62.96 175.30 62.10 173.30 61.41 171.14 Z" fill="#8d9ba6" />
<path d="M 178.34 176.82 C 177.75 177.70 177.17 178.60 176.60 179.50 C 174.31 183.32 176.52 187.02 174.68 190.93 C 174.04 193.47 171.26 193.63 169.26 194.67 L 168.30 195.12 C 167.68 193.78 166.94 192.46 166.51 191.05 C 166.88 190.30 167.26 189.56 167.64 188.82 C 166.75 187.33 165.61 186.51 166.70 184.67 C 167.42 184.39 168.15 184.14 168.89 183.90 C 169.26 185.24 169.39 186.76 170.05 187.98 C 170.71 188.37 171.46 188.10 172.28 187.18 L 173.41 185.96 C 173.56 185.02 173.64 184.08 173.70 183.14 C 171.49 181.20 165.02 179.64 164.64 183.99 C 164.57 186.44 164.58 188.90 164.53 191.35 C 164.12 190.21 164.71 187.35 162.92 188.02 C 162.31 193.08 164.79 199.32 167.86 203.37 C 169.72 206.14 172.10 208.23 174.48 210.52 C 176.68 212.54 178.95 214.33 181.88 215.13 C 181.71 213.87 181.53 212.61 181.33 211.35 C 184.42 212.52 188.20 214.31 191.55 213.55 C 194.06 212.84 197.11 211.94 198.54 209.58 C 200.01 207.22 200.38 204.04 201.43 201.46 C 202.44 200.37 203.75 199.47 204.94 198.57 C 207.39 198.65 209.83 198.59 212.28 198.50 C 214.45 199.51 216.55 200.02 218.14 201.93 C 220.14 204.03 222.17 205.90 225.05 206.67 C 227.79 208.32 229.81 211.41 232.10 213.66 C 232.42 215.64 233.74 218.01 233.14 219.96 C 232.35 221.85 231.47 223.74 230.44 225.52 C 229.29 227.27 226.49 226.22 224.76 226.22 C 223.58 227.02 221.86 229.99 220.57 227.73 C 221.56 224.12 223.81 220.96 224.47 217.29 C 225.08 217.02 225.70 216.74 226.32 216.47 C 227.90 216.48 230.08 217.79 229.90 215.22 C 228.23 213.81 226.18 214.02 226.21 211.36 C 224.62 213.26 222.79 213.59 222.05 216.26 C 221.41 215.90 220.76 215.54 220.12 215.19 C 219.12 215.37 218.36 215.40 217.38 215.20 C 216.96 213.20 216.48 211.31 215.49 209.51 C 213.30 207.91 210.43 205.43 207.68 207.28 C 207.36 210.17 206.90 213.05 205.70 215.72 C 204.37 218.32 201.60 219.50 199.13 220.77 C 196.45 218.17 192.17 219.46 188.76 219.43 C 185.47 218.53 181.95 217.78 178.91 216.21 C 172.08 211.89 166.51 206.03 162.80 198.81 C 161.89 196.95 161.00 195.09 160.35 193.11 C 159.70 190.15 158.46 186.40 159.51 183.46 C 161.07 180.31 164.49 179.11 167.68 178.37 C 164.68 178.35 162.44 178.60 159.73 179.92 C 160.02 177.66 161.81 176.68 163.57 175.58 C 168.26 172.98 174.19 173.39 178.34 176.82 Z" fill="#282c3a" />
<path d="M 70.02 176.17 C 72.19 177.10 73.71 179.97 75.27 181.71 C 75.80 181.51 76.34 181.31 76.87 181.11 C 78.93 183.46 81.40 185.49 83.06 188.07 C 80.79 187.42 79.40 185.42 77.11 184.91 C 77.30 188.00 80.89 190.40 82.75 192.67 C 81.46 193.20 80.16 193.74 78.87 194.28 C 79.79 195.33 80.74 196.32 81.76 197.28 C 81.61 197.79 81.46 198.31 81.30 198.83 C 83.67 200.61 86.17 202.20 88.75 203.66 L 87.99 204.97 C 90.51 206.92 93.25 207.63 96.10 208.92 C 98.03 209.77 99.71 210.84 101.82 211.21 C 97.16 212.56 91.42 207.84 87.32 205.92 C 84.05 203.72 80.75 201.57 77.51 199.34 C 75.76 198.19 75.07 195.97 73.48 194.51 C 68.80 190.10 63.89 185.72 59.79 180.76 C 59.98 179.82 60.17 178.87 60.35 177.93 C 61.45 179.32 62.57 180.68 63.73 182.02 C 64.00 181.11 64.26 180.20 64.53 179.29 C 65.26 179.45 65.99 179.61 66.73 179.76 C 67.50 178.14 68.18 176.75 70.02 176.17 Z" fill="#b9c7d9" />
<path d="M 117.80 177.43 L 118.76 176.94 C 120.41 178.32 122.08 179.41 124.01 180.37 C 124.79 179.83 125.56 179.30 126.33 178.76 C 128.52 181.61 131.21 183.35 132.31 187.02 L 132.14 189.18 C 130.88 189.01 129.00 189.22 128.22 187.99 C 128.74 187.33 129.26 186.67 129.79 186.00 C 127.42 182.75 122.14 181.24 118.85 179.08 C 118.43 178.60 118.08 178.05 117.80 177.43 Z" fill="#c9cfdf" />
<path d="M 189.23 179.25 C 191.11 179.43 189.98 182.06 188.44 181.00 C 188.08 180.23 188.34 179.65 189.23 179.25 Z" fill="#d5dfec" />
<path d="M 56.00 179.83 C 57.28 180.39 57.84 181.38 58.58 182.48 C 58.98 181.91 59.38 181.33 59.79 180.76 C 63.89 185.72 68.80 190.10 73.48 194.51 C 75.07 195.97 75.76 198.19 77.51 199.34 C 80.75 201.57 84.05 203.72 87.32 205.92 C 86.78 206.48 86.25 207.04 85.72 207.61 C 81.53 205.74 77.47 203.38 73.12 202.02 C 70.87 200.96 69.15 199.32 67.46 197.54 C 64.18 194.18 61.14 190.68 58.54 186.76 C 57.65 184.33 56.31 182.42 56.00 179.83 Z" fill="#fdfeff" />
<path d="M 173.70 183.14 C 170.97 184.48 167.68 182.53 164.64 183.99 C 165.02 179.64 171.49 181.20 173.70 183.14 Z" fill="#8d97b0" />
<path d="M 173.70 183.14 C 173.64 184.08 173.56 185.02 173.41 185.96 C 172.08 184.75 171.70 185.16 172.28 187.18 C 171.46 188.10 170.71 188.37 170.05 187.98 C 169.39 186.76 169.26 185.24 168.89 183.90 C 168.15 184.14 167.42 184.39 166.70 184.67 C 165.61 186.51 166.75 187.33 167.64 188.82 C 167.26 189.56 166.88 190.30 166.51 191.05 C 166.94 192.46 167.68 193.78 168.30 195.12 C 166.14 197.57 168.81 199.52 169.86 201.83 C 169.20 202.35 168.53 202.86 167.86 203.37 C 164.79 199.32 162.31 193.08 162.92 188.02 C 164.71 187.35 164.12 190.21 164.53 191.35 C 164.58 188.90 164.57 186.44 164.64 183.99 C 167.68 182.53 170.97 184.48 173.70 183.14 Z" fill="#545a7a" />
<path d="M 194.21 183.03 C 192.67 184.85 190.63 185.47 188.54 186.50 C 185.30 187.87 182.61 189.55 178.91 188.93 C 180.84 187.32 183.78 187.13 186.05 186.07 C 189.05 184.98 190.96 182.84 194.21 183.03 Z" fill="#6d7898" />
<path d="M 184.71 184.21 C 184.45 184.68 184.18 185.16 183.91 185.64 C 181.52 186.06 179.19 187.14 176.76 187.24 L 177.35 185.36 C 179.75 184.47 182.19 184.28 184.71 184.21 Z" fill="#98a5bd" />
<path d="M 210.11 185.01 C 209.05 188.56 206.28 190.21 204.13 193.06 C 201.76 196.64 197.70 194.45 194.39 197.30 C 195.43 197.70 196.00 198.27 196.09 199.00 C 194.29 200.58 192.09 201.68 189.72 202.11 C 190.29 201.13 190.88 200.18 191.52 199.25 C 190.01 199.65 188.49 200.02 186.97 200.38 C 185.66 199.31 184.94 198.00 184.21 196.52 C 187.16 194.32 190.51 194.00 193.82 192.68 C 198.52 190.59 202.60 187.68 206.77 184.74 C 207.89 183.87 208.93 184.74 210.11 185.01 Z" fill="#96a7c5" />
<path d="M 173.41 185.96 L 172.28 187.18 C 171.70 185.16 172.08 184.75 173.41 185.96 Z" fill="#878dab" />
<path d="M 58.54 186.76 C 61.14 190.68 64.18 194.18 67.46 197.54 C 69.15 199.32 70.87 200.96 73.12 202.02 L 72.79 203.76 C 69.02 202.28 66.46 198.97 63.93 195.97 C 62.18 193.31 58.37 190.11 58.54 186.76 Z" fill="#9198a0" />
<path d="M 84.15 192.16 C 88.45 193.68 91.70 197.41 96.08 198.93 C 98.75 199.75 100.62 201.74 103.16 202.83 C 106.62 204.61 110.20 204.60 113.19 207.27 L 112.75 208.46 C 111.85 208.46 110.95 208.47 110.06 208.49 C 107.06 208.51 104.10 208.22 101.13 207.82 C 98.33 203.30 93.15 203.02 90.01 199.00 C 88.20 196.58 86.07 194.48 84.15 192.16 Z" fill="#fcfeff" />
<path d="M 160.35 193.11 C 161.00 195.09 161.89 196.95 162.80 198.81 L 161.89 200.32 C 159.07 199.41 158.32 198.90 157.02 196.22 C 158.39 195.28 159.83 194.85 160.35 193.11 Z" fill="#4f5a79" />
<path d="M 178.44 194.52 C 180.58 197.25 181.94 201.02 185.03 202.84 C 186.96 203.77 188.51 205.53 190.54 203.76 C 193.70 203.94 197.12 202.67 200.00 203.99 C 200.52 202.22 200.53 200.27 201.94 198.97 C 204.33 196.10 209.31 197.20 212.28 198.50 C 209.83 198.59 207.39 198.65 204.94 198.57 C 203.75 199.47 202.44 200.37 201.43 201.46 C 200.38 204.04 200.01 207.22 198.54 209.58 C 197.11 211.94 194.06 212.84 191.55 213.55 C 188.20 214.31 184.42 212.52 181.33 211.35 C 181.53 212.61 181.71 213.87 181.88 215.13 C 178.95 214.33 176.68 212.54 174.48 210.52 C 172.10 208.23 169.72 206.14 167.86 203.37 C 168.53 202.86 169.20 202.35 169.86 201.83 C 168.81 199.52 166.14 197.57 168.30 195.12 L 169.26 194.67 C 170.39 197.36 171.69 199.74 175.07 198.94 C 174.85 197.63 174.62 196.32 174.36 195.01 C 175.57 194.28 177.17 193.47 178.44 194.52 Z" fill="#665561" />
<path d="M 120.07 199.69 C 121.82 199.60 123.56 199.47 125.31 199.37 C 126.10 201.55 128.05 202.13 129.78 203.52 C 126.06 203.55 121.50 204.20 118.07 202.55 L 117.21 202.52 C 115.56 202.20 113.94 201.80 112.30 201.42 C 115.09 201.70 118.03 202.07 120.07 199.69 Z" fill="#131625" />
<path d="M 60.39 200.38 C 61.22 200.35 62.05 200.32 62.88 200.31 C 59.26 204.76 55.63 208.38 54.40 214.30 C 55.63 212.03 56.84 209.49 58.58 207.57 C 60.17 206.25 61.86 205.06 63.40 203.69 C 63.26 203.02 63.11 202.36 62.96 201.69 C 63.93 201.74 64.90 201.79 65.87 201.85 C 66.08 203.27 66.36 204.66 66.78 206.03 C 66.41 208.12 64.90 209.07 63.59 210.57 C 60.67 213.59 58.74 217.07 56.40 220.50 C 55.65 221.88 53.53 221.90 52.15 222.50 C 49.57 221.57 46.98 220.69 44.46 219.61 C 44.22 218.77 43.98 217.93 43.74 217.08 C 42.54 216.52 41.33 216.00 40.06 215.60 C 41.38 214.27 42.99 213.75 44.72 213.16 C 45.71 214.27 46.71 219.05 48.73 217.75 C 51.02 214.57 52.06 210.74 54.71 207.72 C 56.77 205.35 58.61 202.97 60.39 200.38 Z" fill="#8e777f" />
<path d="M 174.04 200.54 C 175.88 201.71 177.00 203.89 178.63 205.36 C 180.62 207.48 183.35 208.76 185.13 211.03 C 181.20 211.35 177.71 206.36 175.04 203.95 C 174.47 203.15 171.64 200.79 174.04 200.54 Z" fill="#bdb3bb" />
<path d="M 88.75 203.66 C 92.62 205.51 96.83 207.37 101.13 207.82 C 104.10 208.22 107.06 208.51 110.06 208.49 L 109.58 209.34 C 106.44 207.90 104.53 209.97 101.82 211.21 C 99.71 210.84 98.03 209.77 96.10 208.92 C 93.25 207.63 90.51 206.92 87.99 204.97 L 88.75 203.66 Z" fill="#949ca6" />
<path d="M 70.61 205.15 C 70.58 205.97 70.54 206.78 70.48 207.59 C 69.14 210.33 68.82 213.33 67.28 215.98 C 66.33 216.16 65.38 216.34 64.43 216.54 C 62.07 217.61 61.05 218.44 59.96 220.81 C 58.62 224.73 53.87 223.71 50.62 224.17 L 52.15 222.50 C 53.53 221.90 55.65 221.88 56.40 220.50 C 58.74 217.07 60.67 213.59 63.59 210.57 C 64.90 209.07 66.41 208.12 66.78 206.03 C 68.05 205.56 69.27 205.31 70.61 205.15 Z" fill="#775a67" />
<path d="M 133.69 207.87 L 134.14 209.13 L 133.45 209.33 L 133.60 209.95 L 133.76 210.53 C 134.06 211.82 134.74 212.84 135.81 213.59 C 136.50 213.21 137.19 212.83 137.88 212.46 C 135.42 215.62 133.34 219.01 132.69 223.04 C 133.42 222.89 134.15 222.73 134.89 222.57 C 133.90 224.01 132.85 225.30 131.62 226.54 C 130.02 226.58 128.42 226.70 126.83 226.89 C 127.20 227.46 127.58 228.03 127.97 228.59 L 126.96 228.57 C 125.22 231.03 125.49 232.78 122.06 233.46 C 121.66 231.29 121.58 230.02 122.44 227.98 C 121.00 225.50 121.39 224.34 122.46 221.86 C 124.11 218.41 125.83 214.96 127.60 211.58 C 128.92 209.04 131.21 208.71 133.69 207.87 Z" fill="#a94e5b" />
<path d="M 133.45 209.33 L 134.14 209.13 L 134.35 209.73 L 133.60 209.95 L 133.45 209.33 Z" fill="#2b0a13" />
<path d="M 112.15 212.02 C 115.13 211.79 118.07 213.47 120.99 214.01 C 122.59 214.24 122.96 215.41 123.87 216.53 C 121.97 217.73 120.83 219.49 119.47 221.22 C 118.33 220.78 117.25 220.21 116.04 220.11 C 113.52 221.75 111.12 223.41 108.26 224.45 L 109.17 225.43 C 105.36 228.11 101.16 229.75 96.78 231.22 L 96.60 230.34 C 101.48 224.69 109.71 219.26 112.15 212.02 Z" fill="#ae4f5c" />
<path d="M 147.03 212.95 C 149.14 213.55 149.92 216.90 151.46 218.39 C 151.82 223.65 150.19 228.53 150.65 233.81 L 149.13 233.97 C 147.53 231.71 147.10 228.87 145.38 226.64 C 143.73 224.39 143.40 221.84 143.05 219.15 C 145.06 217.71 145.04 216.16 145.41 213.88 C 145.80 214.45 146.19 215.02 146.58 215.59 C 146.72 214.71 146.87 213.83 147.03 212.95 Z" fill="#a64b59" />
<path d="M 98.88 214.91 C 99.05 215.98 98.42 216.65 97.02 216.93 C 96.78 215.29 97.40 214.62 98.88 214.91 Z" fill="#6f434a" />
<path d="M 98.88 214.91 C 102.11 214.65 102.97 218.12 103.83 220.52 C 100.30 221.62 97.62 224.15 94.01 225.01 C 92.47 225.40 91.19 226.59 89.83 227.44 C 86.97 228.41 84.21 229.62 81.39 230.71 C 82.58 229.23 83.79 227.81 85.42 226.78 C 89.93 224.20 92.54 219.68 97.02 216.93 C 98.42 216.65 99.05 215.98 98.88 214.91 Z" fill="#ac4d5b" />
<path d="M 217.38 215.20 C 218.36 215.40 219.12 215.37 220.12 215.19 C 220.76 215.54 221.41 215.90 222.05 216.26 C 222.33 217.51 222.62 218.76 222.91 220.01 C 219.96 221.88 216.91 223.69 213.89 225.44 C 209.28 226.32 204.61 226.86 199.99 227.71 C 203.17 225.26 206.68 223.45 209.56 220.57 C 212.07 218.37 213.70 215.37 217.38 215.20 Z" fill="#2a2e3c" />
<path d="M 40.06 215.60 C 41.33 216.00 42.54 216.52 43.74 217.08 C 43.98 217.93 44.22 218.77 44.46 219.61 C 46.98 220.69 49.57 221.57 52.15 222.50 L 50.62 224.17 C 48.81 224.29 46.80 224.77 45.01 224.34 C 41.17 222.91 35.70 222.96 31.88 224.38 C 30.86 224.73 29.82 225.00 28.77 225.18 C 29.45 223.95 30.76 222.85 30.65 221.41 C 28.65 220.66 26.83 222.25 24.92 222.86 C 25.55 221.70 26.22 220.69 27.20 219.79 C 28.76 218.62 30.37 217.51 31.96 216.39 C 32.95 217.06 33.94 217.72 34.92 218.40 C 36.95 217.76 38.53 217.13 40.06 215.60 Z" fill="#ac4f5d" />
<path d="M 64.43 216.54 C 65.38 216.34 66.33 216.16 67.28 215.98 C 67.23 217.20 67.20 218.41 67.21 219.63 C 65.89 220.97 65.30 223.25 63.07 222.95 C 62.30 222.29 61.55 221.62 60.81 220.93 L 59.96 220.81 C 61.05 218.44 62.07 217.61 64.43 216.54 Z" fill="#ad4f5f" />
<path d="M 188.76 219.43 C 192.17 219.46 196.45 218.17 199.13 220.77 C 196.54 222.07 194.01 221.76 191.20 221.80 C 191.37 221.30 191.53 220.80 191.70 220.31 C 190.72 220.01 189.74 219.71 188.76 219.43 Z" fill="#535f70" />
<path d="M 67.21 219.63 C 67.02 221.33 67.91 223.06 65.96 223.90 C 63.66 224.33 61.93 224.78 59.98 226.11 C 60.14 224.35 60.40 222.64 60.81 220.93 C 61.55 221.62 62.30 222.29 63.07 222.95 C 65.30 223.25 65.89 220.97 67.21 219.63 Z" fill="#964852" />
<path d="M 116.04 220.11 C 117.44 221.65 118.64 223.17 119.33 225.17 C 116.83 224.90 115.47 224.08 113.35 225.81 C 111.95 225.14 110.66 225.46 109.17 225.43 L 108.26 224.45 C 111.12 223.41 113.52 221.75 116.04 220.11 Z" fill="#8c515e" />
<path d="M 116.04 220.11 C 117.25 220.21 118.33 220.78 119.47 221.22 C 120.43 221.54 121.43 221.76 122.46 221.86 C 121.39 224.34 121.00 225.50 122.44 227.98 C 121.58 230.02 121.66 231.29 122.06 233.46 C 121.63 234.21 120.99 234.76 120.13 235.09 C 120.05 232.16 120.83 229.48 121.52 226.67 C 119.05 226.55 116.64 226.56 114.18 226.70 L 113.35 225.81 C 115.47 224.08 116.83 224.90 119.33 225.17 C 118.64 223.17 117.44 221.65 116.04 220.11 Z" fill="#260711" />
</svg>