<?xml version="1.0" encoding="UTF-8" standalone="no"?>
<!DOCTYPE svg PUBLIC "-//W3C//DTD SVG 1.1//EN" "http://www.w3.org/Graphics/SVG/1.1/DTD/svg11.dtd">
<svg xmlns="http://www.w3.org/2000/svg" version="1.1" viewBox="0 0 256 256" width="256.0pt" height="256.0pt">
<path d="M 0.00 0.00 L 256.00 0.00 L 256.00 256.00 L 0.00 256.00 L 0.00 0.00 Z" fill="#fefefe" />
<path d="M 108.39 13.69 C 117.50 16.06 123.64 23.14 132.97 25.57 L 132.12 26.16 C 127.95 28.12 129.21 34.39 125.75 37.71 C 120.23 33.06 116.23 26.19 109.08 24.65 C 105.20 23.49 101.05 21.74 96.96 21.67 C 90.81 22.30 85.07 23.17 79.95 26.92 C 74.56 30.43 71.64 35.71 66.79 39.75 C 63.38 42.58 61.46 47.28 58.80 50.85 C 53.97 57.23 51.14 65.47 47.26 72.40 C 45.70 75.21 44.62 78.18 43.23 81.06 C 44.98 75.65 46.86 70.21 48.96 64.92 C 50.42 61.08 52.59 57.65 53.79 53.71 C 49.90 56.92 48.36 61.22 46.93 65.87 C 45.77 69.70 43.57 72.98 42.04 76.62 C 40.78 81.33 39.89 86.19 38.95 90.97 C 38.45 93.61 36.43 95.73 35.44 98.32 C 34.30 101.08 34.95 104.01 33.65 106.75 C 31.48 111.77 30.44 117.03 29.25 122.33 C 28.53 121.50 27.79 120.68 27.02 119.88 C 25.97 123.32 25.23 126.82 24.51 130.33 C 25.54 130.11 26.57 129.88 27.60 129.65 C 26.90 132.83 26.18 134.51 23.80 136.78 C 21.68 138.68 21.79 141.05 21.35 143.66 C 21.25 144.52 21.16 145.38 21.08 146.25 C 20.76 137.75 20.23 129.12 21.66 120.68 C 22.72 114.71 24.04 108.81 26.08 103.09 C 28.30 96.78 29.61 90.23 31.99 83.96 C 34.68 76.81 36.63 70.01 40.39 63.37 C 44.84 55.73 48.22 47.70 53.60 40.60 C 58.42 34.15 63.61 26.88 70.22 22.20 C 76.14 17.91 82.98 14.86 90.04 13.01 C 96.02 11.44 102.47 12.19 108.39 13.69 Z" fill="#f4f4f4" />
<path d="M 109.08 24.65 L 107.15 24.88 C 110.84 27.78 115.22 30.02 117.87 34.02 C 119.84 36.86 120.40 39.95 121.09 43.25 C 119.49 40.53 118.44 37.37 116.57 34.85 C 115.19 33.82 113.40 33.28 111.76 32.82 C 107.34 31.76 102.70 31.44 98.17 31.37 C 95.39 31.38 92.61 31.67 89.86 32.03 C 84.93 33.32 82.81 36.96 80.46 41.09 C 81.84 41.16 83.28 41.06 84.63 41.33 C 85.77 41.73 86.63 42.98 87.53 43.77 C 88.79 43.78 90.04 43.84 91.28 44.03 C 93.02 44.94 94.55 47.30 93.86 49.32 C 92.87 52.62 90.92 55.66 89.48 58.78 C 87.71 61.63 86.08 64.53 84.51 67.49 C 83.80 68.74 83.10 69.99 82.43 71.27 C 78.85 79.18 81.18 86.35 83.21 94.31 C 82.21 93.65 81.17 93.06 80.12 92.50 C 78.27 96.71 76.36 100.94 74.79 105.27 C 73.41 108.99 75.43 112.71 77.12 115.96 C 76.30 115.64 75.47 115.33 74.64 115.02 C 71.68 105.97 74.44 98.31 75.22 89.29 C 75.69 84.53 77.25 80.15 78.95 75.72 C 77.82 75.55 76.70 75.38 75.58 75.21 C 74.03 72.67 72.48 71.21 69.92 69.67 C 71.05 68.50 72.18 67.32 73.31 66.14 C 70.82 64.01 67.98 62.56 65.01 61.24 C 64.25 59.55 63.51 57.85 62.75 56.16 C 63.53 55.13 64.33 54.13 65.26 53.23 C 66.44 52.72 67.83 52.64 69.09 52.47 C 70.54 49.18 72.27 46.16 74.14 43.09 C 75.67 40.62 75.41 37.56 75.67 34.73 C 81.85 34.99 84.47 30.33 90.02 28.85 C 92.81 27.73 95.25 28.10 98.08 28.68 C 99.72 29.10 100.89 28.06 102.35 27.45 C 100.09 26.25 97.83 25.09 95.43 24.20 C 95.94 23.36 96.45 22.52 96.96 21.67 C 101.05 21.74 105.20 23.49 109.08 24.65 Z" fill="#505e70" />
<path d="M 96.96 21.67 C 96.45 22.52 95.94 23.36 95.43 24.20 C 87.91 24.20 81.12 27.54 75.77 32.67 C 67.76 40.29 62.49 50.03 58.12 60.03 C 56.21 63.27 54.43 66.54 53.34 70.17 C 51.54 76.04 49.37 81.67 48.05 87.68 C 47.41 90.11 46.65 92.51 46.01 94.94 C 44.11 101.77 42.07 108.15 41.57 115.28 C 41.19 122.85 39.27 129.97 40.07 137.62 C 39.79 141.41 39.57 145.19 39.59 149.00 C 39.61 156.53 38.99 163.94 40.25 171.41 C 41.17 177.94 42.31 184.29 44.81 190.43 C 44.68 188.73 44.31 186.82 44.70 185.15 C 45.41 183.46 46.73 181.98 47.80 180.50 L 47.69 181.34 C 47.23 183.98 46.88 186.57 47.09 189.25 C 48.37 188.02 49.51 186.75 50.32 185.16 C 52.58 180.92 54.94 176.80 59.18 174.24 C 61.39 172.99 63.62 171.87 65.60 170.26 C 67.47 170.99 69.36 171.63 71.24 172.33 C 71.82 173.38 72.40 174.39 73.13 175.33 C 75.57 178.61 78.92 180.19 82.54 181.82 C 80.12 178.99 77.56 176.51 74.02 175.16 C 75.21 175.04 76.46 174.83 77.65 175.03 C 83.88 179.02 89.95 183.22 96.37 186.91 C 97.56 187.66 98.73 188.45 99.91 189.22 C 99.57 190.08 99.22 190.93 98.85 191.77 C 98.28 192.67 97.71 193.55 97.13 194.44 C 100.28 196.36 101.59 196.83 105.33 196.04 L 106.87 195.84 C 106.74 194.96 106.58 194.08 106.37 193.21 C 104.96 191.95 103.57 190.64 102.36 189.18 C 107.78 187.83 112.51 188.91 117.80 190.25 C 121.29 190.96 124.51 190.63 128.13 190.75 C 132.04 190.98 135.42 188.41 138.67 186.56 C 142.63 184.65 145.63 181.64 149.18 179.14 C 153.78 175.58 159.32 175.52 163.38 170.99 C 158.74 169.21 154.11 170.31 149.33 169.22 C 147.15 167.87 144.99 166.47 142.84 165.07 C 140.85 162.87 139.00 160.53 137.13 158.23 C 138.43 158.81 139.72 159.41 141.02 159.99 C 140.83 158.37 140.64 156.74 140.45 155.12 C 141.57 155.91 142.70 156.67 143.81 157.46 C 143.58 159.03 142.86 161.49 144.11 162.77 C 145.80 164.17 147.95 165.09 149.90 166.09 C 150.44 165.11 150.99 164.13 151.54 163.15 C 149.84 160.73 148.49 158.57 148.70 155.51 C 147.11 154.77 145.52 154.07 143.96 153.29 L 146.09 153.14 C 149.33 152.92 152.57 152.84 155.82 152.81 C 156.66 153.27 157.50 153.72 158.34 154.17 C 156.02 154.77 153.70 155.35 151.41 156.05 C 154.53 156.58 157.65 156.89 160.81 156.58 C 163.09 155.29 165.28 153.98 167.82 153.24 C 168.53 154.50 169.22 155.77 169.93 157.04 C 170.40 158.07 171.34 158.36 172.77 157.90 C 173.76 157.61 174.77 157.40 175.79 157.27 C 178.27 158.71 180.40 160.77 182.75 162.42 C 183.67 163.05 184.61 163.65 185.58 164.21 L 186.94 164.70 C 188.66 165.12 191.13 165.25 191.70 167.32 C 192.50 170.15 192.47 173.28 192.67 176.22 C 193.46 176.59 194.26 176.97 195.05 177.35 C 196.00 183.09 192.63 187.39 190.16 192.14 C 189.07 193.86 189.98 195.20 190.39 196.95 C 186.21 199.16 182.37 201.94 178.20 204.18 C 174.61 206.28 170.78 208.00 167.34 210.31 C 162.60 213.74 157.24 216.35 151.78 218.43 C 149.63 218.90 147.49 219.38 145.31 219.73 C 143.16 219.99 141.01 220.15 138.86 220.38 C 141.84 223.51 145.12 226.30 148.89 228.43 L 150.15 228.70 C 145.90 228.64 140.70 228.39 136.97 226.22 C 135.86 224.13 135.46 221.70 134.40 219.57 C 132.73 218.77 130.78 218.40 128.97 218.05 C 115.37 216.18 102.35 208.88 93.12 198.81 C 91.50 197.10 88.88 196.84 86.75 196.02 C 83.96 195.03 81.76 193.01 79.50 191.18 C 81.58 191.20 83.67 191.26 85.75 191.26 C 81.62 187.47 77.28 183.68 72.62 180.53 C 71.24 179.48 69.91 178.36 68.63 177.19 C 70.74 177.99 72.80 178.90 74.93 179.64 C 72.73 177.66 70.26 175.57 67.49 174.44 C 64.28 173.57 60.18 174.39 57.86 176.88 C 56.67 178.47 55.89 180.40 54.89 182.12 C 54.20 183.33 53.52 184.54 52.84 185.75 C 53.67 186.94 54.52 188.13 55.36 189.32 C 52.37 194.07 50.75 198.42 51.03 204.14 C 52.56 204.34 54.09 204.53 55.63 204.72 C 56.39 203.30 57.15 201.88 58.01 200.52 C 57.69 203.22 56.58 206.17 56.99 208.87 C 57.52 212.35 57.78 215.78 57.74 219.30 C 54.99 221.66 52.80 224.47 50.93 227.56 C 46.57 227.33 42.16 226.34 38.01 224.98 C 34.86 222.98 32.51 220.24 30.24 217.32 C 31.05 217.30 31.86 217.28 32.66 217.27 C 28.97 214.34 27.21 211.18 26.18 206.59 C 23.86 200.23 23.77 193.62 24.86 186.99 C 25.78 183.45 25.85 180.47 25.38 176.86 C 24.79 172.16 26.88 167.97 26.64 163.38 C 26.12 159.85 25.06 156.41 24.56 152.87 C 25.72 152.79 26.89 152.72 28.05 152.65 C 28.13 150.06 28.62 147.83 27.04 145.56 C 26.66 144.83 26.27 144.10 25.86 143.39 C 26.27 142.33 26.63 141.25 26.93 140.14 C 27.77 139.96 28.61 139.79 29.45 139.62 C 29.59 136.77 30.06 134.42 31.10 131.77 C 32.26 128.85 32.18 125.88 32.11 122.79 C 30.79 126.01 29.44 129.21 27.89 132.33 C 28.07 128.94 28.56 125.65 29.25 122.33 C 30.44 117.03 31.48 111.77 33.65 106.75 C 34.95 104.01 34.30 101.08 35.44 98.32 C 36.43 95.73 38.45 93.61 38.95 90.97 C 39.89 86.19 40.78 81.33 42.04 76.62 C 43.57 72.98 45.77 69.70 46.93 65.87 C 48.36 61.22 49.90 56.92 53.79 53.71 C 52.59 57.65 50.42 61.08 48.96 64.92 C 46.86 70.21 44.98 75.65 43.23 81.06 C 44.62 78.18 45.70 75.21 47.26 72.40 C 51.14 65.47 53.97 57.23 58.80 50.85 C 61.46 47.28 63.38 42.58 66.79 39.75 C 71.64 35.71 74.56 30.43 79.95 26.92 C 85.07 23.17 90.81 22.30 96.96 21.67 Z" fill="#232542" />
<path d="M 95.43 24.20 C 97.83 25.09 100.09 26.25 102.35 27.45 C 100.89 28.06 99.72 29.10 98.08 28.68 C 95.25 28.10 92.81 27.73 90.02 28.85 C 84.47 30.33 81.85 34.99 75.67 34.73 L 75.77 32.67 C 81.12 27.54 87.91 24.20 95.43 24.20 Z" fill="#757887" />
<path d="M 107.15 24.88 L 109.08 24.65 C 116.23 26.19 120.23 33.06 125.75 37.71 C 129.21 34.39 127.95 28.12 132.12 26.16 L 131.33 27.82 C 129.69 30.59 130.37 33.17 130.71 36.14 C 131.38 35.66 132.05 35.18 132.73 34.70 C 135.39 37.81 139.49 39.92 141.58 43.41 C 141.82 46.60 140.33 49.97 137.32 51.35 C 134.93 52.19 131.99 51.33 129.63 50.74 C 126.59 48.78 122.82 46.54 121.09 43.25 C 120.40 39.95 119.84 36.86 117.87 34.02 C 115.22 30.02 110.84 27.78 107.15 24.88 Z" fill="#232542" />
<path d="M 144.95 37.09 C 149.00 41.37 150.69 46.45 153.73 51.31 C 155.00 53.41 156.87 54.83 159.06 55.87 C 164.79 58.65 170.52 60.31 175.64 64.39 C 179.16 67.15 181.82 70.95 185.41 73.55 C 188.50 75.83 192.48 75.28 195.78 73.79 C 199.83 71.93 202.41 67.60 205.49 64.49 C 209.87 59.96 216.06 56.77 222.50 57.65 C 229.82 58.80 236.79 62.96 240.40 69.58 C 243.54 75.48 247.11 81.96 245.91 88.89 C 244.51 97.25 240.16 105.23 234.48 111.47 C 231.42 114.94 228.32 118.06 226.24 122.28 C 223.69 127.49 223.06 133.60 224.96 139.13 C 228.07 147.81 232.40 156.58 234.42 165.60 C 236.01 173.46 237.35 181.38 238.72 189.29 C 239.91 197.03 241.27 204.75 238.24 212.27 C 236.15 217.37 233.53 222.68 229.71 226.71 C 227.22 229.39 224.11 230.31 220.76 231.43 C 221.03 232.05 221.30 232.67 221.57 233.28 C 218.37 234.40 215.29 235.45 211.88 235.75 C 206.18 236.27 200.78 235.78 195.10 237.09 C 186.36 238.96 179.60 244.10 170.87 245.84 C 161.89 247.82 152.86 246.93 143.98 244.97 C 138.31 243.57 132.91 241.57 127.07 240.82 C 119.00 239.54 111.09 240.08 102.98 240.04 C 94.36 240.00 86.33 237.95 77.84 237.20 C 69.43 236.42 62.16 239.30 53.69 237.33 C 46.92 236.02 41.31 232.54 36.36 227.86 C 36.91 226.90 37.46 225.94 38.01 224.98 C 42.16 226.34 46.57 227.33 50.93 227.56 C 57.62 227.85 64.13 227.85 70.57 225.72 C 66.84 222.33 62.38 220.98 57.74 219.30 C 57.78 215.78 57.52 212.35 56.99 208.87 C 56.58 206.17 57.69 203.22 58.01 200.52 C 57.15 201.88 56.39 203.30 55.63 204.72 C 54.09 204.53 52.56 204.34 51.03 204.14 C 50.75 198.42 52.37 194.07 55.36 189.32 C 56.33 187.86 57.35 186.43 58.35 184.98 C 57.20 184.02 56.06 183.05 54.89 182.12 C 55.89 180.40 56.67 178.47 57.86 176.88 C 60.18 174.39 64.28 173.57 67.49 174.44 C 70.26 175.57 72.73 177.66 74.93 179.64 C 72.80 178.90 70.74 177.99 68.63 177.19 C 69.91 178.36 71.24 179.48 72.62 180.53 C 71.61 181.19 70.60 181.85 69.59 182.52 L 67.99 183.64 C 68.09 184.76 68.23 185.87 68.40 186.99 C 67.27 190.29 64.96 192.84 64.11 196.26 C 63.04 200.11 61.38 203.86 63.12 207.79 C 64.58 211.38 65.30 215.23 68.10 217.89 C 71.92 221.57 76.80 224.66 82.07 225.69 C 86.38 226.56 90.12 228.83 94.45 229.66 C 98.53 230.59 102.66 229.71 106.25 227.64 C 107.87 228.39 109.20 229.41 111.08 228.98 C 116.24 227.95 121.25 226.72 126.57 226.80 C 131.42 228.10 135.13 231.28 139.95 233.02 C 147.67 236.09 155.47 235.89 163.77 236.39 C 170.15 236.46 176.24 236.72 180.93 231.69 C 179.45 230.49 178.02 229.27 176.51 228.11 C 175.48 227.30 174.46 226.49 173.43 225.68 C 174.24 225.22 175.06 224.77 175.87 224.31 C 174.16 223.53 172.45 222.79 170.79 221.92 C 174.34 221.17 177.89 220.44 181.48 219.91 C 187.39 219.29 192.58 216.93 198.30 215.54 C 196.60 216.70 194.95 217.92 193.21 219.01 C 190.52 220.06 187.68 220.78 184.91 221.72 L 183.52 222.82 C 184.02 223.86 184.80 224.21 185.85 223.85 C 187.90 223.41 189.94 222.90 191.98 222.43 C 193.32 223.46 194.65 224.51 195.98 225.56 C 196.74 224.65 197.50 223.74 198.26 222.83 C 204.35 223.06 209.02 226.74 215.18 226.33 C 216.52 226.38 217.86 226.42 219.20 226.44 C 219.39 225.58 219.59 224.72 219.78 223.86 C 217.01 220.34 217.42 215.39 214.23 212.42 C 211.68 213.76 209.15 215.14 206.55 216.37 C 208.28 214.34 210.03 212.34 212.01 210.53 C 212.72 209.88 213.42 209.22 214.11 208.55 C 215.44 206.74 216.48 204.77 217.44 202.74 C 218.38 201.64 219.48 200.53 220.21 199.26 C 219.81 198.47 219.39 197.69 218.94 196.92 C 220.16 196.81 221.38 196.68 222.59 196.55 C 223.08 195.14 223.56 193.73 224.01 192.31 C 224.58 190.42 225.07 188.51 225.37 186.56 C 225.79 183.37 225.89 180.77 223.73 178.16 L 223.44 177.72 L 222.35 177.15 C 222.81 174.78 223.55 172.10 223.22 169.69 C 222.77 167.26 221.22 164.91 219.98 162.80 L 219.97 162.31 C 220.08 160.74 220.19 159.17 220.29 157.59 C 219.14 156.81 217.99 156.03 216.81 155.29 C 215.45 154.42 214.09 153.56 212.72 152.71 C 214.22 151.05 215.75 149.44 217.18 147.72 C 213.28 148.07 210.76 149.00 207.53 151.18 L 206.98 151.51 C 205.98 148.78 204.49 145.83 204.28 142.90 C 204.90 140.47 206.43 138.26 207.07 135.83 C 207.32 134.19 207.05 132.44 206.94 130.79 C 210.16 128.18 213.02 125.10 215.85 122.09 C 213.31 121.59 210.79 120.92 208.24 120.52 C 207.42 120.40 206.60 120.31 205.78 120.23 C 206.59 120.10 207.39 119.96 208.20 119.81 C 209.35 119.59 210.50 119.35 211.64 119.08 C 213.37 119.75 215.05 120.50 216.74 121.26 C 221.36 116.17 224.92 110.76 227.21 104.25 C 230.64 98.84 233.58 93.35 235.42 87.17 C 235.90 85.13 236.15 83.06 236.23 80.97 C 236.03 79.79 235.82 78.62 235.60 77.45 C 232.68 75.86 229.80 74.19 226.76 72.84 C 226.92 71.58 227.08 70.32 227.25 69.06 C 226.49 69.92 225.74 70.79 224.99 71.65 C 224.14 69.01 223.12 67.63 221.04 65.82 C 218.05 71.27 216.20 77.32 212.96 82.61 C 211.87 83.51 210.77 84.41 209.67 85.30 C 213.40 79.35 217.04 73.87 219.24 67.12 C 219.79 65.44 219.65 63.84 219.63 62.09 C 218.54 63.68 217.55 65.32 216.54 66.96 C 216.22 66.15 215.91 65.34 215.59 64.54 C 214.73 66.08 213.84 67.61 212.93 69.14 C 213.81 69.28 214.69 69.43 215.56 69.59 C 213.80 74.80 211.30 78.90 207.95 83.22 C 207.34 82.54 206.74 81.86 206.14 81.18 C 205.44 84.13 205.17 87.68 202.41 89.54 C 200.06 91.26 197.58 92.96 194.97 94.25 C 191.46 95.53 188.69 94.11 185.71 92.35 C 181.99 90.28 180.26 86.79 177.28 83.72 C 170.59 76.49 164.58 68.82 160.31 59.89 C 160.37 62.44 160.71 64.96 160.92 67.50 C 161.10 70.00 159.24 72.73 159.91 75.15 C 160.58 77.82 161.80 80.37 162.80 82.93 L 163.17 83.70 C 164.30 85.86 165.33 88.07 166.43 90.25 C 168.41 97.99 173.32 103.26 177.43 109.96 C 178.17 110.40 178.94 110.78 179.72 111.15 C 179.93 112.00 180.12 112.86 180.32 113.71 L 180.85 114.88 C 181.77 116.99 182.88 118.96 184.16 120.88 C 183.92 123.56 183.50 126.53 184.01 129.19 C 185.09 134.74 188.54 139.82 189.35 145.46 C 189.88 149.27 189.47 153.38 189.21 157.22 C 186.10 158.01 184.59 159.97 182.75 162.42 C 180.40 160.77 178.27 158.71 175.79 157.27 C 174.77 157.40 173.76 157.61 172.77 157.90 C 172.66 156.11 171.00 155.56 169.93 157.04 C 169.22 155.77 168.53 154.50 167.82 153.24 C 165.28 153.98 163.09 155.29 160.81 156.58 C 161.63 155.66 162.46 154.75 163.29 153.84 C 161.51 149.61 160.49 145.15 158.96 140.82 C 163.38 142.65 167.52 144.78 171.14 147.97 C 173.48 149.80 175.96 151.38 178.50 152.90 C 178.08 149.44 177.22 146.23 175.37 143.24 C 172.76 140.52 170.22 137.88 167.03 135.82 L 166.98 137.76 C 166.30 137.24 165.62 136.74 164.91 136.26 C 168.05 134.44 171.16 135.30 174.73 134.71 C 176.13 133.84 177.21 132.38 178.31 131.18 C 175.34 128.40 173.11 127.30 169.04 127.29 C 166.49 129.24 164.47 131.89 162.09 134.06 C 159.96 132.79 157.90 131.93 155.51 131.32 C 155.01 132.31 154.53 133.32 154.08 134.33 C 153.80 133.27 153.49 132.23 153.18 131.18 C 154.92 127.60 157.09 124.27 158.90 120.71 C 163.26 121.98 166.63 120.48 170.31 118.24 C 169.02 116.10 167.95 113.58 166.20 111.77 C 163.23 110.60 159.88 108.02 157.37 111.27 C 155.76 118.08 153.88 124.65 150.66 130.91 C 148.82 130.52 147.03 129.98 145.27 129.34 C 145.30 122.82 144.94 116.93 147.95 110.85 C 149.47 108.76 151.62 107.25 153.00 105.00 C 154.56 103.38 152.55 100.70 150.90 99.99 C 149.22 100.50 146.45 101.17 146.24 103.24 C 144.10 110.95 144.57 119.01 142.73 126.84 C 142.18 131.18 142.84 135.53 142.11 139.88 C 141.13 142.05 140.10 144.19 139.09 146.34 L 138.60 145.91 C 136.57 144.03 134.58 142.12 132.43 140.38 C 127.96 135.66 123.29 131.55 119.70 126.06 C 120.04 125.00 120.38 123.95 120.73 122.90 C 122.24 124.27 123.73 125.65 125.30 126.94 C 126.69 128.11 128.10 129.26 129.48 130.45 C 132.14 134.87 135.62 138.58 140.26 140.94 C 138.26 138.46 135.54 136.37 133.90 133.65 C 132.00 129.97 130.73 126.27 128.00 123.03 C 124.79 119.49 124.12 115.31 121.83 111.21 C 120.00 107.90 118.43 104.64 117.87 100.85 C 124.47 103.17 130.92 105.47 137.90 106.30 C 135.85 102.04 134.31 97.56 132.32 93.27 C 131.03 90.72 129.56 88.29 128.10 85.84 L 127.68 85.10 C 129.16 82.80 130.48 80.42 132.76 78.83 C 135.54 76.90 138.41 75.17 140.96 72.93 C 138.99 71.78 137.63 70.15 135.16 70.76 C 130.70 71.03 128.76 76.61 125.56 79.39 C 124.89 77.34 124.09 75.36 122.91 73.55 C 126.55 71.92 130.20 69.53 134.07 68.86 C 136.60 68.40 139.21 68.27 141.78 68.02 C 141.31 66.73 140.82 65.44 140.32 64.15 C 136.64 64.50 133.54 67.16 130.03 68.60 C 131.32 65.74 132.81 63.61 135.00 61.37 C 135.45 62.40 135.91 63.42 136.39 64.43 C 136.85 60.92 138.16 58.10 139.76 54.99 C 136.94 54.76 134.13 54.62 131.34 54.08 C 130.78 52.95 130.24 51.84 129.63 50.74 C 131.99 51.33 134.93 52.19 137.32 51.35 C 140.33 49.97 141.82 46.60 141.58 43.41 C 139.49 39.92 135.39 37.81 132.73 34.70 C 132.05 35.18 131.38 35.66 130.71 36.14 C 130.37 33.17 129.69 30.59 131.33 27.82 C 136.45 30.07 141.19 32.85 144.95 37.09 Z" fill="#f2f2f2" />
<path d="M 98.17 31.37 C 100.61 32.92 102.60 34.94 104.44 37.15 C 105.27 37.19 106.10 37.23 106.92 37.27 C 106.06 38.38 105.27 39.53 104.46 40.68 C 106.70 42.32 109.00 43.75 111.50 44.95 C 113.18 43.57 114.81 42.14 116.54 40.81 C 116.34 44.65 116.64 48.42 117.06 52.23 C 116.19 51.06 115.32 49.90 114.44 48.75 C 112.69 49.61 110.88 50.59 109.00 51.11 C 106.31 49.35 104.79 46.09 102.18 44.34 C 98.88 43.60 95.44 44.50 92.92 41.66 C 91.02 39.03 90.62 35.13 89.86 32.03 C 92.61 31.67 95.39 31.38 98.17 31.37 Z" fill="#a5aeae" />
<path d="M 98.17 31.37 C 102.70 31.44 107.34 31.76 111.76 32.82 C 110.00 34.15 108.40 35.63 106.92 37.27 C 106.10 37.23 105.27 37.19 104.44 37.15 C 102.60 34.94 100.61 32.92 98.17 31.37 Z" fill="#838e93" />
<path d="M 89.86 32.03 C 90.62 35.13 91.02 39.03 92.92 41.66 C 95.44 44.50 98.88 43.60 102.18 44.34 C 104.79 46.09 106.31 49.35 109.00 51.11 C 110.88 50.59 112.69 49.61 114.44 48.75 C 115.32 49.90 116.19 51.06 117.06 52.23 C 117.16 53.43 117.28 54.63 117.41 55.83 C 116.52 54.78 115.57 53.67 114.48 52.83 C 111.98 53.32 109.65 54.54 107.17 55.16 C 104.23 55.88 101.13 56.19 98.13 56.64 C 98.44 55.33 98.75 54.02 99.04 52.71 C 97.34 53.29 95.54 53.87 94.02 54.84 C 92.20 56.12 90.99 58.44 89.87 60.31 L 89.48 58.78 C 90.92 55.66 92.87 52.62 93.86 49.32 C 94.55 47.30 93.02 44.94 91.28 44.03 C 90.04 43.84 88.79 43.78 87.53 43.77 C 86.63 42.98 85.77 41.73 84.63 41.33 C 83.28 41.06 81.84 41.16 80.46 41.09 C 82.81 36.96 84.93 33.32 89.86 32.03 Z" fill="#728285" />
<path d="M 75.77 32.67 L 75.67 34.73 C 75.41 37.56 75.67 40.62 74.14 43.09 C 72.27 46.16 70.54 49.18 69.09 52.47 C 67.83 52.64 66.44 52.72 65.26 53.23 C 64.33 54.13 63.53 55.13 62.75 56.16 C 61.12 58.05 59.39 59.87 57.54 61.55 L 58.12 60.03 C 62.49 50.03 67.76 40.29 75.77 32.67 Z" fill="#d2d5d4" />
<path d="M 111.76 32.82 C 113.40 33.28 115.19 33.82 116.57 34.85 C 118.44 37.37 119.49 40.53 121.09 43.25 C 122.82 46.54 126.59 48.78 129.63 50.74 C 130.24 51.84 130.78 52.95 131.34 54.08 C 132.55 56.51 133.91 58.87 135.00 61.37 C 132.81 63.61 131.32 65.74 130.03 68.60 C 127.16 69.56 124.38 69.63 121.39 69.99 C 120.29 65.20 118.29 60.70 117.41 55.83 C 117.28 54.63 117.16 53.43 117.06 52.23 C 116.64 48.42 116.34 44.65 116.54 40.81 C 114.81 42.14 113.18 43.57 111.50 44.95 C 109.00 43.75 106.70 42.32 104.46 40.68 C 105.27 39.53 106.06 38.38 106.92 37.27 C 108.40 35.63 110.00 34.15 111.76 32.82 Z" fill="#babec7" />
<path d="M 99.04 52.71 C 98.75 54.02 98.44 55.33 98.13 56.64 C 101.13 56.19 104.23 55.88 107.17 55.16 C 109.65 54.54 111.98 53.32 114.48 52.83 C 115.57 53.67 116.52 54.78 117.41 55.83 C 118.29 60.70 120.29 65.20 121.39 69.99 C 121.52 70.61 121.64 71.23 121.76 71.85 C 122.15 72.41 122.53 72.98 122.91 73.55 C 124.09 75.36 124.89 77.34 125.56 79.39 C 126.18 81.33 126.81 83.25 127.68 85.10 L 128.10 85.84 C 127.93 86.54 127.76 87.23 127.59 87.93 C 126.14 85.85 124.68 83.78 123.05 81.84 C 123.87 84.51 124.89 87.11 125.98 89.68 C 124.03 88.79 122.08 87.90 120.11 87.04 C 120.29 89.45 120.47 91.88 120.76 94.28 C 119.88 93.11 118.96 91.99 118.03 90.86 C 118.18 93.37 118.37 95.87 118.60 98.37 C 113.30 95.98 108.01 93.17 103.38 89.63 C 101.08 87.69 97.93 85.06 97.88 81.77 C 98.06 79.48 98.97 77.20 99.63 75.00 C 98.74 74.06 97.86 73.13 96.94 72.22 C 94.97 72.85 93.04 73.60 91.09 74.30 C 92.19 77.96 93.42 81.54 95.44 84.81 L 95.46 85.66 C 93.99 90.48 92.01 95.07 89.67 99.54 C 88.49 98.45 86.91 97.33 86.19 95.86 C 83.01 87.85 82.60 79.57 83.34 71.07 L 82.43 71.27 C 83.10 69.99 83.80 68.74 84.51 67.49 C 87.69 66.04 88.54 63.28 89.87 60.31 C 90.99 58.44 92.20 56.12 94.02 54.84 C 95.54 53.87 97.34 53.29 99.04 52.71 Z" fill="#556179" />
<path d="M 124.16 52.17 C 128.35 51.18 130.23 58.07 127.32 60.29 C 125.05 60.93 122.49 60.79 120.15 60.88 C 119.71 58.89 118.75 56.49 119.20 54.46 C 120.61 53.31 122.35 52.42 124.16 52.17 Z" fill="#ce6940" />
<path d="M 131.34 54.08 C 134.13 54.62 136.94 54.76 139.76 54.99 C 138.16 58.10 136.85 60.92 136.39 64.43 C 135.91 63.42 135.45 62.40 135.00 61.37 C 133.91 58.87 132.55 56.51 131.34 54.08 Z" fill="#211e3a" />
<path d="M 62.75 56.16 C 62.07 61.11 59.67 65.12 57.48 69.49 C 55.30 73.85 54.75 78.39 54.09 83.15 C 53.19 89.72 51.50 95.87 50.09 102.31 C 48.60 97.46 47.82 92.78 48.05 87.68 C 49.37 81.67 51.54 76.04 53.34 70.17 C 54.43 66.54 56.21 63.27 58.12 60.03 L 57.54 61.55 C 59.39 59.87 61.12 58.05 62.75 56.16 Z" fill="#5c677d" />
<path d="M 62.75 56.16 C 63.51 57.85 64.25 59.55 65.01 61.24 C 67.98 62.56 70.82 64.01 73.31 66.14 C 72.18 67.32 71.05 68.50 69.92 69.67 C 72.48 71.21 74.03 72.67 75.58 75.21 C 76.70 75.38 77.82 75.55 78.95 75.72 C 77.25 80.15 75.69 84.53 75.22 89.29 C 74.44 98.31 71.68 105.97 74.64 115.02 C 75.47 115.33 76.30 115.64 77.12 115.96 C 77.54 116.36 77.95 116.76 78.37 117.16 C 77.17 119.74 78.62 121.49 79.05 123.98 C 79.67 126.95 80.09 130.00 80.11 133.03 C 80.31 135.01 78.10 136.37 76.99 137.82 C 75.58 139.18 75.34 140.87 74.96 142.71 C 74.38 140.60 73.70 138.52 72.96 136.45 C 72.80 137.58 72.65 138.70 72.52 139.83 C 69.09 144.32 64.43 145.53 59.54 147.82 C 58.42 146.13 57.29 144.44 56.16 142.75 C 55.35 143.59 54.54 144.43 53.73 145.27 C 53.59 144.21 53.47 143.15 53.36 142.09 C 53.03 136.68 51.58 131.48 51.11 126.10 C 50.97 117.91 48.80 110.47 50.09 102.31 C 51.50 95.87 53.19 89.72 54.09 83.15 C 54.75 78.39 55.30 73.85 57.48 69.49 C 59.67 65.12 62.07 61.11 62.75 56.16 Z" fill="#454c66" />
<path d="M 89.48 58.78 L 89.87 60.31 C 88.54 63.28 87.69 66.04 84.51 67.49 C 86.08 64.53 87.71 61.63 89.48 58.78 Z" fill="#a6b2c4" />
<path d="M 114.19 58.81 C 116.38 61.99 117.64 65.54 118.80 69.19 C 120.08 73.26 121.66 77.22 122.85 81.31 C 118.46 74.97 115.23 66.44 114.19 58.81 Z" fill="#9fadb9" />
<path d="M 160.31 59.89 C 164.58 68.82 170.59 76.49 177.28 83.72 C 180.26 86.79 181.99 90.28 185.71 92.35 C 188.69 94.11 191.46 95.53 194.97 94.25 C 197.58 92.96 200.06 91.26 202.41 89.54 C 205.17 87.68 205.44 84.13 206.14 81.18 C 206.74 81.86 207.34 82.54 207.95 83.22 C 206.82 85.09 205.90 87.06 204.87 88.97 C 201.57 91.49 198.45 94.15 195.91 97.45 C 198.03 96.45 200.04 95.30 201.99 94.01 C 201.39 95.59 200.87 97.21 200.37 98.83 C 201.83 99.29 203.29 99.74 204.74 100.22 C 205.22 101.15 205.72 102.07 206.22 102.99 L 206.94 104.20 C 209.45 102.82 211.87 101.27 214.21 99.61 C 213.46 101.23 212.81 102.90 212.17 104.57 C 213.53 106.29 214.87 108.04 216.12 109.86 C 213.52 112.62 211.73 115.14 211.64 119.08 C 210.50 119.35 209.35 119.59 208.20 119.81 C 207.92 117.63 207.63 115.45 207.26 113.29 C 204.72 111.26 202.82 108.70 200.65 106.32 C 199.92 105.46 198.45 105.39 197.42 105.10 C 196.90 103.82 196.41 102.53 195.92 101.23 C 195.28 101.17 194.64 101.12 193.99 101.07 C 194.96 100.14 195.93 99.21 196.90 98.28 C 192.41 98.57 188.37 98.32 183.95 97.49 C 185.25 98.57 186.55 99.64 187.86 100.70 C 185.50 104.81 184.21 109.08 182.49 113.51 C 181.77 113.58 181.05 113.64 180.32 113.71 C 180.12 112.86 179.93 112.00 179.72 111.15 C 178.94 110.78 178.17 110.40 177.43 109.96 C 177.74 109.56 178.04 109.16 178.35 108.76 C 173.87 102.55 172.05 95.09 166.43 90.25 C 165.33 88.07 164.30 85.86 163.17 83.70 C 165.53 83.67 164.05 80.82 162.80 82.93 C 161.80 80.37 160.58 77.82 159.91 75.15 C 159.24 72.73 161.10 70.00 160.92 67.50 C 160.71 64.96 160.37 62.44 160.31 59.89 Z" fill="#4e5975" />
<path d="M 219.63 62.09 C 219.65 63.84 219.79 65.44 219.24 67.12 C 217.04 73.87 213.40 79.35 209.67 85.30 L 208.73 86.07 C 207.46 87.06 206.15 88.01 204.87 88.97 C 205.90 87.06 206.82 85.09 207.95 83.22 C 211.30 78.90 213.80 74.80 215.56 69.59 C 214.69 69.43 213.81 69.28 212.93 69.14 C 213.84 67.61 214.73 66.08 215.59 64.54 C 215.91 65.34 216.22 66.15 216.54 66.96 C 217.55 65.32 218.54 63.68 219.63 62.09 Z" fill="#6f7787" />
<path d="M 140.32 64.15 C 140.82 65.44 141.31 66.73 141.78 68.02 C 139.21 68.27 136.60 68.40 134.07 68.86 C 130.20 69.53 126.55 71.92 122.91 73.55 C 122.53 72.98 122.15 72.41 121.76 71.85 C 121.64 71.23 121.52 70.61 121.39 69.99 C 124.38 69.63 127.16 69.56 130.03 68.60 C 133.54 67.16 136.64 64.50 140.32 64.15 Z" fill="#14132f" />
<path d="M 221.04 65.82 C 223.12 67.63 224.14 69.01 224.99 71.65 C 225.74 70.79 226.49 69.92 227.25 69.06 C 227.08 70.32 226.92 71.58 226.76 72.84 C 226.61 74.04 226.51 75.23 226.56 76.44 C 227.31 77.10 228.05 77.75 228.81 78.39 C 228.99 79.82 229.16 81.26 229.33 82.69 C 230.13 81.94 230.94 81.18 231.74 80.43 C 232.96 82.68 234.19 84.93 235.42 87.17 C 233.58 93.35 230.64 98.84 227.21 104.25 C 227.47 102.13 227.66 100.00 227.82 97.87 C 224.08 102.05 220.10 105.93 216.12 109.86 C 214.87 108.04 213.53 106.29 212.17 104.57 C 212.81 102.90 213.46 101.23 214.21 99.61 C 217.79 95.44 221.02 91.27 222.34 85.81 C 219.70 88.76 217.74 92.18 215.21 95.20 C 212.57 98.32 209.46 100.56 206.22 102.99 C 205.72 102.07 205.22 101.15 204.74 100.22 C 210.88 96.02 215.68 91.44 219.09 84.73 C 217.06 83.98 215.04 83.22 212.96 82.61 C 216.20 77.32 218.05 71.27 221.04 65.82 Z" fill="#546079" />
<path d="M 82.43 71.27 L 83.34 71.07 C 82.60 79.57 83.01 87.85 86.19 95.86 C 86.91 97.33 88.49 98.45 89.67 99.54 C 92.01 95.07 93.99 90.48 95.46 85.66 C 95.59 88.70 95.31 91.47 94.57 94.43 C 93.11 96.43 91.19 100.86 88.23 100.56 C 85.95 99.52 84.58 96.33 83.21 94.31 C 81.18 86.35 78.85 79.18 82.43 71.27 Z" fill="#a4adbf" />
<path d="M 135.16 70.76 C 137.63 70.15 138.99 71.78 140.96 72.93 C 138.41 75.17 135.54 76.90 132.76 78.83 C 130.48 80.42 129.16 82.80 127.68 85.10 C 126.81 83.25 126.18 81.33 125.56 79.39 C 128.76 76.61 130.70 71.03 135.16 70.76 Z" fill="#506dbd" />
<path d="M 96.94 72.22 C 97.86 73.13 98.74 74.06 99.63 75.00 C 98.97 77.20 98.06 79.48 97.88 81.77 C 97.93 85.06 101.08 87.69 103.38 89.63 C 108.01 93.17 113.30 95.98 118.60 98.37 C 121.14 99.13 123.73 99.59 126.34 100.03 C 126.35 99.37 126.36 98.71 126.37 98.05 C 126.38 96.87 126.39 95.68 126.41 94.50 C 127.50 94.57 128.58 94.64 129.67 94.71 C 129.14 93.67 128.60 92.62 128.07 91.57 C 129.49 92.13 130.90 92.71 132.32 93.27 C 134.31 97.56 135.85 102.04 137.90 106.30 C 130.92 105.47 124.47 103.17 117.87 100.85 C 109.77 96.34 102.52 90.76 95.44 84.81 C 93.42 81.54 92.19 77.96 91.09 74.30 C 93.04 73.60 94.97 72.85 96.94 72.22 Z" fill="#b8bdc6" />
<path d="M 226.76 72.84 C 229.80 74.19 232.68 75.86 235.60 77.45 C 235.82 78.62 236.03 79.79 236.23 80.97 C 234.26 79.81 232.28 78.70 230.25 77.65 C 229.78 76.98 229.31 76.31 228.82 75.66 C 228.06 75.91 227.31 76.17 226.56 76.44 C 226.51 75.23 226.61 74.04 226.76 72.84 Z" fill="#bdc3ca" />
<path d="M 228.82 75.66 C 229.31 76.31 229.78 76.98 230.25 77.65 C 232.28 78.70 234.26 79.81 236.23 80.97 C 236.15 83.06 235.90 85.13 235.42 87.17 C 234.19 84.93 232.96 82.68 231.74 80.43 C 230.94 81.18 230.13 81.94 229.33 82.69 C 229.16 81.26 228.99 79.82 228.81 78.39 C 228.05 77.75 227.31 77.10 226.56 76.44 C 227.31 76.17 228.06 75.91 228.82 75.66 Z" fill="#85909e" />
<path d="M 123.05 81.84 C 124.68 83.78 126.14 85.85 127.59 87.93 C 127.76 87.23 127.93 86.54 128.10 85.84 C 129.56 88.29 131.03 90.72 132.32 93.27 C 130.90 92.71 129.49 92.13 128.07 91.57 C 128.60 92.62 129.14 93.67 129.67 94.71 C 128.58 94.64 127.50 94.57 126.41 94.50 C 126.39 95.68 126.38 96.87 126.37 98.05 C 125.41 97.15 124.45 96.25 123.49 95.35 C 123.03 96.27 122.57 97.19 122.11 98.11 C 121.66 96.84 121.20 95.56 120.76 94.28 C 120.47 91.88 120.29 89.45 120.11 87.04 C 122.08 87.90 124.03 88.79 125.98 89.68 C 124.89 87.11 123.87 84.51 123.05 81.84 Z" fill="#8a96a0" />
<path d="M 163.17 83.70 L 162.80 82.93 C 164.05 80.82 165.53 83.67 163.17 83.70 Z" fill="#010217" />
<path d="M 212.96 82.61 C 215.04 83.22 217.06 83.98 219.09 84.73 C 215.68 91.44 210.88 96.02 204.74 100.22 C 203.29 99.74 201.83 99.29 200.37 98.83 C 200.87 97.21 201.39 95.59 201.99 94.01 C 203.31 93.08 204.65 92.17 206.00 91.26 C 207.42 91.04 208.16 90.23 208.22 88.84 C 208.39 87.92 208.56 87.00 208.73 86.07 L 209.67 85.30 C 210.77 84.41 211.87 83.51 212.96 82.61 Z" fill="#848d9b" />
<path d="M 95.44 84.81 C 102.52 90.76 109.77 96.34 117.87 100.85 C 118.43 104.64 120.00 107.90 121.83 111.21 C 124.12 115.31 124.79 119.49 128.00 123.03 C 130.73 126.27 132.00 129.97 133.90 133.65 C 135.54 136.37 138.26 138.46 140.26 140.94 C 135.62 138.58 132.14 134.87 129.48 130.45 C 128.75 128.68 128.06 126.89 127.22 125.17 C 126.57 125.76 125.93 126.35 125.30 126.94 C 123.73 125.65 122.24 124.27 120.73 122.90 C 117.13 119.84 113.99 116.62 111.09 112.89 C 109.93 111.45 108.73 110.05 107.54 108.64 C 107.10 107.45 106.64 106.25 106.12 105.09 C 106.85 104.25 107.58 103.41 108.29 102.57 C 106.02 101.19 103.53 99.95 101.47 98.26 C 99.55 96.58 98.26 93.97 96.93 91.82 C 96.13 92.68 95.33 93.53 94.57 94.43 C 95.31 91.47 95.59 88.70 95.46 85.66 L 95.44 84.81 Z" fill="#5b5d93" />
<path d="M 208.73 86.07 C 208.56 87.00 208.39 87.92 208.22 88.84 C 206.88 89.03 206.14 89.83 206.00 91.26 C 204.65 92.17 203.31 93.08 201.99 94.01 C 200.04 95.30 198.03 96.45 195.91 97.45 C 198.45 94.15 201.57 91.49 204.87 88.97 C 206.15 88.01 207.46 87.06 208.73 86.07 Z" fill="#d6dae5" />
<path d="M 222.34 85.81 C 221.02 91.27 217.79 95.44 214.21 99.61 C 211.87 101.27 209.45 102.82 206.94 104.20 L 206.22 102.99 C 209.46 100.56 212.57 98.32 215.21 95.20 C 217.74 92.18 219.70 88.76 222.34 85.81 Z" fill="#c4ccd6" />
<path d="M 48.05 87.68 C 47.82 92.78 48.60 97.46 50.09 102.31 C 48.80 110.47 50.97 117.91 51.11 126.10 C 50.44 126.37 49.78 126.65 49.11 126.92 C 49.22 125.52 49.32 124.13 49.41 122.73 C 48.77 123.11 48.13 123.50 47.50 123.89 C 47.20 124.66 46.92 125.43 46.66 126.21 C 45.93 121.13 45.72 116.22 46.12 111.10 C 46.55 105.69 45.94 100.34 46.01 94.94 C 46.65 92.51 47.41 90.11 48.05 87.68 Z" fill="#788192" />
<path d="M 208.22 88.84 C 208.16 90.23 207.42 91.04 206.00 91.26 C 206.14 89.83 206.88 89.03 208.22 88.84 Z" fill="#3a3e52" />
<path d="M 166.43 90.25 C 172.05 95.09 173.87 102.55 178.35 108.76 C 178.04 109.16 177.74 109.56 177.43 109.96 C 173.32 103.26 168.41 97.99 166.43 90.25 Z" fill="#353b53" />
<path d="M 118.03 90.86 C 118.96 91.99 119.88 93.11 120.76 94.28 C 121.20 95.56 121.66 96.84 122.11 98.11 C 122.57 97.19 123.03 96.27 123.49 95.35 C 124.45 96.25 125.41 97.15 126.37 98.05 C 126.36 98.71 126.35 99.37 126.34 100.03 C 123.73 99.59 121.14 99.13 118.60 98.37 C 118.37 95.87 118.18 93.37 118.03 90.86 Z" fill="#d9dde0" />
<path d="M 80.12 92.50 C 81.17 93.06 82.21 93.65 83.21 94.31 C 84.58 96.33 85.95 99.52 88.23 100.56 C 91.19 100.86 93.11 96.43 94.57 94.43 C 95.33 93.53 96.13 92.68 96.93 91.82 C 98.26 93.97 99.55 96.58 101.47 98.26 C 103.53 99.95 106.02 101.19 108.29 102.57 C 107.58 103.41 106.85 104.25 106.12 105.09 C 105.20 103.96 104.20 102.90 103.19 101.86 C 103.41 105.06 103.71 108.27 104.27 111.42 L 103.53 110.12 C 101.42 106.46 99.82 102.58 97.66 98.95 C 94.45 101.09 93.18 104.36 91.47 107.67 C 90.40 109.73 89.94 111.68 89.83 113.98 C 89.26 115.39 88.91 116.86 88.29 118.25 C 86.58 118.56 84.90 118.96 83.20 119.25 C 83.07 120.55 82.95 121.85 82.83 123.16 C 81.67 120.91 80.23 118.89 78.37 117.16 C 77.95 116.76 77.54 116.36 77.12 115.96 C 75.43 112.71 73.41 108.99 74.79 105.27 C 76.36 100.94 78.27 96.71 80.12 92.50 Z" fill="#677189" />
<path d="M 46.01 94.94 C 45.94 100.34 46.55 105.69 46.12 111.10 C 45.72 116.22 45.93 121.13 46.66 126.21 C 47.49 132.66 48.82 139.05 49.89 145.47 C 50.54 148.94 51.32 152.38 52.20 155.80 C 51.70 158.03 51.19 160.39 50.16 162.44 C 49.06 164.45 46.45 165.70 44.74 167.06 C 43.99 163.56 43.31 160.04 42.73 156.52 C 41.64 150.11 42.19 143.87 40.07 137.62 C 39.27 129.97 41.19 122.85 41.57 115.28 C 42.07 108.15 44.11 101.77 46.01 94.94 Z" fill="#585e7d" />
<path d="M 183.95 97.49 C 188.37 98.32 192.41 98.57 196.90 98.28 C 195.93 99.21 194.96 100.14 193.99 101.07 C 191.95 100.90 189.91 100.77 187.86 100.70 C 186.55 99.64 185.25 98.57 183.95 97.49 Z" fill="#2b3450" />
<path d="M 227.82 97.87 C 227.66 100.00 227.47 102.13 227.21 104.25 C 224.92 110.76 221.36 116.17 216.74 121.26 C 215.05 120.50 213.37 119.75 211.64 119.08 C 211.73 115.14 213.52 112.62 216.12 109.86 C 220.10 105.93 224.08 102.05 227.82 97.87 Z" fill="#2b2d48" />
<path d="M 97.66 98.95 C 99.82 102.58 101.42 106.46 103.53 110.12 C 101.52 110.78 99.53 111.52 97.54 112.24 C 98.37 112.92 99.20 113.60 100.03 114.29 C 96.96 117.06 94.57 118.68 90.32 118.95 C 90.97 120.92 91.59 122.89 92.19 124.87 C 88.42 125.21 86.26 124.81 82.83 123.16 C 82.95 121.85 83.07 120.55 83.20 119.25 C 84.90 118.96 86.58 118.56 88.29 118.25 C 88.91 116.86 89.26 115.39 89.83 113.98 C 89.94 111.68 90.40 109.73 91.47 107.67 C 93.18 104.36 94.45 101.09 97.66 98.95 Z" fill="#898fa3" />
<path d="M 150.90 99.99 C 152.55 100.70 154.56 103.38 153.00 105.00 C 151.62 107.25 149.47 108.76 147.95 110.85 C 144.94 116.93 145.30 122.82 145.27 129.34 C 144.61 130.97 143.86 132.58 143.13 134.17 C 142.94 131.72 142.76 129.30 142.73 126.84 C 144.57 119.01 144.10 110.95 146.24 103.24 C 146.45 101.17 149.22 100.50 150.90 99.99 Z" fill="#373737" />
<path d="M 187.86 100.70 C 189.91 100.77 191.95 100.90 193.99 101.07 C 194.64 101.12 195.28 101.17 195.92 101.23 C 196.41 102.53 196.90 103.82 197.42 105.10 C 198.45 105.39 199.92 105.46 200.65 106.32 C 202.82 108.70 204.72 111.26 207.26 113.29 C 207.63 115.45 207.92 117.63 208.20 119.81 C 207.39 119.96 206.59 120.10 205.78 120.23 C 198.12 120.26 188.29 119.04 182.49 113.51 C 184.21 109.08 185.50 104.81 187.86 100.70 Z" fill="#3d4a6a" />
<path d="M 103.19 101.86 C 104.20 102.90 105.20 103.96 106.12 105.09 C 106.64 106.25 107.10 107.45 107.54 108.64 C 107.78 111.27 108.20 113.84 108.74 116.42 C 107.90 116.41 107.05 116.41 106.21 116.41 C 105.57 114.75 104.93 113.08 104.27 111.42 C 103.71 108.27 103.41 105.06 103.19 101.86 Z" fill="#8d90a8" />
<path d="M 149.21 102.27 C 151.01 101.07 152.13 103.82 150.03 104.26 C 148.89 103.96 148.61 103.30 149.21 102.27 Z" fill="#838381" />
<path d="M 55.08 105.16 C 57.77 105.77 60.37 106.78 63.01 107.56 C 62.14 110.36 61.12 113.03 59.88 115.68 C 61.24 118.06 63.62 121.01 63.54 123.84 C 62.16 127.53 58.03 130.38 55.15 132.92 C 52.13 124.08 52.27 114.04 55.08 105.16 Z" fill="#363b58" />
<path d="M 107.54 108.64 C 108.73 110.05 109.93 111.45 111.09 112.89 C 110.94 114.07 110.78 115.24 110.62 116.42 C 110.00 116.42 109.37 116.42 108.74 116.42 C 108.20 113.84 107.78 111.27 107.54 108.64 Z" fill="#e2e5ee" />
<path d="M 103.53 110.12 L 104.27 111.42 C 104.93 113.08 105.57 114.75 106.21 116.41 C 107.05 116.41 107.90 116.41 108.74 116.42 C 109.37 116.42 110.00 116.42 110.62 116.42 C 110.78 115.24 110.94 114.07 111.09 112.89 C 113.99 116.62 117.13 119.84 120.73 122.90 C 120.38 123.95 120.04 125.00 119.70 126.06 C 118.77 124.97 117.78 123.92 116.81 122.86 C 116.44 123.96 116.07 125.05 115.65 126.13 L 115.38 126.65 C 114.49 122.16 111.69 119.72 108.17 117.17 C 107.86 117.61 107.55 118.05 107.25 118.49 C 108.75 119.68 110.23 120.87 111.73 122.06 C 108.66 124.60 105.97 127.71 102.68 129.94 C 99.83 130.04 96.95 129.04 94.12 129.23 C 91.78 129.48 89.94 132.14 88.51 133.80 L 88.06 134.36 C 86.49 130.56 84.81 126.77 82.83 123.16 C 86.26 124.81 88.42 125.21 92.19 124.87 C 91.59 122.89 90.97 120.92 90.32 118.95 C 94.57 118.68 96.96 117.06 100.03 114.29 C 99.20 113.60 98.37 112.92 97.54 112.24 C 99.53 111.52 101.52 110.78 103.53 110.12 Z" fill="#a8acb7" />
<path d="M 166.20 111.77 C 167.95 113.58 169.02 116.10 170.31 118.24 C 166.63 120.48 163.26 121.98 158.90 120.71 C 157.09 124.27 154.92 127.60 153.18 131.18 C 152.34 131.12 151.50 131.03 150.66 130.91 C 153.88 124.65 155.76 118.08 157.37 111.27 C 159.88 108.02 163.23 110.60 166.20 111.77 Z" fill="#3e3c3c" />
<path d="M 182.49 113.51 C 188.29 119.04 198.12 120.26 205.78 120.23 C 206.60 120.31 207.42 120.40 208.24 120.52 C 204.11 124.46 199.99 129.64 198.76 135.34 C 198.87 138.00 199.32 140.56 199.83 143.17 C 200.84 143.08 201.82 142.90 202.76 142.63 C 203.44 139.12 204.18 135.63 204.92 132.14 C 205.60 131.70 206.28 131.25 206.94 130.79 C 207.05 132.44 207.32 134.19 207.07 135.83 C 206.43 138.26 204.90 140.47 204.28 142.90 C 204.49 145.83 205.98 148.78 206.98 151.51 C 201.17 155.46 196.22 156.89 189.21 157.22 C 189.47 153.38 189.88 149.27 189.35 145.46 C 188.54 139.82 185.09 134.74 184.01 129.19 C 183.50 126.53 183.92 123.56 184.16 120.88 C 185.71 122.44 187.42 123.80 189.24 125.04 C 187.17 121.07 184.19 117.81 180.85 114.88 L 180.32 113.71 C 181.05 113.64 181.77 113.58 182.49 113.51 Z" fill="#b5bac5" />
<path d="M 180.85 114.88 C 184.19 117.81 187.17 121.07 189.24 125.04 C 187.42 123.80 185.71 122.44 184.16 120.88 C 182.88 118.96 181.77 116.99 180.85 114.88 Z" fill="#2f3442" />
<path d="M 78.37 117.16 C 80.23 118.89 81.67 120.91 82.83 123.16 C 84.81 126.77 86.49 130.56 88.06 134.36 C 88.36 136.60 88.97 138.59 87.71 140.67 C 85.27 145.01 81.32 148.83 77.75 152.26 C 76.64 149.14 75.83 145.90 74.96 142.71 C 75.34 140.87 75.58 139.18 76.99 137.82 C 78.10 136.37 80.31 135.01 80.11 133.03 C 80.09 130.00 79.67 126.95 79.05 123.98 C 78.62 121.49 77.17 119.74 78.37 117.16 Z" fill="#595e7c" />
<path d="M 108.17 117.17 C 111.69 119.72 114.49 122.16 115.38 126.65 C 112.93 128.63 110.41 130.51 108.01 132.56 C 107.19 131.31 106.36 130.07 105.52 128.82 C 104.40 132.49 103.67 136.23 103.14 140.03 C 104.79 139.18 106.43 138.30 108.08 137.44 C 109.81 139.79 111.61 141.60 113.97 143.33 C 113.50 140.62 112.91 137.96 112.17 135.32 C 113.78 136.74 115.39 138.90 117.67 139.01 C 120.90 139.32 124.03 139.74 127.18 140.57 C 124.98 138.86 122.75 137.22 120.43 135.67 C 121.05 134.66 121.67 133.65 122.29 132.65 C 125.38 135.64 128.52 138.47 132.43 140.38 C 134.58 142.12 136.57 144.03 138.60 145.91 C 136.63 147.44 134.73 149.06 132.73 150.55 C 129.32 151.15 125.60 151.78 122.14 151.40 C 118.93 151.05 115.70 150.16 112.55 149.45 C 110.15 146.48 108.39 143.27 106.43 140.02 C 106.54 141.22 106.65 142.43 106.76 143.64 C 103.85 141.24 100.81 139.28 97.22 138.06 C 94.16 136.94 91.35 135.37 88.51 133.80 C 89.94 132.14 91.78 129.48 94.12 129.23 C 96.95 129.04 99.83 130.04 102.68 129.94 C 105.97 127.71 108.66 124.60 111.73 122.06 C 110.23 120.87 108.75 119.68 107.25 118.49 C 107.55 118.05 107.86 117.61 108.17 117.17 Z" fill="#caccd1" />
<path d="M 70.56 117.35 C 71.91 123.06 72.47 128.89 71.36 134.70 C 69.40 129.75 67.36 122.19 70.56 117.35 Z" fill="#656c88" />
<path d="M 121.21 118.66 C 123.53 120.27 124.34 121.62 125.24 124.27 C 123.54 122.58 122.23 120.85 121.21 118.66 Z" fill="#2f2e63" />
<path d="M 27.02 119.88 C 27.79 120.68 28.53 121.50 29.25 122.33 C 28.56 125.65 28.07 128.94 27.89 132.33 C 27.57 134.93 27.27 137.54 26.93 140.14 C 26.63 141.25 26.27 142.33 25.86 143.39 C 25.57 144.04 25.28 144.70 24.99 145.35 C 23.77 144.79 22.56 144.22 21.35 143.66 C 21.79 141.05 21.68 138.68 23.80 136.78 C 26.18 134.51 26.90 132.83 27.60 129.65 C 26.57 129.88 25.54 130.11 24.51 130.33 C 25.23 126.82 25.97 123.32 27.02 119.88 Z" fill="#c7cbd2" />
<path d="M 208.24 120.52 C 210.79 120.92 213.31 121.59 215.85 122.09 C 213.02 125.10 210.16 128.18 206.94 130.79 C 206.28 131.25 205.60 131.70 204.92 132.14 C 202.95 133.36 200.87 134.37 198.76 135.34 C 199.99 129.64 204.11 124.46 208.24 120.52 Z" fill="#2a2c47" />
<path d="M 32.11 122.79 C 32.18 125.88 32.26 128.85 31.10 131.77 C 30.06 134.42 29.59 136.77 29.45 139.62 C 28.61 139.79 27.77 139.96 26.93 140.14 C 27.27 137.54 27.57 134.93 27.89 132.33 C 29.44 129.21 30.79 126.01 32.11 122.79 Z" fill="#686a81" />
<path d="M 47.50 123.89 C 48.13 123.50 48.77 123.11 49.41 122.73 C 49.32 124.13 49.22 125.52 49.11 126.92 C 49.78 126.65 50.44 126.37 51.11 126.10 C 51.58 131.48 53.03 136.68 53.36 142.09 C 52.19 143.20 51.04 144.34 49.89 145.47 C 48.82 139.05 47.49 132.66 46.66 126.21 C 46.92 125.43 47.20 124.66 47.50 123.89 Z" fill="#a2a7b2" />
<path d="M 116.81 122.86 C 117.78 123.92 118.77 124.97 119.70 126.06 C 123.29 131.55 127.96 135.66 132.43 140.38 C 128.52 138.47 125.38 135.64 122.29 132.65 C 120.06 130.48 117.86 128.30 115.65 126.13 C 116.07 125.05 116.44 123.96 116.81 122.86 Z" fill="#7f7f95" />
<path d="M 127.22 125.17 C 128.06 126.89 128.75 128.68 129.48 130.45 C 128.10 129.26 126.69 128.11 125.30 126.94 C 125.93 126.35 126.57 125.76 127.22 125.17 Z" fill="#32345a" />
<path d="M 115.38 126.65 L 115.65 126.13 C 117.86 128.30 120.06 130.48 122.29 132.65 C 121.67 133.65 121.05 134.66 120.43 135.67 C 122.75 137.22 124.98 138.86 127.18 140.57 C 124.03 139.74 120.90 139.32 117.67 139.01 C 115.39 138.90 113.78 136.74 112.17 135.32 C 112.91 137.96 113.50 140.62 113.97 143.33 C 111.61 141.60 109.81 139.79 108.08 137.44 C 106.43 138.30 104.79 139.18 103.14 140.03 C 103.67 136.23 104.40 132.49 105.52 128.82 C 106.36 130.07 107.19 131.31 108.01 132.56 C 110.41 130.51 112.93 128.63 115.38 126.65 Z" fill="#efeee9" />
<path d="M 142.73 126.84 C 142.76 129.30 142.94 131.72 143.13 134.17 C 143.86 132.58 144.61 130.97 145.27 129.34 C 147.03 129.98 148.82 130.52 150.66 130.91 C 151.50 131.03 152.34 131.12 153.18 131.18 C 153.49 132.23 153.80 133.27 154.08 134.33 C 154.55 136.38 155.06 138.42 155.77 140.40 L 156.29 141.52 C 157.11 141.09 157.91 140.63 158.70 140.15 L 158.96 140.82 C 160.49 145.15 161.51 149.61 163.29 153.84 C 162.46 154.75 161.63 155.66 160.81 156.58 C 157.65 156.89 154.53 156.58 151.41 156.05 C 153.70 155.35 156.02 154.77 158.34 154.17 C 157.50 153.72 156.66 153.27 155.82 152.81 C 156.54 152.30 157.24 151.78 157.94 151.24 C 155.41 150.43 152.87 149.66 150.34 148.84 C 148.18 145.17 145.53 142.39 142.11 139.88 C 142.84 135.53 142.18 131.18 142.73 126.84 Z" fill="#3b3f59" />
<path d="M 169.04 127.29 C 173.11 127.30 175.34 128.40 178.31 131.18 C 177.21 132.38 176.13 133.84 174.73 134.71 C 171.16 135.30 168.05 134.44 164.91 136.26 C 162.79 137.46 160.81 138.91 158.70 140.15 C 157.91 140.63 157.11 141.09 156.29 141.52 L 155.77 140.40 C 157.88 138.30 159.98 136.17 162.09 134.06 C 164.47 131.89 166.49 129.24 169.04 127.29 Z" fill="#403d3e" />
<path d="M 155.51 131.32 C 157.90 131.93 159.96 132.79 162.09 134.06 C 159.98 136.17 157.88 138.30 155.77 140.40 C 155.06 138.42 154.55 136.38 154.08 134.33 C 154.53 133.32 155.01 132.31 155.51 131.32 Z" fill="#6c6e7d" />
<path d="M 204.92 132.14 C 204.18 135.63 203.44 139.12 202.76 142.63 C 201.82 142.90 200.84 143.08 199.83 143.17 C 199.32 140.56 198.87 138.00 198.76 135.34 C 200.87 134.37 202.95 133.36 204.92 132.14 Z" fill="#888c9b" />
<path d="M 88.06 134.36 L 88.51 133.80 C 91.35 135.37 94.16 136.94 97.22 138.06 C 97.66 141.20 98.30 144.30 98.92 147.40 C 96.62 147.83 94.03 148.04 91.92 149.07 C 90.48 149.96 89.19 151.06 87.75 151.95 C 85.55 152.42 83.15 152.19 80.90 152.17 C 80.93 153.85 80.95 155.52 80.96 157.20 C 79.78 155.63 78.69 153.99 77.75 152.26 C 81.32 148.83 85.27 145.01 87.71 140.67 C 88.97 138.59 88.36 136.60 88.06 134.36 Z" fill="#767991" />
<path d="M 164.91 136.26 C 165.62 136.74 166.30 137.24 166.98 137.76 C 168.68 139.46 170.38 141.16 172.04 142.89 C 171.68 144.57 171.41 146.27 171.14 147.97 C 167.52 144.78 163.38 142.65 158.96 140.82 L 158.70 140.15 C 160.81 138.91 162.79 137.46 164.91 136.26 Z" fill="#5f6570" />
<path d="M 167.03 135.82 C 170.22 137.88 172.76 140.52 175.37 143.24 C 174.26 143.12 173.15 142.99 172.04 142.89 C 170.38 141.16 168.68 139.46 166.98 137.76 L 167.03 135.82 Z" fill="#474a53" />
<path d="M 72.96 136.45 C 73.70 138.52 74.38 140.60 74.96 142.71 C 73.80 146.49 75.31 149.46 75.82 153.21 C 76.27 156.53 77.30 159.44 78.84 162.40 C 76.16 164.11 73.76 165.74 70.42 165.61 C 66.33 165.81 63.00 164.19 59.70 161.94 C 58.17 159.21 57.08 156.36 55.98 153.43 C 57.56 154.38 59.06 155.44 60.59 156.47 C 64.70 154.47 67.78 151.88 72.58 152.10 C 73.53 147.91 73.25 144.02 72.52 139.83 C 72.65 138.70 72.80 137.58 72.96 136.45 Z" fill="#747891" />
<path d="M 40.07 137.62 C 42.19 143.87 41.64 150.11 42.73 156.52 C 43.31 160.04 43.99 163.56 44.74 167.06 C 45.18 168.99 45.63 170.90 46.17 172.80 C 45.36 174.00 44.54 175.21 43.73 176.41 C 42.89 173.95 42.04 171.50 41.13 169.07 C 40.82 169.84 40.53 170.62 40.25 171.41 C 38.99 163.94 39.61 156.53 39.59 149.00 C 39.57 145.19 39.79 141.41 40.07 137.62 Z" fill="#c5c8cd" />
<path d="M 97.22 138.06 C 100.81 139.28 103.85 141.24 106.76 143.64 C 106.65 142.43 106.54 141.22 106.43 140.02 C 108.39 143.27 110.15 146.48 112.55 149.45 C 114.02 151.18 115.65 152.68 117.31 154.22 C 116.99 155.48 116.68 156.74 116.36 158.00 C 117.96 158.29 119.68 158.45 121.21 159.05 C 121.92 160.17 121.78 161.87 121.73 163.14 C 118.95 162.55 116.17 161.95 113.38 161.40 C 110.70 157.86 107.73 154.89 104.12 152.29 C 104.09 153.56 104.10 154.83 104.09 156.10 C 103.24 156.18 102.40 156.26 101.55 156.35 C 101.78 157.12 102.02 157.89 102.27 158.65 C 100.80 158.62 99.32 158.62 97.85 158.59 C 97.23 160.11 96.61 161.63 95.98 163.15 C 94.16 162.13 92.53 161.01 90.92 159.68 C 89.82 161.53 88.68 163.35 87.49 165.13 C 86.37 163.86 85.26 162.58 84.19 161.27 C 83.09 159.93 81.99 158.59 80.96 157.20 C 80.95 155.52 80.93 153.85 80.90 152.17 C 83.15 152.19 85.55 152.42 87.75 151.95 C 89.19 151.06 90.48 149.96 91.92 149.07 C 94.03 148.04 96.62 147.83 98.92 147.40 C 98.30 144.30 97.66 141.20 97.22 138.06 Z" fill="#8d91a5" />
<path d="M 72.52 139.83 C 73.25 144.02 73.53 147.91 72.58 152.10 C 67.78 151.88 64.70 154.47 60.59 156.47 C 59.06 155.44 57.56 154.38 55.98 153.43 C 55.03 150.77 54.26 148.05 53.73 145.27 C 54.54 144.43 55.35 143.59 56.16 142.75 C 57.29 144.44 58.42 146.13 59.54 147.82 C 64.43 145.53 69.09 144.32 72.52 139.83 Z" fill="#595d7c" />
<path d="M 142.11 139.88 C 145.53 142.39 148.18 145.17 150.34 148.84 C 149.38 149.71 148.41 150.57 147.44 151.43 C 146.40 150.58 145.38 149.74 144.30 148.96 C 143.42 148.85 142.55 148.75 141.67 148.67 C 140.82 147.88 139.96 147.11 139.09 146.34 C 140.10 144.19 141.13 142.05 142.11 139.88 Z" fill="#7f8299" />
<path d="M 53.36 142.09 C 53.47 143.15 53.59 144.21 53.73 145.27 C 54.26 148.05 55.03 150.77 55.98 153.43 C 57.08 156.36 58.17 159.21 59.70 161.94 L 60.04 162.53 C 57.94 164.08 56.47 165.66 55.14 167.89 C 54.44 163.79 53.35 159.79 52.20 155.80 C 51.32 152.38 50.54 148.94 49.89 145.47 C 51.04 144.34 52.19 143.20 53.36 142.09 Z" fill="#caccd3" />
<path d="M 25.86 143.39 C 26.27 144.10 26.66 144.83 27.04 145.56 C 26.05 147.98 25.02 150.27 24.56 152.87 C 25.06 156.41 26.12 159.85 26.64 163.38 C 26.88 167.97 24.79 172.16 25.38 176.86 C 25.85 180.47 25.78 183.45 24.86 186.99 C 24.40 183.63 23.62 180.35 23.09 177.00 C 21.97 170.37 22.11 164.02 21.57 157.15 C 21.26 153.52 21.01 149.89 21.08 146.25 C 21.16 145.38 21.25 144.52 21.35 143.66 C 22.56 144.22 23.77 144.79 24.99 145.35 C 25.28 144.70 25.57 144.04 25.86 143.39 Z" fill="#b2b3c4" />
<path d="M 74.96 142.71 C 75.83 145.90 76.64 149.14 77.75 152.26 C 78.69 153.99 79.78 155.63 80.96 157.20 C 81.99 158.59 83.09 159.93 84.19 161.27 C 83.65 161.41 83.11 161.54 82.57 161.68 C 81.78 161.88 81.00 162.08 80.22 162.30 C 80.31 163.89 80.52 165.48 80.71 167.06 C 77.89 168.57 75.16 169.85 71.89 169.79 C 71.36 169.74 70.83 169.69 70.30 169.64 C 70.58 170.55 70.89 171.45 71.24 172.33 C 69.36 171.63 67.47 170.99 65.60 170.26 C 63.25 168.03 61.59 165.35 60.04 162.53 L 59.70 161.94 C 63.00 164.19 66.33 165.81 70.42 165.61 C 73.76 165.74 76.16 164.11 78.84 162.40 C 77.30 159.44 76.27 156.53 75.82 153.21 C 75.31 149.46 73.80 146.49 74.96 142.71 Z" fill="#b2b6c4" />
<path d="M 172.04 142.89 C 173.15 142.99 174.26 143.12 175.37 143.24 C 177.22 146.23 178.08 149.44 178.50 152.90 C 175.96 151.38 173.48 149.80 171.14 147.97 C 171.41 146.27 171.68 144.57 172.04 142.89 Z" fill="#777a83" />
<path d="M 128.12 144.38 C 129.30 143.68 130.68 145.33 129.77 146.37 C 128.56 147.08 127.26 145.44 128.12 144.38 Z" fill="#5e5d6b" />
<path d="M 27.04 145.56 C 28.62 147.83 28.13 150.06 28.05 152.65 C 26.89 152.72 25.72 152.79 24.56 152.87 C 25.02 150.27 26.05 147.98 27.04 145.56 Z" fill="#777a91" />
<path d="M 138.60 145.91 L 139.09 146.34 C 139.96 147.11 140.82 147.88 141.67 148.67 C 143.18 150.12 144.64 151.62 146.09 153.14 L 143.96 153.29 C 145.52 154.07 147.11 154.77 148.70 155.51 C 148.49 158.57 149.84 160.73 151.54 163.15 C 150.99 164.13 150.44 165.11 149.90 166.09 C 147.95 165.09 145.80 164.17 144.11 162.77 C 142.86 161.49 143.58 159.03 143.81 157.46 C 142.70 156.67 141.57 155.91 140.45 155.12 C 140.64 156.74 140.83 158.37 141.02 159.99 C 139.72 159.41 138.43 158.81 137.13 158.23 C 139.00 160.53 140.85 162.87 142.84 165.07 C 139.35 167.37 135.79 169.49 132.07 171.38 C 131.14 170.87 130.22 170.35 129.30 169.84 C 130.08 166.66 130.88 163.49 131.74 160.33 C 130.41 160.73 129.08 161.14 127.75 161.54 C 127.21 159.41 126.69 157.26 126.18 155.12 C 129.12 154.09 131.54 153.80 132.73 150.55 C 134.73 149.06 136.63 147.44 138.60 145.91 Z" fill="#989fb6" />
<path d="M 144.30 148.96 C 145.38 149.74 146.40 150.58 147.44 151.43 C 148.41 150.57 149.38 149.71 150.34 148.84 C 152.87 149.66 155.41 150.43 157.94 151.24 C 157.24 151.78 156.54 152.30 155.82 152.81 C 152.57 152.84 149.33 152.92 146.09 153.14 C 144.64 151.62 143.18 150.12 141.67 148.67 C 142.55 148.75 143.42 148.85 144.30 148.96 Z" fill="#71748d" />
<path d="M 217.18 147.72 C 215.75 149.44 214.22 151.05 212.72 152.71 C 214.09 153.56 215.45 154.42 216.81 155.29 C 216.23 156.21 215.68 157.16 215.14 158.10 C 216.74 159.51 218.35 160.92 219.97 162.31 L 219.98 162.80 C 217.10 163.84 214.23 164.88 211.39 166.05 C 210.99 165.56 210.58 165.08 210.16 164.60 C 211.81 161.55 212.96 158.33 214.15 155.09 C 211.43 156.64 208.72 158.00 205.63 158.60 C 207.70 156.25 209.94 154.08 212.24 151.97 C 210.68 151.70 209.11 151.40 207.53 151.18 C 210.76 149.00 213.28 148.07 217.18 147.72 Z" fill="#989eab" />
<path d="M 112.55 149.45 C 115.70 150.16 118.93 151.05 122.14 151.40 C 125.60 151.78 129.32 151.15 132.73 150.55 C 131.54 153.80 129.12 154.09 126.18 155.12 C 126.69 157.26 127.21 159.41 127.75 161.54 C 129.08 161.14 130.41 160.73 131.74 160.33 C 130.88 163.49 130.08 166.66 129.30 169.84 C 130.22 170.35 131.14 170.87 132.07 171.38 C 126.81 174.60 121.78 174.70 115.80 174.03 C 116.13 172.43 116.43 170.82 116.77 169.22 C 118.18 169.97 119.59 170.72 121.01 171.47 C 121.09 170.77 121.17 170.07 121.25 169.37 C 120.32 168.73 119.38 168.10 118.44 167.48 C 121.10 167.17 123.63 166.65 126.16 165.78 C 124.31 165.59 122.46 165.42 120.60 165.28 C 120.99 164.58 121.36 163.86 121.73 163.14 C 121.78 161.87 121.92 160.17 121.21 159.05 C 119.68 158.45 117.96 158.29 116.36 158.00 C 116.68 156.74 116.99 155.48 117.31 154.22 C 115.65 152.68 114.02 151.18 112.55 149.45 Z" fill="#aab0c1" />
<path d="M 136.92 150.04 C 138.39 150.89 139.83 151.78 141.26 152.69 C 140.35 153.51 139.43 154.33 138.52 155.15 C 137.94 153.46 137.43 151.75 136.92 150.04 Z" fill="#6e7389" />
<path d="M 206.98 151.51 L 207.53 151.18 C 209.11 151.40 210.68 151.70 212.24 151.97 C 209.94 154.08 207.70 156.25 205.63 158.60 C 208.72 158.00 211.43 156.64 214.15 155.09 C 212.96 158.33 211.81 161.55 210.16 164.60 C 209.15 164.71 208.14 164.86 207.13 165.03 C 202.36 165.98 197.59 166.27 192.73 166.24 C 192.76 167.14 192.79 168.03 192.84 168.93 C 193.13 171.55 194.01 173.97 194.92 176.42 L 195.05 177.35 C 194.26 176.97 193.46 176.59 192.67 176.22 C 192.47 173.28 192.50 170.15 191.70 167.32 C 191.13 165.25 188.66 165.12 186.94 164.70 C 187.40 163.72 186.99 161.48 185.52 162.05 C 185.13 162.63 185.15 163.35 185.58 164.21 C 184.61 163.65 183.67 163.05 182.75 162.42 C 184.59 159.97 186.10 158.01 189.21 157.22 C 196.22 156.89 201.17 155.46 206.98 151.51 Z" fill="#6c768c" />
<path d="M 217.87 151.55 C 219.36 151.46 220.85 151.43 222.34 151.39 C 221.47 152.34 220.58 153.29 219.69 154.22 C 219.07 153.34 218.46 152.46 217.87 151.55 Z" fill="#cdcecf" />
<path d="M 104.12 152.29 C 107.73 154.89 110.70 157.86 113.38 161.40 C 109.48 163.28 106.27 162.46 102.27 161.50 C 102.12 162.56 101.97 163.62 101.84 164.68 C 97.69 164.85 94.13 166.47 90.62 168.61 C 89.57 167.45 88.51 166.31 87.49 165.13 C 88.68 163.35 89.82 161.53 90.92 159.68 C 92.53 161.01 94.16 162.13 95.98 163.15 C 96.61 161.63 97.23 160.11 97.85 158.59 C 99.32 158.62 100.80 158.62 102.27 158.65 C 102.02 157.89 101.78 157.12 101.55 156.35 C 102.40 156.26 103.24 156.18 104.09 156.10 C 104.10 154.83 104.09 153.56 104.12 152.29 Z" fill="#b1b3c1" />
<path d="M 216.81 155.29 C 217.99 156.03 219.14 156.81 220.29 157.59 C 220.19 159.17 220.08 160.74 219.97 162.31 C 218.35 160.92 216.74 159.51 215.14 158.10 C 215.68 157.16 216.23 156.21 216.81 155.29 Z" fill="#cdcfd3" />
<path d="M 52.20 155.80 C 53.35 159.79 54.44 163.79 55.14 167.89 C 52.76 171.72 50.23 175.41 48.24 179.46 C 47.56 177.24 46.81 175.04 46.17 172.80 C 45.63 170.90 45.18 168.99 44.74 167.06 C 46.45 165.70 49.06 164.45 50.16 162.44 C 51.19 160.39 51.70 158.03 52.20 155.80 Z" fill="#757a94" />
<path d="M 166.21 156.19 L 166.74 156.19 L 166.73 156.71 L 166.21 156.71 L 166.21 156.19 Z" fill="#b8b9d0" />
<path d="M 172.77 157.90 C 171.34 158.36 170.40 158.07 169.93 157.04 C 171.00 155.56 172.66 156.11 172.77 157.90 Z" fill="#e6e8ee" />
<path d="M 80.22 162.30 C 81.00 162.08 81.78 161.88 82.57 161.68 C 83.11 161.54 83.65 161.41 84.19 161.27 C 85.26 162.58 86.37 163.86 87.49 165.13 C 88.51 166.31 89.57 167.45 90.62 168.61 C 94.13 166.47 97.69 164.85 101.84 164.68 C 103.20 164.67 104.63 164.66 105.96 164.95 C 107.11 165.85 107.92 166.93 108.90 168.02 C 109.77 167.68 110.65 167.34 111.53 167.00 C 112.44 169.14 113.28 171.30 114.07 173.49 C 108.85 172.36 105.15 168.98 100.27 167.07 C 100.28 169.90 100.43 172.73 100.55 175.56 C 99.63 175.96 98.71 176.34 97.78 176.70 C 97.32 175.60 96.85 174.51 96.39 173.41 C 95.81 173.21 95.23 173.01 94.64 172.81 C 94.61 173.76 94.58 174.71 94.56 175.66 C 92.00 174.40 89.43 173.17 86.83 171.98 C 86.22 173.54 85.59 175.09 84.96 176.64 C 82.94 175.40 80.89 174.22 78.81 173.10 L 78.05 172.70 C 76.03 171.68 73.98 170.68 71.89 169.79 C 75.16 169.85 77.89 168.57 80.71 167.06 C 80.52 165.48 80.31 163.89 80.22 162.30 Z" fill="#d3d6dd" />
<path d="M 102.27 161.50 C 106.27 162.46 109.48 163.28 113.38 161.40 C 116.17 161.95 118.95 162.55 121.73 163.14 C 121.36 163.86 120.99 164.58 120.60 165.28 C 122.46 165.42 124.31 165.59 126.16 165.78 C 123.63 166.65 121.10 167.17 118.44 167.48 C 119.38 168.10 120.32 168.73 121.25 169.37 C 121.17 170.07 121.09 170.77 121.01 171.47 C 119.59 170.72 118.18 169.97 116.77 169.22 C 116.43 170.82 116.13 172.43 115.80 174.03 C 115.23 173.84 114.65 173.66 114.07 173.49 C 113.28 171.30 112.44 169.14 111.53 167.00 C 110.65 167.34 109.77 167.68 108.90 168.02 C 107.92 166.93 107.11 165.85 105.96 164.95 C 104.63 164.66 103.20 164.67 101.84 164.68 C 101.97 163.62 102.12 162.56 102.27 161.50 Z" fill="#c8c9d2" />
<path d="M 185.52 162.05 C 186.99 161.48 187.40 163.72 186.94 164.70 L 185.58 164.21 C 185.15 163.35 185.13 162.63 185.52 162.05 Z" fill="#e2e6ee" />
<path d="M 60.04 162.53 C 61.59 165.35 63.25 168.03 65.60 170.26 C 63.62 171.87 61.39 172.99 59.18 174.24 C 54.94 176.80 52.58 180.92 50.32 185.16 C 49.44 183.89 48.55 182.63 47.69 181.34 L 47.80 180.50 L 48.24 179.46 C 50.23 175.41 52.76 171.72 55.14 167.89 C 56.47 165.66 57.94 164.08 60.04 162.53 Z" fill="#e2e4e5" />
<path d="M 162.16 163.82 C 165.95 163.57 168.46 165.63 171.04 168.08 C 166.59 166.99 162.31 166.41 157.72 166.18 C 159.13 165.36 160.57 164.22 162.16 163.82 Z" fill="#484b64" />
<path d="M 219.98 162.80 C 221.22 164.91 222.77 167.26 223.22 169.69 C 223.55 172.10 222.81 174.78 222.35 177.15 C 220.47 176.23 218.50 175.48 216.48 174.92 C 217.70 176.72 219.31 178.06 220.95 179.46 C 220.68 182.19 220.46 184.93 220.10 187.65 C 218.33 192.43 216.18 197.04 213.42 201.34 C 213.16 201.74 212.91 202.15 212.65 202.55 C 211.69 203.54 210.69 204.50 209.72 205.48 C 206.53 208.69 203.94 212.10 200.29 214.88 C 199.62 215.10 198.96 215.32 198.30 215.54 C 192.58 216.93 187.39 219.29 181.48 219.91 L 180.74 219.81 C 181.55 217.61 182.25 215.38 183.05 213.18 C 185.16 211.51 188.39 210.12 189.65 207.71 C 191.21 204.40 191.55 200.44 190.39 196.95 C 189.98 195.20 189.07 193.86 190.16 192.14 C 192.63 187.39 196.00 183.09 195.05 177.35 L 194.92 176.42 C 194.84 175.32 194.77 174.22 194.71 173.11 C 198.09 178.95 202.39 183.93 204.79 190.33 L 206.01 190.59 C 206.81 190.75 207.61 190.91 208.41 191.06 C 207.58 192.21 206.75 193.36 205.94 194.52 C 207.40 194.53 208.81 194.55 210.26 194.34 C 211.26 193.17 212.02 191.82 212.81 190.50 C 213.70 190.35 214.60 190.21 215.49 190.06 C 214.99 186.31 215.15 182.49 214.62 178.75 C 213.42 174.66 210.67 171.00 208.87 167.14 C 209.71 166.77 210.55 166.41 211.39 166.05 C 214.23 164.88 217.10 163.84 219.98 162.80 Z" fill="#cfd2d6" />
<path d="M 210.16 164.60 C 210.58 165.08 210.99 165.56 211.39 166.05 C 210.55 166.41 209.71 166.77 208.87 167.14 C 210.67 171.00 213.42 174.66 214.62 178.75 C 215.15 182.49 214.99 186.31 215.49 190.06 C 214.60 190.21 213.70 190.35 212.81 190.50 C 211.83 189.46 210.85 188.41 209.84 187.41 C 208.54 188.45 207.31 189.56 206.01 190.59 L 204.79 190.33 C 202.39 183.93 198.09 178.95 194.71 173.11 C 194.77 174.22 194.84 175.32 194.92 176.42 C 194.01 173.97 193.13 171.55 192.84 168.93 C 197.96 168.91 203.00 168.57 208.00 167.40 C 207.71 166.61 207.42 165.82 207.13 165.03 C 208.14 164.86 209.15 164.71 210.16 164.60 Z" fill="#c0c4cc" />
<path d="M 142.84 165.07 C 144.99 166.47 147.15 167.87 149.33 169.22 C 146.56 171.46 144.05 173.68 140.50 174.60 C 134.16 176.42 128.14 178.51 122.90 182.64 C 125.10 182.93 127.76 183.53 129.94 182.88 C 132.02 182.26 134.00 181.17 135.95 180.24 C 136.93 182.32 137.87 184.40 138.67 186.56 C 135.42 188.41 132.04 190.98 128.13 190.75 C 124.51 190.63 121.29 190.96 117.80 190.25 C 117.49 188.01 117.46 185.23 116.30 183.24 C 114.98 180.97 113.68 178.72 112.55 176.36 C 115.39 177.57 116.87 178.90 119.92 177.28 C 118.65 176.05 117.20 175.10 115.80 174.03 C 121.78 174.70 126.81 174.60 132.07 171.38 C 135.79 169.49 139.35 167.37 142.84 165.07 Z" fill="#d0d6df" />
<path d="M 207.13 165.03 C 207.42 165.82 207.71 166.61 208.00 167.40 C 203.00 168.57 197.96 168.91 192.84 168.93 C 192.79 168.03 192.76 167.14 192.73 166.24 C 197.59 166.27 202.36 165.98 207.13 165.03 Z" fill="#939aaa" />
<path d="M 100.27 167.07 C 105.15 168.98 108.85 172.36 114.07 173.49 C 114.65 173.66 115.23 173.84 115.80 174.03 C 117.20 175.10 118.65 176.05 119.92 177.28 C 116.87 178.90 115.39 177.57 112.55 176.36 C 113.68 178.72 114.98 180.97 116.30 183.24 C 117.46 185.23 117.49 188.01 117.80 190.25 C 112.51 188.91 107.78 187.83 102.36 189.18 C 97.55 183.28 91.15 180.72 84.96 176.64 C 85.59 175.09 86.22 173.54 86.83 171.98 C 89.43 173.17 92.00 174.40 94.56 175.66 C 94.58 174.71 94.61 173.76 94.64 172.81 C 95.23 173.01 95.81 173.21 96.39 173.41 C 96.85 174.51 97.32 175.60 97.78 176.70 C 98.71 176.34 99.63 175.96 100.55 175.56 C 100.43 172.73 100.28 169.90 100.27 167.07 Z" fill="#eeeff2" />
<path d="M 41.13 169.07 C 42.04 171.50 42.89 173.95 43.73 176.41 C 44.54 175.21 45.36 174.00 46.17 172.80 C 46.81 175.04 47.56 177.24 48.24 179.46 L 47.80 180.50 C 46.73 181.98 45.41 183.46 44.70 185.15 C 44.31 186.82 44.68 188.73 44.81 190.43 C 42.31 184.29 41.17 177.94 40.25 171.41 C 40.53 170.62 40.82 169.84 41.13 169.07 Z" fill="#e3e3e2" />
<path d="M 70.30 169.64 C 70.83 169.69 71.36 169.74 71.89 169.79 C 73.98 170.68 76.03 171.68 78.05 172.70 C 75.99 173.97 78.81 175.48 78.81 173.10 C 80.89 174.22 82.94 175.40 84.96 176.64 C 91.15 180.72 97.55 183.28 102.36 189.18 C 103.57 190.64 104.96 191.95 106.37 193.21 C 106.58 194.08 106.74 194.96 106.87 195.84 L 105.33 196.04 C 103.16 194.64 101.05 193.14 98.85 191.77 C 99.22 190.93 99.57 190.08 99.91 189.22 C 98.73 188.45 97.56 187.66 96.37 186.91 L 96.44 185.09 C 94.83 183.21 92.06 182.22 89.97 180.95 C 86.04 178.92 82.08 175.42 77.65 175.03 C 76.46 174.83 75.21 175.04 74.02 175.16 L 73.13 175.33 C 72.40 174.39 71.82 173.38 71.24 172.33 C 70.89 171.45 70.58 170.55 70.30 169.64 Z" fill="#6c7284" />
<path d="M 149.33 169.22 C 154.11 170.31 158.74 169.21 163.38 170.99 C 159.32 175.52 153.78 175.58 149.18 179.14 C 145.63 181.64 142.63 184.65 138.67 186.56 C 137.87 184.40 136.93 182.32 135.95 180.24 C 134.00 181.17 132.02 182.26 129.94 182.88 C 127.76 183.53 125.10 182.93 122.90 182.64 C 128.14 178.51 134.16 176.42 140.50 174.60 C 144.05 173.68 146.56 171.46 149.33 169.22 Z" fill="#f5f5f2" />
<path d="M 78.05 172.70 L 78.81 173.10 C 78.81 175.48 75.99 173.97 78.05 172.70 Z" fill="#2a2c3d" />
<path d="M 74.02 175.16 C 77.56 176.51 80.12 178.99 82.54 181.82 C 78.92 180.19 75.57 178.61 73.13 175.33 L 74.02 175.16 Z" fill="#a4a6bd" />
<path d="M 77.65 175.03 C 82.08 175.42 86.04 178.92 89.97 180.95 C 92.06 182.22 94.83 183.21 96.44 185.09 L 96.37 186.91 C 89.95 183.22 83.88 179.02 77.65 175.03 Z" fill="#dddfe9" />
<path d="M 216.48 174.92 C 218.50 175.48 220.47 176.23 222.35 177.15 L 223.44 177.72 C 222.61 178.30 221.78 178.88 220.95 179.46 C 219.31 178.06 217.70 176.72 216.48 174.92 Z" fill="#353746" />
<path d="M 223.44 177.72 L 223.73 178.16 C 223.36 179.26 222.95 180.39 222.68 181.52 C 221.84 183.58 224.35 185.04 225.37 186.56 C 225.07 188.51 224.58 190.42 224.01 192.31 C 222.72 190.74 221.48 189.14 220.10 187.65 C 220.46 184.93 220.68 182.19 220.95 179.46 C 221.78 178.88 222.61 178.30 223.44 177.72 Z" fill="#999ba1" />
<path d="M 223.73 178.16 C 225.89 180.77 225.79 183.37 225.37 186.56 C 224.35 185.04 221.84 183.58 222.68 181.52 C 222.95 180.39 223.36 179.26 223.73 178.16 Z" fill="#c3c3c6" />
<path d="M 157.47 179.13 C 155.50 181.55 153.46 182.91 150.58 184.10 C 152.66 181.76 154.60 180.37 157.47 179.13 Z" fill="#666981" />
<path d="M 74.48 179.65 C 77.59 180.77 79.95 182.80 82.13 185.20 C 79.09 183.95 76.37 182.46 74.48 179.65 Z" fill="#9294af" />
<path d="M 72.62 180.53 C 77.28 183.68 81.62 187.47 85.75 191.26 C 83.67 191.26 81.58 191.20 79.50 191.18 C 81.76 193.01 83.96 195.03 86.75 196.02 C 88.88 196.84 91.50 197.10 93.12 198.81 C 102.35 208.88 115.37 216.18 128.97 218.05 C 129.30 218.82 129.63 219.59 129.96 220.36 C 127.16 219.70 124.38 218.93 121.58 218.24 C 121.67 219.01 121.77 219.78 121.87 220.54 C 120.74 220.84 119.61 221.15 118.48 221.47 C 118.77 222.47 119.09 223.47 119.42 224.46 C 115.29 222.06 110.95 220.24 106.64 218.21 C 101.96 216.11 100.67 209.94 96.54 206.76 C 94.14 207.53 91.91 209.07 89.70 210.29 C 88.97 209.46 88.24 208.63 87.50 207.81 C 87.50 208.82 87.50 209.84 87.49 210.86 C 84.21 209.96 80.89 209.44 77.50 209.13 C 77.08 210.36 76.66 211.59 76.23 212.82 C 75.80 210.31 75.48 207.76 74.87 205.29 C 74.16 202.40 72.22 200.12 70.60 197.70 C 70.17 193.79 71.73 190.68 68.80 187.59 C 69.39 187.02 69.97 186.45 70.56 185.89 C 70.22 184.77 69.90 183.64 69.59 182.52 C 70.60 181.85 71.61 181.19 72.62 180.53 Z" fill="#c0c4cb" />
<path d="M 47.69 181.34 C 48.55 182.63 49.44 183.89 50.32 185.16 C 49.51 186.75 48.37 188.02 47.09 189.25 C 46.88 186.57 47.23 183.98 47.69 181.34 Z" fill="#d8dae2" />
<path d="M 54.89 182.12 C 56.06 183.05 57.20 184.02 58.35 184.98 C 57.35 186.43 56.33 187.86 55.36 189.32 C 54.52 188.13 53.67 186.94 52.84 185.75 C 53.52 184.54 54.20 183.33 54.89 182.12 Z" fill="#858595" />
<path d="M 67.99 183.64 L 69.59 182.52 C 69.90 183.64 70.22 184.77 70.56 185.89 C 69.97 186.45 69.39 187.02 68.80 187.59 L 68.40 186.99 C 68.23 185.87 68.09 184.76 67.99 183.64 Z" fill="#434256" />
<path d="M 150.17 184.65 C 148.53 186.34 146.99 187.28 144.80 188.12 C 146.47 186.46 147.95 185.48 150.17 184.65 Z" fill="#75788e" />
<path d="M 68.40 186.99 L 68.80 187.59 C 71.73 190.68 70.17 193.79 70.60 197.70 C 69.12 206.13 74.86 214.10 80.52 219.72 C 84.81 223.57 89.16 227.15 95.05 228.04 C 98.90 228.98 102.44 228.24 106.25 227.64 C 102.66 229.71 98.53 230.59 94.45 229.66 C 90.12 228.83 86.38 226.56 82.07 225.69 C 76.80 224.66 71.92 221.57 68.10 217.89 C 65.30 215.23 64.58 211.38 63.12 207.79 C 61.38 203.86 63.04 200.11 64.11 196.26 C 64.96 192.84 67.27 190.29 68.40 186.99 Z" fill="#2e2f4a" />
<path d="M 209.84 187.41 C 210.85 188.41 211.83 189.46 212.81 190.50 C 212.02 191.82 211.26 193.17 210.26 194.34 C 208.81 194.55 207.40 194.53 205.94 194.52 C 206.75 193.36 207.58 192.21 208.41 191.06 C 207.61 190.91 206.81 190.75 206.01 190.59 C 207.31 189.56 208.54 188.45 209.84 187.41 Z" fill="#727ead" />
<path d="M 220.10 187.65 C 221.48 189.14 222.72 190.74 224.01 192.31 C 223.56 193.73 223.08 195.14 222.59 196.55 C 221.38 196.68 220.16 196.81 218.94 196.92 C 219.39 197.69 219.81 198.47 220.21 199.26 C 219.48 200.53 218.38 201.64 217.44 202.74 C 216.71 202.54 215.99 202.32 215.26 202.10 C 214.65 201.85 214.03 201.59 213.42 201.34 C 216.18 197.04 218.33 192.43 220.10 187.65 Z" fill="#272b43" />
<path d="M 142.04 189.82 C 138.87 192.57 135.73 193.85 131.62 194.60 C 134.91 192.19 138.07 190.77 142.04 189.82 Z" fill="#555873" />
<path d="M 98.85 191.77 C 101.05 193.14 103.16 194.64 105.33 196.04 C 101.59 196.83 100.28 196.36 97.13 194.44 C 97.71 193.55 98.28 192.67 98.85 191.77 Z" fill="#42455e" />
<path d="M 112.35 192.34 C 114.70 193.04 116.92 193.97 119.09 195.10 C 116.34 194.76 114.36 194.39 112.35 192.34 Z" fill="#4c4e69" />
<path d="M 127.29 193.66 C 128.24 192.90 130.44 193.58 130.63 194.83 C 130.28 196.58 126.34 195.24 127.29 193.66 Z" fill="#545772" />
<path d="M 120.49 194.52 C 121.39 193.58 123.25 194.03 123.60 195.29 C 123.48 197.30 119.59 196.38 120.49 194.52 Z" fill="#72758d" />
<path d="M 225.30 194.55 C 226.74 194.97 228.14 195.57 229.52 196.13 C 229.67 199.07 229.79 201.99 230.19 204.90 C 229.51 203.37 228.79 201.54 227.54 200.40 C 226.18 199.74 224.46 199.69 222.97 199.49 C 223.75 197.86 224.42 196.12 225.30 194.55 Z" fill="#9699a6" />
<path d="M 190.39 196.95 C 191.55 200.44 191.21 204.40 189.65 207.71 C 188.39 210.12 185.16 211.51 183.05 213.18 C 182.38 212.02 181.73 210.85 181.01 209.72 C 178.72 212.64 176.27 214.70 173.15 216.69 C 175.61 217.91 178.10 219.04 180.74 219.81 L 181.48 219.91 C 177.89 220.44 174.34 221.17 170.79 221.92 C 168.06 220.45 165.76 218.83 162.59 218.46 C 159.02 218.07 155.36 218.29 151.78 218.43 C 157.24 216.35 162.60 213.74 167.34 210.31 C 170.78 208.00 174.61 206.28 178.20 204.18 C 182.37 201.94 186.21 199.16 190.39 196.95 Z" fill="#b9bec9" />
<path d="M 70.60 197.70 C 72.22 200.12 74.16 202.40 74.87 205.29 C 75.48 207.76 75.80 210.31 76.23 212.82 C 76.66 211.59 77.08 210.36 77.50 209.13 C 80.89 209.44 84.21 209.96 87.49 210.86 C 87.50 209.84 87.50 208.82 87.50 207.81 C 88.24 208.63 88.97 209.46 89.70 210.29 C 88.29 211.08 86.86 211.85 85.43 212.61 C 85.95 214.36 86.48 216.10 87.00 217.85 C 84.69 218.20 82.68 218.78 80.52 219.72 C 74.86 214.10 69.12 206.13 70.60 197.70 Z" fill="#cfd3d6" />
<path d="M 227.54 200.40 C 228.79 201.54 229.51 203.37 230.19 204.90 C 230.53 206.35 230.88 207.81 231.23 209.26 C 229.57 208.68 227.89 208.07 226.19 207.62 C 224.97 208.09 223.77 208.60 222.56 209.06 C 221.66 209.38 220.75 209.66 219.83 209.94 C 219.52 208.43 219.02 206.91 218.90 205.37 C 220.15 203.34 221.80 201.59 222.97 199.49 C 224.46 199.69 226.18 199.74 227.54 200.40 Z" fill="#5b647c" />
<path d="M 199.73 200.81 C 200.41 202.72 201.29 204.73 201.54 206.75 C 200.23 210.14 197.89 209.76 194.79 210.19 C 194.90 208.39 194.52 206.07 195.35 204.43 C 196.61 203.05 198.23 201.92 199.73 200.81 Z" fill="#5d6bb5" />
<path d="M 213.42 201.34 C 214.03 201.59 214.65 201.85 215.26 202.10 C 215.99 202.32 216.71 202.54 217.44 202.74 C 216.48 204.77 215.44 206.74 214.11 208.55 C 213.51 208.12 212.90 207.69 212.30 207.25 C 212.42 205.69 212.53 204.12 212.65 202.55 C 212.91 202.15 213.16 201.74 213.42 201.34 Z" fill="#7d808a" />
<path d="M 212.65 202.55 C 212.53 204.12 212.42 205.69 212.30 207.25 C 212.90 207.69 213.51 208.12 214.11 208.55 C 213.42 209.22 212.72 209.88 212.01 210.53 C 211.23 208.86 210.48 207.17 209.72 205.48 C 210.69 204.50 211.69 203.54 212.65 202.55 Z" fill="#25263b" />
<path d="M 209.72 205.48 C 210.48 207.17 211.23 208.86 212.01 210.53 C 210.03 212.34 208.28 214.34 206.55 216.37 C 205.80 216.82 205.05 217.27 204.31 217.72 C 204.76 218.46 205.21 219.20 205.66 219.94 L 206.13 220.70 C 204.64 220.06 203.12 219.48 201.58 218.98 C 201.19 217.60 200.78 216.23 200.29 214.88 C 203.94 212.10 206.53 208.69 209.72 205.48 Z" fill="#b9b9c0" />
<path d="M 96.54 206.76 C 100.67 209.94 101.96 216.11 106.64 218.21 C 110.95 220.24 115.29 222.06 119.42 224.46 C 121.53 225.37 123.73 225.80 125.96 226.33 L 126.57 226.80 C 121.25 226.72 116.24 227.95 111.08 228.98 C 109.20 229.41 107.87 228.39 106.25 227.64 C 102.44 228.24 98.90 228.98 95.05 228.04 C 89.16 227.15 84.81 223.57 80.52 219.72 C 82.68 218.78 84.69 218.20 87.00 217.85 C 86.48 216.10 85.95 214.36 85.43 212.61 C 86.86 211.85 88.29 211.08 89.70 210.29 C 91.91 209.07 94.14 207.53 96.54 206.76 Z" fill="#e4e5e2" />
<path d="M 226.19 207.62 C 227.89 208.07 229.57 208.68 231.23 209.26 C 231.42 210.03 231.60 210.80 231.78 211.57 C 231.15 212.01 230.51 212.46 229.87 212.91 C 227.38 211.74 224.91 210.51 222.56 209.06 C 223.77 208.60 224.97 208.09 226.19 207.62 Z" fill="#9ea5ae" />
<path d="M 181.01 209.72 C 181.73 210.85 182.38 212.02 183.05 213.18 C 182.25 215.38 181.55 217.61 180.74 219.81 C 178.10 219.04 175.61 217.91 173.15 216.69 C 176.27 214.70 178.72 212.64 181.01 209.72 Z" fill="#5b68b4" />
<path d="M 214.23 212.42 C 217.42 215.39 217.01 220.34 219.78 223.86 C 219.59 224.72 219.39 225.58 219.20 226.44 C 217.86 226.42 216.52 226.38 215.18 226.33 C 213.49 225.79 211.81 225.17 210.19 224.46 C 212.19 224.07 214.19 223.64 216.18 223.14 C 214.68 220.73 213.07 218.52 210.87 216.69 C 211.33 218.41 211.90 220.10 212.48 221.79 C 210.23 221.08 207.97 220.43 205.66 219.94 C 205.21 219.20 204.76 218.46 204.31 217.72 C 205.05 217.27 205.80 216.82 206.55 216.37 C 209.15 215.14 211.68 213.76 214.23 212.42 Z" fill="#545f77" />
<path d="M 200.29 214.88 C 200.78 216.23 201.19 217.60 201.58 218.98 C 199.90 219.96 198.27 221.01 196.65 222.09 C 195.46 221.11 194.33 220.06 193.21 219.01 C 194.95 217.92 196.60 216.70 198.30 215.54 C 198.96 215.32 199.62 215.10 200.29 214.88 Z" fill="#3e445b" />
<path d="M 210.87 216.69 C 213.07 218.52 214.68 220.73 216.18 223.14 C 214.19 223.64 212.19 224.07 210.19 224.46 C 208.79 223.26 207.43 222.00 206.13 220.70 L 205.66 219.94 C 207.97 220.43 210.23 221.08 212.48 221.79 C 211.90 220.10 211.33 218.41 210.87 216.69 Z" fill="#d3d8e0" />
<path d="M 121.58 218.24 C 124.38 218.93 127.16 219.70 129.96 220.36 C 129.63 219.59 129.30 218.82 128.97 218.05 C 130.78 218.40 132.73 218.77 134.40 219.57 C 135.46 221.70 135.86 224.13 136.97 226.22 C 140.70 228.39 145.90 228.64 150.15 228.70 C 154.06 228.19 157.44 228.10 161.32 229.10 C 161.33 229.79 161.33 230.48 161.34 231.17 C 158.51 230.76 155.77 230.03 153.00 229.35 C 157.53 231.29 161.98 233.03 167.00 233.02 C 165.88 234.10 164.83 235.24 163.77 236.39 C 155.47 235.89 147.67 236.09 139.95 233.02 C 135.13 231.28 131.42 228.10 126.57 226.80 L 125.96 226.33 C 124.60 224.40 123.26 222.45 121.87 220.54 C 121.77 219.78 121.67 219.01 121.58 218.24 Z" fill="#4e5c75" />
<path d="M 151.78 218.43 C 155.36 218.29 159.02 218.07 162.59 218.46 C 165.76 218.83 168.06 220.45 170.79 221.92 C 172.45 222.79 174.16 223.53 175.87 224.31 C 175.06 224.77 174.24 225.22 173.43 225.68 C 174.46 226.49 175.48 227.30 176.51 228.11 C 175.07 229.02 173.66 229.96 172.19 230.80 C 171.52 229.79 170.85 228.78 170.14 227.80 C 168.20 225.31 167.05 224.52 163.79 224.77 C 159.66 225.35 154.86 224.44 151.07 226.24 C 148.67 224.30 146.94 222.36 145.31 219.73 C 147.49 219.38 149.63 218.90 151.78 218.43 Z" fill="#54607b" />
<path d="M 57.74 219.30 C 62.38 220.98 66.84 222.33 70.57 225.72 C 64.13 227.85 57.62 227.85 50.93 227.56 C 52.80 224.47 54.99 221.66 57.74 219.30 Z" fill="#afb5ba" />
<path d="M 193.21 219.01 C 194.33 220.06 195.46 221.11 196.65 222.09 L 198.26 222.83 C 197.50 223.74 196.74 224.65 195.98 225.56 C 194.65 224.51 193.32 223.46 191.98 222.43 C 189.94 222.90 187.90 223.41 185.85 223.85 C 186.15 222.91 185.84 222.20 184.91 221.72 C 187.68 220.78 190.52 220.06 193.21 219.01 Z" fill="#afb1b8" />
<path d="M 201.58 218.98 C 203.12 219.48 204.64 220.06 206.13 220.70 C 207.43 222.00 208.79 223.26 210.19 224.46 C 211.81 225.17 213.49 225.79 215.18 226.33 C 209.02 226.74 204.35 223.06 198.26 222.83 L 196.65 222.09 C 198.27 221.01 199.90 219.96 201.58 218.98 Z" fill="#5f6a7d" />
<path d="M 138.86 220.38 C 141.01 220.15 143.16 219.99 145.31 219.73 C 146.94 222.36 148.67 224.30 151.07 226.24 C 150.34 226.96 149.61 227.69 148.89 228.43 C 145.12 226.30 141.84 223.51 138.86 220.38 Z" fill="#bcc2ca" />
<path d="M 118.48 221.47 C 119.61 221.15 120.74 220.84 121.87 220.54 C 123.26 222.45 124.60 224.40 125.96 226.33 C 123.73 225.80 121.53 225.37 119.42 224.46 C 119.09 223.47 118.77 222.47 118.48 221.47 Z" fill="#798394" />
<path d="M 184.91 221.72 C 185.84 222.20 186.15 222.91 185.85 223.85 C 184.80 224.21 184.02 223.86 183.52 222.82 L 184.91 221.72 Z" fill="#53515d" />
<path d="M 163.79 224.77 C 167.05 224.52 168.20 225.31 170.14 227.80 C 168.22 227.04 166.31 226.26 164.37 225.55 C 165.33 227.02 166.28 228.50 167.25 229.97 C 165.28 230.41 163.33 230.86 161.34 231.17 C 161.33 230.48 161.33 229.79 161.32 229.10 C 157.44 228.10 154.06 228.19 150.15 228.70 L 148.89 228.43 C 149.61 227.69 150.34 226.96 151.07 226.24 C 154.86 224.44 159.66 225.35 163.79 224.77 Z" fill="#878d9d" />
<path d="M 164.37 225.55 C 166.31 226.26 168.22 227.04 170.14 227.80 C 170.85 228.78 171.52 229.79 172.19 230.80 C 170.48 231.61 168.75 232.32 167.00 233.02 C 161.98 233.03 157.53 231.29 153.00 229.35 C 155.77 230.03 158.51 230.76 161.34 231.17 C 163.33 230.86 165.28 230.41 167.25 229.97 C 166.28 228.50 165.33 227.02 164.37 225.55 Z" fill="#e8eff3" />
<path d="M 176.51 228.11 C 178.02 229.27 179.45 230.49 180.93 231.69 C 176.24 236.72 170.15 236.46 163.77 236.39 C 164.83 235.24 165.88 234.10 167.00 233.02 C 168.75 232.32 170.48 231.61 172.19 230.80 C 173.66 229.96 175.07 229.02 176.51 228.11 Z" fill="#9da3ad" />
</svg>