<?xml version="1.0" encoding="UTF-8" standalone="no"?>
<!DOCTYPE svg PUBLIC "-//W3C//DTD SVG 1.1//EN" "http://www.w3.org/Graphics/SVG/1.1/DTD/svg11.dtd">
<svg xmlns="http://www.w3.org/2000/svg" version="1.1" viewBox="0 0 256 256" width="256.0pt" height="256.0pt">
<path d="M 0.00 0.00 L 256.00 0.00 L 256.00 256.00 L 0.00 256.00 L 0.00 0.00 Z" fill="#fefefe" />
<path d="M 151.11 13.82 C 159.18 15.20 166.42 19.17 172.71 24.28 C 176.83 27.58 181.92 28.78 186.07 32.01 C 188.42 33.91 191.17 33.54 194.12 34.78 C 198.98 36.65 203.74 38.39 208.72 35.69 C 214.13 32.33 218.88 28.10 224.65 25.23 C 225.30 26.42 225.95 27.61 226.59 28.82 C 227.07 27.08 227.13 25.59 228.79 24.53 L 229.02 25.55 C 227.88 28.71 226.60 31.83 225.30 34.93 C 222.27 40.97 216.54 40.70 212.10 45.09 C 207.98 48.70 205.53 53.21 202.13 57.39 C 198.83 51.89 194.87 46.87 191.69 41.29 C 189.73 38.00 186.61 37.51 183.15 36.81 C 184.39 38.52 185.67 40.19 186.87 41.93 L 186.31 43.34 C 184.58 41.07 183.19 38.71 180.20 38.10 C 180.10 39.02 180.01 39.95 179.93 40.87 C 181.95 41.98 183.93 43.14 185.92 44.30 C 186.89 45.45 187.79 46.67 188.63 47.93 C 190.55 50.65 188.53 54.67 187.37 57.35 C 183.49 60.12 178.78 62.52 174.25 64.03 C 172.58 62.27 170.87 62.65 168.71 62.86 C 168.74 61.96 168.78 61.05 168.82 60.15 C 166.67 60.60 164.40 61.34 162.18 61.32 C 159.08 60.71 156.08 59.53 153.01 58.76 L 152.16 57.73 C 155.15 52.83 159.94 49.53 162.94 44.72 C 158.70 45.38 154.93 47.22 150.79 48.81 C 146.11 50.26 144.01 56.19 141.68 60.07 C 140.42 62.46 138.25 63.07 136.17 64.53 C 134.73 64.05 133.30 63.58 131.84 63.18 C 132.78 61.30 133.32 59.30 133.90 57.29 C 133.03 57.02 132.15 56.75 131.28 56.48 C 132.88 50.95 135.32 45.95 135.87 40.13 C 133.25 43.25 131.65 46.78 128.50 49.48 C 123.59 54.08 118.28 59.15 117.06 66.09 C 115.31 66.84 113.56 67.59 111.81 68.33 C 110.90 62.57 110.73 56.87 110.54 51.06 C 109.16 51.74 109.10 52.38 108.79 53.80 C 107.56 60.92 106.29 68.06 104.75 75.11 C 100.27 70.12 101.54 63.58 96.17 58.81 C 93.16 56.81 89.58 55.57 86.02 54.97 L 85.05 54.92 C 83.20 51.46 82.58 47.92 82.27 44.06 C 83.08 43.12 84.04 42.16 84.60 41.05 C 84.48 38.16 83.65 35.26 82.84 32.49 C 84.01 30.79 84.99 29.00 85.94 27.17 C 79.33 33.25 73.36 40.45 68.15 47.75 C 66.64 47.70 65.50 46.84 64.42 48.32 C 62.80 50.39 60.83 51.77 58.91 53.45 C 57.60 56.54 57.09 59.18 54.04 61.15 L 53.46 61.68 C 53.26 62.95 53.14 64.22 53.01 65.50 C 52.35 65.16 51.69 64.82 51.04 64.48 C 48.73 69.38 44.50 74.65 45.06 80.19 C 42.46 82.53 38.19 81.60 34.84 82.06 C 36.44 85.74 39.69 86.85 42.43 89.68 C 41.69 90.09 40.97 90.51 40.26 90.95 C 39.28 95.21 38.55 99.64 38.46 104.01 C 38.79 107.78 40.17 111.38 40.50 115.18 C 41.02 115.47 41.55 115.75 42.07 116.04 C 40.42 118.71 38.59 121.39 37.38 124.29 C 36.73 127.26 37.27 130.57 37.38 133.60 C 38.64 133.20 39.90 132.82 41.16 132.44 C 39.86 134.88 38.57 137.33 37.35 139.81 C 36.94 141.67 36.26 143.96 36.83 145.82 C 37.88 147.67 39.11 149.43 40.40 151.12 C 40.13 151.78 39.86 152.43 39.58 153.09 L 39.07 154.29 C 35.86 147.88 34.40 141.08 32.94 134.12 C 32.50 131.02 32.28 127.90 31.81 124.81 C 29.39 126.13 30.84 130.32 30.66 132.58 C 29.62 135.55 29.47 137.52 30.07 140.61 C 28.52 145.80 25.95 149.74 25.93 154.96 C 25.83 160.69 25.24 166.01 26.53 171.44 C 27.75 176.44 27.86 181.51 29.47 186.36 C 30.93 191.43 33.51 196.33 36.09 200.93 C 37.53 203.98 41.11 204.11 43.93 205.12 C 45.72 205.66 47.02 206.70 48.37 207.95 C 46.61 208.85 44.82 209.66 42.95 210.33 C 41.95 209.96 40.94 209.59 39.94 209.22 C 41.93 211.69 43.77 212.68 46.86 213.35 C 49.22 213.58 51.59 213.59 53.95 213.50 C 54.19 213.86 54.43 214.22 54.67 214.58 C 53.99 215.18 53.30 215.77 52.61 216.36 C 52.73 218.53 52.81 220.70 52.95 222.86 C 51.57 222.66 50.19 222.45 48.81 222.26 C 49.14 225.12 49.69 227.58 51.58 229.84 C 53.72 232.26 55.59 234.57 59.05 234.89 C 64.17 235.48 70.61 235.23 74.75 231.74 C 77.73 229.46 80.67 227.15 83.71 224.95 C 86.54 227.79 90.20 226.82 93.52 225.51 C 94.64 224.73 96.21 224.20 95.58 222.55 C 92.30 222.48 89.10 223.43 85.79 223.35 C 88.49 220.36 90.36 215.11 94.71 214.57 L 95.72 215.64 C 94.40 216.35 93.07 217.05 91.74 217.74 C 91.49 218.53 91.24 219.32 90.99 220.12 C 93.63 219.25 96.09 218.35 98.92 218.69 C 100.84 219.70 102.74 220.72 104.71 221.63 C 103.60 222.74 101.81 223.68 101.14 225.10 C 100.94 226.27 102.57 226.56 103.43 226.41 C 106.93 226.32 109.90 224.97 113.01 223.56 C 116.45 222.15 118.12 218.78 121.28 217.15 C 123.58 217.02 125.93 217.41 128.20 217.23 C 131.70 216.91 134.82 214.63 136.42 211.55 C 136.54 209.08 135.92 206.58 136.07 204.11 C 136.83 201.09 138.43 199.10 137.10 195.90 C 138.02 194.34 138.88 192.75 139.69 191.13 C 140.65 191.48 141.36 191.36 141.82 190.76 C 144.45 188.01 146.39 184.44 148.29 181.17 L 149.40 182.24 C 148.16 189.37 146.88 196.43 144.19 203.19 C 142.00 208.72 142.52 214.35 144.06 219.96 C 144.90 222.57 145.59 225.09 145.54 227.85 C 153.65 212.04 161.02 195.67 168.93 179.82 C 169.99 181.75 170.51 183.59 172.73 184.48 C 175.26 185.48 175.46 188.70 177.72 190.29 C 179.86 191.89 182.08 193.15 183.70 195.35 C 185.44 198.12 189.03 198.25 191.92 198.99 C 192.96 199.12 193.99 199.21 195.03 199.29 C 197.94 204.68 202.17 208.72 206.62 212.81 C 205.01 214.45 203.44 216.31 201.61 217.70 C 200.04 218.84 198.03 219.43 196.46 220.47 C 194.33 223.13 192.90 226.47 191.66 229.63 C 191.05 230.91 191.63 231.67 192.08 232.86 C 194.81 232.24 197.98 231.83 200.43 230.47 C 202.58 228.64 204.10 225.97 205.76 223.70 C 208.89 223.61 212.00 223.36 215.12 223.07 C 214.51 225.35 213.54 227.19 212.17 229.09 C 214.89 230.07 218.76 232.94 221.39 230.46 C 223.00 229.42 223.55 227.86 224.17 226.14 C 227.03 227.59 230.00 227.73 233.14 227.86 C 232.32 223.46 229.95 218.36 227.04 214.95 C 227.26 217.25 227.46 219.50 227.08 221.79 C 225.75 220.86 224.44 219.90 223.21 218.84 C 222.14 217.08 221.00 215.36 219.81 213.68 C 220.53 213.11 221.25 212.55 221.98 212.01 C 220.51 209.24 219.08 206.81 219.32 203.56 C 220.15 203.53 220.98 203.49 221.81 203.46 C 221.51 199.90 221.27 196.04 222.51 192.62 C 223.42 191.27 224.93 190.25 226.18 189.24 C 225.56 185.22 225.30 181.16 224.76 177.14 C 224.62 175.31 222.54 173.85 221.24 172.74 C 219.09 171.06 217.05 169.62 214.16 169.92 C 211.12 171.48 209.66 174.47 206.17 175.30 C 204.78 172.51 204.30 170.06 204.10 166.97 C 203.97 163.74 202.17 161.60 200.58 158.94 C 201.14 155.59 203.74 151.40 201.94 148.27 C 200.25 148.39 198.14 149.05 196.51 148.49 C 193.93 146.91 192.47 144.82 189.11 145.16 C 188.18 145.10 187.42 144.79 186.84 144.24 C 190.66 142.76 196.70 143.57 199.40 140.29 C 200.59 138.19 199.83 135.22 201.09 132.99 C 202.35 136.37 201.74 139.50 201.67 142.98 C 201.82 145.84 204.89 148.31 206.70 150.31 C 212.91 156.45 216.78 164.70 223.21 170.40 C 226.69 173.45 229.18 177.13 233.17 179.59 C 235.24 175.72 232.72 172.52 230.55 169.46 C 227.40 165.39 226.71 160.97 224.67 156.32 C 223.37 153.34 222.39 150.46 222.06 147.21 C 221.88 143.70 219.65 141.26 218.79 138.04 C 219.83 133.83 222.64 130.45 224.82 126.82 C 226.09 124.73 227.02 122.42 228.40 120.40 C 229.88 118.92 232.11 118.08 233.95 117.08 C 232.80 115.38 231.49 113.67 230.64 111.80 C 230.69 109.87 231.23 107.95 231.24 106.02 C 231.12 104.02 230.62 102.06 230.59 100.03 C 231.22 98.21 232.30 96.59 233.32 94.98 C 231.16 85.68 234.68 76.57 233.73 66.81 C 232.84 67.69 231.84 68.30 231.48 69.57 C 229.68 75.34 230.10 82.19 229.24 88.16 C 229.06 86.69 228.84 85.22 228.69 83.75 C 228.73 79.27 226.93 75.32 227.57 70.87 C 229.61 69.49 231.53 68.57 231.95 65.87 C 232.48 61.10 232.16 56.24 232.54 51.43 C 232.98 56.41 232.60 61.39 233.25 66.33 C 234.79 64.47 234.54 61.91 234.69 59.63 C 234.63 52.20 233.86 44.74 233.23 37.34 C 234.97 33.55 232.88 29.27 233.02 25.01 C 235.17 26.56 237.19 28.09 238.47 30.49 C 243.11 39.06 243.23 48.52 243.00 58.00 C 242.75 66.04 243.64 74.33 242.33 82.26 C 241.68 86.98 242.35 91.70 241.44 96.42 C 240.57 101.45 241.55 106.26 240.23 111.22 C 238.76 116.81 238.41 121.79 235.87 126.85 C 233.56 131.46 231.50 136.81 231.26 142.00 C 231.89 150.47 236.05 158.29 238.62 165.39 C 240.92 171.59 239.63 177.21 238.85 183.50 C 238.17 188.53 235.55 193.03 234.97 198.01 C 234.25 205.29 238.47 213.16 238.89 220.03 C 238.82 223.73 239.04 227.61 235.62 229.93 C 235.19 231.39 235.12 232.78 233.88 233.82 C 230.73 236.85 225.43 237.60 221.29 238.37 C 215.93 239.47 210.60 238.58 205.23 239.35 C 200.45 240.15 195.83 238.56 190.98 239.01 C 183.85 239.58 176.44 236.34 170.74 232.28 C 168.01 229.50 166.60 226.06 163.08 223.98 C 156.97 226.61 152.64 230.59 145.59 229.78 C 144.54 230.67 143.48 231.55 142.39 232.40 C 142.47 231.36 142.54 230.31 142.62 229.27 C 141.25 229.77 140.13 230.58 138.65 230.25 C 134.43 229.59 130.41 228.79 126.03 229.00 C 120.80 229.49 116.38 231.84 111.03 231.99 C 105.52 232.15 100.05 232.15 94.56 231.52 C 88.29 231.74 83.95 234.64 77.80 235.95 C 69.87 240.66 60.74 243.20 51.96 239.05 C 43.80 234.78 40.38 227.42 36.27 219.70 C 32.10 212.70 27.95 205.83 24.79 198.28 C 23.37 194.25 22.15 190.07 21.04 185.94 C 18.88 174.41 18.62 162.82 19.15 151.12 C 19.48 146.54 21.39 142.37 21.72 137.78 C 22.28 131.82 24.49 126.82 26.15 121.11 C 27.71 115.72 30.96 110.54 31.01 105.03 C 31.13 97.92 30.85 90.79 31.04 83.67 C 31.81 83.56 32.58 83.44 33.34 83.32 C 35.22 79.28 40.16 82.35 43.14 80.36 C 39.99 80.10 36.97 80.27 33.97 79.08 C 36.40 75.18 39.08 71.44 41.60 67.60 C 47.84 58.44 52.58 49.52 61.38 42.38 C 64.33 40.36 64.92 36.84 67.97 34.98 C 72.36 32.07 75.78 28.52 80.86 26.77 C 82.97 26.12 83.82 23.38 85.64 22.55 C 86.92 22.30 88.29 22.29 89.59 22.25 C 89.64 21.62 89.68 20.99 89.73 20.36 C 92.28 19.00 94.85 17.44 97.55 16.47 C 107.41 13.46 116.92 13.98 127.04 13.99 C 135.18 13.10 142.96 12.11 151.11 13.82 Z" fill="#f2f2f2" />
<path d="M 129.14 21.22 C 132.46 20.90 135.74 22.38 138.94 21.96 C 144.00 21.35 148.74 19.76 153.87 21.16 C 155.84 21.51 156.30 23.13 157.62 24.39 C 162.39 26.80 169.67 27.46 173.28 31.61 C 168.73 30.93 164.59 28.96 160.07 28.08 C 160.73 28.59 161.38 29.11 162.03 29.63 L 161.19 30.90 C 160.49 30.56 159.79 30.21 159.08 29.87 C 152.48 26.35 144.58 27.10 137.39 26.69 C 133.61 25.78 129.87 25.24 125.99 25.77 C 123.24 25.95 121.17 27.77 118.59 28.70 C 115.41 29.01 112.73 28.18 109.71 29.65 C 106.85 30.75 104.93 32.81 103.01 35.09 C 104.31 35.72 105.61 36.37 106.93 36.99 C 104.99 36.60 103.05 36.34 101.10 36.06 C 101.27 34.91 101.44 33.76 101.62 32.61 C 100.01 33.33 98.41 34.03 96.95 35.02 C 96.07 34.31 95.19 33.61 94.40 32.82 C 94.25 30.64 94.66 28.82 96.64 27.60 C 99.50 25.24 102.64 25.25 106.15 25.33 C 109.58 25.59 115.38 27.34 117.91 24.39 C 117.23 23.95 116.56 23.52 115.88 23.09 C 120.30 22.52 124.70 21.65 129.14 21.22 Z" fill="#dddcc3" />
<path d="M 229.18 21.05 C 231.68 25.95 231.73 32.04 233.23 37.34 C 233.86 44.74 234.63 52.20 234.69 59.63 C 234.54 61.91 234.79 64.47 233.25 66.33 C 232.60 61.39 232.98 56.41 232.54 51.43 L 232.47 49.78 L 232.45 49.34 C 232.35 45.82 231.99 42.52 231.14 39.10 C 231.01 34.40 230.80 29.97 229.02 25.55 L 228.79 24.53 C 228.89 23.37 229.02 22.20 229.18 21.05 Z" fill="#5d5e62" />
<path d="M 98.02 21.89 C 103.99 22.81 109.91 22.40 115.88 23.09 C 116.56 23.52 117.23 23.95 117.91 24.39 C 115.38 27.34 109.58 25.59 106.15 25.33 C 103.53 23.93 100.52 23.45 98.02 21.89 Z" fill="#c54643" />
<path d="M 137.39 26.69 C 134.53 28.67 132.40 31.17 129.26 32.74 C 126.57 33.08 123.95 33.55 121.34 34.31 C 120.74 32.93 120.15 31.55 119.55 30.18 C 117.82 32.19 116.42 34.37 115.26 36.76 C 112.26 37.39 109.90 38.61 106.93 36.99 C 105.61 36.37 104.31 35.72 103.01 35.09 C 104.93 32.81 106.85 30.75 109.71 29.65 C 112.73 28.18 115.41 29.01 118.59 28.70 C 121.17 27.77 123.24 25.95 125.99 25.77 C 129.87 25.24 133.61 25.78 137.39 26.69 Z" fill="#a9af7b" />
<path d="M 229.02 25.55 C 230.80 29.97 231.01 34.40 231.14 39.10 C 229.02 37.94 227.17 36.44 225.30 34.93 C 226.60 31.83 227.88 28.71 229.02 25.55 Z" fill="#dadec1" />
<path d="M 85.94 27.17 C 84.99 29.00 84.01 30.79 82.84 32.49 C 81.22 34.35 79.59 36.17 78.21 38.22 C 74.23 44.28 70.32 50.13 67.85 57.01 C 65.20 62.11 63.34 67.29 60.07 72.09 C 58.40 74.48 57.06 76.88 56.01 79.60 C 54.54 82.81 53.47 86.01 52.63 89.43 C 50.64 94.55 50.63 100.43 47.78 105.05 C 46.88 105.98 45.95 106.88 45.05 107.79 C 45.48 101.59 42.70 96.08 43.03 89.84 L 43.00 88.92 C 44.55 89.15 46.19 88.52 47.01 87.15 C 48.09 85.59 49.07 83.99 49.95 82.31 C 51.38 79.38 53.40 76.53 54.32 73.40 C 55.09 70.44 54.36 66.92 54.12 63.90 C 58.91 66.64 65.13 60.99 63.06 56.00 C 64.74 53.24 66.45 50.50 68.15 47.75 C 73.36 40.45 79.33 33.25 85.94 27.17 Z" fill="#24263f" />
<path d="M 137.39 26.69 C 144.58 27.10 152.48 26.35 159.08 29.87 C 154.87 29.54 150.57 29.12 146.36 29.43 C 142.76 29.75 140.06 31.43 136.85 32.80 C 134.99 33.63 132.70 33.22 130.84 33.92 C 129.14 34.69 127.55 35.71 125.93 36.64 C 127.00 35.31 128.09 33.99 129.26 32.74 C 132.40 31.17 134.53 28.67 137.39 26.69 Z" fill="#b54c4c" />
<path d="M 119.55 30.18 C 120.15 31.55 120.74 32.93 121.34 34.31 C 120.21 39.89 117.21 44.26 114.14 48.95 C 113.59 44.74 113.54 40.73 115.26 36.76 C 116.42 34.37 117.82 32.19 119.55 30.18 Z" fill="#dc4f51" />
<path d="M 162.03 29.63 L 162.77 31.01 L 161.19 30.90 L 162.03 29.63 Z" fill="#656565" />
<path d="M 164.50 31.23 C 165.55 30.43 169.54 31.83 168.91 33.37 C 167.87 33.83 164.26 32.57 164.50 31.23 Z" fill="#919193" />
<path d="M 82.84 32.49 C 83.65 35.26 84.48 38.16 84.60 41.05 C 84.04 42.16 83.08 43.12 82.27 44.06 L 80.98 43.16 C 77.11 45.35 73.82 48.73 71.51 52.52 C 70.50 54.20 69.21 55.61 67.85 57.01 C 70.32 50.13 74.23 44.28 78.21 38.22 C 79.59 36.17 81.22 34.35 82.84 32.49 Z" fill="#c7cba8" />
<path d="M 101.62 32.61 C 101.44 33.76 101.27 34.91 101.10 36.06 C 98.16 38.28 95.16 40.33 91.76 41.77 C 93.20 39.28 94.88 37.03 96.95 35.02 C 98.41 34.03 100.01 33.33 101.62 32.61 Z" fill="#bd5956" />
<path d="M 225.30 34.93 C 227.17 36.44 229.02 37.94 231.14 39.10 C 231.99 42.52 232.35 45.82 232.45 49.34 C 232.46 49.49 232.46 49.64 232.47 49.78 L 232.54 51.43 C 232.16 56.24 232.48 61.10 231.95 65.87 C 231.53 68.57 229.61 69.49 227.57 70.87 C 226.93 75.32 228.73 79.27 228.69 83.75 C 227.88 88.79 225.78 93.27 224.16 98.05 C 222.71 100.02 221.19 101.92 219.91 104.02 C 218.96 102.99 218.02 101.94 217.06 100.91 C 215.13 103.48 213.71 105.91 212.73 109.00 C 212.00 111.72 207.45 112.01 206.48 114.61 C 204.64 118.90 201.34 121.73 198.19 125.18 C 195.79 127.82 192.77 129.73 190.28 132.26 C 187.61 135.32 185.41 138.83 183.03 142.12 C 182.05 143.18 181.01 144.19 179.98 145.20 C 176.75 143.64 174.10 141.80 170.34 141.91 C 169.49 143.24 168.68 144.59 167.87 145.94 L 166.37 144.78 C 167.14 137.63 170.97 130.95 173.70 124.61 C 175.21 118.72 175.78 112.59 174.86 106.54 C 178.05 105.01 179.89 102.38 181.99 99.68 C 182.89 100.06 183.84 100.66 184.82 100.74 C 186.22 99.14 187.45 97.38 188.63 95.61 C 188.07 101.12 187.57 106.58 186.37 112.00 C 190.16 108.08 190.90 103.21 193.73 98.73 C 196.10 94.92 198.87 91.77 200.46 87.47 C 201.81 84.00 201.74 80.64 201.99 76.98 C 202.18 73.67 202.59 70.39 202.68 67.07 C 200.20 69.30 200.24 72.22 199.35 75.26 C 198.38 79.69 196.54 83.61 193.97 87.33 C 193.07 84.03 192.17 81.06 193.74 77.74 C 194.86 74.61 198.28 71.69 197.58 68.31 C 197.36 66.23 196.82 64.50 195.23 63.05 C 193.73 64.49 192.36 66.43 190.55 67.46 C 187.29 67.78 183.98 67.76 180.70 67.80 C 184.10 65.06 188.14 66.52 191.67 64.61 C 193.35 61.54 192.51 57.21 192.50 53.79 C 192.24 51.08 193.03 48.69 190.13 47.18 L 188.63 47.93 C 187.79 46.67 186.89 45.45 185.92 44.30 L 186.31 43.34 L 186.87 41.93 C 185.67 40.19 184.39 38.52 183.15 36.81 C 186.61 37.51 189.73 38.00 191.69 41.29 C 194.87 46.87 198.83 51.89 202.13 57.39 C 205.53 53.21 207.98 48.70 212.10 45.09 C 216.54 40.70 222.27 40.97 225.30 34.93 Z" fill="#9daa74" />
<path d="M 180.20 38.10 C 183.19 38.71 184.58 41.07 186.31 43.34 L 185.92 44.30 C 183.93 43.14 181.95 41.98 179.93 40.87 C 180.01 39.95 180.10 39.02 180.20 38.10 Z" fill="#3e3e4d" />
<path d="M 135.87 40.13 C 135.32 45.95 132.88 50.95 131.28 56.48 C 132.15 56.75 133.03 57.02 133.90 57.29 C 133.32 59.30 132.78 61.30 131.84 63.18 C 129.69 65.25 127.38 67.17 125.31 69.32 C 123.17 71.37 123.00 75.08 121.85 77.77 C 120.87 78.70 119.19 78.96 117.94 79.44 C 117.00 75.01 117.73 70.56 117.06 66.09 C 118.28 59.15 123.59 54.08 128.50 49.48 C 131.65 46.78 133.25 43.25 135.87 40.13 Z" fill="#cc3344" />
<path d="M 80.98 43.16 L 82.27 44.06 C 82.58 47.92 83.20 51.46 85.05 54.92 C 82.85 56.34 80.63 57.92 78.86 59.85 C 76.80 62.17 75.95 64.95 74.96 67.82 C 79.42 63.70 84.40 61.17 86.02 54.97 C 89.58 55.57 93.16 56.81 96.17 58.81 C 101.54 63.58 100.27 70.12 104.75 75.11 C 103.71 78.65 102.62 82.15 101.76 85.73 C 100.81 87.14 99.83 88.52 99.06 90.03 L 98.41 88.77 C 98.01 88.12 97.56 87.49 97.07 86.88 C 95.80 86.09 94.50 85.38 93.20 84.68 C 92.99 82.84 92.78 81.00 92.56 79.17 C 91.50 79.21 90.44 79.26 89.39 79.32 C 89.04 81.00 88.80 82.73 88.33 84.37 C 87.11 85.71 84.75 86.02 83.10 86.68 C 82.64 85.86 82.15 85.72 81.30 85.46 C 78.75 85.24 76.39 85.29 73.85 85.60 C 71.86 85.90 69.68 84.41 67.90 83.65 C 67.04 85.32 66.37 86.98 65.93 88.82 C 66.81 87.98 67.68 87.13 68.55 86.27 C 69.45 87.37 70.21 88.53 70.87 89.78 C 68.20 92.04 65.06 92.72 61.79 93.63 C 62.47 90.30 63.64 87.16 64.95 84.03 C 63.06 85.48 61.06 86.74 59.07 88.04 C 58.13 86.76 57.18 85.51 56.21 84.27 C 57.17 83.86 58.13 83.46 59.09 83.05 C 58.10 81.86 57.11 80.69 56.01 79.60 C 57.06 76.88 58.40 74.48 60.07 72.09 C 63.34 67.29 65.20 62.11 67.85 57.01 C 69.21 55.61 70.50 54.20 71.51 52.52 C 73.82 48.73 77.11 45.35 80.98 43.16 Z" fill="#a9b279" />
<path d="M 215.98 43.20 C 218.09 43.81 219.16 47.35 219.83 49.22 C 222.65 60.00 221.90 71.87 216.99 81.96 C 212.31 92.39 204.88 100.22 198.75 109.78 C 193.26 116.47 188.31 123.55 184.07 131.10 C 182.65 133.70 180.47 135.33 177.98 136.81 C 181.34 131.73 183.63 126.29 187.67 121.69 C 190.64 117.66 193.67 113.74 196.83 109.86 C 200.94 103.74 205.54 98.28 208.46 91.44 C 212.40 84.08 214.73 76.14 216.08 67.93 C 216.48 59.71 215.83 51.42 215.98 43.20 Z" fill="#5c6c3a" />
<path d="M 162.94 44.72 C 159.94 49.53 155.15 52.83 152.16 57.73 L 153.01 58.76 C 152.02 58.91 151.04 59.07 150.06 59.27 C 150.67 59.79 151.38 60.18 152.20 60.43 C 149.48 60.78 147.62 60.77 145.03 59.82 C 144.20 60.43 143.41 61.10 142.61 61.76 C 142.30 61.19 141.99 60.63 141.68 60.07 C 144.01 56.19 146.11 50.26 150.79 48.81 C 154.93 47.22 158.70 45.38 162.94 44.72 Z" fill="#cd3648" />
<path d="M 68.15 47.75 C 66.45 50.50 64.74 53.24 63.06 56.00 C 61.76 58.25 60.38 60.45 58.98 62.64 C 57.32 62.38 55.65 62.15 53.97 61.96 L 54.04 61.15 C 57.09 59.18 57.60 56.54 58.91 53.45 C 60.83 51.77 62.80 50.39 64.42 48.32 C 65.50 46.84 66.64 47.70 68.15 47.75 Z" fill="#d7dbc8" />
<path d="M 190.13 47.18 C 193.03 48.69 192.24 51.08 192.50 53.79 C 192.51 57.21 193.35 61.54 191.67 64.61 C 188.14 66.52 184.10 65.06 180.70 67.80 C 179.08 67.73 177.47 67.53 175.85 67.34 C 175.33 66.23 174.81 65.12 174.25 64.03 C 178.78 62.52 183.49 60.12 187.37 57.35 C 188.53 54.67 190.55 50.65 188.63 47.93 L 190.13 47.18 Z" fill="#262841" />
<path d="M 232.45 49.34 L 232.47 49.78 C 232.46 49.64 232.46 49.49 232.45 49.34 Z" fill="#afb2b1" />
<path d="M 110.54 51.06 C 110.73 56.87 110.90 62.57 111.81 68.33 C 111.96 71.13 111.89 73.87 112.25 76.66 C 112.96 79.97 113.68 83.24 113.76 86.64 C 113.02 88.36 112.28 90.07 111.63 91.82 C 110.46 95.40 109.14 97.77 106.65 100.60 C 104.64 102.78 104.51 105.35 104.16 108.14 C 103.80 107.14 103.45 106.14 103.10 105.14 C 103.16 103.62 103.33 102.11 103.54 100.60 C 102.77 99.79 101.24 99.04 101.11 97.87 C 100.24 94.02 101.17 89.60 101.76 85.73 C 102.62 82.15 103.71 78.65 104.75 75.11 C 106.29 68.06 107.56 60.92 108.79 53.80 C 109.10 52.38 109.16 51.74 110.54 51.06 Z" fill="#cb3342" />
<path d="M 85.05 54.92 L 86.02 54.97 C 84.40 61.17 79.42 63.70 74.96 67.82 C 75.95 64.95 76.80 62.17 78.86 59.85 C 80.63 57.92 82.85 56.34 85.05 54.92 Z" fill="#5e6c37" />
<path d="M 63.06 56.00 C 65.13 60.99 58.91 66.64 54.12 63.90 L 53.97 61.96 C 55.65 62.15 57.32 62.38 58.98 62.64 C 60.38 60.45 61.76 58.25 63.06 56.00 Z" fill="#a17d7b" />
<path d="M 145.03 59.82 C 147.62 60.77 149.48 60.78 152.20 60.43 C 156.60 59.82 159.10 62.28 162.14 64.95 C 160.88 65.62 159.66 66.35 158.44 67.08 L 158.00 65.64 C 157.45 64.71 157.14 63.54 155.96 63.28 C 149.93 65.45 141.39 68.98 135.24 65.84 L 136.17 64.53 C 138.25 63.07 140.42 62.46 141.68 60.07 C 141.99 60.63 142.30 61.19 142.61 61.76 C 143.41 61.10 144.20 60.43 145.03 59.82 Z" fill="#d9dcbc" />
<path d="M 150.06 59.27 C 151.04 59.07 152.02 58.91 153.01 58.76 C 156.08 59.53 159.08 60.71 162.18 61.32 C 164.40 61.34 166.67 60.60 168.82 60.15 C 168.78 61.05 168.74 61.96 168.71 62.86 C 168.68 63.95 168.65 65.04 168.62 66.14 C 166.43 65.88 164.27 65.52 162.14 64.95 C 159.10 62.28 156.60 59.82 152.20 60.43 C 151.38 60.18 150.67 59.79 150.06 59.27 Z" fill="#2d2e43" />
<path d="M 53.46 61.68 L 54.04 61.15 L 53.97 61.96 L 54.12 63.90 C 54.36 66.92 55.09 70.44 54.32 73.40 C 53.40 76.53 51.38 79.38 49.95 82.31 C 48.33 81.55 46.75 80.78 45.06 80.19 C 44.50 74.65 48.73 69.38 51.04 64.48 C 51.69 64.82 52.35 65.16 53.01 65.50 C 53.14 64.22 53.26 62.95 53.46 61.68 Z" fill="#d5d8c8" />
<path d="M 131.84 63.18 C 133.30 63.58 134.73 64.05 136.17 64.53 L 135.24 65.84 C 134.36 66.64 133.35 67.20 132.31 67.75 C 132.19 69.57 132.62 71.27 133.04 73.02 C 130.76 75.37 127.78 75.83 125.08 77.59 C 126.27 80.50 126.19 82.42 123.08 83.75 C 120.76 83.30 118.80 82.37 116.39 82.94 C 115.68 80.81 115.11 78.61 114.58 76.43 C 113.81 76.50 113.03 76.58 112.25 76.66 C 111.89 73.87 111.96 71.13 111.81 68.33 C 113.56 67.59 115.31 66.84 117.06 66.09 C 117.73 70.56 117.00 75.01 117.94 79.44 C 119.19 78.96 120.87 78.70 121.85 77.77 C 123.00 75.08 123.17 71.37 125.31 69.32 C 127.38 67.17 129.69 65.25 131.84 63.18 Z" fill="#c18a52" />
<path d="M 155.96 63.28 C 157.14 63.54 157.45 64.71 158.00 65.64 C 156.97 69.03 156.24 72.48 155.96 76.02 C 156.34 78.14 156.76 80.03 158.65 81.33 C 164.04 84.79 169.65 84.70 175.77 84.33 C 175.56 84.77 175.35 85.21 175.15 85.65 C 173.63 85.04 173.13 86.23 172.01 87.01 C 170.16 88.76 168.04 89.97 165.76 91.07 C 162.69 90.35 159.86 89.77 157.55 87.43 C 153.91 84.19 153.39 79.89 151.92 75.48 L 152.20 74.01 L 152.46 72.79 C 150.35 71.49 149.44 71.34 147.02 71.92 C 145.10 71.15 143.19 70.37 141.29 69.53 C 140.47 70.31 139.66 71.08 138.84 71.85 C 136.29 70.96 134.35 69.47 132.31 67.75 C 133.35 67.20 134.36 66.64 135.24 65.84 C 141.39 68.98 149.93 65.45 155.96 63.28 Z" fill="#596422" />
<path d="M 168.71 62.86 C 170.87 62.65 172.58 62.27 174.25 64.03 C 174.81 65.12 175.33 66.23 175.85 67.34 C 172.57 70.95 168.29 72.61 164.47 75.53 C 162.32 77.41 158.53 76.19 155.96 76.02 C 156.24 72.48 156.97 69.03 158.00 65.64 L 158.44 67.08 C 158.56 68.62 158.52 70.16 158.44 71.70 C 162.65 72.58 166.59 69.59 168.62 66.14 C 168.65 65.04 168.68 63.95 168.71 62.86 Z" fill="#ad8044" />
<path d="M 195.23 63.05 C 196.82 64.50 197.36 66.23 197.58 68.31 C 198.28 71.69 194.86 74.61 193.74 77.74 C 192.17 81.06 193.07 84.03 193.97 87.33 C 192.19 90.09 190.38 92.83 188.63 95.61 C 187.45 97.38 186.22 99.14 184.82 100.74 C 183.84 100.66 182.89 100.06 181.99 99.68 C 179.89 102.38 178.05 105.01 174.86 106.54 C 172.76 101.15 171.40 96.02 172.86 90.23 C 176.46 90.96 178.62 89.37 181.10 87.01 C 180.21 86.02 179.48 85.00 178.80 83.86 C 176.85 84.77 175.93 88.81 173.82 88.38 C 174.27 87.47 174.71 86.56 175.15 85.65 C 175.35 85.21 175.56 84.77 175.77 84.33 C 169.65 84.70 164.04 84.79 158.65 81.33 C 156.76 80.03 156.34 78.14 155.96 76.02 C 158.53 76.19 162.32 77.41 164.47 75.53 C 168.29 72.61 172.57 70.95 175.85 67.34 C 177.47 67.53 179.08 67.73 180.70 67.80 C 183.98 67.76 187.29 67.78 190.55 67.46 C 192.36 66.43 193.73 64.49 195.23 63.05 Z" fill="#7a893b" />
<path d="M 162.14 64.95 C 164.27 65.52 166.43 65.88 168.62 66.14 C 166.59 69.59 162.65 72.58 158.44 71.70 C 158.52 70.16 158.56 68.62 158.44 67.08 C 159.66 66.35 160.88 65.62 162.14 64.95 Z" fill="#cd3440" />
<path d="M 202.68 67.07 C 202.59 70.39 202.18 73.67 201.99 76.98 C 201.74 80.64 201.81 84.00 200.46 87.47 C 198.87 91.77 196.10 94.92 193.73 98.73 C 190.90 103.21 190.16 108.08 186.37 112.00 C 187.57 106.58 188.07 101.12 188.63 95.61 C 190.38 92.83 192.19 90.09 193.97 87.33 C 196.54 83.61 198.38 79.69 199.35 75.26 C 200.24 72.22 200.20 69.30 202.68 67.07 Z" fill="#5d6d3a" />
<path d="M 233.73 66.81 C 234.68 76.57 231.16 85.68 233.32 94.98 C 232.30 96.59 231.22 98.21 230.59 100.03 C 230.62 102.06 231.12 104.02 231.24 106.02 C 231.23 107.95 230.69 109.87 230.64 111.80 C 231.49 113.67 232.80 115.38 233.95 117.08 C 232.11 118.08 229.88 118.92 228.40 120.40 C 227.02 122.42 226.09 124.73 224.82 126.82 C 222.64 130.45 219.83 133.83 218.79 138.04 C 219.65 141.26 221.88 143.70 222.06 147.21 C 219.39 148.33 217.03 148.61 214.16 148.57 C 216.15 152.30 218.59 155.77 220.53 159.52 C 221.45 161.02 220.66 162.19 220.47 163.77 C 221.34 166.02 222.66 168.01 223.21 170.40 C 216.78 164.70 212.91 156.45 206.70 150.31 C 204.89 148.31 201.82 145.84 201.67 142.98 C 201.74 139.50 202.35 136.37 201.09 132.99 C 203.02 131.16 205.07 129.45 207.09 127.73 C 208.19 128.50 209.31 129.26 210.43 130.01 C 210.01 130.60 209.60 131.19 209.18 131.78 C 211.31 132.03 215.30 134.00 216.77 131.73 C 217.23 129.29 214.71 127.24 213.17 125.70 C 213.67 125.59 214.17 125.48 214.68 125.38 C 215.67 122.68 216.71 120.81 218.99 119.00 C 222.30 116.44 222.10 112.06 225.19 109.13 C 227.52 106.93 226.05 103.98 226.36 101.12 C 226.92 96.74 228.71 92.56 229.24 88.16 C 230.10 82.19 229.68 75.34 231.48 69.57 C 231.84 68.30 232.84 67.69 233.73 66.81 Z" fill="#222440" />
<path d="M 132.31 67.75 C 134.35 69.47 136.29 70.96 138.84 71.85 C 139.66 71.08 140.47 70.31 141.29 69.53 C 143.19 70.37 145.10 71.15 147.02 71.92 C 145.79 73.37 144.48 74.70 142.92 75.80 C 141.72 76.63 140.53 77.48 139.33 78.31 C 139.12 79.53 138.91 80.74 138.71 81.95 C 137.91 81.97 137.12 81.99 136.32 82.02 C 136.20 82.91 136.09 83.81 135.97 84.70 C 131.15 85.84 124.57 88.43 119.81 86.20 C 118.12 85.60 117.29 84.41 116.39 82.94 C 118.80 82.37 120.76 83.30 123.08 83.75 C 126.19 82.42 126.27 80.50 125.08 77.59 C 127.78 75.83 130.76 75.37 133.04 73.02 C 132.62 71.27 132.19 69.57 132.31 67.75 Z" fill="#afb482" />
<path d="M 152.46 72.79 L 152.20 74.01 C 147.46 76.33 146.57 80.78 143.21 84.29 C 141.14 85.50 139.39 84.36 139.45 81.99 C 140.78 82.13 141.72 82.81 142.87 81.82 C 144.99 80.18 146.42 77.49 147.77 75.20 C 146.16 75.39 144.53 75.56 142.92 75.80 C 144.48 74.70 145.79 73.37 147.02 71.92 C 149.44 71.34 150.35 71.49 152.46 72.79 Z" fill="#b93640" />
<path d="M 152.20 74.01 L 151.92 75.48 C 150.88 76.51 149.61 77.47 148.81 78.71 C 148.05 80.74 147.83 83.01 146.91 84.96 C 145.37 87.15 143.45 89.04 141.95 91.26 C 140.07 91.38 138.59 90.76 136.91 90.01 C 137.53 88.77 138.05 87.50 138.31 86.13 C 137.85 85.41 137.07 84.93 135.97 84.70 C 136.09 83.81 136.20 82.91 136.32 82.02 C 137.12 81.99 137.91 81.97 138.71 81.95 L 139.45 81.99 C 139.39 84.36 141.14 85.50 143.21 84.29 C 146.57 80.78 147.46 76.33 152.20 74.01 Z" fill="#b37e40" />
<path d="M 147.77 75.20 C 146.42 77.49 144.99 80.18 142.87 81.82 C 141.72 82.81 140.78 82.13 139.45 81.99 L 138.71 81.95 C 138.91 80.74 139.12 79.53 139.33 78.31 C 140.53 77.48 141.72 76.63 142.92 75.80 C 144.53 75.56 146.16 75.39 147.77 75.20 Z" fill="#1f1d38" />
<path d="M 114.58 76.43 C 115.11 78.61 115.68 80.81 116.39 82.94 C 117.29 84.41 118.12 85.60 119.81 86.20 C 124.57 88.43 131.15 85.84 135.97 84.70 C 137.07 84.93 137.85 85.41 138.31 86.13 C 138.05 87.50 137.53 88.77 136.91 90.01 C 135.39 91.25 134.15 92.60 135.05 94.67 C 136.28 96.29 138.08 97.51 139.98 98.21 C 144.93 100.29 149.27 98.95 154.11 97.37 C 154.40 98.43 154.91 99.56 154.85 100.67 C 154.13 101.77 153.23 102.56 151.93 102.87 C 150.54 102.45 149.35 101.27 148.18 100.42 C 147.94 101.51 147.70 102.59 147.45 103.67 C 142.66 103.91 137.92 103.32 134.12 100.11 C 133.92 99.08 133.72 98.05 133.52 97.03 C 133.42 96.22 133.31 95.42 133.19 94.61 C 132.62 94.40 132.03 94.20 131.44 94.01 C 131.54 93.33 131.64 92.66 131.74 91.98 C 127.06 92.44 122.08 93.39 117.58 91.49 C 115.94 90.35 114.85 88.28 113.76 86.64 C 113.68 83.24 112.96 79.97 112.25 76.66 C 113.03 76.58 113.81 76.50 114.58 76.43 Z" fill="#687231" />
<path d="M 151.92 75.48 C 153.39 79.89 153.91 84.19 157.55 87.43 C 159.86 89.77 162.69 90.35 165.76 91.07 C 164.87 94.53 164.57 98.13 163.54 101.55 C 161.77 106.06 157.13 109.44 154.74 113.72 C 153.10 116.39 152.18 119.77 150.12 122.12 C 147.91 124.01 144.94 125.62 142.03 125.95 C 139.44 125.68 136.88 124.72 135.99 122.04 C 134.79 119.15 133.71 116.94 131.09 115.09 C 132.10 118.86 132.93 122.63 133.69 126.47 C 134.01 129.61 138.45 131.25 141.15 131.50 C 144.42 131.52 147.59 127.95 149.89 125.90 C 155.37 121.01 154.67 113.35 160.52 109.48 C 162.12 108.29 163.92 107.30 165.65 106.28 C 166.42 108.63 167.14 110.99 167.97 113.31 C 166.22 113.99 164.89 114.04 163.06 113.86 C 162.65 114.13 162.25 114.42 161.85 114.72 C 159.49 117.08 153.93 119.40 153.92 123.06 C 156.15 122.67 158.27 121.97 160.41 121.24 C 161.12 121.10 161.84 120.96 162.56 120.84 C 159.84 126.34 155.79 130.45 151.72 134.92 C 150.54 136.17 149.34 137.40 148.14 138.63 C 147.36 138.10 146.57 137.57 145.78 137.05 C 144.04 138.97 144.30 140.02 144.59 142.44 C 143.34 142.81 141.61 142.61 140.96 143.93 C 139.37 146.85 138.76 150.26 137.36 153.28 C 135.76 156.82 134.13 160.38 132.41 163.86 C 128.71 170.01 127.54 177.15 123.70 183.29 C 121.91 175.93 124.90 168.60 123.00 161.10 C 122.22 162.08 121.43 163.06 120.66 164.05 C 120.34 160.38 120.51 156.89 118.98 153.43 C 120.88 151.92 122.96 151.87 125.17 151.05 C 126.62 149.94 127.23 147.69 128.02 146.09 C 127.12 145.34 126.23 144.59 125.34 143.83 C 124.39 142.67 123.52 141.46 122.60 140.28 C 118.39 140.71 114.79 142.84 112.10 146.06 C 109.91 147.59 107.57 148.77 105.09 149.74 C 105.41 146.48 105.19 143.21 105.38 139.95 C 105.43 138.02 106.70 137.06 107.78 135.64 C 107.23 135.07 106.67 134.51 106.10 133.95 C 106.99 134.18 107.89 134.42 108.77 134.67 C 109.80 134.90 111.30 135.85 112.30 135.28 C 113.87 134.29 114.98 132.43 116.08 130.97 C 116.99 130.75 117.89 130.54 118.80 130.33 C 120.56 134.15 122.12 138.81 125.67 141.33 C 128.30 143.30 131.85 142.90 134.94 142.87 C 130.68 139.29 124.99 139.16 122.40 134.60 C 120.79 132.16 120.51 128.49 118.28 126.62 C 119.45 124.36 119.97 122.69 119.87 120.10 C 116.99 120.48 115.86 121.29 114.10 123.50 L 113.11 124.76 C 112.68 124.37 112.24 123.99 111.81 123.61 C 109.59 124.94 107.86 125.85 105.19 125.60 C 106.24 121.41 107.35 117.52 110.02 114.02 C 111.90 111.55 114.95 109.80 117.48 108.02 C 118.96 110.06 120.30 111.42 122.96 111.52 C 125.42 110.96 126.80 109.15 128.38 107.36 C 130.43 104.89 132.60 102.81 134.12 100.11 C 137.92 103.32 142.66 103.91 147.45 103.67 C 147.70 102.59 147.94 101.51 148.18 100.42 C 149.35 101.27 150.54 102.45 151.93 102.87 C 153.23 102.56 154.13 101.77 154.85 100.67 C 154.91 99.56 154.40 98.43 154.11 97.37 C 149.27 98.95 144.93 100.29 139.98 98.21 C 140.80 98.18 141.62 98.13 142.44 98.08 C 142.38 95.80 142.32 93.52 141.95 91.26 C 143.45 89.04 145.37 87.15 146.91 84.96 C 147.83 83.01 148.05 80.74 148.81 78.71 C 149.61 77.47 150.88 76.51 151.92 75.48 Z" fill="#7c8a3d" />
<path d="M 89.39 79.32 C 90.44 79.26 91.50 79.21 92.56 79.17 C 92.78 81.00 92.99 82.84 93.20 84.68 C 94.50 85.38 95.80 86.09 97.07 86.88 C 94.51 90.43 94.04 94.30 89.27 95.51 C 89.07 98.29 89.21 100.66 90.13 103.32 C 91.95 100.44 92.26 97.00 94.29 94.31 C 95.64 92.44 97.11 90.67 98.41 88.77 L 99.06 90.03 C 97.36 93.73 95.40 96.71 96.04 101.00 C 96.16 106.50 93.87 111.69 93.66 117.22 C 91.12 114.52 90.57 110.95 88.34 107.97 C 88.57 111.98 88.95 115.98 89.02 120.00 C 86.36 120.54 85.21 121.07 82.96 119.25 C 84.37 117.94 85.66 116.53 86.90 115.07 C 85.29 115.66 83.70 116.28 82.18 117.06 C 81.85 115.44 81.46 113.83 80.95 112.25 C 76.42 112.93 74.08 116.25 70.14 118.05 C 66.38 119.22 62.41 118.78 58.89 117.03 C 64.29 110.35 69.08 103.19 74.43 96.46 C 77.20 92.96 79.51 89.44 83.10 86.68 C 84.75 86.02 87.11 85.71 88.33 84.37 C 88.80 82.73 89.04 81.00 89.39 79.32 Z" fill="#c1c69c" />
<path d="M 45.06 80.19 C 46.75 80.78 48.33 81.55 49.95 82.31 C 49.07 83.99 48.09 85.59 47.01 87.15 C 45.37 86.52 42.78 86.52 43.00 88.92 L 43.03 89.84 L 42.43 89.68 C 39.69 86.85 36.44 85.74 34.84 82.06 C 38.19 81.60 42.46 82.53 45.06 80.19 Z" fill="#c92f43" />
<path d="M 56.01 79.60 C 57.11 80.69 58.10 81.86 59.09 83.05 C 58.13 83.46 57.17 83.86 56.21 84.27 C 57.18 85.51 58.13 86.76 59.07 88.04 C 61.06 86.74 63.06 85.48 64.95 84.03 C 63.64 87.16 62.47 90.30 61.79 93.63 C 65.06 92.72 68.20 92.04 70.87 89.78 C 70.21 88.53 69.45 87.37 68.55 86.27 C 67.68 87.13 66.81 87.98 65.93 88.82 C 66.37 86.98 67.04 85.32 67.90 83.65 C 69.68 84.41 71.86 85.90 73.85 85.60 C 76.39 85.29 78.75 85.24 81.30 85.46 C 77.81 90.86 73.26 95.29 68.23 99.23 C 64.16 102.39 61.12 106.37 58.04 110.44 C 57.42 109.30 56.51 108.13 56.29 106.84 C 56.39 104.54 57.55 102.27 58.05 100.03 C 57.47 98.76 56.32 97.71 55.41 96.65 C 55.82 95.09 56.90 93.12 56.56 91.52 C 55.32 90.73 53.95 90.09 52.63 89.43 C 53.47 86.01 54.54 82.81 56.01 79.60 Z" fill="#c3c89f" />
<path d="M 178.80 83.86 C 179.48 85.00 180.21 86.02 181.10 87.01 C 178.62 89.37 176.46 90.96 172.86 90.23 C 173.17 89.61 173.49 88.99 173.82 88.38 C 175.93 88.81 176.85 84.77 178.80 83.86 Z" fill="#5a6826" />
<path d="M 228.69 83.75 C 228.84 85.22 229.06 86.69 229.24 88.16 C 228.71 92.56 226.92 96.74 226.36 101.12 C 226.05 103.98 227.52 106.93 225.19 109.13 C 222.10 112.06 222.30 116.44 218.99 119.00 C 216.71 120.81 215.67 122.68 214.68 125.38 C 214.17 125.48 213.67 125.59 213.17 125.70 C 214.71 127.24 217.23 129.29 216.77 131.73 C 215.30 134.00 211.31 132.03 209.18 131.78 C 209.60 131.19 210.01 130.60 210.43 130.01 C 210.74 129.57 211.04 129.13 211.35 128.70 C 211.53 127.20 211.43 125.62 212.29 124.33 C 215.14 119.87 218.40 116.25 220.05 111.06 C 221.41 106.69 223.27 102.57 224.16 98.05 C 225.78 93.27 227.88 88.79 228.69 83.75 Z" fill="#f1f2e7" />
<path d="M 83.10 86.68 C 79.51 89.44 77.20 92.96 74.43 96.46 C 69.08 103.19 64.29 110.35 58.89 117.03 C 55.58 120.86 53.52 124.15 53.69 129.43 C 53.17 129.38 52.65 129.33 52.13 129.29 C 52.06 122.33 54.77 116.41 58.04 110.44 C 61.12 106.37 64.16 102.39 68.23 99.23 C 73.26 95.29 77.81 90.86 81.30 85.46 C 82.15 85.72 82.64 85.86 83.10 86.68 Z" fill="#68794a" />
<path d="M 175.15 85.65 C 174.71 86.56 174.27 87.47 173.82 88.38 C 173.49 88.99 173.17 89.61 172.86 90.23 C 171.40 96.02 172.76 101.15 174.86 106.54 C 175.78 112.59 175.21 118.72 173.70 124.61 C 170.97 130.95 167.14 137.63 166.37 144.78 C 165.03 148.54 166.52 153.94 170.75 155.08 C 172.10 155.68 173.46 156.26 174.82 156.82 C 175.45 159.68 176.48 162.66 176.51 165.60 C 176.50 168.16 174.66 169.77 173.35 171.81 C 171.81 174.45 170.64 177.27 168.93 179.82 C 161.02 195.67 153.65 212.04 145.54 227.85 C 145.59 225.09 144.90 222.57 144.06 219.96 C 144.56 221.06 145.16 222.11 145.77 223.16 C 146.81 221.37 149.26 219.00 148.05 216.80 C 146.50 213.34 145.94 210.20 147.48 206.59 C 148.20 203.44 152.39 204.44 154.92 203.14 C 156.55 202.64 156.87 200.51 156.55 199.04 C 156.47 198.39 156.39 197.73 156.32 197.07 C 157.57 194.11 158.37 191.39 158.61 188.17 L 156.93 187.95 L 156.15 187.85 C 156.38 185.41 156.32 182.98 156.16 180.53 C 155.26 180.98 154.36 181.43 153.47 181.88 C 153.68 178.42 153.85 175.07 153.31 171.63 C 152.89 168.87 152.42 166.12 152.04 163.36 C 152.92 160.63 153.65 157.96 153.82 155.08 C 150.89 155.72 148.70 157.45 146.20 158.96 C 146.81 157.01 147.04 155.05 148.72 153.68 C 150.56 153.07 152.67 153.11 154.59 152.98 C 154.70 148.27 154.93 143.65 156.28 139.11 C 158.58 137.60 159.86 135.49 161.32 133.25 C 163.74 129.45 169.16 127.40 170.21 122.93 C 171.42 119.28 169.15 116.63 167.97 113.31 C 167.14 110.99 166.42 108.63 165.65 106.28 C 163.92 107.30 162.12 108.29 160.52 109.48 C 154.67 113.35 155.37 121.01 149.89 125.90 C 147.59 127.95 144.42 131.52 141.15 131.50 C 138.45 131.25 134.01 129.61 133.69 126.47 C 132.93 122.63 132.10 118.86 131.09 115.09 C 133.71 116.94 134.79 119.15 135.99 122.04 C 136.88 124.72 139.44 125.68 142.03 125.95 C 144.94 125.62 147.91 124.01 150.12 122.12 C 152.18 119.77 153.10 116.39 154.74 113.72 C 157.13 109.44 161.77 106.06 163.54 101.55 C 164.57 98.13 164.87 94.53 165.76 91.07 C 168.04 89.97 170.16 88.76 172.01 87.01 C 173.13 86.23 173.63 85.04 175.15 85.65 Z" fill="#20233f" />
<path d="M 101.76 85.73 C 101.17 89.60 100.24 94.02 101.11 97.87 C 101.24 99.04 102.77 99.79 103.54 100.60 C 103.33 102.11 103.16 103.62 103.10 105.14 C 100.63 103.97 98.31 102.53 96.04 101.00 C 95.40 96.71 97.36 93.73 99.06 90.03 C 99.83 88.52 100.81 87.14 101.76 85.73 Z" fill="#c27d43" />
<path d="M 47.01 87.15 C 46.19 88.52 44.55 89.15 43.00 88.92 C 42.78 86.52 45.37 86.52 47.01 87.15 Z" fill="#debac1" />
<path d="M 97.07 86.88 C 97.56 87.49 98.01 88.12 98.41 88.77 C 97.11 90.67 95.64 92.44 94.29 94.31 C 92.26 97.00 91.95 100.44 90.13 103.32 C 89.21 100.66 89.07 98.29 89.27 95.51 C 94.04 94.30 94.51 90.43 97.07 86.88 Z" fill="#0e0f23" />
<path d="M 113.76 86.64 C 114.85 88.28 115.94 90.35 117.58 91.49 C 122.08 93.39 127.06 92.44 131.74 91.98 C 131.64 92.66 131.54 93.33 131.44 94.01 C 130.24 94.95 129.07 95.94 127.88 96.90 C 124.51 98.27 122.82 99.96 120.56 102.71 C 118.75 104.34 118.13 105.68 117.48 108.02 C 114.95 109.80 111.90 111.55 110.02 114.02 C 107.35 117.52 106.24 121.41 105.19 125.60 C 107.86 125.85 109.59 124.94 111.81 123.61 C 112.24 123.99 112.68 124.37 113.11 124.76 L 112.01 126.18 C 111.07 126.55 110.12 126.89 109.17 127.20 C 107.30 127.19 105.19 127.34 103.42 126.71 C 102.45 125.90 101.59 124.94 100.71 124.02 C 100.21 123.48 99.70 122.95 99.18 122.42 C 99.86 121.54 100.79 120.68 101.19 119.64 C 101.14 118.08 99.94 116.62 99.81 115.03 C 99.74 111.65 100.57 108.25 100.80 104.88 C 100.01 105.88 99.29 106.76 99.07 108.06 C 98.27 111.91 97.54 115.68 95.86 119.27 C 95.12 118.60 94.38 117.92 93.66 117.22 C 93.87 111.69 96.16 106.50 96.04 101.00 C 98.31 102.53 100.63 103.97 103.10 105.14 C 103.45 106.14 103.80 107.14 104.16 108.14 L 104.40 108.91 C 105.78 108.35 107.92 108.15 108.70 106.78 C 110.17 104.52 111.98 102.67 113.83 100.73 C 114.92 97.22 113.15 94.80 111.63 91.82 C 112.28 90.07 113.02 88.36 113.76 86.64 Z" fill="#a1a96e" />
<path d="M 40.26 90.95 C 40.97 90.51 41.69 90.09 42.43 89.68 L 43.03 89.84 C 42.70 96.08 45.48 101.59 45.05 107.79 C 45.95 106.88 46.88 105.98 47.78 105.05 C 48.50 105.23 49.22 105.41 49.94 105.58 C 49.52 107.41 49.40 109.68 48.30 111.24 C 46.93 112.30 45.35 113.13 43.88 114.05 C 43.25 114.69 42.64 115.36 42.07 116.04 C 41.55 115.75 41.02 115.47 40.50 115.18 C 40.17 111.38 38.79 107.78 38.46 104.01 C 38.55 99.64 39.28 95.21 40.26 90.95 Z" fill="#d5d7c7" />
<path d="M 52.63 89.43 C 53.95 90.09 55.32 90.73 56.56 91.52 C 56.90 93.12 55.82 95.09 55.41 96.65 C 56.32 97.71 57.47 98.76 58.05 100.03 C 57.55 102.27 56.39 104.54 56.29 106.84 C 56.51 108.13 57.42 109.30 58.04 110.44 C 54.77 116.41 52.06 122.33 52.13 129.29 C 49.78 130.24 48.38 130.02 46.03 129.35 C 46.61 127.98 48.55 126.09 47.63 124.59 C 46.39 124.55 45.17 124.61 43.92 124.66 C 44.15 121.12 44.07 117.59 43.88 114.05 C 45.35 113.13 46.93 112.30 48.30 111.24 C 49.40 109.68 49.52 107.41 49.94 105.58 C 49.22 105.41 48.50 105.23 47.78 105.05 C 50.63 100.43 50.64 94.55 52.63 89.43 Z" fill="#f4f4e9" />
<path d="M 136.91 90.01 C 138.59 90.76 140.07 91.38 141.95 91.26 C 142.32 93.52 142.38 95.80 142.44 98.08 C 141.62 98.13 140.80 98.18 139.98 98.21 C 138.08 97.51 136.28 96.29 135.05 94.67 C 134.15 92.60 135.39 91.25 136.91 90.01 Z" fill="#9da56a" />
<path d="M 111.63 91.82 C 113.15 94.80 114.92 97.22 113.83 100.73 C 111.98 102.67 110.17 104.52 108.70 106.78 C 107.92 108.15 105.78 108.35 104.40 108.91 L 104.16 108.14 C 104.51 105.35 104.64 102.78 106.65 100.60 C 109.14 97.77 110.46 95.40 111.63 91.82 Z" fill="#b2874e" />
<path d="M 131.44 94.01 C 132.03 94.20 132.62 94.40 133.19 94.61 C 133.31 95.42 133.42 96.22 133.52 97.03 C 132.80 98.66 132.35 101.02 130.96 102.19 C 129.31 102.21 127.66 102.11 126.02 102.02 C 126.55 100.27 127.05 98.54 127.88 96.90 C 129.07 95.94 130.24 94.95 131.44 94.01 Z" fill="#1f213c" />
<path d="M 127.88 96.90 C 127.05 98.54 126.55 100.27 126.02 102.02 C 127.66 102.11 129.31 102.21 130.96 102.19 C 128.16 103.67 125.76 105.30 122.56 105.71 C 121.90 104.71 121.23 103.71 120.56 102.71 C 122.82 99.96 124.51 98.27 127.88 96.90 Z" fill="#bb3141" />
<path d="M 133.52 97.03 C 133.72 98.05 133.92 99.08 134.12 100.11 C 132.60 102.81 130.43 104.89 128.38 107.36 C 126.80 109.15 125.42 110.96 122.96 111.52 C 120.30 111.42 118.96 110.06 117.48 108.02 C 118.13 105.68 118.75 104.34 120.56 102.71 C 121.23 103.71 121.90 104.71 122.56 105.71 C 125.76 105.30 128.16 103.67 130.96 102.19 C 132.35 101.02 132.80 98.66 133.52 97.03 Z" fill="#b37331" />
<path d="M 224.16 98.05 C 223.27 102.57 221.41 106.69 220.05 111.06 C 218.40 116.25 215.14 119.87 212.29 124.33 C 211.43 125.62 211.53 127.20 211.35 128.70 C 211.04 129.13 210.74 129.57 210.43 130.01 C 209.31 129.26 208.19 128.50 207.09 127.73 C 205.07 129.45 203.02 131.16 201.09 132.99 C 199.83 135.22 200.59 138.19 199.40 140.29 C 196.70 143.57 190.66 142.76 186.84 144.24 C 187.42 144.79 188.18 145.10 189.11 145.16 C 187.00 145.27 184.95 145.67 182.87 145.99 C 181.90 145.77 180.94 145.50 179.98 145.20 C 181.01 144.19 182.05 143.18 183.03 142.12 C 184.76 141.83 186.35 141.90 187.79 140.76 C 193.72 136.25 199.42 131.95 204.11 126.09 C 207.32 121.99 210.94 118.23 214.15 114.13 C 216.62 111.02 218.07 107.49 219.91 104.02 C 221.19 101.92 222.71 100.02 224.16 98.05 Z" fill="#d9ddc0" />
<path d="M 217.06 100.91 C 218.02 101.94 218.96 102.99 219.91 104.02 C 218.07 107.49 216.62 111.02 214.15 114.13 C 210.94 118.23 207.32 121.99 204.11 126.09 C 199.42 131.95 193.72 136.25 187.79 140.76 C 186.35 141.90 184.76 141.83 183.03 142.12 C 185.41 138.83 187.61 135.32 190.28 132.26 C 192.77 129.73 195.79 127.82 198.19 125.18 C 201.34 121.73 204.64 118.90 206.48 114.61 C 207.45 112.01 212.00 111.72 212.73 109.00 C 213.71 105.91 215.13 103.48 217.06 100.91 Z" fill="#afb98a" />
<path d="M 100.80 104.88 C 100.57 108.25 99.74 111.65 99.81 115.03 C 99.94 116.62 101.14 118.08 101.19 119.64 C 100.79 120.68 99.86 121.54 99.18 122.42 C 98.10 121.34 96.99 120.30 95.86 119.27 C 97.54 115.68 98.27 111.91 99.07 108.06 C 99.29 106.76 100.01 105.88 100.80 104.88 Z" fill="#f0eed5" />
<path d="M 151.93 107.35 C 151.69 110.72 150.62 111.08 147.89 112.60 C 147.61 113.36 147.34 114.12 147.06 114.88 C 146.53 113.06 146.03 111.23 145.55 109.40 C 141.49 108.09 137.89 109.22 133.86 109.85 C 138.65 104.89 145.88 106.46 151.93 107.35 Z" fill="#21242d" />
<path d="M 88.34 107.97 C 90.57 110.95 91.12 114.52 93.66 117.22 C 94.38 117.92 95.12 118.60 95.86 119.27 C 96.99 120.30 98.10 121.34 99.18 122.42 C 99.70 122.95 100.21 123.48 100.71 124.02 C 100.50 126.22 100.33 128.40 99.80 130.56 C 99.09 133.00 98.23 135.42 97.43 137.84 C 96.18 134.53 96.79 131.40 92.91 129.93 C 93.50 132.83 94.53 135.27 94.32 138.26 C 92.90 135.95 91.90 133.46 91.02 130.90 C 89.88 127.35 89.13 123.73 89.02 120.00 C 88.95 115.98 88.57 111.98 88.34 107.97 Z" fill="#cc3244" />
<path d="M 80.95 112.25 C 81.46 113.83 81.85 115.44 82.18 117.06 C 79.16 119.14 76.23 121.28 72.97 122.98 C 70.53 124.27 68.77 125.64 67.05 127.81 C 69.70 126.52 72.31 125.15 75.03 124.01 C 75.28 124.71 75.52 125.41 75.77 126.11 C 72.31 129.53 68.74 132.92 64.85 135.86 C 60.72 138.74 56.33 141.23 52.26 144.21 C 52.49 143.42 52.71 142.63 52.92 141.83 C 51.20 142.87 49.47 143.62 47.57 144.25 C 46.44 139.31 51.00 137.23 50.62 132.77 C 48.56 134.48 47.54 136.49 44.52 135.73 C 44.27 132.01 43.69 128.41 43.92 124.66 C 45.17 124.61 46.39 124.55 47.63 124.59 C 48.55 126.09 46.61 127.98 46.03 129.35 C 48.38 130.02 49.78 130.24 52.13 129.29 C 52.65 129.33 53.17 129.38 53.69 129.43 C 53.52 124.15 55.58 120.86 58.89 117.03 C 62.41 118.78 66.38 119.22 70.14 118.05 C 74.08 116.25 76.42 112.93 80.95 112.25 Z" fill="#dedfc6" />
<path d="M 142.60 112.90 C 142.71 114.43 141.93 116.80 143.35 117.83 C 144.90 118.29 146.90 116.88 148.37 116.40 C 147.48 120.73 141.85 121.23 139.05 118.71 C 138.84 116.12 140.08 113.79 142.60 112.90 Z" fill="#282d25" />
<path d="M 163.06 113.86 C 164.89 114.04 166.22 113.99 167.97 113.31 C 169.15 116.63 171.42 119.28 170.21 122.93 C 169.16 127.40 163.74 129.45 161.32 133.25 C 159.86 135.49 158.58 137.60 156.28 139.11 C 154.80 137.67 153.30 136.25 151.72 134.92 C 155.79 130.45 159.84 126.34 162.56 120.84 C 161.84 120.96 161.12 121.10 160.41 121.24 C 160.99 119.09 161.51 116.92 161.85 114.72 C 162.25 114.42 162.65 114.13 163.06 113.86 Z" fill="#99a45f" />
<path d="M 43.88 114.05 C 44.07 117.59 44.15 121.12 43.92 124.66 C 43.69 128.41 44.27 132.01 44.52 135.73 C 47.54 136.49 48.56 134.48 50.62 132.77 C 51.00 137.23 46.44 139.31 47.57 144.25 C 45.25 144.92 43.47 147.12 41.11 147.31 C 38.85 145.85 38.19 142.20 37.35 139.81 C 38.57 137.33 39.86 134.88 41.16 132.44 C 39.90 132.82 38.64 133.20 37.38 133.60 C 37.27 130.57 36.73 127.26 37.38 124.29 C 38.59 121.39 40.42 118.71 42.07 116.04 C 42.64 115.36 43.25 114.69 43.88 114.05 Z" fill="#949574" />
<path d="M 86.90 115.07 C 85.66 116.53 84.37 117.94 82.96 119.25 C 80.49 121.17 77.97 122.88 75.03 124.01 C 72.31 125.15 69.70 126.52 67.05 127.81 C 68.77 125.64 70.53 124.27 72.97 122.98 C 76.23 121.28 79.16 119.14 82.18 117.06 C 83.70 116.28 85.29 115.66 86.90 115.07 Z" fill="#474546" />
<path d="M 161.85 114.72 C 161.51 116.92 160.99 119.09 160.41 121.24 C 158.27 121.97 156.15 122.67 153.92 123.06 C 153.93 119.40 159.49 117.08 161.85 114.72 Z" fill="#adb987" />
<path d="M 224.21 118.19 C 225.89 118.40 225.49 120.76 224.01 120.98 C 222.34 120.75 222.75 118.44 224.21 118.19 Z" fill="#72718f" />
<path d="M 82.96 119.25 C 85.21 121.07 86.36 120.54 89.02 120.00 C 89.13 123.73 89.88 127.35 91.02 130.90 C 89.81 132.21 88.72 133.60 87.58 134.97 C 88.46 136.76 89.10 138.94 90.43 140.45 C 92.40 141.87 94.46 143.10 96.26 144.75 C 97.30 145.52 98.13 146.62 99.36 145.37 C 100.71 143.83 99.46 142.76 99.00 141.16 C 101.22 138.66 102.18 135.91 103.09 132.75 C 104.32 137.34 104.16 141.89 102.23 146.26 C 101.49 146.96 100.69 147.58 99.82 148.14 C 97.39 149.89 93.02 151.53 93.81 155.23 L 92.61 156.21 C 89.52 158.77 89.35 160.47 90.86 164.12 C 87.92 165.87 85.74 168.09 82.01 167.41 C 77.98 166.36 74.15 164.04 70.50 162.06 C 70.28 161.43 70.06 160.80 69.83 160.17 C 69.20 160.42 68.58 160.67 67.95 160.92 C 67.33 161.87 66.71 162.83 66.11 163.80 C 66.06 162.92 65.88 162.27 65.47 161.48 C 66.68 159.85 67.87 158.21 68.79 156.39 C 70.46 152.25 71.77 148.18 74.51 144.58 C 76.13 142.55 75.63 140.49 75.67 138.09 C 65.71 144.73 57.46 153.44 54.07 165.18 C 57.60 161.41 57.86 156.68 62.17 153.52 C 62.34 155.10 62.24 156.37 61.78 157.90 C 59.34 159.58 58.32 162.44 57.07 165.02 C 55.96 166.82 57.44 168.64 57.13 170.50 C 55.73 172.86 54.00 174.36 51.11 174.24 C 49.98 173.34 47.50 172.29 48.00 170.50 C 48.04 169.38 48.36 168.47 47.57 167.51 C 44.47 163.19 41.30 159.19 39.07 154.29 L 39.58 153.09 C 40.62 153.69 41.69 154.80 42.92 154.92 C 47.07 153.11 49.76 147.79 52.26 144.21 C 56.33 141.23 60.72 138.74 64.85 135.86 C 68.74 132.92 72.31 129.53 75.77 126.11 C 75.52 125.41 75.28 124.71 75.03 124.01 C 77.97 122.88 80.49 121.17 82.96 119.25 Z" fill="#f0f0ef" />
<path d="M 119.87 120.10 C 119.97 122.69 119.45 124.36 118.28 126.62 C 117.32 127.07 116.36 127.54 115.41 128.02 C 115.12 126.34 116.00 124.33 114.10 123.50 C 115.86 121.29 116.99 120.48 119.87 120.10 Z" fill="#ba3939" />
<path d="M 100.71 124.02 C 101.59 124.94 102.45 125.90 103.42 126.71 C 105.19 127.34 107.30 127.19 109.17 127.20 C 109.98 130.18 109.93 131.73 108.77 134.67 C 107.89 134.42 106.99 134.18 106.10 133.95 C 105.09 133.56 104.09 133.16 103.09 132.75 C 101.96 132.06 100.89 131.31 99.80 130.56 C 100.33 128.40 100.50 126.22 100.71 124.02 Z" fill="#5a6122" />
<path d="M 114.10 123.50 C 116.00 124.33 115.12 126.34 115.41 128.02 L 115.50 128.99 C 114.42 129.51 113.27 129.92 112.07 130.22 C 112.07 128.87 112.05 127.53 112.01 126.18 L 113.11 124.76 L 114.10 123.50 Z" fill="#441f2b" />
<path d="M 31.81 124.81 C 32.28 127.90 32.50 131.02 32.94 134.12 C 32.19 133.59 31.43 133.08 30.66 132.58 C 30.84 130.32 29.39 126.13 31.81 124.81 Z" fill="#443547" />
<path d="M 112.01 126.18 C 112.05 127.53 112.07 128.87 112.07 130.22 C 113.27 129.92 114.42 129.51 115.50 128.99 C 115.68 129.65 115.88 130.31 116.08 130.97 C 114.98 132.43 113.87 134.29 112.30 135.28 C 111.30 135.85 109.80 134.90 108.77 134.67 C 109.93 131.73 109.98 130.18 109.17 127.20 C 110.12 126.89 111.07 126.55 112.01 126.18 Z" fill="#ac4844" />
<path d="M 118.28 126.62 C 120.51 128.49 120.79 132.16 122.40 134.60 C 124.99 139.16 130.68 139.29 134.94 142.87 C 131.85 142.90 128.30 143.30 125.67 141.33 C 122.12 138.81 120.56 134.15 118.80 130.33 C 117.89 130.54 116.99 130.75 116.08 130.97 C 115.88 130.31 115.68 129.65 115.50 128.99 L 115.41 128.02 C 116.36 127.54 117.32 127.07 118.28 126.62 Z" fill="#546018" />
<path d="M 64.05 129.89 C 61.26 133.68 57.76 137.14 53.93 139.87 C 56.13 135.62 59.86 132.13 64.05 129.89 Z" fill="#848477" />
<path d="M 92.91 129.93 C 96.79 131.40 96.18 134.53 97.43 137.84 C 98.23 135.42 99.09 133.00 99.80 130.56 C 100.89 131.31 101.96 132.06 103.09 132.75 C 102.18 135.91 101.22 138.66 99.00 141.16 C 97.11 140.45 95.38 140.17 94.32 138.26 C 94.53 135.27 93.50 132.83 92.91 129.93 Z" fill="#ce875a" />
<path d="M 91.02 130.90 C 91.90 133.46 92.90 135.95 94.32 138.26 C 95.38 140.17 97.11 140.45 99.00 141.16 C 99.46 142.76 100.71 143.83 99.36 145.37 C 98.13 146.62 97.30 145.52 96.26 144.75 C 94.46 143.10 92.40 141.87 90.43 140.45 C 89.10 138.94 88.46 136.76 87.58 134.97 C 88.72 133.60 89.81 132.21 91.02 130.90 Z" fill="#e2b99a" />
<path d="M 30.66 132.58 C 31.43 133.08 32.19 133.59 32.94 134.12 C 34.40 141.08 35.86 147.88 39.07 154.29 C 41.30 159.19 44.47 163.19 47.57 167.51 C 48.36 168.47 48.04 169.38 48.00 170.50 C 47.50 172.29 49.98 173.34 51.11 174.24 C 53.64 175.50 54.07 176.52 55.05 179.09 C 51.79 177.16 49.14 174.56 46.21 172.19 C 45.46 172.65 44.70 173.12 43.95 173.58 C 42.60 171.44 41.36 169.19 39.87 167.15 C 37.64 164.66 33.70 163.85 32.74 160.34 C 31.57 157.54 33.07 154.18 32.90 151.12 C 32.58 147.37 32.26 143.81 30.07 140.61 C 29.47 137.52 29.62 135.55 30.66 132.58 Z" fill="#d64353" />
<path d="M 103.09 132.75 C 104.09 133.16 105.09 133.56 106.10 133.95 C 106.67 134.51 107.23 135.07 107.78 135.64 C 106.70 137.06 105.43 138.02 105.38 139.95 C 105.19 143.21 105.41 146.48 105.09 149.74 C 103.81 150.26 102.53 150.80 101.28 151.40 C 100.80 150.31 100.31 149.22 99.82 148.14 C 100.69 147.58 101.49 146.96 102.23 146.26 C 104.16 141.89 104.32 137.34 103.09 132.75 Z" fill="#b6ba82" />
<path d="M 151.72 134.92 C 153.30 136.25 154.80 137.67 156.28 139.11 C 154.93 143.65 154.70 148.27 154.59 152.98 C 152.67 153.11 150.56 153.07 148.72 153.68 C 147.04 155.05 146.81 157.01 146.20 158.96 C 148.70 157.45 150.89 155.72 153.82 155.08 C 153.65 157.96 152.92 160.63 152.04 163.36 C 151.39 162.64 150.72 161.93 150.05 161.23 C 150.34 163.12 150.67 165.01 151.02 166.90 C 150.11 167.75 149.21 168.61 148.30 169.46 C 148.48 171.16 148.65 172.86 148.79 174.56 C 147.89 174.55 146.99 174.53 146.09 174.52 C 146.67 175.56 147.25 176.61 147.84 177.66 C 146.72 177.64 145.58 177.59 144.47 177.68 C 143.26 178.73 142.47 180.35 141.67 181.72 C 140.49 183.69 139.21 185.59 137.97 187.53 C 137.25 187.09 136.54 186.65 135.82 186.21 C 134.12 188.52 132.34 190.85 130.44 193.00 C 129.02 192.64 127.60 192.29 126.16 192.03 C 127.27 190.44 128.21 188.70 129.22 187.04 C 128.82 186.48 128.42 185.91 128.02 185.35 C 127.05 186.25 126.09 187.18 125.15 188.12 C 125.29 181.48 129.11 177.17 131.25 171.22 C 132.15 168.74 133.14 166.54 132.41 163.86 C 134.13 160.38 135.76 156.82 137.36 153.28 C 138.76 150.26 139.37 146.85 140.96 143.93 C 141.61 142.61 143.34 142.81 144.59 142.44 C 144.30 140.02 144.04 138.97 145.78 137.05 C 146.57 137.57 147.36 138.10 148.14 138.63 C 149.34 137.40 150.54 136.17 151.72 134.92 Z" fill="#d3cf95" />
<path d="M 75.67 138.09 C 75.63 140.49 76.13 142.55 74.51 144.58 C 71.77 148.18 70.46 152.25 68.79 156.39 C 67.37 154.97 66.06 153.45 64.77 151.91 C 63.89 152.42 63.02 152.95 62.17 153.52 C 57.86 156.68 57.60 161.41 54.07 165.18 C 57.46 153.44 65.71 144.73 75.67 138.09 Z" fill="#26223d" />
<path d="M 37.35 139.81 C 38.19 142.20 38.85 145.85 41.11 147.31 C 43.47 147.12 45.25 144.92 47.57 144.25 C 49.47 143.62 51.20 142.87 52.92 141.83 C 52.71 142.63 52.49 143.42 52.26 144.21 C 49.76 147.79 47.07 153.11 42.92 154.92 C 41.69 154.80 40.62 153.69 39.58 153.09 C 39.86 152.43 40.13 151.78 40.40 151.12 C 39.11 149.43 37.88 147.67 36.83 145.82 C 36.26 143.96 36.94 141.67 37.35 139.81 Z" fill="#c0c0a8" />
<path d="M 122.60 140.28 C 123.52 141.46 124.39 142.67 125.34 143.83 C 120.95 144.73 116.49 145.19 112.10 146.06 C 114.79 142.84 118.39 140.71 122.60 140.28 Z" fill="#b84845" />
<path d="M 30.07 140.61 C 32.26 143.81 32.58 147.37 32.90 151.12 C 33.07 154.18 31.57 157.54 32.74 160.34 C 33.70 163.85 37.64 164.66 39.87 167.15 C 41.36 169.19 42.60 171.44 43.95 173.58 C 44.70 173.12 45.46 172.65 46.21 172.19 C 49.14 174.56 51.79 177.16 55.05 179.09 L 56.23 180.33 C 56.11 182.06 56.05 183.88 55.64 185.57 C 54.53 187.20 52.70 188.41 51.19 189.66 C 52.69 190.49 54.19 191.33 55.70 192.15 C 54.63 196.24 51.99 199.10 48.95 201.88 C 46.38 201.55 47.66 198.55 47.38 196.79 C 46.23 198.94 45.92 201.22 45.65 203.61 C 45.07 204.12 44.50 204.62 43.93 205.12 C 41.11 204.11 37.53 203.98 36.09 200.93 C 33.51 196.33 30.93 191.43 29.47 186.36 C 27.86 181.51 27.75 176.44 26.53 171.44 C 25.24 166.01 25.83 160.69 25.93 154.96 C 25.95 149.74 28.52 145.80 30.07 140.61 Z" fill="#21233e" />
<path d="M 170.34 141.91 C 174.10 141.80 176.75 143.64 179.98 145.20 C 180.94 145.50 181.90 145.77 182.87 145.99 C 180.92 148.03 179.49 150.12 176.67 150.95 C 174.11 151.68 172.51 153.19 170.75 155.08 C 166.52 153.94 165.03 148.54 166.37 144.78 L 167.87 145.94 C 168.68 144.59 169.49 143.24 170.34 141.91 Z" fill="#728148" />
<path d="M 92.30 143.42 C 94.00 143.28 92.35 148.77 91.12 148.35 C 90.64 146.97 91.02 144.27 92.30 143.42 Z" fill="#afadae" />
<path d="M 125.34 143.83 C 126.23 144.59 127.12 145.34 128.02 146.09 C 127.23 147.69 126.62 149.94 125.17 151.05 C 122.96 151.87 120.88 151.92 118.98 153.43 C 118.38 153.95 117.79 154.48 117.19 155.01 C 117.43 153.65 117.70 152.30 118.00 150.96 C 115.89 150.84 113.97 150.97 111.92 151.46 C 108.52 152.20 105.18 152.67 101.86 153.75 C 100.89 154.05 99.94 154.39 99.00 154.77 C 96.79 155.60 95.06 156.78 92.61 156.21 L 93.81 155.23 C 96.34 154.02 98.81 152.72 101.28 151.40 C 102.53 150.80 103.81 150.26 105.09 149.74 C 107.57 148.77 109.91 147.59 112.10 146.06 C 116.49 145.19 120.95 144.73 125.34 143.83 Z" fill="#22203c" />
<path d="M 189.11 145.16 C 192.47 144.82 193.93 146.91 196.51 148.49 C 198.14 149.05 200.25 148.39 201.94 148.27 C 203.74 151.40 201.14 155.59 200.58 158.94 C 198.81 163.43 198.74 166.58 199.69 171.31 C 200.59 176.70 201.61 182.02 202.90 187.33 C 203.51 190.23 204.11 193.12 204.92 195.96 C 205.32 197.40 205.69 198.84 206.00 200.30 L 205.81 201.88 C 204.98 202.46 204.16 203.05 203.33 203.63 C 202.33 202.77 201.00 201.94 200.38 200.76 C 199.68 198.94 199.66 196.86 199.14 194.98 C 197.61 192.48 195.38 191.03 194.97 187.87 C 194.47 184.66 192.98 181.99 191.91 179.00 C 191.36 173.53 188.61 168.89 187.65 163.48 C 185.82 161.82 182.71 161.23 180.52 159.99 L 180.15 158.78 C 179.50 155.62 178.59 153.53 176.67 150.95 C 179.49 150.12 180.92 148.03 182.87 145.99 C 184.95 145.67 187.00 145.27 189.11 145.16 Z" fill="#21233f" />
<path d="M 222.06 147.21 C 222.39 150.46 223.37 153.34 224.67 156.32 C 226.71 160.97 227.40 165.39 230.55 169.46 C 232.72 172.52 235.24 175.72 233.17 179.59 C 229.18 177.13 226.69 173.45 223.21 170.40 C 222.66 168.01 221.34 166.02 220.47 163.77 C 220.66 162.19 221.45 161.02 220.53 159.52 C 218.59 155.77 216.15 152.30 214.16 148.57 C 217.03 148.61 219.39 148.33 222.06 147.21 Z" fill="#db3f54" />
<path d="M 99.82 148.14 C 100.31 149.22 100.80 150.31 101.28 151.40 C 98.81 152.72 96.34 154.02 93.81 155.23 C 93.02 151.53 97.39 149.89 99.82 148.14 Z" fill="#cacfb9" />
<path d="M 218.09 148.76 C 220.75 148.90 221.39 153.01 222.03 155.00 C 220.00 153.15 218.82 151.44 218.09 148.76 Z" fill="#fba9b7" />
<path d="M 118.00 150.96 C 117.70 152.30 117.43 153.65 117.19 155.01 C 114.76 157.06 112.95 159.15 111.28 161.86 C 112.01 158.21 113.32 155.14 111.92 151.46 C 113.97 150.97 115.89 150.84 118.00 150.96 Z" fill="#c23643" />
<path d="M 176.67 150.95 C 178.59 153.53 179.50 155.62 180.15 158.78 C 179.04 158.05 177.92 157.33 176.76 156.68 C 176.11 156.72 175.47 156.77 174.82 156.82 C 173.46 156.26 172.10 155.68 170.75 155.08 C 172.51 153.19 174.11 151.68 176.67 150.95 Z" fill="#d2424f" />
<path d="M 64.77 151.91 C 66.06 153.45 67.37 154.97 68.79 156.39 C 67.87 158.21 66.68 159.85 65.47 161.48 C 63.79 160.62 62.83 159.41 61.78 157.90 C 62.24 156.37 62.34 155.10 62.17 153.52 C 63.02 152.95 63.89 152.42 64.77 151.91 Z" fill="#c85e60" />
<path d="M 111.92 151.46 C 113.32 155.14 112.01 158.21 111.28 161.86 C 112.95 159.15 114.76 157.06 117.19 155.01 C 117.79 154.48 118.38 153.95 118.98 153.43 C 120.51 156.89 120.34 160.38 120.66 164.05 C 121.43 163.06 122.22 162.08 123.00 161.10 C 124.90 168.60 121.91 175.93 123.70 183.29 C 122.53 183.91 121.31 184.43 120.09 184.94 C 117.06 185.88 115.40 188.24 112.85 189.88 C 110.30 191.45 106.71 190.80 103.92 190.33 C 105.29 190.26 106.67 190.17 108.04 190.05 C 106.70 187.57 105.62 186.68 103.01 185.62 C 105.61 185.07 108.26 184.60 110.91 184.44 C 113.42 185.35 114.80 184.36 114.38 181.67 C 114.27 180.67 114.16 179.66 114.05 178.66 C 115.27 177.79 116.45 176.86 117.59 175.89 L 117.19 174.83 C 116.46 173.07 115.59 171.11 114.26 169.72 C 112.47 168.17 110.13 167.29 108.37 165.72 C 107.64 164.38 107.22 162.86 106.51 161.49 C 105.43 160.46 103.98 159.75 102.70 158.99 C 102.75 157.87 102.83 156.76 102.93 155.65 C 103.54 154.80 104.27 154.25 105.11 153.99 C 104.02 153.91 102.94 153.83 101.86 153.75 C 105.18 152.67 108.52 152.20 111.92 151.46 Z" fill="#98a262" />
<path d="M 88.12 154.07 C 86.19 156.76 85.06 157.44 81.80 158.13 C 82.82 155.77 85.95 155.04 88.12 154.07 Z" fill="#4f4d57" />
<path d="M 101.86 153.75 C 102.94 153.83 104.02 153.91 105.11 153.99 C 104.27 154.25 103.54 154.80 102.93 155.65 C 102.83 156.76 102.75 157.87 102.70 158.99 C 103.98 159.75 105.43 160.46 106.51 161.49 C 107.22 162.86 107.64 164.38 108.37 165.72 C 110.13 167.29 112.47 168.17 114.26 169.72 C 115.59 171.11 116.46 173.07 117.19 174.83 C 114.26 176.52 111.40 177.89 107.95 178.05 C 105.92 178.45 103.22 177.84 101.88 179.71 C 105.99 180.10 110.05 179.62 114.05 178.66 C 114.16 179.66 114.27 180.67 114.38 181.67 C 113.02 182.35 111.82 183.21 110.91 184.44 C 108.26 184.60 105.61 185.07 103.01 185.62 C 102.19 186.41 101.38 187.22 100.59 188.04 C 101.66 188.82 102.68 189.84 103.92 190.33 C 106.71 190.80 110.30 191.45 112.85 189.88 C 115.40 188.24 117.06 185.88 120.09 184.94 C 119.41 185.99 118.74 187.04 118.00 188.04 C 115.69 189.82 113.45 191.31 111.71 193.71 C 109.50 196.71 108.13 199.83 104.86 201.92 C 104.72 201.05 104.59 200.17 104.45 199.29 C 100.03 200.07 96.31 198.47 92.01 197.92 C 91.93 199.02 91.85 200.13 91.79 201.23 C 91.32 200.39 90.85 199.56 90.37 198.72 C 90.09 197.41 89.85 196.09 89.64 194.77 C 89.84 190.92 92.70 190.01 95.30 187.86 C 94.93 185.88 93.85 183.63 94.95 181.75 C 97.35 176.88 99.27 171.83 100.86 166.63 C 101.34 165.01 101.68 163.43 101.34 161.74 C 101.02 160.79 100.70 159.83 100.38 158.87 C 100.02 157.69 100.66 154.88 99.00 154.77 C 99.94 154.39 100.89 154.05 101.86 153.75 Z" fill="#a8b079" />
<path d="M 99.00 154.77 C 100.66 154.88 100.02 157.69 100.38 158.87 C 96.40 157.87 95.28 160.32 92.86 162.80 C 92.20 163.24 91.53 163.68 90.86 164.12 C 89.35 160.47 89.52 158.77 92.61 156.21 C 95.06 156.78 96.79 155.60 99.00 154.77 Z" fill="#c7c9a8" />
<path d="M 176.76 156.68 C 177.92 157.33 179.04 158.05 180.15 158.78 L 180.52 159.99 C 181.84 166.20 185.44 171.53 187.26 177.67 C 189.32 185.26 193.97 191.37 195.03 199.29 C 193.99 199.21 192.96 199.12 191.92 198.99 C 188.70 195.56 185.08 193.21 182.68 189.10 C 183.00 188.38 183.33 187.67 183.66 186.95 C 181.82 184.96 179.75 183.02 178.28 180.74 C 176.64 177.38 176.74 174.13 173.35 171.81 C 174.66 169.77 176.50 168.16 176.51 165.60 C 176.48 162.66 175.45 159.68 174.82 156.82 C 175.47 156.77 176.11 156.72 176.76 156.68 Z" fill="#6e7c52" />
<path d="M 61.78 157.90 C 62.83 159.41 63.79 160.62 65.47 161.48 C 65.88 162.27 66.06 162.92 66.11 163.80 C 66.71 162.83 67.33 161.87 67.95 160.92 C 68.58 160.67 69.20 160.42 69.83 160.17 C 70.06 160.80 70.28 161.43 70.50 162.06 C 70.59 163.23 70.64 164.40 70.67 165.56 C 70.55 169.95 72.90 173.43 71.90 177.90 L 70.61 179.47 C 70.28 177.60 70.23 175.72 70.16 173.84 C 66.23 172.91 62.90 176.47 60.89 179.40 C 59.33 179.67 57.78 179.96 56.23 180.33 L 55.05 179.09 C 54.07 176.52 53.64 175.50 51.11 174.24 C 54.00 174.36 55.73 172.86 57.13 170.50 C 57.44 168.64 55.96 166.82 57.07 165.02 C 58.32 162.44 59.34 159.58 61.78 157.90 Z" fill="#dadbbf" />
<path d="M 100.38 158.87 C 100.70 159.83 101.02 160.79 101.34 161.74 C 99.82 164.38 98.40 166.16 95.97 168.01 C 96.27 166.06 96.52 164.10 96.80 162.14 C 95.49 162.36 94.17 162.56 92.86 162.80 C 95.28 160.32 96.40 157.87 100.38 158.87 Z" fill="#c13746" />
<path d="M 200.58 158.94 C 202.17 161.60 203.97 163.74 204.10 166.97 C 204.30 170.06 204.78 172.51 206.17 175.30 C 209.66 174.47 211.12 171.48 214.16 169.92 C 217.05 169.62 219.09 171.06 221.24 172.74 C 218.96 173.89 216.82 175.19 214.61 176.47 C 214.49 177.99 214.43 179.62 214.01 181.08 C 211.59 184.98 207.70 187.79 202.90 187.33 C 201.61 182.02 200.59 176.70 199.69 171.31 C 198.74 166.58 198.81 163.43 200.58 158.94 Z" fill="#91977f" />
<path d="M 145.32 160.39 C 147.82 158.79 146.97 164.29 145.02 163.50 C 144.35 162.58 144.45 161.54 145.32 160.39 Z" fill="#807d58" />
<path d="M 180.52 159.99 C 182.71 161.23 185.82 161.82 187.65 163.48 C 188.61 168.89 191.36 173.53 191.91 179.00 C 192.98 181.99 194.47 184.66 194.97 187.87 C 195.38 191.03 197.61 192.48 199.14 194.98 C 199.66 196.86 199.68 198.94 200.38 200.76 C 201.00 201.94 202.33 202.77 203.33 203.63 C 204.16 203.05 204.98 202.46 205.81 201.88 C 206.15 205.58 206.83 209.37 208.27 212.81 L 206.62 212.81 C 202.17 208.72 197.94 204.68 195.03 199.29 C 193.97 191.37 189.32 185.26 187.26 177.67 C 185.44 171.53 181.84 166.20 180.52 159.99 Z" fill="#d44254" />
<path d="M 150.05 161.23 C 150.72 161.93 151.39 162.64 152.04 163.36 C 152.42 166.12 152.89 168.87 153.31 171.63 C 150.07 174.67 150.01 178.13 149.40 182.24 L 148.29 181.17 C 146.39 184.44 144.45 188.01 141.82 190.76 C 141.36 191.36 140.65 191.48 139.69 191.13 C 140.77 188.07 141.21 184.91 141.67 181.72 C 142.47 180.35 143.26 178.73 144.47 177.68 C 145.58 177.59 146.72 177.64 147.84 177.66 C 147.25 176.61 146.67 175.56 146.09 174.52 C 146.99 174.53 147.89 174.55 148.79 174.56 C 148.65 172.86 148.48 171.16 148.30 169.46 C 149.21 168.61 150.11 167.75 151.02 166.90 C 150.67 165.01 150.34 163.12 150.05 161.23 Z" fill="#89934c" />
<path d="M 70.50 162.06 C 74.15 164.04 77.98 166.36 82.01 167.41 C 85.74 168.09 87.92 165.87 90.86 164.12 C 91.53 163.68 92.20 163.24 92.86 162.80 C 94.17 162.56 95.49 162.36 96.80 162.14 C 96.52 164.10 96.27 166.06 95.97 168.01 L 95.24 169.24 C 92.98 169.42 90.77 169.88 88.55 170.36 C 87.99 171.53 87.41 172.69 86.82 173.84 C 84.60 175.24 82.66 176.99 80.47 178.42 C 77.84 179.96 74.82 180.85 72.07 182.19 L 71.04 181.52 L 70.61 179.47 L 71.90 177.90 C 73.25 176.23 74.74 174.61 75.89 172.81 C 75.66 169.60 73.02 167.39 70.67 165.56 C 70.64 164.40 70.59 163.23 70.50 162.06 Z" fill="#23213e" />
<path d="M 101.34 161.74 C 101.68 163.43 101.34 165.01 100.86 166.63 C 99.27 171.83 97.35 176.88 94.95 181.75 C 93.85 183.63 94.93 185.88 95.30 187.86 C 92.70 190.01 89.84 190.92 89.64 194.77 C 89.18 195.58 88.72 196.38 88.24 197.18 C 86.84 197.35 85.16 197.28 83.89 197.94 C 82.27 198.95 81.09 200.85 80.03 202.40 C 79.23 201.54 78.43 200.69 77.63 199.83 C 78.79 198.41 80.44 197.42 81.56 196.02 C 81.77 194.77 81.39 193.39 81.24 192.14 C 84.92 187.87 86.59 182.78 87.05 177.22 C 81.04 180.42 75.91 185.25 69.69 187.97 C 69.61 185.31 70.34 184.13 72.07 182.19 C 74.82 180.85 77.84 179.96 80.47 178.42 C 82.66 176.99 84.60 175.24 86.82 173.84 C 88.70 173.71 91.17 173.96 92.74 172.78 C 93.83 171.87 94.49 170.43 95.24 169.24 L 95.97 168.01 C 98.40 166.16 99.82 164.38 101.34 161.74 Z" fill="#bbc094" />
<path d="M 132.41 163.86 C 133.14 166.54 132.15 168.74 131.25 171.22 C 129.11 177.17 125.29 181.48 125.15 188.12 C 126.09 187.18 127.05 186.25 128.02 185.35 C 128.42 185.91 128.82 186.48 129.22 187.04 C 128.21 188.70 127.27 190.44 126.16 192.03 C 123.54 194.19 121.01 196.35 117.89 197.78 C 118.83 196.02 119.87 194.35 121.00 192.71 C 120.05 191.10 119.19 189.49 118.00 188.04 C 118.74 187.04 119.41 185.99 120.09 184.94 C 121.31 184.43 122.53 183.91 123.70 183.29 C 127.54 177.15 128.71 170.01 132.41 163.86 Z" fill="#eaead8" />
<path d="M 145.70 164.53 C 144.68 169.04 142.73 173.25 141.58 177.73 C 140.91 180.37 139.50 182.47 137.76 184.52 C 136.82 180.49 140.43 175.59 141.82 171.88 C 143.04 169.57 143.30 165.82 145.70 164.53 Z" fill="#595741" />
<path d="M 70.67 165.56 C 73.02 167.39 75.66 169.60 75.89 172.81 C 74.74 174.61 73.25 176.23 71.90 177.90 C 72.90 173.43 70.55 169.95 70.67 165.56 Z" fill="#c32d3f" />
<path d="M 95.24 169.24 C 94.49 170.43 93.83 171.87 92.74 172.78 C 91.17 173.96 88.70 173.71 86.82 173.84 C 87.41 172.69 87.99 171.53 88.55 170.36 C 90.77 169.88 92.98 169.42 95.24 169.24 Z" fill="#d14d53" />
<path d="M 38.19 172.00 C 39.93 172.43 41.44 172.93 42.51 174.47 C 42.98 176.63 42.60 179.04 42.47 181.23 C 39.92 178.70 40.32 174.95 38.19 172.00 Z" fill="#6f4058" />
<path d="M 153.31 171.63 C 153.85 175.07 153.68 178.42 153.47 181.88 C 154.36 181.43 155.26 180.98 156.16 180.53 C 156.32 182.98 156.38 185.41 156.15 187.85 C 152.80 191.67 151.70 196.26 150.08 200.94 C 151.31 201.09 152.55 201.25 153.78 201.40 C 154.07 202.01 154.45 202.59 154.92 203.14 C 152.39 204.44 148.20 203.44 147.48 206.59 C 145.94 210.20 146.50 213.34 148.05 216.80 C 149.26 219.00 146.81 221.37 145.77 223.16 C 145.16 222.11 144.56 221.06 144.06 219.96 C 142.52 214.35 142.00 208.72 144.19 203.19 C 146.88 196.43 148.16 189.37 149.40 182.24 C 150.01 178.13 150.07 174.67 153.31 171.63 Z" fill="#d84054" />
<path d="M 173.35 171.81 C 176.74 174.13 176.64 177.38 178.28 180.74 C 179.75 183.02 181.82 184.96 183.66 186.95 C 183.33 187.67 183.00 188.38 182.68 189.10 C 185.08 193.21 188.70 195.56 191.92 198.99 C 189.03 198.25 185.44 198.12 183.70 195.35 C 182.08 193.15 179.86 191.89 177.72 190.29 C 175.46 188.70 175.26 185.48 172.73 184.48 C 170.51 183.59 169.99 181.75 168.93 179.82 C 170.64 177.27 171.81 174.45 173.35 171.81 Z" fill="#d3ce96" />
<path d="M 70.16 173.84 C 70.23 175.72 70.28 177.60 70.61 179.47 L 71.04 181.52 C 68.59 181.12 67.27 179.45 65.18 178.26 C 63.76 178.70 62.36 179.15 60.89 179.40 C 62.90 176.47 66.23 172.91 70.16 173.84 Z" fill="#a6af84" />
<path d="M 221.24 172.74 C 222.54 173.85 224.62 175.31 224.76 177.14 C 225.30 181.16 225.56 185.22 226.18 189.24 C 224.83 189.38 223.48 189.54 222.13 189.71 C 221.62 192.54 221.18 195.37 220.79 198.21 C 218.87 196.35 219.28 192.60 218.74 190.11 C 218.51 188.32 218.21 186.78 215.99 186.93 C 214.04 187.08 213.89 189.16 212.96 190.54 C 212.37 191.39 211.79 192.25 211.22 193.11 C 208.96 193.76 206.93 194.75 204.92 195.96 C 204.11 193.12 203.51 190.23 202.90 187.33 C 207.70 187.79 211.59 184.98 214.01 181.08 C 214.43 179.62 214.49 177.99 214.61 176.47 C 216.82 175.19 218.96 173.89 221.24 172.74 Z" fill="#6f7850" />
<path d="M 117.19 174.83 L 117.59 175.89 C 116.45 176.86 115.27 177.79 114.05 178.66 C 110.05 179.62 105.99 180.10 101.88 179.71 C 103.22 177.84 105.92 178.45 107.95 178.05 C 111.40 177.89 114.26 176.52 117.19 174.83 Z" fill="#53573e" />
<path d="M 87.05 177.22 C 86.59 182.78 84.92 187.87 81.24 192.14 C 76.94 193.19 73.22 192.94 68.93 192.02 C 68.08 191.15 67.23 190.29 66.36 189.45 C 67.47 188.96 68.58 188.47 69.69 187.97 C 75.91 185.25 81.04 180.42 87.05 177.22 Z" fill="#201f38" />
<path d="M 120.70 176.67 C 120.21 179.77 119.53 181.96 117.17 184.14 C 117.91 181.36 117.93 178.24 120.70 176.67 Z" fill="#4d5333" />
<path d="M 65.18 178.26 C 67.27 179.45 68.59 181.12 71.04 181.52 L 72.07 182.19 C 70.34 184.13 69.61 185.31 69.69 187.97 C 68.58 188.47 67.47 188.96 66.36 189.45 C 67.23 190.29 68.08 191.15 68.93 192.02 C 67.71 192.59 66.45 193.32 65.13 193.64 C 63.74 193.36 62.39 192.77 61.05 192.32 C 59.34 193.94 57.30 196.02 56.68 198.35 C 56.98 199.97 58.09 201.51 58.90 202.93 C 57.50 204.74 56.03 206.26 54.26 207.71 C 52.47 206.35 50.63 205.06 48.75 203.82 C 48.82 203.18 48.88 202.53 48.95 201.88 C 51.99 199.10 54.63 196.24 55.70 192.15 C 54.19 191.33 52.69 190.49 51.19 189.66 C 52.70 188.41 54.53 187.20 55.64 185.57 C 56.05 183.88 56.11 182.06 56.23 180.33 C 57.78 179.96 59.33 179.67 60.89 179.40 C 62.36 179.15 63.76 178.70 65.18 178.26 Z" fill="#8e945f" />
<path d="M 114.38 181.67 C 114.80 184.36 113.42 185.35 110.91 184.44 C 111.82 183.21 113.02 182.35 114.38 181.67 Z" fill="#4d5530" />
<path d="M 141.67 181.72 C 141.21 184.91 140.77 188.07 139.69 191.13 C 138.88 192.75 138.02 194.34 137.10 195.90 C 135.01 199.16 132.46 202.02 129.97 204.98 C 128.25 207.05 127.57 209.86 124.93 210.91 C 117.60 214.04 108.67 214.06 100.82 214.08 C 98.77 214.01 96.73 214.15 94.71 214.57 C 90.36 215.11 88.49 220.36 85.79 223.35 C 85.11 223.90 84.42 224.43 83.71 224.95 C 80.67 227.15 77.73 229.46 74.75 231.74 C 70.61 235.23 64.17 235.48 59.05 234.89 C 55.59 234.57 53.72 232.26 51.58 229.84 C 53.01 229.63 54.45 229.49 55.90 229.46 C 60.00 230.87 64.14 230.82 68.14 229.10 C 75.28 226.11 81.16 219.74 86.04 213.91 C 86.76 212.87 87.69 213.08 88.79 212.91 C 91.37 208.02 95.74 205.99 100.23 203.23 C 101.42 202.45 102.21 202.59 103.53 202.89 C 101.56 204.78 99.81 206.85 98.05 208.93 C 102.95 208.40 107.36 207.41 111.94 205.57 C 115.90 204.30 119.58 203.66 122.85 200.87 C 125.58 198.47 127.93 195.63 130.44 193.00 C 132.34 190.85 134.12 188.52 135.82 186.21 C 136.54 186.65 137.25 187.09 137.97 187.53 C 139.21 185.59 140.49 183.69 141.67 181.72 Z" fill="#21243f" />
<path d="M 78.33 185.24 C 79.56 184.03 81.87 186.40 80.78 187.67 C 79.42 190.23 77.51 189.76 75.03 189.87 C 75.73 187.94 76.44 186.29 78.33 185.24 Z" fill="#caa464" />
<path d="M 103.01 185.62 C 105.62 186.68 106.70 187.57 108.04 190.05 C 106.67 190.17 105.29 190.26 103.92 190.33 C 102.68 189.84 101.66 188.82 100.59 188.04 C 101.38 187.22 102.19 186.41 103.01 185.62 Z" fill="#1c1b27" />
<path d="M 215.99 186.93 C 218.21 186.78 218.51 188.32 218.74 190.11 C 219.28 192.60 218.87 196.35 220.79 198.21 C 221.18 195.37 221.62 192.54 222.13 189.71 C 223.48 189.54 224.83 189.38 226.18 189.24 C 224.93 190.25 223.42 191.27 222.51 192.62 C 221.27 196.04 221.51 199.90 221.81 203.46 C 220.98 203.49 220.15 203.53 219.32 203.56 C 219.08 206.81 220.51 209.24 221.98 212.01 C 221.25 212.55 220.53 213.11 219.81 213.68 C 217.05 215.73 216.14 219.94 215.12 223.07 C 212.00 223.36 208.89 223.61 205.76 223.70 C 207.27 221.44 209.16 219.32 210.39 216.89 C 210.06 215.60 209.41 214.50 208.68 213.41 C 209.22 211.68 209.74 209.95 210.25 208.22 C 208.76 206.42 207.15 205.06 208.41 202.55 C 209.97 200.55 211.85 198.82 213.45 196.86 C 213.41 198.23 213.39 199.61 213.39 200.98 C 215.11 198.64 214.80 195.87 214.62 193.12 C 214.48 191.70 214.18 191.30 212.96 190.54 C 213.89 189.16 214.04 187.08 215.99 186.93 Z" fill="#a1aa88" />
<path d="M 118.00 188.04 C 119.19 189.49 120.05 191.10 121.00 192.71 C 119.87 194.35 118.83 196.02 117.89 197.78 C 121.01 196.35 123.54 194.19 126.16 192.03 C 125.40 193.68 124.92 195.28 123.51 196.53 C 120.85 199.26 117.51 199.61 114.40 201.48 C 113.02 202.56 111.66 203.63 111.94 205.57 C 107.36 207.41 102.95 208.40 98.05 208.93 C 99.81 206.85 101.56 204.78 103.53 202.89 C 103.97 202.57 104.41 202.24 104.86 201.92 C 108.13 199.83 109.50 196.71 111.71 193.71 C 113.45 191.31 115.69 189.82 118.00 188.04 Z" fill="#d3d2a5" />
<path d="M 156.15 187.85 L 156.93 187.95 C 156.25 191.00 155.76 193.94 156.32 197.07 C 156.39 197.73 156.47 198.39 156.55 199.04 C 155.42 199.59 154.42 200.30 153.78 201.40 C 152.55 201.25 151.31 201.09 150.08 200.94 C 151.70 196.26 152.80 191.67 156.15 187.85 Z" fill="#96364c" />
<path d="M 156.93 187.95 L 158.61 188.17 C 158.37 191.39 157.57 194.11 156.32 197.07 C 155.76 193.94 156.25 191.00 156.93 187.95 Z" fill="#7d6f81" />
<path d="M 51.46 191.88 C 50.37 192.64 49.22 193.50 48.00 194.04 C 46.98 193.76 46.15 193.08 45.51 192.01 C 46.93 190.62 49.89 190.81 51.46 191.88 Z" fill="#848a79" />
<path d="M 212.96 190.54 C 214.18 191.30 214.48 191.70 214.62 193.12 C 214.80 195.87 215.11 198.64 213.39 200.98 C 213.39 199.61 213.41 198.23 213.45 196.86 C 211.85 198.82 209.97 200.55 208.41 202.55 C 207.15 205.06 208.76 206.42 210.25 208.22 C 209.74 209.95 209.22 211.68 208.68 213.41 L 208.27 212.81 C 206.83 209.37 206.15 205.58 205.81 201.88 L 206.00 200.30 C 208.64 198.11 209.88 196.24 211.22 193.11 C 211.79 192.25 212.37 191.39 212.96 190.54 Z" fill="#ecf0e7" />
<path d="M 61.05 192.32 C 62.39 192.77 63.74 193.36 65.13 193.64 C 66.45 193.32 67.71 192.59 68.93 192.02 C 73.22 192.94 76.94 193.19 81.24 192.14 C 81.39 193.39 81.77 194.77 81.56 196.02 C 80.44 197.42 78.79 198.41 77.63 199.83 C 78.43 200.69 79.23 201.54 80.03 202.40 C 77.30 203.57 74.46 204.15 71.56 204.71 C 69.24 205.03 67.34 207.17 65.62 208.63 C 62.07 208.41 58.80 207.94 55.41 209.41 C 51.13 211.10 47.43 212.31 42.95 210.33 C 44.82 209.66 46.61 208.85 48.37 207.95 C 47.02 206.70 45.72 205.66 43.93 205.12 C 44.50 204.62 45.07 204.12 45.65 203.61 C 45.92 201.22 46.23 198.94 47.38 196.79 C 47.66 198.55 46.38 201.55 48.95 201.88 C 48.88 202.53 48.82 203.18 48.75 203.82 C 50.63 205.06 52.47 206.35 54.26 207.71 C 56.03 206.26 57.50 204.74 58.90 202.93 C 58.09 201.51 56.98 199.97 56.68 198.35 C 57.30 196.02 59.34 193.94 61.05 192.32 Z" fill="#acb184" />
<path d="M 126.16 192.03 C 127.60 192.29 129.02 192.64 130.44 193.00 C 127.93 195.63 125.58 198.47 122.85 200.87 C 119.58 203.66 115.90 204.30 111.94 205.57 C 111.66 203.63 113.02 202.56 114.40 201.48 C 117.51 199.61 120.85 199.26 123.51 196.53 C 124.92 195.28 125.40 193.68 126.16 192.03 Z" fill="#fbfaf1" />
<path d="M 211.22 193.11 C 209.88 196.24 208.64 198.11 206.00 200.30 C 205.69 198.84 205.32 197.40 204.92 195.96 C 206.93 194.75 208.96 193.76 211.22 193.11 Z" fill="#929a85" />
<path d="M 132.28 194.12 C 134.93 193.40 133.73 197.00 131.90 196.95 C 130.27 196.55 131.19 194.60 132.28 194.12 Z" fill="#73747e" />
<path d="M 89.64 194.77 C 89.85 196.09 90.09 197.41 90.37 198.72 C 88.91 200.40 88.32 202.47 85.86 202.75 C 83.18 203.13 82.02 204.33 80.33 206.27 C 77.67 206.51 74.15 206.29 71.88 207.85 C 70.31 209.48 69.21 211.53 67.67 213.21 C 64.95 210.89 62.02 209.28 58.33 210.07 C 54.42 211.13 51.02 213.09 46.86 213.35 C 43.77 212.68 41.93 211.69 39.94 209.22 C 40.94 209.59 41.95 209.96 42.95 210.33 C 47.43 212.31 51.13 211.10 55.41 209.41 C 58.80 207.94 62.07 208.41 65.62 208.63 C 67.34 207.17 69.24 205.03 71.56 204.71 C 74.46 204.15 77.30 203.57 80.03 202.40 C 83.29 200.82 86.77 200.95 88.24 197.18 C 88.72 196.38 89.18 195.58 89.64 194.77 Z" fill="#202236" />
<path d="M 137.10 195.90 C 138.43 199.10 136.83 201.09 136.07 204.11 C 135.92 206.58 136.54 209.08 136.42 211.55 C 134.82 214.63 131.70 216.91 128.20 217.23 C 125.93 217.41 123.58 217.02 121.28 217.15 C 118.12 218.78 116.45 222.15 113.01 223.56 C 113.91 221.87 114.49 220.24 114.90 218.38 C 113.08 218.02 110.50 216.77 108.76 217.75 C 107.28 218.85 106.04 220.34 104.71 221.63 C 102.74 220.72 100.84 219.70 98.92 218.69 C 100.99 217.87 102.65 216.88 104.11 215.16 C 103.02 214.78 101.92 214.42 100.82 214.08 C 108.67 214.06 117.60 214.04 124.93 210.91 C 127.57 209.86 128.25 207.05 129.97 204.98 C 132.46 202.02 135.01 199.16 137.10 195.90 Z" fill="#a0aa87" />
<path d="M 88.24 197.18 C 86.77 200.95 83.29 200.82 80.03 202.40 C 81.09 200.85 82.27 198.95 83.89 197.94 C 85.16 197.28 86.84 197.35 88.24 197.18 Z" fill="#a8976f" />
<path d="M 92.01 197.92 C 96.31 198.47 100.03 200.07 104.45 199.29 C 104.59 200.17 104.72 201.05 104.86 201.92 C 104.41 202.24 103.97 202.57 103.53 202.89 C 102.21 202.59 101.42 202.45 100.23 203.23 C 95.74 205.99 91.37 208.02 88.79 212.91 C 87.69 213.08 86.76 212.87 86.04 213.91 C 81.16 219.74 75.28 226.11 68.14 229.10 C 64.14 230.82 60.00 230.87 55.90 229.46 C 57.62 229.30 59.31 228.99 61.01 228.68 C 59.93 227.78 58.87 226.86 57.84 225.91 C 61.12 225.03 65.19 225.79 68.13 224.13 C 69.70 222.45 70.54 220.12 71.99 218.36 C 77.39 216.03 82.73 211.83 85.68 206.69 C 87.26 206.41 88.95 206.15 90.46 205.60 C 92.30 204.80 91.54 202.86 91.79 201.23 C 91.85 200.13 91.93 199.02 92.01 197.92 Z" fill="#bac094" />
<path d="M 129.99 198.07 C 129.16 202.72 124.14 204.51 120.06 205.23 C 122.66 202.32 125.87 198.51 129.99 198.07 Z" fill="#d2d3d7" />
<path d="M 90.37 198.72 C 90.85 199.56 91.32 200.39 91.79 201.23 C 91.54 202.86 92.30 204.80 90.46 205.60 C 88.95 206.15 87.26 206.41 85.68 206.69 C 82.73 211.83 77.39 216.03 71.99 218.36 C 70.54 220.12 69.70 222.45 68.13 224.13 C 65.19 225.79 61.12 225.03 57.84 225.91 C 56.92 226.15 56.01 226.40 55.11 226.67 C 54.40 224.73 53.80 222.85 55.07 220.98 C 56.96 218.63 59.18 216.46 61.43 214.45 C 62.89 213.01 65.75 213.54 67.67 213.21 C 69.21 211.53 70.31 209.48 71.88 207.85 C 74.15 206.29 77.67 206.51 80.33 206.27 C 82.02 204.33 83.18 203.13 85.86 202.75 C 88.32 202.47 88.91 200.40 90.37 198.72 Z" fill="#c68d6a" />
<path d="M 156.55 199.04 C 156.87 200.51 156.55 202.64 154.92 203.14 C 154.45 202.59 154.07 202.01 153.78 201.40 C 154.42 200.30 155.42 199.59 156.55 199.04 Z" fill="#bf9aab" />
<path d="M 58.33 210.07 C 62.02 209.28 64.95 210.89 67.67 213.21 C 65.75 213.54 62.89 213.01 61.43 214.45 C 59.18 216.46 56.96 218.63 55.07 220.98 C 53.80 222.85 54.40 224.73 55.11 226.67 C 56.01 226.40 56.92 226.15 57.84 225.91 C 58.87 226.86 59.93 227.78 61.01 228.68 C 59.31 228.99 57.62 229.30 55.90 229.46 C 54.45 229.49 53.01 229.63 51.58 229.84 C 49.69 227.58 49.14 225.12 48.81 222.26 C 50.19 222.45 51.57 222.66 52.95 222.86 C 52.81 220.70 52.73 218.53 52.61 216.36 C 53.30 215.77 53.99 215.18 54.67 214.58 C 54.43 214.22 54.19 213.86 53.95 213.50 C 51.59 213.59 49.22 213.58 46.86 213.35 C 51.02 213.09 54.42 211.13 58.33 210.07 Z" fill="#a5ad76" />
<path d="M 206.62 212.81 L 208.27 212.81 L 208.68 213.41 C 209.41 214.50 210.06 215.60 210.39 216.89 C 209.16 219.32 207.27 221.44 205.76 223.70 C 204.10 225.97 202.58 228.64 200.43 230.47 C 197.98 231.83 194.81 232.24 192.08 232.86 C 191.63 231.67 191.05 230.91 191.66 229.63 C 192.90 226.47 194.33 223.13 196.46 220.47 C 198.03 219.43 200.04 218.84 201.61 217.70 C 203.44 216.31 205.01 214.45 206.62 212.81 Z" fill="#9a4847" />
<path d="M 100.82 214.08 C 101.92 214.42 103.02 214.78 104.11 215.16 C 102.65 216.88 100.99 217.87 98.92 218.69 C 96.09 218.35 93.63 219.25 90.99 220.12 C 91.24 219.32 91.49 218.53 91.74 217.74 C 93.07 217.05 94.40 216.35 95.72 215.64 L 94.71 214.57 C 96.73 214.15 98.77 214.01 100.82 214.08 Z" fill="#c3caa5" />
<path d="M 219.81 213.68 C 221.00 215.36 222.14 217.08 223.21 218.84 C 223.63 221.26 223.94 223.70 224.17 226.14 C 223.55 227.86 223.00 229.42 221.39 230.46 C 218.76 232.94 214.89 230.07 212.17 229.09 C 213.54 227.19 214.51 225.35 215.12 223.07 C 216.14 219.94 217.05 215.73 219.81 213.68 Z" fill="#9b4a48" />
<path d="M 198.95 216.36 C 195.01 219.81 191.35 220.66 186.26 220.96 C 187.40 218.90 187.80 217.94 187.11 215.58 C 190.98 215.26 195.04 216.09 198.95 216.36 Z" fill="#b4baa5" />
<path d="M 227.04 214.95 C 229.95 218.36 232.32 223.46 233.14 227.86 C 230.00 227.73 227.03 227.59 224.17 226.14 C 223.94 223.70 223.63 221.26 223.21 218.84 C 224.44 219.90 225.75 220.86 227.08 221.79 C 227.46 219.50 227.26 217.25 227.04 214.95 Z" fill="#787950" />
<path d="M 187.11 215.58 C 187.80 217.94 187.40 218.90 186.26 220.96 C 184.89 223.27 183.63 225.83 181.79 227.80 C 178.88 229.97 175.62 229.75 172.33 228.69 C 172.40 225.30 174.01 221.79 177.26 220.38 C 180.59 218.69 183.55 216.77 187.11 215.58 Z" fill="#9b4648" />
<path d="M 114.90 218.38 C 114.49 220.24 113.91 221.87 113.01 223.56 C 109.90 224.97 106.93 226.32 103.43 226.41 C 102.57 226.56 100.94 226.27 101.14 225.10 C 101.81 223.68 103.60 222.74 104.71 221.63 C 106.04 220.34 107.28 218.85 108.76 217.75 C 110.50 216.77 113.08 218.02 114.90 218.38 Z" fill="#a35f5f" />
<path d="M 95.58 222.55 C 96.21 224.20 94.64 224.73 93.52 225.51 C 90.20 226.82 86.54 227.79 83.71 224.95 C 84.42 224.43 85.11 223.90 85.79 223.35 C 89.10 223.43 92.30 222.48 95.58 222.55 Z" fill="#a76d6d" />
</svg>