<?xml version="1.0" encoding="UTF-8" standalone="no"?>
<!DOCTYPE svg PUBLIC "-//W3C//DTD SVG 1.1//EN" "http://www.w3.org/Graphics/SVG/1.1/DTD/svg11.dtd">
<svg xmlns="http://www.w3.org/2000/svg" version="1.1" viewBox="0 0 256 256" width="256.0pt" height="256.0pt">
<path d="M 0.00 0.00 L 256.00 0.00 L 256.00 256.00 L 0.00 256.00 L 0.00 0.00 Z" fill="#fffffe" />
<path d="M 76.96 13.97 C 84.18 15.75 89.74 22.10 94.81 27.19 C 98.53 30.96 102.35 35.70 107.47 37.49 C 113.30 39.53 119.90 39.52 125.82 37.83 C 138.47 34.21 150.17 28.59 163.09 25.81 C 169.78 23.43 176.44 21.33 183.26 19.34 C 192.44 15.97 201.75 13.75 211.60 14.62 C 216.78 15.73 221.72 18.88 225.69 22.32 C 231.34 27.12 232.47 35.81 231.76 42.76 C 231.32 47.42 228.78 50.65 225.37 53.61 C 224.50 53.44 223.64 53.27 222.78 53.11 C 222.73 52.26 222.67 51.41 222.62 50.55 C 221.17 50.25 219.73 49.95 218.28 49.63 C 218.22 48.58 218.16 47.53 218.08 46.48 C 222.59 42.79 222.68 38.05 223.42 32.70 C 222.81 32.09 222.17 31.51 221.50 30.96 C 217.57 29.75 213.51 29.18 209.65 27.72 C 210.70 27.06 211.73 26.38 212.76 25.68 C 210.80 25.04 209.14 24.19 207.02 24.68 C 201.91 25.66 196.96 27.53 191.96 28.98 C 184.67 31.64 177.05 33.11 169.76 35.75 C 162.01 38.32 154.15 40.65 146.51 43.54 C 139.08 46.90 131.32 49.06 123.56 51.49 C 118.17 53.20 112.66 52.51 107.17 51.60 C 102.26 50.41 97.65 48.60 93.94 45.07 C 90.15 41.49 86.31 38.84 84.04 33.97 C 81.78 30.05 80.07 24.22 75.51 22.50 C 73.01 21.78 70.04 22.17 67.48 22.53 C 65.02 22.96 65.17 25.90 64.44 27.75 C 66.42 28.35 68.39 28.92 70.29 29.73 C 72.15 36.07 75.32 43.12 75.16 49.76 C 71.50 50.74 67.93 51.88 64.52 53.56 C 63.32 53.51 62.73 53.97 62.75 54.94 C 61.38 54.81 60.02 54.67 58.66 54.54 C 58.74 53.58 58.82 52.63 58.89 51.67 C 54.15 53.99 48.98 56.62 43.74 57.59 C 37.68 58.12 31.63 57.91 25.89 55.71 C 24.59 56.77 23.20 57.78 22.04 58.99 C 21.32 61.69 21.50 64.58 20.79 67.32 C 22.19 65.88 23.55 64.40 24.89 62.90 C 25.76 63.22 26.64 63.56 27.51 63.89 C 26.65 65.28 25.78 66.67 24.94 68.08 C 27.16 66.62 29.31 65.04 31.61 63.69 C 31.44 65.19 31.24 66.68 31.02 68.17 C 32.90 67.69 34.85 67.00 36.80 66.88 C 38.57 68.31 40.56 70.59 40.62 72.97 C 40.41 75.39 39.32 77.76 38.64 80.07 C 40.33 79.70 42.02 79.32 43.73 79.08 L 45.88 78.82 C 43.28 80.01 40.64 81.35 37.89 82.21 C 35.96 82.30 33.94 81.23 32.05 80.80 C 33.35 82.21 34.66 83.60 35.87 85.08 C 31.20 84.49 26.39 80.76 21.94 82.42 C 24.09 83.52 26.38 84.36 28.51 85.50 C 30.12 86.51 31.25 88.38 32.42 89.84 C 33.03 89.65 33.65 89.46 34.26 89.26 C 33.56 90.85 32.96 92.48 32.40 94.13 C 33.95 94.31 35.51 94.42 37.06 94.48 C 39.63 93.16 41.18 90.20 43.79 88.81 C 47.71 86.58 52.13 86.63 56.20 84.95 C 56.95 83.30 57.47 81.54 57.90 79.78 C 57.30 78.15 56.65 76.55 56.01 74.94 C 56.71 74.78 57.41 74.62 58.11 74.46 C 58.81 74.36 59.50 74.25 60.20 74.15 C 60.45 76.22 61.44 78.48 61.19 80.54 C 59.97 85.55 57.95 90.28 57.04 95.38 C 56.00 95.82 54.95 96.25 53.90 96.68 C 53.45 99.97 52.39 103.05 50.96 106.03 C 51.82 107.19 52.69 108.34 53.59 109.47 C 52.55 109.33 51.51 109.20 50.47 109.07 C 49.51 110.53 48.53 111.96 47.62 113.45 C 46.29 115.58 45.30 117.86 44.37 120.19 C 40.91 128.00 35.29 134.27 29.58 140.53 C 27.99 142.51 26.63 144.55 24.66 146.20 C 27.15 151.35 32.01 154.32 34.83 159.16 C 37.75 165.24 38.08 172.86 38.37 179.50 C 45.12 176.79 51.44 175.20 57.19 171.19 C 60.06 169.19 62.88 167.75 66.27 166.80 C 60.20 173.39 52.57 178.69 45.01 183.44 C 45.43 190.13 51.47 194.49 56.90 197.38 C 55.94 193.63 54.15 188.40 55.62 184.66 C 58.32 181.98 62.72 180.96 65.96 178.94 C 70.25 176.58 73.53 172.20 77.15 168.89 C 76.67 167.42 76.27 165.88 75.61 164.47 C 73.96 162.67 70.84 162.43 69.03 160.97 C 67.60 159.39 66.39 157.62 65.05 155.97 L 66.44 155.56 C 69.36 159.29 73.84 160.59 76.87 164.10 C 80.76 168.25 84.71 172.30 88.84 176.20 C 91.27 178.43 92.62 181.26 94.75 183.75 C 94.75 184.43 94.75 185.11 94.75 185.79 C 95.92 186.44 97.09 187.08 98.26 187.74 C 97.28 189.26 96.30 190.79 95.34 192.32 C 93.68 191.20 91.87 190.22 90.13 189.22 C 91.46 186.48 92.34 184.15 91.21 181.13 C 89.46 178.00 87.49 175.01 83.65 174.47 C 79.68 173.72 76.38 174.98 73.01 176.87 C 75.58 179.49 77.98 182.25 80.77 184.66 C 79.54 188.02 79.57 191.11 77.07 193.93 C 74.57 194.62 72.06 194.54 69.58 195.53 C 65.79 196.78 63.07 200.33 60.46 203.19 C 61.35 203.36 62.23 203.54 63.12 203.71 C 62.82 204.80 62.52 205.89 62.22 206.98 C 61.33 206.44 60.45 205.91 59.56 205.37 C 60.23 208.83 61.27 212.17 63.33 215.09 C 65.65 215.45 67.57 214.85 69.48 213.55 C 74.18 210.76 76.96 206.63 79.97 202.21 C 83.68 203.20 87.33 204.29 90.83 205.86 C 87.59 208.65 83.85 211.74 81.71 215.46 C 80.80 218.16 80.41 221.07 79.82 223.85 C 80.18 225.93 81.20 227.93 83.12 228.97 C 85.76 230.63 89.26 229.50 92.18 229.25 C 92.46 227.96 92.74 226.67 93.02 225.38 C 90.94 224.45 88.90 223.46 86.95 222.27 C 89.84 216.32 94.44 212.48 99.05 207.85 C 102.80 213.28 107.70 217.98 112.55 222.42 C 116.19 225.90 120.93 228.27 125.41 230.68 C 132.94 234.50 140.78 234.59 149.04 234.17 C 157.26 233.56 165.16 231.15 172.52 227.48 C 175.29 225.70 177.78 223.46 180.42 221.48 C 175.51 223.11 170.50 224.17 165.45 225.28 L 163.89 224.61 C 168.77 222.75 171.68 218.50 176.74 217.49 C 185.65 214.91 196.33 217.96 205.39 219.26 C 205.27 218.15 205.16 217.05 205.04 215.94 L 205.67 216.23 C 206.60 217.28 207.50 218.48 208.62 219.33 C 210.33 219.55 212.14 219.26 213.85 219.14 C 213.77 217.59 213.69 216.04 213.61 214.49 C 215.04 214.96 216.47 215.38 217.97 215.55 C 219.17 214.72 220.99 213.84 220.51 212.10 C 219.83 208.43 218.36 204.90 217.34 201.32 C 215.30 202.23 212.89 204.44 210.61 203.49 C 200.92 200.68 191.79 196.98 181.69 195.45 C 178.47 195.24 175.22 195.35 171.99 195.28 C 165.87 195.36 160.47 194.05 154.32 195.13 C 149.69 196.01 144.94 196.87 140.52 198.52 C 136.93 199.84 134.34 202.18 131.27 204.35 C 130.41 201.54 130.87 199.09 131.66 196.33 C 131.06 195.74 130.45 195.15 129.84 194.56 C 131.38 189.99 135.17 189.87 139.19 191.16 C 140.37 191.71 141.53 192.31 142.69 192.89 C 142.52 191.96 142.35 191.03 142.18 190.09 C 145.80 189.56 148.75 187.85 151.93 186.19 C 153.00 185.56 154.09 185.67 155.28 185.68 C 157.00 185.73 158.84 185.89 160.53 185.55 C 162.56 184.50 164.35 182.88 166.08 181.41 C 168.46 183.20 171.30 184.54 172.81 187.07 C 174.03 189.28 175.30 191.42 176.79 193.45 C 180.09 190.90 183.22 188.53 187.38 187.61 C 187.75 190.04 188.11 192.47 188.46 194.89 C 193.84 194.82 198.54 195.30 202.75 191.26 C 204.00 191.08 205.25 190.91 206.50 190.74 C 206.55 189.70 206.61 188.67 206.66 187.63 C 207.26 188.47 207.85 189.31 208.44 190.15 C 209.02 190.98 209.61 191.80 210.21 192.63 C 210.39 191.48 210.56 190.33 210.72 189.18 C 211.24 189.98 211.77 190.78 212.31 191.58 C 211.76 192.86 211.24 194.15 210.75 195.45 C 212.28 194.94 214.56 194.84 215.71 193.65 C 216.33 190.52 216.09 187.13 216.23 183.95 C 216.34 177.37 217.94 170.55 219.07 164.03 C 220.03 157.85 223.00 152.49 224.11 146.29 C 221.36 148.25 220.76 150.80 219.71 153.80 C 216.89 160.68 216.20 167.98 212.71 174.64 C 210.92 177.66 211.86 180.52 211.73 183.91 C 210.74 182.50 209.76 181.10 208.64 179.79 C 208.63 177.32 208.47 175.14 207.09 173.00 C 204.62 169.31 206.21 164.82 204.80 160.46 C 205.71 159.65 206.63 158.83 207.54 158.01 C 208.62 158.27 209.72 158.47 210.81 158.68 C 210.59 156.74 210.40 154.79 210.16 152.84 C 211.28 150.82 212.18 148.74 212.53 146.43 C 215.11 145.71 217.69 144.97 220.29 144.31 C 218.98 143.59 217.41 143.03 216.31 142.00 C 215.49 140.28 215.03 138.39 214.35 136.60 C 215.00 134.53 215.47 132.43 215.63 130.25 C 218.92 128.02 219.69 126.03 220.47 122.23 C 220.72 121.14 220.94 120.05 221.17 118.96 C 223.57 124.54 227.91 128.88 233.28 131.63 C 234.41 131.64 235.55 131.57 236.69 131.41 C 232.20 126.33 227.65 121.71 224.29 115.72 C 220.43 108.45 217.67 100.90 214.72 93.24 C 212.59 87.59 211.66 81.84 209.98 76.09 C 208.75 71.81 206.16 68.68 206.09 64.03 C 206.24 62.54 207.78 61.21 208.59 59.97 C 211.60 61.55 214.29 63.14 217.83 62.86 C 217.73 60.01 214.02 57.83 212.60 55.44 C 216.44 54.88 219.74 56.14 223.44 56.82 C 223.02 61.69 221.69 66.06 221.89 71.03 C 222.08 75.90 223.35 80.95 224.33 85.72 C 225.58 91.43 226.23 96.86 228.74 102.22 C 232.48 110.07 236.47 118.29 238.57 126.76 C 240.61 137.60 236.12 145.95 232.86 155.86 C 229.35 165.51 228.97 175.07 228.54 185.22 C 228.21 195.77 232.14 204.86 228.17 215.17 C 225.67 222.62 218.45 226.37 211.03 227.03 C 205.70 227.21 200.36 225.95 195.01 225.86 C 191.53 225.80 187.78 225.82 184.73 227.73 C 179.15 231.25 176.07 236.86 169.84 239.82 C 159.33 244.81 147.10 246.66 135.55 245.59 C 124.60 244.69 114.54 239.23 104.40 236.63 C 96.88 235.53 89.63 240.21 81.70 238.39 C 73.37 237.11 69.29 231.61 62.56 227.41 C 56.73 223.65 51.61 219.07 47.86 213.18 C 45.66 209.68 43.78 206.00 41.43 202.58 C 37.45 196.71 33.13 191.50 29.91 185.09 C 27.02 179.44 25.71 173.61 23.24 167.82 C 21.69 164.06 19.84 160.42 18.42 156.61 C 15.96 150.09 16.37 142.67 19.33 136.38 C 21.97 130.50 26.90 126.55 29.81 120.74 C 31.78 116.84 34.28 112.19 32.18 107.83 C 29.90 103.13 24.60 99.78 21.33 95.68 C 18.54 92.45 17.63 88.21 16.13 84.28 C 13.76 78.16 12.39 71.59 12.16 65.03 C 12.27 58.00 16.46 49.88 23.33 47.30 C 31.13 44.16 40.74 44.80 48.55 41.51 C 51.76 40.20 53.25 36.41 54.28 33.36 C 55.82 28.89 56.33 23.01 59.25 19.25 C 63.45 13.98 70.57 12.13 76.96 13.97 Z" fill="#f5f5f2" />
<path d="M 67.48 22.53 C 70.04 22.17 73.01 21.78 75.51 22.50 C 80.07 24.22 81.78 30.05 84.04 33.97 C 86.31 38.84 90.15 41.49 93.94 45.07 C 97.65 48.60 102.26 50.41 107.17 51.60 C 112.66 52.51 118.17 53.20 123.56 51.49 C 131.32 49.06 139.08 46.90 146.51 43.54 C 154.15 40.65 162.01 38.32 169.76 35.75 C 177.05 33.11 184.67 31.64 191.96 28.98 C 196.96 27.53 201.91 25.66 207.02 24.68 C 209.14 24.19 210.80 25.04 212.76 25.68 C 211.73 26.38 210.70 27.06 209.65 27.72 C 207.29 28.43 204.96 29.23 202.64 30.07 C 203.56 31.07 204.48 32.06 205.40 33.06 C 206.60 31.47 207.78 29.90 209.09 28.40 C 210.81 31.31 210.94 35.44 214.95 36.02 C 217.56 35.16 219.60 32.85 221.50 30.96 C 222.17 31.51 222.81 32.09 223.42 32.70 C 220.58 34.29 217.89 36.08 215.26 38.01 C 216.34 40.79 217.35 43.58 218.08 46.48 C 218.16 47.53 218.22 48.58 218.28 49.63 C 219.73 49.95 221.17 50.25 222.62 50.55 C 222.67 51.41 222.73 52.26 222.78 53.11 C 221.33 52.86 219.87 52.65 218.41 52.46 C 220.13 53.91 221.91 55.15 223.44 56.82 C 219.74 56.14 216.44 54.88 212.60 55.44 C 214.02 57.83 217.73 60.01 217.83 62.86 C 214.29 63.14 211.60 61.55 208.59 59.97 C 207.78 61.21 206.24 62.54 206.09 64.03 C 206.16 68.68 208.75 71.81 209.98 76.09 C 211.66 81.84 212.59 87.59 214.72 93.24 C 217.67 100.90 220.43 108.45 224.29 115.72 C 227.65 121.71 232.20 126.33 236.69 131.41 C 235.55 131.57 234.41 131.64 233.28 131.63 C 227.91 128.88 223.57 124.54 221.17 118.96 C 220.90 118.46 220.62 117.97 220.32 117.49 C 219.02 116.15 217.58 114.98 216.07 113.91 C 216.56 112.95 217.06 112.00 217.55 111.05 C 216.82 111.14 216.08 111.24 215.35 111.33 C 215.06 110.51 214.64 109.73 214.08 108.98 C 213.67 108.36 213.26 107.73 212.87 107.10 C 209.78 101.22 207.70 94.80 204.89 88.78 C 202.96 91.45 200.89 93.52 198.34 95.59 C 198.85 96.07 199.35 96.55 199.85 97.04 C 200.79 97.95 201.74 98.85 202.67 99.77 C 200.62 100.66 200.05 101.80 199.29 103.76 C 200.89 103.60 202.50 103.48 204.10 103.35 C 204.58 104.59 205.05 105.84 205.51 107.08 C 204.29 107.45 203.07 107.83 201.84 108.20 C 203.53 109.42 205.21 110.65 206.89 111.88 C 208.01 110.86 209.12 109.85 210.24 108.83 C 210.93 109.49 211.62 110.15 212.31 110.82 C 210.95 111.96 209.60 113.14 208.20 114.22 C 203.98 116.81 199.77 118.81 196.71 122.88 C 194.47 118.93 193.80 114.91 192.32 110.66 C 191.15 106.84 189.47 103.25 188.51 99.36 C 185.26 87.22 179.56 74.77 179.57 62.14 C 180.91 61.42 182.24 60.70 183.55 59.93 C 181.46 59.72 179.37 59.57 177.27 59.64 C 176.24 61.18 175.84 63.36 174.03 64.03 C 166.34 67.72 158.34 70.84 150.75 74.76 C 147.30 76.38 144.11 78.21 140.49 79.44 C 134.53 81.41 128.73 83.96 122.29 83.62 C 119.56 83.17 116.88 82.32 114.34 81.23 C 114.69 79.43 115.00 77.62 115.27 75.81 C 116.08 75.99 116.89 76.18 117.69 76.36 C 118.14 75.66 118.59 74.96 119.04 74.26 C 120.41 75.69 121.79 77.13 123.17 78.56 C 123.95 78.55 124.73 78.54 125.51 78.52 C 127.70 78.04 129.88 77.55 132.06 77.06 C 131.36 76.31 130.67 75.55 129.97 74.80 C 132.69 73.51 135.45 72.33 138.20 71.12 C 139.06 71.83 139.92 72.54 140.77 73.26 C 142.75 72.13 144.87 70.64 147.12 70.20 C 149.72 70.18 152.33 71.15 154.91 71.02 C 156.87 69.86 158.36 68.06 160.27 66.79 C 163.06 64.90 166.31 63.63 169.29 62.04 C 167.98 61.70 166.68 61.36 165.38 61.02 C 166.99 60.21 168.60 59.40 170.21 58.60 C 170.27 55.00 170.37 51.36 170.71 47.77 L 170.89 47.06 C 172.88 46.32 175.31 45.72 176.96 44.33 C 177.79 42.69 178.13 40.75 178.58 38.98 C 176.37 39.62 174.16 40.26 171.99 41.01 C 162.59 44.46 153.42 48.52 144.03 51.99 C 137.13 54.55 130.62 57.98 123.88 60.84 C 117.63 60.73 111.18 61.01 104.99 60.08 C 103.06 59.51 101.17 58.59 99.34 57.73 C 98.31 57.14 97.31 56.52 96.32 55.87 C 94.42 54.49 92.59 53.01 90.71 51.61 C 90.75 52.83 90.80 54.05 90.86 55.27 C 91.38 60.00 91.96 64.74 92.55 69.46 C 93.53 73.12 98.43 74.49 101.26 76.67 C 102.81 76.19 104.33 75.70 105.90 75.31 C 107.20 75.10 108.50 74.91 109.81 74.75 C 109.18 75.91 108.54 77.07 107.89 78.22 C 106.32 77.84 104.72 77.65 103.11 77.47 C 103.28 81.28 106.26 85.61 103.95 88.89 C 101.11 94.78 98.19 100.47 94.71 106.01 C 94.32 105.33 93.93 104.65 93.54 103.97 C 94.59 101.76 95.95 99.89 95.68 97.34 C 95.37 93.52 94.38 89.89 94.54 85.99 C 94.99 83.29 95.40 80.62 95.31 77.88 C 93.28 80.05 91.56 82.40 90.19 85.04 C 89.68 86.01 89.21 86.98 88.76 87.98 C 86.88 92.40 85.45 97.00 83.41 101.36 C 81.14 106.07 79.68 111.05 75.53 114.47 C 71.79 117.29 70.60 121.25 67.88 124.88 C 65.82 127.66 64.21 130.69 62.63 133.76 C 61.42 136.44 57.84 137.57 55.68 139.54 C 54.98 139.52 54.29 139.50 53.59 139.48 C 52.55 138.44 51.49 137.43 50.41 136.43 C 50.67 139.47 51.48 142.33 52.62 145.15 C 54.12 144.41 55.61 143.66 57.11 142.92 C 58.86 146.21 60.70 150.44 63.78 152.64 C 65.26 153.52 66.81 154.24 68.39 154.95 L 66.44 155.56 L 65.05 155.97 C 66.39 157.62 67.60 159.39 69.03 160.97 C 70.84 162.43 73.96 162.67 75.61 164.47 C 76.27 165.88 76.67 167.42 77.15 168.89 C 73.53 172.20 70.25 176.58 65.96 178.94 C 62.72 180.96 58.32 181.98 55.62 184.66 C 54.15 188.40 55.94 193.63 56.90 197.38 C 51.47 194.49 45.43 190.13 45.01 183.44 C 52.57 178.69 60.20 173.39 66.27 166.80 C 62.88 167.75 60.06 169.19 57.19 171.19 C 51.44 175.20 45.12 176.79 38.37 179.50 C 38.08 172.86 37.75 165.24 34.83 159.16 C 32.01 154.32 27.15 151.35 24.66 146.20 C 26.63 144.55 27.99 142.51 29.58 140.53 C 35.29 134.27 40.91 128.00 44.37 120.19 C 46.43 118.68 48.52 117.20 50.53 115.62 C 49.56 114.89 48.59 114.17 47.62 113.45 C 48.53 111.96 49.51 110.53 50.47 109.07 C 51.51 109.20 52.55 109.33 53.59 109.47 C 52.69 108.34 51.82 107.19 50.96 106.03 C 52.39 103.05 53.45 99.97 53.90 96.68 C 54.95 96.25 56.00 95.82 57.04 95.38 C 57.95 90.28 59.97 85.55 61.19 80.54 C 61.44 78.48 60.45 76.22 60.20 74.15 C 59.50 74.25 58.81 74.36 58.11 74.46 C 54.87 74.75 51.48 74.57 48.30 75.26 C 46.40 75.69 44.97 77.70 43.73 79.08 C 42.02 79.32 40.33 79.70 38.64 80.07 C 39.32 77.76 40.41 75.39 40.62 72.97 C 40.56 70.59 38.57 68.31 36.80 66.88 C 34.85 67.00 32.90 67.69 31.02 68.17 C 31.24 66.68 31.44 65.19 31.61 63.69 C 29.31 65.04 27.16 66.62 24.94 68.08 C 25.78 66.67 26.65 65.28 27.51 63.89 C 26.64 63.56 25.76 63.22 24.89 62.90 C 23.55 64.40 22.19 65.88 20.79 67.32 C 21.50 64.58 21.32 61.69 22.04 58.99 C 23.20 57.78 24.59 56.77 25.89 55.71 C 31.63 57.91 37.68 58.12 43.74 57.59 C 48.98 56.62 54.15 53.99 58.89 51.67 C 58.82 52.63 58.74 53.58 58.66 54.54 C 60.02 54.67 61.38 54.81 62.75 54.94 C 63.74 55.19 64.33 54.73 64.52 53.56 C 67.93 51.88 71.50 50.74 75.16 49.76 L 75.16 50.42 C 74.06 52.95 73.67 55.58 73.00 58.22 C 72.26 61.32 68.87 62.07 66.38 63.32 C 67.94 66.42 70.32 70.46 69.48 73.99 C 68.59 79.40 66.65 84.49 66.19 89.98 C 65.05 96.04 62.48 101.84 60.68 107.73 C 58.68 114.07 55.13 119.63 51.26 124.98 C 51.78 122.15 52.52 119.37 52.97 116.52 C 49.39 120.89 47.19 126.24 43.75 130.74 C 41.26 133.88 38.67 136.92 35.97 139.87 C 42.99 137.59 50.09 133.45 54.07 127.06 C 60.09 118.00 65.64 108.41 70.79 98.83 C 73.30 93.21 76.71 87.57 78.02 81.55 C 79.74 79.52 81.27 77.47 81.92 74.85 C 83.11 70.78 81.52 66.41 81.48 62.05 C 81.43 58.04 80.91 54.64 79.75 50.82 C 79.34 48.45 78.65 46.15 78.10 43.81 C 77.01 39.35 77.36 34.49 73.22 31.60 C 72.34 30.83 71.34 30.23 70.29 29.73 C 68.39 28.92 66.42 28.35 64.44 27.75 C 65.17 25.90 65.02 22.96 67.48 22.53 Z" fill="#21233f" />
<path d="M 209.65 27.72 C 213.51 29.18 217.57 29.75 221.50 30.96 C 219.60 32.85 217.56 35.16 214.95 36.02 C 210.94 35.44 210.81 31.31 209.09 28.40 C 207.78 29.90 206.60 31.47 205.40 33.06 C 204.48 32.06 203.56 31.07 202.64 30.07 C 204.96 29.23 207.29 28.43 209.65 27.72 Z" fill="#747685" />
<path d="M 70.29 29.73 C 71.34 30.23 72.34 30.83 73.22 31.60 C 73.83 34.88 74.34 38.41 75.54 41.53 C 76.03 42.70 77.00 43.29 78.10 43.81 C 78.65 46.15 79.34 48.45 79.75 50.82 C 79.25 53.33 78.62 55.74 78.23 58.28 C 77.31 55.61 76.22 53.02 75.16 50.42 L 75.16 49.76 C 75.32 43.12 72.15 36.07 70.29 29.73 Z" fill="#a8a6b0" />
<path d="M 73.22 31.60 C 77.36 34.49 77.01 39.35 78.10 43.81 C 77.00 43.29 76.03 42.70 75.54 41.53 C 74.34 38.41 73.83 34.88 73.22 31.60 Z" fill="#e9eaee" />
<path d="M 197.79 32.19 C 197.62 32.76 197.45 33.32 197.28 33.89 C 194.92 35.56 192.65 37.32 190.41 39.13 C 189.07 38.67 187.65 38.01 186.22 37.90 C 183.90 38.36 181.77 40.34 179.87 41.67 C 179.93 40.47 179.99 39.27 180.04 38.06 C 185.62 35.01 191.59 33.37 197.79 32.19 Z" fill="#494b5d" />
<path d="M 223.42 32.70 C 222.68 38.05 222.59 42.79 218.08 46.48 C 217.35 43.58 216.34 40.79 215.26 38.01 C 217.89 36.08 220.58 34.29 223.42 32.70 Z" fill="#8e8f9b" />
<path d="M 178.58 38.98 C 178.13 40.75 177.79 42.69 176.96 44.33 C 175.31 45.72 172.88 46.32 170.89 47.06 C 171.38 45.07 171.70 43.05 171.99 41.01 C 174.16 40.26 176.37 39.62 178.58 38.98 Z" fill="#4c4c61" />
<path d="M 171.99 41.01 C 171.70 43.05 171.38 45.07 170.89 47.06 L 170.71 47.77 C 169.69 49.34 168.70 50.92 167.87 52.59 C 167.16 53.47 166.44 54.42 165.57 55.14 C 163.48 55.56 161.25 55.46 159.12 55.53 C 159.83 57.07 160.54 58.60 161.16 60.19 L 161.28 60.90 C 160.28 60.82 159.27 60.73 158.27 60.70 L 157.97 60.70 C 157.59 61.50 157.23 62.32 156.88 63.14 C 153.50 64.46 150.89 65.97 148.12 68.34 C 144.59 67.37 142.37 65.39 138.96 67.95 C 135.27 70.03 130.20 69.43 126.11 69.08 C 123.02 68.86 120.79 67.44 118.44 65.54 C 117.17 64.55 115.91 63.55 114.57 62.65 C 111.39 61.58 108.23 60.96 104.99 60.08 C 111.18 61.01 117.63 60.73 123.88 60.84 C 130.62 57.98 137.13 54.55 144.03 51.99 C 153.42 48.52 162.59 44.46 171.99 41.01 Z" fill="#f5f4ec" />
<path d="M 65.18 47.83 C 63.86 50.06 62.32 52.88 59.98 54.13 C 59.78 53.08 59.55 52.04 59.28 51.02 C 61.21 49.89 63.16 48.81 65.18 47.83 Z" fill="#4a4853" />
<path d="M 170.71 47.77 C 170.37 51.36 170.27 55.00 170.21 58.60 C 168.60 59.40 166.99 60.21 165.38 61.02 C 166.68 61.36 167.98 61.70 169.29 62.04 C 166.31 63.63 163.06 64.90 160.27 66.79 C 158.36 68.06 156.87 69.86 154.91 71.02 C 152.33 71.15 149.72 70.18 147.12 70.20 C 144.87 70.64 142.75 72.13 140.77 73.26 C 139.92 72.54 139.06 71.83 138.20 71.12 C 138.44 70.06 138.69 69.00 138.96 67.95 C 142.37 65.39 144.59 67.37 148.12 68.34 C 150.39 68.87 152.62 69.02 154.77 67.95 C 156.13 66.94 157.20 65.47 158.29 64.18 C 159.35 64.27 160.42 64.36 161.48 64.44 C 161.46 63.26 161.41 62.07 161.28 60.90 L 161.16 60.19 C 163.66 58.96 166.18 57.83 168.86 57.03 C 168.53 55.55 168.20 54.07 167.87 52.59 C 168.70 50.92 169.69 49.34 170.71 47.77 Z" fill="#686779" />
<path d="M 75.16 50.42 C 76.22 53.02 77.31 55.61 78.23 58.28 C 78.43 61.21 78.39 64.02 78.12 66.94 C 77.94 69.84 78.11 72.58 78.66 75.43 C 78.81 76.24 78.96 77.06 79.11 77.87 C 78.43 77.32 77.74 76.76 77.06 76.21 C 77.39 77.99 77.73 79.76 78.02 81.55 C 76.71 87.57 73.30 93.21 70.79 98.83 C 65.64 108.41 60.09 118.00 54.07 127.06 C 50.09 133.45 42.99 137.59 35.97 139.87 C 38.67 136.92 41.26 133.88 43.75 130.74 C 47.19 126.24 49.39 120.89 52.97 116.52 C 52.52 119.37 51.78 122.15 51.26 124.98 C 55.13 119.63 58.68 114.07 60.68 107.73 C 62.48 101.84 65.05 96.04 66.19 89.98 C 66.65 84.49 68.59 79.40 69.48 73.99 C 70.32 70.46 67.94 66.42 66.38 63.32 C 68.87 62.07 72.26 61.32 73.00 58.22 C 73.67 55.58 74.06 52.95 75.16 50.42 Z" fill="#f3f3f1" />
<path d="M 79.75 50.82 C 80.91 54.64 81.43 58.04 81.48 62.05 C 81.52 66.41 83.11 70.78 81.92 74.85 C 81.27 77.47 79.74 79.52 78.02 81.55 C 77.73 79.76 77.39 77.99 77.06 76.21 C 77.74 76.76 78.43 77.32 79.11 77.87 C 78.96 77.06 78.81 76.24 78.66 75.43 C 79.63 74.48 80.60 73.53 81.57 72.59 C 81.17 70.48 80.78 68.34 80.26 66.26 C 79.55 66.48 78.83 66.71 78.12 66.94 C 78.39 64.02 78.43 61.21 78.23 58.28 C 78.62 55.74 79.25 53.33 79.75 50.82 Z" fill="#797986" />
<path d="M 90.71 51.61 C 92.59 53.01 94.42 54.49 96.32 55.87 C 95.05 56.07 93.80 56.27 92.52 56.39 C 91.97 56.02 91.41 55.65 90.86 55.27 C 90.80 54.05 90.75 52.83 90.71 51.61 Z" fill="#b6b7c1" />
<path d="M 167.87 52.59 C 168.20 54.07 168.53 55.55 168.86 57.03 C 166.18 57.83 163.66 58.96 161.16 60.19 C 160.54 58.60 159.83 57.07 159.12 55.53 C 161.25 55.46 163.48 55.56 165.57 55.14 C 166.44 54.42 167.16 53.47 167.87 52.59 Z" fill="#b2b1b6" />
<path d="M 64.52 53.56 C 64.33 54.73 63.74 55.19 62.75 54.94 C 62.73 53.97 63.32 53.51 64.52 53.56 Z" fill="#030417" />
<path d="M 90.86 55.27 C 91.41 55.65 91.97 56.02 92.52 56.39 C 93.80 56.27 95.05 56.07 96.32 55.87 C 97.31 56.52 98.31 57.14 99.34 57.73 C 98.88 58.82 98.43 59.91 97.99 61.00 C 99.94 61.15 101.88 61.30 103.82 61.47 C 104.62 62.73 105.43 63.99 106.26 65.24 C 106.85 64.04 107.43 62.85 108.01 61.65 C 109.20 63.91 110.36 66.13 111.97 68.14 C 112.34 68.51 112.72 68.88 113.10 69.24 C 114.64 68.10 116.19 66.98 117.81 65.95 C 117.02 67.76 116.48 69.64 115.97 71.54 C 115.03 71.09 114.10 70.61 113.15 70.18 C 112.59 70.55 112.03 70.92 111.47 71.30 C 110.62 71.19 109.78 71.07 108.93 70.98 C 107.42 71.30 105.91 71.80 104.44 72.28 C 103.82 70.71 103.38 69.01 102.57 67.53 C 101.04 66.02 98.83 65.12 96.98 64.06 C 97.84 63.46 98.70 62.86 99.56 62.26 C 97.85 61.30 96.17 60.30 94.46 59.33 C 94.70 60.93 95.27 62.71 95.04 64.32 C 94.49 66.13 93.43 67.81 92.55 69.46 C 91.96 64.74 91.38 60.00 90.86 55.27 Z" fill="#666776" />
<path d="M 99.34 57.73 C 101.17 58.59 103.06 59.51 104.99 60.08 C 108.23 60.96 111.39 61.58 114.57 62.65 C 113.70 64.48 112.84 66.31 111.97 68.14 C 110.36 66.13 109.20 63.91 108.01 61.65 C 107.43 62.85 106.85 64.04 106.26 65.24 C 105.43 63.99 104.62 62.73 103.82 61.47 C 101.88 61.30 99.94 61.15 97.99 61.00 C 98.43 59.91 98.88 58.82 99.34 57.73 Z" fill="#8e8f99" />
<path d="M 94.46 59.33 C 96.17 60.30 97.85 61.30 99.56 62.26 C 98.70 62.86 97.84 63.46 96.98 64.06 C 98.83 65.12 101.04 66.02 102.57 67.53 C 103.38 69.01 103.82 70.71 104.44 72.28 C 104.91 73.30 105.40 74.31 105.90 75.31 C 104.33 75.70 102.81 76.19 101.26 76.67 C 98.43 74.49 93.53 73.12 92.55 69.46 C 93.43 67.81 94.49 66.13 95.04 64.32 C 95.27 62.71 94.70 60.93 94.46 59.33 Z" fill="#34364f" />
<path d="M 157.97 60.70 L 158.27 60.70 C 159.27 60.73 160.28 60.82 161.28 60.90 C 161.41 62.07 161.46 63.26 161.48 64.44 C 160.42 64.36 159.35 64.27 158.29 64.18 C 157.20 65.47 156.13 66.94 154.77 67.95 C 152.62 69.02 150.39 68.87 148.12 68.34 C 150.89 65.97 153.50 64.46 156.88 63.14 C 157.23 62.32 157.59 61.50 157.97 60.70 Z" fill="#b4b4b5" />
<path d="M 177.27 59.64 C 179.37 59.57 181.46 59.72 183.55 59.93 C 182.24 60.70 180.91 61.42 179.57 62.14 C 179.56 74.77 185.26 87.22 188.51 99.36 C 189.47 103.25 191.15 106.84 192.32 110.66 C 193.80 114.91 194.47 118.93 196.71 122.88 L 197.54 124.32 C 196.53 129.40 196.03 134.61 195.60 139.77 C 195.24 144.51 195.36 149.25 195.50 154.00 C 195.61 157.93 195.13 161.87 195.35 165.78 C 195.55 168.59 197.20 170.36 198.63 172.62 C 197.07 172.92 195.51 173.22 193.95 173.50 C 192.72 171.80 191.55 170.08 190.14 168.51 C 189.10 167.85 188.03 167.23 186.94 166.64 C 186.06 166.40 185.18 166.18 184.29 165.99 C 183.85 167.41 183.45 168.84 183.06 170.28 C 181.82 171.49 180.60 172.72 179.38 173.95 C 179.74 172.73 180.11 171.51 180.46 170.29 C 179.24 170.50 178.02 170.70 176.79 170.91 C 176.67 168.33 176.51 165.77 176.76 163.19 C 172.43 163.57 168.12 163.84 163.85 164.71 C 161.99 165.07 160.19 165.56 158.36 166.04 C 158.68 167.77 159.04 169.49 159.42 171.21 C 158.42 171.62 157.42 172.03 156.43 172.46 C 155.90 170.86 155.38 169.25 154.87 167.64 C 151.37 168.97 147.94 170.44 144.39 171.64 C 144.36 172.63 144.34 173.61 144.34 174.60 C 143.31 174.79 142.28 174.97 141.26 175.20 C 140.45 173.69 139.61 172.19 138.75 170.71 C 136.80 173.04 135.24 174.14 132.44 175.24 C 131.80 173.53 131.16 171.82 130.44 170.14 C 129.64 170.15 128.83 170.19 128.03 170.25 C 126.63 170.36 125.23 170.52 123.83 170.63 C 123.27 168.79 122.66 166.96 122.07 165.13 C 122.70 163.49 123.41 161.82 123.83 160.11 C 122.10 158.01 119.47 156.53 117.05 155.35 C 114.49 154.15 111.93 152.92 109.30 151.89 C 106.77 150.89 104.15 150.25 101.56 149.44 L 100.68 148.95 C 104.87 147.17 108.24 148.82 112.26 150.07 C 114.34 150.74 116.42 151.41 118.44 152.25 C 118.91 152.56 119.37 152.87 119.83 153.19 C 121.76 154.58 123.63 156.06 125.51 157.50 C 126.52 155.54 127.40 153.75 127.31 151.48 C 129.31 151.54 131.31 151.81 133.29 152.07 C 130.90 154.31 128.61 156.60 126.68 159.25 C 129.91 160.06 130.69 158.81 133.04 156.94 C 133.56 157.27 134.09 157.59 134.61 157.92 L 134.62 158.82 C 134.54 161.26 134.99 163.41 135.76 165.71 C 137.22 164.85 138.69 163.98 140.15 163.11 C 141.15 164.43 142.14 165.76 143.10 167.11 C 141.74 167.22 140.37 167.32 139.01 167.42 C 139.67 168.68 140.33 169.93 140.99 171.19 C 144.38 169.62 147.86 168.25 151.23 166.63 C 154.38 165.19 157.63 164.00 160.97 163.08 C 162.32 162.76 163.68 162.46 165.05 162.22 C 170.22 161.47 175.36 161.54 180.56 161.40 C 180.02 160.32 179.49 159.18 178.80 158.17 C 177.34 157.04 175.26 156.60 173.54 155.96 C 174.41 155.74 175.28 155.51 176.15 155.27 C 178.44 154.69 179.79 153.43 181.27 151.69 L 181.74 151.95 C 183.68 153.18 185.57 154.45 187.64 155.45 L 188.33 155.78 C 186.96 157.92 185.92 160.23 185.11 162.63 L 185.76 163.01 C 187.85 164.12 189.97 165.17 192.09 166.24 L 191.88 164.19 C 191.37 161.16 192.57 158.38 189.75 156.44 C 190.77 155.96 191.80 155.47 192.83 154.99 C 192.51 152.59 192.17 150.20 191.92 147.79 C 191.63 141.49 192.72 135.08 193.51 128.84 C 193.81 123.32 190.60 117.97 189.23 112.75 C 187.85 108.28 187.24 103.83 185.31 99.70 C 180.76 88.77 178.93 77.38 175.86 66.03 C 170.56 68.25 165.51 71.00 160.14 73.07 C 154.68 75.13 149.77 78.25 144.33 80.35 C 136.62 83.67 127.45 86.61 119.02 84.92 C 115.23 84.45 111.97 82.84 108.60 81.17 C 108.26 84.22 108.29 87.05 106.81 89.85 C 104.28 94.69 102.34 99.62 98.97 103.97 C 95.40 108.45 92.36 113.30 88.67 117.69 C 87.37 119.30 86.05 120.89 84.72 122.47 C 84.77 119.75 85.53 117.33 86.58 114.85 C 89.52 112.13 92.20 109.13 94.71 106.01 C 98.19 100.47 101.11 94.78 103.95 88.89 C 106.26 85.61 103.28 81.28 103.11 77.47 C 104.72 77.65 106.32 77.84 107.89 78.22 C 108.52 78.51 109.15 78.80 109.78 79.10 C 111.29 79.83 112.81 80.54 114.34 81.23 C 116.88 82.32 119.56 83.17 122.29 83.62 C 128.73 83.96 134.53 81.41 140.49 79.44 C 144.11 78.21 147.30 76.38 150.75 74.76 C 158.34 70.84 166.34 67.72 174.03 64.03 C 175.84 63.36 176.24 61.18 177.27 59.64 Z" fill="#f8f8f1" />
<path d="M 54.53 62.95 C 53.95 64.47 53.40 66.14 52.49 67.50 C 49.61 68.09 47.33 67.60 44.77 66.28 C 48.00 65.12 51.25 63.90 54.53 62.95 Z" fill="#3ccde0" />
<path d="M 114.57 62.65 C 115.91 63.55 117.17 64.55 118.44 65.54 L 117.81 65.95 C 116.19 66.98 114.64 68.10 113.10 69.24 C 112.72 68.88 112.34 68.51 111.97 68.14 C 112.84 66.31 113.70 64.48 114.57 62.65 Z" fill="#b7b9bb" />
<path d="M 80.26 66.26 C 80.78 68.34 81.17 70.48 81.57 72.59 C 80.60 73.53 79.63 74.48 78.66 75.43 C 78.11 72.58 77.94 69.84 78.12 66.94 C 78.83 66.71 79.55 66.48 80.26 66.26 Z" fill="#cacbd0" />
<path d="M 117.81 65.95 L 118.44 65.54 C 120.79 67.44 123.02 68.86 126.11 69.08 C 130.20 69.43 135.27 70.03 138.96 67.95 C 138.69 69.00 138.44 70.06 138.20 71.12 C 135.45 72.33 132.69 73.51 129.97 74.80 C 129.43 75.05 128.90 75.30 128.36 75.55 C 126.81 74.60 125.20 73.38 123.44 72.88 C 120.95 72.36 118.43 72.30 115.97 71.54 C 116.48 69.64 117.02 67.76 117.81 65.95 Z" fill="#878892" />
<path d="M 175.86 66.03 C 178.93 77.38 180.76 88.77 185.31 99.70 C 187.24 103.83 187.85 108.28 189.23 112.75 C 190.60 117.97 193.81 123.32 193.51 128.84 C 192.72 135.08 191.63 141.49 191.92 147.79 C 190.97 148.17 190.02 148.55 189.08 148.95 C 188.14 147.79 187.19 146.63 186.26 145.47 C 182.13 147.80 177.45 148.43 173.24 150.42 C 172.41 152.38 172.65 154.85 172.67 156.94 C 170.03 158.75 167.49 160.25 164.24 160.59 C 164.51 161.14 164.78 161.68 165.05 162.22 C 163.68 162.46 162.32 162.76 160.97 163.08 C 160.07 163.27 159.18 163.46 158.28 163.64 C 157.66 162.53 157.04 161.42 156.42 160.30 C 154.91 161.41 153.40 162.52 151.89 163.62 C 147.66 160.31 142.84 158.29 138.11 155.85 C 138.28 157.52 138.50 159.17 138.72 160.84 C 137.35 160.16 135.99 159.49 134.62 158.82 L 134.61 157.92 C 134.60 155.27 134.50 152.64 134.34 149.99 C 132.71 149.50 131.09 148.99 129.46 148.49 C 129.48 147.44 129.51 146.39 129.51 145.34 C 126.38 147.35 123.56 149.72 120.87 152.29 L 119.83 153.19 C 119.37 152.87 118.91 152.56 118.44 152.25 C 118.10 150.77 118.39 148.02 116.57 147.50 C 114.86 146.54 113.49 149.19 112.26 150.07 C 108.24 148.82 104.87 147.17 100.68 148.95 C 99.16 148.08 97.66 147.17 96.17 146.25 C 95.24 147.21 94.31 148.18 93.38 149.14 C 92.27 147.94 91.00 146.75 90.18 145.34 C 90.20 143.59 90.65 141.86 90.72 140.12 C 90.24 138.81 89.04 137.73 88.12 136.71 C 86.02 137.45 83.95 138.28 81.92 139.21 C 80.94 138.57 79.96 137.94 78.96 137.34 C 80.36 135.58 82.19 134.46 84.10 133.33 C 82.60 132.04 81.09 130.74 79.55 129.49 L 80.06 127.94 L 81.15 126.80 C 84.46 126.38 87.70 126.78 90.96 127.33 C 90.29 124.09 89.60 120.87 88.67 117.69 C 92.36 113.30 95.40 108.45 98.97 103.97 C 102.34 99.62 104.28 94.69 106.81 89.85 C 108.29 87.05 108.26 84.22 108.60 81.17 C 111.97 82.84 115.23 84.45 119.02 84.92 C 127.45 86.61 136.62 83.67 144.33 80.35 C 149.77 78.25 154.68 75.13 160.14 73.07 C 165.51 71.00 170.56 68.25 175.86 66.03 Z" fill="#242642" />
<path d="M 108.93 70.98 C 109.78 71.07 110.62 71.19 111.47 71.30 C 112.37 72.25 113.27 73.19 114.18 74.14 C 112.70 75.78 111.23 77.44 109.78 79.10 C 109.15 78.80 108.52 78.51 107.89 78.22 C 108.54 77.07 109.18 75.91 109.81 74.75 C 108.50 74.91 107.20 75.10 105.90 75.31 C 105.40 74.31 104.91 73.30 104.44 72.28 C 105.91 71.80 107.42 71.30 108.93 70.98 Z" fill="#8e9099" />
<path d="M 113.15 70.18 C 114.10 70.61 115.03 71.09 115.97 71.54 C 118.43 72.30 120.95 72.36 123.44 72.88 C 125.20 73.38 126.81 74.60 128.36 75.55 C 128.90 75.30 129.43 75.05 129.97 74.80 C 130.67 75.55 131.36 76.31 132.06 77.06 C 129.88 77.55 127.70 78.04 125.51 78.52 C 124.73 78.54 123.95 78.55 123.17 78.56 C 121.79 77.13 120.41 75.69 119.04 74.26 C 118.59 74.96 118.14 75.66 117.69 76.36 C 116.89 76.18 116.08 75.99 115.27 75.81 C 115.00 77.62 114.69 79.43 114.34 81.23 C 112.81 80.54 111.29 79.83 109.78 79.10 C 111.23 77.44 112.70 75.78 114.18 74.14 C 113.27 73.19 112.37 72.25 111.47 71.30 C 112.03 70.92 112.59 70.55 113.15 70.18 Z" fill="#3f4055" />
<path d="M 168.09 73.65 C 168.77 76.59 169.88 78.93 171.57 81.42 C 168.90 80.93 166.23 80.46 163.57 79.98 C 163.77 80.59 163.97 81.21 164.16 81.83 C 163.91 82.08 163.65 82.33 163.40 82.58 C 162.11 82.88 160.82 83.18 159.54 83.48 C 158.04 81.13 156.44 79.05 154.03 77.58 C 158.75 75.52 163.61 76.41 168.09 73.65 Z" fill="#383a52" />
<path d="M 58.11 74.46 C 57.41 74.62 56.71 74.78 56.01 74.94 C 56.65 76.55 57.30 78.15 57.90 79.78 C 53.80 78.56 50.13 77.93 45.88 78.82 L 43.73 79.08 C 44.97 77.70 46.40 75.69 48.30 75.26 C 51.48 74.57 54.87 74.75 58.11 74.46 Z" fill="#fdfdfc" />
<path d="M 197.20 73.71 C 198.08 73.64 198.96 73.63 199.83 73.66 C 201.50 78.04 202.71 82.62 204.22 87.07 C 200.38 83.34 197.31 79.26 197.20 73.71 Z" fill="#65687d" />
<path d="M 57.90 79.78 C 57.47 81.54 56.95 83.30 56.20 84.95 C 52.13 86.63 47.71 86.58 43.79 88.81 C 41.18 90.20 39.63 93.16 37.06 94.48 C 35.51 94.42 33.95 94.31 32.40 94.13 C 32.96 92.48 33.56 90.85 34.26 89.26 C 33.65 89.46 33.03 89.65 32.42 89.84 C 31.25 88.38 30.12 86.51 28.51 85.50 C 26.38 84.36 24.09 83.52 21.94 82.42 C 26.39 80.76 31.20 84.49 35.87 85.08 C 34.66 83.60 33.35 82.21 32.05 80.80 C 33.94 81.23 35.96 82.30 37.89 82.21 C 40.64 81.35 43.28 80.01 45.88 78.82 C 50.13 77.93 53.80 78.56 57.90 79.78 Z" fill="#222440" />
<path d="M 95.31 77.88 C 95.40 80.62 94.99 83.29 94.54 85.99 C 93.09 85.66 91.65 85.32 90.19 85.04 C 91.56 82.40 93.28 80.05 95.31 77.88 Z" fill="#45465c" />
<path d="M 153.30 77.98 C 152.03 79.90 150.83 81.87 149.61 83.83 C 150.36 84.37 151.11 84.91 151.86 85.45 C 151.22 87.00 150.65 88.57 150.18 90.18 C 149.78 91.55 149.42 92.93 149.07 94.32 C 147.02 95.10 145.00 95.99 142.99 96.86 C 143.42 98.23 143.85 99.60 144.27 100.97 C 142.97 101.24 141.65 101.48 140.32 101.68 C 139.27 99.11 138.24 96.63 136.31 94.58 C 137.00 93.65 137.64 92.68 138.29 91.72 C 138.50 92.53 138.71 93.34 138.92 94.16 C 139.64 93.87 140.37 93.59 141.10 93.30 C 141.16 90.53 140.96 87.52 141.69 84.84 C 142.55 83.67 143.83 82.73 144.93 81.79 C 145.33 83.27 145.70 84.74 146.09 86.22 C 146.68 85.82 147.27 85.42 147.86 85.01 C 148.24 83.71 148.56 82.32 149.14 81.09 C 150.19 79.76 151.88 78.86 153.30 77.98 Z" fill="#393b51" />
<path d="M 153.30 77.98 L 154.03 77.58 C 156.44 79.05 158.04 81.13 159.54 83.48 C 160.82 83.18 162.11 82.88 163.40 82.58 C 163.91 83.44 164.40 84.31 164.86 85.19 C 163.22 86.70 161.11 87.71 159.26 88.96 C 158.29 88.71 157.32 88.48 156.35 88.28 C 156.38 86.94 156.42 85.61 156.40 84.28 C 155.57 83.73 154.72 83.19 153.86 82.68 C 153.16 83.59 152.50 84.52 151.86 85.45 C 151.11 84.91 150.36 84.37 149.61 83.83 C 150.83 81.87 152.03 79.90 153.30 77.98 Z" fill="#5d5f70" />
<path d="M 153.86 82.68 C 154.72 83.19 155.57 83.73 156.40 84.28 C 156.42 85.61 156.38 86.94 156.35 88.28 C 154.10 89.44 151.94 90.77 149.72 91.98 L 150.18 90.18 C 150.65 88.57 151.22 87.00 151.86 85.45 C 152.50 84.52 153.16 83.59 153.86 82.68 Z" fill="#cfcecd" />
<path d="M 90.19 85.04 C 91.65 85.32 93.09 85.66 94.54 85.99 C 94.38 89.89 95.37 93.52 95.68 97.34 C 95.95 99.89 94.59 101.76 93.54 103.97 C 93.93 104.65 94.32 105.33 94.71 106.01 C 92.20 109.13 89.52 112.13 86.58 114.85 L 86.86 113.86 C 87.75 109.17 91.00 105.78 92.34 101.34 C 93.04 97.70 92.87 93.90 93.23 90.20 C 91.74 89.46 90.26 88.70 88.76 87.98 C 89.21 86.98 89.68 86.01 90.19 85.04 Z" fill="#787985" />
<path d="M 88.76 87.98 C 90.26 88.70 91.74 89.46 93.23 90.20 C 92.87 93.90 93.04 97.70 92.34 101.34 C 91.00 105.78 87.75 109.17 86.86 113.86 C 85.95 113.82 85.04 113.80 84.13 113.79 C 81.67 116.22 79.61 118.98 78.29 122.20 C 77.31 124.42 76.53 127.06 75.01 128.95 C 72.34 130.07 69.02 129.86 66.17 130.20 C 66.50 132.85 66.86 135.49 67.26 138.12 C 65.92 138.40 64.58 138.67 63.24 138.95 C 64.30 139.87 65.37 140.79 66.43 141.72 C 64.57 143.05 62.60 144.19 60.56 145.23 C 60.11 143.74 59.70 142.17 59.04 140.77 C 57.97 140.26 56.85 139.85 55.68 139.54 C 57.84 137.57 61.42 136.44 62.63 133.76 C 64.21 130.69 65.82 127.66 67.88 124.88 C 70.60 121.25 71.79 117.29 75.53 114.47 C 79.68 111.05 81.14 106.07 83.41 101.36 C 85.45 97.00 86.88 92.40 88.76 87.98 Z" fill="#f6f5ed" />
<path d="M 156.35 88.28 C 157.32 88.48 158.29 88.71 159.26 88.96 C 158.71 90.52 158.20 92.10 157.64 93.65 C 154.76 93.72 151.92 93.91 149.07 94.32 C 149.42 92.93 149.78 91.55 150.18 90.18 L 149.72 91.98 C 151.94 90.77 154.10 89.44 156.35 88.28 Z" fill="#90919a" />
<path d="M 204.89 88.78 C 207.70 94.80 209.78 101.22 212.87 107.10 C 211.51 107.32 210.14 107.53 208.78 107.75 C 207.15 103.92 205.67 100.04 203.94 96.25 C 202.58 96.51 201.21 96.77 199.85 97.04 C 199.35 96.55 198.85 96.07 198.34 95.59 C 200.89 93.52 202.96 91.45 204.89 88.78 Z" fill="#f7f8f1" />
<path d="M 167.92 89.69 C 167.14 91.30 165.38 93.16 165.71 95.01 C 166.72 104.32 167.96 113.29 170.86 122.22 C 171.80 125.02 173.35 127.26 174.87 129.76 C 173.86 130.44 172.85 131.12 171.85 131.81 C 171.73 137.25 171.46 142.70 171.61 148.13 C 171.60 149.49 171.56 150.61 170.63 151.68 C 167.36 151.18 164.38 149.55 160.98 149.35 C 154.60 150.01 150.67 153.86 145.00 155.89 C 144.39 154.36 144.01 152.61 143.15 151.20 C 140.18 147.89 136.07 145.13 132.57 142.41 C 130.54 140.90 128.55 139.24 125.97 138.84 C 123.28 138.42 120.60 138.09 117.98 137.29 C 121.65 135.74 124.04 135.80 127.72 137.15 C 135.52 140.24 143.14 145.44 147.79 152.54 C 151.33 150.62 154.84 148.90 158.74 147.83 C 161.83 146.98 164.79 147.47 167.91 147.75 C 168.14 144.39 168.60 140.94 168.39 137.57 C 167.96 132.94 169.54 128.65 168.56 124.01 C 168.51 123.39 168.47 122.76 168.42 122.14 C 167.86 121.79 167.30 121.44 166.73 121.09 C 165.46 112.27 163.13 103.48 162.85 94.57 C 159.97 95.94 157.10 97.33 154.23 98.73 C 151.20 100.15 148.23 101.61 145.04 102.65 C 140.35 104.15 135.55 104.37 130.67 104.00 C 129.53 103.76 128.40 103.52 127.26 103.33 C 126.80 103.72 126.36 104.12 125.92 104.52 C 118.84 111.89 112.59 120.13 105.13 127.14 C 102.16 130.02 98.80 133.20 94.76 134.42 C 97.49 130.40 101.11 127.96 104.46 124.47 C 107.38 121.39 110.45 118.42 113.27 115.24 C 115.35 112.89 116.68 110.18 118.98 108.01 C 120.66 106.40 122.24 104.71 123.79 102.99 C 122.98 102.13 122.17 101.28 121.37 100.41 C 124.47 99.15 127.27 98.46 130.61 98.18 C 130.40 99.40 130.18 100.62 129.97 101.83 C 132.01 101.89 134.06 101.97 136.10 101.97 C 137.52 101.94 138.91 101.84 140.32 101.68 C 141.65 101.48 142.97 101.24 144.27 100.97 C 148.84 99.29 153.26 97.01 157.36 94.40 C 160.76 92.16 163.98 90.71 167.92 89.69 Z" fill="#fdfdfd" />
<path d="M 157.64 93.65 L 157.36 94.40 C 153.26 97.01 148.84 99.29 144.27 100.97 C 143.85 99.60 143.42 98.23 142.99 96.86 C 145.00 95.99 147.02 95.10 149.07 94.32 C 151.92 93.91 154.76 93.72 157.64 93.65 Z" fill="#686978" />
<path d="M 136.31 94.58 C 138.24 96.63 139.27 99.11 140.32 101.68 C 138.91 101.84 137.52 101.94 136.10 101.97 C 134.72 101.02 133.33 100.07 131.94 99.12 C 133.42 97.63 134.89 96.13 136.31 94.58 Z" fill="#58596a" />
<path d="M 162.85 94.57 C 163.13 103.48 165.46 112.27 166.73 121.09 L 167.05 122.70 C 165.78 121.59 164.51 120.46 163.22 119.35 L 162.66 118.87 C 160.65 118.52 158.65 118.67 156.63 118.87 C 156.48 117.87 156.32 116.88 156.18 115.88 C 155.95 113.89 155.69 111.90 155.39 109.92 C 153.51 110.86 151.68 111.93 149.77 112.81 C 146.71 114.24 142.76 113.65 139.53 114.54 C 136.63 116.89 134.28 119.91 131.34 122.26 C 130.90 120.94 130.46 119.63 130.00 118.32 C 129.03 119.40 128.07 120.50 127.12 121.60 C 126.19 121.28 125.26 120.95 124.32 120.68 L 123.51 120.90 L 122.13 121.34 C 120.52 121.38 118.92 121.33 117.31 121.29 C 117.48 123.58 117.64 125.87 117.77 128.16 C 116.33 128.12 114.89 128.09 113.46 128.05 C 114.33 123.70 115.25 119.46 117.37 115.51 C 117.34 116.85 117.31 118.19 117.28 119.53 C 119.73 119.00 122.19 118.66 124.70 118.45 C 123.79 116.40 122.67 114.22 122.31 111.99 C 123.03 110.11 124.52 108.43 125.74 106.85 C 126.60 108.25 127.46 109.63 128.31 111.03 C 130.75 109.70 132.50 108.31 134.31 106.20 C 133.10 105.46 131.90 104.70 130.67 104.00 C 135.55 104.37 140.35 104.15 145.04 102.65 C 145.50 103.30 145.95 103.95 146.41 104.60 C 146.11 106.30 145.83 108.01 145.57 109.73 C 147.45 109.80 149.33 109.87 151.21 109.93 C 151.69 105.77 154.51 102.96 154.23 98.73 C 157.10 97.33 159.97 95.94 162.85 94.57 Z" fill="#30324b" />
<path d="M 203.94 96.25 C 205.67 100.04 207.15 103.92 208.78 107.75 C 210.14 107.53 211.51 107.32 212.87 107.10 C 213.26 107.73 213.67 108.36 214.08 108.98 C 211.64 109.86 213.29 112.05 215.35 111.33 C 216.08 111.24 216.82 111.14 217.55 111.05 C 217.06 112.00 216.56 112.95 216.07 113.91 L 215.32 115.44 C 212.95 115.02 210.58 114.54 208.20 114.22 C 209.60 113.14 210.95 111.96 212.31 110.82 C 211.62 110.15 210.93 109.49 210.24 108.83 C 209.12 109.85 208.01 110.86 206.89 111.88 C 205.21 110.65 203.53 109.42 201.84 108.20 C 203.07 107.83 204.29 107.45 205.51 107.08 L 207.11 106.56 C 206.47 104.11 205.70 101.69 204.87 99.29 C 204.13 99.44 203.40 99.59 202.67 99.77 C 201.74 98.85 200.79 97.95 199.85 97.04 C 201.21 96.77 202.58 96.51 203.94 96.25 Z" fill="#56576a" />
<path d="M 154.23 98.73 C 154.51 102.96 151.69 105.77 151.21 109.93 C 149.33 109.87 147.45 109.80 145.57 109.73 C 145.83 108.01 146.11 106.30 146.41 104.60 C 145.95 103.95 145.50 103.30 145.04 102.65 C 148.23 101.61 151.20 100.15 154.23 98.73 Z" fill="#5c5e70" />
<path d="M 204.87 99.29 C 205.70 101.69 206.47 104.11 207.11 106.56 L 205.51 107.08 C 205.05 105.84 204.58 104.59 204.10 103.35 C 202.50 103.48 200.89 103.60 199.29 103.76 C 200.05 101.80 200.62 100.66 202.67 99.77 C 203.40 99.59 204.13 99.44 204.87 99.29 Z" fill="#ffffff" />
<path d="M 54.22 101.24 C 55.66 100.42 56.96 102.29 55.86 103.44 C 54.44 104.25 53.13 102.38 54.22 101.24 Z" fill="#65667c" />
<path d="M 127.26 103.33 C 128.40 103.52 129.53 103.76 130.67 104.00 C 131.90 104.70 133.10 105.46 134.31 106.20 C 132.50 108.31 130.75 109.70 128.31 111.03 C 127.46 109.63 126.60 108.25 125.74 106.85 C 125.80 106.08 125.86 105.30 125.92 104.52 C 126.36 104.12 126.80 103.72 127.26 103.33 Z" fill="#676977" />
<path d="M 214.08 108.98 C 214.64 109.73 215.06 110.51 215.35 111.33 C 213.29 112.05 211.64 109.86 214.08 108.98 Z" fill="#a3a5b6" />
<path d="M 155.39 109.92 C 155.69 111.90 155.95 113.89 156.18 115.88 C 156.27 118.79 156.35 121.68 156.69 124.57 C 158.75 122.74 160.77 120.87 162.66 118.87 L 163.22 119.35 C 161.96 121.93 160.85 124.55 159.85 127.24 C 159.12 129.88 157.26 131.48 155.64 133.56 C 154.36 136.10 153.38 138.85 152.27 141.49 C 151.34 141.01 150.42 140.53 149.54 139.97 C 148.03 138.53 146.54 137.08 144.90 135.79 C 143.20 134.44 141.50 133.10 139.82 131.73 C 138.93 132.31 138.04 132.91 137.13 133.48 C 133.58 135.63 130.77 134.92 127.19 133.31 C 126.32 130.55 125.19 127.90 124.01 125.25 C 126.09 125.06 128.17 124.86 130.25 124.71 C 130.61 123.89 130.97 123.07 131.34 122.26 C 134.28 119.91 136.63 116.89 139.53 114.54 C 142.76 113.65 146.71 114.24 149.77 112.81 C 151.68 111.93 153.51 110.86 155.39 109.92 Z" fill="#f5f5ed" />
<path d="M 132.17 111.68 C 132.95 113.01 133.66 114.35 134.38 115.70 C 133.14 115.76 131.90 115.81 130.66 115.86 C 131.15 114.46 131.64 113.07 132.17 111.68 Z" fill="#616276" />
<path d="M 84.13 113.79 C 85.04 113.80 85.95 113.82 86.86 113.86 L 86.58 114.85 C 85.53 117.33 84.77 119.75 84.72 122.47 C 83.55 123.93 82.40 125.41 81.15 126.80 L 80.06 127.94 C 78.83 128.70 77.57 129.42 76.30 130.13 C 76.43 131.23 76.56 132.33 76.69 133.42 C 74.40 133.62 72.10 133.75 69.80 133.79 C 71.23 134.38 72.74 134.96 74.06 135.77 C 74.98 137.77 74.69 140.44 74.48 142.58 C 74.38 143.27 74.29 143.97 74.19 144.66 C 72.12 145.00 69.98 145.32 67.95 145.84 C 67.48 146.29 67.02 146.75 66.56 147.22 C 69.33 147.62 72.06 147.98 74.87 147.83 C 76.50 147.61 78.11 147.26 79.67 146.72 C 79.22 144.87 78.45 143.17 77.75 141.41 C 79.22 140.95 80.74 140.64 82.28 140.43 C 83.14 140.33 84.00 140.24 84.86 140.14 C 84.69 142.32 84.42 144.70 84.87 146.85 C 85.93 148.34 87.43 149.57 88.89 150.66 C 87.47 150.46 86.05 150.32 84.62 150.22 C 84.90 151.22 85.21 152.22 85.47 153.22 C 84.75 153.78 84.03 154.33 83.31 154.87 C 82.58 152.49 81.85 150.13 81.01 147.79 C 80.11 148.78 79.23 149.79 78.36 150.81 C 73.63 153.28 68.92 153.03 63.78 152.64 C 60.70 150.44 58.86 146.21 57.11 142.92 C 55.61 143.66 54.12 144.41 52.62 145.15 C 51.48 142.33 50.67 139.47 50.41 136.43 C 51.49 137.43 52.55 138.44 53.59 139.48 C 54.29 139.50 54.98 139.52 55.68 139.54 C 56.85 139.85 57.97 140.26 59.04 140.77 C 59.70 142.17 60.11 143.74 60.56 145.23 C 62.60 144.19 64.57 143.05 66.43 141.72 C 65.37 140.79 64.30 139.87 63.24 138.95 C 64.58 138.67 65.92 138.40 67.26 138.12 C 66.86 135.49 66.50 132.85 66.17 130.20 C 69.02 129.86 72.34 130.07 75.01 128.95 C 76.53 127.06 77.31 124.42 78.29 122.20 C 79.61 118.98 81.67 116.22 84.13 113.79 Z" fill="#a7a6ab" />
<path d="M 47.62 113.45 C 48.59 114.17 49.56 114.89 50.53 115.62 C 48.52 117.20 46.43 118.68 44.37 120.19 C 45.30 117.86 46.29 115.58 47.62 113.45 Z" fill="#66697a" />
<path d="M 208.20 114.22 C 210.58 114.54 212.95 115.02 215.32 115.44 L 215.05 116.20 C 214.21 119.18 214.37 122.35 214.83 125.38 C 215.10 127.00 215.40 128.62 215.63 130.25 C 215.47 132.43 215.00 134.53 214.35 136.60 C 213.19 139.81 212.80 143.06 212.53 146.43 C 212.18 148.74 211.28 150.82 210.16 152.84 C 208.89 151.54 207.56 150.32 206.23 149.09 C 205.78 151.50 205.32 153.91 204.87 156.32 C 204.07 154.84 203.43 152.95 202.21 151.76 C 200.30 150.77 198.11 150.33 196.16 149.36 C 197.16 143.43 197.61 137.45 198.43 131.49 C 198.74 128.96 198.94 126.60 197.54 124.32 L 196.71 122.88 C 199.77 118.81 203.98 116.81 208.20 114.22 Z" fill="#252843" />
<path d="M 216.07 113.91 C 217.58 114.98 219.02 116.15 220.32 117.49 C 218.55 117.10 216.81 116.62 215.05 116.20 L 215.32 115.44 L 216.07 113.91 Z" fill="#bec0ca" />
<path d="M 152.88 114.75 C 152.75 116.88 152.71 119.05 152.41 121.16 C 148.78 122.51 144.79 122.94 141.01 123.71 C 139.33 123.91 137.64 124.04 135.96 124.18 C 135.86 125.11 135.76 126.05 135.66 126.98 C 134.30 126.51 132.96 125.98 131.62 125.44 C 134.99 122.51 137.98 119.12 141.45 116.32 C 145.25 115.72 149.10 115.58 152.88 114.75 Z" fill="#626375" />
<path d="M 156.18 115.88 C 156.32 116.88 156.48 117.87 156.63 118.87 C 158.65 118.67 160.65 118.52 162.66 118.87 C 160.77 120.87 158.75 122.74 156.69 124.57 C 156.35 121.68 156.27 118.79 156.18 115.88 Z" fill="#6c6e7b" />
<path d="M 215.05 116.20 C 216.81 116.62 218.55 117.10 220.32 117.49 C 220.62 117.97 220.90 118.46 221.17 118.96 C 220.94 120.05 220.72 121.14 220.47 122.23 C 218.88 123.86 216.93 124.64 214.83 125.38 C 214.37 122.35 214.21 119.18 215.05 116.20 Z" fill="#4d4d60" />
<path d="M 88.67 117.69 C 89.60 120.87 90.29 124.09 90.96 127.33 C 87.70 126.78 84.46 126.38 81.15 126.80 C 82.40 125.41 83.55 123.93 84.72 122.47 C 86.05 120.89 87.37 119.30 88.67 117.69 Z" fill="#4b4c61" />
<path d="M 130.00 118.32 C 130.46 119.63 130.90 120.94 131.34 122.26 C 130.97 123.07 130.61 123.89 130.25 124.71 C 128.17 124.86 126.09 125.06 124.01 125.25 C 125.19 127.90 126.32 130.55 127.19 133.31 C 123.70 131.98 120.76 130.40 117.77 128.16 C 117.64 125.87 117.48 123.58 117.31 121.29 C 118.92 121.33 120.52 121.38 122.13 121.34 C 121.04 122.25 119.98 123.18 118.91 124.11 C 120.12 125.74 121.33 127.38 122.56 129.01 C 122.95 126.31 123.36 123.63 123.51 120.90 L 124.32 120.68 C 125.26 120.95 126.19 121.28 127.12 121.60 C 128.07 120.50 129.03 119.40 130.00 118.32 Z" fill="#727282" />
<path d="M 163.22 119.35 C 164.51 120.46 165.78 121.59 167.05 122.70 L 166.73 121.09 C 167.30 121.44 167.86 121.79 168.42 122.14 C 168.47 122.76 168.51 123.39 168.56 124.01 C 165.50 124.81 162.67 125.84 159.85 127.24 C 160.85 124.55 161.96 121.93 163.22 119.35 Z" fill="#828491" />
<path d="M 123.51 120.90 C 123.36 123.63 122.95 126.31 122.56 129.01 C 121.33 127.38 120.12 125.74 118.91 124.11 C 119.98 123.18 121.04 122.25 122.13 121.34 L 123.51 120.90 Z" fill="#c2c4c8" />
<path d="M 220.47 122.23 C 219.69 126.03 218.92 128.02 215.63 130.25 C 215.40 128.62 215.10 127.00 214.83 125.38 C 216.93 124.64 218.88 123.86 220.47 122.23 Z" fill="#727182" />
<path d="M 135.96 124.18 C 137.64 124.04 139.33 123.91 141.01 123.71 C 140.30 125.16 139.59 126.60 138.87 128.03 C 137.80 127.69 136.72 127.34 135.66 126.98 C 135.76 126.05 135.86 125.11 135.96 124.18 Z" fill="#b6b6b8" />
<path d="M 197.54 124.32 C 198.94 126.60 198.74 128.96 198.43 131.49 C 197.61 137.45 197.16 143.43 196.16 149.36 C 195.75 146.18 195.55 142.97 195.60 139.77 C 196.03 134.61 196.53 129.40 197.54 124.32 Z" fill="#12152d" />
<path d="M 80.06 127.94 L 79.55 129.49 C 78.55 132.53 78.24 135.60 77.79 138.75 L 78.96 137.34 C 79.96 137.94 80.94 138.57 81.92 139.21 L 82.28 140.43 C 80.74 140.64 79.22 140.95 77.75 141.41 C 76.65 141.79 75.56 142.18 74.48 142.58 C 74.69 140.44 74.98 137.77 74.06 135.77 C 72.74 134.96 71.23 134.38 69.80 133.79 C 72.10 133.75 74.40 133.62 76.69 133.42 C 76.56 132.33 76.43 131.23 76.30 130.13 C 77.57 129.42 78.83 128.70 80.06 127.94 Z" fill="#676877" />
<path d="M 152.11 128.41 C 153.50 128.54 154.88 128.81 156.25 129.04 C 154.42 130.72 152.55 132.34 150.62 133.90 C 151.01 132.09 151.35 130.12 152.11 128.41 Z" fill="#8b8a8d" />
<path d="M 79.55 129.49 C 81.09 130.74 82.60 132.04 84.10 133.33 C 82.19 134.46 80.36 135.58 78.96 137.34 L 77.79 138.75 C 78.24 135.60 78.55 132.53 79.55 129.49 Z" fill="#37394f" />
<path d="M 139.82 131.73 C 141.50 133.10 143.20 134.44 144.90 135.79 C 143.07 137.68 141.44 139.71 139.79 141.75 C 139.35 141.57 138.91 141.39 138.47 141.20 C 138.40 138.49 138.03 136.05 137.13 133.48 C 138.04 132.91 138.93 132.31 139.82 131.73 Z" fill="#595a6b" />
<path d="M 155.64 133.56 C 157.16 134.20 158.66 134.86 160.17 135.51 C 159.45 138.97 157.88 140.78 155.28 143.06 C 154.28 142.54 153.27 142.01 152.27 141.49 C 153.38 138.85 154.36 136.10 155.64 133.56 Z" fill="#565569" />
<path d="M 46.04 136.19 C 47.54 135.12 48.61 137.45 46.82 137.90 C 45.83 137.67 45.57 137.10 46.04 136.19 Z" fill="#696a80" />
<path d="M 144.90 135.79 C 146.54 137.08 148.03 138.53 149.54 139.97 C 148.30 140.98 147.06 142.09 145.68 142.88 C 143.81 143.35 141.54 142.41 139.79 141.75 C 141.44 139.71 143.07 137.68 144.90 135.79 Z" fill="#393b53" />
<path d="M 88.12 136.71 C 89.04 137.73 90.24 138.81 90.72 140.12 C 90.65 141.86 90.20 143.59 90.18 145.34 C 91.00 146.75 92.27 147.94 93.38 149.14 C 94.31 148.18 95.24 147.21 96.17 146.25 C 97.66 147.17 99.16 148.08 100.68 148.95 L 101.56 149.44 C 101.55 150.37 101.53 151.31 101.51 152.25 C 98.50 152.40 95.64 152.26 92.65 151.77 C 91.40 151.41 90.14 151.03 88.89 150.66 C 87.43 149.57 85.93 148.34 84.87 146.85 C 84.42 144.70 84.69 142.32 84.86 140.14 C 84.00 140.24 83.14 140.33 82.28 140.43 L 81.92 139.21 C 83.95 138.28 86.02 137.45 88.12 136.71 Z" fill="#4c4c60" />
<path d="M 214.35 136.60 C 215.03 138.39 215.49 140.28 216.31 142.00 C 217.41 143.03 218.98 143.59 220.29 144.31 C 217.69 144.97 215.11 145.71 212.53 146.43 C 212.80 143.06 213.19 139.81 214.35 136.60 Z" fill="#878790" />
<path d="M 195.60 139.77 C 195.55 142.97 195.75 146.18 196.16 149.36 C 198.11 150.33 200.30 150.77 202.21 151.76 C 203.43 152.95 204.07 154.84 204.87 156.32 C 205.32 153.91 205.78 151.50 206.23 149.09 C 207.56 150.32 208.89 151.54 210.16 152.84 C 210.40 154.79 210.59 156.74 210.81 158.68 C 209.72 158.47 208.62 158.27 207.54 158.01 C 206.01 157.59 204.53 157.13 203.00 156.77 C 202.23 158.39 201.63 160.14 201.02 161.82 C 200.08 161.90 199.14 161.97 198.21 162.11 C 199.30 164.24 200.60 166.27 201.85 168.30 C 201.34 170.05 200.67 171.87 200.51 173.69 C 201.31 174.89 202.57 175.85 203.71 176.71 C 204.35 177.14 205.00 177.55 205.65 177.95 C 205.41 179.73 205.23 181.51 205.07 183.30 C 201.76 184.52 199.58 186.08 197.17 188.65 C 196.91 187.49 196.65 186.34 196.39 185.18 C 193.12 185.38 189.92 185.98 186.73 186.68 L 185.23 186.92 C 184.70 186.34 184.16 185.76 183.62 185.18 L 182.88 184.42 C 178.96 182.89 176.43 178.90 172.36 178.63 C 171.31 179.71 170.29 180.83 169.28 181.95 C 167.21 180.32 166.01 178.62 164.81 176.30 C 162.92 177.91 161.84 179.85 160.93 182.12 C 159.02 182.91 157.14 183.72 155.39 184.82 C 155.22 181.42 153.77 178.62 152.12 175.74 C 151.77 177.25 151.48 178.81 150.98 180.28 C 149.23 180.82 147.29 180.90 145.47 181.07 C 145.05 178.90 144.61 176.79 144.34 174.60 C 144.34 173.61 144.36 172.63 144.39 171.64 C 147.94 170.44 151.37 168.97 154.87 167.64 C 155.38 169.25 155.90 170.86 156.43 172.46 C 157.42 172.03 158.42 171.62 159.42 171.21 C 159.04 169.49 158.68 167.77 158.36 166.04 C 160.19 165.56 161.99 165.07 163.85 164.71 C 167.53 164.35 171.24 164.24 174.93 164.10 C 175.52 168.60 175.51 172.88 175.08 177.39 C 177.43 176.54 179.76 175.65 182.07 174.71 C 182.80 175.26 183.52 175.81 184.24 176.36 C 185.88 173.35 187.71 170.93 190.14 168.51 C 191.55 170.08 192.72 171.80 193.95 173.50 C 195.51 173.22 197.07 172.92 198.63 172.62 C 197.20 170.36 195.55 168.59 195.35 165.78 C 195.13 161.87 195.61 157.93 195.50 154.00 C 195.36 149.25 195.24 144.51 195.60 139.77 Z" fill="#383a52" />
<path d="M 77.75 141.41 C 78.45 143.17 79.22 144.87 79.67 146.72 C 78.11 147.26 76.50 147.61 74.87 147.83 C 74.64 146.77 74.42 145.72 74.19 144.66 C 74.29 143.97 74.38 143.27 74.48 142.58 C 75.56 142.18 76.65 141.79 77.75 141.41 Z" fill="#c2c2c2" />
<path d="M 226.32 142.30 C 227.04 143.42 225.45 146.53 223.98 145.71 C 222.92 144.59 224.93 141.67 226.32 142.30 Z" fill="#6c6b71" />
<path d="M 67.95 145.84 C 69.98 145.32 72.12 145.00 74.19 144.66 C 74.42 145.72 74.64 146.77 74.87 147.83 C 72.06 147.98 69.33 147.62 66.56 147.22 C 67.02 146.75 67.48 146.29 67.95 145.84 Z" fill="#787681" />
<path d="M 129.51 145.34 C 129.51 146.39 129.48 147.44 129.46 148.49 C 131.09 148.99 132.71 149.50 134.34 149.99 C 134.50 152.64 134.60 155.27 134.61 157.92 C 134.09 157.59 133.56 157.27 133.04 156.94 C 130.69 158.81 129.91 160.06 126.68 159.25 C 128.61 156.60 130.90 154.31 133.29 152.07 C 131.31 151.81 129.31 151.54 127.31 151.48 C 125.15 151.56 122.99 151.89 120.87 152.29 C 123.56 149.72 126.38 147.35 129.51 145.34 Z" fill="#6a6c79" />
<path d="M 186.26 145.47 C 187.19 146.63 188.14 147.79 189.08 148.95 C 188.41 149.24 187.74 149.53 187.07 149.82 C 186.31 148.82 185.55 147.82 184.77 146.83 C 183.71 148.51 182.73 150.23 181.74 151.95 L 181.27 151.69 C 179.73 150.96 178.18 150.30 176.61 149.63 C 176.46 151.51 176.30 153.39 176.15 155.27 C 175.28 155.51 174.41 155.74 173.54 155.96 C 175.26 156.60 177.34 157.04 178.80 158.17 C 179.49 159.18 180.02 160.32 180.56 161.40 C 175.36 161.54 170.22 161.47 165.05 162.22 C 164.78 161.68 164.51 161.14 164.24 160.59 C 167.49 160.25 170.03 158.75 172.67 156.94 C 172.65 154.85 172.41 152.38 173.24 150.42 C 177.45 148.43 182.13 147.80 186.26 145.47 Z" fill="#7d7d89" />
<path d="M 116.57 147.50 C 118.39 148.02 118.10 150.77 118.44 152.25 C 116.42 151.41 114.34 150.74 112.26 150.07 C 113.49 149.19 114.86 146.54 116.57 147.50 Z" fill="#444456" />
<path d="M 184.77 146.83 C 185.55 147.82 186.31 148.82 187.07 149.82 C 187.74 149.53 188.41 149.24 189.08 148.95 C 190.02 148.55 190.97 148.17 191.92 147.79 C 192.17 150.20 192.51 152.59 192.83 154.99 C 192.36 153.87 191.88 152.77 191.38 151.67 C 190.89 151.53 190.41 151.41 189.93 151.30 C 189.13 152.66 188.39 154.06 187.64 155.45 C 185.57 154.45 183.68 153.18 181.74 151.95 C 182.73 150.23 183.71 148.51 184.77 146.83 Z" fill="#a9aaac" />
<path d="M 224.11 146.29 C 223.00 152.49 220.03 157.85 219.07 164.03 C 217.94 170.55 216.34 177.37 216.23 183.95 C 216.09 187.13 216.33 190.52 215.71 193.65 C 214.56 194.84 212.28 194.94 210.75 195.45 C 211.24 194.15 211.76 192.86 212.31 191.58 C 211.77 190.78 211.24 189.98 210.72 189.18 C 210.56 190.33 210.39 191.48 210.21 192.63 C 209.61 191.80 209.02 190.98 208.44 190.15 C 209.38 188.61 210.37 187.10 211.26 185.54 C 211.43 185.00 211.59 184.46 211.73 183.91 C 211.86 180.52 210.92 177.66 212.71 174.64 C 216.20 167.98 216.89 160.68 219.71 153.80 C 220.76 150.80 221.36 148.25 224.11 146.29 Z" fill="#1c1e3a" />
<path d="M 81.01 147.79 C 81.85 150.13 82.58 152.49 83.31 154.87 C 81.16 156.44 78.98 157.95 76.79 159.46 C 75.71 158.68 74.62 157.91 73.50 157.17 C 76.07 156.28 78.64 155.60 81.30 155.08 C 80.32 153.66 79.34 152.23 78.36 150.81 C 79.23 149.79 80.11 148.78 81.01 147.79 Z" fill="#cbcecd" />
<path d="M 84.62 150.22 C 86.05 150.32 87.47 150.46 88.89 150.66 C 90.14 151.03 91.40 151.41 92.65 151.77 C 91.98 152.43 91.32 153.10 90.66 153.77 C 92.30 155.28 93.94 156.80 95.58 158.32 C 95.13 159.94 94.69 161.57 94.25 163.20 C 92.17 161.82 90.10 160.42 88.02 159.03 C 86.46 159.97 84.88 160.91 83.30 161.83 C 83.88 158.92 84.78 156.10 85.47 153.22 C 85.21 152.22 84.90 151.22 84.62 150.22 Z" fill="#c4c4c5" />
<path d="M 101.56 149.44 C 104.15 150.25 106.77 150.89 109.30 151.89 C 109.33 152.89 109.38 153.89 109.43 154.90 C 110.56 155.36 111.69 155.83 112.82 156.31 C 113.05 157.95 113.22 159.67 113.73 161.24 C 114.76 162.85 117.32 163.53 118.95 164.36 C 118.56 165.44 118.19 166.56 117.67 167.58 C 116.38 168.49 114.84 169.08 113.42 169.74 C 114.11 170.55 114.81 171.36 115.50 172.17 C 116.78 172.06 118.07 171.96 119.35 171.85 C 123.00 174.31 124.47 174.65 128.88 174.02 C 131.05 175.25 133.17 176.57 135.33 177.81 C 136.73 178.55 138.16 179.19 139.61 179.82 C 138.00 183.01 137.66 184.51 138.44 188.06 C 134.18 187.29 131.32 189.21 127.87 191.31 C 127.45 189.95 127.02 188.59 126.59 187.22 C 124.23 186.95 121.83 186.64 119.46 186.55 C 117.98 188.19 116.60 189.96 115.23 191.70 C 113.90 191.31 112.57 190.93 111.25 190.54 C 111.18 191.29 111.12 192.05 111.05 192.80 C 108.24 189.99 105.59 187.04 103.00 184.02 C 104.12 183.85 105.24 183.67 106.37 183.49 C 105.94 182.02 105.53 180.55 105.11 179.08 C 104.13 179.93 103.14 180.79 102.16 181.64 C 101.14 180.07 100.13 178.47 99.04 176.94 C 99.64 177.43 100.25 177.92 100.86 178.40 C 102.04 177.48 103.22 176.56 104.39 175.64 C 102.15 174.17 99.87 172.81 97.51 171.52 C 98.25 170.93 98.99 170.34 99.74 169.77 L 100.57 169.66 L 101.79 169.52 C 103.01 170.01 104.21 170.54 105.41 171.06 C 105.70 167.89 105.42 166.92 103.30 164.52 C 102.83 162.59 102.56 160.14 101.32 158.54 C 99.82 157.26 97.83 156.46 96.08 155.57 C 97.88 154.73 99.73 153.89 101.48 152.93 L 101.51 152.25 C 101.53 151.31 101.55 150.37 101.56 149.44 Z" fill="#30324b" />
<path d="M 176.61 149.63 C 178.18 150.30 179.73 150.96 181.27 151.69 C 179.79 153.43 178.44 154.69 176.15 155.27 C 176.30 153.39 176.46 151.51 176.61 149.63 Z" fill="#bbbcc0" />
<path d="M 78.36 150.81 C 79.34 152.23 80.32 153.66 81.30 155.08 C 78.64 155.60 76.07 156.28 73.50 157.17 C 71.84 156.32 70.13 155.60 68.39 154.95 C 66.81 154.24 65.26 153.52 63.78 152.64 C 68.92 153.03 73.63 153.28 78.36 150.81 Z" fill="#f7f6ef" />
<path d="M 127.31 151.48 C 127.40 153.75 126.52 155.54 125.51 157.50 C 123.63 156.06 121.76 154.58 119.83 153.19 L 120.87 152.29 C 122.99 151.89 125.15 151.56 127.31 151.48 Z" fill="#807e8c" />
<path d="M 189.93 151.30 C 190.41 151.41 190.89 151.53 191.38 151.67 C 191.88 152.77 192.36 153.87 192.83 154.99 C 191.80 155.47 190.77 155.96 189.75 156.44 L 188.33 155.78 L 187.64 155.45 C 188.39 154.06 189.13 152.66 189.93 151.30 Z" fill="#7e7e88" />
<path d="M 92.65 151.77 C 95.64 152.26 98.50 152.40 101.51 152.25 L 101.48 152.93 C 99.73 153.89 97.88 154.73 96.08 155.57 C 97.83 156.46 99.82 157.26 101.32 158.54 C 102.56 160.14 102.83 162.59 103.30 164.52 C 102.84 166.19 102.36 167.88 101.79 169.52 L 100.57 169.66 C 100.61 168.29 100.64 166.92 100.66 165.55 C 99.50 166.95 98.43 168.40 97.41 169.90 C 96.63 169.94 95.85 169.97 95.08 170.01 C 95.71 168.66 96.34 167.31 96.97 165.96 C 94.82 165.38 92.77 164.58 90.71 163.72 C 88.96 164.43 87.25 165.40 85.60 166.32 C 82.65 164.05 79.74 161.73 76.79 159.46 C 78.98 157.95 81.16 156.44 83.31 154.87 C 84.03 154.33 84.75 153.78 85.47 153.22 C 84.78 156.10 83.88 158.92 83.30 161.83 C 84.88 160.91 86.46 159.97 88.02 159.03 C 90.10 160.42 92.17 161.82 94.25 163.20 C 94.69 161.57 95.13 159.94 95.58 158.32 C 93.94 156.80 92.30 155.28 90.66 153.77 C 91.32 153.10 91.98 152.43 92.65 151.77 Z" fill="#8a8b94" />
<path d="M 109.30 151.89 C 111.93 152.92 114.49 154.15 117.05 155.35 C 116.60 156.28 116.17 157.22 115.74 158.15 C 117.31 159.43 119.50 160.75 120.22 162.71 C 121.37 165.43 122.13 168.16 123.83 170.63 C 125.23 170.52 126.63 170.36 128.03 170.25 C 128.29 171.51 128.58 172.77 128.88 174.02 C 124.47 174.65 123.00 174.31 119.35 171.85 C 118.07 171.96 116.78 172.06 115.50 172.17 C 114.81 171.36 114.11 170.55 113.42 169.74 C 114.84 169.08 116.38 168.49 117.67 167.58 C 118.19 166.56 118.56 165.44 118.95 164.36 C 117.32 163.53 114.76 162.85 113.73 161.24 C 113.22 159.67 113.05 157.95 112.82 156.31 C 111.69 155.83 110.56 155.36 109.43 154.90 C 109.38 153.89 109.33 152.89 109.30 151.89 Z" fill="#5b5d6e" />
<path d="M 48.96 153.41 C 51.81 154.11 53.57 154.32 56.43 153.58 C 57.64 155.40 58.87 157.20 60.11 158.99 C 58.32 159.79 56.55 160.62 54.79 161.48 C 53.34 158.38 51.15 155.98 48.96 153.41 Z" fill="#f2f5f1" />
<path d="M 57.97 153.34 C 59.39 154.86 60.70 156.50 62.04 158.10 C 61.40 158.40 60.76 158.69 60.11 158.99 C 58.87 157.20 57.64 155.40 56.43 153.58 L 57.97 153.34 Z" fill="#a6a7b2" />
<path d="M 68.39 154.95 C 70.13 155.60 71.84 156.32 73.50 157.17 C 74.62 157.91 75.71 158.68 76.79 159.46 C 79.74 161.73 82.65 164.05 85.60 166.32 C 89.86 170.16 94.61 173.32 99.04 176.94 C 100.13 178.47 101.14 180.07 102.16 181.64 C 103.14 180.79 104.13 179.93 105.11 179.08 C 105.53 180.55 105.94 182.02 106.37 183.49 C 105.24 183.67 104.12 183.85 103.00 184.02 C 105.59 187.04 108.24 189.99 111.05 192.80 C 112.28 194.03 113.52 195.26 114.76 196.47 C 118.58 195.22 120.56 194.84 124.28 196.71 C 125.83 199.92 128.16 202.25 130.37 205.00 C 130.67 204.78 130.97 204.57 131.27 204.35 C 134.34 202.18 136.93 199.84 140.52 198.52 C 144.94 196.87 149.69 196.01 154.32 195.13 C 160.47 194.05 165.87 195.36 171.99 195.28 C 175.22 195.35 178.47 195.24 181.69 195.45 C 191.79 196.98 200.92 200.68 210.61 203.49 C 212.89 204.44 215.30 202.23 217.34 201.32 C 218.36 204.90 219.83 208.43 220.51 212.10 C 220.99 213.84 219.17 214.72 217.97 215.55 C 216.47 215.38 215.04 214.96 213.61 214.49 C 209.06 212.58 204.58 210.58 199.87 209.08 C 195.62 207.81 192.30 205.11 187.95 204.23 C 182.74 203.10 177.33 201.51 172.03 201.26 C 165.78 200.83 159.13 199.41 152.87 199.65 C 145.65 200.94 139.13 200.97 133.01 205.55 C 132.26 206.08 131.51 206.63 130.78 207.19 C 129.68 208.03 128.62 208.92 127.54 209.80 C 128.34 212.27 129.14 214.74 129.96 217.21 C 129.04 218.33 128.14 219.46 127.22 220.59 C 123.23 219.27 119.62 217.49 116.02 215.33 C 120.84 218.67 125.60 222.60 130.97 224.98 C 142.37 229.25 153.89 228.27 165.45 225.28 C 170.50 224.17 175.51 223.11 180.42 221.48 C 177.78 223.46 175.29 225.70 172.52 227.48 C 165.16 231.15 157.26 233.56 149.04 234.17 C 140.78 234.59 132.94 234.50 125.41 230.68 C 120.93 228.27 116.19 225.90 112.55 222.42 C 107.70 217.98 102.80 213.28 99.05 207.85 C 94.44 212.48 89.84 216.32 86.95 222.27 C 88.90 223.46 90.94 224.45 93.02 225.38 C 92.74 226.67 92.46 227.96 92.18 229.25 C 89.26 229.50 85.76 230.63 83.12 228.97 C 81.20 227.93 80.18 225.93 79.82 223.85 C 80.41 221.07 80.80 218.16 81.71 215.46 C 83.85 211.74 87.59 208.65 90.83 205.86 C 87.33 204.29 83.68 203.20 79.97 202.21 C 76.96 206.63 74.18 210.76 69.48 213.55 C 67.57 214.85 65.65 215.45 63.33 215.09 C 61.27 212.17 60.23 208.83 59.56 205.37 C 60.45 205.91 61.33 206.44 62.22 206.98 C 62.52 205.89 62.82 204.80 63.12 203.71 C 62.23 203.54 61.35 203.36 60.46 203.19 C 63.07 200.33 65.79 196.78 69.58 195.53 C 72.06 194.54 74.57 194.62 77.07 193.93 C 79.57 191.11 79.54 188.02 80.77 184.66 C 77.98 182.25 75.58 179.49 73.01 176.87 C 76.38 174.98 79.68 173.72 83.65 174.47 C 87.49 175.01 89.46 178.00 91.21 181.13 C 92.34 184.15 91.46 186.48 90.13 189.22 C 91.87 190.22 93.68 191.20 95.34 192.32 C 101.19 198.88 106.24 205.99 112.75 211.98 C 108.37 206.43 106.15 199.75 101.55 194.40 C 99.84 192.32 99.45 189.92 98.28 187.59 C 97.40 186.12 95.94 184.96 94.75 183.75 C 92.62 181.26 91.27 178.43 88.84 176.20 C 84.71 172.30 80.76 168.25 76.87 164.10 C 73.84 160.59 69.36 159.29 66.44 155.56 L 68.39 154.95 Z" fill="#212440" />
<path d="M 117.05 155.35 C 119.47 156.53 122.10 158.01 123.83 160.11 C 123.41 161.82 122.70 163.49 122.07 165.13 C 122.66 166.96 123.27 168.79 123.83 170.63 C 122.13 168.16 121.37 165.43 120.22 162.71 C 119.50 160.75 117.31 159.43 115.74 158.15 C 116.17 157.22 116.60 156.28 117.05 155.35 Z" fill="#acaeb2" />
<path d="M 138.11 155.85 C 142.84 158.29 147.66 160.31 151.89 163.62 C 153.40 162.52 154.91 161.41 156.42 160.30 C 157.04 161.42 157.66 162.53 158.28 163.64 C 159.18 163.46 160.07 163.27 160.97 163.08 C 157.63 164.00 154.38 165.19 151.23 166.63 C 148.51 166.69 145.81 166.89 143.10 167.11 C 142.14 165.76 141.15 164.43 140.15 163.11 C 138.69 163.98 137.22 164.85 135.76 165.71 C 134.99 163.41 134.54 161.26 134.62 158.82 C 135.99 159.49 137.35 160.16 138.72 160.84 C 138.50 159.17 138.28 157.52 138.11 155.85 Z" fill="#888993" />
<path d="M 188.33 155.78 L 189.75 156.44 C 192.57 158.38 191.37 161.16 191.88 164.19 C 191.63 162.62 191.35 161.05 191.04 159.49 C 189.26 160.63 187.52 161.83 185.76 163.01 L 185.11 162.63 C 185.92 160.23 186.96 157.92 188.33 155.78 Z" fill="#abacae" />
<path d="M 203.00 156.77 C 204.53 157.13 206.01 157.59 207.54 158.01 C 206.63 158.83 205.71 159.65 204.80 160.46 C 206.21 164.82 204.62 169.31 207.09 173.00 C 205.93 174.21 204.82 175.46 203.71 176.71 C 202.57 175.85 201.31 174.89 200.51 173.69 C 200.67 171.87 201.34 170.05 201.85 168.30 C 200.60 166.27 199.30 164.24 198.21 162.11 C 199.14 161.97 200.08 161.90 201.02 161.82 C 201.63 160.14 202.23 158.39 203.00 156.77 Z" fill="#535568" />
<path d="M 191.04 159.49 C 191.35 161.05 191.63 162.62 191.88 164.19 L 192.09 166.24 C 189.97 165.17 187.85 164.12 185.76 163.01 C 187.52 161.83 189.26 160.63 191.04 159.49 Z" fill="#555763" />
<path d="M 90.71 163.72 C 92.77 164.58 94.82 165.38 96.97 165.96 C 96.34 167.31 95.71 168.66 95.08 170.01 C 95.85 169.97 96.63 169.94 97.41 169.90 L 99.74 169.77 C 98.99 170.34 98.25 170.93 97.51 171.52 C 99.87 172.81 102.15 174.17 104.39 175.64 C 103.22 176.56 102.04 177.48 100.86 178.40 C 100.25 177.92 99.64 177.43 99.04 176.94 C 94.61 173.32 89.86 170.16 85.60 166.32 C 87.25 165.40 88.96 164.43 90.71 163.72 Z" fill="#525367" />
<path d="M 176.76 163.19 C 176.51 165.77 176.67 168.33 176.79 170.91 C 178.02 170.70 179.24 170.50 180.46 170.29 C 180.11 171.51 179.74 172.73 179.38 173.95 C 180.60 172.72 181.82 171.49 183.06 170.28 C 184.34 169.05 185.63 167.84 186.94 166.64 C 188.03 167.23 189.10 167.85 190.14 168.51 C 187.71 170.93 185.88 173.35 184.24 176.36 C 183.52 175.81 182.80 175.26 182.07 174.71 C 179.76 175.65 177.43 176.54 175.08 177.39 C 175.51 172.88 175.52 168.60 174.93 164.10 C 171.24 164.24 167.53 164.35 163.85 164.71 C 168.12 163.84 172.43 163.57 176.76 163.19 Z" fill="#6a6a79" />
<path d="M 103.30 164.52 C 105.42 166.92 105.70 167.89 105.41 171.06 C 104.21 170.54 103.01 170.01 101.79 169.52 C 102.36 167.88 102.84 166.19 103.30 164.52 Z" fill="#56586c" />
<path d="M 100.66 165.55 C 100.64 166.92 100.61 168.29 100.57 169.66 L 99.74 169.77 L 97.41 169.90 C 98.43 168.40 99.50 166.95 100.66 165.55 Z" fill="#eaebed" />
<path d="M 151.23 166.63 C 147.86 168.25 144.38 169.62 140.99 171.19 C 140.33 169.93 139.67 168.68 139.01 167.42 C 140.37 167.32 141.74 167.22 143.10 167.11 C 145.81 166.89 148.51 166.69 151.23 166.63 Z" fill="#6d6c77" />
<path d="M 184.29 165.99 C 185.18 166.18 186.06 166.40 186.94 166.64 C 185.63 167.84 184.34 169.05 183.06 170.28 C 183.45 168.84 183.85 167.41 184.29 165.99 Z" fill="#afafb2" />
<path d="M 57.08 168.94 C 55.10 170.84 53.25 172.04 50.70 173.09 C 52.68 170.89 54.29 169.88 57.08 168.94 Z" fill="#77778e" />
<path d="M 128.03 170.25 C 128.83 170.19 129.64 170.15 130.44 170.14 C 131.16 171.82 131.80 173.53 132.44 175.24 C 135.24 174.14 136.80 173.04 138.75 170.71 C 139.61 172.19 140.45 173.69 141.26 175.20 C 139.22 175.96 137.31 176.89 135.33 177.81 C 133.17 176.57 131.05 175.25 128.88 174.02 C 128.58 172.77 128.29 171.51 128.03 170.25 Z" fill="#8d8e95" />
<path d="M 207.09 173.00 C 208.47 175.14 208.63 177.32 208.64 179.79 C 207.65 179.16 206.66 178.55 205.65 177.95 C 205.00 177.55 204.35 177.14 203.71 176.71 C 204.82 175.46 205.93 174.21 207.09 173.00 Z" fill="#7b7c8a" />
<path d="M 115.80 174.61 C 117.39 176.53 119.23 178.60 120.16 180.92 C 118.25 183.77 115.24 186.54 111.85 187.40 C 109.97 187.90 108.35 185.22 107.13 184.13 C 109.88 184.04 112.62 183.94 115.36 183.80 C 113.71 183.21 112.06 182.64 110.39 182.12 C 112.72 179.94 114.32 177.41 115.80 174.61 Z" fill="#7c7f8c" />
<path d="M 198.85 173.32 C 196.89 176.66 196.00 176.08 192.67 175.16 C 194.74 173.87 196.45 173.49 198.85 173.32 Z" fill="#dadadf" />
<path d="M 141.26 175.20 C 142.28 174.97 143.31 174.79 144.34 174.60 C 144.61 176.79 145.05 178.90 145.47 181.07 C 147.29 180.90 149.23 180.82 150.98 180.28 C 151.48 178.81 151.77 177.25 152.12 175.74 C 153.77 178.62 155.22 181.42 155.39 184.82 L 155.28 185.68 C 154.09 185.67 153.00 185.56 151.93 186.19 C 148.75 187.85 145.80 189.56 142.18 190.09 C 142.35 191.03 142.52 191.96 142.69 192.89 C 141.53 192.31 140.37 191.71 139.19 191.16 C 139.98 190.30 140.76 189.43 141.54 188.56 C 140.51 188.38 139.47 188.21 138.44 188.06 C 137.66 184.51 138.00 183.01 139.61 179.82 C 138.16 179.19 136.73 178.55 135.33 177.81 C 137.31 176.89 139.22 175.96 141.26 175.20 Z" fill="#545569" />
<path d="M 164.81 176.30 C 166.01 178.62 167.21 180.32 169.28 181.95 C 170.29 180.83 171.31 179.71 172.36 178.63 C 174.29 181.43 175.46 183.93 176.16 187.29 C 175.04 187.22 173.93 187.15 172.81 187.07 C 171.30 184.54 168.46 183.20 166.08 181.41 C 164.35 182.88 162.56 184.50 160.53 185.55 C 158.84 185.89 157.00 185.73 155.28 185.68 L 155.39 184.82 C 157.14 183.72 159.02 182.91 160.93 182.12 C 161.84 179.85 162.92 177.91 164.81 176.30 Z" fill="#7b7b88" />
<path d="M 182.88 184.42 L 183.62 185.18 C 183.26 184.92 182.90 184.65 182.53 184.40 C 182.50 185.40 182.49 186.39 182.50 187.39 C 180.39 187.42 178.27 187.42 176.16 187.29 C 175.46 183.93 174.29 181.43 172.36 178.63 C 176.43 178.90 178.96 182.89 182.88 184.42 Z" fill="#646673" />
<path d="M 205.65 177.95 C 206.66 178.55 207.65 179.16 208.64 179.79 C 209.76 181.10 210.74 182.50 211.73 183.91 C 211.59 184.46 211.43 185.00 211.26 185.54 C 209.68 185.87 207.84 186.06 206.43 186.87 C 205.40 187.87 204.61 189.14 203.75 190.28 C 202.48 189.47 201.21 188.66 199.94 187.84 C 199.55 188.94 199.15 190.04 198.73 191.13 C 197.43 190.25 196.11 189.27 194.68 188.63 C 193.06 188.63 191.39 189.31 189.85 189.76 C 188.81 188.73 187.79 187.69 186.73 186.68 C 189.92 185.98 193.12 185.38 196.39 185.18 C 196.65 186.34 196.91 187.49 197.17 188.65 C 199.58 186.08 201.76 184.52 205.07 183.30 C 205.23 181.51 205.41 179.73 205.65 177.95 Z" fill="#5d5c6f" />
<path d="M 94.75 183.75 C 95.94 184.96 97.40 186.12 98.28 187.59 C 99.45 189.92 99.84 192.32 101.55 194.40 C 106.15 199.75 108.37 206.43 112.75 211.98 C 106.24 205.99 101.19 198.88 95.34 192.32 C 96.30 190.79 97.28 189.26 98.26 187.74 C 97.09 187.08 95.92 186.44 94.75 185.79 C 94.75 185.11 94.75 184.43 94.75 183.75 Z" fill="#868996" />
<path d="M 182.53 184.40 C 182.90 184.65 183.26 184.92 183.62 185.18 C 184.16 185.76 184.70 186.34 185.23 186.92 L 186.73 186.68 C 187.79 187.69 188.81 188.73 189.85 189.76 C 190.94 190.79 192.08 191.92 193.37 192.69 C 195.11 193.12 197.22 191.91 198.73 191.13 C 199.15 190.04 199.55 188.94 199.94 187.84 C 201.21 188.66 202.48 189.47 203.75 190.28 C 204.61 189.14 205.40 187.87 206.43 186.87 C 207.84 186.06 209.68 185.87 211.26 185.54 C 210.37 187.10 209.38 188.61 208.44 190.15 C 207.85 189.31 207.26 188.47 206.66 187.63 C 206.61 188.67 206.55 189.70 206.50 190.74 C 205.25 190.91 204.00 191.08 202.75 191.26 C 198.54 195.30 193.84 194.82 188.46 194.89 C 188.11 192.47 187.75 190.04 187.38 187.61 C 183.22 188.53 180.09 190.90 176.79 193.45 C 175.30 191.42 174.03 189.28 172.81 187.07 C 173.93 187.15 175.04 187.22 176.16 187.29 C 178.27 187.42 180.39 187.42 182.50 187.39 C 182.49 186.39 182.50 185.40 182.53 184.40 Z" fill="#b9b8ba" />
<path d="M 51.10 185.10 C 52.90 185.46 51.92 187.87 50.38 186.83 C 49.89 185.95 50.13 185.37 51.10 185.10 Z" fill="#6c6e85" />
<path d="M 119.46 186.55 C 121.83 186.64 124.23 186.95 126.59 187.22 C 127.02 188.59 127.45 189.95 127.87 191.31 C 131.32 189.21 134.18 187.29 138.44 188.06 C 139.47 188.21 140.51 188.38 141.54 188.56 C 140.76 189.43 139.98 190.30 139.19 191.16 C 135.17 189.87 131.38 189.99 129.84 194.56 C 129.22 195.96 128.61 197.37 127.99 198.78 C 126.05 195.77 124.50 192.82 123.90 189.26 C 122.77 189.72 121.65 190.19 120.52 190.65 C 121.91 192.58 123.18 194.58 124.28 196.71 C 120.56 194.84 118.58 195.22 114.76 196.47 C 113.52 195.26 112.28 194.03 111.05 192.80 C 111.12 192.05 111.18 191.29 111.25 190.54 C 112.57 190.93 113.90 191.31 115.23 191.70 C 116.60 189.96 117.98 188.19 119.46 186.55 Z" fill="#656777" />
<path d="M 194.68 188.63 C 196.11 189.27 197.43 190.25 198.73 191.13 C 197.22 191.91 195.11 193.12 193.37 192.69 C 192.08 191.92 190.94 190.79 189.85 189.76 C 191.39 189.31 193.06 188.63 194.68 188.63 Z" fill="#868991" />
<path d="M 123.90 189.26 C 124.50 192.82 126.05 195.77 127.99 198.78 C 128.61 197.37 129.22 195.96 129.84 194.56 C 130.45 195.15 131.06 195.74 131.66 196.33 C 130.87 199.09 130.41 201.54 131.27 204.35 C 130.97 204.57 130.67 204.78 130.37 205.00 C 128.16 202.25 125.83 199.92 124.28 196.71 C 123.18 194.58 121.91 192.58 120.52 190.65 C 121.65 190.19 122.77 189.72 123.90 189.26 Z" fill="#b4b7bf" />
<path d="M 89.20 190.05 C 89.71 192.54 90.69 194.71 91.85 196.95 C 89.51 196.25 87.17 195.50 84.84 194.75 C 86.29 193.18 87.73 191.60 89.20 190.05 Z" fill="#c6c7d2" />
<path d="M 206.26 192.19 C 208.04 191.00 209.16 193.83 207.07 194.22 C 205.95 193.88 205.68 193.21 206.26 192.19 Z" fill="#babab9" />
<path d="M 152.87 199.65 C 159.13 199.41 165.78 200.83 172.03 201.26 C 177.33 201.51 182.74 203.10 187.95 204.23 C 192.30 205.11 195.62 207.81 199.87 209.08 C 204.58 210.58 209.06 212.58 213.61 214.49 C 213.69 216.04 213.77 217.59 213.85 219.14 C 212.14 219.26 210.33 219.55 208.62 219.33 C 207.50 218.48 206.60 217.28 205.67 216.23 L 206.85 214.98 C 203.25 213.38 199.60 211.95 195.77 211.01 C 198.66 213.04 201.83 214.50 205.04 215.94 C 205.16 217.05 205.27 218.15 205.39 219.26 C 196.33 217.96 185.65 214.91 176.74 217.49 C 171.68 218.50 168.77 222.75 163.89 224.61 L 165.45 225.28 C 153.89 228.27 142.37 229.25 130.97 224.98 C 125.60 222.60 120.84 218.67 116.02 215.33 C 119.62 217.49 123.23 219.27 127.22 220.59 C 129.71 220.48 131.93 219.76 134.32 219.09 C 133.99 217.21 133.65 215.33 133.34 213.45 C 133.69 210.76 133.67 208.20 133.01 205.55 C 139.13 200.97 145.65 200.94 152.87 199.65 Z" fill="#f3f2f1" />
<path d="M 133.01 205.55 C 133.67 208.20 133.69 210.76 133.34 213.45 L 132.68 214.15 C 132.00 211.84 131.40 209.51 130.78 207.19 C 131.51 206.63 132.26 206.08 133.01 205.55 Z" fill="#7c7b88" />
<path d="M 183.92 205.87 C 186.86 206.44 188.92 207.40 191.31 209.17 C 188.49 208.58 186.15 207.73 183.92 205.87 Z" fill="#c9c8c9" />
<path d="M 130.78 207.19 C 131.40 209.51 132.00 211.84 132.68 214.15 C 131.75 215.14 130.84 216.16 129.96 217.21 C 129.14 214.74 128.34 212.27 127.54 209.80 C 128.62 208.92 129.68 208.03 130.78 207.19 Z" fill="#393a4d" />
<path d="M 97.65 211.03 C 100.54 212.87 102.53 215.11 104.30 218.03 C 101.46 216.14 99.28 214.06 97.65 211.03 Z" fill="#c4c4c5" />
<path d="M 195.77 211.01 C 199.60 211.95 203.25 213.38 206.85 214.98 L 205.67 216.23 L 205.04 215.94 C 201.83 214.50 198.66 213.04 195.77 211.01 Z" fill="#c7c8c8" />
<path d="M 132.68 214.15 L 133.34 213.45 C 133.65 215.33 133.99 217.21 134.32 219.09 C 131.93 219.76 129.71 220.48 127.22 220.59 C 128.14 219.46 129.04 218.33 129.96 217.21 C 130.84 216.16 131.75 215.14 132.68 214.15 Z" fill="#a5a3ac" />
</svg>