<?xml version="1.0" encoding="UTF-8" standalone="no"?>
<!DOCTYPE svg PUBLIC "-//W3C//DTD SVG 1.1//EN" "http://www.w3.org/Graphics/SVG/1.1/DTD/svg11.dtd">
<svg xmlns="http://www.w3.org/2000/svg" version="1.1" viewBox="0 0 256 256" width="256.0pt" height="256.0pt">
<path d="M 0.00 0.00 L 256.00 0.00 L 256.00 256.00 L 0.00 256.00 L 0.00 0.00 Z" fill="#fffffe" />
<path d="M 74.49 29.48 C 79.67 33.61 80.94 40.44 82.27 46.54 C 83.25 50.58 84.24 55.81 88.22 58.00 C 94.63 56.80 100.60 51.52 105.90 47.90 C 111.40 43.85 117.50 43.21 123.94 40.80 C 128.37 39.17 132.96 38.36 137.57 37.45 C 143.07 36.37 147.92 33.67 153.35 32.49 C 159.11 31.28 165.04 31.33 170.61 33.38 C 178.02 35.86 185.44 41.91 193.18 42.67 C 200.10 43.06 206.56 38.27 213.59 37.12 C 214.42 38.37 215.25 39.61 216.09 40.85 C 214.59 44.89 211.70 47.99 208.59 50.87 C 205.29 53.89 201.74 56.46 197.89 58.72 C 196.19 56.92 194.58 55.05 193.30 52.92 C 193.04 51.84 192.77 50.76 192.49 49.68 C 189.35 53.37 186.65 57.40 183.57 61.14 C 183.21 58.11 182.81 55.08 182.32 52.07 C 180.35 54.19 178.64 56.50 177.02 58.89 C 176.24 58.48 175.47 58.06 174.70 57.64 C 173.75 59.25 172.80 60.85 171.92 62.50 C 171.50 61.86 171.08 61.23 170.66 60.59 C 172.24 57.81 174.20 54.72 174.81 51.56 C 175.37 48.35 175.08 44.90 174.97 41.66 C 171.82 43.04 168.91 44.65 166.55 47.22 C 165.11 43.88 164.90 41.07 165.22 37.48 C 164.70 37.46 164.18 37.45 163.66 37.44 C 156.57 38.64 152.42 43.21 146.26 46.02 C 144.22 46.69 142.21 47.41 140.26 48.29 C 138.08 48.79 135.76 49.35 133.52 49.27 C 131.87 49.00 130.28 47.98 128.76 47.31 C 128.24 47.52 127.74 47.74 127.23 47.97 C 125.33 48.91 123.52 50.04 121.63 51.00 C 119.30 51.98 116.90 52.80 114.44 53.36 L 113.25 52.24 C 111.10 54.20 109.35 56.41 107.48 58.62 C 103.61 60.33 100.26 62.85 97.13 65.68 C 93.59 68.99 91.53 73.66 88.41 77.40 C 89.23 78.33 90.04 79.26 90.84 80.20 L 91.36 80.85 C 90.58 81.24 89.79 81.62 89.01 82.01 C 87.75 81.49 86.46 80.88 85.13 80.57 C 81.58 81.80 79.47 84.54 77.64 87.66 C 72.75 96.05 68.12 104.71 66.54 114.41 C 65.09 124.44 62.90 134.18 62.94 144.38 C 65.90 141.36 68.68 138.28 70.33 134.33 C 72.94 128.24 75.11 121.92 77.99 115.96 C 80.40 111.05 84.15 107.70 87.06 103.08 C 89.62 99.01 90.93 94.73 93.14 90.35 C 95.59 88.39 98.11 86.47 100.70 84.69 C 102.79 83.52 105.06 82.63 107.27 81.72 C 107.06 82.53 106.85 83.34 106.64 84.15 C 108.56 83.19 110.49 82.24 112.38 81.21 C 109.52 85.26 106.71 89.31 104.42 93.72 C 102.71 97.20 99.52 99.07 97.35 102.38 C 92.71 109.32 90.14 117.58 85.59 124.60 C 82.78 128.61 78.76 131.82 75.51 135.50 C 70.07 141.63 63.78 147.27 56.87 151.69 C 55.62 150.51 54.37 149.33 53.05 148.23 C 56.16 140.14 57.16 131.11 58.76 122.63 C 58.96 121.78 59.17 120.93 59.38 120.08 C 61.32 114.29 61.82 108.35 62.71 102.35 C 63.81 96.36 64.99 90.38 66.02 84.38 C 66.61 80.46 67.22 76.80 68.95 73.18 C 69.76 71.48 70.65 69.81 71.45 68.10 C 73.31 62.86 71.36 58.23 72.15 53.01 C 72.83 46.63 72.72 39.91 71.15 33.67 C 70.72 31.87 69.70 30.46 68.55 29.06 C 70.52 28.89 72.82 28.03 74.49 29.48 Z" fill="#f4f3f1" />
<path d="M 65.31 28.66 C 64.98 31.26 64.78 33.79 65.30 36.37 C 64.19 43.51 62.39 50.43 60.24 57.32 C 59.38 59.99 57.84 62.17 56.76 64.75 C 54.04 70.90 52.87 77.16 50.42 83.46 C 47.90 89.93 45.20 96.31 43.04 102.92 C 41.27 108.67 36.61 112.38 35.33 118.46 C 33.73 125.25 32.04 133.68 34.60 140.37 C 36.16 145.84 40.02 150.71 42.87 155.71 C 44.04 157.75 44.99 159.87 45.95 162.00 C 44.58 163.39 43.46 165.05 42.23 166.60 C 37.24 167.23 32.99 169.85 29.51 173.37 C 26.35 179.30 26.86 187.09 28.43 193.41 C 29.33 198.00 32.90 200.69 35.66 204.33 C 38.72 208.55 42.98 211.51 45.94 215.83 C 43.40 217.42 39.37 219.71 39.00 222.99 C 39.51 224.58 40.35 226.10 41.09 227.59 C 43.15 226.57 45.17 225.48 47.23 224.45 C 49.75 223.38 52.39 222.46 55.06 221.89 C 58.30 221.32 61.90 222.98 65.04 222.09 C 66.33 220.57 66.98 218.39 67.79 216.57 C 69.42 216.43 71.11 216.13 72.75 216.26 C 83.48 218.04 93.82 222.90 104.64 223.92 C 102.99 221.60 100.72 220.41 98.29 219.08 C 99.76 219.06 101.23 219.05 102.70 219.16 C 106.37 220.11 109.98 220.77 113.33 222.66 C 117.80 224.72 121.52 228.46 126.29 229.13 L 127.77 229.40 C 131.21 229.83 136.42 230.84 139.20 228.21 C 144.18 223.74 149.19 219.31 153.92 214.57 C 155.35 216.68 156.78 218.80 158.20 220.92 C 163.88 218.22 168.71 214.96 173.06 210.39 C 172.08 209.34 171.10 208.29 170.12 207.25 C 177.34 209.43 183.82 206.10 190.65 203.94 C 192.09 204.14 193.53 204.31 194.99 204.34 C 201.82 200.59 207.62 194.77 213.20 189.39 C 214.82 187.52 216.23 185.51 217.49 183.38 C 214.97 184.32 212.87 185.49 210.74 187.12 C 210.17 187.55 209.61 187.98 209.05 188.42 C 207.83 189.37 206.69 190.42 205.71 191.61 C 205.37 192.01 205.03 192.41 204.68 192.81 C 203.81 193.41 202.93 194.00 202.05 194.60 C 201.83 193.37 200.45 191.38 201.49 190.31 C 203.96 187.21 208.71 185.32 210.54 181.76 C 212.19 178.52 213.11 174.85 214.19 171.39 C 214.72 171.78 215.26 172.18 215.80 172.58 C 216.47 175.97 217.20 178.98 219.80 181.44 C 221.20 178.52 221.91 175.26 223.46 172.43 C 225.36 169.87 227.94 167.78 230.15 165.47 C 226.80 166.36 223.72 166.86 220.30 165.89 L 218.82 165.59 C 222.03 161.43 225.36 157.20 228.26 152.83 C 225.52 154.49 223.58 156.86 221.35 159.09 C 219.30 160.70 216.28 161.21 213.85 161.99 C 217.77 158.18 221.87 155.11 225.10 150.56 C 220.82 153.71 216.11 155.84 211.63 158.63 C 209.97 159.66 208.17 159.93 206.29 160.29 C 207.60 156.36 208.66 152.52 211.04 149.06 C 215.46 142.78 217.78 134.49 216.35 126.87 C 215.62 121.94 217.55 118.00 214.62 113.62 C 214.58 121.04 214.26 128.27 211.85 135.36 C 211.50 134.18 211.17 132.99 210.86 131.80 C 211.63 127.90 212.67 123.98 212.55 120.01 C 212.46 116.81 211.78 113.85 211.23 110.73 C 211.27 108.85 211.02 106.89 212.38 105.39 C 215.09 102.53 218.53 101.64 222.32 101.21 C 225.12 89.61 222.97 78.99 223.28 67.27 C 223.94 59.53 224.71 52.22 222.77 44.56 C 221.41 46.10 220.38 47.63 220.00 49.69 C 219.71 50.84 219.45 51.99 219.24 53.14 C 218.08 52.29 216.92 51.44 215.72 50.65 L 216.14 49.12 C 217.25 45.65 216.97 42.34 216.58 38.79 L 216.55 36.72 C 218.52 36.93 220.31 36.84 221.92 38.21 C 225.63 41.24 229.34 46.37 230.99 50.88 C 232.90 56.89 232.67 63.74 233.27 70.00 C 234.09 77.88 232.12 85.08 231.80 92.94 C 231.51 100.20 228.66 106.67 227.75 113.80 C 227.13 120.37 225.26 127.76 226.73 134.26 C 228.07 139.02 230.32 143.50 231.87 148.21 C 233.43 152.86 236.02 158.06 235.94 162.99 C 235.87 167.71 234.69 172.44 232.75 176.73 C 230.25 182.23 226.19 186.64 222.59 191.53 C 216.67 199.62 209.01 207.31 200.08 212.02 C 191.78 215.75 182.92 218.28 174.45 221.59 C 168.93 224.11 163.51 226.81 157.83 228.99 C 149.93 232.54 141.77 236.42 132.82 237.65 C 125.79 238.02 118.38 236.04 111.52 234.57 C 105.81 233.31 99.98 232.97 94.28 231.66 C 87.92 230.33 82.63 228.00 75.98 228.71 C 66.97 229.21 59.80 233.49 51.07 232.97 C 46.97 232.69 42.17 231.70 38.92 229.02 C 36.86 227.53 37.49 224.11 37.30 221.87 C 36.71 223.52 36.09 225.16 35.46 226.79 C 32.74 222.80 30.71 218.52 28.94 214.04 C 26.00 206.51 21.20 200.75 19.12 192.85 C 16.92 185.54 18.45 178.00 21.05 171.02 C 23.06 165.61 27.40 160.64 27.97 154.99 C 28.73 148.20 26.40 140.98 26.00 134.03 C 25.50 128.05 26.00 122.56 27.74 116.82 C 29.13 111.83 29.75 106.85 32.12 102.14 C 35.33 95.63 36.68 88.49 39.88 81.97 C 43.67 74.06 46.46 65.81 49.58 57.62 C 51.63 52.33 52.37 46.84 54.70 41.70 C 57.32 36.30 59.48 31.27 65.31 28.66 Z" fill="#f4f4f2" />
<path d="M 68.55 29.06 C 69.70 30.46 70.72 31.87 71.15 33.67 C 72.72 39.91 72.83 46.63 72.15 53.01 C 71.36 58.23 73.31 62.86 71.45 68.10 C 70.56 67.94 69.68 67.78 68.79 67.63 C 68.78 69.49 68.91 71.32 68.95 73.18 C 67.22 76.80 66.61 80.46 66.02 84.38 C 64.80 84.39 63.57 84.40 62.35 84.41 C 61.40 87.60 60.45 90.78 59.62 94.01 C 58.07 94.60 56.51 95.19 54.95 95.76 C 54.29 94.16 53.64 92.57 52.94 90.99 C 51.87 93.26 50.62 95.68 50.20 98.16 C 50.06 100.64 50.99 103.27 51.59 105.67 C 51.28 106.21 50.97 106.75 50.67 107.30 C 50.07 106.69 49.39 106.43 48.62 106.51 C 47.17 107.06 47.87 108.57 48.12 109.67 C 48.05 110.38 47.96 111.08 47.85 111.79 C 46.88 112.88 45.90 113.96 44.93 115.06 C 45.38 115.98 45.84 116.89 46.29 117.81 C 47.87 117.49 49.45 117.16 51.03 116.83 C 51.66 115.12 52.34 113.44 53.06 111.77 C 52.96 115.60 52.35 118.46 50.75 121.88 C 53.40 122.32 56.08 122.52 58.76 122.63 C 57.16 131.11 56.16 140.14 53.05 148.23 C 51.33 150.02 49.90 151.02 47.52 151.79 C 45.37 152.43 44.44 154.16 42.87 155.71 C 40.02 150.71 36.16 145.84 34.60 140.37 C 32.04 133.68 33.73 125.25 35.33 118.46 C 36.61 112.38 41.27 108.67 43.04 102.92 C 45.20 96.31 47.90 89.93 50.42 83.46 C 52.87 77.16 54.04 70.90 56.76 64.75 C 57.84 62.17 59.38 59.99 60.24 57.32 C 62.39 50.43 64.19 43.51 65.30 36.37 C 66.23 33.85 67.32 31.44 68.55 29.06 Z" fill="#212440" />
<path d="M 163.66 37.44 C 164.18 37.45 164.70 37.46 165.22 37.48 C 164.90 41.07 165.11 43.88 166.55 47.22 C 164.97 51.93 162.59 56.31 160.98 61.00 C 160.36 60.36 159.72 59.73 159.06 59.11 C 154.16 66.18 151.14 74.12 146.21 81.21 C 143.30 85.41 140.52 89.63 137.89 94.00 C 135.35 96.86 132.00 98.74 129.81 101.81 C 127.65 104.82 125.85 108.11 124.19 111.42 C 121.66 112.46 119.14 113.56 116.61 114.63 C 116.13 112.50 116.14 111.40 117.16 109.38 C 120.22 103.33 121.66 96.71 124.77 90.69 C 126.44 87.51 127.68 84.32 128.35 80.77 C 124.27 83.61 123.49 87.65 122.24 92.11 C 121.38 90.59 120.51 89.08 119.63 87.57 C 118.72 88.85 117.50 90.16 116.98 91.66 C 116.22 95.02 116.84 99.20 115.63 102.49 C 114.42 104.39 112.08 105.55 110.54 107.22 C 109.75 110.27 111.94 113.90 114.36 115.65 C 116.43 117.30 118.79 117.23 121.29 117.54 C 117.68 125.47 112.74 132.55 109.86 140.85 C 106.96 149.10 104.40 156.79 98.44 163.45 C 96.06 166.01 93.23 167.55 90.32 169.41 C 86.94 169.15 83.54 168.90 80.16 168.89 C 77.38 168.76 74.56 170.82 72.06 171.89 C 68.99 173.53 65.91 173.81 64.12 177.11 C 61.25 181.98 57.21 186.41 55.18 191.63 C 54.75 194.02 54.30 196.51 54.39 198.95 C 55.38 201.74 57.42 203.73 59.98 205.14 C 62.30 206.44 63.90 207.99 65.51 210.10 C 65.40 211.21 65.30 212.33 65.22 213.45 C 70.43 212.31 74.17 208.67 79.18 207.14 C 80.29 206.78 81.41 206.44 82.52 206.09 C 82.68 204.56 82.84 203.03 83.01 201.51 C 85.46 202.02 87.91 202.53 90.38 202.96 C 90.26 203.68 90.14 204.39 90.04 205.10 C 88.10 205.74 86.17 206.40 84.25 207.10 C 85.74 207.97 87.26 208.80 88.79 209.61 C 92.19 212.93 94.06 216.87 98.29 219.08 C 100.72 220.41 102.99 221.60 104.64 223.92 C 93.82 222.90 83.48 218.04 72.75 216.26 C 71.11 216.13 69.42 216.43 67.79 216.57 C 66.98 218.39 66.33 220.57 65.04 222.09 C 61.90 222.98 58.30 221.32 55.06 221.89 C 52.39 222.46 49.75 223.38 47.23 224.45 C 46.28 223.50 45.32 222.55 44.36 221.60 C 45.53 220.53 46.72 219.47 47.91 218.42 C 47.26 217.55 46.61 216.68 45.94 215.83 C 42.98 211.51 38.72 208.55 35.66 204.33 C 32.90 200.69 29.33 198.00 28.43 193.41 C 26.86 187.09 26.35 179.30 29.51 173.37 C 31.44 173.40 33.59 173.60 35.47 173.09 C 36.93 172.39 38.21 171.21 39.46 170.20 C 38.97 172.27 38.55 174.36 38.18 176.46 C 39.25 175.85 40.36 175.24 41.36 174.53 C 42.15 172.04 42.08 169.20 42.23 166.60 C 43.46 165.05 44.58 163.39 45.95 162.00 C 47.65 160.75 49.52 159.55 51.02 158.06 C 53.14 155.94 54.41 153.50 56.87 151.69 C 63.78 147.27 70.07 141.63 75.51 135.50 C 78.76 131.82 82.78 128.61 85.59 124.60 C 90.14 117.58 92.71 109.32 97.35 102.38 C 99.52 99.07 102.71 97.20 104.42 93.72 C 106.71 89.31 109.52 85.26 112.38 81.21 C 112.91 80.51 113.44 79.82 113.98 79.13 L 114.77 78.15 C 116.58 75.91 118.40 73.68 120.32 71.54 C 122.64 69.07 124.86 66.53 127.12 64.02 C 128.07 63.03 129.05 62.09 130.06 61.17 C 133.63 57.96 137.31 54.89 141.04 51.87 C 143.02 50.12 144.59 48.06 146.26 46.02 C 152.42 43.21 156.57 38.64 163.66 37.44 Z" fill="#222441" />
<path d="M 216.58 38.79 C 216.97 42.34 217.25 45.65 216.14 49.12 C 216.12 47.62 216.07 46.13 216.00 44.63 C 215.03 46.96 214.11 49.33 213.30 51.72 C 212.50 52.23 211.71 52.76 210.93 53.30 C 210.15 52.49 209.37 51.68 208.59 50.87 C 211.70 47.99 214.59 44.89 216.09 40.85 L 216.58 38.79 Z" fill="#a8a191" />
<path d="M 174.97 41.66 C 175.08 44.90 175.37 48.35 174.81 51.56 C 174.20 54.72 172.24 57.81 170.66 60.59 C 171.08 61.23 171.50 61.86 171.92 62.50 C 169.75 67.09 167.82 71.79 165.71 76.41 C 163.96 81.79 162.77 87.30 160.52 92.53 C 159.14 92.20 157.76 91.87 156.38 91.54 C 154.31 80.88 157.39 70.91 160.98 61.00 C 162.59 56.31 164.97 51.93 166.55 47.22 C 168.91 44.65 171.82 43.04 174.97 41.66 Z" fill="#ebeae7" />
<path d="M 216.00 44.63 C 216.07 46.13 216.12 47.62 216.14 49.12 L 215.72 50.65 C 214.99 52.27 214.24 53.88 213.48 55.49 L 212.72 53.58 L 213.30 51.72 C 214.11 49.33 215.03 46.96 216.00 44.63 Z" fill="#4d4430" />
<path d="M 222.77 44.56 C 224.71 52.22 223.94 59.53 223.28 67.27 C 221.81 61.47 221.17 55.55 220.00 49.69 C 220.38 47.63 221.41 46.10 222.77 44.56 Z" fill="#8d7e66" />
<path d="M 146.26 46.02 C 144.59 48.06 143.02 50.12 141.04 51.87 C 140.10 51.01 139.15 50.15 138.19 49.30 C 138.88 48.96 139.57 48.63 140.26 48.29 C 142.21 47.41 144.22 46.69 146.26 46.02 Z" fill="#6a6763" />
<path d="M 128.76 47.31 C 130.28 47.98 131.87 49.00 133.52 49.27 C 135.76 49.35 138.08 48.79 140.26 48.29 C 139.57 48.63 138.88 48.96 138.19 49.30 C 132.81 51.54 129.94 54.14 126.78 58.96 C 127.87 59.70 128.97 60.44 130.06 61.17 C 129.05 62.09 128.07 63.03 127.12 64.02 C 121.29 64.86 115.84 66.87 110.16 68.33 C 105.21 68.56 102.28 70.91 98.85 74.21 C 98.83 71.87 98.89 69.53 98.79 67.19 C 98.26 66.67 97.70 66.17 97.13 65.68 C 100.26 62.85 103.61 60.33 107.48 58.62 C 108.64 58.41 109.86 58.24 110.98 57.88 C 112.51 56.88 113.46 54.86 114.44 53.36 C 116.90 52.80 119.30 51.98 121.63 51.00 C 122.14 52.24 122.67 53.47 123.22 54.70 C 125.12 53.19 127.02 51.67 128.89 50.11 C 128.34 49.39 127.79 48.68 127.23 47.97 C 127.74 47.74 128.24 47.52 128.76 47.31 Z" fill="#c9c1ad" />
<path d="M 127.23 47.97 C 127.79 48.68 128.34 49.39 128.89 50.11 C 127.02 51.67 125.12 53.19 123.22 54.70 C 122.67 53.47 122.14 52.24 121.63 51.00 C 123.52 50.04 125.33 48.91 127.23 47.97 Z" fill="#938778" />
<path d="M 138.19 49.30 C 139.15 50.15 140.10 51.01 141.04 51.87 C 137.31 54.89 133.63 57.96 130.06 61.17 C 128.97 60.44 127.87 59.70 126.78 58.96 C 129.94 54.14 132.81 51.54 138.19 49.30 Z" fill="#9d9171" />
<path d="M 192.49 49.68 C 192.77 50.76 193.04 51.84 193.30 52.92 C 192.76 56.12 192.75 59.35 192.35 62.55 C 191.71 65.98 188.40 69.03 186.13 71.53 C 185.22 70.89 184.28 70.31 183.30 69.80 C 183.22 67.64 183.14 65.48 183.03 63.32 C 181.20 64.27 179.37 65.21 177.52 66.11 C 177.34 63.71 177.18 61.30 177.02 58.89 C 178.64 56.50 180.35 54.19 182.32 52.07 C 182.81 55.08 183.21 58.11 183.57 61.14 C 186.65 57.40 189.35 53.37 192.49 49.68 Z" fill="#27293f" />
<path d="M 220.00 49.69 C 221.17 55.55 221.81 61.47 223.28 67.27 C 222.97 78.99 225.12 89.61 222.32 101.21 C 218.53 101.64 215.09 102.53 212.38 105.39 C 211.02 106.89 211.27 108.85 211.23 110.73 L 211.19 112.88 C 209.36 111.50 206.88 110.18 206.12 107.90 C 204.72 103.95 204.92 99.21 204.93 95.07 C 206.54 94.41 208.19 93.60 209.89 93.21 C 213.58 93.40 213.61 97.89 214.70 100.51 C 216.94 98.74 218.26 96.99 219.43 94.38 C 224.32 81.63 220.60 69.00 219.40 56.06 C 219.33 55.09 219.27 54.12 219.24 53.14 C 219.45 51.99 219.71 50.84 220.00 49.69 Z" fill="#1f203a" />
<path d="M 208.59 50.87 C 209.37 51.68 210.15 52.49 210.93 53.30 C 210.43 53.67 209.94 54.07 209.47 54.47 C 204.13 55.40 200.27 61.11 198.83 65.97 C 200.24 65.59 201.68 65.21 203.07 64.75 C 207.86 62.58 211.52 58.80 212.72 53.58 L 213.48 55.49 C 215.41 56.99 217.18 56.25 219.40 56.06 C 220.60 69.00 224.32 81.63 219.43 94.38 C 216.41 95.73 215.63 97.41 214.70 100.51 C 213.61 97.89 213.58 93.40 209.89 93.21 C 208.19 93.60 206.54 94.41 204.93 95.07 C 204.92 99.21 204.72 103.95 206.12 107.90 C 206.88 110.18 209.36 111.50 211.19 112.88 L 211.23 110.73 C 211.78 113.85 212.46 116.81 212.55 120.01 C 212.67 123.98 211.63 127.90 210.86 131.80 C 209.78 135.78 208.37 139.76 206.38 143.39 C 204.32 146.95 201.29 150.06 198.46 153.02 C 197.88 150.43 197.39 147.82 196.92 145.21 C 194.11 149.38 191.03 152.82 187.07 155.93 C 181.09 158.39 176.48 162.67 172.66 167.79 C 169.15 172.53 170.49 177.34 170.10 182.85 C 166.33 176.41 166.49 168.22 167.15 161.02 C 167.49 156.84 169.34 153.35 171.49 149.85 C 172.45 151.27 173.43 152.67 174.41 154.07 C 176.14 150.58 177.18 147.12 177.03 143.17 C 178.61 142.45 180.20 141.74 181.77 140.99 C 184.88 139.63 186.79 137.18 188.77 134.55 C 189.64 133.37 190.48 132.17 191.20 130.90 C 191.83 131.60 192.46 132.30 193.09 133.00 C 195.72 130.02 198.89 127.28 198.79 122.95 C 198.58 117.61 197.31 112.27 196.43 107.01 C 196.87 106.61 197.31 106.22 197.76 105.84 C 197.74 110.90 202.43 113.13 202.45 117.99 C 202.47 126.04 203.04 134.03 202.50 142.08 C 206.68 136.39 210.04 130.77 208.59 123.38 C 206.93 115.82 203.98 107.45 198.49 101.80 C 195.05 98.47 191.40 95.37 187.92 92.08 C 182.60 87.06 175.17 83.81 168.92 80.06 C 167.39 79.21 166.63 77.83 165.71 76.41 C 167.82 71.79 169.75 67.09 171.92 62.50 C 172.80 60.85 173.75 59.25 174.70 57.64 C 175.47 58.06 176.24 58.48 177.02 58.89 C 177.18 61.30 177.34 63.71 177.52 66.11 C 179.37 65.21 181.20 64.27 183.03 63.32 C 183.14 65.48 183.22 67.64 183.30 69.80 C 184.28 70.31 185.22 70.89 186.13 71.53 C 188.40 69.03 191.71 65.98 192.35 62.55 C 192.75 59.35 192.76 56.12 193.30 52.92 C 194.58 55.05 196.19 56.92 197.89 58.72 C 201.74 56.46 205.29 53.89 208.59 50.87 Z" fill="#918162" />
<path d="M 213.30 51.72 L 212.72 53.58 C 211.52 58.80 207.86 62.58 203.07 64.75 C 205.30 61.39 207.30 57.88 209.47 54.47 C 209.94 54.07 210.43 53.67 210.93 53.30 C 211.71 52.76 212.50 52.23 213.30 51.72 Z" fill="#fefef9" />
<path d="M 215.72 50.65 C 216.92 51.44 218.08 52.29 219.24 53.14 C 219.27 54.12 219.33 55.09 219.40 56.06 C 217.18 56.25 215.41 56.99 213.48 55.49 C 214.24 53.88 214.99 52.27 215.72 50.65 Z" fill="#b1a589" />
<path d="M 113.25 52.24 L 114.44 53.36 C 113.46 54.86 112.51 56.88 110.98 57.88 C 109.86 58.24 108.64 58.41 107.48 58.62 C 109.35 56.41 111.10 54.20 113.25 52.24 Z" fill="#5d5949" />
<path d="M 209.47 54.47 C 207.30 57.88 205.30 61.39 203.07 64.75 C 201.68 65.21 200.24 65.59 198.83 65.97 C 200.27 61.11 204.13 55.40 209.47 54.47 Z" fill="#645d47" />
<path d="M 159.06 59.11 C 159.72 59.73 160.36 60.36 160.98 61.00 C 157.39 70.91 154.31 80.88 156.38 91.54 C 156.12 95.88 154.61 100.38 153.53 104.59 C 151.66 111.28 150.55 118.10 149.88 125.01 C 149.16 132.17 150.58 139.85 152.17 146.81 C 152.45 148.43 153.01 150.59 152.17 152.10 C 151.22 153.68 149.56 154.93 148.13 156.06 C 144.85 157.48 141.58 158.98 138.24 160.24 C 136.95 158.65 135.73 157.01 134.55 155.34 C 137.06 152.91 139.79 150.72 142.25 148.24 C 143.83 146.75 144.01 144.57 144.55 142.57 C 145.47 142.83 146.40 143.09 147.32 143.36 C 146.70 140.58 146.04 137.81 145.37 135.05 C 145.04 136.64 144.71 138.24 144.37 139.83 C 142.99 139.44 141.61 139.05 140.23 138.65 C 140.64 137.25 141.05 135.85 141.46 134.46 C 139.91 133.59 138.36 132.72 136.80 131.85 C 139.08 127.64 142.49 124.41 145.13 120.49 C 145.32 119.57 145.50 118.65 145.66 117.72 C 144.58 117.14 143.50 116.56 142.42 115.97 C 143.01 115.01 143.60 114.06 144.19 113.11 C 142.20 110.49 140.17 107.91 138.12 105.35 C 139.75 105.58 141.39 105.81 143.02 106.06 C 142.03 102.48 141.87 99.75 142.41 96.08 C 140.92 95.36 139.41 94.65 137.89 94.00 C 140.52 89.63 143.30 85.41 146.21 81.21 C 151.14 74.12 154.16 66.18 159.06 59.11 Z" fill="#9780ac" />
<path d="M 127.12 64.02 C 124.86 66.53 122.64 69.07 120.32 71.54 C 117.22 71.62 114.26 72.22 111.29 73.10 C 112.43 74.80 113.60 76.48 114.77 78.15 L 113.98 79.13 C 110.91 79.24 108.16 79.54 105.31 80.76 C 105.28 79.20 105.26 77.63 105.24 76.06 C 103.03 76.57 100.81 77.06 98.58 77.45 C 101.53 73.19 105.70 70.72 110.16 68.33 C 115.84 66.87 121.29 64.86 127.12 64.02 Z" fill="#9f9072" />
<path d="M 97.13 65.68 C 97.70 66.17 98.26 66.67 98.79 67.19 C 98.89 69.53 98.83 71.87 98.85 74.21 C 96.38 76.48 93.61 78.32 90.84 80.20 C 90.04 79.26 89.23 78.33 88.41 77.40 C 91.53 73.66 93.59 68.99 97.13 65.68 Z" fill="#908262" />
<path d="M 68.79 67.63 C 69.68 67.78 70.56 67.94 71.45 68.10 C 70.65 69.81 69.76 71.48 68.95 73.18 C 68.91 71.32 68.78 69.49 68.79 67.63 Z" fill="#827f91" />
<path d="M 110.16 68.33 C 105.70 70.72 101.53 73.19 98.58 77.45 C 99.32 79.86 100.15 82.22 100.70 84.69 C 98.11 86.47 95.59 88.39 93.14 90.35 C 92.96 87.25 93.01 83.56 91.36 80.85 L 90.84 80.20 C 93.61 78.32 96.38 76.48 98.85 74.21 C 102.28 70.91 105.21 68.56 110.16 68.33 Z" fill="#e4e0cf" />
<path d="M 120.32 71.54 C 118.40 73.68 116.58 75.91 114.77 78.15 C 113.60 76.48 112.43 74.80 111.29 73.10 C 114.26 72.22 117.22 71.62 120.32 71.54 Z" fill="#a79c7b" />
<path d="M 105.24 76.06 C 105.26 77.63 105.28 79.20 105.31 80.76 C 108.16 79.54 110.91 79.24 113.98 79.13 C 113.44 79.82 112.91 80.51 112.38 81.21 C 110.49 82.24 108.56 83.19 106.64 84.15 C 106.85 83.34 107.06 82.53 107.27 81.72 C 105.06 82.63 102.79 83.52 100.70 84.69 C 100.15 82.22 99.32 79.86 98.58 77.45 C 100.81 77.06 103.03 76.57 105.24 76.06 Z" fill="#cec2b9" />
<path d="M 165.71 76.41 C 166.63 77.83 167.39 79.21 168.92 80.06 C 175.17 83.81 182.60 87.06 187.92 92.08 C 191.40 95.37 195.05 98.47 198.49 101.80 C 198.22 103.14 197.96 104.49 197.76 105.84 C 197.31 106.22 196.87 106.61 196.43 107.01 C 194.03 111.19 195.93 116.35 195.67 120.89 C 194.42 124.31 192.39 127.41 191.20 130.90 C 190.48 132.17 189.64 133.37 188.77 134.55 C 188.34 133.31 187.90 132.07 187.47 130.83 C 184.99 133.92 183.23 137.32 181.77 140.99 C 180.20 141.74 178.61 142.45 177.03 143.17 C 176.90 141.09 176.70 139.01 176.52 136.94 C 175.45 141.51 173.90 145.81 171.49 149.85 C 169.34 153.35 167.49 156.84 167.15 161.02 C 166.49 168.22 166.33 176.41 170.10 182.85 C 170.49 177.34 169.15 172.53 172.66 167.79 C 172.01 171.22 171.89 174.66 171.81 178.14 C 172.81 175.70 173.70 173.13 174.96 170.82 C 176.50 168.04 179.25 165.74 181.38 163.37 C 183.53 161.06 185.21 158.46 187.07 155.93 C 191.03 152.82 194.11 149.38 196.92 145.21 C 197.39 147.82 197.88 150.43 198.46 153.02 C 201.29 150.06 204.32 146.95 206.38 143.39 C 208.37 139.76 209.78 135.78 210.86 131.80 C 211.17 132.99 211.50 134.18 211.85 135.36 C 210.14 142.05 205.96 146.79 202.30 152.37 C 201.73 157.00 202.80 161.70 205.42 165.58 C 206.87 167.35 209.12 168.56 211.00 169.85 C 213.66 168.52 216.27 167.11 218.82 165.59 L 220.30 165.89 C 218.08 167.93 215.98 169.28 215.80 172.58 C 215.26 172.18 214.72 171.78 214.19 171.39 C 213.11 174.85 212.19 178.52 210.54 181.76 C 208.71 185.32 203.96 187.21 201.49 190.31 C 200.45 191.38 201.83 193.37 202.05 194.60 C 199.70 196.18 196.83 198.02 193.97 198.30 C 190.76 198.22 187.43 196.53 184.51 195.29 C 184.33 189.75 185.04 184.38 185.78 178.90 C 186.13 177.36 185.62 175.99 187.47 175.39 C 191.21 174.27 194.72 174.67 197.96 172.02 L 198.18 171.92 C 197.52 173.72 196.02 174.86 195.54 176.70 C 194.76 179.48 194.13 182.29 193.31 185.06 C 192.53 185.35 191.76 185.63 190.98 185.92 C 190.59 183.19 190.29 180.45 189.97 177.71 C 189.26 180.71 187.41 185.01 189.13 187.86 C 190.42 189.01 192.69 189.53 193.91 188.00 C 195.73 186.56 195.91 184.65 196.61 182.59 C 197.64 178.89 199.40 175.62 201.02 172.17 C 198.84 170.80 196.22 168.14 193.48 168.52 C 188.52 168.90 183.80 166.85 179.75 170.85 C 177.84 172.30 178.72 174.10 178.88 176.13 C 178.39 174.37 177.81 172.65 177.24 170.93 C 177.31 176.26 177.33 181.41 179.27 186.48 C 180.36 186.23 181.44 185.95 182.52 185.67 C 179.10 189.52 180.61 195.12 180.53 199.91 C 182.93 200.68 185.31 201.47 187.59 202.54 C 185.49 203.44 183.47 204.66 181.12 204.52 C 177.24 204.37 173.31 203.36 169.47 202.83 C 171.70 201.11 173.72 199.20 175.49 197.00 C 172.96 198.03 170.63 199.29 167.99 200.06 C 170.98 196.35 176.35 193.57 176.43 188.46 C 175.03 188.28 173.63 188.10 172.23 187.93 C 172.58 186.71 172.93 185.48 173.26 184.25 C 172.44 185.24 171.65 186.24 170.90 187.28 C 166.49 187.94 162.40 186.21 157.97 186.76 C 155.50 186.85 153.41 187.85 151.19 188.84 C 151.23 191.05 150.57 193.97 152.24 195.71 C 153.32 197.14 154.51 198.50 155.63 199.90 C 154.49 200.86 153.38 201.85 152.24 202.81 C 150.13 200.85 148.26 199.46 145.34 199.11 C 145.33 201.80 147.57 205.64 144.13 207.03 C 139.26 209.62 132.30 207.77 126.84 208.25 C 126.63 207.32 126.43 206.39 126.23 205.45 C 122.49 206.32 118.50 206.69 114.90 208.02 C 113.56 209.03 112.55 210.55 111.50 211.84 C 109.95 210.55 108.32 209.34 106.67 208.18 C 103.73 210.57 104.29 212.76 104.63 216.15 C 103.96 217.14 103.33 218.15 102.70 219.16 C 101.23 219.05 99.76 219.06 98.29 219.08 C 94.06 216.87 92.19 212.93 88.79 209.61 C 92.19 209.89 95.62 209.98 99.03 210.16 C 99.09 209.53 99.16 208.90 99.22 208.27 C 105.16 205.20 106.64 199.73 109.87 194.24 C 106.97 193.75 104.06 193.26 101.17 192.74 C 104.72 190.94 108.18 189.65 112.05 188.71 C 117.24 190.32 122.50 194.91 127.92 194.87 C 132.66 194.36 134.74 189.53 137.21 186.13 C 139.34 182.88 142.50 181.45 145.71 179.51 C 147.80 178.66 149.92 177.58 152.13 177.13 C 154.18 176.89 156.39 177.37 158.43 177.61 C 155.43 175.68 152.41 173.62 149.19 172.09 C 147.30 174.01 146.55 175.90 145.99 178.51 C 143.54 178.04 140.79 177.22 138.29 177.57 C 134.69 178.48 131.58 181.44 127.96 182.19 C 122.76 181.62 117.90 179.84 112.57 179.99 C 114.98 178.09 116.30 175.53 118.13 173.15 C 121.57 171.60 126.21 172.46 129.61 170.64 C 131.58 169.33 133.13 167.16 134.74 165.43 C 139.61 162.67 143.87 159.67 148.13 156.06 C 149.56 154.93 151.22 153.68 152.17 152.10 C 153.01 150.59 152.45 148.43 152.17 146.81 C 150.58 139.85 149.16 132.17 149.88 125.01 C 150.55 118.10 151.66 111.28 153.53 104.59 C 154.61 100.38 156.12 95.88 156.38 91.54 C 157.76 91.87 159.14 92.20 160.52 92.53 C 162.77 87.30 163.96 81.79 165.71 76.41 Z" fill="#e1dbc9" />
<path d="M 85.13 80.57 C 86.46 80.88 87.75 81.49 89.01 82.01 C 89.79 81.62 90.58 81.24 91.36 80.85 C 93.01 83.56 92.96 87.25 93.14 90.35 C 90.93 94.73 89.62 99.01 87.06 103.08 C 84.15 107.70 80.40 111.05 77.99 115.96 C 75.11 121.92 72.94 128.24 70.33 134.33 C 68.68 138.28 65.90 141.36 62.94 144.38 C 62.90 134.18 65.09 124.44 66.54 114.41 C 68.12 104.71 72.75 96.05 77.64 87.66 C 79.47 84.54 81.58 81.80 85.13 80.57 Z" fill="#918162" />
<path d="M 128.35 80.77 C 127.68 84.32 126.44 87.51 124.77 90.69 C 121.66 96.71 120.22 103.33 117.16 109.38 C 116.14 111.40 116.13 112.50 116.61 114.63 C 119.14 113.56 121.66 112.46 124.19 111.42 L 123.33 113.21 C 122.63 114.64 121.96 116.09 121.29 117.54 C 118.79 117.23 116.43 117.30 114.36 115.65 C 111.94 113.90 109.75 110.27 110.54 107.22 C 112.08 105.55 114.42 104.39 115.63 102.49 C 116.84 99.20 116.22 95.02 116.98 91.66 C 117.50 90.16 118.72 88.85 119.63 87.57 C 120.51 89.08 121.38 90.59 122.24 92.11 C 123.49 87.65 124.27 83.61 128.35 80.77 Z" fill="#323250" />
<path d="M 62.35 84.41 C 63.57 84.40 64.80 84.39 66.02 84.38 C 64.99 90.38 63.81 96.36 62.71 102.35 C 61.82 108.35 61.32 114.29 59.38 120.08 C 59.66 116.81 59.47 113.57 59.04 110.32 C 58.16 104.46 61.81 99.95 59.62 94.01 C 60.45 90.78 61.40 87.60 62.35 84.41 Z" fill="#57536e" />
<path d="M 52.94 90.99 C 53.64 92.57 54.29 94.16 54.95 95.76 C 56.51 95.19 58.07 94.60 59.62 94.01 C 61.81 99.95 58.16 104.46 59.04 110.32 C 59.47 113.57 59.66 116.81 59.38 120.08 C 59.17 120.93 58.96 121.78 58.76 122.63 C 56.08 122.52 53.40 122.32 50.75 121.88 C 52.35 118.46 52.96 115.60 53.06 111.77 C 52.34 113.44 51.66 115.12 51.03 116.83 C 50.95 114.56 50.70 112.35 50.06 110.17 C 49.31 110.69 48.57 111.23 47.85 111.79 C 47.96 111.08 48.05 110.38 48.12 109.67 C 49.31 109.15 50.15 108.36 50.67 107.30 C 50.97 106.75 51.28 106.21 51.59 105.67 C 50.99 103.27 50.06 100.64 50.20 98.16 C 50.62 95.68 51.87 93.26 52.94 90.99 Z" fill="#373752" />
<path d="M 137.89 94.00 C 139.41 94.65 140.92 95.36 142.41 96.08 C 141.87 99.75 142.03 102.48 143.02 106.06 C 141.39 105.81 139.75 105.58 138.12 105.35 C 140.17 107.91 142.20 110.49 144.19 113.11 C 143.60 114.06 143.01 115.01 142.42 115.97 C 143.50 116.56 144.58 117.14 145.66 117.72 C 145.50 118.65 145.32 119.57 145.13 120.49 C 142.45 118.68 139.76 117.26 136.69 116.25 C 137.21 114.27 137.75 112.30 138.28 110.33 C 136.86 111.44 135.44 112.56 134.03 113.68 C 132.57 112.67 131.12 111.66 129.66 110.66 L 129.44 110.78 L 129.18 110.93 C 127.32 112.02 125.43 112.73 123.33 113.21 L 124.19 111.42 C 125.85 108.11 127.65 104.82 129.81 101.81 C 132.00 98.74 135.35 96.86 137.89 94.00 Z" fill="#8c71a9" />
<path d="M 219.43 94.38 C 218.26 96.99 216.94 98.74 214.70 100.51 C 215.63 97.41 216.41 95.73 219.43 94.38 Z" fill="#dfdfdc" />
<path d="M 198.49 101.80 C 203.98 107.45 206.93 115.82 208.59 123.38 C 210.04 130.77 206.68 136.39 202.50 142.08 C 203.04 134.03 202.47 126.04 202.45 117.99 C 202.43 113.13 197.74 110.90 197.76 105.84 C 197.96 104.49 198.22 103.14 198.49 101.80 Z" fill="#edeade" />
<path d="M 50.67 107.30 C 50.15 108.36 49.31 109.15 48.12 109.67 C 47.87 108.57 47.17 107.06 48.62 106.51 C 49.39 106.43 50.07 106.69 50.67 107.30 Z" fill="#666979" />
<path d="M 108.26 107.27 C 108.52 111.20 109.05 115.11 109.28 119.05 C 107.71 119.29 106.03 119.73 104.44 119.61 C 102.56 119.14 101.15 117.30 102.36 115.47 C 104.17 112.63 106.50 110.16 108.26 107.27 Z" fill="#c0b69f" />
<path d="M 196.43 107.01 C 197.31 112.27 198.58 117.61 198.79 122.95 C 198.89 127.28 195.72 130.02 193.09 133.00 C 192.46 132.30 191.83 131.60 191.20 130.90 C 192.39 127.41 194.42 124.31 195.67 120.89 C 195.93 116.35 194.03 111.19 196.43 107.01 Z" fill="#523f33" />
<path d="M 50.06 110.17 C 50.70 112.35 50.95 114.56 51.03 116.83 C 49.45 117.16 47.87 117.49 46.29 117.81 C 45.84 116.89 45.38 115.98 44.93 115.06 C 45.90 113.96 46.88 112.88 47.85 111.79 C 48.57 111.23 49.31 110.69 50.06 110.17 Z" fill="#b2ad97" />
<path d="M 129.18 110.93 L 129.44 110.78 L 129.66 110.66 C 131.12 111.66 132.57 112.67 134.03 113.68 C 135.44 112.56 136.86 111.44 138.28 110.33 C 137.75 112.30 137.21 114.27 136.69 116.25 C 139.76 117.26 142.45 118.68 145.13 120.49 C 142.49 124.41 139.08 127.64 136.80 131.85 C 138.36 132.72 139.91 133.59 141.46 134.46 C 141.05 135.85 140.64 137.25 140.23 138.65 C 141.61 139.05 142.99 139.44 144.37 139.83 C 144.71 138.24 145.04 136.64 145.37 135.05 C 146.04 137.81 146.70 140.58 147.32 143.36 C 146.40 143.09 145.47 142.83 144.55 142.57 C 144.01 144.57 143.83 146.75 142.25 148.24 C 139.79 150.72 137.06 152.91 134.55 155.34 C 135.73 157.01 136.95 158.65 138.24 160.24 C 135.10 160.69 131.92 160.92 128.77 161.30 C 129.78 162.91 130.80 164.50 131.83 166.09 L 130.20 166.39 C 129.54 166.29 128.88 166.19 128.23 166.08 C 127.91 164.72 127.58 163.36 127.26 162.00 C 122.43 162.03 118.80 163.99 114.84 166.51 C 113.76 165.17 112.69 163.81 111.54 162.53 C 110.12 163.66 108.78 164.99 107.24 165.96 C 105.40 166.93 103.06 167.03 101.25 168.09 C 100.05 168.89 98.96 169.92 97.89 170.88 L 97.29 171.42 C 94.15 171.59 92.83 171.24 90.32 169.41 C 93.23 167.55 96.06 166.01 98.44 163.45 C 104.40 156.79 106.96 149.10 109.86 140.85 C 112.74 132.55 117.68 125.47 121.29 117.54 C 121.96 116.09 122.63 114.64 123.33 113.21 C 125.43 112.73 127.32 112.02 129.18 110.93 Z" fill="#8266a6" />
<path d="M 214.62 113.62 C 217.55 118.00 215.62 121.94 216.35 126.87 C 217.78 134.49 215.46 142.78 211.04 149.06 C 208.66 152.52 207.60 156.36 206.29 160.29 C 208.17 159.93 209.97 159.66 211.63 158.63 C 216.11 155.84 220.82 153.71 225.10 150.56 C 221.87 155.11 217.77 158.18 213.85 161.99 C 216.28 161.21 219.30 160.70 221.35 159.09 C 223.58 156.86 225.52 154.49 228.26 152.83 C 225.36 157.20 222.03 161.43 218.82 165.59 C 216.27 167.11 213.66 168.52 211.00 169.85 C 209.12 168.56 206.87 167.35 205.42 165.58 C 202.80 161.70 201.73 157.00 202.30 152.37 C 205.96 146.79 210.14 142.05 211.85 135.36 C 214.26 128.27 214.58 121.04 214.62 113.62 Z" fill="#312f44" />
<path d="M 100.78 123.15 C 100.34 127.34 100.29 132.04 98.93 136.04 C 96.70 137.25 93.24 137.58 91.49 135.35 C 90.56 134.22 90.77 132.88 91.75 131.85 C 94.47 128.69 97.91 126.19 100.78 123.15 Z" fill="#bbb8a2" />
<path d="M 47.61 126.15 C 48.38 129.98 49.55 133.28 51.12 136.85 C 49.01 137.73 47.08 138.23 44.80 138.46 C 44.24 133.90 46.11 130.30 47.61 126.15 Z" fill="#c1b5a0" />
<path d="M 216.01 129.44 C 216.07 132.52 215.63 134.02 213.90 136.53 C 213.86 133.46 214.21 131.93 216.01 129.44 Z" fill="#b6b6b5" />
<path d="M 187.47 130.83 C 187.90 132.07 188.34 133.31 188.77 134.55 C 186.79 137.18 184.88 139.63 181.77 140.99 C 183.23 137.32 184.99 133.92 187.47 130.83 Z" fill="#5a5039" />
<path d="M 176.52 136.94 C 176.70 139.01 176.90 141.09 177.03 143.17 C 177.18 147.12 176.14 150.58 174.41 154.07 C 173.43 152.67 172.45 151.27 171.49 149.85 C 173.90 145.81 175.45 141.51 176.52 136.94 Z" fill="#544931" />
<path d="M 200.14 136.23 C 200.54 139.42 199.82 140.75 197.97 143.26 C 198.47 140.83 199.17 138.52 200.14 136.23 Z" fill="#bfb398" />
<path d="M 85.73 141.12 C 84.38 144.60 83.59 148.18 82.80 151.81 C 82.24 154.30 80.59 156.02 79.10 158.01 C 77.10 156.47 74.69 155.56 74.22 152.81 C 73.78 150.67 75.87 148.63 77.49 147.53 C 80.40 145.57 83.24 143.62 85.73 141.12 Z" fill="#bfb399" />
<path d="M 212.17 141.29 C 213.74 141.48 213.21 143.54 211.91 143.73 C 210.34 143.54 210.89 141.48 212.17 141.29 Z" fill="#9f9fb3" />
<path d="M 209.15 147.11 C 208.42 148.94 207.60 149.88 206.05 151.07 C 206.94 149.58 207.90 148.31 209.15 147.11 Z" fill="#54556c" />
<path d="M 53.05 148.23 C 54.37 149.33 55.62 150.51 56.87 151.69 C 54.41 153.50 53.14 155.94 51.02 158.06 C 49.52 159.55 47.65 160.75 45.95 162.00 C 44.99 159.87 44.04 157.75 42.87 155.71 C 44.44 154.16 45.37 152.43 47.52 151.79 C 49.90 151.02 51.33 150.02 53.05 148.23 Z" fill="#a693b8" />
<path d="M 148.13 156.06 C 143.87 159.67 139.61 162.67 134.74 165.43 C 133.78 165.66 132.80 165.88 131.83 166.09 C 130.80 164.50 129.78 162.91 128.77 161.30 C 131.92 160.92 135.10 160.69 138.24 160.24 C 141.58 158.98 144.85 157.48 148.13 156.06 Z" fill="#aa98b2" />
<path d="M 187.07 155.93 C 185.21 158.46 183.53 161.06 181.38 163.37 C 179.25 165.74 176.50 168.04 174.96 170.82 C 173.70 173.13 172.81 175.70 171.81 178.14 C 171.89 174.66 172.01 171.22 172.66 167.79 C 176.48 162.67 181.09 158.39 187.07 155.93 Z" fill="#c8b38a" />
<path d="M 111.54 162.53 C 112.69 163.81 113.76 165.17 114.84 166.51 C 118.80 163.99 122.43 162.03 127.26 162.00 C 127.58 163.36 127.91 164.72 128.23 166.08 C 128.88 166.19 129.54 166.29 130.20 166.39 C 125.32 167.42 120.45 168.51 115.55 169.47 C 109.63 170.60 103.88 170.06 97.89 170.88 C 98.96 169.92 100.05 168.89 101.25 168.09 C 103.06 167.03 105.40 166.93 107.24 165.96 C 108.78 164.99 110.12 163.66 111.54 162.53 Z" fill="#9881aa" />
<path d="M 134.74 165.43 C 133.13 167.16 131.58 169.33 129.61 170.64 C 126.21 172.46 121.57 171.60 118.13 173.15 C 116.30 175.53 114.98 178.09 112.57 179.99 C 111.15 181.39 108.65 182.88 108.56 185.04 C 108.44 185.85 108.33 186.65 108.25 187.46 C 109.52 187.87 110.79 188.27 112.05 188.71 C 108.18 189.65 104.72 190.94 101.17 192.74 C 104.06 193.26 106.97 193.75 109.87 194.24 C 106.64 199.73 105.16 205.20 99.22 208.27 C 99.16 208.90 99.09 209.53 99.03 210.16 C 95.62 209.98 92.19 209.89 88.79 209.61 C 87.26 208.80 85.74 207.97 84.25 207.10 C 86.17 206.40 88.10 205.74 90.04 205.10 C 90.14 204.39 90.26 203.68 90.38 202.96 C 90.76 201.55 91.25 200.17 91.89 198.85 C 92.80 197.46 93.73 196.11 94.44 194.60 C 94.64 190.97 95.00 187.40 95.64 183.81 C 95.06 183.39 94.49 182.96 93.92 182.53 C 93.02 181.85 92.13 181.16 91.24 180.48 C 92.42 178.35 93.89 176.45 95.28 174.46 C 95.77 175.98 96.25 177.49 96.72 179.01 C 98.71 178.79 101.03 178.88 102.72 177.73 C 105.02 176.29 107.06 174.23 109.01 172.35 C 104.95 172.05 100.96 171.78 96.89 172.00 L 97.29 171.42 L 97.89 170.88 C 103.88 170.06 109.63 170.60 115.55 169.47 C 120.45 168.51 125.32 167.42 130.20 166.39 L 131.83 166.09 C 132.80 165.88 133.78 165.66 134.74 165.43 Z" fill="#d8d1bb" />
<path d="M 230.15 165.47 C 227.94 167.78 225.36 169.87 223.46 172.43 C 221.91 175.26 221.20 178.52 219.80 181.44 C 217.20 178.98 216.47 175.97 215.80 172.58 C 215.98 169.28 218.08 167.93 220.30 165.89 C 223.72 166.86 226.80 166.36 230.15 165.47 Z" fill="#3d353c" />
<path d="M 42.23 166.60 C 42.08 169.20 42.15 172.04 41.36 174.53 C 40.36 175.24 39.25 175.85 38.18 176.46 C 38.55 174.36 38.97 172.27 39.46 170.20 C 38.21 171.21 36.93 172.39 35.47 173.09 C 33.59 173.60 31.44 173.40 29.51 173.37 C 32.99 169.85 37.24 167.23 42.23 166.60 Z" fill="#383245" />
<path d="M 80.16 168.89 C 83.54 168.90 86.94 169.15 90.32 169.41 C 92.83 171.24 94.15 171.59 97.29 171.42 L 96.89 172.00 C 96.35 172.82 95.81 173.64 95.28 174.46 C 93.89 176.45 92.42 178.35 91.24 180.48 C 91.01 182.76 90.98 185.06 91.00 187.35 C 92.86 186.18 93.22 184.46 93.92 182.53 C 94.49 182.96 95.06 183.39 95.64 183.81 C 95.00 187.40 94.64 190.97 94.44 194.60 C 93.21 193.56 91.97 192.47 90.67 191.51 C 90.01 191.96 89.36 192.41 88.71 192.87 C 88.27 192.14 87.77 191.45 87.23 190.80 C 85.57 190.69 84.10 191.21 82.58 191.78 C 82.01 190.18 81.70 188.19 80.66 186.82 C 79.11 185.53 77.12 185.70 75.25 185.92 C 71.51 187.98 67.86 190.13 63.94 191.88 C 65.90 194.93 68.81 195.95 72.01 197.26 C 70.71 199.09 69.56 200.97 68.83 203.11 C 68.00 205.61 67.05 207.94 65.51 210.10 C 63.90 207.99 62.30 206.44 59.98 205.14 C 58.54 200.62 57.13 195.95 55.18 191.63 C 57.21 186.41 61.25 181.98 64.12 177.11 C 65.91 173.81 68.99 173.53 72.06 171.89 C 74.56 170.82 77.38 168.76 80.16 168.89 Z" fill="#8b8da6" />
<path d="M 193.48 168.52 C 196.22 168.14 198.84 170.80 201.02 172.17 C 199.40 175.62 197.64 178.89 196.61 182.59 C 195.91 184.65 195.73 186.56 193.91 188.00 C 192.69 189.53 190.42 189.01 189.13 187.86 C 187.41 185.01 189.26 180.71 189.97 177.71 C 190.29 180.45 190.59 183.19 190.98 185.92 C 191.76 185.63 192.53 185.35 193.31 185.06 C 194.13 182.29 194.76 179.48 195.54 176.70 C 196.02 174.86 197.52 173.72 198.18 171.92 L 197.96 172.02 C 194.72 174.67 191.21 174.27 187.47 175.39 C 185.62 175.99 186.13 177.36 185.78 178.90 C 185.04 184.38 184.33 189.75 184.51 195.29 C 187.43 196.53 190.76 198.22 193.97 198.30 C 196.83 198.02 199.70 196.18 202.05 194.60 C 202.93 194.00 203.81 193.41 204.68 192.81 C 203.43 194.59 202.42 196.31 200.48 197.46 C 197.06 199.53 192.82 199.46 188.96 199.66 C 190.98 201.20 193.00 202.75 194.99 204.34 C 193.53 204.31 192.09 204.14 190.65 203.94 C 189.63 203.48 188.61 203.01 187.59 202.54 C 185.31 201.47 182.93 200.68 180.53 199.91 C 180.61 195.12 179.10 189.52 182.52 185.67 C 181.44 185.95 180.36 186.23 179.27 186.48 C 179.52 182.99 179.71 179.57 178.88 176.13 C 178.72 174.10 177.84 172.30 179.75 170.85 C 183.80 166.85 188.52 168.90 193.48 168.52 Z" fill="#1d203a" />
<path d="M 177.24 170.93 C 177.81 172.65 178.39 174.37 178.88 176.13 C 179.71 179.57 179.52 182.99 179.27 186.48 C 177.33 181.41 177.31 176.26 177.24 170.93 Z" fill="#f5f1e2" />
<path d="M 96.89 172.00 C 100.96 171.78 104.95 172.05 109.01 172.35 C 107.06 174.23 105.02 176.29 102.72 177.73 C 101.03 178.88 98.71 178.79 96.72 179.01 C 96.25 177.49 95.77 175.98 95.28 174.46 C 95.81 173.64 96.35 172.82 96.89 172.00 Z" fill="#f6f3ee" />
<path d="M 149.19 172.09 C 152.41 173.62 155.43 175.68 158.43 177.61 C 156.39 177.37 154.18 176.89 152.13 177.13 C 149.92 177.58 147.80 178.66 145.71 179.51 L 145.99 178.51 C 146.55 175.90 147.30 174.01 149.19 172.09 Z" fill="#88613a" />
<path d="M 166.95 176.12 C 165.02 178.51 163.28 181.18 161.06 183.30 C 156.54 184.48 152.03 184.31 147.75 186.51 C 148.19 184.18 147.85 180.45 150.27 179.19 C 152.87 177.01 155.97 179.82 158.91 179.98 C 161.68 178.95 164.21 177.27 166.95 176.12 Z" fill="#2e212d" />
<path d="M 138.29 177.57 C 140.79 177.22 143.54 178.04 145.99 178.51 L 145.71 179.51 C 142.50 181.45 139.34 182.88 137.21 186.13 C 134.74 189.53 132.66 194.36 127.92 194.87 C 122.50 194.91 117.24 190.32 112.05 188.71 C 110.79 188.27 109.52 187.87 108.25 187.46 C 108.33 186.65 108.44 185.85 108.56 185.04 C 108.65 182.88 111.15 181.39 112.57 179.99 C 117.90 179.84 122.76 181.62 127.96 182.19 C 131.58 181.44 134.69 178.48 138.29 177.57 Z" fill="#c1a670" />
<path d="M 39.94 179.75 C 41.53 181.34 43.26 182.22 42.90 184.80 C 42.81 188.26 40.75 189.99 38.34 192.05 C 37.04 190.07 35.75 188.07 34.45 186.08 C 36.14 183.85 37.91 181.69 39.94 179.75 Z" fill="#363954" />
<path d="M 91.24 180.48 C 92.13 181.16 93.02 181.85 93.92 182.53 C 93.22 184.46 92.86 186.18 91.00 187.35 C 90.98 185.06 91.01 182.76 91.24 180.48 Z" fill="#6e6f82" />
<path d="M 217.49 183.38 C 216.23 185.51 214.82 187.52 213.20 189.39 C 212.39 188.63 211.57 187.87 210.74 187.12 C 212.87 185.49 214.97 184.32 217.49 183.38 Z" fill="#232233" />
<path d="M 80.66 186.82 C 81.70 188.19 82.01 190.18 82.58 191.78 C 81.20 192.61 79.86 193.50 78.49 194.34 C 78.35 190.61 78.54 188.23 75.25 185.92 C 77.12 185.70 79.11 185.53 80.66 186.82 Z" fill="#bf6a6b" />
<path d="M 173.26 184.25 C 172.93 185.48 172.58 186.71 172.23 187.93 C 173.63 188.10 175.03 188.28 176.43 188.46 C 176.35 193.57 170.98 196.35 167.99 200.06 C 165.41 199.32 162.68 197.97 160.02 197.76 C 158.39 198.06 156.96 198.96 155.63 199.90 C 154.51 198.50 153.32 197.14 152.24 195.71 C 150.57 193.97 151.23 191.05 151.19 188.84 C 151.54 189.47 151.89 190.11 152.23 190.75 C 154.65 191.45 157.22 192.70 159.75 192.75 C 164.25 192.40 168.50 191.49 170.90 187.28 C 171.65 186.24 172.44 185.24 173.26 184.25 Z" fill="#8c6141" />
<path d="M 75.25 185.92 C 78.54 188.23 78.35 190.61 78.49 194.34 C 76.44 195.56 74.24 196.44 72.01 197.26 C 68.81 195.95 65.90 194.93 63.94 191.88 C 67.86 190.13 71.51 187.98 75.25 185.92 Z" fill="#dc4c43" />
<path d="M 157.97 186.76 C 162.40 186.21 166.49 187.94 170.90 187.28 C 168.50 191.49 164.25 192.40 159.75 192.75 C 157.22 192.70 154.65 191.45 152.23 190.75 C 151.89 190.11 151.54 189.47 151.19 188.84 C 153.41 187.85 155.50 186.85 157.97 186.76 Z" fill="#272538" />
<path d="M 210.74 187.12 C 211.57 187.87 212.39 188.63 213.20 189.39 C 207.62 194.77 201.82 200.59 194.99 204.34 C 193.00 202.75 190.98 201.20 188.96 199.66 C 192.82 199.46 197.06 199.53 200.48 197.46 C 202.42 196.31 203.43 194.59 204.68 192.81 C 205.03 192.41 205.37 192.01 205.71 191.61 C 208.17 192.15 210.02 191.11 209.05 188.42 C 209.61 187.98 210.17 187.55 210.74 187.12 Z" fill="#6d737d" />
<path d="M 209.05 188.42 C 210.02 191.11 208.17 192.15 205.71 191.61 C 206.69 190.42 207.83 189.37 209.05 188.42 Z" fill="#323140" />
<path d="M 87.23 190.80 C 87.77 191.45 88.27 192.14 88.71 192.87 C 89.62 194.95 90.59 196.97 91.89 198.85 C 91.25 200.17 90.76 201.55 90.38 202.96 C 87.91 202.53 85.46 202.02 83.01 201.51 C 82.84 203.03 82.68 204.56 82.52 206.09 C 81.41 206.44 80.29 206.78 79.18 207.14 C 75.59 206.12 72.21 204.66 68.83 203.11 C 69.56 200.97 70.71 199.09 72.01 197.26 C 74.24 196.44 76.44 195.56 78.49 194.34 C 79.86 193.50 81.20 192.61 82.58 191.78 C 84.10 191.21 85.57 190.69 87.23 190.80 Z" fill="#9fa0ab" />
<path d="M 90.67 191.51 C 91.97 192.47 93.21 193.56 94.44 194.60 C 93.73 196.11 92.80 197.46 91.89 198.85 C 90.59 196.97 89.62 194.95 88.71 192.87 C 89.36 192.41 90.01 191.96 90.67 191.51 Z" fill="#73727c" />
<path d="M 55.18 191.63 C 57.13 195.95 58.54 200.62 59.98 205.14 C 57.42 203.73 55.38 201.74 54.39 198.95 C 54.30 196.51 54.75 194.02 55.18 191.63 Z" fill="#d8d9e6" />
<path d="M 175.49 197.00 C 173.72 199.20 171.70 201.11 169.47 202.83 C 164.01 206.10 158.52 210.17 153.92 214.57 C 149.19 219.31 144.18 223.74 139.20 228.21 C 136.42 230.84 131.21 229.83 127.77 229.40 C 127.06 227.32 126.39 225.21 125.74 223.11 C 126.89 222.50 128.05 221.91 129.21 221.30 C 130.48 220.63 131.74 219.93 132.95 219.14 C 134.73 217.89 136.46 216.57 138.19 215.25 C 143.18 211.41 146.99 206.43 152.24 202.81 C 153.38 201.85 154.49 200.86 155.63 199.90 C 156.96 198.96 158.39 198.06 160.02 197.76 C 162.68 197.97 165.41 199.32 167.99 200.06 C 170.63 199.29 172.96 198.03 175.49 197.00 Z" fill="#22243f" />
<path d="M 145.34 199.11 C 148.26 199.46 150.13 200.85 152.24 202.81 C 146.99 206.43 143.18 211.41 138.19 215.25 C 135.54 212.39 133.22 209.81 129.21 208.98 C 129.25 210.74 129.09 212.68 129.57 214.38 C 130.32 216.12 131.76 217.67 132.95 219.14 C 131.74 219.93 130.48 220.63 129.21 221.30 C 128.06 219.37 126.92 217.43 125.76 215.51 C 125.00 213.72 124.33 211.90 123.55 210.12 C 122.15 210.29 120.76 210.52 119.37 210.75 C 119.01 214.39 119.75 217.78 120.74 221.26 C 119.15 220.81 117.58 220.34 116.01 219.85 C 115.19 216.58 114.11 214.08 111.50 211.84 C 112.55 210.55 113.56 209.03 114.90 208.02 C 118.50 206.69 122.49 206.32 126.23 205.45 C 126.43 206.39 126.63 207.32 126.84 208.25 C 132.30 207.77 139.26 209.62 144.13 207.03 C 147.57 205.64 145.33 201.80 145.34 199.11 Z" fill="#eae7db" />
<path d="M 68.83 203.11 C 72.21 204.66 75.59 206.12 79.18 207.14 C 74.17 208.67 70.43 212.31 65.22 213.45 C 65.30 212.33 65.40 211.21 65.51 210.10 C 67.05 207.94 68.00 205.61 68.83 203.11 Z" fill="#dcd1be" />
<path d="M 169.47 202.83 C 173.31 203.36 177.24 204.37 181.12 204.52 C 183.47 204.66 185.49 203.44 187.59 202.54 C 188.61 203.01 189.63 203.48 190.65 203.94 C 183.82 206.10 177.34 209.43 170.12 207.25 C 171.10 208.29 172.08 209.34 173.06 210.39 C 168.71 214.96 163.88 218.22 158.20 220.92 C 156.78 218.80 155.35 216.68 153.92 214.57 C 158.52 210.17 164.01 206.10 169.47 202.83 Z" fill="#e7e6da" />
<path d="M 106.67 208.18 C 108.32 209.34 109.95 210.55 111.50 211.84 C 114.11 214.08 115.19 216.58 116.01 219.85 C 112.16 218.76 108.55 217.06 104.63 216.15 C 104.29 212.76 103.73 210.57 106.67 208.18 Z" fill="#8b8ea4" />
<path d="M 138.19 215.25 C 136.46 216.57 134.73 217.89 132.95 219.14 C 131.76 217.67 130.32 216.12 129.57 214.38 C 129.09 212.68 129.25 210.74 129.21 208.98 C 133.22 209.81 135.54 212.39 138.19 215.25 Z" fill="#8487a5" />
<path d="M 123.55 210.12 C 124.33 211.90 125.00 213.72 125.76 215.51 C 123.59 213.97 121.45 212.41 119.37 210.75 C 120.76 210.52 122.15 210.29 123.55 210.12 Z" fill="#b9b4be" />
<path d="M 119.37 210.75 C 121.45 212.41 123.59 213.97 125.76 215.51 C 126.92 217.43 128.06 219.37 129.21 221.30 C 128.05 221.91 126.89 222.50 125.74 223.11 C 126.39 225.21 127.06 227.32 127.77 229.40 L 126.29 229.13 C 125.83 226.98 125.63 224.56 124.68 222.57 C 123.39 222.02 122.08 221.65 120.74 221.26 C 119.75 217.78 119.01 214.39 119.37 210.75 Z" fill="#8b8ca2" />
<path d="M 99.19 215.36 C 100.32 214.32 102.27 215.56 101.44 217.00 C 100.30 218.04 98.36 216.80 99.19 215.36 Z" fill="#4f4d51" />
<path d="M 45.94 215.83 C 46.61 216.68 47.26 217.55 47.91 218.42 C 46.72 219.47 45.53 220.53 44.36 221.60 C 45.32 222.55 46.28 223.50 47.23 224.45 C 45.17 225.48 43.15 226.57 41.09 227.59 C 40.35 226.10 39.51 224.58 39.00 222.99 C 39.37 219.71 43.40 217.42 45.94 215.83 Z" fill="#787a87" />
<path d="M 104.63 216.15 C 108.55 217.06 112.16 218.76 116.01 219.85 C 117.58 220.34 119.15 220.81 120.74 221.26 C 122.08 221.65 123.39 222.02 124.68 222.57 C 125.63 224.56 125.83 226.98 126.29 229.13 C 121.52 228.46 117.80 224.72 113.33 222.66 C 109.98 220.77 106.37 220.11 102.70 219.16 C 103.33 218.15 103.96 217.14 104.63 216.15 Z" fill="#191737" />
</svg>