<?xml version="1.0" encoding="UTF-8" standalone="no"?>
<!DOCTYPE svg PUBLIC "-//W3C//DTD SVG 1.1//EN" "http://www.w3.org/Graphics/SVG/1.1/DTD/svg11.dtd">
<svg xmlns="http://www.w3.org/2000/svg" version="1.1" viewBox="0 0 256 256" width="256.0pt" height="256.0pt">
<path d="M 0.00 0.00 L 256.00 0.00 L 256.00 256.00 L 0.00 256.00 L 0.00 0.00 Z" fill="#fefefd" />
<path d="M 181.00 13.90 C 193.93 13.35 207.17 19.11 217.54 26.46 C 227.86 35.21 235.10 48.11 238.90 61.00 C 240.10 65.53 240.61 70.28 241.17 74.92 C 242.43 85.21 240.48 96.29 238.67 106.42 C 237.79 111.30 237.71 116.51 236.13 121.12 C 234.39 126.17 232.75 131.56 230.25 136.27 C 225.37 144.54 218.53 150.50 213.54 158.54 C 209.19 165.40 205.51 173.32 203.03 181.06 C 201.13 186.79 202.78 192.91 206.49 197.51 C 209.69 201.12 215.32 203.06 217.76 207.30 C 219.77 210.53 220.05 214.21 219.47 217.89 C 218.60 217.02 217.75 216.16 216.86 215.32 C 212.37 217.73 208.12 220.23 203.08 221.39 C 201.20 217.02 199.17 212.75 197.74 208.20 C 196.24 203.38 193.50 199.10 191.84 194.38 C 190.96 190.39 191.02 186.02 191.56 181.98 C 192.72 179.65 194.09 177.43 195.21 175.07 C 198.44 168.39 202.21 162.41 203.03 154.84 C 205.99 150.75 208.84 146.56 211.88 142.52 C 213.30 142.30 215.51 142.72 216.45 141.43 C 219.19 138.49 221.28 135.00 224.02 132.04 C 226.42 129.43 228.18 126.45 230.14 123.52 C 228.98 122.57 227.83 121.62 226.66 120.70 C 230.96 111.92 231.59 102.21 233.27 92.64 C 234.08 84.31 234.09 75.12 233.15 66.80 C 232.01 59.21 228.92 52.49 225.10 45.93 C 221.02 38.75 214.58 32.80 207.85 28.13 C 201.48 23.60 193.56 22.21 185.95 21.41 C 171.08 20.32 155.91 24.30 141.04 23.53 C 133.67 23.50 126.36 22.84 119.00 23.06 C 111.75 23.24 104.58 22.81 97.33 23.52 C 85.80 24.83 74.22 24.51 62.72 26.17 C 65.80 31.33 69.61 35.96 74.33 39.70 C 77.82 42.57 82.04 43.13 84.86 46.92 C 82.12 46.24 79.49 45.50 77.15 43.85 C 70.68 39.30 65.56 32.98 61.13 26.50 C 56.65 27.90 51.09 28.52 47.25 31.25 C 43.07 34.60 39.59 38.91 39.68 44.56 C 40.28 57.77 40.67 71.24 45.18 83.86 C 46.60 87.78 49.70 89.89 53.15 91.91 C 60.24 96.12 68.23 96.98 76.42 99.90 C 73.45 90.49 69.56 81.49 65.45 72.54 C 63.82 68.81 62.47 64.96 60.80 61.25 C 59.42 58.16 57.11 55.62 55.04 52.98 L 55.97 53.21 C 58.11 53.86 60.17 54.82 62.19 55.77 C 65.45 57.37 68.74 58.80 71.72 60.92 L 71.95 61.90 C 73.08 69.08 78.59 73.04 82.39 79.09 C 84.34 83.15 86.23 87.24 88.25 91.27 C 89.97 94.39 92.42 95.36 95.65 96.42 C 95.33 92.16 94.19 87.48 96.56 83.59 C 99.01 79.33 101.85 75.34 104.00 70.90 C 107.24 71.76 109.28 71.53 112.39 70.37 C 116.24 68.74 120.25 67.91 124.30 66.93 C 124.38 67.91 124.46 68.89 124.53 69.87 C 121.46 74.34 118.98 78.83 116.96 83.87 C 118.02 83.74 119.07 83.60 120.12 83.46 C 117.74 85.24 115.20 87.01 113.52 89.52 C 111.65 92.35 110.47 95.83 109.21 98.98 C 113.43 97.64 117.54 96.42 122.02 96.72 C 128.03 97.01 133.75 95.68 139.69 95.23 C 140.27 93.90 140.82 92.57 141.41 91.24 C 139.98 92.26 138.56 93.30 137.13 94.33 C 140.01 90.16 141.69 85.54 143.39 80.81 C 143.31 84.43 143.70 87.90 142.78 91.47 C 144.51 89.43 146.29 87.68 146.99 85.00 C 148.96 78.17 150.85 71.19 152.25 64.23 C 152.47 62.82 152.66 61.41 152.78 59.99 C 155.16 60.28 157.68 60.45 159.97 61.15 C 161.25 64.02 161.39 67.22 161.73 70.31 L 161.84 71.26 C 162.36 73.25 162.96 75.21 163.46 77.19 C 164.03 75.51 164.63 73.84 165.21 72.16 C 166.64 67.97 168.10 64.06 171.59 61.12 C 174.41 59.96 177.40 59.65 180.44 59.44 C 182.88 60.18 184.99 62.45 186.75 64.22 C 191.44 69.30 196.97 73.28 201.28 78.74 C 204.93 82.95 207.59 87.79 210.92 92.22 C 210.42 101.82 207.92 111.14 203.66 119.74 C 202.48 122.07 200.76 123.96 198.77 125.61 C 192.66 130.06 187.69 135.38 184.13 142.09 C 179.95 150.16 176.24 158.54 173.05 167.06 C 169.39 175.55 168.42 184.97 169.83 194.08 C 170.73 197.25 171.88 200.36 172.88 203.50 C 170.41 205.80 169.00 208.66 167.19 211.44 C 163.38 214.13 161.02 211.47 157.66 209.69 C 153.54 208.89 149.67 209.39 145.56 209.10 C 143.10 208.94 140.69 208.54 138.24 208.34 C 137.64 210.23 137.14 212.12 136.62 214.03 C 131.92 205.50 134.66 193.49 137.72 184.78 C 141.20 181.40 145.25 178.88 149.51 176.61 C 148.71 175.17 147.91 173.73 147.11 172.30 C 148.13 172.28 149.15 172.26 150.16 172.24 C 149.54 171.57 148.92 170.90 148.28 170.25 C 149.00 167.28 149.06 165.03 147.99 162.13 C 150.68 162.84 153.77 164.09 156.58 163.81 C 158.86 163.44 161.06 162.22 162.97 160.98 C 164.67 159.97 165.11 157.68 165.94 155.99 C 161.95 154.35 158.09 152.75 153.73 152.44 C 156.16 147.50 158.32 142.44 160.49 137.38 C 161.49 134.89 162.43 132.57 162.34 129.83 C 162.44 126.12 160.86 123.11 160.33 119.56 C 159.99 117.29 160.52 114.94 160.29 112.70 C 158.43 107.33 152.55 104.46 147.86 101.97 C 149.16 103.67 150.51 105.33 151.88 106.97 C 150.44 106.41 148.99 105.85 147.53 105.35 C 146.56 103.90 145.60 101.73 143.98 100.93 C 138.95 98.53 133.58 99.02 128.32 100.25 C 123.61 101.41 119.62 103.93 115.72 106.72 C 110.71 110.31 107.30 115.41 102.15 118.92 C 101.62 118.27 101.07 117.64 100.52 117.01 C 98.06 117.77 95.56 118.91 93.03 119.34 C 89.44 119.64 85.59 118.59 82.08 117.89 C 80.40 112.05 74.90 107.31 70.00 104.07 C 64.61 100.34 57.29 100.40 51.27 102.34 C 47.60 104.21 44.87 108.91 44.84 113.00 C 45.29 115.38 47.35 117.53 48.56 119.59 C 46.83 120.54 45.43 121.78 44.07 123.20 C 44.84 126.19 45.47 129.07 46.76 131.89 C 50.83 139.41 53.32 147.40 58.20 154.37 C 58.24 154.84 58.28 155.31 58.31 155.78 C 57.57 155.93 56.84 156.08 56.10 156.23 C 50.87 151.10 42.71 148.59 35.89 146.27 C 33.81 145.59 31.73 144.88 29.66 144.19 C 30.89 141.54 31.83 138.91 33.50 136.48 C 35.22 133.91 36.81 131.45 37.34 128.34 C 38.16 123.67 37.67 118.77 38.24 114.04 C 38.83 108.48 40.99 103.88 40.79 98.20 C 40.52 91.69 38.84 85.31 36.77 79.17 C 34.01 71.17 32.76 62.56 32.52 54.12 C 32.31 45.34 34.89 36.11 40.20 29.05 C 44.23 25.02 49.65 22.02 54.98 20.05 C 67.13 16.44 78.71 16.92 91.05 16.17 C 97.51 15.99 103.89 16.61 110.34 15.88 C 118.26 14.94 126.06 15.51 133.98 15.99 C 140.31 16.38 146.56 15.74 152.82 14.80 C 162.17 13.34 171.32 14.23 181.00 13.90 Z" fill="#f3f3f1" />
<path d="M 185.95 21.41 C 193.56 22.21 201.48 23.60 207.85 28.13 C 214.58 32.80 221.02 38.75 225.10 45.93 C 228.92 52.49 232.01 59.21 233.15 66.80 C 234.09 75.12 234.08 84.31 233.27 92.64 C 231.59 102.21 230.96 111.92 226.66 120.70 C 222.22 128.34 217.29 135.54 211.88 142.52 C 208.84 146.56 205.99 150.75 203.03 154.84 C 198.96 158.91 195.72 163.08 192.68 167.96 C 190.30 171.71 187.74 175.32 185.06 178.86 C 187.50 174.96 189.22 170.75 191.20 166.63 C 193.52 161.09 197.01 156.42 200.00 151.26 C 203.42 145.51 206.37 139.50 209.71 133.70 C 212.43 128.95 214.86 124.26 215.67 118.77 C 217.20 108.56 217.18 98.00 215.06 87.87 C 214.43 84.34 213.31 80.66 213.35 77.06 C 213.31 75.63 215.06 74.68 215.95 73.72 C 216.66 75.26 217.38 76.80 218.10 78.34 C 219.36 75.35 219.45 74.33 218.31 71.23 C 216.05 71.77 213.81 72.34 211.58 72.97 C 211.06 71.25 210.55 69.53 210.03 67.80 C 211.64 67.86 213.24 67.92 214.85 68.00 C 212.52 66.29 210.63 64.14 208.41 62.31 L 209.42 62.26 C 210.98 62.32 212.53 62.48 214.09 62.53 C 210.70 60.85 208.35 58.53 206.11 55.54 C 203.91 48.49 200.79 42.09 194.85 37.45 C 192.06 36.24 189.05 35.28 186.02 35.02 C 181.55 35.33 177.47 36.79 173.48 38.74 C 169.40 40.60 165.89 43.22 162.15 45.65 C 159.07 47.52 155.92 49.38 152.64 50.87 C 147.81 52.15 143.03 52.49 138.46 54.49 C 135.82 55.64 133.24 56.94 130.60 58.09 C 132.83 59.58 135.06 61.06 137.24 62.60 C 133.03 64.33 128.70 65.76 124.30 66.93 C 120.25 67.91 116.24 68.74 112.39 70.37 C 109.28 71.53 107.24 71.76 104.00 70.90 C 101.43 70.30 98.87 70.38 96.26 70.67 C 92.73 71.11 90.07 69.60 86.99 68.14 C 84.12 66.81 81.17 65.72 78.21 64.63 C 76.09 63.79 74.04 62.82 71.95 61.90 L 71.72 60.92 C 70.52 56.21 69.02 52.01 69.96 47.07 C 69.30 47.23 68.63 47.40 67.97 47.57 C 64.22 48.36 63.30 51.73 59.89 53.00 C 61.26 53.80 62.61 54.63 63.96 55.48 C 63.37 55.57 62.78 55.66 62.19 55.77 C 60.17 54.82 58.11 53.86 55.97 53.21 L 55.04 52.98 C 52.82 52.61 50.88 53.20 48.68 53.41 C 48.90 52.43 49.13 51.45 49.36 50.48 C 48.16 50.48 46.96 50.49 45.76 50.49 C 43.87 48.36 41.82 46.43 39.68 44.56 C 39.59 38.91 43.07 34.60 47.25 31.25 C 51.09 28.52 56.65 27.90 61.13 26.50 C 65.56 32.98 70.68 39.30 77.15 43.85 C 79.49 45.50 82.12 46.24 84.86 46.92 C 82.04 43.13 77.82 42.57 74.33 39.70 C 69.61 35.96 65.80 31.33 62.72 26.17 C 74.22 24.51 85.80 24.83 97.33 23.52 C 104.58 22.81 111.75 23.24 119.00 23.06 C 126.36 22.84 133.67 23.50 141.04 23.53 C 155.91 24.30 171.08 20.32 185.95 21.41 Z" fill="#222541" />
<path d="M 86.89 25.82 C 90.67 27.38 94.12 30.01 98.03 31.14 C 105.23 32.01 113.28 30.15 120.37 28.86 C 115.84 30.09 111.32 31.30 106.88 32.85 C 104.38 33.65 101.71 34.68 99.07 34.80 C 94.54 32.71 90.56 29.15 86.89 25.82 Z" fill="#f0e3c9" />
<path d="M 132.46 26.19 C 128.85 27.76 125.57 28.64 121.61 28.58 C 125.52 26.33 127.86 25.74 132.46 26.19 Z" fill="#87818d" />
<path d="M 171.24 27.01 C 165.80 30.06 160.62 32.09 154.52 33.45 C 159.75 29.84 165.03 28.09 171.24 27.01 Z" fill="#81818d" />
<path d="M 55.66 30.44 C 57.16 30.06 60.01 28.91 61.22 30.28 C 60.96 32.67 56.97 30.99 55.66 30.44 Z" fill="#a1a1b1" />
<path d="M 56.85 33.21 C 57.49 31.98 59.49 32.42 59.19 33.90 C 58.55 35.14 56.56 34.69 56.85 33.21 Z" fill="#8d8ea2" />
<path d="M 153.88 33.66 C 151.57 34.51 149.27 35.35 146.91 36.04 C 149.18 34.29 151.07 33.89 153.88 33.66 Z" fill="#5e5d72" />
<path d="M 186.02 35.02 C 186.67 37.91 187.73 41.02 187.72 43.98 C 187.50 48.03 185.35 51.95 184.96 56.03 C 184.78 58.08 184.92 60.20 185.00 62.26 C 187.98 58.16 190.97 54.16 194.80 50.80 C 196.59 49.30 197.49 47.45 198.30 45.31 C 200.08 49.44 203.07 52.35 206.11 55.54 C 208.35 58.53 210.70 60.85 214.09 62.53 C 212.53 62.48 210.98 62.32 209.42 62.26 L 208.41 62.31 C 207.92 62.42 207.43 62.54 206.94 62.65 C 209.15 69.12 208.09 75.72 210.93 81.93 C 212.83 86.13 213.35 90.40 213.24 94.96 C 212.46 94.06 211.68 93.15 210.92 92.22 C 207.59 87.79 204.93 82.95 201.28 78.74 C 196.97 73.28 191.44 69.30 186.75 64.22 C 184.99 62.45 182.88 60.18 180.44 59.44 C 177.40 59.65 174.41 59.96 171.59 61.12 C 173.29 59.44 176.21 57.50 177.10 55.27 C 177.06 49.75 174.86 44.05 173.48 38.74 C 177.47 36.79 181.55 35.33 186.02 35.02 Z" fill="#a0a0a4" />
<path d="M 186.02 35.02 C 189.05 35.28 192.06 36.24 194.85 37.45 C 195.76 40.18 196.99 42.76 198.30 45.31 C 197.49 47.45 196.59 49.30 194.80 50.80 C 190.97 54.16 187.98 58.16 185.00 62.26 C 184.92 60.20 184.78 58.08 184.96 56.03 C 185.35 51.95 187.50 48.03 187.72 43.98 C 187.73 41.02 186.67 37.91 186.02 35.02 Z" fill="#c7371a" />
<path d="M 59.93 37.50 C 61.65 37.73 63.32 38.47 64.99 38.96 L 63.75 38.93 C 61.75 41.24 56.59 40.04 53.97 39.43 C 55.87 38.70 57.89 37.73 59.93 37.50 Z" fill="#a8abb9" />
<path d="M 194.85 37.45 C 200.79 42.09 203.91 48.49 206.11 55.54 C 203.07 52.35 200.08 49.44 198.30 45.31 C 196.99 42.76 195.76 40.18 194.85 37.45 Z" fill="#f9fafd" />
<path d="M 173.48 38.74 C 174.86 44.05 177.06 49.75 177.10 55.27 C 176.21 57.50 173.29 59.44 171.59 61.12 C 168.10 64.06 166.64 67.97 165.21 72.16 C 164.09 71.85 162.97 71.55 161.84 71.26 L 161.73 70.31 C 160.95 62.01 162.15 53.90 162.15 45.65 C 165.89 43.22 169.40 40.60 173.48 38.74 Z" fill="#c93719" />
<path d="M 131.39 41.30 C 124.01 44.72 115.83 46.91 107.99 49.09 C 104.92 49.98 101.82 50.06 98.67 50.25 C 109.28 46.08 119.98 42.50 131.39 41.30 Z" fill="#ddd8c0" />
<path d="M 39.68 44.56 C 41.82 46.43 43.87 48.36 45.76 50.49 C 46.96 50.49 48.16 50.48 49.36 50.48 C 49.13 51.45 48.90 52.43 48.68 53.41 C 48.09 55.99 47.90 58.76 47.70 61.40 C 46.26 61.30 44.82 61.24 43.38 61.14 C 43.31 64.74 43.29 68.33 43.20 71.92 C 44.85 71.09 46.97 68.27 48.94 69.46 C 51.32 71.61 52.38 75.11 54.78 77.31 C 56.62 78.51 59.34 79.12 61.46 78.40 C 63.07 76.70 64.22 74.51 65.45 72.54 C 69.56 81.49 73.45 90.49 76.42 99.90 C 68.23 96.98 60.24 96.12 53.15 91.91 C 49.70 89.89 46.60 87.78 45.18 83.86 C 40.67 71.24 40.28 57.77 39.68 44.56 Z" fill="#ca3617" />
<path d="M 67.97 47.57 C 68.63 47.40 69.30 47.23 69.96 47.07 C 69.02 52.01 70.52 56.21 71.72 60.92 C 68.74 58.80 65.45 57.37 62.19 55.77 C 62.78 55.66 63.37 55.57 63.96 55.48 C 62.61 54.63 61.26 53.80 59.89 53.00 C 63.30 51.73 64.22 48.36 67.97 47.57 Z" fill="#97989e" />
<path d="M 162.15 45.65 C 162.15 53.90 160.95 62.01 161.73 70.31 C 161.39 67.22 161.25 64.02 159.97 61.15 C 157.68 60.45 155.16 60.28 152.78 59.99 C 152.89 56.93 152.76 53.93 152.64 50.87 C 155.92 49.38 159.07 47.52 162.15 45.65 Z" fill="#9f9da2" />
<path d="M 152.64 50.87 C 152.76 53.93 152.89 56.93 152.78 59.99 C 152.66 61.41 152.47 62.82 152.25 64.23 C 152.14 60.53 151.75 56.84 151.06 53.21 C 150.11 53.41 149.16 53.64 148.21 53.89 L 146.52 54.38 C 145.91 56.06 145.41 57.77 144.91 59.49 C 142.35 60.53 139.80 61.57 137.24 62.60 C 135.06 61.06 132.83 59.58 130.60 58.09 C 133.24 56.94 135.82 55.64 138.46 54.49 C 143.03 52.49 147.81 52.15 152.64 50.87 Z" fill="#b53018" />
<path d="M 48.68 53.41 C 50.88 53.20 52.82 52.61 55.04 52.98 C 57.11 55.62 59.42 58.16 60.80 61.25 C 62.47 64.96 63.82 68.81 65.45 72.54 C 64.22 74.51 63.07 76.70 61.46 78.40 C 59.34 79.12 56.62 78.51 54.78 77.31 C 52.38 75.11 51.32 71.61 48.94 69.46 C 46.97 68.27 44.85 71.09 43.20 71.92 C 43.29 68.33 43.31 64.74 43.38 61.14 C 44.82 61.24 46.26 61.30 47.70 61.40 C 47.90 58.76 48.09 55.99 48.68 53.41 Z" fill="#d76e55" />
<path d="M 151.06 53.21 C 151.75 56.84 152.14 60.53 152.25 64.23 C 150.85 71.19 148.96 78.17 146.99 85.00 C 146.29 87.68 144.51 89.43 142.78 91.47 C 143.70 87.90 143.31 84.43 143.39 80.81 C 141.69 85.54 140.01 90.16 137.13 94.33 C 138.56 93.30 139.98 92.26 141.41 91.24 C 140.82 92.57 140.27 93.90 139.69 95.23 C 133.75 95.68 128.03 97.01 122.02 96.72 C 117.54 96.42 113.43 97.64 109.21 98.98 C 110.47 95.83 111.65 92.35 113.52 89.52 C 115.20 87.01 117.74 85.24 120.12 83.46 C 119.07 83.60 118.02 83.74 116.96 83.87 C 118.98 78.83 121.46 74.34 124.53 69.87 C 124.67 71.50 124.75 73.13 124.83 74.77 C 127.08 73.96 129.38 73.62 131.75 73.39 C 131.92 75.43 132.12 77.48 132.32 79.52 C 137.66 78.26 142.21 76.68 147.13 74.26 C 145.92 70.95 144.99 67.52 144.26 64.09 C 145.42 61.83 147.75 60.13 149.19 58.04 C 149.03 56.63 148.58 55.25 148.21 53.89 C 149.16 53.64 150.11 53.41 151.06 53.21 Z" fill="#ca3516" />
<path d="M 146.52 54.38 L 148.21 53.89 C 148.58 55.25 149.03 56.63 149.19 58.04 C 147.75 60.13 145.42 61.83 144.26 64.09 C 144.99 67.52 145.92 70.95 147.13 74.26 C 142.21 76.68 137.66 78.26 132.32 79.52 C 132.12 77.48 131.92 75.43 131.75 73.39 C 129.38 73.62 127.08 73.96 124.83 74.77 C 124.75 73.13 124.67 71.50 124.53 69.87 C 124.46 68.89 124.38 67.91 124.30 66.93 C 128.70 65.76 133.03 64.33 137.24 62.60 C 139.80 61.57 142.35 60.53 144.91 59.49 C 145.41 57.77 145.91 56.06 146.52 54.38 Z" fill="#d86e54" />
<path d="M 140.63 54.58 C 141.58 55.11 142.52 55.65 143.46 56.20 C 141.31 59.36 139.74 60.38 136.15 61.67 C 135.97 60.20 135.44 58.86 134.56 57.66 C 136.69 56.80 138.67 55.76 140.63 54.58 Z" fill="#de6f5c" />
<path d="M 218.96 54.60 C 220.50 56.84 221.41 58.79 221.76 61.52 C 220.23 59.25 219.47 57.30 218.96 54.60 Z" fill="#969caf" />
<path d="M 71.95 61.90 C 74.04 62.82 76.09 63.79 78.21 64.63 C 79.28 69.52 80.62 74.40 82.39 79.09 C 78.59 73.04 73.08 69.08 71.95 61.90 Z" fill="#e39a8b" />
<path d="M 206.94 62.65 C 207.43 62.54 207.92 62.42 208.41 62.31 C 210.63 64.14 212.52 66.29 214.85 68.00 C 213.24 67.92 211.64 67.86 210.03 67.80 C 210.55 69.53 211.06 71.25 211.58 72.97 C 213.81 72.34 216.05 71.77 218.31 71.23 C 219.45 74.33 219.36 75.35 218.10 78.34 C 217.38 76.80 216.66 75.26 215.95 73.72 C 215.06 74.68 213.31 75.63 213.35 77.06 C 213.31 80.66 214.43 84.34 215.06 87.87 C 217.18 98.00 217.20 108.56 215.67 118.77 C 214.86 124.26 212.43 128.95 209.71 133.70 C 206.37 139.50 203.42 145.51 200.00 151.26 L 198.40 150.70 C 200.63 147.02 203.56 143.20 204.73 139.03 C 204.15 136.58 202.36 134.31 200.98 132.24 C 201.68 130.90 202.39 129.56 203.10 128.23 C 201.66 127.36 200.21 126.49 198.77 125.61 C 200.76 123.96 202.48 122.07 203.66 119.74 C 207.92 111.14 210.42 101.82 210.92 92.22 C 211.68 93.15 212.46 94.06 213.24 94.96 C 213.35 90.40 212.83 86.13 210.93 81.93 C 208.09 75.72 209.15 69.12 206.94 62.65 Z" fill="#c6b8a8" />
<path d="M 78.21 64.63 C 81.17 65.72 84.12 66.81 86.99 68.14 C 86.73 69.22 86.49 70.31 86.25 71.40 C 89.07 72.04 91.90 72.62 94.77 73.04 C 97.76 79.28 95.84 85.21 92.97 91.06 C 91.42 91.29 89.81 91.26 88.25 91.27 C 86.23 87.24 84.34 83.15 82.39 79.09 C 80.62 74.40 79.28 69.52 78.21 64.63 Z" fill="#cd3f21" />
<path d="M 86.99 68.14 C 90.07 69.60 92.73 71.11 96.26 70.67 C 95.75 71.45 95.25 72.24 94.77 73.04 C 91.90 72.62 89.07 72.04 86.25 71.40 C 86.49 70.31 86.73 69.22 86.99 68.14 Z" fill="#793834" />
<path d="M 96.26 70.67 C 98.87 70.38 101.43 70.30 104.00 70.90 C 101.85 75.34 99.01 79.33 96.56 83.59 C 94.19 87.48 95.33 92.16 95.65 96.42 C 92.42 95.36 89.97 94.39 88.25 91.27 C 89.81 91.26 91.42 91.29 92.97 91.06 C 95.84 85.21 97.76 79.28 94.77 73.04 C 95.25 72.24 95.75 71.45 96.26 70.67 Z" fill="#e29f8d" />
<path d="M 161.84 71.26 C 162.97 71.55 164.09 71.85 165.21 72.16 C 164.63 73.84 164.03 75.51 163.46 77.19 C 162.96 75.21 162.36 73.25 161.84 71.26 Z" fill="#d59d91" />
<path d="M 168.92 73.93 C 173.51 73.75 178.64 73.61 183.06 74.97 C 192.08 80.07 197.91 89.01 199.85 99.11 C 200.21 101.99 198.98 105.20 197.92 107.84 C 194.83 115.04 190.16 122.07 184.70 127.69 C 182.23 130.13 179.17 132.91 175.77 133.86 C 173.99 134.33 172.98 133.38 171.88 132.15 C 168.53 129.07 169.00 123.95 167.69 119.70 C 166.60 116.71 164.78 114.14 163.99 111.00 C 162.90 106.53 160.58 102.73 158.04 98.96 C 155.42 95.69 154.50 90.51 155.45 86.48 C 156.72 82.03 161.19 81.32 164.07 77.92 C 165.54 76.62 166.74 73.82 168.92 73.93 Z" fill="#fcfcfa" />
<path d="M 218.21 78.94 C 219.90 78.61 220.58 80.66 219.01 81.37 C 217.32 81.71 216.64 79.67 218.21 78.94 Z" fill="#6e6b88" />
<path d="M 143.98 100.93 C 145.60 101.73 146.56 103.90 147.53 105.35 C 146.17 105.02 144.81 104.76 143.44 104.52 C 138.90 106.79 134.36 107.12 131.82 111.92 C 128.02 111.91 124.56 111.88 121.56 114.54 C 116.79 118.17 116.52 123.24 112.82 127.79 C 109.06 131.97 108.85 136.94 106.68 142.26 C 105.20 145.84 104.97 149.32 102.26 151.91 C 98.65 154.16 94.94 156.13 90.83 157.30 C 87.89 158.06 84.86 158.55 81.88 159.11 C 81.13 158.79 80.38 158.48 79.64 158.16 C 73.95 153.58 71.37 147.37 68.99 140.68 C 69.12 138.17 69.20 135.67 69.26 133.16 C 69.23 127.18 71.85 122.43 73.86 117.02 C 73.45 115.43 72.38 114.96 70.93 114.55 C 68.17 113.72 65.19 113.42 62.32 113.25 C 59.39 115.91 56.44 119.08 54.76 122.71 C 53.40 125.63 53.29 128.79 53.27 131.96 C 53.85 138.80 56.40 145.72 58.07 152.35 C 58.11 153.02 58.16 153.70 58.20 154.37 C 53.32 147.40 50.83 139.41 46.76 131.89 C 47.36 127.87 48.68 123.67 48.56 119.59 C 47.35 117.53 45.29 115.38 44.84 113.00 C 44.87 108.91 47.60 104.21 51.27 102.34 C 57.29 100.40 64.61 100.34 70.00 104.07 C 74.90 107.31 80.40 112.05 82.08 117.89 C 83.00 121.01 84.61 123.48 86.63 125.97 C 91.73 123.52 97.29 121.79 102.15 118.92 C 107.30 115.41 110.71 110.31 115.72 106.72 C 119.62 103.93 123.61 101.41 128.32 100.25 C 133.58 99.02 138.95 98.53 143.98 100.93 Z" fill="#232540" />
<path d="M 221.12 99.78 C 222.33 98.90 224.13 100.67 223.16 101.85 C 221.94 102.71 220.18 100.99 221.12 99.78 Z" fill="#747387" />
<path d="M 147.86 101.97 C 152.55 104.46 158.43 107.33 160.29 112.70 C 160.52 114.94 159.99 117.29 160.33 119.56 C 160.86 123.11 162.44 126.12 162.34 129.83 C 162.43 132.57 161.49 134.89 160.49 137.38 C 158.32 142.44 156.16 147.50 153.73 152.44 C 151.75 152.62 149.78 152.99 147.85 153.49 C 148.62 150.46 149.44 147.45 150.45 144.49 C 151.92 140.34 153.18 136.36 152.45 131.89 C 151.58 126.05 149.61 118.93 145.18 114.76 C 141.64 112.22 136.03 112.31 131.82 111.92 C 134.36 107.12 138.90 106.79 143.44 104.52 C 144.81 104.76 146.17 105.02 147.53 105.35 C 148.99 105.85 150.44 106.41 151.88 106.97 C 150.51 105.33 149.16 103.67 147.86 101.97 Z" fill="#2f2c40" />
<path d="M 221.07 103.38 L 221.89 103.39 L 222.30 104.11 L 221.88 104.82 L 221.05 104.81 L 220.65 104.09 L 221.07 103.38 Z" fill="#9793ac" />
<path d="M 156.00 110.77 C 156.77 112.95 157.34 115.19 157.85 117.45 C 156.76 115.22 155.97 113.31 156.00 110.77 Z" fill="#6b6a82" />
<path d="M 131.82 111.92 C 136.03 112.31 141.64 112.22 145.18 114.76 C 149.61 118.93 151.58 126.05 152.45 131.89 C 153.18 136.36 151.92 140.34 150.45 144.49 C 148.65 140.42 148.06 136.25 147.46 131.91 C 147.33 128.80 144.07 127.53 141.79 126.14 C 138.62 124.70 135.57 122.85 132.01 124.01 C 127.90 125.20 123.03 126.78 120.09 130.06 C 117.73 132.76 116.51 136.71 115.18 140.02 C 114.74 141.12 114.35 142.24 114.02 143.38 C 113.49 143.65 112.97 143.93 112.45 144.20 C 111.70 145.35 111.08 146.59 110.40 147.79 C 109.11 150.27 107.75 152.71 106.37 155.14 C 105.66 154.56 104.95 154.00 104.21 153.46 C 103.51 154.46 102.84 155.49 102.21 156.54 C 102.27 154.99 102.26 153.46 102.26 151.91 C 104.97 149.32 105.20 145.84 106.68 142.26 C 108.85 136.94 109.06 131.97 112.82 127.79 C 116.52 123.24 116.79 118.17 121.56 114.54 C 124.56 111.88 128.02 111.91 131.82 111.92 Z" fill="#6b4f3d" />
<path d="M 62.32 113.25 C 65.19 113.42 68.17 113.72 70.93 114.55 C 72.38 114.96 73.45 115.43 73.86 117.02 C 71.85 122.43 69.23 127.18 69.26 133.16 C 68.94 131.53 68.54 129.92 68.04 128.34 C 66.81 126.83 65.50 125.38 64.17 123.96 C 60.64 126.27 57.26 128.84 53.93 131.43 L 53.27 131.96 C 53.29 128.79 53.40 125.63 54.76 122.71 C 56.44 119.08 59.39 115.91 62.32 113.25 Z" fill="#69513e" />
<path d="M 100.52 117.01 C 101.07 117.64 101.62 118.27 102.15 118.92 C 97.29 121.79 91.73 123.52 86.63 125.97 C 84.61 123.48 83.00 121.01 82.08 117.89 C 85.59 118.59 89.44 119.64 93.03 119.34 C 95.56 118.91 98.06 117.77 100.52 117.01 Z" fill="#7d808a" />
<path d="M 44.91 117.33 L 45.73 117.32 L 46.16 118.03 L 45.76 118.76 L 44.93 118.77 L 44.51 118.06 L 44.91 117.33 Z" fill="#353252" />
<path d="M 218.54 116.55 C 220.26 117.05 221.99 117.44 223.71 117.72 C 221.39 118.28 220.61 118.93 219.22 120.85 C 219.00 119.41 218.77 117.98 218.54 116.55 Z" fill="#d2c3c5" />
<path d="M 48.56 119.59 C 48.68 123.67 47.36 127.87 46.76 131.89 C 45.47 129.07 44.84 126.19 44.07 123.20 C 45.43 121.78 46.83 120.54 48.56 119.59 Z" fill="#565667" />
<path d="M 226.66 120.70 C 227.83 121.62 228.98 122.57 230.14 123.52 C 228.18 126.45 226.42 129.43 224.02 132.04 C 221.28 135.00 219.19 138.49 216.45 141.43 C 215.51 142.72 213.30 142.30 211.88 142.52 C 217.29 135.54 222.22 128.34 226.66 120.70 Z" fill="#d6c9b4" />
<path d="M 141.79 126.14 C 143.69 130.18 146.88 133.97 145.73 138.71 C 144.51 144.72 141.69 150.19 140.89 156.34 C 134.39 161.16 127.74 165.21 119.58 166.43 C 118.48 159.65 120.69 153.86 122.51 147.46 C 121.61 147.11 120.72 146.75 119.84 146.39 C 122.17 144.57 125.11 142.40 126.31 139.62 C 126.62 136.06 124.42 132.10 122.97 128.93 C 120.74 133.11 118.42 136.54 115.18 140.02 C 116.51 136.71 117.73 132.76 120.09 130.06 C 123.03 126.78 127.90 125.20 132.01 124.01 C 135.57 122.85 138.62 124.70 141.79 126.14 Z" fill="#dddcda" />
<path d="M 64.17 123.96 C 65.50 125.38 66.81 126.83 68.04 128.34 C 67.00 131.86 66.28 135.27 67.07 138.94 C 65.90 135.63 64.37 132.48 62.65 129.43 C 62.07 129.94 61.48 130.47 60.91 131.00 C 61.67 132.84 62.42 134.70 63.17 136.55 C 62.24 136.09 61.30 135.62 60.37 135.16 C 60.80 137.96 60.89 141.25 62.22 143.78 C 63.47 145.57 66.15 146.39 67.98 147.49 C 68.21 146.07 68.42 144.65 68.60 143.23 C 68.73 142.38 68.86 141.53 68.99 140.68 C 71.37 147.37 73.95 153.58 79.64 158.16 C 78.64 161.04 77.70 163.94 76.48 166.74 C 71.98 163.19 71.91 158.59 70.30 153.56 L 68.72 153.91 C 61.61 148.93 58.46 138.61 53.93 131.43 C 57.26 128.84 60.64 126.27 64.17 123.96 Z" fill="#a09fa6" />
<path d="M 219.34 124.16 C 220.19 123.89 220.74 124.15 220.98 124.95 C 221.19 126.46 218.83 127.95 218.22 126.07 C 218.21 125.22 218.59 124.59 219.34 124.16 Z" fill="#c6c1d0" />
<path d="M 141.79 126.14 C 144.07 127.53 147.33 128.80 147.46 131.91 C 148.06 136.25 148.65 140.42 150.45 144.49 C 149.44 147.45 148.62 150.46 147.85 153.49 C 145.46 154.24 143.13 155.20 140.89 156.34 C 141.69 150.19 144.51 144.72 145.73 138.71 C 146.88 133.97 143.69 130.18 141.79 126.14 Z" fill="#836c5a" />
<path d="M 198.77 125.61 C 200.21 126.49 201.66 127.36 203.10 128.23 C 202.39 129.56 201.68 130.90 200.98 132.24 C 202.36 134.31 204.15 136.58 204.73 139.03 C 203.56 143.20 200.63 147.02 198.40 150.70 L 200.00 151.26 C 197.01 156.42 193.52 161.09 191.20 166.63 C 190.37 165.35 189.51 164.08 188.67 162.81 C 186.80 164.51 184.88 165.97 182.74 167.32 C 180.74 166.19 178.78 164.98 176.76 163.87 L 176.39 163.69 C 175.20 164.73 174.09 165.87 173.05 167.06 C 176.24 158.54 179.95 150.16 184.13 142.09 C 187.69 135.38 192.66 130.06 198.77 125.61 Z" fill="#b0a9a5" />
<path d="M 215.57 127.44 C 216.99 126.57 218.96 129.14 217.87 130.34 C 216.43 131.24 214.47 128.64 215.57 127.44 Z" fill="#afb0ba" />
<path d="M 62.65 129.43 C 64.37 132.48 65.90 135.63 67.07 138.94 C 67.57 140.37 68.11 141.79 68.60 143.23 C 68.42 144.65 68.21 146.07 67.98 147.49 C 66.15 146.39 63.47 145.57 62.22 143.78 C 60.89 141.25 60.80 137.96 60.37 135.16 C 61.30 135.62 62.24 136.09 63.17 136.55 C 62.42 134.70 61.67 132.84 60.91 131.00 C 61.48 130.47 62.07 129.94 62.65 129.43 Z" fill="#22233f" />
<path d="M 68.04 128.34 C 68.54 129.92 68.94 131.53 69.26 133.16 C 69.20 135.67 69.12 138.17 68.99 140.68 C 68.86 141.53 68.73 142.38 68.60 143.23 C 68.11 141.79 67.57 140.37 67.07 138.94 C 66.28 135.27 67.00 131.86 68.04 128.34 Z" fill="#e6e4e8" />
<path d="M 122.97 128.93 C 124.42 132.10 126.62 136.06 126.31 139.62 C 125.11 142.40 122.17 144.57 119.84 146.39 C 117.75 147.12 115.67 147.86 113.64 148.74 C 113.75 146.95 113.86 145.17 114.02 143.38 C 114.35 142.24 114.74 141.12 115.18 140.02 C 118.42 136.54 120.74 133.11 122.97 128.93 Z" fill="#25233d" />
<path d="M 93.59 132.27 C 93.68 136.16 94.37 139.48 91.66 142.72 C 89.56 145.92 86.47 146.13 82.98 146.56 C 77.64 143.77 77.23 136.86 80.38 132.34 C 84.65 129.53 89.24 129.95 93.59 132.27 Z" fill="#aaa13e" />
<path d="M 53.27 131.96 L 53.93 131.43 C 58.46 138.61 61.61 148.93 68.72 153.91 C 67.68 155.92 66.22 158.39 66.32 160.71 C 66.73 163.31 69.10 165.59 70.97 167.29 C 69.42 169.74 68.11 172.25 66.76 174.82 L 65.98 174.54 C 64.66 164.72 63.52 155.23 58.99 146.24 C 58.65 148.27 58.33 150.31 58.07 152.35 C 56.40 145.72 53.85 138.80 53.27 131.96 Z" fill="#dee0dc" />
<path d="M 97.89 133.11 C 97.12 134.85 96.34 136.58 95.56 138.32 C 96.42 138.46 97.28 138.61 98.15 138.76 C 96.83 141.38 96.34 144.16 93.41 145.43 C 90.00 147.29 86.69 147.50 82.98 146.56 C 86.47 146.13 89.56 145.92 91.66 142.72 C 94.37 139.48 93.68 136.16 93.59 132.27 C 95.02 132.57 96.46 132.85 97.89 133.11 Z" fill="#635f37" />
<path d="M 210.18 139.13 L 210.91 138.74 L 211.62 139.16 L 211.60 139.99 L 210.88 140.39 L 210.17 139.96 L 210.18 139.13 Z" fill="#c6c8d2" />
<path d="M 112.45 144.20 C 112.97 143.93 113.49 143.65 114.02 143.38 C 113.86 145.17 113.75 146.95 113.64 148.74 C 115.67 147.86 117.75 147.12 119.84 146.39 C 120.72 146.75 121.61 147.11 122.51 147.46 C 120.69 153.86 118.48 159.65 119.58 166.43 L 118.64 166.46 L 117.84 166.46 C 116.74 166.45 115.63 166.43 114.52 166.41 C 114.58 163.56 114.03 160.92 113.19 158.22 C 113.54 157.11 114.01 156.06 114.39 154.96 C 113.09 152.55 111.79 150.14 110.40 147.79 C 111.08 146.59 111.70 145.35 112.45 144.20 Z" fill="#b2b1b4" />
<path d="M 35.89 146.27 C 42.71 148.59 50.87 151.10 56.10 156.23 C 58.97 158.91 60.50 162.27 62.28 165.69 C 60.61 164.87 58.94 164.04 57.31 163.13 C 53.10 160.98 49.87 157.29 45.64 155.31 C 41.40 154.39 36.49 155.86 32.20 156.27 C 30.72 152.14 28.38 150.40 24.77 148.18 C 28.48 146.70 31.83 145.80 35.89 146.27 Z" fill="#c83516" />
<path d="M 58.99 146.24 C 63.52 155.23 64.66 164.72 65.98 174.54 C 65.11 174.21 64.24 173.89 63.37 173.57 C 65.73 175.78 67.82 178.04 69.12 181.05 C 68.40 182.73 67.75 184.44 67.24 186.19 C 66.77 183.46 66.13 180.75 65.55 178.03 C 63.20 178.57 60.89 177.85 58.52 178.36 C 57.98 173.29 57.87 168.19 57.31 163.13 C 58.94 164.04 60.61 164.87 62.28 165.69 C 60.50 162.27 58.97 158.91 56.10 156.23 C 56.84 156.08 57.57 155.93 58.31 155.78 C 58.28 155.31 58.24 154.84 58.20 154.37 C 58.16 153.70 58.11 153.02 58.07 152.35 C 58.33 150.31 58.65 148.27 58.99 146.24 Z" fill="#715744" />
<path d="M 110.40 147.79 C 111.79 150.14 113.09 152.55 114.39 154.96 C 114.01 156.06 113.54 157.11 113.19 158.22 C 114.03 160.92 114.58 163.56 114.52 166.41 C 115.63 166.43 116.74 166.45 117.84 166.46 C 117.27 168.97 116.94 171.52 116.34 174.03 C 115.46 172.49 114.78 170.96 114.20 169.29 C 109.49 172.38 105.43 175.71 99.85 177.19 C 98.52 177.21 97.19 177.21 95.86 177.20 C 92.73 170.91 91.54 164.24 90.83 157.30 C 94.94 156.13 98.65 154.16 102.26 151.91 C 102.26 153.46 102.27 154.99 102.21 156.54 C 101.53 161.74 98.70 164.69 95.01 168.06 C 97.86 168.07 100.92 168.34 103.71 167.71 C 106.57 166.81 108.77 163.88 109.16 160.96 C 109.04 158.87 107.56 156.79 106.37 155.14 C 107.75 152.71 109.11 150.27 110.40 147.79 Z" fill="#a4a2a6" />
<path d="M 153.73 152.44 C 158.09 152.75 161.95 154.35 165.94 155.99 C 165.11 157.68 164.67 159.97 162.97 160.98 C 161.06 162.22 158.86 163.44 156.58 163.81 C 153.77 164.09 150.68 162.84 147.99 162.13 L 147.14 161.89 C 146.19 161.63 145.24 161.39 144.28 161.16 C 138.16 159.75 131.67 163.98 126.83 167.30 C 125.57 168.29 124.34 169.33 123.16 170.43 C 121.71 169.04 120.25 167.67 118.64 166.46 L 119.58 166.43 C 127.74 165.21 134.39 161.16 140.89 156.34 C 143.13 155.20 145.46 154.24 147.85 153.49 C 149.78 152.99 151.75 152.62 153.73 152.44 Z" fill="#c83317" />
<path d="M 70.30 153.56 C 71.91 158.59 71.98 163.19 76.48 166.74 C 76.24 167.33 76.01 167.92 75.79 168.51 C 74.18 168.10 72.57 167.70 70.97 167.29 C 69.10 165.59 66.73 163.31 66.32 160.71 C 66.22 158.39 67.68 155.92 68.72 153.91 L 70.30 153.56 Z" fill="#c63114" />
<path d="M 104.21 153.46 C 104.95 154.00 105.66 154.56 106.37 155.14 C 107.56 156.79 109.04 158.87 109.16 160.96 C 108.77 163.88 106.57 166.81 103.71 167.71 C 100.92 168.34 97.86 168.07 95.01 168.06 C 98.70 164.69 101.53 161.74 102.21 156.54 C 102.84 155.49 103.51 154.46 104.21 153.46 Z" fill="#c23a21" />
<path d="M 45.64 155.31 C 49.87 157.29 53.10 160.98 57.31 163.13 C 57.87 168.19 57.98 173.29 58.52 178.36 C 60.89 177.85 63.20 178.57 65.55 178.03 C 66.13 180.75 66.77 183.46 67.24 186.19 C 67.45 189.18 67.53 192.17 67.65 195.16 C 69.24 194.28 70.79 193.53 71.95 192.09 C 71.86 197.97 72.92 203.64 74.05 209.37 C 72.09 209.81 70.14 210.27 68.18 210.73 C 67.44 212.57 66.72 214.42 66.16 216.32 C 65.31 215.99 64.46 215.67 63.61 215.36 C 59.59 214.52 55.62 214.16 51.54 213.84 C 56.27 213.45 61.84 214.47 65.80 211.76 C 61.81 211.39 57.94 210.87 54.12 209.62 C 49.85 208.10 45.86 210.22 41.27 210.66 C 38.87 210.80 37.52 212.31 35.62 213.54 C 33.21 214.52 30.76 215.42 28.39 216.49 C 29.46 215.48 30.57 214.54 31.69 213.61 C 30.53 213.26 29.36 212.91 28.20 212.55 C 30.01 210.69 31.94 208.60 34.18 207.28 C 39.78 204.04 47.46 203.43 52.75 199.71 C 55.89 197.47 57.51 194.05 56.86 190.17 C 55.91 184.15 53.06 178.33 49.65 173.33 C 46.48 168.66 42.08 165.65 38.26 161.66 C 36.99 160.48 37.00 158.63 36.67 157.03 C 35.39 157.19 34.09 157.36 32.80 157.46 L 32.20 156.27 C 36.49 155.86 41.40 154.39 45.64 155.31 Z" fill="#f3f2f0" />
<path d="M 203.03 154.84 C 202.21 162.41 198.44 168.39 195.21 175.07 C 195.58 172.90 195.84 170.70 196.15 168.52 C 194.99 168.33 193.84 168.15 192.68 167.96 C 195.72 163.08 198.96 158.91 203.03 154.84 Z" fill="#bcb9ab" />
<path d="M 90.83 157.30 C 91.54 164.24 92.73 170.91 95.86 177.20 C 92.53 177.25 91.01 176.57 88.49 174.51 C 86.23 172.53 83.71 171.91 80.74 171.87 C 78.97 173.67 77.27 175.52 75.41 177.23 C 76.99 170.87 80.87 165.68 81.88 159.11 C 84.86 158.55 87.89 158.06 90.83 157.30 Z" fill="#6b503f" />
<path d="M 79.64 158.16 C 80.38 158.48 81.13 158.79 81.88 159.11 C 80.87 165.68 76.99 170.87 75.41 177.23 C 74.76 177.81 74.09 178.38 73.42 178.94 C 75.31 179.77 77.18 180.66 79.09 181.45 C 76.29 186.41 75.60 192.17 76.45 197.74 C 76.81 199.99 79.61 201.64 81.16 203.11 C 80.69 203.63 80.23 204.15 79.79 204.68 C 78.79 208.58 80.04 211.82 80.84 215.61 C 79.80 214.74 78.41 214.25 77.45 213.33 C 76.37 210.53 76.82 207.04 76.32 204.09 C 75.92 202.82 75.08 201.71 74.65 200.43 C 74.82 203.31 75.02 206.18 75.49 209.04 C 75.01 209.15 74.53 209.26 74.05 209.37 C 72.92 203.64 71.86 197.97 71.95 192.09 C 71.91 188.94 71.81 185.76 71.44 182.63 C 70.68 182.08 69.91 181.56 69.12 181.05 C 67.82 178.04 65.73 175.78 63.37 173.57 C 64.24 173.89 65.11 174.21 65.98 174.54 L 66.76 174.82 C 69.05 175.11 71.98 176.01 73.67 173.88 C 74.54 172.18 75.11 170.30 75.79 168.51 C 76.01 167.92 76.24 167.33 76.48 166.74 C 77.70 163.94 78.64 161.04 79.64 158.16 Z" fill="#98807a" />
<path d="M 144.28 161.16 C 142.78 164.49 141.37 167.86 140.16 171.31 C 139.61 169.90 139.07 168.50 138.50 167.11 C 132.14 168.43 130.13 176.25 129.16 181.74 C 129.04 182.41 128.91 183.07 128.79 183.73 C 127.85 181.93 126.57 179.80 126.43 177.72 C 127.07 175.91 128.37 174.24 129.56 172.73 C 128.32 172.45 127.51 172.76 126.37 173.18 C 126.16 172.58 125.96 171.99 125.75 171.40 C 126.10 170.03 126.46 168.66 126.83 167.30 C 131.67 163.98 138.16 159.75 144.28 161.16 Z" fill="#cbcac5" />
<path d="M 144.28 161.16 C 145.24 161.39 146.19 161.63 147.14 161.89 C 146.27 163.72 145.49 165.58 144.61 167.40 C 141.51 172.96 139.48 178.70 137.72 184.78 C 134.66 193.49 131.92 205.50 136.62 214.03 C 138.04 215.37 139.57 216.61 141.15 217.76 C 140.14 218.99 139.10 220.20 138.01 221.36 C 136.78 221.18 135.55 221.00 134.32 220.82 C 133.51 219.47 132.71 218.12 131.91 216.76 C 132.53 216.77 133.15 216.79 133.77 216.80 C 132.65 214.65 131.11 212.48 130.97 210.04 C 130.60 206.43 130.77 202.73 130.63 199.10 C 130.01 200.13 129.40 201.18 128.84 202.25 C 129.41 199.13 130.16 196.09 131.25 193.11 C 134.50 185.94 137.70 178.81 140.16 171.31 C 141.37 167.86 142.78 164.49 144.28 161.16 Z" fill="#24253d" />
<path d="M 147.14 161.89 L 147.99 162.13 C 149.06 165.03 149.00 167.28 148.28 170.25 C 147.09 169.25 145.86 168.31 144.61 167.40 C 145.49 165.58 146.27 163.72 147.14 161.89 Z" fill="#a8a6a4" />
<path d="M 176.39 163.69 L 176.76 163.87 C 178.78 164.98 180.74 166.19 182.74 167.32 C 184.88 165.97 186.80 164.51 188.67 162.81 C 189.51 164.08 190.37 165.35 191.20 166.63 C 189.22 170.75 187.50 174.96 185.06 178.86 C 187.74 175.32 190.30 171.71 192.68 167.96 C 193.84 168.15 194.99 168.33 196.15 168.52 C 195.84 170.70 195.58 172.90 195.21 175.07 C 194.09 177.43 192.72 179.65 191.56 181.98 C 190.70 181.33 189.83 180.70 188.95 180.07 C 187.42 183.58 186.05 187.16 184.68 190.73 C 183.96 189.81 183.24 188.89 182.51 187.97 C 182.45 189.31 182.40 190.65 182.39 191.99 C 181.45 190.58 180.45 189.21 179.42 187.86 C 176.36 190.25 174.53 193.42 172.49 196.66 C 171.61 195.80 170.72 194.94 169.83 194.08 C 168.42 184.97 169.39 175.55 173.05 167.06 C 174.09 165.87 175.20 164.73 176.39 163.69 Z" fill="#9c9ca1" />
<path d="M 117.84 166.46 L 118.64 166.46 C 120.25 167.67 121.71 169.04 123.16 170.43 C 118.80 176.60 115.89 184.11 112.95 191.05 C 113.16 188.45 113.22 185.85 113.33 183.25 C 114.23 180.15 115.63 177.17 116.34 174.03 C 116.94 171.52 117.27 168.97 117.84 166.46 Z" fill="#cbb9aa" />
<path d="M 70.97 167.29 C 72.57 167.70 74.18 168.10 75.79 168.51 C 75.11 170.30 74.54 172.18 73.67 173.88 C 71.98 176.01 69.05 175.11 66.76 174.82 C 68.11 172.25 69.42 169.74 70.97 167.29 Z" fill="#9b9da5" />
<path d="M 138.50 167.11 C 139.07 168.50 139.61 169.90 140.16 171.31 C 137.70 178.81 134.50 185.94 131.25 193.11 C 130.83 189.24 129.84 185.56 129.16 181.74 C 130.13 176.25 132.14 168.43 138.50 167.11 Z" fill="#80695b" />
<path d="M 126.83 167.30 C 126.46 168.66 126.10 170.03 125.75 171.40 C 125.96 171.99 126.16 172.58 126.37 173.18 C 127.51 172.76 128.32 172.45 129.56 172.73 C 128.37 174.24 127.07 175.91 126.43 177.72 C 126.57 179.80 127.85 181.93 128.79 183.73 C 128.91 183.07 129.04 182.41 129.16 181.74 C 129.84 185.56 130.83 189.24 131.25 193.11 C 130.16 196.09 129.41 199.13 128.84 202.25 C 128.00 207.66 125.86 212.31 123.19 217.03 C 122.89 216.71 122.58 216.39 122.29 216.07 C 121.62 216.44 120.96 216.81 120.29 217.18 C 118.21 216.13 116.02 215.34 113.96 214.26 C 113.35 214.89 112.74 215.53 112.13 216.16 L 111.02 214.88 C 109.04 212.63 107.26 210.25 105.61 207.75 C 105.92 205.89 106.32 204.05 106.76 202.22 C 108.92 198.47 111.38 195.13 112.95 191.05 C 115.89 184.11 118.80 176.60 123.16 170.43 C 124.34 169.33 125.57 168.29 126.83 167.30 Z" fill="#9e9ea3" />
<path d="M 144.61 167.40 C 145.86 168.31 147.09 169.25 148.28 170.25 C 148.92 170.90 149.54 171.57 150.16 172.24 C 149.15 172.26 148.13 172.28 147.11 172.30 C 147.91 173.73 148.71 175.17 149.51 176.61 C 145.25 178.88 141.20 181.40 137.72 184.78 C 139.48 178.70 141.51 172.96 144.61 167.40 Z" fill="#867463" />
<path d="M 114.20 169.29 C 114.78 170.96 115.46 172.49 116.34 174.03 C 115.63 177.17 114.23 180.15 113.33 183.25 C 111.82 181.01 110.14 178.85 108.48 176.72 C 107.12 185.21 107.61 193.69 106.76 202.22 C 106.32 204.05 105.92 205.89 105.61 207.75 C 105.51 208.42 105.41 209.09 105.31 209.75 C 104.49 209.30 103.67 208.85 102.85 208.40 C 102.13 211.06 101.35 213.71 100.54 216.35 C 100.10 213.50 99.87 210.77 98.60 208.13 C 98.04 206.99 98.04 205.84 98.01 204.61 C 97.70 206.07 97.28 207.49 96.76 208.85 C 96.00 207.33 95.21 205.84 94.45 204.32 C 95.21 202.15 96.10 200.03 96.79 197.84 C 97.86 197.57 98.94 197.31 100.01 197.06 C 99.91 193.55 100.46 189.42 98.67 186.30 C 97.58 184.08 95.50 183.34 93.43 182.27 C 92.29 182.20 91.15 182.17 90.02 182.17 C 94.89 181.20 99.00 179.72 103.30 177.27 C 102.15 177.23 101.00 177.21 99.85 177.19 C 105.43 175.71 109.49 172.38 114.20 169.29 Z" fill="#9b7d74" />
<path d="M 80.74 171.87 C 83.71 171.91 86.23 172.53 88.49 174.51 C 91.01 176.57 92.53 177.25 95.86 177.20 C 97.19 177.21 98.52 177.21 99.85 177.19 C 101.00 177.21 102.15 177.23 103.30 177.27 C 99.00 179.72 94.89 181.20 90.02 182.17 C 88.01 182.50 86.01 182.83 83.99 183.10 C 82.33 182.63 80.71 182.05 79.09 181.45 C 77.18 180.66 75.31 179.77 73.42 178.94 C 74.09 178.38 74.76 177.81 75.41 177.23 C 77.27 175.52 78.97 173.67 80.74 171.87 Z" fill="#25263e" />
<path d="M 108.48 176.72 C 110.14 178.85 111.82 181.01 113.33 183.25 C 113.22 185.85 113.16 188.45 112.95 191.05 C 111.38 195.13 108.92 198.47 106.76 202.22 C 107.61 193.69 107.12 185.21 108.48 176.72 Z" fill="#bd4024" />
<path d="M 188.95 180.07 C 189.83 180.70 190.70 181.33 191.56 181.98 C 191.02 186.02 190.96 190.39 191.84 194.38 C 193.50 199.10 196.24 203.38 197.74 208.20 C 199.17 212.75 201.20 217.02 203.08 221.39 C 203.24 221.95 203.40 222.50 203.55 223.06 C 203.86 224.18 203.83 225.25 203.68 226.39 C 205.06 227.27 206.42 228.16 207.77 229.08 C 207.41 230.21 207.05 231.35 206.69 232.48 C 205.10 231.72 203.28 231.19 201.86 230.14 C 200.20 228.33 199.12 225.87 198.08 223.67 C 196.65 220.49 195.70 217.44 193.04 215.01 C 190.08 212.29 187.60 209.50 185.81 205.86 C 186.17 209.01 186.55 211.86 185.01 214.79 C 183.39 207.62 183.35 200.16 182.43 192.85 L 182.39 191.99 C 182.40 190.65 182.45 189.31 182.51 187.97 C 183.24 188.89 183.96 189.81 184.68 190.73 C 186.05 187.16 187.42 183.58 188.95 180.07 Z" fill="#23233f" />
<path d="M 69.12 181.05 C 69.91 181.56 70.68 182.08 71.44 182.63 C 71.81 185.76 71.91 188.94 71.95 192.09 C 70.79 193.53 69.24 194.28 67.65 195.16 C 67.53 192.17 67.45 189.18 67.24 186.19 C 67.75 184.44 68.40 182.73 69.12 181.05 Z" fill="#ab4628" />
<path d="M 79.09 181.45 C 80.71 182.05 82.33 182.63 83.99 183.10 L 82.45 183.37 L 82.32 184.07 C 81.23 189.16 80.82 192.98 82.57 198.00 C 82.84 199.98 82.42 201.75 81.79 203.63 L 81.16 203.11 C 79.61 201.64 76.81 199.99 76.45 197.74 C 75.60 192.17 76.29 186.41 79.09 181.45 Z" fill="#bd3f2b" />
<path d="M 90.02 182.17 C 91.15 182.17 92.29 182.20 93.43 182.27 C 93.06 187.40 92.47 192.55 92.44 197.70 C 92.41 199.94 93.56 202.29 94.45 204.32 C 95.21 205.84 96.00 207.33 96.76 208.85 C 97.28 207.49 97.70 206.07 98.01 204.61 C 98.04 205.84 98.04 206.99 98.60 208.13 C 99.87 210.77 100.10 213.50 100.54 216.35 C 101.35 213.71 102.13 211.06 102.85 208.40 C 103.67 208.85 104.49 209.30 105.31 209.75 C 105.41 209.09 105.51 208.42 105.61 207.75 C 107.26 210.25 109.04 212.63 111.02 214.88 C 104.19 217.39 99.36 222.24 94.78 227.69 C 91.21 227.14 87.64 226.62 84.05 226.20 C 87.71 227.26 91.40 228.25 95.08 229.25 C 94.50 230.52 93.97 231.82 93.40 233.09 C 88.74 233.13 85.89 232.41 81.84 230.08 C 80.52 224.46 78.04 219.40 75.33 214.33 C 74.62 214.43 73.91 214.54 73.20 214.66 C 71.62 214.94 69.90 215.11 68.41 215.75 C 67.28 216.92 66.45 218.46 65.61 219.85 C 64.97 218.35 64.29 216.85 63.61 215.36 C 64.46 215.67 65.31 215.99 66.16 216.32 C 66.72 214.42 67.44 212.57 68.18 210.73 C 70.14 210.27 72.09 209.81 74.05 209.37 C 74.53 209.26 75.01 209.15 75.49 209.04 C 75.02 206.18 74.82 203.31 74.65 200.43 C 75.08 201.71 75.92 202.82 76.32 204.09 C 76.82 207.04 76.37 210.53 77.45 213.33 C 78.41 214.25 79.80 214.74 80.84 215.61 C 80.04 211.82 78.79 208.58 79.79 204.68 C 80.93 207.39 81.83 210.25 83.18 212.86 C 84.35 215.15 86.75 216.87 88.70 218.48 C 85.92 213.69 83.36 208.99 81.79 203.63 C 82.42 201.75 82.84 199.98 82.57 198.00 C 83.29 196.33 84.44 194.44 84.24 192.58 C 83.94 189.71 82.99 186.88 82.32 184.07 L 82.45 183.37 L 83.99 183.10 C 86.01 182.83 88.01 182.50 90.02 182.17 Z" fill="#dac5ac" />
<path d="M 93.43 182.27 C 95.50 183.34 97.58 184.08 98.67 186.30 C 100.46 189.42 99.91 193.55 100.01 197.06 C 98.94 197.31 97.86 197.57 96.79 197.84 C 96.10 200.03 95.21 202.15 94.45 204.32 C 93.56 202.29 92.41 199.94 92.44 197.70 C 92.47 192.55 93.06 187.40 93.43 182.27 Z" fill="#c4381a" />
<path d="M 82.32 184.07 C 82.99 186.88 83.94 189.71 84.24 192.58 C 84.44 194.44 83.29 196.33 82.57 198.00 C 80.82 192.98 81.23 189.16 82.32 184.07 Z" fill="#988d81" />
<path d="M 179.42 187.86 C 180.45 189.21 181.45 190.58 182.39 191.99 L 182.43 192.85 C 182.72 197.35 181.55 201.35 179.81 205.44 C 177.51 204.76 175.18 204.20 172.88 203.50 C 171.88 200.36 170.73 197.25 169.83 194.08 C 170.72 194.94 171.61 195.80 172.49 196.66 C 174.53 193.42 176.36 190.25 179.42 187.86 Z" fill="#bfbebe" />
<path d="M 182.43 192.85 C 183.35 200.16 183.39 207.62 185.01 214.79 C 183.81 215.82 182.57 216.78 181.32 217.74 C 182.77 218.21 183.80 219.23 185.08 220.00 C 187.38 220.20 189.80 219.78 192.08 219.51 C 191.88 221.27 191.63 223.05 191.30 224.80 C 185.25 225.38 179.17 227.15 173.11 227.11 C 171.12 227.19 170.02 224.69 168.82 223.39 C 166.78 226.24 165.63 227.49 162.05 228.26 C 163.22 226.95 164.42 225.66 165.60 224.36 C 164.39 224.57 163.18 224.80 161.97 225.04 C 164.78 223.95 166.81 221.99 169.10 220.12 C 165.40 221.32 161.97 222.64 158.07 223.01 C 153.86 223.37 149.60 223.17 145.37 223.23 C 144.94 224.00 144.50 224.77 144.07 225.54 C 148.49 225.55 152.88 225.90 157.29 226.12 C 154.42 227.17 151.87 228.41 148.78 228.73 C 143.31 229.24 137.47 228.40 131.96 228.39 C 131.43 226.65 130.89 224.91 130.35 223.18 C 126.60 222.70 122.94 221.70 119.20 221.26 L 118.81 222.16 C 117.80 220.77 116.78 219.38 115.77 217.98 C 114.69 219.21 113.61 220.44 112.52 221.67 C 112.05 221.47 111.59 221.26 111.13 221.03 C 111.57 219.41 111.97 217.83 112.13 216.16 C 112.74 215.53 113.35 214.89 113.96 214.26 C 116.02 215.34 118.21 216.13 120.29 217.18 C 120.96 216.81 121.62 216.44 122.29 216.07 C 122.58 216.39 122.89 216.71 123.19 217.03 C 125.15 218.90 127.43 221.25 130.07 222.05 C 132.65 222.87 135.51 222.18 138.01 221.36 C 139.10 220.20 140.14 218.99 141.15 217.76 C 145.77 217.83 151.10 218.00 155.41 216.19 C 157.29 215.42 156.75 212.46 156.98 210.82 C 157.20 210.45 157.43 210.07 157.66 209.69 C 161.02 211.47 163.38 214.13 167.19 211.44 C 169.00 208.66 170.41 205.80 172.88 203.50 C 175.18 204.20 177.51 204.76 179.81 205.44 C 181.55 201.35 182.72 197.35 182.43 192.85 Z" fill="#bcac9c" />
<path d="M 130.63 199.10 C 130.77 202.73 130.60 206.43 130.97 210.04 C 131.11 212.48 132.65 214.65 133.77 216.80 C 133.15 216.79 132.53 216.77 131.91 216.76 C 132.71 218.12 133.51 219.47 134.32 220.82 C 135.55 221.00 136.78 221.18 138.01 221.36 C 135.51 222.18 132.65 222.87 130.07 222.05 C 127.43 221.25 125.15 218.90 123.19 217.03 C 125.86 212.31 128.00 207.66 128.84 202.25 C 129.40 201.18 130.01 200.13 130.63 199.10 Z" fill="#43465b" />
<path d="M 81.16 203.11 L 81.79 203.63 C 83.36 208.99 85.92 213.69 88.70 218.48 C 86.75 216.87 84.35 215.15 83.18 212.86 C 81.83 210.25 80.93 207.39 79.79 204.68 C 80.23 204.15 80.69 203.63 81.16 203.11 Z" fill="#3e3234" />
<path d="M 185.81 205.86 C 187.60 209.50 190.08 212.29 193.04 215.01 C 195.70 217.44 196.65 220.49 198.08 223.67 C 195.82 224.06 193.57 224.47 191.30 224.80 C 191.63 223.05 191.88 221.27 192.08 219.51 C 189.80 219.78 187.38 220.20 185.08 220.00 C 183.80 219.23 182.77 218.21 181.32 217.74 C 182.57 216.78 183.81 215.82 185.01 214.79 C 186.55 211.86 186.17 209.01 185.81 205.86 Z" fill="#ded9c9" />
<path d="M 54.12 209.62 C 51.03 210.30 47.59 211.11 44.94 212.91 C 42.45 214.88 40.83 218.23 39.48 221.04 C 38.18 220.12 36.89 219.19 35.60 218.27 C 37.61 217.09 39.59 215.89 41.60 214.73 C 39.61 214.32 37.61 213.89 35.62 213.54 C 37.52 212.31 38.87 210.80 41.27 210.66 C 45.86 210.22 49.85 208.10 54.12 209.62 Z" fill="#bcae9c" />
<path d="M 138.24 208.34 C 140.69 208.54 143.10 208.94 145.56 209.10 C 149.67 209.39 153.54 208.89 157.66 209.69 C 157.43 210.07 157.20 210.45 156.98 210.82 C 156.75 212.46 157.29 215.42 155.41 216.19 C 151.10 218.00 145.77 217.83 141.15 217.76 C 139.57 216.61 138.04 215.37 136.62 214.03 C 137.14 212.12 137.64 210.23 138.24 208.34 Z" fill="#e3dfd8" />
<path d="M 54.12 209.62 C 57.94 210.87 61.81 211.39 65.80 211.76 C 61.84 214.47 56.27 213.45 51.54 213.84 C 55.62 214.16 59.59 214.52 63.61 215.36 C 64.29 216.85 64.97 218.35 65.61 219.85 C 66.45 218.46 67.28 216.92 68.41 215.75 C 69.90 215.11 71.62 214.94 73.20 214.66 C 73.76 217.86 73.07 220.66 72.40 223.75 C 70.59 224.64 68.43 225.53 66.97 226.96 C 64.97 228.97 63.55 231.64 61.52 233.62 C 59.97 233.71 58.51 233.45 56.97 233.28 C 58.42 228.97 59.84 224.67 61.70 220.50 C 58.05 220.12 54.48 219.59 50.79 219.62 C 49.40 220.25 48.10 221.04 46.85 221.92 C 45.32 224.85 44.24 228.64 41.84 230.96 C 39.64 232.69 38.01 231.35 35.82 230.49 C 36.62 228.47 37.39 226.44 38.15 224.40 C 38.58 223.28 39.01 222.15 39.48 221.04 C 40.83 218.23 42.45 214.88 44.94 212.91 C 47.59 211.11 51.03 210.30 54.12 209.62 Z" fill="#23233d" />
<path d="M 35.62 213.54 C 37.61 213.89 39.61 214.32 41.60 214.73 C 39.59 215.89 37.61 217.09 35.60 218.27 C 36.89 219.19 38.18 220.12 39.48 221.04 C 39.01 222.15 38.58 223.28 38.15 224.40 C 35.35 223.53 32.54 222.68 29.71 221.89 C 29.41 220.57 26.60 217.38 28.39 216.49 C 30.76 215.42 33.21 214.52 35.62 213.54 Z" fill="#947760" />
<path d="M 75.33 214.33 C 78.04 219.40 80.52 224.46 81.84 230.08 C 85.89 232.41 88.74 233.13 93.40 233.09 C 93.56 234.03 93.72 234.97 93.87 235.91 C 87.81 235.10 81.13 234.20 75.68 231.32 C 72.72 229.62 71.91 226.98 72.40 223.75 C 73.07 220.66 73.76 217.86 73.20 214.66 C 73.91 214.54 74.62 214.43 75.33 214.33 Z" fill="#d6cdc1" />
<path d="M 111.02 214.88 L 112.13 216.16 C 111.97 217.83 111.57 219.41 111.13 221.03 C 111.59 221.26 112.05 221.47 112.52 221.67 C 113.61 220.44 114.69 219.21 115.77 217.98 C 116.78 219.38 117.80 220.77 118.81 222.16 C 118.13 223.88 117.51 225.63 117.01 227.42 C 116.75 228.40 116.49 229.38 116.22 230.35 C 115.40 232.57 114.23 234.68 113.23 236.83 C 112.51 234.84 111.79 232.89 111.37 230.81 L 111.10 229.34 C 111.36 227.81 111.68 226.30 111.99 224.78 C 110.27 225.59 108.53 226.39 106.84 227.26 C 105.03 228.18 103.57 229.47 102.11 230.84 C 99.56 233.25 97.64 235.65 93.87 235.91 C 93.72 234.97 93.56 234.03 93.40 233.09 C 93.97 231.82 94.50 230.52 95.08 229.25 C 91.40 228.25 87.71 227.26 84.05 226.20 C 87.64 226.62 91.21 227.14 94.78 227.69 C 99.36 222.24 104.19 217.39 111.02 214.88 Z" fill="#201f36" />
<path d="M 216.86 215.32 C 217.75 216.16 218.60 217.02 219.47 217.89 C 219.05 218.95 218.60 219.99 218.14 221.03 C 213.26 222.17 208.56 222.84 203.55 223.06 C 203.40 222.50 203.24 221.95 203.08 221.39 C 208.12 220.23 212.37 217.73 216.86 215.32 Z" fill="#8c7256" />
<path d="M 50.79 219.62 C 54.34 220.57 56.22 222.04 58.52 224.80 C 56.74 225.21 54.90 225.81 53.06 225.89 C 50.78 225.18 48.74 223.34 46.85 221.92 C 48.10 221.04 49.40 220.25 50.79 219.62 Z" fill="#dedad7" />
<path d="M 50.79 219.62 C 54.48 219.59 58.05 220.12 61.70 220.50 C 59.84 224.67 58.42 228.97 56.97 233.28 C 58.51 233.45 59.97 233.71 61.52 233.62 C 63.55 231.64 64.97 228.97 66.97 226.96 C 68.43 225.53 70.59 224.64 72.40 223.75 C 71.91 226.98 72.72 229.62 75.68 231.32 C 81.13 234.20 87.81 235.10 93.87 235.91 C 97.64 235.65 99.56 233.25 102.11 230.84 C 105.20 230.79 108.28 230.79 111.37 230.81 C 111.79 232.89 112.51 234.84 113.23 236.83 C 114.23 234.68 115.40 232.57 116.22 230.35 C 118.11 230.17 119.98 229.99 121.85 229.68 C 125.19 229.20 128.59 228.55 131.96 228.39 C 137.47 228.40 143.31 229.24 148.78 228.73 C 151.87 228.41 154.42 227.17 157.29 226.12 C 158.85 225.75 160.41 225.40 161.97 225.04 C 163.18 224.80 164.39 224.57 165.60 224.36 C 164.42 225.66 163.22 226.95 162.05 228.26 C 165.63 227.49 166.78 226.24 168.82 223.39 C 170.02 224.69 171.12 227.19 173.11 227.11 C 179.17 227.15 185.25 225.38 191.30 224.80 C 193.57 224.47 195.82 224.06 198.08 223.67 C 199.12 225.87 200.20 228.33 201.86 230.14 C 203.28 231.19 205.10 231.72 206.69 232.48 C 207.05 231.35 207.41 230.21 207.77 229.08 C 206.42 228.16 205.06 227.27 203.68 226.39 C 203.83 225.25 203.86 224.18 203.55 223.06 C 208.56 222.84 213.26 222.17 218.14 221.03 C 219.10 221.82 220.07 222.60 221.04 223.38 C 219.50 225.84 217.99 228.89 215.64 230.64 C 211.71 233.64 206.78 235.46 201.86 235.84 C 193.51 236.37 185.52 233.74 177.01 234.61 C 168.89 235.59 160.74 235.88 152.58 236.29 C 146.07 236.60 139.76 236.11 133.32 237.54 C 124.31 239.42 115.33 241.27 106.18 242.39 C 98.04 243.31 90.79 241.76 82.68 241.47 C 75.39 241.14 68.15 240.37 61.00 238.86 C 51.98 236.97 44.14 238.55 35.91 234.04 C 31.07 231.64 28.54 227.55 25.82 223.12 C 27.12 222.72 28.42 222.32 29.71 221.89 C 32.54 222.68 35.35 223.53 38.15 224.40 C 37.39 226.44 36.62 228.47 35.82 230.49 C 38.01 231.35 39.64 232.69 41.84 230.96 C 44.24 228.64 45.32 224.85 46.85 221.92 C 48.74 223.34 50.78 225.18 53.06 225.89 C 54.90 225.81 56.74 225.21 58.52 224.80 C 56.22 222.04 54.34 220.57 50.79 219.62 Z" fill="#f4f4f2" />
<path d="M 119.20 221.26 C 122.94 221.70 126.60 222.70 130.35 223.18 C 130.89 224.91 131.43 226.65 131.96 228.39 C 128.59 228.55 125.19 229.20 121.85 229.68 C 123.00 228.87 124.09 227.98 125.18 227.09 C 122.45 226.98 119.73 227.01 117.01 227.42 C 117.51 225.63 118.13 223.88 118.81 222.16 L 119.20 221.26 Z" fill="#e0cfbe" />
<path d="M 169.10 220.12 C 166.81 221.99 164.78 223.95 161.97 225.04 C 160.41 225.40 158.85 225.75 157.29 226.12 C 152.88 225.90 148.49 225.55 144.07 225.54 C 144.50 224.77 144.94 224.00 145.37 223.23 C 149.60 223.17 153.86 223.37 158.07 223.01 C 161.97 222.64 165.40 221.32 169.10 220.12 Z" fill="#886c53" />
<path d="M 111.99 224.78 C 111.68 226.30 111.36 227.81 111.10 229.34 C 109.72 228.57 108.29 227.89 106.84 227.26 C 108.53 226.39 110.27 225.59 111.99 224.78 Z" fill="#cdcbbd" />
<path d="M 125.18 227.09 C 124.09 227.98 123.00 228.87 121.85 229.68 C 119.98 229.99 118.11 230.17 116.22 230.35 C 116.49 229.38 116.75 228.40 117.01 227.42 C 119.73 227.01 122.45 226.98 125.18 227.09 Z" fill="#8d7c6d" />
<path d="M 106.84 227.26 C 108.29 227.89 109.72 228.57 111.10 229.34 L 111.37 230.81 C 108.28 230.79 105.20 230.79 102.11 230.84 C 103.57 229.47 105.03 228.18 106.84 227.26 Z" fill="#78736a" />
</svg>