<?xml version="1.0" encoding="UTF-8" standalone="no"?>
<!DOCTYPE svg PUBLIC "-//W3C//DTD SVG 1.1//EN" "http://www.w3.org/Graphics/SVG/1.1/DTD/svg11.dtd">
<svg xmlns="http://www.w3.org/2000/svg" version="1.1" viewBox="0 0 256 256" width="256.0pt" height="256.0pt">
<path d="M 0.00 0.00 L 256.00 0.00 L 256.00 256.00 L 0.00 256.00 L 0.00 0.00 Z" fill="#fefefd" />
<path d="M 152.99 17.02 C 165.96 16.69 178.89 17.22 189.66 25.37 C 197.65 28.56 205.21 33.07 212.75 37.25 C 226.46 46.93 230.41 60.31 235.59 75.35 C 236.48 87.23 239.84 99.09 240.99 110.99 C 243.06 129.01 239.63 148.11 235.35 165.65 C 232.31 178.33 232.83 192.17 228.39 204.35 C 223.50 213.76 226.06 223.97 214.98 228.69 C 214.31 227.44 213.62 226.19 212.87 224.98 C 212.27 223.92 211.51 222.96 210.71 222.05 C 218.13 224.95 216.11 215.34 213.81 211.72 C 215.93 207.85 217.78 200.18 219.95 197.39 C 219.41 199.65 220.59 202.83 221.93 198.96 C 222.69 196.18 223.64 193.52 225.14 191.03 C 227.43 188.98 225.35 186.54 223.92 189.90 C 222.06 191.32 221.26 194.30 219.06 194.98 C 220.72 189.99 222.87 185.17 224.32 180.08 C 225.60 178.16 225.77 176.71 224.10 174.95 C 224.12 173.38 224.15 171.80 224.22 170.23 C 225.35 166.72 225.36 164.22 224.24 160.71 L 223.75 158.82 C 225.82 157.34 227.95 159.97 228.44 156.42 C 229.29 150.23 232.53 144.31 231.67 138.63 C 231.30 136.64 234.77 130.72 231.04 131.31 C 234.62 127.07 234.09 122.30 233.82 117.08 C 230.65 116.70 231.13 118.76 229.93 120.89 C 230.13 116.28 230.16 111.74 229.52 107.16 C 230.26 101.58 229.61 93.38 228.30 87.86 C 226.10 82.14 225.00 76.31 223.88 70.33 C 226.23 66.05 223.75 62.99 221.95 59.14 C 220.14 55.34 218.32 51.79 215.03 49.02 C 215.72 52.81 218.92 55.13 220.30 58.82 C 220.59 60.30 222.92 62.04 220.13 62.11 L 218.97 60.50 C 216.87 57.35 215.03 54.14 211.23 52.90 C 215.30 59.05 217.85 66.17 221.65 72.41 C 222.08 73.30 222.50 74.20 222.90 75.11 C 217.72 70.87 221.25 76.29 220.22 79.33 C 219.43 78.57 218.62 77.81 217.81 77.06 C 218.12 73.00 218.18 70.48 213.82 69.11 C 209.73 60.75 206.04 52.60 200.76 44.83 C 200.38 44.17 199.99 43.52 199.58 42.89 C 196.89 38.88 191.69 37.77 189.06 33.24 C 190.77 30.19 184.22 28.99 183.57 32.00 C 181.46 30.51 179.37 28.91 177.08 27.79 C 173.25 26.15 173.38 25.24 172.18 29.70 C 166.16 28.15 169.85 31.61 173.00 32.10 C 173.53 33.10 174.22 33.86 175.08 34.39 C 171.31 36.67 170.05 31.19 166.10 32.02 C 163.18 32.47 165.72 35.64 162.87 36.48 L 161.07 35.82 C 159.83 34.75 158.73 34.60 157.14 34.68 C 150.41 33.47 143.54 32.45 136.74 31.77 C 140.89 27.43 145.12 32.75 150.03 30.16 C 152.81 29.10 156.75 31.27 155.80 26.29 C 144.43 23.71 131.67 22.16 120.08 23.21 C 110.24 25.99 101.00 24.21 90.98 28.90 C 85.23 28.60 80.70 31.40 75.15 32.27 C 72.73 32.78 71.40 33.67 70.10 35.77 C 73.56 37.60 74.81 36.96 78.06 35.33 C 78.40 38.26 76.55 39.62 74.50 41.25 C 70.61 38.38 68.11 43.74 63.26 42.13 C 65.24 44.99 66.32 48.83 67.41 52.12 L 66.54 52.43 C 58.60 54.42 55.28 57.28 47.73 57.70 C 48.98 61.58 40.93 63.92 41.26 60.00 C 37.87 61.58 35.29 63.15 31.36 63.25 C 34.42 67.73 30.36 65.30 27.41 66.14 C 28.13 68.99 30.40 71.48 28.30 74.20 C 29.22 76.81 33.31 77.49 30.14 80.06 C 28.95 78.66 26.05 78.40 27.21 80.93 C 28.72 83.91 31.38 85.44 30.30 89.17 C 28.95 92.64 34.05 93.21 36.00 95.06 C 33.54 100.11 32.48 105.48 30.80 110.78 C 30.01 113.17 29.52 115.71 29.09 118.18 L 28.75 120.01 L 28.17 120.04 C 27.69 116.97 28.76 112.70 26.19 117.90 C 25.37 104.14 22.71 90.66 21.07 76.99 C 21.45 68.92 24.28 59.43 31.28 54.63 C 30.54 51.97 30.13 52.27 32.74 50.76 C 41.26 51.01 50.14 42.56 55.07 36.06 C 70.34 23.60 87.94 20.92 106.62 16.54 C 122.27 13.90 137.37 15.40 152.99 17.02 Z" fill="#f1f1f0" />
<path d="M 155.80 26.29 C 156.75 31.27 152.81 29.10 150.03 30.16 C 145.12 32.75 140.89 27.43 136.74 31.77 C 131.55 32.18 126.41 32.11 121.26 32.89 C 119.99 31.74 119.21 32.07 117.82 32.76 C 116.40 32.76 115.37 33.50 114.13 34.08 C 111.65 33.26 107.05 32.83 105.88 35.83 C 104.64 38.58 101.54 37.99 98.98 38.90 C 97.66 38.73 96.61 39.05 95.83 39.86 C 94.87 40.64 93.91 41.43 92.95 42.21 C 90.42 43.62 87.73 44.65 85.16 45.95 C 80.99 47.36 76.17 53.37 71.74 52.27 C 75.07 50.17 77.98 47.59 80.91 44.99 C 82.73 43.67 82.51 42.28 80.94 40.86 C 80.59 38.81 81.43 37.03 80.58 35.12 C 83.40 35.16 93.87 33.53 90.98 28.90 C 101.00 24.21 110.24 25.99 120.08 23.21 C 131.67 22.16 144.43 23.71 155.80 26.29 Z" fill="#c7cbd2" />
<path d="M 168.05 23.06 C 170.74 22.71 174.23 27.61 169.00 26.23 C 168.51 25.60 165.54 22.85 168.05 23.06 Z" fill="#aeafac" />
<path d="M 169.00 26.23 C 162.96 24.22 168.44 31.38 169.00 26.23 Z" fill="#a2a2a1" />
<path d="M 177.08 27.79 C 177.59 33.14 184.08 31.30 185.03 37.17 C 187.19 40.89 182.55 37.11 181.06 37.06 C 182.63 39.60 183.92 40.55 186.71 41.57 C 193.76 49.20 200.67 56.20 205.49 65.75 C 204.60 66.65 203.70 67.54 202.80 68.42 C 199.33 63.97 197.06 58.96 193.24 54.75 C 184.39 46.16 174.67 40.18 162.87 36.48 C 165.72 35.64 163.18 32.47 166.10 32.02 C 170.05 31.19 171.31 36.67 175.08 34.39 C 177.30 33.12 174.54 31.64 173.00 32.10 C 172.73 31.30 172.45 30.50 172.18 29.70 C 173.38 25.24 173.25 26.15 177.08 27.79 Z" fill="#cacad2" />
<path d="M 177.08 27.79 C 179.37 28.91 181.46 30.51 183.57 32.00 C 184.96 33.40 186.39 34.75 187.86 36.07 C 189.61 38.28 191.54 40.23 193.94 41.73 C 194.65 43.27 195.16 44.57 196.80 45.33 C 198.16 47.55 199.57 49.74 201.08 51.85 C 204.69 55.30 205.00 61.30 208.93 63.97 C 207.72 58.52 204.69 54.45 201.70 49.90 C 200.83 47.82 198.06 46.67 200.76 44.83 C 206.04 52.60 209.73 60.75 213.82 69.11 C 215.21 71.35 215.33 76.01 217.81 77.06 C 217.11 81.84 219.58 85.46 219.98 89.96 C 220.12 91.80 219.47 91.23 218.13 91.74 C 217.46 94.84 219.52 98.05 220.61 100.91 L 220.87 101.69 C 218.08 103.92 217.03 108.91 216.50 101.93 C 214.87 89.60 211.56 76.66 205.49 65.75 C 200.67 56.20 193.76 49.20 186.71 41.57 C 183.92 40.55 182.63 39.60 181.06 37.06 C 182.55 37.11 187.19 40.89 185.03 37.17 C 184.08 31.30 177.59 33.14 177.08 27.79 Z" fill="#27283f" />
<path d="M 90.98 28.90 C 93.87 33.53 83.40 35.16 80.58 35.12 C 81.43 37.03 80.59 38.81 80.94 40.86 C 77.64 43.81 73.07 46.20 71.07 50.16 C 70.31 51.77 68.90 51.61 67.41 52.12 C 66.32 48.83 65.24 44.99 63.26 42.13 C 68.11 43.74 70.61 38.38 74.50 41.25 C 76.55 39.62 78.40 38.26 78.06 35.33 C 74.81 36.96 73.56 37.60 70.10 35.77 C 71.40 33.67 72.73 32.78 75.15 32.27 C 80.70 31.40 85.23 28.60 90.98 28.90 Z" fill="#dddde1" />
<path d="M 172.18 29.70 C 172.45 30.50 172.73 31.30 173.00 32.10 C 169.85 31.61 166.16 28.15 172.18 29.70 Z" fill="#65636c" />
<path d="M 189.06 33.24 C 186.57 33.03 187.63 33.24 187.80 35.07 L 187.86 36.07 C 186.39 34.75 184.96 33.40 183.57 32.00 C 184.22 28.99 190.77 30.19 189.06 33.24 Z" fill="#a2a2ad" />
<path d="M 117.82 32.76 C 118.94 34.48 119.90 34.02 121.26 32.89 C 126.41 32.11 131.55 32.18 136.74 31.77 C 138.82 33.55 140.57 35.64 142.55 37.51 C 144.20 39.62 146.35 36.79 148.69 36.83 C 150.07 38.25 151.48 39.72 153.02 40.97 C 155.50 38.93 155.85 39.01 154.83 35.78 C 155.60 35.41 156.37 35.04 157.14 34.68 C 157.80 36.71 159.44 36.31 161.07 35.82 L 162.87 36.48 C 174.67 40.18 184.39 46.16 193.24 54.75 C 197.06 58.96 199.33 63.97 202.80 68.42 C 206.24 75.92 211.07 83.92 212.98 91.97 C 210.26 95.79 212.56 97.15 213.02 101.22 C 210.21 101.70 207.72 100.85 205.19 99.72 L 204.75 99.02 C 204.47 98.47 203.92 98.12 203.11 97.97 C 201.27 92.71 197.83 88.74 194.96 84.01 C 192.19 80.41 189.00 74.46 184.14 73.76 C 179.82 70.30 175.81 66.70 171.03 63.84 C 169.67 62.28 168.95 61.98 166.86 62.21 C 165.30 61.52 163.75 60.79 162.22 60.03 C 158.54 57.43 153.65 56.56 149.42 54.88 C 146.17 53.59 142.62 54.81 139.22 53.64 C 134.76 52.25 130.78 53.88 126.00 54.35 C 128.05 57.22 130.13 55.53 132.81 54.84 C 137.36 56.50 142.09 55.29 146.85 56.26 C 148.76 56.88 150.60 57.11 152.01 58.68 C 148.65 58.78 145.41 58.18 142.09 57.80 C 140.43 57.50 138.87 57.85 137.22 58.09 C 132.80 58.39 127.50 56.59 124.11 60.07 C 118.82 64.82 112.76 68.81 107.82 73.90 C 106.45 75.13 105.13 76.41 103.83 77.71 C 101.02 79.17 99.61 80.60 97.98 83.30 C 97.02 83.51 96.05 83.70 95.08 83.86 C 98.62 78.65 104.41 76.24 107.62 70.67 C 109.75 65.67 114.70 65.20 116.86 59.96 C 111.17 61.34 105.60 63.45 100.03 65.22 C 99.88 64.45 99.75 63.67 99.64 62.89 C 102.43 61.75 105.15 60.49 108.03 59.58 C 113.56 57.55 118.77 55.82 124.75 55.79 C 120.23 53.21 110.93 56.23 105.85 58.78 C 103.67 59.58 101.51 60.35 99.27 60.95 C 97.43 55.99 102.50 58.88 102.95 54.44 C 99.33 54.58 100.43 54.37 99.68 51.16 C 97.32 48.19 93.09 49.22 96.68 44.20 C 93.93 44.28 92.98 46.13 92.95 42.21 C 93.91 41.43 94.87 40.64 95.83 39.86 C 97.35 41.45 99.25 41.67 98.98 38.90 C 101.54 37.99 104.64 38.58 105.88 35.83 C 108.56 34.98 111.65 35.34 114.13 34.08 C 115.37 33.50 116.40 32.76 117.82 32.76 Z" fill="#212540" />
<path d="M 121.26 32.89 C 119.90 34.02 118.94 34.48 117.82 32.76 C 119.21 32.07 119.99 31.74 121.26 32.89 Z" fill="#757584" />
<path d="M 136.74 31.77 C 143.54 32.45 150.41 33.47 157.14 34.68 C 156.37 35.04 155.60 35.41 154.83 35.78 C 152.77 36.06 150.72 36.35 148.69 36.83 C 146.35 36.79 144.20 39.62 142.55 37.51 C 140.57 35.64 138.82 33.55 136.74 31.77 Z" fill="#90939d" />
<path d="M 173.00 32.10 C 174.54 31.64 177.30 33.12 175.08 34.39 C 174.22 33.86 173.53 33.10 173.00 32.10 Z" fill="#5a5a5d" />
<path d="M 114.13 34.08 C 111.65 35.34 108.56 34.98 105.88 35.83 C 107.05 32.83 111.65 33.26 114.13 34.08 Z" fill="#6c7081" />
<path d="M 189.06 33.24 C 191.69 37.77 196.89 38.88 199.58 42.89 C 198.87 43.91 197.94 44.72 196.80 45.33 C 197.01 43.16 196.72 41.37 194.26 41.00 C 192.36 38.73 190.35 36.62 187.80 35.07 C 187.63 33.24 186.57 33.03 189.06 33.24 Z" fill="#2c2b39" />
<path d="M 157.14 34.68 C 158.73 34.60 159.83 34.75 161.07 35.82 C 159.44 36.31 157.80 36.71 157.14 34.68 Z" fill="#777884" />
<path d="M 187.80 35.07 C 190.35 36.62 192.36 38.73 194.26 41.00 L 193.94 41.73 C 191.54 40.23 189.61 38.28 187.86 36.07 L 187.80 35.07 Z" fill="#dbdce6" />
<path d="M 154.83 35.78 C 155.85 39.01 155.50 38.93 153.02 40.97 C 151.48 39.72 150.07 38.25 148.69 36.83 C 150.72 36.35 152.77 36.06 154.83 35.78 Z" fill="#484c61" />
<path d="M 98.98 38.90 C 99.25 41.67 97.35 41.45 95.83 39.86 C 96.61 39.05 97.66 38.73 98.98 38.90 Z" fill="#808095" />
<path d="M 80.94 40.86 C 80.33 42.42 80.03 43.46 80.91 44.99 C 77.98 47.59 75.07 50.17 71.74 52.27 C 68.17 54.19 65.61 58.06 62.95 61.06 C 62.23 60.52 61.53 59.95 60.88 59.36 C 62.91 57.14 64.98 55.02 66.54 52.43 L 67.41 52.12 C 68.90 51.61 70.31 51.77 71.07 50.16 C 73.07 46.20 77.64 43.81 80.94 40.86 Z" fill="#282840" />
<path d="M 80.94 40.86 C 82.51 42.28 82.73 43.67 80.91 44.99 C 80.03 43.46 80.33 42.42 80.94 40.86 Z" fill="#7b7987" />
<path d="M 135.92 43.66 C 138.21 48.82 134.40 47.14 131.82 45.03 C 133.37 43.61 135.96 38.53 135.92 43.66 Z" fill="#565c75" />
<path d="M 194.26 41.00 C 196.72 41.37 197.01 43.16 196.80 45.33 C 195.16 44.57 194.65 43.27 193.94 41.73 L 194.26 41.00 Z" fill="#72738b" />
<path d="M 92.95 42.21 C 92.98 46.13 93.93 44.28 96.68 44.20 C 93.09 49.22 97.32 48.19 99.68 51.16 C 98.61 55.04 93.03 58.66 93.84 62.39 C 92.55 62.98 91.25 63.58 89.97 64.22 C 89.07 61.39 91.49 60.00 91.98 57.06 C 90.12 57.27 90.13 58.46 89.29 59.81 C 88.75 56.84 88.13 54.09 86.03 51.79 C 82.86 53.60 80.41 61.89 78.18 54.70 C 80.07 50.09 87.46 52.19 85.16 45.95 C 87.73 44.65 90.42 43.62 92.95 42.21 Z" fill="#7f87a0" />
<path d="M 199.58 42.89 C 199.99 43.52 200.38 44.17 200.76 44.83 C 198.06 46.67 200.83 47.82 201.70 49.90 C 201.49 50.55 201.28 51.20 201.08 51.85 C 199.57 49.74 198.16 47.55 196.80 45.33 C 197.94 44.72 198.87 43.91 199.58 42.89 Z" fill="#85869a" />
<path d="M 101.27 45.40 C 105.90 46.99 98.56 48.30 96.98 47.91 C 97.98 46.19 99.47 45.86 101.27 45.40 Z" fill="#676980" />
<path d="M 85.16 45.95 C 87.46 52.19 80.07 50.09 78.18 54.70 C 77.10 56.02 75.99 57.39 75.08 58.83 C 73.07 61.94 71.31 65.26 69.12 68.25 C 67.79 66.87 67.67 66.06 67.52 64.22 C 63.58 65.27 67.50 68.09 64.58 69.54 C 63.54 69.91 60.61 72.11 59.73 71.28 C 58.87 69.01 65.47 63.14 62.95 61.06 C 65.61 58.06 68.17 54.19 71.74 52.27 C 76.17 53.37 80.99 47.36 85.16 45.95 Z" fill="#9c9fae" />
<path d="M 215.03 49.02 C 218.32 51.79 220.14 55.34 221.95 59.14 C 223.75 62.99 226.23 66.05 223.88 70.33 C 222.43 67.67 221.36 64.87 220.13 62.11 C 222.92 62.04 220.59 60.30 220.30 58.82 C 218.92 55.13 215.72 52.81 215.03 49.02 Z" fill="#d7d8db" />
<path d="M 126.00 49.96 C 133.34 50.41 143.32 48.82 150.00 51.83 C 142.55 52.64 135.32 51.29 127.91 51.45 C 124.91 51.64 122.00 52.18 118.97 51.87 C 120.39 49.10 123.41 50.25 126.00 49.96 Z" fill="#48506e" />
<path d="M 201.70 49.90 C 204.69 54.45 207.72 58.52 208.93 63.97 C 205.00 61.30 204.69 55.30 201.08 51.85 C 201.28 51.20 201.49 50.55 201.70 49.90 Z" fill="#cbcbd6" />
<path d="M 99.68 51.16 C 100.43 54.37 99.33 54.58 102.95 54.44 C 102.50 58.88 97.43 55.99 99.27 60.95 C 97.47 61.45 95.66 61.92 93.84 62.39 C 93.03 58.66 98.61 55.04 99.68 51.16 Z" fill="#4f5163" />
<path d="M 66.54 52.43 C 64.98 55.02 62.91 57.14 60.88 59.36 C 60.43 59.84 60.03 60.38 59.69 60.95 C 55.66 64.29 53.07 68.80 49.30 72.34 C 44.70 73.19 40.75 71.88 36.27 71.33 C 34.83 72.16 35.57 72.48 35.85 73.77 C 31.94 74.87 34.73 82.28 37.85 83.05 C 40.61 84.25 35.43 83.62 35.13 84.87 C 34.74 86.73 32.52 90.34 36.12 89.85 C 36.52 90.90 36.89 91.95 37.24 93.00 C 36.84 93.70 36.42 94.38 36.00 95.06 C 34.05 93.21 28.95 92.64 30.30 89.17 C 31.38 85.44 28.72 83.91 27.21 80.93 C 28.53 81.30 29.50 81.01 30.14 80.06 C 33.31 77.49 29.22 76.81 28.30 74.20 C 30.40 71.48 28.13 68.99 27.41 66.14 C 30.36 65.30 34.42 67.73 31.36 63.25 C 35.29 63.15 37.87 61.58 41.26 60.00 C 40.93 63.92 48.98 61.58 47.73 57.70 C 55.28 57.28 58.60 54.42 66.54 52.43 Z" fill="#dedfe1" />
<path d="M 86.03 51.79 C 88.13 54.09 88.75 56.84 89.29 59.81 C 90.13 58.46 90.12 57.27 91.98 57.06 C 91.49 60.00 89.07 61.39 89.97 64.22 C 89.13 64.85 88.28 65.46 87.40 66.03 C 85.42 64.13 84.71 66.47 83.13 67.56 C 78.20 69.13 74.54 72.60 70.18 75.02 C 71.30 69.54 77.50 64.19 75.08 58.83 C 75.99 57.39 77.10 56.02 78.18 54.70 C 80.41 61.89 82.86 53.60 86.03 51.79 Z" fill="#566caa" />
<path d="M 139.22 53.64 C 137.03 53.83 134.88 54.04 132.81 54.84 C 130.13 55.53 128.05 57.22 126.00 54.35 C 130.78 53.88 134.76 52.25 139.22 53.64 Z" fill="#6171a7" />
<path d="M 211.23 52.90 C 215.03 54.14 216.87 57.35 218.97 60.50 C 218.75 64.48 221.44 68.30 221.65 72.41 C 217.85 66.17 215.30 59.05 211.23 52.90 Z" fill="#cdcdd3" />
<path d="M 139.22 53.64 C 142.62 54.81 146.17 53.59 149.42 54.88 C 148.57 55.35 147.71 55.81 146.85 56.26 C 142.09 55.29 137.36 56.50 132.81 54.84 C 134.88 54.04 137.03 53.83 139.22 53.64 Z" fill="#95aac2" />
<path d="M 124.75 55.79 C 118.77 55.82 113.56 57.55 108.03 59.58 C 107.30 59.31 106.58 59.05 105.85 58.78 C 110.93 56.23 120.23 53.21 124.75 55.79 Z" fill="#6e7996" />
<path d="M 149.42 54.88 C 153.65 56.56 158.54 57.43 162.22 60.03 C 154.73 59.69 153.43 62.78 149.01 68.04 L 147.99 69.01 C 146.67 70.06 145.36 71.14 144.08 72.24 C 141.23 72.13 139.08 71.83 136.74 70.12 C 139.19 66.79 141.38 63.29 143.78 59.93 C 143.25 59.20 142.69 58.49 142.09 57.80 C 145.41 58.18 148.65 58.78 152.01 58.68 C 150.60 57.11 148.76 56.88 146.85 56.26 C 147.71 55.81 148.57 55.35 149.42 54.88 Z" fill="#6381c6" />
<path d="M 142.09 57.80 C 142.69 58.49 143.25 59.20 143.78 59.93 C 141.38 63.29 139.19 66.79 136.74 70.12 C 131.87 75.80 130.22 82.43 127.28 89.13 C 126.85 85.30 127.43 86.24 124.73 87.82 C 124.20 86.05 124.46 85.22 122.23 85.06 C 121.92 87.71 124.13 91.61 120.47 92.57 C 118.02 93.89 119.83 94.38 120.67 96.03 C 119.05 96.63 116.11 99.70 116.36 96.15 C 115.04 96.36 108.73 99.85 110.32 96.37 C 113.94 94.35 114.92 93.74 114.69 89.24 C 118.95 85.81 121.36 81.13 125.74 77.75 C 127.32 76.33 127.60 73.76 124.91 75.91 C 119.67 78.59 116.58 86.03 110.64 85.65 C 107.09 87.43 107.09 94.08 103.25 95.12 C 104.92 90.64 106.73 90.05 103.02 85.91 C 100.17 88.05 99.11 90.82 97.52 93.81 C 96.62 92.45 95.78 91.05 94.92 89.67 C 95.87 87.51 96.93 85.41 97.98 83.30 C 101.38 84.26 102.83 80.15 103.83 77.71 C 105.13 76.41 106.45 75.13 107.82 73.90 C 111.90 73.89 114.22 71.40 117.57 69.53 C 123.67 65.39 132.34 63.63 137.22 58.09 C 138.87 57.85 140.43 57.50 142.09 57.80 Z" fill="#c5d1d7" />
<path d="M 137.22 58.09 C 132.34 63.63 123.67 65.39 117.57 69.53 C 114.22 71.40 111.90 73.89 107.82 73.90 C 112.76 68.81 118.82 64.82 124.11 60.07 C 127.50 56.59 132.80 58.39 137.22 58.09 Z" fill="#6585c8" />
<path d="M 60.88 59.36 C 61.53 59.95 62.23 60.52 62.95 61.06 C 62.08 61.77 61.17 62.35 60.18 62.87 L 59.69 60.95 C 60.03 60.38 60.43 59.84 60.88 59.36 Z" fill="#6a6c7e" />
<path d="M 75.08 58.83 C 77.50 64.19 71.30 69.54 70.18 75.02 C 74.54 72.60 78.20 69.13 83.13 67.56 C 80.89 71.55 78.51 75.42 75.46 78.87 C 68.67 79.28 66.62 84.04 60.86 85.94 C 62.20 83.33 63.95 81.30 64.30 78.25 C 65.56 74.70 67.12 71.45 69.12 68.25 C 71.31 65.26 73.07 61.94 75.08 58.83 Z" fill="#6881bc" />
<path d="M 105.85 58.78 C 106.58 59.05 107.30 59.31 108.03 59.58 C 105.15 60.49 102.43 61.75 99.64 62.89 C 95.40 63.92 91.50 64.41 90.05 69.19 C 87.88 70.70 85.46 71.37 82.92 71.97 C 84.34 69.93 85.76 67.90 87.40 66.03 C 88.28 65.46 89.13 64.85 89.97 64.22 C 91.25 63.58 92.55 62.98 93.84 62.39 C 95.66 61.92 97.47 61.45 99.27 60.95 C 101.51 60.35 103.67 59.58 105.85 58.78 Z" fill="#a7b4bf" />
<path d="M 116.86 59.96 C 114.70 65.20 109.75 65.67 107.62 70.67 C 104.41 76.24 98.62 78.65 95.08 83.86 C 96.05 83.70 97.02 83.51 97.98 83.30 C 96.93 85.41 95.87 87.51 94.92 89.67 C 89.15 93.59 90.30 102.91 83.80 104.54 C 80.39 104.07 78.66 103.76 79.78 99.87 C 84.38 95.02 89.04 90.25 94.10 85.87 L 93.00 84.92 C 88.65 88.19 85.33 92.69 81.07 96.12 C 79.85 87.32 91.23 80.14 95.29 72.80 C 96.34 70.74 100.80 68.03 100.13 65.78 L 100.03 65.22 C 105.60 63.45 111.17 61.34 116.86 59.96 Z" fill="#7b95d3" />
<path d="M 162.22 60.03 C 163.75 60.79 165.30 61.52 166.86 62.21 C 167.97 64.23 168.87 64.33 171.03 63.84 C 175.81 66.70 179.82 70.30 184.14 73.76 C 185.27 75.45 186.50 77.08 187.63 78.78 C 189.46 83.97 185.72 87.00 190.43 90.58 C 192.90 93.79 191.10 89.46 191.27 88.01 C 193.72 89.81 195.02 92.43 195.90 95.27 C 191.68 95.07 196.83 101.34 197.14 102.97 C 195.13 101.77 193.71 99.72 192.05 98.56 C 185.97 98.96 188.53 106.32 188.79 110.18 C 186.59 106.63 186.87 102.61 185.10 98.91 C 180.06 92.36 176.37 83.55 168.94 79.22 C 163.03 80.97 163.01 78.07 159.63 74.35 C 157.35 74.14 155.20 74.33 153.03 73.41 C 153.83 71.87 154.90 70.55 155.83 69.03 C 153.90 67.91 151.19 68.36 149.01 68.04 C 153.43 62.78 154.73 59.69 162.22 60.03 Z" fill="#bed5ce" />
<path d="M 59.69 60.95 L 60.18 62.87 C 56.99 66.33 54.73 70.39 51.85 74.08 C 49.21 78.57 45.49 82.11 43.59 86.93 C 43.02 89.20 40.12 91.49 42.88 93.24 C 36.12 95.21 35.50 106.71 32.02 112.21 L 30.80 110.78 C 32.48 105.48 33.54 100.11 36.00 95.06 C 36.42 94.38 36.84 93.70 37.24 93.00 C 38.49 90.13 37.44 87.31 39.70 84.74 C 43.70 82.66 46.57 76.32 49.30 72.34 C 53.07 68.80 55.66 64.29 59.69 60.95 Z" fill="#29293f" />
<path d="M 62.95 61.06 C 65.47 63.14 58.87 69.01 59.73 71.28 C 60.61 72.11 63.54 69.91 64.58 69.54 C 67.50 68.09 63.58 65.27 67.52 64.22 C 67.67 66.06 67.79 66.87 69.12 68.25 C 67.12 71.45 65.56 74.70 64.30 78.25 C 60.36 80.27 57.15 80.34 55.20 75.82 C 54.53 72.55 51.95 77.71 51.85 74.08 C 54.73 70.39 56.99 66.33 60.18 62.87 C 61.17 62.35 62.08 61.77 62.95 61.06 Z" fill="#bbbcc5" />
<path d="M 218.97 60.50 L 220.13 62.11 C 221.36 64.87 222.43 67.67 223.88 70.33 C 225.00 76.31 226.10 82.14 228.30 87.86 C 228.07 92.30 226.79 91.19 226.09 87.99 C 225.41 83.68 224.41 79.21 222.90 75.11 C 222.50 74.20 222.08 73.30 221.65 72.41 C 221.44 68.30 218.75 64.48 218.97 60.50 Z" fill="#71727d" />
<path d="M 166.86 62.21 C 168.95 61.98 169.67 62.28 171.03 63.84 C 168.87 64.33 167.97 64.23 166.86 62.21 Z" fill="#6e7a87" />
<path d="M 99.64 62.89 C 99.75 63.67 99.88 64.45 100.03 65.22 L 100.13 65.78 C 96.60 66.45 93.32 67.76 90.05 69.19 C 91.50 64.41 95.40 63.92 99.64 62.89 Z" fill="#838d95" />
<path d="M 87.40 66.03 C 85.76 67.90 84.34 69.93 82.92 71.97 C 78.90 77.17 75.55 82.91 71.53 88.09 C 71.06 84.89 74.13 81.64 75.46 78.87 C 78.51 75.42 80.89 71.55 83.13 67.56 C 84.71 66.47 85.42 64.13 87.40 66.03 Z" fill="#2d3865" />
<path d="M 100.13 65.78 C 100.80 68.03 96.34 70.74 95.29 72.80 C 92.84 71.07 88.90 77.33 86.50 78.47 C 84.39 83.19 78.66 85.48 79.12 90.63 C 75.59 87.38 76.51 94.00 74.54 94.89 C 71.72 96.72 70.97 96.16 68.82 93.90 C 69.51 92.23 70.19 90.57 70.88 88.91 L 71.53 88.09 C 75.55 82.91 78.90 77.17 82.92 71.97 C 85.46 71.37 87.88 70.70 90.05 69.19 C 93.32 67.76 96.60 66.45 100.13 65.78 Z" fill="#d0d9e0" />
<path d="M 205.49 65.75 C 211.56 76.66 214.87 89.60 216.50 101.93 C 216.14 104.29 215.92 106.65 215.98 109.05 C 215.98 111.29 216.07 113.52 216.25 115.76 C 215.78 116.49 215.31 117.22 214.83 117.94 L 213.96 118.17 C 212.71 115.09 212.86 112.34 213.44 109.13 C 214.01 106.39 213.38 103.93 213.02 101.22 C 212.56 97.15 210.26 95.79 212.98 91.97 C 211.07 83.92 206.24 75.92 202.80 68.42 C 203.70 67.54 204.60 66.65 205.49 65.75 Z" fill="#adb9c1" />
<path d="M 149.01 68.04 C 151.19 68.36 153.90 67.91 155.83 69.03 C 154.90 70.55 153.83 71.87 153.03 73.41 C 155.20 74.33 157.35 74.14 159.63 74.35 C 163.01 78.07 163.03 80.97 168.94 79.22 C 176.37 83.55 180.06 92.36 185.10 98.91 C 186.87 102.61 186.59 106.63 188.79 110.18 C 191.21 113.95 190.21 118.59 193.13 121.87 C 195.10 124.09 193.92 127.01 195.17 129.77 C 197.55 134.55 193.86 144.16 188.05 143.34 C 186.08 145.13 186.21 150.83 182.31 152.03 C 183.26 147.33 182.25 142.77 182.90 138.06 C 180.95 142.62 176.04 145.99 177.80 151.04 C 180.89 158.91 171.68 163.31 165.93 166.08 C 161.98 167.19 160.90 171.46 157.03 172.05 C 150.39 173.56 145.07 175.49 138.72 171.78 C 143.49 165.61 152.66 167.84 157.23 162.77 C 166.11 161.75 174.49 158.25 172.22 147.72 C 168.01 142.47 164.72 148.35 158.05 147.87 C 158.88 145.51 160.33 143.48 161.00 141.05 C 157.88 142.35 156.00 148.86 152.33 145.71 C 149.30 144.21 153.48 140.44 154.08 138.36 C 151.72 139.54 149.81 140.28 147.09 139.96 C 148.87 137.54 152.14 128.64 155.71 132.96 C 155.04 130.46 152.97 128.48 155.12 126.15 C 156.89 122.85 160.14 125.49 160.10 120.83 C 164.48 121.41 165.05 121.79 167.99 125.02 C 174.02 128.57 178.91 123.11 180.92 117.97 C 182.46 109.25 177.50 102.87 174.12 94.83 C 168.43 90.44 161.83 82.39 154.02 84.02 C 148.94 85.81 143.70 89.03 140.79 93.71 C 139.95 94.96 140.29 97.92 138.34 97.58 C 136.56 97.03 135.70 101.56 137.40 102.09 C 139.97 103.09 137.55 105.92 139.49 107.45 C 145.87 112.68 154.36 119.27 162.94 119.27 C 162.00 119.81 161.06 120.32 160.10 120.83 C 156.09 119.83 152.61 123.62 150.49 126.53 C 146.78 130.72 144.74 135.88 141.23 140.23 C 139.89 141.50 139.63 144.03 137.60 141.98 C 140.12 137.80 144.70 132.28 143.91 127.16 C 142.02 127.74 140.56 128.55 138.51 128.05 C 138.23 123.96 140.84 121.66 141.92 118.07 C 135.52 118.52 134.67 132.94 127.76 131.51 C 126.45 136.19 125.50 131.87 123.65 130.18 C 120.34 133.35 121.43 133.62 116.75 132.12 C 115.64 129.17 115.03 126.16 114.69 123.04 C 115.10 121.61 115.94 118.81 114.18 117.98 C 113.56 117.62 112.91 117.30 112.24 117.03 C 112.56 123.93 109.28 128.51 112.41 135.89 C 110.14 137.55 108.47 143.98 107.18 137.89 C 105.87 134.16 105.33 130.22 104.05 126.49 C 103.94 125.45 103.33 124.98 102.20 125.10 C 101.76 131.36 101.99 137.70 102.15 143.96 C 101.64 145.90 101.38 147.45 102.91 148.99 L 103.17 149.80 C 103.11 150.83 103.02 151.86 102.92 152.89 C 100.61 149.64 98.32 146.83 97.41 142.83 C 97.10 141.87 96.74 140.94 96.32 140.02 C 95.85 137.72 96.47 135.54 94.38 134.04 C 93.82 136.29 93.34 138.55 92.86 140.82 C 88.58 144.93 84.00 149.48 81.38 154.85 C 80.95 153.50 80.54 152.14 80.11 150.79 C 80.05 148.54 80.09 146.31 80.21 144.06 C 82.05 142.61 80.63 139.36 79.08 141.89 C 76.88 146.98 72.62 152.50 67.14 154.19 C 67.60 152.88 68.12 151.59 68.54 150.27 C 62.35 149.54 50.45 142.82 44.86 146.28 C 43.68 143.65 43.53 142.57 40.56 141.69 C 41.17 140.39 42.41 140.14 40.97 138.81 C 39.83 137.16 36.86 137.87 35.17 138.08 C 33.07 134.13 32.76 137.84 32.02 139.89 C 28.36 145.10 26.67 151.96 24.92 158.03 C 23.25 161.14 24.04 164.04 24.83 167.25 C 25.01 169.17 25.29 171.04 25.91 172.88 C 25.41 174.42 24.80 175.96 24.50 177.55 C 29.53 179.60 30.92 184.46 36.36 185.67 C 40.26 187.59 42.14 190.53 46.92 191.21 C 52.69 193.32 58.29 194.63 62.98 199.04 C 65.62 205.70 64.26 200.80 68.75 201.97 C 76.06 205.99 82.69 208.11 87.46 215.23 C 87.45 216.17 87.42 217.10 87.39 218.04 C 81.64 214.67 78.04 221.13 74.85 224.82 C 73.05 227.22 74.14 231.67 77.45 228.14 C 76.69 230.14 77.02 231.54 74.33 230.74 C 69.18 224.39 68.46 216.78 62.13 210.84 C 58.55 205.58 50.88 204.22 45.46 201.46 C 36.13 196.25 26.26 190.91 20.72 181.33 C 15.07 169.42 16.87 154.09 22.39 142.44 C 25.97 140.73 26.87 136.65 27.09 133.01 C 28.27 128.78 22.87 127.50 28.36 126.02 L 28.86 125.79 C 31.91 124.40 30.75 119.57 31.00 116.88 C 31.36 115.33 31.71 113.77 32.02 112.21 C 35.50 106.71 36.12 95.21 42.88 93.24 C 43.38 93.75 43.87 94.27 44.36 94.79 C 45.83 97.41 45.80 98.87 45.30 101.76 C 47.14 101.30 53.61 98.91 50.13 96.86 C 54.33 94.97 54.78 90.86 59.34 90.01 C 58.77 92.79 58.06 95.53 57.28 98.27 C 55.39 105.15 52.21 112.00 54.23 119.18 C 53.73 121.13 53.21 123.04 53.00 125.05 C 56.26 130.01 62.04 122.63 60.89 118.84 C 61.62 115.20 62.80 111.72 64.26 108.32 C 67.06 106.66 66.26 100.74 66.88 97.84 C 67.48 96.51 68.16 95.21 68.82 93.90 C 70.97 96.16 71.72 96.72 74.54 94.89 C 76.51 94.00 75.59 87.38 79.12 90.63 C 78.66 85.48 84.39 83.19 86.50 78.47 C 88.90 77.33 92.84 71.07 95.29 72.80 C 91.23 80.14 79.85 87.32 81.07 96.12 C 80.35 97.06 79.61 98.00 78.88 98.94 C 76.00 101.19 73.72 103.74 72.17 107.08 C 75.64 106.22 77.19 102.68 78.95 99.93 L 79.78 99.87 C 78.66 103.76 80.39 104.07 83.80 104.54 C 90.30 102.91 89.15 93.59 94.92 89.67 C 95.78 91.05 96.62 92.45 97.52 93.81 C 99.11 90.82 100.17 88.05 103.02 85.91 C 106.73 90.05 104.92 90.64 103.25 95.12 C 107.09 94.08 107.09 87.43 110.64 85.65 C 116.58 86.03 119.67 78.59 124.91 75.91 C 127.60 73.76 127.32 76.33 125.74 77.75 C 121.36 81.13 118.95 85.81 114.69 89.24 C 114.92 93.74 113.94 94.35 110.32 96.37 C 108.73 99.85 115.04 96.36 116.36 96.15 C 116.11 99.70 119.05 96.63 120.67 96.03 C 119.83 94.38 118.02 93.89 120.47 92.57 C 124.13 91.61 121.92 87.71 122.23 85.06 C 124.46 85.22 124.20 86.05 124.73 87.82 C 127.43 86.24 126.85 85.30 127.28 89.13 C 127.28 92.95 125.75 96.99 126.23 100.71 C 128.24 103.94 132.91 100.45 131.57 97.41 C 129.42 90.56 134.01 87.43 136.99 82.04 C 141.13 82.23 138.41 78.66 141.74 78.37 C 146.22 77.84 150.13 73.57 147.99 69.01 L 149.01 68.04 Z" fill="#eff0ef" />
<path d="M 147.99 69.01 C 150.13 73.57 146.22 77.84 141.74 78.37 C 138.41 78.66 141.13 82.23 136.99 82.04 C 138.16 77.76 141.13 75.29 144.08 72.24 C 145.36 71.14 146.67 70.06 147.99 69.01 Z" fill="#c6d4de" />
<path d="M 213.82 69.11 C 218.18 70.48 218.12 73.00 217.81 77.06 C 215.33 76.01 215.21 71.35 213.82 69.11 Z" fill="#656776" />
<path d="M 136.74 70.12 C 139.08 71.83 141.23 72.13 144.08 72.24 C 141.13 75.29 138.16 77.76 136.99 82.04 C 134.01 87.43 129.42 90.56 131.57 97.41 C 132.91 100.45 128.24 103.94 126.23 100.71 C 125.75 96.99 127.28 92.95 127.28 89.13 C 130.22 82.43 131.87 75.80 136.74 70.12 Z" fill="#7896d5" />
<path d="M 36.27 71.33 C 40.75 71.88 44.70 73.19 49.30 72.34 C 46.57 76.32 43.70 82.66 39.70 84.74 C 37.44 87.31 38.49 90.13 37.24 93.00 C 36.89 91.95 36.52 90.90 36.12 89.85 C 35.94 88.11 37.89 85.02 35.13 84.87 C 35.43 83.62 40.61 84.25 37.85 83.05 C 34.73 82.28 31.94 74.87 35.85 73.77 C 35.18 74.97 33.92 77.52 36.00 78.04 C 38.18 77.40 37.09 74.84 35.85 73.77 C 35.57 72.48 34.83 72.16 36.27 71.33 Z" fill="#afafba" />
<path d="M 222.90 75.11 C 224.41 79.21 225.41 83.68 226.09 87.99 C 226.79 91.19 228.07 92.30 228.30 87.86 C 229.61 93.38 230.26 101.58 229.52 107.16 L 228.13 105.91 L 227.88 104.05 C 227.96 102.52 228.45 89.80 226.85 97.87 C 226.34 98.56 225.81 99.23 225.26 99.89 C 224.92 94.53 223.83 89.58 221.01 84.95 C 220.13 82.98 220.02 81.46 220.22 79.33 C 221.25 76.29 217.72 70.87 222.90 75.11 Z" fill="#cad1d4" />
<path d="M 35.85 73.77 C 37.09 74.84 38.18 77.40 36.00 78.04 C 33.92 77.52 35.18 74.97 35.85 73.77 Z" fill="#333246" />
<path d="M 51.85 74.08 C 51.95 77.71 54.53 72.55 55.20 75.82 C 57.15 80.34 60.36 80.27 64.30 78.25 C 63.95 81.30 62.20 83.33 60.86 85.94 C 60.20 87.21 59.78 88.63 59.34 90.01 C 55.86 82.93 52.43 95.40 47.11 94.65 C 48.84 92.37 44.12 89.39 43.59 86.93 C 45.49 82.11 49.21 78.57 51.85 74.08 Z" fill="#a8abb2" />
<path d="M 184.14 73.76 C 189.00 74.46 192.19 80.41 194.96 84.01 C 192.27 89.25 190.27 80.25 187.63 78.78 C 186.50 77.08 185.27 75.45 184.14 73.76 Z" fill="#939da0" />
<path d="M 39.29 75.34 C 42.19 73.94 40.71 81.88 38.11 82.00 C 37.91 79.58 37.86 77.42 39.29 75.34 Z" fill="#4e4e5e" />
<path d="M 217.81 77.06 C 218.62 77.81 219.43 78.57 220.22 79.33 C 220.02 81.46 220.13 82.98 221.01 84.95 C 220.71 89.63 221.58 93.83 222.56 98.35 C 222.98 99.41 221.12 100.18 220.61 100.91 C 219.52 98.05 217.46 94.84 218.13 91.74 C 219.47 91.23 220.12 91.80 219.98 89.96 C 219.58 85.46 217.11 81.84 217.81 77.06 Z" fill="#585e72" />
<path d="M 75.46 78.87 C 74.13 81.64 71.06 84.89 71.53 88.09 L 70.88 88.91 C 68.35 90.23 67.72 92.70 66.16 95.01 C 61.58 92.32 62.31 97.59 57.28 98.27 C 58.06 95.53 58.77 92.79 59.34 90.01 C 59.78 88.63 60.20 87.21 60.86 85.94 C 66.62 84.04 68.67 79.28 75.46 78.87 Z" fill="#8ba5dc" />
<path d="M 103.83 77.71 C 102.83 80.15 101.38 84.26 97.98 83.30 C 99.61 80.60 101.02 79.17 103.83 77.71 Z" fill="#8596c7" />
<path d="M 30.14 80.06 C 29.50 81.01 28.53 81.30 27.21 80.93 C 26.05 78.40 28.95 78.66 30.14 80.06 Z" fill="#5b5865" />
<path d="M 187.63 78.78 C 190.27 80.25 192.27 89.25 194.96 84.01 C 197.83 88.74 201.27 92.71 203.11 97.97 C 202.16 101.40 203.62 103.64 204.75 99.02 L 205.19 99.72 C 206.82 101.70 208.07 108.73 211.39 105.57 C 212.45 104.44 213.14 108.61 213.44 109.13 C 212.86 112.34 212.71 115.09 213.96 118.17 C 214.14 121.67 214.24 125.04 212.96 128.37 C 212.03 126.05 212.01 123.69 211.78 121.25 C 205.12 121.74 207.53 129.37 206.30 133.95 C 210.33 134.06 210.68 132.33 211.74 128.99 C 211.99 130.40 212.22 131.80 212.44 133.21 C 211.99 137.05 210.71 140.60 209.16 144.11 C 208.49 143.45 207.81 142.81 207.11 142.19 C 203.77 149.38 198.03 154.10 195.88 161.95 C 192.46 169.85 186.20 176.52 186.01 185.90 C 183.15 181.94 184.31 187.53 182.94 189.36 C 181.71 189.17 180.51 188.88 179.28 188.69 C 178.70 190.55 178.25 195.01 175.41 192.68 C 171.72 190.49 170.86 193.88 170.34 196.74 C 169.80 198.94 168.02 206.81 167.88 199.81 C 167.71 196.54 166.86 194.44 164.79 191.92 C 166.99 189.88 168.30 186.98 171.25 189.88 C 175.44 186.10 168.39 185.19 172.34 182.28 C 174.04 181.04 174.97 181.89 176.70 182.37 C 178.37 179.09 181.73 175.81 182.01 172.09 C 176.58 174.84 171.74 184.95 165.15 183.38 C 162.94 184.32 160.95 186.17 159.51 188.09 C 157.71 188.42 156.01 188.25 154.22 187.97 C 151.70 187.04 150.58 186.72 148.11 188.03 C 145.67 188.06 143.23 188.08 140.78 188.12 C 137.58 188.49 135.67 186.53 136.48 190.99 C 134.78 190.09 132.92 187.44 130.91 188.76 C 124.67 190.32 117.00 190.86 111.75 194.77 C 109.63 195.75 107.61 196.86 105.66 198.15 C 106.12 196.67 106.64 195.16 106.96 193.65 C 105.45 193.66 100.48 193.27 101.72 190.81 C 106.56 192.86 114.16 191.03 117.77 187.93 C 117.43 186.20 110.34 187.51 108.04 186.24 C 107.89 182.82 105.64 184.20 103.54 184.95 C 102.01 184.76 98.50 181.32 99.20 184.78 C 99.09 186.50 98.99 188.22 98.85 189.93 C 96.78 186.53 96.94 184.35 93.28 188.14 C 89.81 183.66 88.47 178.10 84.82 173.82 C 87.81 169.99 85.93 166.73 81.11 166.99 C 81.25 165.54 81.47 164.13 81.78 162.70 C 83.42 165.20 84.52 162.98 86.52 165.49 C 89.87 167.85 90.52 162.51 92.06 160.66 L 93.05 160.93 C 92.30 162.15 92.08 163.24 92.38 164.19 C 93.60 166.44 96.72 168.00 98.86 169.32 C 99.82 169.86 100.78 170.40 101.74 170.93 C 104.00 173.64 105.11 177.04 107.18 179.77 C 113.39 183.61 118.60 181.84 123.98 177.65 C 125.14 176.88 126.21 175.94 127.20 174.97 C 123.43 173.68 119.97 171.98 120.42 167.36 C 121.14 164.59 118.91 164.31 117.18 162.80 C 114.03 157.69 111.39 152.44 109.22 146.84 L 108.98 146.07 C 108.46 143.86 107.95 142.46 106.10 141.05 C 106.47 140.00 106.83 138.94 107.18 137.89 C 108.47 143.98 110.14 137.55 112.41 135.89 C 115.82 148.76 120.15 162.23 127.56 173.42 C 128.97 175.52 130.37 177.50 132.86 178.38 C 138.00 180.53 137.91 179.43 142.13 176.82 C 148.13 177.64 153.77 175.88 159.75 176.55 C 164.01 176.19 168.03 171.68 171.69 169.71 C 186.69 164.11 191.94 151.85 197.54 138.07 C 197.42 141.94 201.53 144.59 203.69 140.66 C 204.90 138.15 200.69 134.49 199.82 132.08 C 199.84 127.61 201.00 123.75 198.40 119.77 C 198.63 114.59 200.56 107.40 197.14 102.97 C 196.83 101.34 191.68 95.07 195.90 95.27 C 195.02 92.43 193.72 89.81 191.27 88.01 C 191.10 89.46 192.90 93.79 190.43 90.58 C 185.72 87.00 189.46 83.97 187.63 78.78 Z" fill="#dbe2de" />
<path d="M 31.13 82.13 C 29.74 89.15 38.16 80.74 31.13 82.13 Z" fill="#555659" />
<path d="M 154.02 84.02 C 161.83 82.39 168.43 90.44 174.12 94.83 C 177.50 102.87 182.46 109.25 180.92 117.97 C 178.91 123.11 174.02 128.57 167.99 125.02 C 165.05 121.79 164.48 121.41 160.10 120.83 C 161.06 120.32 162.00 119.81 162.94 119.27 C 154.36 119.27 145.87 112.68 139.49 107.45 C 137.55 105.92 139.97 103.09 137.40 102.09 C 135.70 101.56 136.56 97.03 138.34 97.58 C 140.29 97.92 139.95 94.96 140.79 93.71 C 143.70 89.03 148.94 85.81 154.02 84.02 Z" fill="#f9f9f7" />
<path d="M 35.13 84.87 C 37.89 85.02 35.94 88.11 36.12 89.85 C 32.52 90.34 34.74 86.73 35.13 84.87 Z" fill="#5a5a64" />
<path d="M 93.00 84.92 L 94.10 85.87 C 89.04 90.25 84.38 95.02 79.78 99.87 L 78.95 99.93 L 78.88 98.94 C 79.61 98.00 80.35 97.06 81.07 96.12 C 85.33 92.69 88.65 88.19 93.00 84.92 Z" fill="#1d2e5f" />
<path d="M 221.01 84.95 C 223.83 89.58 224.92 94.53 225.26 99.89 C 225.81 99.23 226.34 98.56 226.85 97.87 C 226.89 99.81 226.92 101.75 226.88 103.68 C 225.63 106.52 226.01 109.26 226.33 112.24 C 224.93 123.04 221.49 135.26 217.41 145.38 C 216.75 147.34 214.91 149.26 215.86 151.34 C 215.08 154.98 210.81 155.20 209.73 158.95 C 206.34 159.65 206.11 161.20 206.42 156.85 C 204.01 157.98 203.07 161.14 201.24 163.08 C 198.21 163.99 196.63 165.77 195.91 168.83 C 196.01 172.11 196.34 175.39 196.55 178.66 C 199.57 183.55 206.03 186.95 211.68 186.70 C 215.76 183.48 216.87 176.47 214.32 171.93 C 218.74 171.52 218.35 176.64 219.48 179.60 C 220.17 184.38 219.29 192.15 215.79 195.78 C 213.00 198.16 214.74 203.30 210.21 202.71 C 208.69 206.21 207.99 209.96 205.99 213.30 L 205.16 212.70 C 204.80 208.04 205.02 209.00 200.92 209.79 L 200.07 209.47 C 198.01 208.36 196.05 208.39 193.80 208.24 C 193.25 204.86 193.18 198.24 188.10 201.56 C 182.54 197.31 187.59 190.29 186.01 185.90 C 186.20 176.52 192.46 169.85 195.88 161.95 C 198.03 154.10 203.77 149.38 207.11 142.19 C 207.81 142.81 208.49 143.45 209.16 144.11 C 207.76 149.34 203.30 152.85 202.02 157.97 C 205.13 156.01 206.65 151.97 209.14 149.24 C 211.81 148.22 212.31 146.50 213.30 144.05 C 215.16 144.47 215.72 145.87 216.06 143.06 C 216.83 135.59 223.65 126.27 220.30 119.23 C 223.17 115.46 221.84 109.38 221.80 104.88 C 221.61 103.80 221.31 102.74 220.87 101.69 L 220.61 100.91 C 221.12 100.18 222.98 99.41 222.56 98.35 C 221.58 93.83 220.71 89.63 221.01 84.95 Z" fill="#acb6be" />
<path d="M 43.59 86.93 C 44.12 89.39 48.84 92.37 47.11 94.65 C 46.20 94.71 45.28 94.76 44.36 94.79 C 43.87 94.27 43.38 93.75 42.88 93.24 C 40.12 91.49 43.02 89.20 43.59 86.93 Z" fill="#646575" />
<path d="M 59.34 90.01 C 54.78 90.86 54.33 94.97 50.13 96.86 C 53.61 98.91 47.14 101.30 45.30 101.76 C 45.80 98.87 45.83 97.41 44.36 94.79 C 45.28 94.76 46.20 94.71 47.11 94.65 C 52.43 95.40 55.86 82.93 59.34 90.01 Z" fill="#d1d4d9" />
<path d="M 70.88 88.91 C 70.19 90.57 69.51 92.23 68.82 93.90 C 68.16 95.21 67.48 96.51 66.88 97.84 C 66.22 99.19 65.57 100.55 64.91 101.91 C 60.61 108.56 57.77 115.79 55.21 123.25 C 54.48 123.85 53.74 124.45 53.00 125.05 C 53.21 123.04 53.73 121.13 54.23 119.18 C 58.50 111.28 61.53 102.78 66.16 95.01 C 67.72 92.70 68.35 90.23 70.88 88.91 Z" fill="#212f5a" />
<path d="M 66.16 95.01 C 61.53 102.78 58.50 111.28 54.23 119.18 C 52.21 112.00 55.39 105.15 57.28 98.27 C 62.31 97.59 61.58 92.32 66.16 95.01 Z" fill="#6d8cd3" />
<path d="M 227.88 104.05 L 226.88 103.68 C 226.92 101.75 226.89 99.81 226.85 97.87 C 228.45 89.80 227.96 102.52 227.88 104.05 Z" fill="#6f7781" />
<path d="M 66.88 97.84 C 66.26 100.74 67.06 106.66 64.26 108.32 C 64.53 106.18 64.75 104.05 64.91 101.91 C 65.57 100.55 66.22 99.19 66.88 97.84 Z" fill="#b1c2e5" />
<path d="M 192.05 98.56 C 193.71 99.72 195.13 101.77 197.14 102.97 C 200.56 107.40 198.63 114.59 198.40 119.77 C 201.00 123.75 199.84 127.61 199.82 132.08 C 198.31 131.22 196.75 130.48 195.17 129.77 C 193.92 127.01 195.10 124.09 193.13 121.87 C 190.21 118.59 191.21 113.95 188.79 110.18 C 188.53 106.32 185.97 98.96 192.05 98.56 Z" fill="#adb8be" />
<path d="M 203.11 97.97 C 203.92 98.12 204.47 98.47 204.75 99.02 C 203.62 103.64 202.16 101.40 203.11 97.97 Z" fill="#767e81" />
<path d="M 78.88 98.94 L 78.95 99.93 C 77.19 102.68 75.64 106.22 72.17 107.08 C 73.72 103.74 76.00 101.19 78.88 98.94 Z" fill="#6c6f7e" />
<path d="M 205.19 99.72 C 207.72 100.85 210.21 101.70 213.02 101.22 C 213.38 103.93 214.01 106.39 213.44 109.13 C 213.14 108.61 212.45 104.44 211.39 105.57 C 208.07 108.73 206.82 101.70 205.19 99.72 Z" fill="#727c83" />
<path d="M 64.91 101.91 C 64.75 104.05 64.53 106.18 64.26 108.32 C 62.80 111.72 61.62 115.20 60.89 118.84 C 59.18 121.77 58.99 123.00 55.21 123.25 C 57.77 115.79 60.61 108.56 64.91 101.91 Z" fill="#7086ca" />
<path d="M 216.50 101.93 C 217.03 108.91 218.08 103.92 220.87 101.69 C 221.31 102.74 221.61 103.80 221.80 104.88 C 219.95 108.57 220.97 110.75 215.98 109.05 C 215.92 106.65 216.14 104.29 216.50 101.93 Z" fill="#6f727f" />
<path d="M 226.88 103.68 C 227.07 106.59 227.10 109.40 226.33 112.24 C 226.01 109.26 225.63 106.52 226.88 103.68 Z" fill="#707589" />
<path d="M 226.88 103.68 L 227.88 104.05 L 228.13 105.91 C 228.38 112.32 227.17 118.42 226.00 124.68 C 228.71 122.67 227.77 123.11 228.27 126.16 C 227.02 131.85 225.22 137.35 222.44 142.49 C 219.53 145.17 217.73 147.87 215.86 151.34 C 214.91 149.26 216.75 147.34 217.41 145.38 C 221.49 135.26 224.93 123.04 226.33 112.24 C 227.10 109.40 227.07 106.59 226.88 103.68 Z" fill="#22283f" />
<path d="M 221.80 104.88 C 221.84 109.38 223.17 115.46 220.30 119.23 C 223.65 126.27 216.83 135.59 216.06 143.06 C 215.72 145.87 215.16 144.47 213.30 144.05 C 210.71 140.94 209.90 147.79 209.14 149.24 C 206.65 151.97 205.13 156.01 202.02 157.97 C 203.30 152.85 207.76 149.34 209.16 144.11 C 210.71 140.60 211.99 137.05 212.44 133.21 C 212.71 131.60 212.86 129.99 212.96 128.37 C 214.24 125.04 214.14 121.67 213.96 118.17 L 214.83 117.94 C 215.85 118.98 216.86 120.02 217.97 120.96 C 217.96 118.99 217.16 117.44 216.25 115.76 C 216.07 113.52 215.98 111.29 215.98 109.05 C 220.97 110.75 219.95 108.57 221.80 104.88 Z" fill="#252a43" />
<path d="M 228.13 105.91 L 229.52 107.16 C 230.16 111.74 230.13 116.28 229.93 120.89 C 229.30 122.63 228.78 124.39 228.27 126.16 C 227.77 123.11 228.71 122.67 226.00 124.68 C 227.17 118.42 228.38 112.32 228.13 105.91 Z" fill="#697381" />
<path d="M 30.80 110.78 L 32.02 112.21 C 31.71 113.77 31.36 115.33 31.00 116.88 C 30.36 117.31 29.73 117.75 29.09 118.18 C 29.52 115.71 30.01 113.17 30.80 110.78 Z" fill="#868694" />
<path d="M 216.25 115.76 C 217.16 117.44 217.96 118.99 217.97 120.96 C 216.86 120.02 215.85 118.98 214.83 117.94 C 215.31 117.22 215.78 116.49 216.25 115.76 Z" fill="#6e7487" />
<path d="M 31.00 116.88 C 30.75 119.57 31.91 124.40 28.86 125.79 C 29.31 123.84 29.18 121.96 28.75 120.01 L 29.09 118.18 C 29.73 117.75 30.36 117.31 31.00 116.88 Z" fill="#222033" />
<path d="M 112.24 117.03 C 112.91 117.30 113.56 117.62 114.18 117.98 C 113.65 119.90 113.61 121.31 114.69 123.04 C 115.03 126.16 115.64 129.17 116.75 132.12 C 117.20 133.76 117.66 135.40 118.09 137.04 C 118.50 138.83 116.97 141.57 119.92 140.82 C 120.15 139.19 119.63 137.94 118.98 136.48 L 119.49 135.05 C 122.04 137.75 122.72 141.08 123.96 144.46 C 126.73 151.56 130.85 158.38 134.22 165.25 C 133.00 167.02 129.66 167.63 131.91 170.00 C 133.51 172.43 135.29 174.74 137.11 177.02 C 135.73 177.60 134.30 178.00 132.86 178.38 C 130.37 177.50 128.97 175.52 127.56 173.42 C 120.15 162.23 115.82 148.76 112.41 135.89 C 109.28 128.51 112.56 123.93 112.24 117.03 Z" fill="#212541" />
<path d="M 233.82 117.08 C 234.09 122.30 234.62 127.07 231.04 131.31 C 234.77 130.72 231.30 136.64 231.67 138.63 C 232.53 144.31 229.29 150.23 228.44 156.42 C 227.95 159.97 225.82 157.34 223.75 158.82 C 221.45 161.29 220.98 165.68 217.48 166.69 C 215.89 163.54 214.57 158.78 210.00 160.80 L 209.73 158.95 C 210.81 155.20 215.08 154.98 215.86 151.34 C 217.73 147.87 219.53 145.17 222.44 142.49 C 225.22 137.35 227.02 131.85 228.27 126.16 C 228.78 124.39 229.30 122.63 229.93 120.89 C 231.13 118.76 230.65 116.70 233.82 117.08 Z" fill="#bcd1cd" />
<path d="M 114.18 117.98 C 115.94 118.81 115.10 121.61 114.69 123.04 C 113.61 121.31 113.65 119.90 114.18 117.98 Z" fill="#7f8397" />
<path d="M 141.92 118.07 C 140.84 121.66 138.23 123.96 138.51 128.05 C 138.97 132.74 136.16 135.87 132.71 138.60 C 130.68 138.70 127.35 137.27 125.75 138.69 C 125.02 140.56 124.58 142.54 123.96 144.46 C 122.72 141.08 122.04 137.75 119.49 135.05 L 118.98 136.48 L 118.09 137.04 C 117.66 135.40 117.20 133.76 116.75 132.12 C 121.43 133.62 120.34 133.35 123.65 130.18 C 125.50 131.87 126.45 136.19 127.76 131.51 C 134.67 132.94 135.52 118.52 141.92 118.07 Z" fill="#d6d8dd" />
<path d="M 60.89 118.84 C 62.04 122.63 56.26 130.01 53.00 125.05 C 53.74 124.45 54.48 123.85 55.21 123.25 C 58.99 123.00 59.18 121.77 60.89 118.84 Z" fill="#a9b8db" />
<path d="M 28.17 120.04 L 28.75 120.01 C 29.18 121.96 29.31 123.84 28.86 125.79 L 28.36 126.02 C 27.75 123.96 27.75 122.14 28.17 120.04 Z" fill="#888693" />
<path d="M 160.10 120.83 C 160.14 125.49 156.89 122.85 155.12 126.15 C 152.97 128.48 155.04 130.46 155.71 132.96 C 152.14 128.64 148.87 137.54 147.09 139.96 C 149.81 140.28 151.72 139.54 154.08 138.36 C 153.48 140.44 149.30 144.21 152.33 145.71 C 156.00 148.86 157.88 142.35 161.00 141.05 C 160.33 143.48 158.88 145.51 158.05 147.87 C 164.72 148.35 168.01 142.47 172.22 147.72 C 174.49 158.25 166.11 161.75 157.23 162.77 C 148.45 162.63 150.47 154.88 154.77 150.26 C 149.71 149.83 145.61 148.39 141.08 146.23 C 139.59 150.92 135.89 153.05 132.17 155.93 C 131.48 150.10 134.77 146.61 137.60 141.98 C 139.63 144.03 139.89 141.50 141.23 140.23 C 144.74 135.88 146.78 130.72 150.49 126.53 C 152.61 123.62 156.09 119.83 160.10 120.83 Z" fill="#dee0df" />
<path d="M 211.78 121.25 C 212.01 123.69 212.03 126.05 212.96 128.37 C 212.86 129.99 212.71 131.60 212.44 133.21 C 212.22 131.80 211.99 130.40 211.74 128.99 C 210.68 132.33 210.33 134.06 206.30 133.95 C 207.53 129.37 205.12 121.74 211.78 121.25 Z" fill="#bfd5cc" />
<path d="M 102.20 125.10 C 103.33 124.98 103.94 125.45 104.05 126.49 C 102.44 130.95 105.39 137.30 105.70 142.10 C 106.03 144.62 106.98 144.93 108.98 146.07 L 109.22 146.84 C 108.88 154.52 111.72 163.51 116.13 169.81 C 105.60 171.00 106.36 156.40 103.17 149.80 L 102.91 148.99 C 103.37 147.08 103.56 145.53 102.15 143.96 C 101.99 137.70 101.76 131.36 102.20 125.10 Z" fill="#1d2342" />
<path d="M 104.05 126.49 C 105.33 130.22 105.87 134.16 107.18 137.89 C 106.83 138.94 106.47 140.00 106.10 141.05 L 105.70 142.10 C 105.39 137.30 102.44 130.95 104.05 126.49 Z" fill="#8991b4" />
<path d="M 143.91 127.16 C 144.70 132.28 140.12 137.80 137.60 141.98 C 134.77 146.61 131.48 150.10 132.17 155.93 C 135.89 153.05 139.59 150.92 141.08 146.23 C 145.61 148.39 149.71 149.83 154.77 150.26 C 150.47 154.88 148.45 162.63 157.23 162.77 C 152.66 167.84 143.49 165.61 138.72 171.78 C 137.04 169.77 135.70 167.42 134.22 165.25 C 130.85 158.38 126.73 151.56 123.96 144.46 C 124.58 142.54 125.02 140.56 125.75 138.69 C 127.35 137.27 130.68 138.70 132.71 138.60 C 136.16 135.87 138.97 132.74 138.51 128.05 C 140.56 128.55 142.02 127.74 143.91 127.16 Z" fill="#c5cad3" />
<path d="M 195.17 129.77 C 196.75 130.48 198.31 131.22 199.82 132.08 C 200.69 134.49 204.90 138.15 203.69 140.66 C 201.53 144.59 197.42 141.94 197.54 138.07 C 191.94 151.85 186.69 164.11 171.69 169.71 C 168.03 171.68 164.01 176.19 159.75 176.55 C 153.77 175.88 148.13 177.64 142.13 176.82 C 143.02 174.77 139.60 173.46 138.72 171.78 C 145.07 175.49 150.39 173.56 157.03 172.05 C 160.90 171.46 161.98 167.19 165.93 166.08 C 167.49 166.84 168.18 168.12 169.96 166.97 C 176.64 163.41 183.57 158.32 188.44 152.50 C 189.06 149.90 187.56 146.32 188.05 143.34 C 193.86 144.16 197.55 134.55 195.17 129.77 Z" fill="#bfd2cc" />
<path d="M 94.38 134.04 C 96.47 135.54 95.85 137.72 96.32 140.02 C 95.67 142.50 95.31 144.63 96.73 146.94 L 97.04 147.74 C 97.15 155.29 100.38 161.40 103.27 168.13 C 101.80 168.53 100.34 168.95 98.86 169.32 C 96.72 168.00 93.60 166.44 92.38 164.19 C 94.49 163.59 94.60 162.36 93.05 160.93 C 92.93 155.99 93.07 151.05 92.97 146.11 C 92.96 144.34 92.90 142.58 92.86 140.82 C 93.34 138.55 93.82 136.29 94.38 134.04 Z" fill="#212643" />
<path d="M 35.17 138.08 C 34.18 139.02 33.37 139.59 32.02 139.89 C 32.76 137.84 33.07 134.13 35.17 138.08 Z" fill="#8d8d94" />
<path d="M 118.09 137.04 L 118.98 136.48 C 119.63 137.94 120.15 139.19 119.92 140.82 C 116.97 141.57 118.50 138.83 118.09 137.04 Z" fill="#65759b" />
<path d="M 35.17 138.08 C 36.96 139.76 38.81 139.23 40.97 138.81 C 42.41 140.14 41.17 140.39 40.56 141.69 C 43.53 142.57 43.68 143.65 44.86 146.28 C 46.04 149.61 51.04 150.82 53.66 153.05 C 55.23 154.38 56.07 152.91 57.04 151.75 C 57.18 154.41 60.04 154.84 61.93 156.00 C 63.09 157.21 64.30 158.16 65.85 158.81 C 63.06 163.10 67.89 168.40 71.27 164.25 C 74.97 160.74 69.30 156.65 65.85 158.81 C 66.68 155.55 64.46 155.41 61.93 156.00 C 62.69 155.64 63.45 155.28 64.22 154.93 C 65.21 154.75 66.19 154.50 67.14 154.19 C 72.62 152.50 76.88 146.98 79.08 141.89 C 79.44 142.62 79.82 143.35 80.21 144.06 C 80.09 146.31 80.05 148.54 80.11 150.79 C 79.60 155.09 80.64 158.65 81.78 162.70 C 81.47 164.13 81.25 165.54 81.11 166.99 C 75.55 171.43 65.99 171.23 60.96 166.04 C 56.79 161.06 53.17 153.88 47.23 150.76 C 42.53 148.39 38.21 146.32 34.11 150.93 C 32.77 152.64 26.12 154.89 30.93 156.32 C 29.00 158.30 27.87 160.96 25.98 162.89 C 24.47 163.64 25.20 158.89 24.92 158.03 C 26.67 151.96 28.36 145.10 32.02 139.89 C 33.37 139.59 34.18 139.02 35.17 138.08 Z" fill="#24243b" />
<path d="M 35.17 138.08 C 36.86 137.87 39.83 137.16 40.97 138.81 C 38.81 139.23 36.96 139.76 35.17 138.08 Z" fill="#92909e" />
<path d="M 182.90 138.06 C 182.25 142.77 183.26 147.33 182.31 152.03 C 186.21 150.83 186.08 145.13 188.05 143.34 C 187.56 146.32 189.06 149.90 188.44 152.50 C 183.57 158.32 176.64 163.41 169.96 166.97 C 168.18 168.12 167.49 166.84 165.93 166.08 C 171.68 163.31 180.89 158.91 177.80 151.04 C 176.04 145.99 180.95 142.62 182.90 138.06 Z" fill="#d5dbda" />
<path d="M 96.32 140.02 C 96.74 140.94 97.10 141.87 97.41 142.83 C 97.26 144.21 97.03 145.58 96.73 146.94 C 95.31 144.63 95.67 142.50 96.32 140.02 Z" fill="#6b759a" />
<path d="M 80.21 144.06 C 79.82 143.35 79.44 142.62 79.08 141.89 C 80.63 139.36 82.05 142.61 80.21 144.06 Z" fill="#99989c" />
<path d="M 92.86 140.82 C 92.90 142.58 92.96 144.34 92.97 146.11 L 92.10 145.81 C 91.62 142.12 90.76 145.85 90.14 147.09 C 89.65 150.29 89.81 153.37 91.16 156.34 C 91.45 157.78 91.77 159.22 92.06 160.66 C 90.52 162.51 89.87 167.85 86.52 165.49 C 84.52 162.98 83.42 165.20 81.78 162.70 C 80.64 158.65 79.60 155.09 80.11 150.79 C 80.54 152.14 80.95 153.50 81.38 154.85 C 84.00 149.48 88.58 144.93 92.86 140.82 Z" fill="#c4c8d1" />
<path d="M 106.10 141.05 C 107.95 142.46 108.46 143.86 108.98 146.07 C 106.98 144.93 106.03 144.62 105.70 142.10 L 106.10 141.05 Z" fill="#919cbd" />
<path d="M 97.41 142.83 C 98.32 146.83 100.61 149.64 102.92 152.89 C 103.02 151.86 103.11 150.83 103.17 149.80 C 106.36 156.40 105.60 171.00 116.13 169.81 C 117.75 169.91 116.78 164.10 117.18 162.80 C 118.91 164.31 121.14 164.59 120.42 167.36 C 119.97 171.98 123.43 173.68 127.20 174.97 C 126.21 175.94 125.14 176.88 123.98 177.65 C 120.50 173.68 117.45 171.88 111.99 172.18 C 110.99 171.80 110.00 171.41 109.01 171.02 C 102.14 167.41 106.98 170.71 101.74 170.93 C 100.78 170.40 99.82 169.86 98.86 169.32 C 100.34 168.95 101.80 168.53 103.27 168.13 C 104.13 167.98 105.00 167.82 105.86 167.64 C 104.93 159.02 99.34 155.75 97.04 147.74 L 96.73 146.94 C 97.03 145.58 97.26 144.21 97.41 142.83 Z" fill="#c2c9da" />
<path d="M 213.30 144.05 C 212.31 146.50 211.81 148.22 209.14 149.24 C 209.90 147.79 210.71 140.94 213.30 144.05 Z" fill="#6d7388" />
<path d="M 68.54 150.27 C 68.12 151.59 67.60 152.88 67.14 154.19 C 66.19 154.50 65.21 154.75 64.22 154.93 C 61.86 153.79 59.45 152.77 57.04 151.75 C 55.26 150.42 54.58 151.46 53.66 153.05 C 51.04 150.82 46.04 149.61 44.86 146.28 C 50.45 142.82 62.35 149.54 68.54 150.27 Z" fill="#cadcd6" />
<path d="M 92.10 145.81 C 92.02 149.47 92.37 152.81 91.16 156.34 C 89.81 153.37 89.65 150.29 90.14 147.09 C 90.76 145.85 91.62 142.12 92.10 145.81 Z" fill="#e7edf3" />
<path d="M 102.15 143.96 C 103.56 145.53 103.37 147.08 102.91 148.99 C 101.38 147.45 101.64 145.90 102.15 143.96 Z" fill="#999fb3" />
<path d="M 92.10 145.81 L 92.97 146.11 C 93.07 151.05 92.93 155.99 93.05 160.93 L 92.06 160.66 C 91.77 159.22 91.45 157.78 91.16 156.34 C 92.37 152.81 92.02 149.47 92.10 145.81 Z" fill="#7c829f" />
<path d="M 109.22 146.84 C 111.39 152.44 114.03 157.69 117.18 162.80 C 116.78 164.10 117.75 169.91 116.13 169.81 C 111.72 163.51 108.88 154.52 109.22 146.84 Z" fill="#7d91c7" />
<path d="M 47.23 150.76 C 53.17 153.88 56.79 161.06 60.96 166.04 C 65.99 171.23 75.55 171.43 81.11 166.99 C 85.93 166.73 87.81 169.99 84.82 173.82 C 80.80 173.91 76.98 175.33 73.94 177.96 C 75.09 180.79 76.24 182.28 79.12 183.50 C 76.07 184.07 72.87 184.10 69.78 184.28 C 66.79 183.97 63.80 183.97 60.81 184.01 C 60.96 181.62 59.81 180.80 57.97 179.62 C 57.37 179.15 56.78 178.69 56.17 178.23 C 53.25 175.77 50.74 173.21 46.99 172.02 C 45.57 170.01 44.48 168.64 41.98 167.98 C 39.51 164.91 33.84 157.72 29.36 160.05 C 30.74 164.64 38.26 165.38 41.98 167.98 C 43.40 169.96 44.53 171.35 46.99 172.02 C 49.17 175.01 52.12 176.89 55.01 179.10 C 52.79 180.43 47.00 175.49 43.86 175.17 C 41.31 174.33 38.37 171.93 40.39 169.13 C 35.19 168.57 34.55 163.02 29.65 165.65 C 29.05 169.12 28.06 173.54 33.02 173.90 C 37.55 173.87 35.66 176.25 35.46 179.33 C 32.30 176.60 25.05 171.90 26.91 166.98 C 30.83 164.16 28.40 160.89 26.03 165.93 L 24.83 167.25 C 24.04 164.04 23.25 161.14 24.92 158.03 C 25.20 158.89 24.47 163.64 25.98 162.89 C 27.87 160.96 29.00 158.30 30.93 156.32 C 32.71 154.44 35.97 154.00 34.11 150.93 C 38.21 146.32 42.53 148.39 47.23 150.76 Z" fill="#bfd2c9" />
<path d="M 97.04 147.74 C 99.34 155.75 104.93 159.02 105.86 167.64 C 105.00 167.82 104.13 167.98 103.27 168.13 C 100.38 161.40 97.15 155.29 97.04 147.74 Z" fill="#7485ca" />
<path d="M 34.11 150.93 C 35.97 154.00 32.71 154.44 30.93 156.32 C 26.12 154.89 32.77 152.64 34.11 150.93 Z" fill="#504e5e" />
<path d="M 57.04 151.75 C 56.07 152.91 55.23 154.38 53.66 153.05 C 54.58 151.46 55.26 150.42 57.04 151.75 Z" fill="#728888" />
<path d="M 57.04 151.75 C 59.45 152.77 61.86 153.79 64.22 154.93 C 63.45 155.28 62.69 155.64 61.93 156.00 C 60.04 154.84 57.18 154.41 57.04 151.75 Z" fill="#72838b" />
<path d="M 61.93 156.00 C 64.46 155.41 66.68 155.55 65.85 158.81 C 64.30 158.16 63.09 157.21 61.93 156.00 Z" fill="#6f7282" />
<path d="M 206.42 156.85 C 206.11 161.20 206.34 159.65 209.73 158.95 L 210.00 160.80 C 206.26 164.41 207.20 168.87 210.68 172.30 C 213.29 174.46 211.29 177.73 210.31 180.23 C 209.16 177.79 202.42 177.80 205.60 175.06 C 202.84 175.21 200.97 174.88 199.11 177.22 C 197.20 174.62 198.73 172.80 199.42 170.11 C 200.27 167.81 200.84 165.50 201.24 163.08 C 203.07 161.14 204.01 157.98 206.42 156.85 Z" fill="#d1dad9" />
<path d="M 71.27 164.25 C 67.89 168.40 63.06 163.10 65.85 158.81 C 69.30 156.65 74.97 160.74 71.27 164.25 Z" fill="#bc3750" />
<path d="M 41.98 167.98 C 38.26 165.38 30.74 164.64 29.36 160.05 C 33.84 157.72 39.51 164.91 41.98 167.98 Z" fill="#383a42" />
<path d="M 223.75 158.82 L 224.24 160.71 C 224.02 163.90 223.99 167.03 224.22 170.23 C 224.15 171.80 224.12 173.38 224.10 174.95 C 223.68 176.88 223.74 178.19 224.32 180.08 C 222.87 185.17 220.72 189.99 219.06 194.98 C 221.26 194.30 222.06 191.32 223.92 189.90 L 225.14 191.03 C 223.64 193.52 222.69 196.18 221.93 198.96 C 221.28 197.85 220.63 197.33 219.95 197.39 C 217.78 200.18 215.93 207.85 213.81 211.72 C 212.27 215.06 211.91 218.61 210.71 222.05 C 208.90 224.41 210.37 225.31 212.87 224.98 C 213.62 226.19 214.31 227.44 214.98 228.69 C 213.32 228.93 211.69 228.96 210.01 228.99 C 205.65 224.51 205.93 219.13 205.99 213.30 C 207.99 209.96 208.69 206.21 210.21 202.71 C 214.74 203.30 213.00 198.16 215.79 195.78 C 219.29 192.15 220.17 184.38 219.48 179.60 C 218.35 176.64 218.74 171.52 214.32 171.93 C 216.87 176.47 215.76 183.48 211.68 186.70 C 206.03 186.95 199.57 183.55 196.55 178.66 C 196.34 175.39 196.01 172.11 195.91 168.83 C 197.98 168.44 198.71 167.39 199.42 170.11 C 198.73 172.80 197.20 174.62 199.11 177.22 C 201.74 180.68 206.29 182.31 210.31 180.23 C 211.29 177.73 213.29 174.46 210.68 172.30 C 207.20 168.87 206.26 164.41 210.00 160.80 C 214.57 158.78 215.89 163.54 217.48 166.69 C 220.98 165.68 221.45 161.29 223.75 158.82 Z" fill="#242740" />
<path d="M 93.05 160.93 C 94.60 162.36 94.49 163.59 92.38 164.19 C 92.08 163.24 92.30 162.15 93.05 160.93 Z" fill="#8b90a1" />
<path d="M 224.24 160.71 C 225.36 164.22 225.35 166.72 224.22 170.23 C 223.99 167.03 224.02 163.90 224.24 160.71 Z" fill="#a8b0b3" />
<path d="M 26.91 166.98 L 26.03 165.93 C 28.40 160.89 30.83 164.16 26.91 166.98 Z" fill="#8e8e86" />
<path d="M 201.24 163.08 C 200.84 165.50 200.27 167.81 199.42 170.11 C 198.71 167.39 197.98 168.44 195.91 168.83 C 196.63 165.77 198.21 163.99 201.24 163.08 Z" fill="#727985" />
<path d="M 40.39 169.13 C 38.37 171.93 41.31 174.33 43.86 175.17 C 47.00 175.49 52.79 180.43 55.01 179.10 L 56.17 178.23 C 56.78 178.69 57.37 179.15 57.97 179.62 C 56.54 181.91 59.36 182.88 60.81 184.01 C 61.47 185.25 62.16 186.47 62.91 187.65 C 60.24 190.09 63.85 189.72 60.35 192.40 C 61.79 195.44 65.80 196.65 67.17 199.55 C 65.77 199.43 64.37 199.23 62.98 199.04 C 58.29 194.63 52.69 193.32 46.92 191.21 C 45.21 186.60 40.06 188.79 40.15 183.73 C 38.10 182.84 35.78 182.76 34.27 181.11 C 35.66 180.68 35.36 180.60 35.46 179.33 C 35.66 176.25 37.55 173.87 33.02 173.90 C 28.06 173.54 29.05 169.12 29.65 165.65 C 34.55 163.02 35.19 168.57 40.39 169.13 Z" fill="#bcb7a5" />
<path d="M 134.22 165.25 C 135.70 167.42 137.04 169.77 138.72 171.78 C 139.60 173.46 143.02 174.77 142.13 176.82 C 137.91 179.43 138.00 180.53 132.86 178.38 C 134.30 178.00 135.73 177.60 137.11 177.02 C 139.02 175.20 134.59 169.59 131.91 170.00 C 129.66 167.63 133.00 167.02 134.22 165.25 Z" fill="#8fa0c8" />
<path d="M 26.03 165.93 L 26.91 166.98 C 25.05 171.90 32.30 176.60 35.46 179.33 C 35.36 180.60 35.66 180.68 34.27 181.11 C 31.45 178.37 28.48 175.86 25.91 172.88 C 25.29 171.04 25.01 169.17 24.83 167.25 L 26.03 165.93 Z" fill="#3c3a3b" />
<path d="M 41.98 167.98 C 44.48 168.64 45.57 170.01 46.99 172.02 C 44.53 171.35 43.40 169.96 41.98 167.98 Z" fill="#1f2b32" />
<path d="M 109.01 171.02 C 104.98 173.22 111.12 174.76 111.99 172.18 C 117.45 171.88 120.50 173.68 123.98 177.65 C 118.60 181.84 113.39 183.61 107.18 179.77 C 105.11 177.04 104.00 173.64 101.74 170.93 C 106.98 170.71 102.14 167.41 109.01 171.02 Z" fill="#272941" />
<path d="M 131.91 170.00 C 134.59 169.59 139.02 175.20 137.11 177.02 C 135.29 174.74 133.51 172.43 131.91 170.00 Z" fill="#525a92" />
<path d="M 109.01 171.02 C 110.00 171.41 110.99 171.80 111.99 172.18 C 111.12 174.76 104.98 173.22 109.01 171.02 Z" fill="#767691" />
<path d="M 46.99 172.02 C 50.74 173.21 53.25 175.77 56.17 178.23 L 55.01 179.10 C 52.12 176.89 49.17 175.01 46.99 172.02 Z" fill="#57625f" />
<path d="M 182.01 172.09 C 181.73 175.81 178.37 179.09 176.70 182.37 C 174.97 181.89 174.04 181.04 172.34 182.28 C 168.39 185.19 175.44 186.10 171.25 189.88 C 168.30 186.98 166.99 189.88 164.79 191.92 C 163.00 190.68 161.24 189.41 159.51 188.09 C 160.95 186.17 162.94 184.32 165.15 183.38 C 171.74 184.95 176.58 174.84 182.01 172.09 Z" fill="#b1c0c1" />
<path d="M 25.91 172.88 C 28.48 175.86 31.45 178.37 34.27 181.11 C 35.78 182.76 38.10 182.84 40.15 183.73 C 40.06 188.79 45.21 186.60 46.92 191.21 C 42.14 190.53 40.26 187.59 36.36 185.67 C 30.92 184.46 29.53 179.60 24.50 177.55 C 24.80 175.96 25.41 174.42 25.91 172.88 Z" fill="#d7d4c9" />
<path d="M 84.82 173.82 C 88.47 178.10 89.81 183.66 93.28 188.14 C 92.10 192.70 86.77 190.44 83.23 191.25 C 80.00 190.99 76.90 190.71 73.74 191.66 C 72.42 191.96 71.12 192.30 69.83 192.69 L 67.90 193.24 C 65.86 191.75 64.91 189.26 62.91 187.65 C 62.16 186.47 61.47 185.25 60.81 184.01 C 63.80 183.97 66.79 183.97 69.78 184.28 C 74.27 185.41 79.88 185.35 84.42 184.45 C 89.35 185.02 84.37 176.09 81.34 178.36 C 76.80 178.92 82.03 180.89 82.93 182.71 C 81.67 183.01 80.40 183.27 79.12 183.50 C 76.24 182.28 75.09 180.79 73.94 177.96 C 76.98 175.33 80.80 173.91 84.82 173.82 Z" fill="#22273c" />
<path d="M 205.60 175.06 C 202.42 177.80 209.16 177.79 210.31 180.23 C 206.29 182.31 201.74 180.68 199.11 177.22 C 200.97 174.88 202.84 175.21 205.60 175.06 Z" fill="#aab2bb" />
<path d="M 224.10 174.95 C 225.77 176.71 225.60 178.16 224.32 180.08 C 223.74 178.19 223.68 176.88 224.10 174.95 Z" fill="#6e6d7b" />
<path d="M 81.34 178.36 C 84.37 176.09 89.35 185.02 84.42 184.45 C 79.88 185.35 74.27 185.41 69.78 184.28 C 72.87 184.10 76.07 184.07 79.12 183.50 C 80.40 183.27 81.67 183.01 82.93 182.71 C 82.03 180.89 76.80 178.92 81.34 178.36 Z" fill="#9dabb1" />
<path d="M 57.97 179.62 C 59.81 180.80 60.96 181.62 60.81 184.01 C 59.36 182.88 56.54 181.91 57.97 179.62 Z" fill="#2e3334" />
<path d="M 103.54 184.95 C 104.97 185.66 106.49 185.94 108.04 186.24 C 110.34 187.51 117.43 186.20 117.77 187.93 C 114.16 191.03 106.56 192.86 101.72 190.81 C 100.06 189.09 99.79 187.00 99.20 184.78 C 98.50 181.32 102.01 184.76 103.54 184.95 Z" fill="#25283e" />
<path d="M 108.04 186.24 C 106.49 185.94 104.97 185.66 103.54 184.95 C 105.64 184.20 107.89 182.82 108.04 186.24 Z" fill="#92939b" />
<path d="M 186.01 185.90 C 187.59 190.29 182.54 197.31 188.10 201.56 C 193.18 198.24 193.25 204.86 193.80 208.24 C 196.05 208.39 198.01 208.36 200.07 209.47 C 188.94 221.39 172.87 231.27 155.96 230.20 C 157.63 227.73 158.96 225.18 160.11 222.43 C 164.12 221.36 172.76 217.47 175.75 214.69 C 176.54 209.33 175.71 211.49 172.20 212.49 C 169.43 206.82 164.50 211.26 158.56 209.52 C 156.41 214.07 156.19 209.02 152.13 211.09 C 148.30 212.04 150.56 215.62 153.33 215.96 C 152.54 216.62 151.73 217.29 150.93 217.95 C 148.96 218.55 145.13 218.44 143.91 220.16 C 145.76 227.01 152.25 220.90 154.51 217.74 C 154.91 220.03 153.21 221.11 152.18 222.97 C 154.26 222.92 156.32 222.71 158.39 222.56 C 153.90 226.31 151.63 230.59 144.99 228.15 C 143.92 227.85 142.89 227.83 141.92 228.07 L 139.95 228.37 C 141.92 225.70 135.17 215.31 136.44 223.07 C 132.30 222.28 133.17 222.21 134.81 219.01 C 131.83 217.30 132.15 216.26 131.65 213.06 C 131.01 214.60 130.45 216.13 129.73 217.63 C 126.46 216.63 122.30 215.56 119.74 213.24 C 117.31 211.45 121.67 209.78 122.91 208.85 C 127.32 205.71 134.99 206.44 135.90 199.90 C 138.38 199.41 139.99 199.19 140.60 196.35 C 141.74 191.95 146.76 193.93 150.10 192.86 C 150.00 198.06 158.88 203.98 161.67 197.64 C 162.72 195.46 161.50 194.32 160.28 192.67 L 161.02 191.71 C 168.05 195.16 167.91 202.41 159.99 204.38 C 157.35 200.59 154.89 205.62 159.66 205.19 C 165.32 207.60 166.46 204.55 167.88 199.81 C 168.02 206.81 169.80 198.94 170.34 196.74 C 170.86 193.88 171.72 190.49 175.41 192.68 C 178.25 195.01 178.70 190.55 179.28 188.69 C 180.51 188.88 181.71 189.17 182.94 189.36 C 184.31 187.53 183.15 181.94 186.01 185.90 Z" fill="#c7d5cd" />
<path d="M 99.20 184.78 C 99.79 187.00 100.06 189.09 101.72 190.81 C 100.48 193.27 105.45 193.66 106.96 193.65 C 106.64 195.16 106.12 196.67 105.66 198.15 C 103.64 199.92 101.77 201.78 100.12 203.91 C 94.93 204.38 97.20 200.61 92.16 201.36 C 89.44 195.48 85.35 197.70 80.72 194.30 C 76.69 193.94 72.13 195.54 67.97 195.70 C 68.95 194.43 74.30 192.86 69.83 192.69 C 71.12 192.30 72.42 191.96 73.74 191.66 C 77.00 192.01 80.07 192.35 83.23 191.25 C 86.77 190.44 92.10 192.70 93.28 188.14 C 96.94 184.35 96.78 186.53 98.85 189.93 C 98.99 188.22 99.09 186.50 99.20 184.78 Z" fill="#c9cfc6" />
<path d="M 154.22 187.97 C 152.85 189.60 151.49 191.24 150.10 192.86 C 146.76 193.93 141.74 191.95 140.60 196.35 C 139.99 199.19 138.38 199.41 135.90 199.90 C 134.99 206.44 127.32 205.71 122.91 208.85 C 121.67 209.78 117.31 211.45 119.74 213.24 C 122.30 215.56 126.46 216.63 129.73 217.63 C 130.45 216.13 131.01 214.60 131.65 213.06 C 132.15 216.26 131.83 217.30 134.81 219.01 C 133.17 222.21 132.30 222.28 136.44 223.07 C 135.17 215.31 141.92 225.70 139.95 228.37 C 139.30 228.96 138.64 229.55 137.98 230.13 C 134.74 228.52 131.45 228.86 127.96 229.21 C 130.82 232.72 138.65 231.23 142.81 232.03 C 141.80 233.48 141.34 235.24 139.17 234.67 C 130.91 233.35 121.54 235.47 114.08 231.91 C 110.87 230.70 107.12 230.62 103.71 230.46 C 102.33 230.36 100.44 231.03 99.21 230.40 C 99.34 227.29 96.36 223.84 93.13 223.87 C 90.98 222.50 89.93 221.46 89.12 218.99 C 93.52 219.79 96.32 223.26 100.34 224.57 C 103.43 225.66 108.44 224.01 107.44 228.94 C 108.77 228.52 112.30 227.77 110.05 226.02 C 107.96 224.57 112.22 223.95 113.08 223.16 C 115.80 224.41 116.12 226.33 116.76 228.96 C 118.97 228.28 119.09 227.31 119.04 225.13 C 115.02 221.15 109.72 218.38 105.92 214.05 C 104.36 212.04 104.84 213.50 103.86 214.80 C 103.47 214.04 103.11 213.27 102.78 212.48 L 103.79 212.13 C 106.80 211.30 111.98 205.32 110.91 202.01 C 107.64 204.00 106.44 208.20 104.29 211.32 C 96.90 204.20 106.94 199.82 111.85 195.76 C 117.72 191.93 125.83 192.86 130.91 188.76 C 132.92 187.44 134.78 190.09 136.48 190.99 C 135.67 186.53 137.58 188.49 140.78 188.12 C 143.72 189.86 145.54 191.37 148.11 188.03 C 150.58 186.72 151.70 187.04 154.22 187.97 Z" fill="#b2bdc1" />
<path d="M 62.91 187.65 C 64.91 189.26 65.86 191.75 67.90 193.24 C 63.97 195.37 68.28 197.65 69.87 199.85 C 67.82 200.24 68.58 200.31 68.75 201.97 C 64.26 200.80 65.62 205.70 62.98 199.04 C 64.37 199.23 65.77 199.43 67.17 199.55 C 65.80 196.65 61.79 195.44 60.35 192.40 C 63.85 189.72 60.24 190.09 62.91 187.65 Z" fill="#d0cdc0" />
<path d="M 140.78 188.12 C 143.23 188.08 145.67 188.06 148.11 188.03 C 145.54 191.37 143.72 189.86 140.78 188.12 Z" fill="#7b858a" />
<path d="M 154.22 187.97 C 156.01 188.25 157.71 188.42 159.51 188.09 C 161.24 189.41 163.00 190.68 164.79 191.92 C 166.86 194.44 167.71 196.54 167.88 199.81 C 166.46 204.55 165.32 207.60 159.66 205.19 L 159.99 204.38 C 167.91 202.41 168.05 195.16 161.02 191.71 C 159.70 190.76 157.35 190.49 156.09 191.66 C 152.42 194.37 154.42 194.98 157.02 197.20 C 158.08 195.87 158.75 194.42 159.52 192.92 L 160.28 192.67 C 161.50 194.32 162.72 195.46 161.67 197.64 C 158.88 203.98 150.00 198.06 150.10 192.86 C 151.49 191.24 152.85 189.60 154.22 187.97 Z" fill="#272c3f" />
<path d="M 225.14 191.03 L 223.92 189.90 C 225.35 186.54 227.43 188.98 225.14 191.03 Z" fill="#91929a" />
<path d="M 130.91 188.76 C 125.83 192.86 117.72 191.93 111.85 195.76 L 111.75 194.77 C 117.00 190.86 124.67 190.32 130.91 188.76 Z" fill="#6d767b" />
<path d="M 83.23 191.25 C 80.07 192.35 77.00 192.01 73.74 191.66 C 76.90 190.71 80.00 190.99 83.23 191.25 Z" fill="#6b6d7a" />
<path d="M 161.02 191.71 L 160.28 192.67 L 159.52 192.92 C 158.38 192.49 157.24 192.07 156.09 191.66 C 157.35 190.49 159.70 190.76 161.02 191.71 Z" fill="#666c84" />
<path d="M 156.09 191.66 C 157.24 192.07 158.38 192.49 159.52 192.92 C 158.75 194.42 158.08 195.87 157.02 197.20 C 154.42 194.98 152.42 194.37 156.09 191.66 Z" fill="#b2bfcb" />
<path d="M 67.90 193.24 L 69.83 192.69 C 74.30 192.86 68.95 194.43 67.97 195.70 C 72.13 195.54 76.69 193.94 80.72 194.30 C 85.35 197.70 89.44 195.48 92.16 201.36 C 97.20 200.61 94.93 204.38 100.12 203.91 C 99.53 207.68 100.88 209.51 102.78 212.48 C 103.11 213.27 103.47 214.04 103.86 214.80 C 106.33 218.23 109.30 221.20 113.08 223.16 C 112.22 223.95 107.96 224.57 110.05 226.02 C 112.30 227.77 108.77 228.52 107.44 228.94 C 108.44 224.01 103.43 225.66 100.34 224.57 C 96.32 223.26 93.52 219.79 89.12 218.99 C 89.93 221.46 90.98 222.50 93.13 223.87 C 88.13 226.11 88.18 221.61 87.39 218.04 C 87.42 217.10 87.45 216.17 87.46 215.23 C 89.22 214.42 88.24 213.03 88.42 211.48 C 89.82 211.18 91.34 211.89 91.92 210.21 C 88.33 207.48 83.89 208.43 80.54 205.52 C 77.14 203.13 73.75 201.35 69.87 199.85 C 68.28 197.65 63.97 195.37 67.90 193.24 Z" fill="#e2e0da" />
<path d="M 111.75 194.77 L 111.85 195.76 C 106.94 199.82 96.90 204.20 104.29 211.32 L 103.79 212.13 L 102.78 212.48 C 100.88 209.51 99.53 207.68 100.12 203.91 C 101.77 201.78 103.64 199.92 105.66 198.15 C 107.61 196.86 109.63 195.75 111.75 194.77 Z" fill="#4a4b54" />
<path d="M 219.95 197.39 C 220.63 197.33 221.28 197.85 221.93 198.96 C 220.59 202.83 219.41 199.65 219.95 197.39 Z" fill="#6e6d7e" />
<path d="M 69.87 199.85 C 73.75 201.35 77.14 203.13 80.54 205.52 C 83.89 208.43 88.33 207.48 91.92 210.21 C 91.34 211.89 89.82 211.18 88.42 211.48 C 88.24 213.03 89.22 214.42 87.46 215.23 C 82.69 208.11 76.06 205.99 68.75 201.97 C 68.58 200.31 67.82 200.24 69.87 199.85 Z" fill="#b7b0a1" />
<path d="M 110.91 202.01 C 111.98 205.32 106.80 211.30 103.79 212.13 L 104.29 211.32 C 106.44 208.20 107.64 204.00 110.91 202.01 Z" fill="#dce2dd" />
<path d="M 145.18 202.20 C 148.35 201.84 151.59 201.88 154.77 202.09 C 155.17 203.45 150.92 202.85 150.05 203.25 C 148.45 202.98 144.16 205.30 145.18 202.20 Z" fill="#596a6d" />
<path d="M 159.99 204.38 L 159.66 205.19 C 154.89 205.62 157.35 200.59 159.99 204.38 Z" fill="#707b78" />
<path d="M 141.87 204.95 C 140.83 206.50 139.54 207.88 138.56 209.47 C 137.68 211.29 137.05 213.22 136.18 215.05 C 135.09 209.92 137.11 206.69 141.87 204.95 Z" fill="#314147" />
<path d="M 158.56 209.52 C 164.50 211.26 169.43 206.82 172.20 212.49 C 175.71 211.49 176.54 209.33 175.75 214.69 C 172.76 217.47 164.12 221.36 160.11 222.43 L 158.39 222.56 C 156.32 222.71 154.26 222.92 152.18 222.97 C 153.21 221.11 154.91 220.03 154.51 217.74 C 154.41 216.47 154.77 216.29 153.33 215.96 C 150.56 215.62 148.30 212.04 152.13 211.09 C 156.19 209.02 156.41 214.07 158.56 209.52 Z" fill="#cacab9" />
<path d="M 205.16 212.70 C 203.97 214.86 202.90 217.07 201.75 219.24 C 201.20 217.12 200.85 214.97 200.58 212.79 C 200.70 211.79 200.81 210.79 200.92 209.79 C 205.02 209.00 204.80 208.04 205.16 212.70 Z" fill="#1e1e37" />
<path d="M 200.07 209.47 L 200.92 209.79 C 200.81 210.79 200.70 211.79 200.58 212.79 C 200.06 214.87 198.96 226.43 201.75 219.24 C 202.90 217.07 203.97 214.86 205.16 212.70 L 205.99 213.30 C 205.93 219.13 205.65 224.51 210.01 228.99 C 206.28 228.57 210.29 230.60 210.92 231.85 C 203.77 233.01 197.21 230.05 190.15 231.26 C 179.45 232.21 169.45 240.10 158.03 240.20 C 143.22 244.80 127.06 243.21 112.00 240.88 C 99.53 238.25 89.72 243.10 78.35 235.60 C 77.55 233.16 78.74 230.25 78.21 227.64 C 81.42 226.37 86.01 227.35 84.36 231.92 C 86.65 232.35 88.33 230.01 90.10 228.85 C 92.40 229.23 94.47 229.25 96.77 228.99 C 97.57 229.48 98.39 229.95 99.21 230.40 C 100.44 231.03 102.33 230.36 103.71 230.46 C 106.55 234.40 110.16 232.95 114.08 231.91 C 121.54 235.47 130.91 233.35 139.17 234.67 C 141.34 235.24 141.80 233.48 142.81 232.03 L 143.23 231.33 C 149.03 232.99 150.66 234.12 155.96 230.20 C 172.87 231.27 188.94 221.39 200.07 209.47 Z" fill="#f3f3f1" />
<path d="M 93.94 212.17 C 95.83 211.99 102.28 211.89 101.94 214.85 C 99.04 214.39 96.33 214.02 93.94 212.17 Z" fill="#b9b0a3" />
<path d="M 147.42 212.44 C 152.06 211.07 138.74 221.46 140.07 215.07 C 140.12 212.40 145.56 213.04 147.42 212.44 Z" fill="#383e48" />
<path d="M 213.81 211.72 C 216.11 215.34 218.13 224.95 210.71 222.05 C 211.91 218.61 212.27 215.06 213.81 211.72 Z" fill="#acb5bc" />
<path d="M 105.92 214.05 C 109.72 218.38 115.02 221.15 119.04 225.13 C 119.09 227.31 118.97 228.28 116.76 228.96 C 116.12 226.33 115.80 224.41 113.08 223.16 C 109.30 221.20 106.33 218.23 103.86 214.80 C 104.84 213.50 104.36 212.04 105.92 214.05 Z" fill="#2f2f42" />
<path d="M 200.58 212.79 C 200.85 214.97 201.20 217.12 201.75 219.24 C 198.96 226.43 200.06 214.87 200.58 212.79 Z" fill="#636370" />
<path d="M 153.33 215.96 C 154.77 216.29 154.41 216.47 154.51 217.74 C 152.25 220.90 145.76 227.01 143.91 220.16 C 146.72 219.97 148.88 220.18 150.93 217.95 C 151.73 217.29 152.54 216.62 153.33 215.96 Z" fill="#2b2b34" />
<path d="M 87.39 218.04 C 88.18 221.61 88.13 226.11 93.13 223.87 C 96.36 223.84 99.34 227.29 99.21 230.40 C 98.39 229.95 97.57 229.48 96.77 228.99 C 94.95 227.26 91.97 227.13 90.10 228.85 C 88.33 230.01 86.65 232.35 84.36 231.92 C 86.01 227.35 81.42 226.37 78.21 227.64 L 77.45 228.14 C 74.14 231.67 73.05 227.22 74.85 224.82 C 78.04 221.13 81.64 214.67 87.39 218.04 Z" fill="#26283f" />
<path d="M 150.93 217.95 C 148.88 220.18 146.72 219.97 143.91 220.16 C 145.13 218.44 148.96 218.55 150.93 217.95 Z" fill="#787777" />
<path d="M 158.39 222.56 L 160.11 222.43 C 158.96 225.18 157.63 227.73 155.96 230.20 C 150.66 234.12 149.03 232.99 143.23 231.33 C 141.41 230.99 139.69 230.87 137.98 230.13 C 138.64 229.55 139.30 228.96 139.95 228.37 L 141.92 228.07 C 141.83 231.01 144.33 230.42 144.99 228.15 C 151.63 230.59 153.90 226.31 158.39 222.56 Z" fill="#292b3e" />
<path d="M 210.71 222.05 C 211.51 222.96 212.27 223.92 212.87 224.98 C 210.37 225.31 208.90 224.41 210.71 222.05 Z" fill="#818294" />
<path d="M 96.77 228.99 C 94.47 229.25 92.40 229.23 90.10 228.85 C 91.97 227.13 94.95 227.26 96.77 228.99 Z" fill="#868995" />
<path d="M 141.92 228.07 C 142.89 227.83 143.92 227.85 144.99 228.15 C 144.33 230.42 141.83 231.01 141.92 228.07 Z" fill="#717584" />
<path d="M 127.96 229.21 C 131.45 228.86 134.74 228.52 137.98 230.13 C 139.69 230.87 141.41 230.99 143.23 231.33 L 142.81 232.03 C 138.65 231.23 130.82 232.72 127.96 229.21 Z" fill="#4f5966" />
<path d="M 103.71 230.46 C 107.12 230.62 110.87 230.70 114.08 231.91 C 110.16 232.95 106.55 234.40 103.71 230.46 Z" fill="#474f58" />
</svg>