<?xml version="1.0" encoding="UTF-8" standalone="no"?>
<!DOCTYPE svg PUBLIC "-//W3C//DTD SVG 1.1//EN" "http://www.w3.org/Graphics/SVG/1.1/DTD/svg11.dtd">
<svg xmlns="http://www.w3.org/2000/svg" version="1.1" viewBox="0 0 256 256" width="256.0pt" height="256.0pt">
<path d="M 0.00 0.00 L 256.00 0.00 L 256.00 256.00 L 0.00 256.00 L 0.00 0.00 Z" fill="#fdfdfc" />
<path d="M 189.62 13.47 C 193.45 14.41 197.02 15.24 201.01 15.02 C 208.08 14.75 212.91 18.17 219.28 20.73 C 226.12 28.81 231.35 39.65 235.39 49.45 C 236.25 56.30 239.65 62.10 240.11 68.99 C 242.41 82.57 240.96 95.95 235.65 108.59 C 234.92 109.10 230.52 108.83 233.23 109.89 C 237.10 110.92 231.53 114.39 232.03 117.00 C 230.64 127.91 236.02 134.68 239.98 144.00 C 243.27 152.91 241.03 161.09 242.79 170.04 C 243.11 186.75 244.15 206.17 236.30 221.33 C 232.32 230.32 224.78 235.11 216.39 239.40 C 202.41 243.87 189.71 241.09 175.63 240.45 C 158.59 238.74 141.28 241.37 124.40 240.47 C 118.46 241.57 113.09 239.60 107.00 241.04 C 88.73 238.46 70.02 241.32 51.98 238.98 C 45.00 237.53 36.96 236.33 31.59 231.42 C 22.46 225.25 19.05 213.90 14.64 204.49 C 18.50 201.58 16.42 195.21 19.02 191.01 C 23.96 181.00 14.90 172.55 15.96 164.00 C 17.49 151.15 12.12 140.53 11.22 127.94 C 11.17 120.68 14.13 115.74 17.32 109.61 C 20.79 112.63 19.42 107.25 21.77 105.81 C 30.05 99.46 36.02 92.35 46.84 90.75 C 56.50 85.58 67.04 84.88 76.62 79.59 C 81.60 77.92 81.03 71.37 77.30 68.71 C 69.80 62.03 61.81 65.90 53.82 61.25 C 44.08 56.88 37.54 45.28 40.36 34.72 C 41.11 31.25 42.01 29.73 45.92 30.04 L 46.47 32.09 C 41.49 30.42 43.06 34.43 44.84 37.09 C 43.05 39.08 44.09 40.55 45.90 41.94 C 53.40 47.81 57.73 54.64 67.93 56.16 C 69.27 57.49 70.39 57.38 72.09 56.85 C 87.39 57.54 98.79 73.27 113.61 76.51 C 116.82 77.63 119.82 79.53 122.79 81.17 C 118.82 84.94 122.78 84.32 125.55 82.89 C 126.72 83.57 127.87 84.29 129.02 85.01 C 129.85 86.52 131.02 87.58 132.42 85.90 C 133.25 86.60 134.06 87.30 134.87 88.03 C 136.20 91.33 138.16 90.79 141.22 90.79 C 143.58 91.94 145.83 93.38 147.94 94.94 C 148.98 98.07 152.83 101.06 156.20 100.80 C 156.82 104.52 157.92 106.84 161.04 109.06 C 161.49 110.33 161.90 111.60 162.30 112.88 C 161.64 114.56 161.44 115.80 162.87 117.11 L 162.79 118.92 C 161.32 120.84 161.30 122.16 162.81 124.05 C 162.50 126.77 162.50 129.23 162.81 131.94 C 161.35 133.61 161.63 135.14 162.34 137.08 C 160.99 142.56 158.01 147.07 155.75 152.13 C 154.73 151.83 153.75 151.43 152.82 150.93 C 153.30 148.45 153.26 146.49 152.70 144.03 C 152.93 142.08 153.15 140.13 153.40 138.18 C 154.12 134.79 154.24 131.45 153.85 128.00 C 152.46 129.59 152.75 132.85 152.38 134.91 C 149.19 140.17 147.34 143.77 145.91 149.99 C 144.46 151.52 144.74 152.37 145.88 153.97 C 142.14 155.34 145.92 163.77 142.19 162.83 C 141.78 159.18 142.55 156.04 141.00 152.68 C 140.17 147.84 140.02 142.98 139.86 138.08 C 137.43 142.32 138.48 150.17 139.27 155.03 L 139.34 155.82 C 138.75 161.85 139.05 167.79 139.03 173.83 L 138.30 174.90 L 138.07 173.86 C 137.07 168.55 135.88 163.14 135.82 157.78 C 135.97 155.27 135.79 153.96 134.25 151.95 C 133.83 156.07 133.95 160.10 134.18 164.23 C 134.59 168.51 134.85 172.90 135.55 177.14 C 136.03 178.48 136.65 179.75 137.24 181.04 C 136.99 183.64 135.68 182.05 133.94 182.00 C 132.18 177.32 129.65 178.76 131.66 183.04 C 133.27 184.86 135.21 186.23 137.14 187.80 C 133.78 188.48 130.39 189.07 127.05 189.81 C 122.72 190.05 119.54 192.30 116.06 194.61 C 113.34 196.02 110.55 197.08 108.07 198.92 C 105.94 199.69 103.87 200.48 101.93 201.67 C 100.72 201.58 99.53 201.68 98.33 201.81 C 95.72 199.40 93.65 197.82 93.76 193.90 C 96.71 188.99 100.44 183.27 105.73 180.70 C 109.20 178.91 103.87 172.28 107.92 171.73 C 109.40 174.79 111.53 177.34 113.37 180.18 C 114.45 182.00 116.22 186.27 118.77 185.95 C 119.85 184.90 120.82 183.75 121.90 182.70 C 127.22 184.59 125.75 184.26 125.81 179.24 C 125.99 176.34 126.21 173.57 125.26 170.76 C 124.70 168.55 124.15 166.35 123.73 164.11 C 124.38 162.43 124.53 161.30 123.23 159.91 C 122.63 154.14 121.15 148.63 119.78 143.02 C 119.64 139.96 122.34 142.85 123.93 142.91 C 124.44 138.74 120.96 136.44 122.56 132.61 C 124.45 127.32 126.95 122.43 127.90 116.81 C 133.10 112.07 132.13 106.29 135.44 99.98 C 136.47 98.10 137.41 96.17 138.00 94.10 C 136.67 95.02 135.44 96.06 134.20 97.10 C 132.55 95.00 131.41 95.82 129.08 95.95 C 126.76 95.93 125.82 96.69 126.15 99.08 C 123.55 100.56 121.27 102.19 119.03 104.16 C 116.91 105.64 116.38 105.56 113.92 104.85 C 117.86 100.64 124.65 97.23 127.11 92.17 C 125.62 92.66 124.23 93.30 122.87 94.07 C 119.80 92.72 117.20 92.02 113.83 92.64 C 110.47 92.92 107.74 94.07 104.45 93.02 C 102.18 91.91 101.10 91.82 98.70 92.61 L 96.60 93.18 C 93.84 84.52 102.52 90.64 105.04 86.12 C 100.37 85.92 95.57 86.85 91.04 87.89 C 83.55 90.52 70.21 87.99 65.62 95.13 C 60.10 98.32 54.95 102.14 49.42 105.30 C 51.03 100.98 45.89 104.60 43.91 104.72 C 36.83 107.70 21.74 109.43 20.82 118.93 C 19.79 122.99 19.96 127.04 20.13 131.18 C 19.56 135.81 20.46 139.88 21.40 144.34 C 21.85 145.38 20.45 149.13 22.53 147.51 C 23.78 143.67 25.65 140.66 27.78 137.29 C 31.84 134.00 30.61 135.40 32.93 138.95 C 32.97 137.06 31.91 134.50 32.97 132.83 C 35.25 133.15 37.49 133.56 39.80 133.64 C 40.95 133.93 42.09 134.27 43.21 134.67 C 40.94 136.17 32.03 141.31 36.62 144.16 C 38.54 146.44 39.62 143.69 39.91 141.93 C 45.80 136.58 43.54 146.50 49.31 146.68 C 52.66 146.58 55.63 141.60 59.74 142.19 C 62.47 143.05 66.56 143.83 69.07 142.07 C 70.72 141.05 72.30 139.91 73.90 138.80 L 75.07 139.93 C 72.31 142.63 61.69 148.67 64.21 153.11 C 57.82 154.89 50.93 157.32 44.29 157.59 C 39.47 155.56 35.88 150.95 31.14 148.94 C 36.38 155.06 39.48 160.90 36.08 168.96 C 28.57 170.86 27.72 169.27 21.91 165.17 C 23.87 169.49 28.55 173.56 32.91 175.37 C 34.64 176.50 36.17 176.36 38.08 175.79 L 39.89 175.87 C 41.61 176.38 42.75 176.47 44.11 175.16 L 45.92 174.78 C 47.87 175.36 49.42 175.56 51.10 174.21 L 51.87 173.87 C 53.52 174.34 54.72 174.51 55.98 173.14 C 58.65 173.04 61.35 173.06 64.02 172.83 C 65.99 172.58 67.92 171.98 69.88 171.59 C 73.97 172.79 71.17 175.17 69.62 177.15 C 63.93 180.58 58.83 185.52 53.29 189.35 C 52.97 196.34 57.23 200.51 58.99 206.48 C 56.36 207.59 54.60 208.50 51.95 206.81 C 49.36 205.42 46.90 204.49 44.01 203.89 C 43.06 203.49 42.11 203.11 41.14 202.76 C 33.89 201.40 30.12 200.06 23.91 196.15 C 25.89 200.30 29.20 203.91 32.11 207.44 C 29.78 208.02 28.22 206.83 26.12 206.07 C 26.91 207.34 27.76 208.57 28.68 209.74 C 31.01 212.81 33.15 215.92 36.19 218.36 C 32.38 218.61 29.70 217.36 30.22 222.67 C 37.74 226.62 48.23 231.93 56.78 230.74 C 61.30 231.09 65.76 231.12 70.28 230.72 C 78.53 232.99 84.17 228.00 93.07 231.98 C 95.71 233.42 101.44 233.82 103.86 231.91 C 104.81 231.23 105.76 230.57 106.76 229.98 C 109.43 231.37 112.07 230.95 114.96 230.99 C 115.92 231.46 116.88 231.92 117.85 232.38 C 119.86 233.73 121.04 233.40 121.89 231.12 L 122.46 231.09 C 123.55 231.40 124.65 231.61 125.77 231.72 C 131.84 232.15 138.07 232.31 144.11 231.50 C 147.41 231.53 150.70 231.71 153.99 231.76 C 156.53 232.34 158.45 232.34 160.99 231.79 C 170.56 232.67 180.67 230.80 189.82 233.28 C 201.82 235.70 213.54 232.82 224.14 227.12 C 226.57 223.79 228.50 220.03 230.20 216.28 C 230.90 215.57 231.59 214.86 232.27 214.14 C 235.24 211.87 232.66 209.16 233.08 206.01 C 234.15 200.02 233.81 193.99 235.17 188.05 C 236.80 182.89 232.43 179.59 233.23 174.25 C 231.46 170.83 228.99 166.12 225.08 164.90 C 224.81 160.96 224.34 159.14 220.87 157.02 C 209.80 148.58 199.59 139.64 191.89 127.89 C 188.65 123.78 183.49 122.87 179.02 125.71 C 176.89 126.95 174.88 128.48 172.86 129.89 C 173.75 124.62 175.26 119.64 175.30 114.23 C 176.17 110.84 175.97 107.48 176.19 104.03 C 180.95 107.82 185.22 111.94 190.85 114.60 C 195.31 120.64 199.29 126.86 204.89 131.96 C 205.61 133.78 206.41 134.94 207.86 136.26 C 217.01 144.48 223.98 155.31 230.09 165.98 C 231.93 170.80 232.54 162.26 236.00 161.82 C 233.08 154.49 230.70 146.48 226.00 140.07 C 223.66 131.46 218.71 123.96 216.79 115.15 C 216.90 113.15 217.10 111.15 217.37 109.16 C 219.42 105.48 219.06 101.79 219.67 97.74 C 220.60 96.16 221.55 94.59 222.48 93.01 L 223.34 92.82 C 229.38 90.35 229.26 100.80 231.20 104.26 C 231.53 105.64 232.01 106.84 232.70 108.07 C 233.16 103.69 233.43 99.06 232.28 94.78 C 231.53 88.96 232.70 83.34 231.33 77.76 C 231.58 72.86 231.22 67.85 230.03 63.08 C 229.18 59.56 228.30 55.95 227.04 52.55 C 226.60 51.57 225.62 50.81 224.89 50.03 C 224.52 48.49 224.01 47.11 223.16 45.76 C 224.58 43.01 221.89 43.51 220.04 42.89 C 218.94 42.27 217.87 41.60 216.89 40.81 C 216.74 38.12 219.60 40.86 220.96 40.90 C 217.61 36.54 212.48 34.33 209.37 29.57 C 207.04 27.90 203.94 29.33 201.13 26.41 C 199.12 25.11 197.05 23.91 194.95 22.75 C 193.33 21.54 191.81 21.71 189.97 22.27 C 188.57 22.36 187.18 22.41 185.79 22.27 C 184.62 20.20 182.94 20.67 180.96 21.04 L 180.12 21.14 C 175.90 21.54 171.75 22.35 167.78 23.84 C 166.49 23.86 165.30 24.17 164.09 24.58 C 161.65 25.15 159.31 25.52 157.05 26.68 C 151.10 30.82 145.53 34.07 138.83 36.89 C 133.03 40.27 127.47 43.78 121.07 45.99 C 118.62 46.78 116.21 47.68 113.84 48.68 L 112.36 49.27 C 110.57 49.66 108.77 49.98 106.95 50.23 C 103.65 47.58 100.85 44.17 97.86 41.17 C 96.58 39.50 88.71 36.88 92.26 41.38 C 87.39 42.61 82.27 41.17 77.24 41.73 C 74.78 40.98 72.38 41.00 69.84 41.16 C 68.44 40.55 63.64 33.54 63.77 37.98 C 62.93 37.68 62.11 37.37 61.29 37.06 C 58.47 33.72 58.22 35.46 55.12 37.05 C 52.78 34.30 51.12 31.24 48.22 28.97 C 50.49 27.75 51.68 28.20 51.71 25.21 C 55.16 25.25 58.27 24.62 61.26 26.69 C 70.95 29.80 80.72 31.90 90.83 33.32 C 101.01 33.95 107.88 39.21 118.62 36.52 C 141.99 28.44 164.12 13.79 189.62 13.47 Z" fill="#f2f0f0" />
<path d="M 180.12 21.14 C 176.01 25.10 173.11 26.58 167.78 23.84 C 171.75 22.35 175.90 21.54 180.12 21.14 Z" fill="#6b6b73" />
<path d="M 180.12 21.14 L 180.96 21.04 C 182.39 22.42 183.94 22.33 185.79 22.27 C 187.18 22.41 188.57 22.36 189.97 22.27 C 191.43 24.78 192.79 23.35 194.95 22.75 C 197.05 23.91 199.12 25.11 201.13 26.41 C 199.53 26.83 193.47 24.59 196.13 27.74 C 197.82 29.29 192.54 29.50 191.72 30.15 L 190.06 29.70 C 175.15 24.24 165.12 33.32 154.14 41.93 C 150.82 40.01 150.20 44.52 146.94 44.88 C 144.16 45.83 145.33 41.64 144.69 40.02 C 143.70 43.59 143.02 45.20 140.21 47.68 C 141.89 48.06 143.58 48.40 145.25 48.82 C 140.96 52.08 136.26 54.61 132.25 58.26 C 128.99 61.39 124.66 60.92 122.23 64.48 C 124.96 66.01 127.98 66.17 128.08 69.97 C 128.25 72.62 129.89 72.88 131.88 73.95 C 141.54 78.69 151.73 82.62 161.83 86.34 C 165.14 90.29 169.83 89.18 171.63 94.49 C 175.98 100.87 174.78 107.00 175.30 114.23 C 175.26 119.64 173.75 124.62 172.86 129.89 C 169.30 136.81 164.56 142.69 162.08 150.18 C 157.07 157.85 152.31 164.98 149.09 173.69 C 150.08 173.89 151.08 174.08 152.08 174.25 C 152.51 177.62 152.67 180.98 153.37 184.31 C 152.43 185.80 150.22 187.29 150.02 189.02 C 150.98 192.80 154.04 194.98 152.17 199.11 C 149.35 203.10 146.20 206.48 142.74 209.90 C 138.58 211.50 133.89 212.99 129.48 211.56 C 127.34 208.06 125.00 204.70 122.81 201.23 C 125.80 198.47 129.36 197.02 133.18 195.79 C 134.44 195.46 135.69 195.08 136.94 194.67 C 141.13 197.88 138.82 203.64 134.94 206.02 C 129.84 205.91 132.01 203.78 131.93 200.24 C 130.07 200.82 127.09 201.33 125.95 202.99 C 127.29 207.15 132.31 208.37 136.20 207.98 C 140.87 208.09 145.53 202.54 147.62 198.80 C 147.07 196.14 144.07 193.52 142.84 190.95 L 143.02 190.03 C 144.34 186.56 142.37 183.51 144.34 180.34 C 147.51 175.14 144.37 164.66 151.08 161.16 C 152.40 160.09 152.94 158.65 153.65 157.16 C 154.48 155.54 155.14 153.84 155.75 152.13 C 158.01 147.07 160.99 142.56 162.34 137.08 C 163.49 135.33 163.40 133.89 162.81 131.94 C 162.50 129.23 162.50 126.77 162.81 124.05 C 163.31 122.15 163.29 120.83 162.79 118.92 L 162.87 117.11 C 163.38 115.43 163.43 114.31 162.30 112.88 C 161.90 111.60 161.49 110.33 161.04 109.06 C 159.95 106.02 159.18 102.56 156.20 100.80 C 154.16 97.69 151.32 96.21 147.94 94.94 C 145.83 93.38 143.58 91.94 141.22 90.79 C 139.18 89.67 137.04 88.84 134.87 88.03 C 134.06 87.30 133.25 86.60 132.42 85.90 C 131.62 85.07 130.49 84.77 129.02 85.01 C 127.87 84.29 126.72 83.57 125.55 82.89 C 124.65 82.29 123.73 81.71 122.79 81.17 C 119.82 79.53 116.82 77.63 113.61 76.51 C 98.79 73.27 87.39 57.54 72.09 56.85 C 70.77 55.49 69.62 55.61 67.93 56.16 C 57.73 54.64 53.40 47.81 45.90 41.94 C 46.14 39.97 45.80 38.80 44.84 37.09 C 48.34 35.16 48.48 35.61 46.47 32.09 L 45.92 30.04 C 46.69 29.68 47.45 29.32 48.22 28.97 C 51.12 31.24 52.78 34.30 55.12 37.05 C 56.34 39.08 59.52 37.48 61.29 37.06 C 60.02 39.80 58.21 40.58 60.97 43.20 C 63.44 41.80 63.50 40.53 63.77 37.98 C 63.64 33.54 68.44 40.55 69.84 41.16 C 71.44 43.58 74.81 41.65 77.24 41.73 C 82.27 41.17 87.39 42.61 92.26 41.38 C 94.13 41.30 96.00 41.25 97.86 41.17 C 100.85 44.17 103.65 47.58 106.95 50.23 C 109.37 51.88 111.77 53.51 112.36 49.27 L 113.84 48.68 C 114.81 54.08 120.00 48.28 121.07 45.99 C 127.47 43.78 133.03 40.27 138.83 36.89 C 145.53 34.07 151.10 30.82 157.05 26.68 C 160.26 27.57 156.60 30.60 160.67 29.92 C 161.84 28.95 162.10 26.04 164.09 24.58 C 166.15 25.38 169.05 28.64 167.78 23.84 C 173.11 26.58 176.01 25.10 180.12 21.14 Z" fill="#24243f" />
<path d="M 180.96 21.04 C 182.94 20.67 184.62 20.20 185.79 22.27 C 183.94 22.33 182.39 22.42 180.96 21.04 Z" fill="#a4a5ad" />
<path d="M 189.97 22.27 C 191.81 21.71 193.33 21.54 194.95 22.75 C 192.79 23.35 191.43 24.78 189.97 22.27 Z" fill="#aeaeb2" />
<path d="M 167.78 23.84 C 169.05 28.64 166.15 25.38 164.09 24.58 C 165.30 24.17 166.49 23.86 167.78 23.84 Z" fill="#666873" />
<path d="M 164.09 24.58 C 162.10 26.04 161.84 28.95 160.67 29.92 C 156.60 30.60 160.26 27.57 157.05 26.68 C 159.31 25.52 161.65 25.15 164.09 24.58 Z" fill="#5e5e73" />
<path d="M 201.13 26.41 C 203.94 29.33 207.04 27.90 209.37 29.57 C 208.06 30.94 207.29 31.05 207.80 33.06 C 201.76 31.87 198.15 29.76 191.72 30.15 C 192.54 29.50 197.82 29.29 196.13 27.74 C 193.47 24.59 199.53 26.83 201.13 26.41 Z" fill="#6a6873" />
<path d="M 190.06 29.70 C 186.60 29.87 187.97 31.95 186.32 34.12 C 179.73 40.64 169.50 34.91 163.96 40.98 C 165.59 43.32 173.98 41.63 176.84 40.78 C 180.66 39.23 182.86 42.00 186.31 43.29 C 184.91 45.03 183.39 46.64 181.77 48.18 C 176.08 43.52 168.90 41.76 162.75 46.74 C 158.88 49.36 153.13 59.22 157.88 63.09 C 161.53 65.47 165.71 71.10 170.34 70.50 C 174.50 69.89 176.86 75.81 179.92 77.98 C 179.93 74.99 177.65 65.90 173.35 69.55 C 174.69 64.23 163.82 65.59 164.06 60.00 C 161.98 54.63 166.61 52.52 162.14 49.11 C 166.28 46.13 167.20 46.71 170.93 49.71 C 169.82 50.11 166.34 49.55 166.12 50.90 C 170.43 51.60 176.69 49.28 179.19 53.74 C 180.60 58.78 182.22 68.33 189.36 67.65 C 193.99 68.37 186.94 64.50 186.76 63.24 C 190.32 63.30 190.82 64.68 192.49 67.56 C 194.92 65.37 196.85 62.78 199.55 60.88 C 203.12 66.21 204.23 58.14 208.63 57.62 C 215.21 54.43 218.84 62.96 219.90 67.96 C 218.12 71.13 214.90 72.22 214.01 76.01 C 213.64 78.11 212.30 77.53 210.70 78.01 C 207.65 76.70 204.41 74.63 201.14 74.16 C 198.77 75.13 197.39 77.07 194.66 76.40 C 193.31 76.63 188.84 74.81 190.41 77.53 C 196.35 80.88 203.64 79.59 209.27 82.92 C 206.08 84.14 202.70 83.80 199.50 84.96 C 193.98 81.81 188.90 83.68 183.12 84.99 C 180.08 85.51 177.02 88.28 179.57 91.27 C 181.06 93.40 178.56 92.02 177.40 92.29 C 178.22 96.65 178.60 102.74 183.15 104.88 C 185.39 106.76 189.04 104.65 191.82 105.01 C 192.02 108.50 194.15 108.56 196.73 109.83 C 197.54 111.65 195.92 113.02 195.08 114.49 C 193.66 114.43 192.26 114.46 190.85 114.60 C 185.22 111.94 180.95 107.82 176.19 104.03 C 175.97 107.48 176.17 110.84 175.30 114.23 C 174.78 107.00 175.98 100.87 171.63 94.49 C 169.83 89.18 165.14 90.29 161.83 86.34 C 165.24 86.07 166.24 85.51 168.40 82.97 C 170.21 83.58 171.98 84.05 173.92 83.93 C 172.88 75.59 163.73 67.03 155.30 71.26 C 150.38 74.05 144.90 65.10 139.73 66.45 C 133.75 66.42 138.11 71.94 131.88 73.95 C 129.89 72.88 128.25 72.62 128.08 69.97 C 127.98 66.17 124.96 66.01 122.23 64.48 C 124.66 60.92 128.99 61.39 132.25 58.26 C 136.26 54.61 140.96 52.08 145.25 48.82 C 148.81 47.12 151.13 44.38 154.14 41.93 C 165.12 33.32 175.15 24.24 190.06 29.70 Z" fill="#7e637c" />
<path d="M 190.06 29.70 L 191.72 30.15 C 198.15 29.76 201.76 31.87 207.80 33.06 C 210.69 35.86 214.07 37.93 216.89 40.81 C 217.87 41.60 218.94 42.27 220.04 42.89 C 216.54 45.69 217.84 49.77 215.12 53.26 C 209.33 49.25 207.65 49.81 201.76 53.30 C 199.11 54.30 201.17 55.11 201.80 56.87 C 201.04 58.19 200.30 59.54 199.55 60.88 C 196.85 62.78 194.92 65.37 192.49 67.56 C 190.82 64.68 190.32 63.30 186.76 63.24 C 184.38 58.75 187.40 50.28 181.77 48.18 C 183.39 46.64 184.91 45.03 186.31 43.29 C 190.05 40.22 193.49 42.00 197.87 42.26 C 201.53 42.93 204.21 48.58 207.90 47.88 C 205.52 41.41 193.54 32.76 186.32 34.12 C 187.97 31.95 186.60 29.87 190.06 29.70 Z" fill="#957e93" />
<path d="M 209.37 29.57 C 212.48 34.33 217.61 36.54 220.96 40.90 C 219.60 40.86 216.74 38.12 216.89 40.81 C 214.07 37.93 210.69 35.86 207.80 33.06 C 207.29 31.05 208.06 30.94 209.37 29.57 Z" fill="#383746" />
<path d="M 46.47 32.09 C 48.48 35.61 48.34 35.16 44.84 37.09 C 43.06 34.43 41.49 30.42 46.47 32.09 Z" fill="#76767f" />
<path d="M 186.32 34.12 C 193.54 32.76 205.52 41.41 207.90 47.88 C 204.21 48.58 201.53 42.93 197.87 42.26 C 193.49 42.00 190.05 40.22 186.31 43.29 C 182.86 42.00 180.66 39.23 176.84 40.78 C 173.98 41.63 165.59 43.32 163.96 40.98 C 169.50 34.91 179.73 40.64 186.32 34.12 Z" fill="#af474e" />
<path d="M 61.29 37.06 C 59.52 37.48 56.34 39.08 55.12 37.05 C 58.22 35.46 58.47 33.72 61.29 37.06 Z" fill="#71717b" />
<path d="M 44.84 37.09 C 45.80 38.80 46.14 39.97 45.90 41.94 C 44.09 40.55 43.05 39.08 44.84 37.09 Z" fill="#92919d" />
<path d="M 61.29 37.06 C 62.11 37.37 62.93 37.68 63.77 37.98 C 63.50 40.53 63.44 41.80 60.97 43.20 C 58.21 40.58 60.02 39.80 61.29 37.06 Z" fill="#626576" />
<path d="M 97.86 41.17 C 96.00 41.25 94.13 41.30 92.26 41.38 C 88.71 36.88 96.58 39.50 97.86 41.17 Z" fill="#9c9da0" />
<path d="M 144.69 40.02 C 145.33 41.64 144.16 45.83 146.94 44.88 C 150.20 44.52 150.82 40.01 154.14 41.93 C 151.13 44.38 148.81 47.12 145.25 48.82 C 143.58 48.40 141.89 48.06 140.21 47.68 C 143.02 45.20 143.70 43.59 144.69 40.02 Z" fill="#463f58" />
<path d="M 69.84 41.16 C 72.38 41.00 74.78 40.98 77.24 41.73 C 74.81 41.65 71.44 43.58 69.84 41.16 Z" fill="#8d8d98" />
<path d="M 86.17 43.18 C 87.84 43.32 96.26 41.64 94.83 44.82 C 93.16 44.67 84.74 46.36 86.17 43.18 Z" fill="#727589" />
<path d="M 220.04 42.89 C 221.89 43.51 224.58 43.01 223.16 45.76 C 222.15 48.01 221.08 50.55 224.89 50.03 C 225.62 50.81 226.60 51.57 227.04 52.55 C 222.18 55.97 228.50 59.56 230.03 63.08 C 231.22 67.85 231.58 72.86 231.33 77.76 C 230.70 83.10 231.24 88.43 230.88 93.78 C 228.72 91.50 230.88 82.26 229.73 78.29 C 227.86 77.37 224.10 75.46 224.23 79.07 C 221.53 76.12 219.38 74.11 220.21 69.74 C 220.82 75.54 223.43 74.17 224.64 69.69 C 223.83 63.87 219.03 57.59 215.12 53.26 C 217.84 49.77 216.54 45.69 220.04 42.89 Z" fill="#79657f" />
<path d="M 181.77 48.18 C 187.40 50.28 184.38 58.75 186.76 63.24 C 186.94 64.50 193.99 68.37 189.36 67.65 C 182.22 68.33 180.60 58.78 179.19 53.74 C 176.69 49.28 170.43 51.60 166.12 50.90 C 166.34 49.55 169.82 50.11 170.93 49.71 C 167.20 46.71 166.28 46.13 162.14 49.11 C 166.61 52.52 161.98 54.63 164.06 60.00 C 163.82 65.59 174.69 64.23 173.35 69.55 C 177.65 65.90 179.93 74.99 179.92 77.98 C 176.86 75.81 174.50 69.89 170.34 70.50 C 165.71 71.10 161.53 65.47 157.88 63.09 C 153.13 59.22 158.88 49.36 162.75 46.74 C 168.90 41.76 176.08 43.52 181.77 48.18 Z" fill="#43212b" />
<path d="M 121.07 45.99 C 120.00 48.28 114.81 54.08 113.84 48.68 C 116.21 47.68 118.62 46.78 121.07 45.99 Z" fill="#5d606f" />
<path d="M 223.16 45.76 C 224.01 47.11 224.52 48.49 224.89 50.03 C 221.08 50.55 222.15 48.01 223.16 45.76 Z" fill="#aea9b3" />
<path d="M 112.36 49.27 C 111.77 53.51 109.37 51.88 106.95 50.23 C 108.77 49.98 110.57 49.66 112.36 49.27 Z" fill="#9ca0a8" />
<path d="M 215.12 53.26 C 219.03 57.59 223.83 63.87 224.64 69.69 C 223.43 74.17 220.82 75.54 220.21 69.74 L 219.90 67.96 C 218.84 62.96 215.21 54.43 208.63 57.62 C 204.23 58.14 203.12 66.21 199.55 60.88 C 200.30 59.54 201.04 58.19 201.80 56.87 C 203.45 55.59 205.18 54.42 206.88 53.21 C 205.17 53.26 203.47 53.34 201.76 53.30 C 207.65 49.81 209.33 49.25 215.12 53.26 Z" fill="#45222e" />
<path d="M 201.76 53.30 C 203.47 53.34 205.17 53.26 206.88 53.21 C 205.18 54.42 203.45 55.59 201.80 56.87 C 201.17 55.11 199.11 54.30 201.76 53.30 Z" fill="#6f5261" />
<path d="M 227.04 52.55 C 228.30 55.95 229.18 59.56 230.03 63.08 C 228.50 59.56 222.18 55.97 227.04 52.55 Z" fill="#bfb8c1" />
<path d="M 67.93 56.16 C 69.62 55.61 70.77 55.49 72.09 56.85 C 70.39 57.38 69.27 57.49 67.93 56.16 Z" fill="#7d7c86" />
<path d="M 172.35 56.31 C 174.99 55.21 181.03 60.59 177.27 63.24 C 172.71 66.60 165.95 58.66 172.35 56.31 Z" fill="#421f2a" />
<path d="M 207.36 61.36 C 209.16 60.18 212.36 63.20 213.74 64.31 C 216.07 71.70 203.02 62.71 207.36 61.36 Z" fill="#462935" />
<path d="M 201.09 65.05 C 203.69 65.42 204.66 70.81 205.96 72.92 C 203.11 70.81 200.25 69.16 201.09 65.05 Z" fill="#472a3d" />
<path d="M 139.73 66.45 C 145.24 71.69 150.91 77.58 157.31 81.68 C 161.64 81.67 164.51 79.71 168.40 82.97 C 166.24 85.51 165.24 86.07 161.83 86.34 C 151.73 82.62 141.54 78.69 131.88 73.95 C 138.11 71.94 133.75 66.42 139.73 66.45 Z" fill="#89648f" />
<path d="M 155.30 71.26 C 163.73 67.03 172.88 75.59 173.92 83.93 C 171.98 84.05 170.21 83.58 168.40 82.97 C 164.51 79.71 161.64 81.67 157.31 81.68 C 150.91 77.58 145.24 71.69 139.73 66.45 C 144.90 65.10 150.38 74.05 155.30 71.26 Z" fill="#b44349" />
<path d="M 219.90 67.96 L 220.21 69.74 C 219.38 74.11 221.53 76.12 224.23 79.07 C 224.10 75.46 227.86 77.37 229.73 78.29 C 230.88 82.26 228.72 91.50 230.88 93.78 C 231.24 88.43 230.70 83.10 231.33 77.76 C 232.70 83.34 231.53 88.96 232.28 94.78 C 232.14 98.00 232.12 101.14 231.20 104.26 C 229.26 100.80 229.38 90.35 223.34 92.82 C 223.27 86.42 212.11 85.24 210.70 78.01 C 212.30 77.53 213.64 78.11 214.01 76.01 C 214.90 72.22 218.12 71.13 219.90 67.96 Z" fill="#8d6d92" />
<path d="M 201.14 74.16 C 204.41 74.63 207.65 76.70 210.70 78.01 C 212.11 85.24 223.27 86.42 223.34 92.82 L 222.48 93.01 C 221.67 92.28 220.86 91.55 220.04 90.83 C 216.77 87.70 213.32 84.99 209.27 82.92 C 203.64 79.59 196.35 80.88 190.41 77.53 C 188.84 74.81 193.31 76.63 194.66 76.40 C 197.39 77.07 198.77 75.13 201.14 74.16 Z" fill="#aa4953" />
<path d="M 122.79 81.17 C 123.73 81.71 124.65 82.29 125.55 82.89 C 122.78 84.32 118.82 84.94 122.79 81.17 Z" fill="#a5a6b2" />
<path d="M 199.50 84.96 C 201.54 87.06 205.65 88.62 206.93 91.06 C 204.94 95.44 205.14 99.82 209.98 102.02 C 215.06 103.65 207.21 102.96 205.83 102.21 C 200.31 101.07 202.56 93.68 199.03 89.92 C 193.79 86.10 184.14 91.11 186.10 97.88 C 186.78 102.72 190.68 100.50 194.16 100.81 C 195.46 101.46 196.72 102.14 197.93 102.95 C 197.70 104.33 197.51 105.72 197.31 107.10 C 195.51 106.01 194.08 104.79 191.82 105.01 C 189.04 104.65 185.39 106.76 183.15 104.88 C 178.60 102.74 178.22 96.65 177.40 92.29 C 178.56 92.02 181.06 93.40 179.57 91.27 C 177.02 88.28 180.08 85.51 183.12 84.99 C 188.90 83.68 193.98 81.81 199.50 84.96 Z" fill="#44222c" />
<path d="M 209.27 82.92 C 213.32 84.99 216.77 87.70 220.04 90.83 C 217.88 92.30 215.76 93.71 214.01 95.68 C 215.33 95.57 216.64 95.39 217.96 95.29 C 217.65 98.78 214.43 100.79 214.05 104.02 C 213.66 106.87 214.21 105.39 215.95 104.90 C 216.45 106.31 216.93 107.73 217.37 109.16 C 217.10 111.15 216.90 113.15 216.79 115.15 C 216.30 113.45 215.93 111.72 215.50 110.00 C 212.24 115.77 219.77 123.93 213.63 128.42 C 207.24 124.04 201.50 118.80 195.08 114.49 C 195.92 113.02 197.54 111.65 196.73 109.83 C 194.15 108.56 192.02 108.50 191.82 105.01 C 194.08 104.79 195.51 106.01 197.31 107.10 C 198.62 109.81 198.65 112.14 198.52 115.05 C 202.58 114.76 201.95 103.63 197.93 102.95 C 196.72 102.14 195.46 101.46 194.16 100.81 C 189.97 98.37 194.37 99.71 196.10 98.13 C 196.06 96.28 195.86 94.47 195.21 92.74 C 194.41 91.55 193.26 90.90 192.15 90.05 C 194.44 89.99 196.73 89.95 199.03 89.92 C 202.56 93.68 200.31 101.07 205.83 102.21 C 207.21 102.96 215.06 103.65 209.98 102.02 C 205.14 99.82 204.94 95.44 206.93 91.06 C 205.65 88.62 201.54 87.06 199.50 84.96 C 202.70 83.80 206.08 84.14 209.27 82.92 Z" fill="#9f8b9f" />
<path d="M 129.02 85.01 C 130.49 84.77 131.62 85.07 132.42 85.90 C 131.02 87.58 129.85 86.52 129.02 85.01 Z" fill="#8c8b9d" />
<path d="M 105.04 86.12 C 102.52 90.64 93.84 84.52 96.60 93.18 L 96.73 93.98 C 95.79 94.18 94.86 94.43 93.95 94.71 C 92.86 95.20 91.80 95.73 90.76 96.32 C 87.04 97.94 84.01 97.29 82.96 102.03 C 80.92 102.35 79.04 102.74 77.00 102.15 C 77.08 100.85 77.16 99.55 77.25 98.25 C 80.09 97.21 81.88 94.86 84.57 93.52 C 87.72 91.40 91.16 92.88 91.04 87.89 C 95.57 86.85 100.37 85.92 105.04 86.12 Z" fill="#a78fa3" />
<path d="M 91.04 87.89 C 91.16 92.88 87.72 91.40 84.57 93.52 C 81.88 94.86 80.09 97.21 77.25 98.25 C 74.38 91.91 71.13 95.98 65.62 95.13 C 70.21 87.99 83.55 90.52 91.04 87.89 Z" fill="#856d71" />
<path d="M 134.87 88.03 C 137.04 88.84 139.18 89.67 141.22 90.79 C 138.16 90.79 136.20 91.33 134.87 88.03 Z" fill="#a19da7" />
<path d="M 199.03 89.92 C 196.73 89.95 194.44 89.99 192.15 90.05 C 193.26 90.90 194.41 91.55 195.21 92.74 C 192.68 92.01 189.99 91.27 189.98 94.99 C 189.46 98.03 194.17 97.78 196.10 98.13 C 194.37 99.71 189.97 98.37 194.16 100.81 C 190.68 100.50 186.78 102.72 186.10 97.88 C 184.14 91.11 193.79 86.10 199.03 89.92 Z" fill="#7a5f75" />
<path d="M 220.04 90.83 C 220.86 91.55 221.67 92.28 222.48 93.01 C 221.55 94.59 220.60 96.16 219.67 97.74 C 217.98 99.97 216.73 102.20 215.95 104.90 C 214.21 105.39 213.66 106.87 214.05 104.02 C 214.43 100.79 217.65 98.78 217.96 95.29 C 216.64 95.39 215.33 95.57 214.01 95.68 C 215.76 93.71 217.88 92.30 220.04 90.83 Z" fill="#886a8d" />
<path d="M 104.45 93.02 C 101.85 94.27 99.89 96.75 98.70 92.61 C 101.10 91.82 102.18 91.91 104.45 93.02 Z" fill="#727185" />
<path d="M 122.87 94.07 C 120.54 98.55 119.12 94.53 115.21 94.64 C 114.75 93.97 114.29 93.30 113.83 92.64 C 117.20 92.02 119.80 92.72 122.87 94.07 Z" fill="#a999ae" />
<path d="M 127.11 92.17 C 124.65 97.23 117.86 100.64 113.92 104.85 C 105.85 105.38 95.35 103.28 88.08 107.18 C 83.31 106.22 85.48 105.57 86.63 102.10 C 85.35 102.32 84.08 102.60 82.82 102.86 L 82.96 102.03 C 84.01 97.29 87.04 97.94 90.76 96.32 C 92.75 97.90 98.68 95.63 93.95 94.71 C 94.86 94.43 95.79 94.18 96.73 93.98 C 96.71 98.43 99.90 96.74 103.02 96.99 C 107.13 96.49 111.05 95.02 115.21 94.64 C 119.12 94.53 120.54 98.55 122.87 94.07 C 124.23 93.30 125.62 92.66 127.11 92.17 Z" fill="#85618f" />
<path d="M 195.21 92.74 C 195.86 94.47 196.06 96.28 196.10 98.13 C 194.17 97.78 189.46 98.03 189.98 94.99 C 189.99 91.27 192.68 92.01 195.21 92.74 Z" fill="#3e1c27" />
<path d="M 96.60 93.18 L 98.70 92.61 C 99.89 96.75 101.85 94.27 104.45 93.02 C 107.74 94.07 110.47 92.92 113.83 92.64 C 114.29 93.30 114.75 93.97 115.21 94.64 C 111.05 95.02 107.13 96.49 103.02 96.99 C 99.90 96.74 96.71 98.43 96.73 93.98 L 96.60 93.18 Z" fill="#2a2644" />
<path d="M 77.25 98.25 C 77.16 99.55 77.08 100.85 77.00 102.15 C 74.57 102.32 70.62 103.02 69.89 105.80 C 72.46 104.97 74.75 103.62 77.00 102.15 C 79.04 102.74 80.92 102.35 82.96 102.03 L 82.82 102.86 C 79.09 104.30 75.39 105.75 71.85 107.62 C 66.54 108.17 61.25 107.06 56.02 108.04 C 53.28 108.48 51.69 110.50 48.94 110.36 C 47.58 109.84 46.22 109.34 44.84 108.90 C 45.99 107.15 47.71 106.38 49.42 105.30 C 54.95 102.14 60.10 98.32 65.62 95.13 C 71.13 95.98 74.38 91.91 77.25 98.25 Z" fill="#543b41" />
<path d="M 86.36 94.45 C 88.93 95.70 82.80 97.97 80.98 97.88 C 82.36 96.07 84.27 95.19 86.36 94.45 Z" fill="#785b6e" />
<path d="M 138.00 94.10 C 137.41 96.17 136.47 98.10 135.44 99.98 C 133.47 98.12 133.20 103.29 132.26 104.32 C 129.01 109.81 122.50 113.47 120.07 120.04 C 118.45 124.62 117.53 129.36 116.17 134.02 C 121.10 129.71 121.65 119.24 127.90 116.81 C 126.95 122.43 124.45 127.32 122.56 132.61 C 120.96 136.44 124.44 138.74 123.93 142.91 C 122.34 142.85 119.64 139.96 119.78 143.02 C 118.55 141.06 117.00 139.63 115.13 138.29 C 116.45 136.34 115.18 135.24 113.20 134.87 L 113.07 134.22 C 114.67 129.46 113.26 131.23 109.69 131.73 C 106.77 129.66 106.80 130.40 103.95 132.10 C 104.58 127.49 107.43 123.56 108.80 118.97 C 107.47 116.04 106.86 114.86 103.36 115.05 C 101.64 114.58 99.92 114.13 98.20 113.66 C 99.71 112.51 101.31 111.48 102.81 110.32 C 101.48 109.94 100.15 109.58 98.82 109.23 C 103.73 108.75 109.31 109.68 113.94 107.97 C 115.75 107.69 114.19 105.78 113.92 104.85 C 116.38 105.56 116.91 105.64 119.03 104.16 C 118.66 106.66 117.02 107.58 120.66 106.73 C 125.42 104.15 129.88 100.40 134.20 97.10 C 135.44 96.06 136.67 95.02 138.00 94.10 Z" fill="#846190" />
<path d="M 93.95 94.71 C 98.68 95.63 92.75 97.90 90.76 96.32 C 91.80 95.73 92.86 95.20 93.95 94.71 Z" fill="#332141" />
<path d="M 134.20 97.10 C 129.88 100.40 125.42 104.15 120.66 106.73 C 122.45 104.06 124.73 101.98 126.15 99.08 C 128.38 98.96 129.11 98.20 129.08 95.95 C 131.41 95.82 132.55 95.00 134.20 97.10 Z" fill="#d7c8dd" />
<path d="M 147.94 94.94 C 151.32 96.21 154.16 97.69 156.20 100.80 C 152.83 101.06 148.98 98.07 147.94 94.94 Z" fill="#908794" />
<path d="M 232.28 94.78 C 233.43 99.06 233.16 103.69 232.70 108.07 C 232.01 106.84 231.53 105.64 231.20 104.26 C 232.12 101.14 232.14 98.00 232.28 94.78 Z" fill="#b9acbb" />
<path d="M 129.08 95.95 C 129.11 98.20 128.38 98.96 126.15 99.08 C 125.82 96.69 126.76 95.93 129.08 95.95 Z" fill="#675871" />
<path d="M 219.67 97.74 C 219.06 101.79 219.42 105.48 217.37 109.16 C 216.93 107.73 216.45 106.31 215.95 104.90 C 216.73 102.20 217.98 99.97 219.67 97.74 Z" fill="#c3b9c5" />
<path d="M 126.15 99.08 C 124.73 101.98 122.45 104.06 120.66 106.73 C 117.02 107.58 118.66 106.66 119.03 104.16 C 121.27 102.19 123.55 100.56 126.15 99.08 Z" fill="#382b47" />
<path d="M 135.44 99.98 C 132.13 106.29 133.10 112.07 127.90 116.81 C 121.65 119.24 121.10 129.71 116.17 134.02 C 117.53 129.36 118.45 124.62 120.07 120.04 C 122.50 113.47 129.01 109.81 132.26 104.32 C 133.20 103.29 133.47 98.12 135.44 99.98 Z" fill="#32254a" />
<path d="M 156.20 100.80 C 159.18 102.56 159.95 106.02 161.04 109.06 C 157.92 106.84 156.82 104.52 156.20 100.80 Z" fill="#81808b" />
<path d="M 77.00 102.15 C 74.75 103.62 72.46 104.97 69.89 105.80 C 70.62 103.02 74.57 102.32 77.00 102.15 Z" fill="#977b89" />
<path d="M 86.63 102.10 C 85.48 105.57 83.31 106.22 88.08 107.18 C 84.97 107.92 81.94 108.82 78.95 109.93 C 74.86 109.89 70.90 110.05 66.92 111.10 C 66.13 107.33 75.02 110.47 71.85 107.62 C 75.39 105.75 79.09 104.30 82.82 102.86 C 84.08 102.60 85.35 102.32 86.63 102.10 Z" fill="#a58aa5" />
<path d="M 49.42 105.30 C 47.71 106.38 45.99 107.15 44.84 108.90 C 43.42 109.42 42.26 109.14 40.82 108.87 C 41.76 107.79 48.64 104.74 43.91 104.72 C 45.89 104.60 51.03 100.98 49.42 105.30 Z" fill="#a0979a" />
<path d="M 197.93 102.95 C 201.95 103.63 202.58 114.76 198.52 115.05 C 198.65 112.14 198.62 109.81 197.31 107.10 C 197.51 105.72 197.70 104.33 197.93 102.95 Z" fill="#695060" />
<path d="M 113.92 104.85 C 114.19 105.78 115.75 107.69 113.94 107.97 C 109.31 109.68 103.73 108.75 98.82 109.23 L 97.26 108.98 C 94.26 107.96 91.19 107.62 88.08 107.18 C 95.35 103.28 105.85 105.38 113.92 104.85 Z" fill="#292141" />
<path d="M 43.91 104.72 C 48.64 104.74 41.76 107.79 40.82 108.87 C 39.85 109.26 38.90 109.69 37.97 110.15 L 36.72 110.97 C 28.82 114.97 24.02 118.10 21.54 127.16 C 21.04 128.49 20.59 129.84 20.13 131.18 C 19.96 127.04 19.79 122.99 20.82 118.93 C 21.74 109.43 36.83 107.70 43.91 104.72 Z" fill="#28273e" />
<path d="M 71.85 107.62 C 75.02 110.47 66.13 107.33 66.92 111.10 C 63.94 112.29 60.98 112.02 57.85 111.86 C 54.90 111.66 51.93 111.93 48.98 111.92 L 48.94 110.36 C 51.69 110.50 53.28 108.48 56.02 108.04 C 61.25 107.06 66.54 108.17 71.85 107.62 Z" fill="#8b6586" />
<path d="M 88.08 107.18 C 91.19 107.62 94.26 107.96 97.26 108.98 C 95.37 110.39 93.50 111.76 91.39 112.83 C 92.90 104.72 82.71 112.54 78.87 110.88 L 78.95 109.93 C 81.94 108.82 84.97 107.92 88.08 107.18 Z" fill="#715b6d" />
<path d="M 40.82 108.87 C 42.26 109.14 43.42 109.42 44.84 108.90 C 46.22 109.34 47.58 109.84 48.94 110.36 L 48.98 111.92 C 47.91 112.21 46.84 112.50 45.78 112.79 C 43.85 112.73 42.05 112.26 40.18 111.84 C 39.48 111.21 38.74 110.65 37.97 110.15 C 38.90 109.69 39.85 109.26 40.82 108.87 Z" fill="#e9e8ec" />
<path d="M 91.39 112.83 C 93.50 111.76 95.37 110.39 97.26 108.98 L 98.82 109.23 C 100.15 109.58 101.48 109.94 102.81 110.32 C 101.31 111.48 99.71 112.51 98.20 113.66 C 99.92 114.13 101.64 114.58 103.36 115.05 C 95.72 118.08 81.91 114.52 80.77 126.00 C 78.79 123.31 79.53 124.19 78.57 126.89 C 77.86 125.04 77.26 123.13 76.53 121.28 C 75.57 123.50 74.49 125.14 72.46 126.49 C 70.30 123.99 68.63 121.10 64.89 122.95 C 64.43 122.44 63.99 121.93 63.54 121.42 C 66.72 120.02 68.20 112.60 71.73 115.38 C 73.94 113.14 75.78 111.74 78.87 110.88 C 82.71 112.54 92.90 104.72 91.39 112.83 Z" fill="#a2889e" />
<path d="M 37.97 110.15 C 38.74 110.65 39.48 111.21 40.18 111.84 L 39.15 112.83 C 38.06 112.55 37.25 111.93 36.72 110.97 L 37.97 110.15 Z" fill="#8a8c96" />
<path d="M 78.95 109.93 L 78.87 110.88 C 75.78 111.74 73.94 113.14 71.73 115.38 C 68.20 112.60 66.72 120.02 63.54 121.42 C 60.49 118.38 63.75 115.06 57.84 114.80 C 57.81 113.82 57.81 112.84 57.85 111.86 C 60.98 112.02 63.94 112.29 66.92 111.10 C 70.90 110.05 74.86 109.89 78.95 109.93 Z" fill="#2a233b" />
<path d="M 215.50 110.00 C 215.93 111.72 216.30 113.45 216.79 115.15 C 218.71 123.96 223.66 131.46 226.00 140.07 C 221.63 136.46 217.85 132.20 213.63 128.42 C 219.77 123.93 212.24 115.77 215.50 110.00 Z" fill="#846792" />
<path d="M 36.72 110.97 C 37.25 111.93 38.06 112.55 39.15 112.83 C 40.49 113.61 41.38 114.77 42.36 115.94 C 38.74 118.06 35.68 119.91 31.31 119.58 C 27.52 119.66 28.20 122.11 26.93 124.79 C 24.67 124.94 23.56 126.95 21.54 127.16 C 24.02 118.10 28.82 114.97 36.72 110.97 Z" fill="#e9e5e8" />
<path d="M 57.85 111.86 C 57.81 112.84 57.81 113.82 57.84 114.80 C 57.23 115.13 56.63 115.45 56.02 115.78 C 57.23 111.04 48.49 113.75 45.78 112.79 C 46.84 112.50 47.91 112.21 48.98 111.92 C 51.93 111.93 54.90 111.66 57.85 111.86 Z" fill="#644355" />
<path d="M 40.18 111.84 C 42.05 112.26 43.85 112.73 45.78 112.79 C 48.49 113.75 57.23 111.04 56.02 115.78 C 54.89 116.77 53.80 117.77 52.85 118.93 C 54.85 120.37 57.01 121.61 59.06 122.98 C 56.46 123.95 53.92 125.05 51.39 126.20 C 50.81 119.74 46.74 119.32 42.36 115.94 C 41.38 114.77 40.49 113.61 39.15 112.83 L 40.18 111.84 Z" fill="#2b2339" />
<path d="M 162.30 112.88 C 163.43 114.31 163.38 115.43 162.87 117.11 C 161.44 115.80 161.64 114.56 162.30 112.88 Z" fill="#8a8a9b" />
<path d="M 195.08 114.49 C 201.50 118.80 207.24 124.04 213.63 128.42 C 217.85 132.20 221.63 136.46 226.00 140.07 C 230.70 146.48 233.08 154.49 236.00 161.82 C 232.54 162.26 231.93 170.80 230.09 165.98 C 223.98 155.31 217.01 144.48 207.86 136.26 L 210.15 135.88 C 210.48 136.96 211.33 139.37 212.85 138.62 C 213.82 136.80 211.51 136.10 210.15 135.88 C 208.61 134.05 207.31 132.59 204.89 131.96 C 199.29 126.86 195.31 120.64 190.85 114.60 C 192.26 114.46 193.66 114.43 195.08 114.49 Z" fill="#22223e" />
<path d="M 57.84 114.80 C 63.75 115.06 60.49 118.38 63.54 121.42 C 63.99 121.93 64.43 122.44 64.89 122.95 C 66.12 125.16 67.48 127.39 67.94 129.91 C 64.82 128.50 62.34 124.72 59.06 122.98 C 57.01 121.61 54.85 120.37 52.85 118.93 C 53.80 117.77 54.89 116.77 56.02 115.78 C 56.63 115.45 57.23 115.13 57.84 114.80 Z" fill="#ab4348" />
<path d="M 103.36 115.05 C 106.86 114.86 107.47 116.04 108.80 118.97 C 107.43 123.56 104.58 127.49 103.95 132.10 L 103.78 132.90 C 101.42 131.34 99.40 137.69 98.13 139.12 C 97.23 141.17 95.73 142.49 96.86 144.79 L 95.69 146.21 C 93.37 142.69 92.50 141.70 88.09 142.39 L 86.70 142.86 C 84.78 143.66 83.78 142.71 81.99 142.13 C 77.35 144.20 73.23 144.62 69.36 147.99 C 68.39 149.12 67.76 150.55 67.03 151.85 C 64.90 154.44 74.73 157.75 76.70 157.79 C 77.37 155.32 78.82 153.38 76.89 151.08 C 74.09 152.48 73.49 154.78 70.14 152.81 C 71.32 151.15 74.27 146.93 76.62 148.29 C 78.47 150.43 80.14 152.79 81.78 155.10 C 80.67 159.07 77.64 163.76 72.96 161.07 C 68.92 159.37 67.03 156.18 64.21 153.11 C 61.69 148.67 72.31 142.63 75.07 139.93 C 76.78 138.66 78.51 137.30 79.99 135.77 C 80.43 135.23 80.86 134.68 81.27 134.11 C 83.92 137.73 93.29 140.40 94.56 134.62 C 95.87 128.56 101.73 124.66 102.95 119.08 C 99.15 120.31 94.33 121.62 90.95 123.59 C 95.69 122.81 96.76 123.79 95.70 128.69 C 93.64 131.78 89.72 137.81 85.31 135.72 C 82.30 133.85 81.90 129.11 80.77 126.00 C 81.91 114.52 95.72 118.08 103.36 115.05 Z" fill="#513842" />
<path d="M 42.36 115.94 C 46.74 119.32 50.81 119.74 51.39 126.20 C 47.88 128.63 42.10 126.15 40.78 130.87 C 40.14 132.75 35.45 130.81 33.94 130.94 C 31.91 127.45 31.01 126.19 26.93 124.79 C 28.20 122.11 27.52 119.66 31.31 119.58 C 35.68 119.91 38.74 118.06 42.36 115.94 Z" fill="#a78fa4" />
<path d="M 102.95 119.08 C 101.73 124.66 95.87 128.56 94.56 134.62 C 93.29 140.40 83.92 137.73 81.27 134.11 C 80.12 129.40 78.79 128.89 74.41 131.44 C 68.48 134.86 59.57 131.86 53.09 133.79 C 48.28 136.90 45.07 131.48 39.80 133.64 C 37.49 133.56 35.25 133.15 32.97 132.83 C 33.28 132.20 33.61 131.56 33.94 130.94 C 35.45 130.81 40.14 132.75 40.78 130.87 C 42.10 126.15 47.88 128.63 51.39 126.20 C 53.92 125.05 56.46 123.95 59.06 122.98 C 62.34 124.72 64.82 128.50 67.94 129.91 C 67.48 127.39 66.12 125.16 64.89 122.95 C 68.63 121.10 70.30 123.99 72.46 126.49 C 74.49 125.14 75.57 123.50 76.53 121.28 C 77.26 123.13 77.86 125.04 78.57 126.89 C 79.53 124.19 78.79 123.31 80.77 126.00 C 81.90 129.11 82.30 133.85 85.31 135.72 C 89.72 137.81 93.64 131.78 95.70 128.69 C 96.76 123.79 95.69 122.81 90.95 123.59 C 94.33 121.62 99.15 120.31 102.95 119.08 Z" fill="#927985" />
<path d="M 162.79 118.92 C 163.29 120.83 163.31 122.15 162.81 124.05 C 161.30 122.16 161.32 120.84 162.79 118.92 Z" fill="#767885" />
<path d="M 191.89 127.89 C 186.96 127.60 183.54 128.66 179.02 125.71 C 183.49 122.87 188.65 123.78 191.89 127.89 Z" fill="#947698" />
<path d="M 26.93 124.79 C 31.01 126.19 31.91 127.45 33.94 130.94 C 29.41 128.87 26.99 133.51 27.78 137.29 C 25.65 140.66 23.78 143.67 22.53 147.51 C 20.45 149.13 21.85 145.38 21.40 144.34 C 20.46 139.88 19.56 135.81 20.13 131.18 C 20.59 129.84 21.04 128.49 21.54 127.16 C 23.56 126.95 24.67 124.94 26.93 124.79 Z" fill="#84708d" />
<path d="M 179.02 125.71 C 183.54 128.66 186.96 127.60 191.89 127.89 C 199.59 139.64 209.80 148.58 220.87 157.02 C 221.34 160.47 222.70 162.48 225.08 164.90 C 227.72 170.40 224.98 174.94 228.63 179.95 C 229.15 181.18 230.09 181.99 231.10 182.81 C 230.96 186.60 230.92 190.36 231.35 194.12 L 231.39 194.88 C 230.50 197.86 229.99 200.78 229.64 203.87 C 229.11 207.88 228.47 211.56 232.27 214.14 C 231.59 214.86 230.90 215.57 230.20 216.28 C 224.17 218.70 226.64 212.08 225.54 208.47 C 223.08 208.36 220.25 209.37 220.28 205.77 C 220.24 202.85 219.04 205.30 217.58 205.83 C 214.20 200.84 214.09 193.75 211.94 188.07 C 216.57 185.48 210.25 177.39 209.30 173.68 C 206.77 169.23 209.23 164.57 206.72 160.30 C 203.19 154.79 201.06 148.13 196.81 143.18 C 194.40 141.23 191.41 140.29 188.99 138.25 C 182.25 139.63 176.08 143.71 170.96 148.13 C 170.77 150.92 173.11 153.72 174.30 156.15 C 171.76 158.00 169.04 165.30 168.89 168.97 C 165.20 171.24 164.22 178.64 160.09 178.94 C 159.96 175.29 161.58 171.73 161.96 168.06 C 159.21 173.13 157.46 173.15 152.08 174.25 C 151.08 174.08 150.08 173.89 149.09 173.69 C 152.31 164.98 157.07 157.85 162.08 150.18 C 164.56 142.69 169.30 136.81 172.86 129.89 C 174.88 128.48 176.89 126.95 179.02 125.71 Z" fill="#7c547f" />
<path d="M 153.85 128.00 C 154.24 131.45 154.12 134.79 153.40 138.18 C 153.07 137.09 152.73 136.00 152.38 134.91 C 152.75 132.85 152.46 129.59 153.85 128.00 Z" fill="#8f828d" />
<path d="M 33.94 130.94 C 33.61 131.56 33.28 132.20 32.97 132.83 C 31.91 134.50 32.97 137.06 32.93 138.95 C 30.61 135.40 31.84 134.00 27.78 137.29 C 26.99 133.51 29.41 128.87 33.94 130.94 Z" fill="#463e55" />
<path d="M 81.27 134.11 C 80.86 134.68 80.43 135.23 79.99 135.77 C 80.62 132.63 76.53 136.54 75.26 136.73 C 69.41 139.08 64.18 137.37 58.24 137.65 C 54.91 136.74 53.35 137.92 53.09 133.79 C 59.57 131.86 68.48 134.86 74.41 131.44 C 78.79 128.89 80.12 129.40 81.27 134.11 Z" fill="#6d5368" />
<path d="M 109.69 131.73 C 110.81 132.57 111.94 133.40 113.07 134.22 L 113.20 134.87 C 113.36 136.39 113.78 137.45 115.13 138.29 C 117.00 139.63 118.55 141.06 119.78 143.02 C 121.15 148.63 122.63 154.14 123.23 159.91 C 122.62 161.59 122.51 162.69 123.73 164.11 C 124.15 166.35 124.70 168.55 125.26 170.76 C 125.02 173.69 124.74 176.43 125.81 179.24 C 125.75 184.26 127.22 184.59 121.90 182.70 C 121.94 178.76 121.82 174.79 121.45 170.87 C 121.10 167.12 120.80 163.43 119.65 159.82 C 118.16 154.10 116.35 148.53 113.76 143.20 C 111.33 138.71 106.71 137.15 103.78 132.90 L 103.95 132.10 C 106.80 130.40 106.77 129.66 109.69 131.73 Z" fill="#25223a" />
<path d="M 113.07 134.22 C 111.94 133.40 110.81 132.57 109.69 131.73 C 113.26 131.23 114.67 129.46 113.07 134.22 Z" fill="#c1b2cb" />
<path d="M 103.78 132.90 C 106.71 137.15 111.33 138.71 113.76 143.20 C 116.35 148.53 118.16 154.10 119.65 159.82 C 117.56 162.20 115.51 164.65 113.59 167.16 C 113.35 165.45 114.19 163.36 112.87 162.11 C 109.61 157.93 108.45 152.64 104.66 148.59 C 103.90 148.01 102.35 149.76 101.58 150.05 C 99.98 148.32 98.52 146.47 96.86 144.79 C 95.73 142.49 97.23 141.17 98.13 139.12 C 99.40 137.69 101.42 131.34 103.78 132.90 Z" fill="#866c77" />
<path d="M 162.81 131.94 C 163.40 133.89 163.49 135.33 162.34 137.08 C 161.63 135.14 161.35 133.61 162.81 131.94 Z" fill="#9397a9" />
<path d="M 204.89 131.96 C 207.31 132.59 208.61 134.05 210.15 135.88 L 207.86 136.26 C 206.41 134.94 205.61 133.78 204.89 131.96 Z" fill="#797889" />
<path d="M 53.09 133.79 C 53.35 137.92 54.91 136.74 58.24 137.65 C 55.20 140.65 51.31 141.92 47.23 142.79 C 45.65 140.12 46.79 135.21 43.21 134.67 C 42.09 134.27 40.95 133.93 39.80 133.64 C 45.07 131.48 48.28 136.90 53.09 133.79 Z" fill="#d2ccca" />
<path d="M 79.99 135.77 C 78.51 137.30 76.78 138.66 75.07 139.93 L 73.90 138.80 C 74.35 138.11 74.81 137.42 75.26 136.73 C 76.53 136.54 80.62 132.63 79.99 135.77 Z" fill="#cbb9c2" />
<path d="M 43.21 134.67 C 46.79 135.21 45.65 140.12 47.23 142.79 C 51.31 141.92 55.20 140.65 58.24 137.65 C 64.18 137.37 69.41 139.08 75.26 136.73 C 74.81 137.42 74.35 138.11 73.90 138.80 C 72.30 139.91 70.72 141.05 69.07 142.07 C 65.96 142.04 62.85 142.00 59.74 142.19 C 55.63 141.60 52.66 146.58 49.31 146.68 C 43.54 146.50 45.80 136.58 39.91 141.93 C 38.32 142.18 37.32 142.62 36.62 144.16 C 32.03 141.31 40.94 136.17 43.21 134.67 Z" fill="#27243b" />
<path d="M 113.20 134.87 C 115.18 135.24 116.45 136.34 115.13 138.29 C 113.78 137.45 113.36 136.39 113.20 134.87 Z" fill="#cdb9d9" />
<path d="M 152.38 134.91 C 152.73 136.00 153.07 137.09 153.40 138.18 C 153.15 140.13 152.93 142.08 152.70 144.03 C 151.79 145.75 150.89 149.70 152.82 150.93 C 153.75 151.43 154.73 151.83 155.75 152.13 C 155.14 153.84 154.48 155.54 153.65 157.16 C 150.69 154.53 151.30 159.51 151.08 161.16 C 144.37 164.66 147.51 175.14 144.34 180.34 C 142.37 183.51 144.34 186.56 143.02 190.03 C 140.19 186.45 140.56 190.94 137.14 187.80 C 135.21 186.23 133.27 184.86 131.66 183.04 C 132.42 182.69 133.18 182.34 133.94 182.00 C 136.16 185.60 138.91 185.71 137.24 181.04 C 136.65 179.75 136.03 178.48 135.55 177.14 C 136.16 175.32 135.92 174.36 138.07 173.86 L 138.30 174.90 C 139.47 178.95 138.04 183.93 140.79 187.06 C 141.49 182.53 140.27 178.46 139.88 174.00 C 139.85 168.03 140.62 161.68 139.34 155.82 L 139.27 155.03 C 139.84 154.24 140.41 153.46 141.00 152.68 C 142.55 156.04 141.78 159.18 142.19 162.83 C 145.92 163.77 142.14 155.34 145.88 153.97 C 147.73 152.72 146.61 151.53 145.91 149.99 C 147.34 143.77 149.19 140.17 152.38 134.91 Z" fill="#5b474a" />
<path d="M 210.15 135.88 C 211.51 136.10 213.82 136.80 212.85 138.62 C 211.33 139.37 210.48 136.96 210.15 135.88 Z" fill="#72728a" />
<path d="M 139.86 138.08 C 140.02 142.98 140.17 147.84 141.00 152.68 C 140.41 153.46 139.84 154.24 139.27 155.03 C 138.48 150.17 137.43 142.32 139.86 138.08 Z" fill="#928284" />
<path d="M 188.99 138.25 C 191.41 140.29 194.40 141.23 196.81 143.18 C 201.06 148.13 203.19 154.79 206.72 160.30 C 209.23 164.57 206.77 169.23 209.30 173.68 C 210.25 177.39 216.57 185.48 211.94 188.07 C 211.34 188.67 210.75 189.28 210.16 189.89 C 210.76 180.37 203.91 177.18 198.92 170.47 L 197.76 171.08 C 196.30 168.67 194.33 166.85 192.18 165.07 C 192.38 164.27 192.30 163.52 191.94 162.80 C 190.16 159.67 187.34 158.62 183.99 157.92 C 179.89 155.79 177.45 162.59 173.71 163.97 C 169.94 164.11 171.78 167.24 168.89 168.97 C 169.04 165.30 171.76 158.00 174.30 156.15 C 173.11 153.72 170.77 150.92 170.96 148.13 C 176.08 143.71 182.25 139.63 188.99 138.25 Z" fill="#8c6697" />
<path d="M 39.91 141.93 C 39.62 143.69 38.54 146.44 36.62 144.16 C 37.32 142.62 38.32 142.18 39.91 141.93 Z" fill="#93919e" />
<path d="M 59.74 142.19 C 62.85 142.00 65.96 142.04 69.07 142.07 C 66.56 143.83 62.47 143.05 59.74 142.19 Z" fill="#9f9fa9" />
<path d="M 81.99 142.13 C 83.78 142.71 84.78 143.66 86.70 142.86 C 88.30 147.47 91.14 156.03 87.00 159.91 C 84.03 161.55 80.74 163.08 77.64 164.54 C 63.59 166.62 50.41 169.74 36.08 168.96 C 39.48 160.90 36.38 155.06 31.14 148.94 C 35.88 150.95 39.47 155.56 44.29 157.59 C 50.93 157.32 57.82 154.89 64.21 153.11 C 67.03 156.18 68.92 159.37 72.96 161.07 C 77.64 163.76 80.67 159.07 81.78 155.10 C 80.14 152.79 78.47 150.43 76.62 148.29 C 74.27 146.93 71.32 151.15 70.14 152.81 C 73.49 154.78 74.09 152.48 76.89 151.08 C 78.82 153.38 77.37 155.32 76.70 157.79 C 74.73 157.75 64.90 154.44 67.03 151.85 C 69.04 152.19 72.58 148.66 69.36 147.99 C 73.23 144.62 77.35 144.20 81.99 142.13 Z" fill="#694c70" />
<path d="M 88.09 142.39 C 93.34 148.12 99.87 154.18 100.26 162.43 C 98.50 166.73 92.85 169.23 88.70 170.58 C 82.13 168.69 76.56 170.75 69.88 171.59 C 67.92 171.98 65.99 172.58 64.02 172.83 C 58.21 169.65 70.80 171.36 66.83 168.43 C 63.02 169.37 59.18 170.22 55.39 171.20 C 55.57 171.85 55.76 172.50 55.98 173.14 C 54.26 172.45 53.22 172.60 51.87 173.87 L 51.10 174.21 C 49.16 173.63 47.60 173.44 45.92 174.78 L 44.11 175.16 C 42.41 174.63 41.21 174.50 39.89 175.87 L 38.08 175.79 C 36.38 174.36 34.86 174.62 32.91 175.37 C 28.55 173.56 23.87 169.49 21.91 165.17 C 27.72 169.27 28.57 170.86 36.08 168.96 C 50.41 169.74 63.59 166.62 77.64 164.54 C 80.74 163.08 84.03 161.55 87.00 159.91 C 91.14 156.03 88.30 147.47 86.70 142.86 L 88.09 142.39 Z" fill="#26233e" />
<path d="M 88.09 142.39 C 92.50 141.70 93.37 142.69 95.69 146.21 C 97.69 150.97 100.87 160.15 106.02 161.88 C 104.34 157.34 105.62 153.34 101.58 150.05 C 102.35 149.76 103.90 148.01 104.66 148.59 C 108.45 152.64 109.61 157.93 112.87 162.11 C 114.19 163.36 113.35 165.45 113.59 167.16 C 115.47 168.90 116.57 170.11 119.02 168.56 C 119.71 170.38 119.91 172.24 120.17 174.15 C 115.12 171.05 117.64 173.09 117.75 176.94 C 115.49 177.43 114.75 175.04 113.41 173.69 C 111.56 168.20 108.46 170.15 106.69 163.23 C 103.61 163.82 108.69 169.27 107.92 171.73 C 103.87 172.28 109.20 178.91 105.73 180.70 C 100.44 183.27 96.71 188.99 93.76 193.90 C 92.49 197.34 92.00 197.06 88.50 196.99 C 88.68 194.78 88.98 192.58 89.08 190.36 C 85.74 193.51 85.44 188.06 82.01 191.16 C 83.42 193.03 85.21 194.15 86.93 195.72 C 84.38 195.74 81.82 195.89 79.27 195.73 C 76.45 189.28 79.36 183.21 79.58 177.40 C 77.30 170.71 74.30 178.54 69.62 177.15 C 71.17 175.17 73.97 172.79 69.88 171.59 C 76.56 170.75 82.13 168.69 88.70 170.58 C 92.85 169.23 98.50 166.73 100.26 162.43 C 99.87 154.18 93.34 148.12 88.09 142.39 Z" fill="#6d5076" />
<path d="M 152.70 144.03 C 153.26 146.49 153.30 148.45 152.82 150.93 C 150.89 149.70 151.79 145.75 152.70 144.03 Z" fill="#b3a8ad" />
<path d="M 96.86 144.79 C 98.52 146.47 99.98 148.32 101.58 150.05 C 105.62 153.34 104.34 157.34 106.02 161.88 C 100.87 160.15 97.69 150.97 95.69 146.21 L 96.86 144.79 Z" fill="#241f3c" />
<path d="M 69.36 147.99 C 72.58 148.66 69.04 152.19 67.03 151.85 C 67.76 150.55 68.39 149.12 69.36 147.99 Z" fill="#a996a6" />
<path d="M 145.91 149.99 C 146.61 151.53 147.73 152.72 145.88 153.97 C 144.74 152.37 144.46 151.52 145.91 149.99 Z" fill="#a79b9c" />
<path d="M 134.25 151.95 C 135.79 153.96 135.97 155.27 135.82 157.78 C 135.25 159.92 134.73 162.08 134.18 164.23 C 133.95 160.10 133.83 156.07 134.25 151.95 Z" fill="#beb9b8" />
<path d="M 139.34 155.82 C 140.62 161.68 139.85 168.03 139.88 174.00 L 139.03 173.83 C 139.05 167.79 138.75 161.85 139.34 155.82 Z" fill="#8d7f80" />
<path d="M 153.65 157.16 C 152.94 158.65 152.40 160.09 151.08 161.16 C 151.30 159.51 150.69 154.53 153.65 157.16 Z" fill="#c0c0c2" />
<path d="M 183.99 157.92 C 187.34 158.62 190.16 159.67 191.94 162.80 C 183.98 164.26 179.74 171.81 174.62 177.22 C 174.61 174.94 175.85 173.15 175.31 170.82 C 176.53 167.64 173.59 166.87 173.71 163.97 C 177.45 162.59 179.89 155.79 183.99 157.92 Z" fill="#bdabbe" />
<path d="M 220.87 157.02 C 224.34 159.14 224.81 160.96 225.08 164.90 C 222.70 162.48 221.34 160.47 220.87 157.02 Z" fill="#9d91a2" />
<path d="M 135.82 157.78 C 135.88 163.14 137.07 168.55 138.07 173.86 C 135.92 174.36 136.16 175.32 135.55 177.14 C 134.85 172.90 134.59 168.51 134.18 164.23 C 134.73 162.08 135.25 159.92 135.82 157.78 Z" fill="#8e8182" />
<path d="M 119.65 159.82 C 120.80 163.43 121.10 167.12 121.45 170.87 C 121.20 172.06 120.77 173.16 120.17 174.15 C 119.91 172.24 119.71 170.38 119.02 168.56 C 116.57 170.11 115.47 168.90 113.59 167.16 C 115.51 164.65 117.56 162.20 119.65 159.82 Z" fill="#cfc1d1" />
<path d="M 123.23 159.91 C 124.53 161.30 124.38 162.43 123.73 164.11 C 122.51 162.69 122.62 161.59 123.23 159.91 Z" fill="#9f9eaf" />
<path d="M 106.69 163.23 C 108.46 170.15 111.56 168.20 113.41 173.69 C 113.66 175.88 113.67 177.99 113.37 180.18 C 111.53 177.34 109.40 174.79 107.92 171.73 C 108.69 169.27 103.61 163.82 106.69 163.23 Z" fill="#2b253e" />
<path d="M 191.94 162.80 C 192.30 163.52 192.38 164.27 192.18 165.07 C 185.82 166.62 183.96 171.56 179.95 176.01 C 173.46 180.42 168.44 192.06 172.65 199.36 C 174.33 203.52 178.21 202.83 181.83 202.55 C 186.43 201.75 190.61 203.02 194.85 204.68 C 199.71 208.28 204.56 210.87 208.13 216.02 C 209.21 221.12 200.87 218.45 197.97 218.61 C 199.70 218.16 201.40 217.73 202.99 216.88 C 201.53 214.56 200.15 213.33 197.41 212.74 C 195.01 212.00 192.59 211.30 190.17 210.64 C 187.82 209.97 185.47 209.34 183.12 208.71 C 178.91 206.30 173.07 203.83 170.50 199.58 C 169.34 196.05 166.33 191.63 167.91 187.98 C 168.88 183.35 171.98 180.82 174.62 177.22 C 179.74 171.81 183.98 164.26 191.94 162.80 Z" fill="#26223d" />
<path d="M 173.71 163.97 C 173.59 166.87 176.53 167.64 175.31 170.82 C 169.27 170.21 168.80 184.38 162.99 182.37 C 157.93 180.31 157.36 181.31 153.37 184.31 C 152.67 180.98 152.51 177.62 152.08 174.25 C 157.46 173.15 159.21 173.13 161.96 168.06 C 161.58 171.73 159.96 175.29 160.09 178.94 C 164.22 178.64 165.20 171.24 168.89 168.97 C 171.78 167.24 169.94 164.11 173.71 163.97 Z" fill="#aa93a9" />
<path d="M 192.18 165.07 C 194.33 166.85 196.30 168.67 197.76 171.08 L 198.27 171.95 C 193.48 173.59 196.57 171.81 194.64 169.15 C 193.62 173.14 191.28 170.96 188.33 171.46 C 185.32 172.46 182.92 174.81 179.95 176.01 C 183.96 171.56 185.82 166.62 192.18 165.07 Z" fill="#c4aec2" />
<path d="M 225.08 164.90 C 228.99 166.12 231.46 170.83 233.23 174.25 C 232.43 179.59 236.80 182.89 235.17 188.05 C 233.81 193.99 234.15 200.02 233.08 206.01 C 232.66 209.16 235.24 211.87 232.27 214.14 C 228.47 211.56 229.11 207.88 229.64 203.87 C 233.70 204.92 231.65 197.04 231.39 194.88 L 231.35 194.12 C 233.94 189.95 233.27 186.94 231.10 182.81 C 231.58 180.94 230.29 175.49 228.63 179.95 C 224.98 174.94 227.72 170.40 225.08 164.90 Z" fill="#9d829d" />
<path d="M 66.83 168.43 C 70.80 171.36 58.21 169.65 64.02 172.83 C 61.35 173.06 58.65 173.04 55.98 173.14 C 55.76 172.50 55.57 171.85 55.39 171.20 C 59.18 170.22 63.02 169.37 66.83 168.43 Z" fill="#888493" />
<path d="M 194.64 169.15 C 196.57 171.81 193.48 173.59 198.27 171.95 C 201.35 177.29 207.01 181.23 208.89 187.02 C 208.16 190.22 205.56 190.78 202.90 191.89 C 198.79 193.25 193.60 194.80 189.30 193.71 C 184.86 191.60 187.35 183.44 191.66 183.10 C 192.57 186.04 190.81 189.32 195.37 187.40 C 200.35 186.37 197.45 177.63 193.15 179.10 C 186.99 182.41 181.42 185.81 183.10 193.90 C 186.57 199.71 192.18 198.01 197.76 196.74 C 200.17 198.62 199.12 198.39 198.07 200.65 C 200.23 199.98 201.68 198.99 203.91 200.16 C 201.53 203.68 198.81 204.09 194.85 204.68 C 190.61 203.02 186.43 201.75 181.83 202.55 C 178.21 202.83 174.33 203.52 172.65 199.36 C 168.44 192.06 173.46 180.42 179.95 176.01 C 182.92 174.81 185.32 172.46 188.33 171.46 C 191.28 170.96 193.62 173.14 194.64 169.15 Z" fill="#aa94aa" />
<path d="M 198.92 170.47 C 203.91 177.18 210.76 180.37 210.16 189.89 L 210.13 190.61 C 209.04 191.22 207.96 191.83 206.89 192.46 C 203.81 193.81 200.78 195.26 197.76 196.74 C 192.18 198.01 186.57 199.71 183.10 193.90 C 181.42 185.81 186.99 182.41 193.15 179.10 C 197.45 177.63 200.35 186.37 195.37 187.40 C 190.81 189.32 192.57 186.04 191.66 183.10 C 187.35 183.44 184.86 191.60 189.30 193.71 C 193.60 194.80 198.79 193.25 202.90 191.89 C 205.56 190.78 208.16 190.22 208.89 187.02 C 207.01 181.23 201.35 177.29 198.27 171.95 L 197.76 171.08 L 198.92 170.47 Z" fill="#28213e" />
<path d="M 121.45 170.87 C 121.82 174.79 121.94 178.76 121.90 182.70 C 120.82 183.75 119.85 184.90 118.77 185.95 C 116.22 186.27 114.45 182.00 113.37 180.18 C 113.67 177.99 113.66 175.88 113.41 173.69 C 114.75 175.04 115.49 177.43 117.75 176.94 C 117.64 173.09 115.12 171.05 120.17 174.15 C 120.77 173.16 121.20 172.06 121.45 170.87 Z" fill="#8f7f8a" />
<path d="M 125.26 170.76 C 126.21 173.57 125.99 176.34 125.81 179.24 C 124.74 176.43 125.02 173.69 125.26 170.76 Z" fill="#9c9cab" />
<path d="M 175.31 170.82 C 175.85 173.15 174.61 174.94 174.62 177.22 C 171.98 180.82 168.88 183.35 167.91 187.98 C 166.33 191.63 169.34 196.05 170.50 199.58 C 173.07 203.83 178.91 206.30 183.12 208.71 C 179.13 208.65 178.59 210.49 176.15 212.93 C 171.07 209.55 166.35 206.33 164.62 200.13 C 162.39 201.56 163.25 206.29 160.35 207.35 C 156.60 209.20 152.47 211.87 148.17 210.33 C 150.27 206.77 151.81 203.28 152.17 199.11 C 160.42 198.91 161.08 188.27 162.99 182.37 C 168.80 184.38 169.27 170.21 175.31 170.82 Z" fill="#876890" />
<path d="M 55.98 173.14 C 54.72 174.51 53.52 174.34 51.87 173.87 C 53.22 172.60 54.26 172.45 55.98 173.14 Z" fill="#787188" />
<path d="M 51.10 174.21 C 49.42 175.56 47.87 175.36 45.92 174.78 C 47.60 173.44 49.16 173.63 51.10 174.21 Z" fill="#a5a2ad" />
<path d="M 79.58 177.40 C 79.36 183.21 76.45 189.28 79.27 195.73 C 81.82 195.89 84.38 195.74 86.93 195.72 C 85.21 194.15 83.42 193.03 82.01 191.16 C 85.44 188.06 85.74 193.51 89.08 190.36 C 88.98 192.58 88.68 194.78 88.50 196.99 C 92.00 197.06 92.49 197.34 93.76 193.90 C 93.65 197.82 95.72 199.40 98.33 201.81 C 98.82 208.02 96.10 202.45 94.22 201.33 C 91.91 203.31 90.04 205.34 86.32 204.88 C 86.33 203.28 86.50 201.71 86.58 200.11 C 81.18 204.77 78.01 196.44 70.84 198.05 C 72.61 196.63 75.03 195.07 76.01 192.96 C 76.38 191.39 73.26 190.64 72.32 189.68 C 71.54 186.92 79.68 179.95 75.00 178.94 C 70.56 183.45 65.23 186.72 60.78 191.02 C 62.87 192.83 65.25 193.44 67.76 194.43 C 65.40 197.51 62.44 199.20 61.11 203.02 C 64.02 203.05 65.79 201.37 68.06 199.87 C 72.52 199.75 64.74 202.83 65.55 205.09 C 65.50 205.66 65.48 206.22 65.49 206.78 C 71.36 209.30 77.56 210.50 83.13 213.83 C 85.97 214.64 85.13 218.03 85.90 220.26 C 89.56 223.06 95.57 225.19 100.20 224.82 C 103.67 225.14 104.75 227.61 106.76 229.98 C 105.76 230.57 104.81 231.23 103.86 231.91 C 100.27 232.05 96.67 232.06 93.07 231.98 C 84.17 228.00 78.53 232.99 70.28 230.72 C 67.19 227.80 60.69 230.56 56.78 230.74 C 48.23 231.93 37.74 226.62 30.22 222.67 C 29.70 217.36 32.38 218.61 36.19 218.36 C 39.95 224.31 38.74 218.06 44.11 220.84 C 43.15 220.84 40.32 220.41 40.24 221.83 C 41.51 224.10 43.35 222.66 44.11 220.84 C 49.01 218.02 52.52 224.60 55.20 220.08 C 51.08 217.63 46.73 215.74 42.41 213.71 C 42.38 212.79 42.35 211.87 42.30 210.96 C 45.49 211.96 46.91 212.90 49.44 210.00 C 51.88 211.28 54.99 215.15 57.72 212.69 C 58.28 211.65 57.40 210.23 57.10 209.18 C 61.12 210.15 61.46 210.00 64.17 206.91 C 62.38 205.40 60.94 205.38 58.99 206.48 C 57.23 200.51 52.97 196.34 53.29 189.35 C 58.83 185.52 63.93 180.58 69.62 177.15 C 74.30 178.54 77.30 170.71 79.58 177.40 Z" fill="#7c5a7c" />
<path d="M 139.03 173.83 L 139.88 174.00 C 140.27 178.46 141.49 182.53 140.79 187.06 C 138.04 183.93 139.47 178.95 138.30 174.90 L 139.03 173.83 Z" fill="#c6b1b3" />
<path d="M 32.91 175.37 C 34.86 174.62 36.38 174.36 38.08 175.79 C 36.17 176.36 34.64 176.50 32.91 175.37 Z" fill="#6b6a7d" />
<path d="M 44.11 175.16 C 42.75 176.47 41.61 176.38 39.89 175.87 C 41.21 174.50 42.41 174.63 44.11 175.16 Z" fill="#848293" />
<path d="M 231.10 182.81 C 230.09 181.99 229.15 181.18 228.63 179.95 C 230.29 175.49 231.58 180.94 231.10 182.81 Z" fill="#e1cae1" />
<path d="M 75.00 178.94 C 79.68 179.95 71.54 186.92 72.32 189.68 C 73.26 190.64 76.38 191.39 76.01 192.96 C 75.03 195.07 72.61 196.63 70.84 198.05 C 69.90 198.65 68.97 199.24 68.06 199.87 C 65.79 201.37 64.02 203.05 61.11 203.02 C 62.44 199.20 65.40 197.51 67.76 194.43 C 65.25 193.44 62.87 192.83 60.78 191.02 C 65.23 186.72 70.56 183.45 75.00 178.94 Z" fill="#a44c56" />
<path d="M 133.94 182.00 C 133.18 182.34 132.42 182.69 131.66 183.04 C 129.65 178.76 132.18 177.32 133.94 182.00 Z" fill="#93888a" />
<path d="M 137.24 181.04 C 138.91 185.71 136.16 185.60 133.94 182.00 C 135.68 182.05 136.99 183.64 137.24 181.04 Z" fill="#978b8c" />
<path d="M 162.99 182.37 C 161.08 188.27 160.42 198.91 152.17 199.11 C 154.04 194.98 150.98 192.80 150.02 189.02 C 150.22 187.29 152.43 185.80 153.37 184.31 C 157.36 181.31 157.93 180.31 162.99 182.37 Z" fill="#724f72" />
<path d="M 231.10 182.81 C 233.27 186.94 233.94 189.95 231.35 194.12 C 230.92 190.36 230.96 186.60 231.10 182.81 Z" fill="#dcc0da" />
<path d="M 137.14 187.80 C 140.56 190.94 140.19 186.45 143.02 190.03 L 142.84 190.95 C 140.88 192.51 136.58 191.64 136.94 194.67 C 135.69 195.08 134.44 195.46 133.18 195.79 C 131.90 195.46 130.62 195.13 129.34 194.78 C 130.82 193.24 132.36 192.59 131.91 190.08 C 126.73 190.11 127.95 196.77 122.16 195.87 C 122.12 193.76 126.44 192.64 127.05 189.81 C 130.39 189.07 133.78 188.48 137.14 187.80 Z" fill="#998597" />
<path d="M 211.94 188.07 C 214.09 193.75 214.20 200.84 217.58 205.83 C 216.30 209.54 219.18 211.86 215.64 214.63 C 213.28 215.96 209.11 221.10 208.13 216.02 C 204.56 210.87 199.71 208.28 194.85 204.68 C 198.81 204.09 201.53 203.68 203.91 200.16 C 201.68 198.99 200.23 199.98 198.07 200.65 C 199.12 198.39 200.17 198.62 197.76 196.74 C 200.78 195.26 203.81 193.81 206.89 192.46 C 209.85 197.59 206.96 205.70 209.34 211.89 C 213.20 212.30 211.78 206.27 212.02 203.99 C 211.11 199.70 212.58 194.32 210.13 190.61 L 210.16 189.89 C 210.75 189.28 211.34 188.67 211.94 188.07 Z" fill="#bfacbb" />
<path d="M 127.05 189.81 C 126.44 192.64 122.12 193.76 122.16 195.87 C 127.95 196.77 126.73 190.11 131.91 190.08 C 132.36 192.59 130.82 193.24 129.34 194.78 C 130.62 195.13 131.90 195.46 133.18 195.79 C 129.36 197.02 125.80 198.47 122.81 201.23 C 120.08 195.44 117.96 205.07 112.95 202.87 C 117.03 198.98 118.88 201.14 116.06 194.61 C 119.54 192.30 122.72 190.05 127.05 189.81 Z" fill="#b9a3bb" />
<path d="M 142.84 190.95 C 144.07 193.52 147.07 196.14 147.62 198.80 C 145.53 202.54 140.87 208.09 136.20 207.98 C 135.78 207.32 135.37 206.67 134.94 206.02 C 138.82 203.64 141.13 197.88 136.94 194.67 C 136.58 191.64 140.88 192.51 142.84 190.95 Z" fill="#6c546d" />
<path d="M 210.13 190.61 C 212.58 194.32 211.11 199.70 212.02 203.99 C 211.78 206.27 213.20 212.30 209.34 211.89 C 206.96 205.70 209.85 197.59 206.89 192.46 C 207.96 191.83 209.04 191.22 210.13 190.61 Z" fill="#9a7f9c" />
<path d="M 116.06 194.61 C 118.88 201.14 117.03 198.98 112.95 202.87 C 117.96 205.07 120.08 195.44 122.81 201.23 C 125.00 204.70 127.34 208.06 129.48 211.56 C 133.89 212.99 138.58 211.50 142.74 209.90 C 144.02 211.03 145.17 211.76 146.82 212.23 C 144.34 217.17 140.99 216.65 136.56 217.27 C 134.15 212.78 131.58 220.89 127.61 218.44 C 123.61 214.49 119.58 211.30 116.81 206.26 C 112.65 210.33 105.99 211.47 100.68 213.57 C 95.43 213.04 89.05 208.45 83.69 209.79 C 77.07 210.38 71.57 202.90 65.55 205.09 C 64.74 202.83 72.52 199.75 68.06 199.87 C 68.97 199.24 69.90 198.65 70.84 198.05 C 78.01 196.44 81.18 204.77 86.58 200.11 C 86.50 201.71 86.33 203.28 86.32 204.88 C 90.04 205.34 91.91 203.31 94.22 201.33 C 96.10 202.45 98.82 208.02 98.33 201.81 C 99.53 201.68 100.72 201.58 101.93 201.67 C 102.19 202.28 104.67 205.31 104.57 203.15 C 104.22 199.90 107.34 201.86 108.07 198.92 C 110.55 197.08 113.34 196.02 116.06 194.61 Z" fill="#87738b" />
<path d="M 231.39 194.88 C 231.65 197.04 233.70 204.92 229.64 203.87 C 229.99 200.78 230.50 197.86 231.39 194.88 Z" fill="#cebcce" />
<path d="M 23.91 196.15 C 30.12 200.06 33.89 201.40 41.14 202.76 C 33.67 201.96 39.65 206.83 40.99 210.09 C 37.53 210.23 35.11 208.82 32.11 207.44 C 29.20 203.91 25.89 200.30 23.91 196.15 Z" fill="#8a5c64" />
<path d="M 108.07 198.92 C 107.34 201.86 104.22 199.90 104.57 203.15 C 104.67 205.31 102.19 202.28 101.93 201.67 C 103.87 200.48 105.94 199.69 108.07 198.92 Z" fill="#baacb9" />
<path d="M 152.17 199.11 C 151.81 203.28 150.27 206.77 148.17 210.33 C 147.73 210.97 147.28 211.60 146.82 212.23 C 145.17 211.76 144.02 211.03 142.74 209.90 C 146.20 206.48 149.35 203.10 152.17 199.11 Z" fill="#6a546b" />
<path d="M 131.93 200.24 C 132.01 203.78 129.84 205.91 134.94 206.02 C 135.37 206.67 135.78 207.32 136.20 207.98 C 132.31 208.37 127.29 207.15 125.95 202.99 C 127.09 201.33 130.07 200.82 131.93 200.24 Z" fill="#beb3bb" />
<path d="M 164.62 200.13 C 166.35 206.33 171.07 209.55 176.15 212.93 C 178.59 210.49 179.13 208.65 183.12 208.71 C 185.47 209.34 187.82 209.97 190.17 210.64 C 184.34 211.20 187.40 214.26 190.97 215.10 C 194.55 216.98 194.89 214.80 197.41 212.74 C 200.15 213.33 201.53 214.56 202.99 216.88 C 201.40 217.73 199.70 218.16 197.97 218.61 C 182.50 220.20 165.85 214.16 150.36 216.43 C 143.00 220.27 139.30 221.49 130.77 221.26 C 129.58 221.24 128.40 221.25 127.22 221.27 C 122.33 221.40 117.63 219.35 112.83 219.88 C 105.35 217.48 97.83 214.69 90.26 212.68 C 88.10 211.66 85.90 210.71 83.69 209.79 C 89.05 208.45 95.43 213.04 100.68 213.57 C 105.99 211.47 112.65 210.33 116.81 206.26 C 119.58 211.30 123.61 214.49 127.61 218.44 C 131.58 220.89 134.15 212.78 136.56 217.27 C 140.99 216.65 144.34 217.17 146.82 212.23 C 147.28 211.60 147.73 210.97 148.17 210.33 C 152.47 211.87 156.60 209.20 160.35 207.35 C 163.25 206.29 162.39 201.56 164.62 200.13 Z" fill="#ac9fa8" />
<path d="M 41.14 202.76 C 42.11 203.11 43.06 203.49 44.01 203.89 C 46.48 205.75 48.90 206.56 49.44 210.00 C 46.91 212.90 45.49 211.96 42.30 210.96 L 40.99 210.09 C 39.65 206.83 33.67 201.96 41.14 202.76 Z" fill="#453443" />
<path d="M 44.01 203.89 C 46.90 204.49 49.36 205.42 51.95 206.81 C 47.01 210.50 55.01 208.24 57.10 209.18 C 57.40 210.23 58.28 211.65 57.72 212.69 C 54.99 215.15 51.88 211.28 49.44 210.00 C 48.90 206.56 46.48 205.75 44.01 203.89 Z" fill="#a895a7" />
<path d="M 83.69 209.79 C 85.90 210.71 88.10 211.66 90.26 212.68 C 92.37 217.04 92.09 215.75 87.86 215.51 C 90.95 219.92 95.33 222.72 100.20 224.82 C 95.57 225.19 89.56 223.06 85.90 220.26 C 85.13 218.03 85.97 214.64 83.13 213.83 C 77.56 210.50 71.36 209.30 65.49 206.78 C 65.48 206.22 65.50 205.66 65.55 205.09 C 71.57 202.90 77.07 210.38 83.69 209.79 Z" fill="#4c384a" />
<path d="M 220.28 205.77 C 220.25 209.37 223.08 208.36 225.54 208.47 C 226.64 212.08 224.17 218.70 230.20 216.28 C 228.50 220.03 226.57 223.79 224.14 227.12 C 213.54 232.82 201.82 235.70 189.82 233.28 C 180.67 230.80 170.56 232.67 160.99 231.79 C 158.33 230.26 156.66 230.30 153.99 231.76 C 150.70 231.71 147.41 231.53 144.11 231.50 C 138.16 230.83 131.65 230.42 125.77 231.72 C 124.65 231.61 123.55 231.40 122.46 231.09 C 126.61 227.83 132.86 223.84 138.00 222.30 C 135.57 222.07 133.15 221.80 130.77 221.26 C 139.30 221.49 143.00 220.27 150.36 216.43 C 165.85 214.16 182.50 220.20 197.97 218.61 C 200.87 218.45 209.21 221.12 208.13 216.02 C 209.11 221.10 213.28 215.96 215.64 214.63 C 219.18 211.86 216.30 209.54 217.58 205.83 C 219.04 205.30 220.24 202.85 220.28 205.77 Z" fill="#765674" />
<path d="M 64.17 206.91 C 61.46 210.00 61.12 210.15 57.10 209.18 C 55.01 208.24 47.01 210.50 51.95 206.81 C 54.60 208.50 56.36 207.59 58.99 206.48 C 60.94 205.38 62.38 205.40 64.17 206.91 Z" fill="#5b4650" />
<path d="M 26.12 206.07 C 28.22 206.83 29.78 208.02 32.11 207.44 C 35.11 208.82 37.53 210.23 40.99 210.09 L 42.30 210.96 C 42.35 211.87 42.38 212.79 42.41 213.71 C 38.42 211.90 33.05 209.58 28.68 209.74 C 27.76 208.57 26.91 207.34 26.12 206.07 Z" fill="#a57f8d" />
<path d="M 42.41 213.71 C 46.73 215.74 51.08 217.63 55.20 220.08 C 52.52 224.60 49.01 218.02 44.11 220.84 C 38.74 218.06 39.95 224.31 36.19 218.36 C 33.15 215.92 31.01 212.81 28.68 209.74 C 33.05 209.58 38.42 211.90 42.41 213.71 Z" fill="#813d47" />
<path d="M 190.17 210.64 C 192.59 211.30 195.01 212.00 197.41 212.74 C 194.89 214.80 194.55 216.98 190.97 215.10 C 187.40 214.26 184.34 211.20 190.17 210.64 Z" fill="#e5e5dd" />
<path d="M 90.26 212.68 C 97.83 214.69 105.35 217.48 112.83 219.88 C 118.16 223.68 121.25 222.82 127.22 221.27 C 128.40 221.25 129.58 221.24 130.77 221.26 C 133.15 221.80 135.57 222.07 138.00 222.30 C 132.86 223.84 126.61 227.83 122.46 231.09 L 121.89 231.12 C 120.31 231.03 119.16 231.56 117.85 232.38 C 116.88 231.92 115.92 231.46 114.96 230.99 C 112.45 229.49 109.63 230.12 106.76 229.98 C 104.75 227.61 103.67 225.14 100.20 224.82 C 95.33 222.72 90.95 219.92 87.86 215.51 C 92.09 215.75 92.37 217.04 90.26 212.68 Z" fill="#2b273f" />
<path d="M 127.22 221.27 C 121.25 222.82 118.16 223.68 112.83 219.88 C 117.63 219.35 122.33 221.40 127.22 221.27 Z" fill="#837b7f" />
<path d="M 44.11 220.84 C 43.35 222.66 41.51 224.10 40.24 221.83 C 40.32 220.41 43.15 220.84 44.11 220.84 Z" fill="#f0d7e7" />
<path d="M 89.17 227.25 C 90.83 227.02 91.43 229.11 89.83 229.75 C 88.17 229.98 87.57 227.89 89.17 227.25 Z" fill="#c3a5c2" />
<path d="M 70.28 230.72 C 65.76 231.12 61.30 231.09 56.78 230.74 C 60.69 230.56 67.19 227.80 70.28 230.72 Z" fill="#453353" />
<path d="M 106.76 229.98 C 109.63 230.12 112.45 229.49 114.96 230.99 C 112.07 230.95 109.43 231.37 106.76 229.98 Z" fill="#8c8a97" />
<path d="M 121.89 231.12 C 121.04 233.40 119.86 233.73 117.85 232.38 C 119.16 231.56 120.31 231.03 121.89 231.12 Z" fill="#7d7585" />
<path d="M 144.11 231.50 C 138.07 232.31 131.84 232.15 125.77 231.72 C 131.65 230.42 138.16 230.83 144.11 231.50 Z" fill="#ae95ae" />
<path d="M 160.99 231.79 C 158.45 232.34 156.53 232.34 153.99 231.76 C 156.66 230.30 158.33 230.26 160.99 231.79 Z" fill="#af97af" />
<path d="M 93.07 231.98 C 96.67 232.06 100.27 232.05 103.86 231.91 C 101.44 233.82 95.71 233.42 93.07 231.98 Z" fill="#beafbe" />
</svg>