<?xml version="1.0" encoding="UTF-8" standalone="no"?>
<!DOCTYPE svg PUBLIC "-//W3C//DTD SVG 1.1//EN" "http://www.w3.org/Graphics/SVG/1.1/DTD/svg11.dtd">
<svg xmlns="http://www.w3.org/2000/svg" version="1.1" viewBox="0 0 256 256" width="256.0pt" height="256.0pt">
<path d="M 0.00 0.00 L 256.00 0.00 L 256.00 256.00 L 0.00 256.00 L 0.00 0.00 Z" fill="#fffffe" />
<path d="M 84.95 13.96 C 91.67 13.62 98.96 13.55 105.45 15.44 C 111.84 17.23 118.21 19.03 124.72 20.34 C 133.24 21.83 142.67 23.91 149.78 29.20 C 153.98 32.69 157.82 36.56 162.29 39.72 C 167.40 43.60 171.96 48.09 177.28 51.71 C 186.01 57.84 194.08 65.44 203.33 70.67 C 211.13 75.12 219.10 75.84 227.54 79.35 C 232.23 81.20 236.52 84.49 238.79 89.07 C 241.36 94.97 243.10 100.96 241.19 107.36 C 240.57 105.54 239.95 103.74 239.33 101.92 C 238.93 106.39 239.86 110.40 237.26 114.25 C 232.87 121.12 228.37 127.22 226.48 135.39 C 224.95 142.03 227.11 149.03 228.71 155.48 C 230.46 162.47 233.90 168.20 234.81 175.11 C 235.43 180.05 235.69 185.09 235.27 190.06 C 234.69 197.54 231.20 205.02 227.50 211.46 C 224.40 216.92 219.79 220.18 214.97 223.97 C 206.11 230.77 194.04 234.33 183.56 237.75 C 177.90 239.73 171.87 240.59 165.85 241.64 C 159.63 242.69 153.55 241.78 147.29 242.44 C 135.91 243.87 123.71 241.17 112.83 237.94 C 108.72 237.14 104.51 237.73 100.39 236.71 C 94.28 235.43 89.78 232.13 84.02 230.00 C 76.51 227.24 69.06 224.96 60.98 224.76 C 55.35 224.63 50.04 224.02 45.26 220.77 C 40.05 217.18 35.48 212.44 31.30 207.71 C 25.95 200.43 20.81 193.84 17.85 185.22 C 16.69 181.80 17.42 177.60 18.06 174.15 C 18.97 169.17 22.57 164.57 25.61 160.63 C 27.87 157.65 31.00 155.11 32.84 151.86 C 34.77 147.30 34.10 142.36 31.99 138.00 C 28.63 130.94 24.67 125.08 24.05 116.97 C 23.69 105.16 24.29 93.74 28.62 82.60 C 31.40 77.40 36.05 72.50 41.67 70.42 C 47.63 67.98 54.14 64.26 57.92 58.92 C 59.22 55.71 58.54 51.86 59.75 48.50 C 66.52 49.37 72.84 48.88 79.26 51.66 C 82.34 52.98 87.52 54.64 88.63 58.17 C 88.68 62.02 83.75 64.25 80.86 65.78 C 77.06 65.96 73.28 65.83 69.47 65.94 C 70.04 69.07 70.93 72.09 72.00 75.07 C 68.49 74.19 65.43 71.78 61.95 71.15 C 56.88 71.61 53.02 76.52 47.87 77.59 L 46.14 77.66 C 43.11 77.63 39.55 77.20 36.85 78.86 C 35.13 81.27 35.86 85.08 35.86 87.89 C 35.48 90.80 34.36 93.40 33.28 96.09 C 31.86 99.56 31.73 103.57 31.44 107.28 C 31.28 109.86 31.29 112.45 31.46 115.02 C 31.55 115.89 31.66 116.76 31.79 117.63 L 31.99 119.05 C 32.49 123.44 33.15 127.46 36.25 130.85 C 37.15 131.97 38.98 132.00 40.30 132.33 C 40.63 132.79 40.97 133.25 41.32 133.71 C 44.53 137.88 46.61 142.06 50.47 145.51 C 54.16 148.82 58.77 152.38 63.70 153.42 C 65.79 153.95 67.50 152.96 69.44 152.31 C 70.89 152.80 72.29 152.97 73.82 152.92 C 75.59 152.89 77.35 152.84 79.11 152.80 C 78.86 156.91 78.42 160.94 77.78 165.01 C 76.46 165.19 75.14 165.34 73.81 165.46 C 67.89 163.26 62.23 160.19 56.69 157.17 C 54.57 155.95 52.27 155.32 49.90 154.80 C 49.98 155.51 50.05 156.22 50.12 156.93 C 49.06 156.35 48.01 155.77 46.93 155.23 C 45.98 154.74 45.02 154.26 44.07 153.78 C 41.09 155.71 36.48 157.80 35.03 161.21 C 33.22 167.95 36.21 173.12 38.66 179.09 C 40.33 183.93 42.87 187.34 46.79 190.58 C 45.36 190.41 43.94 190.23 42.51 190.06 C 37.57 182.68 34.87 175.09 27.24 170.10 C 27.89 176.63 30.20 185.58 36.18 189.24 C 36.05 190.91 35.98 192.58 35.91 194.25 C 34.86 193.17 33.75 192.16 32.57 191.22 C 32.67 188.83 32.30 187.18 30.98 185.15 C 28.14 180.95 26.11 176.75 21.31 174.52 C 22.42 181.67 26.58 186.61 30.87 192.10 C 35.57 197.91 38.38 205.14 43.39 210.62 C 49.31 216.73 57.60 218.45 65.82 217.60 C 70.46 216.97 74.87 215.49 78.30 212.17 C 82.76 211.30 84.51 211.73 88.19 214.22 C 88.87 214.64 89.54 215.07 90.22 215.49 C 88.69 217.22 87.20 218.98 85.71 220.75 C 87.02 222.02 88.33 223.30 89.60 224.61 C 90.87 225.87 92.15 227.41 93.74 228.24 C 95.39 228.87 97.29 228.97 99.03 229.08 C 101.99 228.85 104.94 228.47 107.89 228.12 C 108.91 227.99 109.94 227.84 110.96 227.70 C 113.34 227.48 116.13 226.83 118.45 227.51 C 123.40 229.71 125.89 234.69 131.76 235.29 C 138.43 235.99 144.94 232.88 151.74 232.96 C 163.05 234.22 174.20 233.40 184.58 228.42 C 187.74 227.09 190.82 225.59 193.86 223.99 L 194.59 223.62 C 197.58 223.47 200.88 223.66 203.78 222.89 C 206.33 222.15 208.55 220.01 210.44 218.22 C 214.36 214.95 218.69 211.91 220.75 207.05 C 222.04 203.99 223.64 201.16 225.37 198.33 C 227.63 194.79 227.75 190.47 228.34 186.39 C 228.93 182.45 228.07 178.77 226.89 175.03 C 224.74 166.75 220.85 159.32 217.56 151.49 C 215.35 146.27 215.01 140.72 215.52 135.12 C 215.96 130.93 218.05 126.69 219.91 122.95 C 221.99 118.80 224.32 114.94 227.99 111.99 C 230.48 109.72 234.06 107.80 235.67 104.83 C 235.79 103.95 235.90 103.07 236.00 102.18 C 235.14 102.43 234.28 102.68 233.42 102.93 C 230.11 101.44 226.80 100.23 223.79 98.16 C 226.60 98.74 229.46 99.03 232.33 99.10 C 230.56 97.82 228.72 96.72 226.69 95.90 C 228.42 95.69 230.43 95.52 231.97 94.66 C 233.01 93.47 233.59 91.83 234.29 90.42 C 232.10 90.23 229.92 90.38 227.74 90.22 C 226.23 88.67 224.79 87.06 223.31 85.49 C 223.14 84.30 222.99 83.12 222.77 81.94 C 218.39 83.28 218.10 87.03 214.97 90.23 C 209.75 87.18 204.92 83.46 199.89 80.10 C 194.06 76.15 189.59 70.75 183.78 66.82 C 186.86 72.71 193.44 76.77 198.26 81.41 C 196.20 80.37 194.14 79.36 192.26 78.00 C 188.82 75.09 185.61 71.76 182.33 68.66 C 178.52 65.03 174.45 61.81 170.94 57.86 C 168.79 55.49 166.72 53.18 164.16 51.22 C 162.11 52.13 160.10 53.15 158.07 54.11 C 157.51 55.90 156.95 57.70 156.39 59.49 C 153.07 61.03 149.90 62.54 147.13 65.00 C 145.60 66.41 144.14 68.16 142.34 69.22 C 140.55 70.01 138.48 70.27 136.58 70.64 C 141.94 66.33 148.35 62.99 152.61 57.53 C 155.86 53.99 154.03 47.83 153.76 43.51 C 152.58 43.35 151.40 43.19 150.22 43.05 C 148.09 38.34 144.22 36.09 140.33 33.04 C 140.69 31.97 141.07 30.91 141.46 29.85 C 138.44 30.53 135.43 31.26 132.43 31.98 C 131.56 31.52 130.69 31.04 129.80 30.61 C 128.46 31.03 127.16 31.56 125.83 32.01 C 122.60 31.66 119.45 30.85 116.42 29.69 C 113.80 27.53 111.00 24.20 107.67 23.29 C 104.23 22.53 100.47 22.85 96.95 22.69 C 90.06 22.66 84.57 20.16 77.76 22.73 C 77.43 23.43 77.18 24.15 76.98 24.89 C 78.31 27.06 80.21 29.01 81.89 30.92 L 80.34 30.63 C 77.37 29.27 74.48 27.86 71.24 27.22 C 70.53 28.41 69.87 29.63 69.21 30.85 C 74.32 32.60 77.13 34.87 80.26 39.25 C 75.42 39.98 72.17 37.31 67.67 36.36 C 65.77 35.78 64.18 37.35 62.63 38.21 C 63.86 40.17 65.09 42.12 66.30 44.10 C 63.96 45.41 61.58 46.59 59.14 47.68 C 55.60 43.08 57.04 37.85 58.91 32.89 C 61.69 26.79 66.65 21.59 72.68 18.61 C 76.62 16.60 80.43 14.18 84.95 13.96 Z" fill="#f4f4f2" />
<path d="M 96.95 22.69 C 100.47 22.85 104.23 22.53 107.67 23.29 C 111.00 24.20 113.80 27.53 116.42 29.69 C 114.15 30.83 111.66 32.38 109.12 32.76 C 106.51 33.04 103.61 31.72 101.16 30.88 C 97.92 29.68 94.56 29.21 91.14 28.87 C 90.39 28.22 89.61 27.61 88.81 27.03 C 85.43 24.35 82.02 23.22 77.76 22.73 C 84.57 20.16 90.06 22.66 96.95 22.69 Z" fill="#d5d5cc" />
<path d="M 77.76 22.73 C 82.02 23.22 85.43 24.35 88.81 27.03 C 88.03 26.94 87.24 26.86 86.45 26.80 C 89.26 31.47 92.74 35.67 95.43 40.43 C 92.08 39.81 89.73 37.81 87.03 35.93 C 85.35 35.21 83.61 34.68 81.85 34.20 C 79.35 33.57 77.03 32.75 74.71 31.60 C 76.59 31.25 78.46 30.91 80.34 30.63 L 81.89 30.92 C 80.21 29.01 78.31 27.06 76.98 24.89 C 77.18 24.15 77.43 23.43 77.76 22.73 Z" fill="#74706a" />
<path d="M 71.24 27.22 C 74.48 27.86 77.37 29.27 80.34 30.63 C 78.46 30.91 76.59 31.25 74.71 31.60 C 77.03 32.75 79.35 33.57 81.85 34.20 C 84.08 36.35 86.36 38.41 88.74 40.39 C 88.18 38.90 87.61 37.41 87.03 35.93 C 89.73 37.81 92.08 39.81 95.43 40.43 C 96.97 42.30 98.85 43.74 100.83 45.11 C 100.37 43.57 99.93 42.07 99.35 40.57 C 101.45 38.12 102.16 36.80 102.25 33.59 C 108.10 35.50 113.29 32.97 119.25 33.93 C 116.02 36.37 113.59 38.65 112.84 42.83 L 112.55 43.63 C 110.03 44.57 107.69 45.80 105.32 47.07 C 102.65 48.51 99.47 49.14 96.96 50.82 C 96.17 53.61 96.23 56.67 95.27 59.38 C 94.46 60.69 93.39 61.86 92.43 63.05 C 92.03 64.35 92.12 66.00 90.74 66.68 C 88.53 68.03 85.72 68.64 83.24 69.34 C 82.45 68.15 81.66 66.96 80.86 65.78 C 83.75 64.25 88.68 62.02 88.63 58.17 C 87.52 54.64 82.34 52.98 79.26 51.66 C 72.84 48.88 66.52 49.37 59.75 48.50 L 59.14 47.68 C 61.58 46.59 63.96 45.41 66.30 44.10 C 65.09 42.12 63.86 40.17 62.63 38.21 C 64.18 37.35 65.77 35.78 67.67 36.36 C 72.17 37.31 75.42 39.98 80.26 39.25 C 77.13 34.87 74.32 32.60 69.21 30.85 C 69.87 29.63 70.53 28.41 71.24 27.22 Z" fill="#666559" />
<path d="M 86.45 26.80 C 87.24 26.86 88.03 26.94 88.81 27.03 C 89.61 27.61 90.39 28.22 91.14 28.87 C 93.99 32.69 96.77 36.57 99.35 40.57 C 99.93 42.07 100.37 43.57 100.83 45.11 C 98.85 43.74 96.97 42.30 95.43 40.43 C 92.74 35.67 89.26 31.47 86.45 26.80 Z" fill="#161633" />
<path d="M 91.14 28.87 C 94.56 29.21 97.92 29.68 101.16 30.88 C 103.61 31.72 106.51 33.04 109.12 32.76 C 111.66 32.38 114.15 30.83 116.42 29.69 C 119.45 30.85 122.60 31.66 125.83 32.01 C 123.67 32.76 121.48 33.42 119.25 33.93 C 113.29 32.97 108.10 35.50 102.25 33.59 C 102.16 36.80 101.45 38.12 99.35 40.57 C 96.77 36.57 93.99 32.69 91.14 28.87 Z" fill="#7e7c71" />
<path d="M 129.80 30.61 C 130.69 31.04 131.56 31.52 132.43 31.98 L 133.56 32.58 C 132.81 34.82 131.88 37.42 132.10 39.80 C 132.63 41.33 133.59 42.75 134.43 44.13 C 133.83 46.06 133.40 48.45 132.10 50.04 C 128.23 50.97 122.57 51.02 118.67 50.26 C 115.19 49.50 114.02 45.72 112.84 42.83 C 113.59 38.65 116.02 36.37 119.25 33.93 C 121.48 33.42 123.67 32.76 125.83 32.01 C 127.16 31.56 128.46 31.03 129.80 30.61 Z" fill="#202239" />
<path d="M 141.46 29.85 C 141.07 30.91 140.69 31.97 140.33 33.04 C 144.22 36.09 148.09 38.34 150.22 43.05 C 148.21 42.83 146.20 42.59 144.19 42.44 C 145.05 45.26 145.21 47.38 144.89 50.30 C 144.31 54.64 146.55 58.00 142.80 61.31 C 141.14 58.30 140.26 55.14 139.63 51.79 C 143.33 46.81 141.29 42.10 139.59 36.83 C 139.40 36.07 139.22 35.31 139.05 34.55 C 137.22 33.90 135.38 33.29 133.56 32.58 L 132.43 31.98 C 135.43 31.26 138.44 30.53 141.46 29.85 Z" fill="#949590" />
<path d="M 67.58 33.32 C 68.66 32.61 72.07 34.17 71.47 35.61 C 70.38 36.44 67.09 34.75 67.58 33.32 Z" fill="#a5a6a2" />
<path d="M 133.56 32.58 C 135.38 33.29 137.22 33.90 139.05 34.55 C 139.22 35.31 139.40 36.07 139.59 36.83 C 138.46 36.49 137.32 36.18 136.18 35.87 C 137.53 38.44 139.42 41.20 139.97 44.06 C 140.17 46.18 138.95 48.49 138.24 50.45 C 137.06 48.29 135.77 46.20 134.43 44.13 C 133.59 42.75 132.63 41.33 132.10 39.80 C 131.88 37.42 132.81 34.82 133.56 32.58 Z" fill="#656461" />
<path d="M 81.85 34.20 C 83.61 34.68 85.35 35.21 87.03 35.93 C 87.61 37.41 88.18 38.90 88.74 40.39 C 86.36 38.41 84.08 36.35 81.85 34.20 Z" fill="#d8d7d3" />
<path d="M 136.18 35.87 C 137.32 36.18 138.46 36.49 139.59 36.83 C 141.29 42.10 143.33 46.81 139.63 51.79 L 139.23 52.35 C 138.91 51.71 138.58 51.08 138.24 50.45 C 138.95 48.49 140.17 46.18 139.97 44.06 C 139.42 41.20 137.53 38.44 136.18 35.87 Z" fill="#2a2938" />
<path d="M 144.19 42.44 C 146.20 42.59 148.21 42.83 150.22 43.05 C 151.40 43.19 152.58 43.35 153.76 43.51 C 154.03 47.83 155.86 53.99 152.61 57.53 C 148.35 62.99 141.94 66.33 136.58 70.64 C 138.48 70.27 140.55 70.01 142.34 69.22 C 144.14 68.16 145.60 66.41 147.13 65.00 C 151.04 67.14 153.03 69.20 155.24 73.05 C 150.20 77.12 145.81 79.32 139.40 80.50 C 139.57 79.03 139.92 77.61 140.30 76.18 C 139.23 75.17 138.16 74.05 136.90 73.27 C 134.79 72.78 132.41 73.22 130.25 73.18 C 133.37 71.46 135.80 69.10 138.08 66.40 C 139.63 64.67 141.25 63.02 142.80 61.31 C 146.55 58.00 144.31 54.64 144.89 50.30 C 145.21 47.38 145.05 45.26 144.19 42.44 Z" fill="#c5c5bf" />
<path d="M 112.55 43.63 L 112.84 42.83 C 114.02 45.72 115.19 49.50 118.67 50.26 C 122.57 51.02 128.23 50.97 132.10 50.04 C 133.40 48.45 133.83 46.06 134.43 44.13 C 135.77 46.20 137.06 48.29 138.24 50.45 C 138.58 51.08 138.91 51.71 139.23 52.35 C 137.95 54.20 136.68 55.80 136.39 58.12 C 135.97 60.99 137.19 63.74 138.08 66.40 C 135.80 69.10 133.37 71.46 130.25 73.18 C 127.84 72.64 125.48 71.95 123.06 71.45 C 126.66 69.16 130.29 68.32 132.12 64.10 C 129.93 63.97 127.99 64.00 125.99 65.00 C 122.84 66.51 119.72 67.11 116.26 67.37 C 117.34 67.99 118.42 68.62 119.50 69.26 C 117.88 71.31 116.28 73.39 114.73 75.50 C 117.31 74.28 119.90 73.06 122.46 71.78 C 121.70 72.95 120.97 74.12 120.11 75.21 L 118.82 76.32 C 118.34 76.88 117.87 77.45 117.42 78.03 C 117.06 78.50 116.71 78.97 116.36 79.44 C 112.92 78.10 109.35 77.44 105.75 76.66 C 102.72 75.98 100.01 76.58 96.96 76.81 C 92.47 76.79 88.06 76.61 83.60 76.08 C 83.45 73.84 83.34 71.59 83.24 69.34 C 85.72 68.64 88.53 68.03 90.74 66.68 C 92.12 66.00 92.03 64.35 92.43 63.05 C 93.39 61.86 94.46 60.69 95.27 59.38 C 96.23 56.67 96.17 53.61 96.96 50.82 C 99.47 49.14 102.65 48.51 105.32 47.07 C 107.69 45.80 110.03 44.57 112.55 43.63 Z" fill="#44484e" />
<path d="M 164.16 51.22 C 166.72 53.18 168.79 55.49 170.94 57.86 C 166.55 57.09 162.15 56.79 157.74 57.66 C 157.52 65.08 162.15 72.03 165.88 78.16 C 162.85 78.40 159.57 78.25 156.89 79.86 C 153.82 81.62 151.09 83.60 147.55 84.36 C 143.95 85.15 140.87 86.33 137.60 88.03 C 137.00 87.69 136.41 87.34 135.82 87.01 C 137.04 86.14 138.26 85.26 139.48 84.38 C 139.44 83.09 139.37 81.79 139.40 80.50 C 145.81 79.32 150.20 77.12 155.24 73.05 C 153.03 69.20 151.04 67.14 147.13 65.00 C 149.90 62.54 153.07 61.03 156.39 59.49 C 156.95 57.70 157.51 55.90 158.07 54.11 C 160.10 53.15 162.11 52.13 164.16 51.22 Z" fill="#a2a096" />
<path d="M 139.23 52.35 L 139.63 51.79 C 140.26 55.14 141.14 58.30 142.80 61.31 C 141.25 63.02 139.63 64.67 138.08 66.40 C 137.19 63.74 135.97 60.99 136.39 58.12 C 136.68 55.80 137.95 54.20 139.23 52.35 Z" fill="#706f74" />
<path d="M 157.74 57.66 C 162.15 56.79 166.55 57.09 170.94 57.86 C 174.45 61.81 178.52 65.03 182.33 68.66 C 185.61 71.76 188.82 75.09 192.26 78.00 C 191.85 79.00 191.45 80.00 191.04 81.00 C 188.75 80.17 186.44 79.32 184.10 78.62 C 183.80 79.73 183.52 80.85 183.19 81.95 C 182.52 82.16 181.84 82.35 181.16 82.53 C 180.23 80.89 179.48 79.16 178.55 77.52 C 174.32 77.62 170.10 77.89 165.88 78.16 C 162.15 72.03 157.52 65.08 157.74 57.66 Z" fill="#858377" />
<path d="M 104.41 61.16 C 107.15 60.43 109.84 61.35 111.74 63.40 C 112.11 67.13 105.92 71.47 103.37 67.50 C 102.56 65.33 102.76 62.89 104.41 61.16 Z" fill="#bc4041" />
<path d="M 132.12 64.10 C 130.29 68.32 126.66 69.16 123.06 71.45 L 122.46 71.78 C 119.90 73.06 117.31 74.28 114.73 75.50 C 116.28 73.39 117.88 71.31 119.50 69.26 C 118.42 68.62 117.34 67.99 116.26 67.37 C 119.72 67.11 122.84 66.51 125.99 65.00 C 127.99 64.00 129.93 63.97 132.12 64.10 Z" fill="#9e484a" />
<path d="M 69.47 65.94 C 73.28 65.83 77.06 65.96 80.86 65.78 C 81.66 66.96 82.45 68.15 83.24 69.34 C 83.34 71.59 83.45 73.84 83.60 76.08 C 79.87 75.95 76.19 76.25 72.46 75.82 L 72.00 75.07 C 70.93 72.09 70.04 69.07 69.47 65.94 Z" fill="#242424" />
<path d="M 183.78 66.82 C 189.59 70.75 194.06 76.15 199.89 80.10 C 204.92 83.46 209.75 87.18 214.97 90.23 C 218.74 92.40 222.63 94.34 226.69 95.90 C 228.72 96.72 230.56 97.82 232.33 99.10 C 229.46 99.03 226.60 98.74 223.79 98.16 C 222.59 97.40 221.41 96.63 220.20 95.91 C 212.57 91.46 205.46 86.49 198.26 81.41 C 193.44 76.77 186.86 72.71 183.78 66.82 Z" fill="#282834" />
<path d="M 61.95 71.15 C 65.43 71.78 68.49 74.19 72.00 75.07 L 72.46 75.82 C 70.30 76.32 68.18 77.12 66.10 77.90 C 65.82 78.60 65.54 79.29 65.26 79.99 C 63.30 79.88 61.96 80.21 60.24 81.14 C 56.08 83.60 51.91 84.26 50.06 89.23 C 48.42 88.83 46.82 88.34 45.22 87.79 C 44.79 87.65 44.36 87.51 43.92 87.38 C 41.21 87.33 38.55 87.60 35.86 87.89 C 35.86 85.08 35.13 81.27 36.85 78.86 C 39.55 77.20 43.11 77.63 46.14 77.66 C 44.36 77.81 42.58 78.05 40.81 78.28 C 41.09 79.28 41.40 80.26 41.75 81.24 C 44.68 82.99 48.67 83.24 52.02 83.36 C 50.67 81.41 49.27 79.50 47.87 77.59 C 53.02 76.52 56.88 71.61 61.95 71.15 Z" fill="#b6a475" />
<path d="M 122.46 71.78 L 123.06 71.45 C 125.48 71.95 127.84 72.64 130.25 73.18 C 132.41 73.22 134.79 72.78 136.90 73.27 C 138.16 74.05 139.23 75.17 140.30 76.18 C 139.92 77.61 139.57 79.03 139.40 80.50 C 139.37 81.79 139.44 83.09 139.48 84.38 C 138.26 85.26 137.04 86.14 135.82 87.01 C 129.79 83.55 123.14 82.09 117.42 78.03 C 117.87 77.45 118.34 76.88 118.82 76.32 C 119.32 77.01 119.82 77.70 120.33 78.39 C 121.35 77.29 122.39 76.21 123.38 75.08 C 122.29 75.12 121.20 75.16 120.11 75.21 C 120.97 74.12 121.70 72.95 122.46 71.78 Z" fill="#676663" />
<path d="M 72.46 75.82 C 76.19 76.25 79.87 75.95 83.60 76.08 C 88.06 76.61 92.47 76.79 96.96 76.81 C 100.74 78.47 104.58 80.00 108.38 81.62 C 112.35 83.32 115.05 86.11 118.31 88.81 C 115.54 91.02 111.87 95.22 107.94 94.19 C 101.78 93.13 96.05 91.00 89.70 90.99 C 93.40 95.40 98.98 96.20 104.30 98.92 C 102.94 100.56 101.61 102.80 99.70 103.82 C 96.68 104.51 93.38 104.28 90.29 104.33 C 91.34 108.95 91.88 113.27 94.80 117.18 C 96.79 119.96 98.63 121.89 98.12 125.58 C 93.22 123.68 90.64 119.51 86.49 116.74 C 84.52 116.21 81.55 118.24 79.60 118.83 L 78.72 117.98 C 79.61 117.56 80.50 117.13 81.39 116.71 C 80.14 115.41 78.88 114.08 77.52 112.91 C 69.95 107.09 60.42 104.19 51.60 100.52 C 51.96 99.38 52.35 98.25 52.75 97.12 C 62.99 100.15 72.79 104.96 82.72 108.94 C 82.44 107.93 82.17 106.92 81.90 105.91 C 81.89 104.11 81.96 102.28 82.02 100.48 C 86.33 101.34 90.34 102.39 94.74 101.24 C 90.43 97.00 85.26 95.89 79.84 93.72 C 73.61 90.62 66.58 89.70 60.71 86.04 C 65.06 84.43 68.67 85.81 72.80 87.22 C 75.68 88.42 78.45 89.69 81.54 90.26 C 86.56 89.82 91.57 89.74 96.60 89.52 C 92.71 86.16 89.33 82.91 84.09 81.89 C 78.87 80.75 73.13 81.47 67.79 81.07 C 66.95 80.71 66.11 80.35 65.26 79.99 C 65.54 79.29 65.82 78.60 66.10 77.90 C 68.18 77.12 70.30 76.32 72.46 75.82 Z" fill="#422a3d" />
<path d="M 105.75 76.66 C 109.35 77.44 112.92 78.10 116.36 79.44 C 116.71 78.97 117.06 78.50 117.42 78.03 C 123.14 82.09 129.79 83.55 135.82 87.01 C 136.41 87.34 137.00 87.69 137.60 88.03 C 142.10 90.65 147.02 93.57 152.09 94.86 C 154.98 95.59 157.92 96.19 160.88 96.65 C 163.03 96.96 165.19 96.93 167.37 96.88 C 167.12 97.98 166.86 99.08 166.61 100.19 C 165.29 101.29 163.82 102.41 162.78 103.80 C 161.44 105.63 161.31 108.20 161.10 110.38 C 159.47 110.26 157.87 110.13 156.32 109.59 C 147.74 106.71 139.71 103.26 133.05 96.97 C 128.89 93.65 123.77 89.36 118.31 88.81 C 115.05 86.11 112.35 83.32 108.38 81.62 C 104.58 80.00 100.74 78.47 96.96 76.81 C 100.01 76.58 102.72 75.98 105.75 76.66 Z" fill="#20233e" />
<path d="M 120.11 75.21 C 121.20 75.16 122.29 75.12 123.38 75.08 C 122.39 76.21 121.35 77.29 120.33 78.39 C 119.82 77.70 119.32 77.01 118.82 76.32 L 120.11 75.21 Z" fill="#a0a3a2" />
<path d="M 178.55 77.52 C 179.48 79.16 180.23 80.89 181.16 82.53 C 181.84 82.35 182.52 82.16 183.19 81.95 C 184.48 83.21 185.79 84.66 187.37 85.53 C 189.88 86.54 192.77 86.70 195.43 87.11 C 193.97 85.07 192.50 83.04 191.04 81.00 C 191.45 80.00 191.85 79.00 192.26 78.00 C 194.14 79.36 196.20 80.37 198.26 81.41 C 205.46 86.49 212.57 91.46 220.20 95.91 L 218.44 96.73 C 215.06 95.60 211.98 93.62 208.68 92.15 C 207.42 95.96 209.49 98.90 206.23 102.13 C 201.27 100.33 196.99 97.70 192.55 94.91 C 192.49 93.41 192.43 91.91 192.37 90.41 C 191.00 90.45 189.62 90.49 188.25 90.58 C 188.37 92.11 188.56 93.62 188.78 95.13 C 188.91 96.03 189.06 96.93 189.23 97.83 C 182.27 94.99 176.64 90.31 171.34 85.10 C 169.42 82.84 167.69 80.50 165.88 78.16 C 170.10 77.89 174.32 77.62 178.55 77.52 Z" fill="#99988c" />
<path d="M 46.14 77.66 L 47.87 77.59 C 49.27 79.50 50.67 81.41 52.02 83.36 C 48.67 83.24 44.68 82.99 41.75 81.24 C 41.40 80.26 41.09 79.28 40.81 78.28 C 42.58 78.05 44.36 77.81 46.14 77.66 Z" fill="#41273d" />
<path d="M 165.88 78.16 C 167.69 80.50 169.42 82.84 171.34 85.10 C 170.69 86.00 170.04 86.92 169.39 87.83 C 166.78 90.99 163.89 93.88 160.88 96.65 C 157.92 96.19 154.98 95.59 152.09 94.86 C 147.02 93.57 142.10 90.65 137.60 88.03 C 140.87 86.33 143.95 85.15 147.55 84.36 C 151.09 83.60 153.82 81.62 156.89 79.86 C 159.57 78.25 162.85 78.40 165.88 78.16 Z" fill="#f2f2f1" />
<path d="M 65.26 79.99 C 66.11 80.35 66.95 80.71 67.79 81.07 C 71.69 83.06 75.49 84.55 79.70 85.74 C 79.30 86.29 78.89 86.84 78.49 87.40 C 76.59 87.37 74.70 87.33 72.80 87.22 C 68.67 85.81 65.06 84.43 60.71 86.04 C 66.58 89.70 73.61 90.62 79.84 93.72 C 79.24 98.08 80.66 101.83 81.90 105.91 C 82.17 106.92 82.44 107.93 82.72 108.94 C 72.79 104.96 62.99 100.15 52.75 97.12 C 52.48 96.70 52.22 96.27 51.95 95.84 C 52.09 92.99 52.06 91.46 50.06 89.23 C 51.91 84.26 56.08 83.60 60.24 81.14 C 61.96 80.21 63.30 79.88 65.26 79.99 Z" fill="#cfaa44" />
<path d="M 184.10 78.62 C 186.44 79.32 188.75 80.17 191.04 81.00 C 192.50 83.04 193.97 85.07 195.43 87.11 C 192.77 86.70 189.88 86.54 187.37 85.53 C 185.79 84.66 184.48 83.21 183.19 81.95 C 183.52 80.85 183.80 79.73 184.10 78.62 Z" fill="#bdbbb0" />
<path d="M 67.79 81.07 C 73.13 81.47 78.87 80.75 84.09 81.89 C 85.38 82.42 86.65 82.99 87.93 83.55 C 85.13 85.50 83.36 87.38 81.54 90.26 C 78.45 89.69 75.68 88.42 72.80 87.22 C 74.70 87.33 76.59 87.37 78.49 87.40 C 78.89 86.84 79.30 86.29 79.70 85.74 C 75.49 84.55 71.69 83.06 67.79 81.07 Z" fill="#bba565" />
<path d="M 84.09 81.89 C 89.33 82.91 92.71 86.16 96.60 89.52 C 91.57 89.74 86.56 89.82 81.54 90.26 C 83.36 87.38 85.13 85.50 87.93 83.55 C 86.65 82.99 85.38 82.42 84.09 81.89 Z" fill="#7d443c" />
<path d="M 222.77 81.94 C 222.99 83.12 223.14 84.30 223.31 85.49 C 224.79 87.06 226.23 88.67 227.74 90.22 C 229.92 90.38 232.10 90.23 234.29 90.42 C 233.59 91.83 233.01 93.47 231.97 94.66 C 230.43 95.52 228.42 95.69 226.69 95.90 C 222.63 94.34 218.74 92.40 214.97 90.23 C 218.10 87.03 218.39 83.28 222.77 81.94 Z" fill="#deded8" />
<path d="M 171.34 85.10 C 176.64 90.31 182.27 94.99 189.23 97.83 C 190.04 101.32 190.23 104.33 189.84 107.90 C 189.41 109.62 188.92 111.32 188.45 113.03 C 187.81 108.98 187.90 105.31 185.52 101.80 C 183.17 106.40 181.43 111.34 180.07 116.32 C 179.42 114.70 178.69 113.13 177.92 111.57 C 178.57 110.08 179.15 108.56 179.54 106.98 C 178.42 104.34 176.91 101.72 176.06 99.01 C 175.30 96.48 175.27 93.58 175.14 90.94 C 173.13 91.39 171.13 91.87 169.12 92.29 C 169.21 90.80 169.28 89.31 169.39 87.83 C 170.04 86.92 170.69 86.00 171.34 85.10 Z" fill="#c1c1be" />
<path d="M 43.92 87.38 C 44.68 88.90 46.75 90.59 45.44 92.35 C 44.34 94.42 40.43 93.88 38.40 94.32 C 39.32 95.21 40.24 96.11 41.16 97.01 C 39.90 97.40 38.65 97.77 37.39 98.14 C 39.21 99.52 41.06 100.88 42.88 102.27 C 39.74 105.94 36.57 108.55 31.44 107.28 C 31.73 103.57 31.86 99.56 33.28 96.09 C 34.36 93.40 35.48 90.80 35.86 87.89 C 38.55 87.60 41.21 87.33 43.92 87.38 Z" fill="#412e39" />
<path d="M 45.22 87.79 C 46.82 88.34 48.42 88.83 50.06 89.23 C 52.06 91.46 52.09 92.99 51.95 95.84 C 52.22 96.27 52.48 96.70 52.75 97.12 C 52.35 98.25 51.96 99.38 51.60 100.52 C 50.83 102.91 50.91 105.10 51.34 107.54 C 51.92 110.85 51.84 114.21 52.37 117.51 C 52.64 118.92 53.35 119.64 54.76 119.91 C 58.92 120.98 62.87 120.30 67.00 119.55 C 70.64 125.02 69.58 130.54 67.20 136.27 C 65.44 140.00 65.29 143.19 65.77 147.24 C 65.29 143.02 62.18 141.50 59.87 138.31 C 58.25 136.51 57.52 134.47 54.84 134.15 C 50.43 133.50 45.76 133.01 41.32 133.71 C 40.97 133.25 40.63 132.79 40.30 132.33 C 37.93 127.52 35.86 122.90 31.99 119.05 L 31.79 117.63 C 32.50 116.05 33.36 114.48 33.87 112.82 C 33.77 111.36 33.21 109.89 32.79 108.49 C 32.03 110.62 31.45 112.74 31.46 115.02 C 31.29 112.45 31.28 109.86 31.44 107.28 C 36.57 108.55 39.74 105.94 42.88 102.27 C 41.06 100.88 39.21 99.52 37.39 98.14 C 38.65 97.77 39.90 97.40 41.16 97.01 C 40.24 96.11 39.32 95.21 38.40 94.32 C 40.43 93.88 44.34 94.42 45.44 92.35 C 46.75 90.59 44.68 88.90 43.92 87.38 C 44.36 87.51 44.79 87.65 45.22 87.79 Z" fill="#8a7843" />
<path d="M 133.05 96.97 C 139.71 103.26 147.74 106.71 156.32 109.59 C 157.87 110.13 159.47 110.26 161.10 110.38 C 161.23 111.07 161.36 111.77 161.50 112.47 C 159.43 112.34 157.37 112.38 155.31 112.55 C 156.38 113.30 157.47 114.03 158.57 114.76 C 161.34 116.61 164.11 118.46 166.85 120.35 C 165.40 122.87 163.79 125.25 161.69 127.28 C 160.31 128.17 158.95 129.06 157.60 129.98 C 159.01 130.23 160.42 130.48 161.84 130.74 C 161.97 132.40 162.08 134.06 162.02 135.73 C 159.12 139.09 153.87 139.30 149.77 139.35 C 146.09 138.93 142.04 138.40 139.12 135.88 C 136.60 133.72 134.41 131.20 131.88 129.04 C 133.58 133.91 136.60 137.75 140.41 141.16 C 139.14 141.57 137.59 142.49 136.25 142.29 C 133.22 141.37 130.52 138.99 127.43 138.36 C 125.97 138.42 124.48 138.95 123.07 139.35 C 123.50 140.23 123.93 141.11 124.36 141.99 C 123.69 142.37 123.02 142.75 122.36 143.14 C 118.62 140.26 114.64 137.75 110.68 135.19 C 106.11 132.30 102.87 128.21 98.12 125.58 C 98.63 121.89 96.79 119.96 94.80 117.18 C 91.88 113.27 91.34 108.95 90.29 104.33 C 93.38 104.28 96.68 104.51 99.70 103.82 C 101.61 102.80 102.94 100.56 104.30 98.92 C 98.98 96.20 93.40 95.40 89.70 90.99 C 96.05 91.00 101.78 93.13 107.94 94.19 C 111.87 95.22 115.54 91.02 118.31 88.81 C 123.77 89.36 128.89 93.65 133.05 96.97 Z" fill="#222322" />
<path d="M 169.39 87.83 C 169.28 89.31 169.21 90.80 169.12 92.29 C 169.05 93.34 168.99 94.39 168.92 95.44 C 169.88 94.97 170.82 94.46 171.73 93.90 C 171.31 96.34 170.28 98.85 171.12 101.27 C 171.85 103.63 172.34 105.76 172.13 108.25 C 169.83 107.60 167.54 107.11 165.22 106.58 C 165.69 104.45 166.17 102.33 166.61 100.19 C 166.86 99.08 167.12 97.98 167.37 96.88 C 165.19 96.93 163.03 96.96 160.88 96.65 C 163.89 93.88 166.78 90.99 169.39 87.83 Z" fill="#52555d" />
<path d="M 188.25 90.58 C 189.62 90.49 191.00 90.45 192.37 90.41 C 192.43 91.91 192.49 93.41 192.55 94.91 C 196.99 97.70 201.27 100.33 206.23 102.13 C 209.54 102.15 212.86 102.14 216.16 101.99 C 217.45 102.91 218.74 103.82 220.03 104.74 C 219.09 106.24 218.17 107.74 217.10 109.15 C 216.33 109.77 215.55 110.39 214.76 110.99 C 209.42 108.60 204.95 105.48 198.93 104.93 L 197.97 104.75 C 195.68 100.34 192.71 96.35 188.83 93.21 L 188.78 95.13 C 188.56 93.62 188.37 92.11 188.25 90.58 Z" fill="#656356" />
<path d="M 175.14 90.94 C 175.27 93.58 175.30 96.48 176.06 99.01 C 176.91 101.72 178.42 104.34 179.54 106.98 C 178.15 108.08 176.78 109.22 175.49 110.46 C 174.38 109.71 173.26 108.96 172.13 108.25 C 172.34 105.76 171.85 103.63 171.12 101.27 C 170.28 98.85 171.31 96.34 171.73 93.90 C 170.82 94.46 169.88 94.97 168.92 95.44 C 168.99 94.39 169.05 93.34 169.12 92.29 C 171.13 91.87 173.13 91.39 175.14 90.94 Z" fill="#7d8182" />
<path d="M 208.68 92.15 C 211.98 93.62 215.06 95.60 218.44 96.73 C 218.56 97.60 218.70 98.48 218.90 99.34 C 219.95 99.91 221.02 100.45 222.10 100.96 C 220.12 101.37 218.18 101.76 216.16 101.99 C 212.86 102.14 209.54 102.15 206.23 102.13 C 209.49 98.90 207.42 95.96 208.68 92.15 Z" fill="#7c796f" />
<path d="M 188.83 93.21 C 192.71 96.35 195.68 100.34 197.97 104.75 C 198.45 111.96 200.74 119.92 198.88 126.82 C 197.48 133.46 193.56 138.38 190.98 144.76 C 189.33 147.73 187.39 150.50 185.03 152.95 C 181.04 156.71 176.63 159.90 172.04 162.90 C 165.39 167.88 157.79 169.56 149.84 171.25 C 143.23 169.89 137.17 169.78 131.40 166.61 C 125.18 163.51 122.23 158.44 116.87 154.10 C 113.04 150.98 110.20 146.90 106.38 143.81 C 104.65 142.49 102.84 141.29 101.01 140.10 C 100.51 139.03 99.84 138.15 99.01 137.44 C 95.95 134.60 93.11 131.56 89.96 128.80 C 86.35 125.61 82.91 122.33 79.60 118.83 C 81.55 118.24 84.52 116.21 86.49 116.74 C 90.64 119.51 93.22 123.68 98.12 125.58 C 102.87 128.21 106.11 132.30 110.68 135.19 C 114.64 137.75 118.62 140.26 122.36 143.14 C 123.44 143.96 124.52 144.78 125.66 145.52 C 130.23 147.54 135.21 148.66 140.00 150.04 C 141.96 150.77 143.57 149.15 145.34 148.47 L 146.38 148.63 C 146.07 149.55 145.75 150.47 145.44 151.39 C 150.40 150.81 155.12 149.83 159.68 147.72 C 157.68 147.52 155.69 147.32 153.69 147.14 C 156.84 146.10 159.90 145.06 163.22 144.76 C 165.65 144.41 168.02 144.66 169.99 143.02 C 172.90 140.77 175.75 138.17 178.28 135.51 C 179.33 134.22 180.32 132.85 181.31 131.51 C 181.50 133.10 181.68 134.68 181.90 136.26 C 182.80 133.54 183.11 131.07 183.04 128.20 C 183.51 127.41 183.98 126.61 184.46 125.82 C 186.10 125.69 187.73 125.55 189.37 125.40 C 190.20 122.58 191.37 119.67 191.64 116.73 C 191.57 113.77 190.36 110.82 189.84 107.90 C 190.23 104.33 190.04 101.32 189.23 97.83 C 189.06 96.93 188.91 96.03 188.78 95.13 L 188.83 93.21 Z" fill="#20233f" />
<path d="M 79.84 93.72 C 85.26 95.89 90.43 97.00 94.74 101.24 C 90.34 102.39 86.33 101.34 82.02 100.48 C 81.96 102.28 81.89 104.11 81.90 105.91 C 80.66 101.83 79.24 98.08 79.84 93.72 Z" fill="#7c4142" />
<path d="M 220.20 95.91 C 221.41 96.63 222.59 97.40 223.79 98.16 C 226.80 100.23 230.11 101.44 233.42 102.93 C 230.83 103.70 228.21 104.23 225.54 104.60 C 224.33 102.82 223.21 101.08 221.81 99.44 C 220.84 99.39 219.87 99.36 218.90 99.34 C 218.70 98.48 218.56 97.60 218.44 96.73 L 220.20 95.91 Z" fill="#c6c3b8" />
<path d="M 221.81 99.44 C 223.21 101.08 224.33 102.82 225.54 104.60 C 228.21 104.23 230.83 103.70 233.42 102.93 C 234.28 102.68 235.14 102.43 236.00 102.18 C 235.90 103.07 235.79 103.95 235.67 104.83 C 228.06 105.49 223.42 110.23 218.06 115.08 C 218.50 113.79 218.89 112.49 219.26 111.18 C 218.57 110.47 217.85 109.80 217.10 109.15 C 218.17 107.74 219.09 106.24 220.03 104.74 C 218.74 103.82 217.45 102.91 216.16 101.99 C 218.18 101.76 220.12 101.37 222.10 100.96 C 221.02 100.45 219.95 99.91 218.90 99.34 C 219.87 99.36 220.84 99.39 221.81 99.44 Z" fill="#9a988e" />
<path d="M 166.61 100.19 C 166.17 102.33 165.69 104.45 165.22 106.58 C 167.54 107.11 169.83 107.60 172.13 108.25 C 173.26 108.96 174.38 109.71 175.49 110.46 C 173.45 113.16 171.42 115.84 169.03 118.25 C 165.63 116.48 162.54 114.68 158.57 114.76 C 157.47 114.03 156.38 113.30 155.31 112.55 C 157.37 112.38 159.43 112.34 161.50 112.47 C 161.36 111.77 161.23 111.07 161.10 110.38 C 161.31 108.20 161.44 105.63 162.78 103.80 C 163.82 102.41 165.29 101.29 166.61 100.19 Z" fill="#37383a" />
<path d="M 51.60 100.52 C 60.42 104.19 69.95 107.09 77.52 112.91 C 77.31 117.17 76.38 121.32 76.00 125.55 C 75.89 132.65 76.96 140.91 74.68 147.71 C 72.11 151.03 68.55 149.27 65.77 147.24 C 65.29 143.19 65.44 140.00 67.20 136.27 C 69.58 130.54 70.64 125.02 67.00 119.55 C 62.87 120.30 58.92 120.98 54.76 119.91 C 53.35 119.64 52.64 118.92 52.37 117.51 C 51.84 114.21 51.92 110.85 51.34 107.54 C 50.91 105.10 50.83 102.91 51.60 100.52 Z" fill="#cda842" />
<path d="M 185.52 101.80 C 187.90 105.31 187.81 108.98 188.45 113.03 C 188.92 111.32 189.41 109.62 189.84 107.90 C 190.36 110.82 191.57 113.77 191.64 116.73 C 191.37 119.67 190.20 122.58 189.37 125.40 C 187.73 125.55 186.10 125.69 184.46 125.82 C 182.88 124.61 181.29 123.43 179.57 122.43 C 179.75 120.40 179.91 118.36 180.07 116.32 C 181.43 111.34 183.17 106.40 185.52 101.80 Z" fill="#929188" />
<path d="M 138.88 105.15 C 144.16 107.74 147.07 110.53 149.23 116.08 C 143.78 114.26 141.23 110.06 138.88 105.15 Z" fill="#7e4042" />
<path d="M 197.97 104.75 L 198.93 104.93 C 202.40 106.15 204.02 108.18 205.82 111.24 C 207.58 114.40 210.44 115.80 213.46 117.51 C 212.75 120.09 211.99 122.65 211.31 125.24 C 208.57 136.55 211.92 147.21 217.91 156.84 C 215.35 159.18 213.37 161.95 211.37 164.76 C 210.14 165.67 207.28 166.26 207.52 168.14 C 207.47 170.48 208.20 172.89 208.72 175.15 C 209.35 173.47 209.99 171.80 210.61 170.12 C 211.60 172.47 212.55 174.83 213.53 177.19 C 217.15 177.17 219.86 178.05 222.98 179.93 C 223.73 180.97 224.43 182.04 225.14 183.11 C 224.67 187.73 224.40 192.54 223.19 197.03 C 222.31 200.27 220.46 202.67 218.72 205.46 C 218.95 200.96 219.68 196.49 219.77 191.98 C 219.96 188.42 217.54 185.81 215.62 183.07 C 215.61 186.58 215.82 190.39 215.04 193.82 C 214.45 196.45 213.19 198.61 212.04 201.02 C 211.57 195.71 209.93 191.36 207.10 186.90 C 207.46 186.12 207.83 185.34 208.19 184.56 C 204.39 182.31 202.08 180.14 200.87 175.77 C 199.76 170.71 198.20 166.30 196.03 161.60 C 195.35 159.62 194.78 157.60 194.14 155.61 C 196.38 152.01 194.46 149.26 192.16 146.34 C 191.77 145.81 191.38 145.28 190.98 144.76 C 193.56 138.38 197.48 133.46 198.88 126.82 C 200.74 119.92 198.45 111.96 197.97 104.75 Z" fill="#a5a397" />
<path d="M 198.93 104.93 C 204.95 105.48 209.42 108.60 214.76 110.99 C 215.55 110.39 216.33 109.77 217.10 109.15 C 217.85 109.80 218.57 110.47 219.26 111.18 C 218.89 112.49 218.50 113.79 218.06 115.08 C 215.83 118.47 213.33 121.73 211.31 125.24 C 211.99 122.65 212.75 120.09 213.46 117.51 C 210.44 115.80 207.58 114.40 205.82 111.24 C 204.02 108.18 202.40 106.15 198.93 104.93 Z" fill="#7e7b70" />
<path d="M 235.67 104.83 C 234.06 107.80 230.48 109.72 227.99 111.99 C 224.32 114.94 221.99 118.80 219.91 122.95 C 218.05 126.69 215.96 130.93 215.52 135.12 C 215.01 140.72 215.35 146.27 217.56 151.49 C 220.85 159.32 224.74 166.75 226.89 175.03 C 228.07 178.77 228.93 182.45 228.34 186.39 C 227.75 190.47 227.63 194.79 225.37 198.33 C 223.64 201.16 222.04 203.99 220.75 207.05 C 218.69 211.91 214.36 214.95 210.44 218.22 C 211.88 214.73 214.36 212.39 217.00 209.82 C 217.66 208.42 218.19 206.92 218.72 205.46 C 220.46 202.67 222.31 200.27 223.19 197.03 C 224.40 192.54 224.67 187.73 225.14 183.11 C 225.45 179.88 225.53 176.78 224.35 173.70 C 222.19 167.71 220.92 162.12 217.91 156.84 C 211.92 147.21 208.57 136.55 211.31 125.24 C 213.33 121.73 215.83 118.47 218.06 115.08 C 223.42 110.23 228.06 105.49 235.67 104.83 Z" fill="#22233d" />
<path d="M 179.54 106.98 C 179.15 108.56 178.57 110.08 177.92 111.57 C 176.42 113.66 173.85 116.21 173.73 118.89 C 174.30 121.23 177.68 121.53 179.57 122.43 C 181.29 123.43 182.88 124.61 184.46 125.82 C 183.98 126.61 183.51 127.41 183.04 128.20 C 181.93 127.72 180.83 127.23 179.72 126.74 C 176.99 125.58 173.97 124.04 170.99 123.78 C 167.76 124.26 164.61 125.86 161.69 127.28 C 163.79 125.25 165.40 122.87 166.85 120.35 C 164.11 118.46 161.34 116.61 158.57 114.76 C 162.54 114.68 165.63 116.48 169.03 118.25 C 171.42 115.84 173.45 113.16 175.49 110.46 C 176.78 109.22 178.15 108.08 179.54 106.98 Z" fill="#b04444" />
<path d="M 138.11 107.94 C 139.00 111.00 139.73 114.10 140.57 117.16 C 139.90 117.52 139.24 117.88 138.57 118.24 C 139.72 119.60 140.86 120.96 142.00 122.33 C 136.12 121.96 131.31 120.83 126.68 117.03 C 129.48 112.60 133.54 110.21 138.11 107.94 Z" fill="#3b3736" />
<path d="M 32.79 108.49 C 33.21 109.89 33.77 111.36 33.87 112.82 C 33.36 114.48 32.50 116.05 31.79 117.63 C 31.66 116.76 31.55 115.89 31.46 115.02 C 31.45 112.74 32.03 110.62 32.79 108.49 Z" fill="#3f3e28" />
<path d="M 177.92 111.57 C 178.69 113.13 179.42 114.70 180.07 116.32 C 179.91 118.36 179.75 120.40 179.57 122.43 C 177.68 121.53 174.30 121.23 173.73 118.89 C 173.85 116.21 176.42 113.66 177.92 111.57 Z" fill="#404745" />
<path d="M 77.52 112.91 C 78.88 114.08 80.14 115.41 81.39 116.71 C 80.50 117.13 79.61 117.56 78.72 117.98 L 79.60 118.83 C 82.91 122.33 86.35 125.61 89.96 128.80 C 88.50 130.65 87.15 132.37 86.73 134.77 C 85.84 139.54 87.29 144.99 87.74 149.79 C 84.81 151.73 83.31 154.14 81.89 157.27 C 81.32 155.57 80.73 153.84 80.25 152.12 C 80.63 145.03 81.39 137.23 80.61 130.08 C 80.45 128.41 79.52 127.23 78.54 125.95 C 77.69 125.81 76.85 125.67 76.00 125.55 C 76.38 121.32 77.31 117.17 77.52 112.91 Z" fill="#c5a74f" />
<path d="M 117.97 114.34 C 118.20 118.75 118.59 122.70 121.04 126.50 C 119.42 125.73 117.78 125.01 116.12 124.32 C 118.12 126.64 120.18 128.90 122.19 131.21 C 119.25 130.94 116.11 130.78 113.34 129.67 C 110.43 128.53 107.92 126.56 105.44 124.69 C 109.15 120.62 113.93 118.07 117.97 114.34 Z" fill="#3b3935" />
<path d="M 31.99 119.05 C 35.86 122.90 37.93 127.52 40.30 132.33 C 38.98 132.00 37.15 131.97 36.25 130.85 C 33.15 127.46 32.49 123.44 31.99 119.05 Z" fill="#b4a780" />
<path d="M 151.98 122.11 C 152.55 125.31 153.04 128.53 153.42 131.76 C 152.40 132.44 151.38 133.13 150.35 133.80 C 152.11 135.03 153.75 136.35 155.33 137.80 C 149.63 138.23 145.78 136.99 141.01 133.91 C 144.05 129.37 148.01 125.80 151.98 122.11 Z" fill="#3c3835" />
<path d="M 170.99 123.78 C 173.97 124.04 176.99 125.58 179.72 126.74 C 178.88 129.88 177.90 132.93 176.75 135.96 C 177.26 135.81 177.77 135.66 178.28 135.51 C 175.75 138.17 172.90 140.77 169.99 143.02 C 168.02 144.66 165.65 144.41 163.22 144.76 C 159.90 145.06 156.84 146.10 153.69 147.14 C 155.69 147.32 157.68 147.52 159.68 147.72 C 155.12 149.83 150.40 150.81 145.44 151.39 C 145.75 150.47 146.07 149.55 146.38 148.63 L 145.34 148.47 C 138.62 146.82 132.70 144.63 125.66 145.52 C 124.52 144.78 123.44 143.96 122.36 143.14 C 123.02 142.75 123.69 142.37 124.36 141.99 C 123.93 141.11 123.50 140.23 123.07 139.35 C 124.48 138.95 125.97 138.42 127.43 138.36 C 130.52 138.99 133.22 141.37 136.25 142.29 C 137.59 142.49 139.14 141.57 140.41 141.16 C 144.57 143.72 148.97 145.70 153.99 145.26 C 156.27 145.06 158.36 143.40 160.23 142.17 C 156.76 140.54 153.59 139.68 149.77 139.35 C 153.87 139.30 159.12 139.09 162.02 135.73 C 162.08 134.06 161.97 132.40 161.84 130.74 C 160.42 130.48 159.01 130.23 157.60 129.98 C 158.95 129.06 160.31 128.17 161.69 127.28 C 164.61 125.86 167.76 124.26 170.99 123.78 Z" fill="#3e4042" />
<path d="M 78.54 125.95 C 79.52 127.23 80.45 128.41 80.61 130.08 C 81.39 137.23 80.63 145.03 80.25 152.12 C 78.11 152.40 75.97 152.72 73.82 152.92 C 72.29 152.97 70.89 152.80 69.44 152.31 C 68.15 151.64 66.89 150.94 65.62 150.24 C 65.64 149.24 65.69 148.24 65.77 147.24 C 68.55 149.27 72.11 151.03 74.68 147.71 C 76.96 140.91 75.89 132.65 76.00 125.55 C 76.85 125.67 77.69 125.81 78.54 125.95 Z" fill="#6e6650" />
<path d="M 179.72 126.74 C 180.83 127.23 181.93 127.72 183.04 128.20 C 183.11 131.07 182.80 133.54 181.90 136.26 C 181.68 134.68 181.50 133.10 181.31 131.51 C 180.32 132.85 179.33 134.22 178.28 135.51 C 177.77 135.66 177.26 135.81 176.75 135.96 C 177.90 132.93 178.88 129.88 179.72 126.74 Z" fill="#cbd9cb" />
<path d="M 89.96 128.80 C 93.11 131.56 95.95 134.60 99.01 137.44 C 97.28 139.24 99.20 140.25 101.01 140.10 C 102.84 141.29 104.65 142.49 106.38 143.81 C 105.29 145.99 104.29 148.23 103.23 150.43 C 102.17 150.24 101.12 150.02 100.08 149.75 C 100.25 147.67 100.35 145.58 100.40 143.50 C 96.57 146.43 92.30 148.31 87.74 149.79 C 87.29 144.99 85.84 139.54 86.73 134.77 C 87.15 132.37 88.50 130.65 89.96 128.80 Z" fill="#6b6a64" />
<path d="M 131.88 129.04 C 134.41 131.20 136.60 133.72 139.12 135.88 C 142.04 138.40 146.09 138.93 149.77 139.35 C 153.59 139.68 156.76 140.54 160.23 142.17 C 158.36 143.40 156.27 145.06 153.99 145.26 C 148.97 145.70 144.57 143.72 140.41 141.16 C 136.60 137.75 133.58 133.91 131.88 129.04 Z" fill="#a93f3f" />
<path d="M 54.84 134.15 C 57.52 134.47 58.25 136.51 59.87 138.31 C 62.18 141.50 65.29 143.02 65.77 147.24 C 65.69 148.24 65.64 149.24 65.62 150.24 C 66.89 150.94 68.15 151.64 69.44 152.31 C 67.50 152.96 65.79 153.95 63.70 153.42 C 58.77 152.38 54.16 148.82 50.47 145.51 C 46.61 142.06 44.53 137.88 41.32 133.71 C 45.76 133.01 50.43 133.50 54.84 134.15 Z" fill="#575755" />
<path d="M 99.01 137.44 C 99.84 138.15 100.51 139.03 101.01 140.10 C 99.20 140.25 97.28 139.24 99.01 137.44 Z" fill="#e9eaeb" />
<path d="M 100.40 143.50 C 100.35 145.58 100.25 147.67 100.08 149.75 C 99.51 153.45 98.28 156.78 95.83 159.65 C 93.66 161.51 91.50 163.34 89.46 165.34 C 87.21 160.28 87.42 155.18 87.74 149.79 C 92.30 148.31 96.57 146.43 100.40 143.50 Z" fill="#f1f1f1" />
<path d="M 106.38 143.81 C 110.20 146.90 113.04 150.98 116.87 154.10 C 122.23 158.44 125.18 163.51 131.40 166.61 C 137.17 169.78 143.23 169.89 149.84 171.25 C 152.89 171.89 155.90 171.80 158.98 171.53 C 157.83 172.53 156.49 174.65 154.82 174.51 C 150.75 174.49 146.73 173.99 142.66 174.29 C 143.65 175.27 144.65 176.26 145.65 177.25 C 144.71 178.74 143.77 180.24 142.85 181.75 C 144.84 182.02 146.83 182.24 148.83 182.44 C 147.24 183.22 145.65 184.00 144.07 184.79 C 145.36 185.23 146.66 185.67 147.95 186.10 C 146.90 187.83 146.11 189.68 145.35 191.56 C 143.89 189.29 143.03 186.63 141.56 184.41 C 137.37 181.63 132.77 181.47 130.88 176.02 C 128.99 176.31 127.12 176.70 125.23 177.00 C 126.09 177.72 127.01 178.35 127.98 178.90 C 124.46 179.26 121.52 179.92 118.51 181.86 C 117.34 181.29 116.20 180.71 115.01 180.18 C 114.28 183.96 113.45 186.16 110.62 188.85 C 109.93 186.23 109.24 183.60 108.49 180.99 C 107.94 182.45 107.38 183.92 106.91 185.41 C 102.39 185.15 98.47 189.02 94.34 190.85 C 97.17 195.07 96.91 199.49 97.42 204.33 C 94.08 206.00 90.44 207.23 86.95 208.58 C 89.17 208.44 91.38 208.27 93.59 208.07 C 91.56 209.97 89.80 211.96 88.19 214.22 C 84.51 211.73 82.76 211.30 78.30 212.17 C 75.29 210.21 73.80 208.59 72.15 205.45 C 66.91 206.19 61.46 207.68 56.19 207.63 C 53.66 207.68 51.76 206.53 49.58 205.47 C 50.45 205.51 51.32 205.55 52.19 205.57 C 50.24 202.43 48.89 200.98 45.30 199.82 C 45.66 198.02 46.04 196.23 46.36 194.43 C 49.40 197.86 51.61 198.56 56.11 199.09 C 56.05 197.86 55.95 196.63 55.81 195.40 C 54.97 192.16 53.10 189.58 50.79 187.23 C 46.97 183.41 43.89 179.56 39.05 177.03 L 38.66 179.09 C 36.21 173.12 33.22 167.95 35.03 161.21 C 36.48 157.80 41.09 155.71 44.07 153.78 C 45.02 154.26 45.98 154.74 46.93 155.23 L 45.67 155.68 C 43.00 156.70 40.06 157.92 38.56 160.52 C 36.51 164.47 36.88 168.96 37.21 173.25 C 38.43 169.57 39.23 165.73 40.64 162.13 C 43.68 162.41 46.56 161.82 49.56 161.55 C 51.42 161.38 52.72 162.30 54.27 163.13 C 56.32 164.32 58.55 165.15 60.61 166.31 C 62.41 168.35 63.75 170.44 66.23 171.73 C 69.63 173.51 73.38 174.63 76.89 176.22 C 80.74 177.84 83.94 179.77 88.28 178.99 C 90.83 178.77 92.49 177.31 94.35 175.76 C 93.05 175.40 91.75 175.06 90.44 174.72 C 92.68 174.04 94.92 173.36 97.16 172.69 C 96.91 171.21 96.66 169.72 96.35 168.26 C 95.61 167.00 94.82 165.77 94.02 164.54 C 94.96 164.53 95.89 164.52 96.82 164.51 C 96.50 162.89 96.17 161.27 95.83 159.65 C 98.28 156.78 99.51 153.45 100.08 149.75 C 101.12 150.02 102.17 150.24 103.23 150.43 C 104.29 148.23 105.29 145.99 106.38 143.81 Z" fill="#45494e" />
<path d="M 145.34 148.47 C 143.57 149.15 141.96 150.77 140.00 150.04 C 135.21 148.66 130.23 147.54 125.66 145.52 C 132.70 144.63 138.62 146.82 145.34 148.47 Z" fill="#8e8f96" />
<path d="M 190.98 144.76 C 191.38 145.28 191.77 145.81 192.16 146.34 C 191.10 150.15 192.46 152.33 194.14 155.61 C 194.78 157.60 195.35 159.62 196.03 161.60 C 193.95 162.63 191.88 163.66 189.81 164.70 C 190.26 159.97 189.69 157.36 186.11 154.06 L 185.03 152.95 C 187.39 150.50 189.33 147.73 190.98 144.76 Z" fill="#d7d7d3" />
<path d="M 192.16 146.34 C 194.46 149.26 196.38 152.01 194.14 155.61 C 192.46 152.33 191.10 150.15 192.16 146.34 Z" fill="#7f7e73" />
<path d="M 87.74 149.79 C 87.42 155.18 87.21 160.28 89.46 165.34 C 87.55 165.62 85.64 165.87 83.72 166.15 C 80.31 166.48 77.09 166.78 73.81 165.46 C 75.14 165.34 76.46 165.19 77.78 165.01 C 78.42 160.94 78.86 156.91 79.11 152.80 C 77.35 152.84 75.59 152.89 73.82 152.92 C 75.97 152.72 78.11 152.40 80.25 152.12 C 80.73 153.84 81.32 155.57 81.89 157.27 C 83.31 154.14 84.81 151.73 87.74 149.79 Z" fill="#dac68b" />
<path d="M 185.03 152.95 L 186.11 154.06 C 185.68 156.61 184.86 159.28 184.95 161.86 C 185.35 164.55 186.69 167.16 187.69 169.67 C 187.19 170.15 186.68 170.64 186.18 171.12 C 185.95 169.99 185.68 168.89 185.35 167.78 C 180.29 168.74 175.30 169.98 170.37 171.46 C 171.48 170.05 172.90 168.61 173.58 166.93 C 173.20 165.55 172.59 164.21 172.04 162.90 C 176.63 159.90 181.04 156.71 185.03 152.95 Z" fill="#8c8c8d" />
<path d="M 186.11 154.06 C 189.69 157.36 190.26 159.97 189.81 164.70 C 189.65 166.66 189.40 168.62 189.19 170.57 C 191.45 172.02 193.71 173.47 195.96 174.93 C 194.56 175.21 193.19 175.55 191.81 175.89 C 190.29 175.11 188.73 174.44 187.15 173.81 C 186.26 173.46 185.38 173.11 184.49 172.75 C 185.05 172.21 185.62 171.67 186.18 171.12 C 186.68 170.64 187.19 170.15 187.69 169.67 C 186.69 167.16 185.35 164.55 184.95 161.86 C 184.86 159.28 185.68 156.61 186.11 154.06 Z" fill="#b3b3b0" />
<path d="M 46.93 155.23 C 48.01 155.77 49.06 156.35 50.12 156.93 C 50.05 156.22 49.98 155.51 49.90 154.80 C 52.27 155.32 54.57 155.95 56.69 157.17 C 55.83 157.11 54.98 157.06 54.12 157.03 C 60.37 164.32 68.85 166.61 78.00 167.96 C 80.54 168.21 82.83 167.56 85.28 166.97 L 83.72 166.15 C 85.64 165.87 87.55 165.62 89.46 165.34 C 91.50 163.34 93.66 161.51 95.83 159.65 C 96.17 161.27 96.50 162.89 96.82 164.51 C 95.89 164.52 94.96 164.53 94.02 164.54 C 94.82 165.77 95.61 167.00 96.35 168.26 C 95.60 169.24 94.89 170.20 94.01 171.07 C 90.91 172.14 88.16 171.42 85.70 173.97 C 81.04 171.75 76.37 171.07 71.29 170.68 C 67.14 170.40 64.11 168.26 60.61 166.31 C 58.55 165.15 56.32 164.32 54.27 163.13 C 52.72 162.30 51.42 161.38 49.56 161.55 C 46.56 161.82 43.68 162.41 40.64 162.13 C 42.00 159.72 43.68 157.59 45.67 155.68 L 46.93 155.23 Z" fill="#8d8e8d" />
<path d="M 45.67 155.68 C 43.68 157.59 42.00 159.72 40.64 162.13 C 39.23 165.73 38.43 169.57 37.21 173.25 C 36.88 168.96 36.51 164.47 38.56 160.52 C 40.06 157.92 43.00 156.70 45.67 155.68 Z" fill="#e0e1e6" />
<path d="M 54.12 157.03 C 54.98 157.06 55.83 157.11 56.69 157.17 C 62.23 160.19 67.89 163.26 73.81 165.46 C 77.09 166.78 80.31 166.48 83.72 166.15 L 85.28 166.97 C 82.83 167.56 80.54 168.21 78.00 167.96 C 68.85 166.61 60.37 164.32 54.12 157.03 Z" fill="#13112c" />
<path d="M 197.87 156.93 C 200.03 159.70 201.82 162.46 205.06 164.07 C 204.67 169.83 205.40 174.85 203.59 180.35 C 202.75 175.67 202.29 171.10 200.27 166.72 C 198.82 163.57 198.18 160.38 197.87 156.93 Z" fill="#f5f5f2" />
<path d="M 217.91 156.84 C 220.92 162.12 222.19 167.71 224.35 173.70 C 225.53 176.78 225.45 179.88 225.14 183.11 C 224.43 182.04 223.73 180.97 222.98 179.93 C 219.32 174.66 214.66 170.32 211.37 164.76 C 213.37 161.95 215.35 159.18 217.91 156.84 Z" fill="#f4f2f2" />
<path d="M 196.03 161.60 C 198.20 166.30 199.76 170.71 200.87 175.77 C 200.41 176.28 199.96 176.78 199.50 177.29 C 198.33 176.49 197.16 175.69 195.96 174.93 C 193.71 173.47 191.45 172.02 189.19 170.57 C 189.40 168.62 189.65 166.66 189.81 164.70 C 191.88 163.66 193.95 162.63 196.03 161.60 Z" fill="#f2f2f2" />
<path d="M 172.04 162.90 C 172.59 164.21 173.20 165.55 173.58 166.93 C 172.90 168.61 171.48 170.05 170.37 171.46 C 175.30 169.98 180.29 168.74 185.35 167.78 C 185.68 168.89 185.95 169.99 186.18 171.12 C 185.62 171.67 185.05 172.21 184.49 172.75 C 185.38 173.11 186.26 173.46 187.15 173.81 C 187.73 174.76 188.32 175.71 188.89 176.67 C 187.30 176.23 185.62 175.66 183.97 175.57 C 181.80 175.77 179.68 176.69 177.50 176.79 C 173.64 176.69 170.32 175.18 166.47 176.45 C 159.90 178.61 153.80 182.47 147.95 186.10 C 146.66 185.67 145.36 185.23 144.07 184.79 C 145.65 184.00 147.24 183.22 148.83 182.44 C 146.83 182.24 144.84 182.02 142.85 181.75 C 143.77 180.24 144.71 178.74 145.65 177.25 C 144.65 176.26 143.65 175.27 142.66 174.29 C 146.73 173.99 150.75 174.49 154.82 174.51 C 156.49 174.65 157.83 172.53 158.98 171.53 C 155.90 171.80 152.89 171.89 149.84 171.25 C 157.79 169.56 165.39 167.88 172.04 162.90 Z" fill="#696b6f" />
<path d="M 211.37 164.76 C 214.66 170.32 219.32 174.66 222.98 179.93 C 219.86 178.05 217.15 177.17 213.53 177.19 C 212.55 174.83 211.60 172.47 210.61 170.12 C 209.99 171.80 209.35 173.47 208.72 175.15 C 208.20 172.89 207.47 170.48 207.52 168.14 C 207.28 166.26 210.14 165.67 211.37 164.76 Z" fill="#b7b7ac" />
<path d="M 60.61 166.31 C 64.11 168.26 67.14 170.40 71.29 170.68 C 76.37 171.07 81.04 171.75 85.70 173.97 C 88.16 171.42 90.91 172.14 94.01 171.07 C 94.89 170.20 95.60 169.24 96.35 168.26 C 96.66 169.72 96.91 171.21 97.16 172.69 C 94.92 173.36 92.68 174.04 90.44 174.72 C 91.75 175.06 93.05 175.40 94.35 175.76 C 92.49 177.31 90.83 178.77 88.28 178.99 C 83.94 179.77 80.74 177.84 76.89 176.22 C 73.38 174.63 69.63 173.51 66.23 171.73 C 63.75 170.44 62.41 168.35 60.61 166.31 Z" fill="#6a6e72" />
<path d="M 27.24 170.10 C 34.87 175.09 37.57 182.68 42.51 190.06 C 40.40 189.80 38.29 189.53 36.18 189.24 C 30.20 185.58 27.89 176.63 27.24 170.10 Z" fill="#3c243a" />
<path d="M 187.15 173.81 C 188.73 174.44 190.29 175.11 191.81 175.89 C 193.58 177.51 195.25 179.26 196.93 180.97 C 192.08 180.98 187.84 179.08 183.09 179.58 C 180.70 179.82 178.30 180.23 175.95 180.76 C 173.78 181.32 171.72 182.17 169.69 183.11 C 171.12 183.26 172.56 183.41 174.00 183.54 C 170.78 186.13 167.85 189.03 164.80 191.81 C 161.18 195.13 156.63 196.75 153.10 200.10 C 150.32 202.72 148.23 205.90 145.60 208.60 C 143.47 210.79 140.78 211.69 138.37 213.43 C 136.99 214.71 136.26 216.66 135.03 218.09 C 133.20 219.25 130.76 219.58 128.69 220.13 L 127.79 220.33 C 128.70 216.40 131.71 215.02 134.26 212.23 C 136.48 210.08 137.50 207.36 138.33 204.46 C 138.55 201.50 138.23 198.79 136.97 196.08 C 134.45 190.60 131.83 185.11 128.94 179.82 C 128.36 181.22 127.11 182.96 127.43 184.51 C 127.80 186.96 128.18 189.39 128.39 191.86 L 127.49 192.18 C 125.86 192.71 124.21 193.18 122.58 193.69 C 120.83 189.82 119.50 186.00 118.51 181.86 C 121.52 179.92 124.46 179.26 127.98 178.90 C 127.01 178.35 126.09 177.72 125.23 177.00 C 127.12 176.70 128.99 176.31 130.88 176.02 C 132.77 181.47 137.37 181.63 141.56 184.41 C 143.03 186.63 143.89 189.29 145.35 191.56 C 146.11 189.68 146.90 187.83 147.95 186.10 C 153.80 182.47 159.90 178.61 166.47 176.45 C 170.32 175.18 173.64 176.69 177.50 176.79 C 179.68 176.69 181.80 175.77 183.97 175.57 C 185.62 175.66 187.30 176.23 188.89 176.67 C 188.32 175.71 187.73 174.76 187.15 173.81 Z" fill="#20233e" />
<path d="M 21.31 174.52 C 26.11 176.75 28.14 180.95 30.98 185.15 C 32.30 187.18 32.67 188.83 32.57 191.22 L 30.87 192.10 C 26.58 186.61 22.42 181.67 21.31 174.52 Z" fill="#3c2136" />
<path d="M 195.96 174.93 C 197.16 175.69 198.33 176.49 199.50 177.29 C 199.96 176.78 200.41 176.28 200.87 175.77 C 202.08 180.14 204.39 182.31 208.19 184.56 C 207.83 185.34 207.46 186.12 207.10 186.90 C 206.20 186.60 205.30 186.31 204.41 186.01 C 205.62 188.97 206.55 191.94 207.20 195.07 C 204.86 191.89 203.43 189.02 203.12 185.05 C 202.75 181.53 199.95 180.96 196.93 180.97 C 195.25 179.26 193.58 177.51 191.81 175.89 C 193.19 175.55 194.56 175.21 195.96 174.93 Z" fill="#5f6068" />
<path d="M 39.05 177.03 C 43.89 179.56 46.97 183.41 50.79 187.23 C 53.10 189.58 54.97 192.16 55.81 195.40 C 52.17 194.43 49.58 193.10 46.79 190.58 C 42.87 187.34 40.33 183.93 38.66 179.09 L 39.05 177.03 Z" fill="#42273c" />
<path d="M 183.09 179.58 C 187.84 179.08 192.08 180.98 196.93 180.97 C 199.95 180.96 202.75 181.53 203.12 185.05 C 201.96 184.37 200.80 183.69 199.61 183.05 C 198.76 184.66 198.00 186.30 197.23 187.95 C 198.47 189.27 199.73 190.60 200.92 191.97 C 200.35 192.57 199.78 193.18 199.22 193.79 C 195.73 190.36 191.74 187.86 186.64 188.65 C 182.40 192.35 182.41 200.28 182.67 205.48 C 184.53 201.88 186.26 198.22 188.17 194.64 C 191.54 195.61 194.22 196.87 197.06 198.92 C 196.49 199.82 195.88 200.69 195.17 201.48 C 193.30 200.74 191.54 199.78 189.62 199.14 C 190.85 201.33 192.20 203.27 193.84 205.17 C 195.49 204.13 197.13 203.08 198.78 202.06 C 199.19 202.62 199.59 203.18 199.99 203.74 C 201.04 205.21 202.08 206.69 203.10 208.18 C 196.92 208.36 190.80 207.71 184.63 207.40 C 189.11 211.56 194.58 210.91 200.30 211.71 C 200.81 212.52 201.32 213.32 201.82 214.13 L 202.20 214.81 C 203.80 213.58 205.37 212.30 206.90 210.98 C 207.68 211.72 208.45 212.45 209.22 213.19 C 207.12 215.04 204.41 215.43 202.26 217.15 C 199.64 219.24 197.34 221.67 194.59 223.62 L 193.86 223.99 C 195.52 221.81 196.92 219.46 198.25 217.06 C 195.17 219.35 192.30 221.88 189.13 224.07 C 187.34 225.30 185.78 226.60 184.58 228.42 C 174.20 233.40 163.05 234.22 151.74 232.96 C 153.50 232.06 155.21 231.07 156.98 230.17 C 162.36 227.91 167.82 225.89 173.36 224.04 C 172.97 223.31 172.58 222.57 172.19 221.84 C 174.54 220.31 176.71 218.67 178.41 216.42 C 180.46 213.81 182.42 211.26 183.70 208.17 C 181.08 209.20 178.55 210.43 176.06 211.73 C 175.43 209.46 175.21 207.46 175.30 205.12 C 174.65 204.42 173.99 203.72 173.33 203.03 C 174.49 201.87 178.17 200.34 177.09 198.33 C 175.76 194.95 174.23 191.80 173.64 188.17 C 175.21 185.92 175.56 183.41 175.95 180.76 C 178.30 180.23 180.70 179.82 183.09 179.58 Z" fill="#9d9e9e" />
<path d="M 115.01 180.18 C 116.20 180.71 117.34 181.29 118.51 181.86 C 119.50 186.00 120.83 189.82 122.58 193.69 C 124.21 193.18 125.86 192.71 127.49 192.18 C 126.22 193.39 125.02 194.66 123.83 195.94 C 124.83 198.54 125.81 201.15 126.76 203.77 C 126.05 205.07 125.34 206.38 124.62 207.67 C 120.82 206.10 119.36 203.31 117.39 199.97 C 114.38 202.61 114.39 205.87 113.90 209.54 C 112.67 209.29 111.43 209.04 110.20 208.76 C 109.19 207.70 108.24 206.45 107.03 205.61 C 104.74 204.94 102.13 205.15 99.76 204.91 C 101.67 203.79 103.61 202.74 105.59 201.76 C 105.53 200.09 105.45 198.42 105.42 196.75 C 105.46 192.95 106.08 189.11 106.91 185.41 C 107.38 183.92 107.94 182.45 108.49 180.99 C 109.24 183.60 109.93 186.23 110.62 188.85 C 113.45 186.16 114.28 183.96 115.01 180.18 Z" fill="#3f293f" />
<path d="M 128.94 179.82 C 131.83 185.11 134.45 190.60 136.97 196.08 C 138.23 198.79 138.55 201.50 138.33 204.46 C 136.56 204.10 134.42 204.06 132.83 203.16 C 130.32 200.10 129.20 195.67 128.39 191.86 C 128.18 189.39 127.80 186.96 127.43 184.51 C 127.11 182.96 128.36 181.22 128.94 179.82 Z" fill="#422a3f" />
<path d="M 175.95 180.76 C 175.56 183.41 175.21 185.92 173.64 188.17 C 171.32 190.72 168.74 192.98 166.04 195.11 C 167.06 197.13 168.28 198.89 169.75 200.61 C 167.54 205.36 168.74 209.68 169.20 214.61 C 166.04 215.52 162.89 216.40 159.83 217.64 C 166.44 219.39 172.06 218.64 178.41 216.42 C 176.71 218.67 174.54 220.31 172.19 221.84 C 172.58 222.57 172.97 223.31 173.36 224.04 C 167.82 225.89 162.36 227.91 156.98 230.17 C 152.56 230.51 147.97 230.48 143.62 229.58 C 140.89 229.05 139.30 227.24 137.27 225.54 C 134.70 223.26 131.87 221.43 128.69 220.13 C 130.76 219.58 133.20 219.25 135.03 218.09 C 136.26 216.66 136.99 214.71 138.37 213.43 C 140.78 211.69 143.47 210.79 145.60 208.60 C 148.23 205.90 150.32 202.72 153.10 200.10 C 156.63 196.75 161.18 195.13 164.80 191.81 C 167.85 189.03 170.78 186.13 174.00 183.54 C 172.56 183.41 171.12 183.26 169.69 183.11 C 171.72 182.17 173.78 181.32 175.95 180.76 Z" fill="#4d5055" />
<path d="M 192.98 182.89 C 192.72 183.34 192.46 183.79 192.19 184.25 C 186.44 182.03 181.51 183.63 175.81 184.88 C 181.40 181.41 186.76 179.90 192.98 182.89 Z" fill="#727278" />
<path d="M 196.35 183.33 C 197.80 182.47 199.04 184.34 197.94 185.50 C 196.49 186.36 195.23 184.48 196.35 183.33 Z" fill="#f4f4f6" />
<path d="M 199.61 183.05 C 200.80 183.69 201.96 184.37 203.12 185.05 C 203.43 189.02 204.86 191.89 207.20 195.07 C 206.55 191.94 205.62 188.97 204.41 186.01 C 205.30 186.31 206.20 186.60 207.10 186.90 C 209.93 191.36 211.57 195.71 212.04 201.02 L 211.53 202.34 C 210.46 200.61 209.46 198.84 208.48 197.06 L 208.36 197.25 L 207.93 197.91 C 207.26 200.76 207.22 203.78 206.43 206.59 C 205.43 209.31 203.32 211.67 201.82 214.13 C 201.32 213.32 200.81 212.52 200.30 211.71 C 194.58 210.91 189.11 211.56 184.63 207.40 C 190.80 207.71 196.92 208.36 203.10 208.18 C 202.08 206.69 201.04 205.21 199.99 203.74 C 200.85 200.66 202.30 197.51 202.56 194.31 C 202.10 193.48 201.55 192.70 200.92 191.97 C 199.73 190.60 198.47 189.27 197.23 187.95 C 198.00 186.30 198.76 184.66 199.61 183.05 Z" fill="#21223c" />
<path d="M 215.62 183.07 C 217.54 185.81 219.96 188.42 219.77 191.98 C 219.68 196.49 218.95 200.96 218.72 205.46 C 218.19 206.92 217.66 208.42 217.00 209.82 C 216.34 209.28 215.66 208.75 214.98 208.23 C 212.86 209.66 211.06 211.43 209.22 213.19 C 208.45 212.45 207.68 211.72 206.90 210.98 C 209.24 208.49 210.42 205.50 211.53 202.34 L 212.04 201.02 C 213.19 198.61 214.45 196.45 215.04 193.82 C 215.82 190.39 215.61 186.58 215.62 183.07 Z" fill="#6e6c63" />
<path d="M 106.91 185.41 C 106.08 189.11 105.46 192.95 105.42 196.75 C 102.77 199.39 100.42 202.06 97.42 204.33 C 96.91 199.49 97.17 195.07 94.34 190.85 C 98.47 189.02 102.39 185.15 106.91 185.41 Z" fill="#5d5f63" />
<path d="M 173.64 188.17 C 174.23 191.80 175.76 194.95 177.09 198.33 C 178.17 200.34 174.49 201.87 173.33 203.03 C 173.99 203.72 174.65 204.42 175.30 205.12 C 175.21 207.46 175.43 209.46 176.06 211.73 C 173.85 212.87 171.58 213.87 169.20 214.61 C 168.74 209.68 167.54 205.36 169.75 200.61 C 168.28 198.89 167.06 197.13 166.04 195.11 C 168.74 192.98 171.32 190.72 173.64 188.17 Z" fill="#5b5d62" />
<path d="M 199.22 193.79 C 199.09 196.55 198.94 199.30 198.78 202.06 C 197.13 203.08 195.49 204.13 193.84 205.17 C 192.20 203.27 190.85 201.33 189.62 199.14 C 191.54 199.78 193.30 200.74 195.17 201.48 C 195.88 200.69 196.49 199.82 197.06 198.92 C 194.22 196.87 191.54 195.61 188.17 194.64 C 186.26 198.22 184.53 201.88 182.67 205.48 C 182.41 200.28 182.40 192.35 186.64 188.65 C 191.74 187.86 195.73 190.36 199.22 193.79 Z" fill="#1e1f3b" />
<path d="M 36.18 189.24 C 38.29 189.53 40.40 189.80 42.51 190.06 C 43.94 190.23 45.36 190.41 46.79 190.58 C 49.58 193.10 52.17 194.43 55.81 195.40 C 55.95 196.63 56.05 197.86 56.11 199.09 C 51.61 198.56 49.40 197.86 46.36 194.43 C 46.04 196.23 45.66 198.02 45.30 199.82 C 48.89 200.98 50.24 202.43 52.19 205.57 C 51.32 205.55 50.45 205.51 49.58 205.47 C 47.17 204.38 44.35 203.49 42.30 201.81 C 39.89 199.64 38.05 196.70 35.91 194.25 C 35.98 192.58 36.05 190.91 36.18 189.24 Z" fill="#6f535a" />
<path d="M 32.57 191.22 C 33.75 192.16 34.86 193.17 35.91 194.25 C 38.05 196.70 39.89 199.64 42.30 201.81 C 44.35 203.49 47.17 204.38 49.58 205.47 C 51.76 206.53 53.66 207.68 56.19 207.63 C 61.46 207.68 66.91 206.19 72.15 205.45 C 73.80 208.59 75.29 210.21 78.30 212.17 C 74.87 215.49 70.46 216.97 65.82 217.60 C 57.60 218.45 49.31 216.73 43.39 210.62 C 38.38 205.14 35.57 197.91 30.87 192.10 L 32.57 191.22 Z" fill="#20223e" />
<path d="M 127.49 192.18 L 128.39 191.86 C 129.20 195.67 130.32 200.10 132.83 203.16 C 134.42 204.06 136.56 204.10 138.33 204.46 C 137.50 207.36 136.48 210.08 134.26 212.23 C 131.71 215.02 128.70 216.40 127.79 220.33 C 126.00 221.63 124.23 223.22 122.23 224.19 C 119.92 225.06 117.10 224.54 114.68 225.09 C 113.28 225.56 112.10 226.81 110.96 227.70 C 109.94 227.84 108.91 227.99 107.89 228.12 C 106.64 227.29 105.39 226.45 104.14 225.62 C 104.89 221.58 106.36 217.79 107.48 213.87 C 109.18 213.87 112.05 214.96 113.27 213.33 C 114.67 211.98 115.88 210.41 117.14 208.93 C 118.89 209.83 120.57 210.85 122.32 211.75 C 123.10 210.40 123.87 209.04 124.62 207.67 C 125.34 206.38 126.05 205.07 126.76 203.77 C 125.81 201.15 124.83 198.54 123.83 195.94 C 125.02 194.66 126.22 193.39 127.49 192.18 Z" fill="#4b4c51" />
<path d="M 200.92 191.97 C 201.55 192.70 202.10 193.48 202.56 194.31 C 202.30 197.51 200.85 200.66 199.99 203.74 C 199.59 203.18 199.19 202.62 198.78 202.06 C 198.94 199.30 199.09 196.55 199.22 193.79 C 199.78 193.18 200.35 192.57 200.92 191.97 Z" fill="#fefefe" />
<path d="M 105.42 196.75 C 105.45 198.42 105.53 200.09 105.59 201.76 C 103.61 202.74 101.67 203.79 99.76 204.91 C 102.13 205.15 104.74 204.94 107.03 205.61 C 108.24 206.45 109.19 207.70 110.20 208.76 C 109.47 209.81 108.73 210.86 108.01 211.91 C 103.87 216.01 100.11 219.92 94.82 222.56 C 93.10 223.30 91.35 223.95 89.60 224.61 C 88.33 223.30 87.02 222.02 85.71 220.75 C 87.20 218.98 88.69 217.22 90.22 215.49 C 89.54 215.07 88.87 214.64 88.19 214.22 C 89.80 211.96 91.56 209.97 93.59 208.07 C 91.38 208.27 89.17 208.44 86.95 208.58 C 90.44 207.23 94.08 206.00 97.42 204.33 C 100.42 202.06 102.77 199.39 105.42 196.75 Z" fill="#20233f" />
<path d="M 207.93 197.91 L 208.36 197.25 L 208.48 197.06 C 209.46 198.84 210.46 200.61 211.53 202.34 C 210.42 205.50 209.24 208.49 206.90 210.98 C 205.37 212.30 203.80 213.58 202.20 214.81 L 201.82 214.13 C 203.32 211.67 205.43 209.31 206.43 206.59 C 207.22 203.78 207.26 200.76 207.93 197.91 Z" fill="#c3c4b4" />
<path d="M 117.39 199.97 C 119.36 203.31 120.82 206.10 124.62 207.67 C 123.87 209.04 123.10 210.40 122.32 211.75 C 120.57 210.85 118.89 209.83 117.14 208.93 C 115.88 210.41 114.67 211.98 113.27 213.33 C 112.05 214.96 109.18 213.87 107.48 213.87 L 108.01 211.91 C 108.73 210.86 109.47 209.81 110.20 208.76 C 111.43 209.04 112.67 209.29 113.90 209.54 C 114.39 205.87 114.38 202.61 117.39 199.97 Z" fill="#754b50" />
<path d="M 183.70 208.17 C 182.42 211.26 180.46 213.81 178.41 216.42 C 172.06 218.64 166.44 219.39 159.83 217.64 C 162.89 216.40 166.04 215.52 169.20 214.61 C 171.58 213.87 173.85 212.87 176.06 211.73 C 178.55 210.43 181.08 209.20 183.70 208.17 Z" fill="#ae4544" />
<path d="M 214.98 208.23 C 215.66 208.75 216.34 209.28 217.00 209.82 C 214.36 212.39 211.88 214.73 210.44 218.22 C 208.55 220.01 206.33 222.15 203.78 222.89 C 200.88 223.66 197.58 223.47 194.59 223.62 C 197.34 221.67 199.64 219.24 202.26 217.15 C 204.41 215.43 207.12 215.04 209.22 213.19 C 211.06 211.43 212.86 209.66 214.98 208.23 Z" fill="#c2c2b9" />
<path d="M 108.01 211.91 L 107.48 213.87 C 106.36 217.79 104.89 221.58 104.14 225.62 C 105.39 226.45 106.64 227.29 107.89 228.12 C 104.94 228.47 101.99 228.85 99.03 229.08 C 97.64 226.91 96.23 224.73 94.82 222.56 C 100.11 219.92 103.87 216.01 108.01 211.91 Z" fill="#5e6466" />
<path d="M 198.25 217.06 C 196.92 219.46 195.52 221.81 193.86 223.99 C 190.82 225.59 187.74 227.09 184.58 228.42 C 185.78 226.60 187.34 225.30 189.13 224.07 C 192.30 221.88 195.17 219.35 198.25 217.06 Z" fill="#403f45" />
<path d="M 127.79 220.33 L 128.69 220.13 C 131.87 221.43 134.70 223.26 137.27 225.54 C 139.30 227.24 140.89 229.05 143.62 229.58 C 147.97 230.48 152.56 230.51 156.98 230.17 C 155.21 231.07 153.50 232.06 151.74 232.96 C 144.94 232.88 138.43 235.99 131.76 235.29 C 125.89 234.69 123.40 229.71 118.45 227.51 C 116.13 226.83 113.34 227.48 110.96 227.70 C 112.10 226.81 113.28 225.56 114.68 225.09 C 117.10 224.54 119.92 225.06 122.23 224.19 C 124.23 223.22 126.00 221.63 127.79 220.33 Z" fill="#707375" />
<path d="M 94.82 222.56 C 96.23 224.73 97.64 226.91 99.03 229.08 C 97.29 228.97 95.39 228.87 93.74 228.24 C 92.15 227.41 90.87 225.87 89.60 224.61 C 91.35 223.95 93.10 223.30 94.82 222.56 Z" fill="#949494" />
</svg>