<?xml version="1.0" encoding="UTF-8" standalone="no"?>
<!DOCTYPE svg PUBLIC "-//W3C//DTD SVG 1.1//EN" "http://www.w3.org/Graphics/SVG/1.1/DTD/svg11.dtd">
<svg xmlns="http://www.w3.org/2000/svg" version="1.1" viewBox="0 0 256 256" width="256.0pt" height="256.0pt">
<path d="M 0.00 0.00 L 256.00 0.00 L 256.00 256.00 L 0.00 256.00 L 0.00 0.00 Z" fill="#fefefe" />
<path d="M 86.58 14.78 C 91.41 14.36 96.07 15.57 100.87 15.29 C 103.96 15.14 106.82 14.64 109.93 14.98 C 114.13 15.47 118.23 16.40 122.48 16.55 C 126.47 16.85 130.42 16.35 134.13 17.83 C 137.88 19.32 141.60 20.79 145.48 21.94 C 152.34 24.01 156.93 29.05 163.68 31.33 C 165.34 31.87 167.46 31.03 169.10 30.70 C 169.24 33.08 169.12 35.80 169.98 38.04 C 175.01 41.40 181.48 43.80 187.59 43.57 C 193.73 43.51 199.89 43.41 206.02 43.62 C 210.09 43.78 213.11 46.17 216.48 48.17 C 212.51 48.23 208.60 48.46 204.66 48.85 C 202.01 49.02 199.19 49.13 196.63 49.88 C 194.23 50.68 192.04 52.47 190.08 54.03 C 183.03 54.25 176.95 56.03 170.58 58.89 C 166.71 59.29 162.63 58.99 158.85 59.88 C 156.81 60.40 156.15 62.73 155.47 64.45 C 155.44 65.56 155.42 66.66 155.41 67.76 C 157.54 66.80 159.13 65.73 160.75 64.04 C 161.64 63.90 162.54 63.76 163.43 63.60 C 163.94 64.20 164.46 64.81 164.97 65.41 C 169.68 70.87 172.71 77.30 174.60 84.22 C 175.73 89.29 177.24 93.74 176.32 99.01 C 175.96 98.32 175.59 97.63 175.21 96.95 C 172.13 100.95 169.13 104.99 165.80 108.80 C 163.56 108.52 161.32 108.23 159.09 107.83 C 158.44 107.50 157.80 107.16 157.14 106.83 C 157.54 103.00 158.13 98.90 157.54 95.06 C 156.73 92.49 154.24 90.34 152.58 88.28 L 153.17 88.03 C 153.77 87.82 154.38 87.60 154.98 87.38 C 154.11 87.11 153.23 86.83 152.36 86.55 C 152.93 86.05 153.50 85.55 154.07 85.05 C 155.81 85.69 157.60 85.96 159.43 86.16 C 156.62 82.20 150.17 82.18 145.87 80.13 C 142.12 77.95 138.83 74.94 134.98 72.96 C 133.67 73.40 132.40 74.07 131.16 74.68 C 129.78 74.44 128.39 74.25 126.99 74.09 C 128.03 73.57 129.07 73.04 130.12 72.54 L 130.82 72.37 C 134.65 72.22 139.26 71.72 142.87 73.21 C 146.28 75.11 149.12 78.05 152.27 80.35 C 152.25 78.27 152.44 76.10 152.09 74.04 C 151.50 71.40 149.25 70.05 147.08 68.78 C 151.63 66.72 154.05 63.55 156.48 59.33 C 160.08 54.02 163.85 48.65 166.54 42.81 C 167.46 40.19 167.55 37.53 167.71 34.78 C 166.09 36.64 164.55 38.57 163.09 40.55 C 160.03 45.43 154.32 47.63 152.32 52.80 C 151.35 54.98 150.10 57.09 148.87 59.13 C 148.27 57.91 147.68 56.69 147.11 55.46 C 148.14 54.43 149.17 53.39 150.19 52.35 C 148.37 51.50 146.53 50.69 144.68 49.91 C 143.59 47.89 140.04 45.22 141.89 42.87 C 143.42 40.47 145.84 38.66 147.63 36.45 C 142.74 37.32 138.64 39.58 134.34 41.93 C 135.09 40.61 135.81 39.27 136.56 37.95 C 138.23 34.86 140.50 32.21 142.38 29.26 C 142.52 28.23 142.62 27.18 142.70 26.13 C 141.80 25.66 140.89 25.22 139.98 24.81 C 138.88 25.98 137.84 27.20 136.83 28.44 C 135.31 30.31 134.04 32.48 132.81 34.54 C 132.37 35.28 131.93 36.02 131.49 36.76 C 127.54 39.85 125.16 43.98 122.94 48.39 C 122.78 46.66 122.54 44.93 122.33 43.20 C 124.86 36.96 127.38 30.56 128.92 24.00 C 123.78 28.69 123.80 34.48 121.98 40.78 C 121.13 43.16 120.20 45.51 119.27 47.86 C 118.89 46.86 118.51 45.85 118.15 44.83 C 117.84 42.19 117.57 39.54 117.27 36.90 C 117.00 37.71 116.73 38.53 116.48 39.35 C 116.33 34.95 116.01 30.54 115.57 26.16 L 114.57 27.31 C 113.85 25.25 113.02 23.22 112.10 21.23 C 110.69 22.74 109.33 24.32 108.08 25.96 C 108.27 24.14 108.41 22.30 108.43 20.47 C 107.62 19.98 106.80 19.50 105.97 19.05 C 105.32 20.89 104.76 22.76 104.29 24.65 C 103.71 26.79 103.10 28.94 102.61 31.11 C 102.48 32.15 102.38 33.19 102.30 34.24 L 102.24 34.86 C 101.44 36.36 100.62 37.84 99.82 39.33 C 99.08 39.33 98.33 39.34 97.59 39.35 C 96.40 34.18 96.43 29.04 94.25 24.09 C 93.04 24.43 91.83 24.77 90.61 25.12 C 89.79 24.36 88.94 23.65 88.06 22.95 C 87.10 22.17 86.09 21.47 85.06 20.79 L 85.09 22.81 C 85.14 25.35 85.15 27.92 85.34 30.46 C 83.24 28.12 81.24 25.93 78.23 24.78 C 76.62 24.10 74.91 23.59 73.22 23.14 C 72.88 24.20 72.55 25.27 72.23 26.34 C 69.88 26.49 67.69 26.50 65.45 27.32 C 63.16 29.18 61.54 31.42 59.63 33.63 C 58.20 35.01 56.61 36.55 54.76 37.31 C 51.84 37.70 48.55 37.80 45.67 37.13 C 41.65 35.67 37.92 33.24 34.31 30.97 L 33.94 30.39 C 34.46 29.96 34.98 29.53 35.50 29.10 C 35.13 28.10 34.76 27.10 34.40 26.10 C 40.15 26.59 45.79 26.77 51.45 25.38 C 58.43 23.79 63.74 19.66 70.64 17.67 C 75.73 16.21 81.29 15.22 86.58 14.78 Z" fill="#f3f3f0" />
<path d="M 105.97 19.05 C 106.80 19.50 107.62 19.98 108.43 20.47 C 108.41 22.30 108.27 24.14 108.08 25.96 C 107.72 26.87 107.37 27.78 107.02 28.69 C 105.74 31.00 104.37 32.64 102.30 34.24 C 102.38 33.19 102.48 32.15 102.61 31.11 L 104.39 31.61 C 104.35 29.29 104.29 26.97 104.29 24.65 C 104.76 22.76 105.32 20.89 105.97 19.05 Z" fill="#938664" />
<path d="M 85.06 20.79 C 86.09 21.47 87.10 22.17 88.06 22.95 C 89.42 30.05 91.22 37.01 93.19 43.96 C 92.90 44.67 92.62 45.38 92.33 46.09 C 90.18 38.24 87.52 30.57 85.09 22.81 L 85.06 20.79 Z" fill="#897850" />
<path d="M 112.10 21.23 C 113.02 23.22 113.85 25.25 114.57 27.31 C 114.39 28.47 114.22 29.63 114.05 30.78 C 113.07 30.64 112.10 30.50 111.12 30.35 C 110.43 32.27 109.74 34.19 109.02 36.09 C 107.48 33.65 106.63 31.65 107.02 28.69 C 107.37 27.78 107.72 26.87 108.08 25.96 C 109.33 24.32 110.69 22.74 112.10 21.23 Z" fill="#ece1c3" />
<path d="M 28.16 21.90 C 30.28 24.60 32.12 27.49 33.94 30.39 L 34.31 30.97 C 35.60 33.32 36.70 35.79 37.84 38.22 C 36.89 37.87 35.94 37.52 34.99 37.17 C 33.37 34.41 31.66 31.63 30.27 28.76 C 29.49 26.50 28.76 24.22 28.16 21.90 Z" fill="#444148" />
<path d="M 73.22 23.14 C 74.91 23.59 76.62 24.10 78.23 24.78 C 81.41 28.85 83.48 33.57 86.62 37.65 C 85.56 39.11 84.23 40.13 84.26 42.06 C 84.10 46.51 84.88 50.95 84.76 55.41 C 84.17 54.32 83.57 53.23 82.98 52.13 C 82.33 58.60 82.59 64.81 83.76 71.21 C 82.12 69.44 80.33 67.82 78.68 66.05 C 77.32 63.75 76.28 61.31 75.36 58.80 C 74.55 56.25 73.90 53.61 73.27 51.01 C 72.86 48.93 72.54 46.80 72.21 44.70 C 67.44 45.40 66.26 49.11 62.87 51.86 C 61.10 53.35 59.16 54.64 57.18 55.82 C 54.67 55.11 52.12 54.65 49.56 54.19 C 46.69 51.89 43.26 50.02 40.73 47.37 C 38.68 44.06 37.11 40.46 34.99 37.17 C 35.94 37.52 36.89 37.87 37.84 38.22 C 36.70 35.79 35.60 33.32 34.31 30.97 C 37.92 33.24 41.65 35.67 45.67 37.13 C 48.55 37.80 51.84 37.70 54.76 37.31 C 56.61 36.55 58.20 35.01 59.63 33.63 C 61.03 33.20 62.75 32.84 63.89 31.88 C 64.92 30.73 65.14 28.78 65.45 27.32 C 67.69 26.50 69.88 26.49 72.23 26.34 C 72.55 25.27 72.88 24.20 73.22 23.14 Z" fill="#9b8a62" />
<path d="M 85.09 22.81 C 87.52 30.57 90.18 38.24 92.33 46.09 C 92.62 45.38 92.90 44.67 93.19 43.96 C 93.84 46.29 94.38 48.65 95.03 50.99 C 94.36 50.48 93.67 50.01 92.96 49.58 C 91.88 49.05 90.78 48.58 89.67 48.13 C 89.33 46.97 88.98 45.81 88.61 44.66 C 88.10 42.61 87.64 40.54 87.24 38.46 C 87.58 34.98 87.14 33.43 85.34 30.46 C 85.15 27.92 85.14 25.35 85.09 22.81 Z" fill="#ddbb6f" />
<path d="M 88.06 22.95 C 88.94 23.65 89.79 24.36 90.61 25.12 C 92.68 30.34 94.57 35.50 97.80 40.15 C 98.58 41.49 99.39 42.82 100.20 44.15 C 98.65 47.05 97.33 49.97 96.20 53.06 C 95.80 52.37 95.41 51.68 95.03 50.99 C 94.38 48.65 93.84 46.29 93.19 43.96 C 91.22 37.01 89.42 30.05 88.06 22.95 Z" fill="#efe5c7" />
<path d="M 94.25 24.09 C 96.43 29.04 96.40 34.18 97.59 39.35 L 97.80 40.15 C 94.57 35.50 92.68 30.34 90.61 25.12 C 91.83 24.77 93.04 24.43 94.25 24.09 Z" fill="#ceb46d" />
<path d="M 128.92 24.00 C 127.38 30.56 124.86 36.96 122.33 43.20 C 122.21 42.39 122.09 41.59 121.98 40.78 C 123.80 34.48 123.78 28.69 128.92 24.00 Z" fill="#787165" />
<path d="M 85.34 30.46 C 87.14 33.43 87.58 34.98 87.24 38.46 L 86.62 37.65 C 83.48 33.57 81.41 28.85 78.23 24.78 C 81.24 25.93 83.24 28.12 85.34 30.46 Z" fill="#3b353c" />
<path d="M 104.29 24.65 C 104.29 26.97 104.35 29.29 104.39 31.61 L 102.61 31.11 C 103.10 28.94 103.71 26.79 104.29 24.65 Z" fill="#4e4a3e" />
<path d="M 139.98 24.81 C 140.89 25.22 141.80 25.66 142.70 26.13 C 142.62 27.18 142.52 28.23 142.38 29.26 C 140.53 28.98 138.69 28.66 136.83 28.44 C 137.84 27.20 138.88 25.98 139.98 24.81 Z" fill="#d8d2c3" />
<path d="M 115.57 26.16 C 116.01 30.54 116.33 34.95 116.48 39.35 C 116.33 41.12 116.19 42.89 116.05 44.67 C 115.19 44.36 114.34 44.05 113.48 43.75 C 114.08 40.01 113.94 36.31 113.80 32.55 L 114.05 30.78 C 114.22 29.63 114.39 28.47 114.57 27.31 L 115.57 26.16 Z" fill="#8a826e" />
<path d="M 65.45 27.32 C 65.14 28.78 64.92 30.73 63.89 31.88 C 62.75 32.84 61.03 33.20 59.63 33.63 C 61.54 31.42 63.16 29.18 65.45 27.32 Z" fill="#372f36" />
<path d="M 136.83 28.44 C 138.69 28.66 140.53 28.98 142.38 29.26 C 140.50 32.21 138.23 34.86 136.56 37.95 C 135.33 36.79 134.09 35.65 132.81 34.54 C 134.04 32.48 135.31 30.31 136.83 28.44 Z" fill="#b9ad8b" />
<path d="M 27.86 30.19 C 28.66 30.02 29.46 29.84 30.26 29.66 L 30.27 28.76 C 31.66 31.63 33.37 34.41 34.99 37.17 C 37.11 40.46 38.68 44.06 40.73 47.37 C 43.26 50.02 46.69 51.89 49.56 54.19 C 52.33 56.42 53.65 56.91 57.18 55.82 C 59.16 54.64 61.10 53.35 62.87 51.86 C 66.26 49.11 67.44 45.40 72.21 44.70 C 72.54 46.80 72.86 48.93 73.27 51.01 C 69.40 51.81 65.09 52.45 61.85 54.83 C 58.65 57.08 55.85 59.98 52.90 62.54 C 47.53 60.92 41.77 60.40 36.23 59.67 C 36.69 60.47 37.16 61.27 37.63 62.06 C 38.14 62.98 38.64 63.90 39.11 64.83 C 39.53 65.66 39.94 66.49 40.34 67.33 C 37.89 66.66 35.46 65.94 32.99 65.37 C 31.38 68.64 30.30 71.95 31.36 75.60 C 32.72 80.20 36.58 83.56 40.21 86.43 C 40.21 87.70 40.22 88.98 40.23 90.26 C 39.67 91.84 39.04 93.39 38.40 94.93 C 31.14 95.38 25.39 101.97 22.75 108.26 C 26.92 105.05 29.91 98.50 35.26 97.72 C 31.65 100.28 28.39 104.43 27.84 108.93 C 27.33 111.94 26.53 114.83 25.51 117.70 C 24.70 119.50 23.88 121.28 23.15 123.11 C 21.69 118.96 22.06 114.87 22.28 110.58 C 21.50 112.47 20.52 114.61 20.48 116.69 C 20.41 119.91 21.73 123.33 22.42 126.47 C 23.44 130.80 23.37 135.31 24.37 139.62 C 25.25 143.29 27.38 146.47 29.20 149.72 C 31.34 153.42 32.88 157.07 35.65 160.36 C 40.40 166.07 46.27 171.00 52.94 174.32 C 50.27 171.67 47.97 169.12 46.68 165.52 C 49.44 166.77 52.23 167.98 55.10 168.97 C 54.21 168.37 53.32 167.78 52.42 167.20 C 52.27 165.18 51.92 163.18 51.79 161.16 C 52.40 159.48 53.36 157.92 54.12 156.31 C 52.87 157.34 51.66 158.41 50.45 159.49 C 50.52 161.97 50.61 164.44 50.50 166.92 C 48.87 164.48 47.80 161.84 46.89 159.06 C 46.32 154.33 46.94 149.80 47.85 145.16 C 48.80 142.56 50.20 140.21 51.68 137.89 C 52.46 141.21 52.93 144.60 53.71 147.92 C 54.05 149.11 54.48 150.26 54.93 151.40 C 53.25 152.59 51.54 153.73 49.89 154.96 C 51.99 154.76 54.07 154.44 56.18 154.34 C 56.95 155.72 57.80 157.05 58.62 158.40 L 59.32 159.46 C 58.25 159.73 57.18 160.02 56.12 160.32 C 56.73 168.44 61.21 174.70 67.43 179.62 C 68.68 180.98 69.85 182.60 71.36 183.67 C 73.79 184.82 76.29 185.10 78.52 186.72 C 81.96 189.45 85.59 191.69 89.42 193.80 C 91.04 194.83 92.56 195.99 93.93 197.33 C 96.97 200.69 100.70 203.51 103.43 207.11 C 102.01 211.23 99.54 214.87 97.83 218.88 C 96.30 221.48 94.57 223.95 93.07 226.56 C 94.94 226.04 96.94 225.62 98.69 224.76 C 100.50 222.50 101.02 219.10 102.03 216.43 C 102.63 216.08 103.24 215.74 103.84 215.39 C 103.37 217.41 102.63 219.57 102.68 221.66 C 103.41 223.29 104.66 224.73 105.74 226.14 C 102.97 227.93 100.40 229.02 97.08 229.37 C 95.47 229.58 93.89 229.92 92.31 230.27 C 93.44 229.55 94.57 228.83 95.69 228.10 C 91.48 227.31 87.22 226.60 82.96 226.12 C 80.71 225.73 78.38 227.38 76.27 228.12 C 77.06 225.42 77.90 222.85 79.67 220.61 C 82.39 216.94 86.17 211.32 85.15 206.56 C 83.22 201.26 77.47 197.76 72.74 195.23 C 66.69 192.10 61.80 187.42 55.81 184.19 C 49.02 180.47 42.46 176.31 36.11 171.90 C 30.51 167.93 26.70 162.68 22.96 157.03 C 17.81 149.37 15.00 139.85 13.02 130.92 C 10.91 117.56 15.24 103.62 22.37 92.35 C 26.02 86.47 25.01 80.75 24.71 74.22 C 24.28 66.81 27.35 61.20 29.34 54.38 C 30.66 50.03 28.99 46.12 28.10 41.87 C 27.13 38.03 27.14 34.08 27.86 30.19 Z" fill="#f4f4f1" />
<path d="M 107.02 28.69 C 106.63 31.65 107.48 33.65 109.02 36.09 C 109.74 34.19 110.43 32.27 111.12 30.35 C 112.10 30.50 113.07 30.64 114.05 30.78 L 113.80 32.55 C 111.38 38.80 110.48 45.25 110.03 51.90 C 111.22 49.20 112.44 46.51 113.48 43.75 C 114.34 44.05 115.19 44.36 116.05 44.67 C 116.19 42.89 116.33 41.12 116.48 39.35 C 116.73 38.53 117.00 37.71 117.27 36.90 C 117.57 39.54 117.84 42.19 118.15 44.83 C 117.89 48.69 117.49 52.52 117.52 56.39 C 119.75 53.98 121.64 51.42 122.94 48.39 C 125.16 43.98 127.54 39.85 131.49 36.76 C 130.99 40.51 130.52 43.97 127.91 46.90 C 124.67 50.52 121.49 54.12 118.56 58.00 C 114.68 62.68 111.45 67.79 107.82 72.65 C 106.84 73.74 105.79 74.76 104.77 75.80 L 104.28 76.31 C 102.25 75.91 100.22 75.55 98.20 75.10 C 99.66 68.90 100.90 60.90 97.41 55.14 C 97.01 54.44 96.61 53.75 96.20 53.06 C 97.33 49.97 98.65 47.05 100.20 44.15 C 101.93 41.23 102.22 38.19 102.24 34.86 L 102.30 34.24 C 104.37 32.64 105.74 31.00 107.02 28.69 Z" fill="#ddbb6b" />
<path d="M 113.80 32.55 C 113.94 36.31 114.08 40.01 113.48 43.75 C 112.44 46.51 111.22 49.20 110.03 51.90 C 110.48 45.25 111.38 38.80 113.80 32.55 Z" fill="#fdf4ca" />
<path d="M 102.24 34.86 C 102.22 38.19 101.93 41.23 100.20 44.15 C 99.39 42.82 98.58 41.49 97.80 40.15 L 97.59 39.35 C 98.33 39.34 99.08 39.33 99.82 39.33 C 100.62 37.84 101.44 36.36 102.24 34.86 Z" fill="#9c9172" />
<path d="M 132.81 34.54 C 134.09 35.65 135.33 36.79 136.56 37.95 C 135.81 39.27 135.09 40.61 134.34 41.93 C 138.64 39.58 142.74 37.32 147.63 36.45 C 145.84 38.66 143.42 40.47 141.89 42.87 C 140.04 45.22 143.59 47.89 144.68 49.91 C 145.48 51.77 146.26 53.63 147.11 55.46 C 147.68 56.69 148.27 57.91 148.87 59.13 C 150.10 57.09 151.35 54.98 152.32 52.80 C 154.32 47.63 160.03 45.43 163.09 40.55 C 164.25 41.29 165.40 42.05 166.54 42.81 C 163.85 48.65 160.08 54.02 156.48 59.33 C 154.29 61.19 152.18 63.34 149.70 64.81 C 147.99 65.07 146.17 64.84 144.46 64.66 C 142.99 64.47 141.54 64.26 140.07 64.13 L 138.71 64.00 C 139.60 62.77 140.48 61.53 141.34 60.28 C 139.21 60.79 137.10 61.36 134.97 61.87 C 134.78 61.10 134.59 60.33 134.40 59.57 C 133.44 59.51 132.49 59.45 131.54 59.40 C 131.40 57.65 131.26 55.90 131.11 54.15 C 128.81 55.58 125.89 56.92 124.18 59.05 C 122.83 60.85 121.85 62.99 120.84 64.99 C 119.75 62.76 119.15 60.40 118.56 58.00 C 121.49 54.12 124.67 50.52 127.91 46.90 C 130.52 43.97 130.99 40.51 131.49 36.76 C 131.93 36.02 132.37 35.28 132.81 34.54 Z" fill="#20233f" />
<path d="M 167.71 34.78 C 167.55 37.53 167.46 40.19 166.54 42.81 C 165.40 42.05 164.25 41.29 163.09 40.55 C 164.55 38.57 166.09 36.64 167.71 34.78 Z" fill="#9a9aa1" />
<path d="M 86.62 37.65 L 87.24 38.46 C 87.64 40.54 88.10 42.61 88.61 44.66 C 88.46 50.93 89.54 57.08 89.29 63.37 C 88.65 63.67 88.00 63.96 87.34 64.24 C 86.77 64.45 86.19 64.63 85.60 64.80 C 87.02 66.01 88.44 67.22 89.81 68.49 C 89.90 69.65 89.91 70.81 89.93 71.97 C 91.31 73.83 92.73 75.66 94.14 77.49 C 92.73 78.48 91.32 79.47 89.92 80.47 C 88.67 78.60 87.43 76.71 86.13 74.87 C 85.32 73.66 84.55 72.43 83.76 71.21 C 82.59 64.81 82.33 58.60 82.98 52.13 C 83.57 53.23 84.17 54.32 84.76 55.41 C 84.88 50.95 84.10 46.51 84.26 42.06 C 84.23 40.13 85.56 39.11 86.62 37.65 Z" fill="#686255" />
<path d="M 121.98 40.78 C 122.09 41.59 122.21 42.39 122.33 43.20 C 122.54 44.93 122.78 46.66 122.94 48.39 C 121.64 51.42 119.75 53.98 117.52 56.39 C 117.49 52.52 117.89 48.69 118.15 44.83 C 118.51 45.85 118.89 46.86 119.27 47.86 C 120.20 45.51 121.13 43.16 121.98 40.78 Z" fill="#ece4c8" />
<path d="M 88.61 44.66 C 88.98 45.81 89.33 46.97 89.67 48.13 C 90.94 53.79 92.47 59.36 93.49 65.07 C 94.12 68.64 95.34 71.93 97.43 74.91 C 96.48 76.64 95.67 78.81 94.18 80.15 C 92.80 80.41 91.32 80.42 89.92 80.47 C 91.32 79.47 92.73 78.48 94.14 77.49 C 92.73 75.66 91.31 73.83 89.93 71.97 C 89.91 70.81 89.90 69.65 89.81 68.49 C 89.66 66.78 89.42 65.08 89.29 63.37 C 89.54 57.08 88.46 50.93 88.61 44.66 Z" fill="#1d1f3b" />
<path d="M 77.46 46.65 C 79.58 48.65 81.20 51.01 82.73 53.48 C 81.13 53.37 79.53 53.24 77.93 53.13 C 77.72 50.97 77.54 48.81 77.46 46.65 Z" fill="#e5dec9" />
<path d="M 89.67 48.13 C 90.78 48.58 91.88 49.05 92.96 49.58 C 93.11 52.16 93.40 54.77 93.67 57.35 C 94.92 56.62 96.16 55.88 97.41 55.14 C 100.90 60.90 99.66 68.90 98.20 75.10 L 97.43 74.91 C 95.34 71.93 94.12 68.64 93.49 65.07 C 92.47 59.36 90.94 53.79 89.67 48.13 Z" fill="#61584b" />
<path d="M 92.96 49.58 C 93.67 50.01 94.36 50.48 95.03 50.99 C 95.41 51.68 95.80 52.37 96.20 53.06 C 96.61 53.75 97.01 54.44 97.41 55.14 C 96.16 55.88 94.92 56.62 93.67 57.35 C 93.40 54.77 93.11 52.16 92.96 49.58 Z" fill="#352d2f" />
<path d="M 196.63 49.88 C 199.19 49.13 202.01 49.02 204.66 48.85 C 210.93 50.36 217.38 51.02 223.58 52.75 C 222.11 52.94 220.63 53.10 219.15 53.24 C 212.53 53.10 204.87 54.96 198.92 57.81 C 196.04 59.84 194.10 62.25 190.33 62.50 C 185.67 63.06 180.34 63.87 177.76 68.31 C 177.15 71.57 177.66 75.12 177.87 78.40 C 173.34 74.97 170.87 70.91 169.01 65.60 C 171.74 65.67 174.46 65.61 177.19 65.50 C 175.77 64.66 174.35 63.84 172.88 63.08 L 174.53 61.60 C 169.65 61.01 165.58 61.29 160.89 62.75 C 161.99 63.01 163.09 63.26 164.20 63.49 L 163.43 63.60 C 162.54 63.76 161.64 63.90 160.75 64.04 C 158.99 64.23 157.23 64.35 155.47 64.45 C 156.15 62.73 156.81 60.40 158.85 59.88 C 162.63 58.99 166.71 59.29 170.58 58.89 C 177.85 58.64 184.39 59.44 190.08 54.03 C 192.04 52.47 194.23 50.68 196.63 49.88 Z" fill="#7b7895" />
<path d="M 144.68 49.91 C 146.53 50.69 148.37 51.50 150.19 52.35 C 149.17 53.39 148.14 54.43 147.11 55.46 C 146.26 53.63 145.48 51.77 144.68 49.91 Z" fill="#7d7769" />
<path d="M 73.27 51.01 C 73.90 53.61 74.55 56.25 75.36 58.80 C 74.77 59.47 74.19 60.14 73.62 60.82 C 70.98 62.73 68.47 64.08 67.46 67.39 C 66.13 70.72 64.83 74.07 63.41 77.37 C 62.67 77.24 61.94 77.11 61.20 76.98 C 61.43 74.65 61.66 72.32 61.90 69.98 C 62.78 69.06 63.67 68.13 64.55 67.20 C 60.66 65.68 56.86 63.87 52.90 62.54 C 55.85 59.98 58.65 57.08 61.85 54.83 C 65.09 52.45 69.40 51.81 73.27 51.01 Z" fill="#ca8172" />
<path d="M 219.15 53.24 C 217.33 53.65 215.56 54.14 213.77 54.63 C 216.04 55.15 218.32 55.64 220.60 56.15 C 219.70 61.28 218.92 66.03 221.01 71.02 C 224.68 80.71 233.28 85.75 236.92 95.18 C 240.47 104.44 243.01 114.16 242.59 124.15 C 242.51 132.33 239.79 139.02 241.16 147.01 C 241.53 150.04 242.72 153.57 241.68 156.53 C 239.61 162.89 236.83 168.90 233.83 174.86 C 230.15 182.18 232.33 189.17 230.43 197.58 C 228.80 205.99 224.39 212.68 219.58 219.55 C 215.15 226.90 209.94 233.33 202.10 237.20 C 196.67 240.01 190.98 240.30 184.99 240.16 C 172.85 239.92 161.23 234.83 148.96 236.02 C 143.38 236.61 137.81 237.55 132.28 238.50 C 126.62 239.51 121.52 242.00 115.88 242.92 C 111.89 243.57 107.66 243.59 103.62 243.74 C 97.63 243.91 91.35 244.12 85.56 242.30 C 82.51 241.33 80.12 239.16 77.71 237.15 C 78.17 235.26 78.61 233.36 79.02 231.46 C 81.02 230.45 82.99 229.41 85.00 228.41 C 84.18 230.17 83.34 231.91 82.58 233.69 C 83.80 234.21 85.02 234.73 86.24 235.24 C 87.97 234.59 89.71 232.92 91.58 233.67 C 95.64 235.00 99.13 233.68 103.10 232.81 C 104.88 232.28 106.16 233.12 107.70 233.94 C 111.04 236.10 113.07 236.63 117.07 236.53 C 116.70 235.70 116.33 234.87 115.95 234.04 C 116.81 233.37 117.68 232.75 118.57 232.10 C 118.54 233.10 118.51 234.09 118.47 235.09 C 120.02 234.97 121.56 234.85 123.11 234.70 C 121.87 232.99 120.61 231.31 119.33 229.63 C 117.59 229.65 115.84 229.76 114.10 229.86 C 114.66 227.68 115.31 225.54 116.05 223.41 C 116.69 223.39 117.33 223.37 117.97 223.36 C 118.15 222.52 118.34 221.69 118.53 220.86 C 120.87 217.37 123.70 214.45 126.63 211.48 C 132.01 207.21 137.46 202.90 143.36 199.38 C 146.12 197.25 148.22 194.29 150.82 191.94 L 151.63 191.61 C 156.91 195.33 161.66 199.39 167.80 201.72 C 168.97 202.65 170.05 203.60 171.32 204.42 C 171.98 204.86 172.64 205.30 173.30 205.74 C 171.73 209.20 170.75 212.69 170.10 216.43 C 165.23 218.33 159.31 218.28 154.11 218.75 C 154.72 219.83 155.33 220.91 155.93 221.99 L 154.29 221.80 C 152.67 221.76 151.04 221.64 149.43 221.76 C 148.10 222.78 146.94 224.09 145.80 225.32 C 149.47 225.83 153.01 225.65 156.67 225.23 C 157.53 226.04 158.39 226.85 159.25 227.65 C 160.94 226.41 162.62 225.15 164.26 223.83 C 165.10 223.86 165.94 223.86 166.78 223.75 C 170.29 221.93 173.41 219.00 176.58 216.59 C 179.07 214.62 182.07 212.27 182.88 209.04 C 182.08 206.20 180.26 205.35 177.68 204.48 C 176.50 202.69 175.51 200.77 174.24 199.05 C 171.60 195.38 168.61 192.05 165.83 188.48 L 166.09 187.53 C 166.73 187.65 167.36 187.76 168.00 187.87 C 170.03 190.78 172.02 193.95 174.63 196.39 C 176.63 196.92 178.75 197.09 180.80 197.33 C 184.03 197.70 187.27 198.02 190.47 198.54 C 193.69 199.49 196.64 200.98 199.57 202.60 C 198.40 205.26 197.35 207.84 195.80 210.27 C 194.59 211.47 193.34 212.63 192.13 213.83 C 190.14 215.80 188.39 217.90 186.63 220.07 L 185.91 220.30 C 186.63 220.64 187.35 220.97 188.07 221.31 C 186.51 221.73 184.96 222.18 183.47 222.81 C 182.22 223.56 181.01 224.40 179.80 225.22 C 181.51 227.17 183.05 229.68 185.20 231.15 C 188.02 231.87 191.27 231.67 194.17 231.70 C 194.60 230.80 195.02 229.90 195.44 228.99 C 196.11 229.57 196.78 230.14 197.49 230.66 C 201.61 229.82 203.30 226.76 205.78 223.78 C 207.77 220.98 210.22 217.89 210.56 214.39 C 210.70 212.31 211.84 210.85 212.94 209.18 C 214.16 209.08 215.38 208.97 216.60 208.85 C 217.18 205.08 217.42 201.63 219.80 198.47 C 220.81 197.75 221.82 197.05 222.85 196.36 C 222.74 192.34 222.92 188.12 222.08 184.18 C 221.39 181.36 217.74 179.71 215.48 178.27 C 215.08 175.50 214.77 172.73 214.52 169.95 C 215.95 167.99 217.34 166.00 218.75 164.02 C 221.41 165.48 224.05 165.74 227.02 165.45 C 231.93 164.37 233.64 160.33 235.14 156.02 C 235.77 153.76 235.34 151.68 235.01 149.41 C 232.21 152.46 231.16 156.13 229.51 159.79 C 228.03 159.76 226.56 159.75 225.09 159.86 C 225.27 159.29 225.46 158.72 225.64 158.15 C 220.53 154.59 219.59 149.44 216.58 144.37 C 214.85 141.31 212.25 139.61 209.55 137.51 C 207.25 135.60 205.23 133.55 202.69 131.93 C 198.45 129.38 193.75 128.18 189.63 125.35 C 186.61 123.28 183.56 121.30 180.28 119.66 C 178.09 121.01 176.25 122.93 173.55 122.92 C 169.39 122.99 165.91 123.39 161.95 124.72 L 161.01 123.93 C 164.20 120.86 167.50 118.28 171.27 115.95 C 171.78 115.62 172.30 115.29 172.81 114.97 C 175.42 116.26 177.56 116.88 180.47 116.76 C 186.26 116.56 191.63 118.49 196.67 114.73 C 199.00 113.40 198.67 110.10 199.29 107.75 C 199.56 106.33 199.82 104.85 200.50 103.57 C 203.41 101.83 207.36 101.55 210.66 101.22 C 212.47 101.11 214.28 101.00 216.09 100.93 C 219.36 102.06 222.48 103.52 225.65 104.91 C 225.94 106.64 226.29 108.36 226.78 110.05 C 228.58 115.49 231.87 120.01 235.73 124.17 C 234.62 120.11 233.26 116.13 232.14 112.07 C 230.48 106.46 230.91 97.96 226.47 93.73 C 223.27 90.47 220.25 86.87 216.64 84.05 C 212.00 80.81 207.89 76.60 204.74 71.92 C 202.53 67.31 201.70 62.23 198.92 57.81 C 204.87 54.96 212.53 53.10 219.15 53.24 Z" fill="#f4f3f1" />
<path d="M 49.56 54.19 C 52.12 54.65 54.67 55.11 57.18 55.82 C 53.65 56.91 52.33 56.42 49.56 54.19 Z" fill="#464241" />
<path d="M 131.11 54.15 C 131.26 55.90 131.40 57.65 131.54 59.40 C 132.49 59.45 133.44 59.51 134.40 59.57 C 134.59 60.33 134.78 61.10 134.97 61.87 C 137.10 61.36 139.21 60.79 141.34 60.28 C 140.48 61.53 139.60 62.77 138.71 64.00 L 140.07 64.13 C 138.16 65.20 136.40 66.48 134.64 67.78 C 134.08 68.17 133.52 68.56 132.96 68.95 C 131.27 69.54 128.17 70.17 130.12 72.54 C 129.07 73.04 128.03 73.57 126.99 74.09 C 126.08 72.80 125.19 71.53 124.21 70.29 C 122.39 71.58 120.60 72.90 118.78 74.19 L 118.61 72.63 C 119.86 70.84 121.18 69.10 122.51 67.37 C 121.94 66.58 121.38 65.79 120.84 64.99 C 121.85 62.99 122.83 60.85 124.18 59.05 C 125.89 56.92 128.81 55.58 131.11 54.15 Z" fill="#998b63" />
<path d="M 190.08 54.03 C 184.39 59.44 177.85 58.64 170.58 58.89 C 176.95 56.03 183.03 54.25 190.08 54.03 Z" fill="#d7c1bf" />
<path d="M 118.56 58.00 C 119.15 60.40 119.75 62.76 120.84 64.99 C 121.38 65.79 121.94 66.58 122.51 67.37 C 121.18 69.10 119.86 70.84 118.61 72.63 C 117.32 73.41 116.01 74.17 114.71 74.93 C 112.42 74.17 110.12 73.41 107.82 72.65 C 111.45 67.79 114.68 62.68 118.56 58.00 Z" fill="#7e735a" />
<path d="M 198.92 57.81 C 201.70 62.23 202.53 67.31 204.74 71.92 C 207.89 76.60 212.00 80.81 216.64 84.05 L 214.93 84.14 C 215.66 85.58 216.44 87.00 217.32 88.36 C 212.30 88.24 207.34 87.23 202.32 87.21 C 199.84 87.21 196.33 87.96 195.03 90.31 C 194.42 93.98 196.89 99.21 194.03 102.01 C 191.29 105.31 188.67 106.54 184.37 106.60 C 179.90 106.54 176.52 108.67 172.90 110.99 C 176.64 105.78 179.40 99.78 181.55 93.75 C 181.62 90.16 179.88 86.32 178.99 82.84 C 178.57 81.37 178.18 79.90 177.87 78.40 C 177.66 75.12 177.15 71.57 177.76 68.31 C 180.34 63.87 185.67 63.06 190.33 62.50 C 194.10 62.25 196.04 59.84 198.92 57.81 Z" fill="#cbb5b1" />
<path d="M 75.36 58.80 C 76.28 61.31 77.32 63.75 78.68 66.05 C 76.95 66.19 75.22 66.34 73.49 66.48 C 72.29 70.01 71.24 73.59 70.00 77.10 C 67.58 79.71 66.19 78.34 63.41 77.37 C 64.83 74.07 66.13 70.72 67.46 67.39 C 69.96 65.42 71.83 63.42 73.62 60.82 C 74.19 60.14 74.77 59.47 75.36 58.80 Z" fill="#c16166" />
<path d="M 156.48 59.33 C 154.05 63.55 151.63 66.72 147.08 68.78 C 145.66 68.12 144.21 67.54 142.73 67.02 L 144.09 66.92 C 144.22 66.17 144.34 65.41 144.46 64.66 C 146.17 64.84 147.99 65.07 149.70 64.81 C 152.18 63.34 154.29 61.19 156.48 59.33 Z" fill="#91898a" />
<path d="M 36.23 59.67 C 41.77 60.40 47.53 60.92 52.90 62.54 C 56.86 63.87 60.66 65.68 64.55 67.20 C 63.67 68.13 62.78 69.06 61.90 69.98 C 58.70 69.96 55.40 70.06 52.24 69.54 C 47.35 68.78 44.74 62.23 39.77 62.29 L 37.63 62.06 C 37.16 61.27 36.69 60.47 36.23 59.67 Z" fill="#584b64" />
<path d="M 73.62 60.82 C 71.83 63.42 69.96 65.42 67.46 67.39 C 68.47 64.08 70.98 62.73 73.62 60.82 Z" fill="#814445" />
<path d="M 174.53 61.60 L 172.88 63.08 C 169.99 63.21 167.09 63.34 164.20 63.49 C 163.09 63.26 161.99 63.01 160.89 62.75 C 165.58 61.29 169.65 61.01 174.53 61.60 Z" fill="#5f5a76" />
<path d="M 37.63 62.06 L 39.77 62.29 C 44.74 62.23 47.35 68.78 52.24 69.54 C 55.40 70.06 58.70 69.96 61.90 69.98 C 61.66 72.32 61.43 74.65 61.20 76.98 C 58.70 78.68 56.29 80.45 53.94 82.35 C 52.14 79.00 50.26 75.73 47.86 72.77 C 48.23 74.39 48.65 75.99 49.13 77.59 C 46.71 79.74 44.75 82.23 42.96 84.93 C 42.17 85.17 41.38 85.40 40.59 85.64 C 41.37 86.11 42.16 86.58 42.94 87.04 C 42.03 88.11 41.11 89.16 40.23 90.26 C 40.22 88.98 40.21 87.70 40.21 86.43 C 41.62 79.36 41.38 73.10 44.34 66.61 C 42.60 66.00 40.86 65.41 39.11 64.83 C 38.64 63.90 38.14 62.98 37.63 62.06 Z" fill="#9e819c" />
<path d="M 87.34 64.24 C 88.00 63.96 88.65 63.67 89.29 63.37 C 89.42 65.08 89.66 66.78 89.81 68.49 C 88.44 67.22 87.02 66.01 85.60 64.80 C 86.19 64.63 86.77 64.45 87.34 64.24 Z" fill="#8e8a91" />
<path d="M 160.75 64.04 C 159.13 65.73 157.54 66.80 155.41 67.76 C 155.42 66.66 155.44 65.56 155.47 64.45 C 157.23 64.35 158.99 64.23 160.75 64.04 Z" fill="#bebec5" />
<path d="M 164.20 63.49 C 167.09 63.34 169.99 63.21 172.88 63.08 C 174.35 63.84 175.77 64.66 177.19 65.50 C 174.46 65.61 171.74 65.67 169.01 65.60 C 167.66 65.54 166.31 65.46 164.97 65.41 C 164.46 64.81 163.94 64.20 163.43 63.60 L 164.20 63.49 Z" fill="#d9c8ce" />
<path d="M 140.07 64.13 C 141.54 64.26 142.99 64.47 144.46 64.66 C 144.34 65.41 144.22 66.17 144.09 66.92 L 142.73 67.02 C 140.03 67.16 137.33 67.43 134.64 67.78 C 136.40 66.48 138.16 65.20 140.07 64.13 Z" fill="#f0ddda" />
<path d="M 32.99 65.37 C 35.46 65.94 37.89 66.66 40.34 67.33 C 39.94 66.49 39.53 65.66 39.11 64.83 C 40.86 65.41 42.60 66.00 44.34 66.61 C 41.38 73.10 41.62 79.36 40.21 86.43 C 36.58 83.56 32.72 80.20 31.36 75.60 C 30.30 71.95 31.38 68.64 32.99 65.37 Z" fill="#dad3d7" />
<path d="M 169.01 65.60 C 170.87 70.91 173.34 74.97 177.87 78.40 C 178.18 79.90 178.57 81.37 178.99 82.84 C 177.62 82.21 176.24 81.59 174.87 80.98 C 174.76 82.06 174.67 83.14 174.60 84.22 C 172.71 77.30 169.68 70.87 164.97 65.41 C 166.31 65.46 167.66 65.54 169.01 65.60 Z" fill="#51506c" />
<path d="M 78.68 66.05 C 80.33 67.82 82.12 69.44 83.76 71.21 C 84.55 72.43 85.32 73.66 86.13 74.87 C 84.59 73.59 82.99 72.39 81.33 71.27 C 80.65 72.85 80.04 74.46 79.43 76.07 C 79.15 76.81 78.89 77.55 78.65 78.29 C 78.20 77.52 77.74 76.76 77.26 76.00 C 73.02 82.10 69.92 88.98 66.31 95.46 C 65.31 93.68 64.33 91.88 63.34 90.10 C 65.65 88.83 69.34 87.94 70.15 85.17 C 71.65 81.16 72.62 76.96 74.05 72.92 C 72.70 74.33 71.41 75.75 70.00 77.10 C 71.24 73.59 72.29 70.01 73.49 66.48 C 75.22 66.34 76.95 66.19 78.68 66.05 Z" fill="#9b7a86" />
<path d="M 142.73 67.02 C 144.21 67.54 145.66 68.12 147.08 68.78 C 149.25 70.05 151.50 71.40 152.09 74.04 C 152.44 76.10 152.25 78.27 152.27 80.35 C 149.12 78.05 146.28 75.11 142.87 73.21 C 139.26 71.72 134.65 72.22 130.82 72.37 C 131.70 71.33 132.32 70.14 132.96 68.95 C 133.52 68.56 134.08 68.17 134.64 67.78 C 137.33 67.43 140.03 67.16 142.73 67.02 Z" fill="#c06166" />
<path d="M 132.96 68.95 C 132.32 70.14 131.70 71.33 130.82 72.37 L 130.12 72.54 C 128.17 70.17 131.27 69.54 132.96 68.95 Z" fill="#3a251e" />
<path d="M 124.21 70.29 C 125.19 71.53 126.08 72.80 126.99 74.09 C 122.38 75.32 117.90 77.36 113.57 79.34 C 114.99 77.28 116.73 75.62 118.78 74.19 C 120.60 72.90 122.39 71.58 124.21 70.29 Z" fill="#413742" />
<path d="M 81.33 71.27 C 82.99 72.39 84.59 73.59 86.13 74.87 C 87.43 76.71 88.67 78.60 89.92 80.47 C 91.32 80.42 92.80 80.41 94.18 80.15 C 95.67 78.81 96.48 76.64 97.43 74.91 L 98.20 75.10 C 100.22 75.55 102.25 75.91 104.28 76.31 C 103.46 78.28 101.23 80.69 103.44 82.52 C 105.25 84.69 107.09 82.98 109.20 82.30 C 110.66 81.31 112.06 80.26 113.57 79.34 C 117.90 77.36 122.38 75.32 126.99 74.09 C 128.39 74.25 129.78 74.44 131.16 74.68 L 131.79 76.72 C 129.86 77.45 127.90 78.12 125.98 78.88 L 125.18 79.22 C 124.73 81.47 124.82 83.90 125.04 86.17 C 124.52 83.69 123.84 81.26 123.01 78.87 C 122.35 80.53 121.71 82.20 121.16 83.89 C 120.87 83.22 120.55 82.55 120.22 81.89 C 116.44 83.80 113.18 86.61 109.38 88.44 C 107.11 89.72 103.79 87.86 101.52 87.11 C 102.56 89.53 103.29 91.86 103.80 94.44 C 106.39 95.36 109.15 96.92 111.92 97.04 C 115.87 96.55 117.54 93.45 119.66 90.53 C 119.32 93.38 119.19 96.20 118.72 99.04 C 114.82 100.24 111.56 99.70 107.71 98.63 C 110.15 101.95 112.96 104.91 115.74 107.93 C 113.13 108.70 110.61 109.84 107.85 109.32 C 104.16 108.80 101.04 105.34 98.30 103.04 C 99.99 101.84 101.70 100.67 103.40 99.50 C 101.04 99.76 98.49 100.33 96.12 100.02 C 93.90 99.52 91.75 98.35 89.68 97.43 C 90.74 99.02 91.83 100.59 92.92 102.16 C 89.46 103.05 85.76 104.23 82.17 104.20 C 80.33 103.14 78.76 101.41 77.26 99.93 C 78.96 98.84 80.68 97.77 82.41 96.72 C 80.13 94.63 78.02 92.40 75.93 90.12 C 76.17 89.05 76.41 87.99 76.67 86.93 C 77.51 88.24 78.36 89.56 79.22 90.86 C 79.79 90.74 80.37 90.61 80.95 90.48 L 82.67 90.08 C 82.55 90.78 82.43 91.48 82.31 92.19 C 84.24 91.76 86.38 91.53 88.18 90.67 C 90.06 89.45 91.71 87.86 93.44 86.44 C 87.41 84.65 83.35 80.79 79.43 76.07 C 80.04 74.46 80.65 72.85 81.33 71.27 Z" fill="#987b98" />
<path d="M 118.61 72.63 L 118.78 74.19 C 116.73 75.62 114.99 77.28 113.57 79.34 C 112.06 80.26 110.66 81.31 109.20 82.30 C 107.89 81.86 106.50 81.46 105.26 80.83 C 104.88 79.21 104.89 77.46 104.77 75.80 C 105.79 74.76 106.84 73.74 107.82 72.65 C 110.12 73.41 112.42 74.17 114.71 74.93 C 116.01 74.17 117.32 73.41 118.61 72.63 Z" fill="#5f5754" />
<path d="M 47.86 72.77 C 50.26 75.73 52.14 79.00 53.94 82.35 C 56.29 80.45 58.70 78.68 61.20 76.98 C 61.94 77.11 62.67 77.24 63.41 77.37 C 66.19 78.34 67.58 79.71 70.00 77.10 C 71.41 75.75 72.70 74.33 74.05 72.92 C 72.62 76.96 71.65 81.16 70.15 85.17 C 69.34 87.94 65.65 88.83 63.34 90.10 C 64.33 91.88 65.31 93.68 66.31 95.46 C 64.55 100.09 63.31 104.60 64.27 109.60 C 65.99 112.42 68.08 114.15 71.26 114.97 C 71.42 115.48 71.57 115.98 71.72 116.48 C 68.79 118.21 66.84 119.53 65.72 122.92 C 65.10 123.26 64.48 123.60 63.86 123.95 C 63.61 122.84 63.36 121.74 63.12 120.64 C 61.91 120.36 60.70 120.08 59.49 119.81 C 60.27 119.12 61.04 118.42 61.82 117.72 C 61.82 114.60 61.81 111.48 61.79 108.35 C 60.78 108.90 59.77 109.44 58.76 109.98 C 53.42 107.79 48.42 108.35 42.89 109.36 C 43.50 113.11 44.48 116.67 45.77 120.24 C 47.57 125.23 47.53 130.06 50.89 134.45 C 48.74 136.23 46.84 138.27 45.16 140.49 C 42.58 141.13 40.31 141.09 39.53 144.15 C 39.52 146.90 42.02 149.77 43.25 152.16 L 43.21 153.72 C 41.05 154.19 38.88 154.59 36.72 155.02 C 33.98 151.30 31.87 147.09 29.84 142.95 C 30.94 142.76 32.05 142.56 33.15 142.37 C 31.16 135.63 27.16 130.51 26.31 123.60 C 29.73 129.59 33.32 135.50 37.05 141.30 C 38.13 141.19 39.20 141.08 40.28 140.96 C 40.73 137.44 40.54 134.71 39.55 131.29 C 40.26 130.24 40.99 129.20 41.71 128.16 C 38.30 126.51 36.19 125.76 32.46 126.97 C 32.42 125.64 33.53 123.73 32.26 122.74 C 30.43 121.25 27.88 120.51 25.72 119.63 L 25.51 117.70 C 26.53 114.83 27.33 111.94 27.84 108.93 C 28.39 104.43 31.65 100.28 35.26 97.72 C 36.00 97.53 36.75 97.35 37.49 97.17 C 37.79 96.42 38.10 95.68 38.40 94.93 C 39.04 93.39 39.67 91.84 40.23 90.26 C 41.11 89.16 42.03 88.11 42.94 87.04 C 42.16 86.58 41.37 86.11 40.59 85.64 C 41.38 85.40 42.17 85.17 42.96 84.93 C 44.33 85.85 45.69 86.91 47.19 87.60 C 48.79 87.35 50.37 86.75 51.91 86.23 C 51.00 83.34 50.05 80.47 49.13 77.59 C 48.65 75.99 48.23 74.39 47.86 72.77 Z" fill="#20233f" />
<path d="M 134.98 72.96 C 138.83 74.94 142.12 77.95 145.87 80.13 C 141.52 79.47 136.94 79.38 132.54 79.34 C 132.29 78.47 132.04 77.60 131.79 76.72 L 131.16 74.68 C 132.40 74.07 133.67 73.40 134.98 72.96 Z" fill="#bd646a" />
<path d="M 77.26 76.00 C 77.74 76.76 78.20 77.52 78.65 78.29 C 78.09 81.20 77.38 84.06 76.67 86.93 C 76.41 87.99 76.17 89.05 75.93 90.12 C 74.87 95.94 73.63 102.09 73.88 108.02 C 73.94 110.92 75.98 112.32 77.68 114.38 C 79.73 112.42 81.81 109.99 84.35 108.66 C 85.72 108.52 87.14 108.66 88.52 108.72 C 88.98 109.89 89.46 111.07 89.94 112.24 C 88.04 114.01 86.24 115.89 84.48 117.80 C 82.04 120.42 82.00 124.97 81.74 128.37 C 81.13 128.97 80.52 129.57 79.93 130.19 C 78.70 125.75 77.66 121.29 76.17 116.93 C 75.35 118.44 74.55 119.96 73.81 121.51 L 73.27 122.65 C 72.81 120.58 72.31 118.52 71.72 116.48 C 71.57 115.98 71.42 115.48 71.26 114.97 C 68.08 114.15 65.99 112.42 64.27 109.60 C 63.31 104.60 64.55 100.09 66.31 95.46 C 69.92 88.98 73.02 82.10 77.26 76.00 Z" fill="#ddbb6a" />
<path d="M 79.43 76.07 C 83.35 80.79 87.41 84.65 93.44 86.44 C 91.71 87.86 90.06 89.45 88.18 90.67 C 86.38 91.53 84.24 91.76 82.31 92.19 C 82.43 91.48 82.55 90.78 82.67 90.08 C 84.27 89.69 85.86 89.24 87.44 88.78 C 85.00 86.44 83.14 85.41 79.85 84.50 C 80.18 86.50 80.52 88.50 80.95 90.48 C 80.37 90.61 79.79 90.74 79.22 90.86 C 78.36 89.56 77.51 88.24 76.67 86.93 C 77.38 84.06 78.09 81.20 78.65 78.29 C 78.89 77.55 79.15 76.81 79.43 76.07 Z" fill="#1e213e" />
<path d="M 104.28 76.31 L 104.77 75.80 C 104.89 77.46 104.88 79.21 105.26 80.83 C 106.50 81.46 107.89 81.86 109.20 82.30 C 107.09 82.98 105.25 84.69 103.44 82.52 C 101.23 80.69 103.46 78.28 104.28 76.31 Z" fill="#292432" />
<path d="M 131.79 76.72 C 132.04 77.60 132.29 78.47 132.54 79.34 C 136.94 79.38 141.52 79.47 145.87 80.13 C 150.17 82.18 156.62 82.20 159.43 86.16 C 157.60 85.96 155.81 85.69 154.07 85.05 C 148.52 82.52 143.69 80.52 137.61 82.98 C 136.30 83.44 135.01 83.95 133.73 84.47 C 135.75 86.34 137.90 88.08 140.00 89.85 C 135.55 89.18 132.63 87.91 128.96 85.27 C 130.25 83.78 131.56 82.28 132.85 80.79 C 130.58 80.10 128.29 79.40 125.98 78.88 C 127.90 78.12 129.86 77.45 131.79 76.72 Z" fill="#5b4f6e" />
<path d="M 49.13 77.59 C 50.05 80.47 51.00 83.34 51.91 86.23 C 50.37 86.75 48.79 87.35 47.19 87.60 C 45.69 86.91 44.33 85.85 42.96 84.93 C 44.75 82.23 46.71 79.74 49.13 77.59 Z" fill="#534256" />
<path d="M 123.01 78.87 C 123.84 81.26 124.52 83.69 125.04 86.17 C 126.40 97.54 124.17 110.22 122.29 121.40 C 121.17 122.64 120.16 123.96 119.23 125.35 C 117.49 125.74 115.72 126.16 113.96 126.44 C 115.86 123.84 116.66 122.04 116.91 118.85 C 114.84 121.20 112.81 123.58 110.70 125.89 C 109.86 125.71 109.03 125.55 108.20 125.38 L 106.35 125.01 C 104.55 126.30 103.07 127.75 101.71 129.49 C 100.27 131.20 99.01 133.11 97.66 134.91 L 95.83 135.07 L 96.59 133.11 C 97.18 131.49 97.76 129.86 98.35 128.23 C 100.34 123.51 100.90 119.11 100.81 114.03 C 100.79 113.36 100.76 112.69 100.73 112.03 C 101.76 111.89 102.79 111.75 103.82 111.61 C 104.79 112.79 105.76 113.95 106.71 115.15 C 108.24 117.10 109.70 119.10 111.16 121.12 C 112.73 119.15 114.08 117.04 115.00 114.68 C 115.19 113.58 115.37 112.47 115.53 111.36 C 114.69 111.43 113.86 111.51 113.03 111.59 C 114.33 110.48 116.14 109.46 116.66 107.78 C 117.61 104.95 118.08 101.95 118.72 99.04 C 119.19 96.20 119.32 93.38 119.66 90.53 C 120.09 88.30 120.55 86.08 121.16 83.89 C 121.71 82.20 122.35 80.53 123.01 78.87 Z" fill="#ddbb6b" />
<path d="M 125.18 79.22 L 125.98 78.88 C 128.29 79.40 130.58 80.10 132.85 80.79 C 131.56 82.28 130.25 83.78 128.96 85.27 C 132.63 87.91 135.55 89.18 140.00 89.85 C 137.90 88.08 135.75 86.34 133.73 84.47 C 135.01 83.95 136.30 83.44 137.61 82.98 C 139.77 85.77 141.99 88.49 144.45 91.01 C 147.29 89.79 150.19 88.85 153.17 88.03 L 152.58 88.28 C 149.49 90.01 145.72 90.50 145.05 94.52 C 144.50 96.02 143.90 97.49 143.26 98.95 C 142.14 99.26 141.03 99.59 139.94 99.96 C 137.91 101.63 135.92 103.36 133.89 105.03 C 132.72 103.28 131.55 101.54 130.34 99.82 C 130.33 101.74 130.06 103.85 130.50 105.73 C 131.61 107.24 133.38 108.47 134.13 110.18 C 134.51 111.82 134.52 113.56 134.61 115.23 C 131.02 116.97 129.95 119.03 128.49 122.66 L 128.09 122.11 C 127.89 121.01 127.69 119.90 127.49 118.79 C 126.89 119.08 126.30 119.37 125.70 119.67 C 124.56 120.23 123.42 120.81 122.29 121.40 C 124.17 110.22 126.40 97.54 125.04 86.17 C 124.82 83.90 124.73 81.47 125.18 79.22 Z" fill="#20233f" />
<path d="M 174.87 80.98 C 176.24 81.59 177.62 82.21 178.99 82.84 C 179.88 86.32 181.62 90.16 181.55 93.75 C 179.40 99.78 176.64 105.78 172.90 110.99 C 171.81 112.27 170.71 113.56 169.63 114.85 C 169.28 114.16 168.93 113.47 168.59 112.78 C 171.54 108.47 174.43 103.89 176.32 99.01 C 177.24 93.74 175.73 89.29 174.60 84.22 C 174.67 83.14 174.76 82.06 174.87 80.98 Z" fill="#1f233d" />
<path d="M 120.22 81.89 C 120.55 82.55 120.87 83.22 121.16 83.89 C 120.55 86.08 120.09 88.30 119.66 90.53 C 117.54 93.45 115.87 96.55 111.92 97.04 C 109.15 96.92 106.39 95.36 103.80 94.44 C 103.29 91.86 102.56 89.53 101.52 87.11 C 103.79 87.86 107.11 89.72 109.38 88.44 C 113.18 86.61 116.44 83.80 120.22 81.89 Z" fill="#1d213c" />
<path d="M 154.07 85.05 C 153.50 85.55 152.93 86.05 152.36 86.55 C 153.23 86.83 154.11 87.11 154.98 87.38 C 154.38 87.60 153.77 87.82 153.17 88.03 C 150.19 88.85 147.29 89.79 144.45 91.01 C 141.99 88.49 139.77 85.77 137.61 82.98 C 143.69 80.52 148.52 82.52 154.07 85.05 Z" fill="#967995" />
<path d="M 214.93 84.14 L 216.64 84.05 C 220.25 86.87 223.27 90.47 226.47 93.73 C 224.23 92.88 221.94 92.14 219.70 91.28 C 218.90 90.31 218.09 89.35 217.32 88.36 C 216.44 87.00 215.66 85.58 214.93 84.14 Z" fill="#5f5c68" />
<path d="M 79.85 84.50 C 83.14 85.41 85.00 86.44 87.44 88.78 C 85.86 89.24 84.27 89.69 82.67 90.08 L 80.95 90.48 C 80.52 88.50 80.18 86.50 79.85 84.50 Z" fill="#9ed8e6" />
<path d="M 202.32 87.21 C 207.34 87.23 212.30 88.24 217.32 88.36 C 218.09 89.35 218.90 90.31 219.70 91.28 C 222.38 95.69 225.18 99.59 225.65 104.91 C 222.48 103.52 219.36 102.06 216.09 100.93 C 214.30 100.21 212.54 99.44 210.73 98.77 C 210.70 99.58 210.68 100.40 210.66 101.22 C 207.36 101.55 203.41 101.83 200.50 103.57 C 199.82 104.85 199.56 106.33 199.29 107.75 C 198.35 107.73 197.42 107.71 196.48 107.69 C 194.47 109.97 192.22 113.26 189.29 114.33 C 185.68 114.77 181.80 112.43 178.15 112.27 C 176.26 112.73 174.47 113.96 172.81 114.97 C 172.30 115.29 171.78 115.62 171.27 115.95 L 170.08 115.74 L 169.63 114.85 C 170.71 113.56 171.81 112.27 172.90 110.99 C 176.52 108.67 179.90 106.54 184.37 106.60 C 188.67 106.54 191.29 105.31 194.03 102.01 C 196.89 99.21 194.42 93.98 195.03 90.31 C 196.33 87.96 199.84 87.21 202.32 87.21 Z" fill="#dbba6e" />
<path d="M 152.58 88.28 C 154.24 90.34 156.73 92.49 157.54 95.06 C 158.13 98.90 157.54 103.00 157.14 106.83 C 156.44 111.34 156.31 115.73 157.28 120.22 C 157.91 122.62 158.00 126.22 160.30 127.64 C 163.81 130.24 167.67 131.75 170.80 134.98 C 169.35 135.04 168.38 135.51 167.88 136.39 C 168.23 137.48 170.64 137.55 171.54 137.24 C 168.20 137.90 164.05 137.53 160.54 138.19 L 159.98 138.20 C 156.85 137.13 153.90 135.85 152.02 132.99 C 149.32 128.93 148.85 123.56 147.71 118.91 C 146.72 115.99 145.39 113.14 144.17 110.30 C 145.28 110.47 146.38 110.64 147.49 110.82 C 146.10 108.26 144.80 105.66 143.63 103.00 C 144.88 100.28 145.08 97.46 145.05 94.52 C 145.72 90.50 149.49 90.01 152.58 88.28 Z" fill="#cb8071" />
<path d="M 75.93 90.12 C 78.02 92.40 80.13 94.63 82.41 96.72 C 80.68 97.77 78.96 98.84 77.26 99.93 C 78.76 101.41 80.33 103.14 82.17 104.20 C 85.76 104.23 89.46 103.05 92.92 102.16 C 91.83 100.59 90.74 99.02 89.68 97.43 C 91.75 98.35 93.90 99.52 96.12 100.02 C 98.49 100.33 101.04 99.76 103.40 99.50 C 101.70 100.67 99.99 101.84 98.30 103.04 C 101.04 105.34 104.16 108.80 107.85 109.32 C 110.61 109.84 113.13 108.70 115.74 107.93 C 112.96 104.91 110.15 101.95 107.71 98.63 C 111.56 99.70 114.82 100.24 118.72 99.04 C 118.08 101.95 117.61 104.95 116.66 107.78 C 116.14 109.46 114.33 110.48 113.03 111.59 C 113.86 111.51 114.69 111.43 115.53 111.36 C 115.37 112.47 115.19 113.58 115.00 114.68 C 112.22 114.72 109.47 114.88 106.71 115.15 C 105.76 113.95 104.79 112.79 103.82 111.61 C 102.79 111.75 101.76 111.89 100.73 112.03 C 97.11 108.70 93.14 109.02 88.52 108.72 C 87.14 108.66 85.72 108.52 84.35 108.66 C 81.81 109.99 79.73 112.42 77.68 114.38 C 75.98 112.32 73.94 110.92 73.88 108.02 C 73.63 102.09 74.87 95.94 75.93 90.12 Z" fill="#20233f" />
<path d="M 115.80 91.85 C 114.25 93.40 112.67 94.91 111.03 96.37 C 109.76 95.25 108.49 94.12 107.24 92.96 C 110.49 91.10 112.20 91.17 115.80 91.85 Z" fill="#a3dfeb" />
<path d="M 219.70 91.28 C 221.94 92.14 224.23 92.88 226.47 93.73 C 230.91 97.96 230.48 106.46 232.14 112.07 C 231.00 109.21 229.18 106.84 227.25 104.47 C 227.06 106.34 226.88 108.18 226.78 110.05 C 226.29 108.36 225.94 106.64 225.65 104.91 C 225.18 99.59 222.38 95.69 219.70 91.28 Z" fill="#7e7d96" />
<path d="M 38.40 94.93 C 38.10 95.68 37.79 96.42 37.49 97.17 C 36.75 97.35 36.00 97.53 35.26 97.72 C 29.91 98.50 26.92 105.05 22.75 108.26 C 25.39 101.97 31.14 95.38 38.40 94.93 Z" fill="#bc9288" />
<path d="M 145.05 94.52 C 145.08 97.46 144.88 100.28 143.63 103.00 C 141.65 106.88 138.98 110.46 136.31 113.89 C 135.74 112.10 135.11 110.34 134.48 108.56 C 136.04 108.50 137.61 108.44 139.17 108.39 C 138.52 107.69 137.87 106.99 137.22 106.30 C 140.07 104.27 142.02 102.30 143.26 98.95 C 143.90 97.49 144.50 96.02 145.05 94.52 Z" fill="#6f4555" />
<path d="M 175.21 96.95 C 175.59 97.63 175.96 98.32 176.32 99.01 C 174.43 103.89 171.54 108.47 168.59 112.78 C 168.93 113.47 169.28 114.16 169.63 114.85 L 170.08 115.74 C 168.75 115.50 167.31 115.39 166.04 114.91 C 163.41 112.99 161.39 110.13 159.09 107.83 C 161.32 108.23 163.56 108.52 165.80 108.80 C 169.13 104.99 172.13 100.95 175.21 96.95 Z" fill="#d8cbc6" />
<path d="M 139.94 99.96 C 141.03 99.59 142.14 99.26 143.26 98.95 C 142.02 102.30 140.07 104.27 137.22 106.30 C 137.87 106.99 138.52 107.69 139.17 108.39 C 137.61 108.44 136.04 108.50 134.48 108.56 C 135.11 110.34 135.74 112.10 136.31 113.89 C 138.55 114.99 140.88 115.93 143.19 116.87 C 141.43 119.54 139.60 122.64 139.14 125.84 C 138.89 128.87 139.71 132.06 140.50 134.97 C 138.79 134.60 137.05 134.23 135.34 133.81 C 134.36 129.17 131.36 126.21 128.49 122.66 C 129.95 119.03 131.02 116.97 134.61 115.23 C 134.52 113.56 134.51 111.82 134.13 110.18 C 133.38 108.47 131.61 107.24 130.50 105.73 C 130.06 103.85 130.33 101.74 130.34 99.82 C 131.55 101.54 132.72 103.28 133.89 105.03 C 135.92 103.36 137.91 101.63 139.94 99.96 Z" fill="#483249" />
<path d="M 210.73 98.77 C 212.54 99.44 214.30 100.21 216.09 100.93 C 214.28 101.00 212.47 101.11 210.66 101.22 C 210.68 100.40 210.70 99.58 210.73 98.77 Z" fill="#a48b54" />
<path d="M 143.63 103.00 C 144.80 105.66 146.10 108.26 147.49 110.82 C 146.38 110.64 145.28 110.47 144.17 110.30 C 145.39 113.14 146.72 115.99 147.71 118.91 C 146.23 118.18 144.73 117.49 143.19 116.87 C 140.88 115.93 138.55 114.99 136.31 113.89 C 138.98 110.46 141.65 106.88 143.63 103.00 Z" fill="#c15e68" />
<path d="M 227.25 104.47 C 229.18 106.84 231.00 109.21 232.14 112.07 C 233.26 116.13 234.62 120.11 235.73 124.17 C 231.87 120.01 228.58 115.49 226.78 110.05 C 226.88 108.18 227.06 106.34 227.25 104.47 Z" fill="#4d4969" />
<path d="M 157.14 106.83 C 157.80 107.16 158.44 107.50 159.09 107.83 C 161.39 110.13 163.41 112.99 166.04 114.91 C 167.31 115.39 168.75 115.50 170.08 115.74 L 171.27 115.95 C 167.50 118.28 164.20 120.86 161.01 123.93 C 159.72 122.74 158.48 121.50 157.28 120.22 C 156.31 115.73 156.44 111.34 157.14 106.83 Z" fill="#cbb4b0" />
<path d="M 199.29 107.75 C 198.67 110.10 199.00 113.40 196.67 114.73 C 191.63 118.49 186.26 116.56 180.47 116.76 C 177.56 116.88 175.42 116.26 172.81 114.97 C 174.47 113.96 176.26 112.73 178.15 112.27 C 181.80 112.43 185.68 114.77 189.29 114.33 C 192.22 113.26 194.47 109.97 196.48 107.69 C 197.42 107.71 198.35 107.73 199.29 107.75 Z" fill="#cdb6b5" />
<path d="M 58.76 109.98 C 59.77 109.44 60.78 108.90 61.79 108.35 C 61.81 111.48 61.82 114.60 61.82 117.72 C 61.04 118.42 60.27 119.12 59.49 119.81 C 60.70 120.08 61.91 120.36 63.12 120.64 C 63.36 121.74 63.61 122.84 63.86 123.95 C 64.48 123.60 65.10 123.26 65.72 122.92 C 65.00 124.29 64.74 125.63 63.17 126.24 C 59.85 127.58 57.39 128.99 54.74 131.44 C 53.48 132.47 52.17 133.44 50.89 134.45 C 47.53 130.06 47.57 125.23 45.77 120.24 C 44.48 116.67 43.50 113.11 42.89 109.36 C 48.42 108.35 53.42 107.79 58.76 109.98 Z" fill="#362c45" />
<path d="M 88.52 108.72 C 93.14 109.02 97.11 108.70 100.73 112.03 C 100.76 112.69 100.79 113.36 100.81 114.03 C 97.24 112.96 93.71 112.06 89.94 112.24 C 89.46 111.07 88.98 109.89 88.52 108.72 Z" fill="#fcf8fc" />
<path d="M 22.28 110.58 C 22.06 114.87 21.69 118.96 23.15 123.11 C 25.04 129.82 27.59 136.36 29.84 142.95 C 31.87 147.09 33.98 151.30 36.72 155.02 C 38.28 156.63 39.95 158.09 41.56 159.63 C 41.14 161.02 40.72 162.40 40.31 163.79 C 38.74 162.67 37.17 161.55 35.65 160.36 C 32.88 157.07 31.34 153.42 29.20 149.72 C 27.38 146.47 25.25 143.29 24.37 139.62 C 23.37 135.31 23.44 130.80 22.42 126.47 C 21.73 123.33 20.41 119.91 20.48 116.69 C 20.52 114.61 21.50 112.47 22.28 110.58 Z" fill="#c98073" />
<path d="M 89.94 112.24 C 93.71 112.06 97.24 112.96 100.81 114.03 C 100.90 119.11 100.34 123.51 98.35 128.23 C 97.76 128.49 97.17 128.75 96.57 129.00 C 93.37 127.67 90.90 127.18 87.45 127.77 C 85.20 124.32 84.50 121.97 84.48 117.80 C 86.24 115.89 88.04 114.01 89.94 112.24 Z" fill="#c486a6" />
<path d="M 213.53 114.70 C 214.85 117.32 216.15 119.95 217.41 122.60 C 215.02 122.63 212.79 122.05 210.52 121.39 C 210.56 119.13 210.59 116.87 210.60 114.60 C 211.58 114.62 212.56 114.66 213.53 114.70 Z" fill="#dfcdcf" />
<path d="M 106.71 115.15 C 109.47 114.88 112.22 114.72 115.00 114.68 C 114.08 117.04 112.73 119.15 111.16 121.12 C 109.70 119.10 108.24 117.10 106.71 115.15 Z" fill="#a58b9f" />
<path d="M 206.40 115.05 C 207.66 114.51 209.24 114.64 210.60 114.60 C 210.59 116.87 210.56 119.13 210.52 121.39 C 212.79 122.05 215.02 122.63 217.41 122.60 C 219.61 122.58 222.10 122.16 224.23 122.76 C 227.79 124.01 230.54 127.08 231.50 130.71 C 232.20 133.32 232.71 135.98 233.30 138.61 C 232.05 136.71 230.80 134.42 229.04 132.94 C 226.72 131.01 223.78 130.10 220.98 129.10 C 218.78 130.91 216.56 133.32 213.89 134.39 C 210.73 134.76 207.25 131.98 205.04 129.94 C 202.85 128.00 202.41 125.51 201.76 122.79 C 204.83 126.21 207.77 129.62 211.61 132.22 C 208.71 128.58 206.26 124.87 204.71 120.44 C 203.86 120.39 203.02 120.34 202.17 120.29 C 203.54 118.52 204.82 116.63 206.40 115.05 Z" fill="#c0656b" />
<path d="M 71.72 116.48 C 72.31 118.52 72.81 120.58 73.27 122.65 L 73.81 121.51 C 76.80 125.71 78.70 129.19 78.82 134.45 C 77.63 135.20 76.45 135.96 75.26 136.71 C 72.95 132.71 73.14 128.60 72.90 124.15 C 70.05 127.25 67.68 130.70 65.39 134.22 L 65.00 134.80 C 64.17 132.45 64.19 129.22 61.02 128.96 C 58.85 129.18 56.73 130.56 54.74 131.44 C 57.39 128.99 59.85 127.58 63.17 126.24 C 64.74 125.63 65.00 124.29 65.72 122.92 C 66.84 119.53 68.79 118.21 71.72 116.48 Z" fill="#876777" />
<path d="M 143.19 116.87 C 144.73 117.49 146.23 118.18 147.71 118.91 C 148.85 123.56 149.32 128.93 152.02 132.99 C 153.90 135.85 156.85 137.13 159.98 138.20 C 158.51 139.10 157.07 140.03 155.56 140.87 C 151.40 140.67 147.50 139.66 143.35 139.33 C 142.38 137.90 141.39 136.46 140.50 134.97 C 139.71 132.06 138.89 128.87 139.14 125.84 C 139.60 122.64 141.43 119.54 143.19 116.87 Z" fill="#21233e" />
<path d="M 25.51 117.70 L 25.72 119.63 C 25.88 120.96 26.08 122.28 26.31 123.60 C 27.16 130.51 31.16 135.63 33.15 142.37 C 32.05 142.56 30.94 142.76 29.84 142.95 C 27.59 136.36 25.04 129.82 23.15 123.11 C 23.88 121.28 24.70 119.50 25.51 117.70 Z" fill="#744253" />
<path d="M 76.17 116.93 C 77.66 121.29 78.70 125.75 79.93 130.19 C 84.07 133.80 90.48 135.09 95.83 135.07 L 97.66 134.91 C 99.65 134.75 101.64 134.63 103.63 134.57 L 104.04 136.58 C 100.31 139.45 96.52 138.50 92.13 138.98 C 91.69 142.76 90.46 145.24 88.21 148.25 C 87.11 148.39 86.01 148.55 84.91 148.71 C 82.76 149.05 80.61 149.40 78.49 149.86 C 76.94 150.73 75.02 151.65 74.35 153.42 C 72.75 157.28 73.39 161.49 73.84 165.52 C 74.84 165.59 75.84 165.66 76.84 165.74 C 76.47 164.26 76.10 162.77 75.74 161.29 C 77.18 160.72 78.61 160.14 80.05 159.57 C 81.63 161.40 83.21 163.51 85.18 164.91 C 87.02 165.82 89.35 165.85 91.36 166.16 C 91.99 163.78 92.64 161.41 93.31 159.04 C 95.14 160.83 96.98 162.62 98.85 164.38 C 99.63 164.52 100.40 164.67 101.18 164.81 C 104.28 165.41 107.63 166.00 110.54 167.25 C 113.18 168.46 115.54 170.42 117.71 172.33 C 119.36 175.85 120.67 179.66 122.66 182.99 C 125.63 183.98 128.68 184.67 131.63 185.73 C 127.84 186.79 124.01 187.04 120.10 186.72 C 121.66 188.24 123.22 189.75 124.77 191.28 C 124.26 192.21 123.75 193.15 123.25 194.09 C 120.81 194.55 118.45 195.26 116.08 195.97 C 115.36 196.17 114.63 196.36 113.91 196.56 C 112.63 196.88 111.34 197.18 110.03 197.42 C 104.66 197.40 99.30 197.28 93.93 197.33 C 92.56 195.99 91.04 194.83 89.42 193.80 C 90.76 192.87 92.12 191.95 93.43 190.98 C 93.96 189.99 94.46 189.02 94.77 187.93 C 94.36 185.56 92.47 183.33 90.91 181.56 C 88.93 182.67 87.04 183.96 85.11 185.16 C 82.24 184.89 80.94 185.03 78.52 186.72 C 76.29 185.10 73.79 184.82 71.36 183.67 C 69.85 182.60 68.68 180.98 67.43 179.62 C 68.56 175.17 65.67 173.01 64.02 169.27 C 67.39 163.42 67.39 157.26 69.02 150.92 L 69.47 150.28 C 72.89 146.31 74.32 141.78 75.26 136.71 C 76.45 135.96 77.63 135.20 78.82 134.45 C 78.70 129.19 76.80 125.71 73.81 121.51 C 74.55 119.96 75.35 118.44 76.17 116.93 Z" fill="#20233f" />
<path d="M 84.48 117.80 C 84.50 121.97 85.20 124.32 87.45 127.77 C 90.22 129.54 93.46 130.62 96.57 129.00 C 97.17 128.75 97.76 128.49 98.35 128.23 C 97.76 129.86 97.18 131.49 96.59 133.11 C 91.39 132.00 86.53 130.73 81.74 128.37 C 82.00 124.97 82.04 120.42 84.48 117.80 Z" fill="#231f40" />
<path d="M 116.91 118.85 C 116.66 122.04 115.86 123.84 113.96 126.44 C 112.87 126.29 111.78 126.10 110.70 125.89 C 112.81 123.58 114.84 121.20 116.91 118.85 Z" fill="#94714b" />
<path d="M 127.49 118.79 C 127.69 119.90 127.89 121.01 128.09 122.11 C 128.39 125.74 127.78 130.26 129.36 133.60 C 131.08 137.05 135.25 137.94 138.65 138.84 L 137.87 139.12 C 136.51 139.60 135.15 140.10 133.80 140.61 C 136.87 145.12 137.83 147.97 137.91 153.43 C 135.42 153.46 134.74 154.01 133.13 155.77 C 127.52 144.10 127.23 132.25 125.70 119.67 C 126.30 119.37 126.89 119.08 127.49 118.79 Z" fill="#c7726a" />
<path d="M 25.72 119.63 C 27.88 120.51 30.43 121.25 32.26 122.74 C 33.53 123.73 32.42 125.64 32.46 126.97 C 36.19 125.76 38.30 126.51 41.71 128.16 C 40.99 129.20 40.26 130.24 39.55 131.29 C 40.54 134.71 40.73 137.44 40.28 140.96 C 39.20 141.08 38.13 141.19 37.05 141.30 C 33.32 135.50 29.73 129.59 26.31 123.60 C 26.08 122.28 25.88 120.96 25.72 119.63 Z" fill="#3a354e" />
<path d="M 125.70 119.67 C 127.23 132.25 127.52 144.10 133.13 155.77 C 134.42 158.71 135.17 161.59 135.57 164.77 C 130.81 163.62 128.32 161.40 125.47 157.54 C 126.77 157.92 128.06 158.31 129.35 158.70 C 126.46 154.25 123.20 149.94 120.75 145.24 C 118.46 140.81 117.49 136.25 116.26 131.45 C 117.29 129.43 118.18 127.36 119.23 125.35 C 120.16 123.96 121.17 122.64 122.29 121.40 C 123.42 120.81 124.56 120.23 125.70 119.67 Z" fill="#d7a6a2" />
<path d="M 157.28 120.22 C 158.48 121.50 159.72 122.74 161.01 123.93 L 161.95 124.72 C 165.91 123.39 169.39 122.99 173.55 122.92 C 176.25 122.93 178.09 121.01 180.28 119.66 C 183.56 121.30 186.61 123.28 189.63 125.35 C 193.75 128.18 198.45 129.38 202.69 131.93 C 203.67 135.69 206.13 138.20 208.57 141.07 C 211.71 148.08 212.67 155.38 216.39 162.10 C 213.39 167.05 208.55 167.92 203.82 170.97 C 204.88 172.71 205.94 174.46 207.01 176.20 C 204.59 178.04 202.60 180.23 200.48 182.40 C 199.85 180.23 198.66 177.79 199.55 175.55 C 200.97 171.46 202.96 167.60 204.30 163.46 C 202.99 163.63 201.68 163.80 200.37 163.99 C 201.28 162.19 202.24 160.42 203.23 158.65 C 200.11 155.47 197.23 152.02 193.97 149.00 C 191.04 147.13 187.07 146.64 183.76 145.64 C 183.96 148.09 184.18 150.53 184.33 152.99 C 183.13 153.75 181.91 154.50 180.71 155.26 C 181.35 152.94 182.19 150.34 182.04 147.92 C 181.71 145.90 180.73 143.93 179.95 142.04 C 173.74 150.23 171.33 159.38 167.25 168.56 C 166.26 167.59 165.25 166.65 164.25 165.70 C 165.31 163.82 166.46 161.93 167.29 159.94 C 167.70 157.05 167.62 154.25 167.06 151.40 C 166.37 146.65 163.16 142.17 160.54 138.19 C 164.05 137.53 168.20 137.90 171.54 137.24 C 172.12 136.83 171.87 136.07 170.80 134.98 C 167.67 131.75 163.81 130.24 160.30 127.64 C 158.00 126.22 157.91 122.62 157.28 120.22 Z" fill="#d8a59f" />
<path d="M 207.01 119.93 C 208.92 122.60 210.36 125.48 211.50 128.55 C 208.66 125.82 207.70 123.82 207.01 119.93 Z" fill="#dc8e94" />
<path d="M 108.09 122.45 C 109.59 121.41 110.65 123.79 108.85 124.18 C 107.87 123.92 107.62 123.35 108.09 122.45 Z" fill="#7e6540" />
<path d="M 128.09 122.11 L 128.49 122.66 C 131.36 126.21 134.36 129.17 135.34 133.81 C 137.05 134.23 138.79 134.60 140.50 134.97 C 141.39 136.46 142.38 137.90 143.35 139.33 C 141.78 139.20 140.21 139.04 138.65 138.84 C 135.25 137.94 131.08 137.05 129.36 133.60 C 127.78 130.26 128.39 125.74 128.09 122.11 Z" fill="#624a5b" />
<path d="M 72.90 124.15 C 73.14 128.60 72.95 132.71 75.26 136.71 C 74.32 141.78 72.89 146.31 69.47 150.28 C 69.93 147.79 70.46 144.89 69.73 142.41 C 68.89 139.52 66.96 136.77 65.39 134.22 C 67.68 130.70 70.05 127.25 72.90 124.15 Z" fill="#73465a" />
<path d="M 106.35 125.01 L 108.20 125.38 C 106.81 126.43 105.49 127.51 104.03 128.45 C 103.26 128.80 102.48 129.15 101.71 129.49 C 103.07 127.75 104.55 126.30 106.35 125.01 Z" fill="#322222" />
<path d="M 108.20 125.38 C 109.03 125.55 109.86 125.71 110.70 125.89 C 111.78 126.10 112.87 126.29 113.96 126.44 C 115.72 126.16 117.49 125.74 119.23 125.35 C 118.18 127.36 117.29 129.43 116.26 131.45 C 111.99 136.66 106.84 141.63 100.98 144.99 C 96.91 147.24 92.73 147.63 88.21 148.25 C 90.46 145.24 91.69 142.76 92.13 138.98 C 96.52 138.50 100.31 139.45 104.04 136.58 L 103.63 134.57 C 103.62 132.52 103.81 130.48 104.03 128.45 C 105.49 127.51 106.81 126.43 108.20 125.38 Z" fill="#9a7793" />
<path d="M 96.57 129.00 C 93.46 130.62 90.22 129.54 87.45 127.77 C 90.90 127.18 93.37 127.67 96.57 129.00 Z" fill="#d7bfd3" />
<path d="M 81.74 128.37 C 86.53 130.73 91.39 132.00 96.59 133.11 L 95.83 135.07 C 90.48 135.09 84.07 133.80 79.93 130.19 C 80.52 129.57 81.13 128.97 81.74 128.37 Z" fill="#a48ba8" />
<path d="M 61.02 128.96 C 64.19 129.22 64.17 132.45 65.00 134.80 C 62.43 138.30 60.39 141.86 59.87 146.26 C 58.87 145.00 57.90 143.73 56.88 142.50 C 55.12 144.21 53.51 145.18 53.71 147.92 C 52.93 144.60 52.46 141.21 51.68 137.89 C 52.96 135.86 53.91 133.68 54.74 131.44 C 56.73 130.56 58.85 129.18 61.02 128.96 Z" fill="#dba8a8" />
<path d="M 101.71 129.49 C 102.48 129.15 103.26 128.80 104.03 128.45 C 103.81 130.48 103.62 132.52 103.63 134.57 C 101.64 134.63 99.65 134.75 97.66 134.91 C 99.01 133.11 100.27 131.20 101.71 129.49 Z" fill="#937d8d" />
<path d="M 54.74 131.44 C 53.91 133.68 52.96 135.86 51.68 137.89 C 50.20 140.21 48.80 142.56 47.85 145.16 C 46.89 143.91 45.94 142.65 45.02 141.37 L 45.16 140.49 C 46.84 138.27 48.74 136.23 50.89 134.45 C 52.17 133.44 53.48 132.47 54.74 131.44 Z" fill="#ba5d61" />
<path d="M 116.26 131.45 C 117.49 136.25 118.46 140.81 120.75 145.24 C 123.20 149.94 126.46 154.25 129.35 158.70 C 128.06 158.31 126.77 157.92 125.47 157.54 C 128.32 161.40 130.81 163.62 135.57 164.77 C 136.01 167.59 136.42 170.41 136.71 173.25 C 136.79 174.21 136.90 175.17 137.02 176.12 C 136.07 175.30 135.09 174.51 134.08 173.77 C 130.49 171.18 127.06 168.75 122.54 168.18 C 119.26 167.79 116.72 166.30 114.09 164.38 C 115.36 167.01 116.56 169.65 117.71 172.33 C 115.54 170.42 113.18 168.46 110.54 167.25 C 107.63 166.00 104.28 165.41 101.18 164.81 C 98.58 161.65 96.23 159.91 92.52 158.18 C 89.84 156.98 88.66 154.71 87.15 152.35 C 86.40 151.14 85.66 149.92 84.91 148.71 C 86.01 148.55 87.11 148.39 88.21 148.25 C 92.73 147.63 96.91 147.24 100.98 144.99 C 106.84 141.63 111.99 136.66 116.26 131.45 Z" fill="#c16066" />
<path d="M 202.69 131.93 C 205.23 133.55 207.25 135.60 209.55 137.51 L 209.06 139.27 L 208.57 141.07 C 206.13 138.20 203.67 135.69 202.69 131.93 Z" fill="#6e5358" />
<path d="M 57.81 133.96 C 58.70 134.34 59.58 134.74 60.46 135.17 C 59.76 137.72 58.81 140.21 57.82 142.67 C 56.85 139.57 56.40 137.01 57.81 133.96 Z" fill="#503845" />
<path d="M 65.00 134.80 L 65.39 134.22 C 66.96 136.77 68.89 139.52 69.73 142.41 C 70.46 144.89 69.93 147.79 69.47 150.28 L 69.02 150.92 C 64.70 154.85 63.11 157.61 61.99 163.42 C 61.15 162.07 60.23 160.77 59.32 159.46 L 58.62 158.40 C 59.59 155.51 60.06 153.32 59.40 150.31 C 59.54 148.96 59.68 147.61 59.87 146.26 C 60.39 141.86 62.43 138.30 65.00 134.80 Z" fill="#c16166" />
<path d="M 170.80 134.98 C 171.87 136.07 172.12 136.83 171.54 137.24 C 170.64 137.55 168.23 137.48 167.88 136.39 C 168.38 135.51 169.35 135.04 170.80 134.98 Z" fill="#421e27" />
<path d="M 159.98 138.20 L 160.54 138.19 C 163.16 142.17 166.37 146.65 167.06 151.40 C 167.62 154.25 167.70 157.05 167.29 159.94 C 167.98 152.37 162.58 149.29 158.19 144.34 C 158.02 143.36 157.57 142.63 156.86 142.14 C 156.97 141.19 156.54 140.77 155.56 140.87 C 157.07 140.03 158.51 139.10 159.98 138.20 Z" fill="#b17d8a" />
<path d="M 209.55 137.51 C 212.25 139.61 214.85 141.31 216.58 144.37 C 219.59 149.44 220.53 154.59 225.64 158.15 C 225.46 158.72 225.27 159.29 225.09 159.86 C 223.24 160.29 221.41 160.82 219.58 161.33 C 217.17 156.80 216.23 151.96 215.15 147.00 C 214.49 147.09 213.82 147.18 213.16 147.27 C 211.90 144.54 210.47 141.91 209.06 139.27 L 209.55 137.51 Z" fill="#8c8c98" />
<path d="M 137.87 139.12 C 136.98 146.22 143.72 148.72 145.40 156.15 C 145.59 157.48 145.74 158.81 145.89 160.14 C 143.49 157.59 140.84 155.38 137.91 153.43 C 137.83 147.97 136.87 145.12 133.80 140.61 C 135.15 140.10 136.51 139.60 137.87 139.12 Z" fill="#dea98c" />
<path d="M 137.87 139.12 L 138.65 138.84 C 140.21 139.04 141.78 139.20 143.35 139.33 C 147.50 139.66 151.40 140.67 155.56 140.87 C 156.54 140.77 156.97 141.19 156.86 142.14 C 153.15 143.62 152.39 146.62 150.65 149.82 C 149.41 152.37 147.47 154.26 145.40 156.15 C 143.72 148.72 136.98 146.22 137.87 139.12 Z" fill="#cbb8c8" />
<path d="M 45.16 140.49 L 45.02 141.37 C 44.45 144.97 43.81 148.56 43.25 152.16 C 42.02 149.77 39.52 146.90 39.53 144.15 C 40.31 141.09 42.58 141.13 45.16 140.49 Z" fill="#594053" />
<path d="M 209.06 139.27 C 210.47 141.91 211.90 144.54 213.16 147.27 C 213.82 147.18 214.49 147.09 215.15 147.00 C 216.23 151.96 217.17 156.80 219.58 161.33 C 221.41 160.82 223.24 160.29 225.09 159.86 C 226.56 159.75 228.03 159.76 229.51 159.79 C 228.66 161.67 227.83 163.55 227.02 165.45 C 224.05 165.74 221.41 165.48 218.75 164.02 C 217.94 163.40 217.16 162.76 216.39 162.10 C 212.67 155.38 211.71 148.08 208.57 141.07 L 209.06 139.27 Z" fill="#844e5d" />
<path d="M 45.02 141.37 C 45.94 142.65 46.89 143.91 47.85 145.16 C 46.94 149.80 46.32 154.33 46.89 159.06 C 45.70 158.54 44.51 158.01 43.33 157.47 C 43.28 156.22 43.24 154.97 43.21 153.72 L 43.25 152.16 C 43.81 148.56 44.45 144.97 45.02 141.37 Z" fill="#e0a890" />
<path d="M 156.86 142.14 C 157.57 142.63 158.02 143.36 158.19 144.34 C 157.62 153.15 159.28 162.12 160.16 170.88 C 159.90 172.68 159.57 174.46 159.13 176.21 C 157.47 174.51 155.84 172.79 154.30 170.98 C 151.38 167.44 149.06 163.51 145.89 160.14 C 145.74 158.81 145.59 157.48 145.40 156.15 C 147.47 154.26 149.41 152.37 150.65 149.82 C 152.39 146.62 153.15 143.62 156.86 142.14 Z" fill="#a0849f" />
<path d="M 56.88 142.50 C 57.90 143.73 58.87 145.00 59.87 146.26 C 59.68 147.61 59.54 148.96 59.40 150.31 C 58.31 151.64 57.25 152.99 56.18 154.34 C 54.07 154.44 51.99 154.76 49.89 154.96 C 51.54 153.73 53.25 152.59 54.93 151.40 C 54.48 150.26 54.05 149.11 53.71 147.92 C 53.51 145.18 55.12 144.21 56.88 142.50 Z" fill="#23223b" />
<path d="M 179.95 142.04 C 180.73 143.93 181.71 145.90 182.04 147.92 C 182.19 150.34 181.35 152.94 180.71 155.26 C 177.90 157.09 175.53 158.84 175.18 162.46 C 178.94 163.87 183.04 163.78 186.99 163.64 C 187.49 165.81 187.97 167.99 188.43 170.17 C 187.57 170.87 186.71 171.56 185.82 172.21 C 184.48 173.06 183.11 173.86 181.75 174.69 C 179.91 173.95 177.99 173.12 176.05 172.70 C 173.88 173.42 172.11 175.60 170.49 177.14 C 169.80 174.14 168.76 171.25 167.25 168.56 C 171.33 159.38 173.74 150.23 179.95 142.04 Z" fill="#b5808c" />
<path d="M 233.13 143.22 C 234.82 143.45 234.64 145.68 233.02 145.86 C 231.33 145.62 231.51 143.40 233.13 143.22 Z" fill="#c8aab1" />
<path d="M 158.19 144.34 C 162.58 149.29 167.98 152.37 167.29 159.94 C 166.46 161.93 165.31 163.82 164.25 165.70 C 165.25 166.65 166.26 167.59 167.25 168.56 C 168.76 171.25 169.80 174.14 170.49 177.14 C 170.80 178.67 171.04 180.22 171.28 181.76 C 170.59 182.30 169.90 182.84 169.21 183.39 C 168.19 182.09 167.11 180.86 166.05 179.59 C 165.93 178.73 165.81 177.88 165.69 177.02 C 164.20 176.53 162.71 176.03 161.22 175.53 C 160.85 173.99 160.48 172.44 160.16 170.88 C 159.28 162.12 157.62 153.15 158.19 144.34 Z" fill="#8b596d" />
<path d="M 183.76 145.64 C 187.07 146.64 191.04 147.13 193.97 149.00 C 197.23 152.02 200.11 155.47 203.23 158.65 C 202.24 160.42 201.28 162.19 200.37 163.99 C 198.54 164.29 196.72 164.63 194.91 165.01 C 196.27 163.35 197.51 161.62 198.77 159.89 C 196.83 157.99 194.81 156.19 192.89 154.26 L 192.52 154.45 C 191.47 154.97 190.43 155.48 189.38 155.99 C 190.97 158.36 192.36 160.84 193.78 163.30 C 191.52 163.33 189.25 163.48 186.99 163.64 C 183.04 163.78 178.94 163.87 175.18 162.46 C 175.53 158.84 177.90 157.09 180.71 155.26 C 181.91 154.50 183.13 153.75 184.33 152.99 C 184.18 150.53 183.96 148.09 183.76 145.64 Z" fill="#311322" />
<path d="M 84.91 148.71 C 85.66 149.92 86.40 151.14 87.15 152.35 C 84.31 152.77 81.55 153.41 78.80 154.24 C 78.70 152.78 78.60 151.32 78.49 149.86 C 80.61 149.40 82.76 149.05 84.91 148.71 Z" fill="#694a60" />
<path d="M 78.49 149.86 C 78.60 151.32 78.70 152.78 78.80 154.24 C 81.55 153.41 84.31 152.77 87.15 152.35 C 88.66 154.71 89.84 156.98 92.52 158.18 C 96.23 159.91 98.58 161.65 101.18 164.81 C 100.40 164.67 99.63 164.52 98.85 164.38 C 96.98 162.62 95.14 160.83 93.31 159.04 C 92.64 161.41 91.99 163.78 91.36 166.16 C 89.35 165.85 87.02 165.82 85.18 164.91 C 83.21 163.51 81.63 161.40 80.05 159.57 C 78.61 160.14 77.18 160.72 75.74 161.29 C 76.10 162.77 76.47 164.26 76.84 165.74 C 75.84 165.66 74.84 165.59 73.84 165.52 C 73.39 161.49 72.75 157.28 74.35 153.42 C 75.02 151.65 76.94 150.73 78.49 149.86 Z" fill="#403048" />
<path d="M 235.01 149.41 C 235.34 151.68 235.77 153.76 235.14 156.02 C 233.64 160.33 231.93 164.37 227.02 165.45 C 227.83 163.55 228.66 161.67 229.51 159.79 C 231.16 156.13 232.21 152.46 235.01 149.41 Z" fill="#d0cbcb" />
<path d="M 59.40 150.31 C 60.06 153.32 59.59 155.51 58.62 158.40 C 57.80 157.05 56.95 155.72 56.18 154.34 C 57.25 152.99 58.31 151.64 59.40 150.31 Z" fill="#d39a92" />
<path d="M 69.02 150.92 C 67.39 157.26 67.39 163.42 64.02 169.27 C 63.24 167.34 62.62 165.39 61.99 163.42 C 63.11 157.61 64.70 154.85 69.02 150.92 Z" fill="#4b2e42" />
<path d="M 137.91 153.43 C 140.84 155.38 143.49 157.59 145.89 160.14 C 149.06 163.51 151.38 167.44 154.30 170.98 C 153.46 172.43 153.02 174.83 151.42 175.59 C 149.29 176.93 146.51 175.88 144.23 175.44 C 144.32 173.98 144.41 172.53 144.50 171.07 C 142.47 170.56 140.45 170.00 138.41 169.57 C 137.79 170.77 137.23 172.00 136.71 173.25 C 136.42 170.41 136.01 167.59 135.57 164.77 C 135.17 161.59 134.42 158.71 133.13 155.77 C 134.74 154.01 135.42 153.46 137.91 153.43 Z" fill="#6b465a" />
<path d="M 43.21 153.72 C 43.24 154.97 43.28 156.22 43.33 157.47 C 44.51 158.01 45.70 158.54 46.89 159.06 C 47.80 161.84 48.87 164.48 50.50 166.92 C 50.61 164.44 50.52 161.97 50.45 159.49 C 51.66 158.41 52.87 157.34 54.12 156.31 C 53.36 157.92 52.40 159.48 51.79 161.16 C 51.92 163.18 52.27 165.18 52.42 167.20 C 53.32 167.78 54.21 168.37 55.10 168.97 C 52.23 167.98 49.44 166.77 46.68 165.52 C 45.16 163.40 43.42 161.46 41.56 159.63 C 39.95 158.09 38.28 156.63 36.72 155.02 C 38.88 154.59 41.05 154.19 43.21 153.72 Z" fill="#5a3847" />
<path d="M 192.52 154.45 L 192.89 154.26 C 194.81 156.19 196.83 157.99 198.77 159.89 C 197.51 161.62 196.27 163.35 194.91 165.01 C 193.59 166.01 192.27 167.01 190.99 168.05 C 190.13 168.75 189.28 169.47 188.43 170.17 C 187.97 167.99 187.49 165.81 186.99 163.64 C 189.25 163.48 191.52 163.33 193.78 163.30 C 192.36 160.84 190.97 158.36 189.38 155.99 C 190.43 155.48 191.47 154.97 192.52 154.45 Z" fill="#dcaaa3" />
<path d="M 187.96 156.98 C 189.22 158.01 190.37 159.14 191.54 160.26 C 187.96 161.40 185.25 161.68 181.50 161.22 C 183.59 159.70 185.72 158.26 187.96 156.98 Z" fill="#c49497" />
<path d="M 35.65 160.36 C 37.17 161.55 38.74 162.67 40.31 163.79 C 40.72 162.40 41.14 161.02 41.56 159.63 C 43.42 161.46 45.16 163.40 46.68 165.52 C 47.97 169.12 50.27 171.67 52.94 174.32 C 46.27 171.00 40.40 166.07 35.65 160.36 Z" fill="#e7c3a8" />
<path d="M 56.12 160.32 C 57.18 160.02 58.25 159.73 59.32 159.46 C 60.23 160.77 61.15 162.07 61.99 163.42 C 62.62 165.39 63.24 167.34 64.02 169.27 C 65.67 173.01 68.56 175.17 67.43 179.62 C 61.21 174.70 56.73 168.44 56.12 160.32 Z" fill="#ce8d76" />
<path d="M 216.39 162.10 C 217.16 162.76 217.94 163.40 218.75 164.02 C 217.34 166.00 215.95 167.99 214.52 169.95 C 213.69 170.29 212.85 170.63 212.02 170.96 C 211.52 172.27 211.03 173.57 210.53 174.88 C 209.35 175.30 208.17 175.73 207.01 176.20 C 205.94 174.46 204.88 172.71 203.82 170.97 C 208.55 167.92 213.39 167.05 216.39 162.10 Z" fill="#c19194" />
<path d="M 204.30 163.46 C 202.96 167.60 200.97 171.46 199.55 175.55 C 198.66 177.79 199.85 180.23 200.48 182.40 C 197.30 185.70 194.03 188.90 191.09 192.43 C 187.99 193.00 186.27 192.25 183.71 190.64 C 183.51 186.72 185.06 183.58 186.73 180.17 C 189.28 179.17 191.75 178.02 194.02 176.48 C 194.93 175.61 195.79 174.71 196.61 173.78 C 196.90 171.17 196.91 168.56 196.85 165.93 C 195.81 166.74 194.78 167.57 193.74 168.39 C 192.82 168.28 191.90 168.16 190.99 168.05 C 192.27 167.01 193.59 166.01 194.91 165.01 C 196.72 164.63 198.54 164.29 200.37 163.99 C 201.68 163.80 202.99 163.63 204.30 163.46 Z" fill="#b5808c" />
<path d="M 114.09 164.38 C 116.72 166.30 119.26 167.79 122.54 168.18 C 127.06 168.75 130.49 171.18 134.08 173.77 C 133.56 175.46 133.12 177.17 132.66 178.88 C 130.62 178.38 128.57 177.86 126.53 177.35 C 126.86 178.71 127.19 180.08 127.52 181.44 C 125.90 181.96 124.28 182.47 122.66 182.99 C 120.67 179.66 119.36 175.85 117.71 172.33 C 116.56 169.65 115.36 167.01 114.09 164.38 Z" fill="#ce8971" />
<path d="M 196.85 165.93 C 196.91 168.56 196.90 171.17 196.61 173.78 C 195.54 173.67 194.47 173.57 193.39 173.51 C 192.73 173.89 192.06 174.28 191.40 174.68 C 192.27 175.29 193.15 175.89 194.02 176.48 C 191.75 178.02 189.28 179.17 186.73 180.17 C 187.80 177.04 187.22 175.12 185.82 172.21 C 186.71 171.56 187.57 170.87 188.43 170.17 C 189.28 169.47 190.13 168.75 190.99 168.05 C 191.90 168.16 192.82 168.28 193.74 168.39 C 194.78 167.57 195.81 166.74 196.85 165.93 Z" fill="#7f4d57" />
<path d="M 138.41 169.57 C 140.45 170.00 142.47 170.56 144.50 171.07 C 144.41 172.53 144.32 173.98 144.23 175.44 C 142.26 176.40 140.31 177.40 138.35 178.39 C 137.90 177.64 137.46 176.88 137.02 176.12 C 136.90 175.17 136.79 174.21 136.71 173.25 C 137.23 172.00 137.79 170.77 138.41 169.57 Z" fill="#24233e" />
<path d="M 214.52 169.95 C 214.77 172.73 215.08 175.50 215.48 178.27 C 214.44 177.67 213.40 177.08 212.36 176.48 C 211.75 175.95 211.14 175.42 210.53 174.88 C 211.03 173.57 211.52 172.27 212.02 170.96 C 212.85 170.63 213.69 170.29 214.52 169.95 Z" fill="#ddd3d3" />
<path d="M 154.30 170.98 C 155.84 172.79 157.47 174.51 159.13 176.21 C 158.75 177.07 158.36 177.92 157.94 178.76 C 157.25 180.06 156.59 181.37 155.95 182.69 C 154.16 185.73 152.48 188.82 150.82 191.94 C 148.22 194.29 146.12 197.25 143.36 199.38 C 137.46 202.90 132.01 207.21 126.63 211.48 C 128.10 208.20 130.30 206.20 133.11 204.06 C 136.94 201.15 138.12 197.18 139.81 192.91 C 138.99 193.37 138.17 193.83 137.35 194.29 L 136.03 193.17 C 137.51 192.47 138.98 191.77 140.45 191.07 C 140.36 189.75 140.28 188.44 140.19 187.13 C 139.05 187.10 137.91 187.07 136.77 187.09 C 137.97 185.56 139.62 183.93 140.23 182.06 C 139.83 180.77 139.03 179.56 138.35 178.39 C 140.31 177.40 142.26 176.40 144.23 175.44 C 146.51 175.88 149.29 176.93 151.42 175.59 C 153.02 174.83 153.46 172.43 154.30 170.98 Z" fill="#46354d" />
<path d="M 160.16 170.88 C 160.48 172.44 160.85 173.99 161.22 175.53 C 162.71 176.03 164.20 176.53 165.69 177.02 C 165.81 177.88 165.93 178.73 166.05 179.59 C 166.39 182.45 166.74 185.23 168.00 187.87 C 167.36 187.76 166.73 187.65 166.09 187.53 C 163.21 187.12 162.59 186.49 161.05 184.10 C 161.94 183.57 162.83 183.03 163.72 182.50 C 161.81 181.22 159.89 179.96 157.94 178.76 C 158.36 177.92 158.75 177.07 159.13 176.21 C 159.57 174.46 159.90 172.68 160.16 170.88 Z" fill="#957692" />
<path d="M 176.05 172.70 C 177.99 173.12 179.91 173.95 181.75 174.69 C 180.51 177.32 179.27 179.95 178.04 182.59 C 176.45 181.79 174.86 181.00 173.27 180.21 C 172.69 180.84 172.11 181.47 171.53 182.10 C 173.00 184.36 174.44 186.64 176.03 188.81 C 174.59 188.32 173.13 187.92 171.66 187.53 C 170.95 186.09 170.13 184.70 169.21 183.39 C 169.90 182.84 170.59 182.30 171.28 181.76 C 171.04 180.22 170.80 178.67 170.49 177.14 C 172.11 175.60 173.88 173.42 176.05 172.70 Z" fill="#502835" />
<path d="M 185.82 172.21 C 187.22 175.12 187.80 177.04 186.73 180.17 C 185.06 183.58 183.51 186.72 183.71 190.64 C 182.86 191.61 181.99 192.57 181.09 193.49 C 179.35 191.99 177.66 190.43 176.03 188.81 C 174.44 186.64 173.00 184.36 171.53 182.10 C 172.11 181.47 172.69 180.84 173.27 180.21 C 174.86 181.00 176.45 181.79 178.04 182.59 C 179.27 179.95 180.51 177.32 181.75 174.69 C 183.11 173.86 184.48 173.06 185.82 172.21 Z" fill="#270e1f" />
<path d="M 193.39 173.51 C 194.47 173.57 195.54 173.67 196.61 173.78 C 195.79 174.71 194.93 175.61 194.02 176.48 C 193.15 175.89 192.27 175.29 191.40 174.68 C 192.06 174.28 192.73 173.89 193.39 173.51 Z" fill="#3b1520" />
<path d="M 134.08 173.77 C 135.09 174.51 136.07 175.30 137.02 176.12 C 137.46 176.88 137.90 177.64 138.35 178.39 C 139.03 179.56 139.83 180.77 140.23 182.06 C 139.62 183.93 137.97 185.56 136.77 187.09 C 135.93 187.35 135.09 187.60 134.25 187.86 C 135.20 186.60 136.15 185.34 137.09 184.08 C 135.26 184.64 133.47 185.25 131.63 185.73 C 128.68 184.67 125.63 183.98 122.66 182.99 C 124.28 182.47 125.90 181.96 127.52 181.44 C 127.19 180.08 126.86 178.71 126.53 177.35 C 128.57 177.86 130.62 178.38 132.66 178.88 C 133.12 177.17 133.56 175.46 134.08 173.77 Z" fill="#dea886" />
<path d="M 210.53 174.88 C 211.14 175.42 211.75 175.95 212.36 176.48 C 211.36 177.86 210.41 179.28 209.48 180.72 C 203.63 185.29 198.10 189.72 191.09 192.43 C 194.03 188.90 197.30 185.70 200.48 182.40 C 202.60 180.23 204.59 178.04 207.01 176.20 C 208.17 175.73 209.35 175.30 210.53 174.88 Z" fill="#885a6c" />
<path d="M 212.36 176.48 C 213.40 177.08 214.44 177.67 215.48 178.27 C 217.74 179.71 221.39 181.36 222.08 184.18 C 222.92 188.12 222.74 192.34 222.85 196.36 C 221.82 197.05 220.81 197.75 219.80 198.47 C 214.45 197.76 211.41 194.32 207.11 191.59 C 209.15 189.37 210.79 186.66 212.53 184.19 C 211.50 183.04 210.48 181.88 209.48 180.72 C 210.41 179.28 211.36 177.86 212.36 176.48 Z" fill="#9f85a1" />
<path d="M 157.94 178.76 C 159.89 179.96 161.81 181.22 163.72 182.50 C 162.83 183.03 161.94 183.57 161.05 184.10 C 159.38 183.92 157.71 183.76 156.03 183.60 L 155.95 182.69 C 156.59 181.37 157.25 180.06 157.94 178.76 Z" fill="#daa68b" />
<path d="M 166.05 179.59 C 167.11 180.86 168.19 182.09 169.21 183.39 C 170.13 184.70 170.95 186.09 171.66 187.53 C 172.61 190.03 173.44 192.59 174.29 195.13 C 176.57 194.63 178.86 194.15 181.09 193.49 C 181.99 192.57 182.86 191.61 183.71 190.64 C 186.27 192.25 187.99 193.00 191.09 192.43 C 198.10 189.72 203.63 185.29 209.48 180.72 C 210.48 181.88 211.50 183.04 212.53 184.19 C 210.79 186.66 209.15 189.37 207.11 191.59 C 205.61 192.16 204.11 192.73 202.62 193.33 C 204.13 195.14 206.93 197.07 206.10 199.78 C 205.29 201.95 204.27 204.49 202.03 205.53 C 199.65 206.72 197.68 208.41 195.80 210.27 C 197.35 207.84 198.40 205.26 199.57 202.60 C 199.64 199.76 201.02 197.00 197.52 195.76 C 196.63 195.32 195.73 194.88 194.83 194.45 C 196.64 194.04 198.45 193.62 200.24 193.15 C 193.43 190.91 188.30 198.41 180.80 197.33 C 178.75 197.09 176.63 196.92 174.63 196.39 C 172.02 193.95 170.03 190.78 168.00 187.87 C 166.74 185.23 166.39 182.45 166.05 179.59 Z" fill="#20223f" />
<path d="M 72.22 181.31 L 73.04 181.35 L 73.41 182.09 L 72.96 182.79 L 72.14 182.75 L 71.77 182.01 L 72.22 181.31 Z" fill="#948798" />
<path d="M 90.91 181.56 C 92.47 183.33 94.36 185.56 94.77 187.93 C 94.46 189.02 93.96 189.99 93.43 190.98 C 93.44 190.19 93.44 189.41 93.45 188.62 C 90.36 187.97 87.66 187.06 85.11 185.16 C 87.04 183.96 88.93 182.67 90.91 181.56 Z" fill="#525368" />
<path d="M 155.95 182.69 L 156.03 183.60 C 156.19 185.22 156.36 186.83 156.26 188.46 C 155.18 190.24 153.44 190.82 151.63 191.61 L 150.82 191.94 C 152.48 188.82 154.16 185.73 155.95 182.69 Z" fill="#73687c" />
<path d="M 85.11 185.16 C 87.66 187.06 90.36 187.97 93.45 188.62 C 93.44 189.41 93.44 190.19 93.43 190.98 C 92.12 191.95 90.76 192.87 89.42 193.80 C 85.59 191.69 81.96 189.45 78.52 186.72 C 80.94 185.03 82.24 184.89 85.11 185.16 Z" fill="#6d6e7d" />
<path d="M 137.09 184.08 C 136.15 185.34 135.20 186.60 134.25 187.86 C 135.09 187.60 135.93 187.35 136.77 187.09 C 137.91 187.07 139.05 187.10 140.19 187.13 C 140.28 188.44 140.36 189.75 140.45 191.07 C 138.98 191.77 137.51 192.47 136.03 193.17 C 133.52 194.31 135.70 195.96 137.35 194.29 C 138.17 193.83 138.99 193.37 139.81 192.91 C 138.12 197.18 136.94 201.15 133.11 204.06 C 130.30 206.20 128.10 208.20 126.63 211.48 C 123.70 214.45 120.87 217.37 118.53 220.86 C 118.02 221.62 117.50 222.37 116.99 223.13 C 116.26 216.20 119.82 211.07 124.01 206.02 C 125.84 203.97 127.92 202.24 129.55 200.01 C 130.55 198.50 131.93 196.47 131.74 194.58 C 131.28 193.02 129.87 191.68 128.91 190.40 C 129.01 191.71 129.14 193.01 129.27 194.32 C 127.27 194.18 125.25 194.07 123.25 194.09 C 123.75 193.15 124.26 192.21 124.77 191.28 C 123.22 189.75 121.66 188.24 120.10 186.72 C 124.01 187.04 127.84 186.79 131.63 185.73 C 133.47 185.25 135.26 184.64 137.09 184.08 Z" fill="#634057" />
<path d="M 156.03 183.60 C 157.71 183.76 159.38 183.92 161.05 184.10 C 162.59 186.49 163.21 187.12 166.09 187.53 L 165.83 188.48 C 165.05 189.00 164.27 189.51 163.48 190.00 C 166.81 193.42 170.01 196.71 174.24 199.05 C 175.51 200.77 176.50 202.69 177.68 204.48 L 178.16 205.31 C 178.22 208.29 178.33 211.11 177.19 213.92 C 176.31 214.76 175.36 215.47 174.40 216.21 C 174.34 214.99 174.27 213.77 174.20 212.55 C 172.83 213.85 171.52 215.18 170.10 216.43 C 170.75 212.69 171.73 209.20 173.30 205.74 C 172.64 205.30 171.98 204.86 171.32 204.42 C 172.16 203.80 172.89 202.97 171.90 202.07 C 170.78 201.35 169.09 201.71 167.80 201.72 C 161.66 199.39 156.91 195.33 151.63 191.61 C 153.44 190.82 155.18 190.24 156.26 188.46 C 156.36 186.83 156.19 185.22 156.03 183.60 Z" fill="#b9a9b8" />
<path d="M 176.03 188.81 C 177.66 190.43 179.35 191.99 181.09 193.49 C 178.86 194.15 176.57 194.63 174.29 195.13 C 173.44 192.59 172.61 190.03 171.66 187.53 C 173.13 187.92 174.59 188.32 176.03 188.81 Z" fill="#9d89a0" />
<path d="M 165.83 188.48 C 168.61 192.05 171.60 195.38 174.24 199.05 C 170.01 196.71 166.81 193.42 163.48 190.00 C 164.27 189.51 165.05 189.00 165.83 188.48 Z" fill="#9a879c" />
<path d="M 128.91 190.40 C 129.87 191.68 131.28 193.02 131.74 194.58 C 131.93 196.47 130.55 198.50 129.55 200.01 C 125.16 201.13 123.01 202.85 120.61 206.62 C 118.16 210.45 116.46 214.85 114.55 218.98 C 113.84 218.85 113.14 218.73 112.43 218.61 C 110.62 212.37 109.21 206.17 108.52 199.70 C 109.02 198.94 109.53 198.18 110.03 197.42 C 111.34 197.18 112.63 196.88 113.91 196.56 C 114.75 200.02 115.35 203.52 115.86 207.05 C 117.79 203.47 119.42 199.80 120.65 195.92 C 119.13 195.92 117.60 195.91 116.08 195.97 C 118.45 195.26 120.81 194.55 123.25 194.09 C 125.25 194.07 127.27 194.18 129.27 194.32 C 129.14 193.01 129.01 191.71 128.91 190.40 Z" fill="#8c596d" />
<path d="M 200.24 193.15 C 198.45 193.62 196.64 194.04 194.83 194.45 C 195.73 194.88 196.63 195.32 197.52 195.76 C 196.23 196.83 194.98 197.95 193.72 199.06 C 192.64 198.89 191.55 198.72 190.47 198.54 C 187.27 198.02 184.03 197.70 180.80 197.33 C 188.30 198.41 193.43 190.91 200.24 193.15 Z" fill="#b79fb3" />
<path d="M 207.11 191.59 C 211.41 194.32 214.45 197.76 219.80 198.47 C 217.42 201.63 217.18 205.08 216.60 208.85 C 215.38 208.97 214.16 209.08 212.94 209.18 C 214.25 207.24 215.50 205.26 216.67 203.22 C 215.08 203.30 213.48 203.38 211.89 203.50 C 208.82 203.87 206.63 205.29 204.60 207.57 C 200.29 212.34 196.05 216.92 190.76 220.65 C 189.86 220.87 188.97 221.09 188.07 221.31 C 187.35 220.97 186.63 220.64 185.91 220.30 L 186.63 220.07 C 189.68 219.48 191.81 217.84 194.08 215.83 C 193.44 215.16 192.79 214.49 192.13 213.83 C 193.34 212.63 194.59 211.47 195.80 210.27 C 197.68 208.41 199.65 206.72 202.03 205.53 C 204.27 204.49 205.29 201.95 206.10 199.78 C 206.93 197.07 204.13 195.14 202.62 193.33 C 204.11 192.73 205.61 192.16 207.11 191.59 Z" fill="#d1c6d1" />
<path d="M 136.03 193.17 L 137.35 194.29 C 135.70 195.96 133.52 194.31 136.03 193.17 Z" fill="#ba99ad" />
<path d="M 116.08 195.97 C 117.60 195.91 119.13 195.92 120.65 195.92 C 119.42 199.80 117.79 203.47 115.86 207.05 C 115.35 203.52 114.75 200.02 113.91 196.56 C 114.63 196.36 115.36 196.17 116.08 195.97 Z" fill="#bd6168" />
<path d="M 197.52 195.76 C 201.02 197.00 199.64 199.76 199.57 202.60 C 196.64 200.98 193.69 199.49 190.47 198.54 C 191.55 198.72 192.64 198.89 193.72 199.06 C 194.98 197.95 196.23 196.83 197.52 195.76 Z" fill="#cec0cf" />
<path d="M 93.93 197.33 C 99.30 197.28 104.66 197.40 110.03 197.42 C 109.53 198.18 109.02 198.94 108.52 199.70 C 105.28 204.15 104.00 208.26 103.50 213.68 C 106.70 216.38 110.00 218.93 113.56 221.16 C 113.89 220.43 114.22 219.70 114.55 218.98 C 116.46 214.85 118.16 210.45 120.61 206.62 C 123.01 202.85 125.16 201.13 129.55 200.01 C 127.92 202.24 125.84 203.97 124.01 206.02 C 119.82 211.07 116.26 216.20 116.99 223.13 C 117.50 222.37 118.02 221.62 118.53 220.86 C 118.34 221.69 118.15 222.52 117.97 223.36 C 117.33 223.37 116.69 223.39 116.05 223.41 C 112.27 223.45 108.92 223.92 105.74 226.14 C 104.66 224.73 103.41 223.29 102.68 221.66 C 102.63 219.57 103.37 217.41 103.84 215.39 C 103.24 215.74 102.63 216.08 102.03 216.43 C 100.62 217.23 99.20 218.02 97.83 218.88 C 99.54 214.87 102.01 211.23 103.43 207.11 C 100.70 203.51 96.97 200.69 93.93 197.33 Z" fill="#c5b0bf" />
<path d="M 108.52 199.70 C 109.21 206.17 110.62 212.37 112.43 218.61 C 113.14 218.73 113.84 218.85 114.55 218.98 C 114.22 219.70 113.89 220.43 113.56 221.16 C 110.00 218.93 106.70 216.38 103.50 213.68 C 104.00 208.26 105.28 204.15 108.52 199.70 Z" fill="#ad7786" />
<path d="M 171.90 202.07 C 172.89 202.97 172.16 203.80 171.32 204.42 C 170.05 203.60 168.97 202.65 167.80 201.72 C 169.09 201.71 170.78 201.35 171.90 202.07 Z" fill="#7c747f" />
<path d="M 211.89 203.50 C 208.91 206.50 207.29 209.96 205.80 213.86 C 203.50 219.90 199.30 224.44 197.49 230.66 C 196.78 230.14 196.11 229.57 195.44 228.99 C 196.35 226.91 197.45 224.94 198.59 222.97 L 197.56 222.82 C 195.29 222.10 193.05 221.30 190.76 220.65 C 196.05 216.92 200.29 212.34 204.60 207.57 C 206.63 205.29 208.82 203.87 211.89 203.50 Z" fill="#9c819d" />
<path d="M 216.67 203.22 C 215.50 205.26 214.25 207.24 212.94 209.18 C 211.84 210.85 210.70 212.31 210.56 214.39 C 210.22 217.89 207.77 220.98 205.78 223.78 C 203.30 226.76 201.61 229.82 197.49 230.66 C 199.30 224.44 203.50 219.90 205.80 213.86 C 207.29 209.96 208.91 206.50 211.89 203.50 C 213.48 203.38 215.08 203.30 216.67 203.22 Z" fill="#262642" />
<path d="M 142.90 203.39 C 141.64 208.53 138.04 211.85 135.75 216.54 C 134.70 218.45 133.68 220.37 132.65 222.29 C 131.25 220.25 129.85 218.21 128.39 216.21 C 130.38 213.06 132.79 210.26 135.35 207.56 C 135.56 208.83 135.77 210.11 135.99 211.38 C 138.20 208.63 140.37 205.87 142.90 203.39 Z" fill="#ac97a5" />
<path d="M 182.88 209.04 C 182.07 212.27 179.07 214.62 176.58 216.59 C 173.41 219.00 170.29 221.93 166.78 223.75 C 168.76 220.66 171.44 218.33 174.40 216.21 C 175.36 215.47 176.31 214.76 177.19 213.92 C 178.66 212.44 179.95 210.87 181.28 209.27 C 180.21 207.97 179.14 206.68 178.16 205.31 L 177.68 204.48 C 180.26 205.35 182.08 206.20 182.88 209.04 Z" fill="#8c8890" />
<path d="M 178.16 205.31 C 179.14 206.68 180.21 207.97 181.28 209.27 C 179.95 210.87 178.66 212.44 177.19 213.92 C 178.33 211.11 178.22 208.29 178.16 205.31 Z" fill="#dfd7de" />
<path d="M 215.19 210.31 L 216.02 210.31 L 216.43 211.03 L 216.01 211.75 L 215.19 211.74 L 214.78 211.03 L 215.19 210.31 Z" fill="#b8aeb8" />
<path d="M 174.20 212.55 C 174.27 213.77 174.34 214.99 174.40 216.21 C 171.44 218.33 168.76 220.66 166.78 223.75 C 165.94 223.86 165.10 223.86 164.26 223.83 C 161.44 223.14 158.85 222.18 155.93 221.99 C 155.33 220.91 154.72 219.83 154.11 218.75 C 159.31 218.28 165.23 218.33 170.10 216.43 C 171.52 215.18 172.83 213.85 174.20 212.55 Z" fill="#d8d1d2" />
<path d="M 192.13 213.83 C 192.79 214.49 193.44 215.16 194.08 215.83 C 191.81 217.84 189.68 219.48 186.63 220.07 C 188.39 217.90 190.14 215.80 192.13 213.83 Z" fill="#514e5d" />
<path d="M 102.03 216.43 C 101.02 219.10 100.50 222.50 98.69 224.76 C 96.94 225.62 94.94 226.04 93.07 226.56 C 94.57 223.95 96.30 221.48 97.83 218.88 C 99.20 218.02 100.62 217.23 102.03 216.43 Z" fill="#4d4e5e" />
<path d="M 128.39 216.21 C 129.85 218.21 131.25 220.25 132.65 222.29 C 134.26 224.84 136.51 226.55 138.94 228.27 L 139.53 229.64 C 134.06 227.95 129.38 225.36 126.86 219.97 C 126.77 218.67 127.82 217.34 128.39 216.21 Z" fill="#c4a672" />
<path d="M 135.75 216.54 C 136.82 220.45 137.77 224.38 138.94 228.27 C 136.51 226.55 134.26 224.84 132.65 222.29 C 133.68 220.37 134.70 218.45 135.75 216.54 Z" fill="#8e8b94" />
<path d="M 149.43 221.76 C 151.04 221.64 152.67 221.76 154.29 221.80 C 155.47 222.36 156.63 222.96 157.81 223.53 C 157.43 224.10 157.05 224.67 156.67 225.23 C 153.01 225.65 149.47 225.83 145.80 225.32 C 146.94 224.09 148.10 222.78 149.43 221.76 Z" fill="#151932" />
<path d="M 155.93 221.99 C 158.85 222.18 161.44 223.14 164.26 223.83 C 162.62 225.15 160.94 226.41 159.25 227.65 C 158.39 226.85 157.53 226.04 156.67 225.23 C 157.05 224.67 157.43 224.10 157.81 223.53 C 156.63 222.96 155.47 222.36 154.29 221.80 L 155.93 221.99 Z" fill="#8f7274" />
<path d="M 188.07 221.31 C 188.97 221.09 189.86 220.87 190.76 220.65 C 193.05 221.30 195.29 222.10 197.56 222.82 C 193.90 225.38 190.05 225.67 185.79 226.28 C 185.04 225.11 184.29 223.94 183.47 222.81 C 184.96 222.18 186.51 221.73 188.07 221.31 Z" fill="#caa972" />
<path d="M 116.05 223.41 C 115.31 225.54 114.66 227.68 114.10 229.86 L 113.40 229.91 C 112.72 229.27 112.04 228.63 111.36 227.99 C 110.65 228.97 110.00 229.97 109.40 231.01 C 108.82 231.98 108.26 232.96 107.70 233.94 C 106.16 233.12 104.88 232.28 103.10 232.81 C 101.13 231.59 99.13 230.42 97.08 229.37 C 100.40 229.02 102.97 227.93 105.74 226.14 C 108.92 223.92 112.27 223.45 116.05 223.41 Z" fill="#807b8c" />
<path d="M 183.47 222.81 C 184.29 223.94 185.04 225.11 185.79 226.28 C 190.05 225.67 193.90 225.38 197.56 222.82 L 198.59 222.97 C 197.45 224.94 196.35 226.91 195.44 228.99 C 195.02 229.90 194.60 230.80 194.17 231.70 C 191.27 231.67 188.02 231.87 185.20 231.15 C 183.05 229.68 181.51 227.17 179.80 225.22 C 181.01 224.40 182.22 223.56 183.47 222.81 Z" fill="#2b2541" />
<path d="M 176.00 223.89 C 177.95 225.91 179.23 228.26 180.25 230.84 C 176.94 230.71 173.90 230.20 170.72 229.28 C 172.42 227.43 174.15 225.60 176.00 223.89 Z" fill="#d8d3d3" />
<path d="M 82.96 226.12 C 87.22 226.60 91.48 227.31 95.69 228.10 C 94.57 228.83 93.44 229.55 92.31 230.27 C 93.89 229.92 95.47 229.58 97.08 229.37 C 99.13 230.42 101.13 231.59 103.10 232.81 C 99.13 233.68 95.64 235.00 91.58 233.67 C 89.71 232.92 87.97 234.59 86.24 235.24 C 85.02 234.73 83.80 234.21 82.58 233.69 C 83.34 231.91 84.18 230.17 85.00 228.41 C 82.99 229.41 81.02 230.45 79.02 231.46 C 77.69 231.79 76.29 231.89 74.93 232.05 C 75.36 230.74 75.84 229.43 76.27 228.12 C 78.38 227.38 80.71 225.73 82.96 226.12 Z" fill="#1d1e3a" />
<path d="M 111.36 227.99 C 112.04 228.63 112.72 229.27 113.40 229.91 C 112.07 230.28 110.73 230.64 109.40 231.01 C 110.00 229.97 110.65 228.97 111.36 227.99 Z" fill="#d3c6d0" />
<path d="M 119.33 229.63 C 120.61 231.31 121.87 232.99 123.11 234.70 C 121.56 234.85 120.02 234.97 118.47 235.09 C 118.51 234.09 118.54 233.10 118.57 232.10 C 117.68 232.75 116.81 233.37 115.95 234.04 C 116.33 234.87 116.70 235.70 117.07 236.53 C 113.07 236.63 111.04 236.10 107.70 233.94 C 108.26 232.96 108.82 231.98 109.40 231.01 C 110.73 230.64 112.07 230.28 113.40 229.91 L 114.10 229.86 C 115.84 229.76 117.59 229.65 119.33 229.63 Z" fill="#714d63" />
</svg>