<?xml version="1.0" encoding="UTF-8" standalone="no"?>
<!DOCTYPE svg PUBLIC "-//W3C//DTD SVG 1.1//EN" "http://www.w3.org/Graphics/SVG/1.1/DTD/svg11.dtd">
<svg xmlns="http://www.w3.org/2000/svg" version="1.1" viewBox="0 0 256 256" width="256.0pt" height="256.0pt">
<path d="M 0.00 0.00 L 256.00 0.00 L 256.00 256.00 L 0.00 256.00 L 0.00 0.00 Z" fill="#fefefd" />
<path d="M 93.00 13.97 C 102.91 13.05 110.28 18.05 119.94 19.19 C 133.00 20.97 146.31 23.05 155.25 33.75 C 167.85 46.22 183.97 56.16 197.66 67.34 C 207.60 74.68 218.88 75.37 229.81 80.30 C 239.37 85.42 244.00 96.06 241.59 106.65 C 237.66 115.55 229.34 123.43 227.07 134.25 C 222.94 146.62 231.09 156.87 232.81 169.73 C 236.42 178.52 237.35 188.04 234.17 197.14 C 230.15 207.82 224.48 219.48 213.73 224.78 C 202.28 233.36 189.73 235.34 176.97 239.80 C 164.95 241.28 152.99 241.85 141.00 243.03 C 127.04 242.57 114.13 237.18 100.36 236.60 C 92.90 235.24 87.04 231.37 79.89 229.12 C 71.32 225.05 61.53 223.82 52.14 223.81 C 47.19 220.88 41.75 218.35 37.30 214.69 C 31.32 208.12 26.27 200.92 21.66 193.34 C 19.67 189.76 17.99 184.10 20.31 180.33 C 16.75 179.69 18.08 174.71 18.16 172.13 C 22.21 163.99 29.50 157.43 33.44 149.41 C 36.17 140.55 26.16 131.01 25.01 121.97 C 23.63 108.39 23.61 95.61 28.62 82.65 C 32.10 77.21 37.11 71.23 43.61 69.55 C 50.93 66.02 59.57 61.25 59.89 52.03 C 55.12 44.13 56.86 34.37 62.25 27.28 C 69.44 17.78 81.08 12.55 93.00 13.97 Z" fill="#f3f2ef" />
<path d="M 100.00 22.98 C 107.06 21.93 111.44 24.97 116.14 29.74 C 108.60 35.32 103.54 31.48 95.86 29.24 C 92.91 28.01 94.92 31.69 94.68 33.21 C 91.84 30.87 89.90 26.29 86.18 25.69 C 84.82 22.38 80.82 23.80 77.98 23.07 C 83.03 19.95 93.53 24.26 100.00 22.98 Z" fill="#ecead5" />
<path d="M 77.98 23.07 C 80.82 23.80 84.82 22.38 86.18 25.69 C 87.96 31.25 93.11 36.00 96.08 40.96 C 97.26 42.69 98.49 44.99 100.90 44.92 C 100.95 40.80 95.85 37.40 94.68 33.21 C 94.92 31.69 92.91 28.01 95.86 29.24 C 103.54 31.48 108.60 35.32 116.14 29.74 C 118.68 29.92 121.22 29.96 123.76 30.11 C 122.88 31.13 121.96 32.13 121.07 33.14 C 117.67 35.49 114.40 37.17 112.78 41.25 C 110.71 41.82 111.23 40.59 110.32 39.14 C 109.30 43.45 108.13 44.78 104.85 47.73 C 100.84 48.67 95.51 49.63 96.06 54.98 C 96.14 59.74 95.65 60.18 92.00 62.87 C 89.83 64.05 93.16 63.87 93.92 64.48 C 90.90 67.10 87.17 68.70 83.22 69.27 C 82.44 68.11 81.67 66.95 80.87 65.81 C 84.87 62.56 90.44 62.40 87.28 55.71 C 79.09 50.62 70.13 48.33 60.44 48.83 C 59.49 43.49 63.60 49.04 65.07 45.03 C 67.30 42.23 60.94 39.65 64.42 37.45 C 68.20 32.54 75.47 42.33 79.88 38.80 C 77.11 35.13 74.00 31.91 69.12 31.57 C 69.64 29.94 69.53 27.77 71.83 28.15 C 74.88 30.14 77.59 31.23 81.17 31.96 C 81.53 33.68 82.34 33.97 83.98 34.05 C 85.88 38.89 89.35 33.79 83.98 34.05 C 83.77 33.21 83.41 32.49 82.90 31.89 C 81.76 29.33 75.05 25.75 77.98 23.07 Z" fill="#d6cea7" />
<path d="M 86.18 25.69 C 89.90 26.29 91.84 30.87 94.68 33.21 C 95.85 37.40 100.95 40.80 100.90 44.92 C 98.49 44.99 97.26 42.69 96.08 40.96 C 93.11 36.00 87.96 31.25 86.18 25.69 Z" fill="#2b2b32" />
<path d="M 71.83 28.15 C 75.66 27.57 78.54 29.42 81.17 31.96 C 77.59 31.23 74.88 30.14 71.83 28.15 Z" fill="#53514e" />
<path d="M 132.47 31.70 C 134.03 34.78 132.26 36.81 131.78 39.91 C 129.03 37.63 126.55 36.90 124.30 40.30 C 123.67 43.60 124.05 47.14 124.07 50.48 C 119.13 48.11 120.79 41.56 121.32 37.30 C 123.74 34.87 126.78 33.99 130.15 34.37 C 129.48 33.42 128.74 32.53 127.98 31.65 C 129.60 31.33 131.61 29.40 132.47 31.70 Z" fill="#73564b" />
<path d="M 141.44 29.99 C 138.75 36.48 150.81 36.97 150.54 43.70 C 151.65 43.70 152.74 43.60 153.84 43.57 C 153.40 47.25 154.11 50.35 154.83 53.93 C 151.42 60.52 143.81 65.28 137.78 69.31 C 136.78 69.81 135.79 70.32 134.80 70.83 C 135.76 69.20 136.80 67.69 137.99 66.22 C 140.55 64.03 142.75 61.53 144.45 58.62 C 144.53 54.11 144.32 49.64 144.83 45.13 C 143.44 45.85 141.64 49.69 141.84 45.84 C 141.55 41.65 140.39 38.05 136.70 35.68 C 136.15 33.06 137.39 32.02 133.92 31.59 C 136.41 30.70 138.73 29.78 141.44 29.99 Z" fill="#d1d3cd" />
<path d="M 81.17 31.96 L 82.90 31.89 C 83.41 32.49 83.77 33.21 83.98 34.05 C 82.34 33.97 81.53 33.68 81.17 31.96 Z" fill="#5c5a4c" />
<path d="M 127.98 31.65 C 128.74 32.53 129.48 33.42 130.15 34.37 C 126.78 33.99 123.74 34.87 121.32 37.30 C 120.79 41.56 119.13 48.11 124.07 50.48 C 120.62 51.56 118.22 50.11 115.09 48.93 C 114.26 46.39 113.46 43.84 112.78 41.25 C 114.40 37.17 117.67 35.49 121.07 33.14 C 123.51 32.96 125.71 32.61 127.98 31.65 Z" fill="#282637" />
<path d="M 132.47 31.70 L 133.92 31.59 C 137.39 32.02 136.15 33.06 136.70 35.68 C 136.75 37.61 138.40 39.37 139.27 41.05 C 139.27 43.68 134.90 41.66 133.29 41.88 C 132.79 41.22 132.28 40.57 131.78 39.91 C 132.26 36.81 134.03 34.78 132.47 31.70 Z" fill="#bfbcad" />
<path d="M 83.98 34.05 C 85.88 38.89 89.35 33.79 83.98 34.05 Z" fill="#848464" />
<path d="M 136.70 35.68 C 140.39 38.05 141.55 41.65 141.84 45.84 C 141.27 48.01 140.74 50.14 139.64 52.12 C 136.27 51.27 142.48 44.20 139.27 41.05 C 138.40 39.37 136.75 37.61 136.70 35.68 Z" fill="#202234" />
<path d="M 87.75 37.51 C 89.20 39.51 90.72 41.45 92.22 43.41 C 90.46 43.97 82.94 36.06 87.75 37.51 Z" fill="#fdfada" />
<path d="M 92.22 43.41 C 90.72 41.45 89.20 39.51 87.75 37.51 C 90.02 36.56 98.77 46.09 92.22 43.41 Z" fill="#4d4d3a" />
<path d="M 131.78 39.91 C 132.28 40.57 132.79 41.22 133.29 41.88 C 133.90 44.41 134.56 46.65 133.06 49.05 C 131.92 52.47 126.78 50.37 124.07 50.48 C 124.05 47.14 123.67 43.60 124.30 40.30 C 126.55 36.90 129.03 37.63 131.78 39.91 Z" fill="#23243d" />
<path d="M 110.32 39.14 C 111.23 40.59 110.71 41.82 112.78 41.25 C 113.46 43.84 114.26 46.39 115.09 48.93 C 111.38 49.12 108.40 48.77 104.85 47.73 C 108.13 44.78 109.30 43.45 110.32 39.14 Z" fill="#acad9d" />
<path d="M 139.27 41.05 C 142.48 44.20 136.27 51.27 139.64 52.12 C 137.67 56.85 135.74 61.08 137.99 66.22 C 136.80 67.69 135.76 69.20 134.80 70.83 C 133.85 71.36 132.88 71.87 131.89 72.34 C 128.24 71.48 117.08 73.71 118.53 79.19 C 115.70 77.87 113.46 77.15 110.32 77.66 C 108.35 75.05 104.75 75.19 101.85 75.67 C 96.95 76.47 92.89 75.14 88.65 77.25 L 87.09 76.96 C 82.08 74.99 83.27 73.87 83.22 69.27 C 87.17 68.70 90.90 67.10 93.92 64.48 C 93.16 63.87 89.83 64.05 92.00 62.87 C 95.65 60.18 96.14 59.74 96.06 54.98 C 95.51 49.63 100.84 48.67 104.85 47.73 C 108.40 48.77 111.38 49.12 115.09 48.93 C 118.22 50.11 120.62 51.56 124.07 50.48 C 126.78 50.37 131.92 52.47 133.06 49.05 C 134.56 46.65 133.90 44.41 133.29 41.88 C 134.90 41.66 139.27 43.68 139.27 41.05 Z" fill="#7f89a0" />
<path d="M 144.83 45.13 C 144.32 49.64 144.53 54.11 144.45 58.62 C 142.75 61.53 140.55 64.03 137.99 66.22 C 135.74 61.08 137.67 56.85 139.64 52.12 C 140.74 50.14 141.27 48.01 141.84 45.84 C 141.64 49.69 143.44 45.85 144.83 45.13 Z" fill="#a9afbd" />
<path d="M 165.99 52.97 C 171.00 58.46 176.47 63.72 182.70 67.83 C 182.57 64.39 182.10 64.10 184.68 66.68 C 184.40 70.91 189.51 73.29 192.20 75.82 C 201.32 83.88 211.01 90.89 221.77 96.61 C 223.06 104.96 227.64 101.15 232.94 103.03 L 233.47 104.87 C 226.76 106.54 221.75 111.69 217.01 116.41 C 216.20 112.50 214.15 108.88 219.16 107.03 C 223.41 105.16 217.79 103.31 216.14 102.34 C 217.66 101.39 219.44 101.42 221.01 100.56 C 217.63 99.35 216.22 100.87 218.50 97.05 C 216.21 96.03 210.98 96.69 209.76 94.71 C 207.74 89.32 207.61 99.05 209.42 99.54 C 213.03 101.76 206.17 101.07 204.84 101.73 C 201.26 101.20 196.30 93.29 191.83 95.97 C 190.87 95.03 189.94 94.06 188.96 93.14 C 188.96 95.85 189.54 98.41 190.27 101.00 C 189.69 103.48 189.68 105.50 190.11 108.00 C 190.08 109.98 190.26 111.65 190.85 113.55 C 190.76 116.81 190.20 120.02 190.06 123.28 L 189.91 124.22 C 187.92 118.66 188.25 122.42 186.99 125.47 C 185.27 125.65 183.58 125.52 181.87 125.34 C 178.78 124.58 180.40 118.62 179.94 116.20 C 183.16 117.54 181.47 115.05 182.01 113.00 C 181.98 107.10 187.26 103.66 185.93 97.14 C 181.90 92.50 174.78 91.36 173.44 84.50 C 172.69 84.31 171.94 84.13 171.18 83.98 C 167.41 81.99 167.47 77.16 162.61 78.39 C 155.31 77.54 149.05 88.49 142.39 83.24 C 141.74 88.43 140.87 86.12 136.87 86.15 C 140.19 82.83 135.17 82.49 140.16 81.09 C 143.62 80.84 144.78 77.14 147.90 79.33 C 150.26 77.60 153.00 75.15 154.97 72.98 C 152.91 69.40 151.53 66.13 146.92 65.63 C 151.06 60.42 156.51 62.57 157.86 54.75 C 160.53 53.86 163.94 49.66 165.99 52.97 Z" fill="#ded8b5" />
<path d="M 105.28 60.31 C 107.61 60.01 112.34 61.99 112.01 64.91 C 110.99 67.32 108.33 69.10 105.97 70.01 C 101.50 67.33 100.99 63.56 105.28 60.31 Z" fill="#b4613d" />
<path d="M 80.87 65.81 C 81.67 66.95 82.44 68.11 83.22 69.27 C 83.27 73.87 82.08 74.99 87.09 76.96 C 82.20 76.68 77.32 76.25 72.44 76.00 L 71.81 74.17 C 71.06 72.02 69.92 70.05 69.14 67.93 C 70.12 63.49 77.53 67.01 80.87 65.81 Z" fill="#7d5642" />
<path d="M 146.92 65.63 C 151.53 66.13 152.91 69.40 154.97 72.98 C 153.00 75.15 150.26 77.60 147.90 79.33 C 144.78 77.14 143.62 80.84 140.16 81.09 C 138.68 78.18 137.88 78.85 140.70 76.62 C 138.20 72.42 136.46 72.30 131.89 72.34 C 132.88 71.87 133.85 71.36 134.80 70.83 C 135.79 70.32 136.78 69.81 137.78 69.31 C 142.43 71.25 143.73 68.20 146.92 65.63 Z" fill="#e9e7d2" />
<path d="M 184.68 66.68 C 197.84 79.90 214.29 91.82 231.96 98.16 C 231.10 101.66 224.03 96.86 221.77 96.61 C 211.01 90.89 201.32 83.88 192.20 75.82 C 189.51 73.29 184.40 70.91 184.68 66.68 Z" fill="#2c2c30" />
<path d="M 64.14 71.80 C 67.27 72.28 69.31 78.35 71.81 74.17 L 72.44 76.00 C 70.24 76.73 68.01 77.28 65.84 78.08 C 59.99 79.51 58.06 87.29 51.12 82.11 C 50.08 80.71 49.01 79.33 47.95 77.94 C 53.59 77.14 58.75 69.48 64.14 71.80 Z" fill="#e4cc92" />
<path d="M 131.89 72.34 C 136.46 72.30 138.20 72.42 140.70 76.62 C 137.88 78.85 138.68 78.18 140.16 81.09 C 135.17 82.49 140.19 82.83 136.87 86.15 L 135.75 86.23 C 129.77 84.53 124.29 81.52 118.53 79.19 C 117.08 73.71 128.24 71.48 131.89 72.34 Z" fill="#b5b6aa" />
<path d="M 110.32 77.66 C 105.25 78.30 100.93 75.91 95.81 77.64 C 93.20 78.08 91.18 78.04 88.65 77.25 C 92.89 75.14 96.95 76.47 101.85 75.67 C 104.75 75.19 108.35 75.05 110.32 77.66 Z" fill="#5e5868" />
<path d="M 72.44 76.00 C 77.32 76.25 82.20 76.68 87.09 76.96 L 88.65 77.25 C 91.18 78.04 93.20 78.08 95.81 77.64 C 103.91 78.62 111.98 82.86 118.23 88.03 C 118.35 92.25 112.96 92.64 110.00 94.83 C 103.11 91.23 95.29 88.13 88.98 83.70 C 82.39 79.98 73.07 81.44 66.31 80.75 C 66.13 79.86 65.97 78.97 65.84 78.08 C 68.01 77.28 70.24 76.73 72.44 76.00 Z" fill="#c25a26" />
<path d="M 47.15 77.71 C 44.78 78.14 42.00 77.36 40.87 79.99 C 42.47 82.72 48.05 82.72 50.89 84.01 C 50.53 86.28 50.28 88.28 48.02 89.44 C 46.56 87.21 46.17 87.56 43.81 87.64 C 40.54 86.66 39.33 86.61 36.05 88.06 C 35.06 84.92 35.56 81.71 36.67 78.67 C 40.11 77.47 43.58 76.30 47.15 77.71 Z" fill="#ead3a3" />
<path d="M 110.32 77.66 C 113.46 77.15 115.70 77.87 118.53 79.19 C 124.29 81.52 129.77 84.53 135.75 86.23 C 140.92 91.32 153.63 96.79 161.00 96.01 C 163.23 96.11 163.89 94.32 165.20 92.89 C 165.48 93.58 165.75 94.28 166.03 94.97 C 165.08 95.46 162.63 96.45 163.39 97.85 C 165.29 98.82 165.94 96.40 166.03 94.97 C 169.39 93.18 167.10 95.95 167.11 97.77 C 165.14 101.06 163.28 103.39 160.30 105.82 L 162.11 106.70 L 161.66 107.46 C 160.45 107.68 159.24 107.91 158.02 108.10 C 148.41 107.58 137.40 103.48 131.74 95.27 C 127.27 92.90 123.02 89.66 118.23 88.03 C 111.98 82.86 103.91 78.62 95.81 77.64 C 100.93 75.91 105.25 78.30 110.32 77.66 Z" fill="#25243c" />
<path d="M 47.15 77.71 L 47.95 77.94 C 49.01 79.33 50.08 80.71 51.12 82.11 L 50.89 84.01 C 48.05 82.72 42.47 82.72 40.87 79.99 C 42.00 77.36 44.78 78.14 47.15 77.71 Z" fill="#be602a" />
<path d="M 65.84 78.08 C 65.97 78.97 66.13 79.86 66.31 80.75 C 73.07 81.44 82.39 79.98 88.98 83.70 C 88.68 84.47 88.38 85.25 88.09 86.02 C 83.70 81.95 84.10 87.30 81.84 90.16 C 75.63 89.60 70.11 85.15 64.00 84.96 C 62.53 85.11 60.94 85.49 61.76 87.29 C 60.42 90.36 55.00 95.85 52.05 91.81 C 50.87 90.55 48.91 90.86 48.02 89.44 C 50.28 88.28 50.53 86.28 50.89 84.01 L 51.12 82.11 C 58.06 87.29 59.99 79.51 65.84 78.08 Z" fill="#e1bc6f" />
<path d="M 162.61 78.39 C 167.47 77.16 167.41 81.99 171.18 83.98 C 171.86 86.09 170.64 86.49 169.45 87.95 C 167.93 89.51 166.44 91.09 165.20 92.89 C 163.89 94.32 163.23 96.11 161.00 96.01 C 153.63 96.79 140.92 91.32 135.75 86.23 L 136.87 86.15 C 140.87 86.12 141.74 88.43 142.39 83.24 C 149.05 88.49 155.31 77.54 162.61 78.39 Z" fill="#eeeeec" />
<path d="M 88.09 86.02 C 87.51 88.44 85.83 89.54 83.97 90.95 C 83.26 90.68 82.55 90.42 81.84 90.16 C 84.10 87.30 83.70 81.95 88.09 86.02 Z" fill="#a57d50" />
<path d="M 88.98 83.70 C 95.29 88.13 103.11 91.23 110.00 94.83 C 112.96 92.64 118.35 92.25 118.23 88.03 C 123.02 89.66 127.27 92.90 131.74 95.27 C 137.40 103.48 148.41 107.58 158.02 108.10 C 162.84 112.47 163.45 120.07 156.19 122.33 C 155.72 125.68 160.79 128.79 161.55 132.43 C 163.49 136.63 159.26 137.47 156.25 138.38 L 154.97 137.10 C 158.53 135.09 154.62 132.46 153.04 130.64 C 151.96 128.74 154.57 118.51 150.35 123.32 C 147.81 127.35 143.15 128.94 140.93 133.03 C 142.83 136.85 148.37 137.51 152.07 138.49 C 151.31 141.29 147.83 146.57 145.21 142.91 C 145.23 137.11 140.68 142.66 138.06 143.32 C 133.44 139.08 128.37 136.42 122.10 139.13 C 118.63 140.88 117.26 137.15 113.78 137.63 C 106.60 133.95 103.08 126.64 94.82 124.10 C 92.54 121.67 90.66 118.94 88.10 116.75 C 89.55 116.59 95.27 118.18 93.73 115.28 C 90.21 113.11 86.43 111.39 82.99 109.06 C 81.47 104.87 78.80 98.95 80.23 94.56 C 88.12 95.88 93.02 100.87 101.01 100.07 C 102.32 99.65 105.93 100.86 104.61 98.46 C 97.71 96.11 90.73 93.68 83.97 90.95 C 85.83 89.54 87.51 88.44 88.09 86.02 C 88.38 85.25 88.68 84.47 88.98 83.70 Z" fill="#754832" />
<path d="M 171.18 83.98 C 171.94 84.13 172.69 84.31 173.44 84.50 C 174.78 91.36 181.90 92.50 185.93 97.14 C 187.26 103.66 181.98 107.10 182.01 113.00 C 181.47 115.05 183.16 117.54 179.94 116.20 C 179.58 115.16 179.22 114.12 178.85 113.08 C 178.46 105.20 175.96 99.13 174.16 91.74 C 173.43 90.71 172.82 90.69 172.32 91.70 C 171.15 93.05 170.14 94.51 169.06 95.93 C 169.06 93.26 169.27 90.61 169.45 87.95 C 170.64 86.49 171.86 86.09 171.18 83.98 Z" fill="#d0d2d2" />
<path d="M 64.00 84.96 C 70.11 85.15 75.63 89.60 81.84 90.16 C 82.55 90.42 83.26 90.68 83.97 90.95 C 90.73 93.68 97.71 96.11 104.61 98.46 C 105.93 100.86 102.32 99.65 101.01 100.07 C 93.02 100.87 88.12 95.88 80.23 94.56 C 75.36 90.59 67.54 89.86 61.76 87.29 C 60.94 85.49 62.53 85.11 64.00 84.96 Z" fill="#c05e26" />
<path d="M 43.81 87.64 C 46.56 89.68 47.17 93.57 43.20 94.31 C 40.53 94.25 40.19 96.73 38.71 98.48 C 39.97 99.79 41.44 100.89 42.71 102.20 C 40.48 105.79 37.08 106.59 33.55 108.38 C 33.65 111.63 34.07 113.14 36.51 115.35 C 35.91 117.25 32.98 118.52 35.91 119.73 C 33.56 120.26 33.04 118.65 31.63 117.24 C 29.83 111.45 32.37 107.11 31.99 100.99 C 31.31 95.90 35.73 93.21 36.05 88.06 C 39.33 86.61 40.54 86.66 43.81 87.64 Z" fill="#aa6330" />
<path d="M 48.02 89.44 C 48.91 90.86 50.87 90.55 52.05 91.81 C 49.69 96.79 50.48 101.49 50.27 106.75 C 49.69 110.78 48.95 114.74 48.95 118.84 C 45.66 119.81 40.24 119.53 35.91 119.73 C 32.98 118.52 35.91 117.25 36.51 115.35 C 34.07 113.14 33.65 111.63 33.55 108.38 C 37.08 106.59 40.48 105.79 42.71 102.20 C 41.44 100.89 39.97 99.79 38.71 98.48 C 40.19 96.73 40.53 94.25 43.20 94.31 C 47.17 93.57 46.56 89.68 43.81 87.64 C 46.17 87.56 46.56 87.21 48.02 89.44 Z" fill="#ae813b" />
<path d="M 61.76 87.29 C 67.54 89.86 75.36 90.59 80.23 94.56 C 78.80 98.95 81.47 104.87 82.99 109.06 C 73.35 105.13 63.80 100.64 53.94 97.27 C 51.11 97.64 51.47 101.10 54.31 101.70 C 63.86 105.14 71.82 108.70 80.41 114.16 C 78.93 116.81 79.41 115.79 82.03 116.01 C 81.11 116.70 80.21 117.41 79.33 118.16 L 78.83 118.57 C 76.44 114.37 75.21 125.35 77.89 125.83 C 76.56 126.02 75.95 126.76 76.07 128.03 C 75.69 134.46 76.58 140.69 75.26 147.09 C 74.56 147.83 73.82 148.54 73.05 149.21 C 65.58 150.47 64.07 142.65 66.53 137.47 C 69.56 132.61 70.31 124.97 66.78 120.27 C 60.00 121.00 55.68 123.90 51.06 116.99 C 49.62 113.57 54.07 110.16 50.27 106.75 C 50.48 101.49 49.69 96.79 52.05 91.81 C 55.00 95.85 60.42 90.36 61.76 87.29 Z" fill="#d3aa47" />
<path d="M 169.45 87.95 C 169.27 90.61 169.06 93.26 169.06 95.93 C 170.14 94.51 171.15 93.05 172.32 91.70 C 173.08 94.52 166.93 103.49 171.90 103.77 C 171.34 105.66 170.20 106.26 171.72 108.04 C 168.36 107.46 165.02 108.08 161.66 107.46 L 162.11 106.70 C 165.51 104.37 168.18 102.34 167.11 97.77 C 167.10 95.95 169.39 93.18 166.03 94.97 C 165.75 94.28 165.48 93.58 165.20 92.89 C 166.44 91.09 167.93 89.51 169.45 87.95 Z" fill="#76798b" />
<path d="M 174.16 91.74 C 175.96 99.13 178.46 105.20 178.85 113.08 C 177.72 111.94 176.68 110.81 175.24 110.04 C 174.06 109.38 172.89 108.71 171.72 108.04 C 170.20 106.26 171.34 105.66 171.90 103.77 C 166.93 103.49 173.08 94.52 172.32 91.70 C 172.82 90.69 173.43 90.71 174.16 91.74 Z" fill="#a3a8b5" />
<path d="M 188.96 93.14 C 189.94 94.06 190.87 95.03 191.83 95.97 C 193.95 98.46 195.81 101.12 197.62 103.84 C 198.00 107.89 198.65 111.90 199.22 115.93 C 198.66 117.59 198.42 118.95 200.04 120.07 C 199.82 129.95 193.98 136.05 191.47 144.85 C 189.32 147.64 187.18 150.42 184.74 152.96 C 180.62 157.20 175.97 160.33 170.98 163.42 C 165.71 167.97 155.04 170.83 148.20 170.69 C 137.11 170.21 127.41 166.46 120.71 157.29 C 115.07 153.40 111.41 147.96 106.24 143.74 C 104.55 142.41 102.80 141.18 101.04 139.94 C 100.53 138.94 99.85 138.14 99.01 137.53 C 98.41 136.99 97.81 136.44 97.22 135.90 C 95.04 133.49 92.88 131.14 90.24 129.22 C 88.83 128.13 87.41 127.04 86.02 125.92 C 84.83 124.46 83.55 123.09 82.19 121.79 C 81.10 120.68 79.97 119.62 78.83 118.57 L 79.33 118.16 C 82.24 117.58 85.15 117.06 88.10 116.75 C 90.66 118.94 92.54 121.67 94.82 124.10 C 103.08 126.64 106.60 133.95 113.78 137.63 C 117.41 140.84 121.50 143.42 125.75 145.72 C 128.52 147.14 131.84 147.50 134.84 148.29 C 136.80 149.23 140.03 148.12 137.34 150.91 C 138.92 151.13 140.52 151.27 142.11 151.42 C 145.09 151.55 148.17 150.98 151.09 150.46 C 153.66 149.47 158.80 150.05 158.94 146.48 C 159.89 145.74 160.96 145.15 161.98 144.51 C 163.76 143.60 165.52 142.65 167.25 141.64 C 167.34 143.28 166.13 143.94 165.27 145.17 C 168.64 144.81 170.59 142.72 172.74 140.37 C 175.72 137.97 178.58 135.53 181.16 132.69 C 184.19 134.46 184.51 131.92 182.27 130.13 C 182.43 128.87 182.55 127.76 182.15 126.53 L 181.87 125.34 C 183.58 125.52 185.27 125.65 186.99 125.47 C 188.58 125.32 189.95 126.65 189.91 124.22 L 190.06 123.28 C 190.81 121.29 191.12 119.38 192.81 117.92 C 193.27 121.36 192.77 124.66 192.34 128.06 C 195.38 124.68 195.88 116.59 193.96 112.60 C 192.91 112.89 191.89 113.24 190.85 113.55 C 190.26 111.65 190.08 109.98 190.11 108.00 C 191.82 105.59 191.62 103.51 190.27 101.00 C 189.54 98.41 188.96 95.85 188.96 93.14 Z" fill="#22243d" />
<path d="M 209.76 94.71 C 210.98 96.69 216.21 96.03 218.50 97.05 C 216.22 100.87 217.63 99.35 221.01 100.56 C 219.44 101.42 217.66 101.39 216.14 102.34 C 217.79 103.31 223.41 105.16 219.16 107.03 C 214.15 108.88 216.20 112.50 217.01 116.41 C 216.78 117.39 216.50 118.35 216.18 119.29 L 214.38 118.92 C 212.23 115.24 207.95 115.77 206.20 111.80 C 205.05 108.64 200.22 105.23 197.62 103.84 C 195.81 101.12 193.95 98.46 191.83 95.97 C 196.30 93.29 201.26 101.20 204.84 101.73 C 206.17 101.07 213.03 101.76 209.42 99.54 C 207.61 99.05 207.74 89.32 209.76 94.71 Z" fill="#d7ce9f" />
<path d="M 166.03 94.97 C 165.94 96.40 165.29 98.82 163.39 97.85 C 162.63 96.45 165.08 95.46 166.03 94.97 Z" fill="#6e718d" />
<path d="M 53.94 97.27 C 63.80 100.64 73.35 105.13 82.99 109.06 C 86.43 111.39 90.21 113.11 93.73 115.28 C 95.27 118.18 89.55 116.59 88.10 116.75 C 86.06 116.18 84.16 115.93 82.03 116.01 C 79.41 115.79 78.93 116.81 80.41 114.16 C 71.82 108.70 63.86 105.14 54.31 101.70 C 51.47 101.10 51.11 97.64 53.94 97.27 Z" fill="#bf5d22" />
<path d="M 167.11 97.77 C 168.18 102.34 165.51 104.37 162.11 106.70 L 160.30 105.82 C 163.28 103.39 165.14 101.06 167.11 97.77 Z" fill="#45485d" />
<path d="M 190.27 101.00 C 191.62 103.51 191.82 105.59 190.11 108.00 C 189.68 105.50 189.69 103.48 190.27 101.00 Z" fill="#696a74" />
<path d="M 235.43 104.99 L 233.47 104.87 L 232.94 103.03 C 235.42 101.00 236.70 102.21 235.43 104.99 Z" fill="#71727a" />
<path d="M 206.20 111.80 C 207.95 115.77 212.23 115.24 214.38 118.92 C 213.59 120.68 212.80 122.44 212.13 124.25 C 211.08 127.04 211.05 130.19 210.40 133.10 C 209.55 135.67 209.35 137.56 210.65 140.02 C 212.14 146.42 214.62 151.61 218.04 157.17 C 212.88 158.57 213.33 162.46 212.12 166.94 C 212.99 170.49 217.43 172.47 219.44 175.57 C 221.31 177.02 222.59 180.99 225.23 180.37 C 224.24 190.65 224.68 199.18 217.39 207.33 C 217.10 212.09 208.81 214.51 210.90 218.39 C 205.45 224.03 202.26 223.76 194.93 221.80 C 196.65 220.08 198.03 218.31 199.18 216.16 C 202.99 212.83 207.57 207.56 207.15 202.16 C 207.52 201.43 207.90 200.71 208.28 199.98 C 208.92 200.37 209.55 200.76 210.18 201.16 C 210.76 201.53 211.37 201.84 212.02 202.09 C 210.79 205.70 209.66 208.42 206.91 211.17 C 210.43 214.31 209.93 210.41 213.12 209.04 C 217.67 205.34 222.47 199.97 219.77 193.78 C 220.52 188.37 218.70 186.72 215.26 183.04 C 215.85 189.73 214.76 195.96 212.02 202.09 C 212.49 200.31 212.10 198.68 211.48 197.01 C 210.60 192.22 208.91 188.54 204.83 185.70 C 204.50 183.97 204.30 182.21 204.18 180.45 C 205.81 175.28 204.81 169.23 204.42 163.87 C 201.09 162.92 200.89 158.57 198.12 158.07 C 197.87 165.38 204.39 171.07 202.92 179.23 C 201.39 178.82 200.18 178.56 199.13 177.29 C 202.61 172.43 197.06 162.59 193.37 158.87 C 194.08 153.15 189.53 150.91 191.47 144.85 C 193.98 136.05 199.82 129.95 200.04 120.07 C 200.41 118.38 200.38 117.28 199.22 115.93 C 198.65 111.90 198.00 107.89 197.62 103.84 C 200.22 105.23 205.05 108.64 206.20 111.80 Z" fill="#e2ddbf" />
<path d="M 139.96 104.04 C 138.83 109.44 140.23 113.89 139.89 118.82 C 140.10 120.14 143.84 123.82 140.39 122.57 C 136.27 121.84 129.45 120.72 126.98 117.03 C 129.28 110.25 137.04 111.20 139.96 104.04 Z" fill="#c1aa88" />
<path d="M 233.47 104.87 L 235.43 104.99 C 235.10 106.46 233.97 107.02 232.92 107.95 C 223.61 114.28 217.20 123.97 214.69 134.90 C 213.35 136.48 213.30 137.58 214.80 139.07 C 214.51 147.16 219.03 152.60 220.98 160.02 L 220.80 162.16 C 219.88 160.49 218.96 158.83 218.04 157.17 C 214.62 151.61 212.14 146.42 210.65 140.02 C 211.41 137.49 211.63 135.52 210.40 133.10 C 211.05 130.19 211.08 127.04 212.13 124.25 C 214.68 123.10 215.34 121.87 216.18 119.29 C 216.50 118.35 216.78 117.39 217.01 116.41 C 221.75 111.69 226.76 106.54 233.47 104.87 Z" fill="#29283a" />
<path d="M 50.27 106.75 C 54.07 110.16 49.62 113.57 51.06 116.99 C 55.68 123.90 60.00 121.00 66.78 120.27 C 70.31 124.97 69.56 132.61 66.53 137.47 C 64.07 142.65 65.58 150.47 73.05 149.21 C 72.07 149.64 71.08 150.04 70.07 150.40 C 64.86 149.61 65.34 146.86 64.07 142.79 C 60.50 140.31 59.69 138.63 57.80 135.08 C 52.01 134.41 46.44 131.62 40.77 132.17 L 39.93 132.07 C 37.79 128.57 36.57 122.12 32.52 120.56 C 32.21 119.45 31.92 118.35 31.63 117.24 C 33.04 118.65 33.56 120.26 35.91 119.73 C 40.24 119.53 45.66 119.81 48.95 118.84 C 48.95 114.74 49.69 110.78 50.27 106.75 Z" fill="#b99450" />
<path d="M 161.66 107.46 C 165.02 108.08 168.36 107.46 171.72 108.04 C 172.89 108.71 174.06 109.38 175.24 110.04 C 176.22 112.79 170.53 113.71 172.95 116.00 C 175.36 118.72 172.50 119.88 171.42 122.32 C 171.28 124.79 172.65 127.44 172.89 129.94 C 172.75 132.80 167.77 130.94 167.99 133.86 C 168.76 134.96 172.27 135.79 170.29 137.16 C 169.63 138.61 164.63 134.10 166.76 137.40 C 169.71 140.82 160.31 141.99 161.98 144.51 C 160.96 145.15 159.89 145.74 158.94 146.48 C 158.80 150.05 153.66 149.47 151.09 150.46 C 148.65 148.17 155.99 148.95 156.18 146.40 C 153.85 146.76 151.51 147.32 149.20 147.73 C 145.46 146.58 142.99 146.25 139.19 147.35 C 136.57 146.78 134.02 145.96 131.52 145.00 C 133.68 144.36 135.90 143.98 138.06 143.32 C 140.68 142.66 145.23 137.11 145.21 142.91 C 147.83 146.57 151.31 141.29 152.07 138.49 C 153.49 138.62 154.85 138.78 156.25 138.38 C 159.26 137.47 163.49 136.63 161.55 132.43 C 160.79 128.79 155.72 125.68 156.19 122.33 C 163.45 120.07 162.84 112.47 158.02 108.10 C 159.24 107.91 160.45 107.68 161.66 107.46 Z" fill="#7e6661" />
<path d="M 175.24 110.04 C 176.68 110.81 177.72 111.94 178.85 113.08 C 179.22 114.12 179.58 115.16 179.94 116.20 C 180.40 118.62 178.78 124.58 181.87 125.34 L 182.15 126.53 C 179.80 127.01 178.40 132.16 182.27 130.13 C 184.51 131.92 184.19 134.46 181.16 132.69 C 178.58 135.53 175.72 137.97 172.74 140.37 C 172.82 138.17 174.69 136.84 175.84 134.92 C 172.57 136.42 169.72 139.06 167.25 141.64 C 165.52 142.65 163.76 143.60 161.98 144.51 C 160.31 141.99 169.71 140.82 166.76 137.40 C 164.63 134.10 169.63 138.61 170.29 137.16 C 172.27 135.79 168.76 134.96 167.99 133.86 C 167.77 130.94 172.75 132.80 172.89 129.94 C 172.65 127.44 171.28 124.79 171.42 122.32 C 172.50 119.88 175.36 118.72 172.95 116.00 C 170.53 113.71 176.22 112.79 175.24 110.04 Z" fill="#88736f" />
<path d="M 193.96 112.60 C 195.88 116.59 195.38 124.68 192.34 128.06 C 192.77 124.66 193.27 121.36 192.81 117.92 C 191.12 119.38 190.81 121.29 190.06 123.28 C 190.20 120.02 190.76 116.81 190.85 113.55 C 191.89 113.24 192.91 112.89 193.96 112.60 Z" fill="#74757f" />
<path d="M 117.72 114.11 C 118.08 116.39 118.41 118.67 118.79 120.95 C 117.63 122.53 116.34 124.06 115.31 125.72 C 116.74 126.60 118.23 127.36 119.75 128.08 C 120.64 129.19 121.48 130.34 122.16 131.60 C 116.37 131.03 110.08 129.15 105.90 124.91 C 107.17 119.54 114.88 119.42 117.72 114.11 Z" fill="#c7b38f" />
<path d="M 82.03 116.01 C 84.16 115.93 86.06 116.18 88.10 116.75 C 85.15 117.06 82.24 117.58 79.33 118.16 C 80.21 117.41 81.11 116.70 82.03 116.01 Z" fill="#6b4a3c" />
<path d="M 199.22 115.93 C 200.38 117.28 200.41 118.38 200.04 120.07 C 198.42 118.95 198.66 117.59 199.22 115.93 Z" fill="#7a7b7e" />
<path d="M 78.83 118.57 C 79.97 119.62 81.10 120.68 82.19 121.79 C 81.40 123.59 81.12 126.09 79.36 127.14 L 77.89 125.83 C 75.21 125.35 76.44 114.37 78.83 118.57 Z" fill="#e6c580" />
<path d="M 214.38 118.92 L 216.18 119.29 C 215.34 121.87 214.68 123.10 212.13 124.25 C 212.80 122.44 213.59 120.68 214.38 118.92 Z" fill="#79796a" />
<path d="M 32.52 120.56 C 36.57 122.12 37.79 128.57 39.93 132.07 C 34.36 133.09 33.86 124.37 32.52 120.56 Z" fill="#e6cea2" />
<path d="M 118.79 120.95 C 119.18 123.18 124.37 127.90 119.75 128.08 C 118.23 127.36 116.74 126.60 115.31 125.72 C 116.34 124.06 117.63 122.53 118.79 120.95 Z" fill="#a78668" />
<path d="M 189.91 124.22 C 189.95 126.65 188.58 125.32 186.99 125.47 C 188.25 122.42 187.92 118.66 189.91 124.22 Z" fill="#85857b" />
<path d="M 82.19 121.79 C 83.55 123.09 84.83 124.46 86.02 125.92 C 87.03 128.51 86.42 130.04 89.84 130.07 C 86.27 134.60 84.90 144.79 85.87 150.27 C 82.81 152.14 82.28 153.55 81.36 156.93 C 80.99 155.16 80.63 153.39 80.17 151.64 C 80.07 150.09 80.01 148.55 79.96 147.00 C 81.05 141.63 82.51 131.70 79.36 127.14 C 81.12 126.09 81.40 123.59 82.19 121.79 Z" fill="#caad55" />
<path d="M 153.04 130.64 C 151.40 131.59 149.68 132.45 148.15 133.57 C 150.49 134.65 152.85 135.59 154.97 137.10 L 156.25 138.38 C 154.85 138.78 153.49 138.62 152.07 138.49 C 148.37 137.51 142.83 136.85 140.93 133.03 C 143.15 128.94 147.81 127.35 150.35 123.32 C 154.57 118.51 151.96 128.74 153.04 130.64 Z" fill="#c7b390" />
<path d="M 77.89 125.83 L 79.36 127.14 C 82.51 131.70 81.05 141.63 79.96 147.00 C 78.40 147.02 76.83 147.03 75.26 147.09 C 76.58 140.69 75.69 134.46 76.07 128.03 C 75.95 126.76 76.56 126.02 77.89 125.83 Z" fill="#ab8852" />
<path d="M 86.02 125.92 C 87.41 127.04 88.83 128.13 90.24 129.22 L 89.84 130.07 C 86.42 130.04 87.03 128.51 86.02 125.92 Z" fill="#f8e296" />
<path d="M 182.15 126.53 C 182.55 127.76 182.43 128.87 182.27 130.13 C 178.40 132.16 179.80 127.01 182.15 126.53 Z" fill="#d4cfdb" />
<path d="M 90.24 129.22 C 92.88 131.14 95.04 133.49 97.22 135.90 C 91.05 138.03 87.10 143.46 87.97 150.12 L 86.92 150.21 L 85.87 150.27 C 84.90 144.79 86.27 134.60 89.84 130.07 L 90.24 129.22 Z" fill="#ad987a" />
<path d="M 153.04 130.64 C 154.62 132.46 158.53 135.09 154.97 137.10 C 152.85 135.59 150.49 134.65 148.15 133.57 C 149.68 132.45 151.40 131.59 153.04 130.64 Z" fill="#a58b6c" />
<path d="M 40.77 132.17 C 46.44 131.62 52.01 134.41 57.80 135.08 C 59.69 138.63 60.50 140.31 64.07 142.79 C 65.34 146.86 64.86 149.61 70.07 150.40 C 69.75 151.05 69.43 151.70 69.12 152.35 C 67.39 153.78 66.70 154.37 64.36 153.69 C 52.91 150.50 46.29 142.15 40.77 132.17 Z" fill="#977761" />
<path d="M 210.40 133.10 C 211.63 135.52 211.41 137.49 210.65 140.02 C 209.35 137.56 209.55 135.67 210.40 133.10 Z" fill="#818388" />
<path d="M 175.84 134.92 C 174.69 136.84 172.82 138.17 172.74 140.37 C 170.59 142.72 168.64 144.81 165.27 145.17 C 166.13 143.94 167.34 143.28 167.25 141.64 C 169.72 139.06 172.57 136.42 175.84 134.92 Z" fill="#52494f" />
<path d="M 214.69 134.90 C 215.23 136.27 215.27 137.66 214.80 139.07 C 213.30 137.58 213.35 136.48 214.69 134.90 Z" fill="#8a8879" />
<path d="M 97.22 135.90 C 97.81 136.44 98.41 136.99 99.01 137.53 C 97.19 139.46 99.19 140.22 101.04 139.94 C 102.80 141.18 104.55 142.41 106.24 143.74 C 105.00 146.23 103.80 148.75 102.47 151.20 C 101.70 149.17 102.83 147.65 100.10 148.92 C 100.08 147.42 100.06 145.93 99.97 144.44 C 96.09 146.59 91.89 148.03 87.97 150.12 C 87.10 143.46 91.05 138.03 97.22 135.90 Z" fill="#a0a4b0" />
<path d="M 122.10 139.13 C 128.37 136.42 133.44 139.08 138.06 143.32 C 135.90 143.98 133.68 144.36 131.52 145.00 C 129.96 145.22 126.23 143.61 125.75 145.72 C 121.50 143.42 117.41 140.84 113.78 137.63 C 117.26 137.15 118.63 140.88 122.10 139.13 Z" fill="#7c5849" />
<path d="M 99.01 137.53 C 99.85 138.14 100.53 138.94 101.04 139.94 C 99.19 140.22 97.19 139.46 99.01 137.53 Z" fill="#f5f5fb" />
<path d="M 99.97 144.44 C 100.06 145.93 100.08 147.42 100.10 148.92 C 99.87 150.96 99.51 152.98 99.08 154.99 C 98.04 156.34 96.98 157.66 95.96 159.02 C 94.83 160.27 93.63 161.43 92.35 162.53 C 85.07 163.23 88.95 154.64 87.97 150.12 C 91.89 148.03 96.09 146.59 99.97 144.44 Z" fill="#f0f1f0" />
<path d="M 106.24 143.74 C 111.41 147.96 115.07 153.40 120.71 157.29 C 127.41 166.46 137.11 170.21 148.20 170.69 C 141.73 171.02 148.08 172.17 150.01 173.72 C 147.68 173.93 145.34 174.00 143.02 174.27 C 143.02 176.52 146.87 176.93 144.79 178.76 C 143.73 179.89 141.55 179.96 140.12 180.46 C 142.39 181.64 149.14 183.34 142.83 184.87 C 138.03 183.49 135.82 180.11 130.64 178.74 C 134.21 173.99 127.12 176.17 125.00 177.57 C 126.34 177.86 127.68 178.16 129.03 178.45 C 124.59 180.85 121.18 177.60 118.68 183.07 C 117.36 181.89 116.20 180.35 114.37 180.06 C 114.25 182.01 114.23 183.96 113.93 185.90 C 112.93 186.29 111.93 186.68 110.94 187.08 C 110.38 185.34 110.08 183.21 108.96 181.74 C 105.18 186.33 106.55 191.32 105.33 196.68 C 101.50 200.93 98.48 204.94 92.62 206.48 C 91.12 207.26 87.62 206.41 88.14 208.84 C 89.78 208.74 91.41 208.50 93.05 208.35 C 91.24 210.01 89.09 210.89 86.90 211.90 C 83.90 211.33 80.14 208.43 78.01 211.88 C 77.40 211.57 76.79 211.25 76.18 210.94 C 75.94 206.96 73.68 210.13 73.15 206.69 C 72.83 204.10 70.45 205.31 68.77 205.67 C 58.06 209.57 46.85 207.52 39.99 198.42 C 40.09 196.55 42.29 194.15 38.99 194.52 C 34.15 193.32 39.11 190.94 41.12 190.14 L 41.98 190.13 C 44.00 190.79 46.04 191.40 48.07 192.01 C 50.33 193.17 53.42 197.09 55.03 193.03 C 51.38 186.69 44.80 180.77 39.17 176.09 C 39.03 177.39 38.94 178.69 38.88 180.00 C 38.15 178.51 37.69 176.83 37.19 175.24 L 37.87 174.10 C 39.31 170.88 37.96 167.12 40.19 163.69 C 40.40 165.16 40.53 166.64 40.70 168.12 C 43.17 166.58 41.02 160.08 45.92 162.22 C 49.16 160.60 48.12 160.25 50.88 162.84 C 53.99 160.18 52.97 161.34 55.12 163.90 C 62.81 165.43 67.39 173.21 75.95 175.23 C 80.99 176.92 87.47 178.25 92.75 178.81 C 93.18 177.53 93.44 176.21 93.76 174.90 C 94.14 173.37 99.29 173.09 97.27 171.09 C 94.86 167.44 97.59 163.24 95.96 159.02 C 96.98 157.66 98.04 156.34 99.08 154.99 C 102.19 159.54 101.58 153.40 102.47 151.20 C 103.80 148.75 105.00 146.23 106.24 143.74 Z" fill="#7e88a0" />
<path d="M 131.52 145.00 C 134.02 145.96 136.57 146.78 139.19 147.35 C 137.75 147.70 136.30 148.01 134.84 148.29 C 131.84 147.50 128.52 147.14 125.75 145.72 C 126.23 143.61 129.96 145.22 131.52 145.00 Z" fill="#c7c3c3" />
<path d="M 191.47 144.85 C 189.53 150.91 194.08 153.15 193.37 158.87 C 197.06 162.59 202.61 172.43 199.13 177.29 C 197.55 175.48 195.61 174.66 193.45 173.76 C 183.11 168.75 196.52 161.75 187.02 155.00 C 186.26 154.32 185.50 153.64 184.74 152.96 C 187.18 150.42 189.32 147.64 191.47 144.85 Z" fill="#ebebe6" />
<path d="M 149.20 147.73 C 147.02 149.11 139.89 147.46 142.11 151.42 C 140.52 151.27 138.92 151.13 137.34 150.91 C 140.03 148.12 136.80 149.23 134.84 148.29 C 136.30 148.01 137.75 147.70 139.19 147.35 C 142.99 146.25 145.46 146.58 149.20 147.73 Z" fill="#8e8287" />
<path d="M 156.18 146.40 C 155.99 148.95 148.65 148.17 151.09 150.46 C 148.17 150.98 145.09 151.55 142.11 151.42 C 139.89 147.46 147.02 149.11 149.20 147.73 C 151.51 147.32 153.85 146.76 156.18 146.40 Z" fill="#463f4c" />
<path d="M 75.26 147.09 C 76.83 147.03 78.40 147.02 79.96 147.00 C 80.01 148.55 80.07 150.09 80.17 151.64 L 78.25 152.07 C 75.05 152.88 72.36 153.25 69.12 152.35 C 69.43 151.70 69.75 151.05 70.07 150.40 C 71.08 150.04 72.07 149.64 73.05 149.21 C 73.82 148.54 74.56 147.83 75.26 147.09 Z" fill="#aea59b" />
<path d="M 102.47 151.20 C 101.58 153.40 102.19 159.54 99.08 154.99 C 99.51 152.98 99.87 150.96 100.10 148.92 C 102.83 147.65 101.70 149.17 102.47 151.20 Z" fill="#404359" />
<path d="M 85.87 150.27 L 86.92 150.21 C 87.03 155.51 86.66 160.66 88.05 165.86 C 84.67 165.57 81.31 166.05 77.94 165.82 C 77.65 160.68 79.88 156.78 78.25 152.07 L 80.17 151.64 C 80.63 153.39 80.99 155.16 81.36 156.93 C 82.28 153.55 82.81 152.14 85.87 150.27 Z" fill="#d9c68d" />
<path d="M 86.92 150.21 L 87.97 150.12 C 88.95 154.64 85.07 163.23 92.35 162.53 C 91.55 163.70 90.79 164.86 89.87 165.95 L 88.05 165.86 C 86.66 160.66 87.03 155.51 86.92 150.21 Z" fill="#dbd6c3" />
<path d="M 184.74 152.96 C 185.50 153.64 186.26 154.32 187.02 155.00 C 185.98 157.72 182.54 161.10 185.21 163.79 C 186.44 165.52 189.93 170.76 185.81 171.18 C 185.34 169.78 186.34 167.41 184.01 168.13 C 179.45 169.48 175.00 170.68 170.23 171.05 C 173.28 167.62 175.48 166.83 170.98 163.42 C 175.97 160.33 180.62 157.20 184.74 152.96 Z" fill="#adb3c0" />
<path d="M 47.32 155.33 C 46.85 155.65 46.38 155.97 45.91 156.28 C 44.04 156.35 42.59 156.84 40.93 157.64 L 39.66 156.56 C 42.61 154.69 43.86 153.02 47.32 155.33 Z" fill="#636474" />
<path d="M 47.32 155.33 C 50.51 155.59 54.54 154.33 56.83 157.00 C 55.90 157.06 54.98 157.13 54.06 157.22 C 58.79 162.69 64.98 165.51 71.96 166.86 C 74.01 167.35 75.96 168.03 77.92 168.80 C 77.30 174.18 74.05 171.39 71.01 170.13 C 71.14 174.10 75.52 171.67 75.95 175.23 C 67.39 173.21 62.81 165.43 55.12 163.90 C 52.97 161.34 53.99 160.18 50.88 162.84 C 48.12 160.25 49.16 160.60 45.92 162.22 C 41.02 160.08 43.17 166.58 40.70 168.12 C 40.53 166.64 40.40 165.16 40.19 163.69 C 41.40 160.13 42.64 158.37 45.91 156.28 C 46.38 155.97 46.85 155.65 47.32 155.33 Z" fill="#a9afbc" />
<path d="M 187.02 155.00 C 196.52 161.75 183.11 168.75 193.45 173.76 C 193.34 175.37 193.90 175.69 192.08 176.28 C 190.35 174.84 189.17 174.23 186.89 173.99 C 185.96 172.94 185.63 172.62 185.81 171.18 C 189.93 170.76 186.44 165.52 185.21 163.79 C 182.54 161.10 185.98 157.72 187.02 155.00 Z" fill="#c9ced2" />
<path d="M 45.91 156.28 C 42.64 158.37 41.40 160.13 40.19 163.69 C 37.96 167.12 39.31 170.88 37.87 174.10 C 36.51 169.56 35.91 160.17 40.93 157.64 C 42.59 156.84 44.04 156.35 45.91 156.28 Z" fill="#d6dae4" />
<path d="M 39.66 156.56 L 40.93 157.64 C 35.91 160.17 36.51 169.56 37.87 174.10 L 37.19 175.24 C 36.33 173.17 35.49 171.09 34.68 168.99 C 35.37 166.36 35.38 164.60 34.65 161.97 C 35.65 159.46 37.41 157.93 39.66 156.56 Z" fill="#232337" />
<path d="M 54.06 157.22 C 54.98 157.13 55.90 157.06 56.83 157.00 C 61.57 160.41 67.66 162.85 73.06 165.12 C 72.70 165.70 72.33 166.28 71.96 166.86 C 64.98 165.51 58.79 162.69 54.06 157.22 Z" fill="#2e2f43" />
<path d="M 218.04 157.17 C 218.96 158.83 219.88 160.49 220.80 162.16 C 221.18 168.36 226.26 174.44 225.23 180.37 C 222.59 180.99 221.31 177.02 219.44 175.57 C 217.43 172.47 212.99 170.49 212.12 166.94 C 213.33 162.46 212.88 158.57 218.04 157.17 Z" fill="#f0efed" />
<path d="M 198.12 158.07 C 200.89 158.57 201.09 162.92 204.42 163.87 C 204.81 169.23 205.81 175.28 204.18 180.45 L 202.92 179.23 C 204.39 171.07 197.87 165.38 198.12 158.07 Z" fill="#f3f1e6" />
<path d="M 95.96 159.02 C 97.59 163.24 94.86 167.44 97.27 171.09 C 94.20 171.15 91.27 173.65 88.39 172.72 C 87.82 171.28 87.38 169.79 86.93 168.31 C 87.95 167.56 88.97 166.83 89.87 165.95 C 90.79 164.86 91.55 163.70 92.35 162.53 C 93.63 161.43 94.83 160.27 95.96 159.02 Z" fill="#a6adb9" />
<path d="M 220.98 160.02 C 225.40 165.20 225.37 171.25 227.68 177.38 C 229.83 183.78 227.56 188.93 227.16 195.36 C 225.87 198.45 222.00 201.42 221.31 205.16 C 221.00 210.67 214.39 214.57 210.90 218.39 C 208.81 214.51 217.10 212.09 217.39 207.33 C 224.68 199.18 224.24 190.65 225.23 180.37 C 226.26 174.44 221.18 168.36 220.80 162.16 L 220.98 160.02 Z" fill="#504f5a" />
<path d="M 34.65 161.97 C 35.38 164.60 35.37 166.36 34.68 168.99 C 33.46 166.64 33.25 164.31 34.65 161.97 Z" fill="#a8a5b0" />
<path d="M 170.98 163.42 C 175.48 166.83 173.28 167.62 170.23 171.05 C 175.00 170.68 179.45 169.48 184.01 168.13 C 186.34 167.41 185.34 169.78 185.81 171.18 C 185.63 172.62 185.96 172.94 186.89 173.99 C 186.24 174.32 185.59 174.66 184.93 174.99 C 181.73 174.08 177.57 180.07 176.68 175.98 C 179.63 170.55 174.46 173.56 171.94 174.75 C 162.08 176.87 152.60 182.23 145.21 189.07 C 144.03 190.39 143.89 188.68 143.01 187.97 C 142.93 186.94 142.87 185.91 142.83 184.87 C 149.14 183.34 142.39 181.64 140.12 180.46 C 141.55 179.96 143.73 179.89 144.79 178.76 C 146.87 176.93 143.02 176.52 143.02 174.27 C 145.34 174.00 147.68 173.93 150.01 173.72 C 148.08 172.17 141.73 171.02 148.20 170.69 C 155.04 170.83 165.71 167.97 170.98 163.42 Z" fill="#929cae" />
<path d="M 73.06 165.12 C 74.69 165.35 76.31 165.66 77.94 165.82 C 81.31 166.05 84.67 165.57 88.05 165.86 L 89.87 165.95 C 88.97 166.83 87.95 167.56 86.93 168.31 C 83.83 168.44 80.83 168.07 77.92 168.80 C 75.96 168.03 74.01 167.35 71.96 166.86 C 72.33 166.28 72.70 165.70 73.06 165.12 Z" fill="#6a696b" />
<path d="M 86.93 168.31 C 87.38 169.79 87.82 171.28 88.39 172.72 C 91.27 173.65 94.20 171.15 97.27 171.09 C 99.29 173.09 94.14 173.37 93.76 174.90 C 93.44 176.21 93.18 177.53 92.75 178.81 C 87.47 178.25 80.99 176.92 75.95 175.23 C 75.52 171.67 71.14 174.10 71.01 170.13 C 74.05 171.39 77.30 174.18 77.92 168.80 C 80.83 168.07 83.83 168.44 86.93 168.31 Z" fill="#91979d" />
<path d="M 28.17 171.12 C 33.20 174.54 35.91 179.27 39.05 184.28 C 40.07 186.21 41.04 188.17 41.98 190.13 L 41.12 190.14 C 36.19 189.13 33.48 186.26 29.96 183.03 C 29.63 179.13 26.10 174.66 28.17 171.12 Z" fill="#c06232" />
<path d="M 176.68 175.98 C 166.54 177.96 154.97 182.52 147.71 190.03 C 148.69 192.63 148.33 193.77 145.75 195.07 C 145.99 191.79 143.13 190.95 143.01 187.97 C 143.89 188.68 144.03 190.39 145.21 189.07 C 152.60 182.23 162.08 176.87 171.94 174.75 C 174.46 173.56 179.63 170.55 176.68 175.98 Z" fill="#454c64" />
<path d="M 21.11 174.09 C 25.07 175.41 26.81 180.23 29.96 183.03 C 31.34 185.87 32.46 188.73 33.26 191.78 C 32.20 191.49 31.14 191.21 30.08 190.92 C 25.55 186.05 21.86 180.91 21.11 174.09 Z" fill="#ba6640" />
<path d="M 186.89 173.99 C 187.64 174.79 189.28 175.76 189.48 176.85 C 187.68 177.54 186.18 176.07 184.93 174.99 C 185.59 174.66 186.24 174.32 186.89 173.99 Z" fill="#687085" />
<path d="M 186.89 173.99 C 189.17 174.23 190.35 174.84 192.08 176.28 C 193.74 178.14 195.52 179.94 197.02 181.93 C 192.20 180.49 185.89 177.78 181.02 179.89 C 177.34 180.13 173.79 180.79 170.46 182.42 C 168.75 184.88 172.80 183.04 173.97 183.31 C 170.02 187.09 165.86 190.66 161.82 194.33 C 162.03 193.17 162.27 192.00 162.47 190.83 C 159.19 192.42 157.90 195.27 155.80 198.04 C 153.56 199.96 151.47 202.03 149.22 203.94 C 147.03 205.42 145.55 206.40 145.07 209.19 C 142.99 212.86 136.42 210.92 136.52 215.00 C 136.62 219.46 132.15 219.31 128.91 220.22 L 128.03 220.08 C 130.06 213.88 137.67 212.01 138.27 204.23 C 140.20 198.99 134.71 192.86 133.17 187.87 C 132.10 185.87 131.10 180.68 128.16 181.05 C 128.12 184.76 128.48 188.41 128.07 192.12 C 126.58 192.83 125.14 193.62 123.69 194.40 C 121.56 190.85 119.86 187.03 118.68 183.07 C 121.18 177.60 124.59 180.85 129.03 178.45 C 127.68 178.16 126.34 177.86 125.00 177.57 C 127.12 176.17 134.21 173.99 130.64 178.74 C 135.82 180.11 138.03 183.49 142.83 184.87 C 142.87 185.91 142.93 186.94 143.01 187.97 C 143.13 190.95 145.99 191.79 145.75 195.07 C 148.33 193.77 148.69 192.63 147.71 190.03 C 154.97 182.52 166.54 177.96 176.68 175.98 C 177.57 180.07 181.73 174.08 184.93 174.99 C 186.18 176.07 187.68 177.54 189.48 176.85 C 189.28 175.76 187.64 174.79 186.89 173.99 Z" fill="#242740" />
<path d="M 193.45 173.76 C 195.61 174.66 197.55 175.48 199.13 177.29 C 200.18 178.56 201.39 178.82 202.92 179.23 L 204.18 180.45 C 204.30 182.21 204.50 183.97 204.83 185.70 C 204.46 186.47 204.09 187.23 203.72 187.99 C 202.52 186.11 198.92 178.93 198.48 184.96 C 198.13 183.86 197.64 182.85 197.02 181.93 C 195.52 179.94 193.74 178.14 192.08 176.28 C 193.90 175.69 193.34 175.37 193.45 173.76 Z" fill="#9d9fa8" />
<path d="M 39.17 176.09 C 44.80 180.77 51.38 186.69 55.03 193.03 C 53.42 197.09 50.33 193.17 48.07 192.01 C 45.75 188.42 42.68 185.45 40.17 181.98 C 39.72 181.33 39.29 180.67 38.88 180.00 C 38.94 178.69 39.03 177.39 39.17 176.09 Z" fill="#b4633c" />
<path d="M 197.02 181.93 C 197.64 182.85 198.13 183.86 198.48 184.96 C 196.87 188.64 198.80 188.92 200.86 191.67 C 200.26 193.82 199.80 195.99 199.36 198.17 C 200.60 190.34 185.07 183.36 183.70 193.62 C 182.40 196.69 180.58 198.99 181.96 202.44 L 182.09 203.20 C 182.20 205.40 183.26 206.20 185.04 207.25 C 187.33 210.47 190.54 210.28 194.01 211.34 C 196.25 212.34 198.17 212.38 200.55 211.96 C 200.15 213.38 199.63 214.76 199.18 216.16 C 195.90 219.33 188.14 223.60 186.85 227.49 C 175.66 232.62 162.08 235.34 149.85 233.39 C 151.33 232.71 152.78 231.95 154.22 231.17 C 160.62 229.36 166.23 225.90 172.77 224.61 C 172.86 222.85 171.34 223.17 170.14 222.41 C 172.32 220.45 175.07 219.99 177.71 218.62 C 178.10 214.14 172.73 210.30 175.63 205.85 C 176.84 203.43 173.43 204.26 172.02 203.55 C 174.13 201.97 176.82 201.51 177.65 198.83 C 176.01 195.56 173.69 192.69 172.37 189.21 C 175.11 186.93 178.15 184.97 181.13 183.01 C 182.30 183.11 186.67 183.81 185.88 181.52 C 184.48 180.81 182.24 182.13 181.13 183.01 C 174.62 183.38 176.97 181.38 181.02 179.89 C 185.89 177.78 192.20 180.49 197.02 181.93 Z" fill="#b8bdc7" />
<path d="M 114.37 180.06 C 116.20 180.35 117.36 181.89 118.68 183.07 C 119.86 187.03 121.56 190.85 123.69 194.40 C 124.37 198.68 129.08 203.24 124.70 206.79 C 121.12 208.23 118.84 202.00 117.35 199.74 C 115.88 195.10 114.26 190.82 113.93 185.90 C 114.23 183.96 114.25 182.01 114.37 180.06 Z" fill="#b65835" />
<path d="M 181.02 179.89 C 176.97 181.38 174.62 183.38 181.13 183.01 C 178.15 184.97 175.11 186.93 172.37 189.21 C 173.69 192.69 176.01 195.56 177.65 198.83 C 176.82 201.51 174.13 201.97 172.02 203.55 C 173.43 204.26 176.84 203.43 175.63 205.85 C 172.73 210.30 178.10 214.14 177.71 218.62 C 175.07 219.99 172.32 220.45 170.14 222.41 C 171.34 223.17 172.86 222.85 172.77 224.61 C 166.23 225.90 160.62 229.36 154.22 231.17 C 149.29 229.29 141.56 232.63 139.03 226.65 C 135.29 224.98 132.48 222.15 128.91 220.22 C 132.15 219.31 136.62 219.46 136.52 215.00 C 136.42 210.92 142.99 212.86 145.07 209.19 C 146.89 207.66 150.41 206.96 149.22 203.94 C 151.47 202.03 153.56 199.96 155.80 198.04 C 159.29 199.43 160.04 196.59 161.82 194.33 C 165.86 190.66 170.02 187.09 173.97 183.31 C 172.80 183.04 168.75 184.88 170.46 182.42 C 173.79 180.79 177.34 180.13 181.02 179.89 Z" fill="#848fa5" />
<path d="M 128.16 181.05 C 131.10 180.68 132.10 185.87 133.17 187.87 C 134.71 192.86 140.20 198.99 138.27 204.23 C 130.46 205.41 130.43 197.44 128.07 192.12 C 128.48 188.41 128.12 184.76 128.16 181.05 Z" fill="#b75a33" />
<path d="M 185.88 181.52 C 186.67 183.81 182.30 183.11 181.13 183.01 C 182.24 182.13 184.48 180.81 185.88 181.52 Z" fill="#6a6e7d" />
<path d="M 187.05 181.05 C 188.68 180.86 194.80 182.44 191.91 184.71 C 190.30 183.82 187.02 183.24 187.05 181.05 Z" fill="#868b95" />
<path d="M 40.17 181.98 C 42.68 185.45 45.75 188.42 48.07 192.01 C 46.04 191.40 44.00 190.79 41.98 190.13 C 41.04 188.17 40.07 186.21 39.05 184.28 C 39.43 183.52 39.80 182.75 40.17 181.98 Z" fill="#c7b0a6" />
<path d="M 108.96 181.74 C 110.08 183.21 110.38 185.34 110.94 187.08 C 112.34 192.89 111.58 198.58 114.04 204.19 C 115.37 208.57 115.51 210.79 110.18 209.10 C 106.59 204.95 105.85 202.10 105.33 196.68 C 106.55 191.32 105.18 186.33 108.96 181.74 Z" fill="#b85c31" />
<path d="M 203.72 187.99 C 204.58 190.46 205.34 192.88 206.85 195.05 C 206.87 192.75 206.98 188.00 203.72 187.99 C 204.09 187.23 204.46 186.47 204.83 185.70 C 208.91 188.54 210.60 192.22 211.48 197.01 C 211.02 198.38 210.58 199.76 210.18 201.16 C 209.55 200.76 208.92 200.37 208.28 199.98 C 208.31 199.40 210.78 196.23 208.94 197.03 C 205.87 196.38 207.56 200.37 207.15 202.16 C 207.57 207.56 202.99 212.83 199.18 216.16 C 199.63 214.76 200.15 213.38 200.55 211.96 C 200.82 209.79 195.22 211.06 194.01 211.34 C 190.54 210.28 187.33 210.47 185.04 207.25 L 185.77 207.01 C 190.61 207.98 194.95 208.23 199.89 207.92 C 201.89 210.09 206.01 208.25 202.16 206.48 C 201.31 205.39 200.46 204.28 199.69 203.13 C 200.45 199.05 204.96 195.15 200.86 191.67 C 198.80 188.92 196.87 188.64 198.48 184.96 C 198.92 178.93 202.52 186.11 203.72 187.99 Z" fill="#22233a" />
<path d="M 29.96 183.03 C 33.48 186.26 36.19 189.13 41.12 190.14 C 39.11 190.94 34.15 193.32 38.99 194.52 C 42.29 194.15 40.09 196.55 39.99 198.42 C 37.54 196.38 35.36 194.17 33.26 191.78 C 32.46 188.73 31.34 185.87 29.96 183.03 Z" fill="#a8a2a3" />
<path d="M 215.26 183.04 C 218.70 186.72 220.52 188.37 219.77 193.78 C 222.47 199.97 217.67 205.34 213.12 209.04 C 209.93 210.41 210.43 214.31 206.91 211.17 C 209.66 208.42 210.79 205.70 212.02 202.09 C 214.76 195.96 215.85 189.73 215.26 183.04 Z" fill="#d7cea2" />
<path d="M 113.93 185.90 C 114.26 190.82 115.88 195.10 117.35 199.74 C 116.25 201.23 115.13 202.69 114.04 204.19 C 111.58 198.58 112.34 192.89 110.94 187.08 C 111.93 186.68 112.93 186.29 113.93 185.90 Z" fill="#372f36" />
<path d="M 199.36 198.17 C 199.17 199.39 198.99 200.62 198.80 201.85 C 195.10 204.92 193.38 206.87 190.64 201.37 C 188.48 196.49 193.25 201.01 194.89 201.72 C 200.00 198.50 191.70 195.67 189.07 195.01 C 186.44 196.10 185.09 201.22 183.93 203.74 C 183.32 203.56 182.70 203.38 182.09 203.20 L 181.96 202.44 C 183.52 199.53 185.87 196.89 183.70 193.62 C 185.07 183.36 200.60 190.34 199.36 198.17 Z" fill="#22243e" />
<path d="M 203.72 187.99 C 206.98 188.00 206.87 192.75 206.85 195.05 C 205.34 192.88 204.58 190.46 203.72 187.99 Z" fill="#666882" />
<path d="M 30.08 190.92 C 31.14 191.21 32.20 191.49 33.26 191.78 C 35.36 194.17 37.54 196.38 39.99 198.42 C 46.85 207.52 58.06 209.57 68.77 205.67 C 73.26 206.47 71.01 210.18 76.18 210.94 C 76.79 211.25 77.40 211.57 78.01 211.88 C 76.05 215.62 71.66 215.70 68.07 217.18 C 66.41 216.64 65.11 216.45 63.93 217.96 C 58.79 217.08 54.41 218.14 49.81 215.15 C 39.27 210.17 37.58 199.98 30.08 190.92 Z" fill="#252741" />
<path d="M 162.47 190.83 C 162.27 192.00 162.03 193.17 161.82 194.33 C 160.04 196.59 159.29 199.43 155.80 198.04 C 157.90 195.27 159.19 192.42 162.47 190.83 Z" fill="#5e5f7c" />
<path d="M 128.07 192.12 C 130.43 197.44 130.46 205.41 138.27 204.23 C 137.67 212.01 130.06 213.88 128.03 220.08 C 125.02 223.27 121.35 225.58 116.82 224.30 C 113.58 223.37 112.72 226.06 111.08 228.14 C 109.23 228.64 107.14 228.24 105.22 228.29 C 102.51 227.74 98.32 229.00 97.13 225.83 C 94.09 222.91 101.72 222.44 100.07 219.53 C 103.51 216.09 107.08 212.87 110.18 209.10 C 115.51 210.79 115.37 208.57 114.04 204.19 C 115.13 202.69 116.25 201.23 117.35 199.74 C 118.84 202.00 121.12 208.23 124.70 206.79 C 129.08 203.24 124.37 198.68 123.69 194.40 C 125.14 193.62 126.58 192.83 128.07 192.12 Z" fill="#848ba1" />
<path d="M 200.86 191.67 C 204.96 195.15 200.45 199.05 199.69 203.13 L 198.80 201.85 C 198.99 200.62 199.17 199.39 199.36 198.17 C 199.80 195.99 200.26 193.82 200.86 191.67 Z" fill="#eeeff4" />
<path d="M 183.70 193.62 C 185.87 196.89 183.52 199.53 181.96 202.44 C 180.58 198.99 182.40 196.69 183.70 193.62 Z" fill="#5e6476" />
<path d="M 189.07 195.01 C 191.70 195.67 200.00 198.50 194.89 201.72 C 193.25 201.01 188.48 196.49 190.64 201.37 C 193.38 206.87 195.10 204.92 198.80 201.85 L 199.69 203.13 C 200.46 204.28 201.31 205.39 202.16 206.48 C 201.37 206.91 200.62 207.39 199.89 207.92 C 194.95 208.23 190.61 207.98 185.77 207.01 C 185.25 205.86 184.60 204.80 183.93 203.74 C 185.09 201.22 186.44 196.10 189.07 195.01 Z" fill="#bec0cb" />
<path d="M 105.33 196.68 C 105.85 202.10 106.59 204.95 110.18 209.10 C 107.08 212.87 103.51 216.09 100.07 219.53 C 96.79 221.57 93.58 223.52 89.79 224.45 C 88.35 223.26 86.44 222.16 85.43 220.57 C 86.69 219.20 87.93 219.20 87.14 217.09 C 90.19 215.99 90.77 214.91 86.93 214.53 L 86.91 213.75 L 86.90 211.90 C 89.09 210.89 91.24 210.01 93.05 208.35 C 91.41 208.50 89.78 208.74 88.14 208.84 C 87.62 206.41 91.12 207.26 92.62 206.48 C 98.48 204.94 101.50 200.93 105.33 196.68 Z" fill="#292a43" />
<path d="M 208.94 197.03 C 210.78 196.23 208.31 199.40 208.28 199.98 C 207.90 200.71 207.52 201.43 207.15 202.16 C 207.56 200.37 205.87 196.38 208.94 197.03 Z" fill="#838590" />
<path d="M 211.48 197.01 C 212.10 198.68 212.49 200.31 212.02 202.09 C 211.37 201.84 210.76 201.53 210.18 201.16 C 210.58 199.76 211.02 198.38 211.48 197.01 Z" fill="#7f7e78" />
<path d="M 182.09 203.20 C 182.70 203.38 183.32 203.56 183.93 203.74 C 184.60 204.80 185.25 205.86 185.77 207.01 L 185.04 207.25 C 183.26 206.20 182.20 205.40 182.09 203.20 Z" fill="#5f606f" />
<path d="M 149.22 203.94 C 150.41 206.96 146.89 207.66 145.07 209.19 C 145.55 206.40 147.03 205.42 149.22 203.94 Z" fill="#535c74" />
<path d="M 73.15 206.69 C 73.68 210.13 75.94 206.96 76.18 210.94 C 71.01 210.18 73.26 206.47 68.77 205.67 C 70.45 205.31 72.83 204.10 73.15 206.69 Z" fill="#4e5770" />
<path d="M 202.16 206.48 C 206.01 208.25 201.89 210.09 199.89 207.92 C 200.62 207.39 201.37 206.91 202.16 206.48 Z" fill="#6f7085" />
<path d="M 86.90 211.90 L 86.91 213.75 C 84.00 212.68 81.14 211.93 78.01 211.88 C 80.14 208.43 83.90 211.33 86.90 211.90 Z" fill="#babbc6" />
<path d="M 194.01 211.34 C 195.22 211.06 200.82 209.79 200.55 211.96 C 198.17 212.38 196.25 212.34 194.01 211.34 Z" fill="#797997" />
<path d="M 86.93 214.53 C 90.77 214.91 90.19 215.99 87.14 217.09 C 86.72 216.20 86.65 215.34 86.93 214.53 Z" fill="#a6a7b8" />
<path d="M 199.18 216.16 C 198.03 218.31 196.65 220.08 194.93 221.80 C 192.10 223.53 189.77 225.92 186.85 227.49 C 188.14 223.60 195.90 219.33 199.18 216.16 Z" fill="#373846" />
<path d="M 68.07 217.18 C 66.71 218.42 65.64 218.42 63.93 217.96 C 65.11 216.45 66.41 216.64 68.07 217.18 Z" fill="#7c7a8c" />
<path d="M 100.07 219.53 C 101.72 222.44 94.09 222.91 97.13 225.83 C 98.32 229.00 102.51 227.74 105.22 228.29 C 100.89 230.35 91.77 229.46 89.79 224.45 C 93.58 223.52 96.79 221.57 100.07 219.53 Z" fill="#acb4c1" />
<path d="M 128.03 220.08 L 128.91 220.22 C 132.48 222.15 135.29 224.98 139.03 226.65 C 141.56 232.63 149.29 229.29 154.22 231.17 C 152.78 231.95 151.33 232.71 149.85 233.39 C 141.15 232.04 135.62 238.62 126.40 233.59 C 121.49 229.27 118.20 225.32 111.08 228.14 C 112.72 226.06 113.58 223.37 116.82 224.30 C 121.35 225.58 125.02 223.27 128.03 220.08 Z" fill="#9ea5b5" />
</svg>