<?xml version="1.0" encoding="UTF-8" standalone="no"?>
<!DOCTYPE svg PUBLIC "-//W3C//DTD SVG 1.1//EN" "http://www.w3.org/Graphics/SVG/1.1/DTD/svg11.dtd">
<svg xmlns="http://www.w3.org/2000/svg" version="1.1" viewBox="0 0 256 256" width="256.0pt" height="256.0pt">
<path d="M 0.00 0.00 L 256.00 0.00 L 256.00 256.00 L 0.00 256.00 L 0.00 0.00 Z" fill="#ffffff" />
<path d="M 121.88 24.10 C 129.53 24.83 135.99 28.03 142.83 31.22 C 150.12 34.67 157.59 35.18 165.17 37.74 C 171.89 39.79 177.34 43.41 183.66 46.41 C 189.89 49.41 194.77 53.60 200.29 57.70 C 206.79 62.55 212.02 69.01 215.67 76.24 C 219.14 83.16 223.21 89.58 226.07 96.82 C 227.53 100.56 229.29 104.04 231.83 107.17 C 236.08 112.38 237.52 118.47 239.26 124.84 C 240.75 130.17 238.60 134.87 237.13 139.94 C 236.03 143.66 234.40 146.89 231.72 149.72 C 224.02 157.94 217.60 167.38 212.56 177.45 C 207.92 188.00 204.43 201.44 195.22 209.19 C 185.27 217.00 175.00 224.59 164.10 231.04 C 154.74 236.66 144.12 239.72 133.26 240.41 C 128.57 240.67 123.76 240.15 119.01 240.07 C 114.66 239.95 110.31 240.16 105.96 240.06 C 97.90 240.01 89.64 236.85 83.79 231.26 C 86.60 230.38 89.40 229.52 92.28 228.87 C 94.62 229.05 96.92 229.48 99.23 229.92 C 103.22 230.78 107.21 229.93 111.21 230.89 C 118.28 232.58 124.35 230.79 131.65 230.82 C 139.49 230.74 146.94 228.73 154.29 226.17 C 159.55 224.49 162.75 220.10 167.90 218.07 C 167.15 217.95 166.41 217.83 165.67 217.71 C 172.17 213.87 178.83 210.29 185.20 206.20 C 190.42 203.02 194.50 197.95 197.76 192.86 C 197.33 192.02 196.85 191.21 196.33 190.42 C 199.51 184.90 200.63 178.95 201.69 172.76 C 199.48 175.38 197.60 178.08 195.99 181.11 L 195.21 180.83 C 194.54 176.42 195.09 172.17 195.84 167.81 C 196.28 169.54 196.78 171.26 197.27 172.97 C 198.21 171.02 198.95 168.60 200.46 167.02 C 202.22 166.79 204.16 167.09 205.87 166.66 C 208.12 165.11 209.71 162.39 211.16 160.12 C 212.69 157.55 214.08 154.91 215.47 152.26 C 217.12 148.76 219.47 146.01 222.16 143.28 C 224.56 140.90 224.49 137.48 225.04 134.33 C 223.74 133.33 222.44 132.33 221.14 131.33 C 222.61 131.02 224.08 130.71 225.56 130.40 C 225.04 127.68 224.54 124.95 224.19 122.20 C 223.97 116.00 221.21 111.02 218.16 105.80 C 217.52 104.50 216.86 103.20 216.20 101.91 C 214.87 96.46 213.14 91.57 210.50 86.62 L 210.14 85.87 C 208.11 81.49 206.57 77.32 203.34 73.62 C 200.40 70.30 197.21 67.06 193.65 64.41 C 191.38 62.72 188.88 62.35 186.18 61.81 C 185.47 61.17 184.75 60.54 184.04 59.90 C 183.36 59.29 182.69 58.69 182.01 58.08 C 181.30 58.70 180.59 59.31 179.88 59.93 C 179.65 58.14 179.69 55.99 178.87 54.36 C 177.77 53.96 176.64 53.68 175.50 53.41 C 173.95 52.57 172.44 51.66 170.91 50.78 C 168.31 49.09 165.95 48.03 162.94 47.25 C 158.75 45.52 154.39 44.98 150.03 43.93 C 148.40 43.17 146.83 42.40 145.05 42.07 C 140.60 41.22 136.62 39.06 132.18 38.13 C 128.10 37.27 124.05 36.57 120.15 35.02 C 120.51 32.93 120.86 30.84 121.21 28.74 C 118.54 28.39 115.87 28.10 113.18 28.01 C 113.33 30.71 113.65 33.38 114.01 36.06 C 107.35 45.22 95.06 46.61 86.93 53.91 C 85.01 54.96 83.07 55.98 81.22 57.14 C 77.19 59.64 73.50 62.73 70.00 65.93 C 67.70 67.97 65.52 70.17 63.46 72.46 C 60.70 75.53 59.07 78.95 56.75 82.31 C 53.06 87.16 48.95 91.06 43.09 93.10 C 41.37 92.07 39.68 90.79 37.79 90.08 C 35.56 89.97 34.32 91.23 32.66 92.48 C 31.34 91.84 30.03 91.21 28.70 90.60 C 30.16 91.62 31.72 92.56 33.06 93.72 C 33.89 95.16 34.23 96.90 34.78 98.47 C 36.25 98.55 37.72 98.62 39.19 98.66 C 40.25 102.43 41.22 106.13 41.72 110.03 C 40.12 112.42 38.37 115.07 38.24 118.03 C 38.06 121.50 39.87 125.07 41.03 128.28 C 41.32 133.47 41.30 138.67 41.69 143.86 C 40.40 146.80 38.09 149.34 37.07 152.37 C 36.81 153.94 38.49 155.81 39.21 157.13 C 37.40 156.77 35.59 156.45 33.77 156.12 C 33.41 164.72 37.03 173.47 43.12 179.49 C 46.79 181.11 49.39 182.70 51.60 186.12 C 53.43 188.70 55.54 191.07 57.89 193.19 C 61.56 195.38 66.15 196.16 70.18 197.68 C 76.17 199.26 79.80 204.37 85.66 206.55 C 92.19 210.18 99.28 212.91 106.28 215.48 C 103.29 216.32 100.32 217.13 97.26 217.63 C 100.26 218.41 102.96 219.50 105.57 221.21 C 102.29 221.29 99.07 220.90 95.83 220.43 C 96.42 221.27 97.01 222.09 97.59 222.92 C 95.64 223.48 93.70 224.08 91.78 224.72 C 97.29 225.09 102.79 225.40 108.30 225.92 C 102.65 226.77 96.99 226.29 91.33 226.92 C 87.72 225.97 83.86 225.42 80.41 224.00 C 78.81 220.91 78.40 217.77 75.85 215.14 C 70.40 209.39 62.12 205.65 55.30 201.73 C 48.06 197.90 41.92 191.57 36.49 185.51 C 30.73 179.08 27.06 171.14 25.31 162.72 C 24.63 159.07 25.48 155.81 26.32 152.29 C 27.80 146.52 28.86 140.64 29.65 134.74 C 30.56 127.92 29.40 121.79 28.99 115.00 C 28.57 108.84 28.11 102.69 27.50 96.54 C 26.45 96.16 25.41 95.78 24.36 95.40 C 27.14 92.48 28.25 88.75 30.50 85.54 C 33.90 82.25 38.51 80.13 42.37 77.41 C 48.73 73.37 53.49 68.03 58.65 62.66 C 63.27 57.81 68.52 53.84 74.03 50.05 C 81.11 45.22 88.72 42.43 95.32 37.31 C 99.84 33.87 103.75 29.72 108.13 26.13 C 111.79 22.78 117.35 23.76 121.88 24.10 Z" fill="#f5f4f2" />
<path d="M 113.18 28.01 C 115.87 28.10 118.54 28.39 121.21 28.74 C 120.86 30.84 120.51 32.93 120.15 35.02 C 117.65 33.45 115.59 31.50 113.65 29.30 C 114.30 30.92 114.99 32.52 115.67 34.13 C 115.12 34.77 114.57 35.42 114.01 36.06 C 113.65 33.38 113.33 30.71 113.18 28.01 Z" fill="#efe6cf" />
<path d="M 113.65 29.30 C 115.59 31.50 117.65 33.45 120.15 35.02 C 124.05 36.57 128.10 37.27 132.18 38.13 C 136.62 39.06 140.60 41.22 145.05 42.07 C 146.83 42.40 148.40 43.17 150.03 43.93 C 148.80 43.70 147.58 43.49 146.35 43.29 C 143.95 42.83 141.59 42.18 139.21 41.65 C 136.64 40.95 133.65 41.91 131.00 42.12 C 125.80 41.81 121.20 40.06 116.18 38.98 C 115.06 39.72 113.98 40.51 112.89 41.29 C 112.25 41.76 111.61 42.22 110.96 42.68 C 108.52 44.27 106.07 45.82 103.45 47.11 C 96.51 49.69 91.43 55.02 84.67 57.80 C 85.38 56.48 86.11 55.18 86.93 53.91 C 95.06 46.61 107.35 45.22 114.01 36.06 C 114.57 35.42 115.12 34.77 115.67 34.13 C 114.99 32.52 114.30 30.92 113.65 29.30 Z" fill="#2c1d2c" />
<path d="M 116.18 38.98 C 121.20 40.06 125.80 41.81 131.00 42.12 C 130.29 43.10 129.58 44.08 128.88 45.07 C 125.99 45.30 123.20 45.97 120.42 46.72 C 117.48 45.43 115.15 43.52 112.89 41.29 C 113.98 40.51 115.06 39.72 116.18 38.98 Z" fill="#cbbf2a" />
<path d="M 139.21 41.65 C 141.59 42.18 143.95 42.83 146.35 43.29 C 143.62 44.12 140.97 45.15 138.30 46.11 C 137.54 46.37 136.78 46.61 136.02 46.83 C 133.65 46.22 131.27 45.57 128.88 45.07 C 129.58 44.08 130.29 43.10 131.00 42.12 C 133.65 41.91 136.64 40.95 139.21 41.65 Z" fill="#efdbcb" />
<path d="M 112.89 41.29 C 115.15 43.52 117.48 45.43 120.42 46.72 C 117.17 47.81 113.88 48.74 110.59 49.70 C 106.85 50.78 103.87 52.91 100.40 54.53 C 99.40 54.94 98.37 55.28 97.33 55.61 C 91.15 57.35 85.10 59.47 78.91 61.18 C 80.37 59.76 81.72 58.25 83.07 56.73 L 81.22 57.14 C 83.07 55.98 85.01 54.96 86.93 53.91 C 86.11 55.18 85.38 56.48 84.67 57.80 C 91.43 55.02 96.51 49.69 103.45 47.11 C 107.24 47.18 110.93 47.02 114.69 46.54 C 114.35 45.41 114.04 44.28 113.76 43.13 C 112.83 42.97 111.89 42.82 110.96 42.68 C 111.61 42.22 112.25 41.76 112.89 41.29 Z" fill="#e9cec2" />
<path d="M 110.96 42.68 C 111.89 42.82 112.83 42.97 113.76 43.13 C 114.04 44.28 114.35 45.41 114.69 46.54 C 110.93 47.02 107.24 47.18 103.45 47.11 C 106.07 45.82 108.52 44.27 110.96 42.68 Z" fill="#eeebe4" />
<path d="M 146.35 43.29 C 147.58 43.49 148.80 43.70 150.03 43.93 C 154.39 44.98 158.75 45.52 162.94 47.25 C 163.75 47.77 164.55 48.30 165.35 48.84 C 164.25 49.73 163.20 50.78 161.97 51.49 C 159.79 51.82 157.44 51.45 155.23 51.42 C 151.74 51.12 148.24 50.27 144.80 49.61 C 143.00 49.45 141.04 49.25 139.30 48.70 C 138.92 47.86 138.61 46.98 138.30 46.11 C 140.97 45.15 143.62 44.12 146.35 43.29 Z" fill="#cf5236" />
<path d="M 128.88 45.07 C 131.27 45.57 133.65 46.22 136.02 46.83 C 130.53 47.95 125.45 48.87 120.65 51.97 C 116.35 53.82 112.27 55.86 108.30 58.35 C 105.99 59.81 103.64 60.62 100.94 60.96 C 100.83 58.81 100.61 56.68 100.40 54.53 C 103.87 52.91 106.85 50.78 110.59 49.70 C 113.88 48.74 117.17 47.81 120.42 46.72 C 123.20 45.97 125.99 45.30 128.88 45.07 Z" fill="#dba595" />
<path d="M 138.30 46.11 C 138.61 46.98 138.92 47.86 139.30 48.70 C 141.04 49.25 143.00 49.45 144.80 49.61 C 148.24 50.27 151.74 51.12 155.23 51.42 C 157.32 55.12 160.90 55.58 164.35 57.66 C 168.12 59.59 171.58 62.93 175.61 64.16 C 179.39 64.92 181.75 62.42 184.04 59.90 C 184.75 60.54 185.47 61.17 186.18 61.81 L 186.70 62.28 C 187.47 64.89 188.53 66.61 190.51 68.50 C 193.50 71.35 196.21 74.33 198.35 77.89 C 196.29 77.09 194.24 76.26 192.22 75.37 C 193.08 77.86 193.94 80.22 194.31 82.85 L 194.08 84.36 C 191.22 82.21 188.21 80.34 185.16 78.48 C 182.17 76.51 179.06 74.98 175.42 74.74 C 173.93 77.46 172.55 80.24 171.22 83.04 C 170.07 80.54 169.12 78.10 169.37 75.28 C 169.61 71.23 169.83 67.51 167.92 63.80 C 166.97 71.28 166.78 78.40 170.26 85.33 C 169.41 87.61 168.69 89.93 168.01 92.27 C 167.43 94.31 166.87 96.36 166.35 98.41 C 166.29 97.75 166.21 97.10 166.12 96.44 C 165.52 97.12 164.93 97.79 164.33 98.47 C 163.46 97.82 162.60 97.16 161.73 96.50 C 161.83 94.73 161.88 92.96 161.93 91.19 C 160.20 91.73 158.48 92.28 156.75 92.81 C 157.15 89.79 156.94 86.62 157.59 83.65 C 158.34 80.91 160.28 78.52 161.16 75.86 C 161.49 73.14 159.46 70.67 157.81 68.73 C 156.99 67.11 156.10 65.53 155.13 64.00 C 154.74 63.34 154.31 62.71 153.85 62.12 C 151.48 59.90 145.72 56.09 142.87 59.14 C 142.36 61.74 142.68 64.24 143.14 66.81 C 142.31 65.82 141.61 64.70 140.68 63.81 C 138.33 64.14 136.21 65.02 134.00 65.81 C 134.68 67.85 136.23 69.36 134.29 71.24 C 131.25 72.97 126.84 72.09 123.70 73.73 C 122.32 74.74 121.25 76.03 120.05 77.29 C 121.32 77.87 122.60 78.44 123.86 79.05 L 124.18 79.61 C 123.26 79.63 122.34 79.68 121.42 79.80 C 119.48 80.42 117.53 81.36 115.51 81.70 C 113.93 81.77 112.26 81.15 110.74 80.76 C 111.52 78.51 111.98 76.06 113.02 73.93 C 115.13 71.91 118.53 70.62 120.14 68.17 C 121.60 65.56 122.06 62.25 122.65 59.34 C 125.49 57.05 128.72 56.13 132.11 54.95 C 128.35 53.74 124.55 52.66 120.65 51.97 C 125.45 48.87 130.53 47.95 136.02 46.83 C 136.78 46.61 137.54 46.37 138.30 46.11 Z" fill="#d99b88" />
<path d="M 170.91 50.78 C 169.28 51.08 167.67 51.46 166.05 51.85 C 168.62 53.49 171.30 54.93 174.02 56.30 C 174.52 55.34 175.01 54.38 175.50 53.41 C 176.64 53.68 177.77 53.96 178.87 54.36 C 179.69 55.99 179.65 58.14 179.88 59.93 C 180.59 59.31 181.30 58.70 182.01 58.08 C 182.69 58.69 183.36 59.29 184.04 59.90 C 181.75 62.42 179.39 64.92 175.61 64.16 C 171.58 62.93 168.12 59.59 164.35 57.66 C 160.90 55.58 157.32 55.12 155.23 51.42 C 157.44 51.45 159.79 51.82 161.97 51.49 C 163.20 50.78 164.25 49.73 165.35 48.84 C 164.55 48.30 163.75 47.77 162.94 47.25 C 165.95 48.03 168.31 49.09 170.91 50.78 Z" fill="#e5baac" />
<path d="M 170.91 50.78 C 172.44 51.66 173.95 52.57 175.50 53.41 C 175.01 54.38 174.52 55.34 174.02 56.30 C 171.30 54.93 168.62 53.49 166.05 51.85 C 167.67 51.46 169.28 51.08 170.91 50.78 Z" fill="#c46d5b" />
<path d="M 120.65 51.97 C 124.55 52.66 128.35 53.74 132.11 54.95 C 128.72 56.13 125.49 57.05 122.65 59.34 C 119.87 62.33 117.55 67.15 113.76 68.80 C 109.80 70.58 105.81 69.36 101.82 68.45 C 103.03 70.19 104.65 72.04 105.21 74.10 C 104.74 80.72 99.58 86.93 93.79 89.85 C 91.72 90.96 89.57 90.62 87.31 90.65 C 87.59 89.67 87.87 88.69 88.15 87.71 C 88.58 86.18 88.98 84.65 89.39 83.11 C 88.34 81.59 87.27 80.08 86.21 78.56 C 87.51 78.96 88.81 79.37 90.11 79.77 C 90.06 77.31 89.67 75.10 88.93 72.74 C 90.27 71.80 91.61 70.87 92.95 69.94 C 92.03 68.91 91.11 67.88 90.19 66.86 C 90.90 66.66 91.61 66.47 92.32 66.27 C 95.76 65.58 98.20 63.87 100.58 61.37 L 100.94 60.96 C 103.64 60.62 105.99 59.81 108.30 58.35 C 112.27 55.86 116.35 53.82 120.65 51.97 Z" fill="#d38b77" />
<path d="M 132.81 53.40 C 136.97 53.56 141.00 54.25 144.73 56.17 C 142.86 56.26 140.98 56.31 139.11 56.32 C 137.58 56.33 136.06 56.36 134.53 56.41 C 133.97 55.40 133.37 54.41 132.81 53.40 Z" fill="#4b3032" />
<path d="M 100.40 54.53 C 100.61 56.68 100.83 58.81 100.94 60.96 L 100.58 61.37 C 99.97 61.03 99.36 60.69 98.76 60.35 C 98.38 60.12 98.01 59.89 97.64 59.66 C 97.52 58.31 97.41 56.96 97.33 55.61 C 98.37 55.28 99.40 54.94 100.40 54.53 Z" fill="#c36b52" />
<path d="M 97.33 55.61 C 97.41 56.96 97.52 58.31 97.64 59.66 C 96.20 61.03 94.57 63.12 92.57 63.63 C 89.71 64.26 86.47 63.12 83.69 62.45 C 79.64 62.25 76.36 65.17 72.92 66.99 C 74.81 64.94 76.78 62.98 78.91 61.18 C 85.10 59.47 91.15 57.35 97.33 55.61 Z" fill="#d58c7a" />
<path d="M 134.53 56.41 C 136.06 56.36 137.58 56.33 139.11 56.32 C 140.04 58.64 141.18 60.60 140.28 63.17 C 137.73 61.43 136.19 58.97 134.53 56.41 Z" fill="#775a5b" />
<path d="M 81.22 57.14 L 83.07 56.73 C 81.72 58.25 80.37 59.76 78.91 61.18 C 76.78 62.98 74.81 64.94 72.92 66.99 C 76.36 65.17 79.64 62.25 83.69 62.45 C 79.82 65.48 79.06 69.68 76.70 73.69 C 75.48 76.28 72.43 76.12 70.02 76.90 C 72.00 77.46 73.97 78.08 75.97 78.57 C 74.43 79.18 72.95 79.47 71.90 80.86 C 69.52 83.97 67.40 87.13 64.34 89.65 C 61.45 89.10 58.58 88.96 55.65 89.06 C 57.00 87.34 58.18 85.53 59.39 83.71 C 63.25 77.57 67.66 71.86 71.80 65.92 L 70.00 65.93 C 73.50 62.73 77.19 59.64 81.22 57.14 Z" fill="#d46f55" />
<path d="M 153.85 62.12 C 152.25 62.72 150.53 63.23 149.05 64.10 C 148.10 65.31 147.45 66.83 146.74 68.19 C 146.20 68.71 145.67 69.23 145.14 69.75 C 144.50 68.75 143.83 67.77 143.14 66.81 C 142.68 64.24 142.36 61.74 142.87 59.14 C 145.72 56.09 151.48 59.90 153.85 62.12 Z" fill="#cac22b" />
<path d="M 98.76 60.35 C 99.36 60.69 99.97 61.03 100.58 61.37 C 98.20 63.87 95.76 65.58 92.32 66.27 C 89.28 65.85 86.28 65.27 83.24 64.92 C 82.66 68.20 82.90 71.81 81.80 74.96 C 80.77 77.25 78.13 77.84 75.97 78.57 C 73.97 78.08 72.00 77.46 70.02 76.90 C 72.43 76.12 75.48 76.28 76.70 73.69 C 79.06 69.68 79.82 65.48 83.69 62.45 C 86.47 63.12 89.71 64.26 92.57 63.63 C 94.57 63.12 96.20 61.03 97.64 59.66 C 98.01 59.89 98.38 60.12 98.76 60.35 Z" fill="#bb2505" />
<path d="M 122.65 59.34 C 122.06 62.25 121.60 65.56 120.14 68.17 C 118.53 70.62 115.13 71.91 113.02 73.93 C 111.98 76.06 111.52 78.51 110.74 80.76 C 109.90 82.90 108.86 84.93 107.69 86.91 C 104.37 90.33 100.78 92.84 96.15 94.18 C 93.40 93.90 90.68 93.39 87.96 93.06 C 85.32 97.67 83.25 102.12 78.65 105.17 C 75.80 105.48 72.98 105.28 70.13 105.06 C 73.05 103.70 76.84 102.49 78.84 99.86 C 80.83 97.29 82.13 93.98 83.47 91.03 C 80.59 88.34 77.91 85.52 75.67 82.26 C 78.58 82.26 82.17 81.89 84.88 83.11 C 86.54 83.83 87.31 86.22 88.15 87.71 C 87.87 88.69 87.59 89.67 87.31 90.65 C 89.57 90.62 91.72 90.96 93.79 89.85 C 99.58 86.93 104.74 80.72 105.21 74.10 C 104.65 72.04 103.03 70.19 101.82 68.45 C 105.81 69.36 109.80 70.58 113.76 68.80 C 117.55 67.15 119.87 62.33 122.65 59.34 Z" fill="#b92303" />
<path d="M 193.65 64.41 C 197.21 67.06 200.40 70.30 203.34 73.62 C 206.57 77.32 208.11 81.49 210.14 85.87 C 208.39 85.27 206.72 87.69 209.12 87.93 L 210.50 86.62 C 213.14 91.57 214.87 96.46 216.20 101.91 C 213.09 99.09 211.23 96.27 209.35 92.55 C 208.64 90.94 207.26 90.83 205.82 90.16 C 205.14 89.87 204.46 89.56 203.80 89.23 C 205.29 87.70 207.02 86.13 207.93 84.18 C 207.04 82.78 205.89 81.52 204.77 80.29 C 198.79 74.17 193.37 67.71 186.70 62.28 L 186.18 61.81 C 188.88 62.35 191.38 62.72 193.65 64.41 Z" fill="#e1ab9a" />
<path d="M 153.85 62.12 C 151.73 64.91 149.78 66.52 146.74 68.19 C 147.45 66.83 148.10 65.31 149.05 64.10 C 150.53 63.23 152.25 62.72 153.85 62.12 Z" fill="#2c3516" />
<path d="M 153.85 62.12 C 154.31 62.71 154.74 63.34 155.13 64.00 C 155.59 67.05 156.96 70.74 155.61 73.64 C 154.78 76.05 153.55 78.63 153.26 81.16 C 153.08 83.49 153.72 85.99 154.16 88.27 C 154.83 86.86 155.48 85.45 156.06 84.01 C 155.38 87.39 154.61 90.84 154.39 94.29 L 156.11 95.15 C 157.32 95.73 158.53 96.30 159.74 96.86 C 156.13 97.77 155.34 100.81 153.64 103.69 C 153.01 104.93 152.37 106.16 151.72 107.38 C 151.54 106.23 151.35 105.09 151.16 103.94 C 148.35 105.01 145.53 106.01 142.66 106.95 C 145.68 107.21 148.69 107.39 151.72 107.38 C 146.98 107.66 143.39 108.55 139.35 111.03 C 139.71 106.87 140.46 102.75 140.80 98.59 C 141.36 92.27 139.11 86.34 139.88 79.96 C 141.19 77.65 141.76 76.04 141.41 73.33 C 142.67 72.16 143.90 70.95 145.14 69.75 C 145.67 69.23 146.20 68.71 146.74 68.19 C 149.78 66.52 151.73 64.91 153.85 62.12 Z" fill="#85a963" />
<path d="M 186.70 62.28 C 193.37 67.71 198.79 74.17 204.77 80.29 C 205.89 81.52 207.04 82.78 207.93 84.18 C 207.02 86.13 205.29 87.70 203.80 89.23 C 200.53 87.32 197.51 84.89 194.31 82.85 C 193.94 80.22 193.08 77.86 192.22 75.37 C 194.24 76.26 196.29 77.09 198.35 77.89 C 196.21 74.33 193.50 71.35 190.51 68.50 C 188.53 66.61 187.47 64.89 186.70 62.28 Z" fill="#d37760" />
<path d="M 140.68 63.81 C 141.61 64.70 142.31 65.82 143.14 66.81 C 143.83 67.77 144.50 68.75 145.14 69.75 C 143.90 70.95 142.67 72.16 141.41 73.33 C 140.50 74.15 139.62 74.97 138.74 75.82 C 139.09 74.74 139.41 73.66 139.74 72.58 C 136.85 73.01 133.72 73.22 130.97 74.24 C 128.38 75.33 126.07 77.35 123.86 79.05 C 122.60 78.44 121.32 77.87 120.05 77.29 C 121.25 76.03 122.32 74.74 123.70 73.73 C 126.84 72.09 131.25 72.97 134.29 71.24 C 136.23 69.36 134.68 67.85 134.00 65.81 C 136.21 65.02 138.33 64.14 140.68 63.81 Z" fill="#e1b1a4" />
<path d="M 155.13 64.00 C 156.10 65.53 156.99 67.11 157.81 68.73 C 158.24 70.86 159.15 73.39 158.53 75.53 C 157.84 78.39 156.86 81.18 156.06 84.01 C 155.48 85.45 154.83 86.86 154.16 88.27 C 153.72 85.99 153.08 83.49 153.26 81.16 C 153.55 78.63 154.78 76.05 155.61 73.64 C 156.96 70.74 155.59 67.05 155.13 64.00 Z" fill="#191d37" />
<path d="M 167.92 63.80 C 169.83 67.51 169.61 71.23 169.37 75.28 C 169.12 78.10 170.07 80.54 171.22 83.04 C 170.88 83.79 170.56 84.56 170.26 85.33 C 166.78 78.40 166.97 71.28 167.92 63.80 Z" fill="#ad411f" />
<path d="M 83.24 64.92 C 86.28 65.27 89.28 65.85 92.32 66.27 C 91.61 66.47 90.90 66.66 90.19 66.86 C 91.11 67.88 92.03 68.91 92.95 69.94 C 91.61 70.87 90.27 71.80 88.93 72.74 C 89.67 75.10 90.06 77.31 90.11 79.77 C 88.81 79.37 87.51 78.96 86.21 78.56 C 87.27 80.08 88.34 81.59 89.39 83.11 C 88.98 84.65 88.58 86.18 88.15 87.71 C 87.31 86.22 86.54 83.83 84.88 83.11 C 82.17 81.89 78.58 82.26 75.67 82.26 C 77.91 85.52 80.59 88.34 83.47 91.03 C 82.13 93.98 80.83 97.29 78.84 99.86 C 76.84 102.49 73.05 103.70 70.13 105.06 C 72.98 105.28 75.80 105.48 78.65 105.17 C 82.11 104.75 83.08 105.26 85.67 107.43 C 87.23 108.64 88.90 109.59 90.68 110.42 C 90.21 110.92 89.74 111.41 89.26 111.90 C 88.19 111.72 87.13 111.56 86.06 111.41 C 83.37 111.59 80.69 112.18 78.05 112.69 C 73.88 113.26 70.65 115.20 67.16 117.36 C 64.95 118.79 62.30 117.65 59.99 117.11 L 58.80 116.49 C 59.86 111.03 59.88 105.74 61.48 100.37 C 62.54 96.82 63.51 93.27 64.34 89.65 C 67.40 87.13 69.52 83.97 71.90 80.86 C 72.95 79.47 74.43 79.18 75.97 78.57 C 78.13 77.84 80.77 77.25 81.80 74.96 C 82.90 71.81 82.66 68.20 83.24 64.92 Z" fill="#cf7a63" />
<path d="M 70.00 65.93 L 71.80 65.92 C 67.66 71.86 63.25 77.57 59.39 83.71 C 58.51 83.24 57.63 82.77 56.75 82.31 C 59.07 78.95 60.70 75.53 63.46 72.46 C 65.52 70.17 67.70 67.97 70.00 65.93 Z" fill="#8e493a" />
<path d="M 161.16 75.86 C 160.28 78.52 158.34 80.91 157.59 83.65 C 156.94 86.62 157.15 89.79 156.75 92.81 C 156.55 93.59 156.34 94.37 156.11 95.15 L 154.39 94.29 C 154.61 90.84 155.38 87.39 156.06 84.01 C 156.86 81.18 157.84 78.39 158.53 75.53 C 159.15 73.39 158.24 70.86 157.81 68.73 C 159.46 70.67 161.49 73.14 161.16 75.86 Z" fill="#e9c6ae" />
<path d="M 139.74 72.58 C 139.41 73.66 139.09 74.74 138.74 75.82 C 137.29 78.22 135.76 80.57 134.15 82.88 C 129.16 88.77 127.74 95.07 121.30 98.28 C 118.73 100.17 114.04 100.54 113.72 104.21 L 113.50 104.93 L 112.37 105.77 C 110.06 107.51 107.59 108.96 105.15 110.51 C 101.89 112.29 100.11 115.13 97.89 117.95 C 96.40 119.85 94.39 120.51 92.26 121.46 C 90.02 118.21 87.98 114.87 86.06 111.41 C 87.13 111.56 88.19 111.72 89.26 111.90 C 90.90 112.04 93.02 112.45 94.54 111.70 C 96.89 110.34 98.68 107.71 100.33 105.59 L 101.29 104.33 C 103.35 102.59 106.14 100.95 107.55 98.61 C 108.88 95.83 108.99 92.34 109.34 89.31 L 109.99 89.43 C 112.15 90.51 114.52 91.97 116.98 92.03 C 120.89 91.98 124.16 89.06 125.37 85.46 C 125.97 83.51 125.01 81.36 124.18 79.61 L 123.86 79.05 C 126.07 77.35 128.38 75.33 130.97 74.24 C 133.72 73.22 136.85 73.01 139.74 72.58 Z" fill="#ecd8cb" />
<path d="M 141.41 73.33 C 141.76 76.04 141.19 77.65 139.88 79.96 C 136.83 83.67 134.61 87.48 133.78 92.28 C 133.80 89.13 133.72 86.01 134.15 82.88 C 135.76 80.57 137.29 78.22 138.74 75.82 C 139.62 74.97 140.50 74.15 141.41 73.33 Z" fill="#783932" />
<path d="M 175.42 74.74 C 179.06 74.98 182.17 76.51 185.16 78.48 L 185.41 79.22 L 184.84 79.83 C 183.01 79.18 181.23 78.43 179.37 77.87 C 178.22 80.38 177.24 82.98 176.25 85.57 C 175.82 86.68 175.39 87.79 174.95 88.90 C 174.26 90.64 173.65 92.42 173.13 94.22 C 171.42 93.58 169.71 92.93 168.01 92.27 C 168.69 89.93 169.41 87.61 170.26 85.33 C 170.56 84.56 170.88 83.79 171.22 83.04 C 172.55 80.24 173.93 77.46 175.42 74.74 Z" fill="#5d4652" />
<path d="M 179.37 77.87 C 181.23 78.43 183.01 79.18 184.84 79.83 C 182.22 82.82 180.03 84.32 176.25 85.57 C 177.24 82.98 178.22 80.38 179.37 77.87 Z" fill="#df9b8b" />
<path d="M 124.18 79.61 C 125.01 81.36 125.97 83.51 125.37 85.46 C 124.16 89.06 120.89 91.98 116.98 92.03 C 114.52 91.97 112.15 90.51 109.99 89.43 L 111.84 89.57 C 114.36 89.62 117.78 90.91 119.46 88.43 C 121.89 85.87 121.56 83.04 121.42 79.80 C 122.34 79.68 123.26 79.63 124.18 79.61 Z" fill="#b53010" />
<path d="M 185.16 78.48 C 188.21 80.34 191.22 82.21 194.08 84.36 C 196.43 87.21 198.90 89.95 201.45 92.62 C 201.57 94.62 201.59 96.61 201.61 98.61 C 200.56 97.39 199.51 96.17 198.52 94.90 C 196.25 88.29 191.28 84.80 185.97 80.78 L 185.41 79.22 L 185.16 78.48 Z" fill="#472a31" />
<path d="M 115.51 81.70 C 117.53 81.36 119.48 80.42 121.42 79.80 C 121.56 83.04 121.89 85.87 119.46 88.43 C 117.78 90.91 114.36 89.62 111.84 89.57 C 110.45 88.69 109.09 87.78 107.69 86.91 C 108.86 84.93 109.90 82.90 110.74 80.76 C 112.26 81.15 113.93 81.77 115.51 81.70 Z" fill="#edd3c8" />
<path d="M 139.88 79.96 C 139.11 86.34 141.36 92.27 140.80 98.59 C 140.46 102.75 139.71 106.87 139.35 111.03 C 139.19 113.83 138.83 116.90 139.50 119.64 C 140.46 122.07 142.21 124.18 143.26 126.60 C 144.10 128.61 144.58 130.84 145.17 132.94 C 146.20 136.32 148.09 139.48 149.55 142.71 C 151.44 147.57 154.78 151.24 157.32 155.73 C 154.08 155.16 151.13 153.88 148.13 152.57 C 148.74 157.53 149.31 162.06 147.03 166.74 C 145.97 166.22 144.95 165.66 143.95 165.04 C 142.27 161.49 142.82 157.81 140.10 154.96 C 137.36 151.85 134.44 148.33 130.82 146.23 C 126.05 144.16 120.86 145.35 116.15 142.60 C 112.83 140.34 109.43 138.38 105.54 137.25 C 107.31 136.35 109.16 135.60 110.99 134.80 C 106.79 132.91 102.55 132.29 97.99 131.90 C 91.66 131.34 87.83 127.54 81.84 125.63 C 86.95 125.14 91.97 125.26 97.12 124.42 C 99.82 123.41 102.44 121.44 103.80 118.86 C 104.93 116.35 105.00 113.22 105.15 110.51 C 107.59 108.96 110.06 107.51 112.37 105.77 C 114.52 107.37 116.69 108.95 118.85 110.53 C 120.23 109.94 121.62 109.35 123.00 108.76 L 123.96 110.17 C 126.62 114.05 129.05 118.02 131.15 122.23 C 132.02 122.14 132.88 122.04 133.75 121.95 C 134.21 118.69 134.64 115.41 135.40 112.21 L 135.65 111.32 C 136.02 109.99 136.40 108.66 136.79 107.33 C 134.51 106.97 132.09 106.79 129.89 106.07 C 128.99 104.41 128.53 102.69 128.01 100.89 C 126.66 100.77 125.31 100.65 123.96 100.55 C 126.74 100.22 129.61 99.47 132.05 98.07 C 133.94 97.21 133.45 94.02 133.78 92.28 C 134.61 87.48 136.83 83.67 139.88 79.96 Z" fill="#d05433" />
<path d="M 184.84 79.83 L 185.41 79.22 L 185.97 80.78 C 187.18 84.08 188.63 87.44 190.66 90.33 C 192.84 93.29 195.71 94.90 198.75 96.83 L 198.93 97.64 C 196.19 97.06 193.73 96.41 191.82 94.22 C 189.40 92.11 187.66 88.39 183.98 88.76 C 181.72 89.33 179.48 90.04 177.24 90.69 C 176.48 90.09 175.72 89.49 174.95 88.90 C 175.39 87.79 175.82 86.68 176.25 85.57 C 180.03 84.32 182.22 82.82 184.84 79.83 Z" fill="#b91a06" />
<path d="M 185.97 80.78 C 191.28 84.80 196.25 88.29 198.52 94.90 L 198.75 96.83 C 195.71 94.90 192.84 93.29 190.66 90.33 C 188.63 87.44 187.18 84.08 185.97 80.78 Z" fill="#d79482" />
<path d="M 59.39 83.71 C 58.18 85.53 57.00 87.34 55.65 89.06 C 54.38 90.63 52.98 92.09 51.51 93.47 C 49.41 94.88 47.16 96.10 44.98 97.39 C 45.31 99.56 45.66 101.72 46.11 103.87 C 46.50 114.60 42.62 126.32 43.92 137.02 C 44.81 144.47 46.24 151.91 48.45 159.09 C 49.10 161.86 49.68 164.61 49.66 167.48 L 49.34 168.33 C 48.69 166.76 48.05 165.19 47.41 163.62 C 44.88 157.20 43.04 150.61 41.69 143.86 C 41.30 138.67 41.32 133.47 41.03 128.28 L 41.14 126.34 C 41.45 120.41 42.79 114.70 43.81 108.87 C 44.45 105.16 43.81 102.05 42.06 98.77 C 41.10 98.72 40.15 98.68 39.19 98.66 C 37.72 98.62 36.25 98.55 34.78 98.47 C 34.23 96.90 33.89 95.16 33.06 93.72 C 31.72 92.56 30.16 91.62 28.70 90.60 C 30.03 91.21 31.34 91.84 32.66 92.48 C 34.32 91.23 35.56 89.97 37.79 90.08 C 39.68 90.79 41.37 92.07 43.09 93.10 C 48.95 91.06 53.06 87.16 56.75 82.31 C 57.63 82.77 58.51 83.24 59.39 83.71 Z" fill="#21192a" />
<path d="M 134.15 82.88 C 133.72 86.01 133.80 89.13 133.78 92.28 C 133.45 94.02 133.94 97.21 132.05 98.07 C 129.61 99.47 126.74 100.22 123.96 100.55 C 119.94 100.22 116.90 102.00 113.72 104.21 C 114.04 100.54 118.73 100.17 121.30 98.28 C 127.74 95.07 129.16 88.77 134.15 82.88 Z" fill="#26263a" />
<path d="M 194.31 82.85 C 197.51 84.89 200.53 87.32 203.80 89.23 C 204.46 89.56 205.14 89.87 205.82 90.16 C 207.07 92.44 208.29 94.75 209.35 97.13 C 208.63 97.12 207.91 97.11 207.19 97.10 C 205.81 96.07 204.43 95.03 203.05 94.00 C 202.51 93.55 201.98 93.09 201.45 92.62 C 198.90 89.95 196.43 87.21 194.08 84.36 L 194.31 82.85 Z" fill="#ebc4ae" />
<path d="M 82.02 83.96 C 84.20 84.08 85.44 87.41 86.46 88.99 C 83.72 87.87 81.40 86.49 79.15 84.55 C 80.10 84.31 81.06 84.12 82.02 83.96 Z" fill="#d9684c" />
<path d="M 210.14 85.87 L 210.50 86.62 L 209.12 87.93 C 206.72 87.69 208.39 85.27 210.14 85.87 Z" fill="#d18971" />
<path d="M 107.69 86.91 C 109.09 87.78 110.45 88.69 111.84 89.57 L 109.99 89.43 L 109.34 89.31 C 108.99 92.34 108.88 95.83 107.55 98.61 C 106.14 100.95 103.35 102.59 101.29 104.33 C 101.42 103.08 101.59 101.75 101.45 100.50 C 100.73 99.75 99.99 99.04 99.21 98.35 C 98.06 97.05 97.08 95.64 96.15 94.18 C 100.78 92.84 104.37 90.33 107.69 86.91 Z" fill="#e4b8a8" />
<path d="M 31.48 88.28 C 32.95 87.27 34.14 89.65 32.28 90.00 C 31.28 89.72 31.02 89.15 31.48 88.28 Z" fill="#c89e88" />
<path d="M 64.34 89.65 C 63.51 93.27 62.54 96.82 61.48 100.37 C 59.88 105.74 59.86 111.03 58.80 116.49 C 57.68 116.04 56.55 115.64 55.36 115.42 L 54.64 115.44 C 53.95 116.98 53.30 118.54 52.66 120.10 C 51.15 119.89 49.63 119.68 48.12 119.47 C 48.52 120.91 48.92 122.34 49.32 123.77 C 48.54 124.52 47.76 125.27 47.00 126.04 C 46.79 121.06 45.78 116.51 48.76 112.12 C 51.13 108.88 55.39 105.13 55.86 101.01 C 55.33 98.26 53.04 95.74 51.51 93.47 C 52.98 92.09 54.38 90.63 55.65 89.06 C 58.58 88.96 61.45 89.10 64.34 89.65 Z" fill="#d05334" />
<path d="M 191.82 94.22 C 193.73 96.41 196.19 97.06 198.93 97.64 C 200.16 102.28 200.20 106.25 199.02 110.92 C 198.04 115.08 196.19 118.94 195.11 123.06 C 192.66 120.15 190.26 117.21 187.93 114.21 C 186.80 115.46 185.68 116.73 184.55 117.99 C 182.88 116.29 181.22 114.58 179.56 112.88 C 183.02 112.76 186.46 112.60 189.90 112.25 C 189.62 110.31 189.28 108.37 188.89 106.44 C 190.44 105.45 191.97 104.43 193.44 103.32 C 192.98 102.48 192.51 101.64 192.04 100.81 C 190.74 101.45 189.44 102.09 188.14 102.73 C 187.59 99.39 187.99 95.93 187.38 92.62 C 186.44 91.20 185.13 90.00 183.98 88.76 C 187.66 88.39 189.40 92.11 191.82 94.22 Z" fill="#d79987" />
<path d="M 174.95 88.90 C 175.72 89.49 176.48 90.09 177.24 90.69 C 176.58 91.75 175.91 92.79 175.22 93.83 C 175.99 94.95 176.76 96.06 177.50 97.20 C 178.87 99.37 180.40 101.38 182.20 103.21 C 182.37 104.45 182.57 105.69 182.76 106.92 C 179.09 106.30 175.43 105.60 171.73 105.11 C 171.95 101.44 172.31 97.80 173.13 94.22 C 173.65 92.42 174.26 90.64 174.95 88.90 Z" fill="#e0a089" />
<path d="M 183.98 88.76 C 185.13 90.00 186.44 91.20 187.38 92.62 C 187.99 95.93 187.59 99.39 188.14 102.73 C 188.38 103.97 188.63 105.21 188.89 106.44 C 189.28 108.37 189.62 110.31 189.90 112.25 C 185.66 111.15 181.35 110.57 177.04 109.83 C 173.42 108.62 169.57 106.88 166.81 104.20 C 166.27 102.37 166.38 100.30 166.35 98.41 C 166.87 96.36 167.43 94.31 168.01 92.27 C 169.71 92.93 171.42 93.58 173.13 94.22 C 172.31 97.80 171.95 101.44 171.73 105.11 C 175.43 105.60 179.09 106.30 182.76 106.92 C 182.57 105.69 182.37 104.45 182.20 103.21 C 182.00 100.82 181.92 98.43 181.82 96.03 C 180.38 96.42 178.94 96.81 177.50 97.20 C 176.76 96.06 175.99 94.95 175.22 93.83 C 175.91 92.79 176.58 91.75 177.24 90.69 C 179.48 90.04 181.72 89.33 183.98 88.76 Z" fill="#1e223a" />
<path d="M 209.35 92.55 C 211.23 96.27 213.09 99.09 216.20 101.91 C 216.86 103.20 217.52 104.50 218.16 105.80 C 219.28 112.98 220.32 120.62 219.33 127.86 L 218.92 129.56 C 216.63 122.79 217.50 115.89 214.28 109.66 C 212.23 105.63 211.03 101.31 209.35 97.13 C 208.29 94.75 207.07 92.44 205.82 90.16 C 207.26 90.83 208.64 90.94 209.35 92.55 Z" fill="#cb6a4e" />
<path d="M 161.93 91.19 C 161.88 92.96 161.83 94.73 161.73 96.50 L 161.65 97.75 L 159.74 96.86 C 158.53 96.30 157.32 95.73 156.11 95.15 C 156.34 94.37 156.55 93.59 156.75 92.81 C 158.48 92.28 160.20 91.73 161.93 91.19 Z" fill="#c4c627" />
<path d="M 35.38 92.39 C 36.31 91.39 38.35 91.61 38.58 93.11 C 38.30 95.24 34.19 94.58 35.38 92.39 Z" fill="#845b65" />
<path d="M 87.96 93.06 C 90.68 93.39 93.40 93.90 96.15 94.18 C 97.08 95.64 98.06 97.05 99.21 98.35 C 98.14 98.97 97.07 99.60 96.01 100.26 C 92.45 102.51 88.93 104.76 85.67 107.43 C 83.08 105.26 82.11 104.75 78.65 105.17 C 83.25 102.12 85.32 97.67 87.96 93.06 Z" fill="#d69584" />
<path d="M 201.45 92.62 C 201.98 93.09 202.51 93.55 203.05 94.00 C 203.36 98.16 203.50 102.30 204.31 106.40 C 203.66 108.16 202.99 109.90 202.33 111.65 C 201.23 111.40 200.12 111.16 199.02 110.92 C 200.20 106.25 200.16 102.28 198.93 97.64 L 198.75 96.83 L 198.52 94.90 C 199.51 96.17 200.56 97.39 201.61 98.61 C 201.59 96.61 201.57 94.62 201.45 92.62 Z" fill="#866366" />
<path d="M 51.51 93.47 C 53.04 95.74 55.33 98.26 55.86 101.01 C 55.39 105.13 51.13 108.88 48.76 112.12 C 47.87 109.37 46.92 106.64 46.11 103.87 C 45.66 101.72 45.31 99.56 44.98 97.39 C 47.16 96.10 49.41 94.88 51.51 93.47 Z" fill="#cbc125" />
<path d="M 203.05 94.00 C 204.43 95.03 205.81 96.07 207.19 97.10 C 207.91 97.11 208.63 97.12 209.35 97.13 C 211.03 101.31 212.23 105.63 214.28 109.66 C 217.50 115.89 216.63 122.79 218.92 129.56 C 218.79 130.17 218.64 130.78 218.49 131.39 C 217.64 130.51 216.80 129.62 215.94 128.75 C 212.17 131.78 208.36 134.66 204.37 137.39 C 203.87 135.59 203.29 133.81 202.76 132.02 L 201.19 133.36 C 199.63 127.51 202.78 122.79 203.76 116.85 C 204.55 111.92 205.71 108.11 208.11 103.73 C 206.84 104.61 205.57 105.51 204.31 106.40 C 203.50 102.30 203.36 98.16 203.05 94.00 Z" fill="#d89c8b" />
<path d="M 166.12 96.44 C 166.21 97.10 166.29 97.75 166.35 98.41 C 166.38 100.30 166.27 102.37 166.81 104.20 C 169.57 106.88 173.42 108.62 177.04 109.83 C 177.34 111.23 177.67 112.63 178.04 114.01 C 179.96 119.92 179.75 127.10 183.19 132.22 C 182.16 135.34 180.21 138.00 179.04 141.03 C 179.73 142.76 180.73 144.36 181.45 146.08 C 179.99 149.65 177.32 152.68 175.69 156.20 C 175.69 154.10 175.64 151.99 175.62 149.89 C 175.45 146.78 176.16 142.48 173.60 140.19 C 170.35 138.69 169.46 142.05 167.92 144.15 C 167.08 145.56 166.38 147.02 165.64 148.48 C 164.62 148.34 163.11 148.41 162.38 147.59 C 160.27 145.45 158.78 142.57 157.26 140.00 C 159.78 134.55 165.56 128.37 162.93 122.04 C 159.69 114.44 160.64 105.71 161.65 97.75 L 161.73 96.50 C 162.60 97.16 163.46 97.82 164.33 98.47 C 164.93 97.79 165.52 97.12 166.12 96.44 Z" fill="#ecd9cd" />
<path d="M 181.82 96.03 C 181.92 98.43 182.00 100.82 182.20 103.21 C 180.40 101.38 178.87 99.37 177.50 97.20 C 178.94 96.81 180.38 96.42 181.82 96.03 Z" fill="#a33e40" />
<path d="M 159.74 96.86 L 161.65 97.75 C 160.64 105.71 159.69 114.44 162.93 122.04 C 165.56 128.37 159.78 134.55 157.26 140.00 C 158.78 142.57 160.27 145.45 162.38 147.59 C 163.11 148.41 164.62 148.34 165.64 148.48 C 168.13 148.66 170.61 148.85 173.07 149.30 C 173.93 149.48 174.78 149.68 175.62 149.89 C 175.64 151.99 175.69 154.10 175.69 156.20 C 176.04 161.86 172.39 164.34 169.33 168.41 C 171.77 167.38 173.78 166.50 176.51 166.82 C 175.99 168.49 175.44 170.15 174.86 171.80 C 172.83 177.16 172.08 181.77 172.43 187.51 C 169.18 186.16 166.06 184.55 162.81 183.22 C 158.59 181.45 153.59 181.70 149.08 181.66 C 148.82 180.88 148.58 180.09 148.34 179.31 C 150.20 178.84 152.07 178.40 153.94 177.95 C 148.74 177.60 143.64 177.89 138.52 176.63 C 135.99 176.09 133.48 175.44 130.98 174.81 C 131.78 173.80 132.59 172.79 133.38 171.78 C 135.77 171.87 138.13 171.64 140.49 171.30 C 141.84 171.21 142.60 170.68 142.78 169.72 C 142.23 168.06 140.45 169.60 140.17 170.65 C 139.60 169.51 139.00 168.38 138.39 167.27 C 137.26 165.28 136.13 163.11 134.09 161.91 C 130.84 159.87 126.34 160.25 122.60 159.54 C 119.16 159.07 116.34 157.09 113.08 156.29 C 108.50 157.85 103.95 158.39 99.20 159.12 C 93.88 159.65 88.64 158.90 83.60 157.19 C 84.86 156.84 86.12 156.50 87.39 156.18 C 89.56 155.64 92.11 155.24 94.00 154.00 C 96.65 151.93 98.15 148.85 101.33 147.46 C 104.42 146.12 107.52 144.90 110.50 143.32 C 112.32 142.30 114.15 142.52 116.15 142.60 C 120.86 145.35 126.05 144.16 130.82 146.23 C 134.44 148.33 137.36 151.85 140.10 154.96 C 142.82 157.81 142.27 161.49 143.95 165.04 C 144.95 165.66 145.97 166.22 147.03 166.74 C 146.75 167.45 146.46 168.16 146.17 168.86 C 148.05 168.14 149.96 167.51 151.84 166.80 C 155.05 169.02 158.48 170.54 162.18 171.76 C 162.40 166.61 162.33 161.45 162.02 156.31 C 158.88 151.00 153.15 147.80 149.55 142.71 C 148.09 139.48 146.20 136.32 145.17 132.94 C 144.11 128.84 143.82 124.25 144.95 120.14 C 147.87 113.95 152.81 108.56 156.66 103.62 C 155.65 103.64 154.65 103.66 153.64 103.69 C 155.34 100.81 156.13 97.77 159.74 96.86 Z" fill="#20223d" />
<path d="M 42.06 98.77 C 43.81 102.05 44.45 105.16 43.81 108.87 C 42.79 114.70 41.45 120.41 41.14 126.34 C 41.32 120.92 41.97 115.45 41.72 110.03 C 41.22 106.13 40.25 102.43 39.19 98.66 C 40.15 98.68 41.10 98.72 42.06 98.77 Z" fill="#c15c34" />
<path d="M 99.21 98.35 C 99.99 99.04 100.73 99.75 101.45 100.50 C 101.59 101.75 101.42 103.08 101.29 104.33 L 100.33 105.59 C 100.01 104.45 99.71 103.30 99.43 102.15 C 98.25 103.07 97.05 103.97 95.85 104.86 L 95.87 102.78 C 95.92 101.94 95.97 101.10 96.01 100.26 C 97.07 99.60 98.14 98.97 99.21 98.35 Z" fill="#a92006" />
<path d="M 96.01 100.26 C 95.97 101.10 95.92 101.94 95.87 102.78 C 94.43 105.52 92.75 108.11 90.68 110.42 C 88.90 109.59 87.23 108.64 85.67 107.43 C 88.93 104.76 92.45 102.51 96.01 100.26 Z" fill="#e7c7b8" />
<path d="M 123.96 100.55 C 125.31 100.65 126.66 100.77 128.01 100.89 C 128.53 102.69 128.99 104.41 129.89 106.07 C 132.09 106.79 134.51 106.97 136.79 107.33 C 136.40 108.66 136.02 109.99 135.65 111.32 C 131.58 109.69 127.33 109.11 123.00 108.76 C 119.98 106.04 117.84 104.46 113.50 104.93 L 113.72 104.21 C 116.90 102.00 119.94 100.22 123.96 100.55 Z" fill="#f6efe4" />
<path d="M 192.04 100.81 C 192.51 101.64 192.98 102.48 193.44 103.32 C 191.97 104.43 190.44 105.45 188.89 106.44 C 188.63 105.21 188.38 103.97 188.14 102.73 C 189.44 102.09 190.74 101.45 192.04 100.81 Z" fill="#ad2a27" />
<path d="M 99.43 102.15 C 99.71 103.30 100.01 104.45 100.33 105.59 C 98.68 107.71 96.89 110.34 94.54 111.70 C 93.02 112.45 90.90 112.04 89.26 111.90 C 89.74 111.41 90.21 110.92 90.68 110.42 C 92.75 108.11 94.43 105.52 95.87 102.78 L 95.85 104.86 C 97.05 103.97 98.25 103.07 99.43 102.15 Z" fill="#d26a54" />
<path d="M 156.66 103.62 C 152.81 108.56 147.87 113.95 144.95 120.14 C 143.82 124.25 144.11 128.84 145.17 132.94 C 144.58 130.84 144.10 128.61 143.26 126.60 C 142.21 124.18 140.46 122.07 139.50 119.64 C 138.83 116.90 139.19 113.83 139.35 111.03 C 143.39 108.55 146.98 107.66 151.72 107.38 C 152.37 106.16 153.01 104.93 153.64 103.69 C 154.65 103.66 155.65 103.64 156.66 103.62 Z" fill="#cac125" />
<path d="M 46.11 103.87 C 46.92 106.64 47.87 109.37 48.76 112.12 C 45.78 116.51 46.79 121.06 47.00 126.04 C 47.76 125.27 48.54 124.52 49.32 123.77 C 48.92 122.34 48.52 120.91 48.12 119.47 C 49.63 119.68 51.15 119.89 52.66 120.10 C 53.30 118.54 53.95 116.98 54.64 115.44 L 55.36 115.42 C 55.18 120.26 55.02 124.99 56.57 129.63 C 57.21 131.36 57.94 133.08 58.65 134.79 C 58.98 135.59 59.30 136.40 59.61 137.21 C 60.26 139.07 60.90 140.93 61.56 142.79 C 67.84 144.63 69.26 149.79 74.54 153.70 C 77.05 156.81 79.45 159.55 79.65 163.76 C 76.64 160.44 73.86 156.33 70.27 153.70 C 66.59 150.93 61.74 149.62 57.29 148.76 C 56.92 150.39 56.64 152.06 56.35 153.71 C 55.03 154.24 53.72 154.79 52.40 155.33 C 51.80 151.71 51.33 148.08 51.21 144.42 C 50.13 144.15 49.06 143.86 47.99 143.60 C 48.41 146.77 49.06 149.79 49.28 152.98 C 49.07 155.03 48.71 157.05 48.45 159.09 C 46.24 151.91 44.81 144.47 43.92 137.02 C 42.62 126.32 46.50 114.60 46.11 103.87 Z" fill="#d26447" />
<path d="M 151.16 103.94 C 151.35 105.09 151.54 106.23 151.72 107.38 C 148.69 107.39 145.68 107.21 142.66 106.95 C 145.53 106.01 148.35 105.01 151.16 103.94 Z" fill="#1b2017" />
<path d="M 208.11 103.73 C 205.71 108.11 204.55 111.92 203.76 116.85 C 202.78 122.79 199.63 127.51 201.19 133.36 C 202.09 138.49 203.19 143.44 202.89 148.69 C 202.18 152.83 201.32 156.95 200.51 161.07 C 200.57 157.13 200.80 153.05 200.32 149.13 C 199.62 145.04 197.48 141.38 195.94 137.57 C 194.83 132.75 194.27 127.98 195.11 123.06 C 196.19 118.94 198.04 115.08 199.02 110.92 C 200.12 111.16 201.23 111.40 202.33 111.65 C 202.99 109.90 203.66 108.16 204.31 106.40 C 205.57 105.51 206.84 104.61 208.11 103.73 Z" fill="#1d203a" />
<path d="M 113.50 104.93 C 117.84 104.46 119.98 106.04 123.00 108.76 C 121.62 109.35 120.23 109.94 118.85 110.53 C 116.69 108.95 114.52 107.37 112.37 105.77 L 113.50 104.93 Z" fill="#ddb6af" />
<path d="M 218.16 105.80 C 221.21 111.02 223.97 116.00 224.19 122.20 C 223.43 124.29 222.55 126.32 221.76 128.40 C 220.95 128.22 220.14 128.04 219.33 127.86 C 220.32 120.62 219.28 112.98 218.16 105.80 Z" fill="#e1c1b1" />
<path d="M 135.65 111.32 L 135.40 112.21 C 131.74 113.94 127.32 111.71 123.96 110.17 L 123.00 108.76 C 127.33 109.11 131.58 109.69 135.65 111.32 Z" fill="#e3a692" />
<path d="M 41.72 110.03 C 41.97 115.45 41.32 120.92 41.14 126.34 L 41.03 128.28 C 39.87 125.07 38.06 121.50 38.24 118.03 C 38.37 115.07 40.12 112.42 41.72 110.03 Z" fill="#de9c85" />
<path d="M 86.06 111.41 C 87.98 114.87 90.02 118.21 92.26 121.46 C 91.26 121.89 90.25 122.33 89.25 122.78 C 86.68 122.31 83.84 121.95 81.27 122.51 C 78.22 123.29 75.40 125.72 72.68 127.30 C 74.23 122.33 76.30 117.58 78.05 112.69 C 80.69 112.18 83.37 111.59 86.06 111.41 Z" fill="#e3b5a6" />
<path d="M 123.96 110.17 C 127.32 111.71 131.74 113.94 135.40 112.21 C 134.64 115.41 134.21 118.69 133.75 121.95 C 132.88 122.04 132.02 122.14 131.15 122.23 C 129.05 118.02 126.62 114.05 123.96 110.17 Z" fill="#d96f55" />
<path d="M 177.04 109.83 C 181.35 110.57 185.66 111.15 189.90 112.25 C 186.46 112.60 183.02 112.76 179.56 112.88 C 181.22 114.58 182.88 116.29 184.55 117.99 C 185.68 116.73 186.80 115.46 187.93 114.21 C 190.26 117.21 192.66 120.15 195.11 123.06 C 194.27 127.98 194.83 132.75 195.94 137.57 C 194.80 137.52 193.65 137.46 192.51 137.40 C 192.27 136.24 192.03 135.07 191.79 133.90 C 191.18 134.04 190.56 134.18 189.95 134.31 C 188.69 132.59 187.36 130.96 185.91 129.40 C 181.80 125.39 180.67 119.36 178.04 114.01 C 177.67 112.63 177.34 111.23 177.04 109.83 Z" fill="#e0b1a1" />
<path d="M 105.15 110.51 C 105.00 113.22 104.93 116.35 103.80 118.86 C 102.44 121.44 99.82 123.41 97.12 124.42 C 94.44 124.11 91.86 123.44 89.25 122.78 C 90.25 122.33 91.26 121.89 92.26 121.46 C 94.39 120.51 96.40 119.85 97.89 117.95 C 100.11 115.13 101.89 112.29 105.15 110.51 Z" fill="#1f2037" />
<path d="M 78.05 112.69 C 76.30 117.58 74.23 122.33 72.68 127.30 C 70.97 128.21 69.20 128.94 67.39 129.64 C 66.54 127.13 65.72 124.60 64.73 122.14 C 63.32 120.34 61.64 118.69 59.99 117.11 C 62.30 117.65 64.95 118.79 67.16 117.36 C 70.65 115.20 73.88 113.26 78.05 112.69 Z" fill="#d48f7a" />
<path d="M 178.04 114.01 C 180.67 119.36 181.80 125.39 185.91 129.40 C 187.36 130.96 188.69 132.59 189.95 134.31 C 190.56 134.18 191.18 134.04 191.79 133.90 C 192.03 135.07 192.27 136.24 192.51 137.40 C 193.65 137.46 194.80 137.52 195.94 137.57 C 197.48 141.38 199.62 145.04 200.32 149.13 C 200.80 153.05 200.57 157.13 200.51 161.07 C 201.32 156.95 202.18 152.83 202.89 148.69 C 204.20 153.66 207.58 156.49 206.39 161.86 C 207.49 160.73 208.59 159.60 209.71 158.49 C 210.19 159.03 210.68 159.57 211.16 160.12 C 209.71 162.39 208.12 165.11 205.87 166.66 C 204.16 167.09 202.22 166.79 200.46 167.02 C 198.95 168.60 198.21 171.02 197.27 172.97 C 196.78 171.26 196.28 169.54 195.84 167.81 C 195.77 167.08 195.70 166.35 195.64 165.61 C 195.80 163.87 195.91 162.12 196.03 160.37 C 192.83 160.99 189.37 161.47 186.33 162.64 C 182.63 164.15 180.89 167.35 176.51 166.82 C 173.78 166.50 171.77 167.38 169.33 168.41 C 172.39 164.34 176.04 161.86 175.69 156.20 C 177.32 152.68 179.99 149.65 181.45 146.08 C 180.73 144.36 179.73 142.76 179.04 141.03 C 180.21 138.00 182.16 135.34 183.19 132.22 C 179.75 127.10 179.96 119.92 178.04 114.01 Z" fill="#e8cabd" />
<path d="M 55.36 115.42 C 56.55 115.64 57.68 116.04 58.80 116.49 L 59.99 117.11 C 61.64 118.69 63.32 120.34 64.73 122.14 C 63.17 121.48 61.62 120.79 60.04 120.18 C 58.65 123.26 57.66 126.45 56.57 129.63 C 55.02 124.99 55.18 120.26 55.36 115.42 Z" fill="#231735" />
<path d="M 60.04 120.18 C 61.62 120.79 63.17 121.48 64.73 122.14 C 65.72 124.60 66.54 127.13 67.39 129.64 L 65.64 130.27 C 62.76 131.01 60.70 132.73 58.65 134.79 C 57.94 133.08 57.21 131.36 56.57 129.63 C 57.66 126.45 58.65 123.26 60.04 120.18 Z" fill="#c8c02d" />
<path d="M 81.27 122.51 C 83.84 121.95 86.68 122.31 89.25 122.78 C 91.86 123.44 94.44 124.11 97.12 124.42 C 91.97 125.26 86.95 125.14 81.84 125.63 C 78.38 126.03 75.45 128.00 72.28 129.25 C 70.12 130.13 67.93 130.09 65.64 130.27 L 67.39 129.64 C 69.20 128.94 70.97 128.21 72.68 127.30 C 75.40 125.72 78.22 123.29 81.27 122.51 Z" fill="#5e2427" />
<path d="M 224.19 122.20 C 224.54 124.95 225.04 127.68 225.56 130.40 C 224.08 130.71 222.61 131.02 221.14 131.33 C 222.44 132.33 223.74 133.33 225.04 134.33 C 224.49 137.48 224.56 140.90 222.16 143.28 C 219.47 146.01 217.12 148.76 215.47 152.26 C 215.16 151.19 214.85 150.11 214.54 149.03 C 216.94 143.91 217.82 140.17 217.69 134.50 C 217.94 133.46 218.21 132.42 218.49 131.39 C 218.64 130.78 218.79 130.17 218.92 129.56 L 219.33 127.86 C 220.14 128.04 220.95 128.22 221.76 128.40 C 222.55 126.32 223.43 124.29 224.19 122.20 Z" fill="#ead6ca" />
<path d="M 81.84 125.63 C 87.83 127.54 91.66 131.34 97.99 131.90 C 102.55 132.29 106.79 132.91 110.99 134.80 C 109.16 135.60 107.31 136.35 105.54 137.25 C 102.88 139.44 100.97 142.67 98.65 145.24 C 97.25 143.91 95.80 141.44 93.72 141.34 C 87.86 140.57 80.75 142.75 74.69 141.26 C 71.81 140.59 69.78 137.16 67.71 135.20 C 66.20 133.51 64.16 133.33 62.08 132.80 C 62.61 134.62 63.22 136.41 63.83 138.21 C 62.44 137.82 61.02 137.50 59.61 137.21 C 59.30 136.40 58.98 135.59 58.65 134.79 C 60.70 132.73 62.76 131.01 65.64 130.27 C 67.93 130.09 70.12 130.13 72.28 129.25 C 75.45 128.00 78.38 126.03 81.84 125.63 Z" fill="#86a964" />
<path d="M 150.41 126.17 C 152.89 124.86 157.66 128.02 156.85 130.99 C 156.58 132.71 157.01 134.47 154.95 135.05 C 152.25 136.91 149.57 133.68 148.06 131.74 C 148.07 129.59 148.65 127.54 150.41 126.17 Z" fill="#d1c52e" />
<path d="M 215.94 128.75 C 216.80 129.62 217.64 130.51 218.49 131.39 C 218.21 132.42 217.94 133.46 217.69 134.50 C 214.94 139.34 213.86 144.57 211.85 149.72 C 212.75 149.49 213.65 149.26 214.54 149.03 C 214.85 150.11 215.16 151.19 215.47 152.26 C 214.08 154.91 212.69 157.55 211.16 160.12 C 210.68 159.57 210.19 159.03 209.71 158.49 C 208.59 159.60 207.49 160.73 206.39 161.86 C 207.58 156.49 204.20 153.66 202.89 148.69 C 203.19 143.44 202.09 138.49 201.19 133.36 L 202.76 132.02 C 203.29 133.81 203.87 135.59 204.37 137.39 C 208.36 134.66 212.17 131.78 215.94 128.75 Z" fill="#dfaf9f" />
<path d="M 62.08 132.80 C 64.16 133.33 66.20 133.51 67.71 135.20 C 69.78 137.16 71.81 140.59 74.69 141.26 C 80.75 142.75 87.86 140.57 93.72 141.34 C 95.80 141.44 97.25 143.91 98.65 145.24 C 95.86 148.70 92.47 150.32 88.22 151.33 C 87.25 151.33 86.28 151.33 85.31 151.33 C 85.69 150.58 86.07 149.83 86.45 149.09 C 88.28 147.67 90.00 146.12 91.57 144.41 C 84.93 142.85 78.49 143.61 71.77 143.23 C 68.78 141.97 66.47 140.00 63.83 138.21 C 63.22 136.41 62.61 134.62 62.08 132.80 Z" fill="#242239" />
<path d="M 217.69 134.50 C 217.82 140.17 216.94 143.91 214.54 149.03 C 213.65 149.26 212.75 149.49 211.85 149.72 C 213.86 144.57 214.94 139.34 217.69 134.50 Z" fill="#c87d67" />
<path d="M 59.61 137.21 C 61.02 137.50 62.44 137.82 63.83 138.21 C 66.47 140.00 68.78 141.97 71.77 143.23 C 74.91 144.69 78.17 144.91 81.51 145.66 C 83.57 145.97 84.95 147.79 86.45 149.09 C 86.07 149.83 85.69 150.58 85.31 151.33 C 86.28 151.33 87.25 151.33 88.22 151.33 C 86.74 151.80 85.27 152.32 83.84 152.91 C 81.80 153.85 79.82 154.90 77.86 155.99 C 76.77 155.21 75.65 154.47 74.54 153.70 C 69.26 149.79 67.84 144.63 61.56 142.79 C 60.90 140.93 60.26 139.07 59.61 137.21 Z" fill="#d7816a" />
<path d="M 105.54 137.25 C 109.43 138.38 112.83 140.34 116.15 142.60 C 114.15 142.52 112.32 142.30 110.50 143.32 C 107.52 144.90 104.42 146.12 101.33 147.46 C 98.15 148.85 96.65 151.93 94.00 154.00 C 92.11 155.24 89.56 155.64 87.39 156.18 C 86.21 155.08 85.02 154.00 83.84 152.91 C 85.27 152.32 86.74 151.80 88.22 151.33 C 92.47 150.32 95.86 148.70 98.65 145.24 C 100.97 142.67 102.88 139.44 105.54 137.25 Z" fill="#cbc12a" />
<path d="M 173.60 140.19 C 176.16 142.48 175.45 146.78 175.62 149.89 C 174.78 149.68 173.93 149.48 173.07 149.30 C 171.47 147.46 169.78 145.73 167.92 144.15 C 169.46 142.05 170.35 138.69 173.60 140.19 Z" fill="#cbc136" />
<path d="M 47.99 143.60 C 49.06 143.86 50.13 144.15 51.21 144.42 C 51.33 148.08 51.80 151.71 52.40 155.33 C 51.36 154.54 50.32 153.76 49.28 152.98 C 49.06 149.79 48.41 146.77 47.99 143.60 Z" fill="#e89178" />
<path d="M 71.77 143.23 C 78.49 143.61 84.93 142.85 91.57 144.41 C 90.00 146.12 88.28 147.67 86.45 149.09 C 84.95 147.79 83.57 145.97 81.51 145.66 C 78.17 144.91 74.91 144.69 71.77 143.23 Z" fill="#f2c9b8" />
<path d="M 149.55 142.71 C 153.15 147.80 158.88 151.00 162.02 156.31 C 160.45 156.14 158.89 155.97 157.32 155.73 C 154.78 151.24 151.44 147.57 149.55 142.71 Z" fill="#d88456" />
<path d="M 41.69 143.86 C 43.04 150.61 44.88 157.20 47.41 163.62 C 47.50 165.02 47.56 166.42 47.63 167.83 C 45.95 169.44 43.83 171.08 42.78 173.18 C 42.48 175.23 42.90 177.44 43.12 179.49 C 37.03 173.47 33.41 164.72 33.77 156.12 C 35.59 156.45 37.40 156.77 39.21 157.13 C 38.49 155.81 36.81 153.94 37.07 152.37 C 38.09 149.34 40.40 146.80 41.69 143.86 Z" fill="#eee4dc" />
<path d="M 167.92 144.15 C 169.78 145.73 171.47 147.46 173.07 149.30 C 170.61 148.85 168.13 148.66 165.64 148.48 C 166.38 147.02 167.08 145.56 167.92 144.15 Z" fill="#928557" />
<path d="M 57.29 148.76 C 61.74 149.62 66.59 150.93 70.27 153.70 C 73.86 156.33 76.64 160.44 79.65 163.76 C 76.14 164.19 72.65 164.44 69.12 164.54 C 72.25 167.63 76.19 171.02 77.98 175.09 C 78.56 176.50 78.90 178.34 77.27 179.17 C 74.18 180.56 70.67 181.07 67.43 182.06 C 71.60 184.48 74.62 184.58 79.19 183.13 C 81.52 182.52 82.10 180.33 83.24 178.47 C 85.74 179.42 88.42 180.56 91.07 180.89 C 94.02 181.27 97.00 179.64 98.08 176.84 C 98.12 175.44 96.60 174.22 95.96 173.01 C 93.88 175.25 91.96 179.67 88.25 178.77 C 82.83 177.98 78.76 171.32 75.17 167.59 C 77.47 167.35 80.16 167.35 82.28 166.36 C 83.03 165.01 83.46 163.45 83.81 161.96 C 83.97 161.28 84.12 160.59 84.28 159.91 C 90.76 161.45 99.14 160.47 104.42 164.51 C 107.41 166.43 108.32 170.00 110.82 172.15 C 113.92 173.56 117.70 173.81 120.70 175.42 C 123.98 177.38 126.32 180.40 129.90 182.11 C 133.13 183.65 136.61 184.64 139.88 186.08 C 140.45 187.82 139.67 190.54 141.91 191.12 C 145.53 192.38 149.10 192.25 152.28 194.72 C 149.08 194.40 145.97 193.58 142.79 193.20 C 140.63 192.76 138.40 194.72 137.45 196.49 C 136.34 199.35 139.44 200.63 141.24 202.15 C 140.22 203.17 139.25 204.22 138.27 205.28 C 139.19 205.89 140.11 206.50 141.03 207.11 C 138.37 207.09 135.72 207.07 133.06 207.05 L 131.97 206.08 C 128.31 202.86 123.78 200.35 119.69 197.64 C 116.35 195.53 112.79 192.99 108.91 192.12 C 104.70 191.16 100.22 191.15 95.94 191.52 C 91.99 191.60 90.14 195.86 86.15 195.43 C 76.43 195.09 69.30 189.85 62.49 183.48 C 57.34 178.75 54.82 172.25 49.66 167.48 C 49.68 164.61 49.10 161.86 48.45 159.09 C 48.71 157.05 49.07 155.03 49.28 152.98 C 50.32 153.76 51.36 154.54 52.40 155.33 C 53.72 154.79 55.03 154.24 56.35 153.71 C 56.64 152.06 56.92 150.39 57.29 148.76 Z" fill="#d05636" />
<path d="M 127.26 148.09 C 127.64 149.97 128.26 151.85 128.40 153.76 C 128.25 155.08 126.83 156.26 125.80 156.96 C 123.98 156.88 121.03 156.66 120.23 154.72 C 119.14 152.66 118.50 150.20 120.64 148.56 C 122.68 147.86 125.12 148.13 127.26 148.09 Z" fill="#c9c427" />
<path d="M 148.13 152.57 C 151.13 153.88 154.08 155.16 157.32 155.73 C 158.89 155.97 160.45 156.14 162.02 156.31 C 162.33 161.45 162.40 166.61 162.18 171.76 C 158.48 170.54 155.05 169.02 151.84 166.80 C 149.96 167.51 148.05 168.14 146.17 168.86 C 146.46 168.16 146.75 167.45 147.03 166.74 C 149.31 162.06 148.74 157.53 148.13 152.57 Z" fill="#cac026" />
<path d="M 83.84 152.91 C 85.02 154.00 86.21 155.08 87.39 156.18 C 86.12 156.50 84.86 156.84 83.60 157.19 C 88.64 158.90 93.88 159.65 99.20 159.12 C 101.11 160.47 103.06 161.75 105.06 162.96 C 109.57 167.17 114.79 164.25 119.63 167.33 C 123.31 169.75 126.26 173.49 129.34 176.62 C 128.67 176.97 128.00 177.32 127.33 177.68 C 132.23 179.62 137.29 180.95 142.41 182.18 C 142.36 183.10 142.32 184.01 142.27 184.92 C 141.48 185.31 140.68 185.70 139.88 186.08 C 136.61 184.64 133.13 183.65 129.90 182.11 C 126.32 180.40 123.98 177.38 120.70 175.42 C 117.70 173.81 113.92 173.56 110.82 172.15 C 108.32 170.00 107.41 166.43 104.42 164.51 C 99.14 160.47 90.76 161.45 84.28 159.91 C 84.12 160.59 83.97 161.28 83.81 161.96 C 81.88 159.91 80.00 157.83 77.86 155.99 C 79.82 154.90 81.80 153.85 83.84 152.91 Z" fill="#d67257" />
<path d="M 74.54 153.70 C 75.65 154.47 76.77 155.21 77.86 155.99 C 80.00 157.83 81.88 159.91 83.81 161.96 C 83.46 163.45 83.03 165.01 82.28 166.36 C 80.16 167.35 77.47 167.35 75.17 167.59 C 78.76 171.32 82.83 177.98 88.25 178.77 C 91.96 179.67 93.88 175.25 95.96 173.01 C 96.60 174.22 98.12 175.44 98.08 176.84 C 97.00 179.64 94.02 181.27 91.07 180.89 C 88.42 180.56 85.74 179.42 83.24 178.47 C 82.10 180.33 81.52 182.52 79.19 183.13 C 74.62 184.58 71.60 184.48 67.43 182.06 C 70.67 181.07 74.18 180.56 77.27 179.17 C 78.90 178.34 78.56 176.50 77.98 175.09 C 76.19 171.02 72.25 167.63 69.12 164.54 C 72.65 164.44 76.14 164.19 79.65 163.76 C 79.45 159.55 77.05 156.81 74.54 153.70 Z" fill="#ac2a23" />
<path d="M 113.08 156.29 C 116.34 157.09 119.16 159.07 122.60 159.54 C 126.34 160.25 130.84 159.87 134.09 161.91 C 136.13 163.11 137.26 165.28 138.39 167.27 C 135.29 167.27 132.34 168.01 129.37 168.85 C 126.41 167.46 123.57 165.79 120.59 164.44 C 115.89 162.27 110.10 162.85 105.06 162.96 C 103.06 161.75 101.11 160.47 99.20 159.12 C 103.95 158.39 108.50 157.85 113.08 156.29 Z" fill="#e9d8cb" />
<path d="M 196.03 160.37 C 195.91 162.12 195.80 163.87 195.64 165.61 C 194.33 167.64 192.81 169.92 192.18 172.28 C 191.80 174.90 192.80 177.86 193.37 180.41 C 191.97 180.75 190.58 181.17 189.19 181.57 C 189.51 177.86 190.23 174.57 188.34 171.13 C 186.91 172.18 185.51 173.27 184.12 174.36 C 184.55 178.05 185.17 181.70 185.65 185.38 C 184.52 187.65 183.51 190.05 182.20 192.21 C 182.90 185.22 181.73 177.95 180.04 171.17 C 178.98 172.44 177.98 173.75 177.09 175.14 C 176.35 174.02 175.62 172.90 174.86 171.80 C 175.44 170.15 175.99 168.49 176.51 166.82 C 180.89 167.35 182.63 164.15 186.33 162.64 C 189.37 161.47 192.83 160.99 196.03 160.37 Z" fill="#d7c2df" />
<path d="M 105.06 162.96 C 110.10 162.85 115.89 162.27 120.59 164.44 C 123.57 165.79 126.41 167.46 129.37 168.85 C 128.96 170.58 128.55 172.31 128.14 174.04 C 129.09 174.30 130.03 174.56 130.98 174.81 C 133.48 175.44 135.99 176.09 138.52 176.63 C 140.06 180.32 143.21 180.98 146.43 182.73 C 145.05 183.46 143.66 184.20 142.27 184.92 C 142.32 184.01 142.36 183.10 142.41 182.18 C 137.29 180.95 132.23 179.62 127.33 177.68 C 128.00 177.32 128.67 176.97 129.34 176.62 C 126.26 173.49 123.31 169.75 119.63 167.33 C 114.79 164.25 109.57 167.17 105.06 162.96 Z" fill="#e3977c" />
<path d="M 47.41 163.62 C 48.05 165.19 48.69 166.76 49.34 168.33 C 48.56 170.67 46.74 173.28 46.60 175.73 C 48.31 179.21 50.39 182.38 51.60 186.12 C 49.39 182.70 46.79 181.11 43.12 179.49 C 42.90 177.44 42.48 175.23 42.78 173.18 C 43.83 171.08 45.95 169.44 47.63 167.83 C 47.56 166.42 47.50 165.02 47.41 163.62 Z" fill="#e9d0c6" />
<path d="M 195.64 165.61 C 195.70 166.35 195.77 167.08 195.84 167.81 C 195.09 172.17 194.54 176.42 195.21 180.83 C 194.60 180.67 193.98 180.53 193.37 180.41 C 192.80 177.86 191.80 174.90 192.18 172.28 C 192.81 169.92 194.33 167.64 195.64 165.61 Z" fill="#0f0a21" />
<path d="M 138.39 167.27 C 139.00 168.38 139.60 169.51 140.17 170.65 L 140.49 171.30 C 138.13 171.64 135.77 171.87 133.38 171.78 C 132.03 171.67 130.69 171.51 129.34 171.35 C 128.94 172.25 128.54 173.14 128.14 174.04 C 128.55 172.31 128.96 170.58 129.37 168.85 C 132.34 168.01 135.29 167.27 138.39 167.27 Z" fill="#d2c832" />
<path d="M 49.34 168.33 L 49.66 167.48 C 49.94 170.33 49.93 172.92 51.69 175.33 C 54.55 179.25 58.02 182.76 61.37 186.25 C 59.17 185.30 56.91 184.50 54.69 183.59 C 55.82 184.93 57.14 186.27 57.98 187.81 C 58.47 189.48 58.03 191.48 57.89 193.19 C 55.54 191.07 53.43 188.70 51.60 186.12 C 50.39 182.38 48.31 179.21 46.60 175.73 C 46.74 173.28 48.56 170.67 49.34 168.33 Z" fill="#d98970" />
<path d="M 49.66 167.48 C 54.82 172.25 57.34 178.75 62.49 183.48 C 69.30 189.85 76.43 195.09 86.15 195.43 C 90.14 195.86 91.99 191.60 95.94 191.52 C 100.22 191.15 104.70 191.16 108.91 192.12 C 112.79 192.99 116.35 195.53 119.69 197.64 C 123.78 200.35 128.31 202.86 131.97 206.08 C 128.17 205.59 124.63 205.57 121.06 203.95 C 116.55 202.09 111.91 198.50 107.03 198.21 C 103.39 197.89 99.72 197.64 96.07 197.79 C 92.16 197.91 89.65 200.90 85.63 199.38 C 77.01 196.20 68.66 191.89 61.37 186.25 C 58.02 182.76 54.55 179.25 51.69 175.33 C 49.93 172.92 49.94 170.33 49.66 167.48 Z" fill="#1f213c" />
<path d="M 200.16 168.20 C 201.68 167.15 202.70 169.53 200.90 169.92 C 199.91 169.66 199.67 169.09 200.16 168.20 Z" fill="#e4d4ca" />
<path d="M 142.78 169.72 C 142.60 170.68 141.84 171.21 140.49 171.30 L 140.17 170.65 C 140.45 169.60 142.23 168.06 142.78 169.72 Z" fill="#686366" />
<path d="M 129.34 171.35 C 130.69 171.51 132.03 171.67 133.38 171.78 C 132.59 172.79 131.78 173.80 130.98 174.81 C 130.03 174.56 129.09 174.30 128.14 174.04 C 128.54 173.14 128.94 172.25 129.34 171.35 Z" fill="#7b682b" />
<path d="M 174.86 171.80 C 175.62 172.90 176.35 174.02 177.09 175.14 C 174.91 180.02 174.76 184.05 176.32 189.17 C 175.24 189.73 174.17 190.33 173.11 190.93 C 169.99 189.47 166.70 188.50 163.36 187.68 C 158.81 186.07 153.99 185.08 149.58 183.14 L 149.08 181.66 C 153.59 181.70 158.59 181.45 162.81 183.22 C 166.06 184.55 169.18 186.16 172.43 187.51 C 172.08 181.77 172.83 177.16 174.86 171.80 Z" fill="#f4e7de" />
<path d="M 180.04 171.17 C 181.73 177.95 182.90 185.22 182.20 192.21 C 181.23 193.21 180.21 194.15 179.19 195.10 C 178.33 193.07 177.28 191.16 176.32 189.17 C 174.76 184.05 174.91 180.02 177.09 175.14 C 177.98 173.75 178.98 172.44 180.04 171.17 Z" fill="#19203a" />
<path d="M 188.34 171.13 C 190.23 174.57 189.51 177.86 189.19 181.57 C 189.09 182.30 188.98 183.03 188.86 183.75 C 188.58 185.18 188.28 186.61 187.98 188.04 C 187.20 187.15 186.42 186.27 185.65 185.38 C 185.17 181.70 184.55 178.05 184.12 174.36 C 185.51 173.27 186.91 172.18 188.34 171.13 Z" fill="#182134" />
<path d="M 201.69 172.76 C 200.63 178.95 199.51 184.90 196.33 190.42 C 193.05 193.93 189.74 198.05 185.81 200.79 C 180.67 204.31 175.07 206.01 169.68 208.74 C 165.79 210.35 161.79 211.64 157.67 212.53 L 155.90 212.40 C 153.72 212.26 151.54 212.16 149.36 211.98 C 155.46 209.74 161.73 207.98 167.83 205.76 C 172.16 203.92 176.19 201.33 180.23 198.93 C 185.44 195.27 189.77 190.17 193.50 185.06 C 194.39 183.78 195.21 182.46 195.99 181.11 C 197.60 178.08 199.48 175.38 201.69 172.76 Z" fill="#202036" />
<path d="M 138.52 176.63 C 143.64 177.89 148.74 177.60 153.94 177.95 C 152.07 178.40 150.20 178.84 148.34 179.31 C 148.58 180.09 148.82 180.88 149.08 181.66 L 149.58 183.14 C 153.99 185.08 158.81 186.07 163.36 187.68 C 160.33 188.24 157.33 188.92 154.42 189.95 C 159.67 193.12 165.18 195.14 170.92 197.28 C 172.47 197.85 174.01 198.43 175.55 199.02 C 172.98 199.61 170.39 200.13 167.80 200.64 C 164.90 198.64 161.80 196.70 158.47 195.51 C 156.58 194.71 154.27 196.58 152.55 197.25 C 154.88 201.33 160.05 201.08 164.11 202.01 C 162.94 203.30 161.77 204.62 160.53 205.84 C 158.49 204.50 156.24 202.73 153.83 202.19 C 151.04 201.98 148.12 202.68 145.35 203.09 C 143.98 202.78 142.61 202.47 141.24 202.15 C 139.44 200.63 136.34 199.35 137.45 196.49 C 138.40 194.72 140.63 192.76 142.79 193.20 C 145.97 193.58 149.08 194.40 152.28 194.72 C 149.10 192.25 145.53 192.38 141.91 191.12 C 139.67 190.54 140.45 187.82 139.88 186.08 C 140.68 185.70 141.48 185.31 142.27 184.92 C 143.66 184.20 145.05 183.46 146.43 182.73 C 143.21 180.98 140.06 180.32 138.52 176.63 Z" fill="#d5c1e1" />
<path d="M 193.37 180.41 C 193.98 180.53 194.60 180.67 195.21 180.83 L 195.99 181.11 C 195.21 182.46 194.39 183.78 193.50 185.06 C 191.96 184.60 190.42 184.15 188.86 183.75 C 188.98 183.03 189.09 182.30 189.19 181.57 C 190.58 181.17 191.97 180.75 193.37 180.41 Z" fill="#be9191" />
<path d="M 61.37 186.25 C 68.66 191.89 77.01 196.20 85.63 199.38 C 89.65 200.90 92.16 197.91 96.07 197.79 C 99.72 197.64 103.39 197.89 107.03 198.21 C 111.91 198.50 116.55 202.09 121.06 203.95 C 124.63 205.57 128.17 205.59 131.97 206.08 L 133.06 207.05 C 133.53 208.09 133.99 209.14 134.43 210.20 C 133.61 210.34 132.78 210.48 131.96 210.61 C 133.65 210.79 135.34 210.97 137.03 211.14 C 136.02 211.87 135.02 212.59 134.01 213.32 C 140.41 214.17 146.83 213.88 153.26 214.44 C 150.54 215.29 147.94 216.35 145.06 216.47 C 138.11 216.79 132.42 213.16 125.35 214.07 C 117.17 215.03 109.24 213.66 101.34 211.60 C 95.69 210.09 91.57 206.93 85.66 206.55 C 79.80 204.37 76.17 199.26 70.18 197.68 C 66.15 196.16 61.56 195.38 57.89 193.19 C 58.03 191.48 58.47 189.48 57.98 187.81 C 57.14 186.27 55.82 184.93 54.69 183.59 C 56.91 184.50 59.17 185.30 61.37 186.25 Z" fill="#d25739" />
<path d="M 188.86 183.75 C 190.42 184.15 191.96 184.60 193.50 185.06 C 189.77 190.17 185.44 195.27 180.23 198.93 C 179.90 197.65 179.58 196.37 179.19 195.10 C 180.21 194.15 181.23 193.21 182.20 192.21 C 183.51 190.05 184.52 187.65 185.65 185.38 C 186.42 186.27 187.20 187.15 187.98 188.04 C 188.28 186.61 188.58 185.18 188.86 183.75 Z" fill="#d1543f" />
<path d="M 163.36 187.68 C 166.70 188.50 169.99 189.47 173.11 190.93 C 175.10 192.87 176.78 195.03 178.45 197.24 C 175.93 197.35 173.44 197.46 170.92 197.28 C 165.18 195.14 159.67 193.12 154.42 189.95 C 157.33 188.92 160.33 188.24 163.36 187.68 Z" fill="#1f1e39" />
<path d="M 176.32 189.17 C 177.28 191.16 178.33 193.07 179.19 195.10 C 179.58 196.37 179.90 197.65 180.23 198.93 C 176.19 201.33 172.16 203.92 167.83 205.76 C 161.73 207.98 155.46 209.74 149.36 211.98 C 151.54 212.16 153.72 212.26 155.90 212.40 L 155.56 214.48 C 154.79 214.46 154.03 214.45 153.26 214.44 C 146.83 213.88 140.41 214.17 134.01 213.32 C 135.02 212.59 136.02 211.87 137.03 211.14 C 135.34 210.97 133.65 210.79 131.96 210.61 C 132.78 210.48 133.61 210.34 134.43 210.20 C 138.05 209.78 140.45 208.51 143.30 206.35 C 145.68 204.40 148.27 204.68 151.16 204.71 C 154.17 205.26 157.58 206.99 160.53 205.84 C 161.77 204.62 162.94 203.30 164.11 202.01 C 166.09 202.28 168.07 202.39 170.06 202.50 C 169.31 201.87 168.57 201.24 167.80 200.64 C 170.39 200.13 172.98 199.61 175.55 199.02 C 174.01 198.43 172.47 197.85 170.92 197.28 C 173.44 197.46 175.93 197.35 178.45 197.24 C 176.78 195.03 175.10 192.87 173.11 190.93 C 174.17 190.33 175.24 189.73 176.32 189.17 Z" fill="#dc8e79" />
<path d="M 196.33 190.42 C 196.85 191.21 197.33 192.02 197.76 192.86 C 194.50 197.95 190.42 203.02 185.20 206.20 C 178.83 210.29 172.17 213.87 165.67 217.71 C 162.09 217.21 158.80 216.05 155.56 214.48 L 155.90 212.40 L 157.67 212.53 C 162.46 213.79 166.68 212.91 169.68 208.74 C 175.07 206.01 180.67 204.31 185.81 200.79 C 189.74 198.05 193.05 193.93 196.33 190.42 Z" fill="#d15740" />
<path d="M 158.47 195.51 C 161.80 196.70 164.90 198.64 167.80 200.64 C 168.57 201.24 169.31 201.87 170.06 202.50 C 168.07 202.39 166.09 202.28 164.11 202.01 C 160.05 201.08 154.88 201.33 152.55 197.25 C 154.27 196.58 156.58 194.71 158.47 195.51 Z" fill="#161832" />
<path d="M 141.24 202.15 C 142.61 202.47 143.98 202.78 145.35 203.09 C 147.28 203.66 149.21 204.23 151.16 204.71 C 148.27 204.68 145.68 204.40 143.30 206.35 C 140.45 208.51 138.05 209.78 134.43 210.20 C 133.99 209.14 133.53 208.09 133.06 207.05 C 135.72 207.07 138.37 207.09 141.03 207.11 C 140.11 206.50 139.19 205.89 138.27 205.28 C 139.25 204.22 140.22 203.17 141.24 202.15 Z" fill="#d26655" />
<path d="M 153.83 202.19 C 156.24 202.73 158.49 204.50 160.53 205.84 C 157.58 206.99 154.17 205.26 151.16 204.71 C 149.21 204.23 147.28 203.66 145.35 203.09 C 148.12 202.68 151.04 201.98 153.83 202.19 Z" fill="#120c25" />
<path d="M 98.84 202.83 C 102.58 203.26 104.16 204.06 106.78 206.69 C 103.79 205.92 101.22 204.83 98.84 202.83 Z" fill="#fcb199" />
<path d="M 101.34 211.60 C 109.24 213.66 117.17 215.03 125.35 214.07 C 124.78 214.69 124.22 215.31 123.67 215.94 C 117.86 215.06 112.11 215.38 106.28 215.48 C 99.28 212.91 92.19 210.18 85.66 206.55 C 91.57 206.93 95.69 210.09 101.34 211.60 Z" fill="#33111a" />
<path d="M 169.68 208.74 C 166.68 212.91 162.46 213.79 157.67 212.53 C 161.79 211.64 165.79 210.35 169.68 208.74 Z" fill="#d0978c" />
<path d="M 125.35 214.07 C 132.42 213.16 138.11 216.79 145.06 216.47 C 147.94 216.35 150.54 215.29 153.26 214.44 C 154.03 214.45 154.79 214.46 155.56 214.48 C 158.80 216.05 162.09 217.21 165.67 217.71 C 166.41 217.83 167.15 217.95 167.90 218.07 C 162.75 220.10 159.55 224.49 154.29 226.17 C 146.94 228.73 139.49 230.74 131.65 230.82 C 124.35 230.79 118.28 232.58 111.21 230.89 C 107.21 229.93 103.22 230.78 99.23 229.92 C 96.92 229.48 94.62 229.05 92.28 228.87 C 85.80 228.28 79.43 226.96 72.96 226.28 C 79.11 226.00 85.24 227.63 91.33 226.92 C 96.99 226.29 102.65 226.77 108.30 225.92 C 115.03 225.20 121.65 226.06 128.18 224.65 C 121.01 224.21 113.96 225.27 106.80 224.29 C 107.29 223.02 107.77 221.74 108.24 220.47 C 112.49 220.41 116.66 220.25 120.75 218.97 C 125.08 217.62 129.52 217.12 134.02 216.75 C 130.56 216.64 127.11 216.40 123.67 215.94 C 124.22 215.31 124.78 214.69 125.35 214.07 Z" fill="#20223d" />
<path d="M 106.28 215.48 C 112.11 215.38 117.86 215.06 123.67 215.94 C 127.11 216.40 130.56 216.64 134.02 216.75 C 129.52 217.12 125.08 217.62 120.75 218.97 C 116.66 220.25 112.49 220.41 108.24 220.47 C 107.77 221.74 107.29 223.02 106.80 224.29 C 113.96 225.27 121.01 224.21 128.18 224.65 C 121.65 226.06 115.03 225.20 108.30 225.92 C 102.79 225.40 97.29 225.09 91.78 224.72 C 93.70 224.08 95.64 223.48 97.59 222.92 C 97.01 222.09 96.42 221.27 95.83 220.43 C 99.07 220.90 102.29 221.29 105.57 221.21 C 102.96 219.50 100.26 218.41 97.26 217.63 C 100.32 217.13 103.29 216.32 106.28 215.48 Z" fill="#d45739" />
</svg>