<?xml version="1.0" encoding="UTF-8" standalone="no"?>
<!DOCTYPE svg PUBLIC "-//W3C//DTD SVG 1.1//EN" "http://www.w3.org/Graphics/SVG/1.1/DTD/svg11.dtd">
<svg xmlns="http://www.w3.org/2000/svg" version="1.1" viewBox="0 0 256 256" width="256.0pt" height="256.0pt">
<path d="M 0.00 0.00 L 256.00 0.00 L 256.00 256.00 L 0.00 256.00 L 0.00 0.00 Z" fill="#ffffff" />
<path d="M 52.97 14.08 C 60.91 16.55 68.77 20.54 76.35 23.67 C 84.62 27.09 93.22 28.59 102.05 29.80 C 109.27 30.75 115.86 28.87 123.04 29.10 C 130.54 29.22 137.69 30.77 145.06 31.84 C 153.49 33.08 160.47 28.90 168.87 30.19 C 177.01 31.47 185.47 34.63 191.10 40.88 C 195.23 45.59 198.81 50.44 198.90 56.98 C 199.30 62.19 198.82 70.23 202.81 74.20 C 206.62 76.78 212.13 77.01 216.47 78.52 C 225.87 81.50 235.57 88.02 239.76 97.24 C 242.90 103.65 244.40 111.01 244.91 118.09 C 245.34 124.13 244.32 130.68 240.63 135.64 C 236.90 140.64 229.30 141.89 225.77 146.75 C 223.02 150.66 223.54 155.50 225.36 159.68 C 227.75 165.22 231.16 170.17 230.39 176.53 C 229.13 184.27 224.69 191.89 220.42 198.35 C 216.34 205.30 212.50 212.37 208.08 219.12 C 206.63 221.28 204.83 223.16 202.83 224.82 C 196.04 230.32 188.97 235.34 180.98 238.96 C 174.50 242.20 167.74 243.76 160.84 245.82 C 155.12 247.46 149.62 247.17 143.73 247.27 C 138.24 247.25 131.81 247.46 126.67 245.35 C 120.72 243.02 116.35 237.82 110.53 235.51 C 104.45 233.56 98.45 236.57 92.93 238.83 C 85.83 241.89 78.60 242.16 70.99 242.12 C 62.02 241.93 51.60 241.00 43.75 236.31 C 39.27 233.79 35.05 231.28 31.53 227.46 C 27.46 222.99 23.15 218.07 20.49 212.61 C 17.26 206.01 14.63 199.38 14.10 191.95 C 13.04 182.17 15.23 172.39 19.64 163.66 C 22.19 158.67 25.86 154.71 29.74 150.74 C 32.86 147.55 35.57 143.86 38.93 140.95 C 44.66 136.11 52.42 133.66 58.35 129.33 C 61.20 127.23 62.12 123.83 61.58 120.44 C 60.76 115.30 58.25 110.15 54.36 106.64 C 51.18 103.92 46.11 103.14 42.18 101.88 C 37.04 100.23 31.61 99.35 26.62 97.34 C 17.10 92.87 10.60 81.78 12.21 71.24 C 13.07 65.51 16.64 60.42 22.10 58.23 C 25.96 56.37 32.05 55.23 34.00 51.01 C 35.83 47.23 33.30 42.65 31.87 39.14 C 29.07 33.29 27.93 26.90 29.57 20.54 C 30.22 17.97 32.14 16.50 34.33 15.25 C 39.88 12.12 47.02 12.31 52.97 14.08 Z" fill="#f8f8f5" />
<path d="M 35.09 22.17 C 36.36 22.77 37.62 23.40 38.87 24.03 C 42.71 27.62 46.81 30.83 50.99 34.01 C 55.60 37.49 58.58 42.39 63.13 45.90 C 65.86 48.05 68.87 49.99 71.79 51.88 C 71.78 50.59 71.77 49.29 71.76 48.00 C 73.69 48.61 75.61 49.23 77.54 49.85 C 77.10 50.68 76.66 51.52 76.23 52.36 C 80.96 52.16 85.34 52.97 89.93 54.04 C 92.55 54.77 94.51 53.73 96.77 52.58 C 104.70 48.72 112.92 44.96 121.48 42.74 C 121.63 43.82 121.78 44.90 121.93 45.98 C 123.18 44.92 124.40 43.83 125.63 42.75 C 129.09 43.33 132.10 44.56 135.02 46.50 C 135.56 47.24 136.08 48.00 136.59 48.77 C 139.93 54.81 144.52 58.41 150.77 61.14 C 159.99 65.51 171.45 66.30 181.03 62.64 C 175.83 60.78 170.85 58.72 165.32 57.99 C 164.11 57.57 162.92 57.10 161.74 56.63 C 164.04 56.45 166.37 56.30 168.68 56.43 C 172.63 56.71 176.65 58.46 180.49 59.53 C 181.10 59.71 181.72 59.90 182.33 60.08 C 183.39 60.38 184.44 60.68 185.50 60.98 C 183.87 62.71 182.23 64.92 180.13 66.09 C 178.27 66.89 176.17 67.23 174.18 67.62 C 174.26 68.93 174.33 70.25 174.39 71.57 C 172.53 71.86 170.67 72.16 168.80 72.45 C 163.52 73.17 158.20 73.43 152.92 74.18 C 151.68 73.94 150.44 73.66 149.20 73.38 C 148.84 71.22 148.55 68.64 147.33 66.78 C 146.09 65.01 144.28 63.54 142.61 62.18 C 142.40 67.12 141.80 71.64 138.98 75.85 C 134.46 80.31 128.99 81.28 123.15 82.98 C 122.51 82.96 121.87 82.92 121.23 82.87 C 118.75 80.54 115.96 78.80 112.92 77.29 C 113.37 73.37 113.06 71.97 110.67 68.81 C 110.84 70.47 111.03 72.12 111.25 73.77 C 110.55 74.29 109.85 74.81 109.16 75.34 C 108.53 73.88 107.91 72.42 107.25 70.98 C 106.53 71.41 105.82 71.85 105.10 72.28 C 104.49 71.05 103.88 69.82 103.28 68.58 C 99.34 70.05 95.40 71.51 91.42 72.85 C 94.46 72.97 96.99 73.38 99.68 74.88 C 98.42 75.24 97.14 75.56 95.85 75.85 C 92.03 75.85 88.31 75.69 84.70 74.33 C 80.07 72.62 75.83 69.05 71.87 66.13 C 67.12 62.61 63.11 58.41 59.09 54.09 C 57.83 50.14 56.37 47.30 53.13 44.62 C 49.96 41.71 47.33 38.55 45.04 34.92 C 42.16 30.29 38.59 26.31 35.09 22.17 Z" fill="#232542" />
<path d="M 44.04 21.93 C 58.18 23.11 69.07 29.24 83.05 33.91 C 95.18 39.01 107.07 36.31 120.03 37.03 C 129.07 37.62 138.10 38.24 147.16 38.52 C 153.46 38.56 159.71 37.70 166.02 37.86 C 170.15 38.00 174.14 37.88 177.70 40.30 C 183.37 44.11 189.42 49.71 191.38 56.47 C 192.99 63.04 191.25 70.41 192.61 77.03 C 193.37 80.51 197.16 82.72 200.42 83.40 C 205.75 84.53 211.02 84.77 216.22 86.68 C 220.26 88.01 223.51 90.54 226.49 93.51 C 229.54 96.57 232.47 99.86 234.00 103.98 C 235.96 109.19 236.63 115.14 237.17 120.66 C 236.09 120.34 235.01 120.03 233.94 119.64 C 232.88 119.19 231.84 118.67 230.80 118.16 C 227.86 114.19 226.38 110.23 225.99 105.32 C 225.92 102.97 225.90 100.61 225.88 98.25 C 221.82 95.79 218.15 92.69 214.06 90.29 L 213.71 90.25 C 213.04 90.24 212.37 90.23 211.70 90.24 C 208.05 90.40 204.30 90.08 200.68 90.59 C 196.95 91.22 194.72 94.67 192.88 97.64 C 192.28 99.30 191.70 100.99 191.31 102.71 C 190.29 106.68 190.85 109.98 192.66 113.60 C 195.05 117.91 197.42 122.21 199.62 126.62 C 200.81 128.93 201.85 131.32 203.03 133.64 C 204.52 135.84 206.40 136.10 208.85 136.60 C 210.13 131.16 211.16 125.72 211.89 120.18 C 213.06 119.48 214.23 118.79 215.39 118.09 C 215.66 120.55 215.74 123.26 216.64 125.57 C 217.74 127.96 219.69 130.07 221.28 132.16 C 222.79 132.10 224.28 132.05 225.78 131.94 C 226.50 132.57 227.21 133.20 227.93 133.82 C 223.88 137.56 216.53 139.87 215.30 145.47 C 213.52 150.96 215.05 157.30 217.87 162.18 C 220.39 166.71 223.08 170.72 221.41 176.16 C 218.83 173.33 216.26 170.56 213.25 168.19 C 212.07 170.84 210.94 173.52 209.90 176.22 C 206.96 172.59 206.30 167.98 203.48 164.27 C 202.61 162.96 201.94 161.55 201.15 160.18 C 202.71 158.32 204.25 156.46 205.70 154.52 C 204.27 151.06 202.03 148.45 200.15 145.07 C 199.13 143.37 198.27 141.45 196.96 139.95 C 195.64 139.05 194.02 138.53 192.54 137.94 C 193.63 136.06 194.41 134.43 194.42 132.20 C 192.57 133.85 190.85 135.54 189.61 137.70 C 187.65 137.17 185.67 136.69 183.69 136.23 C 183.98 135.18 184.28 134.13 184.58 133.09 C 183.20 133.48 181.82 133.88 180.44 134.27 C 180.26 133.22 180.07 132.17 179.89 131.12 C 179.58 131.69 179.27 132.26 178.97 132.83 C 176.31 134.60 173.64 136.13 170.40 136.41 C 165.24 136.85 159.31 138.21 154.31 136.91 C 152.85 136.54 152.13 135.93 151.78 134.42 C 151.15 130.33 151.89 125.96 151.96 121.83 C 152.68 120.84 153.43 119.87 154.20 118.92 C 160.30 112.09 170.41 109.33 175.91 102.23 C 178.19 98.39 180.97 94.95 183.49 91.29 C 185.16 89.43 183.66 87.16 182.58 85.43 C 178.97 80.47 173.55 77.01 168.39 73.87 L 168.80 72.45 C 170.67 72.16 172.53 71.86 174.39 71.57 C 174.33 70.25 174.26 68.93 174.18 67.62 C 176.17 67.23 178.27 66.89 180.13 66.09 C 182.23 64.92 183.87 62.71 185.50 60.98 C 184.44 60.68 183.39 60.38 182.33 60.08 C 181.86 56.63 182.34 51.60 180.17 48.77 C 177.55 46.18 174.22 50.07 172.03 51.53 C 172.73 49.83 173.42 48.12 174.09 46.41 C 169.78 44.71 165.20 44.08 160.60 44.61 C 159.45 46.09 158.65 47.95 157.81 49.63 C 149.75 49.35 143.13 45.54 135.02 46.50 C 132.10 44.56 129.09 43.33 125.63 42.75 C 124.25 42.68 122.86 42.68 121.48 42.74 C 112.92 44.96 104.70 48.72 96.77 52.58 C 98.08 48.61 100.97 48.17 104.52 46.76 C 99.40 45.80 94.52 45.08 89.60 43.38 C 82.18 40.77 74.70 38.78 67.58 35.36 C 60.50 31.99 53.48 28.61 45.99 26.19 C 46.60 25.86 47.22 25.53 47.83 25.19 C 46.57 24.10 45.28 23.05 44.04 21.93 Z" fill="#f1f1ef" />
<path d="M 38.87 24.03 C 41.24 24.79 43.63 25.42 45.99 26.19 C 53.48 28.61 60.50 31.99 67.58 35.36 C 74.70 38.78 82.18 40.77 89.60 43.38 C 94.52 45.08 99.40 45.80 104.52 46.76 C 100.97 48.17 98.08 48.61 96.77 52.58 C 94.51 53.73 92.55 54.77 89.93 54.04 C 85.34 52.97 80.96 52.16 76.23 52.36 C 76.66 51.52 77.10 50.68 77.54 49.85 C 75.61 49.23 73.69 48.61 71.76 48.00 C 71.77 49.29 71.78 50.59 71.79 51.88 C 68.87 49.99 65.86 48.05 63.13 45.90 C 58.58 42.39 55.60 37.49 50.99 34.01 C 46.81 30.83 42.71 27.62 38.87 24.03 Z" fill="#ca88c7" />
<path d="M 125.63 42.75 C 124.40 43.83 123.18 44.92 121.93 45.98 C 121.78 44.90 121.63 43.82 121.48 42.74 C 122.86 42.68 124.25 42.68 125.63 42.75 Z" fill="#868299" />
<path d="M 174.09 46.41 C 173.42 48.12 172.73 49.83 172.03 51.53 C 174.22 50.07 177.55 46.18 180.17 48.77 C 182.34 51.60 181.86 56.63 182.33 60.08 C 181.72 59.90 181.10 59.71 180.49 59.53 C 179.39 57.67 179.00 55.92 176.60 55.45 C 171.07 54.11 165.41 53.42 159.88 51.99 C 155.80 50.87 151.71 51.73 147.64 51.23 C 143.78 49.76 140.95 47.92 136.59 48.77 C 136.08 48.00 135.56 47.24 135.02 46.50 C 143.13 45.54 149.75 49.35 157.81 49.63 C 158.65 47.95 159.45 46.09 160.60 44.61 C 165.20 44.08 169.78 44.71 174.09 46.41 Z" fill="#e5d9e5" />
<path d="M 53.13 44.62 C 56.37 47.30 57.83 50.14 59.09 54.09 C 56.82 52.00 54.52 49.93 52.29 47.79 C 52.57 46.73 52.85 45.68 53.13 44.62 Z" fill="#a39fae" />
<path d="M 147.64 51.23 C 151.71 51.73 155.80 50.87 159.88 51.99 C 165.41 53.42 171.07 54.11 176.60 55.45 C 179.00 55.92 179.39 57.67 180.49 59.53 C 176.65 58.46 172.63 56.71 168.68 56.43 C 166.37 56.30 164.04 56.45 161.74 56.63 C 162.92 57.10 164.11 57.57 165.32 57.99 C 160.46 59.54 155.82 60.52 150.77 61.14 C 144.52 58.41 139.93 54.81 136.59 48.77 C 140.95 47.92 143.78 49.76 147.64 51.23 Z" fill="#b7a0c9" />
<path d="M 125.30 56.22 C 130.05 57.68 134.78 61.56 134.85 66.88 C 134.29 69.64 131.80 72.15 129.87 74.10 C 126.10 75.22 122.47 74.73 118.64 74.33 C 117.35 72.60 115.80 70.81 115.02 68.78 C 114.42 65.85 115.41 62.55 117.13 60.15 C 118.85 57.74 122.56 56.91 125.30 56.22 Z" fill="#e09ae6" />
<path d="M 165.32 57.99 C 170.85 58.72 175.83 60.78 181.03 62.64 C 171.45 66.30 159.99 65.51 150.77 61.14 C 155.82 60.52 160.46 59.54 165.32 57.99 Z" fill="#9a7ebb" />
<path d="M 129.92 65.10 C 129.73 67.76 126.18 68.96 124.24 70.23 C 123.12 68.53 121.88 66.80 121.03 64.94 C 122.03 60.27 129.13 60.47 129.92 65.10 Z" fill="#798b5b" />
<path d="M 142.61 62.18 C 144.28 63.54 146.09 65.01 147.33 66.78 C 148.55 68.64 148.84 71.22 149.20 73.38 C 150.44 73.66 151.68 73.94 152.92 74.18 C 148.59 76.66 142.94 76.87 140.47 81.17 C 139.94 79.40 139.52 77.61 138.98 75.85 C 141.80 71.64 142.40 67.12 142.61 62.18 Z" fill="#8868af" />
<path d="M 153.75 65.51 C 159.70 66.64 166.15 67.04 171.77 69.34 C 168.10 71.57 164.79 70.21 160.96 69.35 C 158.25 68.63 155.96 67.17 153.75 65.51 Z" fill="#9c96b0" />
<path d="M 24.82 66.08 C 26.74 66.62 28.63 67.23 30.55 67.76 C 27.75 70.87 25.31 72.85 21.55 74.70 L 20.84 75.13 C 21.72 71.84 22.51 68.72 24.82 66.08 Z" fill="#f8ddde" />
<path d="M 30.55 67.76 C 33.58 68.26 37.03 68.56 39.80 69.95 C 40.52 71.61 40.83 73.54 41.20 75.31 C 41.91 75.61 42.61 75.90 43.32 76.19 C 45.48 77.08 47.49 77.54 49.81 77.00 C 55.64 75.83 61.20 74.05 67.20 73.74 C 76.75 75.40 86.29 77.28 95.81 79.13 C 98.04 79.75 100.23 80.56 102.39 81.39 C 99.83 81.44 97.26 81.50 94.71 81.42 C 92.45 80.47 90.17 79.57 87.83 78.85 C 87.96 80.59 88.14 82.34 88.31 84.08 C 82.86 81.42 77.21 81.46 71.36 82.50 C 65.31 83.60 59.52 82.81 53.60 84.52 C 48.45 85.81 43.64 88.22 38.49 89.44 C 35.13 90.29 32.34 88.20 30.15 85.89 C 27.03 82.40 24.41 78.43 21.55 74.70 C 25.31 72.85 27.75 70.87 30.55 67.76 Z" fill="#dd747f" />
<path d="M 103.28 68.58 C 103.88 69.82 104.49 71.05 105.10 72.28 C 103.38 73.34 101.61 74.25 99.68 74.88 C 96.99 73.38 94.46 72.97 91.42 72.85 C 95.40 71.51 99.34 70.05 103.28 68.58 Z" fill="#817891" />
<path d="M 140.74 67.44 C 139.03 71.20 136.85 74.17 133.95 77.10 C 135.35 72.84 135.98 69.07 140.74 67.44 Z" fill="#645d82" />
<path d="M 110.67 68.81 C 113.06 71.97 113.37 73.37 112.92 77.29 C 115.96 78.80 118.75 80.54 121.23 82.87 C 118.27 82.55 115.02 82.30 112.56 80.43 C 110.90 79.16 110.01 77.19 109.16 75.34 C 109.85 74.81 110.55 74.29 111.25 73.77 C 111.03 72.12 110.84 70.47 110.67 68.81 Z" fill="#8b6fa8" />
<path d="M 107.25 70.98 C 107.91 72.42 108.53 73.88 109.16 75.34 C 110.01 77.19 110.90 79.16 112.56 80.43 C 115.02 82.30 118.27 82.55 121.23 82.87 C 121.87 82.92 122.51 82.96 123.15 82.98 C 125.33 85.41 127.11 86.46 130.27 87.32 C 126.05 87.93 121.94 87.43 117.81 86.49 C 119.50 88.04 121.18 89.61 122.84 91.19 C 119.34 91.13 115.85 91.03 112.35 90.88 C 111.60 90.68 110.85 90.47 110.10 90.26 C 108.33 88.44 106.70 85.98 104.21 85.19 C 100.95 84.10 97.75 83.04 94.71 81.42 C 97.26 81.50 99.83 81.44 102.39 81.39 C 100.23 80.56 98.04 79.75 95.81 79.13 C 96.83 78.04 97.85 76.94 98.86 75.85 C 97.86 75.85 96.86 75.85 95.85 75.85 C 97.14 75.56 98.42 75.24 99.68 74.88 C 101.61 74.25 103.38 73.34 105.10 72.28 C 105.82 71.85 106.53 71.41 107.25 70.98 Z" fill="#d9bdcb" />
<path d="M 168.80 72.45 L 168.39 73.87 C 168.16 74.86 168.03 75.86 167.89 76.87 C 165.80 77.88 163.15 79.48 160.75 79.04 C 158.79 78.62 156.97 77.03 155.28 76.00 C 156.22 77.82 157.02 79.70 157.93 81.54 C 154.70 81.56 151.56 80.85 148.36 80.69 C 145.84 82.23 144.06 84.93 141.67 86.68 C 140.18 86.95 139.35 84.79 138.43 83.90 C 139.13 83.00 139.79 82.08 140.47 81.17 C 142.94 76.87 148.59 76.66 152.92 74.18 C 158.20 73.43 163.52 73.17 168.80 72.45 Z" fill="#d7bdc3" />
<path d="M 67.20 73.74 C 61.20 74.05 55.64 75.83 49.81 77.00 C 47.49 77.54 45.48 77.08 43.32 76.19 C 50.98 71.31 58.70 72.74 67.20 73.74 Z" fill="#e2a8ae" />
<path d="M 118.64 74.33 C 122.47 74.73 126.10 75.22 129.87 74.10 C 128.43 75.35 126.85 77.01 125.00 77.60 C 122.94 78.02 120.67 77.74 118.58 77.66 C 118.61 76.55 118.64 75.44 118.64 74.33 Z" fill="#342c51" />
<path d="M 168.39 73.87 C 173.55 77.01 178.97 80.47 182.58 85.43 C 183.66 87.16 185.16 89.43 183.49 91.29 C 180.97 94.95 178.19 98.39 175.91 102.23 C 174.55 101.73 173.19 101.25 171.84 100.75 C 172.68 98.67 173.40 96.50 174.10 94.38 C 172.61 94.65 171.11 94.85 169.62 95.12 C 170.63 91.70 171.53 88.33 171.45 84.72 C 170.23 83.34 169.06 81.94 167.72 80.67 C 168.94 81.10 170.16 81.54 171.38 81.99 C 170.27 80.24 169.10 78.54 167.89 76.87 C 168.03 75.86 168.16 74.86 168.39 73.87 Z" fill="#272945" />
<path d="M 20.84 75.13 L 21.55 74.70 C 24.41 78.43 27.03 82.40 30.15 85.89 C 32.34 88.20 35.13 90.29 38.49 89.44 C 43.64 88.22 48.45 85.81 53.60 84.52 C 59.52 82.81 65.31 83.60 71.36 82.50 C 77.21 81.46 82.86 81.42 88.31 84.08 C 89.94 85.33 91.39 86.72 92.88 88.13 C 91.53 88.20 90.18 88.24 88.82 88.27 C 86.71 88.18 84.60 88.11 82.49 88.13 C 84.61 90.62 87.00 91.24 90.06 92.00 C 89.11 94.26 88.08 96.44 86.47 98.32 C 86.48 97.20 86.48 96.09 86.49 94.97 C 84.61 95.59 82.74 96.25 80.85 96.86 C 81.01 97.68 81.16 98.49 81.31 99.31 C 78.90 99.54 76.49 99.77 74.07 100.00 C 76.12 101.28 78.17 102.57 80.26 103.76 C 78.43 103.77 76.60 103.87 74.78 103.96 C 76.60 104.89 78.40 105.86 80.21 106.81 C 81.27 107.80 82.27 108.91 83.42 109.80 C 86.01 110.01 88.77 109.13 91.33 108.73 C 99.34 109.82 106.99 110.19 114.80 107.65 C 115.69 109.44 116.77 111.12 117.68 112.90 C 118.56 111.69 119.51 110.49 120.29 109.21 C 121.92 110.46 123.53 111.76 125.16 113.02 C 123.78 115.31 122.40 117.60 120.95 119.85 C 118.79 121.33 114.30 122.99 113.81 125.85 C 113.95 128.44 116.42 130.98 117.79 133.09 C 118.52 134.12 119.25 135.16 119.91 136.24 C 122.37 140.42 123.54 144.98 123.80 149.80 C 123.77 151.52 123.96 153.59 123.28 155.20 C 122.38 157.03 120.72 158.54 119.19 159.85 C 114.55 163.16 111.14 167.75 106.69 171.18 C 103.92 171.34 100.53 170.43 98.66 168.26 C 97.49 166.61 97.61 163.98 97.57 162.04 C 99.38 157.34 102.16 153.35 104.99 149.24 C 104.04 148.00 103.10 146.75 102.14 145.52 C 100.65 143.70 99.03 141.83 97.19 140.36 C 90.59 134.66 82.04 132.53 73.51 132.03 C 73.47 133.84 73.31 135.82 73.78 137.58 C 74.81 140.02 76.66 142.21 78.14 144.39 C 83.76 142.96 89.37 141.53 95.11 140.63 C 95.84 141.88 96.68 143.14 97.19 144.50 C 97.05 146.48 96.02 148.44 95.38 150.30 C 93.72 154.10 94.51 157.61 95.61 161.40 C 95.04 163.91 94.14 165.98 95.25 168.51 C 96.51 171.56 98.40 175.46 102.19 175.63 C 108.03 176.07 114.55 174.78 119.42 171.42 C 124.08 167.89 127.85 163.05 131.97 158.90 C 133.66 160.33 135.40 162.06 137.43 162.99 C 138.82 162.91 140.22 162.20 141.51 161.72 C 141.74 162.53 141.97 163.34 142.21 164.14 C 142.78 163.73 143.35 163.32 143.92 162.91 C 145.76 161.70 147.63 160.54 149.49 159.36 C 149.51 159.58 149.52 159.80 149.54 160.02 C 149.61 161.17 149.64 162.36 149.89 163.48 C 150.99 164.59 152.44 165.38 153.75 166.23 C 155.09 165.42 156.44 164.62 157.78 163.81 C 158.24 164.97 158.69 166.14 159.13 167.31 L 158.71 168.00 C 156.98 169.66 155.02 170.98 153.04 172.32 C 152.19 174.82 151.22 177.01 149.35 178.94 C 147.04 181.14 145.73 184.88 147.16 187.83 C 150.44 190.18 155.03 188.18 158.05 186.21 C 159.08 185.59 160.10 184.97 161.13 184.36 L 161.23 186.12 C 160.26 187.60 159.30 189.10 158.38 190.61 L 157.65 191.85 C 157.47 192.32 157.30 192.79 157.13 193.27 C 161.60 194.19 165.02 195.44 168.38 198.64 C 171.21 197.69 174.02 196.69 176.82 195.65 C 177.62 196.79 178.43 197.93 179.24 199.06 C 175.04 202.23 170.52 205.65 165.54 207.43 C 162.80 208.35 160.37 209.11 158.52 211.48 C 155.73 214.94 152.18 217.05 148.47 219.34 C 146.82 216.21 145.17 213.55 141.72 212.20 C 136.67 210.22 131.12 209.80 126.02 207.84 C 123.98 206.91 122.01 205.85 119.98 204.91 C 117.29 203.68 114.47 202.12 111.42 202.32 C 107.83 202.52 104.33 203.42 100.72 203.56 C 97.99 203.70 95.15 203.42 92.46 203.81 C 89.79 204.58 87.40 206.57 85.09 208.08 C 82.02 206.29 78.87 204.67 75.59 203.30 C 75.36 203.89 75.13 204.48 74.90 205.08 C 74.10 203.97 73.37 202.83 72.64 201.68 C 77.90 201.21 82.01 198.75 85.90 195.35 C 84.92 197.04 84.00 198.77 83.10 200.50 C 89.18 196.55 93.42 190.35 93.75 182.98 C 93.71 175.50 92.38 168.25 87.90 162.08 C 84.19 156.78 78.14 153.75 72.12 151.85 C 68.45 150.73 65.22 151.67 61.66 152.60 C 61.85 151.51 62.03 150.43 62.20 149.34 C 60.52 150.34 58.94 151.46 57.31 152.54 C 55.83 151.88 54.08 150.56 52.45 151.29 C 51.01 151.74 50.26 153.86 49.48 155.06 C 44.42 154.95 41.32 157.68 38.37 161.51 C 37.60 162.46 36.86 163.45 36.13 164.44 C 30.27 171.73 28.10 180.43 28.77 189.69 C 28.72 195.53 29.79 201.25 32.53 206.44 C 34.76 210.57 38.49 213.22 40.55 217.49 C 41.53 219.10 42.12 221.23 44.01 221.96 C 46.61 223.16 49.32 224.13 52.01 225.08 C 55.02 226.15 57.82 225.85 60.96 226.01 C 62.28 226.52 63.61 227.03 64.96 227.49 C 67.21 228.28 69.46 229.05 71.72 229.80 C 72.41 229.42 73.11 229.04 73.81 228.66 C 75.55 229.29 77.60 230.50 79.47 230.35 C 83.58 229.33 87.41 226.30 91.07 224.19 C 95.75 221.27 100.39 219.63 104.48 215.86 C 106.61 214.12 108.30 211.85 111.38 212.31 C 115.97 212.96 120.31 216.84 123.99 219.46 C 122.88 220.97 121.76 222.48 120.63 223.97 C 122.12 227.02 123.53 230.11 125.07 233.14 C 120.00 230.70 114.91 226.38 109.31 225.50 C 104.29 224.67 99.74 227.43 95.40 229.50 C 89.20 232.81 81.91 233.00 74.97 233.97 C 68.30 234.88 61.92 233.83 55.40 232.41 C 51.33 231.47 47.75 229.01 44.18 226.90 C 36.27 222.63 30.48 214.10 26.40 206.30 C 21.66 197.57 21.10 187.73 22.80 178.10 C 23.78 172.71 26.98 167.45 29.70 162.74 C 33.65 155.71 40.83 151.08 46.90 145.87 C 50.58 142.67 54.13 140.44 58.64 138.57 C 64.28 136.40 68.72 131.40 70.65 125.75 C 71.55 120.98 71.59 114.66 68.41 110.64 C 66.23 107.66 64.25 104.61 62.32 101.47 C 59.42 96.59 52.91 94.44 47.61 93.59 C 41.11 92.71 34.70 91.46 28.48 89.36 C 27.21 88.89 26.06 88.51 25.41 87.25 C 23.67 84.05 22.12 80.80 19.97 77.84 C 20.25 76.93 20.54 76.03 20.84 75.13 Z" fill="#f2f2f0" />
<path d="M 138.98 75.85 C 139.52 77.61 139.94 79.40 140.47 81.17 C 139.79 82.08 139.13 83.00 138.43 83.90 C 136.00 85.64 133.24 86.87 130.27 87.32 C 127.11 86.46 125.33 85.41 123.15 82.98 C 128.99 81.28 134.46 80.31 138.98 75.85 Z" fill="#aa8db5" />
<path d="M 155.28 76.00 C 156.97 77.03 158.79 78.62 160.75 79.04 C 163.15 79.48 165.80 77.88 167.89 76.87 C 169.10 78.54 170.27 80.24 171.38 81.99 C 170.16 81.54 168.94 81.10 167.72 80.67 C 169.06 81.94 170.23 83.34 171.45 84.72 C 170.67 85.89 169.92 87.07 169.16 88.25 C 166.74 86.95 164.33 85.65 161.84 84.50 C 159.49 87.12 158.00 90.24 155.95 93.05 C 153.75 95.80 150.42 97.79 147.74 100.07 C 144.07 103.25 145.89 107.89 142.40 110.95 C 138.20 115.05 137.31 122.26 139.92 127.45 C 138.85 127.99 137.80 128.56 136.75 129.13 C 136.91 130.12 137.09 131.10 137.31 132.08 C 136.56 132.63 135.83 133.19 135.13 133.80 C 134.31 131.05 133.70 127.48 131.55 125.45 C 129.18 123.17 126.48 121.21 123.88 119.21 C 124.77 117.23 125.72 115.28 126.65 113.32 C 130.64 109.04 135.05 105.17 139.11 100.97 C 140.43 99.76 139.54 98.76 139.39 97.28 C 135.61 98.00 131.95 99.11 128.23 100.05 C 123.78 101.12 119.73 100.35 115.31 100.57 C 110.22 100.87 105.66 103.35 100.77 104.58 C 96.51 105.62 92.23 106.55 87.97 107.59 C 89.09 107.98 90.20 108.37 91.33 108.73 C 88.77 109.13 86.01 110.01 83.42 109.80 C 82.27 108.91 81.27 107.80 80.21 106.81 C 82.02 106.73 83.81 106.52 85.62 106.38 C 85.74 105.96 85.87 105.55 86.00 105.14 C 84.07 104.73 82.18 104.19 80.26 103.76 C 78.17 102.57 76.12 101.28 74.07 100.00 C 76.49 99.77 78.90 99.54 81.31 99.31 C 81.16 98.49 81.01 97.68 80.85 96.86 C 82.74 96.25 84.61 95.59 86.49 94.97 C 86.48 96.09 86.48 97.20 86.47 98.32 C 85.14 99.63 83.73 100.87 82.35 102.14 C 86.04 100.87 89.70 99.52 93.40 98.27 C 93.21 96.19 93.01 94.11 92.76 92.03 C 99.35 92.34 105.82 91.62 112.35 90.88 C 115.85 91.03 119.34 91.13 122.84 91.19 C 121.18 89.61 119.50 88.04 117.81 86.49 C 121.94 87.43 126.05 87.93 130.27 87.32 C 133.24 86.87 136.00 85.64 138.43 83.90 C 139.35 84.79 140.18 86.95 141.67 86.68 C 144.06 84.93 145.84 82.23 148.36 80.69 C 151.56 80.85 154.70 81.56 157.93 81.54 C 157.02 79.70 156.22 77.82 155.28 76.00 Z" fill="#eee0c0" />
<path d="M 87.83 78.85 C 90.17 79.57 92.45 80.47 94.71 81.42 C 97.75 83.04 100.95 84.10 104.21 85.19 C 106.70 85.98 108.33 88.44 110.10 90.26 C 102.87 90.23 95.89 89.99 88.82 88.27 C 90.18 88.24 91.53 88.20 92.88 88.13 C 91.39 86.72 89.94 85.33 88.31 84.08 C 88.14 82.34 87.96 80.59 87.83 78.85 Z" fill="#efddc2" />
<path d="M 161.84 84.50 C 164.33 85.65 166.74 86.95 169.16 88.25 C 168.12 89.82 167.10 91.35 165.86 92.78 C 160.43 95.45 155.37 98.71 150.12 101.70 C 149.33 101.16 148.53 100.62 147.74 100.07 C 150.42 97.79 153.75 95.80 155.95 93.05 C 158.00 90.24 159.49 87.12 161.84 84.50 Z" fill="#e1bbcf" />
<path d="M 171.45 84.72 C 171.53 88.33 170.63 91.70 169.62 95.12 C 171.11 94.85 172.61 94.65 174.10 94.38 C 173.40 96.50 172.68 98.67 171.84 100.75 C 173.19 101.25 174.55 101.73 175.91 102.23 C 170.41 109.33 160.30 112.09 154.20 118.92 C 153.32 118.30 152.45 117.68 151.58 117.05 C 150.94 117.51 150.30 117.96 149.67 118.42 C 148.34 117.54 147.02 116.66 145.66 115.82 C 147.87 112.08 150.47 108.60 153.40 105.39 C 157.37 100.95 162.10 97.43 165.86 92.78 C 167.10 91.35 168.12 89.82 169.16 88.25 C 169.92 87.07 170.67 85.89 171.45 84.72 Z" fill="#4b3d62" />
<path d="M 82.49 88.13 C 84.60 88.11 86.71 88.18 88.82 88.27 C 95.89 89.99 102.87 90.23 110.10 90.26 C 110.85 90.47 111.60 90.68 112.35 90.88 C 105.82 91.62 99.35 92.34 92.76 92.03 C 93.01 94.11 93.21 96.19 93.40 98.27 C 89.70 99.52 86.04 100.87 82.35 102.14 C 83.73 100.87 85.14 99.63 86.47 98.32 C 88.08 96.44 89.11 94.26 90.06 92.00 C 87.00 91.24 84.61 90.62 82.49 88.13 Z" fill="#26283f" />
<path d="M 213.71 90.25 L 214.06 90.29 C 218.15 92.69 221.82 95.79 225.88 98.25 C 225.90 100.61 225.92 102.97 225.99 105.32 C 224.16 103.84 222.31 102.23 220.79 100.42 C 218.01 96.71 215.04 93.45 211.70 90.24 C 212.37 90.23 213.04 90.24 213.71 90.25 Z" fill="#cecccf" />
<path d="M 200.68 90.59 C 204.30 90.08 208.05 90.40 211.70 90.24 C 215.04 93.45 218.01 96.71 220.79 100.42 C 217.38 98.94 214.33 96.72 210.91 95.32 C 207.69 94.87 204.31 96.05 201.01 95.88 C 197.98 95.73 195.61 96.37 192.88 97.64 C 194.72 94.67 196.95 91.22 200.68 90.59 Z" fill="#bea99f" />
<path d="M 165.86 92.78 C 162.10 97.43 157.37 100.95 153.40 105.39 C 150.47 108.60 147.87 112.08 145.66 115.82 C 143.50 119.55 141.77 123.55 139.92 127.45 C 137.31 122.26 138.20 115.05 142.40 110.95 C 145.89 107.89 144.07 103.25 147.74 100.07 C 148.53 100.62 149.33 101.16 150.12 101.70 C 155.37 98.71 160.43 95.45 165.86 92.78 Z" fill="#d997db" />
<path d="M 210.91 95.32 C 214.33 96.72 217.38 98.94 220.79 100.42 C 222.31 102.23 224.16 103.84 225.99 105.32 C 226.38 110.23 227.86 114.19 230.80 118.16 C 226.81 120.90 223.26 123.32 222.71 128.56 C 224.58 129.52 226.39 130.57 228.24 131.55 C 227.42 131.70 226.61 131.83 225.78 131.94 C 224.28 132.05 222.79 132.10 221.28 132.16 C 221.18 130.21 220.87 128.12 221.19 126.19 C 221.81 123.79 223.26 121.58 223.80 119.16 C 223.38 118.08 222.73 117.06 222.10 116.09 C 218.68 111.39 215.14 107.08 210.03 104.10 C 208.91 104.92 207.84 105.78 206.77 106.66 C 206.04 107.26 205.33 107.89 204.64 108.56 C 203.55 109.93 202.57 111.38 201.71 112.91 C 201.36 111.65 201.01 110.38 200.66 109.12 C 197.80 110.33 195.18 111.77 192.66 113.60 C 190.85 109.98 190.29 106.68 191.31 102.71 C 191.86 104.43 192.45 106.18 193.55 107.64 C 198.79 109.13 201.90 105.01 203.63 100.74 C 203.72 99.06 201.91 97.22 201.01 95.88 C 204.31 96.05 207.69 94.87 210.91 95.32 Z" fill="#98827e" />
<path d="M 201.01 95.88 C 201.91 97.22 203.72 99.06 203.63 100.74 C 201.90 105.01 198.79 109.13 193.55 107.64 C 192.45 106.18 191.86 104.43 191.31 102.71 C 191.70 100.99 192.28 99.30 192.88 97.64 C 195.61 96.37 197.98 95.73 201.01 95.88 Z" fill="#585360" />
<path d="M 139.39 97.28 C 139.54 98.76 140.43 99.76 139.11 100.97 C 135.05 105.17 130.64 109.04 126.65 113.32 C 127.05 111.55 127.30 109.74 127.65 107.96 C 125.79 107.24 123.52 105.79 121.50 106.19 C 119.23 106.53 117.02 107.09 114.80 107.65 C 106.99 110.19 99.34 109.82 91.33 108.73 C 90.20 108.37 89.09 107.98 87.97 107.59 C 92.23 106.55 96.51 105.62 100.77 104.58 C 105.66 103.35 110.22 100.87 115.31 100.57 C 119.73 100.35 123.78 101.12 128.23 100.05 C 131.95 99.11 135.61 98.00 139.39 97.28 Z" fill="#262742" />
<path d="M 74.78 103.96 C 76.60 103.87 78.43 103.77 80.26 103.76 C 82.18 104.19 84.07 104.73 86.00 105.14 C 85.87 105.55 85.74 105.96 85.62 106.38 C 83.81 106.52 82.02 106.73 80.21 106.81 C 78.40 105.86 76.60 104.89 74.78 103.96 Z" fill="#847f78" />
<path d="M 210.03 104.10 C 215.14 107.08 218.68 111.39 222.10 116.09 C 215.84 114.46 211.82 110.29 206.77 106.66 C 207.84 105.78 208.91 104.92 210.03 104.10 Z" fill="#bca49a" />
<path d="M 121.50 106.19 C 121.08 107.19 120.68 108.20 120.29 109.21 C 119.51 110.49 118.56 111.69 117.68 112.90 C 116.77 111.12 115.69 109.44 114.80 107.65 C 117.02 107.09 119.23 106.53 121.50 106.19 Z" fill="#b8b9be" />
<path d="M 121.50 106.19 C 123.52 105.79 125.79 107.24 127.65 107.96 C 127.30 109.74 127.05 111.55 126.65 113.32 C 125.72 115.28 124.77 117.23 123.88 119.21 C 120.90 125.10 122.02 130.61 122.59 136.89 C 121.70 136.68 120.80 136.46 119.91 136.24 C 119.25 135.16 118.52 134.12 117.79 133.09 C 118.99 128.71 119.86 124.25 120.95 119.85 C 122.40 117.60 123.78 115.31 125.16 113.02 C 123.53 111.76 121.92 110.46 120.29 109.21 C 120.68 108.20 121.08 107.19 121.50 106.19 Z" fill="#8c8d99" />
<path d="M 206.77 106.66 C 211.82 110.29 215.84 114.46 222.10 116.09 C 222.73 117.06 223.38 118.08 223.80 119.16 C 223.26 121.58 221.81 123.79 221.19 126.19 C 220.87 128.12 221.18 130.21 221.28 132.16 C 219.69 130.07 217.74 127.96 216.64 125.57 C 215.74 123.26 215.66 120.55 215.39 118.09 C 214.23 118.79 213.06 119.48 211.89 120.18 C 209.64 119.66 204.85 120.50 204.31 117.50 C 203.06 114.55 205.94 112.58 207.52 110.49 C 206.55 109.85 205.59 109.21 204.64 108.56 C 205.33 107.89 206.04 107.26 206.77 106.66 Z" fill="#e2c3ae" />
<path d="M 200.66 109.12 C 201.01 110.38 201.36 111.65 201.71 112.91 C 201.18 113.87 200.69 114.86 200.25 115.86 C 198.92 119.65 200.53 123.21 201.41 126.94 C 200.82 126.84 200.22 126.73 199.62 126.62 C 197.42 122.21 195.05 117.91 192.66 113.60 C 195.18 111.77 197.80 110.33 200.66 109.12 Z" fill="#676573" />
<path d="M 204.64 108.56 C 205.59 109.21 206.55 109.85 207.52 110.49 C 205.94 112.58 203.06 114.55 204.31 117.50 C 204.85 120.50 209.64 119.66 211.89 120.18 C 211.16 125.72 210.13 131.16 208.85 136.60 C 206.40 136.10 204.52 135.84 203.03 133.64 C 204.83 131.47 206.45 129.94 205.64 126.88 C 204.29 122.95 201.07 120.14 200.25 115.86 C 200.69 114.86 201.18 113.87 201.71 112.91 C 202.57 111.38 203.55 109.93 204.64 108.56 Z" fill="#ebded3" />
<path d="M 145.66 115.82 C 147.02 116.66 148.34 117.54 149.67 118.42 C 150.30 117.96 150.94 117.51 151.58 117.05 C 152.45 117.68 153.32 118.30 154.20 118.92 C 153.43 119.87 152.68 120.84 151.96 121.83 C 150.22 124.43 147.91 127.37 148.45 130.70 C 149.14 134.86 150.74 139.40 155.10 140.91 C 158.54 142.41 162.31 140.60 165.80 140.05 C 168.81 139.45 171.40 140.43 174.28 141.22 C 172.13 143.27 170.25 145.42 168.50 147.82 C 166.34 151.00 164.10 154.12 161.92 157.29 C 160.79 157.26 159.66 157.23 158.53 157.20 C 158.55 154.82 158.75 152.55 159.17 150.21 C 155.95 151.65 152.86 152.69 150.10 155.00 C 147.39 157.27 145.88 160.06 143.92 162.91 C 143.35 163.32 142.78 163.73 142.21 164.14 C 141.97 163.34 141.74 162.53 141.51 161.72 L 141.04 160.06 C 140.41 156.64 139.89 153.21 139.23 149.79 C 138.15 144.43 138.46 138.72 138.60 133.20 C 138.93 131.27 139.41 129.35 139.92 127.45 C 141.77 123.55 143.50 119.55 145.66 115.82 Z" fill="#292946" />
<path d="M 200.25 115.86 C 201.07 120.14 204.29 122.95 205.64 126.88 C 206.45 129.94 204.83 131.47 203.03 133.64 C 201.85 131.32 200.81 128.93 199.62 126.62 C 200.22 126.73 200.82 126.84 201.41 126.94 C 200.53 123.21 198.92 119.65 200.25 115.86 Z" fill="#aba5a9" />
<path d="M 230.80 118.16 C 231.84 118.67 232.88 119.19 233.94 119.64 C 234.42 121.23 235.15 122.90 235.24 124.56 C 234.30 128.03 231.32 130.08 228.24 131.55 C 226.39 130.57 224.58 129.52 222.71 128.56 C 223.26 123.32 226.81 120.90 230.80 118.16 Z" fill="#433e52" />
<path d="M 123.88 119.21 C 126.48 121.21 129.18 123.17 131.55 125.45 C 133.70 127.48 134.31 131.05 135.13 133.80 C 131.96 136.27 132.54 139.39 132.15 142.97 C 130.11 143.35 127.82 143.53 125.95 144.46 C 124.47 145.56 124.09 148.09 123.80 149.80 C 123.54 144.98 122.37 140.42 119.91 136.24 C 120.80 136.46 121.70 136.68 122.59 136.89 C 122.02 130.61 120.90 125.10 123.88 119.21 Z" fill="#efe7d9" />
<path d="M 91.92 125.10 C 96.65 128.46 100.42 133.53 103.92 138.10 C 97.31 134.74 90.85 131.10 84.28 127.66 C 81.14 126.05 79.40 123.36 77.53 120.51 C 82.69 120.32 87.65 122.35 91.92 125.10 Z" fill="#2f314b" />
<path d="M 120.95 119.85 C 119.86 124.25 118.99 128.71 117.79 133.09 C 116.42 130.98 113.95 128.44 113.81 125.85 C 114.30 122.99 118.79 121.33 120.95 119.85 Z" fill="#b8b9bf" />
<path d="M 151.96 121.83 C 151.89 125.96 151.15 130.33 151.78 134.42 C 152.13 135.93 152.85 136.54 154.31 136.91 C 159.31 138.21 165.24 136.85 170.40 136.41 C 173.64 136.13 176.31 134.60 178.97 132.83 C 177.77 135.97 176.91 138.95 174.28 141.22 C 171.40 140.43 168.81 139.45 165.80 140.05 C 162.31 140.60 158.54 142.41 155.10 140.91 C 150.74 139.40 149.14 134.86 148.45 130.70 C 147.91 127.37 150.22 124.43 151.96 121.83 Z" fill="#858192" />
<path d="M 139.92 127.45 C 139.41 129.35 138.93 131.27 138.60 133.20 C 135.67 135.68 135.03 138.01 134.49 141.64 C 133.47 145.76 132.95 149.65 133.52 153.89 C 132.66 154.51 131.82 155.16 130.99 155.82 C 130.49 154.00 130.12 152.16 129.63 150.34 C 126.43 152.18 125.03 154.36 123.53 157.65 C 125.13 156.91 126.74 156.17 128.33 155.42 C 125.86 158.57 123.26 161.44 120.34 164.19 C 120.75 162.77 121.17 161.34 121.59 159.91 C 120.79 159.89 119.99 159.87 119.19 159.85 C 120.72 158.54 122.38 157.03 123.28 155.20 C 123.96 153.59 123.77 151.52 123.80 149.80 C 124.09 148.09 124.47 145.56 125.95 144.46 C 127.82 143.53 130.11 143.35 132.15 142.97 C 132.54 139.39 131.96 136.27 135.13 133.80 C 135.83 133.19 136.56 132.63 137.31 132.08 C 137.09 131.10 136.91 130.12 136.75 129.13 C 137.80 128.56 138.85 127.99 139.92 127.45 Z" fill="#bdb2b8" />
<path d="M 179.89 131.12 C 180.07 132.17 180.26 133.22 180.44 134.27 C 181.82 133.88 183.20 133.48 184.58 133.09 C 184.28 134.13 183.98 135.18 183.69 136.23 C 185.67 136.69 187.65 137.17 189.61 137.70 L 189.07 139.57 C 187.01 143.46 184.45 146.56 180.35 148.33 C 179.35 148.78 178.33 149.21 177.33 149.65 C 174.05 147.79 172.25 147.27 168.50 147.82 C 170.25 145.42 172.13 143.27 174.28 141.22 C 176.91 138.95 177.77 135.97 178.97 132.83 C 179.27 132.26 179.58 131.69 179.89 131.12 Z" fill="#e0d9e3" />
<path d="M 73.51 132.03 C 82.04 132.53 90.59 134.66 97.19 140.36 C 96.49 140.43 95.80 140.52 95.11 140.63 C 89.37 141.53 83.76 142.96 78.14 144.39 C 76.66 142.21 74.81 140.02 73.78 137.58 C 73.31 135.82 73.47 133.84 73.51 132.03 Z" fill="#272843" />
<path d="M 194.42 132.20 C 194.41 134.43 193.63 136.06 192.54 137.94 C 194.02 138.53 195.64 139.05 196.96 139.95 C 198.27 141.45 199.13 143.37 200.15 145.07 C 202.03 148.45 204.27 151.06 205.70 154.52 C 205.03 154.08 204.35 153.65 203.67 153.22 C 198.68 155.97 195.17 160.07 191.68 164.45 C 187.89 167.15 183.65 169.21 179.68 171.62 C 178.82 172.10 177.96 172.57 177.09 173.03 C 177.40 171.74 177.71 170.45 178.06 169.17 C 179.29 167.51 180.71 165.89 181.72 164.09 C 182.46 162.66 182.19 160.66 182.23 159.10 C 182.06 155.23 182.78 153.06 184.92 149.92 C 187.20 146.67 188.32 143.45 189.07 139.57 L 189.61 137.70 C 190.85 135.54 192.57 133.85 194.42 132.20 Z" fill="#e5dce7" />
<path d="M 138.60 133.20 C 138.46 138.72 138.15 144.43 139.23 149.79 C 139.89 153.21 140.41 156.64 141.04 160.06 C 140.75 159.28 140.44 158.50 140.12 157.74 C 138.78 155.25 136.95 152.90 135.96 150.26 C 135.58 148.25 136.21 146.01 136.35 143.98 C 135.77 143.17 135.13 142.40 134.49 141.64 C 135.03 138.01 135.67 135.68 138.60 133.20 Z" fill="#685f75" />
<path d="M 97.19 140.36 C 99.03 141.83 100.65 143.70 102.14 145.52 C 98.88 146.40 97.35 147.46 95.38 150.30 C 96.02 148.44 97.05 146.48 97.19 144.50 C 96.68 143.14 95.84 141.88 95.11 140.63 C 95.80 140.52 96.49 140.43 97.19 140.36 Z" fill="#7f7f8d" />
<path d="M 189.07 139.57 C 188.32 143.45 187.20 146.67 184.92 149.92 C 182.78 153.06 182.06 155.23 182.23 159.10 C 181.76 157.95 181.26 156.83 180.72 155.73 C 179.33 155.78 177.94 155.89 176.55 155.99 C 173.68 155.87 170.81 155.64 167.93 155.54 C 170.63 153.35 173.74 152.55 177.01 151.66 C 178.57 151.31 179.38 149.48 180.35 148.33 C 184.45 146.56 187.01 143.46 189.07 139.57 Z" fill="#776e8c" />
<path d="M 134.49 141.64 C 135.13 142.40 135.77 143.17 136.35 143.98 C 136.21 146.01 135.58 148.25 135.96 150.26 C 136.95 152.90 138.78 155.25 140.12 157.74 C 138.13 157.46 135.30 155.95 133.64 157.58 C 133.06 158.00 132.51 158.44 131.97 158.90 C 127.85 163.05 124.08 167.89 119.42 171.42 C 114.55 174.78 108.03 176.07 102.19 175.63 C 98.40 175.46 96.51 171.56 95.25 168.51 C 94.14 165.98 95.04 163.91 95.61 161.40 C 96.26 161.61 96.91 161.82 97.57 162.04 C 97.61 163.98 97.49 166.61 98.66 168.26 C 100.53 170.43 103.92 171.34 106.69 171.18 C 111.14 167.75 114.55 163.16 119.19 159.85 C 119.99 159.87 120.79 159.89 121.59 159.91 C 121.17 161.34 120.75 162.77 120.34 164.19 C 123.26 161.44 125.86 158.57 128.33 155.42 C 126.74 156.17 125.13 156.91 123.53 157.65 C 125.03 154.36 126.43 152.18 129.63 150.34 C 130.12 152.16 130.49 154.00 130.99 155.82 C 131.82 155.16 132.66 154.51 133.52 153.89 C 132.95 149.65 133.47 145.76 134.49 141.64 Z" fill="#838391" />
<path d="M 102.14 145.52 C 103.10 146.75 104.04 148.00 104.99 149.24 C 102.16 153.35 99.38 157.34 97.57 162.04 C 96.91 161.82 96.26 161.61 95.61 161.40 C 94.51 157.61 93.72 154.10 95.38 150.30 C 97.35 147.46 98.88 146.40 102.14 145.52 Z" fill="#31334e" />
<path d="M 177.33 149.65 C 178.33 149.21 179.35 148.78 180.35 148.33 C 179.38 149.48 178.57 151.31 177.01 151.66 C 173.74 152.55 170.63 153.35 167.93 155.54 C 166.51 156.94 165.13 158.39 163.86 159.93 C 162.28 160.17 160.68 160.39 159.13 160.72 C 158.66 161.74 158.22 162.78 157.78 163.81 C 156.44 164.62 155.09 165.42 153.75 166.23 C 152.44 165.38 150.99 164.59 149.89 163.48 C 149.64 162.36 149.61 161.17 149.54 160.02 C 149.52 159.80 149.51 159.58 149.49 159.36 C 147.63 160.54 145.76 161.70 143.92 162.91 C 145.88 160.06 147.39 157.27 150.10 155.00 C 152.86 152.69 155.95 151.65 159.17 150.21 C 158.75 152.55 158.55 154.82 158.53 157.20 C 159.66 157.23 160.79 157.26 161.92 157.29 C 164.10 154.12 166.34 151.00 168.50 147.82 C 172.25 147.27 174.05 147.79 177.33 149.65 Z" fill="#cc9fd9" />
<path d="M 62.20 149.34 C 62.03 150.43 61.85 151.51 61.66 152.60 C 65.22 151.67 68.45 150.73 72.12 151.85 C 78.14 153.75 84.19 156.78 87.90 162.08 C 92.38 168.25 93.71 175.50 93.75 182.98 C 93.42 190.35 89.18 196.55 83.10 200.50 C 84.00 198.77 84.92 197.04 85.90 195.35 C 82.01 198.75 77.90 201.21 72.64 201.68 C 70.39 201.74 68.11 201.68 65.87 201.52 C 60.62 197.97 56.23 193.35 54.98 186.92 C 54.00 182.99 55.13 179.63 55.95 175.82 C 60.42 173.33 64.23 172.79 69.27 172.47 C 71.81 175.00 74.63 177.20 77.37 179.51 C 77.80 180.15 78.21 180.80 78.60 181.46 C 78.49 182.21 78.38 182.95 78.27 183.70 C 78.04 185.18 77.80 186.66 77.51 188.12 C 75.71 189.26 73.91 190.41 72.08 191.49 C 70.54 188.75 70.30 186.21 70.24 183.13 C 70.42 180.66 66.91 178.47 64.75 179.76 C 60.15 182.03 58.57 187.48 61.06 191.95 C 64.15 197.26 70.25 198.24 75.90 197.74 C 81.41 196.80 86.19 193.74 88.64 188.61 C 91.62 181.65 92.69 173.29 88.36 166.62 C 85.24 162.32 80.17 159.27 75.12 157.76 C 69.43 155.98 63.88 154.74 57.93 155.99 C 54.08 157.13 50.30 158.71 46.57 160.20 C 46.47 158.97 46.36 157.74 46.24 156.52 C 45.37 157.01 44.49 157.49 43.61 157.97 C 43.07 159.08 42.71 160.90 41.69 161.66 C 40.61 161.82 39.45 161.59 38.37 161.51 C 41.32 157.68 44.42 154.95 49.48 155.06 C 52.51 154.98 54.93 154.59 57.31 152.54 C 58.94 151.46 60.52 150.34 62.20 149.34 Z" fill="#535368" />
<path d="M 52.45 151.29 C 54.08 150.56 55.83 151.88 57.31 152.54 C 54.93 154.59 52.51 154.98 49.48 155.06 C 50.26 153.86 51.01 151.74 52.45 151.29 Z" fill="#808189" />
<path d="M 203.67 153.22 C 204.35 153.65 205.03 154.08 205.70 154.52 C 204.25 156.46 202.71 158.32 201.15 160.18 C 201.94 161.55 202.61 162.96 203.48 164.27 C 199.47 163.27 195.68 163.94 191.68 164.45 C 195.17 160.07 198.68 155.97 203.67 153.22 Z" fill="#b1a9b9" />
<path d="M 75.12 157.76 L 73.24 157.98 C 74.55 158.94 75.94 159.79 77.31 160.67 C 77.81 162.13 78.31 163.59 78.82 165.05 C 77.79 165.20 76.77 165.39 75.76 165.62 C 75.28 164.45 74.77 163.29 74.25 162.13 C 73.24 164.36 72.21 166.57 71.22 168.80 C 70.70 167.36 70.18 165.92 69.66 164.48 C 66.58 165.23 63.49 165.97 60.40 166.71 C 60.32 168.53 60.24 170.35 60.16 172.18 C 58.49 171.82 56.83 171.45 55.16 171.08 C 57.13 167.89 59.25 164.83 61.69 161.97 C 60.26 160.98 58.86 159.94 57.43 158.95 C 57.59 157.96 57.76 156.98 57.93 155.99 C 63.88 154.74 69.43 155.98 75.12 157.76 Z" fill="#9791a2" />
<path d="M 176.55 155.99 C 173.09 157.60 169.07 159.03 166.22 161.61 C 162.63 165.41 159.84 169.70 160.08 175.15 C 159.46 172.78 158.83 170.46 158.71 168.00 L 159.13 167.31 C 160.61 164.82 162.11 162.23 163.86 159.93 C 165.13 158.39 166.51 156.94 167.93 155.54 C 170.81 155.64 173.68 155.87 176.55 155.99 Z" fill="#544b6c" />
<path d="M 180.72 155.73 C 181.26 156.83 181.76 157.95 182.23 159.10 C 182.19 160.66 182.46 162.66 181.72 164.09 C 180.71 165.89 179.29 167.51 178.06 169.17 C 173.37 175.40 167.79 180.84 163.09 187.05 C 163.72 187.48 164.34 187.91 164.96 188.34 C 163.30 189.08 161.65 189.83 159.93 190.45 L 158.38 190.61 C 159.30 189.10 160.26 187.60 161.23 186.12 C 163.28 183.68 165.30 181.23 167.02 178.53 C 163.57 179.31 162.17 180.16 159.94 182.86 C 160.57 180.14 160.65 177.89 160.08 175.15 C 159.84 169.70 162.63 165.41 166.22 161.61 C 169.07 159.03 173.09 157.60 176.55 155.99 C 177.94 155.89 179.33 155.78 180.72 155.73 Z" fill="#262844" />
<path d="M 57.93 155.99 C 57.76 156.98 57.59 157.96 57.43 158.95 C 58.86 159.94 60.26 160.98 61.69 161.97 C 59.25 164.83 57.13 167.89 55.16 171.08 C 56.83 171.45 58.49 171.82 60.16 172.18 C 60.24 170.35 60.32 168.53 60.40 166.71 C 63.49 165.97 66.58 165.23 69.66 164.48 C 70.18 165.92 70.70 167.36 71.22 168.80 C 72.21 166.57 73.24 164.36 74.25 162.13 C 74.77 163.29 75.28 164.45 75.76 165.62 C 76.77 165.39 77.79 165.20 78.82 165.05 C 78.31 163.59 77.81 162.13 77.31 160.67 C 80.99 162.76 83.56 165.21 86.09 168.57 C 83.08 172.50 80.54 176.90 78.60 181.46 C 78.21 180.80 77.80 180.15 77.37 179.51 C 77.27 177.29 78.55 173.14 75.68 172.23 C 73.88 171.27 71.22 172.31 69.27 172.47 C 64.23 172.79 60.42 173.33 55.95 175.82 C 55.23 176.12 54.52 176.42 53.80 176.72 C 53.83 175.85 53.85 174.98 53.86 174.10 C 50.13 176.79 46.90 179.89 45.32 184.31 C 44.34 187.08 45.31 190.38 45.79 193.17 C 46.78 191.65 47.75 190.13 48.65 188.56 C 51.29 191.55 53.09 194.98 54.92 198.49 C 52.38 198.22 49.24 198.48 47.24 196.68 C 46.33 195.99 45.45 195.27 44.53 194.59 C 43.08 193.30 40.37 192.04 39.65 190.24 C 38.91 185.21 41.78 179.39 43.66 174.81 C 41.07 174.90 38.45 174.97 35.87 175.22 C 35.28 176.70 34.79 178.24 34.30 179.75 C 33.76 178.82 33.21 177.91 32.64 176.99 C 34.29 172.61 36.80 169.36 36.13 164.44 C 36.86 163.45 37.60 162.46 38.37 161.51 C 39.45 161.59 40.61 161.82 41.69 161.66 C 42.71 160.90 43.07 159.08 43.61 157.97 C 44.49 157.49 45.37 157.01 46.24 156.52 C 46.36 157.74 46.47 158.97 46.57 160.20 C 50.30 158.71 54.08 157.13 57.93 155.99 Z" fill="#cdcad0" />
<path d="M 140.12 157.74 C 140.44 158.50 140.75 159.28 141.04 160.06 L 141.51 161.72 C 140.22 162.20 138.82 162.91 137.43 162.99 C 135.40 162.06 133.66 160.33 131.97 158.90 C 132.51 158.44 133.06 158.00 133.64 157.58 C 135.30 155.95 138.13 157.46 140.12 157.74 Z" fill="#ccc5cd" />
<path d="M 73.24 157.98 L 75.12 157.76 C 80.17 159.27 85.24 162.32 88.36 166.62 C 92.69 173.29 91.62 181.65 88.64 188.61 C 86.19 193.74 81.41 196.80 75.90 197.74 C 75.45 196.18 75.00 194.62 74.56 193.06 C 75.59 191.45 76.65 189.82 77.51 188.12 C 77.80 186.66 78.04 185.18 78.27 183.70 C 80.14 186.33 81.95 189.00 83.74 191.69 C 85.62 189.08 87.59 186.61 88.45 183.45 C 89.70 178.12 90.08 172.86 86.09 168.57 C 83.56 165.21 80.99 162.76 77.31 160.67 C 75.94 159.79 74.55 158.94 73.24 157.98 Z" fill="#e5bfe6" />
<path d="M 159.13 160.72 C 160.68 160.39 162.28 160.17 163.86 159.93 C 162.11 162.23 160.61 164.82 159.13 167.31 C 158.69 166.14 158.24 164.97 157.78 163.81 C 158.22 162.78 158.66 161.74 159.13 160.72 Z" fill="#9680a6" />
<path d="M 203.48 164.27 C 206.30 167.98 206.96 172.59 209.90 176.22 C 209.18 178.74 209.29 181.38 208.65 183.90 C 207.67 185.65 205.82 187.00 204.37 188.36 C 206.06 184.83 207.58 181.55 207.00 177.54 C 206.50 173.75 205.36 168.99 202.47 166.33 C 199.96 165.07 198.12 166.77 196.32 168.34 C 192.21 172.56 188.36 176.55 186.54 182.30 C 183.75 185.87 179.92 187.60 176.68 190.64 C 174.81 192.37 173.08 194.27 171.32 196.12 C 170.54 194.57 169.75 193.02 168.97 191.46 C 165.04 192.67 161.65 193.50 157.65 191.85 L 158.38 190.61 L 159.93 190.45 C 163.65 190.69 166.91 191.30 170.35 189.42 C 179.08 184.79 183.03 177.22 189.59 170.46 C 186.30 171.23 183.08 171.90 179.68 171.62 C 183.65 169.21 187.89 167.15 191.68 164.45 C 195.68 163.94 199.47 163.27 203.48 164.27 Z" fill="#948ea1" />
<path d="M 36.13 164.44 C 36.80 169.36 34.29 172.61 32.64 176.99 C 30.64 182.58 30.86 188.28 30.52 194.17 C 29.92 192.68 29.32 191.20 28.77 189.69 C 28.10 180.43 30.27 171.73 36.13 164.44 Z" fill="#696278" />
<path d="M 202.47 166.33 C 205.36 168.99 206.50 173.75 207.00 177.54 C 207.58 181.55 206.06 184.83 204.37 188.36 C 202.86 189.73 201.29 191.03 199.81 192.43 C 197.86 191.35 195.93 190.24 193.94 189.25 C 195.70 185.62 195.99 183.34 195.34 179.35 C 191.99 179.63 189.26 180.25 186.54 182.30 C 188.36 176.55 192.21 172.56 196.32 168.34 C 198.12 166.77 199.96 165.07 202.47 166.33 Z" fill="#2e314b" />
<path d="M 158.71 168.00 C 158.83 170.46 159.46 172.78 160.08 175.15 C 160.65 177.89 160.57 180.14 159.94 182.86 C 162.17 180.16 163.57 179.31 167.02 178.53 C 165.30 181.23 163.28 183.68 161.23 186.12 L 161.13 184.36 C 160.10 184.97 159.08 185.59 158.05 186.21 C 154.67 184.23 151.74 182.09 149.35 178.94 C 151.22 177.01 152.19 174.82 153.04 172.32 C 155.02 170.98 156.98 169.66 158.71 168.00 Z" fill="#767687" />
<path d="M 213.25 168.19 C 216.26 170.56 218.83 173.33 221.41 176.16 C 219.05 180.41 216.15 184.13 212.61 187.46 C 208.19 191.12 206.90 195.63 201.62 197.44 C 200.84 195.94 200.07 194.45 199.30 192.95 L 199.81 192.43 C 201.29 191.03 202.86 189.73 204.37 188.36 C 205.82 187.00 207.67 185.65 208.65 183.90 C 209.29 181.38 209.18 178.74 209.90 176.22 C 210.94 173.52 212.07 170.84 213.25 168.19 Z" fill="#d3d3d5" />
<path d="M 86.09 168.57 C 90.08 172.86 89.70 178.12 88.45 183.45 C 87.59 186.61 85.62 189.08 83.74 191.69 C 81.95 189.00 80.14 186.33 78.27 183.70 C 78.38 182.95 78.49 182.21 78.60 181.46 C 80.54 176.90 83.08 172.50 86.09 168.57 Z" fill="#be8ec7" />
<path d="M 178.06 169.17 C 177.71 170.45 177.40 171.74 177.09 173.03 C 177.96 172.57 178.82 172.10 179.68 171.62 C 183.08 171.90 186.30 171.23 189.59 170.46 C 183.03 177.22 179.08 184.79 170.35 189.42 C 166.91 191.30 163.65 190.69 159.93 190.45 C 161.65 189.83 163.30 189.08 164.96 188.34 C 164.34 187.91 163.72 187.48 163.09 187.05 C 167.79 180.84 173.37 175.40 178.06 169.17 Z" fill="#645d79" />
<path d="M 75.68 172.23 C 78.55 173.14 77.27 177.29 77.37 179.51 C 74.63 177.20 71.81 175.00 69.27 172.47 C 71.22 172.31 73.88 171.27 75.68 172.23 Z" fill="#f4f4f3" />
<path d="M 53.86 174.10 C 53.85 174.98 53.83 175.85 53.80 176.72 C 52.18 180.68 50.46 184.68 48.65 188.56 C 47.75 190.13 46.78 191.65 45.79 193.17 C 45.31 190.38 44.34 187.08 45.32 184.31 C 46.90 179.89 50.13 176.79 53.86 174.10 Z" fill="#afb1b4" />
<path d="M 35.87 175.22 C 38.45 174.97 41.07 174.90 43.66 174.81 C 41.78 179.39 38.91 185.21 39.65 190.24 C 40.37 192.04 43.08 193.30 44.53 194.59 C 43.59 194.53 42.64 194.52 41.69 194.51 C 41.58 196.17 41.46 197.83 41.35 199.50 C 40.16 199.67 38.97 199.83 37.78 200.03 C 39.47 204.29 41.38 208.29 43.59 212.30 C 46.14 212.34 49.07 212.07 51.35 213.37 C 54.61 215.24 57.46 217.82 60.57 219.94 C 59.94 221.30 59.32 222.66 58.68 224.01 C 59.43 224.68 60.19 225.36 60.96 226.01 C 57.82 225.85 55.02 226.15 52.01 225.08 C 49.32 224.13 46.61 223.16 44.01 221.96 C 42.12 221.23 41.53 219.10 40.55 217.49 C 38.49 213.22 34.76 210.57 32.53 206.44 C 29.79 201.25 28.72 195.53 28.77 189.69 C 29.32 191.20 29.92 192.68 30.52 194.17 C 30.86 188.28 30.64 182.58 32.64 176.99 C 33.21 177.91 33.76 178.82 34.30 179.75 C 34.79 178.24 35.28 176.70 35.87 175.22 Z" fill="#c4acc9" />
<path d="M 55.95 175.82 C 55.13 179.63 54.00 182.99 54.98 186.92 C 56.23 193.35 60.62 197.97 65.87 201.52 C 61.97 201.34 58.26 200.63 54.92 198.49 C 53.09 194.98 51.29 191.55 48.65 188.56 C 50.46 184.68 52.18 180.68 53.80 176.72 C 54.52 176.42 55.23 176.12 55.95 175.82 Z" fill="#f3f3f0" />
<path d="M 70.24 183.13 C 70.30 186.21 70.54 188.75 72.08 191.49 C 73.91 190.41 75.71 189.26 77.51 188.12 C 76.65 189.82 75.59 191.45 74.56 193.06 C 75.00 194.62 75.45 196.18 75.90 197.74 C 70.25 198.24 64.15 197.26 61.06 191.95 C 58.57 187.48 60.15 182.03 64.75 179.76 C 66.91 178.47 70.42 180.66 70.24 183.13 Z" fill="#eee5ee" />
<path d="M 149.35 178.94 C 151.74 182.09 154.67 184.23 158.05 186.21 C 155.03 188.18 150.44 190.18 147.16 187.83 C 145.73 184.88 147.04 181.14 149.35 178.94 Z" fill="#92959f" />
<path d="M 195.34 179.35 C 195.99 183.34 195.70 185.62 193.94 189.25 C 191.06 191.96 188.69 194.06 184.55 194.15 C 182.83 195.84 181.10 197.55 179.24 199.06 C 178.43 197.93 177.62 196.79 176.82 195.65 C 174.02 196.69 171.21 197.69 168.38 198.64 C 165.02 195.44 161.60 194.19 157.13 193.27 C 157.30 192.79 157.47 192.32 157.65 191.85 C 161.65 193.50 165.04 192.67 168.97 191.46 C 169.75 193.02 170.54 194.57 171.32 196.12 C 173.08 194.27 174.81 192.37 176.68 190.64 C 179.92 187.60 183.75 185.87 186.54 182.30 C 189.26 180.25 191.99 179.63 195.34 179.35 Z" fill="#e9dfe9" />
<path d="M 116.46 186.42 C 118.35 187.63 119.57 190.02 120.85 191.81 C 117.19 189.10 113.95 187.68 109.47 186.75 C 111.57 186.24 114.44 185.28 116.46 186.42 Z" fill="#6d6c76" />
<path d="M 109.47 186.75 C 113.95 187.68 117.19 189.10 120.85 191.81 C 120.08 193.34 119.32 194.87 118.55 196.40 C 115.93 195.92 112.36 194.65 109.88 195.98 C 106.69 197.54 103.90 199.94 100.88 201.81 C 101.00 200.91 100.94 199.98 100.71 199.02 C 104.15 195.33 105.71 190.03 109.47 186.75 Z" fill="#c1c2c6" />
<path d="M 212.61 187.46 C 214.04 187.46 215.49 187.55 216.92 187.61 C 214.28 191.45 211.64 195.26 209.35 199.33 C 206.84 203.67 204.41 208.35 201.18 212.20 C 198.83 215.07 195.61 216.31 193.03 218.91 C 190.83 221.16 189.32 223.70 186.75 225.67 C 184.35 227.46 181.64 228.88 178.87 230.01 C 174.45 231.76 169.99 231.13 165.37 232.54 C 162.16 233.30 159.00 235.06 155.71 234.33 C 157.05 232.64 158.36 230.60 160.14 229.33 C 163.15 228.28 166.69 228.60 169.84 228.01 C 174.00 226.15 178.12 224.25 182.34 222.53 C 185.32 220.16 188.24 217.88 191.45 215.81 C 188.82 211.71 184.41 210.81 181.17 207.45 C 184.49 205.23 188.09 203.58 191.54 201.59 C 194.83 199.78 196.76 195.76 199.30 192.95 C 200.07 194.45 200.84 195.94 201.62 197.44 C 206.90 195.63 208.19 191.12 212.61 187.46 Z" fill="#eeeaed" />
<path d="M 193.94 189.25 C 195.93 190.24 197.86 191.35 199.81 192.43 L 199.30 192.95 C 196.76 195.76 194.83 199.78 191.54 201.59 C 188.09 203.58 184.49 205.23 181.17 207.45 C 184.41 210.81 188.82 211.71 191.45 215.81 C 188.24 217.88 185.32 220.16 182.34 222.53 C 182.06 220.53 182.12 217.97 180.29 216.70 C 177.81 214.46 173.33 216.33 170.45 216.74 C 171.01 214.92 171.16 212.03 172.58 210.70 C 175.56 209.29 178.80 208.54 181.74 207.02 C 178.75 206.44 175.99 205.43 173.19 207.23 C 170.54 209.22 168.65 212.31 166.53 214.83 C 165.98 213.95 165.42 213.06 164.87 212.18 C 165.15 213.84 165.45 215.51 165.81 217.16 C 163.74 213.84 165.01 210.97 165.54 207.43 C 170.52 205.65 175.04 202.23 179.24 199.06 C 181.10 197.55 182.83 195.84 184.55 194.15 C 188.69 194.06 191.06 191.96 193.94 189.25 Z" fill="#aaaab2" />
<path d="M 44.53 194.59 C 45.45 195.27 46.33 195.99 47.24 196.68 C 49.24 198.48 52.38 198.22 54.92 198.49 C 58.26 200.63 61.97 201.34 65.87 201.52 C 68.11 201.68 70.39 201.74 72.64 201.68 C 73.37 202.83 74.10 203.97 74.90 205.08 C 76.75 207.04 78.79 208.78 80.81 210.56 C 82.12 210.07 83.44 209.59 84.76 209.10 C 85.99 210.09 87.21 211.07 88.44 212.06 C 91.53 210.00 94.43 208.04 98.23 207.63 C 94.78 211.89 90.24 214.61 86.31 218.33 C 83.46 220.93 81.12 223.55 77.36 224.82 C 73.39 226.18 69.13 227.06 64.96 227.49 C 63.61 227.03 62.28 226.52 60.96 226.01 C 60.19 225.36 59.43 224.68 58.68 224.01 C 59.32 222.66 59.94 221.30 60.57 219.94 C 57.46 217.82 54.61 215.24 51.35 213.37 C 49.07 212.07 46.14 212.34 43.59 212.30 C 41.38 208.29 39.47 204.29 37.78 200.03 C 38.97 199.83 40.16 199.67 41.35 199.50 C 41.46 197.83 41.58 196.17 41.69 194.51 C 42.64 194.52 43.59 194.53 44.53 194.59 Z" fill="#a4a3ad" />
<path d="M 132.29 194.58 C 133.35 195.94 134.08 197.64 134.86 199.18 L 133.44 199.41 C 131.67 197.73 130.94 195.39 128.08 195.81 C 125.40 196.25 123.16 199.41 121.20 201.14 C 122.23 196.33 127.42 192.16 132.29 194.58 Z" fill="#7c7c85" />
<path d="M 128.08 195.81 C 130.94 195.39 131.67 197.73 133.44 199.41 C 129.40 200.33 125.37 201.13 121.20 201.14 C 123.16 199.41 125.40 196.25 128.08 195.81 Z" fill="#c0c1c4" />
<path d="M 100.71 199.02 C 100.94 199.98 101.00 200.91 100.88 201.81 C 99.89 202.80 97.87 202.48 98.49 200.78 C 99.09 200.08 99.83 199.49 100.71 199.02 Z" fill="#6c6475" />
<path d="M 111.42 202.32 C 114.47 202.12 117.29 203.68 119.98 204.91 C 117.37 204.81 114.78 204.88 112.18 205.03 C 114.26 207.57 116.42 209.93 119.25 211.67 C 121.37 213.07 123.85 214.16 125.75 215.84 C 126.75 219.07 126.05 222.95 127.28 226.09 C 128.74 228.98 131.86 231.22 134.26 233.31 C 131.19 233.69 128.12 233.69 125.07 233.14 C 123.53 230.11 122.12 227.02 120.63 223.97 C 121.76 222.48 122.88 220.97 123.99 219.46 C 120.31 216.84 115.97 212.96 111.38 212.31 C 108.30 211.85 106.61 214.12 104.48 215.86 C 100.39 219.63 95.75 221.27 91.07 224.19 C 87.41 226.30 83.58 229.33 79.47 230.35 C 77.60 230.50 75.55 229.29 73.81 228.66 C 73.11 229.04 72.41 229.42 71.72 229.80 C 69.46 229.05 67.21 228.28 64.96 227.49 C 69.13 227.06 73.39 226.18 77.36 224.82 C 81.12 223.55 83.46 220.93 86.31 218.33 C 90.24 214.61 94.78 211.89 98.23 207.63 C 94.43 208.04 91.53 210.00 88.44 212.06 C 87.21 211.07 85.99 210.09 84.76 209.10 C 83.44 209.59 82.12 210.07 80.81 210.56 C 78.79 208.78 76.75 207.04 74.90 205.08 C 75.13 204.48 75.36 203.89 75.59 203.30 C 78.87 204.67 82.02 206.29 85.09 208.08 C 87.40 206.57 89.79 204.58 92.46 203.81 C 95.15 203.42 97.99 203.70 100.72 203.56 C 104.33 203.42 107.83 202.52 111.42 202.32 Z" fill="#c7b6cc" />
<path d="M 142.63 202.17 C 144.87 202.84 144.61 204.92 145.12 206.78 C 142.24 205.50 139.42 204.49 136.37 203.68 C 138.45 202.67 140.23 201.11 142.63 202.17 Z" fill="#70717a" />
<path d="M 112.18 205.03 C 114.78 204.88 117.37 204.81 119.98 204.91 C 122.01 205.85 123.98 206.91 126.02 207.84 C 124.61 207.95 123.20 208.10 121.79 208.26 C 121.76 209.35 121.73 210.43 121.69 211.52 C 123.80 212.80 126.44 214.00 127.98 215.96 C 129.91 219.33 130.68 223.42 131.98 227.07 C 133.20 226.99 134.42 226.89 135.64 226.79 C 136.29 227.67 136.97 228.52 137.66 229.36 C 139.40 227.29 140.81 225.29 143.50 224.44 L 144.92 225.78 C 147.50 225.81 145.90 223.26 144.03 223.81 C 145.25 222.39 146.53 220.97 147.93 219.73 C 148.64 221.18 149.35 222.63 150.07 224.08 C 154.16 223.20 158.23 222.26 162.28 221.21 C 162.29 223.03 162.30 224.86 162.32 226.68 C 158.27 227.54 155.01 227.69 150.94 226.99 C 147.48 226.36 144.53 227.48 141.38 228.71 C 141.86 229.70 142.34 230.69 142.82 231.68 C 139.95 232.16 137.13 232.85 134.26 233.31 C 131.86 231.22 128.74 228.98 127.28 226.09 C 126.05 222.95 126.75 219.07 125.75 215.84 C 123.85 214.16 121.37 213.07 119.25 211.67 C 116.42 209.93 114.26 207.57 112.18 205.03 Z" fill="#7d7b8c" />
<path d="M 181.74 207.02 C 178.80 208.54 175.56 209.29 172.58 210.70 C 171.16 212.03 171.01 214.92 170.45 216.74 C 173.33 216.33 177.81 214.46 180.29 216.70 C 182.12 217.97 182.06 220.53 182.34 222.53 C 178.12 224.25 174.00 226.15 169.84 228.01 C 167.06 228.54 164.83 227.78 162.32 226.68 C 164.68 225.48 167.07 224.32 169.47 223.18 C 168.22 221.20 166.87 219.25 165.81 217.16 C 165.45 215.51 165.15 213.84 164.87 212.18 C 165.42 213.06 165.98 213.95 166.53 214.83 C 168.65 212.31 170.54 209.22 173.19 207.23 C 175.99 205.43 178.75 206.44 181.74 207.02 Z" fill="#747584" />
<path d="M 126.02 207.84 C 131.12 209.80 136.67 210.22 141.72 212.20 C 145.17 213.55 146.82 216.21 148.47 219.34 L 147.93 219.73 C 146.53 220.97 145.25 222.39 144.03 223.81 L 143.50 224.44 C 140.81 225.29 139.40 227.29 137.66 229.36 C 136.97 228.52 136.29 227.67 135.64 226.79 C 134.42 226.89 133.20 226.99 131.98 227.07 C 130.68 223.42 129.91 219.33 127.98 215.96 C 126.44 214.00 123.80 212.80 121.69 211.52 C 121.73 210.43 121.76 209.35 121.79 208.26 C 123.20 208.10 124.61 207.95 126.02 207.84 Z" fill="#56566c" />
<path d="M 165.54 207.43 C 165.01 210.97 163.74 213.84 165.81 217.16 C 166.87 219.25 168.22 221.20 169.47 223.18 C 167.07 224.32 164.68 225.48 162.32 226.68 C 162.30 224.86 162.29 223.03 162.28 221.21 C 158.23 222.26 154.16 223.20 150.07 224.08 C 149.35 222.63 148.64 221.18 147.93 219.73 L 148.47 219.34 C 152.18 217.05 155.73 214.94 158.52 211.48 C 160.37 209.11 162.80 208.35 165.54 207.43 Z" fill="#c2c1c5" />
<path d="M 144.03 223.81 C 145.90 223.26 147.50 225.81 144.92 225.78 L 143.50 224.44 L 144.03 223.81 Z" fill="#d3d8de" />
<path d="M 150.94 226.99 C 155.01 227.69 158.27 227.54 162.32 226.68 C 164.83 227.78 167.06 228.54 169.84 228.01 C 166.69 228.60 163.15 228.28 160.14 229.33 C 158.36 230.60 157.05 232.64 155.71 234.33 C 151.41 232.97 147.41 231.60 142.82 231.68 C 142.34 230.69 141.86 229.70 141.38 228.71 C 144.53 227.48 147.48 226.36 150.94 226.99 Z" fill="#b1b3ba" />
</svg>