<?xml version="1.0" encoding="UTF-8" standalone="no"?>
<!DOCTYPE svg PUBLIC "-//W3C//DTD SVG 1.1//EN" "http://www.w3.org/Graphics/SVG/1.1/DTD/svg11.dtd">
<svg xmlns="http://www.w3.org/2000/svg" version="1.1" viewBox="0 0 256 256" width="256.0pt" height="256.0pt">
<path d="M 0.00 0.00 L 256.00 0.00 L 256.00 256.00 L 0.00 256.00 L 0.00 0.00 Z" fill="#ffffff" />
<path d="M 87.13 15.66 C 95.39 14.09 103.94 17.15 112.31 18.60 C 123.25 20.63 133.22 26.07 139.83 35.17 C 143.22 40.08 143.71 45.58 148.01 49.97 C 154.50 57.12 164.82 58.74 173.99 58.97 C 180.37 59.01 186.41 60.53 192.70 61.30 C 199.07 62.01 205.35 63.97 210.99 67.00 C 214.46 68.78 214.72 73.03 217.70 75.24 C 218.58 75.92 219.47 76.58 220.38 77.22 L 219.24 77.32 C 210.04 73.57 199.15 73.50 189.35 71.75 C 185.02 70.34 181.21 69.94 176.65 70.07 C 175.52 69.89 174.39 69.72 173.25 69.56 C 167.73 68.80 162.45 67.15 157.04 65.95 C 150.36 65.30 144.29 62.80 137.50 62.94 C 137.34 61.86 137.18 60.79 137.03 59.71 C 135.95 60.75 134.87 61.78 133.79 62.82 C 133.64 61.08 133.48 59.35 133.39 57.60 C 133.44 53.76 134.69 50.32 135.55 46.63 C 136.55 43.19 134.38 39.51 133.18 36.32 L 131.22 35.73 C 125.69 33.94 123.27 29.37 117.23 29.51 C 118.99 34.69 120.89 39.73 121.76 45.16 C 121.97 46.29 122.16 47.43 122.35 48.57 C 119.29 46.34 116.57 43.77 113.70 41.33 C 111.45 39.42 108.52 38.46 106.28 36.60 C 105.73 34.73 105.62 32.72 105.26 30.81 C 104.47 28.25 103.40 26.04 101.00 24.63 C 98.72 23.86 96.38 23.32 94.03 22.81 C 95.54 25.15 97.14 27.44 98.69 29.77 C 96.78 28.63 94.91 27.43 93.02 26.28 C 93.72 29.48 94.42 32.69 95.13 35.90 C 93.02 36.85 90.96 37.83 88.80 38.64 L 87.09 39.21 C 86.86 37.85 86.63 36.49 86.44 35.13 C 86.76 33.23 87.29 31.29 87.33 29.36 C 86.64 27.20 84.42 24.81 82.07 24.65 C 80.56 25.39 79.25 26.37 77.91 27.37 C 75.20 29.33 72.60 31.39 70.24 33.76 C 72.97 38.44 76.03 43.68 77.02 49.05 L 76.61 49.82 C 75.34 49.19 74.08 48.55 72.82 47.92 C 72.37 46.74 71.87 45.58 71.35 44.44 C 70.05 41.68 68.57 39.00 66.89 36.45 C 64.76 38.65 63.46 40.71 62.63 43.68 C 61.58 46.91 60.78 50.22 59.87 53.49 C 58.69 53.00 57.50 52.55 56.30 52.12 C 57.63 54.35 58.70 56.55 61.19 57.67 C 64.24 59.07 67.54 59.93 70.67 61.13 C 71.04 61.51 71.40 61.90 71.76 62.28 C 72.08 63.97 72.40 65.68 72.78 67.36 C 69.33 64.99 65.85 62.57 62.20 60.51 C 61.39 60.64 60.59 60.78 59.78 60.93 C 59.61 63.70 59.31 66.26 60.05 68.98 C 61.15 73.98 62.25 78.36 65.92 82.18 C 65.68 82.99 65.44 83.80 65.19 84.61 C 60.61 87.48 56.52 90.92 52.49 94.49 C 48.69 97.83 44.30 100.14 40.71 103.70 C 37.33 107.05 33.43 110.07 30.59 113.80 C 28.75 115.91 28.16 118.42 27.60 121.10 C 32.41 119.46 36.27 116.43 40.70 114.08 C 43.07 114.63 45.44 115.17 47.81 115.71 C 49.75 116.19 51.70 116.66 53.66 117.11 C 51.94 119.72 50.34 122.38 49.06 125.24 C 53.86 123.23 58.08 119.44 62.06 116.13 C 62.95 116.06 63.84 115.99 64.73 115.91 C 67.77 116.48 70.73 117.34 73.75 117.98 C 76.40 118.47 79.06 118.76 81.73 119.11 C 80.75 123.89 78.15 127.03 74.77 130.40 C 70.95 134.37 67.23 138.32 62.75 141.57 C 60.47 142.29 58.19 142.95 56.00 143.93 C 51.86 145.67 48.86 148.42 45.17 150.85 C 45.32 149.18 45.50 147.52 45.66 145.85 C 43.84 148.66 42.47 151.78 40.49 154.48 C 38.89 156.83 36.45 157.16 34.07 158.46 C 31.55 161.20 30.62 164.55 30.10 168.14 C 30.28 169.70 30.46 171.27 30.86 172.79 C 32.36 175.27 34.49 177.43 36.48 179.53 C 38.68 181.77 41.39 182.38 43.88 184.13 C 47.84 186.92 50.76 190.54 54.45 193.55 C 56.36 195.12 58.45 196.20 60.46 197.59 C 63.35 199.47 64.70 202.52 67.69 204.27 C 74.47 208.27 80.34 213.42 86.79 217.97 C 89.61 219.08 92.84 219.19 95.66 220.44 C 96.66 221.53 97.47 222.85 98.27 224.08 C 98.25 222.94 98.24 221.79 98.24 220.65 C 101.76 222.78 104.48 225.69 107.66 228.23 C 105.73 224.09 103.15 222.00 99.36 219.63 C 94.59 215.57 89.09 212.82 83.95 209.32 C 85.94 209.89 87.92 210.52 89.91 211.10 C 93.21 212.92 96.53 214.67 99.94 216.28 C 102.52 217.64 105.17 218.87 107.72 220.29 C 109.13 221.43 110.55 222.57 112.03 223.63 C 113.77 223.57 115.50 223.57 117.23 223.50 L 117.90 223.42 C 123.20 222.32 128.47 220.48 133.43 218.32 C 138.64 217.35 141.32 212.89 146.08 209.97 C 145.14 211.51 144.15 213.01 143.23 214.55 C 145.96 213.04 148.27 211.18 150.48 208.99 C 151.81 209.16 153.13 209.34 154.45 209.55 C 152.73 210.96 151.06 212.01 148.95 212.76 C 147.23 218.64 142.69 222.35 140.31 227.86 C 138.97 227.83 137.65 227.88 136.33 228.01 C 132.18 229.25 128.21 232.02 123.71 231.12 C 120.01 230.55 116.46 230.65 113.24 232.79 L 113.50 234.52 C 116.07 235.09 118.71 235.40 121.29 235.95 C 123.64 236.42 125.63 236.96 127.92 235.90 C 129.65 235.16 131.20 234.29 133.01 233.72 C 136.31 233.62 139.61 234.44 142.92 234.44 C 146.36 232.61 149.42 229.40 150.52 225.60 C 153.90 226.07 156.23 222.75 158.46 220.70 C 159.32 219.75 160.15 218.76 160.90 217.72 C 162.32 215.38 163.41 212.91 164.38 210.35 C 164.54 209.96 164.69 209.56 164.85 209.16 C 162.96 206.49 161.28 203.70 159.61 200.90 C 162.53 197.71 165.30 194.41 168.45 191.43 C 170.47 189.47 172.50 187.52 174.50 185.55 C 180.20 187.93 186.80 186.44 191.26 182.28 C 194.93 179.31 196.36 175.12 199.09 171.08 C 201.85 167.07 204.15 162.79 206.84 158.74 C 208.91 159.28 210.94 159.95 213.00 160.52 C 214.21 158.19 214.80 155.84 214.29 153.23 C 212.95 150.67 211.59 148.06 210.14 145.56 C 208.71 144.35 206.51 143.94 204.80 143.22 L 204.36 140.86 C 207.74 140.57 213.56 140.87 215.87 137.95 C 217.71 135.60 218.83 133.03 221.75 131.87 C 224.46 130.67 226.98 129.34 229.29 127.46 C 228.31 130.12 226.79 132.11 227.48 135.09 C 230.05 132.18 232.04 128.57 233.34 124.91 C 233.88 117.92 227.60 113.50 221.22 113.24 C 216.12 115.17 210.48 118.68 209.33 124.46 C 207.84 128.22 211.74 131.80 209.68 135.53 C 208.31 137.28 206.04 138.43 204.18 139.60 C 203.57 137.89 202.96 136.19 202.36 134.49 C 200.84 134.52 199.33 134.63 197.81 134.76 C 197.07 136.53 196.47 138.38 195.84 140.20 C 194.78 139.92 193.70 139.68 192.63 139.44 C 188.93 137.48 185.26 135.46 181.55 133.53 C 178.18 131.76 174.96 131.45 172.08 128.94 C 169.64 127.07 168.41 124.65 166.55 122.26 C 167.49 121.86 168.44 121.46 169.38 121.06 C 167.41 119.59 165.13 118.30 163.44 116.52 C 162.49 114.52 162.28 112.51 161.70 110.38 C 160.87 110.84 160.08 111.37 159.31 111.94 C 159.77 113.31 160.24 114.68 160.72 116.05 C 159.96 115.99 159.20 115.94 158.44 115.88 C 157.92 115.28 157.39 114.67 156.87 114.07 C 156.24 115.30 155.68 116.56 155.13 117.83 L 154.61 118.97 C 153.84 118.85 153.08 118.76 152.31 118.67 C 149.92 115.07 147.95 111.35 144.88 108.23 C 149.86 107.51 154.55 106.56 158.91 103.89 C 162.06 101.91 164.91 99.48 168.00 97.41 C 169.55 97.53 171.10 97.74 172.65 97.92 C 172.14 96.98 171.62 96.04 171.09 95.11 C 173.96 92.88 176.60 90.27 179.62 88.26 C 182.53 86.76 185.80 85.93 188.84 84.73 C 192.10 83.32 195.28 84.63 198.58 85.26 C 198.41 84.10 198.25 82.93 198.08 81.77 C 203.97 81.75 210.03 79.80 215.74 78.33 C 216.34 79.16 216.93 80.00 217.50 80.86 C 214.75 83.05 213.09 86.18 210.47 88.45 C 205.29 91.80 198.14 92.42 192.96 96.00 C 189.55 98.38 186.72 101.82 183.70 104.70 C 181.25 107.18 178.31 109.62 176.47 112.58 C 175.48 114.02 176.54 115.40 177.31 116.64 C 179.72 119.87 181.96 123.07 186.23 123.77 C 193.35 125.33 199.92 121.64 205.05 117.05 C 208.51 114.05 210.73 110.36 215.45 109.34 C 219.28 108.53 223.73 107.48 227.59 108.35 C 231.50 109.92 235.81 113.35 237.86 117.07 C 239.21 120.54 239.30 126.81 238.25 130.30 C 235.82 135.37 231.41 139.57 228.15 144.15 C 222.99 150.72 220.92 158.37 216.33 165.29 C 213.92 169.15 210.96 172.55 207.79 175.79 C 204.05 179.60 201.82 183.76 197.70 186.67 C 193.17 189.90 188.38 192.78 183.73 195.81 C 179.57 198.52 176.52 202.80 174.04 207.02 C 170.70 212.75 170.01 218.67 166.05 224.03 C 162.53 228.66 158.38 233.37 153.38 236.44 C 147.60 240.02 141.29 242.35 134.69 243.88 C 129.73 245.15 124.04 243.97 118.98 243.32 C 112.87 242.49 108.03 239.23 102.81 236.18 C 91.83 229.26 80.06 223.81 69.03 216.92 C 65.61 214.67 62.92 211.84 59.70 209.35 C 56.85 207.13 53.79 205.31 50.82 203.19 C 45.64 199.54 40.99 195.03 36.07 190.92 C 30.84 186.60 25.85 180.53 24.17 173.86 C 23.00 167.26 24.01 159.62 28.04 154.10 C 32.32 148.36 38.96 143.36 42.56 136.48 C 43.58 134.36 43.04 132.26 41.21 130.80 C 37.43 127.77 33.17 125.39 29.40 122.32 C 28.55 123.05 27.71 123.78 26.87 124.52 C 25.90 123.24 24.93 121.97 23.97 120.69 C 24.97 120.52 25.98 120.35 26.98 120.18 C 26.67 116.08 25.85 111.23 27.19 107.28 C 28.33 103.60 31.73 101.01 34.40 98.39 C 38.40 94.47 43.30 90.89 46.33 86.28 C 48.86 82.57 50.70 78.52 50.91 73.97 C 51.38 65.45 50.27 56.84 52.10 48.05 C 53.02 43.71 55.36 40.35 57.73 36.71 C 60.59 32.46 63.12 28.43 67.21 25.22 C 73.19 20.64 79.55 16.77 87.13 15.66 Z" fill="#f4f4f2" />
<path d="M 94.03 22.81 C 96.38 23.32 98.72 23.86 101.00 24.63 C 101.92 27.66 103.17 30.54 104.50 33.42 C 104.18 34.56 103.85 35.70 103.53 36.84 C 100.73 36.55 97.93 36.22 95.13 35.90 C 94.42 32.69 93.72 29.48 93.02 26.28 C 94.91 27.43 96.78 28.63 98.69 29.77 C 97.14 27.44 95.54 25.15 94.03 22.81 Z" fill="#dcd3c3" />
<path d="M 82.07 24.65 C 84.42 24.81 86.64 27.20 87.33 29.36 C 87.29 31.29 86.76 33.23 86.44 35.13 C 84.90 35.73 83.39 36.38 81.87 37.04 C 80.89 35.15 80.06 33.16 79.34 31.17 C 78.89 29.89 78.44 28.62 77.91 27.37 C 79.25 26.37 80.56 25.39 82.07 24.65 Z" fill="#dad9ce" />
<path d="M 101.00 24.63 C 103.40 26.04 104.47 28.25 105.26 30.81 C 105.01 31.68 104.75 32.55 104.50 33.42 C 103.17 30.54 101.92 27.66 101.00 24.63 Z" fill="#7b7977" />
<path d="M 106.07 27.23 C 107.56 27.26 109.80 26.91 110.94 28.07 C 113.81 30.96 116.08 34.38 115.54 38.64 C 112.00 35.85 106.78 31.98 106.07 27.23 Z" fill="#aea595" />
<path d="M 77.91 27.37 C 78.44 28.62 78.89 29.89 79.34 31.17 C 77.86 30.71 76.38 30.27 74.89 29.87 C 75.60 31.19 76.35 32.49 77.11 33.78 C 77.80 35.61 78.47 37.45 79.12 39.29 C 78.04 39.02 76.95 38.75 75.87 38.48 C 77.41 41.06 78.99 43.61 80.45 46.24 C 79.26 47.12 78.12 48.05 77.02 49.05 C 76.03 43.68 72.97 38.44 70.24 33.76 C 72.60 31.39 75.20 29.33 77.91 27.37 Z" fill="#a0938b" />
<path d="M 131.22 35.73 C 129.74 39.74 128.60 43.88 127.25 47.95 C 130.19 44.23 133.34 41.49 133.18 36.32 C 134.38 39.51 136.55 43.19 135.55 46.63 C 134.69 50.32 133.44 53.76 133.39 57.60 L 133.35 58.42 C 132.93 57.37 132.49 56.32 132.04 55.29 C 129.58 60.11 128.34 64.52 127.93 69.93 C 129.62 68.35 131.27 66.73 132.90 65.10 C 133.92 65.39 134.94 65.68 135.97 65.97 C 135.55 66.66 135.12 67.33 134.70 68.01 C 133.59 69.68 132.38 71.38 131.58 73.22 C 132.94 76.88 135.19 80.14 136.45 83.87 C 135.59 83.28 134.70 82.72 133.81 82.17 C 132.83 79.61 131.69 77.13 130.23 74.80 C 128.39 76.00 126.62 77.30 124.82 78.56 C 123.18 79.70 121.56 80.85 119.90 81.95 L 117.97 81.85 C 121.24 78.21 125.09 75.95 126.17 70.85 C 126.02 68.51 125.73 66.13 125.34 63.81 C 123.11 64.71 120.88 65.62 118.61 66.41 C 118.57 63.22 117.95 60.16 117.00 57.13 C 117.52 57.68 118.05 58.22 118.59 58.76 C 121.49 55.63 124.05 52.36 126.00 48.55 C 124.55 47.46 123.11 46.38 121.76 45.16 C 120.89 39.73 118.99 34.69 117.23 29.51 C 123.27 29.37 125.69 33.94 131.22 35.73 Z" fill="#beb2a2" />
<path d="M 74.89 29.87 C 76.38 30.27 77.86 30.71 79.34 31.17 C 80.06 33.16 80.89 35.15 81.87 37.04 C 82.98 39.04 84.09 41.04 85.16 43.07 L 84.52 44.30 C 82.54 40.30 80.29 36.93 77.11 33.78 C 76.35 32.49 75.60 31.19 74.89 29.87 Z" fill="#665c5c" />
<path d="M 105.26 30.81 C 105.62 32.72 105.73 34.73 106.28 36.60 C 108.52 38.46 111.45 39.42 113.70 41.33 C 116.57 43.77 119.29 46.34 122.35 48.57 C 122.16 47.43 121.97 46.29 121.76 45.16 C 123.11 46.38 124.55 47.46 126.00 48.55 C 124.05 52.36 121.49 55.63 118.59 58.76 C 118.05 58.22 117.52 57.68 117.00 57.13 C 114.32 53.63 111.66 49.52 108.18 46.79 C 105.32 44.36 101.38 44.29 97.84 43.79 C 97.74 43.31 97.65 42.83 97.55 42.35 C 99.41 42.14 101.27 41.91 103.12 41.66 C 101.07 39.86 98.74 37.52 95.86 37.37 C 93.50 37.33 91.06 38.04 88.80 38.64 C 90.96 37.83 93.02 36.85 95.13 35.90 C 97.93 36.22 100.73 36.55 103.53 36.84 C 103.85 35.70 104.18 34.56 104.50 33.42 C 104.75 32.55 105.01 31.68 105.26 30.81 Z" fill="#d6b4a4" />
<path d="M 77.11 33.78 C 80.29 36.93 82.54 40.30 84.52 44.30 C 83.38 45.31 82.18 46.24 80.96 47.15 L 80.45 46.24 C 78.99 43.61 77.41 41.06 75.87 38.48 C 76.95 38.75 78.04 39.02 79.12 39.29 C 78.47 37.45 77.80 35.61 77.11 33.78 Z" fill="#ccb2a0" />
<path d="M 86.44 35.13 C 86.63 36.49 86.86 37.85 87.09 39.21 C 86.44 40.49 85.81 41.78 85.16 43.07 C 84.09 41.04 82.98 39.04 81.87 37.04 C 83.39 36.38 84.90 35.73 86.44 35.13 Z" fill="#b3a99d" />
<path d="M 131.22 35.73 L 133.18 36.32 C 133.34 41.49 130.19 44.23 127.25 47.95 C 128.60 43.88 129.74 39.74 131.22 35.73 Z" fill="#595758" />
<path d="M 66.89 36.45 C 68.57 39.00 70.05 41.68 71.35 44.44 C 69.90 44.85 68.39 45.43 66.88 45.55 C 65.40 45.29 64.00 44.27 62.63 43.68 C 63.46 40.71 64.76 38.65 66.89 36.45 Z" fill="#dad7d0" />
<path d="M 95.86 37.37 C 98.74 37.52 101.07 39.86 103.12 41.66 C 101.27 41.91 99.41 42.14 97.55 42.35 C 97.65 42.83 97.74 43.31 97.84 43.79 C 96.45 44.32 95.12 44.99 93.83 45.74 L 93.23 44.08 C 91.18 44.84 89.26 45.86 87.38 46.98 C 86.96 46.73 86.54 46.50 86.11 46.26 C 86.41 48.36 86.79 50.44 87.23 52.51 C 86.49 53.40 85.80 54.31 85.10 55.23 C 83.70 52.55 82.37 49.83 80.96 47.15 C 82.18 46.24 83.38 45.31 84.52 44.30 L 85.16 43.07 C 85.81 41.78 86.44 40.49 87.09 39.21 L 88.80 38.64 C 91.06 38.04 93.50 37.33 95.86 37.37 Z" fill="#dc847a" />
<path d="M 97.84 43.79 C 101.38 44.29 105.32 44.36 108.18 46.79 C 111.66 49.52 114.32 53.63 117.00 57.13 C 117.95 60.16 118.57 63.22 118.61 66.41 C 118.30 67.73 117.88 69.00 117.43 70.28 C 114.54 72.75 111.91 75.55 108.90 77.87 C 105.22 80.59 100.34 80.27 96.03 79.79 C 95.06 79.68 94.08 79.56 93.11 79.45 C 88.09 75.67 84.78 71.63 82.49 65.75 C 82.17 64.02 81.51 62.08 81.76 60.31 C 82.36 59.03 83.25 57.85 84.04 56.68 C 84.39 56.19 84.74 55.71 85.10 55.23 C 85.80 54.31 86.49 53.40 87.23 52.51 C 88.84 51.34 90.49 50.24 92.22 49.25 C 95.58 47.97 99.03 47.52 102.59 47.25 C 101.18 46.55 99.62 45.35 98.03 45.24 C 96.13 45.43 94.22 46.16 92.40 46.73 L 93.83 45.74 C 95.12 44.99 96.45 44.32 97.84 43.79 Z" fill="#1f233f" />
<path d="M 62.63 43.68 C 64.00 44.27 65.40 45.29 66.88 45.55 C 68.39 45.43 69.90 44.85 71.35 44.44 C 71.87 45.58 72.37 46.74 72.82 47.92 C 72.98 52.34 72.88 56.73 73.46 61.13 C 72.90 61.51 72.33 61.90 71.76 62.28 C 71.40 61.90 71.04 61.51 70.67 61.13 C 67.71 57.52 63.90 55.67 59.87 53.49 C 60.78 50.22 61.58 46.91 62.63 43.68 Z" fill="#bab2a3" />
<path d="M 93.23 44.08 L 93.83 45.74 L 92.40 46.73 C 94.22 46.16 96.13 45.43 98.03 45.24 C 99.62 45.35 101.18 46.55 102.59 47.25 C 99.03 47.52 95.58 47.97 92.22 49.25 C 91.23 49.53 90.24 49.80 89.24 50.06 C 88.65 49.01 88.03 47.99 87.38 46.98 C 89.26 45.86 91.18 44.84 93.23 44.08 Z" fill="#cfa69e" />
<path d="M 80.45 46.24 L 80.96 47.15 C 82.37 49.83 83.70 52.55 85.10 55.23 C 84.74 55.71 84.39 56.19 84.04 56.68 C 81.23 55.04 78.38 53.44 75.58 51.78 C 75.92 51.12 76.26 50.47 76.61 49.82 L 77.02 49.05 C 78.12 48.05 79.26 47.12 80.45 46.24 Z" fill="#d74f47" />
<path d="M 86.11 46.26 C 86.54 46.50 86.96 46.73 87.38 46.98 C 88.03 47.99 88.65 49.01 89.24 50.06 C 90.24 49.80 91.23 49.53 92.22 49.25 C 90.49 50.24 88.84 51.34 87.23 52.51 C 86.79 50.44 86.41 48.36 86.11 46.26 Z" fill="#a47976" />
<path d="M 72.82 47.92 C 74.08 48.55 75.34 49.19 76.61 49.82 C 76.26 50.47 75.92 51.12 75.58 51.78 C 78.38 53.44 81.23 55.04 84.04 56.68 C 83.25 57.85 82.36 59.03 81.76 60.31 C 81.51 62.08 82.17 64.02 82.49 65.75 C 79.37 64.42 76.39 62.84 73.46 61.13 C 72.88 56.73 72.98 52.34 72.82 47.92 Z" fill="#d39182" />
<path d="M 56.30 52.12 C 57.50 52.55 58.69 53.00 59.87 53.49 C 63.90 55.67 67.71 57.52 70.67 61.13 C 67.54 59.93 64.24 59.07 61.19 57.67 C 58.70 56.55 57.63 54.35 56.30 52.12 Z" fill="#676568" />
<path d="M 101.23 55.54 C 102.50 54.74 103.67 56.38 102.72 57.44 C 101.45 58.25 100.27 56.61 101.23 55.54 Z" fill="#6f6b86" />
<path d="M 132.04 55.29 C 132.49 56.32 132.93 57.37 133.35 58.42 C 133.26 60.65 133.10 62.87 132.90 65.10 C 131.27 66.73 129.62 68.35 127.93 69.93 C 128.34 64.52 129.58 60.11 132.04 55.29 Z" fill="#635c65" />
<path d="M 133.35 58.42 L 133.39 57.60 C 133.48 59.35 133.64 61.08 133.79 62.82 C 134.87 61.78 135.95 60.75 137.03 59.71 C 137.18 60.79 137.34 61.86 137.50 62.94 C 144.29 62.80 150.36 65.30 157.04 65.95 C 162.45 67.15 167.73 68.80 173.25 69.56 C 172.34 69.67 171.42 69.79 170.51 69.93 C 165.67 69.29 160.81 68.70 155.98 67.94 C 151.37 67.22 147.11 65.14 142.53 64.43 C 140.13 64.03 138.15 65.14 135.97 65.97 C 134.94 65.68 133.92 65.39 132.90 65.10 C 133.10 62.87 133.26 60.65 133.35 58.42 Z" fill="#ddcead" />
<path d="M 100.23 59.17 C 101.99 57.97 103.21 60.73 101.10 61.17 C 99.96 60.87 99.67 60.20 100.23 59.17 Z" fill="#645a76" />
<path d="M 62.20 60.51 C 65.85 62.57 69.33 64.99 72.78 67.36 C 73.75 69.30 74.71 71.25 75.75 73.15 C 77.79 77.03 80.68 80.24 83.92 83.14 C 80.60 81.75 77.38 80.27 74.22 78.57 C 71.15 76.11 68.92 73.89 64.68 74.49 C 62.93 72.86 61.41 70.93 60.05 68.98 C 59.31 66.26 59.61 63.70 59.78 60.93 C 60.59 60.78 61.39 60.64 62.20 60.51 Z" fill="#a79d8e" />
<path d="M 73.46 61.13 C 76.39 62.84 79.37 64.42 82.49 65.75 C 84.78 71.63 88.09 75.67 93.11 79.45 C 86.26 79.33 81.88 75.51 75.75 73.15 C 74.71 71.25 73.75 69.30 72.78 67.36 C 72.40 65.68 72.08 63.97 71.76 62.28 C 72.33 61.90 72.90 61.51 73.46 61.13 Z" fill="#d85d53" />
<path d="M 121.33 61.19 C 123.09 59.98 124.28 62.78 122.18 63.19 C 121.05 62.88 120.76 62.21 121.33 61.19 Z" fill="#664e47" />
<path d="M 125.34 63.81 C 125.73 66.13 126.02 68.51 126.17 70.85 C 121.62 74.96 117.54 79.30 113.71 84.09 L 113.18 84.56 C 112.34 83.73 111.51 82.90 110.67 82.07 C 112.71 80.49 114.97 78.75 116.41 76.58 C 117.38 74.78 117.17 72.28 117.43 70.28 C 117.88 69.00 118.30 67.73 118.61 66.41 C 120.88 65.62 123.11 64.71 125.34 63.81 Z" fill="#cda291" />
<path d="M 142.53 64.43 C 147.11 65.14 151.37 67.22 155.98 67.94 C 160.81 68.70 165.67 69.29 170.51 69.93 C 168.90 70.73 167.32 71.58 165.70 72.35 C 155.31 71.48 144.92 70.03 134.70 68.01 C 135.12 67.33 135.55 66.66 135.97 65.97 C 138.15 65.14 140.13 64.03 142.53 64.43 Z" fill="#c47d50" />
<path d="M 134.70 68.01 C 144.92 70.03 155.31 71.48 165.70 72.35 C 169.64 72.68 173.46 73.21 177.13 74.75 C 175.41 74.86 173.70 75.03 171.98 75.20 C 171.91 76.13 171.84 77.05 171.77 77.98 C 173.71 78.50 175.66 78.96 177.59 79.49 C 177.38 79.87 177.16 80.25 176.95 80.63 C 171.94 81.32 166.84 81.09 161.80 81.56 C 157.27 81.88 152.99 80.92 148.54 80.36 C 144.81 79.44 141.30 83.31 138.32 85.12 C 137.70 84.71 137.07 84.29 136.45 83.87 C 135.19 80.14 132.94 76.88 131.58 73.22 C 132.38 71.38 133.59 69.68 134.70 68.01 Z" fill="#b44847" />
<path d="M 60.05 68.98 C 61.41 70.93 62.93 72.86 64.68 74.49 C 66.66 76.23 68.82 77.66 71.18 78.87 C 70.51 79.66 69.86 80.46 69.22 81.26 C 70.04 81.79 70.87 82.30 71.72 82.77 C 70.41 85.18 68.99 87.51 67.40 89.77 C 66.67 89.41 65.94 89.05 65.20 88.70 C 66.47 87.45 67.71 86.17 68.98 84.92 C 67.71 84.79 66.45 84.69 65.19 84.61 C 65.44 83.80 65.68 82.99 65.92 82.18 C 62.25 78.36 61.15 73.98 60.05 68.98 Z" fill="#dccfbf" />
<path d="M 117.43 70.28 C 117.17 72.28 117.38 74.78 116.41 76.58 C 114.97 78.75 112.71 80.49 110.67 82.07 C 108.01 83.23 105.24 83.99 102.43 84.64 C 100.62 82.34 98.82 80.81 96.03 79.79 C 100.34 80.27 105.22 80.59 108.90 77.87 C 111.91 75.55 114.54 72.75 117.43 70.28 Z" fill="#d95548" />
<path d="M 170.51 69.93 C 171.42 69.79 172.34 69.67 173.25 69.56 C 174.39 69.72 175.52 69.89 176.65 70.07 C 181.19 72.08 184.42 72.31 189.35 71.75 C 199.15 73.50 210.04 73.57 219.24 77.32 C 218.07 77.65 216.90 77.98 215.74 78.33 C 210.03 79.80 203.97 81.75 198.08 81.77 C 195.12 81.41 192.18 80.83 189.22 80.41 C 185.06 78.79 181.24 76.45 177.13 74.75 C 173.46 73.21 169.64 72.68 165.70 72.35 C 167.32 71.58 168.90 70.73 170.51 69.93 Z" fill="#e1cb46" />
<path d="M 176.65 70.07 C 181.21 69.94 185.02 70.34 189.35 71.75 C 184.42 72.31 181.19 72.08 176.65 70.07 Z" fill="#d0b57c" />
<path d="M 126.17 70.85 C 125.09 75.95 121.24 78.21 117.97 81.85 L 119.90 81.95 C 118.92 83.14 117.99 84.37 117.04 85.58 C 115.92 85.11 114.81 84.61 113.71 84.09 C 117.54 79.30 121.62 74.96 126.17 70.85 Z" fill="#a3706a" />
<path d="M 75.75 73.15 C 81.88 75.51 86.26 79.33 93.11 79.45 C 94.08 79.56 95.06 79.68 96.03 79.79 C 98.82 80.81 100.62 82.34 102.43 84.64 C 105.24 83.99 108.01 83.23 110.67 82.07 C 111.51 82.90 112.34 83.73 113.18 84.56 C 106.23 87.67 97.48 87.05 90.10 85.90 C 88.03 84.99 85.97 84.08 83.92 83.14 C 80.68 80.24 77.79 77.03 75.75 73.15 Z" fill="#d88274" />
<path d="M 74.22 78.57 L 72.56 78.79 L 71.18 78.87 C 68.82 77.66 66.66 76.23 64.68 74.49 C 68.92 73.89 71.15 76.11 74.22 78.57 Z" fill="#4f494d" />
<path d="M 130.23 74.80 C 131.69 77.13 132.83 79.61 133.81 82.17 C 132.94 82.13 132.06 82.11 131.18 82.10 C 132.41 83.62 133.73 85.04 134.99 86.52 C 133.41 91.80 131.44 97.43 127.50 101.45 C 125.32 103.66 123.06 105.76 121.11 108.18 C 121.77 106.29 122.54 104.40 123.06 102.46 L 122.30 101.50 C 123.94 99.14 125.22 96.63 126.40 94.02 C 127.45 91.39 128.77 88.24 128.50 85.37 C 128.09 82.92 126.17 80.60 124.82 78.56 C 126.62 77.30 128.39 76.00 130.23 74.80 Z" fill="#916b65" />
<path d="M 171.98 75.20 C 173.70 75.03 175.41 74.86 177.13 74.75 C 181.24 76.45 185.06 78.79 189.22 80.41 C 187.20 81.02 185.13 82.00 183.02 82.23 C 181.85 81.93 180.79 81.02 179.74 80.42 L 179.54 80.31 L 179.32 80.32 C 178.53 80.42 177.74 80.52 176.95 80.63 C 177.16 80.25 177.38 79.87 177.59 79.49 C 175.66 78.96 173.71 78.50 171.77 77.98 C 171.84 77.05 171.91 76.13 171.98 75.20 Z" fill="#b85c54" />
<path d="M 74.22 78.57 C 77.38 80.27 80.60 81.75 83.92 83.14 C 85.97 84.08 88.03 84.99 90.10 85.90 C 92.30 87.00 94.42 88.28 96.48 89.61 C 94.09 89.34 91.70 89.03 89.37 88.41 C 83.92 84.89 77.96 82.37 72.56 78.79 L 74.22 78.57 Z" fill="#8c7368" />
<path d="M 71.18 78.87 L 72.56 78.79 C 77.96 82.37 83.92 84.89 89.37 88.41 C 87.89 89.10 86.38 89.77 84.95 90.54 C 85.21 89.69 85.48 88.84 85.74 87.99 C 81.25 85.69 76.54 84.19 71.72 82.77 C 70.87 82.30 70.04 81.79 69.22 81.26 C 69.86 80.46 70.51 79.66 71.18 78.87 Z" fill="#cab7a5" />
<path d="M 124.82 78.56 C 126.17 80.60 128.09 82.92 128.50 85.37 C 128.77 88.24 127.45 91.39 126.40 94.02 C 126.03 93.44 125.66 92.86 125.30 92.28 C 123.78 94.22 122.27 96.16 120.73 98.08 C 120.69 97.62 120.64 97.16 120.60 96.69 C 122.67 93.35 122.95 90.76 122.80 86.90 C 120.64 88.34 118.52 89.88 116.44 91.44 C 114.05 89.65 111.24 87.34 108.03 88.13 C 104.64 88.81 101.14 89.62 97.99 91.08 C 95.25 92.65 93.32 95.91 91.40 98.35 C 88.80 95.25 89.03 92.19 89.37 88.41 C 91.70 89.03 94.09 89.34 96.48 89.61 C 94.42 88.28 92.30 87.00 90.10 85.90 C 97.48 87.05 106.23 87.67 113.18 84.56 L 113.71 84.09 C 114.81 84.61 115.92 85.11 117.04 85.58 C 117.99 84.37 118.92 83.14 119.90 81.95 C 121.56 80.85 123.18 79.70 124.82 78.56 Z" fill="#733442" />
<path d="M 179.32 80.32 L 179.54 80.31 L 179.74 80.42 C 180.79 81.02 181.85 81.93 183.02 82.23 C 185.13 82.00 187.20 81.02 189.22 80.41 C 192.18 80.83 195.12 81.41 198.08 81.77 C 198.25 82.93 198.41 84.10 198.58 85.26 C 195.28 84.63 192.10 83.32 188.84 84.73 C 185.80 85.93 182.53 86.76 179.62 88.26 C 176.60 90.27 173.96 92.88 171.09 95.11 C 170.08 94.76 169.06 94.39 168.05 94.03 C 164.11 90.64 163.24 86.27 161.80 81.56 C 166.84 81.09 171.94 81.32 176.95 80.63 C 177.74 80.52 178.53 80.42 179.32 80.32 Z" fill="#d77e6a" />
<path d="M 148.54 80.36 C 152.99 80.92 157.27 81.88 161.80 81.56 C 163.24 86.27 164.11 90.64 168.05 94.03 C 163.81 92.67 159.68 91.19 155.53 89.55 C 149.44 87.23 143.84 88.34 138.32 85.12 C 141.30 83.31 144.81 79.44 148.54 80.36 Z" fill="#b8675b" />
<path d="M 131.18 82.10 C 132.06 82.11 132.94 82.13 133.81 82.17 C 134.70 82.72 135.59 83.28 136.45 83.87 C 137.07 84.29 137.70 84.71 138.32 85.12 C 143.84 88.34 149.44 87.23 155.53 89.55 C 159.68 91.19 163.81 92.67 168.05 94.03 C 169.06 94.39 170.08 94.76 171.09 95.11 C 171.62 96.04 172.14 96.98 172.65 97.92 C 171.10 97.74 169.55 97.53 168.00 97.41 L 167.14 97.37 C 163.98 97.32 160.85 97.42 157.69 97.13 C 156.50 97.02 155.30 96.90 154.11 96.76 C 147.91 94.61 142.52 90.96 136.51 88.43 C 136.02 87.78 135.51 87.14 134.99 86.52 C 133.73 85.04 132.41 83.62 131.18 82.10 Z" fill="#e3ca47" />
<path d="M 71.72 82.77 C 76.54 84.19 81.25 85.69 85.74 87.99 C 85.48 88.84 85.21 89.69 84.95 90.54 C 83.18 91.84 81.55 93.36 80.03 94.93 C 77.63 94.87 75.00 94.11 73.07 95.97 C 69.04 99.45 65.72 103.47 61.03 106.20 C 62.28 104.40 63.58 102.64 64.98 100.97 C 66.25 99.60 67.46 98.17 68.67 96.75 C 71.86 93.18 74.79 89.40 77.55 85.50 C 74.17 87.45 71.17 89.95 67.85 91.99 C 66.66 92.74 65.46 92.60 64.12 92.60 C 58.53 92.15 51.21 95.23 48.74 100.53 C 49.60 100.78 50.46 101.03 51.32 101.28 L 53.28 101.85 C 49.94 103.79 46.56 105.51 42.92 106.82 C 38.36 108.44 34.58 111.14 30.59 113.80 C 33.43 110.07 37.33 107.05 40.71 103.70 C 44.30 100.14 48.69 97.83 52.49 94.49 C 56.52 90.92 60.61 87.48 65.19 84.61 C 66.45 84.69 67.71 84.79 68.98 84.92 C 67.71 86.17 66.47 87.45 65.20 88.70 C 65.94 89.05 66.67 89.41 67.40 89.77 C 68.99 87.51 70.41 85.18 71.72 82.77 Z" fill="#b24546" />
<path d="M 77.55 85.50 C 74.79 89.40 71.86 93.18 68.67 96.75 C 64.58 97.64 61.48 99.93 57.95 102.02 C 58.25 101.40 58.53 100.78 58.82 100.16 C 56.96 100.70 55.12 101.27 53.28 101.85 L 51.32 101.28 C 55.20 97.72 60.35 96.42 64.12 92.60 C 65.46 92.60 66.66 92.74 67.85 91.99 C 71.17 89.95 74.17 87.45 77.55 85.50 Z" fill="#d59464" />
<path d="M 134.99 86.52 C 135.51 87.14 136.02 87.78 136.51 88.43 C 136.28 90.38 136.03 92.33 135.75 94.27 C 135.13 93.98 134.50 93.72 133.86 93.48 C 133.09 95.70 132.69 97.87 132.76 100.22 C 132.44 102.79 136.54 103.07 135.66 100.18 C 136.49 101.18 137.28 102.21 138.06 103.26 C 138.92 104.42 139.77 105.58 140.60 106.75 C 143.98 111.56 146.66 116.21 152.31 118.67 C 153.08 118.76 153.84 118.85 154.61 118.97 L 155.13 117.83 C 155.59 119.07 156.04 120.31 156.51 121.54 C 156.96 122.64 157.39 123.89 158.15 124.82 C 159.71 125.77 161.63 126.22 163.35 126.82 C 168.97 130.02 173.44 134.61 178.86 138.04 L 179.16 138.78 C 178.14 139.04 177.12 139.30 176.09 139.55 C 171.52 136.15 167.24 132.41 162.91 128.71 C 158.02 131.36 153.50 133.21 147.83 133.29 C 147.89 134.87 148.03 136.50 147.88 138.08 C 145.68 139.57 142.14 138.89 139.60 139.72 C 138.18 141.28 137.41 143.55 136.57 145.47 C 131.51 144.53 125.38 144.02 121.16 140.97 C 119.51 139.81 117.84 138.69 116.12 137.63 C 115.74 135.62 115.38 133.61 115.07 131.59 C 116.02 123.67 118.66 115.77 121.11 108.18 C 123.06 105.76 125.32 103.66 127.50 101.45 C 131.44 97.43 133.41 91.80 134.99 86.52 Z" fill="#d2c5b2" />
<path d="M 116.44 91.44 C 117.77 93.24 119.10 95.03 120.60 96.69 C 120.64 97.16 120.69 97.62 120.73 98.08 C 122.27 96.16 123.78 94.22 125.30 92.28 C 125.66 92.86 126.03 93.44 126.40 94.02 C 125.22 96.63 123.94 99.14 122.30 101.50 C 119.87 104.25 117.56 106.84 116.40 110.40 C 114.24 116.58 111.14 122.19 109.53 128.51 C 108.74 131.58 107.89 134.63 106.76 137.60 C 105.21 141.64 104.21 145.76 103.51 150.02 C 102.35 147.73 101.18 145.45 99.96 143.19 C 100.76 136.18 101.45 129.11 101.54 122.05 C 101.52 120.75 101.47 119.46 101.40 118.16 C 101.05 114.48 101.11 110.40 99.95 106.88 C 97.44 103.75 94.01 101.42 91.40 98.35 C 93.32 95.91 95.25 92.65 97.99 91.08 C 101.14 89.62 104.64 88.81 108.03 88.13 C 111.24 87.34 114.05 89.65 116.44 91.44 Z" fill="#20223e" />
<path d="M 122.80 86.90 C 122.95 90.76 122.67 93.35 120.60 96.69 C 119.10 95.03 117.77 93.24 116.44 91.44 C 118.52 89.88 120.64 88.34 122.80 86.90 Z" fill="#e9ce5b" />
<path d="M 154.11 96.76 C 150.85 96.64 148.11 96.14 145.00 95.14 C 142.34 94.20 140.21 95.20 137.60 95.68 C 136.93 95.29 136.31 94.82 135.75 94.27 C 136.03 92.33 136.28 90.38 136.51 88.43 C 142.52 90.96 147.91 94.61 154.11 96.76 Z" fill="#b24749" />
<path d="M 89.37 88.41 C 89.03 92.19 88.80 95.25 91.40 98.35 C 94.01 101.42 97.44 103.75 99.95 106.88 C 101.11 110.40 101.05 114.48 101.40 118.16 C 100.31 118.43 99.22 118.70 98.12 118.95 C 97.01 116.12 95.73 113.34 94.67 110.48 C 94.42 109.64 94.18 108.80 93.94 107.95 C 92.53 108.49 91.12 109.00 89.74 109.61 C 86.66 111.90 85.01 115.92 81.81 118.19 C 79.26 118.77 76.33 118.28 73.75 117.98 C 75.96 116.93 78.17 115.90 80.39 114.88 C 79.61 112.48 78.85 110.08 78.05 107.68 C 78.40 107.13 78.75 106.57 79.09 106.01 C 82.57 104.99 85.21 103.64 88.12 101.48 C 85.95 101.82 83.69 102.37 81.48 102.34 C 78.27 101.22 79.46 97.39 80.03 94.93 C 81.55 93.36 83.18 91.84 84.95 90.54 C 86.38 89.77 87.89 89.10 89.37 88.41 Z" fill="#b45755" />
<path d="M 64.12 92.60 C 60.35 96.42 55.20 97.72 51.32 101.28 C 50.46 101.03 49.60 100.78 48.74 100.53 C 51.21 95.23 58.53 92.15 64.12 92.60 Z" fill="#e1bbbb" />
<path d="M 97.97 92.65 C 99.02 93.49 100.04 94.36 101.05 95.24 C 100.09 95.43 99.12 95.63 98.15 95.82 C 98.56 97.41 98.94 99.00 99.34 100.59 C 97.82 99.70 96.28 98.85 94.76 97.95 C 95.80 96.16 96.84 94.39 97.97 92.65 Z" fill="#59384d" />
<path d="M 133.86 93.48 C 134.50 93.72 135.13 93.98 135.75 94.27 C 136.31 94.82 136.93 95.29 137.60 95.68 C 140.21 95.20 142.34 94.20 145.00 95.14 C 148.11 96.14 150.85 96.64 154.11 96.76 C 155.30 96.90 156.50 97.02 157.69 97.13 C 157.42 98.82 157.20 100.52 156.96 102.21 C 150.11 102.65 144.48 104.42 138.06 103.26 C 137.28 102.21 136.49 101.18 135.66 100.18 C 134.82 99.63 133.85 99.65 132.76 100.22 C 132.69 97.87 133.09 95.70 133.86 93.48 Z" fill="#c7615a" />
<path d="M 80.03 94.93 C 79.46 97.39 78.27 101.22 81.48 102.34 C 83.69 102.37 85.95 101.82 88.12 101.48 C 85.21 103.64 82.57 104.99 79.09 106.01 C 78.75 106.57 78.40 107.13 78.05 107.68 C 76.84 109.51 75.65 111.61 73.76 112.79 C 71.10 114.44 67.76 115.25 64.73 115.91 C 63.84 115.99 62.95 116.06 62.06 116.13 C 67.54 109.96 73.25 103.91 78.20 97.31 C 71.64 101.27 66.54 106.85 60.43 111.35 C 57.87 109.84 56.62 110.75 54.12 111.73 C 54.48 112.73 54.85 113.72 55.21 114.71 C 54.69 115.51 54.17 116.31 53.66 117.11 C 51.70 116.66 49.75 116.19 47.81 115.71 C 47.80 113.73 47.80 111.75 47.78 109.77 C 48.53 109.20 49.27 108.62 50.01 108.04 C 55.00 105.69 60.04 103.43 64.98 100.97 C 63.58 102.64 62.28 104.40 61.03 106.20 C 65.72 103.47 69.04 99.45 73.07 95.97 C 75.00 94.11 77.63 94.87 80.03 94.93 Z" fill="#c18d82" />
<path d="M 68.67 96.75 C 67.46 98.17 66.25 99.60 64.98 100.97 C 60.04 103.43 55.00 105.69 50.01 108.04 C 52.54 105.79 55.10 103.85 57.95 102.02 C 61.48 99.93 64.58 97.64 68.67 96.75 Z" fill="#e0b7a2" />
<path d="M 167.14 97.37 L 168.00 97.41 C 164.91 99.48 162.06 101.91 158.91 103.89 C 154.55 106.56 149.86 107.51 144.88 108.23 C 143.46 107.72 142.04 107.23 140.60 106.75 C 139.77 105.58 138.92 104.42 138.06 103.26 C 144.48 104.42 150.11 102.65 156.96 102.21 C 157.20 100.52 157.42 98.82 157.69 97.13 C 160.85 97.42 163.98 97.32 167.14 97.37 Z" fill="#d27e6a" />
<path d="M 78.20 97.31 C 73.25 103.91 67.54 109.96 62.06 116.13 C 58.08 119.44 53.86 123.23 49.06 125.24 C 50.34 122.38 51.94 119.72 53.66 117.11 C 54.17 116.31 54.69 115.51 55.21 114.71 C 56.97 113.62 58.72 112.52 60.43 111.35 C 66.54 106.85 71.64 101.27 78.20 97.31 Z" fill="#e0c846" />
<path d="M 58.82 100.16 C 58.53 100.78 58.25 101.40 57.95 102.02 C 55.10 103.85 52.54 105.79 50.01 108.04 C 49.27 108.62 48.53 109.20 47.78 109.77 C 45.56 111.44 43.15 112.79 40.70 114.08 C 36.27 116.43 32.41 119.46 27.60 121.10 C 28.16 118.42 28.75 115.91 30.59 113.80 C 34.58 111.14 38.36 108.44 42.92 106.82 C 46.56 105.51 49.94 103.79 53.28 101.85 C 55.12 101.27 56.96 100.70 58.82 100.16 Z" fill="#e3c94a" />
<path d="M 132.76 100.22 C 133.85 99.65 134.82 99.63 135.66 100.18 C 136.54 103.07 132.44 102.79 132.76 100.22 Z" fill="#f6eeec" />
<path d="M 122.30 101.50 L 123.06 102.46 C 122.54 104.40 121.77 106.29 121.11 108.18 C 118.66 115.77 116.02 123.67 115.07 131.59 C 114.46 132.02 113.87 132.45 113.28 132.90 L 113.04 133.12 C 112.22 135.13 111.61 137.25 111.06 139.35 C 109.63 138.77 108.20 138.18 106.76 137.60 C 107.89 134.63 108.74 131.58 109.53 128.51 C 111.14 122.19 114.24 116.58 116.40 110.40 C 117.56 106.84 119.87 104.25 122.30 101.50 Z" fill="#aab3aa" />
<path d="M 144.88 108.23 C 147.95 111.35 149.92 115.07 152.31 118.67 C 146.66 116.21 143.98 111.56 140.60 106.75 C 142.04 107.23 143.46 107.72 144.88 108.23 Z" fill="#454854" />
<path d="M 102.17 107.16 C 103.48 107.20 104.77 107.33 106.07 107.47 C 105.00 109.00 103.91 110.52 102.83 112.04 C 102.55 110.42 102.32 108.80 102.17 107.16 Z" fill="#787b93" />
<path d="M 78.05 107.68 C 78.85 110.08 79.61 112.48 80.39 114.88 C 78.17 115.90 75.96 116.93 73.75 117.98 C 70.73 117.34 67.77 116.48 64.73 115.91 C 67.76 115.25 71.10 114.44 73.76 112.79 C 75.65 111.61 76.84 109.51 78.05 107.68 Z" fill="#dfb1b0" />
<path d="M 93.94 107.95 C 94.18 108.80 94.42 109.64 94.67 110.48 C 93.03 110.18 91.39 109.87 89.74 109.61 C 91.12 109.00 92.53 108.49 93.94 107.95 Z" fill="#6f4249" />
<path d="M 89.74 109.61 C 91.39 109.87 93.03 110.18 94.67 110.48 C 95.73 113.34 97.01 116.12 98.12 118.95 C 99.22 118.70 100.31 118.43 101.40 118.16 C 101.47 119.46 101.52 120.75 101.54 122.05 L 100.73 121.58 C 99.85 120.89 98.99 120.19 98.13 119.47 C 98.15 121.67 98.20 123.89 98.10 126.09 C 97.22 129.99 96.14 133.56 96.24 137.62 C 92.63 135.31 88.91 135.44 84.79 135.39 C 83.76 134.15 82.71 132.92 81.67 131.69 C 79.36 131.34 77.06 130.86 74.77 130.40 C 78.15 127.03 80.75 123.89 81.73 119.11 C 79.06 118.76 76.40 118.47 73.75 117.98 C 76.33 118.28 79.26 118.77 81.81 118.19 C 85.01 115.92 86.66 111.90 89.74 109.61 Z" fill="#d2c5b2" />
<path d="M 47.78 109.77 C 47.80 111.75 47.80 113.73 47.81 115.71 C 45.44 115.17 43.07 114.63 40.70 114.08 C 43.15 112.79 45.56 111.44 47.78 109.77 Z" fill="#e1cfc3" />
<path d="M 60.43 111.35 C 58.72 112.52 56.97 113.62 55.21 114.71 C 54.85 113.72 54.48 112.73 54.12 111.73 C 56.62 110.75 57.87 109.84 60.43 111.35 Z" fill="#ac6957" />
<path d="M 161.70 110.38 C 162.28 112.51 162.49 114.52 163.44 116.52 C 165.13 118.30 167.41 119.59 169.38 121.06 C 168.44 121.46 167.49 121.86 166.55 122.26 C 163.71 120.20 160.73 118.65 158.44 115.88 C 159.20 115.94 159.96 115.99 160.72 116.05 C 160.24 114.68 159.77 113.31 159.31 111.94 C 160.08 111.37 160.87 110.84 161.70 110.38 Z" fill="#9899a1" />
<path d="M 221.22 113.24 C 227.60 113.50 233.88 117.92 233.34 124.91 C 232.04 128.57 230.05 132.18 227.48 135.09 C 226.79 132.11 228.31 130.12 229.29 127.46 C 229.28 126.38 229.19 125.30 229.07 124.22 C 225.63 125.72 221.67 127.31 218.99 129.99 C 217.39 132.25 216.83 135.36 215.87 137.95 C 213.56 140.87 207.74 140.57 204.36 140.86 L 203.11 140.74 C 203.46 140.36 203.82 139.98 204.18 139.60 C 206.04 138.43 208.31 137.28 209.68 135.53 C 211.74 131.80 207.84 128.22 209.33 124.46 C 210.48 118.68 216.12 115.17 221.22 113.24 Z" fill="#35394f" />
<path d="M 156.87 114.07 C 157.39 114.67 157.92 115.28 158.44 115.88 C 160.73 118.65 163.71 120.20 166.55 122.26 C 168.41 124.65 169.64 127.07 172.08 128.94 C 174.96 131.45 178.18 131.76 181.55 133.53 C 185.26 135.46 188.93 137.48 192.63 139.44 C 188.07 139.83 184.28 135.77 179.72 134.81 C 182.94 138.47 187.75 141.68 192.33 143.32 C 195.18 143.08 197.89 141.96 200.80 141.88 C 202.13 142.33 203.46 142.78 204.80 143.22 C 206.51 143.94 208.71 144.35 210.14 145.56 C 211.59 148.06 212.95 150.67 214.29 153.23 C 214.80 155.84 214.21 158.19 213.00 160.52 C 210.94 159.95 208.91 159.28 206.84 158.74 C 204.15 162.79 201.85 167.07 199.09 171.08 C 196.36 175.12 194.93 179.31 191.26 182.28 C 186.80 186.44 180.20 187.93 174.50 185.55 C 173.45 185.11 172.41 184.65 171.34 184.23 C 169.44 186.22 167.66 188.32 165.65 190.20 C 165.40 188.62 165.17 187.03 164.92 185.45 C 163.85 187.50 162.84 189.56 161.90 191.67 C 164.08 191.60 166.27 191.50 168.45 191.43 C 165.30 194.41 162.53 197.71 159.61 200.90 C 157.88 202.63 156.17 204.65 154.10 205.97 C 152.77 206.65 150.87 206.26 149.41 206.24 C 149.75 207.16 150.11 208.08 150.48 208.99 C 148.27 211.18 145.96 213.04 143.23 214.55 C 144.15 213.01 145.14 211.51 146.08 209.97 C 141.32 212.89 138.64 217.35 133.43 218.32 L 131.96 217.27 C 133.83 216.38 135.58 215.41 137.07 213.95 C 138.89 211.67 140.43 209.14 142.09 206.74 C 143.94 205.74 146.20 205.18 147.11 203.13 C 148.90 199.48 150.85 196.33 153.32 193.10 C 147.65 196.45 143.32 201.04 138.89 205.82 C 136.20 208.70 134.18 211.93 131.82 215.05 L 130.25 216.02 C 127.91 216.82 126.09 218.14 124.27 219.78 C 123.67 219.42 123.08 219.06 122.49 218.70 C 121.38 218.01 120.28 217.33 119.13 216.71 L 119.91 216.45 C 125.39 212.74 124.50 206.38 124.55 200.58 C 125.16 199.78 125.80 199.00 126.47 198.23 C 127.80 196.72 129.38 195.27 130.42 193.53 C 130.48 192.29 130.30 191.01 130.17 189.78 C 132.24 187.95 134.19 185.98 136.29 184.16 C 141.38 180.76 147.03 177.60 152.81 175.52 C 154.36 175.02 155.90 174.53 157.45 174.01 C 158.54 173.64 159.64 173.25 160.72 172.84 C 160.53 171.36 160.31 169.87 160.08 168.39 C 161.12 169.61 162.12 170.94 163.32 172.00 C 165.85 172.97 168.04 171.39 170.17 170.22 C 174.01 167.79 178.05 165.46 181.50 162.50 C 183.77 160.61 184.00 157.43 184.98 154.79 C 186.09 151.11 188.50 148.68 190.89 145.81 C 187.05 142.94 183.08 140.31 178.86 138.04 C 173.44 134.61 168.97 130.02 163.35 126.82 C 161.06 125.07 158.83 123.25 156.51 121.54 C 156.04 120.31 155.59 119.07 155.13 117.83 C 155.68 116.56 156.24 115.30 156.87 114.07 Z" fill="#20233f" />
<path d="M 228.41 116.87 C 229.73 118.48 231.08 120.20 231.98 122.09 C 231.93 123.24 231.15 124.33 230.75 125.41 C 229.81 122.61 229.03 119.76 228.41 116.87 Z" fill="#8b8b9c" />
<path d="M 98.13 119.47 C 98.99 120.19 99.85 120.89 100.73 121.58 C 99.84 123.07 98.93 124.56 98.10 126.09 C 98.20 123.89 98.15 121.67 98.13 119.47 Z" fill="#f0eee8" />
<path d="M 100.73 121.58 L 101.54 122.05 C 101.45 129.11 100.76 136.18 99.96 143.19 L 99.65 144.21 C 99.04 140.90 98.37 137.62 97.21 134.46 C 96.97 136.69 96.80 138.94 96.80 141.19 C 96.60 140.00 96.41 138.81 96.24 137.62 C 96.14 133.56 97.22 129.99 98.10 126.09 C 98.93 124.56 99.84 123.07 100.73 121.58 Z" fill="#b0b7b0" />
<path d="M 156.51 121.54 C 158.83 123.25 161.06 125.07 163.35 126.82 C 161.63 126.22 159.71 125.77 158.15 124.82 C 157.39 123.89 156.96 122.64 156.51 121.54 Z" fill="#efefdb" />
<path d="M 229.07 124.22 C 229.19 125.30 229.28 126.38 229.29 127.46 C 226.98 129.34 224.46 130.67 221.75 131.87 C 218.83 133.03 217.71 135.60 215.87 137.95 C 216.83 135.36 217.39 132.25 218.99 129.99 C 221.67 127.31 225.63 125.72 229.07 124.22 Z" fill="#dc7771" />
<path d="M 162.91 128.71 C 167.24 132.41 171.52 136.15 176.09 139.55 C 175.35 139.73 174.60 139.89 173.85 140.03 C 168.76 140.80 166.03 138.05 161.88 135.87 C 162.77 137.39 163.69 138.89 164.65 140.37 C 160.12 141.08 155.67 142.13 151.22 143.23 C 154.65 145.00 157.88 146.88 160.53 149.74 C 159.06 151.51 157.62 153.32 156.14 155.09 C 154.25 154.00 152.43 152.81 150.78 151.37 C 150.02 149.08 149.10 146.89 147.85 144.83 C 148.01 147.98 149.15 149.78 151.04 152.16 C 151.61 153.72 152.15 155.28 152.66 156.86 C 150.40 158.22 148.15 159.52 145.63 160.36 C 140.45 162.02 135.59 163.77 130.08 163.83 C 128.32 163.46 126.57 163.09 124.83 162.64 C 124.80 160.16 124.60 157.76 123.93 155.37 C 122.59 150.63 122.23 145.77 121.16 140.97 C 125.38 144.02 131.51 144.53 136.57 145.47 C 137.41 143.55 138.18 141.28 139.60 139.72 C 142.14 138.89 145.68 139.57 147.88 138.08 C 148.03 136.50 147.89 134.87 147.83 133.29 C 153.50 133.21 158.02 131.36 162.91 128.71 Z" fill="#c6b984" />
<path d="M 74.77 130.40 C 77.06 130.86 79.36 131.34 81.67 131.69 C 82.71 132.92 83.76 134.15 84.79 135.39 C 88.91 135.44 92.63 135.31 96.24 137.62 C 96.41 138.81 96.60 140.00 96.80 141.19 C 96.94 142.07 97.08 142.95 97.22 143.83 C 96.04 145.34 94.89 146.88 93.71 148.39 C 92.88 146.40 92.12 144.38 91.30 142.39 C 86.42 142.16 81.70 141.37 76.90 140.47 C 74.02 139.61 71.38 143.02 69.27 144.59 C 67.17 146.05 65.02 147.45 63.00 149.02 C 62.22 147.39 61.46 145.75 60.66 144.13 C 61.33 143.26 62.02 142.40 62.75 141.57 C 67.23 138.32 70.95 134.37 74.77 130.40 Z" fill="#c7ba8c" />
<path d="M 113.04 133.12 L 113.28 132.90 C 113.87 132.45 114.46 132.02 115.07 131.59 C 115.38 133.61 115.74 135.62 116.12 137.63 C 114.65 139.04 113.04 140.50 111.92 142.22 C 110.52 144.66 110.68 147.65 110.68 150.37 C 109.90 150.52 109.11 150.66 108.32 150.81 C 109.51 147.06 110.32 143.22 111.06 139.35 C 111.61 137.25 112.22 135.13 113.04 133.12 Z" fill="#36252d" />
<path d="M 197.81 134.76 C 199.33 134.63 200.84 134.52 202.36 134.49 C 202.96 136.19 203.57 137.89 204.18 139.60 C 203.82 139.98 203.46 140.36 203.11 140.74 L 204.36 140.86 L 204.80 143.22 C 203.46 142.78 202.13 142.33 200.80 141.88 C 199.15 141.29 197.51 140.72 195.84 140.20 C 196.47 138.38 197.07 136.53 197.81 134.76 Z" fill="#c3c4c5" />
<path d="M 97.21 134.46 C 98.37 137.62 99.04 140.90 99.65 144.21 C 99.21 149.93 101.53 155.71 103.50 160.99 C 105.76 157.76 107.33 154.64 108.32 150.81 C 109.11 150.66 109.90 150.52 110.68 150.37 C 110.69 153.03 110.45 155.68 110.39 158.34 C 109.43 158.59 108.47 158.83 107.48 159.00 C 107.06 162.08 106.60 165.15 106.25 168.24 C 105.99 165.88 105.58 163.54 105.08 161.22 C 102.43 165.64 101.36 170.50 99.22 175.17 C 100.01 172.58 100.82 169.76 100.80 167.04 C 100.64 164.01 99.58 160.96 99.00 157.97 C 97.97 153.26 97.88 148.57 97.22 143.83 C 97.08 142.95 96.94 142.07 96.80 141.19 C 96.80 138.94 96.97 136.69 97.21 134.46 Z" fill="#663236" />
<path d="M 179.72 134.81 C 184.28 135.77 188.07 139.83 192.63 139.44 C 193.70 139.68 194.78 139.92 195.84 140.20 C 197.51 140.72 199.15 141.29 200.80 141.88 C 197.89 141.96 195.18 143.08 192.33 143.32 C 187.75 141.68 182.94 138.47 179.72 134.81 Z" fill="#8c8b91" />
<path d="M 161.88 135.87 C 166.03 138.05 168.76 140.80 173.85 140.03 C 174.17 141.23 174.43 142.42 174.64 143.65 C 170.13 146.29 165.77 148.83 160.53 149.74 C 157.88 146.88 154.65 145.00 151.22 143.23 C 155.67 142.13 160.12 141.08 164.65 140.37 C 163.69 138.89 162.77 137.39 161.88 135.87 Z" fill="#bdb172" />
<path d="M 106.76 137.60 C 108.20 138.18 109.63 138.77 111.06 139.35 C 110.32 143.22 109.51 147.06 108.32 150.81 C 107.33 154.64 105.76 157.76 103.50 160.99 C 101.53 155.71 99.21 149.93 99.65 144.21 L 99.96 143.19 C 101.18 145.45 102.35 147.73 103.51 150.02 C 104.21 145.76 105.21 141.64 106.76 137.60 Z" fill="#b5b082" />
<path d="M 116.12 137.63 C 117.84 138.69 119.51 139.81 121.16 140.97 C 122.23 145.77 122.59 150.63 123.93 155.37 C 124.60 157.76 124.80 160.16 124.83 162.64 C 126.57 163.09 128.32 163.46 130.08 163.83 C 128.28 164.17 126.25 164.49 124.64 165.41 C 123.43 167.19 122.81 169.42 122.19 171.46 L 122.01 170.55 C 120.62 164.93 119.73 159.13 117.88 153.67 C 117.62 156.50 117.42 159.31 117.49 162.15 C 116.44 158.95 115.07 155.86 113.48 152.89 C 112.47 155.60 111.51 158.32 110.40 160.99 C 110.39 160.11 110.39 159.23 110.39 158.34 C 110.45 155.68 110.69 153.03 110.68 150.37 C 110.68 147.65 110.52 144.66 111.92 142.22 C 113.04 140.50 114.65 139.04 116.12 137.63 Z" fill="#cba377" />
<path d="M 178.86 138.04 C 183.08 140.31 187.05 142.94 190.89 145.81 C 188.50 148.68 186.09 151.11 184.98 154.79 C 184.00 157.43 183.77 160.61 181.50 162.50 C 178.05 165.46 174.01 167.79 170.17 170.22 C 168.75 170.68 167.31 171.06 165.87 171.45 C 164.09 168.65 162.48 165.75 160.68 162.97 C 163.81 161.20 167.16 159.88 170.33 158.20 C 172.95 156.99 173.50 153.92 174.52 151.51 C 175.78 147.67 177.73 144.23 179.99 140.90 C 179.71 140.19 179.43 139.49 179.16 138.78 L 178.86 138.04 Z" fill="#8e887f" />
<path d="M 176.09 139.55 C 177.12 139.30 178.14 139.04 179.16 138.78 C 179.43 139.49 179.71 140.19 179.99 140.90 C 177.73 144.23 175.78 147.67 174.52 151.51 C 173.50 153.92 172.95 156.99 170.33 158.20 C 167.16 159.88 163.81 161.20 160.68 162.97 C 158.89 160.71 156.92 158.61 154.91 156.55 C 155.32 156.06 155.73 155.57 156.14 155.09 C 157.62 153.32 159.06 151.51 160.53 149.74 C 165.77 148.83 170.13 146.29 174.64 143.65 C 174.43 142.42 174.17 141.23 173.85 140.03 C 174.60 139.89 175.35 139.73 176.09 139.55 Z" fill="#a39a6d" />
<path d="M 76.90 140.47 C 81.70 141.37 86.42 142.16 91.30 142.39 C 92.12 144.38 92.88 146.40 93.71 148.39 C 94.89 146.88 96.04 145.34 97.22 143.83 C 97.09 149.41 96.12 154.71 94.52 160.04 C 94.12 158.70 93.71 157.36 93.29 156.02 C 92.17 157.93 91.04 159.88 90.15 161.91 C 86.56 159.41 82.53 156.87 78.33 155.58 C 77.07 155.20 75.69 155.71 74.42 155.92 C 74.54 155.26 74.67 154.59 74.80 153.93 C 75.17 152.21 75.44 150.48 75.65 148.75 C 73.91 151.30 72.78 154.09 71.90 157.03 C 71.07 155.62 70.31 153.28 68.47 152.98 C 66.30 152.56 63.82 152.94 61.65 153.14 L 60.81 153.23 C 63.96 150.55 66.69 147.83 69.27 144.59 C 71.38 143.02 74.02 139.61 76.90 140.47 Z" fill="#c1b574" />
<path d="M 62.75 141.57 C 62.02 142.40 61.33 143.26 60.66 144.13 C 61.46 145.75 62.22 147.39 63.00 149.02 C 61.67 150.08 60.38 151.17 59.10 152.28 C 56.73 150.95 54.38 149.56 51.96 148.33 C 54.26 146.92 56.60 145.56 58.90 144.14 C 57.93 144.06 56.97 143.98 56.00 143.93 C 58.19 142.95 60.47 142.29 62.75 141.57 Z" fill="#a3946c" />
<path d="M 56.00 143.93 C 56.97 143.98 57.93 144.06 58.90 144.14 C 56.60 145.56 54.26 146.92 51.96 148.33 C 49.39 149.89 46.68 152.36 45.77 155.31 C 45.12 158.47 47.56 160.19 49.61 162.05 C 50.25 162.60 50.89 163.15 51.53 163.70 C 54.27 166.11 56.73 168.61 59.89 170.51 C 61.60 171.51 63.38 172.42 65.15 173.31 C 66.24 176.78 67.71 180.06 69.48 183.23 C 68.24 185.24 66.94 187.22 65.61 189.17 C 66.74 190.16 67.87 191.14 68.99 192.14 C 69.56 189.73 70.29 187.39 71.24 185.10 C 73.55 186.47 75.86 187.82 78.22 189.09 C 78.54 190.40 78.81 191.73 79.11 193.05 C 80.40 193.50 81.70 193.96 82.99 194.42 C 80.39 194.74 77.81 195.13 75.22 195.54 C 74.36 193.77 73.58 191.95 72.71 190.17 C 72.39 191.43 72.07 192.68 71.72 193.93 C 73.49 195.40 75.30 196.80 77.04 198.30 L 75.60 198.78 L 73.91 199.35 C 75.29 201.48 76.92 203.30 79.12 204.61 L 80.41 203.64 C 81.38 202.90 82.36 202.15 83.33 201.40 C 84.71 202.36 86.15 203.20 87.60 204.05 C 87.21 204.89 86.82 205.73 86.43 206.57 C 88.38 207.50 90.33 208.38 92.34 209.17 C 93.37 209.56 94.40 209.95 95.41 210.37 C 98.13 211.88 100.67 213.74 103.20 215.55 C 102.11 215.78 101.02 216.02 99.94 216.28 C 96.95 213.29 94.38 211.14 89.91 211.10 C 87.92 210.52 85.94 209.89 83.95 209.32 C 89.09 212.82 94.59 215.57 99.36 219.63 C 103.15 222.00 105.73 224.09 107.66 228.23 C 104.48 225.69 101.76 222.78 98.24 220.65 C 98.24 221.79 98.25 222.94 98.27 224.08 C 97.47 222.85 96.66 221.53 95.66 220.44 C 92.84 219.19 89.61 219.08 86.79 217.97 C 80.34 213.42 74.47 208.27 67.69 204.27 C 64.70 202.52 63.35 199.47 60.46 197.59 C 58.45 196.20 56.36 195.12 54.45 193.55 C 50.76 190.54 47.84 186.92 43.88 184.13 C 41.39 182.38 38.68 181.77 36.48 179.53 C 34.49 177.43 32.36 175.27 30.86 172.79 C 30.46 171.27 30.28 169.70 30.10 168.14 C 31.30 167.93 32.50 167.71 33.70 167.49 C 34.70 164.27 35.09 161.77 34.07 158.46 C 36.45 157.16 38.89 156.83 40.49 154.48 C 42.47 151.78 43.84 148.66 45.66 145.85 C 45.50 147.52 45.32 149.18 45.17 150.85 C 48.86 148.42 51.86 145.67 56.00 143.93 Z" fill="#1f233f" />
<path d="M 69.27 144.59 C 66.69 147.83 63.96 150.55 60.81 153.23 C 58.66 155.21 56.75 157.58 54.88 159.83 C 53.76 161.12 52.64 162.41 51.53 163.70 C 50.89 163.15 50.25 162.60 49.61 162.05 C 52.43 158.45 55.65 155.27 59.10 152.28 C 60.38 151.17 61.67 150.08 63.00 149.02 C 65.02 147.45 67.17 146.05 69.27 144.59 Z" fill="#5d5646" />
<path d="M 97.22 143.83 C 97.88 148.57 97.97 153.26 99.00 157.97 C 99.58 160.96 100.64 164.01 100.80 167.04 C 100.82 169.76 100.01 172.58 99.22 175.17 C 98.36 177.39 97.54 179.60 97.00 181.92 C 95.82 186.41 96.12 190.55 93.25 194.43 C 91.65 192.93 88.51 191.02 88.44 188.61 C 88.50 184.63 89.79 180.93 89.25 176.88 C 90.55 178.45 91.93 179.96 93.35 181.42 C 94.53 179.83 96.15 178.05 96.58 176.08 C 97.09 173.78 97.03 171.31 97.10 168.97 C 95.14 171.00 93.27 173.09 91.47 175.27 C 92.87 171.82 93.78 168.47 94.28 164.77 C 91.89 166.90 89.69 169.16 88.08 171.95 C 88.76 168.60 89.35 165.23 90.15 161.91 C 91.04 159.88 92.17 157.93 93.29 156.02 C 93.71 157.36 94.12 158.70 94.52 160.04 C 96.12 154.71 97.09 149.41 97.22 143.83 Z" fill="#d46d51" />
<path d="M 147.85 144.83 C 149.10 146.89 150.02 149.08 150.78 151.37 L 151.04 152.16 C 149.15 149.78 148.01 147.98 147.85 144.83 Z" fill="#787248" />
<path d="M 51.96 148.33 C 54.38 149.56 56.73 150.95 59.10 152.28 C 55.65 155.27 52.43 158.45 49.61 162.05 C 47.56 160.19 45.12 158.47 45.77 155.31 C 46.68 152.36 49.39 149.89 51.96 148.33 Z" fill="#756c5e" />
<path d="M 75.65 148.75 C 75.44 150.48 75.17 152.21 74.80 153.93 C 73.31 157.91 71.87 161.87 70.65 165.95 C 69.67 168.85 68.57 171.69 67.39 174.51 C 66.84 173.67 66.30 172.82 65.77 171.96 C 67.40 168.58 69.01 165.22 70.31 161.70 C 70.88 160.16 71.40 158.60 71.90 157.03 C 72.78 154.09 73.91 151.30 75.65 148.75 Z" fill="#534b3c" />
<path d="M 150.78 151.37 C 152.43 152.81 154.25 154.00 156.14 155.09 C 155.73 155.57 155.32 156.06 154.91 156.55 L 154.20 157.42 C 155.47 162.14 157.53 166.14 157.52 171.18 C 156.31 169.44 155.09 167.70 153.98 165.88 C 153.70 163.83 153.42 161.78 152.95 159.76 C 151.09 161.98 149.60 164.42 148.23 166.96 C 146.09 167.42 143.65 167.65 141.70 168.68 C 139.46 170.39 137.70 172.87 135.86 175.01 C 134.80 174.58 133.76 174.11 132.75 173.56 C 132.47 170.46 132.26 168.47 129.89 166.19 C 129.95 167.62 130.07 169.05 130.19 170.48 C 127.56 171.02 124.95 171.62 122.34 172.29 L 122.19 171.46 C 122.81 169.42 123.43 167.19 124.64 165.41 C 126.25 164.49 128.28 164.17 130.08 163.83 C 135.59 163.77 140.45 162.02 145.63 160.36 C 148.15 159.52 150.40 158.22 152.66 156.86 C 152.15 155.28 151.61 153.72 151.04 152.16 L 150.78 151.37 Z" fill="#aea582" />
<path d="M 68.47 152.98 C 70.31 153.28 71.07 155.62 71.90 157.03 C 71.40 158.60 70.88 160.16 70.31 161.70 C 67.23 160.84 64.13 160.53 60.95 160.43 C 60.65 157.80 60.90 155.69 61.65 153.14 C 63.82 152.94 66.30 152.56 68.47 152.98 Z" fill="#a29664" />
<path d="M 60.81 153.23 L 61.65 153.14 C 60.90 155.69 60.65 157.80 60.95 160.43 C 64.13 160.53 67.23 160.84 70.31 161.70 C 69.01 165.22 67.40 168.58 65.77 171.96 L 65.15 173.31 C 63.38 172.42 61.60 171.51 59.89 170.51 C 61.30 169.99 62.71 169.47 64.12 168.94 C 61.79 164.70 59.12 162.15 54.88 159.83 C 56.75 157.58 58.66 155.21 60.81 153.23 Z" fill="#8c8165" />
<path d="M 113.48 152.89 C 115.07 155.86 116.44 158.95 117.49 162.15 C 117.60 164.06 117.69 165.95 117.65 167.86 C 117.42 171.06 117.34 174.10 118.39 177.19 C 117.98 177.42 117.56 177.63 117.14 177.83 C 115.47 178.47 113.02 178.74 111.73 179.97 C 110.09 183.23 110.52 187.76 110.88 191.28 C 110.00 191.31 109.12 191.34 108.24 191.37 C 106.93 185.19 106.84 178.95 105.94 172.69 C 106.00 171.20 106.14 169.73 106.25 168.24 C 106.60 165.15 107.06 162.08 107.48 159.00 C 108.47 158.83 109.43 158.59 110.39 158.34 C 110.39 159.23 110.39 160.11 110.40 160.99 C 111.51 158.32 112.47 155.60 113.48 152.89 Z" fill="#e36f4f" />
<path d="M 74.80 153.93 C 74.67 154.59 74.54 155.26 74.42 155.92 C 75.69 155.71 77.07 155.20 78.33 155.58 C 82.53 156.87 86.56 159.41 90.15 161.91 C 89.35 165.23 88.76 168.60 88.08 171.95 L 87.93 172.75 C 87.63 174.41 87.36 176.07 87.13 177.74 C 84.46 177.44 81.79 177.17 79.12 176.89 C 78.39 174.61 77.81 171.78 76.30 169.88 C 74.73 168.25 72.60 167.07 70.65 165.95 C 71.87 161.87 73.31 157.91 74.80 153.93 Z" fill="#ab9d62" />
<path d="M 117.88 153.67 C 119.73 159.13 120.62 164.93 122.01 170.55 C 120.57 169.63 119.13 168.72 117.65 167.86 C 117.69 165.95 117.60 164.06 117.49 162.15 C 117.42 159.31 117.62 156.50 117.88 153.67 Z" fill="#c8855c" />
<path d="M 154.91 156.55 C 156.92 158.61 158.89 160.71 160.68 162.97 C 162.48 165.75 164.09 168.65 165.87 171.45 C 167.31 171.06 168.75 170.68 170.17 170.22 C 168.04 171.39 165.85 172.97 163.32 172.00 C 162.12 170.94 161.12 169.61 160.08 168.39 C 160.31 169.87 160.53 171.36 160.72 172.84 C 159.64 173.25 158.54 173.64 157.45 174.01 C 157.48 173.07 157.51 172.12 157.52 171.18 C 157.53 166.14 155.47 162.14 154.20 157.42 L 154.91 156.55 Z" fill="#504d53" />
<path d="M 34.07 158.46 C 35.09 161.77 34.70 164.27 33.70 167.49 C 32.50 167.71 31.30 167.93 30.10 168.14 C 30.62 164.55 31.55 161.20 34.07 158.46 Z" fill="#6e757d" />
<path d="M 54.88 159.83 C 59.12 162.15 61.79 164.70 64.12 168.94 C 62.71 169.47 61.30 169.99 59.89 170.51 C 56.73 168.61 54.27 166.11 51.53 163.70 C 52.64 162.41 53.76 161.12 54.88 159.83 Z" fill="#6b6258" />
<path d="M 152.95 159.76 C 153.42 161.78 153.70 163.83 153.98 165.88 C 152.82 169.19 152.23 172.01 152.81 175.52 C 147.03 177.60 141.38 180.76 136.29 184.16 C 132.30 182.79 129.49 181.76 125.52 183.87 C 125.07 182.48 124.63 181.10 124.19 179.71 C 123.68 177.82 123.14 175.92 122.68 174.02 L 122.34 172.29 C 124.95 171.62 127.56 171.02 130.19 170.48 C 130.07 169.05 129.95 167.62 129.89 166.19 C 132.26 168.47 132.47 170.46 132.75 173.56 C 133.76 174.11 134.80 174.58 135.86 175.01 C 137.70 172.87 139.46 170.39 141.70 168.68 C 143.65 167.65 146.09 167.42 148.23 166.96 C 149.60 164.42 151.09 161.98 152.95 159.76 Z" fill="#948e7e" />
<path d="M 105.08 161.22 C 105.58 163.54 105.99 165.88 106.25 168.24 C 106.14 169.73 106.00 171.20 105.94 172.69 C 105.74 183.29 106.13 194.10 108.06 204.55 C 108.19 205.22 108.32 205.89 108.44 206.57 C 109.23 212.62 110.63 217.10 114.09 222.14 C 113.40 222.64 112.72 223.13 112.03 223.63 C 110.55 222.57 109.13 221.43 107.72 220.29 C 106.84 218.62 106.05 216.89 105.13 215.24 C 104.15 213.49 103.11 211.77 102.14 210.02 C 97.01 201.09 97.16 191.90 97.00 181.92 C 97.54 179.60 98.36 177.39 99.22 175.17 C 101.36 170.50 102.43 165.64 105.08 161.22 Z" fill="#1e223d" />
<path d="M 94.28 164.77 C 93.78 168.47 92.87 171.82 91.47 175.27 C 93.27 173.09 95.14 171.00 97.10 168.97 C 97.03 171.31 97.09 173.78 96.58 176.08 C 96.15 178.05 94.53 179.83 93.35 181.42 C 91.93 179.96 90.55 178.45 89.25 176.88 C 88.79 175.51 88.35 174.14 87.93 172.75 L 88.08 171.95 C 89.69 169.16 91.89 166.90 94.28 164.77 Z" fill="#b7453c" />
<path d="M 70.65 165.95 C 72.60 167.07 74.73 168.25 76.30 169.88 C 77.81 171.78 78.39 174.61 79.12 176.89 C 81.79 177.17 84.46 177.44 87.13 177.74 C 86.07 184.35 86.64 190.45 89.52 196.54 C 91.13 200.07 93.50 203.35 95.68 206.56 L 94.93 207.58 C 95.06 208.51 95.24 209.45 95.41 210.37 C 94.40 209.95 93.37 209.56 92.34 209.17 C 92.13 208.20 91.92 207.23 91.69 206.26 C 90.94 203.52 90.17 199.95 87.41 198.55 C 84.81 196.94 81.98 197.04 79.11 197.74 C 78.42 197.90 77.72 198.08 77.04 198.30 C 75.30 196.80 73.49 195.40 71.72 193.93 C 72.07 192.68 72.39 191.43 72.71 190.17 C 73.58 191.95 74.36 193.77 75.22 195.54 C 77.81 195.13 80.39 194.74 82.99 194.42 C 81.70 193.96 80.40 193.50 79.11 193.05 C 78.81 191.73 78.54 190.40 78.22 189.09 C 79.03 188.06 79.85 187.03 80.66 185.99 C 78.27 185.02 76.02 184.42 74.15 182.54 C 71.71 180.06 69.29 177.45 67.39 174.51 C 68.57 171.69 69.67 168.85 70.65 165.95 Z" fill="#938872" />
<path d="M 153.98 165.88 C 155.09 167.70 156.31 169.44 157.52 171.18 C 157.51 172.12 157.48 173.07 157.45 174.01 C 155.90 174.53 154.36 175.02 152.81 175.52 C 152.23 172.01 152.82 169.19 153.98 165.88 Z" fill="#b5ada8" />
<path d="M 117.65 167.86 C 119.13 168.72 120.57 169.63 122.01 170.55 L 122.19 171.46 L 122.34 172.29 L 122.68 174.02 C 121.26 175.09 119.85 176.17 118.39 177.19 C 117.34 174.10 117.42 171.06 117.65 167.86 Z" fill="#b65143" />
<path d="M 65.77 171.96 C 66.30 172.82 66.84 173.67 67.39 174.51 C 69.29 177.45 71.71 180.06 74.15 182.54 C 76.02 184.42 78.27 185.02 80.66 185.99 C 79.85 187.03 79.03 188.06 78.22 189.09 C 75.86 187.82 73.55 186.47 71.24 185.10 C 70.29 187.39 69.56 189.73 68.99 192.14 C 67.87 191.14 66.74 190.16 65.61 189.17 C 66.94 187.22 68.24 185.24 69.48 183.23 C 67.71 180.06 66.24 176.78 65.15 173.31 L 65.77 171.96 Z" fill="#655e60" />
<path d="M 53.98 173.09 C 57.10 174.07 59.78 175.08 61.57 178.00 C 60.10 177.74 58.46 177.63 57.09 177.01 C 55.86 175.91 54.90 174.45 53.98 173.09 Z" fill="#5b5e66" />
<path d="M 87.93 172.75 C 88.35 174.14 88.79 175.51 89.25 176.88 C 89.79 180.93 88.50 184.63 88.44 188.61 C 88.51 191.02 91.65 192.93 93.25 194.43 C 96.12 190.55 95.82 186.41 97.00 181.92 C 97.16 191.90 97.01 201.09 102.14 210.02 C 99.33 209.52 97.44 209.03 95.68 206.56 C 93.50 203.35 91.13 200.07 89.52 196.54 C 86.64 190.45 86.07 184.35 87.13 177.74 C 87.36 176.07 87.63 174.41 87.93 172.75 Z" fill="#c1665d" />
<path d="M 105.94 172.69 C 106.84 178.95 106.93 185.19 108.24 191.37 C 109.12 191.34 110.00 191.31 110.88 191.28 C 111.52 195.29 112.56 199.10 113.67 202.99 C 111.83 203.62 109.95 204.09 108.06 204.55 C 106.13 194.10 105.74 183.29 105.94 172.69 Z" fill="#d27167" />
<path d="M 122.68 174.02 C 123.14 175.92 123.68 177.82 124.19 179.71 C 124.31 181.73 124.37 183.75 124.45 185.78 C 124.34 190.16 123.49 193.63 120.65 196.99 C 119.69 190.55 118.52 184.20 117.14 177.83 C 117.56 177.63 117.98 177.42 118.39 177.19 C 119.85 176.17 121.26 175.09 122.68 174.02 Z" fill="#d67567" />
<path d="M 117.14 177.83 C 118.52 184.20 119.69 190.55 120.65 196.99 C 118.69 199.41 116.33 201.39 113.67 202.99 C 112.56 199.10 111.52 195.29 110.88 191.28 C 110.52 187.76 110.09 183.23 111.73 179.97 C 113.02 178.74 115.47 178.47 117.14 177.83 Z" fill="#f19b8c" />
<path d="M 124.19 179.71 C 124.63 181.10 125.07 182.48 125.52 183.87 C 126.31 186.35 127.25 188.77 128.60 191.01 L 130.17 189.78 C 130.30 191.01 130.48 192.29 130.42 193.53 C 129.38 195.27 127.80 196.72 126.47 198.23 C 125.86 194.07 125.03 189.94 124.45 185.78 C 124.37 183.75 124.31 181.73 124.19 179.71 Z" fill="#2c2d40" />
<path d="M 136.29 184.16 C 134.19 185.98 132.24 187.95 130.17 189.78 L 128.60 191.01 C 127.25 188.77 126.31 186.35 125.52 183.87 C 129.49 181.76 132.30 182.79 136.29 184.16 Z" fill="#807b76" />
<path d="M 171.34 184.23 C 172.41 184.65 173.45 185.11 174.50 185.55 C 172.50 187.52 170.47 189.47 168.45 191.43 C 166.27 191.50 164.08 191.60 161.90 191.67 C 162.84 189.56 163.85 187.50 164.92 185.45 C 165.17 187.03 165.40 188.62 165.65 190.20 C 167.66 188.32 169.44 186.22 171.34 184.23 Z" fill="#4c4d62" />
<path d="M 124.45 185.78 C 125.03 189.94 125.86 194.07 126.47 198.23 C 125.80 199.00 125.16 199.78 124.55 200.58 C 122.32 203.53 122.66 205.66 123.39 209.05 C 122.20 208.08 121.00 207.12 119.80 206.16 C 118.72 207.00 117.64 207.82 116.56 208.66 L 117.20 207.50 C 116.20 208.20 115.19 208.89 114.18 209.57 C 112.37 208.28 110.53 207.32 108.44 206.57 C 108.32 205.89 108.19 205.22 108.06 204.55 C 109.95 204.09 111.83 203.62 113.67 202.99 C 116.33 201.39 118.69 199.41 120.65 196.99 C 123.49 193.63 124.34 190.16 124.45 185.78 Z" fill="#a46362" />
<path d="M 153.32 193.10 C 150.85 196.33 148.90 199.48 147.11 203.13 C 146.20 205.18 143.94 205.74 142.09 206.74 C 141.03 206.42 139.96 206.11 138.89 205.82 C 143.32 201.04 147.65 196.45 153.32 193.10 Z" fill="#32364a" />
<path d="M 87.41 198.55 C 90.17 199.95 90.94 203.52 91.69 206.26 C 88.67 203.29 85.82 200.77 81.71 199.43 C 80.85 198.87 79.99 198.29 79.11 197.74 C 81.98 197.04 84.81 196.94 87.41 198.55 Z" fill="#2f3140" />
<path d="M 77.04 198.30 C 77.72 198.08 78.42 197.90 79.11 197.74 C 79.99 198.29 80.85 198.87 81.71 199.43 C 82.25 200.09 82.79 200.74 83.33 201.40 C 82.36 202.15 81.38 202.90 80.41 203.64 C 78.86 201.97 77.27 200.33 75.60 198.78 L 77.04 198.30 Z" fill="#5c5b66" />
<path d="M 73.91 199.35 L 75.60 198.78 C 77.27 200.33 78.86 201.97 80.41 203.64 L 79.12 204.61 C 76.92 203.30 75.29 201.48 73.91 199.35 Z" fill="#acadaf" />
<path d="M 91.69 206.26 C 91.92 207.23 92.13 208.20 92.34 209.17 C 90.33 208.38 88.38 207.50 86.43 206.57 C 86.82 205.73 87.21 204.89 87.60 204.05 C 86.15 203.20 84.71 202.36 83.33 201.40 C 82.79 200.74 82.25 200.09 81.71 199.43 C 85.82 200.77 88.67 203.29 91.69 206.26 Z" fill="#a3a1aa" />
<path d="M 124.55 200.58 C 124.50 206.38 125.39 212.74 119.91 216.45 C 118.87 213.82 117.78 211.21 116.56 208.66 C 117.64 207.82 118.72 207.00 119.80 206.16 C 121.00 207.12 122.20 208.08 123.39 209.05 C 122.66 205.66 122.32 203.53 124.55 200.58 Z" fill="#6f3e4d" />
<path d="M 159.61 200.90 C 161.28 203.70 162.96 206.49 164.85 209.16 C 164.69 209.56 164.54 209.96 164.38 210.35 C 161.21 211.55 158.88 212.79 157.08 215.82 C 158.34 216.48 159.61 217.11 160.90 217.72 C 160.15 218.76 159.32 219.75 158.46 220.70 C 156.18 220.77 153.93 220.79 151.68 220.30 C 153.12 220.02 154.56 219.76 156.00 219.51 C 155.83 217.17 155.67 214.83 155.37 212.50 C 153.22 212.53 151.09 212.60 148.95 212.76 C 151.06 212.01 152.73 210.96 154.45 209.55 C 153.13 209.34 151.81 209.16 150.48 208.99 C 150.11 208.08 149.75 207.16 149.41 206.24 C 150.87 206.26 152.77 206.65 154.10 205.97 C 156.17 204.65 157.88 202.63 159.61 200.90 Z" fill="#c0c2ba" />
<path d="M 151.42 202.36 C 152.56 201.19 154.40 202.45 153.58 203.91 C 152.43 205.09 150.60 203.83 151.42 202.36 Z" fill="#757589" />
<path d="M 114.18 209.57 C 115.19 208.89 116.20 208.20 117.20 207.50 L 116.56 208.66 C 115.65 210.38 114.66 212.06 113.78 213.80 C 114.31 214.74 114.84 215.67 115.37 216.60 C 116.09 218.88 116.71 221.18 117.23 223.50 C 115.50 223.57 113.77 223.57 112.03 223.63 C 112.72 223.13 113.40 222.64 114.09 222.14 C 110.63 217.10 109.23 212.62 108.44 206.57 C 110.53 207.32 112.37 208.28 114.18 209.57 Z" fill="#c89791" />
<path d="M 138.89 205.82 C 139.96 206.11 141.03 206.42 142.09 206.74 C 140.43 209.14 138.89 211.67 137.07 213.95 C 137.50 213.03 137.90 212.10 138.27 211.16 C 136.06 212.36 133.96 213.72 131.82 215.05 C 134.18 211.93 136.20 208.70 138.89 205.82 Z" fill="#57596d" />
<path d="M 94.93 207.58 L 95.68 206.56 C 97.44 209.03 99.33 209.52 102.14 210.02 C 103.11 211.77 104.15 213.49 105.13 215.24 C 104.49 215.33 103.84 215.43 103.20 215.55 C 100.67 213.74 98.13 211.88 95.41 210.37 C 95.24 209.45 95.06 208.51 94.93 207.58 Z" fill="#d3b6b8" />
<path d="M 147.29 208.21 C 147.81 208.74 147.81 208.74 147.29 208.21 Z" fill="#9897b7" />
<path d="M 161.32 208.14 C 162.96 206.96 163.65 209.44 161.90 209.88 C 160.96 209.68 160.76 209.11 161.32 208.14 Z" fill="#191a1c" />
<path d="M 116.56 208.66 C 117.78 211.21 118.87 213.82 119.91 216.45 L 119.13 216.71 C 117.88 216.69 116.62 216.66 115.37 216.60 C 114.84 215.67 114.31 214.74 113.78 213.80 C 114.66 212.06 115.65 210.38 116.56 208.66 Z" fill="#9d6d73" />
<path d="M 164.38 210.35 C 163.41 212.91 162.32 215.38 160.90 217.72 C 159.61 217.11 158.34 216.48 157.08 215.82 C 158.88 212.79 161.21 211.55 164.38 210.35 Z" fill="#2a2b36" />
<path d="M 89.91 211.10 C 94.38 211.14 96.95 213.29 99.94 216.28 C 96.53 214.67 93.21 212.92 89.91 211.10 Z" fill="#a7a4af" />
<path d="M 138.27 211.16 C 137.90 212.10 137.50 213.03 137.07 213.95 C 135.58 215.41 133.83 216.38 131.96 217.27 L 130.25 216.02 L 131.82 215.05 C 133.96 213.72 136.06 212.36 138.27 211.16 Z" fill="#c0c2d3" />
<path d="M 148.95 212.76 C 151.09 212.60 153.22 212.53 155.37 212.50 C 155.67 214.83 155.83 217.17 156.00 219.51 C 154.56 219.76 153.12 220.02 151.68 220.30 C 153.93 220.79 156.18 220.77 158.46 220.70 C 156.23 222.75 153.90 226.07 150.52 225.60 C 149.42 229.40 146.36 232.61 142.92 234.44 C 139.61 234.44 136.31 233.62 133.01 233.72 C 131.20 234.29 129.65 235.16 127.92 235.90 C 126.97 235.12 125.98 234.38 124.97 233.68 C 123.58 233.41 122.30 235.19 121.29 235.95 C 118.71 235.40 116.07 235.09 113.50 234.52 L 113.24 232.79 C 116.46 230.65 120.01 230.55 123.71 231.12 C 128.21 232.02 132.18 229.25 136.33 228.01 C 135.23 229.38 134.16 230.76 133.12 232.17 C 135.00 231.84 136.89 231.57 138.76 231.22 C 139.29 230.10 139.80 228.98 140.31 227.86 C 142.69 222.35 147.23 218.64 148.95 212.76 Z" fill="#21213a" />
<path d="M 103.20 215.55 C 103.84 215.43 104.49 215.33 105.13 215.24 C 106.05 216.89 106.84 218.62 107.72 220.29 C 105.17 218.87 102.52 217.64 99.94 216.28 C 101.02 216.02 102.11 215.78 103.20 215.55 Z" fill="#7d747f" />
<path d="M 115.37 216.60 C 116.62 216.66 117.88 216.69 119.13 216.71 C 120.28 217.33 121.38 218.01 122.49 218.70 C 121.00 220.31 119.48 221.90 117.90 223.42 L 117.23 223.50 C 116.71 221.18 116.09 218.88 115.37 216.60 Z" fill="#6b3e48" />
<path d="M 130.25 216.02 L 131.96 217.27 L 133.43 218.32 C 128.47 220.48 123.20 222.32 117.90 223.42 C 119.48 221.90 121.00 220.31 122.49 218.70 C 123.08 219.06 123.67 219.42 124.27 219.78 C 126.09 218.14 127.91 216.82 130.25 216.02 Z" fill="#343049" />
<path d="M 113.14 217.30 C 114.68 216.33 115.64 218.77 113.83 219.08 C 112.87 218.77 112.64 218.18 113.14 217.30 Z" fill="#6d4a4f" />
<path d="M 110.40 226.08 L 111.13 225.69 L 111.84 226.11 L 111.83 226.93 L 111.10 227.33 L 110.38 226.90 L 110.40 226.08 Z" fill="#848580" />
<path d="M 136.33 228.01 C 137.65 227.88 138.97 227.83 140.31 227.86 C 139.80 228.98 139.29 230.10 138.76 231.22 C 136.89 231.57 135.00 231.84 133.12 232.17 C 134.16 230.76 135.23 229.38 136.33 228.01 Z" fill="#7b7c7f" />
<path d="M 124.97 233.68 C 125.98 234.38 126.97 235.12 127.92 235.90 C 125.63 236.96 123.64 236.42 121.29 235.95 C 122.30 235.19 123.58 233.41 124.97 233.68 Z" fill="#bf5f5e" />
</svg>