<?xml version="1.0" encoding="UTF-8" standalone="no"?>
<!DOCTYPE svg PUBLIC "-//W3C//DTD SVG 1.1//EN" "http://www.w3.org/Graphics/SVG/1.1/DTD/svg11.dtd">
<svg xmlns="http://www.w3.org/2000/svg" version="1.1" viewBox="0 0 256 256" width="256.0pt" height="256.0pt">
<path d="M 0.00 0.00 L 256.00 0.00 L 256.00 256.00 L 0.00 256.00 L 0.00 0.00 Z" fill="#fefdfd" />
<path d="M 207.67 23.57 C 211.51 23.62 209.79 26.65 210.80 29.12 C 211.03 29.74 211.72 29.72 212.88 29.05 C 212.57 30.62 212.54 31.89 212.89 33.45 C 212.04 35.77 211.21 38.05 210.90 40.51 C 204.39 47.65 198.91 56.86 195.92 66.00 C 192.64 72.33 192.12 78.84 186.96 84.15 C 184.79 83.55 182.52 84.64 180.25 84.36 C 177.75 83.99 176.52 85.38 174.86 86.93 C 173.10 88.17 171.23 89.25 169.48 90.49 C 170.17 95.77 166.11 98.88 167.20 104.24 L 167.18 105.82 C 163.71 108.11 160.50 109.89 158.86 114.02 C 158.74 114.58 158.76 115.17 158.91 115.80 C 158.31 116.52 157.73 117.25 157.15 117.98 C 154.84 118.03 152.52 118.09 150.22 118.31 C 148.56 118.20 146.91 118.07 145.26 117.88 C 149.75 112.16 153.40 106.21 155.85 99.32 C 156.88 94.57 162.69 92.02 160.52 88.30 C 163.49 84.54 167.23 81.24 170.86 78.12 C 180.85 66.98 194.01 55.97 201.50 43.12 C 202.40 40.62 207.17 34.37 204.85 32.28 C 202.90 32.66 201.32 37.65 199.49 39.17 C 199.00 38.46 198.50 37.76 198.01 37.05 C 197.80 35.44 198.27 33.42 197.09 32.20 C 196.46 31.34 195.70 30.56 194.80 29.87 C 192.99 28.67 192.60 27.41 191.03 29.76 C 188.54 32.23 186.47 33.31 183.06 34.10 L 181.66 33.27 C 182.03 32.18 189.10 27.81 185.58 27.74 C 183.12 29.22 181.86 27.25 179.79 26.13 C 177.64 29.36 177.09 30.78 177.85 34.65 C 176.23 34.25 174.63 33.74 173.01 33.33 C 174.54 36.60 176.23 39.32 175.54 43.10 C 174.17 42.40 173.20 41.32 172.09 40.28 C 172.26 42.28 172.34 44.28 172.52 46.27 C 174.84 47.15 177.61 47.74 179.72 49.08 C 178.67 52.09 177.21 54.71 177.06 58.00 C 180.05 55.06 181.60 51.69 185.89 50.31 L 187.00 50.99 C 181.67 58.65 177.32 66.86 171.59 74.19 C 171.48 69.42 175.16 68.57 169.16 66.04 C 164.65 57.80 157.44 66.84 151.78 61.31 C 150.03 53.60 154.19 48.55 159.16 43.31 C 161.69 41.50 165.36 40.15 159.68 40.03 L 161.28 39.01 C 164.54 37.59 163.19 34.88 164.79 32.02 C 162.47 33.65 160.70 35.66 157.97 36.67 C 153.66 34.94 151.74 42.24 150.04 45.01 C 147.78 52.38 140.34 60.41 144.93 68.02 C 146.13 72.44 146.52 74.94 151.19 76.72 C 152.34 77.36 157.22 76.35 155.37 78.57 C 154.14 79.78 153.52 85.60 156.08 83.03 C 157.94 78.38 160.41 87.38 158.15 88.14 C 156.45 91.25 151.74 87.47 151.21 91.06 C 152.98 92.05 153.28 93.13 153.90 94.97 L 153.62 95.91 C 152.17 99.85 152.08 103.52 148.47 106.27 C 147.99 105.26 147.46 103.40 146.09 104.66 C 145.47 105.13 144.85 105.61 144.24 106.10 C 144.46 103.26 144.65 100.67 143.16 98.10 C 141.78 95.53 140.09 93.19 137.82 91.33 C 135.83 92.34 134.51 94.29 132.14 93.92 C 130.97 88.48 136.36 83.12 137.77 77.87 C 134.60 79.44 132.39 83.36 129.93 85.92 C 128.36 88.06 127.91 90.57 128.07 93.18 C 128.42 96.89 131.23 100.08 131.82 103.86 C 129.50 106.04 127.28 112.41 132.39 112.36 C 135.16 111.62 131.94 114.83 131.82 115.87 C 130.01 116.58 129.35 116.97 128.68 118.87 L 128.19 120.14 C 127.88 120.99 127.81 121.91 128.00 122.91 C 126.16 125.93 125.30 126.03 129.06 127.66 C 131.40 128.69 133.74 128.42 136.01 127.38 C 138.64 126.55 141.21 125.52 143.81 124.60 C 144.64 125.03 145.47 125.45 146.29 125.89 C 143.93 130.57 141.70 134.63 142.59 140.10 C 143.19 143.06 139.49 140.82 141.02 144.08 C 138.79 145.17 137.50 145.40 136.97 148.11 C 136.07 150.53 135.23 152.91 134.98 155.49 C 130.93 161.91 125.52 167.96 119.24 172.25 C 117.97 173.07 116.31 173.58 115.80 171.69 C 114.99 168.64 112.21 170.34 110.37 171.34 C 108.52 172.77 105.45 169.74 105.21 172.92 C 102.96 172.37 101.94 170.75 100.48 169.13 C 101.57 167.07 106.24 167.49 105.74 165.35 C 102.49 164.53 99.22 163.83 96.00 162.94 C 95.98 161.98 95.96 161.02 95.94 160.06 C 95.93 158.42 95.92 156.77 95.92 155.13 C 95.82 151.89 97.30 149.59 98.71 146.85 C 95.71 147.65 95.02 151.44 93.53 153.85 C 91.84 155.69 90.70 157.77 89.60 159.99 C 87.20 159.13 84.95 157.96 82.72 156.74 C 88.83 154.20 93.01 150.09 97.03 144.97 C 99.26 144.12 101.74 144.11 103.91 143.18 C 105.71 140.95 107.51 138.99 107.96 136.05 C 105.92 137.02 104.06 138.32 102.06 139.38 C 101.60 136.99 101.06 134.62 100.51 132.25 C 96.69 133.30 99.67 137.36 96.09 139.94 C 94.51 141.41 92.85 142.60 91.01 143.71 C 89.27 144.40 87.53 145.11 85.81 145.85 C 82.15 146.62 87.81 141.78 86.84 140.13 C 87.05 135.30 78.78 129.76 82.35 125.74 C 83.35 124.58 84.13 123.28 84.89 121.96 C 85.62 123.33 86.25 124.73 86.93 126.13 C 86.61 127.79 86.58 129.01 88.04 130.13 L 88.04 131.08 C 88.46 132.74 86.69 140.20 89.82 138.83 C 90.18 135.21 89.96 131.48 89.96 127.84 C 90.16 124.59 89.88 123.37 87.79 120.89 C 89.57 118.47 89.90 119.69 92.06 120.71 C 92.16 123.91 91.80 130.08 94.93 132.01 C 94.72 130.03 94.19 128.13 93.73 126.20 C 93.87 124.17 94.07 122.14 94.33 120.12 C 94.77 118.70 95.24 117.28 95.68 115.86 C 96.18 121.03 98.70 119.29 97.90 115.05 C 99.05 116.71 98.91 117.68 101.23 117.43 C 100.77 121.16 99.04 126.94 101.74 130.06 C 102.02 126.34 101.98 122.63 102.45 118.93 C 102.91 121.20 103.08 123.49 103.22 125.80 C 102.91 126.92 102.74 137.72 104.78 131.18 C 107.55 123.47 106.10 117.40 112.16 110.92 C 112.84 110.26 113.53 109.60 114.22 108.94 C 121.21 108.19 115.42 103.20 114.47 99.46 C 113.24 97.05 111.63 94.89 109.74 92.96 C 108.98 92.17 108.18 91.48 107.36 90.75 C 103.09 84.88 103.79 78.82 98.26 73.75 C 97.92 73.25 97.56 72.75 97.20 72.27 C 94.11 68.17 90.15 64.86 87.00 60.77 C 86.50 60.10 85.93 59.51 85.30 59.00 C 80.34 55.72 75.78 50.87 70.25 48.72 C 67.47 47.64 64.64 48.01 61.73 48.19 C 59.95 48.09 58.86 49.13 57.42 49.98 C 55.07 47.81 54.34 50.05 54.24 52.24 C 52.64 53.48 50.86 54.64 49.46 56.11 C 51.33 59.46 50.11 60.01 48.70 63.20 C 50.38 67.37 45.45 69.04 48.09 72.14 L 46.75 73.38 L 46.39 72.73 C 45.76 71.31 45.77 68.79 43.74 70.74 C 41.25 74.52 39.53 79.17 37.06 83.10 C 35.39 84.14 35.58 85.41 36.19 87.05 C 34.36 90.81 31.12 93.60 29.36 97.32 C 28.73 100.75 28.69 107.26 29.40 110.66 C 31.90 116.41 36.30 121.17 39.09 126.85 C 40.51 130.11 39.56 124.54 39.79 123.68 C 42.25 124.68 46.08 126.79 44.09 129.93 C 43.28 131.68 43.15 133.07 43.29 134.99 C 38.14 134.95 35.00 134.38 30.29 137.31 C 26.02 132.83 29.87 132.84 32.01 128.90 C 32.32 123.93 25.13 126.80 22.74 127.77 C 17.41 131.97 24.63 139.51 29.90 138.06 C 32.29 137.98 34.62 137.56 36.99 137.30 C 35.87 140.02 34.62 142.82 31.92 144.29 C 28.48 145.79 29.87 150.49 27.05 152.18 C 26.09 151.38 23.64 145.64 22.39 147.36 C 19.72 151.81 24.85 159.20 27.89 162.43 C 28.14 165.69 29.40 172.61 26.99 175.06 C 22.47 178.17 23.56 171.49 23.78 169.14 C 17.07 167.71 23.90 178.33 25.85 180.22 C 25.28 189.98 22.69 199.96 23.13 209.75 C 24.75 209.86 27.39 207.32 27.41 210.14 C 27.16 212.04 26.99 213.96 26.97 215.88 C 26.91 218.26 26.97 220.65 27.20 223.02 C 31.29 221.21 25.25 216.02 30.94 217.08 C 32.94 217.16 30.20 224.13 31.18 226.08 C 32.08 224.74 32.73 223.37 33.23 221.85 C 34.14 227.16 35.14 228.21 39.46 231.21 C 39.43 233.05 40.80 234.11 38.01 234.00 C 25.84 235.12 18.01 221.09 15.97 211.03 C 16.30 184.78 15.53 157.76 16.03 132.98 C 18.93 120.81 21.12 110.23 23.80 97.97 C 23.53 90.91 28.48 84.87 31.37 78.35 C 38.97 64.35 44.19 48.63 60.60 42.53 C 61.33 46.44 63.39 42.39 65.94 43.16 C 70.01 43.81 74.58 43.96 78.34 45.65 C 92.49 53.42 101.02 64.90 110.88 77.15 C 113.90 80.15 116.53 84.61 121.40 82.44 C 129.48 80.89 132.52 72.26 135.60 65.64 C 138.18 53.79 141.74 43.27 151.34 35.26 C 157.38 29.14 166.30 25.44 174.16 22.20 C 185.28 19.51 196.75 20.97 207.67 23.57 Z" fill="#f1f0ef" />
<path d="M 213.45 25.17 C 213.69 26.39 213.07 27.83 212.88 29.05 C 211.72 29.72 211.03 29.74 210.80 29.12 C 211.34 28.22 212.04 24.69 213.45 25.17 Z" fill="#9c9ca1" />
<path d="M 179.79 26.13 C 181.86 27.25 183.12 29.22 185.58 27.74 C 189.10 27.81 182.03 32.18 181.66 33.27 C 181.67 32.11 181.30 29.30 179.55 30.55 C 178.30 32.16 180.50 32.81 181.66 33.27 L 183.06 34.10 C 184.01 34.67 184.99 35.20 185.98 35.72 C 185.01 37.21 182.26 38.61 183.58 40.54 C 186.21 44.72 179.83 48.00 185.89 50.31 C 181.60 51.69 180.05 55.06 177.06 58.00 C 177.21 54.71 178.67 52.09 179.72 49.08 C 177.61 47.74 174.84 47.15 172.52 46.27 C 172.34 44.28 172.26 42.28 172.09 40.28 C 173.20 41.32 174.17 42.40 175.54 43.10 C 176.23 39.32 174.54 36.60 173.01 33.33 C 174.63 33.74 176.23 34.25 177.85 34.65 C 177.09 30.78 177.64 29.36 179.79 26.13 Z" fill="#a3a2b2" />
<path d="M 218.43 29.89 C 225.61 29.01 224.81 33.21 228.04 37.95 C 229.31 50.51 229.00 63.75 232.31 75.84 C 232.39 83.88 236.15 90.98 236.19 98.97 C 236.81 104.38 239.82 108.38 239.50 113.87 C 239.49 118.79 240.85 122.85 242.59 127.35 C 244.29 142.60 242.08 157.21 239.10 172.11 C 235.59 178.25 233.78 185.13 230.17 191.19 C 226.92 197.34 224.59 203.62 229.23 209.79 C 232.68 215.99 241.51 222.39 235.81 230.04 C 234.60 227.13 232.36 218.60 228.15 223.69 C 222.74 215.73 213.76 214.14 208.55 206.11 C 209.30 201.47 214.73 202.66 216.25 198.24 C 217.21 196.47 218.05 194.65 218.89 192.82 C 223.08 190.29 224.93 184.23 226.95 179.99 C 229.20 173.76 232.82 169.24 233.11 163.01 C 233.30 156.09 236.38 150.16 236.03 143.12 C 235.79 139.31 236.74 134.90 234.86 131.55 C 234.30 122.73 231.61 116.20 228.77 108.04 C 229.36 106.14 229.76 104.56 228.05 103.13 C 227.90 98.12 226.41 93.63 225.24 88.81 C 225.11 86.72 225.04 84.63 225.06 82.54 C 226.51 79.67 225.23 80.04 223.09 78.74 C 223.01 77.93 222.93 77.13 222.86 76.32 C 224.56 73.41 221.82 69.92 220.81 67.08 C 219.63 62.73 222.18 57.77 221.73 53.25 L 221.67 52.44 C 221.33 48.61 221.61 44.66 220.91 40.88 C 220.75 40.30 220.52 39.75 220.20 39.21 C 219.66 38.23 218.87 37.40 217.82 36.71 L 218.05 35.44 C 218.99 34.07 218.63 33.24 217.90 31.88 C 216.79 29.91 217.43 29.01 214.81 29.92 C 212.36 24.93 222.78 26.52 218.43 29.89 Z" fill="#f1f1f0" />
<path d="M 194.80 29.87 C 194.26 30.91 193.95 32.01 193.88 33.16 C 192.57 33.64 191.25 34.09 189.91 34.47 C 190.90 32.75 191.67 31.82 191.03 29.76 C 192.60 27.41 192.99 28.67 194.80 29.87 Z" fill="#9d9da9" />
<path d="M 217.90 31.88 C 216.42 33.12 216.71 34.23 218.05 35.44 L 217.82 36.71 C 217.36 37.46 217.08 38.23 216.97 39.04 C 216.70 43.67 214.05 46.98 216.71 51.09 C 218.40 53.30 218.95 53.81 221.73 53.25 C 222.18 57.77 219.63 62.73 220.81 67.08 C 220.95 70.44 221.30 73.29 222.86 76.32 C 222.93 77.13 223.01 77.93 223.09 78.74 C 223.34 80.76 222.97 81.59 225.06 82.54 C 225.04 84.63 225.11 86.72 225.24 88.81 C 224.12 94.03 224.23 99.03 228.05 103.13 C 227.59 105.00 227.53 106.46 228.77 108.04 C 231.61 116.20 234.30 122.73 234.86 131.55 C 235.09 135.21 233.26 140.35 236.03 143.12 C 236.38 150.16 233.30 156.09 233.11 163.01 C 232.82 169.24 229.20 173.76 226.95 179.99 C 224.93 184.23 223.08 190.29 218.89 192.82 C 215.34 194.23 216.23 194.76 216.25 198.24 C 214.73 202.66 209.30 201.47 208.55 206.11 C 205.84 203.59 203.31 200.90 200.58 198.40 C 198.04 196.20 198.70 191.82 196.12 189.95 C 195.55 194.07 197.20 197.37 198.95 200.94 C 200.02 204.01 200.74 206.92 202.97 209.41 C 203.41 209.99 203.86 210.56 204.30 211.13 C 203.67 211.82 203.03 212.50 202.37 213.17 C 198.59 208.14 196.68 202.43 194.52 196.61 C 193.67 192.38 191.43 188.64 195.07 185.10 C 198.42 181.65 192.13 180.09 195.07 185.10 C 192.02 185.66 190.67 183.35 187.84 185.64 C 186.80 186.22 185.80 186.88 184.90 187.68 C 182.09 190.02 179.93 192.88 177.97 195.95 C 174.85 194.63 172.11 193.35 168.63 193.71 C 169.41 189.38 165.95 192.34 163.36 192.02 C 164.02 190.43 164.85 189.03 164.95 187.26 C 160.18 188.28 156.79 185.29 152.01 186.45 C 151.24 181.71 157.00 187.18 158.98 183.41 C 156.57 182.45 154.05 184.00 156.02 180.47 C 167.83 184.39 182.41 183.72 193.85 178.79 C 201.63 176.14 204.01 169.54 210.41 165.38 C 211.42 164.19 211.89 162.47 212.46 161.02 C 212.95 160.33 213.45 159.64 213.95 158.96 C 221.31 160.11 229.99 153.14 228.58 145.35 C 227.35 141.31 231.58 144.04 231.06 140.03 C 230.75 134.40 223.77 129.06 220.25 124.87 C 219.97 124.20 219.69 123.54 219.42 122.87 C 218.86 121.27 218.26 119.69 217.64 118.12 L 218.20 116.14 C 220.10 118.82 221.29 123.87 224.71 124.77 C 226.84 121.19 227.67 118.03 226.52 113.91 C 222.40 101.61 221.21 93.01 221.80 80.09 C 215.64 79.11 218.87 88.44 212.97 90.06 C 209.03 87.43 207.26 82.44 209.51 78.14 C 208.83 77.63 208.14 77.15 207.43 76.70 C 206.82 75.72 206.22 74.73 205.63 73.73 C 206.07 73.08 206.52 72.43 206.98 71.79 C 211.41 72.93 210.62 69.49 207.01 69.05 L 206.68 67.29 C 207.98 64.08 207.96 63.64 206.11 60.78 C 206.08 59.51 206.07 58.25 206.08 56.98 C 206.78 56.06 207.46 55.13 208.15 54.20 C 211.16 51.83 213.86 45.43 211.94 41.91 L 210.90 40.51 C 211.21 38.05 212.04 35.77 212.89 33.45 C 213.56 32.29 214.21 31.12 214.81 29.92 C 217.43 29.01 216.79 29.91 217.90 31.88 Z" fill="#25253e" />
<path d="M 181.66 33.27 C 180.50 32.81 178.30 32.16 179.55 30.55 C 181.30 29.30 181.67 32.11 181.66 33.27 Z" fill="#f4f3f1" />
<path d="M 191.03 29.76 C 191.67 31.82 190.90 32.75 189.91 34.47 C 188.58 34.84 187.28 35.25 185.98 35.72 C 184.99 35.20 184.01 34.67 183.06 34.10 C 186.47 33.31 188.54 32.23 191.03 29.76 Z" fill="#575564" />
<path d="M 194.80 29.87 C 195.70 30.56 196.46 31.34 197.09 32.20 C 196.04 32.80 194.97 33.12 193.88 33.16 C 193.95 32.01 194.26 30.91 194.80 29.87 Z" fill="#393947" />
<path d="M 164.79 32.02 C 163.19 34.88 164.54 37.59 161.28 39.01 C 160.62 37.06 159.72 37.21 157.97 36.67 C 160.70 35.66 162.47 33.65 164.79 32.02 Z" fill="#b5a1b7" />
<path d="M 197.09 32.20 C 198.27 33.42 197.80 35.44 198.01 37.05 C 196.57 35.81 195.11 34.62 193.88 33.16 C 194.97 33.12 196.04 32.80 197.09 32.20 Z" fill="#91919f" />
<path d="M 204.85 32.28 C 207.17 34.37 202.40 40.62 201.50 43.12 C 200.89 41.77 200.23 40.45 199.49 39.17 C 201.32 37.65 202.90 32.66 204.85 32.28 Z" fill="#bab8bb" />
<path d="M 217.90 31.88 C 218.63 33.24 218.99 34.07 218.05 35.44 C 216.71 34.23 216.42 33.12 217.90 31.88 Z" fill="#858495" />
<path d="M 193.88 33.16 C 195.11 34.62 196.57 35.81 198.01 37.05 C 198.50 37.76 199.00 38.46 199.49 39.17 C 200.23 40.45 200.89 41.77 201.50 43.12 C 194.01 55.97 180.85 66.98 170.86 78.12 C 167.58 78.31 171.18 75.58 171.59 74.19 C 177.32 66.86 181.67 58.65 187.00 50.99 L 185.89 50.31 C 179.83 48.00 186.21 44.72 183.58 40.54 C 182.26 38.61 185.01 37.21 185.98 35.72 C 187.28 35.25 188.58 34.84 189.91 34.47 C 191.25 34.09 192.57 33.64 193.88 33.16 Z" fill="#272740" />
<path d="M 157.97 36.67 C 159.72 37.21 160.62 37.06 161.28 39.01 L 159.68 40.03 C 157.17 41.39 153.05 44.56 159.16 43.31 C 154.19 48.55 150.03 53.60 151.78 61.31 C 157.44 66.84 164.65 57.80 169.16 66.04 C 167.25 68.97 163.09 70.01 165.50 73.85 C 164.17 75.72 163.77 76.47 162.86 78.87 C 158.52 74.52 152.79 73.75 147.92 70.24 C 148.76 72.53 149.94 74.64 151.19 76.72 C 146.52 74.94 146.13 72.44 144.93 68.02 C 140.34 60.41 147.78 52.38 150.04 45.01 C 151.74 42.24 153.66 34.94 157.97 36.67 Z" fill="#835e8a" />
<path d="M 217.82 36.71 C 218.87 37.40 219.66 38.23 220.20 39.21 C 218.83 40.07 218.26 40.01 216.97 39.04 C 217.08 38.23 217.36 37.46 217.82 36.71 Z" fill="#acadbc" />
<path d="M 216.97 39.04 C 218.26 40.01 218.83 40.07 220.20 39.21 C 220.52 39.75 220.75 40.30 220.91 40.88 C 220.24 41.61 219.58 42.36 218.95 43.12 C 217.46 45.36 217.16 48.50 216.71 51.09 C 214.05 46.98 216.70 43.67 216.97 39.04 Z" fill="#545463" />
<path d="M 159.68 40.03 C 165.36 40.15 161.69 41.50 159.16 43.31 C 153.05 44.56 157.17 41.39 159.68 40.03 Z" fill="#c5afc5" />
<path d="M 210.90 40.51 L 211.94 41.91 C 211.74 47.35 206.99 48.83 208.15 54.20 C 207.46 55.13 206.78 56.06 206.08 56.98 C 205.11 56.04 204.14 55.08 203.11 54.20 C 200.46 57.85 199.46 63.23 195.92 66.00 C 198.91 56.86 204.39 47.65 210.90 40.51 Z" fill="#bebdb5" />
<path d="M 220.91 40.88 C 221.61 44.66 221.33 48.61 221.67 52.44 C 219.15 50.25 219.12 46.21 218.95 43.12 C 219.58 42.36 220.24 41.61 220.91 40.88 Z" fill="#c9cabf" />
<path d="M 211.94 41.91 C 213.86 45.43 211.16 51.83 208.15 54.20 C 206.99 48.83 211.74 47.35 211.94 41.91 Z" fill="#696970" />
<path d="M 218.95 43.12 C 219.12 46.21 219.15 50.25 221.67 52.44 L 221.73 53.25 C 218.95 53.81 218.40 53.30 216.71 51.09 C 217.16 48.50 217.46 45.36 218.95 43.12 Z" fill="#858589" />
<path d="M 194.22 47.06 C 190.28 51.42 199.57 47.30 194.22 47.06 Z" fill="#9091a4" />
<path d="M 61.73 48.19 C 64.57 49.25 67.30 48.98 70.25 48.72 C 75.78 50.87 80.34 55.72 85.30 59.00 C 79.20 59.00 83.57 62.11 87.00 60.77 C 90.15 64.86 94.11 68.17 97.20 72.27 C 89.78 69.02 96.61 78.48 98.88 79.94 C 100.57 77.98 98.68 75.89 98.26 73.75 C 103.79 78.82 103.09 84.88 107.36 90.75 L 106.10 92.06 C 104.72 90.29 103.37 88.50 101.95 86.76 C 96.29 78.84 87.26 74.01 81.68 66.39 C 74.23 68.00 67.80 63.11 60.10 63.93 L 60.27 63.11 C 61.21 61.59 60.24 56.54 58.00 58.79 C 56.43 59.83 54.80 60.78 53.29 61.90 C 54.72 64.22 50.86 68.42 51.51 64.35 C 52.49 61.14 50.51 63.19 48.70 63.20 C 50.11 60.01 51.33 59.46 49.46 56.11 C 50.86 54.64 52.64 53.48 54.24 52.24 C 55.83 51.81 56.50 51.36 57.42 49.98 C 58.86 49.13 59.95 48.09 61.73 48.19 Z" fill="#282840" />
<path d="M 61.73 48.19 C 64.64 48.01 67.47 47.64 70.25 48.72 C 67.30 48.98 64.57 49.25 61.73 48.19 Z" fill="#838397" />
<path d="M 57.42 49.98 C 56.50 51.36 55.83 51.81 54.24 52.24 C 54.34 50.05 55.07 47.81 57.42 49.98 Z" fill="#a8a8b4" />
<path d="M 203.11 54.20 C 204.14 55.08 205.11 56.04 206.08 56.98 C 204.77 58.51 202.99 58.76 203.93 61.09 C 206.54 72.19 199.91 78.68 197.63 88.66 C 196.37 88.21 195.14 87.62 193.92 87.05 C 193.29 86.72 192.64 86.39 191.99 86.08 C 191.51 85.57 191.05 85.04 190.60 84.51 C 190.83 79.28 197.82 71.58 195.92 66.00 C 199.46 63.23 200.46 57.85 203.11 54.20 Z" fill="#f0eeeb" />
<path d="M 206.08 56.98 C 206.07 58.25 206.08 59.51 206.11 60.78 C 206.06 62.99 206.12 65.14 206.68 67.29 L 207.01 69.05 C 206.97 69.96 206.96 70.87 206.98 71.79 C 206.52 72.43 206.07 73.08 205.63 73.73 C 202.90 76.74 204.27 80.42 204.28 84.14 L 204.24 84.93 C 203.29 92.18 207.48 100.09 212.11 105.44 C 213.60 108.98 215.35 112.39 216.71 115.99 C 217.02 116.70 217.33 117.41 217.64 118.12 C 218.26 119.69 218.86 121.27 219.42 122.87 C 218.75 127.43 217.31 122.10 215.89 121.03 C 213.17 118.35 208.79 121.91 206.15 123.20 C 208.86 130.17 214.39 128.71 218.89 133.03 C 218.78 134.07 218.66 135.11 218.54 136.15 C 214.13 132.90 203.67 127.34 201.77 135.85 C 197.67 140.47 196.84 144.86 199.15 150.68 C 197.42 153.14 194.78 155.20 193.37 157.79 C 194.39 159.64 194.06 160.24 193.53 162.17 C 197.01 160.39 197.42 159.30 197.96 155.61 C 199.47 156.13 200.56 156.22 202.17 156.00 C 205.43 158.72 208.36 159.97 212.46 161.02 C 211.89 162.47 211.42 164.19 210.41 165.38 C 204.01 169.54 201.63 176.14 193.85 178.79 C 182.41 183.72 167.83 184.39 156.02 180.47 C 151.19 178.78 146.59 179.07 141.81 180.76 C 139.78 181.52 139.33 180.24 137.93 179.14 C 135.92 176.74 135.38 179.06 133.70 180.28 C 131.13 179.47 128.74 178.98 126.02 179.09 C 123.95 178.77 122.04 178.73 119.96 179.06 C 118.59 179.19 117.30 179.23 116.07 179.93 C 115.41 180.25 114.74 180.57 114.08 180.90 C 106.32 181.96 101.43 168.39 93.85 176.01 C 97.14 178.42 101.72 180.23 102.37 184.78 C 102.16 186.22 101.91 187.64 101.63 189.06 C 100.59 183.39 89.24 181.90 86.73 186.98 C 85.32 188.35 83.96 188.35 84.61 190.66 C 85.26 195.19 84.92 198.99 88.63 202.35 C 93.40 209.06 98.36 213.73 104.61 218.98 C 106.10 221.26 111.45 224.06 110.18 227.08 C 102.83 224.27 97.49 218.95 91.10 214.95 C 94.41 218.94 97.87 224.23 102.81 226.10 C 105.79 227.32 108.70 227.83 111.05 230.23 C 105.33 229.67 99.24 226.65 94.17 230.22 C 94.74 229.51 95.27 228.76 95.76 227.99 C 93.16 222.43 90.28 217.05 87.33 211.67 C 85.86 209.52 86.85 205.57 83.35 206.24 C 83.87 204.91 85.39 204.46 83.37 203.67 C 79.35 202.03 79.63 198.16 76.71 195.23 C 73.55 194.56 74.34 195.64 73.65 198.12 L 72.96 197.70 C 72.00 195.41 74.03 192.88 72.83 191.11 C 70.38 192.14 70.55 193.88 70.15 196.12 L 69.75 197.72 C 66.05 194.96 62.19 191.76 60.93 187.12 C 60.21 185.33 59.73 180.66 57.08 181.09 C 56.79 183.15 57.98 184.36 58.96 185.99 C 60.02 189.98 61.11 193.96 62.23 197.94 C 59.80 197.66 60.12 195.88 59.29 194.08 C 57.14 186.32 53.60 179.75 54.22 171.42 C 57.73 165.00 53.92 155.06 54.67 147.76 C 55.15 145.07 55.93 142.48 56.64 139.85 C 56.51 144.26 62.08 143.71 65.16 144.64 C 63.66 141.72 58.93 141.86 56.80 138.97 L 57.04 136.96 C 61.49 137.63 64.92 141.46 69.12 143.15 C 67.97 143.74 66.83 144.35 65.73 145.03 C 70.13 147.42 74.98 149.02 79.83 150.17 C 78.25 158.99 89.27 148.37 81.81 149.74 C 84.45 149.10 86.89 148.81 89.00 146.93 C 90.02 147.07 90.92 147.33 91.92 146.89 C 93.64 146.28 95.30 145.54 97.03 144.97 C 93.01 150.09 88.83 154.20 82.72 156.74 C 76.71 159.79 80.22 162.20 83.44 165.54 C 85.77 164.17 88.15 162.30 89.60 159.99 C 90.70 157.77 91.84 155.69 93.53 153.85 C 94.29 155.94 93.99 155.52 95.92 155.13 C 95.92 156.77 95.93 158.42 95.94 160.06 C 92.98 155.95 94.45 160.39 93.89 162.69 C 92.19 163.57 90.49 163.88 89.77 165.87 C 87.70 169.24 88.55 169.01 90.99 171.55 C 88.84 173.50 90.97 174.91 93.08 174.08 C 96.52 173.81 95.49 167.61 92.06 167.11 C 95.45 166.88 94.44 166.70 94.65 163.86 C 97.71 165.36 96.43 168.74 100.48 169.13 C 101.94 170.75 102.96 172.37 105.21 172.92 C 105.45 169.74 108.52 172.77 110.37 171.34 C 112.21 170.34 114.99 168.64 115.80 171.69 C 116.31 173.58 117.97 173.07 119.24 172.25 C 125.52 167.96 130.93 161.91 134.98 155.49 C 135.30 163.18 137.09 171.21 145.58 173.52 C 152.11 177.32 157.10 174.07 164.04 173.05 C 174.10 168.78 172.85 159.41 171.01 150.42 C 173.19 147.48 175.71 144.90 178.17 142.20 C 179.59 140.06 180.05 133.66 175.72 136.72 C 173.14 140.45 173.50 145.49 169.86 149.22 C 168.99 141.72 155.83 149.05 152.70 142.07 C 155.67 136.71 151.72 139.57 150.04 141.94 C 149.42 141.40 148.81 140.85 148.20 140.31 C 149.36 136.72 143.50 140.12 143.75 142.81 C 142.84 143.24 141.93 143.66 141.02 144.08 C 139.49 140.82 143.19 143.06 142.59 140.10 C 141.70 134.63 143.93 130.57 146.29 125.89 C 148.73 123.74 152.49 126.56 155.96 125.08 C 154.73 127.88 151.72 128.99 150.90 131.85 C 155.36 130.64 157.86 126.07 160.13 122.39 C 156.01 124.46 157.54 122.93 155.97 119.60 C 156.36 119.06 156.76 118.52 157.15 117.98 C 159.29 118.52 163.09 116.77 158.91 115.80 C 158.76 115.17 158.74 114.58 158.86 114.02 C 160.49 114.22 162.12 114.30 163.75 114.41 C 168.25 118.35 167.80 113.33 170.18 110.63 C 170.93 111.42 171.66 112.24 172.37 113.07 C 170.65 115.60 169.14 117.97 168.35 120.97 C 166.43 119.43 165.10 123.45 166.85 124.13 C 169.49 125.65 169.50 124.95 169.86 122.41 C 172.49 120.10 175.36 119.08 176.31 115.34 C 177.87 116.77 179.75 117.19 181.69 117.85 C 185.20 120.46 190.72 120.71 193.26 116.56 C 198.96 118.46 201.07 110.88 200.03 106.73 C 199.79 103.11 200.55 98.86 199.55 95.41 C 197.42 92.70 195.14 90.37 193.92 87.05 C 195.14 87.62 196.37 88.21 197.63 88.66 C 199.91 78.68 206.54 72.19 203.93 61.09 C 202.99 58.76 204.77 58.51 206.08 56.98 Z" fill="#c3bdb3" />
<path d="M 60.27 63.11 C 58.66 63.52 56.50 66.39 57.15 62.86 C 59.14 61.19 58.95 61.19 58.00 58.79 C 60.24 56.54 61.21 61.59 60.27 63.11 Z" fill="#c9cad8" />
<path d="M 58.00 58.79 C 58.95 61.19 59.14 61.19 57.15 62.86 C 55.87 62.49 54.59 62.18 53.29 61.90 C 54.80 60.78 56.43 59.83 58.00 58.79 Z" fill="#5e5f6f" />
<path d="M 85.30 59.00 C 85.93 59.51 86.50 60.10 87.00 60.77 C 83.57 62.11 79.20 59.00 85.30 59.00 Z" fill="#89899c" />
<path d="M 206.11 60.78 C 207.96 63.64 207.98 64.08 206.68 67.29 C 206.12 65.14 206.06 62.99 206.11 60.78 Z" fill="#6b6c75" />
<path d="M 51.51 64.35 C 50.86 68.42 54.72 64.22 53.29 61.90 C 54.59 62.18 55.87 62.49 57.15 62.86 C 55.16 64.69 53.60 66.84 51.98 68.99 C 50.26 69.75 49.58 70.37 48.96 72.18 L 48.09 72.14 C 45.45 69.04 50.38 67.37 48.70 63.20 C 50.51 63.19 52.49 61.14 51.51 64.35 Z" fill="#b2b3bd" />
<path d="M 57.15 62.86 C 56.50 66.39 58.66 63.52 60.27 63.11 L 60.10 63.93 C 59.06 65.26 58.01 66.57 56.98 67.91 C 55.31 68.24 53.64 68.60 51.98 68.99 C 53.60 66.84 55.16 64.69 57.15 62.86 Z" fill="#55575f" />
<path d="M 60.10 63.93 C 67.80 63.11 74.23 68.00 81.68 66.39 C 87.26 74.01 96.29 78.84 101.95 86.76 C 97.81 92.11 98.29 91.70 102.88 96.17 C 102.26 101.18 103.35 103.98 106.96 107.50 C 105.11 110.56 103.63 113.73 102.02 116.93 L 101.23 117.43 C 98.91 117.68 99.05 116.71 97.90 115.05 C 97.99 112.69 98.37 110.45 98.98 108.17 C 103.35 108.12 101.65 106.13 101.85 102.94 C 100.50 104.13 99.79 105.65 99.04 107.25 C 98.76 105.19 98.51 103.15 97.84 101.16 C 95.19 102.71 96.87 109.06 96.16 111.85 C 96.01 113.19 95.85 114.53 95.68 115.86 C 95.24 117.28 94.77 118.70 94.33 120.12 C 93.39 114.81 92.90 117.82 92.78 121.12 L 92.06 120.71 C 89.90 119.69 89.57 118.47 87.79 120.89 C 84.61 119.02 82.59 117.42 80.89 114.05 C 73.72 104.94 65.73 97.27 55.89 91.05 C 53.16 90.38 52.89 95.55 50.75 96.69 C 47.18 98.62 44.13 100.59 41.77 103.99 C 40.96 105.10 40.30 106.39 39.70 107.63 C 38.61 109.75 37.58 111.60 38.16 114.09 C 39.37 117.26 39.72 120.23 42.62 122.39 C 44.64 124.68 48.77 126.13 46.99 129.72 L 46.02 131.18 C 45.37 130.76 44.73 130.35 44.09 129.93 C 46.08 126.79 42.25 124.68 39.79 123.68 C 31.21 116.21 33.23 101.19 36.61 91.63 C 38.69 84.44 43.01 79.19 46.39 72.73 L 46.75 73.38 C 47.05 73.98 47.40 74.56 47.80 75.12 C 47.54 75.99 47.30 76.87 47.08 77.75 C 50.55 75.29 58.00 73.33 56.98 67.91 C 58.01 66.57 59.06 65.26 60.10 63.93 Z" fill="#c4beb5" />
<path d="M 87.10 66.02 C 89.35 66.42 90.62 67.03 92.02 68.87 C 90.27 68.25 86.63 68.70 87.10 66.02 Z" fill="#a09fb1" />
<path d="M 169.16 66.04 C 175.16 68.57 171.48 69.42 171.59 74.19 C 171.18 75.58 167.58 78.31 170.86 78.12 C 167.23 81.24 163.49 84.54 160.52 88.30 C 162.69 92.02 156.88 94.57 155.85 99.32 C 155.30 98.83 154.77 98.31 154.26 97.78 C 156.58 97.07 157.15 92.98 153.90 94.97 C 153.28 93.13 152.98 92.05 151.21 91.06 C 151.74 87.47 156.45 91.25 158.15 88.14 C 160.41 87.38 157.94 78.38 156.08 83.03 C 153.52 85.60 154.14 79.78 155.37 78.57 C 157.22 76.35 152.34 77.36 151.19 76.72 C 149.94 74.64 148.76 72.53 147.92 70.24 C 152.79 73.75 158.52 74.52 162.86 78.87 C 163.77 76.47 164.17 75.72 165.50 73.85 C 163.09 70.01 167.25 68.97 169.16 66.04 Z" fill="#a690a8" />
<path d="M 195.92 66.00 C 197.82 71.58 190.83 79.28 190.60 84.51 C 191.05 85.04 191.51 85.57 191.99 86.08 C 190.10 85.73 188.57 85.22 186.96 84.15 C 192.12 78.84 192.64 72.33 195.92 66.00 Z" fill="#ccc3b7" />
<path d="M 220.81 67.08 C 221.82 69.92 224.56 73.41 222.86 76.32 C 221.30 73.29 220.95 70.44 220.81 67.08 Z" fill="#a8a8b4" />
<path d="M 56.98 67.91 C 58.00 73.33 50.55 75.29 47.08 77.75 C 47.30 76.87 47.54 75.99 47.80 75.12 C 48.65 74.18 49.03 73.20 48.96 72.18 C 51.30 71.97 51.98 71.37 51.98 68.99 C 53.64 68.60 55.31 68.24 56.98 67.91 Z" fill="#eae9e6" />
<path d="M 51.98 68.99 C 51.98 71.37 51.30 71.97 48.96 72.18 C 49.58 70.37 50.26 69.75 51.98 68.99 Z" fill="#6a6a73" />
<path d="M 207.01 69.05 C 210.62 69.49 211.41 72.93 206.98 71.79 C 206.96 70.87 206.97 69.96 207.01 69.05 Z" fill="#606170" />
<path d="M 46.39 72.73 C 43.01 79.19 38.69 84.44 36.61 91.63 C 33.23 101.19 31.21 116.21 39.79 123.68 C 39.56 124.54 40.51 130.11 39.09 126.85 C 36.30 121.17 31.90 116.41 29.40 110.66 C 28.69 107.26 28.73 100.75 29.36 97.32 C 31.12 93.60 34.36 90.81 36.19 87.05 C 37.41 85.77 37.42 84.77 37.06 83.10 C 39.53 79.17 41.25 74.52 43.74 70.74 C 45.77 68.79 45.76 71.31 46.39 72.73 Z" fill="#292941" />
<path d="M 97.20 72.27 C 97.56 72.75 97.92 73.25 98.26 73.75 C 98.68 75.89 100.57 77.98 98.88 79.94 C 96.61 78.48 89.78 69.02 97.20 72.27 Z" fill="#98969e" />
<path d="M 48.09 72.14 L 48.96 72.18 C 49.03 73.20 48.65 74.18 47.80 75.12 C 47.40 74.56 47.05 73.98 46.75 73.38 L 48.09 72.14 Z" fill="#5c5b56" />
<path d="M 205.63 73.73 C 206.22 74.73 206.82 75.72 207.43 76.70 C 203.94 77.43 205.26 81.42 204.28 84.14 C 204.27 80.42 202.90 76.74 205.63 73.73 Z" fill="#85848b" />
<path d="M 207.43 76.70 C 208.14 77.15 208.83 77.63 209.51 78.14 C 207.26 82.44 209.03 87.43 212.97 90.06 C 218.87 88.44 215.64 79.11 221.80 80.09 C 221.21 93.01 222.40 101.61 226.52 113.91 C 225.58 116.56 223.45 113.99 223.52 117.00 C 221.60 124.20 218.90 108.84 216.71 115.99 C 215.35 112.39 213.60 108.98 212.11 105.44 C 212.21 96.78 206.34 92.49 204.24 84.93 L 204.28 84.14 C 205.26 81.42 203.94 77.43 207.43 76.70 Z" fill="#575868" />
<path d="M 137.77 77.87 C 136.36 83.12 130.97 88.48 132.14 93.92 C 134.51 94.29 135.83 92.34 137.82 91.33 C 140.09 93.19 141.78 95.53 143.16 98.10 C 143.33 101.41 140.57 102.06 140.51 105.60 C 137.29 106.37 132.55 109.04 131.82 103.86 C 131.23 100.08 128.42 96.89 128.07 93.18 C 130.05 90.35 131.48 89.55 129.93 85.92 C 132.39 83.36 134.60 79.44 137.77 77.87 Z" fill="#84618a" />
<path d="M 223.09 78.74 C 225.23 80.04 226.51 79.67 225.06 82.54 C 222.97 81.59 223.34 80.76 223.09 78.74 Z" fill="#828291" />
<path d="M 37.06 83.10 C 37.42 84.77 37.41 85.77 36.19 87.05 C 35.58 85.41 35.39 84.14 37.06 83.10 Z" fill="#9a9fae" />
<path d="M 186.96 84.15 C 188.57 85.22 190.10 85.73 191.99 86.08 C 192.64 86.39 193.29 86.72 193.92 87.05 C 195.14 90.37 197.42 92.70 199.55 95.41 C 200.55 98.86 199.79 103.11 200.03 106.73 C 198.74 108.99 198.18 112.28 195.48 113.16 C 196.51 105.87 197.50 103.68 192.11 98.07 C 189.42 93.84 187.35 94.93 183.13 95.92 C 179.46 95.93 180.43 98.78 178.59 101.08 C 176.15 101.86 173.47 102.78 174.22 105.99 L 174.29 106.76 C 174.34 108.13 175.05 115.37 172.37 113.07 C 171.66 112.24 170.93 111.42 170.18 110.63 C 170.71 109.62 171.40 108.89 171.20 107.67 C 170.15 101.10 173.82 97.37 177.96 93.02 C 170.49 93.66 170.72 99.31 167.20 104.24 C 166.11 98.88 170.17 95.77 169.48 90.49 C 171.23 89.25 173.10 88.17 174.86 86.93 C 177.99 86.80 178.78 87.42 180.25 84.36 C 182.52 84.64 184.79 83.55 186.96 84.15 Z" fill="#d5883e" />
<path d="M 180.25 84.36 C 178.78 87.42 177.99 86.80 174.86 86.93 C 176.52 85.38 177.75 83.99 180.25 84.36 Z" fill="#edc7a0" />
<path d="M 204.24 84.93 C 206.34 92.49 212.21 96.78 212.11 105.44 C 207.48 100.09 203.29 92.18 204.24 84.93 Z" fill="#8e8d8d" />
<path d="M 129.93 85.92 C 131.48 89.55 130.05 90.35 128.07 93.18 C 127.91 90.57 128.36 88.06 129.93 85.92 Z" fill="#b7a3bb" />
<path d="M 101.95 86.76 C 103.37 88.50 104.72 90.29 106.10 92.06 C 106.91 93.13 107.77 94.15 108.65 95.17 C 112.87 98.47 109.39 104.15 106.96 107.50 C 103.35 103.98 102.26 101.18 102.88 96.17 C 98.29 91.70 97.81 92.11 101.95 86.76 Z" fill="#e3e3e1" />
<path d="M 225.24 88.81 C 226.41 93.63 227.90 98.12 228.05 103.13 C 224.23 99.03 224.12 94.03 225.24 88.81 Z" fill="#6b6b7b" />
<path d="M 55.89 91.05 C 65.73 97.27 73.72 104.94 80.89 114.05 C 82.59 117.42 84.61 119.02 87.79 120.89 C 89.88 123.37 90.16 124.59 89.96 127.84 C 89.32 128.92 88.68 130.00 88.04 131.08 L 88.04 130.13 C 88.41 128.42 88.49 127.22 86.93 126.13 C 86.25 124.73 85.62 123.33 84.89 121.96 C 83.47 119.25 80.84 117.48 78.30 115.92 C 76.70 114.90 75.05 113.99 73.39 113.07 C 71.60 111.66 69.60 108.52 67.07 109.08 C 67.58 112.14 68.38 114.16 71.91 114.05 C 67.29 115.79 65.79 119.23 62.77 122.72 C 61.67 123.44 60.58 124.18 59.49 124.92 L 58.76 124.63 C 56.96 123.47 53.76 126.70 56.87 127.85 L 55.07 128.54 C 54.44 126.46 54.46 124.63 53.22 122.85 C 52.05 120.95 49.41 119.94 47.60 118.78 C 45.66 117.13 44.13 115.46 42.95 113.18 L 42.92 111.28 L 44.77 111.24 C 44.63 116.09 51.09 116.49 52.38 112.40 C 53.25 108.72 47.70 104.91 45.69 109.82 C 44.23 109.00 41.10 109.21 42.81 106.78 C 43.86 104.33 44.54 104.76 41.77 103.99 C 44.13 100.59 47.18 98.62 50.75 96.69 C 52.89 95.55 53.16 90.38 55.89 91.05 Z" fill="#272439" />
<path d="M 107.36 90.75 C 108.18 91.48 108.98 92.17 109.74 92.96 C 109.37 93.69 109.01 94.43 108.65 95.17 C 107.77 94.15 106.91 93.13 106.10 92.06 L 107.36 90.75 Z" fill="#848490" />
<path d="M 109.74 92.96 C 111.63 94.89 113.24 97.05 114.47 99.46 C 115.42 103.20 121.21 108.19 114.22 108.94 C 113.03 105.43 110.31 108.36 112.16 110.92 C 106.10 117.40 107.55 123.47 104.78 131.18 C 104.24 129.39 103.72 127.59 103.22 125.80 C 103.08 123.49 102.91 121.20 102.45 118.93 C 102.32 118.26 102.18 117.59 102.02 116.93 C 103.63 113.73 105.11 110.56 106.96 107.50 C 109.39 104.15 112.87 98.47 108.65 95.17 C 109.01 94.43 109.37 93.69 109.74 92.96 Z" fill="#28273e" />
<path d="M 177.96 93.02 C 173.82 97.37 170.15 101.10 171.20 107.67 L 170.43 107.81 C 169.36 107.12 168.28 106.45 167.18 105.82 L 167.20 104.24 C 170.72 99.31 170.49 93.66 177.96 93.02 Z" fill="#eaba87" />
<path d="M 154.26 97.78 L 153.62 95.91 L 153.90 94.97 C 157.15 92.98 156.58 97.07 154.26 97.78 Z" fill="#533f5b" />
<path d="M 192.11 98.07 C 191.87 99.11 191.61 100.15 191.35 101.19 C 190.75 100.65 184.44 95.83 186.75 99.38 C 189.83 103.76 180.59 109.91 178.88 103.26 C 180.60 100.98 182.03 98.56 183.13 95.92 C 187.35 94.93 189.42 93.84 192.11 98.07 Z" fill="#f4e9d9" />
<path d="M 153.62 95.91 L 154.26 97.78 C 154.77 98.31 155.30 98.83 155.85 99.32 C 153.40 106.21 149.75 112.16 145.26 117.88 C 146.91 118.07 148.56 118.20 150.22 118.31 C 147.52 119.02 144.85 119.29 142.09 118.81 C 141.16 114.14 148.22 113.47 147.86 108.99 C 148.06 108.08 148.26 107.18 148.47 106.27 C 152.08 103.52 152.17 99.85 153.62 95.91 Z" fill="#c6c4c4" />
<path d="M 183.13 95.92 C 182.03 98.56 180.60 100.98 178.88 103.26 C 177.33 104.18 175.77 105.08 174.22 105.99 C 173.47 102.78 176.15 101.86 178.59 101.08 C 180.43 98.78 179.46 95.93 183.13 95.92 Z" fill="#7b4f2e" />
<path d="M 143.16 98.10 C 144.65 100.67 144.46 103.26 144.24 106.10 C 142.88 109.17 140.97 111.82 139.95 115.04 C 136.12 112.61 135.54 114.92 131.82 115.87 C 131.94 114.83 135.16 111.62 132.39 112.36 C 127.28 112.41 129.50 106.04 131.82 103.86 C 132.55 109.04 137.29 106.37 140.51 105.60 C 140.57 102.06 143.33 101.41 143.16 98.10 Z" fill="#b19bb5" />
<path d="M 191.35 101.19 C 191.88 103.68 192.38 106.20 191.77 108.73 C 188.49 112.12 185.22 110.67 181.17 110.15 C 178.70 108.48 177.64 105.89 174.29 106.76 L 174.22 105.99 C 175.77 105.08 177.33 104.18 178.88 103.26 C 180.59 109.91 189.83 103.76 186.75 99.38 C 184.44 95.83 190.75 100.65 191.35 101.19 Z" fill="#d2a16f" />
<path d="M 192.11 98.07 C 197.50 103.68 196.51 105.87 195.48 113.16 C 198.18 112.28 198.74 108.99 200.03 106.73 C 201.07 110.88 198.96 118.46 193.26 116.56 C 189.40 114.10 184.35 113.25 181.69 117.85 C 179.75 117.19 177.87 116.77 176.31 115.34 C 177.48 113.35 179.61 111.86 181.17 110.15 C 185.22 110.67 188.49 112.12 191.77 108.73 C 192.38 106.20 191.88 103.68 191.35 101.19 C 191.61 100.15 191.87 99.11 192.11 98.07 Z" fill="#cbb79c" />
<path d="M 97.84 101.16 C 98.51 103.15 98.76 105.19 99.04 107.25 L 98.98 108.17 C 98.37 110.45 97.99 112.69 97.90 115.05 C 97.33 113.98 96.73 112.92 96.16 111.85 C 96.87 109.06 95.19 102.71 97.84 101.16 Z" fill="#3c3b43" />
<path d="M 101.85 102.94 C 101.65 106.13 103.35 108.12 98.98 108.17 L 99.04 107.25 C 99.79 105.65 100.50 104.13 101.85 102.94 Z" fill="#8d8d84" />
<path d="M 228.05 103.13 C 229.76 104.56 229.36 106.14 228.77 108.04 C 227.53 106.46 227.59 105.00 228.05 103.13 Z" fill="#6a6a7c" />
<path d="M 41.77 103.99 C 44.54 104.76 43.86 104.33 42.81 106.78 C 41.10 109.21 44.23 109.00 45.69 109.82 L 44.77 111.24 L 42.92 111.28 C 41.83 110.08 40.76 108.85 39.70 107.63 C 40.30 106.39 40.96 105.10 41.77 103.99 Z" fill="#888276" />
<path d="M 148.47 106.27 C 148.26 107.18 148.06 108.08 147.86 108.99 C 146.27 107.82 146.45 106.41 146.09 104.66 C 147.46 103.40 147.99 105.26 148.47 106.27 Z" fill="#605e70" />
<path d="M 146.09 104.66 C 146.45 106.41 146.27 107.82 147.86 108.99 C 148.22 113.47 141.16 114.14 142.09 118.81 C 144.85 119.29 147.52 119.02 150.22 118.31 C 152.52 118.09 154.84 118.03 157.15 117.98 C 156.76 118.52 156.36 119.06 155.97 119.60 C 151.83 120.97 147.83 122.89 143.81 124.60 C 141.21 125.52 138.64 126.55 136.01 127.38 C 133.50 126.67 131.45 126.37 129.06 127.66 C 125.30 126.03 126.16 125.93 128.00 122.91 C 132.19 123.82 131.72 120.64 128.19 120.14 L 128.68 118.87 C 131.64 121.04 139.61 119.09 139.95 115.04 C 140.97 111.82 142.88 109.17 144.24 106.10 C 144.85 105.61 145.47 105.13 146.09 104.66 Z" fill="#24223d" />
<path d="M 167.18 105.82 C 168.28 106.45 169.36 107.12 170.43 107.81 C 168.50 110.50 166.80 112.88 163.75 114.41 C 162.12 114.30 160.49 114.22 158.86 114.02 C 160.50 109.89 163.71 108.11 167.18 105.82 Z" fill="#dddbcf" />
<path d="M 181.17 110.15 C 179.61 111.86 177.48 113.35 176.31 115.34 C 175.36 119.08 172.49 120.10 169.86 122.41 C 169.50 124.95 169.49 125.65 166.85 124.13 C 167.53 123.13 168.03 122.07 168.35 120.97 C 169.14 117.97 170.65 115.60 172.37 113.07 C 175.05 115.37 174.34 108.13 174.29 106.76 C 177.64 105.89 178.70 108.48 181.17 110.15 Z" fill="#ede5da" />
<path d="M 52.38 112.40 C 51.09 116.49 44.63 116.09 44.77 111.24 L 45.69 109.82 C 47.70 104.91 53.25 108.72 52.38 112.40 Z" fill="#dfbd4c" />
<path d="M 57.29 107.21 C 61.98 105.61 66.46 111.64 61.53 114.53 C 56.06 116.77 52.73 111.22 57.29 107.21 Z" fill="#deb64b" />
<path d="M 114.22 108.94 C 113.53 109.60 112.84 110.26 112.16 110.92 C 110.31 108.36 113.03 105.43 114.22 108.94 Z" fill="#6d6c7f" />
<path d="M 39.70 107.63 C 40.76 108.85 41.83 110.08 42.92 111.28 L 42.95 113.18 C 41.36 113.56 39.77 113.85 38.16 114.09 C 37.58 111.60 38.61 109.75 39.70 107.63 Z" fill="#cdb668" />
<path d="M 170.43 107.81 L 171.20 107.67 C 171.40 108.89 170.71 109.62 170.18 110.63 C 167.80 113.33 168.25 118.35 163.75 114.41 C 166.80 112.88 168.50 110.50 170.43 107.81 Z" fill="#5c564c" />
<path d="M 67.07 109.08 C 69.60 108.52 71.60 111.66 73.39 113.07 L 71.91 114.05 C 68.38 114.16 67.58 112.14 67.07 109.08 Z" fill="#bda661" />
<path d="M 92.29 111.22 C 91.20 117.23 97.49 110.96 92.29 111.22 Z" fill="#64605f" />
<path d="M 96.16 111.85 C 96.73 112.92 97.33 113.98 97.90 115.05 C 98.70 119.29 96.18 121.03 95.68 115.86 C 95.85 114.53 96.01 113.19 96.16 111.85 Z" fill="#77787c" />
<path d="M 42.95 113.18 C 44.13 115.46 45.66 117.13 47.60 118.78 C 48.15 121.04 50.91 127.30 53.22 122.85 C 54.46 124.63 54.44 126.46 55.07 128.54 C 53.11 129.49 51.09 129.40 49.01 129.75 L 47.44 131.09 L 46.99 129.72 C 48.77 126.13 44.64 124.68 42.62 122.39 C 39.72 120.23 39.37 117.26 38.16 114.09 C 39.77 113.85 41.36 113.56 42.95 113.18 Z" fill="#7c6483" />
<path d="M 73.39 113.07 C 75.05 113.99 76.70 114.90 78.30 115.92 C 78.21 125.18 69.06 123.26 64.66 130.13 C 62.66 129.22 60.75 128.20 58.87 127.08 C 58.83 126.26 58.79 125.45 58.76 124.63 L 59.49 124.92 C 63.08 126.22 62.93 127.02 62.77 122.72 C 65.79 119.23 67.29 115.79 71.91 114.05 L 73.39 113.07 Z" fill="#7b5782" />
<path d="M 139.95 115.04 C 139.61 119.09 131.64 121.04 128.68 118.87 C 129.35 116.97 130.01 116.58 131.82 115.87 C 135.54 114.92 136.12 112.61 139.95 115.04 Z" fill="#675578" />
<path d="M 193.26 116.56 C 190.72 120.71 185.20 120.46 181.69 117.85 C 184.35 113.25 189.40 114.10 193.26 116.56 Z" fill="#cd9860" />
<path d="M 223.52 117.00 C 223.45 113.99 225.58 116.56 226.52 113.91 C 227.67 118.03 226.84 121.19 224.71 124.77 C 221.29 123.87 220.10 118.82 218.20 116.14 L 217.64 118.12 C 217.33 117.41 217.02 116.70 216.71 115.99 C 218.90 108.84 221.60 124.20 223.52 117.00 Z" fill="#3e3e56" />
<path d="M 78.30 115.92 C 80.84 117.48 83.47 119.25 84.89 121.96 C 84.13 123.28 83.35 124.58 82.35 125.74 C 80.65 125.80 79.57 126.78 78.20 127.65 C 73.88 127.00 70.62 128.55 67.18 131.00 C 66.16 131.94 65.61 130.57 64.66 130.13 C 69.06 123.26 78.21 125.18 78.30 115.92 Z" fill="#c2bdb9" />
<path d="M 158.91 115.80 C 163.09 116.77 159.29 118.52 157.15 117.98 C 157.73 117.25 158.31 116.52 158.91 115.80 Z" fill="#73726f" />
<path d="M 94.33 120.12 C 94.07 122.14 93.87 124.17 93.73 126.20 C 93.30 124.53 93.02 122.83 92.78 121.12 C 92.90 117.82 93.39 114.81 94.33 120.12 Z" fill="#373842" />
<path d="M 101.23 117.43 L 102.02 116.93 C 102.18 117.59 102.32 118.26 102.45 118.93 C 101.98 122.63 102.02 126.34 101.74 130.06 C 99.04 126.94 100.77 121.16 101.23 117.43 Z" fill="#909098" />
<path d="M 47.60 118.78 C 49.41 119.94 52.05 120.95 53.22 122.85 C 50.91 127.30 48.15 121.04 47.60 118.78 Z" fill="#d2bdd3" />
<path d="M 128.19 120.14 C 131.72 120.64 132.19 123.82 128.00 122.91 C 127.81 121.91 127.88 120.99 128.19 120.14 Z" fill="#8a8aa7" />
<path d="M 155.97 119.60 C 157.54 122.93 156.01 124.46 160.13 122.39 C 157.86 126.07 155.36 130.64 150.90 131.85 C 151.72 128.99 154.73 127.88 155.96 125.08 C 152.49 126.56 148.73 123.74 146.29 125.89 C 145.47 125.45 144.64 125.03 143.81 124.60 C 147.83 122.89 151.83 120.97 155.97 119.60 Z" fill="#d6d4cf" />
<path d="M 168.35 120.97 C 168.03 122.07 167.53 123.13 166.85 124.13 C 165.10 123.45 166.43 119.43 168.35 120.97 Z" fill="#6c696e" />
<path d="M 215.89 121.03 C 217.31 122.10 218.75 127.43 219.42 122.87 C 219.69 123.54 219.97 124.20 220.25 124.87 C 219.81 127.59 219.23 130.29 218.89 133.03 C 214.39 128.71 208.86 130.17 206.15 123.20 C 208.79 121.91 213.17 118.35 215.89 121.03 Z" fill="#d39e65" />
<path d="M 92.06 120.71 L 92.78 121.12 C 93.02 122.83 93.30 124.53 93.73 126.20 C 94.19 128.13 94.72 130.03 94.93 132.01 C 91.80 130.08 92.16 123.91 92.06 120.71 Z" fill="#828290" />
<path d="M 62.77 122.72 C 62.93 127.02 63.08 126.22 59.49 124.92 C 60.58 124.18 61.67 123.44 62.77 122.72 Z" fill="#b895b8" />
<path d="M 58.76 124.63 C 58.79 125.45 58.83 126.26 58.87 127.08 C 58.21 127.34 57.54 127.60 56.87 127.85 C 53.76 126.70 56.96 123.47 58.76 124.63 Z" fill="#b8b9c6" />
<path d="M 182.26 124.43 C 185.26 124.04 182.37 128.83 181.88 129.99 C 179.95 127.30 176.66 125.24 182.26 124.43 Z" fill="#54535a" />
<path d="M 82.35 125.74 C 78.78 129.76 87.05 135.30 86.84 140.13 C 87.81 141.78 82.15 146.62 85.81 145.85 C 86.88 146.19 87.94 146.56 89.00 146.93 C 86.89 148.81 84.45 149.10 81.81 149.74 L 79.83 150.17 C 74.98 149.02 70.13 147.42 65.73 145.03 C 66.83 144.35 67.97 143.74 69.12 143.15 L 69.85 142.91 C 74.02 148.38 74.09 140.64 74.90 137.81 C 79.88 136.22 77.91 141.69 82.19 138.22 C 84.73 136.43 81.09 136.12 79.88 135.17 C 79.89 133.94 81.23 132.94 81.81 131.91 C 79.33 132.08 78.30 132.90 76.79 134.78 C 76.03 135.71 75.48 136.76 74.90 137.81 C 73.89 138.52 72.85 139.19 71.81 139.86 C 74.15 135.87 76.38 131.91 78.20 127.65 C 79.57 126.78 80.65 125.80 82.35 125.74 Z" fill="#2c2c41" />
<path d="M 220.25 124.87 C 223.77 129.06 230.75 134.40 231.06 140.03 C 231.58 144.04 227.35 141.31 228.58 145.35 C 229.99 153.14 221.31 160.11 213.95 158.96 C 214.51 156.91 215.08 154.87 215.83 152.88 C 217.96 152.90 220.70 150.61 220.76 154.01 C 222.35 153.37 226.02 150.33 222.11 150.29 C 221.87 145.34 224.75 141.54 221.34 136.96 C 220.99 139.25 221.23 141.95 220.21 144.06 C 220.21 141.22 219.50 138.76 218.54 136.15 C 218.66 135.11 218.78 134.07 218.89 133.03 C 219.23 130.29 219.81 127.59 220.25 124.87 Z" fill="#a96e3b" />
<path d="M 32.01 128.90 C 29.87 132.84 26.02 132.83 30.29 137.31 L 29.90 138.06 C 24.63 139.51 17.41 131.97 22.74 127.77 C 25.13 126.80 32.32 123.93 32.01 128.90 Z" fill="#9e9db6" />
<path d="M 86.93 126.13 C 88.49 127.22 88.41 128.42 88.04 130.13 C 86.58 129.01 86.61 127.79 86.93 126.13 Z" fill="#8c8c99" />
<path d="M 103.22 125.80 C 103.72 127.59 104.24 129.39 104.78 131.18 C 102.74 137.72 102.91 126.92 103.22 125.80 Z" fill="#a5a4a9" />
<path d="M 164.03 126.08 C 163.50 127.44 162.83 128.71 162.06 129.94 L 160.54 131.12 C 159.88 128.35 162.13 127.44 164.03 126.08 Z" fill="#5b5856" />
<path d="M 58.87 127.08 C 60.75 128.20 62.66 129.22 64.66 130.13 C 65.61 130.57 66.16 131.94 67.18 131.00 C 70.62 128.55 73.88 127.00 78.20 127.65 C 76.38 131.91 74.15 135.87 71.81 139.86 C 71.15 140.88 70.51 141.90 69.85 142.91 L 69.12 143.15 C 64.92 141.46 61.49 137.63 57.04 136.96 C 56.26 136.62 55.48 136.28 54.70 135.92 C 52.75 133.90 51.05 131.69 49.01 129.75 C 51.09 129.40 53.11 129.49 55.07 128.54 L 56.87 127.85 C 57.54 127.60 58.21 127.34 58.87 127.08 Z" fill="#f0efed" />
<path d="M 136.01 127.38 C 133.74 128.42 131.40 128.69 129.06 127.66 C 131.45 126.37 133.50 126.67 136.01 127.38 Z" fill="#7c7b8f" />
<path d="M 178.43 128.58 C 183.32 132.77 173.02 136.48 170.08 137.57 C 169.21 136.81 168.39 136.01 167.61 135.18 C 168.27 131.83 167.77 131.26 171.27 130.30 C 174.01 130.59 177.15 125.18 178.43 128.58 Z" fill="#2c2942" />
<path d="M 89.96 127.84 C 89.96 131.48 90.18 135.21 89.82 138.83 C 86.69 140.20 88.46 132.74 88.04 131.08 C 88.68 130.00 89.32 128.92 89.96 127.84 Z" fill="#9694a0" />
<path d="M 171.27 130.30 C 167.77 131.26 168.27 131.83 167.61 135.18 C 166.45 135.84 165.25 136.43 164.03 136.98 C 163.70 135.69 163.34 134.41 163.04 133.11 L 163.79 131.94 C 167.90 135.55 168.10 124.65 171.27 130.30 Z" fill="#969497" />
<path d="M 44.09 129.93 C 44.73 130.35 45.37 130.76 46.02 131.18 C 45.08 135.48 45.63 140.26 43.92 144.30 C 43.72 142.70 43.46 141.12 43.14 139.54 C 43.27 138.02 43.41 136.51 43.29 134.99 C 43.15 133.07 43.28 131.68 44.09 129.93 Z" fill="#666471" />
<path d="M 46.99 129.72 L 47.44 131.09 C 48.09 133.99 48.99 135.77 50.88 138.03 C 50.71 140.42 50.79 142.63 51.29 144.98 C 51.08 145.90 50.87 146.83 50.67 147.76 C 49.73 151.46 50.01 154.93 49.88 158.72 C 47.11 159.38 48.27 162.89 47.96 165.00 C 48.25 170.05 47.25 175.73 48.89 180.54 C 50.55 185.79 51.06 190.38 51.24 195.86 C 53.24 200.65 55.08 206.45 58.77 210.19 C 61.31 213.95 64.86 212.88 67.12 216.93 C 69.03 218.78 69.57 219.01 72.13 218.11 C 75.53 220.42 77.35 226.92 81.75 226.80 C 86.35 227.48 89.63 234.17 94.17 230.22 C 99.24 226.65 105.33 229.67 111.05 230.23 C 115.54 232.44 122.05 232.02 126.73 230.66 C 129.91 234.91 133.21 231.80 137.33 230.97 C 138.22 230.87 139.12 230.77 140.01 230.65 C 121.74 220.49 101.17 208.69 87.36 192.66 C 86.49 191.94 85.57 191.28 84.61 190.66 C 83.96 188.35 85.32 188.35 86.73 186.98 C 91.17 191.95 96.11 196.47 100.73 201.27 C 104.56 204.94 108.13 208.48 113.87 208.04 C 115.58 210.90 117.63 212.72 121.08 213.06 C 129.08 215.81 135.60 221.13 143.75 223.30 C 146.59 224.31 149.35 223.95 152.29 223.68 L 153.97 223.81 C 155.84 224.28 157.19 224.29 159.06 223.85 C 160.04 223.82 161.02 223.78 161.99 223.74 C 164.52 224.31 166.67 224.84 168.88 223.11 C 176.02 221.27 182.79 221.99 189.38 217.59 C 192.48 221.59 191.20 225.69 196.66 228.37 C 200.39 231.70 208.68 228.59 213.24 227.97 C 217.14 229.62 220.50 231.39 224.90 231.23 C 228.66 233.12 229.86 237.88 231.39 230.99 L 232.26 231.30 C 233.89 236.46 227.08 239.32 223.02 239.07 C 211.79 238.67 201.14 238.42 191.00 233.03 C 182.19 230.98 174.09 228.66 164.94 230.73 C 155.26 233.24 146.05 235.59 136.86 239.77 C 129.30 240.36 121.59 239.81 114.00 240.03 C 105.54 240.11 98.55 236.54 90.14 237.75 C 75.52 234.53 66.13 224.04 50.14 226.16 C 52.17 228.37 53.83 229.29 52.78 232.70 C 50.66 235.23 47.89 234.17 47.19 231.09 C 47.86 230.74 48.51 230.38 49.16 230.01 C 40.83 225.08 37.95 219.62 38.82 209.83 C 41.39 203.27 40.87 196.38 43.75 189.97 C 42.45 180.27 43.30 170.45 41.95 160.68 C 42.44 159.13 42.90 157.57 43.34 156.01 C 44.54 153.51 44.84 151.33 43.09 148.99 C 43.18 147.37 43.39 145.83 43.92 144.30 C 45.63 140.26 45.08 135.48 46.02 131.18 L 46.99 129.72 Z" fill="#f2f1f0" />
<path d="M 49.01 129.75 C 51.05 131.69 52.75 133.90 54.70 135.92 C 53.37 136.52 52.11 137.23 50.88 138.03 C 48.99 135.77 48.09 133.99 47.44 131.09 L 49.01 129.75 Z" fill="#464558" />
<path d="M 162.06 129.94 C 164.38 130.36 165.52 129.18 163.79 131.94 L 163.04 133.11 C 161.17 135.82 160.92 138.12 157.05 137.65 C 156.44 134.23 158.46 133.23 160.54 131.12 L 162.06 129.94 Z" fill="#e8e7e0" />
<path d="M 218.54 136.15 C 219.50 138.76 220.21 141.22 220.21 144.06 C 219.22 145.49 218.11 146.84 217.04 148.22 C 213.24 149.21 211.92 148.64 210.54 144.89 C 210.96 142.34 219.54 140.48 216.33 136.71 C 207.46 132.84 200.94 141.30 201.62 149.37 C 204.78 154.92 210.37 155.49 215.83 152.88 C 215.08 154.87 214.51 156.91 213.95 158.96 C 213.45 159.64 212.95 160.33 212.46 161.02 C 208.36 159.97 205.43 158.72 202.17 156.00 C 201.44 153.94 200.57 152.35 199.15 150.68 C 196.84 144.86 197.67 140.47 201.77 135.85 C 203.67 127.34 214.13 132.90 218.54 136.15 Z" fill="#ce9154" />
<path d="M 81.81 131.91 C 81.23 132.94 79.89 133.94 79.88 135.17 C 80.09 138.34 78.12 135.22 76.79 134.78 C 78.30 132.90 79.33 132.08 81.81 131.91 Z" fill="#d1d3de" />
<path d="M 100.51 132.25 C 101.06 134.62 101.60 136.99 102.06 139.38 L 100.90 140.03 C 99.11 139.16 97.93 139.47 96.09 139.94 C 99.67 137.36 96.69 133.30 100.51 132.25 Z" fill="#c6c1be" />
<path d="M 234.86 131.55 C 236.74 134.90 235.79 139.31 236.03 143.12 C 233.26 140.35 235.09 135.21 234.86 131.55 Z" fill="#636375" />
<path d="M 43.29 134.99 C 43.41 136.51 43.27 138.02 43.14 139.54 C 40.51 144.47 39.17 150.37 37.71 155.76 C 36.73 158.97 36.67 161.07 37.85 164.25 C 37.23 180.21 27.76 193.89 27.41 210.14 C 27.39 207.32 24.75 209.86 23.13 209.75 C 22.69 199.96 25.28 189.98 25.85 180.22 C 23.90 178.33 17.07 167.71 23.78 169.14 C 23.56 171.49 22.47 178.17 26.99 175.06 C 29.40 172.61 28.14 165.69 27.89 162.43 C 34.02 161.91 37.05 154.32 37.01 149.03 C 37.15 146.06 33.04 147.24 31.92 144.29 C 34.62 142.82 35.87 140.02 36.99 137.30 C 34.62 137.56 32.29 137.98 29.90 138.06 L 30.29 137.31 C 35.00 134.38 38.14 134.95 43.29 134.99 Z" fill="#c2bdb9" />
<path d="M 76.79 134.78 C 78.12 135.22 80.09 138.34 79.88 135.17 C 81.09 136.12 84.73 136.43 82.19 138.22 C 77.91 141.69 79.88 136.22 74.90 137.81 C 75.48 136.76 76.03 135.71 76.79 134.78 Z" fill="#9293a1" />
<path d="M 167.61 135.18 C 168.39 136.01 169.21 136.81 170.08 137.57 C 168.06 139.04 157.68 142.53 164.03 136.98 C 165.25 136.43 166.45 135.84 167.61 135.18 Z" fill="#5a5864" />
<path d="M 54.70 135.92 C 55.48 136.28 56.26 136.62 57.04 136.96 L 56.80 138.97 L 56.64 139.85 C 55.93 142.48 55.15 145.07 54.67 147.76 C 53.81 152.54 53.66 157.41 52.65 162.19 C 50.54 159.13 51.47 151.67 50.67 147.76 C 50.87 146.83 51.08 145.90 51.29 144.98 C 52.46 142.56 53.05 140.09 50.88 138.03 C 52.11 137.23 53.37 136.52 54.70 135.92 Z" fill="#202039" />
<path d="M 107.96 136.05 C 107.51 138.99 105.71 140.95 103.91 143.18 C 100.98 142.73 101.31 142.92 100.90 140.03 L 102.06 139.38 C 104.06 138.32 105.92 137.02 107.96 136.05 Z" fill="#1e1b31" />
<path d="M 178.17 142.20 C 175.71 144.90 173.19 147.48 171.01 150.42 L 170.21 150.00 L 169.86 149.22 C 173.50 145.49 173.14 140.45 175.72 136.72 C 180.05 133.66 179.59 140.06 178.17 142.20 Z" fill="#3c3947" />
<path d="M 216.33 136.71 C 219.54 140.48 210.96 142.34 210.54 144.89 C 211.92 148.64 213.24 149.21 217.04 148.22 C 216.61 149.76 216.21 151.32 215.83 152.88 C 210.37 155.49 204.78 154.92 201.62 149.37 C 200.94 141.30 207.46 132.84 216.33 136.71 Z" fill="#cdbfad" />
<path d="M 221.34 136.96 C 224.75 141.54 221.87 145.34 222.11 150.29 C 226.02 150.33 222.35 153.37 220.76 154.01 C 220.70 150.61 217.96 152.90 215.83 152.88 C 216.21 151.32 216.61 149.76 217.04 148.22 C 218.11 146.84 219.22 145.49 220.21 144.06 C 221.23 141.95 220.99 139.25 221.34 136.96 Z" fill="#462b29" />
<path d="M 50.88 138.03 C 53.05 140.09 52.46 142.56 51.29 144.98 C 50.79 142.63 50.71 140.42 50.88 138.03 Z" fill="#717280" />
<path d="M 74.90 137.81 C 74.09 140.64 74.02 148.38 69.85 142.91 C 70.51 141.90 71.15 140.88 71.81 139.86 C 72.85 139.19 73.89 138.52 74.90 137.81 Z" fill="#737584" />
<path d="M 56.80 138.97 C 58.93 141.86 63.66 141.72 65.16 144.64 C 62.08 143.71 56.51 144.26 56.64 139.85 L 56.80 138.97 Z" fill="#ebe8e2" />
<path d="M 100.90 140.03 C 101.31 142.92 100.98 142.73 103.91 143.18 C 101.74 144.11 99.26 144.12 97.03 144.97 C 95.30 145.54 93.64 146.28 91.92 146.89 C 91.62 145.83 91.32 144.76 91.01 143.71 C 92.85 142.60 94.51 141.41 96.09 139.94 C 97.93 139.47 99.11 139.16 100.90 140.03 Z" fill="#969399" />
<path d="M 148.20 140.31 C 146.77 141.25 145.32 142.12 143.75 142.81 C 143.50 140.12 149.36 136.72 148.20 140.31 Z" fill="#806b40" />
<path d="M 152.70 142.07 C 151.52 143.80 150.49 145.56 149.63 147.46 C 144.65 147.69 149.17 144.09 150.04 141.94 C 151.72 139.57 155.67 136.71 152.70 142.07 Z" fill="#7a5432" />
<path d="M 43.14 139.54 C 43.46 141.12 43.72 142.70 43.92 144.30 C 43.39 145.83 43.18 147.37 43.09 148.99 C 42.67 151.50 42.68 153.54 43.34 156.01 C 42.90 157.57 42.44 159.13 41.95 160.68 C 37.73 165.92 39.47 176.21 39.02 182.53 C 36.59 189.24 38.37 196.78 34.92 202.92 C 33.45 205.45 35.12 207.24 35.89 209.68 C 35.66 211.47 35.55 213.19 34.90 214.89 C 32.23 215.10 29.58 215.33 26.97 215.88 C 26.99 213.96 27.16 212.04 27.41 210.14 C 27.76 193.89 37.23 180.21 37.85 164.25 C 37.97 161.40 37.91 158.60 37.71 155.76 C 39.17 150.37 40.51 144.47 43.14 139.54 Z" fill="#292741" />
<path d="M 148.20 140.31 C 148.81 140.85 149.42 141.40 150.04 141.94 C 149.17 144.09 144.65 147.69 149.63 147.46 C 154.58 148.14 158.22 145.20 163.12 147.58 C 167.56 146.75 166.89 147.96 170.21 150.00 L 171.01 150.42 C 172.85 159.41 174.10 168.78 164.04 173.05 C 157.10 174.07 152.11 177.32 145.58 173.52 C 137.09 171.21 135.30 163.18 134.98 155.49 C 135.23 152.91 136.07 150.53 136.97 148.11 C 138.93 146.98 140.38 146.46 141.02 144.08 C 141.93 143.66 142.84 143.24 143.75 142.81 C 145.32 142.12 146.77 141.25 148.20 140.31 Z" fill="#d48940" />
<path d="M 152.70 142.07 C 155.83 149.05 168.99 141.72 169.86 149.22 L 170.21 150.00 C 166.89 147.96 167.56 146.75 163.12 147.58 C 158.22 145.20 154.58 148.14 149.63 147.46 C 150.49 145.56 151.52 143.80 152.70 142.07 Z" fill="#caa273" />
<path d="M 31.92 144.29 C 33.04 147.24 37.15 146.06 37.01 149.03 C 37.05 154.32 34.02 161.91 27.89 162.43 C 24.85 159.20 19.72 151.81 22.39 147.36 C 23.64 145.64 26.09 151.38 27.05 152.18 C 29.87 150.49 28.48 145.79 31.92 144.29 Z" fill="#a1a0b4" />
<path d="M 91.01 143.71 C 91.32 144.76 91.62 145.83 91.92 146.89 C 90.92 147.33 90.02 147.07 89.00 146.93 C 87.94 146.56 86.88 146.19 85.81 145.85 C 87.53 145.11 89.27 144.40 91.01 143.71 Z" fill="#5f5f61" />
<path d="M 141.02 144.08 C 140.38 146.46 138.93 146.98 136.97 148.11 C 137.50 145.40 138.79 145.17 141.02 144.08 Z" fill="#ebc59f" />
<path d="M 98.71 146.85 C 97.30 149.59 95.82 151.89 95.92 155.13 C 93.99 155.52 94.29 155.94 93.53 153.85 C 95.02 151.44 95.71 147.65 98.71 146.85 Z" fill="#525059" />
<path d="M 50.67 147.76 C 51.47 151.67 50.54 159.13 52.65 162.19 L 52.69 162.84 C 50.07 163.49 51.24 168.04 50.92 170.06 L 50.04 169.93 C 49.98 166.19 50.02 162.46 49.88 158.72 C 50.01 154.93 49.73 151.46 50.67 147.76 Z" fill="#6c637f" />
<path d="M 54.67 147.76 C 53.92 155.06 57.73 165.00 54.22 171.42 L 53.28 171.04 C 53.07 168.31 52.94 165.57 52.69 162.84 L 52.65 162.19 C 53.66 157.41 53.81 152.54 54.67 147.76 Z" fill="#9a84a1" />
<path d="M 43.09 148.99 C 44.84 151.33 44.54 153.51 43.34 156.01 C 42.68 153.54 42.67 151.50 43.09 148.99 Z" fill="#b0a1bc" />
<path d="M 79.83 150.17 L 81.81 149.74 C 89.27 148.37 78.25 158.99 79.83 150.17 Z" fill="#e8e7e6" />
<path d="M 199.15 150.68 C 200.57 152.35 201.44 153.94 202.17 156.00 C 200.56 156.22 199.47 156.13 197.96 155.61 C 197.42 159.30 197.01 160.39 193.53 162.17 C 194.06 160.24 194.39 159.64 193.37 157.79 C 194.78 155.20 197.42 153.14 199.15 150.68 Z" fill="#e3ded4" />
<path d="M 164.61 154.29 C 165.06 155.84 162.62 158.42 162.20 160.13 C 163.88 158.88 165.29 157.36 166.92 156.05 C 167.59 158.49 168.29 161.59 167.40 164.02 C 164.63 157.66 159.13 169.87 152.84 165.30 C 154.36 164.74 158.94 165.89 157.83 163.19 C 157.81 161.47 154.09 162.46 153.61 160.35 C 150.81 154.54 160.41 148.58 164.61 154.29 Z" fill="#cfa271" />
<path d="M 37.71 155.76 C 37.91 158.60 37.97 161.40 37.85 164.25 C 36.67 161.07 36.73 158.97 37.71 155.76 Z" fill="#8a8587" />
<path d="M 82.72 156.74 C 84.95 157.96 87.20 159.13 89.60 159.99 C 88.15 162.30 85.77 164.17 83.44 165.54 C 80.22 162.20 76.71 159.79 82.72 156.74 Z" fill="#9997ac" />
<path d="M 147.19 157.27 C 149.57 157.71 149.97 163.93 152.84 165.30 C 159.13 169.87 164.63 157.66 167.40 164.02 C 162.99 170.74 160.60 173.35 151.95 171.78 C 153.47 169.69 155.49 170.23 157.75 169.63 C 159.03 167.01 153.39 168.48 152.01 167.89 C 146.91 168.72 144.95 160.06 147.19 157.27 Z" fill="#d1b394" />
<path d="M 95.94 160.06 C 95.96 161.02 95.98 161.98 96.00 162.94 L 93.89 162.69 C 94.45 160.39 92.98 155.95 95.94 160.06 Z" fill="#464553" />
<path d="M 49.88 158.72 C 50.02 162.46 49.98 166.19 50.04 169.93 C 49.89 173.71 50.62 177.09 48.89 180.54 C 47.25 175.73 48.25 170.05 47.96 165.00 C 48.27 162.89 47.11 159.38 49.88 158.72 Z" fill="#c9afcb" />
<path d="M 41.95 160.68 C 43.30 170.45 42.45 180.27 43.75 189.97 C 40.87 196.38 41.39 203.27 38.82 209.83 C 38.02 211.14 38.44 215.44 37.24 215.72 C 36.93 213.63 36.84 211.61 35.89 209.68 C 35.12 207.24 33.45 205.45 34.92 202.92 C 38.37 196.78 36.59 189.24 39.02 182.53 C 39.47 176.21 37.73 165.92 41.95 160.68 Z" fill="#a183ab" />
<path d="M 76.07 161.98 C 78.52 163.47 78.66 166.44 78.93 169.02 C 76.48 167.54 76.34 164.55 76.07 161.98 Z" fill="#edeaee" />
<path d="M 52.69 162.84 C 52.94 165.57 53.07 168.31 53.28 171.04 C 52.90 172.11 52.51 173.17 52.11 174.23 C 51.75 172.83 51.33 171.44 50.92 170.06 C 51.24 168.04 50.07 163.49 52.69 162.84 Z" fill="#26193d" />
<path d="M 72.30 163.45 C 74.01 162.75 75.49 168.49 74.90 169.94 C 73.06 169.19 69.06 168.36 68.87 166.04 C 69.86 165.01 71.06 164.16 72.30 163.45 Z" fill="#eeecea" />
<path d="M 93.89 162.69 L 96.00 162.94 C 99.22 163.83 102.49 164.53 105.74 165.35 C 106.24 167.49 101.57 167.07 100.48 169.13 C 96.43 168.74 97.71 165.36 94.65 163.86 C 94.44 166.70 95.45 166.88 92.06 167.11 C 91.29 166.70 90.53 166.29 89.77 165.87 C 90.49 163.88 92.19 163.57 93.89 162.69 Z" fill="#9c9baa" />
<path d="M 199.69 166.73 C 196.91 170.51 183.58 177.58 178.99 177.95 C 183.41 173.81 190.70 172.76 195.53 168.48 C 196.59 167.62 203.09 162.59 199.69 166.73 Z" fill="#e7e3db" />
<path d="M 89.77 165.87 C 90.53 166.29 91.29 166.70 92.06 167.11 C 95.49 167.61 96.52 173.81 93.08 174.08 C 93.14 172.82 92.44 171.98 90.99 171.55 C 88.55 169.01 87.70 169.24 89.77 165.87 Z" fill="#f0f0ea" />
<path d="M 50.04 169.93 L 50.92 170.06 C 51.33 171.44 51.75 172.83 52.11 174.23 C 53.38 181.04 55.65 188.04 58.15 194.50 L 59.29 194.08 C 60.12 195.88 59.80 197.66 62.23 197.94 C 65.61 204.10 66.95 211.06 70.93 217.11 C 64.28 214.78 67.58 208.83 58.77 210.19 C 55.08 206.45 53.24 200.65 51.24 195.86 C 51.06 190.38 50.55 185.79 48.89 180.54 C 50.62 177.09 49.89 173.71 50.04 169.93 Z" fill="#9f7aa9" />
<path d="M 53.28 171.04 L 54.22 171.42 C 53.60 179.75 57.14 186.32 59.29 194.08 L 58.15 194.50 C 55.65 188.04 53.38 181.04 52.11 174.23 C 52.51 173.17 52.90 172.11 53.28 171.04 Z" fill="#6f577b" />
<path d="M 82.12 171.12 C 85.82 170.01 89.32 174.63 91.90 176.78 C 88.45 179.43 80.29 176.04 82.12 171.12 Z" fill="#9a93a6" />
<path d="M 90.99 171.55 C 92.44 171.98 93.14 172.82 93.08 174.08 C 90.97 174.91 88.84 173.50 90.99 171.55 Z" fill="#7c797f" />
<path d="M 114.08 180.90 C 115.19 182.05 116.25 183.24 117.25 184.49 C 113.15 184.97 117.03 187.28 118.23 188.75 C 121.20 190.60 124.83 191.32 127.92 193.06 C 130.46 194.54 133.31 193.84 136.16 193.88 L 136.97 194.13 C 138.65 194.74 140.35 195.32 142.01 195.99 C 145.83 197.80 151.14 197.18 155.19 196.42 C 156.20 196.17 157.20 195.88 158.19 195.56 C 160.19 195.14 164.68 192.45 165.79 195.19 C 166.80 198.13 170.32 194.67 171.45 197.59 C 171.80 198.67 174.51 201.14 171.68 200.35 C 169.48 199.72 170.98 201.78 170.80 203.01 C 168.31 202.53 166.53 202.54 164.05 203.20 C 166.02 204.47 168.06 205.12 169.55 207.04 C 167.83 207.54 164.16 205.88 165.20 208.89 C 167.68 209.16 168.12 209.20 169.55 207.04 C 170.07 206.36 170.58 205.67 171.08 204.97 C 172.23 203.92 172.62 201.94 174.47 202.93 C 172.64 207.22 168.75 209.39 168.10 214.16 C 166.25 215.53 164.18 216.60 162.26 217.88 C 158.39 217.79 154.80 216.51 150.99 216.09 C 152.82 218.46 157.12 218.99 159.89 219.85 C 164.01 220.18 171.13 220.68 172.72 215.70 C 175.63 208.19 180.21 202.08 184.10 195.12 C 185.13 194.21 187.13 190.01 186.82 193.95 C 185.23 196.47 185.42 198.40 186.65 201.01 C 187.90 206.55 189.39 211.85 189.38 217.59 C 182.79 221.99 176.02 221.27 168.88 223.11 C 166.40 222.69 164.26 222.37 161.99 223.74 C 161.02 223.78 160.04 223.82 159.06 223.85 C 157.22 222.28 155.84 222.29 153.97 223.81 L 152.29 223.68 C 149.43 222.86 146.67 222.99 143.75 223.30 C 135.60 221.13 129.08 215.81 121.08 213.06 C 118.98 210.88 116.84 208.91 113.87 208.04 C 106.83 201.06 103.38 194.78 102.37 184.78 C 101.72 180.23 97.14 178.42 93.85 176.01 C 101.43 168.39 106.32 181.96 114.08 180.90 Z" fill="#242540" />
<path d="M 111.29 175.29 C 111.51 181.23 117.51 174.87 111.29 175.29 Z" fill="#857f7a" />
<path d="M 137.93 179.14 C 136.17 180.71 136.14 181.24 133.70 180.28 C 135.38 179.06 135.92 176.74 137.93 179.14 Z" fill="#78757d" />
<path d="M 119.96 179.06 C 122.13 180.78 123.83 180.76 126.02 179.09 C 128.74 178.98 131.13 179.47 133.70 180.28 C 136.14 181.24 136.17 180.71 137.93 179.14 C 139.33 180.24 139.78 181.52 141.81 180.76 C 146.59 179.07 151.19 178.78 156.02 180.47 C 154.05 184.00 156.57 182.45 158.98 183.41 C 157.00 187.18 151.24 181.71 152.01 186.45 C 156.79 185.29 160.18 188.28 164.95 187.26 C 164.85 189.03 164.02 190.43 163.36 192.02 C 165.95 192.34 169.41 189.38 168.63 193.71 C 172.11 193.35 174.85 194.63 177.97 195.95 C 176.84 198.28 175.73 200.67 174.47 202.93 C 172.62 201.94 172.23 203.92 171.08 204.97 L 170.80 203.01 C 170.98 201.78 169.48 199.72 171.68 200.35 C 174.51 201.14 171.80 198.67 171.45 197.59 C 170.32 194.67 166.80 198.13 165.79 195.19 C 164.68 192.45 160.19 195.14 158.19 195.56 C 156.78 193.69 153.86 195.03 151.93 193.04 C 151.53 188.99 150.13 188.53 146.67 186.86 C 148.73 182.18 139.17 184.21 138.06 186.54 C 130.11 187.42 123.57 181.53 116.07 179.93 C 117.30 179.23 118.59 179.19 119.96 179.06 Z" fill="#35364d" />
<path d="M 119.96 179.06 C 122.04 178.73 123.95 178.77 126.02 179.09 C 123.83 180.76 122.13 180.78 119.96 179.06 Z" fill="#807d7e" />
<path d="M 116.07 179.93 C 123.57 181.53 130.11 187.42 138.06 186.54 C 139.17 184.21 148.73 182.18 146.67 186.86 C 146.89 193.31 141.53 189.05 137.37 189.79 C 133.98 190.26 131.48 187.38 128.52 189.01 C 124.62 187.82 121.02 186.01 117.25 184.49 C 116.25 183.24 115.19 182.05 114.08 180.90 C 114.74 180.57 115.41 180.25 116.07 179.93 Z" fill="#8b8a8e" />
<path d="M 57.08 181.09 C 59.73 180.66 60.21 185.33 60.93 187.12 C 60.27 186.74 59.61 186.37 58.96 185.99 C 57.98 184.36 56.79 183.15 57.08 181.09 Z" fill="#666168" />
<path d="M 195.07 185.10 C 198.42 181.65 192.13 180.09 195.07 185.10 Z" fill="#72728e" />
<path d="M 101.63 189.06 C 101.91 187.64 102.16 186.22 102.37 184.78 C 103.38 194.78 106.83 201.06 113.87 208.04 C 108.13 208.48 104.56 204.94 100.73 201.27 C 96.11 196.47 91.17 191.95 86.73 186.98 C 89.24 181.90 100.59 183.39 101.63 189.06 Z" fill="#9694af" />
<path d="M 195.07 185.10 C 191.43 188.64 193.67 192.38 194.52 196.61 C 196.68 202.43 198.59 208.14 202.37 213.17 C 203.51 214.97 204.47 216.93 205.73 218.65 C 208.13 221.83 210.69 224.90 213.24 227.97 C 208.68 228.59 200.39 231.70 196.66 228.37 C 191.20 225.69 192.48 221.59 189.38 217.59 C 189.39 211.85 187.90 206.55 186.65 201.01 C 187.36 198.46 187.36 196.54 186.82 193.95 C 187.13 190.01 185.13 194.21 184.10 195.12 C 180.21 202.08 175.63 208.19 172.72 215.70 C 171.13 220.68 164.01 220.18 159.89 219.85 C 160.68 219.20 161.47 218.54 162.26 217.88 C 164.18 216.60 166.25 215.53 168.10 214.16 C 168.75 209.39 172.64 207.22 174.47 202.93 C 175.73 200.67 176.84 198.28 177.97 195.95 C 179.93 192.88 182.09 190.02 184.90 187.68 C 185.05 192.25 190.22 188.15 187.84 185.64 C 190.67 183.35 192.02 185.66 195.07 185.10 Z" fill="#c1bdb5" />
<path d="M 117.25 184.49 C 121.02 186.01 124.62 187.82 128.52 189.01 C 132.92 190.98 137.41 192.58 142.18 193.39 C 140.45 193.71 138.72 193.97 136.97 194.13 L 136.16 193.88 C 133.44 192.72 130.78 193.05 127.92 193.06 C 124.83 191.32 121.20 190.60 118.23 188.75 C 117.03 187.28 113.15 184.97 117.25 184.49 Z" fill="#b5b2b3" />
<path d="M 58.96 185.99 C 59.61 186.37 60.27 186.74 60.93 187.12 C 62.19 191.76 66.05 194.96 69.75 197.72 L 70.15 196.12 C 71.08 196.65 72.02 197.18 72.96 197.70 L 73.65 198.12 C 75.91 200.85 79.50 206.11 83.35 206.24 C 86.85 205.57 85.86 209.52 87.33 211.67 C 90.28 217.05 93.16 222.43 95.76 227.99 C 95.27 228.76 94.74 229.51 94.17 230.22 C 89.63 234.17 86.35 227.48 81.75 226.80 C 77.35 226.92 75.53 220.42 72.13 218.11 L 70.93 217.11 C 66.95 211.06 65.61 204.10 62.23 197.94 C 61.11 193.96 60.02 189.98 58.96 185.99 Z" fill="#25263f" />
<path d="M 187.84 185.64 C 190.22 188.15 185.05 192.25 184.90 187.68 C 185.80 186.88 186.80 186.22 187.84 185.64 Z" fill="#847e82" />
<path d="M 146.67 186.86 C 150.13 188.53 151.53 188.99 151.93 193.04 C 148.67 192.89 145.42 192.96 142.18 193.39 C 137.41 192.58 132.92 190.98 128.52 189.01 C 131.48 187.38 133.98 190.26 137.37 189.79 C 141.53 189.05 146.89 193.31 146.67 186.86 Z" fill="#545464" />
<path d="M 105.29 189.02 C 108.15 189.33 108.95 192.10 110.16 194.27 L 109.74 195.13 C 104.49 194.50 105.64 193.74 105.29 189.02 Z" fill="#8c8da2" />
<path d="M 118.22 190.78 C 120.49 192.26 116.83 192.96 115.96 194.13 C 115.23 194.74 114.53 195.37 113.84 196.02 C 112.47 195.71 111.10 195.45 109.74 195.13 L 110.16 194.27 C 111.50 190.26 114.66 189.38 118.22 190.78 Z" fill="#616074" />
<path d="M 196.12 189.95 C 198.70 191.82 198.04 196.20 200.58 198.40 C 203.31 200.90 205.84 203.59 208.55 206.11 C 213.76 214.14 222.74 215.73 228.15 223.69 C 222.25 224.82 218.98 221.57 213.64 220.20 C 213.39 220.89 213.15 221.58 212.92 222.28 C 212.09 221.71 211.26 221.14 210.42 220.58 C 208.99 217.02 206.71 214.07 204.30 211.13 C 203.86 210.56 203.41 209.99 202.97 209.41 C 207.95 205.73 201.60 203.24 198.95 200.94 C 197.20 197.37 195.55 194.07 196.12 189.95 Z" fill="#c7c5bd" />
<path d="M 72.83 191.11 C 74.03 192.88 72.00 195.41 72.96 197.70 C 72.02 197.18 71.08 196.65 70.15 196.12 C 70.55 193.88 70.38 192.14 72.83 191.11 Z" fill="#7d7779" />
<path d="M 84.61 190.66 C 85.57 191.28 86.49 191.94 87.36 192.66 C 101.17 208.69 121.74 220.49 140.01 230.65 C 139.12 230.77 138.22 230.87 137.33 230.97 C 133.20 228.32 131.11 227.88 126.27 228.56 C 120.79 226.28 117.22 219.16 112.15 216.16 C 109.94 217.47 114.84 220.91 111.01 219.96 C 108.13 220.16 106.28 214.59 104.61 218.98 C 98.36 213.73 93.40 209.06 88.63 202.35 C 84.92 198.99 85.26 195.19 84.61 190.66 Z" fill="#cbc7bd" />
<path d="M 127.92 193.06 C 130.78 193.05 133.44 192.72 136.16 193.88 C 133.31 193.84 130.46 194.54 127.92 193.06 Z" fill="#6d6c86" />
<path d="M 142.18 193.39 C 145.42 192.96 148.67 192.89 151.93 193.04 C 153.86 195.03 156.78 193.69 158.19 195.56 C 157.20 195.88 156.20 196.17 155.19 196.42 C 151.15 193.99 146.37 195.23 142.01 195.99 C 140.35 195.32 138.65 194.74 136.97 194.13 C 138.72 193.97 140.45 193.71 142.18 193.39 Z" fill="#7b7b97" />
<path d="M 218.89 192.82 C 218.05 194.65 217.21 196.47 216.25 198.24 C 216.23 194.76 215.34 194.23 218.89 192.82 Z" fill="#9898a4" />
<path d="M 115.96 194.13 C 116.69 195.15 117.44 196.16 118.15 197.20 C 117.79 197.91 117.40 198.61 116.99 199.29 C 115.92 198.22 114.87 197.13 113.84 196.02 C 114.53 195.37 115.23 194.74 115.96 194.13 Z" fill="#a0a3af" />
<path d="M 155.19 196.42 C 151.14 197.18 145.83 197.80 142.01 195.99 C 146.37 195.23 151.15 193.99 155.19 196.42 Z" fill="#4b4b67" />
<path d="M 181.28 194.31 C 183.26 194.58 180.43 198.36 179.22 197.56 C 178.55 196.37 180.17 194.62 181.28 194.31 Z" fill="#74716e" />
<path d="M 186.82 193.95 C 187.36 196.54 187.36 198.46 186.65 201.01 C 185.42 198.40 185.23 196.47 186.82 193.95 Z" fill="#7b797b" />
<path d="M 76.71 195.23 C 79.63 198.16 79.35 202.03 83.37 203.67 C 85.39 204.46 83.87 204.91 83.35 206.24 C 79.50 206.11 75.91 200.85 73.65 198.12 C 74.34 195.64 73.55 194.56 76.71 195.23 Z" fill="#e2dfd6" />
<path d="M 118.15 197.20 C 119.66 199.25 119.84 201.49 120.08 203.94 C 118.69 203.67 117.32 203.40 115.90 203.35 C 114.12 203.29 112.65 203.90 111.02 202.93 C 112.62 200.25 115.30 201.21 116.99 199.29 C 117.40 198.61 117.79 197.91 118.15 197.20 Z" fill="#4b4b66" />
<path d="M 140.32 197.36 C 142.85 198.66 139.27 201.29 137.51 199.83 C 137.18 198.85 139.55 197.65 140.32 197.36 Z" fill="#7f7f97" />
<path d="M 198.95 200.94 C 201.60 203.24 207.95 205.73 202.97 209.41 C 200.74 206.92 200.02 204.01 198.95 200.94 Z" fill="#838586" />
<path d="M 170.80 203.01 L 171.08 204.97 C 170.58 205.67 170.07 206.36 169.55 207.04 C 168.06 205.12 166.02 204.47 164.05 203.20 C 166.53 202.54 168.31 202.53 170.80 203.01 Z" fill="#828291" />
<path d="M 115.90 203.35 C 117.32 203.40 118.69 203.67 120.08 203.94 C 122.38 205.81 122.44 205.16 124.99 204.20 C 124.21 211.34 118.42 206.72 115.90 203.35 Z" fill="#797b95" />
<path d="M 169.55 207.04 C 168.12 209.20 167.68 209.16 165.20 208.89 C 164.16 205.88 167.83 207.54 169.55 207.04 Z" fill="#a9abbc" />
<path d="M 113.87 208.04 C 116.84 208.91 118.98 210.88 121.08 213.06 C 117.63 212.72 115.58 210.90 113.87 208.04 Z" fill="#8b8d9f" />
<path d="M 35.89 209.68 C 36.84 211.61 36.93 213.63 37.24 215.72 C 38.44 215.44 38.02 211.14 38.82 209.83 C 37.95 219.62 40.83 225.08 49.16 230.01 C 48.51 230.38 47.86 230.74 47.19 231.09 C 43.62 229.59 41.89 226.51 39.46 231.21 C 35.14 228.21 34.14 227.16 33.23 221.85 C 33.30 219.40 34.10 217.18 34.90 214.89 C 35.55 213.19 35.66 211.47 35.89 209.68 Z" fill="#c4bfbc" />
<path d="M 58.77 210.19 C 67.58 208.83 64.28 214.78 70.93 217.11 L 72.13 218.11 C 69.57 219.01 69.03 218.78 67.12 216.93 C 64.86 212.88 61.31 213.95 58.77 210.19 Z" fill="#c1abc7" />
<path d="M 142.38 210.19 C 142.78 214.92 147.57 209.51 142.38 210.19 Z" fill="#8f939e" />
<path d="M 204.30 211.13 C 206.71 214.07 208.99 217.02 210.42 220.58 C 208.92 219.66 207.52 218.84 205.73 218.65 C 204.47 216.93 203.51 214.97 202.37 213.17 C 203.03 212.50 203.67 211.82 204.30 211.13 Z" fill="#72717a" />
<path d="M 34.90 214.89 C 34.10 217.18 33.30 219.40 33.23 221.85 C 32.73 223.37 32.08 224.74 31.18 226.08 C 30.20 224.13 32.94 217.16 30.94 217.08 C 25.25 216.02 31.29 221.21 27.20 223.02 C 26.97 220.65 26.91 218.26 26.97 215.88 C 29.58 215.33 32.23 215.10 34.90 214.89 Z" fill="#5b5c66" />
<path d="M 91.10 214.95 C 97.49 218.95 102.83 224.27 110.18 227.08 C 111.05 228.42 114.75 229.94 111.05 230.23 C 108.70 227.83 105.79 227.32 102.81 226.10 C 97.87 224.23 94.41 218.94 91.10 214.95 Z" fill="#33333d" />
<path d="M 112.15 216.16 C 117.22 219.16 120.79 226.28 126.27 228.56 C 131.11 227.88 133.20 228.32 137.33 230.97 C 133.21 231.80 129.91 234.91 126.73 230.66 C 122.05 232.02 115.54 232.44 111.05 230.23 C 114.75 229.94 111.05 228.42 110.18 227.08 C 111.45 224.06 106.10 221.26 104.61 218.98 C 106.28 214.59 108.13 220.16 111.01 219.96 C 114.84 220.91 109.94 217.47 112.15 216.16 Z" fill="#dbd9cf" />
<path d="M 150.99 216.09 C 154.80 216.51 158.39 217.79 162.26 217.88 C 161.47 218.54 160.68 219.20 159.89 219.85 C 157.12 218.99 152.82 218.46 150.99 216.09 Z" fill="#93949f" />
<path d="M 210.42 220.58 C 211.26 221.14 212.09 221.71 212.92 222.28 C 216.34 229.72 221.02 226.09 226.99 230.13 C 226.30 230.50 225.60 230.87 224.90 231.23 C 220.50 231.39 217.14 229.62 213.24 227.97 C 210.69 224.90 208.13 221.83 205.73 218.65 C 207.52 218.84 208.92 219.66 210.42 220.58 Z" fill="#242337" />
<path d="M 213.64 220.20 C 218.98 221.57 222.25 224.82 228.15 223.69 C 229.10 226.19 230.17 228.61 231.39 230.99 C 229.64 230.09 228.96 229.16 226.99 230.13 C 221.02 226.09 216.34 229.72 212.92 222.28 C 213.15 221.58 213.39 220.89 213.64 220.20 Z" fill="#a8a5a3" />
<path d="M 235.81 230.04 C 235.35 231.11 233.25 230.94 232.26 231.30 L 231.39 230.99 C 230.17 228.61 229.10 226.19 228.15 223.69 C 232.36 218.60 234.60 227.13 235.81 230.04 Z" fill="#d2d2cd" />
<path d="M 143.75 223.30 C 146.67 222.99 149.43 222.86 152.29 223.68 C 149.35 223.95 146.59 224.31 143.75 223.30 Z" fill="#a6a8b8" />
<path d="M 159.06 223.85 C 157.19 224.29 155.84 224.28 153.97 223.81 C 155.84 222.29 157.22 222.28 159.06 223.85 Z" fill="#767789" />
<path d="M 168.88 223.11 C 166.67 224.84 164.52 224.31 161.99 223.74 C 164.26 222.37 166.40 222.69 168.88 223.11 Z" fill="#aaabbb" />
<path d="M 231.39 230.99 C 229.86 237.88 228.66 233.12 224.90 231.23 C 225.60 230.87 226.30 230.50 226.99 230.13 C 228.96 229.16 229.64 230.09 231.39 230.99 Z" fill="#5d5d60" />
</svg>