<?xml version="1.0" encoding="UTF-8" standalone="no"?>
<!DOCTYPE svg PUBLIC "-//W3C//DTD SVG 1.1//EN" "http://www.w3.org/Graphics/SVG/1.1/DTD/svg11.dtd">
<svg xmlns="http://www.w3.org/2000/svg" version="1.1" viewBox="0 0 256 256" width="256.0pt" height="256.0pt">
<path d="M 0.00 0.00 L 256.00 0.00 L 256.00 256.00 L 0.00 256.00 L 0.00 0.00 Z" fill="#fdfdfc" />
<path d="M 138.62 12.46 C 147.43 14.97 155.89 12.83 165.01 14.02 C 178.45 16.00 189.31 14.76 201.64 21.38 C 206.09 25.10 209.24 30.97 211.92 36.04 C 214.24 40.48 217.97 43.56 219.89 48.11 C 223.14 55.72 229.17 61.30 231.67 69.33 C 235.22 75.67 234.44 82.77 237.74 89.11 C 236.99 92.23 234.19 91.48 231.76 91.79 C 228.10 89.05 228.50 82.41 226.66 78.35 C 222.99 69.38 219.08 59.72 213.23 51.93 C 213.03 50.21 212.61 49.68 211.04 49.02 C 211.13 47.20 210.75 46.56 208.99 46.02 C 207.06 39.59 200.91 34.26 196.06 29.86 C 192.42 26.85 188.04 22.45 183.18 21.90 C 184.09 22.93 185.05 23.92 185.97 24.94 C 186.23 26.96 186.32 27.86 187.99 29.15 L 186.84 30.18 C 177.47 23.40 167.89 23.08 157.02 21.05 C 146.40 21.18 136.36 19.90 125.74 20.72 C 124.91 20.72 124.08 20.73 123.24 20.73 C 119.77 19.68 117.23 19.73 113.75 20.66 C 109.65 21.46 105.63 22.42 101.82 24.16 C 100.87 24.50 99.93 24.84 98.98 25.18 C 97.76 22.59 100.86 21.90 102.32 20.32 C 113.80 12.44 125.37 13.42 138.62 12.46 Z" fill="#f4f3ee" />
<path d="M 123.24 20.73 C 120.02 21.03 116.97 21.00 113.75 20.66 C 117.23 19.73 119.77 19.68 123.24 20.73 Z" fill="#72717e" />
<path d="M 157.02 21.05 C 167.89 23.08 177.47 23.40 186.84 30.18 C 187.82 34.29 189.87 38.06 191.72 41.89 C 190.04 41.30 188.93 40.64 187.14 41.22 C 184.97 38.86 184.87 34.87 181.14 38.01 C 178.35 33.91 172.63 32.76 168.35 30.63 C 163.78 28.35 159.24 26.35 154.11 25.81 C 149.94 24.96 145.53 23.95 141.28 23.94 C 145.45 28.18 137.38 25.19 135.87 24.06 C 134.05 22.92 134.08 22.14 132.10 23.49 C 130.07 22.36 127.92 21.53 125.74 20.72 C 136.36 19.90 146.40 21.18 157.02 21.05 Z" fill="#d5ba93" />
<path d="M 113.75 20.66 C 116.97 21.00 120.02 21.03 123.24 20.73 C 124.08 20.73 124.91 20.72 125.74 20.72 C 127.92 21.53 130.07 22.36 132.10 23.49 L 130.83 24.80 C 126.81 25.35 122.79 25.93 118.79 26.64 C 116.91 26.87 115.02 27.07 113.14 27.29 C 109.20 26.75 105.55 25.46 101.82 24.16 C 105.63 22.42 109.65 21.46 113.75 20.66 Z" fill="#373441" />
<path d="M 135.87 24.06 C 137.38 25.19 145.45 28.18 141.28 23.94 C 145.53 23.95 149.94 24.96 154.11 25.81 C 151.38 27.21 154.37 33.93 154.78 36.24 C 163.05 41.05 164.82 50.73 172.12 56.95 C 172.95 58.14 173.76 59.35 174.52 60.58 C 174.57 64.26 176.68 70.56 173.11 72.31 C 175.78 80.82 171.57 84.42 174.91 93.33 C 178.86 96.56 170.85 96.86 169.17 97.48 C 167.34 98.32 163.31 100.79 163.28 97.10 C 162.54 97.45 161.81 97.83 161.09 98.24 C 157.64 95.73 155.54 92.00 153.88 88.15 C 154.92 82.45 152.77 77.52 155.68 72.03 C 152.40 71.80 149.25 72.32 146.06 73.02 C 147.07 71.39 148.79 71.36 146.11 70.37 C 144.36 69.32 143.14 67.80 141.84 66.27 C 142.32 61.77 139.44 61.09 135.90 59.94 L 134.71 58.91 C 131.69 55.72 134.62 49.85 131.13 48.01 C 126.16 52.73 124.95 53.41 117.79 53.28 C 111.96 53.12 109.84 40.92 105.10 45.08 C 105.85 46.25 107.82 47.40 107.86 48.81 C 100.98 49.87 95.31 48.40 89.06 45.71 C 84.22 44.34 81.51 40.69 77.36 38.22 C 76.97 39.96 76.72 41.68 76.07 43.35 C 74.55 35.97 80.98 32.30 87.25 31.18 C 90.84 29.79 89.59 27.30 90.33 24.20 C 93.52 23.82 95.92 23.27 98.12 26.09 C 95.12 29.24 92.61 32.74 90.89 36.75 C 91.24 38.93 97.49 37.64 99.24 37.88 C 105.04 38.94 108.29 29.96 113.14 27.29 C 115.02 27.07 116.91 26.87 118.79 26.64 C 119.58 27.00 120.36 27.37 121.14 27.74 C 117.82 28.41 114.62 29.39 111.77 31.28 C 111.30 31.49 111.08 31.99 111.09 32.79 C 115.04 33.16 119.39 33.40 123.23 32.28 C 128.66 30.78 133.88 29.90 138.94 27.34 C 136.31 26.73 133.67 26.18 131.00 25.77 L 130.83 24.80 L 132.10 23.49 C 134.08 22.14 134.05 22.92 135.87 24.06 Z" fill="#f3f1ed" />
<path d="M 183.18 21.90 C 188.04 22.45 192.42 26.85 196.06 29.86 L 195.03 30.03 C 191.90 28.52 188.97 26.69 185.97 24.94 C 185.05 23.92 184.09 22.93 183.18 21.90 Z" fill="#584f42" />
<path d="M 101.82 24.16 C 105.55 25.46 109.20 26.75 113.14 27.29 C 108.29 29.96 105.04 38.94 99.24 37.88 C 96.39 37.02 93.89 35.96 90.89 36.75 C 92.61 32.74 95.12 29.24 98.12 26.09 L 98.98 25.18 C 99.93 24.84 100.87 24.50 101.82 24.16 Z" fill="#8d785d" />
<path d="M 130.83 24.80 L 131.00 25.77 C 127.74 26.56 124.47 27.27 121.14 27.74 C 120.36 27.37 119.58 27.00 118.79 26.64 C 122.79 25.93 126.81 25.35 130.83 24.80 Z" fill="#a09fad" />
<path d="M 185.97 24.94 C 188.97 26.69 191.90 28.52 195.03 30.03 C 196.42 31.79 197.91 33.46 199.41 35.12 C 195.81 36.73 194.79 31.14 194.85 38.03 C 192.70 34.34 192.41 30.94 187.99 29.15 C 186.32 27.86 186.23 26.96 185.97 24.94 Z" fill="#c9af89" />
<path d="M 131.00 25.77 C 133.67 26.18 136.31 26.73 138.94 27.34 C 133.88 29.90 128.66 30.78 123.23 32.28 C 119.20 32.03 115.58 32.26 111.77 31.28 C 114.62 29.39 117.82 28.41 121.14 27.74 C 124.47 27.27 127.74 26.56 131.00 25.77 Z" fill="#52494f" />
<path d="M 154.11 25.81 C 159.24 26.35 163.78 28.35 168.35 30.63 C 172.63 32.76 178.35 33.91 181.14 38.01 C 185.07 42.58 188.21 50.60 193.87 52.87 C 196.99 50.02 196.40 49.55 200.41 51.71 C 202.54 55.67 201.86 59.54 202.76 63.86 C 202.60 67.60 204.01 68.89 199.92 65.96 C 199.22 62.48 196.66 62.24 194.54 59.87 C 194.18 59.31 193.79 58.78 193.38 58.26 C 192.06 56.51 190.50 55.01 188.89 53.52 C 179.61 44.91 169.36 38.18 159.62 30.34 C 158.17 29.34 156.34 31.83 157.72 33.22 C 162.19 41.01 168.93 48.38 172.12 56.95 C 164.82 50.73 163.05 41.05 154.78 36.24 C 154.37 33.93 151.38 27.21 154.11 25.81 Z" fill="#f3ecde" />
<path d="M 187.99 29.15 C 192.41 30.94 192.70 34.34 194.85 38.03 C 196.46 42.94 198.54 46.98 200.41 51.71 C 196.40 49.55 196.99 50.02 193.87 52.87 C 188.21 50.60 185.07 42.58 181.14 38.01 C 184.87 34.87 184.97 38.86 187.14 41.22 C 188.93 40.64 190.04 41.30 191.72 41.89 C 189.87 38.06 187.82 34.29 186.84 30.18 L 187.99 29.15 Z" fill="#e5d4b6" />
<path d="M 159.62 30.34 C 169.36 38.18 179.61 44.91 188.89 53.52 C 187.95 55.49 191.44 58.74 193.38 58.26 C 193.79 58.78 194.18 59.31 194.54 59.87 C 194.63 61.68 195.29 63.28 195.84 64.98 C 193.85 63.49 192.45 61.25 190.35 59.96 C 191.34 65.66 189.97 63.64 185.37 63.99 C 187.37 60.94 186.68 56.33 183.58 54.29 C 181.60 59.06 176.39 60.88 177.57 66.19 C 176.60 64.29 175.67 62.35 174.52 60.58 C 173.76 59.35 172.95 58.14 172.12 56.95 C 168.93 48.38 162.19 41.01 157.72 33.22 C 156.34 31.83 158.17 29.34 159.62 30.34 Z" fill="#cca975" />
<path d="M 195.03 30.03 L 196.06 29.86 C 200.91 34.26 207.06 39.59 208.99 46.02 C 206.46 43.35 204.07 40.55 201.68 37.76 C 200.98 36.83 200.22 35.96 199.41 35.12 C 197.91 33.46 196.42 31.79 195.03 30.03 Z" fill="#2d2320" />
<path d="M 111.77 31.28 C 115.58 32.26 119.20 32.03 123.23 32.28 C 119.39 33.40 115.04 33.16 111.09 32.79 C 111.08 31.99 111.30 31.49 111.77 31.28 Z" fill="#b1a79f" />
<path d="M 139.21 32.57 C 138.16 34.00 137.12 35.43 136.16 36.93 C 132.26 35.42 128.27 36.08 124.57 34.01 C 125.95 33.24 127.37 33.03 128.89 32.68 C 130.55 33.40 131.78 33.58 133.05 32.09 C 134.82 31.76 138.79 29.63 139.21 32.57 Z" fill="#433940" />
<path d="M 133.05 32.09 C 131.78 33.58 130.55 33.40 128.89 32.68 C 130.30 31.57 131.39 31.63 133.05 32.09 Z" fill="#928e91" />
<path d="M 139.21 32.57 C 141.03 35.57 138.89 38.70 137.22 41.21 C 130.19 45.24 121.84 43.04 113.76 42.31 C 120.46 42.14 127.05 41.51 133.69 40.64 C 135.16 39.97 135.51 38.27 136.16 36.93 C 137.12 35.43 138.16 34.00 139.21 32.57 Z" fill="#ac9f8f" />
<path d="M 124.57 34.01 C 128.27 36.08 132.26 35.42 136.16 36.93 C 135.51 38.27 135.16 39.97 133.69 40.64 C 127.05 41.51 120.46 42.14 113.76 42.31 C 110.86 41.08 104.69 41.94 103.09 39.22 C 110.03 35.30 119.37 39.67 124.57 34.01 Z" fill="#7e6349" />
<path d="M 199.41 35.12 C 200.22 35.96 200.98 36.83 201.68 37.76 C 200.71 39.93 203.06 41.25 204.08 42.89 C 206.27 44.64 209.71 53.29 212.46 52.16 L 213.23 51.93 C 213.34 52.90 213.45 53.87 213.56 54.83 C 212.26 56.91 216.22 60.25 213.06 60.04 C 210.28 59.89 211.35 62.95 210.68 64.80 C 207.44 62.40 206.13 65.09 202.76 63.86 C 201.86 59.54 202.54 55.67 200.41 51.71 C 198.54 46.98 196.46 42.94 194.85 38.03 C 194.79 31.14 195.81 36.73 199.41 35.12 Z" fill="#c39c64" />
<path d="M 99.24 37.88 C 97.49 37.64 91.24 38.93 90.89 36.75 C 93.89 35.96 96.39 37.02 99.24 37.88 Z" fill="#b8aea7" />
<path d="M 71.21 38.24 C 74.84 36.83 74.91 41.12 76.07 43.35 C 74.32 47.34 70.54 50.67 67.02 53.11 C 60.27 55.08 63.46 52.81 61.79 48.07 C 58.47 50.61 55.97 54.40 53.73 57.89 C 51.57 57.80 49.47 57.35 47.32 57.16 C 47.03 58.28 48.81 62.09 46.48 60.58 C 45.35 57.54 45.72 55.06 42.02 54.12 C 42.60 58.56 44.36 62.43 44.09 67.02 C 44.33 72.31 40.19 76.71 36.91 80.40 C 32.91 71.49 37.85 63.91 34.83 55.13 C 34.28 53.03 34.68 51.11 34.72 48.98 C 33.51 49.87 31.83 55.20 31.73 50.91 C 32.28 49.31 32.76 47.70 32.93 46.00 C 29.40 50.66 28.12 57.24 26.70 62.82 C 22.79 75.11 21.05 88.26 21.42 101.12 C 21.31 103.38 21.04 105.62 20.73 107.86 C 18.04 109.49 21.66 111.64 22.29 113.63 C 24.00 116.74 23.94 117.93 27.88 118.45 C 22.39 119.73 21.35 125.17 21.82 130.06 C 23.67 134.89 15.84 135.95 22.00 138.66 C 19.67 140.79 19.78 141.26 20.64 144.18 C 22.45 150.12 22.16 155.88 25.71 161.27 C 27.92 168.98 33.02 176.27 34.93 184.03 C 35.72 187.90 32.26 184.71 30.85 183.94 C 27.55 181.32 26.14 184.60 24.26 186.81 C 21.20 184.56 20.45 190.23 19.23 191.94 C 17.98 178.50 18.38 165.21 15.22 151.82 C 11.12 133.79 13.75 114.45 12.97 96.00 C 14.33 81.84 15.52 66.99 20.61 53.62 C 23.58 45.67 30.48 39.94 39.00 39.11 C 42.47 39.61 45.05 42.13 48.63 40.85 C 49.56 42.34 49.91 43.13 51.86 43.25 C 58.68 43.05 65.08 41.33 71.21 38.24 Z" fill="#f3f2ee" />
<path d="M 77.36 38.22 C 81.51 40.69 84.22 44.34 89.06 45.71 C 87.33 46.20 86.42 46.06 85.75 47.96 C 82.76 49.66 79.62 49.84 76.33 50.44 C 72.41 51.73 70.11 56.50 66.36 58.38 C 61.74 60.97 56.96 60.47 52.18 62.12 C 52.77 62.68 53.38 63.24 54.00 63.77 C 49.53 64.07 48.24 64.84 47.85 69.41 C 44.06 73.74 40.24 79.15 37.18 83.97 C 36.78 87.57 29.59 91.29 34.80 94.35 L 34.37 94.72 C 30.64 97.12 31.72 104.72 29.88 108.78 C 27.49 113.67 29.58 115.48 29.25 120.20 C 28.75 121.06 28.29 121.94 27.86 122.83 C 25.80 127.12 23.30 135.47 25.05 139.94 C 24.03 139.51 23.02 139.08 22.00 138.66 C 15.84 135.95 23.67 134.89 21.82 130.06 C 21.35 125.17 22.39 119.73 27.88 118.45 C 23.94 117.93 24.00 116.74 22.29 113.63 C 21.66 111.64 18.04 109.49 20.73 107.86 C 23.49 109.45 25.85 108.44 28.66 107.64 C 30.44 99.76 29.68 90.19 24.76 83.53 L 24.95 81.71 C 27.79 81.51 30.35 82.23 33.11 82.70 C 35.05 83.19 35.72 81.55 36.91 80.40 C 40.19 76.71 44.33 72.31 44.09 67.02 C 44.36 62.43 42.60 58.56 42.02 54.12 C 45.72 55.06 45.35 57.54 46.48 60.58 C 48.81 62.09 47.03 58.28 47.32 57.16 C 49.47 57.35 51.57 57.80 53.73 57.89 C 59.15 58.38 64.25 58.12 68.85 54.91 C 68.26 54.29 67.65 53.69 67.02 53.11 C 70.54 50.67 74.32 47.34 76.07 43.35 C 76.72 41.68 76.97 39.96 77.36 38.22 Z" fill="#c0b19a" />
<path d="M 201.68 37.76 C 204.07 40.55 206.46 43.35 208.99 46.02 C 208.91 47.83 209.27 48.50 211.04 49.02 C 211.01 50.45 211.48 51.50 212.46 52.16 C 209.71 53.29 206.27 44.64 204.08 42.89 C 203.06 41.25 200.71 39.93 201.68 37.76 Z" fill="#e6d7bf" />
<path d="M 117.79 53.28 C 119.77 54.84 121.56 56.09 124.07 56.67 C 119.77 57.56 116.36 55.76 112.26 55.28 C 109.39 57.16 110.21 59.91 109.52 62.89 C 106.79 66.04 110.13 70.34 108.47 74.38 C 108.54 81.81 106.02 87.73 104.60 94.82 C 101.45 94.71 100.25 91.66 101.84 88.97 C 102.71 80.84 103.54 70.65 104.43 62.49 C 108.64 61.39 108.33 56.55 104.42 55.67 C 98.48 50.39 91.11 53.75 85.75 47.96 C 86.42 46.06 87.33 46.20 89.06 45.71 C 95.31 48.40 100.98 49.87 107.86 48.81 C 107.82 47.40 105.85 46.25 105.10 45.08 C 109.84 40.92 111.96 53.12 117.79 53.28 Z" fill="#b18e5d" />
<path d="M 32.93 46.00 C 32.76 47.70 32.28 49.31 31.73 50.91 C 28.98 59.30 26.47 68.01 25.57 76.81 C 25.31 78.44 25.10 80.07 24.95 81.71 L 24.76 83.53 C 23.02 89.24 23.98 95.78 21.42 101.12 C 21.05 88.26 22.79 75.11 26.70 62.82 C 28.12 57.24 29.40 50.66 32.93 46.00 Z" fill="#a89d8e" />
<path d="M 208.99 46.02 C 210.75 46.56 211.13 47.20 211.04 49.02 C 209.27 48.50 208.91 47.83 208.99 46.02 Z" fill="#332920" />
<path d="M 61.79 48.07 C 63.46 52.81 60.27 55.08 67.02 53.11 C 67.65 53.69 68.26 54.29 68.85 54.91 C 64.25 58.12 59.15 58.38 53.73 57.89 C 55.97 54.40 58.47 50.61 61.79 48.07 Z" fill="#e9dfc9" />
<path d="M 85.75 47.96 C 91.11 53.75 98.48 50.39 104.42 55.67 C 104.46 59.16 103.15 62.25 102.60 65.67 C 92.29 66.76 92.08 55.85 80.86 59.72 C 81.14 56.29 81.03 55.28 78.19 53.27 C 74.31 53.99 77.61 58.54 78.03 60.89 C 74.14 66.68 72.69 70.78 76.91 76.91 C 71.69 73.61 70.49 77.21 65.27 77.01 C 61.97 72.39 58.30 67.50 54.00 63.77 C 53.38 63.24 52.77 62.68 52.18 62.12 C 56.96 60.47 61.74 60.97 66.36 58.38 C 70.11 56.50 72.41 51.73 76.33 50.44 C 79.62 49.84 82.76 49.66 85.75 47.96 Z" fill="#eadcc4" />
<path d="M 131.13 48.01 C 134.62 49.85 131.69 55.72 134.71 58.91 C 133.80 60.15 132.91 61.40 132.00 62.63 C 132.98 57.71 127.71 56.94 124.07 56.67 C 121.56 56.09 119.77 54.84 117.79 53.28 C 124.95 53.41 126.16 52.73 131.13 48.01 Z" fill="#bcb09b" />
<path d="M 34.72 48.98 C 34.68 51.11 34.28 53.03 34.83 55.13 C 37.85 63.91 32.91 71.49 36.91 80.40 C 35.72 81.55 35.05 83.19 33.11 82.70 C 33.31 76.41 32.20 70.33 31.71 64.08 C 28.91 63.73 28.17 70.78 27.72 72.76 C 28.12 75.01 26.43 84.29 25.57 76.81 C 26.47 68.01 28.98 59.30 31.73 50.91 C 31.83 55.20 33.51 49.87 34.72 48.98 Z" fill="#ece1ce" />
<path d="M 211.04 49.02 C 212.61 49.68 213.03 50.21 213.23 51.93 L 212.46 52.16 C 211.48 51.50 211.01 50.45 211.04 49.02 Z" fill="#4a4b4b" />
<path d="M 213.23 51.93 C 219.08 59.72 222.99 69.38 226.66 78.35 C 228.50 82.41 228.10 89.05 231.76 91.79 C 233.93 94.08 237.01 95.71 235.28 99.33 C 233.98 100.05 232.66 100.74 231.32 101.40 C 228.05 96.18 227.14 90.99 225.91 85.11 C 221.53 74.69 219.98 64.34 213.56 54.83 C 213.45 53.87 213.34 52.90 213.23 51.93 Z" fill="#37343d" />
<path d="M 78.19 53.27 C 81.03 55.28 81.14 56.29 80.86 59.72 C 85.61 65.70 85.81 70.09 87.47 77.67 C 88.17 81.64 91.53 78.88 90.95 83.71 C 87.36 84.60 89.77 93.06 88.56 96.19 C 84.36 84.50 82.71 72.56 78.03 60.89 C 77.61 58.54 74.31 53.99 78.19 53.27 Z" fill="#b48f5a" />
<path d="M 183.58 54.29 C 186.68 56.33 187.37 60.94 185.37 63.99 C 189.97 63.64 191.34 65.66 190.35 59.96 C 192.45 61.25 193.85 63.49 195.84 64.98 C 195.29 63.28 194.63 61.68 194.54 59.87 C 196.66 62.24 199.22 62.48 199.92 65.96 L 199.75 66.77 C 199.50 70.70 203.39 77.08 207.12 78.87 L 207.57 79.92 C 206.73 83.06 207.41 85.97 210.03 88.03 C 210.30 89.59 211.95 98.82 214.35 97.07 C 215.28 99.78 216.07 102.84 217.44 105.36 C 218.78 105.78 223.54 105.63 221.06 107.98 C 220.06 108.51 219.10 115.02 220.93 111.82 C 221.90 108.28 227.32 114.04 225.70 115.69 C 223.15 118.83 224.36 123.61 228.01 125.26 C 227.97 126.11 227.93 126.96 227.89 127.80 C 226.71 130.22 225.67 132.63 225.19 135.29 L 224.65 136.98 C 223.47 134.48 223.48 132.70 222.83 136.86 C 222.54 139.40 215.32 136.29 216.06 140.04 C 216.33 147.07 206.22 144.38 203.15 141.22 C 202.96 142.21 202.80 143.19 202.65 144.19 C 201.92 141.71 202.17 139.41 202.49 136.91 C 200.36 136.99 201.29 140.27 200.90 141.75 L 200.43 142.31 C 198.83 135.31 195.55 129.43 192.02 123.29 C 194.16 121.13 192.09 118.96 189.75 120.80 C 188.68 120.44 187.61 120.09 186.53 119.75 C 183.12 117.90 180.29 126.45 176.87 127.82 C 176.76 133.95 171.77 133.99 170.50 139.59 C 167.97 144.38 166.89 156.15 159.75 155.52 C 158.30 155.74 156.73 153.91 155.71 153.06 C 159.70 147.21 160.53 138.71 161.92 131.87 C 163.12 132.70 163.30 134.50 164.60 132.68 C 166.07 130.62 169.06 131.48 170.19 129.36 C 171.66 127.14 173.22 125.12 175.08 123.22 C 178.50 122.40 177.24 118.50 179.74 116.05 C 178.52 116.35 177.32 116.69 176.12 117.03 L 176.33 116.19 C 177.53 111.68 178.70 107.47 177.43 102.80 C 177.43 100.90 177.55 99.01 177.56 97.11 C 179.35 93.75 183.68 92.64 185.61 89.74 C 187.41 86.54 180.37 89.44 181.17 86.45 C 184.97 86.74 185.01 85.56 186.01 82.25 C 183.45 83.44 181.85 83.01 179.24 82.28 C 178.22 78.49 177.96 74.58 176.69 70.82 C 177.02 69.32 177.64 67.73 177.57 66.19 C 176.39 60.88 181.60 59.06 183.58 54.29 Z" fill="#c69b5d" />
<path d="M 188.89 53.52 C 190.50 55.01 192.06 56.51 193.38 58.26 C 191.44 58.74 187.95 55.49 188.89 53.52 Z" fill="#765527" />
<path d="M 112.26 55.28 C 116.36 55.76 119.77 57.56 124.07 56.67 C 127.71 56.94 132.98 57.71 132.00 62.63 L 131.58 63.23 C 129.54 56.54 123.75 68.70 119.22 65.71 C 115.69 63.39 112.62 65.78 109.52 62.89 C 110.21 59.91 109.39 57.16 112.26 55.28 Z" fill="#eadcc5" />
<path d="M 213.56 54.83 C 219.98 64.34 221.53 74.69 225.91 85.11 C 227.14 90.99 228.05 96.18 231.32 101.40 C 229.20 106.66 230.03 111.74 230.30 117.23 C 229.63 119.93 228.81 122.60 228.01 125.26 C 224.36 123.61 223.15 118.83 225.70 115.69 C 227.32 114.04 221.90 108.28 220.93 111.82 C 219.10 115.02 220.06 108.51 221.06 107.98 C 223.54 105.63 218.78 105.78 217.44 105.36 C 216.07 102.84 215.28 99.78 214.35 97.07 C 213.30 93.84 212.13 90.74 210.03 88.03 C 209.58 85.11 208.80 82.60 207.57 79.92 L 207.12 78.87 C 205.37 74.37 202.73 70.53 199.75 66.77 L 199.92 65.96 C 204.01 68.89 202.60 67.60 202.76 63.86 C 206.13 65.09 207.44 62.40 210.68 64.80 C 211.35 62.95 210.28 59.89 213.06 60.04 C 216.22 60.25 212.26 56.91 213.56 54.83 Z" fill="#d5b688" />
<path d="M 104.42 55.67 C 108.33 56.55 108.64 61.39 104.43 62.49 C 103.54 70.65 102.71 80.84 101.84 88.97 C 100.25 91.66 101.45 94.71 104.60 94.82 C 106.02 87.73 108.54 81.81 108.47 74.38 C 110.13 70.34 106.79 66.04 109.52 62.89 C 112.62 65.78 115.69 63.39 119.22 65.71 C 123.75 68.70 129.54 56.54 131.58 63.23 C 130.78 66.54 127.96 69.03 133.11 66.32 C 132.11 71.77 127.54 68.10 125.52 72.45 C 123.62 76.54 120.12 78.42 121.70 83.38 C 117.06 82.36 118.92 88.88 116.30 91.30 C 114.96 93.13 115.61 92.66 117.07 93.96 C 113.94 95.04 111.19 96.43 109.04 99.03 C 107.07 101.26 104.89 103.22 102.65 105.17 C 101.06 100.99 100.22 95.26 97.16 91.96 C 98.69 98.26 100.44 104.54 102.12 110.80 C 100.80 110.93 99.47 110.99 98.14 110.97 C 92.05 108.12 100.93 116.90 95.94 117.97 C 93.47 118.51 93.94 113.83 92.16 113.25 C 91.14 114.54 91.04 121.77 89.73 117.00 C 90.34 113.07 91.05 109.19 91.18 105.20 C 96.12 102.39 92.23 92.25 91.22 87.80 C 91.12 86.44 91.03 85.07 90.95 83.71 C 91.53 78.88 88.17 81.64 87.47 77.67 C 85.81 70.09 85.61 65.70 80.86 59.72 C 92.08 55.85 92.29 66.76 102.60 65.67 C 103.15 62.25 104.46 59.16 104.42 55.67 Z" fill="#d8bb90" />
<path d="M 134.71 58.91 L 135.90 59.94 C 137.55 62.46 139.29 64.61 141.84 66.27 C 143.14 67.80 144.36 69.32 146.11 70.37 C 143.69 73.70 137.39 66.59 135.17 65.13 C 134.06 67.33 134.34 69.17 134.60 71.50 C 129.73 71.08 128.11 76.54 125.76 79.77 C 122.65 83.81 121.32 88.63 118.53 92.82 C 119.40 93.18 120.28 93.52 121.16 93.83 C 119.80 93.86 118.44 93.90 117.07 93.96 C 115.61 92.66 114.96 93.13 116.30 91.30 C 118.92 88.88 117.06 82.36 121.70 83.38 C 120.12 78.42 123.62 76.54 125.52 72.45 C 127.54 68.10 132.11 71.77 133.11 66.32 C 127.96 69.03 130.78 66.54 131.58 63.23 L 132.00 62.63 C 132.91 61.40 133.80 60.15 134.71 58.91 Z" fill="#b99663" />
<path d="M 135.90 59.94 C 139.44 61.09 142.32 61.77 141.84 66.27 C 139.29 64.61 137.55 62.46 135.90 59.94 Z" fill="#dfceb0" />
<path d="M 78.03 60.89 C 82.71 72.56 84.36 84.50 88.56 96.19 C 88.67 99.66 86.60 103.85 88.19 106.96 C 87.12 107.65 86.04 108.32 84.95 108.98 L 84.19 109.26 C 83.35 106.15 81.07 107.52 78.65 106.43 C 77.56 104.78 77.20 104.19 75.13 103.92 C 67.86 102.65 61.80 99.31 54.14 99.80 C 50.28 94.05 43.46 90.47 38.88 85.28 C 45.91 80.54 51.37 85.53 58.25 82.80 C 60.74 86.55 64.98 84.73 65.55 89.37 C 66.92 96.50 71.73 98.04 77.94 99.86 C 77.05 95.50 71.19 90.49 68.45 86.54 C 65.24 83.61 67.98 80.40 65.27 77.01 C 70.49 77.21 71.69 73.61 76.91 76.91 C 72.69 70.78 74.14 66.68 78.03 60.89 Z" fill="#dabd93" />
<path d="M 174.52 60.58 C 175.67 62.35 176.60 64.29 177.57 66.19 C 177.64 67.73 177.02 69.32 176.69 70.82 C 174.94 76.48 175.99 80.27 178.91 85.14 C 179.14 90.63 174.72 90.48 177.56 97.11 C 177.55 99.01 177.43 100.90 177.43 102.80 C 176.63 109.38 171.36 109.15 176.33 116.19 L 176.12 117.03 C 175.45 119.10 175.16 121.04 175.08 123.22 C 173.22 125.12 171.66 127.14 170.19 129.36 C 167.70 130.04 165.51 129.44 163.07 128.89 C 161.63 125.24 163.19 119.33 160.07 116.88 C 159.29 114.94 158.63 112.96 157.87 111.01 C 160.26 107.07 159.46 106.14 158.12 102.07 C 162.48 103.21 162.44 105.28 163.86 109.14 C 167.12 104.95 171.28 103.57 169.17 97.48 C 170.85 96.86 178.86 96.56 174.91 93.33 C 171.57 84.42 175.78 80.82 173.11 72.31 C 176.68 70.56 174.57 64.26 174.52 60.58 Z" fill="#eee7da" />
<path d="M 31.71 64.08 C 32.20 70.33 33.31 76.41 33.11 82.70 C 30.35 82.23 27.79 81.51 24.95 81.71 C 25.10 80.07 25.31 78.44 25.57 76.81 C 26.43 84.29 28.12 75.01 27.72 72.76 C 28.17 70.78 28.91 63.73 31.71 64.08 Z" fill="#dccbb1" />
<path d="M 54.00 63.77 C 58.30 67.50 61.97 72.39 65.27 77.01 C 67.98 80.40 65.24 83.61 68.45 86.54 C 71.19 90.49 77.05 95.50 77.94 99.86 C 71.73 98.04 66.92 96.50 65.55 89.37 C 64.98 84.73 60.74 86.55 58.25 82.80 C 53.07 77.67 51.25 76.13 47.85 69.41 C 48.24 64.84 49.53 64.07 54.00 63.77 Z" fill="#ae8953" />
<path d="M 135.17 65.13 C 137.39 66.59 143.69 73.70 146.11 70.37 C 148.79 71.36 147.07 71.39 146.06 73.02 C 144.29 74.41 146.58 78.41 146.84 80.30 C 145.83 81.52 144.80 81.58 145.82 83.34 C 144.70 88.59 146.74 96.06 140.82 98.42 C 134.48 95.45 127.83 95.54 121.16 93.83 C 120.28 93.52 119.40 93.18 118.53 92.82 C 121.32 88.63 122.65 83.81 125.76 79.77 C 128.11 76.54 129.73 71.08 134.60 71.50 C 134.34 69.17 134.06 67.33 135.17 65.13 Z" fill="#dabd94" />
<path d="M 199.75 66.77 C 202.73 70.53 205.37 74.37 207.12 78.87 C 203.39 77.08 199.50 70.70 199.75 66.77 Z" fill="#84602f" />
<path d="M 47.85 69.41 C 51.25 76.13 53.07 77.67 58.25 82.80 C 51.37 85.53 45.91 80.54 38.88 85.28 C 38.31 84.84 37.75 84.41 37.18 83.97 C 40.24 79.15 44.06 73.74 47.85 69.41 Z" fill="#e8d9be" />
<path d="M 176.69 70.82 C 177.96 74.58 178.22 78.49 179.24 82.28 C 181.85 83.01 183.45 83.44 186.01 82.25 C 185.01 85.56 184.97 86.74 181.17 86.45 C 180.37 89.44 187.41 86.54 185.61 89.74 C 183.68 92.64 179.35 93.75 177.56 97.11 C 174.72 90.48 179.14 90.63 178.91 85.14 C 175.99 80.27 174.94 76.48 176.69 70.82 Z" fill="#d7b88a" />
<path d="M 155.68 72.03 C 152.77 77.52 154.92 82.45 153.88 88.15 C 152.01 85.05 152.40 77.97 148.03 83.52 C 147.29 83.46 146.56 83.40 145.82 83.34 C 144.80 81.58 145.83 81.52 146.84 80.30 C 150.90 77.57 147.52 76.11 146.06 73.02 C 149.25 72.32 152.40 71.80 155.68 72.03 Z" fill="#bbac93" />
<path d="M 146.06 73.02 C 147.52 76.11 150.90 77.57 146.84 80.30 C 146.58 78.41 144.29 74.41 146.06 73.02 Z" fill="#f3e8d7" />
<path d="M 207.57 79.92 C 208.80 82.60 209.58 85.11 210.03 88.03 C 207.41 85.97 206.73 83.06 207.57 79.92 Z" fill="#926d3d" />
<path d="M 153.88 88.15 C 155.54 92.00 157.64 95.73 161.09 98.24 C 160.80 98.83 160.51 99.42 160.19 100.00 C 157.44 96.47 153.42 94.04 152.14 89.88 C 151.09 87.36 150.61 84.97 148.03 83.52 C 152.40 77.97 152.01 85.05 153.88 88.15 Z" fill="#a58a60" />
<path d="M 145.82 83.34 C 146.56 83.40 147.29 83.46 148.03 83.52 C 150.61 84.97 151.09 87.36 152.14 89.88 C 153.42 94.04 157.44 96.47 160.19 100.00 C 158.63 102.25 156.98 97.63 154.33 99.35 C 150.28 99.62 155.51 103.63 154.39 106.20 C 150.41 102.36 145.90 100.35 140.82 98.42 C 146.74 96.06 144.70 88.59 145.82 83.34 Z" fill="#eadfc6" />
<path d="M 24.76 83.53 C 29.68 90.19 30.44 99.76 28.66 107.64 C 25.85 108.44 23.49 109.45 20.73 107.86 C 21.04 105.62 21.31 103.38 21.42 101.12 C 23.98 95.78 23.02 89.24 24.76 83.53 Z" fill="#e8dfca" />
<path d="M 37.18 83.97 C 37.75 84.41 38.31 84.84 38.88 85.28 C 43.46 90.47 50.28 94.05 54.14 99.80 C 52.23 100.50 50.33 101.26 48.40 101.91 C 43.95 99.20 39.02 97.57 34.80 94.35 C 29.59 91.29 36.78 87.57 37.18 83.97 Z" fill="#b79059" />
<path d="M 90.95 83.71 C 91.03 85.07 91.12 86.44 91.22 87.80 C 90.90 93.60 90.90 99.40 91.18 105.20 C 91.05 109.19 90.34 113.07 89.73 117.00 C 87.68 120.04 88.38 118.06 87.28 115.88 L 87.03 115.03 C 89.03 112.30 89.81 110.21 88.19 106.96 C 86.60 103.85 88.67 99.66 88.56 96.19 C 89.77 93.06 87.36 84.60 90.95 83.71 Z" fill="#473b34" />
<path d="M 91.22 87.80 C 92.23 92.25 96.12 102.39 91.18 105.20 C 90.90 99.40 90.90 93.60 91.22 87.80 Z" fill="#ad946b" />
<path d="M 210.03 88.03 C 212.13 90.74 213.30 93.84 214.35 97.07 C 211.95 98.82 210.30 89.59 210.03 88.03 Z" fill="#85602f" />
<path d="M 97.16 91.96 C 100.22 95.26 101.06 100.99 102.65 105.17 C 103.24 107.09 102.77 108.72 105.06 109.43 C 104.10 109.94 103.14 110.42 102.12 110.80 C 100.44 104.54 98.69 98.26 97.16 91.96 Z" fill="#685746" />
<path d="M 34.80 94.35 C 39.02 97.57 43.95 99.20 48.40 101.91 C 45.91 103.54 43.97 105.04 43.13 108.04 C 46.26 107.88 48.35 106.19 51.01 104.81 C 55.93 104.85 47.18 108.11 46.42 109.42 C 42.24 115.22 36.29 122.33 36.22 129.75 C 36.09 130.77 35.95 131.78 35.80 132.79 C 35.27 134.58 34.75 136.38 34.23 138.17 C 33.65 129.73 33.98 121.83 38.25 114.30 C 39.54 111.37 38.56 112.51 36.19 111.91 L 34.83 111.31 C 39.82 111.10 40.31 110.25 35.07 109.68 C 39.96 108.40 35.74 107.96 34.30 105.67 C 33.93 102.10 34.66 98.37 34.37 94.72 L 34.80 94.35 Z" fill="#c9af91" />
<path d="M 117.07 93.96 C 118.44 93.90 119.80 93.86 121.16 93.83 C 127.83 95.54 134.48 95.45 140.82 98.42 C 145.90 100.35 150.41 102.36 154.39 106.20 C 155.45 107.87 156.67 109.43 157.87 111.01 C 158.63 112.96 159.29 114.94 160.07 116.88 C 161.57 122.57 160.67 127.41 159.23 132.93 C 157.22 136.90 154.70 141.82 150.71 144.07 C 146.15 146.13 142.94 152.05 140.19 156.10 C 143.64 155.24 144.74 150.90 147.70 148.86 C 149.74 148.33 151.45 149.28 153.03 147.44 C 157.41 143.81 159.27 139.78 160.22 134.25 C 160.79 133.46 161.35 132.66 161.92 131.87 C 160.53 138.71 159.70 147.21 155.71 153.06 C 154.95 153.97 154.22 154.90 153.49 155.83 C 149.03 160.30 146.69 167.24 144.41 173.02 C 143.43 177.28 144.50 182.36 143.56 187.03 C 142.59 189.44 142.59 191.48 143.12 194.00 C 143.31 195.33 143.62 196.62 144.01 197.91 C 143.33 204.72 145.77 211.44 149.54 217.02 C 150.13 218.49 150.68 219.97 151.18 221.47 C 147.09 222.65 150.23 224.59 152.77 223.99 L 153.06 224.53 C 151.09 226.73 153.48 227.62 155.13 225.87 C 156.43 226.53 157.73 227.16 159.01 227.86 C 152.35 229.23 145.91 224.99 141.90 220.03 C 142.02 217.26 143.67 216.28 140.34 215.25 C 138.57 212.52 136.80 209.87 135.64 206.81 C 134.57 202.75 134.21 195.98 130.25 193.80 L 129.98 192.99 C 129.95 191.04 129.97 189.08 129.96 187.13 C 130.01 184.42 129.88 181.78 129.57 179.10 C 131.65 178.35 130.77 175.21 130.96 173.46 C 132.50 171.14 133.56 168.92 134.38 166.26 C 137.01 163.60 137.64 160.28 138.63 156.82 C 136.21 158.11 135.25 161.78 133.94 164.07 L 132.19 164.13 C 135.75 154.72 140.92 144.36 141.11 134.16 C 143.59 123.54 129.65 116.45 121.25 114.64 C 117.48 114.03 109.14 112.93 106.23 115.02 L 105.88 115.68 C 104.93 115.54 103.98 115.39 103.03 115.23 C 104.59 112.01 101.98 113.03 99.87 111.93 C 99.29 111.61 98.71 111.29 98.14 110.97 C 99.47 110.99 100.80 110.93 102.12 110.80 C 103.14 110.42 104.10 109.94 105.06 109.43 C 109.15 106.69 114.32 105.45 118.04 102.31 C 115.49 102.56 112.89 102.80 110.40 103.39 C 109.54 106.41 102.36 109.26 107.00 104.04 C 109.13 101.95 112.97 101.91 109.04 99.03 C 111.19 96.43 113.94 95.04 117.07 93.96 Z" fill="#24253e" />
<path d="M 187.23 94.22 C 189.63 96.16 193.16 96.26 188.60 98.69 C 187.46 99.50 186.34 100.32 185.11 101.00 C 185.50 98.65 186.22 96.38 187.23 94.22 Z" fill="#825926" />
<path d="M 34.37 94.72 C 34.66 98.37 33.93 102.10 34.30 105.67 C 35.74 107.96 39.96 108.40 35.07 109.68 C 40.31 110.25 39.82 111.10 34.83 111.31 C 33.13 110.57 31.49 109.70 29.88 108.78 C 31.72 104.72 30.64 97.12 34.37 94.72 Z" fill="#e8d1b3" />
<path d="M 163.28 97.10 C 163.31 100.79 167.34 98.32 169.17 97.48 C 171.28 103.57 167.12 104.95 163.86 109.14 C 162.44 105.28 162.48 103.21 158.12 102.07 C 159.46 106.14 160.26 107.07 157.87 111.01 C 156.67 109.43 155.45 107.87 154.39 106.20 C 155.51 103.63 150.28 99.62 154.33 99.35 C 156.98 97.63 158.63 102.25 160.19 100.00 C 160.51 99.42 160.80 98.83 161.09 98.24 C 161.81 97.83 162.54 97.45 163.28 97.10 Z" fill="#d1c5ae" />
<path d="M 109.04 99.03 C 112.97 101.91 109.13 101.95 107.00 104.04 C 105.55 104.41 104.10 104.78 102.65 105.17 C 104.89 103.22 107.07 101.26 109.04 99.03 Z" fill="#6a5e58" />
<path d="M 235.28 99.33 C 235.51 100.85 235.83 102.35 236.13 103.86 C 231.90 100.04 233.65 103.38 232.76 106.68 C 229.54 108.74 231.85 113.65 230.30 117.23 C 230.03 111.74 229.20 106.66 231.32 101.40 C 232.66 100.74 233.98 100.05 235.28 99.33 Z" fill="#6a6669" />
<path d="M 54.14 99.80 C 61.80 99.31 67.86 102.65 75.13 103.92 C 76.26 107.77 80.30 110.40 84.19 109.26 L 84.95 108.98 C 89.60 108.74 83.77 112.59 82.01 112.06 C 76.72 113.09 84.83 113.00 86.04 113.31 C 83.21 115.56 80.45 115.00 77.11 114.69 C 72.82 114.43 67.02 112.84 63.98 116.84 C 70.87 114.52 75.70 119.06 82.23 116.30 C 83.83 115.90 85.42 115.45 87.03 115.03 L 87.28 115.88 C 80.27 125.03 71.21 118.77 63.03 125.41 C 58.89 128.27 56.76 134.03 55.92 138.81 C 54.36 140.72 54.35 142.05 55.80 144.03 C 55.93 146.00 56.03 147.96 56.13 149.93 C 55.60 151.62 55.51 152.71 56.83 154.03 C 57.62 155.46 58.40 156.89 59.18 158.32 C 59.46 161.96 61.49 164.41 63.64 167.18 C 64.37 168.79 65.55 169.86 66.91 170.93 C 71.21 175.89 73.71 184.25 79.82 187.05 C 77.09 179.60 71.17 173.97 68.08 166.86 L 69.02 166.96 C 76.34 171.01 81.75 173.86 86.16 181.31 C 88.17 183.84 90.06 186.45 91.91 189.10 C 92.86 190.83 93.80 192.56 94.81 194.26 C 96.63 197.32 98.22 200.38 99.08 203.86 C 99.14 205.65 99.13 207.36 99.55 209.11 C 99.77 210.00 100.01 210.90 100.26 211.79 C 100.17 215.31 98.73 218.91 99.71 222.22 C 99.71 226.36 98.10 229.67 96.73 233.47 C 95.69 233.51 94.99 233.83 94.15 233.02 C 97.94 229.51 94.83 227.12 93.11 232.22 C 92.34 232.94 91.55 233.63 90.74 234.31 C 90.61 232.77 92.23 229.52 90.50 228.77 C 89.95 228.15 89.40 227.55 88.83 226.96 C 89.73 225.74 90.61 224.58 91.25 223.20 C 92.97 219.52 93.93 217.41 91.15 213.92 C 88.87 210.02 88.37 205.55 85.72 201.78 C 84.59 200.49 83.40 195.80 81.33 197.95 C 82.66 199.87 83.98 201.37 84.09 203.84 C 83.03 202.78 82.04 201.67 80.96 200.64 C 79.78 199.52 78.46 198.75 77.10 197.85 C 71.45 191.60 65.78 185.71 58.13 181.88 C 55.65 179.61 52.83 177.87 49.93 176.20 C 47.86 172.71 44.59 170.58 40.98 168.95 C 39.76 167.90 38.60 166.79 37.41 165.71 C 32.86 159.84 28.51 154.71 27.17 147.11 C 28.73 145.24 30.04 144.67 29.10 141.99 C 26.66 135.64 26.89 129.46 27.86 122.83 C 28.29 121.94 28.75 121.06 29.25 120.20 C 32.16 117.99 33.70 114.80 36.19 111.91 C 38.56 112.51 39.54 111.37 38.25 114.30 C 33.98 121.83 33.65 129.73 34.23 138.17 C 34.39 140.21 34.86 142.22 35.75 144.07 C 36.23 140.29 35.96 136.58 35.80 132.79 C 35.95 131.78 36.09 130.77 36.22 129.75 C 36.81 132.13 37.02 134.55 37.34 136.96 C 40.83 135.53 42.71 132.69 46.97 133.21 C 50.24 133.91 56.76 131.35 56.36 127.38 C 55.96 122.22 57.61 121.98 61.13 118.85 C 57.59 117.01 55.86 113.53 57.78 109.83 C 60.55 106.63 53.44 102.35 51.01 104.81 C 48.35 106.19 46.26 107.88 43.13 108.04 C 43.97 105.04 45.91 103.54 48.40 101.91 C 50.33 101.26 52.23 100.50 54.14 99.80 Z" fill="#25253e" />
<path d="M 118.04 102.31 C 114.32 105.45 109.15 106.69 105.06 109.43 C 102.77 108.72 103.24 107.09 102.65 105.17 C 104.10 104.78 105.55 104.41 107.00 104.04 C 102.36 109.26 109.54 106.41 110.40 103.39 C 112.89 102.80 115.49 102.56 118.04 102.31 Z" fill="#a89c96" />
<path d="M 236.13 103.86 C 236.37 104.92 236.57 105.97 236.75 107.04 C 235.49 109.32 235.70 111.52 236.11 114.00 L 235.76 115.93 C 234.37 117.96 234.63 119.79 235.27 122.03 C 235.12 122.99 234.98 123.95 234.83 124.91 C 233.47 126.25 233.62 127.41 234.23 129.09 C 232.04 138.86 229.43 153.87 220.77 159.93 C 216.45 162.02 211.35 169.79 214.34 174.41 C 217.27 175.04 219.04 174.02 219.12 178.02 C 216.80 179.16 214.52 180.30 211.99 180.94 C 207.86 178.33 207.66 174.38 206.70 170.02 C 205.79 167.51 203.37 168.42 201.74 169.76 C 200.72 172.10 202.68 175.42 202.87 177.93 C 201.53 177.21 200.34 176.76 199.79 175.21 C 199.90 172.83 200.07 170.54 199.86 168.16 C 197.02 167.51 198.40 170.08 198.06 171.83 C 198.01 175.61 198.66 179.24 198.28 183.01 C 197.32 181.60 196.33 180.22 195.23 178.91 C 194.14 175.52 191.01 171.86 191.15 168.31 C 193.85 167.74 195.89 165.82 195.22 162.92 C 196.18 162.24 197.17 161.59 198.19 161.00 C 202.80 160.19 203.58 167.12 206.92 163.48 C 210.16 162.43 213.44 162.42 214.74 158.71 C 216.50 153.51 216.98 148.37 220.30 143.70 C 221.90 141.65 223.76 139.45 224.65 136.98 L 225.19 135.29 C 227.45 132.65 228.10 131.41 227.89 127.80 C 227.93 126.96 227.97 126.11 228.01 125.26 C 228.81 122.60 229.63 119.93 230.30 117.23 C 231.85 113.65 229.54 108.74 232.76 106.68 C 233.65 103.38 231.90 100.04 236.13 103.86 Z" fill="#2c2b40" />
<path d="M 145.38 103.17 C 146.97 102.08 148.24 103.64 149.28 104.70 C 148.06 105.14 144.57 105.35 145.38 103.17 Z" fill="#7f7e96" />
<path d="M 177.43 102.80 C 178.70 107.47 177.53 111.68 176.33 116.19 C 171.36 109.15 176.63 109.38 177.43 102.80 Z" fill="#e1cca6" />
<path d="M 188.02 103.01 C 192.92 105.07 194.77 114.85 189.67 117.73 C 186.72 119.27 184.78 114.92 182.40 113.58 C 179.11 112.12 178.57 104.66 182.75 104.14 C 182.55 106.61 182.12 109.21 182.27 111.69 C 184.37 112.87 186.90 114.14 187.99 111.00 C 187.03 108.33 186.79 108.62 184.15 108.52 C 183.40 104.87 185.05 104.22 188.02 103.01 Z" fill="#795529" />
<path d="M 195.09 103.00 C 198.82 105.39 197.57 109.10 198.32 112.85 C 199.19 116.95 200.96 121.32 200.93 125.84 L 199.32 125.79 C 198.54 118.05 196.29 110.63 195.09 103.00 Z" fill="#7c5420" />
<path d="M 57.78 109.83 C 55.86 113.53 57.59 117.01 61.13 118.85 C 57.61 121.98 55.96 122.22 56.36 127.38 C 56.76 131.35 50.24 133.91 46.97 133.21 C 42.71 132.69 40.83 135.53 37.34 136.96 C 37.02 134.55 36.81 132.13 36.22 129.75 C 36.29 122.33 42.24 115.22 46.42 109.42 C 47.18 108.11 55.93 104.85 51.01 104.81 C 53.44 102.35 60.55 106.63 57.78 109.83 Z" fill="#323246" />
<path d="M 75.13 103.92 C 77.20 104.19 77.56 104.78 78.65 106.43 C 81.07 107.52 83.35 106.15 84.19 109.26 C 80.30 110.40 76.26 107.77 75.13 103.92 Z" fill="#8f796e" />
<path d="M 149.28 104.70 C 151.39 106.23 158.00 109.86 153.02 112.11 C 149.94 109.81 147.91 108.80 149.28 104.70 Z" fill="#4e4f67" />
<path d="M 88.19 106.96 C 89.81 110.21 89.03 112.30 87.03 115.03 C 85.42 115.45 83.83 115.90 82.23 116.30 C 81.22 115.81 74.06 116.81 77.11 114.69 C 80.45 115.00 83.21 115.56 86.04 113.31 C 84.83 113.00 76.72 113.09 82.01 112.06 C 83.77 112.59 89.60 108.74 84.95 108.98 C 86.04 108.32 87.12 107.65 88.19 106.96 Z" fill="#b4a49b" />
<path d="M 121.00 107.03 C 118.43 110.27 111.88 111.29 107.96 110.86 C 109.49 108.26 112.21 109.41 114.83 108.63 C 116.91 108.10 118.85 107.28 121.00 107.03 Z" fill="#626173" />
<path d="M 236.75 107.04 C 237.34 109.56 237.35 111.55 236.66 114.06 L 236.11 114.00 C 235.70 111.52 235.49 109.32 236.75 107.04 Z" fill="#8a8a96" />
<path d="M 239.56 108.13 C 242.11 114.71 242.92 121.45 241.36 128.38 C 237.30 148.18 229.14 168.12 233.45 188.65 C 238.18 198.42 235.72 211.83 232.20 221.69 C 230.79 229.18 227.38 236.08 219.85 238.75 C 209.32 242.38 200.25 239.55 189.65 240.40 C 183.76 240.29 180.98 236.61 176.23 234.02 C 183.19 229.27 189.16 229.31 196.84 226.72 C 198.04 226.75 199.23 226.81 200.42 226.90 C 197.72 229.94 194.34 230.48 190.73 231.78 C 187.53 234.33 195.72 234.82 196.93 235.24 C 204.07 237.55 208.64 233.79 211.11 227.35 C 212.06 226.53 213.03 225.74 213.99 224.94 C 213.78 228.55 212.12 231.51 214.30 234.78 C 217.40 234.96 220.64 234.11 223.71 233.65 C 224.06 231.52 224.13 229.34 224.32 227.19 C 224.69 225.53 225.06 223.86 225.42 222.20 C 226.51 218.43 227.03 214.58 227.76 210.73 C 229.33 208.74 228.80 208.16 227.96 205.99 C 228.20 204.63 228.51 203.28 228.73 201.91 C 228.76 196.79 222.86 197.20 227.72 192.15 C 222.64 184.19 219.21 190.86 212.89 192.56 C 215.57 185.57 208.83 187.80 210.19 181.54 L 211.99 180.94 C 214.52 180.30 216.80 179.16 219.12 178.02 C 224.74 181.98 230.89 161.76 220.83 166.44 C 223.13 163.12 226.38 162.41 220.77 159.93 C 229.43 153.87 232.04 138.86 234.23 129.09 C 235.48 127.71 235.38 126.60 234.83 124.91 C 234.98 123.95 235.12 122.99 235.27 122.03 C 236.61 120.00 236.36 118.18 235.76 115.93 L 236.11 114.00 L 236.66 114.06 C 238.49 119.21 238.16 109.36 239.56 108.13 Z" fill="#f3f1ec" />
<path d="M 29.88 108.78 C 31.49 109.70 33.13 110.57 34.83 111.31 L 36.19 111.91 C 33.70 114.80 32.16 117.99 29.25 120.20 C 29.58 115.48 27.49 113.67 29.88 108.78 Z" fill="#8b755e" />
<path d="M 98.14 110.97 C 98.71 111.29 99.29 111.61 99.87 111.93 C 98.46 116.06 99.65 114.48 103.03 115.23 C 103.98 115.39 104.93 115.54 105.88 115.68 C 108.32 118.47 102.14 118.67 107.62 120.86 C 106.81 128.35 114.34 127.64 109.01 133.89 C 108.21 134.63 107.42 135.38 106.64 136.15 C 105.92 134.96 105.12 133.77 104.57 132.49 C 108.23 130.50 105.73 125.66 105.61 122.32 C 104.37 120.13 97.70 117.53 95.35 119.31 C 91.61 120.07 93.90 125.85 90.64 127.64 C 88.21 128.92 85.84 128.69 83.22 128.72 C 78.51 130.23 79.51 135.88 75.25 137.32 C 72.93 138.23 73.46 139.80 72.97 141.80 C 71.63 142.35 70.33 142.97 69.00 143.52 C 67.24 139.31 65.81 136.73 62.49 133.53 C 61.66 131.29 63.87 128.11 63.03 125.41 C 71.21 118.77 80.27 125.03 87.28 115.88 C 88.38 118.06 87.68 120.04 89.73 117.00 C 91.04 121.77 91.14 114.54 92.16 113.25 C 93.94 113.83 93.47 118.51 95.94 117.97 C 100.93 116.90 92.05 108.12 98.14 110.97 Z" fill="#cfad7a" />
<path d="M 99.87 111.93 C 101.98 113.03 104.59 112.01 103.03 115.23 C 99.65 114.48 98.46 116.06 99.87 111.93 Z" fill="#695f52" />
<path d="M 77.11 114.69 C 74.06 116.81 81.22 115.81 82.23 116.30 C 75.70 119.06 70.87 114.52 63.98 116.84 C 67.02 112.84 72.82 114.43 77.11 114.69 Z" fill="#69636c" />
<path d="M 121.25 114.64 C 116.24 115.17 111.26 114.98 106.23 115.02 C 109.14 112.93 117.48 114.03 121.25 114.64 Z" fill="#705f56" />
<path d="M 106.23 115.02 C 111.26 114.98 116.24 115.17 121.25 114.64 C 129.65 116.45 143.59 123.54 141.11 134.16 L 140.44 133.84 C 138.19 133.15 137.10 130.66 136.47 134.23 C 135.01 138.08 129.32 144.26 125.37 139.61 C 118.48 137.95 115.76 131.85 109.01 133.89 C 114.34 127.64 106.81 128.35 107.62 120.86 C 102.14 118.67 108.32 118.47 105.88 115.68 L 106.23 115.02 Z" fill="#d7ba8e" />
<path d="M 179.74 116.05 C 177.24 118.50 178.50 122.40 175.08 123.22 C 175.16 121.04 175.45 119.10 176.12 117.03 C 177.32 116.69 178.52 116.35 179.74 116.05 Z" fill="#dfc296" />
<path d="M 235.76 115.93 C 236.36 118.18 236.61 120.00 235.27 122.03 C 234.63 119.79 234.37 117.96 235.76 115.93 Z" fill="#7f7f8f" />
<path d="M 160.07 116.88 C 163.19 119.33 161.63 125.24 163.07 128.89 C 162.69 129.88 162.30 130.88 161.92 131.87 C 161.35 132.66 160.79 133.46 160.22 134.25 L 159.23 132.93 C 160.67 127.41 161.57 122.57 160.07 116.88 Z" fill="#898985" />
<path d="M 19.15 118.16 C 22.16 116.71 21.49 124.60 19.16 125.02 C 18.96 122.73 18.89 120.45 19.15 118.16 Z" fill="#cbc8bd" />
<path d="M 105.61 122.32 C 105.73 125.66 108.23 130.50 104.57 132.49 C 105.12 133.77 105.92 134.96 106.64 136.15 L 107.56 137.66 C 105.16 140.71 105.93 139.66 103.52 137.70 C 100.94 138.27 98.71 139.52 96.76 141.29 C 94.42 139.26 92.10 138.76 89.09 135.83 C 82.75 136.72 75.95 136.54 74.10 144.20 C 73.73 143.40 73.35 142.60 72.97 141.80 C 73.46 139.80 72.93 138.23 75.25 137.32 C 79.51 135.88 78.51 130.23 83.22 128.72 C 85.84 128.69 88.21 128.92 90.64 127.64 C 93.90 125.85 91.61 120.07 95.35 119.31 C 97.70 117.53 104.37 120.13 105.61 122.32 Z" fill="#c79b5c" />
<path d="M 186.53 119.75 C 180.07 127.80 174.30 135.13 172.75 145.84 C 172.24 151.19 167.65 151.65 165.12 156.15 C 163.60 158.83 160.67 157.75 158.05 158.08 C 156.51 157.37 154.99 156.62 153.49 155.83 C 154.22 154.90 154.95 153.97 155.71 153.06 C 156.73 153.91 158.30 155.74 159.75 155.52 C 166.89 156.15 167.97 144.38 170.50 139.59 C 171.77 133.99 176.76 133.95 176.87 127.82 C 180.29 126.45 183.12 117.90 186.53 119.75 Z" fill="#42353d" />
<path d="M 186.53 119.75 C 187.61 120.09 188.68 120.44 189.75 120.80 C 190.47 121.66 191.23 122.49 192.02 123.29 C 195.55 129.43 198.83 135.31 200.43 142.31 C 196.70 147.40 189.65 151.60 183.79 147.19 C 176.49 142.62 184.94 158.51 176.30 156.05 C 177.97 151.98 181.15 148.77 175.47 146.18 C 174.61 150.49 174.56 154.33 174.60 158.68 C 172.75 159.72 170.45 158.75 171.12 161.74 C 175.02 164.73 171.90 167.39 176.02 170.20 C 173.98 174.10 171.88 168.87 168.93 168.31 C 166.10 164.59 160.78 162.39 156.21 161.64 C 155.50 159.64 156.91 159.34 158.05 158.08 C 160.67 157.75 163.60 158.83 165.12 156.15 C 167.65 151.65 172.24 151.19 172.75 145.84 C 174.30 135.13 180.07 127.80 186.53 119.75 Z" fill="#d9c8be" />
<path d="M 192.02 123.29 C 191.23 122.49 190.47 121.66 189.75 120.80 C 192.09 118.96 194.16 121.13 192.02 123.29 Z" fill="#775530" />
<path d="M 27.86 122.83 C 26.89 129.46 26.66 135.64 29.10 141.99 C 30.04 144.67 28.73 145.24 27.17 147.11 C 26.68 144.63 25.97 142.29 25.05 139.94 C 23.30 135.47 25.80 127.12 27.86 122.83 Z" fill="#6d6a6d" />
<path d="M 234.83 124.91 C 235.38 126.60 235.48 127.71 234.23 129.09 C 233.62 127.41 233.47 126.25 234.83 124.91 Z" fill="#808189" />
<path d="M 63.03 125.41 C 63.87 128.11 61.66 131.29 62.49 133.53 C 65.81 136.73 67.24 139.31 69.00 143.52 C 70.33 142.97 71.63 142.35 72.97 141.80 C 73.35 142.60 73.73 143.40 74.10 144.20 L 73.87 144.93 C 71.81 146.09 69.89 147.44 67.89 148.70 C 64.74 147.57 62.31 145.76 58.75 146.05 C 57.33 143.91 56.96 141.19 55.92 138.81 C 56.76 134.03 58.89 128.27 63.03 125.41 Z" fill="#dec9a8" />
<path d="M 227.89 127.80 C 228.10 131.41 227.45 132.65 225.19 135.29 C 225.67 132.63 226.71 130.22 227.89 127.80 Z" fill="#76614a" />
<path d="M 163.07 128.89 C 165.51 129.44 167.70 130.04 170.19 129.36 C 169.06 131.48 166.07 130.62 164.60 132.68 C 163.30 134.50 163.12 132.70 161.92 131.87 C 162.30 130.88 162.69 129.88 163.07 128.89 Z" fill="#d7ba90" />
<path d="M 140.44 133.84 C 136.61 138.62 131.37 142.16 127.24 146.75 C 122.75 144.13 128.86 143.36 125.37 139.61 C 129.32 144.26 135.01 138.08 136.47 134.23 C 137.10 130.66 138.19 133.15 140.44 133.84 Z" fill="#a98c61" />
<path d="M 35.80 132.79 C 35.96 136.58 36.23 140.29 35.75 144.07 C 34.86 142.22 34.39 140.21 34.23 138.17 C 34.75 136.38 35.27 134.58 35.80 132.79 Z" fill="#565360" />
<path d="M 125.37 139.61 C 128.86 143.36 122.75 144.13 127.24 146.75 C 125.41 148.22 123.32 149.09 121.22 150.07 C 119.83 147.08 118.22 147.85 117.90 150.81 C 116.61 151.56 115.34 152.33 114.09 153.15 C 113.35 152.83 112.61 152.51 111.86 152.18 C 114.14 151.67 113.73 151.93 113.29 149.90 C 116.46 145.02 115.52 141.29 109.36 140.63 C 108.83 139.59 108.25 138.61 107.56 137.66 L 106.64 136.15 C 107.42 135.38 108.21 134.63 109.01 133.89 C 115.76 131.85 118.48 137.95 125.37 139.61 Z" fill="#7f6043" />
<path d="M 159.23 132.93 L 160.22 134.25 C 159.27 139.78 157.41 143.81 153.03 147.44 C 152.21 146.34 151.44 145.22 150.71 144.07 C 154.70 141.82 157.22 136.90 159.23 132.93 Z" fill="#cec2ac" />
<path d="M 140.44 133.84 L 141.11 134.16 C 140.92 144.36 135.75 154.72 132.19 164.13 C 131.62 165.68 131.12 167.24 130.66 168.82 C 126.25 167.74 123.82 166.99 122.69 162.17 C 121.93 159.29 121.40 160.67 119.16 161.02 C 116.87 156.30 118.97 154.08 121.22 150.07 C 123.32 149.09 125.41 148.22 127.24 146.75 C 131.37 142.16 136.61 138.62 140.44 133.84 Z" fill="#c1ae9e" />
<path d="M 224.65 136.98 C 223.76 139.45 221.90 141.65 220.30 143.70 C 215.30 143.05 210.94 150.62 211.59 155.11 C 211.58 158.18 208.92 161.34 206.92 163.48 C 203.58 167.12 202.80 160.19 198.19 161.00 C 204.98 158.43 203.62 155.61 201.50 150.03 C 203.94 149.64 202.64 145.86 202.65 144.19 C 202.80 143.19 202.96 142.21 203.15 141.22 C 206.22 144.38 216.33 147.07 216.06 140.04 C 215.32 136.29 222.54 139.40 222.83 136.86 C 223.48 132.70 223.47 134.48 224.65 136.98 Z" fill="#cca876" />
<path d="M 89.09 135.83 C 92.10 138.76 94.42 139.26 96.76 141.29 C 98.71 139.52 100.94 138.27 103.52 137.70 C 105.93 139.66 105.16 140.71 107.56 137.66 C 108.25 138.61 108.83 139.59 109.36 140.63 C 104.61 143.67 107.41 151.58 113.29 149.90 C 113.73 151.93 114.14 151.67 111.86 152.18 C 109.52 152.08 107.49 152.87 105.27 153.41 C 103.22 152.07 101.39 150.43 99.23 149.21 C 97.57 153.96 95.01 156.93 90.12 158.57 C 84.38 153.96 78.14 151.18 73.87 144.93 L 74.10 144.20 C 75.95 136.54 82.75 136.72 89.09 135.83 Z" fill="#73502b" />
<path d="M 202.49 136.91 C 202.17 139.41 201.92 141.71 202.65 144.19 C 202.64 145.86 203.94 149.64 201.50 150.03 C 200.73 147.42 200.97 144.45 200.90 141.75 C 201.29 140.27 200.36 136.99 202.49 136.91 Z" fill="#87643b" />
<path d="M 22.00 138.66 C 23.02 139.08 24.03 139.51 25.05 139.94 C 25.97 142.29 26.68 144.63 27.17 147.11 C 28.51 154.71 32.86 159.84 37.41 165.71 C 34.62 167.23 35.06 167.12 33.08 164.90 C 27.97 160.59 29.01 153.87 23.92 149.92 C 23.12 147.93 21.44 136.22 20.64 144.18 C 19.78 141.26 19.67 140.79 22.00 138.66 Z" fill="#e5daca" />
<path d="M 55.92 138.81 C 56.41 140.57 56.20 142.28 55.80 144.03 C 54.35 142.05 54.36 140.72 55.92 138.81 Z" fill="#7f7b7e" />
<path d="M 55.92 138.81 C 56.96 141.19 57.33 143.91 58.75 146.05 C 63.41 150.40 72.90 151.01 78.28 155.73 C 80.52 156.83 82.16 161.75 84.56 158.58 C 85.19 157.53 86.37 159.70 86.98 160.02 C 91.54 165.87 96.00 171.07 95.00 179.01 C 94.58 183.76 97.51 187.22 99.20 191.72 C 97.74 192.57 96.27 193.41 94.81 194.26 C 93.80 192.56 92.86 190.83 91.91 189.10 C 93.65 183.78 93.00 177.60 92.84 172.02 C 91.17 175.65 89.58 178.99 86.16 181.31 C 81.75 173.86 76.34 171.01 69.02 166.96 C 65.21 162.93 62.72 159.64 60.59 154.45 C 58.53 152.80 59.63 157.26 59.18 158.32 C 58.40 156.89 57.62 155.46 56.83 154.03 C 57.39 152.37 57.53 151.20 56.13 149.93 C 56.03 147.96 55.93 146.00 55.80 144.03 C 56.20 142.28 56.41 140.57 55.92 138.81 Z" fill="#ece8e0" />
<path d="M 23.92 149.92 C 24.24 153.84 25.34 157.54 26.67 161.22 L 25.71 161.27 C 22.16 155.88 22.45 150.12 20.64 144.18 C 21.44 136.22 23.12 147.93 23.92 149.92 Z" fill="#83756d" />
<path d="M 109.36 140.63 C 115.52 141.29 116.46 145.02 113.29 149.90 C 107.41 151.58 104.61 143.67 109.36 140.63 Z" fill="#c87dd4" />
<path d="M 200.43 142.31 L 200.90 141.75 C 200.97 144.45 200.73 147.42 201.50 150.03 C 203.62 155.61 204.98 158.43 198.19 161.00 C 197.17 161.59 196.18 162.24 195.22 162.92 C 192.88 164.36 191.76 165.57 191.15 168.31 C 191.01 171.86 194.14 175.52 195.23 178.91 C 192.02 178.60 192.16 173.88 189.20 173.97 C 186.37 177.72 185.16 179.51 180.44 177.30 C 178.99 181.26 178.06 185.16 176.03 188.87 C 172.01 188.16 171.31 186.86 168.93 190.92 C 166.05 189.41 163.40 187.76 160.19 186.99 C 157.40 183.22 163.82 185.54 162.71 181.37 C 162.27 179.03 162.57 173.32 158.99 174.02 C 153.38 172.83 163.33 180.26 158.07 178.95 C 154.48 175.97 150.20 175.45 148.39 170.51 C 146.82 166.39 148.06 175.34 144.41 173.02 C 146.69 167.24 149.03 160.30 153.49 155.83 C 154.99 156.62 156.51 157.37 158.05 158.08 C 156.91 159.34 155.50 159.64 156.21 161.64 C 160.78 162.39 166.10 164.59 168.93 168.31 C 171.88 168.87 173.98 174.10 176.02 170.20 C 171.90 167.39 175.02 164.73 171.12 161.74 C 170.45 158.75 172.75 159.72 174.60 158.68 C 174.56 154.33 174.61 150.49 175.47 146.18 C 181.15 148.77 177.97 151.98 176.30 156.05 C 184.94 158.51 176.49 142.62 183.79 147.19 C 189.65 151.60 196.70 147.40 200.43 142.31 Z" fill="#cebbb9" />
<path d="M 220.30 143.70 C 216.98 148.37 216.50 153.51 214.74 158.71 C 213.44 162.42 210.16 162.43 206.92 163.48 C 208.92 161.34 211.58 158.18 211.59 155.11 C 210.94 150.62 215.30 143.05 220.30 143.70 Z" fill="#e1d6c1" />
<path d="M 83.30 144.24 C 88.12 142.41 92.77 147.59 88.25 151.28 C 83.95 155.38 80.01 147.74 83.30 144.24 Z" fill="#cd7ddc" />
<path d="M 150.71 144.07 C 151.44 145.22 152.21 146.34 153.03 147.44 C 151.45 149.28 149.74 148.33 147.70 148.86 C 144.74 150.90 143.64 155.24 140.19 156.10 C 142.94 152.05 146.15 146.13 150.71 144.07 Z" fill="#64606b" />
<path d="M 36.21 145.49 C 37.27 145.20 38.94 148.93 38.51 149.80 C 36.83 150.51 35.33 146.64 36.21 145.49 Z" fill="#676878" />
<path d="M 73.87 144.93 C 78.14 151.18 84.38 153.96 90.12 158.57 L 88.90 159.15 C 88.26 159.44 87.62 159.73 86.98 160.02 C 86.37 159.70 85.19 157.53 84.56 158.58 C 82.16 161.75 80.52 156.83 78.28 155.73 C 72.90 151.01 63.41 150.40 58.75 146.05 C 62.31 145.76 64.74 147.57 67.89 148.70 C 69.89 147.44 71.81 146.09 73.87 144.93 Z" fill="#8b7457" />
<path d="M 121.22 150.07 C 120.25 150.65 119.14 150.89 117.90 150.81 C 118.22 147.85 119.83 147.08 121.22 150.07 Z" fill="#bcac93" />
<path d="M 99.23 149.21 C 101.39 150.43 103.22 152.07 105.27 153.41 C 107.49 152.87 109.52 152.08 111.86 152.18 C 112.61 152.51 113.35 152.83 114.09 153.15 C 110.56 158.69 116.09 164.41 114.91 170.99 C 115.80 176.39 110.44 173.44 107.73 175.62 L 106.05 176.04 C 103.14 173.98 99.71 174.17 98.53 170.60 C 97.84 169.12 97.86 164.47 95.91 164.28 C 91.70 164.12 91.10 162.16 88.90 159.15 L 90.12 158.57 C 95.01 156.93 97.57 153.96 99.23 149.21 Z" fill="#c89c5d" />
<path d="M 23.92 149.92 C 29.01 153.87 27.97 160.59 33.08 164.90 C 35.06 167.12 34.62 167.23 37.41 165.71 C 38.60 166.79 39.76 167.90 40.98 168.95 C 41.90 170.57 42.81 172.20 43.70 173.83 C 42.07 175.96 46.12 176.67 47.31 177.72 C 50.42 179.28 50.43 182.15 49.03 184.98 C 47.97 185.76 46.93 186.57 45.89 187.37 C 43.45 188.89 40.96 189.53 40.28 185.92 C 37.09 177.07 30.10 170.10 26.67 161.22 C 25.34 157.54 24.24 153.84 23.92 149.92 Z" fill="#c8a875" />
<path d="M 56.13 149.93 C 57.53 151.20 57.39 152.37 56.83 154.03 C 55.51 152.71 55.60 151.62 56.13 149.93 Z" fill="#777679" />
<path d="M 121.22 150.07 C 118.97 154.08 116.87 156.30 119.16 161.02 C 118.63 162.64 119.60 164.16 117.22 163.85 C 117.03 159.14 115.89 155.18 117.90 150.81 C 119.14 150.89 120.25 150.65 121.22 150.07 Z" fill="#78644e" />
<path d="M 117.90 150.81 C 115.89 155.18 117.03 159.14 117.22 163.85 C 119.60 164.16 118.63 162.64 119.16 161.02 C 121.40 160.67 121.93 159.29 122.69 162.17 C 123.82 166.99 126.25 167.74 130.66 168.82 C 130.30 170.59 130.25 171.76 130.96 173.46 C 130.77 175.21 131.65 178.35 129.57 179.10 C 128.26 175.57 125.35 176.00 122.44 174.52 C 120.69 173.02 119.57 170.77 118.01 169.06 C 118.29 171.24 119.02 173.27 119.81 175.31 C 116.88 176.32 114.42 178.09 116.70 181.24 C 119.60 183.81 115.27 186.51 113.93 188.73 C 110.18 184.81 110.24 180.08 107.73 175.62 C 110.44 173.44 115.80 176.39 114.91 170.99 C 116.09 164.41 110.56 158.69 114.09 153.15 C 115.34 152.33 116.61 151.56 117.90 150.81 Z" fill="#c5a97f" />
<path d="M 60.59 154.45 C 62.72 159.64 65.21 162.93 69.02 166.96 L 68.08 166.86 C 65.77 165.88 64.98 163.54 63.64 167.18 C 61.49 164.41 59.46 161.96 59.18 158.32 C 59.63 157.26 58.53 152.80 60.59 154.45 Z" fill="#a09d98" />
<path d="M 138.63 156.82 C 137.64 160.28 137.01 163.60 134.38 166.26 L 133.94 164.07 C 135.25 161.78 136.21 158.11 138.63 156.82 Z" fill="#9995a3" />
<path d="M 88.90 159.15 C 91.10 162.16 91.70 164.12 95.91 164.28 C 94.77 172.68 99.04 178.38 100.79 186.21 C 100.60 188.14 100.23 190.05 99.89 191.96 L 99.20 191.72 C 97.51 187.22 94.58 183.76 95.00 179.01 C 96.00 171.07 91.54 165.87 86.98 160.02 C 87.62 159.73 88.26 159.44 88.90 159.15 Z" fill="#ddc6a3" />
<path d="M 220.77 159.93 C 226.38 162.41 223.13 163.12 220.83 166.44 C 230.89 161.76 224.74 181.98 219.12 178.02 C 219.04 174.02 217.27 175.04 214.34 174.41 C 211.35 169.79 216.45 162.02 220.77 159.93 Z" fill="#dbcbb2" />
<path d="M 25.71 161.27 L 26.67 161.22 C 30.10 170.10 37.09 177.07 40.28 185.92 C 39.13 186.62 37.96 187.29 36.81 187.98 L 36.01 187.80 C 34.39 186.36 32.88 186.61 30.97 187.29 L 30.23 187.09 C 27.84 184.97 26.59 184.28 30.85 183.94 C 32.26 184.71 35.72 187.90 34.93 184.03 C 33.02 176.27 27.92 168.98 25.71 161.27 Z" fill="#474044" />
<path d="M 138.34 163.46 C 140.00 163.31 139.05 168.41 137.30 167.62 C 136.80 166.45 137.67 164.46 138.34 163.46 Z" fill="#7f7a8c" />
<path d="M 195.22 162.92 C 195.89 165.82 193.85 167.74 191.15 168.31 C 191.76 165.57 192.88 164.36 195.22 162.92 Z" fill="#63586b" />
<path d="M 95.91 164.28 C 97.86 164.47 97.84 169.12 98.53 170.60 C 99.71 174.17 103.14 173.98 106.05 176.04 C 106.97 180.45 110.79 190.58 105.16 192.95 C 103.03 190.02 102.89 186.41 101.33 182.94 C 101.13 184.03 100.95 185.12 100.79 186.21 C 99.04 178.38 94.77 172.68 95.91 164.28 Z" fill="#cba773" />
<path d="M 132.19 164.13 L 133.94 164.07 L 134.38 166.26 C 133.56 168.92 132.50 171.14 130.96 173.46 C 130.25 171.76 130.30 170.59 130.66 168.82 C 131.12 167.24 131.62 165.68 132.19 164.13 Z" fill="#6c6263" />
<path d="M 68.08 166.86 C 71.17 173.97 77.09 179.60 79.82 187.05 C 73.71 184.25 71.21 175.89 66.91 170.93 C 67.31 167.97 66.43 167.45 63.64 167.18 C 64.98 163.54 65.77 165.88 68.08 166.86 Z" fill="#e4e2e7" />
<path d="M 63.64 167.18 C 66.43 167.45 67.31 167.97 66.91 170.93 C 65.55 169.86 64.37 168.79 63.64 167.18 Z" fill="#a6a3a3" />
<path d="M 199.86 168.16 C 200.07 170.54 199.90 172.83 199.79 175.21 C 199.19 174.09 198.62 172.97 198.06 171.83 C 198.40 170.08 197.02 167.51 199.86 168.16 Z" fill="#70666e" />
<path d="M 206.70 170.02 C 204.23 170.85 203.66 172.56 201.74 169.76 C 203.37 168.42 205.79 167.51 206.70 170.02 Z" fill="#6a5e64" />
<path d="M 40.98 168.95 C 44.59 170.58 47.86 172.71 49.93 176.20 C 47.69 175.65 45.74 174.91 43.70 173.83 C 42.81 172.20 41.90 170.57 40.98 168.95 Z" fill="#7d6f67" />
<path d="M 118.01 169.06 C 119.57 170.77 120.69 173.02 122.44 174.52 C 125.35 176.00 128.26 175.57 129.57 179.10 C 129.88 181.78 130.01 184.42 129.96 187.13 C 128.10 185.44 128.44 183.89 125.88 185.68 C 123.86 182.14 121.43 179.06 119.81 175.31 C 119.02 173.27 118.29 171.24 118.01 169.06 Z" fill="#6b6363" />
<path d="M 148.39 170.51 C 150.20 175.45 154.48 175.97 158.07 178.95 C 163.33 180.26 153.38 172.83 158.99 174.02 C 162.57 173.32 162.27 179.03 162.71 181.37 C 163.82 185.54 157.40 183.22 160.19 186.99 C 159.97 190.21 157.94 190.92 155.56 192.46 C 157.53 194.87 156.43 196.91 158.81 199.07 C 154.17 199.01 151.47 194.94 146.97 195.51 C 144.83 196.04 145.07 192.24 144.49 190.89 C 144.23 189.60 143.92 188.31 143.56 187.03 C 144.50 182.36 143.43 177.28 144.41 173.02 C 148.06 175.34 146.82 166.39 148.39 170.51 Z" fill="#c9ae96" />
<path d="M 201.74 169.76 C 203.66 172.56 204.23 170.85 206.70 170.02 C 207.66 174.38 207.86 178.33 211.99 180.94 L 210.19 181.54 C 206.85 183.35 203.84 181.08 200.59 183.65 C 198.92 184.21 197.96 186.21 198.28 183.01 C 198.66 179.24 198.01 175.61 198.06 171.83 C 198.62 172.97 199.19 174.09 199.79 175.21 C 200.34 176.76 201.53 177.21 202.87 177.93 C 202.68 175.42 200.72 172.10 201.74 169.76 Z" fill="#d0c0a5" />
<path d="M 92.84 172.02 C 93.00 177.60 93.65 183.78 91.91 189.10 C 90.06 186.45 88.17 183.84 86.16 181.31 C 89.58 178.99 91.17 175.65 92.84 172.02 Z" fill="#818187" />
<path d="M 43.70 173.83 C 45.74 174.91 47.69 175.65 49.93 176.20 C 52.83 177.87 55.65 179.61 58.13 181.88 C 56.14 181.91 50.82 177.94 52.61 182.38 C 53.33 184.85 51.57 185.02 50.03 186.32 L 49.03 184.98 C 50.43 182.15 50.42 179.28 47.31 177.72 C 46.12 176.67 42.07 175.96 43.70 173.83 Z" fill="#cdbba5" />
<path d="M 189.20 173.97 C 192.16 173.88 192.02 178.60 195.23 178.91 C 196.33 180.22 197.32 181.60 198.28 183.01 C 192.73 183.77 198.81 190.82 191.95 193.36 C 186.38 193.77 184.23 193.83 180.57 198.31 C 175.78 197.23 176.25 197.43 172.61 200.52 C 167.06 201.19 167.68 197.70 168.24 193.39 C 170.11 192.73 178.46 192.35 176.03 188.87 C 178.06 185.16 178.99 181.26 180.44 177.30 C 185.16 179.51 186.37 177.72 189.20 173.97 Z" fill="#d1b398" />
<path d="M 119.81 175.31 C 121.43 179.06 123.86 182.14 125.88 185.68 C 124.31 186.63 120.28 180.73 121.82 184.28 C 124.26 188.27 119.56 188.15 117.03 189.77 C 115.99 189.46 114.95 189.11 113.93 188.73 C 115.27 186.51 119.60 183.81 116.70 181.24 C 114.42 178.09 116.88 176.32 119.81 175.31 Z" fill="#d5c4ae" />
<path d="M 106.05 176.04 L 107.73 175.62 C 110.24 180.08 110.18 184.81 113.93 188.73 C 114.95 189.11 115.99 189.46 117.03 189.77 L 118.91 190.40 C 114.95 192.92 110.77 191.70 107.85 195.89 C 106.97 195.80 106.09 195.79 105.23 195.85 C 104.10 193.56 102.11 192.81 99.89 191.96 C 100.23 190.05 100.60 188.14 100.79 186.21 C 100.95 185.12 101.13 184.03 101.33 182.94 C 102.89 186.41 103.03 190.02 105.16 192.95 C 110.79 190.58 106.97 180.45 106.05 176.04 Z" fill="#6e5e50" />
<path d="M 58.13 181.88 C 65.78 185.71 71.45 191.60 77.10 197.85 C 77.35 206.53 80.08 208.35 86.30 213.41 C 82.36 214.65 78.19 210.52 74.33 209.54 C 74.57 207.22 78.19 205.01 75.79 203.27 C 71.39 203.60 68.73 204.11 65.54 207.30 C 60.47 207.69 56.21 213.20 53.11 216.82 C 57.50 218.14 61.53 218.22 65.40 221.09 C 62.72 222.35 59.86 222.06 56.96 222.08 C 53.10 220.37 49.72 217.75 45.88 216.08 C 41.55 215.99 36.02 217.60 32.88 220.72 C 31.86 221.74 31.00 222.87 30.12 224.01 C 29.57 223.03 28.96 222.09 28.42 221.10 C 30.42 220.25 35.48 218.73 30.37 217.52 C 31.92 212.17 34.87 208.33 31.14 202.83 C 27.47 199.56 25.71 194.88 21.29 192.74 C 21.66 190.80 22.65 189.21 23.75 187.61 C 23.49 189.38 23.22 191.13 23.09 192.91 C 26.16 191.63 27.84 189.29 30.23 187.09 L 30.97 187.29 C 32.64 188.55 34.11 188.39 36.01 187.80 L 36.81 187.98 L 36.91 189.94 C 36.59 192.58 33.81 201.37 39.01 196.08 C 40.09 194.26 40.70 189.71 43.57 190.19 C 43.82 194.18 46.53 198.78 50.89 198.87 C 56.89 198.84 49.95 192.44 48.97 189.98 C 49.31 188.75 49.67 187.53 50.03 186.32 C 51.57 185.02 53.33 184.85 52.61 182.38 C 50.82 177.94 56.14 181.91 58.13 181.88 Z" fill="#f1f0ed" />
<path d="M 210.19 181.54 C 208.83 187.80 215.57 185.57 212.89 192.56 C 211.92 193.30 210.92 194.01 209.90 194.68 C 208.19 195.01 206.51 195.32 204.88 195.92 C 202.66 196.57 201.55 199.57 199.94 201.13 C 196.64 199.79 197.04 194.95 194.16 194.10 C 193.42 193.84 192.69 193.60 191.95 193.36 C 198.81 190.82 192.73 183.77 198.28 183.01 C 197.96 186.21 198.92 184.21 200.59 183.65 C 203.84 181.08 206.85 183.35 210.19 181.54 Z" fill="#eadecb" />
<path d="M 30.85 183.94 C 26.59 184.28 27.84 184.97 30.23 187.09 C 27.84 189.29 26.16 191.63 23.09 192.91 C 23.22 191.13 23.49 189.38 23.75 187.61 L 24.26 186.81 C 26.14 184.60 27.55 181.32 30.85 183.94 Z" fill="#7c7e7d" />
<path d="M 125.88 185.68 C 128.44 183.89 128.10 185.44 129.96 187.13 C 129.97 189.08 129.95 191.04 129.98 192.99 C 125.55 188.71 127.66 195.49 124.63 197.62 C 121.59 200.89 116.58 203.13 113.51 198.56 C 109.26 202.66 105.47 200.02 102.09 205.10 C 101.09 204.69 100.08 204.28 99.08 203.86 C 98.22 200.38 96.63 197.32 94.81 194.26 C 96.27 193.41 97.74 192.57 99.20 191.72 L 99.89 191.96 C 102.11 192.81 104.10 193.56 105.23 195.85 C 104.43 199.15 108.49 199.17 107.85 195.89 C 110.77 191.70 114.95 192.92 118.91 190.40 L 117.03 189.77 C 119.56 188.15 124.26 188.27 121.82 184.28 C 120.28 180.73 124.31 186.63 125.88 185.68 Z" fill="#787682" />
<path d="M 49.03 184.98 L 50.03 186.32 C 49.67 187.53 49.31 188.75 48.97 189.98 C 47.09 189.39 46.62 189.25 45.89 187.37 C 46.93 186.57 47.97 185.76 49.03 184.98 Z" fill="#4e434d" />
<path d="M 40.28 185.92 C 40.96 189.53 43.45 188.89 45.89 187.37 C 46.62 189.25 47.09 189.39 48.97 189.98 C 49.95 192.44 56.89 198.84 50.89 198.87 C 46.53 198.78 43.82 194.18 43.57 190.19 C 40.70 189.71 40.09 194.26 39.01 196.08 C 38.48 193.64 42.21 184.28 36.91 189.94 L 36.81 187.98 C 37.96 187.29 39.13 186.62 40.28 185.92 Z" fill="#938c88" />
<path d="M 30.97 187.29 C 32.88 186.61 34.39 186.36 36.01 187.80 C 34.11 188.39 32.64 188.55 30.97 187.29 Z" fill="#949499" />
<path d="M 143.56 187.03 C 143.92 188.31 144.23 189.60 144.49 190.89 C 144.15 191.97 143.70 193.00 143.12 194.00 C 142.59 191.48 142.59 189.44 143.56 187.03 Z" fill="#71696c" />
<path d="M 160.19 186.99 C 163.40 187.76 166.05 189.41 168.93 190.92 C 171.31 186.86 172.01 188.16 176.03 188.87 C 178.46 192.35 170.11 192.73 168.24 193.39 C 167.68 197.70 167.06 201.19 172.61 200.52 C 176.25 197.43 175.78 197.23 180.57 198.31 C 184.23 193.83 186.38 193.77 191.95 193.36 C 192.69 193.60 193.42 193.84 194.16 194.10 C 184.08 197.55 175.48 206.41 165.04 206.92 C 162.31 206.57 160.20 204.97 157.63 205.89 C 153.96 204.61 151.48 201.18 147.71 201.43 C 145.99 201.73 145.12 198.93 144.01 197.91 C 143.62 196.62 143.31 195.33 143.12 194.00 C 143.70 193.00 144.15 191.97 144.49 190.89 C 145.07 192.24 144.83 196.04 146.97 195.51 C 151.47 194.94 154.17 199.01 158.81 199.07 C 156.43 196.91 157.53 194.87 155.56 192.46 C 157.94 190.92 159.97 190.21 160.19 186.99 Z" fill="#d7c2a6" />
<path d="M 203.08 187.29 C 204.06 188.18 204.97 189.14 205.94 190.03 C 206.93 190.94 207.95 191.80 208.87 192.77 C 205.40 195.73 200.41 190.86 203.08 187.29 Z" fill="#7d5e42" />
<path d="M 39.01 196.08 C 33.81 201.37 36.59 192.58 36.91 189.94 C 42.21 184.28 38.48 193.64 39.01 196.08 Z" fill="#5a545e" />
<path d="M 227.72 192.15 C 222.86 197.20 228.76 196.79 228.73 201.91 C 226.42 200.00 224.24 197.75 221.00 197.93 C 217.75 197.41 215.60 201.50 213.01 203.04 C 209.72 205.64 205.68 204.95 201.87 204.19 L 201.02 203.06 C 202.56 201.03 204.04 198.98 205.27 196.74 C 211.30 198.29 209.31 197.85 208.12 202.97 C 211.90 203.12 216.05 194.03 209.90 194.68 C 210.92 194.01 211.92 193.30 212.89 192.56 C 219.21 190.86 222.64 184.19 227.72 192.15 Z" fill="#c6a87a" />
<path d="M 129.98 192.99 L 130.25 193.80 C 131.29 198.22 130.00 200.71 126.91 203.78 C 123.36 205.41 124.78 207.12 125.20 210.20 C 125.06 212.49 124.96 214.79 124.89 217.08 L 124.16 216.77 L 123.16 216.35 C 124.27 223.37 115.49 228.07 110.57 231.46 C 106.03 231.71 101.04 234.31 96.73 233.47 C 98.10 229.67 99.71 226.36 99.71 222.22 C 99.31 216.17 102.49 222.14 104.59 223.41 C 106.23 224.89 107.47 228.08 109.92 227.94 C 107.96 222.38 104.07 216.30 100.26 211.79 C 100.01 210.90 99.77 210.00 99.55 209.11 C 100.32 207.72 101.17 206.39 102.09 205.10 C 105.47 200.02 109.26 202.66 113.51 198.56 C 116.58 203.13 121.59 200.89 124.63 197.62 C 127.66 195.49 125.55 188.71 129.98 192.99 Z" fill="#efefef" />
<path d="M 130.25 193.80 C 134.21 195.98 134.57 202.75 135.64 206.81 C 134.40 209.08 137.36 216.10 140.34 215.25 C 143.67 216.28 142.02 217.26 141.90 220.03 C 140.65 218.77 139.28 217.66 137.86 216.59 C 135.86 213.97 134.60 210.98 132.87 208.20 C 127.61 211.51 126.92 217.59 125.60 223.18 C 125.15 221.17 124.99 219.13 124.89 217.08 C 124.96 214.79 125.06 212.49 125.20 210.20 C 126.61 207.91 127.00 206.53 126.91 203.78 C 130.00 200.71 131.29 198.22 130.25 193.80 Z" fill="#6a6c7a" />
<path d="M 194.16 194.10 C 197.04 194.95 196.64 199.79 199.94 201.13 C 201.55 199.57 202.66 196.57 204.88 195.92 L 205.27 196.74 C 204.04 198.98 202.56 201.03 201.02 203.06 C 199.74 204.45 200.01 206.30 199.72 208.09 C 198.81 207.08 197.91 206.04 197.01 205.02 C 195.70 203.10 194.69 200.79 193.05 199.15 C 190.95 199.88 188.91 200.79 186.85 201.61 C 181.79 203.67 176.94 206.49 171.79 208.32 C 166.71 208.04 162.16 208.62 157.63 205.89 C 160.20 204.97 162.31 206.57 165.04 206.92 C 175.48 206.41 184.08 197.55 194.16 194.10 Z" fill="#9c8261" />
<path d="M 220.78 196.80 C 218.95 196.60 215.34 197.72 215.16 195.00 C 215.20 191.53 230.73 196.54 220.78 196.80 Z" fill="#936b37" />
<path d="M 209.90 194.68 C 216.05 194.03 211.90 203.12 208.12 202.97 C 209.31 197.85 211.30 198.29 205.27 196.74 L 204.88 195.92 C 206.51 195.32 208.19 195.01 209.90 194.68 Z" fill="#825c2f" />
<path d="M 105.23 195.85 C 106.09 195.79 106.97 195.80 107.85 195.89 C 108.49 199.17 104.43 199.15 105.23 195.85 Z" fill="#c7c4c5" />
<path d="M 85.72 201.78 C 85.55 202.79 85.40 203.80 85.28 204.82 C 87.16 214.94 74.83 201.45 80.96 200.64 C 82.04 201.67 83.03 202.78 84.09 203.84 C 83.98 201.37 82.66 199.87 81.33 197.95 C 83.40 195.80 84.59 200.49 85.72 201.78 Z" fill="#58576d" />
<path d="M 77.10 197.85 C 78.46 198.75 79.78 199.52 80.96 200.64 C 74.83 201.45 87.16 214.94 85.28 204.82 C 85.07 206.33 90.00 215.24 86.30 213.41 C 80.08 208.35 77.35 206.53 77.10 197.85 Z" fill="#828290" />
<path d="M 144.01 197.91 C 145.12 198.93 145.99 201.73 147.71 201.43 C 151.48 201.18 153.96 204.61 157.63 205.89 C 162.16 208.62 166.71 208.04 171.79 208.32 C 176.94 206.49 181.79 203.67 186.85 201.61 C 190.26 203.54 192.83 205.44 197.01 205.02 C 197.91 206.04 198.81 207.08 199.72 208.09 C 202.76 211.83 204.79 213.31 209.63 214.16 C 210.79 215.09 211.94 216.02 213.09 216.95 C 209.52 221.64 205.08 220.88 199.97 221.73 C 196.47 222.81 192.92 223.61 189.25 223.74 C 184.83 222.50 180.76 223.11 176.18 223.00 C 172.99 221.50 174.46 223.67 173.70 225.83 C 170.02 222.98 166.77 219.03 161.95 218.17 C 157.17 217.57 154.45 214.26 149.54 217.02 C 145.77 211.44 143.33 204.72 144.01 197.91 Z" fill="#f3f1ee" />
<path d="M 221.00 197.93 C 224.24 197.75 226.42 200.00 228.73 201.91 C 228.51 203.28 228.20 204.63 227.96 205.99 C 226.50 204.46 224.66 198.83 221.95 200.82 C 219.01 202.00 215.37 202.78 214.20 206.14 C 212.66 212.64 200.09 213.42 201.87 204.19 C 205.68 204.95 209.72 205.64 213.01 203.04 C 215.60 201.50 217.75 197.41 221.00 197.93 Z" fill="#ebdfc8" />
<path d="M 193.05 199.15 C 194.69 200.79 195.70 203.10 197.01 205.02 C 192.83 205.44 190.26 203.54 186.85 201.61 C 188.91 200.79 190.95 199.88 193.05 199.15 Z" fill="#e3d4ba" />
<path d="M 227.96 205.99 C 228.80 208.16 229.33 208.74 227.76 210.73 C 225.59 212.27 224.41 214.10 224.31 216.80 C 224.15 218.47 224.03 220.16 223.82 221.83 C 219.31 214.53 227.66 209.65 225.34 204.82 C 223.50 200.92 217.03 206.42 215.56 208.46 C 214.38 211.46 212.20 212.54 209.63 214.16 C 204.79 213.31 202.76 211.83 199.72 208.09 C 200.01 206.30 199.74 204.45 201.02 203.06 L 201.87 204.19 C 200.09 213.42 212.66 212.64 214.20 206.14 C 215.37 202.78 219.01 202.00 221.95 200.82 C 224.66 198.83 226.50 204.46 227.96 205.99 Z" fill="#7c6242" />
<path d="M 85.72 201.78 C 88.37 205.55 88.87 210.02 91.15 213.92 C 91.08 215.23 91.00 216.54 90.91 217.86 C 87.80 220.04 87.55 221.80 83.97 225.01 C 83.66 223.01 86.16 217.38 82.98 217.07 C 77.00 220.57 71.49 217.15 65.40 221.09 C 61.53 218.22 57.50 218.14 53.11 216.82 C 56.21 213.20 60.47 207.69 65.54 207.30 C 68.73 204.11 71.39 203.60 75.79 203.27 C 78.19 205.01 74.57 207.22 74.33 209.54 C 78.19 210.52 82.36 214.65 86.30 213.41 C 90.00 215.24 85.07 206.33 85.28 204.82 C 85.40 203.80 85.55 202.79 85.72 201.78 Z" fill="#e8e0d1" />
<path d="M 225.34 204.82 C 220.57 207.55 217.78 213.41 213.09 216.95 C 211.94 216.02 210.79 215.09 209.63 214.16 C 212.20 212.54 214.38 211.46 215.56 208.46 C 217.03 206.42 223.50 200.92 225.34 204.82 Z" fill="#eee1c4" />
<path d="M 99.08 203.86 C 100.08 204.28 101.09 204.69 102.09 205.10 C 101.17 206.39 100.32 207.72 99.55 209.11 C 99.13 207.36 99.14 205.65 99.08 203.86 Z" fill="#acacbd" />
<path d="M 126.91 203.78 C 127.00 206.53 126.61 207.91 125.20 210.20 C 124.78 207.12 123.36 205.41 126.91 203.78 Z" fill="#b9bbc0" />
<path d="M 225.34 204.82 C 227.66 209.65 219.31 214.53 223.82 221.83 C 224.03 220.16 224.15 218.47 224.31 216.80 C 224.71 218.59 225.10 220.39 225.42 222.20 C 225.06 223.86 224.69 225.53 224.32 227.19 C 223.68 223.17 224.77 221.90 221.71 225.70 C 220.09 223.80 218.71 221.70 217.14 219.76 C 217.74 217.85 218.39 215.98 218.89 214.04 C 217.11 215.68 211.01 221.15 214.80 223.19 C 214.53 223.77 214.26 224.35 213.99 224.94 C 213.03 225.74 212.06 226.53 211.11 227.35 C 209.51 225.58 208.06 223.40 206.14 222.01 C 204.16 223.55 202.33 225.27 200.42 226.90 C 199.23 226.81 198.04 226.75 196.84 226.72 C 198.24 225.00 205.11 223.07 199.97 221.73 C 205.08 220.88 209.52 221.64 213.09 216.95 C 217.78 213.41 220.57 207.55 225.34 204.82 Z" fill="#c2a476" />
<path d="M 135.64 206.81 C 136.80 209.87 138.57 212.52 140.34 215.25 C 137.36 216.10 134.40 209.08 135.64 206.81 Z" fill="#c4c7d5" />
<path d="M 132.87 208.20 C 134.60 210.98 135.86 213.97 137.86 216.59 C 135.53 220.24 133.31 220.59 131.46 216.25 C 128.89 218.31 129.25 225.31 125.97 224.98 L 125.60 223.18 C 126.92 217.59 127.61 211.51 132.87 208.20 Z" fill="#e8eaea" />
<path d="M 227.76 210.73 C 227.03 214.58 226.51 218.43 225.42 222.20 C 225.10 220.39 224.71 218.59 224.31 216.80 C 224.41 214.10 225.59 212.27 227.76 210.73 Z" fill="#d8c8a9" />
<path d="M 100.26 211.79 C 104.07 216.30 107.96 222.38 109.92 227.94 C 107.47 228.08 106.23 224.89 104.59 223.41 C 102.49 222.14 99.31 216.17 99.71 222.22 C 98.73 218.91 100.17 215.31 100.26 211.79 Z" fill="#7f7f8a" />
<path d="M 143.17 212.17 C 142.20 217.21 148.22 211.21 143.17 212.17 Z" fill="#76788e" />
<path d="M 91.15 213.92 C 93.93 217.41 92.97 219.52 91.25 223.20 C 91.14 221.42 91.01 219.64 90.91 217.86 C 91.00 216.54 91.08 215.23 91.15 213.92 Z" fill="#7a6c56" />
<path d="M 218.89 214.04 C 218.39 215.98 217.74 217.85 217.14 219.76 C 216.37 220.91 215.58 222.04 214.80 223.19 C 211.01 221.15 217.11 215.68 218.89 214.04 Z" fill="#f0dcb6" />
<path d="M 45.88 216.08 C 49.72 217.75 53.10 220.37 56.96 222.08 C 58.27 222.74 59.59 223.39 60.88 224.08 C 52.84 225.14 49.83 222.41 43.08 219.89 C 41.69 220.27 40.55 221.04 39.39 221.85 C 37.27 221.16 35.10 220.87 32.88 220.72 C 36.02 217.60 41.55 215.99 45.88 216.08 Z" fill="#c5a16d" />
<path d="M 82.98 217.07 C 86.16 217.38 83.66 223.01 83.97 225.01 C 82.51 227.60 80.68 229.79 77.89 230.97 C 74.72 231.00 71.88 228.86 68.63 228.74 C 66.18 227.14 72.10 226.15 72.01 224.13 C 67.57 225.08 65.16 227.04 60.88 224.08 C 59.59 223.39 58.27 222.74 56.96 222.08 C 59.86 222.06 62.72 222.35 65.40 221.09 C 71.49 217.15 77.00 220.57 82.98 217.07 Z" fill="#d3b58a" />
<path d="M 124.16 216.77 L 124.89 217.08 C 124.99 219.13 125.15 221.17 125.60 223.18 L 125.97 224.98 C 122.54 226.09 124.53 218.60 124.16 216.77 Z" fill="#b4b4be" />
<path d="M 90.91 217.86 C 91.01 219.64 91.14 221.42 91.25 223.20 C 90.61 224.58 89.73 225.74 88.83 226.96 C 87.02 228.67 88.70 230.83 90.50 228.77 C 92.23 229.52 90.61 232.77 90.74 234.31 C 89.75 235.54 88.71 234.19 87.51 233.92 C 76.53 235.72 64.36 239.45 53.27 239.91 C 51.90 236.15 47.49 242.04 43.24 239.84 C 39.22 234.71 33.75 237.15 32.21 229.74 C 32.07 223.11 35.86 225.34 39.39 221.85 C 40.55 221.04 41.69 220.27 43.08 219.89 C 41.93 224.29 37.28 226.56 41.34 230.67 C 42.68 233.48 44.04 229.34 45.20 228.50 C 50.32 231.64 57.50 228.05 62.89 227.00 C 66.68 229.51 68.95 232.97 74.03 232.92 C 72.44 231.16 70.12 230.63 68.63 228.74 C 71.88 228.86 74.72 231.00 77.89 230.97 C 80.68 229.79 82.51 227.60 83.97 225.01 C 87.55 221.80 87.80 220.04 90.91 217.86 Z" fill="#f2efe8" />
<path d="M 43.08 219.89 C 49.83 222.41 52.84 225.14 60.88 224.08 C 65.16 227.04 67.57 225.08 72.01 224.13 C 72.10 226.15 66.18 227.14 68.63 228.74 C 70.12 230.63 72.44 231.16 74.03 232.92 C 68.95 232.97 66.68 229.51 62.89 227.00 C 57.50 228.05 50.32 231.64 45.20 228.50 C 44.04 229.34 42.68 233.48 41.34 230.67 C 37.28 226.56 41.93 224.29 43.08 219.89 Z" fill="#7b5c35" />
<path d="M 217.14 219.76 C 218.71 221.70 220.09 223.80 221.71 225.70 C 224.77 221.90 223.68 223.17 224.32 227.19 C 224.13 229.34 224.06 231.52 223.71 233.65 C 220.64 234.11 217.40 234.96 214.30 234.78 C 212.12 231.51 213.78 228.55 213.99 224.94 C 214.26 224.35 214.53 223.77 214.80 223.19 C 215.58 222.04 216.37 220.91 217.14 219.76 Z" fill="#7d5d38" />
<path d="M 32.88 220.72 C 35.10 220.87 37.27 221.16 39.39 221.85 C 35.86 225.34 32.07 223.11 32.21 229.74 C 32.28 237.49 27.08 226.62 30.12 224.01 C 31.00 222.87 31.86 221.74 32.88 220.72 Z" fill="#826343" />
<path d="M 151.18 221.47 C 151.83 222.23 152.35 223.07 152.77 223.99 C 150.23 224.59 147.09 222.65 151.18 221.47 Z" fill="#8b8b9a" />
<path d="M 199.97 221.73 C 205.11 223.07 198.24 225.00 196.84 226.72 C 189.16 229.31 183.19 229.27 176.23 234.02 L 175.59 232.07 C 176.39 229.40 176.44 227.59 175.68 224.90 C 179.99 223.45 184.53 224.23 189.25 223.74 C 192.92 223.61 196.47 222.81 199.97 221.73 Z" fill="#7f613e" />
<path d="M 206.14 222.01 C 208.06 223.40 209.51 225.58 211.11 227.35 C 208.64 233.79 204.07 237.55 196.93 235.24 C 195.72 234.82 187.53 234.33 190.73 231.78 C 194.34 230.48 197.72 229.94 200.42 226.90 C 202.33 225.27 204.16 223.55 206.14 222.01 Z" fill="#7a5b38" />
<path d="M 176.18 223.00 C 180.76 223.11 184.83 222.50 189.25 223.74 C 184.53 224.23 179.99 223.45 175.68 224.90 L 176.18 223.00 Z" fill="#d1c6bb" />
<path d="M 153.06 224.53 C 153.77 224.93 154.46 225.38 155.13 225.87 C 153.48 227.62 151.09 226.73 153.06 224.53 Z" fill="#77758a" />
<path d="M 175.68 224.90 C 176.44 227.59 176.39 229.40 175.59 232.07 C 174.41 229.25 174.37 227.68 175.68 224.90 Z" fill="#c2b7a9" />
<path d="M 88.83 226.96 C 89.40 227.55 89.95 228.15 90.50 228.77 C 88.70 230.83 87.02 228.67 88.83 226.96 Z" fill="#877a6d" />
<path d="M 94.15 233.02 L 93.11 232.22 C 94.83 227.12 97.94 229.51 94.15 233.02 Z" fill="#a2a2b4" />
<path d="M 57.07 231.05 C 55.95 232.47 54.66 233.40 54.72 235.36 C 49.32 237.82 53.73 230.33 57.07 231.05 Z" fill="#bfb3a5" />
<path d="M 57.07 231.05 C 61.53 229.99 55.71 234.72 54.72 235.36 C 54.66 233.40 55.95 232.47 57.07 231.05 Z" fill="#5f4a32" />
<path d="M 47.22 235.10 C 48.38 234.49 50.70 235.01 49.71 236.68 C 48.35 238.01 44.42 236.95 47.22 235.10 Z" fill="#8b7e6c" />
</svg>