<?xml version="1.0" encoding="UTF-8" standalone="no"?>
<!DOCTYPE svg PUBLIC "-//W3C//DTD SVG 1.1//EN" "http://www.w3.org/Graphics/SVG/1.1/DTD/svg11.dtd">
<svg xmlns="http://www.w3.org/2000/svg" version="1.1" viewBox="0 0 256 256" width="256.0pt" height="256.0pt">
<path d="M 0.00 0.00 L 256.00 0.00 L 256.00 256.00 L 0.00 256.00 L 0.00 0.00 Z" fill="#fefefe" />
<path d="M 111.90 16.25 C 117.97 16.60 123.94 15.81 130.01 15.91 C 136.37 15.99 142.62 17.14 149.00 17.04 C 157.83 17.10 167.90 16.15 176.45 18.49 C 179.47 19.18 180.83 21.62 182.58 23.91 L 183.84 25.62 C 185.18 25.22 186.50 24.76 187.81 24.31 C 190.74 27.17 194.17 29.23 197.63 31.37 C 203.39 35.09 209.98 37.03 215.75 40.77 C 214.61 42.01 213.45 43.24 212.26 44.43 C 211.75 44.91 211.23 45.39 210.72 45.87 C 209.23 44.91 207.75 43.94 206.26 42.98 C 205.43 43.63 204.59 44.27 203.76 44.92 C 201.03 42.97 198.48 41.24 194.98 41.18 C 193.36 41.02 191.38 41.66 189.85 41.27 C 185.95 38.72 181.57 38.81 177.03 38.33 C 177.85 40.41 178.78 42.44 179.59 44.52 C 179.82 45.55 179.99 46.60 180.16 47.65 C 178.73 46.80 177.31 45.95 175.88 45.10 C 175.05 42.97 174.25 40.85 173.19 38.82 C 174.38 38.83 175.56 38.83 176.75 38.81 C 175.96 37.43 176.29 36.04 174.27 36.22 C 172.46 36.14 170.94 36.80 169.35 37.54 C 169.68 33.68 169.63 30.80 172.49 27.83 C 172.22 29.38 171.91 30.92 171.63 32.47 C 176.73 31.12 182.38 29.31 186.55 25.97 C 182.95 26.24 179.45 27.02 175.88 27.46 C 175.81 26.27 175.74 25.08 175.67 23.89 C 170.61 24.50 165.29 25.91 160.22 25.60 C 155.36 25.19 150.57 25.42 145.75 24.49 C 134.76 24.72 123.83 24.12 112.90 22.98 C 113.99 24.05 115.11 25.09 116.20 26.15 C 113.45 26.06 111.34 25.25 109.03 23.79 C 108.35 23.30 107.65 23.07 106.93 23.08 C 100.84 23.64 95.31 22.49 89.57 25.30 C 86.78 26.14 83.93 26.47 81.05 26.79 C 81.93 26.99 82.81 27.19 83.70 27.38 C 79.75 27.17 76.03 28.55 72.44 30.06 C 70.50 30.91 68.68 31.89 66.67 32.58 C 62.57 33.13 59.13 35.22 56.10 37.95 C 54.32 39.55 52.86 41.50 51.06 43.06 C 49.86 43.79 48.17 43.67 46.81 43.90 C 47.71 42.86 48.62 41.81 49.52 40.76 C 47.62 41.23 45.72 41.67 43.80 42.05 C 45.99 39.30 48.91 38.90 52.08 37.97 C 53.11 35.67 53.77 33.35 56.02 31.92 C 58.83 30.06 61.77 28.36 64.66 26.62 C 68.49 24.34 72.60 23.63 76.64 21.74 C 87.32 16.51 100.19 15.62 111.90 16.25 Z" fill="#f4f4f2" />
<path d="M 106.93 23.08 C 106.14 23.36 105.61 23.80 105.35 24.39 C 105.82 26.10 108.31 24.60 109.03 23.79 C 111.34 25.25 113.45 26.06 116.20 26.15 C 118.53 26.23 120.85 26.18 123.18 26.38 C 123.26 27.47 123.33 28.55 123.41 29.64 C 126.45 29.59 129.48 29.53 132.51 29.46 C 133.28 29.85 134.05 30.24 134.82 30.63 C 136.22 29.83 137.61 29.03 139.02 28.25 C 139.31 29.02 139.59 29.79 139.88 30.56 C 142.60 30.36 145.31 30.23 148.04 30.19 C 143.70 31.96 138.45 31.97 134.80 34.76 C 136.24 34.99 137.69 35.18 139.14 35.34 C 137.33 36.12 135.44 37.32 133.48 37.62 C 131.74 37.63 129.97 37.15 128.27 36.79 C 125.98 40.09 123.37 39.33 119.79 39.24 C 114.53 38.47 110.67 39.67 106.03 41.91 C 103.29 40.81 102.43 40.12 101.09 37.46 C 100.94 38.99 100.76 40.51 100.57 42.03 C 99.86 41.86 99.16 41.69 98.46 41.52 C 98.63 38.56 98.90 35.61 99.13 32.65 C 101.89 31.33 104.54 29.59 107.07 27.87 C 103.01 27.53 99.86 27.85 96.04 29.23 C 93.89 27.90 91.73 26.59 89.57 25.30 C 95.31 22.49 100.84 23.64 106.93 23.08 Z" fill="#767486" />
<path d="M 106.93 23.08 C 107.65 23.07 108.35 23.30 109.03 23.79 C 108.31 24.60 105.82 26.10 105.35 24.39 C 105.61 23.80 106.14 23.36 106.93 23.08 Z" fill="#505362" />
<path d="M 112.90 22.98 C 123.83 24.12 134.76 24.72 145.75 24.49 C 150.57 25.42 155.36 25.19 160.22 25.60 C 165.29 25.91 170.61 24.50 175.67 23.89 C 175.74 25.08 175.81 26.27 175.88 27.46 C 179.45 27.02 182.95 26.24 186.55 25.97 C 182.38 29.31 176.73 31.12 171.63 32.47 C 171.91 30.92 172.22 29.38 172.49 27.83 C 169.63 30.80 169.68 33.68 169.35 37.54 C 170.94 36.80 172.46 36.14 174.27 36.22 C 176.29 36.04 175.96 37.43 176.75 38.81 C 175.56 38.83 174.38 38.83 173.19 38.82 C 174.25 40.85 175.05 42.97 175.88 45.10 C 176.45 46.48 177.05 47.94 177.87 49.19 C 179.72 50.21 182.07 50.44 184.11 50.95 C 183.67 47.93 183.64 44.91 183.69 41.87 C 182.33 42.76 180.96 43.64 179.59 44.52 C 178.78 42.44 177.85 40.41 177.03 38.33 C 181.57 38.81 185.95 38.72 189.85 41.27 C 191.38 41.66 193.36 41.02 194.98 41.18 C 198.48 41.24 201.03 42.97 203.76 44.92 C 204.59 44.27 205.43 43.63 206.26 42.98 C 207.75 43.94 209.23 44.91 210.72 45.87 C 211.23 45.39 211.75 44.91 212.26 44.43 C 213.41 44.47 214.58 44.52 215.74 44.54 C 216.58 45.79 217.43 47.04 218.34 48.24 C 216.76 48.29 215.22 48.34 213.72 48.89 C 212.50 49.81 211.32 50.78 210.11 51.71 C 210.43 52.42 210.74 53.13 211.06 53.84 C 209.64 53.75 208.23 53.61 206.81 53.48 C 207.41 55.92 206.95 58.20 209.15 59.83 C 213.17 63.34 217.38 66.55 220.95 70.57 C 219.44 70.66 217.94 70.70 216.43 70.72 C 214.84 70.62 213.24 70.44 211.64 70.29 C 208.24 69.27 204.79 68.45 201.40 67.43 C 201.59 66.66 201.79 65.89 201.98 65.13 C 200.68 63.05 199.58 60.87 198.52 58.66 C 193.91 58.12 189.34 57.17 184.72 56.80 L 184.07 56.76 C 180.27 52.74 176.36 50.01 171.49 47.45 C 167.71 44.78 164.54 42.97 160.00 41.84 C 158.78 41.16 157.55 40.47 156.33 39.79 C 157.24 39.55 158.16 39.30 159.07 39.06 C 158.45 36.92 157.74 34.83 156.95 32.75 C 154.90 33.86 153.00 35.29 150.90 36.29 C 148.19 36.25 145.52 35.50 142.79 35.44 C 141.58 35.37 140.36 35.34 139.14 35.34 C 137.69 35.18 136.24 34.99 134.80 34.76 C 138.45 31.97 143.70 31.96 148.04 30.19 C 145.31 30.23 142.60 30.36 139.88 30.56 C 139.59 29.79 139.31 29.02 139.02 28.25 C 137.61 29.03 136.22 29.83 134.82 30.63 C 134.05 30.24 133.28 29.85 132.51 29.46 C 130.76 26.45 126.21 26.97 123.18 26.38 C 120.85 26.18 118.53 26.23 116.20 26.15 C 115.11 25.09 113.99 24.05 112.90 22.98 Z" fill="#20213d" />
<path d="M 181.29 22.68 C 182.06 24.55 181.66 25.86 180.08 26.63 C 178.82 26.21 177.58 25.75 176.35 25.24 C 177.87 24.34 179.51 22.95 181.29 22.68 Z" fill="#1f1f35" />
<path d="M 186.60 23.24 L 187.81 24.31 C 186.50 24.76 185.18 25.22 183.84 25.62 L 182.58 23.91 C 183.91 23.65 185.25 23.40 186.60 23.24 Z" fill="#656474" />
<path d="M 81.05 26.79 C 83.93 26.47 86.78 26.14 89.57 25.30 C 91.73 26.59 93.89 27.90 96.04 29.23 C 95.39 30.85 94.73 32.46 94.08 34.08 C 95.78 33.63 97.46 33.19 99.13 32.65 C 98.90 35.61 98.63 38.56 98.46 41.52 C 99.16 41.69 99.86 41.86 100.57 42.03 C 100.76 40.51 100.94 38.99 101.09 37.46 C 102.43 40.12 103.29 40.81 106.03 41.91 C 105.30 42.15 104.57 42.36 103.83 42.56 C 101.18 43.25 98.71 43.62 96.80 45.78 C 94.78 48.15 92.77 50.94 91.98 53.99 C 91.29 57.13 90.35 60.06 89.16 63.05 C 87.79 66.49 87.88 70.18 88.27 73.81 C 88.65 77.31 90.85 80.64 92.51 83.71 C 90.78 85.52 88.76 87.29 87.46 89.44 C 87.17 92.07 87.52 94.68 87.03 97.32 C 86.60 99.64 86.17 101.93 86.08 104.29 C 83.81 105.74 81.24 105.22 78.99 104.03 C 77.32 102.28 76.40 99.74 75.20 97.66 C 73.69 94.76 71.55 92.32 69.10 90.18 C 68.46 92.66 66.59 96.58 68.83 98.72 C 71.91 102.19 75.33 105.43 78.99 108.27 C 79.59 108.73 80.18 109.19 80.78 109.65 C 79.01 110.21 77.19 110.99 75.34 111.22 C 74.30 110.67 73.40 109.80 72.49 109.05 C 72.51 113.40 72.76 118.10 69.17 121.25 C 66.56 123.26 63.96 120.24 61.80 118.98 C 60.76 119.24 59.72 119.50 58.68 119.77 C 56.81 116.57 54.68 113.60 52.02 111.00 C 52.63 113.17 53.31 115.32 54.01 117.46 C 53.13 118.34 52.25 119.20 51.43 120.15 C 51.13 121.35 50.85 122.56 50.59 123.77 C 49.26 122.16 47.92 120.56 46.59 118.96 C 47.34 116.97 48.08 114.98 48.82 112.99 C 44.74 111.47 40.66 109.97 36.62 108.37 C 35.73 102.83 38.79 99.70 42.08 95.81 C 45.17 99.01 47.75 102.38 51.30 105.11 C 50.53 97.60 43.28 96.63 41.12 89.97 C 39.51 85.98 37.39 82.28 36.20 78.11 C 36.06 85.91 36.69 93.81 35.91 101.54 C 35.42 106.67 34.05 111.57 33.01 116.77 C 34.35 115.15 35.67 113.53 36.98 111.89 C 38.76 113.27 40.53 114.66 42.33 116.02 C 41.00 117.42 38.90 119.00 38.61 120.98 C 38.05 124.41 39.14 128.31 39.80 131.69 C 39.12 132.25 38.43 132.82 37.75 133.38 C 34.35 128.81 32.61 123.83 31.58 118.28 C 30.69 118.66 29.80 119.03 28.92 119.41 C 28.67 115.41 28.07 111.69 27.05 107.82 C 26.42 97.09 25.61 85.46 28.32 74.97 C 30.06 73.78 31.71 72.70 32.70 70.78 C 35.92 65.08 37.97 59.51 43.01 55.02 C 47.87 50.77 51.08 45.22 56.06 41.13 C 57.31 40.06 58.60 39.03 59.87 37.99 C 58.62 37.96 57.36 37.95 56.10 37.95 C 59.13 35.22 62.57 33.13 66.67 32.58 C 67.23 33.55 67.79 34.51 68.35 35.48 C 69.79 34.84 72.13 34.49 72.92 33.01 C 73.56 31.99 72.77 31.06 72.44 30.06 C 76.03 28.55 79.75 27.17 83.70 27.38 C 82.81 27.19 81.93 26.99 81.05 26.79 Z" fill="#415562" />
<path d="M 123.18 26.38 C 126.21 26.97 130.76 26.45 132.51 29.46 C 129.48 29.53 126.45 29.59 123.41 29.64 C 123.33 28.55 123.26 27.47 123.18 26.38 Z" fill="#9792a5" />
<path d="M 107.07 27.87 C 104.54 29.59 101.89 31.33 99.13 32.65 C 97.46 33.19 95.78 33.63 94.08 34.08 C 94.73 32.46 95.39 30.85 96.04 29.23 C 99.86 27.85 103.01 27.53 107.07 27.87 Z" fill="#95bac0" />
<path d="M 72.44 30.06 C 72.77 31.06 73.56 31.99 72.92 33.01 C 72.13 34.49 69.79 34.84 68.35 35.48 C 67.79 34.51 67.23 33.55 66.67 32.58 C 68.68 31.89 70.50 30.91 72.44 30.06 Z" fill="#6c7089" />
<path d="M 156.95 32.75 C 157.74 34.83 158.45 36.92 159.07 39.06 C 158.16 39.30 157.24 39.55 156.33 39.79 C 157.55 40.47 158.78 41.16 160.00 41.84 C 162.43 44.97 165.09 47.82 167.89 50.62 C 167.57 51.70 167.27 52.78 166.97 53.86 C 164.82 52.09 162.59 50.23 160.16 48.85 C 157.56 47.32 154.11 47.36 151.15 47.22 C 149.52 45.37 147.85 43.55 146.18 41.73 C 146.33 40.58 146.47 39.44 146.62 38.29 C 145.35 37.33 144.10 36.35 142.79 35.44 C 145.52 35.50 148.19 36.25 150.90 36.29 C 153.00 35.29 154.90 33.86 156.95 32.75 Z" fill="#d9ccd3" />
<path d="M 159.97 32.80 C 162.74 33.46 165.43 34.28 168.05 35.40 C 165.40 36.13 162.74 36.81 160.08 37.51 C 160.04 35.94 160.01 34.37 159.97 32.80 Z" fill="#5e5f73" />
<path d="M 139.14 35.34 C 140.36 35.34 141.58 35.37 142.79 35.44 C 144.10 36.35 145.35 37.33 146.62 38.29 C 146.47 39.44 146.33 40.58 146.18 41.73 C 143.56 42.07 140.99 42.38 138.50 43.30 C 135.62 42.69 132.82 41.91 129.97 41.21 C 126.62 40.13 123.31 39.46 119.79 39.24 C 123.37 39.33 125.98 40.09 128.27 36.79 C 129.97 37.15 131.74 37.63 133.48 37.62 C 135.44 37.32 137.33 36.12 139.14 35.34 Z" fill="#9a93a0" />
<path d="M 56.10 37.95 C 57.36 37.95 58.62 37.96 59.87 37.99 C 58.60 39.03 57.31 40.06 56.06 41.13 C 51.08 45.22 47.87 50.77 43.01 55.02 C 37.97 59.51 35.92 65.08 32.70 70.78 C 31.71 72.70 30.06 73.78 28.32 74.97 C 29.13 71.95 29.98 68.93 31.03 65.99 C 32.05 62.27 35.73 61.76 35.46 57.53 C 36.79 55.58 37.95 53.45 39.51 51.66 C 40.66 51.23 41.90 51.01 43.10 50.73 C 43.88 47.90 44.68 46.00 46.81 43.90 C 48.17 43.67 49.86 43.79 51.06 43.06 C 52.86 41.50 54.32 39.55 56.10 37.95 Z" fill="#1a1c37" />
<path d="M 119.79 39.24 C 123.31 39.46 126.62 40.13 129.97 41.21 C 127.71 41.52 125.69 41.56 123.42 41.36 C 123.69 42.24 123.98 43.13 124.27 44.01 C 117.48 42.86 110.73 42.15 103.83 42.56 C 104.57 42.36 105.30 42.15 106.03 41.91 C 110.67 39.67 114.53 38.47 119.79 39.24 Z" fill="#93b3b9" />
<path d="M 123.42 41.36 C 125.69 41.56 127.71 41.52 129.97 41.21 C 132.82 41.91 135.62 42.69 138.50 43.30 C 143.87 48.93 145.69 55.73 147.71 62.99 C 148.13 57.35 147.94 52.17 151.15 47.22 C 154.11 47.36 157.56 47.32 160.16 48.85 C 162.59 50.23 164.82 52.09 166.97 53.86 C 170.10 56.44 172.85 59.00 176.92 59.99 C 179.93 65.18 183.38 69.20 187.83 73.20 C 190.74 77.57 194.50 81.20 197.41 85.56 C 199.69 88.98 201.98 92.40 204.27 95.81 C 197.94 94.90 195.04 90.58 190.15 87.13 C 192.00 92.60 195.86 96.45 198.52 101.48 C 200.22 104.68 202.50 107.84 203.54 111.31 C 204.28 116.96 202.26 121.89 204.95 127.38 C 206.09 119.75 206.28 112.10 208.12 104.56 C 208.73 104.62 209.34 104.68 209.94 104.75 C 211.45 109.83 213.93 114.51 215.37 119.63 C 215.15 120.50 214.92 121.38 214.68 122.25 C 215.43 122.89 216.18 123.52 216.93 124.16 C 216.18 126.40 215.24 128.52 215.32 130.91 C 215.56 136.92 216.59 142.96 217.35 148.92 C 217.30 151.80 217.55 153.85 218.86 156.48 C 219.49 158.29 220.84 160.53 220.37 162.47 C 219.78 165.75 218.30 168.99 217.08 172.09 C 214.34 178.60 211.91 185.09 207.98 191.02 C 204.47 196.10 202.48 202.46 200.54 208.29 C 204.95 204.73 208.40 199.92 211.63 195.31 C 214.74 190.88 217.14 186.10 219.30 181.16 C 223.01 176.02 225.19 169.50 227.68 163.66 C 232.14 153.16 233.75 141.34 234.34 130.01 C 233.94 117.19 231.56 103.82 226.88 91.84 C 226.41 90.74 225.91 89.65 225.41 88.57 C 223.04 82.26 219.04 76.90 216.43 70.72 C 217.94 70.70 219.44 70.66 220.95 70.57 C 217.38 66.55 213.17 63.34 209.15 59.83 C 206.95 58.20 207.41 55.92 206.81 53.48 C 208.23 53.61 209.64 53.75 211.06 53.84 C 212.62 53.91 214.19 53.95 215.75 54.00 C 215.08 52.29 214.42 50.58 213.72 48.89 C 215.22 48.34 216.76 48.29 218.34 48.24 C 217.43 47.04 216.58 45.79 215.74 44.54 C 216.49 44.54 217.24 44.52 217.99 44.50 C 222.79 49.37 224.16 55.38 226.20 61.68 C 227.17 64.58 226.26 67.85 227.09 70.68 C 229.02 73.70 230.53 76.41 231.33 79.95 C 236.86 96.58 241.98 112.25 242.07 130.02 C 241.88 137.13 240.45 144.21 239.68 151.28 C 239.11 156.42 237.36 161.01 234.65 165.40 C 232.04 169.54 231.68 174.24 229.43 178.53 C 226.98 182.97 226.64 187.91 224.53 192.50 C 222.32 198.06 218.12 201.93 213.67 205.75 C 212.04 207.18 210.07 207.02 208.13 207.74 C 206.29 208.84 204.92 210.69 203.12 211.87 C 200.14 212.64 195.94 211.42 193.07 213.13 C 189.16 215.43 187.22 219.30 184.94 223.01 C 182.61 226.89 179.57 230.16 176.25 233.21 C 174.99 232.67 173.70 232.05 172.37 231.73 C 170.21 232.51 169.26 235.74 167.27 236.79 C 165.60 236.88 163.85 236.32 162.22 236.00 C 156.47 234.64 150.70 234.27 144.87 233.46 C 143.37 231.16 142.91 228.54 139.66 228.42 C 133.66 228.09 127.33 229.21 121.99 232.01 C 117.18 234.48 112.25 236.57 107.03 237.99 C 101.89 239.40 96.80 239.10 91.34 239.52 C 85.25 240.05 78.93 238.52 72.83 237.82 C 66.56 236.33 59.99 234.49 54.07 231.94 C 47.02 228.69 42.27 223.19 37.91 216.95 C 39.32 216.27 40.72 215.58 42.13 214.90 C 45.08 218.03 48.23 220.88 51.97 223.05 C 55.84 225.41 60.71 226.56 65.03 227.94 C 67.95 228.85 70.92 229.20 73.97 229.35 C 76.84 229.40 78.98 230.82 81.64 231.76 L 82.84 231.25 C 84.00 230.71 85.16 230.17 86.35 229.69 C 88.84 231.62 91.01 233.50 94.33 233.64 C 96.74 232.53 99.08 231.25 101.39 229.94 C 102.49 230.43 103.59 230.94 104.68 231.47 L 105.53 232.20 C 105.98 230.50 106.46 228.81 106.96 227.13 C 102.80 223.69 99.33 221.96 94.04 220.76 L 92.47 220.34 C 93.33 219.76 94.19 219.19 95.06 218.62 C 97.99 219.93 100.98 220.37 104.05 221.18 C 108.91 223.99 113.47 226.47 119.20 226.95 C 116.97 223.95 114.02 221.85 111.34 219.30 C 116.01 220.19 119.92 222.56 124.32 224.17 C 122.03 220.21 118.27 218.51 114.27 216.72 C 110.03 215.01 105.86 215.23 101.39 215.51 C 98.18 214.28 95.39 212.83 91.89 212.54 C 87.30 212.19 82.80 212.23 78.32 210.94 C 71.10 208.36 60.78 207.34 55.59 201.41 C 52.85 198.49 52.94 195.06 53.86 191.40 C 56.58 187.12 58.62 182.55 60.71 177.94 C 64.19 179.81 67.69 181.65 71.16 183.53 C 69.48 183.43 67.80 183.32 66.12 183.22 C 68.95 185.29 71.87 187.22 74.93 188.94 C 76.66 189.93 78.38 190.95 80.07 192.00 C 77.42 191.64 74.78 191.19 72.14 190.71 C 73.95 192.11 75.70 193.57 77.45 195.03 C 74.22 194.82 71.11 194.33 67.94 193.68 C 72.49 195.05 76.49 195.70 79.59 199.71 C 79.16 200.54 78.73 201.38 78.32 202.23 C 77.87 203.17 77.45 204.11 77.03 205.06 C 84.39 206.47 91.88 207.19 99.23 208.74 C 105.85 210.20 112.07 212.96 118.72 214.26 C 122.14 214.79 125.50 215.01 128.77 216.28 C 130.75 216.84 132.95 218.14 134.95 217.04 C 136.35 216.33 138.26 215.65 138.47 213.87 C 138.90 211.83 138.49 210.51 136.98 209.07 C 136.43 208.53 135.88 207.99 135.32 207.46 C 135.46 206.33 135.61 205.21 135.73 204.09 C 134.28 204.79 132.84 205.53 131.36 206.17 C 126.00 203.71 120.61 201.42 115.46 198.55 C 109.54 195.24 103.19 193.31 96.86 191.00 C 104.93 188.73 112.82 188.13 120.50 184.52 C 126.63 181.64 132.39 178.92 139.26 178.34 C 141.40 178.12 143.64 179.50 145.39 180.60 C 148.93 182.78 150.66 187.74 152.96 191.14 C 153.38 187.68 153.61 184.21 153.70 180.73 C 154.80 182.57 155.90 184.41 157.11 186.19 C 156.17 182.28 154.42 178.77 152.70 175.18 C 152.54 170.77 152.68 166.49 151.75 162.14 C 158.32 163.63 164.28 166.87 167.85 172.75 C 167.38 176.60 169.48 178.98 170.75 182.35 C 171.11 185.65 170.55 189.01 170.90 192.33 C 171.48 197.98 169.47 202.58 168.09 207.97 C 165.98 208.40 163.84 208.69 161.73 209.09 C 158.97 207.44 156.48 205.97 153.12 206.79 C 150.53 207.67 148.30 209.85 146.10 211.45 C 146.50 212.55 146.88 213.65 147.27 214.76 C 145.48 216.06 143.74 217.45 142.05 218.89 C 146.92 217.46 150.74 215.30 155.90 217.19 C 158.13 217.90 160.28 218.79 162.42 219.73 C 161.83 220.76 161.24 221.79 160.65 222.82 C 155.84 223.51 152.77 226.78 149.46 230.06 C 154.52 228.77 159.37 227.09 163.36 223.62 C 162.80 224.98 162.28 226.35 161.80 227.74 C 166.78 226.18 168.17 222.04 171.22 218.18 C 172.86 216.95 174.98 215.95 176.27 214.34 C 177.65 212.25 178.68 209.92 179.88 207.73 C 180.87 208.02 181.86 208.31 182.84 208.60 C 183.58 207.10 184.32 205.63 184.96 204.09 C 185.41 202.97 185.81 201.83 186.21 200.70 C 191.37 190.01 193.05 178.20 193.68 166.47 C 193.95 163.43 194.85 160.56 195.43 157.60 C 195.82 147.57 197.44 137.87 196.23 127.81 C 195.89 123.80 195.33 119.81 194.39 115.89 C 193.63 123.22 194.83 131.80 191.99 138.61 C 190.64 137.40 189.33 136.15 188.21 134.71 C 186.59 131.46 185.10 128.16 183.43 124.93 C 181.78 121.70 179.89 118.60 177.54 115.82 L 176.12 116.53 C 175.33 116.98 174.57 117.45 173.82 117.95 C 172.21 114.78 170.20 111.96 169.09 108.55 C 169.04 106.37 168.97 104.19 168.77 102.02 C 171.98 102.18 175.17 102.22 178.38 102.15 C 177.16 97.33 176.27 92.24 174.33 87.65 C 172.92 84.34 169.47 82.68 167.34 80.00 C 166.58 78.38 166.44 76.40 166.17 74.65 C 167.35 69.88 169.45 65.86 169.34 60.82 C 166.38 61.39 163.75 61.34 162.50 64.58 C 161.86 68.17 162.52 72.10 163.06 75.68 C 159.16 77.56 155.53 79.29 152.76 82.75 C 150.13 85.77 148.43 89.99 144.84 91.81 C 141.12 93.91 137.33 95.90 133.53 97.86 C 132.31 96.90 131.09 95.95 129.83 95.04 L 129.18 94.58 C 128.08 94.93 128.01 95.54 128.97 96.41 C 128.40 96.94 127.81 97.47 127.22 97.99 C 126.25 97.13 125.26 96.28 124.27 95.42 C 125.94 94.21 128.17 93.12 129.35 91.39 C 130.16 89.03 130.36 86.40 130.58 83.92 L 131.81 84.65 C 132.18 83.65 132.54 82.64 132.90 81.64 C 134.98 82.22 137.04 82.60 139.21 82.56 C 141.38 82.54 143.52 82.25 145.66 81.95 C 143.13 78.62 139.82 80.25 136.39 78.63 C 134.72 78.07 134.04 76.03 133.07 74.67 C 136.05 74.37 139.11 74.44 142.05 73.91 C 144.69 73.37 146.61 71.80 148.62 70.12 C 142.88 71.96 137.71 73.21 131.66 71.95 C 130.26 70.19 128.88 68.40 127.55 66.58 C 130.10 66.67 132.60 66.81 135.11 66.26 C 138.88 65.40 142.43 64.75 145.39 62.06 C 142.92 61.74 140.45 61.63 137.98 61.93 C 135.43 62.25 133.77 64.10 131.66 65.50 C 128.86 64.85 126.30 64.01 124.12 62.05 C 122.62 59.46 120.75 57.28 118.57 55.26 C 118.29 56.76 118.08 58.26 118.21 59.80 C 118.11 62.49 119.10 65.77 116.78 67.76 C 114.00 70.60 110.63 70.30 106.96 70.23 C 102.88 70.18 99.08 68.55 95.89 66.08 C 92.39 63.05 91.21 58.48 91.98 53.99 C 92.77 50.94 94.78 48.15 96.80 45.78 C 98.71 43.62 101.18 43.25 103.83 42.56 C 110.73 42.15 117.48 42.86 124.27 44.01 C 123.98 43.13 123.69 42.24 123.42 41.36 Z" fill="#f3f2f1" />
<path d="M 146.18 41.73 C 147.85 43.55 149.52 45.37 151.15 47.22 C 147.94 52.17 148.13 57.35 147.71 62.99 C 145.69 55.73 143.87 48.93 138.50 43.30 C 140.99 42.38 143.56 42.07 146.18 41.73 Z" fill="#89b2b7" />
<path d="M 160.00 41.84 C 164.54 42.97 167.71 44.78 171.49 47.45 C 176.36 50.01 180.27 52.74 184.07 56.76 C 183.30 57.55 182.54 58.36 181.80 59.19 C 181.29 58.97 180.78 58.75 180.26 58.55 C 177.47 56.01 174.94 52.62 171.66 50.72 C 170.55 50.78 169.44 50.90 168.33 51.10 L 167.89 50.62 C 165.09 47.82 162.43 44.97 160.00 41.84 Z" fill="#a47b9a" />
<path d="M 183.69 41.87 C 183.64 44.91 183.67 47.93 184.11 50.95 C 182.07 50.44 179.72 50.21 177.87 49.19 C 177.05 47.94 176.45 46.48 175.88 45.10 C 177.31 45.95 178.73 46.80 180.16 47.65 C 179.99 46.60 179.82 45.55 179.59 44.52 C 180.96 43.64 182.33 42.76 183.69 41.87 Z" fill="#7d7a8a" />
<path d="M 140.09 43.06 C 142.07 42.38 143.74 43.12 145.67 43.58 C 144.69 44.33 143.71 45.09 142.74 45.86 C 141.79 44.98 140.82 44.14 140.09 43.06 Z" fill="#dce6e7" />
<path d="M 213.72 48.89 C 214.42 50.58 215.08 52.29 215.75 54.00 C 214.19 53.95 212.62 53.91 211.06 53.84 C 210.74 53.13 210.43 52.42 210.11 51.71 C 211.32 50.78 212.50 49.81 213.72 48.89 Z" fill="#c1c1c7" />
<path d="M 69.75 50.29 C 70.87 51.64 71.93 53.02 72.98 54.42 C 74.54 54.02 76.09 53.63 77.65 53.24 C 78.48 54.47 79.30 55.71 80.13 56.94 C 83.05 55.42 86.03 54.08 89.15 53.00 C 86.25 57.13 82.42 59.33 77.84 61.19 C 77.67 59.33 77.50 57.47 77.32 55.61 C 76.01 56.58 74.71 57.56 73.40 58.53 C 71.34 55.86 70.39 53.64 69.75 50.29 Z" fill="#899ba4" />
<path d="M 171.66 50.72 C 174.94 52.62 177.47 56.01 180.26 58.55 C 178.39 58.33 176.20 58.31 174.52 57.42 C 171.75 56.01 170.23 53.44 168.33 51.10 C 169.44 50.90 170.55 50.78 171.66 50.72 Z" fill="#e1cbd9" />
<path d="M 35.88 51.03 C 35.55 53.20 35.28 55.34 35.46 57.53 C 35.73 61.76 32.05 62.27 31.03 65.99 C 29.98 68.93 29.13 71.95 28.32 74.97 C 25.61 85.46 26.42 97.09 27.05 107.82 C 27.68 113.66 27.83 119.30 30.37 124.73 C 30.21 129.70 29.57 134.44 28.15 139.21 C 27.81 140.41 27.60 141.60 27.51 142.80 C 27.33 144.94 27.39 147.07 27.57 149.20 C 27.69 150.95 27.89 152.69 28.12 154.43 C 28.28 156.68 28.41 158.93 28.70 161.17 C 28.95 163.07 29.45 164.86 29.91 166.73 L 30.14 167.93 C 31.77 173.93 34.37 180.49 37.06 186.11 L 37.61 187.11 C 38.60 189.47 39.76 191.44 41.30 193.47 C 42.16 194.87 43.04 196.27 43.90 197.67 C 45.51 200.37 47.47 202.84 49.23 205.45 C 50.19 206.86 51.21 208.20 52.33 209.49 C 53.07 210.34 53.79 211.19 54.50 212.06 C 52.78 212.97 51.59 214.15 49.51 213.54 C 43.95 212.34 38.97 208.00 33.89 205.40 C 35.06 206.77 36.24 208.13 37.42 209.50 C 36.77 210.56 36.12 211.63 35.47 212.70 C 34.14 209.86 32.82 207.01 31.55 204.15 C 32.00 203.53 32.45 202.91 32.90 202.29 C 30.36 194.95 28.62 187.42 25.81 180.14 C 23.79 171.47 20.34 162.37 20.72 153.55 C 20.96 144.03 21.06 134.51 20.99 124.98 C 20.92 114.31 17.86 103.28 18.53 92.75 C 18.85 87.21 19.27 81.29 20.85 75.95 C 21.96 71.89 24.76 68.87 25.62 64.72 C 26.92 59.04 30.30 53.35 35.88 51.03 Z" fill="#f5f5f2" />
<path d="M 167.89 50.62 L 168.33 51.10 C 170.23 53.44 171.75 56.01 174.52 57.42 C 176.20 58.31 178.39 58.33 180.26 58.55 C 180.78 58.75 181.29 58.97 181.80 59.19 C 182.69 59.85 183.57 60.54 184.42 61.26 C 181.93 60.81 179.41 60.46 176.92 59.99 C 172.85 59.00 170.10 56.44 166.97 53.86 C 167.27 52.78 167.57 51.70 167.89 50.62 Z" fill="#c5a9bc" />
<path d="M 190.04 51.54 C 191.50 50.54 192.61 52.95 190.81 53.30 C 189.84 53.03 189.58 52.44 190.04 51.54 Z" fill="#8d8fa7" />
<path d="M 163.62 53.28 C 166.27 54.93 167.50 57.58 168.91 60.23 C 165.52 58.65 161.90 57.23 158.78 55.15 C 158.50 54.21 158.30 53.25 158.16 52.27 C 160.13 52.34 161.90 52.13 163.62 53.28 Z" fill="#88acb2" />
<path d="M 153.05 52.87 C 155.80 54.15 156.89 55.40 158.28 58.07 C 155.89 56.65 154.41 55.30 153.05 52.87 Z" fill="#a6b9b9" />
<path d="M 197.14 52.65 C 198.62 54.09 202.09 55.15 200.26 57.64 C 199.14 56.03 198.08 54.38 197.14 52.65 Z" fill="#5b5d77" />
<path d="M 91.98 53.99 C 91.21 58.48 92.39 63.05 95.89 66.08 C 99.08 68.55 102.88 70.18 106.96 70.23 C 110.63 70.30 114.00 70.60 116.78 67.76 C 119.10 65.77 118.11 62.49 118.21 59.80 C 118.41 61.56 118.72 63.31 119.01 65.07 C 121.28 65.66 123.55 66.28 125.82 66.89 C 125.27 65.26 124.73 63.66 124.12 62.05 C 126.30 64.01 128.86 64.85 131.66 65.50 C 132.81 65.79 133.96 66.04 135.11 66.26 C 132.60 66.81 130.10 66.67 127.55 66.58 C 128.88 68.40 130.26 70.19 131.66 71.95 C 128.92 72.22 128.23 73.63 126.87 75.72 C 130.69 78.62 134.70 80.91 139.21 82.56 C 137.04 82.60 134.98 82.22 132.90 81.64 C 132.54 82.64 132.18 83.65 131.81 84.65 L 130.58 83.92 L 129.67 83.34 C 129.10 85.90 128.49 88.44 127.84 90.98 C 121.92 89.59 117.04 85.73 111.03 84.32 C 109.51 80.73 108.38 77.39 104.93 75.16 C 104.32 77.17 104.17 79.12 102.77 80.72 C 100.37 83.55 97.96 86.34 95.86 89.40 C 93.22 89.32 90.58 89.22 87.95 89.07 C 89.67 89.95 91.54 90.78 93.06 91.99 C 94.81 95.15 95.59 98.81 97.23 102.05 L 98.26 100.60 C 98.81 99.95 99.37 99.30 99.93 98.66 C 98.90 103.99 102.04 109.34 103.38 114.68 C 102.87 115.51 102.35 116.34 101.84 117.17 L 101.42 116.47 C 100.31 114.61 99.14 112.79 97.86 111.05 C 95.60 114.91 96.98 118.26 97.88 122.25 C 95.88 122.71 93.99 122.95 91.96 122.56 C 92.75 122.02 93.55 121.48 94.34 120.94 C 94.12 117.78 94.19 114.51 93.60 111.39 C 93.01 108.33 91.37 105.77 90.12 102.86 L 89.74 101.30 C 88.53 102.31 87.32 103.33 86.08 104.29 C 86.17 101.93 86.60 99.64 87.03 97.32 C 87.52 94.68 87.17 92.07 87.46 89.44 C 88.76 87.29 90.78 85.52 92.51 83.71 C 90.85 80.64 88.65 77.31 88.27 73.81 C 87.88 70.18 87.79 66.49 89.16 63.05 C 90.35 60.06 91.29 57.13 91.98 53.99 Z" fill="#64757e" />
<path d="M 118.57 55.26 C 120.75 57.28 122.62 59.46 124.12 62.05 C 124.73 63.66 125.27 65.26 125.82 66.89 C 123.55 66.28 121.28 65.66 119.01 65.07 C 118.72 63.31 118.41 61.56 118.21 59.80 C 118.08 58.26 118.29 56.76 118.57 55.26 Z" fill="#405260" />
<path d="M 198.52 58.66 C 199.58 60.87 200.68 63.05 201.98 65.13 C 201.79 65.89 201.59 66.66 201.40 67.43 C 204.79 68.45 208.24 69.27 211.64 70.29 C 206.51 71.57 202.45 68.02 197.29 69.20 C 192.77 65.36 188.42 61.46 184.72 56.80 C 189.34 57.17 193.91 58.12 198.52 58.66 Z" fill="#8eb6bc" />
<path d="M 184.07 56.76 L 184.72 56.80 C 188.42 61.46 192.77 65.36 197.29 69.20 C 200.75 72.67 203.61 76.50 206.00 80.78 C 206.79 82.20 207.60 83.61 208.46 85.00 C 213.23 93.82 218.25 102.32 222.46 111.49 C 226.41 121.47 226.32 131.79 224.40 142.21 C 224.12 142.98 223.80 143.74 223.46 144.49 C 223.05 145.34 222.65 146.19 222.26 147.05 C 222.69 137.20 220.11 128.19 215.37 119.63 C 213.93 114.51 211.45 109.83 209.94 104.75 C 209.50 102.18 209.36 99.48 209.18 96.88 C 207.54 96.52 205.90 96.18 204.27 95.81 C 201.98 92.40 199.69 88.98 197.41 85.56 C 194.50 81.20 190.74 77.57 187.83 73.20 C 185.95 69.82 183.84 66.58 182.07 63.14 C 184.46 65.05 186.79 67.02 189.21 68.88 C 188.32 65.73 187.14 63.22 184.42 61.26 C 183.57 60.54 182.69 59.85 181.80 59.19 C 182.54 58.36 183.30 57.55 184.07 56.76 Z" fill="#8e4c81" />
<path d="M 208.10 56.84 C 209.06 57.24 210.00 57.67 210.93 58.12 C 213.39 59.93 215.62 61.98 217.37 64.50 C 213.64 63.22 210.47 59.89 208.10 56.84 Z" fill="#26243a" />
<path d="M 176.92 59.99 C 179.41 60.46 181.93 60.81 184.42 61.26 C 187.14 63.22 188.32 65.73 189.21 68.88 C 186.79 67.02 184.46 65.05 182.07 63.14 C 183.84 66.58 185.95 69.82 187.83 73.20 C 183.38 69.20 179.93 65.18 176.92 59.99 Z" fill="#a5779a" />
<path d="M 169.34 60.82 C 169.45 65.86 167.35 69.88 166.17 74.65 C 165.54 75.84 164.86 77.01 164.18 78.18 C 163.80 77.35 163.42 76.52 163.06 75.68 C 162.52 72.10 161.86 68.17 162.50 64.58 C 163.75 61.34 166.38 61.39 169.34 60.82 Z" fill="#88b3b6" />
<path d="M 137.98 61.93 C 140.45 61.63 142.92 61.74 145.39 62.06 C 142.43 64.75 138.88 65.40 135.11 66.26 C 133.96 66.04 132.81 65.79 131.66 65.50 C 133.77 64.10 135.43 62.25 137.98 61.93 Z" fill="#19162d" />
<path d="M 50.09 63.28 C 52.54 67.97 56.45 70.70 60.45 73.93 C 64.28 71.51 66.60 67.99 68.97 64.24 C 69.18 67.46 68.88 71.12 69.96 74.19 C 71.54 76.17 73.91 77.60 75.91 79.12 C 73.44 80.54 71.67 81.90 68.67 81.24 C 68.54 79.71 68.54 78.10 68.14 76.61 C 67.40 75.23 66.21 74.07 65.20 72.88 C 63.85 74.98 62.84 78.97 59.85 78.99 C 55.98 79.29 51.19 77.12 49.36 73.58 C 48.87 70.24 49.65 66.61 50.09 63.28 Z" fill="#83919a" />
<path d="M 219.12 66.27 C 220.05 65.66 222.35 67.95 221.75 68.89 C 220.65 69.59 218.43 67.36 219.12 66.27 Z" fill="#53536b" />
<path d="M 211.64 70.29 C 213.24 70.44 214.84 70.62 216.43 70.72 C 219.04 76.90 223.04 82.26 225.41 88.57 C 221.54 88.43 218.79 86.38 215.72 84.28 C 212.82 82.22 209.49 81.28 206.00 80.78 C 203.61 76.50 200.75 72.67 197.29 69.20 C 202.45 68.02 206.51 71.57 211.64 70.29 Z" fill="#20223f" />
<path d="M 148.62 70.12 C 146.61 71.80 144.69 73.37 142.05 73.91 C 139.11 74.44 136.05 74.37 133.07 74.67 C 134.04 76.03 134.72 78.07 136.39 78.63 C 139.82 80.25 143.13 78.62 145.66 81.95 C 143.52 82.25 141.38 82.54 139.21 82.56 C 134.70 80.91 130.69 78.62 126.87 75.72 C 128.23 73.63 128.92 72.22 131.66 71.95 C 137.71 73.21 142.88 71.96 148.62 70.12 Z" fill="#495461" />
<path d="M 179.32 73.63 C 182.71 75.97 185.84 78.75 189.08 81.30 C 187.95 87.69 184.74 93.03 184.89 99.71 C 184.28 99.28 183.67 98.88 183.04 98.49 C 183.33 94.02 183.93 89.37 183.39 84.90 C 182.49 81.03 180.37 77.49 179.32 73.63 Z" fill="#8bb1b7" />
<path d="M 104.93 75.16 C 108.38 77.39 109.51 80.73 111.03 84.32 C 117.04 85.73 121.92 89.59 127.84 90.98 C 128.49 88.44 129.10 85.90 129.67 83.34 L 130.58 83.92 C 130.36 86.40 130.16 89.03 129.35 91.39 C 128.17 93.12 125.94 94.21 124.27 95.42 C 125.26 96.28 126.25 97.13 127.22 97.99 C 125.02 98.70 122.76 98.92 120.46 98.95 C 118.96 98.43 117.49 97.87 116.04 97.22 C 113.83 94.61 112.27 93.03 108.80 92.39 C 107.29 91.54 105.78 90.68 104.27 89.84 C 104.89 89.18 105.51 88.51 106.13 87.84 C 105.03 86.14 103.93 84.45 102.76 82.80 C 100.82 85.08 99.13 87.38 98.38 90.34 C 97.50 93.62 98.07 97.24 98.26 100.60 L 97.23 102.05 C 95.59 98.81 94.81 95.15 93.06 91.99 C 91.54 90.78 89.67 89.95 87.95 89.07 C 90.58 89.22 93.22 89.32 95.86 89.40 C 97.96 86.34 100.37 83.55 102.77 80.72 C 104.17 79.12 104.32 77.17 104.93 75.16 Z" fill="#869198" />
<path d="M 166.17 74.65 C 166.44 76.40 166.58 78.38 167.34 80.00 C 169.47 82.68 172.92 84.34 174.33 87.65 C 176.27 92.24 177.16 97.33 178.38 102.15 C 175.17 102.22 171.98 102.18 168.77 102.02 C 168.97 104.19 169.04 106.37 169.09 108.55 C 164.62 104.11 161.11 98.88 156.31 94.81 C 159.30 99.68 163.05 103.54 165.11 109.01 C 166.41 112.61 167.86 115.71 169.84 118.99 C 169.54 119.67 169.23 120.36 168.93 121.05 C 167.86 120.88 166.80 120.71 165.73 120.54 C 166.22 124.57 168.92 129.98 166.76 133.71 C 165.48 136.35 163.33 139.57 160.42 140.52 C 157.41 141.55 153.94 139.97 151.11 138.96 C 142.55 135.59 133.91 133.19 126.56 127.46 C 123.43 124.98 118.93 122.50 117.50 118.61 C 116.21 115.30 115.61 111.56 115.93 108.02 C 115.90 105.66 118.75 104.11 120.32 102.67 C 120.37 101.43 120.41 100.19 120.46 98.95 C 122.76 98.92 125.02 98.70 127.22 97.99 C 127.81 97.47 128.40 96.94 128.97 96.41 L 129.83 95.04 C 131.09 95.95 132.31 96.90 133.53 97.86 C 137.33 95.90 141.12 93.91 144.84 91.81 C 148.43 89.99 150.13 85.77 152.76 82.75 C 155.53 79.29 159.16 77.56 163.06 75.68 C 163.42 76.52 163.80 77.35 164.18 78.18 C 164.86 77.01 165.54 75.84 166.17 74.65 Z" fill="#fafaf8" />
<path d="M 36.20 78.11 C 37.39 82.28 39.51 85.98 41.12 89.97 C 43.28 96.63 50.53 97.60 51.30 105.11 C 47.75 102.38 45.17 99.01 42.08 95.81 C 38.79 99.70 35.73 102.83 36.62 108.37 C 36.72 109.54 36.85 110.72 36.98 111.89 C 35.67 113.53 34.35 115.15 33.01 116.77 C 34.05 111.57 35.42 106.67 35.91 101.54 C 36.69 93.81 36.06 85.91 36.20 78.11 Z" fill="#83939e" />
<path d="M 206.00 80.78 C 209.49 81.28 212.82 82.22 215.72 84.28 C 218.79 86.38 221.54 88.43 225.41 88.57 C 225.91 89.65 226.41 90.74 226.88 91.84 C 225.98 91.53 225.07 91.25 224.15 91.01 C 218.37 89.70 213.02 89.27 208.46 85.00 C 207.60 83.61 206.79 82.20 206.00 80.78 Z" fill="#94bac0" />
<path d="M 102.76 82.80 C 103.93 84.45 105.03 86.14 106.13 87.84 C 105.51 88.51 104.89 89.18 104.27 89.84 C 103.26 90.93 102.23 92.00 101.20 93.08 C 100.75 92.02 100.29 90.96 99.82 89.91 C 99.53 92.85 100.16 95.72 99.93 98.66 C 99.37 99.30 98.81 99.95 98.26 100.60 C 98.07 97.24 97.50 93.62 98.38 90.34 C 99.13 87.38 100.82 85.08 102.76 82.80 Z" fill="#1e243a" />
<path d="M 208.46 85.00 C 213.02 89.27 218.37 89.70 224.15 91.01 C 225.65 96.09 227.03 101.19 228.87 106.16 C 229.78 108.93 231.08 111.97 231.07 114.91 C 230.65 116.67 229.85 118.40 229.15 120.07 C 230.77 122.26 232.23 124.04 231.88 126.97 C 231.94 130.02 229.64 131.69 228.81 134.33 C 228.48 137.29 228.68 140.05 227.25 142.80 C 226.30 142.60 225.35 142.41 224.40 142.21 C 226.32 131.79 226.41 121.47 222.46 111.49 C 218.25 102.32 213.23 93.82 208.46 85.00 Z" fill="#20213e" />
<path d="M 134.34 87.27 C 135.02 88.22 133.57 91.93 132.21 91.44 C 131.33 90.58 132.99 86.57 134.34 87.27 Z" fill="#7d7c80" />
<path d="M 190.15 87.13 C 195.04 90.58 197.94 94.90 204.27 95.81 C 205.90 96.18 207.54 96.52 209.18 96.88 C 209.36 99.48 209.50 102.18 209.94 104.75 C 209.34 104.68 208.73 104.62 208.12 104.56 C 206.28 112.10 206.09 119.75 204.95 127.38 C 202.26 121.89 204.28 116.96 203.54 111.31 C 202.50 107.84 200.22 104.68 198.52 101.48 C 195.86 96.45 192.00 92.60 190.15 87.13 Z" fill="#8db5ba" />
<path d="M 69.10 90.18 C 71.55 92.32 73.69 94.76 75.20 97.66 C 76.40 99.74 77.32 102.28 78.99 104.03 C 81.24 105.22 83.81 105.74 86.08 104.29 C 87.32 103.33 88.53 102.31 89.74 101.30 L 90.12 102.86 C 89.01 104.33 87.86 106.38 86.17 107.21 C 83.93 108.01 81.35 108.05 78.99 108.27 C 75.33 105.43 71.91 102.19 68.83 98.72 C 66.59 96.58 68.46 92.66 69.10 90.18 Z" fill="#81909b" />
<path d="M 99.82 89.91 C 100.29 90.96 100.75 92.02 101.20 93.08 C 102.23 92.00 103.26 90.93 104.27 89.84 C 105.78 90.68 107.29 91.54 108.80 92.39 C 111.00 94.38 113.23 96.17 116.04 97.22 C 117.49 97.87 118.96 98.43 120.46 98.95 C 120.41 100.19 120.37 101.43 120.32 102.67 C 118.75 104.11 115.90 105.66 115.93 108.02 C 115.61 111.56 116.21 115.30 117.50 118.61 C 118.93 122.50 123.43 124.98 126.56 127.46 C 133.91 133.19 142.55 135.59 151.11 138.96 C 153.94 139.97 157.41 141.55 160.42 140.52 C 163.33 139.57 165.48 136.35 166.76 133.71 C 168.92 129.98 166.22 124.57 165.73 120.54 C 166.80 120.71 167.86 120.88 168.93 121.05 C 169.23 120.36 169.54 119.67 169.84 118.99 C 174.63 132.81 179.28 146.86 180.78 161.49 C 182.18 167.72 182.05 174.31 180.69 180.53 C 180.48 178.10 180.54 175.58 180.02 173.20 C 179.39 171.52 178.29 169.98 177.37 168.44 C 176.24 165.61 175.58 162.92 173.32 160.70 C 170.14 157.53 166.53 154.79 163.17 151.80 C 164.56 154.29 165.67 156.73 166.25 159.54 C 164.34 158.04 162.45 156.54 160.73 154.83 C 158.49 152.62 156.23 150.46 153.81 148.46 C 151.34 146.25 148.49 144.80 145.47 143.50 C 142.68 142.16 140.19 140.59 137.11 139.95 C 133.95 139.24 130.77 138.58 127.63 137.78 C 124.03 135.55 120.59 133.13 117.21 130.58 C 115.90 129.56 114.56 128.60 113.15 127.71 C 111.25 125.57 109.54 123.28 107.84 120.97 C 106.32 118.91 104.74 116.85 103.38 114.68 C 102.04 109.34 98.90 103.99 99.93 98.66 C 100.16 95.72 99.53 92.85 99.82 89.91 Z" fill="#f2f2f0" />
<path d="M 224.15 91.01 C 225.07 91.25 225.98 91.53 226.88 91.84 C 231.56 103.82 233.94 117.19 234.34 130.01 C 233.75 141.34 232.14 153.16 227.68 163.66 C 225.19 169.50 223.01 176.02 219.30 181.16 C 215.96 184.84 211.35 190.02 211.63 195.31 C 208.40 199.92 204.95 204.73 200.54 208.29 C 202.48 202.46 204.47 196.10 207.98 191.02 C 211.91 185.09 214.34 178.60 217.08 172.09 C 218.30 168.99 219.78 165.75 220.37 162.47 C 220.84 160.53 219.49 158.29 218.86 156.48 C 219.51 155.00 220.14 153.51 220.68 151.98 C 221.62 153.45 222.59 154.90 223.58 156.35 C 223.19 154.90 222.80 153.46 222.40 152.02 C 224.02 150.78 225.76 149.58 227.16 148.09 C 228.53 146.61 229.08 144.24 229.70 142.36 C 227.72 144.16 226.47 146.04 225.37 148.46 C 224.76 147.13 224.12 145.80 223.46 144.49 C 223.80 143.74 224.12 142.98 224.40 142.21 C 225.35 142.41 226.30 142.60 227.25 142.80 C 228.68 140.05 228.48 137.29 228.81 134.33 C 229.64 131.69 231.94 130.02 231.88 126.97 C 232.23 124.04 230.77 122.26 229.15 120.07 C 229.85 118.40 230.65 116.67 231.07 114.91 C 231.08 111.97 229.78 108.93 228.87 106.16 C 227.03 101.19 225.65 96.09 224.15 91.01 Z" fill="#8a4e7e" />
<path d="M 116.04 97.22 C 113.23 96.17 111.00 94.38 108.80 92.39 C 112.27 93.03 113.83 94.61 116.04 97.22 Z" fill="#555862" />
<path d="M 129.18 94.58 L 129.83 95.04 L 128.97 96.41 C 128.01 95.54 128.08 94.93 129.18 94.58 Z" fill="#586163" />
<path d="M 156.31 94.81 C 161.11 98.88 164.62 104.11 169.09 108.55 C 170.20 111.96 172.21 114.78 173.82 117.95 C 175.28 120.90 176.66 123.86 178.08 126.83 C 179.96 132.49 181.55 138.24 183.05 144.02 C 184.14 151.93 185.86 159.63 188.45 167.18 C 187.90 162.89 187.38 158.59 187.14 154.26 C 187.91 154.17 188.67 154.08 189.44 153.99 C 189.48 156.49 189.36 159.00 189.27 161.50 C 189.86 162.04 190.45 162.58 191.04 163.13 C 191.22 158.14 190.75 153.13 192.45 148.44 C 194.86 141.72 195.62 134.88 196.23 127.81 C 197.44 137.87 195.82 147.57 195.43 157.60 C 194.85 160.56 193.95 163.43 193.68 166.47 C 193.05 178.20 191.37 190.01 186.21 200.70 C 185.86 197.20 186.29 193.82 186.76 190.36 C 184.72 191.97 183.46 194.02 182.22 196.25 C 181.68 195.48 181.14 194.70 180.59 193.93 C 182.85 189.80 180.65 185.28 180.69 180.53 C 182.05 174.31 182.18 167.72 180.78 161.49 C 179.28 146.86 174.63 132.81 169.84 118.99 C 167.86 115.71 166.41 112.61 165.11 109.01 C 163.05 103.54 159.30 99.68 156.31 94.81 Z" fill="#21223e" />
<path d="M 67.15 99.23 C 67.47 102.98 66.50 106.71 64.69 109.99 C 64.02 111.21 62.58 112.11 61.18 111.80 C 57.04 111.00 54.50 108.06 51.77 105.14 C 55.13 106.14 59.05 107.96 62.59 107.61 C 64.68 105.26 65.39 101.86 67.15 99.23 Z" fill="#8995a1" />
<path d="M 90.12 102.86 C 91.37 105.77 93.01 108.33 93.60 111.39 C 94.19 114.51 94.12 117.78 94.34 120.94 C 93.55 121.48 92.75 122.02 91.96 122.56 C 89.67 121.09 87.44 119.54 85.15 118.07 C 84.57 122.46 83.77 126.62 82.00 130.70 C 80.19 131.16 78.39 131.64 76.65 132.30 C 75.42 134.10 74.38 135.99 73.38 137.92 C 67.17 133.40 62.50 126.32 58.68 119.77 C 59.72 119.50 60.76 119.24 61.80 118.98 C 63.96 120.24 66.56 123.26 69.17 121.25 C 72.76 118.10 72.51 113.40 72.49 109.05 C 73.40 109.80 74.30 110.67 75.34 111.22 C 77.19 110.99 79.01 110.21 80.78 109.65 C 80.18 109.19 79.59 108.73 78.99 108.27 C 81.35 108.05 83.93 108.01 86.17 107.21 C 87.86 106.38 89.01 104.33 90.12 102.86 Z" fill="#4d606c" />
<path d="M 27.05 107.82 C 28.07 111.69 28.67 115.41 28.92 119.41 C 29.80 119.03 30.69 118.66 31.58 118.28 C 32.61 123.83 34.35 128.81 37.75 133.38 C 38.43 132.82 39.12 132.25 39.80 131.69 C 39.14 128.31 38.05 124.41 38.61 120.98 C 38.90 119.00 41.00 117.42 42.33 116.02 C 40.53 114.66 38.76 113.27 36.98 111.89 C 36.85 110.72 36.72 109.54 36.62 108.37 C 40.66 109.97 44.74 111.47 48.82 112.99 C 48.08 114.98 47.34 116.97 46.59 118.96 C 47.92 120.56 49.26 122.16 50.59 123.77 C 50.85 122.56 51.13 121.35 51.43 120.15 C 53.33 125.51 55.22 130.88 57.04 136.28 C 58.57 135.64 60.11 135.03 61.65 134.42 C 60.86 132.27 60.09 130.12 59.37 127.94 C 61.43 130.60 63.28 132.83 62.46 136.45 C 61.12 137.60 59.46 138.26 57.86 138.95 C 56.37 138.39 54.27 136.28 52.83 137.74 C 49.77 140.01 49.87 142.86 50.13 146.27 C 46.76 144.63 43.54 142.83 40.37 140.83 C 41.07 137.48 41.86 134.14 42.65 130.80 C 39.79 135.30 37.73 140.07 36.98 145.38 C 35.98 145.70 34.98 146.03 33.97 146.36 C 31.65 141.93 32.94 137.88 32.55 133.05 C 32.53 130.07 31.56 127.41 30.37 124.73 C 27.83 119.30 27.68 113.66 27.05 107.82 Z" fill="#51636f" />
<path d="M 52.02 111.00 C 54.68 113.60 56.81 116.57 58.68 119.77 C 62.50 126.32 67.17 133.40 73.38 137.92 C 76.35 139.94 78.84 142.68 81.86 144.60 C 86.00 145.67 90.58 145.18 94.83 145.89 L 95.61 146.06 C 96.75 147.76 98.14 149.23 99.50 150.75 C 96.94 150.77 94.38 150.83 91.82 150.95 C 93.67 152.60 95.11 155.29 97.96 154.85 C 102.95 154.39 107.95 154.63 112.90 153.85 C 115.18 153.59 117.46 153.34 119.74 153.05 C 120.37 153.76 120.99 154.48 121.61 155.20 C 120.37 155.40 119.14 155.65 117.90 155.89 C 115.75 156.31 113.61 156.79 111.49 157.34 C 103.60 159.72 96.47 162.69 87.98 163.35 C 85.96 163.23 83.95 161.77 82.18 160.86 C 77.38 158.03 72.28 156.00 67.20 153.75 C 65.46 151.70 63.65 149.70 61.95 147.61 C 60.28 144.88 59.04 141.92 57.86 138.95 C 59.46 138.26 61.12 137.60 62.46 136.45 C 63.28 132.83 61.43 130.60 59.37 127.94 C 60.09 130.12 60.86 132.27 61.65 134.42 C 60.11 135.03 58.57 135.64 57.04 136.28 C 55.22 130.88 53.33 125.51 51.43 120.15 C 52.25 119.20 53.13 118.34 54.01 117.46 C 53.31 115.32 52.63 113.17 52.02 111.00 Z" fill="#21223f" />
<path d="M 97.86 111.05 C 99.14 112.79 100.31 114.61 101.42 116.47 C 100.35 116.45 99.27 116.45 98.18 116.48 C 98.53 118.89 99.03 121.23 99.53 123.61 C 100.95 123.40 102.37 123.19 103.78 122.99 C 103.18 121.03 102.58 119.08 101.84 117.17 C 102.35 116.34 102.87 115.51 103.38 114.68 C 104.74 116.85 106.32 118.91 107.84 120.97 L 106.84 122.21 C 104.70 124.11 102.36 125.72 100.00 127.34 C 99.53 130.38 99.75 134.08 97.51 136.42 C 95.12 139.13 93.01 141.84 91.41 145.10 C 92.55 145.36 93.69 145.63 94.83 145.89 C 90.58 145.18 86.00 145.67 81.86 144.60 C 78.84 142.68 76.35 139.94 73.38 137.92 C 74.38 135.99 75.42 134.10 76.65 132.30 C 77.73 133.83 78.72 135.60 80.11 136.88 C 82.87 137.85 85.82 138.73 88.66 139.45 C 92.28 135.90 96.50 132.43 98.94 127.95 C 95.42 126.93 91.96 125.73 88.41 124.81 C 86.31 128.31 84.30 131.63 81.04 134.20 C 81.34 133.03 81.66 131.86 82.00 130.70 C 83.77 126.62 84.57 122.46 85.15 118.07 C 87.44 119.54 89.67 121.09 91.96 122.56 C 93.99 122.95 95.88 122.71 97.88 122.25 C 96.98 118.26 95.60 114.91 97.86 111.05 Z" fill="#808d95" />
<path d="M 98.18 116.48 C 99.27 116.45 100.35 116.45 101.42 116.47 L 101.84 117.17 C 102.58 119.08 103.18 121.03 103.78 122.99 C 102.37 123.19 100.95 123.40 99.53 123.61 C 99.03 121.23 98.53 118.89 98.18 116.48 Z" fill="#a5b1b2" />
<path d="M 176.12 116.53 C 177.96 120.25 179.18 123.98 182.21 127.03 C 182.61 126.33 183.02 125.63 183.43 124.93 C 185.10 128.16 186.59 131.46 188.21 134.71 C 187.35 135.77 186.49 136.84 185.64 137.90 C 183.79 133.53 181.76 129.93 178.08 126.83 C 176.66 123.86 175.28 120.90 173.82 117.95 C 174.57 117.45 175.33 116.98 176.12 116.53 Z" fill="#a06d90" />
<path d="M 176.12 116.53 L 177.54 115.82 C 179.89 118.60 181.78 121.70 183.43 124.93 C 183.02 125.63 182.61 126.33 182.21 127.03 C 179.18 123.98 177.96 120.25 176.12 116.53 Z" fill="#855078" />
<path d="M 194.39 115.89 C 195.33 119.81 195.89 123.80 196.23 127.81 C 195.62 134.88 194.86 141.72 192.45 148.44 C 190.75 153.13 191.22 158.14 191.04 163.13 C 190.45 162.58 189.86 162.04 189.27 161.50 C 189.36 159.00 189.48 156.49 189.44 153.99 C 187.60 150.41 185.28 147.34 183.05 144.02 C 181.55 138.24 179.96 132.49 178.08 126.83 C 181.76 129.93 183.79 133.53 185.64 137.90 C 186.49 136.84 187.35 135.77 188.21 134.71 C 189.33 136.15 190.64 137.40 191.99 138.61 C 194.83 131.80 193.63 123.22 194.39 115.89 Z" fill="#8d4d81" />
<path d="M 215.37 119.63 C 220.11 128.19 222.69 137.20 222.26 147.05 C 221.91 148.10 221.56 149.15 221.23 150.21 C 221.27 149.29 221.31 148.36 221.33 147.44 C 219.99 147.91 218.67 148.41 217.35 148.92 C 216.59 142.96 215.56 136.92 215.32 130.91 C 215.24 128.52 216.18 126.40 216.93 124.16 C 216.18 123.52 215.43 122.89 214.68 122.25 C 214.92 121.38 215.15 120.50 215.37 119.63 Z" fill="#b182a6" />
<path d="M 107.84 120.97 C 109.54 123.28 111.25 125.57 113.15 127.71 C 110.30 126.61 108.60 124.62 106.84 122.21 L 107.84 120.97 Z" fill="#4a4c51" />
<path d="M 106.84 122.21 C 108.60 124.62 110.30 126.61 113.15 127.71 C 114.56 128.60 115.90 129.56 117.21 130.58 C 118.97 133.46 120.66 136.31 122.88 138.87 C 120.73 138.91 118.22 138.69 116.18 139.46 C 114.16 140.58 112.68 142.62 110.76 143.92 C 106.57 144.98 101.51 143.56 97.36 142.55 C 97.05 143.78 96.76 145.02 96.48 146.25 L 95.61 146.06 L 94.83 145.89 C 93.69 145.63 92.55 145.36 91.41 145.10 C 93.01 141.84 95.12 139.13 97.51 136.42 C 99.75 134.08 99.53 130.38 100.00 127.34 C 102.36 125.72 104.70 124.11 106.84 122.21 Z" fill="#a9b1b1" />
<path d="M 88.41 124.81 C 91.96 125.73 95.42 126.93 98.94 127.95 C 96.50 132.43 92.28 135.90 88.66 139.45 C 85.82 138.73 82.87 137.85 80.11 136.88 C 78.72 135.60 77.73 133.83 76.65 132.30 C 78.39 131.64 80.19 131.16 82.00 130.70 C 81.66 131.86 81.34 133.03 81.04 134.20 C 84.30 131.63 86.31 128.31 88.41 124.81 Z" fill="#5f6f77" />
<path d="M 30.37 124.73 C 31.56 127.41 32.53 130.07 32.55 133.05 C 32.94 137.88 31.65 141.93 33.97 146.36 C 34.98 146.03 35.98 145.70 36.98 145.38 C 36.98 149.52 37.61 153.26 41.16 155.85 C 43.03 157.59 45.40 155.01 46.99 153.99 C 49.44 152.27 50.24 149.02 52.42 147.24 C 54.96 146.48 57.99 150.13 59.89 151.55 C 60.56 150.23 61.26 148.92 61.95 147.61 C 63.65 149.70 65.46 151.70 67.20 153.75 L 67.30 155.63 C 65.92 157.44 65.09 159.53 62.67 160.03 C 58.05 161.44 54.64 157.95 50.46 160.59 C 50.88 161.71 51.29 162.84 51.70 163.96 C 47.13 162.59 42.84 160.61 38.58 158.49 C 38.27 159.33 37.96 160.17 37.65 161.01 C 36.76 159.48 35.86 157.95 34.94 156.43 C 34.05 158.27 33.16 160.10 32.23 161.92 C 31.59 157.26 32.21 152.59 31.55 147.95 C 31.20 144.93 30.99 141.89 30.77 138.85 C 30.33 139.96 29.88 141.06 29.49 142.19 C 29.17 141.16 28.72 140.17 28.15 139.21 C 29.57 134.44 30.21 129.70 30.37 124.73 Z" fill="#6a7982" />
<path d="M 42.65 130.80 C 41.86 134.14 41.07 137.48 40.37 140.83 C 43.54 142.83 46.76 144.63 50.13 146.27 C 49.87 142.86 49.77 140.01 52.83 137.74 C 54.27 136.28 56.37 138.39 57.86 138.95 C 59.04 141.92 60.28 144.88 61.95 147.61 C 61.26 148.92 60.56 150.23 59.89 151.55 C 57.99 150.13 54.96 146.48 52.42 147.24 C 50.24 149.02 49.44 152.27 46.99 153.99 C 45.40 155.01 43.03 157.59 41.16 155.85 C 37.61 153.26 36.98 149.52 36.98 145.38 C 37.73 140.07 39.79 135.30 42.65 130.80 Z" fill="#5f707a" />
<path d="M 117.21 130.58 C 120.59 133.13 124.03 135.55 127.63 137.78 C 129.26 139.89 130.85 142.04 132.55 144.10 C 128.98 142.89 125.63 141.53 122.88 138.87 C 120.66 136.31 118.97 133.46 117.21 130.58 Z" fill="#929b9f" />
<path d="M 122.88 138.87 C 125.63 141.53 128.98 142.89 132.55 144.10 C 131.90 145.49 131.23 147.05 130.21 148.22 C 128.29 149.12 125.91 149.17 123.83 149.58 C 124.67 149.82 125.52 150.06 126.36 150.28 C 124.41 150.97 122.45 151.62 120.49 152.25 C 119.80 151.78 119.12 151.30 118.44 150.82 C 121.10 149.21 123.70 148.03 126.72 147.26 C 125.77 146.99 124.82 146.70 123.87 146.44 L 124.82 144.69 C 121.60 144.59 118.89 144.01 116.23 146.28 C 115.70 146.63 115.19 146.98 114.67 147.34 C 113.02 147.31 111.35 147.24 109.70 147.09 C 106.68 146.50 103.69 145.90 100.60 145.83 C 99.41 146.26 98.26 146.78 97.10 147.29 L 96.48 146.25 C 96.76 145.02 97.05 143.78 97.36 142.55 C 101.51 143.56 106.57 144.98 110.76 143.92 C 112.68 142.62 114.16 140.58 116.18 139.46 C 118.22 138.69 120.73 138.91 122.88 138.87 Z" fill="#cccfce" />
<path d="M 127.63 137.78 C 130.77 138.58 133.95 139.24 137.11 139.95 C 137.44 140.72 137.78 141.49 138.13 142.26 C 136.26 142.85 134.40 143.45 132.55 144.10 C 130.85 142.04 129.26 139.89 127.63 137.78 Z" fill="#60797c" />
<path d="M 28.15 139.21 C 28.72 140.17 29.17 141.16 29.49 142.19 C 29.19 143.32 28.85 144.44 28.47 145.53 C 28.05 144.64 27.74 143.73 27.51 142.80 C 27.60 141.60 27.81 140.41 28.15 139.21 Z" fill="#1b1b32" />
<path d="M 30.77 138.85 C 30.99 141.89 31.20 144.93 31.55 147.95 C 32.21 152.59 31.59 157.26 32.23 161.92 C 33.16 160.10 34.05 158.27 34.94 156.43 C 35.86 157.95 36.76 159.48 37.65 161.01 C 39.42 164.17 41.24 167.29 43.15 170.36 C 45.41 169.89 48.07 169.74 50.11 168.62 C 52.56 166.60 54.51 163.97 56.81 161.78 C 58.25 162.86 59.66 164.19 61.30 164.94 C 64.12 165.28 67.15 164.56 69.98 164.27 C 70.25 163.75 70.52 163.24 70.80 162.72 C 71.58 162.93 72.37 163.13 73.15 163.33 C 72.71 162.07 72.26 160.81 71.78 159.55 C 73.62 160.68 75.38 161.83 76.85 163.43 C 75.72 164.39 74.32 165.31 73.50 166.57 C 72.90 168.56 72.97 170.81 72.91 172.88 C 70.14 173.44 67.37 173.83 64.54 173.85 C 61.95 172.75 59.45 171.44 56.85 170.36 C 55.30 172.16 54.53 176.44 51.58 175.86 C 48.45 175.66 45.35 173.30 42.62 171.86 C 42.13 173.27 41.62 174.63 41.29 176.08 C 40.46 179.14 40.50 182.01 38.43 184.52 C 37.35 182.10 36.34 179.65 35.45 177.15 C 35.24 173.93 34.78 170.80 33.65 167.76 C 33.05 167.77 32.44 167.79 31.83 167.82 C 31.26 167.85 30.70 167.89 30.14 167.93 L 29.91 166.73 C 31.31 162.97 30.88 161.09 29.02 157.66 C 28.89 158.82 28.78 159.99 28.70 161.17 C 28.41 158.93 28.28 156.68 28.12 154.43 C 28.50 152.24 28.86 150.05 29.11 147.85 L 27.57 149.20 C 27.39 147.07 27.33 144.94 27.51 142.80 C 27.74 143.73 28.05 144.64 28.47 145.53 C 28.85 144.44 29.19 143.32 29.49 142.19 C 29.88 141.06 30.33 139.96 30.77 138.85 Z" fill="#8e989c" />
<path d="M 137.11 139.95 C 140.19 140.59 142.68 142.16 145.47 143.50 C 146.79 148.70 146.90 152.54 146.00 157.84 C 143.36 155.35 141.59 152.71 137.64 152.49 C 133.76 150.70 130.72 149.85 126.36 150.28 C 125.52 150.06 124.67 149.82 123.83 149.58 C 125.91 149.17 128.29 149.12 130.21 148.22 C 131.23 147.05 131.90 145.49 132.55 144.10 C 134.40 143.45 136.26 142.85 138.13 142.26 C 137.78 141.49 137.44 140.72 137.11 139.95 Z" fill="#8babb0" />
<path d="M 229.70 142.36 C 229.08 144.24 228.53 146.61 227.16 148.09 C 225.76 149.58 224.02 150.78 222.40 152.02 C 222.80 153.46 223.19 154.90 223.58 156.35 C 222.59 154.90 221.62 153.45 220.68 151.98 L 221.23 150.21 C 221.56 149.15 221.91 148.10 222.26 147.05 C 222.65 146.19 223.05 145.34 223.46 144.49 C 224.12 145.80 224.76 147.13 225.37 148.46 C 226.47 146.04 227.72 144.16 229.70 142.36 Z" fill="#412348" />
<path d="M 124.82 144.69 L 123.87 146.44 C 121.33 146.30 118.77 146.24 116.23 146.28 C 118.89 144.01 121.60 144.59 124.82 144.69 Z" fill="#f6f7fa" />
<path d="M 145.47 143.50 C 148.49 144.80 151.34 146.25 153.81 148.46 C 154.01 151.72 154.89 154.81 155.96 157.88 C 153.39 155.63 150.72 153.68 147.75 151.99 C 148.28 153.60 148.57 155.60 149.57 157.00 C 151.38 158.06 153.14 158.87 154.58 160.49 C 153.48 160.44 152.39 160.39 151.30 160.34 C 151.46 160.93 151.61 161.54 151.75 162.14 C 152.68 166.49 152.54 170.77 152.70 175.18 C 149.92 169.89 147.47 164.71 144.37 159.62 C 142.66 156.76 140.10 154.70 137.64 152.49 C 141.59 152.71 143.36 155.35 146.00 157.84 C 146.90 152.54 146.79 148.70 145.47 143.50 Z" fill="#abc0c3" />
<path d="M 183.05 144.02 C 185.28 147.34 187.60 150.41 189.44 153.99 C 188.67 154.08 187.91 154.17 187.14 154.26 C 187.38 158.59 187.90 162.89 188.45 167.18 C 185.86 159.63 184.14 151.93 183.05 144.02 Z" fill="#514265" />
<path d="M 109.70 147.09 C 106.59 149.62 104.19 147.78 100.88 146.80 L 100.60 145.83 C 103.69 145.90 106.68 146.50 109.70 147.09 Z" fill="#94979f" />
<path d="M 95.61 146.06 L 96.48 146.25 L 97.10 147.29 C 98.26 146.78 99.41 146.26 100.60 145.83 L 100.88 146.80 C 101.13 147.75 101.38 148.71 101.62 149.66 C 102.42 150.02 103.22 150.39 104.02 150.75 C 102.51 150.72 101.00 150.74 99.50 150.75 C 98.14 149.23 96.75 147.76 95.61 146.06 Z" fill="#4a4b5e" />
<path d="M 116.23 146.28 C 118.77 146.24 121.33 146.30 123.87 146.44 C 124.82 146.70 125.77 146.99 126.72 147.26 C 123.70 148.03 121.10 149.21 118.44 150.82 C 119.12 151.30 119.80 151.78 120.49 152.25 C 122.67 153.86 125.03 154.34 127.64 154.73 C 127.24 153.64 126.84 152.56 126.43 151.47 C 128.67 152.58 130.91 153.70 133.17 154.76 C 129.33 154.74 125.43 154.72 121.61 155.20 C 120.99 154.48 120.37 153.76 119.74 153.05 C 117.46 153.34 115.18 153.59 112.90 153.85 L 114.17 152.76 C 112.41 151.96 110.66 151.13 108.88 150.40 C 113.39 150.21 117.57 150.26 121.50 147.69 C 119.23 147.43 116.96 147.36 114.67 147.34 C 115.19 146.98 115.70 146.63 116.23 146.28 Z" fill="#5d5e73" />
<path d="M 78.87 146.89 C 81.89 147.46 84.60 148.59 87.29 150.04 C 87.05 151.19 86.81 152.34 86.58 153.49 C 85.97 153.59 85.35 153.69 84.74 153.78 C 84.50 152.74 84.25 151.69 84.01 150.64 C 82.26 149.45 80.52 148.23 78.87 146.89 Z" fill="#574c6b" />
<path d="M 100.88 146.80 C 104.19 147.78 106.59 149.62 109.70 147.09 C 111.35 147.24 113.02 147.31 114.67 147.34 C 116.96 147.36 119.23 147.43 121.50 147.69 C 117.57 150.26 113.39 150.21 108.88 150.40 L 108.07 150.31 C 108.38 151.35 108.70 152.38 109.02 153.41 C 107.68 152.66 106.35 151.88 104.98 151.18 L 104.02 150.75 C 103.22 150.39 102.42 150.02 101.62 149.66 C 101.38 148.71 101.13 147.75 100.88 146.80 Z" fill="#38374a" />
<path d="M 221.33 147.44 C 221.31 148.36 221.27 149.29 221.23 150.21 L 220.68 151.98 C 220.14 153.51 219.51 155.00 218.86 156.48 C 217.55 153.85 217.30 151.80 217.35 148.92 C 218.67 148.41 219.99 147.91 221.33 147.44 Z" fill="#af99a8" />
<path d="M 29.11 147.85 C 28.86 150.05 28.50 152.24 28.12 154.43 C 27.89 152.69 27.69 150.95 27.57 149.20 L 29.11 147.85 Z" fill="#4e4d5d" />
<path d="M 153.81 148.46 C 156.23 150.46 158.49 152.62 160.73 154.83 C 159.35 156.77 157.97 158.70 156.57 160.63 C 155.91 160.58 155.24 160.53 154.58 160.49 C 153.14 158.87 151.38 158.06 149.57 157.00 C 148.57 155.60 148.28 153.60 147.75 151.99 C 150.72 153.68 153.39 155.63 155.96 157.88 C 154.89 154.81 154.01 151.72 153.81 148.46 Z" fill="#95a1a2" />
<path d="M 104.02 150.75 L 104.98 151.18 C 106.35 151.88 107.68 152.66 109.02 153.41 C 108.70 152.38 108.38 151.35 108.07 150.31 L 108.88 150.40 C 110.66 151.13 112.41 151.96 114.17 152.76 L 112.90 153.85 C 107.95 154.63 102.95 154.39 97.96 154.85 C 95.11 155.29 93.67 152.60 91.82 150.95 C 94.38 150.83 96.94 150.77 99.50 150.75 C 101.00 150.74 102.51 150.72 104.02 150.75 Z" fill="#bcbbc2" />
<path d="M 126.36 150.28 C 130.72 149.85 133.76 150.70 137.64 152.49 C 140.10 154.70 142.66 156.76 144.37 159.62 C 147.47 164.71 149.92 169.89 152.70 175.18 C 154.42 178.77 156.17 182.28 157.11 186.19 C 155.90 184.41 154.80 182.57 153.70 180.73 C 150.13 174.44 147.60 167.07 143.06 161.45 C 141.91 160.28 140.68 159.21 139.35 158.24 C 137.38 156.92 135.34 155.73 133.17 154.76 C 130.91 153.70 128.67 152.58 126.43 151.47 C 126.84 152.56 127.24 153.64 127.64 154.73 C 125.03 154.34 122.67 153.86 120.49 152.25 C 122.45 151.62 124.41 150.97 126.36 150.28 Z" fill="#151a36" />
<path d="M 115.26 152.22 L 116.04 151.73 C 118.24 152.24 115.49 154.51 115.26 152.22 Z" fill="#ababbe" />
<path d="M 163.17 151.80 C 166.53 154.79 170.14 157.53 173.32 160.70 C 175.58 162.92 176.24 165.61 177.37 168.44 C 176.64 168.49 175.91 168.54 175.17 168.61 C 174.36 170.70 173.69 172.86 172.99 174.99 L 171.61 174.34 C 170.60 172.14 169.81 169.89 169.02 167.61 C 170.03 167.35 171.04 167.08 172.05 166.82 C 169.80 164.62 167.84 162.26 166.25 159.54 C 165.67 156.73 164.56 154.29 163.17 151.80 Z" fill="#a39aa7" />
<path d="M 67.20 153.75 C 72.28 156.00 77.38 158.03 82.18 160.86 C 83.95 161.77 85.96 163.23 87.98 163.35 C 96.47 162.69 103.60 159.72 111.49 157.34 C 113.49 158.23 115.45 158.72 117.64 158.73 C 117.63 159.63 117.63 160.53 117.64 161.44 L 118.57 161.72 C 120.15 162.20 121.73 162.70 123.31 163.17 C 124.59 163.55 125.87 163.91 127.15 164.27 C 126.95 165.54 126.76 166.82 126.57 168.09 C 127.10 167.89 127.62 167.69 128.14 167.49 C 129.24 164.25 130.60 161.43 132.66 158.69 C 134.90 158.69 137.13 158.50 139.35 158.24 C 140.68 159.21 141.91 160.28 143.06 161.45 C 142.91 163.24 142.82 165.03 142.74 166.82 C 138.55 169.05 134.09 170.27 129.55 171.55 C 123.72 173.15 120.09 177.92 114.01 179.06 C 106.71 181.24 100.51 181.19 93.18 179.17 C 87.83 177.92 83.62 174.99 79.21 171.90 C 79.87 170.90 80.53 169.91 81.19 168.92 C 79.77 167.07 78.35 165.22 76.85 163.43 C 75.38 161.83 73.62 160.68 71.78 159.55 C 70.22 158.32 68.73 157.01 67.30 155.63 L 67.20 153.75 Z" fill="#8c4b80" />
<path d="M 117.90 155.89 C 119.14 155.65 120.37 155.40 121.61 155.20 C 125.43 154.72 129.33 154.74 133.17 154.76 C 135.34 155.73 137.38 156.92 139.35 158.24 C 137.13 158.50 134.90 158.69 132.66 158.69 C 131.32 158.61 129.98 158.48 128.65 158.36 C 128.87 157.42 129.10 156.49 129.32 155.55 C 124.81 155.71 121.61 156.69 117.64 158.73 C 115.45 158.72 113.49 158.23 111.49 157.34 C 113.61 156.79 115.75 156.31 117.90 155.89 Z" fill="#a6b8cb" />
<path d="M 160.73 154.83 C 162.45 156.54 164.34 158.04 166.25 159.54 C 167.84 162.26 169.80 164.62 172.05 166.82 C 171.04 167.08 170.03 167.35 169.02 167.61 C 169.81 169.89 170.60 172.14 171.61 174.34 C 170.36 173.79 169.11 173.27 167.85 172.75 C 164.28 166.87 158.32 163.63 151.75 162.14 C 151.61 161.54 151.46 160.93 151.30 160.34 C 152.39 160.39 153.48 160.44 154.58 160.49 C 155.24 160.53 155.91 160.58 156.57 160.63 C 157.97 158.70 159.35 156.77 160.73 154.83 Z" fill="#6d7983" />
<path d="M 67.30 155.63 C 68.73 157.01 70.22 158.32 71.78 159.55 C 72.26 160.81 72.71 162.07 73.15 163.33 C 72.37 163.13 71.58 162.93 70.80 162.72 C 70.52 163.24 70.25 163.75 69.98 164.27 C 67.15 164.56 64.12 165.28 61.30 164.94 C 59.66 164.19 58.25 162.86 56.81 161.78 C 54.51 163.97 52.56 166.60 50.11 168.62 C 48.07 169.74 45.41 169.89 43.15 170.36 C 41.24 167.29 39.42 164.17 37.65 161.01 C 37.96 160.17 38.27 159.33 38.58 158.49 C 42.84 160.61 47.13 162.59 51.70 163.96 C 51.29 162.84 50.88 161.71 50.46 160.59 C 54.64 157.95 58.05 161.44 62.67 160.03 C 65.09 159.53 65.92 157.44 67.30 155.63 Z" fill="#7a878e" />
<path d="M 129.32 155.55 C 129.10 156.49 128.87 157.42 128.65 158.36 C 129.98 158.48 131.32 158.61 132.66 158.69 C 130.60 161.43 129.24 164.25 128.14 167.49 C 127.62 167.69 127.10 167.89 126.57 168.09 C 126.76 166.82 126.95 165.54 127.15 164.27 C 125.87 163.91 124.59 163.55 123.31 163.17 C 123.91 162.02 124.50 160.86 125.08 159.69 C 122.50 159.89 120.79 160.41 118.57 161.72 L 117.64 161.44 C 117.63 160.53 117.63 159.63 117.64 158.73 C 121.61 156.69 124.81 155.71 129.32 155.55 Z" fill="#997297" />
<path d="M 221.24 156.49 C 223.02 156.14 222.99 158.80 221.22 158.41 C 220.45 157.76 220.46 157.12 221.24 156.49 Z" fill="#c08db9" />
<path d="M 29.02 157.66 C 30.88 161.09 31.31 162.97 29.91 166.73 C 29.45 164.86 28.95 163.07 28.70 161.17 C 28.78 159.99 28.89 158.82 29.02 157.66 Z" fill="#343542" />
<path d="M 125.08 159.69 C 124.50 160.86 123.91 162.02 123.31 163.17 C 121.73 162.70 120.15 162.20 118.57 161.72 C 120.79 160.41 122.50 159.89 125.08 159.69 Z" fill="#c39dbc" />
<path d="M 218.79 159.31 C 218.42 163.66 217.42 167.76 214.88 171.37 C 215.43 166.97 215.80 162.81 218.79 159.31 Z" fill="#a2889c" />
<path d="M 143.06 161.45 C 147.60 167.07 150.13 174.44 153.70 180.73 C 153.61 184.21 153.38 187.68 152.96 191.14 C 150.66 187.74 148.93 182.78 145.39 180.60 C 143.64 179.50 141.40 178.12 139.26 178.34 C 132.39 178.92 126.63 181.64 120.50 184.52 C 112.82 188.13 104.93 188.73 96.86 191.00 C 103.19 193.31 109.54 195.24 115.46 198.55 C 120.61 201.42 126.00 203.71 131.36 206.17 C 127.89 207.62 124.28 208.54 120.58 209.17 C 118.33 207.00 116.42 204.84 113.50 203.56 C 109.09 201.52 104.84 201.63 100.15 200.98 C 100.99 200.44 101.83 199.89 102.66 199.33 C 97.89 197.57 93.33 195.94 88.15 196.29 C 84.27 196.54 81.15 196.07 77.45 195.03 C 75.70 193.57 73.95 192.11 72.14 190.71 C 74.78 191.19 77.42 191.64 80.07 192.00 C 78.38 190.95 76.66 189.93 74.93 188.94 C 74.38 187.61 73.83 186.27 73.28 184.93 C 74.55 184.94 75.82 184.98 77.09 185.03 C 79.13 185.27 81.31 185.77 83.37 185.56 C 84.84 184.40 86.07 182.65 87.69 181.65 C 89.42 180.66 91.34 179.94 93.18 179.17 C 100.51 181.19 106.71 181.24 114.01 179.06 C 120.09 177.92 123.72 173.15 129.55 171.55 C 134.09 170.27 138.55 169.05 142.74 166.82 C 142.82 165.03 142.91 163.24 143.06 161.45 Z" fill="#8db5bb" />
<path d="M 76.85 163.43 C 78.35 165.22 79.77 167.07 81.19 168.92 C 80.53 169.91 79.87 170.90 79.21 171.90 C 78.04 171.80 76.87 171.77 75.69 171.73 C 75.90 175.85 75.77 179.84 74.48 183.80 C 75.35 184.22 76.22 184.63 77.09 185.03 C 75.82 184.98 74.55 184.94 73.28 184.93 C 73.83 186.27 74.38 187.61 74.93 188.94 C 71.87 187.22 68.95 185.29 66.12 183.22 C 67.80 183.32 69.48 183.43 71.16 183.53 C 67.69 181.65 64.19 179.81 60.71 177.94 C 58.62 182.55 56.58 187.12 53.86 191.40 C 53.55 190.16 53.22 188.92 52.91 187.68 C 51.72 187.32 50.40 187.05 49.34 186.42 C 48.28 185.03 47.55 183.37 46.76 181.82 C 50.18 181.60 53.53 181.19 56.89 180.48 C 57.45 178.65 57.95 176.55 59.03 174.95 C 60.55 173.98 62.78 174.01 64.54 173.85 C 67.37 173.83 70.14 173.44 72.91 172.88 C 72.97 170.81 72.90 168.56 73.50 166.57 C 74.32 165.31 75.72 164.39 76.85 163.43 Z" fill="#afb7b7" />
<path d="M 98.30 166.14 C 102.22 166.94 105.95 167.85 110.00 167.56 C 112.00 171.94 106.90 176.58 102.74 174.34 C 100.48 172.36 99.39 168.88 98.30 166.14 Z" fill="#fef297" />
<path d="M 31.83 167.82 C 32.81 171.02 34.07 174.10 35.45 177.15 C 36.34 179.65 37.35 182.10 38.43 184.52 C 37.98 185.06 37.52 185.59 37.06 186.11 C 34.37 180.49 31.77 173.93 30.14 167.93 C 30.70 167.89 31.26 167.85 31.83 167.82 Z" fill="#413b51" />
<path d="M 33.65 167.76 C 34.78 170.80 35.24 173.93 35.45 177.15 C 34.07 174.10 32.81 171.02 31.83 167.82 C 32.44 167.79 33.05 167.77 33.65 167.76 Z" fill="#b7b8c4" />
<path d="M 175.17 168.61 C 175.91 168.54 176.64 168.49 177.37 168.44 C 178.29 169.98 179.39 171.52 180.02 173.20 C 180.54 175.58 180.48 178.10 180.69 180.53 C 180.65 185.28 182.85 189.80 180.59 193.93 C 179.75 195.89 178.94 197.86 178.22 199.86 C 175.68 203.80 172.76 206.77 168.09 207.97 C 169.47 202.58 171.48 197.98 170.90 192.33 C 170.55 189.01 171.11 185.65 170.75 182.35 C 169.48 178.98 167.38 176.60 167.85 172.75 C 169.11 173.27 170.36 173.79 171.61 174.34 L 172.99 174.99 C 173.69 172.86 174.36 170.70 175.17 168.61 Z" fill="#846786" />
<path d="M 56.85 170.36 C 59.45 171.44 61.95 172.75 64.54 173.85 C 62.78 174.01 60.55 173.98 59.03 174.95 C 57.95 176.55 57.45 178.65 56.89 180.48 C 53.53 181.19 50.18 181.60 46.76 181.82 C 47.55 183.37 48.28 185.03 49.34 186.42 C 50.40 187.05 51.72 187.32 52.91 187.68 C 53.22 188.92 53.55 190.16 53.86 191.40 C 49.41 189.77 46.80 186.51 43.82 183.06 C 42.88 180.77 42.02 178.45 41.29 176.08 C 41.62 174.63 42.13 173.27 42.62 171.86 C 45.35 173.30 48.45 175.66 51.58 175.86 C 54.53 176.44 55.30 172.16 56.85 170.36 Z" fill="#9ca5a8" />
<path d="M 227.91 169.70 C 227.40 173.11 226.51 175.72 224.24 178.36 C 224.83 174.96 225.81 172.43 227.91 169.70 Z" fill="#d7cfd4" />
<path d="M 79.21 171.90 C 83.62 174.99 87.83 177.92 93.18 179.17 C 91.34 179.94 89.42 180.66 87.69 181.65 C 86.07 182.65 84.84 184.40 83.37 185.56 C 81.31 185.77 79.13 185.27 77.09 185.03 C 76.22 184.63 75.35 184.22 74.48 183.80 C 75.77 179.84 75.90 175.85 75.69 171.73 C 76.87 171.77 78.04 171.80 79.21 171.90 Z" fill="#c9cdca" />
<path d="M 41.29 176.08 C 42.02 178.45 42.88 180.77 43.82 183.06 C 46.96 192.63 51.97 203.51 60.14 209.80 C 59.81 210.71 59.47 211.63 59.15 212.55 C 56.54 211.13 54.66 209.04 52.63 206.94 C 52.53 207.79 52.43 208.64 52.33 209.49 C 51.21 208.20 50.19 206.86 49.23 205.45 C 49.31 203.65 49.85 201.98 48.66 200.43 C 47.65 198.91 45.52 198.33 43.90 197.67 C 43.04 196.27 42.16 194.87 41.30 193.47 C 41.09 192.19 40.99 190.79 40.54 189.56 C 39.67 188.65 38.60 187.89 37.61 187.11 L 37.06 186.11 C 37.52 185.59 37.98 185.06 38.43 184.52 C 40.50 182.01 40.46 179.14 41.29 176.08 Z" fill="#8e5f86" />
<path d="M 219.30 181.16 C 217.14 186.10 214.74 190.88 211.63 195.31 C 211.35 190.02 215.96 184.84 219.30 181.16 Z" fill="#8e6185" />
<path d="M 43.82 183.06 C 46.80 186.51 49.41 189.77 53.86 191.40 C 52.94 195.06 52.85 198.49 55.59 201.41 C 60.78 207.34 71.10 208.36 78.32 210.94 C 78.73 212.04 79.16 213.13 79.58 214.22 C 77.66 214.93 75.73 215.59 73.73 216.05 C 68.63 214.98 64.60 212.35 60.14 209.80 C 51.97 203.51 46.96 192.63 43.82 183.06 Z" fill="#a8abae" />
<path d="M 37.61 187.11 C 38.60 187.89 39.67 188.65 40.54 189.56 C 40.99 190.79 41.09 192.19 41.30 193.47 C 39.76 191.44 38.60 189.47 37.61 187.11 Z" fill="#462c4c" />
<path d="M 220.05 186.62 C 219.19 189.90 218.11 191.78 215.68 194.14 C 216.55 190.95 217.67 188.92 220.05 186.62 Z" fill="#a3899b" />
<path d="M 186.76 190.36 C 186.29 193.82 185.86 197.20 186.21 200.70 C 185.81 201.83 185.41 202.97 184.96 204.09 C 182.87 204.80 180.81 205.59 178.73 206.31 L 178.20 205.78 C 178.24 203.81 178.21 201.83 178.22 199.86 C 178.94 197.86 179.75 195.89 180.59 193.93 C 181.14 194.70 181.68 195.48 182.22 196.25 C 183.46 194.02 184.72 191.97 186.76 190.36 Z" fill="#585067" />
<path d="M 67.94 193.68 C 71.11 194.33 74.22 194.82 77.45 195.03 C 81.15 196.07 84.27 196.54 88.15 196.29 C 93.33 195.94 97.89 197.57 102.66 199.33 C 101.83 199.89 100.99 200.44 100.15 200.98 C 104.84 201.63 109.09 201.52 113.50 203.56 C 116.42 204.84 118.33 207.00 120.58 209.17 C 119.95 210.86 119.33 212.56 118.72 214.26 C 112.07 212.96 105.85 210.20 99.23 208.74 C 92.25 205.81 86.13 202.44 78.32 202.23 C 78.73 201.38 79.16 200.54 79.59 199.71 C 76.49 195.70 72.49 195.05 67.94 193.68 Z" fill="#20233f" />
<path d="M 215.27 194.80 C 214.18 199.15 211.42 202.17 208.10 204.99 C 209.98 201.21 212.10 197.65 215.27 194.80 Z" fill="#b29aaa" />
<path d="M 43.90 197.67 C 45.52 198.33 47.65 198.91 48.66 200.43 C 49.85 201.98 49.31 203.65 49.23 205.45 C 47.47 202.84 45.51 200.37 43.90 197.67 Z" fill="#402a4b" />
<path d="M 82.42 200.12 C 83.92 199.14 84.99 201.58 83.17 201.89 C 82.19 201.58 81.94 200.99 82.42 200.12 Z" fill="#8797a7" />
<path d="M 178.22 199.86 C 178.21 201.83 178.24 203.81 178.20 205.78 L 178.73 206.31 C 179.12 206.78 179.50 207.25 179.88 207.73 C 178.68 209.92 177.65 212.25 176.27 214.34 C 174.98 215.95 172.86 216.95 171.22 218.18 C 171.68 216.72 172.11 215.24 172.56 213.77 C 171.22 215.11 169.92 216.63 168.37 217.74 C 166.61 218.79 164.39 219.20 162.42 219.73 C 160.28 218.79 158.13 217.90 155.90 217.19 C 159.34 216.36 164.75 216.07 166.21 212.25 C 162.44 211.56 158.72 211.35 154.90 211.72 C 157.21 210.92 159.44 209.94 161.73 209.09 C 163.84 208.69 165.98 208.40 168.09 207.97 C 172.76 206.77 175.68 203.80 178.22 199.86 Z" fill="#8f5484" />
<path d="M 78.32 202.23 C 86.13 202.44 92.25 205.81 99.23 208.74 C 91.88 207.19 84.39 206.47 77.03 205.06 C 77.45 204.11 77.87 203.17 78.32 202.23 Z" fill="#8cb1b5" />
<path d="M 135.73 204.09 C 135.61 205.21 135.46 206.33 135.32 207.46 C 135.88 207.99 136.43 208.53 136.98 209.07 C 136.14 209.11 135.30 209.16 134.46 209.21 C 132.54 209.14 131.92 210.09 131.55 211.82 C 130.61 212.64 129.68 213.45 128.74 214.26 C 128.75 214.93 128.75 215.60 128.77 216.28 C 125.50 215.01 122.14 214.79 118.72 214.26 C 119.33 212.56 119.95 210.86 120.58 209.17 C 124.28 208.54 127.89 207.62 131.36 206.17 C 132.84 205.53 134.28 204.79 135.73 204.09 Z" fill="#33313a" />
<path d="M 184.96 204.09 C 184.32 205.63 183.58 207.10 182.84 208.60 C 181.86 208.31 180.87 208.02 179.88 207.73 C 179.50 207.25 179.12 206.78 178.73 206.31 C 180.81 205.59 182.87 204.80 184.96 204.09 Z" fill="#a7a0af" />
<path d="M 33.89 205.40 C 38.97 208.00 43.95 212.34 49.51 213.54 C 51.59 214.15 52.78 212.97 54.50 212.06 C 56.34 215.21 57.16 218.85 59.28 221.68 C 60.98 223.94 62.97 226.00 65.03 227.94 C 60.71 226.56 55.84 225.41 51.97 223.05 C 48.23 220.88 45.08 218.03 42.13 214.90 C 40.48 213.16 38.98 211.31 37.42 209.50 C 36.24 208.13 35.06 206.77 33.89 205.40 Z" fill="#8d4e82" />
<path d="M 52.63 206.94 C 54.66 209.04 56.54 211.13 59.15 212.55 C 63.60 215.04 67.60 218.26 71.85 221.14 C 75.00 223.31 77.11 226.21 79.75 228.89 C 80.75 229.72 81.80 230.48 82.84 231.25 L 81.64 231.76 C 78.98 230.82 76.84 229.40 73.97 229.35 C 70.92 229.20 67.95 228.85 65.03 227.94 C 62.97 226.00 60.98 223.94 59.28 221.68 C 57.16 218.85 56.34 215.21 54.50 212.06 C 53.79 211.19 53.07 210.34 52.33 209.49 C 52.43 208.64 52.53 207.79 52.63 206.94 Z" fill="#212140" />
<path d="M 153.12 206.79 C 156.48 205.97 158.97 207.44 161.73 209.09 C 159.44 209.94 157.21 210.92 154.90 211.72 C 152.25 212.57 149.69 213.36 147.27 214.76 C 146.88 213.65 146.50 212.55 146.10 211.45 C 148.30 209.85 150.53 207.67 153.12 206.79 Z" fill="#946b90" />
<path d="M 134.46 209.21 C 133.94 210.96 133.27 211.39 131.55 211.82 C 131.92 210.09 132.54 209.14 134.46 209.21 Z" fill="#b2c1c9" />
<path d="M 134.46 209.21 C 135.30 209.16 136.14 209.11 136.98 209.07 C 138.49 210.51 138.90 211.83 138.47 213.87 C 138.26 215.65 136.35 216.33 134.95 217.04 C 132.95 218.14 130.75 216.84 128.77 216.28 C 128.75 215.60 128.75 214.93 128.74 214.26 C 129.68 213.45 130.61 212.64 131.55 211.82 C 133.27 211.39 133.94 210.96 134.46 209.21 Z" fill="#8faab4" />
<path d="M 60.14 209.80 C 64.60 212.35 68.63 214.98 73.73 216.05 C 75.72 216.48 77.72 216.83 79.72 217.20 C 83.08 220.63 86.61 223.91 90.21 227.11 C 86.71 227.49 83.23 228.28 79.75 228.89 C 77.11 226.21 75.00 223.31 71.85 221.14 C 67.60 218.26 63.60 215.04 59.15 212.55 C 59.47 211.63 59.81 210.71 60.14 209.80 Z" fill="#8d4b81" />
<path d="M 78.32 210.94 C 82.80 212.23 87.30 212.19 91.89 212.54 C 95.39 212.83 98.18 214.28 101.39 215.51 C 98.33 216.06 95.28 216.33 92.17 216.45 C 92.65 216.81 93.13 217.18 93.61 217.55 L 95.06 218.62 C 94.19 219.19 93.33 219.76 92.47 220.34 C 88.19 219.40 84.00 218.10 79.72 217.20 C 77.72 216.83 75.72 216.48 73.73 216.05 C 75.73 215.59 77.66 214.93 79.58 214.22 C 79.16 213.13 78.73 212.04 78.32 210.94 Z" fill="#c5c9c7" />
<path d="M 154.90 211.72 C 158.72 211.35 162.44 211.56 166.21 212.25 C 164.75 216.07 159.34 216.36 155.90 217.19 C 150.74 215.30 146.92 217.46 142.05 218.89 C 143.74 217.45 145.48 216.06 147.27 214.76 C 149.69 213.36 152.25 212.57 154.90 211.72 Z" fill="#1f1d3a" />
<path d="M 172.56 213.77 C 172.11 215.24 171.68 216.72 171.22 218.18 C 168.17 222.04 166.78 226.18 161.80 227.74 C 162.28 226.35 162.80 224.98 163.36 223.62 C 159.37 227.09 154.52 228.77 149.46 230.06 C 152.77 226.78 155.84 223.51 160.65 222.82 C 161.24 221.79 161.83 220.76 162.42 219.73 C 164.39 219.20 166.61 218.79 168.37 217.74 C 169.92 216.63 171.22 215.11 172.56 213.77 Z" fill="#1c1d38" />
<path d="M 101.39 215.51 C 105.86 215.23 110.03 215.01 114.27 216.72 C 118.27 218.51 122.03 220.21 124.32 224.17 C 119.92 222.56 116.01 220.19 111.34 219.30 C 114.02 221.85 116.97 223.95 119.20 226.95 C 113.47 226.47 108.91 223.99 104.05 221.18 C 104.15 220.42 104.24 219.67 104.34 218.92 C 100.50 217.24 97.80 216.69 93.61 217.55 C 93.13 217.18 92.65 216.81 92.17 216.45 C 95.28 216.33 98.33 216.06 101.39 215.51 Z" fill="#8b5283" />
<path d="M 79.72 217.20 C 84.00 218.10 88.19 219.40 92.47 220.34 L 94.04 220.76 C 97.05 223.32 99.99 225.95 103.07 228.41 C 104.13 229.20 104.25 230.31 104.68 231.47 C 103.59 230.94 102.49 230.43 101.39 229.94 C 97.86 228.37 93.89 228.34 90.21 227.11 C 86.61 223.91 83.08 220.63 79.72 217.20 Z" fill="#22203d" />
<path d="M 104.34 218.92 C 104.24 219.67 104.15 220.42 104.05 221.18 C 100.98 220.37 97.99 219.93 95.06 218.62 L 93.61 217.55 C 97.80 216.69 100.50 217.24 104.34 218.92 Z" fill="#0d0725" />
<path d="M 180.19 217.79 C 177.13 225.17 171.65 230.64 165.14 235.07 C 167.27 231.38 169.44 227.42 172.59 224.56 C 175.17 222.27 177.27 219.69 180.19 217.79 Z" fill="#343647" />
<path d="M 94.04 220.76 C 99.33 221.96 102.80 223.69 106.96 227.13 C 106.46 228.81 105.98 230.50 105.53 232.20 L 104.68 231.47 C 104.25 230.31 104.13 229.20 103.07 228.41 C 99.99 225.95 97.05 223.32 94.04 220.76 Z" fill="#7f6084" />
<path d="M 90.21 227.11 C 93.89 228.34 97.86 228.37 101.39 229.94 C 99.08 231.25 96.74 232.53 94.33 233.64 C 91.93 231.34 89.97 229.25 86.35 229.69 C 85.16 230.17 84.00 230.71 82.84 231.25 C 81.80 230.48 80.75 229.72 79.75 228.89 C 83.23 228.28 86.71 227.49 90.21 227.11 Z" fill="#a57ca0" />
<path d="M 94.33 233.64 C 91.01 233.50 88.84 231.62 86.35 229.69 C 89.97 229.25 91.93 231.34 94.33 233.64 Z" fill="#7d5075" />
</svg>