<?xml version="1.0" encoding="UTF-8" standalone="no"?>
<!DOCTYPE svg PUBLIC "-//W3C//DTD SVG 1.1//EN" "http://www.w3.org/Graphics/SVG/1.1/DTD/svg11.dtd">
<svg xmlns="http://www.w3.org/2000/svg" version="1.1" viewBox="0 0 256 256" width="256.0pt" height="256.0pt">
<path d="M 0.00 0.00 L 256.00 0.00 L 256.00 256.00 L 0.00 256.00 L 0.00 0.00 Z" fill="#faf9f9" />
<path d="M 106.95 22.20 C 130.62 25.25 159.48 20.42 180.17 32.80 C 196.97 37.37 211.00 49.98 221.86 63.26 C 223.27 67.75 215.76 71.67 213.72 75.30 C 212.06 70.16 213.52 66.80 217.33 63.33 C 214.33 60.59 212.19 55.88 212.01 63.14 C 209.64 64.76 200.40 47.10 199.61 57.70 C 203.69 60.97 205.04 63.87 204.56 69.11 C 201.22 67.12 199.21 64.36 195.00 64.09 C 195.16 69.43 200.33 72.32 198.26 77.33 C 195.85 71.86 189.10 65.39 191.01 59.89 C 186.43 54.58 183.12 50.54 176.14 47.82 C 173.20 45.93 166.80 46.50 168.61 41.55 C 172.21 40.79 176.30 43.68 180.00 43.99 C 164.43 26.30 134.54 34.43 116.79 24.43 C 113.80 23.60 108.75 25.05 106.95 22.20 Z" fill="#272841" />
<path d="M 54.91 40.11 C 62.18 38.86 67.49 48.75 71.18 53.69 C 69.75 53.00 68.35 52.25 66.96 51.47 C 63.43 47.74 61.55 56.28 58.87 50.99 C 60.56 43.58 51.84 50.33 49.00 50.78 C 48.33 49.39 45.17 47.16 46.83 45.75 C 51.27 47.78 54.42 44.78 59.28 44.14 C 61.32 43.57 55.49 41.05 54.91 40.11 Z" fill="#a09eac" />
<path d="M 59.28 44.14 C 54.42 44.78 51.27 47.78 46.83 45.75 C 50.94 38.74 53.18 42.10 59.28 44.14 Z" fill="#3e3d4f" />
<path d="M 58.87 50.99 C 61.55 56.28 63.43 47.74 66.96 51.47 C 67.75 52.99 68.50 54.52 69.22 56.06 C 68.93 59.03 68.58 58.13 66.10 58.57 C 66.02 62.15 69.02 62.47 66.10 66.00 C 62.73 65.21 61.55 61.51 59.29 59.10 C 53.95 53.16 46.99 54.43 45.58 62.59 C 46.26 66.15 41.68 71.24 44.93 72.37 C 42.81 77.31 42.27 87.20 34.73 84.66 C 36.84 87.84 40.94 86.70 36.98 90.80 C 33.21 91.77 31.96 94.04 30.40 97.32 C 25.56 97.04 28.02 99.79 25.33 102.43 C 26.65 89.28 35.95 77.48 38.61 64.43 C 42.83 58.41 39.98 50.63 49.00 50.78 C 51.84 50.33 60.56 43.58 58.87 50.99 Z" fill="#2b2b44" />
<path d="M 139.05 53.98 C 141.99 55.06 149.73 57.21 149.34 61.16 C 147.93 67.65 147.10 76.10 144.97 82.03 C 139.62 85.85 131.22 86.53 124.97 88.90 C 119.39 90.51 113.63 94.42 107.80 94.48 C 109.97 90.50 114.25 89.55 118.07 87.37 C 124.16 84.97 129.26 82.66 133.86 77.84 C 136.26 75.45 137.91 77.35 140.67 77.69 C 143.09 72.68 144.98 66.68 145.75 61.17 C 141.24 59.96 146.16 65.34 140.69 66.77 C 135.10 70.04 136.10 65.44 137.87 62.02 C 133.52 67.81 128.50 66.81 122.06 67.49 C 118.56 74.30 113.54 72.25 106.79 71.08 C 100.14 62.96 92.57 72.08 95.27 79.21 C 94.41 81.52 85.10 85.11 85.61 80.64 C 82.07 74.59 83.50 82.86 81.17 83.36 C 79.06 81.02 74.65 75.47 72.85 81.14 C 70.15 77.97 69.10 74.21 68.12 70.25 C 72.44 66.36 68.04 60.33 76.13 59.61 C 77.70 59.91 79.28 60.21 80.84 60.55 C 89.51 63.27 86.10 60.38 91.51 56.69 C 88.09 62.27 94.64 57.91 96.09 63.32 C 106.67 57.62 104.17 74.83 114.97 66.30 C 119.87 63.38 127.17 66.30 132.36 64.35 C 138.11 61.58 134.58 55.95 139.05 53.98 Z" fill="#332b31" />
<path d="M 212.01 63.14 C 212.19 55.88 214.33 60.59 217.33 63.33 C 213.52 66.80 212.06 70.16 213.72 75.30 C 212.07 78.04 208.30 87.07 215.11 82.13 L 217.03 81.68 C 225.51 94.84 222.09 114.90 218.87 129.06 C 215.93 129.24 212.46 126.47 215.51 131.00 C 207.96 138.22 213.96 122.42 204.87 126.62 C 204.63 126.15 204.40 125.69 204.19 125.21 C 210.07 124.51 210.21 116.91 205.79 114.46 C 206.62 111.42 206.16 110.25 205.10 107.38 C 211.29 105.82 215.93 107.77 212.76 99.36 C 207.82 100.76 209.77 100.63 207.64 96.22 C 202.58 96.99 201.44 100.53 196.35 96.67 C 192.79 94.04 187.21 102.38 194.96 98.15 C 191.06 105.97 192.81 107.70 183.87 104.13 C 182.64 103.00 181.52 100.19 179.54 100.85 C 178.70 100.04 177.88 99.21 177.10 98.34 C 183.73 100.39 175.47 92.54 174.20 90.96 C 180.33 88.76 185.28 77.69 187.95 71.83 C 191.25 74.86 194.81 82.94 199.25 83.54 C 203.13 84.76 198.73 78.72 198.26 77.33 C 200.33 72.32 195.16 69.43 195.00 64.09 C 199.21 64.36 201.22 67.12 204.56 69.11 C 205.04 63.87 203.69 60.97 199.61 57.70 C 200.40 47.10 209.64 64.76 212.01 63.14 Z" fill="#816763" />
<path d="M 59.29 59.10 C 51.42 64.47 50.33 64.43 50.54 74.66 C 44.67 82.60 52.08 83.61 43.85 91.80 C 39.35 93.93 46.64 95.56 43.67 99.37 C 43.74 100.71 48.91 102.38 50.27 103.92 C 51.39 98.30 54.81 107.27 54.96 109.24 C 57.24 108.45 58.11 109.59 59.95 110.74 L 60.82 112.12 C 59.73 118.71 58.69 124.88 53.90 129.91 C 51.13 136.86 46.72 121.06 47.70 132.00 C 39.54 129.27 45.50 124.68 39.16 121.68 C 37.39 119.21 36.42 116.57 33.78 114.78 C 32.36 109.72 33.34 103.86 34.17 98.74 C 33.69 95.49 35.63 93.58 36.98 90.80 C 40.94 86.70 36.84 87.84 34.73 84.66 C 42.27 87.20 42.81 77.31 44.93 72.37 C 41.68 71.24 46.26 66.15 45.58 62.59 C 46.99 54.43 53.95 53.16 59.29 59.10 Z" fill="#e6d8ed" />
<path d="M 91.96 56.13 C 100.19 60.65 104.50 54.02 111.46 62.10 C 110.63 55.94 111.73 58.66 115.61 60.32 C 113.97 63.18 109.51 64.58 114.97 66.30 C 104.17 74.83 106.67 57.62 96.09 63.32 C 94.64 57.91 88.09 62.27 91.51 56.69 C 86.10 60.38 89.51 63.27 80.84 60.55 C 85.68 56.42 84.61 54.22 91.96 56.13 Z" fill="#ceb7a3" />
<path d="M 69.22 56.06 C 71.08 58.17 73.53 58.84 76.13 59.61 C 68.04 60.33 72.44 66.36 68.12 70.25 C 67.54 68.78 67.98 66.44 66.10 66.00 C 69.02 62.47 66.02 62.15 66.10 58.57 C 68.58 58.13 68.93 59.03 69.22 56.06 Z" fill="#86738b" />
<path d="M 59.29 59.10 C 61.55 61.51 62.73 65.21 66.10 66.00 C 67.98 66.44 67.54 68.78 68.12 70.25 C 69.10 74.21 70.15 77.97 72.85 81.14 C 74.65 75.47 79.06 81.02 81.17 83.36 C 89.58 89.91 96.31 96.90 107.80 94.48 C 113.63 94.42 119.39 90.51 124.97 88.90 C 127.12 91.59 128.94 94.45 131.31 96.98 C 133.36 103.77 129.06 113.62 121.73 115.26 C 126.80 119.10 120.67 122.99 128.31 129.48 C 123.70 129.52 123.31 128.08 121.66 133.10 C 118.81 132.13 104.91 130.49 111.09 136.82 C 117.89 140.11 108.77 141.03 105.98 142.75 C 98.82 137.28 93.20 144.94 85.37 139.57 C 84.69 147.95 78.53 138.46 81.19 144.70 C 82.33 149.04 78.05 142.79 78.66 141.23 C 76.10 138.25 71.02 137.22 68.15 140.98 C 69.42 145.90 71.28 147.68 75.30 150.46 C 75.17 154.89 76.85 155.04 80.90 154.89 C 81.66 152.45 78.42 151.63 76.98 150.20 C 81.45 150.36 81.78 151.44 83.88 147.11 C 82.82 157.92 88.16 152.64 94.11 157.66 C 101.67 159.87 107.84 160.08 113.00 153.17 C 116.30 156.65 107.76 157.08 114.14 158.96 C 112.65 161.02 111.37 163.29 109.72 165.23 C 105.99 164.50 103.52 163.37 100.43 166.41 C 87.88 166.12 76.73 167.27 65.87 159.09 C 51.09 149.78 31.55 134.36 33.78 114.78 C 36.42 116.57 37.39 119.21 39.16 121.68 C 45.50 124.68 39.54 129.27 47.70 132.00 C 46.72 121.06 51.13 136.86 53.90 129.91 C 58.69 124.88 59.73 118.71 60.82 112.12 C 62.68 114.93 65.56 120.85 64.34 113.04 C 68.12 116.11 73.00 124.72 78.29 118.93 C 77.08 112.30 77.37 106.10 75.64 100.33 C 65.04 102.44 73.55 95.78 64.92 97.09 C 61.68 100.86 59.69 94.49 56.23 98.32 C 62.84 101.19 55.33 102.96 61.97 106.06 C 66.40 108.51 61.91 108.75 59.95 110.74 C 58.11 109.59 57.24 108.45 54.96 109.24 C 54.81 107.27 51.39 98.30 50.27 103.92 C 48.91 102.38 43.74 100.71 43.67 99.37 C 46.64 95.56 39.35 93.93 43.85 91.80 C 52.08 83.61 44.67 82.60 50.54 74.66 C 50.33 64.43 51.42 64.47 59.29 59.10 Z" fill="#d5aeee" />
<path d="M 145.75 61.17 C 144.98 66.68 143.09 72.68 140.67 77.69 C 137.91 77.35 136.26 75.45 133.86 77.84 C 129.26 82.66 124.16 84.97 118.07 87.37 C 114.08 87.39 118.84 82.12 121.02 83.05 C 127.73 83.68 118.11 77.65 123.31 76.53 C 122.49 73.49 122.22 70.62 122.06 67.49 C 128.50 66.81 133.52 67.81 137.87 62.02 C 136.10 65.44 135.10 70.04 140.69 66.77 C 146.16 65.34 141.24 59.96 145.75 61.17 Z" fill="#c0a99b" />
<path d="M 186.68 66.28 C 190.89 71.95 196.20 77.17 199.25 83.54 C 194.81 82.94 191.25 74.86 187.95 71.83 C 185.28 77.69 180.33 88.76 174.20 90.96 C 174.94 83.81 182.17 77.40 184.02 70.34 C 184.58 68.30 184.20 66.89 186.68 66.28 Z" fill="#2c2537" />
<path d="M 106.79 71.08 C 105.75 73.71 107.45 77.53 105.55 79.52 C 104.06 80.36 100.50 84.24 101.66 79.97 C 102.01 76.14 104.20 72.83 101.00 69.69 C 98.28 72.59 98.63 75.70 100.05 79.13 C 100.37 81.93 96.69 79.22 95.27 79.21 C 92.57 72.08 100.14 62.96 106.79 71.08 Z" fill="#c8cb4f" />
<path d="M 122.06 67.49 C 122.22 70.62 122.49 73.49 123.31 76.53 C 118.11 77.65 127.73 83.68 121.02 83.05 C 118.84 82.12 114.08 87.39 118.07 87.37 C 114.25 89.55 109.97 90.50 107.80 94.48 C 96.31 96.90 89.58 89.91 81.17 83.36 C 83.50 82.86 82.07 74.59 85.61 80.64 C 85.10 85.11 94.41 81.52 95.27 79.21 C 96.69 79.22 100.37 81.93 100.05 79.13 C 100.60 79.39 101.13 79.67 101.66 79.97 C 100.50 84.24 104.06 80.36 105.55 79.52 C 107.45 77.53 105.75 73.71 106.79 71.08 C 113.54 72.25 118.56 74.30 122.06 67.49 Z" fill="#a9724f" />
<path d="M 101.00 69.69 C 104.20 72.83 102.01 76.14 101.66 79.97 C 101.13 79.67 100.60 79.39 100.05 79.13 C 98.63 75.70 98.28 72.59 101.00 69.69 Z" fill="#2d2c05" />
<path d="M 226.64 72.01 C 227.19 79.86 230.16 87.16 230.91 95.00 C 235.23 122.63 225.80 150.39 209.04 171.81 C 204.41 171.20 202.68 173.01 206.86 168.41 C 230.62 142.23 236.39 109.01 223.91 76.08 C 221.53 77.84 219.45 79.96 217.03 81.68 L 215.11 82.13 C 218.82 78.95 222.27 74.09 226.64 72.01 Z" fill="#363446" />
<path d="M 223.91 76.08 C 236.39 109.01 230.62 142.23 206.86 168.41 C 204.42 163.23 208.29 160.72 210.58 156.59 C 215.17 147.83 216.98 138.66 218.87 129.06 C 222.09 114.90 225.51 94.84 217.03 81.68 C 219.45 79.96 221.53 77.84 223.91 76.08 Z" fill="#e3dfde" />
<path d="M 36.98 90.80 C 35.63 93.58 33.69 95.49 34.17 98.74 C 29.92 99.16 29.41 106.25 24.25 107.37 C 24.60 105.72 24.94 104.07 25.33 102.43 C 28.02 99.79 25.56 97.04 30.40 97.32 C 31.96 94.04 33.21 91.77 36.98 90.80 Z" fill="#9798a8" />
<path d="M 75.64 100.33 C 77.37 106.10 77.08 112.30 78.29 118.93 C 73.00 124.72 68.12 116.11 64.34 113.04 C 65.56 120.85 62.68 114.93 60.82 112.12 L 59.95 110.74 C 61.91 108.75 66.40 108.51 61.97 106.06 C 55.33 102.96 62.84 101.19 56.23 98.32 C 59.69 94.49 61.68 100.86 64.92 97.09 C 73.55 95.78 65.04 102.44 75.64 100.33 Z" fill="#935af0" />
<path d="M 196.35 96.67 C 201.44 100.53 202.58 96.99 207.64 96.22 C 209.77 100.63 207.82 100.76 212.76 99.36 C 215.93 107.77 211.29 105.82 205.10 107.38 C 206.16 110.25 206.62 111.42 205.79 114.46 C 210.21 116.91 210.07 124.51 204.19 125.21 C 203.48 123.57 202.96 121.88 202.32 120.22 L 201.00 120.82 C 198.00 118.63 193.26 116.50 192.68 122.07 C 190.64 117.63 191.63 117.81 187.23 120.09 C 187.13 114.43 184.92 109.60 183.87 104.13 C 192.81 107.70 191.06 105.97 194.96 98.15 C 187.21 102.38 192.79 94.04 196.35 96.67 Z" fill="#a18276" />
<path d="M 184.34 97.25 C 186.54 96.24 190.77 99.47 187.28 101.26 C 183.88 103.47 181.78 100.13 184.34 97.25 Z" fill="#f0d2d8" />
<path d="M 34.17 98.74 C 33.34 103.86 32.36 109.72 33.78 114.78 C 31.55 134.36 51.09 149.78 65.87 159.09 C 76.73 167.27 87.88 166.12 100.43 166.41 C 103.52 163.37 105.99 164.50 109.72 165.23 C 111.37 163.29 112.65 161.02 114.14 158.96 C 119.34 154.88 120.04 152.66 120.85 146.16 C 119.02 147.61 117.27 149.09 115.14 150.11 C 117.16 147.44 119.10 144.80 120.89 141.97 C 126.42 143.13 125.39 150.34 130.39 147.57 C 132.65 146.00 133.49 152.02 134.93 153.19 C 143.73 157.11 132.35 163.53 128.82 166.76 C 121.13 165.78 117.77 171.37 110.56 173.53 C 111.55 180.75 106.74 171.96 102.65 176.95 C 96.93 176.30 91.55 174.81 85.88 174.00 C 64.99 171.01 49.48 161.02 35.48 145.72 C 45.37 143.01 35.65 141.13 33.08 138.23 C 37.71 135.75 33.34 132.18 31.07 128.99 C 30.71 134.08 30.53 133.31 27.02 136.60 C 33.65 136.89 26.87 138.81 31.87 141.28 C 36.26 142.51 30.20 145.94 28.09 144.05 C 23.03 132.31 20.02 119.89 24.25 107.37 C 29.41 106.25 29.92 99.16 34.17 98.74 Z" fill="#2f2c47" />
<path d="M 183.87 104.13 C 184.92 109.60 187.13 114.43 187.23 120.09 C 187.53 127.64 184.60 133.14 178.64 137.59 C 174.71 137.42 171.12 137.33 167.22 138.11 C 165.88 137.39 159.14 138.80 160.21 136.31 C 167.71 135.83 177.74 133.94 181.62 126.63 C 187.83 118.78 183.71 108.60 179.54 100.85 C 181.52 100.19 182.64 103.00 183.87 104.13 Z" fill="#28243b" />
<path d="M 192.68 122.07 C 194.55 125.77 199.96 125.32 201.00 120.82 L 202.32 120.22 C 201.62 125.72 200.44 125.35 195.54 126.44 C 194.38 132.97 196.40 134.33 199.58 139.42 C 199.62 143.49 200.33 149.60 194.43 148.52 C 192.16 154.02 186.58 164.09 178.38 160.74 C 175.31 164.44 171.21 163.62 171.10 168.98 C 174.96 169.16 175.67 167.22 177.46 164.37 C 178.80 165.93 180.11 167.45 181.68 168.80 C 177.12 169.63 174.03 170.52 169.94 172.84 C 164.11 170.29 162.37 168.69 155.98 171.02 C 149.90 170.91 144.02 167.23 146.18 160.24 C 148.33 160.31 155.96 160.94 151.92 157.24 C 147.79 157.18 148.46 154.52 146.33 151.89 C 145.21 149.99 143.74 149.05 143.16 151.85 C 141.81 151.02 135.04 148.72 139.95 148.16 C 136.41 142.74 131.08 137.88 124.23 141.73 C 126.74 136.78 121.45 137.44 124.64 131.61 C 127.63 132.28 133.03 128.42 132.13 133.43 C 139.96 128.91 133.78 137.40 140.88 135.11 C 144.25 138.31 144.32 137.78 148.59 136.78 C 151.12 138.47 156.13 142.56 159.13 141.96 C 163.58 136.35 163.65 144.40 167.22 138.11 C 171.12 137.33 174.71 137.42 178.64 137.59 C 184.60 133.14 187.53 127.64 187.23 120.09 C 191.63 117.81 190.64 117.63 192.68 122.07 Z" fill="#7f4b4a" />
<path d="M 201.00 120.82 C 199.96 125.32 194.55 125.77 192.68 122.07 C 193.26 116.50 198.00 118.63 201.00 120.82 Z" fill="#f7dce5" />
<path d="M 88.62 119.30 C 94.05 118.97 99.44 128.74 92.87 131.01 C 89.11 139.06 86.35 134.06 79.88 134.96 C 75.44 131.96 80.57 132.49 82.76 130.87 C 82.30 128.45 77.54 123.50 82.64 123.39 C 85.57 123.45 85.61 118.02 88.62 119.30 Z" fill="#a06bf0" />
<path d="M 202.32 120.22 C 202.96 121.88 203.48 123.57 204.19 125.21 C 204.40 125.69 204.63 126.15 204.87 126.62 C 208.23 131.18 204.44 134.06 204.14 139.07 C 203.55 145.52 201.38 151.22 197.35 156.22 C 190.65 158.31 190.54 170.92 190.93 174.84 C 189.47 174.04 177.71 173.38 185.04 175.94 C 191.33 175.76 183.13 178.39 185.10 181.92 C 189.87 181.94 192.22 178.38 197.36 180.86 C 194.90 182.56 187.26 183.12 191.65 187.27 C 187.17 186.43 174.44 187.15 173.66 192.99 C 164.79 198.57 156.66 195.23 148.64 199.12 C 138.48 196.93 147.57 189.57 151.86 186.86 C 159.63 180.94 147.87 186.76 145.75 188.75 C 142.71 190.44 142.73 193.22 141.73 196.21 C 133.81 194.87 149.95 185.41 140.09 181.97 C 139.68 178.12 141.22 170.91 137.69 168.35 C 134.28 166.55 138.49 173.53 136.62 175.41 C 136.31 183.41 136.09 191.99 125.99 192.84 C 131.00 189.85 120.37 192.60 120.42 186.70 C 112.14 186.67 110.23 185.05 102.19 182.70 C 100.28 177.79 107.59 179.93 102.65 176.95 C 106.74 171.96 111.55 180.75 110.56 173.53 C 117.77 171.37 121.13 165.78 128.82 166.76 C 132.35 163.53 143.73 157.11 134.93 153.19 C 138.99 153.97 142.79 154.47 146.33 151.89 C 148.46 154.52 147.79 157.18 151.92 157.24 C 155.96 160.94 148.33 160.31 146.18 160.24 C 144.02 167.23 149.90 170.91 155.98 171.02 C 162.37 168.69 164.11 170.29 169.94 172.84 C 174.03 170.52 177.12 169.63 181.68 168.80 C 180.11 167.45 178.80 165.93 177.46 164.37 C 175.67 167.22 174.96 169.16 171.10 168.98 C 171.21 163.62 175.31 164.44 178.38 160.74 C 186.58 164.09 192.16 154.02 194.43 148.52 C 200.33 149.60 199.62 143.49 199.58 139.42 C 196.40 134.33 194.38 132.97 195.54 126.44 C 200.44 125.35 201.62 125.72 202.32 120.22 Z" fill="#b57347" />
<path d="M 215.51 131.00 C 212.46 126.47 215.93 129.24 218.87 129.06 C 216.98 138.66 215.17 147.83 210.58 156.59 C 208.29 160.72 204.42 163.23 206.86 168.41 C 202.68 173.01 204.41 171.20 209.04 171.81 C 206.93 175.87 201.53 179.11 197.36 180.86 C 192.22 178.38 189.87 181.94 185.10 181.92 C 183.13 178.39 191.33 175.76 185.04 175.94 C 177.71 173.38 189.47 174.04 190.93 174.84 C 190.54 170.92 190.65 158.31 197.35 156.22 C 201.38 151.22 203.55 145.52 204.14 139.07 C 204.44 134.06 208.23 131.18 204.87 126.62 C 213.96 122.42 207.96 138.22 215.51 131.00 Z" fill="#a58271" />
<path d="M 31.07 128.99 C 33.34 132.18 37.71 135.75 33.08 138.23 C 35.65 141.13 45.37 143.01 35.48 145.72 C 26.60 143.51 36.54 155.04 38.98 157.01 C 33.16 157.33 30.54 148.13 28.09 144.05 C 30.20 145.94 36.26 142.51 31.87 141.28 C 26.87 138.81 33.65 136.89 27.02 136.60 C 30.53 133.31 30.71 134.08 31.07 128.99 Z" fill="#656578" />
<path d="M 128.31 129.48 C 135.61 128.51 136.29 130.24 140.88 135.11 C 133.78 137.40 139.96 128.91 132.13 133.43 C 133.03 128.42 127.63 132.28 124.64 131.61 C 121.45 137.44 126.74 136.78 124.23 141.73 C 131.08 137.88 136.41 142.74 139.95 148.16 C 135.04 148.72 141.81 151.02 143.16 151.85 C 143.74 149.05 145.21 149.99 146.33 151.89 C 142.79 154.47 138.99 153.97 134.93 153.19 C 133.49 152.02 132.65 146.00 130.39 147.57 C 125.39 150.34 126.42 143.13 120.89 141.97 C 123.41 139.17 121.32 136.60 121.66 133.10 C 123.31 128.08 123.70 129.52 128.31 129.48 Z" fill="#b29097" />
<path d="M 121.66 133.10 C 121.32 136.60 123.41 139.17 120.89 141.97 C 119.10 144.80 117.16 147.44 115.14 150.11 C 117.27 149.09 119.02 147.61 120.85 146.16 C 120.04 152.66 119.34 154.88 114.14 158.96 C 107.76 157.08 116.30 156.65 113.00 153.17 C 107.84 160.08 101.67 159.87 94.11 157.66 C 88.16 152.64 82.82 157.92 83.88 147.11 C 81.78 151.44 81.45 150.36 76.98 150.20 C 78.42 151.63 81.66 152.45 80.90 154.89 C 76.85 155.04 75.17 154.89 75.30 150.46 C 71.28 147.68 69.42 145.90 68.15 140.98 C 71.02 137.22 76.10 138.25 78.66 141.23 C 78.05 142.79 82.33 149.04 81.19 144.70 C 78.53 138.46 84.69 147.95 85.37 139.57 C 93.20 144.94 98.82 137.28 105.98 142.75 C 108.77 141.03 117.89 140.11 111.09 136.82 C 104.91 130.49 118.81 132.13 121.66 133.10 Z" fill="#b18ce2" />
<path d="M 161.54 153.92 C 163.60 159.20 156.57 158.57 154.28 156.65 C 152.83 154.36 165.72 146.03 161.54 153.92 Z" fill="#eecddf" />
<path d="M 50.02 168.99 C 55.09 171.99 60.50 174.62 65.25 178.10 C 61.62 181.97 57.21 176.49 53.45 175.54 C 48.50 178.43 48.73 177.25 45.86 182.82 C 39.31 181.59 44.35 175.78 43.40 171.21 C 42.65 166.76 47.44 167.68 50.02 168.99 Z" fill="#5a5058" />
<path d="M 137.69 168.35 C 141.22 170.91 139.68 178.12 140.09 181.97 C 140.01 185.57 139.22 190.73 136.27 193.16 C 133.85 193.96 131.96 193.06 130.96 196.01 C 126.95 196.39 121.33 200.19 118.14 196.96 C 116.36 195.85 112.77 194.86 113.34 198.21 C 109.47 201.38 98.61 196.99 95.93 201.93 C 87.66 207.87 96.92 215.10 96.63 222.72 C 93.75 228.94 89.88 230.06 85.76 223.94 C 82.52 218.07 82.41 214.56 83.99 208.07 C 84.66 206.07 85.35 204.09 85.95 202.07 C 87.65 197.62 89.99 200.28 93.24 199.94 C 98.75 195.54 101.22 194.97 108.24 194.24 C 113.64 194.11 118.88 193.87 124.20 192.85 L 125.99 192.84 C 136.09 191.99 136.31 183.41 136.62 175.41 C 138.49 173.53 134.28 166.55 137.69 168.35 Z" fill="#2c293e" />
<path d="M 225.96 168.86 C 232.96 172.79 231.14 178.86 230.59 185.63 C 230.70 192.27 222.70 199.28 225.94 205.08 C 228.52 209.81 229.88 201.94 231.97 207.10 C 231.21 212.18 224.49 218.55 220.58 211.42 C 214.37 207.52 215.23 199.87 221.49 196.92 C 226.92 189.37 225.30 185.01 220.05 178.18 C 217.82 178.45 218.80 180.44 218.47 182.06 C 217.60 186.84 206.93 179.76 209.76 178.42 C 218.42 181.07 220.98 174.10 225.96 168.86 Z" fill="#2a2b44" />
<path d="M 85.88 174.00 C 91.55 174.81 96.93 176.30 102.65 176.95 C 107.59 179.93 100.28 177.79 102.19 182.70 C 110.23 185.05 112.14 186.67 120.42 186.70 C 120.37 192.60 131.00 189.85 125.99 192.84 L 124.20 192.85 C 117.62 189.63 110.98 191.60 104.80 187.21 C 98.83 182.81 93.72 185.73 90.08 179.22 C 89.25 175.95 89.19 175.39 85.88 174.00 Z" fill="#d3ae96" />
<path d="M 140.09 181.97 C 149.95 185.41 133.81 194.87 141.73 196.21 C 142.54 197.77 143.34 199.33 144.14 200.89 C 140.09 199.76 135.00 194.46 130.96 196.01 C 131.96 193.06 133.85 193.96 136.27 193.16 C 139.22 190.73 140.01 185.57 140.09 181.97 Z" fill="#d6ae99" />
<path d="M 50.37 183.34 C 58.46 180.24 53.45 193.76 49.35 192.69 C 45.27 190.24 46.68 185.33 50.37 183.34 Z" fill="#464658" />
<path d="M 151.86 186.86 C 147.57 189.57 138.48 196.93 148.64 199.12 C 160.30 203.54 172.73 196.91 185.23 204.14 C 184.08 209.00 176.62 215.70 171.78 216.84 C 174.29 213.97 177.52 211.94 180.05 209.14 C 168.93 204.45 154.82 206.34 144.14 200.89 C 143.34 199.33 142.54 197.77 141.73 196.21 C 142.73 193.22 142.71 190.44 145.75 188.75 C 147.87 186.76 159.63 180.94 151.86 186.86 Z" fill="#38303e" />
<path d="M 191.65 187.27 C 197.80 190.36 207.67 195.07 204.66 203.66 C 200.06 210.09 191.54 208.72 186.92 215.87 C 179.88 222.31 174.54 228.78 167.70 235.65 C 157.23 234.01 149.11 228.63 138.18 229.25 C 131.52 225.57 132.53 216.51 138.96 212.70 C 146.95 213.40 153.83 221.65 159.36 226.60 C 167.05 231.71 175.26 225.90 178.90 218.84 C 181.69 215.97 186.34 211.59 190.13 210.35 C 194.08 209.61 194.83 204.40 198.80 206.65 C 198.39 203.62 198.40 200.61 198.19 197.58 C 194.42 189.12 173.01 206.03 173.66 192.99 C 174.44 187.15 187.17 186.43 191.65 187.27 Z" fill="#29273f" />
<path d="M 173.66 192.99 C 173.01 206.03 194.42 189.12 198.19 197.58 C 198.40 200.61 198.39 203.62 198.80 206.65 C 194.83 204.40 194.08 209.61 190.13 210.35 C 190.15 206.69 187.97 205.81 185.23 204.14 C 172.73 196.91 160.30 203.54 148.64 199.12 C 156.66 195.23 164.79 198.57 173.66 192.99 Z" fill="#e6e1de" />
<path d="M 108.24 194.24 C 101.22 194.97 98.75 195.54 93.24 199.94 C 89.99 200.28 87.65 197.62 85.95 202.07 C 84.53 194.63 103.41 193.72 108.24 194.24 Z" fill="#b5928a" />
<path d="M 83.32 200.46 C 86.28 199.62 79.26 211.54 83.99 208.07 C 82.41 214.56 82.52 218.07 85.76 223.94 C 81.47 224.52 79.34 229.45 78.57 222.86 C 78.18 217.18 82.74 208.28 74.19 206.86 C 76.59 204.06 80.01 202.01 83.32 200.46 Z" fill="#a29496" />
<path d="M 185.23 204.14 C 187.97 205.81 190.15 206.69 190.13 210.35 C 186.34 211.59 181.69 215.97 178.90 218.84 C 175.26 225.90 167.05 231.71 159.36 226.60 C 153.83 221.65 146.95 213.40 138.96 212.70 C 145.86 209.04 155.82 214.10 160.59 219.38 C 162.39 220.95 162.99 227.25 165.88 223.86 C 168.46 221.22 167.15 218.31 171.78 216.84 C 176.62 215.70 184.08 209.00 185.23 204.14 Z" fill="#b89e8c" />
<path d="M 74.19 206.86 C 82.74 208.28 78.18 217.18 78.57 222.86 C 76.75 224.63 75.19 226.03 72.73 224.26 C 66.92 220.07 70.05 211.12 74.19 206.86 Z" fill="#2a2840" />
</svg>