<?xml version="1.0" encoding="UTF-8" standalone="no"?>
<!DOCTYPE svg PUBLIC "-//W3C//DTD SVG 1.1//EN" "http://www.w3.org/Graphics/SVG/1.1/DTD/svg11.dtd">
<svg xmlns="http://www.w3.org/2000/svg" version="1.1" viewBox="0 0 256 256" width="256.0pt" height="256.0pt">
<path d="M 0.00 0.00 L 256.00 0.00 L 256.00 256.00 L 0.00 256.00 L 0.00 0.00 Z" fill="#fffffe" />
<path d="M 117.01 18.86 C 123.99 18.65 130.03 21.96 136.99 21.98 C 143.11 22.11 148.85 24.16 154.99 24.04 C 162.10 23.98 168.92 25.03 176.03 25.96 C 178.90 26.29 181.21 27.68 183.58 29.19 C 182.82 29.75 182.06 30.32 181.31 30.89 C 183.74 32.08 186.26 31.87 188.79 32.46 C 190.73 34.05 192.22 36.26 193.88 38.14 C 196.75 41.60 200.24 44.43 203.17 47.83 C 206.19 51.33 208.07 55.37 211.21 58.79 C 214.45 62.30 218.14 65.36 222.46 67.46 C 226.07 69.29 229.49 70.65 232.21 73.80 C 235.15 77.12 236.02 81.10 236.82 85.33 C 238.52 95.39 239.44 105.56 241.28 115.59 C 242.35 121.96 242.70 128.48 243.32 134.91 C 243.99 141.26 242.63 147.51 243.25 153.88 C 243.94 161.42 242.64 168.52 242.13 176.00 C 241.61 182.98 242.07 190.06 242.98 197.00 C 243.92 204.50 247.31 210.30 247.06 217.99 C 247.12 226.53 239.79 233.92 231.79 235.81 C 223.48 237.74 214.78 236.64 206.39 238.64 C 200.49 240.09 194.40 239.93 188.52 241.40 C 180.43 243.46 172.28 245.38 164.10 247.09 C 149.37 249.22 134.88 250.19 120.22 246.90 C 112.76 245.49 106.12 242.04 98.80 240.20 C 91.32 238.28 83.82 236.43 76.32 234.58 C 62.89 231.07 51.29 225.02 38.94 218.98 C 34.14 216.60 30.46 213.01 26.84 209.17 C 22.09 204.40 18.82 198.00 16.18 191.88 C 10.85 176.46 10.77 159.82 15.04 144.13 C 16.65 138.27 16.59 132.23 18.44 126.41 C 20.94 118.70 22.47 110.91 27.50 104.46 C 32.27 97.94 39.61 93.76 44.37 87.37 C 48.23 82.16 45.65 75.52 45.28 69.69 C 44.36 63.07 47.41 57.46 51.69 52.69 C 55.68 48.31 60.76 46.13 65.48 42.48 C 68.74 40.06 71.41 37.11 74.32 34.30 C 77.99 30.59 83.83 28.89 88.50 26.50 C 97.27 22.61 107.31 18.52 117.01 18.86 Z" fill="#f4f4f2" />
<path d="M 106.32 26.25 C 109.37 26.44 112.09 28.01 115.18 28.70 C 119.71 29.71 124.75 30.21 129.05 31.99 C 129.92 33.54 130.44 35.30 130.95 36.99 C 128.55 37.40 126.26 37.89 123.86 38.12 C 119.44 37.97 114.48 40.03 110.38 38.63 C 107.70 37.92 106.55 34.52 105.80 32.17 C 105.47 30.38 104.78 27.63 106.32 26.25 Z" fill="#20213e" />
<path d="M 142.02 32.08 C 146.57 33.02 150.57 35.32 154.97 36.61 C 158.54 37.00 162.21 36.84 165.68 35.92 C 171.17 34.55 176.70 33.57 182.29 32.69 C 180.56 33.44 178.84 34.22 177.09 34.92 C 170.16 37.28 164.84 40.84 157.16 38.97 C 154.44 37.15 151.64 35.72 148.46 34.90 C 146.26 34.06 144.10 33.16 142.02 32.08 Z" fill="#17162d" />
<path d="M 136.46 34.20 C 140.49 34.62 144.38 35.37 148.46 34.90 C 151.64 35.72 154.44 37.15 157.16 38.97 C 160.46 41.02 163.99 42.64 167.27 44.73 C 171.27 47.27 175.72 48.86 179.76 51.33 C 179.18 51.97 178.60 52.61 178.02 53.26 C 174.87 53.14 172.06 52.57 169.08 52.98 C 167.98 53.42 166.89 53.98 165.83 54.53 C 162.90 54.06 159.97 53.77 157.00 53.74 C 157.47 52.74 157.96 51.73 158.45 50.73 C 156.53 49.48 154.72 48.53 152.35 48.71 C 148.47 49.01 144.89 47.61 141.04 47.74 C 135.88 47.76 130.78 48.26 125.64 48.66 C 120.70 49.01 116.12 48.11 111.27 47.42 C 113.72 46.13 114.88 43.87 116.83 42.10 C 119.63 41.38 122.72 41.51 125.61 41.32 C 126.09 40.65 126.58 39.98 127.07 39.32 C 126.00 38.90 124.93 38.50 123.86 38.12 C 126.26 37.89 128.55 37.40 130.95 36.99 C 131.56 37.56 132.17 38.13 132.78 38.70 C 133.98 37.18 135.17 35.66 136.46 34.20 Z" fill="#e9e9cd" />
<path d="M 86.03 35.95 C 87.76 40.32 89.48 42.93 92.73 46.32 C 90.59 47.02 89.04 48.91 86.92 47.11 C 84.14 44.60 80.33 42.15 79.63 38.30 C 81.76 37.51 83.88 36.69 86.03 35.95 Z" fill="#23223e" />
<path d="M 88.51 35.98 C 91.89 36.68 95.53 36.52 98.82 37.42 C 101.89 39.14 105.74 41.35 106.97 44.83 C 107.50 46.49 109.85 46.74 111.27 47.42 C 116.12 48.11 120.70 49.01 125.64 48.66 C 130.78 48.26 135.88 47.76 141.04 47.74 C 144.89 47.61 148.47 49.01 152.35 48.71 C 154.72 48.53 156.53 49.48 158.45 50.73 C 157.96 51.73 157.47 52.74 157.00 53.74 C 152.95 53.75 148.99 53.02 144.95 52.86 C 138.76 52.89 132.91 51.53 126.71 52.64 C 122.57 52.90 118.75 53.09 115.00 50.94 C 113.47 50.45 111.37 50.91 110.18 49.82 C 107.96 47.95 105.82 46.10 103.17 44.82 C 98.00 41.76 92.67 40.55 88.51 35.98 Z" fill="#1a1d35" />
<path d="M 184.02 45.11 L 183.33 46.70 C 180.12 47.63 176.20 47.79 173.23 46.02 C 176.15 43.52 180.51 44.92 184.02 45.11 Z" fill="#413f52" />
<path d="M 70.39 50.11 C 71.63 52.02 72.61 54.15 73.98 55.97 C 75.39 57.18 76.99 58.18 78.53 59.21 C 77.66 59.32 76.79 59.42 75.91 59.52 C 74.47 58.50 73.09 57.39 71.60 56.46 C 64.54 56.91 58.48 64.00 54.87 69.51 C 60.66 69.62 66.57 70.04 72.23 71.29 C 75.78 72.35 79.21 73.28 82.95 73.42 C 89.29 73.62 95.72 72.43 102.10 72.08 L 103.33 72.89 C 95.39 74.53 87.02 75.51 78.92 74.85 C 72.97 74.10 66.99 73.19 61.17 71.72 C 57.06 70.67 52.83 70.80 48.72 69.84 C 50.00 69.41 51.28 68.99 52.57 68.60 C 52.75 67.22 52.47 65.33 53.40 64.22 C 58.24 58.46 64.13 54.20 70.39 50.11 Z" fill="#1f223d" />
<path d="M 197.30 51.16 C 196.28 52.39 195.22 53.58 194.11 54.74 C 190.41 55.10 186.74 55.81 183.03 56.00 C 179.21 56.03 175.34 55.22 171.61 54.44 C 170.78 53.93 169.94 53.44 169.08 52.98 C 172.06 52.57 174.87 53.14 178.02 53.26 C 181.02 53.24 184.03 53.24 187.02 53.14 C 190.49 52.84 193.85 51.66 197.30 51.16 Z" fill="#6a6d67" />
<path d="M 109.12 51.44 L 110.35 52.77 C 109.42 54.01 108.45 55.23 107.55 56.49 C 106.51 56.17 105.48 55.82 104.45 55.46 C 106.00 54.12 107.52 52.73 109.12 51.44 Z" fill="#555d59" />
<path d="M 115.00 50.94 C 118.75 53.09 122.57 52.90 126.71 52.64 C 126.96 55.34 127.36 57.95 127.43 60.67 C 124.47 55.34 115.91 55.15 110.62 54.44 C 111.98 53.14 113.47 52.02 115.00 50.94 Z" fill="#c12f22" />
<path d="M 144.95 52.86 C 148.99 53.02 152.95 53.75 157.00 53.74 C 159.97 53.77 162.90 54.06 165.83 54.53 C 165.34 58.00 163.01 60.38 162.00 63.63 C 161.37 65.33 161.16 67.56 160.02 68.99 C 158.11 70.13 155.83 70.68 153.98 71.90 C 153.26 72.76 152.77 73.84 152.21 74.81 C 151.95 73.33 151.59 71.87 151.16 70.43 C 150.63 69.83 150.09 69.23 149.51 68.67 C 147.53 66.98 145.93 64.74 143.04 65.15 C 136.96 65.12 132.64 70.41 130.48 75.54 C 129.27 78.31 131.20 80.68 132.54 82.96 C 131.37 84.34 130.55 86.08 128.71 86.60 C 124.57 87.90 120.31 89.36 116.01 90.02 C 111.78 88.40 108.61 85.41 103.86 84.92 C 108.37 85.25 112.93 85.40 117.46 85.21 L 116.62 83.21 C 115.60 80.85 114.49 78.54 113.37 76.23 C 106.07 76.36 99.04 78.53 91.73 79.10 C 87.71 78.74 83.73 78.31 79.78 77.48 C 79.49 76.60 79.20 75.72 78.92 74.85 C 87.02 75.51 95.39 74.53 103.33 72.89 L 102.10 72.08 C 99.07 69.81 94.91 69.16 91.35 67.66 C 92.06 68.93 92.78 70.18 93.46 71.46 C 91.68 71.18 90.19 70.96 88.89 69.59 C 86.41 67.20 84.07 65.59 80.84 64.41 C 81.28 63.25 81.72 62.09 82.16 60.92 C 88.76 62.39 97.00 63.83 103.41 61.10 C 102.31 60.33 101.20 59.57 100.09 58.82 C 101.59 57.77 103.04 56.64 104.45 55.46 C 105.48 55.82 106.51 56.17 107.55 56.49 L 107.59 57.55 C 107.65 58.77 107.70 59.99 107.75 61.22 C 109.73 63.39 111.89 66.05 114.55 67.38 C 117.03 67.98 119.98 67.86 122.45 67.25 C 124.33 66.39 125.53 63.91 126.58 62.24 L 127.43 60.67 C 127.36 57.95 126.96 55.34 126.71 52.64 C 132.91 51.53 138.76 52.89 144.95 52.86 Z" fill="#bce0b4" />
<path d="M 169.08 52.98 C 169.94 53.44 170.78 53.93 171.61 54.44 C 172.00 55.44 172.33 56.48 172.82 57.43 C 174.87 59.22 178.13 58.80 180.64 58.60 C 179.64 60.99 179.45 62.02 180.48 64.47 C 183.62 71.93 184.69 78.85 188.83 85.56 C 184.08 91.18 181.91 97.96 177.95 104.05 C 176.65 103.10 175.35 102.14 174.06 101.17 C 174.86 99.07 175.63 96.97 176.49 94.90 C 177.64 92.27 179.05 89.56 179.64 86.75 C 180.10 84.11 179.25 81.51 177.57 79.46 C 176.60 79.58 175.71 79.88 174.78 80.16 C 175.83 81.28 176.91 82.38 177.91 83.55 C 179.15 84.61 178.08 86.25 177.57 87.41 C 175.97 90.36 174.03 93.12 172.32 96.02 C 169.59 96.69 167.84 97.93 165.83 99.83 C 168.02 90.93 169.05 82.13 167.28 73.04 C 166.34 69.65 163.92 66.54 162.00 63.63 C 163.01 60.38 165.34 58.00 165.83 54.53 C 166.89 53.98 167.98 53.42 169.08 52.98 Z" fill="#e1dfbb" />
<path d="M 110.62 54.44 C 115.91 55.15 124.47 55.34 127.43 60.67 L 126.58 62.24 C 119.97 62.88 113.73 65.09 107.75 61.22 C 107.70 59.99 107.65 58.77 107.59 57.55 C 108.59 56.49 109.57 55.43 110.62 54.44 Z" fill="#070101" />
<path d="M 171.61 54.44 C 175.34 55.22 179.21 56.03 183.03 56.00 C 186.74 55.81 190.41 55.10 194.11 54.74 C 196.90 57.14 198.69 59.72 199.43 63.37 C 200.26 65.46 198.01 67.13 196.98 68.72 C 194.74 65.91 192.56 63.18 189.65 61.01 C 192.56 65.81 196.48 69.84 199.27 74.75 C 201.97 78.80 203.88 83.19 205.84 87.61 L 205.26 88.92 C 203.90 87.32 202.60 86.24 200.76 85.24 C 197.19 80.16 194.97 74.55 191.69 69.24 C 189.38 65.57 187.25 61.77 184.72 58.25 C 183.36 58.33 182.00 58.47 180.64 58.60 C 178.13 58.80 174.87 59.22 172.82 57.43 C 172.33 56.48 172.00 55.44 171.61 54.44 Z" fill="#e7e9ca" />
<path d="M 71.60 56.46 C 73.09 57.39 74.47 58.50 75.91 59.52 C 74.19 59.63 72.55 59.30 70.88 58.98 C 69.33 58.83 67.83 59.04 66.29 59.20 C 66.11 61.86 66.01 64.51 65.99 67.17 C 67.92 67.20 69.84 67.23 71.76 67.27 C 71.93 68.61 72.08 69.95 72.23 71.29 C 66.57 70.04 60.66 69.62 54.87 69.51 C 58.48 64.00 64.54 56.91 71.60 56.46 Z" fill="#d8f0d4" />
<path d="M 70.88 58.98 C 72.55 59.30 74.19 59.63 75.91 59.52 C 76.79 59.42 77.66 59.32 78.53 59.21 L 79.18 59.30 C 80.18 59.84 81.16 60.40 82.16 60.92 C 81.72 62.09 81.28 63.25 80.84 64.41 C 84.07 65.59 86.41 67.20 88.89 69.59 C 90.19 70.96 91.68 71.18 93.46 71.46 C 92.78 70.18 92.06 68.93 91.35 67.66 C 94.91 69.16 99.07 69.81 102.10 72.08 C 95.72 72.43 89.29 73.62 82.95 73.42 C 79.21 73.28 75.78 72.35 72.23 71.29 C 72.08 69.95 71.93 68.61 71.76 67.27 C 69.84 67.23 67.92 67.20 65.99 67.17 C 66.01 64.51 66.11 61.86 66.29 59.20 C 67.83 59.04 69.33 58.83 70.88 58.98 Z" fill="#c7e5c0" />
<path d="M 184.72 58.25 C 187.25 61.77 189.38 65.57 191.69 69.24 C 194.97 74.55 197.19 80.16 200.76 85.24 C 197.99 87.75 195.58 90.37 194.22 93.92 C 192.61 91.01 190.70 88.30 188.83 85.56 C 184.69 78.85 183.62 71.93 180.48 64.47 C 179.45 62.02 179.64 60.99 180.64 58.60 C 182.00 58.47 183.36 58.33 184.72 58.25 Z" fill="#abbb69" />
<path d="M 79.18 59.30 C 86.65 59.95 92.83 62.18 100.09 58.82 C 101.20 59.57 102.31 60.33 103.41 61.10 C 97.00 63.83 88.76 62.39 82.16 60.92 C 81.16 60.40 80.18 59.84 79.18 59.30 Z" fill="#5c6b65" />
<path d="M 107.75 61.22 C 113.73 65.09 119.97 62.88 126.58 62.24 C 125.53 63.91 124.33 66.39 122.45 67.25 C 119.98 67.86 117.03 67.98 114.55 67.38 C 111.89 66.05 109.73 63.39 107.75 61.22 Z" fill="#b4210f" />
<path d="M 189.65 61.01 C 192.56 63.18 194.74 65.91 196.98 68.72 C 200.64 73.52 203.24 78.75 206.02 84.06 C 209.25 89.60 212.18 95.13 214.15 101.27 C 215.88 105.97 216.96 110.40 219.70 114.62 C 220.79 113.02 222.01 111.40 222.81 109.63 C 223.15 108.21 222.75 106.60 222.64 105.16 C 222.95 104.05 223.30 102.97 223.66 101.88 C 224.56 104.07 225.16 106.51 226.38 108.55 C 227.62 109.51 230.33 108.31 231.85 108.27 C 232.32 112.29 232.96 115.99 232.16 120.02 C 230.99 124.40 232.84 129.48 233.34 133.96 C 234.57 140.67 233.30 147.36 234.40 154.09 C 234.80 156.35 233.69 157.89 232.68 159.78 C 232.09 160.60 231.49 161.43 230.89 162.25 C 229.26 161.96 227.63 161.66 225.99 161.42 C 225.37 160.12 224.76 158.80 224.11 157.50 C 226.23 152.87 229.05 148.48 230.81 143.71 C 231.84 137.84 231.29 131.50 230.09 125.67 C 227.40 125.75 224.82 125.61 222.15 125.22 C 220.55 121.76 219.61 118.05 217.97 114.60 C 217.90 120.48 219.93 125.88 219.16 131.82 C 218.88 134.77 218.48 137.70 218.21 140.65 C 218.02 141.68 217.82 142.70 217.62 143.73 C 216.30 148.98 214.35 154.08 211.95 158.92 C 209.75 163.57 205.81 167.50 202.73 171.72 C 201.51 173.25 200.24 174.74 198.94 176.20 C 199.07 173.78 199.31 171.38 199.88 169.02 C 201.14 167.79 202.37 166.53 203.54 165.20 C 207.58 160.49 211.02 155.44 213.37 149.66 C 215.28 145.44 216.65 141.03 216.97 136.39 C 217.60 131.67 217.19 127.24 216.14 122.62 C 216.69 113.57 214.49 104.77 210.39 96.73 C 208.97 93.64 207.36 90.66 205.84 87.61 C 203.88 83.19 201.97 78.80 199.27 74.75 C 196.48 69.84 192.56 65.81 189.65 61.01 Z" fill="#21213d" />
<path d="M 162.00 63.63 C 163.92 66.54 166.34 69.65 167.28 73.04 C 169.05 82.13 168.02 90.93 165.83 99.83 C 167.84 97.93 169.59 96.69 172.32 96.02 C 171.68 97.52 171.17 99.06 170.73 100.63 C 172.93 98.97 174.80 97.07 176.49 94.90 C 175.63 96.97 174.86 99.07 174.06 101.17 C 175.35 102.14 176.65 103.10 177.95 104.05 C 181.91 97.96 184.08 91.18 188.83 85.56 C 190.70 88.30 192.61 91.01 194.22 93.92 C 193.80 94.93 193.40 95.97 193.03 97.01 C 189.40 97.83 184.61 97.90 182.89 101.85 C 179.59 108.28 178.40 116.35 177.02 123.39 C 176.45 116.34 176.76 109.71 173.64 103.12 C 171.49 102.85 169.30 102.45 167.13 102.49 C 165.27 103.12 163.54 104.15 161.78 105.01 C 158.98 106.37 159.68 108.80 159.03 111.42 C 158.10 116.33 158.63 119.80 160.94 124.18 C 161.19 124.65 161.44 125.11 161.69 125.57 C 159.56 125.85 157.47 124.98 156.42 127.39 C 154.66 131.10 153.82 135.19 152.09 138.94 C 148.09 139.90 143.88 140.55 140.03 142.03 C 137.49 143.04 135.83 144.84 133.89 146.64 C 130.03 148.80 126.14 150.68 122.63 153.42 C 122.26 153.69 121.89 153.96 121.53 154.24 C 119.15 156.12 116.65 157.82 114.19 159.59 C 112.62 151.53 114.77 143.70 111.12 136.75 C 108.55 131.96 104.83 127.79 101.71 123.35 C 99.90 120.63 96.46 120.45 93.56 119.75 C 88.29 118.33 84.13 117.97 78.69 118.55 C 74.60 119.10 69.58 117.74 65.92 119.68 C 65.28 120.09 64.66 120.53 64.06 120.99 C 59.23 124.78 54.19 127.68 51.24 133.27 C 48.36 138.38 46.85 143.95 49.42 149.56 C 51.47 153.82 54.64 159.10 59.66 160.09 C 65.32 161.34 71.91 163.99 77.48 161.57 C 79.94 160.72 81.43 158.99 83.28 157.27 C 85.03 155.86 86.77 154.51 88.44 153.00 C 89.76 151.04 92.23 148.21 91.29 145.71 C 90.68 143.72 89.71 141.44 88.06 140.09 C 85.98 139.24 83.68 138.89 81.52 138.27 C 81.25 137.54 81.00 136.81 80.76 136.06 C 81.03 134.87 81.31 133.67 81.57 132.47 C 77.10 133.35 75.02 134.45 72.57 138.34 C 72.39 141.76 72.57 145.10 72.54 148.53 C 69.33 145.13 68.15 141.58 67.79 136.96 C 69.14 132.52 71.33 128.57 75.85 126.77 C 79.84 126.53 84.50 126.24 88.29 127.72 C 90.97 129.07 92.99 131.99 95.01 134.15 C 94.86 134.69 94.73 135.24 94.59 135.78 C 92.18 134.58 91.06 136.68 93.10 138.24 C 97.19 140.85 97.95 146.64 96.07 150.82 C 94.33 154.90 92.34 158.95 88.55 161.50 C 81.41 166.36 73.78 169.87 65.95 173.43 C 63.65 171.72 61.49 169.84 59.51 167.76 C 58.60 166.87 57.77 165.61 56.60 165.07 C 54.76 164.87 52.79 165.20 51.00 165.63 C 49.54 166.12 48.11 166.76 46.68 167.34 C 45.72 167.70 44.75 168.05 43.79 168.39 C 43.56 166.06 43.52 163.73 43.59 161.39 C 43.94 157.86 44.60 154.67 44.09 151.12 C 43.85 148.93 43.15 146.62 43.31 144.42 C 43.89 141.47 45.69 138.72 46.16 135.74 C 46.03 133.95 44.71 132.16 43.92 130.59 C 45.17 127.61 46.67 124.76 47.77 121.71 C 49.87 115.10 54.27 108.91 58.28 103.31 C 60.71 99.94 63.64 97.34 67.10 95.07 C 71.53 91.55 76.34 88.78 81.47 86.41 C 88.77 85.01 96.43 84.12 103.86 84.92 C 108.61 85.41 111.78 88.40 116.01 90.02 C 120.31 89.36 124.57 87.90 128.71 86.60 C 130.55 86.08 131.37 84.34 132.54 82.96 C 135.10 85.65 138.07 89.87 142.14 89.82 C 146.94 90.38 150.22 87.39 153.92 84.86 C 155.71 83.69 156.33 81.93 157.19 80.08 C 153.62 81.36 150.44 83.32 147.06 85.00 C 143.93 86.71 139.80 86.02 136.38 85.75 C 136.01 83.93 135.66 82.10 135.31 80.28 C 135.55 78.91 135.81 77.54 136.09 76.17 C 136.63 76.82 137.16 77.47 137.69 78.13 C 138.56 79.21 139.41 80.31 140.27 81.40 C 144.39 80.75 150.27 78.86 152.21 74.81 C 152.77 73.84 153.26 72.76 153.98 71.90 C 155.83 70.68 158.11 70.13 160.02 68.99 C 161.16 67.56 161.37 65.33 162.00 63.63 Z" fill="#e9e6d9" />
<path d="M 143.04 65.15 C 145.93 64.74 147.53 66.98 149.51 68.67 C 145.80 69.18 142.60 67.34 138.82 68.65 C 135.67 69.33 133.97 71.85 133.85 74.97 C 134.11 76.76 134.80 78.55 135.31 80.28 C 135.66 82.10 136.01 83.93 136.38 85.75 C 139.80 86.02 143.93 86.71 147.06 85.00 C 150.44 83.32 153.62 81.36 157.19 80.08 C 156.33 81.93 155.71 83.69 153.92 84.86 C 150.22 87.39 146.94 90.38 142.14 89.82 C 138.07 89.87 135.10 85.65 132.54 82.96 C 131.20 80.68 129.27 78.31 130.48 75.54 C 132.64 70.41 136.96 65.12 143.04 65.15 Z" fill="#986f12" />
<path d="M 149.51 68.67 C 150.09 69.23 150.63 69.83 151.16 70.43 C 149.18 72.12 147.08 75.33 144.32 75.48 C 142.02 76.08 140.50 73.61 138.91 72.35 C 138.51 74.28 138.10 76.20 137.69 78.13 C 137.16 77.47 136.63 76.82 136.09 76.17 C 135.81 77.54 135.55 78.91 135.31 80.28 C 134.80 78.55 134.11 76.76 133.85 74.97 C 133.97 71.85 135.67 69.33 138.82 68.65 C 142.60 67.34 145.80 69.18 149.51 68.67 Z" fill="#c7ddb2" />
<path d="M 151.16 70.43 C 151.59 71.87 151.95 73.33 152.21 74.81 C 150.27 78.86 144.39 80.75 140.27 81.40 C 139.41 80.31 138.56 79.21 137.69 78.13 C 138.10 76.20 138.51 74.28 138.91 72.35 C 140.50 73.61 142.02 76.08 144.32 75.48 C 147.08 75.33 149.18 72.12 151.16 70.43 Z" fill="#a17716" />
<path d="M 222.38 72.97 C 226.19 76.87 229.40 82.40 229.69 87.91 C 229.12 92.57 225.99 94.51 222.20 96.54 L 222.35 98.24 C 219.51 96.34 217.06 95.23 213.72 94.48 C 213.65 90.99 212.80 87.90 211.71 84.63 L 213.05 83.77 C 215.19 82.39 217.24 80.84 219.11 79.11 C 220.75 77.59 221.38 74.95 222.38 72.97 Z" fill="#22223f" />
<path d="M 113.37 76.23 C 114.49 78.54 115.60 80.85 116.62 83.21 C 112.99 81.95 110.08 81.66 106.28 82.36 C 102.59 83.11 99.77 81.57 96.23 80.74 C 94.72 80.21 93.24 79.62 91.73 79.10 C 99.04 78.53 106.07 76.36 113.37 76.23 Z" fill="#dce7cf" />
<path d="M 61.74 77.07 C 64.17 77.42 66.62 76.19 67.18 79.43 C 65.26 78.81 63.50 78.04 61.74 77.07 Z" fill="#9b9ba1" />
<path d="M 67.83 79.24 C 71.72 79.44 75.64 79.61 79.51 80.11 C 85.12 80.79 90.69 80.48 96.23 80.74 C 99.77 81.57 102.59 83.11 106.28 82.36 C 110.08 81.66 112.99 81.95 116.62 83.21 L 117.46 85.21 C 112.93 85.40 108.37 85.25 103.86 84.92 C 96.43 84.12 88.77 85.01 81.47 86.41 C 80.00 85.77 78.54 85.16 76.99 84.72 L 76.58 84.96 C 77.44 84.35 78.29 83.75 79.15 83.15 C 75.37 81.86 71.58 80.61 67.83 79.24 Z" fill="#181933" />
<path d="M 177.57 79.46 C 179.25 81.51 180.10 84.11 179.64 86.75 C 179.05 89.56 177.64 92.27 176.49 94.90 C 174.80 97.07 172.93 98.97 170.73 100.63 C 171.17 99.06 171.68 97.52 172.32 96.02 C 174.03 93.12 175.97 90.36 177.57 87.41 C 178.08 86.25 179.15 84.61 177.91 83.55 C 176.91 82.38 175.83 81.28 174.78 80.16 C 175.71 79.88 176.60 79.58 177.57 79.46 Z" fill="#52524b" />
<path d="M 208.71 79.36 C 210.20 80.79 211.65 82.26 213.05 83.77 L 211.71 84.63 C 212.80 87.90 213.65 90.99 213.72 94.48 C 217.06 95.23 219.51 96.34 222.35 98.24 C 222.74 99.46 223.21 100.67 223.66 101.88 C 223.30 102.97 222.95 104.05 222.64 105.16 C 220.53 101.98 219.26 96.93 214.74 96.71 C 214.49 98.22 214.29 99.74 214.15 101.27 C 212.18 95.13 209.25 89.60 206.02 84.06 C 206.79 82.40 207.68 80.87 208.71 79.36 Z" fill="#bcbb89" />
<path d="M 76.58 84.96 L 76.99 84.72 C 78.54 85.16 80.00 85.77 81.47 86.41 C 76.34 88.78 71.53 91.55 67.10 95.07 C 63.64 97.34 60.71 99.94 58.28 103.31 C 54.27 108.91 49.87 115.10 47.77 121.71 C 46.67 124.76 45.17 127.61 43.92 130.59 C 42.36 134.33 40.84 138.37 40.41 142.42 C 40.08 144.84 41.08 146.73 41.67 148.99 C 41.55 151.88 40.63 154.97 40.81 157.88 C 41.29 159.24 42.64 160.35 43.59 161.39 C 43.52 163.73 43.56 166.06 43.79 168.39 C 44.35 173.41 49.30 176.73 48.83 181.60 C 48.86 183.09 49.21 184.47 49.52 185.92 C 49.68 188.91 50.16 191.66 51.41 194.40 C 53.13 199.67 59.15 202.99 62.90 207.04 C 64.78 206.05 66.67 204.93 68.66 204.20 C 69.89 203.51 71.05 204.83 72.10 205.37 C 70.00 205.87 68.21 206.81 66.41 207.98 C 69.00 210.17 70.63 210.86 74.03 211.24 C 75.48 214.32 76.50 217.47 77.27 220.79 C 81.76 222.83 86.10 224.83 90.88 226.13 C 98.13 228.06 105.74 228.88 113.23 228.84 C 117.83 228.90 122.48 228.54 127.06 228.91 C 122.82 230.84 117.22 229.38 112.60 229.93 C 108.17 229.72 103.74 229.39 99.32 229.10 C 92.75 228.65 86.60 227.08 80.14 225.87 C 73.34 224.51 67.74 221.41 61.59 218.39 C 58.11 216.63 55.75 213.61 52.40 211.67 C 48.73 209.54 44.81 208.53 40.59 208.31 C 41.47 207.16 42.40 206.06 43.31 204.95 C 41.83 202.96 40.45 200.91 39.00 198.91 C 36.89 195.75 34.73 193.45 31.78 191.07 C 29.00 188.94 28.31 186.00 27.34 182.82 C 27.38 180.46 27.88 177.81 27.33 175.50 C 26.60 174.55 25.70 173.70 24.84 172.86 C 23.37 171.45 22.01 169.95 20.69 168.40 C 22.09 168.45 23.49 168.53 24.89 168.61 C 22.95 166.61 21.14 164.96 20.67 162.05 C 21.64 162.81 22.60 163.57 23.57 164.32 C 24.18 163.10 24.86 161.87 25.29 160.57 C 25.40 158.04 24.69 155.62 25.06 153.06 C 25.48 149.82 25.88 146.55 26.48 143.33 C 29.25 135.83 31.55 128.30 32.95 120.42 C 35.28 112.84 40.79 105.87 46.90 100.88 C 52.24 95.30 59.73 91.78 66.71 88.63 C 68.88 87.53 71.11 87.73 73.41 87.23 C 74.51 86.55 75.51 85.72 76.58 84.96 Z" fill="#222440" />
<path d="M 200.76 85.24 C 202.60 86.24 203.90 87.32 205.26 88.92 C 203.82 91.55 204.50 93.85 205.03 96.60 C 206.82 96.63 208.60 96.68 210.39 96.73 C 214.49 104.77 216.69 113.57 216.14 122.62 C 214.72 127.61 215.31 131.58 216.97 136.39 C 216.65 141.03 215.28 145.44 213.37 149.66 C 211.94 150.56 210.48 151.60 208.91 152.20 C 205.98 151.08 203.61 148.01 201.71 145.63 C 201.33 141.98 199.85 139.34 197.63 136.49 C 197.20 141.77 197.90 147.01 197.53 152.30 C 195.42 149.09 194.92 145.55 194.15 141.88 C 193.98 147.77 194.34 153.62 195.75 159.36 C 195.16 158.98 194.57 158.61 193.97 158.24 C 193.58 151.64 191.02 145.86 189.73 139.46 C 188.24 132.43 187.92 125.13 188.20 117.96 C 188.54 110.56 190.74 103.98 193.03 97.01 C 193.40 95.97 193.80 94.93 194.22 93.92 C 195.58 90.37 197.99 87.75 200.76 85.24 Z" fill="#a5a748" />
<path d="M 205.84 87.61 C 207.36 90.66 208.97 93.64 210.39 96.73 C 208.60 96.68 206.82 96.63 205.03 96.60 C 204.50 93.85 203.82 91.55 205.26 88.92 L 205.84 87.61 Z" fill="#f0f2df" />
<path d="M 193.03 97.01 C 190.74 103.98 188.54 110.56 188.20 117.96 C 187.92 125.13 188.24 132.43 189.73 139.46 C 191.02 145.86 193.58 151.64 193.97 158.24 C 190.86 156.60 188.47 154.29 186.07 151.77 C 187.48 149.88 189.09 147.46 189.11 145.04 C 187.89 139.72 185.34 134.79 180.51 131.92 C 181.05 130.81 181.59 129.71 182.12 128.59 C 181.04 128.93 179.98 129.27 178.90 129.61 C 178.14 127.57 177.24 125.56 177.02 123.39 C 178.40 116.35 179.59 108.28 182.89 101.85 C 184.61 97.90 189.40 97.83 193.03 97.01 Z" fill="#afbe72" />
<path d="M 214.74 96.71 C 219.26 96.93 220.53 101.98 222.64 105.16 C 222.75 106.60 223.15 108.21 222.81 109.63 C 222.01 111.40 220.79 113.02 219.70 114.62 C 216.96 110.40 215.88 105.97 214.15 101.27 C 214.29 99.74 214.49 98.22 214.74 96.71 Z" fill="#a1a846" />
<path d="M 167.13 102.49 C 169.30 102.45 171.49 102.85 173.64 103.12 C 176.76 109.71 176.45 116.34 177.02 123.39 C 177.24 125.56 178.14 127.57 178.90 129.61 C 179.98 129.27 181.04 128.93 182.12 128.59 C 181.59 129.71 181.05 130.81 180.51 131.92 C 185.34 134.79 187.89 139.72 189.11 145.04 C 189.09 147.46 187.48 149.88 186.07 151.77 C 182.79 155.66 179.40 159.29 175.21 162.21 C 170.63 165.52 165.70 167.81 160.85 170.67 C 160.07 171.10 159.30 171.55 158.54 172.00 C 157.80 171.71 157.07 171.43 156.33 171.15 C 160.98 165.54 165.99 160.26 171.68 155.69 C 176.53 151.77 180.69 147.25 184.01 141.96 C 183.13 140.93 182.25 139.89 181.37 138.86 C 179.69 136.78 178.33 134.90 175.61 134.16 C 174.17 131.72 172.64 129.68 172.16 126.81 C 172.32 123.61 173.13 120.41 173.68 117.25 C 172.37 119.75 170.81 121.69 168.76 123.62 C 166.15 123.66 163.55 123.92 160.94 124.18 C 158.63 119.80 158.10 116.33 159.03 111.42 C 161.82 110.67 164.12 109.63 166.55 108.10 C 164.98 107.04 163.38 106.02 161.78 105.01 C 163.54 104.15 165.27 103.12 167.13 102.49 Z" fill="#20223e" />
<path d="M 161.78 105.01 C 163.38 106.02 164.98 107.04 166.55 108.10 C 164.12 109.63 161.82 110.67 159.03 111.42 C 159.68 108.80 158.98 106.37 161.78 105.01 Z" fill="#87888a" />
<path d="M 166.82 111.97 C 167.54 114.18 168.49 117.73 166.61 119.58 C 165.24 121.56 161.56 121.49 160.07 119.71 C 159.61 117.63 159.91 115.33 160.20 113.24 C 162.36 112.57 164.57 112.18 166.82 111.97 Z" fill="#e5e5d3" />
<path d="M 217.97 114.60 C 219.61 118.05 220.55 121.76 222.15 125.22 L 221.76 126.22 C 219.86 129.61 221.57 134.37 221.70 138.14 C 220.92 136.00 219.97 133.95 219.16 131.82 C 219.93 125.88 217.90 120.48 217.97 114.60 Z" fill="#a79d86" />
<path d="M 173.68 117.25 C 173.13 120.41 172.32 123.61 172.16 126.81 C 172.64 129.68 174.17 131.72 175.61 134.16 C 173.29 133.20 169.95 132.61 168.24 130.67 C 166.58 128.21 167.67 126.02 168.76 123.62 C 170.81 121.69 172.37 119.75 173.68 117.25 Z" fill="#ededd2" />
<path d="M 78.69 118.55 C 84.13 117.97 88.29 118.33 93.56 119.75 C 90.33 120.55 87.14 121.37 83.82 121.71 C 79.74 122.04 75.76 122.53 71.96 124.18 C 69.94 122.69 67.96 121.14 65.92 119.68 C 69.58 117.74 74.60 119.10 78.69 118.55 Z" fill="#d1c098" />
<path d="M 65.92 119.68 C 67.96 121.14 69.94 122.69 71.96 124.18 C 68.04 126.43 64.25 129.45 62.93 133.97 C 62.33 137.60 62.20 141.37 62.05 145.04 C 59.85 142.28 58.06 140.67 54.71 139.50 C 54.71 141.70 54.73 143.89 54.89 146.08 C 53.73 141.09 53.74 135.91 56.41 131.38 C 58.64 127.72 61.42 124.37 64.06 120.99 C 64.66 120.53 65.28 120.09 65.92 119.68 Z" fill="#bb9c51" />
<path d="M 93.56 119.75 C 96.46 120.45 99.90 120.63 101.71 123.35 C 104.83 127.79 108.55 131.96 111.12 136.75 C 114.77 143.70 112.62 151.53 114.19 159.59 C 107.65 164.62 107.50 173.40 110.16 180.57 C 108.29 182.74 106.28 184.91 104.63 187.23 C 103.77 183.29 102.81 179.38 101.65 175.51 C 100.15 175.86 98.65 176.21 97.14 176.55 C 98.25 174.03 99.43 171.54 100.64 169.06 C 99.76 168.63 98.88 168.21 97.99 167.80 C 101.43 163.49 104.97 159.52 106.00 153.95 C 106.79 149.85 108.04 145.49 107.82 141.29 C 105.26 136.68 100.46 133.43 95.01 134.15 C 92.99 131.99 90.97 129.07 88.29 127.72 C 84.50 126.24 79.84 126.53 75.85 126.77 C 79.85 125.54 83.84 125.61 87.98 125.67 C 86.59 124.36 85.20 123.03 83.82 121.71 C 87.14 121.37 90.33 120.55 93.56 119.75 Z" fill="#c4a969" />
<path d="M 64.06 120.99 C 61.42 124.37 58.64 127.72 56.41 131.38 C 53.74 135.91 53.73 141.09 54.89 146.08 C 56.80 150.68 59.58 156.36 63.68 159.32 C 69.76 160.94 77.30 158.81 83.28 157.27 C 81.43 158.99 79.94 160.72 77.48 161.57 C 71.91 163.99 65.32 161.34 59.66 160.09 C 54.64 159.10 51.47 153.82 49.42 149.56 C 46.85 143.95 48.36 138.38 51.24 133.27 C 54.19 127.68 59.23 124.78 64.06 120.99 Z" fill="#d1c093" />
<path d="M 83.82 121.71 C 85.20 123.03 86.59 124.36 87.98 125.67 C 83.84 125.61 79.85 125.54 75.85 126.77 C 71.33 128.57 69.14 132.52 67.79 136.96 C 66.99 140.15 65.93 144.04 66.76 147.29 C 67.90 150.42 70.16 153.19 71.83 156.06 C 67.73 153.24 64.40 149.74 63.18 144.78 C 62.46 141.27 62.60 137.53 62.93 133.97 C 64.25 129.45 68.04 126.43 71.96 124.18 C 75.76 122.53 79.74 122.04 83.82 121.71 Z" fill="#a67d18" />
<path d="M 216.14 122.62 C 217.19 127.24 217.60 131.67 216.97 136.39 C 215.31 131.58 214.72 127.61 216.14 122.62 Z" fill="#d9d2ae" />
<path d="M 160.94 124.18 C 163.55 123.92 166.15 123.66 168.76 123.62 C 167.67 126.02 166.58 128.21 168.24 130.67 C 169.95 132.61 173.29 133.20 175.61 134.16 C 178.33 134.90 179.69 136.78 181.37 138.86 C 177.95 142.31 174.81 146.01 171.87 149.87 C 170.30 151.81 168.63 154.17 166.46 155.46 C 163.67 156.23 160.53 155.52 157.67 156.10 C 155.55 156.56 153.49 157.48 151.35 157.84 C 148.31 158.21 145.65 157.41 142.70 158.67 C 138.13 160.61 133.78 162.96 129.08 164.61 C 128.10 163.28 127.11 161.96 126.11 160.64 C 128.22 158.82 130.40 157.50 132.07 155.21 C 133.37 153.47 134.72 151.81 136.25 150.27 C 135.88 150.03 135.52 149.78 135.15 149.54 C 135.63 148.91 136.12 148.29 136.60 147.66 C 135.70 147.31 134.80 146.97 133.89 146.64 C 135.83 144.84 137.49 143.04 140.03 142.03 C 143.88 140.55 148.09 139.90 152.09 138.94 C 153.82 135.19 154.66 131.10 156.42 127.39 C 157.47 124.98 159.56 125.85 161.69 125.57 C 161.44 125.11 161.19 124.65 160.94 124.18 Z" fill="#c2dead" />
<path d="M 222.15 125.22 C 224.82 125.61 227.40 125.75 230.09 125.67 C 231.29 131.50 231.84 137.84 230.81 143.71 C 229.05 148.48 226.23 152.87 224.11 157.50 C 222.96 155.35 221.69 153.25 220.36 151.20 C 219.18 154.06 218.33 157.12 216.90 159.86 C 216.45 160.87 215.32 160.94 214.41 161.39 C 214.54 159.94 214.66 158.49 214.76 157.03 C 213.23 160.56 211.78 164.44 209.64 167.62 C 207.77 170.41 205.51 172.58 203.28 175.04 C 203.10 173.93 202.92 172.83 202.73 171.72 C 205.81 167.50 209.75 163.57 211.95 158.92 C 214.35 154.08 216.30 148.98 217.62 143.73 C 218.16 145.94 218.88 148.08 219.66 150.22 C 219.82 146.77 219.32 143.91 218.21 140.65 C 218.48 137.70 218.88 134.77 219.16 131.82 C 219.97 133.95 220.92 136.00 221.70 138.14 C 222.22 143.45 222.69 148.71 223.62 153.97 C 224.32 148.68 224.85 143.30 224.71 137.96 C 224.64 134.02 222.84 130.03 221.76 126.22 L 222.15 125.22 Z" fill="#b6a959" />
<path d="M 221.76 126.22 C 222.84 130.03 224.64 134.02 224.71 137.96 C 224.85 143.30 224.32 148.68 223.62 153.97 C 222.69 148.71 222.22 143.45 221.70 138.14 C 221.57 134.37 219.86 129.61 221.76 126.22 Z" fill="#fcf6e4" />
<path d="M 43.92 130.59 C 44.71 132.16 46.03 133.95 46.16 135.74 C 45.69 138.72 43.89 141.47 43.31 144.42 C 43.15 146.62 43.85 148.93 44.09 151.12 C 44.60 154.67 43.94 157.86 43.59 161.39 C 42.64 160.35 41.29 159.24 40.81 157.88 C 40.63 154.97 41.55 151.88 41.67 148.99 C 41.08 146.73 40.08 144.84 40.41 142.42 C 40.84 138.37 42.36 134.33 43.92 130.59 Z" fill="#b8bab7" />
<path d="M 81.57 132.47 C 81.31 133.67 81.03 134.87 80.76 136.06 C 80.51 136.91 80.25 137.75 79.98 138.59 C 77.22 137.66 75.39 137.70 72.57 138.34 C 75.02 134.45 77.10 133.35 81.57 132.47 Z" fill="#c8b171" />
<path d="M 62.93 133.97 C 62.60 137.53 62.46 141.27 63.18 144.78 C 64.40 149.74 67.73 153.24 71.83 156.06 C 70.16 153.19 67.90 150.42 66.76 147.29 C 65.93 144.04 66.99 140.15 67.79 136.96 C 68.15 141.58 69.33 145.13 72.54 148.53 C 72.57 145.10 72.39 141.76 72.57 138.34 C 75.39 137.70 77.22 137.66 79.98 138.59 C 80.56 140.07 81.12 141.64 81.94 143.01 C 83.37 145.15 86.07 146.38 87.48 148.52 C 87.93 149.97 88.17 151.51 88.44 153.00 C 86.77 154.51 85.03 155.86 83.28 157.27 C 77.30 158.81 69.76 160.94 63.68 159.32 C 59.58 156.36 56.80 150.68 54.89 146.08 C 54.73 143.89 54.71 141.70 54.71 139.50 C 58.06 140.67 59.85 142.28 62.05 145.04 C 62.20 141.37 62.33 137.60 62.93 133.97 Z" fill="#b18a32" />
<path d="M 95.01 134.15 C 100.46 133.43 105.26 136.68 107.82 141.29 C 108.04 145.49 106.79 149.85 106.00 153.95 C 104.97 159.52 101.43 163.49 97.99 167.80 C 95.85 169.49 93.71 171.20 91.47 172.77 C 83.74 176.17 73.74 177.09 65.95 173.43 C 73.78 169.87 81.41 166.36 88.55 161.50 C 92.34 158.95 94.33 154.90 96.07 150.82 C 97.95 146.64 97.19 140.85 93.10 138.24 C 94.10 137.65 94.39 136.87 94.59 135.78 C 94.73 135.24 94.86 134.69 95.01 134.15 Z" fill="#d2c295" />
<path d="M 94.59 135.78 C 94.39 136.87 94.10 137.65 93.10 138.24 C 91.06 136.68 92.18 134.58 94.59 135.78 Z" fill="#9e8653" />
<path d="M 80.76 136.06 C 81.00 136.81 81.25 137.54 81.52 138.27 C 83.68 138.89 85.98 139.24 88.06 140.09 C 89.71 141.44 90.68 143.72 91.29 145.71 C 92.23 148.21 89.76 151.04 88.44 153.00 C 88.17 151.51 87.93 149.97 87.48 148.52 C 86.07 146.38 83.37 145.15 81.94 143.01 C 81.12 141.64 80.56 140.07 79.98 138.59 C 80.25 137.75 80.51 136.91 80.76 136.06 Z" fill="#d2bf92" />
<path d="M 197.63 136.49 C 199.85 139.34 201.33 141.98 201.71 145.63 C 200.75 148.89 199.45 152.22 200.26 155.65 C 201.03 158.91 202.45 162.04 203.54 165.20 C 202.37 166.53 201.14 167.79 199.88 169.02 C 198.74 165.69 197.36 162.50 195.75 159.36 C 194.34 153.62 193.98 147.77 194.15 141.88 C 194.92 145.55 195.42 149.09 197.53 152.30 C 197.90 147.01 197.20 141.77 197.63 136.49 Z" fill="#a98f29" />
<path d="M 181.37 138.86 C 182.25 139.89 183.13 140.93 184.01 141.96 C 180.69 147.25 176.53 151.77 171.68 155.69 C 165.99 160.26 160.98 165.54 156.33 171.15 C 157.07 171.43 157.80 171.71 158.54 172.00 L 159.22 172.57 C 155.87 173.72 152.59 174.80 149.54 176.65 C 147.29 177.85 145.79 179.47 143.07 178.99 C 140.37 178.03 137.94 176.81 135.13 178.28 C 132.56 179.85 129.87 181.97 127.83 184.20 C 127.53 187.28 129.86 186.07 131.86 185.94 C 134.78 185.23 137.64 183.86 140.44 182.77 C 140.56 186.60 136.51 189.31 133.73 191.30 C 131.95 191.14 130.19 190.46 128.49 189.95 C 128.52 194.04 128.96 198.03 129.61 202.05 C 127.39 200.91 124.57 199.96 123.38 197.62 C 121.48 194.01 120.15 190.09 118.40 186.39 C 119.51 186.59 120.32 187.08 121.36 186.34 C 124.00 184.51 126.04 181.50 127.97 178.96 C 127.02 176.87 126.04 174.80 125.07 172.72 C 119.28 175.11 119.13 179.95 118.34 185.40 C 117.88 183.15 118.89 181.27 115.94 180.84 C 115.71 185.30 115.65 189.76 115.18 194.21 C 114.03 193.21 112.89 192.21 111.76 191.20 C 111.92 189.36 112.26 187.54 112.84 185.78 C 115.89 180.61 116.41 174.50 119.70 169.35 C 122.16 166.66 123.94 163.54 126.11 160.64 C 127.11 161.96 128.10 163.28 129.08 164.61 C 133.78 162.96 138.13 160.61 142.70 158.67 C 145.65 157.41 148.31 158.21 151.35 157.84 C 153.49 157.48 155.55 156.56 157.67 156.10 C 160.53 155.52 163.67 156.23 166.46 155.46 C 168.63 154.17 170.30 151.81 171.87 149.87 C 174.81 146.01 177.95 142.31 181.37 138.86 Z" fill="#aec06e" />
<path d="M 218.21 140.65 C 219.32 143.91 219.82 146.77 219.66 150.22 C 218.88 148.08 218.16 145.94 217.62 143.73 C 217.82 142.70 218.02 141.68 218.21 140.65 Z" fill="#dac992" />
<path d="M 26.48 143.33 C 25.88 146.55 25.48 149.82 25.06 153.06 C 24.69 155.62 25.40 158.04 25.29 160.57 C 24.86 161.87 24.18 163.10 23.57 164.32 C 22.60 163.57 21.64 162.81 20.67 162.05 C 21.15 159.52 21.92 157.14 22.93 154.78 C 24.52 151.06 25.11 147.12 26.48 143.33 Z" fill="#989aa0" />
<path d="M 154.27 146.47 C 149.85 149.46 144.08 147.11 138.82 147.22 C 143.66 144.07 148.91 145.79 154.27 146.47 Z" fill="#4d5d50" />
<path d="M 201.71 145.63 C 203.61 148.01 205.98 151.08 208.91 152.20 C 210.48 151.60 211.94 150.56 213.37 149.66 C 211.02 155.44 207.58 160.49 203.54 165.20 C 202.45 162.04 201.03 158.91 200.26 155.65 C 199.45 152.22 200.75 148.89 201.71 145.63 Z" fill="#bfa256" />
<path d="M 133.89 146.64 C 134.80 146.97 135.70 147.31 136.60 147.66 C 136.12 148.29 135.63 148.91 135.15 149.54 C 130.92 150.74 126.96 152.55 122.63 153.42 C 126.14 150.68 130.03 148.80 133.89 146.64 Z" fill="#414e4f" />
<path d="M 135.15 149.54 C 135.52 149.78 135.88 150.03 136.25 150.27 C 134.72 151.81 133.37 153.47 132.07 155.21 C 130.40 157.50 128.22 158.82 126.11 160.64 C 123.94 163.54 122.16 166.66 119.70 169.35 C 120.09 167.93 120.52 166.48 120.67 165.02 C 120.11 162.73 118.44 160.43 118.42 158.08 C 119.32 156.70 120.41 155.44 121.53 154.24 C 121.89 153.96 122.26 153.69 122.63 153.42 C 126.96 152.55 130.92 150.74 135.15 149.54 Z" fill="#c4dec1" />
<path d="M 220.36 151.20 C 221.69 153.25 222.96 155.35 224.11 157.50 C 224.76 158.80 225.37 160.12 225.99 161.42 C 224.36 166.80 223.15 171.97 219.46 176.41 C 219.31 172.14 218.81 167.91 217.65 163.79 C 216.95 168.28 216.70 172.54 214.74 176.72 C 212.56 181.48 210.43 186.29 207.96 190.91 C 204.34 195.35 203.17 199.59 203.74 205.30 C 204.22 210.98 207.03 215.19 209.91 219.89 C 209.31 220.36 208.72 220.83 208.13 221.30 C 207.35 220.79 206.58 220.28 205.82 219.75 C 205.13 217.77 204.46 215.99 202.82 214.61 C 199.87 205.22 198.33 195.50 199.41 185.66 C 198.54 186.43 197.66 187.19 196.79 187.96 C 197.14 184.38 198.60 181.29 200.65 178.39 C 201.42 180.77 203.86 179.17 205.22 178.25 C 209.96 174.31 211.82 166.83 214.41 161.39 C 215.32 160.94 216.45 160.87 216.90 159.86 C 218.33 157.12 219.18 154.06 220.36 151.20 Z" fill="#91a93d" />
<path d="M 186.07 151.77 C 188.47 154.29 190.86 156.60 193.97 158.24 C 194.57 158.61 195.16 158.98 195.75 159.36 C 197.36 162.50 198.74 165.69 199.88 169.02 C 199.31 171.38 199.07 173.78 198.94 176.20 C 200.24 174.74 201.51 173.25 202.73 171.72 C 202.92 172.83 203.10 173.93 203.28 175.04 C 202.36 176.12 201.47 177.23 200.65 178.39 C 198.60 181.29 197.14 184.38 196.79 187.96 C 196.74 189.26 196.72 190.57 196.71 191.87 C 195.67 195.99 193.19 198.94 195.05 203.27 C 194.42 203.87 193.79 204.47 193.16 205.08 C 192.13 202.42 191.07 199.84 189.30 197.58 C 190.56 194.20 192.55 190.50 192.70 186.85 C 192.27 183.17 190.83 179.58 189.94 175.98 C 191.15 177.36 192.36 178.74 193.58 180.11 C 194.29 177.54 195.32 174.68 195.16 172.00 C 193.11 169.14 189.41 167.23 186.50 165.30 C 186.04 168.43 185.66 171.58 185.24 174.72 C 182.37 174.28 179.50 173.84 176.64 173.39 C 176.85 172.78 177.06 172.16 177.26 171.54 C 176.38 170.82 175.49 170.11 174.59 169.41 C 178.45 165.90 182.38 162.82 186.88 160.18 C 184.23 161.47 181.59 162.77 178.96 164.10 C 175.47 165.74 172.86 169.03 170.53 172.01 C 167.32 171.42 164.11 170.91 160.85 170.67 C 165.70 167.81 170.63 165.52 175.21 162.21 C 179.40 159.29 182.79 155.66 186.07 151.77 Z" fill="#cde0b2" />
<path d="M 121.53 154.24 C 120.41 155.44 119.32 156.70 118.42 158.08 C 118.44 160.43 120.11 162.73 120.67 165.02 C 120.52 166.48 120.09 167.93 119.70 169.35 C 116.41 174.50 115.89 180.61 112.84 185.78 C 111.93 184.06 111.02 182.33 110.16 180.57 C 107.50 173.40 107.65 164.62 114.19 159.59 C 116.65 157.82 119.15 156.12 121.53 154.24 Z" fill="#1d1f3e" />
<path d="M 214.76 157.03 C 214.66 158.49 214.54 159.94 214.41 161.39 C 211.82 166.83 209.96 174.31 205.22 178.25 C 203.86 179.17 201.42 180.77 200.65 178.39 C 201.47 177.23 202.36 176.12 203.28 175.04 C 205.51 172.58 207.77 170.41 209.64 167.62 C 211.78 164.44 213.23 160.56 214.76 157.03 Z" fill="#1b1e31" />
<path d="M 186.88 160.18 C 182.38 162.82 178.45 165.90 174.59 169.41 C 170.84 172.28 169.88 176.59 167.72 180.75 C 164.00 188.04 163.72 196.95 165.02 204.88 C 165.91 210.76 171.65 213.73 176.81 215.21 C 180.87 215.68 184.89 215.49 188.95 215.06 C 189.58 215.69 190.21 216.31 190.85 216.93 C 190.86 217.85 190.86 218.76 190.87 219.68 C 189.32 219.87 187.77 220.07 186.22 220.25 C 181.62 220.41 177.43 219.78 173.07 218.37 C 166.19 214.66 163.47 207.42 162.63 200.05 C 162.40 195.54 162.27 190.75 163.37 186.33 C 164.87 181.24 167.50 176.36 170.53 172.01 C 172.86 169.03 175.47 165.74 178.96 164.10 C 181.59 162.77 184.23 161.47 186.88 160.18 Z" fill="#1c203b" />
<path d="M 232.68 159.78 C 231.95 162.74 231.62 165.70 231.59 168.75 C 230.39 172.38 228.99 175.97 227.27 179.38 C 225.61 182.72 222.80 184.69 220.18 187.20 C 220.85 184.31 220.77 181.68 222.90 179.42 C 225.38 176.82 225.44 173.76 226.45 170.51 C 227.33 167.38 229.04 164.87 230.89 162.25 C 231.49 161.43 232.09 160.60 232.68 159.78 Z" fill="#a8a44f" />
<path d="M 225.99 161.42 C 227.63 161.66 229.26 161.96 230.89 162.25 C 229.04 164.87 227.33 167.38 226.45 170.51 C 225.44 173.76 225.38 176.82 222.90 179.42 C 220.77 181.68 220.85 184.31 220.18 187.20 L 219.89 187.90 C 218.58 189.66 217.20 191.35 215.62 192.88 C 215.07 193.32 214.52 193.75 213.97 194.19 C 215.89 188.20 217.30 182.22 219.46 176.41 C 223.15 171.97 224.36 166.80 225.99 161.42 Z" fill="#873b13" />
<path d="M 217.65 163.79 C 218.81 167.91 219.31 172.14 219.46 176.41 C 217.30 182.22 215.89 188.20 213.97 194.19 C 213.53 195.50 213.07 196.81 212.66 198.13 C 212.04 201.22 211.28 205.39 212.76 208.29 C 214.81 211.17 218.83 212.77 222.08 213.85 C 224.00 214.47 225.93 215.05 227.85 215.65 C 231.41 217.09 233.51 219.71 235.88 222.56 C 233.38 222.90 230.89 223.20 228.40 223.57 C 222.49 222.20 217.05 220.90 213.09 215.92 C 207.46 208.37 207.37 199.93 207.96 190.91 C 210.43 186.29 212.56 181.48 214.74 176.72 C 216.70 172.54 216.95 168.28 217.65 163.79 Z" fill="#1f203c" />
<path d="M 56.60 165.07 C 57.77 165.61 58.60 166.87 59.51 167.76 C 56.32 168.04 53.88 166.66 51.00 165.63 C 52.79 165.20 54.76 164.87 56.60 165.07 Z" fill="#b49754" />
<path d="M 186.50 165.30 C 189.41 167.23 193.11 169.14 195.16 172.00 C 195.32 174.68 194.29 177.54 193.58 180.11 C 192.36 178.74 191.15 177.36 189.94 175.98 C 190.83 179.58 192.27 183.17 192.70 186.85 C 192.55 190.50 190.56 194.20 189.30 197.58 C 185.96 194.58 182.86 191.88 182.80 187.00 C 182.50 183.72 185.76 181.42 187.73 179.18 C 186.90 177.69 186.07 176.20 185.24 174.72 C 185.66 171.58 186.04 168.43 186.50 165.30 Z" fill="#b8da9e" />
<path d="M 51.00 165.63 C 53.88 166.66 56.32 168.04 59.51 167.76 C 61.49 169.84 63.65 171.72 65.95 173.43 C 73.74 177.09 83.74 176.17 91.47 172.77 C 92.19 175.97 90.48 178.20 87.41 179.12 C 82.92 180.02 78.37 180.26 73.96 181.61 C 76.02 183.11 77.99 184.69 79.82 186.47 C 79.03 187.27 78.25 188.06 77.47 188.86 C 83.74 191.12 89.88 192.38 96.50 193.14 C 86.77 194.51 76.25 194.16 66.88 191.06 C 61.73 188.36 56.65 184.08 52.74 179.79 C 50.00 175.94 47.59 172.05 46.68 167.34 C 48.11 166.76 49.54 166.12 51.00 165.63 Z" fill="#a77a15" />
<path d="M 46.68 167.34 C 47.59 172.05 50.00 175.94 52.74 179.79 C 51.93 180.33 51.12 180.88 50.31 181.42 C 51.86 183.63 53.39 185.80 55.21 187.81 C 58.89 191.93 63.59 194.84 67.29 198.97 C 64.57 198.14 61.87 197.21 59.23 196.13 C 56.37 191.74 51.46 190.90 49.52 185.92 C 49.21 184.47 48.86 183.09 48.83 181.60 C 49.30 176.73 44.35 173.41 43.79 168.39 C 44.75 168.05 45.72 167.70 46.68 167.34 Z" fill="#ccbc8e" />
<path d="M 97.99 167.80 C 98.88 168.21 99.76 168.63 100.64 169.06 C 99.43 171.54 98.25 174.03 97.14 176.55 C 98.65 176.21 100.15 175.86 101.65 175.51 C 102.81 179.38 103.77 183.29 104.63 187.23 C 103.62 188.70 102.73 190.30 101.57 191.64 C 100.18 192.64 98.15 192.85 96.50 193.14 C 89.88 192.38 83.74 191.12 77.47 188.86 C 78.25 188.06 79.03 187.27 79.82 186.47 C 77.99 184.69 76.02 183.11 73.96 181.61 C 78.37 180.26 82.92 180.02 87.41 179.12 C 90.48 178.20 92.19 175.97 91.47 172.77 C 93.71 171.20 95.85 169.49 97.99 167.80 Z" fill="#b0882c" />
<path d="M 231.59 168.75 C 233.24 172.25 234.30 174.27 232.89 178.13 L 232.87 176.32 C 230.65 180.45 229.20 184.88 227.12 189.08 C 225.11 193.28 223.20 197.15 223.43 201.96 C 223.45 202.91 223.47 203.87 223.50 204.82 C 222.71 205.04 221.92 205.26 221.14 205.48 C 220.42 204.90 219.70 204.34 218.97 203.78 C 218.75 201.04 218.55 198.29 218.45 195.54 C 218.93 192.99 219.37 190.44 219.89 187.90 L 220.18 187.20 C 222.80 184.69 225.61 182.72 227.27 179.38 C 228.99 175.97 230.39 172.38 231.59 168.75 Z" fill="#ecefd8" />
<path d="M 174.59 169.41 C 175.49 170.11 176.38 170.82 177.26 171.54 C 177.06 172.16 176.85 172.78 176.64 173.39 C 172.24 181.83 168.60 191.46 168.08 201.03 C 167.44 205.70 172.17 209.04 175.31 211.71 C 178.40 214.38 181.74 214.06 185.55 214.60 C 182.66 215.12 179.75 215.35 176.81 215.21 C 171.65 213.73 165.91 210.76 165.02 204.88 C 163.72 196.95 164.00 188.04 167.72 180.75 C 169.88 176.59 170.84 172.28 174.59 169.41 Z" fill="#eaeadd" />
<path d="M 160.85 170.67 C 164.11 170.91 167.32 171.42 170.53 172.01 C 167.50 176.36 164.87 181.24 163.37 186.33 C 162.27 190.75 162.40 195.54 162.63 200.05 C 163.47 207.42 166.19 214.66 173.07 218.37 C 169.55 218.19 167.89 218.49 165.22 220.94 C 161.41 219.09 157.93 218.66 153.77 219.38 C 152.99 221.43 153.76 224.53 150.90 224.74 C 149.50 223.69 148.23 222.47 146.95 221.28 C 146.84 222.08 146.73 222.89 146.62 223.69 C 145.76 224.11 144.91 224.54 144.06 224.98 C 141.36 226.46 138.91 228.56 136.79 230.79 C 140.45 232.59 144.37 232.17 147.20 229.12 C 148.00 228.37 148.80 227.63 149.60 226.89 C 151.53 229.86 148.05 230.99 146.23 232.68 C 150.47 230.72 154.72 230.65 159.26 231.35 L 158.07 232.92 C 162.80 233.12 167.54 233.06 172.27 233.35 C 171.14 234.51 169.98 235.81 168.63 236.70 C 166.84 237.05 164.80 236.35 162.99 236.17 C 159.39 235.42 156.27 237.33 152.71 236.35 C 150.27 235.61 147.56 237.90 145.00 237.11 C 140.86 235.94 136.62 236.32 132.53 234.93 C 131.45 236.52 130.36 238.11 129.25 239.69 C 124.12 235.58 117.99 233.57 112.60 229.93 C 117.22 229.38 122.82 230.84 127.06 228.91 C 122.48 228.54 117.83 228.90 113.23 228.84 C 105.74 228.88 98.13 228.06 90.88 226.13 C 89.43 224.87 88.07 223.52 86.61 222.27 C 87.16 221.39 87.72 220.50 88.28 219.62 C 92.48 220.70 96.55 221.20 100.72 219.68 C 106.37 217.66 111.92 216.33 116.35 212.25 C 111.21 211.74 106.52 209.96 101.54 208.85 C 96.79 209.43 92.76 211.76 87.70 211.10 C 89.06 210.46 90.43 209.83 91.80 209.23 C 90.36 209.11 88.93 208.96 87.49 208.75 C 85.02 208.18 83.03 208.11 80.51 208.44 L 79.99 207.95 C 78.17 206.14 76.50 204.42 73.94 203.69 C 69.68 202.12 65.73 203.37 62.33 200.75 C 60.49 199.65 59.94 198.01 59.23 196.13 C 61.87 197.21 64.57 198.14 67.29 198.97 C 63.59 194.84 58.89 191.93 55.21 187.81 C 53.39 185.80 51.86 183.63 50.31 181.42 C 51.12 180.88 51.93 180.33 52.74 179.79 C 56.65 184.08 61.73 188.36 66.88 191.06 C 76.25 194.16 86.77 194.51 96.50 193.14 C 98.15 192.85 100.18 192.64 101.57 191.64 C 102.73 190.30 103.62 188.70 104.63 187.23 C 106.28 184.91 108.29 182.74 110.16 180.57 C 111.02 182.33 111.93 184.06 112.84 185.78 C 112.26 187.54 111.92 189.36 111.76 191.20 C 112.55 196.70 112.86 201.84 116.22 206.54 C 115.65 207.49 115.05 208.42 114.48 209.37 C 116.10 210.33 117.31 211.74 119.35 211.31 C 123.73 211.03 127.34 207.63 131.60 208.07 C 136.56 208.32 141.44 208.17 146.15 206.45 C 149.02 205.36 152.51 205.97 154.20 203.20 C 157.26 198.83 159.31 193.40 159.02 188.00 C 158.83 184.03 159.87 180.34 160.40 176.46 C 160.65 174.92 159.86 173.88 159.22 172.57 L 158.54 172.00 C 159.30 171.55 160.07 171.10 160.85 170.67 Z" fill="#e9e6d9" />
<path d="M 24.84 172.86 C 25.70 173.70 26.60 174.55 27.33 175.50 C 27.88 177.81 27.38 180.46 27.34 182.82 C 26.52 184.61 25.58 186.34 24.60 188.05 C 24.03 182.94 25.38 177.99 24.84 172.86 Z" fill="#a0a0ab" />
<path d="M 125.07 172.72 C 126.04 174.80 127.02 176.87 127.97 178.96 C 126.04 181.50 124.00 184.51 121.36 186.34 C 120.32 187.08 119.51 186.59 118.40 186.39 L 118.34 185.40 C 119.13 179.95 119.28 175.11 125.07 172.72 Z" fill="#20223d" />
<path d="M 159.22 172.57 C 159.86 173.88 160.65 174.92 160.40 176.46 C 159.87 180.34 158.83 184.03 159.02 188.00 C 159.31 193.40 157.26 198.83 154.20 203.20 C 152.51 205.97 149.02 205.36 146.15 206.45 C 141.44 208.17 136.56 208.32 131.60 208.07 C 127.34 207.63 123.73 211.03 119.35 211.31 C 117.31 211.74 116.10 210.33 114.48 209.37 C 115.05 208.42 115.65 207.49 116.22 206.54 C 112.86 201.84 112.55 196.70 111.76 191.20 C 112.89 192.21 114.03 193.21 115.18 194.21 C 115.65 189.76 115.71 185.30 115.94 180.84 C 118.89 181.27 117.88 183.15 118.34 185.40 L 118.40 186.39 C 120.15 190.09 121.48 194.01 123.38 197.62 C 124.57 199.96 127.39 200.91 129.61 202.05 C 128.96 198.03 128.52 194.04 128.49 189.95 C 130.19 190.46 131.95 191.14 133.73 191.30 C 136.51 189.31 140.56 186.60 140.44 182.77 C 141.32 181.51 142.21 180.26 143.07 178.99 C 145.79 179.47 147.29 177.85 149.54 176.65 C 152.59 174.80 155.87 173.72 159.22 172.57 Z" fill="#e2e0be" />
<path d="M 185.24 174.72 C 186.07 176.20 186.90 177.69 187.73 179.18 C 185.76 181.42 182.50 183.72 182.80 187.00 C 182.86 191.88 185.96 194.58 189.30 197.58 C 191.07 199.84 192.13 202.42 193.16 205.08 C 193.79 204.47 194.42 203.87 195.05 203.27 C 195.95 205.02 196.91 206.71 198.08 208.29 C 194.33 210.43 194.04 214.57 190.85 216.93 C 190.21 216.31 189.58 215.69 188.95 215.06 C 184.89 215.49 180.87 215.68 176.81 215.21 C 179.75 215.35 182.66 215.12 185.55 214.60 C 181.74 214.06 178.40 214.38 175.31 211.71 C 172.17 209.04 167.44 205.70 168.08 201.03 C 168.60 191.46 172.24 181.83 176.64 173.39 C 179.50 173.84 182.37 174.28 185.24 174.72 Z" fill="#b1e0ab" />
<path d="M 232.87 176.32 L 232.89 178.13 C 231.94 183.24 231.94 188.07 230.10 192.96 C 228.72 196.64 228.45 200.34 228.52 204.24 C 227.86 204.84 227.20 205.44 226.53 206.04 C 225.38 204.77 224.30 203.45 223.43 201.96 C 223.20 197.15 225.11 193.28 227.12 189.08 C 229.20 184.88 230.65 180.45 232.87 176.32 Z" fill="#7a3006" />
<path d="M 143.07 178.99 C 142.21 180.26 141.32 181.51 140.44 182.77 C 137.64 183.86 134.78 185.23 131.86 185.94 C 129.86 186.07 127.53 187.28 127.83 184.20 C 129.87 181.97 132.56 179.85 135.13 178.28 C 137.94 176.81 140.37 178.03 143.07 178.99 Z" fill="#1f243e" />
<path d="M 27.34 182.82 C 28.31 186.00 29.00 188.94 31.78 191.07 C 34.73 193.45 36.89 195.75 39.00 198.91 C 36.71 197.69 34.19 196.98 31.88 195.81 C 30.54 194.21 29.78 192.13 28.50 190.46 C 27.43 189.41 25.92 188.74 24.60 188.05 C 25.58 186.34 26.52 184.61 27.34 182.82 Z" fill="#414758" />
<path d="M 49.52 185.92 C 51.46 190.90 56.37 191.74 59.23 196.13 C 59.94 198.01 60.49 199.65 62.33 200.75 C 65.73 203.37 69.68 202.12 73.94 203.69 C 76.50 204.42 78.17 206.14 79.99 207.95 C 78.69 208.29 77.38 208.58 76.10 209.01 C 74.80 207.74 73.53 206.49 72.10 205.37 C 71.05 204.83 69.89 203.51 68.66 204.20 C 66.67 204.93 64.78 206.05 62.90 207.04 C 59.15 202.99 53.13 199.67 51.41 194.40 C 50.16 191.66 49.68 188.91 49.52 185.92 Z" fill="#898990" />
<path d="M 199.41 185.66 C 198.33 195.50 199.87 205.22 202.82 214.61 C 202.82 216.23 202.78 217.86 202.69 219.49 C 201.33 216.51 200.69 213.38 199.83 210.24 C 198.54 204.09 197.21 198.16 196.71 191.87 C 196.72 190.57 196.74 189.26 196.79 187.96 C 197.66 187.19 198.54 186.43 199.41 185.66 Z" fill="#5b6f33" />
<path d="M 24.60 188.05 C 25.92 188.74 27.43 189.41 28.50 190.46 C 29.78 192.13 30.54 194.21 31.88 195.81 C 34.19 196.98 36.71 197.69 39.00 198.91 C 40.45 200.91 41.83 202.96 43.31 204.95 C 42.40 206.06 41.47 207.16 40.59 208.31 C 44.81 208.53 48.73 209.54 52.40 211.67 C 49.58 212.13 46.22 213.03 43.39 212.35 C 40.52 211.04 37.55 208.85 36.18 205.92 C 34.94 203.42 33.96 200.78 32.91 198.20 C 31.58 198.45 30.26 198.70 28.93 198.95 C 26.52 195.54 24.50 192.40 24.60 188.05 Z" fill="#9d9ea8" />
<path d="M 219.89 187.90 C 219.37 190.44 218.93 192.99 218.45 195.54 C 217.72 197.48 216.94 199.39 216.25 201.35 C 215.88 198.52 215.69 195.73 215.62 192.88 C 217.20 191.35 218.58 189.66 219.89 187.90 Z" fill="#bdb97b" />
<path d="M 207.96 190.91 C 207.37 199.93 207.46 208.37 213.09 215.92 C 217.05 220.90 222.49 222.20 228.40 223.57 C 222.09 226.05 214.09 223.93 208.13 221.30 C 208.72 220.83 209.31 220.36 209.91 219.89 C 207.03 215.19 204.22 210.98 203.74 205.30 C 203.17 199.59 204.34 195.35 207.96 190.91 Z" fill="#8d240e" />
<path d="M 196.71 191.87 C 197.21 198.16 198.54 204.09 199.83 210.24 C 199.25 209.59 198.67 208.94 198.08 208.29 C 196.91 206.71 195.95 205.02 195.05 203.27 C 193.19 198.94 195.67 195.99 196.71 191.87 Z" fill="#b0c777" />
<path d="M 215.62 192.88 C 215.69 195.73 215.88 198.52 216.25 201.35 C 216.35 202.36 216.46 203.38 216.58 204.39 C 215.21 202.35 213.87 200.28 212.66 198.13 C 213.07 196.81 213.53 195.50 213.97 194.19 C 214.52 193.75 215.07 193.32 215.62 192.88 Z" fill="#988944" />
<path d="M 218.45 195.54 C 218.55 198.29 218.75 201.04 218.97 203.78 C 219.70 204.34 220.42 204.90 221.14 205.48 C 221.92 205.26 222.71 205.04 223.50 204.82 C 223.47 203.87 223.45 202.91 223.43 201.96 C 224.30 203.45 225.38 204.77 226.53 206.04 C 227.20 205.44 227.86 204.84 228.52 204.24 C 230.13 205.59 231.82 206.84 233.54 208.08 C 233.51 208.85 233.50 209.63 233.48 210.41 C 231.75 210.84 229.97 211.42 228.20 211.59 C 225.32 210.55 222.48 209.42 219.52 208.60 C 218.45 207.26 217.50 205.84 216.58 204.39 C 216.46 203.38 216.35 202.36 216.25 201.35 C 216.94 199.39 217.72 197.48 218.45 195.54 Z" fill="#4b4344" />
<path d="M 212.66 198.13 C 213.87 200.28 215.21 202.35 216.58 204.39 C 217.50 205.84 218.45 207.26 219.52 208.60 C 220.31 209.56 221.10 210.51 221.90 211.45 C 221.96 212.25 222.02 213.05 222.08 213.85 C 218.83 212.77 214.81 211.17 212.76 208.29 C 211.28 205.39 212.04 201.22 212.66 198.13 Z" fill="#891a0b" />
<path d="M 72.10 205.37 C 73.53 206.49 74.80 207.74 76.10 209.01 C 75.40 209.74 74.71 210.49 74.03 211.24 C 70.63 210.86 69.00 210.17 66.41 207.98 C 68.21 206.81 70.00 205.87 72.10 205.37 Z" fill="#f4f5df" />
<path d="M 87.49 208.75 C 86.65 210.00 85.80 211.24 84.93 212.48 L 83.90 213.96 C 84.93 215.31 86.04 216.59 87.08 217.92 C 87.48 218.49 87.88 219.05 88.28 219.62 C 87.72 220.50 87.16 221.39 86.61 222.27 C 84.31 220.53 81.86 218.98 79.45 217.39 C 81.34 215.63 82.94 213.84 84.03 211.48 C 82.84 210.48 81.65 209.50 80.51 208.44 C 83.03 208.11 85.02 208.18 87.49 208.75 Z" fill="#818084" />
<path d="M 79.99 207.95 L 80.51 208.44 C 81.65 209.50 82.84 210.48 84.03 211.48 C 82.94 213.84 81.34 215.63 79.45 217.39 C 81.86 218.98 84.31 220.53 86.61 222.27 C 88.07 223.52 89.43 224.87 90.88 226.13 C 86.10 224.83 81.76 222.83 77.27 220.79 C 76.50 217.47 75.48 214.32 74.03 211.24 C 74.71 210.49 75.40 209.74 76.10 209.01 C 77.38 208.58 78.69 208.29 79.99 207.95 Z" fill="#626273" />
<path d="M 101.54 208.85 C 106.52 209.96 111.21 211.74 116.35 212.25 C 111.92 216.33 106.37 217.66 100.72 219.68 C 96.55 221.20 92.48 220.70 88.28 219.62 C 87.88 219.05 87.48 218.49 87.08 217.92 C 88.25 218.04 89.41 218.16 90.58 218.27 C 88.99 216.01 87.26 214.01 84.93 212.48 C 85.80 211.24 86.65 210.00 87.49 208.75 C 88.93 208.96 90.36 209.11 91.80 209.23 C 90.43 209.83 89.06 210.46 87.70 211.10 C 92.76 211.76 96.79 209.43 101.54 208.85 Z" fill="#d0c195" />
<path d="M 228.20 211.59 C 226.09 211.82 224.00 211.65 221.90 211.45 C 221.10 210.51 220.31 209.56 219.52 208.60 C 222.48 209.42 225.32 210.55 228.20 211.59 Z" fill="#c6ad9c" />
<path d="M 198.08 208.29 C 198.67 208.94 199.25 209.59 199.83 210.24 C 200.69 213.38 201.33 216.51 202.69 219.49 C 202.78 217.86 202.82 216.23 202.82 214.61 C 204.46 215.99 205.13 217.77 205.82 219.75 C 205.18 220.14 204.55 220.54 203.92 220.95 C 202.42 223.00 201.83 225.09 199.19 225.93 C 193.32 227.94 187.26 229.04 181.05 228.28 C 176.55 227.51 171.42 229.09 168.59 224.78 C 176.31 224.95 183.06 226.26 190.13 222.19 C 186.71 221.88 183.28 221.70 179.85 221.48 C 181.97 221.03 184.08 220.58 186.22 220.25 C 187.77 220.07 189.32 219.87 190.87 219.68 C 190.86 218.76 190.86 217.85 190.85 216.93 C 194.04 214.57 194.33 210.43 198.08 208.29 Z" fill="#d2e9ca" />
<path d="M 233.48 210.41 C 233.99 211.67 234.51 212.92 235.01 214.18 C 232.65 214.83 230.30 215.44 227.85 215.65 C 225.93 215.05 224.00 214.47 222.08 213.85 C 222.02 213.05 221.96 212.25 221.90 211.45 C 224.00 211.65 226.09 211.82 228.20 211.59 C 229.97 211.42 231.75 210.84 233.48 210.41 Z" fill="#945744" />
<path d="M 84.93 212.48 C 87.26 214.01 88.99 216.01 90.58 218.27 C 89.41 218.16 88.25 218.04 87.08 217.92 C 86.04 216.59 84.93 215.31 83.90 213.96 L 84.93 212.48 Z" fill="#e5e2d4" />
<path d="M 173.07 218.37 C 177.43 219.78 181.62 220.41 186.22 220.25 C 184.08 220.58 181.97 221.03 179.85 221.48 C 183.28 221.70 186.71 221.88 190.13 222.19 C 183.06 226.26 176.31 224.95 168.59 224.78 C 167.46 223.50 166.36 222.20 165.22 220.94 C 167.89 218.49 169.55 218.19 173.07 218.37 Z" fill="#b8d6b2" />
<path d="M 165.22 220.94 C 166.36 222.20 167.46 223.50 168.59 224.78 C 171.42 229.09 176.55 227.51 181.05 228.28 C 187.26 229.04 193.32 227.94 199.19 225.93 C 201.83 225.09 202.42 223.00 203.92 220.95 C 205.97 222.80 207.31 224.51 208.48 227.03 C 205.73 227.94 202.96 228.55 200.11 229.04 C 196.63 229.65 193.42 231.18 189.95 231.73 C 187.19 232.09 184.85 231.16 182.40 230.02 C 183.03 230.74 183.65 231.46 184.26 232.18 C 175.93 231.92 167.61 231.39 159.26 231.35 C 154.72 230.65 150.47 230.72 146.23 232.68 C 148.05 230.99 151.53 229.86 149.60 226.89 C 148.80 227.63 148.00 228.37 147.20 229.12 C 147.41 227.75 147.61 226.39 147.82 225.02 C 146.57 224.99 145.31 224.98 144.06 224.98 C 144.91 224.54 145.76 224.11 146.62 223.69 C 146.73 222.89 146.84 222.08 146.95 221.28 C 148.23 222.47 149.50 223.69 150.90 224.74 C 153.76 224.53 152.99 221.43 153.77 219.38 C 157.93 218.66 161.41 219.09 165.22 220.94 Z" fill="#1f203c" />
<path d="M 144.06 224.98 C 145.31 224.98 146.57 224.99 147.82 225.02 C 147.61 226.39 147.41 227.75 147.20 229.12 C 144.37 232.17 140.45 232.59 136.79 230.79 C 138.91 228.56 141.36 226.46 144.06 224.98 Z" fill="#242138" />
</svg>