<?xml version="1.0" encoding="UTF-8" standalone="no"?>
<!DOCTYPE svg PUBLIC "-//W3C//DTD SVG 1.1//EN" "http://www.w3.org/Graphics/SVG/1.1/DTD/svg11.dtd">
<svg xmlns="http://www.w3.org/2000/svg" version="1.1" viewBox="0 0 256 256" width="256.0pt" height="256.0pt">
<path d="M 0.00 0.00 L 256.00 0.00 L 256.00 256.00 L 0.00 256.00 L 0.00 0.00 Z" fill="#fefefd" />
<path d="M 113.98 12.90 C 124.62 12.78 135.53 14.78 144.80 20.22 C 149.61 23.10 154.56 25.03 160.10 25.98 C 165.93 27.20 171.19 26.24 177.04 25.97 C 183.70 25.69 189.89 24.47 196.59 25.36 C 207.16 26.70 218.45 28.15 227.12 34.91 C 235.31 41.09 240.11 50.70 240.07 60.98 C 239.84 71.68 237.33 83.12 238.00 94.03 C 238.52 104.28 242.36 113.25 240.72 123.78 C 239.12 132.90 231.61 140.09 229.04 148.03 C 227.83 152.12 227.70 156.42 228.42 160.61 C 229.82 168.22 232.55 175.28 235.77 182.26 C 238.54 188.67 241.79 195.94 242.09 202.98 C 242.44 210.07 239.51 217.40 236.91 223.89 C 232.79 234.05 224.77 242.97 213.97 246.00 C 209.06 247.41 204.29 246.76 199.42 245.55 C 191.66 243.68 185.60 238.86 177.59 237.47 C 166.81 235.31 156.10 239.69 145.14 241.12 C 136.07 242.42 128.03 245.43 119.01 245.91 C 112.02 246.25 105.00 245.84 98.00 246.04 C 79.72 246.85 60.72 239.52 44.65 231.37 C 35.45 227.05 25.74 220.34 20.79 211.22 C 16.69 204.04 15.86 195.11 15.95 187.00 C 16.08 179.47 15.63 172.08 16.54 164.58 C 17.41 156.99 16.89 149.61 16.99 142.00 C 17.01 137.99 17.12 133.97 16.99 129.96 C 16.79 122.16 14.70 114.83 14.92 106.98 C 14.95 100.59 16.52 94.70 17.46 88.45 C 18.70 80.46 16.93 73.44 19.56 65.60 C 21.56 58.91 26.51 53.78 32.64 50.63 C 38.62 47.63 44.61 45.18 49.86 40.88 C 56.16 36.14 59.05 29.12 65.32 24.33 C 70.77 20.11 77.02 18.58 83.72 17.61 C 94.34 16.06 103.59 12.95 113.98 12.90 Z" fill="#f4f3f1" />
<path d="M 105.16 21.29 C 105.31 23.36 105.69 25.82 105.09 27.84 C 103.79 30.85 101.61 33.22 99.47 35.62 C 97.74 33.99 96.06 32.31 94.30 30.72 C 94.86 29.77 95.43 28.84 96.01 27.91 C 98.94 25.54 101.92 23.24 105.16 21.29 Z" fill="#20233d" />
<path d="M 137.32 23.65 C 138.43 24.47 137.77 26.77 137.78 28.00 C 135.77 26.52 133.76 25.01 131.67 23.63 C 133.48 23.26 135.92 21.81 137.32 23.65 Z" fill="#5e5e6b" />
<path d="M 131.67 23.63 C 133.76 25.01 135.77 26.52 137.78 28.00 C 136.36 29.79 134.84 31.51 133.32 33.21 C 126.96 35.49 120.47 35.81 113.84 36.60 C 115.57 34.23 117.56 32.13 119.74 30.16 C 118.74 29.82 117.75 29.48 116.75 29.15 C 121.45 26.76 126.78 25.64 131.67 23.63 Z" fill="#20233e" />
<path d="M 72.78 27.30 C 73.30 30.16 73.87 33.04 74.04 35.94 C 73.67 38.24 72.01 40.43 70.86 42.41 C 69.75 41.99 68.64 41.55 67.54 41.10 C 69.05 36.34 70.29 31.69 72.78 27.30 Z" fill="#1b1b34" />
<path d="M 96.01 27.91 C 95.43 28.84 94.86 29.77 94.30 30.72 C 92.60 33.07 92.25 35.37 91.93 38.17 C 91.99 40.07 89.23 40.37 87.89 41.08 C 85.76 41.44 83.63 41.75 81.51 42.10 C 82.20 40.96 82.82 39.76 83.44 38.58 C 82.65 38.73 81.86 38.90 81.08 39.08 C 86.55 35.83 90.87 31.62 96.01 27.91 Z" fill="#946a65" />
<path d="M 116.75 29.15 C 117.75 29.48 118.74 29.82 119.74 30.16 C 117.56 32.13 115.57 34.23 113.84 36.60 C 120.47 35.81 126.96 35.49 133.32 33.21 C 132.88 33.79 132.44 34.36 132.01 34.94 C 128.94 37.79 125.08 38.61 121.63 40.71 C 119.87 42.41 118.77 44.85 117.48 46.92 C 115.83 47.60 113.47 47.86 112.77 49.73 C 112.09 51.02 111.54 52.40 110.99 53.75 C 114.11 53.40 117.22 53.00 120.30 52.37 C 118.42 53.73 116.69 55.22 114.86 56.63 C 109.22 58.45 103.64 60.51 98.23 62.94 L 97.58 62.44 C 97.21 62.18 96.84 61.92 96.47 61.66 C 100.74 56.98 103.98 51.58 105.26 45.31 C 105.76 42.56 105.65 39.57 105.63 36.77 C 109.68 34.69 113.04 31.73 116.75 29.15 Z" fill="#88605c" />
<path d="M 139.60 28.81 C 141.24 33.49 141.88 37.06 139.89 41.84 C 138.80 42.52 137.73 43.23 136.66 43.96 C 134.82 45.15 133.22 46.63 131.72 48.22 C 134.24 47.25 136.33 45.98 138.41 44.28 C 139.21 44.43 140.01 44.57 140.80 44.71 C 140.88 45.37 140.96 46.03 141.04 46.69 C 139.11 47.56 137.26 48.58 135.45 49.69 L 133.54 49.98 C 131.75 49.93 129.68 49.47 127.93 49.97 C 124.77 51.29 122.31 54.53 119.38 56.31 C 118.05 56.90 116.29 56.55 114.86 56.63 C 116.69 55.22 118.42 53.73 120.30 52.37 C 124.85 49.49 129.60 46.73 133.79 43.34 C 135.52 41.81 137.13 40.37 138.12 38.24 C 139.56 35.13 139.31 32.14 139.60 28.81 Z" fill="#463d4b" />
<path d="M 94.30 30.72 C 96.06 32.31 97.74 33.99 99.47 35.62 C 99.03 36.34 98.63 37.08 98.27 37.83 C 100.57 38.50 103.39 37.35 105.63 36.77 C 105.65 39.57 105.76 42.56 105.26 45.31 C 103.98 51.58 100.74 56.98 96.47 61.66 C 96.84 61.92 97.21 62.18 97.58 62.44 C 95.24 64.27 93.25 66.40 91.26 68.59 C 90.49 69.40 89.70 70.19 88.91 70.97 C 88.67 72.03 88.46 73.09 88.23 74.15 C 86.41 75.50 85.26 76.77 84.33 78.86 C 83.53 79.50 82.73 80.14 81.92 80.78 C 80.07 79.73 78.13 78.09 76.02 77.67 C 74.47 77.78 72.91 78.27 71.41 78.66 C 68.64 78.89 65.81 78.85 63.07 78.39 C 61.99 78.03 60.93 77.62 59.85 77.25 C 55.67 79.13 52.48 81.90 48.49 84.14 C 45.12 85.53 41.65 86.64 38.07 87.35 C 40.43 82.31 42.17 77.02 44.82 72.10 C 47.12 73.27 49.60 74.91 52.28 74.71 C 59.49 73.99 65.71 70.83 71.35 66.43 C 76.40 63.57 80.72 59.86 84.79 55.73 C 85.93 54.59 86.68 53.22 87.39 51.79 C 89.70 46.92 94.67 43.50 97.99 39.23 C 94.64 39.96 91.27 40.56 87.89 41.08 C 89.23 40.37 91.99 40.07 91.93 38.17 C 92.25 35.37 92.60 33.07 94.30 30.72 Z" fill="#7a504d" />
<path d="M 132.01 34.94 C 133.78 35.51 135.49 36.23 137.21 36.94 C 136.12 39.09 135.04 41.28 133.79 43.34 C 129.60 46.73 124.85 49.49 120.30 52.37 C 117.22 53.00 114.11 53.40 110.99 53.75 C 111.54 52.40 112.09 51.02 112.77 49.73 C 113.47 47.86 115.83 47.60 117.48 46.92 C 118.77 44.85 119.87 42.41 121.63 40.71 C 125.08 38.61 128.94 37.79 132.01 34.94 Z" fill="#ad9691" />
<path d="M 155.83 36.50 C 157.63 37.56 159.36 38.75 161.17 39.80 L 161.80 40.11 C 158.57 41.76 156.79 44.50 154.72 47.33 C 154.06 48.16 153.36 48.96 152.63 49.74 C 151.40 50.31 150.16 50.83 148.90 51.36 C 143.08 54.11 137.12 57.16 132.25 61.43 C 130.52 62.68 128.80 63.95 127.10 65.24 C 125.96 66.12 124.85 67.04 123.69 67.90 C 122.51 68.62 121.27 69.24 120.03 69.85 C 121.60 65.79 123.92 62.01 126.46 58.50 C 129.00 54.98 132.97 53.28 135.45 49.69 C 137.26 48.58 139.11 47.56 141.04 46.69 C 147.17 44.35 153.03 44.07 157.81 38.99 C 155.84 38.61 153.87 38.25 151.87 38.02 C 153.19 37.49 154.49 36.96 155.83 36.50 Z" fill="#ae8c86" />
<path d="M 172.72 36.59 C 172.37 37.82 172.02 39.04 171.66 40.26 C 170.66 40.85 169.66 41.43 168.67 42.03 C 166.38 41.38 164.08 40.79 161.80 40.11 L 161.17 39.80 C 161.65 39.23 162.13 38.66 162.60 38.09 C 166.03 37.90 169.37 37.33 172.72 36.59 Z" fill="#8d8285" />
<path d="M 219.83 40.22 C 223.07 42.07 225.29 45.66 228.23 48.03 C 228.49 50.71 228.77 53.38 229.01 56.07 C 229.23 59.08 229.92 62.03 230.14 65.03 C 230.29 68.71 228.88 71.86 227.51 75.16 C 225.95 76.44 224.37 77.68 222.81 78.95 C 217.48 76.42 211.63 74.33 205.80 73.45 C 203.05 72.99 200.78 73.79 198.51 75.27 C 199.99 72.16 198.17 69.95 196.79 67.22 C 201.00 69.50 206.12 72.48 211.00 72.39 C 215.24 72.34 218.71 69.29 220.88 65.89 C 222.50 63.16 224.21 59.96 223.31 56.70 C 222.26 52.39 220.46 47.92 217.04 44.96 C 213.81 42.08 210.03 39.80 206.59 37.19 C 211.77 35.54 215.35 38.07 219.83 40.22 Z" fill="#663b37" />
<path d="M 151.87 38.02 C 153.87 38.25 155.84 38.61 157.81 38.99 C 153.03 44.07 147.17 44.35 141.04 46.69 C 140.96 46.03 140.88 45.37 140.80 44.71 C 140.01 44.57 139.21 44.43 138.41 44.28 L 136.66 43.96 C 137.73 43.23 138.80 42.52 139.89 41.84 C 144.20 41.23 147.81 39.51 151.87 38.02 Z" fill="#5f5761" />
<path d="M 206.59 37.19 C 210.03 39.80 213.81 42.08 217.04 44.96 C 220.46 47.92 222.26 52.39 223.31 56.70 C 224.21 59.96 222.50 63.16 220.88 65.89 C 218.71 69.29 215.24 72.34 211.00 72.39 C 206.12 72.48 201.00 69.50 196.79 67.22 C 195.56 65.23 193.12 62.60 193.94 60.13 C 195.13 55.11 199.91 50.74 203.29 47.03 C 208.14 49.30 211.29 53.08 214.51 57.19 C 212.18 60.13 210.13 64.49 205.73 61.92 C 207.65 60.65 209.52 59.33 211.31 57.88 C 207.79 57.17 205.30 57.23 202.40 59.60 C 201.25 60.78 200.14 62.03 199.03 63.26 C 200.02 64.74 200.98 66.56 202.42 67.65 C 206.42 68.28 210.90 66.34 214.21 64.21 C 217.38 62.19 219.28 58.58 218.15 54.84 C 216.87 50.29 214.70 44.09 209.77 42.41 C 206.09 41.20 201.55 40.00 197.70 40.77 C 193.83 42.81 190.90 46.73 187.54 49.52 C 182.95 53.36 179.63 58.25 178.03 64.03 C 176.59 69.29 178.07 75.47 176.78 80.70 C 175.57 84.94 173.01 88.92 170.32 92.38 C 166.79 96.72 163.68 101.14 159.05 104.42 C 154.64 107.52 154.98 112.59 151.06 116.00 C 147.28 119.22 141.73 120.71 137.04 122.10 C 128.23 124.73 118.59 123.02 110.30 126.29 C 104.42 128.56 100.15 133.49 98.02 139.33 L 98.86 140.50 C 95.13 145.27 91.72 150.03 87.04 153.97 C 85.70 155.00 84.30 155.97 82.91 156.93 C 84.60 153.37 86.25 149.85 87.06 145.96 C 84.27 148.38 81.98 151.24 79.88 154.26 C 80.18 155.82 80.59 157.56 80.36 159.14 C 79.62 159.99 78.79 160.75 77.87 161.45 C 76.84 160.46 76.51 159.35 76.90 158.13 C 77.84 153.02 82.51 148.77 83.49 143.55 C 83.87 141.57 83.23 139.85 82.41 138.09 C 81.12 135.38 79.31 132.08 79.33 129.02 C 80.46 125.13 82.44 121.43 84.18 117.78 C 86.11 115.32 88.97 113.35 91.59 111.67 C 98.78 108.29 107.05 106.28 115.03 106.91 C 117.32 107.09 119.60 107.65 121.89 107.69 C 127.83 107.01 133.56 105.90 138.82 102.95 C 141.85 101.33 144.27 99.04 147.10 97.15 C 148.29 96.24 149.66 96.45 151.08 96.36 C 150.53 91.73 153.78 90.17 156.50 87.13 C 159.33 84.22 162.47 81.68 165.41 78.89 C 167.86 75.93 169.84 72.64 171.16 69.02 C 173.19 63.27 177.35 58.60 177.09 52.15 C 176.78 49.69 175.18 48.47 173.30 47.15 C 172.44 47.62 171.59 48.10 170.73 48.59 C 167.39 50.37 163.76 52.47 159.89 52.65 C 157.39 52.77 154.77 50.87 152.63 49.74 C 153.36 48.96 154.06 48.16 154.72 47.33 C 160.66 48.84 163.86 44.58 168.67 42.03 C 169.66 41.43 170.66 40.85 171.66 40.26 C 172.50 39.75 173.34 39.23 174.18 38.72 C 176.95 40.40 179.45 42.22 181.72 44.55 C 180.67 46.80 180.22 48.90 179.98 51.37 C 185.31 47.61 189.06 42.93 195.11 40.08 C 198.82 38.17 202.57 37.94 206.59 37.19 Z" fill="#1f223f" />
<path d="M 81.08 39.08 C 81.86 38.90 82.65 38.73 83.44 38.58 C 82.82 39.76 82.20 40.96 81.51 42.10 C 77.66 46.37 72.05 49.17 67.30 52.37 C 67.36 50.90 67.42 49.44 67.49 47.97 C 64.50 50.19 61.34 52.13 58.08 53.94 C 57.51 53.20 56.93 52.46 56.35 51.72 C 60.06 48.16 63.96 44.78 67.54 41.10 C 68.64 41.55 69.75 41.99 70.86 42.41 C 74.75 42.45 77.69 40.71 81.08 39.08 Z" fill="#875855" />
<path d="M 97.99 39.23 C 94.67 43.50 89.70 46.92 87.39 51.79 C 82.28 52.29 77.18 52.06 72.06 52.25 C 68.29 52.38 65.88 54.92 63.25 57.27 C 60.19 60.20 56.71 62.55 53.09 64.72 C 59.22 64.97 65.31 65.33 71.35 66.43 C 65.71 70.83 59.49 73.99 52.28 74.71 C 49.60 74.91 47.12 73.27 44.82 72.10 C 46.87 67.70 49.72 64.14 53.23 60.82 C 52.84 60.03 52.46 59.23 52.08 58.44 C 52.50 57.10 52.90 55.76 53.30 54.42 C 54.32 53.52 55.35 52.63 56.35 51.72 C 56.93 52.46 57.51 53.20 58.08 53.94 C 61.34 52.13 64.50 50.19 67.49 47.97 C 67.42 49.44 67.36 50.90 67.30 52.37 C 72.05 49.17 77.66 46.37 81.51 42.10 C 83.63 41.75 85.76 41.44 87.89 41.08 C 91.27 40.56 94.64 39.96 97.99 39.23 Z" fill="#6f4240" />
<path d="M 161.80 40.11 C 164.08 40.79 166.38 41.38 168.67 42.03 C 163.86 44.58 160.66 48.84 154.72 47.33 C 156.79 44.50 158.57 41.76 161.80 40.11 Z" fill="#635660" />
<path d="M 209.77 42.41 C 214.70 44.09 216.87 50.29 218.15 54.84 C 219.28 58.58 217.38 62.19 214.21 64.21 C 210.90 66.34 206.42 68.28 202.42 67.65 C 200.98 66.56 200.02 64.74 199.03 63.26 C 200.14 62.03 201.25 60.78 202.40 59.60 C 203.50 60.39 204.61 61.17 205.73 61.92 C 210.13 64.49 212.18 60.13 214.51 57.19 C 215.79 54.40 216.45 52.14 214.80 49.29 C 212.66 44.29 207.77 41.35 202.34 42.21 C 198.24 43.38 196.07 46.49 193.98 49.95 C 190.95 55.25 186.22 58.99 183.50 64.53 C 180.86 69.88 178.19 75.94 177.97 81.97 L 177.87 83.66 C 177.59 88.56 176.52 93.43 174.45 97.90 C 174.00 98.35 173.55 98.81 173.11 99.27 C 168.05 104.02 165.80 110.86 163.25 117.22 C 159.95 118.61 156.20 118.78 155.69 123.02 C 154.04 125.13 151.67 127.69 151.39 130.43 C 151.02 132.66 152.69 134.35 153.94 135.97 C 153.36 135.70 152.77 135.44 152.18 135.20 C 151.31 135.74 150.45 136.30 149.60 136.88 C 143.57 141.16 138.39 145.92 131.16 148.17 C 127.68 149.30 124.39 148.96 120.82 148.76 C 121.12 149.30 121.42 149.84 121.72 150.38 C 122.89 151.04 124.07 151.68 125.20 152.42 C 124.87 152.93 124.52 153.43 124.14 153.92 C 122.93 153.93 121.71 153.97 120.49 153.97 C 116.67 152.05 112.78 150.24 109.05 148.16 C 108.08 148.92 107.10 149.68 106.13 150.44 C 103.05 147.53 101.34 143.85 98.86 140.50 L 98.02 139.33 C 100.15 133.49 104.42 128.56 110.30 126.29 C 118.59 123.02 128.23 124.73 137.04 122.10 C 141.73 120.71 147.28 119.22 151.06 116.00 C 154.98 112.59 154.64 107.52 159.05 104.42 C 163.68 101.14 166.79 96.72 170.32 92.38 C 173.01 88.92 175.57 84.94 176.78 80.70 C 178.07 75.47 176.59 69.29 178.03 64.03 C 179.63 58.25 182.95 53.36 187.54 49.52 C 190.90 46.73 193.83 42.81 197.70 40.77 C 201.55 40.00 206.09 41.20 209.77 42.41 Z" fill="#69403d" />
<path d="M 202.34 42.21 C 207.77 41.35 212.66 44.29 214.80 49.29 C 216.45 52.14 215.79 54.40 214.51 57.19 C 211.29 53.08 208.14 49.30 203.29 47.03 C 199.91 50.74 195.13 55.11 193.94 60.13 C 193.12 62.60 195.56 65.23 196.79 67.22 C 198.17 69.95 199.99 72.16 198.51 75.27 C 197.68 75.98 196.85 76.69 196.03 77.40 C 195.36 76.94 194.68 76.50 194.00 76.05 C 192.63 75.30 190.87 74.05 189.25 74.39 C 184.62 75.31 180.63 78.10 177.97 81.97 C 178.19 75.94 180.86 69.88 183.50 64.53 C 186.22 58.99 190.95 55.25 193.98 49.95 C 196.07 46.49 198.24 43.38 202.34 42.21 Z" fill="#8b8472" />
<path d="M 136.66 43.96 L 138.41 44.28 C 136.33 45.98 134.24 47.25 131.72 48.22 C 133.22 46.63 134.82 45.15 136.66 43.96 Z" fill="#a4a1a5" />
<path d="M 173.30 47.15 C 175.18 48.47 176.78 49.69 177.09 52.15 C 177.35 58.60 173.19 63.27 171.16 69.02 C 169.84 72.64 167.86 75.93 165.41 78.89 C 158.94 78.40 152.43 78.39 145.95 78.17 C 149.82 77.31 153.64 76.33 157.54 75.62 C 159.98 75.10 162.90 75.00 165.11 73.77 C 167.13 71.92 166.73 67.98 166.88 65.45 C 167.79 65.24 168.69 65.02 169.59 64.81 C 169.11 64.07 168.62 63.33 168.13 62.58 C 169.01 62.69 169.90 62.80 170.79 62.91 C 171.95 60.79 173.27 58.64 174.09 56.36 C 174.76 54.37 174.41 51.94 174.34 49.87 C 173.14 49.43 171.94 49.00 170.73 48.59 C 171.59 48.10 172.44 47.62 173.30 47.15 Z" fill="#a6817c" />
<path d="M 228.23 48.03 C 230.98 50.15 232.95 52.12 233.93 55.54 C 232.29 55.72 230.65 55.89 229.01 56.07 C 228.77 53.38 228.49 50.71 228.23 48.03 Z" fill="#cdc5c2" />
<path d="M 133.54 49.98 C 126.07 53.64 121.88 59.63 116.83 65.92 C 115.53 67.50 115.71 69.19 115.53 71.10 C 113.05 70.38 110.60 69.56 108.10 68.91 C 108.52 71.31 109.15 73.57 110.02 75.85 C 107.70 79.00 105.41 82.86 101.02 82.99 C 98.58 82.61 96.24 81.17 94.32 79.67 C 91.63 77.56 90.37 73.97 88.91 70.97 C 89.70 70.19 90.49 69.40 91.26 68.59 C 91.72 71.39 91.91 74.92 93.82 77.17 C 95.73 79.43 98.85 81.18 101.87 80.96 C 104.94 80.72 107.03 77.25 105.78 74.39 C 105.16 71.94 103.38 70.98 101.41 69.72 C 100.60 71.29 99.80 72.86 99.00 74.43 C 100.47 74.49 101.95 74.57 103.42 74.66 C 102.28 75.37 100.68 77.02 99.24 76.69 C 97.91 76.12 96.72 75.14 95.55 74.30 C 96.88 72.51 98.16 70.47 99.86 69.00 C 102.03 68.34 104.64 68.62 106.66 67.63 C 109.91 65.59 112.73 62.71 115.20 59.79 C 109.77 59.96 106.20 62.86 102.16 66.04 C 100.85 65.00 99.58 63.93 98.23 62.94 C 103.64 60.51 109.22 58.45 114.86 56.63 C 116.29 56.55 118.05 56.90 119.38 56.31 C 122.31 54.53 124.77 51.29 127.93 49.97 C 129.68 49.47 131.75 49.93 133.54 49.98 Z" fill="#918172" />
<path d="M 170.73 48.59 C 171.94 49.00 173.14 49.43 174.34 49.87 C 174.41 51.94 174.76 54.37 174.09 56.36 C 173.27 58.64 171.95 60.79 170.79 62.91 C 169.90 62.80 169.01 62.69 168.13 62.58 C 168.62 63.33 169.11 64.07 169.59 64.81 C 168.69 65.02 167.79 65.24 166.88 65.45 C 166.73 67.98 167.13 71.92 165.11 73.77 C 162.90 75.00 159.98 75.10 157.54 75.62 C 158.41 73.21 159.38 70.88 160.48 68.56 C 159.03 68.06 157.53 67.59 156.17 66.88 C 154.87 65.36 154.16 63.27 153.33 61.46 C 151.79 61.56 150.16 61.57 148.67 61.97 C 147.05 62.79 145.86 64.59 144.63 65.89 C 143.57 65.52 142.51 65.14 141.45 64.75 C 143.24 63.34 144.93 61.81 146.58 60.23 C 147.76 59.10 148.95 57.99 150.15 56.89 C 149.75 55.04 149.37 53.19 148.90 51.36 C 150.16 50.83 151.40 50.31 152.63 49.74 C 154.77 50.87 157.39 52.77 159.89 52.65 C 163.76 52.47 167.39 50.37 170.73 48.59 Z" fill="#89645f" />
<path d="M 133.54 49.98 L 135.45 49.69 C 132.97 53.28 129.00 54.98 126.46 58.50 C 123.92 62.01 121.60 65.79 120.03 69.85 C 121.27 69.24 122.51 68.62 123.69 67.90 C 124.41 68.16 125.13 68.41 125.86 68.67 C 125.57 70.00 125.29 71.34 125.00 72.67 C 121.75 72.48 118.65 72.09 115.53 71.10 C 115.71 69.19 115.53 67.50 116.83 65.92 C 121.88 59.63 126.07 53.64 133.54 49.98 Z" fill="#f5f3f1" />
<path d="M 148.90 51.36 C 149.37 53.19 149.75 55.04 150.15 56.89 C 148.95 57.99 147.76 59.10 146.58 60.23 C 145.88 59.72 145.18 59.22 144.49 58.71 C 143.02 60.22 141.52 61.71 140.00 63.17 C 139.72 61.53 139.43 59.89 139.17 58.24 C 136.90 59.40 134.58 60.41 132.25 61.43 C 137.12 57.16 143.08 54.11 148.90 51.36 Z" fill="#a8776c" />
<path d="M 72.06 52.25 C 77.18 52.06 82.28 52.29 87.39 51.79 C 86.68 53.22 85.93 54.59 84.79 55.73 C 80.72 59.86 76.40 63.57 71.35 66.43 C 65.31 65.33 59.22 64.97 53.09 64.72 C 56.71 62.55 60.19 60.20 63.25 57.27 C 65.88 54.92 68.29 52.38 72.06 52.25 Z" fill="#060101" />
<path d="M 53.30 54.42 C 52.90 55.76 52.50 57.10 52.08 58.44 C 52.46 59.23 52.84 60.03 53.23 60.82 C 49.72 64.14 46.87 67.70 44.82 72.10 C 42.17 77.02 40.43 82.31 38.07 87.35 C 37.39 88.33 36.67 89.23 36.08 90.25 C 35.46 91.46 34.95 92.71 34.41 93.96 C 29.67 86.60 27.40 78.41 25.84 69.88 C 25.28 66.84 26.62 63.90 29.04 62.05 C 36.28 57.05 44.42 54.23 53.30 54.42 Z" fill="#1f223f" />
<path d="M 72.59 56.34 C 74.08 57.34 74.83 59.51 75.76 60.99 C 74.27 61.99 72.71 63.55 70.93 63.96 C 68.46 64.33 67.21 61.33 67.41 59.31 C 68.26 57.23 70.33 55.87 72.59 56.34 Z" fill="#c03e3e" />
<path d="M 211.31 57.88 C 209.52 59.33 207.65 60.65 205.73 61.92 C 204.61 61.17 203.50 60.39 202.40 59.60 C 205.30 57.23 207.79 57.17 211.31 57.88 Z" fill="#928979" />
<path d="M 139.17 58.24 C 139.43 59.89 139.72 61.53 140.00 63.17 C 141.52 61.71 143.02 60.22 144.49 58.71 C 145.18 59.22 145.88 59.72 146.58 60.23 C 144.93 61.81 143.24 63.34 141.45 64.75 C 139.35 66.35 137.57 68.10 135.87 70.12 C 140.95 68.98 145.92 67.67 151.15 67.48 C 149.67 68.18 148.18 68.85 146.69 69.54 C 146.32 70.91 146.05 72.41 145.41 73.69 C 143.02 75.02 140.54 75.95 138.44 77.78 C 140.65 78.03 142.86 78.26 145.09 78.32 C 143.91 78.66 142.74 79.01 141.57 79.39 C 140.93 79.59 140.29 79.79 139.65 79.99 C 137.99 78.66 136.29 77.40 134.59 76.12 C 131.62 72.11 127.63 70.13 127.10 65.24 C 128.80 63.95 130.52 62.68 132.25 61.43 C 134.58 60.41 136.90 59.40 139.17 58.24 Z" fill="#c38e81" />
<path d="M 115.20 59.79 C 112.73 62.71 109.91 65.59 106.66 67.63 C 104.64 68.62 102.03 68.34 99.86 69.00 C 98.16 70.47 96.88 72.51 95.55 74.30 C 96.72 75.14 97.91 76.12 99.24 76.69 C 100.68 77.02 102.28 75.37 103.42 74.66 C 101.95 74.57 100.47 74.49 99.00 74.43 C 99.80 72.86 100.60 71.29 101.41 69.72 C 103.38 70.98 105.16 71.94 105.78 74.39 C 107.03 77.25 104.94 80.72 101.87 80.96 C 98.85 81.18 95.73 79.43 93.82 77.17 C 91.91 74.92 91.72 71.39 91.26 68.59 C 93.25 66.40 95.24 64.27 97.58 62.44 L 98.23 62.94 C 99.58 63.93 100.85 65.00 102.16 66.04 C 106.20 62.86 109.77 59.96 115.20 59.79 Z" fill="#433729" />
<path d="M 153.33 61.46 C 154.16 63.27 154.87 65.36 156.17 66.88 C 157.53 67.59 159.03 68.06 160.48 68.56 C 159.38 70.88 158.41 73.21 157.54 75.62 C 153.64 76.33 149.82 77.31 145.95 78.17 L 145.09 78.32 C 142.86 78.26 140.65 78.03 138.44 77.78 C 140.54 75.95 143.02 75.02 145.41 73.69 C 146.05 72.41 146.32 70.91 146.69 69.54 C 148.18 68.85 149.67 68.18 151.15 67.48 C 145.92 67.67 140.95 68.98 135.87 70.12 C 137.57 68.10 139.35 66.35 141.45 64.75 C 142.51 65.14 143.57 65.52 144.63 65.89 C 145.86 64.59 147.05 62.79 148.67 61.97 C 150.16 61.57 151.79 61.56 153.33 61.46 Z" fill="#a3746b" />
<path d="M 127.10 65.24 C 127.63 70.13 131.62 72.11 134.59 76.12 C 131.46 74.80 128.26 73.61 125.00 72.67 C 125.29 71.34 125.57 70.00 125.86 68.67 C 125.13 68.41 124.41 68.16 123.69 67.90 C 124.85 67.04 125.96 66.12 127.10 65.24 Z" fill="#ddb7ac" />
<path d="M 108.10 68.91 C 110.60 69.56 113.05 70.38 115.53 71.10 C 118.65 72.09 121.75 72.48 125.00 72.67 C 128.26 73.61 131.46 74.80 134.59 76.12 C 136.29 77.40 137.99 78.66 139.65 79.99 C 140.55 80.71 141.44 81.45 142.31 82.21 C 141.15 82.77 139.99 83.31 138.82 83.85 C 138.48 82.66 137.85 81.89 136.91 81.56 C 132.45 79.23 127.90 79.03 122.97 79.23 C 118.18 79.50 114.31 77.59 110.02 75.85 C 109.15 73.57 108.52 71.31 108.10 68.91 Z" fill="#20233e" />
<path d="M 88.91 70.97 C 90.37 73.97 91.63 77.56 94.32 79.67 C 96.24 81.17 98.58 82.61 101.02 82.99 C 105.41 82.86 107.70 79.00 110.02 75.85 C 114.31 77.59 118.18 79.50 122.97 79.23 C 127.90 79.03 132.45 79.23 136.91 81.56 C 135.60 82.08 134.87 83.25 136.45 84.08 C 137.29 84.33 138.09 84.26 138.82 83.85 C 139.99 83.31 141.15 82.77 142.31 82.21 C 143.06 82.96 143.77 83.73 144.48 84.51 C 143.38 84.46 142.29 84.39 141.20 84.32 C 141.80 85.17 142.39 86.02 142.99 86.87 C 142.32 87.64 141.64 88.40 140.96 89.17 C 139.66 88.77 138.36 88.37 137.05 88.00 C 132.39 86.44 127.70 85.25 122.75 85.16 C 123.47 86.75 124.26 88.31 125.09 89.85 C 124.60 90.67 124.11 91.49 123.61 92.31 C 120.99 92.13 118.40 92.26 115.80 92.61 C 111.32 89.66 106.76 85.34 101.42 84.70 C 98.46 83.80 95.91 82.91 92.80 83.89 L 93.32 83.13 L 94.11 81.96 L 93.14 80.85 C 91.32 78.74 89.81 76.43 88.23 74.15 C 88.46 73.09 88.67 72.03 88.91 70.97 Z" fill="#69403d" />
<path d="M 205.80 73.45 C 211.63 74.33 217.48 76.42 222.81 78.95 C 223.72 79.82 224.62 80.72 225.51 81.63 C 223.67 81.95 221.95 82.32 220.10 81.78 C 214.32 80.28 208.42 79.93 202.76 77.90 C 202.83 80.45 202.94 83.00 203.09 85.55 C 208.99 84.16 214.06 86.08 219.86 86.81 C 216.56 88.98 213.17 90.89 209.46 92.27 L 208.08 92.80 C 204.88 91.48 202.07 89.65 199.23 87.72 C 196.36 90.38 193.54 92.58 189.88 94.05 C 188.99 93.55 188.09 93.07 187.19 92.60 C 188.63 91.42 190.02 90.20 191.19 88.73 C 192.22 87.22 193.40 85.59 193.93 83.82 C 194.10 81.69 192.87 79.37 192.13 77.42 C 192.75 76.96 193.38 76.51 194.00 76.05 C 194.68 76.50 195.36 76.94 196.03 77.40 C 196.85 76.69 197.68 75.98 198.51 75.27 C 200.78 73.79 203.05 72.99 205.80 73.45 Z" fill="#402f22" />
<path d="M 88.23 74.15 C 89.81 76.43 91.32 78.74 93.14 80.85 C 90.21 80.15 87.27 79.54 84.33 78.86 C 85.26 76.77 86.41 75.50 88.23 74.15 Z" fill="#b6a29e" />
<path d="M 189.25 74.39 C 190.87 74.05 192.63 75.30 194.00 76.05 C 193.38 76.51 192.75 76.96 192.13 77.42 C 190.36 77.49 188.48 77.42 186.75 77.84 C 184.04 79.03 183.06 82.74 184.69 85.22 C 185.90 87.53 188.96 87.90 191.19 88.73 C 190.02 90.20 188.63 91.42 187.19 92.60 C 185.10 91.54 182.99 90.52 180.83 89.62 C 179.84 87.63 178.83 85.66 177.87 83.66 L 177.97 81.97 C 180.63 78.10 184.62 75.31 189.25 74.39 Z" fill="#4e4132" />
<path d="M 227.51 75.16 C 226.79 78.60 225.93 82.03 225.45 85.51 C 221.80 88.47 218.96 92.11 214.92 94.62 C 214.81 95.48 214.69 96.34 214.58 97.20 C 212.58 95.86 210.99 94.11 209.46 92.27 C 213.17 90.89 216.56 88.98 219.86 86.81 C 214.06 86.08 208.99 84.16 203.09 85.55 C 202.94 83.00 202.83 80.45 202.76 77.90 C 208.42 79.93 214.32 80.28 220.10 81.78 C 221.95 82.32 223.67 81.95 225.51 81.63 C 224.62 80.72 223.72 79.82 222.81 78.95 C 224.37 77.68 225.95 76.44 227.51 75.16 Z" fill="#837b6a" />
<path d="M 59.85 77.25 C 60.93 77.62 61.99 78.03 63.07 78.39 C 63.14 79.72 63.21 81.06 63.26 82.39 C 62.42 81.36 61.60 80.32 60.77 79.28 C 57.55 81.71 54.16 83.87 50.83 86.15 C 50.05 85.49 49.27 84.82 48.49 84.14 C 52.48 81.90 55.67 79.13 59.85 77.25 Z" fill="#46352b" />
<path d="M 76.02 77.67 C 78.13 78.09 80.07 79.73 81.92 80.78 C 85.52 83.36 89.12 82.45 93.32 83.13 L 92.80 83.89 C 90.61 84.53 88.49 85.09 86.19 84.84 C 82.76 84.39 79.72 82.22 76.67 81.35 C 72.58 80.53 69.90 82.82 66.34 84.35 C 66.96 81.41 69.20 80.35 71.41 78.66 C 72.91 78.27 74.47 77.78 76.02 77.67 Z" fill="#3c2e21" />
<path d="M 192.13 77.42 C 192.87 79.37 194.10 81.69 193.93 83.82 C 193.40 85.59 192.22 87.22 191.19 88.73 C 188.96 87.90 185.90 87.53 184.69 85.22 C 183.06 82.74 184.04 79.03 186.75 77.84 C 188.48 77.42 190.36 77.49 192.13 77.42 Z" fill="#898270" />
<path d="M 71.41 78.66 C 69.20 80.35 66.96 81.41 66.34 84.35 L 65.43 84.77 C 64.67 84.01 63.96 83.21 63.26 82.39 C 63.21 81.06 63.14 79.72 63.07 78.39 C 65.81 78.85 68.64 78.89 71.41 78.66 Z" fill="#896f68" />
<path d="M 145.09 78.32 L 145.95 78.17 C 152.43 78.39 158.94 78.40 165.41 78.89 C 162.47 81.68 159.33 84.22 156.50 87.13 C 155.12 85.44 153.77 83.47 152.01 82.18 C 148.62 80.97 144.93 80.86 141.57 79.39 C 142.74 79.01 143.91 78.66 145.09 78.32 Z" fill="#dfbbb0" />
<path d="M 84.33 78.86 C 87.27 79.54 90.21 80.15 93.14 80.85 L 94.11 81.96 L 93.32 83.13 C 89.12 82.45 85.52 83.36 81.92 80.78 C 82.73 80.14 83.53 79.50 84.33 78.86 Z" fill="#fbf4ed" />
<path d="M 136.91 81.56 C 137.85 81.89 138.48 82.66 138.82 83.85 C 138.09 84.26 137.29 84.33 136.45 84.08 C 134.87 83.25 135.60 82.08 136.91 81.56 Z" fill="#947c7a" />
<path d="M 115.80 92.61 C 118.18 94.79 120.46 97.08 122.80 99.29 C 123.24 100.01 123.68 100.74 124.12 101.47 C 122.79 101.72 121.45 101.98 120.12 102.25 C 118.75 100.79 117.40 99.32 116.03 97.87 C 114.77 96.54 113.49 95.23 112.16 93.97 C 108.77 90.65 105.00 87.84 101.42 84.70 C 106.76 85.34 111.32 89.66 115.80 92.61 Z" fill="#323349" />
<path d="M 177.87 83.66 C 178.83 85.66 179.84 87.63 180.83 89.62 C 179.86 90.64 178.67 91.75 178.11 93.06 C 178.25 94.20 178.45 95.33 178.70 96.45 C 177.26 96.86 175.85 97.37 174.45 97.90 C 176.52 93.43 177.59 88.56 177.87 83.66 Z" fill="#948877" />
<path d="M 122.75 85.16 C 127.70 85.25 132.39 86.44 137.05 88.00 C 132.59 90.63 129.12 93.36 123.61 92.31 C 124.11 91.49 124.60 90.67 125.09 89.85 C 124.26 88.31 123.47 86.75 122.75 85.16 Z" fill="#79524f" />
<path d="M 97.14 86.79 C 96.39 89.82 96.09 92.54 96.49 95.64 C 91.39 99.31 85.55 101.55 80.77 105.78 C 76.37 108.88 74.60 113.09 69.23 114.32 C 65.54 115.29 62.93 117.64 60.20 120.16 C 58.20 115.75 55.99 111.45 53.95 107.08 C 52.79 104.76 53.83 103.01 54.55 100.78 C 58.51 103.56 61.80 106.39 67.00 105.96 C 73.59 106.40 77.75 102.38 82.06 98.05 C 85.78 94.23 87.26 89.75 92.07 86.99 C 93.80 85.80 95.28 86.47 97.14 86.79 Z" fill="#8b8472" />
<path d="M 225.45 85.51 C 225.64 90.42 225.27 95.75 226.47 100.49 C 227.24 103.69 228.17 106.86 229.20 109.98 C 227.36 107.76 225.58 105.48 223.64 103.34 C 221.10 100.55 217.76 99.13 214.58 97.20 C 214.69 96.34 214.81 95.48 214.92 94.62 C 218.96 92.11 221.80 88.47 225.45 85.51 Z" fill="#63627d" />
<path d="M 102.23 87.41 C 101.26 89.36 100.31 91.30 99.63 93.36 C 98.57 94.10 97.53 94.88 96.49 95.64 C 96.09 92.54 96.39 89.82 97.14 86.79 C 98.83 87.03 100.53 87.22 102.23 87.41 Z" fill="#bea49e" />
<path d="M 199.23 87.72 C 202.07 89.65 204.88 91.48 208.08 92.80 C 206.09 93.52 204.10 94.23 202.11 94.94 C 207.13 97.10 210.32 100.72 213.85 104.69 C 212.90 105.76 211.95 106.84 210.99 107.92 C 209.43 106.82 207.71 105.75 205.90 105.11 C 202.44 104.28 198.82 104.67 195.36 103.99 C 192.66 102.68 190.44 100.36 187.89 98.77 C 186.57 97.94 185.20 97.20 183.80 96.52 C 187.41 96.88 190.62 97.87 194.22 96.75 C 192.80 95.82 191.36 94.90 189.88 94.05 C 193.54 92.58 196.36 90.38 199.23 87.72 Z" fill="#7a7365" />
<path d="M 137.05 88.00 C 138.36 88.37 139.66 88.77 140.96 89.17 C 139.15 91.06 137.03 93.55 134.49 94.39 C 132.14 94.78 129.61 94.39 127.24 94.23 C 125.79 95.94 124.31 97.62 122.80 99.29 C 120.46 97.08 118.18 94.79 115.80 92.61 C 118.40 92.26 120.99 92.13 123.61 92.31 C 129.12 93.36 132.59 90.63 137.05 88.00 Z" fill="#9a7f7b" />
<path d="M 42.66 89.62 C 43.82 90.91 44.87 92.85 46.52 93.48 C 50.20 95.01 54.45 95.48 58.36 96.20 L 56.54 96.66 C 54.23 97.34 51.58 98.03 50.10 100.09 C 49.00 101.76 48.40 103.83 47.81 105.73 C 46.49 106.07 45.18 106.41 43.87 106.80 C 40.52 109.72 41.24 116.16 40.83 120.25 C 40.73 122.60 40.30 124.70 39.41 126.88 L 37.65 128.60 C 35.99 124.86 35.97 121.10 35.76 117.11 C 35.74 115.56 34.85 114.59 34.03 113.38 C 34.62 109.89 35.47 106.74 38.58 104.66 C 40.54 103.95 42.67 103.66 44.70 103.20 C 43.13 102.02 41.55 100.58 39.75 99.77 C 38.33 99.49 36.74 99.82 35.33 100.02 C 34.58 100.18 33.83 100.34 33.09 100.50 C 33.70 98.35 34.22 96.19 34.41 93.96 C 34.95 92.71 35.46 91.46 36.08 90.25 L 35.87 92.06 C 38.17 91.34 40.38 90.39 42.66 89.62 Z" fill="#9d5856" />
<path d="M 75.23 92.80 C 77.58 96.08 75.85 98.78 73.56 101.38 C 72.76 99.00 71.84 96.69 70.54 94.53 C 69.12 93.02 67.63 90.80 65.26 91.09 C 63.86 91.68 62.75 93.03 61.60 94.01 C 60.70 92.61 59.79 91.22 58.90 89.82 C 64.52 88.87 70.74 88.72 75.23 92.80 Z" fill="#c2b0ac" />
<path d="M 180.83 89.62 C 182.99 90.52 185.10 91.54 187.19 92.60 C 188.09 93.07 188.99 93.55 189.88 94.05 C 191.36 94.90 192.80 95.82 194.22 96.75 C 190.62 97.87 187.41 96.88 183.80 96.52 C 182.10 96.34 180.40 96.35 178.70 96.45 C 178.45 95.33 178.25 94.20 178.11 93.06 C 178.67 91.75 179.86 90.64 180.83 89.62 Z" fill="#b84242" />
<path d="M 104.07 90.92 C 103.02 92.55 101.91 94.14 100.69 95.65 C 99.54 96.38 98.38 97.09 97.20 97.78 C 91.47 100.96 86.33 105.20 81.04 109.05 C 76.25 112.59 73.33 117.35 70.24 122.30 C 64.85 125.13 61.07 128.95 54.67 128.88 C 56.99 126.04 59.51 123.98 60.20 120.16 C 62.93 117.64 65.54 115.29 69.23 114.32 C 74.60 113.09 76.37 108.88 80.77 105.78 C 85.55 101.55 91.39 99.31 96.49 95.64 C 97.53 94.88 98.57 94.10 99.63 93.36 C 101.08 92.49 102.56 91.68 104.07 90.92 Z" fill="#25253e" />
<path d="M 208.08 92.80 L 209.46 92.27 C 210.99 94.11 212.58 95.86 214.58 97.20 C 217.76 99.13 221.10 100.55 223.64 103.34 C 225.58 105.48 227.36 107.76 229.20 109.98 C 229.66 110.89 230.14 111.79 230.61 112.70 C 230.16 113.38 229.64 114.03 229.06 114.63 C 224.26 110.87 218.93 108.02 213.85 104.69 C 210.32 100.72 207.13 97.10 202.11 94.94 C 204.10 94.23 206.09 93.52 208.08 92.80 Z" fill="#bf3e3e" />
<path d="M 34.41 93.96 C 34.22 96.19 33.70 98.35 33.09 100.50 C 33.83 100.34 34.58 100.18 35.33 100.02 C 33.98 101.75 32.58 103.44 31.27 105.20 C 30.43 104.44 29.61 103.69 28.72 102.98 C 28.07 102.82 27.41 102.67 26.75 102.53 C 28.47 98.80 29.78 94.67 34.41 93.96 Z" fill="#b78a88" />
<path d="M 112.16 93.97 C 113.49 95.23 114.77 96.54 116.03 97.87 C 114.06 100.20 111.99 102.36 109.63 104.30 C 109.56 100.62 110.68 97.29 112.16 93.97 Z" fill="#bfbab8" />
<path d="M 70.54 94.53 C 71.84 96.69 72.76 99.00 73.56 101.38 C 71.70 101.88 70.18 102.69 68.27 101.89 C 64.25 100.45 60.46 98.35 56.54 96.66 L 58.36 96.20 C 63.27 96.88 66.00 96.57 70.54 94.53 Z" fill="#846c62" />
<path d="M 100.69 95.65 C 101.67 96.42 102.63 97.20 103.59 98.00 C 100.41 102.01 96.21 104.27 92.02 107.00 C 93.48 104.31 95.40 102.06 97.43 99.79 C 97.37 99.12 97.29 98.45 97.20 97.78 C 98.38 97.09 99.54 96.38 100.69 95.65 Z" fill="#cc9a8c" />
<path d="M 178.70 96.45 C 180.40 96.35 182.10 96.34 183.80 96.52 C 185.20 97.20 186.57 97.94 187.89 98.77 C 187.61 100.03 187.36 101.29 187.12 102.56 C 184.13 102.14 180.03 99.73 177.78 102.77 C 174.83 105.51 177.15 109.65 177.49 113.00 C 177.62 114.57 177.60 116.20 177.60 117.78 C 175.30 116.99 173.19 116.39 171.87 114.17 C 171.04 108.93 170.31 104.09 173.11 99.27 C 173.55 98.81 174.00 98.35 174.45 97.90 C 175.85 97.37 177.26 96.86 178.70 96.45 Z" fill="#483a2e" />
<path d="M 97.20 97.78 C 97.29 98.45 97.37 99.12 97.43 99.79 C 95.40 102.06 93.48 104.31 92.02 107.00 C 89.53 111.01 85.93 114.34 82.21 117.19 C 78.50 119.38 74.12 120.39 70.24 122.30 C 73.33 117.35 76.25 112.59 81.04 109.05 C 86.33 105.20 91.47 100.96 97.20 97.78 Z" fill="#8b8472" />
<path d="M 173.11 99.27 C 170.31 104.09 171.04 108.93 171.87 114.17 C 170.79 112.52 169.81 110.82 168.81 109.12 C 169.34 113.48 169.74 117.71 171.07 121.93 C 170.28 121.16 169.46 120.42 168.64 119.67 C 166.76 119.99 164.87 120.30 162.98 120.61 C 163.06 119.48 163.16 118.35 163.25 117.22 C 165.80 110.86 168.05 104.02 173.11 99.27 Z" fill="#736d60" />
<path d="M 187.89 98.77 C 190.44 100.36 192.66 102.68 195.36 103.99 C 198.82 104.67 202.44 104.28 205.90 105.11 C 205.31 105.61 204.72 106.13 204.14 106.65 C 205.66 107.93 207.19 109.20 208.72 110.48 C 208.50 111.71 208.27 112.94 208.05 114.16 C 205.29 112.75 202.31 111.69 199.16 111.80 C 196.92 113.11 197.07 116.02 197.62 118.20 C 198.41 120.69 201.12 122.67 202.97 124.39 C 204.50 125.71 205.98 127.10 207.44 128.51 C 202.73 128.68 198.20 127.39 194.39 124.59 C 192.03 122.74 190.22 120.31 187.79 118.47 C 184.25 118.18 180.99 118.38 177.60 117.78 C 177.60 116.20 177.62 114.57 177.49 113.00 C 180.97 114.16 183.79 115.68 187.13 113.16 C 190.08 110.11 188.32 105.97 187.12 102.56 C 187.36 101.29 187.61 100.03 187.89 98.77 Z" fill="#3b2c1e" />
<path d="M 187.12 102.56 C 188.32 105.97 190.08 110.11 187.13 113.16 C 183.79 115.68 180.97 114.16 177.49 113.00 C 177.15 109.65 174.83 105.51 177.78 102.77 C 180.03 99.73 184.13 102.14 187.12 102.56 Z" fill="#726d5f" />
<path d="M 28.72 102.98 C 29.61 103.69 30.43 104.44 31.27 105.20 C 29.91 110.11 30.83 114.75 30.85 119.99 C 28.97 114.21 27.21 108.64 26.75 102.53 C 27.41 102.67 28.07 102.82 28.72 102.98 Z" fill="#a3605e" />
<path d="M 205.90 105.11 C 207.71 105.75 209.43 106.82 210.99 107.92 C 214.59 111.27 217.84 115.05 220.86 118.92 C 220.20 120.22 219.54 121.52 218.88 122.81 C 215.12 120.58 211.98 118.02 208.90 114.92 L 208.05 114.16 C 208.27 112.94 208.50 111.71 208.72 110.48 C 207.19 109.20 205.66 107.93 204.14 106.65 C 204.72 106.13 205.31 105.61 205.90 105.11 Z" fill="#453733" />
<path d="M 213.85 104.69 C 218.93 108.02 224.26 110.87 229.06 114.63 C 229.64 114.03 230.16 113.38 230.61 112.70 C 231.75 114.86 232.97 116.98 234.16 119.11 C 229.33 122.14 224.62 124.41 221.16 129.16 C 217.82 133.98 216.31 140.17 216.21 145.98 C 216.20 156.14 217.60 166.26 221.24 175.77 C 223.40 181.43 225.20 187.16 226.90 192.97 C 223.66 191.97 220.38 191.13 217.12 190.18 C 213.65 184.12 209.49 179.80 203.12 176.81 C 196.09 172.30 189.16 172.56 183.12 166.86 C 180.00 164.01 179.95 159.89 179.95 155.96 C 179.70 150.56 185.22 145.87 188.26 141.82 C 192.63 143.54 196.53 146.05 200.23 148.92 C 201.17 150.58 202.10 152.25 203.01 153.93 C 204.15 159.20 205.49 164.29 207.96 169.12 C 208.90 168.37 209.83 167.60 210.75 166.81 C 211.67 167.57 212.64 168.26 213.61 168.95 C 213.04 167.06 212.45 165.17 211.88 163.28 C 212.04 155.92 209.23 148.06 203.00 143.75 C 197.88 135.33 193.42 126.60 187.79 118.47 C 190.22 120.31 192.03 122.74 194.39 124.59 C 198.20 127.39 202.73 128.68 207.44 128.51 C 205.98 127.10 204.50 125.71 202.97 124.39 C 204.44 123.84 205.92 123.29 207.39 122.74 C 207.85 120.12 208.35 117.51 208.90 114.92 C 211.98 118.02 215.12 120.58 218.88 122.81 C 219.54 121.52 220.20 120.22 220.86 118.92 C 217.84 115.05 214.59 111.27 210.99 107.92 C 211.95 106.84 212.90 105.76 213.85 104.69 Z" fill="#606181" />
<path d="M 47.81 105.73 C 46.62 110.78 47.05 115.99 46.17 121.15 C 45.14 119.85 44.12 118.55 43.12 117.23 C 44.18 115.85 45.41 114.43 46.13 112.84 C 46.43 110.80 44.81 108.52 43.87 106.80 C 45.18 106.41 46.49 106.07 47.81 105.73 Z" fill="#c7a9a6" />
<path d="M 43.87 106.80 C 44.81 108.52 46.43 110.80 46.13 112.84 C 45.41 114.43 44.18 115.85 43.12 117.23 C 42.35 118.23 41.59 119.24 40.83 120.25 C 41.24 116.16 40.52 109.72 43.87 106.80 Z" fill="#ad7372" />
<path d="M 57.19 108.40 C 58.30 107.32 60.27 108.50 59.43 109.95 C 58.31 111.02 56.32 109.89 57.19 108.40 Z" fill="#dacac5" />
<path d="M 114.79 110.28 C 111.39 110.42 108.12 110.12 104.79 109.45 C 108.49 108.60 111.33 108.50 114.79 110.28 Z" fill="#737482" />
<path d="M 168.81 109.12 C 169.81 110.82 170.79 112.52 171.87 114.17 C 173.19 116.39 175.30 116.99 177.60 117.78 C 180.99 118.38 184.25 118.18 187.79 118.47 C 193.42 126.60 197.88 135.33 203.00 143.75 C 205.20 150.69 208.88 156.70 211.88 163.28 C 212.45 165.17 213.04 167.06 213.61 168.95 C 212.64 168.26 211.67 167.57 210.75 166.81 C 208.14 162.53 205.76 158.13 203.01 153.93 C 202.10 152.25 201.17 150.58 200.23 148.92 C 197.85 143.50 194.59 138.79 191.13 134.04 C 189.81 132.24 188.49 129.97 186.60 128.73 C 182.97 129.20 179.46 130.36 175.78 130.63 L 175.11 130.14 C 174.03 127.24 172.75 124.54 171.07 121.93 C 169.74 117.71 169.34 113.48 168.81 109.12 Z" fill="#c03e3e" />
<path d="M 199.16 111.80 C 202.31 111.69 205.29 112.75 208.05 114.16 L 208.90 114.92 C 208.35 117.51 207.85 120.12 207.39 122.74 C 205.92 123.29 204.44 123.84 202.97 124.39 C 201.12 122.67 198.41 120.69 197.62 118.20 C 197.07 116.02 196.92 113.11 199.16 111.80 Z" fill="#787264" />
<path d="M 34.03 113.38 C 34.85 114.59 35.74 115.56 35.76 117.11 C 35.97 121.10 35.99 124.86 37.65 128.60 L 39.41 126.88 C 39.78 128.21 40.13 129.55 40.48 130.89 C 39.21 132.29 37.95 133.71 36.68 135.12 C 34.79 131.75 32.31 127.87 32.00 123.96 C 31.95 120.44 33.37 116.84 34.03 113.38 Z" fill="#b98d8a" />
<path d="M 163.25 117.22 C 163.16 118.35 163.06 119.48 162.98 120.61 C 164.87 120.30 166.76 119.99 168.64 119.67 C 169.46 120.42 170.28 121.16 171.07 121.93 C 172.75 124.54 174.03 127.24 175.11 130.14 C 172.53 128.30 169.78 125.84 166.65 125.09 C 163.76 124.33 160.84 125.29 158.02 125.92 C 159.42 124.42 160.77 122.87 162.09 121.30 C 159.92 121.76 157.78 122.31 155.69 123.02 C 156.20 118.78 159.95 118.61 163.25 117.22 Z" fill="#483b2f" />
<path d="M 162.09 121.30 C 160.77 122.87 159.42 124.42 158.02 125.92 C 160.84 125.29 163.76 124.33 166.65 125.09 C 169.78 125.84 172.53 128.30 175.11 130.14 L 175.78 130.63 C 180.35 134.89 185.39 134.06 191.13 134.04 C 194.59 138.79 197.85 143.50 200.23 148.92 C 196.53 146.05 192.63 143.54 188.26 141.82 C 185.22 145.87 179.70 150.56 179.95 155.96 C 179.95 159.89 180.00 164.01 183.12 166.86 C 189.16 172.56 196.09 172.30 203.12 176.81 C 205.15 179.11 206.78 181.67 208.38 184.28 C 206.06 182.35 203.63 180.37 200.97 178.94 C 198.28 177.54 195.01 178.17 192.10 177.03 C 186.70 175.02 181.40 173.07 176.47 170.04 C 176.90 171.14 177.33 172.23 177.75 173.33 C 175.27 171.73 172.84 170.39 171.19 167.85 C 167.68 162.46 167.12 156.77 166.35 150.56 C 164.91 150.11 163.46 149.65 162.02 149.18 C 159.57 147.86 159.33 145.74 158.68 143.29 C 159.45 142.66 160.22 142.03 160.99 141.41 C 161.11 140.44 161.23 139.47 161.36 138.51 C 163.56 138.90 166.61 139.96 168.64 138.69 C 171.04 137.18 172.69 134.01 172.25 131.17 C 171.68 129.41 169.62 128.22 167.88 127.90 C 165.08 128.08 161.95 130.03 160.40 132.35 C 158.96 134.96 158.63 138.29 158.22 141.21 C 156.92 139.36 155.46 137.65 153.94 135.97 C 152.69 134.35 151.02 132.66 151.39 130.43 C 151.67 127.69 154.04 125.13 155.69 123.02 C 157.78 122.31 159.92 121.76 162.09 121.30 Z" fill="#3c2d20" />
<path d="M 27.45 124.88 C 29.32 129.39 31.08 133.94 32.89 138.48 C 31.82 143.09 32.55 147.79 31.94 152.52 C 30.27 149.50 28.85 146.41 27.87 143.09 C 27.21 137.07 26.95 130.92 27.45 124.88 Z" fill="#615f63" />
<path d="M 167.88 127.90 C 169.62 128.22 171.68 129.41 172.25 131.17 C 172.69 134.01 171.04 137.18 168.64 138.69 C 166.61 139.96 163.56 138.90 161.36 138.51 C 161.23 139.47 161.11 140.44 160.99 141.41 C 160.22 142.03 159.45 142.66 158.68 143.29 C 158.52 142.60 158.37 141.91 158.22 141.21 C 158.63 138.29 158.96 134.96 160.40 132.35 C 161.95 130.03 165.08 128.08 167.88 127.90 Z" fill="#726d5f" />
<path d="M 186.60 128.73 C 188.49 129.97 189.81 132.24 191.13 134.04 C 185.39 134.06 180.35 134.89 175.78 130.63 C 179.46 130.36 182.97 129.20 186.60 128.73 Z" fill="#645e6c" />
<path d="M 152.18 135.20 C 152.77 135.44 153.36 135.70 153.94 135.97 C 155.46 137.65 156.92 139.36 158.22 141.21 C 158.37 141.91 158.52 142.60 158.68 143.29 C 159.33 145.74 159.57 147.86 162.02 149.18 C 162.30 149.87 162.59 150.56 162.87 151.25 C 159.67 156.27 156.38 161.20 153.57 166.46 L 152.83 166.13 C 153.16 163.49 153.60 160.86 154.07 158.24 C 154.65 155.44 156.03 152.22 155.63 149.35 C 154.35 146.87 152.04 144.91 150.81 142.41 C 150.17 140.65 149.93 138.72 149.60 136.88 C 150.45 136.30 151.31 135.74 152.18 135.20 Z" fill="#bb4040" />
<path d="M 149.60 136.88 C 149.93 138.72 150.17 140.65 150.81 142.41 C 152.04 144.91 154.35 146.87 155.63 149.35 C 156.03 152.22 154.65 155.44 154.07 158.24 C 153.73 157.19 153.39 156.15 152.98 155.12 C 149.13 155.33 145.29 155.53 141.44 155.55 C 142.06 157.56 142.63 159.59 143.11 161.65 C 137.75 159.11 133.23 155.30 127.81 152.93 C 127.59 153.95 127.38 154.97 127.18 155.99 C 126.18 155.28 125.18 154.57 124.14 153.92 C 124.52 153.43 124.87 152.93 125.20 152.42 C 124.07 151.68 122.89 151.04 121.72 150.38 C 121.42 149.84 121.12 149.30 120.82 148.76 C 124.39 148.96 127.68 149.30 131.16 148.17 C 138.39 145.92 143.57 141.16 149.60 136.88 Z" fill="#7e7869" />
<path d="M 53.88 137.83 C 56.17 141.75 57.67 145.93 59.29 150.14 C 58.04 149.39 56.79 148.64 55.54 147.88 C 55.70 146.72 55.85 145.55 56.00 144.39 C 52.78 147.56 49.08 149.14 46.93 153.31 C 46.18 153.41 45.43 153.50 44.67 153.60 C 46.95 147.51 47.87 141.42 53.88 137.83 Z" fill="#c0bbb9" />
<path d="M 82.41 138.09 C 83.23 139.85 83.87 141.57 83.49 143.55 C 82.51 148.77 77.84 153.02 76.90 158.13 C 76.51 159.35 76.84 160.46 77.87 161.45 C 78.79 160.75 79.62 159.99 80.36 159.14 C 80.59 157.56 80.18 155.82 79.88 154.26 C 81.98 151.24 84.27 148.38 87.06 145.96 C 86.25 149.85 84.60 153.37 82.91 156.93 C 84.30 155.97 85.70 155.00 87.04 153.97 L 86.62 154.64 C 84.43 158.26 81.92 161.53 80.33 165.49 C 79.28 167.59 78.25 169.70 77.28 171.84 C 77.74 165.01 75.37 157.86 74.81 151.05 C 75.72 146.36 80.02 142.20 82.41 138.09 Z" fill="#807c80" />
<path d="M 32.89 138.48 C 35.02 143.56 36.21 148.92 38.01 154.10 C 39.82 158.11 41.57 162.14 43.34 166.17 C 44.05 167.95 44.78 169.72 45.52 171.50 C 43.97 173.43 42.46 175.39 40.96 177.37 C 39.80 176.48 38.63 175.59 37.46 174.71 C 37.01 168.26 34.20 162.03 32.81 155.71 C 32.54 154.64 32.24 153.58 31.94 152.52 C 32.55 147.79 31.82 143.09 32.89 138.48 Z" fill="#1f223d" />
<path d="M 27.87 143.09 C 28.85 146.41 30.27 149.50 31.94 152.52 C 32.24 153.58 32.54 154.64 32.81 155.71 C 32.69 159.12 32.76 161.98 30.35 164.69 C 30.07 163.34 29.78 162.00 29.46 160.65 C 29.21 161.85 28.98 163.05 28.77 164.26 C 27.55 157.20 27.91 150.20 27.87 143.09 Z" fill="#b8b5b5" />
<path d="M 56.00 144.39 C 55.85 145.55 55.70 146.72 55.54 147.88 C 56.79 148.64 58.04 149.39 59.29 150.14 C 58.88 150.74 58.46 151.34 58.04 151.93 C 53.47 156.48 51.29 161.99 48.84 167.82 C 48.37 168.90 47.88 169.96 47.40 171.03 C 47.77 164.97 45.97 159.28 46.93 153.31 C 49.08 149.14 52.78 147.56 56.00 144.39 Z" fill="#323248" />
<path d="M 203.00 143.75 C 209.23 148.06 212.04 155.92 211.88 163.28 C 208.88 156.70 205.20 150.69 203.00 143.75 Z" fill="#593d40" />
<path d="M 162.02 149.18 C 163.46 149.65 164.91 150.11 166.35 150.56 C 167.12 156.77 167.68 162.46 171.19 167.85 C 172.84 170.39 175.27 171.73 177.75 173.33 C 177.33 172.23 176.90 171.14 176.47 170.04 C 181.40 173.07 186.70 175.02 192.10 177.03 C 195.01 178.17 198.28 177.54 200.97 178.94 C 203.63 180.37 206.06 182.35 208.38 184.28 C 210.56 186.36 212.89 188.14 215.46 189.73 C 208.39 190.34 202.69 187.27 195.94 186.03 C 194.32 185.37 192.71 184.68 191.10 183.98 C 188.09 181.82 185.12 179.71 181.61 178.40 C 172.12 174.77 162.79 170.74 153.57 166.46 C 156.38 161.20 159.67 156.27 162.87 151.25 C 162.59 150.56 162.30 149.87 162.02 149.18 Z" fill="#66657f" />
<path d="M 58.04 151.93 C 56.63 155.19 55.02 158.34 53.41 161.51 C 52.19 164.15 50.82 166.40 51.64 169.42 C 52.77 173.51 52.85 177.40 56.71 179.87 C 56.57 180.43 56.42 180.99 56.27 181.54 C 54.58 182.59 52.94 183.73 51.33 184.90 C 50.15 181.25 49.38 177.65 49.03 173.82 C 48.89 171.83 48.82 169.82 48.84 167.82 C 51.29 161.99 53.47 156.48 58.04 151.93 Z" fill="#c2b4af" />
<path d="M 46.93 153.31 C 45.97 159.28 47.77 164.97 47.40 171.03 C 47.88 169.96 48.37 168.90 48.84 167.82 C 48.82 169.82 48.89 171.83 49.03 173.82 L 47.83 174.47 C 45.76 175.51 44.00 176.82 42.29 178.37 C 41.84 178.04 41.40 177.70 40.96 177.37 C 42.46 175.39 43.97 173.43 45.52 171.50 C 44.78 169.72 44.05 167.95 43.34 166.17 C 43.48 162.46 43.73 158.72 44.34 155.06 L 44.67 153.60 C 45.43 153.50 46.18 153.41 46.93 153.31 Z" fill="#644d51" />
<path d="M 124.14 153.92 C 125.18 154.57 126.18 155.28 127.18 155.99 C 130.32 158.27 133.55 160.23 137.02 161.97 C 143.40 165.15 149.25 168.79 155.86 171.48 C 158.89 173.00 161.89 174.16 165.14 175.14 C 173.50 178.88 182.17 181.92 191.10 183.98 C 192.71 184.68 194.32 185.37 195.94 186.03 C 203.25 189.64 210.44 193.45 217.52 197.48 C 221.33 199.65 225.83 201.93 228.73 205.26 C 230.70 207.42 230.87 210.18 231.46 212.92 C 227.94 215.24 224.64 217.56 222.40 221.23 C 219.66 225.76 216.83 230.41 211.95 232.95 C 207.90 234.75 202.86 235.58 198.54 234.38 C 195.70 232.90 193.65 229.88 191.11 227.91 C 188.54 225.93 185.81 224.15 183.11 222.36 C 187.45 223.25 191.55 224.46 195.72 225.97 C 197.10 226.41 198.48 226.83 199.86 227.25 C 202.18 224.48 204.33 221.90 205.33 218.34 C 206.54 213.99 206.42 209.00 206.49 204.50 C 201.24 200.25 197.64 194.59 192.02 190.98 C 186.42 187.44 181.38 183.62 174.82 182.00 C 167.77 178.61 160.35 176.12 153.29 172.75 C 147.05 170.05 141.31 166.47 134.94 164.08 C 129.31 161.62 125.48 157.31 120.49 153.97 C 121.71 153.97 122.93 153.93 124.14 153.92 Z" fill="#20233f" />
<path d="M 127.81 152.93 C 133.23 155.30 137.75 159.11 143.11 161.65 C 146.25 163.39 149.50 164.82 152.83 166.13 L 153.57 166.46 C 162.79 170.74 172.12 174.77 181.61 178.40 C 185.12 179.71 188.09 181.82 191.10 183.98 C 182.17 181.92 173.50 178.88 165.14 175.14 C 163.82 174.05 162.54 172.64 160.97 171.92 C 159.33 171.54 157.54 171.58 155.86 171.48 C 149.25 168.79 143.40 165.15 137.02 161.97 C 133.55 160.23 130.32 158.27 127.18 155.99 C 127.38 154.97 127.59 153.95 127.81 152.93 Z" fill="#66413f" />
<path d="M 38.01 154.10 C 40.13 154.33 42.24 154.68 44.34 155.06 C 43.73 158.72 43.48 162.46 43.34 166.17 C 41.57 162.14 39.82 158.11 38.01 154.10 Z" fill="#cdbab6" />
<path d="M 89.36 154.27 C 84.93 160.81 83.20 168.18 80.13 175.31 C 80.03 172.02 80.51 168.78 80.33 165.49 C 81.92 161.53 84.43 158.26 86.62 154.64 C 87.53 154.51 88.45 154.39 89.36 154.27 Z" fill="#2d2d41" />
<path d="M 152.98 155.12 C 153.39 156.15 153.73 157.19 154.07 158.24 C 153.60 160.86 153.16 163.49 152.83 166.13 C 149.50 164.82 146.25 163.39 143.11 161.65 C 142.63 159.59 142.06 157.56 141.44 155.55 C 145.29 155.53 149.13 155.33 152.98 155.12 Z" fill="#6c687c" />
<path d="M 203.01 153.93 C 205.76 158.13 208.14 162.53 210.75 166.81 C 209.83 167.60 208.90 168.37 207.96 169.12 C 205.49 164.29 204.15 159.20 203.01 153.93 Z" fill="#3f3331" />
<path d="M 32.81 155.71 C 34.20 162.03 37.01 168.26 37.46 174.71 C 37.72 179.66 37.39 184.26 36.69 189.17 C 35.57 185.98 34.59 182.74 33.36 179.60 C 32.66 179.44 31.95 179.30 31.24 179.16 C 31.63 186.50 33.52 193.76 34.84 201.17 C 31.75 198.34 30.87 194.73 28.88 191.22 C 27.15 188.33 27.39 184.29 27.19 181.00 C 27.20 176.83 26.76 172.21 27.90 168.18 C 27.90 169.88 27.92 171.85 28.61 173.43 C 29.55 174.83 30.97 175.99 32.21 177.12 C 32.03 172.88 30.80 168.88 30.35 164.69 C 32.76 161.98 32.69 159.12 32.81 155.71 Z" fill="#674d4f" />
<path d="M 29.46 160.65 C 29.78 162.00 30.07 163.34 30.35 164.69 C 30.80 168.88 32.03 172.88 32.21 177.12 C 30.97 175.99 29.55 174.83 28.61 173.43 C 27.92 171.85 27.90 169.88 27.90 168.18 C 28.24 166.88 28.57 165.59 28.77 164.26 C 28.98 163.05 29.21 161.85 29.46 160.65 Z" fill="#1b1b34" />
<path d="M 77.19 162.17 C 78.73 161.07 79.70 163.45 77.92 163.89 C 76.95 163.66 76.71 163.09 77.19 162.17 Z" fill="#e2e2e6" />
<path d="M 134.94 164.08 C 141.31 166.47 147.05 170.05 153.29 172.75 C 160.35 176.12 167.77 178.61 174.82 182.00 C 178.56 185.38 182.89 187.87 186.86 190.95 C 183.02 189.38 178.97 188.21 175.01 186.96 C 173.55 185.85 172.24 184.59 170.92 183.31 C 165.15 182.08 160.68 179.14 155.48 176.53 C 148.33 172.86 141.52 168.68 134.94 164.08 Z" fill="#7b7787" />
<path d="M 128.49 167.50 C 134.07 170.65 139.84 173.41 145.36 176.68 C 148.68 178.87 151.82 181.85 153.74 185.36 C 155.41 188.08 153.33 190.55 152.11 192.98 C 151.99 192.22 151.85 191.47 151.69 190.72 C 150.74 185.46 147.30 182.59 143.24 179.60 C 140.21 177.08 136.99 175.09 133.37 173.54 C 128.97 171.62 123.91 168.72 119.05 168.65 C 116.54 168.71 115.92 171.11 114.99 172.98 C 115.07 178.16 115.59 183.09 118.39 187.58 C 121.77 193.68 128.74 196.62 134.23 200.81 C 133.56 201.94 132.89 203.07 132.18 204.17 C 129.22 206.95 123.88 207.07 120.06 207.81 C 122.74 205.76 125.70 204.31 128.79 202.98 C 127.11 200.87 125.42 198.81 123.35 197.07 C 119.66 194.09 114.92 191.72 111.69 188.31 C 110.90 187.45 110.95 185.86 110.70 184.75 C 110.12 182.36 108.88 180.13 108.43 177.74 C 108.16 175.29 108.42 172.76 108.46 170.30 C 110.87 168.81 113.03 166.98 115.95 166.79 C 119.87 166.45 124.83 165.77 128.49 167.50 Z" fill="#24253f" />
<path d="M 119.05 168.65 C 123.91 168.72 128.97 171.62 133.37 173.54 C 128.97 172.77 125.21 172.58 120.91 173.92 C 118.94 173.61 116.96 173.29 114.99 172.98 C 115.92 171.11 116.54 168.71 119.05 168.65 Z" fill="#ccafaa" />
<path d="M 160.97 171.92 C 162.54 172.64 163.82 174.05 165.14 175.14 C 161.89 174.16 158.89 173.00 155.86 171.48 C 157.54 171.58 159.33 171.54 160.97 171.92 Z" fill="#665e71" />
<path d="M 133.37 173.54 C 136.99 175.09 140.21 177.08 143.24 179.60 C 145.03 182.59 147.22 185.60 148.35 188.91 C 149.61 191.95 145.71 194.13 143.88 195.91 L 143.07 195.90 C 144.03 193.83 145.63 191.51 145.75 189.20 C 145.47 186.23 142.56 183.66 140.50 181.73 C 138.12 180.18 135.58 179.97 132.82 179.94 C 132.29 179.05 131.85 177.58 130.85 177.15 C 127.71 175.68 124.23 174.87 120.91 173.92 C 125.21 172.58 128.97 172.77 133.37 173.54 Z" fill="#ba8c84" />
<path d="M 114.99 172.98 C 116.96 173.29 118.94 173.61 120.91 173.92 C 124.23 174.87 127.71 175.68 130.85 177.15 C 131.85 177.58 132.29 179.05 132.82 179.94 C 130.51 181.21 128.30 182.64 126.11 184.12 C 127.61 187.86 129.38 191.04 131.84 194.24 C 132.58 193.76 133.33 193.28 134.08 192.80 C 133.68 192.00 133.28 191.19 132.87 190.39 C 134.88 190.11 135.69 187.82 133.19 187.54 C 134.20 187.30 135.21 187.11 136.22 186.91 C 136.38 187.99 136.53 189.06 136.68 190.14 C 137.96 189.39 139.72 188.82 140.62 187.62 C 140.83 185.69 140.61 183.67 140.50 181.73 C 142.56 183.66 145.47 186.23 145.75 189.20 C 145.63 191.51 144.03 193.83 143.07 195.90 L 143.88 195.91 C 144.85 195.96 145.82 196.02 146.79 196.09 L 147.90 196.17 C 146.45 196.95 144.93 197.59 143.37 198.12 C 140.66 196.86 137.98 195.96 135.06 195.38 C 135.58 196.42 136.10 197.46 136.64 198.49 L 137.36 199.51 C 135.65 201.09 133.96 202.67 132.18 204.17 C 132.89 203.07 133.56 201.94 134.23 200.81 C 128.74 196.62 121.77 193.68 118.39 187.58 C 115.59 183.09 115.07 178.16 114.99 172.98 Z" fill="#815b57" />
<path d="M 49.03 173.82 C 49.38 177.65 50.15 181.25 51.33 184.90 C 52.94 183.73 54.58 182.59 56.27 181.54 C 55.27 186.16 52.81 190.02 51.12 194.36 C 49.97 196.82 52.04 199.67 53.28 201.72 C 57.58 208.45 65.16 211.87 72.38 214.53 C 72.46 215.64 72.56 216.76 72.66 217.88 C 79.26 220.17 85.82 222.30 91.91 225.80 C 90.08 226.25 88.25 226.73 86.41 227.16 C 84.66 226.73 82.89 226.37 81.13 225.98 C 77.48 223.39 74.61 220.18 70.56 218.44 C 66.83 216.85 62.93 215.70 59.19 214.12 C 56.11 212.13 52.02 209.99 50.11 206.78 C 49.57 202.41 50.36 198.00 49.55 193.61 C 48.32 187.21 49.39 180.82 47.83 174.47 L 49.03 173.82 Z" fill="#b7918c" />
<path d="M 37.46 174.71 C 38.63 175.59 39.80 176.48 40.96 177.37 C 41.40 177.70 41.84 178.04 42.29 178.37 C 44.00 176.82 45.76 175.51 47.83 174.47 C 49.39 180.82 48.32 187.21 49.55 193.61 C 50.36 198.00 49.57 202.41 50.11 206.78 C 52.02 209.99 56.11 212.13 59.19 214.12 C 58.50 215.03 57.82 215.96 57.15 216.89 C 60.55 219.09 64.06 221.34 67.70 223.15 C 65.56 222.96 63.42 222.96 61.28 222.97 C 57.98 222.39 54.88 221.27 51.73 220.17 C 51.50 219.48 51.28 218.80 51.05 218.11 C 50.70 217.04 50.36 215.98 50.00 214.91 C 49.34 213.07 48.72 211.05 47.61 209.42 C 45.56 208.41 43.13 208.02 40.92 207.50 C 41.13 206.56 41.34 205.62 41.55 204.68 C 42.50 204.11 43.44 203.53 44.38 202.94 C 41.21 198.63 38.30 194.33 36.69 189.17 C 37.39 184.26 37.72 179.66 37.46 174.71 Z" fill="#825653" />
<path d="M 203.12 176.81 C 209.49 179.80 213.65 184.12 217.12 190.18 L 215.46 189.73 C 212.89 188.14 210.56 186.36 208.38 184.28 C 206.78 181.67 205.15 179.11 203.12 176.81 Z" fill="#514a57" />
<path d="M 31.24 179.16 C 31.95 179.30 32.66 179.44 33.36 179.60 C 34.59 182.74 35.57 185.98 36.69 189.17 C 38.30 194.33 41.21 198.63 44.38 202.94 C 43.44 203.53 42.50 204.11 41.55 204.68 C 40.63 205.16 39.70 205.63 38.76 206.09 C 37.41 204.48 36.10 202.85 34.84 201.17 C 33.52 193.76 31.63 186.50 31.24 179.16 Z" fill="#1f213b" />
<path d="M 132.82 179.94 C 135.58 179.97 138.12 180.18 140.50 181.73 C 140.61 183.67 140.83 185.69 140.62 187.62 C 139.72 188.82 137.96 189.39 136.68 190.14 C 136.53 189.06 136.38 187.99 136.22 186.91 C 135.21 187.11 134.20 187.30 133.19 187.54 C 132.19 188.08 132.09 189.03 132.87 190.39 C 133.28 191.19 133.68 192.00 134.08 192.80 C 133.33 193.28 132.58 193.76 131.84 194.24 C 129.38 191.04 127.61 187.86 126.11 184.12 C 128.30 182.64 130.51 181.21 132.82 179.94 Z" fill="#20223e" />
<path d="M 143.24 179.60 C 147.30 182.59 150.74 185.46 151.69 190.72 C 150.02 192.48 148.38 194.27 146.79 196.09 C 145.82 196.02 144.85 195.96 143.88 195.91 C 145.71 194.13 149.61 191.95 148.35 188.91 C 147.22 185.60 145.03 182.59 143.24 179.60 Z" fill="#c2a9a5" />
<path d="M 85.89 181.27 C 87.75 183.13 89.59 184.99 91.61 186.68 C 89.69 187.22 87.79 187.81 85.88 188.40 C 84.39 187.26 82.83 186.20 81.28 185.13 C 82.82 183.85 84.35 182.55 85.89 181.27 Z" fill="#906f6b" />
<path d="M 174.82 182.00 C 181.38 183.62 186.42 187.44 192.02 190.98 C 197.64 194.59 201.24 200.25 206.49 204.50 C 206.42 209.00 206.54 213.99 205.33 218.34 C 204.33 221.90 202.18 224.48 199.86 227.25 C 199.91 226.13 199.98 225.01 200.06 223.89 C 200.80 221.10 202.25 218.64 203.21 215.95 C 202.76 210.68 201.16 205.56 198.05 201.23 C 191.93 207.35 185.99 213.02 177.97 216.63 C 176.27 217.14 174.54 217.55 172.81 217.93 C 178.04 214.57 183.27 211.50 188.05 207.52 C 191.20 204.95 194.44 202.52 197.65 200.04 C 194.53 197.18 191.38 194.30 187.98 191.76 L 186.86 190.95 C 182.89 187.87 178.56 185.38 174.82 182.00 Z" fill="#633d3a" />
<path d="M 76.19 183.11 C 78.17 182.34 79.68 184.23 81.28 185.13 C 82.83 186.20 84.39 187.26 85.88 188.40 C 86.82 189.54 87.66 190.74 88.48 191.96 C 86.40 191.52 84.37 191.24 82.28 191.76 C 79.80 192.92 73.89 192.66 73.67 196.10 C 72.74 199.27 74.52 201.18 75.69 203.91 C 73.91 200.55 71.75 197.42 69.95 194.08 C 68.86 192.03 67.94 188.63 69.54 186.63 C 71.37 184.98 73.87 183.88 76.19 183.11 Z" fill="#1f223f" />
<path d="M 110.70 184.75 C 110.95 185.86 110.90 187.45 111.69 188.31 C 114.92 191.72 119.66 194.09 123.35 197.07 C 121.39 198.19 119.19 199.68 116.94 200.02 C 113.97 200.16 110.80 199.02 108.00 198.08 C 105.15 197.03 102.06 196.10 99.48 194.47 C 97.18 192.79 95.53 190.02 93.69 187.85 C 99.47 185.86 105.82 188.08 110.70 184.75 Z" fill="#ad8b86" />
<path d="M 195.94 186.03 C 202.69 187.27 208.39 190.34 215.46 189.73 L 217.12 190.18 C 220.38 191.13 223.66 191.97 226.90 192.97 C 230.65 195.07 233.59 198.58 233.87 203.00 C 234.15 206.70 234.93 210.48 231.46 212.92 C 230.87 210.18 230.70 207.42 228.73 205.26 C 225.83 201.93 221.33 199.65 217.52 197.48 C 210.44 193.45 203.25 189.64 195.94 186.03 Z" fill="#68403d" />
<path d="M 91.61 186.68 C 92.31 187.06 93.00 187.45 93.69 187.85 C 95.53 190.02 97.18 192.79 99.48 194.47 C 102.06 196.10 105.15 197.03 108.00 198.08 C 110.80 199.02 113.97 200.16 116.94 200.02 C 119.19 199.68 121.39 198.19 123.35 197.07 C 125.42 198.81 127.11 200.87 128.79 202.98 C 125.70 204.31 122.74 205.76 120.06 207.81 L 118.76 208.03 C 115.09 207.10 111.69 205.91 107.83 206.18 C 107.41 206.87 107.00 207.56 106.60 208.25 C 105.73 207.75 104.87 207.25 104.00 206.74 C 101.61 205.33 99.27 203.83 96.90 202.38 C 98.03 202.09 99.16 201.80 100.29 201.51 C 99.48 195.61 93.22 193.88 88.48 191.96 C 87.66 190.74 86.82 189.54 85.88 188.40 C 87.79 187.81 89.69 187.22 91.61 186.68 Z" fill="#7a504d" />
<path d="M 175.01 186.96 C 178.97 188.21 183.02 189.38 186.86 190.95 L 187.98 191.76 C 186.97 191.85 185.97 191.95 184.96 192.07 C 185.73 194.80 186.90 197.35 187.86 200.01 C 188.78 202.31 188.25 205.09 188.05 207.52 C 183.27 211.50 178.04 214.57 172.81 217.93 C 171.51 218.24 170.19 218.49 168.87 218.74 C 171.91 215.99 175.82 214.40 178.79 211.65 C 180.72 208.70 180.31 204.09 180.40 200.68 C 179.02 200.86 177.61 201.12 176.21 201.10 C 175.07 200.72 175.17 198.76 174.82 197.79 C 173.28 197.94 171.68 198.17 170.13 198.06 C 167.66 197.53 165.46 195.87 163.01 195.23 C 161.54 195.52 160.10 196.12 158.69 196.63 C 161.36 191.70 165.85 191.31 170.15 188.23 C 169.19 190.49 168.27 192.75 167.40 195.04 C 168.34 194.81 169.27 194.57 170.20 194.34 C 171.41 191.60 172.85 189.07 175.01 186.96 Z" fill="#c3a09b" />
<path d="M 133.19 187.54 C 135.69 187.82 134.88 190.11 132.87 190.39 C 132.09 189.03 132.19 188.08 133.19 187.54 Z" fill="#beaaa8" />
<path d="M 88.48 191.96 C 93.22 193.88 99.48 195.61 100.29 201.51 C 99.16 201.80 98.03 202.09 96.90 202.38 C 96.38 202.07 95.86 201.76 95.34 201.45 C 91.66 199.20 88.79 196.16 85.63 193.29 C 84.68 192.35 83.54 192.06 82.28 191.76 C 84.37 191.24 86.40 191.52 88.48 191.96 Z" fill="#906f6b" />
<path d="M 151.69 190.72 C 151.85 191.47 151.99 192.22 152.11 192.98 C 150.88 194.24 149.45 195.34 147.90 196.17 L 146.79 196.09 C 148.38 194.27 150.02 192.48 151.69 190.72 Z" fill="#2a2536" />
<path d="M 184.96 192.07 C 185.97 191.95 186.97 191.85 187.98 191.76 C 191.38 194.30 194.53 197.18 197.65 200.04 C 194.44 202.52 191.20 204.95 188.05 207.52 C 188.25 205.09 188.78 202.31 187.86 200.01 C 186.90 197.35 185.73 194.80 184.96 192.07 Z" fill="#d0b6b1" />
<path d="M 143.37 198.12 C 141.14 198.53 138.90 198.54 136.64 198.49 C 136.10 197.46 135.58 196.42 135.06 195.38 C 137.98 195.96 140.66 196.86 143.37 198.12 Z" fill="#3d2e3c" />
<path d="M 163.01 195.23 C 165.46 195.87 167.66 197.53 170.13 198.06 C 171.68 198.17 173.28 197.94 174.82 197.79 C 175.17 198.76 175.07 200.72 176.21 201.10 C 177.61 201.12 179.02 200.86 180.40 200.68 C 180.31 204.09 180.72 208.70 178.79 211.65 C 175.82 214.40 171.91 215.99 168.87 218.74 C 170.19 218.49 171.51 218.24 172.81 217.93 C 174.54 217.55 176.27 217.14 177.97 216.63 C 178.72 217.06 179.46 217.50 180.20 217.93 C 178.99 218.59 177.79 219.23 176.56 219.85 C 171.51 220.31 165.94 220.39 161.22 222.24 C 157.84 223.50 154.52 224.90 151.14 226.16 C 149.37 226.18 147.60 226.14 145.82 226.14 C 148.81 224.65 151.73 223.01 154.70 221.48 C 153.18 219.87 151.66 218.27 150.13 216.68 C 152.77 211.54 155.31 206.82 156.02 200.96 C 156.92 199.52 157.80 198.07 158.69 196.63 C 160.10 196.12 161.54 195.52 163.01 195.23 Z" fill="#a37c77" />
<path d="M 89.64 199.22 C 90.63 200.50 91.37 201.98 92.21 203.35 C 93.05 204.75 93.94 206.10 94.83 207.47 C 93.23 207.38 91.66 207.29 90.07 207.13 C 87.68 205.93 85.44 203.77 82.86 203.08 C 81.08 202.81 79.11 204.37 77.50 205.01 C 78.48 202.89 79.30 200.55 80.67 198.65 C 83.66 197.36 86.81 197.71 89.64 199.22 Z" fill="#1e1f3a" />
<path d="M 24.07 199.18 C 28.52 202.92 33.11 206.84 39.27 206.70 C 41.35 209.21 43.34 211.79 45.34 214.36 C 43.08 214.11 40.75 213.83 38.47 213.81 L 37.69 214.78 C 34.90 213.66 32.06 212.19 29.85 210.14 C 27.42 206.85 25.72 202.91 24.07 199.18 Z" fill="#66646a" />
<path d="M 137.36 199.51 C 140.00 201.96 142.78 203.79 144.46 207.11 L 144.54 207.89 C 140.76 209.37 136.55 211.24 132.47 211.48 C 130.34 211.30 128.46 209.59 126.34 209.21 C 123.81 208.78 121.26 208.64 118.76 208.03 L 120.06 207.81 C 123.88 207.07 129.22 206.95 132.18 204.17 C 133.96 202.67 135.65 201.09 137.36 199.51 Z" fill="#9b7f7c" />
<path d="M 95.34 201.45 C 95.86 201.76 96.38 202.07 96.90 202.38 C 99.27 203.83 101.61 205.33 104.00 206.74 C 99.65 207.07 93.89 209.89 90.07 207.13 C 91.66 207.29 93.23 207.38 94.83 207.47 C 93.94 206.10 93.05 204.75 92.21 203.35 C 93.25 202.71 94.29 202.06 95.34 201.45 Z" fill="#a68d88" />
<path d="M 156.02 200.96 C 155.31 206.82 152.77 211.54 150.13 216.68 C 151.66 218.27 153.18 219.87 154.70 221.48 C 151.73 223.01 148.81 224.65 145.82 226.14 C 139.40 226.07 133.21 226.86 126.89 227.88 L 125.16 228.07 C 121.47 228.43 117.82 228.27 114.14 228.31 C 115.84 227.36 117.55 226.23 119.37 225.52 C 121.81 224.60 124.73 224.93 127.08 223.90 C 129.77 222.51 132.00 220.17 134.73 218.80 C 136.61 217.89 138.73 217.34 140.73 216.75 L 139.91 215.74 C 141.54 214.37 143.13 212.97 144.73 211.59 C 144.68 210.35 144.62 209.12 144.54 207.89 L 144.46 207.11 C 148.46 205.34 152.29 203.24 156.02 200.96 Z" fill="#c3a09b" />
<path d="M 38.76 206.09 C 39.70 205.63 40.63 205.16 41.55 204.68 C 41.34 205.62 41.13 206.56 40.92 207.50 C 43.13 208.02 45.56 208.41 47.61 209.42 C 48.72 211.05 49.34 213.07 50.00 214.91 C 48.45 214.73 46.89 214.54 45.34 214.36 C 43.34 211.79 41.35 209.21 39.27 206.70 L 38.76 206.09 Z" fill="#684a47" />
<path d="M 107.83 206.18 C 111.69 205.91 115.09 207.10 118.76 208.03 C 121.26 208.64 123.81 208.78 126.34 209.21 C 128.46 209.59 130.34 211.30 132.47 211.48 C 136.55 211.24 140.76 209.37 144.54 207.89 C 144.62 209.12 144.68 210.35 144.73 211.59 C 143.13 212.97 141.54 214.37 139.91 215.74 C 134.08 217.67 130.10 218.01 124.15 216.29 C 118.27 213.54 112.21 211.56 106.60 208.25 C 107.00 207.56 107.41 206.87 107.83 206.18 Z" fill="#8b6964" />
<path d="M 38.47 213.81 C 40.75 213.83 43.08 214.11 45.34 214.36 C 46.89 214.54 48.45 214.73 50.00 214.91 C 50.36 215.98 50.70 217.04 51.05 218.11 C 46.60 216.89 42.07 216.26 37.69 214.78 L 38.47 213.81 Z" fill="#332c3a" />
<path d="M 59.19 214.12 C 62.93 215.70 66.83 216.85 70.56 218.44 C 74.61 220.18 77.48 223.39 81.13 225.98 C 76.85 225.24 72.64 224.23 68.40 223.30 L 67.70 223.15 C 64.06 221.34 60.55 219.09 57.15 216.89 C 57.82 215.96 58.50 215.03 59.19 214.12 Z" fill="#9f7873" />
<path d="M 72.38 214.53 C 89.80 218.34 106.56 221.18 124.15 216.29 C 130.10 218.01 134.08 217.67 139.91 215.74 L 140.73 216.75 C 138.73 217.34 136.61 217.89 134.73 218.80 C 132.00 220.17 129.77 222.51 127.08 223.90 C 124.73 224.93 121.81 224.60 119.37 225.52 C 117.55 226.23 115.84 227.36 114.14 228.31 C 113.50 228.47 112.86 228.64 112.22 228.80 C 110.79 227.77 109.71 226.66 107.83 226.73 C 102.17 226.67 96.48 226.96 90.84 227.36 C 92.94 227.91 95.07 228.45 97.21 228.82 C 94.15 228.65 91.12 228.49 88.13 227.75 L 86.41 227.16 C 88.25 226.73 90.08 226.25 91.91 225.80 C 85.82 222.30 79.26 220.17 72.66 217.88 C 72.56 216.76 72.46 215.64 72.38 214.53 Z" fill="#d2bbb6" />
<path d="M 42.81 219.01 C 45.87 219.02 48.83 219.08 51.73 220.17 C 54.88 221.27 57.98 222.39 61.28 222.97 C 60.81 223.75 60.35 224.53 59.88 225.31 L 58.60 225.68 C 57.55 224.58 56.50 223.37 55.27 222.46 C 53.05 221.39 51.24 222.78 49.34 223.77 C 46.91 222.48 44.89 220.79 42.81 219.01 Z" fill="#615962" />
<path d="M 176.56 219.85 C 171.12 222.56 165.96 227.14 160.03 228.17 C 154.01 229.40 147.98 230.45 141.85 230.91 C 145.54 230.32 148.16 228.20 151.14 226.16 C 154.52 224.90 157.84 223.50 161.22 222.24 C 165.94 220.39 171.51 220.31 176.56 219.85 Z" fill="#1e1e37" />
<path d="M 55.27 222.46 C 56.50 223.37 57.55 224.58 58.60 225.68 C 55.06 227.06 52.50 225.14 49.34 223.77 C 51.24 222.78 53.05 221.39 55.27 222.46 Z" fill="#1c1b34" />
<path d="M 61.28 222.97 C 63.42 222.96 65.56 222.96 67.70 223.15 L 68.40 223.30 L 66.87 224.83 C 66.11 225.59 65.36 226.35 64.63 227.13 C 62.57 227.05 60.51 227.07 58.45 226.98 C 60.06 226.09 61.69 225.27 63.32 224.42 C 62.17 224.71 61.02 225.01 59.88 225.31 C 60.35 224.53 60.81 223.75 61.28 222.97 Z" fill="#3c313e" />
<path d="M 81.13 225.98 C 82.89 226.37 84.66 226.73 86.41 227.16 L 88.13 227.75 L 86.82 228.05 C 86.81 228.70 86.81 229.35 86.81 230.00 C 80.28 227.73 73.36 227.34 66.87 224.83 L 68.40 223.30 C 72.64 224.23 76.85 225.24 81.13 225.98 Z" fill="#7b5753" />
<path d="M 200.06 223.89 C 199.98 225.01 199.91 226.13 199.86 227.25 C 198.48 226.83 197.10 226.41 195.72 225.97 C 197.16 225.27 198.61 224.57 200.06 223.89 Z" fill="#9a979c" />
<path d="M 66.87 224.83 C 73.36 227.34 80.28 227.73 86.81 230.00 C 89.90 231.03 92.85 232.42 95.95 233.43 C 92.82 233.40 89.95 232.73 86.86 232.27 C 82.68 231.61 78.63 231.38 74.63 230.36 C 71.23 229.49 68.03 228.10 64.63 227.13 C 65.36 226.35 66.11 225.59 66.87 224.83 Z" fill="#b9a7a2" />
<path d="M 112.22 228.80 C 109.77 229.46 107.28 229.52 104.76 229.44 C 102.24 229.20 99.72 229.03 97.21 228.82 C 95.07 228.45 92.94 227.91 90.84 227.36 C 96.48 226.96 102.17 226.67 107.83 226.73 C 109.71 226.66 110.79 227.77 112.22 228.80 Z" fill="#e4dad7" />
<path d="M 145.82 226.14 C 147.60 226.14 149.37 226.18 151.14 226.16 C 148.16 228.20 145.54 230.32 141.85 230.91 C 136.87 231.44 131.87 231.82 126.88 232.21 C 127.86 230.69 128.85 229.17 129.82 227.64 C 128.85 227.72 127.87 227.80 126.89 227.88 C 133.21 226.86 139.40 226.07 145.82 226.14 Z" fill="#673e3a" />
<path d="M 86.82 228.05 L 88.13 227.75 C 91.12 228.49 94.15 228.65 97.21 228.82 C 99.72 229.03 102.24 229.20 104.76 229.44 C 105.80 229.71 106.84 230.02 107.88 230.32 C 105.30 230.85 102.72 231.37 100.19 232.12 C 98.77 232.54 97.37 233.01 95.95 233.43 C 92.85 232.42 89.90 231.03 86.81 230.00 C 86.81 229.35 86.81 228.70 86.82 228.05 Z" fill="#1d1a30" />
<path d="M 114.14 228.31 C 117.82 228.27 121.47 228.43 125.16 228.07 C 120.52 228.56 116.64 228.61 113.45 232.53 C 108.96 231.94 104.70 231.30 100.19 232.12 C 102.72 231.37 105.30 230.85 107.88 230.32 C 106.84 230.02 105.80 229.71 104.76 229.44 C 107.28 229.52 109.77 229.46 112.22 228.80 C 112.86 228.64 113.50 228.47 114.14 228.31 Z" fill="#513436" />
<path d="M 125.16 228.07 L 126.89 227.88 C 127.87 227.80 128.85 227.72 129.82 227.64 C 128.85 229.17 127.86 230.69 126.88 232.21 C 122.42 232.20 117.87 233.00 113.45 232.53 C 116.64 228.61 120.52 228.56 125.16 228.07 Z" fill="#231f35" />
</svg>