<?xml version="1.0" encoding="UTF-8" standalone="no"?>
<!DOCTYPE svg PUBLIC "-//W3C//DTD SVG 1.1//EN" "http://www.w3.org/Graphics/SVG/1.1/DTD/svg11.dtd">
<svg xmlns="http://www.w3.org/2000/svg" version="1.1" viewBox="0 0 256 256" width="256.0pt" height="256.0pt">
<path d="M 0.00 0.00 L 256.00 0.00 L 256.00 256.00 L 0.00 256.00 L 0.00 0.00 Z" fill="#fcfcfb" />
<path d="M 99.22 47.71 C 103.58 49.12 104.59 61.46 109.02 56.06 C 111.76 59.83 115.38 59.61 119.83 62.93 C 130.53 64.50 141.52 71.13 153.03 68.93 C 161.67 68.68 161.52 76.78 162.94 83.05 C 163.96 97.21 162.02 112.00 160.15 126.06 C 157.44 142.29 156.82 157.33 150.71 172.96 C 150.25 174.23 149.92 175.51 149.58 176.81 C 146.59 186.74 143.04 197.00 141.91 207.34 C 140.09 212.90 140.04 214.87 141.63 220.46 C 138.07 220.53 135.63 227.83 133.44 223.61 C 130.23 218.54 132.14 218.01 126.75 218.99 C 133.12 198.72 135.84 182.33 143.80 162.80 C 146.22 158.71 147.57 171.71 149.05 165.05 C 149.61 156.89 156.64 151.64 150.53 145.43 C 148.60 148.61 145.18 147.79 144.04 151.11 C 142.21 155.05 143.80 159.22 141.17 163.08 C 141.13 158.72 141.65 154.36 141.92 150.01 C 145.88 137.71 139.76 120.12 140.01 107.97 C 135.26 99.21 137.66 89.83 128.72 82.30 C 126.21 79.95 124.78 77.99 121.07 79.13 C 115.86 80.22 116.84 74.51 111.92 75.59 L 111.29 74.71 C 108.33 70.11 105.17 67.98 99.74 68.19 C 93.99 61.96 86.44 50.90 90.16 42.13 C 93.31 44.55 90.90 34.04 91.70 32.63 C 96.27 31.99 92.68 47.74 99.22 47.71 Z" fill="#292b43" />
<path d="M 91.70 32.63 C 90.90 34.04 93.31 44.55 90.16 42.13 C 87.64 40.43 85.69 44.62 83.85 45.93 C 82.18 41.45 86.55 32.47 91.70 32.63 Z" fill="#b6beb0" />
<path d="M 90.16 42.13 C 86.44 50.90 93.99 61.96 99.74 68.19 C 105.17 67.98 108.33 70.11 111.29 74.71 C 107.12 74.22 104.09 71.94 100.38 70.36 C 98.13 74.72 97.26 75.60 99.99 80.05 C 97.67 84.49 97.71 89.57 91.47 89.28 C 94.14 96.96 90.54 98.24 85.00 102.23 C 85.71 106.31 88.88 109.75 89.38 114.15 C 86.10 117.92 82.08 114.56 79.07 118.64 C 78.17 109.97 73.30 115.89 68.28 109.72 C 67.47 101.10 57.83 98.78 57.62 88.77 C 57.79 80.68 50.31 80.04 48.43 72.63 C 47.36 68.98 47.61 67.47 51.07 65.72 C 52.15 68.59 53.30 71.41 54.74 74.12 C 56.87 79.00 61.23 86.22 67.10 86.76 C 70.97 86.15 75.29 85.27 79.00 84.04 C 83.94 75.56 84.50 67.39 81.89 57.96 C 83.61 54.06 82.54 49.98 83.85 45.93 C 85.69 44.62 87.64 40.43 90.16 42.13 Z" fill="#768865" />
<path d="M 43.88 47.36 C 46.33 49.28 46.80 51.87 47.28 54.77 C 47.43 57.85 47.81 60.91 47.93 63.99 C 45.68 62.02 43.74 59.80 41.28 58.07 C 40.82 71.90 49.06 79.97 52.48 92.59 C 54.29 98.08 55.59 102.21 59.20 106.83 C 61.73 119.85 58.55 135.37 59.17 148.20 C 58.17 152.77 58.28 157.81 56.41 162.05 C 56.03 159.96 55.72 157.85 55.38 155.75 C 53.22 143.67 54.05 127.93 47.55 117.41 C 41.11 117.27 39.36 106.65 39.32 101.67 C 38.41 100.03 32.64 88.17 31.51 88.80 C 26.58 87.03 14.78 75.66 25.59 71.66 C 25.73 64.28 31.48 61.12 29.50 53.40 C 33.94 50.07 38.90 49.45 43.88 47.36 Z" fill="#292b45" />
<path d="M 47.28 54.77 C 48.89 58.34 50.13 61.92 51.07 65.72 C 47.61 67.47 47.36 68.98 48.43 72.63 C 50.31 80.04 57.79 80.68 57.62 88.77 C 57.83 98.78 67.47 101.10 68.28 109.72 C 73.30 115.89 78.17 109.97 79.07 118.64 C 82.08 114.56 86.10 117.92 89.38 114.15 L 89.99 113.65 C 92.73 126.25 95.33 137.15 87.86 148.83 C 86.32 154.59 79.63 156.28 74.38 156.81 C 73.49 153.78 75.13 152.25 71.11 152.51 C 71.07 148.96 72.16 145.54 71.92 141.95 C 70.36 143.87 68.27 153.05 67.29 145.79 C 66.05 140.09 62.56 145.25 61.28 147.88 C 60.60 142.05 60.50 144.64 59.17 148.20 C 58.55 135.37 61.73 119.85 59.20 106.83 C 55.59 102.21 54.29 98.08 52.48 92.59 C 49.06 79.97 40.82 71.90 41.28 58.07 C 43.74 59.80 45.68 62.02 47.93 63.99 C 47.81 60.91 47.43 57.85 47.28 54.77 Z" fill="#8e938a" />
<path d="M 81.89 57.96 C 84.50 67.39 83.94 75.56 79.00 84.04 C 75.29 85.27 70.97 86.15 67.10 86.76 C 61.23 86.22 56.87 79.00 54.74 74.12 C 61.41 78.28 66.14 91.13 74.21 80.21 C 86.79 78.83 78.55 65.49 81.89 57.96 Z" fill="#c7cebe" />
<path d="M 100.38 70.36 C 104.09 71.94 107.12 74.22 111.29 74.71 L 111.92 75.59 C 107.94 83.01 110.44 89.67 101.02 92.96 C 106.05 98.27 103.32 101.31 96.61 101.22 C 98.28 109.93 92.05 107.68 89.99 113.65 L 89.38 114.15 C 88.88 109.75 85.71 106.31 85.00 102.23 C 90.54 98.24 94.14 96.96 91.47 89.28 C 97.71 89.57 97.67 84.49 99.99 80.05 C 97.26 75.60 98.13 74.72 100.38 70.36 Z" fill="#a7b198" />
<path d="M 172.85 73.14 C 173.72 76.85 171.75 81.54 173.52 84.84 C 171.87 94.28 176.28 106.44 174.12 115.82 C 173.10 112.37 170.50 110.11 169.44 106.74 C 173.34 98.56 163.71 91.32 165.29 83.52 C 167.61 82.64 168.69 82.99 169.37 80.25 C 170.72 78.58 170.37 72.54 172.85 73.14 Z" fill="#909b83" />
<path d="M 121.07 79.13 C 124.78 77.99 126.21 79.95 128.72 82.30 C 137.66 89.83 135.26 99.21 140.01 107.97 C 138.88 113.20 133.58 117.77 133.23 122.97 C 136.11 133.11 128.27 141.75 128.68 152.41 C 129.21 161.83 117.71 162.02 112.92 167.89 C 106.31 170.39 100.22 177.46 93.57 174.66 C 89.45 178.11 88.56 183.73 82.22 185.34 C 77.03 187.63 84.89 191.73 79.25 194.26 C 76.08 197.05 73.32 209.53 71.86 211.41 C 62.38 211.09 54.71 206.58 45.22 208.73 C 42.17 208.04 39.10 207.90 35.99 207.76 C 45.80 201.85 45.25 189.67 51.02 181.38 C 54.77 181.77 58.25 180.79 61.94 180.47 C 66.01 183.68 72.16 197.39 78.67 190.65 C 78.60 185.28 74.13 179.98 71.52 175.44 C 65.92 174.18 59.68 175.79 53.97 174.55 C 55.05 168.15 50.21 160.03 55.38 155.75 C 55.72 157.85 56.03 159.96 56.41 162.05 C 58.28 157.81 58.17 152.77 59.17 148.20 C 60.50 144.64 60.60 142.05 61.28 147.88 C 62.56 145.25 66.05 140.09 67.29 145.79 C 68.27 153.05 70.36 143.87 71.92 141.95 C 72.16 145.54 71.07 148.96 71.11 152.51 C 75.13 152.25 73.49 153.78 74.38 156.81 C 79.63 156.28 86.32 154.59 87.86 148.83 C 95.33 137.15 92.73 126.25 89.99 113.65 C 92.05 107.68 98.28 109.93 96.61 101.22 C 103.32 101.31 106.05 98.27 101.02 92.96 C 110.44 89.67 107.94 83.01 111.92 75.59 C 116.84 74.51 115.86 80.22 121.07 79.13 Z" fill="#dbdbd4" />
<path d="M 138.18 76.88 C 141.58 78.03 143.31 80.56 143.98 83.99 C 141.40 82.13 139.73 79.61 138.18 76.88 Z" fill="#afb0bf" />
<path d="M 169.37 80.25 C 168.69 82.99 167.61 82.64 165.29 83.52 C 163.71 91.32 173.34 98.56 169.44 106.74 C 170.50 110.11 173.10 112.37 174.12 115.82 C 170.84 119.86 180.46 122.07 182.86 123.17 C 190.02 124.48 202.97 128.13 207.58 120.85 C 206.05 126.03 207.93 130.53 206.43 134.29 C 202.69 128.14 197.95 141.65 196.50 144.42 C 192.40 149.10 193.66 159.78 187.21 160.65 C 184.71 159.23 178.96 152.30 177.44 158.23 C 175.66 170.36 156.29 167.85 154.67 178.72 C 152.92 177.00 151.26 175.47 150.71 172.96 C 156.82 157.33 157.44 142.29 160.15 126.06 C 162.02 112.00 163.96 97.21 162.94 83.05 C 165.16 82.29 167.34 81.46 169.37 80.25 Z" fill="#d9d9d4" />
<path d="M 173.52 84.84 C 175.75 86.58 176.13 87.63 176.55 90.36 C 177.06 102.37 188.49 105.16 198.05 107.90 C 208.09 109.23 212.53 108.05 219.30 116.72 C 222.86 122.15 218.13 124.68 216.66 129.78 C 215.40 131.73 214.09 133.63 212.99 135.68 C 210.31 134.89 210.15 138.35 208.97 139.99 C 207.41 144.34 202.89 148.50 205.11 153.19 C 203.38 156.86 201.10 160.21 199.62 164.02 C 195.73 170.56 197.08 172.17 197.75 179.02 C 196.60 181.26 195.68 183.52 194.89 185.91 C 191.15 195.90 188.25 207.53 187.15 218.12 C 186.84 220.05 187.89 221.26 188.82 222.80 C 181.29 218.16 179.54 223.24 171.77 222.00 C 171.54 220.64 171.44 219.33 171.45 217.96 C 174.23 219.58 171.66 207.84 174.49 205.46 C 184.40 183.44 194.80 164.73 203.96 141.86 C 204.91 139.38 205.70 136.85 206.43 134.29 C 207.93 130.53 206.05 126.03 207.58 120.85 C 202.97 128.13 190.02 124.48 182.86 123.17 C 180.46 122.07 170.84 119.86 174.12 115.82 C 176.28 106.44 171.87 94.28 173.52 84.84 Z" fill="#2b2d43" />
<path d="M 140.01 107.97 C 139.76 120.12 145.88 137.71 141.92 150.01 C 139.94 145.39 132.89 156.06 135.43 159.07 C 135.64 165.38 132.22 157.51 129.28 158.04 C 127.25 165.19 131.88 169.44 126.64 175.49 C 125.75 181.23 123.01 187.95 116.60 182.53 C 114.10 185.14 105.45 184.53 102.46 182.71 C 94.00 184.56 94.12 189.35 86.62 195.42 C 88.68 200.50 81.03 204.66 87.86 207.87 C 84.73 210.36 84.10 210.10 85.18 214.14 C 80.78 212.95 76.23 212.78 71.86 211.41 C 73.32 209.53 76.08 197.05 79.25 194.26 C 84.89 191.73 77.03 187.63 82.22 185.34 C 88.56 183.73 89.45 178.11 93.57 174.66 C 100.22 177.46 106.31 170.39 112.92 167.89 C 117.71 162.02 129.21 161.83 128.68 152.41 C 128.27 141.75 136.11 133.11 133.23 122.97 C 133.58 117.77 138.88 113.20 140.01 107.97 Z" fill="#9eaa8f" />
<path d="M 66.52 128.53 C 73.87 124.81 79.41 137.50 70.35 139.39 C 64.38 140.09 60.45 132.47 66.52 128.53 Z" fill="#f1f41e" />
<path d="M 216.66 129.78 C 217.35 132.40 222.25 141.97 215.81 139.29 C 211.64 137.71 219.03 144.68 214.23 141.87 C 208.95 141.16 214.44 154.92 209.82 152.01 C 208.70 161.04 208.58 168.25 203.00 176.89 C 206.42 176.44 209.37 175.03 212.16 173.07 C 215.71 180.61 222.96 178.19 226.98 183.05 C 225.67 186.12 224.31 189.46 222.09 191.99 C 218.68 195.90 215.03 198.44 209.97 199.77 C 205.23 197.43 200.98 194.74 195.83 193.18 C 192.36 192.67 196.50 188.52 194.89 185.91 C 195.68 183.52 196.60 181.26 197.75 179.02 C 198.18 175.22 204.59 166.07 199.62 164.02 C 201.10 160.21 203.38 156.86 205.11 153.19 C 207.53 147.27 211.25 141.82 212.99 135.68 C 214.09 133.63 215.40 131.73 216.66 129.78 Z" fill="#d8d9d1" />
<path d="M 206.43 134.29 C 205.70 136.85 204.91 139.38 203.96 141.86 C 202.77 141.17 202.51 139.54 201.56 141.51 C 193.80 151.33 193.26 163.17 185.17 172.94 C 181.44 169.38 179.80 169.12 174.70 169.75 C 173.93 177.16 170.20 170.55 164.98 172.93 C 159.80 173.20 158.90 175.77 156.67 179.77 C 153.45 179.91 149.55 181.51 149.58 176.81 C 149.92 175.51 150.25 174.23 150.71 172.96 C 151.26 175.47 152.92 177.00 154.67 178.72 C 156.29 167.85 175.66 170.36 177.44 158.23 C 178.96 152.30 184.71 159.23 187.21 160.65 C 193.66 159.78 192.40 149.10 196.50 144.42 C 197.95 141.65 202.69 128.14 206.43 134.29 Z" fill="#a9b29c" />
<path d="M 212.99 135.68 C 211.25 141.82 207.53 147.27 205.11 153.19 C 202.89 148.50 207.41 144.34 208.97 139.99 C 210.15 138.35 210.31 134.89 212.99 135.68 Z" fill="#7c7c86" />
<path d="M 203.96 141.86 C 194.80 164.73 184.40 183.44 174.49 205.46 C 171.66 207.84 174.23 219.58 171.45 217.96 C 170.61 209.10 167.43 219.83 162.12 215.84 C 156.25 212.51 150.82 215.47 147.81 208.15 C 146.66 204.61 144.42 207.11 141.91 207.34 C 143.04 197.00 146.59 186.74 149.58 176.81 C 149.55 181.51 153.45 179.91 156.67 179.77 C 158.90 175.77 159.80 173.20 164.98 172.93 C 170.20 170.55 173.93 177.16 174.70 169.75 C 179.80 169.12 181.44 169.38 185.17 172.94 C 193.26 163.17 193.80 151.33 201.56 141.51 C 202.51 139.54 202.77 141.17 203.96 141.86 Z" fill="#697f52" />
<path d="M 150.53 145.43 C 156.64 151.64 149.61 156.89 149.05 165.05 C 147.57 171.71 146.22 158.71 143.80 162.80 C 135.84 182.33 133.12 198.72 126.75 218.99 C 126.42 218.16 126.08 217.32 125.73 216.49 C 120.09 222.78 107.75 215.39 101.13 222.93 C 96.52 226.66 84.97 218.13 78.11 218.65 C 74.06 217.76 69.84 218.34 65.76 217.37 C 69.01 217.02 75.87 217.09 68.11 215.58 C 72.21 211.20 80.73 215.93 86.10 215.80 C 89.79 216.53 86.22 215.04 85.18 214.14 C 84.10 210.10 84.73 210.36 87.86 207.87 C 81.03 204.66 88.68 200.50 86.62 195.42 C 94.12 189.35 94.00 184.56 102.46 182.71 C 105.45 184.53 114.10 185.14 116.60 182.53 C 123.01 187.95 125.75 181.23 126.64 175.49 C 131.88 169.44 127.25 165.19 129.28 158.04 C 132.22 157.51 135.64 165.38 135.43 159.07 C 132.89 156.06 139.94 145.39 141.92 150.01 C 141.65 154.36 141.13 158.72 141.17 163.08 C 143.80 159.22 142.21 155.05 144.04 151.11 C 145.18 147.79 148.60 148.61 150.53 145.43 Z" fill="#71845e" />
<path d="M 199.62 164.02 C 204.59 166.07 198.18 175.22 197.75 179.02 C 197.08 172.17 195.73 170.56 199.62 164.02 Z" fill="#7d8284" />
<path d="M 212.52 164.23 C 212.10 181.03 229.84 173.77 235.03 188.99 C 232.97 194.04 229.22 197.87 229.99 203.99 C 230.46 209.80 237.51 210.39 235.92 216.80 C 233.56 219.44 232.12 218.51 232.45 222.74 C 226.46 224.83 220.02 223.02 219.00 215.83 C 218.63 214.90 218.26 213.97 217.88 213.04 C 216.98 205.09 220.37 199.29 222.09 191.99 C 224.31 189.46 225.67 186.12 226.98 183.05 C 222.96 178.19 215.71 180.61 212.16 173.07 C 211.55 171.63 209.42 163.03 212.52 164.23 Z" fill="#32334a" />
<path d="M 48.78 170.91 C 50.39 173.07 51.07 174.21 53.97 174.55 C 59.68 175.79 65.92 174.18 71.52 175.44 C 74.13 179.98 78.60 185.28 78.67 190.65 C 72.16 197.39 66.01 183.68 61.94 180.47 C 58.25 180.79 54.77 181.77 51.02 181.38 C 44.88 181.45 45.08 173.98 48.78 170.91 Z" fill="#23243c" />
<path d="M 194.89 185.91 C 196.50 188.52 192.36 192.67 195.83 193.18 C 200.98 194.74 205.23 197.43 209.97 199.77 C 215.03 198.44 218.68 195.90 222.09 191.99 C 220.37 199.29 216.98 205.09 217.88 213.04 C 210.57 212.15 212.49 219.37 205.17 219.32 C 199.42 218.93 192.10 221.21 187.15 218.12 C 188.25 207.53 191.15 195.90 194.89 185.91 Z" fill="#6f845b" />
<path d="M 147.81 208.15 C 150.82 215.47 156.25 212.51 162.12 215.84 C 167.43 219.83 170.61 209.10 171.45 217.96 C 171.44 219.33 171.54 220.64 171.77 222.00 C 165.65 221.88 161.05 225.84 154.98 225.05 C 146.26 222.62 140.73 226.31 132.44 226.60 C 133.56 221.16 118.36 222.78 117.28 225.40 C 111.36 223.86 107.50 228.13 101.13 222.93 C 107.75 215.39 120.09 222.78 125.73 216.49 C 126.08 217.32 126.42 218.16 126.75 218.99 C 132.14 218.01 130.23 218.54 133.44 223.61 C 135.63 227.83 138.07 220.53 141.63 220.46 C 140.04 214.87 140.09 212.90 141.91 207.34 C 144.42 207.11 146.66 204.61 147.81 208.15 Z" fill="#9ea991" />
<path d="M 71.86 211.41 C 76.23 212.78 80.78 212.95 85.18 214.14 C 86.22 215.04 89.79 216.53 86.10 215.80 C 80.73 215.93 72.21 211.20 68.11 215.58 C 75.87 217.09 69.01 217.02 65.76 217.37 C 55.78 215.13 45.11 216.94 34.92 215.45 C 32.21 215.60 28.65 222.49 26.46 217.28 C 26.65 204.92 37.37 211.12 45.22 208.73 C 54.71 206.58 62.38 211.09 71.86 211.41 Z" fill="#35354b" />
<path d="M 217.88 213.04 C 218.26 213.97 218.63 214.90 219.00 215.83 C 217.24 220.77 213.87 218.76 209.90 220.75 C 202.56 220.77 196.23 223.76 188.82 222.80 C 187.89 221.26 186.84 220.05 187.15 218.12 C 192.10 221.21 199.42 218.93 205.17 219.32 C 212.49 219.37 210.57 212.15 217.88 213.04 Z" fill="#bfc5b6" />
<path d="M 78.11 218.65 C 84.97 218.13 96.52 226.66 101.13 222.93 C 107.50 228.13 111.36 223.86 117.28 225.40 C 118.36 222.78 133.56 221.16 132.44 226.60 C 127.19 223.44 128.05 230.54 120.94 225.22 C 117.97 231.01 111.80 226.85 107.54 232.50 C 105.43 232.78 103.02 225.73 99.63 227.68 C 95.38 231.72 90.13 231.68 85.19 228.93 C 81.74 228.13 76.86 232.04 74.00 233.82 C 71.58 229.67 78.30 223.49 78.11 218.65 Z" fill="#ced2c8" />
</svg>