<?xml version="1.0" encoding="UTF-8" standalone="no"?>
<!DOCTYPE svg PUBLIC "-//W3C//DTD SVG 1.1//EN" "http://www.w3.org/Graphics/SVG/1.1/DTD/svg11.dtd">
<svg xmlns="http://www.w3.org/2000/svg" version="1.1" viewBox="0 0 256 256" width="256.0pt" height="256.0pt">
<path d="M 0.00 0.00 L 256.00 0.00 L 256.00 256.00 L 0.00 256.00 L 0.00 0.00 Z" fill="#fdfdfc" />
<path d="M 57.22 18.89 C 68.47 25.92 82.15 21.10 93.69 17.53 C 100.38 18.88 108.64 18.25 110.98 26.00 C 113.98 28.54 115.96 28.78 118.24 32.63 C 122.36 32.04 126.52 32.19 130.62 31.66 C 134.10 27.61 138.23 21.61 143.73 20.34 C 153.88 16.16 166.67 17.74 176.82 21.27 C 185.01 22.63 194.01 22.65 201.93 19.89 C 205.89 18.27 209.50 20.11 214.02 20.05 C 217.40 20.19 220.83 21.34 220.45 25.35 C 223.25 25.20 224.45 25.21 226.14 27.70 C 226.96 29.51 225.51 36.72 228.89 33.51 C 233.11 43.46 232.40 55.74 236.11 65.94 C 238.74 68.89 238.06 70.76 238.74 74.31 C 242.16 82.86 243.50 91.28 240.29 100.16 C 240.68 109.74 236.18 117.85 234.05 127.00 C 234.39 134.09 234.84 141.82 237.41 148.48 C 239.68 153.30 237.26 158.00 239.46 162.99 C 237.97 172.22 240.39 180.75 240.13 189.97 C 242.01 195.31 243.20 205.18 237.66 208.69 C 237.07 211.67 237.82 213.44 235.40 215.85 C 236.52 216.34 239.83 215.39 238.31 217.41 C 235.48 224.85 229.58 225.61 223.62 229.57 C 218.94 231.30 216.18 228.73 212.31 226.69 C 209.16 224.73 205.83 223.17 206.45 218.86 C 203.16 217.63 204.45 215.36 203.53 212.54 C 200.98 211.56 198.67 209.23 195.97 210.89 C 189.94 213.08 185.45 221.90 178.69 221.64 C 171.14 229.81 161.80 231.34 151.49 233.92 C 146.02 236.28 141.04 238.82 135.08 239.91 C 130.79 236.90 130.75 237.89 126.09 239.59 C 127.46 239.91 128.81 240.14 130.06 240.81 C 121.93 240.66 114.07 241.59 105.99 240.07 C 101.27 240.28 99.49 235.77 95.19 234.74 C 87.38 232.21 77.81 236.29 70.74 239.63 C 64.96 241.00 60.07 239.49 54.69 237.64 C 54.43 236.70 54.28 235.73 54.10 234.77 L 54.93 234.78 C 57.00 235.22 58.96 235.38 61.04 234.91 C 66.67 234.05 71.97 231.14 77.39 229.77 C 80.77 230.13 81.35 227.32 82.94 225.02 C 83.60 223.69 84.13 223.16 83.25 221.75 C 77.80 210.05 72.94 197.60 65.45 187.05 C 67.54 185.97 69.56 185.98 71.84 186.06 C 72.50 186.74 73.07 188.73 74.17 188.56 C 77.95 188.27 79.66 191.30 82.81 193.19 C 83.08 194.10 83.38 195.01 83.70 195.90 C 86.08 201.45 87.52 207.08 90.82 212.20 C 92.90 216.12 94.75 220.90 97.92 224.02 C 96.55 215.69 93.67 208.13 91.08 200.28 C 92.77 200.40 94.46 200.65 96.14 200.86 L 96.96 201.02 C 105.09 203.15 110.59 202.58 117.02 197.04 C 117.95 196.13 118.53 194.84 119.19 193.73 C 123.73 194.90 121.44 200.75 122.27 204.29 C 121.48 204.80 120.67 205.28 119.85 205.74 C 114.99 207.54 112.33 209.32 109.68 213.87 C 107.83 214.77 106.47 215.72 106.14 217.89 C 104.37 223.57 95.99 230.64 103.95 235.47 C 105.20 236.50 107.41 235.09 107.80 233.78 L 108.10 233.02 C 109.35 232.08 110.70 231.77 111.07 230.09 C 111.65 229.70 112.22 229.30 112.79 228.89 C 112.67 229.83 112.92 234.65 114.65 232.16 C 116.39 226.56 120.82 230.91 118.84 233.20 C 116.46 235.99 121.79 235.42 122.97 234.23 C 128.32 235.24 137.47 234.43 140.14 228.92 C 141.95 229.24 143.41 229.22 145.09 228.42 C 149.79 227.09 152.40 225.47 155.65 221.86 C 164.62 226.22 177.37 217.49 183.17 210.87 C 189.93 201.35 198.34 196.16 201.13 184.05 C 204.74 175.99 205.16 167.69 205.95 159.03 C 206.28 154.44 206.31 150.36 203.01 146.78 C 199.60 148.39 201.97 151.75 202.23 154.51 C 198.13 158.63 194.31 163.06 197.10 169.15 C 196.74 170.42 196.38 171.68 196.03 172.96 C 195.69 173.96 195.34 174.96 194.98 175.96 C 193.45 175.25 191.26 172.61 190.09 175.06 C 185.08 181.47 183.15 191.36 173.86 194.97 C 176.60 188.03 176.01 180.81 177.59 173.61 C 178.78 167.59 181.79 162.47 182.24 156.25 C 184.68 155.02 186.41 153.10 188.29 151.18 L 189.21 150.98 L 190.78 150.77 C 197.53 148.73 203.71 138.94 203.89 131.84 C 204.80 129.58 205.71 127.36 206.09 124.94 C 206.66 125.31 207.23 125.68 207.81 126.06 L 207.51 127.83 C 207.24 133.19 206.86 138.70 206.71 144.05 C 206.80 147.50 206.93 150.89 207.66 154.23 C 208.59 158.52 208.83 162.89 209.62 167.18 C 210.17 169.88 211.10 172.07 212.80 174.24 C 213.40 175.82 213.97 177.44 214.74 178.94 C 215.49 179.62 216.26 180.27 217.05 180.90 C 218.17 183.09 219.43 185.13 220.84 187.14 C 221.81 192.53 218.85 196.54 218.68 201.85 C 218.50 205.70 215.01 209.12 215.64 212.82 C 214.10 213.59 208.81 213.72 209.53 216.27 C 208.45 218.74 206.86 219.34 210.38 220.55 C 214.67 221.28 219.64 227.29 223.34 223.44 C 224.85 222.61 226.40 221.82 227.87 220.91 C 230.84 219.46 231.61 216.71 233.11 213.99 C 234.80 211.22 234.00 207.87 233.14 204.97 C 234.67 195.83 232.61 185.88 231.27 176.80 C 230.95 175.79 230.61 174.79 230.23 173.80 C 229.04 164.28 236.76 159.73 232.31 150.66 C 229.86 145.54 227.83 153.61 228.82 155.86 C 227.86 157.42 228.50 159.47 226.15 158.07 C 227.93 155.13 224.36 154.10 222.75 152.16 C 222.89 151.00 223.09 149.86 223.26 148.71 C 226.08 133.07 229.04 112.21 221.11 97.73 C 219.82 95.37 218.95 93.61 219.17 90.80 C 224.93 99.23 227.08 108.79 228.19 118.79 C 228.12 123.90 228.76 128.71 228.10 133.84 C 231.06 134.87 229.41 125.85 229.89 124.20 C 230.02 112.95 227.24 101.94 222.02 91.98 C 218.13 86.04 216.67 80.41 210.76 75.97 C 215.45 75.74 217.50 80.79 220.23 83.76 C 224.75 90.47 229.75 96.93 233.06 104.29 C 237.34 99.24 234.60 89.94 234.37 83.84 C 233.97 80.05 233.65 76.34 232.29 72.75 C 230.38 66.97 227.86 61.42 225.88 55.66 C 225.19 53.12 223.96 50.86 222.54 48.67 C 223.27 41.82 222.86 36.09 221.63 29.33 C 218.45 26.33 211.95 22.39 207.94 25.88 C 204.32 28.03 200.58 27.19 197.90 30.83 C 191.58 31.94 185.26 33.25 178.91 34.21 C 171.90 32.47 168.15 25.89 160.86 24.15 C 157.49 23.35 155.08 24.95 152.17 26.29 C 151.99 22.60 145.13 23.72 143.14 25.12 C 138.57 27.61 137.30 35.23 138.19 39.91 C 140.66 40.32 140.68 38.91 141.70 37.22 C 142.23 40.67 143.27 42.85 146.10 44.96 C 148.40 46.87 150.43 49.08 152.72 51.00 C 158.07 56.00 164.05 49.41 168.30 46.27 C 174.11 46.11 179.23 43.62 184.92 43.06 C 183.12 45.48 180.98 47.61 179.16 50.01 C 173.95 44.79 168.89 49.06 169.18 55.31 C 169.20 57.01 170.75 58.67 171.71 59.98 C 177.33 65.29 183.36 58.45 189.43 62.59 C 193.01 63.37 187.74 65.53 186.83 66.38 C 183.47 67.56 180.39 69.21 177.99 71.88 C 181.26 71.46 183.40 70.40 185.92 68.35 C 186.07 69.97 186.17 71.59 186.28 73.22 C 180.16 76.65 173.84 77.47 168.75 82.77 C 164.61 86.59 167.54 79.98 166.97 77.87 C 170.56 77.21 173.97 78.56 170.17 73.86 C 165.17 71.79 161.13 70.69 156.36 67.64 C 154.28 65.38 151.76 63.78 149.23 62.09 C 147.73 60.57 146.18 59.16 144.52 57.82 C 144.13 54.42 143.82 51.12 142.41 47.96 C 141.87 50.22 142.46 52.90 140.39 54.35 L 138.99 55.02 C 136.97 55.02 134.95 54.96 132.93 54.90 L 133.16 54.13 C 134.44 53.86 140.47 54.46 136.97 52.01 C 134.80 50.84 129.59 45.67 128.47 50.16 C 123.84 49.26 121.97 46.38 117.46 49.95 C 115.44 49.34 114.33 47.93 112.25 49.26 C 111.75 53.23 112.85 53.93 115.93 55.98 C 111.68 55.74 110.05 54.45 106.85 57.91 C 104.25 58.68 101.32 59.48 99.13 61.14 C 98.10 62.32 93.50 64.69 94.46 61.35 C 96.17 56.89 86.78 59.54 85.87 55.99 C 87.33 51.63 94.75 56.88 97.99 56.70 C 98.33 53.56 97.69 52.22 95.82 49.82 C 107.31 46.26 100.09 29.81 92.66 25.76 C 93.63 21.97 83.83 24.77 82.71 26.72 C 80.14 29.42 76.05 34.50 76.68 38.38 C 77.83 44.24 83.77 40.98 88.15 42.66 C 80.06 44.90 72.70 43.42 64.96 48.20 C 63.28 47.98 61.60 47.73 59.93 47.47 C 63.24 45.96 66.33 44.72 68.70 41.83 C 65.63 36.14 61.71 31.23 58.09 25.92 C 52.70 21.53 48.16 23.15 42.20 25.06 C 35.09 26.32 24.46 32.24 24.47 40.62 C 23.40 44.37 25.40 46.91 26.93 50.13 C 28.52 53.76 25.90 56.48 26.36 60.35 C 27.39 66.84 21.92 72.32 21.96 78.97 C 22.62 81.49 23.59 84.29 26.75 83.18 C 27.27 83.87 27.77 84.56 28.28 85.25 C 30.06 89.03 33.60 92.04 36.64 94.82 C 38.60 98.53 40.61 102.19 42.13 106.11 C 41.46 107.17 40.73 108.18 40.00 109.20 C 36.61 110.55 33.70 109.48 30.28 109.22 C 29.46 111.58 28.95 113.89 29.70 116.33 C 32.09 117.31 34.65 117.83 37.06 118.76 C 35.32 118.95 33.57 119.05 31.82 119.07 L 30.97 118.75 C 24.51 114.88 26.78 120.82 23.22 124.04 C 23.53 125.46 24.08 126.84 24.69 128.15 C 27.51 131.77 28.71 138.31 33.03 140.01 C 27.18 142.71 26.13 133.51 21.10 133.01 C 21.69 138.54 25.95 141.91 25.42 147.63 C 26.29 150.74 27.70 153.85 29.86 156.28 C 31.27 158.45 32.59 158.44 34.97 157.90 C 34.97 158.97 35.30 159.78 35.96 160.34 C 38.30 162.93 40.83 164.78 42.41 167.98 C 41.99 168.99 41.58 170.01 41.18 171.04 C 40.36 168.76 39.36 166.67 37.76 164.83 C 37.01 163.80 35.48 163.35 34.34 162.89 C 34.98 165.07 35.79 167.20 36.51 169.35 C 36.27 170.15 36.03 170.94 35.80 171.74 C 33.83 172.15 33.69 173.12 33.86 174.94 C 33.63 175.95 33.42 176.97 33.22 177.99 C 32.71 179.81 32.68 181.22 33.26 183.04 C 32.69 184.88 33.36 186.92 30.72 185.34 C 29.64 181.76 28.72 176.04 25.15 174.01 C 23.50 176.07 23.77 179.23 24.32 181.65 C 24.87 184.03 26.05 186.05 27.20 188.18 C 29.26 201.87 39.37 214.70 50.77 222.14 C 52.53 224.38 55.63 225.71 57.01 228.08 C 57.33 233.00 47.55 228.64 49.21 233.70 C 46.74 231.07 47.67 230.78 44.48 232.85 C 45.08 228.37 40.06 226.53 37.85 223.18 C 33.79 215.09 25.83 206.81 22.87 198.07 C 18.14 190.04 17.21 177.13 21.81 168.87 C 23.50 158.63 16.05 146.39 15.42 136.88 C 16.02 131.47 15.66 125.89 17.61 120.96 C 17.86 122.60 18.04 124.26 18.32 125.89 C 22.21 125.58 20.46 120.24 17.50 119.47 C 19.97 113.94 22.05 108.24 24.59 102.77 C 24.90 94.37 20.06 88.94 19.02 80.97 C 16.97 76.45 17.86 71.83 17.13 67.02 C 19.25 54.65 15.14 41.24 22.30 29.31 C 27.01 26.35 30.01 21.90 35.27 20.17 C 42.30 16.53 49.81 17.17 57.22 18.89 Z" fill="#f1f0ef" />
<path d="M 58.09 25.92 C 61.71 31.23 65.63 36.14 68.70 41.83 C 66.33 44.72 63.24 45.96 59.93 47.47 C 57.00 48.48 54.31 49.47 51.14 48.95 C 48.15 46.21 45.43 42.81 44.05 38.96 C 46.11 33.60 55.69 32.87 59.89 35.12 C 59.11 39.14 54.31 37.85 51.24 39.22 C 52.37 41.14 53.84 44.19 56.05 44.95 C 58.97 44.13 62.18 43.28 64.82 41.78 C 64.81 35.50 59.36 31.58 54.94 27.97 C 50.06 29.63 46.40 32.75 41.04 33.13 C 34.44 33.66 32.73 40.58 32.00 46.00 C 32.27 53.60 37.06 57.99 42.00 63.01 C 44.89 66.70 41.16 71.09 37.16 71.05 C 38.31 68.94 39.78 67.03 40.94 64.94 C 38.18 59.13 29.65 57.11 28.70 51.12 C 29.62 46.34 31.34 41.90 32.87 37.32 C 31.28 37.07 29.67 36.92 28.07 36.67 C 28.59 30.44 38.44 29.21 42.20 25.06 C 48.16 23.15 52.70 21.53 58.09 25.92 Z" fill="#a296b5" />
<path d="M 92.66 25.76 C 92.22 28.96 97.90 33.40 96.37 37.36 C 94.70 41.13 91.98 42.08 88.15 42.66 C 83.77 40.98 77.83 44.24 76.68 38.38 C 76.05 34.50 80.14 29.42 82.71 26.72 C 83.83 24.77 93.63 21.97 92.66 25.76 Z" fill="#e4dfef" />
<path d="M 152.17 26.29 C 150.04 28.71 146.97 30.57 145.29 33.30 C 144.38 36.92 145.91 41.24 146.10 44.96 C 143.27 42.85 142.23 40.67 141.70 37.22 C 140.68 38.91 140.66 40.32 138.19 39.91 C 137.30 35.23 138.57 27.61 143.14 25.12 C 145.13 23.72 151.99 22.60 152.17 26.29 Z" fill="#e3dfe8" />
<path d="M 160.86 24.15 C 168.15 25.89 171.90 32.47 178.91 34.21 C 180.25 34.86 181.27 35.56 182.24 36.70 C 176.73 38.75 169.57 39.46 166.46 33.28 C 163.81 30.09 157.42 24.56 154.58 30.60 C 150.28 35.99 148.42 38.22 148.87 45.32 C 152.09 51.51 161.20 45.59 162.03 41.01 C 161.34 36.28 158.23 39.37 155.97 40.81 C 156.09 38.55 155.67 35.76 158.90 36.05 C 162.75 37.56 167.83 41.94 168.30 46.27 C 164.05 49.41 158.07 56.00 152.72 51.00 C 154.38 50.55 160.03 52.22 158.84 49.12 C 155.95 48.81 154.71 48.68 152.72 51.00 C 150.43 49.08 148.40 46.87 146.10 44.96 C 145.91 41.24 144.38 36.92 145.29 33.30 C 146.97 30.57 150.04 28.71 152.17 26.29 C 155.08 24.95 157.49 23.35 160.86 24.15 Z" fill="#a296b6" />
<path d="M 221.63 29.33 C 222.86 36.09 223.27 41.82 222.54 48.67 C 221.41 49.70 221.00 50.63 220.62 52.10 C 220.11 49.13 219.10 48.44 216.83 46.75 C 217.68 44.79 220.38 41.75 218.14 39.86 C 216.30 38.13 215.55 37.25 215.02 34.77 C 210.72 31.23 203.23 31.04 197.90 30.83 C 200.58 27.19 204.32 28.03 207.94 25.88 C 211.95 22.39 218.45 26.33 221.63 29.33 Z" fill="#e2dcec" />
<path d="M 42.20 25.06 C 38.44 29.21 28.59 30.44 28.07 36.67 C 29.67 36.92 31.28 37.07 32.87 37.32 C 31.34 41.90 29.62 46.34 28.70 51.12 C 28.11 50.79 27.52 50.46 26.93 50.13 C 25.40 46.91 23.40 44.37 24.47 40.62 C 24.46 32.24 35.09 26.32 42.20 25.06 Z" fill="#cec7d8" />
<path d="M 92.66 25.76 C 100.09 29.81 107.31 46.26 95.82 49.82 C 87.62 52.99 83.95 46.30 76.01 46.74 C 71.87 46.00 67.59 48.95 64.01 50.71 C 64.31 49.87 64.62 49.03 64.96 48.20 C 72.70 43.42 80.06 44.90 88.15 42.66 C 91.98 42.08 94.70 41.13 96.37 37.36 C 97.90 33.40 92.22 28.96 92.66 25.76 Z" fill="#a397b7" />
<path d="M 54.94 27.97 C 59.36 31.58 64.81 35.50 64.82 41.78 C 62.18 43.28 58.97 44.13 56.05 44.95 C 53.84 44.19 52.37 41.14 51.24 39.22 C 54.31 37.85 59.11 39.14 59.89 35.12 C 55.69 32.87 46.11 33.60 44.05 38.96 C 45.43 42.81 48.15 46.21 51.14 48.95 C 54.31 49.47 57.00 48.48 59.93 47.47 C 61.60 47.73 63.28 47.98 64.96 48.20 C 64.62 49.03 64.31 49.87 64.01 50.71 C 67.59 48.95 71.87 46.00 76.01 46.74 C 83.95 46.30 87.62 52.99 95.82 49.82 C 97.69 52.22 98.33 53.56 97.99 56.70 C 94.75 56.88 87.33 51.63 85.87 55.99 C 86.78 59.54 96.17 56.89 94.46 61.35 C 93.50 64.69 98.10 62.32 99.13 61.14 C 97.55 65.29 97.68 68.90 92.75 70.37 C 92.47 67.65 94.57 66.22 95.84 63.98 C 91.41 63.48 90.05 66.78 86.29 68.14 C 87.10 66.43 88.04 64.83 88.78 63.09 C 87.33 62.71 85.85 62.53 84.37 62.28 C 84.43 59.85 84.66 57.43 84.52 54.99 C 82.68 56.19 80.96 57.60 79.23 58.95 L 78.76 57.30 C 75.75 59.34 73.46 59.69 69.92 60.09 C 68.75 59.65 64.40 53.82 65.20 57.81 C 64.91 61.67 60.20 60.03 58.70 57.77 C 60.32 57.09 62.66 57.24 63.98 56.11 C 60.40 55.69 53.46 55.28 53.57 60.39 C 54.25 64.10 54.12 64.65 58.05 65.36 C 56.51 65.82 54.96 66.02 53.36 66.29 C 51.25 62.57 50.76 59.74 45.87 59.25 C 47.70 62.76 50.53 65.35 51.64 69.29 C 48.37 70.04 45.14 69.87 42.99 72.84 C 45.55 72.21 48.07 71.36 50.60 70.60 C 48.94 72.46 48.15 72.64 48.75 75.24 C 47.01 77.13 45.65 77.97 45.96 80.85 C 46.92 79.90 47.83 78.88 48.77 77.91 C 52.76 82.98 47.25 86.85 52.78 90.25 C 59.44 93.94 50.64 97.81 49.41 102.26 C 47.16 99.65 46.05 96.88 43.03 95.04 C 44.19 98.82 46.30 101.79 46.10 105.94 C 45.67 108.23 48.25 103.81 47.95 106.07 C 47.85 109.12 51.24 115.33 46.16 115.45 C 44.63 111.74 45.10 108.63 40.00 109.20 C 40.73 108.18 41.46 107.17 42.13 106.11 C 44.43 103.39 41.35 100.39 40.15 97.91 C 39.17 96.83 38.54 93.76 36.64 94.82 C 33.60 92.04 30.06 89.03 28.28 85.25 C 28.34 79.20 27.59 75.04 31.78 69.93 C 27.24 69.45 25.34 79.98 26.75 83.18 C 23.59 84.29 22.62 81.49 21.96 78.97 C 21.92 72.32 27.39 66.84 26.36 60.35 C 25.90 56.48 28.52 53.76 26.93 50.13 C 27.52 50.46 28.11 50.79 28.70 51.12 C 29.65 57.11 38.18 59.13 40.94 64.94 C 39.78 67.03 38.31 68.94 37.16 71.05 C 41.16 71.09 44.89 66.70 42.00 63.01 C 37.06 57.99 32.27 53.60 32.00 46.00 C 32.73 40.58 34.44 33.66 41.04 33.13 C 46.40 32.75 50.06 29.63 54.94 27.97 Z" fill="#e2dcec" />
<path d="M 91.07 28.16 C 88.49 30.90 85.12 30.97 84.00 35.02 C 84.60 38.28 91.60 37.50 89.24 33.80 C 86.32 28.94 93.74 35.55 94.09 37.02 C 91.60 43.46 79.32 38.69 82.31 32.32 C 83.61 28.30 87.31 27.63 91.07 28.16 Z" fill="#ada3bf" />
<path d="M 166.46 33.28 C 169.57 39.46 176.73 38.75 182.24 36.70 C 186.75 35.22 191.37 34.21 195.92 32.90 C 202.48 31.90 210.85 35.89 208.78 43.64 C 204.16 44.63 198.93 44.97 194.98 47.80 C 199.67 46.65 204.26 47.72 208.83 46.88 C 210.91 48.07 212.65 49.47 215.08 49.94 C 217.44 54.73 214.94 53.50 211.34 54.42 C 207.85 58.81 213.29 62.52 208.78 66.75 C 206.66 67.80 202.70 70.33 200.42 68.90 C 202.22 67.03 204.05 65.42 205.09 62.97 C 201.77 59.87 193.27 58.92 191.09 53.88 C 193.66 53.22 193.07 50.99 193.67 48.88 C 192.04 49.76 190.56 50.85 188.97 51.80 C 188.29 46.37 194.10 45.34 197.88 43.65 C 193.12 38.79 183.29 50.08 188.48 55.52 C 191.42 58.99 197.08 59.87 200.94 62.18 C 197.48 67.05 191.25 70.07 186.28 73.22 C 186.17 71.59 186.07 69.97 185.92 68.35 C 183.40 70.40 181.26 71.46 177.99 71.88 C 180.39 69.21 183.47 67.56 186.83 66.38 C 189.98 67.27 192.55 65.42 195.25 64.01 C 191.56 61.71 187.36 58.74 183.01 58.02 C 179.86 58.90 177.90 61.14 174.44 59.42 C 172.82 59.08 172.14 57.42 171.71 59.98 C 170.75 58.67 169.20 57.01 169.18 55.31 C 171.56 53.72 173.20 47.00 176.51 50.37 C 178.37 50.77 171.50 54.85 175.00 54.95 C 179.37 55.37 180.86 54.34 179.16 50.01 C 180.98 47.61 183.12 45.48 184.92 43.06 C 179.23 43.62 174.11 46.11 168.30 46.27 C 167.83 41.94 162.75 37.56 158.90 36.05 C 155.67 35.76 156.09 38.55 155.97 40.81 C 158.23 39.37 161.34 36.28 162.03 41.01 C 161.20 45.59 152.09 51.51 148.87 45.32 C 148.42 38.22 150.28 35.99 154.58 30.60 C 157.42 24.56 163.81 30.09 166.46 33.28 Z" fill="#e3dded" />
<path d="M 197.90 30.83 C 197.25 31.52 196.59 32.22 195.92 32.90 C 191.37 34.21 186.75 35.22 182.24 36.70 C 181.27 35.56 180.25 34.86 178.91 34.21 C 185.26 33.25 191.58 31.94 197.90 30.83 Z" fill="#c3bbce" />
<path d="M 197.90 30.83 C 203.23 31.04 210.72 31.23 215.02 34.77 C 215.55 37.25 216.30 38.13 218.14 39.86 C 220.38 41.75 217.68 44.79 216.83 46.75 C 216.23 47.80 215.64 48.86 215.08 49.94 C 212.65 49.47 210.91 48.07 208.83 46.88 C 204.26 47.72 199.67 46.65 194.98 47.80 C 198.93 44.97 204.16 44.63 208.78 43.64 C 210.85 35.89 202.48 31.90 195.92 32.90 C 196.59 32.22 197.25 31.52 197.90 30.83 Z" fill="#a095b6" />
<path d="M 197.88 43.65 C 194.10 45.34 188.29 46.37 188.97 51.80 C 190.56 50.85 192.04 49.76 193.67 48.88 C 193.07 50.99 193.66 53.22 191.09 53.88 C 193.27 58.92 201.77 59.87 205.09 62.97 C 204.05 65.42 202.22 67.03 200.42 68.90 C 194.02 74.92 185.30 74.93 178.49 80.02 C 175.10 79.84 177.58 82.28 176.07 84.29 C 175.60 83.29 175.11 82.30 174.61 81.31 C 167.42 84.65 164.48 90.15 161.31 96.73 C 158.26 95.98 156.01 103.00 155.02 105.16 C 154.26 104.76 153.50 104.34 152.74 103.93 C 153.20 102.99 153.64 102.04 154.07 101.08 C 154.80 99.54 155.50 97.99 156.21 96.44 C 159.70 93.24 162.11 88.85 164.80 84.99 C 166.14 83.16 164.20 77.71 166.97 77.87 C 167.54 79.98 164.61 86.59 168.75 82.77 C 173.84 77.47 180.16 76.65 186.28 73.22 C 191.25 70.07 197.48 67.05 200.94 62.18 C 197.08 59.87 191.42 58.99 188.48 55.52 C 183.29 50.08 193.12 38.79 197.88 43.65 Z" fill="#a498b8" />
<path d="M 179.16 50.01 C 180.86 54.34 179.37 55.37 175.00 54.95 C 171.50 54.85 178.37 50.77 176.51 50.37 C 173.20 47.00 171.56 53.72 169.18 55.31 C 168.89 49.06 173.95 44.79 179.16 50.01 Z" fill="#a79fb6" />
<path d="M 216.83 46.75 C 219.10 48.44 220.11 49.13 220.62 52.10 C 223.26 59.23 222.89 71.42 229.09 76.14 C 228.69 78.55 228.46 80.77 229.57 83.04 C 231.14 88.10 236.43 89.38 231.99 95.23 C 227.14 88.17 220.96 77.29 212.31 73.75 C 210.40 72.62 211.26 74.82 210.76 75.97 C 209.84 75.01 208.92 74.05 207.96 73.13 C 207.84 76.44 208.56 77.01 210.94 78.97 C 207.93 80.12 204.91 80.80 202.19 82.62 L 201.93 81.18 C 203.77 79.19 207.14 77.08 201.99 79.07 C 200.96 78.86 199.94 78.63 198.92 78.40 C 200.00 77.88 201.07 77.34 202.13 76.78 C 206.47 78.40 205.66 72.92 201.95 75.92 C 199.54 75.33 198.22 77.14 195.82 77.64 C 193.91 78.47 190.77 77.74 191.60 80.78 C 189.85 81.53 188.07 82.18 186.29 82.85 C 185.68 82.15 185.05 81.45 184.42 80.76 C 185.78 77.18 180.32 80.45 178.49 80.02 C 185.30 74.93 194.02 74.92 200.42 68.90 C 202.70 70.33 206.66 67.80 208.78 66.75 C 213.29 62.52 207.85 58.81 211.34 54.42 C 214.94 53.50 217.44 54.73 215.08 49.94 C 215.64 48.86 216.23 47.80 216.83 46.75 Z" fill="#eeedee" />
<path d="M 117.46 49.95 C 117.33 51.94 117.28 52.65 118.73 54.15 C 119.29 55.70 119.77 57.26 120.18 58.86 C 117.50 58.26 115.03 56.69 113.50 60.01 C 112.80 60.46 112.10 60.90 111.40 61.33 C 109.94 60.10 108.43 58.98 106.85 57.91 C 110.05 54.45 111.68 55.74 115.93 55.98 C 112.85 53.93 111.75 53.23 112.25 49.26 C 114.33 47.93 115.44 49.34 117.46 49.95 Z" fill="#c1c1c3" />
<path d="M 128.47 50.16 C 130.29 51.35 132.15 52.09 133.16 54.13 L 132.93 54.90 C 129.76 54.49 132.17 58.51 133.97 58.01 C 135.80 57.60 137.37 55.96 138.99 55.02 L 140.39 54.35 C 140.46 57.61 140.90 60.84 140.96 64.10 C 140.41 61.88 134.82 56.70 133.86 60.87 C 132.51 64.18 126.07 63.64 123.09 64.35 C 120.03 61.82 129.05 63.77 128.79 61.19 C 127.01 59.14 122.41 62.29 119.70 61.82 L 118.94 61.62 C 119.34 60.69 119.76 59.77 120.18 58.86 C 121.60 55.34 125.40 54.75 128.76 54.62 C 130.13 51.56 120.15 53.11 118.73 54.15 C 117.28 52.65 117.33 51.94 117.46 49.95 C 121.97 46.38 123.84 49.26 128.47 50.16 Z" fill="#70706e" />
<path d="M 136.97 52.01 C 140.47 54.46 134.44 53.86 133.16 54.13 C 132.15 52.09 130.29 51.35 128.47 50.16 C 129.59 45.67 134.80 50.84 136.97 52.01 Z" fill="#9f9fa0" />
<path d="M 142.41 47.96 C 143.82 51.12 144.13 54.42 144.52 57.82 C 143.89 63.07 145.81 67.44 143.73 72.78 C 143.19 74.92 142.68 77.06 142.12 79.19 C 141.47 78.80 140.83 78.39 140.21 77.95 C 141.03 73.43 140.92 68.68 140.96 64.10 C 140.90 60.84 140.46 57.61 140.39 54.35 C 142.46 52.90 141.87 50.22 142.41 47.96 Z" fill="#ecebbd" />
<path d="M 158.84 49.12 C 160.03 52.22 154.38 50.55 152.72 51.00 C 154.71 48.68 155.95 48.81 158.84 49.12 Z" fill="#dfd6ed" />
<path d="M 222.54 48.67 C 223.96 50.86 225.19 53.12 225.88 55.66 C 224.58 60.66 229.53 67.24 230.27 72.57 C 226.41 71.76 228.91 73.92 229.09 76.14 C 222.89 71.42 223.26 59.23 220.62 52.10 C 221.00 50.63 221.41 49.70 222.54 48.67 Z" fill="#d8cfb7" />
<path d="M 128.76 54.62 C 125.40 54.75 121.60 55.34 120.18 58.86 C 119.77 57.26 119.29 55.70 118.73 54.15 C 120.15 53.11 130.13 51.56 128.76 54.62 Z" fill="#919296" />
<path d="M 84.52 54.99 C 84.66 57.43 84.43 59.85 84.37 62.28 C 85.85 62.53 87.33 62.71 88.78 63.09 C 88.04 64.83 87.10 66.43 86.29 68.14 C 90.05 66.78 91.41 63.48 95.84 63.98 C 94.57 66.22 92.47 67.65 92.75 70.37 C 90.52 73.09 87.96 75.49 85.68 78.16 L 84.71 78.38 C 84.21 75.94 86.24 74.62 84.78 72.32 C 82.44 71.34 83.30 74.51 82.65 75.90 C 82.31 71.40 76.28 71.44 73.03 68.92 C 74.75 65.31 76.74 62.08 79.23 58.95 C 80.96 57.60 82.68 56.19 84.52 54.99 Z" fill="#c6c6c6" />
<path d="M 132.93 54.90 C 134.95 54.96 136.97 55.02 138.99 55.02 C 137.37 55.96 135.80 57.60 133.97 58.01 C 132.17 58.51 129.76 54.49 132.93 54.90 Z" fill="#c1c2b9" />
<path d="M 63.98 56.11 C 62.66 57.24 60.32 57.09 58.70 57.77 C 55.62 62.50 58.45 60.72 61.90 61.51 C 61.90 63.40 59.40 64.44 58.05 65.36 C 54.12 64.65 54.25 64.10 53.57 60.39 C 53.46 55.28 60.40 55.69 63.98 56.11 Z" fill="#aea4c0" />
<path d="M 69.92 60.09 C 74.04 66.91 68.50 71.17 62.64 73.65 C 57.20 76.23 52.44 73.26 48.77 77.91 C 47.83 78.88 46.92 79.90 45.96 80.85 C 45.65 77.97 47.01 77.13 48.75 75.24 C 56.44 69.27 64.79 74.52 69.64 66.62 C 70.69 63.50 67.57 59.72 65.20 57.81 C 64.40 53.82 68.75 59.65 69.92 60.09 Z" fill="#afa8ba" />
<path d="M 225.88 55.66 C 227.86 61.42 230.38 66.97 232.29 72.75 L 230.27 72.57 C 229.53 67.24 224.58 60.66 225.88 55.66 Z" fill="#53504c" />
<path d="M 78.76 57.30 L 79.23 58.95 C 76.74 62.08 74.75 65.31 73.03 68.92 C 70.76 72.52 69.54 75.64 68.84 79.85 C 67.57 81.22 67.69 82.37 68.20 84.06 C 68.16 87.74 66.90 91.62 67.75 95.19 C 66.90 95.83 66.04 96.44 65.15 97.03 C 65.91 94.99 66.15 93.24 65.88 91.06 C 62.07 90.64 63.35 96.74 59.80 96.70 C 57.70 97.07 55.98 99.36 54.80 100.98 C 52.80 103.86 54.21 107.36 50.11 103.82 L 49.41 102.26 C 50.64 97.81 59.44 93.94 52.78 90.25 C 47.25 86.85 52.76 82.98 48.77 77.91 C 52.44 73.26 57.20 76.23 62.64 73.65 C 68.50 71.17 74.04 66.91 69.92 60.09 C 73.46 59.69 75.75 59.34 78.76 57.30 Z" fill="#f1f0ec" />
<path d="M 58.70 57.77 C 60.20 60.03 64.91 61.67 65.20 57.81 C 67.57 59.72 70.69 63.50 69.64 66.62 C 64.79 74.52 56.44 69.27 48.75 75.24 C 48.15 72.64 48.94 72.46 50.60 70.60 L 51.64 69.29 C 52.37 68.38 52.86 67.34 53.36 66.29 C 54.96 66.02 56.51 65.82 58.05 65.36 C 59.40 64.44 61.90 63.40 61.90 61.51 C 58.45 60.72 55.62 62.50 58.70 57.77 Z" fill="#f1eef1" />
<path d="M 106.85 57.91 C 108.43 58.98 109.94 60.10 111.40 61.33 C 107.37 65.08 106.45 62.03 102.04 61.22 C 102.42 63.64 100.63 66.55 104.42 65.51 C 108.45 64.67 102.55 67.56 101.72 67.99 C 95.55 70.66 92.43 76.50 86.26 79.17 L 85.68 78.16 C 87.96 75.49 90.52 73.09 92.75 70.37 C 97.68 68.90 97.55 65.29 99.13 61.14 C 101.32 59.48 104.25 58.68 106.85 57.91 Z" fill="#9f9f9f" />
<path d="M 120.18 58.86 C 119.76 59.77 119.34 60.69 118.94 61.62 C 117.10 61.17 115.29 60.61 113.50 60.01 C 115.03 56.69 117.50 58.26 120.18 58.86 Z" fill="#969698" />
<path d="M 144.52 57.82 C 146.18 59.16 147.73 60.57 149.23 62.09 C 148.81 63.43 148.35 64.76 147.81 66.06 C 144.40 65.54 148.34 72.45 150.41 72.39 C 148.08 75.06 146.22 78.04 144.20 80.93 C 143.98 78.22 143.85 75.50 143.73 72.78 C 145.81 67.44 143.89 63.07 144.52 57.82 Z" fill="#707168" />
<path d="M 174.44 59.42 C 177.90 61.14 179.86 58.90 183.01 58.02 C 187.36 58.74 191.56 61.71 195.25 64.01 C 192.55 65.42 189.98 67.27 186.83 66.38 C 187.74 65.53 193.01 63.37 189.43 62.59 C 183.36 58.45 177.33 65.29 171.71 59.98 C 172.14 57.42 172.82 59.08 174.44 59.42 Z" fill="#a296b3" />
<path d="M 45.87 59.25 C 50.76 59.74 51.25 62.57 53.36 66.29 C 52.86 67.34 52.37 68.38 51.64 69.29 C 50.53 65.35 47.70 62.76 45.87 59.25 Z" fill="#aba2bd" />
<path d="M 140.96 64.10 C 140.92 68.68 141.03 73.43 140.21 77.95 C 137.99 76.20 135.97 74.54 133.11 73.99 C 134.47 76.99 136.83 78.48 139.37 80.37 C 139.11 82.32 138.61 84.21 138.57 86.19 C 138.11 89.29 137.21 92.30 136.62 95.39 C 135.24 95.05 133.83 94.71 132.50 94.21 C 131.03 88.31 125.79 86.29 121.13 83.18 C 121.16 84.12 121.21 85.05 121.28 85.99 C 119.47 87.89 118.85 85.69 117.32 84.71 C 111.10 81.58 111.42 75.43 104.94 72.92 C 105.04 69.73 106.00 69.56 108.90 69.34 C 114.21 69.40 117.67 65.70 123.09 64.35 C 126.07 63.64 132.51 64.18 133.86 60.87 C 134.82 56.70 140.41 61.88 140.96 64.10 Z" fill="#5f5f5c" />
<path d="M 113.50 60.01 C 113.55 63.05 123.47 66.64 119.70 61.82 C 122.41 62.29 127.01 59.14 128.79 61.19 C 129.05 63.77 120.03 61.82 123.09 64.35 C 117.67 65.70 114.21 69.40 108.90 69.34 C 106.00 69.56 105.04 69.73 104.94 72.92 C 102.78 72.08 101.04 70.48 101.72 67.99 C 102.55 67.56 108.45 64.67 104.42 65.51 C 100.63 66.55 102.42 63.64 102.04 61.22 C 106.45 62.03 107.37 65.08 111.40 61.33 C 112.10 60.90 112.80 60.46 113.50 60.01 Z" fill="#88878b" />
<path d="M 113.50 60.01 C 115.29 60.61 117.10 61.17 118.94 61.62 L 119.70 61.82 C 123.47 66.64 113.55 63.05 113.50 60.01 Z" fill="#cdcdcf" />
<path d="M 149.23 62.09 C 151.76 63.78 154.28 65.38 156.36 67.64 C 153.51 67.07 150.72 66.32 147.81 66.06 C 148.35 64.76 148.81 63.43 149.23 62.09 Z" fill="#bbbcb5" />
<path d="M 147.81 66.06 C 150.72 66.32 153.51 67.07 156.36 67.64 C 161.13 70.69 165.17 71.79 170.17 73.86 C 167.17 76.05 163.45 71.81 162.32 75.04 C 162.03 69.80 155.97 79.59 155.19 80.95 C 154.90 77.18 152.79 80.95 151.67 81.96 C 149.79 81.87 147.97 80.62 146.13 80.14 C 145.78 81.87 149.83 83.58 150.92 84.92 C 147.95 87.68 142.61 82.27 142.12 79.19 C 142.68 77.06 143.19 74.92 143.73 72.78 C 143.85 75.50 143.98 78.22 144.20 80.93 C 146.22 78.04 148.08 75.06 150.41 72.39 C 148.34 72.45 144.40 65.54 147.81 66.06 Z" fill="#92938a" />
<path d="M 101.72 67.99 C 101.04 70.48 102.78 72.08 104.94 72.92 C 107.17 75.34 101.10 75.97 99.69 77.31 C 93.63 78.69 88.95 83.32 85.50 88.31 C 83.69 88.35 81.84 87.96 80.04 87.73 L 78.87 86.78 L 78.94 85.88 C 81.32 83.58 83.92 81.52 86.26 79.17 C 92.43 76.50 95.55 70.66 101.72 67.99 Z" fill="#cbccc8" />
<path d="M 51.64 69.29 L 50.60 70.60 C 48.07 71.36 45.55 72.21 42.99 72.84 C 45.14 69.87 48.37 70.04 51.64 69.29 Z" fill="#b3aabc" />
<path d="M 73.03 68.92 C 76.28 71.44 82.31 71.40 82.65 75.90 C 83.30 74.51 82.44 71.34 84.78 72.32 C 86.24 74.62 84.21 75.94 84.71 78.38 C 83.56 79.60 82.44 80.82 81.17 81.89 C 79.96 79.54 81.69 74.99 79.05 73.89 C 76.15 77.09 71.60 78.55 70.56 82.69 C 69.96 81.76 69.40 80.80 68.84 79.85 C 69.54 75.64 70.76 72.52 73.03 68.92 Z" fill="#88878d" />
<path d="M 31.78 69.93 C 27.59 75.04 28.34 79.20 28.28 85.25 C 27.77 84.56 27.27 83.87 26.75 83.18 C 25.34 79.98 27.24 69.45 31.78 69.93 Z" fill="#a79cb7" />
<path d="M 230.27 72.57 L 232.29 72.75 C 233.65 76.34 233.97 80.05 234.37 83.84 C 234.60 89.94 237.34 99.24 233.06 104.29 C 229.75 96.93 224.75 90.47 220.23 83.76 C 217.50 80.79 215.45 75.74 210.76 75.97 C 211.26 74.82 210.40 72.62 212.31 73.75 C 220.96 77.29 227.14 88.17 231.99 95.23 C 236.43 89.38 231.14 88.10 229.57 83.04 C 230.30 80.52 230.93 78.36 229.09 76.14 C 228.91 73.92 226.41 71.76 230.27 72.57 Z" fill="#27273d" />
<path d="M 104.94 72.92 C 111.42 75.43 111.10 81.58 117.32 84.71 C 118.85 85.69 119.47 87.89 121.28 85.99 C 122.50 89.63 131.85 92.07 127.37 96.34 C 125.91 99.34 125.08 104.73 127.69 107.28 C 129.41 109.11 129.91 113.65 127.61 115.17 C 127.14 114.04 126.64 112.93 126.10 111.84 C 124.01 117.67 117.69 118.33 116.18 124.15 C 114.86 127.12 111.88 136.11 114.94 138.17 C 117.13 134.75 118.08 133.07 122.18 131.77 C 123.97 132.39 123.87 133.62 124.45 135.18 L 123.85 135.89 C 120.89 137.65 117.63 133.46 117.59 137.79 C 117.53 142.54 120.23 146.36 118.78 151.84 C 118.34 152.93 117.92 154.03 117.47 155.12 C 116.99 153.72 116.70 152.60 115.38 151.77 C 114.36 148.99 116.58 138.11 111.10 143.00 C 110.29 142.29 109.50 141.54 108.75 140.76 C 110.09 137.25 111.37 133.82 111.83 130.07 C 107.93 129.26 108.64 133.58 107.21 136.04 C 107.34 133.32 105.49 126.96 109.15 126.19 C 114.31 124.20 112.73 117.67 117.69 114.67 C 124.04 109.14 119.89 104.63 121.69 97.82 C 121.59 96.05 123.16 93.47 120.19 94.16 C 119.72 100.15 120.72 105.56 117.33 110.99 C 116.33 103.38 112.75 97.55 110.69 90.32 C 107.92 87.96 103.38 84.55 100.15 83.03 C 100.21 85.05 100.60 86.99 101.00 88.97 C 99.74 87.25 98.65 85.50 97.16 83.95 C 96.52 88.00 97.62 91.42 99.51 94.94 C 102.59 101.27 106.55 107.79 105.56 115.14 C 104.85 125.12 97.50 134.15 104.05 144.08 C 104.06 148.03 103.79 146.28 101.25 145.39 C 100.69 147.64 101.47 150.02 99.00 151.15 C 95.59 149.01 96.30 145.20 92.84 150.02 C 91.12 149.89 87.73 146.81 87.77 150.08 C 84.82 151.51 84.59 150.82 82.31 148.90 C 81.59 147.81 76.60 144.70 78.99 143.49 C 82.26 145.79 81.31 143.40 82.14 140.82 C 84.45 142.96 87.02 146.06 90.11 146.95 C 93.77 147.95 93.63 143.57 93.99 141.12 C 87.98 134.27 84.94 125.79 83.00 117.02 C 81.58 110.21 85.32 105.07 81.32 98.78 C 79.92 97.15 81.13 90.41 78.05 93.53 C 76.21 90.25 77.74 89.85 80.04 87.73 C 81.84 87.96 83.69 88.35 85.50 88.31 C 88.95 83.32 93.63 78.69 99.69 77.31 C 101.10 75.97 107.17 75.34 104.94 72.92 Z" fill="#8f8c8a" />
<path d="M 162.32 75.04 C 159.90 80.27 155.05 82.35 155.29 88.47 C 152.29 91.05 150.98 92.53 149.93 96.46 C 147.81 99.23 147.57 102.86 145.91 105.95 C 144.84 112.28 140.82 120.93 137.36 126.17 C 139.42 122.04 137.36 117.65 140.20 114.24 C 142.40 110.51 143.71 106.21 145.06 102.11 C 148.81 95.22 151.34 87.70 155.19 80.95 C 155.97 79.59 162.03 69.80 162.32 75.04 Z" fill="#e5e3c0" />
<path d="M 170.17 73.86 C 173.97 78.56 170.56 77.21 166.97 77.87 C 164.20 77.71 166.14 83.16 164.80 84.99 C 159.51 80.92 158.52 87.48 155.95 90.98 C 154.59 93.17 155.31 94.26 156.21 96.44 C 155.50 97.99 154.80 99.54 154.07 101.08 C 152.23 101.88 150.73 104.54 149.89 101.12 C 150.82 99.08 150.97 98.53 149.93 96.46 C 150.98 92.53 152.29 91.05 155.29 88.47 C 155.05 82.35 159.90 80.27 162.32 75.04 C 163.45 71.81 167.17 76.05 170.17 73.86 Z" fill="#69656e" />
<path d="M 207.96 73.13 C 208.92 74.05 209.84 75.01 210.76 75.97 C 216.67 80.41 218.13 86.04 222.02 91.98 C 227.24 101.94 230.02 112.95 229.89 124.20 C 229.31 122.40 228.75 120.60 228.19 118.79 C 227.08 108.79 224.93 99.23 219.17 90.80 C 217.89 87.79 216.29 84.81 214.24 82.25 C 213.22 81.08 212.11 79.99 210.94 78.97 C 208.56 77.01 207.84 76.44 207.96 73.13 Z" fill="#383a49" />
<path d="M 79.05 73.89 C 81.69 74.99 79.96 79.54 81.17 81.89 C 82.44 80.82 83.56 79.60 84.71 78.38 L 85.68 78.16 L 86.26 79.17 C 83.92 81.52 81.32 83.58 78.94 85.88 C 77.52 86.29 74.68 86.42 74.08 88.02 C 72.70 91.63 71.32 94.04 68.86 97.01 C 68.49 96.41 68.12 95.80 67.75 95.19 C 66.90 91.62 68.16 87.74 68.20 84.06 C 69.37 82.75 69.63 81.46 68.84 79.85 C 69.40 80.80 69.96 81.76 70.56 82.69 C 71.60 78.55 76.15 77.09 79.05 73.89 Z" fill="#676764" />
<path d="M 133.11 73.99 C 135.97 74.54 137.99 76.20 140.21 77.95 C 140.83 78.39 141.47 78.80 142.12 79.19 C 141.79 81.08 141.34 82.94 140.84 84.79 C 140.08 85.25 139.32 85.72 138.57 86.19 C 138.61 84.21 139.11 82.32 139.37 80.37 C 136.83 78.48 134.47 76.99 133.11 73.99 Z" fill="#a8a793" />
<path d="M 201.95 75.92 L 202.13 76.78 C 201.07 77.34 200.00 77.88 198.92 78.40 C 198.31 78.58 197.69 78.77 197.08 78.95 C 195.19 79.40 193.39 80.04 191.60 80.78 C 190.77 77.74 193.91 78.47 195.82 77.64 C 198.22 77.14 199.54 75.33 201.95 75.92 Z" fill="#a2a1ad" />
<path d="M 202.13 76.78 L 201.95 75.92 C 205.66 72.92 206.47 78.40 202.13 76.78 Z" fill="#4a4a56" />
<path d="M 229.09 76.14 C 230.93 78.36 230.30 80.52 229.57 83.04 C 228.46 80.77 228.69 78.55 229.09 76.14 Z" fill="#6f6f74" />
<path d="M 38.08 78.13 C 39.71 79.50 39.11 85.37 40.32 87.82 C 40.81 89.56 41.42 91.26 41.85 93.02 C 37.74 89.78 37.68 82.85 38.08 78.13 Z" fill="#b4abc5" />
<path d="M 198.92 78.40 C 199.94 78.63 200.96 78.86 201.99 79.07 C 197.92 81.42 191.14 83.73 191.16 89.25 C 188.77 92.84 184.04 93.42 180.11 93.96 C 181.05 92.55 182.10 91.25 183.17 89.93 C 188.05 87.06 193.20 83.09 197.08 78.95 C 197.69 78.77 198.31 78.58 198.92 78.40 Z" fill="#d4d4d6" />
<path d="M 201.93 81.18 C 199.45 83.36 197.40 85.96 195.83 88.86 C 193.88 92.85 187.33 94.72 186.38 99.18 C 184.80 99.56 183.30 99.78 181.92 100.74 C 184.59 101.06 187.26 101.01 189.94 100.86 L 190.03 101.72 C 185.26 102.81 180.89 101.26 176.99 103.77 C 172.21 106.85 167.63 110.08 163.63 114.10 C 163.63 112.67 162.80 109.97 163.76 108.89 C 168.31 107.13 172.84 104.60 176.75 101.68 C 176.88 97.90 174.11 95.32 175.07 91.64 C 176.10 89.87 177.23 88.43 178.71 87.01 C 177.47 91.48 180.42 88.85 183.17 89.93 C 182.10 91.25 181.05 92.55 180.11 93.96 C 184.04 93.42 188.77 92.84 191.16 89.25 C 191.14 83.73 197.92 81.42 201.99 79.07 C 207.14 77.08 203.77 79.19 201.93 81.18 Z" fill="#a4a4a6" />
<path d="M 142.12 79.19 C 142.61 82.27 147.95 87.68 150.92 84.92 C 149.83 83.58 145.78 81.87 146.13 80.14 C 147.97 80.62 149.79 81.87 151.67 81.96 C 152.79 80.95 154.90 77.18 155.19 80.95 C 151.34 87.70 148.81 95.22 145.06 102.11 C 142.78 99.21 141.45 98.06 137.96 96.96 C 138.80 92.86 139.65 88.81 140.84 84.79 C 141.34 82.94 141.79 81.08 142.12 79.19 Z" fill="#626260" />
<path d="M 184.42 80.76 C 182.10 82.51 180.44 84.72 178.71 87.01 C 177.23 88.43 176.10 89.87 175.07 91.64 C 167.30 98.52 161.73 107.64 154.70 115.28 C 154.97 113.54 155.42 111.86 155.92 110.18 C 161.45 103.97 168.63 95.55 172.21 88.12 C 173.54 86.92 174.95 85.69 176.07 84.29 C 177.58 82.28 175.10 79.84 178.49 80.02 C 180.32 80.45 185.78 77.18 184.42 80.76 Z" fill="#eae6c4" />
<path d="M 197.08 78.95 C 193.20 83.09 188.05 87.06 183.17 89.93 C 180.42 88.85 177.47 91.48 178.71 87.01 C 181.56 88.60 183.98 84.15 186.29 82.85 C 188.07 82.18 189.85 81.53 191.60 80.78 C 193.39 80.04 195.19 79.40 197.08 78.95 Z" fill="#575663" />
<path d="M 210.94 78.97 C 212.11 79.99 213.22 81.08 214.24 82.25 C 208.93 82.03 209.36 84.01 207.04 87.99 C 202.95 86.33 202.47 88.40 199.82 90.91 C 196.92 94.38 194.36 96.00 196.94 100.61 C 194.60 100.67 192.27 100.58 189.94 100.86 C 187.26 101.01 184.59 101.06 181.92 100.74 C 183.30 99.78 184.80 99.56 186.38 99.18 C 187.33 94.72 193.88 92.85 195.83 88.86 C 197.40 85.96 199.45 83.36 201.93 81.18 L 202.19 82.62 C 204.91 80.80 207.93 80.12 210.94 78.97 Z" fill="#d2d1d2" />
<path d="M 68.84 79.85 C 69.63 81.46 69.37 82.75 68.20 84.06 C 67.69 82.37 67.57 81.22 68.84 79.85 Z" fill="#a9a89f" />
<path d="M 174.61 81.31 C 175.11 82.30 175.60 83.29 176.07 84.29 C 174.95 85.69 173.54 86.92 172.21 88.12 C 165.81 91.20 164.49 97.59 159.02 102.04 C 159.62 100.18 160.34 98.44 161.31 96.73 C 164.48 90.15 167.42 84.65 174.61 81.31 Z" fill="#ddd9e8" />
<path d="M 184.42 80.76 C 185.05 81.45 185.68 82.15 186.29 82.85 C 183.98 84.15 181.56 88.60 178.71 87.01 C 180.44 84.72 182.10 82.51 184.42 80.76 Z" fill="#9c979a" />
<path d="M 214.24 82.25 C 216.29 84.81 217.89 87.79 219.17 90.80 C 218.95 93.61 219.82 95.37 221.11 97.73 C 219.26 99.01 215.75 108.14 219.92 107.74 C 215.66 115.16 211.14 122.91 208.62 131.12 C 208.20 130.05 207.83 128.95 207.51 127.83 L 207.81 126.06 C 208.13 122.93 210.79 118.41 208.92 115.59 C 206.14 110.50 210.72 103.66 211.25 98.11 C 212.20 93.58 211.40 90.24 206.70 88.75 L 207.04 87.99 C 209.36 84.01 208.93 82.03 214.24 82.25 Z" fill="#8c8a8b" />
<path d="M 100.15 83.03 C 103.38 84.55 107.92 87.96 110.69 90.32 C 112.75 97.55 116.33 103.38 117.33 110.99 C 120.72 105.56 119.72 100.15 120.19 94.16 C 123.16 93.47 121.59 96.05 121.69 97.82 C 119.89 104.63 124.04 109.14 117.69 114.67 C 112.73 117.67 114.31 124.20 109.15 126.19 C 105.49 126.96 107.34 133.32 107.21 136.04 C 108.64 133.58 107.93 129.26 111.83 130.07 C 111.37 133.82 110.09 137.25 108.75 140.76 C 106.83 144.51 111.36 147.60 110.02 152.00 C 110.07 155.78 104.67 156.82 103.05 159.17 C 102.70 161.54 103.40 163.54 104.03 165.78 C 102.33 170.15 105.55 172.16 109.38 169.81 L 109.93 170.28 C 109.66 172.19 109.36 174.10 109.04 176.00 C 106.08 177.27 103.16 175.37 100.01 177.37 C 97.64 176.40 97.16 173.97 96.09 171.87 L 96.08 170.99 C 102.95 173.65 100.47 169.44 100.46 164.81 C 99.36 157.24 93.80 160.89 90.24 155.77 C 89.00 154.18 88.47 151.96 87.77 150.08 C 87.73 146.81 91.12 149.89 92.84 150.02 C 89.43 152.38 92.52 155.34 95.62 154.62 C 100.15 154.63 101.63 154.07 105.47 151.86 C 105.76 153.48 103.95 157.73 106.76 154.72 C 111.11 151.05 107.80 146.57 104.05 144.08 C 97.50 134.15 104.85 125.12 105.56 115.14 C 106.55 107.79 102.59 101.27 99.51 94.94 C 101.43 93.57 103.13 98.11 104.74 99.01 C 103.66 95.23 104.01 91.99 101.00 88.97 C 100.60 86.99 100.21 85.05 100.15 83.03 Z" fill="#eedcaf" />
<path d="M 121.13 83.18 C 125.79 86.29 131.03 88.31 132.50 94.21 C 133.83 94.71 135.24 95.05 136.62 95.39 C 137.05 95.92 137.50 96.45 137.96 96.96 C 141.45 98.06 142.78 99.21 145.06 102.11 C 143.71 106.21 142.40 110.51 140.20 114.24 C 137.36 117.65 139.42 122.04 137.36 126.17 C 140.82 120.93 144.84 112.28 145.91 105.95 C 147.91 104.62 148.86 103.26 149.89 101.12 C 150.73 104.54 152.23 101.88 154.07 101.08 C 153.64 102.04 153.20 102.99 152.74 103.93 C 150.37 104.26 148.21 105.81 147.75 108.25 C 146.64 113.98 142.68 120.77 143.23 126.67 C 144.47 127.15 145.73 127.57 147.03 127.87 C 150.38 124.39 152.81 119.71 154.70 115.28 C 161.73 107.64 167.30 98.52 175.07 91.64 C 174.11 95.32 176.88 97.90 176.75 101.68 C 172.84 104.60 168.31 107.13 163.76 108.89 C 162.80 109.97 163.63 112.67 163.63 114.10 C 161.78 115.70 159.64 116.84 157.98 118.70 C 159.61 118.53 161.23 118.28 162.86 118.12 C 159.56 121.91 157.82 126.55 152.63 127.63 C 147.61 128.16 149.81 133.18 148.42 136.77 C 147.92 143.07 147.06 143.68 141.03 143.69 C 137.79 143.58 135.85 146.13 132.23 145.70 C 130.10 146.02 128.35 147.14 126.09 146.92 C 125.45 141.39 131.39 137.22 127.01 132.17 C 132.10 125.79 126.36 122.87 127.61 115.17 C 129.91 113.65 129.41 109.11 127.69 107.28 C 125.08 104.73 125.91 99.34 127.37 96.34 C 131.85 92.07 122.50 89.63 121.28 85.99 C 121.21 85.05 121.16 84.12 121.13 83.18 Z" fill="#858386" />
<path d="M 164.80 84.99 C 162.11 88.85 159.70 93.24 156.21 96.44 C 155.31 94.26 154.59 93.17 155.95 90.98 C 158.52 87.48 159.51 80.92 164.80 84.99 Z" fill="#956ecc" />
<path d="M 44.14 84.01 C 46.34 84.26 46.45 87.70 47.83 89.19 C 49.92 92.27 54.67 92.44 49.41 95.72 C 46.77 92.11 44.48 88.61 44.14 84.01 Z" fill="#a398b6" />
<path d="M 97.16 83.95 C 98.65 85.50 99.74 87.25 101.00 88.97 C 104.01 91.99 103.66 95.23 104.74 99.01 C 103.13 98.11 101.43 93.57 99.51 94.94 C 97.62 91.42 96.52 88.00 97.16 83.95 Z" fill="#c1b89c" />
<path d="M 140.84 84.79 C 139.65 88.81 138.80 92.86 137.96 96.96 C 137.50 96.45 137.05 95.92 136.62 95.39 C 137.21 92.30 138.11 89.29 138.57 86.19 C 139.32 85.72 140.08 85.25 140.84 84.79 Z" fill="#d4d4bd" />
<path d="M 78.94 85.88 L 78.87 86.78 C 77.02 87.94 75.71 91.31 74.08 88.02 C 74.68 86.42 77.52 86.29 78.94 85.88 Z" fill="#a59c8b" />
<path d="M 78.87 86.78 L 80.04 87.73 C 77.74 89.85 76.21 90.25 78.05 93.53 C 81.13 90.41 79.92 97.15 81.32 98.78 C 85.32 105.07 81.58 110.21 83.00 117.02 C 84.94 125.79 87.98 134.27 93.99 141.12 C 93.63 143.57 93.77 147.95 90.11 146.95 C 87.02 146.06 84.45 142.96 82.14 140.82 L 81.82 139.94 C 83.49 139.21 85.99 140.33 84.33 137.68 C 79.02 129.18 67.19 124.70 60.32 117.67 C 57.14 112.98 57.77 120.04 55.82 112.80 C 60.20 110.50 62.08 117.07 64.78 119.24 C 65.76 120.33 68.00 122.58 69.59 121.75 C 70.08 119.69 66.18 119.12 64.78 119.24 C 64.89 113.68 72.39 122.06 74.92 122.03 C 72.31 117.52 65.20 114.51 67.33 108.34 C 68.45 102.96 75.08 104.04 73.20 98.86 C 72.13 95.54 71.83 96.32 68.86 97.01 C 71.32 94.04 72.70 91.63 74.08 88.02 C 75.71 91.31 77.02 87.94 78.87 86.78 Z" fill="#efe0af" />
<path d="M 207.04 87.99 L 206.70 88.75 C 205.37 90.85 204.20 92.92 202.40 94.69 C 201.51 93.45 200.66 92.18 199.82 90.91 C 202.47 88.40 202.95 86.33 207.04 87.99 Z" fill="#afa7a8" />
<path d="M 172.21 88.12 C 168.63 95.55 161.45 103.97 155.92 110.18 L 154.94 109.79 C 155.65 108.22 156.37 106.67 157.05 105.09 C 158.73 104.41 159.03 103.84 159.02 102.04 C 164.49 97.59 165.81 91.20 172.21 88.12 Z" fill="#7f7d7b" />
<path d="M 206.70 88.75 C 211.40 90.24 212.20 93.58 211.25 98.11 C 206.96 100.37 205.05 104.13 202.45 107.96 C 199.41 106.20 194.94 98.76 191.90 103.94 C 190.13 106.51 190.43 102.87 190.03 101.72 L 189.94 100.86 C 192.27 100.58 194.60 100.67 196.94 100.61 C 194.36 96.00 196.92 94.38 199.82 90.91 C 200.66 92.18 201.51 93.45 202.40 94.69 C 204.20 92.92 205.37 90.85 206.70 88.75 Z" fill="#886e6f" />
<path d="M 65.88 91.06 C 66.15 93.24 65.91 94.99 65.15 97.03 C 61.81 99.32 61.02 99.80 63.96 103.19 C 66.39 101.68 67.79 99.62 68.86 97.01 C 71.83 96.32 72.13 95.54 73.20 98.86 C 75.08 104.04 68.45 102.96 67.33 108.34 C 65.20 114.51 72.31 117.52 74.92 122.03 C 72.39 122.06 64.89 113.68 64.78 119.24 C 62.08 117.07 60.20 110.50 55.82 112.80 C 57.74 109.18 54.96 105.03 54.80 100.98 C 55.98 99.36 57.70 97.07 59.80 96.70 C 63.35 96.74 62.07 90.64 65.88 91.06 Z" fill="#838278" />
<path d="M 40.15 97.91 C 41.35 100.39 44.43 103.39 42.13 106.11 C 40.61 102.19 38.60 98.53 36.64 94.82 C 38.54 93.76 39.17 96.83 40.15 97.91 Z" fill="#afa6bb" />
<path d="M 43.03 95.04 C 46.05 96.88 47.16 99.65 49.41 102.26 L 50.11 103.82 C 50.99 106.50 51.23 107.10 53.64 108.47 C 56.14 110.77 51.79 112.93 52.52 116.06 C 52.72 119.78 52.72 119.41 49.38 121.16 C 51.81 125.87 49.63 123.29 46.79 122.11 C 44.93 121.12 43.76 119.69 41.56 120.90 C 41.11 120.63 40.65 120.37 40.19 120.10 C 36.72 115.43 47.07 120.68 46.16 115.45 C 51.24 115.33 47.85 109.12 47.95 106.07 C 48.25 103.81 45.67 108.23 46.10 105.94 C 46.30 101.79 44.19 98.82 43.03 95.04 Z" fill="#a190ba" />
<path d="M 67.75 95.19 C 68.12 95.80 68.49 96.41 68.86 97.01 C 67.79 99.62 66.39 101.68 63.96 103.19 C 61.02 99.80 61.81 99.32 65.15 97.03 C 66.04 96.44 66.90 95.83 67.75 95.19 Z" fill="#d1d1d0" />
<path d="M 144.38 95.27 C 147.29 94.03 145.47 99.96 143.64 98.42 C 142.75 97.45 143.54 95.98 144.38 95.27 Z" fill="#acaba6" />
<path d="M 161.31 96.73 C 160.34 98.44 159.62 100.18 159.02 102.04 C 157.24 102.53 156.75 103.26 157.05 105.09 L 155.02 105.16 C 156.01 103.00 158.26 95.98 161.31 96.73 Z" fill="#736a7c" />
<path d="M 149.93 96.46 C 150.97 98.53 150.82 99.08 149.89 101.12 C 148.86 103.26 147.91 104.62 145.91 105.95 C 147.57 102.86 147.81 99.23 149.93 96.46 Z" fill="#b5b49f" />
<path d="M 211.25 98.11 C 210.72 103.66 206.14 110.50 208.92 115.59 C 205.98 117.01 206.20 122.17 206.09 124.94 C 205.71 127.36 204.80 129.58 203.89 131.84 C 200.77 139.06 195.85 144.87 190.78 150.77 L 189.21 150.98 C 189.66 148.16 189.23 146.82 187.00 144.95 C 184.44 143.13 186.03 139.72 182.89 138.46 C 183.98 137.50 185.08 136.56 186.18 135.60 C 187.94 134.74 185.54 133.93 184.99 133.02 C 188.36 130.38 192.53 130.15 193.59 125.61 C 193.79 123.94 195.92 127.76 196.67 126.52 C 198.25 125.44 199.70 124.14 201.08 122.81 C 203.03 120.31 203.50 117.93 202.05 115.01 C 208.19 115.06 202.29 109.72 202.05 115.01 C 196.97 113.82 201.47 110.88 202.45 107.96 C 205.05 104.13 206.96 100.37 211.25 98.11 Z" fill="#cc9495" />
<path d="M 221.11 97.73 C 229.04 112.21 226.08 133.07 223.26 148.71 C 220.18 150.96 219.12 154.56 216.23 157.01 C 215.98 154.42 215.93 151.78 215.83 149.18 C 215.54 146.18 219.55 139.88 213.87 141.40 C 216.16 139.48 217.63 139.20 216.88 135.74 C 213.97 135.47 210.23 133.50 208.62 131.12 C 211.14 122.91 215.66 115.16 219.92 107.74 C 215.75 108.14 219.26 99.01 221.11 97.73 Z" fill="#dadada" />
<path d="M 54.80 100.98 C 54.96 105.03 57.74 109.18 55.82 112.80 C 54.72 113.88 53.60 114.95 52.52 116.06 C 51.79 112.93 56.14 110.77 53.64 108.47 C 51.23 107.10 50.99 106.50 50.11 103.82 C 54.21 107.36 52.80 103.86 54.80 100.98 Z" fill="#e0d8c5" />
<path d="M 159.02 102.04 C 159.03 103.84 158.73 104.41 157.05 105.09 C 156.75 103.26 157.24 102.53 159.02 102.04 Z" fill="#d1cec9" />
<path d="M 190.03 101.72 C 190.43 102.87 190.13 106.51 191.90 103.94 C 194.94 98.76 199.41 106.20 202.45 107.96 C 201.47 110.88 196.97 113.82 202.05 115.01 C 203.50 117.93 203.03 120.31 201.08 122.81 C 201.09 120.16 199.46 122.40 198.07 122.65 C 198.07 118.91 201.41 115.15 195.24 116.07 C 197.63 113.83 198.36 112.98 197.99 109.51 C 194.07 109.58 190.99 111.73 191.51 106.04 C 189.12 108.56 187.56 111.67 185.12 114.18 C 185.84 117.45 189.17 113.44 191.11 113.18 C 189.59 116.22 187.75 120.07 184.04 117.13 C 184.98 119.25 186.44 120.13 188.36 121.28 C 183.90 123.85 179.43 126.37 174.64 128.27 C 175.12 125.40 177.90 126.14 174.46 123.72 C 176.07 120.22 178.14 119.02 175.67 115.12 C 177.32 112.68 179.73 111.71 178.86 108.30 C 177.28 108.05 175.72 107.93 174.13 107.75 C 174.97 106.59 181.44 103.75 176.99 103.77 C 180.89 101.26 185.26 102.81 190.03 101.72 Z" fill="#504b5e" />
<path d="M 152.74 103.93 C 153.50 104.34 154.26 104.76 155.02 105.16 C 152.75 110.43 148.17 114.63 147.26 120.17 C 150.25 117.31 151.48 112.66 154.94 109.79 L 155.92 110.18 C 155.42 111.86 154.97 113.54 154.70 115.28 C 152.81 119.71 150.38 124.39 147.03 127.87 C 145.73 127.57 144.47 127.15 143.23 126.67 C 142.68 120.77 146.64 113.98 147.75 108.25 C 148.21 105.81 150.37 104.26 152.74 103.93 Z" fill="#9479c4" />
<path d="M 176.99 103.77 C 181.44 103.75 174.97 106.59 174.13 107.75 C 175.72 107.93 177.28 108.05 178.86 108.30 C 179.73 111.71 177.32 112.68 175.67 115.12 C 178.14 119.02 176.07 120.22 174.46 123.72 C 177.90 126.14 175.12 125.40 174.64 128.27 C 168.81 130.76 159.97 137.89 153.93 133.25 C 151.73 134.31 151.47 142.43 148.42 136.77 C 149.81 133.18 147.61 128.16 152.63 127.63 C 157.82 126.55 159.56 121.91 162.86 118.12 C 161.23 118.28 159.61 118.53 157.98 118.70 C 159.64 116.84 161.78 115.70 163.63 114.10 C 167.63 110.08 172.21 106.85 176.99 103.77 Z" fill="#3d3f54" />
<path d="M 155.02 105.16 L 157.05 105.09 C 156.37 106.67 155.65 108.22 154.94 109.79 C 151.48 112.66 150.25 117.31 147.26 120.17 C 148.17 114.63 152.75 110.43 155.02 105.16 Z" fill="#d3c0ed" />
<path d="M 191.51 106.04 C 190.99 111.73 194.07 109.58 197.99 109.51 C 198.36 112.98 197.63 113.83 195.24 116.07 C 193.14 118.10 191.04 120.03 188.36 121.28 C 186.44 120.13 184.98 119.25 184.04 117.13 C 187.75 120.07 189.59 116.22 191.11 113.18 C 189.17 113.44 185.84 117.45 185.12 114.18 C 187.56 111.67 189.12 108.56 191.51 106.04 Z" fill="#3c384e" />
<path d="M 30.28 109.22 C 33.70 109.48 36.61 110.55 40.00 109.20 C 45.10 108.63 44.63 111.74 46.16 115.45 C 47.07 120.68 36.72 115.43 40.19 120.10 C 39.65 122.08 34.15 129.87 32.82 125.02 C 34.42 123.34 36.33 122.03 37.96 120.37 C 35.83 120.01 33.83 119.92 31.82 119.07 C 33.57 119.05 35.32 118.95 37.06 118.76 C 34.65 117.83 32.09 117.31 29.70 116.33 C 28.95 113.89 29.46 111.58 30.28 109.22 Z" fill="#88888e" />
<path d="M 126.10 111.84 C 126.09 117.83 126.04 126.85 122.18 131.77 C 118.08 133.07 117.13 134.75 114.94 138.17 C 111.88 136.11 114.86 127.12 116.18 124.15 C 117.69 118.33 124.01 117.67 126.10 111.84 Z" fill="#2d2539" />
<path d="M 126.10 111.84 C 126.64 112.93 127.14 114.04 127.61 115.17 C 126.36 122.87 132.10 125.79 127.01 132.17 C 126.15 133.16 125.31 134.18 124.45 135.18 C 123.87 133.62 123.97 132.39 122.18 131.77 C 126.04 126.85 126.09 117.83 126.10 111.84 Z" fill="#815c61" />
<path d="M 55.82 112.80 C 57.77 120.04 57.14 112.98 60.32 117.67 C 67.19 124.70 79.02 129.18 84.33 137.68 C 85.99 140.33 83.49 139.21 81.82 139.94 C 80.44 131.19 68.12 131.30 62.42 126.57 C 60.18 125.34 56.90 119.91 56.83 125.95 C 55.59 124.95 54.33 123.98 52.99 123.11 C 53.31 126.93 55.91 129.79 53.84 133.31 C 51.91 129.31 47.75 126.41 46.79 122.11 C 49.63 123.29 51.81 125.87 49.38 121.16 C 52.72 119.41 52.72 119.78 52.52 116.06 C 53.60 114.95 54.72 113.88 55.82 112.80 Z" fill="#8c8481" />
<path d="M 202.05 115.01 C 208.19 115.06 202.29 109.72 202.05 115.01 Z" fill="#693c42" />
<path d="M 195.24 116.07 C 201.41 115.15 198.07 118.91 198.07 122.65 C 199.46 122.40 201.09 120.16 201.08 122.81 C 199.70 124.14 198.25 125.44 196.67 126.52 C 195.92 127.76 193.79 123.94 193.59 125.61 C 192.53 130.15 188.36 130.38 184.99 133.02 C 181.16 134.94 177.32 135.90 173.78 138.16 C 172.83 138.72 171.91 139.33 170.91 139.80 C 166.83 137.76 161.02 137.56 156.95 139.60 C 162.99 139.91 170.76 143.08 175.90 138.95 C 177.27 138.34 178.31 139.02 179.66 139.24 C 181.92 137.62 182.98 134.72 186.18 135.60 C 185.08 136.56 183.98 137.50 182.89 138.46 C 180.47 140.27 179.23 143.54 177.50 146.04 C 174.24 147.40 171.17 146.91 167.80 146.55 C 170.61 149.89 174.01 151.89 175.96 156.11 C 178.38 162.35 176.42 166.52 171.85 170.84 C 169.24 175.90 167.19 182.43 166.09 188.04 C 166.59 193.44 167.42 198.68 167.08 204.15 C 165.51 208.26 166.68 211.23 171.24 209.23 C 176.72 202.41 183.40 196.24 188.17 188.92 L 189.06 190.09 C 185.97 196.33 182.20 201.76 176.87 206.30 C 170.03 211.88 162.23 215.95 155.65 221.86 C 152.40 225.47 149.79 227.09 145.09 228.42 C 142.96 227.18 141.64 226.39 140.14 228.92 C 137.47 234.43 128.32 235.24 122.97 234.23 C 121.60 233.88 120.22 233.54 118.84 233.20 C 120.82 230.91 116.39 226.56 114.65 232.16 C 114.19 230.83 115.42 226.52 112.79 228.89 C 112.22 229.30 111.65 229.70 111.07 230.09 C 108.33 229.47 107.54 230.30 108.10 233.02 L 107.80 233.78 C 104.42 229.48 105.67 231.74 103.95 235.47 C 95.99 230.64 104.37 223.57 106.14 217.89 C 107.06 217.65 107.98 217.40 108.91 217.16 C 110.52 218.48 112.92 217.14 112.59 215.21 C 111.33 214.46 109.75 216.40 108.91 217.16 C 109.22 216.08 109.48 214.98 109.68 213.87 C 112.33 209.32 114.99 207.54 119.85 205.74 L 122.05 205.91 C 119.46 208.70 124.23 209.26 124.02 206.10 L 126.00 205.79 L 126.81 206.07 C 126.76 209.31 130.24 211.08 132.80 209.15 C 135.41 207.19 139.55 206.09 141.54 203.60 C 142.37 200.46 143.93 196.58 143.67 193.38 C 137.30 188.56 135.47 186.70 133.61 178.66 C 133.65 170.97 140.44 177.41 139.49 170.90 C 139.47 166.38 140.44 162.58 139.80 158.18 C 135.11 159.13 134.05 168.15 131.97 172.00 C 131.05 172.34 130.12 172.68 129.20 173.02 C 127.44 169.71 126.66 167.42 126.33 163.71 C 123.53 163.14 123.16 164.09 122.49 160.73 C 124.98 156.36 128.19 152.90 129.82 148.03 C 124.03 146.96 123.50 151.14 119.86 154.28 C 119.49 153.47 119.13 152.66 118.78 151.84 C 120.23 146.36 117.53 142.54 117.59 137.79 C 120.61 139.90 121.75 137.94 123.85 135.89 L 124.45 135.18 C 125.31 134.18 126.15 133.16 127.01 132.17 C 131.39 137.22 125.45 141.39 126.09 146.92 C 128.35 147.14 130.10 146.02 132.23 145.70 C 135.36 151.71 131.52 154.19 131.04 159.98 C 134.00 158.49 133.38 156.08 134.43 153.39 C 135.76 149.59 138.18 146.47 141.03 143.69 C 147.06 143.68 147.92 143.07 148.42 136.77 C 151.47 142.43 151.73 134.31 153.93 133.25 C 159.97 137.89 168.81 130.76 174.64 128.27 C 179.43 126.37 183.90 123.85 188.36 121.28 C 191.04 120.03 193.14 118.10 195.24 116.07 Z" fill="#24243e" />
<path d="M 208.92 115.59 C 210.79 118.41 208.13 122.93 207.81 126.06 C 207.23 125.68 206.66 125.31 206.09 124.94 C 206.20 122.17 205.98 117.01 208.92 115.59 Z" fill="#d2c3c3" />
<path d="M 30.97 118.75 C 28.25 120.88 28.21 123.61 27.80 126.72 C 29.35 127.49 30.99 128.10 32.58 128.76 C 29.82 134.38 29.07 126.95 24.69 128.15 C 24.08 126.84 23.53 125.46 23.22 124.04 C 26.78 120.82 24.51 114.88 30.97 118.75 Z" fill="#878787" />
<path d="M 30.97 118.75 L 31.82 119.07 C 33.83 119.92 35.83 120.01 37.96 120.37 C 36.33 122.03 34.42 123.34 32.82 125.02 C 34.15 129.87 39.65 122.08 40.19 120.10 C 40.65 120.37 41.11 120.63 41.56 120.90 C 43.65 125.80 46.91 129.59 50.11 133.76 C 49.45 135.41 48.72 137.10 48.33 138.83 C 50.11 142.15 57.61 142.18 54.56 147.01 C 56.24 148.79 60.55 148.45 56.99 151.03 C 53.49 149.28 50.46 147.05 46.45 147.05 C 43.77 144.94 41.44 143.95 38.13 143.16 C 36.46 142.05 34.81 140.94 33.03 140.01 C 37.61 140.51 36.95 135.63 39.35 132.39 C 41.06 129.34 37.14 132.56 35.90 132.02 C 33.29 131.41 35.55 129.23 32.58 128.76 C 30.99 128.10 29.35 127.49 27.80 126.72 C 28.21 123.61 28.25 120.88 30.97 118.75 Z" fill="#6c6c6a" />
<path d="M 64.78 119.24 C 66.18 119.12 70.08 119.69 69.59 121.75 C 68.00 122.58 65.76 120.33 64.78 119.24 Z" fill="#a79e7c" />
<path d="M 228.19 118.79 C 228.75 120.60 229.31 122.40 229.89 124.20 C 229.41 125.85 231.06 134.87 228.10 133.84 C 228.76 128.71 228.12 123.90 228.19 118.79 Z" fill="#9fa0a5" />
<path d="M 46.79 122.11 C 47.75 126.41 51.91 129.31 53.84 133.31 C 54.51 135.75 57.45 138.05 57.11 140.53 C 54.24 139.07 52.55 135.86 50.11 133.76 C 46.91 129.59 43.65 125.80 41.56 120.90 C 43.76 119.69 44.93 121.12 46.79 122.11 Z" fill="#e9e9bf" />
<path d="M 52.99 123.11 C 54.33 123.98 55.59 124.95 56.83 125.95 C 57.97 127.55 59.05 129.19 60.04 130.89 C 60.26 133.97 61.54 136.40 63.19 138.94 C 65.78 143.99 59.47 141.92 57.11 140.53 C 57.45 138.05 54.51 135.75 53.84 133.31 C 55.91 129.79 53.31 126.93 52.99 123.11 Z" fill="#9073b3" />
<path d="M 62.42 126.57 C 68.12 131.30 80.44 131.19 81.82 139.94 L 82.14 140.82 C 81.31 143.40 82.26 145.79 78.99 143.49 C 76.60 144.70 81.59 147.81 82.31 148.90 C 81.38 151.26 79.44 152.47 81.11 155.01 C 80.42 156.97 80.33 159.41 78.13 160.26 C 76.13 158.91 74.21 157.44 72.17 156.14 C 73.32 159.23 72.83 162.16 75.98 164.03 C 79.18 166.57 82.16 171.71 86.80 173.00 C 88.62 170.94 90.41 168.85 92.26 166.82 C 94.50 165.22 96.27 161.78 96.01 167.12 C 96.03 168.41 96.05 169.70 96.08 170.99 L 96.09 171.87 C 96.14 174.92 95.28 179.39 100.01 177.37 C 103.16 175.37 106.08 177.27 109.04 176.00 C 111.32 174.43 112.98 172.15 109.93 170.28 L 109.38 169.81 C 108.85 169.18 108.33 168.56 107.82 167.92 C 108.07 166.18 108.42 164.46 108.93 162.78 C 110.47 167.31 113.12 167.31 117.31 167.93 C 117.26 163.82 118.84 162.26 122.49 160.73 C 123.16 164.09 123.53 163.14 126.33 163.71 C 126.66 167.42 127.44 169.71 129.20 173.02 C 128.21 172.66 127.22 172.31 126.23 171.96 C 122.36 169.28 122.65 170.86 120.05 173.79 C 121.43 173.66 122.82 173.46 124.20 173.27 C 122.83 174.58 121.45 175.87 119.90 176.98 C 112.59 179.54 114.90 182.72 114.16 189.00 C 116.10 186.58 116.93 179.93 119.67 179.12 C 120.71 184.38 122.07 188.74 119.19 193.73 C 118.53 194.84 117.95 196.13 117.02 197.04 L 116.14 196.95 C 111.94 194.36 110.75 190.82 105.00 192.00 C 102.20 192.22 96.57 195.59 98.89 198.99 C 98.25 199.67 97.61 200.35 96.96 201.02 L 96.14 200.86 C 95.35 199.89 94.56 198.91 93.74 197.97 C 93.33 194.75 92.29 193.61 89.77 191.64 C 89.46 190.75 89.15 189.87 88.85 188.98 C 89.26 186.99 88.34 184.24 90.91 183.66 C 91.93 184.79 92.85 186.03 93.80 187.23 C 96.12 190.09 97.23 193.20 96.54 187.17 C 102.68 187.70 106.69 184.85 111.95 182.36 C 109.46 182.08 106.23 179.96 104.31 182.32 C 101.91 184.72 100.55 185.03 97.18 185.30 C 91.71 181.83 88.95 178.79 81.84 180.15 C 80.60 179.59 79.59 178.74 78.57 177.86 C 75.24 174.43 76.04 177.63 74.00 180.01 C 72.33 179.02 70.74 177.84 69.18 176.68 C 67.82 174.26 62.25 169.62 67.64 168.49 C 64.79 164.65 60.71 159.67 56.98 156.74 C 54.46 154.85 53.23 152.43 50.29 151.21 C 47.33 149.53 43.99 148.92 40.98 147.37 C 42.82 147.35 44.64 147.39 46.45 147.05 C 50.46 147.05 53.49 149.28 56.99 151.03 C 59.87 153.39 63.21 154.60 66.90 154.92 C 67.57 151.04 63.66 148.21 63.11 144.27 C 66.69 143.63 69.66 145.00 71.89 141.42 C 70.22 140.96 68.54 140.58 66.88 140.07 C 66.75 135.28 62.94 134.15 60.04 130.89 C 59.05 129.19 57.97 127.55 56.83 125.95 C 56.90 119.91 60.18 125.34 62.42 126.57 Z" fill="#30293a" />
<path d="M 24.69 128.15 C 29.07 126.95 29.82 134.38 32.58 128.76 C 35.55 129.23 33.29 131.41 35.90 132.02 C 37.14 132.56 41.06 129.34 39.35 132.39 C 36.95 135.63 37.61 140.51 33.03 140.01 C 28.71 138.31 27.51 131.77 24.69 128.15 Z" fill="#a8a7a2" />
<path d="M 207.51 127.83 C 207.83 128.95 208.20 130.05 208.62 131.12 C 210.23 133.50 213.97 135.47 216.88 135.74 C 217.63 139.20 216.16 139.48 213.87 141.40 C 219.55 139.88 215.54 146.18 215.83 149.18 C 208.65 148.82 211.32 141.87 208.36 136.96 C 207.94 139.49 208.35 141.99 206.71 144.05 C 206.86 138.70 207.24 133.19 207.51 127.83 Z" fill="#acacaa" />
<path d="M 60.04 130.89 C 62.94 134.15 66.75 135.28 66.88 140.07 C 65.64 139.71 64.41 139.34 63.19 138.94 C 61.54 136.40 60.26 133.97 60.04 130.89 Z" fill="#894752" />
<path d="M 203.89 131.84 C 203.71 138.94 197.53 148.73 190.78 150.77 C 195.85 144.87 200.77 139.06 203.89 131.84 Z" fill="#ddbbba" />
<path d="M 21.10 133.01 C 26.13 133.51 27.18 142.71 33.03 140.01 C 34.81 140.94 36.46 142.05 38.13 143.16 L 37.00 144.11 C 35.60 143.26 33.50 141.03 32.01 142.91 C 28.78 145.53 30.33 146.17 31.98 149.10 C 30.49 152.10 27.62 148.05 25.42 147.63 C 25.95 141.91 21.69 138.54 21.10 133.01 Z" fill="#bba5a1" />
<path d="M 184.99 133.02 C 185.54 133.93 187.94 134.74 186.18 135.60 C 182.98 134.72 181.92 137.62 179.66 139.24 C 178.31 139.02 177.27 138.34 175.90 138.95 C 175.19 138.69 174.48 138.43 173.78 138.16 C 177.32 135.90 181.16 134.94 184.99 133.02 Z" fill="#986c78" />
<path d="M 50.11 133.76 C 52.55 135.86 54.24 139.07 57.11 140.53 C 59.47 141.92 65.78 143.99 63.19 138.94 C 64.41 139.34 65.64 139.71 66.88 140.07 C 68.54 140.58 70.22 140.96 71.89 141.42 C 69.66 145.00 66.69 143.63 63.11 144.27 C 63.66 148.21 67.57 151.04 66.90 154.92 C 63.21 154.60 59.87 153.39 56.99 151.03 C 60.55 148.45 56.24 148.79 54.56 147.01 C 57.61 142.18 50.11 142.15 48.33 138.83 C 48.72 137.10 49.45 135.41 50.11 133.76 Z" fill="#878081" />
<path d="M 123.85 135.89 C 121.75 137.94 120.61 139.90 117.59 137.79 C 117.63 133.46 120.89 137.65 123.85 135.89 Z" fill="#595460" />
<path d="M 131.27 135.08 C 134.90 137.07 132.48 142.23 129.02 142.89 C 129.33 141.60 129.73 140.34 130.10 139.06 C 130.47 137.73 130.83 136.39 131.27 135.08 Z" fill="#555560" />
<path d="M 208.36 136.96 C 211.32 141.87 208.65 148.82 215.83 149.18 C 215.93 151.78 215.98 154.42 216.23 157.01 C 219.12 154.56 220.18 150.96 223.26 148.71 C 223.09 149.86 222.89 151.00 222.75 152.16 C 221.74 156.42 222.43 156.31 226.15 158.07 C 228.50 159.47 227.86 157.42 228.82 155.86 C 229.00 157.99 228.65 159.67 227.88 161.63 C 224.57 163.34 227.47 167.56 223.00 168.01 C 217.20 169.25 222.66 176.21 222.12 179.79 C 220.12 180.54 214.54 175.24 214.74 178.94 C 213.97 177.44 213.40 175.82 212.80 174.24 C 212.52 170.67 211.22 167.36 210.77 163.81 C 210.95 157.93 208.91 152.25 208.79 146.33 C 207.30 146.13 208.16 152.78 207.66 154.23 C 206.93 150.89 206.80 147.50 206.71 144.05 C 208.35 141.99 207.94 139.49 208.36 136.96 Z" fill="#898788" />
<path d="M 170.91 139.80 C 171.91 139.33 172.83 138.72 173.78 138.16 C 174.48 138.43 175.19 138.69 175.90 138.95 C 170.76 143.08 162.99 139.91 156.95 139.60 C 161.02 137.56 166.83 137.76 170.91 139.80 Z" fill="#604d5c" />
<path d="M 182.89 138.46 C 186.03 139.72 184.44 143.13 187.00 144.95 C 189.23 146.82 189.66 148.16 189.21 150.98 L 188.29 151.18 C 185.56 151.73 177.16 156.16 175.61 152.36 C 173.96 149.31 176.14 148.37 177.50 146.04 C 179.23 143.54 180.47 140.27 182.89 138.46 Z" fill="#a94a4c" />
<path d="M 108.75 140.76 C 109.50 141.54 110.29 142.29 111.10 143.00 C 116.58 138.11 114.36 148.99 115.38 151.77 C 113.75 154.59 111.01 156.92 109.89 159.97 C 109.52 160.90 109.20 161.83 108.93 162.78 C 108.42 164.46 108.07 166.18 107.82 167.92 C 106.73 166.62 105.63 166.24 104.03 165.78 C 103.40 163.54 102.70 161.54 103.05 159.17 C 104.67 156.82 110.07 155.78 110.02 152.00 C 111.36 147.60 106.83 144.51 108.75 140.76 Z" fill="#9b5f5a" />
<path d="M 37.00 144.11 C 35.42 145.91 33.46 143.78 32.01 142.91 C 33.50 141.03 35.60 143.26 37.00 144.11 Z" fill="#403942" />
<path d="M 32.01 142.91 C 33.46 143.78 35.42 145.91 37.00 144.11 L 38.13 143.16 C 41.44 143.95 43.77 144.94 46.45 147.05 C 44.64 147.39 42.82 147.35 40.98 147.37 C 43.99 148.92 47.33 149.53 50.29 151.21 C 47.79 151.80 45.25 151.48 42.73 151.97 C 39.01 151.48 35.37 150.78 31.98 149.10 C 30.33 146.17 28.78 145.53 32.01 142.91 Z" fill="#8c7c82" />
<path d="M 141.03 143.69 C 138.18 146.47 135.76 149.59 134.43 153.39 C 133.38 156.08 134.00 158.49 131.04 159.98 C 131.52 154.19 135.36 151.71 132.23 145.70 C 135.85 146.13 137.79 143.58 141.03 143.69 Z" fill="#523949" />
<path d="M 104.05 144.08 C 107.80 146.57 111.11 151.05 106.76 154.72 C 103.95 157.73 105.76 153.48 105.47 151.86 C 101.63 154.07 100.15 154.63 95.62 154.62 C 92.52 155.34 89.43 152.38 92.84 150.02 C 96.30 145.20 95.59 149.01 99.00 151.15 C 101.47 150.02 100.69 147.64 101.25 145.39 C 103.79 146.28 104.06 148.03 104.05 144.08 Z" fill="#cbb192" />
<path d="M 167.80 146.55 C 171.17 146.91 174.24 147.40 177.50 146.04 C 176.14 148.37 173.96 149.31 175.61 152.36 C 177.16 156.16 185.56 151.73 188.29 151.18 C 186.41 153.10 184.68 155.02 182.24 156.25 C 180.15 156.15 178.06 156.11 175.96 156.11 C 174.01 151.89 170.61 149.89 167.80 146.55 Z" fill="#ac7477" />
<path d="M 208.79 146.33 C 208.91 152.25 210.95 157.93 210.77 163.81 C 210.37 164.93 209.99 166.05 209.62 167.18 C 208.83 162.89 208.59 158.52 207.66 154.23 C 208.16 152.78 207.30 146.13 208.79 146.33 Z" fill="#69696a" />
<path d="M 203.01 146.78 C 206.31 150.36 206.28 154.44 205.95 159.03 C 205.16 167.69 204.74 175.99 201.13 184.05 C 197.83 187.54 197.98 189.13 193.55 185.63 C 194.61 183.41 195.80 181.42 196.06 178.89 C 196.51 176.96 196.79 175.00 197.00 173.02 C 197.99 170.27 201.46 166.52 200.12 163.60 C 201.33 160.29 203.91 158.17 202.23 154.51 C 201.97 151.75 199.60 148.39 203.01 146.78 Z" fill="#d9cda2" />
<path d="M 25.42 147.63 C 27.62 148.05 30.49 152.10 31.98 149.10 C 35.37 150.78 39.01 151.48 42.73 151.97 C 51.75 156.56 53.76 164.41 55.38 173.64 C 56.37 177.59 58.85 180.39 61.65 183.19 C 62.46 184.08 63.29 184.97 64.16 185.81 C 64.59 186.23 65.02 186.64 65.45 187.05 C 72.94 197.60 77.80 210.05 83.25 221.75 C 78.39 216.79 78.58 228.43 82.94 225.02 C 81.35 227.32 80.77 230.13 77.39 229.77 C 71.97 231.14 66.67 234.05 61.04 234.91 C 58.87 233.20 57.20 233.39 54.93 234.78 L 54.10 234.77 C 52.66 233.60 51.49 233.69 49.80 234.29 L 49.21 233.70 C 47.55 228.64 57.33 233.00 57.01 228.08 C 55.63 225.71 52.53 224.38 50.77 222.14 C 50.60 221.46 50.42 220.78 50.24 220.09 C 53.69 220.89 53.81 220.54 55.49 217.50 C 56.73 218.21 57.89 219.06 59.11 219.79 C 58.18 216.86 55.89 215.14 53.10 214.11 C 50.98 216.57 54.43 219.06 50.02 219.34 C 43.93 213.17 41.65 205.55 36.05 198.97 C 35.90 197.67 35.77 196.37 35.59 195.07 C 35.20 190.93 33.54 187.25 33.88 182.97 C 34.39 181.03 34.37 179.68 33.22 177.99 C 33.42 176.97 33.63 175.95 33.86 174.94 C 35.43 174.19 35.75 173.43 35.80 171.74 C 36.03 170.94 36.27 170.15 36.51 169.35 C 37.55 167.98 37.47 166.46 37.76 164.83 C 39.36 166.67 40.36 168.76 41.18 171.04 C 41.44 171.84 42.06 172.44 43.05 172.86 C 43.53 174.59 41.84 178.89 44.94 177.81 C 45.20 175.75 44.05 174.49 43.05 172.86 C 43.20 171.10 43.45 169.54 42.41 167.98 C 40.83 164.78 38.30 162.93 35.96 160.34 C 39.47 159.86 37.31 157.66 34.97 157.90 C 33.23 156.42 32.14 156.09 29.86 156.28 C 27.70 153.85 26.29 150.74 25.42 147.63 Z" fill="#22233e" />
<path d="M 129.82 148.03 C 128.19 152.90 124.98 156.36 122.49 160.73 C 118.84 162.26 117.26 163.82 117.31 167.93 C 113.12 167.31 110.47 167.31 108.93 162.78 C 109.20 161.83 109.52 160.90 109.89 159.97 C 111.55 160.29 113.18 160.62 114.88 160.59 C 118.75 160.99 119.76 157.41 119.86 154.28 C 123.50 151.14 124.03 146.96 129.82 148.03 Z" fill="#8a878b" />
<path d="M 82.31 148.90 C 84.59 150.82 84.82 151.51 87.77 150.08 C 88.47 151.96 89.00 154.18 90.24 155.77 C 93.80 160.89 99.36 157.24 100.46 164.81 C 99.83 169.01 99.33 167.98 96.01 167.12 C 96.27 161.78 94.50 165.22 92.26 166.82 C 92.68 163.59 82.27 169.19 88.06 164.19 C 93.05 162.05 83.60 158.10 82.09 156.66 C 81.76 156.11 81.44 155.56 81.11 155.01 C 79.44 152.47 81.38 151.26 82.31 148.90 Z" fill="#9f5350" />
<path d="M 232.31 150.66 C 236.76 159.73 229.04 164.28 230.23 173.80 C 230.04 178.94 229.11 176.22 226.79 174.30 C 225.65 170.60 232.35 164.58 227.88 161.63 C 228.65 159.67 229.00 157.99 228.82 155.86 C 227.83 153.61 229.86 145.54 232.31 150.66 Z" fill="#584c5a" />
<path d="M 50.29 151.21 C 53.23 152.43 54.46 154.85 56.98 156.74 C 52.92 156.31 60.61 163.50 60.09 165.94 C 64.80 170.24 65.27 178.31 61.65 183.19 C 58.85 180.39 56.37 177.59 55.38 173.64 C 53.76 164.41 51.75 156.56 42.73 151.97 C 45.25 151.48 47.79 151.80 50.29 151.21 Z" fill="#9f4c4f" />
<path d="M 115.38 151.77 C 116.70 152.60 116.99 153.72 117.47 155.12 C 116.77 157.02 115.84 158.81 114.88 160.59 C 113.18 160.62 111.55 160.29 109.89 159.97 C 111.01 156.92 113.75 154.59 115.38 151.77 Z" fill="#6ec2c0" />
<path d="M 118.78 151.84 C 119.13 152.66 119.49 153.47 119.86 154.28 C 119.76 157.41 118.75 160.99 114.88 160.59 C 115.84 158.81 116.77 157.02 117.47 155.12 C 117.92 154.03 118.34 152.93 118.78 151.84 Z" fill="#4b5259" />
<path d="M 222.75 152.16 C 224.36 154.10 227.93 155.13 226.15 158.07 C 222.43 156.31 221.74 156.42 222.75 152.16 Z" fill="#c4c1c2" />
<path d="M 81.11 155.01 C 81.44 155.56 81.76 156.11 82.09 156.66 C 81.43 158.57 81.40 160.36 81.48 162.36 C 80.37 161.65 79.23 160.99 78.13 160.26 C 80.33 159.41 80.42 156.97 81.11 155.01 Z" fill="#496263" />
<path d="M 202.23 154.51 C 203.91 158.17 201.33 160.29 200.12 163.60 C 198.99 165.39 198.00 167.24 197.10 169.15 C 194.31 163.06 198.13 158.63 202.23 154.51 Z" fill="#f9f2be" />
<path d="M 29.86 156.28 C 32.14 156.09 33.23 156.42 34.97 157.90 C 32.59 158.44 31.27 158.45 29.86 156.28 Z" fill="#9d9da9" />
<path d="M 72.17 156.14 C 74.21 157.44 76.13 158.91 78.13 160.26 C 79.23 160.99 80.37 161.65 81.48 162.36 C 83.09 164.68 85.57 163.87 88.06 164.19 C 82.27 169.19 92.68 163.59 92.26 166.82 C 90.41 168.85 88.62 170.94 86.80 173.00 C 82.16 171.71 79.18 166.57 75.98 164.03 C 72.83 162.16 73.32 159.23 72.17 156.14 Z" fill="#878688" />
<path d="M 175.96 156.11 C 178.06 156.11 180.15 156.15 182.24 156.25 C 181.79 162.47 178.78 167.59 177.59 173.61 C 176.01 180.81 176.60 188.03 173.86 194.97 C 170.52 196.88 168.66 200.77 167.08 204.15 C 167.42 198.68 166.59 193.44 166.09 188.04 C 167.19 182.43 169.24 175.90 171.85 170.84 C 176.42 166.52 178.38 162.35 175.96 156.11 Z" fill="#8e8d8e" />
<path d="M 56.98 156.74 C 60.71 159.67 64.79 164.65 67.64 168.49 C 62.25 169.62 67.82 174.26 69.18 176.68 C 63.29 174.07 65.52 182.60 64.16 185.81 C 63.29 184.97 62.46 184.08 61.65 183.19 C 65.27 178.31 64.80 170.24 60.09 165.94 C 60.61 163.50 52.92 156.31 56.98 156.74 Z" fill="#9e7478" />
<path d="M 82.09 156.66 C 83.60 158.10 93.05 162.05 88.06 164.19 C 85.57 163.87 83.09 164.68 81.48 162.36 C 81.40 160.36 81.43 158.57 82.09 156.66 Z" fill="#64c1c0" />
<path d="M 34.97 157.90 C 37.31 157.66 39.47 159.86 35.96 160.34 C 35.30 159.78 34.97 158.97 34.97 157.90 Z" fill="#9899a7" />
<path d="M 139.80 158.18 C 140.44 162.58 139.47 166.38 139.49 170.90 C 136.35 170.07 135.87 173.93 131.97 172.00 C 134.05 168.15 135.11 159.13 139.80 158.18 Z" fill="#945358" />
<path d="M 227.88 161.63 C 232.35 164.58 225.65 170.60 226.79 174.30 C 229.11 176.22 230.04 178.94 230.23 173.80 C 230.61 174.79 230.95 175.79 231.27 176.80 C 231.26 180.71 231.07 183.26 228.94 186.58 C 229.86 188.75 230.23 190.46 230.00 192.85 C 228.21 192.92 229.78 188.32 228.09 188.13 C 227.70 193.61 227.51 198.58 231.05 203.14 C 227.97 204.64 227.51 200.82 226.09 198.96 C 223.53 195.58 224.10 202.72 223.14 204.05 C 221.83 206.03 220.64 208.07 219.67 210.24 C 218.47 211.55 217.45 212.45 215.64 212.82 C 215.01 209.12 218.50 205.70 218.68 201.85 C 218.85 196.54 221.81 192.53 220.84 187.14 C 221.25 185.81 221.71 184.50 222.18 183.19 C 226.84 182.95 228.06 177.83 222.12 179.79 C 222.66 176.21 217.20 169.25 223.00 168.01 C 227.47 167.56 224.57 163.34 227.88 161.63 Z" fill="#957777" />
<path d="M 34.34 162.89 C 35.48 163.35 37.01 163.80 37.76 164.83 C 37.47 166.46 37.55 167.98 36.51 169.35 C 35.79 167.20 34.98 165.07 34.34 162.89 Z" fill="#646672" />
<path d="M 200.12 163.60 C 201.46 166.52 197.99 170.27 197.00 173.02 L 196.03 172.96 C 196.38 171.68 196.74 170.42 197.10 169.15 C 198.00 167.24 198.99 165.39 200.12 163.60 Z" fill="#92896b" />
<path d="M 210.77 163.81 C 211.22 167.36 212.52 170.67 212.80 174.24 C 211.10 172.07 210.17 169.88 209.62 167.18 C 209.99 166.05 210.37 164.93 210.77 163.81 Z" fill="#282930" />
<path d="M 100.46 164.81 C 100.47 169.44 102.95 173.65 96.08 170.99 C 96.05 169.70 96.03 168.41 96.01 167.12 C 99.33 167.98 99.83 169.01 100.46 164.81 Z" fill="#a49082" />
<path d="M 104.03 165.78 C 105.63 166.24 106.73 166.62 107.82 167.92 C 108.33 168.56 108.85 169.18 109.38 169.81 C 105.55 172.16 102.33 170.15 104.03 165.78 Z" fill="#a29788" />
<path d="M 42.41 167.98 C 43.45 169.54 43.20 171.10 43.05 172.86 C 42.06 172.44 41.44 171.84 41.18 171.04 C 41.58 170.01 41.99 168.99 42.41 167.98 Z" fill="#6f6f87" />
<path d="M 109.93 170.28 C 112.98 172.15 111.32 174.43 109.04 176.00 C 109.36 174.10 109.66 172.19 109.93 170.28 Z" fill="#8d7878" />
<path d="M 126.23 171.96 C 125.56 172.40 124.88 172.83 124.20 173.27 C 122.82 173.46 121.43 173.66 120.05 173.79 C 122.65 170.86 122.36 169.28 126.23 171.96 Z" fill="#897778" />
<path d="M 139.49 170.90 C 140.44 177.41 133.65 170.97 133.61 178.66 C 133.07 179.11 132.54 179.58 132.02 180.05 C 130.23 181.61 129.05 183.55 127.17 184.94 C 125.60 182.17 128.81 176.27 129.20 173.02 C 130.12 172.68 131.05 172.34 131.97 172.00 C 135.87 173.93 136.35 170.07 139.49 170.90 Z" fill="#b8817d" />
<path d="M 35.80 171.74 C 35.75 173.43 35.43 174.19 33.86 174.94 C 33.69 173.12 33.83 172.15 35.80 171.74 Z" fill="#747386" />
<path d="M 96.09 171.87 C 97.16 173.97 97.64 176.40 100.01 177.37 C 95.28 179.39 96.14 174.92 96.09 171.87 Z" fill="#726b6c" />
<path d="M 126.23 171.96 C 127.22 172.31 128.21 172.66 129.20 173.02 C 128.81 176.27 125.60 182.17 127.17 184.94 C 129.05 183.55 130.23 181.61 132.02 180.05 C 131.43 181.66 131.22 183.80 130.11 185.12 C 123.23 189.92 129.32 198.12 126.00 205.79 L 124.02 206.10 L 122.05 205.91 L 119.85 205.74 C 120.67 205.28 121.48 204.80 122.27 204.29 C 124.36 203.44 123.85 201.91 124.03 200.03 C 123.58 191.36 126.01 184.23 119.90 176.98 C 121.45 175.87 122.83 174.58 124.20 173.27 C 124.88 172.83 125.56 172.40 126.23 171.96 Z" fill="#e4d7ae" />
<path d="M 43.05 172.86 C 44.05 174.49 45.20 175.75 44.94 177.81 C 41.84 178.89 43.53 174.59 43.05 172.86 Z" fill="#83859a" />
<path d="M 196.03 172.96 L 197.00 173.02 C 196.79 175.00 196.51 176.96 196.06 178.89 C 193.16 182.30 191.24 186.22 189.06 190.09 L 188.17 188.92 C 190.26 184.56 193.34 180.51 194.98 175.96 C 195.34 174.96 195.69 173.96 196.03 172.96 Z" fill="#585846" />
<path d="M 25.15 174.01 C 28.72 176.04 29.64 181.76 30.72 185.34 C 33.36 186.92 32.69 184.88 33.26 183.04 L 33.88 182.97 C 33.54 187.25 35.20 190.93 35.59 195.07 C 34.59 195.09 33.59 195.07 32.60 195.03 C 31.96 191.59 30.15 188.80 28.08 186.05 C 26.93 184.48 25.69 183.03 24.32 181.65 C 23.77 179.23 23.50 176.07 25.15 174.01 Z" fill="#f0ecc8" />
<path d="M 194.98 175.96 C 193.34 180.51 190.26 184.56 188.17 188.92 C 183.40 196.24 176.72 202.41 171.24 209.23 C 166.68 211.23 165.51 208.26 167.08 204.15 C 168.66 200.77 170.52 196.88 173.86 194.97 C 183.15 191.36 185.08 181.47 190.09 175.06 C 191.26 172.61 193.45 175.25 194.98 175.96 Z" fill="#f1ebbf" />
<path d="M 69.18 176.68 C 70.74 177.84 72.33 179.02 74.00 180.01 C 76.04 177.63 75.24 174.43 78.57 177.86 C 78.14 179.84 78.19 181.27 78.68 183.23 C 75.72 182.64 72.77 181.88 69.79 181.41 C 70.91 183.77 78.82 186.25 71.84 186.06 C 69.56 185.98 67.54 185.97 65.45 187.05 C 65.02 186.64 64.59 186.23 64.16 185.81 C 65.52 182.60 63.29 174.07 69.18 176.68 Z" fill="#e5cbc9" />
<path d="M 119.90 176.98 C 126.01 184.23 123.58 191.36 124.03 200.03 C 123.85 201.91 124.36 203.44 122.27 204.29 C 121.44 200.75 123.73 194.90 119.19 193.73 C 122.07 188.74 120.71 184.38 119.67 179.12 C 116.93 179.93 116.10 186.58 114.16 189.00 C 114.90 182.72 112.59 179.54 119.90 176.98 Z" fill="#cfbf98" />
<path d="M 222.12 179.79 C 228.06 177.83 226.84 182.95 222.18 183.19 C 220.50 182.35 218.80 181.60 217.05 180.90 C 216.26 180.27 215.49 179.62 214.74 178.94 C 214.54 175.24 220.12 180.54 222.12 179.79 Z" fill="#342c3e" />
<path d="M 231.27 176.80 C 232.61 185.88 234.67 195.83 233.14 204.97 C 232.45 204.36 231.75 203.75 231.05 203.14 C 227.51 198.58 227.70 193.61 228.09 188.13 C 229.78 188.32 228.21 192.92 230.00 192.85 C 230.23 190.46 229.86 188.75 228.94 186.58 C 231.07 183.26 231.26 180.71 231.27 176.80 Z" fill="#9b9694" />
<path d="M 33.22 177.99 C 34.37 179.68 34.39 181.03 33.88 182.97 L 33.26 183.04 C 32.68 181.22 32.71 179.81 33.22 177.99 Z" fill="#92939d" />
<path d="M 78.57 177.86 C 79.59 178.74 80.60 179.59 81.84 180.15 C 84.04 181.21 86.01 182.39 87.88 183.96 C 87.94 185.66 88.00 187.35 88.02 189.04 C 84.61 193.29 90.22 198.86 88.77 204.24 C 87.39 202.84 85.84 194.45 83.70 195.90 C 83.38 195.01 83.08 194.10 82.81 193.19 C 81.83 189.71 80.55 186.34 78.68 183.23 C 78.19 181.27 78.14 179.84 78.57 177.86 Z" fill="#f9efb7" />
<path d="M 133.61 178.66 C 135.47 186.70 137.30 188.56 143.67 193.38 C 143.93 196.58 142.37 200.46 141.54 203.60 C 139.55 206.09 135.41 207.19 132.80 209.15 C 130.46 208.63 129.16 206.57 126.81 206.07 L 126.00 205.79 C 129.32 198.12 123.23 189.92 130.11 185.12 C 131.22 183.80 131.43 181.66 132.02 180.05 C 132.54 179.58 133.07 179.11 133.61 178.66 Z" fill="#efeeee" />
<path d="M 196.06 178.89 C 195.80 181.42 194.61 183.41 193.55 185.63 C 197.98 189.13 197.83 187.54 201.13 184.05 C 198.34 196.16 189.93 201.35 183.17 210.87 C 182.63 206.28 180.84 206.27 176.87 206.30 C 182.20 201.76 185.97 196.33 189.06 190.09 C 191.24 186.22 193.16 182.30 196.06 178.89 Z" fill="#e9e3ce" />
<path d="M 81.84 180.15 C 88.95 178.79 91.71 181.83 97.18 185.30 C 96.04 185.93 94.92 186.58 93.80 187.23 C 92.85 186.03 91.93 184.79 90.91 183.66 C 89.32 182.99 87.99 180.82 87.88 183.96 C 86.01 182.39 84.04 181.21 81.84 180.15 Z" fill="#cbc6ad" />
<path d="M 69.79 181.41 C 72.77 181.88 75.72 182.64 78.68 183.23 C 80.55 186.34 81.83 189.71 82.81 193.19 C 79.66 191.30 77.95 188.27 74.17 188.56 C 73.07 188.73 72.50 186.74 71.84 186.06 C 78.82 186.25 70.91 183.77 69.79 181.41 Z" fill="#cea49b" />
<path d="M 111.95 182.36 C 106.69 184.85 102.68 187.70 96.54 187.17 C 97.23 193.20 96.12 190.09 93.80 187.23 C 94.92 186.58 96.04 185.93 97.18 185.30 C 100.55 185.03 101.91 184.72 104.31 182.32 C 106.23 179.96 109.46 182.08 111.95 182.36 Z" fill="#938d95" />
<path d="M 217.05 180.90 C 218.80 181.60 220.50 182.35 222.18 183.19 C 221.71 184.50 221.25 185.81 220.84 187.14 C 219.43 185.13 218.17 183.09 217.05 180.90 Z" fill="#b1b0b2" />
<path d="M 24.32 181.65 C 25.69 183.03 26.93 184.48 28.08 186.05 C 27.79 186.76 27.49 187.47 27.20 188.18 C 26.05 186.05 24.87 184.03 24.32 181.65 Z" fill="#3a3933" />
<path d="M 90.91 183.66 C 88.34 184.24 89.26 186.99 88.85 188.98 L 88.02 189.04 C 88.00 187.35 87.94 185.66 87.88 183.96 C 87.99 180.82 89.32 182.99 90.91 183.66 Z" fill="#81716b" />
<path d="M 28.08 186.05 C 30.15 188.80 31.96 191.59 32.60 195.03 C 32.89 197.12 34.59 197.73 36.05 198.97 C 41.65 205.55 43.93 213.17 50.02 219.34 L 50.24 220.09 C 50.42 220.78 50.60 221.46 50.77 222.14 C 39.37 214.70 29.26 201.87 27.20 188.18 C 27.49 187.47 27.79 186.76 28.08 186.05 Z" fill="#d7ccab" />
<path d="M 88.02 189.04 L 88.85 188.98 C 89.15 189.87 89.46 190.75 89.77 191.64 C 88.64 193.96 89.95 201.02 93.74 197.97 C 94.56 198.91 95.35 199.89 96.14 200.86 C 94.46 200.65 92.77 200.40 91.08 200.28 C 93.67 208.13 96.55 215.69 97.92 224.02 C 94.75 220.90 92.90 216.12 90.82 212.20 C 90.57 209.41 89.64 206.86 88.77 204.24 C 90.22 198.86 84.61 193.29 88.02 189.04 Z" fill="#cfc1a0" />
<path d="M 89.77 191.64 C 92.29 193.61 93.33 194.75 93.74 197.97 C 89.95 201.02 88.64 193.96 89.77 191.64 Z" fill="#b07873" />
<path d="M 105.00 192.00 C 110.75 190.82 111.94 194.36 116.14 196.95 C 112.13 196.86 105.15 204.21 103.29 198.55 C 102.62 197.21 99.95 198.74 98.89 198.99 C 96.57 195.59 102.20 192.22 105.00 192.00 Z" fill="#be7c7e" />
<path d="M 180.49 193.61 C 181.97 192.15 179.76 199.66 178.26 198.58 C 173.48 198.06 179.22 194.98 180.49 193.61 Z" fill="#c8b991" />
<path d="M 32.60 195.03 C 33.59 195.07 34.59 195.09 35.59 195.07 C 35.77 196.37 35.90 197.67 36.05 198.97 C 34.59 197.73 32.89 197.12 32.60 195.03 Z" fill="#99967c" />
<path d="M 88.77 204.24 C 89.64 206.86 90.57 209.41 90.82 212.20 C 87.52 207.08 86.08 201.45 83.70 195.90 C 85.84 194.45 87.39 202.84 88.77 204.24 Z" fill="#7c7762" />
<path d="M 116.14 196.95 L 117.02 197.04 C 110.59 202.58 105.09 203.15 96.96 201.02 C 97.61 200.35 98.25 199.67 98.89 198.99 C 99.95 198.74 102.62 197.21 103.29 198.55 C 105.15 204.21 112.13 196.86 116.14 196.95 Z" fill="#d2a7a6" />
<path d="M 226.09 198.96 C 226.06 202.22 226.41 205.14 224.43 207.94 C 223.97 206.65 223.54 205.36 223.14 204.05 C 224.10 202.72 223.53 195.58 226.09 198.96 Z" fill="#462a3a" />
<path d="M 226.09 198.96 C 227.51 200.82 227.97 204.64 231.05 203.14 C 231.75 203.75 232.45 204.36 233.14 204.97 C 234.00 207.87 234.80 211.22 233.11 213.99 C 229.37 214.59 229.26 218.04 227.87 220.91 C 226.40 221.82 224.85 222.61 223.34 223.44 C 222.27 220.18 218.20 221.04 215.86 218.39 C 220.77 218.30 221.60 213.98 224.80 210.77 C 226.04 207.17 221.39 211.51 219.67 210.24 C 220.64 208.07 221.83 206.03 223.14 204.05 C 223.54 205.36 223.97 206.65 224.43 207.94 C 226.41 205.14 226.06 202.22 226.09 198.96 Z" fill="#ab5c5c" />
<path d="M 122.05 205.91 L 124.02 206.10 C 124.23 209.26 119.46 208.70 122.05 205.91 Z" fill="#6d6d7a" />
<path d="M 126.81 206.07 C 129.16 206.57 130.46 208.63 132.80 209.15 C 130.24 211.08 126.76 209.31 126.81 206.07 Z" fill="#8f909b" />
<path d="M 176.87 206.30 C 180.84 206.27 182.63 206.28 183.17 210.87 C 177.37 217.49 164.62 226.22 155.65 221.86 C 162.23 215.95 170.03 211.88 176.87 206.30 Z" fill="#dbc69b" />
<path d="M 224.80 210.77 C 221.60 213.98 220.77 218.30 215.86 218.39 C 213.48 218.06 211.56 217.61 209.53 216.27 C 208.81 213.72 214.10 213.59 215.64 212.82 C 217.45 212.45 218.47 211.55 219.67 210.24 C 221.39 211.51 226.04 207.17 224.80 210.77 Z" fill="#3d2739" />
<path d="M 53.10 214.11 C 55.89 215.14 58.18 216.86 59.11 219.79 C 57.89 219.06 56.73 218.21 55.49 217.50 C 53.81 220.54 53.69 220.89 50.24 220.09 L 50.02 219.34 C 54.43 219.06 50.98 216.57 53.10 214.11 Z" fill="#908f91" />
<path d="M 109.68 213.87 C 109.48 214.98 109.22 216.08 108.91 217.16 C 107.98 217.40 107.06 217.65 106.14 217.89 C 106.47 215.72 107.83 214.77 109.68 213.87 Z" fill="#666776" />
<path d="M 233.11 213.99 C 231.61 216.71 230.84 219.46 227.87 220.91 C 229.26 218.04 229.37 214.59 233.11 213.99 Z" fill="#d6a39f" />
<path d="M 112.59 215.21 C 112.92 217.14 110.52 218.48 108.91 217.16 C 109.75 216.40 111.33 214.46 112.59 215.21 Z" fill="#c6c8d6" />
<path d="M 209.53 216.27 C 211.56 217.61 213.48 218.06 215.86 218.39 C 218.20 221.04 222.27 220.18 223.34 223.44 C 219.64 227.29 214.67 221.28 210.38 220.55 C 206.86 219.34 208.45 218.74 209.53 216.27 Z" fill="#cb9b9b" />
<path d="M 83.25 221.75 C 84.13 223.16 83.60 223.69 82.94 225.02 C 78.58 228.43 78.39 216.79 83.25 221.75 Z" fill="#b9bcc4" />
<path d="M 145.09 228.42 C 143.41 229.22 141.95 229.24 140.14 228.92 C 141.64 226.39 142.96 227.18 145.09 228.42 Z" fill="#9d9dac" />
<path d="M 114.65 232.16 C 112.92 234.65 112.67 229.83 112.79 228.89 C 115.42 226.52 114.19 230.83 114.65 232.16 Z" fill="#707583" />
<path d="M 111.07 230.09 C 110.70 231.77 109.35 232.08 108.10 233.02 C 107.54 230.30 108.33 229.47 111.07 230.09 Z" fill="#858895" />
<path d="M 107.80 233.78 C 107.41 235.09 105.20 236.50 103.95 235.47 C 105.67 231.74 104.42 229.48 107.80 233.78 Z" fill="#acaaba" />
<path d="M 118.84 233.20 C 120.22 233.54 121.60 233.88 122.97 234.23 C 121.79 235.42 116.46 235.99 118.84 233.20 Z" fill="#909196" />
<path d="M 49.80 234.29 C 51.49 233.69 52.66 233.60 54.10 234.77 C 52.60 235.28 50.97 235.65 49.80 234.29 Z" fill="#878596" />
<path d="M 61.04 234.91 C 58.96 235.38 57.00 235.22 54.93 234.78 C 57.20 233.39 58.87 233.20 61.04 234.91 Z" fill="#686776" />
</svg>