<?xml version="1.0" encoding="UTF-8" standalone="no"?>
<!DOCTYPE svg PUBLIC "-//W3C//DTD SVG 1.1//EN" "http://www.w3.org/Graphics/SVG/1.1/DTD/svg11.dtd">
<svg xmlns="http://www.w3.org/2000/svg" version="1.1" viewBox="0 0 256 256" width="256.0pt" height="256.0pt">
<path d="M 0.00 0.00 L 256.00 0.00 L 256.00 256.00 L 0.00 256.00 L 0.00 0.00 Z" fill="#ffffff" />
<path d="M 124.92 9.28 C 130.53 10.11 136.22 11.30 141.50 13.40 C 156.18 19.25 172.04 20.74 187.20 24.86 C 203.32 28.96 217.45 40.72 226.97 54.08 C 233.73 62.24 236.07 72.74 238.08 82.89 C 239.65 90.48 239.50 98.21 241.16 105.78 C 242.51 111.96 243.76 118.11 244.54 124.40 C 245.42 131.44 244.88 138.79 245.03 146.00 C 245.18 154.00 244.57 162.02 243.84 169.98 C 243.18 177.30 238.99 182.92 233.84 187.84 C 229.52 192.14 224.30 196.37 224.12 203.00 C 223.80 210.98 224.67 217.96 219.97 224.97 C 215.94 231.76 209.12 232.85 202.74 236.78 C 195.89 240.93 187.96 242.30 180.04 241.82 C 175.52 241.53 171.22 240.93 166.68 241.52 C 156.00 242.93 145.55 246.23 134.75 247.91 C 127.05 249.24 119.63 249.13 111.85 249.20 C 100.96 249.03 90.16 247.29 80.11 242.94 C 70.48 239.45 62.43 233.81 54.41 227.57 C 47.46 221.33 40.27 215.90 34.55 208.43 C 27.55 199.97 19.41 189.58 19.79 178.01 C 19.88 173.78 19.77 168.02 22.47 164.50 C 25.41 161.04 29.26 157.88 34.11 158.65 C 38.76 158.77 45.49 161.14 49.70 158.72 C 55.14 154.29 59.20 147.53 60.31 140.57 C 52.15 139.58 44.47 137.23 38.06 131.91 C 35.28 129.47 33.32 125.75 31.27 122.68 C 27.42 116.64 22.78 110.96 19.39 104.65 C 14.71 95.30 17.12 84.02 22.48 75.49 C 26.64 69.11 29.37 62.01 33.84 55.87 C 40.69 47.08 47.58 37.32 56.33 30.37 C 64.76 23.85 73.96 19.94 83.60 15.67 C 91.11 12.41 99.03 11.19 107.08 10.06 C 113.13 9.28 118.82 8.40 124.92 9.28 Z" fill="#f7f7f5" />
<path d="M 117.01 23.15 C 120.50 23.37 123.85 24.62 127.33 25.06 C 121.94 25.65 116.73 24.98 111.48 26.18 C 102.67 27.90 92.87 30.25 85.37 35.36 C 80.71 38.29 76.35 41.58 72.72 45.73 C 68.67 50.10 66.19 55.09 63.28 60.26 C 62.43 61.97 61.22 63.97 61.32 65.92 C 61.32 71.94 61.64 78.03 62.00 84.04 C 62.15 87.07 63.10 89.54 64.72 92.05 L 66.14 91.37 C 68.63 90.08 70.93 88.54 73.25 86.97 C 72.48 86.08 71.63 85.34 70.69 84.72 C 68.75 85.79 66.94 87.00 65.08 88.20 C 64.10 84.81 64.82 81.73 65.79 78.44 C 67.53 78.96 69.57 79.27 71.13 80.24 C 72.78 81.63 73.99 83.61 75.30 85.32 C 75.18 87.44 75.09 89.57 75.02 91.70 C 73.00 92.72 71.05 93.85 68.97 94.74 C 67.00 94.93 65.02 95.08 63.05 95.32 C 61.55 96.75 60.34 98.40 59.05 100.01 C 58.96 99.11 58.88 98.20 58.79 97.30 C 54.98 99.50 50.88 101.30 46.76 102.83 C 42.83 103.81 38.29 103.49 34.36 102.64 C 31.40 100.99 28.91 98.48 26.12 96.54 C 27.13 93.58 28.19 90.50 29.79 87.79 C 30.71 85.75 33.53 85.34 35.40 84.39 C 38.83 83.12 40.86 80.57 43.15 77.88 C 41.46 78.13 39.78 78.43 38.11 78.76 C 41.60 76.99 43.66 74.00 46.54 71.51 C 45.23 65.57 49.48 61.96 51.70 56.81 C 53.56 51.80 56.72 47.62 59.20 42.92 C 59.47 44.01 59.74 45.09 60.01 46.18 C 62.48 43.57 64.81 40.94 67.68 38.74 C 75.32 33.27 83.80 29.98 92.69 27.18 C 100.41 23.82 108.66 22.86 117.01 23.15 Z" fill="#20233f" />
<path d="M 127.33 25.06 C 128.39 25.14 129.45 25.25 130.50 25.39 C 133.07 26.41 135.63 27.25 138.35 27.80 C 142.50 28.81 146.59 29.78 150.46 31.63 C 155.54 34.13 160.78 32.83 166.46 34.40 C 172.32 37.05 177.85 38.17 182.85 42.16 C 187.66 46.12 191.32 51.97 195.62 56.56 C 196.88 61.40 200.77 64.50 203.85 68.31 C 201.00 70.66 197.66 72.72 195.24 75.51 C 194.64 78.41 197.24 82.31 197.73 85.30 C 198.25 86.82 196.97 88.21 196.37 89.54 C 197.94 95.00 202.26 98.37 204.53 103.29 C 205.14 108.37 204.09 113.57 204.53 118.72 C 207.94 118.45 212.52 116.97 215.74 118.42 C 220.47 121.31 225.25 125.34 226.64 130.96 C 226.41 132.80 225.92 134.65 225.44 136.44 C 219.79 140.01 213.21 140.00 208.29 144.30 C 206.71 145.59 205.19 146.98 203.69 148.36 C 200.82 144.09 198.31 139.85 194.24 136.68 C 194.80 142.06 196.46 147.22 197.11 152.60 C 195.73 152.21 194.36 151.82 192.98 151.45 C 193.44 154.77 194.36 157.37 195.97 160.32 C 195.95 161.81 195.89 163.30 195.79 164.79 C 193.35 165.60 190.86 166.21 188.41 167.02 C 188.08 166.87 187.75 166.74 187.41 166.61 C 186.77 166.39 186.12 166.17 185.47 165.97 C 184.13 161.74 183.30 157.30 181.76 153.15 C 178.80 147.93 173.16 145.97 167.81 143.98 C 160.39 142.41 151.90 144.71 145.43 148.50 C 141.08 150.84 136.59 152.78 131.75 153.84 C 124.45 156.38 115.99 151.87 109.98 148.00 C 106.46 144.53 103.16 140.87 99.79 137.27 C 98.83 135.00 97.70 132.81 96.50 130.66 C 96.55 129.69 96.60 128.72 96.65 127.75 C 98.82 128.77 100.97 129.82 103.13 130.86 C 103.23 132.62 103.29 134.38 103.43 136.14 C 103.70 140.62 109.46 143.70 113.16 145.03 C 115.64 146.07 117.17 144.88 119.14 143.54 C 120.47 142.53 121.77 141.48 123.06 140.43 C 128.12 142.50 136.02 143.37 140.44 139.53 C 143.06 136.63 144.89 133.47 147.99 131.07 C 151.06 129.80 154.12 128.43 157.29 127.46 C 158.99 126.83 160.71 128.07 162.17 128.83 C 165.68 131.00 169.03 133.42 172.57 135.54 C 173.42 134.79 174.26 134.04 175.11 133.29 C 177.22 133.83 179.47 134.51 181.64 134.65 C 184.37 132.38 182.01 127.96 180.16 125.87 C 174.44 119.67 166.63 114.16 157.83 114.37 C 159.59 117.71 161.64 120.04 165.16 121.59 C 163.55 122.12 161.85 122.73 160.16 122.93 C 157.38 121.67 155.08 119.49 152.25 118.24 C 149.76 117.14 147.17 116.28 144.65 115.25 C 143.71 115.73 142.77 116.22 141.84 116.71 C 141.16 116.45 140.49 116.21 139.80 115.99 C 143.55 111.98 148.42 109.88 152.70 106.60 C 156.19 103.99 156.82 97.65 160.47 95.70 C 163.82 96.39 166.83 97.67 170.36 97.45 C 164.08 88.79 154.54 82.53 147.19 74.80 C 144.98 72.52 142.60 69.77 139.79 68.25 C 136.88 66.67 132.99 66.61 129.75 66.25 C 126.60 65.80 123.43 65.39 120.25 65.27 C 119.28 64.28 118.32 63.27 117.39 62.25 C 119.02 60.90 120.62 59.54 122.21 58.15 C 125.78 57.82 129.04 57.04 132.32 55.59 C 129.82 51.66 126.98 48.24 122.54 46.46 C 116.27 43.61 110.53 44.69 103.98 44.59 C 101.48 44.67 100.04 43.21 98.01 42.04 C 89.94 43.47 84.79 50.09 76.98 53.82 C 77.15 52.48 77.34 51.14 77.53 49.80 C 76.57 49.64 75.64 49.55 74.67 49.55 C 70.45 55.80 64.75 60.26 61.71 67.34 L 61.32 65.92 C 61.22 63.97 62.43 61.97 63.28 60.26 C 66.19 55.09 68.67 50.10 72.72 45.73 C 76.35 41.58 80.71 38.29 85.37 35.36 C 92.87 30.25 102.67 27.90 111.48 26.18 C 116.73 24.98 121.94 25.65 127.33 25.06 Z" fill="#d1c8bb" />
<path d="M 130.50 25.39 C 133.39 25.56 135.81 26.52 138.35 27.80 C 135.63 27.25 133.07 26.41 130.50 25.39 Z" fill="#a5a5a1" />
<path d="M 127.32 34.95 C 120.73 36.24 114.31 36.91 107.68 35.31 C 113.85 31.36 121.11 30.63 127.32 34.95 Z" fill="#9f9687" />
<path d="M 166.46 34.40 C 174.11 36.67 181.99 36.40 189.33 39.50 C 192.57 40.60 194.96 42.72 197.96 44.18 C 208.71 48.47 216.19 60.01 220.93 70.08 C 223.19 74.60 222.50 79.09 223.59 83.82 C 225.17 91.09 225.78 98.52 227.24 105.82 C 229.32 116.05 230.24 126.58 230.39 137.00 C 229.72 146.60 229.27 156.95 225.44 165.83 C 225.29 164.90 225.16 163.97 225.05 163.04 C 228.25 151.59 230.30 139.81 228.66 127.90 C 227.45 118.05 226.27 108.42 222.16 99.43 C 218.84 90.98 214.50 83.08 209.54 75.50 C 206.04 68.07 201.78 62.03 195.62 56.56 C 191.32 51.97 187.66 46.12 182.85 42.16 C 177.85 38.17 172.32 37.05 166.46 34.40 Z" fill="#212340" />
<path d="M 151.50 40.50 C 154.94 43.54 155.82 48.32 156.51 52.63 C 150.67 50.79 144.76 50.06 138.75 49.11 C 133.22 48.69 131.23 39.73 136.60 37.55 C 141.75 34.90 147.32 37.14 151.50 40.50 Z" fill="#a19888" />
<path d="M 98.01 42.04 C 100.04 43.21 101.48 44.67 103.98 44.59 C 110.53 44.69 116.27 43.61 122.54 46.46 C 126.98 48.24 129.82 51.66 132.32 55.59 C 129.04 57.04 125.78 57.82 122.21 58.15 C 119.00 58.50 115.64 58.55 112.49 59.29 C 110.11 59.84 108.29 61.74 106.46 63.26 C 105.19 63.40 103.91 63.53 102.63 63.65 C 103.67 65.24 104.72 66.83 105.78 68.41 C 100.97 71.22 96.26 74.57 92.19 78.39 C 90.40 74.92 89.56 71.67 89.15 67.82 C 86.13 66.22 83.12 64.61 80.29 62.68 C 79.51 60.19 78.89 57.65 78.20 55.13 C 77.44 55.38 76.68 55.63 75.91 55.87 C 75.52 53.76 75.19 51.64 74.67 49.55 C 75.64 49.55 76.57 49.64 77.53 49.80 C 77.34 51.14 77.15 52.48 76.98 53.82 C 84.79 50.09 89.94 43.47 98.01 42.04 Z" fill="#a09a90" />
<path d="M 74.67 49.55 C 75.19 51.64 75.52 53.76 75.91 55.87 C 76.68 55.63 77.44 55.38 78.20 55.13 C 78.89 57.65 79.51 60.19 80.29 62.68 C 79.16 62.37 77.97 62.10 76.89 61.64 C 75.89 60.14 75.44 58.22 74.83 56.55 C 70.91 59.88 67.28 63.63 65.58 68.59 C 64.65 71.62 65.48 75.33 65.79 78.44 C 64.82 81.73 64.10 84.81 65.08 88.20 C 65.42 89.26 65.77 90.32 66.14 91.37 L 64.72 92.05 C 63.10 89.54 62.15 87.07 62.00 84.04 C 61.64 78.03 61.32 71.94 61.32 65.92 L 61.71 67.34 C 64.75 60.26 70.45 55.80 74.67 49.55 Z" fill="#7f776c" />
<path d="M 175.01 55.80 C 179.36 55.91 183.90 58.19 185.70 62.32 C 186.91 65.01 186.27 67.80 185.94 70.60 C 182.26 68.35 179.11 65.48 175.20 63.58 C 172.90 62.46 171.07 60.79 169.39 58.89 C 170.97 57.67 172.88 55.68 175.01 55.80 Z" fill="#a19888" />
<path d="M 74.83 56.55 C 75.44 58.22 75.89 60.14 76.89 61.64 C 77.97 62.10 79.16 62.37 80.29 62.68 C 82.12 66.00 84.10 69.18 85.40 72.76 C 86.42 75.75 88.55 77.68 90.77 79.78 C 91.24 79.31 91.71 78.85 92.19 78.39 C 96.26 74.57 100.97 71.22 105.78 68.41 C 110.35 66.28 115.25 65.47 120.25 65.27 C 123.43 65.39 126.60 65.80 129.75 66.25 C 130.89 66.63 132.02 67.04 133.15 67.45 C 130.68 67.55 128.22 67.62 125.75 67.65 C 119.83 67.66 113.45 67.56 108.73 71.68 C 106.43 73.19 107.67 77.06 107.57 79.35 C 105.20 81.65 103.74 83.69 102.63 86.85 C 106.38 85.99 109.98 84.63 113.71 83.75 C 116.82 83.03 119.86 83.69 122.93 84.31 L 123.50 84.93 C 122.49 85.68 121.51 86.46 120.53 87.25 C 119.34 87.00 118.16 86.73 116.98 86.46 C 117.81 88.63 118.81 90.73 119.65 92.91 C 118.44 94.33 117.24 95.75 116.02 97.16 C 117.80 98.33 119.71 99.26 121.49 100.43 C 121.24 100.84 120.98 101.25 120.73 101.66 C 121.37 102.19 122.00 102.71 122.62 103.25 C 127.14 107.83 131.44 112.23 136.60 116.11 C 138.84 118.26 140.80 120.65 142.67 123.12 C 141.65 123.72 140.64 124.31 139.62 124.91 C 139.83 127.40 139.94 129.89 140.05 132.38 C 137.09 126.39 134.41 118.11 128.72 114.26 C 122.97 110.30 115.73 108.17 108.85 107.30 C 111.53 109.30 114.53 110.84 117.14 112.91 C 119.39 114.70 120.29 117.26 121.49 119.78 C 119.25 117.89 117.07 115.93 114.86 114.02 C 113.43 121.88 116.48 130.30 120.27 137.09 C 118.67 137.21 117.07 137.34 115.48 137.46 C 115.39 136.69 115.31 135.91 115.22 135.13 C 112.64 135.55 109.16 136.74 106.66 135.65 C 104.10 134.69 103.70 131.22 102.99 128.93 C 101.88 122.31 97.46 118.29 92.04 114.90 C 89.42 113.21 87.24 111.05 85.11 108.78 C 86.79 107.93 88.54 107.25 90.21 106.39 C 90.39 107.31 90.57 108.22 90.75 109.13 C 91.98 108.41 93.19 107.66 94.40 106.89 C 92.01 104.18 90.57 102.04 86.56 102.05 C 86.46 100.58 85.96 98.84 86.41 97.42 C 88.21 93.98 91.78 91.08 93.36 87.34 C 94.31 85.66 93.20 83.45 91.87 82.32 C 88.39 80.38 85.15 81.58 81.70 82.87 C 84.19 84.26 88.64 84.65 88.70 88.23 C 89.20 90.16 87.30 91.79 85.82 92.67 C 84.20 93.26 82.08 92.66 80.40 92.49 C 80.81 91.57 81.21 90.64 81.62 89.72 C 79.63 88.09 77.55 86.58 75.30 85.32 C 73.99 83.61 72.78 81.63 71.13 80.24 C 69.57 79.27 67.53 78.96 65.79 78.44 C 65.48 75.33 64.65 71.62 65.58 68.59 C 67.28 63.63 70.91 59.88 74.83 56.55 Z" fill="#554a46" />
<path d="M 195.62 56.56 C 201.78 62.03 206.04 68.07 209.54 75.50 C 214.50 83.08 218.84 90.98 222.16 99.43 C 221.42 100.07 220.67 100.71 219.93 101.35 C 219.48 103.05 219.68 105.87 217.89 106.74 C 214.79 108.75 212.08 110.73 209.83 113.71 C 214.62 112.45 219.73 110.01 224.06 113.86 C 226.79 118.81 227.09 125.43 226.64 130.96 C 225.25 125.34 220.47 121.31 215.74 118.42 C 212.52 116.97 207.94 118.45 204.53 118.72 C 204.09 113.57 205.14 108.37 204.53 103.29 C 202.26 98.37 197.94 95.00 196.37 89.54 C 196.97 88.21 198.25 86.82 197.73 85.30 C 197.24 82.31 194.64 78.41 195.24 75.51 C 197.66 72.72 201.00 70.66 203.85 68.31 C 200.77 64.50 196.88 61.40 195.62 56.56 Z" fill="#dbd4c9" />
<path d="M 122.21 58.15 C 120.62 59.54 119.02 60.90 117.39 62.25 C 118.32 63.27 119.28 64.28 120.25 65.27 C 115.25 65.47 110.35 66.28 105.78 68.41 C 104.72 66.83 103.67 65.24 102.63 63.65 C 103.91 63.53 105.19 63.40 106.46 63.26 C 108.29 61.74 110.11 59.84 112.49 59.29 C 115.64 58.55 119.00 58.50 122.21 58.15 Z" fill="#bcb7b1" />
<path d="M 159.07 61.96 C 164.33 63.75 167.46 68.82 169.12 73.84 C 169.99 76.06 168.28 77.49 167.35 79.38 C 162.60 76.89 157.48 74.86 152.99 71.92 C 150.04 69.84 146.81 66.21 147.95 62.31 C 151.21 59.95 155.53 60.77 159.07 61.96 Z" fill="#a19888" />
<path d="M 80.29 62.68 C 83.12 64.61 86.13 66.22 89.15 67.82 C 89.56 71.67 90.40 74.92 92.19 78.39 C 91.71 78.85 91.24 79.31 90.77 79.78 C 88.55 77.68 86.42 75.75 85.40 72.76 C 84.10 69.18 82.12 66.00 80.29 62.68 Z" fill="#726961" />
<path d="M 129.75 66.25 C 132.99 66.61 136.88 66.67 139.79 68.25 C 142.60 69.77 144.98 72.52 147.19 74.80 C 154.54 82.53 164.08 88.79 170.36 97.45 C 166.83 97.67 163.82 96.39 160.47 95.70 C 156.82 97.65 156.19 103.99 152.70 106.60 C 148.42 109.88 143.55 111.98 139.80 115.99 C 138.73 116.00 137.67 116.06 136.60 116.11 C 131.44 112.23 127.14 107.83 122.62 103.25 C 122.93 99.83 122.99 96.19 123.98 92.88 C 124.92 92.51 125.90 92.22 126.90 92.01 C 134.59 93.76 141.97 97.25 149.30 100.13 C 148.08 93.70 149.84 86.85 146.48 81.47 C 142.62 74.08 132.97 70.80 125.75 67.65 C 128.22 67.62 130.68 67.55 133.15 67.45 C 132.02 67.04 130.89 66.63 129.75 66.25 Z" fill="#b4b2ac" />
<path d="M 125.75 67.65 C 132.97 70.80 142.62 74.08 146.48 81.47 C 149.84 86.85 148.08 93.70 149.30 100.13 C 141.97 97.25 134.59 93.76 126.90 92.01 L 128.62 91.61 C 126.96 89.36 125.35 87.04 123.50 84.93 L 122.93 84.31 C 121.06 82.32 119.05 79.85 116.57 78.62 C 113.61 78.39 110.53 79.11 107.57 79.35 C 107.67 77.06 106.43 73.19 108.73 71.68 C 113.45 67.56 119.83 67.66 125.75 67.65 Z" fill="#e55548" />
<path d="M 56.67 72.72 C 56.13 75.41 55.20 77.72 55.53 80.52 C 55.56 82.69 56.44 86.05 54.80 87.77 C 53.21 89.39 50.25 89.69 48.16 90.36 C 45.60 90.96 43.70 92.40 41.49 93.72 C 42.77 92.11 43.98 90.17 45.64 88.93 C 47.74 88.53 50.27 89.06 52.22 88.23 C 55.38 85.70 53.19 81.48 53.29 78.12 C 53.95 76.14 55.45 74.38 56.67 72.72 Z" fill="#8c8d9b" />
<path d="M 116.57 78.62 C 119.05 79.85 121.06 82.32 122.93 84.31 C 119.86 83.69 116.82 83.03 113.71 83.75 C 109.98 84.63 106.38 85.99 102.63 86.85 C 103.74 83.69 105.20 81.65 107.57 79.35 C 110.53 79.11 113.61 78.39 116.57 78.62 Z" fill="#b5b4ae" />
<path d="M 52.14 80.64 C 52.50 82.25 52.90 83.88 52.80 85.54 C 51.52 86.62 49.99 87.49 48.57 88.38 C 48.19 87.10 47.71 85.78 47.54 84.45 C 48.12 82.66 50.67 81.60 52.14 80.64 Z" fill="#c29f43" />
<path d="M 91.87 82.32 C 93.20 83.45 94.31 85.66 93.36 87.34 C 91.78 91.08 88.21 93.98 86.41 97.42 C 85.96 98.84 86.46 100.58 86.56 102.05 C 85.57 101.94 84.57 101.83 83.57 101.74 C 83.59 100.91 83.62 100.08 83.62 99.25 C 83.59 97.81 83.53 96.38 83.11 95.00 C 80.71 93.37 77.82 92.39 75.02 91.70 C 75.09 89.57 75.18 87.44 75.30 85.32 C 77.55 86.58 79.63 88.09 81.62 89.72 C 81.21 90.64 80.81 91.57 80.40 92.49 C 82.08 92.66 84.20 93.26 85.82 92.67 C 87.30 91.79 89.20 90.16 88.70 88.23 C 88.64 84.65 84.19 84.26 81.70 82.87 C 85.15 81.58 88.39 80.38 91.87 82.32 Z" fill="#71685e" />
<path d="M 70.69 84.72 C 71.63 85.34 72.48 86.08 73.25 86.97 C 70.93 88.54 68.63 90.08 66.14 91.37 C 65.77 90.32 65.42 89.26 65.08 88.20 C 66.94 87.00 68.75 85.79 70.69 84.72 Z" fill="#584e46" />
<path d="M 123.50 84.93 C 125.35 87.04 126.96 89.36 128.62 91.61 L 126.90 92.01 C 125.90 92.22 124.92 92.51 123.98 92.88 C 122.99 96.19 122.93 99.83 122.62 103.25 C 122.00 102.71 121.37 102.19 120.73 101.66 C 120.98 101.25 121.24 100.84 121.49 100.43 C 119.71 99.26 117.80 98.33 116.02 97.16 C 117.24 95.75 118.44 94.33 119.65 92.91 C 118.81 90.73 117.81 88.63 116.98 86.46 C 118.16 86.73 119.34 87.00 120.53 87.25 C 121.51 86.46 122.49 85.68 123.50 84.93 Z" fill="#645c57" />
<path d="M 75.02 91.70 C 77.82 92.39 80.71 93.37 83.11 95.00 C 83.53 96.38 83.59 97.81 83.62 99.25 C 82.79 99.69 81.95 100.13 81.11 100.57 C 79.85 99.55 78.59 98.53 77.32 97.52 C 76.62 98.15 75.92 98.77 75.22 99.40 C 73.23 97.70 71.23 96.06 68.97 94.74 C 71.05 93.85 73.00 92.72 75.02 91.70 Z" fill="#564b41" />
<path d="M 68.97 94.74 C 71.23 96.06 73.23 97.70 75.22 99.40 C 75.92 98.77 76.62 98.15 77.32 97.52 C 78.59 98.53 79.85 99.55 81.11 100.57 C 81.95 100.13 82.79 99.69 83.62 99.25 C 83.62 100.08 83.59 100.91 83.57 101.74 C 84.57 101.83 85.57 101.94 86.56 102.05 C 90.57 102.04 92.01 104.18 94.40 106.89 C 93.19 107.66 91.98 108.41 90.75 109.13 C 90.57 108.22 90.39 107.31 90.21 106.39 C 88.54 107.25 86.79 107.93 85.11 108.78 C 87.24 111.05 89.42 113.21 92.04 114.90 C 89.54 114.90 87.03 114.92 84.54 115.00 C 81.67 111.72 77.99 111.53 74.37 109.69 C 73.58 108.10 73.16 106.27 72.69 104.57 C 71.99 104.42 71.29 104.27 70.59 104.12 C 70.63 105.59 70.66 107.06 70.69 108.53 L 69.42 108.04 C 68.64 106.54 67.97 104.97 67.11 103.53 C 66.50 103.31 65.88 103.09 65.27 102.87 L 64.74 102.67 C 65.36 100.88 66.38 98.75 66.15 96.83 C 65.14 96.30 64.10 95.80 63.05 95.32 C 65.02 95.08 67.00 94.93 68.97 94.74 Z" fill="#978d80" />
<path d="M 64.20 97.50 C 64.21 99.72 64.15 101.94 64.10 104.16 L 64.74 102.67 L 65.27 102.87 C 66.27 105.65 66.09 107.33 69.42 108.04 L 70.69 108.53 C 70.66 107.06 70.63 105.59 70.59 104.12 C 71.29 104.27 71.99 104.42 72.69 104.57 C 73.16 106.27 73.58 108.10 74.37 109.69 C 77.99 111.53 81.67 111.72 84.54 115.00 C 83.39 115.32 82.25 115.65 81.11 116.01 C 77.87 114.68 74.57 114.31 71.12 114.07 C 72.22 113.33 73.30 112.58 74.38 111.82 C 72.77 111.85 70.71 111.28 69.23 111.99 C 67.12 113.34 65.96 116.18 64.54 118.22 C 63.55 117.07 62.56 115.92 61.53 114.81 C 61.30 118.08 61.58 121.20 60.54 124.36 C 59.59 124.65 58.63 124.94 57.68 125.24 C 57.66 123.28 57.66 121.33 57.62 119.37 C 55.97 121.57 54.94 124.20 53.21 126.31 C 51.05 127.35 48.44 127.59 46.11 128.06 C 48.34 126.77 50.57 125.49 52.67 123.99 C 49.59 121.51 46.83 120.65 42.95 120.20 C 44.56 119.55 46.57 119.12 47.76 117.83 C 50.92 114.60 53.37 110.76 56.56 107.55 C 59.58 104.54 61.82 101.01 64.20 97.50 Z" fill="#20233e" />
<path d="M 56.07 100.29 C 57.73 99.28 58.81 101.61 57.66 102.79 C 55.98 103.87 54.99 101.47 56.07 100.29 Z" fill="#62616e" />
<path d="M 222.16 99.43 C 226.27 108.42 227.45 118.05 228.66 127.90 C 230.30 139.81 228.25 151.59 225.05 163.04 C 224.93 163.82 224.81 164.60 224.69 165.38 C 222.29 169.76 217.91 175.37 218.56 180.58 C 217.75 186.74 212.99 190.59 209.10 195.01 C 208.93 193.42 208.75 191.83 208.57 190.24 C 207.46 191.07 206.36 191.90 205.25 192.73 C 204.37 190.93 203.47 189.14 202.60 187.34 C 199.16 187.31 195.72 187.32 192.29 187.38 C 191.59 189.13 190.87 190.88 190.17 192.64 C 190.84 192.96 191.52 193.28 192.20 193.61 C 193.70 192.86 195.19 192.10 196.69 191.34 L 196.70 192.69 C 196.15 197.16 197.34 201.02 199.03 205.09 C 198.02 205.59 197.01 206.08 196.01 206.56 C 194.32 205.74 192.65 204.92 190.93 204.16 C 192.96 204.04 194.97 203.72 196.97 203.34 C 193.52 201.19 189.94 200.88 186.14 199.39 C 186.88 198.23 187.61 197.06 188.34 195.89 C 189.82 196.97 191.32 198.04 192.86 199.04 C 190.37 196.53 187.68 194.25 185.12 191.82 C 186.80 184.76 188.50 177.30 188.47 170.03 C 192.53 169.06 196.57 168.01 200.64 167.07 C 200.90 169.76 200.92 172.67 201.76 175.25 C 202.93 177.37 206.61 177.47 208.62 176.71 C 211.87 175.41 215.01 172.42 215.57 168.84 C 215.91 167.28 216.15 165.68 216.40 164.11 C 215.30 165.16 214.20 166.21 213.08 167.26 C 212.89 164.24 213.18 162.38 214.59 159.67 C 216.93 155.34 216.47 151.12 216.90 146.37 C 218.93 146.18 220.96 145.99 222.99 145.78 C 223.61 142.61 224.54 139.54 225.44 136.44 C 225.92 134.65 226.41 132.80 226.64 130.96 C 227.09 125.43 226.79 118.81 224.06 113.86 C 219.73 110.01 214.62 112.45 209.83 113.71 C 212.08 110.73 214.79 108.75 217.89 106.74 C 219.68 105.87 219.48 103.05 219.93 101.35 C 220.67 100.71 221.42 100.07 222.16 99.43 Z" fill="#e7e5de" />
<path d="M 67.11 103.53 C 67.97 104.97 68.64 106.54 69.42 108.04 C 66.09 107.33 66.27 105.65 65.27 102.87 C 65.88 103.09 66.50 103.31 67.11 103.53 Z" fill="#bab9b8" />
<path d="M 78.62 102.87 C 80.58 102.98 82.54 103.27 84.49 103.49 C 83.95 104.61 83.40 105.72 82.85 106.84 C 83.80 108.90 84.84 110.92 85.77 113.00 C 83.46 111.16 80.81 109.28 79.04 106.90 C 78.07 105.65 78.32 104.29 78.62 102.87 Z" fill="#54493b" />
<path d="M 51.48 102.91 C 53.01 102.02 53.86 104.46 52.99 105.50 C 51.63 106.41 50.63 103.83 51.48 102.91 Z" fill="#13131c" />
<path d="M 37.65 104.13 C 39.09 104.65 40.53 105.17 41.94 105.76 C 41.21 107.43 40.43 109.07 39.64 110.72 C 38.97 108.52 38.31 106.33 37.65 104.13 Z" fill="#2d2d3b" />
<path d="M 46.44 103.46 C 46.73 105.87 46.64 108.24 46.40 110.64 C 45.56 109.19 43.82 107.69 44.67 105.87 L 46.44 103.46 Z" fill="#474751" />
<path d="M 108.85 107.30 C 115.73 108.17 122.97 110.30 128.72 114.26 C 134.41 118.11 137.09 126.39 140.05 132.38 C 140.21 134.76 140.31 137.15 140.44 139.53 C 136.02 143.37 128.12 142.50 123.06 140.43 C 122.08 139.35 121.15 138.24 120.27 137.09 C 116.48 130.30 113.43 121.88 114.86 114.02 C 117.07 115.93 119.25 117.89 121.49 119.78 C 120.29 117.26 119.39 114.70 117.14 112.91 C 114.53 110.84 111.53 109.30 108.85 107.30 Z" fill="#e65548" />
<path d="M 69.23 111.99 C 70.71 111.28 72.77 111.85 74.38 111.82 C 73.30 112.58 72.22 113.33 71.12 114.07 C 74.57 114.31 77.87 114.68 81.11 116.01 C 82.55 117.13 84.04 118.19 85.50 119.30 C 88.37 124.32 93.27 127.28 95.89 132.44 C 96.90 134.70 97.97 136.70 100.00 138.21 C 100.67 141.25 101.39 144.27 102.03 147.31 C 101.07 147.74 100.10 148.17 99.14 148.61 C 100.37 153.14 101.32 158.22 103.73 162.29 C 105.18 165.26 110.26 164.92 113.05 165.47 C 113.67 161.92 114.16 158.34 114.47 154.75 C 118.17 156.59 122.63 158.92 126.84 158.75 C 130.18 158.58 133.22 158.79 136.34 157.44 C 139.33 156.39 140.94 154.16 143.45 152.41 C 147.88 149.59 151.59 146.60 157.01 146.01 C 162.75 144.74 168.11 146.04 173.50 147.96 C 173.34 148.91 173.17 149.86 173.00 150.81 L 171.81 151.02 C 168.87 150.66 165.98 150.48 163.07 151.18 C 161.15 151.51 159.17 152.43 157.23 152.42 C 155.80 152.01 154.45 151.39 153.02 150.99 C 150.48 152.37 148.69 155.16 147.00 157.44 C 147.70 157.74 148.39 158.05 149.09 158.35 C 149.41 157.29 149.74 156.24 150.08 155.18 C 154.43 156.75 158.90 157.72 163.30 159.07 C 164.71 159.84 166.12 160.64 167.48 161.51 C 170.03 163.36 172.68 165.14 175.09 167.18 C 172.76 166.30 170.56 165.15 168.27 164.18 C 168.81 165.14 169.37 166.08 169.96 167.01 C 171.22 168.66 172.59 170.16 173.96 171.71 C 173.35 172.15 172.74 172.59 172.13 173.03 C 163.28 172.93 154.56 174.33 145.70 174.18 C 140.15 174.07 134.60 174.39 129.10 175.10 C 121.23 175.92 114.19 173.99 106.60 172.32 C 97.28 168.50 87.90 166.52 78.90 162.01 C 76.81 160.97 75.32 159.38 73.65 157.79 C 73.36 156.38 73.11 154.96 72.83 153.55 C 76.58 153.34 80.26 153.97 84.00 153.98 C 87.15 153.96 90.19 152.06 90.81 148.82 C 92.23 142.74 90.05 137.34 86.48 132.52 C 83.30 127.66 77.28 124.19 71.43 124.43 C 66.89 125.51 62.98 128.02 58.21 128.51 C 59.43 126.98 60.67 125.47 61.92 123.96 L 60.54 124.36 C 61.58 121.20 61.30 118.08 61.53 114.81 C 62.56 115.92 63.55 117.07 64.54 118.22 C 65.96 116.18 67.12 113.34 69.23 111.99 Z" fill="#f3f2f0" />
<path d="M 157.83 114.37 C 166.63 114.16 174.44 119.67 180.16 125.87 C 182.01 127.96 184.37 132.38 181.64 134.65 C 179.47 134.51 177.22 133.83 175.11 133.29 C 172.29 132.48 169.06 131.96 166.53 130.45 C 165.06 129.01 164.56 126.43 163.78 124.56 C 165.37 124.00 166.97 123.45 168.57 122.91 C 167.43 122.47 166.29 122.04 165.16 121.59 C 161.64 120.04 159.59 117.71 157.83 114.37 Z" fill="#e45648" />
<path d="M 84.54 115.00 C 87.03 114.92 89.54 114.90 92.04 114.90 C 97.46 118.29 101.88 122.31 102.99 128.93 L 103.13 130.86 C 100.97 129.82 98.82 128.77 96.65 127.75 C 96.60 128.72 96.55 129.69 96.50 130.66 L 95.89 132.44 C 93.27 127.28 88.37 124.32 85.50 119.30 C 84.04 118.19 82.55 117.13 81.11 116.01 C 82.25 115.65 83.39 115.32 84.54 115.00 Z" fill="#b1b1ab" />
<path d="M 139.80 115.99 C 140.49 116.21 141.16 116.45 141.84 116.71 C 145.74 118.38 149.44 119.44 153.70 119.70 C 153.06 121.62 152.45 123.55 151.81 125.47 C 152.02 126.24 152.22 127.01 152.42 127.77 C 150.91 128.83 149.43 129.92 147.99 131.07 C 144.89 133.47 143.06 136.63 140.44 139.53 C 140.31 137.15 140.21 134.76 140.05 132.38 C 139.94 129.89 139.83 127.40 139.62 124.91 C 140.64 124.31 141.65 123.72 142.67 123.12 C 140.80 120.65 138.84 118.26 136.60 116.11 C 137.67 116.06 138.73 116.00 139.80 115.99 Z" fill="#80746c" />
<path d="M 144.65 115.25 C 147.17 116.28 149.76 117.14 152.25 118.24 C 155.08 119.49 157.38 121.67 160.16 122.93 C 161.85 122.73 163.55 122.12 165.16 121.59 C 166.29 122.04 167.43 122.47 168.57 122.91 C 166.97 123.45 165.37 124.00 163.78 124.56 C 164.56 126.43 165.06 129.01 166.53 130.45 C 169.06 131.96 172.29 132.48 175.11 133.29 C 174.26 134.04 173.42 134.79 172.57 135.54 C 169.03 133.42 165.68 131.00 162.17 128.83 C 160.71 128.07 158.99 126.83 157.29 127.46 C 154.12 128.43 151.06 129.80 147.99 131.07 C 149.43 129.92 150.91 128.83 152.42 127.77 C 152.22 127.01 152.02 126.24 151.81 125.47 C 152.45 123.55 153.06 121.62 153.70 119.70 C 149.44 119.44 145.74 118.38 141.84 116.71 C 142.77 116.22 143.71 115.73 144.65 115.25 Z" fill="#a79e93" />
<path d="M 102.99 128.93 C 103.70 131.22 104.10 134.69 106.66 135.65 C 109.16 136.74 112.64 135.55 115.22 135.13 C 115.31 135.91 115.39 136.69 115.48 137.46 C 117.07 137.34 118.67 137.21 120.27 137.09 C 121.15 138.24 122.08 139.35 123.06 140.43 C 121.77 141.48 120.47 142.53 119.14 143.54 C 113.60 141.65 108.51 139.02 103.43 136.14 C 103.29 134.38 103.23 132.62 103.13 130.86 L 102.99 128.93 Z" fill="#7a6f69" />
<path d="M 96.50 130.66 C 97.70 132.81 98.83 135.00 99.79 137.27 L 100.00 138.21 C 97.97 136.70 96.90 134.70 95.89 132.44 L 96.50 130.66 Z" fill="#5d555c" />
<path d="M 103.43 136.14 C 108.51 139.02 113.60 141.65 119.14 143.54 C 117.17 144.88 115.64 146.07 113.16 145.03 C 109.46 143.70 103.70 140.62 103.43 136.14 Z" fill="#a19a91" />
<path d="M 225.44 136.44 C 224.54 139.54 223.61 142.61 222.99 145.78 C 220.96 145.99 218.93 146.18 216.90 146.37 C 216.47 151.12 216.93 155.34 214.59 159.67 C 213.18 162.38 212.89 164.24 213.08 167.26 C 214.20 166.21 215.30 165.16 216.40 164.11 C 216.15 165.68 215.91 167.28 215.57 168.84 C 215.01 172.42 211.87 175.41 208.62 176.71 C 206.61 177.47 202.93 177.37 201.76 175.25 C 200.92 172.67 200.90 169.76 200.64 167.07 C 196.57 168.01 192.53 169.06 188.47 170.03 C 188.46 169.02 188.44 168.02 188.41 167.02 C 190.86 166.21 193.35 165.60 195.79 164.79 C 195.89 163.30 195.95 161.81 195.97 160.32 C 198.24 159.76 200.51 159.20 202.78 158.63 C 203.84 155.18 204.71 151.96 203.69 148.36 C 205.19 146.98 206.71 145.59 208.29 144.30 C 213.21 140.00 219.79 140.01 225.44 136.44 Z" fill="#dfd8cf" />
<path d="M 99.79 137.27 C 103.16 140.87 106.46 144.53 109.98 148.00 C 111.65 150.13 113.09 152.42 114.47 154.75 C 114.16 158.34 113.67 161.92 113.05 165.47 C 110.26 164.92 105.18 165.26 103.73 162.29 C 101.32 158.22 100.37 153.14 99.14 148.61 C 100.10 148.17 101.07 147.74 102.03 147.31 C 101.39 144.27 100.67 141.25 100.00 138.21 L 99.79 137.27 Z" fill="#e75548" />
<path d="M 194.24 136.68 C 198.31 139.85 200.82 144.09 203.69 148.36 C 204.71 151.96 203.84 155.18 202.78 158.63 C 200.51 159.20 198.24 159.76 195.97 160.32 C 194.36 157.37 193.44 154.77 192.98 151.45 C 194.36 151.82 195.73 152.21 197.11 152.60 C 196.46 147.22 194.80 142.06 194.24 136.68 Z" fill="#e35749" />
<path d="M 167.81 143.98 C 173.16 145.97 178.80 147.93 181.76 153.15 C 179.21 150.99 176.78 148.94 173.50 147.96 C 168.11 146.04 162.75 144.74 157.01 146.01 C 151.59 146.60 147.88 149.59 143.45 152.41 C 140.94 154.16 139.33 156.39 136.34 157.44 C 133.22 158.79 130.18 158.58 126.84 158.75 C 122.63 158.92 118.17 156.59 114.47 154.75 C 113.09 152.42 111.65 150.13 109.98 148.00 C 115.99 151.87 124.45 156.38 131.75 153.84 C 136.59 152.78 141.08 150.84 145.43 148.50 C 151.90 144.71 160.39 142.41 167.81 143.98 Z" fill="#1b1e39" />
<path d="M 173.50 147.96 C 176.78 148.94 179.21 150.99 181.76 153.15 C 183.30 157.30 184.13 161.74 185.47 165.97 C 185.83 169.88 185.70 175.02 183.19 178.26 C 181.26 180.52 178.80 180.39 176.12 179.98 C 165.07 178.04 153.48 178.04 142.53 180.59 C 135.21 182.20 128.36 183.44 122.54 188.55 C 120.02 190.77 117.14 193.90 118.42 197.53 C 120.02 201.60 122.82 205.23 125.14 208.92 C 113.47 201.39 102.68 192.55 91.08 184.94 C 96.83 191.37 105.09 196.12 111.70 201.30 C 115.68 204.35 119.11 207.90 123.29 210.69 C 126.78 213.06 130.19 215.51 133.59 218.00 C 126.14 216.95 119.11 214.54 112.09 211.92 C 106.52 209.82 101.45 206.73 95.79 204.84 C 95.93 205.82 96.08 206.79 96.24 207.76 C 92.29 198.22 86.16 190.29 80.02 182.10 C 84.21 190.87 90.88 197.62 92.52 207.68 C 92.95 213.98 95.07 219.96 95.21 226.25 C 89.67 221.94 86.94 215.70 84.31 209.38 C 83.81 205.44 82.86 202.23 81.04 198.68 C 80.97 199.79 80.92 200.90 80.88 202.02 C 80.42 200.44 80.04 198.84 79.67 197.24 C 79.36 195.36 79.04 193.51 78.30 191.74 C 75.15 184.31 70.55 177.01 68.85 169.15 C 67.31 163.36 70.26 158.42 67.55 152.67 C 67.17 151.69 66.78 150.71 66.40 149.73 C 69.10 150.41 71.13 151.21 72.83 153.55 C 73.11 154.96 73.36 156.38 73.65 157.79 C 75.01 162.12 78.47 166.32 82.28 168.73 C 88.34 171.84 96.90 171.08 103.01 172.79 C 101.94 172.93 100.88 173.09 99.82 173.27 C 102.27 174.09 104.71 174.39 107.28 174.48 C 108.00 174.60 108.72 174.71 109.45 174.82 L 107.82 175.68 C 113.45 177.23 118.80 177.86 124.46 175.98 C 126.00 175.69 127.55 175.37 129.10 175.10 C 134.60 174.39 140.15 174.07 145.70 174.18 C 153.48 175.16 161.22 175.13 169.05 175.50 C 171.36 175.28 173.63 176.07 174.18 173.11 L 174.83 173.13 C 175.24 174.12 175.64 175.12 176.04 176.11 C 178.88 174.66 181.56 173.39 182.21 169.94 C 182.48 165.68 181.86 160.45 178.88 157.15 C 176.75 154.89 174.19 153.01 171.81 151.02 L 173.00 150.81 C 173.17 149.86 173.34 148.91 173.50 147.96 Z" fill="#bdaca0" />
<path d="M 171.81 151.02 C 174.19 153.01 176.75 154.89 178.88 157.15 C 181.86 160.45 182.48 165.68 182.21 169.94 C 181.56 173.39 178.88 174.66 176.04 176.11 C 175.64 175.12 175.24 174.12 174.83 173.13 C 176.93 172.21 179.49 171.50 180.25 169.07 C 180.91 166.48 181.29 162.79 179.54 160.54 C 177.24 157.15 173.98 155.37 170.38 153.65 C 171.68 154.79 173.00 155.91 174.31 157.05 C 170.31 156.95 166.81 156.87 163.30 159.07 C 158.90 157.72 154.43 156.75 150.08 155.18 C 149.74 156.24 149.41 157.29 149.09 158.35 C 148.39 158.05 147.70 157.74 147.00 157.44 C 148.69 155.16 150.48 152.37 153.02 150.99 C 154.45 151.39 155.80 152.01 157.23 152.42 C 159.17 152.43 161.15 151.51 163.07 151.18 C 165.98 150.48 168.87 150.66 171.81 151.02 Z" fill="#222440" />
<path d="M 67.55 152.67 C 70.26 158.42 67.31 163.36 68.85 169.15 C 70.55 177.01 75.15 184.31 78.30 191.74 C 79.04 193.51 79.36 195.36 79.67 197.24 C 74.66 188.27 68.95 178.79 66.46 168.76 C 66.31 163.26 66.22 158.06 67.55 152.67 Z" fill="#2f2f3d" />
<path d="M 170.38 153.65 C 173.98 155.37 177.24 157.15 179.54 160.54 C 181.29 162.79 180.91 166.48 180.25 169.07 C 179.49 171.50 176.93 172.21 174.83 173.13 L 174.18 173.11 L 172.13 173.03 C 172.74 172.59 173.35 172.15 173.96 171.71 C 172.59 170.16 171.22 168.66 169.96 167.01 C 171.84 167.62 173.71 168.24 175.59 168.85 C 175.81 167.17 176.32 165.12 175.75 163.49 C 173.32 161.06 170.70 160.86 167.48 161.51 C 166.12 160.64 164.71 159.84 163.30 159.07 C 166.81 156.87 170.31 156.95 174.31 157.05 C 173.00 155.91 171.68 154.79 170.38 153.65 Z" fill="#c2b3a6" />
<path d="M 73.65 157.79 C 75.32 159.38 76.81 160.97 78.90 162.01 C 87.90 166.52 97.28 168.50 106.60 172.32 C 114.19 173.99 121.23 175.92 129.10 175.10 C 127.55 175.37 126.00 175.69 124.46 175.98 C 119.44 175.61 114.43 175.62 109.45 174.82 C 108.72 174.71 108.00 174.60 107.28 174.48 C 105.85 173.88 104.49 173.25 103.01 172.79 C 96.90 171.08 88.34 171.84 82.28 168.73 C 78.47 166.32 75.01 162.12 73.65 157.79 Z" fill="#262640" />
<path d="M 142.25 162.19 C 142.90 164.63 142.18 167.67 140.19 169.30 C 137.42 171.06 133.66 171.37 131.32 168.71 C 129.48 166.32 128.78 162.91 127.82 160.08 C 130.22 160.33 132.37 160.42 134.69 159.69 C 137.57 158.72 140.44 159.85 142.25 162.19 Z" fill="#e6574a" />
<path d="M 64.19 159.51 C 64.73 163.78 64.91 168.06 65.25 172.34 C 65.66 171.15 66.06 169.96 66.46 168.76 C 68.95 178.79 74.66 188.27 79.67 197.24 C 80.04 198.84 80.42 200.44 80.88 202.02 C 81.66 204.56 83.14 206.99 84.31 209.38 C 86.94 215.70 89.67 221.94 95.21 226.25 C 95.07 219.96 92.95 213.98 92.52 207.68 C 94.34 208.91 96.13 210.18 97.94 211.41 C 97.38 210.19 96.80 208.98 96.24 207.76 C 96.08 206.79 95.93 205.82 95.79 204.84 C 101.45 206.73 106.52 209.82 112.09 211.92 C 119.11 214.54 126.14 216.95 133.59 218.00 C 134.80 218.29 136.01 218.57 137.22 218.82 C 133.17 215.53 128.98 212.47 125.14 208.92 C 122.82 205.23 120.02 201.60 118.42 197.53 C 117.14 193.90 120.02 190.77 122.54 188.55 C 128.36 183.44 135.21 182.20 142.53 180.59 C 153.48 178.04 165.07 178.04 176.12 179.98 C 178.80 180.39 181.26 180.52 183.19 178.26 C 185.70 175.02 185.83 169.88 185.47 165.97 C 186.12 166.17 186.77 166.39 187.41 166.61 C 187.64 170.47 187.95 174.82 186.83 178.56 C 185.77 182.45 184.12 186.30 182.68 190.07 C 177.77 187.82 172.99 185.47 167.74 184.09 C 165.77 183.07 164.37 185.19 162.87 186.18 C 162.15 186.79 161.43 187.39 160.70 188.00 C 161.35 189.52 162.00 191.04 162.73 192.52 C 166.39 199.67 172.71 204.89 179.36 209.14 C 175.83 212.85 171.55 213.67 166.78 214.76 C 162.53 216.37 157.43 213.84 153.23 212.75 C 146.41 210.90 140.15 208.05 133.82 204.97 C 137.16 208.71 141.57 210.54 145.37 213.65 C 147.81 215.35 150.50 216.67 153.02 218.24 C 151.64 219.07 150.24 219.89 148.84 220.69 C 140.26 224.35 131.27 225.89 122.26 228.05 C 118.75 228.81 115.35 228.51 111.83 228.85 C 109.81 228.95 108.16 230.62 106.57 231.74 C 112.37 232.26 118.23 232.37 124.05 232.11 C 129.84 231.87 135.47 230.26 141.30 229.34 C 132.02 234.32 122.23 234.26 111.98 233.63 C 107.09 233.28 102.08 231.84 97.26 230.80 C 97.74 231.58 98.21 232.35 98.69 233.13 C 92.17 228.59 84.88 227.39 77.76 224.17 C 73.76 222.46 70.07 220.21 66.44 217.82 C 64.53 216.54 62.45 215.25 60.86 213.58 C 59.59 212.32 59.44 210.03 58.98 208.37 C 58.20 204.92 56.45 202.27 55.01 199.10 C 55.04 196.44 54.76 195.02 53.30 192.74 C 53.38 193.93 53.48 195.11 53.60 196.30 C 52.19 195.75 50.01 195.31 49.14 193.98 C 47.19 190.56 47.36 186.82 48.59 183.20 C 50.00 186.27 50.98 189.40 52.84 192.25 C 52.08 188.56 49.63 185.33 50.56 181.71 C 50.73 180.65 50.91 179.59 51.10 178.54 C 48.22 178.77 44.93 179.04 42.13 178.25 C 40.65 177.09 39.45 175.45 38.34 173.95 C 38.11 172.64 37.98 171.30 37.83 169.98 C 41.78 171.01 45.85 171.37 49.80 172.43 C 52.45 173.07 55.08 174.11 57.79 174.49 C 59.93 173.49 59.94 170.30 60.45 168.28 C 60.88 164.91 62.23 162.25 64.19 159.51 Z" fill="#f3f2f0" />
<path d="M 175.75 163.49 C 176.32 165.12 175.81 167.17 175.59 168.85 C 173.71 168.24 171.84 167.62 169.96 167.01 C 169.37 166.08 168.81 165.14 168.27 164.18 C 170.56 165.15 172.76 166.30 175.09 167.18 C 172.68 165.14 170.03 163.36 167.48 161.51 C 170.70 160.86 173.32 161.06 175.75 163.49 Z" fill="#352f3d" />
<path d="M 133.17 163.60 C 134.71 162.80 135.97 165.28 134.84 166.35 C 133.30 167.14 132.04 164.67 133.17 163.60 Z" fill="#fe988d" />
<path d="M 31.38 164.42 C 32.31 165.64 33.19 166.89 34.06 168.15 C 35.21 172.13 34.75 175.96 34.61 180.00 C 35.41 184.53 37.99 188.55 38.85 193.13 C 36.27 189.96 34.50 186.59 33.22 182.72 C 32.28 179.78 30.75 177.35 31.28 174.22 C 31.75 170.94 31.47 167.71 31.38 164.42 Z" fill="#17152f" />
<path d="M 187.41 166.61 C 187.75 166.74 188.08 166.87 188.41 167.02 C 188.44 168.02 188.46 169.02 188.47 170.03 C 188.50 177.30 186.80 184.76 185.12 191.82 C 187.68 194.25 190.37 196.53 192.86 199.04 C 191.32 198.04 189.82 196.97 188.34 195.89 C 184.92 193.50 181.52 190.63 177.50 189.46 C 173.26 188.15 169.43 186.45 164.97 185.97 C 165.78 188.96 166.96 191.65 168.89 194.09 C 173.26 199.81 177.87 205.30 184.44 208.52 C 187.67 210.07 190.89 211.86 194.31 212.96 C 197.87 214.06 200.96 213.29 204.66 213.35 C 202.64 210.63 200.65 208.08 199.03 205.09 C 197.34 201.02 196.15 197.16 196.70 192.69 C 197.64 195.57 198.39 198.59 199.67 201.34 C 203.05 208.33 210.68 213.41 217.27 217.12 C 211.09 217.67 206.08 219.74 200.08 219.13 C 195.85 218.77 192.16 217.22 188.06 216.30 C 190.77 220.97 195.25 223.81 197.45 228.87 C 193.84 228.17 190.44 227.81 187.29 225.72 C 185.70 224.64 184.05 224.17 182.19 223.77 C 182.87 225.85 183.68 227.88 184.43 229.93 C 182.20 229.11 179.66 228.61 177.62 227.37 C 176.03 226.04 174.86 224.15 173.54 222.56 C 172.92 221.77 172.30 220.97 171.67 220.18 C 166.69 219.93 161.75 219.24 156.77 218.96 C 154.17 218.69 151.36 220.02 148.84 220.69 C 150.24 219.89 151.64 219.07 153.02 218.24 C 150.50 216.67 147.81 215.35 145.37 213.65 C 141.57 210.54 137.16 208.71 133.82 204.97 C 140.15 208.05 146.41 210.90 153.23 212.75 C 157.43 213.84 162.53 216.37 166.78 214.76 C 171.55 213.67 175.83 212.85 179.36 209.14 C 172.71 204.89 166.39 199.67 162.73 192.52 C 163.10 191.36 163.44 190.19 163.76 189.01 C 163.47 188.06 163.18 187.12 162.87 186.18 C 164.37 185.19 165.77 183.07 167.74 184.09 C 172.99 185.47 177.77 187.82 182.68 190.07 C 184.12 186.30 185.77 182.45 186.83 178.56 C 187.95 174.82 187.64 170.47 187.41 166.61 Z" fill="#22233f" />
<path d="M 224.69 165.38 C 224.54 170.73 221.08 176.00 218.56 180.58 C 217.91 175.37 222.29 169.76 224.69 165.38 Z" fill="#2c2b38" />
<path d="M 34.06 168.15 C 35.30 168.79 36.55 169.42 37.83 169.98 C 37.98 171.30 38.11 172.64 38.34 173.95 C 39.29 178.96 43.72 182.33 48.59 183.20 C 47.36 186.82 47.19 190.56 49.14 193.98 C 50.01 195.31 52.19 195.75 53.60 196.30 C 54.05 197.24 54.54 198.17 55.01 199.10 C 56.45 202.27 58.20 204.92 58.98 208.37 C 59.44 210.03 59.59 212.32 60.86 213.58 C 62.45 215.25 64.53 216.54 66.44 217.82 C 66.67 218.87 66.91 219.92 67.11 220.98 L 65.90 221.21 C 62.34 219.00 59.28 215.66 56.26 212.74 C 53.95 210.42 51.37 208.21 49.34 205.63 C 47.63 203.47 46.71 200.87 45.16 198.64 C 43.43 196.53 40.52 195.32 38.85 193.13 C 37.99 188.55 35.41 184.53 34.61 180.00 C 34.75 175.96 35.21 172.13 34.06 168.15 Z" fill="#dad4cb" />
<path d="M 99.82 173.27 C 100.88 173.09 101.94 172.93 103.01 172.79 C 104.49 173.25 105.85 173.88 107.28 174.48 C 104.71 174.39 102.27 174.09 99.82 173.27 Z" fill="#dcd6d7" />
<path d="M 172.13 173.03 L 174.18 173.11 C 173.63 176.07 171.36 175.28 169.05 175.50 C 161.22 175.13 153.48 175.16 145.70 174.18 C 154.56 174.33 163.28 172.93 172.13 173.03 Z" fill="#5e5b61" />
<path d="M 38.34 173.95 C 39.45 175.45 40.65 177.09 42.13 178.25 C 44.93 179.04 48.22 178.77 51.10 178.54 C 50.91 179.59 50.73 180.65 50.56 181.71 C 49.63 185.33 52.08 188.56 52.84 192.25 C 50.98 189.40 50.00 186.27 48.59 183.20 C 43.72 182.33 39.29 178.96 38.34 173.95 Z" fill="#13142c" />
<path d="M 109.45 174.82 C 114.43 175.62 119.44 175.61 124.46 175.98 C 118.80 177.86 113.45 177.23 107.82 175.68 L 109.45 174.82 Z" fill="#e4dedd" />
<path d="M 80.02 182.10 C 86.16 190.29 92.29 198.22 96.24 207.76 C 96.80 208.98 97.38 210.19 97.94 211.41 C 96.13 210.18 94.34 208.91 92.52 207.68 C 90.88 197.62 84.21 190.87 80.02 182.10 Z" fill="#5d565a" />
<path d="M 91.08 184.94 C 102.68 192.55 113.47 201.39 125.14 208.92 C 128.98 212.47 133.17 215.53 137.22 218.82 C 136.01 218.57 134.80 218.29 133.59 218.00 C 130.19 215.51 126.78 213.06 123.29 210.69 C 119.11 207.90 115.68 204.35 111.70 201.30 C 105.09 196.12 96.83 191.37 91.08 184.94 Z" fill="#3f383f" />
<path d="M 164.97 185.97 C 169.43 186.45 173.26 188.15 177.50 189.46 C 181.52 190.63 184.92 193.50 188.34 195.89 C 187.61 197.06 186.88 198.23 186.14 199.39 C 181.74 197.49 178.15 194.99 174.56 191.86 C 175.81 194.48 176.87 196.94 179.31 198.68 C 182.83 201.03 187.03 202.55 190.93 204.16 C 192.65 204.92 194.32 205.74 196.01 206.56 C 197.01 206.08 198.02 205.59 199.03 205.09 C 200.65 208.08 202.64 210.63 204.66 213.35 C 200.96 213.29 197.87 214.06 194.31 212.96 C 190.89 211.86 187.67 210.07 184.44 208.52 C 177.87 205.30 173.26 199.81 168.89 194.09 C 166.96 191.65 165.78 188.96 164.97 185.97 Z" fill="#f2f3f1" />
<path d="M 162.87 186.18 C 163.18 187.12 163.47 188.06 163.76 189.01 C 163.44 190.19 163.10 191.36 162.73 192.52 C 162.00 191.04 161.35 189.52 160.70 188.00 C 161.43 187.39 162.15 186.79 162.87 186.18 Z" fill="#777581" />
<path d="M 174.56 191.86 C 178.15 194.99 181.74 197.49 186.14 199.39 C 189.94 200.88 193.52 201.19 196.97 203.34 C 194.97 203.72 192.96 204.04 190.93 204.16 C 187.03 202.55 182.83 201.03 179.31 198.68 C 176.87 196.94 175.81 194.48 174.56 191.86 Z" fill="#343444" />
<path d="M 53.30 192.74 C 54.76 195.02 55.04 196.44 55.01 199.10 C 54.54 198.17 54.05 197.24 53.60 196.30 C 53.48 195.11 53.38 193.93 53.30 192.74 Z" fill="#929092" />
<path d="M 166.15 193.59 C 167.40 192.89 168.63 194.55 167.67 195.57 C 166.40 196.28 165.19 194.62 166.15 193.59 Z" fill="#69687f" />
<path d="M 81.04 198.68 C 82.86 202.23 83.81 205.44 84.31 209.38 C 83.14 206.99 81.66 204.56 80.88 202.02 C 80.92 200.90 80.97 199.79 81.04 198.68 Z" fill="#7c736e" />
<path d="M 66.44 217.82 C 70.07 220.21 73.76 222.46 77.76 224.17 C 84.88 227.39 92.17 228.59 98.69 233.13 C 98.21 232.35 97.74 231.58 97.26 230.80 C 102.08 231.84 107.09 233.28 111.98 233.63 C 122.23 234.26 132.02 234.32 141.30 229.34 C 144.22 228.67 147.14 228.04 150.05 227.38 C 150.82 227.96 151.58 228.53 152.35 229.11 C 151.42 229.28 150.49 229.46 149.56 229.63 C 145.90 229.38 144.35 229.46 141.40 231.83 C 133.13 235.12 123.76 236.12 114.92 235.86 C 107.69 235.66 100.40 235.33 93.36 233.59 C 83.42 231.12 74.53 226.63 65.90 221.21 L 67.11 220.98 C 66.91 219.92 66.67 218.87 66.44 217.82 Z" fill="#baada1" />
<path d="M 156.77 218.96 C 160.14 220.47 163.44 222.18 166.69 223.95 C 162.54 227.97 157.69 228.14 152.35 229.11 C 151.58 228.53 150.82 227.96 150.05 227.38 C 147.14 228.04 144.22 228.67 141.30 229.34 C 135.47 230.26 129.84 231.87 124.05 232.11 C 118.23 232.37 112.37 232.26 106.57 231.74 C 108.16 230.62 109.81 228.95 111.83 228.85 C 115.35 228.51 118.75 228.81 122.26 228.05 C 131.27 225.89 140.26 224.35 148.84 220.69 C 151.36 220.02 154.17 218.69 156.77 218.96 Z" fill="#d4cbc0" />
<path d="M 156.77 218.96 C 161.75 219.24 166.69 219.93 171.67 220.18 C 172.30 220.97 172.92 221.77 173.54 222.56 C 171.25 223.02 168.96 223.46 166.69 223.95 C 163.44 222.18 160.14 220.47 156.77 218.96 Z" fill="#4e4d55" />
<path d="M 158.57 226.19 C 159.55 224.70 161.55 226.35 159.97 227.43 C 158.94 227.59 158.47 227.18 158.57 226.19 Z" fill="#716d6d" />
<path d="M 149.56 229.63 C 146.87 230.50 144.16 231.21 141.40 231.83 C 144.35 229.46 145.90 229.38 149.56 229.63 Z" fill="#625f5c" />
</svg>