<?xml version="1.0" encoding="UTF-8" standalone="no"?>
<!DOCTYPE svg PUBLIC "-//W3C//DTD SVG 1.1//EN" "http://www.w3.org/Graphics/SVG/1.1/DTD/svg11.dtd">
<svg xmlns="http://www.w3.org/2000/svg" version="1.1" viewBox="0 0 256 256" width="256.0pt" height="256.0pt">
<path d="M 0.00 0.00 L 256.00 0.00 L 256.00 256.00 L 0.00 256.00 L 0.00 0.00 Z" fill="#ffffff" />
<path d="M 221.62 10.77 C 227.85 10.88 233.32 14.05 237.29 18.71 C 240.94 22.91 241.91 29.57 243.11 34.86 C 245.52 45.89 245.38 56.87 244.51 68.06 C 243.80 76.43 240.84 84.77 240.43 93.27 C 240.07 101.38 242.68 108.58 242.98 116.96 C 243.23 125.80 243.26 135.02 241.57 143.70 C 240.44 149.46 239.79 155.84 236.98 160.99 C 235.14 164.43 233.17 167.88 231.15 171.22 C 228.41 175.76 224.05 179.56 220.25 183.26 C 213.34 189.88 205.38 194.50 197.10 199.16 C 186.38 206.18 175.58 213.13 164.44 219.46 C 156.86 223.99 151.04 229.84 144.20 235.19 C 138.44 239.73 131.05 242.59 123.70 242.73 C 115.54 242.44 107.36 239.10 99.27 237.98 C 94.81 237.40 90.36 237.88 85.88 237.17 C 80.99 236.38 76.01 235.38 71.39 233.55 C 63.90 230.63 59.09 221.47 51.57 218.48 C 42.77 216.11 32.63 218.01 23.85 215.03 C 17.37 212.39 12.47 206.00 12.00 198.96 C 11.57 193.43 13.48 187.64 13.88 182.00 C 14.60 174.61 13.35 167.21 13.95 159.86 C 15.03 149.81 19.04 140.53 23.67 131.67 C 28.66 122.06 32.08 111.89 37.55 102.61 C 40.77 96.94 43.39 91.09 46.10 85.18 C 49.82 76.97 54.63 69.19 59.75 61.79 C 63.00 56.99 65.85 52.01 69.54 47.50 C 74.66 41.32 78.98 35.18 86.01 31.00 C 96.71 24.30 111.41 22.47 123.56 19.49 C 144.07 14.25 165.72 14.92 186.99 13.04 C 198.37 12.12 210.21 10.49 221.62 10.77 Z" fill="#f6f6f4" />
<path d="M 221.65 19.90 C 225.18 20.19 228.65 20.68 232.10 21.50 C 231.93 27.30 233.33 32.47 235.14 37.91 C 236.17 40.63 235.06 42.59 234.00 45.03 C 233.01 42.91 232.02 40.78 231.05 38.65 C 230.53 37.43 229.95 36.24 229.34 35.07 C 226.58 38.33 224.17 41.53 223.75 45.95 C 222.78 52.40 225.37 57.67 225.31 64.06 C 224.78 67.06 224.22 70.06 223.73 73.06 C 222.41 77.55 219.70 80.66 216.66 84.06 C 212.43 83.65 208.14 82.64 203.88 82.70 C 200.03 83.30 196.59 86.91 192.61 87.30 C 191.19 86.93 189.82 86.17 188.47 85.58 C 185.15 85.25 181.94 85.85 178.78 86.85 C 173.17 88.65 167.45 90.01 161.78 91.60 C 154.70 93.26 148.52 95.92 141.29 95.98 C 143.72 94.62 146.04 93.07 148.45 91.67 C 152.20 89.54 156.17 87.73 160.22 86.27 C 162.89 85.83 166.05 85.70 168.45 84.41 C 171.23 82.96 173.83 81.15 176.54 79.56 C 180.16 77.33 183.71 75.74 186.92 72.92 C 189.70 70.47 192.50 68.04 195.28 65.58 C 198.13 66.17 199.84 64.52 202.19 63.22 C 207.93 59.55 214.19 57.07 219.60 52.85 C 218.92 52.45 218.23 52.05 217.53 51.66 L 216.90 51.52 C 207.84 53.07 198.08 54.17 189.66 58.04 C 191.49 58.53 193.31 58.99 195.16 59.34 C 187.17 59.81 179.95 62.49 172.46 65.02 C 166.21 65.47 160.24 67.02 154.09 68.11 C 146.49 69.74 139.13 72.78 132.04 75.93 C 126.66 77.46 121.27 79.13 116.00 81.00 C 109.21 83.37 103.32 87.31 97.97 92.05 C 93.31 95.48 87.29 95.79 82.74 99.74 C 78.38 103.55 73.09 106.46 70.95 111.86 C 69.60 115.02 67.44 117.52 65.24 120.10 C 68.15 118.14 71.03 116.65 74.24 115.23 C 77.44 112.81 80.10 109.74 83.46 107.46 C 82.76 109.91 81.51 112.00 80.05 114.07 C 78.41 116.20 77.75 117.58 77.57 120.29 C 73.30 121.75 69.01 122.88 64.95 124.91 C 59.98 127.21 55.79 130.60 50.93 133.07 L 49.60 132.51 C 56.23 124.89 63.52 117.63 69.40 109.41 C 73.17 103.53 77.74 97.94 83.04 93.37 C 86.23 91.84 89.41 90.34 92.41 88.43 C 103.03 81.92 114.28 76.47 124.84 69.86 C 130.68 68.64 136.09 67.12 141.47 64.50 C 150.03 60.56 159.29 59.68 167.98 56.08 C 173.82 53.93 179.06 50.77 184.52 47.84 C 191.53 47.18 199.25 45.24 204.88 40.82 C 208.72 38.00 212.71 35.34 216.80 32.88 C 220.19 30.83 223.58 29.76 225.86 26.27 L 224.44 25.30 C 223.00 24.38 221.47 23.25 219.82 22.80 C 216.90 22.38 213.64 23.24 210.75 23.73 C 208.17 24.13 205.61 24.50 202.99 24.48 C 199.44 24.17 195.98 23.96 192.45 24.64 L 191.00 24.94 C 188.25 25.46 185.53 26.10 182.80 26.73 C 176.77 28.12 170.63 28.97 164.60 30.31 C 164.46 29.61 164.32 28.91 164.18 28.21 C 160.43 28.33 156.57 28.22 152.86 28.80 C 149.86 29.28 146.99 30.69 143.98 30.97 C 139.93 31.07 136.22 29.73 132.18 31.13 C 129.43 31.96 128.25 34.08 126.59 36.22 C 124.19 34.66 121.77 33.71 118.87 34.25 C 113.92 35.12 109.10 35.67 104.09 36.04 C 97.22 36.41 92.66 40.11 86.69 42.90 C 89.16 37.62 93.70 35.82 98.71 33.65 C 105.61 30.48 112.72 30.28 120.01 28.04 C 124.63 26.51 128.55 27.98 132.98 29.25 C 131.68 28.55 130.39 27.85 129.09 27.14 C 137.99 23.63 147.01 23.21 156.42 22.37 C 162.57 21.86 168.58 22.76 174.71 21.82 C 181.45 20.86 188.25 20.80 195.00 20.03 C 199.94 19.53 204.93 18.82 209.89 18.71 C 213.96 18.63 217.63 19.56 221.65 19.90 Z" fill="#f3f1ee" />
<path d="M 219.82 22.80 C 221.47 23.25 223.00 24.38 224.44 25.30 C 217.75 28.29 210.70 30.78 204.36 34.47 C 200.85 36.42 197.69 39.91 193.89 41.07 C 190.13 42.09 185.50 40.28 181.70 40.56 C 179.66 41.04 177.90 43.06 176.24 44.27 C 173.95 46.28 171.24 47.43 168.45 48.57 C 168.99 49.12 169.54 49.67 170.08 50.22 C 168.03 50.94 165.93 51.54 163.83 52.08 C 165.07 47.57 168.69 46.52 172.22 44.09 C 175.53 42.12 178.45 39.80 181.93 38.08 C 185.30 38.73 189.17 39.89 192.59 39.33 C 195.98 38.69 198.28 35.92 200.84 33.87 C 204.27 30.95 208.31 29.68 211.87 26.99 C 212.80 26.12 213.60 25.10 214.42 24.12 C 213.20 23.97 211.98 23.84 210.75 23.73 C 213.64 23.24 216.90 22.38 219.82 22.80 Z" fill="#f3cab1" />
<path d="M 202.99 24.48 C 203.28 25.77 203.58 27.06 203.89 28.35 C 202.67 28.74 201.48 29.19 200.30 29.66 C 199.29 28.49 198.30 27.30 197.31 26.12 C 196.05 24.22 194.51 24.36 192.45 24.64 C 195.98 23.96 199.44 24.17 202.99 24.48 Z" fill="#7b646f" />
<path d="M 210.75 23.73 C 211.98 23.84 213.20 23.97 214.42 24.12 C 213.60 25.10 212.80 26.12 211.87 26.99 C 209.22 27.51 206.54 27.81 203.89 28.35 C 203.58 27.06 203.28 25.77 202.99 24.48 C 205.61 24.50 208.17 24.13 210.75 23.73 Z" fill="#c69988" />
<path d="M 191.00 24.94 C 193.08 25.97 194.97 26.54 197.31 26.12 C 198.30 27.30 199.29 28.49 200.30 29.66 L 199.61 29.94 C 195.83 29.44 192.45 28.58 188.70 29.75 C 181.77 31.76 174.73 33.12 167.48 33.03 C 173.05 29.20 180.18 30.29 186.30 27.14 C 185.13 26.99 183.97 26.85 182.80 26.73 C 185.53 26.10 188.25 25.46 191.00 24.94 Z" fill="#584c63" />
<path d="M 191.00 24.94 L 192.45 24.64 C 194.51 24.36 196.05 24.22 197.31 26.12 C 194.97 26.54 193.08 25.97 191.00 24.94 Z" fill="#261f3a" />
<path d="M 224.44 25.30 L 225.86 26.27 C 223.58 29.76 220.19 30.83 216.80 32.88 C 212.71 35.34 208.72 38.00 204.88 40.82 C 199.25 45.24 191.53 47.18 184.52 47.84 C 179.20 46.77 174.94 48.29 170.08 50.22 C 169.54 49.67 168.99 49.12 168.45 48.57 C 171.24 47.43 173.95 46.28 176.24 44.27 C 177.90 43.06 179.66 41.04 181.70 40.56 C 185.50 40.28 190.13 42.09 193.89 41.07 C 197.69 39.91 200.85 36.42 204.36 34.47 C 210.70 30.78 217.75 28.29 224.44 25.30 Z" fill="#f4e0d3" />
<path d="M 182.80 26.73 C 183.97 26.85 185.13 26.99 186.30 27.14 C 180.18 30.29 173.05 29.20 167.48 33.03 C 174.73 33.12 181.77 31.76 188.70 29.75 C 192.45 28.58 195.83 29.44 199.61 29.94 C 195.30 33.23 190.75 33.37 185.61 34.00 C 173.73 36.15 162.08 37.91 150.96 42.85 C 146.34 43.84 141.86 44.40 137.64 46.71 C 141.96 42.18 147.53 42.75 153.14 39.52 C 149.44 39.29 145.81 39.00 142.24 37.94 C 146.23 35.26 150.56 35.05 155.17 34.30 C 152.03 33.97 148.91 33.65 145.75 33.68 C 152.18 32.88 158.36 32.25 164.60 30.31 C 170.63 28.97 176.77 28.12 182.80 26.73 Z" fill="#462b41" />
<path d="M 211.87 26.99 C 208.31 29.68 204.27 30.95 200.84 33.87 C 198.28 35.92 195.98 38.69 192.59 39.33 C 189.17 39.89 185.30 38.73 181.93 38.08 C 183.92 37.21 185.99 36.45 188.02 35.68 C 187.22 35.11 186.42 34.55 185.61 34.00 C 190.75 33.37 195.30 33.23 199.61 29.94 L 200.30 29.66 C 201.48 29.19 202.67 28.74 203.89 28.35 C 206.54 27.81 209.22 27.51 211.87 26.99 Z" fill="#f2b693" />
<path d="M 152.86 28.80 C 156.57 28.22 160.43 28.33 164.18 28.21 C 164.32 28.91 164.46 29.61 164.60 30.31 C 158.36 32.25 152.18 32.88 145.75 33.68 C 139.91 34.53 134.33 36.45 128.54 37.44 L 126.59 36.22 C 128.25 34.08 129.43 31.96 132.18 31.13 C 136.22 29.73 139.93 31.07 143.98 30.97 C 146.99 30.69 149.86 29.28 152.86 28.80 Z" fill="#f5ccb5" />
<path d="M 126.59 36.22 L 128.54 37.44 C 119.23 38.64 110.46 41.61 101.02 42.12 C 100.37 41.27 99.72 40.41 99.06 39.56 C 100.72 38.35 102.36 37.15 104.09 36.04 C 109.10 35.67 113.92 35.12 118.87 34.25 C 121.77 33.71 124.19 34.66 126.59 36.22 Z" fill="#f3b796" />
<path d="M 145.75 33.68 C 148.91 33.65 152.03 33.97 155.17 34.30 C 150.56 35.05 146.23 35.26 142.24 37.94 C 145.81 39.00 149.44 39.29 153.14 39.52 C 147.53 42.75 141.96 42.18 137.64 46.71 C 136.81 47.42 136.00 48.14 135.14 48.81 C 131.49 50.68 127.02 52.16 124.27 55.26 C 121.58 58.22 119.20 61.41 116.26 64.15 C 113.57 64.48 110.10 63.86 108.33 66.41 C 106.57 68.49 106.77 70.77 106.68 73.31 C 104.00 76.51 101.78 79.68 97.88 81.56 C 96.43 80.73 95.02 79.98 93.75 78.88 C 94.25 75.90 95.39 72.98 96.12 70.03 C 96.43 68.86 96.73 67.69 97.03 66.52 C 94.34 65.14 91.77 63.68 89.58 61.58 C 88.99 61.04 88.40 60.51 87.79 59.98 C 87.60 56.91 87.57 53.84 87.54 50.77 C 90.92 45.94 94.94 42.62 101.02 42.12 C 110.46 41.61 119.23 38.64 128.54 37.44 C 134.33 36.45 139.91 34.53 145.75 33.68 Z" fill="#221e43" />
<path d="M 185.61 34.00 C 186.42 34.55 187.22 35.11 188.02 35.68 C 185.99 36.45 183.92 37.21 181.93 38.08 C 178.45 39.80 175.53 42.12 172.22 44.09 C 169.56 44.41 166.53 44.14 164.02 45.08 C 161.85 47.15 160.47 50.14 158.20 52.09 C 155.28 52.44 152.17 51.69 149.25 52.10 C 146.26 53.96 143.91 56.91 141.24 59.21 C 142.38 60.13 143.51 61.04 144.65 61.96 C 139.17 64.34 133.80 65.94 127.78 66.06 C 130.61 61.23 133.64 56.83 137.75 52.99 C 141.62 48.87 145.75 45.20 150.96 42.85 C 162.08 37.91 173.73 36.15 185.61 34.00 Z" fill="#f3a47a" />
<path d="M 229.34 35.07 C 229.95 36.24 230.53 37.43 231.05 38.65 L 230.97 40.18 C 226.12 44.67 226.57 54.03 225.97 60.11 C 225.76 61.43 225.54 62.75 225.31 64.06 C 225.37 57.67 222.78 52.40 223.75 45.95 C 224.17 41.53 226.58 38.33 229.34 35.07 Z" fill="#bcbbcb" />
<path d="M 104.09 36.04 C 102.36 37.15 100.72 38.35 99.06 39.56 C 99.72 40.41 100.37 41.27 101.02 42.12 C 94.94 42.62 90.92 45.94 87.54 50.77 C 86.35 52.24 85.08 53.62 83.82 55.02 C 83.83 50.68 84.44 46.68 86.69 42.90 C 92.66 40.11 97.22 36.41 104.09 36.04 Z" fill="#f3d5be" />
<path d="M 230.97 40.18 C 230.90 43.61 230.16 47.53 231.11 50.84 C 231.34 51.44 231.57 52.03 231.80 52.62 C 231.15 54.73 230.62 56.85 230.21 59.02 C 229.24 58.08 228.27 57.15 227.27 56.25 C 226.81 57.53 226.37 58.81 225.97 60.11 C 226.57 54.03 226.12 44.67 230.97 40.18 Z" fill="#68679a" />
<path d="M 150.96 42.85 C 145.75 45.20 141.62 48.87 137.75 52.99 C 136.95 51.56 136.10 50.15 135.14 48.81 C 136.00 48.14 136.81 47.42 137.64 46.71 C 141.86 44.40 146.34 43.84 150.96 42.85 Z" fill="#db5746" />
<path d="M 172.22 44.09 C 168.69 46.52 165.07 47.57 163.83 52.08 C 165.93 51.54 168.03 50.94 170.08 50.22 C 174.94 48.29 179.20 46.77 184.52 47.84 C 179.06 50.77 173.82 53.93 167.98 56.08 C 159.29 59.68 150.03 60.56 141.47 64.50 C 136.09 67.12 130.68 68.64 124.84 69.86 C 125.87 68.64 126.86 67.37 127.78 66.06 C 133.80 65.94 139.17 64.34 144.65 61.96 C 143.51 61.04 142.38 60.13 141.24 59.21 C 143.91 56.91 146.26 53.96 149.25 52.10 C 152.17 51.69 155.28 52.44 158.20 52.09 C 160.47 50.14 161.85 47.15 164.02 45.08 C 166.53 44.14 169.56 44.41 172.22 44.09 Z" fill="#f5bb9b" />
<path d="M 235.83 44.61 C 234.55 49.53 233.91 53.94 233.86 59.04 C 233.85 63.33 232.53 67.21 231.30 71.25 C 230.55 71.53 229.81 71.83 229.07 72.12 C 230.20 66.93 231.75 61.77 232.51 56.50 C 232.77 55.08 232.32 53.92 231.80 52.62 C 231.57 52.03 231.34 51.44 231.11 50.84 C 232.61 48.70 234.11 46.58 235.83 44.61 Z" fill="#9e9da9" />
<path d="M 135.14 48.81 C 136.10 50.15 136.95 51.56 137.75 52.99 C 133.64 56.83 130.61 61.23 127.78 66.06 C 126.86 67.37 125.87 68.64 124.84 69.86 C 114.28 76.47 103.03 81.92 92.41 88.43 C 89.41 90.34 86.23 91.84 83.04 93.37 C 82.00 92.64 80.95 91.92 79.91 91.19 C 83.00 85.67 82.76 79.81 82.25 73.71 C 84.84 71.09 87.16 68.28 89.66 65.58 C 89.71 67.03 89.85 68.47 90.05 69.89 C 90.55 74.28 92.47 77.99 94.45 81.85 C 95.59 81.76 96.74 81.68 97.88 81.56 C 101.78 79.68 104.00 76.51 106.68 73.31 C 109.83 70.21 113.15 67.29 116.26 64.15 C 119.20 61.41 121.58 58.22 124.27 55.26 C 127.02 52.16 131.49 50.68 135.14 48.81 Z" fill="#d03428" />
<path d="M 87.54 50.77 C 87.57 53.84 87.60 56.91 87.79 59.98 C 85.43 61.69 83.19 63.57 80.91 65.38 C 80.93 66.90 80.95 68.41 81.01 69.93 C 79.85 67.22 78.77 64.60 78.58 61.62 C 80.14 59.27 81.93 57.11 83.82 55.02 C 85.08 53.62 86.35 52.24 87.54 50.77 Z" fill="#715268" />
<path d="M 216.90 51.52 L 217.53 51.66 C 218.23 52.05 218.92 52.45 219.60 52.85 C 214.19 57.07 207.93 59.55 202.19 63.22 C 199.84 64.52 198.13 66.17 195.28 65.58 C 200.03 60.79 205.68 57.48 211.99 55.18 C 205.93 55.37 201.09 58.85 195.16 59.34 C 193.31 58.99 191.49 58.53 189.66 58.04 C 198.08 54.17 207.84 53.07 216.90 51.52 Z" fill="#ebc4b1" />
<path d="M 231.80 52.62 C 232.32 53.92 232.77 55.08 232.51 56.50 C 231.75 61.77 230.20 66.93 229.07 72.12 C 227.45 82.34 218.71 90.79 210.80 96.74 L 210.20 97.16 C 207.13 98.97 203.89 100.32 200.50 101.39 C 202.17 99.83 203.76 98.19 205.37 96.57 C 209.12 92.93 212.99 89.68 215.73 85.14 L 216.66 84.06 C 219.70 80.66 222.41 77.55 223.73 73.06 C 225.33 70.97 227.30 68.82 228.38 66.41 C 229.36 64.12 229.72 61.45 230.21 59.02 C 230.62 56.85 231.15 54.73 231.80 52.62 Z" fill="#221d44" />
<path d="M 211.99 55.18 C 205.68 57.48 200.03 60.79 195.28 65.58 C 192.50 68.04 189.70 70.47 186.92 72.92 C 183.71 75.74 180.16 77.33 176.54 79.56 C 173.83 81.15 171.23 82.96 168.45 84.41 C 166.05 85.70 162.89 85.83 160.22 86.27 C 159.42 86.19 158.62 86.09 157.82 85.99 C 157.99 84.04 158.15 82.08 158.23 80.12 C 162.20 76.50 164.83 72.20 168.06 67.99 C 169.52 66.98 170.97 65.98 172.46 65.02 C 179.95 62.49 187.17 59.81 195.16 59.34 C 201.09 58.85 205.93 55.37 211.99 55.18 Z" fill="#221d42" />
<path d="M 227.27 56.25 C 228.27 57.15 229.24 58.08 230.21 59.02 C 229.72 61.45 229.36 64.12 228.38 66.41 C 227.30 68.82 225.33 70.97 223.73 73.06 C 224.22 70.06 224.78 67.06 225.31 64.06 C 225.54 62.75 225.76 61.43 225.97 60.11 C 226.37 58.81 226.81 57.53 227.27 56.25 Z" fill="#4b4673" />
<path d="M 87.79 59.98 C 88.40 60.51 88.99 61.04 89.58 61.58 C 89.62 62.92 89.62 64.25 89.66 65.58 C 87.16 68.28 84.84 71.09 82.25 73.71 C 81.86 72.44 81.45 71.18 81.01 69.93 C 80.95 68.41 80.93 66.90 80.91 65.38 C 83.19 63.57 85.43 61.69 87.79 59.98 Z" fill="#936174" />
<path d="M 78.58 61.62 C 78.77 64.60 79.85 67.22 81.01 69.93 C 81.45 71.18 81.86 72.44 82.25 73.71 C 82.76 79.81 83.00 85.67 79.91 91.19 C 78.51 92.38 77.04 93.51 75.59 94.65 C 75.12 92.40 74.68 90.21 73.91 88.04 C 73.31 86.39 72.66 84.76 72.18 83.07 C 71.81 79.40 71.42 75.87 69.83 72.49 C 71.66 69.34 72.44 65.91 73.31 62.41 C 75.06 62.13 76.82 61.85 78.58 61.62 Z" fill="#211e43" />
<path d="M 89.58 61.58 C 91.77 63.68 94.34 65.14 97.03 66.52 C 96.73 67.69 96.43 68.86 96.12 70.03 C 95.89 69.31 95.66 68.60 95.41 67.89 C 93.98 69.55 92.62 71.27 91.24 72.98 C 90.83 71.96 90.44 70.93 90.05 69.89 C 89.85 68.47 89.71 67.03 89.66 65.58 C 89.62 64.25 89.62 62.92 89.58 61.58 Z" fill="#542741" />
<path d="M 116.26 64.15 C 113.15 67.29 109.83 70.21 106.68 73.31 C 106.77 70.77 106.57 68.49 108.33 66.41 C 110.10 63.86 113.57 64.48 116.26 64.15 Z" fill="#702535" />
<path d="M 172.46 65.02 C 170.97 65.98 169.52 66.98 168.06 67.99 C 159.61 69.45 151.68 72.60 143.19 73.73 C 140.71 74.10 138.26 74.57 135.85 75.27 L 134.26 75.71 L 132.04 75.93 C 139.13 72.78 146.49 69.74 154.09 68.11 C 160.24 67.02 166.21 65.47 172.46 65.02 Z" fill="#f7b6a3" />
<path d="M 95.41 67.89 C 95.66 68.60 95.89 69.31 96.12 70.03 C 95.39 72.98 94.25 75.90 93.75 78.88 C 95.02 79.98 96.43 80.73 97.88 81.56 C 96.74 81.68 95.59 81.76 94.45 81.85 C 92.47 77.99 90.55 74.28 90.05 69.89 C 90.44 70.93 90.83 71.96 91.24 72.98 C 92.62 71.27 93.98 69.55 95.41 67.89 Z" fill="#913139" />
<path d="M 168.06 67.99 C 164.83 72.20 162.20 76.50 158.23 80.12 C 153.82 84.00 149.30 87.12 144.08 89.82 C 140.25 91.87 136.87 94.55 132.93 96.43 C 130.38 96.24 128.19 95.28 125.92 94.18 C 129.31 88.58 133.75 84.45 138.42 79.99 C 140.17 78.01 141.66 75.88 143.19 73.73 C 151.68 72.60 159.61 69.45 168.06 67.99 Z" fill="#d33225" />
<path d="M 231.30 71.25 C 230.86 72.82 230.43 74.39 230.00 75.96 C 231.70 74.69 233.40 73.42 235.10 72.15 C 234.53 77.66 234.25 83.46 232.71 88.79 C 232.31 90.76 229.74 91.75 228.22 92.80 C 228.09 94.75 227.97 96.70 227.86 98.65 C 229.13 98.24 230.39 97.84 231.66 97.42 C 232.36 105.98 235.35 112.45 234.43 120.92 C 234.31 123.86 230.58 126.11 228.74 128.04 L 228.71 125.93 C 227.53 126.66 226.35 127.38 225.15 128.06 C 226.68 125.94 228.35 123.93 229.96 121.87 C 227.67 123.32 225.31 124.79 223.21 126.50 C 222.30 125.72 221.39 124.94 220.48 124.15 C 221.23 122.83 221.97 121.51 222.70 120.19 C 220.87 117.77 219.34 115.19 217.89 112.53 C 221.52 110.25 224.64 107.57 227.93 104.85 C 227.87 104.01 227.81 103.16 227.74 102.31 C 226.06 102.56 224.35 102.78 222.68 103.11 C 223.50 101.31 224.02 99.43 224.51 97.52 C 220.79 99.41 217.23 101.59 213.56 103.57 C 207.15 106.80 204.30 113.35 198.06 116.96 C 197.67 116.25 197.29 115.54 196.88 114.85 C 197.90 114.38 198.92 113.90 199.93 113.39 C 201.09 112.86 201.80 112.14 202.09 111.21 C 201.81 110.53 200.98 110.35 199.59 110.67 C 203.95 106.25 209.45 102.89 214.20 98.87 C 213.07 98.15 211.95 97.42 210.80 96.74 C 218.71 90.79 227.45 82.34 229.07 72.12 C 229.81 71.83 230.55 71.53 231.30 71.25 Z" fill="#f1efeb" />
<path d="M 69.83 72.49 C 71.42 75.87 71.81 79.40 72.18 83.07 C 71.65 81.34 71.15 79.61 70.64 77.88 C 68.55 80.64 66.60 83.51 64.69 86.41 C 64.30 85.62 63.93 84.83 63.56 84.03 C 65.56 80.13 67.50 76.21 69.83 72.49 Z" fill="#5a4158" />
<path d="M 143.19 73.73 C 141.66 75.88 140.17 78.01 138.42 79.99 C 137.57 78.42 136.71 76.84 135.85 75.27 C 138.26 74.57 140.71 74.10 143.19 73.73 Z" fill="#802b35" />
<path d="M 132.04 75.93 L 134.26 75.71 C 130.80 78.79 127.23 81.94 122.72 83.36 C 119.59 84.50 115.98 85.05 113.60 87.56 C 110.61 90.59 108.44 94.42 105.50 97.53 C 102.52 100.75 98.64 102.82 95.00 105.49 C 93.02 105.65 91.05 105.83 89.08 106.02 C 91.00 104.05 92.06 102.51 92.73 99.82 C 94.26 97.09 96.04 94.51 97.97 92.05 C 103.32 87.31 109.21 83.37 116.00 81.00 C 121.27 79.13 126.66 77.46 132.04 75.93 Z" fill="#ce392e" />
<path d="M 134.26 75.71 L 135.85 75.27 C 136.71 76.84 137.57 78.42 138.42 79.99 C 133.75 84.45 129.31 88.58 125.92 94.18 C 122.81 97.60 119.70 101.01 116.97 104.76 C 115.37 105.25 113.79 105.80 112.20 106.29 C 108.55 106.54 104.87 106.25 101.24 106.59 C 99.15 106.71 97.32 108.51 95.62 109.62 C 94.85 110.10 94.07 110.57 93.30 111.04 C 93.59 110.08 93.88 109.12 94.18 108.15 C 94.45 107.27 94.72 106.38 95.00 105.49 C 98.64 102.82 102.52 100.75 105.50 97.53 C 108.44 94.42 110.61 90.59 113.60 87.56 C 115.98 85.05 119.59 84.50 122.72 83.36 C 127.23 81.94 130.80 78.79 134.26 75.71 Z" fill="#221d43" />
<path d="M 62.18 76.74 C 62.63 79.17 63.00 81.62 63.56 84.03 C 63.93 84.83 64.30 85.62 64.69 86.41 C 66.16 89.43 67.29 92.57 68.88 95.53 C 68.30 97.77 67.90 100.01 67.42 102.26 C 65.55 105.97 62.44 109.04 59.99 112.41 C 59.62 108.41 60.07 104.45 59.53 100.48 C 58.88 96.38 59.77 92.41 59.85 88.22 C 60.70 84.40 61.50 80.59 62.18 76.74 Z" fill="#211e42" />
<path d="M 70.64 77.88 C 71.15 79.61 71.65 81.34 72.18 83.07 C 72.66 84.76 73.31 86.39 73.91 88.04 C 71.74 90.22 70.13 92.73 68.88 95.53 C 67.29 92.57 66.16 89.43 64.69 86.41 C 66.60 83.51 68.55 80.64 70.64 77.88 Z" fill="#be9091" />
<path d="M 158.23 80.12 C 158.15 82.08 157.99 84.04 157.82 85.99 C 158.62 86.09 159.42 86.19 160.22 86.27 C 156.17 87.73 152.20 89.54 148.45 91.67 C 147.01 91.02 145.56 90.38 144.08 89.82 C 149.30 87.12 153.82 84.00 158.23 80.12 Z" fill="#872b34" />
<path d="M 203.88 82.70 C 208.14 82.64 212.43 83.65 216.66 84.06 L 215.73 85.14 C 209.68 85.16 206.42 89.32 200.92 90.99 C 190.58 94.55 181.10 99.88 170.96 103.87 C 167.54 105.24 164.44 106.32 162.49 109.70 C 161.19 111.52 159.87 113.32 158.53 115.11 C 156.42 114.80 154.30 114.53 152.17 114.28 C 152.78 115.86 153.39 117.44 153.99 119.03 C 152.78 118.17 151.58 117.31 150.39 116.44 C 150.39 117.34 150.39 118.25 150.38 119.15 C 147.06 121.05 145.32 122.90 143.40 126.17 C 139.43 130.57 134.02 134.16 127.83 133.49 C 128.96 132.71 130.07 131.91 131.22 131.16 C 134.05 130.56 137.31 130.80 139.11 128.15 C 142.57 123.08 145.88 118.68 144.66 112.16 C 144.79 110.16 143.67 108.10 145.80 106.95 C 149.91 104.34 154.56 102.61 158.74 100.04 L 159.22 99.77 C 159.87 100.34 160.53 100.90 161.19 101.46 C 163.65 99.94 166.09 98.39 168.52 96.84 C 168.52 98.16 168.51 99.49 168.51 100.82 C 170.16 98.97 171.82 97.13 173.50 95.31 C 172.53 94.40 171.57 93.49 170.58 92.60 C 176.51 89.92 182.07 87.04 188.47 85.58 C 189.82 86.17 191.19 86.93 192.61 87.30 C 196.59 86.91 200.03 83.30 203.88 82.70 Z" fill="#f3eae3" />
<path d="M 188.47 85.58 C 182.07 87.04 176.51 89.92 170.58 92.60 C 166.52 94.55 163.30 97.80 159.22 99.77 L 158.74 100.04 C 156.50 97.91 154.88 97.12 151.82 96.56 C 155.99 95.42 160.11 94.27 163.99 92.32 L 161.78 91.60 C 167.45 90.01 173.17 88.65 178.78 86.85 C 181.94 85.85 185.15 85.25 188.47 85.58 Z" fill="#bc8f96" />
<path d="M 215.73 85.14 C 212.99 89.68 209.12 92.93 205.37 96.57 C 202.56 96.15 199.95 95.32 197.33 94.26 C 197.79 95.16 198.27 96.06 198.75 96.95 C 191.18 98.23 187.87 104.61 180.71 107.01 C 179.25 107.35 177.63 107.20 176.14 107.18 C 176.13 107.67 176.13 108.15 176.12 108.64 C 174.88 108.41 173.64 108.17 172.39 108.01 C 170.74 109.67 169.22 111.49 167.67 113.26 C 168.01 112.15 168.35 111.04 168.69 109.94 C 166.62 109.88 164.55 109.80 162.49 109.70 C 164.44 106.32 167.54 105.24 170.96 103.87 C 181.10 99.88 190.58 94.55 200.92 90.99 C 206.42 89.32 209.68 85.16 215.73 85.14 Z" fill="#f4cdb6" />
<path d="M 73.91 88.04 C 74.68 90.21 75.12 92.40 75.59 94.65 C 77.04 93.51 78.51 92.38 79.91 91.19 C 80.95 91.92 82.00 92.64 83.04 93.37 C 77.74 97.94 73.17 103.53 69.40 109.41 C 63.52 117.63 56.23 124.89 49.60 132.51 C 48.79 133.41 48.00 134.31 47.20 135.22 C 46.83 134.67 46.46 134.12 46.10 133.57 C 46.54 132.81 46.98 132.05 47.42 131.30 C 51.53 127.04 55.60 122.84 58.86 117.87 C 63.34 110.87 68.42 104.61 71.82 96.95 C 70.24 98.63 68.70 100.33 67.42 102.26 C 67.90 100.01 68.30 97.77 68.88 95.53 C 70.13 92.73 71.74 90.22 73.91 88.04 Z" fill="#925465" />
<path d="M 144.08 89.82 C 145.56 90.38 147.01 91.02 148.45 91.67 C 146.04 93.07 143.72 94.62 141.29 95.98 C 139.49 97.00 136.45 97.10 137.54 99.91 C 135.67 99.01 133.91 97.94 132.16 96.84 L 132.93 96.43 C 136.87 94.55 140.25 91.87 144.08 89.82 Z" fill="#24183e" />
<path d="M 97.97 92.05 C 96.04 94.51 94.26 97.09 92.73 99.82 C 90.13 102.07 87.51 104.31 84.82 106.44 C 84.36 106.78 83.91 107.12 83.46 107.46 C 80.10 109.74 77.44 112.81 74.24 115.23 C 71.03 116.65 68.15 118.14 65.24 120.10 C 67.44 117.52 69.60 115.02 70.95 111.86 C 73.09 106.46 78.38 103.55 82.74 99.74 C 87.29 95.79 93.31 95.48 97.97 92.05 Z" fill="#272347" />
<path d="M 161.78 91.60 L 163.99 92.32 C 160.11 94.27 155.99 95.42 151.82 96.56 C 147.82 97.62 143.98 98.92 140.63 101.43 C 139.61 100.90 138.57 100.43 137.54 99.91 C 136.45 97.10 139.49 97.00 141.29 95.98 C 148.52 95.92 154.70 93.26 161.78 91.60 Z" fill="#9d707d" />
<path d="M 55.77 92.34 C 55.54 95.40 54.51 98.19 53.75 101.13 C 52.89 104.68 53.88 107.94 53.22 111.48 C 52.45 115.60 50.96 119.36 49.41 123.22 L 49.19 121.64 C 50.08 118.16 51.59 114.56 51.63 111.02 C 51.60 107.53 52.37 104.21 53.08 100.82 C 53.73 97.76 53.73 94.92 55.77 92.34 Z" fill="#02000c" />
<path d="M 170.58 92.60 C 171.57 93.49 172.53 94.40 173.50 95.31 C 171.82 97.13 170.16 98.97 168.51 100.82 C 168.51 99.49 168.52 98.16 168.52 96.84 C 166.09 98.39 163.65 99.94 161.19 101.46 C 160.53 100.90 159.87 100.34 159.22 99.77 C 163.30 97.80 166.52 94.55 170.58 92.60 Z" fill="#ddb5ad" />
<path d="M 125.92 94.18 C 128.19 95.28 130.38 96.24 132.93 96.43 L 132.16 96.84 C 131.23 97.80 130.72 98.97 130.19 100.17 C 132.23 100.93 134.54 101.52 136.37 102.74 C 138.74 105.01 137.66 108.27 137.37 111.12 C 136.42 111.57 135.47 112.02 134.53 112.47 C 133.76 112.11 132.99 111.74 132.22 111.38 C 132.23 110.02 132.24 108.66 132.26 107.31 C 132.31 106.45 132.36 105.59 132.41 104.72 C 128.44 105.71 124.48 106.73 120.59 108.00 C 119.41 106.89 118.22 105.79 116.97 104.76 C 119.70 101.01 122.81 97.60 125.92 94.18 Z" fill="#935570" />
<path d="M 197.33 94.26 C 199.95 95.32 202.56 96.15 205.37 96.57 C 203.76 98.19 202.17 99.83 200.50 101.39 C 198.66 102.35 196.85 103.35 195.02 104.33 C 187.16 108.24 179.56 112.58 172.15 117.30 L 171.32 117.57 C 172.61 115.25 174.25 113.24 176.08 111.33 C 176.09 110.43 176.11 109.54 176.12 108.64 C 176.13 108.15 176.13 107.67 176.14 107.18 C 177.63 107.20 179.25 107.35 180.71 107.01 C 187.87 104.61 191.18 98.23 198.75 96.95 C 198.27 96.06 197.79 95.16 197.33 94.26 Z" fill="#f1b092" />
<path d="M 132.16 96.84 C 133.91 97.94 135.67 99.01 137.54 99.91 C 138.57 100.43 139.61 100.90 140.63 101.43 C 141.93 103.38 143.24 105.52 143.81 107.82 C 143.42 110.26 142.93 112.74 142.21 115.12 C 140.58 113.80 138.96 112.48 137.37 111.12 C 137.66 108.27 138.74 105.01 136.37 102.74 C 134.54 101.52 132.23 100.93 130.19 100.17 C 130.72 98.97 131.23 97.80 132.16 96.84 Z" fill="#6b6b9a" />
<path d="M 151.82 96.56 C 154.88 97.12 156.50 97.91 158.74 100.04 C 154.56 102.61 149.91 104.34 145.80 106.95 C 143.67 108.10 144.79 110.16 144.66 112.16 C 144.44 110.70 144.16 109.25 143.81 107.82 C 143.24 105.52 141.93 103.38 140.63 101.43 C 143.98 98.92 147.82 97.62 151.82 96.56 Z" fill="#ca4940" />
<path d="M 210.20 97.16 C 204.80 102.61 198.77 106.92 192.35 111.07 C 193.43 108.88 194.24 106.63 195.02 104.33 C 196.85 103.35 198.66 102.35 200.50 101.39 C 203.89 100.32 207.13 98.97 210.20 97.16 Z" fill="#4d4c6e" />
<path d="M 210.20 97.16 L 210.80 96.74 C 211.95 97.42 213.07 98.15 214.20 98.87 C 209.45 102.89 203.95 106.25 199.59 110.67 C 198.57 111.61 199.13 112.57 199.93 113.39 C 198.92 113.90 197.90 114.38 196.88 114.85 C 194.82 114.08 192.54 114.27 190.36 114.23 C 190.99 113.15 191.67 112.11 192.35 111.07 C 198.77 106.92 204.80 102.61 210.20 97.16 Z" fill="#7f779c" />
<path d="M 224.51 97.52 C 224.02 99.43 223.50 101.31 222.68 103.11 C 218.97 106.02 215.81 109.17 213.54 113.35 C 211.31 117.23 208.40 120.53 205.56 123.95 C 204.06 125.81 202.70 127.78 201.32 129.73 C 199.46 129.18 197.55 128.60 195.65 128.23 L 194.51 128.33 C 188.78 128.41 184.01 130.62 178.95 133.02 C 180.20 132.05 181.60 131.03 182.52 129.73 C 182.53 128.54 182.48 127.34 182.37 126.14 C 184.82 125.46 187.23 124.59 189.65 123.81 C 189.52 120.58 189.55 117.39 190.36 114.23 C 192.54 114.27 194.82 114.08 196.88 114.85 C 197.29 115.54 197.67 116.25 198.06 116.96 C 204.30 113.35 207.15 106.80 213.56 103.57 C 217.23 101.59 220.79 99.41 224.51 97.52 Z" fill="#231e44" />
<path d="M 92.73 99.82 C 92.06 102.51 91.00 104.05 89.08 106.02 C 87.66 106.14 86.23 106.26 84.82 106.44 C 87.51 104.31 90.13 102.07 92.73 99.82 Z" fill="#dc9da1" />
<path d="M 227.74 102.31 C 227.81 103.16 227.87 104.01 227.93 104.85 C 224.64 107.57 221.52 110.25 217.89 112.53 C 216.44 112.82 214.99 113.09 213.54 113.35 C 215.81 109.17 218.97 106.02 222.68 103.11 C 224.35 102.78 226.06 102.56 227.74 102.31 Z" fill="#d7d2da" />
<path d="M 95.00 105.49 C 94.72 106.38 94.45 107.27 94.18 108.15 C 89.48 110.27 84.80 112.40 80.24 114.81 L 80.05 114.07 C 81.51 112.00 82.76 109.91 83.46 107.46 C 83.91 107.12 84.36 106.78 84.82 106.44 C 86.23 106.26 87.66 106.14 89.08 106.02 C 91.05 105.83 93.02 105.65 95.00 105.49 Z" fill="#a46474" />
<path d="M 116.97 104.76 C 118.22 105.79 119.41 106.89 120.59 108.00 C 113.82 110.49 107.01 112.15 99.75 111.58 L 100.25 110.55 L 100.99 110.23 C 104.67 108.76 108.43 107.53 112.20 106.29 C 113.79 105.80 115.37 105.25 116.97 104.76 Z" fill="#c9382f" />
<path d="M 132.41 104.72 C 132.36 105.59 132.31 106.45 132.26 107.31 C 129.65 108.01 127.12 108.91 124.55 109.74 C 122.37 110.40 120.21 111.11 118.05 111.82 C 119.21 113.16 120.38 114.49 121.56 115.81 C 121.28 117.32 121.21 119.03 120.54 120.44 C 118.88 122.43 116.62 123.99 114.60 125.62 C 111.28 128.32 107.16 129.51 103.28 131.23 C 103.11 132.75 102.93 134.28 102.77 135.81 C 101.77 137.22 100.71 138.57 99.73 140.00 C 97.89 143.15 96.75 146.50 95.53 149.91 C 95.29 149.24 95.06 148.56 94.83 147.88 C 95.64 145.12 96.36 142.34 97.28 139.60 C 99.62 136.05 101.79 132.49 103.85 128.77 C 106.10 127.24 109.16 127.04 111.44 125.43 C 113.63 123.85 115.50 121.79 117.44 119.92 C 117.20 118.97 116.94 118.02 116.69 117.07 C 116.38 115.98 116.06 114.88 115.74 113.78 C 111.99 114.98 109.04 116.48 105.86 118.80 C 102.66 120.66 99.31 122.22 96.14 124.14 C 92.79 126.03 89.61 128.08 85.79 128.83 C 80.71 129.60 75.91 132.48 71.69 135.29 C 70.34 134.47 69.00 133.65 67.62 132.87 C 72.20 130.37 77.14 127.98 81.11 124.55 C 83.27 122.06 85.10 119.59 88.18 118.15 C 91.82 116.10 97.14 114.92 99.75 111.58 C 107.01 112.15 113.82 110.49 120.59 108.00 C 124.48 106.73 128.44 105.71 132.41 104.72 Z" fill="#231f43" />
<path d="M 195.02 104.33 C 194.24 106.63 193.43 108.88 192.35 111.07 C 191.67 112.11 190.99 113.15 190.36 114.23 C 189.55 117.39 189.52 120.58 189.65 123.81 C 187.23 124.59 184.82 125.46 182.37 126.14 C 178.13 126.28 173.95 125.95 169.71 126.50 C 169.96 125.45 170.20 124.36 170.58 123.35 C 174.02 120.95 180.03 122.26 182.59 118.57 C 185.32 115.22 188.09 111.93 191.07 108.80 C 187.24 110.76 183.72 113.20 180.02 115.37 C 177.55 116.87 174.94 116.99 172.15 117.30 C 179.56 112.58 187.16 108.24 195.02 104.33 Z" fill="#6b6998" />
<path d="M 101.24 106.59 C 104.87 106.25 108.55 106.54 112.20 106.29 C 108.43 107.53 104.67 108.76 100.99 110.23 C 99.20 110.06 97.41 109.81 95.62 109.62 C 97.32 108.51 99.15 106.71 101.24 106.59 Z" fill="#876f84" />
<path d="M 132.26 107.31 C 132.24 108.66 132.23 110.02 132.22 111.38 C 132.99 111.74 133.76 112.11 134.53 112.47 C 135.66 114.99 136.78 117.51 137.90 120.04 C 133.68 122.82 129.94 125.51 127.02 129.74 C 126.05 129.67 125.08 129.60 124.12 129.54 C 125.46 127.91 126.80 126.28 128.14 124.66 C 126.71 123.58 125.28 122.50 123.80 121.48 C 126.20 118.76 128.54 116.08 131.60 114.06 L 130.44 113.50 C 128.47 112.26 126.55 110.94 124.55 109.74 C 127.12 108.91 129.65 108.01 132.26 107.31 Z" fill="#706f9f" />
<path d="M 172.39 108.01 C 173.64 108.17 174.88 108.41 176.12 108.64 C 176.11 109.54 176.09 110.43 176.08 111.33 C 174.25 113.24 172.61 115.25 171.32 117.57 C 169.20 118.28 167.10 119.05 165.00 119.81 C 159.77 121.09 155.47 122.84 151.01 125.86 C 151.86 126.45 152.71 127.05 153.56 127.64 C 149.96 129.04 146.35 130.46 142.75 131.89 C 142.97 129.98 143.15 128.07 143.40 126.17 C 145.32 122.90 147.06 121.05 150.38 119.15 C 150.39 118.25 150.39 117.34 150.39 116.44 C 151.58 117.31 152.78 118.17 153.99 119.03 C 153.39 117.44 152.78 115.86 152.17 114.28 C 154.30 114.53 156.42 114.80 158.53 115.11 C 159.87 113.32 161.19 111.52 162.49 109.70 C 164.55 109.80 166.62 109.88 168.69 109.94 C 168.35 111.04 168.01 112.15 167.67 113.26 C 169.22 111.49 170.74 109.67 172.39 108.01 Z" fill="#f29b7c" />
<path d="M 94.18 108.15 C 93.88 109.12 93.59 110.08 93.30 111.04 C 94.07 110.57 94.85 110.10 95.62 109.62 C 97.41 109.81 99.20 110.06 100.99 110.23 L 100.25 110.55 C 93.48 112.45 87.86 116.45 81.38 118.96 C 81.00 117.58 80.61 116.19 80.24 114.81 C 84.80 112.40 89.48 110.27 94.18 108.15 Z" fill="#b898a3" />
<path d="M 143.81 107.82 C 144.16 109.25 144.44 110.70 144.66 112.16 C 145.88 118.68 142.57 123.08 139.11 128.15 C 137.31 130.80 134.05 130.56 131.22 131.16 C 129.28 131.40 127.33 131.61 125.37 131.75 C 125.92 131.08 126.47 130.41 127.02 129.74 C 129.94 125.51 133.68 122.82 137.90 120.04 C 139.46 118.51 140.90 116.86 142.21 115.12 C 142.93 112.74 143.42 110.26 143.81 107.82 Z" fill="#201d43" />
<path d="M 191.07 108.80 C 188.09 111.93 185.32 115.22 182.59 118.57 C 180.03 122.26 174.02 120.95 170.58 123.35 C 170.20 124.36 169.96 125.45 169.71 126.50 C 165.99 127.91 162.31 129.13 158.33 129.53 C 155.91 129.82 153.93 130.46 151.84 131.73 C 153.50 129.68 155.36 127.96 157.83 126.97 C 161.96 125.25 166.10 123.67 170.04 121.53 C 167.71 121.57 165.38 121.62 163.05 121.65 C 163.69 121.03 164.34 120.42 165.00 119.81 C 167.10 119.05 169.20 118.28 171.32 117.57 L 172.15 117.30 C 174.94 116.99 177.55 116.87 180.02 115.37 C 183.72 113.20 187.24 110.76 191.07 108.80 Z" fill="#8a7896" />
<path d="M 124.55 109.74 C 126.55 110.94 128.47 112.26 130.44 113.50 C 127.45 114.15 124.48 114.88 121.56 115.81 C 120.38 114.49 119.21 113.16 118.05 111.82 C 120.21 111.11 122.37 110.40 124.55 109.74 Z" fill="#bf3732" />
<path d="M 202.09 111.21 C 201.80 112.14 201.09 112.86 199.93 113.39 C 199.13 112.57 198.57 111.61 199.59 110.67 C 200.98 110.35 201.81 110.53 202.09 111.21 Z" fill="#322e4a" />
<path d="M 100.25 110.55 L 99.75 111.58 C 97.14 114.92 91.82 116.10 88.18 118.15 C 85.10 119.59 83.27 122.06 81.11 124.55 C 77.14 124.15 73.24 124.13 69.41 125.42 C 63.16 127.29 58.29 131.47 52.27 133.62 L 50.93 133.07 C 55.79 130.60 59.98 127.21 64.95 124.91 C 69.01 122.88 73.30 121.75 77.57 120.29 C 78.85 119.87 80.12 119.42 81.38 118.96 C 87.86 116.45 93.48 112.45 100.25 110.55 Z" fill="#a6808d" />
<path d="M 137.37 111.12 C 138.96 112.48 140.58 113.80 142.21 115.12 C 140.90 116.86 139.46 118.51 137.90 120.04 C 136.78 117.51 135.66 114.99 134.53 112.47 C 135.47 112.02 136.42 111.57 137.37 111.12 Z" fill="#9391b9" />
<path d="M 47.05 111.40 C 46.93 114.62 46.69 117.83 46.36 121.03 C 45.11 120.69 43.86 120.34 42.60 119.99 C 43.71 121.49 44.81 122.99 45.93 124.47 C 43.89 124.26 41.84 124.12 39.80 123.92 C 41.25 119.13 43.49 114.96 47.05 111.40 Z" fill="#6e7396" />
<path d="M 217.89 112.53 C 219.34 115.19 220.87 117.77 222.70 120.19 C 221.97 121.51 221.23 122.83 220.48 124.15 C 221.39 124.94 222.30 125.72 223.21 126.50 C 222.23 127.75 221.29 129.05 220.38 130.35 C 219.20 132.10 217.96 133.80 217.96 136.01 C 217.94 139.04 219.55 141.82 220.84 144.48 C 220.66 145.28 220.49 146.08 220.33 146.88 C 218.17 146.70 216.03 146.51 213.89 146.20 C 212.70 145.30 211.50 144.40 210.31 143.49 L 209.70 143.02 C 211.54 141.72 213.36 140.39 215.17 139.05 C 214.11 137.68 213.05 136.31 211.92 134.98 C 214.27 131.45 216.68 128.45 219.95 125.69 C 216.81 127.42 213.76 129.30 210.75 131.24 L 209.82 129.63 C 212.98 128.47 214.45 126.05 216.56 123.68 C 214.69 123.39 212.80 123.07 210.90 122.94 C 209.11 123.15 207.32 123.56 205.56 123.95 C 208.40 120.53 211.31 117.23 213.54 113.35 C 214.99 113.09 216.44 112.82 217.89 112.53 Z" fill="#eedcd3" />
<path d="M 80.05 114.07 L 80.24 114.81 C 80.61 116.19 81.00 117.58 81.38 118.96 C 80.12 119.42 78.85 119.87 77.57 120.29 C 77.75 117.58 78.41 116.20 80.05 114.07 Z" fill="#d9c4c7" />
<path d="M 115.74 113.78 C 116.06 114.88 116.38 115.98 116.69 117.07 C 113.10 117.97 109.54 118.45 105.86 118.80 C 109.04 116.48 111.99 114.98 115.74 113.78 Z" fill="#7e5569" />
<path d="M 130.44 113.50 L 131.60 114.06 C 128.54 116.08 126.20 118.76 123.80 121.48 C 121.65 123.75 119.82 126.34 117.58 128.51 C 115.05 131.01 110.86 131.38 107.81 133.02 C 105.89 134.26 104.33 136.14 102.69 137.72 L 102.77 135.81 C 102.93 134.28 103.11 132.75 103.28 131.23 C 107.16 129.51 111.28 128.32 114.60 125.62 C 116.62 123.99 118.88 122.43 120.54 120.44 C 121.21 119.03 121.28 117.32 121.56 115.81 C 124.48 114.88 127.45 114.15 130.44 113.50 Z" fill="#f4f3f2" />
<path d="M 116.69 117.07 C 116.94 118.02 117.20 118.97 117.44 119.92 C 115.50 121.79 113.63 123.85 111.44 125.43 C 109.16 127.04 106.10 127.24 103.85 128.77 C 101.79 132.49 99.62 136.05 97.28 139.60 C 96.02 140.27 94.73 140.56 94.02 141.90 C 91.86 145.74 90.37 150.00 88.70 154.07 C 84.68 156.45 80.36 159.58 75.77 160.55 C 74.75 160.69 73.72 160.82 72.70 160.95 C 74.54 158.09 76.10 155.08 77.44 151.95 C 77.88 152.72 78.32 153.49 78.77 154.26 C 81.59 151.19 84.34 148.17 86.22 144.39 C 87.28 142.42 88.15 140.37 88.96 138.29 C 85.06 140.35 81.35 142.74 78.09 145.74 C 77.40 146.35 76.72 146.97 76.04 147.60 C 73.09 149.15 70.16 150.71 67.17 152.20 C 63.25 154.16 60.70 157.30 57.11 160.12 C 53.51 163.14 49.84 165.20 46.88 168.88 C 45.26 170.86 43.57 172.67 41.68 174.40 C 38.55 177.32 35.52 180.53 33.16 184.11 C 32.07 185.69 32.40 187.90 32.48 189.73 C 32.73 191.64 33.12 193.53 33.50 195.42 C 31.80 195.78 30.10 196.14 28.40 196.49 C 27.45 198.16 26.49 199.83 25.49 201.47 C 24.01 197.06 28.17 194.17 30.03 190.51 C 27.02 191.81 24.28 193.53 21.53 195.28 C 20.13 190.28 21.67 186.03 22.12 181.04 C 22.48 177.77 22.43 174.50 22.62 171.23 C 25.19 168.92 27.57 166.44 30.03 164.03 C 34.09 160.08 38.53 157.54 42.13 153.17 C 44.50 150.46 46.77 146.70 50.10 145.14 C 53.51 143.65 57.37 143.06 60.97 142.11 C 64.66 141.29 67.71 142.49 71.30 143.14 C 71.33 140.52 71.43 137.91 71.69 135.29 C 75.91 132.48 80.71 129.60 85.79 128.83 C 89.61 128.08 92.79 126.03 96.14 124.14 C 99.31 122.22 102.66 120.66 105.86 118.80 C 109.54 118.45 113.10 117.97 116.69 117.07 Z" fill="#f3f2f1" />
<path d="M 165.00 119.81 C 164.34 120.42 163.69 121.03 163.05 121.65 C 165.38 121.62 167.71 121.57 170.04 121.53 C 166.10 123.67 161.96 125.25 157.83 126.97 C 155.36 127.96 153.50 129.68 151.84 131.73 C 148.39 136.02 145.17 140.41 141.16 144.22 C 139.35 145.88 138.85 147.93 138.46 150.26 C 138.04 152.68 137.38 155.01 136.55 157.32 C 135.07 153.95 134.82 150.44 134.71 146.82 C 140.29 143.80 145.31 140.97 147.29 134.48 C 145.56 135.68 143.93 136.95 142.34 138.32 C 141.30 138.92 140.25 139.48 139.20 140.05 C 139.34 137.68 139.49 135.30 139.61 132.93 C 137.03 134.54 134.57 136.11 132.79 138.65 C 131.33 140.77 129.81 144.17 127.30 145.15 C 125.20 145.62 122.80 145.08 120.67 144.86 C 120.77 142.88 120.37 140.27 121.29 138.48 C 123.03 136.44 125.67 135.06 127.83 133.49 C 134.02 134.16 139.43 130.57 143.40 126.17 C 143.15 128.07 142.97 129.98 142.75 131.89 C 146.35 130.46 149.96 129.04 153.56 127.64 C 152.71 127.05 151.86 126.45 151.01 125.86 C 155.47 122.84 159.77 121.09 165.00 119.81 Z" fill="#bb878b" />
<path d="M 49.19 121.64 L 49.41 123.22 C 48.75 125.91 48.11 128.61 47.42 131.30 C 46.98 132.05 46.54 132.81 46.10 133.57 C 44.10 133.11 42.12 132.67 40.15 132.08 C 39.99 131.33 39.84 130.57 39.70 129.82 C 39.59 128.43 39.44 127.05 39.29 125.66 C 39.45 125.08 39.62 124.50 39.80 123.92 C 41.84 124.12 43.89 124.26 45.93 124.47 C 46.31 124.85 46.68 125.24 47.05 125.62 C 47.77 124.29 48.49 122.97 49.19 121.64 Z" fill="#989ab7" />
<path d="M 123.80 121.48 C 125.28 122.50 126.71 123.58 128.14 124.66 C 126.80 126.28 125.46 127.91 124.12 129.54 C 125.08 129.60 126.05 129.67 127.02 129.74 C 126.47 130.41 125.92 131.08 125.37 131.75 L 124.61 131.80 C 119.07 130.64 115.04 133.65 111.40 137.41 C 109.47 139.56 108.53 142.10 107.45 144.74 C 107.11 145.54 106.76 146.34 106.41 147.13 C 106.47 145.40 106.54 143.67 106.60 141.94 C 104.99 143.57 103.40 145.21 101.97 147.00 C 100.96 148.28 100.00 149.60 99.03 150.92 C 100.38 147.18 101.79 143.47 103.01 139.70 C 101.92 139.78 100.82 139.89 99.73 140.00 C 100.71 138.57 101.77 137.22 102.77 135.81 L 102.69 137.72 C 104.33 136.14 105.89 134.26 107.81 133.02 C 110.86 131.38 115.05 131.01 117.58 128.51 C 119.82 126.34 121.65 123.75 123.80 121.48 Z" fill="#9394b3" />
<path d="M 210.90 122.94 C 212.80 123.07 214.69 123.39 216.56 123.68 C 214.45 126.05 212.98 128.47 209.82 129.63 C 205.02 130.84 202.40 134.87 197.38 135.33 C 198.68 133.46 200.00 131.59 201.32 129.73 C 202.70 127.78 204.06 125.81 205.56 123.95 C 207.32 123.56 209.11 123.15 210.90 122.94 Z" fill="#dea692" />
<path d="M 229.96 121.87 C 228.35 123.93 226.68 125.94 225.15 128.06 C 226.35 127.38 227.53 126.66 228.71 125.93 L 228.74 128.04 C 228.89 129.36 229.09 130.68 229.36 131.99 C 228.55 132.58 227.73 133.18 226.91 133.77 C 224.76 132.58 222.57 131.45 220.38 130.35 C 221.29 129.05 222.23 127.75 223.21 126.50 C 225.31 124.79 227.67 123.32 229.96 121.87 Z" fill="#1c1840" />
<path d="M 200.51 123.64 C 201.49 123.46 202.47 123.30 203.45 123.17 C 202.33 124.32 201.18 125.42 199.99 126.49 C 200.14 125.53 200.31 124.58 200.51 123.64 Z" fill="#4f4770" />
<path d="M 81.11 124.55 C 77.14 127.98 72.20 130.37 67.62 132.87 C 65.45 133.20 63.26 133.43 61.09 133.76 C 59.86 133.94 58.69 134.28 57.50 134.63 C 53.65 135.50 49.70 135.71 45.86 136.75 C 46.31 136.24 46.75 135.73 47.20 135.22 C 48.00 134.31 48.79 133.41 49.60 132.51 L 50.93 133.07 L 52.27 133.62 C 58.29 131.47 63.16 127.29 69.41 125.42 C 73.24 124.13 77.14 124.15 81.11 124.55 Z" fill="#e2d7d7" />
<path d="M 39.29 125.66 C 39.44 127.05 39.59 128.43 39.70 129.82 C 39.09 133.36 38.43 136.96 37.30 140.38 C 35.81 144.68 32.69 147.85 30.25 151.78 C 28.66 154.29 27.34 156.95 25.85 159.52 C 26.31 154.98 27.35 150.65 29.72 146.72 C 31.26 144.06 33.14 142.00 34.02 139.10 C 35.44 134.48 37.64 130.21 39.29 125.66 Z" fill="#1d1c40" />
<path d="M 169.71 126.50 C 173.95 125.95 178.13 126.28 182.37 126.14 C 182.48 127.34 182.53 128.54 182.52 129.73 C 181.60 131.03 180.20 132.05 178.95 133.02 L 178.30 133.30 C 176.89 133.67 175.59 133.92 174.53 135.02 C 170.66 138.63 166.74 142.30 163.33 146.36 C 161.25 148.49 162.35 151.94 162.49 154.62 C 163.58 154.42 164.66 154.22 165.75 154.00 C 166.17 154.61 166.60 155.23 167.02 155.84 C 163.73 159.00 161.21 162.69 158.77 166.52 C 156.26 168.88 153.86 171.30 151.80 174.07 L 153.26 174.21 C 158.23 174.91 163.16 172.63 168.26 172.53 C 161.82 177.08 155.28 181.60 148.39 185.45 C 145.39 187.63 143.79 191.54 141.17 194.22 C 140.35 192.49 139.53 190.76 138.71 189.03 C 140.35 186.25 141.99 183.54 144.15 181.13 C 145.62 179.40 147.54 177.62 148.45 175.54 C 149.29 173.42 149.48 170.95 149.87 168.71 C 150.89 165.54 151.70 162.35 152.21 159.06 C 152.90 155.30 152.91 151.58 152.87 147.77 C 154.60 145.39 156.57 142.96 156.94 139.94 C 157.48 136.48 157.82 132.99 158.33 129.53 C 162.31 129.13 165.99 127.91 169.71 126.50 Z" fill="#c48b8a" />
<path d="M 219.95 125.69 C 216.68 128.45 214.27 131.45 211.92 134.98 C 209.98 136.14 208.00 137.22 205.96 138.19 C 202.67 139.68 199.46 141.30 196.24 142.92 C 196.29 143.72 196.34 144.52 196.39 145.31 C 190.66 145.15 185.19 145.15 179.72 147.20 C 181.24 143.72 182.71 140.98 186.32 139.31 C 187.11 140.36 187.90 141.41 188.70 142.45 C 189.39 141.49 190.09 140.52 190.78 139.56 C 191.92 139.82 193.07 140.08 194.21 140.33 C 195.23 138.64 196.24 136.94 197.38 135.33 C 202.40 134.87 205.02 130.84 209.82 129.63 L 210.75 131.24 C 213.76 129.30 216.81 127.42 219.95 125.69 Z" fill="#a07980" />
<path d="M 194.51 128.33 C 192.17 130.16 188.37 131.72 187.46 134.70 C 187.16 135.39 186.90 136.10 186.63 136.80 C 185.84 136.39 185.05 135.98 184.25 135.57 C 182.12 138.23 179.92 140.84 177.84 143.55 C 176.90 143.18 175.96 142.80 175.01 142.43 C 174.62 143.05 174.22 143.67 173.81 144.29 C 171.51 147.99 167.68 150.00 165.75 154.00 C 164.66 154.22 163.58 154.42 162.49 154.62 C 162.35 151.94 161.25 148.49 163.33 146.36 C 166.74 142.30 170.66 138.63 174.53 135.02 C 176.23 136.89 178.41 135.70 178.30 133.30 L 178.95 133.02 C 184.01 130.62 188.78 128.41 194.51 128.33 Z" fill="#947b95" />
<path d="M 194.51 128.33 L 195.65 128.23 C 197.55 128.60 199.46 129.18 201.32 129.73 C 200.00 131.59 198.68 133.46 197.38 135.33 C 196.24 136.94 195.23 138.64 194.21 140.33 C 193.07 140.08 191.92 139.82 190.78 139.56 C 190.09 140.52 189.39 141.49 188.70 142.45 C 187.90 141.41 187.11 140.36 186.32 139.31 C 182.71 140.98 181.24 143.72 179.72 147.20 C 179.20 147.45 178.67 147.72 178.15 147.99 C 176.32 147.07 175.09 145.87 173.81 144.29 C 174.22 143.67 174.62 143.05 175.01 142.43 C 175.96 142.80 176.90 143.18 177.84 143.55 C 179.92 140.84 182.12 138.23 184.25 135.57 C 185.05 135.98 185.84 136.39 186.63 136.80 C 186.90 136.10 187.16 135.39 187.46 134.70 C 188.37 131.72 192.17 130.16 194.51 128.33 Z" fill="#3a2f50" />
<path d="M 158.33 129.53 C 157.82 132.99 157.48 136.48 156.94 139.94 C 156.57 142.96 154.60 145.39 152.87 147.77 C 150.64 150.48 148.53 153.06 147.64 156.54 C 146.58 160.40 145.21 163.93 143.01 167.30 C 142.23 164.36 141.32 161.48 141.64 158.40 C 141.96 155.31 142.88 152.20 143.71 149.22 C 141.96 149.57 140.22 149.92 138.46 150.26 C 138.85 147.93 139.35 145.88 141.16 144.22 C 145.17 140.41 148.39 136.02 151.84 131.73 C 153.93 130.46 155.91 129.82 158.33 129.53 Z" fill="#211d43" />
<path d="M 39.70 129.82 C 39.84 130.57 39.99 131.33 40.15 132.08 C 42.12 132.67 44.10 133.11 46.10 133.57 C 46.46 134.12 46.83 134.67 47.20 135.22 C 46.75 135.73 46.31 136.24 45.86 136.75 C 42.75 140.63 38.93 143.95 36.00 147.96 C 33.95 150.79 34.11 153.84 33.85 157.17 C 37.29 153.48 39.89 148.87 43.70 145.63 C 46.97 142.85 50.69 141.76 54.65 140.33 C 56.73 141.03 58.82 141.68 60.97 142.11 C 57.37 143.06 53.51 143.65 50.10 145.14 C 46.77 146.70 44.50 150.46 42.13 153.17 C 38.53 157.54 34.09 160.08 30.03 164.03 C 27.57 166.44 25.19 168.92 22.62 171.23 C 24.21 166.57 28.28 163.86 30.28 159.71 C 30.88 157.20 30.37 154.34 30.25 151.78 C 32.69 147.85 35.81 144.68 37.30 140.38 C 38.43 136.96 39.09 133.36 39.70 129.82 Z" fill="#797ba3" />
<path d="M 124.61 131.80 C 119.61 135.61 114.59 138.03 110.79 143.19 C 109.92 144.31 109.13 145.50 108.32 146.67 C 108.03 146.03 107.74 145.38 107.45 144.74 C 108.53 142.10 109.47 139.56 111.40 137.41 C 115.04 133.65 119.07 130.64 124.61 131.80 Z" fill="#201c44" />
<path d="M 131.22 131.16 C 130.07 131.91 128.96 132.71 127.83 133.49 C 125.67 135.06 123.03 136.44 121.29 138.48 C 120.37 140.27 120.77 142.88 120.67 144.86 C 122.80 145.08 125.20 145.62 127.30 145.15 C 129.81 144.17 131.33 140.77 132.79 138.65 C 132.98 140.55 133.19 142.44 133.40 144.34 C 127.58 147.07 122.05 150.94 117.91 155.88 C 116.48 155.89 114.94 156.03 113.54 155.71 C 111.98 155.08 110.61 153.89 109.20 152.97 C 111.12 148.29 114.00 144.77 117.35 141.07 C 115.12 141.70 112.93 142.28 110.79 143.19 C 114.59 138.03 119.61 135.61 124.61 131.80 L 125.37 131.75 C 127.33 131.61 129.28 131.40 131.22 131.16 Z" fill="#a68092" />
<path d="M 220.38 130.35 C 222.57 131.45 224.76 132.58 226.91 133.77 C 227.73 133.18 228.55 132.58 229.36 131.99 C 230.10 135.07 230.02 138.11 229.57 141.23 C 228.36 139.52 227.16 137.79 225.96 136.07 C 226.33 139.86 226.65 143.57 226.35 147.38 C 224.53 146.39 222.70 145.39 220.84 144.48 C 219.55 141.82 217.94 139.04 217.96 136.01 C 217.96 133.80 219.20 132.10 220.38 130.35 Z" fill="#7576a2" />
<path d="M 61.09 133.76 C 61.70 134.52 62.31 135.28 62.90 136.06 C 61.56 136.95 60.24 137.84 58.86 138.67 C 58.40 137.33 57.94 135.98 57.50 134.63 C 58.69 134.28 59.86 133.94 61.09 133.76 Z" fill="#46435f" />
<path d="M 67.62 132.87 C 69.00 133.65 70.34 134.47 71.69 135.29 C 71.43 137.91 71.33 140.52 71.30 143.14 C 67.71 142.49 64.66 141.29 60.97 142.11 C 58.82 141.68 56.73 141.03 54.65 140.33 C 56.07 139.81 57.47 139.27 58.86 138.67 C 60.24 137.84 61.56 136.95 62.90 136.06 C 62.31 135.28 61.70 134.52 61.09 133.76 C 63.26 133.43 65.45 133.20 67.62 132.87 Z" fill="#231f45" />
<path d="M 139.61 132.93 C 139.49 135.30 139.34 137.68 139.20 140.05 C 140.25 139.48 141.30 138.92 142.34 138.32 C 139.70 141.30 137.06 142.87 133.40 144.34 C 133.19 142.44 132.98 140.55 132.79 138.65 C 134.57 136.11 137.03 134.54 139.61 132.93 Z" fill="#6d6a96" />
<path d="M 178.30 133.30 C 178.41 135.70 176.23 136.89 174.53 135.02 C 175.59 133.92 176.89 133.67 178.30 133.30 Z" fill="#644861" />
<path d="M 57.50 134.63 C 57.94 135.98 58.40 137.33 58.86 138.67 C 57.47 139.27 56.07 139.81 54.65 140.33 C 50.69 141.76 46.97 142.85 43.70 145.63 C 39.89 148.87 37.29 153.48 33.85 157.17 C 34.11 153.84 33.95 150.79 36.00 147.96 C 38.93 143.95 42.75 140.63 45.86 136.75 C 49.70 135.71 53.65 135.50 57.50 134.63 Z" fill="#8f91b2" />
<path d="M 147.29 134.48 C 145.31 140.97 140.29 143.80 134.71 146.82 C 130.15 149.25 124.90 150.32 121.68 154.58 C 117.78 158.78 115.34 163.74 112.86 168.84 C 113.78 164.20 115.10 159.77 117.91 155.88 C 122.05 150.94 127.58 147.07 133.40 144.34 C 137.06 142.87 139.70 141.30 142.34 138.32 C 143.93 136.95 145.56 135.68 147.29 134.48 Z" fill="#423a60" />
<path d="M 211.92 134.98 C 213.05 136.31 214.11 137.68 215.17 139.05 C 213.36 140.39 211.54 141.72 209.70 143.02 L 208.44 142.03 C 207.55 140.79 206.80 139.47 205.96 138.19 C 208.00 137.22 209.98 136.14 211.92 134.98 Z" fill="#e8bdae" />
<path d="M 225.96 136.07 C 227.16 137.79 228.36 139.52 229.57 141.23 C 229.25 144.54 228.92 147.82 228.18 151.06 C 225.04 154.04 222.25 155.33 218.14 156.58 C 215.39 154.65 213.28 152.18 211.11 149.66 C 210.01 152.64 208.97 155.62 207.59 158.49 C 208.19 155.81 208.75 153.26 208.48 150.49 C 208.50 149.55 208.51 148.61 208.53 147.67 C 207.61 147.27 206.69 146.86 205.76 146.49 C 207.24 145.42 208.77 144.47 210.31 143.49 C 211.50 144.40 212.70 145.30 213.89 146.20 C 215.67 148.55 217.39 152.70 220.25 153.78 C 223.74 154.61 225.22 149.78 226.35 147.38 C 226.65 143.57 226.33 139.86 225.96 136.07 Z" fill="#211f41" />
<path d="M 88.96 138.29 C 88.15 140.37 87.28 142.42 86.22 144.39 C 82.95 145.15 80.92 146.62 78.68 149.09 C 78.51 147.97 78.31 146.85 78.09 145.74 C 81.35 142.74 85.06 140.35 88.96 138.29 Z" fill="#a299a8" />
<path d="M 205.96 138.19 C 206.80 139.47 207.55 140.79 208.44 142.03 C 204.40 142.50 201.85 144.93 198.98 147.52 C 198.12 146.79 197.25 146.05 196.39 145.31 C 196.34 144.52 196.29 143.72 196.24 142.92 C 199.46 141.30 202.67 139.68 205.96 138.19 Z" fill="#d59179" />
<path d="M 97.28 139.60 C 96.36 142.34 95.64 145.12 94.83 147.88 C 93.35 152.92 89.78 157.58 86.81 161.89 C 83.57 166.48 78.92 167.86 73.87 169.55 C 74.90 168.75 75.92 167.95 76.95 167.15 C 80.06 165.20 82.19 163.21 84.44 160.32 C 86.17 158.43 87.75 156.48 88.70 154.07 C 90.37 150.00 91.86 145.74 94.02 141.90 C 94.73 140.56 96.02 140.27 97.28 139.60 Z" fill="#bb99a1" />
<path d="M 103.01 139.70 C 101.79 143.47 100.38 147.18 99.03 150.92 C 100.00 149.60 100.96 148.28 101.97 147.00 C 102.64 147.99 103.31 148.98 103.98 149.97 C 102.35 153.51 101.08 157.17 99.66 160.79 C 97.81 165.53 94.39 168.92 93.45 174.07 C 95.90 171.21 97.98 168.10 100.04 164.96 C 100.21 168.90 99.98 172.82 99.93 176.76 C 99.85 178.89 100.87 180.45 101.81 182.27 C 101.14 182.50 100.48 182.74 99.81 182.98 C 98.06 180.86 96.05 177.54 93.29 176.72 C 86.51 174.95 80.93 181.72 74.73 178.66 C 73.24 177.86 71.78 176.99 70.26 176.25 C 66.77 176.85 63.66 178.50 60.20 179.17 C 60.24 177.99 60.25 176.81 60.24 175.63 C 57.92 176.93 55.60 178.20 53.21 179.35 C 52.68 178.53 52.16 177.70 51.63 176.87 C 55.32 175.71 58.59 173.80 61.88 171.82 C 63.21 171.45 64.54 171.12 65.87 170.79 C 65.08 172.62 64.27 174.44 63.48 176.27 C 66.65 174.65 69.64 172.82 72.44 170.60 C 72.91 170.25 73.39 169.90 73.87 169.55 C 78.92 167.86 83.57 166.48 86.81 161.89 C 89.78 157.58 93.35 152.92 94.83 147.88 C 95.06 148.56 95.29 149.24 95.53 149.91 C 96.75 146.50 97.89 143.15 99.73 140.00 C 100.82 139.89 101.92 139.78 103.01 139.70 Z" fill="#7a779f" />
<path d="M 117.35 141.07 C 114.00 144.77 111.12 148.29 109.20 152.97 C 106.96 155.94 104.69 158.88 102.62 161.98 C 103.61 163.63 104.58 165.28 105.57 166.93 C 105.25 169.64 105.18 172.41 105.07 175.14 C 106.01 172.69 106.97 170.24 107.82 167.76 C 107.76 170.73 107.88 173.71 107.94 176.68 C 107.82 177.92 107.68 179.16 107.54 180.40 C 105.62 180.99 103.71 181.61 101.81 182.27 C 100.87 180.45 99.85 178.89 99.93 176.76 C 99.98 172.82 100.21 168.90 100.04 164.96 C 97.98 168.10 95.90 171.21 93.45 174.07 C 94.39 168.92 97.81 165.53 99.66 160.79 C 101.08 157.17 102.35 153.51 103.98 149.97 C 103.31 148.98 102.64 147.99 101.97 147.00 C 103.40 145.21 104.99 143.57 106.60 141.94 C 106.54 143.67 106.47 145.40 106.41 147.13 C 106.76 146.34 107.11 145.54 107.45 144.74 C 107.74 145.38 108.03 146.03 108.32 146.67 C 109.13 145.50 109.92 144.31 110.79 143.19 C 112.93 142.28 115.12 141.70 117.35 141.07 Z" fill="#6c6b99" />
<path d="M 208.44 142.03 L 209.70 143.02 L 210.31 143.49 C 208.77 144.47 207.24 145.42 205.76 146.49 C 204.28 148.65 203.33 151.21 202.14 153.54 C 201.12 152.72 200.10 151.90 199.12 151.04 C 198.04 149.21 197.19 147.28 196.39 145.31 C 197.25 146.05 198.12 146.79 198.98 147.52 C 201.85 144.93 204.40 142.50 208.44 142.03 Z" fill="#b091a1" />
<path d="M 86.22 144.39 C 84.34 148.17 81.59 151.19 78.77 154.26 C 78.32 153.49 77.88 152.72 77.44 151.95 C 77.86 151.00 78.27 150.05 78.68 149.09 C 80.92 146.62 82.95 145.15 86.22 144.39 Z" fill="#7b7c9b" />
<path d="M 173.81 144.29 C 175.09 145.87 176.32 147.07 178.15 147.99 C 174.08 150.10 170.26 152.56 167.02 155.84 C 166.60 155.23 166.17 154.61 165.75 154.00 C 167.68 150.00 171.51 147.99 173.81 144.29 Z" fill="#6d6998" />
<path d="M 220.84 144.48 C 222.70 145.39 224.53 146.39 226.35 147.38 C 225.22 149.78 223.74 154.61 220.25 153.78 C 217.39 152.70 215.67 148.55 213.89 146.20 C 216.03 146.51 218.17 146.70 220.33 146.88 C 220.49 146.08 220.66 145.28 220.84 144.48 Z" fill="#aaa5bc" />
<path d="M 196.39 145.31 C 197.19 147.28 198.04 149.21 199.12 151.04 C 198.42 151.32 197.73 151.60 197.04 151.89 L 195.33 152.58 L 194.36 150.46 C 193.95 149.60 193.54 148.75 193.12 147.90 C 192.36 148.19 191.61 148.49 190.88 148.82 C 188.44 149.90 186.02 150.98 183.46 151.74 C 185.65 149.75 188.02 148.00 190.35 146.17 C 187.85 146.93 185.37 147.74 182.93 148.67 C 172.10 152.30 166.95 160.33 159.76 168.38 L 158.77 166.52 C 161.21 162.69 163.73 159.00 167.02 155.84 C 170.26 152.56 174.08 150.10 178.15 147.99 C 178.67 147.72 179.20 147.45 179.72 147.20 C 185.19 145.15 190.66 145.15 196.39 145.31 Z" fill="#28213b" />
<path d="M 78.09 145.74 C 78.31 146.85 78.51 147.97 78.68 149.09 C 78.27 150.05 77.86 151.00 77.44 151.95 C 76.10 155.08 74.54 158.09 72.70 160.95 C 69.65 163.15 67.47 166.01 65.27 169.01 C 64.16 169.97 63.05 170.92 61.88 171.82 C 58.59 173.80 55.32 175.71 51.63 176.87 C 50.52 177.22 49.39 177.53 48.27 177.84 L 46.60 178.19 C 46.50 177.65 46.39 177.11 46.29 176.57 C 45.35 176.10 44.40 175.62 43.45 175.17 C 48.07 175.60 52.78 174.40 56.41 171.45 C 62.16 166.92 67.32 161.58 71.91 155.90 C 73.96 153.44 75.01 150.58 76.04 147.60 C 76.72 146.97 77.40 146.35 78.09 145.74 Z" fill="#e62f17" />
<path d="M 190.35 146.17 C 188.02 148.00 185.65 149.75 183.46 151.74 C 186.02 150.98 188.44 149.90 190.88 148.82 C 189.20 151.22 187.59 153.88 186.69 156.68 C 185.93 158.75 186.76 161.27 187.10 163.37 C 191.47 160.38 194.17 156.22 197.04 151.89 C 197.73 151.60 198.42 151.32 199.12 151.04 C 200.10 151.90 201.12 152.72 202.14 153.54 C 199.60 158.55 195.46 162.79 191.03 166.17 C 188.72 168.25 184.48 166.37 181.79 166.14 C 180.63 164.62 179.38 163.19 178.12 161.76 C 179.83 157.43 181.56 153.13 182.93 148.67 C 185.37 147.74 187.85 146.93 190.35 146.17 Z" fill="#9a7d93" />
<path d="M 205.76 146.49 C 206.69 146.86 207.61 147.27 208.53 147.67 C 208.51 148.61 208.50 149.55 208.48 150.49 C 206.99 153.46 206.15 156.09 205.65 159.36 C 205.27 163.05 201.36 165.81 198.78 168.12 C 196.76 169.49 194.43 170.90 192.01 171.40 C 189.35 170.91 186.82 170.19 184.18 169.62 C 183.40 168.44 182.62 167.28 181.79 166.14 C 184.48 166.37 188.72 168.25 191.03 166.17 C 195.46 162.79 199.60 158.55 202.14 153.54 C 203.33 151.21 204.28 148.65 205.76 146.49 Z" fill="#6a6897" />
<path d="M 134.71 146.82 C 134.82 150.44 135.07 153.95 136.55 157.32 C 137.38 155.01 138.04 152.68 138.46 150.26 C 140.22 149.92 141.96 149.57 143.71 149.22 C 142.88 152.20 141.96 155.31 141.64 158.40 C 141.32 161.48 142.23 164.36 143.01 167.30 C 145.21 163.93 146.58 160.40 147.64 156.54 C 148.53 153.06 150.64 150.48 152.87 147.77 C 152.91 151.58 152.90 155.30 152.21 159.06 C 150.73 162.53 149.22 166.07 147.22 169.28 C 145.98 171.32 144.25 173.10 143.16 175.22 C 143.27 176.50 143.56 177.78 143.81 179.04 C 144.49 178.74 145.17 178.44 145.86 178.13 C 146.64 174.62 147.94 171.75 149.87 168.71 C 149.48 170.95 149.29 173.42 148.45 175.54 C 147.54 177.62 145.62 179.40 144.15 181.13 C 141.99 183.54 140.35 186.25 138.71 189.03 C 139.53 190.76 140.35 192.49 141.17 194.22 C 139.54 196.09 138.19 198.00 137.60 200.45 C 136.53 204.49 135.22 208.20 133.52 212.00 C 132.98 213.27 132.45 214.53 131.89 215.78 C 131.52 216.00 131.15 216.22 130.78 216.43 C 128.41 217.74 126.71 218.34 126.27 221.26 C 125.73 222.09 125.18 222.91 124.61 223.71 C 122.89 224.14 121.20 224.66 119.54 225.28 C 125.02 217.60 132.13 213.21 134.28 204.52 C 134.69 202.39 134.93 200.21 135.21 198.06 C 129.19 198.55 123.74 199.65 117.90 197.38 C 111.92 193.57 106.59 189.61 101.92 184.22 C 104.63 183.94 107.35 183.78 110.07 183.62 C 110.69 184.43 111.32 185.24 111.95 186.03 C 111.12 185.80 110.29 185.58 109.45 185.38 C 110.71 189.78 113.62 191.80 117.36 194.01 C 116.87 193.04 116.36 192.09 115.83 191.15 C 118.81 191.92 121.77 192.73 124.74 193.54 C 125.12 192.87 125.50 192.20 125.87 191.52 C 127.52 188.87 128.92 186.10 130.42 183.37 C 132.88 178.78 137.40 175.66 140.90 171.56 C 134.01 173.53 131.14 179.62 127.44 185.23 C 124.52 182.81 121.69 180.67 120.20 177.05 C 119.22 174.10 118.08 171.22 117.06 168.29 C 116.30 166.41 117.14 164.90 117.81 163.17 C 119.09 160.31 120.38 157.44 121.68 154.58 C 124.90 150.32 130.15 149.25 134.71 146.82 Z" fill="#6a699a" />
<path d="M 76.04 147.60 C 75.01 150.58 73.96 153.44 71.91 155.90 C 67.32 161.58 62.16 166.92 56.41 171.45 C 52.78 174.40 48.07 175.60 43.45 175.17 C 42.86 174.91 42.27 174.65 41.68 174.40 C 43.57 172.67 45.26 170.86 46.88 168.88 C 49.84 165.20 53.51 163.14 57.11 160.12 C 60.70 157.30 63.25 154.16 67.17 152.20 C 70.16 150.71 73.09 149.15 76.04 147.60 Z" fill="#231e44" />
<path d="M 193.12 147.90 C 193.54 148.75 193.95 149.60 194.36 150.46 C 193.36 151.18 192.36 151.90 191.37 152.62 C 191.51 153.74 191.65 154.86 191.79 155.98 C 192.96 154.83 194.13 153.69 195.33 152.58 L 197.04 151.89 C 194.17 156.22 191.47 160.38 187.10 163.37 C 186.76 161.27 185.93 158.75 186.69 156.68 C 187.59 153.88 189.20 151.22 190.88 148.82 C 191.61 148.49 192.36 148.19 193.12 147.90 Z" fill="#6b6899" />
<path d="M 182.93 148.67 C 181.56 153.13 179.83 157.43 178.12 161.76 C 179.38 163.19 180.63 164.62 181.79 166.14 C 182.62 167.28 183.40 168.44 184.18 169.62 C 183.70 170.44 183.24 171.28 182.79 172.11 C 185.89 172.00 188.94 171.88 192.01 171.40 C 194.43 170.90 196.76 169.49 198.78 168.12 C 199.61 169.55 200.44 170.98 201.29 172.40 L 200.20 173.13 C 193.85 175.15 188.51 178.79 182.38 181.38 C 181.03 180.47 179.65 179.61 178.19 178.88 C 176.90 177.54 175.64 176.18 174.38 174.82 C 174.72 176.44 175.07 178.06 175.42 179.68 C 173.35 179.36 171.28 179.03 169.21 178.70 C 169.06 177.43 168.90 176.16 168.69 174.89 C 168.55 174.11 168.41 173.32 168.26 172.53 C 163.16 172.63 158.23 174.91 153.26 174.21 C 155.71 172.57 157.99 170.76 159.76 168.38 C 166.95 160.33 172.10 152.30 182.93 148.67 Z" fill="#f0a389" />
<path d="M 211.11 149.66 C 213.28 152.18 215.39 154.65 218.14 156.58 C 216.98 157.84 215.79 159.07 214.59 160.29 C 213.71 158.89 212.85 157.49 211.98 156.08 C 211.61 160.12 210.71 163.54 209.11 167.27 C 208.87 166.47 208.63 165.67 208.39 164.87 C 206.50 167.93 204.41 170.52 201.29 172.40 C 200.44 170.98 199.61 169.55 198.78 168.12 C 201.36 165.81 205.27 163.05 205.65 159.36 C 206.15 156.09 206.99 153.46 208.48 150.49 C 208.75 153.26 208.19 155.81 207.59 158.49 C 208.97 155.62 210.01 152.64 211.11 149.66 Z" fill="#f0dbcf" />
<path d="M 194.36 150.46 L 195.33 152.58 C 194.13 153.69 192.96 154.83 191.79 155.98 C 191.65 154.86 191.51 153.74 191.37 152.62 C 192.36 151.90 193.36 151.18 194.36 150.46 Z" fill="#c6a1a2" />
<path d="M 228.18 151.06 C 229.04 151.51 229.89 151.98 230.73 152.48 C 229.60 154.73 228.18 156.79 226.70 158.82 C 227.03 160.08 227.36 161.35 227.69 162.62 C 225.77 164.24 223.90 165.78 222.37 167.80 C 216.29 176.61 207.60 183.89 198.59 189.56 C 195.54 191.46 192.21 192.42 189.02 193.97 C 186.11 195.38 184.24 197.53 181.11 198.29 C 179.49 198.33 178.06 198.74 178.27 200.68 C 177.48 200.96 176.71 201.24 175.93 201.54 C 175.28 200.91 174.62 200.28 173.96 199.65 C 172.73 198.15 171.10 199.95 169.99 200.69 C 169.40 201.03 168.81 201.37 168.22 201.70 C 165.80 203.22 163.98 203.79 161.13 204.05 C 162.04 202.77 162.98 201.52 163.93 200.28 C 162.22 200.01 160.52 199.72 158.83 199.37 C 161.56 197.72 164.40 196.28 167.25 194.82 C 163.97 193.96 161.15 195.04 158.02 195.94 C 153.74 197.25 149.77 199.28 145.45 200.45 C 148.29 197.09 151.91 195.60 156.11 194.69 C 156.94 193.07 157.88 191.55 159.10 190.19 C 158.55 191.81 158.05 193.46 157.57 195.11 C 164.12 191.40 171.46 189.73 178.21 186.37 C 186.53 183.67 193.20 178.47 200.20 173.13 L 201.29 172.40 C 204.41 170.52 206.50 167.93 208.39 164.87 C 208.63 165.67 208.87 166.47 209.11 167.27 C 210.71 163.54 211.61 160.12 211.98 156.08 C 212.85 157.49 213.71 158.89 214.59 160.29 C 215.79 159.07 216.98 157.84 218.14 156.58 C 222.25 155.33 225.04 154.04 228.18 151.06 Z" fill="#f2ece9" />
<path d="M 109.20 152.97 C 110.61 153.89 111.98 155.08 113.54 155.71 C 114.94 156.03 116.48 155.89 117.91 155.88 C 115.10 159.77 113.78 164.20 112.86 168.84 C 115.34 163.74 117.78 158.78 121.68 154.58 C 120.38 157.44 119.09 160.31 117.81 163.17 C 117.14 164.90 116.30 166.41 117.06 168.29 C 118.08 171.22 119.22 174.10 120.20 177.05 C 118.41 174.44 116.66 170.62 112.84 172.65 C 111.37 175.04 110.67 177.98 110.02 180.68 C 109.34 179.34 108.62 178.02 107.94 176.68 C 107.88 173.71 107.76 170.73 107.82 167.76 C 108.60 165.10 109.36 162.44 109.95 159.74 C 108.26 161.99 106.74 164.36 105.57 166.93 C 104.58 165.28 103.61 163.63 102.62 161.98 C 104.69 158.88 106.96 155.94 109.20 152.97 Z" fill="#7c749a" />
<path d="M 88.70 154.07 C 87.75 156.48 86.17 158.43 84.44 160.32 C 82.66 161.12 80.86 161.87 79.08 162.65 C 77.97 161.95 76.87 161.25 75.77 160.55 C 80.36 159.58 84.68 156.45 88.70 154.07 Z" fill="#74525f" />
<path d="M 152.21 159.06 C 151.70 162.35 150.89 165.54 149.87 168.71 C 147.94 171.75 146.64 174.62 145.86 178.13 C 145.17 178.44 144.49 178.74 143.81 179.04 C 143.56 177.78 143.27 176.50 143.16 175.22 C 144.25 173.10 145.98 171.32 147.22 169.28 C 149.22 166.07 150.73 162.53 152.21 159.06 Z" fill="#17183c" />
<path d="M 84.44 160.32 C 82.19 163.21 80.06 165.20 76.95 167.15 C 77.69 165.66 78.38 164.15 79.08 162.65 C 80.86 161.87 82.66 161.12 84.44 160.32 Z" fill="#ae4749" />
<path d="M 109.95 159.74 C 109.36 162.44 108.60 165.10 107.82 167.76 C 106.97 170.24 106.01 172.69 105.07 175.14 C 105.18 172.41 105.25 169.64 105.57 166.93 C 106.74 164.36 108.26 161.99 109.95 159.74 Z" fill="#413e66" />
<path d="M 72.70 160.95 C 73.72 160.82 74.75 160.69 75.77 160.55 C 76.87 161.25 77.97 161.95 79.08 162.65 C 78.38 164.15 77.69 165.66 76.95 167.15 C 75.92 167.95 74.90 168.75 73.87 169.55 C 73.39 169.90 72.91 170.25 72.44 170.60 C 70.06 170.05 67.67 169.50 65.27 169.01 C 67.47 166.01 69.65 163.15 72.70 160.95 Z" fill="#221f43" />
<path d="M 94.82 162.05 C 91.59 164.76 88.48 167.62 85.18 170.24 C 82.84 171.41 80.40 172.36 77.93 173.20 C 82.45 167.35 88.57 165.42 94.82 162.05 Z" fill="#2f2b50" />
<path d="M 203.24 162.29 C 203.82 162.76 203.82 162.76 203.24 162.29 Z" fill="#020017" />
<path d="M 158.77 166.52 L 159.76 168.38 C 157.99 170.76 155.71 172.57 153.26 174.21 L 151.80 174.07 C 153.86 171.30 156.26 168.88 158.77 166.52 Z" fill="#866475" />
<path d="M 65.27 169.01 C 67.67 169.50 70.06 170.05 72.44 170.60 C 69.64 172.82 66.65 174.65 63.48 176.27 C 64.27 174.44 65.08 172.62 65.87 170.79 C 64.54 171.12 63.21 171.45 61.88 171.82 C 63.05 170.92 64.16 169.97 65.27 169.01 Z" fill="#a46174" />
<path d="M 85.18 170.24 C 84.73 172.14 84.23 174.02 83.74 175.91 C 81.90 175.94 80.06 175.98 78.23 176.02 C 78.13 175.08 78.03 174.14 77.93 173.20 C 80.40 172.36 82.84 171.41 85.18 170.24 Z" fill="#ac525d" />
<path d="M 184.18 169.62 C 186.82 170.19 189.35 170.91 192.01 171.40 C 188.94 171.88 185.89 172.00 182.79 172.11 C 183.24 171.28 183.70 170.44 184.18 169.62 Z" fill="#8a5d52" />
<path d="M 120.20 177.05 C 121.69 180.67 124.52 182.81 127.44 185.23 C 126.84 187.32 126.40 189.42 125.87 191.52 C 125.50 192.20 125.12 192.87 124.74 193.54 C 121.77 192.73 118.81 191.92 115.83 191.15 C 114.64 189.36 113.32 187.69 111.95 186.03 C 111.32 185.24 110.69 184.43 110.07 183.62 C 110.06 182.64 110.04 181.66 110.02 180.68 C 110.67 177.98 111.37 175.04 112.84 172.65 C 116.66 170.62 118.41 174.44 120.20 177.05 Z" fill="#9b7c92" />
<path d="M 140.90 171.56 C 137.40 175.66 132.88 178.78 130.42 183.37 C 128.92 186.10 127.52 188.87 125.87 191.52 C 126.40 189.42 126.84 187.32 127.44 185.23 C 131.14 179.62 134.01 173.53 140.90 171.56 Z" fill="#433e68" />
<path d="M 168.26 172.53 C 168.41 173.32 168.55 174.11 168.69 174.89 C 161.93 180.67 155.02 185.64 150.12 193.28 C 154.91 190.51 158.85 186.89 164.03 184.78 C 162.43 186.62 160.69 188.34 159.10 190.19 C 157.88 191.55 156.94 193.07 156.11 194.69 C 151.91 195.60 148.29 197.09 145.45 200.45 C 149.77 199.28 153.74 197.25 158.02 195.94 C 161.15 195.04 163.97 193.96 167.25 194.82 C 164.40 196.28 161.56 197.72 158.83 199.37 C 160.52 199.72 162.22 200.01 163.93 200.28 C 162.98 201.52 162.04 202.77 161.13 204.05 C 163.98 203.79 165.80 203.22 168.22 201.70 C 168.50 202.45 168.77 203.19 169.04 203.93 C 162.49 205.11 158.11 209.28 151.47 211.53 C 147.94 213.02 143.53 214.11 140.66 216.72 C 139.54 218.50 141.59 220.96 142.20 222.70 C 139.30 224.31 137.28 226.73 134.76 228.79 C 131.84 230.65 128.02 231.26 124.72 232.17 C 127.04 229.13 129.83 227.10 130.75 223.18 C 128.70 223.29 126.66 223.50 124.61 223.71 C 125.18 222.91 125.73 222.09 126.27 221.26 C 127.84 221.42 129.40 221.62 130.97 221.81 C 130.93 220.02 130.88 218.22 130.78 216.43 C 131.15 216.22 131.52 216.00 131.89 215.78 C 134.67 214.99 136.23 213.00 138.22 211.07 C 136.65 211.36 135.08 211.68 133.52 212.00 C 135.22 208.20 136.53 204.49 137.60 200.45 C 138.19 198.00 139.54 196.09 141.17 194.22 C 143.79 191.54 145.39 187.63 148.39 185.45 C 155.28 181.60 161.82 177.08 168.26 172.53 Z" fill="#231f44" />
<path d="M 200.20 173.13 C 193.20 178.47 186.53 183.67 178.21 186.37 C 171.46 189.73 164.12 191.40 157.57 195.11 C 158.05 193.46 158.55 191.81 159.10 190.19 C 160.69 188.34 162.43 186.62 164.03 184.78 C 158.85 186.89 154.91 190.51 150.12 193.28 C 155.02 185.64 161.93 180.67 168.69 174.89 C 168.90 176.16 169.06 177.43 169.21 178.70 C 171.28 179.03 173.35 179.36 175.42 179.68 C 175.07 178.06 174.72 176.44 174.38 174.82 C 175.64 176.18 176.90 177.54 178.19 178.88 C 179.65 179.61 181.03 180.47 182.38 181.38 C 188.51 178.79 193.85 175.15 200.20 173.13 Z" fill="#896165" />
<path d="M 41.68 174.40 C 42.27 174.65 42.86 174.91 43.45 175.17 C 44.40 175.62 45.35 176.10 46.29 176.57 C 46.39 177.11 46.50 177.65 46.60 178.19 C 42.77 178.92 39.88 180.03 37.48 183.23 C 42.33 183.33 44.92 180.85 48.27 177.84 C 49.39 177.53 50.52 177.22 51.63 176.87 C 52.16 177.70 52.68 178.53 53.21 179.35 C 50.45 180.74 47.86 182.39 45.25 184.04 C 40.43 185.20 36.50 186.79 32.48 189.73 C 32.40 187.90 32.07 185.69 33.16 184.11 C 35.52 180.53 38.55 177.32 41.68 174.40 Z" fill="#b4a1aa" />
<path d="M 180.18 174.06 C 181.75 173.68 182.26 175.49 180.88 176.17 C 179.31 176.55 178.79 174.73 180.18 174.06 Z" fill="#92605b" />
<path d="M 60.24 175.63 C 60.25 176.81 60.24 177.99 60.20 179.17 C 57.24 183.48 53.81 187.22 48.81 189.14 C 48.23 187.20 48.74 185.12 46.11 184.88 C 45.55 186.67 45.62 188.47 45.70 190.32 C 41.91 191.79 38.25 193.54 34.42 194.94 C 37.71 191.04 41.55 187.55 45.25 184.04 C 47.86 182.39 50.45 180.74 53.21 179.35 C 55.60 178.20 57.92 176.93 60.24 175.63 Z" fill="#242146" />
<path d="M 70.26 176.25 C 67.89 179.02 65.60 181.83 63.81 185.02 C 67.67 184.55 70.07 183.62 72.77 180.77 C 73.40 182.25 74.04 183.73 74.70 185.21 C 72.46 188.43 70.10 191.55 67.94 194.83 C 68.09 191.76 67.88 188.91 67.17 185.92 C 66.79 187.29 66.42 188.66 66.06 190.03 C 64.31 190.29 62.56 190.58 60.82 190.86 C 62.15 192.01 63.49 193.15 64.84 194.27 C 63.93 195.62 63.02 196.97 62.10 198.31 C 61.79 197.30 61.48 196.29 61.17 195.28 C 59.24 196.88 57.30 198.45 55.36 200.03 C 56.30 200.12 57.24 200.19 58.17 200.27 C 56.18 200.94 54.24 201.77 52.32 202.62 C 49.71 201.78 47.22 201.33 44.47 201.38 C 40.78 201.45 37.20 200.73 33.54 200.56 C 30.89 200.11 28.51 203.21 26.61 204.69 C 26.20 203.63 25.83 202.56 25.49 201.47 C 26.49 199.83 27.45 198.16 28.40 196.49 C 30.10 196.14 31.80 195.78 33.50 195.42 C 33.12 193.53 32.73 191.64 32.48 189.73 C 36.50 186.79 40.43 185.20 45.25 184.04 C 41.55 187.55 37.71 191.04 34.42 194.94 C 38.25 193.54 41.91 191.79 45.70 190.32 C 46.74 189.93 47.77 189.54 48.81 189.14 C 53.81 187.22 57.24 183.48 60.20 179.17 C 63.66 178.50 66.77 176.85 70.26 176.25 Z" fill="#8385aa" />
<path d="M 74.73 178.66 C 74.08 179.37 73.43 180.07 72.77 180.77 C 70.07 183.62 67.67 184.55 63.81 185.02 C 65.60 181.83 67.89 179.02 70.26 176.25 C 71.78 176.99 73.24 177.86 74.73 178.66 Z" fill="#a66171" />
<path d="M 93.29 176.72 C 96.05 177.54 98.06 180.86 99.81 182.98 L 98.43 183.48 C 96.39 183.05 94.25 182.35 92.16 182.32 C 89.63 182.91 87.26 184.48 84.96 185.65 C 81.26 184.65 78.49 184.53 74.70 185.21 C 74.04 183.73 73.40 182.25 72.77 180.77 C 73.43 180.07 74.08 179.37 74.73 178.66 C 80.93 181.72 86.51 174.95 93.29 176.72 Z" fill="#9d8599" />
<path d="M 153.74 176.26 C 153.00 177.28 152.25 178.29 151.51 179.31 C 150.46 178.48 149.41 177.65 148.38 176.80 C 150.16 176.58 151.95 176.41 153.74 176.26 Z" fill="#653f4d" />
<path d="M 107.94 176.68 C 108.62 178.02 109.34 179.34 110.02 180.68 C 110.04 181.66 110.06 182.64 110.07 183.62 C 107.35 183.78 104.63 183.94 101.92 184.22 C 101.08 184.30 100.23 184.41 99.39 184.54 C 95.10 186.10 91.86 188.70 88.06 191.14 C 91.17 188.12 94.72 185.69 98.43 183.48 L 99.81 182.98 C 100.48 182.74 101.14 182.50 101.81 182.27 C 103.71 181.61 105.62 180.99 107.54 180.40 C 107.68 179.16 107.82 177.92 107.94 176.68 Z" fill="#1a143d" />
<path d="M 46.60 178.19 L 48.27 177.84 C 44.92 180.85 42.33 183.33 37.48 183.23 C 39.88 180.03 42.77 178.92 46.60 178.19 Z" fill="#2b1e3a" />
<path d="M 199.64 179.62 C 197.24 182.99 194.14 182.24 190.56 182.04 C 193.51 180.78 196.44 179.93 199.64 179.62 Z" fill="#a09396" />
<path d="M 75.27 181.22 C 75.75 181.70 75.75 181.70 75.27 181.22 Z" fill="#954e5f" />
<path d="M 92.16 182.32 C 94.25 182.35 96.39 183.05 98.43 183.48 C 94.72 185.69 91.17 188.12 88.06 191.14 C 86.70 192.10 85.30 192.97 83.86 193.78 C 84.55 193.26 85.23 192.72 85.91 192.18 C 85.52 191.50 85.13 190.83 84.75 190.15 L 84.00 188.79 C 84.31 187.74 84.63 186.69 84.96 185.65 C 87.26 184.48 89.63 182.91 92.16 182.32 Z" fill="#c99e9d" />
<path d="M 84.96 185.65 C 84.63 186.69 84.31 187.74 84.00 188.79 C 82.01 188.09 80.34 187.44 78.35 188.53 C 74.72 190.52 70.82 191.21 69.45 195.49 C 70.76 195.08 72.07 194.65 73.37 194.22 C 73.22 195.23 73.08 196.25 72.95 197.26 C 72.86 198.02 72.78 198.78 72.70 199.53 C 69.06 201.66 65.10 202.39 61.01 203.14 C 61.72 202.34 62.43 201.55 63.14 200.75 C 61.49 200.55 59.84 200.37 58.17 200.27 C 57.24 200.19 56.30 200.12 55.36 200.03 C 57.30 198.45 59.24 196.88 61.17 195.28 C 61.48 196.29 61.79 197.30 62.10 198.31 C 63.02 196.97 63.93 195.62 64.84 194.27 C 63.49 193.15 62.15 192.01 60.82 190.86 C 62.56 190.58 64.31 190.29 66.06 190.03 C 66.42 188.66 66.79 187.29 67.17 185.92 C 67.88 188.91 68.09 191.76 67.94 194.83 C 70.10 191.55 72.46 188.43 74.70 185.21 C 78.49 184.53 81.26 184.65 84.96 185.65 Z" fill="#a6a6ba" />
<path d="M 101.92 184.22 C 106.59 189.61 111.92 193.57 117.90 197.38 C 115.45 197.00 112.99 196.79 110.53 196.43 C 108.23 195.12 106.09 193.46 103.94 191.91 C 102.10 189.64 100.74 187.12 99.39 184.54 C 100.23 184.41 101.08 184.30 101.92 184.22 Z" fill="#b18d9b" />
<path d="M 46.11 184.88 C 48.74 185.12 48.23 187.20 48.81 189.14 C 47.77 189.54 46.74 189.93 45.70 190.32 C 45.62 188.47 45.55 186.67 46.11 184.88 Z" fill="#2f7eb7" />
<path d="M 99.39 184.54 C 100.74 187.12 102.10 189.64 103.94 191.91 C 95.78 193.70 88.25 197.48 80.12 199.52 C 79.39 198.60 78.65 197.68 77.92 196.76 C 79.94 195.75 81.93 194.88 83.86 193.78 C 85.30 192.97 86.70 192.10 88.06 191.14 C 91.86 188.70 95.10 186.10 99.39 184.54 Z" fill="#eba490" />
<path d="M 109.45 185.38 C 110.29 185.58 111.12 185.80 111.95 186.03 C 113.32 187.69 114.64 189.36 115.83 191.15 C 116.36 192.09 116.87 193.04 117.36 194.01 C 113.62 191.80 110.71 189.78 109.45 185.38 Z" fill="#2c274f" />
<path d="M 189.06 184.56 C 189.82 185.43 190.56 186.30 191.29 187.19 C 189.28 187.33 187.27 187.44 185.26 187.49 C 186.51 186.49 187.77 185.50 189.06 184.56 Z" fill="#b6abab" />
<path d="M 84.00 188.79 L 84.75 190.15 C 80.43 192.12 76.72 194.39 72.95 197.26 C 73.08 196.25 73.22 195.23 73.37 194.22 C 72.07 194.65 70.76 195.08 69.45 195.49 C 70.82 191.21 74.72 190.52 78.35 188.53 C 80.34 187.44 82.01 188.09 84.00 188.79 Z" fill="#bdb8c6" />
<path d="M 60.09 187.79 C 58.73 190.88 57.63 193.76 54.90 195.93 C 50.67 199.48 45.08 199.78 39.87 198.80 C 42.71 197.62 45.48 196.64 48.21 195.23 C 52.43 193.11 55.98 190.13 60.09 187.79 Z" fill="#211e44" />
<path d="M 180.99 189.03 L 181.71 188.63 L 182.42 189.05 L 182.41 189.88 L 181.69 190.28 L 180.97 189.86 L 180.99 189.03 Z" fill="#9b908f" />
<path d="M 30.03 190.51 C 28.17 194.17 24.01 197.06 25.49 201.47 C 25.83 202.56 26.20 203.63 26.61 204.69 C 27.06 205.77 27.51 206.85 27.97 207.93 C 24.65 205.53 20.72 204.34 19.83 199.86 C 19.08 197.69 20.15 196.72 21.53 195.28 C 24.28 193.53 27.02 191.81 30.03 190.51 Z" fill="#1e1a3e" />
<path d="M 84.75 190.15 C 85.13 190.83 85.52 191.50 85.91 192.18 C 85.23 192.72 84.55 193.26 83.86 193.78 C 81.93 194.88 79.94 195.75 77.92 196.76 C 76.16 197.66 74.44 198.61 72.70 199.53 C 72.78 198.78 72.86 198.02 72.95 197.26 C 76.72 194.39 80.43 192.12 84.75 190.15 Z" fill="#342b45" />
<path d="M 103.94 191.91 C 106.09 193.46 108.23 195.12 110.53 196.43 C 111.18 196.79 111.83 197.14 112.49 197.48 C 113.02 200.43 113.67 203.35 114.20 206.30 C 116.89 205.88 119.60 205.48 122.26 204.92 C 121.00 206.20 119.75 207.45 118.62 208.85 C 115.05 209.28 111.51 210.36 108.03 211.23 C 109.03 211.94 110.03 212.65 111.04 213.35 C 109.43 213.39 107.82 213.37 106.22 213.34 C 105.69 212.41 105.15 211.48 104.61 210.55 C 106.07 208.54 107.50 206.51 108.91 204.46 C 105.67 204.20 102.44 203.96 99.19 203.76 C 101.69 202.60 104.12 201.34 106.50 199.96 C 103.77 199.18 101.25 198.42 98.41 199.27 C 91.46 201.21 85.20 204.18 77.85 204.65 C 78.60 202.94 79.36 201.23 80.12 199.52 C 88.25 197.48 95.78 193.70 103.94 191.91 Z" fill="#f3ccba" />
<path d="M 110.53 196.43 C 112.99 196.79 115.45 197.00 117.90 197.38 C 123.74 199.65 129.19 198.55 135.21 198.06 C 134.93 200.21 134.69 202.39 134.28 204.52 C 131.13 203.87 128.98 205.43 126.29 206.77 C 125.54 203.57 124.18 202.24 121.42 200.70 C 118.64 198.92 115.64 198.29 112.49 197.48 C 111.83 197.14 111.18 196.79 110.53 196.43 Z" fill="#caa7a7" />
<path d="M 106.50 199.96 C 104.12 201.34 101.69 202.60 99.19 203.76 C 102.44 203.96 105.67 204.20 108.91 204.46 C 107.50 206.51 106.07 208.54 104.61 210.55 C 103.20 208.73 102.12 207.96 99.96 207.31 C 99.04 206.64 98.13 205.96 97.20 205.31 C 96.17 204.58 95.14 203.85 94.08 203.17 C 89.73 205.71 86.20 209.27 81.95 211.91 C 80.83 212.62 79.69 213.30 78.56 213.99 C 78.45 211.89 78.35 209.78 78.26 207.68 C 75.48 207.38 72.71 207.08 69.94 206.76 L 69.93 204.96 C 72.56 204.89 75.22 204.83 77.85 204.65 C 85.20 204.18 91.46 201.21 98.41 199.27 C 101.25 198.42 103.77 199.18 106.50 199.96 Z" fill="#f3d9cb" />
<path d="M 112.49 197.48 C 115.64 198.29 118.64 198.92 121.42 200.70 C 122.02 201.78 122.62 202.87 123.19 203.96 L 122.26 204.92 C 119.60 205.48 116.89 205.88 114.20 206.30 C 113.67 203.35 113.02 200.43 112.49 197.48 Z" fill="#f4b9a2" />
<path d="M 156.40 198.03 C 157.88 197.00 159.00 199.42 157.19 199.78 C 156.20 199.47 155.94 198.89 156.40 198.03 Z" fill="#e8dee8" />
<path d="M 181.11 198.29 C 180.85 199.86 179.63 200.30 178.27 200.68 C 178.06 198.74 179.49 198.33 181.11 198.29 Z" fill="#acabae" />
<path d="M 173.96 199.65 C 173.77 200.29 173.56 200.94 173.35 201.57 C 172.21 201.37 171.10 201.07 169.99 200.69 C 171.10 199.95 172.73 198.15 173.96 199.65 Z" fill="#3f3c4f" />
<path d="M 58.17 200.27 C 59.84 200.37 61.49 200.55 63.14 200.75 C 62.43 201.55 61.72 202.34 61.01 203.14 C 55.06 204.80 49.42 206.05 43.18 205.59 C 43.50 205.25 43.83 204.90 44.15 204.56 C 47.27 204.56 49.51 203.99 52.32 202.62 C 54.24 201.77 56.18 200.94 58.17 200.27 Z" fill="#110b33" />
<path d="M 126.29 206.77 C 126.39 207.80 126.49 208.84 126.57 209.87 C 124.37 211.44 122.20 212.89 120.24 214.75 C 114.88 214.71 109.51 214.47 104.15 214.38 C 103.50 215.05 102.87 215.75 102.26 216.47 C 101.43 218.22 100.87 219.89 101.68 221.78 C 103.56 223.80 105.93 225.15 107.66 227.33 C 102.96 225.84 101.10 222.14 99.11 218.01 C 97.49 218.65 95.53 219.07 94.17 220.17 C 92.66 222.73 92.20 225.82 90.84 228.49 C 90.35 225.63 90.17 222.75 89.78 219.87 C 89.63 218.71 89.49 217.55 89.36 216.39 C 90.44 216.36 91.51 216.33 92.58 216.30 C 91.89 215.21 91.19 214.12 90.50 213.04 C 91.79 212.21 93.09 211.39 94.41 210.61 C 96.33 209.63 98.16 208.50 99.96 207.31 C 102.12 207.96 103.20 208.73 104.61 210.55 C 105.15 211.48 105.69 212.41 106.22 213.34 C 107.82 213.37 109.43 213.39 111.04 213.35 C 113.04 212.99 115.09 212.56 117.00 211.84 C 117.58 210.87 118.12 209.87 118.62 208.85 C 119.75 207.45 121.00 206.20 122.26 204.92 L 123.19 203.96 C 122.62 202.87 122.02 201.78 121.42 200.70 C 124.18 202.24 125.54 203.57 126.29 206.77 Z" fill="#231f43" />
<path d="M 161.69 202.34 C 159.80 204.41 157.82 206.37 155.79 208.29 C 155.83 206.81 155.87 205.34 155.91 203.87 C 154.18 203.65 152.44 203.46 150.70 203.22 C 154.27 200.68 157.66 201.78 161.69 202.34 Z" fill="#fdfeff" />
<path d="M 169.99 200.69 C 171.10 201.07 172.21 201.37 173.35 201.57 C 173.08 202.49 172.83 203.41 172.57 204.33 C 171.40 204.19 170.22 204.04 169.04 203.93 C 168.77 203.19 168.50 202.45 168.22 201.70 C 168.81 201.37 169.40 201.03 169.99 200.69 Z" fill="#aaa8b2" />
<path d="M 42.32 204.70 C 37.44 205.04 32.47 204.80 27.59 204.39 C 32.77 202.25 37.22 202.52 42.32 204.70 Z" fill="#9e9fa2" />
<path d="M 94.08 203.17 C 95.14 203.85 96.17 204.58 97.20 205.31 C 94.38 207.30 91.40 209.27 89.01 211.76 C 86.90 214.32 85.11 217.11 83.59 220.06 C 83.11 220.85 82.62 221.64 82.12 222.42 C 81.73 218.90 81.43 215.44 81.95 211.91 C 86.20 209.27 89.73 205.71 94.08 203.17 Z" fill="#251d43" />
<path d="M 134.28 204.52 C 132.13 213.21 125.02 217.60 119.54 225.28 C 115.75 228.10 112.22 229.04 107.66 227.33 C 105.93 225.15 103.56 223.80 101.68 221.78 C 100.87 219.89 101.43 218.22 102.26 216.47 C 103.96 217.59 105.64 218.75 107.36 219.83 C 109.79 221.63 111.85 221.71 114.74 221.33 C 116.30 221.04 118.76 220.94 119.81 219.64 C 120.40 218.16 120.20 216.32 120.24 214.75 C 122.20 212.89 124.37 211.44 126.57 209.87 C 126.49 208.84 126.39 207.80 126.29 206.77 C 128.98 205.43 131.13 203.87 134.28 204.52 Z" fill="#c2c3d1" />
<path d="M 141.25 203.89 L 141.97 203.48 L 142.69 203.91 L 142.69 204.73 L 141.97 205.13 L 141.25 204.71 L 141.25 203.89 Z" fill="#837e9c" />
<path d="M 97.20 205.31 C 98.13 205.96 99.04 206.64 99.96 207.31 C 98.16 208.50 96.33 209.63 94.41 210.61 C 92.58 210.89 90.77 211.17 89.01 211.76 C 91.40 209.27 94.38 207.30 97.20 205.31 Z" fill="#7d7591" />
<path d="M 118.62 208.85 C 118.12 209.87 117.58 210.87 117.00 211.84 C 115.09 212.56 113.04 212.99 111.04 213.35 C 110.03 212.65 109.03 211.94 108.03 211.23 C 111.51 210.36 115.05 209.28 118.62 208.85 Z" fill="#eae2e4" />
<path d="M 146.40 209.11 C 147.44 208.07 149.13 209.03 148.24 210.41 C 147.19 211.46 145.53 210.49 146.40 209.11 Z" fill="#646084" />
<path d="M 94.41 210.61 C 93.09 211.39 91.79 212.21 90.50 213.04 C 91.19 214.12 91.89 215.21 92.58 216.30 C 91.51 216.33 90.44 216.36 89.36 216.39 C 89.49 217.55 89.63 218.71 89.78 219.87 C 87.72 219.96 85.65 220.03 83.59 220.06 C 85.11 217.11 86.90 214.32 89.01 211.76 C 90.77 211.17 92.58 210.89 94.41 210.61 Z" fill="#ecc2b4" />
<path d="M 138.22 211.07 C 136.23 213.00 134.67 214.99 131.89 215.78 C 132.45 214.53 132.98 213.27 133.52 212.00 C 135.08 211.68 136.65 211.36 138.22 211.07 Z" fill="#b4b4cc" />
<path d="M 104.15 214.38 C 109.51 214.47 114.88 214.71 120.24 214.75 C 120.20 216.32 120.40 218.16 119.81 219.64 C 118.76 220.94 116.30 221.04 114.74 221.33 C 112.08 219.94 110.32 219.59 107.36 219.83 C 105.64 218.75 103.96 217.59 102.26 216.47 C 102.87 215.75 103.50 215.05 104.15 214.38 Z" fill="#908fb4" />
<path d="M 130.78 216.43 C 130.88 218.22 130.93 220.02 130.97 221.81 C 129.40 221.62 127.84 221.42 126.27 221.26 C 126.71 218.34 128.41 217.74 130.78 216.43 Z" fill="#f4f6f9" />
<path d="M 114.74 221.33 C 111.85 221.71 109.79 221.63 107.36 219.83 C 110.32 219.59 112.08 219.94 114.74 221.33 Z" fill="#4c4b6a" />
</svg>