<?xml version="1.0" encoding="UTF-8" standalone="no"?>
<!DOCTYPE svg PUBLIC "-//W3C//DTD SVG 1.1//EN" "http://www.w3.org/Graphics/SVG/1.1/DTD/svg11.dtd">
<svg xmlns="http://www.w3.org/2000/svg" version="1.1" viewBox="0 0 256 256" width="256.0pt" height="256.0pt">
<path d="M 0.00 0.00 L 256.00 0.00 L 256.00 256.00 L 0.00 256.00 L 0.00 0.00 Z" fill="#fefefe" />
<path d="M 113.34 20.79 C 118.00 22.22 122.38 25.00 127.11 25.91 C 131.72 26.75 136.17 25.06 140.45 23.58 C 148.07 20.80 156.11 19.15 164.14 18.16 C 170.91 17.35 176.66 19.40 183.17 20.84 C 189.64 22.25 195.29 25.42 201.61 27.27 C 207.14 29.01 212.78 30.27 218.40 31.65 C 223.67 32.96 229.43 35.77 232.46 40.47 C 234.67 44.17 236.07 48.41 237.57 52.45 C 240.91 61.56 241.43 72.91 236.84 81.72 C 234.61 86.57 233.07 91.68 231.93 96.89 C 230.47 103.59 231.09 111.11 231.00 118.00 C 230.90 124.67 231.30 131.36 230.95 138.01 C 230.47 146.33 226.84 153.77 222.96 160.98 C 220.82 165.05 218.51 169.22 218.88 173.99 C 219.40 179.07 222.44 183.51 223.21 188.66 C 224.58 197.75 224.68 206.51 227.52 215.41 C 225.16 215.91 222.88 216.33 220.60 217.15 C 216.16 215.38 212.12 215.28 208.22 212.80 C 204.91 210.71 201.26 208.32 198.87 205.17 C 197.49 203.34 196.26 201.40 194.97 199.50 L 195.07 198.24 C 200.08 198.25 204.87 199.25 209.74 200.29 C 212.06 200.63 215.10 201.57 217.04 199.80 C 217.78 197.01 217.82 193.91 217.40 191.06 C 216.55 187.72 213.93 185.93 211.18 184.21 C 207.24 182.00 204.46 178.73 204.44 174.01 C 204.21 169.47 207.02 166.80 209.46 163.38 C 212.90 159.48 216.20 155.46 219.44 151.40 C 220.82 149.56 222.57 147.39 223.00 145.09 C 222.45 142.39 220.77 139.80 219.47 137.40 C 220.84 135.79 222.23 134.20 223.68 132.65 C 222.95 128.22 222.23 123.78 221.56 119.33 C 220.61 119.18 219.67 119.03 218.72 118.89 C 219.44 114.76 220.94 110.84 221.62 106.70 C 222.31 102.69 222.76 98.68 223.77 94.74 C 225.05 89.70 225.04 84.49 223.45 79.53 C 221.40 74.55 218.06 70.55 216.78 65.20 C 216.14 62.61 215.34 61.99 213.02 60.85 C 212.69 59.24 212.36 57.63 212.04 56.01 C 213.71 54.62 215.39 53.24 217.05 51.83 C 219.62 53.30 223.07 54.65 224.86 57.08 C 226.20 59.53 226.01 62.93 226.24 65.67 C 224.51 65.65 222.78 65.62 221.05 65.59 C 221.37 66.50 221.68 67.40 221.99 68.31 C 222.59 70.21 223.21 71.92 224.98 73.05 C 228.00 75.28 231.18 74.91 234.68 74.63 C 234.34 71.47 234.34 68.29 233.97 65.14 C 233.45 62.21 231.38 59.54 230.28 56.76 C 228.00 51.78 227.88 46.71 226.41 41.55 C 225.77 37.84 220.45 35.77 217.24 36.73 C 213.90 40.87 210.81 44.92 206.68 48.36 C 205.85 45.95 205.15 43.46 204.18 41.11 C 203.05 36.94 197.29 34.92 193.86 32.86 C 194.96 34.64 196.06 36.37 197.35 38.01 C 196.53 40.08 195.76 42.17 194.96 44.24 C 193.99 44.53 193.03 44.81 192.06 45.09 C 191.59 44.61 191.13 44.13 190.66 43.65 L 191.90 42.27 C 194.38 39.23 194.25 37.27 192.72 33.83 C 189.48 29.79 182.83 30.54 178.31 28.86 C 176.58 27.86 175.10 26.40 173.52 25.17 L 173.44 26.80 C 173.28 30.68 172.56 33.56 169.62 36.25 C 169.09 36.58 168.55 36.91 168.01 37.23 C 167.09 35.38 166.18 33.53 165.31 31.65 C 165.28 29.97 165.34 28.30 165.42 26.62 C 163.23 25.46 161.10 24.38 158.62 24.03 C 158.49 24.89 158.36 25.76 158.24 26.62 C 155.92 29.63 153.56 32.60 151.38 35.72 C 150.03 36.94 148.86 38.13 147.00 38.50 C 145.88 37.91 145.32 36.99 145.32 35.73 C 144.93 32.24 145.02 28.69 144.92 25.19 C 144.22 25.80 143.53 26.41 142.85 27.03 C 140.60 29.02 138.69 31.30 136.73 33.56 C 134.89 35.14 132.71 36.29 130.92 37.91 C 128.21 43.18 128.24 50.10 128.80 55.89 C 129.17 59.72 128.90 63.05 127.95 66.77 C 122.98 58.24 118.76 49.70 116.83 39.94 C 115.97 35.49 116.64 30.83 116.44 26.18 C 114.36 26.97 112.34 27.89 110.26 28.67 C 107.95 29.02 106.19 28.69 105.26 31.31 C 103.96 34.95 105.22 41.33 107.94 44.18 C 108.46 44.51 108.98 44.82 109.51 45.13 C 108.88 45.91 108.25 46.69 107.63 47.48 C 109.01 49.14 110.40 50.70 111.22 52.73 C 114.57 60.53 119.44 67.90 124.22 74.90 C 123.82 77.97 123.18 81.38 123.74 84.45 C 124.77 86.42 126.75 88.04 128.32 89.58 C 128.46 90.88 128.62 92.18 128.82 93.48 C 125.47 90.26 122.81 86.39 119.31 83.35 C 120.92 87.71 123.63 91.26 126.51 94.83 L 126.51 96.30 C 122.49 90.66 118.07 85.44 114.51 79.48 C 110.18 73.12 107.41 65.38 104.70 58.21 C 102.45 53.07 101.58 47.05 100.57 41.54 C 100.52 37.56 100.44 33.60 100.21 29.63 C 100.22 27.85 100.21 26.06 100.18 24.28 C 97.25 25.99 94.34 27.71 91.28 29.19 C 85.91 30.09 79.00 31.33 74.50 34.56 C 70.19 40.15 66.66 46.48 63.11 52.58 C 61.17 55.79 58.94 58.75 55.97 61.08 C 54.02 62.48 53.40 64.50 52.24 66.51 C 51.67 65.04 51.12 63.57 50.58 62.10 C 50.22 64.10 49.81 66.04 50.01 68.09 C 48.90 67.23 47.80 66.32 46.60 65.58 C 45.05 65.55 43.49 65.77 41.94 65.86 C 43.29 71.62 42.47 76.95 42.58 82.78 C 39.90 84.34 36.43 86.07 34.66 88.67 C 32.99 92.82 32.33 97.18 29.94 101.07 C 29.08 101.75 28.22 102.42 27.41 103.15 C 25.93 102.63 24.44 102.12 22.95 101.61 C 23.03 97.32 23.50 93.14 24.98 89.08 C 28.18 80.24 29.36 71.80 35.11 64.12 C 38.55 59.36 43.16 57.13 47.76 53.76 C 53.64 49.55 57.88 43.19 62.80 37.78 C 67.16 32.99 71.94 27.95 77.48 24.53 C 82.74 21.15 89.93 20.27 95.98 18.84 C 101.94 17.47 107.64 19.07 113.34 20.79 Z" fill="#f5f4f1" />
<path d="M 158.62 24.03 C 161.10 24.38 163.23 25.46 165.42 26.62 C 165.34 28.30 165.28 29.97 165.31 31.65 L 163.33 31.18 C 160.89 31.12 158.78 31.97 156.60 32.90 C 157.48 30.85 158.08 28.87 158.24 26.62 C 158.36 25.76 158.49 24.89 158.62 24.03 Z" fill="#221f30" />
<path d="M 100.18 24.28 C 100.21 26.06 100.22 27.85 100.21 29.63 C 98.99 34.35 98.66 38.34 99.24 43.20 L 100.57 41.54 C 101.58 47.05 102.45 53.07 104.70 58.21 C 107.41 65.38 110.18 73.12 114.51 79.48 C 118.07 85.44 122.49 90.66 126.51 96.30 C 130.27 102.20 135.58 105.82 140.23 110.78 C 142.76 113.44 143.14 116.54 144.14 119.89 C 144.66 121.57 145.35 123.20 146.01 124.83 C 145.25 126.48 144.49 128.14 143.76 129.82 C 141.20 127.00 138.09 125.33 134.61 123.92 C 127.69 120.87 121.81 116.75 114.63 114.27 C 112.06 113.42 109.48 112.60 106.89 111.80 C 104.76 110.48 102.57 109.26 100.39 108.01 C 99.35 107.32 98.35 106.56 97.37 105.79 C 92.04 101.81 88.06 96.74 83.81 91.70 C 84.71 90.14 85.61 88.58 86.54 87.03 C 85.29 84.69 84.07 82.38 83.06 79.93 C 80.43 72.77 79.45 65.48 78.40 57.97 C 79.53 57.19 80.67 56.41 81.81 55.64 C 80.56 55.43 79.31 55.23 78.06 55.03 C 77.13 51.09 76.02 47.25 74.34 43.56 C 79.37 37.83 85.30 33.96 91.28 29.19 C 94.34 27.71 97.25 25.99 100.18 24.28 Z" fill="#20233f" />
<path d="M 144.92 25.19 C 145.02 28.69 144.93 32.24 145.32 35.73 C 145.32 36.99 145.88 37.91 147.00 38.50 C 148.86 38.13 150.03 36.94 151.38 35.72 C 151.40 37.39 151.36 39.06 151.31 40.73 C 150.46 41.07 149.60 41.41 148.75 41.75 C 147.46 42.01 146.16 42.26 144.86 42.51 C 143.42 38.02 142.89 33.41 142.82 28.71 L 142.85 27.03 C 143.53 26.41 144.22 25.80 144.92 25.19 Z" fill="#242637" />
<path d="M 173.52 25.17 C 175.10 26.40 176.58 27.86 178.31 28.86 C 182.83 30.54 189.48 29.79 192.72 33.83 C 191.66 34.09 190.61 34.36 189.55 34.63 C 185.30 32.78 180.62 32.54 177.14 29.81 C 175.85 28.87 174.62 27.86 173.44 26.80 L 173.52 25.17 Z" fill="#100f22" />
<path d="M 116.44 26.18 C 116.64 30.83 115.97 35.49 116.83 39.94 C 118.76 49.70 122.98 58.24 127.95 66.77 C 128.37 67.44 128.80 68.11 129.22 68.78 C 130.57 71.34 131.84 73.93 133.15 76.50 C 132.42 76.53 131.69 76.56 130.96 76.59 C 130.28 75.75 129.56 74.95 128.87 74.11 C 127.51 74.61 126.23 75.26 125.03 76.06 L 124.22 74.90 C 119.44 67.90 114.57 60.53 111.22 52.73 C 110.40 50.70 109.01 49.14 107.63 47.48 C 108.25 46.69 108.88 45.91 109.51 45.13 C 108.98 44.82 108.46 44.51 107.94 44.18 C 108.71 38.98 108.88 33.78 110.26 28.67 C 112.34 27.89 114.36 26.97 116.44 26.18 Z" fill="#24233d" />
<path d="M 142.85 27.03 L 142.82 28.71 C 141.69 32.26 140.44 35.82 139.14 39.31 C 138.36 37.39 137.59 35.46 136.73 33.56 C 138.69 31.30 140.60 29.02 142.85 27.03 Z" fill="#79654b" />
<path d="M 158.24 26.62 C 158.08 28.87 157.48 30.85 156.60 32.90 C 158.78 31.97 160.89 31.12 163.33 31.18 C 163.20 33.06 163.17 34.95 163.05 36.83 C 164.08 37.33 165.11 37.83 166.14 38.33 C 161.04 41.51 157.15 42.00 151.31 40.73 C 151.36 39.06 151.40 37.39 151.38 35.72 C 153.56 32.60 155.92 29.63 158.24 26.62 Z" fill="#b6906f" />
<path d="M 173.44 26.80 C 174.62 27.86 175.85 28.87 177.14 29.81 C 180.62 32.54 185.30 32.78 189.55 34.63 C 189.94 35.46 190.33 36.29 190.71 37.12 C 189.72 38.92 188.84 40.77 187.85 42.58 C 189.20 42.48 190.55 42.38 191.90 42.27 L 190.66 43.65 C 188.02 43.08 185.54 42.07 182.90 41.62 C 179.54 41.13 176.08 42.36 172.78 42.02 C 170.92 41.21 170.49 37.94 169.62 36.25 C 172.56 33.56 173.28 30.68 173.44 26.80 Z" fill="#b68e6d" />
<path d="M 110.26 28.67 C 108.88 33.78 108.71 38.98 107.94 44.18 C 105.22 41.33 103.96 34.95 105.26 31.31 C 106.19 28.69 107.95 29.02 110.26 28.67 Z" fill="#85786f" />
<path d="M 91.28 29.19 C 85.30 33.96 79.37 37.83 74.34 43.56 C 76.02 47.25 77.13 51.09 78.06 55.03 C 79.31 55.23 80.56 55.43 81.81 55.64 C 80.67 56.41 79.53 57.19 78.40 57.97 C 79.45 65.48 80.43 72.77 83.06 79.93 L 83.56 81.42 C 82.10 80.59 80.62 79.80 79.16 78.98 C 80.69 82.60 82.01 86.19 82.41 90.13 C 78.23 85.64 74.65 80.97 69.71 77.23 L 70.04 79.05 C 67.06 70.38 65.61 61.36 63.11 52.58 C 66.66 46.48 70.19 40.15 74.50 34.56 C 79.00 31.33 85.91 30.09 91.28 29.19 Z" fill="#8b7a6c" />
<path d="M 142.82 28.71 C 142.89 33.41 143.42 38.02 144.86 42.51 C 146.16 42.26 147.46 42.01 148.75 41.75 C 145.98 43.90 144.94 47.12 142.64 49.60 C 140.74 51.27 138.41 52.52 136.23 53.78 C 135.29 50.88 134.18 48.02 133.05 45.18 C 135.27 43.36 137.47 41.69 139.14 39.31 C 140.44 35.82 141.69 32.26 142.82 28.71 Z" fill="#b48c69" />
<path d="M 100.21 29.63 C 100.44 33.60 100.52 37.56 100.57 41.54 L 99.24 43.20 C 98.66 38.34 98.99 34.35 100.21 29.63 Z" fill="#02021e" />
<path d="M 163.33 31.18 L 165.31 31.65 C 166.18 33.53 167.09 35.38 168.01 37.23 C 167.38 37.60 166.76 37.96 166.14 38.33 C 165.11 37.83 164.08 37.33 163.05 36.83 C 163.17 34.95 163.20 33.06 163.33 31.18 Z" fill="#7a6a54" />
<path d="M 193.86 32.86 C 197.29 34.92 203.05 36.94 204.18 41.11 C 203.87 45.05 201.78 49.53 204.56 53.01 C 206.82 56.28 209.30 59.20 213.02 60.85 C 215.34 61.99 216.14 62.61 216.78 65.20 C 218.06 70.55 221.40 74.55 223.45 79.53 C 225.04 84.49 225.05 89.70 223.77 94.74 C 222.76 98.68 222.31 102.69 221.62 106.70 C 220.94 110.84 219.44 114.76 218.72 118.89 C 217.08 118.64 215.43 118.40 213.78 118.22 C 214.25 113.38 214.46 108.56 214.33 103.70 C 213.50 104.36 212.67 105.03 211.85 105.70 C 212.29 104.34 212.74 102.98 213.17 101.62 C 214.50 97.58 215.58 93.42 216.19 89.21 C 216.77 84.48 216.91 79.50 215.95 74.82 C 214.38 68.30 210.25 63.91 205.63 59.35 C 202.59 56.42 200.81 52.83 198.74 49.24 C 199.18 46.35 199.62 43.41 199.73 40.49 C 198.95 39.66 198.14 38.84 197.35 38.01 C 196.06 36.37 194.96 34.64 193.86 32.86 Z" fill="#22223e" />
<path d="M 136.73 33.56 C 137.59 35.46 138.36 37.39 139.14 39.31 C 137.47 41.69 135.27 43.36 133.05 45.18 C 134.18 48.02 135.29 50.88 136.23 53.78 C 134.76 57.32 133.36 60.88 131.71 64.34 C 131.71 62.43 131.88 60.44 131.60 58.54 C 130.76 57.58 129.75 56.74 128.80 55.89 C 128.24 50.10 128.21 43.18 130.92 37.91 C 132.71 36.29 134.89 35.14 136.73 33.56 Z" fill="#21213a" />
<path d="M 192.72 33.83 C 194.25 37.27 194.38 39.23 191.90 42.27 C 190.55 42.38 189.20 42.48 187.85 42.58 C 188.84 40.77 189.72 38.92 190.71 37.12 C 190.33 36.29 189.94 35.46 189.55 34.63 C 190.61 34.36 191.66 34.09 192.72 33.83 Z" fill="#76614b" />
<path d="M 169.62 36.25 C 170.49 37.94 170.92 41.21 172.78 42.02 C 176.08 42.36 179.54 41.13 182.90 41.62 C 185.54 42.07 188.02 43.08 190.66 43.65 C 191.13 44.13 191.59 44.61 192.06 45.09 C 193.03 44.81 193.99 44.53 194.96 44.24 C 196.24 45.90 197.54 47.51 198.74 49.24 C 200.81 52.83 202.59 56.42 205.63 59.35 C 210.25 63.91 214.38 68.30 215.95 74.82 C 216.91 79.50 216.77 84.48 216.19 89.21 C 216.24 85.60 215.20 82.35 213.74 79.09 C 213.37 86.55 212.73 94.16 213.17 101.62 C 212.74 102.98 212.29 104.34 211.85 105.70 C 212.67 105.03 213.50 104.36 214.33 103.70 C 214.46 108.56 214.25 113.38 213.78 118.22 L 213.69 119.08 C 213.40 121.38 213.17 123.69 212.94 125.99 C 213.74 125.93 214.54 125.86 215.35 125.79 C 211.44 128.73 211.74 132.73 209.90 136.89 C 208.83 131.18 209.43 125.65 210.37 119.99 C 208.74 126.92 208.82 133.80 208.68 140.85 C 207.57 147.13 205.63 153.73 202.55 159.33 C 197.59 166.84 191.12 173.86 185.10 180.55 C 184.42 181.11 183.74 181.67 183.07 182.23 C 184.59 178.71 186.29 175.27 187.85 171.76 C 185.16 174.61 183.10 177.85 181.43 181.39 C 177.85 181.16 176.57 183.01 173.97 185.02 C 172.36 186.82 169.38 185.29 167.34 185.09 C 167.32 186.74 167.29 188.40 167.27 190.06 C 165.38 190.46 163.49 190.87 161.60 191.29 C 160.64 193.59 159.63 195.88 158.67 198.19 L 158.23 199.38 C 158.75 201.15 159.41 202.90 160.08 204.61 C 161.81 209.52 163.34 214.12 167.08 217.93 C 171.19 222.06 176.45 225.16 181.56 227.90 C 179.60 229.06 177.67 230.28 175.76 231.52 C 175.19 231.88 174.63 232.24 174.06 232.60 C 173.12 231.69 172.18 230.72 171.12 229.95 C 167.79 228.64 163.85 228.87 160.53 227.49 C 159.29 226.77 158.81 224.78 158.14 223.53 C 159.26 222.14 161.45 221.12 160.94 219.06 C 160.16 212.07 157.21 205.22 155.34 198.44 C 154.64 195.58 152.71 193.79 150.60 191.90 C 150.89 189.69 151.23 187.29 150.91 185.08 C 149.50 183.84 147.63 183.04 145.91 182.33 C 147.47 180.18 148.77 177.89 150.14 175.62 C 153.12 172.92 156.16 170.45 159.93 168.92 C 164.57 167.05 167.88 163.73 171.91 160.93 C 176.09 158.18 177.98 153.21 179.76 148.74 C 182.27 142.21 181.18 135.86 181.35 128.97 C 181.57 121.85 180.19 114.92 178.16 108.13 C 178.19 108.82 178.22 109.50 178.27 110.19 C 176.85 105.75 175.60 100.82 173.03 96.88 C 171.36 94.23 168.25 94.05 165.44 94.46 C 161.69 95.11 158.12 98.01 155.05 100.14 C 155.28 97.76 155.48 95.37 155.64 92.98 C 155.20 93.76 154.79 94.55 154.39 95.34 C 154.69 92.43 155.07 89.29 154.57 86.39 C 154.21 83.99 151.88 82.96 150.05 81.80 C 146.94 80.00 143.71 78.39 140.63 76.54 C 136.80 73.99 133.07 71.30 129.22 68.78 C 128.80 68.11 128.37 67.44 127.95 66.77 C 128.90 63.05 129.17 59.72 128.80 55.89 C 129.75 56.74 130.76 57.58 131.60 58.54 C 131.88 60.44 131.71 62.43 131.71 64.34 C 133.36 60.88 134.76 57.32 136.23 53.78 C 138.41 52.52 140.74 51.27 142.64 49.60 C 144.94 47.12 145.98 43.90 148.75 41.75 C 149.60 41.41 150.46 41.07 151.31 40.73 C 157.15 42.00 161.04 41.51 166.14 38.33 C 166.76 37.96 167.38 37.60 168.01 37.23 C 168.55 36.91 169.09 36.58 169.62 36.25 Z" fill="#d2c1a3" />
<path d="M 217.24 36.73 C 220.45 35.77 225.77 37.84 226.41 41.55 C 227.88 46.71 228.00 51.78 230.28 56.76 C 231.38 59.54 233.45 62.21 233.97 65.14 C 234.34 68.29 234.34 71.47 234.68 74.63 C 231.18 74.91 228.00 75.28 224.98 73.05 C 223.21 71.92 222.59 70.21 221.99 68.31 L 221.91 66.81 C 222.75 68.21 223.58 69.61 224.42 71.01 C 226.44 70.88 228.53 70.87 230.53 70.50 C 232.37 69.19 232.62 66.20 232.09 64.19 C 231.07 61.35 229.14 58.85 227.93 56.08 C 226.38 52.77 226.31 49.11 225.13 45.81 C 224.08 43.46 221.78 41.57 219.92 39.86 C 215.81 44.11 215.70 49.96 210.91 53.90 C 209.43 55.87 207.00 53.74 205.21 53.30 C 205.62 51.62 206.01 49.96 206.68 48.36 C 210.81 44.92 213.90 40.87 217.24 36.73 Z" fill="#28263d" />
<path d="M 197.35 38.01 C 198.14 38.84 198.95 39.66 199.73 40.49 C 199.62 43.41 199.18 46.35 198.74 49.24 C 197.54 47.51 196.24 45.90 194.96 44.24 C 195.76 42.17 196.53 40.08 197.35 38.01 Z" fill="#b78f72" />
<path d="M 219.92 39.86 C 221.78 41.57 224.08 43.46 225.13 45.81 C 226.31 49.11 226.38 52.77 227.93 56.08 C 229.14 58.85 231.07 61.35 232.09 64.19 C 232.62 66.20 232.37 69.19 230.53 70.50 C 228.53 70.87 226.44 70.88 224.42 71.01 C 223.58 69.61 222.75 68.21 221.91 66.81 L 221.99 68.31 C 221.68 67.40 221.37 66.50 221.05 65.59 C 222.78 65.62 224.51 65.65 226.24 65.67 C 226.01 62.93 226.20 59.53 224.86 57.08 C 223.07 54.65 219.62 53.30 217.05 51.83 C 215.39 53.24 213.71 54.62 212.04 56.01 C 212.36 57.63 212.69 59.24 213.02 60.85 C 209.30 59.20 206.82 56.28 204.56 53.01 L 205.21 53.30 C 207.00 53.74 209.43 55.87 210.91 53.90 C 215.70 49.96 215.81 44.11 219.92 39.86 Z" fill="#d3c4a7" />
<path d="M 204.18 41.11 C 205.15 43.46 205.85 45.95 206.68 48.36 C 206.01 49.96 205.62 51.62 205.21 53.30 L 204.56 53.01 C 201.78 49.53 203.87 45.05 204.18 41.11 Z" fill="#8b7c7f" />
<path d="M 84.48 42.46 C 86.98 50.59 89.63 59.03 90.45 67.53 C 88.82 64.52 87.55 61.36 86.85 58.00 C 85.44 52.79 83.86 47.95 84.48 42.46 Z" fill="#565564" />
<path d="M 172.14 50.64 C 177.03 51.02 179.18 55.82 179.65 60.10 C 179.85 63.66 177.32 66.68 174.04 67.77 C 172.27 66.85 170.47 65.24 169.89 63.27 C 169.58 61.23 170.01 59.03 170.23 56.99 C 167.90 55.83 165.63 54.64 163.40 53.30 C 166.23 51.40 168.56 49.79 172.14 50.64 Z" fill="#efa865" />
<path d="M 193.53 52.39 C 193.20 54.95 191.89 57.53 190.84 59.88 C 189.73 59.85 188.62 59.82 187.51 59.79 C 187.60 58.24 187.68 56.70 187.77 55.15 C 186.51 53.65 185.27 52.14 184.03 50.63 C 187.68 50.26 190.66 49.40 193.53 52.39 Z" fill="#eca96d" />
<path d="M 63.11 52.58 C 65.61 61.36 67.06 70.38 70.04 79.05 C 72.10 84.16 73.08 90.24 76.27 94.74 C 80.81 99.87 84.02 105.12 89.82 108.97 C 93.49 111.20 96.60 114.16 100.34 116.26 C 100.85 116.57 101.35 116.87 101.86 117.17 C 107.97 120.59 113.28 125.03 119.63 128.01 C 122.44 129.51 125.40 131.11 127.78 133.24 C 130.08 135.32 131.15 138.53 132.35 141.31 C 131.94 142.21 131.54 143.12 131.15 144.03 C 129.57 142.82 127.90 141.78 126.16 140.81 C 122.77 139.67 119.54 138.85 116.03 140.07 C 111.23 141.70 106.33 141.78 101.33 141.38 C 99.60 140.33 97.83 139.00 95.91 138.34 C 94.16 138.70 92.46 139.55 90.80 140.21 C 88.55 140.08 86.37 139.94 84.27 139.03 C 80.30 137.39 76.31 136.06 72.48 134.13 C 71.48 133.58 70.50 132.99 69.52 132.40 C 63.05 128.16 57.10 123.13 50.91 118.48 C 51.45 117.74 51.98 117.00 52.50 116.25 C 51.54 114.97 50.58 113.68 49.65 112.38 C 50.90 111.55 52.15 110.72 53.40 109.88 C 51.27 108.77 49.11 107.72 46.94 106.70 C 47.90 105.67 48.87 104.65 49.84 103.62 C 48.56 102.14 47.26 100.67 45.98 99.19 C 45.82 100.48 45.64 101.78 45.46 103.07 C 44.12 101.63 42.49 100.20 41.59 98.45 C 41.05 96.92 40.88 95.26 40.54 93.68 C 41.87 93.60 43.19 93.53 44.51 93.45 C 44.15 89.81 43.55 86.32 42.58 82.78 C 42.47 76.95 43.29 71.62 41.94 65.86 C 43.49 65.77 45.05 65.55 46.60 65.58 C 47.80 66.32 48.90 67.23 50.01 68.09 C 49.81 66.04 50.22 64.10 50.58 62.10 C 51.12 63.57 51.67 65.04 52.24 66.51 C 53.40 64.50 54.02 62.48 55.97 61.08 C 58.94 58.75 61.17 55.79 63.11 52.58 Z" fill="#20233f" />
<path d="M 158.36 61.68 C 161.20 62.35 164.32 62.41 165.98 65.18 C 169.17 69.43 167.17 75.49 164.14 79.22 C 162.67 81.27 160.53 80.73 158.31 80.89 C 158.64 78.93 159.31 76.72 159.12 74.73 C 158.45 72.91 156.51 71.19 154.64 70.68 C 152.34 70.57 149.80 73.49 147.36 72.88 C 145.51 69.83 144.55 65.64 146.25 62.32 C 149.98 59.92 154.29 61.09 158.36 61.68 Z" fill="#f7a257" />
<path d="M 36.95 68.28 C 38.04 68.15 39.13 68.04 40.23 67.94 C 39.63 69.53 39.27 71.02 39.10 72.72 C 38.28 71.27 37.45 69.87 36.95 68.28 Z" fill="#bdbcbd" />
<path d="M 52.35 69.48 C 54.47 68.44 55.31 72.47 53.12 72.69 C 51.66 72.41 51.27 70.42 52.35 69.48 Z" fill="#686b7a" />
<path d="M 129.22 68.78 C 133.07 71.30 136.80 73.99 140.63 76.54 C 140.34 79.90 142.16 82.02 143.94 84.64 C 143.13 84.53 142.33 84.42 141.53 84.32 C 139.41 82.52 137.26 80.77 135.00 79.16 C 134.96 80.51 134.93 81.86 134.90 83.21 C 134.88 84.09 134.88 84.98 134.87 85.87 C 130.51 83.61 127.79 79.98 125.03 76.06 C 126.23 75.26 127.51 74.61 128.87 74.11 C 129.56 74.95 130.28 75.75 130.96 76.59 C 131.69 76.56 132.42 76.53 133.15 76.50 C 131.84 73.93 130.57 71.34 129.22 68.78 Z" fill="#876e64" />
<path d="M 79.98 77.76 C 77.27 75.23 76.67 73.35 76.37 69.73 C 79.03 71.99 79.51 74.41 79.98 77.76 Z" fill="#645651" />
<path d="M 40.44 72.88 C 39.96 75.50 39.40 78.09 38.81 80.68 C 38.21 78.32 37.62 75.96 37.21 73.55 C 38.28 73.31 39.36 73.09 40.44 72.88 Z" fill="#cdcdcd" />
<path d="M 190.12 73.73 C 192.60 74.22 194.99 75.62 197.24 76.73 C 199.70 78.05 202.55 79.52 204.00 82.01 C 207.52 87.93 207.85 94.98 206.88 101.65 C 206.09 107.10 206.81 113.21 205.44 118.51 C 204.45 121.25 203.20 124.10 201.33 126.36 C 199.70 127.07 196.46 127.41 195.51 125.49 C 192.95 121.58 190.81 117.37 188.74 113.18 C 191.31 114.52 193.83 115.95 196.35 117.40 C 201.64 114.78 202.10 108.19 202.20 102.99 C 202.00 95.23 197.61 86.18 189.19 84.90 C 185.14 89.43 183.03 95.48 178.86 100.02 C 179.72 97.04 181.18 94.40 182.65 91.69 C 184.67 88.03 183.35 82.91 185.13 79.07 C 186.22 76.87 187.97 74.93 190.12 73.73 Z" fill="#20213d" />
<path d="M 53.34 74.66 C 54.25 79.25 54.89 83.88 55.19 88.54 C 53.36 84.74 52.19 80.78 52.45 76.51 C 52.74 75.89 53.04 75.27 53.34 74.66 Z" fill="#4e4e62" />
<path d="M 124.22 74.90 L 125.03 76.06 C 127.79 79.98 130.51 83.61 134.87 85.87 C 136.75 86.83 138.66 87.73 140.51 88.73 C 138.46 88.81 136.40 88.85 134.35 88.94 C 134.78 90.02 135.26 91.08 135.73 92.14 C 133.61 92.79 131.48 93.45 129.35 94.07 L 128.82 93.48 C 128.62 92.18 128.46 90.88 128.32 89.58 C 126.75 88.04 124.77 86.42 123.74 84.45 C 123.18 81.38 123.82 77.97 124.22 74.90 Z" fill="#c8925c" />
<path d="M 69.71 77.23 C 74.65 80.97 78.23 85.64 82.41 90.13 C 82.88 90.65 83.35 91.17 83.81 91.70 C 88.06 96.74 92.04 101.81 97.37 105.79 C 97.38 106.68 97.38 107.57 97.39 108.47 C 95.44 107.05 93.54 105.57 91.56 104.19 C 93.85 108.67 96.83 112.65 100.34 116.26 C 96.60 114.16 93.49 111.20 89.82 108.97 C 84.02 105.12 80.81 99.87 76.27 94.74 C 73.08 90.24 72.10 84.16 70.04 79.05 L 69.71 77.23 Z" fill="#e2e1de" />
<path d="M 140.63 76.54 C 143.71 78.39 146.94 80.00 150.05 81.80 L 150.55 83.51 C 149.13 84.19 147.72 84.91 146.30 85.61 C 146.43 89.40 146.46 93.04 147.12 96.82 C 145.64 93.41 143.93 90.49 140.51 88.73 C 138.66 87.73 136.75 86.83 134.87 85.87 C 134.88 84.98 134.88 84.09 134.90 83.21 C 137.10 83.64 139.30 84.03 141.53 84.32 C 142.33 84.42 143.13 84.53 143.94 84.64 C 142.16 82.02 140.34 79.90 140.63 76.54 Z" fill="#69554e" />
<path d="M 79.16 78.98 C 80.62 79.80 82.10 80.59 83.56 81.42 L 83.06 79.93 C 84.07 82.38 85.29 84.69 86.54 87.03 C 85.61 88.58 84.71 90.14 83.81 91.70 C 83.35 91.17 82.88 90.65 82.41 90.13 C 82.01 86.19 80.69 82.60 79.16 78.98 Z" fill="#645055" />
<path d="M 135.00 79.16 C 137.26 80.77 139.41 82.52 141.53 84.32 C 139.30 84.03 137.10 83.64 134.90 83.21 C 134.93 81.86 134.96 80.51 135.00 79.16 Z" fill="#392a39" />
<path d="M 213.74 79.09 C 215.20 82.35 216.24 85.60 216.19 89.21 C 215.58 93.42 214.50 97.58 213.17 101.62 C 212.73 94.16 213.37 86.55 213.74 79.09 Z" fill="#e2dac9" />
<path d="M 150.05 81.80 C 151.88 82.96 154.21 83.99 154.57 86.39 C 155.07 89.29 154.69 92.43 154.39 95.34 C 153.92 97.66 153.41 99.98 152.92 102.29 C 152.69 95.87 152.48 89.70 150.55 83.51 L 150.05 81.80 Z" fill="#907c67" />
<path d="M 42.58 82.78 C 43.55 86.32 44.15 89.81 44.51 93.45 C 43.19 93.53 41.87 93.60 40.54 93.68 C 40.88 95.26 41.05 96.92 41.59 98.45 C 42.49 100.20 44.12 101.63 45.46 103.07 C 45.64 101.78 45.82 100.48 45.98 99.19 C 47.26 100.67 48.56 102.14 49.84 103.62 C 48.87 104.65 47.90 105.67 46.94 106.70 C 49.11 107.72 51.27 108.77 53.40 109.88 C 52.15 110.72 50.90 111.55 49.65 112.38 C 46.94 108.28 43.26 105.46 39.82 102.04 C 38.89 101.11 37.97 100.17 37.07 99.21 C 38.20 98.63 39.45 97.47 39.27 96.08 C 39.38 93.19 38.44 90.82 37.11 88.30 C 36.10 91.18 35.46 94.44 34.20 97.23 C 33.32 98.85 31.35 99.92 29.94 101.07 C 32.33 97.18 32.99 92.82 34.66 88.67 C 36.43 86.07 39.90 84.34 42.58 82.78 Z" fill="#766762" />
<path d="M 119.31 83.35 C 122.81 86.39 125.47 90.26 128.82 93.48 L 129.35 94.07 C 132.44 97.53 135.86 100.64 139.34 103.69 C 141.44 105.51 142.92 107.46 144.16 109.94 C 136.07 106.74 132.93 100.22 126.51 94.83 C 123.63 91.26 120.92 87.71 119.31 83.35 Z" fill="#34262c" />
<path d="M 150.55 83.51 C 152.48 89.70 152.69 95.87 152.92 102.29 C 152.42 107.25 152.69 112.26 152.05 117.20 C 152.24 114.25 152.47 111.23 151.78 108.33 C 150.88 104.40 148.74 100.53 147.12 96.82 C 146.46 93.04 146.43 89.40 146.30 85.61 C 147.72 84.91 149.13 84.19 150.55 83.51 Z" fill="#232138" />
<path d="M 134.35 88.94 C 136.40 88.85 138.46 88.81 140.51 88.73 C 143.93 90.49 145.64 93.41 147.12 96.82 C 148.74 100.53 150.88 104.40 151.78 108.33 C 152.47 111.23 152.24 114.25 152.05 117.20 C 151.18 123.02 151.46 129.04 152.55 134.81 C 149.40 134.11 146.29 133.25 143.16 132.46 C 143.33 134.29 143.55 136.12 143.85 137.93 C 142.04 137.41 140.23 136.86 138.40 136.44 C 137.24 138.46 136.26 140.59 135.23 142.68 C 134.28 142.21 133.32 141.74 132.35 141.31 C 131.15 138.53 130.08 135.32 127.78 133.24 C 125.40 131.11 122.44 129.51 119.63 128.01 C 124.80 127.17 129.84 126.21 134.61 123.92 C 138.09 125.33 141.20 127.00 143.76 129.82 L 144.89 130.95 C 147.71 129.64 150.27 128.57 150.41 124.98 C 150.46 119.77 146.15 114.68 144.16 109.94 C 142.92 107.46 141.44 105.51 139.34 103.69 C 135.86 100.64 132.44 97.53 129.35 94.07 C 131.48 93.45 133.61 92.79 135.73 92.14 C 135.26 91.08 134.78 90.02 134.35 88.94 Z" fill="#c07737" />
<path d="M 37.11 88.30 C 38.44 90.82 39.38 93.19 39.27 96.08 C 37.26 95.72 35.31 97.45 37.07 99.21 C 37.97 100.17 38.89 101.11 39.82 102.04 C 35.85 103.06 31.95 103.73 28.40 105.93 C 26.78 106.47 25.16 106.99 23.50 107.40 C 24.75 105.93 26.02 104.49 27.41 103.15 C 28.22 102.42 29.08 101.75 29.94 101.07 C 31.35 99.92 33.32 98.85 34.20 97.23 C 35.46 94.44 36.10 91.18 37.11 88.30 Z" fill="#907c70" />
<path d="M 187.91 91.46 C 189.64 94.52 192.65 98.27 191.66 101.98 C 190.28 105.66 187.34 108.93 184.84 111.91 C 181.99 108.33 180.48 105.14 179.88 100.56 C 181.39 102.52 182.65 104.63 183.86 106.78 C 185.82 105.18 187.90 103.76 190.00 102.37 C 189.51 100.05 188.92 97.79 188.19 95.54 C 186.65 98.05 185.12 100.52 183.09 102.66 C 184.01 98.64 185.71 94.94 187.91 91.46 Z" fill="#24253b" />
<path d="M 155.64 92.98 C 155.48 95.37 155.28 97.76 155.05 100.14 C 158.12 98.01 161.69 95.11 165.44 94.46 C 168.25 94.05 171.36 94.23 173.03 96.88 C 175.60 100.82 176.85 105.75 178.27 110.19 C 179.05 114.06 180.09 118.03 180.36 121.97 C 180.52 125.58 179.96 129.31 179.72 132.93 C 179.16 138.98 178.92 144.60 176.00 150.09 C 173.75 155.45 169.96 159.83 165.50 163.48 C 159.98 168.04 153.55 169.15 149.30 175.31 C 145.48 173.67 142.01 172.23 137.75 172.56 C 137.59 176.87 137.88 181.03 139.01 185.20 C 135.78 184.84 132.56 184.65 129.32 185.04 C 128.70 187.30 128.13 189.57 127.61 191.85 C 125.40 192.06 123.19 192.23 120.98 192.42 C 120.45 195.37 120.10 198.36 119.52 201.31 C 119.08 202.31 118.34 202.43 117.33 202.31 C 114.05 202.02 110.80 201.11 107.59 200.43 C 108.03 201.41 108.45 202.40 108.85 203.40 C 109.52 206.72 108.74 207.18 106.30 209.17 C 102.74 205.30 99.04 201.64 94.59 198.80 C 94.50 200.83 94.41 202.87 94.38 204.90 C 94.29 206.93 94.13 208.96 94.01 210.99 C 93.05 210.89 92.10 210.79 91.14 210.69 C 90.79 209.76 90.45 208.83 90.13 207.90 C 88.82 203.02 87.36 198.42 84.00 194.52 C 81.92 199.10 80.47 203.75 78.73 208.49 C 76.99 207.82 75.32 207.02 73.64 206.21 C 76.68 202.01 76.63 195.88 76.08 190.93 C 74.64 187.12 71.33 183.80 68.83 180.61 C 67.70 183.64 66.72 186.72 65.42 189.70 C 62.84 188.30 60.30 186.65 57.55 185.61 C 54.81 184.92 51.77 185.17 48.96 185.16 C 47.40 185.07 46.50 185.83 45.61 187.01 C 45.74 190.02 46.31 192.99 46.51 196.00 C 46.57 198.90 48.35 200.79 49.85 203.09 C 50.33 204.03 50.80 204.98 51.26 205.93 C 50.48 206.68 49.69 207.42 48.90 208.14 C 46.68 208.56 44.57 209.31 42.46 210.09 C 45.50 212.03 48.95 213.04 51.94 215.05 C 53.76 216.14 55.65 217.69 57.70 218.23 C 60.28 218.89 62.91 218.28 65.48 217.90 C 64.36 217.11 63.24 216.31 62.14 215.49 C 64.31 214.36 66.47 213.24 68.52 211.90 C 69.32 212.33 70.11 212.75 70.90 213.18 C 71.96 213.95 73.02 214.73 74.08 215.50 C 73.40 216.16 72.71 216.81 72.01 217.45 C 71.28 218.07 70.56 218.70 69.84 219.33 C 70.91 220.13 71.99 220.93 73.06 221.74 C 71.67 221.31 70.28 220.76 68.85 220.50 C 67.04 220.77 65.25 221.43 63.53 222.01 C 68.58 223.90 73.54 225.43 79.00 225.15 C 81.81 223.50 84.42 221.46 87.06 219.56 C 88.64 220.03 90.23 220.48 91.81 220.95 C 89.80 222.97 87.85 225.05 85.87 227.09 C 84.65 227.12 83.42 227.17 82.20 227.24 C 85.16 229.06 87.81 230.82 91.45 229.79 C 95.34 228.43 99.03 226.70 102.76 224.97 C 104.55 224.66 106.34 224.41 108.12 224.10 C 107.95 225.62 107.75 227.12 107.66 228.64 L 109.32 229.24 C 110.24 229.68 111.08 229.61 111.84 229.03 C 114.76 227.32 117.42 225.25 119.97 223.04 C 123.10 222.40 125.83 221.21 129.12 221.67 C 134.64 222.07 139.09 220.87 143.76 217.97 C 145.80 218.63 147.84 219.31 149.89 219.93 C 150.04 218.93 150.16 217.93 150.26 216.93 C 149.90 216.25 149.53 215.57 149.14 214.91 C 150.87 213.20 152.47 211.37 154.25 209.70 C 154.53 212.62 155.10 215.48 155.50 218.37 C 155.95 221.40 154.61 224.81 154.62 227.73 C 155.34 230.10 156.66 232.85 158.60 234.43 C 163.04 236.44 169.00 235.82 173.77 235.69 C 173.86 234.66 173.96 233.63 174.06 232.60 C 174.63 232.24 175.19 231.88 175.76 231.52 C 178.87 232.26 182.03 232.88 185.20 233.30 C 184.49 233.74 183.77 234.17 183.06 234.60 C 185.46 235.24 187.85 235.93 190.24 236.61 C 187.55 238.39 184.94 240.05 181.72 240.70 C 174.28 242.31 166.32 242.10 159.00 240.01 C 152.05 237.97 146.97 232.29 140.18 230.68 C 135.55 229.54 131.36 231.58 126.97 232.81 C 118.80 235.32 110.75 235.48 102.38 236.77 C 99.47 237.24 96.62 237.10 93.70 236.67 C 87.55 235.72 81.99 236.35 76.10 233.99 C 70.69 231.85 65.17 230.10 59.63 228.31 C 56.79 227.43 54.60 225.76 52.57 223.64 C 50.30 221.22 47.59 219.42 44.74 217.74 C 44.99 217.06 45.23 216.37 45.47 215.68 C 44.61 215.47 43.76 215.27 42.90 215.06 C 40.83 211.35 38.13 207.40 37.83 203.07 C 37.37 197.19 39.36 191.08 40.74 185.39 C 39.37 182.48 38.34 179.04 36.27 176.56 C 34.30 174.60 31.42 173.43 29.10 171.91 C 21.40 167.41 16.31 158.73 15.51 149.94 C 15.62 143.18 18.88 136.20 22.79 130.79 C 25.89 126.50 27.09 121.26 26.88 116.02 C 26.77 113.24 24.14 110.64 22.54 108.50 C 22.86 108.13 23.18 107.76 23.50 107.40 C 25.16 106.99 26.78 106.47 28.40 105.93 C 30.94 105.69 33.47 105.48 36.00 105.17 C 41.13 109.44 45.84 114.16 50.91 118.48 C 57.10 123.13 63.05 128.16 69.52 132.40 C 68.54 133.45 67.70 134.92 66.46 135.67 C 64.23 136.68 61.79 137.22 59.50 138.05 C 55.82 135.91 52.28 133.72 49.21 130.74 C 44.55 127.07 40.72 122.63 36.18 118.88 C 38.04 121.84 40.24 124.53 42.51 127.19 C 39.47 131.40 35.33 133.99 30.99 136.68 C 29.88 137.30 28.74 137.87 27.60 138.43 C 27.64 139.88 27.69 141.32 27.73 142.76 C 26.77 143.93 25.76 145.06 24.71 146.14 C 23.82 146.94 23.78 147.80 24.61 148.71 C 26.12 149.83 26.61 148.49 26.94 147.21 C 27.77 146.36 28.64 145.55 29.55 144.78 C 29.50 147.81 29.51 150.83 29.43 153.85 C 28.29 153.08 27.17 152.29 26.07 151.47 C 27.16 152.98 28.17 154.54 29.05 156.18 C 30.35 158.89 30.42 161.59 30.27 164.53 C 31.39 163.42 32.53 161.95 33.99 161.31 C 36.40 160.51 38.98 160.18 41.46 159.60 C 41.56 160.50 41.68 161.41 41.82 162.31 C 40.07 162.32 38.31 162.57 36.56 162.73 C 37.30 164.70 38.15 166.62 39.00 168.54 C 41.03 167.56 43.01 166.50 44.98 165.42 C 46.07 164.83 47.12 164.17 48.17 163.52 C 49.75 163.83 51.34 164.13 52.92 164.45 C 54.98 165.84 56.93 167.33 59.14 168.49 C 57.16 169.18 55.28 170.06 53.44 171.05 C 60.35 172.62 65.93 170.04 72.48 168.60 C 75.56 167.79 78.81 168.07 81.41 166.45 C 83.81 165.13 86.23 163.84 88.71 162.68 C 95.92 162.89 102.86 160.82 110.00 160.85 C 113.20 160.77 114.38 163.00 115.79 165.42 C 116.50 167.82 117.22 170.20 118.04 172.56 C 121.67 171.81 124.52 170.08 127.43 167.88 C 128.79 166.94 130.22 166.16 131.62 165.28 C 133.32 164.23 134.94 163.08 136.58 161.94 C 142.02 157.97 147.43 153.70 151.95 148.69 C 155.34 144.28 153.41 139.70 152.55 134.81 C 151.46 129.04 151.18 123.02 152.05 117.20 C 152.69 112.26 152.42 107.25 152.92 102.29 C 153.41 99.98 153.92 97.66 154.39 95.34 C 154.79 94.55 155.20 93.76 155.64 92.98 Z" fill="#f4f4f1" />
<path d="M 126.51 94.83 C 132.93 100.22 136.07 106.74 144.16 109.94 C 143.86 113.28 143.64 116.56 144.14 119.89 C 143.14 116.54 142.76 113.44 140.23 110.78 C 135.58 105.82 130.27 102.20 126.51 96.30 L 126.51 94.83 Z" fill="#806252" />
<path d="M 39.27 96.08 C 39.45 97.47 38.20 98.63 37.07 99.21 C 35.31 97.45 37.26 95.72 39.27 96.08 Z" fill="#463a39" />
<path d="M 90.42 102.28 C 88.97 101.93 87.40 101.70 86.05 101.07 C 85.54 100.10 85.20 99.05 85.02 97.91 C 87.15 99.16 88.73 100.48 90.42 102.28 Z" fill="#b2b0af" />
<path d="M 216.47 98.46 C 218.34 97.53 219.25 100.29 217.88 101.37 C 216.02 102.28 215.14 99.53 216.47 98.46 Z" fill="#5d5d6d" />
<path d="M 39.82 102.04 C 43.26 105.46 46.94 108.28 49.65 112.38 C 50.58 113.68 51.54 114.97 52.50 116.25 C 51.98 117.00 51.45 117.74 50.91 118.48 C 45.84 114.16 41.13 109.44 36.00 105.17 C 33.47 105.48 30.94 105.69 28.40 105.93 C 31.95 103.73 35.85 103.06 39.82 102.04 Z" fill="#e4e3e0" />
<path d="M 91.56 104.19 C 93.54 105.57 95.44 107.05 97.39 108.47 C 97.38 107.57 97.38 106.68 97.37 105.79 C 98.35 106.56 99.35 107.32 100.39 108.01 C 101.10 111.42 103.04 114.03 105.22 116.66 C 104.03 116.37 102.84 116.06 101.65 115.77 L 101.86 117.17 C 101.35 116.87 100.85 116.57 100.34 116.26 C 96.83 112.65 93.85 108.67 91.56 104.19 Z" fill="#b57d4c" />
<path d="M 100.39 108.01 C 102.57 109.26 104.76 110.48 106.89 111.80 C 108.05 113.09 109.18 114.48 110.51 115.60 C 111.75 116.20 113.62 114.95 114.63 114.27 C 121.81 116.75 127.69 120.87 134.61 123.92 C 129.84 126.21 124.80 127.17 119.63 128.01 C 113.28 125.03 107.97 120.59 101.86 117.17 L 101.65 115.77 C 102.84 116.06 104.03 116.37 105.22 116.66 C 103.04 114.03 101.10 111.42 100.39 108.01 Z" fill="#895935" />
<path d="M 178.16 108.13 C 180.19 114.92 181.57 121.85 181.35 128.97 C 181.18 135.86 182.27 142.21 179.76 148.74 C 177.98 153.21 176.09 158.18 171.91 160.93 C 167.88 163.73 164.57 167.05 159.93 168.92 C 156.16 170.45 153.12 172.92 150.14 175.62 L 149.30 175.31 C 153.55 169.15 159.98 168.04 165.50 163.48 C 169.96 159.83 173.75 155.45 176.00 150.09 C 178.92 144.60 179.16 138.98 179.72 132.93 C 179.96 129.31 180.52 125.58 180.36 121.97 C 180.09 118.03 179.05 114.06 178.27 110.19 C 178.22 109.50 178.19 108.82 178.16 108.13 Z" fill="#5d5240" />
<path d="M 144.16 109.94 C 146.15 114.68 150.46 119.77 150.41 124.98 C 150.27 128.57 147.71 129.64 144.89 130.95 L 143.76 129.82 C 144.49 128.14 145.25 126.48 146.01 124.83 C 145.35 123.20 144.66 121.57 144.14 119.89 C 143.64 116.56 143.86 113.28 144.16 109.94 Z" fill="#ffe8a0" />
<path d="M 106.89 111.80 C 109.48 112.60 112.06 113.42 114.63 114.27 C 113.62 114.95 111.75 116.20 110.51 115.60 C 109.18 114.48 108.05 113.09 106.89 111.80 Z" fill="#8b7165" />
<path d="M 57.22 116.59 C 58.48 115.82 59.70 117.41 58.73 118.48 C 57.46 119.26 56.24 117.66 57.22 116.59 Z" fill="#606179" />
<path d="M 213.78 118.22 C 215.43 118.40 217.08 118.64 218.72 118.89 C 219.67 119.03 220.61 119.18 221.56 119.33 C 222.23 123.78 222.95 128.22 223.68 132.65 C 222.23 134.20 220.84 135.79 219.47 137.40 C 215.20 142.16 215.30 148.49 210.49 152.53 C 211.69 148.21 213.16 144.05 215.11 140.01 C 218.21 133.64 217.45 127.15 218.65 119.65 C 217.00 119.46 215.35 119.27 213.69 119.08 L 213.78 118.22 Z" fill="#e0d2bd" />
<path d="M 36.18 118.88 C 40.72 122.63 44.55 127.07 49.21 130.74 C 47.89 129.99 46.54 129.31 45.18 128.66 C 46.29 130.50 47.45 132.30 48.65 134.08 C 45.70 134.10 42.45 133.90 39.83 135.45 C 36.33 137.39 33.91 141.15 31.73 144.40 C 30.70 143.48 29.66 142.57 28.62 141.65 C 29.55 140.06 30.27 138.38 30.99 136.68 C 35.33 133.99 39.47 131.40 42.51 127.19 C 40.24 124.53 38.04 121.84 36.18 118.88 Z" fill="#5c5564" />
<path d="M 213.69 119.08 C 215.35 119.27 217.00 119.46 218.65 119.65 C 217.45 127.15 218.21 133.64 215.11 140.01 C 213.16 144.05 211.69 148.21 210.49 152.53 C 207.91 156.86 205.07 160.91 201.29 164.29 C 197.53 167.74 194.86 171.72 191.57 175.57 C 189.46 177.29 187.26 178.89 185.10 180.55 C 191.12 173.86 197.59 166.84 202.55 159.33 C 205.63 153.73 207.57 147.13 208.68 140.85 C 208.82 133.80 208.74 126.92 210.37 119.99 C 209.43 125.65 208.83 131.18 209.90 136.89 C 211.74 132.73 211.44 128.73 215.35 125.79 C 214.54 125.86 213.74 125.93 212.94 125.99 C 213.17 123.69 213.40 121.38 213.69 119.08 Z" fill="#21203b" />
<path d="M 64.05 125.86 C 68.41 126.64 70.33 127.87 73.17 131.18 C 69.76 129.95 66.74 128.31 64.05 125.86 Z" fill="#4d495f" />
<path d="M 45.18 128.66 C 46.54 129.31 47.89 129.99 49.21 130.74 C 52.28 133.72 55.82 135.91 59.50 138.05 C 61.68 139.41 63.79 140.90 65.99 142.24 C 69.81 144.54 73.94 146.14 78.19 147.49 C 82.47 148.81 86.03 150.63 90.60 149.37 C 96.72 147.81 102.53 148.92 108.71 148.33 C 112.03 148.04 115.27 147.25 118.58 146.93 L 120.14 147.24 C 117.37 149.16 114.55 151.01 111.78 152.93 C 108.28 155.33 104.57 157.30 100.44 158.39 C 96.38 159.50 92.41 160.59 88.71 162.68 C 86.23 163.84 83.81 165.13 81.41 166.45 C 78.81 168.07 75.56 167.79 72.48 168.60 C 65.93 170.04 60.35 172.62 53.44 171.05 C 55.28 170.06 57.16 169.18 59.14 168.49 C 56.93 167.33 54.98 165.84 52.92 164.45 C 50.27 162.69 48.21 160.34 45.79 158.31 C 40.60 155.04 34.92 154.97 29.05 156.18 C 28.17 154.54 27.16 152.98 26.07 151.47 C 27.17 152.29 28.29 153.08 29.43 153.85 C 29.51 150.83 29.50 147.81 29.55 144.78 C 28.64 145.55 27.77 146.36 26.94 147.21 C 26.25 146.75 25.50 146.40 24.71 146.14 C 25.76 145.06 26.77 143.93 27.73 142.76 L 28.62 141.65 C 29.66 142.57 30.70 143.48 31.73 144.40 C 33.91 141.15 36.33 137.39 39.83 135.45 C 42.45 133.90 45.70 134.10 48.65 134.08 C 47.45 132.30 46.29 130.50 45.18 128.66 Z" fill="#20233f" />
<path d="M 69.52 132.40 C 70.50 132.99 71.48 133.58 72.48 134.13 C 70.47 135.74 68.25 137.44 66.76 139.55 C 67.27 140.52 67.88 141.45 68.47 142.38 C 67.64 142.33 66.81 142.28 65.99 142.24 C 63.79 140.90 61.68 139.41 59.50 138.05 C 61.79 137.22 64.23 136.68 66.46 135.67 C 67.70 134.92 68.54 133.45 69.52 132.40 Z" fill="#cb8b54" />
<path d="M 143.16 132.46 C 146.29 133.25 149.40 134.11 152.55 134.81 C 153.41 139.70 155.34 144.28 151.95 148.69 C 150.18 147.73 147.99 146.85 146.63 145.33 C 145.07 143.28 144.41 140.40 143.85 137.93 C 143.55 136.12 143.33 134.29 143.16 132.46 Z" fill="#7a6b61" />
<path d="M 72.48 134.13 C 76.31 136.06 80.30 137.39 84.27 139.03 C 86.37 139.94 88.55 140.08 90.80 140.21 C 94.31 140.88 97.75 141.38 101.33 141.38 C 106.33 141.78 111.23 141.70 116.03 140.07 C 119.54 138.85 122.77 139.67 126.16 140.81 C 125.78 143.10 125.42 145.40 124.99 147.68 C 122.85 147.02 120.83 146.60 118.58 146.93 C 115.27 147.25 112.03 148.04 108.71 148.33 C 102.53 148.92 96.72 147.81 90.60 149.37 C 86.03 150.63 82.47 148.81 78.19 147.49 C 73.94 146.14 69.81 144.54 65.99 142.24 C 66.81 142.28 67.64 142.33 68.47 142.38 C 67.88 141.45 67.27 140.52 66.76 139.55 C 68.25 137.44 70.47 135.74 72.48 134.13 Z" fill="#c2793a" />
<path d="M 138.40 136.44 C 140.23 136.86 142.04 137.41 143.85 137.93 C 144.41 140.40 145.07 143.28 146.63 145.33 C 147.99 146.85 150.18 147.73 151.95 148.69 C 147.43 153.70 142.02 157.97 136.58 161.94 C 136.01 159.73 135.82 157.72 133.82 156.29 C 130.44 153.62 126.99 151.72 124.99 147.68 C 125.42 145.40 125.78 143.10 126.16 140.81 C 127.90 141.78 129.57 142.82 131.15 144.03 C 134.40 147.52 135.60 152.12 138.45 155.79 C 142.69 157.51 146.11 153.21 145.27 149.19 C 142.75 146.25 138.61 144.48 135.23 142.68 C 136.26 140.59 137.24 138.46 138.40 136.44 Z" fill="#b2a59c" />
<path d="M 30.99 136.68 C 30.27 138.38 29.55 140.06 28.62 141.65 L 27.73 142.76 C 27.69 141.32 27.64 139.88 27.60 138.43 C 28.74 137.87 29.88 137.30 30.99 136.68 Z" fill="#bfc0c8" />
<path d="M 95.91 138.34 C 97.83 139.00 99.60 140.33 101.33 141.38 C 97.75 141.38 94.31 140.88 90.80 140.21 C 92.46 139.55 94.16 138.70 95.91 138.34 Z" fill="#86573a" />
<path d="M 219.47 137.40 C 220.77 139.80 222.45 142.39 223.00 145.09 C 222.57 147.39 220.82 149.56 219.44 151.40 C 216.20 155.46 212.90 159.48 209.46 163.38 C 205.14 164.18 203.73 168.31 202.70 172.05 C 201.71 177.75 205.80 182.08 209.14 186.11 C 209.49 188.72 209.71 191.36 209.91 193.98 C 202.88 196.10 196.77 194.24 189.67 194.09 C 189.78 195.70 189.90 197.30 190.19 198.89 C 189.41 199.10 188.64 199.32 187.87 199.54 C 186.99 196.64 185.02 193.88 187.03 191.02 C 189.90 186.51 193.22 182.49 195.21 177.45 C 194.00 176.81 192.79 176.18 191.57 175.57 C 194.86 171.72 197.53 167.74 201.29 164.29 C 205.07 160.91 207.91 156.86 210.49 152.53 C 215.30 148.49 215.20 142.16 219.47 137.40 Z" fill="#d5c5aa" />
<path d="M 132.35 141.31 C 133.32 141.74 134.28 142.21 135.23 142.68 C 138.61 144.48 142.75 146.25 145.27 149.19 C 146.11 153.21 142.69 157.51 138.45 155.79 C 135.60 152.12 134.40 147.52 131.15 144.03 C 131.54 143.12 131.94 142.21 132.35 141.31 Z" fill="#796a62" />
<path d="M 24.71 146.14 C 25.50 146.40 26.25 146.75 26.94 147.21 C 26.61 148.49 26.12 149.83 24.61 148.71 C 23.78 147.80 23.82 146.94 24.71 146.14 Z" fill="#292831" />
<path d="M 124.99 147.68 C 126.99 151.72 130.44 153.62 133.82 156.29 C 135.82 157.72 136.01 159.73 136.58 161.94 C 134.94 163.08 133.32 164.23 131.62 165.28 C 129.30 164.26 126.45 163.93 126.54 160.73 C 126.27 157.68 128.75 152.81 124.67 151.47 C 120.36 151.66 116.13 152.82 111.78 152.93 C 114.55 151.01 117.37 149.16 120.14 147.24 L 118.58 146.93 C 120.83 146.60 122.85 147.02 124.99 147.68 Z" fill="#796a61" />
<path d="M 124.67 151.47 C 128.75 152.81 126.27 157.68 126.54 160.73 C 126.45 163.93 129.30 164.26 131.62 165.28 C 130.22 166.16 128.79 166.94 127.43 167.88 C 125.70 166.54 123.90 165.24 122.26 163.79 C 120.52 162.37 119.84 159.81 118.94 157.81 C 117.97 160.38 116.96 162.93 115.79 165.42 C 114.38 163.00 113.20 160.77 110.00 160.85 C 102.86 160.82 95.92 162.89 88.71 162.68 C 92.41 160.59 96.38 159.50 100.44 158.39 C 104.57 157.30 108.28 155.33 111.78 152.93 C 116.13 152.82 120.36 151.66 124.67 151.47 Z" fill="#b2a69a" />
<path d="M 45.79 158.31 C 48.21 160.34 50.27 162.69 52.92 164.45 C 51.34 164.13 49.75 163.83 48.17 163.52 C 47.12 164.17 46.07 164.83 44.98 165.42 C 45.38 164.89 45.77 164.37 46.16 163.85 C 45.09 163.46 44.01 163.09 42.94 162.69 L 41.82 162.31 C 41.68 161.41 41.56 160.50 41.46 159.60 C 38.98 160.18 36.40 160.51 33.99 161.31 C 32.53 161.95 31.39 163.42 30.27 164.53 C 30.42 161.59 30.35 158.89 29.05 156.18 C 34.92 154.97 40.60 155.04 45.79 158.31 Z" fill="#7b6e6a" />
<path d="M 118.94 157.81 C 119.84 159.81 120.52 162.37 122.26 163.79 C 123.90 165.24 125.70 166.54 127.43 167.88 C 124.52 170.08 121.67 171.81 118.04 172.56 C 117.22 170.20 116.50 167.82 115.79 165.42 C 116.96 162.93 117.97 160.38 118.94 157.81 Z" fill="#76675d" />
<path d="M 41.82 162.31 L 42.94 162.69 C 44.01 163.09 45.09 163.46 46.16 163.85 C 45.77 164.37 45.38 164.89 44.98 165.42 C 43.01 166.50 41.03 167.56 39.00 168.54 C 38.15 166.62 37.30 164.70 36.56 162.73 C 38.31 162.57 40.07 162.32 41.82 162.31 Z" fill="#3b3f50" />
<path d="M 179.55 161.70 C 177.92 166.45 178.34 170.99 177.98 175.85 C 175.34 179.89 171.28 180.36 166.88 180.70 C 165.66 178.02 163.93 175.20 163.47 172.27 C 165.14 168.94 168.49 166.19 171.21 163.68 C 170.99 165.12 170.76 166.54 170.54 167.98 C 171.93 168.32 173.31 168.66 174.70 169.01 C 175.91 166.18 177.34 163.85 179.55 161.70 Z" fill="#efa867" />
<path d="M 209.46 163.38 C 207.02 166.80 204.21 169.47 204.44 174.01 C 204.46 178.73 207.24 182.00 211.18 184.21 C 210.49 184.83 209.81 185.47 209.14 186.11 C 205.80 182.08 201.71 177.75 202.70 172.05 C 203.73 168.31 205.14 164.18 209.46 163.38 Z" fill="#4b484a" />
<path d="M 34.31 164.94 C 36.16 164.44 36.75 166.41 35.05 167.15 C 33.19 167.58 32.63 165.75 34.31 164.94 Z" fill="#534b53" />
<path d="M 61.21 168.14 C 62.97 166.93 64.15 169.74 62.05 170.15 C 60.92 169.83 60.64 169.16 61.21 168.14 Z" fill="#797b94" />
<path d="M 149.30 175.31 L 150.14 175.62 C 145.42 177.73 142.21 181.29 139.01 185.20 C 137.88 181.03 137.59 176.87 137.75 172.56 C 142.01 172.23 145.48 173.67 149.30 175.31 Z" fill="#b68d6b" />
<path d="M 187.85 171.76 C 186.29 175.27 184.59 178.71 183.07 182.23 C 181.07 185.93 179.24 189.80 176.90 193.30 C 177.88 189.11 179.66 185.28 181.43 181.39 C 183.10 177.85 185.16 174.61 187.85 171.76 Z" fill="#928b75" />
<path d="M 150.14 175.62 C 148.77 177.89 147.47 180.18 145.91 182.33 C 144.92 183.58 143.92 184.82 142.88 186.03 C 137.64 189.85 133.26 194.59 127.96 198.31 C 130.22 192.34 135.28 190.05 139.01 185.20 C 142.21 181.29 145.42 177.73 150.14 175.62 Z" fill="#8e7552" />
<path d="M 191.57 175.57 C 192.79 176.18 194.00 176.81 195.21 177.45 C 193.22 182.49 189.90 186.51 187.03 191.02 C 185.02 193.88 186.99 196.64 187.87 199.54 C 188.64 199.32 189.41 199.10 190.19 198.89 C 191.74 202.30 193.44 205.63 194.97 209.05 C 197.19 214.55 199.03 219.62 204.68 222.47 C 207.86 224.69 212.04 221.06 215.70 221.12 C 217.98 221.47 220.22 222.00 222.46 222.50 C 220.05 225.44 219.28 225.85 215.67 226.68 C 211.85 229.17 207.95 231.37 203.58 232.76 C 201.16 231.97 198.89 231.85 196.36 232.03 C 192.70 231.56 189.53 230.10 186.11 228.82 C 185.59 228.67 185.07 228.52 184.55 228.39 C 183.56 228.21 182.56 228.04 181.56 227.90 C 176.45 225.16 171.19 222.06 167.08 217.93 C 163.34 214.12 161.81 209.52 160.08 204.61 C 161.74 206.06 163.35 207.64 165.20 208.85 C 167.39 210.15 170.70 210.25 172.97 209.09 C 174.00 206.22 174.27 203.14 175.43 200.28 C 176.39 198.05 177.16 195.77 177.88 193.46 C 175.12 195.49 174.22 198.61 172.30 201.32 C 171.26 203.27 168.16 202.75 166.32 202.63 C 163.04 202.28 160.97 200.31 158.67 198.19 C 159.63 195.88 160.64 193.59 161.60 191.29 C 163.49 190.87 165.38 190.46 167.27 190.06 C 167.29 188.40 167.32 186.74 167.34 185.09 C 169.38 185.29 172.36 186.82 173.97 185.02 C 176.57 183.01 177.85 181.16 181.43 181.39 C 179.66 185.28 177.88 189.11 176.90 193.30 C 179.24 189.80 181.07 185.93 183.07 182.23 C 183.74 181.67 184.42 181.11 185.10 180.55 C 187.26 178.89 189.46 177.29 191.57 175.57 Z" fill="#f3f2f0" />
<path d="M 68.83 180.61 C 71.33 183.80 74.64 187.12 76.08 190.93 C 76.63 195.88 76.68 202.01 73.64 206.21 C 72.06 208.22 70.35 210.12 68.52 211.90 C 66.47 213.24 64.31 214.36 62.14 215.49 C 58.17 211.72 54.30 209.31 48.90 208.14 C 49.69 207.42 50.48 206.68 51.26 205.93 C 50.80 204.98 50.33 204.03 49.85 203.09 C 51.68 204.56 53.53 206.00 55.33 207.51 C 58.14 205.60 60.81 204.28 61.78 200.74 C 62.56 197.66 63.82 193.45 60.28 191.64 C 56.33 189.01 53.97 185.59 48.96 185.16 C 51.77 185.17 54.81 184.92 57.55 185.61 C 60.30 186.65 62.84 188.30 65.42 189.70 C 66.72 186.72 67.70 183.64 68.83 180.61 Z" fill="#b58d6b" />
<path d="M 145.91 182.33 C 147.63 183.04 149.50 183.84 150.91 185.08 C 151.23 187.29 150.89 189.69 150.60 191.90 C 150.01 195.52 149.42 196.34 146.50 198.40 C 145.03 197.08 143.21 195.45 142.66 193.50 C 142.21 191.09 142.57 188.45 142.88 186.03 C 143.92 184.82 144.92 183.58 145.91 182.33 Z" fill="#f1a15d" />
<path d="M 211.18 184.21 C 213.93 185.93 216.55 187.72 217.40 191.06 C 217.82 193.91 217.78 197.01 217.04 199.80 C 215.10 201.57 212.06 200.63 209.74 200.29 C 204.87 199.25 200.08 198.25 195.07 198.24 L 194.97 199.50 C 194.80 202.57 193.61 205.22 196.30 207.58 C 201.08 212.04 206.59 218.56 213.58 218.65 L 215.30 220.27 C 206.29 221.01 200.19 215.65 194.97 209.05 C 193.44 205.63 191.74 202.30 190.19 198.89 C 189.90 197.30 189.78 195.70 189.67 194.09 C 196.77 194.24 202.88 196.10 209.91 193.98 C 209.71 191.36 209.49 188.72 209.14 186.11 C 209.81 185.47 210.49 184.83 211.18 184.21 Z" fill="#7f6e4d" />
<path d="M 48.96 185.16 C 53.97 185.59 56.33 189.01 60.28 191.64 C 63.82 193.45 62.56 197.66 61.78 200.74 C 60.81 204.28 58.14 205.60 55.33 207.51 C 53.53 206.00 51.68 204.56 49.85 203.09 C 48.35 200.79 46.57 198.90 46.51 196.00 C 46.31 192.99 45.74 190.02 45.61 187.01 C 46.50 185.83 47.40 185.07 48.96 185.16 Z" fill="#29263e" />
<path d="M 129.32 185.04 C 132.56 184.65 135.78 184.84 139.01 185.20 C 135.28 190.05 130.22 192.34 127.96 198.31 C 123.13 203.18 117.12 206.08 110.67 208.17 C 110.06 206.58 109.49 204.98 108.85 203.40 C 108.45 202.40 108.03 201.41 107.59 200.43 C 110.80 201.11 114.05 202.02 117.33 202.31 C 118.34 202.43 119.08 202.31 119.52 201.31 C 120.10 198.36 120.45 195.37 120.98 192.42 C 123.19 192.23 125.40 192.06 127.61 191.85 C 128.13 189.57 128.70 187.30 129.32 185.04 Z" fill="#b79679" />
<path d="M 142.88 186.03 C 142.57 188.45 142.21 191.09 142.66 193.50 C 143.21 195.45 145.03 197.08 146.50 198.40 C 148.89 200.54 151.24 202.69 153.27 205.19 C 147.92 207.08 142.85 209.49 137.30 210.78 C 131.94 212.22 127.31 218.14 121.73 217.42 C 118.05 217.45 114.53 218.55 110.83 218.43 C 106.31 218.27 102.42 219.94 98.06 220.61 C 91.91 219.67 85.86 218.16 80.08 215.83 C 77.11 214.62 74.03 213.85 70.90 213.18 C 70.11 212.75 69.32 212.33 68.52 211.90 C 70.35 210.12 72.06 208.22 73.64 206.21 C 75.32 207.02 76.99 207.82 78.73 208.49 C 82.43 209.85 86.25 210.58 90.13 211.22 C 90.14 210.12 90.14 209.01 90.13 207.90 C 90.45 208.83 90.79 209.76 91.14 210.69 C 92.10 210.79 93.05 210.89 94.01 210.99 C 94.13 208.96 94.29 206.93 94.38 204.90 C 94.46 207.29 94.71 209.61 94.90 212.00 C 98.83 211.40 102.64 210.79 106.30 209.17 C 108.74 207.18 109.52 206.72 108.85 203.40 C 109.49 204.98 110.06 206.58 110.67 208.17 C 117.12 206.08 123.13 203.18 127.96 198.31 C 133.26 194.59 137.64 189.85 142.88 186.03 Z" fill="#d2c1a4" />
<path d="M 150.60 191.90 C 152.71 193.79 154.64 195.58 155.34 198.44 C 157.21 205.22 160.16 212.07 160.94 219.06 C 161.45 221.12 159.26 222.14 158.14 223.53 C 158.81 224.78 159.29 226.77 160.53 227.49 C 163.85 228.87 167.79 228.64 171.12 229.95 C 172.18 230.72 173.12 231.69 174.06 232.60 C 173.96 233.63 173.86 234.66 173.77 235.69 C 169.00 235.82 163.04 236.44 158.60 234.43 C 156.66 232.85 155.34 230.10 154.62 227.73 C 154.61 224.81 155.95 221.40 155.50 218.37 C 155.10 215.48 154.53 212.62 154.25 209.70 C 154.06 208.16 153.83 206.65 153.27 205.19 C 151.24 202.69 148.89 200.54 146.50 198.40 C 149.42 196.34 150.01 195.52 150.60 191.90 Z" fill="#7f6f4e" />
<path d="M 177.88 193.46 C 177.16 195.77 176.39 198.05 175.43 200.28 C 174.27 203.14 174.00 206.22 172.97 209.09 C 170.70 210.25 167.39 210.15 165.20 208.85 C 163.35 207.64 161.74 206.06 160.08 204.61 C 159.41 202.90 158.75 201.15 158.23 199.38 L 158.67 198.19 C 160.97 200.31 163.04 202.28 166.32 202.63 C 168.16 202.75 171.26 203.27 172.30 201.32 C 174.22 198.61 175.12 195.49 177.88 193.46 Z" fill="#806f50" />
<path d="M 84.00 194.52 C 87.36 198.42 88.82 203.02 90.13 207.90 C 90.14 209.01 90.14 210.12 90.13 211.22 C 86.25 210.58 82.43 209.85 78.73 208.49 C 80.47 203.75 81.92 199.10 84.00 194.52 Z" fill="#b58968" />
<path d="M 54.67 198.17 C 56.19 198.14 57.70 198.08 59.22 198.00 C 58.44 199.81 57.39 201.45 56.34 203.11 C 55.73 201.48 55.20 199.83 54.67 198.17 Z" fill="#6a5f68" />
<path d="M 136.09 197.41 C 136.49 200.55 136.84 203.70 137.27 206.84 C 136.59 207.07 135.93 207.32 135.27 207.60 C 133.77 206.01 132.30 204.39 130.78 202.82 C 132.25 200.56 133.82 198.89 136.09 197.41 Z" fill="#eca660" />
<path d="M 94.59 198.80 C 99.04 201.64 102.74 205.30 106.30 209.17 C 102.64 210.79 98.83 211.40 94.90 212.00 C 94.71 209.61 94.46 207.29 94.38 204.90 C 94.41 202.87 94.50 200.83 94.59 198.80 Z" fill="#b48b6a" />
<path d="M 194.97 199.50 C 196.26 201.40 197.49 203.34 198.87 205.17 C 201.26 208.32 204.91 210.71 208.22 212.80 C 212.12 215.28 216.16 215.38 220.60 217.15 C 219.84 217.77 219.09 218.40 218.34 219.03 C 216.76 218.85 215.17 218.75 213.58 218.65 C 206.59 218.56 201.08 212.04 196.30 207.58 C 193.61 205.22 194.80 202.57 194.97 199.50 Z" fill="#1a192c" />
<path d="M 153.27 205.19 C 153.83 206.65 154.06 208.16 154.25 209.70 C 152.47 211.37 150.87 213.20 149.14 214.91 C 147.35 215.94 145.55 216.95 143.76 217.97 C 139.09 220.87 134.64 222.07 129.12 221.67 C 125.83 221.21 123.10 222.40 119.97 223.04 C 116.03 223.45 112.05 223.60 108.12 224.10 C 106.34 224.41 104.55 224.66 102.76 224.97 C 100.66 223.52 98.49 222.19 96.26 220.94 C 96.86 220.82 97.46 220.71 98.06 220.61 C 102.42 219.94 106.31 218.27 110.83 218.43 C 114.53 218.55 118.05 217.45 121.73 217.42 C 127.31 218.14 131.94 212.22 137.30 210.78 C 142.85 209.49 147.92 207.08 153.27 205.19 Z" fill="#22213a" />
<path d="M 48.90 208.14 C 54.30 209.31 58.17 211.72 62.14 215.49 C 63.24 216.31 64.36 217.11 65.48 217.90 C 62.91 218.28 60.28 218.89 57.70 218.23 C 55.65 217.69 53.76 216.14 51.94 215.05 C 48.95 213.04 45.50 212.03 42.46 210.09 C 44.57 209.31 46.68 208.56 48.90 208.14 Z" fill="#27253d" />
<path d="M 194.97 209.05 C 200.19 215.65 206.29 221.01 215.30 220.27 L 213.58 218.65 C 215.17 218.75 216.76 218.85 218.34 219.03 C 217.47 219.75 216.59 220.44 215.70 221.12 C 212.04 221.06 207.86 224.69 204.68 222.47 C 199.03 219.62 197.19 214.55 194.97 209.05 Z" fill="#d3bfa1" />
<path d="M 115.41 210.40 C 116.00 212.43 116.50 214.47 116.99 216.53 C 115.64 216.40 114.12 216.47 112.85 215.97 C 111.51 214.84 111.58 212.22 111.30 210.60 C 112.67 210.50 114.04 210.42 115.41 210.40 Z" fill="#e3af7a" />
<path d="M 80.08 215.83 C 85.86 218.16 91.91 219.67 98.06 220.61 C 97.46 220.71 96.86 220.82 96.26 220.94 C 98.49 222.19 100.66 223.52 102.76 224.97 C 99.03 226.70 95.34 228.43 91.45 229.79 C 89.65 228.75 87.79 227.86 85.87 227.09 C 87.85 225.05 89.80 222.97 91.81 220.95 C 90.23 220.48 88.64 220.03 87.06 219.56 C 84.42 221.46 81.81 223.50 79.00 225.15 C 78.45 224.24 77.90 223.32 77.35 222.40 C 78.24 221.99 79.13 221.58 80.03 221.17 C 77.51 219.58 74.91 218.22 72.01 217.45 C 72.71 216.81 73.40 216.16 74.08 215.50 C 73.02 214.73 71.96 213.95 70.90 213.18 C 74.03 213.85 77.11 214.62 80.08 215.83 Z" fill="#b98f6f" />
<path d="M 149.14 214.91 C 149.53 215.57 149.90 216.25 150.26 216.93 C 150.16 217.93 150.04 218.93 149.89 219.93 C 147.84 219.31 145.80 218.63 143.76 217.97 C 145.55 216.95 147.35 215.94 149.14 214.91 Z" fill="#d0c4bb" />
<path d="M 137.45 217.13 C 138.46 216.06 140.12 217.12 139.38 218.46 C 138.38 219.55 136.72 218.47 137.45 217.13 Z" fill="#72748c" />
<path d="M 72.01 217.45 C 74.91 218.22 77.51 219.58 80.03 221.17 C 79.13 221.58 78.24 221.99 77.35 222.40 C 77.90 223.32 78.45 224.24 79.00 225.15 C 73.54 225.43 68.58 223.90 63.53 222.01 C 65.25 221.43 67.04 220.77 68.85 220.50 C 70.28 220.76 71.67 221.31 73.06 221.74 C 71.99 220.93 70.91 220.13 69.84 219.33 C 70.56 218.70 71.28 218.07 72.01 217.45 Z" fill="#211c30" />
<path d="M 224.05 217.52 C 227.05 217.87 230.02 218.88 232.93 219.69 C 228.14 220.28 223.99 221.96 219.52 219.32 C 220.93 218.67 222.47 217.57 224.05 217.52 Z" fill="#0d0d2c" />
<path d="M 119.97 223.04 C 117.42 225.25 114.76 227.32 111.84 229.03 C 112.13 226.20 108.91 226.67 109.32 229.24 L 107.66 228.64 C 107.75 227.12 107.95 225.62 108.12 224.10 C 112.05 223.60 116.03 223.45 119.97 223.04 Z" fill="#be9a80" />
<path d="M 82.20 227.24 C 83.42 227.17 84.65 227.12 85.87 227.09 C 87.79 227.86 89.65 228.75 91.45 229.79 C 87.81 230.82 85.16 229.06 82.20 227.24 Z" fill="#493e40" />
<path d="M 111.84 229.03 C 111.08 229.61 110.24 229.68 109.32 229.24 C 108.91 226.67 112.13 226.20 111.84 229.03 Z" fill="#5a4337" />
<path d="M 181.56 227.90 C 182.56 228.04 183.56 228.21 184.55 228.39 C 185.07 228.52 185.59 228.67 186.11 228.82 C 189.53 230.10 192.70 231.56 196.36 232.03 C 197.79 232.71 199.20 233.44 200.57 234.24 C 195.39 234.32 190.33 234.03 185.20 233.30 C 182.03 232.88 178.87 232.26 175.76 231.52 C 177.67 230.28 179.60 229.06 181.56 227.90 Z" fill="#181633" />
</svg>