<?xml version="1.0" encoding="UTF-8" standalone="no"?>
<!DOCTYPE svg PUBLIC "-//W3C//DTD SVG 1.1//EN" "http://www.w3.org/Graphics/SVG/1.1/DTD/svg11.dtd">
<svg xmlns="http://www.w3.org/2000/svg" version="1.1" viewBox="0 0 256 256" width="256.0pt" height="256.0pt">
<path d="M 0.00 0.00 L 256.00 0.00 L 256.00 256.00 L 0.00 256.00 L 0.00 0.00 Z" fill="#fffffe" />
<path d="M 52.98 12.05 C 62.43 11.01 71.98 13.12 80.25 17.74 C 84.41 20.10 87.84 23.46 91.56 26.44 C 94.57 28.91 97.80 31.00 101.03 33.15 C 102.98 32.22 104.91 31.23 106.92 30.45 C 111.98 33.97 117.55 35.19 123.47 36.54 C 130.42 38.04 137.37 38.08 144.42 38.53 C 153.58 39.61 162.41 40.07 170.85 44.16 C 175.05 46.42 179.10 48.69 182.67 51.90 C 181.69 49.22 181.33 46.57 181.17 43.73 C 182.88 45.24 184.50 46.73 186.39 48.00 L 187.41 48.42 C 187.13 49.93 186.97 51.56 186.43 53.00 C 185.77 53.67 184.48 53.47 183.60 53.64 C 186.50 57.37 188.78 61.33 191.16 65.43 C 191.66 68.58 191.71 71.62 191.03 74.76 C 189.61 76.43 188.15 78.04 186.46 79.45 C 187.32 76.82 188.83 74.62 190.45 72.43 C 190.06 71.67 189.66 70.92 189.26 70.17 C 185.22 70.37 182.89 76.02 180.49 78.71 L 180.14 77.63 C 179.72 72.67 182.58 70.12 185.29 66.50 C 181.31 67.72 176.74 69.73 174.00 72.95 C 172.22 77.13 170.70 81.21 171.93 85.80 C 171.40 85.31 170.86 84.82 170.33 84.33 C 171.14 81.61 171.36 78.89 171.25 76.06 C 167.74 79.19 167.53 82.41 168.08 86.84 C 166.49 86.16 164.92 85.45 163.34 84.76 C 163.21 87.06 163.12 89.36 163.03 91.66 L 162.52 91.07 C 161.69 90.01 160.86 88.95 160.02 87.90 C 159.99 89.91 159.95 91.90 160.02 93.91 C 158.25 94.38 156.48 94.84 154.71 95.31 C 152.34 92.18 149.58 88.93 146.33 86.70 C 143.23 84.74 139.59 83.55 136.02 82.82 C 124.83 82.31 117.70 89.82 109.61 96.20 L 108.52 96.17 C 105.42 95.65 101.87 95.33 99.00 93.99 C 97.24 93.23 96.22 91.33 95.26 89.77 C 92.85 85.48 90.59 81.34 86.98 77.90 C 87.47 76.62 87.96 75.34 88.44 74.06 C 90.40 69.65 91.68 64.80 91.98 59.98 C 91.88 54.33 91.05 48.45 89.69 42.95 C 89.15 40.47 87.65 38.74 86.19 36.76 C 85.64 35.98 85.08 35.21 84.51 34.44 C 83.50 33.05 82.49 31.68 81.40 30.36 C 76.88 25.99 69.67 20.70 63.03 21.99 C 57.92 22.69 53.08 21.74 48.03 21.18 C 50.05 23.36 52.22 25.76 54.99 26.96 C 58.13 28.39 62.09 29.05 64.73 31.26 C 66.89 33.05 68.99 34.93 71.14 36.73 C 73.66 38.78 74.68 42.01 75.79 44.94 C 76.84 49.00 77.55 53.12 78.38 57.22 C 76.44 54.75 74.42 52.35 72.75 49.68 C 71.68 47.88 70.47 46.18 69.03 44.66 C 67.91 43.49 66.75 42.36 65.52 41.30 C 62.34 37.99 59.10 36.61 54.73 35.46 C 50.99 33.95 47.67 31.95 44.16 30.09 C 44.38 32.84 44.22 35.85 45.73 38.24 C 47.50 41.13 49.34 44.05 51.43 46.72 C 53.43 49.43 56.81 50.24 59.75 51.66 C 65.56 57.09 71.08 62.81 76.99 68.14 C 77.61 69.22 78.22 70.30 78.84 71.38 L 77.59 72.09 C 74.21 68.97 70.79 65.95 67.26 63.00 C 64.01 60.04 60.53 57.62 56.22 56.50 C 48.67 51.72 44.09 45.73 35.83 42.66 C 37.46 46.76 39.07 50.57 42.23 53.77 C 45.68 57.38 49.86 59.53 54.24 61.78 C 55.53 63.25 56.75 64.78 57.94 66.33 C 55.25 65.52 52.61 64.56 49.90 63.82 C 50.60 64.56 51.30 65.28 52.02 65.99 C 49.98 65.37 47.91 64.89 45.85 64.35 C 46.71 63.94 47.56 63.51 48.41 63.09 C 44.89 61.88 41.44 60.61 37.78 59.87 C 36.17 58.72 34.62 57.50 33.04 56.32 C 33.58 59.76 34.43 63.07 35.71 66.32 C 36.74 68.83 38.27 71.94 41.01 72.92 C 44.36 74.08 47.81 74.89 51.13 76.16 C 46.48 77.48 41.90 78.47 37.05 77.77 C 32.49 77.10 28.03 76.20 23.41 76.17 C 25.00 78.16 26.51 80.02 28.90 81.07 C 33.32 83.29 37.65 82.88 42.43 83.05 C 39.26 84.22 36.00 85.07 32.78 86.10 C 29.07 87.19 26.99 91.02 24.93 94.02 C 29.03 93.20 33.06 92.10 37.12 91.12 C 35.76 92.89 34.36 95.21 32.39 96.35 C 29.52 97.69 26.05 97.98 22.95 98.50 C 24.37 98.93 25.79 99.36 27.19 99.87 C 27.67 100.57 28.15 101.28 28.63 101.98 C 27.67 103.77 26.72 105.57 25.77 107.37 C 27.34 107.19 28.90 107.02 30.46 106.85 C 28.83 109.72 27.08 112.59 27.08 116.01 C 27.32 120.84 27.54 125.43 30.53 129.45 C 36.64 137.79 46.08 144.04 54.88 149.17 C 49.29 149.53 44.22 149.06 38.84 151.01 C 34.03 152.81 29.16 154.97 26.90 159.93 C 24.11 167.40 25.35 174.90 26.70 182.49 C 29.35 193.86 34.19 206.00 42.83 214.15 C 46.11 216.75 49.19 219.87 52.85 221.90 C 54.18 222.59 55.52 223.25 56.86 223.91 C 57.78 224.44 58.83 224.70 60.02 224.68 L 60.73 224.72 C 68.23 228.07 76.04 228.04 84.04 227.14 C 89.55 226.46 94.71 224.79 99.07 221.25 C 94.08 222.58 89.23 224.30 84.17 225.37 C 88.03 223.43 92.79 221.82 95.87 218.71 C 99.67 213.97 101.92 208.88 107.19 205.19 C 108.32 204.39 110.16 204.66 111.50 204.57 C 110.61 206.84 109.74 209.10 109.12 211.45 C 111.29 209.07 112.72 206.31 114.01 203.39 C 114.71 203.53 115.40 203.68 116.10 203.82 C 119.74 205.15 123.33 206.61 127.00 207.87 C 126.13 207.02 125.25 206.18 124.36 205.34 C 126.00 204.59 127.63 203.85 129.31 203.17 C 131.38 203.31 133.54 203.56 135.60 203.34 C 140.48 202.44 144.26 199.95 148.34 197.32 C 151.49 195.38 154.58 193.40 157.38 190.97 C 150.55 189.80 144.53 191.50 137.76 192.17 C 138.90 189.22 140.21 186.46 141.80 183.73 C 146.04 182.98 149.54 180.87 153.60 179.61 C 155.97 184.79 158.66 190.16 163.49 193.49 C 166.06 195.35 168.97 194.76 171.89 196.20 C 173.51 196.85 174.78 198.06 176.54 197.76 C 180.74 197.17 184.82 195.90 189.03 195.35 C 189.78 193.64 190.68 191.88 191.16 190.07 C 189.19 185.27 185.73 181.28 183.98 176.32 C 183.58 174.69 181.74 174.48 180.43 173.80 C 181.18 173.77 181.93 173.73 182.68 173.68 L 183.28 172.16 C 187.36 171.31 191.17 171.75 195.29 171.60 C 198.86 171.52 202.37 171.01 205.91 170.79 C 207.88 171.46 210.55 171.54 212.19 172.80 C 214.69 176.93 213.55 182.98 215.54 187.42 C 217.40 190.83 222.00 193.10 225.80 192.08 C 231.02 190.59 233.98 184.72 234.55 179.68 C 235.07 176.83 233.26 175.17 232.00 172.83 C 230.43 176.57 229.58 181.98 224.78 182.77 C 221.55 183.16 218.45 179.49 216.59 177.25 C 220.55 177.87 223.88 178.90 227.47 176.39 C 228.71 173.80 228.76 170.50 229.00 167.68 C 226.91 170.12 225.50 173.13 223.26 175.42 C 221.72 177.15 218.37 176.91 217.05 175.00 C 215.02 172.38 213.57 169.28 211.91 166.43 C 211.50 165.72 211.08 165.02 210.67 164.32 C 212.52 164.01 214.46 163.78 216.23 163.16 C 218.55 161.45 219.83 158.14 221.32 155.73 C 222.79 153.01 224.63 150.29 225.58 147.34 C 225.54 145.08 223.51 142.66 223.69 140.44 C 225.01 137.93 227.04 135.89 228.14 133.18 C 229.80 128.40 231.43 123.96 228.60 119.22 C 229.87 114.65 229.49 110.21 229.04 105.55 L 229.01 104.67 C 228.91 101.63 228.58 98.60 228.19 95.57 C 228.15 93.81 228.04 92.05 227.79 90.30 C 229.43 88.67 231.53 86.97 232.56 84.86 C 232.82 83.07 231.02 81.33 230.01 80.02 C 227.70 77.46 225.73 74.71 223.84 71.84 C 224.45 69.66 225.89 66.89 225.38 64.62 C 223.80 61.88 220.37 60.22 218.32 57.77 C 215.05 53.68 212.89 47.31 208.67 44.09 C 205.69 43.06 202.14 43.30 199.03 43.60 L 198.21 43.72 C 196.37 42.17 194.46 40.49 192.39 39.26 C 184.27 34.43 175.21 31.50 165.88 30.19 C 158.08 29.14 150.80 30.43 143.04 30.62 C 137.57 30.87 132.63 31.91 127.20 30.96 C 122.10 29.96 116.93 30.55 111.81 29.52 C 113.45 29.38 115.10 29.23 116.75 29.07 C 115.79 28.24 114.84 27.40 113.88 26.56 C 114.70 25.37 115.45 23.47 116.89 22.99 C 122.82 20.85 129.31 19.97 135.59 20.40 C 142.44 20.83 149.19 19.69 156.04 19.96 C 164.13 20.27 171.53 19.84 179.24 22.85 C 187.93 26.34 196.74 27.89 205.13 31.97 C 208.82 33.79 212.43 35.91 215.81 38.26 C 220.79 41.69 224.54 47.13 227.92 52.09 C 231.70 57.62 233.62 63.63 236.46 69.61 C 237.89 72.74 239.31 75.65 239.78 79.10 C 240.32 83.33 240.03 87.74 240.02 92.00 C 239.95 102.01 239.99 112.01 240.09 122.02 C 240.16 129.85 237.15 136.50 235.54 144.59 C 234.37 149.81 233.33 154.97 234.67 160.29 C 235.80 164.63 238.93 168.27 240.52 172.61 C 242.15 177.12 242.55 182.24 240.78 186.78 C 239.00 191.35 236.20 195.68 231.41 197.48 C 224.72 199.82 217.79 198.56 211.60 195.41 C 208.99 194.35 205.42 192.12 202.57 192.73 C 197.05 196.62 193.65 204.42 189.88 209.91 C 185.09 216.76 180.21 223.58 175.27 230.32 C 171.31 235.68 165.60 239.32 159.29 241.30 C 155.06 242.61 150.49 244.03 146.03 244.06 C 139.42 244.01 133.19 239.92 128.75 235.29 C 126.28 232.78 125.98 228.66 124.31 225.63 C 122.77 223.77 120.04 222.75 117.71 222.37 C 114.22 221.86 111.30 223.73 108.48 225.49 C 103.56 228.78 98.62 231.79 93.22 234.25 C 88.39 236.50 83.17 235.85 77.96 236.15 C 72.26 236.27 66.93 237.62 61.46 235.51 C 56.95 233.72 52.49 231.77 47.99 229.95 C 43.54 228.10 41.01 224.63 37.64 221.37 C 28.92 213.32 22.85 202.11 19.01 190.99 C 15.40 182.71 15.17 173.36 16.65 164.56 C 17.65 158.77 20.61 154.15 22.80 148.84 C 24.77 143.93 23.79 139.05 21.78 134.35 C 18.45 126.71 16.64 118.62 15.87 110.34 C 14.62 99.39 14.62 87.17 18.63 76.76 C 20.10 72.34 20.88 67.72 22.14 63.22 C 23.66 57.84 23.92 52.47 26.14 47.27 C 28.86 40.73 31.31 33.90 34.78 27.73 C 37.74 22.43 42.01 18.36 46.85 14.79 C 48.72 13.45 50.66 12.34 52.98 12.05 Z" fill="#f6f6f4" />
<path d="M 48.03 21.18 C 53.08 21.74 57.92 22.69 63.03 21.99 C 69.67 20.70 76.88 25.99 81.40 30.36 C 79.52 30.27 77.64 30.19 75.76 30.14 C 78.49 32.74 80.52 34.53 84.51 34.44 C 85.08 35.21 85.64 35.98 86.19 36.76 C 87.31 42.16 89.76 47.79 89.58 53.22 C 89.56 54.88 89.44 56.52 89.37 58.19 C 85.10 53.33 81.38 48.42 75.79 44.94 C 74.68 42.01 73.66 38.78 71.14 36.73 C 68.99 34.93 66.89 33.05 64.73 31.26 C 62.09 29.05 58.13 28.39 54.99 26.96 C 52.22 25.76 50.05 23.36 48.03 21.18 Z" fill="#cf4e40" />
<path d="M 111.81 29.52 C 116.93 30.55 122.10 29.96 127.20 30.96 C 132.63 31.91 137.57 30.87 143.04 30.62 C 150.80 30.43 158.08 29.14 165.88 30.19 C 175.21 31.50 184.27 34.43 192.39 39.26 C 188.28 40.09 184.75 41.58 181.17 43.73 C 181.33 46.57 181.69 49.22 182.67 51.90 C 179.10 48.69 175.05 46.42 170.85 44.16 C 162.41 40.07 153.58 39.61 144.42 38.53 C 137.37 38.08 130.42 38.04 123.47 36.54 C 117.55 35.19 111.98 33.97 106.92 30.45 C 108.53 29.88 110.11 29.60 111.81 29.52 Z" fill="#20223e" />
<path d="M 44.16 30.09 C 47.67 31.95 50.99 33.95 54.73 35.46 C 57.39 39.37 61.24 40.20 65.52 41.30 C 66.75 42.36 67.91 43.49 69.03 44.66 C 67.81 47.36 66.84 50.16 65.91 52.98 C 63.83 52.70 61.78 52.20 59.75 51.66 C 56.81 50.24 53.43 49.43 51.43 46.72 C 49.34 44.05 47.50 41.13 45.73 38.24 C 44.22 35.85 44.38 32.84 44.16 30.09 Z" fill="#d04d3f" />
<path d="M 75.76 30.14 C 77.64 30.19 79.52 30.27 81.40 30.36 C 82.49 31.68 83.50 33.05 84.51 34.44 C 80.52 34.53 78.49 32.74 75.76 30.14 Z" fill="#883431" />
<path d="M 54.73 35.46 C 59.10 36.61 62.34 37.99 65.52 41.30 C 61.24 40.20 57.39 39.37 54.73 35.46 Z" fill="#943f3a" />
<path d="M 86.19 36.76 C 87.65 38.74 89.15 40.47 89.69 42.95 C 91.05 48.45 91.88 54.33 91.98 59.98 C 91.68 64.80 90.40 69.65 88.44 74.06 C 88.69 68.75 89.45 63.52 89.37 58.19 C 89.44 56.52 89.56 54.88 89.58 53.22 C 89.76 47.79 87.31 42.16 86.19 36.76 Z" fill="#553538" />
<path d="M 192.39 39.26 C 194.46 40.49 196.37 42.17 198.21 43.72 C 193.97 44.64 189.93 45.30 186.39 48.00 C 184.50 46.73 182.88 45.24 181.17 43.73 C 184.75 41.58 188.28 40.09 192.39 39.26 Z" fill="#d7b48b" />
<path d="M 35.83 42.66 C 44.09 45.73 48.67 51.72 56.22 56.50 C 58.53 59.33 60.96 62.00 63.93 64.14 C 60.73 63.23 57.45 62.56 54.24 61.78 C 49.86 59.53 45.68 57.38 42.23 53.77 C 39.07 50.57 37.46 46.76 35.83 42.66 Z" fill="#ce493e" />
<path d="M 208.67 44.09 C 212.89 47.31 215.05 53.68 218.32 57.77 C 220.37 60.22 223.80 61.88 225.38 64.62 C 225.89 66.89 224.45 69.66 223.84 71.84 C 223.56 72.64 223.28 73.44 223.02 74.25 C 218.20 66.39 214.84 56.98 206.97 51.54 C 210.28 57.84 215.46 62.32 218.38 68.62 C 219.67 71.40 220.91 74.24 222.09 77.08 L 221.66 78.34 C 220.06 78.56 218.47 78.71 216.86 78.86 C 216.38 87.37 214.61 94.94 215.62 103.30 C 215.75 105.14 216.22 107.34 215.64 109.12 C 214.65 111.54 212.92 113.72 211.44 115.85 C 212.19 117.04 212.93 118.22 213.68 119.40 C 212.04 119.16 210.40 118.92 208.76 118.68 C 208.30 120.29 208.79 122.63 206.71 123.07 C 203.41 124.17 200.18 125.13 197.14 126.88 C 194.51 126.12 192.47 126.60 189.92 127.45 C 189.89 126.34 189.85 125.22 189.80 124.11 C 189.86 122.54 189.24 121.26 188.47 119.95 C 184.18 122.00 180.10 122.50 177.68 127.10 C 180.91 126.60 184.06 125.77 187.22 124.96 C 188.03 131.65 186.94 138.25 183.20 143.93 C 178.87 149.36 174.82 156.28 168.89 160.05 C 168.23 159.40 167.56 158.75 166.90 158.10 C 167.10 156.31 167.28 154.52 167.40 152.72 C 167.46 151.89 167.50 151.05 167.53 150.22 C 167.83 146.88 165.82 145.35 164.03 142.90 C 162.59 141.20 162.50 138.76 162.08 136.63 C 160.63 135.66 158.83 134.76 157.76 133.36 C 156.65 131.38 156.12 129.00 155.42 126.84 C 156.03 126.30 156.64 125.76 157.26 125.23 C 158.48 126.39 159.73 127.53 161.04 128.59 C 162.45 128.50 163.87 128.34 165.28 128.19 C 165.40 123.50 164.93 119.00 163.95 114.42 C 164.91 113.51 165.86 112.59 166.81 111.66 C 167.64 110.85 168.45 110.03 169.27 109.22 C 172.89 109.33 176.42 109.22 179.90 108.11 C 181.07 108.93 182.24 109.75 183.42 110.57 C 183.21 111.90 183.00 113.24 182.78 114.57 C 182.70 115.04 182.61 115.51 182.53 115.98 C 186.34 116.97 189.66 118.37 193.69 117.69 C 196.90 117.10 200.00 117.44 203.21 117.41 C 207.71 114.52 210.57 108.96 210.38 103.61 C 209.84 101.38 209.15 99.19 208.26 97.07 C 205.03 98.96 201.60 100.43 199.38 103.52 C 195.81 101.49 193.26 98.50 190.57 95.47 C 192.17 94.70 193.46 93.85 194.75 92.62 C 193.88 92.83 193.02 93.04 192.16 93.25 L 191.81 92.43 C 192.99 92.03 194.17 91.62 195.35 91.20 C 195.96 88.83 196.59 86.46 197.19 84.09 C 195.73 86.06 194.30 88.06 192.81 90.01 C 192.50 88.04 192.25 86.06 191.96 84.10 C 195.82 80.59 199.83 77.38 204.22 74.54 C 201.98 73.97 199.75 73.37 197.54 72.68 C 196.17 74.14 194.83 75.63 193.49 77.11 C 193.39 75.10 192.90 72.60 193.74 70.71 C 194.77 68.22 196.14 65.89 197.07 63.34 C 201.01 62.79 204.33 62.77 208.26 63.66 C 208.59 62.20 208.97 60.69 209.10 59.19 C 208.30 57.54 207.05 56.01 205.90 54.58 C 204.05 56.13 202.65 57.88 201.41 59.94 C 200.24 59.31 199.07 58.70 197.85 58.18 C 196.33 57.88 194.78 57.68 193.23 57.55 C 192.03 60.06 191.27 62.63 191.16 65.43 C 188.78 61.33 186.50 57.37 183.60 53.64 C 184.48 53.47 185.77 53.67 186.43 53.00 C 186.97 51.56 187.13 49.93 187.41 48.42 C 191.37 49.06 194.91 49.71 198.32 51.97 C 200.13 48.84 199.78 47.03 199.03 43.60 C 202.14 43.30 205.69 43.06 208.67 44.09 Z" fill="#e3ab7a" />
<path d="M 198.21 43.72 L 199.03 43.60 C 199.78 47.03 200.13 48.84 198.32 51.97 C 194.91 49.71 191.37 49.06 187.41 48.42 L 186.39 48.00 C 189.93 45.30 193.97 44.64 198.21 43.72 Z" fill="#36230d" />
<path d="M 69.03 44.66 C 70.47 46.18 71.68 47.88 72.75 49.68 C 72.92 50.53 73.09 51.39 73.25 52.25 C 70.82 52.66 68.38 52.99 65.91 52.98 C 66.84 50.16 67.81 47.36 69.03 44.66 Z" fill="#d6915a" />
<path d="M 75.79 44.94 C 81.38 48.42 85.10 53.33 89.37 58.19 C 89.45 63.52 88.69 68.75 88.44 74.06 C 87.96 75.34 87.47 76.62 86.98 77.90 C 84.98 76.09 82.79 74.55 80.57 73.01 C 80.73 72.03 80.89 71.05 81.02 70.06 L 80.86 68.64 C 80.49 65.91 79.98 63.19 79.30 60.52 C 79.01 59.42 78.69 58.32 78.38 57.22 C 77.55 53.12 76.84 49.00 75.79 44.94 Z" fill="#f0dc7e" />
<path d="M 72.75 49.68 C 74.42 52.35 76.44 54.75 78.38 57.22 C 78.69 58.32 79.01 59.42 79.30 60.52 C 78.68 61.57 78.06 62.62 77.43 63.66 L 76.35 62.36 C 75.34 59.00 73.93 55.69 73.25 52.25 C 73.09 51.39 72.92 50.53 72.75 49.68 Z" fill="#140f32" />
<path d="M 65.91 52.98 C 68.38 52.99 70.82 52.66 73.25 52.25 C 73.93 55.69 75.34 59.00 76.35 62.36 C 76.57 64.29 76.74 66.22 76.99 68.14 C 71.08 62.81 65.56 57.09 59.75 51.66 C 61.78 52.20 63.83 52.70 65.91 52.98 Z" fill="#f2da7d" />
<path d="M 206.97 51.54 C 214.84 56.98 218.20 66.39 223.02 74.25 L 222.62 75.52 L 222.09 77.08 C 220.91 74.24 219.67 71.40 218.38 68.62 C 215.46 62.32 210.28 57.84 206.97 51.54 Z" fill="#755238" />
<path d="M 205.90 54.58 C 207.05 56.01 208.30 57.54 209.10 59.19 C 208.97 60.69 208.59 62.20 208.26 63.66 C 204.33 62.77 201.01 62.79 197.07 63.34 C 197.34 61.62 197.58 59.90 197.85 58.18 C 199.07 58.70 200.24 59.31 201.41 59.94 C 202.65 57.88 204.05 56.13 205.90 54.58 Z" fill="#3f2c18" />
<path d="M 33.04 56.32 C 34.62 57.50 36.17 58.72 37.78 59.87 C 40.22 62.10 42.59 63.59 45.85 64.35 C 47.91 64.89 49.98 65.37 52.02 65.99 C 52.80 66.73 53.59 67.45 54.39 68.18 C 47.68 69.83 42.17 67.61 35.71 66.32 C 34.43 63.07 33.58 59.76 33.04 56.32 Z" fill="#cd5b4a" />
<path d="M 67.26 63.00 C 66.79 63.71 66.32 64.43 65.87 65.15 C 65.22 64.81 64.58 64.47 63.93 64.14 C 60.96 62.00 58.53 59.33 56.22 56.50 C 60.53 57.62 64.01 60.04 67.26 63.00 Z" fill="#563e44" />
<path d="M 193.23 57.55 C 194.78 57.68 196.33 57.88 197.85 58.18 C 197.58 59.90 197.34 61.62 197.07 63.34 C 196.14 65.89 194.77 68.22 193.74 70.71 C 192.90 72.60 193.39 75.10 193.49 77.11 C 194.83 75.63 196.17 74.14 197.54 72.68 C 199.75 73.37 201.98 73.97 204.22 74.54 C 199.83 77.38 195.82 80.59 191.96 84.10 C 191.45 80.80 190.06 78.15 191.03 74.76 C 191.71 71.62 191.66 68.58 191.16 65.43 C 191.27 62.63 192.03 60.06 193.23 57.55 Z" fill="#f5eee2" />
<path d="M 37.78 59.87 C 41.44 60.61 44.89 61.88 48.41 63.09 C 47.56 63.51 46.71 63.94 45.85 64.35 C 42.59 63.59 40.22 62.10 37.78 59.87 Z" fill="#502b30" />
<path d="M 79.30 60.52 C 79.98 63.19 80.49 65.91 80.86 68.64 C 79.88 66.86 78.73 65.21 77.43 63.66 C 78.06 62.62 78.68 61.57 79.30 60.52 Z" fill="#a59a7b" />
<path d="M 54.24 61.78 C 57.45 62.56 60.73 63.23 63.93 64.14 C 64.58 64.47 65.22 64.81 65.87 65.15 C 68.49 66.52 70.65 68.43 72.69 70.55 C 69.38 70.92 65.87 71.83 62.54 71.55 C 60.64 70.63 59.38 67.91 57.94 66.33 C 56.75 64.78 55.53 63.25 54.24 61.78 Z" fill="#ebd984" />
<path d="M 67.26 63.00 C 70.79 65.95 74.21 68.97 77.59 72.09 L 78.84 71.38 C 79.57 70.94 80.30 70.50 81.02 70.06 C 80.89 71.05 80.73 72.03 80.57 73.01 C 82.79 74.55 84.98 76.09 86.98 77.90 C 90.59 81.34 92.85 85.48 95.26 89.77 C 96.22 91.33 97.24 93.23 99.00 93.99 C 101.87 95.33 105.42 95.65 108.52 96.17 C 104.08 97.31 100.38 97.44 95.88 96.86 C 97.92 97.88 100.08 99.06 102.31 99.57 C 104.63 99.93 107.25 99.07 109.45 98.39 L 109.31 100.34 C 107.69 101.87 106.27 102.83 103.95 102.79 C 98.27 103.32 93.75 100.81 89.31 97.64 C 87.47 95.22 85.50 92.89 83.55 90.55 C 82.54 89.35 81.47 88.10 80.26 87.09 C 79.75 86.70 79.22 86.32 78.69 85.95 C 75.50 83.70 72.03 82.14 68.03 82.37 C 60.14 82.23 52.31 86.42 46.53 91.55 C 43.15 94.64 39.27 96.84 35.60 99.56 C 38.12 97.59 40.18 95.35 41.56 92.44 C 45.81 83.89 52.44 77.11 60.65 72.30 C 58.49 70.97 56.36 69.78 54.39 68.18 C 53.59 67.45 52.80 66.73 52.02 65.99 C 51.30 65.28 50.60 64.56 49.90 63.82 C 52.61 64.56 55.25 65.52 57.94 66.33 C 59.38 67.91 60.64 70.63 62.54 71.55 C 65.87 71.83 69.38 70.92 72.69 70.55 C 70.65 68.43 68.49 66.52 65.87 65.15 C 66.32 64.43 66.79 63.71 67.26 63.00 Z" fill="#22243f" />
<path d="M 76.35 62.36 L 77.43 63.66 C 78.73 65.21 79.88 66.86 80.86 68.64 L 81.02 70.06 C 80.30 70.50 79.57 70.94 78.84 71.38 C 78.22 70.30 77.61 69.22 76.99 68.14 C 76.74 66.22 76.57 64.29 76.35 62.36 Z" fill="#676243" />
<path d="M 35.71 66.32 C 42.17 67.61 47.68 69.83 54.39 68.18 C 56.36 69.78 58.49 70.97 60.65 72.30 C 52.44 77.11 45.81 83.89 41.56 92.44 C 40.18 95.35 38.12 97.59 35.60 99.56 C 34.43 100.39 33.23 101.16 32.03 101.93 C 30.40 101.27 28.82 100.52 27.19 99.87 C 25.79 99.36 24.37 98.93 22.95 98.50 C 26.05 97.98 29.52 97.69 32.39 96.35 C 34.36 95.21 35.76 92.89 37.12 91.12 C 33.06 92.10 29.03 93.20 24.93 94.02 C 26.99 91.02 29.07 87.19 32.78 86.10 C 36.00 85.07 39.26 84.22 42.43 83.05 C 37.65 82.88 33.32 83.29 28.90 81.07 C 26.51 80.02 25.00 78.16 23.41 76.17 C 28.03 76.20 32.49 77.10 37.05 77.77 C 41.90 78.47 46.48 77.48 51.13 76.16 C 47.81 74.89 44.36 74.08 41.01 72.92 C 38.27 71.94 36.74 68.83 35.71 66.32 Z" fill="#ecda7b" />
<path d="M 185.29 66.50 C 182.58 70.12 179.72 72.67 180.14 77.63 C 178.70 81.91 175.36 83.33 171.93 85.80 C 170.70 81.21 172.22 77.13 174.00 72.95 C 176.74 69.73 181.31 67.72 185.29 66.50 Z" fill="#2c2b44" />
<path d="M 189.26 70.17 C 189.66 70.92 190.06 71.67 190.45 72.43 C 188.83 74.62 187.32 76.82 186.46 79.45 C 188.15 78.04 189.61 76.43 191.03 74.76 C 190.06 78.15 191.45 80.80 191.96 84.10 C 192.25 86.06 192.50 88.04 192.81 90.01 C 194.30 88.06 195.73 86.06 197.19 84.09 C 196.59 86.46 195.96 88.83 195.35 91.20 C 194.17 91.62 192.99 92.03 191.81 92.43 C 190.30 88.56 190.02 84.00 189.47 79.88 C 186.54 80.60 183.72 81.54 180.71 81.90 L 180.56 80.26 L 180.49 78.71 C 182.89 76.02 185.22 70.37 189.26 70.17 Z" fill="#313047" />
<path d="M 223.84 71.84 C 225.73 74.71 227.70 77.46 230.01 80.02 C 231.02 81.33 232.82 83.07 232.56 84.86 C 231.53 86.97 229.43 88.67 227.79 90.30 C 227.44 89.29 227.08 88.28 226.73 87.27 C 226.68 83.43 226.12 79.66 224.86 76.03 C 224.12 75.85 223.37 75.68 222.62 75.52 L 223.02 74.25 C 223.28 73.44 223.56 72.64 223.84 71.84 Z" fill="#ebc4a0" />
<path d="M 210.85 74.90 C 212.27 76.95 214.07 79.40 214.47 81.92 C 214.11 83.96 212.75 87.40 210.19 87.18 C 206.99 87.37 203.90 87.69 200.81 88.58 C 201.70 85.05 202.52 81.55 204.09 78.23 C 204.89 79.62 205.66 81.02 206.37 82.45 C 206.51 78.77 208.24 77.13 210.85 74.90 Z" fill="#382815" />
<path d="M 224.86 76.03 C 226.12 79.66 226.68 83.43 226.73 87.27 C 225.27 91.01 225.81 92.96 227.51 96.55 C 226.68 98.39 226.23 100.32 225.85 102.30 C 223.59 105.92 219.72 109.25 218.43 113.32 C 217.99 117.13 220.93 121.18 221.42 124.99 C 220.73 128.26 217.87 131.09 216.62 134.20 C 217.01 136.09 218.01 137.91 218.81 139.67 C 217.34 139.55 215.87 139.43 214.41 139.32 C 215.16 140.47 215.91 141.63 216.66 142.78 C 214.64 143.33 212.63 143.87 210.60 144.39 C 209.97 147.87 210.21 148.55 212.32 151.48 C 210.73 153.37 209.17 155.28 207.62 157.20 C 203.77 161.22 198.99 164.42 194.17 167.17 C 191.12 168.94 187.81 169.65 184.37 170.20 C 184.01 170.85 183.64 171.51 183.28 172.16 C 182.19 170.67 181.08 169.19 179.97 167.72 C 177.00 168.28 174.00 168.60 171.00 168.96 C 178.55 162.54 181.28 154.10 186.72 146.18 C 188.80 142.55 190.42 138.44 190.14 134.17 C 189.89 130.81 189.72 127.48 189.80 124.11 C 189.85 125.22 189.89 126.34 189.92 127.45 C 192.47 126.60 194.51 126.12 197.14 126.88 C 200.18 125.13 203.41 124.17 206.71 123.07 C 208.79 122.63 208.30 120.29 208.76 118.68 C 210.40 118.92 212.04 119.16 213.68 119.40 C 212.93 118.22 212.19 117.04 211.44 115.85 C 212.92 113.72 214.65 111.54 215.64 109.12 C 216.22 107.34 215.75 105.14 215.62 103.30 C 214.61 94.94 216.38 87.37 216.86 78.86 C 218.47 78.71 220.06 78.56 221.66 78.34 L 222.09 77.08 L 222.62 75.52 C 223.37 75.68 224.12 75.85 224.86 76.03 Z" fill="#c59a61" />
<path d="M 171.25 76.06 C 171.36 78.89 171.14 81.61 170.33 84.33 C 169.84 85.96 169.32 87.59 168.75 89.19 C 168.52 88.41 168.30 87.63 168.08 86.84 C 167.53 82.41 167.74 79.19 171.25 76.06 Z" fill="#2e2838" />
<path d="M 180.14 77.63 L 180.49 78.71 L 180.56 80.26 C 180.55 81.30 180.51 82.34 180.47 83.39 C 182.24 83.76 184.01 84.12 185.77 84.49 C 183.07 87.64 179.50 90.12 177.08 93.46 C 175.19 98.20 177.76 103.26 174.20 107.70 C 171.65 106.94 169.19 107.10 166.59 107.48 C 166.67 108.87 166.74 110.26 166.81 111.66 C 165.86 112.59 164.91 113.51 163.95 114.42 C 163.39 112.13 162.70 109.90 161.98 107.65 C 161.26 105.22 160.07 103.03 158.75 100.89 C 159.53 99.44 160.32 98.00 161.06 96.53 C 161.89 94.78 162.31 92.98 162.52 91.07 L 163.03 91.66 C 165.51 91.78 166.99 90.80 168.75 89.19 C 169.32 87.59 169.84 85.96 170.33 84.33 C 170.86 84.82 171.40 85.31 171.93 85.80 C 175.36 83.33 178.70 81.91 180.14 77.63 Z" fill="#f7f4ea" />
<path d="M 180.56 80.26 L 180.71 81.90 C 183.72 81.54 186.54 80.60 189.47 79.88 C 190.02 84.00 190.30 88.56 191.81 92.43 L 192.16 93.25 C 189.50 94.10 186.51 95.42 184.70 97.62 C 183.06 99.82 184.76 103.63 185.27 106.03 C 183.49 106.74 181.70 107.47 179.90 108.11 C 176.42 109.22 172.89 109.33 169.27 109.22 C 168.45 110.03 167.64 110.85 166.81 111.66 C 166.74 110.26 166.67 108.87 166.59 107.48 C 169.19 107.10 171.65 106.94 174.20 107.70 C 177.76 103.26 175.19 98.20 177.08 93.46 C 179.50 90.12 183.07 87.64 185.77 84.49 C 184.01 84.12 182.24 83.76 180.47 83.39 C 180.51 82.34 180.55 81.30 180.56 80.26 Z" fill="#ecd1b6" />
<path d="M 68.03 82.37 C 72.03 82.14 75.50 83.70 78.69 85.95 C 74.59 86.43 70.69 85.50 66.62 85.40 C 63.66 85.33 61.90 87.04 59.66 88.64 C 60.85 89.34 62.03 90.04 63.22 90.73 C 60.86 96.01 56.50 97.77 51.70 100.26 C 49.39 101.89 48.02 104.99 45.91 106.77 C 43.12 107.31 39.63 105.30 37.06 104.39 C 35.90 106.77 34.67 108.87 34.50 111.57 C 34.10 116.83 34.18 122.15 34.05 127.42 C 31.81 123.85 30.99 120.33 31.90 116.16 C 32.64 112.95 32.03 109.73 32.50 106.53 C 33.21 104.96 34.23 103.48 35.13 102.02 C 34.46 102.06 33.78 102.09 33.11 102.12 L 32.03 101.93 C 33.23 101.16 34.43 100.39 35.60 99.56 C 39.27 96.84 43.15 94.64 46.53 91.55 C 52.31 86.42 60.14 82.23 68.03 82.37 Z" fill="#f5f4eb" />
<path d="M 136.02 82.82 C 134.71 83.40 133.42 84.03 132.13 84.66 C 135.54 86.49 139.05 88.04 142.57 89.64 C 147.27 91.69 151.17 95.81 154.12 99.91 C 156.45 102.57 153.93 107.22 155.04 109.94 C 156.63 111.89 159.48 112.94 161.67 114.11 C 161.80 111.96 161.95 109.81 161.98 107.65 C 162.70 109.90 163.39 112.13 163.95 114.42 C 164.93 119.00 165.40 123.50 165.28 128.19 C 163.87 128.34 162.45 128.50 161.04 128.59 C 161.96 127.34 164.06 125.93 163.60 124.21 C 163.22 121.22 159.99 120.26 157.65 119.16 C 149.77 116.13 141.61 113.20 133.26 111.80 C 128.49 111.03 124.18 111.57 119.82 113.64 C 119.10 111.42 118.39 109.23 118.20 106.90 C 117.88 102.75 116.77 98.81 116.02 94.74 C 113.70 96.51 111.49 98.41 109.31 100.34 L 109.45 98.39 L 109.61 96.20 C 117.70 89.82 124.83 82.31 136.02 82.82 Z" fill="#281f11" />
<path d="M 136.02 82.82 C 139.59 83.55 143.23 84.74 146.33 86.70 C 149.58 88.93 152.34 92.18 154.71 95.31 C 156.11 97.13 157.50 98.96 158.75 100.89 C 160.07 103.03 161.26 105.22 161.98 107.65 C 161.95 109.81 161.80 111.96 161.67 114.11 C 159.48 112.94 156.63 111.89 155.04 109.94 C 153.93 107.22 156.45 102.57 154.12 99.91 C 151.17 95.81 147.27 91.69 142.57 89.64 C 139.05 88.04 135.54 86.49 132.13 84.66 C 133.42 84.03 134.71 83.40 136.02 82.82 Z" fill="#252530" />
<path d="M 78.69 85.95 C 79.22 86.32 79.75 86.70 80.26 87.09 C 77.41 87.86 74.78 89.13 72.01 90.09 C 69.33 91.03 66.04 90.67 63.22 90.73 C 62.03 90.04 60.85 89.34 59.66 88.64 C 61.90 87.04 63.66 85.33 66.62 85.40 C 70.69 85.50 74.59 86.43 78.69 85.95 Z" fill="#f0e1cb" />
<path d="M 163.34 84.76 C 164.92 85.45 166.49 86.16 168.08 86.84 C 168.30 87.63 168.52 88.41 168.75 89.19 C 166.99 90.80 165.51 91.78 163.03 91.66 C 163.12 89.36 163.21 87.06 163.34 84.76 Z" fill="#4e4c5a" />
<path d="M 80.26 87.09 C 81.47 88.10 82.54 89.35 83.55 90.55 C 83.81 93.96 85.74 96.64 86.51 99.86 C 86.13 102.71 84.32 105.47 83.18 108.10 C 83.22 106.22 83.51 103.70 82.48 102.02 C 81.33 100.13 79.67 98.50 78.18 96.88 C 78.23 98.32 78.28 99.77 78.34 101.21 L 77.73 100.54 C 76.86 99.42 76.19 97.64 74.93 96.94 C 72.12 95.98 68.51 97.42 65.72 98.08 C 65.67 99.65 65.60 101.23 65.54 102.81 C 65.55 104.79 65.19 107.22 65.98 109.07 C 67.74 111.66 70.71 112.92 73.68 113.52 C 76.09 113.90 78.51 114.19 80.93 114.52 C 81.57 112.62 82.26 110.74 82.93 108.86 C 83.22 111.56 83.70 114.25 84.11 116.94 C 85.11 117.10 86.11 117.27 87.11 117.42 L 88.08 117.54 C 84.20 118.33 80.31 119.12 76.44 119.95 C 75.49 118.74 74.71 116.51 73.05 116.24 C 70.96 117.26 69.22 119.30 67.09 120.09 C 64.71 119.80 61.74 118.59 59.97 116.95 C 58.31 114.84 59.26 110.81 57.22 108.77 C 54.76 106.05 53.16 103.63 51.70 100.26 C 56.50 97.77 60.86 96.01 63.22 90.73 C 66.04 90.67 69.33 91.03 72.01 90.09 C 74.78 89.13 77.41 87.86 80.26 87.09 Z" fill="#d97d6e" />
<path d="M 160.02 87.90 C 160.86 88.95 161.69 90.01 162.52 91.07 C 162.31 92.98 161.89 94.78 161.06 96.53 C 160.70 95.66 160.36 94.79 160.02 93.91 C 159.95 91.90 159.99 89.91 160.02 87.90 Z" fill="#727064" />
<path d="M 226.73 87.27 C 227.08 88.28 227.44 89.29 227.79 90.30 C 228.04 92.05 228.15 93.81 228.19 95.57 L 227.51 96.55 C 225.81 92.96 225.27 91.01 226.73 87.27 Z" fill="#412e2b" />
<path d="M 83.55 90.55 C 85.50 92.89 87.47 95.22 89.31 97.64 C 89.84 100.97 90.51 104.28 91.07 107.61 C 92.01 111.26 88.82 114.46 87.11 117.42 C 86.11 117.27 85.11 117.10 84.11 116.94 C 83.70 114.25 83.22 111.56 82.93 108.86 L 83.18 108.10 C 84.32 105.47 86.13 102.71 86.51 99.86 C 85.74 96.64 83.81 93.96 83.55 90.55 Z" fill="#eedfc6" />
<path d="M 192.16 93.25 C 193.02 93.04 193.88 92.83 194.75 92.62 C 193.46 93.85 192.17 94.70 190.57 95.47 C 193.26 98.50 195.81 101.49 199.38 103.52 C 197.81 105.72 196.51 107.02 193.92 107.95 C 189.73 109.56 186.44 112.10 182.78 114.57 C 183.00 113.24 183.21 111.90 183.42 110.57 C 182.24 109.75 181.07 108.93 179.90 108.11 C 181.70 107.47 183.49 106.74 185.27 106.03 C 184.76 103.63 183.06 99.82 184.70 97.62 C 186.51 95.42 189.50 94.10 192.16 93.25 Z" fill="#e8bd95" />
<path d="M 160.02 93.91 C 160.36 94.79 160.70 95.66 161.06 96.53 C 160.32 98.00 159.53 99.44 158.75 100.89 C 157.50 98.96 156.11 97.13 154.71 95.31 C 156.48 94.84 158.25 94.38 160.02 93.91 Z" fill="#ec9d92" />
<path d="M 116.02 94.74 C 116.77 98.81 117.88 102.75 118.20 106.90 C 118.39 109.23 119.10 111.42 119.82 113.64 C 116.64 115.45 113.92 118.00 110.71 119.72 C 108.47 119.75 106.16 118.58 103.98 118.05 C 99.09 116.43 93.22 117.42 88.08 117.54 L 87.11 117.42 C 88.82 114.46 92.01 111.26 91.07 107.61 C 90.51 104.28 89.84 100.97 89.31 97.64 C 93.75 100.81 98.27 103.32 103.95 102.79 C 106.27 102.83 107.69 101.87 109.31 100.34 C 111.49 98.41 113.70 96.51 116.02 94.74 Z" fill="#e8b056" />
<path d="M 74.93 96.94 C 76.19 97.64 76.86 99.42 77.73 100.54 C 75.59 99.79 73.44 99.03 71.25 98.46 C 69.28 99.81 67.42 101.34 65.54 102.81 C 65.60 101.23 65.67 99.65 65.72 98.08 C 68.51 97.42 72.12 95.98 74.93 96.94 Z" fill="#bdb6a0" />
<path d="M 95.88 96.86 C 100.38 97.44 104.08 97.31 108.52 96.17 L 109.61 96.20 L 109.45 98.39 C 107.25 99.07 104.63 99.93 102.31 99.57 C 100.08 99.06 97.92 97.88 95.88 96.86 Z" fill="#4e4d62" />
<path d="M 227.51 96.55 L 228.19 95.57 C 228.58 98.60 228.91 101.63 229.01 104.67 C 227.91 104.94 226.80 105.21 225.69 105.47 C 225.73 104.41 225.79 103.35 225.85 102.30 C 226.23 100.32 226.68 98.39 227.51 96.55 Z" fill="#ddcfbf" />
<path d="M 78.18 96.88 C 79.67 98.50 81.33 100.13 82.48 102.02 C 83.51 103.70 83.22 106.22 83.18 108.10 L 82.93 108.86 C 82.26 110.74 81.57 112.62 80.93 114.52 C 78.51 114.19 76.09 113.90 73.68 113.52 C 75.26 111.80 77.34 110.07 78.30 107.92 C 78.58 105.72 78.40 103.43 78.34 101.21 C 78.28 99.77 78.23 98.32 78.18 96.88 Z" fill="#cb4c3e" />
<path d="M 208.26 97.07 C 209.15 99.19 209.84 101.38 210.38 103.61 C 208.61 103.20 206.81 102.76 205.03 102.49 C 203.15 103.97 201.41 105.94 199.28 107.02 C 197.57 107.57 195.69 107.68 193.92 107.95 C 196.51 107.02 197.81 105.72 199.38 103.52 C 201.60 100.43 205.03 98.96 208.26 97.07 Z" fill="#715336" />
<path d="M 71.25 98.46 C 73.44 99.03 75.59 99.79 77.73 100.54 L 78.34 101.21 C 78.40 103.43 78.58 105.72 78.30 107.92 C 77.34 110.07 75.26 111.80 73.68 113.52 C 70.71 112.92 67.74 111.66 65.98 109.07 C 65.19 107.22 65.55 104.79 65.54 102.81 C 67.42 101.34 69.28 99.81 71.25 98.46 Z" fill="#a7f9e9" />
<path d="M 27.19 99.87 C 28.82 100.52 30.40 101.27 32.03 101.93 L 33.11 102.12 C 32.25 103.71 31.36 105.29 30.46 106.85 C 28.90 107.02 27.34 107.19 25.77 107.37 C 26.72 105.57 27.67 103.77 28.63 101.98 C 28.15 101.28 27.67 100.57 27.19 99.87 Z" fill="#e4ddbb" />
<path d="M 51.70 100.26 C 53.16 103.63 54.76 106.05 57.22 108.77 C 59.26 110.81 58.31 114.84 59.97 116.95 C 61.74 118.59 64.71 119.80 67.09 120.09 C 69.22 119.30 70.96 117.26 73.05 116.24 C 74.71 116.51 75.49 118.74 76.44 119.95 C 70.08 121.81 62.19 123.44 57.75 128.66 C 64.76 125.52 71.45 122.59 79.33 122.82 C 77.51 124.74 75.58 126.68 74.13 128.90 C 72.93 130.79 72.85 133.08 72.58 135.24 C 66.45 135.76 59.97 135.72 53.98 134.16 C 50.57 132.98 46.51 131.41 46.61 127.10 C 47.96 123.67 52.15 121.54 54.81 119.16 C 48.64 119.17 42.41 121.86 41.60 128.67 C 41.73 130.07 41.95 131.45 42.17 132.85 C 40.60 132.53 39.02 132.21 37.45 131.91 C 36.26 130.46 35.12 128.97 34.05 127.42 C 34.18 122.15 34.10 116.83 34.50 111.57 C 34.67 108.87 35.90 106.77 37.06 104.39 C 39.63 105.30 43.12 107.31 45.91 106.77 C 48.02 104.99 49.39 101.89 51.70 100.26 Z" fill="#ecdfc6" />
<path d="M 35.13 102.02 C 34.23 103.48 33.21 104.96 32.50 106.53 C 32.03 109.73 32.64 112.95 31.90 116.16 C 30.99 120.33 31.81 123.85 34.05 127.42 C 35.12 128.97 36.26 130.46 37.45 131.91 C 42.90 138.57 52.22 142.40 59.78 146.19 C 66.43 148.56 73.06 151.38 79.97 152.86 C 88.42 154.75 96.01 158.85 102.63 164.36 C 106.23 167.49 108.60 171.37 110.72 175.58 C 112.31 179.05 112.95 182.70 113.48 186.45 C 115.96 184.39 118.07 182.82 118.47 179.36 C 118.88 176.78 118.96 174.17 118.77 171.56 C 117.37 168.41 116.13 165.30 115.38 161.92 C 116.83 159.18 118.45 156.60 120.45 154.24 C 122.56 152.97 124.71 151.81 126.94 150.78 C 124.15 153.22 121.99 155.58 120.28 158.90 C 121.38 159.25 122.48 159.61 123.58 159.97 C 124.31 164.76 127.02 167.13 130.31 170.27 C 132.79 172.71 134.70 175.33 134.38 179.00 C 134.03 182.50 133.00 186.92 129.26 188.25 C 126.43 189.09 123.40 188.30 120.53 189.27 C 118.51 189.77 116.54 190.61 114.56 191.26 C 112.78 191.49 111.01 191.60 109.23 191.73 C 106.21 191.85 103.17 191.60 100.17 191.85 C 97.91 192.88 96.02 194.62 93.76 195.69 C 90.11 197.41 87.48 200.46 83.86 202.14 C 80.55 202.81 76.82 201.63 73.50 202.41 C 71.95 203.13 70.47 204.01 68.96 204.82 C 65.80 203.37 61.55 202.40 60.44 198.60 C 60.00 194.82 62.44 191.63 66.18 190.89 C 69.73 189.67 71.52 192.31 74.18 194.05 C 77.04 192.75 82.76 192.73 83.88 189.40 C 83.71 187.71 84.06 185.38 83.07 183.94 C 81.55 182.40 79.59 181.17 77.64 180.26 C 74.73 179.74 71.51 181.10 68.56 180.46 C 66.31 178.95 63.77 176.66 62.90 174.03 C 63.75 172.06 65.21 170.29 66.95 169.04 C 70.57 166.88 75.65 167.62 78.92 170.09 C 81.21 172.29 80.54 174.61 80.54 177.43 C 82.88 178.88 85.19 180.20 87.87 180.96 C 91.73 182.04 93.37 186.31 97.50 187.28 C 102.11 188.33 107.60 187.02 112.21 186.23 C 110.90 178.52 106.22 171.63 100.83 166.13 C 95.40 160.54 86.94 157.95 79.51 156.34 C 73.00 154.65 66.73 153.79 60.41 151.53 C 57.74 150.70 55.04 149.49 52.22 149.94 C 47.01 150.60 40.78 150.56 36.00 152.80 C 31.51 155.28 27.26 159.60 26.92 164.99 C 26.26 172.86 27.19 180.99 29.22 188.61 C 31.32 193.74 33.14 199.22 36.23 203.74 C 40.73 211.01 47.02 216.63 53.99 221.48 L 52.85 221.90 C 49.19 219.87 46.11 216.75 42.83 214.15 C 34.19 206.00 29.35 193.86 26.70 182.49 C 25.35 174.90 24.11 167.40 26.90 159.93 C 29.16 154.97 34.03 152.81 38.84 151.01 C 44.22 149.06 49.29 149.53 54.88 149.17 C 46.08 144.04 36.64 137.79 30.53 129.45 C 27.54 125.43 27.32 120.84 27.08 116.01 C 27.08 112.59 28.83 109.72 30.46 106.85 C 31.36 105.29 32.25 103.71 33.11 102.12 C 33.78 102.09 34.46 102.06 35.13 102.02 Z" fill="#21213d" />
<path d="M 205.03 102.49 C 206.81 102.76 208.61 103.20 210.38 103.61 C 210.57 108.96 207.71 114.52 203.21 117.41 C 200.00 117.44 196.90 117.10 193.69 117.69 C 189.66 118.37 186.34 116.97 182.53 115.98 C 182.61 115.51 182.70 115.04 182.78 114.57 C 186.44 112.10 189.73 109.56 193.92 107.95 C 195.69 107.68 197.57 107.57 199.28 107.02 C 201.41 105.94 203.15 103.97 205.03 102.49 Z" fill="#342614" />
<path d="M 225.85 102.30 C 225.79 103.35 225.73 104.41 225.69 105.47 C 226.80 105.21 227.91 104.94 229.01 104.67 L 229.04 105.55 C 226.83 110.50 227.02 115.54 225.83 120.75 C 224.65 125.90 224.52 130.59 222.58 135.49 C 220.18 141.47 216.50 146.62 212.32 151.48 C 210.21 148.55 209.97 147.87 210.60 144.39 C 212.63 143.87 214.64 143.33 216.66 142.78 C 215.91 141.63 215.16 140.47 214.41 139.32 C 215.87 139.43 217.34 139.55 218.81 139.67 C 218.01 137.91 217.01 136.09 216.62 134.20 C 217.87 131.09 220.73 128.26 221.42 124.99 C 220.93 121.18 217.99 117.13 218.43 113.32 C 219.72 109.25 223.59 105.92 225.85 102.30 Z" fill="#e2b284" />
<path d="M 71.01 102.49 C 72.26 102.48 73.51 102.69 74.77 103.12 C 74.77 105.00 74.66 106.88 74.59 108.75 C 72.87 108.50 70.40 109.22 69.45 107.43 C 67.60 105.78 69.63 103.65 71.01 102.49 Z" fill="#0f162c" />
<path d="M 229.04 105.55 C 229.49 110.21 229.87 114.65 228.60 119.22 C 225.87 127.05 224.28 136.06 220.18 143.18 C 217.14 148.63 212.07 152.81 207.62 157.20 C 209.17 155.28 210.73 153.37 212.32 151.48 C 216.50 146.62 220.18 141.47 222.58 135.49 C 224.52 130.59 224.65 125.90 225.83 120.75 C 227.02 115.54 226.83 110.50 229.04 105.55 Z" fill="#120416" />
<path d="M 133.26 111.80 C 141.61 113.20 149.77 116.13 157.65 119.16 C 159.99 120.26 163.22 121.22 163.60 124.21 C 164.06 125.93 161.96 127.34 161.04 128.59 C 159.73 127.53 158.48 126.39 157.26 125.23 C 156.41 124.41 155.55 123.59 154.67 122.81 C 153.87 123.75 153.12 124.71 152.41 125.72 C 151.19 123.56 150.19 120.10 147.65 119.24 C 140.97 116.31 132.39 117.13 125.41 118.43 C 122.57 118.99 121.32 119.76 119.75 122.17 C 115.99 122.46 113.44 125.20 109.94 125.96 C 105.69 125.98 101.54 123.51 97.25 123.12 C 91.31 122.71 85.29 122.91 79.33 122.82 C 71.45 122.59 64.76 125.52 57.75 128.66 C 62.19 123.44 70.08 121.81 76.44 119.95 C 80.31 119.12 84.20 118.33 88.08 117.54 C 93.22 117.42 99.09 116.43 103.98 118.05 C 106.16 118.58 108.47 119.75 110.71 119.72 C 113.92 118.00 116.64 115.45 119.82 113.64 C 124.18 111.57 128.49 111.03 133.26 111.80 Z" fill="#212138" />
<path d="M 147.65 119.24 C 150.19 120.10 151.19 123.56 152.41 125.72 C 149.51 130.55 145.73 134.29 141.09 137.45 C 135.01 140.63 128.56 141.40 121.81 140.45 C 122.57 139.99 123.32 139.52 124.08 139.06 C 122.32 137.91 120.58 136.76 118.74 135.76 C 119.83 131.25 119.67 126.76 119.75 122.17 C 121.32 119.76 122.57 118.99 125.41 118.43 C 132.39 117.13 140.97 116.31 147.65 119.24 Z" fill="#271f0f" />
<path d="M 54.81 119.16 C 52.15 121.54 47.96 123.67 46.61 127.10 C 46.51 131.41 50.57 132.98 53.98 134.16 C 59.97 135.72 66.45 135.76 72.58 135.24 C 76.34 134.39 79.96 133.17 83.46 131.56 C 90.65 128.15 99.24 127.69 106.93 129.38 C 110.92 131.41 114.69 133.83 118.74 135.76 C 120.58 136.76 122.32 137.91 124.08 139.06 C 123.32 139.52 122.57 139.99 121.81 140.45 C 118.83 139.53 116.05 138.17 113.37 136.60 C 109.34 134.19 104.60 131.10 99.88 130.53 C 97.21 130.87 94.61 132.30 91.99 132.99 C 95.09 135.29 98.15 137.64 101.26 139.93 C 95.45 140.98 92.01 137.60 87.32 135.03 C 86.38 135.72 85.47 136.45 84.54 137.15 C 80.01 139.29 75.25 140.81 70.72 142.93 C 67.82 140.88 63.60 140.97 60.21 139.79 C 53.33 137.54 45.97 134.79 41.60 128.67 C 42.41 121.86 48.64 119.17 54.81 119.16 Z" fill="#1f1e39" />
<path d="M 188.47 119.95 C 189.24 121.26 189.86 122.54 189.80 124.11 C 189.72 127.48 189.89 130.81 190.14 134.17 C 190.42 138.44 188.80 142.55 186.72 146.18 C 185.55 145.42 184.39 144.66 183.20 143.93 C 186.94 138.25 188.03 131.65 187.22 124.96 C 184.06 125.77 180.91 126.60 177.68 127.10 C 180.10 122.50 184.18 122.00 188.47 119.95 Z" fill="#45383b" />
<path d="M 228.60 119.22 C 231.43 123.96 229.80 128.40 228.14 133.18 C 227.04 135.89 225.01 137.93 223.69 140.44 C 223.51 142.66 225.54 145.08 225.58 147.34 C 224.63 150.29 222.79 153.01 221.32 155.73 C 218.69 155.81 216.29 155.03 214.35 157.29 C 210.19 161.92 205.15 165.13 200.07 168.63 C 199.41 168.77 198.74 168.90 198.08 169.03 C 200.72 169.51 203.33 170.07 205.91 170.79 C 202.37 171.01 198.86 171.52 195.29 171.60 C 191.17 171.75 187.36 171.31 183.28 172.16 C 183.64 171.51 184.01 170.85 184.37 170.20 C 187.81 169.65 191.12 168.94 194.17 167.17 C 198.99 164.42 203.77 161.22 207.62 157.20 C 212.07 152.81 217.14 148.63 220.18 143.18 C 224.28 136.06 225.87 127.05 228.60 119.22 Z" fill="#e3ad7c" />
<path d="M 119.75 122.17 C 119.67 126.76 119.83 131.25 118.74 135.76 C 114.69 133.83 110.92 131.41 106.93 129.38 C 107.25 128.55 107.56 127.71 107.88 126.88 C 101.49 126.56 94.53 128.10 88.46 126.30 C 91.30 124.99 94.20 123.85 97.25 123.12 C 101.54 123.51 105.69 125.98 109.94 125.96 C 113.44 125.20 115.99 122.46 119.75 122.17 Z" fill="#e7b157" />
<path d="M 79.33 122.82 C 85.29 122.91 91.31 122.71 97.25 123.12 C 94.20 123.85 91.30 124.99 88.46 126.30 C 94.53 128.10 101.49 126.56 107.88 126.88 C 107.56 127.71 107.25 128.55 106.93 129.38 C 99.24 127.69 90.65 128.15 83.46 131.56 C 79.96 133.17 76.34 134.39 72.58 135.24 C 72.85 133.08 72.93 130.79 74.13 128.90 C 75.58 126.68 77.51 124.74 79.33 122.82 Z" fill="#e9b686" />
<path d="M 154.67 122.81 C 155.55 123.59 156.41 124.41 157.26 125.23 C 156.64 125.76 156.03 126.30 155.42 126.84 C 153.91 128.23 152.50 129.75 151.10 131.25 C 153.12 132.33 155.14 133.41 157.15 134.51 C 155.05 134.45 152.96 134.38 150.87 134.30 C 150.55 136.58 150.40 139.17 149.43 141.27 C 148.14 142.57 146.45 143.51 144.91 144.48 C 147.26 147.41 148.54 150.81 149.72 154.33 C 150.25 152.90 150.78 151.46 151.31 150.03 C 153.11 150.65 154.93 151.16 156.67 151.94 C 154.27 153.40 152.22 155.14 150.00 156.87 C 154.10 157.33 158.04 156.19 162.18 156.27 C 164.25 156.46 165.96 153.93 167.40 152.72 C 167.28 154.52 167.10 156.31 166.90 158.10 C 167.56 158.75 168.23 159.40 168.89 160.05 C 165.47 161.86 161.98 163.21 158.25 164.25 C 155.79 164.90 153.98 166.44 152.36 168.32 C 151.30 167.40 150.25 166.47 149.17 165.59 C 148.88 166.04 148.59 166.49 148.30 166.95 C 148.28 164.02 149.44 160.42 145.42 159.82 C 144.42 159.55 143.42 159.30 142.41 159.09 C 141.94 156.41 141.17 153.82 140.28 151.25 C 138.89 146.39 140.23 142.24 141.09 137.45 C 145.73 134.29 149.51 130.55 152.41 125.72 C 153.12 124.71 153.87 123.75 154.67 122.81 Z" fill="#ebc39e" />
<path d="M 155.42 126.84 C 156.12 129.00 156.65 131.38 157.76 133.36 C 158.83 134.76 160.63 135.66 162.08 136.63 C 162.50 138.76 162.59 141.20 164.03 142.90 C 165.82 145.35 167.83 146.88 167.53 150.22 C 166.37 149.54 165.21 148.85 164.03 148.21 C 161.60 149.49 159.18 150.80 156.67 151.94 C 154.93 151.16 153.11 150.65 151.31 150.03 C 150.78 151.46 150.25 152.90 149.72 154.33 C 148.54 150.81 147.26 147.41 144.91 144.48 C 146.45 143.51 148.14 142.57 149.43 141.27 C 150.40 139.17 150.55 136.58 150.87 134.30 C 152.96 134.38 155.05 134.45 157.15 134.51 C 155.14 133.41 153.12 132.33 151.10 131.25 C 152.50 129.75 153.91 128.23 155.42 126.84 Z" fill="#e6b488" />
<path d="M 41.60 128.67 C 45.97 134.79 53.33 137.54 60.21 139.79 C 63.60 140.97 67.82 140.88 70.72 142.93 C 72.88 144.52 75.10 145.95 77.52 147.13 C 77.96 148.26 78.39 149.40 78.81 150.53 C 80.86 151.33 82.90 152.14 84.92 152.99 C 83.27 152.96 81.62 152.94 79.97 152.86 C 73.06 151.38 66.43 148.56 59.78 146.19 C 52.22 142.40 42.90 138.57 37.45 131.91 C 39.02 132.21 40.60 132.53 42.17 132.85 C 41.95 131.45 41.73 130.07 41.60 128.67 Z" fill="#eeecd8" />
<path d="M 139.23 129.23 C 141.01 128.03 142.15 130.83 140.05 131.23 C 138.91 130.92 138.64 130.26 139.23 129.23 Z" fill="#837059" />
<path d="M 99.88 130.53 C 104.60 131.10 109.34 134.19 113.37 136.60 C 111.31 137.72 109.31 138.97 107.31 140.19 C 107.24 141.46 107.17 142.74 107.09 144.01 C 105.20 142.57 103.18 141.33 101.26 139.93 C 98.15 137.64 95.09 135.29 91.99 132.99 C 94.61 132.30 97.21 130.87 99.88 130.53 Z" fill="#f2f2f2" />
<path d="M 134.13 133.19 C 137.11 133.48 134.92 136.44 132.92 135.81 C 131.16 134.95 132.74 133.21 134.13 133.19 Z" fill="#6a5839" />
<path d="M 87.32 135.03 C 92.01 137.60 95.45 140.98 101.26 139.93 C 103.18 141.33 105.20 142.57 107.09 144.01 C 108.71 145.34 110.17 146.80 111.64 148.29 C 114.22 147.06 116.98 145.59 119.80 145.05 C 121.51 145.78 123.01 147.18 123.74 148.90 C 122.85 150.79 121.65 152.54 120.45 154.24 C 118.45 156.60 116.83 159.18 115.38 161.92 C 114.07 164.50 112.18 167.08 111.50 169.90 C 112.32 171.29 113.36 172.57 114.34 173.86 C 115.82 173.09 117.28 172.30 118.77 171.56 C 118.96 174.17 118.88 176.78 118.47 179.36 C 115.91 178.04 113.36 176.73 110.72 175.58 C 108.60 171.37 106.23 167.49 102.63 164.36 C 96.01 158.85 88.42 154.75 79.97 152.86 C 81.62 152.94 83.27 152.96 84.92 152.99 C 82.90 152.14 80.86 151.33 78.81 150.53 C 78.39 149.40 77.96 148.26 77.52 147.13 C 81.00 145.02 84.06 144.03 88.09 143.44 C 88.28 141.98 88.45 140.52 88.63 139.06 C 87.27 138.41 85.91 137.77 84.54 137.15 C 85.47 136.45 86.38 135.72 87.32 135.03 Z" fill="#e6b88b" />
<path d="M 178.98 136.16 C 180.05 137.02 181.09 137.93 182.13 138.83 C 181.41 140.02 180.70 141.21 179.98 142.40 C 176.01 142.10 172.28 142.84 168.44 143.76 C 169.48 142.25 170.45 139.97 172.23 139.26 C 174.46 138.21 176.72 137.17 178.98 136.16 Z" fill="#402e18" />
<path d="M 113.37 136.60 C 116.05 138.17 118.83 139.53 121.81 140.45 C 128.56 141.40 135.01 140.63 141.09 137.45 C 140.23 142.24 138.89 146.39 140.28 151.25 C 138.46 153.56 137.49 156.05 136.76 158.88 C 134.15 163.05 130.10 164.82 130.31 170.27 C 127.02 167.13 124.31 164.76 123.58 159.97 C 122.48 159.61 121.38 159.25 120.28 158.90 C 121.99 155.58 124.15 153.22 126.94 150.78 C 124.71 151.81 122.56 152.97 120.45 154.24 C 121.65 152.54 122.85 150.79 123.74 148.90 C 123.01 147.18 121.51 145.78 119.80 145.05 C 116.98 145.59 114.22 147.06 111.64 148.29 C 110.17 146.80 108.71 145.34 107.09 144.01 C 107.17 142.74 107.24 141.46 107.31 140.19 C 109.31 138.97 111.31 137.72 113.37 136.60 Z" fill="#f5f4ea" />
<path d="M 84.54 137.15 C 85.91 137.77 87.27 138.41 88.63 139.06 C 88.45 140.52 88.28 141.98 88.09 143.44 C 84.06 144.03 81.00 145.02 77.52 147.13 C 75.10 145.95 72.88 144.52 70.72 142.93 C 75.25 140.81 80.01 139.29 84.54 137.15 Z" fill="#3c2c1a" />
<path d="M 92.36 143.62 C 95.15 144.42 97.78 145.59 100.41 146.82 C 100.44 147.87 100.47 148.91 100.49 149.96 C 97.24 151.34 94.28 153.58 90.96 154.71 C 89.16 154.43 87.37 153.73 85.63 153.16 C 87.67 149.84 89.95 146.67 92.36 143.62 Z" fill="#402e16" />
<path d="M 183.20 143.93 C 184.39 144.66 185.55 145.42 186.72 146.18 C 181.28 154.10 178.55 162.54 171.00 168.96 C 174.00 168.60 177.00 168.28 179.97 167.72 C 181.08 169.19 182.19 170.67 183.28 172.16 L 182.68 173.68 C 181.93 173.73 181.18 173.77 180.43 173.80 C 181.74 174.48 183.58 174.69 183.98 176.32 C 185.73 181.28 189.19 185.27 191.16 190.07 C 190.68 191.88 189.78 193.64 189.03 195.35 C 184.82 195.90 180.74 197.17 176.54 197.76 C 174.78 198.06 173.51 196.85 171.89 196.20 C 168.97 194.76 166.06 195.35 163.49 193.49 C 158.66 190.16 155.97 184.79 153.60 179.61 C 152.49 176.37 151.84 172.95 151.30 169.58 L 152.36 168.32 C 153.98 166.44 155.79 164.90 158.25 164.25 C 161.98 163.21 165.47 161.86 168.89 160.05 C 174.82 156.28 178.87 149.36 183.20 143.93 Z" fill="#20233f" />
<path d="M 164.03 148.21 C 165.21 148.85 166.37 149.54 167.53 150.22 C 167.50 151.05 167.46 151.89 167.40 152.72 C 165.96 153.93 164.25 156.46 162.18 156.27 C 158.04 156.19 154.10 157.33 150.00 156.87 C 152.22 155.14 154.27 153.40 156.67 151.94 C 159.18 150.80 161.60 149.49 164.03 148.21 Z" fill="#332310" />
<path d="M 52.22 149.94 C 55.04 149.49 57.74 150.70 60.41 151.53 C 66.73 153.79 73.00 154.65 79.51 156.34 C 86.94 157.95 95.40 160.54 100.83 166.13 C 106.22 171.63 110.90 178.52 112.21 186.23 C 107.60 187.02 102.11 188.33 97.50 187.28 C 93.37 186.31 91.73 182.04 87.87 180.96 C 85.19 180.20 82.88 178.88 80.54 177.43 C 80.54 174.61 81.21 172.29 78.92 170.09 C 75.65 167.62 70.57 166.88 66.95 169.04 C 65.21 170.29 63.75 172.06 62.90 174.03 C 63.77 176.66 66.31 178.95 68.56 180.46 C 71.51 181.10 74.73 179.74 77.64 180.26 C 79.59 181.17 81.55 182.40 83.07 183.94 C 84.06 185.38 83.71 187.71 83.88 189.40 C 82.27 188.49 80.45 187.64 79.10 186.37 C 78.38 185.18 78.16 183.41 77.19 182.45 C 74.34 181.72 70.77 182.87 67.89 183.39 C 67.15 182.58 66.42 181.77 65.69 180.96 C 64.49 181.76 63.29 182.55 62.06 183.31 C 59.40 178.63 56.34 174.22 53.16 169.88 C 53.00 172.05 53.08 174.42 52.47 176.51 C 51.17 177.88 49.03 178.57 47.24 177.80 C 44.19 176.57 41.24 175.34 37.98 174.81 C 37.81 178.00 37.84 181.35 37.16 184.48 C 36.52 187.44 34.95 190.10 34.16 192.99 C 34.60 194.21 35.91 195.57 37.25 195.60 C 40.50 195.72 43.76 195.19 47.02 195.12 C 46.87 198.98 46.04 199.76 43.11 201.98 C 44.74 201.76 46.38 201.56 48.02 201.36 C 47.16 204.08 46.31 206.81 45.45 209.54 C 47.92 210.38 50.38 211.24 52.84 212.11 C 52.38 213.39 51.52 214.86 51.63 216.24 C 52.44 218.03 54.42 219.35 55.81 220.70 C 55.20 220.96 54.60 221.23 53.99 221.48 C 47.02 216.63 40.73 211.01 36.23 203.74 C 33.14 199.22 31.32 193.74 29.22 188.61 C 27.19 180.99 26.26 172.86 26.92 164.99 C 27.26 159.60 31.51 155.28 36.00 152.80 C 40.78 150.56 47.01 150.60 52.22 149.94 Z" fill="#f4f4ed" />
<path d="M 107.97 149.92 C 111.62 151.18 115.03 152.67 114.68 157.20 C 112.02 159.39 109.04 161.12 106.48 163.47 C 104.99 162.28 103.46 161.12 101.94 159.97 C 103.79 156.53 105.86 153.20 107.97 149.92 Z" fill="#403217" />
<path d="M 140.28 151.25 C 141.17 153.82 141.94 156.41 142.41 159.09 L 142.01 159.85 C 140.42 161.29 138.72 162.64 137.06 163.98 C 136.94 162.28 136.83 160.58 136.76 158.88 C 137.49 156.05 138.46 153.56 140.28 151.25 Z" fill="#ca4836" />
<path d="M 221.32 155.73 C 219.83 158.14 218.55 161.45 216.23 163.16 C 214.46 163.78 212.52 164.01 210.67 164.32 C 211.08 165.02 211.50 165.72 211.91 166.43 C 207.95 167.13 204.06 168.12 200.07 168.63 C 205.15 165.13 210.19 161.92 214.35 157.29 C 216.29 155.03 218.69 155.81 221.32 155.73 Z" fill="#e9c7a6" />
<path d="M 136.76 158.88 C 136.83 160.58 136.94 162.28 137.06 163.98 C 138.72 162.64 140.42 161.29 142.01 159.85 C 140.17 163.89 137.54 167.19 136.58 171.60 C 135.94 172.59 135.31 173.59 134.68 174.58 C 137.36 174.51 140.03 174.38 142.71 174.28 C 143.23 174.99 143.76 175.70 144.29 176.40 C 141.66 179.21 138.75 181.71 135.82 184.20 C 137.82 184.07 139.82 183.94 141.80 183.73 C 140.21 186.46 138.90 189.22 137.76 192.17 C 134.62 192.57 131.29 193.02 128.13 192.77 C 125.38 192.61 122.85 190.60 120.53 189.27 C 123.40 188.30 126.43 189.09 129.26 188.25 C 133.00 186.92 134.03 182.50 134.38 179.00 C 134.70 175.33 132.79 172.71 130.31 170.27 C 130.10 164.82 134.15 163.05 136.76 158.88 Z" fill="#f3dd87" />
<path d="M 142.41 159.09 C 143.42 159.30 144.42 159.55 145.42 159.82 C 144.94 160.81 144.46 161.81 143.99 162.82 C 142.22 166.95 140.55 169.31 136.58 171.60 C 137.54 167.19 140.17 163.89 142.01 159.85 L 142.41 159.09 Z" fill="#faddbd" />
<path d="M 145.42 159.82 C 149.44 160.42 148.28 164.02 148.30 166.95 C 147.66 168.01 146.98 169.06 146.26 170.08 C 145.54 167.65 144.81 165.22 143.99 162.82 C 144.46 161.81 144.94 160.81 145.42 159.82 Z" fill="#d26a52" />
<path d="M 115.38 161.92 C 116.13 165.30 117.37 168.41 118.77 171.56 C 117.28 172.30 115.82 173.09 114.34 173.86 C 113.36 172.57 112.32 171.29 111.50 169.90 C 112.18 167.08 114.07 164.50 115.38 161.92 Z" fill="#554032" />
<path d="M 143.99 162.82 C 144.81 165.22 145.54 167.65 146.26 170.08 C 145.13 171.52 143.91 172.89 142.71 174.28 C 140.03 174.38 137.36 174.51 134.68 174.58 C 135.31 173.59 135.94 172.59 136.58 171.60 C 140.55 169.31 142.22 166.95 143.99 162.82 Z" fill="#c64438" />
<path d="M 149.17 165.59 C 150.25 166.47 151.30 167.40 152.36 168.32 L 151.30 169.58 C 148.98 171.88 146.55 174.04 144.29 176.40 C 143.76 175.70 143.23 174.99 142.71 174.28 C 143.91 172.89 145.13 171.52 146.26 170.08 C 146.98 169.06 147.66 168.01 148.30 166.95 C 148.59 166.49 148.88 166.04 149.17 165.59 Z" fill="#fadace" />
<path d="M 211.91 166.43 C 213.57 169.28 215.02 172.38 217.05 175.00 C 218.37 176.91 221.72 177.15 223.26 175.42 C 225.50 173.13 226.91 170.12 229.00 167.68 C 228.76 170.50 228.71 173.80 227.47 176.39 C 223.88 178.90 220.55 177.87 216.59 177.25 C 218.45 179.49 221.55 183.16 224.78 182.77 C 229.58 181.98 230.43 176.57 232.00 172.83 C 233.26 175.17 235.07 176.83 234.55 179.68 C 233.98 184.72 231.02 190.59 225.80 192.08 C 222.00 193.10 217.40 190.83 215.54 187.42 C 213.55 182.98 214.69 176.93 212.19 172.80 C 210.55 171.54 207.88 171.46 205.91 170.79 C 203.33 170.07 200.72 169.51 198.08 169.03 C 198.74 168.90 199.41 168.77 200.07 168.63 C 204.06 168.12 207.95 167.13 211.91 166.43 Z" fill="#22223e" />
<path d="M 53.16 169.88 C 56.34 174.22 59.40 178.63 62.06 183.31 C 58.99 182.35 57.54 180.09 55.63 177.74 C 50.14 181.23 45.71 186.43 40.71 190.59 C 42.78 192.15 44.87 193.67 47.02 195.12 C 43.76 195.19 40.50 195.72 37.25 195.60 C 35.91 195.57 34.60 194.21 34.16 192.99 C 34.95 190.10 36.52 187.44 37.16 184.48 C 37.84 181.35 37.81 178.00 37.98 174.81 C 41.24 175.34 44.19 176.57 47.24 177.80 C 49.03 178.57 51.17 177.88 52.47 176.51 C 53.08 174.42 53.00 172.05 53.16 169.88 Z" fill="#e8eae2" />
<path d="M 151.30 169.58 C 151.84 172.95 152.49 176.37 153.60 179.61 C 149.54 180.87 146.04 182.98 141.80 183.73 C 139.82 183.94 137.82 184.07 135.82 184.20 C 138.75 181.71 141.66 179.21 144.29 176.40 C 146.55 174.04 148.98 171.88 151.30 169.58 Z" fill="#d15141" />
<path d="M 118.47 179.36 C 118.07 182.82 115.96 184.39 113.48 186.45 C 112.95 182.70 112.31 179.05 110.72 175.58 C 113.36 176.73 115.91 178.04 118.47 179.36 Z" fill="#f9f7f1" />
<path d="M 55.63 177.74 C 57.54 180.09 58.99 182.35 62.06 183.31 C 63.29 182.55 64.49 181.76 65.69 180.96 C 66.42 181.77 67.15 182.58 67.89 183.39 C 70.77 182.87 74.34 181.72 77.19 182.45 C 78.16 183.41 78.38 185.18 79.10 186.37 C 80.45 187.64 82.27 188.49 83.88 189.40 C 82.76 192.73 77.04 192.75 74.18 194.05 C 71.52 192.31 69.73 189.67 66.18 190.89 C 62.44 191.63 60.00 194.82 60.44 198.60 C 61.55 202.40 65.80 203.37 68.96 204.82 C 70.47 204.01 71.95 203.13 73.50 202.41 C 76.82 201.63 80.55 202.81 83.86 202.14 C 87.48 200.46 90.11 197.41 93.76 195.69 C 96.02 194.62 97.91 192.88 100.17 191.85 C 103.17 191.60 106.21 191.85 109.23 191.73 C 108.86 192.54 108.49 193.36 108.14 194.18 C 107.31 194.40 106.49 194.63 105.66 194.85 C 101.66 195.16 97.42 195.11 94.20 197.87 C 91.05 200.18 88.73 204.80 84.86 205.67 C 80.87 207.04 77.59 204.71 73.71 206.56 C 71.08 207.68 69.86 210.84 71.79 213.15 C 73.20 215.30 76.35 214.74 78.53 214.61 C 80.72 214.57 82.22 211.81 84.27 211.22 C 87.08 210.27 90.66 210.07 92.64 207.65 C 95.25 204.80 95.55 201.35 97.10 197.99 C 99.11 196.64 102.36 196.89 104.66 197.19 C 107.35 198.80 109.60 201.14 112.11 203.02 C 111.90 203.54 111.70 204.06 111.50 204.57 C 110.16 204.66 108.32 204.39 107.19 205.19 C 101.92 208.88 99.67 213.97 95.87 218.71 C 92.79 221.82 88.03 223.43 84.17 225.37 C 75.84 227.63 68.92 224.79 60.73 224.72 L 60.02 224.68 C 60.09 222.65 57.80 222.22 56.86 223.91 C 55.52 223.25 54.18 222.59 52.85 221.90 L 53.99 221.48 C 54.60 221.23 55.20 220.96 55.81 220.70 C 54.42 219.35 52.44 218.03 51.63 216.24 C 51.52 214.86 52.38 213.39 52.84 212.11 C 50.38 211.24 47.92 210.38 45.45 209.54 C 46.31 206.81 47.16 204.08 48.02 201.36 C 46.38 201.56 44.74 201.76 43.11 201.98 C 46.04 199.76 46.87 198.98 47.02 195.12 C 44.87 193.67 42.78 192.15 40.71 190.59 C 45.71 186.43 50.14 181.23 55.63 177.74 Z" fill="#dde0d7" />
<path d="M 120.53 189.27 C 122.85 190.60 125.38 192.61 128.13 192.77 C 131.29 193.02 134.62 192.57 137.76 192.17 C 144.53 191.50 150.55 189.80 157.38 190.97 C 154.58 193.40 151.49 195.38 148.34 197.32 C 141.19 195.53 133.69 198.02 126.26 195.58 C 123.09 194.47 120.12 193.72 116.72 193.96 C 116.00 193.06 115.28 192.16 114.56 191.26 C 116.54 190.61 118.51 189.77 120.53 189.27 Z" fill="#d2564a" />
<path d="M 109.23 191.73 C 111.01 191.60 112.78 191.49 114.56 191.26 C 115.28 192.16 116.00 193.06 116.72 193.96 C 119.90 198.42 124.24 201.23 129.31 203.17 C 127.63 203.85 126.00 204.59 124.36 205.34 C 120.68 202.14 117.26 198.64 113.55 195.47 C 111.94 194.03 110.16 194.09 108.14 194.18 C 108.49 193.36 108.86 192.54 109.23 191.73 Z" fill="#fee796" />
<path d="M 126.26 195.58 C 133.69 198.02 141.19 195.53 148.34 197.32 C 144.26 199.95 140.48 202.44 135.60 203.34 C 133.54 203.56 131.38 203.31 129.31 203.17 C 124.24 201.23 119.90 198.42 116.72 193.96 C 120.12 193.72 123.09 194.47 126.26 195.58 Z" fill="#201f38" />
<path d="M 108.14 194.18 C 110.16 194.09 111.94 194.03 113.55 195.47 C 117.26 198.64 120.68 202.14 124.36 205.34 C 125.25 206.18 126.13 207.02 127.00 207.87 C 123.33 206.61 119.74 205.15 116.10 203.82 C 117.36 203.88 118.62 203.93 119.88 203.96 C 115.50 200.34 110.86 197.18 105.66 194.85 C 106.49 194.63 107.31 194.40 108.14 194.18 Z" fill="#b36e5d" />
<path d="M 105.66 194.85 C 110.86 197.18 115.50 200.34 119.88 203.96 C 118.62 203.93 117.36 203.88 116.10 203.82 C 115.40 203.68 114.71 203.53 114.01 203.39 C 112.72 206.31 111.29 209.07 109.12 211.45 C 109.74 209.10 110.61 206.84 111.50 204.57 C 111.70 204.06 111.90 203.54 112.11 203.02 C 109.60 201.14 107.35 198.80 104.66 197.19 C 102.36 196.89 99.11 196.64 97.10 197.99 C 95.55 201.35 95.25 204.80 92.64 207.65 C 90.66 210.07 87.08 210.27 84.27 211.22 C 82.22 211.81 80.72 214.57 78.53 214.61 C 76.35 214.74 73.20 215.30 71.79 213.15 C 69.86 210.84 71.08 207.68 73.71 206.56 C 77.59 204.71 80.87 207.04 84.86 205.67 C 88.73 204.80 91.05 200.18 94.20 197.87 C 97.42 195.11 101.66 195.16 105.66 194.85 Z" fill="#23233c" />
<path d="M 188.94 196.68 C 186.82 198.01 184.44 198.87 182.34 200.22 C 180.98 201.70 180.06 203.63 178.98 205.33 C 176.95 205.43 174.91 205.50 172.88 205.55 C 173.71 203.45 174.53 201.34 175.29 199.21 C 179.71 198.45 184.50 195.80 188.94 196.68 Z" fill="#1c1b31" />
<path d="M 170.33 207.31 C 172.94 207.16 175.57 207.44 178.18 207.52 C 177.23 208.88 176.27 210.24 175.33 211.60 C 172.38 211.27 169.47 210.74 166.57 210.12 C 167.78 209.15 168.99 208.09 170.33 207.31 Z" fill="#17172f" />
<path d="M 164.19 210.84 C 167.39 211.69 170.53 212.72 173.75 213.49 C 171.64 215.86 169.71 218.29 167.90 220.89 C 165.26 218.85 162.59 216.87 159.81 215.03 C 161.25 213.60 162.67 212.18 164.19 210.84 Z" fill="#22233b" />
<path d="M 159.06 215.88 C 161.92 217.68 164.63 219.76 167.37 221.74 C 166.03 225.14 164.96 228.64 163.64 232.05 C 159.96 231.59 155.32 230.41 151.73 231.66 C 149.78 233.01 149.02 235.98 147.95 238.01 C 146.13 235.55 142.24 232.10 143.72 228.73 C 144.20 226.74 146.03 225.66 147.55 224.51 C 151.56 221.85 155.17 218.70 159.06 215.88 Z" fill="#21223f" />
<path d="M 142.37 219.32 C 145.83 218.11 149.36 218.64 152.33 220.78 C 148.38 222.85 143.82 224.64 140.17 227.22 C 137.60 229.04 136.21 231.93 134.55 234.50 C 133.45 232.51 130.39 229.69 132.12 227.40 C 134.14 222.95 138.09 221.07 142.37 219.32 Z" fill="#303052" />
<path d="M 99.07 221.25 C 94.71 224.79 89.55 226.46 84.04 227.14 C 76.04 228.04 68.23 228.07 60.73 224.72 C 68.92 224.79 75.84 227.63 84.17 225.37 C 89.23 224.30 94.08 222.58 99.07 221.25 Z" fill="#908f91" />
<path d="M 60.02 224.68 C 58.83 224.70 57.78 224.44 56.86 223.91 C 57.80 222.22 60.09 222.65 60.02 224.68 Z" fill="#858585" />
</svg>