<?xml version="1.0" encoding="UTF-8" standalone="no"?>
<!DOCTYPE svg PUBLIC "-//W3C//DTD SVG 1.1//EN" "http://www.w3.org/Graphics/SVG/1.1/DTD/svg11.dtd">
<svg xmlns="http://www.w3.org/2000/svg" version="1.1" viewBox="0 0 256 256" width="256.0pt" height="256.0pt">
<path d="M 0.00 0.00 L 256.00 0.00 L 256.00 256.00 L 0.00 256.00 L 0.00 0.00 Z" fill="#fefefd" />
<path d="M 200.68 20.71 C 216.34 27.10 228.63 43.41 231.01 60.00 C 233.49 75.73 236.75 90.08 234.36 106.17 C 233.35 122.21 228.83 138.40 225.14 154.03 C 223.87 163.97 228.47 174.01 228.92 183.95 C 227.21 190.81 225.31 197.88 222.16 204.23 C 216.02 212.40 213.88 223.04 207.56 231.57 C 198.87 237.79 189.75 242.05 178.81 239.34 C 173.39 238.47 167.46 236.83 169.73 229.99 C 171.97 232.27 173.09 233.15 173.05 228.98 C 174.69 229.30 176.31 229.68 177.92 230.11 C 177.47 232.75 178.68 233.88 180.21 231.21 C 185.03 229.74 187.25 228.39 191.95 231.23 C 193.83 232.71 195.15 232.71 197.01 231.19 C 201.33 229.47 203.75 227.93 205.06 223.24 C 205.65 222.25 206.05 221.21 206.27 220.13 C 207.20 217.35 206.98 214.62 206.74 211.75 C 207.12 210.42 207.53 209.10 207.98 207.79 C 210.63 201.25 217.11 199.43 219.32 193.11 C 220.27 191.80 220.39 190.72 220.23 189.14 C 221.33 185.56 221.43 182.51 220.21 178.94 C 220.88 175.88 221.15 174.47 219.19 171.81 C 217.80 169.36 216.18 167.51 213.98 165.77 C 209.00 163.13 215.21 154.79 215.88 150.82 C 216.23 150.21 216.58 149.61 216.92 149.00 C 217.30 148.37 217.69 147.74 218.07 147.11 C 219.50 145.55 219.33 143.99 218.92 142.06 C 219.49 140.76 220.05 139.47 220.48 138.12 C 220.82 136.49 220.92 134.82 221.09 133.14 C 221.45 132.11 221.80 131.09 222.15 130.06 C 223.10 127.14 223.13 124.04 224.15 121.13 C 225.56 119.45 225.36 117.92 224.77 115.95 C 224.98 114.70 225.18 113.45 225.38 112.20 C 226.09 107.46 226.91 102.65 226.95 97.85 L 226.99 96.00 C 227.09 93.53 226.87 91.20 226.37 88.78 C 226.07 86.20 225.93 83.61 225.76 81.02 C 226.40 78.76 226.55 77.05 225.34 74.96 C 224.11 69.01 222.42 63.26 221.75 57.19 C 222.83 53.42 222.75 50.96 219.12 48.77 C 217.61 46.10 216.02 43.55 214.12 41.14 C 216.36 38.68 206.58 31.40 204.67 33.80 C 199.38 30.99 193.96 28.72 188.07 27.53 C 185.14 26.83 182.26 26.22 179.23 26.21 C 177.56 26.08 175.89 25.92 174.22 25.74 C 171.33 24.91 168.65 24.46 165.83 25.85 C 165.25 26.07 164.67 26.29 164.09 26.51 C 161.54 26.09 165.67 24.52 163.87 24.09 C 162.97 24.05 160.90 22.00 162.99 22.20 C 167.13 22.55 168.10 19.72 171.64 18.64 C 182.26 16.33 190.45 19.34 200.68 20.71 Z" fill="#f3f3f2" />
<path d="M 124.99 20.03 C 131.94 19.01 138.19 24.17 143.59 27.83 C 143.39 28.81 143.06 29.74 142.82 30.70 C 148.85 32.49 143.65 41.38 143.87 45.94 C 140.15 53.58 131.14 60.20 129.37 68.83 C 131.16 72.40 133.95 73.63 137.68 74.48 C 137.83 76.41 137.67 78.36 137.73 80.30 C 136.71 81.76 135.70 83.22 134.70 84.69 C 131.83 87.01 131.54 91.00 129.00 93.26 C 125.18 93.13 130.29 86.61 126.09 86.26 C 123.85 87.17 121.68 88.25 119.41 89.10 L 119.12 88.08 C 118.16 83.19 116.01 85.62 113.13 87.10 C 111.54 87.36 110.20 87.73 109.05 88.93 C 108.05 89.33 107.05 89.72 106.04 90.10 C 105.03 89.93 104.03 89.75 103.03 89.56 C 101.44 89.23 99.83 89.05 98.22 88.90 L 97.90 88.13 C 97.23 81.48 86.75 82.32 86.34 74.61 C 87.98 73.15 89.57 71.65 91.13 70.10 C 93.89 69.98 96.59 70.17 99.21 69.34 C 103.43 67.91 107.58 66.32 111.82 64.96 C 119.06 63.26 124.35 56.62 129.88 51.88 C 135.23 48.62 134.78 45.31 138.16 41.00 C 140.13 38.77 142.99 34.75 139.50 32.50 C 136.73 31.30 135.50 30.23 133.68 27.75 C 135.44 22.23 128.21 27.72 126.05 28.17 C 123.03 27.47 120.14 26.72 116.99 27.11 C 117.37 28.78 118.61 28.98 119.86 29.83 C 115.95 30.24 111.62 30.41 107.95 31.90 C 100.11 35.89 91.51 39.06 83.92 43.95 C 81.17 45.36 78.43 46.77 75.81 48.40 C 72.43 50.33 68.76 52.25 65.99 55.01 C 64.73 55.80 63.45 56.57 62.19 57.37 C 60.42 57.20 58.82 56.85 57.04 57.23 C 55.44 57.47 53.90 57.85 52.34 58.23 L 51.30 57.60 L 51.91 57.07 C 53.56 56.25 57.35 56.62 56.90 54.06 C 54.51 54.20 52.10 54.78 49.91 55.74 L 48.61 56.85 L 47.54 58.02 C 43.49 60.46 38.90 65.10 38.83 70.10 C 38.47 70.74 38.11 71.38 37.75 72.02 C 37.09 73.32 35.98 74.73 35.86 76.22 C 36.46 81.12 31.69 88.38 27.08 83.78 C 25.14 80.46 23.42 83.87 24.79 86.00 C 26.55 92.32 29.00 97.94 35.21 100.99 C 34.09 104.02 31.65 106.07 30.88 109.30 C 29.89 108.53 28.91 107.75 27.92 107.00 C 27.06 105.38 27.40 102.98 25.05 103.10 C 24.81 105.13 25.61 105.84 26.92 107.18 C 27.25 107.75 27.58 108.33 27.91 108.90 C 27.19 110.99 26.96 111.31 28.61 112.89 C 29.31 113.64 30.01 114.39 30.73 115.13 C 30.28 119.00 33.59 121.14 37.19 120.09 C 39.30 121.70 41.26 123.17 42.14 125.80 C 41.65 129.63 43.15 132.00 44.82 135.21 C 48.31 141.84 49.88 150.58 54.77 156.13 C 55.42 159.09 56.93 161.55 58.42 164.13 C 58.91 165.38 59.44 166.60 60.04 167.79 C 61.02 170.20 61.89 171.48 64.01 172.99 C 64.71 175.77 65.76 177.29 67.77 179.28 C 68.79 181.19 69.90 182.53 71.58 183.89 C 74.02 186.04 76.29 188.37 78.78 190.46 L 79.19 191.04 C 79.61 191.76 80.15 192.28 80.82 192.61 C 82.97 193.78 85.14 194.84 87.08 196.35 C 87.73 196.86 88.40 197.33 89.10 197.76 C 90.23 198.18 91.51 198.23 92.94 197.91 L 94.40 198.85 C 89.58 202.94 85.75 206.75 83.98 213.01 C 83.60 214.89 87.94 218.57 89.79 217.91 C 89.87 215.38 88.80 212.06 89.69 209.69 C 91.54 206.98 94.55 204.95 96.94 202.72 C 97.98 201.79 98.96 200.81 100.03 199.90 C 101.12 202.23 101.47 203.77 103.98 204.93 C 103.38 207.08 105.31 207.90 106.38 205.91 C 108.87 204.35 107.32 209.24 110.29 209.74 C 114.55 212.65 115.03 210.59 118.97 208.72 C 122.18 210.03 125.56 212.03 129.04 211.97 C 129.86 212.02 130.68 212.05 131.50 212.07 C 134.30 212.88 137.16 213.21 140.02 213.71 C 141.38 214.18 142.72 214.28 144.04 213.99 C 146.53 213.97 148.83 214.14 151.23 213.37 C 155.49 211.90 160.12 210.21 163.54 207.21 C 163.94 206.90 164.33 206.60 164.72 206.28 C 168.54 203.40 171.81 199.67 175.11 196.22 C 178.31 195.41 180.86 194.68 179.05 190.82 C 181.13 187.98 182.87 185.09 184.35 181.89 C 184.67 183.53 184.97 185.19 185.38 186.81 C 188.67 187.95 191.30 181.75 194.35 182.80 C 197.60 184.35 202.25 179.56 204.60 183.41 C 205.50 184.88 206.28 186.38 206.52 188.11 C 205.56 188.74 204.62 189.39 203.68 190.05 C 194.03 195.70 193.26 205.70 188.13 214.15 C 186.27 215.40 182.95 222.35 180.82 221.03 C 181.08 217.00 174.89 219.39 173.71 221.70 C 171.98 223.79 171.25 226.71 170.01 229.11 C 170.00 227.26 169.81 226.78 169.45 227.67 C 167.32 233.90 163.60 225.75 158.01 228.02 C 150.62 231.43 143.03 232.68 135.00 233.95 C 131.00 233.34 125.92 233.55 125.52 228.38 C 124.69 228.38 123.85 228.40 123.01 228.44 C 122.29 227.49 122.32 226.55 123.13 225.60 C 124.80 225.74 126.46 225.83 128.13 225.94 C 132.20 227.03 136.65 229.12 140.88 228.94 C 145.71 226.84 149.96 222.77 153.45 218.89 C 158.01 214.88 148.52 213.39 149.43 219.57 C 146.06 221.05 143.48 223.41 140.87 225.93 C 137.84 223.70 135.91 220.90 132.18 219.59 C 129.51 218.55 127.33 218.97 124.77 220.08 C 123.54 220.50 122.29 220.88 121.06 221.29 C 118.00 222.22 119.44 222.09 120.87 223.82 L 120.28 224.12 C 118.35 224.82 118.29 227.36 116.87 228.83 C 114.85 228.38 114.54 227.19 113.61 225.55 C 109.51 230.74 103.64 225.27 98.39 228.16 C 99.50 226.20 100.63 224.38 100.93 222.08 C 98.96 222.30 98.39 221.62 97.97 223.98 C 97.80 226.40 93.92 228.49 93.27 225.09 C 94.07 224.82 96.50 225.25 96.59 224.16 C 97.28 222.41 97.99 220.68 98.83 219.00 C 99.98 218.35 101.08 217.63 102.16 216.87 C 104.46 215.92 109.08 217.03 107.77 213.23 C 106.95 211.98 107.36 206.72 105.01 209.01 C 101.46 212.18 101.01 203.66 98.23 208.80 C 96.42 211.99 95.82 215.43 94.76 218.87 C 94.23 220.33 93.68 221.77 93.13 223.21 C 93.10 214.77 90.27 227.89 86.96 224.08 C 83.56 222.30 81.05 216.72 79.59 213.25 C 78.38 206.88 74.49 198.78 66.65 201.65 C 64.00 201.69 59.84 209.56 59.49 204.37 C 54.47 202.88 56.32 205.59 56.33 209.01 C 55.60 208.36 54.87 207.70 54.14 207.04 C 54.56 201.59 56.85 197.60 54.86 192.11 C 53.90 192.90 53.01 193.76 52.11 194.62 C 49.35 193.24 49.78 196.01 49.90 197.82 L 49.25 198.16 C 47.91 197.00 46.12 193.53 44.15 195.69 C 43.58 196.46 43.05 197.25 42.58 198.05 C 41.81 200.69 41.43 203.44 40.88 206.13 C 37.44 205.63 38.74 196.06 40.86 194.04 C 43.32 192.04 45.42 189.68 47.98 187.79 C 49.88 188.36 51.40 188.51 53.06 187.26 C 54.20 186.60 65.62 186.01 60.18 184.79 C 57.06 183.37 52.99 183.91 49.74 184.63 C 43.01 185.84 41.62 187.20 39.86 193.75 C 36.63 196.92 35.52 204.64 38.85 207.98 C 39.57 208.70 40.31 209.41 41.06 210.10 C 41.85 213.17 46.75 212.84 44.03 209.65 C 44.09 208.03 44.19 206.41 44.31 204.79 C 45.31 203.94 46.26 203.04 47.20 202.12 C 49.29 203.32 47.73 205.79 48.90 207.91 C 50.46 210.75 53.99 211.34 56.33 209.01 C 57.94 212.78 55.90 214.27 52.67 215.67 C 48.32 216.50 42.60 210.49 39.57 215.69 C 37.47 213.17 36.81 209.93 34.50 207.50 C 29.98 199.56 33.26 192.55 37.73 185.73 C 41.78 180.89 47.12 179.92 48.84 173.87 C 52.19 167.31 46.10 162.55 45.65 156.16 C 43.65 149.36 38.76 143.50 36.12 136.82 C 34.71 133.11 32.06 131.29 29.47 128.58 C 26.89 123.07 22.50 119.91 21.67 113.63 C 21.60 108.12 19.43 102.58 20.30 97.17 C 22.21 91.14 18.49 87.08 23.07 82.54 C 22.80 80.13 22.18 78.08 24.11 76.08 C 28.35 71.48 30.84 65.63 35.22 61.22 C 43.40 51.69 54.14 49.12 65.23 44.36 C 83.66 34.79 104.03 21.56 124.99 20.03 Z" fill="#f1f1f0" />
<path d="M 133.68 27.75 C 133.77 31.18 135.51 32.31 133.22 35.77 C 132.74 36.55 132.28 37.34 131.82 38.13 C 129.55 42.25 127.51 46.46 125.87 50.87 C 120.74 52.33 122.74 55.94 118.49 56.33 C 122.56 61.59 111.21 59.28 111.82 64.96 C 107.58 66.32 103.43 67.91 99.21 69.34 C 95.92 69.11 93.56 66.89 91.13 70.10 C 89.57 71.65 87.98 73.15 86.34 74.61 C 82.52 76.92 83.41 81.93 86.69 84.30 C 89.49 86.86 94.34 87.19 97.90 88.13 L 98.22 88.90 C 97.13 89.33 96.04 89.74 94.94 90.14 L 94.15 89.91 C 90.41 88.39 86.59 88.77 82.77 89.73 C 77.65 90.48 73.32 88.73 69.07 91.96 C 67.46 90.90 66.12 89.59 64.72 88.29 C 63.29 87.34 61.77 86.68 60.20 86.01 C 61.15 83.34 60.64 82.12 59.45 79.68 C 56.65 72.09 50.09 76.69 45.97 73.11 L 45.17 71.66 C 44.66 69.56 40.54 70.76 38.83 70.10 C 38.90 65.10 43.49 60.46 47.54 58.02 C 49.27 61.26 49.85 59.16 52.34 58.23 C 53.90 57.85 55.44 57.47 57.04 57.23 C 58.87 58.93 60.76 60.56 62.19 57.37 C 63.45 56.57 64.73 55.80 65.99 55.01 C 69.23 54.63 72.44 54.09 75.68 53.71 C 77.86 57.35 82.97 54.21 85.25 52.19 C 89.05 49.92 93.20 49.22 95.50 45.44 C 101.71 42.12 109.65 41.42 115.79 37.81 C 118.22 36.52 122.61 33.71 121.33 38.87 C 123.21 37.99 124.45 37.29 125.24 35.26 C 126.58 32.26 128.62 30.23 130.92 27.99 C 128.14 28.69 125.94 30.27 123.68 31.96 C 121.76 32.34 119.91 32.75 117.94 32.53 C 120.62 31.02 123.35 29.63 126.05 28.17 C 128.21 27.72 135.44 22.23 133.68 27.75 Z" fill="#222440" />
<path d="M 174.22 25.74 C 171.42 25.91 168.63 25.92 165.83 25.85 C 168.65 24.46 171.33 24.91 174.22 25.74 Z" fill="#a5a5ad" />
<path d="M 165.83 25.85 C 168.63 25.92 171.42 25.91 174.22 25.74 C 175.89 25.92 177.56 26.08 179.23 26.21 C 177.40 26.67 175.56 27.09 173.71 27.48 C 171.55 27.36 174.71 28.69 174.98 29.09 C 176.55 31.82 174.84 30.68 172.81 31.48 C 171.79 31.05 170.78 30.59 169.78 30.12 C 168.33 28.73 166.87 27.56 164.94 26.88 L 164.09 26.51 C 164.67 26.29 165.25 26.07 165.83 25.85 Z" fill="#434355" />
<path d="M 179.23 26.21 C 182.26 26.22 185.14 26.83 188.07 27.53 L 187.24 28.99 C 193.02 30.98 198.69 31.91 203.81 35.62 C 203.56 41.76 204.11 41.86 198.24 44.74 C 193.62 38.87 191.54 33.75 182.84 33.89 C 184.00 33.00 187.99 32.21 184.01 32.00 C 178.55 31.26 187.28 31.72 185.69 29.26 C 182.28 27.30 177.55 28.28 173.71 27.48 C 175.56 27.09 177.40 26.67 179.23 26.21 Z" fill="#76798d" />
<path d="M 116.99 27.11 C 120.14 26.72 123.03 27.47 126.05 28.17 C 123.35 29.63 120.62 31.02 117.94 32.53 C 114.61 32.27 111.31 31.85 107.95 31.90 C 111.62 30.41 115.95 30.24 119.86 29.83 C 118.61 28.98 117.37 28.78 116.99 27.11 Z" fill="#bfbfc7" />
<path d="M 164.94 26.88 C 166.87 27.56 168.33 28.73 169.78 30.12 C 170.46 34.11 174.46 35.82 176.43 39.48 C 178.71 43.73 180.36 48.84 184.96 51.14 C 185.32 51.77 185.66 52.40 185.99 53.04 C 183.96 60.42 189.93 63.56 190.27 70.60 C 190.90 75.12 189.02 80.42 191.04 84.51 C 189.59 88.45 186.54 90.58 187.14 95.21 L 186.70 95.90 C 185.74 97.18 184.78 98.47 183.83 99.75 C 180.07 101.92 181.39 106.30 176.70 106.26 C 177.13 105.01 177.58 103.76 177.94 102.49 C 174.42 103.04 171.53 103.03 168.01 102.51 C 168.95 105.00 170.14 107.38 171.10 109.86 L 171.26 110.58 C 166.45 110.53 163.53 114.20 158.84 111.40 C 159.73 114.05 161.33 119.10 164.73 119.03 C 167.73 122.58 163.58 122.10 161.28 123.23 C 158.76 123.40 159.83 126.23 158.88 127.90 C 157.65 129.34 156.17 130.59 154.83 131.93 C 151.75 131.83 148.91 130.94 146.02 129.98 C 145.34 129.48 144.65 128.99 143.97 128.50 C 142.03 126.97 140.06 125.44 137.97 124.13 C 138.80 127.74 139.09 134.73 143.15 136.01 C 140.93 139.22 142.28 144.56 142.28 148.28 C 141.24 148.63 140.18 148.91 139.09 149.12 C 136.30 148.40 129.75 138.78 130.98 146.59 C 128.35 150.52 125.25 153.52 132.16 154.91 C 129.64 155.35 124.97 154.58 124.20 157.90 C 124.23 159.70 126.36 161.88 124.28 163.06 C 121.77 158.97 118.46 155.62 116.40 151.23 C 115.90 151.72 115.45 152.25 115.07 152.82 C 114.19 154.21 113.61 155.72 112.96 157.23 C 112.27 158.13 111.56 159.03 110.86 159.92 C 105.31 160.26 103.48 158.60 102.25 165.08 C 100.87 161.95 98.36 160.43 96.02 158.17 C 99.16 151.75 92.17 152.13 92.11 144.86 L 91.90 144.14 C 93.95 139.14 94.21 139.05 90.82 134.72 C 91.07 132.78 91.36 130.84 91.76 128.92 C 94.12 127.17 96.10 125.88 99.15 125.62 C 99.76 125.99 100.37 126.35 100.99 126.70 C 102.20 127.48 103.31 127.97 104.77 127.94 C 106.61 129.58 108.50 131.15 110.22 132.92 C 109.77 134.26 109.78 135.64 110.26 137.06 C 108.75 139.67 107.60 140.93 104.81 142.20 C 98.56 142.00 103.57 145.70 106.94 143.05 C 109.22 142.05 111.59 141.54 114.00 140.97 C 116.63 140.32 128.42 137.21 123.27 133.21 C 122.48 132.78 121.67 132.37 120.85 131.99 C 121.48 131.24 122.11 130.50 122.74 129.75 C 126.71 135.15 128.01 128.51 128.01 125.05 C 129.26 123.21 129.64 121.17 130.26 119.08 C 130.74 117.46 131.25 115.98 130.79 114.28 C 124.03 111.18 115.47 113.50 108.93 110.27 C 114.95 109.33 120.71 110.71 126.66 110.58 C 128.73 108.09 130.59 105.50 132.86 103.17 C 130.93 103.02 129.03 102.97 127.11 102.87 C 128.99 101.82 130.63 100.72 132.13 99.15 C 138.69 97.88 139.33 93.78 141.33 88.25 C 142.08 86.78 142.88 85.34 143.64 83.88 C 143.28 87.83 147.79 81.85 147.90 85.00 C 149.83 96.36 141.99 100.05 143.77 111.25 C 154.01 116.04 155.49 102.48 164.47 101.17 C 164.74 99.86 164.85 98.52 165.10 97.20 C 166.34 98.20 167.38 99.32 168.86 99.99 C 168.46 98.71 167.94 97.47 167.53 96.19 C 173.77 92.04 177.94 85.36 178.67 77.88 C 178.64 72.93 176.52 68.78 175.93 64.01 C 174.09 51.22 164.63 43.17 163.43 29.53 C 165.31 28.47 165.97 29.22 164.94 26.88 Z" fill="#f0f0ef" />
<path d="M 173.71 27.48 C 177.55 28.28 182.28 27.30 185.69 29.26 C 187.28 31.72 178.55 31.26 184.01 32.00 C 187.99 32.21 184.00 33.00 182.84 33.89 C 180.18 32.36 177.59 30.71 174.98 29.09 C 174.71 28.69 171.55 27.36 173.71 27.48 Z" fill="#a9abb8" />
<path d="M 130.92 27.99 C 128.62 30.23 126.58 32.26 125.24 35.26 C 124.72 34.16 124.20 33.06 123.68 31.96 C 125.94 30.27 128.14 28.69 130.92 27.99 Z" fill="#a4a4b9" />
<path d="M 133.68 27.75 C 135.50 30.23 136.73 31.30 139.50 32.50 C 142.99 34.75 140.13 38.77 138.16 41.00 C 136.90 38.62 135.84 36.82 133.22 35.77 C 135.51 32.31 133.77 31.18 133.68 27.75 Z" fill="#c3c3c8" />
<path d="M 188.07 27.53 C 193.96 28.72 199.38 30.99 204.67 33.80 C 207.75 36.33 210.95 38.72 214.12 41.14 C 216.02 43.55 217.61 46.10 219.12 48.77 C 219.87 51.63 220.85 54.39 221.75 57.19 C 222.42 63.26 224.11 69.01 225.34 74.96 C 224.61 77.21 224.33 78.99 225.76 81.02 C 225.93 83.61 226.07 86.20 226.37 88.78 C 225.59 92.76 226.66 96.57 223.46 90.78 C 225.79 85.08 223.36 80.75 223.27 74.94 L 223.08 74.13 C 223.01 70.97 222.54 68.65 221.22 65.79 C 221.08 62.11 220.46 59.11 218.98 55.74 C 217.17 46.06 211.82 40.79 203.81 35.62 C 198.69 31.91 193.02 30.98 187.24 28.99 L 188.07 27.53 Z" fill="#2a2a3f" />
<path d="M 174.98 29.09 C 177.59 30.71 180.18 32.36 182.84 33.89 C 186.23 38.90 190.41 42.55 192.89 48.16 C 196.78 55.66 197.77 63.77 201.80 71.20 C 204.35 74.89 200.62 81.21 203.83 84.75 L 203.12 84.93 C 199.58 85.20 200.41 95.10 199.12 98.06 C 198.59 100.63 197.79 103.12 197.19 105.67 C 196.59 107.73 196.11 109.79 195.74 111.91 C 194.33 114.06 192.77 116.12 191.06 118.04 C 190.03 116.66 189.09 115.22 188.07 113.83 L 187.70 113.03 C 187.93 109.32 188.94 109.38 191.76 107.67 C 191.80 104.81 193.69 99.11 188.98 99.92 C 189.27 96.19 190.54 92.68 190.90 88.97 C 188.98 90.52 188.78 93.32 187.14 95.21 C 186.54 90.58 189.59 88.45 191.04 84.51 C 192.34 81.47 191.72 78.11 193.12 75.05 C 195.97 65.97 193.01 55.55 187.83 48.26 C 185.14 49.86 192.26 54.72 188.92 58.35 C 187.75 56.67 186.91 54.85 185.99 53.04 C 185.66 52.40 185.32 51.77 184.96 51.14 C 186.60 42.42 180.57 39.32 176.61 32.87 C 175.34 32.42 174.04 32.04 172.81 31.48 C 174.84 30.68 176.55 31.82 174.98 29.09 Z" fill="#76788e" />
<path d="M 169.78 30.12 C 170.78 30.59 171.79 31.05 172.81 31.48 C 174.04 32.04 175.34 32.42 176.61 32.87 C 180.57 39.32 186.60 42.42 184.96 51.14 C 180.36 48.84 178.71 43.73 176.43 39.48 C 174.46 35.82 170.46 34.11 169.78 30.12 Z" fill="#b0b0ba" />
<path d="M 107.95 31.90 C 111.31 31.85 114.61 32.27 117.94 32.53 C 119.91 32.75 121.76 32.34 123.68 31.96 C 124.20 33.06 124.72 34.16 125.24 35.26 C 124.45 37.29 123.21 37.99 121.33 38.87 C 122.61 33.71 118.22 36.52 115.79 37.81 C 109.65 41.42 101.71 42.12 95.50 45.44 C 93.20 49.22 89.05 49.92 85.25 52.19 C 81.97 52.18 78.82 52.84 75.68 53.71 C 72.44 54.09 69.23 54.63 65.99 55.01 C 68.76 52.25 72.43 50.33 75.81 48.40 C 81.02 47.36 88.77 45.41 92.99 42.09 C 89.92 42.50 86.97 43.41 83.92 43.95 C 91.51 39.06 100.11 35.89 107.95 31.90 Z" fill="#75768b" />
<path d="M 214.12 41.14 C 210.95 38.72 207.75 36.33 204.67 33.80 C 206.58 31.40 216.36 38.68 214.12 41.14 Z" fill="#acacb8" />
<path d="M 182.84 33.89 C 191.54 33.75 193.62 38.87 198.24 44.74 C 204.11 41.86 203.56 41.76 203.81 35.62 C 211.82 40.79 217.17 46.06 218.98 55.74 C 212.39 59.91 215.23 65.65 213.86 71.86 C 208.53 75.32 210.96 75.28 211.70 80.34 C 212.04 84.31 206.63 84.54 203.83 84.75 C 200.62 81.21 204.35 74.89 201.80 71.20 C 197.77 63.77 196.78 55.66 192.89 48.16 C 190.41 42.55 186.23 38.90 182.84 33.89 Z" fill="#8892b7" />
<path d="M 112.98 35.06 C 110.19 37.12 106.78 39.35 103.14 38.95 C 102.76 36.47 105.18 37.31 106.80 36.57 C 108.86 36.04 110.87 35.39 112.98 35.06 Z" fill="#2a2b44" />
<path d="M 133.22 35.77 C 135.84 36.82 136.90 38.62 138.16 41.00 C 134.78 45.31 135.23 48.62 129.88 51.88 C 124.35 56.62 119.06 63.26 111.82 64.96 C 111.21 59.28 122.56 61.59 118.49 56.33 C 122.74 55.94 120.74 52.33 125.87 50.87 C 133.49 47.94 130.65 43.63 135.81 39.40 C 134.48 38.96 133.14 38.57 131.82 38.13 C 132.28 37.34 132.74 36.55 133.22 35.77 Z" fill="#a6a7b1" />
<path d="M 131.82 38.13 C 133.14 38.57 134.48 38.96 135.81 39.40 C 130.65 43.63 133.49 47.94 125.87 50.87 C 127.51 46.46 129.55 42.25 131.82 38.13 Z" fill="#66677c" />
<path d="M 92.99 42.09 C 88.77 45.41 81.02 47.36 75.81 48.40 C 78.43 46.77 81.17 45.36 83.92 43.95 C 86.97 43.41 89.92 42.50 92.99 42.09 Z" fill="#555568" />
<path d="M 187.83 48.26 C 193.01 55.55 195.97 65.97 193.12 75.05 C 191.10 69.61 190.53 63.89 188.92 58.35 C 192.26 54.72 185.14 49.86 187.83 48.26 Z" fill="#3e4058" />
<path d="M 219.12 48.77 C 222.75 50.96 222.83 53.42 221.75 57.19 C 220.85 54.39 219.87 51.63 219.12 48.77 Z" fill="#abadbf" />
<path d="M 85.25 52.19 C 82.97 54.21 77.86 57.35 75.68 53.71 C 78.82 52.84 81.97 52.18 85.25 52.19 Z" fill="#4d4f69" />
<path d="M 185.99 53.04 C 186.91 54.85 187.75 56.67 188.92 58.35 C 190.53 63.89 191.10 69.61 193.12 75.05 C 191.72 78.11 192.34 81.47 191.04 84.51 C 189.02 80.42 190.90 75.12 190.27 70.60 C 189.93 63.56 183.96 60.42 185.99 53.04 Z" fill="#a9acba" />
<path d="M 56.90 54.06 C 57.35 56.62 53.56 56.25 51.91 57.07 C 51.43 56.35 50.76 55.90 49.91 55.74 C 52.10 54.78 54.51 54.20 56.90 54.06 Z" fill="#b0b1b6" />
<path d="M 49.91 55.74 C 50.76 55.90 51.43 56.35 51.91 57.07 L 51.30 57.60 C 50.23 57.67 49.33 57.42 48.61 56.85 L 49.91 55.74 Z" fill="#4a4a54" />
<path d="M 218.98 55.74 C 220.46 59.11 221.08 62.11 221.22 65.79 C 220.89 69.34 221.17 71.13 223.08 74.13 L 223.27 74.94 C 220.27 82.91 220.94 90.55 220.74 98.71 C 220.40 102.47 220.83 106.15 220.01 109.91 C 219.32 117.17 215.73 123.03 213.79 129.90 C 211.80 134.41 211.16 139.07 208.19 143.19 C 206.57 145.39 206.98 146.97 207.67 149.43 L 206.68 150.28 C 203.15 146.69 206.41 144.37 207.47 140.62 C 208.55 132.67 212.03 126.94 208.74 118.75 C 209.44 115.06 210.26 112.86 212.76 110.04 C 209.78 105.68 212.28 105.95 215.00 102.82 C 210.50 96.44 212.54 87.59 213.45 80.29 C 215.34 77.34 214.26 75.06 213.86 71.86 C 215.23 65.65 212.39 59.91 218.98 55.74 Z" fill="#e2d6c3" />
<path d="M 48.61 56.85 C 49.33 57.42 50.23 57.67 51.30 57.60 L 52.34 58.23 C 49.85 59.16 49.27 61.26 47.54 58.02 L 48.61 56.85 Z" fill="#aeafbc" />
<path d="M 57.04 57.23 C 58.82 56.85 60.42 57.20 62.19 57.37 C 60.76 60.56 58.87 58.93 57.04 57.23 Z" fill="#818493" />
<path d="M 221.22 65.79 C 222.54 68.65 223.01 70.97 223.08 74.13 C 221.17 71.13 220.89 69.34 221.22 65.79 Z" fill="#9c969c" />
<path d="M 99.21 69.34 C 96.59 70.17 93.89 69.98 91.13 70.10 C 93.56 66.89 95.92 69.11 99.21 69.34 Z" fill="#868496" />
<path d="M 38.83 70.10 C 40.54 70.76 44.66 69.56 45.17 71.66 C 43.67 73.61 42.80 76.03 40.94 77.58 L 40.13 77.06 C 40.32 75.49 40.59 73.93 40.81 72.37 C 39.22 72.72 38.00 74.84 37.75 72.02 C 38.11 71.38 38.47 70.74 38.83 70.10 Z" fill="#4a4b5e" />
<path d="M 37.75 72.02 C 38.00 74.84 39.22 72.72 40.81 72.37 C 40.59 73.93 40.32 75.49 40.13 77.06 C 38.71 76.77 37.29 76.48 35.86 76.22 C 35.98 74.73 37.09 73.32 37.75 72.02 Z" fill="#9596a1" />
<path d="M 45.17 71.66 L 45.97 73.11 C 46.12 76.24 45.58 78.97 47.29 81.78 C 49.73 82.43 51.68 81.55 53.99 80.89 C 50.83 84.52 40.88 87.52 43.84 94.06 C 41.28 91.57 38.14 90.10 35.98 87.28 C 38.77 88.10 47.57 83.85 45.34 80.71 C 44.21 79.37 42.32 78.67 40.94 77.58 C 42.80 76.03 43.67 73.61 45.17 71.66 Z" fill="#696c81" />
<path d="M 213.86 71.86 C 214.26 75.06 215.34 77.34 213.45 80.29 C 212.54 87.59 210.50 96.44 215.00 102.82 C 212.28 105.95 209.78 105.68 212.76 110.04 C 210.26 112.86 209.44 115.06 208.74 118.75 C 206.53 128.44 203.54 137.74 198.07 146.12 C 197.20 142.86 196.05 140.62 194.04 137.95 C 195.26 137.17 196.56 136.53 197.80 135.79 C 193.85 133.53 190.50 126.63 186.91 133.05 C 187.09 131.24 187.84 129.80 188.79 128.29 C 196.82 128.50 194.14 121.76 199.48 118.53 C 199.78 117.81 200.06 117.08 200.32 116.34 C 202.25 114.14 205.07 108.51 199.97 108.50 C 197.57 108.48 198.94 106.77 197.19 105.67 C 197.79 103.12 198.59 100.63 199.12 98.06 C 200.00 100.33 203.26 98.83 204.39 97.73 C 204.46 93.59 204.99 88.73 203.12 84.93 L 203.83 84.75 C 206.63 84.54 212.04 84.31 211.70 80.34 C 210.96 75.28 208.53 75.32 213.86 71.86 Z" fill="#a3afc5" />
<path d="M 45.97 73.11 C 50.09 76.69 56.65 72.09 59.45 79.68 C 56.17 83.43 57.06 80.10 53.99 80.89 C 51.68 81.55 49.73 82.43 47.29 81.78 C 45.58 78.97 46.12 76.24 45.97 73.11 Z" fill="#363752" />
<path d="M 86.34 74.61 C 86.75 82.32 97.23 81.48 97.90 88.13 C 94.34 87.19 89.49 86.86 86.69 84.30 C 83.41 81.93 82.52 76.92 86.34 74.61 Z" fill="#a9b1c3" />
<path d="M 223.27 74.94 C 223.36 80.75 225.79 85.08 223.46 90.78 C 221.10 92.33 223.52 93.90 224.01 95.91 L 223.78 96.84 C 222.58 99.47 223.75 102.57 220.74 98.71 C 220.94 90.55 220.27 82.91 223.27 74.94 Z" fill="#a8a3a4" />
<path d="M 225.34 74.96 C 226.55 77.05 226.40 78.76 225.76 81.02 C 224.33 78.99 224.61 77.21 225.34 74.96 Z" fill="#878599" />
<path d="M 35.86 76.22 C 37.29 76.48 38.71 76.77 40.13 77.06 C 39.75 80.85 36.06 85.46 35.98 87.28 C 38.14 90.10 41.28 91.57 43.84 94.06 C 42.86 95.71 41.90 97.37 41.07 99.10 C 40.42 100.37 39.82 101.66 39.20 102.95 C 37.85 102.34 36.52 101.68 35.21 100.99 C 29.00 97.94 26.55 92.32 24.79 86.00 C 25.56 85.27 26.33 84.53 27.08 83.78 C 31.69 88.38 36.46 81.12 35.86 76.22 Z" fill="#272942" />
<path d="M 144.18 76.17 C 147.38 76.67 143.72 81.93 143.64 83.88 C 142.88 85.34 142.08 86.78 141.33 88.25 C 139.60 83.37 139.36 84.79 134.70 84.69 C 135.70 83.22 136.71 81.76 137.73 80.30 C 139.97 79.05 142.07 77.62 144.18 76.17 Z" fill="#5b5a6b" />
<path d="M 40.13 77.06 L 40.94 77.58 C 42.32 78.67 44.21 79.37 45.34 80.71 C 47.57 83.85 38.77 88.10 35.98 87.28 C 36.06 85.46 39.75 80.85 40.13 77.06 Z" fill="#8a899c" />
<path d="M 59.45 79.68 C 60.64 82.12 61.15 83.34 60.20 86.01 C 57.41 85.09 55.81 83.05 53.99 80.89 C 57.06 80.10 56.17 83.43 59.45 79.68 Z" fill="#69728a" />
<path d="M 53.99 80.89 C 55.81 83.05 57.41 85.09 60.20 86.01 C 61.77 86.68 63.29 87.34 64.72 88.29 C 63.57 93.82 64.14 93.64 69.07 91.96 C 73.32 88.73 77.65 90.48 82.77 89.73 C 84.25 89.82 85.73 89.91 87.21 90.00 C 88.63 92.88 83.18 92.73 81.78 94.60 C 80.86 95.30 79.95 96.00 79.01 96.68 C 77.57 96.46 76.21 96.21 74.77 96.60 C 66.90 96.95 68.11 105.24 74.76 106.33 C 76.28 106.84 77.65 106.43 79.17 106.17 C 81.03 105.87 82.59 105.01 84.16 104.01 C 86.15 102.77 87.55 101.85 90.04 102.10 C 86.75 104.88 82.83 108.14 78.44 108.76 C 73.79 110.11 70.71 113.99 65.64 113.45 C 62.14 113.69 57.87 113.01 57.99 117.79 C 53.02 118.70 56.61 113.36 52.50 111.08 C 53.58 114.26 46.96 117.96 45.03 114.97 C 43.88 113.44 42.84 112.55 41.11 111.70 L 41.17 111.20 C 41.32 107.43 44.66 104.03 39.20 102.95 C 39.82 101.66 40.42 100.37 41.07 99.10 C 45.74 99.56 49.41 96.92 43.84 94.06 C 40.88 87.52 50.83 84.52 53.99 80.89 Z" fill="#a5b2c6" />
<path d="M 27.08 83.78 C 26.33 84.53 25.56 85.27 24.79 86.00 C 23.42 83.87 25.14 80.46 27.08 83.78 Z" fill="#899098" />
<path d="M 141.33 88.25 C 139.33 93.78 138.69 97.88 132.13 99.15 C 127.32 100.40 123.08 100.78 126.17 94.38 C 127.11 94.02 128.06 93.64 129.00 93.26 C 131.54 91.00 131.83 87.01 134.70 84.69 C 139.36 84.79 139.60 83.37 141.33 88.25 Z" fill="#28273e" />
<path d="M 119.12 88.08 C 117.33 90.19 115.53 91.83 113.07 93.11 C 109.93 93.93 107.10 94.95 103.85 95.11 C 104.11 92.84 103.96 91.44 106.04 90.10 C 107.05 89.72 108.05 89.33 109.05 88.93 C 111.16 89.43 112.67 89.69 113.13 87.10 C 116.01 85.62 118.16 83.19 119.12 88.08 Z" fill="#29293f" />
<path d="M 203.12 84.93 C 204.99 88.73 204.46 93.59 204.39 97.73 C 203.26 98.83 200.00 100.33 199.12 98.06 C 200.41 95.10 199.58 85.20 203.12 84.93 Z" fill="#d6dae3" />
<path d="M 126.09 86.26 C 130.29 86.61 125.18 93.13 129.00 93.26 C 128.06 93.64 127.11 94.02 126.17 94.38 C 122.69 95.56 118.80 98.45 115.09 97.89 C 114.82 94.76 118.42 92.08 119.41 89.10 C 121.68 88.25 123.85 87.17 126.09 86.26 Z" fill="#4e4c57" />
<path d="M 31.38 87.19 C 31.78 91.93 36.57 86.50 31.38 87.19 Z" fill="#9899ae" />
<path d="M 113.13 87.10 C 112.67 89.69 111.16 89.43 109.05 88.93 C 110.20 87.73 111.54 87.36 113.13 87.10 Z" fill="#6e6e82" />
<path d="M 64.72 88.29 C 66.12 89.59 67.46 90.90 69.07 91.96 C 64.14 93.64 63.57 93.82 64.72 88.29 Z" fill="#6c7590" />
<path d="M 119.12 88.08 L 119.41 89.10 C 118.42 92.08 114.82 94.76 115.09 97.89 C 118.80 98.45 122.69 95.56 126.17 94.38 C 123.08 100.78 127.32 100.40 132.13 99.15 C 130.63 100.72 128.99 101.82 127.11 102.87 C 129.03 102.97 130.93 103.02 132.86 103.17 C 130.59 105.50 128.73 108.09 126.66 110.58 C 120.71 110.71 114.95 109.33 108.93 110.27 C 115.47 113.50 124.03 111.18 130.79 114.28 C 131.25 115.98 130.74 117.46 130.26 119.08 C 130.76 112.69 125.92 116.72 122.02 114.66 C 117.32 115.49 114.31 113.22 109.78 115.12 C 103.04 115.95 96.47 116.06 89.77 114.73 C 89.86 114.22 93.04 111.19 90.94 111.97 C 86.02 111.37 87.45 116.55 84.01 118.38 C 76.85 115.96 68.33 115.93 61.07 118.03 C 59.16 118.30 60.91 120.28 61.23 121.21 C 57.23 122.83 57.07 121.03 57.99 117.79 C 57.87 113.01 62.14 113.69 65.64 113.45 C 70.71 113.99 73.79 110.11 78.44 108.76 C 82.83 108.14 86.75 104.88 90.04 102.10 C 87.55 101.85 86.15 102.77 84.16 104.01 C 84.05 99.44 83.94 97.59 79.01 96.68 C 79.95 96.00 80.86 95.30 81.78 94.60 C 84.98 99.36 91.13 100.80 96.32 102.83 C 99.71 104.58 101.01 101.14 104.14 100.24 C 106.25 99.94 108.44 100.02 110.54 99.67 C 111.11 97.29 111.65 95.15 113.07 93.11 C 115.53 91.83 117.33 90.19 119.12 88.08 Z" fill="#dccdb5" />
<path d="M 94.15 89.91 C 91.84 89.93 89.53 90.00 87.21 90.00 C 85.73 89.91 84.25 89.82 82.77 89.73 C 86.59 88.77 90.41 88.39 94.15 89.91 Z" fill="#686c82" />
<path d="M 98.22 88.90 C 99.83 89.05 101.44 89.23 103.03 89.56 C 102.84 90.40 102.66 91.25 102.51 92.10 C 100.01 91.34 97.43 90.91 94.94 90.14 C 96.04 89.74 97.13 89.33 98.22 88.90 Z" fill="#ababb4" />
<path d="M 190.90 88.97 C 190.54 92.68 189.27 96.19 188.98 99.92 C 185.28 102.12 186.53 98.00 186.70 95.90 L 187.14 95.21 C 188.78 93.32 188.98 90.52 190.90 88.97 Z" fill="#323248" />
<path d="M 226.37 88.78 C 226.87 91.20 227.09 93.53 226.99 96.00 C 226.00 95.97 225.01 95.94 224.01 95.91 C 223.52 93.90 221.10 92.33 223.46 90.78 C 226.66 96.57 225.59 92.76 226.37 88.78 Z" fill="#787778" />
<path d="M 87.21 90.00 C 89.53 90.00 91.84 89.93 94.15 89.91 L 94.94 90.14 C 97.43 90.91 100.01 91.34 102.51 92.10 C 102.93 93.12 103.37 94.12 103.85 95.11 C 107.10 94.95 109.93 93.93 113.07 93.11 C 111.65 95.15 111.11 97.29 110.54 99.67 C 108.44 100.02 106.25 99.94 104.14 100.24 C 101.01 101.14 99.71 104.58 96.32 102.83 C 91.13 100.80 84.98 99.36 81.78 94.60 C 83.18 92.73 88.63 92.88 87.21 90.00 Z" fill="#ececec" />
<path d="M 103.03 89.56 C 104.03 89.75 105.03 89.93 106.04 90.10 C 103.96 91.44 104.11 92.84 103.85 95.11 C 103.37 94.12 102.93 93.12 102.51 92.10 C 102.66 91.25 102.84 90.40 103.03 89.56 Z" fill="#656375" />
<path d="M 43.84 94.06 C 49.41 96.92 45.74 99.56 41.07 99.10 C 41.90 97.37 42.86 95.71 43.84 94.06 Z" fill="#545e77" />
<path d="M 79.01 96.68 C 79.54 99.99 80.48 102.88 79.17 106.17 C 77.65 106.43 76.28 106.84 74.76 106.33 C 75.02 103.06 75.02 99.87 74.77 96.60 C 76.21 96.21 77.57 96.46 79.01 96.68 Z" fill="#636459" />
<path d="M 186.70 95.90 C 186.53 98.00 185.28 102.12 188.98 99.92 C 193.69 99.11 191.80 104.81 191.76 107.67 C 188.94 109.38 187.93 109.32 187.70 113.03 C 185.24 109.10 186.30 104.55 184.23 100.67 L 183.83 99.75 C 184.78 98.47 185.74 97.18 186.70 95.90 Z" fill="#979bac" />
<path d="M 224.01 95.91 C 225.01 95.94 226.00 95.97 226.99 96.00 L 226.95 97.85 C 225.39 102.79 224.37 100.32 223.78 96.84 L 224.01 95.91 Z" fill="#35333b" />
<path d="M 74.77 96.60 C 75.02 99.87 75.02 103.06 74.76 106.33 C 68.11 105.24 66.90 96.95 74.77 96.60 Z" fill="#cdc16b" />
<path d="M 79.01 96.68 C 83.94 97.59 84.05 99.44 84.16 104.01 C 82.59 105.01 81.03 105.87 79.17 106.17 C 80.48 102.88 79.54 99.99 79.01 96.68 Z" fill="#d7ca67" />
<path d="M 223.78 96.84 C 224.37 100.32 225.39 102.79 226.95 97.85 C 226.91 102.65 226.09 107.46 225.38 112.20 C 224.86 105.73 224.05 108.25 222.33 112.13 C 221.69 109.90 222.86 108.71 220.01 109.91 C 220.83 106.15 220.40 102.47 220.74 98.71 C 223.75 102.57 222.58 99.47 223.78 96.84 Z" fill="#7d777b" />
<path d="M 183.83 99.75 L 184.23 100.67 C 182.23 107.69 183.45 115.63 183.89 122.84 C 180.94 122.62 178.55 122.36 175.68 123.31 C 173.54 123.23 171.68 121.94 169.57 123.56 C 166.57 126.24 161.89 127.99 159.93 131.53 C 159.38 132.08 158.81 132.62 158.23 133.15 C 157.11 132.73 155.97 132.32 154.83 131.93 C 156.17 130.59 157.65 129.34 158.88 127.90 C 159.83 126.23 158.76 123.40 161.28 123.23 C 161.28 124.39 161.26 125.55 161.28 126.71 C 165.86 123.42 170.13 122.32 171.40 116.10 C 172.22 114.19 171.71 112.50 171.26 110.58 L 171.10 109.86 C 175.19 114.19 174.68 109.12 176.70 106.26 C 181.39 106.30 180.07 101.92 183.83 99.75 Z" fill="#cbd3de" />
<path d="M 35.21 100.99 C 36.52 101.68 37.85 102.34 39.20 102.95 C 44.66 104.03 41.32 107.43 41.17 111.20 C 38.94 110.62 37.14 110.77 34.95 111.42 C 33.45 110.91 32.08 110.35 30.88 109.30 C 31.65 106.07 34.09 104.02 35.21 100.99 Z" fill="#bec6d4" />
<path d="M 184.23 100.67 C 186.30 104.55 185.24 109.10 187.70 113.03 L 188.07 113.83 C 188.09 118.79 187.50 123.41 188.79 128.29 C 187.84 129.80 187.09 131.24 186.91 133.05 C 186.22 135.72 187.13 137.55 187.89 140.03 C 187.45 142.71 185.81 145.81 183.05 146.73 C 176.11 147.05 173.10 147.04 169.22 153.23 C 164.10 155.79 159.84 158.53 154.83 161.20 C 148.75 159.60 150.24 157.02 146.73 153.92 C 146.54 158.47 144.15 162.37 139.19 162.41 C 139.68 163.87 140.36 165.25 140.89 166.70 C 138.10 166.83 136.27 165.35 133.90 164.17 C 132.35 164.54 132.52 168.21 131.99 169.60 C 130.31 169.01 126.37 166.90 125.94 169.95 C 125.54 171.67 124.28 172.34 123.03 173.41 C 117.01 171.92 116.54 164.46 110.88 167.76 C 108.96 169.26 107.34 171.36 105.79 173.23 C 104.41 170.60 103.30 167.86 102.25 165.08 C 103.48 158.60 105.31 160.26 110.86 159.92 C 110.35 160.80 109.81 161.70 109.37 162.62 C 114.84 163.96 119.51 168.19 124.28 163.06 C 126.36 161.88 124.23 159.70 124.20 157.90 C 126.80 159.89 128.36 160.38 131.70 159.93 C 134.80 159.17 138.88 159.79 140.19 156.24 C 140.53 153.58 142.74 150.16 139.09 149.12 C 140.18 148.91 141.24 148.63 142.28 148.28 C 143.18 148.04 143.95 147.64 144.62 147.10 C 148.54 143.69 152.23 140.38 156.71 137.69 C 158.13 136.28 162.24 133.68 159.93 131.53 C 161.89 127.99 166.57 126.24 169.57 123.56 C 171.68 121.94 173.54 123.23 175.68 123.31 C 178.55 122.36 180.94 122.62 183.89 122.84 C 183.45 115.63 182.23 107.69 184.23 100.67 Z" fill="#b8c6db" />
<path d="M 168.01 102.51 C 171.53 103.03 174.42 103.04 177.94 102.49 C 177.58 103.76 177.13 105.01 176.70 106.26 C 174.68 109.12 175.19 114.19 171.10 109.86 C 170.14 107.38 168.95 105.00 168.01 102.51 Z" fill="#70749b" />
<path d="M 25.05 103.10 C 27.40 102.98 27.06 105.38 27.92 107.00 L 26.92 107.18 C 25.61 105.84 24.81 105.13 25.05 103.10 Z" fill="#9d9da5" />
<path d="M 222.13 103.15 C 225.97 102.73 224.80 103.52 224.91 106.58 C 221.22 106.85 222.06 106.65 222.13 103.15 Z" fill="#3c3b43" />
<path d="M 197.19 105.67 C 198.94 106.77 197.57 108.48 199.97 108.50 C 205.07 108.51 202.25 114.14 200.32 116.34 C 197.19 110.35 195.99 117.74 195.74 111.91 C 196.11 109.79 196.59 107.73 197.19 105.67 Z" fill="#c3cbdb" />
<path d="M 26.92 107.18 L 27.92 107.00 C 28.91 107.75 29.89 108.53 30.88 109.30 C 32.08 110.35 33.45 110.91 34.95 111.42 C 37.11 112.44 38.85 112.38 41.11 111.70 C 42.84 112.55 43.88 113.44 45.03 114.97 C 44.94 117.66 46.03 119.45 47.22 121.72 C 48.52 123.94 46.43 126.50 47.75 128.94 C 48.11 129.88 48.45 130.81 48.76 131.76 C 45.90 132.99 46.41 136.49 49.93 136.18 C 50.24 136.83 50.55 137.49 50.87 138.14 L 51.20 139.92 C 50.60 141.60 50.45 142.83 52.00 144.01 C 52.70 147.85 53.65 151.35 55.02 155.01 L 54.77 156.13 C 49.88 150.58 48.31 141.84 44.82 135.21 C 45.01 131.68 43.39 128.97 42.14 125.80 C 41.26 123.17 39.30 121.70 37.19 120.09 C 35.32 118.57 33.53 116.96 31.70 115.38 C 32.59 114.58 35.41 114.59 33.14 113.40 C 31.34 111.96 29.58 110.49 27.91 108.90 C 27.58 108.33 27.25 107.75 26.92 107.18 Z" fill="#262943" />
<path d="M 225.38 112.20 C 225.18 113.45 224.98 114.70 224.77 115.95 C 223.47 117.62 223.60 119.19 224.15 121.13 C 216.04 124.62 222.30 115.71 222.33 112.13 C 224.05 108.25 224.86 105.73 225.38 112.20 Z" fill="#27243c" />
<path d="M 27.91 108.90 C 29.58 110.49 31.34 111.96 33.14 113.40 C 31.62 113.26 30.12 113.06 28.61 112.89 C 26.96 111.31 27.19 110.99 27.91 108.90 Z" fill="#bfc5d1" />
<path d="M 222.33 112.13 C 222.30 115.71 216.04 124.62 224.15 121.13 C 223.13 124.04 223.10 127.14 222.15 130.06 C 222.12 128.06 222.04 126.04 221.77 124.06 C 217.58 123.17 215.96 136.13 221.09 133.14 C 220.92 134.82 220.82 136.49 220.48 138.12 C 218.84 133.23 214.56 137.82 214.81 140.97 C 213.78 144.33 216.10 144.97 218.07 147.11 C 217.69 147.74 217.30 148.37 216.92 149.00 C 212.36 145.36 213.58 145.39 210.64 150.45 C 209.64 150.14 208.65 149.78 207.67 149.43 C 206.98 146.97 206.57 145.39 208.19 143.19 C 211.16 139.07 211.80 134.41 213.79 129.90 C 215.73 123.03 219.32 117.17 220.01 109.91 C 222.86 108.71 221.69 109.90 222.33 112.13 Z" fill="#998d8c" />
<path d="M 171.26 110.58 C 171.71 112.50 172.22 114.19 171.40 116.10 C 168.07 110.80 166.56 115.81 164.73 119.03 C 161.33 119.10 159.73 114.05 158.84 111.40 C 163.53 114.20 166.45 110.53 171.26 110.58 Z" fill="#898bae" />
<path d="M 34.95 111.42 C 37.14 110.77 38.94 110.62 41.17 111.20 L 41.11 111.70 C 38.85 112.38 37.11 112.44 34.95 111.42 Z" fill="#636c7e" />
<path d="M 52.50 111.08 C 56.61 113.36 53.02 118.70 57.99 117.79 C 57.07 121.03 57.23 122.83 61.23 121.21 C 65.88 124.33 63.26 131.79 64.85 136.92 C 63.06 134.34 61.34 135.61 58.86 136.11 C 56.14 136.09 54.75 134.98 52.06 136.57 C 53.08 132.27 53.31 126.98 49.39 124.02 C 49.61 126.83 49.82 127.05 47.75 128.94 C 46.43 126.50 48.52 123.94 47.22 121.72 C 46.03 119.45 44.94 117.66 45.03 114.97 C 46.96 117.96 53.58 114.26 52.50 111.08 Z" fill="#8a92b6" />
<path d="M 33.14 113.40 C 35.41 114.59 32.59 114.58 31.70 115.38 L 30.73 115.13 C 30.01 114.39 29.31 113.64 28.61 112.89 C 30.12 113.06 31.62 113.26 33.14 113.40 Z" fill="#5f6478" />
<path d="M 90.94 111.97 C 93.04 111.19 89.86 114.22 89.77 114.73 C 87.75 115.92 86.54 120.08 84.01 118.38 C 87.45 116.55 86.02 111.37 90.94 111.97 Z" fill="#b3a292" />
<path d="M 195.74 111.91 C 195.99 117.74 197.19 110.35 200.32 116.34 C 200.06 117.08 199.78 117.81 199.48 118.53 C 194.14 121.76 196.82 128.50 188.79 128.29 C 187.50 123.41 188.09 118.79 188.07 113.83 C 189.09 115.22 190.03 116.66 191.06 118.04 C 192.77 116.12 194.33 114.06 195.74 111.91 Z" fill="#929bb6" />
<path d="M 171.40 116.10 C 170.13 122.32 165.86 123.42 161.28 126.71 C 161.26 125.55 161.28 124.39 161.28 123.23 C 163.58 122.10 167.73 122.58 164.73 119.03 C 166.56 115.81 168.07 110.80 171.40 116.10 Z" fill="#5e6093" />
<path d="M 122.02 114.66 C 119.03 119.30 114.19 115.12 109.78 115.12 C 114.31 113.22 117.32 115.49 122.02 114.66 Z" fill="#bca594" />
<path d="M 30.73 115.13 L 31.70 115.38 C 33.53 116.96 35.32 118.57 37.19 120.09 C 33.59 121.14 30.28 119.00 30.73 115.13 Z" fill="#b8b7d1" />
<path d="M 89.77 114.73 C 96.47 116.06 103.04 115.95 109.78 115.12 C 114.19 115.12 119.03 119.30 122.02 114.66 C 125.92 116.72 130.76 112.69 130.26 119.08 C 129.64 121.17 129.26 123.21 128.01 125.05 C 123.18 125.08 123.46 125.16 122.74 129.75 C 122.11 130.50 121.48 131.24 120.85 131.99 C 118.84 131.16 116.93 130.14 115.01 129.12 C 120.11 130.42 116.10 124.05 114.38 123.00 C 115.24 127.98 112.59 125.70 111.09 123.24 C 108.84 124.09 106.80 125.66 104.94 127.16 C 103.50 125.65 102.72 125.56 100.99 126.70 C 100.37 126.35 99.76 125.99 99.15 125.62 C 95.76 122.51 91.50 124.09 91.76 128.92 C 91.36 130.84 91.07 132.78 90.82 134.72 C 89.54 138.30 90.49 140.82 91.90 144.14 L 92.11 144.86 C 91.03 145.54 89.82 145.21 90.20 146.90 C 91.59 150.64 93.67 154.95 96.02 158.17 C 98.36 160.43 100.87 161.95 102.25 165.08 C 103.30 167.86 104.41 170.60 105.79 173.23 C 102.84 178.98 102.69 182.90 109.95 184.17 L 109.85 185.85 C 108.31 188.74 113.72 190.53 115.27 192.38 C 110.55 194.11 105.78 194.13 100.83 194.11 C 97.65 183.72 84.95 175.22 78.56 166.42 C 74.52 158.50 68.75 152.16 64.84 144.14 C 63.54 141.60 64.59 139.53 64.85 136.92 C 63.26 131.79 65.88 124.33 61.23 121.21 C 60.91 120.28 59.16 118.30 61.07 118.03 C 68.33 115.93 76.85 115.96 84.01 118.38 C 86.54 120.08 87.75 115.92 89.77 114.73 Z" fill="#7d6563" />
<path d="M 224.77 115.95 C 225.36 117.92 225.56 119.45 224.15 121.13 C 223.60 119.19 223.47 117.62 224.77 115.95 Z" fill="#8f909d" />
<path d="M 208.74 118.75 C 212.03 126.94 208.55 132.67 207.47 140.62 C 206.41 144.37 203.15 146.69 206.68 150.28 C 204.84 154.13 204.33 158.22 207.11 161.80 C 208.70 163.77 206.17 162.36 205.17 162.47 C 200.18 157.21 197.43 161.25 195.00 166.00 C 193.83 169.57 189.86 170.59 186.59 169.31 C 186.91 166.40 187.47 163.70 188.68 161.02 C 193.79 163.82 191.58 159.45 191.66 156.32 C 190.55 152.89 194.31 154.45 196.37 153.37 C 196.53 150.60 196.36 148.52 198.07 146.12 C 203.54 137.74 206.53 128.44 208.74 118.75 Z" fill="#dbccb5" />
<path d="M 111.09 123.24 C 112.59 125.70 115.24 127.98 114.38 123.00 C 116.10 124.05 120.11 130.42 115.01 129.12 C 111.65 127.47 108.41 128.08 104.77 127.94 L 104.94 127.16 C 106.80 125.66 108.84 124.09 111.09 123.24 Z" fill="#c1b2a9" />
<path d="M 49.39 124.02 C 53.31 126.98 53.08 132.27 52.06 136.57 C 54.75 134.98 56.14 136.09 58.86 136.11 C 58.80 137.92 57.53 140.94 58.57 142.47 C 61.22 145.22 60.55 149.70 61.81 153.29 C 65.93 159.86 68.29 166.04 76.19 168.90 C 78.77 173.42 79.46 178.50 84.14 181.89 C 86.27 183.74 86.31 183.81 85.00 186.38 C 79.19 185.46 78.02 182.65 77.06 177.29 C 73.50 181.33 73.89 175.13 72.07 172.94 C 69.63 169.15 65.47 167.61 64.10 162.89 C 62.79 158.33 58.45 156.46 56.96 152.20 C 55.48 147.55 53.83 143.25 53.69 138.29 C 52.75 138.22 51.81 138.17 50.87 138.14 C 50.55 137.49 50.24 136.83 49.93 136.18 C 49.59 134.69 49.22 133.21 48.76 131.76 C 48.45 130.81 48.11 129.88 47.75 128.94 C 49.82 127.05 49.61 126.83 49.39 124.02 Z" fill="#b3b9c7" />
<path d="M 99.15 125.62 C 96.10 125.88 94.12 127.17 91.76 128.92 C 91.50 124.09 95.76 122.51 99.15 125.62 Z" fill="#b4b2b5" />
<path d="M 137.97 124.13 C 140.06 125.44 142.03 126.97 143.97 128.50 C 142.82 131.03 143.42 133.36 143.15 136.01 C 139.09 134.73 138.80 127.74 137.97 124.13 Z" fill="#9195b3" />
<path d="M 221.77 124.06 C 222.04 126.04 222.12 128.06 222.15 130.06 C 221.80 131.09 221.45 132.11 221.09 133.14 C 215.96 136.13 217.58 123.17 221.77 124.06 Z" fill="#363044" />
<path d="M 128.01 125.05 C 128.01 128.51 126.71 135.15 122.74 129.75 C 123.46 125.16 123.18 125.08 128.01 125.05 Z" fill="#dccdb9" />
<path d="M 42.14 125.80 C 43.39 128.97 45.01 131.68 44.82 135.21 C 43.15 132.00 41.65 129.63 42.14 125.80 Z" fill="#8f8ea4" />
<path d="M 104.94 127.16 L 104.77 127.94 C 103.31 127.97 102.20 127.48 100.99 126.70 C 102.72 125.56 103.50 125.65 104.94 127.16 Z" fill="#292436" />
<path d="M 104.77 127.94 C 108.41 128.08 111.65 127.47 115.01 129.12 C 116.93 130.14 118.84 131.16 120.85 131.99 C 121.67 132.37 122.48 132.78 123.27 133.21 C 121.98 137.28 115.64 137.42 112.24 139.20 C 112.81 139.81 113.40 140.40 114.00 140.97 C 111.59 141.54 109.22 142.05 106.94 143.05 C 106.23 142.77 105.52 142.49 104.81 142.20 C 107.60 140.93 108.75 139.67 110.26 137.06 C 111.54 135.66 111.81 134.22 110.22 132.92 C 108.50 131.15 106.61 129.58 104.77 127.94 Z" fill="#25253b" />
<path d="M 143.97 128.50 C 144.65 128.99 145.34 129.48 146.02 129.98 C 146.77 133.24 153.35 133.47 150.37 136.10 C 153.76 136.16 155.87 135.66 158.23 133.15 C 158.81 132.62 159.38 132.08 159.93 131.53 C 162.24 133.68 158.13 136.28 156.71 137.69 C 152.23 140.38 148.54 143.69 144.62 147.10 C 144.00 143.43 143.59 139.71 143.15 136.01 C 143.42 133.36 142.82 131.03 143.97 128.50 Z" fill="#5b6397" />
<path d="M 146.02 129.98 C 148.91 130.94 151.75 131.83 154.83 131.93 C 155.97 132.32 157.11 132.73 158.23 133.15 C 155.87 135.66 153.76 136.16 150.37 136.10 C 153.35 133.47 146.77 133.24 146.02 129.98 Z" fill="#8b91b5" />
<path d="M 197.80 135.79 C 196.56 136.53 195.26 137.17 194.04 137.95 C 196.05 140.62 197.20 142.86 198.07 146.12 C 196.36 148.52 196.53 150.60 196.37 153.37 C 194.31 154.45 190.55 152.89 191.66 156.32 C 187.97 155.46 191.04 152.40 186.06 151.18 C 185.20 149.58 184.30 148.06 183.05 146.73 C 185.81 145.81 187.45 142.71 187.89 140.03 C 187.13 137.55 186.22 135.72 186.91 133.05 C 190.50 126.63 193.85 133.53 197.80 135.79 Z" fill="#8c97bc" />
<path d="M 48.76 131.76 C 49.22 133.21 49.59 134.69 49.93 136.18 C 46.41 136.49 45.90 132.99 48.76 131.76 Z" fill="#5b5f7b" />
<path d="M 110.22 132.92 C 111.81 134.22 111.54 135.66 110.26 137.06 C 109.78 135.64 109.77 134.26 110.22 132.92 Z" fill="#9997ae" />
<path d="M 123.27 133.21 C 128.42 137.21 116.63 140.32 114.00 140.97 C 113.40 140.40 112.81 139.81 112.24 139.20 C 115.64 137.42 121.98 137.28 123.27 133.21 Z" fill="#93939e" />
<path d="M 64.85 136.92 C 64.59 139.53 63.54 141.60 64.84 144.14 C 68.75 152.16 74.52 158.50 78.56 166.42 C 84.95 175.22 97.65 183.72 100.83 194.11 C 100.27 194.39 99.71 194.66 99.15 194.94 C 95.68 194.78 95.63 191.08 92.34 191.50 C 89.15 192.01 86.75 188.57 85.00 186.38 C 86.31 183.81 86.27 183.74 84.14 181.89 C 79.46 178.50 78.77 173.42 76.19 168.90 C 68.29 166.04 65.93 159.86 61.81 153.29 C 60.55 149.70 61.22 145.22 58.57 142.47 C 57.53 140.94 58.80 137.92 58.86 136.11 C 61.34 135.61 63.06 134.34 64.85 136.92 Z" fill="#d2c7b5" />
<path d="M 90.82 134.72 C 94.21 139.05 93.95 139.14 91.90 144.14 C 90.49 140.82 89.54 138.30 90.82 134.72 Z" fill="#cec2b5" />
<path d="M 143.15 136.01 C 143.59 139.71 144.00 143.43 144.62 147.10 C 143.95 147.64 143.18 148.04 142.28 148.28 C 142.28 144.56 140.93 139.22 143.15 136.01 Z" fill="#979ebb" />
<path d="M 220.48 138.12 C 220.05 139.47 219.49 140.76 218.92 142.06 C 217.47 143.59 217.49 145.19 218.07 147.11 C 216.10 144.97 213.78 144.33 214.81 140.97 C 214.56 137.82 218.84 133.23 220.48 138.12 Z" fill="#343246" />
<path d="M 50.87 138.14 C 51.81 138.17 52.75 138.22 53.69 138.29 C 53.83 143.25 55.48 147.55 56.96 152.20 C 58.45 156.46 62.79 158.33 64.10 162.89 C 65.47 167.61 69.63 169.15 72.07 172.94 C 73.89 175.13 73.50 181.33 77.06 177.29 C 78.02 182.65 79.19 185.46 85.00 186.38 C 86.75 188.57 89.15 192.01 92.34 191.50 C 95.63 191.08 95.68 194.78 99.15 194.94 C 97.82 197.29 95.71 197.65 99.70 197.81 C 105.90 201.93 112.63 204.81 118.97 208.72 C 115.03 210.59 114.55 212.65 110.29 209.74 C 107.32 209.24 108.87 204.35 106.38 205.91 C 105.77 205.16 104.97 204.83 103.98 204.93 C 101.47 203.77 101.12 202.23 100.03 199.90 C 98.96 200.81 97.98 201.79 96.94 202.72 C 96.67 200.00 97.72 199.21 94.40 198.85 L 92.94 197.91 C 91.44 195.13 90.26 193.91 89.10 197.76 C 88.40 197.33 87.73 196.86 87.08 196.35 C 89.49 193.77 82.91 191.07 80.82 192.61 C 80.15 192.28 79.61 191.76 79.19 191.04 C 84.15 191.79 81.68 186.54 78.78 190.46 C 80.23 187.94 73.62 182.44 71.58 183.89 C 69.90 182.53 68.79 181.19 67.77 179.28 C 67.31 175.91 66.71 174.96 64.01 172.99 C 63.15 170.61 62.35 169.04 60.04 167.79 C 59.44 166.60 58.91 165.38 58.42 164.13 C 59.36 161.06 56.19 157.77 55.02 155.01 C 53.65 151.35 52.70 147.85 52.00 144.01 C 52.40 142.32 52.43 141.25 51.20 139.92 L 50.87 138.14 Z" fill="#d8dadf" />
<path d="M 51.20 139.92 C 52.43 141.25 52.40 142.32 52.00 144.01 C 50.45 142.83 50.60 141.60 51.20 139.92 Z" fill="#868d9a" />
<path d="M 104.81 142.20 C 105.52 142.49 106.23 142.77 106.94 143.05 C 103.57 145.70 98.56 142.00 104.81 142.20 Z" fill="#898989" />
<path d="M 218.92 142.06 C 219.33 143.99 219.50 145.55 218.07 147.11 C 217.49 145.19 217.47 143.59 218.92 142.06 Z" fill="#94949e" />
<path d="M 139.09 149.12 C 142.74 150.16 140.53 153.58 140.19 156.24 C 138.88 159.79 134.80 159.17 131.70 159.93 C 131.69 158.24 131.91 156.58 132.16 154.91 C 138.30 154.80 125.12 151.60 130.31 151.63 C 134.74 151.42 132.30 148.81 130.98 146.59 C 129.75 138.78 136.30 148.40 139.09 149.12 Z" fill="#656b9a" />
<path d="M 92.11 144.86 C 92.17 152.13 99.16 151.75 96.02 158.17 C 93.67 154.95 91.59 150.64 90.20 146.90 C 89.82 145.21 91.03 145.54 92.11 144.86 Z" fill="#c6bdba" />
<path d="M 216.92 149.00 C 216.58 149.61 216.23 150.21 215.88 150.82 C 212.87 151.26 213.74 151.25 213.60 153.88 C 211.83 152.97 211.25 152.39 210.64 150.45 C 213.58 145.39 212.36 145.36 216.92 149.00 Z" fill="#34343d" />
<path d="M 130.98 146.59 C 132.30 148.81 134.74 151.42 130.31 151.63 C 125.12 151.60 138.30 154.80 132.16 154.91 C 125.25 153.52 128.35 150.52 130.98 146.59 Z" fill="#959abb" />
<path d="M 183.05 146.73 C 184.30 148.06 185.20 149.58 186.06 151.18 C 179.07 150.86 179.42 153.27 176.88 158.85 C 172.93 159.30 167.72 163.63 166.52 167.39 C 165.64 173.14 160.44 172.39 162.16 178.98 C 167.77 177.74 169.66 169.93 172.86 166.00 C 173.83 166.71 174.75 167.47 175.67 168.22 C 177.37 173.29 180.68 174.80 185.15 177.00 L 184.71 178.66 C 180.07 183.27 178.86 189.99 173.30 194.12 C 169.19 191.33 167.37 183.42 162.36 183.17 C 161.22 186.13 161.64 192.11 158.10 193.20 C 156.93 191.85 155.85 190.47 154.86 188.99 C 156.07 186.71 156.15 184.34 156.10 181.81 C 156.39 176.77 154.43 172.64 152.79 168.05 C 154.85 165.14 155.95 164.82 154.83 161.20 C 159.84 158.53 164.10 155.79 169.22 153.23 C 173.10 147.04 176.11 147.05 183.05 146.73 Z" fill="#75768c" />
<path d="M 207.67 149.43 C 208.65 149.78 209.64 150.14 210.64 150.45 C 211.25 152.39 211.83 152.97 213.60 153.88 C 213.74 151.25 212.87 151.26 215.88 150.82 C 215.21 154.79 209.00 163.13 213.98 165.77 C 210.48 166.00 211.13 167.36 210.17 169.99 C 208.07 168.92 208.40 166.09 206.26 164.78 C 204.86 162.98 203.34 165.95 202.01 166.65 C 201.30 167.15 200.59 167.66 199.88 168.16 C 200.35 162.95 198.86 161.90 205.17 162.47 C 206.17 162.36 208.70 163.77 207.11 161.80 C 204.33 158.22 204.84 154.13 206.68 150.28 L 207.67 149.43 Z" fill="#807270" />
<path d="M 116.40 151.23 C 118.46 155.62 121.77 158.97 124.28 163.06 C 119.51 168.19 114.84 163.96 109.37 162.62 C 109.81 161.70 110.35 160.80 110.86 159.92 C 111.56 159.03 112.27 158.13 112.96 157.23 C 116.89 158.51 115.24 154.99 115.07 152.82 C 115.45 152.25 115.90 151.72 116.40 151.23 Z" fill="#676e99" />
<path d="M 186.06 151.18 C 191.04 152.40 187.97 155.46 191.66 156.32 C 191.58 159.45 193.79 163.82 188.68 161.02 C 187.70 154.94 179.00 157.26 179.93 162.99 C 179.18 168.49 182.71 167.89 186.59 169.31 C 189.86 170.59 193.83 169.57 195.00 166.00 C 197.43 161.25 200.18 157.21 205.17 162.47 C 198.86 161.90 200.35 162.95 199.88 168.16 C 195.96 173.22 192.74 180.03 185.15 177.00 C 180.68 174.80 177.37 173.29 175.67 168.22 C 175.88 165.07 176.22 161.94 176.88 158.85 C 179.42 153.27 179.07 150.86 186.06 151.18 Z" fill="#2c2b42" />
<path d="M 115.07 152.82 C 115.24 154.99 116.89 158.51 112.96 157.23 C 113.61 155.72 114.19 154.21 115.07 152.82 Z" fill="#b1b5cc" />
<path d="M 146.73 153.92 C 150.24 157.02 148.75 159.60 154.83 161.20 C 155.95 164.82 154.85 165.14 152.79 168.05 C 151.09 166.67 149.32 165.68 147.15 165.25 C 144.42 169.49 143.30 173.71 138.60 176.47 C 135.42 177.84 130.68 176.50 132.22 181.64 C 134.06 183.11 135.93 182.90 135.75 185.75 C 137.19 190.73 130.96 189.19 127.99 189.58 C 128.97 191.39 130.16 193.09 131.25 194.83 C 129.04 193.74 126.68 192.15 125.41 189.98 C 127.27 187.12 129.22 185.47 127.05 181.95 C 125.44 178.25 122.13 179.66 119.04 180.13 C 116.04 179.20 116.43 172.82 113.78 176.99 C 112.42 178.38 111.80 179.28 112.99 181.07 C 104.96 183.10 110.96 171.14 113.68 169.02 C 116.45 171.45 119.08 173.76 121.43 176.62 C 125.40 177.89 123.23 175.69 123.03 173.41 C 124.28 172.34 125.54 171.67 125.94 169.95 C 126.37 166.90 130.31 169.01 131.99 169.60 C 132.52 168.21 132.35 164.54 133.90 164.17 C 136.27 165.35 138.10 166.83 140.89 166.70 C 140.36 165.25 139.68 163.87 139.19 162.41 C 144.15 162.37 146.54 158.47 146.73 153.92 Z" fill="#aabad5" />
<path d="M 55.02 155.01 C 56.19 157.77 59.36 161.06 58.42 164.13 C 56.93 161.55 55.42 159.09 54.77 156.13 L 55.02 155.01 Z" fill="#60636d" />
<path d="M 132.16 154.91 C 131.91 156.58 131.69 158.24 131.70 159.93 C 128.36 160.38 126.80 159.89 124.20 157.90 C 124.97 154.58 129.64 155.35 132.16 154.91 Z" fill="#949bb6" />
<path d="M 188.68 161.02 C 187.47 163.70 186.91 166.40 186.59 169.31 C 182.71 167.89 179.18 168.49 179.93 162.99 C 179.00 157.26 187.70 154.94 188.68 161.02 Z" fill="#7a7d94" />
<path d="M 176.88 158.85 C 176.22 161.94 175.88 165.07 175.67 168.22 C 174.75 167.47 173.83 166.71 172.86 166.00 C 169.66 169.93 167.77 177.74 162.16 178.98 C 160.44 172.39 165.64 173.14 166.52 167.39 C 167.72 163.63 172.93 159.30 176.88 158.85 Z" fill="#a1afce" />
<path d="M 206.26 164.78 C 208.40 166.09 208.07 168.92 210.17 169.99 C 211.13 167.36 210.48 166.00 213.98 165.77 C 216.18 167.51 217.80 169.36 219.19 171.81 C 218.28 175.44 216.11 176.41 220.21 178.94 C 219.96 182.38 219.98 185.70 220.23 189.14 C 218.25 189.92 218.65 191.50 219.32 193.11 C 217.11 199.43 210.63 201.25 207.98 207.79 C 203.36 205.44 203.02 213.04 205.66 215.21 C 205.89 216.85 206.09 218.49 206.27 220.13 C 203.61 219.64 203.03 221.75 205.06 223.24 C 203.75 227.93 201.33 229.47 197.01 231.19 C 195.11 230.68 193.84 230.71 191.95 231.23 C 187.25 228.39 185.03 229.74 180.21 231.21 C 179.47 230.79 178.70 230.42 177.92 230.11 C 179.73 223.76 184.26 220.52 190.69 223.34 C 193.63 224.59 191.30 221.63 194.73 222.31 C 195.58 223.38 196.64 223.64 197.86 224.04 C 199.62 228.41 201.49 225.67 200.20 222.40 C 200.88 222.29 202.31 210.07 202.56 208.59 C 203.93 204.76 205.03 200.93 206.85 197.27 C 207.89 195.87 208.94 194.48 209.91 193.03 C 211.23 191.15 212.52 189.26 214.10 187.58 C 218.17 187.84 217.48 180.25 215.43 178.22 C 214.43 176.61 213.37 175.08 211.91 173.85 C 211.28 173.25 210.63 172.68 209.95 172.13 C 207.44 170.13 204.80 168.25 202.01 166.65 C 203.34 165.95 204.86 162.98 206.26 164.78 Z" fill="#29273e" />
<path d="M 147.15 165.25 C 149.32 165.68 151.09 166.67 152.79 168.05 C 154.43 172.64 156.39 176.77 156.10 181.81 C 153.89 181.14 151.61 181.44 149.59 182.53 C 147.66 185.12 146.81 190.08 142.72 189.61 C 139.23 190.57 135.36 196.33 131.25 194.83 C 130.16 193.09 128.97 191.39 127.99 189.58 C 130.96 189.19 137.19 190.73 135.75 185.75 C 135.93 182.90 134.06 183.11 132.22 181.64 C 130.68 176.50 135.42 177.84 138.60 176.47 C 143.30 173.71 144.42 169.49 147.15 165.25 Z" fill="#8795bf" />
<path d="M 123.03 173.41 C 123.23 175.69 125.40 177.89 121.43 176.62 C 119.08 173.76 116.45 171.45 113.68 169.02 C 116.81 167.42 111.88 168.17 110.88 167.76 C 116.54 164.46 117.01 171.92 123.03 173.41 Z" fill="#434f66" />
<path d="M 202.01 166.65 C 204.80 168.25 207.44 170.13 209.95 172.13 C 209.08 174.14 208.06 176.09 207.27 178.14 C 206.33 180.58 215.84 184.64 210.69 185.85 C 209.29 186.58 207.90 187.34 206.52 188.11 C 206.28 186.38 205.50 184.88 204.60 183.41 C 202.25 179.56 197.60 184.35 194.35 182.80 C 191.30 181.75 188.67 187.95 185.38 186.81 C 184.97 185.19 184.67 183.53 184.35 181.89 C 184.48 180.81 184.60 179.73 184.71 178.66 L 185.15 177.00 C 192.74 180.03 195.96 173.22 199.88 168.16 C 200.59 167.66 201.30 167.15 202.01 166.65 Z" fill="#e1d4be" />
<path d="M 60.04 167.79 C 62.35 169.04 63.15 170.61 64.01 172.99 C 61.89 171.48 61.02 170.20 60.04 167.79 Z" fill="#4a4856" />
<path d="M 110.88 167.76 C 111.88 168.17 116.81 167.42 113.68 169.02 C 110.96 171.14 104.96 183.10 112.99 181.07 C 116.14 181.24 114.49 178.57 113.78 176.99 C 116.43 172.82 116.04 179.20 119.04 180.13 C 118.64 181.61 118.09 182.87 117.29 184.18 C 114.84 184.07 112.41 184.07 109.95 184.17 C 102.69 182.90 102.84 178.98 105.79 173.23 C 107.34 171.36 108.96 169.26 110.88 167.76 Z" fill="#24253c" />
<path d="M 191.32 171.36 C 193.85 172.28 188.84 175.73 188.45 173.36 C 189.14 172.51 190.28 171.72 191.32 171.36 Z" fill="#7e7e90" />
<path d="M 209.95 172.13 C 210.63 172.68 211.28 173.25 211.91 173.85 C 210.38 177.39 212.08 178.36 215.43 178.22 C 217.48 180.25 218.17 187.84 214.10 187.58 C 212.98 187.66 211.89 187.83 210.79 188.08 C 210.75 187.34 210.72 186.60 210.69 185.85 C 215.84 184.64 206.33 180.58 207.27 178.14 C 208.06 176.09 209.08 174.14 209.95 172.13 Z" fill="#776666" />
<path d="M 219.19 171.81 C 221.15 174.47 220.88 175.88 220.21 178.94 C 216.11 176.41 218.28 175.44 219.19 171.81 Z" fill="#7e7e8b" />
<path d="M 64.01 172.99 C 66.71 174.96 67.31 175.91 67.77 179.28 C 65.76 177.29 64.71 175.77 64.01 172.99 Z" fill="#626171" />
<path d="M 172.91 173.21 C 175.01 176.84 171.40 179.99 170.72 183.91 C 170.11 184.34 169.50 184.76 168.90 185.18 C 165.31 178.72 169.08 177.72 172.91 173.21 Z" fill="#9fadc5" />
<path d="M 211.91 173.85 C 213.37 175.08 214.43 176.61 215.43 178.22 C 212.08 178.36 210.38 177.39 211.91 173.85 Z" fill="#c3c2c5" />
<path d="M 181.89 176.03 C 181.38 177.73 180.70 179.33 180.08 181.00 C 179.02 180.58 177.96 180.18 176.89 179.77 C 177.81 177.04 179.26 176.59 181.89 176.03 Z" fill="#a2a2b1" />
<path d="M 113.78 176.99 C 114.49 178.57 116.14 181.24 112.99 181.07 C 111.80 179.28 112.42 178.38 113.78 176.99 Z" fill="#696f82" />
<path d="M 127.05 181.95 C 129.22 185.47 127.27 187.12 125.41 189.98 C 126.68 192.15 129.04 193.74 131.25 194.83 C 135.36 196.33 139.23 190.57 142.72 189.61 C 146.81 190.08 147.66 185.12 149.59 182.53 C 151.61 181.44 153.89 181.14 156.10 181.81 C 156.15 184.34 156.07 186.71 154.86 188.99 C 145.47 190.07 140.55 197.79 131.99 200.01 C 125.36 199.54 126.78 193.07 121.08 192.46 C 123.79 190.18 128.17 181.84 122.33 181.07 C 122.97 186.09 120.47 191.23 115.27 192.38 C 113.72 190.53 108.31 188.74 109.85 185.85 C 112.90 188.14 115.65 187.93 117.29 184.18 C 118.09 182.87 118.64 181.61 119.04 180.13 C 122.13 179.66 125.44 178.25 127.05 181.95 Z" fill="#d5c9ba" />
<path d="M 184.71 178.66 C 184.60 179.73 184.48 180.81 184.35 181.89 C 182.87 185.09 181.13 187.98 179.05 190.82 C 177.65 192.56 176.33 194.35 175.11 196.22 C 171.81 199.67 168.54 203.40 164.72 206.28 C 164.50 204.75 164.70 203.42 165.06 201.93 C 168.16 199.67 170.60 196.87 173.30 194.12 C 178.86 189.99 180.07 183.27 184.71 178.66 Z" fill="#282738" />
<path d="M 220.21 178.94 C 221.43 182.51 221.33 185.56 220.23 189.14 C 219.98 185.70 219.96 182.38 220.21 178.94 Z" fill="#72707a" />
<path d="M 176.89 179.77 C 177.96 180.18 179.02 180.58 180.08 181.00 C 178.85 183.76 178.20 188.97 174.04 188.00 C 172.32 187.66 169.18 187.33 168.90 185.18 C 169.50 184.76 170.11 184.34 170.72 183.91 C 175.45 186.63 174.84 182.88 176.89 179.77 Z" fill="#e5e6eb" />
<path d="M 122.33 181.07 C 128.17 181.84 123.79 190.18 121.08 192.46 C 114.78 195.67 108.32 195.18 101.46 195.37 L 100.83 194.11 C 105.78 194.13 110.55 194.11 115.27 192.38 C 120.47 191.23 122.97 186.09 122.33 181.07 Z" fill="#4d3f46" />
<path d="M 78.78 190.46 C 76.29 188.37 74.02 186.04 71.58 183.89 C 73.62 182.44 80.23 187.94 78.78 190.46 Z" fill="#4c4961" />
<path d="M 162.36 183.17 C 167.37 183.42 169.19 191.33 173.30 194.12 C 170.60 196.87 168.16 199.67 165.06 201.93 C 161.94 201.25 154.46 205.23 152.51 201.69 C 152.96 195.85 149.93 201.65 147.83 202.80 C 144.17 205.03 140.03 206.70 135.94 207.98 C 140.70 198.61 149.38 199.31 158.10 193.20 C 161.64 192.11 161.22 186.13 162.36 183.17 Z" fill="#f0edea" />
<path d="M 60.18 184.79 C 56.67 185.02 53.24 185.03 49.74 184.63 C 52.99 183.91 57.06 183.37 60.18 184.79 Z" fill="#80808c" />
<path d="M 109.95 184.17 C 112.41 184.07 114.84 184.07 117.29 184.18 C 115.65 187.93 112.90 188.14 109.85 185.85 L 109.95 184.17 Z" fill="#a89e95" />
<path d="M 49.74 184.63 C 53.24 185.03 56.67 185.02 60.18 184.79 C 65.62 186.01 54.20 186.60 53.06 187.26 C 51.18 186.71 49.53 186.25 47.98 187.79 C 45.42 189.68 43.32 192.04 40.86 194.04 L 39.86 193.75 C 41.62 187.20 43.01 185.84 49.74 184.63 Z" fill="#2d2d3f" />
<path d="M 210.69 185.85 C 210.72 186.60 210.75 187.34 210.79 188.08 C 209.07 189.03 207.35 189.90 205.72 191.00 C 207.08 191.76 208.49 192.39 209.91 193.03 C 208.94 194.48 207.89 195.87 206.85 197.27 C 206.89 194.05 205.48 192.52 203.68 190.05 C 204.62 189.39 205.56 188.74 206.52 188.11 C 207.90 187.34 209.29 186.58 210.69 185.85 Z" fill="#a49184" />
<path d="M 53.06 187.26 C 51.40 188.51 49.88 188.36 47.98 187.79 C 49.53 186.25 51.18 186.71 53.06 187.26 Z" fill="#9ea2ae" />
<path d="M 214.10 187.58 C 212.52 189.26 211.23 191.15 209.91 193.03 C 208.49 192.39 207.08 191.76 205.72 191.00 C 207.35 189.90 209.07 189.03 210.79 188.08 C 211.89 187.83 212.98 187.66 214.10 187.58 Z" fill="#d4c4b8" />
<path d="M 79.19 191.04 L 78.78 190.46 C 81.68 186.54 84.15 191.79 79.19 191.04 Z" fill="#5a5a70" />
<path d="M 154.86 188.99 C 155.85 190.47 156.93 191.85 158.10 193.20 C 149.38 199.31 140.70 198.61 135.94 207.98 C 134.32 209.42 123.76 209.32 129.04 211.97 C 125.56 212.03 122.18 210.03 118.97 208.72 C 112.63 204.81 105.90 201.93 99.70 197.81 C 95.71 197.65 97.82 197.29 99.15 194.94 C 99.71 194.66 100.27 194.39 100.83 194.11 L 101.46 195.37 C 108.32 195.18 114.78 195.67 121.08 192.46 C 126.78 193.07 125.36 199.54 131.99 200.01 C 140.55 197.79 145.47 190.07 154.86 188.99 Z" fill="#7d6664" />
<path d="M 220.23 189.14 C 220.39 190.72 220.27 191.80 219.32 193.11 C 218.65 191.50 218.25 189.92 220.23 189.14 Z" fill="#838293" />
<path d="M 203.68 190.05 C 205.48 192.52 206.89 194.05 206.85 197.27 C 205.03 200.93 203.93 204.76 202.56 208.59 C 197.31 212.38 198.42 218.42 194.73 222.31 C 191.30 221.63 193.63 224.59 190.69 223.34 C 184.26 220.52 179.73 223.76 177.92 230.11 C 176.31 229.68 174.69 229.30 173.05 228.98 C 171.92 226.63 173.65 227.24 175.17 226.07 C 178.00 224.65 177.13 221.09 180.82 221.03 C 182.95 222.35 186.27 215.40 188.13 214.15 C 193.26 205.70 194.03 195.70 203.68 190.05 Z" fill="#7e6868" />
<path d="M 179.05 190.82 C 180.86 194.68 178.31 195.41 175.11 196.22 C 176.33 194.35 177.65 192.56 179.05 190.82 Z" fill="#aca8ae" />
<path d="M 54.86 192.11 C 56.85 197.60 54.56 201.59 54.14 207.04 C 52.40 207.33 50.64 207.58 48.90 207.91 C 47.73 205.79 49.29 203.32 47.20 202.12 C 45.63 200.78 43.97 199.60 42.58 198.05 C 43.05 197.25 43.58 196.46 44.15 195.69 C 45.66 196.28 47.74 199.77 49.25 198.16 L 49.90 197.82 C 51.07 197.35 51.55 195.66 52.11 194.62 C 53.01 193.76 53.90 192.90 54.86 192.11 Z" fill="#28283e" />
<path d="M 87.08 196.35 C 85.14 194.84 82.97 193.78 80.82 192.61 C 82.91 191.07 89.49 193.77 87.08 196.35 Z" fill="#484a4d" />
<path d="M 39.86 193.75 L 40.86 194.04 C 38.74 196.06 37.44 205.63 40.88 206.13 C 40.20 206.74 39.53 207.36 38.85 207.98 C 35.52 204.64 36.63 196.92 39.86 193.75 Z" fill="#5d5c6d" />
<path d="M 52.11 194.62 C 51.55 195.66 51.07 197.35 49.90 197.82 C 49.78 196.01 49.35 193.24 52.11 194.62 Z" fill="#7a7a87" />
<path d="M 49.25 198.16 C 47.74 199.77 45.66 196.28 44.15 195.69 C 46.12 193.53 47.91 197.00 49.25 198.16 Z" fill="#b1b2bb" />
<path d="M 92.94 197.91 C 91.51 198.23 90.23 198.18 89.10 197.76 C 90.26 193.91 91.44 195.13 92.94 197.91 Z" fill="#9b9ca3" />
<path d="M 42.58 198.05 C 43.97 199.60 45.63 200.78 47.20 202.12 C 46.26 203.04 45.31 203.94 44.31 204.79 C 42.87 204.68 42.02 205.37 40.88 206.13 C 41.43 203.44 41.81 200.69 42.58 198.05 Z" fill="#7b7c8a" />
<path d="M 94.40 198.85 C 97.72 199.21 96.67 200.00 96.94 202.72 C 94.55 204.95 91.54 206.98 89.69 209.69 C 88.80 212.06 89.87 215.38 89.79 217.91 C 87.94 218.57 83.60 214.89 83.98 213.01 C 85.75 206.75 89.58 202.94 94.40 198.85 Z" fill="#2e2e45" />
<path d="M 152.51 201.69 C 154.46 205.23 161.94 201.25 165.06 201.93 C 164.70 203.42 164.50 204.75 164.72 206.28 C 164.33 206.60 163.94 206.90 163.54 207.21 C 162.11 206.33 161.52 204.15 159.91 206.01 C 158.56 207.05 156.98 207.16 157.20 209.25 C 154.52 210.75 151.88 211.73 148.85 212.26 C 143.27 212.49 136.81 210.91 131.50 212.07 C 130.68 212.05 129.86 212.02 129.04 211.97 C 123.76 209.32 134.32 209.42 135.94 207.98 C 140.03 206.70 144.17 205.03 147.83 202.80 C 149.93 201.65 152.96 195.85 152.51 201.69 Z" fill="#dbd0ba" />
<path d="M 44.31 204.79 C 44.19 206.41 44.09 208.03 44.03 209.65 C 43.04 209.76 42.05 209.91 41.06 210.10 C 40.31 209.41 39.57 208.70 38.85 207.98 C 39.53 207.36 40.20 206.74 40.88 206.13 C 42.02 205.37 42.87 204.68 44.31 204.79 Z" fill="#292c44" />
<path d="M 103.98 204.93 C 104.97 204.83 105.77 205.16 106.38 205.91 C 105.31 207.90 103.38 207.08 103.98 204.93 Z" fill="#808282" />
<path d="M 163.54 207.21 C 160.12 210.21 155.49 211.90 151.23 213.37 C 150.44 213.00 149.65 212.63 148.85 212.26 C 151.88 211.73 154.52 210.75 157.20 209.25 C 159.84 209.29 160.31 208.57 159.91 206.01 C 161.52 204.15 162.11 206.33 163.54 207.21 Z" fill="#3e3d40" />
<path d="M 159.91 206.01 C 160.31 208.57 159.84 209.29 157.20 209.25 C 156.98 207.16 158.56 207.05 159.91 206.01 Z" fill="#8b8979" />
<path d="M 54.14 207.04 C 54.87 207.70 55.60 208.36 56.33 209.01 C 53.99 211.34 50.46 210.75 48.90 207.91 C 50.64 207.58 52.40 207.33 54.14 207.04 Z" fill="#7d7e88" />
<path d="M 105.01 209.01 C 107.36 206.72 106.95 211.98 107.77 213.23 C 104.18 212.40 101.44 210.41 98.23 208.80 C 101.01 203.66 101.46 212.18 105.01 209.01 Z" fill="#9b9ba7" />
<path d="M 207.98 207.79 C 207.53 209.10 207.12 210.42 206.74 211.75 C 206.37 212.90 206.00 214.05 205.66 215.21 C 203.02 213.04 203.36 205.44 207.98 207.79 Z" fill="#4e4d67" />
<path d="M 98.23 208.80 C 101.44 210.41 104.18 212.40 107.77 213.23 C 109.08 217.03 104.46 215.92 102.16 216.87 C 100.58 213.70 97.89 216.73 98.83 219.00 C 97.99 220.68 97.28 222.41 96.59 224.16 C 94.45 223.31 95.12 220.72 94.76 218.87 C 95.82 215.43 96.42 211.99 98.23 208.80 Z" fill="#2a2a41" />
<path d="M 202.56 208.59 C 202.31 210.07 200.88 222.29 200.20 222.40 C 199.37 222.86 198.59 223.41 197.86 224.04 C 196.64 223.64 195.58 223.38 194.73 222.31 C 198.42 218.42 197.31 212.38 202.56 208.59 Z" fill="#d7d1d5" />
<path d="M 41.06 210.10 C 42.05 209.91 43.04 209.76 44.03 209.65 C 46.75 212.84 41.85 213.17 41.06 210.10 Z" fill="#9d9ea4" />
<path d="M 148.85 212.26 C 149.65 212.63 150.44 213.00 151.23 213.37 C 148.83 214.14 146.53 213.97 144.04 213.99 C 142.86 212.24 141.47 212.31 140.02 213.71 C 137.16 213.21 134.30 212.88 131.50 212.07 C 136.81 210.91 143.27 212.49 148.85 212.26 Z" fill="#908d81" />
<path d="M 206.74 211.75 C 206.98 214.62 207.20 217.35 206.27 220.13 C 206.09 218.49 205.89 216.85 205.66 215.21 C 206.00 214.05 206.37 212.90 206.74 211.75 Z" fill="#9d9dac" />
<path d="M 144.04 213.99 C 142.72 214.28 141.38 214.18 140.02 213.71 C 141.47 212.31 142.86 212.24 144.04 213.99 Z" fill="#40392f" />
<path d="M 102.16 216.87 C 101.08 217.63 99.98 218.35 98.83 219.00 C 97.89 216.73 100.58 213.70 102.16 216.87 Z" fill="#838295" />
<path d="M 153.45 218.89 C 151.88 218.30 150.86 219.02 149.43 219.57 C 148.52 213.39 158.01 214.88 153.45 218.89 Z" fill="#85848d" />
<path d="M 153.45 218.89 C 149.96 222.77 145.71 226.84 140.88 228.94 C 136.65 229.12 132.20 227.03 128.13 225.94 C 124.63 225.27 124.30 222.25 121.06 221.29 C 122.29 220.88 123.54 220.50 124.77 220.08 C 124.58 223.09 130.34 218.85 132.18 219.59 C 135.91 220.90 137.84 223.70 140.87 225.93 C 143.48 223.41 146.06 221.05 149.43 219.57 C 150.86 219.02 151.88 218.30 153.45 218.89 Z" fill="#2c2c45" />
<path d="M 94.76 218.87 C 95.12 220.72 94.45 223.31 96.59 224.16 C 96.50 225.25 94.07 224.82 93.27 225.09 L 93.13 223.21 C 93.68 221.77 94.23 220.33 94.76 218.87 Z" fill="#aaacb2" />
<path d="M 132.18 219.59 C 130.34 218.85 124.58 223.09 124.77 220.08 C 127.33 218.97 129.51 218.55 132.18 219.59 Z" fill="#9695a2" />
<path d="M 180.82 221.03 C 177.13 221.09 178.00 224.65 175.17 226.07 C 173.65 227.24 171.92 226.63 173.05 228.98 C 173.09 233.15 171.97 232.27 169.73 229.99 L 170.01 229.11 C 171.25 226.71 171.98 223.79 173.71 221.70 C 174.89 219.39 181.08 217.00 180.82 221.03 Z" fill="#373549" />
<path d="M 206.27 220.13 C 206.05 221.21 205.65 222.25 205.06 223.24 C 203.03 221.75 203.61 219.64 206.27 220.13 Z" fill="#9f9faa" />
<path d="M 121.06 221.29 C 124.30 222.25 124.63 225.27 128.13 225.94 C 126.46 225.83 124.80 225.74 123.13 225.60 C 122.39 224.99 121.64 224.40 120.87 223.82 C 119.44 222.09 118.00 222.22 121.06 221.29 Z" fill="#a2a7b1" />
<path d="M 200.20 222.40 C 201.49 225.67 199.62 228.41 197.86 224.04 C 198.59 223.41 199.37 222.86 200.20 222.40 Z" fill="#6a6c7c" />
<path d="M 120.28 224.12 L 120.87 223.82 C 121.18 225.14 121.17 226.52 120.84 227.98 C 119.39 227.46 119.78 225.21 120.28 224.12 Z" fill="#8e93a2" />
<path d="M 120.87 223.82 C 121.64 224.40 122.39 224.99 123.13 225.60 C 122.32 226.55 122.29 227.49 123.01 228.44 C 122.22 228.54 121.50 228.39 120.84 227.98 C 121.17 226.52 121.18 225.14 120.87 223.82 Z" fill="#292e3d" />
<path d="M 177.92 230.11 C 178.70 230.42 179.47 230.79 180.21 231.21 C 178.68 233.88 177.47 232.75 177.92 230.11 Z" fill="#7c7778" />
<path d="M 191.95 231.23 C 193.84 230.71 195.11 230.68 197.01 231.19 C 195.15 232.71 193.83 232.71 191.95 231.23 Z" fill="#777589" />
</svg>