<?xml version="1.0" encoding="UTF-8" standalone="no"?>
<!DOCTYPE svg PUBLIC "-//W3C//DTD SVG 1.1//EN" "http://www.w3.org/Graphics/SVG/1.1/DTD/svg11.dtd">
<svg xmlns="http://www.w3.org/2000/svg" version="1.1" viewBox="0 0 256 256" width="256.0pt" height="256.0pt">
<path d="M 0.00 0.00 L 256.00 0.00 L 256.00 256.00 L 0.00 256.00 L 0.00 0.00 Z" fill="#fffffe" />
<path d="M 78.54 18.40 C 79.38 20.82 80.34 23.19 81.30 25.57 C 83.64 31.36 84.52 38.10 85.84 44.20 C 86.66 48.55 89.48 52.56 91.58 56.51 C 96.07 64.32 103.49 68.62 111.88 71.25 C 111.88 71.88 111.88 72.52 111.87 73.16 C 117.25 71.77 121.71 74.19 126.98 74.07 C 132.24 72.63 137.07 68.65 140.42 64.41 C 143.01 61.18 146.23 58.86 148.55 55.46 C 149.93 53.54 151.16 51.38 152.76 49.65 C 154.00 48.45 155.96 48.01 157.38 47.02 C 158.63 44.15 158.69 40.74 159.86 37.82 C 161.78 32.93 165.57 29.92 169.72 26.97 C 173.32 24.24 177.77 24.62 182.10 22.74 C 182.42 24.52 182.38 26.89 183.85 28.13 C 185.36 29.66 186.94 31.12 188.39 32.70 C 194.05 32.57 199.87 32.14 205.23 30.23 C 207.98 29.33 211.04 28.02 213.95 27.94 C 215.81 27.78 216.88 29.59 218.12 30.70 C 216.62 32.90 215.80 34.81 215.21 37.40 C 214.55 37.26 213.89 37.12 213.22 36.98 C 212.90 37.30 212.57 37.62 212.24 37.95 C 210.10 38.51 207.97 38.98 205.93 39.85 C 205.17 40.29 204.43 40.74 203.69 41.21 C 200.50 43.30 197.21 45.12 193.85 46.89 C 191.54 47.92 190.99 50.60 189.84 52.66 C 189.09 53.06 188.35 53.49 187.62 53.94 C 185.39 55.39 183.24 56.96 181.20 58.67 C 178.72 60.81 176.34 63.14 174.15 65.58 C 171.78 68.58 169.51 71.65 167.28 74.75 C 165.58 72.42 163.42 70.28 162.08 67.73 C 161.00 64.80 161.80 61.08 162.01 58.02 C 162.58 55.94 163.23 53.88 163.90 51.82 C 165.89 47.45 168.12 43.20 170.66 39.13 C 173.61 40.64 175.18 40.66 178.37 39.99 C 178.65 35.66 179.14 31.35 179.47 27.03 C 176.17 27.71 173.72 28.77 171.16 30.97 C 168.77 32.89 166.69 34.92 166.07 38.05 C 164.95 42.88 163.19 47.51 162.12 52.36 C 161.15 55.75 160.33 58.21 157.24 60.25 C 157.60 57.97 158.00 55.71 158.39 53.44 C 157.30 55.08 156.26 56.75 155.27 58.45 C 154.63 59.55 153.98 60.64 153.34 61.72 C 152.76 62.68 152.18 63.63 151.58 64.57 C 150.72 65.92 149.87 67.28 149.07 68.67 C 148.02 70.50 147.05 72.34 146.06 74.19 C 143.79 75.76 140.89 76.94 139.02 78.98 C 137.56 81.17 137.21 84.23 136.61 86.76 C 137.72 87.63 138.82 88.51 139.92 89.38 L 139.53 90.88 C 139.28 93.30 139.41 95.70 139.62 98.11 L 139.73 99.66 C 138.72 101.51 137.76 103.38 136.78 105.24 L 136.50 105.78 C 134.37 107.29 132.23 108.77 130.14 110.34 C 131.01 112.27 131.89 114.19 132.78 116.11 C 131.95 117.87 131.11 119.63 130.32 121.41 C 132.15 119.71 133.90 117.95 135.40 115.95 C 135.83 115.36 136.25 114.77 136.65 114.17 C 138.11 112.05 139.59 109.86 141.24 107.89 C 143.47 108.12 145.69 108.36 147.92 108.59 C 149.34 114.23 147.40 119.51 144.07 124.04 C 143.31 124.98 142.55 125.66 141.33 125.86 C 138.99 124.50 138.01 122.33 136.71 120.09 C 133.45 124.39 131.13 129.09 128.86 133.94 C 127.52 136.97 125.06 138.59 122.44 140.40 C 123.32 138.63 124.51 136.84 125.00 134.92 C 124.89 133.81 124.55 132.71 124.28 131.63 C 121.78 131.65 119.27 131.63 116.77 131.63 C 120.97 129.08 125.07 126.69 128.21 122.80 C 123.69 125.15 119.56 128.16 114.98 130.42 C 114.65 129.35 114.35 128.27 114.07 127.19 C 115.90 126.49 117.75 125.87 119.57 125.17 C 119.58 122.79 119.55 120.40 119.52 118.02 C 116.88 121.18 113.66 123.19 110.12 125.20 C 107.38 126.83 105.92 128.50 104.74 131.48 C 104.02 133.63 103.43 135.81 102.89 138.01 L 102.79 137.10 C 102.44 133.22 102.76 129.41 103.15 125.56 C 103.49 123.40 102.16 121.41 101.39 119.46 C 100.67 117.01 100.36 114.44 99.74 111.96 C 97.14 113.98 95.78 116.65 94.51 119.62 C 92.35 124.36 91.84 129.46 92.20 134.61 C 91.59 134.30 90.99 133.98 90.38 133.65 C 89.46 133.14 88.55 132.62 87.62 132.14 L 87.47 132.07 L 86.92 132.29 C 85.26 132.96 83.60 133.61 81.91 134.21 C 82.40 132.19 82.94 130.20 83.57 128.22 C 84.79 126.29 86.05 124.40 87.23 122.45 C 86.36 122.58 85.49 122.71 84.61 122.85 C 84.33 121.92 84.05 120.99 83.77 120.06 C 86.73 118.62 89.85 117.36 92.63 115.60 C 95.88 113.39 98.82 110.32 101.62 107.59 C 105.06 104.12 110.18 103.11 114.19 100.14 C 115.64 99.01 116.18 96.86 117.58 95.63 C 119.01 95.64 120.50 95.91 121.92 96.12 C 121.77 94.19 121.64 92.25 121.51 90.32 C 118.08 89.56 114.61 88.80 111.14 88.27 C 110.24 88.13 109.35 87.99 108.46 87.85 C 102.08 85.02 95.28 84.02 88.73 81.76 C 91.33 81.85 93.93 81.85 96.53 81.92 C 95.99 80.45 95.35 79.03 94.75 77.59 C 98.75 80.40 102.49 83.30 107.17 84.80 C 112.68 86.51 118.31 87.53 124.04 88.15 C 125.66 88.23 126.56 89.00 127.58 90.16 C 126.55 93.37 125.93 96.20 126.10 99.64 C 127.22 98.11 128.28 96.70 128.49 94.75 C 129.04 90.97 129.91 87.75 131.68 84.35 C 128.48 83.68 125.27 83.09 122.00 82.93 C 115.03 82.89 108.07 78.72 101.92 75.74 C 101.21 76.50 100.50 77.27 99.81 78.06 C 98.65 77.70 97.49 77.37 96.32 77.05 C 97.45 76.51 98.57 75.95 99.68 75.38 C 97.65 74.78 95.50 74.43 93.53 73.63 C 91.68 72.46 90.00 71.01 88.20 69.75 C 87.78 69.43 87.35 69.10 86.92 68.79 C 87.03 67.51 86.81 66.43 86.24 65.54 C 85.26 64.45 84.19 63.47 83.11 62.48 C 75.81 50.20 73.82 36.46 74.56 22.35 C 75.79 20.92 77.13 19.65 78.54 18.40 Z" fill="#f3f3f0" />
<path d="M 71.63 19.91 C 71.98 21.39 72.33 22.86 72.67 24.34 C 68.49 28.72 61.93 28.39 59.82 33.79 C 58.64 36.10 58.11 38.57 57.70 41.10 C 56.43 40.63 55.16 40.15 53.89 39.69 C 51.42 35.92 48.65 32.51 46.79 28.34 C 49.20 27.89 51.58 27.32 53.98 26.79 C 54.78 25.75 55.63 24.46 56.79 23.81 C 61.42 21.49 66.47 20.22 71.63 19.91 Z" fill="#f5f4f3" />
<path d="M 73.75 23.23 L 73.99 22.98 L 74.56 22.35 C 73.82 36.46 75.81 50.20 83.11 62.48 C 81.02 60.76 79.70 58.95 78.61 56.46 C 76.48 51.48 74.27 46.76 72.65 41.67 C 72.49 39.58 72.34 37.49 72.26 35.40 C 72.21 32.79 72.11 30.18 71.90 27.57 C 68.58 30.67 65.45 34.17 63.16 38.10 C 61.00 41.97 61.44 45.80 61.29 50.06 C 59.83 47.16 58.47 44.27 57.70 41.10 C 58.11 38.57 58.64 36.10 59.82 33.79 C 61.93 28.39 68.49 28.72 72.67 24.34 C 73.04 23.98 73.40 23.61 73.75 23.23 Z" fill="#1c1731" />
<path d="M 179.47 27.03 C 179.14 31.35 178.65 35.66 178.37 39.99 C 175.18 40.66 173.61 40.64 170.66 39.13 C 172.41 36.50 173.61 34.01 174.36 30.93 C 173.29 30.93 172.22 30.95 171.16 30.97 C 173.72 28.77 176.17 27.71 179.47 27.03 Z" fill="#dfcad6" />
<path d="M 46.79 28.34 C 48.65 32.51 51.42 35.92 53.89 39.69 C 56.68 44.40 58.95 49.35 61.96 53.93 C 62.88 55.41 63.82 56.87 64.75 58.33 C 65.99 60.00 67.05 62.73 69.22 63.23 C 73.28 64.28 75.98 67.05 79.43 69.63 C 83.11 72.78 81.27 77.98 85.06 81.09 L 84.14 80.93 C 80.33 80.35 75.65 81.32 71.57 79.48 C 67.27 77.57 64.18 74.39 60.36 71.83 C 59.06 70.99 57.71 70.26 56.34 69.54 C 56.37 66.08 57.41 62.65 56.89 59.30 C 56.44 56.01 56.10 52.67 55.38 49.43 C 54.56 45.71 52.33 42.30 50.48 38.99 C 50.31 44.51 50.69 49.77 47.72 54.69 C 45.12 59.51 40.36 61.98 37.85 66.83 C 35.06 73.12 35.49 79.99 37.58 86.40 C 38.78 89.99 42.79 90.64 46.08 90.90 C 48.76 91.04 50.74 89.77 52.93 88.46 C 55.95 86.56 59.05 85.39 62.68 85.86 C 64.68 87.18 66.49 88.85 68.03 90.70 C 64.63 90.03 61.34 89.03 58.05 88.14 C 54.72 91.36 51.05 93.09 46.62 94.25 C 40.34 93.55 34.09 93.06 27.90 91.78 C 30.31 91.52 32.72 91.27 35.13 90.97 C 34.86 89.28 34.56 87.59 34.25 85.91 C 33.15 80.60 33.62 74.89 34.71 69.61 C 35.48 66.01 36.84 62.69 39.77 60.32 C 43.25 58.51 44.63 55.60 46.18 52.21 C 48.43 47.52 48.57 42.58 48.17 37.48 C 47.95 34.10 46.94 31.35 45.13 28.51 C 45.68 28.44 46.23 28.39 46.79 28.34 Z" fill="#21223d" />
<path d="M 71.90 27.57 C 72.11 30.18 72.21 32.79 72.26 35.40 C 68.44 36.47 66.54 39.58 65.08 43.04 C 63.86 46.88 64.56 50.51 61.96 53.93 C 58.95 49.35 56.68 44.40 53.89 39.69 C 55.16 40.15 56.43 40.63 57.70 41.10 C 58.47 44.27 59.83 47.16 61.29 50.06 C 61.44 45.80 61.00 41.97 63.16 38.10 C 65.45 34.17 68.58 30.67 71.90 27.57 Z" fill="#c07ca9" />
<path d="M 45.13 28.51 C 46.94 31.35 47.95 34.10 48.17 37.48 C 46.47 38.60 44.89 39.74 43.74 41.45 C 42.80 44.75 42.87 48.12 42.32 51.47 C 41.58 54.47 40.21 57.23 39.77 60.32 C 36.84 62.69 35.48 66.01 34.71 69.61 C 33.62 74.89 33.15 80.60 34.25 85.91 C 34.08 87.08 33.82 88.23 33.49 89.36 C 30.53 90.38 27.07 90.39 23.96 90.59 C 24.24 90.97 24.51 91.34 24.79 91.71 C 28.04 97.00 32.77 99.98 37.23 104.08 C 36.57 106.38 35.85 108.64 35.05 110.90 C 34.08 113.56 34.29 116.69 33.32 119.35 C 32.44 120.79 30.99 121.95 29.80 123.12 C 30.04 126.40 30.38 129.67 31.05 132.89 C 32.15 138.19 32.05 143.45 33.39 148.66 C 34.86 154.51 37.17 159.93 39.59 165.42 C 41.19 168.85 42.95 172.69 45.68 175.37 C 48.90 178.15 52.79 180.28 56.96 181.27 C 60.38 182.05 63.51 183.51 66.71 184.92 C 64.69 182.09 63.11 179.26 60.08 177.34 C 61.29 176.21 63.16 175.07 63.53 173.36 C 64.15 170.96 64.28 168.36 64.52 165.89 C 64.84 167.13 65.22 168.35 65.61 169.57 C 66.82 177.62 70.64 184.37 74.82 191.18 C 77.90 196.27 83.46 199.87 87.69 204.22 C 84.32 201.96 81.28 199.32 77.85 197.14 C 80.33 205.40 86.36 212.73 93.15 217.89 C 96.90 220.74 101.34 221.35 105.38 223.53 C 97.43 224.21 91.89 220.40 85.19 216.99 C 87.15 219.31 89.21 221.53 90.97 224.02 C 92.84 226.54 94.50 229.12 97.45 230.51 C 101.30 232.33 105.81 232.99 109.92 234.11 C 116.56 235.97 124.37 236.37 130.85 233.73 C 134.03 232.70 136.51 231.04 139.99 231.75 C 144.72 232.47 149.21 232.70 154.00 232.59 C 159.31 232.78 164.58 232.75 169.82 231.75 C 174.14 230.91 178.58 230.85 182.87 229.90 C 187.92 228.70 191.35 225.45 196.22 223.29 C 203.58 219.99 210.40 215.87 215.90 209.89 C 219.20 206.19 222.43 202.27 225.08 198.07 C 228.99 190.98 231.74 183.10 233.11 175.12 C 234.35 167.50 233.07 160.62 232.84 153.01 C 232.57 145.55 231.44 138.01 229.19 130.88 C 228.40 128.33 227.34 126.52 225.51 124.58 C 222.50 121.42 221.40 117.49 218.79 114.07 C 221.61 113.54 225.35 113.64 226.90 110.76 C 228.69 108.40 226.75 106.40 225.93 104.08 C 224.26 104.23 222.59 104.38 220.93 104.60 C 220.91 103.11 220.91 101.61 220.96 100.11 C 221.65 98.75 222.54 97.39 222.99 95.93 C 223.32 93.51 222.88 90.96 222.70 88.53 C 223.39 88.02 224.09 87.52 224.81 87.05 C 225.48 86.59 226.14 86.11 226.78 85.61 C 225.79 81.38 224.78 77.61 226.51 73.37 L 227.32 71.66 C 225.72 69.93 223.99 67.86 221.88 66.77 C 219.84 67.03 218.13 67.96 217.11 69.79 C 215.46 72.69 214.49 75.95 212.94 78.91 C 210.67 80.91 208.35 82.86 206.03 84.79 C 203.29 85.96 200.48 86.55 197.59 87.23 C 197.03 81.79 201.08 78.55 198.62 73.89 C 197.08 77.47 196.35 80.89 194.26 84.19 C 191.70 82.39 189.10 80.74 186.35 79.23 C 186.54 77.12 186.75 75.01 186.97 72.90 C 187.41 74.66 187.86 76.41 188.31 78.17 C 188.66 77.00 189.01 75.83 189.36 74.65 C 190.16 75.24 190.96 75.82 191.77 76.40 C 192.31 73.16 192.51 69.95 192.46 66.67 C 193.41 67.01 194.36 67.34 195.31 67.67 C 196.57 65.18 197.61 62.44 199.23 60.16 L 200.04 59.50 C 198.58 63.58 197.22 67.60 196.93 71.97 C 198.92 68.27 200.64 64.46 202.88 60.90 C 207.28 56.55 212.31 53.03 217.03 49.08 C 218.63 47.82 218.77 46.31 218.94 44.41 L 219.08 42.71 C 220.47 40.91 221.87 39.14 223.09 37.22 C 224.61 36.86 226.10 36.42 227.62 36.07 C 229.07 43.91 224.32 51.19 225.34 58.68 C 226.15 63.80 231.17 65.88 231.89 70.73 C 232.68 74.61 233.74 78.09 234.00 81.95 C 234.41 87.93 234.42 94.01 235.23 99.95 C 235.58 102.30 236.80 104.13 237.91 106.18 C 237.22 106.32 236.54 106.46 235.85 106.61 C 235.19 111.84 235.92 116.70 236.05 122.05 C 236.09 127.33 238.49 131.74 239.16 136.87 C 239.79 141.57 240.31 146.27 241.10 150.95 C 242.05 156.53 241.62 161.96 241.54 167.57 C 241.60 175.93 239.14 184.58 236.57 192.49 C 235.53 195.90 233.61 198.65 231.31 201.32 C 228.52 204.58 227.48 208.51 224.34 211.49 C 220.39 215.08 219.39 219.61 213.71 220.99 C 213.80 221.57 213.90 222.15 213.99 222.73 C 207.74 226.59 200.88 231.70 193.61 233.06 C 190.43 233.75 188.29 236.42 185.00 237.08 C 179.82 238.26 174.54 239.40 169.31 240.32 C 161.48 241.69 154.08 240.52 146.16 241.26 C 135.30 242.23 123.33 244.05 112.39 242.57 C 107.28 241.56 101.83 240.00 97.03 237.95 C 91.00 234.71 85.71 229.21 80.85 224.46 C 77.39 221.27 73.21 219.02 68.37 220.32 C 63.33 221.79 58.83 225.23 54.11 227.53 C 55.50 227.87 56.89 228.21 58.28 228.57 C 57.31 229.25 56.32 230.38 55.14 230.63 C 53.50 230.66 51.81 229.42 50.47 228.59 C 50.16 226.82 49.28 224.77 49.81 223.01 C 50.28 220.58 51.89 219.21 53.51 217.51 C 55.97 215.09 58.68 212.35 61.77 210.77 C 65.03 209.27 68.93 208.85 72.41 208.02 C 72.08 204.84 71.83 201.63 71.34 198.47 C 70.07 195.26 68.51 192.19 67.43 188.89 C 67.42 193.28 68.78 196.87 65.68 200.59 C 61.69 203.30 56.19 204.77 52.30 208.29 C 49.73 210.44 48.47 213.53 46.22 216.21 C 43.35 219.62 40.60 224.30 40.63 228.87 C 40.33 230.94 42.31 232.27 43.45 233.75 C 41.57 230.38 40.75 228.56 41.44 224.58 C 43.51 224.12 45.58 223.65 47.66 223.18 C 48.39 224.82 49.15 226.43 50.05 227.99 C 49.21 229.82 48.40 231.76 47.27 233.43 C 45.61 234.44 42.40 234.29 40.86 233.12 C 39.27 231.35 38.11 229.30 36.31 227.71 C 32.81 224.74 31.24 220.43 27.75 217.39 C 28.29 216.26 28.92 215.14 29.30 213.95 C 29.35 211.93 28.00 209.78 27.15 208.00 C 28.79 207.91 30.08 206.25 31.16 205.16 C 36.37 200.84 42.70 202.71 48.80 202.09 C 51.87 200.32 55.15 198.07 57.80 195.72 C 58.71 195.08 58.59 193.49 58.53 192.52 C 57.01 190.04 54.33 188.28 52.38 186.12 C 53.04 187.57 53.71 189.02 54.34 190.48 C 47.98 192.38 40.89 192.29 34.61 194.64 C 30.21 196.34 27.13 199.47 24.13 202.98 C 23.71 202.62 23.29 202.27 22.87 201.92 C 21.61 202.24 20.35 202.56 19.10 202.88 C 20.66 200.21 22.11 197.47 23.74 194.85 C 26.33 190.53 31.39 188.68 33.90 183.97 C 35.57 180.72 35.31 176.29 35.33 172.69 C 34.55 172.91 33.78 173.14 33.00 173.37 C 32.98 171.38 33.21 169.01 32.45 167.15 C 30.71 162.90 28.10 159.63 27.02 155.10 C 26.14 151.02 24.61 147.01 24.20 142.86 C 23.87 138.58 23.30 134.32 22.98 130.04 C 22.55 124.57 23.38 119.31 23.82 113.89 C 24.21 109.02 22.46 105.10 21.59 100.41 C 20.74 96.26 21.13 92.09 20.95 87.71 C 22.18 83.38 22.22 78.91 23.62 74.62 C 27.21 63.27 30.43 50.81 36.27 40.39 C 38.66 35.81 40.72 31.52 45.13 28.51 Z" fill="#f4f4f2" />
<path d="M 222.29 29.22 C 223.12 30.39 224.01 31.57 224.67 32.84 C 224.35 34.35 223.72 35.82 223.09 37.22 C 221.87 39.14 220.47 40.91 219.08 42.71 C 219.63 38.28 221.29 34.28 221.23 29.72 L 222.29 29.22 Z" fill="#ccadbe" />
<path d="M 221.23 29.72 C 221.29 34.28 219.63 38.28 219.08 42.71 L 218.94 44.41 C 216.61 46.44 214.07 48.05 211.41 49.59 C 208.49 51.20 206.87 54.13 205.16 56.87 L 204.90 55.36 C 203.49 56.50 202.11 57.67 200.75 58.88 C 200.36 58.06 199.97 57.24 199.62 56.40 C 201.10 54.90 202.59 53.41 204.04 51.87 C 199.98 53.91 196.16 56.28 191.91 57.93 C 191.49 56.86 191.06 55.80 190.62 54.74 C 189.62 54.47 188.62 54.20 187.62 53.94 C 188.35 53.49 189.09 53.06 189.84 52.66 C 195.76 51.39 200.42 49.48 205.35 45.89 C 204.85 44.31 204.19 42.79 203.69 41.21 C 204.43 40.74 205.17 40.29 205.93 39.85 C 206.79 41.32 207.67 42.78 208.56 44.23 C 210.13 42.32 211.23 40.20 212.24 37.95 C 212.57 37.62 212.90 37.30 213.22 36.98 C 213.89 37.12 214.55 37.26 215.21 37.40 C 215.80 34.81 216.62 32.90 218.12 30.70 C 219.16 30.39 220.20 30.06 221.23 29.72 Z" fill="#a66590" />
<path d="M 171.16 30.97 C 172.22 30.95 173.29 30.93 174.36 30.93 C 173.61 34.01 172.41 36.50 170.66 39.13 C 168.12 43.20 165.89 47.45 163.90 51.82 L 162.12 52.36 C 163.19 47.51 164.95 42.88 166.07 38.05 C 166.69 34.92 168.77 32.89 171.16 30.97 Z" fill="#97537f" />
<path d="M 72.26 35.40 C 72.34 37.49 72.49 39.58 72.65 41.67 C 72.46 48.51 70.63 54.30 64.75 58.33 C 63.82 56.87 62.88 55.41 61.96 53.93 C 64.56 50.51 63.86 46.88 65.08 43.04 C 66.54 39.58 68.44 36.47 72.26 35.40 Z" fill="#eed097" />
<path d="M 48.17 37.48 C 48.57 42.58 48.43 47.52 46.18 52.21 C 45.16 48.67 44.54 45.04 43.74 41.45 C 44.89 39.74 46.47 38.60 48.17 37.48 Z" fill="#d0a6c5" />
<path d="M 212.24 37.95 C 211.23 40.20 210.13 42.32 208.56 44.23 C 207.67 42.78 206.79 41.32 205.93 39.85 C 207.97 38.98 210.10 38.51 212.24 37.95 Z" fill="#ceb4c1" />
<path d="M 50.48 38.99 C 52.33 42.30 54.56 45.71 55.38 49.43 C 56.10 52.67 56.44 56.01 56.89 59.30 C 57.41 62.65 56.37 66.08 56.34 69.54 C 54.03 72.19 52.81 74.79 52.02 78.22 C 48.59 74.66 46.05 70.96 43.69 66.62 C 43.15 67.13 42.63 67.64 42.11 68.16 C 41.53 68.73 40.94 69.29 40.34 69.84 C 39.52 68.84 38.69 67.83 37.85 66.83 C 40.36 61.98 45.12 59.51 47.72 54.69 C 50.69 49.77 50.31 44.51 50.48 38.99 Z" fill="#b96aa8" />
<path d="M 43.74 41.45 C 44.54 45.04 45.16 48.67 46.18 52.21 C 44.63 55.60 43.25 58.51 39.77 60.32 C 40.21 57.23 41.58 54.47 42.32 51.47 C 42.87 48.12 42.80 44.75 43.74 41.45 Z" fill="#d3acc7" />
<path d="M 72.65 41.67 C 74.27 46.76 76.48 51.48 78.61 56.46 C 79.70 58.95 81.02 60.76 83.11 62.48 C 84.19 63.47 85.26 64.45 86.24 65.54 C 85.39 65.29 83.54 65.17 84.17 66.60 C 84.86 67.52 85.99 68.12 86.92 68.79 C 87.35 69.10 87.78 69.43 88.20 69.75 C 89.96 72.73 92.31 75.17 94.75 77.59 C 95.35 79.03 95.99 80.45 96.53 81.92 C 93.93 81.85 91.33 81.85 88.73 81.76 C 87.50 81.53 86.28 81.31 85.06 81.09 C 81.27 77.98 83.11 72.78 79.43 69.63 C 75.98 67.05 73.28 64.28 69.22 63.23 C 67.05 62.73 65.99 60.00 64.75 58.33 C 70.63 54.30 72.46 48.51 72.65 41.67 Z" fill="#eae9d2" />
<path d="M 203.69 41.21 C 204.19 42.79 204.85 44.31 205.35 45.89 C 200.42 49.48 195.76 51.39 189.84 52.66 C 190.99 50.60 191.54 47.92 193.85 46.89 C 197.21 45.12 200.50 43.30 203.69 41.21 Z" fill="#883b72" />
<path d="M 218.94 44.41 C 218.77 46.31 218.63 47.82 217.03 49.08 C 212.31 53.03 207.28 56.55 202.88 60.90 C 203.66 59.56 204.42 58.22 205.16 56.87 C 206.87 54.13 208.49 51.20 211.41 49.59 C 214.07 48.05 216.61 46.44 218.94 44.41 Z" fill="#d8b8cf" />
<path d="M 162.12 52.36 L 163.90 51.82 C 163.23 53.88 162.58 55.94 162.01 58.02 C 160.49 62.42 160.89 66.77 161.87 71.22 C 161.29 73.40 160.64 75.55 160.17 77.76 C 159.58 78.29 159.00 78.83 158.44 79.39 C 156.60 77.78 154.04 76.23 153.42 73.70 C 152.61 70.71 152.20 67.61 151.58 64.57 C 152.18 63.63 152.76 62.68 153.34 61.72 C 154.06 62.73 154.79 63.71 155.55 64.67 C 155.69 62.57 155.67 60.52 155.27 58.45 C 156.26 56.75 157.30 55.08 158.39 53.44 C 158.00 55.71 157.60 57.97 157.24 60.25 C 160.33 58.21 161.15 55.75 162.12 52.36 Z" fill="#e0c4d5" />
<path d="M 204.04 51.87 C 202.59 53.41 201.10 54.90 199.62 56.40 C 199.97 57.24 200.36 58.06 200.75 58.88 L 200.04 59.50 L 199.23 60.16 C 197.61 62.44 196.57 65.18 195.31 67.67 C 194.36 67.34 193.41 67.01 192.46 66.67 C 192.51 69.95 192.31 73.16 191.77 76.40 C 190.96 75.82 190.16 75.24 189.36 74.65 C 189.01 75.83 188.66 77.00 188.31 78.17 C 187.86 76.41 187.41 74.66 186.97 72.90 C 186.75 75.01 186.54 77.12 186.35 79.23 C 183.55 77.05 182.65 74.07 181.74 70.80 C 179.56 73.32 177.65 76.03 175.58 78.63 C 174.04 80.72 171.34 81.18 169.09 82.20 C 166.17 83.27 164.31 85.96 161.75 87.86 L 160.63 87.92 C 165.52 79.36 173.74 73.71 180.61 66.92 C 182.73 64.26 182.27 61.68 181.20 58.67 C 183.24 56.96 185.39 55.39 187.62 53.94 C 188.62 54.20 189.62 54.47 190.62 54.74 C 191.06 55.80 191.49 56.86 191.91 57.93 C 196.16 56.28 199.98 53.91 204.04 51.87 Z" fill="#d7aac8" />
<path d="M 204.90 55.36 L 205.16 56.87 C 204.42 58.22 203.66 59.56 202.88 60.90 C 200.64 64.46 198.92 68.27 196.93 71.97 C 197.22 67.60 198.58 63.58 200.04 59.50 L 200.75 58.88 C 202.11 57.67 203.49 56.50 204.90 55.36 Z" fill="#946186" />
<path d="M 162.01 58.02 C 161.80 61.08 161.00 64.80 162.08 67.73 C 163.42 70.28 165.58 72.42 167.28 74.75 C 169.51 71.65 171.78 68.58 174.15 65.58 C 176.35 65.83 178.49 66.31 180.61 66.92 C 173.74 73.71 165.52 79.36 160.63 87.92 C 160.05 88.76 159.44 89.57 158.78 90.35 C 157.72 91.53 156.59 92.64 155.54 93.83 C 155.82 94.56 156.09 95.28 156.36 96.01 C 154.59 97.04 152.85 98.07 151.23 99.33 C 149.69 98.81 148.13 98.29 146.63 97.70 L 146.04 96.35 C 147.05 93.23 148.16 90.15 149.06 87.00 C 150.92 83.59 154.01 82.93 157.28 81.39 C 157.66 80.72 158.05 80.05 158.44 79.39 C 159.00 78.83 159.58 78.29 160.17 77.76 L 161.17 78.23 C 160.00 80.86 159.16 83.45 158.68 86.29 C 162.24 84.07 164.32 80.27 164.65 76.14 C 163.97 74.40 162.81 72.82 161.87 71.22 C 160.89 66.77 160.49 62.42 162.01 58.02 Z" fill="#863a71" />
<path d="M 155.27 58.45 C 155.67 60.52 155.69 62.57 155.55 64.67 C 154.79 63.71 154.06 62.73 153.34 61.72 C 153.98 60.64 154.63 59.55 155.27 58.45 Z" fill="#b995ae" />
<path d="M 181.20 58.67 C 182.27 61.68 182.73 64.26 180.61 66.92 C 178.49 66.31 176.35 65.83 174.15 65.58 C 176.34 63.14 178.72 60.81 181.20 58.67 Z" fill="#9e5b87" />
<path d="M 86.24 65.54 C 86.81 66.43 87.03 67.51 86.92 68.79 C 85.99 68.12 84.86 67.52 84.17 66.60 C 83.54 65.17 85.39 65.29 86.24 65.54 Z" fill="#b5b6ae" />
<path d="M 151.58 64.57 C 152.20 67.61 152.61 70.71 153.42 73.70 C 154.04 76.23 156.60 77.78 158.44 79.39 C 158.05 80.05 157.66 80.72 157.28 81.39 C 154.01 82.93 150.92 83.59 149.06 87.00 C 148.79 85.27 148.44 83.56 148.04 81.87 C 148.74 81.61 149.44 81.37 150.13 81.12 C 150.72 78.61 151.66 75.85 151.46 73.26 C 150.97 71.63 149.95 70.12 149.07 68.67 C 149.87 67.28 150.72 65.92 151.58 64.57 Z" fill="#b279a2" />
<path d="M 43.69 66.62 C 46.05 70.96 48.59 74.66 52.02 78.22 L 52.85 79.30 L 53.19 79.76 C 50.15 79.70 47.83 80.84 45.10 81.89 C 43.20 81.68 41.30 80.03 40.15 78.58 C 39.45 75.26 41.10 71.31 42.11 68.16 C 42.63 67.64 43.15 67.13 43.69 66.62 Z" fill="#eece93" />
<path d="M 37.85 66.83 C 38.69 67.83 39.52 68.84 40.34 69.84 C 40.94 69.29 41.53 68.73 42.11 68.16 C 41.10 71.31 39.45 75.26 40.15 78.58 C 41.30 80.03 43.20 81.68 45.10 81.89 C 47.83 80.84 50.15 79.70 53.19 79.76 C 53.63 82.69 53.34 85.56 52.93 88.46 C 50.74 89.77 48.76 91.04 46.08 90.90 C 42.79 90.64 38.78 89.99 37.58 86.40 C 35.49 79.99 35.06 73.12 37.85 66.83 Z" fill="#c287ad" />
<path d="M 221.88 66.77 C 223.99 67.86 225.72 69.93 227.32 71.66 C 225.85 71.30 224.39 70.92 222.91 70.61 C 219.36 72.95 216.18 76.14 212.94 78.91 C 214.49 75.95 215.46 72.69 217.11 69.79 C 218.13 67.96 219.84 67.03 221.88 66.77 Z" fill="#d1b4c2" />
<path d="M 149.07 68.67 C 149.95 70.12 150.97 71.63 151.46 73.26 C 151.66 75.85 150.72 78.61 150.13 81.12 C 149.44 81.37 148.74 81.61 148.04 81.87 L 147.33 82.14 C 147.06 84.75 147.31 89.19 144.83 90.74 C 143.09 90.97 141.29 90.88 139.53 90.88 L 139.92 89.38 C 141.57 84.17 143.59 79.07 146.06 74.19 C 147.05 72.34 148.02 70.50 149.07 68.67 Z" fill="#9d5488" />
<path d="M 56.34 69.54 C 57.71 70.26 59.06 70.99 60.36 71.83 L 60.54 72.70 C 58.17 75.15 55.72 77.43 52.85 79.30 L 52.02 78.22 C 52.81 74.79 54.03 72.19 56.34 69.54 Z" fill="#c993b3" />
<path d="M 88.20 69.75 C 90.00 71.01 91.68 72.46 93.53 73.63 C 95.50 74.43 97.65 74.78 99.68 75.38 C 98.57 75.95 97.45 76.51 96.32 77.05 C 97.49 77.37 98.65 77.70 99.81 78.06 C 100.50 77.27 101.21 76.50 101.92 75.74 C 108.07 78.72 115.03 82.89 122.00 82.93 C 125.27 83.09 128.48 83.68 131.68 84.35 C 129.91 87.75 129.04 90.97 128.49 94.75 C 128.28 96.70 127.22 98.11 126.10 99.64 C 125.93 96.20 126.55 93.37 127.58 90.16 C 126.56 89.00 125.66 88.23 124.04 88.15 C 118.31 87.53 112.68 86.51 107.17 84.80 C 102.49 83.30 98.75 80.40 94.75 77.59 C 92.31 75.17 89.96 72.73 88.20 69.75 Z" fill="#22233d" />
<path d="M 222.91 70.61 C 224.39 70.92 225.85 71.30 227.32 71.66 L 226.51 73.37 C 223.85 77.64 221.16 81.88 218.74 86.29 C 218.04 87.53 217.41 88.81 216.88 90.13 C 215.40 88.20 214.05 86.85 211.69 86.14 C 214.88 84.43 216.14 82.36 217.36 79.07 C 213.58 81.06 210.04 83.26 206.03 84.79 C 208.35 82.86 210.67 80.91 212.94 78.91 C 216.18 76.14 219.36 72.95 222.91 70.61 Z" fill="#8c3c72" />
<path d="M 181.74 70.80 C 182.65 74.07 183.55 77.05 186.35 79.23 C 189.10 80.74 191.70 82.39 194.26 84.19 C 192.50 85.94 190.56 87.52 188.45 88.82 C 186.89 87.21 185.04 84.43 182.63 84.28 C 179.01 83.82 174.98 85.52 171.63 86.74 C 172.48 87.12 173.34 87.48 174.20 87.83 C 170.05 87.82 165.90 87.79 161.75 87.86 C 164.31 85.96 166.17 83.27 169.09 82.20 C 171.34 81.18 174.04 80.72 175.58 78.63 C 177.65 76.03 179.56 73.32 181.74 70.80 Z" fill="#a0618c" />
<path d="M 60.36 71.83 C 64.18 74.39 67.27 77.57 71.57 79.48 C 75.65 81.32 80.33 80.35 84.14 80.93 C 86.34 83.31 88.20 85.68 89.68 88.58 C 88.21 91.71 88.40 92.76 90.06 95.66 C 88.14 98.02 86.63 100.54 85.30 103.27 C 83.84 102.17 82.46 100.99 81.03 99.86 C 79.95 99.02 78.87 98.18 77.73 97.42 C 76.96 98.98 76.24 100.55 75.50 102.12 C 74.64 101.15 73.78 100.19 72.91 99.23 C 71.76 99.34 70.60 99.46 69.45 99.59 C 67.57 99.77 65.71 100.02 63.87 100.44 C 61.60 102.13 59.43 103.97 57.04 105.57 C 57.29 103.95 57.52 102.32 57.74 100.70 C 57.96 99.14 58.20 97.57 58.45 96.01 C 54.82 95.85 51.23 95.60 47.73 94.55 L 46.62 94.25 C 51.05 93.09 54.72 91.36 58.05 88.14 C 61.34 89.03 64.63 90.03 68.03 90.70 C 66.49 88.85 64.68 87.18 62.68 85.86 C 59.05 85.39 55.95 86.56 52.93 88.46 C 54.63 84.43 57.13 81.22 60.05 78.00 C 61.56 76.54 60.75 74.52 60.54 72.70 L 60.36 71.83 Z" fill="#eaead2" />
<path d="M 161.87 71.22 C 162.81 72.82 163.97 74.40 164.65 76.14 C 164.32 80.27 162.24 84.07 158.68 86.29 C 159.16 83.45 160.00 80.86 161.17 78.23 L 160.17 77.76 C 160.64 75.55 161.29 73.40 161.87 71.22 Z" fill="#b58da8" />
<path d="M 60.54 72.70 C 60.75 74.52 61.56 76.54 60.05 78.00 C 57.13 81.22 54.63 84.43 52.93 88.46 C 53.34 85.56 53.63 82.69 53.19 79.76 L 52.85 79.30 C 55.72 77.43 58.17 75.15 60.54 72.70 Z" fill="#d4bcb0" />
<path d="M 146.06 74.19 C 143.59 79.07 141.57 84.17 139.92 89.38 C 138.82 88.51 137.72 87.63 136.61 86.76 C 137.21 84.23 137.56 81.17 139.02 78.98 C 140.89 76.94 143.79 75.76 146.06 74.19 Z" fill="#cfb2c0" />
<path d="M 198.62 73.89 C 201.08 78.55 197.03 81.79 197.59 87.23 C 195.66 87.72 193.76 88.30 191.92 89.04 C 190.85 89.91 189.84 90.84 188.83 91.76 L 187.66 92.83 C 186.32 92.29 184.97 91.79 183.61 91.31 L 185.41 90.45 C 186.44 89.93 187.45 89.39 188.45 88.82 C 190.56 87.52 192.50 85.94 194.26 84.19 C 196.35 80.89 197.08 77.47 198.62 73.89 Z" fill="#9a5d83" />
<path d="M 226.51 73.37 C 224.78 77.61 225.79 81.38 226.78 85.61 C 226.14 86.11 225.48 86.59 224.81 87.05 C 222.79 86.78 220.77 86.52 218.74 86.29 C 221.16 81.88 223.85 77.64 226.51 73.37 Z" fill="#caa8be" />
<path d="M 217.36 79.07 C 216.14 82.36 214.88 84.43 211.69 86.14 C 207.88 88.02 204.61 90.80 200.85 92.72 C 197.75 92.09 194.82 90.30 191.92 89.04 C 193.76 88.30 195.66 87.72 197.59 87.23 C 200.48 86.55 203.29 85.96 206.03 84.79 C 210.04 83.26 213.58 81.06 217.36 79.07 Z" fill="#e0b6d4" />
<path d="M 85.06 81.09 C 86.28 81.31 87.50 81.53 88.73 81.76 C 95.28 84.02 102.08 85.02 108.46 87.85 C 102.12 88.80 96.72 86.82 90.73 85.22 C 92.86 87.34 94.93 89.24 97.89 90.13 C 102.11 91.50 105.98 90.13 110.29 91.13 C 103.56 95.51 95.41 93.67 89.68 88.58 C 88.20 85.68 86.34 83.31 84.14 80.93 L 85.06 81.09 Z" fill="#662a5d" />
<path d="M 148.04 81.87 C 148.44 83.56 148.79 85.27 149.06 87.00 C 148.16 90.15 147.05 93.23 146.04 96.35 C 145.55 95.19 145.03 94.04 144.51 92.90 C 142.02 94.09 140.82 95.66 139.62 98.11 C 139.41 95.70 139.28 93.30 139.53 90.88 C 141.29 90.88 143.09 90.97 144.83 90.74 C 147.31 89.19 147.06 84.75 147.33 82.14 L 148.04 81.87 Z" fill="#d9c1d0" />
<path d="M 182.63 84.28 C 185.04 84.43 186.89 87.21 188.45 88.82 C 187.45 89.39 186.44 89.93 185.41 90.45 C 181.76 89.02 178.08 88.26 174.20 87.83 C 173.34 87.48 172.48 87.12 171.63 86.74 C 174.98 85.52 179.01 83.82 182.63 84.28 Z" fill="#cdaeb6" />
<path d="M 90.73 85.22 C 96.72 86.82 102.12 88.80 108.46 87.85 C 109.35 87.99 110.24 88.13 111.14 88.27 C 110.84 89.22 110.57 90.17 110.29 91.13 C 105.98 90.13 102.11 91.50 97.89 90.13 C 94.93 89.24 92.86 87.34 90.73 85.22 Z" fill="#77e0f6" />
<path d="M 34.25 85.91 C 34.56 87.59 34.86 89.28 35.13 90.97 C 32.72 91.27 30.31 91.52 27.90 91.78 C 34.09 93.06 40.34 93.55 46.62 94.25 L 47.73 94.55 C 46.52 97.45 44.60 99.77 42.59 102.13 C 41.69 102.10 40.79 102.08 39.89 102.07 C 34.63 98.89 29.78 95.26 24.79 91.71 C 24.51 91.34 24.24 90.97 23.96 90.59 C 27.07 90.39 30.53 90.38 33.49 89.36 C 33.82 88.23 34.08 87.08 34.25 85.91 Z" fill="#c585b2" />
<path d="M 211.69 86.14 C 214.05 86.85 215.40 88.20 216.88 90.13 C 213.57 90.36 210.26 90.46 206.95 90.55 C 207.70 93.02 208.65 95.45 209.28 97.95 C 209.83 99.66 208.73 101.65 208.19 103.27 C 202.72 98.22 195.64 94.65 188.83 91.76 C 189.84 90.84 190.85 89.91 191.92 89.04 C 194.82 90.30 197.75 92.09 200.85 92.72 C 204.61 90.80 207.88 88.02 211.69 86.14 Z" fill="#b487a6" />
<path d="M 218.74 86.29 C 219.30 90.93 220.37 95.48 220.96 100.11 C 220.91 101.61 220.91 103.11 220.93 104.60 C 219.54 104.85 218.17 105.18 216.77 105.40 C 214.67 105.96 212.45 104.50 210.53 103.76 C 212.01 101.55 213.84 99.59 215.27 97.37 C 216.30 95.19 216.33 92.47 216.88 90.13 C 217.41 88.81 218.04 87.53 218.74 86.29 Z" fill="#af7c9f" />
<path d="M 218.74 86.29 C 220.77 86.52 222.79 86.78 224.81 87.05 C 224.09 87.52 223.39 88.02 222.70 88.53 C 222.88 90.96 223.32 93.51 222.99 95.93 C 222.54 97.39 221.65 98.75 220.96 100.11 C 220.37 95.48 219.30 90.93 218.74 86.29 Z" fill="#e1c5d5" />
<path d="M 174.20 87.83 C 178.08 88.26 181.76 89.02 185.41 90.45 L 183.61 91.31 C 180.39 90.48 177.25 90.34 173.94 90.48 C 170.38 90.66 166.91 89.60 163.39 89.91 C 161.85 90.04 160.31 90.18 158.78 90.35 C 159.44 89.57 160.05 88.76 160.63 87.92 L 161.75 87.86 C 165.90 87.79 170.05 87.82 174.20 87.83 Z" fill="#2b2235" />
<path d="M 111.14 88.27 C 114.61 88.80 118.08 89.56 121.51 90.32 C 121.64 92.25 121.77 94.19 121.92 96.12 C 120.50 95.91 119.01 95.64 117.58 95.63 C 116.18 96.86 115.64 99.01 114.19 100.14 C 110.29 101.26 105.76 102.09 102.39 104.38 C 95.43 110.71 86.83 115.44 77.95 118.47 C 79.88 119.02 81.83 119.54 83.77 120.06 C 84.05 120.99 84.33 121.92 84.61 122.85 C 84.09 123.67 83.57 124.51 83.07 125.34 C 82.82 123.80 82.53 122.18 81.95 120.73 C 78.54 119.69 74.79 119.59 71.26 119.25 C 75.03 115.24 80.37 114.04 83.93 109.72 C 81.25 109.86 78.80 109.94 76.61 111.72 C 73.99 113.70 71.98 115.18 68.57 115.32 C 70.17 113.95 71.73 112.54 73.40 111.25 C 76.53 109.15 79.68 107.71 83.49 107.35 C 88.24 106.82 92.87 106.31 97.29 104.33 C 93.32 103.72 89.27 103.90 85.30 103.27 C 86.63 100.54 88.14 98.02 90.06 95.66 C 88.40 92.76 88.21 91.71 89.68 88.58 C 95.41 93.67 103.56 95.51 110.29 91.13 C 110.57 90.17 110.84 89.22 111.14 88.27 Z" fill="#eeedde" />
<path d="M 158.78 90.35 C 160.31 90.18 161.85 90.04 163.39 89.91 C 162.20 92.34 161.47 94.66 159.38 96.50 C 156.48 99.27 152.99 100.24 149.26 101.36 C 149.91 100.68 150.57 100.00 151.23 99.33 C 152.85 98.07 154.59 97.04 156.36 96.01 C 156.09 95.28 155.82 94.56 155.54 93.83 C 156.59 92.64 157.72 91.53 158.78 90.35 Z" fill="#c4a9ac" />
<path d="M 163.39 89.91 C 166.91 89.60 170.38 90.66 173.94 90.48 C 177.25 90.34 180.39 90.48 183.61 91.31 C 184.97 91.79 186.32 92.29 187.66 92.83 C 188.66 93.28 189.65 93.75 190.63 94.23 C 187.48 96.95 183.43 94.73 179.76 94.42 C 182.97 96.88 186.79 98.58 189.83 101.20 C 191.51 103.72 191.90 107.06 193.41 109.70 C 195.16 111.61 197.80 112.82 199.98 114.19 C 198.66 117.27 197.76 120.90 195.75 123.59 C 193.66 125.92 189.04 125.15 186.26 126.18 C 184.35 127.25 183.32 129.16 181.12 129.82 C 178.40 130.55 175.82 131.00 173.59 132.92 C 170.75 130.79 167.63 128.68 166.97 124.91 C 166.56 121.06 166.80 116.65 169.83 113.84 C 172.92 111.25 177.49 110.07 181.37 109.27 C 179.45 111.20 177.32 112.88 175.16 114.55 C 176.81 114.09 178.54 113.72 180.09 113.00 C 181.67 111.93 182.91 110.26 184.16 108.84 C 178.38 106.72 172.85 110.22 167.91 112.89 C 164.04 115.00 164.43 119.23 165.07 122.97 C 165.68 126.09 167.73 128.77 168.36 131.81 C 167.38 135.69 166.21 139.31 166.34 143.38 C 166.09 146.67 166.75 151.01 164.56 153.69 C 160.33 156.63 157.73 160.65 154.69 164.74 C 148.44 164.01 142.02 164.07 135.75 164.41 C 133.08 160.42 131.05 156.39 129.21 151.97 C 130.04 154.80 130.91 157.62 131.59 160.50 C 132.66 164.84 134.75 168.60 136.70 172.58 C 137.72 176.35 139.45 179.15 137.96 183.09 C 136.31 182.43 134.65 181.83 133.00 181.19 C 129.27 179.56 125.55 178.01 121.58 177.07 C 121.49 176.71 121.39 176.36 121.29 176.01 C 120.78 172.64 118.41 171.11 116.29 168.72 C 115.84 168.08 115.38 167.45 114.92 166.83 C 114.97 164.61 114.87 162.38 114.67 160.18 C 115.26 159.84 115.84 159.51 116.43 159.17 C 115.29 157.15 114.28 155.11 113.33 152.99 C 111.40 149.33 111.29 145.51 110.62 141.54 C 108.88 144.38 108.43 147.44 107.75 150.63 C 106.26 148.81 104.27 146.68 104.22 144.19 C 105.08 142.58 106.41 141.13 107.59 139.74 C 108.47 140.15 109.34 140.55 110.21 140.96 C 110.76 139.30 111.27 137.64 111.82 135.98 C 108.32 135.93 106.99 133.82 104.74 131.48 C 105.92 128.50 107.38 126.83 110.12 125.20 C 113.66 123.19 116.88 121.18 119.52 118.02 C 119.55 120.40 119.58 122.79 119.57 125.17 C 117.75 125.87 115.90 126.49 114.07 127.19 C 114.35 128.27 114.65 129.35 114.98 130.42 L 115.36 131.64 L 116.77 131.63 C 119.27 131.63 121.78 131.65 124.28 131.63 C 124.55 132.71 124.89 133.81 125.00 134.92 C 124.51 136.84 123.32 138.63 122.44 140.40 C 125.06 138.59 127.52 136.97 128.86 133.94 C 131.13 129.09 133.45 124.39 136.71 120.09 C 138.01 122.33 138.99 124.50 141.33 125.86 C 142.55 125.66 143.31 124.98 144.07 124.04 C 147.40 119.51 149.34 114.23 147.92 108.59 C 145.69 108.36 143.47 108.12 141.24 107.89 C 143.81 105.60 146.62 103.58 149.26 101.36 C 152.99 100.24 156.48 99.27 159.38 96.50 C 161.47 94.66 162.20 92.34 163.39 89.91 Z" fill="#eae8d3" />
<path d="M 216.88 90.13 C 216.33 92.47 216.30 95.19 215.27 97.37 C 213.84 99.59 212.01 101.55 210.53 103.76 C 212.45 104.50 214.67 105.96 216.77 105.40 C 218.17 105.18 219.54 104.85 220.93 104.60 C 222.59 104.38 224.26 104.23 225.93 104.08 C 226.75 106.40 228.69 108.40 226.90 110.76 C 225.35 113.64 221.61 113.54 218.79 114.07 C 215.61 110.11 212.03 106.57 208.19 103.27 C 208.73 101.65 209.83 99.66 209.28 97.95 C 208.65 95.45 207.70 93.02 206.95 90.55 C 210.26 90.46 213.57 90.36 216.88 90.13 Z" fill="#d6b4cb" />
<path d="M 39.89 102.07 C 41.45 103.96 42.93 105.90 44.61 107.70 C 48.48 104.54 52.30 107.26 57.04 105.57 C 59.43 103.97 61.60 102.13 63.87 100.44 C 63.99 101.82 63.38 104.46 64.74 105.32 C 66.41 105.92 68.68 105.23 70.40 104.96 C 71.26 104.68 72.11 104.38 72.95 104.06 C 74.31 104.82 75.66 105.57 77.01 106.32 C 78.08 105.77 79.15 105.22 80.22 104.67 C 81.31 105.56 82.40 106.45 83.49 107.35 C 79.68 107.71 76.53 109.15 73.40 111.25 C 71.03 110.84 68.74 110.44 66.32 110.62 C 61.93 111.78 57.42 112.76 53.16 114.35 C 47.14 116.39 45.66 124.95 45.97 130.43 C 46.13 132.29 46.31 134.15 46.42 136.01 C 46.20 137.46 45.92 138.89 45.73 140.35 C 45.90 147.85 50.37 151.90 53.95 157.87 C 54.65 160.10 55.03 162.51 55.42 164.82 C 54.14 165.09 52.87 165.35 51.59 165.60 C 52.38 167.68 53.07 169.82 54.01 171.84 C 55.39 174.10 57.95 175.83 60.08 177.34 C 63.11 179.26 64.69 182.09 66.71 184.92 C 63.51 183.51 60.38 182.05 56.96 181.27 C 52.79 180.28 48.90 178.15 45.68 175.37 C 42.95 172.69 41.19 168.85 39.59 165.42 C 37.17 159.93 34.86 154.51 33.39 148.66 C 32.05 143.45 32.15 138.19 31.05 132.89 C 30.38 129.67 30.04 126.40 29.80 123.12 C 30.99 121.95 32.44 120.79 33.32 119.35 C 34.29 116.69 34.08 113.56 35.05 110.90 C 35.85 108.64 36.57 106.38 37.23 104.08 C 32.77 99.98 28.04 97.00 24.79 91.71 C 29.78 95.26 34.63 98.89 39.89 102.07 Z" fill="#20223f" />
<path d="M 188.83 91.76 C 195.64 94.65 202.72 98.22 208.19 103.27 C 212.03 106.57 215.61 110.11 218.79 114.07 C 221.40 117.49 222.50 121.42 225.51 124.58 C 227.34 126.52 228.40 128.33 229.19 130.88 C 231.44 138.01 232.57 145.55 232.84 153.01 C 233.07 160.62 234.35 167.50 233.11 175.12 C 231.74 183.10 228.99 190.98 225.08 198.07 C 222.43 202.27 219.20 206.19 215.90 209.89 C 210.40 215.87 203.58 219.99 196.22 223.29 C 191.35 225.45 187.92 228.70 182.87 229.90 C 178.58 230.85 174.14 230.91 169.82 231.75 C 164.58 232.75 159.31 232.78 154.00 232.59 C 149.21 232.70 144.72 232.47 139.99 231.75 C 136.51 231.04 134.03 232.70 130.85 233.73 C 124.37 236.37 116.56 235.97 109.92 234.11 C 105.81 232.99 101.30 232.33 97.45 230.51 C 94.50 229.12 92.84 226.54 90.97 224.02 C 89.21 221.53 87.15 219.31 85.19 216.99 C 91.89 220.40 97.43 224.21 105.38 223.53 C 101.34 221.35 96.90 220.74 93.15 217.89 C 86.36 212.73 80.33 205.40 77.85 197.14 C 81.28 199.32 84.32 201.96 87.69 204.22 C 83.46 199.87 77.90 196.27 74.82 191.18 C 70.64 184.37 66.82 177.62 65.61 169.57 C 68.37 171.69 68.33 174.74 69.49 177.85 C 71.01 182.82 73.17 186.51 77.95 188.88 C 76.86 185.21 75.09 181.98 73.17 178.70 C 71.44 173.19 70.40 167.45 69.41 161.77 C 69.17 159.81 69.01 157.83 68.95 155.85 C 69.35 154.80 69.74 153.76 70.14 152.72 C 70.38 154.83 70.73 156.93 71.04 159.02 C 71.95 165.87 72.14 172.16 76.48 177.90 C 76.71 176.78 76.94 175.67 77.16 174.56 L 78.14 175.19 C 80.71 178.08 82.55 181.39 84.40 184.75 C 87.29 189.99 93.36 192.33 98.81 193.87 C 99.29 194.12 99.77 194.38 100.24 194.65 C 103.35 196.65 106.49 198.46 109.82 200.05 C 110.90 200.71 111.95 201.42 112.99 202.13 C 112.02 202.10 111.04 202.07 110.07 202.02 C 107.62 201.00 105.10 200.35 102.52 199.78 C 101.76 198.79 100.99 197.81 100.21 196.84 C 100.53 199.18 100.94 201.51 101.34 203.85 C 98.84 202.84 96.35 201.84 93.80 200.97 C 97.45 205.78 102.31 207.73 108.00 209.13 C 109.34 209.84 110.68 210.55 112.06 211.20 C 113.49 211.82 114.95 212.34 116.42 212.85 C 119.60 214.62 122.71 216.50 125.94 218.18 C 127.24 219.03 128.52 219.91 129.79 220.81 C 126.10 223.72 122.35 222.81 117.99 223.02 C 124.77 229.29 134.63 227.14 142.99 227.82 C 144.54 228.28 146.03 228.84 147.58 229.26 C 151.91 230.38 156.03 230.31 159.27 226.85 C 159.89 226.03 160.48 225.19 161.08 224.36 C 159.22 222.62 157.44 220.72 155.39 219.19 C 153.33 217.61 150.96 217.47 148.49 216.98 C 148.04 216.69 147.58 216.39 147.13 216.10 C 147.56 215.09 148.00 214.09 148.44 213.08 C 146.02 211.65 143.66 210.14 141.44 208.42 C 140.16 208.72 138.88 209.03 137.60 209.33 C 138.54 208.13 139.48 206.94 140.43 205.76 C 143.69 206.28 146.90 206.52 150.17 205.97 C 154.44 205.22 159.23 206.56 163.47 207.33 C 165.80 207.96 168.13 208.61 170.45 209.26 C 172.05 210.09 173.63 210.93 175.26 211.70 C 174.58 212.40 173.89 213.10 173.21 213.80 C 179.02 212.97 184.52 212.01 189.39 208.50 C 193.36 206.08 196.64 203.63 198.10 198.99 L 198.45 198.29 C 202.90 197.10 205.86 194.48 209.15 191.45 L 210.65 191.36 C 207.23 195.40 203.96 199.53 201.09 203.98 C 201.70 204.41 202.32 204.85 202.93 205.28 C 209.19 199.73 214.91 193.91 218.65 186.31 C 223.49 178.68 225.80 169.25 226.92 160.37 C 228.52 149.93 227.35 139.27 223.58 129.41 C 220.89 122.84 217.22 116.78 212.85 111.19 C 210.31 107.26 206.89 104.31 203.05 101.71 C 199.11 98.70 195.15 96.29 190.63 94.23 C 189.65 93.75 188.66 93.28 187.66 92.83 L 188.83 91.76 Z" fill="#20223f" />
<path d="M 144.51 92.90 C 145.03 94.04 145.55 95.19 146.04 96.35 L 146.63 97.70 C 148.13 98.29 149.69 98.81 151.23 99.33 C 150.57 100.00 149.91 100.68 149.26 101.36 C 146.62 103.58 143.81 105.60 141.24 107.89 C 139.59 109.86 138.11 112.05 136.65 114.17 C 136.50 111.38 136.40 108.57 136.50 105.78 L 136.78 105.24 C 137.94 105.20 139.24 105.37 140.34 104.99 C 141.39 103.91 142.23 102.59 143.09 101.37 C 141.98 100.78 140.86 100.22 139.73 99.66 L 139.62 98.11 C 140.82 95.66 142.02 94.09 144.51 92.90 Z" fill="#a76992" />
<path d="M 179.76 94.42 C 183.43 94.73 187.48 96.95 190.63 94.23 C 195.15 96.29 199.11 98.70 203.05 101.71 C 202.16 101.75 201.27 101.81 200.39 101.89 C 203.39 108.37 209.94 110.72 213.36 116.73 C 215.01 119.42 216.28 122.18 218.27 124.66 C 220.01 126.85 221.86 128.54 222.64 131.34 C 224.35 137.51 226.03 143.62 225.95 149.97 C 225.94 153.50 226.30 156.90 226.92 160.37 C 225.80 169.25 223.49 178.68 218.65 186.31 C 219.10 182.78 220.00 179.47 221.17 176.11 C 217.08 179.36 212.21 182.94 209.52 187.48 C 208.75 188.71 209.11 190.07 209.15 191.45 C 205.86 194.48 202.90 197.10 198.45 198.29 C 196.13 196.86 193.87 195.45 191.36 194.36 C 187.93 197.10 185.24 200.29 181.01 201.79 C 177.69 202.97 174.25 203.80 170.86 204.74 C 166.44 204.24 162.33 202.78 158.14 201.36 C 152.43 199.11 147.04 196.99 143.23 191.92 C 141.78 190.14 140.27 188.42 138.59 186.85 C 136.67 185.02 134.89 183.05 133.00 181.19 C 134.65 181.83 136.31 182.43 137.96 183.09 C 139.45 179.15 137.72 176.35 136.70 172.58 C 141.05 179.76 147.79 184.86 155.85 187.19 C 160.87 188.74 166.75 186.80 171.78 185.79 C 177.35 184.74 181.69 182.01 186.83 179.75 C 190.78 177.97 194.28 175.54 196.60 171.81 C 197.77 169.91 199.00 168.05 200.17 166.16 C 202.07 163.24 201.50 159.60 202.15 156.32 C 204.05 153.33 206.36 150.96 207.19 147.36 C 206.18 147.28 205.18 147.21 204.17 147.13 C 201.74 149.98 199.39 152.90 196.76 155.58 C 195.67 154.48 193.88 153.32 193.45 151.78 C 193.30 147.83 194.16 144.29 196.35 140.97 C 199.02 136.60 203.40 132.55 204.71 127.63 C 204.73 124.43 202.01 123.09 199.15 123.15 C 194.96 126.56 191.22 130.61 187.33 134.31 C 184.89 136.77 181.21 136.59 178.01 136.59 C 176.58 136.29 175.18 135.85 173.75 135.51 C 172.43 138.31 171.32 141.21 170.10 144.06 C 168.84 143.84 167.59 143.62 166.34 143.38 C 168.16 139.42 170.42 135.94 173.59 132.92 C 175.82 131.00 178.40 130.55 181.12 129.82 C 183.32 129.16 184.35 127.25 186.26 126.18 C 189.04 125.15 193.66 125.92 195.75 123.59 C 197.76 120.90 198.66 117.27 199.98 114.19 C 197.80 112.82 195.16 111.61 193.41 109.70 C 191.90 107.06 191.51 103.72 189.83 101.20 C 186.79 98.58 182.97 96.88 179.76 94.42 Z" fill="#eeeddb" />
<path d="M 47.73 94.55 C 51.23 95.60 54.82 95.85 58.45 96.01 C 58.20 97.57 57.96 99.14 57.74 100.70 C 52.57 102.50 47.99 102.64 42.59 102.13 C 44.60 99.77 46.52 97.45 47.73 94.55 Z" fill="#edd099" />
<path d="M 77.73 97.42 C 78.87 98.18 79.95 99.02 81.03 99.86 C 78.36 101.35 75.75 102.81 72.95 104.06 C 72.11 104.38 71.26 104.68 70.40 104.96 C 70.04 103.17 69.73 101.39 69.45 99.59 C 70.60 99.46 71.76 99.34 72.91 99.23 C 73.78 100.19 74.64 101.15 75.50 102.12 C 76.24 100.55 76.96 98.98 77.73 97.42 Z" fill="#939293" />
<path d="M 114.19 100.14 C 110.18 103.11 105.06 104.12 101.62 107.59 C 98.82 110.32 95.88 113.39 92.63 115.60 C 89.85 117.36 86.73 118.62 83.77 120.06 C 81.83 119.54 79.88 119.02 77.95 118.47 C 86.83 115.44 95.43 110.71 102.39 104.38 C 105.76 102.09 110.29 101.26 114.19 100.14 Z" fill="#894373" />
<path d="M 69.45 99.59 C 69.73 101.39 70.04 103.17 70.40 104.96 C 68.68 105.23 66.41 105.92 64.74 105.32 C 63.38 104.46 63.99 101.82 63.87 100.44 C 65.71 100.02 67.57 99.77 69.45 99.59 Z" fill="#4f4e5c" />
<path d="M 81.03 99.86 C 82.46 100.99 83.84 102.17 85.30 103.27 C 89.27 103.90 93.32 103.72 97.29 104.33 C 92.87 106.31 88.24 106.82 83.49 107.35 C 82.40 106.45 81.31 105.56 80.22 104.67 C 79.15 105.22 78.08 105.77 77.01 106.32 C 75.66 105.57 74.31 104.82 72.95 104.06 C 75.75 102.81 78.36 101.35 81.03 99.86 Z" fill="#413f4e" />
<path d="M 139.73 99.66 C 140.86 100.22 141.98 100.78 143.09 101.37 C 142.23 102.59 141.39 103.91 140.34 104.99 C 139.24 105.37 137.94 105.20 136.78 105.24 C 137.76 103.38 138.72 101.51 139.73 99.66 Z" fill="#d7b9cc" />
<path d="M 57.74 100.70 C 57.52 102.32 57.29 103.95 57.04 105.57 C 52.30 107.26 48.48 104.54 44.61 107.70 C 42.93 105.90 41.45 103.96 39.89 102.07 C 40.79 102.08 41.69 102.10 42.59 102.13 C 47.99 102.64 52.57 102.50 57.74 100.70 Z" fill="#cda7b0" />
<path d="M 200.39 101.89 C 201.27 101.81 202.16 101.75 203.05 101.71 C 206.89 104.31 210.31 107.26 212.85 111.19 C 217.22 116.78 220.89 122.84 223.58 129.41 C 227.35 139.27 228.52 149.93 226.92 160.37 C 226.30 156.90 225.94 153.50 225.95 149.97 C 226.03 143.62 224.35 137.51 222.64 131.34 C 221.86 128.54 220.01 126.85 218.27 124.66 C 216.28 122.18 215.01 119.42 213.36 116.73 C 209.94 110.72 203.39 108.37 200.39 101.89 Z" fill="#f8f8f8" />
<path d="M 136.50 105.78 C 136.40 108.57 136.50 111.38 136.65 114.17 C 136.25 114.77 135.83 115.36 135.40 115.95 C 134.53 116.00 133.66 116.05 132.78 116.11 C 131.89 114.19 131.01 112.27 130.14 110.34 C 132.23 108.77 134.37 107.29 136.50 105.78 Z" fill="#ddc4d2" />
<path d="M 184.16 108.84 C 182.91 110.26 181.67 111.93 180.09 113.00 C 178.54 113.72 176.81 114.09 175.16 114.55 C 177.32 112.88 179.45 111.20 181.37 109.27 C 177.49 110.07 172.92 111.25 169.83 113.84 C 166.80 116.65 166.56 121.06 166.97 124.91 C 167.63 128.68 170.75 130.79 173.59 132.92 C 170.42 135.94 168.16 139.42 166.34 143.38 C 166.21 139.31 167.38 135.69 168.36 131.81 C 167.73 128.77 165.68 126.09 165.07 122.97 C 164.43 119.23 164.04 115.00 167.91 112.89 C 172.85 110.22 178.38 106.72 184.16 108.84 Z" fill="#a1a0a1" />
<path d="M 83.93 109.72 C 80.37 114.04 75.03 115.24 71.26 119.25 C 68.91 121.13 66.16 122.86 64.20 125.14 C 62.63 126.96 62.25 129.58 61.70 131.85 C 60.75 130.79 59.79 129.73 58.77 128.73 C 59.37 133.32 62.69 136.50 66.55 138.64 C 67.86 139.29 69.68 138.94 71.10 138.86 C 71.53 139.28 71.95 139.70 72.36 140.13 C 70.66 140.13 68.96 140.10 67.26 140.06 C 68.83 141.17 70.41 142.26 71.97 143.36 C 71.89 144.45 71.80 145.54 71.71 146.63 C 71.45 148.14 71.13 149.63 70.68 151.09 C 69.15 151.02 67.62 150.95 66.10 150.87 C 64.55 148.36 63.30 145.91 60.96 144.02 C 56.54 140.55 51.87 137.58 46.42 136.01 C 46.31 134.15 46.13 132.29 45.97 130.43 C 47.28 128.44 48.62 126.00 50.62 124.64 C 53.40 122.87 56.69 122.28 59.54 120.51 C 62.50 118.69 65.44 116.85 68.57 115.32 C 71.98 115.18 73.99 113.70 76.61 111.72 C 78.80 109.94 81.25 109.86 83.93 109.72 Z" fill="#eae8d1" />
<path d="M 66.32 110.62 C 68.74 110.44 71.03 110.84 73.40 111.25 C 71.73 112.54 70.17 113.95 68.57 115.32 C 65.44 116.85 62.50 118.69 59.54 120.51 C 56.69 122.28 53.40 122.87 50.62 124.64 C 48.62 126.00 47.28 128.44 45.97 130.43 C 45.66 124.95 47.14 116.39 53.16 114.35 C 57.42 112.76 61.93 111.78 66.32 110.62 Z" fill="#404155" />
<path d="M 99.74 111.96 C 100.36 114.44 100.67 117.01 101.39 119.46 L 99.35 119.89 C 97.73 119.92 96.12 119.76 94.51 119.62 C 95.78 116.65 97.14 113.98 99.74 111.96 Z" fill="#ac8bba" />
<path d="M 135.40 115.95 C 133.90 117.95 132.15 119.71 130.32 121.41 C 131.11 119.63 131.95 117.87 132.78 116.11 C 133.66 116.05 134.53 116.00 135.40 115.95 Z" fill="#a7a5a3" />
<path d="M 94.51 119.62 C 96.12 119.76 97.73 119.92 99.35 119.89 C 98.04 121.59 97.19 123.47 96.55 125.50 C 98.21 125.60 99.87 125.68 101.54 125.75 C 100.46 128.34 99.04 130.39 99.63 133.31 C 100.30 141.65 104.28 148.02 107.62 155.42 C 108.87 157.40 110.47 159.17 111.91 161.01 C 112.83 160.73 113.75 160.46 114.67 160.18 C 114.87 162.38 114.97 164.61 114.92 166.83 C 114.87 167.93 114.84 169.03 114.81 170.14 C 112.95 167.04 110.58 163.96 108.07 161.35 C 103.79 159.42 101.35 156.34 98.64 152.64 C 99.13 150.56 99.55 148.47 100.02 146.38 C 101.44 149.76 102.65 153.05 105.23 155.77 C 104.70 152.04 103.06 148.92 101.13 145.77 C 99.27 142.80 98.67 139.40 96.95 136.39 C 95.46 135.62 93.75 135.26 92.20 134.61 C 91.84 129.46 92.35 124.36 94.51 119.62 Z" fill="#d4ccd8" />
<path d="M 71.26 119.25 C 74.79 119.59 78.54 119.69 81.95 120.73 C 82.53 122.18 82.82 123.80 83.07 125.34 L 82.86 126.66 C 81.54 129.46 80.53 132.14 78.44 134.47 C 75.96 137.26 73.49 139.88 71.97 143.36 C 70.41 142.26 68.83 141.17 67.26 140.06 C 68.96 140.10 70.66 140.13 72.36 140.13 C 71.95 139.70 71.53 139.28 71.10 138.86 C 67.93 136.38 64.29 135.13 61.70 131.85 C 62.25 129.58 62.63 126.96 64.20 125.14 C 66.16 122.86 68.91 121.13 71.26 119.25 Z" fill="#f3f1ef" />
<path d="M 99.35 119.89 L 101.39 119.46 C 102.16 121.41 103.49 123.40 103.15 125.56 C 102.76 129.41 102.44 133.22 102.79 137.10 C 102.51 133.28 102.42 129.50 101.54 125.75 C 99.87 125.68 98.21 125.60 96.55 125.50 C 97.19 123.47 98.04 121.59 99.35 119.89 Z" fill="#704686" />
<path d="M 87.23 122.45 C 86.05 124.40 84.79 126.29 83.57 128.22 L 82.86 126.66 L 83.07 125.34 C 83.57 124.51 84.09 123.67 84.61 122.85 C 85.49 122.71 86.36 122.58 87.23 122.45 Z" fill="#5f5f69" />
<path d="M 128.21 122.80 C 125.07 126.69 120.97 129.08 116.77 131.63 L 115.36 131.64 L 114.98 130.42 C 119.56 128.16 123.69 125.15 128.21 122.80 Z" fill="#82817f" />
<path d="M 199.15 123.15 C 199.46 123.78 199.78 124.41 200.09 125.05 C 197.43 128.03 194.52 130.74 191.50 133.36 C 192.44 134.51 193.37 135.66 194.30 136.82 C 197.03 133.46 199.17 128.93 203.71 127.84 L 204.71 127.63 C 203.40 132.55 199.02 136.60 196.35 140.97 C 195.42 140.00 194.51 139.05 193.49 138.17 C 192.42 137.47 191.21 136.22 189.88 136.17 C 185.75 136.17 182.20 137.52 178.01 136.59 C 181.21 136.59 184.89 136.77 187.33 134.31 C 191.22 130.61 194.96 126.56 199.15 123.15 Z" fill="#7f7d89" />
<path d="M 199.15 123.15 C 202.01 123.09 204.73 124.43 204.71 127.63 L 203.71 127.84 C 202.46 126.97 201.27 126.02 200.09 125.05 C 199.78 124.41 199.46 123.78 199.15 123.15 Z" fill="#2a2831" />
<path d="M 200.09 125.05 C 201.27 126.02 202.46 126.97 203.71 127.84 C 199.17 128.93 197.03 133.46 194.30 136.82 C 193.37 135.66 192.44 134.51 191.50 133.36 C 194.52 130.74 197.43 128.03 200.09 125.05 Z" fill="#f1f3e7" />
<path d="M 37.86 125.66 C 37.90 128.43 38.64 130.59 36.42 132.72 C 36.46 130.13 36.91 128.05 37.86 125.66 Z" fill="#66687a" />
<path d="M 89.21 126.25 C 90.99 125.00 92.12 127.79 90.05 128.25 C 88.92 127.95 88.64 127.28 89.21 126.25 Z" fill="#b4aab2" />
<path d="M 101.54 125.75 C 102.42 129.50 102.51 133.28 102.79 137.10 L 102.89 138.01 C 102.94 139.46 103.64 140.33 104.98 140.63 C 106.02 139.62 106.95 138.55 107.91 137.46 C 107.80 138.22 107.70 138.98 107.59 139.74 C 106.41 141.13 105.08 142.58 104.22 144.19 C 104.27 146.68 106.26 148.81 107.75 150.63 C 109.50 151.68 111.40 152.36 113.33 152.99 C 114.28 155.11 115.29 157.15 116.43 159.17 C 115.84 159.51 115.26 159.84 114.67 160.18 C 113.75 160.46 112.83 160.73 111.91 161.01 C 110.47 159.17 108.87 157.40 107.62 155.42 C 104.28 148.02 100.30 141.65 99.63 133.31 C 99.04 130.39 100.46 128.34 101.54 125.75 Z" fill="#1b1932" />
<path d="M 82.86 126.66 L 83.57 128.22 C 82.94 130.20 82.40 132.19 81.91 134.21 C 83.60 133.61 85.26 132.96 86.92 132.29 C 85.94 134.86 84.50 136.11 82.30 137.65 C 81.45 136.83 80.59 136.00 79.73 135.18 C 78.52 138.48 77.23 141.74 75.68 144.91 C 76.69 144.75 77.69 144.60 78.70 144.46 C 79.33 147.83 79.90 151.26 80.76 154.57 C 79.62 153.11 78.49 151.64 77.50 150.07 C 76.66 148.65 75.88 147.19 75.09 145.73 C 74.45 146.61 73.80 147.49 73.15 148.37 C 72.68 147.79 72.20 147.20 71.71 146.63 C 71.80 145.54 71.89 144.45 71.97 143.36 C 73.49 139.88 75.96 137.26 78.44 134.47 C 80.53 132.14 81.54 129.46 82.86 126.66 Z" fill="#764f88" />
<path d="M 225.17 127.61 C 226.67 127.31 227.54 131.29 226.80 132.28 C 225.39 132.47 224.41 128.57 225.17 127.61 Z" fill="#787990" />
<path d="M 58.77 128.73 C 59.79 129.73 60.75 130.79 61.70 131.85 C 64.29 135.13 67.93 136.38 71.10 138.86 C 69.68 138.94 67.86 139.29 66.55 138.64 C 62.69 136.50 59.37 133.32 58.77 128.73 Z" fill="#454348" />
<path d="M 87.47 132.07 L 87.62 132.14 C 88.55 132.62 89.46 133.14 90.38 133.65 C 87.27 138.02 84.14 142.25 84.71 147.96 C 85.59 151.51 88.19 154.75 90.11 157.83 C 87.72 156.91 85.44 156.18 82.85 156.38 C 82.34 155.99 81.81 155.61 81.29 155.23 L 80.76 154.57 C 79.90 151.26 79.33 147.83 78.70 144.46 C 77.69 144.60 76.69 144.75 75.68 144.91 C 77.23 141.74 78.52 138.48 79.73 135.18 C 80.59 136.00 81.45 136.83 82.30 137.65 C 84.50 136.11 85.94 134.86 86.92 132.29 L 87.47 132.07 Z" fill="#483265" />
<path d="M 104.74 131.48 C 106.99 133.82 108.32 135.93 111.82 135.98 C 111.27 137.64 110.76 139.30 110.21 140.96 C 109.34 140.55 108.47 140.15 107.59 139.74 C 107.70 138.98 107.80 138.22 107.91 137.46 C 106.95 138.55 106.02 139.62 104.98 140.63 C 103.64 140.33 102.94 139.46 102.89 138.01 C 103.43 135.81 104.02 133.63 104.74 131.48 Z" fill="#c2c2bb" />
<path d="M 90.38 133.65 C 90.99 133.98 91.59 134.30 92.20 134.61 C 93.75 135.26 95.46 135.62 96.95 136.39 C 98.67 139.40 99.27 142.80 101.13 145.77 C 103.06 148.92 104.70 152.04 105.23 155.77 C 102.65 153.05 101.44 149.76 100.02 146.38 C 99.55 148.47 99.13 150.56 98.64 152.64 C 95.57 149.41 95.80 145.74 95.01 141.68 C 92.90 145.53 91.44 149.61 91.41 154.04 C 91.37 157.98 92.72 161.38 94.21 164.95 C 93.25 164.86 92.30 164.77 91.34 164.71 C 91.10 166.27 90.94 167.85 90.83 169.43 C 89.23 165.60 87.11 162.02 84.62 158.70 C 84.04 157.92 83.45 157.14 82.85 156.38 C 85.44 156.18 87.72 156.91 90.11 157.83 C 88.19 154.75 85.59 151.51 84.71 147.96 C 84.14 142.25 87.27 138.02 90.38 133.65 Z" fill="#222241" />
<path d="M 173.75 135.51 C 175.18 135.85 176.58 136.29 178.01 136.59 C 182.20 137.52 185.75 136.17 189.88 136.17 C 191.21 136.22 192.42 137.47 193.49 138.17 C 191.41 142.49 190.11 146.42 189.35 151.17 C 190.73 152.60 192.09 154.11 193.63 155.38 C 195.57 156.76 198.20 157.32 200.44 158.07 C 199.00 170.10 188.73 177.99 178.03 181.81 C 169.86 183.60 160.85 182.52 152.86 180.26 C 156.40 177.59 156.98 174.00 158.18 170.06 C 157.11 168.97 156.04 167.88 154.94 166.82 C 155.39 166.20 155.84 165.58 156.30 164.97 C 159.30 161.38 162.07 157.65 164.56 153.69 C 166.75 151.01 166.09 146.67 166.34 143.38 C 167.59 143.62 168.84 143.84 170.10 144.06 C 171.32 141.21 172.43 138.31 173.75 135.51 Z" fill="#f3f2f0" />
<path d="M 46.42 136.01 C 51.87 137.58 56.54 140.55 60.96 144.02 C 63.30 145.91 64.55 148.36 66.10 150.87 C 64.46 154.28 62.55 156.11 59.42 158.13 C 60.29 158.92 61.17 159.71 62.05 160.49 C 59.45 164.80 59.46 169.09 59.76 173.96 C 57.80 172.67 55.83 171.40 53.82 170.20 L 54.01 171.84 C 53.07 169.82 52.38 167.68 51.59 165.60 C 52.87 165.35 54.14 165.09 55.42 164.82 C 55.03 162.51 54.65 160.10 53.95 157.87 C 54.70 156.53 55.46 155.19 56.22 153.86 C 58.06 154.07 59.89 154.37 61.73 154.58 C 61.57 152.95 61.50 151.31 61.34 149.68 C 60.58 149.80 59.83 149.92 59.07 150.05 C 56.46 145.27 52.36 142.40 48.41 138.85 C 47.50 139.32 46.62 139.83 45.73 140.35 C 45.92 138.89 46.20 137.46 46.42 136.01 Z" fill="#b98cae" />
<path d="M 42.96 136.57 C 43.52 139.08 43.89 141.61 44.21 144.15 C 43.09 143.66 41.96 143.15 40.85 142.62 C 41.50 140.59 42.19 138.57 42.96 136.57 Z" fill="#74587f" />
<path d="M 48.41 138.85 C 52.36 142.40 56.46 145.27 59.07 150.05 C 59.83 149.92 60.58 149.80 61.34 149.68 C 61.50 151.31 61.57 152.95 61.73 154.58 C 59.89 154.37 58.06 154.07 56.22 153.86 C 55.46 155.19 54.70 156.53 53.95 157.87 C 50.37 151.90 45.90 147.85 45.73 140.35 C 46.62 139.83 47.50 139.32 48.41 138.85 Z" fill="#93468f" />
<path d="M 193.49 138.17 C 194.51 139.05 195.42 140.00 196.35 140.97 C 194.16 144.29 193.30 147.83 193.45 151.78 C 193.88 153.32 195.67 154.48 196.76 155.58 C 199.39 152.90 201.74 149.98 204.17 147.13 C 205.18 147.21 206.18 147.28 207.19 147.36 C 206.36 150.96 204.05 153.33 202.15 156.32 C 201.50 159.60 202.07 163.24 200.17 166.16 C 199.00 168.05 197.77 169.91 196.60 171.81 C 194.28 175.54 190.78 177.97 186.83 179.75 C 181.69 182.01 177.35 184.74 171.78 185.79 C 166.75 186.80 160.87 188.74 155.85 187.19 C 147.79 184.86 141.05 179.76 136.70 172.58 C 134.75 168.60 132.66 164.84 131.59 160.50 C 130.91 157.62 130.04 154.80 129.21 151.97 C 131.05 156.39 133.08 160.42 135.75 164.41 C 138.85 170.23 142.04 175.33 148.36 178.06 C 149.85 178.81 151.34 179.57 152.86 180.26 C 160.85 182.52 169.86 183.60 178.03 181.81 C 188.73 177.99 199.00 170.10 200.44 158.07 C 198.20 157.32 195.57 156.76 193.63 155.38 C 192.09 154.11 190.73 152.60 189.35 151.17 C 190.11 146.42 191.41 142.49 193.49 138.17 Z" fill="#22223f" />
<path d="M 95.01 141.68 C 95.80 145.74 95.57 149.41 98.64 152.64 C 101.35 156.34 103.79 159.42 108.07 161.35 C 106.52 167.59 105.13 173.85 104.20 180.20 C 101.71 176.95 99.20 173.73 96.56 170.60 C 95.80 168.70 95.01 166.82 94.21 164.95 C 92.72 161.38 91.37 157.98 91.41 154.04 C 91.44 149.61 92.90 145.53 95.01 141.68 Z" fill="#6a4383" />
<path d="M 110.62 141.54 C 111.29 145.51 111.40 149.33 113.33 152.99 C 111.40 152.36 109.50 151.68 107.75 150.63 C 108.43 147.44 108.88 144.38 110.62 141.54 Z" fill="#67676c" />
<path d="M 39.80 144.70 C 39.92 146.11 40.02 147.52 40.11 148.93 L 37.82 148.78 C 38.30 146.94 37.45 145.22 39.80 144.70 Z" fill="#6a6b83" />
<path d="M 75.09 145.73 C 75.88 147.19 76.66 148.65 77.50 150.07 C 77.02 150.84 76.55 151.60 76.07 152.37 C 75.11 151.03 74.16 149.68 73.15 148.37 C 73.80 147.49 74.45 146.61 75.09 145.73 Z" fill="#bf9bc9" />
<path d="M 71.71 146.63 C 72.20 147.20 72.68 147.79 73.15 148.37 C 74.16 149.68 75.11 151.03 76.07 152.37 C 76.55 151.60 77.02 150.84 77.50 150.07 C 78.49 151.64 79.62 153.11 80.76 154.57 L 81.29 155.23 C 77.95 156.74 74.60 158.11 71.04 159.02 C 70.73 156.93 70.38 154.83 70.14 152.72 C 70.32 152.18 70.50 151.64 70.68 151.09 C 71.13 149.63 71.45 148.14 71.71 146.63 Z" fill="#8b61a5" />
<path d="M 66.10 150.87 C 67.62 150.95 69.15 151.02 70.68 151.09 C 70.50 151.64 70.32 152.18 70.14 152.72 C 69.74 153.76 69.35 154.80 68.95 155.85 C 67.12 158.39 64.97 159.52 62.05 160.49 C 61.17 159.71 60.29 158.92 59.42 158.13 C 62.55 156.11 64.46 154.28 66.10 150.87 Z" fill="#caacbc" />
<path d="M 164.56 153.69 C 162.07 157.65 159.30 161.38 156.30 164.97 L 154.69 164.74 C 157.73 160.65 160.33 156.63 164.56 153.69 Z" fill="#878682" />
<path d="M 190.99 154.39 C 190.42 156.32 189.83 158.25 189.24 160.18 C 190.68 160.75 192.12 161.33 193.54 161.95 C 190.08 163.89 188.50 162.97 185.11 161.68 C 185.55 159.15 185.58 156.61 187.58 154.73 C 188.54 154.19 189.92 154.49 190.99 154.39 Z" fill="#12132a" />
<path d="M 42.40 155.57 C 43.69 154.80 45.54 157.31 44.60 158.40 C 43.28 159.22 41.54 156.67 42.40 155.57 Z" fill="#4e4d6b" />
<path d="M 81.29 155.23 C 81.81 155.61 82.34 155.99 82.85 156.38 C 83.45 157.14 84.04 157.92 84.62 158.70 C 84.40 164.61 87.47 170.74 90.01 175.94 C 91.13 175.72 92.24 175.46 93.33 175.18 C 93.72 175.78 94.11 176.37 94.51 176.95 C 93.47 177.46 92.43 177.97 91.40 178.48 C 94.36 181.01 97.46 183.27 100.87 185.15 C 101.14 183.65 101.39 182.13 101.66 180.63 C 102.81 182.15 103.98 183.62 105.26 185.03 C 105.05 186.64 104.85 188.25 104.63 189.85 C 104.41 191.43 104.18 193.01 103.95 194.58 C 102.60 193.84 101.24 193.10 99.89 192.35 C 100.01 193.12 100.13 193.88 100.24 194.65 C 99.77 194.38 99.29 194.12 98.81 193.87 C 99.13 192.65 99.44 191.42 99.74 190.19 C 97.18 188.22 96.08 186.45 94.89 183.48 C 93.80 184.47 92.71 185.46 91.61 186.44 C 90.77 185.92 89.92 185.40 89.08 184.88 C 90.05 184.62 91.03 184.35 92.00 184.08 C 91.75 183.53 91.50 182.98 91.24 182.44 C 90.45 182.15 89.68 181.84 88.91 181.49 C 88.49 180.59 88.09 179.68 87.71 178.76 C 88.66 178.95 89.61 179.14 90.56 179.34 C 88.16 175.53 85.50 172.01 82.06 169.06 C 81.77 171.34 81.59 173.61 81.39 175.90 C 80.30 175.67 79.22 175.45 78.14 175.19 L 77.16 174.56 C 76.94 175.67 76.71 176.78 76.48 177.90 C 72.14 172.16 71.95 165.87 71.04 159.02 C 74.60 158.11 77.95 156.74 81.29 155.23 Z" fill="#684382" />
<path d="M 68.95 155.85 C 69.01 157.83 69.17 159.81 69.41 161.77 C 68.56 163.22 67.67 164.65 66.82 166.10 C 66.28 164.36 65.62 162.66 65.06 160.93 C 64.82 162.58 64.62 164.23 64.52 165.89 C 64.28 168.36 64.15 170.96 63.53 173.36 C 63.16 175.07 61.29 176.21 60.08 177.34 C 57.95 175.83 55.39 174.10 54.01 171.84 L 53.82 170.20 C 55.83 171.40 57.80 172.67 59.76 173.96 C 59.46 169.09 59.45 164.80 62.05 160.49 C 64.97 159.52 67.12 158.39 68.95 155.85 Z" fill="#dacaca" />
<path d="M 84.62 158.70 C 87.11 162.02 89.23 165.60 90.83 169.43 C 91.55 171.40 92.32 173.34 93.33 175.18 C 92.24 175.46 91.13 175.72 90.01 175.94 C 87.47 170.74 84.40 164.61 84.62 158.70 Z" fill="#8f7f98" />
<path d="M 65.06 160.93 C 65.62 162.66 66.28 164.36 66.82 166.10 C 67.67 164.65 68.56 163.22 69.41 161.77 C 70.40 167.45 71.44 173.19 73.17 178.70 C 71.95 178.38 70.72 178.11 69.49 177.85 C 68.33 174.74 68.37 171.69 65.61 169.57 C 65.22 168.35 64.84 167.13 64.52 165.89 C 64.62 164.23 64.82 162.58 65.06 160.93 Z" fill="#a992a2" />
<path d="M 108.07 161.35 C 110.58 163.96 112.95 167.04 114.81 170.14 C 115.11 171.51 115.32 172.97 115.88 174.27 C 117.34 176.30 119.59 177.91 120.90 180.05 C 121.99 182.44 122.22 185.32 121.91 187.90 C 121.43 190.33 119.63 192.61 118.26 194.64 C 117.67 194.74 117.07 194.84 116.48 194.95 C 116.26 195.84 116.10 196.73 115.93 197.62 C 114.43 198.27 112.91 198.90 111.38 199.50 C 108.75 196.46 106.57 193.38 104.63 189.85 C 104.85 188.25 105.05 186.64 105.26 185.03 C 106.71 186.13 108.24 187.09 109.78 188.06 C 108.06 185.34 106.19 182.73 104.20 180.20 C 105.13 173.85 106.52 167.59 108.07 161.35 Z" fill="#593673" />
<path d="M 91.34 164.71 C 92.30 164.77 93.25 164.86 94.21 164.95 C 95.01 166.82 95.80 168.70 96.56 170.60 C 97.54 174.37 99.33 177.54 101.66 180.63 C 101.39 182.13 101.14 183.65 100.87 185.15 C 97.46 183.27 94.36 181.01 91.40 178.48 C 92.43 177.97 93.47 177.46 94.51 176.95 C 94.11 176.37 93.72 175.78 93.33 175.18 C 92.32 173.34 91.55 171.40 90.83 169.43 C 90.94 167.85 91.10 166.27 91.34 164.71 Z" fill="#523d6d" />
<path d="M 135.75 164.41 C 142.02 164.07 148.44 164.01 154.69 164.74 L 156.30 164.97 C 155.84 165.58 155.39 166.20 154.94 166.82 C 154.11 167.95 153.29 169.08 152.48 170.22 C 151.58 169.39 150.67 169.25 149.75 169.80 C 148.58 170.97 149.65 172.15 151.03 172.21 C 149.94 174.08 149.15 176.06 148.36 178.06 C 142.04 175.33 138.85 170.23 135.75 164.41 Z" fill="#aa74a0" />
<path d="M 150.43 165.65 C 148.47 167.04 146.28 169.07 143.88 169.58 C 142.84 168.93 141.91 168.01 141.04 167.15 C 144.14 163.64 146.40 164.66 150.43 165.65 Z" fill="#8b4587" />
<path d="M 114.92 166.83 C 115.38 167.45 115.84 168.08 116.29 168.72 C 116.74 172.70 117.43 174.45 121.29 176.01 C 121.39 176.36 121.49 176.71 121.58 177.07 C 125.55 178.01 129.27 179.56 133.00 181.19 C 134.89 183.05 136.67 185.02 138.59 186.85 C 138.37 187.66 138.16 188.46 137.96 189.27 C 136.28 189.10 134.60 188.88 132.92 188.72 C 135.25 190.50 137.60 192.24 139.90 194.05 L 138.00 194.20 C 136.30 193.79 134.59 193.40 132.88 193.06 C 135.14 197.43 137.60 201.74 140.43 205.76 C 139.48 206.94 138.54 208.13 137.60 209.33 C 138.88 209.03 140.16 208.72 141.44 208.42 C 143.66 210.14 146.02 211.65 148.44 213.08 C 148.00 214.09 147.56 215.09 147.13 216.10 C 147.58 216.39 148.04 216.69 148.49 216.98 C 148.39 217.82 148.29 218.66 148.19 219.49 C 149.81 219.51 151.42 219.48 153.04 219.44 C 152.00 219.69 150.97 219.94 149.94 220.20 C 150.43 221.53 150.21 224.25 151.79 224.77 C 154.11 225.85 156.80 226.23 159.27 226.85 C 156.03 230.31 151.91 230.38 147.58 229.26 C 149.15 228.68 150.68 228.02 152.21 227.35 C 149.17 226.47 146.11 225.79 143.00 225.22 C 144.21 223.28 145.37 221.36 146.05 219.16 C 145.63 215.45 142.67 214.49 139.56 213.45 C 136.55 212.56 133.44 212.69 130.40 212.13 C 128.54 210.96 127.05 209.17 125.15 208.02 C 123.49 207.11 121.39 206.79 119.57 206.28 C 117.41 202.45 118.21 198.81 118.26 194.64 C 119.63 192.61 121.43 190.33 121.91 187.90 C 122.22 185.32 121.99 182.44 120.90 180.05 C 119.59 177.91 117.34 176.30 115.88 174.27 C 115.32 172.97 115.11 171.51 114.81 170.14 C 114.84 169.03 114.87 167.93 114.92 166.83 Z" fill="#8b678f" />
<path d="M 154.94 166.82 C 156.04 167.88 157.11 168.97 158.18 170.06 C 156.98 174.00 156.40 177.59 152.86 180.26 C 151.34 179.57 149.85 178.81 148.36 178.06 C 149.15 176.06 149.94 174.08 151.03 172.21 C 151.53 171.56 152.01 170.89 152.48 170.22 C 153.29 169.08 154.11 167.95 154.94 166.82 Z" fill="#e3d4de" />
<path d="M 82.06 169.06 C 85.50 172.01 88.16 175.53 90.56 179.34 C 89.61 179.14 88.66 178.95 87.71 178.76 C 88.09 179.68 88.49 180.59 88.91 181.49 C 89.68 181.84 90.45 182.15 91.24 182.44 C 91.50 182.98 91.75 183.53 92.00 184.08 C 91.03 184.35 90.05 184.62 89.08 184.88 C 89.92 185.40 90.77 185.92 91.61 186.44 C 92.71 185.46 93.80 184.47 94.89 183.48 C 96.08 186.45 97.18 188.22 99.74 190.19 C 99.44 191.42 99.13 192.65 98.81 193.87 C 93.36 192.33 87.29 189.99 84.40 184.75 C 82.55 181.39 80.71 178.08 78.14 175.19 C 79.22 175.45 80.30 175.67 81.39 175.90 C 81.59 173.61 81.77 171.34 82.06 169.06 Z" fill="#553871" />
<path d="M 116.29 168.72 C 118.41 171.11 120.78 172.64 121.29 176.01 C 117.43 174.45 116.74 172.70 116.29 168.72 Z" fill="#2d2137" />
<path d="M 152.48 170.22 C 152.01 170.89 151.53 171.56 151.03 172.21 C 149.65 172.15 148.58 170.97 149.75 169.80 C 150.67 169.25 151.58 169.39 152.48 170.22 Z" fill="#614160" />
<path d="M 96.56 170.60 C 99.20 173.73 101.71 176.95 104.20 180.20 C 106.19 182.73 108.06 185.34 109.78 188.06 C 108.24 187.09 106.71 186.13 105.26 185.03 C 103.98 183.62 102.81 182.15 101.66 180.63 C 99.33 177.54 97.54 174.37 96.56 170.60 Z" fill="#342250" />
<path d="M 221.17 176.11 C 220.00 179.47 219.10 182.78 218.65 186.31 C 214.91 193.91 209.19 199.73 202.93 205.28 C 202.32 204.85 201.70 204.41 201.09 203.98 C 203.96 199.53 207.23 195.40 210.65 191.36 L 209.15 191.45 C 209.11 190.07 208.75 188.71 209.52 187.48 C 212.21 182.94 217.08 179.36 221.17 176.11 Z" fill="#d9d2cc" />
<path d="M 73.17 178.70 C 75.09 181.98 76.86 185.21 77.95 188.88 C 73.17 186.51 71.01 182.82 69.49 177.85 C 70.72 178.11 71.95 178.38 73.17 178.70 Z" fill="#f7f0f5" />
<path d="M 52.38 186.12 C 54.33 188.28 57.01 190.04 58.53 192.52 C 58.59 193.49 58.71 195.08 57.80 195.72 C 55.15 198.07 51.87 200.32 48.80 202.09 C 42.70 202.71 36.37 200.84 31.16 205.16 C 29.54 205.44 27.97 205.79 26.48 206.50 C 25.55 206.85 24.61 207.20 23.68 207.55 C 24.06 210.21 25.40 212.17 26.87 214.34 C 25.87 213.92 24.87 213.48 23.88 213.03 C 23.44 209.53 22.69 206.39 24.13 202.98 C 27.13 199.47 30.21 196.34 34.61 194.64 C 40.89 192.29 47.98 192.38 54.34 190.48 C 53.71 189.02 53.04 187.57 52.38 186.12 Z" fill="#222340" />
<path d="M 138.59 186.85 C 140.27 188.42 141.78 190.14 143.23 191.92 C 141.92 192.90 140.67 193.92 139.34 194.86 L 138.00 194.20 L 139.90 194.05 C 137.60 192.24 135.25 190.50 132.92 188.72 C 134.60 188.88 136.28 189.10 137.96 189.27 C 138.16 188.46 138.37 187.66 138.59 186.85 Z" fill="#ad93a6" />
<path d="M 67.43 188.89 C 68.51 192.19 70.07 195.26 71.34 198.47 C 71.83 201.63 72.08 204.84 72.41 208.02 C 68.93 208.85 65.03 209.27 61.77 210.77 C 58.68 212.35 55.97 215.09 53.51 217.51 C 51.89 219.21 50.28 220.58 49.81 223.01 C 49.28 224.77 50.16 226.82 50.47 228.59 L 50.05 227.99 C 49.15 226.43 48.39 224.82 47.66 223.18 C 45.58 223.65 43.51 224.12 41.44 224.58 C 40.75 228.56 41.57 230.38 43.45 233.75 C 42.31 232.27 40.33 230.94 40.63 228.87 C 40.60 224.30 43.35 219.62 46.22 216.21 C 48.47 213.53 49.73 210.44 52.30 208.29 C 56.19 204.77 61.69 203.30 65.68 200.59 C 68.78 196.87 67.42 193.28 67.43 188.89 Z" fill="#20213d" />
<path d="M 104.63 189.85 C 106.57 193.38 108.75 196.46 111.38 199.50 L 109.82 200.05 C 106.49 198.46 103.35 196.65 100.24 194.65 C 100.13 193.88 100.01 193.12 99.89 192.35 C 101.24 193.10 102.60 193.84 103.95 194.58 C 104.18 193.01 104.41 191.43 104.63 189.85 Z" fill="#947da3" />
<path d="M 143.23 191.92 C 147.04 196.99 152.43 199.11 158.14 201.36 C 157.40 202.15 156.66 202.93 155.91 203.72 C 150.14 201.39 144.70 198.00 139.34 194.86 C 140.67 193.92 141.92 192.90 143.23 191.92 Z" fill="#c3b8b4" />
<path d="M 132.88 193.06 C 134.59 193.40 136.30 193.79 138.00 194.20 L 139.34 194.86 C 144.70 198.00 150.14 201.39 155.91 203.72 C 158.28 204.80 162.06 205.00 163.47 207.33 C 159.23 206.56 154.44 205.22 150.17 205.97 C 146.90 206.52 143.69 206.28 140.43 205.76 C 137.60 201.74 135.14 197.43 132.88 193.06 Z" fill="#d8cfc9" />
<path d="M 116.48 194.95 C 117.07 194.84 117.67 194.74 118.26 194.64 C 118.21 198.81 117.41 202.45 119.57 206.28 L 118.89 206.09 C 118.24 205.75 117.58 205.43 116.91 205.11 C 114.64 204.05 112.36 203.01 110.07 202.02 C 111.04 202.07 112.02 202.10 112.99 202.13 C 111.95 201.42 110.90 200.71 109.82 200.05 L 111.38 199.50 C 112.91 198.90 114.43 198.27 115.93 197.62 C 116.10 196.73 116.26 195.84 116.48 194.95 Z" fill="#664d78" />
<path d="M 191.36 194.36 C 193.87 195.45 196.13 196.86 198.45 198.29 L 198.10 198.99 C 193.39 201.85 189.03 204.83 183.89 206.92 L 182.22 207.12 C 178.24 207.08 174.60 205.94 170.86 204.74 C 174.25 203.80 177.69 202.97 181.01 201.79 C 185.24 200.29 187.93 197.10 191.36 194.36 Z" fill="#cbbbc1" />
<path d="M 100.21 196.84 C 100.99 197.81 101.76 198.79 102.52 199.78 C 102.63 203.87 105.63 206.08 108.00 209.13 C 102.31 207.73 97.45 205.78 93.80 200.97 C 96.35 201.84 98.84 202.84 101.34 203.85 C 100.94 201.51 100.53 199.18 100.21 196.84 Z" fill="#7b748c" />
<path d="M 138.49 197.07 C 142.28 198.56 144.94 200.99 147.21 204.33 C 143.25 202.84 139.14 202.04 138.49 197.07 Z" fill="#836984" />
<path d="M 87.68 198.83 C 91.51 200.23 92.53 201.25 94.17 204.92 C 91.47 203.34 89.29 201.56 87.68 198.83 Z" fill="#696084" />
<path d="M 198.10 198.99 C 196.64 203.63 193.36 206.08 189.39 208.50 C 188.64 208.64 187.88 208.78 187.13 208.89 C 186.66 208.36 186.19 207.83 185.71 207.31 C 185.11 207.16 184.50 207.03 183.89 206.92 C 189.03 204.83 193.39 201.85 198.10 198.99 Z" fill="#575568" />
<path d="M 67.48 200.06 C 69.00 199.04 70.06 201.42 68.23 201.78 C 67.24 201.51 67.00 200.93 67.48 200.06 Z" fill="#6f6e8c" />
<path d="M 102.52 199.78 C 105.10 200.35 107.62 201.00 110.07 202.02 C 112.36 203.01 114.64 204.05 116.91 205.11 C 113.64 206.06 113.36 208.50 112.06 211.20 C 110.68 210.55 109.34 209.84 108.00 209.13 C 105.63 206.08 102.63 203.87 102.52 199.78 Z" fill="#e9eadc" />
<path d="M 170.86 204.74 C 174.60 205.94 178.24 207.08 182.22 207.12 C 178.24 207.57 174.34 208.32 170.45 209.26 C 168.13 208.61 165.80 207.96 163.47 207.33 C 162.06 205.00 158.28 204.80 155.91 203.72 C 156.66 202.93 157.40 202.15 158.14 201.36 C 162.33 202.78 166.44 204.24 170.86 204.74 Z" fill="#8a728e" />
<path d="M 31.16 205.16 C 30.08 206.25 28.79 207.91 27.15 208.00 L 26.48 206.50 C 27.97 205.79 29.54 205.44 31.16 205.16 Z" fill="#0f0f1e" />
<path d="M 116.91 205.11 C 117.58 205.43 118.24 205.75 118.89 206.09 C 121.25 208.61 123.78 210.52 125.23 213.65 C 122.29 213.51 119.35 213.19 116.42 212.85 C 114.95 212.34 113.49 211.82 112.06 211.20 C 113.36 208.50 113.64 206.06 116.91 205.11 Z" fill="#85688a" />
<path d="M 118.89 206.09 L 119.57 206.28 C 121.39 206.79 123.49 207.11 125.15 208.02 C 127.05 209.17 128.54 210.96 130.40 212.13 C 133.44 212.69 136.55 212.56 139.56 213.45 C 142.67 214.49 145.63 215.45 146.05 219.16 C 143.45 219.58 140.87 219.89 138.24 219.62 C 136.18 219.29 134.12 218.85 132.05 218.61 C 130.02 218.40 127.98 218.32 125.94 218.18 C 122.71 216.50 119.60 214.62 116.42 212.85 C 119.35 213.19 122.29 213.51 125.23 213.65 C 123.78 210.52 121.25 208.61 118.89 206.09 Z" fill="#e9e4d3" />
<path d="M 182.22 207.12 L 183.89 206.92 C 184.50 207.03 185.11 207.16 185.71 207.31 C 186.19 207.83 186.66 208.36 187.13 208.89 C 187.88 208.78 188.64 208.64 189.39 208.50 C 184.52 212.01 179.02 212.97 173.21 213.80 C 173.89 213.10 174.58 212.40 175.26 211.70 C 173.63 210.93 172.05 210.09 170.45 209.26 C 174.34 208.32 178.24 207.57 182.22 207.12 Z" fill="#3c3952" />
<path d="M 150.49 207.99 C 152.14 208.72 153.65 209.67 155.16 210.64 C 153.46 210.69 151.76 210.71 150.06 210.73 C 150.19 209.81 150.33 208.90 150.49 207.99 Z" fill="#737482" />
<path d="M 148.49 216.98 C 150.96 217.47 153.33 217.61 155.39 219.19 C 154.61 219.27 153.82 219.35 153.04 219.44 C 151.42 219.48 149.81 219.51 148.19 219.49 C 148.29 218.66 148.39 217.82 148.49 216.98 Z" fill="#d1cfd1" />
<path d="M 125.94 218.18 C 127.98 218.32 130.02 218.40 132.05 218.61 C 131.68 221.08 130.86 224.69 133.63 226.13 C 136.76 226.78 139.93 226.75 142.99 227.82 C 134.63 227.14 124.77 229.29 117.99 223.02 C 122.35 222.81 126.10 223.72 129.79 220.81 C 128.52 219.91 127.24 219.03 125.94 218.18 Z" fill="#5b4076" />
<path d="M 132.05 218.61 C 134.12 218.85 136.18 219.29 138.24 219.62 C 137.61 220.89 136.99 222.16 136.36 223.43 C 138.54 224.14 140.74 224.77 143.00 225.22 C 146.11 225.79 149.17 226.47 152.21 227.35 C 150.68 228.02 149.15 228.68 147.58 229.26 C 146.03 228.84 144.54 228.28 142.99 227.82 C 139.93 226.75 136.76 226.78 133.63 226.13 C 130.86 224.69 131.68 221.08 132.05 218.61 Z" fill="#7f6197" />
<path d="M 146.05 219.16 C 145.37 221.36 144.21 223.28 143.00 225.22 C 140.74 224.77 138.54 224.14 136.36 223.43 C 136.99 222.16 137.61 220.89 138.24 219.62 C 140.87 219.89 143.45 219.58 146.05 219.16 Z" fill="#19163a" />
<path d="M 155.39 219.19 C 157.44 220.72 159.22 222.62 161.08 224.36 C 160.48 225.19 159.89 226.03 159.27 226.85 C 156.80 226.23 154.11 225.85 151.79 224.77 C 150.21 224.25 150.43 221.53 149.94 220.20 C 150.97 219.94 152.00 219.69 153.04 219.44 C 153.82 219.35 154.61 219.27 155.39 219.19 Z" fill="#51446b" />
</svg>