<?xml version="1.0" encoding="UTF-8" standalone="no"?>
<!DOCTYPE svg PUBLIC "-//W3C//DTD SVG 1.1//EN" "http://www.w3.org/Graphics/SVG/1.1/DTD/svg11.dtd">
<svg xmlns="http://www.w3.org/2000/svg" version="1.1" viewBox="0 0 256 256" width="256.0pt" height="256.0pt">
<path d="M 0.00 0.00 L 256.00 0.00 L 256.00 256.00 L 0.00 256.00 L 0.00 0.00 Z" fill="#fffffe" />
<path d="M 175.60 12.53 C 183.01 12.29 190.01 13.54 197.29 14.71 C 203.36 15.77 210.17 17.81 213.81 23.17 C 217.45 28.69 218.65 37.01 214.67 42.67 C 210.33 49.55 204.25 54.03 198.62 59.64 C 194.17 64.29 191.06 71.41 194.41 77.56 C 198.26 84.79 206.76 87.58 213.40 91.57 C 222.97 96.66 228.91 107.35 233.17 116.92 C 236.74 126.68 239.79 137.73 238.42 148.19 C 237.66 161.24 232.31 172.84 226.39 184.29 C 224.12 188.79 221.17 192.16 217.20 195.22 C 211.57 199.57 206.96 204.92 201.60 209.55 C 193.77 216.48 185.40 222.70 177.36 229.36 C 172.97 232.69 168.17 234.16 163.13 236.14 C 153.01 240.23 141.98 243.56 131.03 244.10 C 120.68 244.87 110.80 245.68 100.39 244.59 C 93.14 243.69 85.96 241.14 79.00 238.95 C 70.24 236.20 63.14 231.40 55.51 226.45 C 48.44 221.75 43.14 215.71 37.76 209.24 C 33.59 204.11 29.65 198.86 27.47 192.53 C 23.18 179.35 23.25 165.16 26.98 151.86 C 29.69 144.27 36.34 137.56 41.81 131.81 C 44.02 129.30 46.01 126.86 45.60 123.28 C 44.61 114.83 38.28 107.66 35.78 99.33 C 32.16 87.34 28.33 75.68 28.97 62.99 C 29.24 56.26 32.08 50.17 35.65 44.58 C 37.73 41.36 41.34 37.99 45.30 37.55 C 48.04 37.60 50.91 38.87 53.50 39.73 C 47.88 42.32 43.29 45.48 41.22 51.60 C 36.88 59.07 38.45 69.04 39.94 77.16 C 42.74 86.58 44.51 95.53 48.72 104.34 C 51.15 110.57 55.11 115.63 59.25 120.80 C 61.77 123.72 65.64 126.42 69.68 125.28 C 75.35 124.10 78.65 120.34 82.25 116.16 C 84.73 112.96 87.96 110.47 91.20 107.92 C 94.06 107.93 96.90 110.16 99.04 111.89 C 103.38 116.11 108.18 119.38 113.18 122.84 C 116.70 125.30 120.66 126.66 124.99 126.59 C 131.18 126.73 136.42 124.37 141.76 121.53 C 145.67 126.03 151.69 129.82 153.26 135.60 C 154.77 140.08 156.14 144.60 157.46 149.13 C 153.89 150.92 151.52 154.18 147.94 155.86 C 145.10 157.22 142.94 159.17 140.03 160.11 C 136.03 161.71 131.18 161.54 126.95 161.34 C 122.10 161.08 118.85 157.51 114.68 155.46 C 111.13 153.72 107.66 151.88 104.42 149.59 C 98.03 145.23 91.82 139.10 84.60 136.29 C 79.04 134.60 72.51 133.04 66.76 134.39 C 59.31 135.96 52.41 136.84 45.73 140.76 C 41.73 143.59 37.87 147.55 36.11 152.19 C 34.90 159.31 32.89 166.54 34.24 173.70 C 35.23 178.72 35.99 183.71 36.61 188.77 C 36.56 190.84 38.52 191.57 39.83 192.83 C 39.52 193.54 39.21 194.25 38.89 194.96 C 43.12 201.61 47.70 207.16 53.61 212.39 C 58.62 217.62 63.85 221.75 70.44 224.86 C 71.50 223.30 72.52 221.71 73.52 220.11 C 72.85 222.02 72.20 223.94 71.61 225.88 C 78.89 228.47 86.12 231.39 93.53 233.59 C 110.16 237.05 128.04 235.62 144.41 231.45 C 155.82 229.20 166.89 224.66 176.94 218.86 C 177.94 218.21 178.92 217.51 179.85 216.77 C 181.21 215.01 182.20 213.24 184.14 212.05 C 188.00 209.68 190.62 205.97 194.52 203.62 C 196.61 202.36 198.13 201.05 199.34 198.91 C 201.74 198.14 203.70 196.69 205.57 195.05 C 207.74 194.65 211.34 195.17 212.47 192.81 C 213.54 191.40 212.05 189.17 211.70 187.72 C 212.81 184.75 214.26 181.92 215.45 178.98 C 216.57 178.21 217.68 177.44 218.76 176.61 C 221.65 173.87 223.51 170.43 224.76 166.68 C 227.84 157.69 230.06 147.49 228.96 137.98 C 228.42 133.60 225.75 130.76 223.43 127.23 C 223.63 120.86 221.52 115.06 218.76 109.42 C 214.99 103.98 209.57 99.29 203.40 96.83 C 197.96 95.70 192.33 95.06 188.32 90.71 C 185.72 87.79 182.37 84.99 180.64 81.45 C 178.70 75.42 179.04 68.63 181.97 62.97 C 184.21 58.76 187.30 54.98 190.94 51.90 C 197.72 45.96 203.81 39.66 211.47 34.83 C 211.08 33.60 210.68 32.37 210.28 31.14 C 209.71 29.51 209.04 27.48 207.71 26.32 C 204.32 24.89 200.10 25.14 196.47 24.73 C 191.21 24.20 186.04 24.05 180.80 24.93 C 179.63 23.68 178.47 22.42 177.32 21.15 C 176.56 23.73 175.59 26.00 174.09 28.24 C 173.55 26.62 173.02 25.00 172.49 23.37 C 170.57 22.70 168.65 21.99 166.70 21.41 C 166.01 22.28 165.33 23.15 164.66 24.04 C 161.35 23.73 157.85 23.18 154.54 23.52 C 152.37 23.62 151.33 25.33 149.75 26.61 C 146.51 28.11 143.21 29.04 139.83 30.18 C 143.36 32.51 146.72 34.77 150.85 35.92 C 153.68 36.74 156.93 37.14 159.51 38.58 C 162.53 40.76 163.42 44.71 162.28 48.17 C 160.39 55.23 153.76 60.68 149.30 66.30 C 144.66 72.11 139.66 78.73 137.62 85.97 C 135.02 96.81 135.06 110.31 142.20 119.54 C 140.13 120.52 138.10 121.63 136.05 122.64 C 133.69 119.92 131.82 117.08 130.88 113.57 C 129.42 107.54 126.98 101.43 126.64 95.35 C 126.36 90.88 126.73 86.35 126.78 81.87 C 125.89 83.27 125.01 84.67 124.15 86.09 C 123.72 86.78 123.27 87.47 122.83 88.15 C 118.18 88.32 113.64 89.28 109.03 89.62 C 105.95 89.90 103.70 88.38 101.32 86.69 C 98.26 84.42 95.28 82.00 92.48 79.41 C 92.06 78.27 91.72 77.09 91.46 75.89 C 91.48 74.14 91.49 72.38 91.48 70.63 C 89.56 72.82 87.95 75.16 86.72 77.81 C 82.14 80.41 78.26 83.97 73.79 86.70 C 69.50 89.17 65.09 87.81 60.57 86.93 C 55.54 80.57 50.09 75.29 47.33 67.40 L 47.08 66.78 C 47.49 66.04 47.88 65.30 48.26 64.56 C 48.34 63.26 48.34 61.96 48.35 60.66 C 48.45 57.17 48.42 53.92 49.57 50.56 C 50.84 46.91 53.35 43.89 55.80 40.96 C 55.30 40.65 54.80 40.33 54.29 40.02 C 53.45 38.94 52.62 37.86 51.80 36.76 C 53.75 36.84 55.49 36.55 57.17 37.78 C 63.86 42.33 67.03 49.94 71.83 56.05 C 74.31 59.28 77.65 60.57 81.22 62.25 C 81.03 55.88 81.30 49.46 82.20 43.15 C 82.78 38.43 86.03 34.51 89.37 31.35 C 92.59 28.33 96.83 27.18 101.16 27.18 C 108.83 27.27 116.62 32.70 124.96 32.02 C 128.75 31.60 132.35 28.55 135.25 26.26 C 140.88 21.65 145.75 17.11 152.82 14.76 C 160.46 12.01 167.67 12.77 175.60 12.53 Z" fill="#f5f4f2" />
<path d="M 166.70 21.41 C 168.65 21.99 170.57 22.70 172.49 23.37 C 173.02 25.00 173.55 26.62 174.09 28.24 C 175.59 26.00 176.56 23.73 177.32 21.15 C 178.47 22.42 179.63 23.68 180.80 24.93 C 181.49 25.68 182.18 26.42 182.86 27.16 C 182.69 28.73 182.51 30.30 182.34 31.88 C 184.70 31.75 187.05 31.61 189.41 31.48 C 188.43 33.37 187.39 35.23 186.35 37.10 C 186.44 38.22 186.53 39.34 186.61 40.46 C 184.30 41.21 182.06 41.90 180.09 43.38 C 179.02 44.46 178.06 45.67 177.11 46.86 C 171.35 54.91 164.85 61.42 161.70 70.76 C 158.38 80.24 158.93 90.14 162.38 99.49 C 165.19 109.81 172.86 118.27 182.10 123.37 C 186.17 125.55 189.60 128.08 192.55 131.66 C 183.39 129.85 175.57 124.44 169.70 117.30 C 165.13 111.72 162.10 105.10 159.65 98.36 C 156.07 88.18 155.56 76.79 159.62 66.67 C 162.29 59.23 166.84 53.56 171.05 47.01 C 168.91 45.71 166.79 45.07 165.49 42.77 C 163.59 39.55 161.82 36.55 158.88 34.13 C 160.17 32.90 161.52 31.75 162.93 30.65 C 164.28 30.99 165.61 31.37 166.96 31.74 C 167.04 30.47 167.11 29.20 167.19 27.93 C 161.39 27.19 155.59 26.79 149.75 26.61 C 151.33 25.33 152.37 23.62 154.54 23.52 C 157.85 23.18 161.35 23.73 164.66 24.04 C 165.33 23.15 166.01 22.28 166.70 21.41 Z" fill="#9f918e" />
<path d="M 196.47 24.73 C 200.10 25.14 204.32 24.89 207.71 26.32 C 209.04 27.48 209.71 29.51 210.28 31.14 C 205.32 32.61 201.67 35.86 197.23 38.25 L 195.60 38.77 C 196.09 36.85 196.61 34.94 197.15 33.03 C 193.90 29.66 190.92 24.02 185.48 24.78 C 185.07 26.09 184.68 27.40 184.30 28.71 C 183.82 28.20 183.34 27.68 182.86 27.16 C 182.18 26.42 181.49 25.68 180.80 24.93 C 186.04 24.05 191.21 24.20 196.47 24.73 Z" fill="#e5e1dc" />
<path d="M 185.48 24.78 C 190.92 24.02 193.90 29.66 197.15 33.03 C 196.61 34.94 196.09 36.85 195.60 38.77 L 197.23 38.25 C 193.10 40.25 189.60 42.98 186.31 46.13 C 184.25 45.19 182.20 44.22 180.09 43.38 C 182.06 41.90 184.30 41.21 186.61 40.46 C 186.53 39.34 186.44 38.22 186.35 37.10 C 187.39 35.23 188.43 33.37 189.41 31.48 C 187.05 31.61 184.70 31.75 182.34 31.88 C 182.51 30.30 182.69 28.73 182.86 27.16 C 183.34 27.68 183.82 28.20 184.30 28.71 C 184.68 27.40 185.07 26.09 185.48 24.78 Z" fill="#cac4be" />
<path d="M 149.75 26.61 C 155.59 26.79 161.39 27.19 167.19 27.93 C 167.11 29.20 167.04 30.47 166.96 31.74 C 165.61 31.37 164.28 30.99 162.93 30.65 C 157.81 29.25 154.04 31.06 149.83 33.75 C 150.17 34.47 150.51 35.20 150.85 35.92 C 146.72 34.77 143.36 32.51 139.83 30.18 C 143.21 29.04 146.51 28.11 149.75 26.61 Z" fill="#e4e1db" />
<path d="M 162.93 30.65 C 161.52 31.75 160.17 32.90 158.88 34.13 C 161.82 36.55 163.59 39.55 165.49 42.77 C 166.79 45.07 168.91 45.71 171.05 47.01 C 166.84 53.56 162.29 59.23 159.62 66.67 C 155.56 76.79 156.07 88.18 159.65 98.36 C 162.10 105.10 165.13 111.72 169.70 117.30 C 175.57 124.44 183.39 129.85 192.55 131.66 C 189.60 128.08 186.17 125.55 182.10 123.37 C 183.68 121.44 185.29 119.86 185.81 117.31 C 186.53 113.90 186.92 110.56 188.61 107.42 C 193.35 111.83 197.50 116.27 198.25 123.02 C 198.77 126.33 196.74 128.38 194.99 130.87 C 195.51 131.54 196.03 132.21 196.55 132.88 C 190.99 136.32 184.53 140.08 178.01 141.16 C 175.80 141.64 173.99 140.04 172.19 139.03 C 171.37 139.78 170.56 140.54 169.75 141.29 C 167.46 139.74 165.66 138.10 164.23 135.70 C 161.70 131.44 157.79 128.53 155.43 124.18 C 153.60 120.76 151.72 117.36 149.99 113.89 C 147.51 108.96 146.82 103.64 144.03 98.83 C 141.54 94.55 138.60 90.99 137.62 85.97 C 139.66 78.73 144.66 72.11 149.30 66.30 C 153.76 60.68 160.39 55.23 162.28 48.17 C 163.42 44.71 162.53 40.76 159.51 38.58 C 156.93 37.14 153.68 36.74 150.85 35.92 C 150.51 35.20 150.17 34.47 149.83 33.75 C 154.04 31.06 157.81 29.25 162.93 30.65 Z" fill="#d8beba" />
<path d="M 210.28 31.14 C 210.68 32.37 211.08 33.60 211.47 34.83 C 203.81 39.66 197.72 45.96 190.94 51.90 C 187.30 54.98 184.21 58.76 181.97 62.97 C 179.04 68.63 178.70 75.42 180.64 81.45 C 182.37 84.99 185.72 87.79 188.32 90.71 C 192.33 95.06 197.96 95.70 203.40 96.83 C 209.57 99.29 214.99 103.98 218.76 109.42 C 221.52 115.06 223.63 120.86 223.43 127.23 C 223.53 129.92 223.69 132.61 224.06 135.28 C 222.72 132.35 221.52 129.41 220.58 126.32 C 218.61 119.81 214.75 113.86 209.89 109.13 C 201.68 101.23 190.64 98.52 182.12 90.85 C 177.41 85.56 174.12 79.27 174.94 71.98 C 174.99 64.68 177.78 58.25 181.36 52.03 C 182.75 49.90 184.53 47.95 186.31 46.13 C 189.60 42.98 193.10 40.25 197.23 38.25 C 201.67 35.86 205.32 32.61 210.28 31.14 Z" fill="#23243d" />
<path d="M 105.90 32.58 C 104.62 35.82 103.34 39.04 102.39 42.40 C 100.66 41.29 99.04 40.05 97.35 38.87 C 98.25 37.42 99.14 35.60 100.54 34.56 C 102.16 33.61 104.12 33.16 105.90 32.58 Z" fill="#c07164" />
<path d="M 93.41 36.56 C 93.53 39.42 93.59 42.28 93.65 45.15 L 93.70 47.06 C 92.01 46.37 90.33 45.68 88.65 44.98 C 89.19 41.48 91.04 39.04 93.41 36.56 Z" fill="#be7468" />
<path d="M 97.35 38.87 C 99.04 40.05 100.66 41.29 102.39 42.40 C 105.94 43.17 109.40 42.84 112.98 42.79 C 116.15 42.68 119.46 44.06 121.25 46.74 C 122.11 48.41 121.36 50.82 120.39 52.30 C 117.79 56.11 112.93 58.47 110.50 62.35 C 110.61 67.02 116.12 71.06 120.63 69.59 C 124.95 68.45 129.05 66.30 132.90 64.07 C 132.85 66.43 132.80 68.79 132.75 71.15 C 128.09 73.05 123.16 74.45 118.20 75.34 C 115.27 75.79 111.96 76.21 109.20 74.87 C 106.48 73.54 103.92 71.10 102.46 68.46 C 100.98 65.67 101.14 61.90 103.97 60.01 C 107.04 57.70 109.42 56.02 110.51 52.11 C 105.50 52.15 100.33 53.27 95.35 52.70 C 91.19 51.99 90.02 48.44 88.65 44.98 C 90.33 45.68 92.01 46.37 93.70 47.06 L 93.65 45.15 C 95.20 46.22 96.76 47.29 98.30 48.37 C 97.47 45.26 95.78 42.02 97.35 38.87 Z" fill="#e3dfdb" />
<path d="M 53.50 39.73 L 54.29 40.02 C 54.80 40.33 55.30 40.65 55.80 40.96 C 53.35 43.89 50.84 46.91 49.57 50.56 C 48.42 53.92 48.45 57.17 48.35 60.66 C 47.65 61.90 46.91 63.12 46.17 64.33 C 46.47 65.15 46.78 65.96 47.08 66.78 L 47.33 67.40 C 46.57 67.43 45.82 67.45 45.07 67.48 C 44.73 64.87 44.36 62.26 44.09 59.63 C 44.21 57.76 44.51 55.69 44.13 53.83 C 43.28 52.98 42.21 52.27 41.22 51.60 C 43.29 45.48 47.88 42.32 53.50 39.73 Z" fill="#c47567" />
<path d="M 152.11 44.94 C 153.92 48.53 152.62 53.32 150.65 56.61 C 146.64 63.52 139.84 67.88 132.75 71.15 C 132.80 68.79 132.85 66.43 132.90 64.07 C 137.09 61.09 141.48 57.76 144.55 53.59 C 146.44 51.14 145.69 48.36 145.56 45.52 C 143.46 45.35 141.36 45.16 139.26 44.96 C 140.10 43.50 140.95 42.04 141.79 40.57 C 145.86 40.26 149.76 41.41 152.11 44.94 Z" fill="#d7c0bc" />
<path d="M 141.79 40.57 C 140.95 42.04 140.10 43.50 139.26 44.96 C 141.36 45.16 143.46 45.35 145.56 45.52 C 142.34 45.97 137.68 45.74 135.35 48.37 C 133.26 50.93 131.10 53.75 134.06 56.57 C 134.67 57.22 135.29 57.84 135.92 58.47 C 134.13 59.67 132.38 60.72 130.22 61.08 C 127.11 58.52 125.23 54.27 127.40 50.49 C 130.32 44.68 135.71 42.02 141.79 40.57 Z" fill="#e3dfdb" />
<path d="M 180.09 43.38 C 182.20 44.22 184.25 45.19 186.31 46.13 C 184.53 47.95 182.75 49.90 181.36 52.03 C 179.98 50.27 178.60 48.53 177.11 46.86 C 178.06 45.67 179.02 44.46 180.09 43.38 Z" fill="#ede7e1" />
<path d="M 177.11 46.86 C 178.60 48.53 179.98 50.27 181.36 52.03 C 177.78 58.25 174.99 64.68 174.94 71.98 C 174.12 79.27 177.41 85.56 182.12 90.85 L 181.27 90.66 C 178.77 90.16 176.19 89.60 173.63 89.51 C 172.11 90.38 170.62 91.51 168.95 92.09 C 166.85 92.40 164.58 91.98 162.48 91.72 C 162.91 94.37 163.05 96.86 162.38 99.49 C 158.93 90.14 158.38 80.24 161.70 70.76 C 164.85 61.42 171.35 54.91 177.11 46.86 Z" fill="#dac3bf" />
<path d="M 139.27 49.13 C 140.72 49.06 142.16 49.01 143.60 48.99 C 141.67 52.75 139.26 55.86 135.92 58.47 C 135.29 57.84 134.67 57.22 134.06 56.57 C 135.78 54.09 137.42 51.52 139.27 49.13 Z" fill="#d6bdbd" />
<path d="M 41.22 51.60 C 42.21 52.27 43.28 52.98 44.13 53.83 C 44.51 55.69 44.21 57.76 44.09 59.63 C 42.41 69.48 43.28 79.90 46.59 89.33 C 48.89 96.14 51.02 103.72 55.69 109.31 C 58.22 112.37 60.72 115.76 63.88 118.19 C 65.77 119.66 68.22 119.68 70.04 118.10 C 74.58 114.40 77.88 109.74 82.21 105.70 C 85.02 102.74 89.48 98.82 93.85 99.51 C 96.21 100.46 98.58 101.78 100.36 103.62 C 104.87 109.75 109.45 116.86 115.59 121.47 C 120.94 126.07 129.94 125.06 136.05 122.64 C 138.10 121.63 140.13 120.52 142.20 119.54 C 143.52 118.96 144.88 118.45 146.24 117.97 C 144.84 119.27 143.38 120.50 141.76 121.53 C 136.42 124.37 131.18 126.73 124.99 126.59 C 120.66 126.66 116.70 125.30 113.18 122.84 C 108.18 119.38 103.38 116.11 99.04 111.89 C 96.90 110.16 94.06 107.93 91.20 107.92 C 87.96 110.47 84.73 112.96 82.25 116.16 C 78.65 120.34 75.35 124.10 69.68 125.28 C 65.64 126.42 61.77 123.72 59.25 120.80 C 55.11 115.63 51.15 110.57 48.72 104.34 C 44.51 95.53 42.74 86.58 39.94 77.16 C 38.45 69.04 36.88 59.07 41.22 51.60 Z" fill="#21223c" />
<path d="M 67.97 57.88 C 65.36 61.57 61.91 65.38 60.92 69.86 C 59.92 74.17 60.66 79.18 60.80 83.59 C 57.95 81.09 54.97 78.72 53.92 74.89 C 52.56 70.23 54.67 65.27 57.92 61.91 C 60.28 59.31 64.70 58.74 67.97 57.88 Z" fill="#c67568" />
<path d="M 44.09 59.63 C 44.36 62.26 44.73 64.87 45.07 67.48 C 45.82 67.45 46.57 67.43 47.33 67.40 C 50.09 75.29 55.54 80.57 60.57 86.93 C 60.61 88.63 60.56 90.42 60.92 92.09 C 62.78 94.15 66.25 94.59 68.16 96.74 C 70.36 99.21 72.03 102.17 73.94 104.87 C 75.14 104.22 76.34 103.57 77.54 102.92 C 79.09 103.85 80.65 104.77 82.21 105.70 C 77.88 109.74 74.58 114.40 70.04 118.10 C 68.22 119.68 65.77 119.66 63.88 118.19 C 60.72 115.76 58.22 112.37 55.69 109.31 C 51.02 103.72 48.89 96.14 46.59 89.33 C 43.28 79.90 42.41 69.48 44.09 59.63 Z" fill="#e4e0db" />
<path d="M 48.35 60.66 C 48.34 61.96 48.34 63.26 48.26 64.56 C 47.88 65.30 47.49 66.04 47.08 66.78 C 46.78 65.96 46.47 65.15 46.17 64.33 C 46.91 63.12 47.65 61.90 48.35 60.66 Z" fill="#dec0b5" />
<path d="M 91.48 70.63 C 91.49 72.38 91.48 74.14 91.46 75.89 C 90.92 82.97 91.95 89.72 93.44 96.62 C 91.58 95.53 89.00 94.86 88.43 92.51 C 87.02 87.82 86.92 82.66 86.72 77.81 C 87.95 75.16 89.56 72.82 91.48 70.63 Z" fill="#a19390" />
<path d="M 91.46 75.89 C 91.72 77.09 92.06 78.27 92.48 79.41 C 94.53 84.82 98.31 88.70 102.59 92.42 C 106.54 95.78 110.31 99.29 114.03 102.90 C 109.34 102.32 104.88 101.91 100.36 103.62 C 98.58 101.78 96.21 100.46 93.85 99.51 C 89.48 98.82 85.02 102.74 82.21 105.70 C 80.65 104.77 79.09 103.85 77.54 102.92 C 76.34 103.57 75.14 104.22 73.94 104.87 C 72.03 102.17 70.36 99.21 68.16 96.74 C 66.25 94.59 62.78 94.15 60.92 92.09 C 60.56 90.42 60.61 88.63 60.57 86.93 C 65.09 87.81 69.50 89.17 73.79 86.70 C 78.26 83.97 82.14 80.41 86.72 77.81 C 86.92 82.66 87.02 87.82 88.43 92.51 C 89.00 94.86 91.58 95.53 93.44 96.62 C 91.95 89.72 90.92 82.97 91.46 75.89 Z" fill="#e0d6d1" />
<path d="M 92.48 79.41 C 95.28 82.00 98.26 84.42 101.32 86.69 C 103.70 88.38 105.95 89.90 109.03 89.62 C 113.64 89.28 118.18 88.32 122.83 88.15 C 123.27 87.47 123.72 86.78 124.15 86.09 C 123.30 94.33 123.66 102.37 127.04 110.08 C 127.78 111.81 129.40 112.57 130.88 113.57 C 131.82 117.08 133.69 119.92 136.05 122.64 C 129.94 125.06 120.94 126.07 115.59 121.47 C 109.45 116.86 104.87 109.75 100.36 103.62 C 104.88 101.91 109.34 102.32 114.03 102.90 C 110.31 99.29 106.54 95.78 102.59 92.42 C 98.31 88.70 94.53 84.82 92.48 79.41 Z" fill="#e4e0db" />
<path d="M 126.78 81.87 C 126.73 86.35 126.36 90.88 126.64 95.35 C 126.98 101.43 129.42 107.54 130.88 113.57 C 129.40 112.57 127.78 111.81 127.04 110.08 C 123.66 102.37 123.30 94.33 124.15 86.09 C 125.01 84.67 125.89 83.27 126.78 81.87 Z" fill="#a89e9b" />
<path d="M 137.62 85.97 C 138.60 90.99 141.54 94.55 144.03 98.83 C 146.82 103.64 147.51 108.96 149.99 113.89 C 151.72 117.36 153.60 120.76 155.43 124.18 C 157.79 128.53 161.70 131.44 164.23 135.70 C 165.66 138.10 167.46 139.74 169.75 141.29 C 170.56 140.54 171.37 139.78 172.19 139.03 C 173.99 140.04 175.80 141.64 178.01 141.16 C 184.53 140.08 190.99 136.32 196.55 132.88 C 196.03 132.21 195.51 131.54 194.99 130.87 C 196.74 128.38 198.77 126.33 198.25 123.02 C 197.50 116.27 193.35 111.83 188.61 107.42 L 189.95 107.00 C 193.22 106.85 195.58 107.68 197.89 110.12 C 201.88 114.43 205.56 119.51 208.50 124.60 C 210.82 128.60 211.68 132.94 212.36 137.45 C 210.91 137.50 209.46 137.54 208.01 137.59 C 207.09 140.90 206.55 144.20 206.74 147.66 C 206.09 147.73 205.44 147.80 204.80 147.88 C 205.21 150.09 205.94 152.05 207.01 154.03 C 207.11 155.33 207.25 156.63 207.38 157.92 C 208.60 156.03 209.81 154.12 211.01 152.21 C 211.47 155.95 211.94 159.69 212.35 163.44 C 213.64 163.82 214.92 164.21 216.20 164.59 C 215.88 166.46 215.54 168.31 215.01 170.14 C 213.34 171.71 211.95 173.50 210.55 175.30 C 206.47 177.53 203.08 180.51 199.48 183.39 C 197.46 185.10 193.49 185.57 192.78 188.28 C 192.44 189.15 192.14 190.04 191.83 190.92 C 189.75 191.79 187.74 192.50 186.07 194.09 C 184.53 195.28 183.26 197.06 181.24 197.29 C 177.97 197.78 174.66 197.94 171.39 198.41 C 171.21 197.50 171.04 196.58 170.87 195.67 C 176.83 192.96 181.72 188.78 186.12 184.00 C 178.39 188.08 172.85 193.75 164.24 196.25 C 149.73 200.62 133.44 202.16 118.62 198.44 C 110.09 196.35 103.58 191.50 96.73 186.27 C 91.89 182.47 87.77 177.92 82.91 174.14 C 85.15 178.14 87.73 182.01 90.23 185.87 C 90.20 189.05 90.57 193.18 89.01 196.03 C 86.36 199.50 81.08 198.27 78.20 200.32 C 76.82 201.98 76.22 204.41 75.50 206.42 L 74.80 207.27 C 74.20 206.22 73.61 205.17 73.01 204.12 C 70.61 199.28 69.10 194.14 66.94 189.21 C 64.72 189.95 62.52 190.76 60.27 191.38 C 56.92 192.73 54.45 188.40 50.72 188.62 C 48.74 188.43 46.75 188.37 44.76 188.23 C 42.73 186.98 40.61 185.78 39.07 183.90 C 36.58 180.90 35.65 177.29 34.24 173.70 C 32.89 166.54 34.90 159.31 36.11 152.19 C 37.24 151.42 38.36 150.63 39.47 149.84 C 38.58 152.57 37.62 155.06 37.91 158.00 C 38.11 160.35 39.83 162.59 41.07 164.55 C 40.45 165.03 39.83 165.50 39.21 165.98 C 43.77 168.49 48.81 172.05 54.04 172.72 C 62.61 172.85 69.77 167.17 76.21 162.20 C 80.12 159.02 84.23 155.59 83.88 150.03 C 83.77 146.53 83.19 141.12 80.21 138.83 C 76.78 137.34 72.70 137.12 69.02 136.60 C 68.68 137.00 68.34 137.40 68.02 137.81 C 66.37 137.61 64.75 137.41 63.10 137.28 C 58.53 136.99 54.86 138.77 51.40 141.59 C 50.55 142.18 49.70 142.78 48.85 143.39 C 47.79 142.54 46.76 141.65 45.73 140.76 C 52.41 136.84 59.31 135.96 66.76 134.39 C 72.51 133.04 79.04 134.60 84.60 136.29 L 84.74 136.38 C 91.14 140.80 97.27 145.73 102.69 151.33 C 107.81 156.79 113.53 162.20 120.03 165.98 C 127.84 170.51 137.16 171.04 145.79 168.89 C 150.43 167.70 153.67 164.82 157.27 161.88 C 156.45 161.17 155.63 160.47 154.80 159.78 C 156.08 159.72 157.40 159.71 158.67 159.49 C 162.54 154.18 164.11 145.44 159.89 139.90 C 159.53 142.62 159.36 145.35 159.27 148.10 C 158.66 148.44 158.06 148.78 157.46 149.13 C 156.14 144.60 154.77 140.08 153.26 135.60 C 151.69 129.82 145.67 126.03 141.76 121.53 C 143.38 120.50 144.84 119.27 146.24 117.97 C 144.88 118.45 143.52 118.96 142.20 119.54 C 135.06 110.31 135.02 96.81 137.62 85.97 Z" fill="#e1d9d4" />
<path d="M 173.63 89.51 C 176.19 89.60 178.77 90.16 181.27 90.66 C 182.38 97.24 185.38 102.26 189.95 107.00 L 188.61 107.42 C 186.92 110.56 186.53 113.90 185.81 117.31 C 185.29 119.86 183.68 121.44 182.10 123.37 C 172.86 118.27 165.19 109.81 162.38 99.49 C 163.05 96.86 162.91 94.37 162.48 91.72 C 164.58 91.98 166.85 92.40 168.95 92.09 C 170.62 91.51 172.11 90.38 173.63 89.51 Z" fill="#d5b8b4" />
<path d="M 181.27 90.66 L 182.12 90.85 C 190.64 98.52 201.68 101.23 209.89 109.13 C 214.75 113.86 218.61 119.81 220.58 126.32 C 221.52 129.41 222.72 132.35 224.06 135.28 C 223.69 132.61 223.53 129.92 223.43 127.23 C 225.75 130.76 228.42 133.60 228.96 137.98 C 230.06 147.49 227.84 157.69 224.76 166.68 C 223.51 170.43 221.65 173.87 218.76 176.61 C 217.62 176.25 216.46 175.90 215.31 175.56 C 211.42 179.81 207.19 183.65 202.78 187.35 C 201.48 188.39 200.13 189.35 198.73 190.26 C 204.64 183.05 212.41 179.57 215.01 170.14 C 215.54 168.31 215.88 166.46 216.20 164.59 C 214.92 164.21 213.64 163.82 212.35 163.44 C 211.94 159.69 211.47 155.95 211.01 152.21 C 209.81 154.12 208.60 156.03 207.38 157.92 C 207.25 156.63 207.11 155.33 207.01 154.03 C 206.89 151.91 206.82 149.78 206.74 147.66 C 206.55 144.20 207.09 140.90 208.01 137.59 C 209.46 137.54 210.91 137.50 212.36 137.45 C 211.68 132.94 210.82 128.60 208.50 124.60 C 205.56 119.51 201.88 114.43 197.89 110.12 C 195.58 107.68 193.22 106.85 189.95 107.00 C 185.38 102.26 182.38 97.24 181.27 90.66 Z" fill="#e4e0db" />
<path d="M 69.02 136.60 C 72.70 137.12 76.78 137.34 80.21 138.83 C 83.19 141.12 83.77 146.53 83.88 150.03 C 84.23 155.59 80.12 159.02 76.21 162.20 C 69.77 167.17 62.61 172.85 54.04 172.72 C 48.81 172.05 43.77 168.49 39.21 165.98 C 39.83 165.50 40.45 165.03 41.07 164.55 C 39.83 162.59 38.11 160.35 37.91 158.00 C 37.62 155.06 38.58 152.57 39.47 149.84 C 38.36 150.63 37.24 151.42 36.11 152.19 C 37.87 147.55 41.73 143.59 45.73 140.76 C 46.76 141.65 47.79 142.54 48.85 143.39 C 50.49 144.56 52.24 145.51 54.00 146.48 C 54.68 144.62 55.35 142.75 56.01 140.88 C 54.47 141.11 52.93 141.33 51.40 141.59 C 54.86 138.77 58.53 136.99 63.10 137.28 C 63.29 139.33 63.53 141.38 63.80 143.42 C 65.22 141.56 66.60 139.67 68.02 137.81 C 68.34 137.40 68.68 137.00 69.02 136.60 Z" fill="#c57669" />
<path d="M 84.74 136.38 L 84.60 136.29 C 91.82 139.10 98.03 145.23 104.42 149.59 C 107.66 151.88 111.13 153.72 114.68 155.46 C 118.85 157.51 122.10 161.08 126.95 161.34 C 131.18 161.54 136.03 161.71 140.03 160.11 C 142.94 159.17 145.10 157.22 147.94 155.86 C 151.52 154.18 153.89 150.92 157.46 149.13 C 158.06 148.78 158.66 148.44 159.27 148.10 C 159.36 145.35 159.53 142.62 159.89 139.90 C 164.11 145.44 162.54 154.18 158.67 159.49 C 157.40 159.71 156.08 159.72 154.80 159.78 C 155.63 160.47 156.45 161.17 157.27 161.88 C 153.67 164.82 150.43 167.70 145.79 168.89 C 137.16 171.04 127.84 170.51 120.03 165.98 C 113.53 162.20 107.81 156.79 102.69 151.33 C 97.27 145.73 91.14 140.80 84.74 136.38 Z" fill="#2a2b45" />
<path d="M 68.02 137.81 C 66.60 139.67 65.22 141.56 63.80 143.42 C 63.53 141.38 63.29 139.33 63.10 137.28 C 64.75 137.41 66.37 137.61 68.02 137.81 Z" fill="#feeae4" />
<path d="M 56.01 140.88 C 55.35 142.75 54.68 144.62 54.00 146.48 C 52.24 145.51 50.49 144.56 48.85 143.39 C 49.70 142.78 50.55 142.18 51.40 141.59 C 52.93 141.33 54.47 141.11 56.01 140.88 Z" fill="#fffbf8" />
<path d="M 73.37 143.50 C 78.59 144.40 80.13 148.03 82.11 152.37 C 79.97 151.31 77.89 150.14 75.81 148.96 C 75.55 150.33 75.29 151.70 75.02 153.07 C 74.10 149.94 73.42 146.78 73.37 143.50 Z" fill="#fefaf3" />
<path d="M 204.80 147.88 C 205.44 147.80 206.09 147.73 206.74 147.66 C 206.82 149.78 206.89 151.91 207.01 154.03 C 205.94 152.05 205.21 150.09 204.80 147.88 Z" fill="#c2bab5" />
<path d="M 46.19 151.80 C 44.54 154.14 42.85 156.45 41.18 158.79 C 40.19 158.18 39.19 157.57 38.19 156.96 C 39.18 155.37 39.91 152.84 41.48 151.78 C 43.03 151.61 44.63 151.75 46.19 151.80 Z" fill="#fefefc" />
<path d="M 63.91 151.91 C 66.79 154.60 69.29 157.75 71.84 160.75 C 70.62 161.78 69.42 162.82 68.22 163.86 C 66.93 162.18 65.66 160.50 64.40 158.80 C 64.19 160.07 63.98 161.33 63.75 162.60 C 63.24 159.01 63.23 155.48 63.91 151.91 Z" fill="#fffcfb" />
<path d="M 53.11 158.05 C 55.48 161.84 57.23 166.06 59.03 170.14 C 57.22 168.87 55.44 167.55 53.70 166.17 C 53.25 166.92 52.79 167.67 52.33 168.42 C 51.26 167.96 50.19 167.51 49.12 167.05 C 49.92 163.76 50.85 160.67 53.11 158.05 Z" fill="#fffdfa" />
<path d="M 203.07 163.63 C 201.79 166.56 200.73 167.85 198.04 169.57 C 199.37 166.84 200.58 165.38 203.07 163.63 Z" fill="#ada5a2" />
<path d="M 220.25 168.80 C 219.44 170.60 218.48 172.31 217.44 173.99 C 217.49 171.52 218.54 170.39 220.25 168.80 Z" fill="#aca9aa" />
<path d="M 215.01 170.14 C 212.41 179.57 204.64 183.05 198.73 190.26 C 200.13 189.35 201.48 188.39 202.78 187.35 C 203.88 188.41 204.98 189.48 206.08 190.55 C 203.18 192.59 200.79 194.38 199.74 197.93 C 197.24 198.76 194.56 199.55 192.57 201.36 C 190.13 203.62 188.56 206.74 185.74 208.60 C 183.87 209.84 181.88 210.90 179.94 212.02 C 179.42 212.32 178.89 212.62 178.37 212.92 C 177.50 212.88 176.63 212.83 175.76 212.81 C 175.34 214.08 174.98 215.37 174.63 216.66 C 175.40 217.39 176.17 218.13 176.94 218.86 C 166.89 224.66 155.82 229.20 144.41 231.45 C 128.04 235.62 110.16 237.05 93.53 233.59 C 86.12 231.39 78.89 228.47 71.61 225.88 C 72.20 223.94 72.85 222.02 73.52 220.11 C 72.52 221.71 71.50 223.30 70.44 224.86 C 63.85 221.75 58.62 217.62 53.61 212.39 C 47.70 207.16 43.12 201.61 38.89 194.96 C 39.21 194.25 39.52 193.54 39.83 192.83 C 38.52 191.57 36.56 190.84 36.61 188.77 C 35.99 183.71 35.23 178.72 34.24 173.70 C 35.65 177.29 36.58 180.90 39.07 183.90 C 40.61 185.78 42.73 186.98 44.76 188.23 C 49.29 191.26 53.03 194.40 54.95 199.72 C 59.65 200.51 64.09 199.54 68.55 198.10 L 69.05 199.46 C 68.29 200.58 67.44 201.68 66.82 202.88 C 67.68 204.39 68.94 205.73 70.16 206.97 L 70.88 207.21 C 73.29 207.91 75.75 208.46 78.20 208.99 C 76.54 209.28 74.88 209.57 73.23 209.89 C 76.49 212.83 79.27 214.31 83.46 215.53 C 83.58 213.92 83.69 212.31 83.79 210.70 C 85.81 212.16 87.88 213.43 90.31 214.11 C 91.30 214.41 92.29 214.71 93.28 214.99 C 93.48 213.61 93.65 212.22 93.82 210.83 C 94.61 212.91 95.24 215.02 96.14 217.05 C 96.71 215.73 97.27 214.41 97.84 213.09 C 102.96 213.74 107.73 215.73 112.86 216.39 C 119.20 217.31 125.64 218.22 132.01 217.77 C 138.82 217.27 145.44 216.82 152.07 215.06 C 160.79 213.05 168.26 209.18 176.24 205.23 C 179.60 203.63 181.75 200.87 184.81 198.85 C 188.25 196.37 192.21 194.15 195.16 191.13 C 200.32 185.67 206.43 181.77 210.55 175.30 C 211.95 173.50 213.34 171.71 215.01 170.14 Z" fill="#232541" />
<path d="M 82.91 174.14 C 87.77 177.92 91.89 182.47 96.73 186.27 C 103.58 191.50 110.09 196.35 118.62 198.44 C 133.44 202.16 149.73 200.62 164.24 196.25 C 172.85 193.75 178.39 188.08 186.12 184.00 C 181.72 188.78 176.83 192.96 170.87 195.67 C 153.93 202.22 135.58 204.48 117.77 200.28 C 107.24 198.39 97.87 193.29 90.23 185.87 C 87.73 182.01 85.15 178.14 82.91 174.14 Z" fill="#a49795" />
<path d="M 210.55 175.30 C 206.43 181.77 200.32 185.67 195.16 191.13 C 192.21 194.15 188.25 196.37 184.81 198.85 C 181.75 200.87 179.60 203.63 176.24 205.23 C 168.26 209.18 160.79 213.05 152.07 215.06 C 145.44 216.82 138.82 217.27 132.01 217.77 C 125.64 218.22 119.20 217.31 112.86 216.39 C 107.73 215.73 102.96 213.74 97.84 213.09 C 97.27 214.41 96.71 215.73 96.14 217.05 C 95.24 215.02 94.61 212.91 93.82 210.83 C 93.65 212.22 93.48 213.61 93.28 214.99 C 92.29 214.71 91.30 214.41 90.31 214.11 C 90.27 212.90 90.24 211.68 90.19 210.47 C 86.05 209.07 82.67 206.85 79.28 204.15 C 78.01 204.89 76.75 205.64 75.50 206.42 C 76.22 204.41 76.82 201.98 78.20 200.32 C 81.08 198.27 86.36 199.50 89.01 196.03 C 90.57 193.18 90.20 189.05 90.23 185.87 C 97.87 193.29 107.24 198.39 117.77 200.28 C 135.58 204.48 153.93 202.22 170.87 195.67 C 171.04 196.58 171.21 197.50 171.39 198.41 C 174.66 197.94 177.97 197.78 181.24 197.29 C 183.26 197.06 184.53 195.28 186.07 194.09 C 187.74 192.50 189.75 191.79 191.83 190.92 C 192.14 190.04 192.44 189.15 192.78 188.28 C 193.49 185.57 197.46 185.10 199.48 183.39 C 203.08 180.51 206.47 177.53 210.55 175.30 Z" fill="#e4e0db" />
<path d="M 215.31 175.56 C 216.46 175.90 217.62 176.25 218.76 176.61 C 217.68 177.44 216.57 178.21 215.45 178.98 C 214.26 181.92 212.81 184.75 211.70 187.72 C 209.45 190.00 207.49 192.49 205.57 195.05 C 203.70 196.69 201.74 198.14 199.34 198.91 L 199.74 197.93 C 200.79 194.38 203.18 192.59 206.08 190.55 C 204.98 189.48 203.88 188.41 202.78 187.35 C 207.19 183.65 211.42 179.81 215.31 175.56 Z" fill="#403e52" />
<path d="M 44.76 188.23 C 46.75 188.37 48.74 188.43 50.72 188.62 C 51.74 189.12 52.74 189.65 53.74 190.17 C 53.02 191.04 52.30 191.90 51.57 192.76 C 55.93 193.18 60.73 192.61 64.94 193.87 C 67.08 194.55 67.79 196.18 68.55 198.10 C 64.09 199.54 59.65 200.51 54.95 199.72 C 53.03 194.40 49.29 191.26 44.76 188.23 Z" fill="#49485f" />
<path d="M 60.27 191.38 C 62.52 190.76 64.72 189.95 66.94 189.21 C 69.10 194.14 70.61 199.28 73.01 204.12 C 71.71 202.55 70.34 201.04 69.05 199.46 L 68.55 198.10 C 67.79 196.18 67.08 194.55 64.94 193.87 C 60.73 192.61 55.93 193.18 51.57 192.76 C 52.30 191.90 53.02 191.04 53.74 190.17 C 52.74 189.65 51.74 189.12 50.72 188.62 C 54.45 188.40 56.92 192.73 60.27 191.38 Z" fill="#837c8c" />
<path d="M 211.70 187.72 C 212.05 189.17 213.54 191.40 212.47 192.81 C 211.34 195.17 207.74 194.65 205.57 195.05 C 207.49 192.49 209.45 190.00 211.70 187.72 Z" fill="#c2c2c4" />
<path d="M 199.74 197.93 L 199.34 198.91 C 198.13 201.05 196.61 202.36 194.52 203.62 C 190.62 205.97 188.00 209.68 184.14 212.05 C 182.20 213.24 181.21 215.01 179.85 216.77 C 179.90 215.19 179.92 213.60 179.94 212.02 C 181.88 210.90 183.87 209.84 185.74 208.60 C 188.56 206.74 190.13 203.62 192.57 201.36 C 194.56 199.55 197.24 198.76 199.74 197.93 Z" fill="#717385" />
<path d="M 69.05 199.46 C 70.34 201.04 71.71 202.55 73.01 204.12 C 73.61 205.17 74.20 206.22 74.80 207.27 L 75.50 206.42 C 76.75 205.64 78.01 204.89 79.28 204.15 C 82.67 206.85 86.05 209.07 90.19 210.47 C 90.24 211.68 90.27 212.90 90.31 214.11 C 87.88 213.43 85.81 212.16 83.79 210.70 C 83.69 212.31 83.58 213.92 83.46 215.53 C 79.27 214.31 76.49 212.83 73.23 209.89 C 74.88 209.57 76.54 209.28 78.20 208.99 C 75.75 208.46 73.29 207.91 70.88 207.21 C 72.15 206.32 72.41 205.38 71.65 204.40 C 69.94 203.62 69.52 205.81 70.16 206.97 C 68.94 205.73 67.68 204.39 66.82 202.88 C 67.44 201.68 68.29 200.58 69.05 199.46 Z" fill="#44465b" />
<path d="M 71.65 204.40 C 72.41 205.38 72.15 206.32 70.88 207.21 L 70.16 206.97 C 69.52 205.81 69.94 203.62 71.65 204.40 Z" fill="#c5c5d8" />
<path d="M 175.76 212.81 C 176.63 212.83 177.50 212.88 178.37 212.92 C 178.89 212.62 179.42 212.32 179.94 212.02 C 179.92 213.60 179.90 215.19 179.85 216.77 C 178.92 217.51 177.94 218.21 176.94 218.86 C 176.17 218.13 175.40 217.39 174.63 216.66 C 174.98 215.37 175.34 214.08 175.76 212.81 Z" fill="#58596f" />
</svg>