<?xml version="1.0" encoding="UTF-8" standalone="no"?>
<!DOCTYPE svg PUBLIC "-//W3C//DTD SVG 1.1//EN" "http://www.w3.org/Graphics/SVG/1.1/DTD/svg11.dtd">
<svg xmlns="http://www.w3.org/2000/svg" version="1.1" viewBox="0 0 256 256" width="256.0pt" height="256.0pt">
<path d="M 0.00 0.00 L 256.00 0.00 L 256.00 256.00 L 0.00 256.00 L 0.00 0.00 Z" fill="#fefefd" />
<path d="M 214.86 27.11 C 224.50 34.53 234.44 44.72 238.52 56.40 C 239.56 61.07 243.04 67.30 235.06 66.14 C 234.43 65.46 233.80 64.77 233.18 64.07 L 233.29 63.29 C 234.06 59.04 229.36 53.82 227.23 50.27 C 225.73 48.28 224.27 46.26 222.88 44.19 C 221.06 41.66 219.15 38.11 216.17 36.90 C 214.48 33.88 213.25 32.66 210.14 31.30 C 207.51 30.36 198.53 26.32 199.91 32.22 C 198.26 29.48 194.83 27.37 199.17 25.55 C 195.47 25.39 190.70 25.19 187.73 27.70 C 185.20 29.98 182.53 28.49 179.48 28.46 C 176.90 28.88 171.08 28.03 170.68 31.38 C 167.83 28.71 163.24 32.01 160.33 33.29 C 158.90 34.10 157.52 35.00 156.18 35.96 C 150.72 39.58 146.59 42.23 143.23 48.09 C 140.02 51.01 136.40 55.50 136.94 60.10 C 135.51 65.88 135.62 72.36 136.62 78.20 C 137.00 85.65 137.53 92.37 143.03 97.99 C 145.28 99.94 149.95 97.92 152.92 99.15 C 154.47 104.84 155.81 100.82 159.84 101.13 C 161.93 102.75 163.35 103.60 165.96 104.16 C 161.48 106.84 167.10 106.98 168.86 109.12 C 171.42 110.55 171.10 113.96 172.46 116.49 C 174.32 117.46 176.97 117.76 178.16 119.53 C 178.07 123.05 179.67 125.80 180.74 129.02 C 178.43 135.61 172.13 141.22 166.46 144.11 C 166.29 149.30 165.25 140.40 161.92 145.09 C 158.24 140.25 155.75 139.27 149.91 137.97 L 149.79 136.99 C 149.78 135.16 148.59 134.23 147.63 132.83 C 146.49 129.96 145.82 129.15 147.56 126.32 C 144.51 126.67 145.48 125.88 144.46 123.46 C 137.84 120.95 134.47 116.14 127.10 116.03 C 125.03 116.97 123.07 119.08 121.99 121.07 C 122.30 125.32 124.91 126.73 128.01 128.98 C 131.05 130.33 129.77 135.49 130.36 138.25 C 129.14 144.05 124.73 144.48 119.85 145.73 C 118.35 145.71 121.52 148.09 120.12 148.23 C 116.70 149.65 112.80 152.33 109.02 151.93 C 112.37 148.15 115.50 147.30 116.09 141.06 C 118.15 139.52 117.91 138.12 117.98 135.74 C 117.75 129.16 116.44 120.17 111.65 115.26 C 106.71 113.64 108.40 120.20 107.83 122.87 C 105.92 121.44 108.26 117.39 105.10 115.97 C 104.60 119.61 106.28 122.44 106.83 125.87 C 105.71 128.19 104.30 130.33 103.31 132.71 C 101.65 134.62 99.95 136.48 98.30 138.40 C 96.16 129.55 90.64 121.94 88.65 113.16 C 87.29 109.29 92.06 107.75 90.13 103.77 L 89.94 103.03 C 91.90 103.19 92.52 102.51 91.80 101.02 C 88.40 93.25 82.75 92.69 76.00 89.14 C 74.95 89.72 73.97 90.49 72.99 91.19 C 71.11 91.03 69.35 90.67 67.55 90.11 C 74.44 88.67 79.22 84.30 85.18 80.95 C 90.26 78.35 93.72 75.50 96.82 70.66 C 98.17 70.38 98.81 69.64 99.92 70.88 C 98.15 74.44 102.89 76.97 102.46 81.08 C 104.64 86.87 102.60 92.01 102.31 98.01 C 108.60 94.73 105.85 83.60 105.77 77.86 C 106.30 74.61 104.23 74.58 102.25 72.78 C 103.52 72.65 104.78 72.49 106.05 72.35 C 106.68 72.56 107.31 72.78 107.94 73.00 C 111.04 77.44 113.14 82.41 114.44 87.65 C 119.70 88.49 109.22 77.18 115.65 77.39 C 119.00 79.83 120.00 82.02 121.18 85.88 C 121.65 88.17 126.47 90.63 126.85 86.91 C 126.77 81.90 127.70 77.09 127.90 72.14 C 126.45 71.89 125.20 74.44 124.05 75.20 C 119.19 73.82 117.55 73.62 112.94 75.83 C 111.17 74.01 109.78 71.81 108.22 69.81 C 108.04 67.39 108.09 65.09 107.24 62.81 C 105.54 57.99 101.82 51.64 97.17 49.36 C 92.66 50.32 98.96 55.30 96.90 58.90 C 93.60 68.51 87.21 65.20 80.20 70.05 C 79.30 70.54 77.96 70.16 76.96 70.19 C 82.19 66.35 74.80 67.26 72.38 65.55 C 71.09 64.37 73.63 62.95 74.90 63.62 C 76.93 67.22 79.83 63.92 75.18 62.93 C 73.48 61.02 71.52 59.54 69.35 58.21 C 67.64 56.84 65.95 55.44 64.23 54.08 C 65.63 50.34 57.54 46.90 55.08 45.03 L 53.98 43.63 C 52.65 41.98 50.21 33.47 49.56 39.91 C 46.46 37.26 48.75 29.87 47.81 26.00 C 41.27 33.62 42.52 41.26 47.15 49.46 C 49.97 46.10 52.84 52.57 55.14 54.07 C 59.80 59.17 56.93 56.95 53.83 60.88 C 47.66 59.79 43.66 56.10 38.59 52.85 C 38.09 52.54 37.57 52.25 37.05 51.97 C 34.83 48.71 33.81 45.00 32.01 41.52 C 31.90 39.90 31.67 38.33 31.18 36.77 C 31.22 35.36 31.61 33.25 30.62 32.11 C 30.06 31.48 29.47 30.88 28.84 30.32 L 29.00 29.54 C 29.33 28.35 29.64 27.15 29.97 25.96 C 35.66 24.01 42.66 24.91 48.59 25.49 C 53.47 28.75 58.29 32.17 63.06 35.59 C 66.05 42.77 72.20 50.19 80.13 51.82 C 87.85 53.94 90.60 46.02 98.72 47.36 C 111.83 46.85 117.60 33.27 131.97 32.01 C 147.05 32.20 162.39 24.18 176.99 20.97 C 189.85 17.54 203.82 19.57 214.86 27.11 Z" fill="#f2f1ed" />
<path d="M 199.17 25.55 C 194.83 27.37 198.26 29.48 199.91 32.22 C 199.31 32.62 198.71 33.02 198.12 33.42 C 196.36 33.46 194.62 33.34 192.90 32.99 C 189.79 30.27 186.46 31.60 182.97 32.63 C 181.59 32.40 180.32 29.64 179.48 28.46 C 182.53 28.49 185.20 29.98 187.73 27.70 C 190.70 25.19 195.47 25.39 199.17 25.55 Z" fill="#6c7ea9" />
<path d="M 29.97 25.96 C 29.64 27.15 29.33 28.35 29.00 29.54 C 24.25 28.15 24.87 38.83 23.74 41.62 C 24.81 46.75 23.72 53.68 26.98 57.87 C 25.86 58.71 24.75 59.56 23.64 60.41 C 17.78 50.79 20.45 39.71 23.96 29.84 C 25.78 27.97 27.54 26.89 29.97 25.96 Z" fill="#d6d2b9" />
<path d="M 47.81 26.00 C 48.75 29.87 46.46 37.26 49.56 39.91 C 50.21 33.47 52.65 41.98 53.98 43.63 C 49.13 44.40 56.34 51.11 55.08 45.03 C 57.54 46.90 65.63 50.34 64.23 54.08 C 60.98 52.66 58.78 50.13 56.00 48.07 C 55.92 50.76 57.19 51.53 58.96 53.19 C 57.69 53.49 56.42 53.80 55.14 54.07 C 52.84 52.57 49.97 46.10 47.15 49.46 C 42.52 41.26 41.27 33.62 47.81 26.00 Z" fill="#d9c799" />
<path d="M 179.48 28.46 C 180.32 29.64 181.59 32.40 182.97 32.63 C 186.46 31.60 189.79 30.27 192.90 32.99 C 188.91 33.56 185.02 34.12 180.97 34.03 C 178.59 33.92 176.76 34.99 174.77 36.11 L 174.08 36.22 C 172.91 34.82 172.69 32.07 170.35 33.32 C 164.69 35.64 157.24 40.08 154.91 46.00 C 153.87 46.55 152.85 47.13 151.85 47.74 C 152.13 46.43 152.38 45.11 152.59 43.79 C 150.10 46.70 147.95 48.58 144.79 50.74 C 144.74 55.63 137.51 60.71 139.55 67.11 C 137.49 70.22 137.19 74.59 136.62 78.20 C 135.62 72.36 135.51 65.88 136.94 60.10 C 139.03 56.15 142.74 52.50 143.23 48.09 C 146.59 42.23 150.72 39.58 156.18 35.96 C 158.86 35.78 156.51 37.79 156.37 39.16 C 159.35 38.25 159.34 35.80 160.33 33.29 C 163.24 32.01 167.83 28.71 170.68 31.38 C 171.08 28.03 176.90 28.88 179.48 28.46 Z" fill="#566492" />
<path d="M 29.00 29.54 L 28.84 30.32 C 26.88 36.73 27.80 41.73 31.93 46.94 C 33.53 49.06 34.18 51.32 37.05 51.97 C 37.57 52.25 38.09 52.54 38.59 52.85 C 38.88 56.08 43.95 58.02 46.25 59.86 C 40.27 62.99 39.62 61.69 34.18 58.98 C 30.75 63.83 30.49 60.14 26.98 57.87 C 23.72 53.68 24.81 46.75 23.74 41.62 C 24.87 38.83 24.25 28.15 29.00 29.54 Z" fill="#debe81" />
<path d="M 210.14 31.30 C 209.10 31.66 208.05 32.01 207.00 32.35 C 204.63 32.30 202.28 32.12 199.91 32.22 C 198.53 26.32 207.51 30.36 210.14 31.30 Z" fill="#8494b1" />
<path d="M 23.96 29.84 C 20.45 39.71 17.78 50.79 23.64 60.41 C 24.37 65.09 26.01 67.18 29.80 69.84 C 32.80 72.14 35.78 74.37 39.09 76.22 C 35.74 79.64 34.02 81.08 29.01 81.40 C 30.72 83.89 35.24 82.65 37.92 83.22 C 38.23 86.98 27.88 84.61 34.69 88.28 C 36.02 89.35 37.36 90.42 38.74 91.41 C 38.97 95.03 40.35 98.10 41.86 101.32 C 41.73 105.40 45.50 111.51 48.99 113.77 C 51.31 115.71 53.03 118.14 54.38 120.83 C 53.22 123.39 52.99 127.92 49.01 125.98 C 45.74 124.18 45.90 127.68 46.18 129.94 C 47.46 134.79 44.47 138.10 47.77 142.24 C 49.68 144.65 51.53 148.74 54.81 149.21 C 54.93 152.63 54.86 155.89 55.66 159.25 C 56.09 161.55 56.68 163.82 57.35 166.06 C 58.19 168.87 59.70 171.53 61.13 174.08 C 62.59 176.83 64.56 179.12 66.80 181.26 C 68.72 185.47 69.05 178.78 71.43 182.57 C 72.59 184.55 79.64 189.86 73.11 188.31 C 76.05 191.74 79.45 195.60 83.59 197.56 C 84.07 197.06 84.55 196.55 85.01 196.03 C 85.98 196.81 86.96 197.56 88.01 198.21 C 88.60 198.56 89.19 198.90 89.79 199.23 C 89.56 200.03 89.35 200.84 89.17 201.65 C 94.72 200.19 98.95 206.63 104.78 207.30 C 109.44 210.59 117.75 209.37 123.29 209.13 C 125.64 211.31 125.16 215.20 128.92 212.33 C 132.80 209.90 138.72 213.41 143.33 212.81 C 143.76 214.56 144.04 216.31 144.21 218.11 C 143.79 219.35 143.33 220.59 142.88 221.83 C 141.45 222.17 140.04 222.56 138.65 223.02 C 136.02 223.69 134.34 225.51 132.02 226.68 C 129.66 226.37 127.33 225.77 125.01 225.25 C 127.01 221.46 123.33 222.40 120.87 222.00 C 120.25 221.60 119.63 221.20 119.00 220.81 C 117.23 219.25 115.80 219.41 113.90 220.64 C 109.69 221.95 108.64 224.40 106.78 228.04 C 105.76 229.24 104.79 232.59 107.10 232.80 C 109.87 233.25 112.27 232.45 114.92 231.83 C 116.58 232.33 117.86 232.54 119.06 231.06 C 121.43 231.58 123.77 232.22 126.06 233.04 C 127.68 234.75 129.29 234.85 130.90 233.06 C 133.76 230.80 136.16 227.63 139.89 227.04 C 140.52 227.43 141.16 227.82 141.78 228.22 C 142.13 229.97 141.76 232.60 143.21 233.82 C 145.52 236.88 147.30 230.75 148.21 229.23 C 151.40 224.77 155.78 227.56 157.85 221.94 C 159.47 219.15 161.17 216.46 162.95 213.77 C 164.13 211.93 165.09 210.00 166.05 208.03 C 167.58 204.44 170.36 202.12 173.44 199.89 C 176.79 199.58 180.03 199.48 183.23 198.26 C 189.98 197.00 193.34 190.12 198.84 188.54 C 199.00 200.50 197.92 210.73 206.77 220.14 C 207.75 221.09 208.84 221.90 209.95 222.70 C 209.82 223.73 209.72 224.77 209.57 225.79 C 204.22 224.91 200.59 223.09 197.34 218.69 C 193.85 213.27 185.18 206.16 178.67 210.69 C 166.82 217.39 165.37 230.04 152.63 235.48 C 149.45 236.16 147.41 236.48 145.05 238.88 C 129.18 244.03 112.19 238.80 96.17 236.64 C 86.59 236.52 78.13 233.43 71.80 226.16 C 67.27 219.80 68.13 213.31 66.87 206.05 C 65.11 201.87 61.53 198.03 56.60 200.67 C 52.63 204.04 48.50 201.97 43.77 203.80 L 42.33 204.26 L 41.07 202.92 C 40.91 201.44 40.41 200.19 39.72 198.88 L 39.78 197.01 C 40.20 193.82 41.20 190.56 42.82 187.78 C 45.21 185.39 50.07 186.02 53.19 185.81 C 55.78 186.38 66.67 189.40 64.91 184.17 C 65.10 181.94 63.07 181.31 61.65 182.92 C 61.11 183.35 60.56 183.76 60.01 184.18 C 58.03 183.66 56.81 183.71 54.89 184.40 C 51.41 183.25 48.56 180.72 45.03 180.04 C 45.21 181.56 45.97 182.37 46.96 183.45 C 45.13 183.38 43.52 183.44 41.81 184.22 C 41.56 182.80 41.45 181.37 41.32 179.94 C 38.70 180.79 37.44 182.78 35.79 184.81 C 32.73 188.45 30.17 190.73 30.94 195.97 C 30.21 201.35 33.31 202.93 36.95 205.85 C 37.05 210.74 29.39 212.22 29.97 206.99 C 29.84 202.34 26.59 199.93 25.10 195.88 C 25.65 186.31 29.59 178.59 38.68 174.68 C 43.98 172.92 46.78 165.11 46.03 159.98 C 43.75 149.62 37.72 141.22 38.12 130.01 C 38.75 115.12 32.61 103.12 25.66 90.48 C 21.89 82.10 20.35 72.84 16.56 64.39 C 12.00 55.09 10.86 42.08 16.81 33.15 C 19.05 36.14 20.96 30.10 23.96 29.84 Z" fill="#f3f2f0" />
<path d="M 28.84 30.32 C 29.47 30.88 30.06 31.48 30.62 32.11 C 29.46 33.92 29.19 35.46 31.18 36.77 C 31.67 38.33 31.90 39.90 32.01 41.52 C 31.83 43.33 31.86 45.13 31.93 46.94 C 27.80 41.73 26.88 36.73 28.84 30.32 Z" fill="#e0dac3" />
<path d="M 210.14 31.30 C 213.25 32.66 214.48 33.88 216.17 36.90 C 212.91 35.73 210.34 33.40 207.00 32.35 C 208.05 32.01 209.10 31.66 210.14 31.30 Z" fill="#bac6dd" />
<path d="M 30.62 32.11 C 31.61 33.25 31.22 35.36 31.18 36.77 C 29.19 35.46 29.46 33.92 30.62 32.11 Z" fill="#4b4f4d" />
<path d="M 199.91 32.22 C 202.28 32.12 204.63 32.30 207.00 32.35 C 210.34 33.40 212.91 35.73 216.17 36.90 C 219.15 38.11 221.06 41.66 222.88 44.19 C 218.47 44.84 214.33 40.77 209.94 39.90 C 208.70 39.13 207.46 38.37 206.19 37.65 C 209.95 35.23 205.15 35.83 203.65 34.04 C 202.50 32.74 199.90 34.08 198.37 34.06 L 198.12 33.42 C 198.71 33.02 199.31 32.62 199.91 32.22 Z" fill="#4d6091" />
<path d="M 160.33 33.29 C 159.34 35.80 159.35 38.25 156.37 39.16 C 156.51 37.79 158.86 35.78 156.18 35.96 C 157.52 35.00 158.90 34.10 160.33 33.29 Z" fill="#9eaecd" />
<path d="M 170.35 33.32 C 172.69 32.07 172.91 34.82 174.08 36.22 C 169.56 34.93 168.88 39.36 164.45 40.47 C 161.11 42.28 158.43 44.66 154.91 46.00 C 157.24 40.08 164.69 35.64 170.35 33.32 Z" fill="#303f6d" />
<path d="M 192.90 32.99 C 194.62 33.34 196.36 33.46 198.12 33.42 L 198.37 34.06 C 198.64 37.95 198.09 41.01 202.87 41.98 C 202.36 40.31 201.65 38.72 201.12 37.07 C 202.83 37.10 204.51 37.34 206.19 37.65 C 207.46 38.37 208.70 39.13 209.94 39.90 C 208.35 39.94 206.77 40.00 205.19 40.13 C 206.76 42.41 208.42 44.59 209.64 47.10 C 210.13 48.72 210.64 50.34 211.27 51.92 C 212.35 50.49 213.28 49.03 213.63 47.25 C 212.31 44.84 210.95 42.47 209.94 39.90 C 214.33 40.77 218.47 44.84 222.88 44.19 C 224.27 46.26 225.73 48.28 227.23 50.27 C 226.12 50.01 225.02 49.72 223.90 49.47 C 227.10 54.01 229.48 59.25 233.29 63.29 L 233.18 64.07 L 233.04 64.94 C 231.83 64.22 230.61 63.51 229.34 62.91 C 229.74 65.00 230.27 67.05 230.82 69.10 C 231.18 71.21 231.69 73.35 231.81 75.49 C 229.14 75.62 227.14 76.05 224.68 77.16 L 223.13 77.14 C 218.10 75.79 214.69 82.18 212.78 85.86 C 205.95 95.36 203.76 104.57 202.63 116.05 C 201.86 115.10 201.21 114.11 200.65 113.03 C 201.32 110.49 201.72 108.36 200.23 106.02 C 199.12 96.91 201.64 86.94 206.11 78.98 C 208.41 78.88 215.03 79.80 214.97 76.17 C 210.71 78.23 208.10 76.68 205.32 77.02 C 202.94 81.25 201.19 85.83 199.16 90.24 L 198.22 90.19 C 199.23 80.40 205.45 73.66 208.83 64.99 C 206.78 57.89 198.95 52.64 192.13 50.85 C 186.82 46.48 185.62 47.24 179.86 50.83 C 172.70 51.16 167.86 54.92 162.50 59.09 C 161.87 54.35 153.30 61.14 155.71 63.96 C 152.46 68.47 146.88 74.51 145.64 79.77 C 144.91 81.65 145.62 87.20 142.48 86.26 C 139.55 83.93 141.89 88.28 141.73 89.70 C 137.69 91.10 143.27 95.36 144.36 97.28 L 143.03 97.99 C 137.53 92.37 137.00 85.65 136.62 78.20 C 137.19 74.59 137.49 70.22 139.55 67.11 C 143.24 60.94 146.02 52.27 151.85 47.74 C 152.85 47.13 153.87 46.55 154.91 46.00 C 158.43 44.66 161.11 42.28 164.45 40.47 C 168.88 39.36 169.56 34.93 174.08 36.22 L 174.77 36.11 C 176.85 36.55 178.94 36.99 181.02 37.46 C 180.05 38.60 175.79 39.07 178.19 40.66 C 182.64 40.23 185.20 37.34 180.97 34.03 C 185.02 34.12 188.91 33.56 192.90 32.99 Z" fill="#222542" />
<path d="M 203.65 34.04 C 205.15 35.83 209.95 35.23 206.19 37.65 C 204.51 37.34 202.83 37.10 201.12 37.07 C 201.65 38.72 202.36 40.31 202.87 41.98 C 198.09 41.01 198.64 37.95 198.37 34.06 C 199.90 34.08 202.50 32.74 203.65 34.04 Z" fill="#333e72" />
<path d="M 180.97 34.03 C 185.20 37.34 182.64 40.23 178.19 40.66 C 175.79 39.07 180.05 38.60 181.02 37.46 C 178.94 36.99 176.85 36.55 174.77 36.11 C 176.76 34.99 178.59 33.92 180.97 34.03 Z" fill="#3a4571" />
<path d="M 132.94 41.77 C 137.14 40.50 139.90 37.56 143.96 41.19 C 140.87 44.41 135.79 48.70 131.96 50.99 C 128.81 50.27 131.15 44.72 128.43 43.53 C 125.55 41.35 122.43 40.75 119.10 39.56 C 123.05 37.62 130.87 36.81 132.94 41.77 Z" fill="#e5c68f" />
<path d="M 205.19 40.13 C 206.77 40.00 208.35 39.94 209.94 39.90 C 210.95 42.47 212.31 44.84 213.63 47.25 C 212.06 46.94 209.64 43.92 209.64 47.10 C 208.42 44.59 206.76 42.41 205.19 40.13 Z" fill="#4f4e7e" />
<path d="M 32.01 41.52 C 33.81 45.00 34.83 48.71 37.05 51.97 C 34.18 51.32 33.53 49.06 31.93 46.94 C 31.86 45.13 31.83 43.33 32.01 41.52 Z" fill="#80796e" />
<path d="M 53.98 43.63 L 55.08 45.03 C 56.34 51.11 49.13 44.40 53.98 43.63 Z" fill="#614d29" />
<path d="M 152.59 43.79 C 152.38 45.11 152.13 46.43 151.85 47.74 C 146.02 52.27 143.24 60.94 139.55 67.11 C 137.51 60.71 144.74 55.63 144.79 50.74 C 147.95 48.58 150.10 46.70 152.59 43.79 Z" fill="#9389a1" />
<path d="M 171.30 44.12 C 172.22 43.75 174.50 43.81 173.41 45.33 C 171.69 47.07 166.69 45.91 171.30 44.12 Z" fill="#766d81" />
<path d="M 213.63 47.25 C 213.28 49.03 212.35 50.49 211.27 51.92 C 210.64 50.34 210.13 48.72 209.64 47.10 C 209.64 43.92 212.06 46.94 213.63 47.25 Z" fill="#ad8686" />
<path d="M 56.00 48.07 C 58.78 50.13 60.98 52.66 64.23 54.08 C 65.95 55.44 67.64 56.84 69.35 58.21 C 65.82 59.63 61.71 54.99 58.96 53.19 C 57.19 51.53 55.92 50.76 56.00 48.07 Z" fill="#40322c" />
<path d="M 143.23 48.09 C 142.74 52.50 139.03 56.15 136.94 60.10 C 136.40 55.50 140.02 51.01 143.23 48.09 Z" fill="#ad99ad" />
<path d="M 192.13 50.85 C 188.04 50.76 183.96 50.72 179.86 50.83 C 185.62 47.24 186.82 46.48 192.13 50.85 Z" fill="#797b89" />
<path d="M 97.17 49.36 C 101.82 51.64 105.54 57.99 107.24 62.81 C 107.07 65.96 107.37 69.48 106.05 72.35 C 104.78 72.49 103.52 72.65 102.25 72.78 C 101.47 72.15 100.69 71.51 99.92 70.88 C 98.81 69.64 98.17 70.38 96.82 70.66 C 91.73 71.28 86.95 72.71 82.04 74.07 C 77.91 75.87 68.53 72.65 68.78 78.88 C 68.88 80.49 65.04 79.87 63.98 80.09 C 67.02 76.84 68.29 75.99 64.27 72.75 C 59.49 69.82 57.40 75.25 58.82 79.13 C 52.82 77.97 57.87 74.09 51.77 72.74 C 52.38 70.37 56.10 71.22 57.99 70.70 C 56.69 70.23 55.37 69.82 54.07 69.35 C 55.80 68.99 57.53 68.65 59.25 68.25 C 60.15 68.08 61.05 67.90 61.95 67.69 C 60.13 64.84 55.98 64.18 53.02 62.77 C 53.62 62.25 54.23 61.74 54.83 61.22 C 62.85 63.42 68.83 70.82 76.96 70.19 C 77.96 70.16 79.30 70.54 80.20 70.05 C 87.21 65.20 93.60 68.51 96.90 58.90 C 98.96 55.30 92.66 50.32 97.17 49.36 Z" fill="#24253d" />
<path d="M 223.90 49.47 C 225.02 49.72 226.12 50.01 227.23 50.27 C 229.36 53.82 234.06 59.04 233.29 63.29 C 229.48 59.25 227.10 54.01 223.90 49.47 Z" fill="#6e6e7f" />
<path d="M 192.13 50.85 C 198.95 52.64 206.78 57.89 208.83 64.99 C 205.45 73.66 199.23 80.40 198.22 90.19 C 196.71 95.61 195.84 103.03 198.82 108.08 C 198.40 101.88 198.45 96.45 199.16 90.24 C 201.19 85.83 202.94 81.25 205.32 77.02 C 205.58 77.67 205.85 78.32 206.11 78.98 C 201.64 86.94 199.12 96.91 200.23 106.02 C 199.80 108.51 199.21 110.73 200.65 113.03 C 201.21 114.11 201.86 115.10 202.63 116.05 C 203.76 104.57 205.95 95.36 212.78 85.86 C 216.54 83.30 220.19 80.67 223.13 77.14 L 224.68 77.16 C 227.36 77.96 230.49 77.78 232.95 79.09 C 230.04 82.04 228.27 85.58 225.71 88.68 C 218.24 93.08 215.57 103.22 208.85 108.28 C 210.75 111.66 207.38 114.19 204.46 115.17 C 205.52 117.48 206.17 119.37 206.00 121.99 C 205.88 134.67 211.40 146.62 209.89 159.01 C 208.59 169.84 207.35 180.02 213.28 189.74 C 217.52 196.46 222.36 200.28 222.60 208.73 C 223.39 211.04 218.43 208.16 220.52 210.60 C 222.43 213.52 225.77 216.59 222.32 219.87 C 219.87 219.22 217.41 218.78 215.05 217.83 C 214.50 213.71 213.06 211.79 216.73 208.70 C 219.08 206.95 215.14 202.14 213.86 200.62 C 211.44 198.46 210.72 201.57 210.85 203.56 C 208.70 203.39 207.65 199.99 206.63 198.40 C 205.43 193.56 202.72 190.10 202.99 184.99 C 204.13 179.25 197.60 177.31 194.64 181.66 C 190.21 188.32 190.94 195.06 181.84 197.44 C 177.25 196.40 184.33 189.40 184.71 186.74 C 185.45 184.84 188.32 187.25 189.06 184.10 C 190.10 178.78 195.18 180.00 196.05 174.55 C 198.87 171.39 198.16 169.86 193.91 170.74 C 200.04 159.33 204.18 142.93 198.31 130.68 C 194.86 124.51 193.01 115.35 186.89 111.54 C 184.96 109.33 182.70 107.66 180.19 106.16 C 176.67 103.66 173.18 101.27 169.08 99.82 C 166.95 98.34 164.90 97.24 162.26 97.11 C 158.18 95.42 153.89 94.04 149.98 92.02 C 145.70 90.09 146.07 83.67 145.64 79.77 C 146.88 74.51 152.46 68.47 155.71 63.96 C 158.00 62.37 160.17 60.63 162.50 59.09 C 167.86 54.92 172.70 51.16 179.86 50.83 C 183.96 50.72 188.04 50.76 192.13 50.85 Z" fill="#f0efee" />
<path d="M 199.91 50.17 C 203.49 52.55 208.68 55.60 210.05 59.89 C 208.29 58.70 206.74 57.28 205.09 55.94 C 202.97 54.12 200.71 53.07 199.91 50.17 Z" fill="#d8dbe9" />
<path d="M 38.59 52.85 C 43.66 56.10 47.66 59.79 53.83 60.88 L 54.83 61.22 C 54.23 61.74 53.62 62.25 53.02 62.77 C 50.73 61.88 48.51 60.81 46.25 59.86 C 43.95 58.02 38.88 56.08 38.59 52.85 Z" fill="#62594b" />
<path d="M 58.96 53.19 C 61.71 54.99 65.82 59.63 69.35 58.21 C 71.52 59.54 73.48 61.02 75.18 62.93 L 74.90 63.62 C 73.63 62.95 71.09 64.37 72.38 65.55 C 74.80 67.26 82.19 66.35 76.96 70.19 C 68.83 70.82 62.85 63.42 54.83 61.22 L 53.83 60.88 C 56.93 56.95 59.80 59.17 55.14 54.07 C 56.42 53.80 57.69 53.49 58.96 53.19 Z" fill="#e5e4c9" />
<path d="M 127.89 54.06 C 127.95 57.99 127.06 61.93 126.67 65.85 C 122.77 67.06 122.45 63.03 119.96 61.06 C 117.89 60.08 115.84 59.93 114.01 58.49 C 118.98 57.90 123.12 54.61 127.89 54.06 Z" fill="#e3bc81" />
<path d="M 162.50 59.09 C 160.17 60.63 158.00 62.37 155.71 63.96 C 153.30 61.14 161.87 54.35 162.50 59.09 Z" fill="#656579" />
<path d="M 26.98 57.87 C 30.49 60.14 30.75 63.83 34.18 58.98 C 39.62 61.69 40.27 62.99 46.25 59.86 C 48.51 60.81 50.73 61.88 53.02 62.77 C 55.98 64.18 60.13 64.84 61.95 67.69 C 61.05 67.90 60.15 68.08 59.25 68.25 C 53.92 68.05 48.05 69.33 42.77 70.21 C 39.81 71.37 30.19 66.33 29.80 69.84 C 26.01 67.18 24.37 65.09 23.64 60.41 C 24.75 59.56 25.86 58.71 26.98 57.87 Z" fill="#e7e6d4" />
<path d="M 179.03 58.12 C 184.67 57.65 191.94 57.23 194.72 63.36 C 197.91 68.82 199.39 79.73 194.25 84.26 C 193.46 87.44 194.77 90.77 191.73 92.74 C 188.86 94.81 188.37 100.29 184.06 98.91 C 176.66 98.40 171.36 94.47 165.28 90.70 C 157.86 85.97 155.77 71.09 164.65 66.62 C 169.03 63.58 173.79 59.13 179.03 58.12 Z" fill="#fafaf8" />
<path d="M 75.18 62.93 C 79.83 63.92 76.93 67.22 74.90 63.62 L 75.18 62.93 Z" fill="#6d6c62" />
<path d="M 107.24 62.81 C 108.09 65.09 108.04 67.39 108.22 69.81 C 108.12 70.87 108.03 71.94 107.94 73.00 C 107.31 72.78 106.68 72.56 106.05 72.35 C 107.37 69.48 107.07 65.96 107.24 62.81 Z" fill="#767887" />
<path d="M 229.34 62.91 C 230.61 63.51 231.83 64.22 233.04 64.94 C 233.30 65.93 233.56 66.91 233.84 67.89 C 232.83 68.28 231.83 68.68 230.82 69.10 C 230.27 67.05 229.74 65.00 229.34 62.91 Z" fill="#a9abb4" />
<path d="M 233.18 64.07 C 233.80 64.77 234.43 65.46 235.06 66.14 C 235.85 67.69 236.50 69.28 236.98 70.95 C 235.87 69.99 234.86 68.94 233.84 67.89 C 233.56 66.91 233.30 65.93 233.04 64.94 L 233.18 64.07 Z" fill="#595965" />
<path d="M 42.77 70.21 C 45.79 71.00 48.76 71.93 51.77 72.74 C 57.87 74.09 52.82 77.97 58.82 79.13 C 60.50 79.74 62.19 80.07 63.98 80.09 C 65.04 79.87 68.88 80.49 68.78 78.88 C 68.53 72.65 77.91 75.87 82.04 74.07 C 84.25 75.90 84.64 78.28 85.18 80.95 C 79.22 84.30 74.44 88.67 67.55 90.11 C 65.18 90.63 63.28 91.59 60.97 90.21 C 63.92 86.65 58.66 79.80 54.63 81.56 C 52.28 82.15 50.29 81.68 48.04 81.01 C 48.16 75.81 47.09 79.81 45.33 81.49 C 43.30 79.73 41.37 77.63 39.09 76.22 C 35.78 74.37 32.80 72.14 29.80 69.84 C 30.19 66.33 39.81 71.37 42.77 70.21 Z" fill="#4b5c93" />
<path d="M 59.25 68.25 C 57.53 68.65 55.80 68.99 54.07 69.35 C 55.37 69.82 56.69 70.23 57.99 70.70 C 56.10 71.22 52.38 70.37 51.77 72.74 C 48.76 71.93 45.79 71.00 42.77 70.21 C 48.05 69.33 53.92 68.05 59.25 68.25 Z" fill="#374666" />
<path d="M 108.22 69.81 C 109.78 71.81 111.17 74.01 112.94 75.83 C 117.55 73.62 119.19 73.82 124.05 75.20 C 121.02 76.65 118.34 74.39 115.65 77.39 C 109.22 77.18 119.70 88.49 114.44 87.65 C 113.14 82.41 111.04 77.44 107.94 73.00 C 108.03 71.94 108.12 70.87 108.22 69.81 Z" fill="#d9d1b8" />
<path d="M 96.82 70.66 C 93.72 75.50 90.26 78.35 85.18 80.95 C 84.64 78.28 84.25 75.90 82.04 74.07 C 86.95 72.71 91.73 71.28 96.82 70.66 Z" fill="#957c6f" />
<path d="M 99.92 70.88 C 100.69 71.51 101.47 72.15 102.25 72.78 C 104.23 74.58 106.30 74.61 105.77 77.86 C 105.85 83.60 108.60 94.73 102.31 98.01 C 102.60 92.01 104.64 86.87 102.46 81.08 C 102.89 76.97 98.15 74.44 99.92 70.88 Z" fill="#cacbbc" />
<path d="M 64.27 72.75 C 68.29 75.99 67.02 76.84 63.98 80.09 C 62.19 80.07 60.50 79.74 58.82 79.13 C 57.40 75.25 59.49 69.82 64.27 72.75 Z" fill="#bdac31" />
<path d="M 127.90 72.14 C 127.70 77.09 126.77 81.90 126.85 86.91 C 126.47 90.63 121.65 88.17 121.18 85.88 C 120.00 82.02 119.00 79.83 115.65 77.39 C 118.34 74.39 121.02 76.65 124.05 75.20 C 125.20 74.44 126.45 71.89 127.90 72.14 Z" fill="#e3c183" />
<path d="M 39.09 76.22 C 41.37 77.63 43.30 79.73 45.33 81.49 C 44.92 84.84 43.26 86.81 40.94 89.08 C 38.87 88.73 36.79 88.42 34.69 88.28 C 27.88 84.61 38.23 86.98 37.92 83.22 C 35.24 82.65 30.72 83.89 29.01 81.40 C 34.02 81.08 35.74 79.64 39.09 76.22 Z" fill="#c1654f" />
<path d="M 214.97 76.17 C 215.03 79.80 208.41 78.88 206.11 78.98 C 205.85 78.32 205.58 77.67 205.32 77.02 C 208.10 76.68 210.71 78.23 214.97 76.17 Z" fill="#5a5c78" />
<path d="M 223.13 77.14 C 220.19 80.67 216.54 83.30 212.78 85.86 C 214.69 82.18 218.10 75.79 223.13 77.14 Z" fill="#5f6c93" />
<path d="M 48.04 81.01 C 47.10 86.09 57.64 87.90 60.97 90.21 C 63.28 91.59 65.18 90.63 67.55 90.11 C 69.35 90.67 71.11 91.03 72.99 91.19 C 67.11 96.92 61.37 94.89 54.16 93.97 C 49.25 94.76 50.27 100.69 54.81 100.49 C 57.82 102.53 61.01 102.01 64.63 102.70 C 65.13 104.65 65.58 106.72 66.40 108.56 C 68.08 110.15 71.71 110.11 72.19 112.86 C 72.97 115.85 72.69 118.90 73.68 121.90 C 72.20 128.76 68.34 134.35 66.03 140.83 C 65.37 142.82 64.63 144.76 63.81 146.69 C 58.63 154.54 62.24 162.66 68.90 168.10 C 69.57 169.09 70.24 170.07 70.92 171.05 C 68.97 170.29 67.07 169.55 65.02 169.10 C 67.22 174.52 67.31 175.70 73.01 172.85 L 74.10 173.82 C 71.33 176.11 73.05 177.06 73.82 179.81 C 77.30 180.53 76.23 179.20 76.96 176.66 C 82.01 180.74 88.00 186.04 94.25 187.86 C 96.85 188.93 98.32 192.03 101.13 189.81 C 101.50 190.85 101.85 191.89 102.20 192.93 C 98.93 195.49 95.36 197.46 91.69 199.36 L 89.79 199.23 C 89.19 198.90 88.60 198.56 88.01 198.21 C 89.67 197.86 91.28 197.41 92.87 196.83 C 89.65 194.32 85.36 191.13 81.14 191.07 C 81.25 192.89 83.98 194.50 85.01 196.03 C 84.55 196.55 84.07 197.06 83.59 197.56 C 79.45 195.60 76.05 191.74 73.11 188.31 C 79.64 189.86 72.59 184.55 71.43 182.57 C 69.05 178.78 68.72 185.47 66.80 181.26 C 67.08 177.33 64.08 175.92 62.21 172.84 C 60.78 169.86 59.20 167.00 58.20 163.83 C 58.05 162.30 57.89 160.76 57.71 159.23 C 57.99 156.05 57.98 152.98 57.75 149.80 L 58.19 148.20 C 60.55 143.71 61.84 138.04 62.09 133.00 C 62.50 128.71 59.32 126.18 60.32 121.73 C 60.27 118.60 59.24 118.92 56.79 120.06 C 54.69 117.05 52.27 114.35 49.30 112.16 L 48.99 113.77 C 45.50 111.51 41.73 105.40 41.86 101.32 C 43.21 97.33 42.83 95.26 46.87 93.05 C 43.92 91.97 40.76 94.46 40.72 89.95 L 40.94 89.08 C 43.26 86.81 44.92 84.84 45.33 81.49 C 47.09 79.81 48.16 75.81 48.04 81.01 Z" fill="#eae5cc" />
<path d="M 145.64 79.77 C 146.07 83.67 145.70 90.09 149.98 92.02 C 153.89 94.04 158.18 95.42 162.26 97.11 C 160.84 102.01 156.55 99.43 152.92 99.15 C 149.95 97.92 145.28 99.94 143.03 97.99 L 144.36 97.28 C 146.70 96.62 144.69 95.61 144.22 94.23 C 148.57 92.50 143.33 91.08 141.73 89.70 C 141.89 88.28 139.55 83.93 142.48 86.26 C 145.62 87.20 144.91 81.65 145.64 79.77 Z" fill="#978a97" />
<path d="M 48.04 81.01 C 50.29 81.68 52.28 82.15 54.63 81.56 C 58.66 79.80 63.92 86.65 60.97 90.21 C 57.64 87.90 47.10 86.09 48.04 81.01 Z" fill="#959198" />
<path d="M 66.38 84.19 C 66.79 88.92 71.57 83.51 66.38 84.19 Z" fill="#9caddd" />
<path d="M 147.05 84.00 C 149.36 85.51 149.89 87.35 149.92 90.01 C 148.35 88.14 147.53 86.40 147.05 84.00 Z" fill="#7a6c6c" />
<path d="M 34.69 88.28 C 36.79 88.42 38.87 88.73 40.94 89.08 L 40.72 89.95 C 40.07 90.44 39.41 90.93 38.74 91.41 C 37.36 90.42 36.02 89.35 34.69 88.28 Z" fill="#503322" />
<path d="M 76.00 89.14 C 82.75 92.69 88.40 93.25 91.80 101.02 C 90.24 100.83 89.62 101.50 89.94 103.03 C 86.00 99.98 87.52 101.65 85.75 104.75 C 79.58 108.49 75.22 102.80 68.11 101.09 C 66.78 96.34 65.96 98.96 62.60 100.04 L 61.93 99.82 C 59.41 97.89 56.83 96.08 53.94 94.72 L 54.16 93.97 C 61.37 94.89 67.11 96.92 72.99 91.19 C 73.97 90.49 74.95 89.72 76.00 89.14 Z" fill="#d3b9b1" />
<path d="M 40.72 89.95 C 40.76 94.46 43.92 91.97 46.87 93.05 C 42.83 95.26 43.21 97.33 41.86 101.32 C 40.35 98.10 38.97 95.03 38.74 91.41 C 39.41 90.93 40.07 90.44 40.72 89.95 Z" fill="#d19078" />
<path d="M 141.73 89.70 C 142.46 91.28 143.28 92.77 144.22 94.23 C 144.69 95.61 146.70 96.62 144.36 97.28 C 143.27 95.36 137.69 91.10 141.73 89.70 Z" fill="#caced8" />
<path d="M 141.73 89.70 C 143.33 91.08 148.57 92.50 144.22 94.23 C 143.28 92.77 142.46 91.28 141.73 89.70 Z" fill="#312c3e" />
<path d="M 198.22 90.19 L 199.16 90.24 C 198.45 96.45 198.40 101.88 198.82 108.08 C 195.84 103.03 196.71 95.61 198.22 90.19 Z" fill="#97979c" />
<path d="M 54.16 93.97 L 53.94 94.72 C 52.87 97.64 53.00 98.03 54.81 100.49 C 50.27 100.69 49.25 94.76 54.16 93.97 Z" fill="#444142" />
<path d="M 53.94 94.72 C 56.83 96.08 59.41 97.89 61.93 99.82 C 59.54 99.89 57.18 100.10 54.81 100.49 C 53.00 98.03 52.87 97.64 53.94 94.72 Z" fill="#eae8d8" />
<path d="M 162.26 97.11 C 164.90 97.24 166.95 98.34 169.08 99.82 C 171.71 103.06 175.94 104.38 178.81 107.53 C 179.28 107.08 179.74 106.62 180.19 106.16 C 182.70 107.66 184.96 109.33 186.89 111.54 C 186.98 112.35 187.08 113.15 187.20 113.96 C 186.86 115.76 186.41 116.89 185.19 118.27 C 184.05 116.13 183.75 115.26 181.22 114.72 C 177.91 108.60 171.95 106.99 165.96 104.16 C 163.35 103.60 161.93 102.75 159.84 101.13 C 155.81 100.82 154.47 104.84 152.92 99.15 C 156.55 99.43 160.84 102.01 162.26 97.11 Z" fill="#c4bbbd" />
<path d="M 68.11 101.09 C 66.22 100.93 64.38 100.76 62.60 100.04 C 65.96 98.96 66.78 96.34 68.11 101.09 Z" fill="#af726b" />
<path d="M 54.81 100.49 C 57.18 100.10 59.54 99.89 61.93 99.82 L 62.60 100.04 C 64.38 100.76 66.22 100.93 68.11 101.09 C 75.22 102.80 79.58 108.49 85.75 104.75 C 87.52 101.65 86.00 99.98 89.94 103.03 L 90.13 103.77 C 85.95 106.54 84.30 111.15 79.65 113.13 C 74.85 107.71 72.91 103.08 64.63 102.70 C 61.01 102.01 57.82 102.53 54.81 100.49 Z" fill="#3a2e39" />
<path d="M 169.08 99.82 C 173.18 101.27 176.67 103.66 180.19 106.16 C 179.74 106.62 179.28 107.08 178.81 107.53 C 175.94 104.38 171.71 103.06 169.08 99.82 Z" fill="#968c92" />
<path d="M 91.80 101.02 C 92.52 102.51 91.90 103.19 89.94 103.03 C 89.62 101.50 90.24 100.83 91.80 101.02 Z" fill="#615e5c" />
<path d="M 79.65 113.13 L 79.87 113.64 C 77.14 114.89 80.44 117.75 77.08 119.33 C 74.52 128.29 86.51 129.20 83.21 137.04 C 83.25 139.07 81.65 146.36 84.95 146.08 C 89.43 147.77 90.99 146.39 94.70 144.18 C 98.00 147.48 102.41 147.62 104.28 151.78 C 105.18 153.37 107.51 154.08 109.02 155.01 C 104.29 155.47 102.01 154.43 97.94 152.56 C 92.82 152.57 89.60 150.11 84.95 148.76 C 83.14 147.42 81.61 145.80 80.02 144.21 C 77.74 147.18 77.82 150.29 78.02 153.85 C 76.19 152.30 76.68 152.50 74.73 153.92 C 71.31 150.61 72.32 139.23 66.03 140.83 C 68.34 134.35 72.20 128.76 73.68 121.90 C 72.69 118.90 72.97 115.85 72.19 112.86 C 71.71 110.11 68.08 110.15 66.40 108.56 C 65.58 106.72 65.13 104.65 64.63 102.70 C 72.91 103.08 74.85 107.71 79.65 113.13 Z" fill="#d98664" />
<path d="M 90.13 103.77 C 92.06 107.75 87.29 109.29 88.65 113.16 C 90.64 121.94 96.16 129.55 98.30 138.40 L 97.74 139.16 C 95.17 135.61 93.76 131.67 90.63 128.44 C 88.88 126.32 91.39 116.86 88.03 123.98 C 85.29 121.00 88.90 119.58 85.34 117.82 C 82.92 115.40 85.23 122.07 82.56 120.41 C 77.97 120.08 81.77 116.27 79.87 113.64 L 79.65 113.13 C 84.30 111.15 85.95 106.54 90.13 103.77 Z" fill="#e6c0ab" />
<path d="M 165.96 104.16 C 171.95 106.99 177.91 108.60 181.22 114.72 C 182.15 117.18 183.10 119.55 183.74 122.09 C 181.30 122.06 180.39 119.92 178.16 119.53 C 176.97 117.76 174.32 117.46 172.46 116.49 C 171.10 113.96 171.42 110.55 168.86 109.12 C 167.10 106.98 161.48 106.84 165.96 104.16 Z" fill="#e9d3c8" />
<path d="M 200.23 106.02 C 201.72 108.36 201.32 110.49 200.65 113.03 C 199.21 110.73 199.80 108.51 200.23 106.02 Z" fill="#6c7485" />
<path d="M 49.30 112.16 C 52.27 114.35 54.69 117.05 56.79 120.06 C 57.25 121.65 57.75 123.23 58.22 124.81 C 57.92 130.29 57.88 135.75 58.23 141.23 C 58.08 143.55 58.12 145.87 58.19 148.20 L 57.75 149.80 C 56.60 153.02 56.78 155.99 57.71 159.23 C 57.89 160.76 58.05 162.30 58.20 163.83 C 57.92 164.58 57.64 165.32 57.35 166.06 C 56.68 163.82 56.09 161.55 55.66 159.25 C 56.13 154.72 56.10 150.31 55.72 145.78 C 56.55 139.48 58.00 132.11 56.41 125.79 C 55.95 124.05 55.22 122.41 54.38 120.83 C 53.03 118.14 51.31 115.71 48.99 113.77 L 49.30 112.16 Z" fill="#382b31" />
<path d="M 186.89 111.54 C 193.01 115.35 194.86 124.51 198.31 130.68 C 204.18 142.93 200.04 159.33 193.91 170.74 C 190.05 176.82 185.30 181.49 180.04 186.33 C 179.69 185.63 179.36 184.94 179.03 184.24 C 185.65 178.90 189.91 171.83 193.33 164.15 C 195.33 161.82 193.09 159.44 192.08 163.05 C 190.63 165.93 188.81 168.20 186.07 169.94 C 189.30 158.78 196.43 151.65 195.07 138.94 C 195.28 137.00 195.41 135.38 194.06 133.80 C 193.58 131.16 192.74 128.64 191.84 126.12 C 191.38 121.32 191.32 117.24 187.20 113.96 C 187.08 113.15 186.98 112.35 186.89 111.54 Z" fill="#262438" />
<path d="M 79.87 113.64 C 81.77 116.27 77.97 120.08 82.56 120.41 C 85.23 122.07 82.92 115.40 85.34 117.82 C 88.90 119.58 85.29 121.00 88.03 123.98 C 88.44 132.47 81.74 137.42 84.95 146.08 C 81.65 146.36 83.25 139.07 83.21 137.04 C 86.51 129.20 74.52 128.29 77.08 119.33 C 80.44 117.75 77.14 114.89 79.87 113.64 Z" fill="#e39d83" />
<path d="M 187.20 113.96 C 191.32 117.24 191.38 121.32 191.84 126.12 C 190.47 125.83 189.10 125.52 187.74 125.20 C 186.76 122.93 185.83 120.66 185.19 118.27 C 186.41 116.89 186.86 115.76 187.20 113.96 Z" fill="#a79597" />
<path d="M 111.65 115.26 C 116.44 120.17 117.75 129.16 117.98 135.74 C 114.91 137.36 115.37 138.03 116.09 141.06 C 114.52 142.44 113.45 144.15 112.15 145.75 C 108.97 143.40 105.58 143.76 101.87 143.34 C 103.05 141.59 106.21 142.18 106.84 140.15 C 107.32 139.17 107.76 138.17 108.17 137.16 C 110.91 140.71 116.58 134.94 116.51 131.80 C 115.48 127.31 113.38 123.70 111.22 119.76 C 110.71 116.51 108.98 119.41 109.06 120.98 C 109.03 127.23 109.53 132.54 105.90 138.03 C 101.11 135.39 101.01 144.46 95.88 143.52 C 98.72 140.78 103.17 136.93 103.31 132.71 C 104.30 130.33 105.71 128.19 106.83 125.87 C 106.28 122.44 104.60 119.61 105.10 115.97 C 108.26 117.39 105.92 121.44 107.83 122.87 C 108.40 120.20 106.71 113.64 111.65 115.26 Z" fill="#e5dcc0" />
<path d="M 181.22 114.72 C 183.75 115.26 184.05 116.13 185.19 118.27 C 185.83 120.66 186.76 122.93 187.74 125.20 C 187.13 129.02 185.42 132.05 186.56 135.93 C 185.95 137.77 185.27 139.45 183.91 140.88 C 180.62 144.13 177.67 147.93 181.36 152.16 C 176.50 152.64 170.59 153.80 166.06 155.44 C 164.94 151.82 164.02 148.31 161.92 145.09 C 165.25 140.40 166.29 149.30 166.46 144.11 C 172.13 141.22 178.43 135.61 180.74 129.02 C 179.67 125.80 178.07 123.05 178.16 119.53 C 180.39 119.92 181.30 122.06 183.74 122.09 C 183.10 119.55 182.15 117.18 181.22 114.72 Z" fill="#eabea9" />
<path d="M 127.10 116.03 C 134.47 116.14 137.84 120.95 144.46 123.46 C 145.48 125.88 144.51 126.67 147.56 126.32 C 145.82 129.15 146.49 129.96 147.63 132.83 C 147.68 134.74 147.86 136.67 147.74 138.57 C 145.45 139.18 143.47 139.04 141.90 141.07 C 141.25 139.16 140.59 137.25 139.92 135.34 C 144.71 137.13 141.71 125.94 138.83 126.28 C 134.37 125.70 134.31 121.76 130.84 120.03 C 130.67 123.90 124.31 120.21 125.04 123.86 C 127.73 125.65 129.42 127.07 131.06 129.92 C 131.05 132.78 131.14 135.47 130.36 138.25 C 129.77 135.49 131.05 130.33 128.01 128.98 C 124.91 126.73 122.30 125.32 121.99 121.07 C 123.07 119.08 125.03 116.97 127.10 116.03 Z" fill="#ebd3b3" />
<path d="M 111.22 119.76 C 111.37 126.39 110.58 131.02 108.17 137.16 C 107.76 138.17 107.32 139.17 106.84 140.15 C 106.53 139.44 106.22 138.74 105.90 138.03 C 109.53 132.54 109.03 127.23 109.06 120.98 C 108.98 119.41 110.71 116.51 111.22 119.76 Z" fill="#7f7653" />
<path d="M 60.32 121.73 C 59.32 126.18 62.50 128.71 62.09 133.00 C 61.84 138.04 60.55 143.71 58.19 148.20 C 58.12 145.87 58.08 143.55 58.23 141.23 C 59.40 136.33 59.54 129.68 58.22 124.81 C 57.75 123.23 57.25 121.65 56.79 120.06 C 59.24 118.92 60.27 118.60 60.32 121.73 Z" fill="#c6987c" />
<path d="M 111.22 119.76 C 113.38 123.70 115.48 127.31 116.51 131.80 C 116.58 134.94 110.91 140.71 108.17 137.16 C 110.58 131.02 111.37 126.39 111.22 119.76 Z" fill="#d3c69f" />
<path d="M 130.84 120.03 C 134.31 121.76 134.37 125.70 138.83 126.28 C 141.71 125.94 144.71 137.13 139.92 135.34 C 138.95 134.50 137.09 128.28 135.78 131.08 L 134.77 132.08 C 134.02 130.82 132.27 125.58 131.81 130.00 L 131.06 129.92 C 129.42 127.07 127.73 125.65 125.04 123.86 C 124.31 120.21 130.67 123.90 130.84 120.03 Z" fill="#d49e73" />
<path d="M 54.38 120.83 C 55.22 122.41 55.95 124.05 56.41 125.79 C 53.25 129.43 53.50 133.17 52.56 137.56 C 51.01 139.17 49.29 140.59 47.77 142.24 C 44.47 138.10 47.46 134.79 46.18 129.94 C 45.90 127.68 45.74 124.18 49.01 125.98 C 52.99 127.92 53.22 123.39 54.38 120.83 Z" fill="#edd3c5" />
<path d="M 90.63 128.44 C 93.76 131.67 95.17 135.61 97.74 139.16 C 95.01 142.70 90.65 144.86 86.14 143.85 C 84.72 137.49 91.42 129.78 88.03 123.98 C 91.39 116.86 88.88 126.32 90.63 128.44 Z" fill="#da9e81" />
<path d="M 88.03 123.98 C 91.42 129.78 84.72 137.49 86.14 143.85 C 90.65 144.86 95.01 142.70 97.74 139.16 L 98.30 138.40 C 99.95 136.48 101.65 134.62 103.31 132.71 C 103.17 136.93 98.72 140.78 95.88 143.52 L 94.70 144.18 C 90.99 146.39 89.43 147.77 84.95 146.08 C 81.74 137.42 88.44 132.47 88.03 123.98 Z" fill="#4e2f30" />
<path d="M 58.22 124.81 C 59.54 129.68 59.40 136.33 58.23 141.23 C 57.88 135.75 57.92 130.29 58.22 124.81 Z" fill="#865843" />
<path d="M 187.74 125.20 C 189.10 125.52 190.47 125.83 191.84 126.12 C 192.74 128.64 193.58 131.16 194.06 133.80 C 192.32 140.05 192.30 147.15 190.40 153.48 C 189.74 153.78 189.07 154.06 188.39 154.33 C 186.00 153.72 183.66 153.06 181.36 152.16 C 177.67 147.93 180.62 144.13 183.91 140.88 C 182.56 143.44 183.45 143.95 185.17 145.82 C 188.85 144.85 192.47 136.32 186.56 135.93 C 185.42 132.05 187.13 129.02 187.74 125.20 Z" fill="#dca68f" />
<path d="M 56.41 125.79 C 58.00 132.11 56.55 139.48 55.72 145.78 C 55.42 146.92 55.11 148.06 54.81 149.21 C 51.53 148.74 49.68 144.65 47.77 142.24 C 49.29 140.59 51.01 139.17 52.56 137.56 C 53.50 133.17 53.25 129.43 56.41 125.79 Z" fill="#e1a994" />
<path d="M 134.77 132.08 C 135.24 134.04 135.72 135.99 135.92 138.01 C 133.33 136.36 132.81 132.73 131.81 130.00 C 132.27 125.58 134.02 130.82 134.77 132.08 Z" fill="#715645" />
<path d="M 131.06 129.92 L 131.81 130.00 C 132.81 132.73 133.33 136.36 135.92 138.01 C 135.72 135.99 135.24 134.04 134.77 132.08 L 135.78 131.08 C 137.43 134.93 139.34 138.52 140.22 142.67 C 137.19 141.68 135.67 145.12 133.99 146.99 C 131.83 150.67 128.10 152.13 129.85 156.92 C 126.73 157.60 123.43 157.55 120.26 157.82 C 117.48 156.97 114.68 156.38 111.78 156.14 L 110.91 155.97 C 110.28 155.64 109.65 155.32 109.02 155.01 C 107.51 154.08 105.18 153.37 104.28 151.78 C 102.41 147.62 98.00 147.48 94.70 144.18 L 95.88 143.52 C 101.01 144.46 101.11 135.39 105.90 138.03 C 106.22 138.74 106.53 139.44 106.84 140.15 C 106.21 142.18 103.05 141.59 101.87 143.34 C 105.58 143.76 108.97 143.40 112.15 145.75 C 113.45 144.15 114.52 142.44 116.09 141.06 C 115.50 147.30 112.37 148.15 109.02 151.93 C 112.80 152.33 116.70 149.65 120.12 148.23 C 121.52 148.09 118.35 145.71 119.85 145.73 C 124.73 144.48 129.14 144.05 130.36 138.25 C 131.14 135.47 131.05 132.78 131.06 129.92 Z" fill="#cabea6" />
<path d="M 139.92 135.34 C 140.59 137.25 141.25 139.16 141.90 141.07 C 142.66 144.04 143.08 146.84 142.84 149.92 C 141.21 154.91 137.38 156.60 133.67 159.75 C 128.00 161.76 124.28 164.17 118.17 161.59 C 114.49 159.83 110.41 161.49 110.91 155.97 L 111.78 156.14 C 114.92 159.95 115.89 159.10 120.26 157.82 C 123.43 157.55 126.73 157.60 129.85 156.92 C 131.72 156.28 133.22 155.16 134.80 154.01 C 138.15 155.86 140.35 153.43 139.39 150.05 C 140.07 147.47 141.17 145.35 140.22 142.67 C 139.34 138.52 137.43 134.93 135.78 131.08 C 137.09 128.28 138.95 134.50 139.92 135.34 Z" fill="#3d282e" />
<path d="M 147.63 132.83 C 148.59 134.23 149.78 135.16 149.79 136.99 C 148.74 141.64 143.28 142.31 143.98 146.98 C 143.58 147.98 144.78 152.43 142.84 149.92 C 143.08 146.84 142.66 144.04 141.90 141.07 C 143.47 139.04 145.45 139.18 147.74 138.57 C 147.86 136.67 147.68 134.74 147.63 132.83 Z" fill="#ce8b6c" />
<path d="M 194.06 133.80 C 193.51 135.75 193.43 137.50 195.07 138.94 C 196.43 151.65 189.30 158.78 186.07 169.94 C 188.81 168.20 190.63 165.93 192.08 163.05 L 193.33 164.15 C 189.91 171.83 185.65 178.90 179.03 184.24 C 178.05 184.92 177.06 185.57 176.05 186.20 L 174.15 186.07 C 176.31 181.01 181.23 179.50 180.91 173.98 C 181.45 170.33 181.13 166.78 181.10 163.12 C 183.25 160.02 186.39 157.65 188.39 154.33 C 189.07 154.06 189.74 153.78 190.40 153.48 C 192.30 147.15 192.32 140.05 194.06 133.80 Z" fill="#e1c7b7" />
<path d="M 194.06 133.80 C 195.41 135.38 195.28 137.00 195.07 138.94 C 193.43 137.50 193.51 135.75 194.06 133.80 Z" fill="#807174" />
<path d="M 117.98 135.74 C 117.91 138.12 118.15 139.52 116.09 141.06 C 115.37 138.03 114.91 137.36 117.98 135.74 Z" fill="#d7ccaa" />
<path d="M 186.56 135.93 C 192.47 136.32 188.85 144.85 185.17 145.82 C 183.45 143.95 182.56 143.44 183.91 140.88 C 185.27 139.45 185.95 137.77 186.56 135.93 Z" fill="#ae8987" />
<path d="M 149.79 136.99 L 149.91 137.97 C 150.16 139.59 149.91 141.40 151.06 142.69 C 152.49 142.37 154.22 141.12 155.66 141.39 C 158.29 144.93 162.04 148.17 163.97 152.10 C 163.43 159.20 159.68 165.36 152.99 167.99 C 147.42 169.88 142.68 167.88 137.08 167.93 C 134.86 165.04 132.00 163.89 133.67 159.75 C 137.38 156.60 141.21 154.91 142.84 149.92 C 144.78 152.43 143.58 147.98 143.98 146.98 C 143.28 142.31 148.74 141.64 149.79 136.99 Z" fill="#d76138" />
<path d="M 149.91 137.97 C 155.75 139.27 158.24 140.25 161.92 145.09 C 164.02 148.31 164.94 151.82 166.06 155.44 C 170.59 153.80 176.50 152.64 181.36 152.16 C 183.66 153.06 186.00 153.72 188.39 154.33 C 186.39 157.65 183.25 160.02 181.10 163.12 C 181.13 166.78 181.45 170.33 180.91 173.98 C 181.23 179.50 176.31 181.01 174.15 186.07 C 173.16 186.84 172.17 187.62 171.17 188.39 C 169.46 186.36 169.47 183.76 166.24 184.51 C 158.02 188.07 152.06 194.13 145.18 199.45 C 137.61 199.57 137.81 187.98 137.78 182.77 C 141.04 177.72 139.90 172.36 147.90 174.10 C 153.65 175.13 149.26 178.93 147.02 181.06 C 145.16 182.06 142.87 180.85 141.23 182.07 C 141.91 185.98 143.50 187.47 146.90 189.25 C 148.94 190.76 152.24 189.53 153.89 187.95 C 156.94 184.18 160.44 181.66 157.48 176.51 C 152.90 172.83 144.92 165.74 140.20 173.04 C 136.70 172.40 137.68 170.81 137.08 167.93 C 142.68 167.88 147.42 169.88 152.99 167.99 C 159.68 165.36 163.43 159.20 163.97 152.10 C 162.04 148.17 158.29 144.93 155.66 141.39 C 154.22 141.12 152.49 142.37 151.06 142.69 C 149.91 141.40 150.16 139.59 149.91 137.97 Z" fill="#da805d" />
<path d="M 74.73 153.92 C 76.68 152.50 76.19 152.30 78.02 153.85 C 80.65 157.90 80.26 162.23 85.99 163.00 C 91.29 163.39 94.89 168.62 99.95 167.88 C 99.50 163.47 92.94 161.32 89.81 159.17 C 87.67 156.78 83.67 152.16 84.95 148.76 C 89.60 150.11 92.82 152.57 97.94 152.56 C 102.01 154.43 104.29 155.47 109.02 155.01 C 109.65 155.32 110.28 155.64 110.91 155.97 C 110.41 161.49 114.49 159.83 118.17 161.59 C 110.93 161.85 120.27 166.18 115.30 168.26 C 108.86 170.80 119.47 181.02 109.80 180.35 C 107.88 174.55 97.74 174.47 94.18 178.18 C 90.08 181.56 93.12 183.97 94.25 187.86 C 88.00 186.04 82.01 180.74 76.96 176.66 C 76.04 175.68 75.10 174.72 74.10 173.82 L 73.01 172.85 C 72.32 172.25 71.62 171.65 70.92 171.05 C 70.24 170.07 69.57 169.09 68.90 168.10 C 71.50 163.27 65.48 161.97 65.02 156.99 C 64.16 152.76 67.27 149.57 63.81 146.69 C 64.63 144.76 65.37 142.82 66.03 140.83 C 72.32 139.23 71.31 150.61 74.73 153.92 Z" fill="#d45d35" />
<path d="M 140.22 142.67 C 141.17 145.35 140.07 147.47 139.39 150.05 C 137.79 151.30 136.25 152.60 134.80 154.01 C 133.22 155.16 131.72 156.28 129.85 156.92 C 128.10 152.13 131.83 150.67 133.99 146.99 C 135.67 145.12 137.19 141.68 140.22 142.67 Z" fill="#c99e80" />
<path d="M 80.02 144.21 C 81.61 145.80 83.14 147.42 84.95 148.76 C 83.67 152.16 87.67 156.78 89.81 159.17 C 92.94 161.32 99.50 163.47 99.95 167.88 C 94.89 168.62 91.29 163.39 85.99 163.00 C 80.26 162.23 80.65 157.90 78.02 153.85 C 77.82 150.29 77.74 147.18 80.02 144.21 Z" fill="#9e5c58" />
<path d="M 55.72 145.78 C 56.10 150.31 56.13 154.72 55.66 159.25 C 54.86 155.89 54.93 152.63 54.81 149.21 C 55.11 148.06 55.42 146.92 55.72 145.78 Z" fill="#7d7577" />
<path d="M 63.81 146.69 C 67.27 149.57 64.16 152.76 65.02 156.99 C 65.48 161.97 71.50 163.27 68.90 168.10 C 62.24 162.66 58.63 154.54 63.81 146.69 Z" fill="#cf744f" />
<path d="M 57.75 149.80 C 57.98 152.98 57.99 156.05 57.71 159.23 C 56.78 155.99 56.60 153.02 57.75 149.80 Z" fill="#828198" />
<path d="M 139.39 150.05 C 140.35 153.43 138.15 155.86 134.80 154.01 C 136.25 152.60 137.79 151.30 139.39 150.05 Z" fill="#94695c" />
<path d="M 111.78 156.14 C 114.68 156.38 117.48 156.97 120.26 157.82 C 115.89 159.10 114.92 159.95 111.78 156.14 Z" fill="#8d6458" />
<path d="M 133.67 159.75 C 132.00 163.89 134.86 165.04 137.08 167.93 C 137.68 170.81 136.70 172.40 140.20 173.04 C 135.33 177.20 133.70 182.56 130.76 187.96 C 125.57 187.46 120.50 186.59 115.37 185.64 C 113.88 185.22 113.21 186.41 112.04 187.11 C 111.18 184.89 110.42 182.65 109.80 180.35 C 119.47 181.02 108.86 170.80 115.30 168.26 C 120.27 166.18 110.93 161.85 118.17 161.59 C 124.28 164.17 128.00 161.76 133.67 159.75 Z" fill="#e18d6b" />
<path d="M 193.33 164.15 L 192.08 163.05 C 193.09 159.44 195.33 161.82 193.33 164.15 Z" fill="#75747d" />
<path d="M 58.20 163.83 C 59.20 167.00 60.78 169.86 62.21 172.84 L 61.13 174.08 C 59.70 171.53 58.19 168.87 57.35 166.06 C 57.64 165.32 57.92 164.58 58.20 163.83 Z" fill="#717174" />
<path d="M 65.02 169.10 C 67.07 169.55 68.97 170.29 70.92 171.05 C 71.62 171.65 72.32 172.25 73.01 172.85 C 67.31 175.70 67.22 174.52 65.02 169.10 Z" fill="#d5ae8f" />
<path d="M 157.48 176.51 C 160.44 181.66 156.94 184.18 153.89 187.95 C 150.53 187.27 149.73 187.25 146.90 189.25 C 143.50 187.47 141.91 185.98 141.23 182.07 C 142.87 180.85 145.16 182.06 147.02 181.06 C 149.26 178.93 153.65 175.13 147.90 174.10 C 139.90 172.36 141.04 177.72 137.78 182.77 C 133.32 187.22 132.18 195.79 138.04 199.88 C 132.86 200.40 141.72 205.91 138.04 199.88 C 140.50 200.01 142.79 200.20 145.18 199.45 C 152.06 194.13 158.02 188.07 166.24 184.51 C 169.47 183.76 169.46 186.36 171.17 188.39 C 170.64 192.05 169.81 195.61 168.08 198.91 C 166.08 199.82 163.10 200.80 162.14 202.95 C 158.14 209.83 156.46 220.60 149.05 224.16 C 149.10 223.20 149.16 222.23 149.22 221.27 C 157.58 213.63 157.63 202.59 165.19 194.22 C 167.83 188.30 159.64 194.93 158.97 196.74 C 156.97 199.18 155.18 201.75 152.98 204.03 C 151.40 205.60 150.04 207.25 148.02 208.28 C 147.04 208.22 146.06 208.16 145.08 208.11 L 143.34 207.98 L 142.28 207.71 C 139.23 206.85 136.50 206.30 134.11 204.04 C 133.43 202.59 132.78 201.13 132.09 199.68 C 130.78 196.00 130.66 191.84 130.76 187.96 C 133.70 182.56 135.33 177.20 140.20 173.04 C 144.92 165.74 152.90 172.83 157.48 176.51 Z" fill="#372936" />
<path d="M 196.05 174.55 C 195.18 180.00 190.10 178.78 189.06 184.10 C 188.32 187.25 185.45 184.84 184.71 186.74 C 184.33 189.40 177.25 196.40 181.84 197.44 L 183.23 198.26 C 180.03 199.48 176.79 199.58 173.44 199.89 C 170.36 202.12 167.58 204.44 166.05 208.03 C 166.05 206.73 166.03 205.44 166.01 204.14 C 166.73 202.41 167.43 200.67 168.08 198.91 C 169.81 195.61 170.64 192.05 171.17 188.39 C 172.17 187.62 173.16 186.84 174.15 186.07 L 176.05 186.20 C 173.46 192.79 177.41 188.11 180.04 186.33 C 185.30 181.49 190.05 176.82 193.91 170.74 C 198.16 169.86 198.87 171.39 196.05 174.55 Z" fill="#e8e2d0" />
<path d="M 62.21 172.84 C 64.08 175.92 67.08 177.33 66.80 181.26 C 64.56 179.12 62.59 176.83 61.13 174.08 L 62.21 172.84 Z" fill="#b3b2b1" />
<path d="M 74.10 173.82 C 75.10 174.72 76.04 175.68 76.96 176.66 C 76.23 179.20 77.30 180.53 73.82 179.81 C 73.05 177.06 71.33 176.11 74.10 173.82 Z" fill="#dcb59c" />
<path d="M 109.80 180.35 C 110.42 182.65 111.18 184.89 112.04 187.11 C 111.39 188.69 110.67 190.23 109.97 191.78 C 109.05 192.24 108.12 192.69 107.19 193.15 L 107.07 192.19 C 107.36 191.51 107.65 190.83 107.94 190.15 C 110.14 185.60 107.85 175.20 100.82 177.68 C 98.27 177.85 90.54 183.45 96.33 184.72 C 100.56 186.29 99.33 182.27 101.85 181.19 C 103.66 183.68 104.76 185.24 102.77 188.11 C 102.22 188.68 101.67 189.24 101.13 189.81 C 98.32 192.03 96.85 188.93 94.25 187.86 C 93.12 183.97 90.08 181.56 94.18 178.18 C 97.74 174.47 107.88 174.55 109.80 180.35 Z" fill="#68566d" />
<path d="M 152.25 176.26 C 150.21 182.44 157.49 175.55 152.25 176.26 Z" fill="#957575" />
<path d="M 107.94 190.15 C 105.73 189.92 104.27 189.94 102.77 188.11 C 104.76 185.24 103.66 183.68 101.85 181.19 C 99.33 182.27 100.56 186.29 96.33 184.72 C 90.54 183.45 98.27 177.85 100.82 177.68 C 107.85 175.20 110.14 185.60 107.94 190.15 Z" fill="#c8694a" />
<path d="M 202.99 184.99 C 202.72 190.10 205.43 193.56 206.63 198.40 C 202.96 195.25 203.10 191.20 200.92 187.17 C 200.21 187.61 199.52 188.07 198.84 188.54 C 193.34 190.12 189.98 197.00 183.23 198.26 L 181.84 197.44 C 190.94 195.06 190.21 188.32 194.64 181.66 C 197.60 177.31 204.13 179.25 202.99 184.99 Z" fill="#d7977b" />
<path d="M 41.32 179.94 C 41.45 181.37 41.56 182.80 41.81 184.22 C 39.09 187.76 39.28 187.35 35.79 184.81 C 37.44 182.78 38.70 180.79 41.32 179.94 Z" fill="#8895b0" />
<path d="M 45.03 180.04 C 48.56 180.72 51.41 183.25 54.89 184.40 C 56.74 185.51 58.35 185.82 60.01 184.18 C 60.56 183.76 61.11 183.35 61.65 182.92 C 62.48 183.89 63.56 184.31 64.91 184.17 C 66.67 189.40 55.78 186.38 53.19 185.81 C 51.09 185.09 49.01 184.29 46.96 183.45 C 45.97 182.37 45.21 181.56 45.03 180.04 Z" fill="#2a2b43" />
<path d="M 64.91 184.17 C 63.56 184.31 62.48 183.89 61.65 182.92 C 63.07 181.31 65.10 181.94 64.91 184.17 Z" fill="#989da5" />
<path d="M 46.96 183.45 C 49.01 184.29 51.09 185.09 53.19 185.81 C 50.07 186.02 45.21 185.39 42.82 187.78 C 41.20 190.56 40.20 193.82 39.78 197.01 C 32.48 199.81 38.39 190.07 32.15 191.10 C 32.23 192.79 32.48 194.44 32.71 196.12 L 30.94 195.97 C 30.17 190.73 32.73 188.45 35.79 184.81 C 39.28 187.35 39.09 187.76 41.81 184.22 C 43.52 183.44 45.13 183.38 46.96 183.45 Z" fill="#586693" />
<path d="M 137.78 182.77 C 137.81 187.98 137.61 199.57 145.18 199.45 C 142.79 200.20 140.50 200.01 138.04 199.88 C 132.18 195.79 133.32 187.22 137.78 182.77 Z" fill="#915c51" />
<path d="M 54.89 184.40 C 56.81 183.71 58.03 183.66 60.01 184.18 C 58.35 185.82 56.74 185.51 54.89 184.40 Z" fill="#a0a0b3" />
<path d="M 179.03 184.24 C 179.36 184.94 179.69 185.63 180.04 186.33 C 177.41 188.11 173.46 192.79 176.05 186.20 C 177.06 185.57 178.05 184.92 179.03 184.24 Z" fill="#595753" />
<path d="M 115.37 185.64 C 120.50 186.59 125.57 187.46 130.76 187.96 C 130.66 191.84 130.78 196.00 132.09 199.68 C 126.81 199.49 120.88 198.36 115.77 197.28 C 114.61 192.90 114.14 193.06 109.97 191.78 C 110.67 190.23 111.39 188.69 112.04 187.11 C 113.21 186.41 113.88 185.22 115.37 185.64 Z" fill="#d57a54" />
<path d="M 153.89 187.95 C 152.24 189.53 148.94 190.76 146.90 189.25 C 149.73 187.25 150.53 187.27 153.89 187.95 Z" fill="#8f5b54" />
<path d="M 200.92 187.17 C 203.10 191.20 202.96 195.25 206.63 198.40 C 207.65 199.99 208.70 203.39 210.85 203.56 C 211.97 203.45 212.96 201.36 213.86 200.62 C 215.14 202.14 219.08 206.95 216.73 208.70 C 213.06 211.79 214.50 213.71 215.05 217.83 C 211.93 217.46 208.96 217.55 206.77 220.14 C 197.92 210.73 199.00 200.50 198.84 188.54 C 199.52 188.07 200.21 187.61 200.92 187.17 Z" fill="#505e93" />
<path d="M 102.77 188.11 C 104.27 189.94 105.73 189.92 107.94 190.15 C 107.65 190.83 107.36 191.51 107.07 192.19 C 105.44 192.44 103.82 192.70 102.20 192.93 C 101.85 191.89 101.50 190.85 101.13 189.81 C 101.67 189.24 102.22 188.68 102.77 188.11 Z" fill="#b3958c" />
<path d="M 32.15 191.10 C 38.39 190.07 32.48 199.81 39.78 197.01 L 39.72 198.88 C 38.17 200.99 38.66 202.11 41.07 202.92 L 42.33 204.26 L 41.75 205.00 C 37.89 203.33 33.44 200.64 32.71 196.12 C 32.48 194.44 32.23 192.79 32.15 191.10 Z" fill="#aeb8d0" />
<path d="M 81.14 191.07 C 85.36 191.13 89.65 194.32 92.87 196.83 C 91.28 197.41 89.67 197.86 88.01 198.21 C 86.96 197.56 85.98 196.81 85.01 196.03 C 83.98 194.50 81.25 192.89 81.14 191.07 Z" fill="#d1c7b2" />
<path d="M 107.07 192.19 L 107.19 193.15 C 103.91 195.20 100.85 197.33 97.08 198.42 C 95.25 198.93 93.64 199.66 91.69 199.36 C 95.36 197.46 98.93 195.49 102.20 192.93 C 103.82 192.70 105.44 192.44 107.07 192.19 Z" fill="#3e4356" />
<path d="M 109.97 191.78 C 114.14 193.06 114.61 192.90 115.77 197.28 C 120.88 198.36 126.81 199.49 132.09 199.68 C 132.78 201.13 133.43 202.59 134.11 204.04 C 126.96 207.08 135.06 206.37 136.96 209.83 C 133.27 210.09 129.61 209.87 125.93 210.23 C 126.83 211.09 127.83 211.75 128.92 212.33 C 125.16 215.20 125.64 211.31 123.29 209.13 C 121.77 206.92 119.52 206.15 117.08 205.40 C 114.72 204.67 112.47 203.67 110.17 202.77 C 103.93 200.64 101.77 204.90 97.08 198.42 C 100.85 197.33 103.91 195.20 107.19 193.15 C 108.12 192.69 109.05 192.24 109.97 191.78 Z" fill="#e9e3c7" />
<path d="M 165.19 194.22 C 157.63 202.59 157.58 213.63 149.22 221.27 C 146.73 223.57 145.79 222.65 142.88 221.83 C 143.33 220.59 143.79 219.35 144.21 218.11 C 145.68 213.98 148.19 213.26 148.02 208.28 C 150.04 207.25 151.40 205.60 152.98 204.03 C 156.43 203.14 160.68 201.02 158.97 196.74 C 159.64 194.93 167.83 188.30 165.19 194.22 Z" fill="#d68262" />
<path d="M 30.94 195.97 L 32.71 196.12 C 33.44 200.64 37.89 203.33 41.75 205.00 C 41.08 205.73 40.11 206.19 38.84 206.40 L 36.95 205.85 C 33.31 202.93 30.21 201.35 30.94 195.97 Z" fill="#393b53" />
<path d="M 158.97 196.74 C 160.68 201.02 156.43 203.14 152.98 204.03 C 155.18 201.75 156.97 199.18 158.97 196.74 Z" fill="#975849" />
<path d="M 97.08 198.42 C 101.77 204.90 103.93 200.64 110.17 202.77 C 107.61 202.96 104.26 202.58 102.07 204.09 C 102.92 205.22 103.84 206.24 104.78 207.30 C 98.95 206.63 94.72 200.19 89.17 201.65 C 89.35 200.84 89.56 200.03 89.79 199.23 L 91.69 199.36 C 93.64 199.66 95.25 198.93 97.08 198.42 Z" fill="#c9ac99" />
<path d="M 39.72 198.88 C 40.41 200.19 40.91 201.44 41.07 202.92 C 38.66 202.11 38.17 200.99 39.72 198.88 Z" fill="#56617c" />
<path d="M 168.08 198.91 C 167.43 200.67 166.73 202.41 166.01 204.14 C 164.72 203.74 163.43 203.33 162.14 202.95 C 163.10 200.80 166.08 199.82 168.08 198.91 Z" fill="#99545c" />
<path d="M 138.04 199.88 C 132.86 200.40 141.72 205.91 138.04 199.88 Z" fill="#817a7a" />
<path d="M 213.86 200.62 C 212.96 201.36 211.97 203.45 210.85 203.56 C 210.72 201.57 211.44 198.46 213.86 200.62 Z" fill="#b69ca8" />
<path d="M 83.74 204.18 C 88.83 201.28 85.48 206.03 84.55 208.35 C 83.41 208.10 80.73 205.08 80.63 207.62 C 79.29 210.00 82.70 210.01 84.08 209.13 C 84.17 211.62 83.23 216.42 84.88 218.29 C 88.68 220.64 91.08 219.54 94.97 218.33 C 94.46 220.64 91.69 222.04 95.60 222.45 C 98.07 224.75 102.40 216.64 97.82 218.68 C 93.77 219.72 98.57 215.51 100.28 216.45 C 105.52 220.72 95.68 225.60 92.98 228.37 L 92.36 228.04 C 92.97 227.13 93.56 226.22 93.98 225.20 C 87.60 224.81 82.62 225.77 76.70 222.68 C 76.04 221.89 75.42 221.07 74.81 220.24 C 74.80 217.37 74.21 214.61 73.67 211.80 C 75.24 208.25 79.14 201.41 83.74 204.18 Z" fill="#536394" />
<path d="M 110.17 202.77 C 112.47 203.67 114.72 204.67 117.08 205.40 C 113.07 207.77 109.24 206.79 104.78 207.30 C 103.84 206.24 102.92 205.22 102.07 204.09 C 104.26 202.58 107.61 202.96 110.17 202.77 Z" fill="#bf7752" />
<path d="M 162.14 202.95 C 163.43 203.33 164.72 203.74 166.01 204.14 C 166.03 205.44 166.05 206.73 166.05 208.03 C 165.09 210.00 164.13 211.93 162.95 213.77 C 159.07 211.34 157.30 219.39 157.85 221.94 C 155.78 227.56 151.40 224.77 148.21 229.23 C 144.94 231.29 144.67 229.92 141.78 228.22 C 141.16 227.82 140.52 227.43 139.89 227.04 C 143.07 226.23 146.13 225.72 149.05 224.16 C 156.46 220.60 158.14 209.83 162.14 202.95 Z" fill="#d3806a" />
<path d="M 42.33 204.26 L 43.77 203.80 C 45.51 204.42 47.26 205.01 48.98 205.68 C 45.74 205.91 42.00 207.32 38.84 206.40 C 40.11 206.19 41.08 205.73 41.75 205.00 L 42.33 204.26 Z" fill="#7d859c" />
<path d="M 134.11 204.04 C 136.50 206.30 139.23 206.85 142.28 207.71 C 139.77 208.37 138.24 207.76 138.02 210.90 C 140.30 210.47 142.28 210.39 143.34 207.98 L 145.08 208.11 C 144.54 209.69 143.97 211.26 143.33 212.81 C 138.72 213.41 132.80 209.90 128.92 212.33 C 127.83 211.75 126.83 211.09 125.93 210.23 C 129.61 209.87 133.27 210.09 136.96 209.83 C 135.06 206.37 126.96 207.08 134.11 204.04 Z" fill="#c89781" />
<path d="M 117.08 205.40 C 119.52 206.15 121.77 206.92 123.29 209.13 C 117.75 209.37 109.44 210.59 104.78 207.30 C 109.24 206.79 113.07 207.77 117.08 205.40 Z" fill="#d2c2ac" />
<path d="M 84.55 208.35 L 84.08 209.13 C 82.70 210.01 79.29 210.00 80.63 207.62 C 80.73 205.08 83.41 208.10 84.55 208.35 Z" fill="#9eaccf" />
<path d="M 142.28 207.71 L 143.34 207.98 C 142.28 210.39 140.30 210.47 138.02 210.90 C 138.24 207.76 139.77 208.37 142.28 207.71 Z" fill="#f3d4bd" />
<path d="M 145.08 208.11 C 146.06 208.16 147.04 208.22 148.02 208.28 C 148.19 213.26 145.68 213.98 144.21 218.11 C 144.04 216.31 143.76 214.56 143.33 212.81 C 143.97 211.26 144.54 209.69 145.08 208.11 Z" fill="#f1c3a7" />
<path d="M 99.06 210.91 C 101.51 211.95 100.23 214.42 100.28 216.45 C 98.57 215.51 93.77 219.72 97.82 218.68 C 102.40 216.64 98.07 224.75 95.60 222.45 C 91.69 222.04 94.46 220.64 94.97 218.33 C 91.08 219.54 88.68 220.64 84.88 218.29 C 91.40 218.66 94.45 214.52 99.06 210.91 Z" fill="#a6b0c5" />
<path d="M 73.67 211.80 C 74.21 214.61 74.80 217.37 74.81 220.24 C 72.30 217.87 72.62 214.82 73.67 211.80 Z" fill="#a3b0c6" />
<path d="M 162.95 213.77 C 161.17 216.46 159.47 219.15 157.85 221.94 C 157.30 219.39 159.07 211.34 162.95 213.77 Z" fill="#edbca4" />
<path d="M 215.05 217.83 C 217.41 218.78 219.87 219.22 222.32 219.87 C 218.61 226.88 216.18 224.43 209.95 222.70 C 208.84 221.90 207.75 221.09 206.77 220.14 C 208.96 217.55 211.93 217.46 215.05 217.83 Z" fill="#262c49" />
<path d="M 119.00 220.81 C 117.04 221.34 115.83 221.31 113.90 220.64 C 115.80 219.41 117.23 219.25 119.00 220.81 Z" fill="#9fa0b1" />
<path d="M 113.90 220.64 C 115.83 221.31 117.04 221.34 119.00 220.81 C 119.63 221.20 120.25 221.60 120.87 222.00 C 121.11 225.72 121.97 224.61 125.01 225.25 C 127.33 225.77 129.66 226.37 132.02 226.68 C 134.34 225.51 136.02 223.69 138.65 223.02 C 140.78 225.80 145.83 223.16 149.05 224.16 C 146.13 225.72 143.07 226.23 139.89 227.04 C 136.16 227.63 133.76 230.80 130.90 233.06 C 129.19 232.74 127.76 232.74 126.06 233.04 C 123.77 232.22 121.43 231.58 119.06 231.06 C 117.35 230.54 116.27 230.58 114.92 231.83 C 112.27 232.45 109.87 233.25 107.10 232.80 C 107.26 231.18 107.10 229.63 106.78 228.04 C 108.64 224.40 109.69 221.95 113.90 220.64 Z" fill="#25263e" />
<path d="M 128.05 221.17 C 129.76 221.75 134.64 221.25 133.87 223.96 C 132.17 223.67 127.71 223.67 128.05 221.17 Z" fill="#ccaca5" />
<path d="M 149.22 221.27 C 149.16 222.23 149.10 223.20 149.05 224.16 C 145.83 223.16 140.78 225.80 138.65 223.02 C 140.04 222.56 141.45 222.17 142.88 221.83 C 145.79 222.65 146.73 223.57 149.22 221.27 Z" fill="#886b6a" />
<path d="M 93.98 225.20 C 93.56 226.22 92.97 227.13 92.36 228.04 C 90.17 227.73 88.25 227.80 86.09 228.20 C 82.93 226.62 78.66 225.76 76.70 222.68 C 82.62 225.77 87.60 224.81 93.98 225.20 Z" fill="#252a56" />
<path d="M 120.87 222.00 C 123.33 222.40 127.01 221.46 125.01 225.25 C 121.97 224.61 121.11 225.72 120.87 222.00 Z" fill="#566181" />
<path d="M 86.09 228.20 C 88.25 227.80 90.17 227.73 92.36 228.04 L 92.98 228.37 C 90.79 229.80 88.25 229.55 86.09 228.20 Z" fill="#9ba3bc" />
<path d="M 106.78 228.04 C 107.10 229.63 107.26 231.18 107.10 232.80 C 104.79 232.59 105.76 229.24 106.78 228.04 Z" fill="#9ba1ae" />
<path d="M 141.78 228.22 C 144.67 229.92 144.94 231.29 148.21 229.23 C 147.30 230.75 145.52 236.88 143.21 233.82 C 141.76 232.60 142.13 229.97 141.78 228.22 Z" fill="#e9c1b3" />
<path d="M 119.06 231.06 C 117.86 232.54 116.58 232.33 114.92 231.83 C 116.27 230.58 117.35 230.54 119.06 231.06 Z" fill="#7a7b8e" />
<path d="M 126.06 233.04 C 127.76 232.74 129.19 232.74 130.90 233.06 C 129.29 234.85 127.68 234.75 126.06 233.04 Z" fill="#a5a4b1" />
</svg>