<?xml version="1.0" encoding="UTF-8" standalone="no"?>
<!DOCTYPE svg PUBLIC "-//W3C//DTD SVG 1.1//EN" "http://www.w3.org/Graphics/SVG/1.1/DTD/svg11.dtd">
<svg xmlns="http://www.w3.org/2000/svg" version="1.1" viewBox="0 0 256 256" width="256.0pt" height="256.0pt">
<path d="M 0.00 0.00 L 256.00 0.00 L 256.00 256.00 L 0.00 256.00 L 0.00 0.00 Z" fill="#fefefd" />
<path d="M 109.85 17.13 C 118.87 25.25 124.73 13.88 135.03 15.93 C 144.75 15.52 142.84 23.45 149.36 27.63 C 162.39 27.87 175.03 30.30 186.98 35.63 C 197.68 31.63 207.77 28.95 219.02 32.95 C 228.49 34.48 235.69 44.83 236.77 53.88 C 233.51 60.25 233.87 62.72 234.58 69.64 C 230.32 79.05 227.45 90.11 232.10 99.95 C 234.21 105.51 242.19 116.97 237.17 122.16 C 227.33 129.05 222.32 138.88 224.81 151.00 C 227.41 161.83 224.94 175.56 231.28 184.72 C 238.02 192.51 242.75 206.13 236.15 215.17 C 226.60 223.96 223.94 233.24 212.64 237.58 C 203.08 238.80 195.22 238.88 187.33 232.68 C 177.76 227.15 166.36 236.67 155.00 236.01 C 142.02 239.04 129.91 234.11 117.00 236.90 C 102.39 236.71 88.60 237.51 74.20 233.68 C 58.35 232.11 44.62 228.88 31.54 219.49 C 21.67 212.59 17.07 201.23 18.49 189.39 C 15.28 177.27 18.04 166.11 17.99 153.99 C 19.58 143.46 16.87 134.53 19.95 124.02 C 22.93 112.63 16.52 103.29 22.23 93.31 C 26.09 81.95 14.77 72.13 20.24 59.27 C 25.88 49.70 40.47 50.07 48.99 46.00 C 60.59 40.26 61.66 29.91 68.74 20.75 C 75.41 17.27 76.52 25.10 80.08 27.99 C 89.93 26.81 101.35 7.45 109.85 17.13 Z" fill="#ebeae8" />
<path d="M 103.88 20.00 C 104.71 24.35 102.91 27.48 100.94 31.13 C 95.37 35.82 91.81 29.60 95.86 24.83 C 98.49 23.11 100.78 20.52 103.88 20.00 Z" fill="#3d4155" />
<path d="M 141.08 32.01 C 138.62 26.72 137.81 39.49 134.56 40.55 C 128.09 44.72 118.81 52.30 111.13 52.50 C 107.12 48.46 115.08 44.65 117.61 42.63 C 120.24 38.12 124.20 36.26 128.16 33.20 C 132.43 31.13 135.31 28.53 136.93 23.97 C 136.46 20.58 129.96 22.55 127.69 22.62 C 137.73 15.49 138.36 24.64 141.08 32.01 Z" fill="#b3b5b9" />
<path d="M 136.93 23.97 C 135.31 28.53 132.43 31.13 128.16 33.20 C 123.32 33.42 118.60 33.54 113.84 34.55 C 114.35 30.35 115.69 31.58 119.00 31.58 C 117.92 29.95 116.53 28.92 114.88 27.92 C 118.40 25.13 123.52 24.42 127.69 22.62 C 129.96 22.55 136.46 20.58 136.93 23.97 Z" fill="#393d50" />
<path d="M 95.86 24.83 C 91.81 29.60 95.37 35.82 100.94 31.13 C 99.21 39.82 112.52 30.28 114.88 27.92 C 116.53 28.92 117.92 29.95 119.00 31.58 C 115.69 31.58 114.35 30.35 113.84 34.55 C 118.60 33.54 123.32 33.42 128.16 33.20 C 124.20 36.26 120.24 38.12 117.61 42.63 C 115.08 44.65 107.12 48.46 111.13 52.50 C 118.81 52.30 128.09 44.72 134.56 40.55 C 137.81 39.49 138.62 26.72 141.08 32.01 C 141.10 34.70 140.60 37.19 140.31 39.82 C 144.58 38.83 151.88 34.80 155.37 34.70 C 161.75 43.11 169.58 29.96 174.02 37.28 C 166.94 40.99 160.71 46.01 152.86 46.00 C 154.17 43.78 156.16 42.58 157.08 40.23 C 151.77 42.23 145.96 42.25 140.98 44.87 C 137.24 47.17 133.17 47.78 129.14 49.19 C 123.12 53.31 118.97 59.61 113.26 64.26 C 110.41 67.03 113.34 67.96 115.10 69.95 C 112.41 69.47 109.85 68.56 107.19 67.96 C 110.14 79.61 119.40 78.07 129.02 78.03 C 132.29 76.98 140.32 84.85 141.26 80.06 C 147.20 86.30 135.62 89.63 131.92 92.69 C 126.79 90.73 119.83 94.90 123.33 100.51 C 125.13 103.31 121.39 101.04 120.20 100.88 C 120.60 94.45 116.12 92.72 111.81 89.23 C 107.87 86.83 105.82 83.37 100.77 83.21 C 91.69 82.11 82.73 74.39 91.07 66.12 C 89.81 73.79 93.67 79.75 101.84 78.94 C 106.81 75.52 104.71 72.09 101.00 68.80 C 97.31 71.52 99.85 70.91 102.00 73.23 C 101.72 78.16 92.38 74.88 95.81 70.82 C 99.63 62.71 104.79 69.87 110.30 62.28 C 117.42 56.02 105.53 59.42 103.74 62.73 C 100.14 66.93 99.80 63.70 96.83 61.14 C 103.33 59.53 95.83 54.37 93.36 54.36 C 87.89 55.35 83.83 59.25 82.83 64.51 C 86.25 71.91 87.85 72.98 80.75 78.43 C 80.14 82.04 99.79 80.54 87.87 83.77 C 78.82 84.24 76.02 76.54 67.10 82.06 C 61.55 85.70 61.75 76.27 56.87 79.90 C 49.35 86.75 42.38 80.44 34.15 88.43 C 38.30 81.26 41.14 73.44 45.32 66.34 C 47.85 60.99 52.62 60.93 51.67 54.16 C 47.52 53.61 43.03 54.52 38.79 54.77 C 43.50 50.98 49.02 54.61 53.17 51.16 C 59.08 45.03 65.77 42.67 67.40 33.37 C 68.31 31.73 70.45 22.85 72.72 27.32 C 73.28 30.85 73.18 35.89 72.34 39.40 C 70.04 41.19 65.11 42.49 65.02 45.89 C 68.31 45.85 71.90 45.38 74.85 43.85 C 77.01 42.43 82.22 38.64 75.97 39.53 C 83.80 35.67 89.02 29.78 95.86 24.83 Z" fill="#828a96" />
<path d="M 112.97 34.02 C 112.04 43.77 96.63 41.17 90.16 47.92 C 87.31 40.32 99.27 36.75 104.78 36.58 C 107.61 35.69 109.89 34.12 112.97 34.02 Z" fill="#bcc7d2" />
<path d="M 222.63 40.37 C 231.50 46.89 230.39 62.15 229.12 71.88 C 226.80 73.99 223.70 75.20 224.30 78.90 C 217.93 74.83 210.94 73.07 203.88 70.70 C 212.54 70.19 218.35 71.95 222.16 62.10 C 228.46 49.87 210.89 32.19 198.09 36.99 C 205.59 32.86 216.50 34.23 222.63 40.37 Z" fill="#7d828e" />
<path d="M 222.16 62.10 C 218.35 71.95 212.54 70.19 203.88 70.70 C 196.18 65.29 190.18 62.04 197.29 52.30 C 203.11 41.28 209.12 48.99 214.11 55.36 C 211.96 59.20 211.03 61.30 206.05 61.04 C 207.85 59.68 209.63 58.59 211.22 57.01 C 208.09 51.63 197.14 59.05 200.71 64.28 C 203.35 68.09 210.88 64.93 213.93 62.93 C 222.40 58.19 217.74 45.54 211.20 41.74 C 210.55 41.37 209.88 41.02 209.21 40.70 C 205.42 38.69 201.10 38.31 196.92 37.62 L 198.09 36.99 C 210.89 32.19 228.46 49.87 222.16 62.10 Z" fill="#31354b" />
<path d="M 174.02 37.28 C 180.73 39.59 180.83 42.22 179.79 48.34 C 184.94 48.09 190.50 39.07 196.92 37.62 C 192.28 46.13 181.08 49.36 178.36 60.37 C 175.05 71.08 179.74 80.24 170.92 89.89 C 165.93 94.25 163.58 100.29 158.58 104.59 C 156.59 107.13 152.87 106.82 155.09 110.60 C 143.10 123.82 127.76 122.32 111.93 124.77 C 98.61 127.48 99.73 137.23 91.64 145.67 C 88.46 149.10 85.52 152.93 81.91 155.93 C 82.67 152.21 85.31 149.93 84.95 145.96 C 82.67 148.52 81.04 151.24 77.81 152.78 C 79.75 146.91 84.17 142.15 80.44 135.85 C 79.49 133.68 78.43 131.44 77.70 129.18 C 79.60 122.26 83.22 115.89 88.94 111.44 C 101.65 104.31 111.17 106.10 125.01 106.21 C 143.52 104.20 149.97 91.24 162.18 80.13 C 168.98 74.56 176.71 59.25 176.91 50.14 C 174.32 41.64 169.42 47.25 164.35 49.38 C 160.50 52.03 153.13 51.74 152.86 46.00 C 160.71 46.01 166.94 40.99 174.02 37.28 Z" fill="#292d45" />
<path d="M 196.92 37.62 C 201.10 38.31 205.42 38.69 209.21 40.70 C 199.95 40.33 195.35 42.25 191.98 51.09 C 184.14 59.05 178.01 68.30 177.94 79.90 C 182.81 72.90 189.72 71.28 197.28 75.32 C 196.07 76.75 193.56 76.28 191.84 76.62 C 181.15 75.47 181.89 86.78 190.92 87.23 C 189.73 88.84 188.73 90.57 187.67 92.28 C 182.02 91.41 180.49 87.69 177.39 84.10 C 179.21 90.33 168.29 95.38 173.81 98.30 C 166.94 107.49 174.97 108.39 175.17 115.97 C 170.22 112.66 170.10 107.36 169.71 101.99 C 167.65 106.91 164.01 113.69 164.60 118.98 C 167.06 126.34 163.89 120.81 159.98 119.98 C 152.63 122.90 148.89 127.47 151.89 135.76 C 142.67 137.46 136.51 148.04 125.60 148.56 C 114.61 149.82 127.85 156.14 131.79 155.40 C 149.07 167.27 173.00 172.16 190.20 183.87 C 179.41 181.85 168.59 174.17 157.92 174.47 C 155.90 174.04 153.90 173.52 151.90 172.99 C 143.52 170.00 136.60 164.43 128.66 160.33 C 121.15 155.22 114.89 148.21 104.83 148.12 C 99.87 148.46 102.79 141.44 97.35 143.27 C 88.05 150.00 83.26 163.54 79.39 173.97 C 77.24 170.95 81.35 162.62 76.45 169.05 C 76.95 160.81 70.70 151.49 75.79 144.72 C 77.84 141.84 79.88 139.53 80.44 135.85 C 84.17 142.15 79.75 146.91 77.81 152.78 C 81.04 151.24 82.67 148.52 84.95 145.96 C 85.31 149.93 82.67 152.21 81.91 155.93 C 85.52 152.93 88.46 149.10 91.64 145.67 C 99.73 137.23 98.61 127.48 111.93 124.77 C 107.82 130.58 101.41 134.88 103.18 142.96 C 107.42 142.48 108.17 134.18 113.66 132.62 C 123.24 129.48 134.97 131.08 142.01 122.10 C 131.66 124.41 122.67 125.91 111.93 124.77 C 127.76 122.32 143.10 123.82 155.09 110.60 C 152.87 106.82 156.59 107.13 158.58 104.59 C 163.58 100.29 165.93 94.25 170.92 89.89 C 179.74 80.24 175.05 71.08 178.36 60.37 C 181.08 49.36 192.28 46.13 196.92 37.62 Z" fill="#7c828e" />
<path d="M 157.08 40.23 C 156.16 42.58 154.17 43.78 152.86 46.00 C 153.13 51.74 160.50 52.03 164.35 49.38 C 169.42 47.25 174.32 41.64 176.91 50.14 C 176.71 59.25 168.98 74.56 162.18 80.13 C 164.39 76.41 157.87 78.43 155.98 78.04 C 150.43 79.36 145.24 78.02 139.76 78.71 C 134.86 76.06 129.99 73.39 124.97 70.97 C 127.76 71.27 130.37 72.14 133.08 72.80 C 129.70 68.01 126.32 66.30 128.60 59.60 C 133.09 54.18 140.71 51.10 144.97 45.19 C 143.64 45.05 142.31 44.94 140.98 44.87 C 145.96 42.25 151.77 42.23 157.08 40.23 Z" fill="#a0a7b4" />
<path d="M 209.21 40.70 C 209.88 41.02 210.55 41.37 211.20 41.74 C 213.49 46.73 218.51 49.77 214.11 55.36 C 209.12 48.99 203.11 41.28 197.29 52.30 C 190.18 62.04 196.18 65.29 203.88 70.70 C 201.62 71.08 199.78 71.68 197.90 73.02 C 196.91 73.47 196.70 74.24 197.28 75.32 C 189.72 71.28 182.81 72.90 177.94 79.90 C 178.01 68.30 184.14 59.05 191.98 51.09 C 195.35 42.25 199.95 40.33 209.21 40.70 Z" fill="#b8bec6" />
<path d="M 211.20 41.74 C 217.74 45.54 222.40 58.19 213.93 62.93 C 210.88 64.93 203.35 68.09 200.71 64.28 C 197.14 59.05 208.09 51.63 211.22 57.01 C 209.63 58.59 207.85 59.68 206.05 61.04 C 211.03 61.30 211.96 59.20 214.11 55.36 C 218.51 49.77 213.49 46.73 211.20 41.74 Z" fill="#818894" />
<path d="M 140.98 44.87 C 142.31 44.94 143.64 45.05 144.97 45.19 C 140.71 51.10 133.09 54.18 128.60 59.60 C 126.32 66.30 129.70 68.01 133.08 72.80 C 130.37 72.14 127.76 71.27 124.97 70.97 C 121.68 70.55 118.37 70.61 115.10 69.95 C 113.34 67.96 110.41 67.03 113.26 64.26 C 118.97 59.61 123.12 53.31 129.14 49.19 C 133.17 47.78 137.24 47.17 140.98 44.87 Z" fill="#cbced6" />
<path d="M 86.96 50.17 C 84.03 54.41 79.61 56.47 76.29 60.28 C 71.68 68.17 59.91 62.75 52.03 63.80 C 52.14 61.02 57.24 60.01 59.02 58.03 C 67.41 48.42 75.16 49.54 86.96 50.17 Z" fill="#181921" />
<path d="M 51.67 54.16 C 52.62 60.93 47.85 60.99 45.32 66.34 C 41.14 73.44 38.30 81.26 34.15 88.43 L 33.72 89.26 C 31.88 93.68 31.95 89.91 30.22 87.87 C 28.07 82.08 24.84 76.02 24.09 69.95 C 22.13 59.62 31.48 57.97 38.79 54.77 C 43.03 54.52 47.52 53.61 51.67 54.16 Z" fill="#292d44" />
<path d="M 93.36 54.36 C 95.83 54.37 103.33 59.53 96.83 61.14 C 94.14 61.90 92.38 63.72 91.07 66.12 C 82.73 74.39 91.69 82.11 100.77 83.21 C 107.53 88.79 113.37 95.57 120.20 100.88 C 121.39 101.04 125.13 103.31 123.33 100.51 C 119.83 94.90 126.79 90.73 131.92 92.69 C 135.62 89.63 147.20 86.30 141.26 80.06 L 139.76 78.71 C 145.24 78.02 150.43 79.36 155.98 78.04 C 157.87 78.43 164.39 76.41 162.18 80.13 C 149.97 91.24 143.52 104.20 125.01 106.21 C 111.17 106.10 101.65 104.31 88.94 111.44 C 85.72 103.55 97.15 103.01 99.97 98.41 C 92.56 99.34 102.84 94.87 102.53 91.57 C 104.60 86.12 99.15 91.62 97.31 92.23 C 92.88 94.95 96.38 89.02 96.62 87.13 C 93.38 88.16 92.33 89.00 89.31 86.84 C 88.84 85.81 88.36 84.78 87.87 83.77 C 99.79 80.54 80.14 82.04 80.75 78.43 C 87.85 72.98 86.25 71.91 82.83 64.51 C 83.83 59.25 87.89 55.35 93.36 54.36 Z" fill="#d8d9dc" />
<path d="M 67.33 55.29 C 72.54 53.11 76.92 58.32 71.47 61.51 C 67.26 65.84 63.80 57.58 67.33 55.29 Z" fill="#875c8e" />
<path d="M 110.30 62.28 C 104.79 69.87 99.63 62.71 95.81 70.82 C 92.38 74.88 101.72 78.16 102.00 73.23 C 99.85 70.91 97.31 71.52 101.00 68.80 C 104.71 72.09 106.81 75.52 101.84 78.94 C 93.67 79.75 89.81 73.79 91.07 66.12 C 92.38 63.72 94.14 61.90 96.83 61.14 C 99.80 63.70 100.14 66.93 103.74 62.73 C 105.53 59.42 117.42 56.02 110.30 62.28 Z" fill="#3b3f4d" />
<path d="M 107.19 67.96 C 109.85 68.56 112.41 69.47 115.10 69.95 C 118.37 70.61 121.68 70.55 124.97 70.97 C 129.99 73.39 134.86 76.06 139.76 78.71 L 141.26 80.06 C 140.32 84.85 132.29 76.98 129.02 78.03 C 119.40 78.07 110.14 79.61 107.19 67.96 Z" fill="#32364a" />
<path d="M 203.88 70.70 C 210.94 73.07 217.93 74.83 224.30 78.90 C 222.93 79.59 221.55 80.28 220.15 80.92 C 216.38 77.72 210.25 77.89 205.60 76.40 C 201.02 74.78 201.52 80.88 202.62 83.40 C 206.94 83.85 215.37 82.39 218.24 86.96 C 213.72 89.01 207.20 93.54 202.71 89.29 C 196.91 83.43 195.49 94.09 187.67 92.28 C 188.73 90.57 189.73 88.84 190.92 87.23 C 194.48 83.27 193.67 81.22 191.84 76.62 C 193.56 76.28 196.07 76.75 197.28 75.32 C 198.10 74.84 198.31 74.07 197.90 73.02 C 199.78 71.68 201.62 71.08 203.88 70.70 Z" fill="#484c57" />
<path d="M 229.12 71.88 C 222.97 87.90 226.13 100.62 233.28 115.70 C 235.49 119.10 231.46 120.58 229.20 122.17 C 218.83 126.13 216.41 141.36 217.19 150.95 C 217.74 165.96 223.77 178.61 227.04 192.85 C 214.37 192.28 213.57 179.74 203.08 176.81 C 197.06 171.47 188.57 172.67 182.67 166.33 C 177.27 159.86 178.10 151.16 184.54 145.61 C 188.55 135.77 196.74 146.24 201.17 149.80 C 203.50 155.50 204.81 161.67 207.92 167.15 C 209.25 170.31 210.76 164.41 211.35 163.33 C 212.44 153.78 207.11 144.96 199.20 139.81 C 193.50 135.29 187.38 131.30 179.81 133.51 C 175.76 129.21 171.38 119.18 164.60 118.98 C 164.01 113.69 167.65 106.91 169.71 101.99 C 170.10 107.36 170.22 112.66 175.17 115.97 C 179.19 118.77 181.12 119.04 185.84 117.72 C 189.69 115.79 191.05 122.54 194.02 123.94 C 198.37 125.67 203.30 128.28 208.07 127.92 C 206.25 125.36 203.41 124.84 201.25 122.76 C 198.39 120.07 193.81 109.35 201.82 111.16 C 210.35 111.52 212.22 120.32 219.87 120.97 C 222.19 116.31 206.97 101.57 202.04 103.01 C 188.99 106.06 186.25 87.63 173.81 98.30 C 168.29 95.38 179.21 90.33 177.39 84.10 C 180.49 87.69 182.02 91.41 187.67 92.28 C 195.49 94.09 196.91 83.43 202.71 89.29 C 207.20 93.54 213.72 89.01 218.24 86.96 C 215.37 82.39 206.94 83.85 202.62 83.40 C 201.52 80.88 201.02 74.78 205.60 76.40 C 210.25 77.89 216.38 77.72 220.15 80.92 C 222.70 82.53 226.04 83.17 224.30 78.90 C 223.70 75.20 226.80 73.99 229.12 71.88 Z" fill="#d2d2d8" />
<path d="M 197.90 73.02 C 198.31 74.07 198.10 74.84 197.28 75.32 C 196.70 74.24 196.91 73.47 197.90 73.02 Z" fill="#868e98" />
<path d="M 191.84 76.62 C 193.67 81.22 194.48 83.27 190.92 87.23 C 181.89 86.78 181.15 75.47 191.84 76.62 Z" fill="#d7dbe1" />
<path d="M 224.30 78.90 C 226.04 83.17 222.70 82.53 220.15 80.92 C 221.55 80.28 222.93 79.59 224.30 78.90 Z" fill="#888b93" />
<path d="M 100.77 83.21 C 105.82 83.37 107.87 86.83 111.81 89.23 C 116.12 92.72 120.60 94.45 120.20 100.88 C 113.37 95.57 107.53 88.79 100.77 83.21 Z" fill="#484b57" />
<path d="M 89.31 86.84 C 92.33 89.00 93.38 88.16 96.62 87.13 C 96.38 89.02 92.88 94.95 97.31 92.23 C 99.15 91.62 104.60 86.12 102.53 91.57 C 102.84 94.87 92.56 99.34 99.97 98.41 C 97.15 103.01 85.72 103.55 88.94 111.44 C 83.22 115.89 79.60 122.26 77.70 129.18 C 75.70 124.75 79.35 120.14 80.77 116.00 C 76.54 117.14 73.02 119.52 68.99 121.09 C 73.36 110.44 83.89 106.57 89.93 98.93 C 82.17 100.77 77.07 106.53 72.04 111.98 C 62.75 113.87 61.01 116.95 56.26 124.20 C 60.38 116.81 51.23 108.34 51.22 100.22 C 56.61 96.13 54.26 103.07 60.67 104.27 C 75.18 109.04 81.05 95.36 89.31 86.84 Z" fill="#babdc6" />
<path d="M 30.22 87.87 C 31.95 89.91 31.88 93.68 33.72 89.26 C 36.52 90.09 38.64 88.65 41.36 88.49 C 43.79 94.93 56.29 93.43 62.02 94.92 C 66.49 94.82 69.20 93.42 66.41 88.83 C 72.09 90.15 78.72 93.52 72.67 99.68 C 64.58 104.76 60.25 94.41 52.21 96.14 C 44.75 99.54 45.43 110.94 44.57 117.64 C 43.96 121.48 40.98 113.77 40.81 117.78 C 38.14 124.05 40.12 129.43 34.88 134.19 C 32.83 130.24 30.04 125.53 29.94 121.02 C 34.03 112.94 29.46 102.53 41.91 101.60 C 39.44 99.67 35.82 97.44 33.00 100.03 C 26.72 104.56 29.71 110.36 28.88 116.99 C 26.99 113.54 25.15 110.34 24.45 106.40 C 22.07 98.08 32.94 95.00 30.22 87.87 Z" fill="#c49b99" />
<path d="M 202.04 103.01 C 206.97 101.57 222.19 116.31 219.87 120.97 C 212.22 120.32 210.35 111.52 201.82 111.16 C 193.81 109.35 198.39 120.07 201.25 122.76 C 203.41 124.84 206.25 125.36 208.07 127.92 C 203.30 128.28 198.37 125.67 194.02 123.94 C 191.05 122.54 189.69 115.79 185.84 117.72 C 181.12 119.04 179.19 118.77 175.17 115.97 C 174.97 108.39 166.94 107.49 173.81 98.30 C 186.25 87.63 188.99 106.06 202.04 103.01 Z" fill="#494e59" />
<path d="M 89.93 98.93 C 83.89 106.57 73.36 110.44 68.99 121.09 C 67.07 121.98 47.57 134.15 56.26 124.20 C 61.01 116.95 62.75 113.87 72.04 111.98 C 77.07 106.53 82.17 100.77 89.93 98.93 Z" fill="#464a5c" />
<path d="M 179.39 100.41 C 190.80 97.92 192.29 116.08 180.64 113.40 C 175.01 112.39 173.73 102.01 179.39 100.41 Z" fill="#d8dfe5" />
<path d="M 164.60 118.98 C 171.38 119.18 175.76 129.21 179.81 133.51 C 187.38 131.30 193.50 135.29 199.20 139.81 C 207.11 144.96 212.44 153.78 211.35 163.33 C 210.76 164.41 209.25 170.31 207.92 167.15 C 204.81 161.67 203.50 155.50 201.17 149.80 C 196.74 146.24 188.55 135.77 184.54 145.61 C 178.10 151.16 177.27 159.86 182.67 166.33 C 188.57 172.67 197.06 171.47 203.08 176.81 C 204.55 178.70 206.90 179.59 206.37 182.27 C 202.54 180.31 198.43 174.49 193.97 177.53 C 186.30 172.00 175.52 174.62 170.38 166.95 C 167.07 161.33 166.90 155.61 165.60 149.44 C 156.98 148.19 155.90 147.19 152.81 139.15 C 152.50 138.02 152.19 136.89 151.89 135.76 C 148.89 127.47 152.63 122.90 159.98 119.98 C 163.89 120.81 167.06 126.34 164.60 118.98 Z" fill="#404550" />
<path d="M 142.01 122.10 C 134.97 131.08 123.24 129.48 113.66 132.62 C 108.17 134.18 107.42 142.48 103.18 142.96 C 101.41 134.88 107.82 130.58 111.93 124.77 C 122.67 125.91 131.66 124.41 142.01 122.10 Z" fill="#c0c9d3" />
<path d="M 25.21 125.04 C 28.53 125.99 29.81 134.44 31.33 137.60 C 28.95 135.38 25.94 137.31 26.78 140.32 C 30.63 151.54 32.19 163.63 36.44 174.58 C 39.02 179.35 44.38 171.45 46.82 169.84 C 48.35 177.39 43.92 195.98 50.89 200.19 C 51.41 201.15 51.91 202.10 52.41 203.07 C 50.66 204.08 48.93 204.50 46.95 204.83 C 50.15 209.40 50.32 218.85 57.36 217.71 C 60.31 218.45 60.86 214.13 62.43 212.30 C 65.32 219.72 73.49 217.59 74.75 227.07 C 66.63 224.50 61.89 227.35 53.81 227.22 C 49.90 225.23 45.47 222.57 41.89 220.04 C 42.45 218.71 51.04 218.75 45.01 217.04 C 34.67 217.05 24.07 209.90 22.83 199.20 C 26.06 202.67 31.11 206.14 36.05 205.71 C 41.51 206.45 44.42 202.20 39.66 198.35 C 32.41 189.86 30.78 174.89 28.67 164.06 C 22.06 173.75 30.59 173.16 29.16 183.01 C 29.70 188.94 31.81 194.39 32.90 200.17 C 23.29 190.46 24.82 181.24 24.68 168.67 C 29.92 156.35 23.03 138.50 25.21 125.04 Z" fill="#80868f" />
<path d="M 172.08 131.99 C 170.74 139.44 167.44 137.89 161.34 137.79 C 157.11 142.56 157.77 135.45 158.77 132.81 C 160.51 127.21 171.53 124.02 172.08 131.99 Z" fill="#c4cfda" />
<path d="M 134.38 130.31 C 146.02 127.93 136.27 141.10 131.71 140.24 C 130.68 137.33 132.88 132.87 134.38 130.31 Z" fill="#c4cad3" />
<path d="M 151.89 135.76 C 152.19 136.89 152.50 138.02 152.81 139.15 C 150.21 140.82 148.20 141.51 147.39 144.81 C 144.13 137.98 135.29 149.24 129.77 149.79 C 122.51 156.72 134.48 151.08 137.24 156.74 C 142.43 161.32 142.67 158.28 145.10 153.73 C 149.05 161.95 156.44 160.50 163.68 165.02 C 166.35 164.59 169.99 171.46 170.38 166.95 C 175.52 174.62 186.30 172.00 193.97 177.53 C 198.43 174.49 202.54 180.31 206.37 182.27 C 208.85 185.18 212.09 186.57 215.09 188.78 C 206.33 190.91 201.15 184.82 192.91 185.04 C 192.00 184.66 191.10 184.27 190.20 183.87 C 173.00 172.16 149.07 167.27 131.79 155.40 C 127.85 156.14 114.61 149.82 125.60 148.56 C 136.51 148.04 142.67 137.46 151.89 135.76 Z" fill="#b3b6c1" />
<path d="M 31.33 137.60 C 33.05 143.39 34.56 149.32 36.79 154.94 C 38.37 158.67 39.90 163.27 42.90 166.09 C 40.86 157.93 44.45 149.08 52.79 146.51 C 54.80 147.38 56.13 148.82 57.23 150.68 L 56.17 151.96 C 52.57 156.00 46.88 164.39 46.82 169.84 C 44.38 171.45 39.02 179.35 36.44 174.58 C 32.19 163.63 30.63 151.54 26.78 140.32 C 25.94 137.31 28.95 135.38 31.33 137.60 Z" fill="#404351" />
<path d="M 51.90 137.39 C 54.47 139.30 57.71 148.12 57.23 150.68 C 56.13 148.82 54.80 147.38 52.79 146.51 C 44.45 149.08 40.86 157.93 42.90 166.09 C 39.90 163.27 38.37 158.67 36.79 154.94 C 47.17 155.88 43.51 139.85 51.90 137.39 Z" fill="#aeafaf" />
<path d="M 152.81 139.15 C 155.90 147.19 156.98 148.19 165.60 149.44 C 166.90 155.61 167.07 161.33 170.38 166.95 C 169.99 171.46 166.35 164.59 163.68 165.02 C 156.44 160.50 149.05 161.95 145.10 153.73 C 142.67 158.28 142.43 161.32 137.24 156.74 C 134.48 151.08 122.51 156.72 129.77 149.79 C 135.29 149.24 144.13 137.98 147.39 144.81 C 148.20 141.51 150.21 140.82 152.81 139.15 Z" fill="#d1d8e2" />
<path d="M 56.17 151.96 C 54.91 157.70 51.25 161.87 49.00 167.09 C 50.92 171.41 50.69 177.74 54.94 180.30 C 55.50 187.69 46.14 192.84 50.89 200.19 C 43.92 195.98 48.35 177.39 46.82 169.84 C 46.88 164.39 52.57 156.00 56.17 151.96 Z" fill="#b8b9bc" />
<path d="M 28.67 164.06 C 30.78 174.89 32.41 189.86 39.66 198.35 C 44.42 202.20 41.51 206.45 36.05 205.71 C 34.83 203.96 33.82 202.09 32.90 200.17 C 31.81 194.39 29.70 188.94 29.16 183.01 C 30.59 173.16 22.06 173.75 28.67 164.06 Z" fill="#35394c" />
<path d="M 126.82 166.20 C 135.21 172.79 145.42 173.73 152.27 182.87 C 152.27 184.46 153.43 186.61 151.71 187.60 C 142.72 177.48 131.58 170.32 118.07 168.20 C 112.62 168.69 113.80 176.78 114.51 180.43 C 117.43 190.67 123.80 194.68 132.54 199.54 C 135.03 205.77 124.19 207.88 119.94 206.87 C 122.01 205.18 126.51 204.58 127.83 202.77 C 123.18 193.64 109.44 193.51 109.39 182.40 C 106.91 177.53 110.13 174.34 108.08 170.08 C 112.75 163.89 119.94 166.21 126.82 166.20 Z" fill="#404456" />
<path d="M 118.07 168.20 C 131.58 170.32 142.72 177.48 151.71 187.60 C 153.43 186.61 152.27 184.46 152.27 182.87 C 159.30 192.67 144.60 197.36 137.85 199.90 C 140.74 202.56 143.10 209.37 147.63 205.65 C 155.23 202.56 158.39 195.61 165.14 191.53 C 167.32 196.56 159.11 199.14 156.99 202.93 C 161.95 202.46 165.27 197.72 170.08 198.08 C 168.66 199.71 159.58 204.26 164.58 206.32 C 169.57 206.41 175.97 203.89 179.75 200.51 C 180.22 205.10 182.39 205.87 186.30 207.36 C 189.95 207.75 192.83 201.83 196.31 202.52 C 189.97 208.89 182.26 215.26 175.15 220.58 C 164.89 219.65 155.92 223.11 147.33 228.27 C 144.03 230.81 148.46 229.64 150.15 230.24 C 138.91 230.81 127.97 232.74 116.79 232.95 C 120.79 231.08 127.94 232.31 130.04 228.07 C 124.79 228.20 119.55 229.00 114.30 229.33 C 113.21 231.47 112.14 232.15 115.00 233.40 C 112.97 234.01 111.49 233.07 109.58 232.56 C 102.62 229.70 93.55 237.08 87.94 232.08 C 85.40 229.08 77.43 230.15 80.67 224.65 C 85.14 221.87 85.16 230.58 90.97 229.04 C 98.66 227.50 108.08 232.28 114.19 227.29 C 127.51 225.00 143.68 230.28 153.77 218.77 C 156.96 215.55 156.80 217.55 159.30 219.91 C 162.95 220.08 164.91 212.97 164.94 210.07 C 160.72 210.61 153.08 211.00 152.09 216.13 C 148.28 221.81 152.84 211.51 147.64 213.79 C 139.72 215.49 128.54 219.32 121.09 215.06 C 115.90 212.37 110.30 210.87 105.30 207.77 C 100.52 204.95 93.21 210.58 88.94 207.25 C 97.08 207.67 88.46 204.17 88.92 199.98 C 90.03 201.84 93.69 204.73 94.99 202.06 C 90.40 198.85 86.20 193.31 80.94 191.62 C 83.01 191.18 84.91 191.52 87.01 191.56 C 87.23 188.70 82.42 186.89 80.61 185.11 C 82.75 183.50 83.54 179.49 86.19 182.77 C 91.20 189.73 100.63 185.45 108.38 185.37 C 108.46 180.93 104.40 175.45 108.08 170.08 C 110.13 174.34 106.91 177.53 109.39 182.40 C 109.44 193.51 123.18 193.64 127.83 202.77 C 126.51 204.58 122.01 205.18 119.94 206.87 C 124.19 207.88 135.03 205.77 132.54 199.54 C 123.80 194.68 117.43 190.67 114.51 180.43 C 113.80 176.78 112.62 168.69 118.07 168.20 Z" fill="#8e98a3" />
<path d="M 151.90 172.99 C 153.90 173.52 155.90 174.04 157.92 174.47 C 162.79 175.82 167.19 178.13 171.79 180.14 C 181.57 186.16 189.85 192.96 198.34 200.67 C 201.01 203.79 202.13 205.87 202.07 210.11 C 200.66 208.18 199.15 202.31 196.31 202.52 C 192.83 201.83 189.95 207.75 186.30 207.36 C 182.39 205.87 180.22 205.10 179.75 200.51 C 175.97 203.89 169.57 206.41 164.58 206.32 C 159.58 204.26 168.66 199.71 170.08 198.08 C 165.27 197.72 161.95 202.46 156.99 202.93 C 159.11 199.14 167.32 196.56 165.14 191.53 C 167.27 189.34 167.97 187.34 171.39 188.04 C 175.33 185.78 169.34 183.24 167.40 182.45 C 162.57 179.07 155.79 177.35 151.90 172.99 Z" fill="#afb9c3" />
<path d="M 190.20 183.87 C 191.10 184.27 192.00 184.66 192.91 185.04 C 204.43 189.22 215.31 195.89 225.71 202.25 C 230.28 205.79 231.77 208.29 230.27 214.15 C 219.82 218.84 221.55 230.68 209.04 234.10 C 198.07 237.72 195.33 230.73 187.55 225.46 C 185.16 222.07 193.20 225.37 194.04 226.16 C 201.00 230.61 201.44 222.52 205.86 218.79 C 206.79 214.36 206.32 209.63 206.63 205.11 C 196.67 193.89 186.60 185.18 171.79 180.14 C 167.19 178.13 162.79 175.82 157.92 174.47 C 168.59 174.17 179.41 181.85 190.20 183.87 Z" fill="#2d3047" />
<path d="M 203.08 176.81 C 213.57 179.74 214.37 192.28 227.04 192.85 C 235.10 195.43 237.07 209.69 230.27 214.15 C 231.77 208.29 230.28 205.79 225.71 202.25 C 215.31 195.89 204.43 189.22 192.91 185.04 C 201.15 184.82 206.33 190.91 215.09 188.78 C 212.09 186.57 208.85 185.18 206.37 182.27 C 206.90 179.59 204.55 178.70 203.08 176.81 Z" fill="#858a94" />
<path d="M 140.90 186.05 C 137.36 193.02 134.86 185.01 131.40 188.01 C 131.56 190.41 135.25 195.27 130.32 193.78 C 128.53 190.78 126.78 187.35 125.31 184.18 C 129.67 178.53 139.39 177.29 140.90 186.05 Z" fill="#33374d" />
<path d="M 171.79 180.14 C 186.60 185.18 196.67 193.89 206.63 205.11 C 206.32 209.63 206.79 214.36 205.86 218.79 C 201.44 222.52 201.00 230.61 194.04 226.16 C 200.33 226.57 204.54 215.06 202.07 210.11 C 202.13 205.87 201.01 203.79 198.34 200.67 C 189.85 192.96 181.57 186.16 171.79 180.14 Z" fill="#7c828e" />
<path d="M 80.61 185.11 C 82.42 186.89 87.23 188.70 87.01 191.56 C 84.91 191.52 83.01 191.18 80.94 191.62 C 78.72 192.55 74.08 192.66 73.17 195.13 C 71.54 201.95 67.29 192.46 66.98 189.95 C 66.30 184.21 76.92 181.15 80.61 185.11 Z" fill="#36394d" />
<path d="M 88.92 199.98 C 88.46 204.17 97.08 207.67 88.94 207.25 C 84.40 204.16 83.28 202.03 77.30 203.74 C 76.63 196.60 85.67 196.18 88.92 199.98 Z" fill="#393c4c" />
<path d="M 52.41 203.07 C 57.87 209.25 64.89 211.35 72.06 214.88 C 88.59 218.11 105.04 221.46 121.56 216.75 C 121.42 216.18 121.26 215.62 121.09 215.06 C 128.54 219.32 139.72 215.49 147.64 213.79 C 152.84 211.51 148.28 221.81 152.09 216.13 C 153.08 211.00 160.72 210.61 164.94 210.07 C 164.91 212.97 162.95 220.08 159.30 219.91 C 156.80 217.55 156.96 215.55 153.77 218.77 C 143.68 230.28 127.51 225.00 114.19 227.29 C 108.08 232.28 98.66 227.50 90.97 229.04 C 85.16 230.58 85.14 221.87 80.67 224.65 C 77.43 230.15 85.40 229.08 87.94 232.08 C 76.16 232.02 65.63 227.60 53.81 227.22 C 61.89 227.35 66.63 224.50 74.75 227.07 C 73.49 217.59 65.32 219.72 62.43 212.30 C 60.86 214.13 60.31 218.45 57.36 217.71 C 50.32 218.85 50.15 209.40 46.95 204.83 C 48.93 204.50 50.66 204.08 52.41 203.07 Z" fill="#b0bbc4" />
<path d="M 175.15 220.58 C 166.11 225.77 160.66 228.43 150.15 230.24 C 148.46 229.64 144.03 230.81 147.33 228.27 C 155.92 223.11 164.89 219.65 175.15 220.58 Z" fill="#424557" />
<path d="M 130.04 228.07 C 127.94 232.31 120.79 231.08 116.79 232.95 L 115.00 233.40 C 112.14 232.15 113.21 231.47 114.30 229.33 C 119.55 229.00 124.79 228.20 130.04 228.07 Z" fill="#484b59" />
</svg>