<?xml version="1.0" encoding="UTF-8" standalone="no"?>
<!DOCTYPE svg PUBLIC "-//W3C//DTD SVG 1.1//EN" "http://www.w3.org/Graphics/SVG/1.1/DTD/svg11.dtd">
<svg xmlns="http://www.w3.org/2000/svg" version="1.1" viewBox="0 0 256 256" width="256.0pt" height="256.0pt">
<path d="M 0.00 0.00 L 256.00 0.00 L 256.00 256.00 L 0.00 256.00 L 0.00 0.00 Z" fill="#fdfdfd" />
<path d="M 165.30 18.73 C 179.49 25.05 192.89 23.37 207.83 22.67 C 209.68 22.26 216.68 21.34 213.49 24.91 C 217.54 25.75 221.60 32.43 223.08 35.94 C 224.12 44.42 229.29 49.90 232.69 57.32 C 238.90 70.40 244.07 86.98 240.41 101.39 C 237.34 112.20 232.81 123.55 234.07 135.02 C 234.53 143.65 239.40 150.50 239.04 159.00 C 238.98 169.32 238.54 179.42 240.48 189.62 C 241.84 200.74 241.82 214.56 232.27 222.27 C 226.70 227.34 219.87 227.32 213.00 226.02 C 207.67 222.76 204.80 214.71 199.88 211.03 C 190.79 212.43 182.63 222.13 174.33 226.33 C 160.47 235.95 145.39 236.18 129.17 237.33 C 121.75 239.15 115.66 236.24 107.94 235.51 C 104.96 235.43 103.57 233.40 101.88 231.25 C 95.74 230.19 90.80 229.23 84.79 232.69 C 74.57 238.37 63.60 240.87 53.37 233.62 C 45.82 225.60 40.01 215.45 33.48 206.56 C 24.45 192.09 19.00 175.22 15.40 158.63 C 9.54 125.37 11.25 90.14 20.60 57.62 C 22.09 51.59 23.30 45.85 26.33 40.33 C 31.60 27.59 47.78 20.46 60.36 17.39 C 75.87 14.48 83.58 24.07 98.01 26.98 C 104.69 28.19 111.22 34.01 117.87 33.93 C 125.00 30.57 128.72 22.81 136.01 19.02 C 145.84 13.22 155.23 14.31 165.30 18.73 Z" fill="#f0eff0" />
<path d="M 149.96 21.02 C 159.95 22.65 167.97 32.93 179.00 32.07 C 186.03 31.88 192.09 29.04 196.37 36.64 C 199.88 41.81 200.60 48.88 192.17 48.09 C 188.96 47.66 187.39 49.23 184.89 50.78 C 185.98 46.73 190.42 46.18 192.03 42.94 C 190.99 37.84 188.00 34.42 182.88 33.19 C 176.11 32.44 169.03 33.66 162.31 32.66 C 158.39 30.92 156.34 26.70 152.21 24.93 C 138.74 20.72 130.89 46.23 145.81 48.32 C 151.24 51.62 162.46 38.71 152.97 37.00 C 150.12 38.16 150.32 40.38 149.52 42.94 C 146.25 40.80 149.38 36.19 151.96 35.05 C 155.32 36.45 158.54 38.44 161.52 40.52 C 165.19 43.29 159.33 48.17 156.98 49.78 C 147.08 55.73 139.04 46.94 132.62 40.38 C 130.04 33.43 133.86 31.37 138.67 27.64 C 142.29 24.76 144.61 20.19 149.96 21.02 Z" fill="#a297b5" />
<path d="M 72.61 23.41 C 78.19 25.64 78.33 30.97 82.84 34.13 C 86.44 37.00 89.99 38.50 89.02 43.93 C 83.15 45.30 78.98 52.91 73.12 51.95 C 68.80 50.01 67.26 45.32 62.74 43.24 C 57.21 39.00 67.58 36.21 70.26 34.52 C 72.20 34.24 74.91 39.41 75.82 41.09 C 73.86 40.30 72.10 38.35 70.06 38.01 C 63.02 40.04 71.86 50.06 76.39 46.39 C 79.32 44.77 81.14 40.77 82.88 37.98 C 78.10 30.65 74.46 24.45 64.41 27.46 C 56.12 35.61 45.45 32.06 42.65 46.10 C 41.45 43.08 40.44 39.99 39.62 36.85 C 41.74 33.91 43.32 31.05 47.15 30.22 C 56.33 28.50 62.42 21.76 72.61 23.41 Z" fill="#9f93b3" />
<path d="M 152.21 24.93 C 156.34 26.70 158.39 30.92 162.31 32.66 C 169.03 33.66 176.11 32.44 182.88 33.19 C 188.00 34.42 190.99 37.84 192.03 42.94 C 190.42 46.18 185.98 46.73 184.89 50.78 C 187.39 49.23 188.96 47.66 192.17 48.09 C 188.75 51.60 188.20 52.99 187.78 57.80 C 186.95 62.28 197.85 61.66 198.66 64.01 C 199.61 73.08 187.59 75.17 183.88 80.81 C 186.81 79.80 189.27 78.12 191.97 76.66 C 194.33 77.08 194.62 78.01 195.70 79.85 C 192.92 80.13 191.60 81.89 189.82 83.77 C 188.99 84.16 188.16 84.57 187.34 84.98 C 187.39 81.98 182.83 84.17 182.55 85.90 C 181.50 87.99 180.91 89.94 178.82 91.33 C 177.74 92.13 176.73 93.01 175.74 93.93 C 170.92 98.28 166.13 103.30 163.08 109.07 C 162.39 109.77 161.70 110.45 160.99 111.13 L 159.84 110.69 C 161.09 105.81 166.21 102.13 168.98 97.99 C 173.19 92.06 176.30 85.83 182.05 81.12 C 184.82 78.80 179.41 81.08 178.79 81.80 C 170.92 89.50 164.17 98.46 156.03 105.93 C 159.36 95.15 167.69 86.98 170.24 76.26 C 171.26 73.87 171.90 71.57 172.30 69.00 C 176.71 68.95 173.90 68.42 171.96 67.10 C 172.58 62.15 169.13 60.16 168.03 55.94 C 167.46 53.35 167.60 54.11 166.85 55.94 C 165.17 54.16 163.79 50.44 161.04 53.02 C 158.57 54.10 161.24 54.71 162.07 55.90 C 161.07 55.82 160.07 55.74 159.07 55.66 C 158.34 55.15 157.61 54.63 156.88 54.11 C 160.19 54.55 157.22 51.37 156.98 49.78 C 159.33 48.17 165.19 43.29 161.52 40.52 C 158.54 38.44 155.32 36.45 151.96 35.05 C 149.38 36.19 146.25 40.80 149.52 42.94 C 150.32 40.38 150.12 38.16 152.97 37.00 C 162.46 38.71 151.24 51.62 145.81 48.32 C 130.89 46.23 138.74 20.72 152.21 24.93 Z" fill="#e1dbec" />
<path d="M 64.41 27.46 C 74.46 24.45 78.10 30.65 82.88 37.98 C 81.14 40.77 79.32 44.77 76.39 46.39 C 71.86 50.06 63.02 40.04 70.06 38.01 C 72.10 38.35 73.86 40.30 75.82 41.09 C 74.91 39.41 72.20 34.24 70.26 34.52 C 67.58 36.21 57.21 39.00 62.74 43.24 C 67.26 45.32 68.80 50.01 73.12 51.95 C 78.98 52.91 83.15 45.30 89.02 43.93 C 88.03 51.44 76.32 52.46 70.82 55.79 C 68.33 55.06 65.84 54.53 63.28 55.30 C 60.73 56.69 62.03 60.49 60.43 62.96 C 63.68 65.51 66.60 66.20 68.97 62.18 C 66.75 62.30 61.59 63.91 63.60 59.64 C 65.35 52.73 74.78 58.96 72.69 63.67 C 69.49 70.89 65.66 69.55 59.03 70.83 C 54.19 69.83 49.54 78.09 50.93 82.19 C 53.11 89.81 52.97 99.67 57.94 105.91 C 57.88 107.94 53.83 109.56 53.22 106.74 C 51.10 102.42 51.42 108.31 50.20 109.86 C 49.64 112.53 50.65 114.66 51.63 117.06 C 52.48 119.02 53.37 120.97 54.11 122.98 L 53.15 122.83 C 50.88 119.46 49.67 115.75 48.40 111.93 C 48.46 110.95 48.52 109.96 48.48 108.97 C 48.58 107.54 48.06 107.16 47.08 106.25 C 48.45 104.72 52.02 102.39 49.83 100.21 C 45.87 95.39 43.14 88.63 38.04 85.05 C 38.51 86.49 39.11 87.88 39.74 89.26 C 36.26 86.50 29.88 83.73 32.36 78.28 C 34.63 74.62 34.73 70.77 35.70 66.73 C 36.22 67.58 36.74 68.43 37.26 69.27 C 36.97 71.18 36.64 73.10 36.43 75.02 C 39.77 75.62 41.48 72.89 41.86 69.99 C 42.20 65.31 43.12 60.64 44.18 56.07 C 46.57 56.99 46.58 64.65 47.13 57.98 C 50.82 62.96 48.83 54.59 46.07 53.93 C 44.85 51.36 43.67 48.77 42.65 46.10 C 45.45 32.06 56.12 35.61 64.41 27.46 Z" fill="#e3dced" />
<path d="M 210.16 27.04 C 213.43 26.98 212.52 35.65 214.72 29.05 C 216.25 39.83 216.65 50.59 218.50 61.39 C 217.44 69.17 220.44 76.24 220.02 84.00 C 220.18 87.42 219.53 92.03 221.64 94.95 C 221.46 95.53 221.28 96.11 221.09 96.70 C 218.59 108.49 220.04 121.46 217.46 133.38 C 216.78 137.84 215.65 142.26 215.24 146.76 C 214.72 149.20 214.16 151.64 213.78 154.11 C 212.97 146.01 206.13 159.50 205.76 154.01 C 208.32 149.64 206.67 149.83 203.21 147.66 C 202.67 144.11 207.03 140.92 206.84 136.96 C 206.56 131.34 211.86 129.40 210.23 123.71 C 208.10 119.42 210.38 115.26 208.69 110.79 C 208.93 109.92 209.17 109.05 209.42 108.19 C 211.41 105.88 211.04 103.67 210.88 100.82 C 210.81 98.55 210.26 96.60 210.85 94.37 C 212.62 91.55 211.88 88.86 211.70 85.76 C 212.64 82.06 213.16 78.67 212.92 74.82 C 213.03 70.91 213.55 67.39 211.39 63.88 C 211.37 62.60 211.32 61.31 211.28 60.03 C 212.60 57.87 212.86 56.06 211.07 54.08 C 210.13 51.99 209.93 51.15 210.65 48.94 C 213.24 51.43 212.05 37.93 210.50 46.14 C 209.96 40.05 210.07 33.18 210.16 27.04 Z" fill="#f0e5c1" />
<path d="M 107.37 45.38 C 103.31 53.19 97.14 50.76 90.08 49.85 C 92.92 43.65 105.90 46.14 103.96 38.10 C 102.57 33.11 95.26 34.51 96.22 39.55 C 97.14 40.06 99.93 39.88 99.96 41.12 C 98.64 45.45 90.78 41.13 93.37 37.38 C 97.45 27.21 111.98 37.34 107.37 45.38 Z" fill="#a195b3" />
<path d="M 34.84 37.00 C 34.34 43.55 32.79 49.81 31.29 56.18 C 30.83 55.35 30.36 54.51 29.89 53.68 C 32.22 48.62 30.62 40.34 34.84 37.00 Z" fill="#cbc3af" />
<path d="M 39.62 36.85 C 40.44 39.99 41.45 43.08 42.65 46.10 C 43.67 48.77 44.85 51.36 46.07 53.93 C 40.23 49.85 33.60 44.12 39.62 36.85 Z" fill="#bab1c8" />
<path d="M 180.04 38.05 C 183.04 37.84 184.43 38.50 186.57 40.49 C 187.54 43.48 185.29 45.20 184.07 40.89 C 182.81 39.84 181.36 39.02 180.04 38.05 Z" fill="#9e96af" />
<path d="M 50.91 40.04 C 50.40 41.43 49.77 42.76 49.30 44.15 C 49.44 46.44 50.78 48.60 50.99 50.95 C 47.54 47.95 46.11 42.53 50.91 40.04 Z" fill="#a69eb3" />
<path d="M 210.65 48.94 C 210.63 48.01 210.58 47.08 210.50 46.14 C 212.05 37.93 213.24 51.43 210.65 48.94 Z" fill="#a39787" />
<path d="M 177.94 47.01 C 176.82 49.56 170.87 52.85 172.31 55.65 C 176.34 60.57 184.02 62.62 189.02 66.16 C 187.85 69.72 187.61 71.60 186.52 66.43 C 181.12 63.82 174.72 64.25 171.42 58.61 C 167.93 53.83 173.01 47.73 177.94 47.01 Z" fill="#a9a0bc" />
<path d="M 119.90 52.96 C 120.54 54.28 121.15 55.67 121.94 56.90 C 122.60 58.59 125.13 59.94 122.88 61.43 C 118.84 60.66 118.08 61.76 114.96 63.88 C 112.43 63.72 116.57 60.85 116.91 60.04 C 114.44 60.52 108.25 60.05 107.62 63.07 C 107.33 62.16 107.06 61.25 106.82 60.32 C 110.44 59.76 114.05 59.17 117.70 58.78 C 116.81 57.16 115.79 55.66 115.01 53.95 C 116.12 51.06 117.66 52.73 119.90 52.96 Z" fill="#cfcbdb" />
<path d="M 132.94 52.96 C 133.01 58.02 125.27 54.91 121.94 56.90 C 121.15 55.67 120.54 54.28 119.90 52.96 C 124.48 51.27 128.33 52.81 132.94 52.96 Z" fill="#8379a5" />
<path d="M 134.82 52.58 C 134.62 54.24 135.26 55.54 135.91 57.02 C 135.53 58.00 135.12 58.97 134.68 59.93 C 132.47 60.21 134.10 64.12 133.73 65.60 C 127.17 66.49 121.60 69.64 115.26 71.34 C 114.02 70.73 112.85 69.97 111.66 69.28 C 109.97 67.40 108.39 65.55 107.62 63.07 C 108.25 60.05 114.44 60.52 116.91 60.04 C 116.57 60.85 112.43 63.72 114.96 63.88 C 118.08 61.76 118.84 60.66 122.88 61.43 C 125.13 59.94 122.60 58.59 121.94 56.90 C 125.27 54.91 133.01 58.02 132.94 52.96 C 133.65 52.34 134.28 52.21 134.82 52.58 Z" fill="#a299bf" />
<path d="M 166.85 55.94 C 165.68 59.58 165.00 62.93 160.20 61.82 C 158.55 56.57 164.79 62.46 163.90 58.10 C 163.61 57.26 163.00 56.53 162.07 55.90 C 161.24 54.71 158.57 54.10 161.04 53.02 C 163.79 50.44 165.17 54.16 166.85 55.94 Z" fill="#a398b4" />
<path d="M 134.82 52.58 C 137.16 53.59 139.07 55.01 141.17 56.42 C 139.42 56.68 137.67 56.88 135.91 57.02 C 135.26 55.54 134.62 54.24 134.82 52.58 Z" fill="#605b76" />
<path d="M 145.66 52.95 C 145.99 55.56 146.15 58.17 146.64 60.75 C 146.79 62.41 146.93 64.08 147.05 65.74 C 147.12 70.84 146.31 75.87 144.85 80.74 C 144.00 83.51 143.30 86.34 142.68 89.17 C 142.23 86.72 141.85 84.30 141.23 81.89 L 141.04 81.09 L 141.06 80.13 C 144.81 76.49 144.25 71.56 143.34 66.77 C 142.99 65.55 142.57 64.36 142.14 63.17 C 144.34 57.28 138.91 58.73 136.02 61.15 L 134.68 59.93 C 135.12 58.97 135.53 58.00 135.91 57.02 C 137.67 56.88 139.42 56.68 141.17 56.42 C 145.60 59.34 142.86 54.95 145.66 52.95 Z" fill="#ede6d7" />
<path d="M 29.89 53.68 C 30.36 54.51 30.83 55.35 31.29 56.18 C 29.01 64.87 27.58 73.74 26.71 82.68 C 26.05 85.83 25.90 89.01 25.41 92.19 C 25.10 90.36 24.70 88.57 24.23 86.78 L 24.34 86.17 C 25.01 83.15 25.58 80.10 25.89 77.02 C 26.51 68.67 27.47 61.72 29.89 53.68 Z" fill="#9f9183" />
<path d="M 46.07 53.93 C 48.83 54.59 50.82 62.96 47.13 57.98 C 46.78 56.63 46.43 55.28 46.07 53.93 Z" fill="#a29caf" />
<path d="M 156.88 54.11 C 157.61 54.63 158.34 55.15 159.07 55.66 C 154.14 56.58 155.80 62.26 158.98 64.00 C 163.09 65.91 167.39 67.17 171.96 67.10 C 173.90 68.42 176.71 68.95 172.30 69.00 C 164.32 66.98 156.89 68.09 152.13 59.85 C 149.13 56.06 153.19 53.47 156.88 54.11 Z" fill="#a39bb2" />
<path d="M 168.03 55.94 C 169.13 60.16 172.58 62.15 171.96 67.10 C 167.39 67.17 163.09 65.91 158.98 64.00 C 155.80 62.26 154.14 56.58 159.07 55.66 C 160.07 55.74 161.07 55.82 162.07 55.90 C 163.00 56.53 163.61 57.26 163.90 58.10 C 164.79 62.46 158.55 56.57 160.20 61.82 C 165.00 62.93 165.68 59.58 166.85 55.94 C 167.60 54.11 167.46 53.35 168.03 55.94 Z" fill="#f1eff3" />
<path d="M 211.07 54.08 C 212.86 56.06 212.60 57.87 211.28 60.03 C 210.69 57.94 210.69 56.20 211.07 54.08 Z" fill="#7f7b77" />
<path d="M 63.28 55.30 C 65.84 54.53 68.33 55.06 70.82 55.79 C 73.45 58.68 78.36 64.49 73.81 67.81 C 69.09 72.69 57.44 72.69 53.64 80.62 C 50.61 88.12 57.46 94.67 59.05 102.77 C 63.25 102.14 62.88 97.96 66.94 97.85 C 65.99 100.22 64.48 102.16 62.83 104.08 C 61.04 104.42 59.48 104.89 57.94 105.91 C 52.97 99.67 53.11 89.81 50.93 82.19 C 52.67 77.52 56.05 74.61 59.03 70.83 C 65.66 69.55 69.49 70.89 72.69 63.67 C 74.78 58.96 65.35 52.73 63.60 59.64 C 61.59 63.91 66.75 62.30 68.97 62.18 C 66.60 66.20 63.68 65.51 60.43 62.96 C 62.03 60.49 60.73 56.69 63.28 55.30 Z" fill="#a599ba" />
<path d="M 90.74 56.07 C 90.61 58.94 90.27 61.58 89.33 64.30 C 94.12 65.13 92.42 66.18 92.69 70.14 C 83.01 75.08 81.70 81.77 80.13 91.76 C 81.73 90.77 83.30 89.73 84.93 88.78 C 84.28 89.77 83.62 90.76 82.93 91.72 C 77.84 95.15 81.23 99.89 79.26 105.23 C 78.88 103.43 78.44 101.64 77.94 99.87 C 77.55 98.29 76.98 96.89 76.85 95.27 C 79.45 89.42 78.33 83.91 78.59 77.99 C 78.48 75.20 80.72 73.55 77.84 71.52 C 79.05 68.93 80.81 66.60 81.85 63.94 C 82.31 59.60 87.69 59.02 90.74 56.07 Z" fill="#d7d1e4" />
<path d="M 106.82 60.32 C 107.06 61.25 107.33 62.16 107.62 63.07 C 108.39 65.55 109.97 67.40 111.66 69.28 C 112.77 71.01 113.96 72.54 115.59 73.81 C 120.01 80.37 125.91 83.51 126.73 92.14 C 128.32 99.52 125.69 102.58 122.93 108.77 C 130.78 108.32 131.95 96.63 130.02 90.84 C 131.15 90.45 131.81 90.51 131.99 91.03 C 132.29 95.08 133.56 98.96 133.97 102.98 C 133.60 106.07 131.13 109.07 129.78 111.87 C 128.95 112.58 128.12 113.30 127.27 113.99 C 122.11 116.92 117.02 118.61 114.03 124.09 C 111.74 126.80 111.74 129.35 113.88 132.13 C 117.19 135.68 115.76 139.61 116.07 144.07 C 115.16 146.04 114.34 147.96 114.01 150.12 C 108.52 152.28 114.45 141.85 112.50 139.95 C 108.86 131.80 100.99 131.16 99.91 121.13 C 101.13 117.01 99.81 116.02 105.04 116.84 C 109.29 116.12 112.19 105.10 107.69 102.33 C 104.14 99.64 100.89 97.15 99.12 92.88 C 97.85 88.45 100.94 83.92 104.65 81.84 C 100.66 90.18 104.63 92.82 111.79 95.97 C 111.84 89.42 113.62 83.19 108.95 77.93 C 105.71 73.33 106.26 67.76 103.23 62.90 C 104.00 59.64 104.10 53.12 106.82 60.32 Z" fill="#f5ecb4" />
<path d="M 187.78 57.80 C 191.80 60.17 195.16 60.92 199.81 60.71 C 202.55 60.82 203.10 61.45 203.92 63.99 C 201.56 69.49 197.44 74.11 191.97 76.66 C 189.27 78.12 186.81 79.80 183.88 80.81 C 187.59 75.17 199.61 73.08 198.66 64.01 C 197.85 61.66 186.95 62.28 187.78 57.80 Z" fill="#a59db7" />
<path d="M 142.14 63.17 C 140.16 62.73 137.66 62.43 136.02 61.15 C 138.91 58.73 144.34 57.28 142.14 63.17 Z" fill="#afa4bd" />
<path d="M 225.03 59.01 C 226.71 61.85 227.57 65.80 228.99 68.92 L 228.00 69.25 C 226.53 66.28 225.29 63.23 223.70 60.33 C 224.13 59.87 224.58 59.43 225.03 59.01 Z" fill="#67615b" />
<path d="M 134.68 59.93 L 136.02 61.15 C 137.66 62.43 140.16 62.73 142.14 63.17 C 142.57 64.36 142.99 65.55 143.34 66.77 C 143.18 68.87 142.96 70.97 142.63 73.06 C 140.90 69.65 142.31 67.33 138.20 71.19 C 140.93 74.87 141.51 74.67 141.06 80.13 L 141.04 81.09 C 136.99 79.86 137.89 75.70 134.99 74.03 C 131.17 76.15 126.90 76.46 123.02 78.42 C 120.24 77.87 118.38 73.29 115.59 73.81 C 113.96 72.54 112.77 71.01 111.66 69.28 C 112.85 69.97 114.02 70.73 115.26 71.34 C 121.60 69.64 127.17 66.49 133.73 65.60 C 134.10 64.12 132.47 60.21 134.68 59.93 Z" fill="#8474a6" />
<path d="M 146.64 60.75 C 149.54 63.03 152.31 65.49 155.11 67.89 C 153.61 68.27 152.16 68.71 150.63 68.97 C 150.83 65.71 150.13 65.36 147.05 65.74 C 146.93 64.08 146.79 62.41 146.64 60.75 Z" fill="#a69fb6" />
<path d="M 223.70 60.33 C 225.29 63.23 226.53 66.28 228.00 69.25 C 228.82 72.33 228.63 74.93 228.15 78.04 C 223.86 74.23 223.51 69.21 222.06 63.95 C 221.62 62.00 222.49 61.60 223.70 60.33 Z" fill="#dbd3b9" />
<path d="M 40.79 64.15 C 39.81 65.97 38.52 67.65 37.26 69.27 C 36.74 68.43 36.22 67.58 35.70 66.73 C 37.01 64.07 37.67 62.43 40.79 64.15 Z" fill="#aca7bc" />
<path d="M 103.23 62.90 C 106.26 67.76 105.71 73.33 108.95 77.93 C 105.54 79.82 101.13 79.67 98.16 82.11 C 94.28 84.35 90.69 92.25 85.71 89.00 C 89.96 84.18 95.53 80.62 100.26 76.26 C 101.41 74.95 104.33 73.79 103.45 71.72 C 104.76 67.48 98.96 73.93 96.95 73.05 C 99.66 69.56 102.93 67.73 103.23 62.90 Z" fill="#b0aeb7" />
<path d="M 121.10 64.12 C 122.79 64.70 123.96 65.42 125.04 66.86 C 122.30 66.55 118.17 68.48 121.10 64.12 Z" fill="#d8d0e9" />
<path d="M 211.39 63.88 C 213.55 67.39 213.03 70.91 212.92 74.82 C 212.35 75.95 211.79 77.07 211.23 78.20 C 210.93 73.41 210.79 68.65 211.39 63.88 Z" fill="#88827d" />
<path d="M 150.63 68.97 C 152.16 68.71 153.61 68.27 155.11 67.89 C 156.03 68.30 156.95 68.72 157.86 69.14 C 160.60 71.53 159.30 80.96 154.71 79.82 C 154.00 81.49 153.56 83.29 153.02 85.02 C 149.67 82.01 147.39 85.45 144.85 80.74 C 146.31 75.87 147.12 70.84 147.05 65.74 C 150.13 65.36 150.83 65.71 150.63 68.97 Z" fill="#857d9a" />
<path d="M 100.94 66.06 C 98.63 70.66 89.28 75.32 89.63 80.21 C 88.40 82.23 85.92 83.92 85.63 86.28 C 85.40 87.12 85.17 87.95 84.93 88.78 C 83.30 89.73 81.73 90.77 80.13 91.76 C 81.70 81.77 83.01 75.08 92.69 70.14 C 95.30 68.20 97.60 66.47 100.94 66.06 Z" fill="#a79cb7" />
<path d="M 143.34 66.77 C 144.25 71.56 144.81 76.49 141.06 80.13 C 141.51 74.67 140.93 74.87 138.20 71.19 C 142.31 67.33 140.90 69.65 142.63 73.06 C 142.96 70.97 143.18 68.87 143.34 66.77 Z" fill="#c0a5b6" />
<path d="M 157.86 69.14 C 160.08 70.04 161.99 71.32 163.85 72.81 C 161.63 73.39 161.19 75.69 163.94 75.74 C 163.59 80.74 157.03 84.63 157.06 90.01 C 160.59 87.59 160.19 81.97 164.77 80.89 C 162.09 85.74 159.23 91.04 155.59 95.20 C 156.80 89.10 152.50 94.22 154.22 96.67 C 151.59 98.21 152.08 97.49 153.52 99.96 C 152.27 102.00 150.67 103.80 149.50 105.91 C 145.72 110.07 146.66 118.21 141.33 122.26 C 141.29 120.76 141.11 119.29 140.93 117.81 C 144.65 113.18 144.35 105.36 146.04 99.14 C 145.97 94.71 147.27 100.12 148.66 100.94 C 151.16 95.84 151.89 90.49 153.02 85.02 C 153.56 83.29 154.00 81.49 154.71 79.82 C 159.30 80.96 160.60 71.53 157.86 69.14 Z" fill="#decbc7" />
<path d="M 228.00 69.25 L 228.99 68.92 C 231.10 72.92 232.23 77.21 233.07 81.63 C 231.93 83.85 232.68 85.92 233.78 87.98 C 233.27 92.64 236.57 102.15 232.04 105.22 C 229.85 98.29 221.30 92.19 222.10 85.01 C 226.95 87.91 227.62 93.78 231.72 96.93 C 234.57 90.77 230.24 90.06 228.58 85.03 C 229.31 82.48 229.86 80.34 228.15 78.04 C 228.63 74.93 228.82 72.33 228.00 69.25 Z" fill="#29293e" />
<path d="M 103.45 71.72 C 97.33 76.38 91.43 81.25 85.63 86.28 C 85.92 83.92 88.40 82.23 89.63 80.21 C 91.80 77.53 94.35 75.29 96.95 73.05 C 98.96 73.93 104.76 67.48 103.45 71.72 Z" fill="#747286" />
<path d="M 59.03 70.83 C 56.05 74.61 52.67 77.52 50.93 82.19 C 49.54 78.09 54.19 69.83 59.03 70.83 Z" fill="#c4bdd4" />
<path d="M 77.84 71.52 C 80.72 73.55 78.48 75.20 78.59 77.99 C 78.33 83.91 79.45 89.42 76.85 95.27 C 73.68 91.77 77.05 86.39 73.92 83.63 C 74.37 79.18 75.47 75.34 77.84 71.52 Z" fill="#beb4d4" />
<path d="M 103.45 71.72 C 104.33 73.79 101.41 74.95 100.26 76.26 C 95.53 80.62 89.96 84.18 85.71 89.00 L 84.93 88.78 C 85.17 87.95 85.40 87.12 85.63 86.28 C 91.43 81.25 97.33 76.38 103.45 71.72 Z" fill="#d8d7e2" />
<path d="M 48.95 73.04 C 48.29 75.24 47.39 77.29 46.58 79.43 C 46.12 80.64 45.67 81.86 45.14 83.04 C 44.60 78.89 45.03 75.27 48.95 73.04 Z" fill="#b8b2c6" />
<path d="M 123.02 78.42 C 126.90 76.46 131.17 76.15 134.99 74.03 C 137.89 75.70 136.99 79.86 141.04 81.09 L 141.23 81.89 C 141.20 86.76 140.41 91.49 139.29 96.22 C 135.86 88.91 134.84 97.12 131.99 91.03 C 131.81 90.51 131.15 90.45 130.02 90.84 C 127.52 90.02 126.85 87.80 126.73 92.14 C 125.91 83.51 120.01 80.37 115.59 73.81 C 118.38 73.29 120.24 77.87 123.02 78.42 Z" fill="#786995" />
<path d="M 163.85 72.81 C 165.93 74.09 168.07 75.12 170.24 76.26 C 167.69 86.98 159.36 95.15 156.03 105.93 C 164.17 98.46 170.92 89.50 178.79 81.80 C 179.41 81.08 184.82 78.80 182.05 81.12 C 176.30 85.83 173.19 92.06 168.98 97.99 C 166.21 102.13 161.09 105.81 159.84 110.69 C 154.49 114.03 151.10 120.22 146.11 124.14 L 144.90 122.72 C 148.72 117.96 151.99 112.81 155.00 107.51 C 153.12 107.13 150.12 108.34 149.50 105.91 C 150.67 103.80 152.27 102.00 153.52 99.96 C 152.08 97.49 151.59 98.21 154.22 96.67 C 152.50 94.22 156.80 89.10 155.59 95.20 C 159.23 91.04 162.09 85.74 164.77 80.89 C 160.19 81.97 160.59 87.59 157.06 90.01 C 157.03 84.63 163.59 80.74 163.94 75.74 C 161.19 75.69 161.63 73.39 163.85 72.81 Z" fill="#796a97" />
<path d="M 23.28 75.21 C 24.18 75.77 25.04 76.39 25.89 77.02 C 25.58 80.10 25.01 83.15 24.34 86.17 C 20.04 83.60 23.11 79.17 23.28 75.21 Z" fill="#deceb7" />
<path d="M 212.92 74.82 C 213.16 78.67 212.64 82.06 211.70 85.76 C 210.91 88.61 210.98 91.44 210.85 94.37 C 208.14 93.28 210.17 87.12 209.86 84.85 C 209.97 83.63 210.07 82.42 210.19 81.20 C 210.55 80.20 210.89 79.20 211.23 78.20 C 211.79 77.07 212.35 75.95 212.92 74.82 Z" fill="#2c293b" />
<path d="M 108.95 77.93 C 113.62 83.19 111.84 89.42 111.79 95.97 C 104.63 92.82 100.66 90.18 104.65 81.84 C 100.94 83.92 97.85 88.45 99.12 92.88 C 100.89 97.15 104.14 99.64 107.69 102.33 C 112.19 105.10 109.29 116.12 105.04 116.84 C 102.99 112.41 103.38 108.53 103.52 103.89 C 97.46 108.54 97.94 114.44 99.91 121.13 C 100.99 131.16 108.86 131.80 112.50 139.95 C 109.58 143.10 106.36 145.55 104.46 149.55 C 103.66 151.62 102.54 150.37 100.95 150.16 C 100.70 145.29 104.24 141.69 103.90 136.96 C 100.85 141.00 96.45 145.10 94.87 149.93 C 90.54 144.81 92.64 141.71 95.89 136.84 C 97.32 130.91 91.62 132.55 89.10 128.88 C 84.96 123.25 85.35 118.03 77.76 115.13 C 78.97 113.30 80.50 111.77 81.98 110.16 C 83.69 112.08 85.57 118.07 87.66 112.87 C 86.13 110.10 83.86 107.53 85.43 104.23 C 86.71 101.73 85.71 100.24 84.99 97.78 C 83.64 95.60 87.33 94.39 87.88 92.13 C 86.21 91.49 84.67 91.54 82.93 91.72 C 83.62 90.76 84.28 89.77 84.93 88.78 L 85.71 89.00 C 90.69 92.25 94.28 84.35 98.16 82.11 C 101.13 79.67 105.54 79.82 108.95 77.93 Z" fill="#747082" />
<path d="M 201.95 78.06 C 202.08 80.40 198.55 80.97 196.96 82.07 L 196.67 81.14 C 198.16 79.44 199.59 78.21 201.95 78.06 Z" fill="#8b8c95" />
<path d="M 228.15 78.04 C 229.86 80.34 229.31 82.48 228.58 85.03 C 227.49 82.71 227.63 80.48 228.15 78.04 Z" fill="#92939d" />
<path d="M 206.98 79.02 C 205.34 81.24 202.95 82.44 201.71 84.98 C 200.90 85.58 198.66 86.59 199.38 87.85 C 201.32 88.82 202.13 86.57 201.71 84.98 C 206.36 87.30 204.15 83.36 207.92 82.42 L 208.54 83.88 C 205.54 87.06 201.34 89.65 197.29 91.32 C 192.70 94.31 189.25 98.60 184.29 101.19 C 182.38 97.29 176.19 98.74 179.36 94.77 C 180.06 93.94 176.24 94.23 175.74 93.93 C 176.73 93.01 177.74 92.13 178.82 91.33 C 180.54 91.70 182.26 92.00 184.00 92.23 C 182.98 93.43 182.00 94.67 181.11 95.97 C 184.33 93.50 193.28 93.94 191.97 88.32 C 193.70 86.54 195.57 84.93 197.15 83.00 C 200.70 82.22 203.54 80.03 206.98 79.02 Z" fill="#918fa2" />
<path d="M 195.70 79.85 L 196.15 80.54 C 194.53 82.12 192.93 83.51 190.76 84.28 L 189.82 83.77 C 191.60 81.89 192.92 80.13 195.70 79.85 Z" fill="#9695a7" />
<path d="M 144.85 80.74 C 147.39 85.45 149.67 82.01 153.02 85.02 C 151.89 90.49 151.16 95.84 148.66 100.94 C 147.27 100.12 145.97 94.71 146.04 99.14 C 138.91 100.56 148.21 95.54 148.09 93.16 C 145.80 94.48 143.71 96.09 141.47 97.48 C 141.86 94.71 142.27 91.94 142.68 89.17 C 143.30 86.34 144.00 83.51 144.85 80.74 Z" fill="#776589" />
<path d="M 196.15 80.54 L 196.67 81.14 L 196.96 82.07 L 197.15 83.00 C 195.08 83.61 193.57 84.77 192.00 86.19 C 191.59 85.55 191.17 84.92 190.76 84.28 C 192.93 83.51 194.53 82.12 196.15 80.54 Z" fill="#28263f" />
<path d="M 210.19 81.20 C 210.07 82.42 209.97 83.63 209.86 84.85 C 209.06 86.51 208.23 88.16 207.36 89.78 C 203.41 88.51 202.62 90.58 199.93 92.85 C 198.10 94.52 196.89 96.64 195.57 98.71 C 191.52 99.41 188.28 100.55 184.87 102.86 L 184.04 103.19 C 180.55 102.85 183.10 102.41 184.29 101.19 C 189.25 98.60 192.70 94.31 197.29 91.32 C 201.34 89.65 205.54 87.06 208.54 83.88 L 207.92 82.42 C 208.67 82.01 209.43 81.60 210.19 81.20 Z" fill="#d0cfd6" />
<path d="M 141.23 81.89 C 141.85 84.30 142.23 86.72 142.68 89.17 C 142.27 91.94 141.86 94.71 141.47 97.48 C 138.56 100.82 139.14 100.48 139.29 96.22 C 140.41 91.49 141.20 86.76 141.23 81.89 Z" fill="#c5a5b7" />
<path d="M 233.07 81.63 C 234.65 83.70 234.37 85.61 233.78 87.98 C 232.68 85.92 231.93 83.85 233.07 81.63 Z" fill="#9a98a6" />
<path d="M 26.71 82.68 C 29.70 87.88 28.82 92.91 29.83 98.71 C 26.39 100.37 28.47 108.04 28.14 111.80 C 26.87 110.47 27.02 108.78 26.55 107.02 C 26.00 108.86 25.53 110.73 25.06 112.60 L 24.12 113.11 C 23.41 105.99 24.87 99.24 25.41 92.19 C 25.90 89.01 26.05 85.83 26.71 82.68 Z" fill="#ece2c6" />
<path d="M 187.34 84.98 C 185.70 85.60 182.81 89.72 182.55 85.90 C 182.83 84.17 187.39 81.98 187.34 84.98 Z" fill="#9f9ca9" />
<path d="M 197.15 83.00 C 195.57 84.93 193.70 86.54 191.97 88.32 C 193.28 93.94 184.33 93.50 181.11 95.97 C 182.00 94.67 182.98 93.43 184.00 92.23 C 186.96 90.49 189.54 88.59 192.00 86.19 C 193.57 84.77 195.08 83.61 197.15 83.00 Z" fill="#cccad8" />
<path d="M 73.92 83.63 C 77.05 86.39 73.68 91.77 76.85 95.27 C 76.98 96.89 77.55 98.29 77.94 99.87 C 75.89 103.74 76.10 105.20 72.15 101.78 C 72.59 100.14 74.68 93.28 71.05 95.98 L 71.20 94.16 C 74.36 93.44 72.27 86.34 73.92 83.63 Z" fill="#8e7bae" />
<path d="M 189.82 83.77 L 190.76 84.28 C 191.17 84.92 191.59 85.55 192.00 86.19 C 189.54 88.59 186.96 90.49 184.00 92.23 C 182.26 92.00 180.54 91.70 178.82 91.33 C 180.91 89.94 181.50 87.99 182.55 85.90 C 182.81 89.72 185.70 85.60 187.34 84.98 C 188.16 84.57 188.99 84.16 189.82 83.77 Z" fill="#5a586c" />
<path d="M 38.04 85.05 C 43.14 88.63 45.87 95.39 49.83 100.21 C 52.02 102.39 48.45 104.72 47.08 106.25 C 43.85 103.59 40.02 98.70 43.73 94.82 C 43.30 92.58 41.28 90.80 39.74 89.26 C 39.11 87.88 38.51 86.49 38.04 85.05 Z" fill="#b19ad4" />
<path d="M 201.71 84.98 C 202.13 86.57 201.32 88.82 199.38 87.85 C 198.66 86.59 200.90 85.58 201.71 84.98 Z" fill="#e9e9f3" />
<path d="M 209.86 84.85 C 210.17 87.12 208.14 93.28 210.85 94.37 C 210.26 96.60 210.81 98.55 210.88 100.82 C 210.77 101.72 208.22 107.75 208.62 103.66 C 208.92 98.91 204.89 105.69 204.28 106.78 C 199.62 105.81 199.67 111.95 197.73 114.72 C 193.09 114.13 195.55 109.39 196.09 106.43 C 200.08 110.26 202.07 103.58 196.87 102.98 C 198.23 100.68 198.05 101.12 196.19 99.33 L 195.57 98.71 C 196.89 96.64 198.10 94.52 199.93 92.85 C 203.27 99.02 205.22 92.94 207.36 89.78 C 208.23 88.16 209.06 86.51 209.86 84.85 Z" fill="#715163" />
<path d="M 211.70 85.76 C 211.88 88.86 212.62 91.55 210.85 94.37 C 210.98 91.44 210.91 88.61 211.70 85.76 Z" fill="#a09ca8" />
<path d="M 24.23 86.78 C 24.70 88.57 25.10 90.36 25.41 92.19 C 24.87 99.24 23.41 105.99 24.12 113.11 L 23.73 115.21 C 23.21 112.76 22.80 110.28 22.30 107.82 C 21.36 102.98 23.30 98.61 22.76 93.78 C 22.91 91.32 23.15 89.04 24.23 86.78 Z" fill="#72626b" />
<path d="M 130.02 90.84 C 131.95 96.63 130.78 108.32 122.93 108.77 C 125.69 102.58 128.32 99.52 126.73 92.14 C 126.85 87.80 127.52 90.02 130.02 90.84 Z" fill="#635f6b" />
<path d="M 207.36 89.78 C 205.22 92.94 203.27 99.02 199.93 92.85 C 202.62 90.58 203.41 88.51 207.36 89.78 Z" fill="#a696a1" />
<path d="M 71.16 92.99 C 70.19 93.67 69.18 94.30 68.19 94.95 C 68.22 92.85 71.26 87.15 71.16 92.99 Z" fill="#b1b1b0" />
<path d="M 87.88 92.13 C 87.33 94.39 83.64 95.60 84.99 97.78 C 85.71 100.24 86.71 101.73 85.43 104.23 C 83.86 107.53 86.13 110.10 87.66 112.87 C 85.57 118.07 83.69 112.08 81.98 110.16 C 80.77 108.54 79.41 107.39 79.26 105.23 C 81.23 99.89 77.84 95.15 82.93 91.72 C 84.67 91.54 86.21 91.49 87.88 92.13 Z" fill="#8e768d" />
<path d="M 131.99 91.03 C 134.84 97.12 135.86 88.91 139.29 96.22 C 139.14 100.48 138.56 100.82 141.47 97.48 C 143.71 96.09 145.80 94.48 148.09 93.16 C 148.21 95.54 138.91 100.56 146.04 99.14 C 144.35 105.36 144.65 113.18 140.93 117.81 C 141.11 119.29 141.29 120.76 141.33 122.26 C 140.69 123.76 140.21 125.26 139.96 126.88 C 141.66 125.56 143.24 124.09 144.90 122.72 L 146.11 124.14 C 146.12 125.43 143.73 129.13 146.62 127.60 C 149.02 125.01 150.87 122.02 153.61 119.71 C 152.92 122.18 153.52 126.21 152.18 128.16 C 149.97 129.33 143.45 131.41 144.38 134.73 C 145.69 136.87 144.35 138.01 143.75 140.15 C 139.15 138.46 142.73 133.59 136.10 133.04 C 137.19 136.97 140.41 141.06 137.89 145.07 C 136.88 145.15 135.88 145.22 134.87 145.28 C 134.46 140.31 136.99 137.37 130.71 140.70 C 131.46 136.85 133.15 135.08 129.40 132.32 C 127.25 137.02 125.92 137.53 121.11 138.75 C 122.84 145.17 124.46 145.39 119.29 150.68 L 118.44 151.16 C 118.03 148.72 117.56 146.32 116.97 143.92 C 116.99 142.05 117.06 140.17 117.22 138.30 C 121.12 133.68 121.32 133.03 127.54 131.68 C 127.77 125.19 129.28 118.47 129.78 111.87 C 131.13 109.07 133.60 106.07 133.97 102.98 C 133.56 98.96 132.29 95.08 131.99 91.03 Z" fill="#615770" />
<path d="M 71.16 92.99 L 71.20 94.16 L 71.05 95.98 C 70.75 96.91 70.42 97.83 70.09 98.74 C 67.49 100.80 65.34 103.24 63.20 105.74 L 62.83 104.08 C 64.48 102.16 65.99 100.22 66.94 97.85 C 67.38 96.89 67.80 95.93 68.19 94.95 C 69.18 94.30 70.19 93.67 71.16 92.99 Z" fill="#645777" />
<path d="M 22.76 93.78 C 23.30 98.61 21.36 102.98 22.30 107.82 C 22.07 109.59 21.76 111.35 21.44 113.11 C 18.68 106.96 21.07 99.96 22.76 93.78 Z" fill="#c0b3a3" />
<path d="M 175.74 93.93 C 176.24 94.23 180.06 93.94 179.36 94.77 C 176.19 98.74 182.38 97.29 184.29 101.19 C 183.10 102.41 180.55 102.85 184.04 103.19 C 179.88 104.59 176.10 107.09 171.88 108.15 L 170.97 108.13 C 168.26 107.96 165.69 108.46 163.08 109.07 C 166.13 103.30 170.92 98.28 175.74 93.93 Z" fill="#6d698a" />
<path d="M 72.15 101.78 C 70.90 102.84 69.67 103.94 68.49 105.09 C 67.21 102.49 74.34 99.07 70.09 98.74 C 70.42 97.83 70.75 96.91 71.05 95.98 C 74.68 93.28 72.59 100.14 72.15 101.78 Z" fill="#d1cad9" />
<path d="M 221.64 94.95 C 227.03 104.14 229.54 115.34 229.03 125.95 L 228.14 126.07 C 227.71 118.23 226.72 110.11 223.66 102.85 C 223.09 100.60 222.28 98.68 221.09 96.70 C 221.28 96.11 221.46 95.53 221.64 94.95 Z" fill="#3b3b48" />
<path d="M 221.09 96.70 C 222.28 98.68 223.09 100.60 223.66 102.85 C 224.85 117.77 227.25 132.82 222.51 147.88 C 220.41 150.30 218.46 152.81 216.92 155.63 C 213.92 155.03 217.19 149.31 215.24 146.76 C 215.65 142.26 216.78 137.84 217.46 133.38 C 220.04 121.46 218.59 108.49 221.09 96.70 Z" fill="#d8d6cf" />
<path d="M 70.09 98.74 C 74.34 99.07 67.21 102.49 68.49 105.09 C 63.00 110.45 63.57 115.12 65.88 121.94 C 63.02 118.79 60.05 115.06 55.98 119.09 C 55.92 115.00 54.24 110.97 51.63 117.06 C 50.65 114.66 49.64 112.53 50.20 109.86 C 53.18 110.50 54.59 112.92 57.29 110.30 C 59.37 107.74 59.84 113.31 61.93 114.02 C 62.12 110.47 59.97 108.48 57.94 105.91 C 59.48 104.89 61.04 104.42 62.83 104.08 L 63.20 105.74 C 65.34 103.24 67.49 100.80 70.09 98.74 Z" fill="#9079b4" />
<path d="M 195.57 98.71 L 196.19 99.33 C 191.57 100.97 192.27 100.97 196.03 102.73 C 193.84 103.58 192.79 105.32 191.21 106.91 C 192.65 100.97 188.86 102.90 184.87 102.86 C 188.28 100.55 191.52 99.41 195.57 98.71 Z" fill="#787986" />
<path d="M 77.94 99.87 C 78.44 101.64 78.88 103.43 79.26 105.23 C 79.41 107.39 80.77 108.54 81.98 110.16 C 80.50 111.77 78.97 113.30 77.76 115.13 C 75.78 114.75 69.71 113.58 73.97 116.94 C 74.13 119.75 74.13 120.61 76.30 122.48 C 75.89 124.53 75.04 126.18 75.60 128.33 C 75.69 129.24 75.78 130.15 75.87 131.05 C 70.73 129.75 67.49 126.10 63.13 124.07 C 62.43 127.43 64.32 129.35 65.92 131.99 C 65.76 135.46 68.86 142.19 73.26 139.96 C 75.22 140.59 76.21 141.00 77.29 142.86 C 75.07 142.76 72.90 142.58 70.69 142.77 C 68.39 142.04 66.90 140.46 64.93 139.16 C 65.88 141.14 67.32 142.84 67.98 144.91 C 65.67 144.53 64.04 142.15 61.99 141.02 C 62.54 140.56 63.08 140.09 63.61 139.61 C 61.07 136.33 58.59 133.19 56.96 129.33 C 62.88 128.34 56.21 122.55 55.98 119.09 C 60.05 115.06 63.02 118.79 65.88 121.94 C 63.57 115.12 63.00 110.45 68.49 105.09 C 69.67 103.94 70.90 102.84 72.15 101.78 C 76.10 105.20 75.89 103.74 77.94 99.87 Z" fill="#655b75" />
<path d="M 196.19 99.33 C 198.05 101.12 198.23 100.68 196.87 102.98 L 196.03 102.73 C 192.27 100.97 191.57 100.97 196.19 99.33 Z" fill="#b1b2ba" />
<path d="M 210.88 100.82 C 211.04 103.67 211.41 105.88 209.42 108.19 L 208.63 106.04 C 205.29 113.65 204.11 122.60 202.26 130.72 C 199.34 136.70 197.25 142.75 195.11 149.02 C 195.26 142.10 193.30 152.27 189.39 151.26 C 190.67 146.39 186.86 144.64 184.85 140.78 C 184.29 137.92 186.83 135.86 186.95 132.89 C 189.92 131.09 192.87 130.17 194.51 126.83 C 199.96 127.20 200.71 123.25 202.36 119.08 C 203.86 114.48 206.95 112.46 203.84 107.65 L 204.28 106.78 C 204.89 105.69 208.92 98.91 208.62 103.66 C 208.22 107.75 210.77 101.72 210.88 100.82 Z" fill="#ca9398" />
<path d="M 191.21 106.91 C 192.79 105.32 193.84 103.58 196.03 102.73 L 196.87 102.98 C 202.07 103.58 200.08 110.26 196.09 106.43 C 195.55 109.39 193.09 114.13 197.73 114.72 C 199.67 111.95 199.62 105.81 204.28 106.78 L 203.84 107.65 C 202.53 109.96 201.34 112.32 200.23 114.73 C 197.18 115.70 197.01 120.66 194.16 118.78 C 189.76 122.06 184.97 124.40 180.03 126.73 C 180.17 124.46 180.87 122.03 180.46 119.82 C 180.37 114.94 174.67 111.88 171.88 108.15 C 176.10 107.09 179.88 104.59 184.04 103.19 L 184.87 102.86 C 188.86 102.90 192.65 100.97 191.21 106.91 Z" fill="#3e374d" />
<path d="M 103.52 103.89 C 103.38 108.53 102.99 112.41 105.04 116.84 C 99.81 116.02 101.13 117.01 99.91 121.13 C 97.94 114.44 97.46 108.54 103.52 103.89 Z" fill="#c3bea7" />
<path d="M 53.22 106.74 C 53.83 109.56 57.88 107.94 57.94 105.91 C 59.97 108.48 62.12 110.47 61.93 114.02 C 59.84 113.31 59.37 107.74 57.29 110.30 C 54.59 112.92 53.18 110.50 50.20 109.86 C 51.42 108.31 51.10 102.42 53.22 106.74 Z" fill="#b9a4d6" />
<path d="M 149.50 105.91 C 150.12 108.34 153.12 107.13 155.00 107.51 C 151.99 112.81 148.72 117.96 144.90 122.72 C 143.24 124.09 141.66 125.56 139.96 126.88 C 140.21 125.26 140.69 123.76 141.33 122.26 C 146.66 118.21 145.72 110.07 149.50 105.91 Z" fill="#916fb9" />
<path d="M 208.63 106.04 L 209.42 108.19 C 209.17 109.05 208.93 109.92 208.69 110.79 C 207.50 119.17 204.18 126.11 203.50 134.63 C 201.01 140.82 202.75 146.33 198.96 151.92 C 197.76 155.72 192.61 164.05 200.04 164.32 C 197.04 168.40 195.61 169.65 196.16 175.06 C 190.91 176.36 191.07 185.35 186.96 188.58 C 185.93 188.09 184.93 187.51 183.92 186.98 C 183.06 183.16 186.66 178.54 187.96 174.99 C 190.40 170.37 190.64 164.69 193.06 160.25 C 196.16 158.73 193.10 156.29 194.61 153.63 C 195.72 150.36 198.92 149.28 198.53 145.93 C 198.93 140.94 203.34 135.47 202.26 130.72 C 204.11 122.60 205.29 113.65 208.63 106.04 Z" fill="#69496e" />
<path d="M 26.55 107.02 C 27.02 108.78 26.87 110.47 28.14 111.80 C 31.46 115.00 28.79 119.48 31.74 123.24 C 31.40 124.37 31.06 125.50 30.75 126.64 C 28.52 129.94 30.73 139.92 34.97 134.98 C 35.41 136.30 35.60 137.38 36.89 138.14 C 38.97 139.70 41.15 140.96 43.01 142.81 C 41.67 142.60 40.33 142.33 39.00 142.04 C 38.40 141.59 37.80 141.16 37.20 140.73 C 35.64 138.96 33.30 142.46 33.49 143.79 C 35.02 144.51 36.41 141.67 37.20 140.73 C 38.04 144.53 35.38 145.43 38.37 149.10 C 36.43 150.64 34.79 148.02 33.09 147.19 C 33.75 149.68 34.54 152.08 34.83 154.66 C 34.10 157.26 34.69 159.59 34.77 162.25 C 32.65 159.25 31.64 156.02 30.01 152.73 C 28.04 146.59 27.66 140.21 25.98 134.00 C 25.00 127.13 28.08 118.85 25.06 112.60 C 25.53 110.73 26.00 108.86 26.55 107.02 Z" fill="#d3bfae" />
<path d="M 22.30 107.82 C 22.80 110.28 23.21 112.76 23.73 115.21 C 24.29 121.45 23.71 127.70 24.10 133.96 C 24.33 140.69 25.41 147.35 25.37 154.14 L 24.09 153.07 C 21.90 148.09 23.93 142.46 21.80 137.25 C 23.62 132.47 20.94 128.66 21.55 123.79 C 22.01 120.44 22.19 117.22 21.51 113.88 L 21.44 113.11 C 21.76 111.35 22.07 109.59 22.30 107.82 Z" fill="#463855" />
<path d="M 48.48 108.97 C 48.52 109.96 48.46 110.95 48.40 111.93 C 45.67 113.85 41.99 112.62 46.12 116.36 C 43.03 117.03 40.29 116.48 37.99 119.06 C 35.44 116.98 35.50 114.51 36.62 111.62 C 36.69 108.23 43.48 112.42 43.45 110.30 C 42.18 106.06 46.16 111.44 48.48 108.97 Z" fill="#b0a8cd" />
<path d="M 170.97 108.13 C 170.25 109.27 169.57 110.43 168.94 111.62 C 167.38 116.31 163.70 112.76 163.91 116.81 C 160.49 114.09 160.57 117.26 158.06 119.21 C 157.73 118.38 157.41 117.55 157.07 116.72 C 158.57 114.96 159.87 113.15 160.99 111.13 C 161.70 110.45 162.39 109.77 163.08 109.07 C 165.69 108.46 168.26 107.96 170.97 108.13 Z" fill="#4c3d54" />
<path d="M 170.97 108.13 L 171.88 108.15 C 174.67 111.88 180.37 114.94 180.46 119.82 C 179.24 121.81 175.51 131.93 172.37 127.89 C 174.48 120.96 174.88 116.66 168.94 111.62 C 169.57 110.43 170.25 109.27 170.97 108.13 Z" fill="#9a383c" />
<path d="M 203.84 107.65 C 206.95 112.46 203.86 114.48 202.36 119.08 C 201.93 117.33 201.39 116.10 200.23 114.73 C 201.34 112.32 202.53 109.96 203.84 107.65 Z" fill="#9c646b" />
<path d="M 159.84 110.69 L 160.99 111.13 C 159.87 113.15 158.57 114.96 157.07 116.72 C 155.91 117.70 154.73 118.68 153.61 119.71 C 150.87 122.02 149.02 125.01 146.62 127.60 C 143.73 129.13 146.12 125.43 146.11 124.14 C 151.10 120.22 154.49 114.03 159.84 110.69 Z" fill="#b59dd5" />
<path d="M 208.69 110.79 C 210.38 115.26 208.10 119.42 210.23 123.71 C 211.86 129.40 206.56 131.34 206.84 136.96 C 207.03 140.92 202.67 144.11 203.21 147.66 C 206.67 149.83 208.32 149.64 205.76 154.01 C 204.71 156.05 203.51 156.63 205.17 158.84 C 205.99 163.23 204.91 165.64 200.04 164.32 C 192.61 164.05 197.76 155.72 198.96 151.92 C 202.75 146.33 201.01 140.82 203.50 134.63 C 204.18 126.11 207.50 119.17 208.69 110.79 Z" fill="#9f6f8b" />
<path d="M 48.40 111.93 C 49.67 115.75 50.88 119.46 53.15 122.83 C 51.44 122.77 50.81 122.07 49.66 120.95 C 48.71 119.17 47.68 117.67 46.12 116.36 C 41.99 112.62 45.67 113.85 48.40 111.93 Z" fill="#645c75" />
<path d="M 129.78 111.87 C 129.28 118.47 127.77 125.19 127.54 131.68 C 121.32 133.03 121.12 133.68 117.22 138.30 C 117.15 130.77 118.63 121.80 125.72 117.67 C 127.29 116.35 127.69 116.08 127.27 113.99 C 128.12 113.30 128.95 112.58 129.78 111.87 Z" fill="#2c263b" />
<path d="M 168.94 111.62 C 174.88 116.66 174.48 120.96 172.37 127.89 C 175.51 131.93 179.24 121.81 180.46 119.82 C 180.87 122.03 180.17 124.46 180.03 126.73 C 184.97 124.40 189.76 122.06 194.16 118.78 C 197.01 120.66 197.18 115.70 200.23 114.73 C 201.39 116.10 201.93 117.33 202.36 119.08 C 200.71 123.25 199.96 127.20 194.51 126.83 C 192.87 130.17 189.92 131.09 186.95 132.89 C 184.61 133.71 182.37 134.69 180.20 135.88 C 179.22 136.37 178.20 136.79 177.15 137.15 C 171.00 141.42 167.04 138.21 160.18 139.07 C 165.43 141.58 173.18 141.53 178.99 138.95 C 178.36 141.07 178.93 141.92 179.86 143.75 C 179.30 144.44 178.75 145.13 178.20 145.83 C 175.42 147.53 172.85 146.83 169.83 146.54 C 171.65 148.53 173.77 150.27 175.76 152.09 C 176.16 153.09 176.56 154.09 176.96 155.09 L 177.16 156.94 C 175.27 155.79 173.55 153.64 171.17 154.09 C 171.95 158.71 172.26 160.80 169.51 164.87 C 166.22 171.76 162.39 178.17 159.02 185.00 C 154.49 192.48 153.63 200.22 153.80 208.80 C 152.06 215.05 150.56 220.95 142.98 221.12 C 141.11 215.59 137.68 211.54 133.75 207.38 C 134.50 206.87 135.25 206.36 136.00 205.84 C 143.60 204.02 146.81 198.97 145.68 191.37 C 140.41 187.55 137.30 184.57 137.13 177.70 C 137.07 176.97 137.01 176.24 136.97 175.51 C 139.56 167.75 145.73 163.86 151.05 158.14 C 152.94 152.80 162.43 148.09 158.09 142.27 C 150.94 142.07 156.69 139.66 153.24 137.08 C 152.57 142.48 150.03 147.53 145.04 150.08 C 142.13 151.73 140.18 154.82 140.08 158.18 C 139.15 160.21 138.03 162.13 136.98 164.09 C 135.98 165.80 135.75 168.04 135.33 169.97 C 134.27 170.69 133.18 171.38 132.09 172.06 C 131.12 171.71 130.14 171.40 129.15 171.10 C 126.44 169.50 122.60 170.80 122.08 173.84 C 123.80 173.42 125.50 172.74 127.18 172.16 C 124.80 174.99 121.11 175.99 118.79 178.74 C 117.51 181.20 117.08 184.28 117.10 187.03 C 119.64 186.15 120.97 176.02 123.19 178.02 C 122.66 179.92 122.48 181.45 123.90 183.02 C 124.32 186.58 123.34 189.51 122.20 192.79 L 120.99 194.24 C 117.37 193.83 115.48 192.30 112.86 190.02 C 108.82 190.33 102.60 190.44 102.95 196.07 C 103.11 199.36 99.08 198.01 97.89 196.18 C 98.05 192.79 95.87 191.22 93.87 188.90 L 92.91 187.80 L 92.77 187.08 C 93.42 184.64 91.72 180.96 95.68 182.25 C 97.29 183.49 101.71 193.11 100.81 186.08 C 106.49 185.48 111.55 184.03 116.04 180.33 C 111.61 179.88 109.32 178.19 106.23 182.23 C 104.16 184.72 102.59 183.63 99.90 183.15 C 98.53 182.10 97.14 181.07 95.75 180.05 C 99.33 176.01 95.47 170.88 98.44 166.09 C 98.97 167.41 99.48 168.74 100.00 170.06 C 100.34 171.04 100.66 172.02 100.96 173.01 C 100.78 177.56 103.08 175.60 106.14 175.49 C 108.09 175.23 110.05 175.11 112.00 174.91 C 114.48 175.29 117.92 170.34 114.02 169.62 L 112.81 168.96 C 111.10 161.27 111.76 156.00 118.44 151.16 L 119.29 150.68 C 118.82 154.11 113.06 156.51 114.25 159.71 C 119.41 163.03 121.23 154.22 119.29 150.68 C 124.46 145.39 122.84 145.17 121.11 138.75 C 125.92 137.53 127.25 137.02 129.40 132.32 C 133.15 135.08 131.46 136.85 130.71 140.70 C 128.96 145.41 127.43 149.87 128.14 154.99 C 129.88 154.68 135.22 146.69 130.19 147.63 C 131.74 146.83 133.31 146.06 134.87 145.28 C 135.88 145.22 136.88 145.15 137.89 145.07 C 137.27 146.70 137.04 148.21 137.04 149.96 C 140.07 147.70 142.56 144.83 145.57 142.52 C 145.04 141.69 144.37 140.92 143.75 140.15 C 144.35 138.01 145.69 136.87 144.38 134.73 C 143.45 131.41 149.97 129.33 152.18 128.16 C 153.52 126.21 152.92 122.18 153.61 119.71 C 154.73 118.68 155.91 117.70 157.07 116.72 C 157.41 117.55 157.73 118.38 158.06 119.21 C 158.63 120.87 159.36 122.45 160.12 124.03 C 160.08 128.42 156.49 131.45 156.05 135.91 C 158.92 134.33 161.10 131.96 162.91 129.27 C 165.65 124.63 167.29 121.76 163.91 116.81 C 163.70 112.76 167.38 116.31 168.94 111.62 Z" fill="#2c243a" />
<path d="M 24.12 113.11 L 25.06 112.60 C 28.08 118.85 25.00 127.13 25.98 134.00 L 24.10 133.96 C 23.71 127.70 24.29 121.45 23.73 115.21 L 24.12 113.11 Z" fill="#b18a92" />
<path d="M 21.51 113.88 C 22.19 117.22 22.01 120.44 21.55 123.79 C 20.94 128.66 23.62 132.47 21.80 137.25 C 18.23 130.89 20.14 120.80 21.51 113.88 Z" fill="#ccc3ae" />
<path d="M 55.98 119.09 C 56.21 122.55 62.88 128.34 56.96 129.33 C 55.89 127.27 55.01 125.12 54.11 122.98 C 53.37 120.97 52.48 119.02 51.63 117.06 C 54.24 110.97 55.92 115.00 55.98 119.09 Z" fill="#2c2532" />
<path d="M 77.76 115.13 C 85.35 118.03 84.96 123.25 89.10 128.88 C 91.62 132.55 97.32 130.91 95.89 136.84 C 92.64 141.71 90.54 144.81 94.87 149.93 C 94.07 151.47 93.08 152.92 92.00 154.28 C 90.20 152.47 89.03 149.44 86.94 148.10 C 80.12 149.85 76.37 149.61 71.78 143.98 L 70.69 142.77 C 72.90 142.58 75.07 142.76 77.29 142.86 C 81.61 142.85 84.16 144.47 85.06 139.08 C 88.37 143.55 87.43 135.77 84.16 136.10 C 80.83 135.13 77.96 133.97 75.87 131.05 C 75.78 130.15 75.69 129.24 75.60 128.33 C 80.01 124.98 78.50 119.37 73.97 116.94 C 69.71 113.58 75.78 114.75 77.76 115.13 Z" fill="#f2eab5" />
<path d="M 127.27 113.99 C 127.69 116.08 127.29 116.35 125.72 117.67 C 118.63 121.80 117.15 130.77 117.22 138.30 C 117.06 140.17 116.99 142.05 116.97 143.92 L 116.07 144.07 C 115.76 139.61 117.19 135.68 113.88 132.13 C 111.74 129.35 111.74 126.80 114.03 124.09 C 117.02 118.61 122.11 116.92 127.27 113.99 Z" fill="#7a7783" />
<path d="M 163.91 116.81 C 167.29 121.76 165.65 124.63 162.91 129.27 C 161.94 127.54 161.02 125.79 160.12 124.03 C 159.36 122.45 158.63 120.87 158.06 119.21 C 160.57 117.26 160.49 114.09 163.91 116.81 Z" fill="#b03c3e" />
<path d="M 46.12 116.36 C 47.68 117.67 48.71 119.17 49.66 120.95 C 46.79 121.24 49.34 123.80 49.76 125.24 C 47.88 124.88 45.68 121.73 45.86 125.40 C 43.68 126.71 43.31 127.38 42.60 129.78 C 40.96 130.14 39.33 130.53 37.72 130.99 C 36.22 127.48 38.22 126.28 38.64 123.25 C 37.11 119.27 36.02 123.09 32.93 122.29 C 31.66 115.57 34.75 119.70 37.99 119.06 C 40.29 116.48 43.03 117.03 46.12 116.36 Z" fill="#9585a9" />
<path d="M 73.97 116.94 C 78.50 119.37 80.01 124.98 75.60 128.33 C 75.04 126.18 75.89 124.53 76.30 122.48 C 74.13 120.61 74.13 119.75 73.97 116.94 Z" fill="#9c8a8a" />
<path d="M 38.64 123.25 C 38.22 126.28 36.22 127.48 37.72 130.99 C 36.26 135.08 40.65 135.20 36.89 138.14 C 35.60 137.38 35.41 136.30 34.97 134.98 C 34.64 133.01 34.01 133.63 32.48 133.27 C 32.31 130.78 31.89 128.92 30.75 126.64 C 31.06 125.50 31.40 124.37 31.74 123.24 L 32.93 122.29 C 36.02 123.09 37.11 119.27 38.64 123.25 Z" fill="#b26679" />
<path d="M 49.66 120.95 C 50.81 122.07 51.44 122.77 53.15 122.83 L 54.11 122.98 C 55.01 125.12 55.89 127.27 56.96 129.33 C 58.59 133.19 61.07 136.33 63.61 139.61 C 63.08 140.09 62.54 140.56 61.99 141.02 C 60.50 140.40 60.15 139.11 59.33 137.86 C 58.53 136.26 57.47 135.11 56.12 133.97 C 53.70 131.25 51.84 128.21 49.76 125.24 C 49.34 123.80 46.79 121.24 49.66 120.95 Z" fill="#e8dac7" />
<path d="M 49.76 125.24 C 51.84 128.21 53.70 131.25 56.12 133.97 C 51.00 131.24 52.84 137.46 56.12 133.97 C 57.47 135.11 58.53 136.26 59.33 137.86 C 54.46 135.18 57.87 143.74 59.33 137.86 C 60.15 139.11 60.50 140.40 61.99 141.02 C 64.04 142.15 65.67 144.53 67.98 144.91 C 67.32 142.84 65.88 141.14 64.93 139.16 C 66.90 140.46 68.39 142.04 70.69 142.77 L 71.78 143.98 C 66.29 143.13 71.65 148.45 72.17 150.79 C 73.63 153.78 70.38 151.99 69.17 151.36 C 69.45 153.23 69.80 155.08 70.12 156.94 C 67.09 151.16 63.55 150.51 58.31 147.70 C 59.26 141.12 56.26 144.97 52.23 142.48 C 51.71 146.82 52.17 146.69 47.85 147.81 C 44.44 146.36 41.22 145.19 39.00 142.04 C 40.33 142.33 41.67 142.60 43.01 142.81 C 41.15 140.96 38.97 139.70 36.89 138.14 C 40.65 135.20 36.26 135.08 37.72 130.99 C 39.33 130.53 40.96 130.14 42.60 129.78 C 43.82 132.86 44.26 135.78 47.31 137.63 C 50.72 139.48 47.27 133.41 49.22 133.17 C 55.44 133.52 48.05 126.09 45.86 125.40 C 45.68 121.73 47.88 124.88 49.76 125.24 Z" fill="#593b4f" />
<path d="M 63.13 124.07 C 67.49 126.10 70.73 129.75 75.87 131.05 C 77.96 133.97 80.83 135.13 84.16 136.10 C 84.47 137.09 84.77 138.08 85.06 139.08 C 84.16 144.47 81.61 142.85 77.29 142.86 C 76.21 141.00 75.22 140.59 73.26 139.96 C 71.78 136.22 68.73 134.57 65.92 131.99 C 64.32 129.35 62.43 127.43 63.13 124.07 Z" fill="#2f2638" />
<path d="M 160.12 124.03 C 161.02 125.79 161.94 127.54 162.91 129.27 C 161.10 131.96 158.92 134.33 156.05 135.91 C 156.49 131.45 160.08 128.42 160.12 124.03 Z" fill="#753240" />
<path d="M 45.86 125.40 C 48.05 126.09 55.44 133.52 49.22 133.17 C 47.27 133.41 50.72 139.48 47.31 137.63 C 44.26 135.78 43.82 132.86 42.60 129.78 C 43.31 127.38 43.68 126.71 45.86 125.40 Z" fill="#ad4751" />
<path d="M 228.14 126.07 L 229.03 125.95 C 228.67 128.67 230.17 133.72 227.09 135.02 C 226.97 131.96 227.65 129.07 228.14 126.07 Z" fill="#9a999d" />
<path d="M 30.75 126.64 C 31.89 128.92 32.31 130.78 32.48 133.27 C 34.01 133.63 34.64 133.01 34.97 134.98 C 30.73 139.92 28.52 129.94 30.75 126.64 Z" fill="#efe1e1" />
<path d="M 202.26 130.72 C 203.34 135.47 198.93 140.94 198.53 145.93 C 198.92 149.28 195.72 150.36 194.61 153.63 C 193.10 156.29 196.16 158.73 193.06 160.25 C 190.64 164.69 190.40 170.37 187.96 174.99 C 186.66 178.54 183.06 183.16 183.92 186.98 C 183.31 187.99 182.69 188.98 182.05 189.97 C 177.78 191.99 174.78 195.60 170.46 197.55 C 169.22 198.26 166.81 201.29 169.86 201.12 C 167.22 206.04 164.30 208.24 158.78 209.36 C 161.04 202.36 159.38 194.83 163.30 187.85 C 166.72 181.93 166.51 175.90 171.92 170.90 C 170.33 177.98 166.77 183.40 168.18 191.00 C 171.33 186.90 175.55 183.64 178.29 179.29 C 185.12 169.64 190.07 159.62 195.11 149.02 C 197.25 142.75 199.34 136.70 202.26 130.72 Z" fill="#2c2749" />
<path d="M 65.92 131.99 C 68.73 134.57 71.78 136.22 73.26 139.96 C 68.86 142.19 65.76 135.46 65.92 131.99 Z" fill="#854750" />
<path d="M 56.12 133.97 C 51.00 131.24 52.84 137.46 56.12 133.97 Z" fill="#c6bec3" />
<path d="M 136.10 133.04 C 142.73 133.59 139.15 138.46 143.75 140.15 C 144.37 140.92 145.04 141.69 145.57 142.52 C 142.56 144.83 140.07 147.70 137.04 149.96 C 137.04 148.21 137.27 146.70 137.89 145.07 C 140.41 141.06 137.19 136.97 136.10 133.04 Z" fill="#84434e" />
<path d="M 186.95 132.89 C 186.83 135.86 184.29 137.92 184.85 140.78 C 183.17 141.75 181.49 142.70 179.86 143.75 C 178.93 141.92 178.36 141.07 178.99 138.95 C 180.06 138.02 183.30 136.76 180.20 135.88 C 182.37 134.69 184.61 133.71 186.95 132.89 Z" fill="#5b3547" />
<path d="M 24.10 133.96 L 25.98 134.00 C 27.66 140.21 28.04 146.59 30.01 152.73 C 28.50 155.01 31.70 160.97 28.17 160.73 C 28.63 163.73 31.31 167.44 30.13 170.36 C 28.57 167.54 28.02 164.19 26.78 161.21 C 27.57 158.11 29.01 157.20 26.01 154.85 L 25.37 154.14 C 25.41 147.35 24.33 140.69 24.10 133.96 Z" fill="#735371" />
<path d="M 212.82 134.04 C 211.34 138.73 211.62 143.01 211.83 147.83 C 211.33 147.64 210.83 147.44 210.34 147.23 C 209.09 144.37 207.98 143.47 208.49 139.99 C 210.53 138.46 210.56 134.36 212.82 134.04 Z" fill="#d6bbab" />
<path d="M 84.16 136.10 C 87.43 135.77 88.37 143.55 85.06 139.08 C 84.77 138.08 84.47 137.09 84.16 136.10 Z" fill="#8e8773" />
<path d="M 180.20 135.88 C 183.30 136.76 180.06 138.02 178.99 138.95 C 178.38 138.35 177.77 137.75 177.15 137.15 C 178.20 136.79 179.22 136.37 180.20 135.88 Z" fill="#b38191" />
<path d="M 29.14 137.16 C 32.55 135.73 30.58 146.20 30.74 148.07 C 29.17 144.63 28.68 140.90 29.14 137.16 Z" fill="#877a62" />
<path d="M 59.33 137.86 C 54.46 135.18 57.87 143.74 59.33 137.86 Z" fill="#cdc7c2" />
<path d="M 103.90 136.96 C 104.24 141.69 100.70 145.29 100.95 150.16 C 99.80 152.28 98.31 154.13 96.90 156.07 C 94.53 161.89 88.18 163.26 86.22 168.78 C 87.68 169.97 89.28 171.04 90.95 171.90 C 93.82 169.68 96.29 164.91 99.80 164.03 C 99.97 166.05 99.96 168.04 100.00 170.06 C 99.48 168.74 98.97 167.41 98.44 166.09 C 95.47 170.88 99.33 176.01 95.75 180.05 C 94.88 179.71 93.99 179.39 93.11 179.09 C 88.61 177.64 86.04 180.61 82.51 175.65 C 85.25 172.80 87.92 174.88 90.94 175.90 C 88.19 170.82 83.70 172.33 79.35 169.66 C 77.00 166.83 75.61 163.28 73.04 160.54 C 72.11 159.31 71.12 158.12 70.12 156.94 C 69.80 155.08 69.45 153.23 69.17 151.36 C 70.38 151.99 73.63 153.78 72.17 150.79 C 71.65 148.45 66.29 143.13 71.78 143.98 C 76.37 149.61 80.12 149.85 86.94 148.10 C 82.83 152.81 86.98 160.35 92.00 154.28 C 93.08 152.92 94.07 151.47 94.87 149.93 C 96.45 145.10 100.85 141.00 103.90 136.96 Z" fill="#39273a" />
<path d="M 153.24 137.08 C 156.69 139.66 150.94 142.07 158.09 142.27 C 156.12 147.94 153.14 152.85 147.74 155.83 C 148.00 154.10 154.64 148.84 149.65 150.38 C 143.51 150.20 145.44 156.04 140.08 158.18 C 140.18 154.82 142.13 151.73 145.04 150.08 C 150.03 147.53 152.57 142.48 153.24 137.08 Z" fill="#742f34" />
<path d="M 177.15 137.15 C 177.77 137.75 178.38 138.35 178.99 138.95 C 173.18 141.53 165.43 141.58 160.18 139.07 C 167.04 138.21 171.00 141.42 177.15 137.15 Z" fill="#63455a" />
<path d="M 134.87 145.28 C 133.31 146.06 131.74 146.83 130.19 147.63 C 135.22 146.69 129.88 154.68 128.14 154.99 C 127.43 149.87 128.96 145.41 130.71 140.70 C 136.99 137.37 134.46 140.31 134.87 145.28 Z" fill="#8a3234" />
<path d="M 37.20 140.73 C 36.41 141.67 35.02 144.51 33.49 143.79 C 33.30 142.46 35.64 138.96 37.20 140.73 Z" fill="#88666f" />
<path d="M 112.50 139.95 C 114.45 141.85 108.52 152.28 114.01 150.12 C 113.88 151.03 113.65 151.89 113.31 152.71 C 111.34 152.97 110.07 154.17 108.39 155.09 C 108.92 153.75 109.49 152.42 109.89 151.02 C 106.80 152.56 104.73 153.82 101.18 154.14 C 99.51 154.12 96.51 160.07 96.90 156.07 C 98.31 154.13 99.80 152.28 100.95 150.16 C 102.54 150.37 103.66 151.62 104.46 149.55 C 106.36 145.55 109.58 143.10 112.50 139.95 Z" fill="#bca389" />
<path d="M 208.49 139.99 C 207.98 143.47 209.09 144.37 210.34 147.23 C 208.57 146.49 206.96 146.51 205.09 146.58 C 205.94 144.26 207.05 141.99 208.49 139.99 Z" fill="#a57e7f" />
<path d="M 37.20 140.73 C 37.80 141.16 38.40 141.59 39.00 142.04 C 41.22 145.19 44.44 146.36 47.85 147.81 C 51.08 149.11 54.17 149.67 57.08 151.73 C 55.30 151.97 53.54 152.29 51.78 152.65 C 47.31 150.86 42.62 151.49 38.37 149.10 C 35.38 145.43 38.04 144.53 37.20 140.73 Z" fill="#6e5b71" />
<path d="M 184.85 140.78 C 186.86 144.64 190.67 146.39 189.39 151.26 C 186.12 151.33 185.64 150.63 185.11 154.22 L 183.82 155.00 C 181.54 155.05 179.25 155.05 176.96 155.09 C 176.56 154.09 176.16 153.09 175.76 152.09 C 175.16 144.69 180.65 151.73 178.20 145.83 C 178.75 145.13 179.30 144.44 179.86 143.75 C 181.49 142.70 183.17 141.75 184.85 140.78 Z" fill="#a24548" />
<path d="M 52.23 142.48 C 56.26 144.97 59.26 141.12 58.31 147.70 C 63.55 150.51 67.09 151.16 70.12 156.94 C 70.71 159.26 71.05 161.57 70.93 163.97 C 67.01 161.13 64.48 157.11 60.04 154.86 C 59.10 153.74 58.20 152.67 57.08 151.73 C 54.17 149.67 51.08 149.11 47.85 147.81 C 52.17 146.69 51.71 146.82 52.23 142.48 Z" fill="#3d2935" />
<path d="M 158.09 142.27 C 162.43 148.09 152.94 152.80 151.05 158.14 C 145.73 163.86 139.56 167.75 136.97 175.51 C 136.36 173.69 135.85 171.83 135.33 169.97 C 135.75 168.04 135.98 165.80 136.98 164.09 C 137.00 165.38 137.06 166.66 137.17 167.94 C 142.25 164.86 143.43 159.51 147.74 155.83 C 153.14 152.85 156.12 147.94 158.09 142.27 Z" fill="#442227" />
<path d="M 116.07 144.07 L 116.97 143.92 C 117.56 146.32 118.03 148.72 118.44 151.16 C 111.76 156.00 111.10 161.27 112.81 168.96 C 105.38 172.09 108.38 164.03 107.08 159.98 C 106.21 155.66 112.39 157.41 113.31 152.71 C 113.65 151.89 113.88 151.03 114.01 150.12 C 114.34 147.96 115.16 146.04 116.07 144.07 Z" fill="#964542" />
<path d="M 166.72 144.04 C 168.52 148.00 167.13 151.33 165.17 154.88 C 164.75 153.24 164.87 152.38 163.14 151.64 C 164.57 149.33 164.69 145.79 166.72 144.04 Z" fill="#643242" />
<path d="M 169.83 146.54 C 172.85 146.83 175.42 147.53 178.20 145.83 C 180.65 151.73 175.16 144.69 175.76 152.09 C 173.77 150.27 171.65 148.53 169.83 146.54 Z" fill="#bb7b85" />
<path d="M 195.11 149.02 C 190.07 159.62 185.12 169.64 178.29 179.29 C 178.09 171.05 181.78 162.87 183.82 155.00 L 185.11 154.22 C 186.65 153.39 188.03 152.35 189.39 151.26 C 193.30 152.27 195.26 142.10 195.11 149.02 Z" fill="#ece9ec" />
<path d="M 33.09 147.19 C 34.79 148.02 36.43 150.64 38.37 149.10 C 42.62 151.49 47.31 150.86 51.78 152.65 C 63.24 161.11 57.06 174.33 67.97 182.41 C 68.87 183.31 69.76 184.23 70.65 185.14 C 77.55 195.54 83.52 208.22 87.95 219.89 C 86.93 219.02 85.96 218.08 84.95 217.19 C 84.55 219.78 86.50 224.23 85.28 226.26 C 78.46 226.51 72.89 231.60 65.12 231.54 C 62.30 230.98 59.60 231.00 56.76 231.27 C 51.42 228.64 58.60 227.30 60.91 226.77 C 62.76 226.51 62.41 225.47 62.95 224.03 C 65.43 221.22 63.34 229.81 66.34 227.32 C 68.42 225.90 74.35 225.05 71.86 221.64 C 71.47 218.62 68.09 221.91 66.83 219.66 C 72.91 215.10 75.84 213.33 82.89 217.68 C 81.47 213.80 82.85 210.03 77.66 209.32 C 70.42 207.38 70.21 213.94 65.29 216.82 C 63.23 214.09 61.45 211.25 58.93 208.90 C 58.96 203.92 56.46 199.87 55.86 195.04 C 55.18 189.81 51.03 187.28 49.72 182.18 C 49.75 180.45 49.76 178.71 49.81 176.98 C 52.07 175.26 50.85 173.90 49.67 172.01 L 49.06 170.93 C 49.25 169.47 49.34 168.13 48.41 166.88 C 46.76 163.90 44.42 161.80 41.99 159.47 C 46.50 157.71 41.28 156.35 39.21 156.98 C 37.75 156.20 36.28 155.45 34.83 154.66 C 34.54 152.08 33.75 149.68 33.09 147.19 Z" fill="#26233d" />
<path d="M 215.24 146.76 C 217.19 149.31 213.92 155.03 216.92 155.63 C 221.56 156.57 214.27 159.85 214.22 162.27 C 212.92 165.45 213.12 162.34 212.27 160.95 C 212.85 158.70 213.42 156.41 213.78 154.11 C 214.16 151.64 214.72 149.20 215.24 146.76 Z" fill="#8d8b8d" />
<path d="M 86.94 148.10 C 89.03 149.44 90.20 152.47 92.00 154.28 C 86.98 160.35 82.83 152.81 86.94 148.10 Z" fill="#944849" />
<path d="M 222.51 147.88 C 222.35 148.86 222.17 149.83 221.94 150.79 C 220.61 154.67 221.44 155.38 224.93 157.23 C 226.14 158.10 226.92 157.38 228.18 157.08 C 227.23 164.04 227.09 171.85 225.36 178.47 C 219.99 180.21 218.21 175.57 213.59 175.82 C 212.44 173.47 211.21 171.18 209.92 168.91 L 210.37 167.14 C 210.95 165.06 211.60 163.01 212.27 160.95 C 213.12 162.34 212.92 165.45 214.22 162.27 C 214.27 159.85 221.56 156.57 216.92 155.63 C 218.46 152.81 220.41 150.30 222.51 147.88 Z" fill="#64586f" />
<path d="M 231.60 150.36 C 236.18 159.80 226.27 165.65 230.31 174.84 C 230.09 179.69 229.34 179.10 225.21 179.42 L 225.36 178.47 C 227.09 171.85 227.23 164.04 228.18 157.08 C 226.61 154.59 228.74 143.38 231.60 150.36 Z" fill="#524559" />
<path d="M 149.65 150.38 C 154.64 148.84 148.00 154.10 147.74 155.83 C 143.43 159.51 142.25 164.86 137.17 167.94 C 137.06 166.66 137.00 165.38 136.98 164.09 C 138.03 162.13 139.15 160.21 140.08 158.18 C 145.44 156.04 143.51 150.20 149.65 150.38 Z" fill="#9e3e41" />
<path d="M 109.89 151.02 C 109.49 152.42 108.92 153.75 108.39 155.09 C 110.07 154.17 111.34 152.97 113.31 152.71 C 112.39 157.41 106.21 155.66 107.08 159.98 C 108.38 164.03 105.38 172.09 112.81 168.96 L 114.02 169.62 C 113.32 171.37 112.69 173.16 112.00 174.91 C 110.05 175.11 108.09 175.23 106.14 175.49 C 104.21 174.92 102.61 174.14 100.96 173.01 C 100.66 172.02 100.34 171.04 100.00 170.06 C 101.55 170.29 103.10 170.58 104.66 170.70 C 104.99 166.53 104.69 160.63 100.22 158.74 C 97.81 158.15 100.84 155.50 101.18 154.14 C 104.73 153.82 106.80 152.56 109.89 151.02 Z" fill="#edd2a5" />
<path d="M 119.29 150.68 C 121.23 154.22 119.41 163.03 114.25 159.71 C 113.06 156.51 118.82 154.11 119.29 150.68 Z" fill="#cf9265" />
<path d="M 189.39 151.26 C 188.03 152.35 186.65 153.39 185.11 154.22 C 185.64 150.63 186.12 151.33 189.39 151.26 Z" fill="#d79798" />
<path d="M 213.78 154.11 C 213.42 156.41 212.85 158.70 212.27 160.95 C 211.60 163.01 210.95 165.06 210.37 167.14 C 209.55 164.30 208.16 160.11 205.17 158.84 C 203.51 156.63 204.71 156.05 205.76 154.01 C 206.13 159.50 212.97 146.01 213.78 154.11 Z" fill="#d9cdb5" />
<path d="M 221.94 150.79 C 223.68 153.07 227.23 154.00 224.93 157.23 C 221.44 155.38 220.61 154.67 221.94 150.79 Z" fill="#a8a6b5" />
<path d="M 57.08 151.73 C 58.20 152.67 59.10 153.74 60.04 154.86 C 62.21 162.20 68.45 166.68 69.32 174.77 C 69.62 177.14 71.42 181.69 67.97 182.41 C 57.06 174.33 63.24 161.11 51.78 152.65 C 53.54 152.29 55.30 151.97 57.08 151.73 Z" fill="#984349" />
<path d="M 136.79 152.00 C 135.91 157.00 136.86 162.66 133.45 166.43 C 131.22 170.28 126.04 167.85 121.99 169.78 C 126.37 166.76 129.18 162.66 133.13 159.19 C 134.39 156.79 135.20 154.24 136.79 152.00 Z" fill="#a63f42" />
<path d="M 163.14 151.64 C 164.87 152.38 164.75 153.24 165.17 154.88 C 162.55 158.86 158.11 160.55 155.55 164.58 C 153.70 167.24 151.16 168.95 148.13 170.04 C 150.06 167.43 152.00 165.62 152.31 162.17 C 153.52 156.20 157.77 153.54 163.14 151.64 Z" fill="#b23d3d" />
<path d="M 24.09 153.07 L 25.37 154.14 L 26.01 154.85 C 24.66 157.86 25.23 158.55 26.78 161.21 C 28.02 164.19 28.57 167.54 30.13 170.36 C 34.55 171.39 33.74 172.14 34.63 176.16 L 34.69 177.05 L 32.98 176.85 C 31.68 175.54 30.46 174.25 29.07 173.05 C 29.20 175.73 29.67 178.30 30.05 180.95 C 25.83 175.68 26.84 167.44 24.06 161.98 C 21.41 158.09 22.50 157.04 24.09 153.07 Z" fill="#f2ebd4" />
<path d="M 30.01 152.73 C 31.64 156.02 32.65 159.25 34.77 162.25 C 36.51 165.97 37.91 169.81 39.32 173.66 C 39.94 173.16 40.55 172.65 41.14 172.12 L 40.78 173.72 C 39.20 179.38 39.07 181.87 41.90 187.11 C 38.18 184.74 35.85 183.78 36.17 178.88 C 35.69 177.63 36.80 173.62 34.63 176.16 C 33.74 172.14 34.55 171.39 30.13 170.36 C 31.31 167.44 28.63 163.73 28.17 160.73 C 31.70 160.97 28.50 155.01 30.01 152.73 Z" fill="#a36f89" />
<path d="M 101.18 154.14 C 100.84 155.50 97.81 158.15 100.22 158.74 C 104.69 160.63 104.99 166.53 104.66 170.70 C 103.10 170.58 101.55 170.29 100.00 170.06 C 99.96 168.04 99.97 166.05 99.80 164.03 C 96.29 164.91 93.82 169.68 90.95 171.90 C 89.28 171.04 87.68 169.97 86.22 168.78 C 88.18 163.26 94.53 161.89 96.90 156.07 C 96.51 160.07 99.51 154.12 101.18 154.14 Z" fill="#953c37" />
<path d="M 171.17 154.09 C 173.55 153.64 175.27 155.79 177.16 156.94 C 177.87 159.46 178.67 161.66 177.22 164.12 C 173.91 166.09 172.10 171.23 169.51 164.87 C 172.26 160.80 171.95 158.71 171.17 154.09 Z" fill="#aa3939" />
<path d="M 26.01 154.85 C 29.01 157.20 27.57 158.11 26.78 161.21 C 25.23 158.55 24.66 157.86 26.01 154.85 Z" fill="#c2b0a9" />
<path d="M 34.83 154.66 C 36.28 155.45 37.75 156.20 39.21 156.98 C 40.08 157.88 40.99 158.71 41.99 159.47 C 44.42 161.80 46.76 163.90 48.41 166.88 C 47.91 167.60 47.43 168.34 46.96 169.08 C 46.29 165.63 43.99 163.75 41.08 162.11 C 43.30 166.08 42.43 168.01 41.14 172.12 C 40.55 172.65 39.94 173.16 39.32 173.66 C 37.91 169.81 36.51 165.97 34.77 162.25 C 34.69 159.59 34.10 157.26 34.83 154.66 Z" fill="#e5e0e2" />
<path d="M 60.04 154.86 C 64.48 157.11 67.01 161.13 70.93 163.97 C 71.05 161.57 70.71 159.26 70.12 156.94 C 71.12 158.12 72.11 159.31 73.04 160.54 C 71.82 163.28 70.92 165.94 71.34 168.98 C 71.27 172.06 73.22 173.71 75.07 175.86 C 73.16 175.47 71.24 175.12 69.32 174.77 C 68.45 166.68 62.21 162.20 60.04 154.86 Z" fill="#7c4c5d" />
<path d="M 176.96 155.09 C 179.25 155.05 181.54 155.05 183.82 155.00 C 181.78 162.87 178.09 171.05 178.29 179.29 C 175.55 183.64 171.33 186.90 168.18 191.00 C 166.77 183.40 170.33 177.98 171.92 170.90 C 174.03 168.82 176.11 166.97 177.22 164.12 C 178.67 161.66 177.87 159.46 177.16 156.94 L 176.96 155.09 Z" fill="#5f5c77" />
<path d="M 77.38 155.91 C 80.16 157.22 82.88 159.02 85.17 161.05 C 80.68 167.01 77.28 160.88 77.38 155.91 Z" fill="#93322f" />
<path d="M 39.21 156.98 C 41.28 156.35 46.50 157.71 41.99 159.47 C 40.99 158.71 40.08 157.88 39.21 156.98 Z" fill="#9fa2af" />
<path d="M 205.17 158.84 C 208.16 160.11 209.55 164.30 210.37 167.14 L 209.92 168.91 L 209.14 169.24 C 208.19 167.95 207.30 166.62 206.40 165.30 C 202.22 169.09 202.43 179.20 196.43 181.53 C 198.29 184.39 198.99 185.67 198.73 189.19 C 196.23 196.14 191.98 201.44 187.94 207.47 C 187.40 207.39 186.08 206.12 185.82 206.94 C 182.61 211.69 178.03 214.01 173.80 217.82 C 170.38 220.81 166.33 222.91 161.80 220.92 C 170.70 216.00 178.98 212.47 180.76 201.26 C 181.51 196.39 183.26 196.18 187.22 194.21 C 190.80 192.06 193.42 187.82 193.34 183.60 C 193.13 180.14 196.60 178.77 196.16 175.06 C 195.61 169.65 197.04 168.40 200.04 164.32 C 204.91 165.64 205.99 163.23 205.17 158.84 Z" fill="#f2e5c6" />
<path d="M 73.04 160.54 C 75.61 163.28 77.00 166.83 79.35 169.66 C 83.70 172.33 88.19 170.82 90.94 175.90 C 87.92 174.88 85.25 172.80 82.51 175.65 C 81.74 175.71 80.98 175.77 80.22 175.83 C 77.74 173.02 73.72 172.27 71.34 168.98 C 70.92 165.94 71.82 163.28 73.04 160.54 Z" fill="#b03e41" />
<path d="M 41.08 162.11 C 43.99 163.75 46.29 165.63 46.96 169.08 C 47.11 170.31 47.80 170.93 49.06 170.93 L 49.67 172.01 C 48.40 173.91 48.74 175.10 49.81 176.98 C 49.76 178.71 49.75 180.45 49.72 182.18 C 49.21 181.43 48.69 180.68 48.16 179.95 C 46.12 178.04 44.20 171.48 40.78 173.72 L 41.14 172.12 C 42.43 168.01 43.30 166.08 41.08 162.11 Z" fill="#3e3259" />
<path d="M 177.22 164.12 C 176.11 166.97 174.03 168.82 171.92 170.90 C 166.51 175.90 166.72 181.93 163.30 187.85 C 162.14 186.40 160.60 185.90 159.02 185.00 C 162.39 178.17 166.22 171.76 169.51 164.87 C 172.10 171.23 173.91 166.09 177.22 164.12 Z" fill="#6d2e34" />
<path d="M 206.40 165.30 C 207.30 166.62 208.19 167.95 209.14 169.24 C 206.14 176.00 203.04 183.21 198.73 189.19 C 198.99 185.67 198.29 184.39 196.43 181.53 C 202.43 179.20 202.22 169.09 206.40 165.30 Z" fill="#d6be9d" />
<path d="M 48.41 166.88 C 49.34 168.13 49.25 169.47 49.06 170.93 C 47.80 170.93 47.11 170.31 46.96 169.08 C 47.43 168.34 47.91 167.60 48.41 166.88 Z" fill="#8b8aa6" />
<path d="M 71.34 168.98 C 73.72 172.27 77.74 173.02 80.22 175.83 C 79.35 176.44 78.59 177.20 77.94 178.11 C 77.01 177.33 76.04 176.59 75.07 175.86 C 73.22 173.71 71.27 172.06 71.34 168.98 Z" fill="#2b152c" />
<path d="M 114.02 169.62 C 117.92 170.34 114.48 175.29 112.00 174.91 C 112.69 173.16 113.32 171.37 114.02 169.62 Z" fill="#7e3629" />
<path d="M 129.15 171.10 C 128.49 171.45 127.83 171.80 127.18 172.16 C 125.50 172.74 123.80 173.42 122.08 173.84 C 122.60 170.80 126.44 169.50 129.15 171.10 Z" fill="#886f73" />
<path d="M 135.33 169.97 C 135.85 171.83 136.36 173.69 136.97 175.51 C 137.01 176.24 137.07 176.97 137.13 177.70 C 135.26 177.41 135.13 177.31 133.95 178.85 C 132.41 180.47 131.42 182.18 129.38 183.17 C 130.25 179.46 131.16 175.76 132.09 172.06 C 133.18 171.38 134.27 170.69 135.33 169.97 Z" fill="#b87672" />
<path d="M 129.15 171.10 C 130.14 171.40 131.12 171.71 132.09 172.06 C 131.16 175.76 130.25 179.46 129.38 183.17 C 131.42 182.18 132.41 180.47 133.95 178.85 C 134.03 182.50 131.79 184.28 130.10 187.15 C 128.46 191.83 132.33 199.58 128.02 203.28 C 127.26 203.24 126.49 203.19 125.72 203.13 C 124.67 199.88 126.40 193.55 122.20 192.79 C 123.34 189.51 124.32 186.58 123.90 183.02 C 124.15 181.44 124.84 179.08 123.19 178.02 C 120.97 176.02 119.64 186.15 117.10 187.03 C 117.08 184.28 117.51 181.20 118.79 178.74 C 121.11 175.99 124.80 174.99 127.18 172.16 C 127.83 171.80 128.49 171.45 129.15 171.10 Z" fill="#dccca9" />
<path d="M 49.67 172.01 C 50.85 173.90 52.07 175.26 49.81 176.98 C 48.74 175.10 48.40 173.91 49.67 172.01 Z" fill="#9092aa" />
<path d="M 29.07 173.05 C 30.46 174.25 31.68 175.54 32.98 176.85 C 30.06 179.14 37.08 186.46 31.96 184.12 C 31.35 183.05 30.72 181.99 30.05 180.95 C 29.67 178.30 29.20 175.73 29.07 173.05 Z" fill="#6d6763" />
<path d="M 48.16 179.95 C 48.42 183.63 47.26 186.77 46.43 190.25 C 44.94 189.17 43.43 188.12 41.90 187.11 C 39.07 181.87 39.20 179.38 40.78 173.72 C 44.20 171.48 46.12 178.04 48.16 179.95 Z" fill="#bc3f46" />
<path d="M 100.96 173.01 C 102.61 174.14 104.21 174.92 106.14 175.49 C 103.08 175.60 100.78 177.56 100.96 173.01 Z" fill="#a05b47" />
<path d="M 36.17 178.88 C 35.85 183.78 38.18 184.74 41.90 187.11 C 43.43 188.12 44.94 189.17 46.43 190.25 L 47.45 191.56 C 46.50 199.23 52.47 204.49 52.80 212.28 C 48.22 209.42 49.09 204.06 44.91 200.58 C 43.75 199.24 42.42 198.07 41.04 196.96 C 40.89 191.80 42.12 189.97 36.70 187.71 C 34.86 184.29 34.96 180.81 34.69 177.05 L 34.63 176.16 C 36.80 173.62 35.69 177.63 36.17 178.88 Z" fill="#7c5071" />
<path d="M 69.32 174.77 C 71.24 175.12 73.16 175.47 75.07 175.86 C 76.04 176.59 77.01 177.33 77.94 178.11 C 80.04 180.18 80.40 177.55 80.22 175.83 C 80.98 175.77 81.74 175.71 82.51 175.65 C 86.04 180.61 88.61 177.64 93.11 179.09 C 88.29 179.69 92.99 183.95 92.77 187.08 L 92.91 187.80 C 89.33 191.11 95.24 197.86 93.29 202.22 C 91.83 200.82 90.00 190.46 87.57 192.97 C 87.15 192.08 86.73 191.19 86.32 190.30 C 86.05 186.00 83.65 181.59 81.43 177.97 C 82.66 183.32 78.09 180.04 74.97 180.33 C 76.82 182.69 82.93 183.37 76.70 184.89 C 74.16 183.69 73.16 184.06 70.65 185.14 C 69.76 184.23 68.87 183.31 67.97 182.41 C 71.42 181.69 69.62 177.14 69.32 174.77 Z" fill="#ecd9bc" />
<path d="M 196.16 175.06 C 196.60 178.77 193.13 180.14 193.34 183.60 C 193.42 187.82 190.80 192.06 187.22 194.21 C 183.26 196.18 181.51 196.39 180.76 201.26 C 178.98 212.47 170.70 216.00 161.80 220.92 C 160.56 220.63 159.68 219.86 158.68 219.13 C 162.36 215.95 166.19 212.79 169.30 209.03 C 172.54 208.43 167.76 212.65 170.09 211.98 C 173.53 211.87 173.23 208.79 174.51 206.46 C 177.16 201.02 179.38 195.40 182.05 189.97 C 182.69 188.98 183.31 187.99 183.92 186.98 C 184.93 187.51 185.93 188.09 186.96 188.58 C 191.07 185.35 190.91 176.36 196.16 175.06 Z" fill="#8f6c89" />
<path d="M 225.36 178.47 L 225.21 179.42 C 224.44 182.28 219.85 180.32 217.79 180.24 C 215.88 179.00 214.39 178.11 213.59 175.82 C 218.21 175.57 219.99 180.21 225.36 178.47 Z" fill="#2a233e" />
<path d="M 230.31 174.84 C 231.69 183.74 233.90 194.30 231.88 203.14 C 228.86 202.26 228.79 199.00 226.02 198.00 C 225.36 196.40 224.90 194.70 223.98 193.28 L 223.57 192.59 C 221.23 189.59 222.13 182.44 218.52 181.54 L 217.79 180.24 C 219.85 180.32 224.44 182.28 225.21 179.42 C 229.34 179.10 230.09 179.69 230.31 174.84 Z" fill="#705f75" />
<path d="M 80.22 175.83 C 80.40 177.55 80.04 180.18 77.94 178.11 C 78.59 177.20 79.35 176.44 80.22 175.83 Z" fill="#7e7182" />
<path d="M 32.98 176.85 L 34.69 177.05 C 34.96 180.81 34.86 184.29 36.70 187.71 C 35.62 190.50 36.38 190.09 38.45 191.64 C 38.78 194.52 38.21 195.33 41.04 196.96 C 42.42 198.07 43.75 199.24 44.91 200.58 C 42.41 205.19 46.29 206.83 46.81 211.26 C 44.59 209.21 43.28 206.88 42.15 204.11 C 44.45 202.06 41.59 197.87 40.66 202.02 C 37.01 196.52 34.14 190.35 31.96 184.12 C 37.08 186.46 30.06 179.14 32.98 176.85 Z" fill="#aca197" />
<path d="M 137.13 177.70 C 137.30 184.57 140.41 187.55 145.68 191.37 C 146.81 198.97 143.60 204.02 136.00 205.84 C 134.44 204.99 132.92 204.19 131.13 203.93 C 130.10 203.70 129.06 203.49 128.02 203.28 C 132.33 199.58 128.46 191.83 130.10 187.15 C 131.79 184.28 134.03 182.50 133.95 178.85 C 135.13 177.31 135.26 177.41 137.13 177.70 Z" fill="#edeced" />
<path d="M 81.43 177.97 C 83.65 181.59 86.05 186.00 86.32 190.30 C 83.23 186.55 79.64 187.54 76.70 184.89 C 82.93 183.37 76.82 182.69 74.97 180.33 C 78.09 180.04 82.66 183.32 81.43 177.97 Z" fill="#cda099" />
<path d="M 123.19 178.02 C 124.84 179.08 124.15 181.44 123.90 183.02 C 122.48 181.45 122.66 179.92 123.19 178.02 Z" fill="#847167" />
<path d="M 93.11 179.09 C 93.99 179.39 94.88 179.71 95.75 180.05 C 97.14 181.07 98.53 182.10 99.90 183.15 C 100.20 184.13 100.50 185.11 100.81 186.08 C 101.71 193.11 97.29 183.49 95.68 182.25 C 91.72 180.96 93.42 184.64 92.77 187.08 C 92.99 183.95 88.29 179.69 93.11 179.09 Z" fill="#c3b4a2" />
<path d="M 116.04 180.33 C 111.55 184.03 106.49 185.48 100.81 186.08 C 100.50 185.11 100.20 184.13 99.90 183.15 C 102.59 183.63 104.16 184.72 106.23 182.23 C 109.32 178.19 111.61 179.88 116.04 180.33 Z" fill="#923a39" />
<path d="M 48.16 179.95 C 48.69 180.68 49.21 181.43 49.72 182.18 C 51.03 187.28 55.18 189.81 55.86 195.04 C 56.46 199.87 58.96 203.92 58.93 208.90 C 55.53 202.13 54.94 195.79 47.45 191.56 L 46.43 190.25 C 47.26 186.77 48.42 183.63 48.16 179.95 Z" fill="#8b3643" />
<path d="M 218.52 181.54 C 222.13 182.44 221.23 189.59 223.57 192.59 C 223.32 194.02 223.07 195.45 222.82 196.87 C 221.89 195.40 220.97 193.93 219.95 192.51 C 220.02 188.61 220.56 185.08 218.52 181.54 Z" fill="#957e90" />
<path d="M 159.02 185.00 C 160.60 185.90 162.14 186.40 163.30 187.85 C 159.38 194.83 161.04 202.36 158.78 209.36 C 157.67 211.18 156.77 213.09 155.95 215.06 C 152.61 217.68 154.44 210.45 153.80 208.80 C 153.63 200.22 154.49 192.48 159.02 185.00 Z" fill="#ac3938" />
<path d="M 36.70 187.71 C 42.12 189.97 40.89 191.80 41.04 196.96 C 38.21 195.33 38.78 194.52 38.45 191.64 C 36.38 190.09 35.62 190.50 36.70 187.71 Z" fill="#e0d7ca" />
<path d="M 92.91 187.80 L 93.87 188.90 C 92.96 191.25 94.21 198.14 97.89 196.18 C 99.08 198.01 103.11 199.36 102.95 196.07 C 105.82 197.45 109.88 199.42 113.06 199.19 C 107.97 201.09 101.18 199.67 95.96 198.42 C 97.33 206.03 101.09 213.45 101.91 221.04 C 98.93 218.22 97.35 213.78 95.30 210.24 C 95.81 207.56 94.03 204.83 93.29 202.22 C 95.24 197.86 89.33 191.11 92.91 187.80 Z" fill="#d7c2a6" />
<path d="M 93.87 188.90 C 95.87 191.22 98.05 192.79 97.89 196.18 C 94.21 198.14 92.96 191.25 93.87 188.90 Z" fill="#b1726e" />
<path d="M 112.86 190.02 C 115.48 192.30 117.37 193.83 120.99 194.24 C 118.92 196.48 115.68 197.69 113.06 199.19 C 109.88 199.42 105.82 197.45 102.95 196.07 C 102.60 190.44 108.82 190.33 112.86 190.02 Z" fill="#c28385" />
<path d="M 182.05 189.97 C 179.38 195.40 177.16 201.02 174.51 206.46 C 173.23 208.79 173.53 211.87 170.09 211.98 C 167.76 212.65 172.54 208.43 169.30 209.03 C 171.09 206.80 176.33 204.12 173.03 200.93 C 171.03 199.04 171.63 198.56 169.86 201.12 C 166.81 201.29 169.22 198.26 170.46 197.55 C 174.78 195.60 177.78 191.99 182.05 189.97 Z" fill="#59497a" />
<path d="M 47.45 191.56 C 54.94 195.79 55.53 202.13 58.93 208.90 C 56.01 213.03 62.83 219.82 66.83 219.66 C 68.09 221.91 71.47 218.62 71.86 221.64 C 74.35 225.05 68.42 225.90 66.34 227.32 C 63.34 229.81 65.43 221.22 62.95 224.03 C 56.49 221.41 57.09 216.77 52.80 212.28 C 52.47 204.49 46.50 199.23 47.45 191.56 Z" fill="#3e325e" />
<path d="M 93.29 202.22 C 94.03 204.83 95.81 207.56 95.30 210.24 C 92.15 204.80 90.06 198.74 87.57 192.97 C 90.00 190.46 91.83 200.82 93.29 202.22 Z" fill="#837f6e" />
<path d="M 219.95 192.51 C 220.97 193.93 221.89 195.40 222.82 196.87 C 223.07 195.45 223.32 194.02 223.57 192.59 L 223.98 193.28 C 224.64 196.83 221.51 202.60 224.03 205.30 C 228.29 206.80 226.15 206.63 223.94 208.83 C 224.69 206.10 221.21 206.31 222.04 208.96 C 219.63 208.34 218.32 208.97 216.17 209.98 C 216.16 209.02 216.10 208.06 215.99 207.10 C 218.13 202.39 218.27 197.35 219.95 192.51 Z" fill="#7a5060" />
<path d="M 223.98 193.28 C 224.90 194.70 225.36 196.40 226.02 198.00 C 226.10 201.05 225.95 202.84 224.03 205.30 C 221.51 202.60 224.64 196.83 223.98 193.28 Z" fill="#4b283d" />
<path d="M 226.02 198.00 C 228.79 199.00 228.86 202.26 231.88 203.14 L 232.94 203.82 C 232.46 207.04 233.88 209.62 231.16 212.14 C 226.97 211.43 228.80 215.42 226.99 217.96 C 225.70 218.69 224.41 219.43 223.15 220.20 C 220.93 214.20 215.16 217.86 211.10 214.96 C 217.73 215.21 219.96 215.99 222.04 208.96 L 223.94 208.83 C 226.15 206.63 228.29 206.80 224.03 205.30 C 225.95 202.84 226.10 201.05 226.02 198.00 Z" fill="#a35358" />
<path d="M 173.03 200.93 C 176.33 204.12 171.09 206.80 169.30 209.03 C 166.19 212.79 162.36 215.95 158.68 219.13 C 157.54 219.77 156.40 220.42 155.29 221.11 C 154.93 220.35 154.56 219.59 154.19 218.83 C 154.83 217.60 155.43 216.35 155.95 215.06 C 156.77 213.09 157.67 211.18 158.78 209.36 C 164.30 208.24 167.22 206.04 169.86 201.12 C 171.63 198.56 171.03 199.04 173.03 200.93 Z" fill="#3d3568" />
<path d="M 42.15 204.11 C 41.62 203.43 41.13 202.74 40.66 202.02 C 41.59 197.87 44.45 202.06 42.15 204.11 Z" fill="#5c554c" />
<path d="M 44.91 200.58 C 49.09 204.06 48.22 209.42 52.80 212.28 C 57.09 216.77 56.49 221.41 62.95 224.03 C 62.41 225.47 62.76 226.51 60.91 226.77 C 55.32 222.42 51.83 216.44 46.81 211.26 C 46.29 206.83 42.41 205.19 44.91 200.58 Z" fill="#d7b3b3" />
<path d="M 125.72 203.13 C 126.49 203.19 127.26 203.24 128.02 203.28 C 129.06 203.49 130.10 203.70 131.13 203.93 C 130.73 204.56 130.33 205.20 129.92 205.83 C 127.66 206.24 125.35 206.49 123.11 207.03 C 124.29 208.38 125.57 209.62 126.91 210.81 C 122.41 211.19 126.74 214.00 121.18 211.91 C 119.03 209.61 116.52 210.23 113.71 210.61 C 115.65 204.82 120.50 204.33 125.72 203.13 Z" fill="#4d3a4d" />
<path d="M 131.13 203.93 C 132.92 204.19 134.44 204.99 136.00 205.84 C 135.25 206.36 134.50 206.87 133.75 207.38 C 132.49 206.84 131.21 206.32 129.92 205.83 C 130.33 205.20 130.73 204.56 131.13 203.93 Z" fill="#bdafb7" />
<path d="M 232.94 203.82 C 233.96 204.46 234.97 205.08 235.91 205.84 C 235.17 207.56 232.54 208.45 235.92 208.71 C 236.43 211.21 232.72 211.24 231.16 212.14 C 233.88 209.62 232.46 207.04 232.94 203.82 Z" fill="#dab6b8" />
<path d="M 129.92 205.83 C 131.21 206.32 132.49 206.84 133.75 207.38 C 137.68 211.54 141.11 215.59 142.98 221.12 C 137.40 217.41 133.62 212.95 126.91 210.81 C 125.57 209.62 124.29 208.38 123.11 207.03 C 125.35 206.49 127.66 206.24 129.92 205.83 Z" fill="#a1393f" />
<path d="M 215.99 207.10 C 216.10 208.06 216.16 209.02 216.17 209.98 C 215.22 210.50 214.16 210.79 212.99 210.85 C 213.66 209.14 214.13 207.81 215.99 207.10 Z" fill="#b7949d" />
<path d="M 223.94 208.83 L 222.04 208.96 C 221.21 206.31 224.69 206.10 223.94 208.83 Z" fill="#49182a" />
<path d="M 222.04 208.96 C 219.96 215.99 217.73 215.21 211.10 214.96 L 209.78 213.92 C 210.55 212.50 211.67 211.71 212.99 210.85 C 214.16 210.79 215.22 210.50 216.17 209.98 C 218.32 208.97 219.63 208.34 222.04 208.96 Z" fill="#342037" />
<path d="M 58.93 208.90 C 61.45 211.25 63.23 214.09 65.29 216.82 C 70.21 213.94 70.42 207.38 77.66 209.32 C 82.85 210.03 81.47 213.80 82.89 217.68 C 75.84 213.33 72.91 215.10 66.83 219.66 C 62.83 219.82 56.01 213.03 58.93 208.90 Z" fill="#983a47" />
<path d="M 153.80 208.80 C 154.44 210.45 152.61 217.68 155.95 215.06 C 155.43 216.35 154.83 217.60 154.19 218.83 C 151.23 222.72 146.70 227.03 142.98 221.12 C 150.56 220.95 152.06 215.05 153.80 208.80 Z" fill="#7e3649" />
<path d="M 121.18 211.91 C 119.75 211.80 117.25 212.78 118.17 214.58 C 119.81 215.34 121.01 213.31 121.18 211.91 C 126.74 214.00 122.41 211.19 126.91 210.81 C 133.62 212.95 137.40 217.41 142.98 221.12 C 146.70 227.03 151.23 222.72 154.19 218.83 C 154.56 219.59 154.93 220.35 155.29 221.11 C 151.50 225.15 147.57 224.63 142.66 225.65 C 138.00 232.96 128.71 231.13 121.32 230.95 C 122.45 229.20 123.66 229.12 121.78 227.21 C 119.63 223.45 117.10 233.05 116.98 228.03 C 117.90 224.36 111.08 227.53 111.79 229.96 C 110.97 233.25 108.99 226.25 109.11 228.99 C 110.05 235.32 102.52 228.47 104.62 225.67 C 107.38 220.53 109.27 214.42 113.71 210.61 C 116.52 210.23 119.03 209.61 121.18 211.91 Z" fill="#282742" />
<path d="M 115.40 212.49 C 119.21 210.53 113.65 216.58 112.07 216.03 C 112.89 214.77 113.93 213.01 115.40 212.49 Z" fill="#b6b7cb" />
<path d="M 121.18 211.91 C 121.01 213.31 119.81 215.34 118.17 214.58 C 117.25 212.78 119.75 211.80 121.18 211.91 Z" fill="#747388" />
<path d="M 231.16 212.14 C 230.99 216.29 230.47 216.25 226.99 217.96 C 228.80 215.42 226.97 211.43 231.16 212.14 Z" fill="#d49a98" />
<path d="M 209.78 213.92 L 211.10 214.96 C 215.16 217.86 220.93 214.20 223.15 220.20 C 216.63 225.79 216.73 217.85 209.67 217.24 C 207.24 216.79 207.77 214.50 209.78 213.92 Z" fill="#d09996" />
<path d="M 56.76 231.27 C 59.60 231.00 62.30 230.98 65.12 231.54 C 62.21 231.94 59.57 232.49 56.76 231.27 Z" fill="#aeadbe" />
</svg>