<?xml version="1.0" encoding="UTF-8" standalone="no"?>
<!DOCTYPE svg PUBLIC "-//W3C//DTD SVG 1.1//EN" "http://www.w3.org/Graphics/SVG/1.1/DTD/svg11.dtd">
<svg xmlns="http://www.w3.org/2000/svg" version="1.1" viewBox="0 0 256 256" width="256.0pt" height="256.0pt">
<path d="M 0.00 0.00 L 256.00 0.00 L 256.00 256.00 L 0.00 256.00 L 0.00 0.00 Z" fill="#fefefe" />
<path d="M 110.97 11.00 C 121.39 10.47 132.22 13.13 142.40 14.53 C 151.92 15.86 161.38 14.50 171.01 13.83 C 179.13 13.08 187.29 13.14 195.42 12.42 C 200.14 12.03 204.66 11.74 209.35 12.58 C 216.84 13.83 223.86 17.69 230.00 22.02 C 234.67 25.34 238.39 29.65 239.58 35.38 C 241.29 43.59 237.93 51.76 237.88 60.00 C 237.59 70.55 244.64 79.39 245.75 90.25 C 247.22 100.15 242.48 107.39 241.95 116.96 C 241.47 123.71 242.77 130.09 244.47 136.57 C 246.78 145.20 248.07 154.15 247.26 163.09 C 246.52 171.52 243.37 179.98 240.99 188.11 C 238.91 195.33 236.18 202.31 234.05 209.51 C 232.08 216.18 229.03 222.61 225.63 228.66 C 223.47 232.27 220.85 236.03 216.60 237.24 C 211.77 238.50 206.38 239.02 202.10 235.92 C 198.40 233.75 193.77 228.89 189.24 229.34 C 182.95 230.42 177.13 234.14 171.01 236.02 C 161.99 239.20 153.46 238.71 144.17 240.15 C 132.82 241.74 121.32 244.78 110.04 244.99 C 102.25 245.20 94.47 245.16 86.71 244.35 C 81.65 243.80 76.62 244.00 71.57 244.55 C 64.31 245.31 56.88 244.60 49.73 243.22 C 45.93 242.52 42.96 240.54 39.74 238.60 C 43.97 238.48 48.15 237.89 52.37 237.56 C 47.88 237.07 43.42 236.49 38.97 235.74 C 43.88 236.29 49.37 236.53 54.13 235.03 C 57.54 233.97 61.01 233.42 64.53 232.80 C 67.27 232.54 70.15 233.52 72.92 233.08 C 79.30 231.70 86.81 230.44 93.15 232.51 C 94.85 230.11 95.59 229.43 98.52 228.78 C 102.04 228.86 105.49 228.33 108.98 228.09 L 109.84 228.25 C 107.28 228.30 104.81 228.60 102.45 229.67 C 101.70 229.95 100.96 230.23 100.21 230.51 L 98.70 230.64 C 97.44 229.19 95.41 229.16 95.35 231.43 L 94.09 232.99 C 99.02 233.75 103.95 233.34 108.91 233.69 C 114.74 231.55 120.47 231.50 126.58 231.01 C 129.81 231.10 131.30 229.11 133.35 227.00 C 136.04 226.71 138.71 226.32 141.39 225.98 C 144.08 225.73 146.74 225.34 149.42 225.04 C 147.20 226.37 144.95 227.62 142.77 229.00 C 145.17 228.59 147.54 228.08 149.91 227.53 C 153.42 226.86 156.95 226.28 160.47 225.65 C 164.16 225.19 167.73 224.42 171.22 223.12 C 170.34 224.18 169.52 225.29 168.72 226.42 C 173.16 223.61 177.50 220.69 182.04 218.04 C 185.47 215.77 188.38 212.68 191.52 210.01 L 191.74 210.81 C 191.95 211.48 192.16 212.15 192.39 212.82 C 194.10 210.41 195.84 208.02 197.80 205.80 C 200.60 202.69 202.72 199.11 205.71 196.16 C 206.97 194.76 208.15 193.28 209.38 191.85 C 209.93 191.23 210.48 190.61 211.04 189.99 C 209.92 196.20 207.76 202.03 204.33 207.34 C 202.37 210.10 202.42 213.60 202.98 216.80 C 204.37 219.97 206.78 222.58 208.00 225.91 C 209.20 229.18 210.19 232.49 211.81 235.60 C 212.45 230.76 212.72 226.08 214.62 221.50 C 215.71 218.55 218.26 216.84 220.06 214.06 C 223.64 208.53 224.35 202.62 225.02 196.23 C 229.19 185.36 232.82 174.31 235.29 162.93 C 236.36 157.98 237.09 153.34 234.59 148.67 C 233.78 147.11 232.90 145.59 232.07 144.04 C 231.78 138.32 231.23 132.77 229.70 127.23 C 227.97 121.03 228.11 114.78 228.61 108.43 L 228.67 107.63 C 231.39 103.36 234.94 100.12 236.49 95.16 C 234.72 91.68 232.34 88.67 230.06 85.53 C 230.09 83.63 230.38 81.31 229.56 79.55 C 227.90 75.77 225.38 72.69 224.34 68.53 C 223.29 64.21 223.95 60.24 224.51 55.93 C 224.53 53.85 223.62 52.19 222.82 50.32 C 225.05 45.05 228.77 41.26 232.93 37.47 C 232.22 36.98 231.48 36.53 230.75 36.06 C 227.69 33.66 224.13 32.43 221.37 29.64 C 218.49 26.93 214.76 24.84 210.90 23.96 C 201.71 23.12 192.41 22.94 183.26 21.76 C 173.94 19.69 165.50 21.09 155.97 20.59 C 152.69 20.31 149.83 21.05 146.77 22.12 C 142.60 23.54 138.36 23.56 134.04 24.06 C 131.33 24.35 128.65 24.52 125.95 24.05 C 122.03 23.22 118.29 22.18 114.27 22.48 C 110.42 22.76 106.65 23.49 102.77 23.47 C 100.55 23.51 97.99 23.09 95.90 23.86 C 93.83 25.56 92.63 27.92 90.75 29.70 C 89.15 30.89 86.95 31.22 85.37 32.44 C 83.67 34.25 82.27 36.35 80.77 38.32 C 86.17 36.87 91.95 36.28 97.51 35.57 C 99.39 35.29 101.09 35.67 102.95 35.91 C 102.72 34.90 102.48 33.89 102.25 32.89 C 104.70 33.80 108.13 34.07 109.69 36.32 C 111.64 38.90 113.84 40.45 116.66 41.94 C 115.90 42.83 115.13 43.72 114.37 44.62 C 115.40 46.84 116.53 48.92 116.92 51.37 C 119.03 51.45 121.14 51.43 123.24 51.55 C 121.21 54.31 118.89 55.82 115.91 57.40 C 114.60 56.25 113.27 55.12 111.99 53.94 L 111.10 52.83 C 110.43 51.97 109.74 51.13 109.03 50.30 C 107.59 53.10 106.24 55.77 105.56 58.87 C 105.35 64.85 103.31 70.21 101.68 75.89 C 98.80 82.06 95.74 87.58 91.73 93.09 C 91.49 92.77 91.25 92.44 91.01 92.12 C 91.93 89.76 92.99 87.36 93.53 84.88 C 93.18 81.77 91.34 78.65 89.92 75.91 C 88.15 80.82 88.49 86.50 90.41 91.31 C 87.87 93.11 86.01 95.62 84.10 98.04 C 81.60 98.99 78.13 99.37 75.45 99.20 C 72.26 98.13 69.63 94.97 67.30 92.63 C 64.88 90.23 65.69 87.55 65.58 84.48 C 66.33 83.70 67.05 82.90 67.77 82.10 C 72.95 78.19 77.07 73.38 79.07 67.11 C 80.96 58.63 80.25 50.01 77.20 41.89 C 75.99 37.10 76.16 32.16 74.11 27.86 C 73.41 26.23 72.58 24.66 71.84 23.05 C 71.86 22.37 71.98 21.72 72.18 21.10 C 74.51 19.55 77.55 18.90 80.20 18.11 C 90.39 15.42 100.32 11.59 110.97 11.00 Z" fill="#f5f5f5" />
<path d="M 155.97 20.59 C 165.50 21.09 173.94 19.69 183.26 21.76 C 192.41 22.94 201.71 23.12 210.90 23.96 C 214.76 24.84 218.49 26.93 221.37 29.64 C 224.13 32.43 227.69 33.66 230.75 36.06 C 228.17 37.53 226.19 36.10 223.58 35.54 C 219.53 34.53 215.37 33.38 211.21 33.81 C 207.31 33.81 203.37 33.09 200.07 30.91 C 196.49 28.51 192.50 27.39 188.63 25.61 C 185.89 24.41 183.45 23.10 180.42 22.78 C 175.95 22.33 171.46 22.66 166.99 22.03 C 161.79 21.36 156.61 21.81 151.49 22.86 C 149.92 22.61 148.35 22.32 146.77 22.12 C 149.83 21.05 152.69 20.31 155.97 20.59 Z" fill="#1f213f" />
<path d="M 114.27 22.48 C 118.29 22.18 122.03 23.22 125.95 24.05 C 130.20 25.59 133.22 28.54 136.26 31.74 C 145.85 40.99 152.92 51.83 159.90 63.08 C 165.81 72.84 173.56 79.76 177.88 90.57 C 181.12 99.17 186.65 106.13 190.87 114.33 C 189.96 114.54 189.05 114.76 188.14 114.98 C 187.33 113.15 186.34 111.45 185.18 109.83 C 180.60 103.54 176.25 96.72 170.87 91.13 C 168.53 88.70 166.31 86.14 163.92 83.76 C 159.74 79.31 154.55 76.60 149.08 74.07 C 147.82 73.29 145.57 72.56 145.17 70.97 C 144.35 68.66 143.86 66.22 143.28 63.85 L 142.46 63.53 C 141.20 63.02 139.92 62.54 138.65 62.06 C 136.29 60.96 133.88 59.47 131.38 58.80 C 129.56 58.41 127.59 58.61 125.73 58.54 L 124.33 58.52 C 121.19 58.42 118.07 58.69 114.92 58.72 L 115.91 57.40 C 118.89 55.82 121.21 54.31 123.24 51.55 C 121.14 51.43 119.03 51.45 116.92 51.37 C 116.53 48.92 115.40 46.84 114.37 44.62 C 115.13 43.72 115.90 42.83 116.66 41.94 C 113.84 40.45 111.64 38.90 109.69 36.32 C 108.13 34.07 104.70 33.80 102.25 32.89 C 102.48 33.89 102.72 34.90 102.95 35.91 C 101.09 35.67 99.39 35.29 97.51 35.57 C 91.95 36.28 86.17 36.87 80.77 38.32 C 82.27 36.35 83.67 34.25 85.37 32.44 C 86.95 31.22 89.15 30.89 90.75 29.70 C 92.63 27.92 93.83 25.56 95.90 23.86 C 97.99 23.09 100.55 23.51 102.77 23.47 C 106.65 23.49 110.42 22.76 114.27 22.48 Z" fill="#20233f" />
<path d="M 146.77 22.12 C 148.35 22.32 149.92 22.61 151.49 22.86 C 157.19 23.97 162.81 23.23 168.56 23.73 L 166.62 25.40 C 165.33 25.33 164.04 25.26 162.74 25.20 C 163.42 26.93 164.12 28.66 164.81 30.38 C 163.49 30.38 162.16 30.37 160.83 30.35 C 154.08 30.40 147.81 29.67 141.53 32.72 C 147.62 34.74 153.87 35.73 159.84 38.16 C 164.85 40.21 170.12 42.11 174.76 44.94 C 175.55 47.07 176.26 49.22 176.94 51.39 C 173.05 50.36 169.27 48.99 165.41 47.90 C 163.37 47.21 160.87 48.48 158.84 48.91 C 160.55 49.63 162.42 50.24 163.95 51.29 C 165.46 53.53 166.18 56.05 167.94 58.14 C 169.67 60.24 170.91 62.28 171.74 64.90 C 172.60 67.34 173.65 69.65 175.20 71.73 C 174.68 72.79 174.17 73.85 173.68 74.91 C 174.77 77.45 175.82 80.01 176.82 82.59 C 178.18 81.71 179.54 80.84 180.90 79.96 C 182.89 83.68 185.02 87.09 187.72 90.35 C 188.30 92.78 188.93 95.13 190.13 97.34 C 193.54 102.18 195.60 107.98 197.41 113.58 C 198.21 115.84 197.06 117.20 195.99 119.06 C 197.43 119.35 199.52 119.34 200.34 120.69 C 202.68 123.73 204.23 127.35 204.78 131.14 C 204.60 135.55 207.08 138.15 209.65 141.37 C 209.31 143.18 209.05 145.01 208.86 146.85 C 203.57 137.36 199.57 126.37 192.92 117.81 C 194.75 122.51 196.53 127.21 198.27 131.94 C 194.06 126.66 190.19 121.53 188.14 114.98 C 189.05 114.76 189.96 114.54 190.87 114.33 C 186.65 106.13 181.12 99.17 177.88 90.57 C 173.56 79.76 165.81 72.84 159.90 63.08 C 152.92 51.83 145.85 40.99 136.26 31.74 C 133.22 28.54 130.20 25.59 125.95 24.05 C 128.65 24.52 131.33 24.35 134.04 24.06 C 138.36 23.56 142.60 23.54 146.77 22.12 Z" fill="#454736" />
<path d="M 151.49 22.86 C 156.61 21.81 161.79 21.36 166.99 22.03 C 171.46 22.66 175.95 22.33 180.42 22.78 C 183.45 23.10 185.89 24.41 188.63 25.61 C 192.50 27.39 196.49 28.51 200.07 30.91 C 203.37 33.09 207.31 33.81 211.21 33.81 C 209.51 33.93 207.81 34.07 206.13 34.32 C 205.66 36.28 205.39 38.30 205.06 40.29 C 204.19 38.27 203.55 36.17 202.99 34.04 C 202.56 37.63 201.39 41.41 200.10 44.79 C 197.65 44.36 195.21 43.87 192.80 43.29 C 194.45 43.31 196.11 43.29 197.76 43.22 C 195.76 41.39 194.08 39.53 191.40 38.73 C 188.42 37.78 185.38 37.13 182.27 36.82 C 181.45 33.82 180.71 30.79 179.88 27.79 C 183.35 27.73 186.79 27.70 190.22 27.11 C 185.17 24.53 179.69 23.99 174.10 23.92 C 172.39 23.92 170.72 25.33 169.23 26.09 C 168.37 25.85 167.50 25.62 166.62 25.40 L 168.56 23.73 C 162.81 23.23 157.19 23.97 151.49 22.86 Z" fill="#c9b980" />
<path d="M 71.84 23.05 C 72.58 24.66 73.41 26.23 74.11 27.86 C 76.16 32.16 75.99 37.10 77.20 41.89 C 78.12 49.56 77.10 57.23 74.73 64.54 C 72.57 70.49 69.41 75.93 67.77 82.10 C 67.05 82.90 66.33 83.70 65.58 84.48 C 64.09 86.14 62.13 87.71 61.08 89.69 C 61.30 90.71 61.68 91.70 62.02 92.69 C 59.51 95.71 57.05 98.60 55.71 102.36 C 53.03 103.10 50.53 104.20 47.92 105.08 C 46.49 106.52 45.53 108.49 44.42 110.18 C 48.27 108.22 52.05 107.00 55.04 103.69 C 54.12 105.48 53.41 107.34 52.31 109.03 C 50.93 111.08 49.49 113.08 48.02 115.07 C 49.17 117.05 50.25 119.05 51.25 121.11 C 50.22 122.98 49.20 124.85 48.18 126.73 C 45.60 128.79 42.58 130.97 41.01 133.95 C 39.98 136.47 40.08 139.53 39.76 142.21 L 39.02 141.97 C 36.38 135.68 39.41 130.96 42.99 126.00 C 42.26 125.31 41.53 124.63 40.80 123.94 C 39.16 125.35 37.39 126.42 36.56 128.51 C 35.40 131.50 34.48 134.43 32.51 137.02 C 33.43 139.12 34.33 141.22 35.10 143.38 C 29.08 141.14 25.10 136.96 22.88 130.96 C 18.95 118.71 19.80 105.17 25.65 93.67 C 28.24 88.88 32.15 85.63 35.25 81.25 C 38.15 77.05 43.04 74.02 47.00 70.78 C 45.07 73.27 43.02 75.67 41.11 78.18 C 47.03 74.25 53.42 71.26 59.38 67.43 C 57.16 67.82 54.95 68.30 52.74 68.71 C 54.11 66.19 55.25 63.41 57.55 61.60 C 59.99 59.57 62.58 58.16 64.42 55.46 C 67.61 50.81 71.15 45.70 71.81 39.97 C 72.64 35.82 72.13 31.80 71.83 27.64 C 71.80 26.11 71.77 24.58 71.84 23.05 Z" fill="#20233f" />
<path d="M 174.10 23.92 C 179.69 23.99 185.17 24.53 190.22 27.11 C 186.79 27.70 183.35 27.73 179.88 27.79 C 180.71 30.79 181.45 33.82 182.27 36.82 C 181.59 38.66 181.00 40.54 180.36 42.40 C 176.29 39.79 171.58 38.53 167.42 36.02 C 168.93 35.81 170.45 35.62 171.96 35.39 C 174.13 34.84 176.29 34.23 178.45 33.65 C 177.30 32.44 176.15 31.24 174.99 30.03 C 175.56 29.32 176.13 28.61 176.70 27.89 C 174.18 27.39 171.70 26.79 169.23 26.09 C 170.72 25.33 172.39 23.92 174.10 23.92 Z" fill="#3d3722" />
<path d="M 162.74 25.20 C 164.04 25.26 165.33 25.33 166.62 25.40 C 167.50 25.62 168.37 25.85 169.23 26.09 C 171.70 26.79 174.18 27.39 176.70 27.89 C 176.13 28.61 175.56 29.32 174.99 30.03 C 171.60 30.24 168.21 30.37 164.81 30.38 C 164.12 28.66 163.42 26.93 162.74 25.20 Z" fill="#8a7964" />
<path d="M 69.26 26.90 C 69.79 29.69 70.25 32.49 70.59 35.30 C 71.02 32.75 71.49 30.21 71.83 27.64 C 72.13 31.80 72.64 35.82 71.81 39.97 C 71.15 45.70 67.61 50.81 64.42 55.46 C 62.58 58.16 59.99 59.57 57.55 61.60 C 55.25 63.41 54.11 66.19 52.74 68.71 C 54.95 68.30 57.16 67.82 59.38 67.43 C 53.42 71.26 47.03 74.25 41.11 78.18 C 43.02 75.67 45.07 73.27 47.00 70.78 C 43.04 74.02 38.15 77.05 35.25 81.25 C 32.15 85.63 28.24 88.88 25.65 93.67 C 19.80 105.17 18.95 118.71 22.88 130.96 C 25.10 136.96 29.08 141.14 35.10 143.38 C 34.33 141.22 33.43 139.12 32.51 137.02 C 34.48 134.43 35.40 131.50 36.56 128.51 C 37.39 126.42 39.16 125.35 40.80 123.94 C 41.53 124.63 42.26 125.31 42.99 126.00 C 39.41 130.96 36.38 135.68 39.02 141.97 C 39.61 143.43 40.26 144.87 40.92 146.31 C 43.22 143.94 45.56 141.64 48.06 139.48 C 49.65 138.27 51.25 137.06 52.81 135.81 L 53.57 136.61 C 54.44 138.75 55.27 140.91 56.18 143.03 C 57.99 141.96 59.75 140.84 61.50 139.66 C 62.55 139.00 63.60 138.34 64.64 137.67 C 65.60 138.98 66.54 140.31 67.55 141.57 L 69.02 143.25 C 72.02 142.43 74.90 141.25 77.63 139.78 C 74.61 139.83 71.64 140.29 68.68 140.90 C 70.21 140.06 71.65 138.99 73.26 138.40 C 76.05 137.28 79.43 137.67 82.42 137.51 C 82.53 138.20 82.63 138.89 82.73 139.57 C 79.42 141.94 76.99 144.33 74.70 147.71 C 73.53 149.59 71.80 150.56 69.90 151.57 C 70.39 153.21 71.44 155.11 71.20 156.82 C 69.18 160.47 65.77 160.80 62.10 161.74 C 64.43 163.12 66.69 164.60 68.97 166.06 C 71.39 166.02 74.64 166.13 76.69 164.67 C 78.23 163.16 79.26 161.05 80.41 159.24 C 82.09 156.89 83.98 154.70 85.72 152.39 C 86.68 151.11 87.59 149.80 88.52 148.49 C 90.26 146.98 92.20 145.15 94.39 144.37 C 97.57 144.03 101.00 145.04 104.16 145.41 C 109.96 146.20 116.80 145.94 122.00 142.98 C 126.53 140.44 128.44 135.26 131.16 131.11 C 133.19 127.57 136.28 124.55 136.30 120.28 C 136.41 115.86 137.00 112.19 138.84 108.15 C 144.22 107.32 149.19 106.41 154.63 107.58 C 156.81 108.26 158.75 110.00 160.57 111.34 C 163.36 113.57 166.40 115.57 169.00 118.01 C 171.70 120.55 173.01 123.88 174.33 127.25 C 164.53 124.24 152.39 123.26 142.97 127.95 C 138.48 129.92 135.10 134.58 132.69 138.70 C 130.35 143.09 131.59 147.05 131.72 151.70 C 131.67 154.95 131.38 157.85 133.37 160.65 C 135.99 164.46 138.92 168.57 142.74 171.25 C 146.10 173.48 149.89 174.57 153.85 175.17 C 156.68 175.52 159.45 175.68 162.27 176.14 C 158.31 177.14 154.56 178.42 150.49 179.09 C 142.43 180.20 134.34 180.32 126.22 179.99 C 126.61 177.20 127.38 174.05 126.87 171.26 C 125.91 167.27 122.77 163.79 121.76 159.76 C 121.03 156.76 120.12 153.81 119.18 150.86 C 114.07 151.21 109.03 151.75 104.03 152.89 C 101.85 153.31 99.65 153.56 97.45 153.76 C 95.57 157.82 91.97 157.47 89.09 160.14 C 86.92 164.41 87.88 167.85 90.27 171.75 C 91.01 168.19 91.63 165.65 94.86 163.56 C 95.77 163.64 96.67 163.71 97.58 163.79 C 99.52 168.14 102.34 170.43 106.26 172.90 C 108.06 171.43 109.33 170.02 110.58 168.07 C 110.49 168.59 110.39 169.11 110.30 169.62 C 107.20 173.71 103.65 176.70 102.80 182.04 C 104.51 180.77 106.19 179.47 107.93 178.23 C 109.11 178.65 110.28 179.06 111.46 179.48 C 113.51 182.39 115.96 184.44 118.94 186.34 C 120.23 187.27 121.43 188.29 122.56 189.40 C 122.93 190.05 123.30 190.71 123.67 191.37 C 126.52 197.80 134.81 199.97 141.24 199.18 C 146.06 197.65 150.66 195.52 155.52 194.08 C 158.20 193.23 160.86 192.31 163.55 191.48 C 165.06 191.35 166.58 191.21 168.09 191.08 C 167.14 193.98 166.21 196.88 165.29 199.79 C 166.35 200.37 167.42 200.94 168.49 201.51 C 165.10 205.79 161.81 210.95 157.20 213.83 C 151.35 214.96 147.29 217.75 141.49 217.39 C 137.42 217.31 133.35 217.40 129.29 217.24 C 118.91 215.39 109.22 213.54 100.27 207.61 C 98.67 206.34 97.38 204.61 96.02 203.08 C 93.82 200.43 91.35 198.05 88.79 195.74 C 85.71 192.98 83.07 189.71 79.87 187.10 C 78.44 185.86 76.41 186.09 74.65 185.93 C 68.64 181.03 62.34 176.77 54.83 174.51 C 55.95 174.00 57.07 173.49 58.18 172.99 C 57.98 169.07 57.97 164.84 56.92 161.07 C 55.86 157.48 53.69 154.33 50.03 153.07 C 43.77 150.92 37.50 150.81 31.50 147.50 C 25.55 144.18 20.00 139.44 16.38 133.62 C 11.86 126.16 11.55 117.43 11.97 108.96 C 12.49 96.90 19.20 85.91 27.54 77.55 C 32.84 71.99 39.47 68.29 44.80 62.80 C 51.98 55.52 57.43 46.18 62.20 37.20 C 64.18 33.50 66.67 30.19 69.26 26.90 Z" fill="#f2f2f2" />
<path d="M 134.95 26.59 C 136.87 27.51 138.81 28.42 140.68 29.44 C 138.49 28.86 135.27 29.58 134.95 26.59 Z" fill="#747667" />
<path d="M 160.83 30.35 C 164.40 30.52 167.97 30.93 171.53 31.27 C 171.67 32.64 171.81 34.02 171.96 35.39 C 170.45 35.62 168.93 35.81 167.42 36.02 C 171.58 38.53 176.29 39.79 180.36 42.40 C 181.19 42.98 182.00 43.59 182.82 44.19 C 181.53 45.96 180.22 47.71 178.92 49.47 C 177.56 47.93 176.22 46.39 174.76 44.94 C 170.12 42.11 164.85 40.21 159.84 38.16 C 153.87 35.73 147.62 34.74 141.53 32.72 C 147.81 29.67 154.08 30.40 160.83 30.35 Z" fill="#c8b07f" />
<path d="M 160.83 30.35 C 162.16 30.37 163.49 30.38 164.81 30.38 C 168.21 30.37 171.60 30.24 174.99 30.03 C 176.15 31.24 177.30 32.44 178.45 33.65 C 176.29 34.23 174.13 34.84 171.96 35.39 C 171.81 34.02 171.67 32.64 171.53 31.27 C 167.97 30.93 164.40 30.52 160.83 30.35 Z" fill="#c67d78" />
<path d="M 183.27 31.27 C 183.75 31.75 183.75 31.75 183.27 31.27 Z" fill="#ba8167" />
<path d="M 202.99 34.04 C 203.55 36.17 204.19 38.27 205.06 40.29 C 207.58 42.44 210.12 44.58 212.66 46.72 C 212.47 47.97 212.31 49.23 212.15 50.49 C 210.79 51.30 209.43 52.13 208.08 52.95 C 206.02 50.77 203.98 49.32 201.22 48.15 C 200.83 47.03 200.42 45.93 200.10 44.79 C 201.39 41.41 202.56 37.63 202.99 34.04 Z" fill="#3a361b" />
<path d="M 206.13 34.32 C 207.81 34.07 209.51 33.93 211.21 33.81 C 215.37 33.38 219.53 34.53 223.58 35.54 C 226.19 36.10 228.17 37.53 230.75 36.06 C 231.48 36.53 232.22 36.98 232.93 37.47 C 228.77 41.26 225.05 45.05 222.82 50.32 C 221.65 49.84 220.49 49.37 219.29 48.96 C 217.09 48.19 214.87 47.47 212.66 46.72 C 210.12 44.58 207.58 42.44 205.06 40.29 C 205.39 38.30 205.66 36.28 206.13 34.32 Z" fill="#eae7c0" />
<path d="M 104.14 35.04 L 104.85 34.58 L 105.59 34.95 L 105.63 35.77 L 104.93 36.23 L 104.18 35.86 L 104.14 35.04 Z" fill="#5c5e69" />
<path d="M 182.27 36.82 C 185.38 37.13 188.42 37.78 191.40 38.73 C 190.19 38.99 189.00 39.29 187.80 39.62 C 189.14 40.84 190.51 42.00 191.95 43.09 C 189.32 42.45 186.70 41.75 184.06 41.19 C 184.27 43.79 184.60 46.37 184.92 48.96 C 183.13 49.49 181.39 50.20 179.60 50.75 C 178.71 50.95 177.83 51.17 176.94 51.39 C 176.26 49.22 175.55 47.07 174.76 44.94 C 176.22 46.39 177.56 47.93 178.92 49.47 C 180.22 47.71 181.53 45.96 182.82 44.19 C 182.00 43.59 181.19 42.98 180.36 42.40 C 181.00 40.54 181.59 38.66 182.27 36.82 Z" fill="#817048" />
<path d="M 187.80 39.62 C 189.00 39.29 190.19 38.99 191.40 38.73 C 194.08 39.53 195.76 41.39 197.76 43.22 C 196.11 43.29 194.45 43.31 192.80 43.29 L 191.95 43.09 C 190.51 42.00 189.14 40.84 187.80 39.62 Z" fill="#4c3b1d" />
<path d="M 184.06 41.19 C 186.70 41.75 189.32 42.45 191.95 43.09 L 192.80 43.29 C 195.21 43.87 197.65 44.36 200.10 44.79 C 200.42 45.93 200.83 47.03 201.22 48.15 C 203.98 49.32 206.02 50.77 208.08 52.95 C 209.27 55.27 210.18 57.63 211.17 60.03 C 208.04 59.69 205.27 60.02 202.23 60.78 C 202.74 59.75 203.32 58.75 203.88 57.74 C 201.98 56.85 200.10 55.93 198.24 54.95 C 195.59 53.52 193.06 52.08 190.26 50.94 C 188.50 50.22 186.73 49.54 184.92 48.96 C 184.60 46.37 184.27 43.79 184.06 41.19 Z" fill="#c9d483" />
<path d="M 77.20 41.89 C 80.25 50.01 80.96 58.63 79.07 67.11 C 78.64 66.18 78.21 65.25 77.78 64.32 C 76.76 64.39 75.74 64.47 74.73 64.54 C 77.10 57.23 78.12 49.56 77.20 41.89 Z" fill="#999788" />
<path d="M 165.41 47.90 C 169.27 48.99 173.05 50.36 176.94 51.39 C 177.35 53.34 177.97 55.26 178.45 57.20 C 179.16 56.77 179.88 56.36 180.60 55.95 C 184.05 57.98 185.95 60.30 187.84 63.79 C 185.94 65.31 183.24 69.70 180.40 68.38 C 177.43 67.51 174.59 66.10 171.74 64.90 C 170.91 62.28 169.67 60.24 167.94 58.14 C 166.18 56.05 165.46 53.53 163.95 51.29 C 162.42 50.24 160.55 49.63 158.84 48.91 C 160.87 48.48 163.37 47.21 165.41 47.90 Z" fill="#c79b7a" />
<path d="M 212.66 46.72 C 214.87 47.47 217.09 48.19 219.29 48.96 C 218.41 49.56 217.53 50.17 216.66 50.79 C 215.64 50.41 214.61 50.07 213.57 49.75 C 213.20 55.35 214.51 60.62 214.65 66.19 C 212.97 66.62 211.14 67.21 209.40 67.21 C 206.04 66.20 203.81 63.82 202.23 60.78 C 205.27 60.02 208.04 59.69 211.17 60.03 C 210.18 57.63 209.27 55.27 208.08 52.95 C 209.43 52.13 210.79 51.30 212.15 50.49 C 212.31 49.23 212.47 47.97 212.66 46.72 Z" fill="#7e7e5a" />
<path d="M 184.92 48.96 C 186.73 49.54 188.50 50.22 190.26 50.94 C 189.71 52.00 189.17 53.05 188.65 54.12 C 185.67 52.96 182.64 51.77 179.60 50.75 C 181.39 50.20 183.13 49.49 184.92 48.96 Z" fill="#3d3f2e" />
<path d="M 127.05 48.64 C 131.14 50.34 135.36 52.33 138.72 55.25 C 141.08 57.36 143.13 59.96 145.04 62.46 C 138.27 58.92 132.43 54.04 127.05 48.64 Z" fill="#7e7f94" />
<path d="M 219.29 48.96 C 220.49 49.37 221.65 49.84 222.82 50.32 C 223.62 52.19 224.53 53.85 224.51 55.93 C 221.92 54.14 219.40 52.36 216.66 50.79 C 217.53 50.17 218.41 49.56 219.29 48.96 Z" fill="#38341c" />
<path d="M 213.57 49.75 C 214.61 50.07 215.64 50.41 216.66 50.79 C 219.40 52.36 221.92 54.14 224.51 55.93 C 223.95 60.24 223.29 64.21 224.34 68.53 C 225.38 72.69 227.90 75.77 229.56 79.55 C 230.38 81.31 230.09 83.63 230.06 85.53 C 226.03 79.59 219.96 76.13 215.53 70.58 C 214.40 69.43 214.83 67.69 214.65 66.19 C 214.51 60.62 213.20 55.35 213.57 49.75 Z" fill="#eae7c0" />
<path d="M 109.03 50.30 C 109.74 51.13 110.43 51.97 111.10 52.83 C 111.13 54.25 111.11 55.67 111.10 57.09 C 109.24 57.64 107.39 58.25 105.56 58.87 C 106.24 55.77 107.59 53.10 109.03 50.30 Z" fill="#191631" />
<path d="M 176.94 51.39 C 177.83 51.17 178.71 50.95 179.60 50.75 C 182.64 51.77 185.67 52.96 188.65 54.12 C 192.37 55.75 194.32 56.10 198.24 54.95 C 200.10 55.93 201.98 56.85 203.88 57.74 C 203.32 58.75 202.74 59.75 202.23 60.78 C 203.81 63.82 206.04 66.20 209.40 67.21 C 211.14 67.21 212.97 66.62 214.65 66.19 C 214.83 67.69 214.40 69.43 215.53 70.58 C 219.96 76.13 226.03 79.59 230.06 85.53 C 232.34 88.67 234.72 91.68 236.49 95.16 C 231.66 93.38 227.32 90.71 222.66 88.55 C 220.43 87.51 218.99 85.72 217.53 83.81 C 216.19 81.21 214.67 80.09 212.12 78.76 C 207.83 76.36 207.97 71.60 204.21 68.87 C 200.45 65.97 196.68 62.99 192.64 60.48 C 190.85 59.40 189.01 58.45 187.16 57.47 C 185.66 56.64 184.18 55.78 182.65 55.01 C 181.96 55.30 181.28 55.62 180.60 55.95 C 179.88 56.36 179.16 56.77 178.45 57.20 C 177.97 55.26 177.35 53.34 176.94 51.39 Z" fill="#23233f" />
<path d="M 190.26 50.94 C 193.06 52.08 195.59 53.52 198.24 54.95 C 194.32 56.10 192.37 55.75 188.65 54.12 C 189.17 53.05 189.71 52.00 190.26 50.94 Z" fill="#a1a978" />
<path d="M 111.10 52.83 L 111.99 53.94 C 112.40 56.43 112.62 58.95 113.01 61.45 C 113.85 62.11 114.57 62.79 115.29 63.59 C 118.56 62.33 121.36 60.33 124.33 58.52 L 125.73 58.54 C 122.02 61.48 118.17 64.04 114.69 67.26 C 116.07 66.73 117.45 66.20 118.79 65.58 C 117.95 66.76 117.14 67.95 116.34 69.16 C 115.12 68.25 113.90 67.29 112.73 66.32 C 112.30 66.79 111.88 67.26 111.45 67.73 C 108.40 70.72 104.98 73.20 101.68 75.89 C 103.31 70.21 105.35 64.85 105.56 58.87 C 107.39 58.25 109.24 57.64 111.10 57.09 C 111.11 55.67 111.13 54.25 111.10 52.83 Z" fill="#7c7863" />
<path d="M 111.99 53.94 C 113.27 55.12 114.60 56.25 115.91 57.40 L 114.92 58.72 C 114.28 59.63 113.65 60.54 113.01 61.45 C 112.62 58.95 112.40 56.43 111.99 53.94 Z" fill="#c1c1ba" />
<path d="M 182.65 55.01 C 184.18 55.78 185.66 56.64 187.16 57.47 C 188.38 60.72 190.19 63.60 192.13 66.46 C 189.78 67.47 187.44 68.48 185.12 69.52 C 187.09 72.43 188.52 75.26 189.50 78.65 C 188.84 78.05 188.18 77.47 187.51 76.89 C 185.05 74.67 182.46 72.74 179.66 70.98 C 181.11 73.36 182.70 75.64 184.63 77.67 C 187.70 80.63 190.11 83.50 191.65 87.54 C 190.34 88.49 189.03 89.42 187.72 90.35 C 185.02 87.09 182.89 83.68 180.90 79.96 C 179.23 77.06 177.25 74.37 175.20 71.73 C 173.65 69.65 172.60 67.34 171.74 64.90 C 174.59 66.10 177.43 67.51 180.40 68.38 C 183.24 69.70 185.94 65.31 187.84 63.79 C 185.95 60.30 184.05 57.98 180.60 55.95 C 181.28 55.62 181.96 55.30 182.65 55.01 Z" fill="#c7c37f" />
<path d="M 98.67 57.46 C 99.42 59.13 100.91 61.03 100.77 62.92 C 100.61 65.83 100.66 68.59 100.98 71.49 C 99.89 71.97 98.83 72.49 97.79 73.07 C 96.54 75.39 95.93 78.05 94.88 80.47 C 95.10 75.28 96.17 70.20 96.23 64.99 C 96.15 62.15 97.38 59.88 98.67 57.46 Z" fill="#1d1b3a" />
<path d="M 124.33 58.52 C 121.36 60.33 118.56 62.33 115.29 63.59 C 114.57 62.79 113.85 62.11 113.01 61.45 C 113.65 60.54 114.28 59.63 114.92 58.72 C 118.07 58.69 121.19 58.42 124.33 58.52 Z" fill="#fafaf7" />
<path d="M 131.38 58.80 C 133.88 59.47 136.29 60.96 138.65 62.06 C 136.59 61.87 134.54 61.80 132.48 61.68 C 126.96 59.59 123.14 62.60 118.79 65.58 C 117.45 66.20 116.07 66.73 114.69 67.26 C 118.17 64.04 122.02 61.48 125.73 58.54 C 127.59 58.61 129.56 58.41 131.38 58.80 Z" fill="#d6d7d3" />
<path d="M 187.16 57.47 C 189.01 58.45 190.85 59.40 192.64 60.48 C 193.43 63.22 194.56 65.87 195.24 68.63 C 195.91 70.93 194.77 73.40 194.10 75.61 C 194.94 76.09 195.78 76.57 196.61 77.06 C 195.86 77.31 195.13 77.59 194.41 77.89 L 193.44 78.45 C 192.61 78.97 191.78 79.50 190.96 80.04 C 190.47 79.58 189.99 79.11 189.50 78.65 C 188.52 75.26 187.09 72.43 185.12 69.52 C 187.44 68.48 189.78 67.47 192.13 66.46 C 190.19 63.60 188.38 60.72 187.16 57.47 Z" fill="#6e7040" />
<path d="M 132.48 61.68 C 133.15 62.50 133.81 63.32 134.47 64.14 C 134.07 65.71 133.66 67.27 133.36 68.87 C 133.29 70.09 133.29 71.31 133.34 72.52 C 129.61 71.11 126.99 72.86 124.10 75.08 C 123.26 72.88 122.50 70.66 121.68 68.46 L 121.28 69.01 C 120.49 70.05 119.68 71.07 118.87 72.09 C 115.69 72.25 112.51 72.48 109.33 72.73 C 110.01 71.05 110.68 69.37 111.45 67.73 C 111.88 67.26 112.30 66.79 112.73 66.32 C 113.90 67.29 115.12 68.25 116.34 69.16 C 117.14 67.95 117.95 66.76 118.79 65.58 C 123.14 62.60 126.96 59.59 132.48 61.68 Z" fill="#585849" />
<path d="M 192.64 60.48 C 196.68 62.99 200.45 65.97 204.21 68.87 C 207.97 71.60 207.83 76.36 212.12 78.76 C 214.59 82.76 215.61 85.78 214.66 90.53 C 211.85 88.25 208.82 86.28 205.93 84.10 C 202.72 81.67 200.03 79.08 196.61 77.06 C 195.78 76.57 194.94 76.09 194.10 75.61 C 194.77 73.40 195.91 70.93 195.24 68.63 C 194.56 65.87 193.43 63.22 192.64 60.48 Z" fill="#c6c47f" />
<path d="M 205.57 61.16 C 206.71 60.16 209.54 62.20 208.68 63.60 C 207.55 64.59 204.79 62.50 205.57 61.16 Z" fill="#c7d09b" />
<path d="M 132.48 61.68 C 134.54 61.80 136.59 61.87 138.65 62.06 C 139.92 62.54 141.20 63.02 142.46 63.53 C 141.36 64.09 140.93 64.91 141.17 66.00 C 138.41 66.56 135.90 67.70 133.36 68.87 C 133.66 67.27 134.07 65.71 134.47 64.14 C 133.81 63.32 133.15 62.50 132.48 61.68 Z" fill="#b6b89e" />
<path d="M 77.78 64.32 C 78.21 65.25 78.64 66.18 79.07 67.11 C 77.07 73.38 72.95 78.19 67.77 82.10 C 69.41 75.93 72.57 70.49 74.73 64.54 C 75.74 64.47 76.76 64.39 77.78 64.32 Z" fill="#49483c" />
<path d="M 142.46 63.53 L 143.28 63.85 C 143.53 65.23 142.83 65.95 141.17 66.00 C 140.93 64.91 141.36 64.09 142.46 63.53 Z" fill="#e7e6e5" />
<path d="M 143.28 63.85 C 143.86 66.22 144.35 68.66 145.17 70.97 C 145.57 72.56 147.82 73.29 149.08 74.07 C 146.43 75.55 143.56 77.55 140.55 78.13 C 137.71 78.20 135.44 75.05 133.78 73.08 L 133.34 72.52 C 133.29 71.31 133.29 70.09 133.36 68.87 C 135.90 67.70 138.41 66.56 141.17 66.00 C 142.83 65.95 143.53 65.23 143.28 63.85 Z" fill="#737365" />
<path d="M 111.45 67.73 C 110.68 69.37 110.01 71.05 109.33 72.73 C 112.51 72.48 115.69 72.25 118.87 72.09 C 119.68 71.07 120.49 70.05 121.28 69.01 C 120.15 73.71 118.93 78.45 118.50 83.21 C 120.57 80.63 122.34 77.87 124.10 75.08 C 126.99 72.86 129.61 71.11 133.34 72.52 L 133.78 73.08 C 132.99 74.35 132.24 75.64 131.48 76.93 C 135.44 80.64 138.92 84.54 141.22 89.52 C 143.52 88.43 145.91 87.14 148.40 86.60 C 150.15 86.47 151.99 86.93 153.73 87.18 L 151.77 88.42 C 150.75 89.09 149.74 89.78 148.74 90.48 C 147.72 91.16 146.68 91.79 145.61 92.37 C 142.34 93.22 139.01 93.87 135.77 94.83 C 132.48 95.82 130.12 97.83 127.53 99.96 C 122.34 103.96 118.12 108.32 115.90 114.63 C 111.46 117.57 108.20 121.32 104.28 124.92 C 104.09 121.98 103.86 119.04 103.76 116.09 C 101.79 117.04 99.78 118.21 97.66 118.79 C 95.58 119.21 93.21 118.61 91.13 118.29 C 90.84 117.24 90.55 116.18 90.27 115.12 C 86.81 115.28 83.34 115.45 79.87 115.61 C 81.02 111.13 83.03 107.58 85.91 103.98 C 79.92 108.42 73.89 112.46 67.33 116.03 C 66.73 115.30 66.14 114.58 65.54 113.85 C 64.44 113.99 63.34 114.13 62.24 114.27 C 61.29 113.03 60.33 111.79 59.31 110.61 L 58.42 110.97 C 56.88 111.60 55.34 112.23 53.80 112.86 C 53.31 111.58 52.83 110.30 52.31 109.03 C 53.41 107.34 54.12 105.48 55.04 103.69 L 55.71 102.36 C 57.05 98.60 59.51 95.71 62.02 92.69 C 61.68 91.70 61.30 90.71 61.08 89.69 C 62.13 87.71 64.09 86.14 65.58 84.48 C 65.69 87.55 64.88 90.23 67.30 92.63 C 69.63 94.97 72.26 98.13 75.45 99.20 C 78.13 99.37 81.60 98.99 84.10 98.04 C 86.01 95.62 87.87 93.11 90.41 91.31 L 91.01 92.12 C 91.25 92.44 91.49 92.77 91.73 93.09 C 95.74 87.58 98.80 82.06 101.68 75.89 C 104.98 73.20 108.40 70.72 111.45 67.73 Z" fill="#49493b" />
<path d="M 121.68 68.46 C 122.50 70.66 123.26 72.88 124.10 75.08 C 122.34 77.87 120.57 80.63 118.50 83.21 C 118.93 78.45 120.15 73.71 121.28 69.01 L 121.68 68.46 Z" fill="#c1c09c" />
<path d="M 51.25 69.34 C 53.05 68.11 53.59 70.41 51.82 70.97 C 50.83 70.84 50.64 70.30 51.25 69.34 Z" fill="#252334" />
<path d="M 179.66 70.98 C 182.46 72.74 185.05 74.67 187.51 76.89 C 186.54 77.14 185.58 77.40 184.63 77.67 C 182.70 75.64 181.11 73.36 179.66 70.98 Z" fill="#a89b67" />
<path d="M 175.20 71.73 C 177.25 74.37 179.23 77.06 180.90 79.96 C 179.54 80.84 178.18 81.71 176.82 82.59 C 175.82 80.01 174.77 77.45 173.68 74.91 C 174.17 73.85 174.68 72.79 175.20 71.73 Z" fill="#777957" />
<path d="M 133.78 73.08 C 135.44 75.05 137.71 78.20 140.55 78.13 C 143.56 77.55 146.43 75.55 149.08 74.07 C 154.55 76.60 159.74 79.31 163.92 83.76 C 162.53 85.03 161.21 86.35 159.88 87.68 C 161.38 87.49 162.89 87.30 164.39 87.10 C 163.14 89.06 161.90 91.03 160.66 93.00 C 156.15 92.34 151.63 92.35 147.08 92.34 L 145.61 92.37 C 146.68 91.79 147.72 91.16 148.74 90.48 C 153.06 91.43 156.38 91.41 160.67 90.36 C 157.75 89.52 154.79 88.84 151.77 88.42 L 153.73 87.18 C 151.99 86.93 150.15 86.47 148.40 86.60 C 145.91 87.14 143.52 88.43 141.22 89.52 C 138.92 84.54 135.44 80.64 131.48 76.93 C 132.24 75.64 132.99 74.35 133.78 73.08 Z" fill="#656657" />
<path d="M 54.86 73.60 C 51.45 79.83 47.25 85.65 43.89 91.92 C 42.27 95.64 40.90 99.41 38.97 102.99 C 36.35 108.16 36.94 113.09 35.91 118.71 C 33.09 115.91 32.16 112.74 31.15 109.03 C 30.34 108.53 29.51 108.04 28.69 107.55 C 28.25 109.73 27.64 111.68 27.76 113.92 L 25.89 114.08 C 26.58 108.61 26.01 103.81 29.12 98.98 C 29.01 102.62 29.08 104.91 31.05 108.09 C 31.45 107.58 31.74 107.02 31.92 106.41 C 33.97 99.06 38.90 92.62 43.37 86.35 C 47.00 82.07 50.28 76.84 54.86 73.60 Z" fill="#fbfae7" />
<path d="M 89.92 75.91 C 91.34 78.65 93.18 81.77 93.53 84.88 C 92.99 87.36 91.93 89.76 91.01 92.12 L 90.41 91.31 C 88.49 86.50 88.15 80.82 89.92 75.91 Z" fill="#1e1e3a" />
<path d="M 187.51 76.89 C 188.18 77.47 188.84 78.05 189.50 78.65 C 189.99 79.11 190.47 79.58 190.96 80.04 C 191.78 79.50 192.61 78.97 193.44 78.45 C 195.06 82.30 196.09 85.98 198.49 89.45 C 200.40 92.23 202.30 95.02 203.96 97.96 L 204.16 100.13 C 200.90 96.85 198.20 93.11 195.08 89.71 C 194.57 89.23 194.05 88.77 193.51 88.32 C 192.89 88.05 192.27 87.79 191.65 87.54 C 190.11 83.50 187.70 80.63 184.63 77.67 C 185.58 77.40 186.54 77.14 187.51 76.89 Z" fill="#594830" />
<path d="M 196.61 77.06 C 200.03 79.08 202.72 81.67 205.93 84.10 C 208.82 86.28 211.85 88.25 214.66 90.53 C 217.46 92.77 217.90 95.05 217.82 98.52 C 217.50 100.34 217.01 102.13 216.65 103.94 C 215.76 104.48 214.86 105.02 213.96 105.56 C 213.22 104.38 212.49 103.20 211.80 101.99 C 213.17 99.66 214.60 97.38 216.08 95.12 C 215.56 94.67 215.03 94.23 214.51 93.79 C 210.21 90.09 207.23 86.19 202.53 83.34 C 199.71 81.66 197.05 79.83 194.41 77.89 C 195.13 77.59 195.86 77.31 196.61 77.06 Z" fill="#3a3519" />
<path d="M 194.41 77.89 C 197.05 79.83 199.71 81.66 202.53 83.34 C 207.23 86.19 210.21 90.09 214.51 93.79 C 212.88 94.90 211.29 96.06 209.70 97.22 C 210.38 98.82 211.04 100.42 211.80 101.99 C 212.49 103.20 213.22 104.38 213.96 105.56 C 213.90 107.16 213.82 108.75 213.74 110.34 C 210.35 106.32 207.16 102.13 203.96 97.96 C 202.30 95.02 200.40 92.23 198.49 89.45 C 196.09 85.98 195.06 82.30 193.44 78.45 L 194.41 77.89 Z" fill="#c8d583" />
<path d="M 38.21 79.04 C 39.85 77.95 40.63 80.34 38.84 80.75 C 37.88 80.52 37.67 79.95 38.21 79.04 Z" fill="#808198" />
<path d="M 212.12 78.76 C 214.67 80.09 216.19 81.21 217.53 83.81 C 217.72 88.62 217.80 93.04 220.45 97.27 C 223.18 100.77 226.15 103.94 228.67 107.63 L 228.61 108.43 C 225.06 105.05 221.75 101.49 217.82 98.52 C 217.90 95.05 217.46 92.77 214.66 90.53 C 215.61 85.78 214.59 82.76 212.12 78.76 Z" fill="#7f7e44" />
<path d="M 163.92 83.76 C 166.31 86.14 168.53 88.70 170.87 91.13 C 176.25 96.72 180.60 103.54 185.18 109.83 C 183.20 108.79 181.17 107.85 179.14 106.91 C 179.58 107.95 180.02 108.99 180.46 110.03 C 173.70 105.76 168.18 100.25 162.41 94.78 C 161.83 94.19 161.25 93.59 160.66 93.00 C 161.90 91.03 163.14 89.06 164.39 87.10 C 162.89 87.30 161.38 87.49 159.88 87.68 C 161.21 86.35 162.53 85.03 163.92 83.76 Z" fill="#7c7962" />
<path d="M 217.53 83.81 C 218.99 85.72 220.43 87.51 222.66 88.55 C 221.90 91.45 221.17 94.36 220.45 97.27 C 217.80 93.04 217.72 88.62 217.53 83.81 Z" fill="#cfd98c" />
<path d="M 109.33 84.75 C 109.99 86.51 110.60 88.29 111.14 90.09 C 109.88 89.77 108.61 89.45 107.34 89.13 C 106.80 91.38 106.23 93.61 105.73 95.87 C 106.33 91.61 105.90 87.89 109.33 84.75 Z" fill="#7e7d65" />
<path d="M 193.51 88.32 C 194.05 88.77 194.57 89.23 195.08 89.71 C 193.33 92.19 191.70 94.75 190.13 97.34 C 188.93 95.13 188.30 92.78 187.72 90.35 C 189.03 89.42 190.34 88.49 191.65 87.54 C 192.27 87.79 192.89 88.05 193.51 88.32 Z" fill="#747247" />
<path d="M 69.74 88.80 C 71.30 91.06 72.66 93.47 74.13 95.80 C 77.38 96.02 80.66 96.20 83.90 96.57 C 80.25 98.71 76.12 98.88 72.61 96.39 C 70.32 94.42 70.14 91.60 69.74 88.80 Z" fill="#44444f" />
<path d="M 107.34 89.13 C 108.61 89.45 109.88 89.77 111.14 90.09 C 109.90 93.68 107.82 96.73 105.28 99.52 C 105.41 98.30 105.57 97.08 105.73 95.87 C 106.23 93.61 106.80 91.38 107.34 89.13 Z" fill="#b7b697" />
<path d="M 151.77 88.42 C 154.79 88.84 157.75 89.52 160.67 90.36 C 156.38 91.41 153.06 91.43 148.74 90.48 C 149.74 89.78 150.75 89.09 151.77 88.42 Z" fill="#bdc292" />
<path d="M 222.66 88.55 C 227.32 90.71 231.66 93.38 236.49 95.16 C 234.94 100.12 231.39 103.36 228.67 107.63 C 226.15 103.94 223.18 100.77 220.45 97.27 C 221.17 94.36 221.90 91.45 222.66 88.55 Z" fill="#ebe8c1" />
<path d="M 195.08 89.71 C 198.20 93.11 200.90 96.85 204.16 100.13 C 206.97 104.41 209.87 108.58 212.40 113.04 C 212.81 113.78 213.21 114.53 213.60 115.27 C 211.70 118.73 210.07 122.32 208.24 125.81 C 207.28 127.46 206.38 129.14 205.51 130.83 L 204.78 131.14 C 204.23 127.35 202.68 123.73 200.34 120.69 C 199.52 119.34 197.43 119.35 195.99 119.06 C 197.06 117.20 198.21 115.84 197.41 113.58 C 195.60 107.98 193.54 102.18 190.13 97.34 C 191.70 94.75 193.33 92.19 195.08 89.71 Z" fill="#c7d581" />
<path d="M 145.61 92.37 L 147.08 92.34 C 147.35 94.35 147.53 96.37 147.71 98.40 C 146.55 98.54 145.38 98.65 144.22 98.80 C 144.20 99.19 144.19 99.58 144.18 99.97 C 150.59 102.86 157.27 104.86 164.03 106.75 C 163.80 102.68 163.60 98.71 162.41 94.78 C 168.18 100.25 173.70 105.76 180.46 110.03 C 180.02 108.99 179.58 107.95 179.14 106.91 C 181.17 107.85 183.20 108.79 185.18 109.83 C 186.34 111.45 187.33 113.15 188.14 114.98 C 190.19 121.53 194.06 126.66 198.27 131.94 C 198.62 132.60 198.96 133.26 199.31 133.92 C 198.96 137.08 198.14 140.55 198.62 143.71 C 199.68 145.89 201.04 147.89 202.04 150.10 C 201.91 153.84 200.60 157.44 200.50 161.22 C 200.27 166.01 200.60 170.52 199.30 175.22 C 198.95 174.40 198.58 173.59 198.20 172.79 C 197.08 174.95 196.17 177.20 195.14 179.39 C 194.90 179.91 194.65 180.42 194.40 180.93 C 192.86 183.93 191.41 186.91 189.26 189.54 C 189.67 187.69 190.15 185.86 190.65 184.03 C 186.28 190.59 180.90 196.92 175.28 202.45 C 173.21 203.97 171.01 205.10 168.72 206.25 C 169.92 204.86 171.16 203.51 172.41 202.17 C 175.54 199.09 177.64 195.41 179.74 191.60 C 180.92 189.40 182.81 188.04 184.90 186.78 C 185.97 186.14 187.05 185.53 188.06 184.78 C 186.57 179.07 182.08 176.24 176.89 174.25 L 176.92 173.43 C 177.27 170.93 177.79 168.41 178.28 165.93 L 179.17 166.10 C 181.04 165.71 182.87 165.20 184.68 164.65 C 189.20 163.26 193.58 162.62 196.87 158.84 C 198.86 156.27 200.48 152.28 198.89 149.13 C 196.65 144.11 192.87 138.90 188.60 135.43 C 184.25 132.43 179.10 129.52 174.33 127.25 C 173.01 123.88 171.70 120.55 169.00 118.01 C 166.40 115.57 163.36 113.57 160.57 111.34 C 158.75 110.00 156.81 108.26 154.63 107.58 C 149.19 106.41 144.22 107.32 138.84 108.15 L 138.19 107.95 L 137.11 107.59 C 135.27 109.14 133.12 110.75 131.74 112.74 C 128.94 116.96 129.19 122.05 126.21 126.26 C 123.94 122.74 121.60 119.53 117.99 117.28 C 121.00 111.93 125.21 107.76 128.98 103.01 C 129.15 104.38 129.31 105.75 129.48 107.12 C 134.17 104.78 138.28 102.10 142.34 98.79 C 141.20 99.22 140.08 99.66 138.94 100.07 C 138.03 99.56 137.15 98.99 136.32 98.38 L 135.75 97.78 C 133.94 98.74 132.21 99.84 130.58 101.06 C 129.57 100.68 128.55 100.30 127.53 99.96 C 130.12 97.83 132.48 95.82 135.77 94.83 C 139.01 93.87 142.34 93.22 145.61 92.37 Z" fill="#c7d484" />
<path d="M 160.66 93.00 C 161.25 93.59 161.83 94.19 162.41 94.78 C 163.60 98.71 163.80 102.68 164.03 106.75 C 157.27 104.86 150.59 102.86 144.18 99.97 C 144.19 99.58 144.20 99.19 144.22 98.80 C 145.38 98.65 146.55 98.54 147.71 98.40 C 147.53 96.37 147.35 94.35 147.08 92.34 C 151.63 92.35 156.15 92.34 160.66 93.00 Z" fill="#ddec7d" />
<path d="M 32.24 93.03 C 34.09 91.79 35.10 94.56 33.01 95.02 C 31.89 94.73 31.63 94.07 32.24 93.03 Z" fill="#999ab0" />
<path d="M 214.51 93.79 C 215.03 94.23 215.56 94.67 216.08 95.12 C 214.60 97.38 213.17 99.66 211.80 101.99 C 211.04 100.42 210.38 98.82 209.70 97.22 C 211.29 96.06 212.88 94.90 214.51 93.79 Z" fill="#8e9358" />
<path d="M 135.75 97.78 L 136.32 98.38 C 137.15 98.99 138.03 99.56 138.94 100.07 C 140.08 99.66 141.20 99.22 142.34 98.79 C 138.28 102.10 134.17 104.78 129.48 107.12 C 129.31 105.75 129.15 104.38 128.98 103.01 C 129.51 102.35 130.04 101.70 130.58 101.06 C 132.21 99.84 133.94 98.74 135.75 97.78 Z" fill="#f2fd7b" />
<path d="M 203.96 97.96 C 207.16 102.13 210.35 106.32 213.74 110.34 C 213.82 108.75 213.90 107.16 213.96 105.56 C 214.86 105.02 215.76 104.48 216.65 103.94 C 217.11 106.57 217.76 109.13 218.02 111.79 C 218.10 113.25 218.15 114.70 218.19 116.16 C 217.03 114.72 215.88 113.25 214.63 111.87 C 213.88 112.25 213.14 112.65 212.40 113.04 C 209.87 108.58 206.97 104.41 204.16 100.13 L 203.96 97.96 Z" fill="#787e45" />
<path d="M 228.61 108.43 C 228.11 114.78 227.97 121.03 229.70 127.23 C 231.23 132.77 231.78 138.32 232.07 144.04 C 229.30 139.67 227.38 134.97 225.25 130.28 C 223.24 126.85 220.16 123.56 218.85 119.80 C 218.30 117.18 218.36 114.44 218.02 111.79 C 217.76 109.13 217.11 106.57 216.65 103.94 C 217.01 102.13 217.50 100.34 217.82 98.52 C 221.75 101.49 225.06 105.05 228.61 108.43 Z" fill="#eae7c1" />
<path d="M 127.53 99.96 C 128.55 100.30 129.57 100.68 130.58 101.06 C 130.04 101.70 129.51 102.35 128.98 103.01 C 125.21 107.76 121.00 111.93 117.99 117.28 C 117.06 118.59 116.10 119.88 115.18 121.20 C 115.46 119.01 115.62 116.82 115.90 114.63 C 118.12 108.32 122.34 103.96 127.53 99.96 Z" fill="#9aa169" />
<path d="M 96.81 100.49 C 96.79 101.96 96.70 103.44 96.57 104.90 C 96.61 107.08 94.52 108.86 93.25 110.46 C 93.08 105.83 93.96 103.95 96.81 100.49 Z" fill="#c5c9a4" />
<path d="M 55.71 102.36 L 55.04 103.69 C 52.05 107.00 48.27 108.22 44.42 110.18 C 45.53 108.49 46.49 106.52 47.92 105.08 C 50.53 104.20 53.03 103.10 55.71 102.36 Z" fill="#919884" />
<path d="M 85.91 103.98 C 83.03 107.58 81.02 111.13 79.87 115.61 C 78.91 118.12 77.86 120.59 76.54 122.94 C 74.96 125.39 72.67 128.74 69.75 129.59 C 65.92 130.16 61.80 129.43 57.95 129.15 C 56.26 128.99 54.57 128.85 52.88 128.71 C 53.66 127.84 54.44 126.99 55.23 126.13 C 58.88 122.29 62.76 118.76 67.33 116.03 C 73.89 112.46 79.92 108.42 85.91 103.98 Z" fill="#20223e" />
<path d="M 137.11 107.59 L 138.19 107.95 C 134.91 111.14 131.93 114.21 130.65 118.74 C 128.88 123.65 129.02 129.16 126.93 133.89 C 123.75 139.56 118.30 141.17 112.31 142.32 C 112.24 141.36 112.17 140.40 112.11 139.44 C 115.21 136.99 118.45 135.91 121.06 133.10 C 122.99 131.01 124.63 128.62 126.21 126.26 C 129.19 122.05 128.94 116.96 131.74 112.74 C 133.12 110.75 135.27 109.14 137.11 107.59 Z" fill="#1d1e36" />
<path d="M 52.31 109.03 C 52.83 110.30 53.31 111.58 53.80 112.86 C 55.34 112.23 56.88 111.60 58.42 110.97 C 57.42 113.29 56.64 115.73 55.84 118.13 C 55.59 116.86 55.35 115.59 55.11 114.32 C 53.78 116.56 52.51 118.83 51.25 121.11 C 50.25 119.05 49.17 117.05 48.02 115.07 C 49.49 113.08 50.93 111.08 52.31 109.03 Z" fill="#a9b07a" />
<path d="M 138.19 107.95 L 138.84 108.15 C 137.00 112.19 136.41 115.86 136.30 120.28 C 136.28 124.55 133.19 127.57 131.16 131.11 C 128.44 135.26 126.53 140.44 122.00 142.98 C 116.80 145.94 109.96 146.20 104.16 145.41 C 101.00 145.04 97.57 144.03 94.39 144.37 C 92.20 145.15 90.26 146.98 88.52 148.49 C 87.66 148.80 86.80 149.11 85.94 149.40 C 85.86 150.39 85.79 151.39 85.72 152.39 C 83.98 154.70 82.09 156.89 80.41 159.24 C 80.39 157.60 80.34 155.97 80.25 154.34 C 82.84 152.21 84.60 148.88 86.77 146.27 C 90.02 142.81 93.89 140.37 97.66 137.56 C 96.87 138.94 96.14 140.37 95.41 141.79 C 99.70 142.84 103.43 144.10 107.68 142.11 C 106.68 143.25 106.72 144.86 108.63 144.22 C 109.99 143.47 110.28 142.23 110.81 140.90 C 111.24 140.41 111.67 139.92 112.11 139.44 C 112.17 140.40 112.24 141.36 112.31 142.32 C 118.30 141.17 123.75 139.56 126.93 133.89 C 129.02 129.16 128.88 123.65 130.65 118.74 C 131.93 114.21 134.91 111.14 138.19 107.95 Z" fill="#d3df97" />
<path d="M 59.31 110.61 C 60.33 111.79 61.29 113.03 62.24 114.27 C 63.34 114.13 64.44 113.99 65.54 113.85 C 66.14 114.58 66.73 115.30 67.33 116.03 C 62.76 118.76 58.88 122.29 55.23 126.13 C 52.66 126.62 50.12 127.25 47.67 128.16 L 48.18 126.73 C 49.20 124.85 50.22 122.98 51.25 121.11 C 52.51 118.83 53.78 116.56 55.11 114.32 C 55.35 115.59 55.59 116.86 55.84 118.13 C 56.64 115.73 57.42 113.29 58.42 110.97 L 59.31 110.61 Z" fill="#68654f" />
<path d="M 214.63 111.87 C 215.88 113.25 217.03 114.72 218.19 116.16 C 218.15 114.70 218.10 113.25 218.02 111.79 C 218.36 114.44 218.30 117.18 218.85 119.80 C 220.16 123.56 223.24 126.85 225.25 130.28 C 224.10 131.69 222.98 133.11 221.84 134.52 C 220.63 131.23 219.26 128.01 217.87 124.79 C 216.54 121.57 215.26 118.35 213.60 115.27 C 213.21 114.53 212.81 113.78 212.40 113.04 C 213.14 112.65 213.88 112.25 214.63 111.87 Z" fill="#4f4b31" />
<path d="M 25.89 114.08 L 27.76 113.92 C 28.23 119.85 29.43 125.52 30.85 131.28 C 27.04 126.30 25.27 120.34 25.89 114.08 Z" fill="#dadbdc" />
<path d="M 90.27 115.12 C 90.55 116.18 90.84 117.24 91.13 118.29 C 93.21 118.61 95.58 119.21 97.66 118.79 C 99.78 118.21 101.79 117.04 103.76 116.09 C 103.86 119.04 104.09 121.98 104.28 124.92 C 108.20 121.32 111.46 117.57 115.90 114.63 C 115.62 116.82 115.46 119.01 115.18 121.20 C 114.85 121.81 114.51 122.42 114.17 123.03 C 112.31 124.49 110.42 125.92 108.51 127.33 C 104.99 127.00 100.71 127.08 97.53 125.41 C 95.39 124.41 93.40 122.87 91.16 122.12 C 87.69 122.56 84.52 125.01 81.06 125.66 C 79.46 124.99 77.99 123.89 76.54 122.94 C 77.86 120.59 78.91 118.12 79.87 115.61 C 83.34 115.45 86.81 115.28 90.27 115.12 Z" fill="#5b5a48" />
<path d="M 213.60 115.27 C 215.26 118.35 216.54 121.57 217.87 124.79 C 217.32 126.77 216.85 128.78 216.39 130.79 C 214.30 134.42 211.88 137.83 209.65 141.37 C 207.08 138.15 204.60 135.55 204.78 131.14 L 205.51 130.83 C 208.30 129.93 209.86 128.81 208.24 125.81 C 210.07 122.32 211.70 118.73 213.60 115.27 Z" fill="#7d804f" />
<path d="M 117.99 117.28 C 121.60 119.53 123.94 122.74 126.21 126.26 C 124.63 128.62 122.99 131.01 121.06 133.10 C 118.45 135.91 115.21 136.99 112.11 139.44 C 111.67 139.92 111.24 140.41 110.81 140.90 C 109.77 141.29 108.72 141.69 107.68 142.11 C 103.43 144.10 99.70 142.84 95.41 141.79 C 96.14 140.37 96.87 138.94 97.66 137.56 C 98.60 136.70 99.55 135.85 100.52 135.03 C 103.77 134.61 107.38 134.24 109.80 131.77 C 111.96 129.50 113.00 125.89 114.17 123.03 C 114.51 122.42 114.85 121.81 115.18 121.20 C 116.10 119.88 117.06 118.59 117.99 117.28 Z" fill="#e8f579" />
<path d="M 192.92 117.81 C 199.57 126.37 203.57 137.36 208.86 146.85 L 209.69 148.35 C 210.59 150.02 211.66 151.35 211.66 153.34 C 211.81 159.93 215.75 165.87 217.82 172.09 C 220.55 179.96 223.74 187.98 225.02 196.23 C 224.35 202.62 223.64 208.53 220.06 214.06 C 218.26 216.84 215.71 218.55 214.62 221.50 C 212.72 226.08 212.45 230.76 211.81 235.60 C 210.19 232.49 209.20 229.18 208.00 225.91 C 206.78 222.58 204.37 219.97 202.98 216.80 C 202.42 213.60 202.37 210.10 204.33 207.34 C 207.76 202.03 209.92 196.20 211.04 189.99 C 213.28 184.99 212.96 180.41 212.01 175.11 C 211.60 169.03 210.56 164.42 208.12 158.82 C 207.12 155.69 206.17 152.54 205.11 149.43 C 203.55 144.07 201.96 138.85 199.31 133.92 C 198.96 133.26 198.62 132.60 198.27 131.94 C 196.53 127.21 194.75 122.51 192.92 117.81 Z" fill="#20233f" />
<path d="M 65.47 120.39 C 66.81 120.18 68.18 120.12 69.53 120.07 C 70.20 121.76 70.77 123.48 71.35 125.20 C 69.13 125.73 66.28 127.73 64.39 125.46 C 62.61 123.79 64.44 121.95 65.47 120.39 Z" fill="#cc403e" />
<path d="M 91.16 122.12 C 93.40 122.87 95.39 124.41 97.53 125.41 C 100.71 127.08 104.99 127.00 108.51 127.33 C 105.97 129.18 103.22 130.68 100.39 132.05 C 98.66 130.35 96.90 128.34 94.77 127.15 C 93.36 126.95 91.83 127.30 90.42 127.47 C 91.59 128.93 92.75 130.37 94.04 131.73 C 93.30 132.78 92.61 133.86 91.95 134.96 C 92.23 134.32 92.49 133.67 92.75 133.02 C 90.31 133.56 87.89 134.12 85.49 134.80 C 87.03 132.45 88.50 130.06 89.86 127.60 C 86.38 129.73 84.33 131.81 82.17 135.31 C 84.47 136.00 86.80 136.63 89.11 137.31 C 87.91 138.22 86.75 139.18 85.58 140.11 C 85.86 141.55 86.15 142.99 86.43 144.44 C 86.54 145.05 86.66 145.66 86.77 146.27 C 84.60 148.88 82.84 152.21 80.25 154.34 L 79.30 155.39 C 76.01 159.26 73.11 162.99 68.97 166.06 C 66.69 164.60 64.43 163.12 62.10 161.74 C 65.77 160.80 69.18 160.47 71.20 156.82 C 71.44 155.11 70.39 153.21 69.90 151.57 C 71.80 150.56 73.53 149.59 74.70 147.71 C 76.99 144.33 79.42 141.94 82.73 139.57 C 82.63 138.89 82.53 138.20 82.42 137.51 C 79.43 137.67 76.05 137.28 73.26 138.40 C 71.65 138.99 70.21 140.06 68.68 140.90 L 67.55 141.57 C 66.54 140.31 65.60 138.98 64.64 137.67 C 63.60 138.34 62.55 139.00 61.50 139.66 L 59.88 139.61 C 60.57 138.75 61.25 137.89 61.94 137.04 C 59.44 137.22 56.93 137.35 54.42 137.33 L 53.57 136.61 L 52.81 135.81 L 51.75 134.75 C 53.73 132.76 55.82 130.96 57.95 129.15 C 61.80 129.43 65.92 130.16 69.75 129.59 C 72.67 128.74 74.96 125.39 76.54 122.94 C 77.99 123.89 79.46 124.99 81.06 125.66 C 84.52 125.01 87.69 122.56 91.16 122.12 Z" fill="#747058" />
<path d="M 114.17 123.03 C 113.00 125.89 111.96 129.50 109.80 131.77 C 107.38 134.24 103.77 134.61 100.52 135.03 C 100.48 134.03 100.44 133.04 100.39 132.05 C 103.22 130.68 105.97 129.18 108.51 127.33 C 110.42 125.92 112.31 124.49 114.17 123.03 Z" fill="#c2ca7f" />
<path d="M 174.33 127.25 C 179.10 129.52 184.25 132.43 188.60 135.43 C 192.87 138.90 196.65 144.11 198.89 149.13 C 200.48 152.28 198.86 156.27 196.87 158.84 C 193.58 162.62 189.20 163.26 184.68 164.65 C 182.75 163.75 180.79 162.87 178.90 161.89 C 176.28 160.19 174.00 158.11 171.85 155.86 C 171.02 154.97 170.20 154.08 169.38 153.18 C 169.91 152.12 170.41 151.03 170.89 149.94 C 172.38 146.19 174.83 143.70 178.06 141.37 C 183.05 143.84 185.07 148.18 187.67 152.78 C 186.47 153.67 185.26 154.57 184.05 155.46 C 182.54 153.90 181.03 152.34 179.51 150.79 C 177.77 152.61 176.02 154.41 174.29 156.24 C 180.75 161.83 192.10 157.43 195.97 150.68 C 197.47 146.62 193.64 143.09 190.83 140.76 C 186.70 138.06 182.39 135.35 177.75 133.63 C 171.07 130.47 164.13 130.87 157.08 132.31 C 154.30 130.54 151.54 130.44 148.39 129.71 C 148.47 131.56 148.56 133.42 148.66 135.28 C 146.53 136.86 144.35 138.49 142.42 140.31 C 141.30 141.35 140.43 142.53 139.56 143.78 C 136.30 148.68 137.24 154.06 140.11 158.87 C 143.59 165.23 149.19 168.38 155.24 171.89 L 153.55 171.76 C 144.00 168.17 137.06 160.10 131.72 151.70 C 131.59 147.05 130.35 143.09 132.69 138.70 C 135.10 134.58 138.48 129.92 142.97 127.95 C 152.39 123.26 164.53 124.24 174.33 127.25 Z" fill="#22233f" />
<path d="M 217.87 124.79 C 219.26 128.01 220.63 131.23 221.84 134.52 C 223.83 139.78 224.86 144.94 229.98 148.15 C 231.50 149.28 232.82 148.60 234.59 148.67 C 237.09 153.34 236.36 157.98 235.29 162.93 C 232.82 174.31 229.19 185.36 225.02 196.23 C 223.74 187.98 220.55 179.96 217.82 172.09 C 215.75 165.87 211.81 159.93 211.66 153.34 C 211.66 151.35 210.59 150.02 209.69 148.35 C 213.10 142.82 215.87 137.38 216.39 130.79 C 216.85 128.78 217.32 126.77 217.87 124.79 Z" fill="#eae8c1" />
<path d="M 55.23 126.13 C 54.44 126.99 53.66 127.84 52.88 128.71 C 54.57 128.85 56.26 128.99 57.95 129.15 C 55.82 130.96 53.73 132.76 51.75 134.75 C 50.30 136.17 49.21 137.81 48.06 139.48 C 45.56 141.64 43.22 143.94 40.92 146.31 C 40.26 144.87 39.61 143.43 39.02 141.97 L 39.76 142.21 C 40.29 142.37 40.82 142.54 41.35 142.70 C 41.90 140.14 42.11 137.77 43.63 135.55 C 45.24 133.18 46.89 130.98 47.67 128.16 C 50.12 127.25 52.66 126.62 55.23 126.13 Z" fill="#94937e" />
<path d="M 208.24 125.81 C 209.86 128.81 208.30 129.93 205.51 130.83 C 206.38 129.14 207.28 127.46 208.24 125.81 Z" fill="#4e521e" />
<path d="M 48.18 126.73 L 47.67 128.16 C 46.89 130.98 45.24 133.18 43.63 135.55 C 42.11 137.77 41.90 140.14 41.35 142.70 C 40.82 142.54 40.29 142.37 39.76 142.21 C 40.08 139.53 39.98 136.47 41.01 133.95 C 42.58 130.97 45.60 128.79 48.18 126.73 Z" fill="#dfdedc" />
<path d="M 94.77 127.15 C 96.90 128.34 98.66 130.35 100.39 132.05 C 100.44 133.04 100.48 134.03 100.52 135.03 C 99.55 135.85 98.60 136.70 97.66 137.56 C 93.89 140.37 90.02 142.81 86.77 146.27 C 86.66 145.66 86.54 145.05 86.43 144.44 C 88.82 142.30 91.01 140.00 93.28 137.73 C 94.56 136.44 95.78 135.09 96.99 133.72 C 96.00 133.06 95.01 132.40 94.04 131.73 C 92.75 130.37 91.59 128.93 90.42 127.47 C 91.83 127.30 93.36 126.95 94.77 127.15 Z" fill="#22223c" />
<path d="M 89.86 127.60 C 88.50 130.06 87.03 132.45 85.49 134.80 C 87.89 134.12 90.31 133.56 92.75 133.02 C 92.49 133.67 92.23 134.32 91.95 134.96 C 91.57 135.80 91.18 136.63 90.80 137.47 L 89.11 137.31 C 86.80 136.63 84.47 136.00 82.17 135.31 C 84.33 131.81 86.38 129.73 89.86 127.60 Z" fill="#26262d" />
<path d="M 157.08 132.31 C 154.14 133.07 151.29 133.66 148.66 135.28 C 148.56 133.42 148.47 131.56 148.39 129.71 C 151.54 130.44 154.30 130.54 157.08 132.31 Z" fill="#58596b" />
<path d="M 225.25 130.28 C 227.38 134.97 229.30 139.67 232.07 144.04 C 232.90 145.59 233.78 147.11 234.59 148.67 C 232.82 148.60 231.50 149.28 229.98 148.15 C 224.86 144.94 223.83 139.78 221.84 134.52 C 222.98 133.11 224.10 131.69 225.25 130.28 Z" fill="#9d9979" />
<path d="M 177.75 133.63 C 175.90 134.16 174.06 134.63 172.25 135.29 C 171.33 135.09 170.41 134.90 169.48 134.72 C 164.78 133.91 160.13 134.64 155.67 136.19 C 154.04 136.75 152.44 137.37 150.84 138.00 C 148.51 138.90 146.29 139.95 143.89 140.68 L 142.42 140.31 C 144.35 138.49 146.53 136.86 148.66 135.28 C 151.29 133.66 154.14 133.07 157.08 132.31 C 164.13 130.87 171.07 130.47 177.75 133.63 Z" fill="#fefefc" />
<path d="M 216.39 130.79 C 215.87 137.38 213.10 142.82 209.69 148.35 L 208.86 146.85 C 209.05 145.01 209.31 143.18 209.65 141.37 C 211.88 137.83 214.30 134.42 216.39 130.79 Z" fill="#d3dc97" />
<path d="M 94.04 131.73 C 95.01 132.40 96.00 133.06 96.99 133.72 C 95.78 135.09 94.56 136.44 93.28 137.73 C 92.45 137.64 91.62 137.56 90.80 137.47 C 91.18 136.63 91.57 135.80 91.95 134.96 C 92.61 133.86 93.30 132.78 94.04 131.73 Z" fill="#abb289" />
<path d="M 177.75 133.63 C 182.39 135.35 186.70 138.06 190.83 140.76 C 190.87 142.86 190.92 144.95 190.97 147.05 C 188.48 145.18 186.03 143.24 183.45 141.48 C 182.59 139.71 181.75 136.92 179.58 136.45 C 177.96 136.30 176.34 136.30 174.72 136.36 C 173.91 135.97 173.09 135.61 172.25 135.29 C 174.06 134.63 175.90 134.16 177.75 133.63 Z" fill="#9da159" />
<path d="M 169.48 134.72 C 172.16 137.16 175.00 139.42 178.06 141.37 C 174.83 143.70 172.38 146.19 170.89 149.94 C 171.41 148.37 171.86 146.77 172.30 145.19 C 171.31 144.58 170.31 143.98 169.32 143.39 C 168.33 142.79 167.34 142.22 166.32 141.68 C 162.81 139.76 159.23 137.99 155.67 136.19 C 160.13 134.64 164.78 133.91 169.48 134.72 Z" fill="#5f604b" />
<path d="M 172.25 135.29 C 173.09 135.61 173.91 135.97 174.72 136.36 C 177.66 138.01 180.58 139.70 183.45 141.48 C 186.03 143.24 188.48 145.18 190.97 147.05 C 190.92 144.95 190.87 142.86 190.83 140.76 C 193.64 143.09 197.47 146.62 195.97 150.68 C 192.10 157.43 180.75 161.83 174.29 156.24 C 176.02 154.41 177.77 152.61 179.51 150.79 C 181.03 152.34 182.54 153.90 184.05 155.46 C 185.26 154.57 186.47 153.67 187.67 152.78 C 185.07 148.18 183.05 143.84 178.06 141.37 C 175.00 139.42 172.16 137.16 169.48 134.72 C 170.41 134.90 171.33 135.09 172.25 135.29 Z" fill="#ccd885" />
<path d="M 199.31 133.92 C 201.96 138.85 203.55 144.07 205.11 149.43 C 204.31 154.51 204.10 159.27 205.44 164.31 C 206.31 162.46 207.20 160.63 208.12 158.82 C 210.56 164.42 211.60 169.03 212.01 175.11 C 212.96 180.41 213.28 184.99 211.04 189.99 C 210.48 190.61 209.93 191.23 209.38 191.85 C 207.46 187.56 206.82 184.44 207.10 179.79 C 205.32 179.53 202.68 179.92 201.39 178.54 C 200.01 174.21 203.26 172.61 204.71 168.99 C 205.11 165.22 202.95 163.61 200.50 161.22 C 200.60 157.44 201.91 153.84 202.04 150.10 C 201.04 147.89 199.68 145.89 198.62 143.71 C 198.14 140.55 198.96 137.08 199.31 133.92 Z" fill="#75745f" />
<path d="M 51.75 134.75 L 52.81 135.81 C 51.25 137.06 49.65 138.27 48.06 139.48 C 49.21 137.81 50.30 136.17 51.75 134.75 Z" fill="#342f3a" />
<path d="M 54.42 137.33 L 54.86 137.71 C 55.57 138.31 56.25 138.95 56.96 139.55 C 57.93 139.57 58.91 139.59 59.88 139.61 L 61.50 139.66 C 59.75 140.84 57.99 141.96 56.18 143.03 C 55.27 140.91 54.44 138.75 53.57 136.61 L 54.42 137.33 Z" fill="#282533" />
<path d="M 54.42 137.33 C 56.93 137.35 59.44 137.22 61.94 137.04 C 61.25 137.89 60.57 138.75 59.88 139.61 C 58.91 139.59 57.93 139.57 56.96 139.55 C 56.25 138.95 55.57 138.31 54.86 137.71 L 54.42 137.33 Z" fill="#a4a3a0" />
<path d="M 179.58 136.45 C 181.75 136.92 182.59 139.71 183.45 141.48 C 180.58 139.70 177.66 138.01 174.72 136.36 C 176.34 136.30 177.96 136.30 179.58 136.45 Z" fill="#626536" />
<path d="M 89.11 137.31 L 90.80 137.47 C 91.62 137.56 92.45 137.64 93.28 137.73 C 91.01 140.00 88.82 142.30 86.43 144.44 C 86.15 142.99 85.86 141.55 85.58 140.11 C 86.75 139.18 87.91 138.22 89.11 137.31 Z" fill="#fdffe8" />
<path d="M 155.67 136.19 C 159.23 137.99 162.81 139.76 166.32 141.68 C 164.81 142.10 163.34 142.62 161.86 143.13 C 158.22 141.34 154.49 139.77 150.84 138.00 C 152.44 137.37 154.04 136.75 155.67 136.19 Z" fill="#ceda90" />
<path d="M 150.84 138.00 C 154.49 139.77 158.22 141.34 161.86 143.13 C 163.21 144.18 164.50 145.29 165.79 146.41 C 164.47 148.52 163.17 150.64 161.91 152.78 C 163.85 152.98 165.75 153.20 167.70 153.23 L 169.38 153.18 C 170.20 154.08 171.02 154.97 171.85 155.86 C 167.47 156.12 163.16 156.55 158.91 157.72 C 157.16 158.26 155.44 158.88 153.72 159.51 C 153.50 158.61 153.31 157.71 153.12 156.81 C 152.36 156.56 151.60 156.31 150.84 156.06 C 151.57 155.09 152.30 154.12 153.07 153.19 C 154.81 151.73 156.58 150.31 158.34 148.88 C 153.90 145.41 149.10 142.80 143.89 140.68 C 146.29 139.95 148.51 138.90 150.84 138.00 Z" fill="#605f49" />
<path d="M 77.63 139.78 C 74.90 141.25 72.02 142.43 69.02 143.25 L 67.55 141.57 L 68.68 140.90 C 71.64 140.29 74.61 139.83 77.63 139.78 Z" fill="#494851" />
<path d="M 142.42 140.31 L 143.89 140.68 C 149.10 142.80 153.90 145.41 158.34 148.88 C 156.58 150.31 154.81 151.73 153.07 153.19 C 149.89 155.76 146.41 157.39 142.52 158.61 C 144.12 154.05 146.77 150.40 150.00 146.87 C 146.50 145.91 143.06 144.75 139.56 143.78 C 140.43 142.53 141.30 141.35 142.42 140.31 Z" fill="#c3d084" />
<path d="M 110.81 140.90 C 110.28 142.23 109.99 143.47 108.63 144.22 C 106.72 144.86 106.68 143.25 107.68 142.11 C 108.72 141.69 109.77 141.29 110.81 140.90 Z" fill="#42491d" />
<path d="M 166.32 141.68 C 167.34 142.22 168.33 142.79 169.32 143.39 C 167.66 146.70 167.44 149.58 167.70 153.23 C 165.75 153.20 163.85 152.98 161.91 152.78 C 163.17 150.64 164.47 148.52 165.79 146.41 C 164.50 145.29 163.21 144.18 161.86 143.13 C 163.34 142.62 164.81 142.10 166.32 141.68 Z" fill="#858a5b" />
<path d="M 139.56 143.78 C 143.06 144.75 146.50 145.91 150.00 146.87 C 146.77 150.40 144.12 154.05 142.52 158.61 C 146.41 157.39 149.89 155.76 153.07 153.19 C 152.30 154.12 151.57 155.09 150.84 156.06 C 151.60 156.31 152.36 156.56 153.12 156.81 C 153.31 157.71 153.50 158.61 153.72 159.51 C 154.71 160.68 155.78 161.82 156.98 162.78 C 154.90 163.44 155.90 165.23 156.95 166.33 C 159.22 168.40 161.38 170.51 163.87 172.31 C 160.99 172.12 158.12 171.93 155.24 171.89 C 149.19 168.38 143.59 165.23 140.11 158.87 C 137.24 154.06 136.30 148.68 139.56 143.78 Z" fill="#6f705e" />
<path d="M 169.32 143.39 C 170.31 143.98 171.31 144.58 172.30 145.19 C 171.86 146.77 171.41 148.37 170.89 149.94 C 170.41 151.03 169.91 152.12 169.38 153.18 L 167.70 153.23 C 167.44 149.58 167.66 146.70 169.32 143.39 Z" fill="#c8d48a" />
<path d="M 88.52 148.49 C 87.59 149.80 86.68 151.11 85.72 152.39 C 85.79 151.39 85.86 150.39 85.94 149.40 C 86.80 149.11 87.66 148.80 88.52 148.49 Z" fill="#8c9066" />
<path d="M 205.11 149.43 C 206.17 152.54 207.12 155.69 208.12 158.82 C 207.20 160.63 206.31 162.46 205.44 164.31 C 204.10 159.27 204.31 154.51 205.11 149.43 Z" fill="#b3b7a5" />
<path d="M 119.18 150.86 C 120.12 153.81 121.03 156.76 121.76 159.76 C 122.77 163.79 125.91 167.27 126.87 171.26 C 127.38 174.05 126.61 177.20 126.22 179.99 C 134.34 180.32 142.43 180.20 150.49 179.09 C 154.56 178.42 158.31 177.14 162.27 176.14 C 163.80 176.64 165.21 177.66 166.64 178.39 C 160.14 179.77 153.55 180.54 147.09 182.13 C 141.49 183.49 135.86 183.97 130.19 182.70 C 127.11 181.95 124.49 180.33 121.76 178.77 C 121.85 177.60 121.88 176.44 121.83 175.28 C 120.80 173.45 118.49 172.27 116.70 171.30 C 116.55 170.07 116.41 168.84 116.26 167.61 C 117.00 168.20 117.73 168.79 118.45 169.40 C 118.21 165.45 118.76 161.16 117.85 157.33 C 117.70 156.13 116.15 155.35 115.23 154.72 C 111.81 152.75 107.89 152.28 104.03 152.89 C 109.03 151.75 114.07 151.21 119.18 150.86 Z" fill="#b7b197" />
<path d="M 131.72 151.70 C 137.06 160.10 144.00 168.17 153.55 171.76 C 154.73 172.36 155.89 172.99 157.06 173.62 C 155.99 174.14 154.92 174.65 153.85 175.17 C 149.89 174.57 146.10 173.48 142.74 171.25 C 138.92 168.57 135.99 164.46 133.37 160.65 C 131.38 157.85 131.67 154.95 131.72 151.70 Z" fill="#707262" />
<path d="M 104.03 152.89 C 107.89 152.28 111.81 152.75 115.23 154.72 C 116.15 155.35 117.70 156.13 117.85 157.33 C 118.76 161.16 118.21 165.45 118.45 169.40 C 117.73 168.79 117.00 168.20 116.26 167.61 C 113.81 165.81 110.87 163.54 107.78 163.19 C 103.52 162.58 99.09 162.77 94.86 163.56 C 91.63 165.65 91.01 168.19 90.27 171.75 C 87.88 167.85 86.92 164.41 89.09 160.14 C 91.97 157.47 95.57 157.82 97.45 153.76 C 99.65 153.56 101.85 153.31 104.03 152.89 Z" fill="#21243f" />
<path d="M 79.30 155.39 L 80.25 154.34 C 80.34 155.97 80.39 157.60 80.41 159.24 C 79.26 161.05 78.23 163.16 76.69 164.67 C 74.64 166.13 71.39 166.02 68.97 166.06 C 73.11 162.99 76.01 159.26 79.30 155.39 Z" fill="#363941" />
<path d="M 212.22 154.28 L 212.80 154.24 L 212.84 154.82 L 212.26 154.86 L 212.22 154.28 Z" fill="#080b00" />
<path d="M 171.85 155.86 C 174.00 158.11 176.28 160.19 178.90 161.89 C 178.99 163.29 179.08 164.69 179.17 166.10 L 178.28 165.93 C 175.47 165.30 172.62 164.33 169.78 163.94 C 169.03 164.29 168.30 164.67 167.58 165.07 C 166.30 165.86 165.07 166.72 163.80 167.52 C 161.80 166.08 159.80 164.62 157.73 163.27 C 158.16 161.43 158.54 159.58 158.91 157.72 C 163.16 156.55 167.47 156.12 171.85 155.86 Z" fill="#b8b197" />
<path d="M 158.91 157.72 C 158.54 159.58 158.16 161.43 157.73 163.27 L 156.98 162.78 C 155.78 161.82 154.71 160.68 153.72 159.51 C 155.44 158.88 157.16 158.26 158.91 157.72 Z" fill="#d3d0bd" />
<path d="M 107.78 163.19 C 110.87 163.54 113.81 165.81 116.26 167.61 C 116.41 168.84 116.55 170.07 116.70 171.30 C 114.60 170.63 112.45 170.09 110.30 169.62 C 110.39 169.11 110.49 168.59 110.58 168.07 C 109.33 170.02 108.06 171.43 106.26 172.90 C 102.34 170.43 99.52 168.14 97.58 163.79 C 96.67 163.71 95.77 163.64 94.86 163.56 C 99.09 162.77 103.52 162.58 107.78 163.19 Z" fill="#605d47" />
<path d="M 178.90 161.89 C 180.79 162.87 182.75 163.75 184.68 164.65 C 182.87 165.20 181.04 165.71 179.17 166.10 C 179.08 164.69 178.99 163.29 178.90 161.89 Z" fill="#7f7e52" />
<path d="M 200.50 161.22 C 202.95 163.61 205.11 165.22 204.71 168.99 C 203.26 172.61 200.01 174.21 201.39 178.54 C 202.68 179.92 205.32 179.53 207.10 179.79 C 206.82 184.44 207.46 187.56 209.38 191.85 C 208.15 193.28 206.97 194.76 205.71 196.16 C 205.80 191.86 205.72 188.01 204.11 183.97 C 202.35 187.57 200.66 191.18 198.45 194.53 C 195.01 199.57 195.42 205.77 191.74 210.81 L 191.52 210.01 C 192.43 206.04 192.08 202.14 192.11 198.12 C 192.83 194.64 195.65 191.45 196.21 187.87 C 196.44 185.37 195.36 183.15 194.40 180.93 C 194.65 180.42 194.90 179.91 195.14 179.39 C 195.79 178.85 196.60 178.71 197.57 178.98 C 198.38 177.83 198.97 176.59 199.30 175.22 C 200.60 170.52 200.27 166.01 200.50 161.22 Z" fill="#535345" />
<path d="M 156.98 162.78 L 157.73 163.27 C 159.80 164.62 161.80 166.08 163.80 167.52 C 167.86 170.26 172.37 172.40 176.89 174.25 C 182.08 176.24 186.57 179.07 188.06 184.78 C 187.05 185.53 185.97 186.14 184.90 186.78 C 182.80 187.22 180.59 187.56 178.53 188.13 C 177.84 185.15 177.27 181.12 175.04 178.86 C 171.73 175.64 166.41 174.83 162.08 173.82 C 165.46 175.75 168.50 178.07 171.51 180.54 C 169.98 181.00 168.45 181.47 166.91 181.86 C 158.12 183.43 149.61 185.94 140.70 186.85 C 144.73 188.35 148.78 189.48 153.13 189.37 C 147.32 190.80 142.98 193.98 137.71 196.57 C 132.63 195.71 128.18 193.77 123.67 191.37 C 123.30 190.71 122.93 190.05 122.56 189.40 C 121.56 185.85 121.38 182.42 121.76 178.77 C 124.49 180.33 127.11 181.95 130.19 182.70 C 135.86 183.97 141.49 183.49 147.09 182.13 C 153.55 180.54 160.14 179.77 166.64 178.39 C 165.21 177.66 163.80 176.64 162.27 176.14 C 159.45 175.68 156.68 175.52 153.85 175.17 C 154.92 174.65 155.99 174.14 157.06 173.62 C 155.89 172.99 154.73 172.36 153.55 171.76 L 155.24 171.89 C 158.12 171.93 160.99 172.12 163.87 172.31 C 161.38 170.51 159.22 168.40 156.95 166.33 C 155.90 165.23 154.90 163.44 156.98 162.78 Z" fill="#606049" />
<path d="M 169.78 163.94 C 172.62 164.33 175.47 165.30 178.28 165.93 C 177.79 168.41 177.27 170.93 176.92 173.43 C 174.16 170.27 170.99 167.52 167.58 165.07 C 168.30 164.67 169.03 164.29 169.78 163.94 Z" fill="#f3f2ee" />
<path d="M 167.58 165.07 C 170.99 167.52 174.16 170.27 176.92 173.43 L 176.89 174.25 C 172.37 172.40 167.86 170.26 163.80 167.52 C 165.07 166.72 166.30 165.86 167.58 165.07 Z" fill="#dcd9c7" />
<path d="M 110.30 169.62 C 112.45 170.09 114.60 170.63 116.70 171.30 C 118.49 172.27 120.80 173.45 121.83 175.28 C 121.88 176.44 121.85 177.60 121.76 178.77 C 121.38 182.42 121.56 185.85 122.56 189.40 C 121.43 188.29 120.23 187.27 118.94 186.34 C 118.24 183.86 117.86 180.17 115.72 178.49 C 114.32 178.96 112.89 179.18 111.46 179.48 C 110.28 179.06 109.11 178.65 107.93 178.23 C 106.19 179.47 104.51 180.77 102.80 182.04 C 103.65 176.70 107.20 173.71 110.30 169.62 Z" fill="#21213e" />
<path d="M 45.07 172.87 C 48.36 173.15 51.63 173.70 54.83 174.51 C 62.34 176.77 68.64 181.03 74.65 185.93 C 78.24 188.90 80.58 192.96 84.00 196.15 C 87.34 200.00 89.43 205.23 93.41 208.31 C 94.66 209.17 95.95 209.99 97.23 210.81 C 96.95 211.57 96.68 212.33 96.42 213.10 C 97.57 213.49 98.72 213.88 99.87 214.27 C 99.26 214.95 98.65 215.63 98.03 216.30 C 93.41 215.05 89.01 213.30 84.35 212.17 C 85.82 213.78 87.34 215.71 89.47 216.44 C 92.43 217.44 95.62 217.44 98.63 218.41 C 102.08 219.54 105.36 221.27 108.53 223.02 C 105.00 222.98 101.51 222.78 98.09 221.86 C 91.99 220.34 86.77 217.96 80.32 218.91 C 81.03 219.67 81.75 220.41 82.49 221.14 C 84.24 223.08 86.02 223.98 88.50 224.74 C 91.89 225.99 95.21 227.34 98.52 228.78 C 95.59 229.43 94.85 230.11 93.15 232.51 C 86.81 230.44 79.30 231.70 72.92 233.08 C 70.15 233.52 67.27 232.54 64.53 232.80 C 61.01 233.42 57.54 233.97 54.13 235.03 C 49.37 236.53 43.88 236.29 38.97 235.74 C 34.15 234.96 29.37 233.78 24.63 232.61 C 29.56 231.95 34.06 230.98 38.99 231.41 C 46.11 231.07 50.78 227.56 56.44 223.84 C 48.10 222.59 40.25 221.42 32.92 216.96 C 35.59 217.48 38.25 218.78 40.96 218.87 C 43.54 218.61 45.98 217.68 48.60 217.56 C 50.25 217.53 51.97 217.66 53.61 217.43 C 55.64 216.65 57.51 215.49 59.52 214.65 C 63.89 215.79 68.30 215.81 72.78 215.56 C 70.02 214.18 67.18 213.01 64.30 211.91 C 65.18 210.84 66.07 209.77 66.96 208.70 C 66.49 208.01 66.01 207.32 65.54 206.63 C 63.75 203.87 61.80 201.44 59.05 199.58 C 55.97 196.96 52.71 194.98 49.14 193.12 C 53.39 193.88 57.36 195.42 61.49 196.64 C 61.56 195.80 61.64 194.96 61.72 194.11 C 64.93 195.80 68.15 197.41 71.03 199.65 C 68.21 194.85 66.05 190.02 62.39 185.61 C 60.30 183.42 58.10 181.21 55.87 179.16 C 52.59 176.25 48.71 175.14 45.07 172.87 Z" fill="#21233f" />
<path d="M 198.20 172.79 C 198.58 173.59 198.95 174.40 199.30 175.22 C 198.97 176.59 198.38 177.83 197.57 178.98 C 196.60 178.71 195.79 178.85 195.14 179.39 C 196.17 177.20 197.08 174.95 198.20 172.79 Z" fill="#dbdec0" />
<path d="M 162.08 173.82 C 166.41 174.83 171.73 175.64 175.04 178.86 C 177.27 181.12 177.84 185.15 178.53 188.13 C 177.63 188.49 176.74 188.86 175.85 189.23 C 171.63 187.04 168.75 186.01 163.92 187.23 C 163.86 186.60 163.80 185.96 163.75 185.33 C 165.03 185.17 166.31 185.02 167.58 184.87 C 167.36 183.86 167.13 182.86 166.91 181.86 C 168.45 181.47 169.98 181.00 171.51 180.54 C 168.50 178.07 165.46 175.75 162.08 173.82 Z" fill="#21213e" />
<path d="M 115.72 178.49 C 117.86 180.17 118.24 183.86 118.94 186.34 C 115.96 184.44 113.51 182.39 111.46 179.48 C 112.89 179.18 114.32 178.96 115.72 178.49 Z" fill="#767767" />
<path d="M 194.40 180.93 C 195.36 183.15 196.44 185.37 196.21 187.87 C 195.65 191.45 192.83 194.64 192.11 198.12 C 192.08 202.14 192.43 206.04 191.52 210.01 C 188.38 212.68 185.47 215.77 182.04 218.04 C 183.90 213.25 184.75 209.07 184.47 203.93 C 183.73 203.88 183.00 203.82 182.26 203.75 C 179.89 203.48 177.60 202.98 175.28 202.45 C 180.90 196.92 186.28 190.59 190.65 184.03 C 190.15 185.86 189.67 187.69 189.26 189.54 C 191.41 186.91 192.86 183.93 194.40 180.93 Z" fill="#48483a" />
<path d="M 166.91 181.86 C 167.13 182.86 167.36 183.86 167.58 184.87 C 166.31 185.02 165.03 185.17 163.75 185.33 C 163.80 185.96 163.86 186.60 163.92 187.23 C 160.29 187.80 156.71 188.57 153.13 189.37 C 148.78 189.48 144.73 188.35 140.70 186.85 C 149.61 185.94 158.12 183.43 166.91 181.86 Z" fill="#39383f" />
<path d="M 62.27 183.01 L 63.01 182.64 L 63.72 183.09 L 63.72 183.91 L 62.99 184.28 L 62.27 183.84 L 62.27 183.01 Z" fill="#b6b6c6" />
<path d="M 204.11 183.97 C 205.72 188.01 205.80 191.86 205.71 196.16 C 202.72 199.11 200.60 202.69 197.80 205.80 C 195.84 208.02 194.10 210.41 192.39 212.82 C 192.16 212.15 191.95 211.48 191.74 210.81 C 195.42 205.77 195.01 199.57 198.45 194.53 C 200.66 191.18 202.35 187.57 204.11 183.97 Z" fill="#22233b" />
<path d="M 79.87 187.10 C 83.07 189.71 85.71 192.98 88.79 195.74 C 88.10 196.17 87.40 196.59 86.69 197.00 C 85.78 196.75 84.89 196.46 84.00 196.15 C 80.58 192.96 78.24 188.90 74.65 185.93 C 76.41 186.09 78.44 185.86 79.87 187.10 Z" fill="#dcdad5" />
<path d="M 163.92 187.23 C 168.75 186.01 171.63 187.04 175.85 189.23 C 176.64 189.60 177.42 189.96 178.21 190.32 C 175.43 193.54 172.44 196.55 169.77 199.87 C 169.33 200.41 168.91 200.96 168.49 201.51 C 167.42 200.94 166.35 200.37 165.29 199.79 C 166.21 196.88 167.14 193.98 168.09 191.08 C 166.58 191.21 165.06 191.35 163.55 191.48 C 162.03 191.33 160.51 191.12 158.99 190.94 C 157.73 191.90 156.64 192.98 155.52 194.08 C 150.66 195.52 146.06 197.65 141.24 199.18 C 141.29 198.56 141.34 197.95 141.39 197.33 C 140.16 197.08 138.94 196.83 137.71 196.57 C 142.98 193.98 147.32 190.80 153.13 189.37 C 156.71 188.57 160.29 187.80 163.92 187.23 Z" fill="#dddec5" />
<path d="M 184.90 186.78 C 182.81 188.04 180.92 189.40 179.74 191.60 C 177.64 195.41 175.54 199.09 172.41 202.17 C 171.54 201.40 170.66 200.63 169.77 199.87 C 172.44 196.55 175.43 193.54 178.21 190.32 C 177.42 189.96 176.64 189.60 175.85 189.23 C 176.74 188.86 177.63 188.49 178.53 188.13 C 180.59 187.56 182.80 187.22 184.90 186.78 Z" fill="#848b5b" />
<path d="M 163.55 191.48 C 160.86 192.31 158.20 193.23 155.52 194.08 C 156.64 192.98 157.73 191.90 158.99 190.94 C 160.51 191.12 162.03 191.33 163.55 191.48 Z" fill="#bdb8a6" />
<path d="M 123.67 191.37 C 128.18 193.77 132.63 195.71 137.71 196.57 C 138.94 196.83 140.16 197.08 141.39 197.33 C 141.34 197.95 141.29 198.56 141.24 199.18 C 134.81 199.97 126.52 197.80 123.67 191.37 Z" fill="#c2bfa7" />
<path d="M 185.12 195.47 C 186.81 194.50 187.95 196.58 186.68 197.82 C 184.97 198.82 183.80 196.71 185.12 195.47 Z" fill="#aaaa9d" />
<path d="M 84.00 196.15 C 84.89 196.46 85.78 196.75 86.69 197.00 C 87.40 196.59 88.10 196.17 88.79 195.74 C 91.35 198.05 93.82 200.43 96.02 203.08 C 95.23 204.87 94.33 206.58 93.41 208.31 C 89.43 205.23 87.34 200.00 84.00 196.15 Z" fill="#958f7e" />
<path d="M 59.05 199.58 C 61.80 201.44 63.75 203.87 65.54 206.63 C 64.22 207.26 62.91 207.89 61.59 208.51 C 61.58 210.25 61.57 211.99 61.57 213.72 C 60.88 214.03 60.20 214.34 59.52 214.65 C 57.51 215.49 55.64 216.65 53.61 217.43 C 51.97 217.66 50.25 217.53 48.60 217.56 C 48.33 216.25 48.04 214.94 47.83 213.62 C 48.58 212.19 49.69 210.92 50.67 209.64 C 53.49 206.19 55.59 202.48 59.05 199.58 Z" fill="#f5f5f5" />
<path d="M 169.77 199.87 C 170.66 200.63 171.54 201.40 172.41 202.17 C 171.16 203.51 169.92 204.86 168.72 206.25 C 171.01 205.10 173.21 203.97 175.28 202.45 C 177.60 202.98 179.89 203.48 182.26 203.75 C 179.96 211.10 176.81 217.70 171.22 223.12 C 167.73 224.42 164.16 225.19 160.47 225.65 C 159.55 224.26 158.63 222.88 157.71 221.49 C 163.68 219.47 169.26 218.35 174.44 214.44 C 176.40 213.09 177.50 210.54 178.78 208.55 C 174.14 210.22 169.81 212.70 165.12 214.22 C 162.41 215.19 159.99 214.19 157.20 213.83 C 161.81 210.95 165.10 205.79 168.49 201.51 C 168.91 200.96 169.33 200.41 169.77 199.87 Z" fill="#605d45" />
<path d="M 184.47 203.93 C 184.75 209.07 183.90 213.25 182.04 218.04 C 177.50 220.69 173.16 223.61 168.72 226.42 C 169.52 225.29 170.34 224.18 171.22 223.12 C 176.81 217.70 179.96 211.10 182.26 203.75 C 183.00 203.82 183.73 203.88 184.47 203.93 Z" fill="#20223a" />
<path d="M 96.02 203.08 C 97.38 204.61 98.67 206.34 100.27 207.61 C 109.22 213.54 118.91 215.39 129.29 217.24 C 128.97 218.81 128.75 220.39 128.51 221.97 C 131.80 221.81 135.57 221.89 138.67 220.69 C 139.82 219.96 140.63 218.45 141.49 217.39 C 147.29 217.75 151.35 214.96 157.20 213.83 C 159.99 214.19 162.41 215.19 165.12 214.22 C 169.81 212.70 174.14 210.22 178.78 208.55 C 177.50 210.54 176.40 213.09 174.44 214.44 C 169.26 218.35 163.68 219.47 157.71 221.49 C 154.51 222.86 152.11 224.87 149.91 227.53 C 147.54 228.08 145.17 228.59 142.77 229.00 C 144.95 227.62 147.20 226.37 149.42 225.04 C 146.74 225.34 144.08 225.73 141.39 225.98 C 133.12 222.56 124.80 224.21 116.89 227.73 C 114.26 227.86 111.62 227.94 108.98 228.09 C 112.51 224.32 116.94 223.38 121.66 221.94 C 113.88 219.34 106.11 217.67 98.03 216.30 C 98.65 215.63 99.26 214.95 99.87 214.27 C 98.72 213.88 97.57 213.49 96.42 213.10 C 96.68 212.33 96.95 211.57 97.23 210.81 C 95.95 209.99 94.66 209.17 93.41 208.31 C 94.33 206.58 95.23 204.87 96.02 203.08 Z" fill="#746f57" />
<path d="M 65.54 206.63 C 66.01 207.32 66.49 208.01 66.96 208.70 C 66.07 209.77 65.18 210.84 64.30 211.91 C 67.18 213.01 70.02 214.18 72.78 215.56 C 68.30 215.81 63.89 215.79 59.52 214.65 C 60.20 214.34 60.88 214.03 61.57 213.72 C 61.57 211.99 61.58 210.25 61.59 208.51 C 62.91 207.89 64.22 207.26 65.54 206.63 Z" fill="#bec294" />
<path d="M 84.35 212.17 C 89.01 213.30 93.41 215.05 98.03 216.30 C 106.11 217.67 113.88 219.34 121.66 221.94 C 116.94 223.38 112.51 224.32 108.98 228.09 C 105.49 228.33 102.04 228.86 98.52 228.78 C 95.21 227.34 91.89 225.99 88.50 224.74 C 86.51 223.51 84.46 222.39 82.49 221.14 C 81.75 220.41 81.03 219.67 80.32 218.91 C 86.77 217.96 91.99 220.34 98.09 221.86 C 101.51 222.78 105.00 222.98 108.53 223.02 C 105.36 221.27 102.08 219.54 98.63 218.41 C 95.62 217.44 92.43 217.44 89.47 216.44 C 87.34 215.71 85.82 213.78 84.35 212.17 Z" fill="#989d6b" />
<path d="M 129.29 217.24 C 133.35 217.40 137.42 217.31 141.49 217.39 C 140.63 218.45 139.82 219.96 138.67 220.69 C 135.57 221.89 131.80 221.81 128.51 221.97 C 128.75 220.39 128.97 218.81 129.29 217.24 Z" fill="#9a9b69" />
<path d="M 73.29 220.30 C 73.82 220.83 73.82 220.83 73.29 220.30 Z" fill="#a4aca5" />
<path d="M 82.49 221.14 C 84.46 222.39 86.51 223.51 88.50 224.74 C 86.02 223.98 84.24 223.08 82.49 221.14 Z" fill="#616855" />
<path d="M 157.71 221.49 C 158.63 222.88 159.55 224.26 160.47 225.65 C 156.95 226.28 153.42 226.86 149.91 227.53 C 152.11 224.87 154.51 222.86 157.71 221.49 Z" fill="#1b1b2b" />
<path d="M 141.39 225.98 C 138.71 226.32 136.04 226.71 133.35 227.00 C 127.87 227.49 122.39 227.70 116.89 227.73 C 124.80 224.21 133.12 222.56 141.39 225.98 Z" fill="#86816a" />
<path d="M 133.35 227.00 C 131.30 229.11 129.81 231.10 126.58 231.01 C 121.06 229.60 115.37 229.71 109.84 228.25 L 108.98 228.09 C 111.62 227.94 114.26 227.86 116.89 227.73 C 122.39 227.70 127.87 227.49 133.35 227.00 Z" fill="#afaea5" />
<path d="M 109.84 228.25 C 115.37 229.71 121.06 229.60 126.58 231.01 C 120.47 231.50 114.74 231.55 108.91 233.69 C 103.95 233.34 99.02 233.75 94.09 232.99 L 95.35 231.43 C 96.47 231.37 97.58 231.10 98.70 230.64 L 100.21 230.51 C 104.25 232.07 107.64 232.58 111.97 232.09 C 108.87 230.91 105.68 230.33 102.45 229.67 C 104.81 228.60 107.28 228.30 109.84 228.25 Z" fill="#3f404e" />
<path d="M 98.70 230.64 C 97.58 231.10 96.47 231.37 95.35 231.43 C 95.41 229.16 97.44 229.19 98.70 230.64 Z" fill="#bebdc1" />
<path d="M 102.45 229.67 C 105.68 230.33 108.87 230.91 111.97 232.09 C 107.64 232.58 104.25 232.07 100.21 230.51 C 100.96 230.23 101.70 229.95 102.45 229.67 Z" fill="#d3d3d9" />
</svg>