<?xml version="1.0" encoding="UTF-8" standalone="no"?>
<!DOCTYPE svg PUBLIC "-//W3C//DTD SVG 1.1//EN" "http://www.w3.org/Graphics/SVG/1.1/DTD/svg11.dtd">
<svg xmlns="http://www.w3.org/2000/svg" version="1.1" viewBox="0 0 256 256" width="256.0pt" height="256.0pt">
<path d="M 0.00 0.00 L 256.00 0.00 L 256.00 256.00 L 0.00 256.00 L 0.00 0.00 Z" fill="#fdfdfd" />
<path d="M 173.64 18.35 C 187.02 22.33 198.92 29.61 206.54 41.52 C 212.77 48.90 215.40 58.88 221.26 66.69 C 226.05 70.51 231.38 73.94 235.73 78.26 C 243.39 89.32 244.34 101.98 242.11 114.99 C 241.45 143.74 244.18 171.45 236.70 199.64 C 234.76 208.55 234.72 219.28 230.35 227.35 C 223.26 238.70 211.43 241.01 199.00 242.04 C 187.30 241.01 176.44 239.89 165.37 235.65 C 154.27 232.47 143.31 231.19 133.99 224.05 C 125.08 219.40 121.47 227.33 113.39 229.45 C 104.74 232.49 94.35 230.61 85.40 230.52 C 76.06 233.92 65.92 235.39 56.00 235.01 C 42.38 235.07 30.44 236.39 19.73 226.27 C 10.73 216.43 13.02 205.43 13.30 193.16 C 14.13 179.92 20.52 166.14 20.00 152.98 C 18.20 139.81 16.14 127.94 18.67 114.65 C 20.44 111.70 22.50 104.55 26.23 110.27 C 24.50 118.60 22.86 127.51 31.57 132.45 C 33.84 134.12 42.57 139.43 41.52 132.79 C 40.89 130.45 32.97 122.71 40.05 126.67 C 38.62 121.18 34.03 117.39 33.05 111.91 C 32.79 109.08 29.46 108.13 27.32 106.95 C 33.34 104.41 39.85 98.82 37.83 91.13 C 35.54 81.28 24.46 74.22 23.02 63.02 C 21.69 54.62 26.81 43.92 35.47 41.59 C 45.58 36.27 58.64 36.58 69.39 39.56 C 78.55 41.93 82.75 50.53 92.03 48.99 C 98.43 49.67 100.50 44.76 106.10 43.11 C 110.37 41.52 114.47 40.88 119.03 40.96 C 123.37 41.41 127.16 36.65 129.11 33.32 C 129.30 27.87 133.15 25.39 135.96 20.95 C 147.84 12.52 160.53 14.29 173.64 18.35 Z" fill="#f3f1ef" />
<path d="M 159.22 23.36 C 156.57 23.99 153.93 24.09 151.21 23.98 L 150.73 22.94 C 153.93 21.42 156.17 21.61 159.22 23.36 Z" fill="#a89b8b" />
<path d="M 150.73 22.94 L 151.21 23.98 C 148.11 25.42 144.99 25.41 143.42 28.89 C 140.28 33.73 144.66 42.41 148.14 46.13 C 148.88 48.08 149.59 50.02 150.60 51.85 C 151.90 54.46 153.31 56.93 154.89 59.38 L 155.22 61.20 C 154.46 61.09 153.80 60.75 153.11 60.44 C 150.98 57.15 149.35 52.22 145.40 50.85 C 145.52 51.93 145.67 53.01 145.85 54.09 C 141.44 49.59 137.72 44.97 135.48 39.02 C 135.86 35.46 135.92 31.88 136.27 28.33 C 140.93 24.14 145.32 24.87 150.73 22.94 Z" fill="#634e3e" />
<path d="M 159.22 23.36 C 162.43 24.30 171.50 23.58 167.33 29.11 C 172.95 27.34 173.43 27.63 178.83 29.85 C 182.58 30.90 185.51 33.10 188.23 35.81 C 184.53 35.03 182.31 32.45 178.95 30.99 C 176.13 32.38 177.41 32.75 179.06 34.49 C 176.32 34.25 173.83 32.66 171.14 31.99 C 172.20 33.35 173.40 34.33 173.98 35.91 C 168.52 34.49 163.58 31.57 158.06 30.26 C 161.41 32.93 155.56 36.29 154.75 33.22 C 151.50 29.05 147.18 32.10 143.42 28.89 C 144.99 25.41 148.11 25.42 151.21 23.98 C 153.93 24.09 156.57 23.99 159.22 23.36 Z" fill="#ebd4b1" />
<path d="M 183.61 30.40 C 199.06 39.58 212.97 59.37 208.08 77.98 C 210.38 86.65 216.87 94.56 219.16 102.96 C 219.05 105.07 218.90 107.14 218.35 109.18 C 217.94 107.66 217.48 106.16 217.04 104.65 C 216.45 101.24 215.14 98.16 212.31 96.01 C 212.43 97.73 212.61 99.43 212.74 101.14 L 211.91 99.70 C 210.35 95.76 207.51 94.74 204.01 92.95 C 200.83 91.50 200.93 88.36 198.49 85.77 C 199.24 79.29 198.50 73.09 200.74 66.80 L 201.95 67.84 C 202.63 62.77 200.91 58.64 198.76 54.20 L 199.91 52.90 C 202.71 58.26 205.62 62.66 205.28 69.02 C 208.16 67.15 206.54 64.65 206.07 61.98 C 204.20 53.56 198.05 46.35 192.70 39.74 C 191.45 37.77 190.37 36.77 188.23 35.81 C 185.51 33.10 182.58 30.90 178.83 29.85 C 178.84 26.63 182.17 29.94 183.61 30.40 Z" fill="#6a5442" />
<path d="M 143.42 28.89 C 147.18 32.10 151.50 29.05 154.75 33.22 C 155.56 36.29 161.41 32.93 158.06 30.26 C 163.58 31.57 168.52 34.49 173.98 35.91 C 173.40 34.33 172.20 33.35 171.14 31.99 C 173.83 32.66 176.32 34.25 179.06 34.49 C 187.46 37.67 194.41 46.59 198.76 54.20 C 200.91 58.64 202.63 62.77 201.95 67.84 L 200.74 66.80 C 199.65 56.94 193.63 47.14 184.95 42.15 C 185.51 43.50 186.19 44.81 186.92 46.08 C 177.64 40.64 170.99 33.93 159.34 34.12 C 156.13 38.26 151.09 34.84 148.88 40.95 C 146.52 42.93 151.55 46.05 148.14 46.13 C 144.66 42.41 140.28 33.73 143.42 28.89 Z" fill="#dab583" />
<path d="M 178.95 30.99 C 182.31 32.45 184.53 35.03 188.23 35.81 C 190.37 36.77 191.45 37.77 192.70 39.74 C 192.01 44.13 198.64 48.44 199.91 52.90 L 198.76 54.20 C 194.41 46.59 187.46 37.67 179.06 34.49 C 177.41 32.75 176.13 32.38 178.95 30.99 Z" fill="#987344" />
<path d="M 159.34 34.12 C 170.99 33.93 177.64 40.64 186.92 46.08 C 188.70 47.21 190.12 48.56 191.46 50.18 C 188.77 50.34 188.26 47.48 185.79 49.78 C 180.31 45.27 176.34 40.46 168.70 39.78 C 165.87 39.86 159.20 34.70 158.13 38.81 C 162.40 41.85 167.27 42.34 170.18 47.04 C 168.29 49.16 166.46 48.45 163.99 48.39 C 164.38 50.38 167.28 51.25 168.84 52.20 C 169.64 53.58 170.15 53.93 171.69 54.33 C 172.37 54.96 173.06 55.57 173.75 56.16 C 175.97 60.52 179.01 64.48 180.94 68.96 C 180.40 69.56 179.74 70.05 178.95 70.43 C 175.93 65.77 177.61 70.16 177.34 72.72 C 173.84 75.89 170.72 76.48 166.07 75.88 C 167.29 72.69 175.25 68.83 171.83 65.61 C 165.90 65.99 162.08 64.50 156.29 67.00 C 156.06 64.43 159.81 60.90 155.22 61.20 L 154.89 59.38 C 158.19 54.87 156.50 50.53 150.60 51.85 C 149.59 50.02 148.88 48.08 148.14 46.13 C 151.55 46.05 146.52 42.93 148.88 40.95 C 151.09 34.84 156.13 38.26 159.34 34.12 Z" fill="#c89b61" />
<path d="M 168.70 39.78 C 176.34 40.46 180.31 45.27 185.79 49.78 C 188.26 47.48 188.77 50.34 191.46 50.18 C 193.19 52.19 194.83 54.67 195.72 57.17 C 194.41 58.40 193.34 59.23 191.54 59.57 C 191.43 61.36 191.75 63.19 191.79 64.99 C 185.99 58.93 179.87 50.54 172.01 46.97 C 170.86 48.65 169.92 50.47 168.84 52.20 C 167.28 51.25 164.38 50.38 163.99 48.39 C 166.46 48.45 168.29 49.16 170.18 47.04 C 167.27 42.34 162.40 41.85 158.13 38.81 C 159.20 34.70 165.87 39.86 168.70 39.78 Z" fill="#b5884d" />
<path d="M 192.70 39.74 C 198.05 46.35 204.20 53.56 206.07 61.98 C 206.54 64.65 208.16 67.15 205.28 69.02 C 205.62 62.66 202.71 58.26 199.91 52.90 C 198.64 48.44 192.01 44.13 192.70 39.74 Z" fill="#a28973" />
<path d="M 184.95 42.15 C 193.63 47.14 199.65 56.94 200.74 66.80 C 198.50 73.09 199.24 79.29 198.49 85.77 C 198.10 86.47 197.69 87.14 197.24 87.78 C 190.20 88.88 193.95 82.77 192.96 78.28 L 191.87 78.96 C 189.31 77.50 186.72 76.11 184.10 74.76 L 183.44 74.38 C 182.06 68.33 181.31 57.53 173.75 56.16 C 173.06 55.57 172.37 54.96 171.69 54.33 C 171.71 52.38 170.74 51.54 168.84 52.20 C 169.92 50.47 170.86 48.65 172.01 46.97 C 179.87 50.54 185.99 58.93 191.79 64.99 C 191.75 63.19 191.43 61.36 191.54 59.57 C 193.34 59.23 194.41 58.40 195.72 57.17 C 194.83 54.67 193.19 52.19 191.46 50.18 C 190.12 48.56 188.70 47.21 186.92 46.08 C 186.19 44.81 185.51 43.50 184.95 42.15 Z" fill="#a87b44" />
<path d="M 74.99 48.10 C 77.76 48.21 78.76 49.67 77.02 52.00 C 75.57 55.65 66.62 57.12 69.12 61.12 C 68.56 62.56 67.93 63.97 67.23 65.35 C 61.10 66.86 70.54 61.35 66.48 59.64 C 63.02 57.32 58.09 56.83 62.02 52.03 C 57.99 45.35 53.29 47.65 46.90 45.84 L 45.85 45.61 C 56.38 42.88 64.73 47.16 74.99 48.10 Z" fill="#e9d7b9" />
<path d="M 45.85 45.61 L 46.90 45.84 C 40.57 50.90 57.34 45.07 53.27 50.27 C 51.01 52.06 48.20 53.13 45.84 54.82 C 42.57 54.16 39.36 53.01 37.67 49.92 C 39.39 48.14 47.91 47.33 40.81 46.61 C 42.48 46.16 44.16 45.89 45.85 45.61 Z" fill="#caa97f" />
<path d="M 46.90 45.84 C 53.29 47.65 57.99 45.35 62.02 52.03 C 58.09 56.83 63.02 57.32 66.48 59.64 C 70.54 61.35 61.10 66.86 67.23 65.35 C 66.38 67.15 65.59 68.98 64.92 70.85 C 62.03 79.22 59.60 67.37 56.11 65.87 C 52.85 63.94 57.40 63.70 54.73 61.28 C 52.15 59.00 49.48 54.98 45.84 54.82 C 48.20 53.13 51.01 52.06 53.27 50.27 C 57.34 45.07 40.57 50.90 46.90 45.84 Z" fill="#dcc099" />
<path d="M 114.05 45.99 C 115.94 51.74 119.71 51.33 124.90 52.39 C 124.39 56.54 121.42 54.98 118.69 56.10 C 114.25 57.91 110.70 60.48 107.35 63.88 C 105.29 58.69 101.56 67.50 100.13 69.19 C 94.45 71.46 92.46 79.05 90.65 84.51 C 90.15 84.41 89.66 84.30 89.16 84.18 L 88.99 83.17 C 90.40 79.39 91.92 75.65 93.44 71.92 C 94.34 70.28 95.21 68.62 96.01 66.93 C 96.66 65.58 97.24 64.21 97.81 62.83 C 101.66 55.30 106.58 50.02 114.05 45.99 Z" fill="#664f3d" />
<path d="M 40.81 46.61 C 47.91 47.33 39.39 48.14 37.67 49.92 C 36.39 50.71 35.15 51.54 33.95 52.43 C 30.90 54.19 31.68 60.85 30.72 64.04 C 29.24 61.65 28.68 59.85 28.93 56.98 C 28.27 51.28 36.56 48.22 40.81 46.61 Z" fill="#624f3e" />
<path d="M 37.67 49.92 C 39.36 53.01 42.57 54.16 45.84 54.82 C 49.48 54.98 52.15 59.00 54.73 61.28 C 57.40 63.70 52.85 63.94 56.11 65.87 C 59.60 67.37 62.03 79.22 64.92 70.85 C 65.06 73.97 64.54 76.27 63.41 79.13 C 63.38 78.18 61.62 73.40 60.38 74.57 C 56.49 76.49 59.97 81.00 61.08 83.73 C 58.58 83.91 56.34 84.31 54.06 85.36 C 48.06 80.26 41.06 79.29 37.27 72.36 C 37.21 71.59 37.09 70.83 36.92 70.08 C 35.97 66.65 33.65 63.47 33.00 59.97 C 32.74 57.36 35.58 54.73 33.95 52.43 C 35.15 51.54 36.39 50.71 37.67 49.92 Z" fill="#c09765" />
<path d="M 145.40 50.85 C 149.35 52.22 150.98 57.15 153.11 60.44 C 151.90 60.28 150.68 60.14 149.47 60.01 C 148.73 59.05 147.97 58.10 147.22 57.14 C 148.84 55.48 147.82 54.39 145.85 54.09 C 145.67 53.01 145.52 51.93 145.40 50.85 Z" fill="#dfcbb6" />
<path d="M 154.89 59.38 C 153.31 56.93 151.90 54.46 150.60 51.85 C 156.50 50.53 158.19 54.87 154.89 59.38 Z" fill="#e2c9ae" />
<path d="M 168.84 52.20 C 170.74 51.54 171.71 52.38 171.69 54.33 C 170.15 53.93 169.64 53.58 168.84 52.20 Z" fill="#b7874f" />
<path d="M 33.95 52.43 C 35.58 54.73 32.74 57.36 33.00 59.97 C 33.65 63.47 35.97 66.65 36.92 70.08 C 34.78 68.14 32.90 65.94 30.72 64.04 C 31.68 60.85 30.90 54.19 33.95 52.43 Z" fill="#e2c5a1" />
<path d="M 145.85 54.09 C 147.82 54.39 148.84 55.48 147.22 57.14 C 146.44 56.34 145.98 55.32 145.85 54.09 Z" fill="#6a6152" />
<path d="M 118.69 56.10 C 123.03 59.47 127.27 57.87 132.07 59.48 C 129.44 59.86 126.77 59.91 124.13 60.23 C 120.74 63.05 111.22 67.10 107.35 63.88 C 110.70 60.48 114.25 57.91 118.69 56.10 Z" fill="#e0c6a2" />
<path d="M 173.75 56.16 C 181.31 57.53 182.06 68.33 183.44 74.38 C 181.19 73.22 179.02 73.57 178.95 70.43 C 179.74 70.05 180.40 69.56 180.94 68.96 C 179.01 64.48 175.97 60.52 173.75 56.16 Z" fill="#b4874f" />
<path d="M 77.22 60.72 C 68.78 66.71 66.42 75.54 63.89 85.03 L 62.72 84.08 C 62.93 82.43 63.15 80.77 63.41 79.13 C 64.54 76.27 65.06 73.97 64.92 70.85 C 65.59 68.98 66.38 67.15 67.23 65.35 C 67.93 63.97 68.56 62.56 69.12 61.12 C 71.81 58.53 75.20 55.58 77.22 60.72 Z" fill="#705843" />
<path d="M 132.07 59.48 C 134.81 62.19 141.47 62.15 140.99 66.28 C 138.61 69.37 134.14 71.96 133.72 75.93 C 132.35 69.43 122.80 68.90 118.60 71.68 C 118.04 72.27 117.48 72.87 116.93 73.47 C 116.42 71.21 118.93 69.03 119.83 67.05 C 116.48 64.48 111.04 69.77 108.49 71.15 C 105.11 68.55 104.66 77.89 102.43 74.88 C 103.39 71.51 105.02 68.37 105.91 65.00 C 102.56 67.60 101.96 72.89 99.02 76.03 C 95.46 79.09 96.48 83.44 92.15 86.04 C 89.91 88.45 88.51 86.90 85.82 86.29 C 87.50 85.79 88.66 86.18 89.16 84.18 C 89.66 84.30 90.15 84.41 90.65 84.51 C 92.46 79.05 94.45 71.46 100.13 69.19 C 101.56 67.50 105.29 58.69 107.35 63.88 C 111.22 67.10 120.74 63.05 124.13 60.23 C 126.77 59.91 129.44 59.86 132.07 59.48 Z" fill="#bf9862" />
<path d="M 149.47 60.01 C 150.68 60.14 151.90 60.28 153.11 60.44 C 153.80 60.75 154.46 61.09 155.22 61.20 C 159.81 60.90 156.06 64.43 156.29 67.00 C 162.08 64.50 165.90 65.99 171.83 65.61 C 175.25 68.83 167.29 72.69 166.07 75.88 C 170.72 76.48 173.84 75.89 177.34 72.72 C 177.61 70.16 175.93 65.77 178.95 70.43 C 179.02 73.57 181.19 73.22 183.44 74.38 L 184.10 74.76 C 179.61 74.79 179.30 75.47 176.85 78.84 C 171.83 78.57 166.28 79.59 161.29 78.72 C 159.68 77.78 161.30 74.66 159.02 73.89 C 155.88 75.82 154.18 80.13 152.20 83.14 C 150.30 83.77 148.46 84.47 146.76 85.55 C 142.71 83.83 143.08 90.72 141.50 93.16 C 140.83 92.11 139.69 88.11 138.25 88.29 C 136.29 91.08 134.47 93.96 132.42 96.69 C 129.65 95.57 133.05 90.02 133.64 88.07 C 135.47 89.26 135.35 87.50 136.34 86.35 C 140.58 78.29 144.63 74.18 152.02 69.08 C 145.38 69.02 139.57 78.12 136.29 83.12 C 136.15 80.03 135.59 78.29 133.72 75.93 C 134.14 71.96 138.61 69.37 140.99 66.28 C 143.56 63.80 146.67 62.20 149.47 60.01 Z" fill="#9c7441" />
<path d="M 77.22 60.72 C 78.48 60.92 89.70 60.75 83.05 62.88 C 79.17 59.45 76.52 65.60 82.55 63.38 C 82.03 64.91 81.55 66.46 81.00 67.98 C 77.71 71.12 74.21 74.42 71.34 77.93 C 71.10 76.61 70.85 75.29 70.59 73.97 C 67.96 77.42 67.10 82.13 65.07 85.98 L 63.89 85.03 C 66.42 75.54 68.78 66.71 77.22 60.72 Z" fill="#ac8f6e" />
<path d="M 83.05 62.88 L 82.55 63.38 C 76.52 65.60 79.17 59.45 83.05 62.88 Z" fill="#5e4b39" />
<path d="M 97.81 62.83 C 97.24 64.21 96.66 65.58 96.01 66.93 C 89.86 62.66 87.64 69.56 85.56 74.08 C 84.34 77.10 83.44 80.32 83.06 83.56 C 85.04 83.56 86.98 83.31 88.99 83.17 L 89.16 84.18 C 88.66 86.18 87.50 85.79 85.82 86.29 C 79.15 86.18 71.49 91.34 65.07 85.98 C 67.10 82.13 67.96 77.42 70.59 73.97 C 70.85 75.29 71.10 76.61 71.34 77.93 C 74.21 74.42 77.71 71.12 81.00 67.98 C 83.41 67.72 84.74 68.50 85.87 65.88 C 88.20 60.91 93.44 62.13 97.81 62.83 Z" fill="#debf95" />
<path d="M 30.72 64.04 C 32.90 65.94 34.78 68.14 36.92 70.08 C 37.09 70.83 37.21 71.59 37.27 72.36 C 34.10 69.99 32.06 67.84 30.72 64.04 Z" fill="#75614b" />
<path d="M 96.01 66.93 C 95.21 68.62 94.34 70.28 93.44 71.92 C 90.69 70.52 89.27 79.47 87.09 81.01 C 87.35 77.07 89.19 73.88 89.86 69.97 C 88.26 70.74 87.35 75.24 85.56 74.08 C 87.64 69.56 89.86 62.66 96.01 66.93 Z" fill="#ae8352" />
<path d="M 105.91 65.00 C 105.02 68.37 103.39 71.51 102.43 74.88 C 104.66 77.89 105.11 68.55 108.49 71.15 C 111.04 69.77 116.48 64.48 119.83 67.05 C 118.93 69.03 116.42 71.21 116.93 73.47 C 116.83 76.00 113.72 76.50 115.27 78.53 C 117.74 80.90 109.49 79.52 113.31 80.81 C 116.52 80.96 111.25 83.93 110.86 85.03 C 106.71 86.70 103.50 85.07 99.47 84.08 C 100.34 86.40 100.32 86.66 99.11 88.86 C 101.15 88.38 103.28 85.67 105.03 87.84 C 109.50 89.83 107.75 94.57 106.15 97.95 C 108.23 97.61 110.26 97.06 112.33 96.70 C 109.99 101.77 108.27 104.90 102.66 106.67 C 98.40 108.10 101.02 111.72 99.34 114.72 C 97.04 115.09 95.30 116.81 92.98 117.30 C 89.69 114.63 85.94 116.64 82.85 114.12 C 80.55 111.58 79.63 114.43 77.88 112.22 C 77.26 109.11 76.09 106.24 75.03 103.28 C 80.68 104.14 81.37 111.73 85.88 112.83 C 84.81 109.24 81.64 105.01 82.12 101.11 C 85.00 100.29 86.29 103.80 88.48 104.15 C 90.62 102.63 92.60 107.51 93.32 104.32 C 96.39 99.42 94.54 95.20 94.16 89.99 C 93.77 88.46 95.68 85.44 92.95 86.06 L 92.15 86.04 C 96.48 83.44 95.46 79.09 99.02 76.03 C 101.96 72.89 102.56 67.60 105.91 65.00 Z" fill="#a17742" />
<path d="M 152.02 69.08 C 144.63 74.18 140.58 78.29 136.34 86.35 C 135.35 87.50 135.47 89.26 133.64 88.07 C 134.44 86.37 135.39 84.76 136.29 83.12 C 139.57 78.12 145.38 69.02 152.02 69.08 Z" fill="#70522c" />
<path d="M 89.86 69.97 C 89.19 73.88 87.35 77.07 87.09 81.01 C 89.27 79.47 90.69 70.52 93.44 71.92 C 91.92 75.65 90.40 79.39 88.99 83.17 C 86.98 83.31 85.04 83.56 83.06 83.56 C 83.44 80.32 84.34 77.10 85.56 74.08 C 87.35 75.24 88.26 70.74 89.86 69.97 Z" fill="#caa374" />
<path d="M 133.72 75.93 C 135.59 78.29 136.15 80.03 136.29 83.12 C 135.39 84.76 134.44 86.37 133.64 88.07 C 133.05 90.02 129.65 95.57 132.42 96.69 C 134.47 93.96 136.29 91.08 138.25 88.29 C 139.69 88.11 140.83 92.11 141.50 93.16 C 141.09 94.83 140.70 96.49 140.25 98.15 C 137.19 95.83 138.20 100.63 140.04 101.81 C 136.61 105.55 133.99 109.82 130.85 113.77 C 129.75 113.18 128.72 112.44 127.69 111.75 C 130.39 106.33 134.40 100.88 135.93 95.00 C 133.48 97.16 132.18 100.49 130.20 103.10 C 127.25 104.94 124.94 107.43 122.70 110.05 L 122.04 109.80 C 120.39 108.83 117.98 110.36 116.21 110.65 C 116.42 109.11 116.70 107.59 116.89 106.05 C 115.33 107.35 113.95 108.84 112.41 110.14 C 112.46 104.54 115.07 101.27 118.03 96.91 C 115.70 94.57 114.81 94.96 112.33 96.70 C 110.26 97.06 108.23 97.61 106.15 97.95 C 107.75 94.57 109.50 89.83 105.03 87.84 C 103.28 85.67 101.15 88.38 99.11 88.86 C 100.32 86.66 100.34 86.40 99.47 84.08 C 103.50 85.07 106.71 86.70 110.86 85.03 C 115.61 84.76 118.80 82.25 122.83 80.21 C 129.39 85.48 122.89 96.99 121.48 103.40 C 120.24 106.85 122.78 103.29 123.35 102.36 C 127.13 96.15 127.45 88.60 132.56 83.70 C 131.57 79.74 125.99 72.42 121.38 73.42 C 120.43 72.89 119.50 72.32 118.60 71.68 C 122.80 68.90 132.35 69.43 133.72 75.93 Z" fill="#9ea75e" />
<path d="M 118.60 71.68 C 119.50 72.32 120.43 72.89 121.38 73.42 C 125.99 72.42 131.57 79.74 132.56 83.70 C 127.45 88.60 127.13 96.15 123.35 102.36 C 122.78 103.29 120.24 106.85 121.48 103.40 C 122.89 96.99 129.39 85.48 122.83 80.21 C 118.80 82.25 115.61 84.76 110.86 85.03 C 111.25 83.93 116.52 80.96 113.31 80.81 C 109.49 79.52 117.74 80.90 115.27 78.53 C 113.72 76.50 116.83 76.00 116.93 73.47 C 117.48 72.87 118.04 72.27 118.60 71.68 Z" fill="#67593b" />
<path d="M 224.00 74.56 C 227.52 79.08 230.80 84.50 233.32 89.67 C 236.87 97.31 235.77 104.12 230.14 110.34 C 220.87 110.87 225.77 103.42 224.82 97.92 C 223.25 100.80 223.03 104.03 221.50 106.91 C 220.94 105.58 220.42 104.22 219.90 102.87 C 222.15 96.84 219.60 92.66 221.75 86.84 C 223.13 81.44 219.78 78.61 218.09 73.94 C 220.33 68.79 220.57 77.70 224.00 74.56 Z" fill="#c59a64" />
<path d="M 60.38 74.57 C 61.62 73.40 63.38 78.18 63.41 79.13 C 63.15 80.77 62.93 82.43 62.72 84.08 L 61.08 83.73 C 59.97 81.00 56.49 76.49 60.38 74.57 Z" fill="#d9b78f" />
<path d="M 159.02 73.89 C 161.30 74.66 159.68 77.78 161.29 78.72 C 166.28 79.59 171.83 78.57 176.85 78.84 C 177.95 79.51 179.05 80.17 180.17 80.79 C 174.44 82.40 169.12 83.94 163.15 82.37 C 159.65 81.52 159.26 80.53 156.99 83.76 L 156.12 84.84 L 155.07 86.17 C 151.26 79.81 154.13 94.75 148.75 91.19 C 149.88 88.50 151.08 85.84 152.20 83.14 C 154.18 80.13 155.88 75.82 159.02 73.89 Z" fill="#694f38" />
<path d="M 184.10 74.76 C 186.72 76.11 189.31 77.50 191.87 78.96 C 192.16 84.39 189.63 93.82 184.34 96.30 C 181.99 96.64 176.60 97.98 175.25 95.68 C 174.76 92.97 176.69 89.35 178.18 87.09 C 180.35 87.67 179.79 91.13 180.38 92.88 C 182.61 93.12 183.96 89.80 185.20 88.34 C 188.64 89.84 189.44 82.32 189.80 80.21 C 186.11 78.85 180.79 77.94 176.85 78.84 C 179.30 75.47 179.61 74.79 184.10 74.76 Z" fill="#604730" />
<path d="M 189.80 80.21 C 189.44 82.32 188.64 89.84 185.20 88.34 C 186.90 82.23 186.37 81.52 180.17 80.79 C 179.05 80.17 177.95 79.51 176.85 78.84 C 180.79 77.94 186.11 78.85 189.80 80.21 Z" fill="#997954" />
<path d="M 192.96 78.28 C 193.95 82.77 190.20 88.88 197.24 87.78 C 195.54 89.28 193.30 90.25 191.79 91.92 C 187.23 97.80 188.95 104.05 188.10 111.99 C 190.11 111.60 189.87 109.53 191.79 109.02 C 191.70 112.24 191.04 115.89 191.87 119.03 C 192.50 121.25 192.84 124.06 194.39 125.83 C 195.07 124.55 195.68 123.25 196.49 122.04 C 198.34 125.20 197.64 129.74 200.08 132.29 C 201.75 134.49 205.56 134.80 208.06 135.66 C 204.87 137.15 201.46 138.35 198.42 140.12 C 198.59 142.03 198.91 143.94 199.31 145.82 C 201.75 145.96 204.59 143.93 206.23 146.41 C 204.56 147.94 204.17 149.37 203.64 151.49 C 200.41 150.37 199.87 150.31 196.82 152.10 C 195.40 149.40 195.15 146.52 194.32 143.65 C 192.79 143.00 190.90 143.62 189.31 143.00 C 191.81 138.25 190.50 133.27 188.35 128.68 C 189.19 123.88 188.14 118.46 182.04 118.83 C 176.14 117.54 170.44 113.64 166.15 109.46 C 165.25 101.82 158.76 95.72 158.72 87.35 C 158.43 84.98 158.57 85.25 156.12 84.84 L 156.99 83.76 C 158.76 83.38 162.56 84.61 163.15 82.37 C 169.12 83.94 174.44 82.40 180.17 80.79 C 186.37 81.52 186.90 82.23 185.20 88.34 C 183.96 89.80 182.61 93.12 180.38 92.88 C 179.79 91.13 180.35 87.67 178.18 87.09 C 176.69 89.35 174.76 92.97 175.25 95.68 C 176.60 97.98 181.99 96.64 184.34 96.30 C 189.63 93.82 192.16 84.39 191.87 78.96 L 192.96 78.28 Z" fill="#c39862" />
<path d="M 163.15 82.37 C 162.56 84.61 158.76 83.38 156.99 83.76 C 159.26 80.53 159.65 81.52 163.15 82.37 Z" fill="#e5d3c1" />
<path d="M 152.20 83.14 C 151.08 85.84 149.88 88.50 148.75 91.19 C 148.55 91.68 148.39 92.19 148.25 92.71 C 147.72 94.79 147.00 97.10 147.12 99.26 C 149.71 99.74 148.63 100.01 148.43 102.11 C 147.30 101.73 146.18 101.36 145.05 101.02 C 144.05 99.27 140.43 96.96 143.08 95.09 C 145.55 92.85 145.38 88.55 146.76 85.55 C 148.46 84.47 150.30 83.77 152.20 83.14 Z" fill="#efe6d8" />
<path d="M 61.08 83.73 L 62.72 84.08 L 63.89 85.03 L 65.07 85.98 C 71.49 91.34 79.15 86.18 85.82 86.29 C 88.51 86.90 89.91 88.45 92.15 86.04 L 92.95 86.06 C 90.96 90.93 93.84 95.03 92.57 100.01 C 92.09 99.31 91.60 98.63 91.10 97.97 C 89.48 95.79 87.61 93.69 84.63 94.67 C 77.98 95.85 74.48 95.54 68.32 92.71 C 64.18 90.57 59.59 93.82 56.84 96.80 C 55.04 94.80 46.56 95.65 49.47 98.94 L 48.01 99.20 C 47.23 98.70 46.62 97.98 46.19 97.02 C 47.53 95.72 47.25 94.47 46.63 92.87 C 48.31 89.32 51.32 87.95 54.06 85.36 C 56.34 84.31 58.58 83.91 61.08 83.73 Z" fill="#443325" />
<path d="M 155.07 86.17 C 152.54 92.59 152.19 96.45 154.72 102.98 L 153.80 104.16 C 150.87 100.89 151.25 95.41 148.25 92.71 C 148.39 92.19 148.55 91.68 148.75 91.19 C 154.13 94.75 151.26 79.81 155.07 86.17 Z" fill="#887158" />
<path d="M 146.76 85.55 C 145.38 88.55 145.55 92.85 143.08 95.09 C 140.43 96.96 144.05 99.27 145.05 101.02 C 142.18 100.73 141.75 100.53 140.25 98.15 C 140.70 96.49 141.09 94.83 141.50 93.16 C 143.08 90.72 142.71 83.83 146.76 85.55 Z" fill="#bfab88" />
<path d="M 156.12 84.84 C 158.57 85.25 158.43 84.98 158.72 87.35 C 158.76 95.72 165.25 101.82 166.15 109.46 C 164.19 107.70 162.31 105.85 160.59 103.85 C 159.52 101.56 158.29 99.50 156.18 98.01 C 156.64 100.96 157.78 103.49 157.24 106.35 C 156.38 105.24 155.54 104.12 154.72 102.98 C 152.19 96.45 152.54 92.59 155.07 86.17 L 156.12 84.84 Z" fill="#b3a291" />
<path d="M 92.95 86.06 C 95.68 85.44 93.77 88.46 94.16 89.99 C 94.54 95.20 96.39 99.42 93.32 104.32 C 93.06 102.88 92.79 101.45 92.57 100.01 C 93.84 95.03 90.96 90.93 92.95 86.06 Z" fill="#caa777" />
<path d="M 198.49 85.77 C 200.93 88.36 200.83 91.50 204.01 92.95 C 207.51 94.74 210.35 95.76 211.91 99.70 C 209.41 103.55 208.58 108.84 205.58 112.21 C 205.61 110.80 205.70 109.39 205.72 107.98 C 204.00 110.41 203.73 113.10 203.14 115.93 C 202.08 119.31 201.08 120.69 202.89 124.05 C 201.56 123.39 198.70 119.23 198.83 122.95 C 197.65 121.17 196.39 119.46 195.05 117.79 C 196.89 116.27 197.08 115.61 197.08 113.20 C 196.07 114.09 195.12 115.04 194.10 115.92 C 193.54 111.24 194.47 107.74 196.68 103.67 C 197.71 100.99 200.30 98.70 197.85 96.02 C 195.60 97.51 194.07 100.02 192.12 101.98 C 192.23 100.03 195.17 96.67 192.21 95.83 C 191.04 95.49 191.94 92.82 191.79 91.92 C 193.30 90.25 195.54 89.28 197.24 87.78 C 197.69 87.14 198.10 86.47 198.49 85.77 Z" fill="#a5978a" />
<path d="M 113.32 89.32 C 118.53 87.98 115.54 93.14 112.14 93.16 C 107.65 95.31 110.71 89.40 113.32 89.32 Z" fill="#647434" />
<path d="M 68.32 92.71 C 74.48 95.54 77.98 95.85 84.63 94.67 L 84.80 95.65 L 83.24 96.26 C 86.45 99.16 89.92 101.66 93.32 104.32 C 92.60 107.51 90.62 102.63 88.48 104.15 C 86.29 103.80 85.00 100.29 82.12 101.11 C 81.64 105.01 84.81 109.24 85.88 112.83 C 81.37 111.73 80.68 104.14 75.03 103.28 C 76.09 106.24 77.26 109.11 77.88 112.22 C 76.84 111.24 75.84 110.22 74.90 109.15 C 73.66 104.05 68.26 91.06 61.24 95.21 C 62.56 98.38 68.86 101.86 63.13 103.87 C 61.28 101.23 59.54 98.66 56.84 96.80 C 59.59 93.82 64.18 90.57 68.32 92.71 Z" fill="#cba271" />
<path d="M 191.79 91.92 C 191.94 92.82 191.04 95.49 192.21 95.83 C 195.17 96.67 192.23 100.03 192.12 101.98 C 194.07 100.02 195.60 97.51 197.85 96.02 C 200.30 98.70 197.71 100.99 196.68 103.67 C 194.47 107.74 193.54 111.24 194.10 115.92 C 195.12 115.04 196.07 114.09 197.08 113.20 C 197.08 115.61 196.89 116.27 195.05 117.79 C 193.28 117.49 193.11 117.82 191.87 119.03 C 191.04 115.89 191.70 112.24 191.79 109.02 C 189.87 109.53 190.11 111.60 188.10 111.99 C 188.95 104.05 187.23 97.80 191.79 91.92 Z" fill="#a58b6d" />
<path d="M 46.63 92.87 C 47.25 94.47 47.53 95.72 46.19 97.02 C 45.27 95.61 45.71 94.14 46.63 92.87 Z" fill="#8a8176" />
<path d="M 148.25 92.71 C 151.25 95.41 150.87 100.89 153.80 104.16 C 156.68 108.93 160.31 113.29 163.93 117.51 C 162.75 120.37 162.92 123.23 162.84 126.26 C 161.85 123.65 162.53 119.89 160.44 117.98 C 161.70 123.44 156.54 125.93 157.61 130.98 C 156.72 129.74 155.93 128.41 154.99 127.21 C 152.44 124.74 147.49 123.32 147.94 119.03 C 147.14 112.69 151.27 107.43 148.43 102.11 C 148.63 100.01 149.71 99.74 147.12 99.26 C 147.00 97.10 147.72 94.79 148.25 92.71 Z" fill="#ab9f94" />
<path d="M 74.90 109.15 C 70.84 105.21 71.17 99.90 65.99 97.06 C 69.12 102.23 67.73 106.94 70.75 112.11 C 67.69 110.33 67.69 107.23 65.84 112.29 C 62.35 111.87 60.93 111.78 59.33 108.23 C 60.94 105.23 54.47 101.66 59.62 101.47 C 61.04 103.20 65.23 110.62 63.13 103.87 C 68.86 101.86 62.56 98.38 61.24 95.21 C 68.26 91.06 73.66 104.05 74.90 109.15 Z" fill="#997854" />
<path d="M 91.10 97.97 C 88.03 97.98 87.07 97.64 84.80 95.65 L 84.63 94.67 C 87.61 93.69 89.48 95.79 91.10 97.97 Z" fill="#85704f" />
<path d="M 56.84 96.80 C 59.54 98.66 61.28 101.23 63.13 103.87 C 65.23 110.62 61.04 103.20 59.62 101.47 C 54.47 101.66 60.94 105.23 59.33 108.23 C 57.98 106.79 56.76 103.09 54.39 103.54 C 52.33 101.99 50.16 100.62 48.01 99.20 L 49.47 98.94 C 46.56 95.65 55.04 94.80 56.84 96.80 Z" fill="#644d35" />
<path d="M 118.03 96.91 C 115.07 101.27 112.46 104.54 112.41 110.14 C 113.95 108.84 115.33 107.35 116.89 106.05 C 116.70 107.59 116.42 109.11 116.21 110.65 C 117.98 110.36 120.39 108.83 122.04 109.80 C 119.91 111.82 117.33 117.97 114.00 114.45 C 111.52 116.32 113.41 116.69 113.58 119.01 C 109.09 116.49 104.89 119.59 106.05 124.72 C 101.43 121.75 97.49 124.94 94.67 119.27 C 96.48 117.99 98.15 116.63 99.34 114.72 C 101.02 111.72 98.40 108.10 102.66 106.67 C 108.27 104.90 109.99 101.77 112.33 96.70 C 114.81 94.96 115.70 94.57 118.03 96.91 Z" fill="#6d553d" />
<path d="M 135.93 95.00 C 134.40 100.88 130.39 106.33 127.69 111.75 C 125.49 115.02 125.01 115.86 125.88 119.84 C 124.95 123.79 124.06 126.24 121.54 129.44 C 119.68 132.17 123.80 130.28 125.03 130.29 C 124.74 131.18 124.48 132.07 124.24 132.97 C 123.53 135.38 123.56 136.77 124.33 139.09 C 117.82 135.33 119.03 143.61 120.96 146.97 C 121.51 149.97 121.72 152.81 123.72 155.28 C 123.99 157.23 124.35 159.14 125.04 160.99 C 125.56 162.63 125.89 164.31 126.15 166.02 C 121.53 168.26 121.20 161.69 119.43 159.03 C 118.92 162.56 118.96 163.21 115.98 165.03 C 115.84 159.72 116.56 153.96 115.35 148.81 L 115.13 147.33 C 119.34 146.06 116.78 142.55 116.59 139.33 C 116.15 134.84 109.20 135.68 106.21 136.87 C 109.04 133.70 108.22 132.66 106.86 129.02 C 103.41 130.96 104.50 134.95 99.96 135.87 C 100.07 133.14 101.55 131.30 102.74 128.98 C 99.84 129.68 97.21 130.75 95.01 132.82 C 96.15 134.09 97.41 135.13 98.16 136.70 C 96.05 136.34 94.05 135.65 92.06 134.86 C 88.57 134.01 86.91 135.24 83.88 132.29 C 82.66 135.12 84.10 135.81 85.79 137.84 C 82.37 138.42 79.90 138.43 77.28 140.98 C 76.75 139.54 77.12 138.36 75.31 138.00 C 74.56 137.72 73.81 137.45 73.06 137.18 C 71.67 135.71 70.20 134.34 68.78 132.90 C 67.49 130.67 66.51 128.48 64.43 126.84 C 64.80 125.89 65.26 124.99 65.65 124.05 C 61.36 122.69 58.35 120.48 54.87 117.72 C 56.54 116.90 58.15 118.65 59.71 119.23 C 63.58 121.39 67.09 119.26 71.03 120.93 C 73.34 122.87 75.61 124.70 77.64 126.92 C 80.46 130.55 81.77 130.69 85.94 128.81 C 88.98 123.58 96.05 127.24 93.92 118.72 L 94.67 119.27 C 97.49 124.94 101.43 121.75 106.05 124.72 C 111.14 126.05 112.88 123.71 113.58 119.01 C 113.41 116.69 111.52 116.32 114.00 114.45 C 117.33 117.97 119.91 111.82 122.04 109.80 L 122.70 110.05 C 125.41 112.02 129.70 105.42 130.20 103.10 C 132.18 100.49 133.48 97.16 135.93 95.00 Z" fill="#473526" />
<path d="M 83.24 96.26 L 84.80 95.65 C 87.07 97.64 88.03 97.98 91.10 97.97 C 91.60 98.63 92.09 99.31 92.57 100.01 C 92.79 101.45 93.06 102.88 93.32 104.32 C 89.92 101.66 86.45 99.16 83.24 96.26 Z" fill="#ebd3ac" />
<path d="M 212.31 96.01 C 215.14 98.16 216.45 101.24 217.04 104.65 C 216.54 106.04 216.07 107.44 215.58 108.83 C 213.44 106.38 212.97 104.36 212.74 101.14 C 212.61 99.43 212.43 97.73 212.31 96.01 Z" fill="#aa9883" />
<path d="M 65.99 97.06 C 71.17 99.90 70.84 105.21 74.90 109.15 C 75.84 110.22 76.84 111.24 77.88 112.22 C 79.63 114.43 80.55 111.58 82.85 114.12 C 85.94 116.64 89.69 114.63 92.98 117.30 C 93.30 117.77 93.61 118.25 93.92 118.72 C 96.05 127.24 88.98 123.58 85.94 128.81 C 87.38 122.43 79.71 122.60 77.64 126.92 C 75.61 124.70 73.34 122.87 71.03 120.93 C 72.41 121.18 73.81 121.40 75.20 121.57 C 72.19 118.34 68.59 115.84 65.84 112.29 C 67.69 107.23 67.69 110.33 70.75 112.11 C 67.73 106.94 69.12 102.23 65.99 97.06 Z" fill="#6c513e" />
<path d="M 140.25 98.15 C 141.75 100.53 142.18 100.73 145.05 101.02 C 146.18 101.36 147.30 101.73 148.43 102.11 C 151.27 107.43 147.14 112.69 147.94 119.03 C 147.49 123.32 152.44 124.74 154.99 127.21 C 153.85 128.74 152.63 130.18 151.28 131.52 C 142.79 126.42 148.19 115.53 144.95 107.94 C 144.58 105.19 141.93 103.56 140.04 101.81 C 138.20 100.63 137.19 95.83 140.25 98.15 Z" fill="#6c5642" />
<path d="M 156.18 98.01 C 158.29 99.50 159.52 101.56 160.59 103.85 C 159.19 107.71 166.87 109.36 162.12 112.10 C 160.37 110.30 158.74 108.35 157.24 106.35 C 157.78 103.49 156.64 100.96 156.18 98.01 Z" fill="#8d7a6c" />
<path d="M 224.82 97.92 C 225.77 103.42 220.87 110.87 230.14 110.34 C 225.69 112.18 224.26 111.93 221.85 116.93 C 218.00 120.07 219.54 118.55 219.69 114.97 C 217.78 117.13 216.58 119.63 215.11 122.15 L 214.75 121.37 C 216.37 117.42 217.34 113.31 218.35 109.18 C 218.90 107.14 219.05 105.07 219.16 102.96 L 219.90 102.87 C 220.42 104.22 220.94 105.58 221.50 106.91 C 223.03 104.03 223.25 100.80 224.82 97.92 Z" fill="#d1ae7f" />
<path d="M 211.91 99.70 L 212.74 101.14 C 212.97 104.36 213.44 106.38 215.58 108.83 C 216.07 107.44 216.54 106.04 217.04 104.65 C 217.48 106.16 217.94 107.66 218.35 109.18 C 217.34 113.31 216.37 117.42 214.75 121.37 C 210.64 119.51 217.62 115.95 213.21 114.11 C 210.56 118.04 208.89 122.70 206.60 126.86 C 205.82 126.09 205.25 125.18 204.66 124.26 C 205.60 122.33 207.95 119.53 207.69 117.37 C 206.21 116.80 204.66 116.37 203.14 115.93 C 203.73 113.10 204.00 110.41 205.72 107.98 C 205.70 109.39 205.61 110.80 205.58 112.21 C 208.58 108.84 209.41 103.55 211.91 99.70 Z" fill="#d0c5b8" />
<path d="M 140.04 101.81 C 141.93 103.56 144.58 105.19 144.95 107.94 C 144.62 109.58 139.42 112.93 142.91 113.36 C 141.60 114.77 140.28 116.16 138.95 117.54 C 136.91 119.09 137.24 120.49 135.06 118.08 C 135.65 117.06 136.24 116.04 136.79 114.99 C 132.50 115.88 129.20 116.81 125.88 119.84 C 125.01 115.86 125.49 115.02 127.69 111.75 C 128.72 112.44 129.75 113.18 130.85 113.77 C 133.99 109.82 136.61 105.55 140.04 101.81 Z" fill="#ddc091" />
<path d="M 59.33 108.23 C 60.93 111.78 62.35 111.87 65.84 112.29 C 68.59 115.84 72.19 118.34 75.20 121.57 C 73.81 121.40 72.41 121.18 71.03 120.93 C 67.09 119.26 63.58 121.39 59.71 119.23 C 58.15 118.65 56.54 116.90 54.87 117.72 L 54.14 117.90 C 52.36 116.95 46.75 115.76 49.89 112.94 C 53.47 110.33 54.62 107.98 54.39 103.54 C 56.76 103.09 57.98 106.79 59.33 108.23 Z" fill="#d1aa77" />
<path d="M 130.20 103.10 C 129.70 105.42 125.41 112.02 122.70 110.05 C 124.94 107.43 127.25 104.94 130.20 103.10 Z" fill="#707144" />
<path d="M 154.72 102.98 C 155.54 104.12 156.38 105.24 157.24 106.35 C 158.74 108.35 160.37 110.30 162.12 112.10 C 166.87 109.36 159.19 107.71 160.59 103.85 C 162.31 105.85 164.19 107.70 166.15 109.46 C 170.44 113.64 176.14 117.54 182.04 118.83 C 188.14 118.46 189.19 123.88 188.35 128.68 C 185.34 131.54 184.03 134.94 182.87 138.82 C 178.18 142.76 184.34 132.53 180.03 134.05 C 177.22 133.69 178.41 135.37 177.85 137.30 C 175.24 136.39 175.68 133.30 173.04 133.51 C 171.28 133.48 170.26 133.66 168.89 132.34 C 170.63 130.58 172.39 128.96 173.94 127.01 C 169.97 124.34 168.06 119.71 163.93 117.51 C 160.31 113.29 156.68 108.93 153.80 104.16 L 154.72 102.98 Z" fill="#5d4a3a" />
<path d="M 27.32 106.95 C 29.46 108.13 32.79 109.08 33.05 111.91 C 34.03 117.39 38.62 121.18 40.05 126.67 C 32.97 122.71 40.89 130.45 41.52 132.79 C 42.57 139.43 33.84 134.12 31.57 132.45 C 22.86 127.51 24.50 118.60 26.23 110.27 C 26.57 109.15 26.93 108.05 27.32 106.95 Z" fill="#ceae83" />
<path d="M 144.95 107.94 C 148.19 115.53 142.79 126.42 151.28 131.52 C 148.15 136.60 146.02 142.09 144.00 147.67 C 151.66 143.78 143.68 151.78 142.71 153.24 C 142.62 155.36 143.57 157.07 142.61 158.85 C 141.07 158.48 139.53 158.12 137.99 157.80 C 137.43 154.73 137.42 154.28 139.30 151.81 C 136.99 148.71 138.69 145.95 134.57 144.31 C 131.02 138.93 137.51 143.00 135.75 137.31 C 134.84 135.21 131.68 137.10 129.96 137.08 L 128.16 137.14 C 127.76 136.18 127.37 135.21 126.99 134.24 C 131.27 134.19 132.57 129.41 135.10 126.50 C 129.02 127.56 135.15 125.33 134.17 122.61 C 134.07 121.70 133.96 120.79 133.85 119.89 C 134.25 119.29 134.66 118.68 135.06 118.08 C 137.24 120.49 136.91 119.09 138.95 117.54 C 140.60 118.56 146.08 113.66 142.91 113.36 C 139.42 112.93 144.62 109.58 144.95 107.94 Z" fill="#d6ac74" />
<path d="M 234.89 112.08 C 234.56 117.67 233.33 123.39 232.00 128.83 C 229.29 128.05 226.31 128.20 223.70 127.23 C 224.67 125.16 225.61 123.11 226.98 121.26 C 231.30 119.52 231.13 112.31 234.89 112.08 Z" fill="#c89e68" />
<path d="M 142.91 113.36 C 146.08 113.66 140.60 118.56 138.95 117.54 C 140.28 116.16 141.60 114.77 142.91 113.36 Z" fill="#7a572d" />
<path d="M 99.34 114.72 C 98.15 116.63 96.48 117.99 94.67 119.27 L 93.92 118.72 C 93.61 118.25 93.30 117.77 92.98 117.30 C 95.30 116.81 97.04 115.09 99.34 114.72 Z" fill="#d6ae7f" />
<path d="M 213.21 114.11 C 217.62 115.95 210.64 119.51 214.75 121.37 L 215.11 122.15 C 213.16 126.95 212.62 129.51 206.89 130.41 C 204.74 128.72 203.72 126.58 202.89 124.05 L 204.66 124.26 C 205.25 125.18 205.82 126.09 206.60 126.86 C 208.89 122.70 210.56 118.04 213.21 114.11 Z" fill="#ab9d8d" />
<path d="M 136.79 114.99 C 136.24 116.04 135.65 117.06 135.06 118.08 C 134.66 118.68 134.25 119.29 133.85 119.89 C 131.08 123.53 127.58 126.51 125.03 130.29 C 123.80 130.28 119.68 132.17 121.54 129.44 C 124.06 126.24 124.95 123.79 125.88 119.84 C 129.20 116.81 132.50 115.88 136.79 114.99 Z" fill="#ead5b3" />
<path d="M 219.69 114.97 C 219.54 118.55 218.00 120.07 221.85 116.93 C 223.24 120.38 222.92 120.97 226.98 121.26 C 225.61 123.11 224.67 125.16 223.70 127.23 C 222.36 126.22 221.24 125.00 219.93 123.94 C 216.82 124.93 219.36 130.08 215.96 129.96 C 213.14 130.04 208.89 133.20 206.89 130.41 C 212.62 129.51 213.16 126.95 215.11 122.15 C 216.58 119.63 217.78 117.13 219.69 114.97 Z" fill="#eed7b1" />
<path d="M 203.14 115.93 C 204.66 116.37 206.21 116.80 207.69 117.37 C 207.95 119.53 205.60 122.33 204.66 124.26 L 202.89 124.05 C 201.08 120.69 202.08 119.31 203.14 115.93 Z" fill="#61574a" />
<path d="M 195.05 117.79 C 196.39 119.46 197.65 121.17 198.83 122.95 C 200.56 126.65 203.41 128.43 200.08 132.29 C 197.64 129.74 198.34 125.20 196.49 122.04 C 195.68 123.25 195.07 124.55 194.39 125.83 C 192.84 124.06 192.50 121.25 191.87 119.03 C 193.11 117.82 193.28 117.49 195.05 117.79 Z" fill="#68563f" />
<path d="M 54.13 120.29 C 57.20 121.61 60.14 123.08 62.76 125.18 C 61.72 128.75 56.72 128.70 57.68 131.60 C 56.29 131.62 52.96 129.25 52.91 131.62 C 51.35 130.58 52.86 124.94 52.67 123.01 C 48.45 123.47 50.64 127.23 50.72 129.96 C 49.41 128.55 48.18 127.04 46.94 125.56 C 46.42 123.59 45.75 121.69 44.96 119.81 C 46.58 116.56 51.59 119.82 54.13 120.29 Z" fill="#bf9967" />
<path d="M 54.14 117.90 L 54.87 117.72 C 58.35 120.48 61.36 122.69 65.65 124.05 C 65.26 124.99 64.80 125.89 64.43 126.84 C 63.06 130.45 65.35 132.79 67.66 135.17 C 69.64 137.11 70.08 138.31 73.06 137.18 C 73.81 137.45 74.56 137.72 75.31 138.00 C 74.80 140.66 73.76 143.05 73.80 145.85 L 72.93 145.55 C 71.63 144.66 70.36 143.73 69.02 142.93 C 66.43 141.46 63.50 140.88 60.98 139.22 C 62.66 139.33 64.33 139.54 66.00 139.68 C 62.82 136.43 57.99 133.76 53.80 132.00 L 52.91 131.62 C 52.96 129.25 56.29 131.62 57.68 131.60 C 56.72 128.70 61.72 128.75 62.76 125.18 C 60.14 123.08 57.20 121.61 54.13 120.29 C 54.15 119.49 54.15 118.70 54.14 117.90 Z" fill="#e8d1ac" />
<path d="M 113.58 119.01 C 112.88 123.71 111.14 126.05 106.05 124.72 C 104.89 119.59 109.09 116.49 113.58 119.01 Z" fill="#d94a46" />
<path d="M 160.44 117.98 C 162.53 119.89 161.85 123.65 162.84 126.26 C 163.23 131.32 160.84 136.71 158.32 141.00 C 158.09 139.35 157.93 137.69 157.72 136.03 C 155.31 142.86 150.78 148.35 148.14 154.99 C 146.31 154.48 144.51 153.85 142.71 153.24 C 143.68 151.78 151.66 143.78 144.00 147.67 C 146.02 142.09 148.15 136.60 151.28 131.52 C 152.63 130.18 153.85 128.74 154.99 127.21 C 155.93 128.41 156.72 129.74 157.61 130.98 C 156.54 125.93 161.70 123.44 160.44 117.98 Z" fill="#927f6c" />
<path d="M 163.93 117.51 C 168.06 119.71 169.97 124.34 173.94 127.01 C 172.39 128.96 170.63 130.58 168.89 132.34 C 165.55 136.04 170.13 138.01 166.15 140.99 C 169.51 139.88 172.45 138.28 175.98 138.03 C 173.46 141.97 167.41 143.86 163.08 144.91 C 165.16 138.40 168.56 130.19 167.70 123.36 C 164.21 119.19 168.57 128.96 162.84 126.26 C 162.92 123.23 162.75 120.37 163.93 117.51 Z" fill="#817569" />
<path d="M 44.96 119.81 C 45.49 121.81 45.37 123.29 44.23 125.03 C 43.80 123.09 43.29 121.34 44.96 119.81 Z" fill="#b0a194" />
<path d="M 44.96 119.81 C 45.75 121.69 46.42 123.59 46.94 125.56 C 44.96 129.50 47.31 135.23 48.96 139.01 C 51.48 143.66 47.90 149.83 53.01 153.34 C 55.87 151.44 58.74 156.94 61.85 157.57 C 66.25 160.20 65.53 165.29 70.91 165.17 C 72.23 168.02 72.79 171.03 73.65 174.02 C 73.98 171.63 74.22 169.23 74.65 166.85 C 75.55 168.89 76.00 170.78 76.17 173.00 C 75.14 175.48 73.60 178.96 76.90 180.44 C 77.70 185.65 74.07 179.74 72.13 179.16 C 71.03 179.81 69.99 180.55 68.93 181.25 C 69.67 176.79 67.53 172.97 62.57 174.44 C 59.05 172.42 58.15 169.18 56.31 165.84 C 55.74 163.44 54.93 162.38 53.15 160.76 C 52.13 159.55 51.19 158.29 50.30 156.98 C 49.86 154.66 49.32 152.36 48.77 150.07 C 49.38 148.13 49.52 146.67 48.35 144.92 C 48.17 141.19 46.01 139.55 43.82 136.91 C 44.27 134.43 44.62 132.30 43.24 130.03 C 43.52 128.35 43.88 126.70 44.23 125.03 C 45.37 123.29 45.49 121.81 44.96 119.81 Z" fill="#473627" />
<path d="M 133.85 119.89 C 133.96 120.79 134.07 121.70 134.17 122.61 C 130.93 125.38 128.80 128.39 125.03 130.29 C 127.58 126.51 131.08 123.53 133.85 119.89 Z" fill="#5a452a" />
<path d="M 202.89 124.05 C 203.72 126.58 204.74 128.72 206.89 130.41 C 208.89 133.20 213.14 130.04 215.96 129.96 C 219.36 130.08 216.82 124.93 219.93 123.94 C 221.24 125.00 222.36 126.22 223.70 127.23 C 226.31 128.20 229.29 128.05 232.00 128.83 C 231.82 129.47 231.63 130.10 231.43 130.73 C 227.90 130.77 224.60 131.57 221.13 132.08 C 216.68 132.61 212.28 134.19 208.06 135.66 C 205.56 134.80 201.75 134.49 200.08 132.29 C 203.41 128.43 200.56 126.65 198.83 122.95 C 198.70 119.23 201.56 123.39 202.89 124.05 Z" fill="#dbb875" />
<path d="M 167.70 123.36 C 168.56 130.19 165.16 138.40 163.08 144.91 C 167.41 143.86 173.46 141.97 175.98 138.03 C 172.45 138.28 169.51 139.88 166.15 140.99 C 170.13 138.01 165.55 136.04 168.89 132.34 C 170.26 133.66 171.28 133.48 173.04 133.51 C 175.68 133.30 175.24 136.39 177.85 137.30 C 178.25 141.42 174.52 142.01 171.69 143.71 C 167.60 145.93 163.85 147.36 159.32 148.45 C 156.99 153.51 164.93 147.78 166.96 148.01 C 172.93 151.73 161.19 148.54 165.94 154.11 C 160.98 163.18 156.05 170.82 149.36 178.70 C 146.74 179.08 144.84 181.37 142.29 182.17 C 142.12 180.73 144.06 177.42 141.21 178.84 C 140.95 174.29 137.24 183.86 135.01 183.97 C 135.84 179.72 140.62 175.38 140.72 171.25 C 138.42 168.31 139.31 166.56 140.06 163.26 C 144.54 163.58 145.71 158.02 148.14 154.99 C 150.78 148.35 155.31 142.86 157.72 136.03 C 157.93 137.69 158.09 139.35 158.32 141.00 C 160.84 136.71 163.23 131.32 162.84 126.26 C 168.57 128.96 164.21 119.19 167.70 123.36 Z" fill="#655b4f" />
<path d="M 52.67 123.01 C 52.86 124.94 51.35 130.58 52.91 131.62 L 53.80 132.00 C 55.98 134.21 56.75 135.52 56.93 138.62 C 54.97 137.74 53.39 136.70 51.11 137.10 C 50.91 139.46 51.44 143.75 53.84 144.90 C 55.03 142.62 53.78 141.30 53.13 139.13 C 58.31 141.10 63.33 144.90 69.02 142.93 C 70.36 143.73 71.63 144.66 72.93 145.55 C 71.29 149.77 71.91 156.61 73.32 160.94 C 69.03 165.94 66.24 156.62 61.85 157.57 C 58.74 156.94 55.87 151.44 53.01 153.34 C 47.90 149.83 51.48 143.66 48.96 139.01 C 47.31 135.23 44.96 129.50 46.94 125.56 C 48.18 127.04 49.41 128.55 50.72 129.96 C 50.64 127.23 48.45 123.47 52.67 123.01 Z" fill="#a57c4a" />
<path d="M 134.17 122.61 C 135.15 125.33 129.02 127.56 135.10 126.50 C 132.57 129.41 131.27 134.19 126.99 134.24 C 126.08 133.81 125.16 133.38 124.24 132.97 C 124.48 132.07 124.74 131.18 125.03 130.29 C 128.80 128.39 130.93 125.38 134.17 122.61 Z" fill="#eed9b4" />
<path d="M 85.94 128.81 C 81.77 130.69 80.46 130.55 77.64 126.92 C 79.71 122.60 87.38 122.43 85.94 128.81 Z" fill="#e14946" />
<path d="M 64.43 126.84 C 66.51 128.48 67.49 130.67 68.78 132.90 C 68.40 133.65 68.03 134.41 67.66 135.17 C 65.35 132.79 63.06 130.45 64.43 126.84 Z" fill="#71624f" />
<path d="M 102.74 128.98 C 101.55 131.30 100.07 133.14 99.96 135.87 C 104.50 134.95 103.41 130.96 106.86 129.02 C 108.22 132.66 109.04 133.70 106.21 136.87 C 109.20 135.68 116.15 134.84 116.59 139.33 C 116.78 142.55 119.34 146.06 115.13 147.33 C 112.81 145.40 109.68 141.91 106.33 143.26 C 104.82 144.22 104.62 147.23 104.05 148.86 C 101.76 150.02 101.41 150.14 99.13 148.91 C 95.34 144.14 91.25 149.65 92.01 154.06 C 91.91 156.11 91.81 158.17 91.72 160.22 C 89.92 156.46 92.20 147.89 85.78 150.62 L 85.93 149.29 C 87.03 146.91 88.32 146.13 90.50 144.90 C 89.90 143.07 87.15 141.06 89.54 139.58 C 92.48 137.50 88.37 138.28 86.99 137.40 C 89.30 136.66 91.43 137.74 92.06 134.86 C 94.05 135.65 96.05 136.34 98.16 136.70 C 97.41 135.13 96.15 134.09 95.01 132.82 C 97.21 130.75 99.84 129.68 102.74 128.98 Z" fill="#77624d" />
<path d="M 188.35 128.68 C 190.50 133.27 191.81 138.25 189.31 143.00 C 190.90 143.62 192.79 143.00 194.32 143.65 C 195.15 146.52 195.40 149.40 196.82 152.10 C 198.09 154.70 199.02 157.83 200.90 160.04 C 207.34 154.52 214.80 153.85 222.92 153.11 C 220.46 160.52 203.28 160.65 197.98 164.09 C 195.71 161.59 193.58 159.00 191.15 156.65 C 190.08 154.21 189.04 151.68 187.65 149.41 C 182.47 150.06 178.47 148.73 177.21 155.10 C 177.00 159.04 175.10 156.85 172.37 157.03 C 173.11 155.25 174.26 154.00 173.52 151.98 C 170.94 147.64 177.13 146.92 180.15 146.46 C 182.25 142.28 187.05 140.47 187.79 135.90 C 186.06 136.74 184.50 137.82 182.87 138.82 C 184.03 134.94 185.34 131.54 188.35 128.68 Z" fill="#ddbc6c" />
<path d="M 43.24 130.03 C 44.62 132.30 44.27 134.43 43.82 136.91 C 42.04 135.09 42.84 132.23 43.24 130.03 Z" fill="#a8a09b" />
<path d="M 231.43 130.73 L 231.20 131.48 C 226.55 134.42 225.19 142.47 225.16 147.67 C 214.97 148.93 226.39 139.62 219.12 137.65 C 219.85 135.82 220.49 133.95 221.13 132.08 C 224.60 131.57 227.90 130.77 231.43 130.73 Z" fill="#c79f63" />
<path d="M 53.80 132.00 C 57.99 133.76 62.82 136.43 66.00 139.68 C 64.33 139.54 62.66 139.33 60.98 139.22 C 63.50 140.88 66.43 141.46 69.02 142.93 C 63.33 144.90 58.31 141.10 53.13 139.13 C 53.78 141.30 55.03 142.62 53.84 144.90 C 51.44 143.75 50.91 139.46 51.11 137.10 C 53.39 136.70 54.97 137.74 56.93 138.62 C 56.75 135.52 55.98 134.21 53.80 132.00 Z" fill="#d5af7d" />
<path d="M 83.88 132.29 C 86.91 135.24 88.57 134.01 92.06 134.86 C 91.43 137.74 89.30 136.66 86.99 137.40 C 88.37 138.28 92.48 137.50 89.54 139.58 C 87.15 141.06 89.90 143.07 90.50 144.90 C 88.32 146.13 87.03 146.91 85.93 149.29 C 85.94 143.22 82.17 144.32 80.31 148.83 C 77.32 147.25 78.36 150.22 77.22 152.05 C 77.08 150.39 77.04 148.73 77.04 147.07 C 84.48 147.74 71.30 143.88 77.28 140.98 C 79.90 138.43 82.37 138.42 85.79 137.84 C 84.10 135.81 82.66 135.12 83.88 132.29 Z" fill="#62503c" />
<path d="M 221.13 132.08 C 220.49 133.95 219.85 135.82 219.12 137.65 C 216.75 140.70 214.86 144.12 212.32 147.01 C 212.42 145.66 212.57 144.32 212.67 142.97 C 209.70 145.30 210.18 151.52 206.23 146.41 C 204.59 143.93 201.75 145.96 199.31 145.82 C 198.91 143.94 198.59 142.03 198.42 140.12 C 201.46 138.35 204.87 137.15 208.06 135.66 C 212.28 134.19 216.68 132.61 221.13 132.08 Z" fill="#dbc493" />
<path d="M 231.20 131.48 C 235.73 137.31 228.70 138.67 233.01 144.10 C 231.94 148.26 230.17 152.31 228.29 156.18 C 228.09 152.45 228.34 150.11 225.16 147.67 C 225.19 142.47 226.55 134.42 231.20 131.48 Z" fill="#edd9b6" />
<path d="M 68.78 132.90 C 70.20 134.34 71.67 135.71 73.06 137.18 C 70.08 138.31 69.64 137.11 67.66 135.17 C 68.03 134.41 68.40 133.65 68.78 132.90 Z" fill="#aa9a83" />
<path d="M 124.24 132.97 C 125.16 133.38 126.08 133.81 126.99 134.24 C 127.37 135.21 127.76 136.18 128.16 137.14 C 127.19 138.15 126.21 139.16 125.24 140.17 L 124.33 139.09 C 123.56 136.77 123.53 135.38 124.24 132.97 Z" fill="#917553" />
<path d="M 180.03 134.05 C 184.34 132.53 178.18 142.76 182.87 138.82 C 184.50 137.82 186.06 136.74 187.79 135.90 C 187.05 140.47 182.25 142.28 180.15 146.46 C 177.13 146.92 170.94 147.64 173.52 151.98 C 172.34 152.67 171.14 153.34 169.93 153.99 C 169.01 154.33 168.09 154.68 167.17 155.02 L 165.94 154.11 C 161.19 148.54 172.93 151.73 166.96 148.01 C 164.93 147.78 156.99 153.51 159.32 148.45 C 163.85 147.36 167.60 145.93 171.69 143.71 C 174.52 142.01 178.25 141.42 177.85 137.30 C 178.41 135.37 177.22 133.69 180.03 134.05 Z" fill="#9f845f" />
<path d="M 25.14 135.03 C 27.82 135.60 27.07 139.27 30.16 139.73 C 33.91 140.46 36.22 142.54 38.91 145.06 C 36.76 148.16 34.40 150.25 31.16 152.17 C 27.70 146.38 25.15 142.07 25.14 135.03 Z" fill="#ccac83" />
<path d="M 135.75 137.31 C 137.51 143.00 131.02 138.93 134.57 144.31 C 138.69 145.95 136.99 148.71 139.30 151.81 C 137.42 154.28 137.43 154.73 137.99 157.80 C 132.26 157.84 132.04 158.21 135.92 162.16 C 136.61 162.54 137.31 162.90 138.02 163.25 L 138.00 164.08 C 132.98 165.98 131.34 169.07 126.15 166.02 C 125.89 164.31 125.56 162.63 125.04 160.99 C 125.60 160.77 126.15 160.56 126.71 160.35 C 130.44 161.39 127.18 151.29 130.94 155.71 C 131.01 149.34 131.50 143.32 129.96 137.08 C 131.68 137.10 134.84 135.21 135.75 137.31 Z" fill="#a47a46" />
<path d="M 128.16 137.14 L 129.96 137.08 C 131.50 143.32 131.01 149.34 130.94 155.71 C 127.18 151.29 130.44 161.39 126.71 160.35 L 126.64 159.40 C 127.00 156.41 127.28 153.66 126.23 150.76 C 126.00 147.11 126.24 143.73 125.24 140.17 C 126.21 139.16 127.19 138.15 128.16 137.14 Z" fill="#4f391e" />
<path d="M 75.31 138.00 C 77.12 138.36 76.75 139.54 77.28 140.98 C 71.30 143.88 84.48 147.74 77.04 147.07 C 75.96 146.65 74.89 146.25 73.80 145.85 C 73.76 143.05 74.80 140.66 75.31 138.00 Z" fill="#97876f" />
<path d="M 124.33 139.09 L 125.24 140.17 C 126.24 143.73 126.00 147.11 126.23 150.76 C 125.96 153.71 125.93 156.51 126.64 159.40 L 126.71 160.35 C 126.15 160.56 125.60 160.77 125.04 160.99 C 124.35 159.14 123.99 157.23 123.72 155.28 C 124.41 150.98 123.65 150.02 120.96 146.97 C 119.03 143.61 117.82 135.33 124.33 139.09 Z" fill="#ebd323" />
<path d="M 219.12 137.65 C 226.39 139.62 214.97 148.93 225.16 147.67 C 228.34 150.11 228.09 152.45 228.29 156.18 C 224.74 164.89 222.19 173.05 217.22 181.13 C 216.97 175.62 217.17 177.57 213.21 178.99 C 214.07 177.62 214.99 176.29 215.79 174.88 C 211.88 176.68 209.58 180.56 205.38 182.12 C 209.53 175.94 199.03 178.10 200.37 182.63 C 201.43 185.28 197.20 182.43 196.09 182.63 C 189.03 183.21 193.76 179.36 193.62 175.19 C 192.78 173.63 190.56 174.79 189.09 174.68 C 190.09 172.22 191.06 172.79 193.29 172.23 C 194.54 170.76 194.76 168.37 195.23 166.54 C 197.25 168.51 199.36 166.25 197.98 164.09 C 203.28 160.65 220.46 160.52 222.92 153.11 C 214.80 153.85 207.34 154.52 200.90 160.04 C 199.02 157.83 198.09 154.70 196.82 152.10 C 199.87 150.31 200.41 150.37 203.64 151.49 C 204.17 149.37 204.56 147.94 206.23 146.41 C 210.18 151.52 209.70 145.30 212.67 142.97 C 212.57 144.32 212.42 145.66 212.32 147.01 C 214.86 144.12 216.75 140.70 219.12 137.65 Z" fill="#99ac5b" />
<path d="M 235.86 137.96 C 236.01 140.84 235.17 143.44 234.42 146.18 C 233.95 145.48 233.48 144.79 233.01 144.10 C 233.75 141.93 234.49 139.82 235.86 137.96 Z" fill="#7b736d" />
<path d="M 38.91 149.46 C 34.60 153.96 34.06 161.51 29.19 165.05 C 29.84 166.45 30.63 167.78 31.33 169.15 C 29.85 173.55 29.08 178.76 26.36 182.46 C 24.88 181.82 22.78 182.94 22.58 180.90 C 23.69 176.56 28.57 173.47 27.99 169.03 C 27.47 163.12 30.60 158.07 31.16 152.17 C 34.40 150.25 36.76 148.16 38.91 145.06 C 42.91 140.11 39.15 147.46 38.91 149.46 Z" fill="#68523e" />
<path d="M 106.33 143.26 C 109.68 141.91 112.81 145.40 115.13 147.33 L 115.35 148.81 C 114.90 157.44 114.78 166.35 114.93 174.98 C 110.76 172.63 113.50 167.52 110.18 165.70 C 109.47 159.26 110.17 152.84 104.05 148.86 C 104.62 147.23 104.82 144.22 106.33 143.26 Z" fill="#eccd1f" />
<path d="M 233.01 144.10 C 233.48 144.79 233.95 145.48 234.42 146.18 C 233.49 151.92 231.69 157.26 231.06 163.03 C 229.75 170.41 227.82 175.71 230.63 183.20 C 231.03 185.42 231.52 187.61 231.86 189.83 C 229.17 190.41 226.94 188.99 226.64 192.65 C 225.54 195.79 227.50 192.64 228.44 191.98 C 231.22 192.99 228.66 194.35 228.09 196.05 C 225.72 199.93 224.68 203.37 225.09 207.97 C 224.65 209.91 224.34 211.50 226.03 212.94 C 227.15 215.35 225.37 215.96 224.05 217.65 C 221.71 219.09 219.56 220.54 218.04 222.89 C 220.90 221.75 222.16 220.89 225.26 222.17 L 225.09 222.89 C 221.90 225.43 218.55 227.74 215.31 230.20 C 215.83 230.81 216.38 231.41 216.94 231.99 C 214.16 233.52 209.60 229.42 206.47 231.54 C 200.06 235.15 195.21 235.69 189.05 230.97 C 186.51 229.17 183.51 230.05 180.75 230.73 C 177.12 230.20 171.37 232.45 169.26 228.75 C 165.43 223.36 161.38 217.19 160.12 210.60 C 162.60 212.80 164.31 215.16 167.03 216.92 C 166.36 215.00 159.48 205.15 165.68 209.65 C 167.36 211.80 172.16 217.70 175.07 214.82 C 175.73 214.48 176.40 214.13 177.06 213.79 C 180.29 214.06 179.79 217.04 183.09 217.30 C 180.97 218.39 178.91 219.48 177.02 220.95 C 180.92 220.53 184.30 218.33 188.22 217.75 C 192.31 217.56 195.14 216.36 198.56 219.47 C 200.91 221.94 203.76 219.33 205.86 217.89 C 208.67 215.53 212.54 214.27 214.85 211.46 C 211.13 210.69 213.18 210.54 213.88 207.99 C 213.98 200.63 214.71 193.38 215.05 186.04 C 215.91 184.46 216.62 182.83 217.22 181.13 C 222.19 173.05 224.74 164.89 228.29 156.18 C 230.17 152.31 231.94 148.26 233.01 144.10 Z" fill="#413328" />
<path d="M 48.35 144.92 C 49.52 146.67 49.38 148.13 48.77 150.07 C 47.37 148.36 47.61 146.86 48.35 144.92 Z" fill="#b3a598" />
<path d="M 85.93 149.29 L 85.78 150.62 C 85.11 151.43 84.46 152.25 83.83 153.09 C 82.00 155.15 82.53 157.77 83.78 159.98 C 83.96 162.67 84.05 165.37 84.08 168.06 C 84.02 170.96 84.00 173.86 83.79 176.76 C 81.02 179.30 82.04 182.44 82.27 185.78 C 82.40 186.80 82.53 187.82 82.65 188.84 C 81.71 189.62 80.79 190.44 79.89 191.28 C 76.80 188.96 78.28 183.76 78.04 180.32 C 79.41 178.04 80.27 175.58 81.17 173.09 C 82.99 168.69 81.69 164.44 80.95 160.00 C 80.20 156.61 81.73 153.67 79.93 150.43 L 80.31 148.83 C 82.17 144.32 85.94 143.22 85.93 149.29 Z" fill="#e9cd2e" />
<path d="M 72.93 145.55 L 73.80 145.85 C 74.89 146.25 75.96 146.65 77.04 147.07 C 77.04 148.73 77.08 150.39 77.22 152.05 C 78.36 150.22 77.32 147.25 80.31 148.83 L 79.93 150.43 C 77.14 157.47 82.21 165.40 81.17 173.09 C 80.27 175.58 79.41 178.04 78.04 180.32 L 76.90 180.44 C 76.29 175.77 79.77 172.10 77.23 166.91 C 76.14 164.79 74.81 162.81 73.32 160.94 C 71.91 156.61 71.29 149.77 72.93 145.55 Z" fill="#48341b" />
<path d="M 99.13 148.91 C 96.33 152.00 96.98 155.31 96.81 159.16 C 95.85 156.49 96.02 153.91 95.80 151.13 C 94.50 152.04 93.25 153.06 92.01 154.06 C 91.25 149.65 95.34 144.14 99.13 148.91 Z" fill="#c5a538" />
<path d="M 120.96 146.97 C 123.65 150.02 124.41 150.98 123.72 155.28 C 121.72 152.81 121.51 149.97 120.96 146.97 Z" fill="#8b7416" />
<path d="M 99.13 148.91 C 101.41 150.14 101.76 150.02 104.05 148.86 C 110.17 152.84 109.47 159.26 110.18 165.70 C 110.20 167.22 110.25 168.74 110.31 170.27 C 107.81 170.11 104.86 163.99 103.38 168.13 C 101.86 169.16 100.36 170.12 99.07 168.18 L 98.26 166.84 C 98.08 164.16 97.70 161.70 96.81 159.16 C 96.98 155.31 96.33 152.00 99.13 148.91 Z" fill="#453321" />
<path d="M 115.35 148.81 C 116.56 153.96 115.84 159.72 115.98 165.03 C 115.96 167.14 115.94 169.16 116.70 171.16 C 117.97 174.98 120.10 177.96 119.91 182.18 C 118.43 179.64 116.89 177.17 114.93 174.98 C 114.78 166.35 114.90 157.44 115.35 148.81 Z" fill="#ad8d15" />
<path d="M 187.65 149.41 C 189.04 151.68 190.08 154.21 191.15 156.65 C 189.51 161.72 187.81 157.39 183.65 158.78 C 183.86 150.66 177.37 157.37 178.05 160.96 C 180.09 164.82 179.00 167.96 176.26 171.00 C 175.98 166.43 175.79 168.19 172.36 167.04 C 173.38 162.63 179.69 159.68 172.01 157.70 L 172.37 157.03 C 175.10 156.85 177.00 159.04 177.21 155.10 C 178.47 148.73 182.47 150.06 187.65 149.41 Z" fill="#b5a05c" />
<path d="M 38.91 149.46 C 41.99 154.37 35.84 158.97 37.02 165.01 C 36.06 163.63 36.18 161.12 34.19 161.07 C 34.89 165.73 34.82 166.04 31.33 169.15 C 30.63 167.78 29.84 166.45 29.19 165.05 C 34.06 161.51 34.60 153.96 38.91 149.46 Z" fill="#dabe98" />
<path d="M 91.72 160.22 C 91.94 161.42 92.15 162.61 92.37 163.81 C 92.09 164.46 91.80 165.11 91.51 165.76 C 87.46 164.70 87.77 169.56 86.28 172.02 C 85.51 170.01 87.11 163.35 84.08 168.06 C 84.05 165.37 83.96 162.67 83.78 159.98 C 84.29 157.52 84.29 155.55 83.83 153.09 C 84.46 152.25 85.11 151.43 85.78 150.62 C 92.20 147.89 89.92 156.46 91.72 160.22 Z" fill="#463524" />
<path d="M 79.93 150.43 C 81.73 153.67 80.20 156.61 80.95 160.00 C 81.69 164.44 82.99 168.69 81.17 173.09 C 82.21 165.40 77.14 157.47 79.93 150.43 Z" fill="#bfa327" />
<path d="M 95.80 151.13 C 96.02 153.91 95.85 156.49 96.81 159.16 C 97.70 161.70 98.08 164.16 98.26 166.84 C 97.66 171.60 94.09 175.40 94.00 180.04 C 93.70 188.08 94.64 196.35 93.43 204.30 C 92.92 204.85 92.41 205.40 91.89 205.94 L 90.13 205.77 C 89.34 203.89 88.54 202.02 87.80 200.13 C 88.39 197.53 88.88 194.95 89.16 192.30 C 89.44 191.26 89.67 190.22 89.86 189.16 C 89.16 186.11 88.84 185.22 89.74 182.15 C 89.94 179.14 90.17 177.39 92.12 175.03 C 94.68 172.38 92.66 167.09 92.37 163.81 C 92.15 162.61 91.94 161.42 91.72 160.22 C 91.81 158.17 91.91 156.11 92.01 154.06 C 93.25 153.06 94.50 152.04 95.80 151.13 Z" fill="#f1ce25" />
<path d="M 126.23 150.76 C 127.28 153.66 127.00 156.41 126.64 159.40 C 125.93 156.51 125.96 153.71 126.23 150.76 Z" fill="#9f8728" />
<path d="M 173.52 151.98 C 174.26 154.00 173.11 155.25 172.37 157.03 L 172.01 157.70 C 169.95 159.53 169.90 160.02 167.20 158.86 C 167.89 157.11 168.88 155.55 169.93 153.99 C 171.14 153.34 172.34 152.67 173.52 151.98 Z" fill="#f0d5b0" />
<path d="M 83.83 153.09 C 84.29 155.55 84.29 157.52 83.78 159.98 C 82.53 157.77 82.00 155.15 83.83 153.09 Z" fill="#897904" />
<path d="M 142.71 153.24 C 144.51 153.85 146.31 154.48 148.14 154.99 C 145.71 158.02 144.54 163.58 140.06 163.26 L 138.02 163.25 C 137.31 162.90 136.61 162.54 135.92 162.16 C 139.40 161.64 142.10 163.38 142.61 158.85 C 143.57 157.07 142.62 155.36 142.71 153.24 Z" fill="#c6bbad" />
<path d="M 165.94 154.11 L 167.17 155.02 C 166.44 156.91 165.67 158.79 164.91 160.66 C 162.28 165.19 159.31 169.52 156.65 174.03 C 154.81 176.19 153.05 178.17 151.90 180.80 C 153.27 180.49 156.58 176.34 155.93 179.94 C 154.94 182.65 153.74 185.27 152.62 187.94 C 151.71 189.85 152.12 191.65 152.41 193.65 C 153.45 198.54 149.57 202.07 151.84 207.11 C 151.62 208.49 146.67 215.90 150.77 212.82 C 152.88 211.07 151.04 215.06 151.25 215.97 C 153.64 213.11 155.90 210.28 158.95 208.06 C 159.44 208.38 159.75 208.94 159.86 209.72 C 155.66 214.04 159.30 223.26 154.12 225.19 C 151.58 224.83 149.33 224.38 146.82 225.19 C 146.42 222.85 145.25 222.72 143.14 222.94 C 141.16 219.18 137.60 214.23 138.71 209.84 C 139.33 207.33 137.98 206.15 136.92 204.13 C 136.95 201.74 137.10 199.67 135.90 197.49 C 137.05 193.63 136.26 189.42 140.46 187.56 C 144.60 185.73 147.25 182.60 149.36 178.70 C 156.05 170.82 160.98 163.18 165.94 154.11 Z" fill="#423226" />
<path d="M 169.93 153.99 C 168.88 155.55 167.89 157.11 167.20 158.86 C 169.90 160.02 169.95 159.53 172.01 157.70 C 179.69 159.68 173.38 162.63 172.36 167.04 C 175.79 168.19 175.98 166.43 176.26 171.00 C 174.68 171.86 172.89 172.30 171.27 173.09 C 172.42 180.34 178.53 185.20 182.19 191.74 C 186.03 188.62 187.19 188.49 191.96 188.10 C 197.29 186.99 208.21 181.28 212.20 187.01 C 209.40 189.64 206.97 189.82 203.33 189.58 C 198.31 191.20 193.49 193.64 188.65 195.74 C 186.37 196.52 184.71 197.87 182.20 197.41 C 178.45 194.54 176.72 190.58 174.25 186.72 C 172.33 183.89 170.40 180.12 167.42 178.33 C 165.54 180.37 164.60 181.08 161.86 181.63 C 161.14 185.59 156.55 185.76 154.01 190.21 C 153.52 189.47 153.06 188.71 152.62 187.94 C 153.74 185.27 154.94 182.65 155.93 179.94 C 155.96 183.52 159.73 181.41 159.59 179.27 C 158.51 178.86 157.01 179.67 155.93 179.94 C 156.58 176.34 153.27 180.49 151.90 180.80 C 153.05 178.17 154.81 176.19 156.65 174.03 C 157.81 174.35 160.57 176.46 161.55 175.53 C 164.08 171.12 166.89 166.77 168.82 162.05 C 165.62 163.74 166.56 164.11 164.91 160.66 C 165.67 158.79 166.44 156.91 167.17 155.02 C 168.09 154.68 169.01 154.33 169.93 153.99 Z" fill="#d9bb6d" />
<path d="M 183.65 158.78 C 187.81 157.39 189.51 161.72 191.15 156.65 C 193.58 159.00 195.71 161.59 197.98 164.09 C 199.36 166.25 197.25 168.51 195.23 166.54 C 194.76 168.37 194.54 170.76 193.29 172.23 C 191.06 172.79 190.09 172.22 189.09 174.68 C 190.56 174.79 192.78 173.63 193.62 175.19 C 193.76 179.36 189.03 183.21 196.09 182.63 C 194.07 184.35 194.28 183.83 195.58 185.90 C 193.57 186.52 190.11 184.75 191.96 188.10 C 187.19 188.49 186.03 188.62 182.19 191.74 C 178.53 185.20 172.42 180.34 171.27 173.09 C 172.89 172.30 174.68 171.86 176.26 171.00 C 179.00 167.96 180.09 164.82 178.05 160.96 C 177.37 157.37 183.86 150.66 183.65 158.78 Z" fill="#8d9e51" />
<path d="M 50.30 156.98 C 51.19 158.29 52.13 159.55 53.15 160.76 C 51.68 161.46 50.17 162.16 48.78 162.98 C 51.28 165.20 52.76 166.29 56.31 165.84 C 58.15 169.18 59.05 172.42 62.57 174.44 C 65.44 176.43 66.43 173.97 65.40 178.82 C 63.07 179.68 63.12 186.29 61.10 183.99 C 59.93 179.06 57.76 186.45 60.85 188.09 C 65.10 193.87 70.92 196.80 77.03 200.19 C 79.41 201.36 81.81 202.44 84.14 203.71 C 82.36 204.05 80.59 204.44 78.83 204.90 C 78.16 204.60 77.49 204.31 76.81 204.01 C 75.51 203.27 74.21 202.51 72.94 201.72 L 72.15 200.68 C 71.70 199.95 71.09 199.43 70.34 199.13 C 66.61 197.28 65.48 196.01 61.92 199.08 C 59.28 193.51 55.21 197.38 52.18 200.01 C 51.83 197.06 51.96 194.11 52.37 191.17 C 54.09 185.98 51.84 183.13 53.93 178.11 C 52.01 172.09 45.99 184.15 47.40 177.37 C 48.75 172.79 37.66 177.20 39.56 172.45 C 41.31 169.64 39.32 168.79 37.98 166.43 C 40.35 165.49 40.74 163.86 41.92 161.85 C 44.57 160.00 47.80 159.21 50.30 156.98 Z" fill="#d8b78b" />
<path d="M 73.32 160.94 C 74.81 162.81 76.14 164.79 77.23 166.91 C 77.10 169.03 77.08 171.04 76.17 173.00 C 76.00 170.78 75.55 168.89 74.65 166.85 C 74.36 165.52 71.97 165.42 70.91 165.17 C 65.53 165.29 66.25 160.20 61.85 157.57 C 66.24 156.62 69.03 165.94 73.32 160.94 Z" fill="#d4b185" />
<path d="M 137.99 157.80 C 139.53 158.12 141.07 158.48 142.61 158.85 C 142.10 163.38 139.40 161.64 135.92 162.16 C 132.04 158.21 132.26 157.84 137.99 157.80 Z" fill="#f4eddd" />
<path d="M 119.43 159.03 C 121.20 161.69 121.53 168.26 126.15 166.02 C 126.17 167.00 126.21 167.99 126.27 168.97 C 126.70 170.31 126.24 174.82 124.69 171.38 C 122.98 166.87 120.63 169.60 117.11 167.41 C 116.94 168.66 116.80 169.90 116.70 171.16 C 115.94 169.16 115.96 167.14 115.98 165.03 C 118.96 163.21 118.92 162.56 119.43 159.03 Z" fill="#6f522e" />
<path d="M 34.19 161.07 C 36.18 161.12 36.06 163.63 37.02 165.01 L 37.98 166.43 C 39.32 168.79 41.31 169.64 39.56 172.45 C 37.66 177.20 48.75 172.79 47.40 177.37 C 45.99 184.15 52.01 172.09 53.93 178.11 C 51.84 183.13 54.09 185.98 52.37 191.17 C 52.05 189.14 51.66 187.14 50.84 185.24 C 45.03 186.56 45.83 190.14 43.05 194.27 C 42.28 192.86 41.75 191.36 41.10 189.90 C 39.78 186.94 35.00 184.99 32.03 184.02 C 33.47 186.41 35.69 187.39 37.96 188.81 C 35.53 194.25 36.57 197.76 30.87 200.57 C 29.02 202.22 35.36 205.57 31.16 204.55 C 27.14 203.09 26.03 215.67 22.00 213.15 C 22.01 207.71 22.05 202.28 21.84 196.84 C 24.67 191.20 20.50 186.54 22.58 180.90 C 22.78 182.94 24.88 181.82 26.36 182.46 C 29.08 178.76 29.85 173.55 31.33 169.15 C 34.82 166.04 34.89 165.73 34.19 161.07 Z" fill="#c59d65" />
<path d="M 53.15 160.76 C 54.93 162.38 55.74 163.44 56.31 165.84 C 52.76 166.29 51.28 165.20 48.78 162.98 C 50.17 162.16 51.68 161.46 53.15 160.76 Z" fill="#eee4d5" />
<path d="M 146.30 161.30 C 150.18 159.92 145.94 165.11 145.07 165.98 C 145.21 164.48 144.55 162.01 146.30 161.30 Z" fill="#cbc6bf" />
<path d="M 164.91 160.66 C 166.56 164.11 165.62 163.74 168.82 162.05 C 166.89 166.77 164.08 171.12 161.55 175.53 C 160.57 176.46 157.81 174.35 156.65 174.03 C 159.31 169.52 162.28 165.19 164.91 160.66 Z" fill="#edddc4" />
<path d="M 138.02 163.25 L 140.06 163.26 C 139.31 166.56 138.42 168.31 140.72 171.25 C 140.62 175.38 135.84 179.72 135.01 183.97 C 137.24 183.86 140.95 174.29 141.21 178.84 C 140.81 179.90 140.40 180.95 139.98 182.00 C 138.96 183.29 137.97 184.61 137.03 185.96 C 134.04 190.54 129.18 192.84 125.95 197.07 C 121.67 200.57 117.23 201.14 111.99 201.96 C 110.33 201.62 109.09 201.54 107.95 202.99 C 103.89 203.13 100.00 202.30 95.99 201.88 L 96.16 201.09 C 97.50 194.49 103.49 197.25 104.85 192.74 L 105.70 192.62 C 113.52 195.16 121.44 191.50 127.17 186.29 C 129.58 183.69 131.85 180.83 134.03 178.04 C 134.44 177.45 134.78 176.82 135.05 176.13 C 136.65 172.12 138.43 168.56 138.00 164.08 L 138.02 163.25 Z" fill="#413226" />
<path d="M 217.31 163.29 C 219.73 162.64 223.24 162.51 223.03 165.99 C 222.46 170.51 218.58 171.85 214.63 170.39 C 210.61 169.47 215.27 163.91 217.31 163.29 Z" fill="#6e813f" />
<path d="M 231.06 163.03 C 232.11 164.85 235.47 164.66 235.84 166.21 C 235.06 172.39 230.39 176.63 230.63 183.20 C 227.82 175.71 229.75 170.41 231.06 163.03 Z" fill="#acb78a" />
<path d="M 92.37 163.81 C 92.66 167.09 94.68 172.38 92.12 175.03 C 92.11 171.92 91.89 168.84 91.51 165.76 C 91.80 165.11 92.09 164.46 92.37 163.81 Z" fill="#9e7b10" />
<path d="M 138.00 164.08 C 138.43 168.56 136.65 172.12 135.05 176.13 C 132.90 172.42 129.13 171.83 126.27 168.97 C 126.21 167.99 126.17 167.00 126.15 166.02 C 131.34 169.07 132.98 165.98 138.00 164.08 Z" fill="#c79e6a" />
<path d="M 70.91 165.17 C 71.97 165.42 74.36 165.52 74.65 166.85 C 74.22 169.23 73.98 171.63 73.65 174.02 C 72.79 171.03 72.23 168.02 70.91 165.17 Z" fill="#83623f" />
<path d="M 91.51 165.76 C 91.89 168.84 92.11 171.92 92.12 175.03 C 90.17 177.39 89.94 179.14 89.74 182.15 C 88.99 177.72 87.47 178.20 83.79 176.76 C 84.00 173.86 84.02 170.96 84.08 168.06 C 87.11 163.35 85.51 170.01 86.28 172.02 C 87.77 169.56 87.46 164.70 91.51 165.76 Z" fill="#c6a16b" />
<path d="M 110.31 170.27 C 111.54 172.84 112.63 175.48 113.79 178.08 C 113.79 181.64 115.27 182.82 111.67 185.18 C 107.48 184.14 104.07 186.42 101.17 182.81 C 99.34 180.90 99.21 181.21 100.58 178.93 C 95.01 178.88 96.22 178.93 95.97 184.02 C 95.99 187.86 94.32 190.33 97.98 192.97 C 94.63 192.68 96.49 199.08 96.16 201.09 L 95.99 201.88 C 95.14 202.70 94.29 203.50 93.43 204.30 C 94.64 196.35 93.70 188.08 94.00 180.04 C 97.95 176.11 99.09 174.24 99.07 168.18 C 100.36 170.12 101.86 169.16 103.38 168.13 C 104.86 163.99 107.81 170.11 110.31 170.27 Z" fill="#9c743f" />
<path d="M 110.18 165.70 C 113.50 167.52 110.76 172.63 114.93 174.98 C 116.89 177.17 118.43 179.64 119.91 182.18 L 119.99 183.07 C 116.66 182.90 115.95 180.16 113.79 178.08 C 112.63 175.48 111.54 172.84 110.31 170.27 C 110.25 168.74 110.20 167.22 110.18 165.70 Z" fill="#eac754" />
<path d="M 77.23 166.91 C 79.77 172.10 76.29 175.77 76.90 180.44 C 73.60 178.96 75.14 175.48 76.17 173.00 C 77.08 171.04 77.10 169.03 77.23 166.91 Z" fill="#836947" />
<path d="M 98.26 166.84 L 99.07 168.18 C 99.09 174.24 97.95 176.11 94.00 180.04 C 94.09 175.40 97.66 171.60 98.26 166.84 Z" fill="#c9a642" />
<path d="M 117.11 167.41 C 120.63 169.60 122.98 166.87 124.69 171.38 C 126.24 174.82 126.70 170.31 126.27 168.97 C 129.13 171.83 132.90 172.42 135.05 176.13 C 134.78 176.82 134.44 177.45 134.03 178.04 C 130.80 177.12 127.81 177.90 124.73 176.28 C 124.43 178.70 122.73 177.12 121.01 177.32 C 121.67 180.82 125.05 183.49 127.17 186.29 C 121.44 191.50 113.52 195.16 105.70 192.62 C 110.12 191.88 114.23 192.13 118.23 189.73 C 120.84 188.97 123.21 187.93 125.17 185.99 C 123.90 183.66 122.32 183.53 119.99 183.07 L 119.91 182.18 C 120.10 177.96 117.97 174.98 116.70 171.16 C 116.80 169.90 116.94 168.66 117.11 167.41 Z" fill="#957142" />
<path d="M 62.57 174.44 C 67.53 172.97 69.67 176.79 68.93 181.25 C 67.79 180.39 66.61 179.58 65.40 178.82 C 66.43 173.97 65.44 176.43 62.57 174.44 Z" fill="#8e765c" />
<path d="M 215.79 174.88 C 214.99 176.29 214.07 177.62 213.21 178.99 C 217.17 177.57 216.97 175.62 217.22 181.13 C 216.62 182.83 215.91 184.46 215.05 186.04 C 213.32 187.90 213.46 189.19 213.38 191.56 C 211.47 193.01 209.82 195.94 207.40 193.72 C 202.78 197.99 201.14 202.79 194.23 203.64 C 191.39 201.88 192.76 200.29 192.71 197.57 C 190.89 197.32 190.02 197.04 188.65 195.74 C 193.49 193.64 198.31 191.20 203.33 189.58 C 206.97 189.82 209.40 189.64 212.20 187.01 C 208.21 181.28 197.29 186.99 191.96 188.10 C 190.11 184.75 193.57 186.52 195.58 185.90 C 194.28 183.83 194.07 184.35 196.09 182.63 C 197.20 182.43 201.43 185.28 200.37 182.63 C 199.03 178.10 209.53 175.94 205.38 182.12 C 209.58 180.56 211.88 176.68 215.79 174.88 Z" fill="#a7ba63" />
<path d="M 124.73 176.28 C 127.81 177.90 130.80 177.12 134.03 178.04 C 131.85 180.83 129.58 183.69 127.17 186.29 C 125.05 183.49 121.67 180.82 121.01 177.32 C 122.73 177.12 124.43 178.70 124.73 176.28 Z" fill="#be9764" />
<path d="M 83.79 176.76 C 87.47 178.20 88.99 177.72 89.74 182.15 C 88.84 185.22 89.16 186.11 89.86 189.16 C 87.02 188.66 84.67 187.29 82.27 185.78 C 82.04 182.44 81.02 179.30 83.79 176.76 Z" fill="#ebd2a8" />
<path d="M 113.79 178.08 C 115.95 180.16 116.66 182.90 119.99 183.07 C 122.32 183.53 123.90 183.66 125.17 185.99 C 123.21 187.93 120.84 188.97 118.23 189.73 C 113.25 189.19 110.06 192.14 105.25 189.15 C 105.04 190.10 104.86 191.06 104.71 192.02 C 103.76 189.47 104.53 186.45 101.21 185.93 C 99.46 185.28 97.70 184.68 95.97 184.02 C 96.22 178.93 95.01 178.88 100.58 178.93 C 99.21 181.21 99.34 180.90 101.17 182.81 C 104.07 186.42 107.48 184.14 111.67 185.18 C 115.27 182.82 113.79 181.64 113.79 178.08 Z" fill="#c79d66" />
<path d="M 142.29 182.17 C 141.63 182.44 140.86 182.38 139.98 182.00 C 140.40 180.95 140.81 179.90 141.21 178.84 C 144.06 177.42 142.12 180.73 142.29 182.17 Z" fill="#b9b2ac" />
<path d="M 167.42 178.33 C 170.40 180.12 172.33 183.89 174.25 186.72 C 171.66 185.40 168.92 184.49 166.03 184.14 C 168.37 189.31 166.65 196.66 171.09 200.08 C 174.47 200.73 173.20 194.53 175.78 197.20 C 174.35 203.45 179.95 200.35 183.56 203.07 C 190.10 199.43 198.44 210.70 203.25 205.14 C 207.84 205.58 207.59 207.59 206.79 211.31 C 204.29 214.73 202.56 216.53 198.60 213.41 C 191.34 207.51 184.58 210.47 177.06 213.79 C 176.40 214.13 175.73 214.48 175.07 214.82 C 171.34 213.94 169.09 210.54 165.68 209.65 C 159.48 205.15 166.36 215.00 167.03 216.92 C 164.31 215.16 162.60 212.80 160.12 210.60 L 159.86 209.72 C 159.75 208.94 159.44 208.38 158.95 208.06 C 155.81 206.06 153.99 209.81 151.84 207.11 C 149.57 202.07 153.45 198.54 152.41 193.65 C 152.12 191.65 151.71 189.85 152.62 187.94 C 153.06 188.71 153.52 189.47 154.01 190.21 C 156.55 185.76 161.14 185.59 161.86 181.63 C 164.60 181.08 165.54 180.37 167.42 178.33 Z" fill="#9f753f" />
<path d="M 65.40 178.82 C 66.61 179.58 67.79 180.39 68.93 181.25 C 70.50 182.80 73.50 188.08 75.88 185.48 C 75.55 187.59 77.39 198.15 79.89 191.28 C 80.79 190.44 81.71 189.62 82.65 188.84 C 84.41 191.16 86.42 191.73 89.16 192.30 C 88.88 194.95 88.39 197.53 87.80 200.13 C 83.00 198.49 81.73 198.59 77.03 200.19 C 70.92 196.80 65.10 193.87 60.85 188.09 C 60.93 186.72 61.02 185.35 61.10 183.99 C 63.12 186.29 63.07 179.68 65.40 178.82 Z" fill="#4b3a29" />
<path d="M 72.13 179.16 C 74.07 179.74 77.70 185.65 76.90 180.44 L 78.04 180.32 C 78.28 183.76 76.80 188.96 79.89 191.28 C 77.39 198.15 75.55 187.59 75.88 185.48 C 73.50 188.08 70.50 182.80 68.93 181.25 C 69.99 180.55 71.03 179.81 72.13 179.16 Z" fill="#896d3e" />
<path d="M 159.59 179.27 C 159.73 181.41 155.96 183.52 155.93 179.94 C 157.01 179.67 158.51 178.86 159.59 179.27 Z" fill="#9b773c" />
<path d="M 182.31 180.25 C 183.65 180.08 190.04 180.65 186.75 182.76 C 184.92 185.68 178.31 183.12 182.31 180.25 Z" fill="#647436" />
<path d="M 61.10 183.99 C 61.02 185.35 60.93 186.72 60.85 188.09 C 57.76 186.45 59.93 179.06 61.10 183.99 Z" fill="#937756" />
<path d="M 32.03 184.02 C 35.00 184.99 39.78 186.94 41.10 189.90 C 40.05 189.55 39.00 189.18 37.96 188.81 C 35.69 187.39 33.47 186.41 32.03 184.02 Z" fill="#f2ca78" />
<path d="M 95.97 184.02 C 97.70 184.68 99.46 185.28 101.21 185.93 C 100.83 188.30 101.41 192.83 97.98 192.97 C 94.32 190.33 95.99 187.86 95.97 184.02 Z" fill="#e0c097" />
<path d="M 166.03 184.14 C 168.92 184.49 171.66 185.40 174.25 186.72 C 176.72 190.58 178.45 194.54 182.20 197.41 C 179.33 198.23 178.32 199.57 175.78 197.20 C 173.20 194.53 174.47 200.73 171.09 200.08 C 166.65 196.66 168.37 189.31 166.03 184.14 Z" fill="#92944b" />
<path d="M 50.84 185.24 C 51.66 187.14 52.05 189.14 52.37 191.17 C 51.96 194.11 51.83 197.06 52.18 200.01 C 55.21 197.38 59.28 193.51 61.92 199.08 C 59.56 204.22 54.88 207.06 52.07 211.93 C 45.15 207.87 37.88 204.48 30.87 200.57 C 36.57 197.76 35.53 194.25 37.96 188.81 C 39.00 189.18 40.05 189.55 41.10 189.90 C 41.75 191.36 42.28 192.86 43.05 194.27 C 45.83 190.14 45.03 186.56 50.84 185.24 Z" fill="#af8247" />
<path d="M 82.27 185.78 C 84.67 187.29 87.02 188.66 89.86 189.16 C 89.67 190.22 89.44 191.26 89.16 192.30 C 86.42 191.73 84.41 191.16 82.65 188.84 C 82.53 187.82 82.40 186.80 82.27 185.78 Z" fill="#81683e" />
<path d="M 101.21 185.93 C 104.53 186.45 103.76 189.47 104.71 192.02 L 104.85 192.74 C 103.49 197.25 97.50 194.49 96.16 201.09 C 96.49 199.08 94.63 192.68 97.98 192.97 C 101.41 192.83 100.83 188.30 101.21 185.93 Z" fill="#614a34" />
<path d="M 137.03 185.96 C 136.83 191.02 130.01 195.02 125.95 197.07 C 129.18 192.84 134.04 190.54 137.03 185.96 Z" fill="#aaa39e" />
<path d="M 215.05 186.04 C 214.71 193.38 213.98 200.63 213.88 207.99 C 212.56 207.95 211.24 207.90 209.92 207.85 C 213.53 204.61 215.17 199.60 209.05 198.17 C 207.28 199.34 197.40 203.34 203.25 205.14 C 198.44 210.70 190.10 199.43 183.56 203.07 C 179.95 200.35 174.35 203.45 175.78 197.20 C 178.32 199.57 179.33 198.23 182.20 197.41 C 184.71 197.87 186.37 196.52 188.65 195.74 C 190.02 197.04 190.89 197.32 192.71 197.57 C 192.76 200.29 191.39 201.88 194.23 203.64 C 201.14 202.79 202.78 197.99 207.40 193.72 C 209.82 195.94 211.47 193.01 213.38 191.56 C 213.46 189.19 213.32 187.90 215.05 186.04 Z" fill="#a9a05a" />
<path d="M 105.25 189.15 C 110.06 192.14 113.25 189.19 118.23 189.73 C 114.23 192.13 110.12 191.88 105.70 192.62 L 104.85 192.74 L 104.71 192.02 C 104.86 191.06 105.04 190.10 105.25 189.15 Z" fill="#e6c69b" />
<path d="M 231.86 189.83 C 231.04 190.88 229.44 191.10 228.44 191.98 C 227.50 192.64 225.54 195.79 226.64 192.65 C 226.94 188.99 229.17 190.41 231.86 189.83 Z" fill="#8c827b" />
<path d="M 21.84 196.84 C 22.05 202.28 22.01 207.71 22.00 213.15 C 21.98 215.20 22.00 217.25 22.03 219.30 C 19.81 212.66 20.08 203.66 21.84 196.84 Z" fill="#d3c3aa" />
<path d="M 70.34 199.13 C 67.62 199.89 64.68 199.51 61.92 199.08 C 65.48 196.01 66.61 197.28 70.34 199.13 Z" fill="#ac824d" />
<path d="M 87.80 200.13 C 88.54 202.02 89.34 203.89 90.13 205.77 C 87.89 205.61 86.15 204.60 84.14 203.71 C 81.81 202.44 79.41 201.36 77.03 200.19 C 81.73 198.59 83.00 198.49 87.80 200.13 Z" fill="#7f6b4b" />
<path d="M 135.90 197.49 C 137.10 199.67 136.95 201.74 136.92 204.13 C 135.77 202.04 135.04 199.83 135.90 197.49 Z" fill="#9c938c" />
<path d="M 209.05 198.17 C 215.17 199.60 213.53 204.61 209.92 207.85 C 208.83 208.95 207.79 210.12 206.79 211.31 C 207.59 207.59 207.84 205.58 203.25 205.14 C 197.40 203.34 207.28 199.34 209.05 198.17 Z" fill="#d2b17e" />
<path d="M 61.92 199.08 C 64.68 199.51 67.62 199.89 70.34 199.13 C 71.09 199.43 71.70 199.95 72.15 200.68 C 67.03 203.98 63.17 208.49 58.66 212.51 C 58.84 216.78 57.59 215.54 54.24 216.26 C 47.83 213.31 41.86 207.87 35.06 205.97 C 30.81 208.89 28.25 215.33 25.32 219.61 C 26.39 219.97 30.95 219.07 29.10 221.20 C 26.96 224.15 30.94 223.01 32.43 224.55 C 27.61 225.90 24.75 222.70 22.03 219.30 C 25.79 214.90 27.53 209.13 31.16 204.55 C 35.36 205.57 29.02 202.22 30.87 200.57 C 37.88 204.48 45.15 207.87 52.07 211.93 C 54.88 207.06 59.56 204.22 61.92 199.08 Z" fill="#e0b86d" />
<path d="M 72.15 200.68 L 72.94 201.72 C 70.23 205.42 69.98 209.32 69.81 213.75 C 68.25 213.72 69.33 207.48 68.76 205.96 C 65.51 208.80 65.21 212.32 64.66 216.33 C 60.02 217.04 56.66 218.30 52.54 220.49 C 48.08 222.96 41.98 220.99 39.01 225.74 C 40.74 226.00 42.48 226.19 44.21 226.35 C 38.10 227.59 37.40 228.75 32.43 224.55 C 30.94 223.01 26.96 224.15 29.10 221.20 C 30.95 219.07 26.39 219.97 25.32 219.61 C 28.25 215.33 30.81 208.89 35.06 205.97 C 41.86 207.87 47.83 213.31 54.24 216.26 C 57.59 215.54 58.84 216.78 58.66 212.51 C 63.17 208.49 67.03 203.98 72.15 200.68 Z" fill="#a87d46" />
<path d="M 72.94 201.72 C 74.21 202.51 75.51 203.27 76.81 204.01 C 75.86 207.33 75.17 210.32 77.55 213.24 C 76.79 219.02 82.98 219.18 81.79 223.71 C 78.23 227.56 70.00 225.70 65.23 225.74 C 59.93 224.52 53.09 224.62 47.76 225.68 C 46.58 225.90 45.40 226.12 44.21 226.35 C 42.48 226.19 40.74 226.00 39.01 225.74 C 41.98 220.99 48.08 222.96 52.54 220.49 C 56.66 218.30 60.02 217.04 64.66 216.33 C 65.21 212.32 65.51 208.80 68.76 205.96 C 69.33 207.48 68.25 213.72 69.81 213.75 C 69.98 209.32 70.23 205.42 72.94 201.72 Z" fill="#6b523d" />
<path d="M 95.99 201.88 C 96.18 203.54 96.63 205.01 96.17 206.65 C 94.76 206.35 93.33 206.13 91.89 205.94 C 92.41 205.40 92.92 204.85 93.43 204.30 C 94.29 203.50 95.14 202.70 95.99 201.88 Z" fill="#503c21" />
<path d="M 111.99 201.96 C 110.86 203.49 109.65 203.38 107.95 202.99 C 109.09 201.54 110.33 201.62 111.99 201.96 Z" fill="#908a86" />
<path d="M 119.84 201.97 C 121.12 203.53 122.37 205.19 123.43 206.89 C 121.63 211.59 120.28 220.52 114.28 221.36 C 114.57 215.22 119.47 210.82 119.91 205.07 C 115.94 203.75 112.28 217.44 111.57 210.11 C 108.38 212.74 108.33 216.64 103.30 215.56 C 100.77 215.94 103.03 214.06 103.26 212.89 C 104.96 211.54 106.52 210.39 107.09 208.17 C 103.55 209.59 101.86 212.18 97.83 210.02 C 98.85 205.13 105.28 209.01 108.13 204.19 C 112.09 206.68 115.90 202.78 119.84 201.97 Z" fill="#a79e8c" />
<path d="M 31.16 204.55 C 27.53 209.13 25.79 214.90 22.03 219.30 C 22.00 217.25 21.98 215.20 22.00 213.15 C 26.03 215.67 27.14 203.09 31.16 204.55 Z" fill="#a2773a" />
<path d="M 76.81 204.01 C 77.49 204.31 78.16 204.60 78.83 204.90 C 78.86 205.88 78.88 206.86 78.89 207.85 C 78.41 209.63 77.96 211.43 77.55 213.24 C 75.17 210.32 75.86 207.33 76.81 204.01 Z" fill="#aa8456" />
<path d="M 84.14 203.71 C 86.15 204.60 87.89 205.61 90.13 205.77 L 91.89 205.94 C 93.33 206.13 94.76 206.35 96.17 206.65 C 95.73 208.09 97.52 209.45 95.02 209.06 C 89.54 210.09 83.19 204.11 78.89 207.85 C 78.88 206.86 78.86 205.88 78.83 204.90 C 80.59 204.44 82.36 204.05 84.14 203.71 Z" fill="#d8cbb5" />
<path d="M 119.91 205.07 C 119.47 210.82 114.57 215.22 114.28 221.36 C 110.13 222.88 105.93 222.92 101.64 223.62 C 96.59 225.15 94.19 220.78 88.92 222.48 C 90.64 218.15 93.24 214.71 97.00 211.95 C 96.30 213.75 95.25 215.32 94.25 216.96 C 97.86 217.16 101.05 211.65 103.26 212.89 C 103.03 214.06 100.77 215.94 103.30 215.56 C 108.33 216.64 108.38 212.74 111.57 210.11 C 112.28 217.44 115.94 203.75 119.91 205.07 Z" fill="#605a4f" />
<path d="M 151.84 207.11 C 153.99 209.81 155.81 206.06 158.95 208.06 C 155.90 210.28 153.64 213.11 151.25 215.97 C 151.04 215.06 152.88 211.07 150.77 212.82 C 146.67 215.90 151.62 208.49 151.84 207.11 Z" fill="#725839" />
<path d="M 107.09 208.17 C 106.52 210.39 104.96 211.54 103.26 212.89 C 101.05 211.65 97.86 217.16 94.25 216.96 C 95.25 215.32 96.30 213.75 97.00 211.95 C 97.28 211.31 97.56 210.67 97.83 210.02 C 101.86 212.18 103.55 209.59 107.09 208.17 Z" fill="#837b6b" />
<path d="M 209.92 207.85 C 211.24 207.90 212.56 207.95 213.88 207.99 C 213.18 210.54 211.13 210.69 214.85 211.46 C 212.54 214.27 208.67 215.53 205.86 217.89 C 203.76 219.33 200.91 221.94 198.56 219.47 C 195.14 216.36 192.31 217.56 188.22 217.75 C 186.48 215.77 185.30 216.92 183.09 217.30 C 179.79 217.04 180.29 214.06 177.06 213.79 C 184.58 210.47 191.34 207.51 198.60 213.41 C 202.56 216.53 204.29 214.73 206.79 211.31 C 207.79 210.12 208.83 208.95 209.92 207.85 Z" fill="#5e4831" />
<path d="M 225.09 207.97 C 226.55 209.47 226.33 211.04 226.03 212.94 C 224.34 211.50 224.65 209.91 225.09 207.97 Z" fill="#a89d98" />
<path d="M 175.07 214.82 C 172.16 217.70 167.36 211.80 165.68 209.65 C 169.09 210.54 171.34 213.94 175.07 214.82 Z" fill="#eee0cf" />
<path d="M 188.22 217.75 C 184.30 218.33 180.92 220.53 177.02 220.95 C 178.91 219.48 180.97 218.39 183.09 217.30 C 185.30 216.92 186.48 215.77 188.22 217.75 Z" fill="#91847a" />
<path d="M 224.05 217.65 C 227.03 219.25 228.01 219.44 225.26 222.17 C 222.16 220.89 220.90 221.75 218.04 222.89 C 219.56 220.54 221.71 219.09 224.05 217.65 Z" fill="#7b6f69" />
<path d="M 143.14 222.94 C 145.25 222.72 146.42 222.85 146.82 225.19 C 145.20 224.93 143.86 224.57 143.14 222.94 Z" fill="#b3aba6" />
<path d="M 225.09 222.89 C 226.86 226.36 219.11 230.06 216.94 231.99 C 216.38 231.41 215.83 230.81 215.31 230.20 C 218.55 227.74 221.90 225.43 225.09 222.89 Z" fill="#bbb5b1" />
<path d="M 154.12 225.19 C 151.68 226.64 149.33 226.02 146.82 225.19 C 149.33 224.38 151.58 224.83 154.12 225.19 Z" fill="#9c9591" />
<path d="M 65.23 225.74 C 59.41 226.12 53.58 226.18 47.76 225.68 C 53.09 224.62 59.93 224.52 65.23 225.74 Z" fill="#8d7b6f" />
<path d="M 189.05 230.97 C 186.28 230.96 183.52 230.92 180.75 230.73 C 183.51 230.05 186.51 229.17 189.05 230.97 Z" fill="#b6afaa" />
</svg>