<?xml version="1.0" encoding="UTF-8" standalone="no"?>
<!DOCTYPE svg PUBLIC "-//W3C//DTD SVG 1.1//EN" "http://www.w3.org/Graphics/SVG/1.1/DTD/svg11.dtd">
<svg xmlns="http://www.w3.org/2000/svg" version="1.1" viewBox="0 0 256 256" width="256.0pt" height="256.0pt">
<path d="M 0.00 0.00 L 256.00 0.00 L 256.00 256.00 L 0.00 256.00 L 0.00 0.00 Z" fill="#fcfcfc" />
<path d="M 115.83 24.32 C 120.72 25.65 128.70 24.94 128.75 31.76 C 124.61 35.70 126.66 39.56 126.11 44.52 C 133.59 40.65 128.69 60.20 124.07 52.59 C 121.17 59.66 122.13 80.13 116.35 89.19 C 111.36 81.13 107.51 69.68 98.89 65.16 C 104.43 73.62 110.50 81.29 114.37 90.79 C 103.89 97.42 98.52 111.79 86.67 117.64 C 83.16 120.41 73.18 120.45 75.14 126.62 C 80.28 127.22 95.27 131.32 85.99 138.31 C 83.06 135.76 81.51 132.25 78.18 130.02 C 77.90 133.88 77.41 137.45 79.23 141.04 C 78.32 147.55 71.30 147.38 66.87 144.24 C 59.50 146.45 52.38 142.38 50.59 134.72 C 50.57 133.37 50.68 132.04 50.80 130.70 C 52.15 131.80 53.51 132.88 54.92 133.90 C 51.82 124.25 53.44 112.50 52.14 102.21 C 56.95 96.92 62.03 91.99 67.94 87.92 C 70.97 86.39 66.65 84.89 65.19 84.67 C 60.67 83.14 58.62 87.44 54.60 87.21 C 55.98 84.10 56.81 80.57 58.74 77.82 C 69.22 70.04 79.25 63.39 91.91 59.53 C 87.89 57.52 83.63 56.29 79.11 56.66 C 87.50 52.61 78.51 55.74 79.76 52.71 C 92.75 48.17 102.49 38.05 117.24 38.51 C 124.61 38.02 117.80 35.97 115.70 33.53 C 117.47 33.10 124.43 34.18 119.06 31.91 C 107.94 30.55 97.52 28.82 87.12 32.12 C 80.50 36.80 67.92 35.31 62.50 42.72 C 61.43 44.79 50.05 54.35 54.62 46.86 C 49.69 49.68 39.36 58.89 40.73 63.66 C 32.35 68.71 27.33 81.54 24.86 90.76 C 29.40 96.86 31.63 100.47 28.24 108.10 C 24.50 118.24 30.84 125.27 28.05 135.02 C 27.76 137.19 28.76 140.03 31.14 140.52 C 37.00 136.85 42.40 145.14 45.35 149.26 C 46.97 153.52 46.67 157.91 47.85 162.19 L 48.07 162.99 C 45.03 165.57 41.71 168.30 38.06 169.98 C 36.26 166.76 33.93 163.30 31.85 168.80 C 30.27 160.73 36.56 154.63 29.65 146.36 C 18.93 134.48 21.30 121.79 20.00 107.00 C 19.16 95.37 18.55 84.83 24.02 74.00 C 30.28 60.94 39.23 50.99 48.58 39.78 C 50.56 36.71 54.80 40.96 58.19 39.38 C 60.95 40.06 63.48 42.16 60.44 38.23 C 60.18 36.43 57.14 35.16 59.36 33.82 C 78.15 27.05 95.38 20.40 115.83 24.32 Z" fill="#eff0f0" />
<path d="M 227.97 29.13 C 222.46 33.75 204.62 36.12 197.12 41.74 C 206.61 44.09 213.26 54.34 219.99 61.00 C 229.53 74.08 235.25 89.46 236.48 105.61 C 238.21 120.27 237.16 134.33 228.98 146.99 C 222.30 158.33 229.49 166.55 225.85 177.73 C 224.02 191.58 230.95 201.91 232.09 215.17 C 232.34 217.60 234.77 220.94 230.39 219.72 C 228.73 215.03 228.07 210.09 226.71 205.35 C 225.96 204.18 223.99 198.58 223.78 203.04 C 220.97 198.28 218.68 195.81 213.68 193.32 C 209.81 191.36 217.20 192.91 213.55 189.12 C 217.40 186.10 221.09 183.07 223.93 179.03 C 216.75 181.04 211.64 187.57 204.38 188.31 C 193.09 187.54 204.29 194.26 208.21 194.61 C 210.67 204.39 217.38 210.13 223.13 217.86 C 215.87 212.04 226.16 226.33 222.36 227.38 C 218.20 226.08 206.19 222.32 205.17 226.35 C 203.20 224.41 203.21 212.94 199.65 214.94 C 197.35 211.60 191.10 198.15 186.99 205.87 C 184.91 201.27 180.95 202.51 177.31 204.29 C 171.79 207.50 165.79 209.29 159.96 211.76 C 168.97 212.25 176.70 213.90 185.03 209.21 C 191.01 211.81 193.34 216.63 196.87 221.65 C 196.61 223.35 196.45 225.13 195.93 226.77 C 188.96 224.02 183.28 219.64 175.64 218.37 C 160.22 216.95 146.33 223.57 132.96 225.86 C 119.11 226.79 105.59 219.64 91.61 218.42 C 80.29 214.53 72.35 219.05 63.18 225.13 C 58.56 227.86 64.40 222.10 61.19 220.66 C 58.33 217.24 65.37 215.69 66.32 211.30 C 69.94 207.07 71.72 204.46 77.50 207.62 C 86.48 213.71 97.03 208.45 105.09 214.95 C 106.83 214.75 108.45 213.55 110.07 212.92 C 117.17 212.65 127.79 224.60 132.69 218.59 C 138.39 219.18 142.18 213.76 148.15 213.70 C 151.00 216.19 160.58 211.55 154.84 209.85 C 164.38 201.38 172.53 192.31 182.09 183.88 C 185.92 187.53 193.74 188.95 198.82 187.55 C 194.77 184.58 192.48 180.69 187.83 178.79 C 191.29 176.76 195.06 175.68 198.25 173.18 C 201.51 172.94 202.34 172.44 204.35 169.92 C 208.87 175.49 198.34 173.55 195.92 176.86 C 205.02 175.54 215.05 174.15 223.93 171.92 C 222.11 169.50 220.09 167.20 218.08 164.93 C 216.12 162.36 208.18 165.09 207.80 161.89 C 207.90 157.14 205.90 153.93 209.28 149.74 L 210.73 149.63 C 216.42 147.26 217.41 142.18 224.71 140.73 C 231.61 136.87 230.51 125.00 227.64 118.88 C 227.34 115.97 226.85 113.16 227.00 110.21 C 229.29 110.01 226.48 117.13 229.81 115.83 C 230.04 110.95 230.60 105.58 229.24 100.84 C 226.38 84.78 216.98 66.20 204.72 55.86 C 197.76 50.25 189.57 45.24 180.81 43.11 C 169.08 38.80 154.97 37.18 142.82 40.37 C 140.60 41.81 138.66 43.74 137.02 45.81 C 148.60 44.25 153.60 50.83 163.62 52.06 C 170.49 52.06 165.51 60.45 174.04 60.93 L 175.12 61.12 C 172.31 63.75 168.18 62.24 164.96 64.60 C 171.79 66.01 177.77 65.65 183.20 70.80 C 187.47 75.53 192.96 76.15 198.90 77.13 C 200.59 81.69 210.15 96.64 198.09 93.12 C 197.02 98.28 203.15 99.29 203.44 104.76 C 206.15 112.81 213.87 113.24 209.42 123.37 C 207.87 125.89 203.61 128.19 206.96 131.01 C 208.71 132.66 204.21 131.99 204.80 134.95 C 204.65 135.61 204.50 136.27 204.35 136.93 C 202.29 141.07 200.95 145.49 195.85 146.53 C 195.39 143.96 201.26 142.58 197.89 140.47 C 193.76 143.55 190.80 143.38 186.11 145.50 C 182.97 143.85 180.43 141.28 177.15 139.78 C 178.24 135.92 178.67 132.90 177.85 128.92 C 180.22 127.92 191.27 121.20 181.09 124.93 C 177.83 120.66 176.16 120.35 171.17 118.84 C 159.66 111.15 152.93 100.56 143.95 90.71 C 147.75 81.98 152.61 74.08 158.90 66.92 C 150.83 70.70 145.66 82.07 140.66 89.11 C 139.05 87.43 139.55 75.29 136.07 79.57 C 133.81 63.48 133.45 47.32 129.53 31.72 C 131.21 28.85 135.84 31.35 138.38 31.51 C 145.41 33.29 152.15 31.49 159.08 32.79 C 172.09 31.44 185.81 36.73 198.61 38.52 C 208.16 34.44 217.87 31.51 227.97 29.13 Z" fill="#eeeeef" />
<path d="M 119.06 31.91 C 124.43 34.18 117.47 33.10 115.70 33.53 C 105.20 36.20 94.17 43.20 84.28 48.24 C 82.22 49.38 80.71 50.47 79.76 52.71 C 78.51 55.74 87.50 52.61 79.11 56.66 C 71.95 59.42 68.06 64.92 62.26 69.30 C 56.88 71.06 58.64 73.11 58.74 77.82 C 56.81 80.57 55.98 84.10 54.60 87.21 C 52.36 92.01 52.05 97.00 52.14 102.21 C 53.44 112.50 51.82 124.25 54.92 133.90 C 53.51 132.88 52.15 131.80 50.80 130.70 C 46.78 119.25 39.82 131.89 38.15 120.84 C 36.81 117.26 43.33 111.46 37.35 110.25 C 34.89 115.27 35.65 125.78 36.12 131.84 C 39.74 136.38 45.39 142.92 45.35 149.26 C 42.40 145.14 37.00 136.85 31.14 140.52 C 28.76 140.03 27.76 137.19 28.05 135.02 C 30.84 125.27 24.50 118.24 28.24 108.10 C 31.63 100.47 29.40 96.86 24.86 90.76 C 27.33 81.54 32.35 68.71 40.73 63.66 C 39.36 58.89 49.69 49.68 54.62 46.86 C 50.05 54.35 61.43 44.79 62.50 42.72 C 67.92 35.31 80.50 36.80 87.12 32.12 C 97.52 28.82 107.94 30.55 119.06 31.91 Z" fill="#2a2c44" />
<path d="M 128.75 31.76 L 129.53 31.72 C 133.45 47.32 133.81 63.48 136.07 79.57 C 139.55 75.29 139.05 87.43 140.66 89.11 C 137.83 98.31 134.99 107.32 134.27 116.99 C 138.69 112.89 136.80 100.10 142.35 93.82 C 142.65 97.72 140.12 101.89 145.87 102.19 C 147.02 106.96 144.91 110.07 144.30 114.38 C 146.84 123.21 140.29 133.20 135.10 140.01 C 140.87 141.39 142.13 133.76 146.18 134.91 C 148.56 143.52 147.04 152.20 149.18 160.56 C 145.33 163.89 145.43 168.35 146.20 172.99 C 141.13 177.62 140.57 184.89 135.84 191.54 C 137.86 191.06 138.45 189.95 140.03 191.91 C 137.46 194.53 134.10 194.47 132.10 198.14 C 131.85 192.80 137.99 187.82 128.33 190.43 C 126.86 190.44 127.12 193.41 125.88 194.10 C 121.31 188.61 118.38 182.79 115.84 176.15 C 114.93 173.23 114.46 176.62 113.42 177.50 C 106.31 180.11 98.47 165.96 101.55 161.02 C 102.51 166.02 103.93 170.50 107.05 174.60 C 108.63 172.95 112.81 171.18 113.03 168.96 C 110.27 161.20 113.49 154.31 112.73 145.94 C 113.54 143.55 111.75 137.05 114.98 136.65 C 117.43 137.89 119.73 139.38 122.12 140.75 C 116.41 134.06 116.16 124.92 110.16 119.23 C 113.18 115.75 113.16 112.71 112.66 108.28 C 116.36 105.50 117.19 104.66 117.39 99.81 C 121.24 104.95 120.64 112.64 123.92 117.05 C 123.33 108.07 119.70 97.55 116.35 89.19 C 122.13 80.13 121.17 59.66 124.07 52.59 C 128.69 60.20 133.59 40.65 126.11 44.52 C 126.66 39.56 124.61 35.70 128.75 31.76 Z" fill="#a1acd8" />
<path d="M 115.70 33.53 C 117.80 35.97 124.61 38.02 117.24 38.51 C 102.49 38.05 92.75 48.17 79.76 52.71 C 80.71 50.47 82.22 49.38 84.28 48.24 C 94.17 43.20 105.20 36.20 115.70 33.53 Z" fill="#c3b8a2" />
<path d="M 49.98 35.05 C 53.70 35.49 56.76 37.21 60.44 38.23 C 63.48 42.16 60.95 40.06 58.19 39.38 C 55.30 38.01 52.53 37.02 49.98 35.05 Z" fill="#6a6a76" />
<path d="M 180.81 43.11 C 179.14 47.90 183.94 45.71 186.65 47.32 C 192.48 50.80 197.87 55.10 203.61 58.74 C 203.85 57.42 203.07 56.32 204.72 55.86 C 216.98 66.20 226.38 84.78 229.24 100.84 C 231.10 109.26 218.56 109.24 222.37 117.67 C 222.97 121.69 224.87 116.67 227.64 118.88 C 230.51 125.00 231.61 136.87 224.71 140.73 C 217.41 142.18 216.42 147.26 210.73 149.63 C 209.73 145.55 214.59 145.47 211.24 141.81 C 212.74 139.45 214.90 138.19 215.10 135.14 C 212.05 139.12 208.59 136.30 204.80 134.95 C 204.21 131.99 208.71 132.66 206.96 131.01 C 203.61 128.19 207.87 125.89 209.42 123.37 C 213.87 113.24 206.15 112.81 203.44 104.76 C 203.15 99.29 197.02 98.28 198.09 93.12 C 210.15 96.64 200.59 81.69 198.90 77.13 C 193.38 68.68 185.91 61.14 175.12 61.12 L 174.04 60.93 C 183.27 57.34 170.18 54.95 168.17 51.02 C 161.21 49.89 158.98 44.46 152.00 44.88 C 149.12 44.40 144.89 42.45 142.82 40.37 C 154.97 37.18 169.08 38.80 180.81 43.11 Z" fill="#292b45" />
<path d="M 142.82 40.37 C 144.89 42.45 149.12 44.40 152.00 44.88 C 158.98 44.46 161.21 49.89 168.17 51.02 C 170.18 54.95 183.27 57.34 174.04 60.93 C 165.51 60.45 170.49 52.06 163.62 52.06 C 153.60 50.83 148.60 44.25 137.02 45.81 C 138.66 43.74 140.60 41.81 142.82 40.37 Z" fill="#afadad" />
<path d="M 180.81 43.11 C 189.57 45.24 197.76 50.25 204.72 55.86 C 203.07 56.32 203.85 57.42 203.61 58.74 C 197.87 55.10 192.48 50.80 186.65 47.32 C 183.94 45.71 179.14 47.90 180.81 43.11 Z" fill="#6d6f81" />
<path d="M 79.11 56.66 C 83.63 56.29 87.89 57.52 91.91 59.53 C 79.25 63.39 69.22 70.04 58.74 77.82 C 58.64 73.11 56.88 71.06 62.26 69.30 C 68.06 64.92 71.95 59.42 79.11 56.66 Z" fill="#c3ad7f" />
<path d="M 129.99 74.83 C 126.15 73.74 127.85 68.86 127.90 66.02 C 127.57 52.70 133.73 73.83 129.99 74.83 Z" fill="#212748" />
<path d="M 175.12 61.12 C 185.91 61.14 193.38 68.68 198.90 77.13 C 192.96 76.15 187.47 75.53 183.20 70.80 C 177.77 65.65 171.79 66.01 164.96 64.60 C 168.18 62.24 172.31 63.75 175.12 61.12 Z" fill="#c5b38b" />
<path d="M 98.89 65.16 C 107.51 69.68 111.36 81.13 116.35 89.19 C 119.70 97.55 123.33 108.07 123.92 117.05 C 120.64 112.64 121.24 104.95 117.39 99.81 C 116.97 96.32 116.15 93.80 114.37 90.79 C 110.50 81.29 104.43 73.62 98.89 65.16 Z" fill="#3b3e56" />
<path d="M 158.90 66.92 C 152.61 74.08 147.75 81.98 143.95 90.71 C 143.42 91.75 142.88 92.78 142.35 93.82 C 136.80 100.10 138.69 112.89 134.27 116.99 C 134.99 107.32 137.83 98.31 140.66 89.11 C 145.66 82.07 150.83 70.70 158.90 66.92 Z" fill="#363952" />
<path d="M 35.97 77.97 C 35.82 80.73 34.55 82.93 33.43 85.37 C 32.41 87.38 31.85 89.66 30.08 91.05 C 29.75 87.09 33.03 80.58 35.97 77.97 Z" fill="#a4a7bd" />
<path d="M 128.39 80.23 C 130.95 79.43 130.50 87.17 131.33 88.81 C 132.60 92.50 134.24 101.93 129.15 102.88 C 124.13 96.46 126.41 87.76 128.39 80.23 Z" fill="#242849" />
<path d="M 65.19 84.67 C 66.65 84.89 70.97 86.39 67.94 87.92 C 62.03 91.99 56.95 96.92 52.14 102.21 C 52.05 97.00 52.36 92.01 54.60 87.21 C 58.62 87.44 60.67 83.14 65.19 84.67 Z" fill="#c6b389" />
<path d="M 114.37 90.79 C 116.15 93.80 116.97 96.32 117.39 99.81 C 117.19 104.66 116.36 105.50 112.66 108.28 C 111.78 104.18 113.62 100.19 112.86 95.99 C 103.78 103.44 99.83 117.28 98.52 128.48 C 97.48 132.74 96.92 136.78 94.26 140.42 C 90.88 141.28 88.68 140.26 85.99 138.31 C 95.27 131.32 80.28 127.22 75.14 126.62 C 73.18 120.45 83.16 120.41 86.67 117.64 C 98.52 111.79 103.89 97.42 114.37 90.79 Z" fill="#bfad89" />
<path d="M 143.95 90.71 C 152.93 100.56 159.66 111.15 171.17 118.84 C 176.16 120.35 177.83 120.66 181.09 124.93 C 191.27 121.20 180.22 127.92 177.85 128.92 C 175.99 132.39 174.95 135.20 171.18 137.07 C 174.05 129.27 167.45 131.47 164.44 135.42 C 159.31 144.78 161.04 129.13 158.53 125.87 C 158.35 120.91 155.68 117.56 156.32 112.32 C 152.05 107.64 150.75 100.17 145.27 97.11 C 145.45 98.80 145.70 100.49 145.87 102.19 C 140.12 101.89 142.65 97.72 142.35 93.82 C 142.88 92.78 143.42 91.75 143.95 90.71 Z" fill="#c2b496" />
<path d="M 112.86 95.99 C 113.62 100.19 111.78 104.18 112.66 108.28 C 113.16 112.71 113.18 115.75 110.16 119.23 C 116.16 124.92 116.41 134.06 122.12 140.75 C 119.73 139.38 117.43 137.89 114.98 136.65 C 107.71 133.36 101.58 127.31 105.95 119.12 C 98.53 117.67 102.64 124.79 98.52 128.48 C 99.83 117.28 103.78 103.44 112.86 95.99 Z" fill="#333653" />
<path d="M 145.27 97.11 C 150.75 100.17 152.05 107.64 156.32 112.32 C 155.68 117.56 158.35 120.91 158.53 125.87 C 155.11 128.72 158.10 118.22 153.37 122.32 C 151.68 127.36 152.85 132.48 146.18 134.91 C 142.13 133.76 140.87 141.39 135.10 140.01 C 140.29 133.20 146.84 123.21 144.30 114.38 C 144.91 110.07 147.02 106.96 145.87 102.19 C 145.70 100.49 145.45 98.80 145.27 97.11 Z" fill="#303350" />
<path d="M 229.24 100.84 C 230.60 105.58 230.04 110.95 229.81 115.83 C 226.48 117.13 229.29 110.01 227.00 110.21 C 226.85 113.16 227.34 115.97 227.64 118.88 C 224.87 116.67 222.97 121.69 222.37 117.67 C 218.56 109.24 231.10 109.26 229.24 100.84 Z" fill="#9799aa" />
<path d="M 37.35 110.25 C 43.33 111.46 36.81 117.26 38.15 120.84 C 39.82 131.89 46.78 119.25 50.80 130.70 C 50.68 132.04 50.57 133.37 50.59 134.72 C 50.49 137.65 51.34 140.19 51.80 143.06 C 47.88 141.21 47.00 135.31 43.04 133.00 C 43.82 138.80 49.44 141.41 50.02 146.99 C 50.09 150.42 54.91 151.95 56.95 154.51 C 57.81 156.11 59.01 156.86 58.06 158.72 C 53.66 167.83 48.68 161.33 48.76 154.32 C 47.24 154.10 48.20 160.78 47.85 162.19 C 46.67 157.91 46.97 153.52 45.35 149.26 C 45.39 142.92 39.74 136.38 36.12 131.84 C 35.65 125.78 34.89 115.27 37.35 110.25 Z" fill="#c7cddf" />
<path d="M 128.76 110.10 C 130.14 115.23 135.39 128.57 129.99 132.14 C 125.83 128.15 125.43 122.95 127.39 117.67 C 127.83 115.27 125.77 111.17 128.76 110.10 Z" fill="#292d4e" />
<path d="M 105.95 119.12 C 101.58 127.31 107.71 133.36 114.98 136.65 C 111.75 137.05 113.54 143.55 112.73 145.94 C 113.49 154.31 110.27 161.20 113.03 168.96 C 112.81 171.18 108.63 172.95 107.05 174.60 C 103.93 170.50 102.51 166.02 101.55 161.02 C 98.47 165.96 106.31 180.11 113.42 177.50 C 114.46 176.62 114.93 173.23 115.84 176.15 C 118.38 182.79 121.31 188.61 125.88 194.10 C 127.12 193.41 126.86 190.44 128.33 190.43 C 127.85 193.03 126.91 195.42 125.91 197.85 C 119.02 194.18 114.59 185.39 106.77 185.02 C 99.74 181.39 103.75 175.06 95.83 175.73 C 88.65 175.76 89.16 168.74 88.06 163.64 C 91.31 161.09 98.67 164.03 96.82 158.28 C 91.65 156.63 90.03 157.80 86.27 161.23 C 76.75 166.20 69.09 156.44 58.06 158.72 C 59.01 156.86 57.81 156.11 56.95 154.51 C 66.17 156.94 73.64 157.30 83.07 155.07 C 85.46 153.93 84.55 152.80 84.44 150.65 C 87.66 151.35 90.56 150.52 93.78 151.99 C 89.75 145.96 100.79 146.28 94.26 140.42 C 96.92 136.78 97.48 132.74 98.52 128.48 C 102.64 124.79 98.53 117.67 105.95 119.12 Z" fill="#7a8abf" />
<path d="M 158.53 125.87 C 161.04 129.13 159.31 144.78 164.44 135.42 C 167.45 131.47 174.05 129.27 171.18 137.07 C 167.39 139.00 164.25 137.93 163.08 143.14 C 160.56 151.40 173.74 149.97 175.84 145.09 C 178.10 144.91 179.01 144.22 180.58 146.34 C 182.86 149.95 186.65 145.98 188.96 148.56 C 185.23 149.94 176.79 150.18 175.00 154.09 C 174.72 159.58 184.09 155.91 182.68 160.64 C 181.66 163.53 187.30 162.20 188.87 163.06 L 189.23 164.67 C 185.08 163.99 181.14 164.09 177.25 162.26 C 171.77 159.49 165.17 163.33 158.98 161.16 C 160.76 163.69 164.41 164.10 167.20 165.08 C 162.96 168.36 160.75 180.10 155.89 183.61 C 148.84 182.53 144.61 187.43 140.03 191.91 C 138.45 189.95 137.86 191.06 135.84 191.54 C 140.57 184.89 141.13 177.62 146.20 172.99 C 145.43 168.35 145.33 163.89 149.18 160.56 C 147.04 152.20 148.56 143.52 146.18 134.91 C 152.85 132.48 151.68 127.36 153.37 122.32 C 158.10 118.22 155.11 128.72 158.53 125.87 Z" fill="#7a8abd" />
<path d="M 177.85 128.92 C 178.67 132.90 178.24 135.92 177.15 139.78 C 176.68 141.54 176.24 143.31 175.84 145.09 C 173.74 149.97 160.56 151.40 163.08 143.14 C 164.25 137.93 167.39 139.00 171.18 137.07 C 174.95 135.20 175.99 132.39 177.85 128.92 Z" fill="#2e3250" />
<path d="M 78.18 130.02 C 81.51 132.25 83.06 135.76 85.99 138.31 C 88.68 140.26 90.88 141.28 94.26 140.42 C 100.79 146.28 89.75 145.96 93.78 151.99 C 90.56 150.52 87.66 151.35 84.44 150.65 C 81.63 147.12 80.31 145.55 79.23 141.04 C 77.41 137.45 77.90 133.88 78.18 130.02 Z" fill="#353a59" />
<path d="M 43.04 133.00 C 47.00 135.31 47.88 141.21 51.80 143.06 C 51.34 140.19 50.49 137.65 50.59 134.72 C 52.38 142.38 59.50 146.45 66.87 144.24 C 71.30 147.38 78.32 147.55 79.23 141.04 C 80.31 145.55 81.63 147.12 84.44 150.65 C 84.55 152.80 85.46 153.93 83.07 155.07 C 73.64 157.30 66.17 156.94 56.95 154.51 C 54.91 151.95 50.09 150.42 50.02 146.99 C 49.44 141.41 43.82 138.80 43.04 133.00 Z" fill="#b9b09e" />
<path d="M 204.80 134.95 C 208.59 136.30 212.05 139.12 215.10 135.14 C 214.90 138.19 212.74 139.45 211.24 141.81 C 214.59 145.47 209.73 145.55 210.73 149.63 L 209.28 149.74 C 205.57 151.53 201.38 163.59 196.22 166.96 C 193.92 164.64 192.24 163.40 188.87 163.06 C 187.30 162.20 181.66 163.53 182.68 160.64 C 184.09 155.91 174.72 159.58 175.00 154.09 C 176.79 150.18 185.23 149.94 188.96 148.56 C 186.65 145.98 182.86 149.95 180.58 146.34 C 179.01 144.22 178.10 144.91 175.84 145.09 C 176.24 143.31 176.68 141.54 177.15 139.78 C 180.43 141.28 182.97 143.85 186.11 145.50 C 190.80 143.38 193.76 143.55 197.89 140.47 C 201.26 142.58 195.39 143.96 195.85 146.53 C 194.51 147.61 193.18 148.66 191.95 149.86 C 197.20 153.59 207.40 139.08 204.35 136.93 C 204.50 136.27 204.65 135.61 204.80 134.95 Z" fill="#c1bec0" />
<path d="M 204.35 136.93 C 207.40 139.08 197.20 153.59 191.95 149.86 C 193.18 148.66 194.51 147.61 195.85 146.53 C 200.95 145.49 202.29 141.07 204.35 136.93 Z" fill="#3c3d4d" />
<path d="M 117.95 146.09 C 120.89 147.43 125.79 151.42 126.12 154.77 C 121.48 154.09 118.14 150.88 117.95 146.09 Z" fill="#282e52" />
<path d="M 136.04 154.06 C 130.39 155.88 129.89 152.72 134.42 149.47 C 138.32 141.53 141.78 151.92 136.04 154.06 Z" fill="#2d3458" />
<path d="M 209.28 149.74 C 205.90 153.93 207.90 157.14 207.80 161.89 C 206.64 164.56 205.37 167.18 204.35 169.92 C 202.34 172.44 201.51 172.94 198.25 173.18 C 195.02 170.56 192.04 167.72 189.23 164.67 L 188.87 163.06 C 192.24 163.40 193.92 164.64 196.22 166.96 C 201.38 163.59 205.57 151.53 209.28 149.74 Z" fill="#272740" />
<path d="M 48.76 154.32 C 48.68 161.33 53.66 167.83 58.06 158.72 C 69.09 156.44 76.75 166.20 86.27 161.23 C 90.03 157.80 91.65 156.63 96.82 158.28 C 98.67 164.03 91.31 161.09 88.06 163.64 C 80.56 167.25 75.85 163.26 68.95 161.16 C 64.94 163.87 61.24 166.86 61.87 172.25 C 59.22 173.25 56.79 170.84 54.33 169.90 C 51.30 168.31 49.79 165.79 48.07 162.99 L 47.85 162.19 C 48.20 160.78 47.24 154.10 48.76 154.32 Z" fill="#282a46" />
<path d="M 114.07 155.06 C 116.99 154.92 120.04 154.87 122.58 156.53 C 123.68 159.90 114.16 159.09 114.07 155.06 Z" fill="#3d4471" />
<path d="M 138.21 155.61 C 139.75 155.92 146.24 155.28 142.73 157.75 C 140.44 160.18 129.76 159.58 138.21 155.61 Z" fill="#242951" />
<path d="M 123.32 160.32 C 130.17 157.56 122.21 172.30 119.73 166.27 C 117.41 163.67 121.11 161.10 123.32 160.32 Z" fill="#3b4473" />
<path d="M 130.01 160.11 C 133.66 160.77 136.40 162.64 137.90 166.11 C 137.68 172.30 129.92 162.54 130.01 160.11 Z" fill="#272d58" />
<path d="M 68.95 161.16 C 75.85 163.26 80.56 167.25 88.06 163.64 C 89.16 168.74 88.65 175.76 95.83 175.73 C 103.75 175.06 99.74 181.39 106.77 185.02 C 114.59 185.39 119.02 194.18 125.91 197.85 C 127.93 200.32 127.96 202.91 128.37 205.93 C 131.99 205.84 131.89 200.69 132.10 198.14 C 134.10 194.47 137.46 194.53 140.03 191.91 C 144.61 187.43 148.84 182.53 155.89 183.61 C 160.75 180.10 162.96 168.36 167.20 165.08 C 170.55 164.15 173.87 163.10 177.25 162.26 C 181.14 164.09 185.08 163.99 189.23 164.67 C 192.04 167.72 195.02 170.56 198.25 173.18 C 195.06 175.68 191.29 176.76 187.83 178.79 C 183.45 177.88 182.39 171.36 176.48 170.67 C 165.41 176.99 162.02 195.15 148.16 197.10 C 149.40 202.39 153.60 199.83 155.91 196.91 C 159.35 192.08 170.25 194.16 167.69 186.65 C 173.54 190.01 180.80 177.88 182.09 183.88 C 172.53 192.31 164.38 201.38 154.84 209.85 C 152.39 209.11 142.59 202.74 142.55 208.40 C 143.06 212.88 144.25 212.68 148.15 213.70 C 142.18 213.76 138.39 219.18 132.69 218.59 C 127.79 224.60 117.17 212.65 110.07 212.92 C 113.09 211.58 114.44 212.14 113.91 208.13 C 109.28 207.40 105.93 210.46 101.26 209.96 C 98.56 203.59 89.20 202.25 87.14 195.94 C 95.69 196.28 82.34 186.92 82.14 183.88 C 81.76 177.99 76.86 174.88 74.93 169.27 C 72.51 170.62 69.78 172.09 68.01 174.25 C 65.75 174.21 63.81 173.31 61.87 172.25 C 61.24 166.86 64.94 163.87 68.95 161.16 Z" fill="#ccba97" />
<path d="M 158.98 161.16 C 165.17 163.33 171.77 159.49 177.25 162.26 C 173.87 163.10 170.55 164.15 167.20 165.08 C 164.41 164.10 160.76 163.69 158.98 161.16 Z" fill="#2a2d4c" />
<path d="M 207.80 161.89 C 208.18 165.09 216.12 162.36 218.08 164.93 C 220.09 167.20 222.11 169.50 223.93 171.92 C 215.05 174.15 205.02 175.54 195.92 176.86 C 198.34 173.55 208.87 175.49 204.35 169.92 C 205.37 167.18 206.64 164.56 207.80 161.89 Z" fill="#cdbf9d" />
<path d="M 48.07 162.99 C 49.79 165.79 51.30 168.31 54.33 169.90 C 52.54 175.10 46.17 172.21 41.98 173.15 C 44.43 174.63 47.64 174.01 50.09 175.86 C 43.19 175.15 34.49 176.92 31.85 168.80 C 33.93 163.30 36.26 166.76 38.06 169.98 C 41.71 168.30 45.03 165.57 48.07 162.99 Z" fill="#cebe99" />
<path d="M 128.28 165.03 C 130.63 166.42 129.73 169.56 130.28 171.94 C 130.82 174.75 132.56 186.17 126.72 180.28 C 125.58 176.10 127.36 169.42 128.28 165.03 Z" fill="#22274c" />
<path d="M 74.93 169.27 C 76.86 174.88 81.76 177.99 82.14 183.88 C 82.34 186.92 95.69 196.28 87.14 195.94 C 77.03 192.60 74.46 188.74 67.91 180.99 C 61.37 185.50 59.88 192.84 50.31 190.61 C 50.00 196.46 45.42 198.58 42.31 203.29 C 36.23 210.98 31.76 221.60 32.39 231.40 C 32.50 236.57 25.56 231.52 27.12 228.07 C 28.78 220.42 30.35 214.50 30.49 206.69 C 33.85 208.03 33.62 205.74 35.14 203.37 C 29.06 207.86 33.08 197.40 36.59 198.28 C 35.77 194.13 38.28 191.64 41.36 189.37 C 43.48 188.09 48.13 190.93 49.10 188.05 C 47.04 185.00 44.19 183.56 42.88 180.16 C 46.44 181.93 50.50 187.19 54.68 186.30 C 60.16 182.18 66.78 182.19 68.01 174.25 C 69.78 172.09 72.51 170.62 74.93 169.27 Z" fill="#313248" />
<path d="M 176.48 170.67 C 182.39 171.36 183.45 177.88 187.83 178.79 C 192.48 180.69 194.77 184.58 198.82 187.55 C 193.74 188.95 185.92 187.53 182.09 183.88 C 180.80 177.88 173.54 190.01 167.69 186.65 C 170.25 194.16 159.35 192.08 155.91 196.91 C 153.60 199.83 149.40 202.39 148.16 197.10 C 162.02 195.15 165.41 176.99 176.48 170.67 Z" fill="#2c2b3e" />
<path d="M 223.93 179.03 C 221.09 183.07 217.40 186.10 213.55 189.12 C 217.20 192.91 209.81 191.36 213.68 193.32 C 218.68 195.81 220.97 198.28 223.78 203.04 C 226.29 212.99 230.97 224.71 228.76 234.96 C 225.25 229.65 224.64 223.85 223.13 217.86 C 217.38 210.13 210.67 204.39 208.21 194.61 C 204.29 194.26 193.09 187.54 204.38 188.31 C 211.64 187.57 216.75 181.04 223.93 179.03 Z" fill="#34344c" />
<path d="M 132.10 198.14 C 131.89 200.69 131.99 205.84 128.37 205.93 C 127.96 202.91 127.93 200.32 125.91 197.85 C 126.91 195.42 127.85 193.03 128.33 190.43 C 137.99 187.82 131.85 192.80 132.10 198.14 Z" fill="#272741" />
<path d="M 99.77 197.44 C 103.00 197.97 114.03 198.76 112.90 203.81 C 106.30 205.52 104.05 201.29 99.77 197.44 Z" fill="#312c33" />
<path d="M 64.20 199.43 C 66.71 199.41 69.24 203.12 71.19 204.57 C 73.43 203.31 76.11 199.29 78.84 200.10 C 86.05 203.20 93.51 208.59 101.26 209.96 C 105.93 210.46 109.28 207.40 113.91 208.13 C 114.44 212.14 113.09 211.58 110.07 212.92 C 108.45 213.55 106.83 214.75 105.09 214.95 C 97.03 208.45 86.48 213.71 77.50 207.62 C 71.72 204.46 69.94 207.07 66.32 211.30 C 65.37 215.69 58.33 217.24 61.19 220.66 C 54.97 224.32 58.12 229.04 54.15 233.07 C 53.62 224.30 57.45 214.85 60.69 206.85 C 61.50 203.59 59.99 200.45 64.20 199.43 Z" fill="#2e2f46" />
<path d="M 186.99 205.87 C 191.10 198.15 197.35 211.60 199.65 214.94 C 200.33 221.09 204.33 226.89 203.89 232.97 C 199.91 232.28 200.14 224.26 196.87 221.65 C 193.34 216.63 191.01 211.81 185.03 209.21 C 176.70 213.90 168.97 212.25 159.96 211.76 C 165.79 209.29 171.79 207.50 177.31 204.29 C 180.95 202.51 184.91 201.27 186.99 205.87 Z" fill="#2a2b44" />
<path d="M 154.84 209.85 C 160.58 211.55 151.00 216.19 148.15 213.70 C 144.25 212.68 143.06 212.88 142.55 208.40 C 142.59 202.74 152.39 209.11 154.84 209.85 Z" fill="#28273a" />
</svg>