<?xml version="1.0" encoding="UTF-8" standalone="no"?>
<!DOCTYPE svg PUBLIC "-//W3C//DTD SVG 1.1//EN" "http://www.w3.org/Graphics/SVG/1.1/DTD/svg11.dtd">
<svg xmlns="http://www.w3.org/2000/svg" version="1.1" viewBox="0 0 256 256" width="256.0pt" height="256.0pt">
<path d="M 0.00 0.00 L 256.00 0.00 L 256.00 256.00 L 0.00 256.00 L 0.00 0.00 Z" fill="#fefefe" />
<path d="M 123.76 17.38 C 130.45 17.13 136.87 18.55 143.58 17.54 C 150.27 16.60 156.82 17.18 162.35 21.40 C 154.02 23.80 145.94 26.95 137.49 28.73 C 134.50 29.42 131.99 30.96 129.28 32.41 C 127.77 32.16 126.25 31.92 124.73 31.69 C 125.47 30.79 126.18 29.86 126.87 28.91 C 123.53 30.64 120.42 32.70 116.99 34.25 C 120.68 29.54 125.04 25.46 128.86 20.87 C 120.21 25.87 114.11 33.62 104.61 37.59 C 102.23 38.22 99.77 38.23 97.39 38.75 C 93.97 41.20 91.33 44.84 88.28 47.76 C 88.08 46.68 87.88 45.60 87.67 44.52 C 91.01 41.80 94.33 39.17 97.16 35.90 C 95.71 36.34 94.25 36.70 92.77 37.01 C 94.97 33.52 98.33 32.19 101.54 29.55 C 105.23 26.45 109.61 24.42 113.35 21.37 C 110.22 22.40 107.15 22.73 104.74 24.84 C 101.66 27.25 98.24 29.03 94.76 30.77 C 90.64 33.69 86.45 36.18 83.35 39.94 C 81.66 40.03 79.97 40.15 78.29 40.31 C 78.10 39.06 77.90 37.80 77.69 36.55 C 76.58 38.39 75.68 40.27 74.88 42.26 C 70.94 41.71 66.89 44.65 67.73 48.96 C 66.67 49.00 65.60 49.03 64.55 49.14 C 63.93 49.59 63.32 50.04 62.71 50.51 C 60.38 52.35 57.53 53.58 55.78 55.86 C 53.67 58.56 51.67 61.03 51.01 64.49 C 50.57 66.97 50.28 69.48 50.01 71.99 C 49.70 70.21 49.27 68.48 48.83 66.74 C 46.59 66.58 44.40 66.27 42.20 65.84 C 39.73 65.27 37.28 64.59 34.84 63.92 C 39.28 58.07 45.07 54.32 50.47 49.48 C 54.37 46.04 58.21 42.53 62.16 39.14 C 67.34 34.66 71.67 29.30 76.85 24.85 C 81.55 20.73 88.02 19.70 94.04 19.19 C 103.94 18.44 113.84 17.83 123.76 17.38 Z" fill="#f3f3f2" />
<path d="M 163.57 21.03 L 163.82 20.96 L 164.01 20.90 L 164.09 21.95 C 158.96 24.41 153.54 26.59 148.83 29.81 C 146.93 31.00 144.79 31.85 142.78 32.85 C 139.08 34.81 135.31 34.05 131.43 35.19 C 129.09 35.65 127.59 36.58 125.64 34.66 C 126.84 33.89 128.05 33.13 129.28 32.41 C 131.99 30.96 134.50 29.42 137.49 28.73 C 145.94 26.95 154.02 23.80 162.35 21.40 C 162.75 21.28 163.16 21.15 163.57 21.03 Z" fill="#1f2139" />
<path d="M 113.35 21.37 C 109.61 24.42 105.23 26.45 101.54 29.55 C 98.33 32.19 94.97 33.52 92.77 37.01 C 94.25 36.70 95.71 36.34 97.16 35.90 C 94.33 39.17 91.01 41.80 87.67 44.52 C 87.88 45.60 88.08 46.68 88.28 47.76 C 91.33 44.84 93.97 41.20 97.39 38.75 C 99.77 38.23 102.23 38.22 104.61 37.59 C 105.38 38.35 106.16 39.12 106.93 39.88 C 110.00 37.37 113.36 35.77 116.99 34.25 C 120.42 32.70 123.53 30.64 126.87 28.91 C 126.18 29.86 125.47 30.79 124.73 31.69 C 120.34 34.41 115.96 37.04 111.81 40.12 L 111.14 40.31 C 108.77 40.85 106.76 42.05 104.68 43.25 C 99.44 46.13 94.23 49.09 88.93 51.85 C 87.97 52.23 87.00 52.59 86.02 52.93 C 86.43 51.50 86.85 50.08 87.26 48.65 C 85.43 50.60 83.71 52.63 82.04 54.72 C 80.79 56.21 79.52 57.68 78.07 59.00 C 75.27 61.38 72.37 63.25 68.97 64.68 C 65.76 66.25 64.69 71.91 64.10 75.13 C 63.39 77.53 65.57 77.86 67.08 79.08 C 71.41 81.63 75.35 84.72 79.56 87.44 C 80.65 84.14 82.01 81.03 84.04 78.20 C 83.75 77.79 83.46 77.39 83.17 76.98 C 84.67 74.97 86.27 73.12 88.35 71.68 C 91.25 69.72 92.51 66.75 95.84 65.31 C 98.83 64.26 101.71 63.23 104.25 61.27 C 107.11 59.08 110.37 57.97 113.64 56.60 C 115.78 55.74 116.97 54.03 118.58 52.47 C 120.48 50.46 123.11 49.00 125.34 47.34 C 128.66 45.07 131.13 42.27 135.01 40.93 C 136.05 40.08 137.17 38.38 138.59 38.31 C 142.21 37.96 146.06 38.33 149.48 39.58 C 152.19 41.03 154.21 43.50 156.95 44.97 C 160.81 43.87 164.60 42.52 168.44 41.38 C 172.04 40.83 175.14 39.96 178.48 38.49 C 182.62 36.65 186.73 37.24 190.98 36.18 C 194.84 34.63 197.98 32.09 202.15 31.21 C 200.10 34.18 197.14 35.02 194.14 36.77 C 189.90 39.19 186.52 42.41 181.73 43.91 C 174.19 47.37 166.93 51.26 160.37 56.40 C 155.93 60.17 150.03 61.42 144.86 64.37 C 143.89 63.28 142.94 62.19 141.98 61.09 C 140.39 61.81 138.77 62.49 137.18 63.22 C 136.69 62.85 136.20 62.49 135.71 62.12 C 138.16 58.51 140.89 55.04 143.88 51.88 C 146.73 49.35 150.07 47.35 153.15 45.10 C 152.17 44.41 151.19 43.68 150.16 43.08 C 145.87 41.57 140.22 40.51 136.50 43.86 C 133.06 46.02 129.84 47.22 127.68 50.96 C 124.16 56.63 118.55 59.01 112.38 60.74 C 109.89 61.35 108.85 63.34 106.80 64.88 C 104.28 66.87 101.85 68.52 100.62 71.64 C 99.32 71.85 96.89 71.34 96.45 72.93 C 94.12 77.89 94.02 83.28 90.88 87.93 C 87.31 89.53 83.61 90.74 79.92 92.04 C 80.72 91.00 81.48 89.94 82.24 88.88 C 78.56 88.67 74.88 88.55 71.19 88.49 C 71.63 87.07 72.04 85.65 72.46 84.23 C 70.75 83.58 67.51 81.20 65.87 82.74 C 63.97 85.11 62.60 87.92 60.91 90.45 C 59.11 90.22 57.05 89.82 55.27 90.20 C 53.29 91.11 51.72 93.09 50.18 94.61 C 49.16 94.06 48.15 93.51 47.13 92.97 C 45.51 86.56 43.89 80.49 41.45 74.33 C 43.60 74.30 44.38 77.77 45.54 79.25 C 43.72 74.39 42.12 69.62 38.84 65.51 C 39.96 65.60 41.08 65.71 42.20 65.84 C 44.40 66.27 46.59 66.58 48.83 66.74 C 49.27 68.48 49.70 70.21 50.01 71.99 C 49.82 75.75 50.06 80.74 54.52 81.83 C 55.64 80.78 56.62 79.55 57.59 78.37 C 55.52 76.62 53.44 74.88 51.36 73.15 C 51.50 72.54 51.65 71.94 51.80 71.34 C 53.07 71.90 54.34 72.46 55.61 73.02 C 56.72 69.66 56.62 68.02 55.38 64.76 C 54.44 65.72 53.51 66.68 52.58 67.64 C 52.06 66.59 51.54 65.53 51.01 64.49 C 51.67 61.03 53.67 58.56 55.78 55.86 C 57.53 53.58 60.38 52.35 62.71 50.51 C 64.05 50.58 65.39 50.65 66.73 50.72 C 66.58 53.86 66.61 57.00 66.68 60.14 C 68.10 57.60 69.56 55.08 71.03 52.57 C 72.04 52.51 73.25 52.99 73.90 51.99 C 77.10 48.02 80.20 43.95 83.35 39.94 C 86.45 36.18 90.64 33.69 94.76 30.77 C 98.24 29.03 101.66 27.25 104.74 24.84 C 107.15 22.73 110.22 22.40 113.35 21.37 Z" fill="#20233f" />
<path d="M 128.86 20.87 C 125.04 25.46 120.68 29.54 116.99 34.25 C 113.36 35.77 110.00 37.37 106.93 39.88 C 106.16 39.12 105.38 38.35 104.61 37.59 C 114.11 33.62 120.21 25.87 128.86 20.87 Z" fill="#928e8d" />
<path d="M 164.09 21.95 C 168.52 25.04 172.57 28.26 178.23 28.44 C 186.90 28.60 194.69 24.99 203.51 26.13 C 204.00 27.02 204.49 27.91 204.98 28.79 C 207.61 27.09 210.27 25.74 213.26 24.74 C 211.05 27.50 207.68 29.65 206.94 33.10 C 205.90 36.89 204.66 40.44 203.03 44.02 C 200.66 49.14 199.90 55.51 202.24 60.76 C 203.85 64.32 207.13 66.82 211.10 66.93 C 217.28 66.85 223.59 62.94 229.81 63.09 C 231.16 63.56 232.43 64.39 233.67 65.10 C 232.77 67.01 231.84 68.84 230.40 70.41 C 229.23 70.95 227.62 70.48 226.35 70.44 C 226.52 71.24 226.69 72.03 226.85 72.83 C 223.16 73.81 220.35 75.78 217.29 77.93 C 214.85 78.83 212.12 78.95 209.64 79.89 C 205.67 81.29 202.04 80.25 197.64 80.74 C 195.06 79.04 190.94 80.39 187.92 79.59 C 188.19 78.65 188.46 77.72 188.72 76.79 C 186.79 77.67 184.92 78.49 183.11 79.60 L 183.03 81.14 L 182.99 82.20 C 182.22 82.37 181.52 82.67 180.90 83.08 C 180.92 84.00 181.35 84.71 182.17 85.23 C 181.88 86.22 181.60 87.21 181.34 88.21 L 180.42 88.59 C 179.73 87.82 179.05 87.05 178.36 86.28 C 180.02 83.30 181.01 79.75 183.12 77.13 C 186.28 73.40 191.03 70.82 194.17 67.15 C 195.72 65.41 196.37 62.73 197.19 60.59 C 192.59 63.45 188.03 65.68 184.37 69.39 C 181.63 71.95 178.41 73.16 175.08 74.71 L 174.13 75.03 C 176.26 72.85 178.29 70.58 180.26 68.26 C 184.46 63.28 191.23 60.00 195.21 54.76 C 190.65 56.75 186.81 59.96 182.71 62.73 C 179.55 64.91 176.04 65.80 172.46 67.16 C 169.72 66.40 166.95 65.82 164.15 65.33 C 171.43 60.55 176.48 53.43 183.73 48.71 C 187.17 46.78 191.29 44.91 193.94 41.91 C 195.49 40.65 194.26 38.45 194.14 36.77 C 197.14 35.02 200.10 34.18 202.15 31.21 C 197.98 32.09 194.84 34.63 190.98 36.18 C 186.73 37.24 182.62 36.65 178.48 38.49 C 175.14 39.96 172.04 40.83 168.44 41.38 C 164.84 40.56 161.27 39.68 157.64 39.00 C 157.92 37.18 158.19 35.35 158.45 33.51 C 156.26 33.58 154.08 33.70 151.89 33.73 C 151.13 33.70 150.37 33.66 149.61 33.61 C 147.92 33.44 146.23 33.24 144.54 33.05 L 142.78 32.85 C 144.79 31.85 146.93 31.00 148.83 29.81 C 153.54 26.59 158.96 24.41 164.09 21.95 Z" fill="#f2f2f2" />
<path d="M 85.00 25.02 C 84.18 29.76 81.37 33.17 78.16 36.55 C 79.42 32.07 81.42 28.09 85.00 25.02 Z" fill="#585763" />
<path d="M 204.15 30.02 C 205.72 28.99 206.68 31.34 204.86 31.74 C 203.88 31.48 203.64 30.91 204.15 30.02 Z" fill="#9e9ea6" />
<path d="M 124.73 31.69 C 126.25 31.92 127.77 32.16 129.28 32.41 C 128.05 33.13 126.84 33.89 125.64 34.66 C 121.76 37.26 117.84 39.70 113.60 41.67 C 113.01 41.15 112.41 40.63 111.81 40.12 C 115.96 37.04 120.34 34.41 124.73 31.69 Z" fill="#f8e491" />
<path d="M 142.78 32.85 L 144.54 33.05 C 145.63 34.07 146.69 35.12 147.74 36.17 C 148.37 35.32 148.99 34.46 149.61 33.61 C 150.37 33.66 151.13 33.70 151.89 33.73 L 151.76 34.43 C 151.01 36.65 151.95 37.94 154.32 37.77 C 155.28 40.14 156.17 42.54 156.95 44.97 C 154.21 43.50 152.19 41.03 149.48 39.58 C 146.06 38.33 142.21 37.96 138.59 38.31 C 137.17 38.38 136.05 40.08 135.01 40.93 C 131.13 42.27 128.66 45.07 125.34 47.34 C 123.11 49.00 120.48 50.46 118.58 52.47 C 116.97 54.03 115.78 55.74 113.64 56.60 C 110.37 57.97 107.11 59.08 104.25 61.27 C 101.71 63.23 98.83 64.26 95.84 65.31 C 94.29 64.38 92.73 63.85 91.98 62.06 C 90.50 58.89 89.80 55.24 88.93 51.85 C 94.23 49.09 99.44 46.13 104.68 43.25 C 106.30 43.44 107.91 43.57 109.53 43.72 C 110.07 42.59 110.61 41.45 111.14 40.31 L 111.81 40.12 C 112.41 40.63 113.01 41.15 113.60 41.67 C 117.84 39.70 121.76 37.26 125.64 34.66 C 127.59 36.58 129.09 35.65 131.43 35.19 C 135.31 34.05 139.08 34.81 142.78 32.85 Z" fill="#bf9b3e" />
<path d="M 144.54 33.05 C 146.23 33.24 147.92 33.44 149.61 33.61 C 148.99 34.46 148.37 35.32 147.74 36.17 C 146.69 35.12 145.63 34.07 144.54 33.05 Z" fill="#897135" />
<path d="M 158.45 33.51 C 158.19 35.35 157.92 37.18 157.64 39.00 C 161.27 39.68 164.84 40.56 168.44 41.38 C 164.60 42.52 160.81 43.87 156.95 44.97 C 156.17 42.54 155.28 40.14 154.32 37.77 C 153.87 36.31 152.83 35.43 151.76 34.43 L 151.89 33.73 C 154.08 33.70 156.26 33.58 158.45 33.51 Z" fill="#e9dda3" />
<path d="M 151.76 34.43 C 152.83 35.43 153.87 36.31 154.32 37.77 C 151.95 37.94 151.01 36.65 151.76 34.43 Z" fill="#544423" />
<path d="M 77.69 36.55 C 77.90 37.80 78.10 39.06 78.29 40.31 C 77.17 40.99 76.04 41.65 74.88 42.26 C 75.68 40.27 76.58 38.39 77.69 36.55 Z" fill="#585863" />
<path d="M 194.14 36.77 C 194.26 38.45 195.49 40.65 193.94 41.91 C 191.29 44.91 187.17 46.78 183.73 48.71 C 184.43 47.55 185.09 46.37 185.75 45.19 C 184.41 44.76 183.07 44.33 181.73 43.91 C 186.52 42.41 189.90 39.19 194.14 36.77 Z" fill="#eee7c5" />
<path d="M 83.35 39.94 C 80.20 43.95 77.10 48.02 73.90 51.99 C 73.25 52.99 72.04 52.51 71.03 52.57 C 70.23 52.47 69.42 52.37 68.62 52.26 C 68.31 51.17 68.01 50.06 67.73 48.96 C 66.89 44.65 70.94 41.71 74.88 42.26 C 76.04 41.65 77.17 40.99 78.29 40.31 C 79.97 40.15 81.66 40.03 83.35 39.94 Z" fill="#f5efc3" />
<path d="M 111.14 40.31 C 110.61 41.45 110.07 42.59 109.53 43.72 C 107.91 43.57 106.30 43.44 104.68 43.25 C 106.76 42.05 108.77 40.85 111.14 40.31 Z" fill="#dbd2ac" />
<path d="M 150.16 43.08 C 146.60 46.51 143.22 50.35 139.23 53.28 C 138.48 53.89 137.14 53.54 136.23 53.50 C 135.47 52.30 134.70 51.10 133.88 49.94 C 131.81 50.23 129.75 50.62 127.68 50.96 C 129.84 47.22 133.06 46.02 136.50 43.86 C 140.22 40.51 145.87 41.57 150.16 43.08 Z" fill="#f9e285" />
<path d="M 150.16 43.08 C 151.19 43.68 152.17 44.41 153.15 45.10 C 150.07 47.35 146.73 49.35 143.88 51.88 C 140.89 55.04 138.16 58.51 135.71 62.12 C 133.68 65.44 130.74 67.63 127.78 70.05 C 129.89 69.12 131.91 68.01 133.95 66.95 C 137.35 64.95 141.32 66.43 144.86 64.37 C 150.03 61.42 155.93 60.17 160.37 56.40 C 166.93 51.26 174.19 47.37 181.73 43.91 C 183.07 44.33 184.41 44.76 185.75 45.19 C 185.09 46.37 184.43 47.55 183.73 48.71 C 176.48 53.43 171.43 60.55 164.15 65.33 C 166.95 65.82 169.72 66.40 172.46 67.16 C 168.31 68.75 164.46 70.82 159.98 71.26 C 156.29 71.68 152.60 71.25 149.33 73.32 C 145.68 75.73 142.37 78.72 139.44 81.98 C 145.14 84.29 151.04 86.78 157.27 85.24 L 156.84 86.41 C 156.59 87.09 156.34 87.78 156.10 88.47 C 154.82 88.35 153.53 88.22 152.25 88.11 C 153.84 89.71 155.47 91.29 157.05 92.90 C 155.26 92.90 153.47 92.89 151.67 92.78 C 150.58 92.60 149.49 92.39 148.41 92.17 C 145.87 90.94 143.70 89.48 140.81 89.25 C 139.12 86.45 137.71 83.86 134.58 82.47 C 131.20 80.75 128.14 81.58 124.58 81.87 C 122.27 82.16 120.40 81.37 118.21 80.83 C 113.47 81.31 108.82 83.16 104.89 85.84 C 106.74 83.83 108.49 81.71 110.28 79.64 C 109.69 78.21 108.98 76.75 108.65 75.24 C 109.11 73.85 110.82 72.84 111.93 72.00 C 118.61 67.54 125.69 64.57 130.26 57.59 C 127.48 57.86 124.92 58.79 122.30 59.73 C 125.23 55.53 131.56 54.61 136.23 53.50 C 137.14 53.54 138.48 53.89 139.23 53.28 C 143.22 50.35 146.60 46.51 150.16 43.08 Z" fill="#e8d99b" />
<path d="M 164.49 46.85 C 164.53 48.01 164.57 49.16 164.61 50.32 C 162.27 50.65 159.93 50.98 157.59 51.26 C 159.77 49.59 162.07 48.15 164.49 46.85 Z" fill="#5e5c69" />
<path d="M 64.55 49.14 C 65.60 49.03 66.67 49.00 67.73 48.96 C 68.01 50.06 68.31 51.17 68.62 52.26 C 69.42 52.37 70.23 52.47 71.03 52.57 C 69.56 55.08 68.10 57.60 66.68 60.14 C 66.61 57.00 66.58 53.86 66.73 50.72 C 65.39 50.65 64.05 50.58 62.71 50.51 C 63.32 50.04 63.93 49.59 64.55 49.14 Z" fill="#bdb38e" />
<path d="M 87.26 48.65 C 86.85 50.08 86.43 51.50 86.02 52.93 C 87.00 52.59 87.97 52.23 88.93 51.85 C 89.80 55.24 90.50 58.89 91.98 62.06 C 92.73 63.85 94.29 64.38 95.84 65.31 C 92.51 66.75 91.25 69.72 88.35 71.68 C 86.27 73.12 84.67 74.97 83.17 76.98 C 82.38 75.88 81.57 74.80 80.73 73.73 C 79.83 75.06 78.77 76.45 78.24 77.98 C 78.49 79.13 79.10 80.19 79.48 81.31 C 78.69 82.09 77.90 82.88 77.11 83.67 C 76.94 80.75 77.26 78.18 75.23 75.76 C 72.52 72.35 70.70 68.65 68.97 64.68 C 72.37 63.25 75.27 61.38 78.07 59.00 C 78.97 64.04 77.79 69.65 81.58 73.42 C 84.00 71.27 86.37 69.08 88.73 66.86 C 86.73 62.68 84.62 58.57 82.04 54.72 C 83.71 52.63 85.43 50.60 87.26 48.65 Z" fill="#917631" />
<path d="M 133.88 49.94 C 134.70 51.10 135.47 52.30 136.23 53.50 C 131.56 54.61 125.23 55.53 122.30 59.73 C 124.92 58.79 127.48 57.86 130.26 57.59 C 125.69 64.57 118.61 67.54 111.93 72.00 C 110.82 72.84 109.11 73.85 108.65 75.24 C 108.98 76.75 109.69 78.21 110.28 79.64 C 108.49 81.71 106.74 83.83 104.89 85.84 C 104.27 86.45 103.66 87.05 103.05 87.66 C 99.66 87.58 96.23 87.18 92.84 87.36 C 92.18 87.52 91.53 87.71 90.88 87.93 C 94.02 83.28 94.12 77.89 96.45 72.93 C 96.89 71.34 99.32 71.85 100.62 71.64 C 101.85 68.52 104.28 66.87 106.80 64.88 C 108.85 63.34 109.89 61.35 112.38 60.74 C 118.55 59.01 124.16 56.63 127.68 50.96 C 129.75 50.62 131.81 50.23 133.88 49.94 Z" fill="#f9efb9" />
<path d="M 82.04 54.72 C 84.62 58.57 86.73 62.68 88.73 66.86 C 86.37 69.08 84.00 71.27 81.58 73.42 C 77.79 69.65 78.97 64.04 78.07 59.00 C 79.52 57.68 80.79 56.21 82.04 54.72 Z" fill="#bf9b3d" />
<path d="M 195.21 54.76 C 191.23 60.00 184.46 63.28 180.26 68.26 C 178.29 70.58 176.26 72.85 174.13 75.03 C 171.18 76.06 168.48 76.95 166.40 79.44 C 163.70 82.43 161.04 83.92 157.27 85.24 C 151.04 86.78 145.14 84.29 139.44 81.98 C 142.37 78.72 145.68 75.73 149.33 73.32 C 152.60 71.25 156.29 71.68 159.98 71.26 C 164.46 70.82 168.31 68.75 172.46 67.16 C 176.04 65.80 179.55 64.91 182.71 62.73 C 186.81 59.96 190.65 56.75 195.21 54.76 Z" fill="#20233f" />
<path d="M 141.98 61.09 C 142.94 62.19 143.89 63.28 144.86 64.37 C 141.32 66.43 137.35 64.95 133.95 66.95 C 131.91 68.01 129.89 69.12 127.78 70.05 C 130.74 67.63 133.68 65.44 135.71 62.12 C 136.20 62.49 136.69 62.85 137.18 63.22 C 138.77 62.49 140.39 61.81 141.98 61.09 Z" fill="#36333a" />
<path d="M 197.19 60.59 C 196.37 62.73 195.72 65.41 194.17 67.15 C 191.03 70.82 186.28 73.40 183.12 77.13 C 181.01 79.75 180.02 83.30 178.36 86.28 C 179.05 87.05 179.73 87.82 180.42 88.59 L 181.34 88.21 C 182.26 87.83 183.17 87.42 184.07 86.97 C 184.15 87.59 184.24 88.21 184.32 88.83 C 186.22 88.07 188.13 87.40 190.10 86.86 C 187.82 89.62 184.81 91.09 181.94 93.05 C 179.64 96.37 181.06 100.21 176.74 102.20 C 176.53 101.09 176.46 99.84 175.96 98.81 C 174.70 97.66 173.12 96.81 171.66 95.93 C 171.04 94.91 170.41 93.89 169.77 92.88 C 171.46 91.67 172.90 90.21 174.26 88.65 C 171.84 89.29 169.50 90.16 167.15 91.01 C 171.90 86.64 177.13 82.50 181.16 77.46 C 177.23 79.76 173.42 82.50 169.25 84.32 C 167.02 85.28 165.39 85.17 163.09 84.50 C 167.15 80.77 172.07 79.04 175.08 74.71 C 178.41 73.16 181.63 71.95 184.37 69.39 C 188.03 65.68 192.59 63.45 197.19 60.59 Z" fill="#232642" />
<path d="M 235.32 61.82 L 235.66 63.31 C 234.89 65.96 234.64 68.66 234.17 71.37 C 233.80 73.24 231.98 74.71 230.73 76.08 C 231.05 77.45 231.71 78.53 231.02 79.93 C 229.93 82.27 229.49 84.46 229.17 87.01 C 230.48 87.24 231.79 87.49 233.09 87.75 C 230.86 88.86 228.58 89.44 226.14 89.88 C 226.74 90.66 227.34 91.43 227.93 92.22 C 225.47 92.30 223.02 92.36 220.56 92.46 C 221.42 93.41 222.28 94.37 223.14 95.32 C 221.16 97.69 219.18 100.03 217.58 102.69 C 216.87 103.24 216.13 103.56 215.27 103.82 L 215.00 103.91 C 214.48 103.32 213.95 102.74 213.40 102.18 L 212.55 101.34 C 212.07 95.76 207.88 90.48 201.95 90.39 C 201.58 88.79 201.35 87.17 201.17 85.54 C 205.27 86.41 209.03 86.66 213.13 85.63 C 211.93 85.26 210.72 84.87 209.53 84.45 C 212.50 82.55 215.12 83.56 218.35 83.37 C 220.99 80.70 223.45 77.85 226.01 75.10 C 221.95 77.27 217.07 80.74 212.34 80.69 C 209.42 80.44 206.76 82.87 203.98 83.73 C 201.26 83.51 198.70 83.85 197.64 80.74 C 202.04 80.25 205.67 81.29 209.64 79.89 C 212.12 78.95 214.85 78.83 217.29 77.93 C 220.35 75.78 223.16 73.81 226.85 72.83 C 226.69 72.03 226.52 71.24 226.35 70.44 C 227.62 70.48 229.23 70.95 230.40 70.41 C 231.84 68.84 232.77 67.01 233.67 65.10 C 234.20 64.00 234.75 62.90 235.32 61.82 Z" fill="#252740" />
<path d="M 68.97 64.68 C 70.70 68.65 72.52 72.35 75.23 75.76 C 77.26 78.18 76.94 80.75 77.11 83.67 C 77.90 82.88 78.69 82.09 79.48 81.31 C 80.03 83.36 79.82 85.37 79.56 87.44 C 75.35 84.72 71.41 81.63 67.08 79.08 C 65.57 77.86 63.39 77.53 64.10 75.13 C 64.69 71.91 65.76 66.25 68.97 64.68 Z" fill="#c09c3f" />
<path d="M 235.66 63.31 C 237.83 64.94 240.12 66.18 241.08 68.90 C 242.45 73.01 242.30 77.73 241.95 81.99 C 241.16 90.46 234.62 97.02 232.07 105.08 C 229.71 111.98 230.19 118.46 229.57 125.58 C 228.97 132.38 228.32 139.10 226.69 145.75 C 225.25 151.73 223.97 158.36 225.62 164.43 C 227.07 169.41 231.75 173.15 235.26 176.74 C 239.17 180.56 242.26 185.05 243.55 190.42 C 246.66 201.28 243.96 213.78 240.14 224.15 C 237.32 232.96 228.04 238.98 219.00 239.12 C 212.66 239.28 206.45 236.14 203.82 230.20 C 201.94 225.79 203.62 221.04 204.74 216.67 C 202.77 216.34 200.33 215.52 198.39 216.16 C 195.72 218.56 193.86 221.76 191.29 224.28 C 186.08 229.36 182.12 234.49 175.06 237.13 C 166.42 240.71 158.52 238.67 149.74 237.32 C 141.91 235.98 134.90 238.71 127.24 236.81 C 122.20 235.81 117.07 232.86 112.00 232.86 C 107.37 232.83 103.36 236.34 99.35 238.32 C 93.93 241.24 87.96 241.18 81.97 241.11 C 73.36 240.97 65.20 238.39 57.63 234.40 C 51.72 231.29 45.77 227.72 40.86 223.14 C 37.36 219.98 36.50 215.08 35.30 210.72 C 34.47 207.49 35.48 204.64 36.67 201.68 C 41.25 190.71 49.35 183.15 55.27 173.26 C 57.29 170.07 57.09 166.76 57.04 163.14 C 54.54 161.82 52.25 159.86 49.25 160.36 C 42.83 160.96 37.71 164.01 31.60 160.20 C 37.07 152.75 45.38 146.92 52.81 141.55 L 53.29 141.52 C 54.33 142.90 55.45 144.22 56.44 145.64 C 56.72 147.54 56.51 149.52 56.57 151.43 C 58.25 149.20 59.36 146.31 61.39 144.40 C 63.95 142.68 66.89 141.48 69.65 140.09 C 67.89 144.00 67.45 148.15 66.22 152.20 C 67.11 152.59 67.95 153.04 68.75 153.58 C 69.82 152.63 70.88 151.68 72.01 150.80 C 72.75 150.24 73.50 149.70 74.26 149.16 C 75.45 154.40 72.15 158.58 73.06 163.81 C 73.66 167.48 71.88 170.76 68.76 172.67 C 69.61 170.21 71.13 168.44 72.87 166.58 L 71.15 165.25 C 69.09 169.39 66.22 172.90 63.53 176.62 C 61.12 180.08 60.13 184.10 57.13 187.22 C 54.40 190.84 52.31 194.89 49.38 198.40 C 45.17 203.90 39.93 207.37 37.64 214.26 C 42.30 214.98 44.64 218.33 48.73 220.26 C 51.94 221.79 55.23 221.95 58.54 222.68 C 62.41 224.84 65.09 228.94 69.81 230.43 C 76.86 230.88 83.85 232.02 90.88 232.39 C 93.99 231.75 97.22 231.28 100.22 230.25 C 102.78 229.28 102.38 226.45 101.97 224.28 C 100.56 221.54 98.41 219.12 96.40 216.78 C 96.57 219.21 96.76 221.64 96.98 224.06 C 95.15 221.49 92.81 219.58 90.10 218.01 C 89.56 217.04 89.03 216.07 88.50 215.09 C 90.33 213.68 92.22 212.37 94.15 211.09 C 91.70 209.55 89.49 207.68 87.05 206.16 C 85.58 206.23 84.03 206.23 82.60 206.62 C 81.11 207.71 80.47 209.95 79.28 211.38 C 78.22 211.69 76.95 211.45 75.86 211.37 C 77.16 208.85 78.47 206.34 79.58 203.73 C 80.47 204.41 81.36 205.08 82.26 205.73 C 83.27 204.94 84.26 204.25 85.12 203.29 C 85.42 202.09 85.43 200.78 85.47 199.55 C 86.64 198.55 87.81 197.56 88.99 196.57 C 90.58 196.86 92.24 197.32 93.86 197.28 C 95.34 196.65 96.75 195.71 98.15 194.90 C 99.05 194.39 99.96 193.91 100.85 193.38 C 101.81 192.76 102.67 191.98 103.43 191.04 C 105.34 189.60 107.38 188.35 109.33 186.95 C 109.75 187.39 110.16 187.82 110.57 188.26 C 111.90 195.44 111.27 204.52 115.24 210.74 L 116.08 210.67 C 116.83 210.60 117.59 210.52 118.34 210.44 L 117.55 211.76 C 115.95 213.52 113.93 215.02 112.56 216.96 C 112.23 218.33 112.38 219.85 112.39 221.25 C 114.90 221.75 117.36 222.22 119.82 222.92 C 123.49 226.31 126.64 229.65 132.13 229.06 C 134.29 228.23 136.05 226.88 138.42 226.59 C 140.29 226.19 142.41 226.04 144.14 225.20 C 145.45 223.50 146.24 221.37 147.21 219.47 C 149.32 222.09 150.52 224.77 153.85 226.05 C 158.12 227.74 162.62 230.06 167.21 230.55 C 170.19 230.80 172.14 229.05 174.31 227.31 C 178.23 223.87 182.02 220.94 183.97 215.90 C 184.72 214.30 185.38 212.64 186.05 211.00 C 188.54 206.49 191.14 201.77 192.62 196.81 C 193.36 191.44 190.98 185.49 190.29 180.12 C 190.08 178.27 190.00 176.42 189.93 174.56 C 193.03 176.70 196.29 178.41 199.21 180.80 C 201.06 182.20 202.99 184.22 205.22 184.89 C 208.86 185.91 212.76 185.85 216.42 186.67 C 219.26 188.31 221.56 191.07 224.07 193.19 C 226.30 197.51 226.17 202.21 224.85 206.79 C 223.52 212.24 220.59 216.80 217.12 221.11 C 214.94 224.19 210.39 224.79 207.02 226.26 C 208.19 228.05 209.39 229.82 210.60 231.59 C 211.77 230.98 212.97 230.27 214.24 229.89 C 216.65 229.79 219.22 230.53 221.64 230.27 C 223.65 229.91 225.61 229.08 227.58 228.52 C 228.36 228.59 229.14 228.67 229.92 228.75 C 231.85 222.00 232.64 215.04 234.28 208.21 C 235.26 202.49 237.11 195.88 235.76 190.17 C 234.14 193.06 234.41 196.92 233.67 200.16 C 233.49 197.79 233.27 195.42 233.06 193.04 C 233.72 192.03 234.43 190.97 234.85 189.83 C 234.09 187.36 232.51 185.07 230.06 184.05 C 224.65 181.84 218.91 178.26 215.57 173.39 C 213.63 169.42 210.10 165.05 212.35 160.50 C 213.79 157.00 214.78 153.99 215.10 150.20 C 215.95 146.83 217.37 143.56 218.48 140.26 C 217.59 140.70 216.69 141.15 215.80 141.59 C 217.43 137.57 217.91 133.52 218.18 129.22 L 218.78 127.97 C 221.02 120.03 220.56 110.39 217.58 102.69 C 219.18 100.03 221.16 97.69 223.14 95.32 C 222.28 94.37 221.42 93.41 220.56 92.46 C 223.02 92.36 225.47 92.30 227.93 92.22 C 227.34 91.43 226.74 90.66 226.14 89.88 C 228.58 89.44 230.86 88.86 233.09 87.75 C 231.79 87.49 230.48 87.24 229.17 87.01 C 229.49 84.46 229.93 82.27 231.02 79.93 C 231.71 78.53 231.05 77.45 230.73 76.08 C 231.98 74.71 233.80 73.24 234.17 71.37 C 234.64 68.66 234.89 65.96 235.66 63.31 Z" fill="#f4f4f3" />
<path d="M 51.01 64.49 C 51.54 65.53 52.06 66.59 52.58 67.64 C 53.51 66.68 54.44 65.72 55.38 64.76 C 56.62 68.02 56.72 69.66 55.61 73.02 C 54.34 72.46 53.07 71.90 51.80 71.34 C 51.65 71.94 51.50 72.54 51.36 73.15 C 53.44 74.88 55.52 76.62 57.59 78.37 C 56.62 79.55 55.64 80.78 54.52 81.83 C 50.06 80.74 49.82 75.75 50.01 71.99 C 50.28 69.48 50.57 66.97 51.01 64.49 Z" fill="#656678" />
<path d="M 34.90 67.36 C 35.84 68.23 36.89 68.36 38.07 67.74 L 39.04 68.66 C 39.00 70.27 39.41 71.86 41.21 72.21 C 41.27 72.92 41.34 73.63 41.45 74.33 C 43.89 80.49 45.51 86.56 47.13 92.97 C 45.99 94.66 44.81 96.31 43.57 97.94 C 42.08 99.77 40.84 101.77 39.56 103.76 C 41.05 103.74 42.54 102.99 43.59 104.37 C 45.76 106.13 45.68 108.16 46.00 110.70 C 42.42 112.25 38.78 113.54 34.98 114.43 C 35.54 115.88 36.14 117.31 36.72 118.75 C 34.90 119.64 33.09 120.53 31.21 121.28 L 30.42 121.53 C 30.26 120.61 30.10 119.69 29.94 118.78 C 29.87 119.78 29.80 120.77 29.74 121.77 C 26.90 123.21 23.87 124.67 21.27 126.51 C 20.16 128.94 20.56 131.65 23.01 133.16 C 25.98 135.65 28.52 138.52 30.91 141.56 C 31.31 143.36 31.58 145.17 31.53 147.02 C 31.33 149.12 31.63 151.07 32.09 153.12 C 31.93 153.86 31.77 154.59 31.60 155.33 C 30.10 155.66 28.61 156.00 27.11 156.35 C 22.58 150.63 19.45 143.72 17.12 136.84 C 15.12 130.85 16.43 124.75 19.28 119.30 C 21.59 115.01 25.05 111.77 27.43 107.48 C 29.80 103.21 31.64 98.56 32.94 93.85 C 35.35 85.76 31.44 77.99 33.40 69.40 C 33.68 68.63 34.18 67.95 34.90 67.36 Z" fill="#f3f3f2" />
<path d="M 34.90 67.36 C 35.81 66.38 36.87 66.50 38.07 67.74 C 36.89 68.36 35.84 68.23 34.90 67.36 Z" fill="#070619" />
<path d="M 39.04 68.66 C 40.37 69.56 41.26 70.52 41.21 72.21 C 39.41 71.86 39.00 70.27 39.04 68.66 Z" fill="#25253b" />
<path d="M 129.10 71.01 C 130.63 71.34 132.11 72.16 133.52 72.82 C 129.98 74.66 126.89 75.86 122.85 75.14 C 124.66 73.58 126.74 71.62 129.10 71.01 Z" fill="#fcfae8" />
<path d="M 60.14 74.26 C 61.90 73.08 63.04 75.90 60.97 76.30 C 59.84 75.97 59.57 75.29 60.14 74.26 Z" fill="#7a7a87" />
<path d="M 80.73 73.73 C 81.57 74.80 82.38 75.88 83.17 76.98 C 83.46 77.39 83.75 77.79 84.04 78.20 C 82.01 81.03 80.65 84.14 79.56 87.44 C 79.82 85.37 80.03 83.36 79.48 81.31 C 79.10 80.19 78.49 79.13 78.24 77.98 C 78.77 76.45 79.83 75.06 80.73 73.73 Z" fill="#7c6630" />
<path d="M 174.13 75.03 L 175.08 74.71 C 172.07 79.04 167.15 80.77 163.09 84.50 C 165.39 85.17 167.02 85.28 169.25 84.32 C 173.42 82.50 177.23 79.76 181.16 77.46 C 177.13 82.50 171.90 86.64 167.15 91.01 C 169.50 90.16 171.84 89.29 174.26 88.65 C 172.90 90.21 171.46 91.67 169.77 92.88 C 167.35 93.59 164.90 94.23 162.48 94.98 C 160.96 91.82 159.18 89.02 156.84 86.41 L 157.27 85.24 C 161.04 83.92 163.70 82.43 166.40 79.44 C 168.48 76.95 171.18 76.06 174.13 75.03 Z" fill="#faefb9" />
<path d="M 226.01 75.10 C 223.45 77.85 220.99 80.70 218.35 83.37 C 215.12 83.56 212.50 82.55 209.53 84.45 C 210.72 84.87 211.93 85.26 213.13 85.63 C 209.03 86.66 205.27 86.41 201.17 85.54 C 197.28 84.92 193.44 85.00 189.54 85.46 C 188.59 84.01 187.55 83.84 186.44 84.95 C 185.66 85.64 184.88 86.32 184.07 86.97 C 183.17 87.42 182.26 87.83 181.34 88.21 C 181.60 87.21 181.88 86.22 182.17 85.23 C 182.74 84.23 183.01 83.22 182.99 82.20 L 183.03 81.14 C 184.66 80.61 186.28 80.08 187.92 79.59 C 190.94 80.39 195.06 79.04 197.64 80.74 C 198.70 83.85 201.26 83.51 203.98 83.73 C 206.76 82.87 209.42 80.44 212.34 80.69 C 217.07 80.74 221.95 77.27 226.01 75.10 Z" fill="#f9f3cb" />
<path d="M 188.72 76.79 C 188.46 77.72 188.19 78.65 187.92 79.59 C 186.28 80.08 184.66 80.61 183.03 81.14 L 183.11 79.60 C 184.92 78.49 186.79 77.67 188.72 76.79 Z" fill="#64636f" />
<path d="M 118.21 80.83 C 120.40 81.37 122.27 82.16 124.58 81.87 C 128.14 81.58 131.20 80.75 134.58 82.47 C 137.71 83.86 139.12 86.45 140.81 89.25 C 134.84 89.27 128.99 90.53 123.03 90.49 C 117.58 90.28 111.87 92.90 106.78 94.70 C 106.25 96.12 105.73 97.53 105.12 98.91 C 105.20 97.91 105.28 96.91 105.37 95.90 C 102.54 94.03 100.11 94.62 96.99 94.88 C 98.10 92.97 99.13 91.03 100.13 89.05 C 98.84 88.93 97.55 88.81 96.26 88.69 C 95.11 88.26 93.99 87.78 92.84 87.36 C 96.23 87.18 99.66 87.58 103.05 87.66 C 103.66 87.05 104.27 86.45 104.89 85.84 C 108.82 83.16 113.47 81.31 118.21 80.83 Z" fill="#f9e07f" />
<path d="M 232.11 81.26 C 233.95 80.09 235.01 82.82 232.89 83.24 C 231.73 82.94 231.47 82.28 232.11 81.26 Z" fill="#656574" />
<path d="M 72.46 84.23 C 72.04 85.65 71.63 87.07 71.19 88.49 C 70.95 89.20 70.70 89.91 70.45 90.62 C 66.61 92.04 64.84 97.23 62.00 100.09 C 56.99 99.69 51.99 99.65 46.96 99.87 C 47.27 99.05 47.25 98.32 46.90 97.67 C 45.89 96.68 44.72 98.03 44.05 98.77 L 43.57 97.94 C 44.81 96.31 45.99 94.66 47.13 92.97 C 48.15 93.51 49.16 94.06 50.18 94.61 C 51.72 93.09 53.29 91.11 55.27 90.20 C 57.05 89.82 59.11 90.22 60.91 90.45 C 62.60 87.92 63.97 85.11 65.87 82.74 C 67.51 81.20 70.75 83.58 72.46 84.23 Z" fill="#88696c" />
<path d="M 182.99 82.20 C 183.01 83.22 182.74 84.23 182.17 85.23 C 181.35 84.71 180.92 84.00 180.90 83.08 C 181.52 82.67 182.22 82.37 182.99 82.20 Z" fill="#444458" />
<path d="M 189.54 85.46 C 188.07 86.45 187.04 86.28 186.44 84.95 C 187.55 83.84 188.59 84.01 189.54 85.46 Z" fill="#6e6a73" />
<path d="M 201.17 85.54 C 201.35 87.17 201.58 88.79 201.95 90.39 C 196.12 93.75 189.95 91.72 183.79 94.21 C 185.10 96.71 186.13 98.96 189.25 99.44 C 190.95 99.06 192.59 98.19 194.18 97.48 C 192.21 102.53 190.20 107.48 189.31 112.85 C 188.95 112.35 188.57 111.87 188.20 111.38 C 186.59 110.25 184.87 109.34 183.07 108.57 C 182.25 109.53 181.38 110.52 180.74 111.60 C 180.45 112.79 180.91 114.15 181.04 115.35 C 181.27 117.18 181.78 118.75 180.45 120.33 C 179.05 121.20 177.27 121.45 175.82 122.20 C 175.07 122.99 174.58 124.06 174.07 125.01 C 173.24 123.67 172.41 122.32 171.58 120.98 C 171.48 121.91 171.38 122.84 171.28 123.76 C 169.81 122.97 168.30 122.01 166.69 121.55 C 165.30 121.39 163.78 121.91 162.41 122.17 C 160.01 119.25 157.71 116.43 154.74 114.03 C 156.40 112.37 158.00 110.62 159.55 108.85 C 161.69 109.95 163.85 111.03 166.02 112.11 C 166.31 110.84 166.61 109.58 166.90 108.31 C 168.52 107.69 170.15 107.08 171.78 106.45 C 171.88 110.56 170.98 114.46 170.52 118.51 C 174.62 113.95 177.30 109.04 177.91 102.85 C 177.02 102.93 176.12 103.02 175.23 103.12 L 176.74 102.20 C 181.06 100.21 179.64 96.37 181.94 93.05 C 184.81 91.09 187.82 89.62 190.10 86.86 C 188.13 87.40 186.22 88.07 184.32 88.83 C 184.24 88.21 184.15 87.59 184.07 86.97 C 184.88 86.32 185.66 85.64 186.44 84.95 C 187.04 86.28 188.07 86.45 189.54 85.46 C 193.44 85.00 197.28 84.92 201.17 85.54 Z" fill="#b0aca3" />
<path d="M 198.78 88.00 C 195.99 88.89 193.32 89.42 190.40 89.65 C 191.45 88.65 192.54 87.55 193.76 86.77 C 195.20 85.43 197.29 87.52 198.78 88.00 Z" fill="#747176" />
<path d="M 218.41 85.64 C 217.60 87.48 216.81 89.33 216.14 91.23 C 214.67 91.73 213.22 92.32 211.73 92.73 C 210.35 91.97 209.15 90.79 207.95 89.78 C 210.43 88.31 212.89 88.61 215.64 88.57 C 216.58 87.61 217.48 86.61 218.41 85.64 Z" fill="#f3efd5" />
<path d="M 92.84 87.36 C 93.99 87.78 95.11 88.26 96.26 88.69 C 94.79 89.72 93.38 90.84 92.05 92.03 C 92.12 93.13 92.24 94.22 92.33 95.32 C 91.19 94.96 90.06 94.59 88.92 94.22 C 87.20 95.46 85.49 96.70 83.76 97.92 C 84.81 96.34 85.89 94.78 86.95 93.21 C 84.75 93.44 82.26 93.43 80.19 94.27 C 78.28 95.79 76.86 98.01 75.36 99.92 C 76.15 101.35 76.92 102.79 77.68 104.23 C 74.55 103.97 72.95 103.48 70.63 101.32 C 71.11 100.00 71.59 98.68 72.06 97.36 C 74.69 95.60 77.29 93.80 79.92 92.04 C 83.61 90.74 87.31 89.53 90.88 87.93 C 91.53 87.71 92.18 87.52 92.84 87.36 Z" fill="#917679" />
<path d="M 156.84 86.41 C 159.18 89.02 160.96 91.82 162.48 94.98 C 163.35 96.35 164.20 99.00 166.11 99.13 C 168.13 98.82 170.03 97.06 171.66 95.93 C 173.12 96.81 174.70 97.66 175.96 98.81 C 176.46 99.84 176.53 101.09 176.74 102.20 L 175.23 103.12 C 173.76 103.94 172.82 105.18 171.78 106.45 C 170.15 107.08 168.52 107.69 166.90 108.31 C 165.25 107.58 163.61 106.82 161.93 106.15 C 161.29 104.33 160.63 102.52 160.04 100.69 C 159.25 96.40 158.27 92.30 156.10 88.47 C 156.34 87.78 156.59 87.09 156.84 86.41 Z" fill="#353446" />
<path d="M 71.19 88.49 C 74.88 88.55 78.56 88.67 82.24 88.88 C 81.48 89.94 80.72 91.00 79.92 92.04 C 77.29 93.80 74.69 95.60 72.06 97.36 C 70.31 97.66 68.64 98.15 66.97 98.75 C 68.50 96.19 69.52 93.44 70.45 90.62 C 70.70 89.91 70.95 89.20 71.19 88.49 Z" fill="#fbf1bf" />
<path d="M 152.25 88.11 C 153.53 88.22 154.82 88.35 156.10 88.47 C 158.27 92.30 159.25 96.40 160.04 100.69 C 159.29 100.54 158.54 100.43 157.79 100.35 C 154.22 100.94 151.05 102.46 147.95 104.27 C 148.73 99.97 148.43 97.90 146.61 93.89 C 147.71 94.12 148.82 94.34 149.92 94.57 C 150.50 93.97 151.09 93.37 151.67 92.78 C 153.47 92.89 155.26 92.90 157.05 92.90 C 155.47 91.29 153.84 89.71 152.25 88.11 Z" fill="#88837b" />
<path d="M 96.26 88.69 C 97.55 88.81 98.84 88.93 100.13 89.05 C 99.13 91.03 98.10 92.97 96.99 94.88 C 95.27 94.02 93.72 93.01 92.05 92.03 C 93.38 90.84 94.79 89.72 96.26 88.69 Z" fill="#a49365" />
<path d="M 140.81 89.25 C 143.70 89.48 145.87 90.94 148.41 92.17 C 146.90 92.71 145.43 93.28 143.95 93.86 C 142.04 93.36 140.16 92.85 138.23 92.45 C 134.82 91.68 130.42 91.30 127.25 92.95 C 126.23 94.08 125.60 95.62 124.89 96.95 C 130.89 100.61 135.48 105.66 140.74 110.23 C 144.81 113.81 147.56 118.15 150.66 122.52 C 153.35 126.21 155.52 130.02 157.08 134.33 C 156.04 135.56 155.01 136.81 154.10 138.14 C 152.95 136.41 151.81 134.68 150.67 132.95 C 149.85 138.41 148.46 142.82 145.25 147.36 C 146.75 148.19 148.25 149.03 149.77 149.82 C 149.39 150.56 149.01 151.30 148.62 152.03 C 146.75 151.23 144.90 150.39 143.05 149.52 C 143.09 150.42 143.12 151.31 143.16 152.21 C 142.51 151.19 141.87 150.18 141.22 149.16 C 143.78 145.79 147.30 142.57 147.36 138.03 C 147.93 131.92 144.26 125.95 140.77 121.22 C 138.19 117.66 134.62 116.62 130.99 114.63 C 129.06 113.81 129.13 111.49 128.24 109.84 C 126.35 109.64 124.35 109.96 122.45 110.11 C 120.94 109.52 119.43 108.78 117.85 108.39 C 116.23 108.41 114.57 109.13 113.03 109.60 C 112.26 112.09 111.34 114.44 109.84 116.59 C 108.88 117.31 107.75 118.03 107.03 119.01 C 105.91 122.22 105.73 125.82 105.19 129.18 C 102.21 131.78 100.30 134.37 99.95 138.45 C 99.47 141.10 98.15 143.29 97.39 145.83 C 97.81 147.22 99.16 148.37 100.04 149.50 C 96.74 150.58 93.91 151.98 91.95 154.99 C 90.11 157.50 88.18 159.77 85.67 161.64 C 80.84 165.33 77.28 170.07 73.99 175.12 C 72.63 176.48 71.32 177.88 70.00 179.28 C 69.41 179.48 68.82 179.68 68.23 179.88 C 66.69 178.75 65.12 177.67 63.53 176.62 C 66.22 172.90 69.09 169.39 71.15 165.25 L 72.87 166.58 C 71.13 168.44 69.61 170.21 68.76 172.67 C 71.88 170.76 73.66 167.48 73.06 163.81 C 72.15 158.58 75.45 154.40 74.26 149.16 C 74.81 149.51 75.36 149.86 75.91 150.20 C 77.82 145.26 80.22 140.56 82.40 135.74 C 81.90 135.08 81.39 134.43 80.87 133.79 C 79.44 132.04 77.55 131.04 75.54 130.12 C 76.65 125.74 80.99 122.53 83.85 119.06 C 83.33 118.52 82.81 117.98 82.29 117.43 C 84.42 116.87 86.18 116.38 87.72 114.69 C 93.29 109.17 99.45 104.32 105.12 98.91 C 105.73 97.53 106.25 96.12 106.78 94.70 C 111.87 92.90 117.58 90.28 123.03 90.49 C 128.99 90.53 134.84 89.27 140.81 89.25 Z" fill="#21233f" />
<path d="M 70.45 90.62 C 69.52 93.44 68.50 96.19 66.97 98.75 C 67.79 99.84 68.61 100.92 69.44 102.01 C 68.19 102.80 66.93 103.60 65.68 104.39 C 65.16 103.49 64.60 102.61 64.02 101.73 C 61.26 104.75 59.31 109.88 55.47 111.48 C 47.70 114.95 41.30 120.54 33.32 123.69 C 32.61 122.89 31.91 122.08 31.21 121.28 C 33.09 120.53 34.90 119.64 36.72 118.75 C 36.14 117.31 35.54 115.88 34.98 114.43 C 38.78 113.54 42.42 112.25 46.00 110.70 C 45.68 108.16 45.76 106.13 43.59 104.37 C 42.54 102.99 41.05 103.74 39.56 103.76 C 40.84 101.77 42.08 99.77 43.57 97.94 L 44.05 98.77 C 44.48 99.71 45.45 100.07 46.96 99.87 C 51.99 99.65 56.99 99.69 62.00 100.09 C 64.84 97.23 66.61 92.04 70.45 90.62 Z" fill="#1f223c" />
<path d="M 201.95 90.39 C 207.88 90.48 212.07 95.76 212.55 101.34 C 210.73 100.99 208.47 100.29 206.62 100.79 C 204.01 102.15 201.95 104.53 199.17 105.78 C 197.80 106.50 196.04 106.95 194.92 108.02 C 192.73 110.71 191.33 114.21 190.35 117.51 C 189.82 119.41 189.22 121.29 188.64 123.18 C 188.46 121.72 188.30 120.26 188.15 118.81 C 186.23 120.92 184.31 122.81 181.75 124.15 C 183.56 119.80 187.01 116.84 189.31 112.85 C 190.20 107.48 192.21 102.53 194.18 97.48 C 192.59 98.19 190.95 99.06 189.25 99.44 C 186.13 98.96 185.10 96.71 183.79 94.21 C 189.95 91.72 196.12 93.75 201.95 90.39 Z" fill="#f4eab3" />
<path d="M 138.23 92.45 C 135.35 95.35 134.07 99.77 134.22 103.77 C 138.05 103.44 140.40 101.12 143.11 98.68 C 143.90 104.36 145.11 110.37 147.70 115.52 C 149.05 116.64 150.49 117.63 151.96 118.58 C 152.29 119.85 152.62 121.12 152.95 122.39 C 152.19 122.44 151.42 122.48 150.66 122.52 C 147.56 118.15 144.81 113.81 140.74 110.23 C 135.48 105.66 130.89 100.61 124.89 96.95 C 125.60 95.62 126.23 94.08 127.25 92.95 C 130.42 91.30 134.82 91.68 138.23 92.45 Z" fill="#4b453d" />
<path d="M 92.05 92.03 C 93.72 93.01 95.27 94.02 96.99 94.88 C 100.11 94.62 102.54 94.03 105.37 95.90 C 105.28 96.91 105.20 97.91 105.12 98.91 C 99.45 104.32 93.29 109.17 87.72 114.69 C 86.18 116.38 84.42 116.87 82.29 117.43 C 81.23 117.79 80.19 118.17 79.15 118.59 C 78.86 117.81 78.57 117.03 78.28 116.24 C 78.82 115.81 79.36 115.38 79.90 114.96 C 81.67 113.76 83.69 112.77 85.28 111.33 C 85.95 110.00 86.43 108.56 86.97 107.17 C 89.43 106.10 91.49 104.80 93.58 103.10 C 92.44 102.62 91.29 102.15 90.13 101.71 C 91.41 99.66 92.67 97.86 92.33 95.32 C 92.24 94.22 92.12 93.13 92.05 92.03 Z" fill="#f1e8b5" />
<path d="M 148.41 92.17 C 149.49 92.39 150.58 92.60 151.67 92.78 C 151.09 93.37 150.50 93.97 149.92 94.57 C 148.82 94.34 147.71 94.12 146.61 93.89 C 148.43 97.90 148.73 99.97 147.95 104.27 C 148.00 107.47 148.93 110.38 149.99 113.37 C 149.49 114.16 148.99 114.96 148.50 115.76 L 147.70 115.52 C 145.11 110.37 143.90 104.36 143.11 98.68 C 143.93 97.89 144.73 97.07 145.53 96.25 C 145.00 95.45 144.47 94.66 143.95 93.86 C 145.43 93.28 146.90 92.71 148.41 92.17 Z" fill="#6c665c" />
<path d="M 86.95 93.21 C 85.89 94.78 84.81 96.34 83.76 97.92 C 85.49 96.70 87.20 95.46 88.92 94.22 C 90.06 94.59 91.19 94.96 92.33 95.32 C 92.67 97.86 91.41 99.66 90.13 101.71 C 89.62 102.04 89.11 102.37 88.60 102.69 C 87.23 102.36 85.82 101.93 84.40 101.82 C 81.05 104.61 78.65 108.82 76.30 112.45 C 77.19 112.53 78.09 112.61 78.99 112.68 C 78.76 113.56 78.53 114.44 78.30 115.32 C 75.78 115.85 73.23 116.25 70.67 116.60 C 68.83 112.60 67.35 108.46 65.68 104.39 C 66.93 103.60 68.19 102.80 69.44 102.01 C 68.61 100.92 67.79 99.84 66.97 98.75 C 68.64 98.15 70.31 97.66 72.06 97.36 C 71.59 98.68 71.11 100.00 70.63 101.32 C 72.95 103.48 74.55 103.97 77.68 104.23 C 76.92 102.79 76.15 101.35 75.36 99.92 C 76.86 98.01 78.28 95.79 80.19 94.27 C 82.26 93.43 84.75 93.44 86.95 93.21 Z" fill="#4a443c" />
<path d="M 138.23 92.45 C 140.16 92.85 142.04 93.36 143.95 93.86 C 144.47 94.66 145.00 95.45 145.53 96.25 C 144.73 97.07 143.93 97.89 143.11 98.68 C 140.40 101.12 138.05 103.44 134.22 103.77 C 134.07 99.77 135.35 95.35 138.23 92.45 Z" fill="#d0b562" />
<path d="M 169.77 92.88 C 170.41 93.89 171.04 94.91 171.66 95.93 C 170.03 97.06 168.13 98.82 166.11 99.13 C 164.20 99.00 163.35 96.35 162.48 94.98 C 164.90 94.23 167.35 93.59 169.77 92.88 Z" fill="#605f66" />
<path d="M 216.51 93.11 C 217.56 91.70 219.52 93.49 217.88 94.45 C 216.83 94.52 216.37 94.07 216.51 93.11 Z" fill="#a5a29c" />
<path d="M 46.90 97.67 C 47.25 98.32 47.27 99.05 46.96 99.87 C 45.45 100.07 44.48 99.71 44.05 98.77 C 44.72 98.03 45.89 96.68 46.90 97.67 Z" fill="#dad9da" />
<path d="M 157.79 100.35 C 154.53 104.31 153.17 109.30 149.99 113.37 C 148.93 110.38 148.00 107.47 147.95 104.27 C 151.05 102.46 154.22 100.94 157.79 100.35 Z" fill="#b7b093" />
<path d="M 157.79 100.35 C 158.54 100.43 159.29 100.54 160.04 100.69 C 160.63 102.52 161.29 104.33 161.93 106.15 C 161.11 107.04 160.34 107.94 159.55 108.85 C 158.00 110.62 156.40 112.37 154.74 114.03 C 152.73 114.98 150.76 115.76 148.50 115.76 C 148.99 114.96 149.49 114.16 149.99 113.37 C 153.17 109.30 154.53 104.31 157.79 100.35 Z" fill="#f1e8b3" />
<path d="M 212.55 101.34 L 213.40 102.18 C 212.59 105.66 211.58 108.41 209.40 111.29 C 209.69 109.88 209.93 108.47 210.18 107.06 C 209.23 107.78 208.28 108.50 207.34 109.22 C 206.20 108.49 205.06 107.73 203.85 107.13 C 200.99 108.09 198.37 109.76 195.58 110.93 C 195.45 113.40 194.97 114.99 193.71 117.13 C 192.59 117.26 191.47 117.38 190.35 117.51 C 191.33 114.21 192.73 110.71 194.92 108.02 C 196.04 106.95 197.80 106.50 199.17 105.78 C 201.95 104.53 204.01 102.15 206.62 100.79 C 208.47 100.29 210.73 100.99 212.55 101.34 Z" fill="#aba69d" />
<path d="M 84.40 101.82 C 85.82 101.93 87.23 102.36 88.60 102.69 C 88.07 104.19 87.52 105.68 86.97 107.17 C 86.43 108.56 85.95 110.00 85.28 111.33 C 83.69 112.77 81.67 113.76 79.90 114.96 L 78.30 115.32 C 78.53 114.44 78.76 113.56 78.99 112.68 C 78.09 112.61 77.19 112.53 76.30 112.45 C 78.65 108.82 81.05 104.61 84.40 101.82 Z" fill="#1f223c" />
<path d="M 56.75 102.21 C 57.76 103.13 58.74 104.09 59.71 105.04 C 58.00 106.80 56.37 108.00 54.19 109.09 C 53.53 108.03 52.87 106.97 52.21 105.90 C 53.18 104.91 54.15 103.88 55.19 102.95 C 55.70 102.69 56.22 102.45 56.75 102.21 Z" fill="#cb5752" />
<path d="M 64.02 101.73 C 64.60 102.61 65.16 103.49 65.68 104.39 C 67.35 108.46 68.83 112.60 70.67 116.60 C 71.38 118.05 72.10 119.43 73.19 120.62 C 75.24 120.31 77.23 119.38 79.15 118.59 C 80.19 118.17 81.23 117.79 82.29 117.43 C 82.81 117.98 83.33 118.52 83.85 119.06 C 80.99 122.53 76.65 125.74 75.54 130.12 C 73.66 130.67 71.76 131.27 70.00 132.14 C 66.92 133.74 64.94 136.24 61.60 137.37 C 58.54 138.36 55.86 139.57 53.29 141.52 L 52.81 141.55 C 50.88 141.58 48.59 141.19 46.88 142.18 C 45.17 143.07 43.57 144.19 41.98 145.26 C 40.55 144.73 39.11 144.21 37.68 143.67 C 38.22 146.65 38.19 148.58 37.07 151.40 C 35.79 151.12 34.50 150.85 33.22 150.57 C 32.83 151.42 32.46 152.27 32.09 153.12 C 31.63 151.07 31.33 149.12 31.53 147.02 C 32.59 147.29 33.65 147.55 34.70 147.81 C 33.89 145.03 34.32 142.30 30.91 141.56 C 28.52 138.52 25.98 135.65 23.01 133.16 C 23.60 131.24 24.12 129.01 25.31 127.37 C 26.85 126.00 29.12 125.36 30.99 124.55 C 31.97 128.86 31.97 133.41 33.18 137.65 C 35.92 140.34 40.18 136.89 42.41 135.06 C 39.39 131.19 36.58 127.34 33.32 123.69 C 41.30 120.54 47.70 114.95 55.47 111.48 C 59.31 109.88 61.26 104.75 64.02 101.73 Z" fill="#87686c" />
<path d="M 90.13 101.71 C 91.29 102.15 92.44 102.62 93.58 103.10 C 91.49 104.80 89.43 106.10 86.97 107.17 C 87.52 105.68 88.07 104.19 88.60 102.69 C 89.11 102.37 89.62 102.04 90.13 101.71 Z" fill="#b5ad8f" />
<path d="M 213.40 102.18 C 213.95 102.74 214.48 103.32 215.00 103.91 C 215.83 105.52 216.77 107.18 217.24 108.93 C 217.04 110.13 216.83 111.33 216.61 112.53 C 215.32 113.12 214.03 113.72 212.72 114.29 C 210.78 114.82 208.90 115.36 206.87 115.32 C 207.71 113.97 208.56 112.63 209.40 111.29 C 211.58 108.41 212.59 105.66 213.40 102.18 Z" fill="#f0e7b4" />
<path d="M 175.23 103.12 C 176.12 103.02 177.02 102.93 177.91 102.85 C 177.30 109.04 174.62 113.95 170.52 118.51 C 170.98 114.46 171.88 110.56 171.78 106.45 C 172.82 105.18 173.76 103.94 175.23 103.12 Z" fill="#f4ecbc" />
<path d="M 215.27 103.82 C 216.13 103.56 216.87 103.24 217.58 102.69 C 220.56 110.39 221.02 120.03 218.78 127.97 C 218.09 127.76 217.40 127.54 216.71 127.32 C 218.07 121.27 218.35 115.05 217.24 108.93 C 216.77 107.18 215.83 105.52 215.00 103.91 L 215.27 103.82 Z" fill="#38363f" />
<path d="M 161.93 106.15 C 163.61 106.82 165.25 107.58 166.90 108.31 C 166.61 109.58 166.31 110.84 166.02 112.11 C 163.85 111.03 161.69 109.95 159.55 108.85 C 160.34 107.94 161.11 107.04 161.93 106.15 Z" fill="#88837c" />
<path d="M 203.85 107.13 C 205.06 107.73 206.20 108.49 207.34 109.22 C 208.28 108.50 209.23 107.78 210.18 107.06 C 209.93 108.47 209.69 109.88 209.40 111.29 C 208.56 112.63 207.71 113.97 206.87 115.32 C 203.55 113.48 201.27 110.06 197.17 111.83 C 197.03 113.18 196.87 114.53 196.68 115.87 C 195.93 118.06 195.04 120.19 194.19 122.34 C 194.03 120.61 193.86 118.87 193.71 117.13 C 194.97 114.99 195.45 113.40 195.58 110.93 C 198.37 109.76 200.99 108.09 203.85 107.13 Z" fill="#8c877f" />
<path d="M 117.85 108.39 C 119.43 108.78 120.94 109.52 122.45 110.11 C 117.06 110.54 114.20 114.01 109.84 116.59 C 111.34 114.44 112.26 112.09 113.03 109.60 C 114.57 109.13 116.23 108.41 117.85 108.39 Z" fill="#b59f66" />
<path d="M 128.24 109.84 C 129.13 111.49 129.06 113.81 130.99 114.63 C 134.62 116.62 138.19 117.66 140.77 121.22 C 144.26 125.95 147.93 131.92 147.36 138.03 C 147.30 142.57 143.78 145.79 141.22 149.16 C 141.87 150.18 142.51 151.19 143.16 152.21 C 143.12 151.31 143.09 150.42 143.05 149.52 C 144.90 150.39 146.75 151.23 148.62 152.03 C 149.01 151.30 149.39 150.56 149.77 149.82 C 148.25 149.03 146.75 148.19 145.25 147.36 C 148.46 142.82 149.85 138.41 150.67 132.95 C 151.81 134.68 152.95 136.41 154.10 138.14 C 153.58 139.07 153.10 140.01 152.61 140.96 C 153.76 141.96 154.91 142.95 156.05 143.96 C 157.20 142.41 158.31 140.02 160.03 139.10 C 161.40 139.24 162.76 139.66 164.09 139.99 C 165.96 138.21 167.75 136.38 169.24 134.27 C 171.21 131.36 172.62 128.20 174.07 125.01 C 174.58 124.06 175.07 122.99 175.82 122.20 C 177.27 121.45 179.05 121.20 180.45 120.33 C 181.78 118.75 181.27 117.18 181.04 115.35 C 183.64 114.30 185.94 113.06 188.20 111.38 C 188.57 111.87 188.95 112.35 189.31 112.85 C 187.01 116.84 183.56 119.80 181.75 124.15 C 184.31 122.81 186.23 120.92 188.15 118.81 C 188.30 120.26 188.46 121.72 188.64 123.18 C 189.22 121.29 189.82 119.41 190.35 117.51 C 191.47 117.38 192.59 117.26 193.71 117.13 C 193.86 118.87 194.03 120.61 194.19 122.34 C 194.38 125.46 194.97 128.49 195.49 131.56 L 195.08 132.91 L 194.70 134.17 C 195.72 136.53 197.21 138.75 198.03 141.16 C 198.80 143.90 198.62 147.03 198.58 149.86 C 199.86 148.43 201.14 146.84 202.71 145.72 C 206.07 145.23 210.02 145.39 213.03 147.15 C 213.73 148.15 214.41 149.18 215.10 150.20 C 214.78 153.99 213.79 157.00 212.35 160.50 C 210.10 165.05 213.63 169.42 215.57 173.39 C 218.91 178.26 224.65 181.84 230.06 184.05 C 232.51 185.07 234.09 187.36 234.85 189.83 C 234.43 190.97 233.72 192.03 233.06 193.04 C 231.39 194.07 229.69 194.97 227.98 195.90 C 226.66 195.00 225.35 194.13 224.07 193.19 C 221.56 191.07 219.26 188.31 216.42 186.67 C 212.76 185.85 208.86 185.91 205.22 184.89 C 202.99 184.22 201.06 182.20 199.21 180.80 C 196.29 178.41 193.03 176.70 189.93 174.56 C 184.50 168.84 181.55 161.65 179.92 154.03 C 179.21 151.64 179.24 146.71 176.95 145.43 C 173.91 146.11 170.56 147.39 167.71 148.66 C 165.77 151.18 164.58 153.98 162.03 156.04 C 159.04 158.49 157.01 161.65 154.46 164.48 C 151.03 167.68 146.08 168.87 141.49 168.36 C 141.48 165.97 141.10 164.02 140.32 161.77 C 136.90 163.82 133.90 166.35 130.74 168.75 C 130.31 166.79 129.86 164.82 129.44 162.85 L 129.13 161.24 C 127.15 163.68 125.17 165.45 122.58 167.23 C 122.99 168.85 123.61 170.39 124.31 171.89 L 124.92 173.31 C 123.95 173.11 122.99 172.90 122.02 172.70 C 122.21 166.91 122.98 160.28 126.23 155.32 C 129.12 150.87 135.36 148.82 139.13 145.15 C 140.31 144.05 140.30 142.56 140.43 141.06 C 140.55 137.33 140.19 133.45 138.98 129.91 C 137.52 126.04 133.66 123.05 130.32 120.82 C 130.46 121.46 130.62 122.10 130.78 122.73 C 131.91 125.00 133.70 127.03 134.61 129.37 C 135.84 134.25 132.51 139.04 128.55 141.57 C 128.48 140.87 128.41 140.16 128.33 139.46 C 124.25 141.42 121.79 142.06 117.23 141.93 C 111.53 144.55 106.12 147.65 100.04 149.50 C 99.16 148.37 97.81 147.22 97.39 145.83 C 98.15 143.29 99.47 141.10 99.95 138.45 C 105.13 139.22 109.26 135.93 111.78 131.69 C 113.05 134.17 114.17 136.99 115.97 139.14 C 116.82 140.30 118.56 139.97 119.81 139.94 C 123.52 139.59 127.22 138.68 130.85 137.85 C 128.96 135.84 127.00 133.97 124.88 132.21 C 124.19 133.57 123.50 134.94 122.81 136.31 C 121.52 136.17 120.23 136.02 118.94 135.87 C 117.96 130.99 118.95 126.43 119.54 121.59 L 119.68 120.85 C 114.49 123.45 110.97 127.70 105.19 129.18 C 105.73 125.82 105.91 122.22 107.03 119.01 C 107.75 118.03 108.88 117.31 109.84 116.59 C 114.20 114.01 117.06 110.54 122.45 110.11 C 124.35 109.96 126.35 109.64 128.24 109.84 Z" fill="#4b453c" />
<path d="M 183.07 108.57 C 184.87 109.34 186.59 110.25 188.20 111.38 C 185.94 113.06 183.64 114.30 181.04 115.35 C 180.91 114.15 180.45 112.79 180.74 111.60 C 181.38 110.52 182.25 109.53 183.07 108.57 Z" fill="#87827a" />
<path d="M 217.24 108.93 C 218.35 115.05 218.07 121.27 216.71 127.32 C 216.04 123.01 215.51 118.69 215.21 114.34 C 214.38 114.31 213.55 114.29 212.72 114.29 C 214.03 113.72 215.32 113.12 216.61 112.53 C 216.83 111.33 217.04 110.13 217.24 108.93 Z" fill="#e8e4cd" />
<path d="M 206.87 115.32 C 208.90 115.36 210.78 114.82 212.72 114.29 C 213.55 114.29 214.38 114.31 215.21 114.34 C 215.51 118.69 216.04 123.01 216.71 127.32 C 217.40 127.54 218.09 127.76 218.78 127.97 L 218.18 129.22 C 216.82 130.47 215.48 131.74 214.15 133.02 C 214.59 134.71 215.21 136.49 215.27 138.24 C 213.68 139.42 211.89 140.37 210.18 141.37 C 210.40 141.78 210.61 142.19 210.83 142.60 C 212.47 143.58 214.06 144.61 215.62 145.70 C 214.76 146.19 213.89 146.67 213.03 147.15 C 210.02 145.39 206.07 145.23 202.71 145.72 C 201.14 146.84 199.86 148.43 198.58 149.86 C 198.62 147.03 198.80 143.90 198.03 141.16 C 197.21 138.75 195.72 136.53 194.70 134.17 L 195.08 132.91 C 196.83 134.79 198.70 136.74 200.87 138.14 C 202.65 139.27 205.22 139.42 206.67 137.66 C 209.02 134.90 209.75 130.64 209.67 127.11 C 209.64 124.30 207.77 122.45 206.12 120.39 C 203.16 116.87 201.26 116.11 196.68 115.87 C 196.87 114.53 197.03 113.18 197.17 111.83 C 201.27 110.06 203.55 113.48 206.87 115.32 Z" fill="#6e6860" />
<path d="M 154.74 114.03 C 157.71 116.43 160.01 119.25 162.41 122.17 C 163.78 121.91 165.30 121.39 166.69 121.55 C 168.30 122.01 169.81 122.97 171.28 123.76 C 171.38 122.84 171.48 121.91 171.58 120.98 C 172.41 122.32 173.24 123.67 174.07 125.01 C 172.62 128.20 171.21 131.36 169.24 134.27 C 168.41 134.46 167.58 134.65 166.75 134.83 C 167.87 133.11 168.99 131.39 170.13 129.68 C 168.47 127.87 166.36 125.05 163.80 124.67 C 161.58 124.80 159.36 125.69 157.23 126.32 C 156.57 125.65 155.91 124.97 155.25 124.29 C 156.34 123.28 157.43 122.26 158.50 121.23 C 156.34 119.63 154.69 118.68 151.96 118.58 C 150.49 117.63 149.05 116.64 147.70 115.52 L 148.50 115.76 C 150.76 115.76 152.73 114.98 154.74 114.03 Z" fill="#89847d" />
<path d="M 78.30 115.32 L 79.90 114.96 C 79.36 115.38 78.82 115.81 78.28 116.24 C 78.57 117.03 78.86 117.81 79.15 118.59 C 77.23 119.38 75.24 120.31 73.19 120.62 C 72.10 119.43 71.38 118.05 70.67 116.60 C 73.23 116.25 75.78 115.85 78.30 115.32 Z" fill="#655b55" />
<path d="M 196.68 115.87 C 201.26 116.11 203.16 116.87 206.12 120.39 C 203.50 122.20 201.70 123.65 200.74 126.80 C 202.65 125.85 204.51 124.82 206.38 123.79 C 207.77 127.44 208.54 134.81 203.89 136.43 C 200.82 136.36 197.88 133.27 195.49 131.56 C 194.97 128.49 194.38 125.46 194.19 122.34 C 195.04 120.19 195.93 118.06 196.68 115.87 Z" fill="#58524a" />
<path d="M 158.50 121.23 C 157.43 122.26 156.34 123.28 155.25 124.29 C 155.91 124.97 156.57 125.65 157.23 126.32 C 159.36 125.69 161.58 124.80 163.80 124.67 C 166.36 125.05 168.47 127.87 170.13 129.68 C 168.99 131.39 167.87 133.11 166.75 134.83 C 167.58 134.65 168.41 134.46 169.24 134.27 C 167.75 136.38 165.96 138.21 164.09 139.99 C 162.76 139.66 161.40 139.24 160.03 139.10 C 158.31 140.02 157.20 142.41 156.05 143.96 C 154.91 142.95 153.76 141.96 152.61 140.96 C 153.10 140.01 153.58 139.07 154.10 138.14 C 155.01 136.81 156.04 135.56 157.08 134.33 C 155.52 130.02 153.35 126.21 150.66 122.52 C 151.42 122.48 152.19 122.44 152.95 122.39 C 152.62 121.12 152.29 119.85 151.96 118.58 C 154.69 118.68 156.34 119.63 158.50 121.23 Z" fill="#635d54" />
<path d="M 29.94 118.78 C 30.10 119.69 30.26 120.61 30.42 121.53 C 30.60 122.53 30.79 123.54 30.99 124.55 C 29.12 125.36 26.85 126.00 25.31 127.37 C 24.12 129.01 23.60 131.24 23.01 133.16 C 20.56 131.65 20.16 128.94 21.27 126.51 C 23.87 124.67 26.90 123.21 29.74 121.77 C 29.80 120.77 29.87 119.78 29.94 118.78 Z" fill="#0a0b21" />
<path d="M 191.18 120.22 C 192.82 119.27 194.10 121.37 192.83 122.61 C 191.18 123.55 189.95 121.46 191.18 120.22 Z" fill="#767373" />
<path d="M 30.42 121.53 L 31.21 121.28 C 31.91 122.08 32.61 122.89 33.32 123.69 C 36.58 127.34 39.39 131.19 42.41 135.06 C 40.18 136.89 35.92 140.34 33.18 137.65 C 31.97 133.41 31.97 128.86 30.99 124.55 C 30.79 123.54 30.60 122.53 30.42 121.53 Z" fill="#bf9b3d" />
<path d="M 119.68 120.85 L 119.54 121.59 C 116.14 124.44 113.94 127.88 111.78 131.69 C 109.26 135.93 105.13 139.22 99.95 138.45 C 100.30 134.37 102.21 131.78 105.19 129.18 C 110.97 127.70 114.49 123.45 119.68 120.85 Z" fill="#f3eab4" />
<path d="M 130.32 120.82 C 133.66 123.05 137.52 126.04 138.98 129.91 C 140.19 133.45 140.55 137.33 140.43 141.06 C 140.30 142.56 140.31 144.05 139.13 145.15 C 135.36 148.82 129.12 150.87 126.23 155.32 C 122.98 160.28 122.21 166.91 122.02 172.70 C 122.99 172.90 123.95 173.11 124.92 173.31 C 125.77 175.47 126.39 177.72 126.83 180.00 C 126.37 180.83 125.92 181.67 125.46 182.51 C 122.34 182.78 119.20 182.88 116.08 183.22 C 113.45 183.36 111.41 185.51 109.33 186.95 C 107.43 187.85 105.75 187.61 103.76 187.32 C 104.59 186.11 105.39 184.89 106.21 183.67 C 111.41 179.95 116.30 176.21 118.13 169.76 C 119.52 166.28 120.49 162.70 121.33 159.05 C 122.14 155.35 123.94 152.72 126.45 149.96 C 128.52 147.43 130.18 144.82 133.07 143.10 C 134.43 142.01 137.03 140.87 137.18 138.95 C 137.54 135.58 137.42 131.84 136.36 128.59 C 135.14 126.27 132.66 124.52 130.78 122.73 C 130.62 122.10 130.46 121.46 130.32 120.82 Z" fill="#1f223c" />
<path d="M 206.12 120.39 C 207.77 122.45 209.64 124.30 209.67 127.11 C 209.75 130.64 209.02 134.90 206.67 137.66 C 205.22 139.42 202.65 139.27 200.87 138.14 C 198.70 136.74 196.83 134.79 195.08 132.91 L 195.49 131.56 C 197.88 133.27 200.82 136.36 203.89 136.43 C 208.54 134.81 207.77 127.44 206.38 123.79 C 204.51 124.82 202.65 125.85 200.74 126.80 C 201.70 123.65 203.50 122.20 206.12 120.39 Z" fill="#13132b" />
<path d="M 119.54 121.59 C 118.95 126.43 117.96 130.99 118.94 135.87 C 120.23 136.02 121.52 136.17 122.81 136.31 C 123.50 134.94 124.19 133.57 124.88 132.21 C 127.00 133.97 128.96 135.84 130.85 137.85 C 127.22 138.68 123.52 139.59 119.81 139.94 C 118.56 139.97 116.82 140.30 115.97 139.14 C 114.17 136.99 113.05 134.17 111.78 131.69 C 113.94 127.88 116.14 124.44 119.54 121.59 Z" fill="#1f223c" />
<path d="M 130.78 122.73 C 132.66 124.52 135.14 126.27 136.36 128.59 C 137.42 131.84 137.54 135.58 137.18 138.95 C 137.03 140.87 134.43 142.01 133.07 143.10 C 130.18 144.82 128.52 147.43 126.45 149.96 C 124.17 149.58 121.90 149.16 119.63 148.76 C 121.23 148.36 122.82 147.97 124.42 147.59 C 124.79 145.70 125.20 143.82 125.59 141.93 C 126.58 141.82 127.57 141.70 128.55 141.57 C 132.51 139.04 135.84 134.25 134.61 129.37 C 133.70 127.03 131.91 125.00 130.78 122.73 Z" fill="#d3bc71" />
<path d="M 44.06 123.81 C 46.51 125.26 49.03 126.46 48.63 129.78 C 48.38 132.85 46.23 133.74 43.88 135.13 C 43.72 131.36 43.85 127.58 44.06 123.81 Z" fill="#c29e41" />
<path d="M 51.95 123.92 C 54.41 124.66 56.27 126.19 58.18 127.84 C 57.03 128.44 55.89 129.05 54.75 129.66 C 53.13 127.87 52.19 126.38 51.95 123.92 Z" fill="#b89d59" />
<path d="M 218.18 129.22 C 217.91 133.52 217.43 137.57 215.80 141.59 C 216.69 141.15 217.59 140.70 218.48 140.26 C 217.37 143.56 215.95 146.83 215.10 150.20 C 214.41 149.18 213.73 148.15 213.03 147.15 C 213.89 146.67 214.76 146.19 215.62 145.70 C 214.06 144.61 212.47 143.58 210.83 142.60 C 210.61 142.19 210.40 141.78 210.18 141.37 C 211.89 140.37 213.68 139.42 215.27 138.24 C 215.21 136.49 214.59 134.71 214.15 133.02 C 215.48 131.74 216.82 130.47 218.18 129.22 Z" fill="#b1ada4" />
<path d="M 75.54 130.12 C 77.55 131.04 79.44 132.04 80.87 133.79 C 80.40 133.71 79.93 133.65 79.46 133.61 C 77.15 136.02 74.20 137.70 71.92 140.09 C 71.38 141.89 71.32 143.87 71.14 145.73 C 70.64 146.53 70.10 147.34 69.68 148.18 C 70.36 149.13 71.22 149.95 72.01 150.80 C 70.88 151.68 69.82 152.63 68.75 153.58 C 67.95 153.04 67.11 152.59 66.22 152.20 C 67.45 148.15 67.89 144.00 69.65 140.09 C 66.89 141.48 63.95 142.68 61.39 144.40 C 59.36 146.31 58.25 149.20 56.57 151.43 C 56.51 149.52 56.72 147.54 56.44 145.64 C 55.45 144.22 54.33 142.90 53.29 141.52 C 55.86 139.57 58.54 138.36 61.60 137.37 C 64.94 136.24 66.92 133.74 70.00 132.14 C 71.76 131.27 73.66 130.67 75.54 130.12 Z" fill="#4b453c" />
<path d="M 79.46 133.61 C 79.93 133.65 80.40 133.71 80.87 133.79 C 81.39 134.43 81.90 135.08 82.40 135.74 C 78.90 137.61 76.04 139.82 73.26 142.63 C 73.64 144.80 73.95 146.98 74.26 149.16 C 73.50 149.70 72.75 150.24 72.01 150.80 C 71.22 149.95 70.36 149.13 69.68 148.18 C 70.10 147.34 70.64 146.53 71.14 145.73 C 71.32 143.87 71.38 141.89 71.92 140.09 C 74.20 137.70 77.15 136.02 79.46 133.61 Z" fill="#b7af91" />
<path d="M 184.25 133.58 C 185.82 132.79 187.05 135.27 185.88 136.33 C 184.33 137.11 183.10 134.62 184.25 133.58 Z" fill="#858078" />
<path d="M 82.40 135.74 C 80.22 140.56 77.82 145.26 75.91 150.20 C 75.36 149.86 74.81 149.51 74.26 149.16 C 73.95 146.98 73.64 144.80 73.26 142.63 C 76.04 139.82 78.90 137.61 82.40 135.74 Z" fill="#f1e9b9" />
<path d="M 178.14 136.15 C 179.95 134.93 181.04 137.70 178.96 138.15 C 177.82 137.86 177.55 137.19 178.14 136.15 Z" fill="#8b857c" />
<path d="M 128.33 139.46 C 128.41 140.16 128.48 140.87 128.55 141.57 C 127.57 141.70 126.58 141.82 125.59 141.93 C 125.20 143.82 124.79 145.70 124.42 147.59 C 122.82 147.97 121.23 148.36 119.63 148.76 C 116.19 149.46 112.98 150.81 109.62 151.75 C 106.89 152.54 103.84 149.68 101.03 150.75 C 97.89 151.83 94.89 153.43 91.95 154.99 C 93.91 151.98 96.74 150.58 100.04 149.50 C 106.12 147.65 111.53 144.55 117.23 141.93 C 121.79 142.06 124.25 141.42 128.33 139.46 Z" fill="#f2e9b3" />
<path d="M 34.70 147.81 C 33.65 147.55 32.59 147.29 31.53 147.02 C 31.58 145.17 31.31 143.36 30.91 141.56 C 34.32 142.30 33.89 145.03 34.70 147.81 Z" fill="#3c3a48" />
<path d="M 52.81 141.55 C 45.38 146.92 37.07 152.75 31.60 160.20 C 30.61 161.28 29.53 162.27 28.45 163.26 C 29.84 160.71 31.12 158.24 31.60 155.33 C 31.77 154.59 31.93 153.86 32.09 153.12 C 32.46 152.27 32.83 151.42 33.22 150.57 C 34.50 150.85 35.79 151.12 37.07 151.40 C 38.19 148.58 38.22 146.65 37.68 143.67 C 39.11 144.21 40.55 144.73 41.98 145.26 C 43.57 144.19 45.17 143.07 46.88 142.18 C 48.59 141.19 50.88 141.58 52.81 141.55 Z" fill="#2b2c44" />
<path d="M 80.11 145.11 C 79.15 150.01 78.17 154.57 74.85 158.48 C 75.48 153.51 77.75 149.44 80.11 145.11 Z" fill="#949297" />
<path d="M 176.95 145.43 C 179.24 146.71 179.21 151.64 179.92 154.03 C 178.12 154.18 176.30 154.32 174.50 154.55 C 172.40 157.19 170.24 160.52 169.80 163.92 C 170.18 165.73 171.20 167.42 171.91 169.12 C 172.72 170.86 172.55 172.76 172.95 174.75 C 174.07 180.41 179.32 184.23 180.54 189.51 C 181.44 192.68 181.64 195.88 181.29 199.14 C 175.77 208.20 165.53 211.93 159.27 220.79 C 156.14 219.89 153.30 220.05 150.81 217.73 C 154.21 215.12 157.82 211.85 157.73 207.18 C 157.07 203.33 153.49 199.93 151.52 196.61 C 155.35 197.52 157.71 200.50 161.27 201.77 C 164.99 202.69 169.31 201.94 171.76 198.78 C 174.62 195.09 174.38 190.20 173.03 185.96 C 171.63 181.74 169.61 177.58 167.03 173.96 C 164.58 170.58 160.65 168.38 156.40 169.32 C 149.35 170.79 142.50 175.22 141.96 183.03 C 142.53 187.13 144.22 190.94 144.49 195.13 C 145.30 195.29 146.11 195.44 146.92 195.60 C 146.05 198.33 145.37 201.12 144.75 203.92 C 144.28 204.18 143.81 204.43 143.34 204.69 C 142.03 203.46 140.72 202.25 139.34 201.11 C 137.61 199.79 135.76 198.58 133.96 197.35 C 133.67 193.26 131.46 190.43 129.25 187.17 C 130.57 184.76 131.92 182.51 132.92 179.94 C 132.13 176.22 131.43 172.49 130.74 168.75 C 133.90 166.35 136.90 163.82 140.32 161.77 C 141.10 164.02 141.48 165.97 141.49 168.36 C 146.08 168.87 151.03 167.68 154.46 164.48 C 157.01 161.65 159.04 158.49 162.03 156.04 C 164.58 153.98 165.77 151.18 167.71 148.66 C 170.56 147.39 173.91 146.11 176.95 145.43 Z" fill="#f0f0ef" />
<path d="M 119.63 148.76 C 121.90 149.16 124.17 149.58 126.45 149.96 C 123.94 152.72 122.14 155.35 121.33 159.05 C 118.68 159.89 116.09 160.86 113.46 161.74 C 109.49 163.05 105.03 162.99 100.90 163.56 C 95.14 164.05 90.64 166.39 85.17 168.13 C 86.28 168.69 87.38 169.26 88.48 169.83 C 83.46 171.26 78.69 172.82 73.99 175.12 C 77.28 170.07 80.84 165.33 85.67 161.64 C 88.18 159.77 90.11 157.50 91.95 154.99 C 94.89 153.43 97.89 151.83 101.03 150.75 C 103.84 149.68 106.89 152.54 109.62 151.75 C 112.98 150.81 116.19 149.46 119.63 148.76 Z" fill="#48433a" />
<path d="M 137.52 151.09 C 135.84 153.87 133.79 155.20 130.79 156.31 C 132.76 153.87 134.65 152.38 137.52 151.09 Z" fill="#c3bfbd" />
<path d="M 174.50 154.55 C 176.30 154.32 178.12 154.18 179.92 154.03 C 181.55 161.65 184.50 168.84 189.93 174.56 C 190.00 176.42 190.08 178.27 190.29 180.12 C 189.06 179.59 187.83 179.05 186.62 178.46 C 183.92 176.48 180.96 176.14 177.74 175.75 C 177.55 175.23 177.36 174.71 177.17 174.18 C 176.65 174.88 176.13 175.58 175.61 176.28 C 174.76 175.43 173.90 174.57 173.00 173.79 L 172.95 174.75 C 172.55 172.76 172.72 170.86 171.91 169.12 C 171.20 167.42 170.18 165.73 169.80 163.92 C 170.24 160.52 172.40 157.19 174.50 154.55 Z" fill="#c3c0b7" />
<path d="M 140.02 154.95 C 137.30 158.09 134.88 159.82 130.85 161.01 C 133.57 158.31 136.49 156.43 140.02 154.95 Z" fill="#9b9693" />
<path d="M 121.33 159.05 C 120.49 162.70 119.52 166.28 118.13 169.76 C 112.48 171.16 108.09 174.08 102.03 173.70 C 107.12 173.70 109.24 170.33 112.71 167.30 C 112.78 165.40 113.03 163.60 113.46 161.74 C 116.09 160.86 118.68 159.89 121.33 159.05 Z" fill="#cfb562" />
<path d="M 129.13 161.24 L 129.44 162.85 C 129.08 165.85 128.29 168.74 127.43 171.63 C 126.39 171.73 125.35 171.81 124.31 171.89 C 123.61 170.39 122.99 168.85 122.58 167.23 C 125.17 165.45 127.15 163.68 129.13 161.24 Z" fill="#bdbab1" />
<path d="M 113.46 161.74 C 113.03 163.60 112.78 165.40 112.71 167.30 C 109.24 170.33 107.12 173.70 102.03 173.70 C 98.59 173.74 95.01 173.17 91.60 173.56 C 89.99 174.56 88.57 176.20 86.82 176.91 C 83.12 178.00 79.02 177.25 75.33 178.18 C 72.29 179.97 69.73 182.49 66.71 184.33 C 65.91 184.19 65.11 184.05 64.30 183.92 C 65.05 183.45 65.75 182.92 66.41 182.32 C 67.63 181.33 68.87 180.38 70.00 179.28 C 71.32 177.88 72.63 176.48 73.99 175.12 C 78.69 172.82 83.46 171.26 88.48 169.83 C 87.38 169.26 86.28 168.69 85.17 168.13 C 90.64 166.39 95.14 164.05 100.90 163.56 C 105.03 162.99 109.49 163.05 113.46 161.74 Z" fill="#f4eab3" />
<path d="M 129.44 162.85 C 129.86 164.82 130.31 166.79 130.74 168.75 C 131.43 172.49 132.13 176.22 132.92 179.94 C 132.14 179.45 131.37 178.95 130.59 178.48 C 130.03 181.47 129.24 183.51 127.45 185.99 C 127.26 183.97 127.10 181.98 126.83 180.00 C 126.39 177.72 125.77 175.47 124.92 173.31 L 124.31 171.89 C 125.35 171.81 126.39 171.73 127.43 171.63 C 128.29 168.74 129.08 165.85 129.44 162.85 Z" fill="#9a948e" />
<path d="M 156.40 169.32 C 160.65 168.38 164.58 170.58 167.03 173.96 C 169.61 177.58 171.63 181.74 173.03 185.96 C 174.38 190.20 174.62 195.09 171.76 198.78 C 169.31 201.94 164.99 202.69 161.27 201.77 C 157.71 200.50 155.35 197.52 151.52 196.61 C 150.00 196.22 148.46 195.89 146.92 195.60 C 146.11 195.44 145.30 195.29 144.49 195.13 C 144.22 190.94 142.53 187.13 141.96 183.03 C 142.50 175.22 149.35 170.79 156.40 169.32 Z" fill="#f7f7f7" />
<path d="M 118.13 169.76 C 116.30 176.21 111.41 179.95 106.21 183.67 C 102.39 184.99 98.33 186.28 96.84 190.46 L 98.02 191.32 L 98.16 191.66 C 98.15 192.74 98.14 193.82 98.15 194.90 C 96.75 195.71 95.34 196.65 93.86 197.28 C 92.24 197.32 90.58 196.86 88.99 196.57 C 87.81 197.56 86.64 198.55 85.47 199.55 C 84.20 198.52 82.93 197.48 81.62 196.49 C 80.63 196.40 79.62 196.38 78.62 196.34 C 78.64 197.44 78.66 198.54 78.73 199.63 C 77.25 201.40 75.91 203.27 74.53 205.11 C 73.03 204.84 71.46 204.61 70.02 204.10 C 68.16 202.83 66.81 200.19 66.53 197.97 C 67.69 195.21 69.40 192.71 70.64 189.98 C 68.20 188.19 67.47 187.24 66.71 184.33 C 69.73 182.49 72.29 179.97 75.33 178.18 C 79.02 177.25 83.12 178.00 86.82 176.91 C 88.57 176.20 89.99 174.56 91.60 173.56 C 95.01 173.17 98.59 173.74 102.03 173.70 C 108.09 174.08 112.48 171.16 118.13 169.76 Z" fill="#4b453c" />
<path d="M 67.24 173.21 C 68.94 173.35 67.92 175.46 66.79 175.70 C 65.16 175.59 66.08 173.38 67.24 173.21 Z" fill="#d8d8de" />
<path d="M 173.00 173.79 C 173.90 174.57 174.76 175.43 175.61 176.28 C 176.13 175.58 176.65 174.88 177.17 174.18 C 177.36 174.71 177.55 175.23 177.74 175.75 C 180.96 176.14 183.92 176.48 186.62 178.46 C 187.50 181.42 188.66 184.90 188.17 187.99 C 187.62 191.37 185.52 194.22 184.74 197.45 C 184.73 199.30 185.89 201.26 186.49 203.00 C 186.03 203.64 185.59 204.29 185.15 204.94 C 182.53 205.58 180.09 206.48 177.75 207.84 C 180.11 204.19 182.83 201.37 183.17 196.80 C 182.53 197.57 181.90 198.35 181.29 199.14 C 181.64 195.88 181.44 192.68 180.54 189.51 C 179.32 184.23 174.07 180.41 172.95 174.75 L 173.00 173.79 Z" fill="#88837c" />
<path d="M 63.53 176.62 C 65.12 177.67 66.69 178.75 68.23 179.88 C 68.82 179.68 69.41 179.48 70.00 179.28 C 68.87 180.38 67.63 181.33 66.41 182.32 C 64.62 180.52 63.66 182.10 62.77 183.70 C 61.81 185.08 60.85 186.45 59.89 187.82 C 58.97 187.61 58.05 187.41 57.13 187.22 C 60.13 184.10 61.12 180.08 63.53 176.62 Z" fill="#7d7c85" />
<path d="M 130.59 178.48 C 131.37 178.95 132.14 179.45 132.92 179.94 C 131.92 182.51 130.57 184.76 129.25 187.17 C 131.46 190.43 133.67 193.26 133.96 197.35 C 135.76 198.58 137.61 199.79 139.34 201.11 C 138.37 201.05 137.40 200.98 136.43 200.91 C 135.00 205.55 131.40 211.52 126.85 213.40 C 124.26 212.12 122.03 209.99 119.78 208.19 C 119.29 208.94 118.81 209.68 118.34 210.44 C 117.59 210.52 116.83 210.60 116.08 210.67 C 114.39 203.10 115.23 194.35 110.57 188.26 C 110.16 187.82 109.75 187.39 109.33 186.95 C 111.41 185.51 113.45 183.36 116.08 183.22 C 119.20 182.88 122.34 182.78 125.46 182.51 C 125.92 181.67 126.37 180.83 126.83 180.00 C 127.10 181.98 127.26 183.97 127.45 185.99 C 129.24 183.51 130.03 181.47 130.59 178.48 Z" fill="#8c8882" />
<path d="M 62.97 179.32 L 63.80 179.27 L 64.24 179.97 L 63.86 180.71 L 63.04 180.76 L 62.59 180.06 L 62.97 179.32 Z" fill="#cfcfd3" />
<path d="M 186.62 178.46 C 187.83 179.05 189.06 179.59 190.29 180.12 C 190.98 185.49 193.36 191.44 192.62 196.81 C 191.14 201.77 188.54 206.49 186.05 211.00 L 186.42 209.64 C 185.56 209.84 184.69 210.04 183.83 210.26 C 184.24 208.46 184.61 206.70 185.15 204.94 C 185.59 204.29 186.03 203.64 186.49 203.00 C 185.89 201.26 184.73 199.30 184.74 197.45 C 185.52 194.22 187.62 191.37 188.17 187.99 C 188.66 184.90 187.50 181.42 186.62 178.46 Z" fill="#b1ada4" />
<path d="M 66.41 182.32 C 65.75 182.92 65.05 183.45 64.30 183.92 L 62.77 183.70 C 63.66 182.10 64.62 180.52 66.41 182.32 Z" fill="#1f1d29" />
<path d="M 106.21 183.67 C 105.39 184.89 104.59 186.11 103.76 187.32 C 105.75 187.61 107.43 187.85 109.33 186.95 C 107.38 188.35 105.34 189.60 103.43 191.04 C 101.48 188.72 98.44 191.30 100.85 193.38 C 99.96 193.91 99.05 194.39 98.15 194.90 C 98.14 193.82 98.15 192.74 98.16 191.66 C 98.22 191.51 98.17 191.40 98.02 191.32 L 96.84 190.46 C 98.33 186.28 102.39 184.99 106.21 183.67 Z" fill="#77726a" />
<path d="M 62.77 183.70 L 64.30 183.92 C 65.11 184.05 65.91 184.19 66.71 184.33 C 67.47 187.24 68.20 188.19 70.64 189.98 C 69.40 192.71 67.69 195.21 66.53 197.97 C 66.81 200.19 68.16 202.83 70.02 204.10 C 71.46 204.61 73.03 204.84 74.53 205.11 C 74.06 205.69 73.58 206.26 73.09 206.82 C 70.72 207.64 68.31 208.27 65.86 208.77 C 66.95 207.66 68.04 206.54 69.13 205.43 C 67.80 204.10 66.41 202.86 64.95 201.66 C 64.37 200.40 64.40 198.36 62.73 198.17 C 60.80 198.10 58.70 199.62 56.96 200.40 C 57.26 197.69 58.98 193.74 57.26 191.32 C 58.18 190.19 59.04 189.01 59.89 187.82 C 60.85 186.45 61.81 185.08 62.77 183.70 Z" fill="#79746b" />
<path d="M 57.13 187.22 C 58.05 187.41 58.97 187.61 59.89 187.82 C 59.04 189.01 58.18 190.19 57.26 191.32 C 52.74 195.38 50.49 204.04 55.14 208.76 C 58.49 212.94 61.84 217.16 65.45 221.12 C 68.80 224.95 73.01 227.31 77.16 230.11 C 74.71 230.30 72.27 230.47 69.81 230.43 C 65.09 228.94 62.41 224.84 58.54 222.68 C 55.23 221.95 51.94 221.79 48.73 220.26 C 44.64 218.33 42.30 214.98 37.64 214.26 C 39.93 207.37 45.17 203.90 49.38 198.40 C 52.31 194.89 54.40 190.84 57.13 187.22 Z" fill="#20233f" />
<path d="M 110.57 188.26 C 115.23 194.35 114.39 203.10 116.08 210.67 L 115.24 210.74 C 111.27 204.52 111.90 195.44 110.57 188.26 Z" fill="#605d64" />
<path d="M 76.58 189.24 C 77.53 188.26 79.58 188.55 79.82 190.03 C 79.52 192.18 75.47 191.35 76.58 189.24 Z" fill="#79746b" />
<path d="M 103.43 191.04 C 102.67 191.98 101.81 192.76 100.85 193.38 C 98.44 191.30 101.48 188.72 103.43 191.04 Z" fill="#2e2c3a" />
<path d="M 98.02 191.32 C 98.17 191.40 98.22 191.51 98.16 191.66 L 98.02 191.32 Z" fill="#d7d7db" />
<path d="M 235.76 190.17 C 237.11 195.88 235.26 202.49 234.28 208.21 C 232.64 215.04 231.85 222.00 229.92 228.75 C 229.14 228.67 228.36 228.59 227.58 228.52 C 230.06 219.16 231.96 209.68 233.67 200.16 C 234.41 196.92 234.14 193.06 235.76 190.17 Z" fill="#343240" />
<path d="M 57.26 191.32 C 58.98 193.74 57.26 197.69 56.96 200.40 C 58.70 199.62 60.80 198.10 62.73 198.17 C 64.40 198.36 64.37 200.40 64.95 201.66 C 66.41 202.86 67.80 204.10 69.13 205.43 C 68.04 206.54 66.95 207.66 65.86 208.77 C 66.68 210.84 67.50 212.88 68.52 214.86 C 67.28 216.84 66.33 218.96 65.45 221.12 C 61.84 217.16 58.49 212.94 55.14 208.76 C 50.49 204.04 52.74 195.38 57.26 191.32 Z" fill="#4e483f" />
<path d="M 224.07 193.19 C 225.35 194.13 226.66 195.00 227.98 195.90 C 229.69 194.97 231.39 194.07 233.06 193.04 C 233.27 195.42 233.49 197.79 233.67 200.16 C 231.96 209.68 230.06 219.16 227.58 228.52 C 225.61 229.08 223.65 229.91 221.64 230.27 C 219.22 230.53 216.65 229.79 214.24 229.89 C 212.97 230.27 211.77 230.98 210.60 231.59 C 209.39 229.82 208.19 228.05 207.02 226.26 C 210.39 224.79 214.94 224.19 217.12 221.11 C 220.59 216.80 223.52 212.24 224.85 206.79 C 226.17 202.21 226.30 197.51 224.07 193.19 Z" fill="#88686c" />
<path d="M 146.92 195.60 C 148.46 195.89 150.00 196.22 151.52 196.61 C 153.49 199.93 157.07 203.33 157.73 207.18 C 157.82 211.85 154.21 215.12 150.81 217.73 C 149.46 218.15 148.09 218.51 146.72 218.86 C 144.76 217.99 143.05 218.33 141.03 218.69 L 140.57 217.93 C 140.29 217.42 140.01 216.91 139.73 216.40 C 137.58 217.86 135.30 219.83 132.77 220.52 C 127.97 221.27 123.96 219.56 119.77 217.44 C 120.82 216.66 121.87 215.88 122.92 215.11 C 121.17 214.34 119.42 213.57 117.67 212.79 L 117.55 211.76 L 118.34 210.44 C 118.81 209.68 119.29 208.94 119.78 208.19 C 122.03 209.99 124.26 212.12 126.85 213.40 C 131.40 211.52 135.00 205.55 136.43 200.91 C 137.40 200.98 138.37 201.05 139.34 201.11 C 140.72 202.25 142.03 203.46 143.34 204.69 C 143.81 204.43 144.28 204.18 144.75 203.92 C 145.37 201.12 146.05 198.33 146.92 195.60 Z" fill="#a0918f" />
<path d="M 81.62 196.49 C 82.93 197.48 84.20 198.52 85.47 199.55 C 85.43 200.78 85.42 202.09 85.12 203.29 C 84.26 204.25 83.27 204.94 82.26 205.73 C 81.36 205.08 80.47 204.41 79.58 203.73 C 79.28 202.36 78.98 201.00 78.73 199.63 C 78.66 198.54 78.64 197.44 78.62 196.34 C 79.62 196.38 80.63 196.40 81.62 196.49 Z" fill="#7f7a71" />
<path d="M 183.17 196.80 C 182.83 201.37 180.11 204.19 177.75 207.84 C 174.94 211.76 171.72 215.12 167.96 218.14 C 165.10 220.07 162.91 222.17 159.27 220.79 C 165.53 211.93 175.77 208.20 181.29 199.14 C 181.90 198.35 182.53 197.57 183.17 196.80 Z" fill="#2e2f47" />
<path d="M 147.33 199.68 C 148.33 198.86 151.19 200.34 150.50 201.69 C 149.51 202.54 146.54 201.02 147.33 199.68 Z" fill="#e7e4e3" />
<path d="M 78.73 199.63 C 78.98 201.00 79.28 202.36 79.58 203.73 C 78.47 206.34 77.16 208.85 75.86 211.37 C 74.90 209.87 74.01 208.34 73.09 206.82 C 73.58 206.26 74.06 205.69 74.53 205.11 C 75.91 203.27 77.25 201.40 78.73 199.63 Z" fill="#ada8a0" />
<path d="M 185.15 204.94 C 184.61 206.70 184.24 208.46 183.83 210.26 C 184.69 210.04 185.56 209.84 186.42 209.64 L 186.05 211.00 C 185.38 212.64 184.72 214.30 183.97 215.90 C 181.31 218.73 178.55 221.47 175.87 224.28 C 172.96 222.50 170.37 220.54 167.96 218.14 C 171.72 215.12 174.94 211.76 177.75 207.84 C 180.09 206.48 182.53 205.58 185.15 204.94 Z" fill="#715b5a" />
<path d="M 73.09 206.82 C 74.01 208.34 74.90 209.87 75.86 211.37 C 76.95 211.45 78.22 211.69 79.28 211.38 C 80.47 209.95 81.11 207.71 82.60 206.62 C 84.03 206.23 85.58 206.23 87.05 206.16 C 85.97 207.22 85.00 208.00 85.05 209.63 C 83.31 211.95 84.69 214.09 85.43 216.53 C 86.22 218.18 86.34 219.76 88.63 219.40 L 89.04 220.44 C 88.54 221.52 87.95 222.54 87.36 223.57 C 85.90 222.24 84.42 220.91 82.97 219.57 C 79.87 220.03 75.95 221.40 72.88 220.48 C 71.08 219.01 69.82 216.76 68.52 214.86 C 67.50 212.88 66.68 210.84 65.86 208.77 C 68.31 208.27 70.72 207.64 73.09 206.82 Z" fill="#93777b" />
<path d="M 87.05 206.16 C 89.49 207.68 91.70 209.55 94.15 211.09 C 92.22 212.37 90.33 213.68 88.50 215.09 C 89.03 216.07 89.56 217.04 90.10 218.01 C 89.75 218.82 89.40 219.63 89.04 220.44 L 88.63 219.40 C 87.17 216.18 85.97 213.04 85.05 209.63 C 85.00 208.00 85.97 207.22 87.05 206.16 Z" fill="#202137" />
<path d="M 44.14 207.28 C 46.11 207.84 43.82 210.74 42.48 209.73 C 41.81 208.68 43.05 207.29 44.14 207.28 Z" fill="#636373" />
<path d="M 85.05 209.63 C 85.97 213.04 87.17 216.18 88.63 219.40 C 86.34 219.76 86.22 218.18 85.43 216.53 C 84.69 214.09 83.31 211.95 85.05 209.63 Z" fill="#d5d2d1" />
<path d="M 40.58 211.14 C 41.58 210.18 44.14 212.68 43.38 213.75 C 42.31 214.60 39.83 212.28 40.58 211.14 Z" fill="#9797a2" />
<path d="M 172.23 211.33 C 169.93 214.48 167.63 216.45 164.10 218.14 C 166.32 215.21 169.02 213.09 172.23 211.33 Z" fill="#7d7c88" />
<path d="M 117.55 211.76 L 117.67 212.79 C 118.16 216.18 118.70 219.67 119.82 222.92 C 117.36 222.22 114.90 221.75 112.39 221.25 C 112.38 219.85 112.23 218.33 112.56 216.96 C 113.93 215.02 115.95 213.52 117.55 211.76 Z" fill="#bcbabd" />
<path d="M 117.67 212.79 C 119.42 213.57 121.17 214.34 122.92 215.11 C 121.87 215.88 120.82 216.66 119.77 217.44 C 123.96 219.56 127.97 221.27 132.77 220.52 C 135.30 219.83 137.58 217.86 139.73 216.40 C 140.01 216.91 140.29 217.42 140.57 217.93 C 138.88 220.80 137.39 223.15 138.42 226.59 C 136.05 226.88 134.29 228.23 132.13 229.06 C 126.64 229.65 123.49 226.31 119.82 222.92 C 118.70 219.67 118.16 216.18 117.67 212.79 Z" fill="#4e483f" />
<path d="M 47.12 215.12 C 49.03 216.07 50.83 217.21 52.61 218.38 C 49.02 219.51 47.65 218.17 44.90 216.17 C 45.63 215.81 46.38 215.46 47.12 215.12 Z" fill="#9595a0" />
<path d="M 68.52 214.86 C 69.82 216.76 71.08 219.01 72.88 220.48 C 75.95 221.40 79.87 220.03 82.97 219.57 C 84.42 220.91 85.90 222.24 87.36 223.57 C 87.95 222.54 88.54 221.52 89.04 220.44 C 89.40 219.63 89.75 218.82 90.10 218.01 C 92.81 219.58 95.15 221.49 96.98 224.06 L 97.07 224.95 C 95.33 225.00 94.51 226.78 95.81 228.03 C 94.18 229.50 92.53 230.94 90.88 232.39 C 83.85 232.02 76.86 230.88 69.81 230.43 C 72.27 230.47 74.71 230.30 77.16 230.11 C 73.01 227.31 68.80 224.95 65.45 221.12 C 66.33 218.96 67.28 216.84 68.52 214.86 Z" fill="#88686c" />
<path d="M 183.97 215.90 C 182.02 220.94 178.23 223.87 174.31 227.31 C 172.14 229.05 170.19 230.80 167.21 230.55 C 162.62 230.06 158.12 227.74 153.85 226.05 C 150.52 224.77 149.32 222.09 147.21 219.47 L 146.72 218.86 C 148.09 218.51 149.46 218.15 150.81 217.73 C 153.30 220.05 156.14 219.89 159.27 220.79 C 162.91 222.17 165.10 220.07 167.96 218.14 C 170.37 220.54 172.96 222.50 175.87 224.28 C 178.55 221.47 181.31 218.73 183.97 215.90 Z" fill="#89696c" />
<path d="M 96.40 216.78 C 98.41 219.12 100.56 221.54 101.97 224.28 C 102.38 226.45 102.78 229.28 100.22 230.25 C 97.22 231.28 93.99 231.75 90.88 232.39 C 92.53 230.94 94.18 229.50 95.81 228.03 C 96.86 227.15 97.28 226.13 97.07 224.95 L 96.98 224.06 C 96.76 221.64 96.57 219.21 96.40 216.78 Z" fill="#272842" />
<path d="M 146.72 218.86 L 147.21 219.47 C 146.24 221.37 145.45 223.50 144.14 225.20 C 142.41 226.04 140.29 226.19 138.42 226.59 C 137.39 223.15 138.88 220.80 140.57 217.93 L 141.03 218.69 C 143.05 218.33 144.76 217.99 146.72 218.86 Z" fill="#877c79" />
<path d="M 97.07 224.95 C 97.28 226.13 96.86 227.15 95.81 228.03 C 94.51 226.78 95.33 225.00 97.07 224.95 Z" fill="#b0acb1" />
</svg>